<?xml version="1.0" encoding="UTF-8" standalone="no"?>
<svg xmlns:xlink="http://www.w3.org/1999/xlink" height="102.85px" width="165.35px" xmlns="http://www.w3.org/2000/svg">
  <g transform="matrix(1.0, 0.0, 0.0, 1.0, 76.2, 63.9)">
    <path d="M59.15 0.35 L60.8 -0.6 60.95 -0.85 60.8 -4.55 60.75 -5.65 60.65 -6.4 Q59.85 -12.85 57.2 -22.2 53.45 -38.25 40.05 -48.2 20.35 -60.25 -5.05 -60.4 L-6.2 -60.4 -6.5 -60.4 -6.5 -60.85 Q-6.8 -62.45 -10.25 -62.7 L-17.55 -62.45 Q-19.3 -62.05 -19.9 -61.4 L-20.3 -60.7 -20.3 -60.5 Q-31.8 -61.2 -42.8 -55.9 -61.75 -46.3 -68.9 -30.85 -76.15 -15.4 -75.05 2.0 -64.7 8.1 -43.3 9.1 -31.15 24.3 -14.1 33.75 1.3 42.55 31.7 32.9 55.85 22.15 73.9 24.65 78.9 25.35 82.4 27.25 87.05 29.9 87.9 29.2 89.15 28.15 84.05 23.75 L76.3 15.5 60.8 -0.6 M59.15 0.35 Q55.3 2.15 49.8 2.55 L15.3 6.4 -15.6 8.55 -37.6 9.3 -39.55 9.25 -43.3 9.1 M-18.65 -58.95 Q-19.75 -59.35 -20.3 -59.75 L-20.3 -60.5 M-18.65 -58.95 L-17.25 -58.75 -13.3 -58.6 -8.7 -58.95 Q-7.45 -59.2 -6.9 -59.65 L-6.5 -60.1 -6.5 -60.4" fill="none" stroke="#000000" stroke-linecap="round" stroke-linejoin="round" stroke-width="2.0"/>
    <path d="M-6.5 -60.4 Q22.45 -59.15 41.55 -39.85 55.65 -25.15 59.15 0.35 M-43.3 9.1 Q-46.25 -20.0 -38.45 -38.2 -32.05 -53.2 -18.65 -58.95" fill="none" stroke="#000000" stroke-linecap="round" stroke-linejoin="round" stroke-width="1.5"/>
  </g>
</svg>
