<?xml version="1.0" encoding="UTF-8" standalone="no"?>
<svg xmlns:xlink="http://www.w3.org/1999/xlink" height="59.35px" width="143.1px" xmlns="http://www.w3.org/2000/svg">
  <g transform="matrix(1.0, 0.0, 0.0, 1.0, 69.7, 24.6)">
    <path d="M-54.1 -7.15 L-53.95 -7.65 Q-52.9 -11.3 -51.05 -12.3 -31.95 -22.9 9.2 -23.6 34.0 -22.5 49.15 -14.7 52.9 -11.45 54.05 -7.0 55.9 0.05 54.85 3.25 64.05 14.05 71.75 26.85 73.15 29.2 71.6 30.7 65.95 33.45 52.85 26.25 39.75 19.05 24.55 17.8 4.9 17.3 -21.65 31.35 -31.9 35.45 -37.2 32.5 -47.95 24.05 -53.1 8.4 -53.95 8.2 -54.45 6.65 L-54.6 6.15 Q-63.2 9.7 -68.7 13.85 -67.7 8.05 -64.65 0.15 -60.5 -3.8 -54.1 -7.15 L-55.0 -2.7 Q-55.25 3.35 -54.6 6.15 M54.85 3.25 Q40.4 -1.9 11.35 -3.2 -27.1 -1.35 -53.1 8.4" fill="none" stroke="#000000" stroke-linecap="round" stroke-linejoin="round" stroke-width="2.0"/>
  </g>
</svg>
