<?xml version="1.0" encoding="UTF-8" standalone="no"?>
<svg xmlns:xlink="http://www.w3.org/1999/xlink" height="113.95px" width="162.8px" xmlns="http://www.w3.org/2000/svg">
  <g transform="matrix(1.0, 0.0, 0.0, 1.0, 76.25, 57.5)">
    <path d="M4.2 -52.6 L4.3 -53.05 Q4.25 -54.75 0.8 -55.55 -3.25 -56.65 -6.75 -56.5 -8.55 -56.35 -9.35 -55.8 L-9.85 -55.15 -9.85 -54.95 -10.0 -54.2 -8.4 -53.1 -7.05 -52.7 Q-5.4 -52.2 -3.05 -51.85 L1.75 -51.5 Q3.05 -51.55 3.7 -51.9 L4.15 -52.3 4.2 -52.6 4.5 -52.55 5.7 -52.35 Q31.65 -48.1 49.8 -32.65 61.9 -20.3 63.15 -3.3 64.35 6.65 64.1 13.4 L64.05 14.2 63.95 15.35 63.55 19.15 Q87.55 44.1 85.35 53.4 83.25 54.95 79.05 55.4 74.85 55.85 61.15 53.25 47.45 50.65 16.55 53.7 -14.3 56.75 -27.25 45.25 -40.25 33.7 -49.35 11.4 -73.0 8.55 -75.25 5.25 -74.2 -17.9 -64.3 -32.5 -54.5 -47.15 -33.6 -53.85 -21.5 -57.55 -9.85 -54.95 M1.75 -51.5 L4.45 -50.2 4.9 -49.95 Q16.6 -43.7 23.8 -31.1 30.65 -5.65 31.45 15.6 31.5 16.8 30.6 20.25 L31.75 20.3 52.8 20.8 55.3 20.95 Q59.9 21.0 62.7 19.65 L63.25 19.35 63.55 19.15 M-8.4 -53.1 L-11.05 -52.25 -11.45 -52.15 Q-25.2 -46.7 -31.35 -32.2 -38.25 -14.4 -38.8 6.25 L-38.8 13.5 -33.8 14.3 -22.65 15.95 -1.05 18.3 30.6 20.25 M-49.35 11.4 L-42.9 12.75 -40.6 13.2 -38.8 13.5" fill="none" stroke="#000000" stroke-linecap="round" stroke-linejoin="round" stroke-width="2.0"/>
  </g>
</svg>
