<?xml version="1.0" encoding="UTF-8" standalone="no"?>
<svg xmlns:xlink="http://www.w3.org/1999/xlink" height="55.8px" width="160.0px" xmlns="http://www.w3.org/2000/svg">
  <g transform="matrix(1.0, 0.0, 0.0, 1.0, 65.9, 33.35)">
    <path d="M12.25 -8.65 L15.7 -9.2 37.45 -12.1 56.1 -13.4 56.8 -13.4 Q55.0 -23.35 49.0 -30.05 L46.7 -32.35 Q27.55 -32.35 10.55 -29.75 -6.45 -27.05 -21.4 -21.55 -46.35 -12.35 -64.9 4.95 L-64.9 19.9 -61.2 21.45 Q-42.05 7.3 -16.95 -1.15 -3.9 -5.55 10.55 -8.35 L12.25 -8.65 Q18.65 4.25 40.15 9.5 52.0 11.6 61.05 10.9 L65.0 10.35 Q71.4 9.25 80.65 5.85 L83.45 4.8 Q86.55 3.55 88.75 3.7 89.25 3.7 92.6 4.95 L92.7 4.9 Q94.2 3.15 90.0 0.1 85.75 -3.0 72.7 -6.85 59.65 -10.75 56.8 -13.4" fill="none" stroke="#000000" stroke-linecap="round" stroke-linejoin="round" stroke-width="2.0"/>
  </g>
</svg>
