<?xml version="1.0" encoding="UTF-8" standalone="no"?>
<svg xmlns:xlink="http://www.w3.org/1999/xlink" height="177.4px" width="106.55px" xmlns="http://www.w3.org/2000/svg">
  <g transform="matrix(1.0, 0.0, 0.0, 1.0, 115.0, 75.15)">
    <path d="M-103.15 18.75 L-103.2 18.7 Q-110.05 6.9 -109.5 -7.45 -105.05 -24.6 -92.0 -31.9 -79.05 -39.1 -70.4 -43.55 L-62.25 -55.45 Q-51.75 -70.45 -30.4 -74.15 -21.55 -73.75 -16.15 -67.55 -11.95 -65.25 -13.3 -56.2 -9.75 -55.9 -9.45 -50.85 -9.15 -45.6 -19.35 -28.4 -29.6 -11.2 -41.6 0.75 L-50.0 8.75 Q-55.85 14.05 -60.6 17.65 -68.85 23.9 -82.7 27.75 -87.35 24.45 -85.45 22.2 -90.15 23.8 -95.2 23.85 L-90.05 101.25 -95.35 91.8 -98.5 95.35 -98.5 23.45 -106.65 98.3 -110.65 88.5 -114.0 90.1 -103.15 18.75 Q-101.15 22.3 -98.5 23.4 L-95.25 23.85 -95.2 23.85 M-67.7 -44.95 L-70.4 -43.55 Q-71.4 -42.05 -67.7 -44.95 -58.65 -49.55 -51.15 -55.1 M-85.45 22.2 L-77.2 19.6 Q-72.45 18.15 -55.0 5.1 -33.15 -14.6 -18.2 -42.3 -15.45 -47.4 -13.3 -56.2 M-98.5 23.45 L-98.5 23.4" fill="none" stroke="#000000" stroke-linecap="round" stroke-linejoin="round" stroke-width="2.0"/>
  </g>
</svg>
