<?xml version="1.0" encoding="UTF-8" standalone="no"?>
<svg xmlns:xlink="http://www.w3.org/1999/xlink" height="122.9px" width="191.0px" xmlns="http://www.w3.org/2000/svg">
  <g transform="matrix(1.0, 0.0, 0.0, 1.0, 93.8, 75.9)">
    <path d="M-35.9 -26.8 L-36.55 -26.9 Q-37.5 -26.9 -38.2 -26.25 L-38.35 -26.05 Q-38.8 -25.45 -38.8 -24.6 -38.8 -23.65 -38.2 -23.05 -37.5 -22.35 -36.55 -22.35 L-35.85 -22.4 -34.95 -23.05 -34.9 -23.1 Q-34.25 -23.7 -34.25 -24.6 -34.25 -25.3 -34.6 -25.85 L-34.95 -26.25 Q-35.35 -26.7 -35.9 -26.8 M-42.25 -26.75 Q-43.65 -28.6 -42.55 -29.9 -41.7 -30.4 -40.35 -29.55 -40.8 -31.25 -39.65 -31.85 -38.25 -31.7 -37.3 -30.35 -36.8 -31.7 -36.05 -32.25 L-35.25 -32.6 Q-34.05 -32.4 -33.85 -30.45 -32.55 -32.0 -31.35 -31.0 -30.9 -29.8 -32.05 -28.25 L-29.15 -28.55 -28.6 -28.25 Q-27.65 -26.95 -29.3 -25.15 -28.0 -24.7 -27.95 -23.85 -28.15 -22.95 -29.45 -22.7 -28.15 -20.2 -28.95 -19.4 L-32.05 -19.5 Q-31.7 -18.7 -31.8 -18.05 -31.85 -17.5 -32.35 -17.1 L-33.35 -16.95 -33.7 -17.15 -34.45 -17.95 Q-35.35 -15.95 -37.15 -16.15 L-37.85 -16.5 Q-38.55 -17.15 -38.55 -18.75 -40.35 -16.95 -41.35 -18.15 -42.2 -19.1 -41.45 -20.25 -42.85 -19.8 -43.7 -21.1 L-43.85 -21.95 Q-43.7 -22.7 -42.45 -23.35 -44.95 -23.95 -44.55 -25.35 -44.2 -26.75 -42.25 -26.75" fill="#ffffff" fill-rule="evenodd" stroke="none"/>
    <path d="M40.05 -59.65 Q37.15 -63.0 33.95 -65.75 20.0 -78.5 6.1 -73.45 -1.4 -71.05 -9.35 -72.05 L-16.35 -72.5 Q-28.15 -72.2 -37.15 -64.65 -43.2 -59.1 -45.4 -50.85 -38.8 -45.2 -36.6 -35.45 -32.05 -32.65 -25.95 -30.8 L-22.95 -32.2 Q-14.2 -35.35 -7.0 -34.45 -0.65 -33.5 -1.15 -28.05 26.15 -27.45 48.65 -46.85 44.9 -54.1 40.05 -59.65 79.5 -61.75 89.6 -54.5 99.55 -47.3 94.55 -32.95 88.15 -19.95 77.85 -9.65 65.35 2.85 47.0 11.25 10.5 25.6 -42.1 12.7 -44.75 17.05 -46.25 25.3 -48.25 37.85 -53.15 46.0 L-56.3 36.05 -62.25 43.25 Q-58.8 29.8 -58.65 18.85 -58.5 11.6 -56.65 7.55 L-61.0 5.35 -61.25 5.9 Q-63.45 19.6 -69.4 30.3 L-70.9 22.55 -76.4 27.0 -72.95 5.2 Q-72.35 2.45 -71.1 0.05 -98.05 -14.5 -91.55 -32.55 -85.7 -47.5 -54.6 -50.05 L-54.6 -50.1 Q-53.55 -51.4 -52.3 -52.05 -49.35 -53.6 -45.4 -50.85 M-1.15 -28.05 Q-1.4 -25.5 -3.15 -21.95 -4.5 -19.5 -5.45 -16.95 L-5.95 -15.45 Q23.8 -13.75 42.6 -24.95 54.4 -32.25 51.85 -39.95 L48.65 -46.85 M-54.6 -50.05 L-55.75 -48.4 Q-58.1 -43.55 -58.1 -38.3 -64.85 -31.9 -62.1 -26.35 -60.45 -21.8 -51.3 -21.5 -57.0 -13.6 -66.5 -6.2 -69.4 -3.4 -71.1 0.05 M-36.05 -32.25 Q-36.25 -33.9 -36.6 -35.45 M-29.15 -28.55 L-25.95 -30.8 M-9.75 -9.1 Q-7.45 -8.5 -6.85 -12.15 L-5.95 -15.45 M-9.75 -9.1 L-9.95 -8.9 Q-10.8 -8.2 -13.05 -7.45 -16.0 -6.75 -22.2 -9.95 L-40.2 10.15 -42.1 12.7 M-43.1 -9.85 L-55.9 6.05 -56.65 7.55 M-61.0 5.35 Q-57.35 -2.3 -43.1 -9.85" fill="none" stroke="#000000" stroke-linecap="round" stroke-linejoin="round" stroke-width="2.0"/>
    <path d="M-58.1 -38.3 L-54.95 -40.95 M-42.25 -26.75 Q-44.2 -26.75 -44.55 -25.35 -44.95 -23.95 -42.45 -23.35 L-38.2 -23.05 Q-38.8 -23.65 -38.8 -24.6 -38.8 -25.45 -38.35 -26.05 -40.75 -26.8 -42.25 -26.75 -43.65 -28.6 -42.55 -29.9 -41.7 -30.4 -40.35 -29.55 -40.8 -31.25 -39.65 -31.85 -38.25 -31.7 -37.3 -30.35 -42.55 -43.2 -52.3 -52.05 M-43.1 -9.85 L-37.85 -16.5 Q-38.55 -17.15 -38.55 -18.75 -40.35 -16.95 -41.35 -18.15 -42.2 -19.1 -41.45 -20.25 -42.85 -19.8 -43.7 -21.1 L-43.85 -21.95 -51.3 -21.5 M-43.85 -21.95 Q-43.7 -22.7 -42.45 -23.35 M-40.35 -29.55 Q-39.9 -28.2 -38.35 -26.05 L-38.2 -26.25 Q-37.5 -26.9 -36.55 -26.9 L-35.9 -26.8 Q-36.4 -29.1 -37.3 -30.35 -36.8 -31.7 -36.05 -32.25 L-35.25 -32.6 Q-34.05 -32.4 -33.85 -30.45 -32.55 -32.0 -31.35 -31.0 -30.9 -29.8 -32.05 -28.25 L-29.15 -28.55 -28.6 -28.25 Q-27.65 -26.95 -29.3 -25.15 -28.0 -24.7 -27.95 -23.85 -28.15 -22.95 -29.45 -22.7 -28.15 -20.2 -28.95 -19.4 L-32.05 -19.5 Q-31.7 -18.7 -31.8 -18.05 -21.4 -13.05 -11.0 -11.3 -8.85 -10.2 -9.75 -9.1 M-33.85 -30.45 Q-34.8 -29.35 -35.9 -26.8 -35.35 -26.7 -34.95 -26.25 L-34.6 -25.85 -34.35 -26.05 -32.05 -28.25 M-29.3 -25.15 Q-30.9 -25.85 -34.35 -26.05 M-29.45 -22.7 L-34.9 -23.1 Q-32.8 -20.95 -32.05 -19.5 M-38.2 -23.05 Q-37.5 -22.35 -36.55 -22.35 L-35.85 -22.4 -34.95 -23.05 -34.9 -23.1 Q-34.25 -23.7 -34.25 -24.6 -34.25 -25.3 -34.6 -25.85 M-38.55 -18.75 Q-37.35 -19.95 -35.85 -22.4 -35.35 -19.3 -34.45 -17.95 L-33.7 -17.15 -33.35 -16.95 -32.35 -17.1 Q-31.85 -17.5 -31.8 -18.05 M-37.85 -16.5 L-37.15 -16.15 Q-35.35 -15.95 -34.45 -17.95 M-22.2 -9.95 Q-26.9 -12.4 -33.35 -16.95 M-5.45 -16.95 Q-7.45 -20.9 -11.55 -22.75 M-41.45 -20.25 Q-40.65 -21.5 -38.2 -23.05" fill="none" stroke="#000000" stroke-linecap="round" stroke-linejoin="round" stroke-width="1.5"/>
  </g>
</svg>
