<?xml version="1.0" encoding="UTF-8" standalone="no"?>
<svg xmlns:xlink="http://www.w3.org/1999/xlink" height="144.15px" width="222.5px" xmlns="http://www.w3.org/2000/svg">
  <g transform="matrix(1.0, 0.0, 0.0, 1.0, 138.05, 104.0)">
    <path d="M-101.2 -15.3 Q-110.9 -7.0 -116.65 0.4 -126.95 13.7 -124.55 24.0 -123.05 30.65 -116.65 34.45 -107.35 40.05 -74.9 39.0 -42.45 38.0 -3.65 21.25 35.1 4.45 48.8 -8.65 L65.35 -24.45 Q86.3 -44.45 83.0 -58.7 79.2 -75.0 46.2 -74.35 36.3 -74.15 25.5 -72.5 L16.95 -71.0 Q13.5 -70.3 10.0 -68.4 L16.0 -61.6 Q20.95 -63.0 21.95 -56.4 L27.35 -56.1 M9.4 -62.1 Q9.95 -53.75 2.7 -45.25 8.05 -44.85 13.4 -51.2 M-98.4 -43.85 L-95.25 -48.2 Q-97.2 -51.35 -102.7 -58.75 -103.7 -59.85 -107.55 -61.1 -111.4 -62.45 -113.7 -60.75 -126.6 -45.0 -137.05 -27.0 -118.55 -47.25 -107.85 -47.3 L-111.7 -51.15 M-107.85 -47.3 L-105.8 -28.25 -104.4 -24.05 Q-100.25 -21.05 -94.7 -25.2 -86.4 -31.3 -80.85 -36.55 L-73.85 -43.1 -70.5 -46.7 Q-67.25 -52.1 -65.85 -64.25 L-65.8 -65.25 -67.8 -70.95 M-101.2 -15.3 L-100.6 -15.85 Q-89.65 -25.15 -74.65 -35.3 L-70.5 -46.7 M-65.8 -65.25 Q-65.1 -68.3 -61.1 -78.3 M-88.15 -11.3 Q-84.4 -10.95 -80.85 -17.4 L-80.5 -22.35 Q-73.45 -26.25 -77.1 -28.75 L-74.65 -35.3 M-80.8 -15.35 L-80.85 -17.4 M-24.1 -21.45 Q-35.25 -14.8 -50.7 -11.2 -61.05 -8.75 -77.7 -11.35 M-95.25 -48.2 L-69.65 -83.75 Q-49.2 -104.65 -37.7 -102.85 -26.05 -98.45 -20.05 -92.6 -2.05 -81.0 10.0 -68.4" fill="none" stroke="#000000" stroke-linecap="round" stroke-linejoin="round" stroke-width="2.0"/>
    <path d="M16.95 -71.0 L17.95 -71.15 36.55 -72.55 Q66.15 -72.65 69.6 -57.55 72.55 -44.35 53.75 -26.25 L48.15 -21.2 Q23.2 0.2 -16.05 14.9 -55.35 29.6 -79.4 28.8 -103.5 27.95 -109.4 24.9 -115.35 21.8 -116.7 15.6 -118.85 6.1 -109.65 -6.05 -106.2 -10.5 -101.2 -15.3 L-95.2 -20.75 Q-86.6 -28.2 -76.35 -34.8 M10.0 -69.85 L16.95 -71.0" fill="none" stroke="#000000" stroke-linecap="round" stroke-linejoin="round" stroke-width="1.5"/>
  </g>
</svg>
