<?xml version="1.0" encoding="UTF-8" standalone="no"?>
<svg xmlns:xlink="http://www.w3.org/1999/xlink" height="61.05px" width="65.15px" xmlns="http://www.w3.org/2000/svg">
  <g transform="matrix(1.0, 0.0, 0.0, 1.0, 69.4, 72.25)">
    <path d="M-19.15 -59.3 Q-18.65 -60.3 -18.4 -61.45 -18.05 -63.1 -18.3 -64.65 -18.75 -66.1 -19.65 -67.3 -21.35 -70.0 -24.55 -70.9 -27.7 -71.85 -30.3 -70.15 L-30.45 -70.0 Q-33.15 -68.4 -33.75 -65.2 -34.7 -62.05 -32.9 -59.15 L-31.55 -57.8 Q-29.9 -56.15 -27.75 -55.7 L-26.65 -55.5 Q-24.45 -55.2 -22.4 -56.05 L-21.6 -56.45 Q-20.05 -57.7 -19.15 -59.3 L-9.95 -45.0 -8.5 -43.55 -7.9 -42.45 -5.25 -37.5 -5.7 -36.95 -9.3 -33.35 Q-12.85 -29.9 -16.65 -26.9 -30.75 -16.0 -47.05 -12.2 L-49.85 -15.7 -50.65 -18.1 -61.25 -34.4 -62.15 -34.6 Q-65.65 -35.3 -67.25 -38.2 -69.0 -40.85 -68.1 -43.95 L-67.95 -44.3 -67.75 -45.3 -67.5 -45.95 -67.4 -46.15 Q-66.55 -47.9 -64.9 -48.9 -62.15 -50.4 -59.15 -49.8 -55.85 -48.7 -54.25 -46.2 -52.65 -43.6 -52.85 -40.7 L-53.1 -40.05 Q-53.4 -38.25 -54.35 -36.9 -51.25 -34.0 -43.3 -34.25 -42.1 -40.55 -43.5 -48.75 L-47.35 -48.9 Q-48.95 -49.2 -50.45 -50.3 -51.4 -51.15 -52.1 -52.45 -54.05 -55.1 -53.15 -58.3 -52.55 -61.5 -50.1 -63.15 L-49.35 -63.6 Q-46.7 -64.65 -43.9 -64.15 -40.85 -63.3 -38.9 -60.65 L-38.05 -58.7 Q-37.65 -56.7 -37.95 -54.7 -38.25 -53.1 -38.95 -51.9 -31.3 -46.15 -26.95 -44.2 -22.95 -48.9 -26.65 -55.5 M-54.35 -36.9 Q-55.05 -36.0 -56.1 -35.25 L-57.2 -34.75 Q-59.2 -33.95 -61.25 -34.4 M-50.65 -18.1 L-45.65 -19.9 Q-26.6 -28.15 -13.5 -41.15 -11.65 -43.0 -9.95 -45.0 M-38.95 -51.9 Q-39.9 -50.65 -41.3 -49.75 -42.35 -49.0 -43.5 -48.75" fill="none" stroke="#000000" stroke-linecap="round" stroke-linejoin="round" stroke-width="2.0"/>
  </g>
</svg>
