<?xml version="1.0" encoding="UTF-8" standalone="no"?>
<svg xmlns:xlink="http://www.w3.org/1999/xlink" height="62.8px" width="78.0px" xmlns="http://www.w3.org/2000/svg">
  <g transform="matrix(1.0, 0.0, 0.0, 1.0, 11.9, 69.6)">
    <path d="M53.65 -51.8 L53.1 -52.5 Q46.75 -60.35 33.55 -65.55 29.05 -67.65 24.9 -68.05 14.1 -69.6 3.5 -66.65 -0.8 -64.85 -2.3 -61.2 L1.9 -58.75 1.95 -58.75 2.0 -58.65 Q22.45 -47.15 38.1 -43.3 49.55 -40.5 58.4 -41.65 L57.85 -43.85 Q56.5 -48.15 53.65 -51.8 63.45 -48.05 65.1 -43.2 L59.45 -34.35 54.1 -25.65 43.0 -8.5 Q14.75 -4.2 -10.9 -26.15 L-10.0 -47.55 -9.7 -56.95 -9.45 -65.7 Q-6.4 -68.85 3.5 -66.65 M1.9 -58.75 L1.55 -58.85 -2.3 -61.2 -9.45 -65.7 M65.1 -43.2 L62.85 -42.5 58.4 -41.65 M-9.7 -56.95 Q-3.9 -53.3 2.1 -50.2 31.2 -35.05 59.45 -34.35 M-10.0 -47.55 Q-3.8 -43.8 2.25 -40.6 31.4 -25.25 54.1 -25.65" fill="none" stroke="#000000" stroke-linecap="round" stroke-linejoin="round" stroke-width="2.0"/>
  </g>
</svg>
