<?xml version="1.0" encoding="UTF-8" standalone="no"?>
<svg xmlns:xlink="http://www.w3.org/1999/xlink" height="81.45px" width="80.9px" xmlns="http://www.w3.org/2000/svg">
  <g transform="matrix(1.0, 0.0, 0.0, 1.0, 96.2, 90.7)">
    <path d="M-84.1 -46.6 L-92.0 -47.65 -95.2 -57.85 -85.3 -54.05 -84.1 -46.6 Q-74.35 -41.35 -65.7 -39.15 -67.3 -46.85 -73.4 -59.1 L-79.9 -63.15 -81.0 -73.1 -81.05 -73.2 -73.4 -66.4 -73.4 -59.1 Q-65.45 -50.35 -55.1 -47.8 -56.7 -56.3 -60.3 -69.8 L-70.0 -76.2 -70.7 -89.7 -60.3 -81.1 -60.3 -69.8 Q-51.8 -56.35 -43.1 -50.8 -41.3 -56.55 -46.2 -71.75 L-52.45 -76.65 -52.65 -86.85 -45.2 -79.35 -46.2 -71.75 Q-38.1 -58.8 -30.0 -57.25 -29.45 -62.85 -29.9 -71.5 L-34.55 -76.35 -34.0 -83.25 -34.0 -83.3 -33.95 -83.5 -33.8 -84.6 -33.8 -85.1 -33.75 -86.15 -33.7 -86.1 -28.4 -79.5 -28.35 -79.5 -29.9 -71.5 -19.65 -40.35 -19.5 -39.85 -19.4 -39.45 -17.4 -33.5 -17.1 -32.45 -16.3 -30.05 Q-17.8 -20.45 -31.9 -14.4 -46.95 -8.0 -54.25 -11.5 L-59.35 -18.7 -59.45 -18.75 Q-70.6 -33.85 -84.1 -46.6 M-55.1 -47.8 Q-54.5 -40.2 -56.7 -37.95 L-59.85 -38.15 -65.7 -39.15 M-19.65 -40.35 L-19.4 -39.45 M-17.4 -33.5 L-17.3 -33.0 -17.1 -32.45 M-30.0 -57.25 Q-30.9 -48.25 -34.05 -47.85 -38.25 -48.1 -43.1 -50.8" fill="none" stroke="#000000" stroke-linecap="round" stroke-linejoin="round" stroke-width="2.0"/>
    <path d="M-35.2 -19.55 Q-41.95 -17.0 -47.0 -16.2 -56.15 -14.6 -59.35 -18.7 M-19.4 -39.45 Q-17.3 -31.0 -28.05 -23.85" fill="none" stroke="#000000" stroke-linecap="round" stroke-linejoin="round" stroke-width="1.5"/>
  </g>
</svg>
