<?xml version="1.0" encoding="UTF-8" standalone="no"?>
<svg xmlns:xlink="http://www.w3.org/1999/xlink" height="76.1px" width="105.7px" xmlns="http://www.w3.org/2000/svg">
  <g transform="matrix(1.0, 0.0, 0.0, 1.0, 104.25, 75.55)">
    <path d="M-36.2 -51.6 L-30.4 -54.0 Q-21.8 -57.1 -17.55 -47.05 -15.15 -41.35 -16.4 -35.75 -4.2 -35.8 0.45 -29.05 L-3.35 -28.15 -3.35 -21.9 Q-8.3 -28.2 -18.7 -30.1 L-19.45 -28.95 -20.6 -27.3 Q-27.95 -17.55 -39.9 -12.55 -52.0 -7.75 -63.65 -10.5 -70.95 -12.4 -75.2 -16.35 -79.5 -9.05 -80.9 -0.45 -86.35 -10.7 -79.9 -18.6 L-78.3 -20.3 -79.15 -21.9 -79.75 -23.65 Q-91.0 -19.0 -100.95 -11.8 -96.95 -25.0 -79.9 -27.65 L-79.8 -27.65 Q-79.35 -29.2 -78.1 -30.5 -91.75 -31.85 -103.25 -28.5 -92.65 -41.2 -77.9 -35.6 L-73.3 -33.45 -71.4 -34.15 -68.5 -35.1 -71.0 -41.45 -78.6 -60.75 Q-79.0 -67.15 -65.85 -71.45 -50.5 -76.5 -45.15 -73.3 L-37.95 -55.9 -36.2 -51.6 -33.3 -44.45 -31.1 -39.0 M-78.6 -60.75 Q-75.4 -58.7 -67.45 -60.5 -63.4 -61.45 -58.15 -63.35 -46.2 -67.75 -45.15 -73.3 M-68.5 -35.1 L-66.8 -31.0 Q-64.85 -28.35 -56.1 -30.8 -52.0 -32.0 -46.3 -34.3 -35.65 -40.35 -33.3 -44.45 M-37.95 -55.9 Q-39.7 -50.7 -51.3 -45.75 -56.55 -43.55 -60.5 -42.35 -68.65 -39.85 -71.0 -41.45 M-78.1 -30.5 L-73.95 -29.95 -67.3 -28.65 -65.7 -28.3 Q-69.65 -31.4 -73.3 -33.45 M-75.2 -16.35 L-75.2 -16.4 Q-71.55 -22.8 -65.7 -28.2 L-65.7 -28.3 Q-73.95 -24.65 -78.3 -20.3 M-65.7 -28.2 L-64.6 -25.55 M-65.7 -28.3 L-66.8 -31.0 M-79.75 -23.65 L-78.25 -24.25 Q-72.15 -26.6 -65.7 -28.3 L-79.8 -27.65 M-16.4 -35.75 L-17.25 -33.15 -18.7 -30.1" fill="none" stroke="#000000" stroke-linecap="round" stroke-linejoin="round" stroke-width="2.0"/>
  </g>
</svg>
