<?xml version="1.0" encoding="UTF-8" standalone="no"?>
<svg xmlns:xlink="http://www.w3.org/1999/xlink" height="186.5px" width="242.4px" xmlns="http://www.w3.org/2000/svg">
  <g transform="matrix(1.0, 0.0, 0.0, 1.0, 172.85, 66.45)">
    <path d="M37.2 -19.05 L63.8 -1.7 Q64.05 -4.95 63.8 -8.45 62.75 -19.85 55.9 -33.6 L55.25 -34.9 49.4 -43.35 Q24.85 -64.75 -4.1 -65.4 L-4.15 -65.4 -11.15 -65.2 -18.1 -64.5 Q-53.3 -59.55 -66.6 -34.4 L-67.9 -31.5 -70.15 -26.05 Q-75.95 -13.5 -82.95 -7.8 -83.45 -3.15 -78.15 -3.75 -68.55 -9.95 -62.25 -23.6 M-78.15 -3.75 L-79.45 -3.1 Q-81.15 0.15 -81.15 2.5 -81.15 4.7 -79.45 6.3 L-58.1 -12.85 M-79.45 6.3 L-82.0 8.55 Q-83.15 11.45 -82.5 12.5 -80.0 16.55 -75.95 17.35 L-74.4 17.6 Q-68.8 -3.95 3.6 -6.55 54.15 -4.25 65.95 10.3 67.55 8.7 68.2 7.1 69.7 3.05 65.0 -1.0 L63.8 -1.7 M-81.15 2.5 Q-84.9 4.7 -86.35 7.05 -87.15 8.35 -87.3 9.7 L-87.0 11.3 -86.7 12.9 Q-86.2 15.15 -85.25 16.95 L-84.3 18.4 -83.15 19.6 Q-81.55 21.15 -79.2 21.8 L-77.6 22.15 -75.95 17.35 M-87.3 9.7 Q-99.2 12.4 -113.6 6.3 -125.1 5.6 -133.95 16.95 -159.5 48.8 -171.85 42.4 -165.25 51.35 -130.15 42.4 -105.55 32.85 -90.95 23.2 L-84.3 18.4 M-90.95 23.2 L-106.5 42.75 Q-114.95 52.95 -119.0 65.0 -127.3 100.25 -141.8 119.05 -99.85 91.65 -92.7 66.75 L-77.6 22.15" fill="none" stroke="#000000" stroke-linecap="round" stroke-linejoin="round" stroke-width="2.0"/>
  </g>
</svg>
