<?xml version="1.0" encoding="UTF-8" standalone="no"?>
<svg xmlns:xlink="http://www.w3.org/1999/xlink" height="95.25px" width="173.15px" xmlns="http://www.w3.org/2000/svg">
  <g transform="matrix(1.0, 0.0, 0.0, 1.0, 91.25, 77.4)">
    <path d="M-28.8 -75.65 L-21.5 -76.4 Q-12.05 -76.1 1.55 -71.25 L9.4 -68.2 Q35.0 -61.3 42.35 -54.0 48.45 -47.95 50.45 -41.75 50.5 -41.35 50.7 -41.0 L50.2 -29.6 50.2 -29.55 50.15 -29.4 50.05 -29.2 Q82.0 -16.1 80.85 -8.4 80.4 -5.5 78.65 -3.55 75.75 -0.3 69.35 0.4 59.05 1.5 47.5 8.35 36.5 14.9 26.3 16.85 12.1 16.85 -17.5 1.4 -19.25 0.25 -21.5 -0.9 -30.6 -6.15 -48.1 -11.5 -81.8 -19.35 -90.25 -30.25 -88.25 -39.2 -59.75 -47.35 -50.7 -51.1 -32.85 -51.1 -33.3 -74.05 -28.8 -75.65 -27.65 -71.45 -25.5 -67.7 -23.8 -64.7 -21.5 -61.95 -12.8 -52.6 3.75 -46.25 28.05 -32.15 41.85 -34.65 44.45 -35.15 46.65 -36.25 L47.85 -36.9 48.6 -38.0 49.6 -39.55 50.7 -41.0 M50.2 -29.6 L50.15 -29.4 M-32.85 -51.1 Q-34.85 -38.9 -28.1 -34.15 L-21.5 -30.7 -4.8 -22.75 Q11.45 -12.3 38.7 -13.65 45.7 -18.2 49.4 -27.3 L49.6 -27.9 50.05 -29.2" fill="none" stroke="#000000" stroke-linecap="round" stroke-linejoin="round" stroke-width="2.0"/>
  </g>
</svg>
