<?xml version="1.0" encoding="UTF-8" standalone="no"?>
<svg xmlns:xlink="http://www.w3.org/1999/xlink" height="93.2px" width="137.35px" xmlns="http://www.w3.org/2000/svg">
  <g transform="matrix(1.0, 0.0, 0.0, 1.0, 111.65, 67.95)">
    <path d="M-110.65 -31.0 L-109.35 -32.25 -40.7 -65.65 Q-37.8 -67.15 -34.25 -66.95 L23.5 -62.75 24.05 -62.55 Q25.85 -61.75 22.85 -60.0 L-7.8 -41.2 -4.0 -36.35 Q-0.9 -31.75 -0.45 -28.45 0.3 -20.85 -17.55 -9.7 -37.45 1.0 -57.5 -3.1 -67.2 -4.85 -67.25 -14.55 L-67.25 -15.85 -83.8 -21.1 M-7.8 -41.2 L-52.55 -14.0 Q-55.8 -12.2 -59.0 -13.2 L-67.25 -15.85 M-67.25 -14.55 Q-59.95 -11.65 -51.05 -11.75 -25.25 -12.05 -4.0 -36.35" fill="none" stroke="#000000" stroke-linecap="round" stroke-linejoin="round" stroke-width="2.0"/>
    <path d="M-83.8 -21.1 L-84.25 -19.55 -84.2 6.85 M-86.65 6.75 L-86.65 -20.65 -86.7 -22.0 -86.25 -23.2 Q-85.6 -24.55 -83.75 -25.6 L-49.55 -44.0 Q-48.25 -44.7 -47.75 -43.6 L-47.6 -43.3 Q-47.4 -42.55 -49.15 -41.65 L-82.9 -23.5 -83.85 -22.4 Q-84.15 -21.85 -83.8 -21.1" fill="none" stroke="#000000" stroke-linecap="round" stroke-linejoin="round" stroke-width="1.0"/>
    <path d="M-84.2 6.85 Q-83.65 7.05 -83.25 7.55 -82.3 8.5 -82.3 9.85 -82.3 10.9 -82.8 11.65 -80.35 15.45 -81.75 18.9 -83.1 20.85 -84.1 24.6 -91.0 20.2 -88.25 11.8 -88.9 10.95 -88.85 9.9 -88.85 8.5 -87.95 7.5 L-86.65 6.75 -85.55 6.55 -84.2 6.85 M-82.8 11.65 L-83.25 12.2 Q-84.25 13.15 -85.6 13.2 -86.9 13.2 -87.95 12.15 L-88.25 11.8" fill="none" stroke="#000000" stroke-linecap="round" stroke-linejoin="round" stroke-width="1.3"/>
  </g>
</svg>
