<?xml version="1.0" encoding="UTF-8" standalone="no"?>
<svg xmlns:xlink="http://www.w3.org/1999/xlink" height="61.15px" width="68.65px" xmlns="http://www.w3.org/2000/svg">
  <g transform="matrix(1.0, 0.0, 0.0, 1.0, 72.7, 73.95)">
    <path d="M-28.5 -67.2 L-28.85 -68.1 -30.35 -72.85 Q-36.3 -73.25 -41.65 -71.95 L-44.3 -71.2 -45.35 -70.75 -45.85 -67.95 -45.85 -67.7 -45.95 -67.55 Q-48.45 -50.5 -41.15 -27.95 L-37.0 -28.7 -35.65 -29.0 -31.65 -30.1 Q-27.0 -31.45 -23.55 -32.75 -23.55 -37.0 -23.7 -40.9 L-23.95 -43.05 -24.05 -44.05 -24.1 -45.1 -24.2 -46.1 -24.2 -46.7 -28.5 -67.2 -28.6 -67.55 -28.85 -68.1 M-23.55 -32.75 L-22.3 -33.15 -20.3 -33.9 -19.15 -34.4 -18.95 -34.4 -18.4 -34.85 Q-12.9 -37.25 -10.25 -39.75 -10.25 -50.5 -16.0 -65.85 L-16.5 -67.2 -17.25 -69.1 -17.9 -70.75 -24.45 -72.2 -27.85 -72.6 -28.5 -72.7 -30.35 -72.85 M-17.9 -70.75 L-17.8 -70.75 -16.15 -70.5 Q-14.75 -70.2 -13.4 -69.3 -9.25 -66.35 -6.35 -57.8 -3.6 -50.35 -6.75 -44.6 L-6.95 -44.05 -7.0 -43.9 -7.2 -43.8 -7.45 -43.4 -8.95 -41.45 -9.2 -41.3 -6.25 -31.25 -6.25 -31.1 Q-8.7 -24.1 -27.85 -16.15 -51.35 -10.9 -59.3 -17.3 L-60.65 -28.25 Q-70.7 -29.0 -71.7 -40.2 -71.85 -48.3 -68.95 -54.75 -67.85 -57.55 -66.05 -60.0 -63.8 -63.05 -60.9 -65.2 L-59.5 -66.2 Q-53.6 -70.1 -45.35 -70.75 M-60.65 -28.25 L-60.65 -28.45 Q-58.75 -27.7 -56.15 -27.3 L-56.25 -27.7 Q-63.2 -47.7 -60.9 -65.2 M-41.15 -27.95 L-46.85 -27.2 Q-50.75 -26.85 -53.85 -27.1 L-56.0 -27.3 -56.15 -27.3 M-9.2 -41.3 Q-9.65 -40.55 -10.25 -39.75" fill="none" stroke="#000000" stroke-linecap="round" stroke-linejoin="round" stroke-width="2.0"/>
  </g>
</svg>
