<?xml version="1.0" encoding="UTF-8" standalone="no"?>
<svg xmlns:xlink="http://www.w3.org/1999/xlink" height="73.35px" width="150.2px" xmlns="http://www.w3.org/2000/svg">
  <g transform="matrix(1.0, 0.0, 0.0, 1.0, 83.1, 64.5)">
    <path d="M52.2 -17.75 Q42.15 -20.5 38.0 -23.25 L37.35 -23.65 36.4 -24.2 Q22.1 -32.25 3.45 -36.55 L3.35 -36.55 Q-16.55 -40.15 -41.65 -32.2 -50.8 -29.5 -58.4 -23.25 L-60.3 -21.6 -61.1 -20.9 Q-25.2 -8.15 2.25 -2.9 2.7 -4.35 3.65 -5.65 5.15 -7.8 7.75 -9.6 L10.4 -7.75 Q8.15 -6.05 7.1 -4.4 L16.2 -2.1 Q17.6 -4.95 21.0 -7.25 L23.6 -5.4 Q20.8 -3.3 19.8 -1.1 19.25 0.05 19.35 1.25 L24.35 2.65 25.6 1.55 25.4 2.55 Q44.55 6.75 61.5 3.3 67.7 1.65 65.55 -5.85 63.35 -13.6 52.2 -17.75 63.45 -16.75 63.75 -20.1 L63.05 -25.3 Q60.55 -37.35 51.2 -45.75 45.6 -50.0 39.25 -53.3 22.2 -62.05 -0.5 -63.5 -21.85 -63.75 -40.75 -57.3 -56.55 -51.9 -70.45 -39.35 L-71.5 -38.4 -75.8 -34.15 Q-85.5 -21.95 -80.3 -13.15 -74.95 -7.55 -66.1 -15.65 -63.65 -18.55 -61.1 -20.9 M2.25 -2.9 Q1.45 -0.55 1.85 2.25 2.9 6.45 7.25 5.25 11.45 4.15 12.3 -0.45 L12.1 -0.55 Q7.55 3.4 6.45 -0.2 6.05 -1.25 6.25 -2.3 L6.3 -2.45 Q6.45 -3.4 7.1 -4.4 M6.25 -2.3 L12.1 -0.55 12.35 -0.8 12.3 -0.45 15.2 0.4 15.7 -1.1 16.2 -2.1 M15.2 0.4 Q14.75 2.35 15.05 4.6 16.1 8.8 20.45 7.6 24.35 6.55 25.4 2.55 M19.35 1.25 L19.65 2.15 Q20.65 5.3 24.35 2.65" fill="none" stroke="#000000" stroke-linecap="round" stroke-linejoin="round" stroke-width="2.0"/>
  </g>
</svg>
