<?xml version="1.0" encoding="UTF-8" standalone="no"?>
<svg xmlns:xlink="http://www.w3.org/1999/xlink" height="92.65px" width="149.4px" xmlns="http://www.w3.org/2000/svg">
  <g transform="matrix(1.0, 0.0, 0.0, 1.0, 87.95, 66.3)">
    <path d="M-55.5 -43.05 Q-44.7 -52.65 -31.9 -58.05 -13.65 -65.85 8.65 -65.25 33.95 -60.05 58.15 -40.55 61.95 -36.05 59.45 -27.1 L59.25 -24.8 59.25 -24.75 59.05 -23.7 58.0 -18.4 56.65 -14.35 Q58.55 -10.7 58.35 -7.65 58.15 -3.9 55.85 -1.1 54.35 -5.35 50.45 -9.35 L48.0 -11.7 Q39.2 -19.0 26.15 -20.9 -4.95 -24.75 -57.1 11.1 L-57.45 18.9 -57.45 23.8 Q-57.9 25.9 -62.1 25.2 -66.0 24.5 -66.95 20.8 -68.55 23.35 -75.95 19.9 -80.35 16.9 -80.55 13.95 -84.85 13.4 -86.95 9.4 -87.15 7.85 -80.35 4.15 L-80.55 2.85 Q-77.3 -18.1 -71.7 -30.55 L-68.9 -36.25 Q-61.25 -44.95 -55.5 -43.05 L-67.5 -32.05 M56.65 -14.35 L49.45 -22.1 Q39.1 -32.0 23.75 -34.65 -4.35 -36.55 -30.05 -22.95 -46.65 -14.15 -62.35 1.15 L-62.4 1.25 Q-58.9 8.7 -60.05 12.95 L-57.1 11.1 M-80.35 4.15 Q-79.7 7.5 -77.2 10.1 L-76.5 10.9 Q-70.8 16.35 -57.45 18.9 M-62.35 1.15 Q-67.9 -15.6 -64.4 -29.4" fill="none" stroke="#000000" stroke-linecap="round" stroke-linejoin="round" stroke-width="2.0"/>
  </g>
</svg>
