<?xml version="1.0" encoding="UTF-8" standalone="no"?>
<svg xmlns:xlink="http://www.w3.org/1999/xlink" height="99.8px" width="171.15px" xmlns="http://www.w3.org/2000/svg">
  <g transform="matrix(1.0, 0.0, 0.0, 1.0, 91.05, 90.15)">
    <path d="M46.1 -44.3 L46.75 -63.85 Q47.25 -69.7 43.4 -74.4 L40.7 -77.05 Q33.1 -83.2 16.4 -86.75 6.85 -83.5 -2.05 -85.7 L-20.4 -88.7 Q-26.3 -90.2 -30.95 -86.9 -34.9 -84.1 -38.0 -77.8 -39.35 -75.05 -40.5 -71.7 L-48.35 -40.3 -49.65 -36.25 Q-43.95 -32.25 -25.55 -28.4 -7.2 -24.6 25.15 -23.45 46.35 -24.35 48.65 -30.3 L46.1 -44.3 Q71.35 -37.4 78.35 -21.15 84.25 3.55 44.0 8.3 L36.4 8.65 36.05 8.65 Q-8.85 9.4 -63.25 -17.35 -83.6 -26.25 -88.45 -34.75 -90.8 -38.75 -89.75 -42.6 -83.0 -49.5 -65.4 -38.55 -62.35 -37.05 -48.35 -40.3 M48.65 -30.3 Q49.85 -16.1 38.25 -11.0 L38.15 -10.95 Q26.1 -5.7 0.35 -10.05 -9.8 -11.8 -22.05 -15.0 6.0 -0.85 38.6 7.05 L44.0 8.3 M-22.05 -15.0 Q-36.85 -20.45 -51.85 -29.6 -58.6 -33.75 -65.4 -38.55 M-51.85 -29.6 L-49.65 -36.25" fill="none" stroke="#000000" stroke-linecap="round" stroke-linejoin="round" stroke-width="2.0"/>
  </g>
</svg>
