<?xml version="1.0" encoding="UTF-8" standalone="no"?>
<svg xmlns:xlink="http://www.w3.org/1999/xlink" height="99.8px" width="169.85px" xmlns="http://www.w3.org/2000/svg">
  <g transform="matrix(1.0, 0.0, 0.0, 1.0, 96.7, 50.95)">
    <path d="M30.0 -36.65 L35.0 -34.0 32.35 -37.65 30.0 -36.65 M-42.55 -41.05 Q-41.95 -46.05 -37.7 -47.15 -31.1 -48.75 -25.75 -45.9 L-24.65 -47.3 Q-22.1 -50.6 -18.05 -50.95 -15.65 -51.0 -13.45 -49.55 -11.2 -48.05 -10.05 -46.25 -9.2 -48.7 -6.7 -49.45 -3.6 -50.6 -0.6 -48.75 1.3 -47.75 2.75 -45.8 4.85 -48.0 7.65 -47.3 11.85 -46.35 14.85 -43.3 19.0 -45.75 23.2 -43.15 25.6 -41.6 26.15 -38.6 30.4 -41.05 34.05 -38.65 36.85 -36.75 38.3 -33.6 L38.3 -33.15 Q43.05 -35.55 45.55 -31.6 L48.15 -26.1 Q48.55 -25.0 48.35 -23.85 50.35 -23.85 52.45 -22.0 54.45 -20.05 54.4 -18.15 54.15 -16.4 54.15 -14.45 L54.15 -13.65 Q59.35 -12.5 58.5 -8.1 57.9 -5.7 57.35 -5.15 58.65 -0.55 59.25 4.4 L59.35 4.75 59.35 5.05 59.2 4.55 57.65 1.0 57.55 1.7 Q57.35 2.55 56.5 1.95 53.6 0.05 52.15 -3.05 L52.05 -3.4 Q47.85 -4.3 45.3 -8.15 44.9 -8.8 45.0 -9.5 39.5 -8.45 36.6 -14.05 L35.35 -15.45 Q31.35 -12.2 27.6 -16.6 27.3 -16.85 27.15 -17.3 20.85 -14.75 15.4 -19.5 10.15 -16.1 4.45 -19.75 -2.15 -15.0 -8.75 -20.1 -13.55 -16.7 -18.65 -20.05 L-18.9 -20.2 Q-22.95 -15.05 -29.2 -18.1 -34.5 -12.45 -41.7 -16.0 -44.15 -9.65 -51.05 -10.25 L-52.1 -10.55 Q-52.1 -5.75 -55.95 -2.75 -58.5 -0.65 -61.75 -2.35 -62.15 0.3 -63.0 1.95 L-69.75 4.65 -70.45 4.4 Q-72.0 4.2 -72.45 3.7 L-74.55 6.8 -74.95 6.3 -75.35 6.65 -75.55 7.0 -75.8 6.6 -75.9 6.5 -74.95 0.85 Q-76.65 0.05 -77.5 -2.25 -78.5 -5.3 -77.6 -8.1 -76.4 -12.75 -72.15 -13.35 L-72.95 -17.95 Q-73.3 -21.1 -71.55 -23.7 -69.6 -26.4 -65.85 -25.45 -66.25 -28.25 -65.3 -30.9 -63.05 -37.05 -55.45 -35.55 L-55.25 -35.55 -52.1 -40.45 Q-48.55 -45.35 -43.75 -41.4 -43.45 -41.05 -43.05 -41.0 L-42.55 -41.05 M-7.55 -26.95 Q-6.8 -25.45 -6.55 -23.85 -5.7 -18.95 0.3 -21.05 4.1 -22.15 2.75 -26.25 L2.6 -26.85 Q-2.35 -27.2 -7.55 -26.95 M9.6 -43.95 Q8.25 -44.8 6.7 -45.2 L6.25 -44.7 9.6 -43.95 M5.8 -26.85 L5.85 -25.4 Q5.8 -23.55 6.2 -22.0 13.55 -18.5 15.35 -25.7 L5.8 -26.85 M28.75 -22.9 L28.85 -20.6 28.6 -19.8 Q29.3 -18.55 30.45 -17.65 31.35 -16.85 32.4 -16.7 33.4 -19.25 35.05 -20.1 32.1 -21.75 28.75 -22.9 M16.2 -25.65 Q17.1 -23.0 18.75 -20.75 19.55 -19.9 20.7 -19.4 L24.55 -19.2 Q25.25 -21.75 26.65 -23.55 L16.2 -25.65 M22.4 -40.2 Q20.45 -42.1 17.75 -41.75 L22.4 -40.2 M51.45 -17.7 L51.6 -19.4 Q50.6 -19.65 49.9 -20.05 L51.45 -17.7 M38.0 -18.7 Q37.7 -15.4 40.8 -12.65 L41.65 -12.1 43.3 -12.05 44.3 -12.65 45.2 -14.0 38.0 -18.7 M47.65 -11.95 L47.65 -11.5 Q48.5 -6.2 53.75 -5.35 51.1 -8.95 47.65 -11.95 M55.0 -3.8 L54.75 -3.35 55.65 -2.75 55.0 -3.8 M56.1 -8.55 L56.5 -9.15 55.7 -9.7 56.1 -8.55 M40.2 -30.5 L45.15 -25.8 40.2 -30.5 M-46.0 -39.75 L-47.85 -40.55 -50.1 -37.8 -46.0 -39.75 M-57.5 -33.0 Q-62.7 -33.55 -62.75 -28.2 L-62.75 -27.65 -57.5 -33.0 M-70.05 -15.6 Q-68.4 -19.35 -66.4 -22.6 L-68.65 -22.45 Q-70.05 -19.2 -70.05 -15.6 M-72.3 -9.7 Q-75.7 -9.25 -74.7 -3.9 L-74.25 -2.4 Q-73.45 -6.3 -72.3 -9.7 M-71.15 1.85 L-69.3 2.1 Q-68.4 2.65 -67.35 2.65 -64.75 0.05 -64.25 -3.25 -64.0 -4.6 -64.4 -5.85 -68.2 -2.25 -71.15 1.85 M-51.6 -15.7 L-50.95 -14.5 -50.25 -12.65 Q-44.05 -13.3 -44.65 -19.4 L-44.65 -19.5 Q-48.3 -17.7 -51.6 -15.7 M-62.15 -7.95 Q-61.15 -7.3 -60.45 -5.6 -59.8 -4.1 -58.25 -4.35 -54.75 -6.85 -54.9 -11.25 -55.0 -12.35 -55.25 -13.3 -58.95 -10.7 -62.15 -7.95 M-17.8 -26.3 L-17.5 -25.0 -17.2 -22.6 Q-9.65 -19.4 -9.25 -26.95 L-17.8 -26.3 M-12.9 -45.9 Q-13.75 -47.15 -15.7 -47.35 -19.85 -48.15 -23.55 -44.95 L-12.9 -45.9 M-0.75 -45.65 Q-3.45 -47.35 -6.3 -46.05 L-6.55 -45.9 -0.75 -45.65 M-27.9 -44.2 L-28.85 -44.55 Q-35.6 -46.5 -38.55 -42.45 L-38.6 -42.15 -31.45 -43.5 -27.9 -44.2 M-40.65 -21.3 L-39.95 -19.9 -39.25 -17.65 Q-36.15 -16.7 -33.25 -18.15 L-32.0 -18.7 -30.25 -24.7 -34.2 -24.05 -40.65 -21.3 M-28.6 -24.95 Q-27.75 -22.6 -27.3 -20.05 -20.45 -19.5 -20.2 -26.15 L-28.6 -24.95" fill="#131215" fill-rule="evenodd" stroke="none"/>
    <path d="M64.8 22.45 L63.25 17.2 62.6 14.3 64.8 22.45" fill="#1c1a1e" fill-rule="evenodd" stroke="none"/>
    <path d="M-77.05 6.9 L-76.55 7.15 -76.25 6.6 -75.8 6.6 -75.55 7.0 -75.35 6.65 Q-73.15 7.0 -73.6 9.4 -73.95 11.8 -76.35 11.7 -79.5 11.5 -78.85 8.75 L-78.45 8.55 -78.65 8.45 -78.65 8.3 Q-78.6 7.75 -78.15 7.5 L-77.05 6.9" fill="#111012" fill-rule="evenodd" stroke="none"/>
    <path d="M-76.25 6.6 L-76.05 6.3 -75.9 6.5 -75.8 6.6 -76.25 6.6" fill="#353535" fill-rule="evenodd" stroke="none"/>
    <path d="M30.0 -36.65 L35.0 -34.0 M57.35 -5.15 Q58.65 -0.55 59.25 4.4 L59.75 3.85 60.2 -0.25 Q60.35 -2.8 61.2 -5.0 61.45 -5.75 62.2 -5.75 64.55 -4.45 65.15 -2.25 L66.4 -2.8 Q70.2 -0.7 70.0 4.4 L69.75 26.55 Q69.75 27.3 68.8 27.1 L68.3 26.95 Q68.15 30.4 68.45 32.45 L69.5 38.35 Q70.2 42.2 72.4 48.1 67.9 46.4 63.75 44.1 64.5 39.3 64.0 33.75 63.45 28.15 63.85 25.55 64.25 22.9 63.25 17.2 L60.5 9.05 Q56.8 2.0 59.2 4.55 L57.65 1.0 M-63.0 1.95 L-52.5 -2.4 Q-48.7 0.85 -50.35 7.05 -51.6 11.35 -52.1 15.85 -52.8 21.35 -56.45 22.65 -56.95 22.8 -62.3 19.95 -67.7 17.15 -73.95 11.55 -72.75 13.35 -72.4 20.7 -71.9 28.1 -70.75 33.0 L-68.4 42.4 -74.7 40.65 Q-75.65 38.75 -75.95 31.35 -76.35 23.9 -75.8 13.2 L-77.35 16.15 Q-78.85 18.85 -80.15 25.4 -81.55 31.9 -81.25 38.55 -84.2 37.95 -87.0 36.95 -86.1 34.55 -85.4 30.65 -84.8 26.75 -83.25 21.55 -81.7 16.45 -79.05 11.95 -86.6 13.8 -94.35 13.9 -96.3 13.9 -95.85 11.85 -93.5 2.85 -89.3 -4.35 -84.05 2.1 -77.05 6.9 L-76.55 7.15 -76.25 6.6 -76.05 6.3 -75.9 6.5 -74.95 0.85 M-43.05 -41.0 L-42.55 -41.05 M2.6 -26.85 Q-2.35 -27.2 -7.55 -26.95 M9.6 -43.95 L6.25 -44.7 M15.35 -25.7 L5.8 -26.85 M35.05 -20.1 Q32.1 -21.75 28.75 -22.9 M26.65 -23.55 L16.2 -25.65 M22.4 -40.2 L17.75 -41.75 M49.9 -20.05 L51.45 -17.7 M45.2 -14.0 L38.0 -18.7 M53.75 -5.35 Q51.1 -8.95 47.65 -11.95 M55.0 -3.8 L55.65 -2.75 M56.1 -8.55 L55.7 -9.7 M59.75 3.85 Q60.35 3.15 61.2 2.5 62.7 1.4 63.55 -0.4 L63.6 -0.45 64.65 -1.8 65.15 -2.25 M45.15 -25.8 L40.2 -30.5 M64.8 22.45 L63.25 17.2 62.6 14.3 64.8 22.45 64.95 22.75 64.95 22.9 64.95 23.1 65.0 23.3 67.75 26.75 68.3 26.95 M59.25 4.4 L59.35 4.75 59.35 5.05 59.2 4.55 M-46.0 -39.75 L-50.1 -37.8 M-57.5 -33.0 L-62.75 -27.65 M-70.05 -15.6 Q-68.4 -19.35 -66.4 -22.6 M-74.25 -2.4 Q-73.45 -6.3 -72.3 -9.7 M-64.4 -5.85 Q-68.2 -2.25 -71.15 1.85 M-44.65 -19.5 Q-48.3 -17.7 -51.6 -15.7 M-62.15 -7.95 Q-58.95 -10.7 -55.25 -13.3 M-9.25 -26.95 L-17.8 -26.3 M-12.9 -45.9 L-23.55 -44.95 M-6.55 -45.9 L-0.75 -45.65 M-27.9 -44.2 L-31.45 -43.5 -38.6 -42.15 M-40.65 -21.3 L-34.2 -24.05 -30.25 -24.7 M-20.2 -26.15 L-28.6 -24.95 M-56.3 4.35 Q-58.5 4.05 -64.45 5.95 -68.9 7.45 -73.1 9.4 L-72.7 9.6 -71.85 9.75 Q-67.8 11.0 -64.4 13.3 -59.9 15.9 -57.95 15.9 L-57.45 13.25 Q-57.2 11.55 -56.25 9.55 -55.35 7.55 -55.1 6.25 -54.9 4.9 -56.3 4.35 M-72.45 3.7 L-74.55 6.8 Q-73.25 5.95 -71.75 5.35 L-69.75 4.65 -63.0 1.95 M-78.65 8.45 L-78.45 8.55 -78.85 8.75 -89.55 9.55 Q-91.0 9.25 -90.0 6.45 -89.0 3.65 -88.3 3.7 -87.6 3.75 -85.65 6.05 -83.7 8.35 -78.65 8.45 M-75.35 6.65 L-75.55 7.0 -75.8 6.6 -75.9 6.5 M-74.55 6.8 L-74.95 6.3 -75.35 6.65" fill="none" stroke="#000000" stroke-linecap="round" stroke-linejoin="round" stroke-width="1.5"/>
    <path d="M66.3 4.6 Q65.3 8.35 66.35 12.45 63.95 10.45 62.7 6.7 64.2 4.45 66.3 4.6" fill="none" stroke="#000000" stroke-linecap="round" stroke-linejoin="round" stroke-width="1.4000000000000001"/>
  </g>
</svg>
