<?xml version="1.0" encoding="UTF-8" standalone="no"?>
<svg xmlns:xlink="http://www.w3.org/1999/xlink" height="94.15px" width="128.85px" xmlns="http://www.w3.org/2000/svg">
  <g transform="matrix(1.0, 0.0, 0.0, 1.0, 83.65, 57.2)">
    <path d="M-2.45 -54.25 Q5.05 -53.1 13.0 -50.9 L29.85 -47.1 35.05 -44.55 Q41.4 -40.4 43.5 -36.95 L43.7 -36.55 44.0 -36.0 Q44.85 -34.35 41.95 -32.3 39.75 -34.85 29.8 -38.65 17.25 -42.4 8.05 -41.2 L6.9 -40.95 6.05 -40.65 5.05 -40.4 Q1.95 -39.65 -1.0 -38.25 -16.2 -30.9 -27.7 -7.1 L-27.8 -7.05 -31.6 2.05 -35.7 10.3 Q-41.05 19.9 -48.5 29.45 L-49.0 30.0 -52.15 33.7 Q-54.25 34.95 -56.55 35.5 L-59.6 35.95 -61.0 35.95 Q-65.3 35.9 -69.75 33.95 L-71.75 32.1 -74.15 29.55 Q-78.45 24.5 -81.35 17.65 L-81.8 16.65 Q-83.4 11.7 -82.0 2.45 -81.0 -4.45 -78.1 -13.8 L-74.85 -23.1 Q-70.5 -32.85 -64.85 -39.7 -55.2 -51.35 -41.5 -54.45 L-39.9 -54.7 Q-33.0 -56.05 -25.05 -56.2 -14.8 -56.3 -2.45 -54.25 -16.6 -53.05 -28.65 -41.75 L-28.65 -41.65 Q-35.35 -33.3 -41.0 -24.05 -45.25 -17.2 -48.8 -10.0 L-48.9 -9.85 Q-52.2 -2.65 -55.05 4.95 L-57.45 10.05 Q-65.3 25.5 -74.15 29.55 M43.7 -36.55 L41.5 -38.15 Q34.0 -43.4 19.7 -46.7 12.0 -48.35 0.15 -46.2 -24.55 -36.15 -37.7 -8.5 L-37.85 -8.4 Q-40.8 -1.45 -43.3 6.5 L-45.05 11.7 Q-50.85 27.05 -59.6 35.95 M-39.9 -54.7 Q-51.0 -50.1 -59.05 -39.85 -69.0 -26.2 -74.75 -15.65 L-75.85 -13.6 -75.95 -13.55 Q-80.15 -4.55 -82.0 2.45 M-25.05 -56.2 Q-39.5 -51.15 -50.2 -38.05 -58.9 -26.95 -67.55 -12.45 L-71.05 -5.65 -72.5 -1.25 Q-79.1 17.55 -81.8 16.65" fill="none" stroke="#000000" stroke-linecap="round" stroke-linejoin="round" stroke-width="2.0"/>
  </g>
</svg>
