<?xml version="1.0" encoding="UTF-8" standalone="no"?>
<svg xmlns:xlink="http://www.w3.org/1999/xlink" height="110.0px" width="171.55px" xmlns="http://www.w3.org/2000/svg">
  <g transform="matrix(1.0, 0.0, 0.0, 1.0, 94.65, 52.2)">
    <path d="M-71.1 57.0 Q-72.6 56.85 -72.9 56.25 -73.1 55.7 -76.3 55.35 -78.9 56.2 -80.25 54.6 -76.9 47.9 -77.85 41.55 -78.8 35.15 -75.6 24.5 L-76.3 26.3 -76.95 27.8 -79.9 35.9 -81.7 41.9 Q-83.65 47.75 -86.15 54.45 -88.15 52.95 -88.75 51.55 -89.75 49.45 -93.9 51.05 -89.25 43.4 -88.6 41.7 L-86.15 33.15 Q-84.4 26.35 -77.3 18.1 L-80.5 21.55 Q-82.4 23.8 -84.95 24.2 L-85.0 24.2 Q-85.65 24.55 -86.2 23.95 -90.45 18.5 -88.0 11.15 -87.35 9.45 -85.95 8.0 -76.55 -1.25 -68.15 -5.35 L-69.65 -7.65 -70.0 -9.5 -69.95 -12.95 -69.7 -12.95 -70.15 -13.2 Q-73.25 -14.45 -77.05 -14.65 -70.95 -24.75 -61.1 -29.05 -62.2 -29.85 -63.25 -29.7 -62.6 -37.45 -51.8 -41.75 L-49.35 -38.7 Q-43.1 -37.45 -39.75 -41.2 -39.3 -41.35 -39.4 -44.2 L-37.3 -45.8 -36.9 -46.05 Q-33.3 -48.15 -26.55 -49.35 L-25.5 -44.85 Q-18.25 -42.25 -14.2 -46.3 L-14.7 -50.35 Q-10.15 -52.4 -2.4 -49.5 L-1.65 -46.65 7.85 -46.7 Q8.0 -49.0 8.65 -51.45 14.85 -48.5 22.35 -49.3 25.45 -48.5 22.2 -43.9 L33.45 -42.55 34.1 -44.9 Q43.2 -42.05 45.5 -32.2 47.6 -28.5 51.7 -29.8 54.5 -22.05 50.8 -17.8 L54.7 -15.3 54.5 -15.1 55.2 -14.6 55.0 -15.25 Q54.9 -15.6 55.2 -15.5 L57.35 -14.1 Q70.4 -5.1 73.15 11.3 L73.25 12.25 Q74.0 16.7 70.4 14.55 69.25 13.8 68.8 12.3 L68.55 11.1 68.9 14.3 Q69.25 17.95 68.55 18.7 68.1 19.05 67.4 18.55 L68.7 22.4 69.25 23.85 69.4 24.3 Q72.55 33.45 76.05 41.9 76.35 42.65 75.5 42.7 L73.55 42.5 Q71.35 41.8 70.1 39.55 L70.05 39.5 69.95 39.35 69.9 39.2 70.75 43.55 Q71.1 45.4 66.4 45.1 L61.95 48.1 Q61.5 45.4 61.65 38.75 61.9 28.65 61.05 22.0 L60.0 14.6 Q59.35 10.95 59.2 7.45 M33.45 -42.55 Q31.9 -32.15 29.0 -29.65 L33.45 -27.9 34.9 -27.3 Q39.15 -25.5 43.0 -23.05 L45.5 -32.2 M14.05 -33.65 L9.1 -34.45 5.95 -34.75 4.55 -34.9 3.8 -34.95 -1.9 -35.3 -6.85 -35.3 -6.95 -35.3 -8.35 -35.25 -9.65 -35.15 -14.45 -34.9 -19.25 -34.3 M29.0 -29.65 Q24.15 -31.5 18.9 -32.65 L15.05 -33.5 M9.1 -34.45 Q7.2 -40.55 7.85 -46.7 M22.2 -43.9 L18.9 -32.65 M-20.05 -34.25 L-22.05 -33.8 -24.55 -33.35 -27.2 -32.65 -31.8 -31.35 -33.35 -30.85 -33.6 -30.8 -36.15 -29.8 -36.6 -29.55 Q-38.25 -28.95 -39.8 -28.15 L-40.7 -27.7 Q-42.95 -26.55 -45.15 -25.2 L-50.7 -21.1 -53.6 -18.6 -55.65 -16.6 -58.6 -13.2 -59.7 -11.85 -61.5 -9.35 -63.0 -6.85 -63.05 -6.6 -64.05 -4.95 -64.0 -4.9 -63.9 -3.6 -63.7 -2.45 -62.4 -1.1 Q-55.75 -11.05 -46.35 -17.5 L-38.6 -22.05 -38.05 -22.4 Q-24.45 -29.0 -6.4 -29.8 30.15 -31.5 52.55 -13.45 L52.75 -13.15 53.4 -13.95 53.55 -14.1 54.35 -15.15 54.5 -15.1 M50.8 -17.8 L48.6 -19.45 48.05 -19.9 43.0 -23.05 M59.2 6.8 L59.15 5.85 Q56.4 0.9 54.65 -3.2 51.4 -10.3 52.55 -13.45 M55.2 -14.6 L60.15 -6.9 63.15 -2.05 63.65 -0.9 66.6 6.15 68.25 9.35 68.45 10.65 68.55 11.1 M59.15 5.85 L60.2 7.7 60.45 8.15 60.85 8.85 63.8 13.9 64.9 15.55 65.1 15.9 65.45 16.4 67.4 18.55 M69.9 39.2 L69.55 37.75 66.9 23.85 66.9 23.55 66.8 23.3 66.8 23.2 66.75 23.0 66.75 22.9 66.65 22.7 66.65 22.65 66.6 22.4 66.55 22.05 66.25 20.55 65.8 18.1 65.45 16.4 M-49.35 -38.7 Q-44.0 -30.45 -45.15 -25.2 M-68.15 -5.35 L-67.5 -5.7 -64.4 -5.1 -63.05 -6.6 M-64.0 -4.9 L-64.05 -4.9 -64.55 -4.95 -65.55 -4.9 -66.2 -4.4 Q-68.45 -2.4 -69.45 1.05 L-70.0 2.55 -71.25 7.05 -71.95 10.25 -72.3 12.25 -72.25 13.1 -72.3 13.55 -72.5 15.2 -72.45 17.9 -72.15 21.05 Q-71.85 24.0 -70.75 27.15 L-70.6 27.35 -70.6 27.45 Q-68.15 33.7 -62.7 30.25 -62.2 29.95 -62.5 29.45 L-62.7 29.25 Q-65.5 26.6 -66.45 23.85 L-67.6 19.8 -68.05 14.05 Q-68.3 9.65 -65.5 2.35 M-64.4 -5.1 L-64.05 -4.95 M-63.7 -2.45 L-64.0 -1.4 M-61.1 -29.05 Q-57.8 -26.85 -55.65 -16.6 M-14.2 -46.3 Q-13.2 -37.05 -14.45 -34.9 M-1.9 -35.3 L-1.65 -46.65 M-36.6 -29.55 Q-37.45 -30.65 -39.75 -41.2 M-24.55 -33.35 L-25.5 -44.85 M-70.0 2.55 L-78.9 10.35 -78.95 10.35 Q-80.75 11.8 -81.75 13.25 -82.15 14.05 -81.9 14.9 M-72.45 17.9 L-75.6 24.5 M-72.3 12.25 Q-74.65 15.25 -77.3 18.1 M-69.7 57.05 Q-70.15 48.6 -70.8 42.3 -71.65 35.25 -70.75 28.3 L-70.75 27.75 -70.6 27.45 M-62.4 -1.1 Q-60.1 2.1 -60.55 7.85 L-61.35 19.0 -61.9 26.1 Q-62.2 28.3 -62.7 29.25" fill="none" stroke="#000000" stroke-linecap="round" stroke-linejoin="round" stroke-width="1.5"/>
  </g>
</svg>
