<?xml version="1.0" encoding="UTF-8" standalone="no"?>
<svg xmlns:xlink="http://www.w3.org/1999/xlink" height="161.2px" width="201.45px" xmlns="http://www.w3.org/2000/svg">
  <g transform="matrix(1.0, 0.0, 0.0, 1.0, 122.2, 62.2)">
    <path d="M-41.65 -40.45 Q-57.7 -29.75 -62.55 -25.85 -67.45 -21.95 -74.7 -13.95 L-79.7 -5.5 Q-88.5 10.15 -90.65 22.65 -83.95 38.45 -83.6 51.05 -66.95 85.55 -17.65 95.45 L6.15 98.0 5.55 96.15 5.55 96.1 Q-28.15 91.45 -48.75 78.15 -70.9 63.8 -76.05 49.8 -71.95 25.95 -53.45 3.25 -32.25 -19.05 9.45 -36.1 50.9 -16.5 68.2 23.2 73.6 35.5 73.55 46.2 67.05 64.5 45.9 78.25 29.8 91.2 6.45 95.75 6.15 96.9 6.15 98.0 L24.2 94.2 Q40.3 86.75 49.95 80.2 59.55 73.6 65.65 67.3 L69.85 63.05 Q73.7 59.15 78.25 46.6 76.3 26.45 70.55 6.85 L68.25 1.05 Q67.05 -2.9 62.65 -11.75 58.2 -20.65 48.2 -33.2 36.6 -42.25 17.8 -59.6 -4.25 -65.85 -65.35 -48.0 -96.45 -29.75 -121.2 -31.95 -106.4 -6.95 -74.7 -13.95 M5.55 96.15 L6.45 95.75 Q6.95 93.9 8.35 92.0 13.3 85.4 29.35 78.4 52.7 68.2 61.05 46.05 58.05 27.9 41.0 8.55 23.9 -10.85 9.2 -14.05 -8.35 -10.4 -31.85 7.05 -55.4 24.45 -58.5 48.9 -50.9 66.15 -27.45 74.65 -4.05 83.15 3.0 91.7 4.6 93.85 5.55 96.1 M3.0 91.7 Q-50.4 76.45 -68.8 48.75 -56.35 0.8 9.5 -22.55 52.85 -5.85 67.35 45.8 54.35 71.9 8.35 92.0" fill="none" stroke="#000000" stroke-linecap="round" stroke-linejoin="round" stroke-width="2.0"/>
  </g>
</svg>
