<?xml version="1.0" encoding="UTF-8" standalone="no"?>
<svg xmlns:xlink="http://www.w3.org/1999/xlink" height="165.6px" width="189.6px" xmlns="http://www.w3.org/2000/svg">
  <g transform="matrix(1.0, 0.0, 0.0, 1.0, 113.7, 71.7)">
    <path d="M-37.05 -49.55 Q-52.75 -38.55 -66.35 -26.15 L-75.05 -17.95 Q-87.7 6.95 -91.25 33.15 -80.3 45.0 -74.35 62.7 -54.1 85.9 -18.0 92.9 L-4.4 92.9 Q-35.1 85.6 -53.0 69.8 -64.65 59.5 -70.2 49.6 -62.75 26.35 -51.85 13.95 -41.0 1.5 -32.55 -3.5 -8.85 2.75 11.7 21.3 25.7 5.65 41.25 -3.65 56.5 8.9 63.8 22.65 71.05 36.4 72.05 45.2 62.55 66.0 46.85 78.25 56.75 72.05 63.55 64.4 68.15 58.85 71.15 53.35 73.5 49.0 74.85 44.7 75.2 30.65 71.75 14.6 69.55 4.3 65.65 -7.0 61.1 -20.1 48.2 -33.2 36.6 -42.25 31.9 -49.95 15.05 -62.05 -15.6 -70.7 -41.15 -61.7 -67.5 -48.45 -93.05 -35.65 -112.7 -32.65 -85.8 -16.7 -66.35 -26.15 M46.85 78.25 Q36.5 84.65 22.75 89.45 14.05 93.4 10.45 92.25 10.35 88.9 20.55 84.2 52.1 69.35 63.6 48.65 60.55 26.95 41.8 8.95 27.0 17.6 11.45 33.45 -12.9 13.5 -30.7 9.95 -51.85 27.25 -58.5 48.9 -46.75 66.9 -26.0 77.3 -5.25 87.7 -2.6 92.9 L-4.4 92.9" fill="none" stroke="#000000" stroke-linecap="round" stroke-linejoin="round" stroke-width="2.0"/>
  </g>
</svg>
