<?xml version="1.0" encoding="UTF-8" standalone="no"?>
<svg xmlns:xlink="http://www.w3.org/1999/xlink" height="161.1px" width="165.65px" xmlns="http://www.w3.org/2000/svg">
  <g transform="matrix(1.0, 0.0, 0.0, 1.0, 91.45, 60.35)">
    <path d="M63.8 41.95 L63.8 41.9 Q62.7 32.4 59.95 23.95 49.3 -8.85 14.1 -26.35 10.9 -28.05 7.05 -28.8 4.0 -28.25 0.35 -26.9 -35.45 -11.55 -50.3 12.6 -53.75 18.15 -56.0 23.95 -62.3 40.2 -59.35 58.55 L-59.3 58.6 Q-49.15 67.1 -27.15 75.45 -5.2 83.8 -6.75 99.05 -11.7 98.05 -23.0 86.4 -52.2 83.25 -70.3 70.3 -88.45 57.35 -90.3 43.85 -91.05 31.5 -87.3 20.15 L-87.3 20.1 Q-86.7 8.55 -83.9 -0.65 -59.3 -53.4 -8.45 -59.35 24.4 -54.8 48.8 -32.4 66.85 -10.55 71.55 20.9 L71.95 23.95 Q73.5 36.15 73.1 49.8 69.8 63.15 48.35 76.05 33.2 86.5 18.9 90.2 L11.95 99.75 Q7.15 90.35 11.6 85.35 36.15 77.7 49.7 67.25 63.15 56.8 63.8 41.95 67.75 58.0 58.05 67.5 M-59.3 58.6 Q-57.85 66.55 -47.7 77.85" fill="none" stroke="#000000" stroke-linecap="round" stroke-linejoin="round" stroke-width="2.0"/>
  </g>
</svg>
