<?xml version="1.0" encoding="UTF-8" standalone="no"?>
<svg xmlns:xlink="http://www.w3.org/1999/xlink" height="159.95px" width="170.8px" xmlns="http://www.w3.org/2000/svg">
  <g transform="matrix(1.0, 0.0, 0.0, 1.0, 96.6, 59.2)">
    <path d="M24.05 -48.6 Q31.35 -54.75 45.95 -56.0 L72.6 -58.2 72.6 -58.15 Q73.3 -36.0 59.2 -17.15 63.9 -8.5 66.4 -2.55 68.9 3.4 71.55 20.9 L71.95 23.95 Q73.5 36.15 73.1 49.8 69.8 63.15 48.35 76.05 33.2 86.5 18.9 90.2 L11.95 99.75 Q7.15 90.35 11.6 85.35 36.15 77.7 49.7 67.25 63.15 56.8 63.8 41.95 L63.8 41.9 Q62.7 32.4 59.95 23.95 L58.0 18.6 Q53.7 11.15 44.25 4.75 32.9 -0.3 24.5 -3.2 16.1 -6.15 9.3 -11.1 -0.35 -4.25 -22.65 -1.1 -46.05 7.0 -54.65 20.8 L-56.0 23.95 Q-62.3 40.2 -59.35 58.55 L-59.3 58.6 Q-49.15 67.1 -27.15 75.45 -5.2 83.8 -6.75 99.05 -11.7 98.05 -23.0 86.4 -52.2 83.25 -70.3 70.3 -88.45 57.35 -90.3 43.85 L-90.5 38.85 Q-90.5 11.55 -82.7 -3.15 L-79.05 -10.0 Q-90.5 -25.4 -95.55 -55.25 L-95.6 -55.3 Q-61.8 -54.75 -35.9 -48.85 -22.2 -54.05 -5.8 -54.3 9.9 -54.55 24.05 -48.6 37.1 -43.15 48.8 -32.4 L51.55 -28.85 Q62.1 -34.6 72.6 -58.15 M51.55 -28.85 Q55.25 -23.85 59.2 -17.15 M63.8 41.95 Q67.75 58.0 58.05 67.5 M-95.55 -55.25 Q-93.25 -52.45 -77.65 -43.75 -67.25 -38.0 -61.6 -32.7 -58.8 -30.1 -57.15 -27.6 -63.1 -16.0 -79.05 -9.95 L-79.05 -10.0 M-47.55 -39.55 Q-42.7 -44.25 -35.75 -48.85 L-35.9 -48.85 M-59.3 58.6 Q-57.85 66.55 -47.7 77.85" fill="none" stroke="#000000" stroke-linecap="round" stroke-linejoin="round" stroke-width="2.0"/>
  </g>
</svg>
