<?xml version="1.0" encoding="UTF-8" standalone="no"?>
<svg xmlns:xlink="http://www.w3.org/1999/xlink" height="60.05px" width="144.35px" xmlns="http://www.w3.org/2000/svg">
  <g transform="matrix(1.0, 0.0, 0.0, 1.0, 77.15, 65.7)">
    <path d="M54.7 -50.95 Q44.3 -46.35 36.2 -36.35 L41.35 -32.5 Q49.95 -26.35 56.5 -18.2 L57.25 -17.2 Q61.5 -40.55 59.8 -53.0 L56.25 -51.65 54.7 -50.95 M66.05 -55.85 Q66.9 -35.9 62.4 -13.15 60.75 -6.85 59.25 -6.65 57.4 -6.85 54.6 -10.3 44.75 -23.25 27.8 -33.5 25.25 -35.1 23.4 -36.65 25.2 -39.45 27.2 -41.4 41.3 -54.8 57.6 -61.4 L60.4 -62.5 64.55 -62.85 Q65.85 -61.3 66.05 -55.85 M-68.25 -54.35 Q-52.45 -50.15 -36.65 -38.25 -45.35 -33.6 -52.15 -27.55 -56.85 -23.35 -60.7 -18.4 -67.8 -40.95 -68.15 -53.45 L-68.25 -54.35 M-75.0 -64.5 L-70.25 -64.15 Q-49.25 -57.55 -30.3 -43.05 -27.65 -41.1 -25.4 -38.3 -26.9 -37.1 -28.85 -35.85 L-29.3 -35.55 -30.05 -35.15 Q-48.25 -24.9 -58.2 -11.95 -60.9 -8.5 -63.0 -8.3 -64.75 -8.5 -67.35 -14.8 -74.9 -37.55 -76.1 -57.5 -76.4 -62.95 -75.15 -64.5 L-75.0 -64.5" fill="none" stroke="#000000" stroke-linecap="round" stroke-linejoin="round" stroke-width="2.0"/>
  </g>
</svg>
