<?xml version="1.0" encoding="UTF-8" standalone="no"?>
<svg xmlns:xlink="http://www.w3.org/1999/xlink" height="73.9px" width="166.2px" xmlns="http://www.w3.org/2000/svg">
  <g transform="matrix(1.0, 0.0, 0.0, 1.0, 90.85, 74.45)">
    <path d="M25.95 -36.4 Q33.85 -45.2 48.75 -51.25 64.75 -57.8 68.7 -61.6 70.0 -63.1 71.85 -67.85 72.2 -58.85 70.3 -51.55 73.35 -53.05 74.6 -59.25 71.65 -22.55 65.5 -11.35 59.4 -0.2 57.25 -1.45 56.0 -1.25 54.1 -2.6 52.15 -4.05 44.85 -13.05 42.85 -16.85 38.85 -21.05 L38.2 -21.7 Q-6.55 -53.35 -45.95 -23.05 -49.6 -18.85 -52.0 -13.55 -53.95 -9.35 -58.2 -5.05 L-58.5 -4.55 Q-65.55 -1.1 -68.7 -5.6 -72.2 -10.2 -75.2 -15.15 -86.75 -34.6 -89.55 -58.5 L-89.95 -62.7 -90.1 -64.65 Q-89.9 -63.25 -88.1 -61.9 L-87.0 -61.0 -86.2 -60.45 -87.15 -64.7 -87.15 -64.75 Q-88.2 -69.75 -87.1 -73.7 -83.75 -66.5 -68.4 -62.15 -36.85 -49.65 -28.7 -40.75 -6.25 -51.65 25.95 -36.4 L24.65 -34.95 M38.2 -21.7 Q34.7 -25.35 33.0 -26.5 M60.5 -8.45 Q64.65 -13.0 67.15 -24.15 L67.1 -24.45 67.15 -24.9 67.35 -25.65 67.75 -27.4 Q70.15 -42.25 69.45 -47.3 L68.9 -48.4 66.9 -52.5 65.05 -45.8 63.4 -40.9 Q59.9 -31.35 55.2 -24.45 58.1 -22.85 60.85 -21.75 62.95 -20.75 64.15 -19.4 L57.1 -20.2 Q63.35 -16.05 61.65 -15.1 L55.45 -18.35 Q59.2 -14.2 59.5 -11.5 59.55 -10.4 59.15 -9.6 52.55 -11.85 49.1 -16.4 L48.15 -15.35 Q47.5 -14.7 50.5 -10.9 53.45 -7.1 57.8 -6.6 58.95 -7.3 60.0 -8.25 M55.2 -24.45 L54.95 -24.05 Q51.85 -19.65 49.1 -16.4 M-48.3 -23.3 L-48.65 -23.7 -49.1 -24.45 -49.95 -23.2 -50.05 -23.1 -51.15 -21.4 -51.65 -20.85 -52.8 -18.45 -54.95 -13.9 Q-56.1 -11.75 -56.65 -11.35 -57.55 -9.85 -60.35 -8.05 -61.15 -7.5 -63.6 -7.4 -71.55 -15.45 -79.8 -31.4 -85.25 -46.55 -85.55 -54.95 L-85.55 -56.8 -85.55 -56.85 Q-70.25 -47.15 -57.95 -35.15 -55.8 -32.95 -56.05 -27.1 -54.5 -27.3 -52.65 -28.9 L-49.6 -25.2 -49.4 -24.95 -49.1 -24.45 M-57.95 -35.15 Q-60.0 -33.15 -64.45 -31.65 L-66.45 -31.05 -66.85 -30.9 -68.75 -30.4 -62.25 -29.45 -62.3 -29.35 Q-65.35 -25.15 -66.6 -20.75 L-67.35 -16.8 -67.4 -16.4 -67.4 -15.9 -67.05 -17.0 -67.1 -17.05 Q-65.3 -21.5 -59.65 -23.2 -59.6 -20.6 -61.15 -17.25 L-62.55 -14.6 -62.85 -14.2 Q-59.1 -15.1 -56.1 -17.0 -53.65 -18.55 -51.65 -20.85 M-28.7 -40.75 L-27.6 -39.5 M-38.0 -30.2 Q-42.55 -27.1 -45.95 -23.05" fill="none" stroke="#000000" stroke-linecap="round" stroke-linejoin="round" stroke-width="1.5"/>
  </g>
</svg>
