<?xml version="1.0" encoding="UTF-8" standalone="no"?>
<svg xmlns:xlink="http://www.w3.org/1999/xlink" height="73.1px" width="163.7px" xmlns="http://www.w3.org/2000/svg">
  <g transform="matrix(1.0, 0.0, 0.0, 1.0, 87.45, 36.75)">
    <path d="M38.3 -30.7 Q45.1 -36.75 52.75 -22.6 60.55 -5.15 66.05 2.7 70.5 9.2 75.25 12.2 73.55 14.5 71.5 12.5 73.3 18.85 70.95 23.75 60.7 31.95 51.85 21.95 47.05 -0.6 41.1 -13.55 35.2 -26.55 38.15 -30.5 L38.3 -30.7 M-62.8 -24.7 Q-64.85 -21.65 -66.6 -17.7 L-79.15 5.95 Q-81.8 10.9 -86.45 13.55 L-80.25 12.25 Q-91.15 27.25 -80.75 33.8 -67.15 39.35 -53.7 25.0 -47.1 16.95 -37.65 -12.95 L-36.0 -18.9 Q-33.2 -31.75 -42.8 -35.6 -54.9 -36.9 -62.8 -24.7" fill="none" stroke="#000000" stroke-linecap="round" stroke-linejoin="round" stroke-width="2.0"/>
  </g>
</svg>
