<?xml version="1.0" encoding="UTF-8" standalone="no"?>
<svg xmlns:xlink="http://www.w3.org/1999/xlink" height="51.5px" width="102.45px" xmlns="http://www.w3.org/2000/svg">
  <g transform="matrix(1.0, 0.0, 0.0, 1.0, 55.5, 59.05)">
    <path d="M30.2 -47.25 Q32.2 -42.2 24.5 -39.55 17.4 -37.05 1.55 -36.8 -30.95 -36.15 -34.45 -45.85 -37.0 -49.9 -31.5 -53.65 -30.7 -54.3 -29.5 -54.85 -37.2 -52.65 -40.75 -49.15 -50.5 -45.5 -51.75 -43.2 -52.65 -41.55 -49.65 -40.75 -57.35 -33.7 -52.85 -26.65 L-51.5 -26.15 Q-47.1 -25.05 -38.3 -30.55 L-37.3 -31.2 -37.4 -31.1 Q-43.15 -23.8 -37.85 -17.55 -35.8 -16.85 -33.7 -16.85 -26.5 -16.75 -20.25 -25.45 L-20.15 -25.55 Q-22.1 -15.55 -13.2 -9.05 L-9.0 -8.75 Q-2.5 -10.6 3.85 -24.7 5.65 -14.1 22.25 -11.5 L22.35 -11.5 Q30.1 -13.55 25.6 -28.1 L26.15 -27.25 Q30.85 -19.95 41.9 -18.0 L43.1 -18.5 Q49.15 -21.95 42.3 -35.8 47.7 -37.8 30.2 -47.25 29.65 -48.05 24.5 -50.7 12.55 -56.95 -9.2 -58.05 -21.55 -57.05 -29.5 -54.85 M-37.4 -31.1 L-38.3 -30.55" fill="none" stroke="#000000" stroke-linecap="round" stroke-linejoin="round" stroke-width="2.0"/>
  </g>
</svg>
