<?xml version="1.0" encoding="UTF-8" standalone="no"?>
<svg xmlns:xlink="http://www.w3.org/1999/xlink" height="79.85px" width="157.5px" xmlns="http://www.w3.org/2000/svg">
  <g transform="matrix(1.0, 0.0, 0.0, 1.0, 85.55, 59.15)">
    <path d="M37.05 -43.4 L35.4 -45.2 Q27.35 -53.95 -0.55 -57.6 11.15 -53.1 13.95 -36.2 L13.95 -36.1 16.1 -30.2 Q20.9 -18.05 25.0 -10.85 26.25 -8.6 27.45 -6.9 L41.0 -5.3 43.45 -4.85 Q47.6 -3.9 52.05 -0.8 L52.8 -0.25 53.95 0.6 Q56.6 2.75 59.3 5.55 L62.85 -5.1 Q63.65 -8.2 62.95 -11.45 62.2 -15.0 59.55 -18.6 L59.5 -18.65 57.8 -20.75 56.4 -22.25 55.7 -23.0 37.05 -43.4 Q50.3 -46.75 65.1 -47.05 L70.95 -47.0 70.7 -42.6 Q69.4 -27.05 64.15 -14.05 L62.95 -11.45 M-0.55 -57.6 Q-12.25 -58.95 -22.1 -57.1 -8.85 -47.3 -4.65 -33.45 -2.75 -20.9 0.75 -12.0 L0.75 -11.95 Q1.8 -9.35 3.0 -7.0 L14.2 -7.4 27.45 -6.9 M59.5 -18.65 L59.6 -18.65 59.55 -18.6 M70.95 -47.0 Q65.55 -33.8 58.0 -25.4 L55.7 -23.0 M52.05 -0.8 L52.75 0.05 53.5 1.05 Q58.25 7.9 48.35 7.45 29.45 3.85 11.3 6.5 L4.35 7.8 Q-12.85 10.75 -16.65 7.95 -23.0 3.45 -25.3 -1.7 -28.7 -0.5 -31.9 1.05 -28.7 6.75 -17.9 14.15 -10.95 19.5 3.55 13.4 13.85 9.45 30.85 10.1 L33.05 10.15 33.7 10.25 Q43.45 10.8 55.25 12.9 62.8 14.4 59.3 5.55 M-84.25 -56.85 L-84.55 -57.0 Q-84.55 -38.8 -79.4 -23.7 -76.6 -16.05 -70.95 -9.7 -67.5 -5.75 -63.0 -2.35 -59.55 -13.25 -57.55 -16.65 -65.2 -19.7 -66.2 -21.9 -63.5 -21.1 -60.2 -23.0 -57.5 -24.6 -54.25 -28.15 -58.2 -30.7 -61.35 -31.9 -65.0 -33.3 -67.55 -32.95 -64.8 -35.5 -57.9 -36.3 L-56.3 -36.55 -57.1 -37.3 Q-66.95 -47.55 -84.15 -56.7 L-84.25 -56.85 -84.4 -57.0 -84.55 -57.0 M-84.4 -57.0 L-80.3 -56.75 Q-60.15 -55.5 -43.2 -48.85 -37.25 -52.55 -30.3 -54.9 L-30.2 -54.9 Q-26.3 -56.35 -22.1 -57.1 M-57.55 -16.65 Q-53.8 -23.2 -49.95 -28.65 -42.75 -38.95 -35.3 -45.4 -39.2 -47.3 -43.2 -48.85 M3.0 -7.0 L-7.15 -6.2 -13.9 -5.4 Q-19.85 -3.85 -25.3 -1.7 M-31.9 1.05 Q-43.4 6.15 -52.4 13.95 -61.3 22.65 -71.2 18.15 -76.7 12.85 -72.75 2.1 -72.3 -4.1 -70.95 -9.7" fill="none" stroke="#000000" stroke-linecap="round" stroke-linejoin="round" stroke-width="2.0"/>
  </g>
</svg>
