<?xml version="1.0" encoding="UTF-8" standalone="no"?>
<svg xmlns:xlink="http://www.w3.org/1999/xlink" height="124.2px" width="171.0px" xmlns="http://www.w3.org/2000/svg">
  <g transform="matrix(1.0, 0.0, 0.0, 1.0, 103.55, 61.35)">
    <path d="M49.2 -28.1 L49.25 -27.9 50.45 -25.95 Q50.8 -24.65 50.45 -23.85 L50.15 -23.35 50.1 -23.3 Q49.75 -23.0 49.25 -23.0 48.45 -23.0 47.55 -23.85 46.75 -24.65 46.4 -25.95 46.0 -27.15 46.3 -28.1 L46.55 -28.6 Q46.9 -28.95 47.4 -28.95 48.3 -28.95 49.2 -28.1 M-32.1 -22.05 Q-32.1 -20.5 -33.2 -19.5 -34.25 -18.45 -35.8 -18.45 -37.3 -18.45 -38.4 -19.5 -39.35 -20.5 -39.35 -22.05 -39.35 -23.55 -38.4 -24.6 -37.3 -25.7 -35.8 -25.7 -34.25 -25.7 -33.2 -24.6 -32.1 -23.55 -32.1 -22.05" fill="#ffffff" fill-rule="evenodd" stroke="none"/>
    <path d="M45.85 -29.55 Q46.65 -30.65 48.0 -30.65 49.75 -30.65 51.45 -28.8 53.25 -27.1 54.0 -24.6 54.8 -22.1 54.1 -20.4 53.7 -19.15 52.8 -18.7 L51.75 -18.5 Q49.9 -18.5 48.15 -20.4 46.3 -22.1 45.55 -24.6 44.75 -27.1 45.45 -28.8 L45.85 -29.55 M49.2 -28.1 Q48.3 -28.95 47.4 -28.95 46.9 -28.95 46.55 -28.6 L46.3 -28.1 Q46.0 -27.15 46.4 -25.95 46.75 -24.65 47.55 -23.85 48.45 -23.0 49.25 -23.0 49.75 -23.0 50.1 -23.3 L50.15 -23.35 50.45 -23.85 Q50.8 -24.65 50.45 -25.95 L49.25 -27.9 49.2 -28.1 M-33.3 -28.55 Q-30.2 -28.55 -27.95 -26.3 -25.7 -24.1 -25.7 -21.05 -25.7 -18.05 -27.95 -15.8 -30.2 -13.7 -33.3 -13.7 -36.45 -13.7 -38.75 -15.8 -40.95 -18.05 -40.95 -21.05 -40.95 -24.1 -38.75 -26.3 -36.45 -28.55 -33.3 -28.55 M-32.1 -22.05 Q-32.1 -23.55 -33.2 -24.6 -34.25 -25.7 -35.8 -25.7 -37.3 -25.7 -38.4 -24.6 -39.35 -23.55 -39.35 -22.05 -39.35 -20.5 -38.4 -19.5 -37.3 -18.45 -35.8 -18.45 -34.25 -18.45 -33.2 -19.5 -32.1 -20.5 -32.1 -22.05" fill="#000000" fill-rule="evenodd" stroke="none"/>
    <path d="M65.65 6.65 L64.85 6.65 62.95 8.5 Q65.2 24.3 61.35 37.7 59.75 42.95 55.15 47.45 51.55 49.9 48.5 39.5 43.2 16.9 19.7 18.85 9.1 18.8 0.15 21.0 L-0.4 21.15 -2.3 21.7 Q-27.2 28.65 -38.75 53.9 -48.3 63.0 -57.55 61.7 -61.25 61.2 -64.85 59.05 -68.25 58.15 -72.85 44.9 -75.3 34.95 -77.25 25.0 -79.65 6.5 -76.9 -7.95 -79.8 -16.5 -89.65 -25.15 -105.15 -37.1 -102.05 -41.3 -81.3 -48.9 -50.35 -46.55 L-50.4 -46.5 -51.05 -45.95 Q-21.05 -66.05 11.35 -58.1 L18.45 -56.1 Q54.65 -44.0 61.3 -5.55 65.0 -1.25 66.45 4.0 L64.85 6.65 M61.3 -5.55 Q58.7 -8.5 56.5 -10.5 49.8 -16.6 38.75 -22.65 M-51.75 -45.5 L-52.3 -45.25 -52.55 -44.95 -51.75 -45.5 -51.05 -45.95 M-52.3 -45.25 L-55.35 -43.75 -52.65 -44.95 -52.55 -44.95 M-55.35 -43.75 L-56.15 -43.4 M-52.3 -45.25 L-50.4 -46.5 M-76.9 -7.95 Q-76.05 -11.55 -76.65 -16.8 M62.95 8.5 Q59.55 10.5 57.6 11.1 45.05 14.9 11.35 9.95 L7.25 9.25" fill="none" stroke="#000000" stroke-linecap="round" stroke-linejoin="round" stroke-width="2.0"/>
  </g>
</svg>
