<?xml version="1.0" encoding="UTF-8" standalone="no"?>
<svg xmlns:xlink="http://www.w3.org/1999/xlink" height="46.15px" width="125.15px" xmlns="http://www.w3.org/2000/svg">
  <g transform="matrix(1.0, 0.0, 0.0, 1.0, 65.9, 45.15)">
    <path d="M2.3 -7.55 L3.55 -10.2 6.75 -16.6 Q-24.3 -15.8 -46.95 -11.15 L-51.95 -10.0 -63.35 -7.0 Q-65.95 -3.1 -64.2 0.0 L-53.25 -2.1 Q-29.7 -6.25 2.3 -7.55 L2.15 -7.35 Q22.95 -8.65 40.05 -5.95 L39.95 -6.35 38.8 -10.35 38.8 -10.4 37.3 -15.05 Q31.95 -30.55 22.45 -44.15 13.7 -30.45 6.75 -16.6 M37.3 -15.05 Q48.8 -13.05 57.5 -9.1 58.15 -6.9 58.25 -5.05 L58.25 -4.05 58.2 -2.95 58.2 -2.45 58.15 -2.3 58.0 -1.8 Q51.55 -4.8 39.95 -6.35" fill="none" stroke="#000000" stroke-linecap="round" stroke-linejoin="round" stroke-width="2.0"/>
  </g>
</svg>
