<?xml version="1.0" encoding="UTF-8" standalone="no"?>
<svg xmlns:xlink="http://www.w3.org/1999/xlink" height="59.35px" width="125.7px" xmlns="http://www.w3.org/2000/svg">
  <g transform="matrix(1.0, 0.0, 0.0, 1.0, 65.85, 64.45)">
    <path d="M54.3 -51.85 L54.35 -52.1 55.35 -55.6 55.4 -56.15 55.7 -57.3 55.75 -57.75 Q55.75 -57.6 55.9 -57.6 57.15 -53.6 57.8 -49.55 62.05 -27.35 49.4 -7.9 48.45 -5.9 45.3 -6.1 L44.0 -6.25 Q41.7 -6.7 38.45 -7.9 35.15 -10.0 34.25 -13.0 L33.95 -14.95 Q33.85 -16.65 34.45 -18.65 48.4 -31.05 54.2 -51.4 L54.3 -51.85 M-63.4 -54.65 Q-69.2 -30.45 -51.8 -9.3 -49.5 -5.35 -36.75 -9.3 -32.3 -11.6 -31.0 -14.8 -30.65 -15.8 -30.6 -16.95 -30.5 -18.85 -31.25 -21.0 -53.35 -36.55 -60.55 -63.45 L-60.7 -63.35 Q-62.35 -59.0 -63.4 -54.65" fill="none" stroke="#000000" stroke-linecap="round" stroke-linejoin="round" stroke-width="2.0"/>
  </g>
</svg>
