<?xml version="1.0" encoding="UTF-8" standalone="no"?>
<svg xmlns:xlink="http://www.w3.org/1999/xlink" height="86.5px" width="93.05px" xmlns="http://www.w3.org/2000/svg">
  <g transform="matrix(1.0, 0.0, 0.0, 1.0, 32.65, 77.1)">
    <path d="M39.4 -72.25 Q55.8 -40.25 59.4 -8.2 53.5 6.8 44.95 8.4 34.75 8.1 34.65 -4.1 34.65 -6.2 37.65 -7.8 41.6 -10.65 43.65 -17.7 L43.6 -30.0 Q42.9 -49.9 39.65 -71.05 L39.4 -72.25 M-21.65 -76.1 Q-6.9 -40.0 -7.15 -5.95 -11.1 7.35 -21.1 7.55 -31.2 7.8 -31.65 -4.05 L-25.1 -13.4 Q-19.65 -39.9 -21.55 -74.05 L-21.55 -74.95 -21.65 -76.1" fill="none" stroke="#000000" stroke-linecap="round" stroke-linejoin="round" stroke-width="2.0"/>
  </g>
</svg>
