<?xml version="1.0" encoding="UTF-8" standalone="no"?>
<svg xmlns:xlink="http://www.w3.org/1999/xlink" height="73.65px" width="111.8px" xmlns="http://www.w3.org/2000/svg">
  <g transform="matrix(1.0, 0.0, 0.0, 1.0, 74.55, 41.6)">
    <path d="M-51.45 -12.4 Q-45.25 -24.9 -27.6 -33.35 -6.15 -43.05 10.75 -39.75 27.65 -36.45 36.25 -31.3 -7.05 -44.7 -38.85 -3.25 L-25.55 4.35 -41.6 11.6 -46.8 31.05 -50.95 21.05 -57.3 29.1 Q-60.9 29.8 -62.15 27.25 -62.6 20.3 -61.6 15.35 L-73.55 19.5 -63.25 2.85 -68.25 -10.3 -54.8 -6.95 -51.45 -10.75 -51.45 -12.4 -51.25 -11.05 -40.0 -22.55 -40.0 -3.9 -38.85 -3.25 M-51.45 -10.75 L-51.25 -11.05 M-61.6 15.35 L-54.5 12.4 -50.95 21.05" fill="none" stroke="#000000" stroke-linecap="round" stroke-linejoin="round" stroke-width="2.0"/>
  </g>
</svg>
