<?xml version="1.0" encoding="UTF-8" standalone="no"?>
<svg xmlns:xlink="http://www.w3.org/1999/xlink" height="122.15px" width="133.35px" xmlns="http://www.w3.org/2000/svg">
  <g transform="matrix(1.0, 0.0, 0.0, 1.0, 73.55, 96.05)">
    <path d="M1.5 -46.8 Q2.35 -53.35 8.3 -59.9 21.8 -74.55 39.4 -85.0 45.1 -88.45 58.35 -95.05 59.6 -88.8 57.5 -78.1 55.5 -67.5 56.4 -56.35 56.7 -52.7 55.55 -49.4 52.85 -42.55 43.8 -36.95 30.1 -28.75 21.15 -28.15 12.05 -27.5 5.95 -33.45 L5.45 -32.25 Q4.95 -30.9 3.2 -30.3 -1.15 -28.45 -3.65 -29.05 -6.1 -26.85 -9.65 -25.4 -19.55 -21.7 -29.0 -20.8 L-35.4 -20.45 -35.4 -20.5 -36.5 -20.55 -36.7 -20.55 -47.75 -21.8 Q-61.45 1.25 -58.45 24.25 -58.35 25.4 -59.75 24.95 -69.4 18.0 -69.15 1.9 -69.05 -15.7 -61.75 -27.4 L-62.45 -27.75 Q-65.05 -29.05 -69.25 -45.1 -73.6 -61.3 -72.25 -74.7 -70.85 -88.2 -67.8 -87.4 L-63.55 -86.55 Q-32.25 -80.2 -10.8 -62.65 -9.1 -61.3 -7.7 -59.25 -3.3 -53.0 -2.05 -46.7 -1.25 -47.3 0.05 -47.3 0.55 -47.4 1.5 -46.8 L2.65 -46.3 Q7.0 -44.5 6.85 -40.6 L6.85 -38.95 Q13.65 -43.95 17.05 -50.35 M6.85 -38.95 L6.85 -37.7 14.55 -36.3 M6.85 -37.7 L6.45 -35.45 5.95 -33.45 M-47.75 -21.8 L-51.25 -23.15 Q-56.45 -24.85 -61.75 -27.4 M-2.05 -46.7 Q-4.5 -45.0 -5.8 -42.35 L-6.2 -40.9 -6.8 -38.65 -7.1 -36.8 -7.15 -36.5 -7.15 -35.9 Q-7.2 -33.7 -6.75 -32.1 L-5.8 -30.45 Q-5.0 -29.4 -3.65 -29.05 M-7.1 -36.8 L-12.45 -34.35 M-6.8 -38.65 Q-16.7 -43.0 -21.45 -47.3" fill="none" stroke="#000000" stroke-linecap="round" stroke-linejoin="round" stroke-width="2.0"/>
  </g>
</svg>
