<?xml version="1.0" encoding="UTF-8" standalone="no"?>
<svg xmlns:xlink="http://www.w3.org/1999/xlink" height="86.9px" width="180.4px" xmlns="http://www.w3.org/2000/svg">
  <g transform="matrix(1.0, 0.0, 0.0, 1.0, 123.3, 7.0)">
    <path d="M-53.4 -4.9 Q15.1 1.25 50.6 -2.7 L55.1 -3.25 56.1 11.8 55.85 11.9 54.2 12.35 Q34.15 17.1 -26.8 12.75 L-52.6 10.7 -52.65 10.7 Q-56.25 11.6 -58.0 10.8 L-58.2 11.8 Q-59.0 28.35 -55.15 49.45 -54.35 68.8 -57.35 78.65 -72.4 80.0 -81.9 73.35 -71.4 64.95 -71.0 50.05 -72.8 31.9 -68.6 16.05 L-72.5 25.3 Q-79.3 43.25 -95.85 55.35 -114.95 55.95 -122.3 42.9 -109.9 42.2 -100.35 34.85 L-98.4 33.1 Q-94.85 30.1 -91.85 26.15 L-91.55 25.9 -89.2 22.4 Q-78.3 7.2 -62.95 -5.4 L-61.5 -6.0 -59.5 -5.2 -57.9 -5.4 -56.25 -5.3 -53.6 -5.05 -53.4 -4.9 -53.6 -3.6 Q-54.65 3.6 -52.65 10.7 M-68.6 16.05 Q-65.25 8.8 -61.35 3.0 L-61.45 2.1 Q-61.55 0.65 -61.25 -0.85 L-60.5 -3.45 -60.1 -4.5 -60.1 -4.6 Q-60.15 -5.05 -59.5 -5.2 M-58.0 10.8 L-58.3 10.7 -58.2 11.8 M-58.3 10.7 L-58.55 10.55 Q-59.4 9.9 -59.7 8.75 L-59.75 8.35 -60.7 6.15 -61.35 3.2 -61.35 3.0" fill="none" stroke="#000000" stroke-linecap="round" stroke-linejoin="round" stroke-width="2.0"/>
  </g>
</svg>
