<?xml version="1.0" encoding="UTF-8" standalone="no"?>
<svg xmlns:xlink="http://www.w3.org/1999/xlink" height="48.85px" width="146.8px" xmlns="http://www.w3.org/2000/svg">
  <g transform="matrix(1.0, 0.0, 0.0, 1.0, 77.25, 33.4)">
    <path d="M28.25 -16.2 Q31.0 -19.55 33.5 -24.3 L33.55 -24.35 33.95 -25.3 20.85 -25.5 Q12.05 -27.65 4.6 -21.85 L9.95 -21.4 10.6 -21.4 17.65 -20.9 17.25 -20.0 17.15 -19.9 16.7 -19.15 15.45 -17.25 13.45 -14.5 12.25 -13.0 14.55 -14.15 15.45 -14.65 Q22.3 -17.55 28.25 -16.2 30.65 -15.65 33.35 -14.15 L33.6 -14.05 34.05 -13.95 Q35.1 -16.0 38.2 -17.4 46.75 -21.95 53.15 -17.0 L62.25 -13.2 61.65 -12.7 61.6 -12.6 Q58.6 -9.8 55.85 -7.9 60.15 -7.0 62.55 -3.5 L68.55 1.75 67.8 2.05 67.8 2.1 Q57.1 6.0 51.3 2.7 L51.7 3.8 58.4 14.4 57.4 14.45 57.25 14.45 Q37.4 13.9 31.9 0.7 27.9 1.55 24.3 0.75 L29.05 7.05 28.1 7.3 28.05 7.35 Q6.5 11.35 -0.2 -3.9 L-0.6 -5.4 Q-3.25 -4.9 -6.05 -5.35 L1.45 -0.25 0.55 0.3 0.5 0.35 Q-18.1 10.65 -29.15 -0.6 -33.65 1.85 -38.95 1.55 L-30.7 6.15 -31.5 6.85 -31.6 6.9 Q-49.8 19.1 -62.05 7.7 L-64.25 4.95 Q-66.3 8.25 -69.7 9.45 -73.65 9.85 -74.9 10.8 L-75.25 11.15 -75.4 11.35 -75.55 11.0 Q-76.75 8.1 -75.85 2.85 -74.4 -7.7 -68.3 -9.9 L-63.05 -14.1 Q-58.8 -19.35 -51.85 -20.5 L-39.7 -25.5 -39.7 -24.55 -39.7 -24.45 Q-40.1 -18.9 -41.45 -14.55 -37.65 -16.4 -33.4 -16.25 L-33.2 -16.85 Q-28.0 -27.45 -17.35 -28.4 L-4.85 -32.4 -4.85 -31.4 -4.85 -31.3 Q-5.8 -25.8 -7.5 -21.55 -1.65 -23.8 4.6 -21.85 M-0.6 -5.4 L2.25 -6.0 Q4.25 -6.7 6.15 -7.8 L7.05 -8.45 8.85 -9.85 12.25 -13.0 M8.85 -9.85 L8.6 -9.15 8.4 -8.75 8.85 -8.75 8.9 -8.7 9.4 -8.5 Q11.55 -7.6 16.3 -2.9 L19.8 -0.75 Q22.0 0.35 24.3 0.75 M31.9 0.7 L35.25 -0.35 Q37.1 -1.0 38.95 -2.0 L41.15 -3.3 42.05 -3.9 42.9 -4.5 44.55 -5.65 46.4 -7.3 46.45 -7.35 47.0 -7.8 47.2 -8.05 35.1 -13.0 35.05 -13.0 33.95 -13.85 33.6 -14.05 M44.55 -5.65 L45.85 -4.65 46.25 -4.65 Q49.1 -4.65 52.15 -5.95 L54.15 -6.9 55.85 -7.9 M45.85 -4.65 Q49.5 -1.7 51.3 2.7 M-63.05 -14.1 L-61.7 -15.25 -61.55 -14.3 -61.55 -14.25 -61.4 -12.7 -61.35 -10.45 Q-61.35 -6.9 -61.7 -4.0 L-61.4 -4.05 Q-58.05 -5.05 -54.95 -5.1 L-51.75 -4.9 Q-51.15 -6.35 -49.95 -7.7 L-49.55 -8.1 -48.25 -9.5 Q-45.0 -12.95 -41.45 -14.55 M-61.7 -4.0 L-61.75 -3.05 Q-61.95 -1.55 -62.3 -0.35 -62.75 1.75 -63.5 3.45 L-64.25 4.95 M-38.95 1.55 L-42.85 0.95 Q-47.6 -0.85 -50.1 -1.35 L-51.45 -1.5 -52.1 -1.5 -52.45 -1.35 -52.45 -1.8 -52.45 -2.0 -52.45 -2.2 -52.45 -2.4 Q-52.3 -3.65 -51.75 -4.9 M-6.05 -5.35 L-9.45 -7.7 -11.35 -9.45 -14.9 -11.8 Q-16.45 -12.55 -18.0 -12.95 L-19.35 -10.65 -19.45 -10.45 -19.65 -10.2 Q-20.9 -8.1 -22.4 -6.35 L-23.7 -4.9 -23.7 -4.85 -25.9 -2.85 Q-27.45 -1.55 -29.15 -0.6 M-18.0 -12.95 L-17.0 -15.0 -16.95 -15.1 -16.8 -15.4 -16.55 -15.9 -16.55 -16.0 -29.7 -15.85 -32.4 -16.2 -33.4 -16.25 M-7.5 -21.55 L-8.75 -18.85 Q-9.9 -16.75 -11.35 -15.05 -12.95 -13.1 -14.9 -11.8" fill="none" stroke="#000000" stroke-linecap="round" stroke-linejoin="round" stroke-width="2.0"/>
  </g>
</svg>
