<?xml version="1.0" encoding="UTF-8" standalone="no"?>
<svg xmlns:xlink="http://www.w3.org/1999/xlink" height="71.85px" width="133.65px" xmlns="http://www.w3.org/2000/svg">
  <g transform="matrix(1.0, 0.0, 0.0, 1.0, 74.2, 27.8)">
    <path d="M18.7 43.05 Q22.75 39.25 25.75 31.4 L28.15 24.05 Q43.9 22.45 57.85 16.65 L58.45 8.85 Q58.25 1.45 56.95 -5.8 35.4 -19.8 18.3 -24.95 L17.95 -25.05 12.65 -26.45 Q15.15 -18.95 16.75 -11.0 L16.9 -10.7 17.0 -10.25 17.05 -9.85 17.6 -7.3 Q20.25 7.4 20.0 23.25 L20.0 23.35 Q19.95 29.85 19.3 36.6 L18.7 43.05 Q9.3 30.95 -1.8 23.75 L-3.1 23.55 Q-17.75 21.25 -30.7 20.3 L-52.0 19.65 -57.05 8.5 -58.95 15.65 -67.15 15.15 -71.15 8.1 Q-73.2 4.3 -73.2 3.65 L-73.2 0.55 -55.9 -3.7 -54.55 -7.1 Q-17.65 -23.0 9.65 -26.5 L11.45 -26.8 12.65 -26.45 M3.7 -5.05 Q-15.85 -4.05 -43.55 1.4 L-43.55 -5.4 Q-18.95 -14.45 3.4 -18.4 L5.4 -5.1 3.7 -5.05 M27.3 -15.35 Q37.25 -12.9 51.85 -5.1 L52.15 1.4 50.1 0.55 Q42.5 -2.65 28.9 -4.35 L27.3 -15.35 M51.85 6.75 L51.85 13.2 31.3 15.45 30.4 4.2 51.85 6.75 M5.45 3.15 L-43.25 7.45 -41.7 14.3 Q-15.65 13.95 2.5 16.2 L5.05 16.55 Q5.8 11.7 5.45 3.15" fill="none" stroke="#000000" stroke-linecap="round" stroke-linejoin="round" stroke-width="2.0"/>
  </g>
</svg>
