<?xml version="1.0" encoding="UTF-8" standalone="no"?>
<svg xmlns:xlink="http://www.w3.org/1999/xlink" height="136.15px" width="267.55px" xmlns="http://www.w3.org/2000/svg">
  <g transform="matrix(1.0, 0.0, 0.0, 1.0, 132.85, 122.35)">
    <path d="M72.6 -49.6 Q93.75 -46.1 110.55 -59.2 L112.2 -60.5 112.2 -60.55 Q102.0 -60.9 77.95 -77.1 52.35 -95.4 46.05 -92.5 28.5 -79.3 9.45 -72.8 L10.15 -71.4 Q29.5 -33.4 17.65 -6.55 19.9 -10.55 25.2 -15.2 30.4 -20.0 39.75 -22.9 44.5 -11.9 43.25 -0.15 L42.85 2.15 42.85 2.55 42.85 2.65 Q50.35 -2.15 61.05 -5.2 76.05 -19.7 72.6 -49.6 L71.7 -56.1 Q71.3 -58.1 71.35 -60.05 71.7 -65.55 75.35 -69.9 M-47.05 -0.8 Q-55.5 -11.05 -68.9 -15.85 -70.95 -16.65 -73.15 -17.25 -74.55 -9.95 -72.5 -2.2 L-71.85 -0.05 -69.05 7.15 Q-58.3 2.85 -46.55 0.1 L-46.35 0.05 Q-44.25 -15.15 -33.25 -26.45 L-32.1 -25.4 Q-19.4 -15.75 -14.75 -5.7 L-14.15 -4.3 -14.0 -4.3 Q-12.35 -18.3 -0.85 -29.75 L1.1 -27.9 Q12.0 -17.7 15.5 -7.0 M42.85 2.55 L39.9 1.35 Q33.35 -1.25 24.75 -3.2 L16.35 -3.9 Q0.5 -5.1 -14.0 -4.3 M17.65 -6.55 L16.35 -3.9 M61.05 -5.2 Q66.95 -7.0 74.05 -8.3 L72.3 -6.8 Q60.0 3.05 55.85 12.8 52.9 8.45 47.3 4.95 45.2 3.7 42.85 2.65 M112.2 -60.55 Q112.2 -62.0 112.65 -63.5 113.7 -67.4 117.5 -69.5 118.7 -70.15 119.85 -70.3 122.7 -71.4 125.75 -70.7 130.0 -69.35 132.15 -65.75 134.45 -62.15 133.35 -58.25 132.3 -54.5 129.25 -52.4 L128.3 -51.9 Q124.55 -49.8 120.25 -51.1 115.8 -52.0 113.55 -55.7 112.2 -57.95 112.2 -60.5 M-69.05 7.15 Q-81.7 -0.7 -92.9 -0.75 -86.1 -3.7 -79.95 -3.45 -76.2 -3.4 -72.5 -2.2 -83.55 -25.2 -72.5 -52.8 -109.1 -68.1 -111.75 -105.5 L-111.75 -106.0 -113.4 -104.05 Q-116.5 -101.2 -121.15 -101.1 -125.5 -101.1 -128.6 -104.05 -129.5 -104.9 -130.0 -106.0 -131.85 -108.35 -131.85 -111.25 -131.7 -115.5 -128.6 -118.35 -125.5 -121.3 -121.15 -121.35 -117.15 -121.35 -114.15 -119.1 L-113.4 -118.4 Q-110.3 -115.5 -110.45 -111.3 -110.35 -109.65 -110.75 -108.25 -87.7 -95.45 -53.9 -97.65 -16.9 -92.3 9.45 -72.8 M-110.75 -108.25 L-111.75 -106.0 M-72.5 -52.8 Q-73.25 -62.6 -84.0 -69.35 M-14.15 -4.3 Q-31.15 -3.4 -46.35 0.05" fill="none" stroke="#000000" stroke-linecap="round" stroke-linejoin="round" stroke-width="2.0"/>
  </g>
</svg>
