<?xml version="1.0" encoding="UTF-8" standalone="no"?>
<svg xmlns:xlink="http://www.w3.org/1999/xlink" height="132.8px" width="131.1px" xmlns="http://www.w3.org/2000/svg">
  <g transform="matrix(1.0, 0.0, 0.0, 1.0, 72.0, 67.9)">
    <path d="M44.0 -52.95 L45.1 -54.0 Q46.65 -54.95 48.3 -54.55 50.15 -54.1 51.1 -52.6 52.05 -51.0 51.7 -49.25 L51.45 -48.35 Q50.85 -47.2 49.75 -46.55 48.1 -45.5 46.35 -46.0 44.65 -46.35 43.65 -47.95 42.7 -49.5 43.05 -51.25 43.35 -52.3 44.0 -52.95 M46.75 -51.4 L47.7 -51.6 Q48.3 -51.45 48.7 -50.95 48.95 -50.4 48.8 -49.75 L48.15 -49.0 Q47.65 -48.6 47.05 -48.7 L46.25 -49.4 Q45.95 -49.9 46.1 -50.5 46.2 -51.0 46.75 -51.4 M40.4 -40.3 Q41.1 -40.75 41.95 -40.6 L42.15 -40.6 43.0 -40.15 43.6 -39.5 Q44.1 -38.7 43.85 -37.8 43.6 -36.9 42.75 -36.35 41.95 -35.85 41.0 -36.0 40.05 -36.25 39.55 -37.0 39.0 -37.85 39.2 -38.85 39.5 -39.75 40.4 -40.3 M37.7 -44.55 Q40.2 -46.1 43.05 -45.4 46.0 -44.75 47.6 -42.25 49.15 -39.7 48.35 -36.85 47.8 -34.0 45.3 -32.4 42.7 -30.8 39.85 -31.45 37.05 -32.2 35.4 -34.75 33.8 -37.2 34.5 -40.1 35.15 -42.95 37.7 -44.55 M-53.4 -57.0 Q-52.1 -58.25 -50.35 -58.25 -48.45 -58.25 -47.15 -57.0 L-46.55 -56.35 Q-45.9 -55.4 -45.9 -53.95 -45.9 -52.1 -47.15 -50.8 -48.45 -49.5 -50.35 -49.5 -52.1 -49.5 -53.4 -50.8 L-53.65 -51.1 Q-54.65 -52.3 -54.65 -53.95 -54.65 -55.8 -53.4 -57.0 M-51.55 -53.95 Q-51.55 -54.5 -51.1 -54.85 -50.7 -55.4 -50.15 -55.4 -49.55 -55.4 -49.1 -54.85 -48.65 -54.5 -48.65 -53.95 -48.65 -53.25 -49.1 -52.85 -49.55 -52.45 -50.15 -52.45 -50.7 -52.45 -51.1 -52.85 -51.55 -53.25 -51.55 -53.95 M-41.45 -44.3 Q-40.85 -43.65 -40.85 -42.7 -40.85 -41.65 -41.45 -40.95 -42.1 -40.3 -43.15 -40.3 -44.05 -40.3 -44.85 -40.95 -45.5 -41.65 -45.5 -42.7 -45.5 -43.65 -44.85 -44.3 -44.05 -45.0 -43.15 -45.0 -42.1 -45.0 -41.45 -44.3 M-50.45 -42.7 Q-50.45 -45.6 -48.45 -47.75 -46.3 -49.75 -43.35 -49.75 -40.35 -49.75 -38.25 -47.75 -36.15 -45.6 -36.15 -42.7 -36.15 -39.65 -38.25 -37.7 -40.35 -35.5 -43.35 -35.5 -46.3 -35.5 -48.45 -37.7 -50.45 -39.65 -50.45 -42.7" fill="none" stroke="#000000" stroke-linecap="round" stroke-linejoin="round" stroke-width="1.4000000000000001"/>
    <path d="M20.5 -42.85 L22.1 -45.0 Q-0.15 -50.55 -21.5 -47.15 L-21.2 -46.45 M27.4 -43.65 Q36.45 -54.8 52.5 -58.05 55.9 -42.1 52.35 -27.6 L51.65 -24.55 51.0 -22.65 48.55 -24.55 Q39.95 -31.4 27.4 -36.5 L23.55 -37.95 25.35 -40.9 27.4 -43.65 M22.1 -45.0 Q34.2 -61.75 55.95 -64.15 59.0 -49.1 57.7 -35.65 57.25 -29.4 55.3 -25.05 L52.25 -18.6 35.25 -28.6 Q18.3 -38.6 0.9 -39.45 -31.55 -41.1 -52.7 -22.2 L-52.95 -21.75 -53.85 -19.1 Q-58.5 -4.4 -55.55 16.45 L-55.25 19.0 -55.1 20.05 -55.05 20.6 Q-53.65 23.0 -52.4 28.6 -51.25 34.2 -50.15 43.35 -48.95 52.5 -48.9 55.35 -48.65 57.55 -48.9 59.75 -49.15 62.0 -50.9 62.7 L-56.0 63.7 -59.2 63.9 -59.4 63.9 -60.85 63.75 Q-68.85 59.7 -70.45 41.2 -71.9 23.95 -69.4 21.6 -68.3 21.0 -66.8 20.5 -66.85 19.7 -67.05 19.0 L-67.65 16.45 Q-72.1 -5.5 -65.55 -21.75 L-65.45 -22.0 M-55.7 -25.85 L-54.4 -25.8 -49.0 -29.65 Q-41.45 -34.4 -31.65 -38.65 L-31.2 -38.8 -26.35 -40.7 -25.7 -40.95 -24.85 -41.35 -25.7 -42.85 -27.6 -45.9 Q-36.65 -58.05 -55.05 -60.9 -58.25 -46.85 -57.2 -33.65 L-56.6 -29.2 Q-56.35 -26.9 -55.7 -25.85 M-65.05 -22.65 Q-64.0 -25.4 -62.35 -27.85 -64.6 -45.85 -58.25 -66.9 -33.25 -65.4 -21.5 -47.15 M-62.35 -27.85 L-61.85 -24.65 M-56.0 63.7 Q-54.75 62.65 -54.85 56.9 -54.95 51.4 -56.35 41.45 -58.65 25.45 -61.85 21.2 L-62.35 21.15 Q-64.75 19.95 -66.8 20.5 M-55.05 20.6 Q-58.45 21.55 -61.85 21.2" fill="none" stroke="#000000" stroke-linecap="round" stroke-linejoin="round" stroke-width="2.0"/>
    <path d="M-64.75 32.4 L-66.2 37.55 -68.95 34.95 -68.95 42.25 -63.45 51.0 -60.85 39.7 -64.75 32.4" fill="none" stroke="#000000" stroke-linecap="round" stroke-linejoin="round" stroke-width="1.0"/>
  </g>
</svg>
