<?xml version="1.0" encoding="UTF-8" standalone="no"?>
<svg xmlns:xlink="http://www.w3.org/1999/xlink" height="91.95px" width="139.65px" xmlns="http://www.w3.org/2000/svg">
  <g transform="matrix(1.0, 0.0, 0.0, 1.0, 74.25, 49.6)">
    <path d="M19.2 -27.75 L19.3 -27.8 20.45 -28.55 27.35 -32.75 Q39.7 -40.4 43.0 -39.55 54.65 -31.8 62.1 -15.25 59.1 -9.85 50.65 -5.9 L53.15 -3.45 Q57.0 0.25 59.9 4.3 L63.25 8.85 Q66.95 24.75 58.9 40.8 L57.55 41.35 Q52.7 34.0 47.15 26.95 L38.9 17.35 32.65 10.45 25.7 3.55 24.0 4.15 Q-4.55 14.4 -34.6 22.25 L-34.25 23.55 -36.3 24.9 -59.6 28.4 -61.3 28.75 -64.5 29.35 Q-70.45 28.75 -72.3 24.7 L-73.25 16.35 Q-73.25 12.35 -70.95 11.45 L-66.85 10.1 -63.55 8.95 -64.25 5.15 -62.55 2.85 -41.7 -3.85 -40.55 0.45 Q-20.6 -7.25 -5.05 -14.9 L-2.85 -15.85 Q-9.75 -19.15 -17.65 -22.3 -37.65 -29.0 -63.7 -33.7 L-67.1 -35.9 Q-68.5 -38.2 -65.7 -43.45 -62.95 -48.85 -59.2 -48.6 -25.85 -44.55 -1.15 -36.65 L7.65 -33.35 Q13.75 -30.7 19.2 -27.75 11.1 -23.05 -0.25 -17.25 L-2.15 -16.2 -2.85 -15.85 M3.6 -5.8 Q5.2 -4.05 5.3 -2.05 5.6 -0.1 4.1 1.0 2.8 1.95 0.8 1.4 -1.5 0.8 -2.9 -1.0 -4.55 -2.9 -4.6 -4.8 -4.8 -6.8 -3.45 -7.8 -2.0 -8.75 0.0 -8.2 2.05 -7.6 3.6 -5.8 M31.5 -13.7 Q31.8 -11.5 30.35 -10.4 28.85 -9.25 26.65 -9.8 24.4 -10.35 22.7 -12.2 20.9 -14.1 20.6 -16.05 20.3 -18.2 21.8 -19.4 23.25 -20.5 25.5 -19.95 27.75 -19.55 29.45 -17.65 31.25 -15.75 31.5 -13.7 M47.55 -31.9 L51.1 -30.0 Q52.9 -28.65 53.85 -27.0 L54.4 -26.05 Q54.75 -25.0 54.6 -23.9 L54.3 -23.5 Q53.3 -22.9 52.0 -22.75 49.75 -23.1 47.3 -24.9 44.9 -26.8 44.0 -28.85 L43.85 -29.6 Q43.75 -30.95 44.6 -31.55 44.9 -31.9 45.25 -32.0 46.0 -32.2 47.15 -32.0 L47.55 -31.9 M50.65 -5.9 L47.9 -4.85 43.65 -3.15 Q39.55 2.6 33.65 8.85 L32.65 10.45 M59.9 4.3 Q57.1 15.55 48.6 25.8 L47.15 26.95 M43.65 -3.15 Q35.7 -0.1 27.55 2.85 L26.1 3.4 25.7 3.55 M53.15 -3.45 Q50.3 6.55 40.8 16.6 L38.9 17.35 M-57.4 -44.35 Q-57.2 -42.7 -58.05 -41.5 -58.8 -39.95 -60.35 -39.45 L-62.8 -39.65 Q-63.9 -40.2 -64.15 -41.6 -64.25 -43.0 -63.5 -44.5 -62.65 -45.85 -61.3 -46.45 -59.8 -47.0 -58.7 -46.45 -57.5 -45.7 -57.4 -44.35 M-40.55 -40.1 Q-39.7 -41.5 -38.35 -42.15 L-35.85 -42.1 Q-34.65 -41.35 -34.4 -39.95 -34.25 -38.4 -35.1 -37.1 L-35.3 -36.65 Q-36.15 -35.45 -37.4 -35.05 -38.65 -34.5 -39.85 -35.25 -40.95 -35.8 -41.3 -37.25 L-41.3 -37.65 Q-41.25 -38.95 -40.55 -40.1 M-12.55 -35.9 Q-10.95 -36.4 -9.8 -35.6 L-9.4 -35.25 Q-8.65 -34.5 -8.6 -33.3 -8.6 -31.7 -9.65 -30.35 -10.7 -29.0 -12.15 -28.35 -13.7 -27.95 -14.85 -28.65 -16.0 -29.5 -16.1 -30.95 -16.15 -32.55 -15.15 -34.1 L-14.4 -34.7 Q-13.65 -35.45 -12.55 -35.9 M-29.35 4.2 Q-29.35 2.1 -28.0 1.2 -26.45 0.05 -24.55 0.8 -22.45 1.3 -21.15 3.1 -19.6 4.9 -19.6 6.9 -19.45 8.95 -20.95 9.9 -22.4 10.9 -24.45 10.3 -26.45 9.7 -28.0 7.9 -29.35 6.05 -29.35 4.2 M-47.15 6.35 L-55.15 15.75 -43.7 19.05 -47.15 6.35 M-61.3 28.75 L-61.8 28.0 Q-64.85 23.15 -66.85 10.1 M-59.6 28.4 L-60.2 28.45 -63.55 8.95 M-40.55 0.45 L-34.6 22.25" fill="none" stroke="#000000" stroke-linecap="round" stroke-linejoin="round" stroke-width="2.0"/>
  </g>
</svg>
