<?xml version="1.0" encoding="UTF-8" standalone="no"?>
<svg xmlns:xlink="http://www.w3.org/1999/xlink" height="24.9px" width="99.3px" xmlns="http://www.w3.org/2000/svg">
  <g transform="matrix(1.0, 0.0, 0.0, 1.0, 55.75, 88.25)">
    <path d="M24.8 -78.5 Q25.0 -76.5 16.15 -74.8 7.3 -73.05 -5.45 -72.55 L-27.45 -73.2 Q-36.65 -74.25 -36.9 -76.3 -37.2 -78.2 -28.25 -80.0 -19.4 -81.65 -6.7 -82.2 L15.3 -81.45 Q24.6 -80.5 24.8 -78.5 M42.55 -77.35 Q42.7 -72.65 28.5 -68.9 14.65 -65.1 -5.65 -64.5 -25.75 -63.8 -40.15 -66.75 -54.5 -69.55 -54.75 -74.2 -54.9 -79.0 -40.95 -82.75 -26.8 -86.45 -6.7 -87.1 13.35 -87.8 27.75 -84.85 42.25 -82.05 42.55 -77.35" fill="none" stroke="#000000" stroke-linecap="round" stroke-linejoin="round" stroke-width="2.0"/>
  </g>
</svg>
