<?xml version="1.0" encoding="UTF-8" standalone="no"?>
<svg xmlns:xlink="http://www.w3.org/1999/xlink" height="116.8px" width="246.5px" xmlns="http://www.w3.org/2000/svg">
  <g transform="matrix(1.0, 0.0, 0.0, 1.0, 127.8, 102.65)">
    <path d="M13.2 -13.25 Q14.15 -13.8 15.25 -13.9 L16.9 -13.8 Q18.55 -13.4 19.55 -12.35 20.55 -10.8 20.25 -9.15 20.0 -7.35 18.55 -6.4 17.05 -5.3 15.25 -5.6 L13.8 -6.0 Q12.95 -6.4 12.3 -7.3 11.7 -8.0 11.6 -8.75 11.3 -9.6 11.45 -10.4 11.75 -12.15 13.2 -13.25 M3.2 -9.3 Q2.6 -8.05 1.55 -7.35 L-0.25 -6.65 Q-0.95 -6.5 -1.8 -6.65 -3.6 -6.95 -4.7 -8.35 -5.65 -9.65 -5.45 -11.4 -5.1 -13.15 -3.65 -14.3 -2.6 -14.9 -1.4 -14.9 L-0.05 -14.8 Q1.6 -14.5 2.55 -13.3 3.7 -11.9 3.35 -10.15 L3.2 -9.3 M34.1 -13.3 L35.25 -13.35 35.3 -13.35 Q37.25 -12.95 38.25 -11.65 39.35 -10.2 39.15 -8.45 38.8 -6.8 37.25 -5.75 36.3 -5.1 35.15 -4.95 L33.95 -5.0 Q32.1 -5.25 30.95 -6.8 30.0 -8.05 30.3 -9.75 L30.45 -10.4 Q30.9 -11.7 32.0 -12.65 33.0 -13.3 34.1 -13.3 M54.3 -13.3 Q56.15 -12.9 57.3 -11.55 58.35 -10.2 58.0 -8.4 57.75 -6.65 56.4 -5.6 55.9 -5.3 55.4 -5.15 L52.95 -4.95 Q51.2 -5.2 50.05 -6.55 49.0 -7.95 49.25 -9.65 L49.9 -11.2 Q50.15 -11.9 50.95 -12.5 52.45 -13.5 54.3 -13.3 M67.25 -7.15 Q66.7 -7.95 66.55 -8.95 L66.55 -10.2 Q66.9 -11.95 68.35 -13.1 69.75 -14.0 71.6 -13.8 73.55 -13.5 74.55 -12.1 75.7 -10.7 75.35 -8.95 75.25 -8.0 74.6 -7.15 L73.55 -6.15 Q72.15 -5.2 70.3 -5.5 68.4 -5.75 67.25 -7.15 M98.15 -18.4 Q99.7 -19.3 101.45 -19.15 103.5 -18.8 104.5 -17.5 105.55 -16.05 105.3 -14.35 104.95 -12.5 103.55 -11.6 102.0 -10.5 100.15 -10.75 99.35 -10.85 98.75 -11.25 97.75 -11.7 97.2 -12.5 96.2 -13.8 96.55 -15.65 96.8 -17.4 98.15 -18.4 M84.2 -15.95 L87.1 -16.5 Q88.95 -16.1 90.05 -14.75 91.1 -13.35 90.8 -11.55 L90.8 -11.4 Q90.45 -9.7 88.95 -8.9 87.55 -7.9 85.65 -8.1 84.3 -8.35 83.25 -9.2 L82.7 -9.9 Q81.7 -11.15 82.0 -12.85 82.3 -14.7 83.7 -15.7 L84.2 -15.95 M112.45 -17.6 Q109.0 -19.25 109.5 -22.15 110.7 -25.4 114.2 -25.25 117.4 -24.9 117.7 -20.8 116.45 -16.6 112.45 -17.6 M-49.2 -20.7 L-49.05 -20.7 Q-47.4 -20.1 -46.45 -18.95 -45.45 -17.55 -45.65 -15.75 -46.0 -14.0 -47.4 -13.1 -48.35 -12.4 -49.5 -12.35 L-50.75 -12.35 Q-52.6 -12.55 -53.65 -13.95 -54.75 -15.35 -54.4 -17.1 L-54.3 -17.6 Q-53.95 -18.95 -52.75 -19.9 -51.2 -20.8 -49.45 -20.75 L-49.2 -20.7 M-22.25 -12.5 Q-21.95 -14.35 -20.6 -15.3 -19.15 -16.35 -17.3 -16.1 -15.35 -15.75 -14.25 -14.4 L-13.95 -13.9 Q-13.2 -12.65 -13.45 -11.2 -13.7 -9.45 -15.25 -8.5 -16.85 -7.5 -18.7 -7.8 -19.7 -7.95 -20.5 -8.45 L-21.6 -9.45 Q-22.5 -10.75 -22.25 -12.5 M-29.45 -12.55 Q-29.5 -12.15 -29.8 -11.65 -30.05 -10.55 -31.2 -9.9 -32.75 -8.9 -34.6 -9.2 -36.4 -9.45 -37.5 -10.75 -38.6 -12.15 -38.3 -13.9 -37.95 -15.65 -36.6 -16.7 -35.05 -17.65 -33.25 -17.55 -31.35 -17.0 -30.3 -15.75 -29.15 -14.35 -29.45 -12.55" fill="#ffffff" fill-rule="evenodd" stroke="none"/>
    <path d="M-121.85 -34.85 Q-127.15 -35.0 -126.8 -39.2 -126.2 -43.35 -122.7 -43.05 -119.85 -42.25 -118.6 -39.65 -118.65 -36.0 -121.85 -34.85 M-91.5 -25.5 Q-92.85 -22.4 -96.8 -23.9 -100.05 -25.9 -99.5 -27.9 -98.3 -30.55 -94.6 -30.45 L-94.35 -30.4 Q-91.5 -29.5 -91.5 -25.5 M-110.5 -36.0 L-110.45 -36.05 -110.35 -36.1 -108.05 -35.2 Q-104.75 -33.5 -105.15 -30.65 -105.15 -28.2 -108.3 -27.65 -112.95 -27.65 -113.55 -31.65 -113.5 -34.7 -110.5 -36.0 M-82.55 -25.4 Q-78.35 -26.75 -77.25 -22.5 -78.05 -17.2 -83.9 -18.9 -86.8 -23.5 -82.55 -25.4 M-65.55 -23.25 Q-63.65 -23.0 -62.6 -21.65 -61.55 -20.2 -61.85 -18.5 -62.2 -16.75 -63.6 -15.85 -65.05 -14.75 -66.85 -14.95 -68.65 -15.3 -69.8 -16.75 -70.75 -18.0 -70.45 -19.75 -70.2 -21.45 -68.75 -22.5 -67.35 -23.55 -65.55 -23.25" fill="#cdcdcd" fill-rule="evenodd" stroke="none"/>
    <path d="M-31.5 -70.85 L-34.5 -65.2 -38.6 -54.25 Q-29.6 -51.6 -20.7 -49.8 -13.0 -48.4 -5.3 -47.7 19.15 -45.15 37.6 -48.05 L36.3 -53.25 35.75 -53.5 36.15 -53.55 36.2 -53.5 35.8 -55.15 33.4 -64.2 33.0 -65.6 80.35 -53.6 Q109.25 -44.9 113.9 -35.2 114.75 -33.35 114.75 -31.5 107.15 -26.2 97.2 -23.95 L95.6 -23.55 94.7 -23.4 90.35 -22.75 89.6 -22.7 Q66.6 -31.4 39.2 -37.3 L39.0 -38.05 37.6 -48.05 39.0 -38.05 39.2 -37.3 Q66.6 -31.4 89.6 -22.7 67.2 -19.15 41.55 -19.55 L39.95 -30.65 39.2 -37.3 39.95 -30.65 Q10.75 -24.55 -23.65 -31.6 -34.15 -33.75 -45.05 -37.1 L-47.6 -26.3 -48.35 -26.35 Q-81.4 -30.45 -99.65 -37.05 -114.65 -42.45 -119.75 -49.4 L-120.8 -51.25 Q-122.95 -64.9 -36.95 -70.55 L-31.5 -70.85 M114.6 -30.35 L114.2 -25.25 Q110.7 -25.4 109.5 -22.15 109.0 -19.25 112.45 -17.6 111.55 -14.0 110.0 -10.85 L105.3 -14.35 Q105.55 -16.05 104.5 -17.5 103.5 -18.8 101.45 -19.15 99.7 -19.3 98.15 -18.4 96.8 -17.4 96.55 -15.65 96.2 -13.8 97.2 -12.5 97.75 -11.7 98.75 -11.25 L96.7 -5.6 90.8 -11.4 90.8 -11.55 Q91.1 -13.35 90.05 -14.75 88.95 -16.1 87.1 -16.5 111.6 -20.7 114.6 -30.35 M-121.0 -31.75 L-121.85 -34.85 Q-118.65 -36.0 -118.6 -39.65 -119.85 -42.25 -122.7 -43.05 L-121.75 -47.15 Q-120.75 -40.7 -113.85 -37.6 L-110.35 -36.1 -110.45 -36.05 -110.5 -36.0 -121.0 -31.75 M33.4 -64.2 L34.55 -60.15 35.8 -55.15 34.55 -60.15 33.4 -64.2 M34.55 -60.15 Q92.5 -49.1 114.75 -31.5 92.5 -49.1 34.55 -60.15 M15.25 -13.9 Q14.15 -13.8 13.2 -13.25 11.75 -12.15 11.45 -10.4 11.3 -9.6 11.6 -8.75 L8.1 -14.35 15.25 -13.9 M13.8 -6.0 L15.25 -5.6 Q17.05 -5.3 18.55 -6.4 20.0 -7.35 20.25 -9.15 20.55 -10.8 19.55 -12.35 18.55 -13.4 16.9 -13.8 L28.2 -13.4 28.3 -13.4 16.8 -0.3 13.8 -6.0 M35.3 -13.35 Q42.05 -13.3 48.2 -13.4 L48.3 -13.4 Q69.65 -13.75 84.2 -15.95 L83.7 -15.7 Q82.3 -14.7 82.0 -12.85 81.7 -11.15 82.7 -9.9 L83.25 -9.2 78.55 -3.1 74.6 -7.15 Q75.25 -8.0 75.35 -8.95 75.7 -10.7 74.55 -12.1 73.55 -13.5 71.6 -13.8 69.75 -14.0 68.35 -13.1 66.9 -11.95 66.55 -10.2 L66.55 -8.95 58.0 -1.15 55.4 -5.15 Q55.9 -5.3 56.4 -5.6 57.75 -6.65 58.0 -8.4 58.35 -10.2 57.3 -11.55 56.15 -12.9 54.3 -13.3 52.45 -13.5 50.95 -12.5 50.15 -11.9 49.9 -11.2 L48.3 -13.4 37.55 -0.3 35.15 -4.95 Q36.3 -5.1 37.25 -5.75 38.8 -6.8 39.15 -8.45 39.35 -10.2 38.25 -11.65 37.25 -12.95 35.3 -13.35 M-0.05 -14.8 L8.1 -14.35 3.2 -9.3 3.35 -10.15 Q3.7 -11.9 2.55 -13.3 1.6 -14.5 -0.05 -14.8 M-1.4 -14.9 Q-2.6 -14.9 -3.65 -14.3 -5.1 -13.15 -5.45 -11.4 -5.65 -9.65 -4.7 -8.35 -3.6 -6.95 -1.8 -6.65 -0.95 -6.5 -0.25 -6.65 L-4.45 -1.55 -12.45 -15.9 -13.95 -13.9 -14.25 -14.4 Q-15.35 -15.75 -17.3 -16.1 -19.15 -16.35 -20.6 -15.3 -21.95 -14.35 -22.25 -12.5 -22.5 -10.75 -21.6 -9.45 L-20.5 -8.45 -25.2 -3.7 -29.8 -11.65 Q-29.5 -12.15 -29.45 -12.55 -29.15 -14.35 -30.3 -15.75 -31.35 -17.0 -33.25 -17.55 -35.05 -17.65 -36.6 -16.7 -37.95 -15.65 -38.3 -13.9 L-46.75 -7.05 -49.5 -12.35 Q-48.35 -12.4 -47.4 -13.1 -46.0 -14.0 -45.65 -15.75 -45.45 -17.55 -46.45 -18.95 -47.4 -20.1 -49.05 -20.7 -30.95 -17.7 -12.45 -15.9 L-1.4 -14.9 M-67.55 -11.3 L-67.65 -11.3 -73.8 -25.25 -77.25 -22.5 Q-78.35 -26.75 -82.55 -25.4 -86.8 -23.5 -83.9 -18.9 L-87.2 -16.5 -91.5 -25.5 Q-91.5 -29.5 -94.35 -30.4 -87.15 -28.3 -73.8 -25.25 L-66.95 -23.65 -56.4 -21.85 -49.45 -20.75 Q-51.2 -20.8 -52.75 -19.9 -53.95 -18.95 -54.3 -17.6 L-55.5 -19.1 -67.55 -11.3 M-94.6 -30.45 Q-98.3 -30.55 -99.5 -27.9 -100.05 -25.9 -96.8 -23.9 L-99.85 -25.25 -105.6 -22.15 -108.3 -27.65 Q-105.15 -28.2 -105.15 -30.65 -104.75 -33.5 -108.05 -35.2 L-98.2 -31.6 -94.6 -30.45 M-38.6 -54.25 L-42.4 -44.35 -53.85 -43.5 Q-76.75 -41.55 -99.65 -37.05 -76.75 -41.55 -53.85 -43.5 L-42.4 -44.35 -38.6 -54.25 M-34.5 -65.2 L-49.4 -64.7 Q-99.35 -62.3 -119.75 -49.4 -99.35 -62.3 -49.4 -64.7 L-34.5 -65.2 M-42.4 -44.35 L-45.05 -37.1 -42.4 -44.35 M-66.85 -14.95 Q-65.05 -14.75 -63.6 -15.85 -62.2 -16.75 -61.85 -18.5 -61.55 -20.2 -62.6 -21.65 -63.65 -23.0 -65.55 -23.25 -67.35 -23.55 -68.75 -22.5 -70.2 -21.45 -70.45 -19.75 -70.75 -18.0 -69.8 -16.75 -68.65 -15.3 -66.85 -14.95" fill="#000000" fill-opacity="0.40784314" fill-rule="evenodd" stroke="none"/>
    <path d="M33.0 -65.6 Q22.8 -94.85 4.8 -101.65 L3.8 -101.65 Q-13.5 -102.0 -31.5 -70.85 L-34.5 -65.2 -38.6 -54.25 Q-29.6 -51.6 -20.7 -49.8 -13.0 -48.4 -5.3 -47.7 19.15 -45.15 37.6 -48.05 L36.3 -53.25 M36.2 -53.5 L35.8 -55.15 34.55 -60.15 33.4 -64.2 33.0 -65.6 80.35 -53.6 Q109.25 -44.9 113.9 -35.2 114.75 -33.35 114.75 -31.5 L114.6 -30.35 114.2 -25.25 Q117.4 -24.9 117.7 -20.8 116.45 -16.6 112.45 -17.6 111.55 -14.0 110.0 -10.85 L108.1 -7.6 Q93.75 19.65 -4.05 11.15 -34.7 7.95 -57.25 3.6 -114.85 -7.6 -119.85 -27.1 L-121.0 -31.75 -121.85 -34.85 Q-127.15 -35.0 -126.8 -39.2 -126.2 -43.35 -122.7 -43.05 L-121.75 -47.15 -121.25 -49.2 -120.8 -51.25 Q-122.95 -64.9 -36.95 -70.55 L-31.5 -70.85 M37.6 -48.05 L39.0 -38.05 39.2 -37.3 Q66.6 -31.4 89.6 -22.7 L90.35 -22.75 94.7 -23.4 95.6 -23.55 97.2 -23.95 Q107.15 -26.2 114.75 -31.5 92.5 -49.1 34.55 -60.15 M39.2 -37.3 L39.95 -30.65 41.55 -19.55 Q67.2 -19.15 89.6 -22.7 M15.25 -13.9 Q14.15 -13.8 13.2 -13.25 11.75 -12.15 11.45 -10.4 11.3 -9.6 11.6 -8.75 11.7 -8.0 12.3 -7.3 12.95 -6.4 13.8 -6.0 L15.25 -5.6 Q17.05 -5.3 18.55 -6.4 20.0 -7.35 20.25 -9.15 20.55 -10.8 19.55 -12.35 18.55 -13.4 16.9 -13.8 L15.25 -13.9 8.1 -14.35 11.6 -8.75 M15.25 -13.9 L16.55 -13.9 16.9 -13.8 28.2 -13.4 28.3 -13.4 29.75 -13.4 34.1 -13.3 35.25 -13.35 35.3 -13.35 Q42.05 -13.3 48.2 -13.4 L48.3 -13.4 Q69.65 -13.75 84.2 -15.95 85.5 -16.6 86.9 -16.5 L87.1 -16.5 Q111.6 -20.7 114.6 -30.35 M-0.05 -14.8 Q1.6 -14.5 2.55 -13.3 3.7 -11.9 3.35 -10.15 L3.2 -9.3 8.1 -14.35 -0.05 -14.8 -1.4 -14.9 Q-2.6 -14.9 -3.65 -14.3 -5.1 -13.15 -5.45 -11.4 -5.65 -9.65 -4.7 -8.35 -3.6 -6.95 -1.8 -6.65 -0.95 -6.5 -0.25 -6.65 L1.55 -7.35 Q2.6 -8.05 3.2 -9.3 M16.8 -0.3 L13.8 -6.0 M28.3 -13.4 L30.45 -10.4 Q30.9 -11.7 32.0 -12.65 33.0 -13.3 34.1 -13.3 M35.15 -4.95 L33.95 -5.0 Q32.1 -5.25 30.95 -6.8 30.0 -8.05 30.3 -9.75 L30.45 -10.4 M35.3 -13.35 Q37.25 -12.95 38.25 -11.65 39.35 -10.2 39.15 -8.45 38.8 -6.8 37.25 -5.75 36.3 -5.1 35.15 -4.95 L37.55 -0.3 48.3 -13.4 49.9 -11.2 Q50.15 -11.9 50.95 -12.5 52.45 -13.5 54.3 -13.3 56.15 -12.9 57.3 -11.55 58.35 -10.2 58.0 -8.4 57.75 -6.65 56.4 -5.6 55.9 -5.3 55.4 -5.15 L58.0 -1.15 66.55 -8.95 66.55 -10.2 Q66.9 -11.95 68.35 -13.1 69.75 -14.0 71.6 -13.8 73.55 -13.5 74.55 -12.1 75.7 -10.7 75.35 -8.95 75.25 -8.0 74.6 -7.15 L78.55 -3.1 83.25 -9.2 82.7 -9.9 Q81.7 -11.15 82.0 -12.85 82.3 -14.7 83.7 -15.7 L84.2 -15.95 87.1 -16.5 Q88.95 -16.1 90.05 -14.75 91.1 -13.35 90.8 -11.55 L90.8 -11.4 96.7 -5.6 98.75 -11.25 Q97.75 -11.7 97.2 -12.5 96.2 -13.8 96.55 -15.65 96.8 -17.4 98.15 -18.4 99.7 -19.3 101.45 -19.15 103.5 -18.8 104.5 -17.5 105.55 -16.05 105.3 -14.35 L110.0 -10.85 M108.1 -7.6 L96.7 -5.6 78.55 -3.1 58.0 -1.15 37.55 -0.3 Q27.15 0.0 16.8 -0.3 L-4.45 -1.55 -25.2 -3.7 Q-36.05 -5.1 -46.75 -7.05 L-59.6 -9.55 -67.55 -11.3 -67.65 -11.3 -87.2 -16.5 Q-96.45 -19.1 -105.6 -22.15 -112.75 -24.4 -119.85 -27.1 M28.3 -13.4 L16.8 -0.3 M55.4 -5.15 L52.95 -4.95 Q51.2 -5.2 50.05 -6.55 49.0 -7.95 49.25 -9.65 L49.9 -11.2 M74.6 -7.15 L73.55 -6.15 Q72.15 -5.2 70.3 -5.5 68.4 -5.75 67.25 -7.15 66.7 -7.95 66.55 -8.95 M90.8 -11.4 Q90.45 -9.7 88.95 -8.9 87.55 -7.9 85.65 -8.1 84.3 -8.35 83.25 -9.2 M105.3 -14.35 Q104.95 -12.5 103.55 -11.6 102.0 -10.5 100.15 -10.75 99.35 -10.85 98.75 -11.25 M112.45 -17.6 Q109.0 -19.25 109.5 -22.15 110.7 -25.4 114.2 -25.25 M-94.6 -30.45 L-98.2 -31.6 -108.05 -35.2 Q-104.75 -33.5 -105.15 -30.65 -105.15 -28.2 -108.3 -27.65 L-105.6 -22.15 -99.85 -25.25 -96.8 -23.9 Q-100.05 -25.9 -99.5 -27.9 -98.3 -30.55 -94.6 -30.45 L-94.35 -30.4 Q-87.15 -28.3 -73.8 -25.25 L-66.95 -23.65 -56.4 -21.85 -49.45 -20.75 -49.2 -20.7 -49.05 -20.7 Q-30.95 -17.7 -12.45 -15.9 L-1.4 -14.9 -0.45 -14.95 -0.05 -14.8 M-94.35 -30.4 Q-91.5 -29.5 -91.5 -25.5 L-87.2 -16.5 -83.9 -18.9 Q-86.8 -23.5 -82.55 -25.4 -78.35 -26.75 -77.25 -22.5 L-73.8 -25.25 -67.65 -11.3 M-119.75 -49.4 L-121.25 -49.2 M-121.0 -31.75 L-110.5 -36.0 -110.45 -36.05 -110.35 -36.1 -113.85 -37.6 Q-120.75 -40.7 -121.75 -47.15 M-110.35 -36.1 L-108.05 -35.2 M-108.3 -27.65 Q-112.95 -27.65 -113.55 -31.65 -113.5 -34.7 -110.5 -36.0 M-91.5 -25.5 Q-92.85 -22.4 -96.8 -23.9 M-119.75 -49.4 Q-114.65 -42.45 -99.65 -37.05 -76.75 -41.55 -53.85 -43.5 L-42.4 -44.35 -38.6 -54.25 M-121.85 -34.85 Q-118.65 -36.0 -118.6 -39.65 -119.85 -42.25 -122.7 -43.05 M-120.8 -51.25 L-119.75 -49.4 Q-99.35 -62.3 -49.4 -64.7 L-34.5 -65.2 M-99.65 -37.05 Q-81.4 -30.45 -48.35 -26.35 L-47.6 -26.3 -45.05 -37.1 -42.4 -44.35 M-66.85 -14.95 Q-68.65 -15.3 -69.8 -16.75 -70.75 -18.0 -70.45 -19.75 -70.2 -21.45 -68.75 -22.5 -67.35 -23.55 -65.55 -23.25 -63.65 -23.0 -62.6 -21.65 -61.55 -20.2 -61.85 -18.5 -62.2 -16.75 -63.6 -15.85 -65.05 -14.75 -66.85 -14.95 M-49.05 -20.7 Q-47.4 -20.1 -46.45 -18.95 -45.45 -17.55 -45.65 -15.75 -46.0 -14.0 -47.4 -13.1 -48.35 -12.4 -49.5 -12.35 L-46.75 -7.05 -38.3 -13.9 Q-37.95 -15.65 -36.6 -16.7 -35.05 -17.65 -33.25 -17.55 -31.35 -17.0 -30.3 -15.75 -29.15 -14.35 -29.45 -12.55 -29.5 -12.15 -29.8 -11.65 L-25.2 -3.7 -20.5 -8.45 -21.6 -9.45 Q-22.5 -10.75 -22.25 -12.5 -21.95 -14.35 -20.6 -15.3 -19.15 -16.35 -17.3 -16.1 -15.35 -15.75 -14.25 -14.4 L-13.95 -13.9 -12.45 -15.9 -4.45 -1.55 -0.25 -6.65 M-67.55 -11.3 L-55.5 -19.1 -54.3 -17.6 Q-53.95 -18.95 -52.75 -19.9 -51.2 -20.8 -49.45 -20.75 M-49.5 -12.35 L-50.75 -12.35 Q-52.6 -12.55 -53.65 -13.95 -54.75 -15.35 -54.4 -17.1 L-54.3 -17.6 M-29.8 -11.65 Q-30.05 -10.55 -31.2 -9.9 -32.75 -8.9 -34.6 -9.2 -36.4 -9.45 -37.5 -10.75 -38.6 -12.15 -38.3 -13.9 M-13.95 -13.9 Q-13.2 -12.65 -13.45 -11.2 -13.7 -9.45 -15.25 -8.5 -16.85 -7.5 -18.7 -7.8 -19.7 -7.95 -20.5 -8.45 M-47.6 -26.3 L-24.25 -23.2 Q8.55 -19.6 41.55 -19.55 M39.95 -30.65 Q10.75 -24.55 -23.65 -31.6 -34.15 -33.75 -45.05 -37.1 M-83.9 -18.9 Q-78.05 -17.2 -77.25 -22.5" fill="none" stroke="#000000" stroke-linecap="round" stroke-linejoin="round" stroke-width="2.0"/>
  </g>
</svg>
