<?xml version="1.0" encoding="UTF-8" standalone="no"?>
<svg xmlns:xlink="http://www.w3.org/1999/xlink" height="118.5px" width="256.35px" xmlns="http://www.w3.org/2000/svg">
  <g transform="matrix(1.0, 0.0, 0.0, 1.0, 137.25, 78.0)">
    <path d="M6.35 -72.25 L-93.75 -4.95 Q-85.65 -2.4 -80.45 -1.0 L-65.5 2.85 6.4 -69.4 7.1 -70.1 24.6 16.4 33.05 16.4 Q41.55 16.4 49.25 16.05 L53.9 14.8 7.75 -70.2 M9.4 -73.8 L106.55 3.7 Q109.8 1.9 112.55 -0.05 115.65 -2.4 118.1 -5.05 74.9 -42.95 7.5 -77.0 L-2.1 -74.65 Q-71.15 -57.4 -133.7 -23.05 L-132.0 -22.0 -130.25 -20.85 -130.2 -20.85 -125.3 -18.05 Q-121.1 -15.7 -118.5 -14.5 L5.1 -73.95 M8.65 -71.7 L81.75 12.1 83.15 11.8 Q90.25 10.3 96.2 8.2 99.15 7.25 101.75 6.1 L104.65 4.7 106.55 3.7 M118.1 -5.05 L113.45 17.75 112.05 19.75 Q109.0 23.7 103.75 26.8 100.8 28.6 97.25 30.2 91.1 32.65 83.15 34.65 L77.1 35.8 58.15 38.35 49.7 39.0 32.3 39.5 22.35 39.5 7.5 38.25 6.2 38.1 -5.7 37.05 -21.7 34.55 -36.05 32.2 -51.9 29.05 -66.75 25.6 -80.8 21.8 Q-87.45 19.95 -93.7 17.8 L-108.05 12.65 -115.0 9.85 -124.35 5.75 -130.9 2.6 -134.05 0.9 Q-138.65 -5.85 -133.7 -23.05 M104.65 4.7 L103.1 25.2 M53.9 14.8 Q55.25 15.6 58.15 15.4 L58.9 15.4 77.05 13.0 80.05 12.5 81.75 12.1 M80.05 12.5 L80.3 32.85 M53.9 14.8 L54.35 36.2 M7.1 -70.1 L-7.45 12.7 -7.45 12.9 -5.7 13.25 6.6 14.8 7.5 14.95 21.4 16.15 24.05 16.3 24.05 16.35 24.6 16.4 M24.05 16.35 L23.2 37.75 M-118.5 -14.5 L-118.45 -14.5 -115.1 -13.1 Q-111.15 -11.3 -106.95 -9.65 -100.25 -7.05 -92.8 -4.55 L-92.8 -4.6 -93.75 -4.95 M-92.8 -4.55 L-92.05 -4.35 -92.8 -4.6 M6.4 -69.4 L-36.8 8.6 -36.75 8.6 -32.6 9.2 -19.6 11.3 -7.45 12.7 M-36.75 8.6 L-39.35 29.85 M-7.45 12.9 L-8.4 34.95 M-36.8 8.6 L-49.75 6.2 -49.85 6.2 -65.5 2.85 -65.1 2.95 -68.25 23.3 M-92.8 -4.55 L-95.95 15.35 M-118.45 -14.5 L-120.2 5.95" fill="none" stroke="#000000" stroke-linecap="round" stroke-linejoin="round" stroke-width="2.0"/>
  </g>
</svg>
