<?xml version="1.0" encoding="UTF-8" standalone="no"?>
<svg xmlns:xlink="http://www.w3.org/1999/xlink" height="200.5px" width="188.35px" xmlns="http://www.w3.org/2000/svg">
  <g transform="matrix(1.0, 0.0, 0.0, 1.0, 89.2, 72.5)">
    <path d="M36.7 -1.4 Q43.4 -10.0 46.1 -19.9 55.4 -43.05 40.65 -62.2 25.75 -75.55 9.85 -69.1 3.7 -65.9 0.2 -59.25 -3.0 -53.15 -3.85 -44.1 -0.55 -36.15 0.5 -28.4 2.05 -17.25 -1.0 -6.45 M52.9 28.6 Q66.75 27.45 72.35 24.7 79.75 21.05 84.1 13.8 95.7 -6.5 93.1 -20.25 86.75 -40.95 75.4 -41.6 65.15 -42.9 56.7 -34.95 51.0 -29.55 46.1 -19.9 M52.9 60.5 L56.0 63.45 Q66.3 71.8 81.8 66.2 L85.95 64.45 Q96.35 59.85 97.85 46.35 97.4 36.5 91.2 31.3 87.75 28.35 82.65 26.8 77.7 24.5 72.35 24.7 M-39.0 45.25 L-42.4 47.6 Q-53.5 55.3 -60.05 62.95 L-62.15 65.55 Q-75.25 87.55 -60.7 99.55 -52.8 105.8 -40.85 104.25 L-36.6 103.5 Q-22.4 98.75 -17.25 85.45 -18.35 113.0 -3.95 122.35 1.25 125.7 8.45 126.7 23.25 125.25 26.25 113.6 27.45 108.55 26.5 101.65 L25.8 97.75 23.65 83.65 M26.5 101.65 Q27.75 107.1 30.05 110.2 36.15 118.4 50.05 111.1 53.9 109.1 56.6 105.75 62.7 98.3 63.1 84.7 63.8 72.0 56.0 63.45 M37.25 8.2 Q48.7 20.5 51.55 38.35 54.4 56.2 40.9 67.9 27.35 79.55 8.25 79.25 -10.8 78.95 -23.2 70.2 -35.75 61.45 -35.75 41.2 -35.75 21.05 -22.5 8.5 -15.9 2.25 -8.2 -0.95 L-5.9 -1.75 Q0.8 -4.0 8.25 -4.0 25.8 -4.15 37.25 8.2 M-18.35 0.4 Q-38.4 -11.9 -44.4 -31.05 -55.35 -43.2 -65.55 -42.2 -68.9 -41.85 -72.3 -40.2 -82.65 -35.05 -83.3 -20.05 -82.6 -4.6 -72.3 4.8 -69.25 7.6 -65.4 9.8 -50.65 8.3 -39.0 16.95 -36.6 18.7 -34.25 21.05 M-3.85 -44.1 Q-18.55 -73.5 -37.9 -70.15 -51.55 -62.75 -48.05 -43.45 -46.95 -37.75 -44.4 -31.05 M-65.4 9.8 Q-89.45 17.6 -87.8 44.9 -83.7 69.55 -62.15 65.55" fill="none" stroke="#000000" stroke-linecap="round" stroke-linejoin="round" stroke-width="2.6"/>
  </g>
</svg>
