<?xml version="1.0" encoding="UTF-8" standalone="no"?>
<svg xmlns:xlink="http://www.w3.org/1999/xlink" height="104.35px" width="138.4px" xmlns="http://www.w3.org/2000/svg">
  <g transform="matrix(1.0, 0.0, 0.0, 1.0, 78.95, 113.45)">
    <path d="M42.65 -70.95 Q42.25 -71.75 41.7 -71.75 41.05 -71.75 40.65 -70.95 40.3 -70.15 40.3 -69.05 40.3 -68.0 40.65 -67.25 41.05 -66.5 41.7 -66.5 42.25 -66.5 42.65 -67.25 43.05 -68.0 43.05 -69.05 43.05 -70.15 42.65 -70.95 M46.2 -71.05 Q47.5 -68.8 47.5 -65.55 47.5 -62.3 46.2 -59.95 44.9 -57.6 43.05 -57.6 41.2 -57.6 39.9 -59.95 38.55 -62.3 38.55 -65.55 38.55 -68.8 39.9 -71.05 41.2 -73.4 43.05 -73.4 44.9 -73.4 46.2 -71.05 M12.9 -65.65 Q12.9 -62.15 11.2 -59.6 9.6 -57.1 7.2 -57.1 4.8 -57.1 3.1 -59.6 1.5 -62.15 1.5 -65.65 1.5 -69.15 3.1 -71.7 4.8 -74.2 7.2 -74.2 9.6 -74.2 11.2 -71.7 12.9 -69.15 12.9 -65.65 M6.7 -71.5 Q6.2 -72.35 5.45 -72.35 4.75 -72.35 4.15 -71.5 3.65 -70.65 3.65 -69.5 3.65 -68.35 4.15 -67.5 4.75 -66.65 5.45 -66.65 6.2 -66.65 6.7 -67.5 7.25 -68.35 7.25 -69.5 7.25 -70.65 6.7 -71.5" fill="#000000" fill-rule="evenodd" stroke="none"/>
    <path d="M42.65 -70.95 Q43.05 -70.15 43.05 -69.05 43.05 -68.0 42.65 -67.25 42.25 -66.5 41.7 -66.5 41.05 -66.5 40.65 -67.25 40.3 -68.0 40.3 -69.05 40.3 -70.15 40.65 -70.95 41.05 -71.75 41.7 -71.75 42.25 -71.75 42.65 -70.95 M6.7 -71.5 Q7.25 -70.65 7.25 -69.5 7.25 -68.35 6.7 -67.5 6.2 -66.65 5.45 -66.65 4.75 -66.65 4.15 -67.5 3.65 -68.35 3.65 -69.5 3.65 -70.65 4.15 -71.5 4.75 -72.35 5.45 -72.35 6.2 -72.35 6.7 -71.5" fill="#ffffff" fill-rule="evenodd" stroke="none"/>
    <path d="M46.2 -71.05 Q47.5 -68.8 47.5 -65.55 47.5 -62.3 46.2 -59.95 44.9 -57.6 43.05 -57.6 41.2 -57.6 39.9 -59.95 38.55 -62.3 38.55 -65.55 38.55 -68.8 39.9 -71.05 41.2 -73.4 43.05 -73.4 44.9 -73.4 46.2 -71.05 M-16.15 -35.45 Q-17.75 -29.75 -19.4 -25.4 -10.6 -26.65 -2.95 -31.95 1.2 -35.85 6.0 -38.7 L8.45 -40.05 Q14.8 -43.4 22.25 -45.1 L23.85 -45.45 24.6 -45.55 Q31.0 -46.6 37.4 -45.5 L39.5 -45.1 45.65 -43.2 Q47.25 -42.1 48.4 -41.0 L49.55 -39.7 Q53.0 -35.25 49.7 -30.15 59.45 -44.2 58.35 -61.65 56.85 -81.65 42.4 -95.5 30.35 -107.0 11.5 -107.4 -6.55 -107.05 -19.8 -98.9 L-23.1 -96.75 Q-33.8 -87.2 -36.45 -72.2 L-36.6 -71.25 -37.2 -66.3 M12.9 -65.65 Q12.9 -62.15 11.2 -59.6 9.6 -57.1 7.2 -57.1 4.8 -57.1 3.1 -59.6 1.5 -62.15 1.5 -65.65 1.5 -69.15 3.1 -71.7 4.8 -74.2 7.2 -74.2 9.6 -74.2 11.2 -71.7 12.9 -69.15 12.9 -65.65 M-19.4 -25.4 L-20.6 -22.35 -21.25 -21.0 -21.8 -19.85 -22.55 -18.25 Q-23.75 -16.15 -24.9 -14.65 L-18.7 -13.7 -16.95 -13.45 -15.85 -13.35 Q0.05 -11.7 19.25 -13.5 L21.45 -13.7 26.5 -14.3 Q30.5 -15.4 34.0 -17.0 L36.2 -18.1 38.35 -19.3 38.9 -19.65 39.3 -19.9 Q43.0 -22.35 46.1 -25.5 L47.3 -26.9 49.4 -29.65 49.7 -30.15 M34.0 -17.0 Q35.8 -14.0 37.7 -12.95 48.5 -9.6 55.35 -13.15 56.85 -13.85 57.6 -14.7 60.2 -17.6 53.3 -21.0 47.85 -23.05 46.1 -25.5 M-36.45 -72.2 Q-45.6 -74.6 -47.85 -80.05 -31.1 -84.7 -33.05 -95.8 -34.95 -106.9 -29.65 -110.25 L-31.25 -110.25 Q-47.4 -109.95 -52.95 -98.4 -55.45 -104.65 -59.2 -107.4 -67.05 -113.05 -76.9 -112.35 L-77.95 -112.3 Q-73.2 -107.45 -74.1 -102.55 -74.85 -98.1 -73.0 -91.65 -70.3 -85.35 -62.75 -82.45 L-60.4 -81.65 -60.65 -80.9 Q-63.25 -71.5 -62.55 -60.7 -61.45 -49.7 -56.75 -40.8 -48.9 -30.25 -36.25 -26.6 L-34.6 -30.15 Q-33.25 -33.05 -31.65 -35.2 L-30.1 -37.2 M-36.25 -26.6 L-36.7 -25.6 Q-37.3 -24.1 -39.2 -22.8 L-40.0 -22.25 Q-42.15 -21.0 -45.5 -19.85 -48.6 -18.45 -49.9 -17.15 -51.4 -15.75 -50.9 -14.45 -50.4 -13.15 -47.75 -11.9 -40.15 -8.4 -28.2 -11.8 -26.55 -12.65 -24.9 -14.65 M-56.75 -40.8 Q-54.35 -36.4 -51.1 -32.5 -47.0 -27.45 -41.7 -23.45 L-40.0 -22.25" fill="none" stroke="#000000" stroke-linecap="round" stroke-linejoin="round" stroke-width="2.0"/>
  </g>
</svg>
