<?xml version="1.0" encoding="UTF-8" standalone="no"?>
<svg xmlns:xlink="http://www.w3.org/1999/xlink" height="156.8px" width="144.25px" xmlns="http://www.w3.org/2000/svg">
  <g transform="matrix(1.0, 0.0, 0.0, 1.0, 77.25, 71.0)">
    <path d="M32.55 8.95 L35.25 0.15 49.25 18.3 43.55 20.2 37.55 10.75 35.7 20.75 33.4 21.0 28.9 21.2 32.55 8.95 M31.9 49.8 Q37.8 49.1 42.85 47.6 46.1 46.65 49.05 45.25 46.15 55.45 39.7 61.3 36.15 64.5 31.6 66.5 L28.65 67.6 24.15 68.8 24.1 68.8 Q13.35 70.2 2.1 68.1 -1.5 67.45 -4.6 66.2 L-5.1 66.05 -6.5 65.5 -8.6 64.45 Q-21.65 57.75 -24.25 41.9 L-9.25 46.95 -6.2 48.05 -3.85 55.3 -2.9 58.15 -7.9 57.8 -9.25 46.95 -7.9 57.8 -2.9 58.15 -2.8 58.4 -2.75 58.4 -2.5 58.1 3.9 49.45 27.4 50.25 31.9 49.8 M1.45 14.1 L6.9 22.85 0.8 24.2 -2.5 24.95 -8.0 13.6 -12.85 24.75 -23.6 24.6 -8.05 -1.4 1.45 14.1 M31.0 39.45 L16.3 40.9 22.75 26.55 31.0 39.45" fill="#000000" fill-rule="evenodd" stroke="none"/>
    <path d="M-25.95 82.8 L-26.25 82.8 -29.2 82.35 -30.7 82.15 Q-42.1 80.55 -46.75 76.45 L-46.85 76.4 -47.05 76.35 -47.1 76.35 -47.6 76.05 Q-60.1 69.95 -64.85 63.55 L-65.8 61.1 Q-79.7 35.5 -75.15 13.6 -67.6 -17.5 -42.95 -31.6 -35.95 -35.05 -26.2 -33.7 L-23.7 -34.0 -23.2 -34.0 -20.3 -34.0 Q-16.45 -40.05 -20.35 -49.8 L-32.35 -61.95 Q-32.65 -64.6 -30.8 -66.45 -28.9 -68.4 -25.0 -69.4 -19.3 -70.9 -15.05 -68.75 L-14.15 -68.1 Q-8.2 -63.6 -3.45 -57.8 L0.0 -53.0 6.4 -42.5 Q11.0 -34.4 13.05 -28.55 L13.65 -27.35 13.75 -27.35 Q24.35 -21.8 30.3 -4.8 31.75 1.85 32.55 8.95 L35.25 0.15 49.25 18.3 43.55 20.2 37.55 10.75 35.7 20.75 33.4 21.0 Q33.75 31.35 32.75 42.55 L32.45 45.2 31.9 49.8 Q37.8 49.1 42.85 47.6 46.1 46.65 49.05 45.25 46.15 55.45 39.7 61.3 36.15 64.5 31.6 66.5 L28.65 67.6 24.15 68.8 24.1 68.8 Q13.35 70.2 2.1 68.1 -1.5 67.45 -4.6 66.2 L-5.1 66.05 -6.5 65.5 Q-7.85 69.95 -9.4 73.45 M13.65 -27.35 L13.05 -27.6 Q12.45 -27.85 11.8 -28.2 L3.35 -28.9 Q1.05 -28.75 -0.55 -28.2 L-0.6 -28.2 -2.2 -27.45 Q2.55 -10.3 1.45 14.1 L6.9 22.85 0.8 24.2 Q0.2 31.05 -0.8 38.4 -2.2 47.75 -3.85 55.3 L-2.9 58.15 -2.65 58.15 -2.5 58.1 3.9 49.45 27.4 50.25 31.9 49.8 M11.8 -28.2 L13.05 -28.55 M13.35 -28.6 L15.75 -29.0 16.3 -29.1 16.55 -29.15 16.65 -29.2 Q26.95 -30.6 36.25 -25.65 L38.1 -24.5 42.25 -21.4 Q49.95 -15.05 55.3 -8.05 66.15 6.85 66.0 25.55 62.25 61.5 47.7 74.95 L47.65 75.05 46.15 76.4 46.0 76.5 45.7 76.6 41.4 78.3 Q32.8 81.4 25.9 81.05 L25.15 81.1 21.3 82.25 Q4.15 87.2 -9.2 82.5 L-9.4 82.55 -9.5 82.6 -9.85 82.75 -10.15 82.85 -12.5 83.4 -13.95 83.6 -25.3 83.0 M38.1 -24.5 L42.4 -20.8 42.8 -20.35 43.65 -19.45 43.9 -19.2 44.25 -18.9 Q50.0 -12.9 51.9 -7.45 62.55 22.15 52.8 53.05 M32.55 8.95 L28.9 21.2 33.4 21.0 M31.0 39.45 L16.3 40.9 22.75 26.55 31.0 39.45 M-20.3 -34.0 L-21.45 -34.0 -20.8 -32.6 Q-20.6 -32.25 -21.2 -30.4 L-21.35 -30.1 -21.15 -30.25 Q-18.65 -31.65 -14.5 -29.55 L-12.75 -28.65 -12.2 -28.4 -12.05 -28.35 -12.0 -28.35 -11.25 -29.2 -9.4 -29.55 -5.4 -29.3 Q-4.2 -28.95 -3.0 -28.05 L-2.45 -27.6 -2.35 -27.5 -2.2 -27.45 M-30.0 73.45 Q-34.85 52.15 -31.25 25.75 -26.35 -10.5 -12.5 -27.8 L-12.1 -28.05 -12.0 -28.35 M-65.8 61.1 Q-73.35 41.6 -70.25 21.95 -64.85 -1.25 -50.8 -17.55 -38.45 -31.6 -26.2 -33.7 M-6.5 65.5 L-8.6 64.45 Q-21.65 57.75 -24.25 41.9 L-9.25 46.95 -6.2 48.05 -3.85 55.3 M1.45 14.1 L-8.05 -1.4 -23.6 24.6 -12.85 24.75 -8.0 13.6 -2.5 24.95 0.8 24.2 M-21.35 -30.1 Q-40.6 -14.95 -48.5 7.55 -55.4 30.2 -53.5 51.6 L-53.45 52.25 -53.1 55.6 Q-52.1 63.1 -50.05 70.6 M-9.25 46.95 L-7.9 57.8 -2.9 58.15 -2.8 58.4 -2.75 58.4 -2.5 58.1" fill="none" stroke="#000000" stroke-linecap="round" stroke-linejoin="round" stroke-width="2.0"/>
  </g>
</svg>
