<?xml version="1.0" encoding="UTF-8" standalone="no"?>
<svg xmlns:xlink="http://www.w3.org/1999/xlink" height="99.4px" width="156.65px" xmlns="http://www.w3.org/2000/svg">
  <g transform="matrix(1.0, 0.0, 0.0, 1.0, 84.6, 78.65)">
    <path d="M40.0 -67.7 Q42.05 -66.9 44.1 -65.55 46.85 -63.3 48.45 -60.9 41.0 -60.75 40.0 -67.7 M-52.8 -55.45 Q-51.4 -56.7 -49.9 -56.9 -48.4 -57.3 -47.6 -56.6 -46.85 -55.95 -47.2 -54.45 -47.6 -53.25 -48.95 -52.0 L-50.65 -50.65 -51.8 -50.2 Q-53.3 -49.95 -54.05 -50.65 -54.9 -51.35 -54.5 -52.75 -54.2 -54.05 -52.8 -55.45" fill="#000000" fill-rule="evenodd" stroke="none"/>
    <path d="M40.0 -67.7 Q42.05 -66.9 44.1 -65.55 46.85 -63.3 48.45 -60.9 52.25 -55.0 49.65 -47.65 54.65 -47.1 59.15 -43.45 61.55 -41.5 63.75 -38.75 67.95 -29.85 65.9 -20.0 64.35 -16.25 61.4 -15.0 L58.8 -11.05 Q63.3 -5.95 69.45 -2.65 72.65 0.95 69.45 3.55 62.1 9.95 47.95 10.75 L47.1 10.8 Q22.3 11.1 2.05 16.4 -24.35 23.15 -33.0 16.35 -47.8 6.85 -52.95 -0.3 L-62.2 -5.1 -63.4 -5.4 -69.0 -6.9 Q-84.9 -13.1 -83.5 -21.8 -82.55 -27.8 -73.7 -35.2 -69.75 -38.4 -64.25 -42.0 -62.9 -51.75 -53.9 -57.75 L-52.95 -58.4 Q-46.15 -61.45 -39.4 -60.5 -15.5 -76.4 -3.75 -77.55 7.9 -78.65 25.3 -67.2 30.1 -69.35 34.65 -68.95 37.35 -68.85 40.0 -67.7 41.0 -60.75 48.45 -60.9 M25.3 -67.2 L37.0 -58.7 38.9 -57.25 49.65 -47.65 53.65 -44.15 M59.15 -43.45 Q53.7 -38.25 54.75 -28.0 55.5 -21.1 61.4 -15.0 M58.8 -11.05 L58.55 -11.35 Q56.55 -13.6 53.3 -14.15 L48.2 -14.35 10.0 -14.35 Q-5.75 -14.1 -21.55 -10.5 L-25.95 -9.5 Q-39.4 -6.15 -52.95 -0.3 M14.95 -11.05 L25.3 7.45 M-64.25 -42.0 L-64.35 -40.85 Q-64.7 -31.85 -54.25 -33.7 -48.75 -34.95 -44.35 -37.3 L-42.5 -38.4 Q-38.2 -41.25 -35.2 -45.3 -28.65 -56.05 -35.2 -59.6 L-39.4 -60.5 M-63.4 -5.4 Q-57.7 -11.05 -57.25 -20.55 -57.0 -35.25 -73.7 -35.2 M-1.15 -75.4 Q9.9 -57.25 11.95 -37.55" fill="none" stroke="#000000" stroke-linecap="round" stroke-linejoin="round" stroke-width="2.0"/>
  </g>
</svg>
