<?xml version="1.0" encoding="UTF-8" standalone="no"?>
<svg xmlns:xlink="http://www.w3.org/1999/xlink" height="141.6px" width="141.5px" xmlns="http://www.w3.org/2000/svg">
  <g transform="matrix(1.0, 0.0, 0.0, 1.0, 79.1, 36.15)">
    <path d="M27.6 90.9 L27.85 100.45 Q31.6 99.15 35.3 97.2 L35.3 81.85 53.35 58.25 Q62.65 38.8 61.2 18.55 60.8 13.4 59.9 8.25 52.95 -26.05 7.75 -33.4 -90.5 -46.8 -76.3 43.3 -72.95 70.65 -21.95 85.5 L-21.95 97.2 -12.8 100.9 -12.8 90.9 M26.45 57.75 Q19.95 50.65 26.4 46.15 L41.6 34.65 Q42.5 45.0 38.95 53.85 33.9 63.55 26.45 57.75 M23.55 70.4 L8.15 70.65 M22.0 42.45 L45.75 21.25 M0.5 95.55 L0.5 104.15 Q8.5 104.9 15.95 103.75 L15.95 95.55 M15.95 103.75 Q21.75 102.85 27.85 100.45 M-34.2 18.6 Q-15.2 36.5 -3.6 45.35 M-14.7 62.9 Q-28.4 62.0 -30.8 50.3 -33.1 38.55 -30.3 34.8 L-6.6 50.55 Q-4.4 60.3 -14.7 62.9 M-12.8 100.9 Q-5.95 103.35 0.5 104.15" fill="none" stroke="#000000" stroke-linecap="round" stroke-linejoin="round" stroke-width="2.0"/>
  </g>
</svg>
