<?xml version="1.0" encoding="UTF-8" standalone="no"?>
<svg xmlns:xlink="http://www.w3.org/1999/xlink" height="93.85px" width="125.15px" xmlns="http://www.w3.org/2000/svg">
  <g transform="matrix(1.0, 0.0, 0.0, 1.0, 91.85, 72.0)">
    <path d="M22.45 -41.1 Q22.6 -33.85 13.4 -29.4 -8.8 -19.45 -40.15 -13.4 -41.0 -14.25 -42.9 -15.4 L-42.25 -16.75 -42.1 -17.25 -41.7 -19.25 Q-13.7 -24.7 13.0 -35.3 16.2 -36.85 18.85 -38.5 L22.45 -41.1" fill="#272727" fill-rule="evenodd" stroke="none"/>
    <path d="M-40.15 -13.4 L-39.5 -12.5 Q-38.7 -11.4 -38.7 -10.6 L-38.6 -9.35 -38.6 -9.3 Q-38.7 -7.1 -40.5 -5.75 -41.95 -4.8 -44.2 -4.4 L-50.1 -3.75 -49.45 -0.7 Q-47.8 7.35 -49.1 14.75 L-55.65 7.55 Q-56.7 14.5 -61.55 19.05 -59.7 10.7 -59.65 2.15 -59.65 -1.9 -60.05 -6.0 L-61.65 -7.05 -61.9 -6.75 -61.95 -6.5 Q-62.05 -6.4 -62.2 -6.4 -61.65 -2.15 -62.2 1.95 -63.65 12.25 -71.2 20.85 L-72.2 12.05 -81.8 16.4 -75.45 3.95 -79.45 4.9 Q-80.9 5.15 -83.0 4.05 -83.95 3.6 -84.25 2.3 L-84.25 -0.15 -83.9 -3.65 -84.4 -4.15 Q-86.15 -6.0 -86.55 -7.95 L-86.6 -9.5 Q-86.6 -10.65 -85.7 -11.7 -93.0 -14.05 -90.0 -24.7 -77.5 -50.05 -39.75 -62.25 16.2 -77.05 29.4 -66.75 L30.8 -65.4 Q33.25 -61.85 31.65 -54.7 29.7 -46.85 22.45 -41.1 22.6 -33.85 13.4 -29.4 -8.8 -19.45 -40.15 -13.4 -41.0 -14.25 -42.9 -15.4 L-42.25 -16.75 -42.1 -17.25 -41.7 -19.25 -41.55 -20.55 Q-41.35 -21.4 -41.55 -22.1 -41.75 -23.1 -42.55 -23.65 L-43.15 -24.05 -43.25 -24.2 -43.35 -24.2 -50.6 -24.0 -51.45 -23.65 -53.0 -23.1 Q-57.0 -21.1 -59.65 -18.4 L-60.15 -17.9 -61.45 -16.2 -63.0 -13.5 Q-61.8 -11.4 -61.8 -10.9 L-61.55 -9.55 Q-61.45 -8.15 -61.65 -7.05 L-61.8 -7.05 -62.2 -6.4 -62.35 -6.2 Q-64.05 -5.2 -64.75 -6.05 L-64.85 -6.0 -64.95 -6.0 Q-65.3 -4.95 -67.15 -2.8 L-68.55 -1.2 -68.6 -1.15 -69.45 -0.15 Q-72.3 2.85 -75.0 3.7 -75.3 3.75 -75.45 3.95 M-41.7 -19.25 Q-13.7 -24.7 13.0 -35.3 16.2 -36.85 18.85 -38.5 L22.45 -41.1 M-85.7 -11.7 Q-84.45 -13.2 -81.35 -14.05 L-77.35 -14.9 -71.5 -14.6 Q-68.95 -14.05 -67.15 -13.2 L-66.45 -13.05 -66.35 -13.05 -66.3 -13.15 Q-65.9 -13.75 -65.4 -13.75 -64.85 -14.25 -64.15 -14.2 L-63.7 -14.05 -63.65 -13.95 -63.5 -13.95 -63.35 -13.9 -63.0 -13.5 -63.5 -13.95 M-66.45 -13.05 Q-67.0 -12.35 -67.0 -11.3 L-67.15 -11.15 -66.8 -9.15 -66.35 -8.25 -66.35 -8.15 Q-66.1 -7.45 -64.85 -6.0 -65.2 -6.2 -65.05 -6.0 L-64.95 -6.0 M-50.1 -3.75 L-56.0 -4.5 -56.85 -4.8 Q-57.45 -4.85 -58.15 -5.2 L-60.05 -6.0" fill="none" stroke="#000000" stroke-linecap="round" stroke-linejoin="round" stroke-width="2.0"/>
  </g>
</svg>
