<?xml version="1.0" encoding="UTF-8" standalone="no"?>
<svg xmlns:xlink="http://www.w3.org/1999/xlink" height="76.6px" width="135.7px" xmlns="http://www.w3.org/2000/svg">
  <g transform="matrix(1.0, 0.0, 0.0, 1.0, 77.35, 36.9)">
    <path d="M51.45 -1.75 L56.3 8.4 Q57.3 13.7 57.35 17.9 L57.35 18.45 Q56.3 17.9 54.9 18.15 L52.05 14.6 48.65 18.55 Q37.9 18.35 30.1 23.2 L28.0 24.75 Q22.35 28.6 18.4 34.7 L17.3 36.0 Q15.5 38.55 14.1 38.7 13.65 38.35 12.65 37.95 L10.6 36.0 Q-12.05 15.7 -35.75 12.9 L-45.6 12.45 Q-51.45 12.7 -57.65 14.1 -58.25 17.05 -59.15 18.55 -71.35 23.0 -75.1 27.4 -77.3 18.0 -75.55 8.6 L-60.25 2.6 Q-55.85 -1.9 -45.9 -9.9 L-37.45 -16.55 Q-20.4 -29.5 9.3 -35.8 L9.45 -35.9 Q18.35 -32.05 26.65 -26.8 L29.05 -25.1 Q33.85 -21.4 38.45 -17.1 43.2 -12.55 47.75 -7.3 L51.4 -2.0 M3.3 -26.65 L4.65 -17.1 Q6.8 1.55 6.1 19.05 L-8.2 11.0 Q-7.25 -0.15 -8.55 -17.1 L-9.05 -22.5 2.0 -26.1 3.3 -26.65 M28.35 -18.4 L20.0 -23.95 20.25 -23.15 21.3 -17.1 Q24.2 1.6 23.7 18.55 L27.75 16.5 30.1 14.95 Q30.65 0.65 29.3 -12.2 L28.65 -17.1 28.35 -18.4 M33.0 -15.55 L37.95 -10.45 Q39.35 2.8 38.85 12.45 L34.5 13.2 Q34.55 1.8 33.05 -14.6 L33.0 -15.55 M41.85 -7.25 L45.25 -3.4 Q45.75 4.55 44.8 11.5 L42.3 12.15 Q43.2 3.6 41.85 -6.65 L41.85 -7.25 M-14.9 -20.5 L-14.65 -17.1 Q-13.55 -1.75 -14.65 9.2 L-25.6 5.95 -25.9 -16.25 -14.9 -20.5 M-31.35 -13.75 L-31.25 5.3 -39.6 4.2 -39.95 -8.5 -31.35 -13.75" fill="none" stroke="#000000" stroke-linecap="round" stroke-linejoin="round" stroke-width="2.0"/>
  </g>
</svg>
