<?xml version="1.0" encoding="UTF-8" standalone="no"?>
<svg xmlns:xlink="http://www.w3.org/1999/xlink" height="64.6px" width="129.75px" xmlns="http://www.w3.org/2000/svg">
  <g transform="matrix(1.0, 0.0, 0.0, 1.0, 73.15, 32.7)">
    <path d="M5.7 -19.05 L3.05 -13.7 2.25 -12.1 2.3 -12.05 3.4 -10.3 6.25 -5.9 13.8 5.7 20.15 -6.65 21.9 -10.05 22.85 -11.9 21.6 -14.25 18.9 -19.25 12.05 -31.95 5.7 -19.05 Q-29.85 -7.0 -68.55 -11.3 L-69.75 -9.75 Q-70.35 -8.45 -70.25 -7.05 L-66.9 -6.8 -66.75 -6.8 Q-27.0 -3.8 3.05 -13.7 M21.9 -10.05 L24.35 -6.15 Q42.9 21.95 55.25 20.05 L55.7 21.4 Q56.15 23.65 55.15 24.95 38.4 23.2 24.35 0.65 22.35 -2.5 20.4 -6.15 L20.15 -6.65 M18.9 -19.25 Q40.7 -12.6 50.0 -13.0 L51.1 -11.8 Q52.7 -9.55 53.05 -7.4 44.55 -7.05 21.6 -14.25 M3.4 -10.3 Q-4.4 9.5 -23.9 19.0 -52.2 30.05 -72.1 25.45 L-72.35 26.9 Q-72.5 28.4 -71.8 30.15 -51.4 33.7 -26.05 24.55 L-23.05 23.35 Q-3.0 14.8 6.25 -5.9" fill="none" stroke="#000000" stroke-linecap="round" stroke-linejoin="round" stroke-width="1.5"/>
  </g>
</svg>
