<?xml version="1.0" encoding="UTF-8" standalone="no"?>
<svg xmlns:xlink="http://www.w3.org/1999/xlink" height="74.7px" width="177.9px" xmlns="http://www.w3.org/2000/svg">
  <g transform="matrix(1.0, 0.0, 0.0, 1.0, 96.95, 41.15)">
    <path d="M64.3 14.25 Q60.3 16.45 56.4 9.9 55.9 7.6 54.45 4.1 52.9 0.45 48.5 -2.75 46.75 -5.5 44.65 -11.05 43.8 -13.4 41.2 -14.1 38.2 -14.6 36.8 -17.15 36.0 -19.15 35.25 -21.85 34.4 -24.55 31.45 -25.95 28.65 -27.2 28.85 -31.7 27.2 -36.85 30.9 -36.5 34.4 -36.2 35.2 -33.15 L36.9 -34.45 Q42.85 -37.2 48.45 -36.55 57.15 -35.75 65.0 -27.5 77.95 -11.3 68.85 1.55 L66.9 3.8 Q69.05 5.55 68.1 7.9 70.25 16.55 79.95 20.1 L79.4 20.75 79.35 20.85 Q76.65 23.7 72.75 23.75 L74.2 26.15 64.7 26.5 64.4 18.35 Q65.1 17.2 64.3 14.25 L62.75 10.05 61.75 7.9 61.7 7.9 58.1 0.7 55.8 -3.7 52.45 -9.25 49.1 -14.4 43.5 -21.65 40.05 -25.65 M35.2 -33.15 L33.7 -31.6 39.8 -25.8 M61.75 7.9 L66.05 4.75 63.7 -0.65 Q57.05 -14.95 47.75 -24.85 42.8 -30.4 36.9 -34.45 M66.9 3.8 L66.7 4.2 66.05 4.75 M62.75 10.05 Q65.3 11.95 67.15 9.4 L67.65 8.6 68.1 7.9 M67.15 9.4 Q68.6 16.2 72.75 23.75 M-43.5 -35.3 Q-55.65 -43.9 -69.5 -37.25 -78.3 -32.95 -82.3 -26.6 -85.0 -22.3 -85.5 -16.95 -86.95 -3.8 -82.3 0.35 L-80.9 1.65 -79.15 1.75 -75.55 1.7 -75.25 1.45 Q-73.2 0.05 -70.85 -0.5 -69.25 -1.0 -67.95 -0.05 L-67.7 -0.15 -67.15 -0.35 -58.0 -5.6 -55.85 -7.3 -51.65 -11.1 Q-41.45 -22.4 -41.3 -30.45 -41.3 -32.35 -41.85 -34.1 L-43.5 -35.3 Q-43.25 -38.15 -38.65 -38.95 L-36.1 -38.85 Q-36.45 -37.35 -35.85 -36.05 L-35.85 -36.0 -35.8 -35.9 -35.8 -35.8 -35.75 -35.7 -35.6 -35.5 -35.55 -35.45 -35.5 -35.3 -35.3 -35.0 -35.2 -34.9 -35.2 -34.85 -33.95 -33.65 -33.85 -33.6 -33.75 -33.55 -33.65 -33.45 -33.5 -33.35 -33.3 -33.2 -33.1 -33.1 -32.95 -33.05 -32.85 -32.9 -32.55 -32.8 -32.2 -32.6 -32.1 -32.55 -32.0 -32.5 -31.8 -32.4 Q-26.9 -32.35 -25.35 -30.05 L-24.95 -29.15 Q-30.2 -26.15 -28.25 -22.2 -25.3 -19.05 -24.7 -16.05 L-24.6 -15.35 -24.6 -15.25 -24.95 -15.25 Q-33.75 -16.15 -33.45 -8.75 -32.8 -6.9 -32.3 -4.85 -31.75 -2.5 -32.8 -0.35 -42.0 -1.0 -43.05 3.4 -44.1 7.7 -46.75 9.8 L-49.4 12.4 Q-57.7 8.5 -62.2 12.7 -65.35 15.5 -68.4 17.6 -68.2 23.45 -69.05 29.05 -77.95 33.3 -81.85 29.35 L-78.35 20.2 Q-82.15 26.7 -87.45 32.55 -92.6 27.1 -95.95 20.45 -92.15 18.85 -89.05 16.3 -87.05 14.65 -85.35 12.5 L-84.15 11.1 Q-86.95 10.75 -89.9 8.8 -87.35 5.8 -81.55 3.45 -82.55 1.85 -82.3 0.35 M-41.85 -34.1 Q-39.6 -35.0 -37.5 -31.2 L-36.85 -30.0 -36.2 -28.05 -36.0 -27.15 Q-35.3 -22.95 -37.15 -18.2 -39.1 -13.45 -43.55 -8.1 -48.55 -3.25 -53.3 0.3 L-54.25 0.9 Q-60.1 5.0 -65.6 6.8 -66.15 8.7 -68.2 9.5 L-69.05 9.85 Q-68.5 13.8 -68.4 17.6 M-67.95 -0.05 L-66.85 1.1 Q-65.15 3.4 -65.4 5.95 L-65.6 6.8 M-75.55 1.7 Q-76.55 2.7 -77.4 5.15 -77.55 6.4 -77.1 7.45 -76.75 8.45 -76.0 9.25 -74.95 10.3 -73.9 10.75 L-72.45 10.8 -71.65 10.65 -71.4 10.6 -69.8 10.2 -69.05 9.85 M-81.55 3.45 Q-80.75 4.8 -78.95 6.15 L-77.4 5.15 M-78.95 6.15 L-80.55 7.45 -80.65 7.5 -80.65 7.6 -82.35 9.2 -84.15 11.1 M-78.35 20.2 L-76.55 16.8 -73.9 10.75" fill="none" stroke="#000000" stroke-linecap="round" stroke-linejoin="round" stroke-width="2.0"/>
  </g>
</svg>
