<?xml version="1.0" encoding="UTF-8" standalone="no"?>
<svg xmlns:xlink="http://www.w3.org/1999/xlink" height="71.1px" width="247.6px" xmlns="http://www.w3.org/2000/svg">
  <g transform="matrix(1.0, 0.0, 0.0, 1.0, 132.9, 71.35)">
    <path d="M46.8 -40.9 Q48.0 -39.55 35.9 -32.8 L31.1 -30.25 Q22.25 -25.55 16.75 -24.0 L8.4 -21.7 -0.3 -19.8 Q-25.9 -15.05 -48.6 -17.5 -54.25 -18.2 -60.65 -20.25 L-63.9 -21.35 -66.45 -22.35 -69.95 -22.5 -71.15 -22.55 -72.7 -22.6 -92.2 -22.0 Q-117.55 -20.1 -131.9 -14.55 L-122.2 -15.3 -120.8 -15.45 -119.2 -15.5 -117.6 -15.55 -107.85 -15.9 -66.5 -14.35 -45.55 -12.4 Q-2.65 -7.85 29.35 -19.55 L35.3 -21.95 36.7 -22.55 Q43.45 -25.45 62.75 -31.95 82.05 -38.5 94.7 -39.2 107.35 -39.9 108.85 -39.55 L108.9 -39.55 109.25 -39.55 113.1 -39.85 Q114.35 -40.2 113.05 -40.55 102.1 -46.6 46.8 -40.9 L44.05 -47.15 Q40.35 -46.9 31.4 -42.55 22.4 -38.2 3.4 -32.95 -16.15 -29.95 -30.85 -29.1 -55.8 -27.7 -66.25 -32.95 L-66.4 -32.05 Q-66.9 -29.05 -66.45 -22.35 M-66.25 -32.95 Q-62.3 -52.35 -49.8 -59.1 -42.35 -62.15 -35.3 -64.35 L-33.55 -64.9 Q-2.45 -74.25 23.9 -67.5 36.35 -63.55 44.05 -47.15 M35.3 -21.95 Q52.8 -17.6 73.3 -20.65 88.4 -24.4 97.9 -28.45 107.4 -32.55 113.3 -39.85 L113.1 -39.85 M-131.9 -14.55 Q-122.1 -0.65 -95.4 -1.25 -87.05 -1.5 -81.4 -5.0 L-66.5 -14.35 M-122.2 -15.3 L-119.2 -15.5" fill="none" stroke="#000000" stroke-linecap="round" stroke-linejoin="round" stroke-width="2.0"/>
  </g>
</svg>
