<?xml version="1.0" encoding="UTF-8" standalone="no"?>
<svg xmlns:xlink="http://www.w3.org/1999/xlink" height="124.25px" width="153.0px" xmlns="http://www.w3.org/2000/svg">
  <g transform="matrix(1.0, 0.0, 0.0, 1.0, 63.5, 87.05)">
    <path d="M38.05 -57.5 Q40.85 -69.6 44.65 -78.95 48.45 -88.4 52.35 -85.25 56.15 -82.15 57.75 -71.75 59.65 -59.3 62.75 -53.5 71.0 -50.7 73.25 -41.6 76.15 -29.7 73.0 -17.2 72.5 -10.45 81.45 -13.6 L82.9 -13.75 Q86.65 -14.1 88.25 -9.85 L88.5 -8.9 88.35 -6.2 87.1 -0.8 Q81.15 16.0 71.3 29.4 66.0 38.5 58.0 35.45 41.1 26.15 33.7 13.5 20.1 2.95 15.7 -7.05 L15.3 -8.2 2.0 -0.45 Q-10.05 5.9 -21.35 2.1 -31.05 -2.4 -42.4 2.35 -58.1 10.15 -62.5 21.4 -61.4 3.5 -40.9 -10.4 L-37.45 -12.65 Q-53.2 -13.8 -61.4 -23.65 L-61.25 -23.55 Q-38.55 -20.35 -16.8 -30.6 -4.25 -36.4 -0.8 -33.75 7.55 -28.7 11.5 -27.55 L12.9 -27.2 12.5 -39.75 Q12.45 -56.9 15.7 -70.9 L15.7 -71.0 Q15.75 -82.45 22.0 -78.8 30.45 -72.8 37.1 -61.85 L38.05 -57.5 38.55 -54.05 38.85 -49.25 38.65 -44.7 M12.9 -27.2 Q13.65 -14.6 15.3 -8.2 M-16.25 -14.25 L-20.8 -15.4 Q-29.7 -17.0 -37.45 -12.65" fill="none" stroke="#000000" stroke-linecap="round" stroke-linejoin="round" stroke-width="2.0"/>
    <path d="M57.65 -29.3 Q64.4 -26.9 65.75 -22.1 62.7 -21.1 54.35 -23.4 49.95 -27.55 44.8 -28.35 52.8 -30.1 57.65 -29.3 M67.4 -14.6 Q62.6 -7.4 51.25 -8.7 43.25 -11.95 37.55 -10.95 45.1 -15.45 53.15 -14.1 63.0 -12.35 67.4 -14.6 M82.9 -13.75 Q80.05 -10.95 82.6 -7.85 86.35 -5.3 88.5 -8.9" fill="none" stroke="#000000" stroke-linecap="round" stroke-linejoin="round" stroke-width="1.4000000000000001"/>
  </g>
</svg>
