<?xml version="1.0" encoding="UTF-8" standalone="no"?>
<svg xmlns:xlink="http://www.w3.org/1999/xlink" height="51.25px" width="130.75px" xmlns="http://www.w3.org/2000/svg">
  <g transform="matrix(1.0, 0.0, 0.0, 1.0, 73.15, 19.7)">
    <path d="M7.2 -11.1 L5.5 -7.2 Q2.65 -1.1 -2.65 2.05 -13.85 7.4 -21.75 5.45 L-22.95 5.15 -25.05 4.4 Q-27.1 3.7 -30.15 1.85 -33.3 -0.1 -34.6 -1.6 L-37.8 -5.15 -37.9 -7.45 -36.0 -8.25 Q-23.6 -13.6 -10.25 -14.7 -0.8 -15.75 7.3 -14.3 7.85 -13.55 7.2 -11.1 M19.7 -14.5 L37.05 -9.55 Q46.05 -7.05 50.7 -3.0 L51.85 -1.6 52.0 -1.2 Q52.65 0.4 52.1 2.45 L50.15 5.0 47.8 7.35 Q45.3 9.45 42.55 10.5 34.0 11.75 28.95 6.5 L26.8 3.25 Q21.35 -5.3 18.05 -13.15 18.65 -13.95 19.7 -14.5 M-39.0 4.1 L-34.6 7.7 Q-29.35 11.85 -18.65 12.8 -6.3 10.85 6.85 4.1 13.95 2.4 20.1 5.65 30.85 16.2 41.05 15.65 50.4 14.55 53.25 11.35 L54.75 9.55 Q58.5 3.2 54.75 -3.55 L52.95 -4.9 Q42.7 -12.15 30.95 -15.2 13.6 -19.0 -5.85 -18.7 -29.7 -15.85 -43.45 -8.0 L-44.5 -6.8 -44.45 -6.8 Q-43.3 -3.45 -38.3 1.45 L-38.3 1.55 -37.8 2.0 -38.2 3.55 -39.0 4.1 -43.25 7.95 -44.3 8.05 -44.65 7.75 -44.9 7.6 Q-64.3 22.75 -71.55 30.55 -73.05 29.3 -70.65 19.75 -66.8 12.75 -59.8 6.7 -55.65 3.1 -50.35 -0.25 L-50.6 -1.35 Q-49.85 -2.25 -48.55 -2.95 L-48.05 -3.25 -47.9 -3.3 -47.85 -3.4 -48.1 -4.05 -46.8 -5.75 Q-46.55 -6.2 -45.9 -6.35 L-45.8 -6.35 -45.6 -6.45 -44.65 -6.75 -44.5 -6.8 M-50.35 -0.25 Q-49.4 3.6 -45.95 6.65 L-45.95 6.7 -44.9 7.6" fill="none" stroke="#000000" stroke-linecap="round" stroke-linejoin="round" stroke-width="2.0"/>
    <path d="M9.95 -3.85 L13.85 -14.85 17.4 -3.85 Q13.0 -4.8 9.95 -3.85" fill="none" stroke="#000000" stroke-linecap="round" stroke-linejoin="round" stroke-width="1.4000000000000001"/>
  </g>
</svg>
