<?xml version="1.0" encoding="UTF-8" standalone="no"?>
<svg xmlns:xlink="http://www.w3.org/1999/xlink" height="166.95px" width="119.0px" xmlns="http://www.w3.org/2000/svg">
  <g transform="matrix(1.0, 0.0, 0.0, 1.0, 29.1, 74.85)">
    <path d="M27.65 -56.05 L28.25 -55.45 Q33.1 -50.3 44.2 -49.9 38.85 -52.45 35.25 -57.0 31.65 -61.45 26.65 -64.4 21.65 -67.3 15.8 -69.75 9.2 -72.3 3.25 -73.35 L-1.9 -73.85 Q-9.95 -74.15 -16.4 -69.35 -22.9 -64.5 -24.15 -59.65 -25.55 -54.85 -23.3 -49.5 L-20.0 -47.1 Q-5.8 -36.7 25.25 -22.7 L26.5 -22.25 28.1 -21.95 25.75 -23.85 Q14.75 -32.45 8.6 -35.05 M-23.3 -49.5 Q-26.0 -49.85 -28.1 -45.6 -12.7 -31.3 22.35 -16.65 37.95 -11.05 49.8 -8.65 L52.45 -8.1 41.6 -12.85 40.75 -13.3 Q31.85 -18.35 28.1 -21.95 M52.45 -8.1 Q55.35 -6.85 59.25 -5.85 68.35 -4.3 73.9 -9.35 L75.05 -10.45 76.8 -12.75 78.45 -16.05 Q84.15 -28.35 73.7 -38.55 63.3 -48.7 44.2 -49.9 M75.05 -10.45 L75.1 -2.0 75.1 1.7 Q74.85 47.25 68.9 91.1 69.45 90.0 71.0 89.95 L73.25 90.35 Q76.25 91.2 78.5 91.1 81.0 47.85 79.0 12.6 L77.95 -2.05 77.65 -5.4 77.65 -5.7 76.8 -12.75 M77.65 -5.4 L78.0 -2.05 79.4 12.3 Q82.0 46.65 79.75 80.65 80.25 76.65 88.9 80.75 89.2 50.55 84.75 19.15 L84.5 17.55 84.1 14.95 84.0 13.95 82.2 3.1 81.3 -2.05 79.5 -11.1 79.45 -11.65 78.45 -16.05 M79.75 80.65 L79.65 81.15" fill="none" stroke="#000000" stroke-linecap="round" stroke-linejoin="round" stroke-width="2.0"/>
  </g>
</svg>
