<?xml version="1.0" encoding="UTF-8" standalone="no"?>
<svg xmlns:xlink="http://www.w3.org/1999/xlink" height="83.85px" width="145.25px" xmlns="http://www.w3.org/2000/svg">
  <g transform="matrix(1.0, 0.0, 0.0, 1.0, 74.2, 73.2)">
    <path d="M39.4 -53.25 L39.4 -52.6 Q39.4 -45.3 36.45 -38.9 34.75 -35.25 32.0 -31.95 L31.7 -31.6 31.5 -31.4 Q33.7 -32.25 35.5 -33.3 L35.55 -33.3 38.15 -34.9 38.55 -35.2 Q42.7 -38.15 44.6 -41.85 L40.15 -41.65 39.55 -41.4 40.2 -41.9 Q44.4 -45.4 46.3 -50.6 44.85 -51.35 42.2 -49.55 45.65 -54.25 45.7 -59.5 42.75 -59.45 39.25 -55.7 L39.35 -54.05 M31.5 -31.4 L26.5 -31.4 Q19.4 -31.9 14.35 -34.4 L14.2 -34.5 13.75 -34.65 12.9 -35.15 Q12.6 -35.25 12.35 -35.5 L9.7 -37.45 9.95 -37.7 Q10.7 -38.25 13.0 -38.5 L17.6 -38.85 Q7.8 -40.5 4.75 -45.45 6.5 -46.65 11.9 -45.45 4.25 -48.3 1.45 -53.05 4.9 -54.3 12.95 -52.85 28.7 -58.6 39.25 -55.7 M31.5 -31.4 Q25.4 -33.65 21.15 -37.9 15.45 -43.5 12.95 -52.65 L12.95 -52.85 M33.5 -43.5 Q33.45 -42.75 33.05 -42.35 32.25 -41.75 30.35 -41.95 L31.55 -40.85 Q32.45 -40.25 32.25 -40.1 31.7 -39.35 29.6 -38.85 L27.3 -38.65 26.65 -38.7 Q26.5 -39.1 27.05 -39.95 L27.65 -41.75 Q26.85 -41.0 25.6 -40.7 L25.05 -40.7 Q23.75 -40.7 23.85 -42.9 24.0 -45.55 25.0 -47.6 26.8 -52.15 27.05 -53.55 28.35 -51.25 30.8 -48.4 32.9 -46.1 33.4 -44.4 L33.5 -43.5" fill="none" stroke="#000000" stroke-linecap="round" stroke-linejoin="round" stroke-width="1.3"/>
    <path d="M-60.0 -12.45 Q-59.55 -12.85 -67.9 -17.15 -76.25 -21.55 -71.45 -36.45 -62.95 -47.85 -46.75 -51.15 -35.35 -53.55 -23.45 -59.2 L-21.1 -60.4 Q7.05 -73.85 37.6 -71.95 49.85 -69.0 52.75 -60.5 58.25 -50.45 50.8 -33.55 49.8 -31.5 50.55 -29.8 51.8 -26.45 50.85 -24.65 52.25 -22.8 51.6 -21.05 71.85 -16.55 69.85 -4.8 66.3 2.75 56.3 5.75 45.7 8.9 35.85 9.15 L20.85 9.65 4.15 8.9 Q-7.35 7.95 -25.85 3.75 -44.4 -0.5 -52.2 -5.8 L-52.2 -5.7 -52.2 -5.65 -52.1 -5.25 Q-51.75 2.9 -52.7 4.15 L-52.75 4.15 Q-53.0 3.95 -53.2 3.9 -56.7 2.55 -58.5 0.4 -59.2 -0.95 -58.55 -7.65 L-58.55 -8.25 -58.3 -10.0 Q-58.95 -10.4 -58.95 -11.0 -60.05 -11.85 -60.0 -12.45 L-58.5 -12.35 -58.5 -12.4 -57.4 -13.75 -57.3 -13.85 -57.25 -13.9 -57.2 -13.95 -56.95 -14.1 -56.25 -14.6 -55.55 -14.8 -55.45 -14.8 -54.3 -15.0 Q-52.5 -15.0 -51.3 -13.65 -50.55 -12.9 -50.4 -12.95 -50.05 -11.2 -50.05 -10.5 -50.05 -9.4 -50.3 -8.55 L-50.55 -8.05 -50.85 -7.55 -51.0 -7.4 Q-51.45 -7.0 -52.05 -7.0 L-52.2 -7.0 -52.45 -7.0 -52.2 -5.8 M49.05 -18.1 Q51.1 -19.55 51.6 -21.05 M-58.3 -10.0 L-57.45 -9.45 -54.8 -7.95 -53.75 -7.45 -52.45 -7.0 M-58.95 -11.0 L-58.95 -11.5 -58.5 -12.35" fill="none" stroke="#000000" stroke-linecap="round" stroke-linejoin="round" stroke-width="2.0"/>
    <path d="M-50.4 -12.95 Q-42.55 -12.8 -27.35 -13.25 L-3.45 -14.75 Q37.25 -17.9 50.85 -24.65 M51.6 -19.4 Q68.5 -11.6 61.55 -4.55 L58.1 -2.35 Q52.2 1.15 38.2 2.45 L16.9 3.25 1.1 1.85 Q-7.55 0.9 -21.65 -2.05 L-50.55 -8.05 M-50.3 -8.55 Q-37.0 -7.3 -16.5 -8.25 L18.85 -11.15 Q40.5 -13.45 47.95 -17.45 L49.05 -18.1" fill="none" stroke="#000000" stroke-linecap="round" stroke-linejoin="round" stroke-width="1.4000000000000001"/>
  </g>
</svg>
