<?xml version="1.0" encoding="UTF-8" standalone="no"?>
<svg xmlns:xlink="http://www.w3.org/1999/xlink" height="135.8px" width="201.75px" xmlns="http://www.w3.org/2000/svg">
  <g transform="matrix(1.0, 0.0, 0.0, 1.0, 95.65, 91.1)">
    <path d="M64.3 -7.55 Q67.8 -5.9 69.65 -3.05 68.25 -1.8 69.75 -0.1 71.55 1.75 74.0 0.9 L74.45 2.85 Q75.1 2.85 75.75 3.65 76.15 4.3 76.25 5.25 76.25 6.1 75.75 6.8 L75.5 7.0 Q75.0 7.4 74.45 7.4 73.8 10.9 71.5 13.6 L70.1 14.85 Q69.85 14.75 69.85 15.05 67.9 16.15 65.75 16.3 L65.5 14.2 Q65.05 11.15 64.85 7.8 L64.85 7.75 64.4 7.75 61.3 7.4 61.3 7.45 61.7 12.0 61.8 15.45 Q59.4 14.35 57.5 11.85 55.6 9.25 55.1 6.1 L55.05 6.1 Q54.3 6.05 53.95 5.45 53.45 4.75 53.5 4.05 53.55 3.35 53.9 2.85 54.25 2.3 54.9 2.3 55.2 -1.35 57.15 -3.95 L60.8 2.9 64.55 3.45 Q66.1 -1.45 63.45 -7.5 L63.65 -7.45 63.85 -7.55 64.3 -7.55 M-66.15 0.7 Q-63.15 1.4 -60.95 3.8 -60.3 4.5 -59.75 5.35 -57.65 8.65 -57.7 12.4 L-57.75 13.3 Q-57.0 13.4 -56.5 14.35 -56.1 15.15 -56.3 16.05 -56.55 16.9 -57.4 17.5 L-57.7 17.6 -59.1 17.7 -60.65 20.05 Q-62.1 21.7 -64.1 22.85 L-64.3 23.0 -66.4 23.95 -66.65 24.0 -73.8 23.75 Q-77.05 22.4 -78.95 19.9 L-80.25 17.9 -80.95 16.1 Q-81.7 13.8 -81.45 11.5 L-81.5 11.5 Q-82.35 11.3 -82.6 10.6 -82.95 9.85 -82.7 9.2 -82.55 8.5 -81.95 8.1 -81.3 7.6 -80.55 7.8 L-79.7 6.05 Q-78.4 3.7 -76.0 2.1 L-75.2 1.65 -74.55 1.35 Q-73.6 0.9 -72.5 0.6 -71.55 0.2 -70.45 0.15 L-68.75 0.2 Q-69.4 0.65 -70.0 2.95 L-70.45 4.75 -70.8 4.9 Q-71.75 5.5 -72.05 6.45 -72.3 7.5 -71.8 8.35 -71.35 9.25 -70.35 9.6 -69.45 9.75 -68.5 9.25 -67.45 8.65 -67.15 7.65 -67.0 7.1 -67.15 6.6 L-67.45 5.7 -67.7 5.35 Q-67.35 2.7 -66.5 1.3 L-66.15 0.7" fill="#fce061" fill-rule="evenodd" stroke="none"/>
    <path d="M74.0 0.9 Q71.55 1.75 69.75 -0.1 68.25 -1.8 69.65 -3.05 67.8 -5.9 64.3 -7.55 L64.85 -7.5 Q68.15 -7.4 71.05 -4.4 73.15 -2.0 74.0 0.9 M-66.15 0.7 L-66.5 1.3 Q-67.35 2.7 -67.7 5.35 L-67.45 5.7 -67.15 6.6 Q-67.0 7.1 -67.15 7.65 -67.45 8.65 -68.5 9.25 -69.45 9.75 -70.35 9.6 -71.35 9.25 -71.8 8.35 -72.3 7.5 -72.05 6.45 -71.75 5.5 -70.8 4.9 L-70.45 4.75 -70.0 2.95 Q-69.4 0.65 -68.75 0.2 L-67.45 0.4 -66.4 0.6 -66.15 0.7" fill="#624a1d" fill-rule="evenodd" stroke="none"/>
    <path d="M67.85 -26.0 Q72.55 -29.85 77.25 -28.5 70.8 -26.25 69.05 -24.2 71.0 -23.6 72.75 -22.3 L76.25 -19.1 70.7 -19.65 69.85 -19.8 65.4 -19.25 Q66.75 -18.45 67.95 -17.45 L69.25 -16.15 71.4 -13.15 72.75 -10.05 69.9 -12.55 Q67.6 -13.55 65.65 -13.9 L65.55 -13.9 63.95 -14.05 61.4 -13.75 Q60.6 -13.15 59.7 -13.05 L55.9 -17.4 Q60.45 -19.9 67.75 -25.9 L67.85 -26.0 M-53.3 -33.35 Q-53.8 -43.9 -48.45 -51.55 -53.35 -43.05 -51.0 -32.65 -50.35 -41.45 -44.9 -46.25 -42.45 -48.3 -39.2 -49.65 -41.1 -46.3 -42.15 -42.6 L-42.65 -41.0 Q-43.75 -35.8 -43.15 -29.8 -42.5 -33.8 -39.8 -36.95 L-39.2 -37.65 -38.95 -37.85 -35.25 -40.8 Q-36.35 -37.85 -36.95 -34.65 L-37.1 -33.1 -37.25 -32.65 -37.5 -27.15 Q-47.75 -17.55 -51.65 -8.6 -51.75 -21.35 -53.3 -33.35" fill="#ffffff" fill-rule="evenodd" stroke="none"/>
    <path d="M55.9 -17.4 Q47.55 -26.75 35.8 -35.4 29.65 -40.1 22.55 -44.4 L20.7 -45.6 14.15 -45.3 Q46.05 -22.05 56.15 -5.85 L57.15 -3.95 60.8 2.9 64.55 3.45 Q66.1 -1.45 63.45 -7.5 L62.8 -8.95 59.7 -13.05 55.9 -17.4 Q60.45 -19.9 67.75 -25.9 L67.85 -26.0 68.05 -26.15 74.85 -32.2 Q92.25 -46.0 102.75 -47.45 105.2 -48.55 105.1 -49.75 L69.35 -48.15 Q65.1 -47.75 58.65 -47.95 39.75 -48.2 22.55 -44.4 M68.05 -26.15 Q72.65 -29.8 77.25 -28.5 70.8 -26.25 69.05 -24.2 71.0 -23.6 72.75 -22.3 L76.25 -19.1 70.7 -19.65 69.85 -19.8 65.4 -19.25 Q66.75 -18.45 67.95 -17.45 L69.25 -16.15 71.4 -13.15 Q78.15 -18.45 83.9 -27.6 87.5 -33.25 91.4 -37.75 100.75 -44.1 102.75 -47.45 M62.8 -8.95 L63.2 -8.45 63.9 -8.75 65.5 -9.65 Q67.7 -10.8 69.9 -12.55 L65.55 -13.9 63.95 -14.05 61.4 -13.75 Q60.6 -13.15 59.7 -13.05 M63.45 -7.5 L63.65 -7.45 63.85 -7.55 63.2 -8.45 M63.85 -7.55 L64.3 -7.55 64.85 -7.5 Q68.15 -7.4 71.05 -4.4 73.15 -2.0 74.0 0.9 L74.45 2.85 Q75.1 2.85 75.75 3.65 76.15 4.3 76.25 5.25 76.25 6.1 75.75 6.8 L75.5 7.0 Q75.0 7.4 74.45 7.4 73.8 10.9 71.5 13.6 L70.1 14.85 M71.4 -13.15 L72.75 -10.05 69.9 -12.55 M74.45 2.85 L74.4 2.85 64.55 3.45 60.65 3.2 60.15 3.15 59.65 3.1 57.55 2.8 54.95 2.3 54.9 2.3 Q54.25 2.3 53.9 2.85 53.55 3.35 53.5 4.05 53.45 4.75 53.95 5.45 54.3 6.05 55.05 6.1 L55.1 6.1 58.35 7.0 61.3 7.45 61.3 7.4 64.4 7.75 64.85 7.75 64.85 7.8 74.45 7.4 M55.1 6.1 Q55.6 9.25 57.5 11.85 59.4 14.35 61.8 15.45 L61.7 12.0 61.3 7.45 M64.4 7.75 L64.85 7.8 Q65.05 11.15 65.5 14.2 L65.75 16.3 Q67.9 16.15 69.85 15.05 M65.75 16.3 Q67.35 26.15 70.85 32.1 L58.55 35.0 Q61.95 28.05 61.8 15.45 M54.9 2.3 Q55.2 -1.35 57.15 -3.95 M-37.25 -32.65 L-37.5 -27.15 -34.15 -29.7 -34.05 -30.05 Q-32.8 -33.75 -31.95 -37.7 L-30.95 -36.5 Q-31.8 -42.55 -40.75 -57.5 -50.55 -73.8 -54.25 -90.1 L-54.85 -83.7 Q-56.9 -59.35 -53.3 -33.35 -53.8 -43.9 -48.45 -51.55 -53.35 -43.05 -51.0 -32.65 -50.35 -41.45 -44.9 -46.25 -42.45 -48.3 -39.2 -49.65 -41.1 -46.3 -42.15 -42.6 L-42.65 -41.0 Q-43.75 -35.8 -43.15 -29.8 -42.5 -33.8 -39.8 -36.95 L-39.2 -37.65 M-54.25 -90.1 L-66.25 -55.25 Q-72.25 -39.7 -72.15 -20.2 -72.05 -10.5 -70.45 0.15 L-68.75 0.2 -67.45 0.4 -66.4 0.6 -66.15 0.7 Q-63.15 1.4 -60.95 3.8 -41.3 -9.35 -34.15 -29.7 M-72.15 -20.2 Q-77.1 -13.4 -80.4 -2.8 -81.55 1.95 -79.7 6.05 -78.4 3.7 -76.0 2.1 L-75.2 1.65 -74.55 1.35 Q-74.95 -1.65 -71.7 -9.5 -73.2 -15.9 -72.15 -20.2 M-37.5 -27.15 Q-47.75 -17.55 -51.65 -8.6 -51.75 -21.35 -53.3 -33.35 M-38.95 -37.85 L-35.25 -40.8 Q-36.35 -37.85 -36.95 -34.65 L-37.1 -33.1 M-60.95 3.8 Q-60.3 4.5 -59.75 5.35 -57.65 8.65 -57.7 12.4 -28.6 -17.0 -29.3 -30.15 -28.25 -32.6 -30.95 -36.5 M-57.75 13.3 L-57.9 13.3 Q-67.4 12.25 -75.25 9.7 L-77.6 8.95 -80.5 7.8 -80.55 7.8 Q-81.3 7.6 -81.95 8.1 -82.55 8.5 -82.7 9.2 -82.95 9.85 -82.6 10.6 -82.35 11.3 -81.5 11.5 L-81.45 11.5 -77.85 13.2 Q-70.45 16.15 -59.1 17.7 L-57.7 17.6 -57.4 17.5 Q-56.55 16.9 -56.3 16.05 -56.1 15.15 -56.5 14.35 -57.0 13.4 -57.75 13.3 L-57.7 12.4 M-66.4 23.95 L-64.3 23.0 -64.1 22.85 Q-62.1 21.7 -60.65 20.05 L-59.1 17.7 M-79.7 6.05 L-80.55 7.8 M-74.55 1.35 Q-73.6 0.9 -72.5 0.6 -71.55 0.2 -70.45 0.15 M-78.95 19.9 L-80.25 17.9 -80.95 16.1 Q-86.15 20.05 -91.95 22.75 -98.6 32.8 -88.8 38.8 -87.7 27.5 -78.95 19.9 -77.05 22.4 -73.8 23.75 L-66.65 24.0 M-64.1 22.85 L-63.95 25.3 Q-60.4 34.9 -61.6 43.25 -57.65 46.1 -46.35 30.3 -55.55 25.9 -60.65 20.05 M-64.3 23.0 L-63.95 25.3 M-81.45 11.5 Q-81.7 13.8 -80.95 16.1" fill="none" stroke="#000000" stroke-linecap="round" stroke-linejoin="round" stroke-width="2.0"/>
  </g>
</svg>
