<?xml version="1.0" encoding="UTF-8" standalone="no"?>
<svg xmlns:xlink="http://www.w3.org/1999/xlink" height="107.35px" width="150.1px" xmlns="http://www.w3.org/2000/svg">
  <g transform="matrix(1.0, 0.0, 0.0, 1.0, 63.6, 85.9)">
    <path d="M-5.3 -72.55 Q25.25 -85.45 34.1 -84.85 42.9 -83.15 62.4 -59.95 64.75 -57.25 67.55 -54.85 71.15 -52.0 75.1 -49.4 77.1 -47.8 77.6 -45.7 78.05 -43.5 76.85 -40.65 72.5 -31.05 64.55 -20.7 L64.5 -16.95 Q64.2 -12.4 63.0 -8.7 L61.2 -4.85 84.95 12.15 Q87.65 17.85 77.35 19.6 L76.3 19.65 67.35 20.4 51.9 19.9 Q28.0 17.75 17.5 13.9 6.9 9.95 -6.15 0.8 L-30.65 -16.2 -30.7 -16.2 -43.55 -18.85 Q-53.15 -20.75 -61.05 -22.8 L-61.2 -26.35 Q-61.2 -29.65 -60.05 -33.6 L-59.05 -36.45 Q-64.5 -54.75 -61.55 -62.35 L-60.6 -64.15 -58.9 -65.55 Q-48.25 -72.75 -5.3 -72.55 L-19.5 -66.2 Q-21.6 -65.15 -23.85 -64.25 -29.1 -62.4 -35.85 -61.75 -57.95 -63.6 -58.9 -65.55 M49.3 -58.3 L49.15 -61.2 Q36.3 -67.5 14.9 -67.55 L15.3 -65.7 15.35 -64.5 Q15.7 -57.35 13.25 -43.3 26.6 -37.25 31.65 -26.35 38.0 -33.85 47.2 -37.5 L47.5 -37.65 Q49.7 -45.8 49.3 -58.25 L49.3 -58.3 M-30.65 -16.2 L-22.3 -14.7 Q-2.5 -11.0 26.2 -7.1 46.6 -4.4 56.65 -4.65 L60.55 -4.75 M-59.05 -36.45 L-37.05 -31.9 Q1.6 -24.1 29.4 -21.15 51.05 -18.05 59.5 -18.8 L59.55 -18.8 Q62.4 -18.95 63.7 -19.55 L64.55 -20.7" fill="none" stroke="#000000" stroke-linecap="round" stroke-linejoin="round" stroke-width="2.0"/>
  </g>
</svg>
