<?xml version="1.0" encoding="UTF-8" standalone="no"?>
<svg xmlns:xlink="http://www.w3.org/1999/xlink" height="170.05px" width="229.95px" xmlns="http://www.w3.org/2000/svg">
  <g transform="matrix(1.0, 0.0, 0.0, 1.0, 116.1, 129.7)">
    <path d="M56.8 -27.7 L56.5 -27.35 Q37.8 -8.8 -2.85 -16.35 -30.0 -21.4 -33.45 -26.45 -45.85 -34.3 -45.65 -40.2 L-53.5 -34.9 Q-53.85 -32.15 -53.0 -29.45 -48.65 -13.9 -8.2 -4.8 2.4 -3.3 11.3 -2.75 47.0 -0.1 58.6 -9.95 L56.85 -27.2 56.8 -27.7 56.0 -36.5 Q53.85 -32.95 49.15 -30.75 36.65 -24.75 6.0 -28.75 -9.4 -31.2 -20.65 -35.55 -23.25 -36.2 -26.55 -37.95 L-26.95 -38.2 -29.25 -39.55 -29.75 -39.8 Q-34.35 -42.4 -37.9 -45.5 L-45.65 -40.2 M-37.9 -45.5 L-37.75 -45.55 -37.85 -45.65 -40.4 -48.25 -41.05 -48.25 -41.15 -48.3 Q-53.1 -48.3 -75.7 -53.15 -73.05 -49.75 -64.1 -47.15 -72.75 -45.0 -75.65 -43.9 -112.3 -34.35 -114.85 -23.9 -112.4 -21.1 -101.2 -14.7 -111.6 -16.8 -115.1 -10.8 -91.5 -11.65 -74.95 -2.05 -73.05 -4.6 -60.7 -2.0 -38.2 4.25 -26.45 10.35 -23.6 11.7 -21.4 13.05 1.9 24.1 37.8 39.35 27.85 31.1 30.35 31.3 48.05 28.8 62.2 21.2 67.3 18.4 72.15 17.0 67.95 22.2 67.2 24.4 83.65 12.55 90.3 11.85 98.55 11.1 112.85 1.85 L108.05 3.25 Q104.7 3.8 105.05 1.6 105.85 -3.15 85.95 -14.95 76.7 -22.95 74.65 -33.1 71.65 -23.55 80.15 -18.3 L80.4 -18.15 80.8 -17.9 M65.65 -22.95 L65.55 -22.65 56.85 -27.2 M80.15 -18.3 L58.1 -31.3 65.55 -22.65 M56.0 -36.5 L58.75 -49.75 53.45 -43.3 Q50.25 -62.15 38.3 -84.35 18.7 -104.8 -9.95 -121.7 -15.8 -125.2 -22.1 -128.7 -3.75 -105.15 -10.75 -81.95 L-16.05 -65.55 -18.35 -79.7 Q-20.9 -63.05 -25.7 -55.45 -25.0 -47.15 -22.95 -41.0 -21.95 -38.0 -20.65 -35.55 M-25.7 -55.45 Q-26.7 -66.3 -25.5 -80.8 L-27.9 -73.1 -28.0 -72.75 Q-31.05 -62.15 -31.45 -53.45 L-31.45 -49.85 -31.45 -48.85 -31.4 -48.25 -31.3 -47.45 -31.4 -47.1 M-31.45 -49.85 L-31.5 -49.8 -31.45 -48.85 M-31.5 -49.8 Q-33.0 -64.4 -39.55 -74.3 -41.6 -77.35 -44.15 -79.95 -39.35 -66.85 -36.7 -50.95 -48.85 -61.15 -52.55 -73.15 -52.25 -60.65 -40.4 -48.25 M-41.05 -48.25 L-41.05 -48.3 -41.15 -48.3 M-37.75 -45.55 L-37.3 -45.05 -36.9 -44.8 -36.65 -44.6 -34.1 -42.75 -33.85 -42.6 -33.75 -42.45 -31.25 -40.8 -29.75 -39.8" fill="none" stroke="#000000" stroke-linecap="round" stroke-linejoin="round" stroke-width="2.0"/>
  </g>
</svg>
