<?xml version="1.0" encoding="UTF-8" standalone="no"?>
<svg xmlns:xlink="http://www.w3.org/1999/xlink" height="178.95px" width="258.4px" xmlns="http://www.w3.org/2000/svg">
  <g transform="matrix(1.0, 0.0, 0.0, 1.0, 119.5, 144.25)">
    <path d="M-7.8 -93.65 L-6.6 -92.15 3.9 -79.65 4.95 -78.35 Q20.05 -59.3 30.25 -40.85 L31.75 -40.85 33.95 -40.4 36.05 -39.95 40.65 -38.8 42.55 -38.25 45.95 -37.25 46.75 -36.95 48.5 -36.25 Q39.9 -68.4 4.9 -96.2 L-3.85 -102.75 -8.0 -105.7 Q-9.25 -99.45 -7.8 -93.65 L-8.4 -87.1 Q-9.2 -81.55 -10.8 -76.95 L-11.25 -75.55 Q-13.4 -70.1 -16.75 -66.15 L-17.05 -65.85 -16.75 -65.65 -16.6 -65.55 -13.6 -63.2 -13.3 -62.95 -6.0 -57.45 -5.0 -56.9 Q11.15 -45.5 26.9 -39.3 L27.0 -40.75 27.0 -40.85 30.25 -40.85 M26.9 -39.3 L26.8 -39.2 28.5 -38.45 26.1 -23.0 24.8 -23.05 24.45 -23.05 24.15 -20.9 28.85 -19.45 31.75 -40.85 M37.9 -34.1 L46.15 -31.95 44.85 -21.95 41.7 -22.6 41.6 -22.6 36.5 -23.55 36.3 -23.65 36.85 -27.0 36.9 -27.2 37.55 -32.1 37.55 -32.2 37.9 -34.1 M24.8 -23.05 Q5.9 -28.95 -16.0 -43.65 -28.05 -51.75 -41.05 -62.5 -52.65 -66.35 -61.95 -64.45 -85.6 -67.1 -109.65 -76.45 L-109.6 -76.3 Q-105.7 -67.35 -99.0 -59.4 L-98.6 -58.95 Q-95.1 -55.0 -90.85 -51.3 -83.55 -44.85 -73.95 -39.4 -68.35 -36.1 -61.85 -33.2 42.65 16.35 92.35 25.45 122.6 29.75 135.55 15.1 112.25 18.4 91.95 12.05 78.8 3.4 73.85 -3.55 L66.1 -14.25 58.5 -19.4 58.4 -19.85 48.95 -19.15 48.6 -16.4 Q44.3 -16.1 38.05 -17.25 L32.3 -18.5 28.85 -19.45 M48.95 -19.15 L49.55 -23.9 49.55 -24.0 50.65 -32.95 50.85 -35.1 49.85 -35.55 48.5 -36.25 M58.4 -19.85 L58.55 -19.85 58.75 -19.85 58.95 -19.85 59.05 -19.85 59.2 -20.0 Q59.4 -20.05 59.6 -20.25 L60.0 -21.0 60.0 -21.4 60.0 -21.75 60.65 -29.05 Q60.85 -30.7 59.05 -32.15 L50.65 -32.95 M-8.0 -105.7 Q-12.75 -122.75 -22.4 -133.1 -28.85 -139.95 -31.45 -143.25 -14.6 -141.55 3.3 -133.25 40.95 -110.1 55.75 -82.55 61.1 -57.6 59.05 -32.15 M-109.65 -76.45 L-110.65 -76.95 -111.95 -77.6 -113.55 -78.5 -114.75 -79.25 -115.05 -79.45 -116.45 -80.4 -116.75 -80.55 -117.65 -81.25 -117.8 -81.3 -118.5 -81.75 -118.4 -81.5 -118.4 -81.3 -118.25 -80.75 -118.2 -80.3 -118.05 -79.8 -117.95 -79.1 -117.8 -78.55 -117.75 -78.15 -117.65 -78.05 -117.6 -77.85 -117.55 -77.6 -117.5 -77.4 Q-115.0 -68.15 -109.35 -59.8 L-100.95 -49.8 -95.55 -44.85 -95.4 -44.8 -95.2 -44.6 -95.1 -44.5 -64.3 -25.75 M-17.05 -65.85 L-37.55 -64.9 -41.05 -62.5 M-64.05 -25.65 L-63.65 -25.5 -61.05 -24.35 34.95 15.3 40.1 17.7 Q48.75 21.5 57.2 24.45 80.05 32.5 100.7 33.65 121.85 34.3 134.4 19.5 L137.9 14.75 135.9 15.1 135.55 15.1" fill="none" stroke="#000000" stroke-linecap="round" stroke-linejoin="round" stroke-width="2.0"/>
  </g>
</svg>
