<?xml version="1.0" encoding="UTF-8" standalone="no"?>
<svg xmlns:xlink="http://www.w3.org/1999/xlink" height="113.05px" width="207.3px" xmlns="http://www.w3.org/2000/svg">
  <g transform="matrix(1.0, 0.0, 0.0, 1.0, 175.4, 86.75)">
    <path d="M-142.85 -21.7 Q-133.3 -26.95 -118.7 -40.55 L-115.5 -43.45 Q-93.25 -63.95 -76.6 -74.0 -58.7 -84.75 -22.25 -85.75 -11.0 -83.5 -2.95 -78.1 3.65 -73.75 8.2 -67.3 L10.0 -64.5 Q14.25 -66.9 19.35 -65.4 25.95 -63.45 29.0 -57.95 L29.8 -56.05 29.95 -55.8 Q32.7 -48.4 27.45 -44.05 L22.5 -40.2 20.85 -38.95 Q8.05 -29.3 -6.3 -22.65 L-7.6 -22.15 -7.65 -22.1 -7.85 -22.05 -8.2 -21.95 Q-23.1 -16.35 -36.2 -7.5 -49.4 1.2 -56.85 7.5 -64.4 13.8 -68.65 19.6 -73.0 25.35 -76.7 25.3 -80.4 25.25 -83.0 17.35 -85.6 9.4 -84.5 4.6 -83.45 -0.2 -81.55 -3.5 -88.35 -14.1 -87.8 -19.4 L-88.05 -21.8 Q-116.95 9.5 -145.55 -11.85 L-147.5 -9.55 Q-152.1 -4.9 -158.65 -4.9 -165.15 -4.9 -169.8 -9.55 -174.4 -14.15 -174.4 -20.7 -174.4 -27.2 -169.8 -31.85 -165.15 -36.45 -158.65 -36.45 -152.1 -36.45 -147.5 -31.85 -143.2 -27.55 -142.85 -21.7 L-142.85 -20.7 Q-142.85 -15.7 -145.55 -11.85 M10.0 -64.5 L9.0 -63.8 Q7.25 -62.55 5.65 -60.65 2.75 -57.15 -3.25 -53.25 -9.05 -49.45 -17.8 -45.35 -35.55 -37.0 -56.75 -23.3 L-59.1 -21.7 -70.1 -14.15 Q-79.25 -7.35 -81.55 -3.5 M-88.05 -21.8 Q-89.05 -30.9 -86.45 -36.45" fill="none" stroke="#000000" stroke-linecap="round" stroke-linejoin="round" stroke-width="2.0"/>
  </g>
</svg>
