<?xml version="1.0" encoding="UTF-8" standalone="no"?>
<svg xmlns:xlink="http://www.w3.org/1999/xlink" height="83.2px" width="191.35px" xmlns="http://www.w3.org/2000/svg">
  <g transform="matrix(1.0, 0.0, 0.0, 1.0, 106.95, 51.3)">
    <path d="M18.55 4.65 Q-2.5 -26.8 -42.4 -41.6 -82.35 -56.45 -105.95 -46.0 -87.0 -45.8 -68.15 -37.45 -32.0 -21.4 -6.7 8.6 10.3 29.7 15.2 30.9 19.45 31.3 26.4 20.9 31.05 13.5 36.1 1.2 48.35 -24.4 83.4 -43.3 L81.7 -43.1 Q31.5 -35.75 18.55 4.65 19.65 5.05 20.6 6.3 L20.95 6.8 21.6 8.25 Q23.1 12.0 22.8 17.05 22.5 20.15 21.7 22.75 L21.45 23.2 20.95 24.6 20.85 24.7 20.35 25.55 Q18.3 29.05 15.75 28.85 13.3 28.7 11.75 25.3 L11.6 24.9 Q10.1 21.25 10.45 16.15 10.8 11.1 12.85 7.65 15.0 4.25 17.5 4.4 L18.55 4.65 Z" fill="none" stroke="#000000" stroke-linecap="round" stroke-linejoin="round" stroke-width="2.0"/>
  </g>
</svg>
