<?xml version="1.0" encoding="UTF-8" standalone="no"?>
<svg xmlns:xlink="http://www.w3.org/1999/xlink" height="66.35px" width="150.3px" xmlns="http://www.w3.org/2000/svg">
  <g transform="matrix(1.0, 0.0, 0.0, 1.0, 89.9, 35.55)">
    <path d="M23.9 29.8 Q31.05 22.35 59.4 13.15 L59.4 -7.55 Q38.1 -21.6 27.9 -29.85 L22.25 -34.55 Q26.3 -0.95 23.95 29.5 L23.9 29.8 Q2.9 21.75 -31.8 17.45 L-31.8 23.1 -44.15 19.75 -44.05 21.95 -67.8 15.8 -67.85 15.75 -71.85 14.15 -88.9 -12.0 -83.4 -12.15 -84.45 -13.65 -82.1 -13.85 -81.95 -13.85 -51.2 -16.55 -47.75 -12.75 Q-6.0 -20.95 22.2 -34.4 L22.25 -34.55 M-83.4 -12.15 L-71.0 6.0 -46.9 8.5 -51.5 -12.05 -47.75 -12.75 M-31.8 17.45 L-32.45 17.35 -40.45 16.55 -44.25 13.65 -44.15 19.75 M-44.25 13.65 L-46.1 12.05 -46.9 8.5" fill="none" stroke="#000000" stroke-linecap="round" stroke-linejoin="round" stroke-width="2.0"/>
    <path d="M15.5 -21.0 Q17.15 -1.25 16.25 17.85 L7.1 15.8 6.25 -17.25 15.5 -21.0 M37.45 -10.9 Q37.8 -6.4 37.6 8.1 37.45 11.3 37.45 14.5 L31.25 16.95 31.25 15.8 Q32.8 -0.55 31.65 -19.35 L37.1 -16.15 37.45 -10.9 M39.7 -14.6 L44.6 -11.45 44.75 -5.4 Q44.95 0.4 44.8 6.25 L44.75 12.55 39.85 13.65 39.65 13.65 Q40.25 1.4 39.7 -13.85 L39.7 -14.6 M52.55 -7.3 L52.55 10.95 46.65 12.25 Q46.4 12.1 46.65 7.25 46.95 2.3 46.7 -6.25 L46.6 -10.15 52.55 -7.3 M-10.35 -14.0 L-9.65 13.8 0.9 15.25 -0.15 -16.2 -10.35 -14.0 M-24.45 -11.1 L-24.35 11.65 -15.85 12.95 -16.25 -12.8 -24.45 -11.1" fill="none" stroke="#000000" stroke-linecap="round" stroke-linejoin="round" stroke-width="1.0"/>
  </g>
</svg>
