<?xml version="1.0" encoding="UTF-8" standalone="no"?>
<svg xmlns:xlink="http://www.w3.org/1999/xlink" height="155.9px" width="186.05px" xmlns="http://www.w3.org/2000/svg">
  <g transform="matrix(1.0, 0.0, 0.0, 1.0, 104.55, 71.8)">
    <path d="M-42.6 81.3 Q-75.75 64.95 -79.9 41.8 -85.05 13.85 -55.6 -14.85 -12.85 -63.3 12.2 -59.95 33.35 -59.0 60.6 -7.75 83.65 40.5 67.95 60.8 57.6 73.3 38.9 82.1" fill="none" stroke="#000000" stroke-linecap="round" stroke-linejoin="round" stroke-width="1.4000000000000001"/>
    <path d="M0.6 82.85 L-42.6 81.3 -49.8 80.3 Q-87.05 71.25 -99.3 43.25 -111.45 15.35 -88.95 -13.4 -41.3 -70.15 1.1 -70.8 33.15 -70.45 65.1 -13.55 89.75 39.0 75.0 67.4 67.75 79.15 38.9 82.1 23.9 83.65 0.6 82.85 -0.2 78.2 -14.55 75.2 -56.4 63.4 -60.35 38.25 -61.3 31.2 -56.75 24.3 -38.45 -4.3 -8.55 -29.1 4.4 -39.35 16.3 -38.2 41.55 -34.45 54.5 11.65 65.05 50.75 52.4 61.6 34.15 77.35 11.5 78.75 2.25 79.3 0.6 82.85" fill="none" stroke="#000000" stroke-linecap="round" stroke-linejoin="round" stroke-width="2.0"/>
  </g>
</svg>
