<?xml version="1.0" encoding="UTF-8" standalone="no"?>
<svg xmlns:xlink="http://www.w3.org/1999/xlink" height="106.25px" width="149.4px" xmlns="http://www.w3.org/2000/svg">
  <g transform="matrix(1.0, 0.0, 0.0, 1.0, 80.75, 92.0)">
    <path d="M15.05 -59.7 Q15.15 -60.7 17.1 -61.2 19.2 -61.55 21.85 -61.2 24.6 -60.8 26.45 -59.85 28.25 -58.85 28.05 -57.9 27.95 -56.9 25.95 -56.5 23.95 -56.05 21.25 -56.45 18.5 -56.85 16.7 -57.85 14.85 -58.75 15.05 -59.7 M-25.5 -55.15 Q-26.35 -55.25 -26.9 -55.5 -28.0 -55.95 -28.1 -56.6 -28.25 -57.65 -26.05 -58.7 -23.85 -59.7 -20.65 -60.2 L-14.95 -60.35 Q-12.6 -59.9 -12.4 -58.85 -12.3 -57.85 -14.4 -56.8 -16.6 -55.7 -19.85 -55.2 L-22.35 -54.95 -25.5 -55.15" fill="#040404" fill-rule="evenodd" stroke="none"/>
    <path d="M4.2 -51.05 Q4.75 -49.15 2.4 -47.35 -0.45 -48.85 -0.2 -51.45 L0.45 -51.45 2.0 -52.85 4.2 -51.05" fill="#2c9f42" fill-rule="evenodd" stroke="none"/>
    <path d="M17.6 -72.45 Q15.75 -83.0 25.5 -88.25 38.55 -94.5 53.75 -86.55 59.3 -83.1 62.55 -79.2 67.5 -73.45 67.65 -66.4 67.1 -49.6 47.5 -48.85 49.15 -46.0 50.45 -42.9 54.55 -32.85 54.3 -20.35 55.3 -19.45 56.0 -18.1 57.1 -15.85 57.15 -12.3 56.9 -9.45 54.7 -8.5 L55.8 -2.5 Q56.35 1.7 53.55 2.5 L38.15 7.25 Q27.7 10.7 6.6 8.8 L-13.8 7.95 Q-23.05 7.8 -35.4 11.05 -43.05 12.95 -48.2 13.25 -62.95 13.6 -63.0 7.25 L-63.05 0.15 Q-64.35 -0.4 -65.3 -1.15 -67.55 -2.35 -67.5 -6.75 -67.6 -7.8 -66.65 -8.15 -68.5 -28.8 -58.25 -47.9 -73.9 -46.2 -78.35 -57.15 -81.95 -67.1 -76.3 -76.6 -72.0 -82.7 -66.05 -85.85 -60.0 -89.05 -52.2 -89.35 -39.65 -89.65 -31.95 -82.05 -28.3 -77.75 -29.65 -71.4 -13.3 -77.7 -4.4 -76.2 L-2.0 -75.55 -0.5 -75.95 Q4.1 -77.25 7.4 -79.7 L3.1 -74.3 Q8.75 -77.1 14.5 -75.95 L9.95 -73.75 Q13.85 -73.5 17.6 -72.45 24.7 -70.55 31.3 -65.95 L36.8 -61.65 37.85 -60.7 Q43.7 -55.4 47.5 -48.85 M15.05 -59.7 Q15.15 -60.7 17.1 -61.2 19.2 -61.55 21.85 -61.2 24.6 -60.8 26.45 -59.85 28.25 -58.85 28.05 -57.9 27.95 -56.9 25.95 -56.5 23.95 -56.05 21.25 -56.45 18.5 -56.85 16.7 -57.85 14.85 -58.75 15.05 -59.7 M4.2 -51.05 Q9.3 -51.6 8.95 -54.7 M4.2 -51.05 L2.0 -52.85 0.45 -51.45 -0.2 -51.45 Q-0.45 -48.85 2.4 -47.35 4.75 -49.15 4.2 -51.05 M56.0 -18.1 Q47.35 -11.8 26.35 -10.2 16.75 -9.5 4.55 -9.75 -20.1 -10.35 -45.85 -9.05 L-47.25 -9.0 -49.1 -8.9 -63.95 -8.35 -66.65 -8.15 M24.4 3.6 L31.75 1.6 32.15 1.5 Q36.2 0.5 39.6 -0.05 L47.1 -0.8 Q52.65 -1.0 52.25 -5.25 M-4.4 -75.1 L-2.0 -75.55 M-25.5 -55.15 Q-26.35 -55.25 -26.9 -55.5 -28.0 -55.95 -28.1 -56.6 -28.25 -57.65 -26.05 -58.7 -23.85 -59.7 -20.65 -60.2 L-14.95 -60.35 Q-12.6 -59.9 -12.4 -58.85 -12.3 -57.85 -14.4 -56.8 -16.6 -55.7 -19.85 -55.2 L-22.35 -54.95 -25.5 -55.15 M-0.2 -51.45 Q-4.95 -51.35 -6.55 -54.4 M-58.25 -47.9 Q-56.4 -50.65 -54.35 -53.05 -44.85 -64.4 -29.65 -71.4 M-63.05 0.15 Q-57.85 2.35 -47.35 0.85" fill="none" stroke="#000000" stroke-linecap="round" stroke-linejoin="round" stroke-width="2.0"/>
  </g>
</svg>
