<?xml version="1.0" encoding="UTF-8" standalone="no"?>
<svg xmlns:xlink="http://www.w3.org/1999/xlink" height="173.75px" width="159.7px" xmlns="http://www.w3.org/2000/svg">
  <g transform="matrix(1.0, 0.0, 0.0, 1.0, 85.1, 70.2)">
    <path d="M38.55 -47.75 Q30.45 -51.9 22.7 -54.75 L16.95 -56.65 9.4 -58.85 Q-3.45 -61.85 -15.3 -61.35 -29.6 -61.15 -41.25 -54.9 -45.05 -52.8 -48.55 -50.15 -52.6 -47.15 -56.2 -43.35 L-58.3 -41.1 -62.55 -35.7 -67.95 -28.15 -68.75 -27.15 -71.2 -23.3 -75.05 -16.9 Q-77.0 -13.7 -78.35 -10.7 -81.8 -3.55 -83.25 2.5 -83.85 5.15 -84.1 7.75 L-83.25 15.95 -82.5 20.15 -78.9 20.65 Q-61.45 23.1 -47.65 23.0 L-35.05 22.25 -7.5 15.8 2.55 14.6 Q16.8 13.6 29.25 16.65 L30.75 17.0 50.0 21.2 50.75 21.2 Q65.4 20.5 72.05 17.7 73.05 13.4 73.4 9.15 73.95 2.25 73.05 -4.3 72.15 -10.35 69.95 -16.1 68.65 -19.45 66.95 -22.55 L62.65 -28.85 59.1 -33.1 Q54.9 -37.8 50.2 -41.1 L45.7 -43.9 38.55 -47.75 34.9 -54.15 33.95 -55.4 Q31.2 -59.45 28.7 -61.15 26.25 -62.9 20.9 -59.5 19.05 -58.35 16.95 -56.65 M9.4 -58.85 L12.2 -61.7 Q22.45 -71.3 31.15 -68.6 38.0 -66.25 45.7 -51.05 L50.2 -41.1 M9.3 -37.95 Q9.3 -40.5 11.0 -42.3 12.85 -44.1 15.35 -44.1 17.75 -44.1 19.55 -42.3 21.4 -40.5 21.4 -37.95 21.4 -35.5 19.55 -33.75 17.75 -31.95 15.35 -31.95 12.85 -31.95 11.0 -33.75 9.3 -35.5 9.3 -37.95 M-14.85 -25.45 Q-16.9 -18.35 -10.65 -17.2 -5.4 -16.45 -2.5 -21.7 1.0 -16.9 6.4 -19.15 11.65 -21.95 9.05 -27.5 M50.75 21.2 L50.8 29.5 Q50.55 59.65 39.55 85.2 L40.6 86.5 Q40.65 84.2 42.0 83.8 44.6 83.8 44.35 86.65 47.4 84.0 50.05 80.75 66.85 60.85 72.05 17.7 M44.35 86.65 Q46.7 87.5 47.05 89.5 47.3 91.9 44.35 90.95 47.45 92.25 46.65 95.05 43.4 95.65 42.9 93.6 41.15 100.5 38.8 94.8 34.95 97.05 35.8 91.85 31.55 91.4 35.4 88.75 34.3 86.5 36.9 87.0 35.35 84.1 39.55 85.2 M-75.05 -16.9 Q-74.95 -26.65 -73.5 -35.8 -71.8 -45.55 -68.6 -54.6 -65.65 -60.7 -56.65 -60.1 -50.3 -59.75 -46.1 -58.0 -43.2 -56.75 -41.25 -54.9 M-67.95 -28.15 Q-67.0 -34.2 -65.85 -38.8 L-64.0 -44.35 Q-61.95 -49.95 -59.3 -51.95 L-54.1 -51.5 -48.55 -50.15 M-25.75 -29.2 Q-28.3 -29.2 -30.0 -30.9 -31.7 -32.6 -31.7 -35.15 -31.7 -37.6 -30.0 -39.35 -28.3 -41.1 -25.75 -41.1 -23.25 -41.1 -21.5 -39.35 -19.8 -37.6 -19.8 -35.15 -19.8 -32.6 -21.5 -30.9 -23.25 -29.2 -25.75 -29.2 M-47.65 23.0 L-45.2 36.05 Q-38.4 68.0 -26.35 88.3 -22.85 88.55 -22.75 92.4 L-22.0 92.4 Q-17.8 92.75 -18.55 95.7 -18.5 98.0 -20.3 98.4 -18.5 101.7 -21.15 102.3 -25.3 103.0 -24.6 100.25 L-26.2 102.2 Q-28.0 103.55 -28.8 99.5 -31.3 103.95 -32.55 97.5 -35.5 97.65 -35.25 94.8 -34.95 92.75 -33.25 93.1 -33.65 91.75 -32.55 91.05 -59.05 71.25 -68.8 54.95 -77.65 40.95 -81.5 25.1 L-82.5 20.15 M-32.55 91.05 Q-30.35 88.05 -28.15 91.05 -28.95 89.0 -26.35 88.3" fill="none" stroke="#000000" stroke-linecap="round" stroke-linejoin="round" stroke-width="2.0"/>
  </g>
</svg>
