<?xml version="1.0" encoding="UTF-8" standalone="no"?>
<svg xmlns:xlink="http://www.w3.org/1999/xlink" height="70.55px" width="117.4px" xmlns="http://www.w3.org/2000/svg">
  <g transform="matrix(1.0, 0.0, 0.0, 1.0, 90.9, 95.55)">
    <path d="M-4.35 -65.25 L7.65 -82.3 6.75 -64.9 25.75 -80.95 Q18.55 -61.4 8.1 -43.2 L5.1 -37.95 3.75 -35.9 Q-2.95 -30.1 -25.0 -26.7 L-40.95 -25.75 Q-55.3 -25.85 -59.4 -30.5 -60.45 -31.35 -61.3 -32.25 L-64.0 -35.0 -65.9 -36.9 Q-80.65 -51.9 -90.15 -66.75 L-62.8 -53.7 -68.3 -76.35 -52.85 -63.5 Q-55.3 -79.35 -55.75 -89.95 L-35.95 -65.2 -29.3 -90.2 -18.6 -68.45 Q-12.7 -82.45 -8.2 -94.8 -4.8 -80.1 -4.35 -65.25 L-4.35 -62.75 -4.35 -59.9 4.25 -72.7 3.7 -62.15 6.75 -64.9 M-22.25 -59.4 L-27.15 -68.3 -27.65 -68.75 -28.25 -68.75 -29.0 -68.6 -29.15 -67.9 -29.45 -66.45 -29.4 -66.1 -30.8 -58.8 -31.8 -54.05 -45.5 -51.35 -45.95 -51.2 -46.15 -51.1 -46.45 -50.4 -46.3 -49.8 -45.8 -49.2 -33.5 -42.7 -35.3 -28.85 -35.2 -28.2 -34.75 -27.75 -34.1 -27.6 Q-33.7 -27.65 -33.5 -27.95 L-23.35 -37.65 -10.5 -31.6 -9.9 -31.55 -9.3 -31.9 Q-9.0 -32.1 -8.95 -32.5 L-9.05 -33.2 -15.2 -45.8 -5.55 -56.0 -5.25 -56.6 -5.4 -57.25 Q-5.4 -57.55 -5.85 -57.65 L-6.45 -57.9 -20.35 -55.95 -22.25 -59.4 -21.25 -62.0 -20.25 -64.5 -20.0 -65.25 -28.3 -82.0 -33.85 -62.55 -30.8 -58.8 M-35.95 -65.2 L-33.85 -62.55 M-20.0 -65.25 L-19.75 -65.85 -18.6 -68.45 M3.7 -62.15 L-4.45 -54.8 -4.35 -59.9 M-62.8 -53.7 L-58.85 -51.9 -62.7 -67.5 -52.35 -60.4 -52.65 -62.2 -52.85 -63.5 M-58.85 -51.9 L-49.35 -47.35 Q-51.15 -53.15 -52.35 -60.4" fill="none" stroke="#000000" stroke-linecap="round" stroke-linejoin="round" stroke-width="1.5"/>
  </g>
</svg>
