<?xml version="1.0" encoding="UTF-8" standalone="no"?>
<svg xmlns:xlink="http://www.w3.org/1999/xlink" height="70.85px" width="93.75px" xmlns="http://www.w3.org/2000/svg">
  <g transform="matrix(1.0, 0.0, 0.0, 1.0, 52.5, 92.7)">
    <path d="M19.4 -76.85 Q27.4 -82.1 31.05 -91.7 37.5 -75.15 31.3 -61.05 34.6 -52.9 34.75 -42.55 40.05 -42.5 40.25 -38.05 L40.25 -28.3 Q40.25 -23.55 35.0 -22.85 L-46.25 -22.85 Q-51.5 -23.55 -51.5 -28.3 L-51.5 -38.05 Q-51.3 -42.5 -46.0 -42.55 -45.85 -52.9 -42.55 -61.05 -48.75 -75.15 -42.3 -91.7 -38.65 -82.1 -30.65 -76.85 -23.9 -82.3 -14.1 -85.65 -12.7 -88.7 -5.65 -88.4 1.45 -88.7 2.8 -85.65 12.65 -82.3 19.4 -76.85 27.5 -70.4 31.3 -61.05 M-14.1 -85.65 L-14.4 -84.35 Q-6.45 -77.4 -7.35 -42.55 L10.7 -42.55 Q12.15 -74.65 3.15 -84.85 L2.8 -85.65 M34.75 -42.55 L10.7 -42.55 M-46.0 -42.55 L-7.35 -42.55 M-30.65 -76.85 Q-38.75 -70.4 -42.55 -61.05" fill="none" stroke="#000000" stroke-linecap="round" stroke-linejoin="round" stroke-width="2.0"/>
    <path d="M35.2 -37.05 Q33.5 -37.05 32.3 -35.85 31.1 -34.65 31.1 -32.95 31.1 -31.25 32.3 -30.05 33.5 -28.85 35.2 -28.85 36.9 -28.85 38.1 -30.05 39.3 -31.25 39.3 -32.95 39.3 -34.65 38.1 -35.85 36.9 -37.05 35.2 -37.05 M19.2 -32.95 Q19.2 -34.65 18.0 -35.85 16.75 -37.05 15.05 -37.05 13.35 -37.05 12.15 -35.85 10.95 -34.65 10.95 -32.95 10.95 -31.25 12.15 -30.05 13.35 -28.85 15.05 -28.85 16.75 -28.85 18.0 -30.05 19.2 -31.25 19.2 -32.95 M-43.6 -37.05 Q-41.9 -37.05 -40.7 -35.85 -39.5 -34.65 -39.5 -32.95 -39.5 -31.25 -40.7 -30.05 -41.9 -28.85 -43.6 -28.85 -45.3 -28.85 -46.55 -30.05 -47.75 -31.25 -47.75 -32.95 -47.75 -34.65 -46.55 -35.85 -45.3 -37.05 -43.6 -37.05 M-1.8 -30.05 Q-3.0 -28.85 -4.7 -28.85 -6.45 -28.85 -7.65 -30.05 -8.85 -31.25 -8.85 -32.95 -8.85 -34.65 -7.65 -35.85 -6.45 -37.05 -4.7 -37.05 -3.0 -37.05 -1.8 -35.85 -0.6 -34.65 -0.6 -32.95 -0.6 -31.25 -1.8 -30.05 M-27.8 -35.85 Q-26.55 -37.05 -24.85 -37.05 -23.15 -37.05 -21.95 -35.85 -20.75 -34.65 -20.75 -32.95 -20.75 -31.25 -21.95 -30.05 -23.15 -28.85 -24.85 -28.85 -26.55 -28.85 -27.8 -30.05 -29.0 -31.25 -29.0 -32.95 -29.0 -34.65 -27.8 -35.85" fill="none" stroke="#000000" stroke-linecap="round" stroke-linejoin="round" stroke-width="1.5"/>
  </g>
</svg>
