<?xml version="1.0" encoding="UTF-8" standalone="no"?>
<svg xmlns:xlink="http://www.w3.org/1999/xlink" height="89.8px" width="138.8px" xmlns="http://www.w3.org/2000/svg">
  <g transform="matrix(1.0, 0.0, 0.0, 1.0, 86.85, 81.3)">
    <path d="M-65.35 -51.0 L-61.2 -23.7 Q-60.95 -19.35 -49.7 -19.3 -11.45 -17.75 23.6 -29.25 37.65 -33.8 36.65 -41.3 L33.0 -65.8 -14.6 -45.5 -65.35 -51.0 -79.1 -52.5 -79.15 -15.4 Q-75.2 -15.2 -74.05 -10.2 L-73.65 2.35 Q-73.75 6.25 -78.7 7.5 -82.15 6.8 -83.25 3.5 L-83.85 -10.25 Q-83.3 -15.0 -79.15 -15.4 M33.0 -65.8 L50.95 -73.45 -21.3 -80.3 Q-53.55 -66.75 -85.85 -53.25 L-79.1 -52.5" fill="none" stroke="#000000" stroke-linecap="round" stroke-linejoin="round" stroke-width="2.0"/>
  </g>
</svg>
