<?xml version="1.0" encoding="UTF-8" standalone="no"?>
<svg xmlns:xlink="http://www.w3.org/1999/xlink" height="79.55px" width="105.7px" xmlns="http://www.w3.org/2000/svg">
  <g transform="matrix(1.0, 0.0, 0.0, 1.0, 58.25, 90.45)">
    <path d="M-13.35 -60.2 Q-14.55 -74.1 -20.45 -80.8 -47.1 -68.95 -48.5 -38.1 L-48.6 -34.75 Q-36.55 -26.45 -5.4 -24.85 32.95 -23.65 37.8 -34.75 L37.7 -38.1 Q36.3 -68.95 12.3 -81.75 16.3 -76.05 17.9 -62.6 M-20.45 -80.8 Q-20.85 -82.65 -19.1 -83.05 L-11.6 -83.9 Q-11.05 -89.0 -5.0 -89.4 1.05 -89.8 3.6 -84.65 L8.05 -83.9 Q10.25 -83.55 12.3 -81.75 M11.9 -51.75 Q10.05 -78.25 3.6 -84.65 M37.7 -38.1 Q49.05 -33.95 45.7 -28.3 40.1 -9.65 -1.9 -12.2 -45.7 -14.2 -56.5 -28.3 -59.85 -33.95 -48.5 -38.1 M-11.6 -83.9 L-11.7 -83.15 Q-2.8 -78.95 1.0 -51.6" fill="none" stroke="#000000" stroke-linecap="round" stroke-linejoin="round" stroke-width="2.0"/>
  </g>
</svg>
