<?xml version="1.0" encoding="UTF-8" standalone="no"?>
<svg xmlns:xlink="http://www.w3.org/1999/xlink" height="100.65px" width="103.75px" xmlns="http://www.w3.org/2000/svg">
  <g transform="matrix(1.0, 0.0, 0.0, 1.0, 90.45, 114.9)">
    <path d="M12.25 -42.5 Q12.4 -38.65 11.95 -34.4 2.7 -27.0 -21.85 -20.55 -46.3 -13.85 -58.05 -15.65 -60.65 -19.1 -62.45 -22.5 -70.45 -37.9 -63.55 -53.0 -55.1 -69.9 -38.8 -75.6 L-43.7 -93.85 Q-54.9 -81.1 -69.25 -77.5 -87.3 -74.15 -89.4 -82.85 -90.5 -91.8 -72.4 -97.75 -61.55 -101.95 -42.05 -95.85 -28.2 -110.9 -16.75 -112.65 2.0 -116.6 5.45 -108.25 8.0 -99.7 -9.3 -93.55 -23.5 -89.5 -39.6 -94.95 L-34.7 -76.7 Q-17.75 -79.9 -1.95 -69.5 11.5 -59.85 12.25 -42.5 0.5 -34.6 -13.25 -30.6 L-24.05 -27.5 -34.35 -24.95 Q-48.2 -21.55 -62.45 -22.5 M-38.8 -75.6 L-36.75 -76.25 -34.7 -76.7 M-13.25 -30.6 Q-11.55 -66.3 -36.75 -76.25 -53.75 -55.0 -34.35 -24.95" fill="none" stroke="#000000" stroke-linecap="round" stroke-linejoin="round" stroke-width="2.0"/>
  </g>
</svg>
