<?xml version="1.0" encoding="UTF-8" standalone="no"?>
<svg xmlns:xlink="http://www.w3.org/1999/xlink" height="67.55px" width="67.15px" xmlns="http://www.w3.org/2000/svg">
  <g transform="matrix(1.0, 0.0, 0.0, 1.0, 36.7, 100.35)">
    <path d="M9.9 -79.25 Q11.05 -80.1 12.6 -80.2 L13.0 -80.2 Q14.8 -80.2 16.1 -79.25 17.35 -78.2 17.35 -76.8 17.35 -75.4 16.1 -74.4 14.8 -73.4 13.0 -73.4 11.15 -73.4 9.9 -74.4 8.65 -75.4 8.65 -76.8 8.65 -78.2 9.9 -79.25 M-7.05 -79.25 Q-5.75 -78.2 -5.75 -76.8 -5.75 -75.4 -7.05 -74.4 -8.3 -73.4 -10.1 -73.4 -11.95 -73.4 -13.2 -74.4 -14.45 -75.4 -14.45 -76.8 -14.45 -78.2 -13.2 -79.25 -11.95 -80.2 -10.1 -80.2 L-9.75 -80.2 Q-8.2 -80.1 -7.05 -79.25" fill="#ffa6ba" fill-rule="evenodd" stroke="none"/>
    <path d="M2.05 -81.65 L5.4 -76.05 2.05 -72.0 -2.3 -76.0 2.05 -81.65" fill="#8c220e" fill-opacity="0.627451" fill-rule="evenodd" stroke="none"/>
    <path d="M2.05 -81.65 L-2.3 -76.0 2.05 -72.0 5.4 -76.05 2.05 -81.65" fill="none" stroke="#000000" stroke-linecap="round" stroke-linejoin="round" stroke-width="1.5"/>
    <path d="M-25.8 -75.5 L-25.65 -76.8 Q-25.4 -97.1 -3.1 -99.35 19.15 -97.1 19.45 -76.8 L19.6 -75.5 Q29.6 -79.3 27.55 -69.0 29.6 -68.8 29.45 -64.7 24.3 -34.9 -3.1 -33.8 -30.55 -34.9 -35.7 -64.7 -35.85 -68.8 -33.75 -69.0 -35.85 -79.3 -25.8 -75.5 -26.2 -71.2 -24.5 -64.9 -20.9 -62.4 -17.3 -64.5 -8.4 -70.0 -3.1 -71.3 2.2 -70.0 11.1 -64.5 14.7 -62.4 18.3 -64.9 19.95 -71.2 19.6 -75.5 M12.6 -80.2 L12.6 -83.05 M27.55 -69.0 L25.3 -68.5 18.3 -64.9 M-9.75 -80.2 L-9.75 -83.05 M-24.5 -64.9 L-31.5 -68.5 Q-32.85 -69.1 -33.75 -69.0" fill="none" stroke="#000000" stroke-linecap="round" stroke-linejoin="round" stroke-width="2.0"/>
  </g>
</svg>
