<?xml version="1.0" encoding="UTF-8" standalone="no"?>
<svg xmlns:xlink="http://www.w3.org/1999/xlink" height="80.25px" width="87.5px" xmlns="http://www.w3.org/2000/svg">
  <g transform="matrix(1.0, 0.0, 0.0, 1.0, 108.05, 81.8)">
    <path d="M-67.0 -50.7 Q-67.0 -49.3 -68.45 -48.3 -69.85 -47.3 -71.9 -47.3 -73.95 -47.3 -75.4 -48.3 -76.8 -49.3 -76.8 -50.7 -76.8 -52.1 -75.4 -53.1 -73.95 -54.1 -71.9 -54.1 -69.85 -54.1 -68.45 -53.1 -67.0 -52.1 -67.0 -50.7 M-44.45 -53.55 Q-42.4 -53.55 -41.0 -52.55 -39.55 -51.55 -39.55 -50.15 -39.55 -48.75 -41.0 -47.75 -42.4 -46.75 -44.45 -46.75 -46.5 -46.75 -47.95 -47.75 -49.35 -48.75 -49.35 -50.15 -49.35 -51.55 -47.95 -52.55 -46.5 -53.55 -44.45 -53.55" fill="#ffa6b8" fill-rule="evenodd" stroke="none"/>
    <path d="M-74.8 -80.8 Q-67.2 -80.8 -65.45 -75.75 L-64.55 -75.8 Q-48.65 -75.8 -38.8 -57.55 -22.45 -61.05 -21.55 -54.3 -22.3 -45.95 -36.2 -38.3 -37.85 -28.35 -47.45 -22.85 -47.0 -21.65 -46.9 -19.8 -46.65 -14.6 -50.6 -14.3 -53.95 -15.35 -53.8 -20.2 L-53.8 -20.3 -55.8 -20.1 Q-54.05 -2.3 -62.3 -2.55 -68.4 -2.9 -68.55 -11.8 -69.65 -2.1 -76.3 -2.55 -82.6 -3.05 -81.8 -12.05 -84.75 -1.9 -89.55 -3.05 -95.6 -5.3 -94.3 -10.8 L-85.9 -25.9 Q-91.85 -30.9 -93.0 -39.45 -95.95 -40.05 -99.55 -42.05 L-102.0 -44.3 Q-109.25 -51.5 -106.05 -55.8 -104.05 -56.9 -102.0 -57.45 -96.4 -59.1 -90.55 -57.05 -80.25 -75.1 -65.45 -75.75 M-90.55 -57.05 Q-80.6 -52.35 -82.55 -45.05 -85.95 -38.1 -93.0 -39.45 M-71.55 -55.05 Q-68.8 -58.95 -66.05 -55.05 M-53.8 -52.3 L-58.3 -47.8 -63.3 -52.05 -58.3 -57.8 -53.8 -52.3 M-50.2 -55.05 Q-47.45 -58.95 -44.7 -55.05 M-55.8 -20.1 L-63.6 -19.5 Q-63.5 -14.6 -67.3 -14.3 -70.5 -15.3 -70.5 -19.75 -80.35 -21.25 -85.9 -25.9 M-70.5 -19.75 L-70.5 -20.2 Q-70.4 -25.05 -67.1 -25.05 -63.85 -25.05 -63.6 -19.8 L-63.6 -19.5 M-53.8 -20.3 Q-53.65 -25.05 -50.4 -25.05 -48.3 -25.05 -47.45 -22.85 M-36.2 -38.3 Q-34.85 -46.45 -38.8 -57.55" fill="none" stroke="#000000" stroke-linecap="round" stroke-linejoin="round" stroke-width="2.0"/>
  </g>
</svg>
