<?xml version="1.0" encoding="UTF-8" standalone="no"?>
<svg xmlns:xlink="http://www.w3.org/1999/xlink" height="83.65px" width="81.8px" xmlns="http://www.w3.org/2000/svg">
  <g transform="matrix(1.0, 0.0, 0.0, 1.0, 105.3, 97.65)">
    <path d="M-76.45 -54.9 Q-78.15 -54.9 -79.35 -55.8 -80.6 -56.7 -80.6 -57.95 -80.6 -59.2 -79.35 -60.1 -78.15 -61.0 -76.45 -61.0 -74.75 -61.0 -73.55 -60.1 -72.35 -59.2 -72.35 -57.95 -72.35 -56.7 -73.55 -55.8 -74.75 -54.9 -76.45 -54.9 M-56.45 -57.95 Q-56.45 -59.2 -55.25 -60.1 -54.05 -61.0 -52.35 -61.0 -50.65 -61.0 -49.45 -60.1 -48.2 -59.2 -48.2 -57.95 -48.2 -56.7 -49.45 -55.8 -50.65 -54.9 -52.35 -54.9 -54.05 -54.9 -55.25 -55.8 -56.45 -56.7 -56.45 -57.95" fill="#fe6e6e" fill-rule="evenodd" stroke="none"/>
    <path d="M-64.4 -57.25 Q-68.9 -57.75 -68.6 -63.8 L-60.15 -63.8 Q-59.9 -57.75 -64.4 -57.25" fill="#ffb1ba" fill-rule="evenodd" stroke="none"/>
    <path d="M-81.5 -73.0 Q-74.5 -80.05 -64.5 -80.05 -54.3 -80.05 -47.25 -73.0 -40.25 -65.95 -40.25 -56.0 -40.25 -46.0 -47.25 -38.95 -54.3 -31.9 -64.5 -31.9 -74.5 -31.9 -81.5 -38.95 -88.55 -46.0 -88.55 -56.0 -88.55 -65.95 -81.5 -73.0 M-100.75 -71.1 L-95.35 -68.25 M-104.3 -55.85 Q-98.6 -49.2 -89.95 -45.5 -93.4 -35.15 -93.5 -27.0 -84.65 -26.65 -75.2 -30.95 -71.6 -21.45 -64.4 -15.0 -57.15 -21.45 -53.6 -30.95 -44.1 -26.65 -35.3 -27.0 -35.4 -35.15 -38.8 -45.5 -30.2 -49.2 -24.5 -55.85 -30.0 -61.95 -39.55 -66.4 -35.5 -75.85 -36.0 -84.2 -42.55 -84.7 -54.05 -81.15 -57.2 -88.9 -64.4 -96.65 -71.6 -88.9 -74.7 -81.15 -86.25 -84.7 -92.8 -84.2 -93.3 -75.85 -89.25 -66.4 -98.8 -61.95 -104.3 -55.85 M-95.15 -43.15 L-101.0 -40.1 M-28.05 -71.1 L-33.45 -68.25 M-49.15 -92.2 L-51.75 -86.55 M-79.65 -92.2 L-77.05 -86.55 M-75.65 -61.45 L-75.65 -64.3 M-53.15 -61.45 L-53.15 -64.3 M-51.5 -24.15 L-49.15 -18.75 M-77.3 -24.15 L-79.65 -18.75 M-33.65 -43.15 L-27.8 -40.1" fill="none" stroke="#000000" stroke-linecap="round" stroke-linejoin="round" stroke-width="2.0"/>
    <path d="M-64.4 -57.25 Q-59.9 -57.75 -60.15 -63.8 L-68.6 -63.8 Q-68.9 -57.75 -64.4 -57.25" fill="none" stroke="#000000" stroke-linecap="round" stroke-linejoin="round" stroke-width="1.2000000000000002"/>
  </g>
</svg>
