<?xml version="1.0" encoding="UTF-8" standalone="no"?>
<svg xmlns:xlink="http://www.w3.org/1999/xlink" height="69.95px" width="77.15px" xmlns="http://www.w3.org/2000/svg">
  <g transform="matrix(1.0, 0.0, 0.0, 1.0, 42.2, 89.05)">
    <path d="M0.35 -62.0 Q-0.85 -64.35 -0.85 -67.1 -0.85 -71.65 2.35 -74.85 5.55 -78.05 10.1 -78.05 14.6 -78.05 17.8 -74.85 21.0 -71.65 21.0 -67.1 21.0 -62.6 17.8 -59.4 14.6 -56.2 10.1 -56.2 5.55 -56.2 2.35 -59.4 L1.95 -59.8 0.35 -62.0 M10.1 -65.85 L10.1 -69.4 10.1 -65.85 M-9.2 -59.8 L-9.6 -59.4 Q-12.8 -56.2 -17.3 -56.2 -21.85 -56.2 -25.05 -59.4 -28.25 -62.6 -28.25 -67.1 -28.25 -71.65 -25.05 -74.85 -21.85 -78.05 -17.3 -78.05 -12.8 -78.05 -9.6 -74.85 -6.4 -71.65 -6.4 -67.1 -6.4 -64.35 -7.6 -62.0 L-9.2 -59.8 M-17.35 -65.85 L-17.35 -69.4 -17.35 -65.85" fill="#ffffff" fill-rule="evenodd" stroke="none"/>
    <path d="M9.3 -27.85 L9.45 -26.35 Q9.2 -20.65 5.45 -20.15 0.45 -19.55 0.6 -26.35 0.95 -32.85 5.0 -32.8 8.55 -32.6 9.3 -27.85 M-7.85 -26.35 Q-7.7 -19.55 -12.7 -20.15 -16.45 -20.65 -16.7 -26.35 L-16.5 -27.85 -16.5 -27.9 Q-15.75 -32.6 -12.25 -32.35 -8.2 -32.85 -7.85 -26.35 M0.35 -62.0 L1.95 -59.8 -1.45 -54.3 -3.6 -50.75 -5.8 -54.3 -9.2 -59.8 -7.6 -62.0 -3.6 -64.95 0.35 -62.0" fill="#fbde56" fill-rule="evenodd" stroke="none"/>
    <path d="M-16.5 -27.85 Q-23.2 -30.5 -27.55 -34.8 -36.65 -29.4 -40.4 -34.6 -43.5 -42.55 -34.3 -51.0 -34.65 -56.75 -32.8 -62.95 L-32.9 -63.25 Q-33.95 -68.55 -30.9 -74.5 -37.5 -78.25 -38.65 -84.25 -39.3 -89.4 -35.3 -87.55 -27.7 -83.7 -18.2 -82.6 -12.0 -87.5 -3.6 -87.35 4.75 -87.5 10.95 -82.6 20.45 -83.7 28.1 -87.55 32.05 -89.4 31.4 -84.25 30.25 -78.25 23.65 -74.5 26.7 -68.55 25.65 -63.25 L25.55 -62.95 Q27.4 -56.75 27.05 -51.0 36.25 -42.55 33.2 -34.6 29.4 -29.4 20.3 -34.8 16.0 -30.5 9.3 -27.85 L9.45 -26.35 Q9.2 -20.65 5.45 -20.15 0.45 -19.55 0.6 -26.35 L-7.85 -26.35 Q-7.7 -19.55 -12.7 -20.15 -16.45 -20.65 -16.7 -26.35 L-16.5 -27.85 -16.5 -27.9 Q-24.15 -39.2 -20.75 -50.45 -23.55 -51.25 -26.45 -53.2 -31.65 -57.75 -32.8 -62.95 M1.95 -59.8 L2.35 -59.4 Q5.55 -56.2 10.1 -56.2 14.6 -56.2 17.8 -59.4 21.0 -62.6 21.0 -67.1 21.0 -71.65 17.8 -74.85 14.6 -78.05 10.1 -78.05 5.55 -78.05 2.35 -74.85 -0.85 -71.65 -0.85 -67.1 -0.85 -64.35 0.35 -62.0 L1.95 -59.8 -1.45 -54.3 Q5.25 -48.75 12.25 -50.15 15.7 -50.85 19.2 -53.2 24.4 -57.75 25.55 -62.95 M10.1 -69.4 L10.1 -65.85 M27.05 -51.0 Q26.6 -44.1 23.0 -37.9 L20.3 -34.8 M9.3 -27.85 Q8.55 -32.6 5.0 -32.8 0.95 -32.85 0.6 -26.35 M12.25 -50.15 Q15.0 -37.75 9.3 -27.85 M-18.2 -82.6 L-3.6 -82.0 10.95 -82.6 M-9.2 -59.8 L-9.6 -59.4 Q-12.8 -56.2 -17.3 -56.2 -21.85 -56.2 -25.05 -59.4 -28.25 -62.6 -28.25 -67.1 -28.25 -71.65 -25.05 -74.85 -21.85 -78.05 -17.3 -78.05 -12.8 -78.05 -9.6 -74.85 -6.4 -71.65 -6.4 -67.1 -6.4 -64.35 -7.6 -62.0 L-3.6 -64.95 0.35 -62.0 M-17.35 -69.4 L-17.35 -65.85 M-5.8 -54.3 L-9.2 -59.8 -7.6 -62.0 M-5.8 -54.3 L-3.6 -50.75 -1.45 -54.3 M-20.75 -50.45 Q-13.05 -48.3 -5.8 -54.3 M-16.5 -27.9 Q-15.75 -32.6 -12.25 -32.35 -8.2 -32.85 -7.85 -26.35 M-34.3 -51.0 Q-33.85 -44.1 -30.25 -37.9 L-27.55 -34.8" fill="none" stroke="#000000" stroke-linecap="round" stroke-linejoin="round" stroke-width="2.0"/>
  </g>
</svg>
