<?xml version="1.0" encoding="UTF-8" standalone="no"?>
<svg xmlns:xlink="http://www.w3.org/1999/xlink" height="66.85px" width="78.35px" xmlns="http://www.w3.org/2000/svg">
  <g transform="matrix(1.0, 0.0, 0.0, 1.0, 44.95, 94.35)">
    <path d="M18.45 -62.7 Q13.95 -64.25 7.45 -65.05 -14.25 -67.35 -24.85 -72.0 -34.5 -64.9 -33.6 -56.1 -31.65 -50.2 1.85 -50.45 19.1 -50.5 26.65 -46.15 32.6 -57.9 18.45 -62.7 21.75 -77.25 6.8 -82.1 -2.4 -85.5 -1.3 -93.35 -22.3 -85.6 -24.85 -72.0 M-33.6 -56.1 Q-43.8 -46.1 -43.95 -37.25 -44.4 -29.65 -32.5 -28.5 L24.05 -28.5 Q32.9 -28.85 32.35 -38.15 31.85 -43.2 26.65 -46.15" fill="none" stroke="#000000" stroke-linecap="round" stroke-linejoin="round" stroke-width="2.0"/>
  </g>
</svg>
