<?xml version="1.0" encoding="UTF-8" standalone="no"?>
<svg xmlns:xlink="http://www.w3.org/1999/xlink" height="65.75px" width="82.35px" xmlns="http://www.w3.org/2000/svg">
  <g transform="matrix(1.0, 0.0, 0.0, 1.0, 45.2, 90.05)">
    <path d="M17.5 -71.35 L11.5 -77.55 14.35 -82.35 11.6 -86.85 Q5.25 -84.25 -1.05 -76.2 0.9 -71.95 2.6 -66.3 4.15 -58.85 1.2 -52.15 L28.0 -52.15 Q31.0 -59.1 30.4 -66.05 28.85 -85.5 19.65 -88.1 15.6 -88.6 11.6 -86.85 M28.0 -52.15 L31.15 -52.15 Q36.35 -51.9 36.15 -46.15 34.35 -40.05 30.9 -35.7 23.9 -26.8 10.3 -25.3 L-18.45 -25.3 Q-36.5 -27.1 -42.05 -39.7 -47.6 -52.3 -38.85 -52.15 L-31.65 -52.15 Q-35.85 -65.8 -28.8 -78.3 -23.3 -88.35 -14.65 -89.05 -6.8 -88.75 -1.05 -76.2 M7.4 -31.05 Q19.9 -31.85 30.9 -35.7 M18.9 -45.95 L25.65 -46.9 M-36.2 -45.95 Q-25.65 -42.05 -15.1 -42.1 M-27.6 -33.25 Q-21.8 -30.4 -16.05 -30.85 M-31.65 -52.15 L1.2 -52.15 M-1.7 -37.8 Q9.9 -37.0 19.65 -40.9 M-6.75 -46.4 Q0.0 -44.7 6.7 -46.4" fill="none" stroke="#000000" stroke-linecap="round" stroke-linejoin="round" stroke-width="2.0"/>
  </g>
</svg>
