<?xml version="1.0" encoding="UTF-8" standalone="no"?>
<svg xmlns:xlink="http://www.w3.org/1999/xlink" height="68.1px" width="56.9px" xmlns="http://www.w3.org/2000/svg">
  <g transform="matrix(1.0, 0.0, 0.0, 1.0, 65.6, 102.1)">
    <path d="M-50.9 -87.35 Q-53.45 -94.2 -49.45 -98.0 -44.1 -102.55 -37.6 -97.75 -31.9 -104.15 -25.0 -98.35 -19.6 -92.1 -23.8 -86.95 -18.75 -91.2 -12.4 -85.75 -6.7 -78.95 -13.05 -73.2 -8.3 -66.75 -12.85 -61.4 -14.9 -59.15 -17.85 -58.9 -11.15 -50.8 -10.0 -44.05 -8.75 -36.8 -12.9 -35.05 -17.45 -34.4 -17.25 -39.4 -16.55 -46.5 -22.65 -52.8 -23.25 -50.8 -24.9 -49.35 -30.25 -44.8 -36.7 -49.55 -42.45 -43.2 -49.3 -48.85 -54.75 -55.2 -50.45 -60.3 -55.6 -56.1 -61.9 -61.45 -67.65 -68.4 -61.25 -74.1 -66.05 -80.6 -61.5 -85.95 -57.75 -89.9 -50.9 -87.35 L-37.15 -73.6 -23.8 -86.95 M-17.85 -58.9 Q-20.35 -58.7 -23.4 -59.85 -21.85 -55.8 -22.65 -52.8 M-23.4 -59.85 L-37.15 -73.6 -50.45 -60.3" fill="none" stroke="#000000" stroke-linecap="round" stroke-linejoin="round" stroke-width="2.0"/>
  </g>
</svg>
