<?xml version="1.0" encoding="UTF-8" standalone="no"?>
<svg xmlns:xlink="http://www.w3.org/1999/xlink" height="65.45px" width="73.5px" xmlns="http://www.w3.org/2000/svg">
  <g transform="matrix(1.0, 0.0, 0.0, 1.0, 37.6, 91.75)">
    <path d="M28.05 -79.45 L29.85 -77.45 Q39.05 -63.85 31.5 -60.25 22.7 -57.5 13.8 -56.8 17.45 -51.95 11.6 -52.15 L13.9 -33.3 Q14.45 -27.7 10.55 -27.3 L-12.25 -27.3 Q-16.15 -27.7 -15.55 -33.3 L-13.3 -52.15 Q-19.15 -51.95 -15.5 -56.8 -22.2 -57.35 -28.85 -59.0 L-33.2 -60.25 Q-40.75 -63.85 -31.55 -77.45 -28.05 -81.65 -23.75 -84.5 -17.2 -89.0 -8.7 -90.25 L-0.85 -90.75 Q6.4 -90.9 12.6 -89.05 21.5 -86.35 28.05 -79.45 27.35 -77.7 25.9 -76.25 23.2 -73.55 19.4 -73.55 15.6 -73.55 12.85 -76.25 10.15 -78.95 10.15 -82.8 10.15 -86.4 12.6 -89.05 M3.1 -64.1 Q1.65 -65.55 1.65 -67.6 1.65 -69.65 3.1 -71.1 4.55 -72.55 6.6 -72.55 8.6 -72.55 10.05 -71.1 11.5 -69.65 11.5 -67.6 11.5 -65.55 10.05 -64.1 8.6 -62.65 6.6 -62.65 4.55 -62.65 3.1 -64.1 M-13.3 -52.15 Q-9.9 -50.6 -7.95 -51.05 -7.2 -51.2 -6.65 -51.75 -3.75 -52.25 -0.85 -50.95 2.05 -52.25 4.95 -51.75 6.8 -49.95 11.6 -52.15 M-8.7 -90.25 L-8.5 -88.25 Q-8.5 -84.9 -10.85 -82.55 -13.25 -80.15 -16.6 -80.15 -19.95 -80.15 -22.3 -82.55 L-23.75 -84.5 M-28.85 -59.0 Q-28.35 -62.6 -25.7 -65.25 -22.35 -68.55 -17.65 -68.55 -12.9 -68.55 -9.6 -65.25 -6.25 -61.9 -6.25 -57.15 L-6.25 -56.7 -0.85 -57.15 Q6.5 -56.3 13.8 -56.8 M-6.25 -56.7 Q-10.85 -56.5 -15.5 -56.8" fill="none" stroke="#000000" stroke-linecap="round" stroke-linejoin="round" stroke-width="2.0"/>
  </g>
</svg>
