<?xml version="1.0" encoding="UTF-8" standalone="no"?>
<svg xmlns:xlink="http://www.w3.org/1999/xlink" height="64.4px" width="72.25px" xmlns="http://www.w3.org/2000/svg">
  <g transform="matrix(1.0, 0.0, 0.0, 1.0, 38.8, 75.25)">
    <path d="M10.2 -56.05 Q14.7 -58.55 20.7 -59.45 18.45 -68.3 16.1 -70.1 11.8 -70.35 5.4 -65.8 7.85 -61.8 10.2 -56.05 -1.4 -49.6 -2.7 -32.9 -3.95 -49.6 -15.6 -56.05 -20.1 -58.55 -26.1 -59.45 L-37.4 -60.0 Q-39.6 -42.9 -29.15 -31.9 -19.3 -24.85 -2.7 -24.65 13.95 -24.85 23.75 -31.9 34.25 -42.9 32.05 -60.0 L20.7 -59.45 M23.75 -31.9 Q32.0 -25.9 27.1 -19.9 L24.85 -18.15 Q17.3 -17.4 11.15 -19.5 L14.5 -13.8 Q7.3 -12.05 -2.7 -11.85 -24.0 -12.25 -32.45 -19.9 -37.35 -25.9 -29.15 -31.9 M-26.1 -59.45 Q-23.8 -68.3 -21.5 -70.1 -17.2 -70.35 -10.8 -65.8 -6.85 -72.3 -2.7 -74.25 1.5 -72.3 5.4 -65.8 M-15.6 -56.05 Q-13.25 -61.8 -10.8 -65.8 M-21.5 -20.1 L-13.0 -23.0 M-3.1 -21.15 L-3.1 -17.4" fill="none" stroke="#000000" stroke-linecap="round" stroke-linejoin="round" stroke-width="2.0"/>
  </g>
</svg>
