<?xml version="1.0" encoding="UTF-8" standalone="no"?>
<svg xmlns:xlink="http://www.w3.org/1999/xlink" height="101.3px" width="99.7px" xmlns="http://www.w3.org/2000/svg">
  <g transform="matrix(1.0, 0.0, 0.0, 1.0, 54.45, 126.35)">
    <path d="M-0.5 -113.6 L2.5 -114.1 3.2 -114.1 10.2 -125.35 16.9 -114.15 Q27.35 -114.25 32.25 -108.0 35.15 -102.5 38.05 -101.6 43.25 -98.9 42.45 -92.25 42.3 -88.65 40.9 -86.25 46.6 -83.7 42.55 -75.05 36.45 -63.6 18.8 -61.5 L18.8 -51.45 18.8 -49.1 Q18.9 -46.25 18.65 -43.75 22.45 -41.0 21.75 -34.4 27.25 -35.0 30.75 -30.45 32.25 -27.1 27.55 -26.05 L10.05 -26.05 -16.05 -26.05 -31.6 -26.05 Q-49.45 -27.05 -52.9 -52.0 -54.6 -58.35 -50.85 -60.35 -48.15 -60.7 -46.5 -58.3 L-46.25 -57.75 -36.4 -57.75 -42.1 -48.4 Q-38.8 -42.7 -34.7 -40.8 L-31.75 -40.0 -32.6 -47.25 -25.1 -44.95 -23.25 -50.5 -31.35 -58.0 -19.75 -61.1 -18.95 -63.3 Q-30.0 -66.35 -36.6 -76.8 -41.25 -86.7 -34.25 -89.9 -27.9 -90.95 -26.1 -83.8 -24.65 -81.1 -22.9 -79.25 -18.8 -81.6 -12.6 -82.2 L-11.95 -86.4 -23.15 -94.6 -11.55 -99.2 Q-11.1 -103.25 -9.65 -106.2 L-10.35 -118.5 -0.5 -113.6 Q-6.85 -111.95 -9.65 -106.2 M10.35 -107.4 L10.35 -103.6 M16.9 -114.15 L14.15 -114.1 3.2 -114.1 M25.35 -107.4 L25.35 -103.6 M-15.3 -46.45 Q-5.75 -48.8 -1.75 -42.85 0.95 -44.95 2.3 -51.45 3.25 -55.85 3.5 -62.4 L3.55 -63.1 Q4.2 -72.2 9.9 -73.1 15.8 -74.1 18.8 -67.45 L18.8 -73.75 18.8 -78.25 Q18.8 -81.5 22.9 -81.75 L31.95 -81.75 Q38.4 -82.05 40.9 -86.25 M27.25 -90.2 Q30.9 -86.55 35.45 -90.2 M3.55 -63.1 L18.8 -63.1 18.8 -67.45 M18.8 -61.5 L18.8 -63.1 M2.3 -51.45 L18.8 -51.45 M18.8 -73.75 Q29.15 -75.75 31.95 -81.75 M18.65 -43.75 Q17.55 -32.4 9.8 -29.1 10.15 -27.75 10.05 -26.05 M-1.75 -42.85 Q0.15 -39.95 0.75 -35.1 8.3 -34.3 9.8 -29.1 M-11.55 -99.2 L-11.8 -96.9 Q-11.4 -91.65 -11.95 -86.4 M-12.6 -82.2 Q-13.3 -78.8 -14.35 -75.3 L-13.25 -75.35 Q-7.85 -74.95 -6.85 -71.85 M-18.95 -63.3 L-12.4 -62.2 Q-7.2 -62.4 -5.65 -67.15 M-22.9 -79.25 Q-19.25 -75.4 -14.35 -75.3 M-19.75 -61.1 L-23.25 -50.5 M-25.1 -44.95 L-26.25 -41.5 Q-27.5 -39.25 -31.75 -40.0 M-19.1 -42.55 Q-21.95 -31.0 -16.05 -26.05 M-46.25 -57.75 Q-44.4 -52.2 -42.1 -48.4" fill="none" stroke="#000000" stroke-linecap="round" stroke-linejoin="round" stroke-width="2.0"/>
  </g>
</svg>
