<?xml version="1.0" encoding="UTF-8" standalone="no"?>
<svg xmlns:xlink="http://www.w3.org/1999/xlink" height="78.3px" width="69.5px" xmlns="http://www.w3.org/2000/svg">
  <g transform="matrix(1.0, 0.0, 0.0, 1.0, 42.15, 109.4)">
    <path d="M22.3 -69.75 L26.35 -69.75 Q26.3 -66.1 25.7 -62.9 L-40.65 -62.9 Q-41.15 -66.1 -41.15 -69.75 L-37.85 -69.75 -32.9 -69.75 -27.05 -69.75 -16.25 -69.75 -11.25 -69.75 -6.3 -69.75 -4.3 -69.75 1.55 -69.75 12.35 -69.75 17.35 -69.75 22.3 -69.75 M5.55 -41.7 L5.55 -35.55 Q4.9 -31.8 -7.8 -32.1 -20.35 -32.15 -21.45 -35.55 L-21.45 -41.95 Q-15.25 -40.3 -7.1 -40.4 0.0 -40.4 5.55 -41.7" fill="#eeeced" fill-rule="evenodd" stroke="none"/>
    <path d="M-37.85 -69.75 Q-37.35 -75.25 -33.3 -79.3 -29.05 -83.5 -23.15 -83.85 -22.1 -87.6 -19.15 -90.5 -14.5 -95.15 -7.95 -95.15 -1.4 -95.15 3.25 -90.5 L3.7 -90.1 7.95 -105.35 Q8.6 -108.65 10.7 -108.35 13.05 -108.05 12.65 -105.15 L6.4 -86.2 7.3 -83.85 9.0 -83.75 19.1 -105.15 Q20.5 -107.0 21.85 -106.4 23.9 -106.0 22.8 -103.6 L13.35 -82.4 Q15.75 -81.25 17.7 -79.3 21.75 -75.25 22.3 -69.75 L26.35 -69.75 Q26.3 -66.1 25.7 -62.9 22.6 -45.9 5.55 -41.7 L5.55 -35.55 Q4.9 -31.8 -7.8 -32.1 -20.35 -32.15 -21.45 -35.55 L-21.45 -41.95 Q-37.95 -46.3 -40.65 -62.9 -41.15 -66.1 -41.15 -69.75 L-37.85 -69.75 -32.9 -69.75 -27.05 -69.75 -16.25 -69.75 -11.25 -69.75 -6.3 -69.75 Q-6.55 -72.6 -7.8 -75.05 -8.9 -77.3 -10.9 -79.3 L-12.9 -81.0 Q-15.2 -82.65 -17.85 -83.35 L-22.1 -83.9 -23.15 -83.85 M2.05 -83.3 L6.5 -83.9 7.3 -83.85 M9.0 -83.75 Q11.3 -83.4 13.35 -82.4 M3.7 -90.1 Q5.35 -88.3 6.4 -86.2 M-4.3 -69.75 L1.55 -69.75 12.35 -69.75 17.35 -69.75 22.3 -69.75 M-2.25 -81.3 Q-0.25 -82.65 2.05 -83.3 M-7.8 -75.05 Q-6.7 -77.3 -4.7 -79.3 L-2.25 -81.3 M-6.3 -69.75 L-4.3 -69.75" fill="none" stroke="#000000" stroke-linecap="round" stroke-linejoin="round" stroke-width="2.0"/>
    <path d="M-32.9 -69.75 Q-32.2 -72.65 -30.0 -74.85 -26.7 -78.1 -22.1 -78.1 -17.45 -78.1 -14.2 -74.85 -11.95 -72.65 -11.25 -69.75 M17.35 -69.75 Q16.65 -72.65 14.4 -74.85 11.15 -78.1 6.5 -78.1 1.9 -78.1 -1.4 -74.85 -3.6 -72.65 -4.3 -69.75 M1.55 -69.75 Q1.95 -70.85 2.85 -71.75 4.55 -73.4 6.95 -73.4 9.35 -73.4 11.0 -71.75 L12.35 -69.75 M-12.9 -81.0 L-11.6 -82.95 Q-9.9 -84.65 -7.5 -84.65 -5.1 -84.65 -3.45 -82.95 -2.65 -82.2 -2.25 -81.3 M2.05 -83.3 L-0.05 -86.1 Q-3.3 -89.35 -7.95 -89.35 -12.55 -89.35 -15.85 -86.1 L-17.85 -83.35 M-27.05 -69.75 Q-26.65 -70.85 -25.75 -71.75 -24.05 -73.4 -21.65 -73.4 -19.25 -73.4 -17.6 -71.75 -16.7 -70.85 -16.25 -69.75 M-21.45 -41.95 Q-15.25 -40.3 -7.1 -40.4 0.0 -40.4 5.55 -41.7 M-40.65 -62.9 L25.7 -62.9" fill="none" stroke="#000000" stroke-linecap="round" stroke-linejoin="round" stroke-width="1.5"/>
  </g>
</svg>
