<?xml version="1.0" encoding="UTF-8" standalone="no"?>
<svg xmlns:xlink="http://www.w3.org/1999/xlink" height="79.0px" width="51.75px" xmlns="http://www.w3.org/2000/svg">
  <g transform="matrix(1.0, 0.0, 0.0, 1.0, 31.7, 107.95)">
    <path d="M2.9 -75.95 L3.8 -75.9 5.05 -75.45 Q5.95 -74.85 5.95 -74.05 5.95 -73.25 5.05 -72.7 4.15 -72.15 2.9 -72.15 1.65 -72.15 0.75 -72.7 -0.15 -73.25 -0.15 -74.05 -0.15 -74.85 0.75 -75.45 L2.9 -75.95 M-12.55 -75.9 L-11.9 -75.65 Q-11.0 -75.05 -11.0 -74.25 -11.0 -73.45 -11.9 -72.95 -12.8 -72.35 -14.05 -72.35 -15.3 -72.35 -16.2 -72.95 -17.1 -73.45 -17.1 -74.25 -17.1 -75.05 -16.2 -75.65 -15.3 -76.2 -14.05 -76.2 L-13.15 -76.1 -12.55 -75.9" fill="#ff6d70" fill-rule="evenodd" stroke="none"/>
    <path d="M1.1 -79.2 L1.1 -76.05 M3.9 -94.45 Q9.0 -97.65 16.35 -98.8 18.2 -97.6 15.8 -94.8 13.6 -90.05 13.55 -85.1 12.3 -69.55 -1.4 -66.85 L-1.4 -49.35 Q9.55 -58.5 19.05 -52.25 14.7 -39.2 -1.4 -42.65 L-1.4 -33.8 Q-1.3 -30.15 -5.7 -29.95 -10.15 -30.15 -10.05 -33.8 L-10.05 -49.6 Q-25.15 -44.6 -30.7 -58.75 -17.95 -64.4 -10.05 -55.6 L-10.05 -66.85 Q-23.75 -69.55 -25.0 -85.1 -25.05 -90.05 -27.2 -94.8 -29.65 -97.6 -27.75 -98.8 -20.4 -97.65 -15.3 -94.45 -9.55 -106.8 -5.7 -106.95 -1.85 -106.8 3.9 -94.45 -3.1 -90.1 -5.7 -82.0 -8.35 -90.1 -15.3 -94.45 M-12.55 -75.9 L-12.5 -79.2 M-10.05 -66.85 L-5.7 -66.35 -1.4 -66.85 M-8.15 -73.45 Q-5.55 -70.05 -3.05 -73.45 M-10.05 -55.6 L-10.05 -49.6 M-1.4 -42.65 L-1.4 -49.35" fill="none" stroke="#000000" stroke-linecap="round" stroke-linejoin="round" stroke-width="2.0"/>
  </g>
</svg>
