<?xml version="1.0" encoding="UTF-8" standalone="no"?>
<svg xmlns:xlink="http://www.w3.org/1999/xlink" height="86.9px" width="55.85px" xmlns="http://www.w3.org/2000/svg">
  <g transform="matrix(1.0, 0.0, 0.0, 1.0, 31.9, 117.3)">
    <path d="M3.5 -88.5 L3.55 -88.55 5.25 -88.85 Q6.75 -88.85 7.75 -88.15 8.8 -87.5 8.8 -86.55 8.8 -85.6 7.75 -84.95 6.75 -84.3 5.25 -84.3 3.7 -84.3 2.65 -84.95 1.65 -85.6 1.65 -86.55 1.65 -87.5 2.65 -88.15 L3.5 -88.5 M-11.55 -88.55 L-11.45 -88.5 -10.7 -88.15 Q-9.6 -87.5 -9.6 -86.55 -9.6 -85.6 -10.7 -84.95 -11.75 -84.3 -13.2 -84.3 -14.7 -84.3 -15.75 -84.95 -16.75 -85.6 -16.75 -86.55 -16.75 -87.5 -15.75 -88.15 -14.7 -88.85 -13.2 -88.85 L-11.55 -88.55" fill="#fd6f6e" fill-rule="evenodd" stroke="none"/>
    <path d="M0.85 -62.2 L0.85 -50.95 Q9.55 -59.75 22.9 -55.1 16.45 -41.85 0.85 -44.4 L0.85 -38.85 Q1.3 -31.45 -4.0 -31.4 -9.3 -31.45 -8.8 -38.85 L-8.8 -44.4 Q-24.4 -41.85 -30.85 -55.1 -17.55 -59.75 -8.8 -50.95 L-8.8 -62.2 Q-5.75 -63.35 -4.0 -67.7 -2.3 -63.35 0.85 -62.2 M0.85 -44.4 L0.85 -50.95 0.85 -44.4 M-8.8 -50.95 L-8.8 -44.4 -8.8 -50.95" fill="#55b88a" fill-rule="evenodd" stroke="none"/>
    <path d="M10.35 -102.6 Q13.95 -110.45 7.55 -115.05 -0.8 -119.15 -4.0 -109.85 L-4.0 -103.25 -3.9 -103.25 Q2.05 -103.25 6.25 -99.05 L10.35 -102.6 Q17.85 -107.8 22.0 -101.1 25.2 -91.0 15.25 -88.5 23.5 -87.75 22.9 -80.4 21.5 -69.65 9.4 -75.15 15.2 -67.7 7.6 -62.75 3.6 -61.1 0.85 -62.2 L0.85 -50.95 Q9.55 -59.75 22.9 -55.1 16.45 -41.85 0.85 -44.4 L0.85 -38.85 Q1.3 -31.45 -4.0 -31.4 -9.3 -31.45 -8.8 -38.85 L-8.8 -44.4 Q-24.4 -41.85 -30.85 -55.1 -17.55 -59.75 -8.8 -50.95 L-8.8 -62.2 Q-11.6 -61.1 -15.65 -62.75 -23.15 -67.7 -17.35 -75.15 -29.5 -69.65 -30.85 -80.4 -31.55 -87.75 -23.2 -88.5 -33.2 -91.0 -30.05 -101.1 -25.8 -107.8 -18.35 -102.6 -21.95 -110.45 -15.5 -115.05 -7.25 -119.15 -4.0 -109.85 M6.25 -99.05 L6.35 -98.95 Q10.6 -94.75 10.6 -88.75 L10.6 -88.55 Q13.2 -88.8 15.25 -88.5 M3.55 -88.55 L3.55 -91.3 M9.4 -75.15 L6.35 -78.5 Q2.1 -74.2 -3.9 -74.2 L-4.0 -74.2 -4.0 -67.7 Q-2.3 -63.35 0.85 -62.2 M10.6 -88.55 Q10.55 -82.65 6.35 -78.5 M0.85 -50.95 L0.85 -44.4 M-18.35 -102.6 Q-16.4 -101.25 -14.25 -99.05 -10.0 -103.25 -4.1 -103.25 L-4.0 -103.25 M-11.55 -88.55 L-11.55 -91.3 M-23.2 -88.5 Q-21.2 -88.8 -18.6 -88.55 L-18.6 -88.75 Q-18.6 -94.75 -14.35 -98.95 L-14.25 -99.05 M-4.0 -74.2 L-4.1 -74.2 Q-10.05 -74.2 -14.35 -78.5 L-17.35 -75.15 M-6.25 -83.9 Q-3.85 -80.7 -1.5 -83.9 M-14.35 -78.5 Q-18.5 -82.65 -18.6 -88.55 M-8.8 -62.2 Q-5.75 -63.35 -4.0 -67.7 M-8.8 -44.4 L-8.8 -50.95" fill="none" stroke="#000000" stroke-linecap="round" stroke-linejoin="round" stroke-width="2.0"/>
  </g>
</svg>
