<?xml version="1.0" encoding="UTF-8" standalone="no"?>
<svg xmlns:xlink="http://www.w3.org/1999/xlink" height="55.3px" width="125.75px" xmlns="http://www.w3.org/2000/svg">
  <g transform="matrix(1.0, 0.0, 0.0, 1.0, 68.7, 41.2)">
    <path d="M-53.3 -9.9 Q-54.1 -5.45 -50.35 -2.05 -62.85 7.3 -67.7 13.1 -66.9 -1.6 -53.3 -9.9" fill="url(#gradient0)" fill-rule="evenodd" stroke="none"/>
    <path d="M-50.35 -2.05 L-49.05 -1.0 Q-49.45 10.7 -35.15 7.1 -25.75 12.5 -16.2 5.65 -6.4 10.45 5.8 4.35 19.4 13.95 31.6 7.15 47.35 12.0 49.65 4.45 56.2 2.15 56.05 -2.3 L55.85 -3.75 55.8 -3.95 55.75 -4.1 55.75 -4.15 55.7 -4.4 55.6 -4.65 Q55.0 -6.25 53.7 -8.1 55.45 -10.55 55.2 -13.1 L54.95 -14.2 Q54.1 -17.25 50.5 -20.5 50.05 -27.05 41.3 -28.0 36.95 -33.35 28.05 -34.35 17.95 -41.3 9.3 -37.25 -3.8 -43.3 -14.25 -36.85 -23.5 -40.0 -32.45 -32.4 -41.95 -33.8 -46.4 -26.65 -55.3 -20.0 -51.2 -14.9 -52.9 -12.25 -53.3 -9.9 -54.1 -5.45 -50.35 -2.05 -62.85 7.3 -67.7 13.1 -66.9 -1.6 -53.3 -9.9 M-44.55 -14.35 Q-38.3 -32.55 4.15 -33.35 39.4 -30.8 46.8 -14.95 53.65 4.9 29.35 2.45 -5.05 -2.65 -25.75 1.85 -50.75 3.85 -44.55 -14.35" fill="none" stroke="#000000" stroke-linecap="round" stroke-linejoin="round" stroke-width="2.0"/>
    <path d="M3.45 -15.25 L3.3 -13.85 Q2.65 -10.55 2.0 -9.7 2.65 -10.75 3.3 -14.1 L3.45 -15.25" fill="#ff91a3" fill-rule="evenodd" stroke="none"/>
    <path d="M-60.05 -2.65 Q-58.5 -1.85 -60.1 -1.25 -60.5 -1.1 -60.7 -1.5 -61.05 -2.45 -60.05 -2.65 M-56.9 -4.25 Q-55.6 -3.2 -57.3 -3.45 -57.55 -3.45 -57.45 -3.8 L-56.9 -4.25 M-59.55 1.25 Q-58.3 2.25 -59.95 2.05 L-60.1 1.7 Q-60.0 1.25 -59.55 1.25 M-62.05 0.05 Q-60.8 1.1 -62.45 0.85 -62.7 0.85 -62.6 0.5 -62.5 0.05 -62.05 0.05 M-62.8 3.25 Q-61.25 4.05 -62.85 4.65 -63.25 4.8 -63.45 4.4 -63.8 3.45 -62.8 3.25" fill="#ffffff" fill-opacity="0.69803923" fill-rule="evenodd" stroke="none"/>
    <path d="M2.0 -9.7 L1.9 -9.55 Q-1.9 -8.5 -4.9 -10.25 -4.25 -13.25 -1.25 -16.45 -3.95 -15.35 -6.2 -15.55 -8.45 -20.2 -7.2 -25.7 -4.45 -26.3 2.25 -22.0 4.0 -23.35 6.15 -21.95 11.5 -25.9 14.75 -24.95 15.6 -20.8 14.55 -15.6 12.95 -15.2 10.5 -16.05 13.45 -11.85 14.15 -9.25 9.45 -7.9 7.6 -10.15 5.55 -16.0 6.35 -18.25 L2.95 -18.15 Q3.6 -17.2 3.45 -15.25 L3.3 -14.1 Q2.65 -10.75 2.0 -9.7 M6.15 -21.95 Q7.25 -20.1 6.35 -18.25 8.8 -16.75 10.5 -16.05 M-1.25 -16.45 Q0.3 -17.05 2.35 -18.5 1.35 -20.6 2.25 -22.0 M2.95 -18.15 L2.35 -18.5 M19.65 -15.15 L20.3 -20.6 Q25.5 -19.65 30.35 -18.15 L29.6 -13.15 19.65 -15.15 M42.45 -13.3 Q43.6 -10.7 40.2 -9.55 L33.65 -12.0 34.55 -16.75 Q38.65 -15.2 42.45 -13.3 M-12.6 -15.4 L-13.55 -21.3 Q-20.25 -20.25 -26.5 -18.2 L-24.6 -13.0 Q-18.7 -14.6 -12.6 -15.4 M-39.8 -12.65 Q-35.25 -15.05 -30.5 -16.85 L-28.65 -11.9 Q-33.65 -10.4 -38.45 -8.4 -41.1 -10.05 -39.8 -12.65" fill="none" stroke="#000000" stroke-linecap="round" stroke-linejoin="round" stroke-width="1.5"/>
  </g>
  <defs>
    <linearGradient gradientTransform="matrix(-0.0064, 0.0089, -0.0048, -0.0034, -60.35, 3.6)" gradientUnits="userSpaceOnUse" id="gradient0" spreadMethod="pad" x1="-819.2" x2="819.2">
      <stop offset="0.0" stop-color="#8574d0"/>
      <stop offset="0.5137254901960784" stop-color="#6a85d6"/>
      <stop offset="1.0" stop-color="#7dc0f0"/>
    </linearGradient>
  </defs>
</svg>
