<?xml version="1.0" encoding="UTF-8" standalone="no"?>
<svg xmlns:xlink="http://www.w3.org/1999/xlink" height="64.8px" width="73.55px" xmlns="http://www.w3.org/2000/svg">
  <g transform="matrix(1.0, 0.0, 0.0, 1.0, 39.15, 99.25)">
    <path d="M4.65 -81.4 Q4.65 -80.3 3.55 -79.5 2.45 -78.75 0.9 -78.75 -0.65 -78.75 -1.75 -79.5 -2.8 -80.3 -2.8 -81.4 -2.8 -82.55 -1.75 -83.35 -0.65 -84.1 0.9 -84.1 2.45 -84.1 3.55 -83.35 4.65 -82.55 4.65 -81.4" fill="#ffa6bb" fill-rule="evenodd" stroke="none"/>
    <path d="M22.9 -72.3 L21.05 -72.25 Q15.95 -72.25 12.3 -73.85 8.7 -75.4 8.7 -77.7 8.7 -79.95 12.3 -81.55 15.95 -83.15 21.05 -83.15 L22.5 -83.1 Q19.65 -97.1 4.95 -98.2 -9.1 -98.9 -12.45 -81.45 -12.6 -74.1 -22.7 -74.95 -28.5 -74.4 -33.6 -77.25 -37.8 -80.1 -38.0 -73.7 -39.45 -59.8 -27.95 -50.25 -24.35 -47.55 -16.1 -46.5 L-9.5 -45.95 -5.85 -45.8 0.3 -45.85 0.75 -45.85 Q22.05 -46.5 22.9 -72.3 26.85 -72.55 29.75 -73.85 33.4 -75.4 33.4 -77.7 33.4 -79.95 29.75 -81.55 26.7 -82.85 22.5 -83.1 M0.55 -84.8 Q3.7 -90.5 6.6 -84.6 M0.75 -45.85 L0.75 -41.35 4.3 -41.35 Q7.75 -41.3 7.55 -38.85 7.9 -35.75 4.95 -35.45 L-1.05 -35.45 Q-3.05 -35.4 -4.2 -35.95 L-5.35 -35.65 -11.3 -35.65 Q-15.6 -35.5 -16.1 -38.25 L-16.1 -46.5 M-22.95 -60.1 Q-18.15 -53.35 -10.05 -54.25 -2.55 -55.65 -3.25 -63.45 -5.5 -71.65 -19.55 -65.1 -21.8 -64.15 -23.0 -65.35 -26.6 -66.0 -22.95 -60.1 M-5.85 -45.8 L-5.85 -41.6 Q-2.55 -41.45 -2.7 -39.05 -2.45 -36.65 -4.2 -35.95 M-5.85 -41.6 L-5.95 -41.6 -9.5 -41.6 -9.5 -45.95" fill="none" stroke="#000000" stroke-linecap="round" stroke-linejoin="round" stroke-width="2.0"/>
  </g>
</svg>
