<?xml version="1.0" encoding="UTF-8" standalone="no"?>
<svg xmlns:xlink="http://www.w3.org/1999/xlink" height="87.05px" width="143.9px" xmlns="http://www.w3.org/2000/svg">
  <g transform="matrix(1.0, 0.0, 0.0, 1.0, 73.9, 64.2)">
    <path d="M-71.2 -5.6 Q-72.0 -6.45 -72.45 -7.55 L-72.8 -14.8 Q-73.3 -27.95 -71.5 -48.3 L-70.85 -54.4 Q-70.45 -58.25 -63.45 -60.65 L-62.85 -60.9 Q-25.25 -64.6 11.15 -62.4 34.1 -60.95 46.95 -57.85 L48.25 -57.45 Q55.15 -55.2 55.8 -47.15 L55.8 -44.1 Q56.95 -23.8 56.05 -16.65 L56.0 -16.1 Q54.95 -8.0 54.2 -4.95 L54.15 -4.8 59.55 1.3 Q63.7 5.5 67.35 10.25 73.5 22.35 56.5 21.3 47.7 19.3 20.9 17.9 -3.65 18.3 -23.35 20.7 -42.9 24.4 -55.3 16.2 -67.7 7.95 -71.2 -5.6 -46.2 -2.4 -26.7 -2.1 -7.3 -1.85 11.0 -2.1 L41.4 -3.25 Q53.5 -4.15 54.2 -4.95 M-66.35 -56.85 Q-74.85 -51.7 -10.9 -50.1 53.7 -48.55 50.75 -53.15" fill="none" stroke="#000000" stroke-linecap="round" stroke-linejoin="round" stroke-width="2.0"/>
  </g>
</svg>
