<?xml version="1.0" encoding="UTF-8" standalone="no"?>
<svg xmlns:xlink="http://www.w3.org/1999/xlink" height="189.35px" width="170.4px" xmlns="http://www.w3.org/2000/svg">
  <g transform="matrix(1.0, 0.0, 0.0, 1.0, 98.25, 63.1)">
    <path d="M-43.4 -21.6 L-44.5 -16.55 -40.95 -20.45 -40.65 -20.65 -40.3 -20.55 -40.1 -20.3 -40.15 -19.95 -45.25 -8.3 -35.7 -5.6 -35.4 -5.4 -35.35 -5.05 -35.5 -4.75 -35.85 -4.65 -46.95 -4.45 -55.3 14.45 -55.35 14.6 -60.5 20.3 -60.8 20.45 -61.1 20.4 -61.35 20.2 -61.4 19.9 -60.2 13.05 -60.15 12.9 -51.7 -5.65 -57.65 -10.85 -57.85 -11.15 -57.8 -11.5 -57.55 -11.7 -57.2 -11.7 -49.9 -9.65 -44.35 -21.9 -44.1 -22.15 -43.75 -22.15 -43.45 -21.95 -43.4 -21.6 M40.15 -17.85 L46.05 -8.45 50.45 -11.15 50.75 -11.25 51.05 -11.1 51.2 -10.8 51.15 -10.5 48.1 -5.2 57.25 9.15 57.3 9.25 59.35 14.85 59.35 15.15 59.15 15.45 58.85 15.5 58.55 15.4 54.0 11.35 53.9 11.25 44.85 -3.35 37.3 -1.95 36.95 -2.0 36.75 -2.25 36.75 -2.6 36.95 -2.85 42.9 -6.45 37.3 -15.45 37.2 -15.8 37.4 -16.1 37.7 -16.25 38.05 -16.1 40.7 -13.75 39.25 -17.4 39.25 -17.75 39.5 -18.05 39.85 -18.05 Q40.0 -18.05 40.15 -17.85" fill="#000000" fill-opacity="0.5568628" fill-rule="evenodd" stroke="none"/>
    <path d="M-83.55 -44.9 L-89.5 -39.45 Q-90.1 -37.6 -88.15 -35.0 L-83.05 -37.4 -83.0 -37.4 -76.8 -42.85 -78.05 -46.75 -83.5 -44.95 -83.55 -44.9 Q-83.4 -54.2 -80.7 -62.1 -57.65 -60.3 -34.1 -49.2 -4.2 -57.65 24.0 -50.0 37.95 -57.3 62.7 -59.5 69.25 -35.8 62.6 -16.0 72.35 21.15 70.95 42.9 69.5 64.65 58.85 72.55 48.25 80.45 39.5 84.35 L28.9 88.35 24.15 89.25 Q25.0 93.85 17.7 95.55 11.8 96.85 2.75 91.3 13.35 102.85 10.75 105.85 6.4 107.6 3.2 106.25 11.15 113.75 10.5 120.8 L6.65 123.5 Q5.75 114.05 -0.15 103.7 L-1.05 102.5 Q-3.85 115.35 -3.1 125.25 L-9.9 122.6 Q-10.7 116.5 -5.85 108.15 -10.85 110.05 -14.2 107.45 -13.45 100.75 -4.65 90.55 -10.15 94.45 -22.0 96.65 -39.05 95.35 -40.85 93.8 -43.2 92.3 -40.85 88.85 -57.9 85.25 -70.95 74.85 -80.5 61.95 -96.65 47.25 -100.6 34.95 -78.8 -15.3 L-81.35 -24.7 -86.25 -22.4 Q-88.2 -25.0 -87.6 -26.85 L-82.65 -31.4 -83.0 -34.65 -83.0 -37.4 M-81.35 -24.7 L-81.15 -24.8 -81.1 -24.8 -74.9 -30.25 -76.15 -34.15 -81.6 -32.35 -82.65 -31.4 M-78.8 -15.3 L-78.3 -16.5 M-40.7 -46.95 L-34.1 -49.2 M-4.65 90.55 L-2.55 88.75 -2.0 88.05 Q-19.8 80.15 -52.05 72.9 -62.4 69.55 -61.15 64.3 -52.95 29.4 1.4 -17.5 5.45 -21.55 8.8 -22.45 L10.55 -21.85 Q23.25 -14.35 33.45 0.05 47.8 16.5 60.0 42.4 72.15 68.3 30.05 82.35 10.4 83.45 -2.0 88.05 L-0.45 89.2 2.75 91.3 M62.6 -16.0 Q60.9 -15.3 61.0 -12.35 M24.0 -50.0 L26.25 -49.4 M24.15 89.25 Q15.95 90.4 11.55 88.05 M-2.55 88.75 Q-1.85 91.2 -5.65 95.2 -9.6 101.1 -8.1 103.7 -5.6 103.4 -3.65 96.1 -2.95 91.35 -0.45 89.25 L-0.45 89.2 M-5.85 108.15 L-3.2 106.9 Q-1.85 104.95 -1.05 102.45 0.1 98.65 -0.05 93.5 L-0.45 89.25 Q6.1 97.2 4.9 102.1 1.55 101.15 -0.05 93.5 M-40.85 88.85 Q-32.1 89.95 -24.55 87.65 M-1.05 102.5 L-1.05 102.45 M3.2 106.25 Q1.35 105.45 -0.15 103.7" fill="none" stroke="#000000" stroke-linecap="round" stroke-linejoin="round" stroke-width="2.0"/>
  </g>
</svg>
