<?xml version="1.0" encoding="UTF-8" standalone="no"?>
<svg xmlns:xlink="http://www.w3.org/1999/xlink" height="94.65px" width="120.45px" xmlns="http://www.w3.org/2000/svg">
  <g transform="matrix(1.0, 0.0, 0.0, 1.0, 74.45, 121.6)">
    <path d="M21.95 -31.25 Q17.8 -31.25 17.65 -37.4 15.65 -54.1 15.45 -65.25 19.5 -67.2 19.65 -69.6 18.9 -71.45 15.45 -72.6 15.0 -85.6 4.25 -120.6 27.1 -103.05 37.1 -89.75 36.8 -86.7 33.8 -83.55 37.9 -81.55 41.4 -83.1 44.2 -77.9 44.65 -73.4 45.9 -60.3 42.45 -51.0 L39.1 -51.0 39.95 -46.2 Q33.5 -37.1 25.9 -32.95 L21.95 -31.25 Q28.9 -57.7 21.25 -91.55 46.3 -61.55 25.9 -32.95 M-30.45 -27.95 Q-32.65 -38.65 -37.7 -51.95 -42.8 -65.3 -49.1 -73.85 -55.45 -82.5 -57.9 -89.25 L-57.95 -89.3 Q-59.95 -71.95 -55.55 -57.2 -50.4 -41.3 -30.45 -27.95 -43.75 -29.1 -49.85 -33.05 -59.05 -39.5 -64.3 -45.9 L-61.85 -50.95 Q-67.25 -50.1 -68.15 -51.65 L-68.2 -51.7 Q-71.7 -63.9 -69.35 -79.3 L-63.7 -76.95 Q-63.75 -80.5 -68.85 -84.05 -68.65 -87.85 -68.85 -92.05 M-68.85 -92.2 Q-69.55 -103.55 -73.45 -117.65 -52.9 -106.45 -40.15 -85.9 -40.0 -83.2 -44.55 -77.85 L-35.4 -77.0 Q-19.55 -47.85 -30.45 -27.95" fill="none" stroke="#000000" stroke-linecap="round" stroke-linejoin="round" stroke-width="2.0"/>
    <path d="M21.25 -91.55 L14.1 -106.75 M26.5 -100.65 Q29.35 -95.45 29.1 -92.15 M-68.85 -92.05 L-68.85 -92.2 M-62.95 -88.75 L-68.85 -92.05 M-57.2 -88.75 L-66.85 -108.15" fill="none" stroke="#000000" stroke-linecap="round" stroke-linejoin="round" stroke-opacity="0.49803922" stroke-width="1.2000000000000002"/>
  </g>
</svg>
