<?xml version="1.0" encoding="UTF-8" standalone="no"?>
<svg xmlns:xlink="http://www.w3.org/1999/xlink" height="97.3px" width="136.4px" xmlns="http://www.w3.org/2000/svg">
  <g transform="matrix(1.0, 0.0, 0.0, 1.0, 102.55, 63.6)">
    <path d="M-60.4 9.65 Q-49.2 1.2 -33.35 -6.0 -16.65 -13.3 -4.45 -23.65 10.8 -36.6 20.1 -36.6 22.7 -36.65 24.9 -37.25 L27.45 -38.3 Q25.6 -39.35 23.35 -40.0 20.4 -40.9 16.7 -41.2 7.25 -42.35 -3.0 -33.6 -15.65 -25.2 -32.45 -17.35 -51.1 -7.45 -63.05 1.95 -62.35 2.9 -61.8 4.5 L-61.05 6.95 -60.4 9.65 -59.95 12.45 Q-59.7 15.8 -64.0 16.2 -70.25 16.55 -73.95 15.95 -73.6 21.15 -73.8 26.4 L-73.95 28.8 -74.25 31.8 Q-75.4 30.0 -78.3 28.25 -80.85 31.05 -82.75 32.15 L-82.4 29.1 -81.95 26.65 -80.8 21.9 -82.55 23.35 -83.45 23.6 -83.8 23.65 -89.05 28.45 -91.35 30.3 -94.5 32.7 Q-94.5 30.95 -93.4 27.35 -98.15 27.8 -101.55 27.3 L-97.15 25.3 -94.05 23.7 -88.7 20.5 Q-90.1 18.35 -90.65 16.55 L-90.9 15.4 Q-94.65 11.7 -95.55 6.45 -97.15 -0.5 -86.95 -16.35 L-86.85 -16.6 Q-82.85 -27.8 -74.85 -36.0 -47.9 -60.15 -16.9 -62.0 L-16.05 -62.1 Q8.8 -64.55 29.35 -55.3 32.85 -53.4 32.85 -48.0 32.85 -42.6 29.45 -39.65 L27.45 -38.3 M-86.95 -16.35 Q-88.9 -11.05 -89.9 -5.05 M-16.05 -62.1 Q-8.0 -62.65 -2.35 -61.15 M-90.9 15.4 Q-91.3 12.15 -89.0 11.55 -83.75 11.2 -79.8 13.2 -79.55 11.65 -77.65 10.85 -76.1 10.6 -75.2 11.35 -69.9 3.75 -64.35 0.75 L-63.05 1.95 M-80.8 21.9 Q-79.0 19.95 -77.55 17.05 -79.0 16.55 -79.65 14.8 L-79.8 13.2 M-73.95 15.95 L-74.3 15.9 Q-74.6 16.7 -75.35 17.1 L-77.55 17.05 M-75.2 11.35 Q-74.55 11.9 -74.3 13.15 -73.9 14.85 -74.3 15.9 M-88.7 20.5 L-87.15 22.75 Q-85.65 23.8 -83.8 23.65" fill="none" stroke="#000000" stroke-linecap="round" stroke-linejoin="round" stroke-width="2.0"/>
  </g>
</svg>
