<?xml version="1.0" encoding="UTF-8" standalone="no"?>
<svg xmlns:xlink="http://www.w3.org/1999/xlink" height="100.35px" width="89.95px" xmlns="http://www.w3.org/2000/svg">
  <g transform="matrix(1.0, 0.0, 0.0, 1.0, 108.05, 75.9)">
    <path d="M-79.15 -12.9 L-86.95 -11.6 Q-94.5 -10.25 -100.4 -17.3 -107.4 -25.35 -107.05 -32.7 -104.6 -37.95 -89.85 -34.4 -79.65 -31.7 -74.1 -22.95 -80.1 -37.95 -79.7 -43.15 -71.75 -42.2 -67.5 -31.6 -68.95 -31.5 -70.1 -30.75 -73.05 -28.05 -70.6 -25.6 -75.05 -20.35 -73.6 -17.35 -72.3 -15.45 -69.1 -13.65 -71.4 -9.9 -73.4 -7.25 -76.4 -3.35 -78.75 -2.0 -83.05 -3.15 -79.15 -12.9 L-77.45 -14.45 -79.15 -12.9" fill="#86e7f0" fill-rule="evenodd" stroke="none"/>
    <path d="M-54.15 -29.8 Q-53.6 -35.95 -48.3 -34.3 -44.6 -35.65 -43.7 -32.95 -41.05 -30.25 -42.4 -27.6 -43.8 -25.4 -46.15 -25.9 -46.9 -23.45 -49.4 -22.75 -52.7 -21.95 -53.75 -24.0 -58.2 -25.2 -54.15 -29.8" fill="#cbf7fe" fill-rule="evenodd" stroke="none"/>
    <path d="M-70.6 -25.6 Q-73.05 -28.05 -70.1 -30.75 -68.95 -31.5 -67.5 -31.6 L-65.05 -31.5 Q-63.35 -31.2 -61.35 -30.3 -57.9 -27.0 -59.25 -23.75 -59.8 -19.65 -64.35 -22.15 -70.7 -19.55 -69.95 -25.05 L-70.6 -25.6" fill="#ffb0ee" fill-rule="evenodd" stroke="none"/>
    <path d="M-73.4 -7.25 Q-71.4 -9.9 -69.1 -13.65 -67.7 -12.9 -64.0 -12.9 -58.7 -12.8 -52.45 -14.5 -53.2 5.55 -50.4 22.5 -56.7 23.95 -63.95 22.75 L-62.55 5.3 -63.95 22.75 Q-69.55 16.35 -73.9 14.4 -77.6 12.75 -80.35 14.3 -77.6 12.75 -73.9 14.4 L-75.85 23.45 Q-89.25 20.05 -89.65 16.7 L-73.4 -7.25 M-68.25 -6.8 Q-70.1 -3.6 -73.55 1.5 -77.0 6.5 -80.35 14.3 -79.9 18.85 -75.85 23.45 -79.9 18.85 -80.35 14.3 -77.0 6.5 -73.55 1.5 -70.1 -3.6 -68.25 -6.8" fill="#ffffff" fill-rule="evenodd" stroke="none"/>
    <path d="M-28.4 -45.7 Q-27.75 -44.35 -28.1 -42.15 -24.1 -41.85 -22.7 -38.6 -22.9 -32.75 -27.65 -33.95 -28.0 -31.25 -31.1 -29.3 -36.4 -27.6 -36.05 -31.2 -40.5 -32.2 -40.45 -34.15 -40.65 -38.4 -35.7 -40.05 -35.2 -43.5 -33.45 -45.45 -32.3 -46.8 -30.5 -47.45 -29.05 -46.9 -28.4 -45.7" fill="#fff39a" fill-rule="evenodd" stroke="none"/>
    <path d="M-67.5 -31.6 Q-71.75 -42.2 -79.7 -43.15 -80.1 -37.95 -74.1 -22.95 -79.65 -31.7 -89.85 -34.4 -104.6 -37.95 -107.05 -32.7 -107.4 -25.35 -100.4 -17.3 -94.5 -10.25 -86.95 -11.6 L-79.15 -12.9 -77.45 -14.45 M-43.1 -72.6 Q-42.25 -67.2 -58.95 -57.9 -74.8 -50.75 -77.65 -53.85 L-69.3 -39.0 Q-64.85 -38.95 -52.95 -44.8 -43.3 -49.75 -39.25 -55.15 L-43.1 -72.6 -43.2 -72.95 -43.65 -73.95 Q-46.45 -77.45 -65.4 -68.2 -77.9 -61.45 -77.7 -53.9 L-77.65 -53.85 M-54.15 -29.8 Q-53.6 -35.95 -48.3 -34.3 -44.6 -35.65 -43.7 -32.95 -41.05 -30.25 -42.4 -27.6 -43.8 -25.4 -46.15 -25.9 -46.9 -23.45 -49.4 -22.75 -52.7 -21.95 -53.75 -24.0 -58.2 -25.2 -54.15 -29.8 M-67.5 -31.6 Q-68.95 -31.5 -70.1 -30.75 -73.05 -28.05 -70.6 -25.6 L-69.95 -25.05 Q-70.7 -19.55 -64.35 -22.15 -59.8 -19.65 -59.25 -23.75 -57.9 -27.0 -61.35 -30.3 -63.35 -31.2 -65.05 -31.5 L-67.5 -31.6 M-36.05 -40.75 L-36.85 -44.35 -37.65 -47.9 Q-39.5 -42.6 -48.75 -38.1 -61.2 -31.85 -65.9 -33.0 L-65.05 -31.5 M-69.3 -39.0 L-65.9 -33.0 M-73.4 -7.25 Q-71.4 -9.9 -69.1 -13.65 -72.3 -15.45 -73.6 -17.35 -75.05 -20.35 -70.6 -25.6 M-79.15 -12.9 Q-83.05 -3.15 -78.75 -2.0 -76.4 -3.35 -73.4 -7.25 L-89.65 16.7 Q-89.25 20.05 -75.85 23.45 -79.9 18.85 -80.35 14.3 -77.0 6.5 -73.55 1.5 -70.1 -3.6 -68.25 -6.8 M-63.95 22.75 Q-56.7 23.95 -50.4 22.5 -53.2 5.55 -52.45 -14.5 -58.7 -12.8 -64.0 -12.9 -67.7 -12.9 -69.1 -13.65 M-28.4 -45.7 Q-27.75 -44.35 -28.1 -42.15 -24.1 -41.85 -22.7 -38.6 -22.9 -32.75 -27.65 -33.95 -28.0 -31.25 -31.1 -29.3 -36.4 -27.6 -36.05 -31.2 -40.5 -32.2 -40.45 -34.15 -40.65 -38.4 -35.7 -40.05 -35.2 -43.5 -33.45 -45.45 -35.25 -45.1 -36.85 -44.35 M-28.4 -45.7 L-24.45 -45.05 Q-17.3 -43.3 -19.75 -35.8 -23.6 -27.3 -38.4 -20.0 -45.95 -16.3 -52.45 -14.5 M-33.45 -45.45 Q-32.3 -46.8 -30.5 -47.45 -29.05 -46.9 -28.4 -45.7 M-39.25 -55.15 L-37.65 -47.9 M-63.95 22.75 L-62.55 5.3 M-73.9 14.4 Q-69.55 16.35 -63.95 22.75 M-80.35 14.3 Q-77.6 12.75 -73.9 14.4 L-75.85 23.45" fill="none" stroke="#000000" stroke-linecap="round" stroke-linejoin="round" stroke-width="2.0"/>
  </g>
</svg>
