<?xml version="1.0" encoding="UTF-8" standalone="no"?>
<svg xmlns:xlink="http://www.w3.org/1999/xlink" height="148.15px" width="242.5px" xmlns="http://www.w3.org/2000/svg">
  <g transform="matrix(1.0, 0.0, 0.0, 1.0, 151.8, 96.45)">
    <path d="M-44.8 -37.65 L-47.05 -36.2 Q-46.55 -31.25 -48.75 -28.25 -55.4 -28.6 -58.0 -30.6 -62.7 -26.75 -67.45 -25.7 -69.7 -29.7 -69.15 -33.7 L-68.85 -35.2 Q-72.95 -38.5 -74.3 -41.95 L-73.25 -42.7 -84.5 -38.25 -84.9 -37.6 -85.3 -41.2 -77.4 -44.4 Q-80.0 -47.65 -85.2 -46.15 L-84.95 -48.8 Q-78.95 -49.8 -76.15 -47.35 -75.15 -51.45 -70.55 -53.65 -64.55 -54.45 -61.65 -50.9 L-57.6 -55.15 Q-55.65 -53.9 -53.75 -51.75 -52.8 -56.15 -47.95 -56.8 -43.0 -57.6 -39.45 -54.7 -37.9 -58.75 -33.95 -59.2 -29.05 -60.05 -25.8 -57.05 -23.95 -61.4 -19.7 -62.15 -15.45 -62.5 -11.75 -59.75 -10.3 -63.35 -6.5 -64.55 -2.15 -65.05 1.3 -61.7 3.2 -66.4 7.0 -67.55 11.85 -68.15 14.85 -65.6 16.3 -69.75 19.5 -70.95 L35.7 -64.6 Q5.9 -54.55 -45.85 -46.85 -48.2 -47.75 -51.05 -48.35 L-52.25 -49.95 -51.05 -48.35 Q-48.2 -47.75 -45.85 -46.85 -42.35 -45.55 -40.1 -43.65 -41.8 -40.0 -44.8 -37.65 M18.45 -63.7 L25.1 -65.65 Q23.5 -67.95 20.45 -67.95 17.95 -66.8 18.45 -63.7 M5.0 -60.15 L13.15 -62.25 Q11.75 -65.45 7.75 -64.6 5.55 -63.7 5.0 -60.15 M-37.15 -52.05 L-26.5 -53.8 Q-29.15 -56.75 -32.85 -56.1 -36.8 -55.45 -37.15 -52.05 M-8.95 -56.95 L-0.25 -58.9 Q-1.9 -61.6 -5.55 -61.45 -7.8 -60.85 -8.95 -56.95 M-23.5 -54.3 L-14.2 -55.85 -12.95 -56.1 Q-14.8 -59.05 -19.0 -58.95 -22.4 -57.95 -23.5 -54.3 M-52.25 -49.95 L-46.15 -50.55 -40.05 -51.55 Q-41.9 -54.25 -46.65 -54.05 -50.4 -53.0 -52.35 -50.15 L-52.25 -49.95 M-52.35 -50.15 L-53.75 -51.75 -52.35 -50.15 M-62.9 -49.35 L-61.65 -50.9 -62.9 -49.35 Q-65.65 -51.55 -69.65 -50.55 -72.95 -49.15 -73.85 -45.55 L-63.8 -48.15 -62.9 -49.35 M-73.25 -42.7 Q-70.2 -44.9 -65.1 -46.15 L-63.8 -48.15 -65.1 -46.15 Q-70.2 -44.9 -73.25 -42.7" fill="#fff39c" fill-rule="evenodd" stroke="none"/>
    <path d="M-44.8 -37.65 L46.1 -53.2 77.5 -51.25 Q90.5 -52.35 89.65 -45.15 87.55 -33.55 79.2 -22.55 75.35 -20.3 72.95 -18.05 72.55 -16.35 73.45 -14.65 72.95 -12.3 62.9 -10.35 56.85 -10.5 48.4 -22.1 68.3 -29.55 76.75 -37.55 68.3 -29.55 48.4 -22.1 L41.95 -19.85 7.65 -9.65 Q-47.85 6.25 -80.75 4.35 L-81.75 4.3 Q-91.8 13.9 -103.65 12.8 -112.6 11.65 -116.4 6.45 L-116.85 5.8 Q-119.85 2.2 -113.4 -1.4 -97.3 -14.4 -86.65 -27.4 L-69.15 -33.7 Q-69.7 -29.7 -67.45 -25.7 -62.7 -26.75 -58.0 -30.6 -55.4 -28.6 -48.75 -28.25 -46.55 -31.25 -47.05 -36.2 L-44.8 -37.65 M-104.7 5.4 Q-95.1 3.55 -81.75 4.3 -95.1 3.55 -104.7 5.4" fill="#000000" fill-opacity="0.24705882" fill-rule="evenodd" stroke="none"/>
    <path d="M48.4 -22.1 Q56.85 -10.5 62.9 -10.35 72.95 -12.3 73.45 -14.65 72.55 -16.35 72.95 -18.05 75.35 -20.3 79.2 -22.55 87.55 -33.55 89.65 -45.15 90.5 -52.35 77.5 -51.25 L46.1 -53.2 -44.8 -37.65 -47.05 -36.2 Q-46.55 -31.25 -48.75 -28.25 -55.4 -28.6 -58.0 -30.6 -62.7 -26.75 -67.45 -25.7 -69.7 -29.7 -69.15 -33.7 L-86.65 -27.4 Q-97.3 -14.4 -113.4 -1.4 -119.85 2.2 -116.85 5.8 L-116.4 6.45 Q-112.6 11.65 -103.65 12.8 -91.8 13.9 -81.75 4.3 -95.1 3.55 -104.7 5.4 M19.5 -70.95 L17.85 -71.6 15.8 -78.25 Q13.1 -77.4 5.6 -79.25 L-10.7 -87.2 Q-23.45 -93.5 -30.45 -94.8 -54.2 -98.0 -71.8 -85.05 -95.25 -67.6 -109.35 -38.6 -141.1 10.35 -144.1 30.4 L-143.95 30.35 Q-141.75 31.3 -141.2 32.15 L-141.15 32.4 Q-131.55 18.4 -116.4 6.45 M19.5 -70.95 L35.7 -64.6 Q42.8 -58.9 46.1 -53.2 M48.4 -22.1 Q68.3 -29.55 76.75 -37.55 M-81.75 4.3 L-80.75 4.35 Q-47.85 6.25 7.65 -9.65 L41.95 -19.85 48.4 -22.1 M-69.15 -33.7 L-68.85 -35.2 Q-72.95 -38.5 -74.3 -41.95 L-73.25 -42.7 -84.5 -38.25 -84.9 -37.6 -85.75 -35.95 Q-87.7 -31.65 -86.65 -27.4 M-85.2 -46.15 L-84.95 -48.8 -84.85 -49.6 M-85.3 -41.2 Q-85.45 -43.5 -85.2 -46.15 M-85.3 -41.2 L-84.9 -37.6 M-85.75 -35.95 Q-88.25 -36.25 -90.8 -39.55 M-52.35 -50.15 L-52.25 -49.95 -51.05 -48.35 Q-48.2 -47.75 -45.85 -46.85 5.9 -54.55 35.7 -64.6 M-53.75 -51.75 L-52.35 -50.15 M-61.65 -50.9 L-57.6 -55.15 Q-55.65 -53.9 -53.75 -51.75 M-61.65 -50.9 L-62.9 -49.35 -63.8 -48.15 -65.1 -46.15 Q-70.2 -44.9 -73.25 -42.7 M-45.85 -46.85 Q-42.35 -45.55 -40.1 -43.65 -41.8 -40.0 -44.8 -37.65 M-141.15 32.4 Q-140.3 36.2 -141.6 38.35 -143.85 42.45 -146.75 42.25 L-147.55 42.05 Q-151.45 39.9 -150.65 35.7 -149.55 31.6 -144.1 30.4 M-146.75 42.3 Q-150.15 43.6 -150.55 46.8 -151.05 50.15 -147.1 50.7 -144.05 50.3 -143.55 46.7 -143.4 43.4 -146.75 42.3" fill="none" stroke="#000000" stroke-linecap="round" stroke-linejoin="round" stroke-width="2.0"/>
  </g>
</svg>
