<?xml version="1.0" encoding="UTF-8" standalone="no"?>
<svg xmlns:xlink="http://www.w3.org/1999/xlink" height="102.5px" width="151.75px" xmlns="http://www.w3.org/2000/svg">
  <g transform="matrix(1.0, 0.0, 0.0, 1.0, 71.95, 84.95)">
    <path d="M42.65 -51.4 L42.7 -51.7 Q43.55 -57.55 41.9 -58.75 40.95 -59.4 39.5 -58.1 37.8 -62.2 35.45 -61.55 32.7 -60.55 35.95 -56.55 33.95 -55.55 34.4 -54.25 36.0 -51.55 39.1 -50.8 L42.35 -50.5 M42.7 -51.7 Q43.4 -53.3 44.6 -53.35 45.5 -53.6 46.15 -51.2 46.75 -48.9 45.4 -44.75 47.3 -45.7 48.05 -45.1 49.5 -43.1 46.35 -37.65 48.3 -38.2 48.3 -36.85 47.15 -33.4 42.4 -32.4 L41.7 -34.85 40.7 -38.6 Q41.25 -40.2 43.4 -38.75 39.5 -42.4 40.35 -44.7 40.55 -45.8 43.05 -45.15 37.4 -47.4 37.1 -49.15 36.85 -51.2 39.1 -50.8 M-2.6 -50.75 Q-4.7 -56.45 -2.85 -57.95 -1.85 -58.75 0.15 -57.75 1.5 -62.1 4.45 -61.9 L4.5 -61.9 Q8.05 -61.3 4.8 -56.75 7.45 -56.15 7.1 -54.75 5.6 -51.8 1.95 -50.5 4.65 -51.3 4.75 -49.2 4.65 -47.4 -1.9 -44.15 1.1 -45.25 1.55 -44.2 2.95 -42.0 -1.15 -37.7 1.2 -39.55 2.15 -38.05 3.3 -34.9 2.65 -30.7 L2.55 -30.75 Q-4.85 -31.75 -6.85 -34.95 -7.1 -36.35 -4.55 -36.15 -9.4 -41.0 -8.0 -43.25 L-4.7 -43.35 Q-7.1 -47.3 -6.75 -49.7 -6.4 -52.2 -5.25 -52.1 -3.75 -52.25 -2.6 -50.75 L-2.5 -50.45 M46.35 -37.65 L46.2 -37.4 M43.4 -38.75 L44.55 -37.7 M43.05 -45.15 L44.1 -44.75 M62.3 -20.5 Q40.05 -27.05 25.2 -26.1 9.45 -24.75 -8.95 -16.6 M-9.0 -16.6 Q-31.85 -5.4 -40.8 -3.75 M-44.45 -7.85 Q-26.95 -19.55 -8.05 -27.05 12.15 -34.55 25.85 -34.6 38.6 -34.65 62.7 -26.35 M-1.15 -37.7 L-2.4 -36.5 M-4.55 -36.15 L-4.3 -35.9 M-1.9 -44.15 L-3.05 -43.6 M1.95 -50.5 Q0.2 -49.9 -2.0 -49.65" fill="none" stroke="#000000" stroke-linecap="round" stroke-linejoin="round" stroke-width="1.5"/>
    <path d="M42.4 -32.4 Q44.6 -34.4 45.1 -39.2 45.5 -44.9 42.5 -51.15 39.65 -56.5 36.0 -60.55 M2.55 -30.75 Q-1.85 -33.15 -3.35 -37.9 -4.85 -43.5 -2.25 -50.25 0.25 -56.1 4.05 -60.75" fill="none" stroke="#000000" stroke-linecap="round" stroke-linejoin="round" stroke-opacity="0.49803922" stroke-width="1.0"/>
    <path d="M17.4 -82.95 L19.75 -82.35 Q21.9 -82.75 22.6 -82.35 35.35 -77.8 47.65 -65.75 L47.85 -65.45 Q62.45 -51.7 67.4 -38.55 71.45 -32.55 65.55 -28.6 L62.7 -26.35 Q61.1 -23.7 62.3 -20.5 74.05 -11.45 78.8 -4.3 78.05 0.7 71.1 5.7 59.0 13.75 36.6 16.55 20.85 16.05 5.35 12.95 -25.05 6.85 -40.8 -3.75 -44.75 -6.0 -44.5 -7.85 L-44.45 -7.85 Q-55.0 -12.5 -66.15 -19.7 -71.4 -23.45 -70.9 -26.4 -68.05 -34.0 -61.3 -40.35 -56.15 -45.75 -52.55 -51.65 -48.85 -55.4 -45.4 -56.0 -42.0 -56.7 -38.85 -57.8 -24.75 -62.95 -16.75 -69.3 -5.45 -79.85 2.75 -83.55 L7.5 -83.65 Q11.6 -84.45 17.4 -82.95 9.05 -84.9 -3.7 -74.45 M-8.95 -16.6 L-9.0 -16.6" fill="none" stroke="#000000" stroke-linecap="round" stroke-linejoin="round" stroke-width="2.0"/>
  </g>
</svg>
