<?xml version="1.0" encoding="UTF-8" standalone="no"?>
<svg xmlns:xlink="http://www.w3.org/1999/xlink" height="150.05px" width="172.4px" xmlns="http://www.w3.org/2000/svg">
  <g transform="matrix(1.0, 0.0, 0.0, 1.0, 92.6, 85.0)">
    <path d="M21.8 -54.3 Q24.05 -54.5 24.25 -56.55 23.9 -58.65 21.65 -58.65 19.2 -58.45 19.1 -56.35 19.5 -54.3 21.8 -54.3 M21.35 -61.5 Q25.85 -61.25 26.85 -57.95 27.9 -54.8 23.85 -52.15 L24.15 -49.65 28.2 -49.85 28.2 -47.55 24.15 -47.25 Q24.25 -42.8 24.7 -40.5 28.1 -41.35 30.8 -45.6 L27.2 -44.5 32.1 -48.85 Q33.25 -45.6 33.4 -42.2 L31.65 -44.5 Q28.85 -37.4 22.8 -35.7 16.6 -36.75 13.05 -43.55 L11.55 -41.05 Q11.35 -44.45 12.1 -47.85 L17.5 -44.0 13.8 -44.7 Q16.95 -40.8 20.4 -40.35 20.6 -42.65 20.2 -47.1 L16.15 -46.95 15.9 -49.25 19.95 -49.5 19.95 -52.0 Q15.7 -54.15 16.35 -57.45 17.0 -60.8 21.35 -61.5" fill="#000000" fill-opacity="0.6392157" fill-rule="evenodd" stroke="none"/>
    <path d="M44.1 -69.15 L47.65 -65.8 47.85 -65.5 Q52.6 -61.05 56.35 -56.6 58.05 -71.45 54.0 -78.5 49.7 -76.1 44.1 -69.15 34.0 -78.35 22.6 -82.4 21.9 -82.8 19.75 -82.4 L17.4 -83.0 Q9.05 -84.95 -3.7 -74.5 M56.35 -56.6 Q64.1 -47.45 67.4 -38.6 71.45 -32.6 65.55 -28.65 L62.7 -26.4 Q61.1 -23.75 62.3 -20.55 74.05 -11.5 78.8 -4.35 78.05 0.65 71.1 5.65 59.0 13.7 36.6 16.5 20.85 16.0 5.35 12.9 -25.05 6.8 -40.8 -3.8 -44.75 -6.05 -44.5 -7.9 L-44.45 -7.9 Q-55.0 -12.55 -66.15 -19.75 -71.4 -23.5 -70.9 -26.45 -68.05 -34.05 -61.3 -40.4 -56.15 -45.8 -52.55 -51.7 -50.3 -53.95 -48.15 -55.05 -46.25 -76.9 -42.3 -79.5 -36.95 -77.55 -24.9 -64.0 -20.25 -66.6 -16.75 -69.35 -5.45 -79.9 2.75 -83.6 L7.5 -83.7 Q11.6 -84.5 17.4 -83.0 M-8.95 -16.65 L-9.0 -16.65 M-24.9 -64.0 L-15.6 -53.1 Q-15.1 -40.9 -29.3 -33.5 -42.6 -33.7 -49.0 -42.5 L-48.2 -54.5 -48.15 -55.05" fill="none" stroke="#000000" stroke-linecap="round" stroke-linejoin="round" stroke-width="2.0"/>
    <path d="M42.7 -51.75 Q43.4 -53.35 44.6 -53.4 45.5 -53.65 46.15 -51.25 46.75 -48.95 45.4 -44.8 47.3 -45.75 48.05 -45.15 49.5 -43.15 46.35 -37.7 48.3 -38.25 48.3 -36.9 47.15 -33.45 42.4 -32.45 L41.7 -34.9 40.7 -38.65 Q41.25 -40.25 43.4 -38.8 39.5 -42.45 40.35 -44.75 40.55 -45.85 43.05 -45.2 37.4 -47.45 37.1 -49.2 36.85 -51.25 39.1 -50.85 36.0 -51.6 34.4 -54.3 33.95 -55.6 35.95 -56.6 32.7 -60.6 35.45 -61.6 37.8 -62.25 39.5 -58.15 40.95 -59.45 41.9 -58.8 43.55 -57.6 42.7 -51.75 L42.65 -51.45 M-2.6 -50.8 Q-4.7 -56.5 -2.85 -58.0 -1.85 -58.8 0.15 -57.8 1.5 -62.15 4.45 -61.95 L4.5 -61.95 Q8.05 -61.35 4.8 -56.8 7.45 -56.2 7.1 -54.8 5.6 -51.85 1.95 -50.55 4.65 -51.35 4.75 -49.25 4.65 -47.45 -1.9 -44.2 1.1 -45.3 1.55 -44.25 2.95 -42.05 -1.15 -37.75 1.2 -39.6 2.15 -38.1 3.3 -34.95 2.65 -30.75 L2.55 -30.8 Q-4.85 -31.8 -6.85 -35.0 -7.1 -36.4 -4.55 -36.2 -9.4 -41.05 -8.0 -43.3 L-4.7 -43.4 Q-7.1 -47.35 -6.75 -49.75 -6.4 -52.25 -5.25 -52.15 -3.75 -52.3 -2.6 -50.8 L-2.5 -50.5 M46.35 -37.7 L46.2 -37.45 M43.05 -45.2 L44.1 -44.8 M43.4 -38.8 L44.55 -37.75 M39.1 -50.85 L42.35 -50.55 M-44.45 -7.9 Q-26.95 -19.6 -8.05 -27.1 12.15 -34.6 25.85 -34.65 38.6 -34.7 62.7 -26.4 M62.3 -20.55 Q40.05 -27.1 25.2 -26.15 9.45 -24.8 -8.95 -16.65 M-9.0 -16.65 Q-31.85 -5.45 -40.8 -3.8 M-4.55 -36.2 L-4.3 -35.95 M-1.15 -37.75 L-2.4 -36.55 M-1.9 -44.2 L-3.05 -43.65 M1.95 -50.55 Q0.2 -49.95 -2.0 -49.7" fill="none" stroke="#000000" stroke-linecap="round" stroke-linejoin="round" stroke-width="1.5"/>
    <path d="M42.4 -32.45 Q44.6 -34.45 45.1 -39.25 45.5 -44.95 42.5 -51.2 39.65 -56.55 36.0 -60.6 M2.55 -30.8 Q-1.85 -33.2 -3.35 -37.95 -4.85 -43.55 -2.25 -50.3 0.25 -56.15 4.05 -60.8" fill="none" stroke="#000000" stroke-linecap="round" stroke-linejoin="round" stroke-opacity="0.49803922" stroke-width="1.0"/>
    <path d="M-48.2 -54.5 Q-37.7 -59.55 -25.25 -63.9" fill="none" stroke="#000000" stroke-linecap="round" stroke-linejoin="round" stroke-opacity="0.2" stroke-width="2.0"/>
    <path d="M-61.45 -18.9 Q-65.6 -23.25 -69.85 -26.55 L-71.35 -27.7 Q-73.65 -29.45 -76.0 -30.85 L-80.0 -33.0 Q-81.45 -33.85 -82.65 -33.85 L-84.05 -33.6 -82.6 -34.6 Q-81.7 -40.9 -74.2 -42.65 -75.1 -51.05 -64.7 -52.6 -61.75 -52.6 -58.8 -50.35 L-57.75 -49.95 Q-50.4 -49.25 -51.6 -43.45 -49.0 -41.55 -49.9 -38.8 L-46.75 -39.0 Q-41.1 -37.9 -41.35 -33.0 -37.1 -32.85 -34.9 -29.65 -33.45 -27.95 -34.7 -26.05 -31.6 -23.6 -31.65 -21.2 L-38.5 -19.75 Q-43.95 -18.25 -48.95 -15.65 L-48.75 -16.0 -48.6 -16.35 Q-46.9 -20.15 -49.5 -21.7 -52.95 -22.05 -55.1 -18.5 -54.7 -22.2 -58.0 -22.7 -60.6 -22.2 -61.25 -19.45 L-61.45 -18.9 M-71.85 -40.4 Q-74.2 -42.25 -74.2 -42.65 -74.2 -42.25 -71.85 -40.4 M-41.5 -31.9 L-41.35 -33.0 -41.5 -31.9 M-54.4 -44.85 Q-52.7 -44.2 -51.6 -43.45 -52.7 -44.2 -54.4 -44.85 M-54.8 -35.4 Q-58.25 -35.95 -61.75 -33.2 L-61.8 -33.2 Q-65.65 -34.05 -68.35 -32.3 -70.8 -30.45 -71.35 -27.7 -70.8 -30.45 -68.35 -32.3 -65.65 -34.05 -61.8 -33.2 L-61.75 -33.2 Q-58.25 -35.95 -54.8 -35.4 -53.2 -38.2 -49.9 -38.8 -53.2 -38.2 -54.8 -35.4 -53.25 -35.15 -51.8 -34.25 -53.25 -35.15 -54.8 -35.4 M-76.0 -30.85 Q-75.35 -34.45 -69.95 -35.45 -75.35 -34.45 -76.0 -30.85 M-44.85 -25.15 Q-38.6 -25.3 -38.5 -19.75 -38.6 -25.3 -44.85 -25.15 M-60.55 -39.15 Q-64.55 -41.55 -68.35 -38.3 -64.55 -41.55 -60.55 -39.15 M-51.15 -26.0 Q-57.2 -28.15 -60.95 -22.3 -57.2 -28.15 -51.15 -26.0 M-59.35 -32.5 L-61.75 -33.2 -59.35 -32.5 M-36.8 -24.05 Q-35.35 -25.1 -34.7 -26.05 -35.35 -25.1 -36.8 -24.05" fill="#f3f9ff" fill-rule="evenodd" stroke="none"/>
    <path d="M-71.35 -2.05 L-70.9 -2.7 Q-69.05 -4.5 -65.6 -5.65 -70.35 -5.4 -72.7 -7.8 -73.35 -9.85 -67.9 -10.6 -71.8 -10.75 -71.35 -13.3 -69.2 -15.45 -65.8 -15.1 L-65.75 -15.1 -65.6 -15.05 Q-63.05 -14.85 -60.25 -12.6 -61.65 -16.05 -61.6 -17.9 L-61.55 -18.25 -61.45 -18.9 -61.25 -19.45 Q-60.6 -22.2 -58.0 -22.7 -54.7 -22.2 -55.1 -18.5 -52.95 -22.05 -49.5 -21.7 -46.9 -20.15 -48.6 -16.35 L-48.75 -16.0 -48.95 -15.65 -49.5 -14.65 Q-50.4 -13.4 -51.8 -12.5 -52.75 -11.95 -53.85 -11.55 L-53.45 -11.55 -47.0 -10.85 -46.65 -10.75 -46.3 -10.6 Q-44.35 -9.9 -44.1 -7.35 -46.05 -4.3 -49.55 -5.4 -46.45 -3.5 -47.65 -0.7 L-49.3 -0.45 -50.2 -0.7 Q-51.9 -1.4 -53.85 -3.45 L-53.95 -3.55 Q-52.0 3.0 -53.5 4.6 L-53.6 4.65 -53.7 4.65 Q-56.3 5.0 -56.85 3.0 -57.05 3.85 -57.65 4.4 L-57.8 4.5 -59.35 5.1 Q-61.65 5.25 -61.05 0.75 L-60.95 0.3 -60.3 -2.9 -60.25 -3.15 -60.75 -1.8 Q-63.05 3.7 -65.9 3.55 -66.75 3.6 -67.15 3.15 L-67.2 3.0 -67.25 2.85 -67.4 2.5 Q-67.8 1.4 -67.35 -0.85 -69.1 0.75 -70.65 0.25 -72.45 -0.7 -71.35 -2.05 M-63.45 38.2 Q-62.85 40.15 -64.4 40.95 L-64.5 40.95 Q-66.4 41.45 -67.55 39.9 -67.7 38.25 -65.65 37.35 L-65.55 37.3 Q-63.7 37.3 -63.55 38.05 L-63.5 38.05 -63.45 38.2 M-77.75 42.55 L-77.65 42.7 Q-77.45 43.55 -77.65 44.0 L-77.85 44.25 Q-78.3 44.65 -79.35 44.5 L-80.6 43.9 Q-81.55 43.0 -80.0 42.0 L-79.75 41.8 Q-78.45 41.4 -77.75 42.55 M-58.45 -6.05 Q-56.15 -6.0 -55.9 -7.7 -55.45 -9.9 -57.55 -9.9 -59.35 -9.6 -59.9 -8.45 -61.05 -6.75 -58.45 -6.05 -61.05 -6.75 -59.9 -8.45 -59.35 -9.6 -57.55 -9.9 -55.45 -9.9 -55.9 -7.7 -56.15 -6.0 -58.45 -6.05" fill="#fae2ff" fill-rule="evenodd" stroke="none"/>
    <path d="M-65.6 -15.05 Q-70.7 -20.85 -80.05 -26.15 -82.6 -27.55 -83.6 -23.2 -85.4 -14.85 -85.4 -1.65 -84.7 1.85 -82.55 2.0 -80.5 2.15 -71.35 -2.05 -72.45 -0.7 -70.65 0.25 -69.1 0.75 -67.35 -0.85 -67.8 1.4 -67.4 2.5 -76.1 6.65 -85.75 8.6 -91.5 8.85 -91.85 3.9 -92.1 -16.55 -88.2 -27.4 -86.65 -32.6 -84.05 -33.6 L-82.65 -33.85 Q-81.45 -33.85 -80.0 -33.0 L-76.0 -30.85 Q-73.65 -29.45 -71.35 -27.7 L-69.85 -26.55 Q-65.6 -23.25 -61.45 -18.9 L-61.55 -18.25 -61.6 -17.9 Q-61.65 -16.05 -60.25 -12.6 -63.05 -14.85 -65.6 -15.05 M-31.65 -21.2 L-29.55 -21.45 Q-23.5 -21.55 -22.9 -14.65 -23.5 1.25 -29.45 16.85 -33.5 22.9 -39.75 19.45 -49.75 12.7 -53.5 4.6 -52.0 3.0 -53.95 -3.55 L-53.85 -3.45 Q-51.9 -1.4 -50.2 -0.7 -50.75 3.15 -38.05 10.7 -35.4 13.5 -33.65 7.55 -30.5 2.65 -28.4 -9.85 -28.5 -15.3 -31.4 -15.3 -40.65 -13.9 -46.65 -10.75 L-47.0 -10.85 -53.45 -11.55 -51.8 -12.5 Q-50.4 -13.4 -49.5 -14.65 L-48.95 -15.65 Q-43.95 -18.25 -38.5 -19.75 L-31.65 -21.2 M-57.65 4.4 Q-53.75 25.25 -63.45 38.2 L-63.5 38.05 -63.55 38.05 Q-63.7 37.3 -65.55 37.3 L-65.65 37.35 Q-60.6 22.45 -62.5 3.0 -66.0 9.45 -70.05 18.7 -74.95 29.7 -77.75 42.55 -78.45 41.4 -79.75 41.8 L-80.0 42.0 Q-80.7 27.35 -76.0 16.45 -71.65 6.5 -67.25 2.85 L-67.2 3.0 -67.15 3.15 Q-66.75 3.6 -65.9 3.55 -63.05 3.7 -60.75 -1.8 L-60.3 -2.9 -60.95 0.3 -61.05 0.75 Q-61.65 5.25 -59.35 5.1 L-57.8 4.5 -57.65 4.4 M-64.4 40.95 Q-62.8 46.75 -64.5 51.3 -66.65 53.25 -69.2 53.2 L-69.55 53.9 Q-73.05 56.2 -75.55 54.2 L-73.8 50.3 Q-74.85 49.4 -74.5 48.0 -73.1 42.7 -67.55 39.9 -66.4 41.45 -64.5 40.95 L-64.4 40.95 M-77.85 44.25 L-75.6 56.15 -77.8 57.25 -78.85 63.55 Q-82.9 64.95 -85.8 63.7 -84.6 62.0 -83.55 59.45 -87.95 57.2 -87.55 54.9 -85.1 48.55 -80.6 43.9 L-79.35 44.5 Q-78.3 44.65 -77.85 44.25 M-60.95 0.3 L-62.5 3.0 -60.95 0.3 M-81.35 50.65 Q-82.3 55.95 -83.55 59.45 -82.3 55.95 -81.35 50.65 M-73.8 50.3 Q-71.9 46.55 -69.2 42.5 -71.9 46.55 -73.8 50.3 M-69.2 53.2 Q-67.55 49.2 -66.6 43.8 -67.55 49.2 -69.2 53.2 M-79.45 48.2 Q-79.0 55.1 -80.15 58.45 L-77.8 57.25 -80.15 58.45 Q-79.0 55.1 -79.45 48.2" fill="#ff5858" fill-rule="evenodd" stroke="none"/>
    <path d="M-65.6 -15.05 Q-70.7 -20.85 -80.05 -26.15 -82.6 -27.55 -83.6 -23.2 -85.4 -14.85 -85.4 -1.65 -84.7 1.85 -82.55 2.0 -80.5 2.15 -71.35 -2.05 L-70.9 -2.7 Q-69.05 -4.5 -65.6 -5.65 -70.35 -5.4 -72.7 -7.8 -73.35 -9.85 -67.9 -10.6 -71.8 -10.75 -71.35 -13.3 -69.2 -15.45 -65.8 -15.1 L-65.75 -15.1 -65.6 -15.05 Q-63.05 -14.85 -60.25 -12.6 -61.65 -16.05 -61.6 -17.9 L-61.55 -18.25 -61.45 -18.9 Q-65.6 -23.25 -69.85 -26.55 L-71.35 -27.7 Q-73.65 -29.45 -76.0 -30.85 L-80.0 -33.0 Q-81.45 -33.85 -82.65 -33.85 L-84.05 -33.6 Q-86.65 -32.6 -88.2 -27.4 -92.1 -16.55 -91.85 3.9 -91.5 8.85 -85.75 8.6 -76.1 6.65 -67.4 2.5 -67.8 1.4 -67.35 -0.85 -69.1 0.75 -70.65 0.25 -72.45 -0.7 -71.35 -2.05 M-74.2 -42.65 Q-81.7 -40.9 -82.6 -34.6 L-84.05 -33.6 M-51.6 -43.45 Q-50.4 -49.25 -57.75 -49.95 L-58.8 -50.35 Q-61.75 -52.6 -64.7 -52.6 -75.1 -51.05 -74.2 -42.65 -74.2 -42.25 -71.85 -40.4 M-49.9 -38.8 Q-49.0 -41.55 -51.6 -43.45 -52.7 -44.2 -54.4 -44.85 M-41.35 -33.0 L-41.5 -31.9 M-49.9 -38.8 L-46.75 -39.0 Q-41.1 -37.9 -41.35 -33.0 -37.1 -32.85 -34.9 -29.65 -33.45 -27.95 -34.7 -26.05 -31.6 -23.6 -31.65 -21.2 L-29.55 -21.45 Q-23.5 -21.55 -22.9 -14.65 -23.5 1.25 -29.45 16.85 -33.5 22.9 -39.75 19.45 -49.75 12.7 -53.5 4.6 L-53.6 4.65 -53.7 4.65 Q-56.3 5.0 -56.85 3.0 -57.05 3.85 -57.65 4.4 -53.75 25.25 -63.45 38.2 -62.85 40.15 -64.4 40.95 -62.8 46.75 -64.5 51.3 -66.65 53.25 -69.2 53.2 L-69.55 53.9 Q-73.05 56.2 -75.55 54.2 L-73.8 50.3 Q-74.85 49.4 -74.5 48.0 -73.1 42.7 -67.55 39.9 -67.7 38.25 -65.65 37.35 -60.6 22.45 -62.5 3.0 -66.0 9.45 -70.05 18.7 -74.95 29.7 -77.75 42.55 -78.45 41.4 -79.75 41.8 L-80.0 42.0 Q-80.7 27.35 -76.0 16.45 -71.65 6.5 -67.25 2.85 L-67.4 2.5 M-77.65 42.7 Q-77.45 43.55 -77.65 44.0 L-77.85 44.25 -75.6 56.15 -77.8 57.25 -78.85 63.55 Q-82.9 64.95 -85.8 63.7 -84.6 62.0 -83.55 59.45 -87.95 57.2 -87.55 54.9 -85.1 48.55 -80.6 43.9 -81.55 43.0 -80.0 42.0 M-49.9 -38.8 Q-53.2 -38.2 -54.8 -35.4 -53.25 -35.15 -51.8 -34.25 M-69.95 -35.45 Q-75.35 -34.45 -76.0 -30.85 M-71.35 -27.7 Q-70.8 -30.45 -68.35 -32.3 -65.65 -34.05 -61.8 -33.2 L-61.75 -33.2 Q-58.25 -35.95 -54.8 -35.4 M-61.45 -18.9 L-61.25 -19.45 Q-60.6 -22.2 -58.0 -22.7 -54.7 -22.2 -55.1 -18.5 -52.95 -22.05 -49.5 -21.7 -46.9 -20.15 -48.6 -16.35 L-48.75 -16.0 -48.95 -15.65 Q-43.95 -18.25 -38.5 -19.75 -38.6 -25.3 -44.85 -25.15 M-48.95 -15.65 L-49.5 -14.65 Q-50.4 -13.4 -51.8 -12.5 -52.75 -11.95 -53.85 -11.55 L-53.45 -11.55 -47.0 -10.85 -46.65 -10.75 Q-40.65 -13.9 -31.4 -15.3 -28.5 -15.3 -28.4 -9.85 -30.5 2.65 -33.65 7.55 -35.4 13.5 -38.05 10.7 -50.75 3.15 -50.2 -0.7 -51.9 -1.4 -53.85 -3.45 L-53.95 -3.55 Q-52.0 3.0 -53.5 4.6 M-58.45 -6.05 Q-61.05 -6.75 -59.9 -8.45 -59.35 -9.6 -57.55 -9.9 -55.45 -9.9 -55.9 -7.7 -56.15 -6.0 -58.45 -6.05 M-60.75 -1.8 L-60.25 -3.15 -60.3 -2.9 -60.95 0.3 -61.05 0.75 Q-61.65 5.25 -59.35 5.1 L-57.8 4.5 -57.65 4.4 M-46.65 -10.75 L-46.3 -10.6 Q-44.35 -9.9 -44.1 -7.35 -46.05 -4.3 -49.55 -5.4 -46.45 -3.5 -47.65 -0.7 L-49.3 -0.45 -50.2 -0.7 M-61.75 -33.2 L-59.35 -32.5 M-60.95 -22.3 Q-57.2 -28.15 -51.15 -26.0 M-68.35 -38.3 Q-64.55 -41.55 -60.55 -39.15 M-38.5 -19.75 L-31.65 -21.2 M-34.7 -26.05 Q-35.35 -25.1 -36.8 -24.05 M-62.5 3.0 L-60.95 0.3 M-67.25 2.85 L-67.2 3.0 -67.15 3.15 Q-66.75 3.6 -65.9 3.55 -63.05 3.7 -60.75 -1.8 M-77.85 44.25 Q-78.3 44.65 -79.35 44.5 L-80.6 43.9 M-65.65 37.35 L-65.55 37.3 Q-63.7 37.3 -63.55 38.05 L-63.5 38.05 -63.45 38.2 M-64.4 40.95 L-64.5 40.95 Q-66.4 41.45 -67.55 39.9 M-77.8 57.25 L-80.15 58.45 Q-79.0 55.1 -79.45 48.2 M-66.6 43.8 Q-67.55 49.2 -69.2 53.2 M-69.2 42.5 Q-71.9 46.55 -73.8 50.3 M-83.55 59.45 Q-82.3 55.95 -81.35 50.65" fill="none" stroke="#000000" stroke-linecap="round" stroke-linejoin="round" stroke-width="1.5"/>
  </g>
</svg>
