<?xml version="1.0" encoding="UTF-8" standalone="no"?>
<svg xmlns:xlink="http://www.w3.org/1999/xlink" height="47.8px" width="123.8px" xmlns="http://www.w3.org/2000/svg">
  <g transform="matrix(1.0, 0.0, 0.0, 1.0, 57.45, 68.55)">
    <path d="M21.9 -33.35 Q17.9 -40.05 24.3 -46.8 22.1 -49.95 22.95 -52.6 25.6 -58.8 33.2 -57.75 37.5 -56.4 36.3 -51.5 42.75 -51.6 47.75 -49.2 52.45 -47.0 55.9 -42.65 60.15 -45.05 63.55 -42.1 66.55 -37.7 64.5 -34.15 62.45 -30.6 58.65 -30.45 56.4 -22.65 47.55 -21.75 34.05 -30.8 22.05 -33.05 L21.9 -33.35 M51.0 -36.7 L48.65 -32.9 51.0 -36.7 M43.8 -32.55 Q41.55 -31.65 40.6 -33.4 40.25 -34.05 40.05 -35.1 35.5 -33.95 35.8 -36.85 35.5 -33.95 40.05 -35.1 40.25 -34.05 40.6 -33.4 41.55 -31.65 43.8 -32.55 M35.6 -44.45 L33.05 -40.5 35.6 -44.45" fill="#c6927a" fill-rule="evenodd" stroke="none"/>
    <path d="M-2.0 -40.05 L-1.9 -46.15 -11.0 -45.4 -11.65 -54.4 -2.5 -55.6 -3.35 -61.65 Q3.6 -62.55 9.5 -61.6 L10.45 -55.7 18.85 -54.95 18.85 -46.0 10.95 -46.4 10.65 -40.45 -2.0 -40.05 M21.9 -33.35 Q17.9 -40.05 24.3 -46.8 22.1 -49.95 22.95 -52.6 25.6 -58.8 33.2 -57.75 37.5 -56.4 36.3 -51.5 42.75 -51.6 47.75 -49.2 L47.95 -50.15 Q27.55 -68.65 -6.15 -67.5 -39.85 -66.35 -56.45 -48.95 -52.45 -37.3 -43.9 -28.7 -8.1 -38.8 21.9 -33.35 L22.05 -33.05 Q34.05 -30.8 47.55 -21.75 56.4 -22.65 58.65 -30.45 62.45 -30.6 64.5 -34.15 66.55 -37.7 63.55 -42.1 60.15 -45.05 55.9 -42.65 52.45 -47.0 47.75 -49.2 M33.05 -40.5 L35.6 -44.45 M35.8 -36.85 Q35.5 -33.95 40.05 -35.1 40.25 -34.05 40.6 -33.4 41.55 -31.65 43.8 -32.55 M48.65 -32.9 L51.0 -36.7" fill="none" stroke="#000000" stroke-linecap="round" stroke-linejoin="round" stroke-width="2.0"/>
  </g>
</svg>
