<?xml version="1.0" encoding="UTF-8" standalone="no"?>
<svg xmlns:xlink="http://www.w3.org/1999/xlink" height="112.05px" width="169.4px" xmlns="http://www.w3.org/2000/svg">
  <g transform="matrix(1.0, 0.0, 0.0, 1.0, 90.15, 93.7)">
    <path d="M-15.35 -82.3 Q-13.5 -87.0 -7.75 -88.8 -8.8 -82.75 -14.9 -81.85 L-15.35 -82.3 M-15.8 -82.45 L-16.05 -81.9 Q-26.3 -83.25 -25.95 -87.2 -19.6 -87.15 -15.8 -82.45" fill="#88f492" fill-rule="evenodd" stroke="none"/>
    <path d="M-15.7 -74.5 L-16.45 -79.25 Q-30.15 -80.95 -30.25 -89.95 -20.7 -91.25 -16.25 -85.25 -15.8 -90.05 -6.55 -92.7 -2.75 -89.3 -4.9 -84.7 -7.4 -81.1 -13.25 -79.65 L-10.45 -74.55 -9.7 -73.1 Q-10.7 -71.55 -15.35 -72.05 L-15.7 -74.5 M-15.35 -82.3 L-14.9 -81.85 Q-8.8 -82.75 -7.75 -88.8 -13.5 -87.0 -15.35 -82.3 M-15.8 -82.45 Q-19.6 -87.15 -25.95 -87.2 -26.3 -83.25 -16.05 -81.9 L-15.8 -82.45" fill="#46a14f" fill-rule="evenodd" stroke="none"/>
    <path d="M38.25 -51.35 Q38.45 -50.05 37.7 -49.1 36.95 -48.15 35.65 -48.15 34.4 -48.15 33.35 -49.1 32.3 -50.05 32.1 -51.35 31.95 -52.6 32.7 -53.55 33.45 -54.5 34.7 -54.5 36.0 -54.5 37.05 -53.55 38.1 -52.6 38.25 -51.35 M-18.6 -52.75 Q-18.6 -51.3 -19.8 -50.25 -21.0 -49.2 -22.7 -49.2 -24.4 -49.2 -25.65 -50.25 -26.85 -51.3 -26.85 -52.75 -26.85 -54.2 -25.65 -55.25 -24.4 -56.25 -22.7 -56.25 -21.0 -56.25 -19.8 -55.25 -18.6 -54.2 -18.6 -52.75" fill="#583f33" fill-rule="evenodd" stroke="none"/>
    <path d="M-0.3 -51.25 Q1.7 -56.3 7.8 -59.5 15.9 -55.55 18.5 -51.65 16.75 -46.85 11.6 -42.95 3.6 -47.1 -0.3 -51.25" fill="#a3755f" fill-rule="evenodd" stroke="none"/>
    <path d="M-10.45 -74.55 L3.25 -73.9 Q16.9 -73.0 35.5 -61.75 42.3 -57.6 48.0 -52.95 L48.15 -52.8 Q55.25 -47.25 60.6 -41.1 76.5 -22.7 78.25 -3.75 L78.25 -3.6 Q78.65 12.4 67.65 15.05 L64.5 7.05 Q62.3 1.85 60.25 -1.55 L57.2 -6.4 Q46.4 -23.2 33.8 -29.8 24.8 -34.55 14.3 -35.4 -2.3 -36.15 -16.35 -30.35 -30.0 -24.75 -41.15 -12.95 L-48.7 -4.75 Q-67.8 18.25 -72.0 17.3 -84.35 14.05 -88.1 3.0 -91.9 -8.1 -82.1 -25.05 -78.45 -30.95 -74.2 -36.85 -70.55 -42.7 -64.1 -48.7 -51.05 -60.8 -41.0 -65.9 -31.0 -71.0 -25.75 -72.4 L-16.25 -74.5 -15.7 -74.5 -16.45 -79.25 Q-30.15 -80.95 -30.25 -89.95 -20.7 -91.25 -16.25 -85.25 -15.8 -90.05 -6.55 -92.7 -2.75 -89.3 -4.9 -84.7 -7.4 -81.1 -13.25 -79.65 L-10.45 -74.55 -9.7 -73.1 Q-10.7 -71.55 -15.35 -72.05 L-15.7 -74.5 M33.8 -29.8 Q41.65 -36.3 53.85 -31.3 60.8 -27.5 61.75 -18.2 62.7 -8.95 57.2 -6.4 M-48.7 -4.75 Q-57.15 -17.55 -43.9 -30.35 -30.1 -40.0 -16.35 -30.35" fill="none" stroke="#000000" stroke-linecap="round" stroke-linejoin="round" stroke-width="2.0"/>
    <path d="M-0.3 -51.25 Q1.7 -56.3 7.8 -59.5 15.9 -55.55 18.5 -51.65 16.75 -46.85 11.6 -42.95 3.6 -47.1 -0.3 -51.25" fill="none" stroke="#ffe4b1" stroke-linecap="round" stroke-linejoin="round" stroke-width="2.0"/>
  </g>
</svg>
