<?xml version="1.0" encoding="UTF-8" standalone="no"?>
<svg xmlns:xlink="http://www.w3.org/1999/xlink" height="75.85px" width="109.45px" xmlns="http://www.w3.org/2000/svg">
  <g transform="matrix(1.0, 0.0, 0.0, 1.0, 43.05, 109.0)">
    <path d="M30.0 -37.55 L31.35 -39.15 Q39.7 -52.3 48.05 -59.65 56.35 -67.05 61.15 -76.75 66.0 -86.45 65.3 -94.95 64.6 -103.5 51.3 -97.6 37.95 -91.75 28.75 -75.4 17.9 -49.35 17.95 -41.95 18.0 -36.8 21.55 -35.45 25.95 -32.05 30.0 -37.55 M-25.15 -37.5 Q-15.8 -43.65 -13.0 -70.3 -10.2 -96.95 -23.15 -107.9 -32.9 -109.3 -40.05 -84.75 -44.05 -65.5 -40.0 -50.1 -35.95 -34.7 -32.55 -35.0 -29.7 -33.55 -27.6 -35.0 -25.5 -36.45 -25.15 -37.5" fill="none" stroke="#000000" stroke-linecap="round" stroke-linejoin="round" stroke-width="2.0"/>
    <path d="M21.55 -35.45 Q24.1 -47.45 27.85 -56.95 38.0 -79.85 49.9 -86.75 57.75 -90.55 55.5 -81.8 53.0 -70.8 45.25 -61.6 32.85 -46.8 30.0 -37.55 M-32.55 -35.0 Q-36.6 -76.75 -27.25 -90.8 -23.6 -94.2 -21.0 -86.2 -17.0 -62.35 -25.15 -37.5" fill="none" stroke="#000000" stroke-linecap="round" stroke-linejoin="round" stroke-opacity="0.7490196" stroke-width="2.0"/>
  </g>
</svg>
