<?xml version="1.0" encoding="UTF-8" standalone="no"?>
<svg xmlns:xlink="http://www.w3.org/1999/xlink" height="60.7px" width="108.7px" xmlns="http://www.w3.org/2000/svg">
  <g transform="matrix(1.0, 0.0, 0.0, 1.0, 32.85, 68.6)">
    <path d="M67.95 -26.0 Q67.1 -23.55 67.5 -20.6 74.6 -14.8 74.85 -11.45 75.05 -8.15 69.5 -9.4 63.9 -10.65 63.5 -19.95 L63.3 -23.05 Q63.15 -25.05 63.7 -27.5 64.05 -47.7 54.15 -55.45 50.25 -58.45 42.8 -57.7 34.3 -55.8 25.25 -34.9 19.85 -33.85 17.1 -37.0 25.75 -57.3 34.35 -63.0 42.35 -68.2 50.55 -65.55 58.7 -62.9 65.05 -52.45 71.4 -42.0 67.95 -26.5 M-31.85 -36.75 Q-29.8 -58.0 -23.9 -63.5 -18.95 -69.9 -10.65 -66.35 -5.15 -64.1 -1.15 -54.15 1.85 -46.75 2.85 -34.0 L3.55 -22.3 Q7.65 -17.0 8.55 -14.4 9.45 -11.8 8.35 -10.1 4.6 -7.25 1.15 -11.1 -2.35 -15.05 -0.2 -22.9 -4.9 -49.65 -8.3 -54.65 -11.75 -59.65 -16.2 -58.7 -20.7 -57.75 -23.8 -35.4 -28.5 -33.55 -31.85 -36.75" fill="none" stroke="#000000" stroke-linecap="round" stroke-linejoin="round" stroke-width="2.0"/>
  </g>
</svg>
