<?xml version="1.0" encoding="UTF-8" standalone="no"?>
<svg xmlns:xlink="http://www.w3.org/1999/xlink" height="104.85px" width="198.0px" xmlns="http://www.w3.org/2000/svg">
  <g transform="matrix(1.0, 0.0, 0.0, 1.0, 109.8, 120.6)">
    <path d="M75.65 -95.15 L73.35 -98.55 73.15 -98.7 64.45 -109.9 Q62.75 -112.15 63.25 -112.9 L65.75 -111.55 Q85.4 -100.35 87.0 -85.25 88.55 -70.6 77.6 -55.0 L61.45 -31.0 Q71.65 -37.4 81.5 -35.45 L80.6 -34.55 78.95 -33.05 72.1 -31.5 Q64.9 -29.85 58.65 -25.25 46.4 -18.3 46.05 -17.15 L43.85 -17.7 Q42.35 -18.3 41.45 -19.55 L41.2 -19.95 Q40.45 -21.15 40.15 -22.65 55.55 -34.0 55.05 -45.8 54.5 -57.65 51.65 -60.15 52.2 -63.75 52.8 -64.3 L53.75 -63.25 Q60.65 -54.95 58.1 -40.55 L68.95 -62.0 Q69.9 -67.25 68.75 -70.0 67.35 -73.25 66.2 -74.85 L66.6 -77.45 68.95 -76.1 Q72.3 -73.6 75.05 -68.2 L75.5 -69.0 Q78.35 -74.05 79.35 -82.5 79.8 -85.15 78.95 -88.1 L78.9 -88.15 Q74.1 -92.65 68.05 -96.45 66.0 -98.35 66.45 -98.8 71.2 -98.25 75.65 -95.15 L78.9 -88.15 M-95.85 -104.15 Q-98.0 -100.8 -99.15 -97.75 -92.85 -102.1 -87.95 -103.6 L-84.65 -104.45 Q-84.05 -103.9 -86.1 -101.9 -94.45 -96.3 -100.45 -87.75 L-100.3 -86.9 Q-97.9 -77.1 -93.7 -71.6 -90.8 -79.3 -85.9 -81.55 L-85.7 -80.6 -85.2 -78.7 Q-86.2 -76.95 -87.25 -73.5 -88.15 -70.6 -86.45 -64.9 L-72.0 -41.9 Q-76.9 -58.4 -69.3 -67.4 -68.9 -67.1 -68.35 -65.5 L-67.6 -62.95 Q-68.5 -59.75 -68.95 -52.75 -69.6 -43.05 -59.9 -31.9 -56.05 -27.45 -50.45 -22.75 L-50.65 -21.0 Q-51.1 -19.7 -51.8 -18.75 L-51.95 -18.6 Q-53.8 -16.7 -57.5 -16.75 L-70.55 -25.5 Q-77.9 -30.35 -85.85 -32.2 L-93.4 -33.85 -96.45 -36.45 Q-86.15 -38.55 -74.35 -31.65 L-94.85 -57.45 Q-108.6 -74.15 -108.8 -89.9 -109.0 -102.25 -97.65 -112.15 -93.15 -116.05 -86.9 -119.6 -86.25 -118.8 -87.8 -116.35 L-95.65 -104.35 -95.85 -104.15 M-100.45 -87.75 L-100.45 -87.8 Q-100.95 -90.2 -100.55 -92.8 L-100.35 -93.95 -99.15 -97.75" fill="none" stroke="#000000" stroke-linecap="round" stroke-linejoin="round" stroke-width="2.0"/>
  </g>
</svg>
