<?xml version="1.0" encoding="UTF-8" standalone="no"?>
<svg xmlns:xlink="http://www.w3.org/1999/xlink" height="158.7px" width="124.7px" xmlns="http://www.w3.org/2000/svg">
  <g transform="matrix(1.0, 0.0, 0.0, 1.0, 62.35, 82.15)">
    <path d="M61.6 -7.25 Q60.15 -4.0 60.45 2.65 L60.45 2.75 Q61.15 14.15 61.0 24.1 L61.0 24.45 61.0 24.6 Q60.55 41.35 57.15 52.0 50.7 76.75 11.4 76.55 -28.65 76.15 -37.6 56.0 -42.05 46.0 -45.7 24.6 L-45.8 24.6 -46.35 21.2 -50.15 21.3 Q-54.6 20.5 -59.35 14.0 -64.95 6.3 -60.15 0.45 -58.5 -0.8 -55.75 -1.0 L-55.2 -0.4 Q-59.3 -12.1 -60.1 -21.2 -60.75 -48.95 -45.55 -64.25 -21.7 -86.55 11.6 -81.1 21.7 -78.65 29.65 -75.3 L29.7 -75.25 Q48.55 -65.9 54.7 -52.75 64.8 -33.55 61.6 -7.25" fill="#fff1e0" fill-rule="evenodd" stroke="none"/>
  </g>
</svg>
