<?xml version="1.0" encoding="UTF-8" standalone="no"?>
<svg xmlns:xlink="http://www.w3.org/1999/xlink" height="39.0px" width="85.4px" xmlns="http://www.w3.org/2000/svg">
  <g transform="matrix(1.0, 0.0, 0.0, 1.0, 42.7, 19.5)">
    <path d="M-33.25 -18.75 L33.25 -18.75 Q41.95 -18.75 41.95 -10.1 L41.95 6.05 Q41.95 14.75 33.25 14.75 L5.0 14.75 0.05 18.75 -5.2 14.75 -33.25 14.75 Q-41.95 14.75 -41.95 6.05 L-41.95 -10.1 Q-41.95 -18.75 -33.25 -18.75" fill="url(#gradient0)" fill-rule="evenodd" stroke="none"/>
    <path d="M-33.25 -18.75 L33.25 -18.75 Q41.95 -18.75 41.95 -10.1 L41.95 6.05 Q41.95 14.75 33.25 14.75 L5.0 14.75 0.05 18.75 -5.2 14.75 -33.25 14.75 Q-41.95 14.75 -41.95 6.05 L-41.95 -10.1 Q-41.95 -18.75 -33.25 -18.75 Z" fill="none" stroke="#000000" stroke-linecap="round" stroke-linejoin="round" stroke-width="1.5"/>
  </g>
  <defs>
    <linearGradient gradientTransform="matrix(0.0, 0.019, -0.0512, 0.0, 0.0, -1.1)" gradientUnits="userSpaceOnUse" id="gradient0" spreadMethod="pad" x1="-819.2" x2="819.2">
      <stop offset="0.0" stop-color="#fffbcd"/>
      <stop offset="0.5372549019607843" stop-color="#d0f5ff"/>
      <stop offset="1.0" stop-color="#ffcbf6"/>
    </linearGradient>
  </defs>
</svg>
