<?xml version="1.0" encoding="UTF-8" standalone="no"?>
<svg xmlns:xlink="http://www.w3.org/1999/xlink" height="39.0px" width="141.0px" xmlns="http://www.w3.org/2000/svg">
  <g transform="matrix(1.0, 0.0, 0.0, 1.0, 70.5, 19.5)">
    <path d="M-61.05 -18.75 L61.05 -18.75 Q69.75 -18.75 69.75 -10.1 L69.75 6.05 Q69.75 14.75 61.05 14.75 L5.0 14.75 0.05 18.75 -5.2 14.75 -61.05 14.75 Q-69.75 14.75 -69.75 6.05 L-69.75 -10.1 Q-69.75 -18.75 -61.05 -18.75" fill="url(#gradient0)" fill-rule="evenodd" stroke="none"/>
    <path d="M-61.05 -18.75 L61.05 -18.75 Q69.75 -18.75 69.75 -10.1 L69.75 6.05 Q69.75 14.75 61.05 14.75 L5.0 14.75 0.05 18.75 -5.2 14.75 -61.05 14.75 Q-69.75 14.75 -69.75 6.05 L-69.75 -10.1 Q-69.75 -18.75 -61.05 -18.75 Z" fill="none" stroke="#000000" stroke-linecap="round" stroke-linejoin="round" stroke-width="1.5"/>
  </g>
  <defs>
    <linearGradient gradientTransform="matrix(0.0, 0.0186, -0.0851, 0.0, 0.0, -1.95)" gradientUnits="userSpaceOnUse" id="gradient0" spreadMethod="pad" x1="-819.2" x2="819.2">
      <stop offset="0.0" stop-color="#fffbcd"/>
      <stop offset="0.5372549019607843" stop-color="#d0f5ff"/>
      <stop offset="1.0" stop-color="#ffcbf6"/>
    </linearGradient>
  </defs>
</svg>
