<?xml version="1.0" encoding="UTF-8" standalone="no"?>
<svg xmlns:xlink="http://www.w3.org/1999/xlink" height="53.35px" width="174.5px" xmlns="http://www.w3.org/2000/svg">
  <g transform="matrix(1.0, 0.0, 0.0, 1.0, 87.25, 26.7)">
    <path d="M-77.8 -25.95 L77.8 -25.95 Q86.5 -25.95 86.5 -17.3 L86.5 13.2 Q86.5 21.9 77.8 21.9 L5.0 21.9 0.05 25.9 -5.2 21.9 -77.8 21.9 Q-86.5 21.9 -86.5 13.2 L-86.5 -17.3 Q-86.5 -25.95 -77.8 -25.95" fill="url(#gradient0)" fill-rule="evenodd" stroke="none"/>
    <path d="M-77.8 -25.95 L77.8 -25.95 Q86.5 -25.95 86.5 -17.3 L86.5 13.2 Q86.5 21.9 77.8 21.9 L5.0 21.9 0.05 25.9 -5.2 21.9 -77.8 21.9 Q-86.5 21.9 -86.5 13.2 L-86.5 -17.3 Q-86.5 -25.95 -77.8 -25.95 Z" fill="none" stroke="#000000" stroke-linecap="round" stroke-linejoin="round" stroke-width="1.5"/>
  </g>
  <defs>
    <linearGradient gradientTransform="matrix(0.0, 0.0276, -0.1056, 0.0, 0.0, -1.7)" gradientUnits="userSpaceOnUse" id="gradient0" spreadMethod="pad" x1="-819.2" x2="819.2">
      <stop offset="0.0" stop-color="#5a4798"/>
      <stop offset="0.5098039215686274" stop-color="#823381"/>
      <stop offset="1.0" stop-color="#9a3c4c"/>
    </linearGradient>
  </defs>
</svg>
