<?xml version="1.0" encoding="UTF-8" standalone="no"?>
<svg xmlns:xlink="http://www.w3.org/1999/xlink" height="63.5px" width="174.5px" xmlns="http://www.w3.org/2000/svg">
  <g transform="matrix(1.0, 0.0, 0.0, 1.0, 87.25, 31.75)">
    <path d="M-77.8 -31.0 L77.8 -31.0 Q86.5 -31.0 86.5 -22.35 L86.5 18.3 Q86.5 27.0 77.8 27.0 L5.0 27.0 0.05 31.0 -5.2 27.0 -77.8 27.0 Q-86.5 27.0 -86.5 18.3 L-86.5 -22.35 Q-86.5 -31.0 -77.8 -31.0" fill="url(#gradient0)" fill-rule="evenodd" stroke="none"/>
    <path d="M-77.8 -31.0 L77.8 -31.0 Q86.5 -31.0 86.5 -22.35 L86.5 18.3 Q86.5 27.0 77.8 27.0 L5.0 27.0 0.05 31.0 -5.2 27.0 -77.8 27.0 Q-86.5 27.0 -86.5 18.3 L-86.5 -22.35 Q-86.5 -31.0 -77.8 -31.0 Z" fill="none" stroke="#000000" stroke-linecap="round" stroke-linejoin="round" stroke-width="1.5"/>
  </g>
  <defs>
    <linearGradient gradientTransform="matrix(0.0, 0.0331, -0.1056, 0.0, 0.0, -2.25)" gradientUnits="userSpaceOnUse" id="gradient0" spreadMethod="pad" x1="-819.2" x2="819.2">
      <stop offset="0.0" stop-color="#190303"/>
      <stop offset="1.0" stop-color="#791616"/>
    </linearGradient>
  </defs>
</svg>
