<?xml version="1.0" encoding="UTF-8" standalone="no"?>
<svg xmlns:xlink="http://www.w3.org/1999/xlink" height="80.75px" width="174.5px" xmlns="http://www.w3.org/2000/svg">
  <g transform="matrix(1.0, 0.0, 0.0, 1.0, 87.25, 40.4)">
    <path d="M-77.8 -39.65 L77.8 -39.65 Q86.5 -39.65 86.5 -31.0 L86.5 26.9 Q86.5 35.6 77.8 35.6 L5.0 35.6 0.05 39.6 -5.2 35.6 -77.8 35.6 Q-86.5 35.6 -86.5 26.9 L-86.5 -31.0 Q-86.5 -39.65 -77.8 -39.65" fill="url(#gradient0)" fill-rule="evenodd" stroke="none"/>
    <path d="M-77.8 -39.65 L77.8 -39.65 Q86.5 -39.65 86.5 -31.0 L86.5 26.9 Q86.5 35.6 77.8 35.6 L5.0 35.6 0.05 39.6 -5.2 35.6 -77.8 35.6 Q-86.5 35.6 -86.5 26.9 L-86.5 -31.0 Q-86.5 -39.65 -77.8 -39.65 Z" fill="none" stroke="#000000" stroke-linecap="round" stroke-linejoin="round" stroke-width="1.5"/>
  </g>
  <defs>
    <linearGradient gradientTransform="matrix(0.0, 0.044, -0.1056, 0.0, 0.0, -1.55)" gradientUnits="userSpaceOnUse" id="gradient0" spreadMethod="pad" x1="-819.2" x2="819.2">
      <stop offset="0.0" stop-color="#5a4798"/>
      <stop offset="0.5098039215686274" stop-color="#823381"/>
      <stop offset="1.0" stop-color="#9a3c4c"/>
    </linearGradient>
  </defs>
</svg>
