<?xml version="1.0" encoding="UTF-8" standalone="no"?>
<svg xmlns:xlink="http://www.w3.org/1999/xlink" height="98.5px" width="174.5px" xmlns="http://www.w3.org/2000/svg">
  <g transform="matrix(1.0, 0.0, 0.0, 1.0, 87.25, 49.25)">
    <path d="M-77.8 -48.5 L77.8 -48.5 Q86.5 -48.5 86.5 -39.85 L86.5 35.8 Q86.5 44.5 77.8 44.5 L5.0 44.5 0.05 48.5 -5.2 44.5 -77.8 44.5 Q-86.5 44.5 -86.5 35.8 L-86.5 -39.85 Q-86.5 -48.5 -77.8 -48.5" fill="url(#gradient0)" fill-rule="evenodd" stroke="none"/>
    <path d="M-77.8 -48.5 L77.8 -48.5 Q86.5 -48.5 86.5 -39.85 L86.5 35.8 Q86.5 44.5 77.8 44.5 L5.0 44.5 0.05 48.5 -5.2 44.5 -77.8 44.5 Q-86.5 44.5 -86.5 35.8 L-86.5 -39.85 Q-86.5 -48.5 -77.8 -48.5 Z" fill="none" stroke="#000000" stroke-linecap="round" stroke-linejoin="round" stroke-width="1.5"/>
  </g>
  <defs>
    <linearGradient gradientTransform="matrix(0.0, 0.0535, -0.1056, 0.0, 0.0, -2.3)" gradientUnits="userSpaceOnUse" id="gradient0" spreadMethod="pad" x1="-819.2" x2="819.2">
      <stop offset="0.0" stop-color="#190303"/>
      <stop offset="1.0" stop-color="#791616"/>
    </linearGradient>
  </defs>
</svg>
