<?xml version="1.0" encoding="UTF-8" standalone="no"?>
<svg xmlns:xlink="http://www.w3.org/1999/xlink" height="89.35px" width="66.75px" xmlns="http://www.w3.org/2000/svg">
  <g transform="matrix(1.0, 0.0, 0.0, 1.0, 32.5, 62.05)">
    <path d="M26.15 -10.15 L28.45 -11.8 33.75 20.0 Q32.8 20.6 31.35 20.0 L26.15 -10.15" fill="#a5b1b8" fill-rule="evenodd" stroke="none"/>
    <path d="M-16.3 -6.15 Q-20.85 -6.05 -23.55 -3.7 -24.0 -6.35 -22.4 -6.9 -20.0 -6.25 -16.3 -6.15" fill="#5a5959" fill-rule="evenodd" stroke="none"/>
    <path d="M-23.55 -3.7 L-28.35 22.65 Q-30.25 23.45 -31.1 22.45 L-25.25 -8.05 Q-24.05 -7.4 -22.4 -6.9 -24.0 -6.35 -23.55 -3.7" fill="#626876" fill-rule="evenodd" stroke="none"/>
    <path d="M-1.95 -2.15 L-1.2 0.55 -0.45 4.0 0.45 7.85 4.4 26.25 1.25 26.4 -0.05 19.8 -1.2 13.65 -2.05 9.35 Q-3.7 1.55 -4.95 -3.15 -5.5 -4.95 -13.85 -5.9 L-3.75 -5.1 -2.7 -4.8 -1.95 -2.15" fill="#a4b1ba" fill-rule="evenodd" stroke="none"/>
    <path d="M4.8 -2.3 L3.35 -1.6 0.45 7.85 -0.45 4.0 1.05 -0.6 -1.2 0.55 -1.95 -2.15 1.8 -3.4 4.8 -2.3 M-1.2 13.65 L-2.65 20.05 Q-4.05 20.35 -4.65 19.65 L-4.6 19.35 -2.05 9.35 -1.2 13.65" fill="#645d65" fill-rule="evenodd" stroke="none"/>
    <path d="M-22.9 -60.95 L-13.5 -61.5 Q-6.75 -62.1 -5.3 -55.85 L0.05 -31.75 Q1.7 -27.2 3.35 -25.0 6.8 -20.25 16.5 -20.55 23.5 -20.4 27.5 -17.55 31.95 -14.8 29.7 -12.75 L28.45 -11.8 26.15 -10.15 Q21.7 -7.15 14.0 -3.25 L12.4 -2.35 Q12.9 -4.7 9.55 -6.15 L11.2 -6.6 Q30.7 -14.95 25.45 -16.6 14.25 -20.2 3.35 -17.85 -5.95 -16.35 -14.75 -11.05 -19.4 -11.4 -21.95 -14.1 -22.3 -13.1 -22.75 -15.05 -23.7 -18.65 -24.5 -37.05 -25.3 -55.55 -22.9 -60.95 M-13.85 -5.9 L-16.3 -6.15 Q-20.0 -6.25 -22.4 -6.9 -24.05 -7.4 -25.25 -8.05 L-26.3 -8.85 Q-29.75 -11.95 -29.65 -30.1 L-29.55 -31.75 Q-30.3 -49.5 -32.0 -58.35 L-31.55 -59.35 Q-30.9 -59.2 -30.3 -58.3 -28.7 -48.9 -27.05 -31.75 -26.65 -26.25 -26.55 -21.0 -26.35 -11.5 -20.65 -9.9 -8.45 -8.2 -3.75 -5.1 L-13.85 -5.9" fill="#558bbb" fill-rule="evenodd" stroke="none"/>
    <path d="M-22.9 -60.95 Q-25.3 -55.55 -24.5 -37.05 -23.7 -18.65 -22.75 -15.05 -24.75 -17.8 -25.0 -22.4 L-25.7 -31.75 Q-28.0 -54.85 -30.3 -58.3 -30.9 -59.2 -31.55 -59.35 -30.8 -60.4 -28.95 -60.6 L-23.2 -60.9 -22.9 -60.95 M-14.75 -11.05 Q-5.95 -16.35 3.35 -17.85 14.25 -20.2 25.45 -16.6 30.7 -14.95 11.2 -6.6 L9.55 -6.15 Q3.1 -5.15 -14.75 -11.05" fill="#3e668a" fill-rule="evenodd" stroke="none"/>
    <path d="M-22.75 -15.05 Q-22.3 -13.1 -21.95 -14.1 -19.4 -11.4 -14.75 -11.05 3.1 -5.15 9.55 -6.15 12.9 -4.7 12.4 -2.35 8.85 -0.95 4.8 -2.3 L1.8 -3.4 -2.75 -4.95 -3.75 -5.1 Q-8.45 -8.2 -20.65 -9.9 -26.35 -11.5 -26.55 -21.0 -26.65 -26.25 -27.05 -31.75 -28.7 -48.9 -30.3 -58.3 -28.0 -54.85 -25.7 -31.75 L-25.0 -22.4 Q-24.75 -17.8 -22.75 -15.05" fill="#63a3db" fill-rule="evenodd" stroke="none"/>
    <path d="M28.45 -11.8 L29.7 -12.75 Q31.95 -14.8 27.5 -17.55 23.5 -20.4 16.5 -20.55 6.8 -20.25 3.35 -25.0 1.7 -27.2 0.05 -31.75 L-5.3 -55.85 Q-6.75 -62.1 -13.5 -61.5 L-22.9 -60.95 M12.4 -2.35 L14.0 -3.25 Q21.7 -7.15 26.15 -10.15 L28.45 -11.8 33.75 20.0 Q32.8 20.6 31.35 20.0 L26.15 -10.15 M0.45 7.85 L3.35 -1.6 4.8 -2.3 1.8 -3.4 -1.95 -2.15 -1.2 0.55 1.05 -0.6 -0.45 4.0 0.45 7.85 4.4 26.25 1.25 26.4 -0.05 19.8 -1.2 13.65 -2.65 20.05 Q-4.05 20.35 -4.65 19.65 M-4.6 19.35 L-2.05 9.35 Q-3.7 1.55 -4.95 -3.15 -5.5 -4.95 -13.85 -5.9 L-16.3 -6.15 Q-20.85 -6.05 -23.55 -3.7 L-28.35 22.65 Q-30.25 23.45 -31.1 22.45 L-25.25 -8.05 -26.3 -8.85 Q-29.75 -11.95 -29.65 -30.1 L-29.55 -31.75 Q-30.3 -49.5 -32.0 -58.35 L-31.55 -59.35 Q-30.8 -60.4 -28.95 -60.6 L-23.2 -60.9 M4.8 -2.3 Q8.85 -0.95 12.4 -2.35 M-25.25 -8.05 Q-24.05 -7.4 -22.4 -6.9 -20.0 -6.25 -16.3 -6.15 M-1.95 -2.15 L-2.7 -4.8 -3.75 -5.1 -13.85 -5.9 M1.8 -3.4 L-2.75 -4.95 -3.75 -5.1 M-2.05 9.35 L-1.2 13.65 M-0.45 4.0 L-1.2 0.55" fill="none" stroke="#000000" stroke-linecap="round" stroke-linejoin="round" stroke-width="1.0"/>
  </g>
</svg>
