<?xml version="1.0" encoding="UTF-8" standalone="no"?>
<svg xmlns:xlink="http://www.w3.org/1999/xlink" height="200.65px" width="65.0px" xmlns="http://www.w3.org/2000/svg">
  <g transform="matrix(1.0, 0.0, 0.0, 1.0, 32.05, 144.15)">
    <path d="M18.55 15.95 Q19.05 18.35 20.45 20.9 L27.95 34.5 Q29.8 38.85 28.1 40.3 L27.6 40.65 Q24.9 42.1 21.0 36.75 14.8 29.0 8.7 23.6 9.5 19.25 12.15 16.95 14.7 15.8 18.55 15.95" fill="#b8c5cd" fill-rule="evenodd" stroke="none"/>
    <path d="M-4.8 -25.6 Q-6.85 -22.8 -9.3 -23.05 -11.8 -23.5 -12.85 -26.6 -13.95 -30.15 -14.4 -37.25 -14.85 -41.15 -18.6 -41.2 -22.4 -40.65 -24.35 -35.15 -26.7 -27.85 -24.7 -18.6 L-21.75 -8.1 Q-20.15 -2.1 -22.2 2.5 -27.55 13.2 -30.65 22.85 -32.65 31.75 -28.6 39.35 -25.5 47.3 -12.5 51.9 0.05 55.55 15.75 55.75 26.45 55.1 30.5 48.45 32.9 43.35 31.9 35.5 31.0 31.95 27.95 27.6 21.3 17.55 21.9 12.8 22.5 8.2 24.55 2.75 29.1 -10.95 24.65 -20.65 23.45 -23.9 20.45 -23.95 17.4 -23.8 17.25 -20.75 16.8 -17.1 15.65 -15.25 13.8 -11.7 10.25 -11.55 5.85 -12.2 4.1 -18.85 2.35 -23.55 -0.35 -24.95 -3.1 -26.35 -4.8 -25.6 M8.7 23.6 Q1.05 19.95 -8.55 19.1 -14.75 18.45 -15.5 11.95 -15.6 7.4 -12.7 1.45 -9.1 -5.05 -9.85 -12.0 L-10.95 -18.2 Q-11.1 -20.8 -8.85 -20.15 -3.45 -14.85 2.05 -12.2 8.35 -8.35 13.5 -9.75 16.95 -11.1 18.85 -16.1 20.0 -22.35 21.3 -20.6 24.4 -16.25 23.6 -7.15 22.8 -1.6 20.75 4.35 18.95 8.8 18.15 13.15 18.2 14.5 18.55 15.95 19.05 18.35 20.45 20.9 L27.95 34.5 Q29.8 38.85 28.1 40.3 L27.6 40.65 Q24.9 42.1 21.0 36.75 14.8 29.0 8.7 23.6 9.5 19.25 12.15 16.95 14.7 15.8 18.55 15.95" fill="none" stroke="#000000" stroke-linecap="round" stroke-linejoin="round" stroke-width="1.5"/>
    <path d="M-4.8 -25.6 Q-3.1 -26.35 -0.35 -24.95 2.35 -23.55 4.1 -18.85 5.85 -12.2 10.25 -11.55 13.8 -11.7 15.65 -15.25 16.8 -17.1 17.25 -20.75 17.4 -23.8 20.45 -23.95 23.45 -23.9 24.65 -20.65 29.1 -10.95 24.55 2.75 22.5 8.2 21.9 12.8 21.3 17.55 27.95 27.6 31.0 31.95 31.9 35.5 32.9 43.35 30.5 48.45 26.45 55.1 15.75 55.75 0.05 55.55 -12.5 51.9 -25.5 47.3 -28.6 39.35 -32.65 31.75 -30.65 22.85 -27.55 13.2 -22.2 2.5 -20.15 -2.1 -21.75 -8.1 L-24.7 -18.6 Q-26.7 -27.85 -24.35 -35.15 -22.4 -40.65 -18.6 -41.2 -14.85 -41.15 -14.4 -37.25 -13.95 -30.15 -12.85 -26.6 -11.8 -23.5 -9.3 -23.05 -6.85 -22.8 -4.8 -25.6 M-10.95 -18.2 L-10.65 -16.75 Q-14.05 -19.75 -15.35 -24.35 -16.3 -27.9 -17.1 -33.15 -17.4 -35.95 -18.95 -36.8 -20.45 -37.65 -21.9 -31.85 -23.25 -23.95 -21.05 -17.05 -17.95 -9.95 -16.95 -4.65 -15.95 0.35 -18.45 6.0 L-22.35 15.2 Q-25.8 22.35 -26.25 28.95 -26.9 37.55 -19.25 44.05 -12.8 48.2 0.4 50.3 13.6 52.4 20.6 49.7 27.55 47.0 27.6 40.65 L28.1 40.3 Q29.8 38.85 27.95 34.5 L20.45 20.9 Q19.05 18.35 18.55 15.95 18.2 14.5 18.15 13.15 18.95 8.8 20.75 4.35 22.8 -1.6 23.6 -7.15 24.4 -16.25 21.3 -20.6 20.0 -22.35 18.85 -16.1 16.95 -11.1 13.5 -9.75 8.35 -8.35 2.05 -12.2 -3.45 -14.85 -8.85 -20.15 -11.1 -20.8 -10.95 -18.2" fill="#000000" fill-opacity="0.32941177" fill-rule="evenodd" stroke="none"/>
    <path d="M-7.9 9.85 L6.8 9.85 6.8 14.4 -7.9 14.4 -7.9 9.85 M-7.9 26.75 L6.8 26.75 6.8 31.25 -7.9 31.25 -7.9 26.75" fill="#666666" fill-rule="evenodd" stroke="none"/>
    <path d="M-5.35 -14.85 L4.25 -14.85 4.25 -13.25 -5.35 -13.25 -5.35 -14.85" fill="#a8a8a8" fill-rule="evenodd" stroke="none"/>
    <path d="M-5.35 -14.85 L4.25 -14.85 4.25 -13.25 -5.35 -13.25 -5.35 -14.85 M-7.9 9.85 L6.8 9.85 6.8 14.4 -7.9 14.4 -7.9 9.85 M-7.9 26.75 L6.8 26.75 6.8 31.25 -7.9 31.25 -7.9 26.75" fill="none" stroke="#000000" stroke-linecap="round" stroke-linejoin="round" stroke-width="1.5"/>
    <path d="M21.7 -18.4 L21.45 -17.7 20.8 -17.5 20.1 -17.7 Q19.95 -17.95 19.95 -18.4 19.95 -18.75 20.1 -18.95 L20.8 -19.25 21.45 -18.95 21.7 -18.4 M7.65 -8.1 L7.45 -7.5 Q7.15 -7.2 6.75 -7.2 6.35 -7.2 6.15 -7.5 5.9 -7.75 5.9 -8.1 L6.15 -8.8 6.75 -9.0 7.45 -8.8 7.65 -8.1 M22.85 -7.55 L22.6 -6.9 Q22.35 -6.6 21.95 -6.6 21.55 -6.6 21.3 -6.9 21.05 -7.15 21.05 -7.55 L21.3 -8.15 Q21.55 -8.45 21.95 -8.45 L22.6 -8.15 22.85 -7.55 M20.1 3.85 L19.9 4.5 19.25 4.75 18.6 4.5 Q18.35 4.25 18.35 3.85 18.35 3.5 18.6 3.25 18.8 2.95 19.25 2.95 19.6 2.95 19.9 3.25 L20.1 3.85 M8.4 21.25 L8.1 21.95 7.5 22.2 6.85 21.95 Q6.55 21.65 6.55 21.25 6.55 20.95 6.85 20.65 7.15 20.35 7.5 20.35 7.85 20.35 8.1 20.65 L8.4 21.25 M17.55 14.55 L17.35 15.2 16.7 15.5 16.05 15.2 15.8 14.55 Q15.8 14.2 16.05 13.9 16.3 13.6 16.7 13.6 17.1 13.6 17.35 13.9 L17.55 14.55 M-8.65 -18.6 L-8.9 -17.9 Q-9.1 -17.65 -9.5 -17.65 -9.9 -17.65 -10.15 -17.9 L-10.4 -18.6 -10.15 -19.2 -9.5 -19.45 -8.9 -19.2 -8.65 -18.6 M-7.45 -6.0 Q-7.45 -5.6 -7.7 -5.35 -8.0 -5.1 -8.4 -5.1 L-9.0 -5.35 -9.3 -6.0 -9.0 -6.6 -8.4 -6.9 -7.7 -6.6 Q-7.45 -6.4 -7.45 -6.0 M-11.2 4.2 Q-11.2 4.6 -11.5 4.8 -11.75 5.1 -12.15 5.1 L-12.8 4.8 -13.05 4.2 -12.8 3.5 -12.15 3.3 Q-11.75 3.3 -11.5 3.5 -11.2 3.8 -11.2 4.2 M-12.3 14.3 L-12.55 14.9 Q-12.85 15.2 -13.2 15.2 L-13.85 14.9 -14.15 14.3 -13.85 13.6 -13.2 13.35 Q-12.85 13.35 -12.55 13.6 -12.3 13.9 -12.3 14.3" fill="#aeb4bf" fill-rule="evenodd" stroke="none"/>
    <path d="M14.75 19.25 L14.85 19.25 Q15.55 19.25 16.05 19.75 16.55 20.2 16.55 20.95 16.55 21.65 16.05 22.15 15.55 22.65 14.85 22.65 14.15 22.65 13.65 22.15 13.15 21.65 13.15 20.95 13.15 20.2 13.65 19.75 14.15 19.3 14.75 19.25 L14.75 20.8 14.75 19.25 M19.95 25.45 L20.0 25.5 Q20.5 26.0 20.45 26.75 20.5 27.35 20.0 27.95 L18.75 28.4 Q18.1 28.4 17.55 27.95 17.15 27.4 17.15 26.75 17.1 26.0 17.55 25.5 18.1 25.0 18.75 25.0 19.5 25.0 19.95 25.45 L18.85 26.55 19.95 25.45 M23.25 34.95 L23.15 34.95 Q22.45 34.95 21.95 34.5 21.45 34.0 21.45 33.3 21.45 32.55 21.95 32.1 22.45 31.55 23.15 31.55 23.85 31.55 24.35 32.1 24.9 32.55 24.9 33.3 24.9 34.0 24.35 34.5 L23.25 34.95 23.25 33.45 23.25 34.95" fill="#cfdee7" fill-rule="evenodd" stroke="none"/>
    <path d="M14.75 18.65 L14.85 18.65 Q15.8 18.65 16.35 19.35 17.1 19.95 17.1 20.95 17.1 21.9 16.35 22.5 15.8 23.2 14.85 23.2 13.9 23.2 13.25 22.5 12.6 21.9 12.6 20.95 12.6 19.95 13.25 19.35 13.9 18.7 14.75 18.65 L14.75 19.25 Q14.15 19.3 13.65 19.75 13.15 20.2 13.15 20.95 13.15 21.65 13.65 22.15 14.15 22.65 14.85 22.65 15.55 22.65 16.05 22.15 16.55 21.65 16.55 20.95 16.55 20.2 16.05 19.75 15.55 19.25 14.85 19.25 L14.75 19.25 14.75 18.65 M19.95 25.45 Q19.5 25.0 18.75 25.0 18.1 25.0 17.55 25.5 17.1 26.0 17.15 26.75 17.15 27.4 17.55 27.95 18.1 28.4 18.75 28.4 L20.0 27.95 Q20.5 27.35 20.45 26.75 20.5 26.0 20.0 25.5 L19.95 25.45 20.3 25.1 20.35 25.15 Q21.1 25.8 21.1 26.7 21.1 27.6 20.35 28.3 19.75 28.95 18.75 28.9 17.85 28.95 17.25 28.3 16.55 27.65 16.55 26.75 16.55 25.8 17.3 25.15 17.9 24.45 18.8 24.45 19.75 24.45 20.3 25.1 L19.95 25.45 M23.25 34.95 L24.35 34.5 Q24.9 34.0 24.9 33.3 24.9 32.55 24.35 32.1 23.85 31.55 23.15 31.55 22.45 31.55 21.95 32.1 21.45 32.55 21.45 33.3 21.45 34.0 21.95 34.5 22.45 34.95 23.15 34.95 L23.25 34.95 23.25 35.5 23.15 35.5 Q22.25 35.5 21.6 34.9 20.95 34.2 20.95 33.3 20.95 32.3 21.6 31.75 22.25 31.0 23.15 31.0 24.1 31.0 24.75 31.75 25.4 32.3 25.4 33.3 25.4 34.2 24.75 34.9 24.1 35.5 23.25 35.5 L23.25 34.95" fill="#8e989f" fill-rule="evenodd" stroke="none"/>
    <path d="M14.75 18.65 L14.85 18.65 Q15.8 18.65 16.35 19.35 17.1 19.95 17.1 20.95 17.1 21.9 16.35 22.5 15.8 23.2 14.85 23.2 13.9 23.2 13.25 22.5 12.6 21.9 12.6 20.95 12.6 19.95 13.25 19.35 13.9 18.7 14.75 18.65 L14.75 19.25 14.75 20.8 M19.95 25.45 L20.3 25.1 Q19.75 24.45 18.8 24.45 17.9 24.45 17.3 25.15 16.55 25.8 16.55 26.75 16.55 27.65 17.25 28.3 17.85 28.95 18.75 28.9 19.75 28.95 20.35 28.3 21.1 27.6 21.1 26.7 21.1 25.8 20.35 25.15 L20.3 25.1 M18.85 26.55 L19.95 25.45 M23.25 34.95 L23.25 35.5 Q24.1 35.5 24.75 34.9 25.4 34.2 25.4 33.3 25.4 32.3 24.75 31.75 24.1 31.0 23.15 31.0 22.25 31.0 21.6 31.75 20.95 32.3 20.95 33.3 20.95 34.2 21.6 34.9 22.25 35.5 23.15 35.5 L23.25 35.5 M23.25 33.45 L23.25 34.95" fill="none" stroke="#000000" stroke-linecap="round" stroke-linejoin="round" stroke-width="1.5"/>
    <path d="M6.85 46.5 L6.85 47.6 -7.85 47.6 -7.85 46.5 6.85 46.5" fill="#e5e8e3" fill-rule="evenodd" stroke="none"/>
    <path d="M-7.85 46.5 L-7.85 38.75 6.85 38.75 6.85 46.5 -7.85 46.5" fill="#b8c5cd" fill-rule="evenodd" stroke="none"/>
    <path d="M6.85 46.5 L6.85 47.6 -7.85 47.6 -7.85 46.5 -7.85 38.75 6.85 38.75 6.85 46.5 -7.85 46.5" fill="none" stroke="#000000" stroke-linecap="round" stroke-linejoin="round" stroke-width="1.5"/>
    <path d="M2.05 -101.65 L2.35 -101.25 5.45 -9.0 Q4.95 -7.0 -0.45 -6.85 -5.9 -6.95 -6.5 -9.15 L-4.8 -101.25 -4.45 -101.65 2.05 -101.65" fill="#54453f" fill-rule="evenodd" stroke="none"/>
    <path d="M-2.6 39.45 L1.65 39.45 1.65 41.2 0.15 41.2 0.15 46.05 -1.05 46.05 -1.05 41.2 -2.6 41.2 -2.6 39.45 M-7.3 39.45 L-2.95 39.45 -2.95 41.2 -4.5 41.2 -4.5 46.05 -5.7 46.05 -5.7 41.2 -7.3 41.2 -7.3 39.45 M2.0 39.45 L6.3 39.45 6.3 41.2 4.8 41.2 4.8 46.05 3.5 46.05 3.5 41.2 2.0 41.2 2.0 39.45" fill="#909ba1" fill-rule="evenodd" stroke="none"/>
    <path d="M-4.45 -101.65 Q-6.1 -104.4 -9.1 -105.3 -11.55 -106.0 -10.45 -109.45 -7.3 -125.3 -3.6 -139.7 -1.95 -143.1 1.5 -143.4 5.85 -143.15 7.55 -139.2 8.95 -136.05 6.4 -133.0 5.3 -131.55 3.6 -130.2 3.3 -128.95 3.6 -127.6 L6.1 -118.15 Q7.4 -114.0 6.85 -111.4 4.15 -109.55 3.15 -107.6 2.15 -105.6 2.05 -101.65 L2.35 -101.25 5.45 -9.0 Q4.95 -7.0 -0.45 -6.85 -5.9 -6.95 -6.5 -9.15 L-4.8 -101.25 -4.45 -101.65 2.05 -101.65" fill="none" stroke="#000000" stroke-linecap="round" stroke-linejoin="round" stroke-width="1.5"/>
    <path d="M-3.8 -95.25 L1.35 -95.25 1.35 -92.75 -3.8 -92.75 -3.8 -95.25 M-3.85 -67.9 L2.2 -67.9 2.2 -65.45 -3.85 -65.45 -3.85 -67.9 M-3.7 -81.25 L1.45 -81.25 1.45 -78.75 -3.7 -78.75 -3.7 -81.25 M-4.25 -42.25 L2.55 -42.25 2.55 -39.7 -4.25 -39.7 -4.25 -42.25 M-4.55 -28.9 L3.1 -28.9 3.1 -26.45 -4.55 -26.45 -4.55 -28.9 M-4.55 -15.7 L3.1 -15.7 3.1 -13.25 -4.55 -13.25 -4.55 -15.7" fill="#bcc9d2" fill-rule="evenodd" stroke="none"/>
    <path d="M4.2 45.4 L3.1 38.75 0.25 -134.75 M-4.95 45.4 L-4.1 38.75 -3.05 -101.65 -3.65 -113.75 M-0.55 45.35 L-1.05 -99.45 -1.5 -124.45" fill="none" stroke="#e2e2e2" stroke-linecap="round" stroke-linejoin="round" stroke-width="1.5"/>
    <path d="M0.4 -134.05 Q0.4 -133.4 0.0 -133.0 -0.55 -132.45 -1.15 -132.45 -1.75 -132.45 -2.2 -133.0 -2.65 -133.4 -2.65 -134.05 L-2.2 -135.15 Q-1.75 -135.6 -1.15 -135.6 -0.55 -135.6 0.0 -135.15 0.4 -134.65 0.4 -134.05 M-1.75 -123.95 Q-1.75 -123.4 -2.2 -122.9 -2.6 -122.5 -3.3 -122.5 -3.9 -122.5 -4.4 -122.9 -4.8 -123.4 -4.8 -123.95 -4.8 -124.65 -4.4 -125.1 -3.9 -125.55 -3.3 -125.55 -2.6 -125.55 -2.2 -125.1 -1.75 -124.65 -1.75 -123.95 M-3.65 -113.6 Q-3.65 -112.95 -4.1 -112.55 -4.55 -112.05 -5.15 -112.05 -5.85 -112.05 -6.25 -112.55 -6.7 -112.95 -6.7 -113.6 L-6.25 -114.7 Q-5.85 -115.1 -5.15 -115.1 -4.55 -115.1 -4.1 -114.7 -3.65 -114.25 -3.65 -113.6" fill="#bcc9d2" fill-rule="evenodd" stroke="none"/>
    <path d="M0.4 -134.05 Q0.4 -133.4 0.0 -133.0 -0.55 -132.45 -1.15 -132.45 -1.75 -132.45 -2.2 -133.0 -2.65 -133.4 -2.65 -134.05 L-2.2 -135.15 Q-1.75 -135.6 -1.15 -135.6 -0.55 -135.6 0.0 -135.15 0.4 -134.65 0.4 -134.05 M-1.75 -123.95 Q-1.75 -123.4 -2.2 -122.9 -2.6 -122.5 -3.3 -122.5 -3.9 -122.5 -4.4 -122.9 -4.8 -123.4 -4.8 -123.95 -4.8 -124.65 -4.4 -125.1 -3.9 -125.55 -3.3 -125.55 -2.6 -125.55 -2.2 -125.1 -1.75 -124.65 -1.75 -123.95 M-3.65 -113.6 Q-3.65 -112.95 -4.1 -112.55 -4.55 -112.05 -5.15 -112.05 -5.85 -112.05 -6.25 -112.55 -6.7 -112.95 -6.7 -113.6 L-6.25 -114.7 Q-5.85 -115.1 -5.15 -115.1 -4.55 -115.1 -4.1 -114.7 -3.65 -114.25 -3.65 -113.6" fill="none" stroke="#000000" stroke-linecap="round" stroke-linejoin="round" stroke-width="1.5"/>
    <path d="M-4.1 -96.95 L2.2 -96.95 M-4.2 -90.55 L2.5 -90.55 M-4.25 -83.35 L2.8 -83.35 M-4.5 -76.75 L2.8 -76.75 M-4.5 -62.65 L3.25 -62.65 M-4.55 -70.25 L3.1 -70.25 M-4.75 -56.15 L3.25 -56.15 M-4.8 -49.65 L3.5 -49.65 M-5.65 -30.6 L4.35 -30.6 M-5.55 -37.05 L4.0 -37.05 M-5.25 -43.65 L4.0 -43.65 M-5.7 -24.45 L4.4 -24.45 M-6.0 -17.85 L4.4 -17.85 M-6.1 -11.4 L4.75 -11.4" fill="none" stroke="#e2e2e2" stroke-linecap="round" stroke-linejoin="round" stroke-width="1.5"/>
  </g>
</svg>
