<?xml version="1.0" encoding="UTF-8" standalone="no"?>
<svg xmlns:xlink="http://www.w3.org/1999/xlink" height="202.1px" width="82.4px" xmlns="http://www.w3.org/2000/svg">
  <g transform="matrix(1.0, 0.0, 0.0, 1.0, 39.6, 132.05)">
    <path d="M-7.8 -24.1 L-6.7 -97.95 1.55 -97.95 3.5 -29.0 3.5 -14.05 -7.8 -14.05 -7.8 -24.1" fill="#57585f" fill-rule="evenodd" stroke="none"/>
    <path d="M3.5 -29.0 Q5.75 -20.9 9.05 -19.5 L41.55 62.25 Q43.05 66.4 39.95 68.45 35.9 70.85 32.45 66.6 L5.95 38.55 Q3.45 35.4 -0.05 35.1 -4.05 35.55 -6.4 38.8 L-31.6 67.65 Q-34.35 70.15 -37.05 68.45 -39.8 67.2 -38.4 63.0 L-11.55 -19.05 Q-8.3 -20.45 -7.8 -24.1 L-6.7 -97.95 Q-7.0 -103.35 -12.55 -105.35 L-5.5 -130.15 Q-4.7 -131.15 -3.15 -131.3 -1.5 -131.25 -0.85 -130.15 L6.7 -105.85 Q1.25 -103.1 1.55 -97.95 L3.5 -29.0 3.5 -14.05 -7.8 -14.05 -7.8 -24.1 M-11.65 -13.65 L8.5 -13.65 33.35 52.65 9.25 37.9 8.5 22.4 Q8.5 20.35 5.15 20.35 L-9.25 21.0 -21.0 33.05 -22.6 33.2 Q-23.2 32.95 -23.2 31.65 L-11.65 -13.65 M-6.7 -97.95 L1.55 -97.95" fill="none" stroke="#000000" stroke-linecap="round" stroke-linejoin="round" stroke-width="1.5"/>
    <path d="M-5.8 -86.7 L0.9 -86.7 0.9 -83.15 -5.8 -83.15 -5.8 -86.7 M-5.7 -76.3 L1.35 -76.3 1.35 -72.75 -5.7 -72.75 -5.7 -76.3 M-5.7 -65.05 L1.35 -65.05 1.35 -61.55 -5.7 -61.55 -5.7 -65.05 M-5.65 -54.5 L1.45 -54.5 1.45 -50.95 -5.65 -50.95 -5.65 -54.5 M-5.95 -96.4 L0.75 -96.4 0.75 -93.5 -5.95 -93.5 -5.95 -96.4 M-5.35 -23.4 L1.75 -23.4 1.75 -21.3 -5.35 -21.3 -5.35 -23.4 M-5.35 -31.6 L1.75 -31.6 1.75 -29.5 -5.35 -29.5 -5.35 -31.6 M-5.35 -42.3 L1.75 -42.3 1.75 -40.15 -5.35 -40.15 -5.35 -42.3" fill="#c6d0db" fill-rule="evenodd" stroke="none"/>
    <path d="M-6.7 17.5 Q-6.7 18.0 -7.05 18.4 -7.45 18.75 -7.9 18.75 -8.45 18.75 -8.85 18.4 L-9.2 17.5 Q-9.2 17.0 -8.85 16.6 -8.45 16.25 -7.9 16.25 -7.45 16.25 -7.05 16.6 -6.7 17.0 -6.7 17.5 M-7.7 24.85 Q-7.7 25.35 -8.1 25.75 -8.45 26.15 -9.05 26.15 -9.6 26.15 -9.95 25.75 L-10.4 24.85 Q-10.4 24.35 -9.95 24.0 -9.6 23.65 -9.05 23.65 -8.45 23.65 -8.1 24.0 -7.7 24.35 -7.7 24.85 M6.45 16.8 L6.0 17.7 Q5.7 18.05 5.25 18.05 4.7 18.05 4.35 17.7 3.95 17.3 3.95 16.8 3.95 16.25 4.35 15.95 4.7 15.6 5.25 15.6 5.7 15.6 6.0 15.95 6.45 16.25 6.45 16.8 M7.75 24.85 L7.3 25.75 Q6.95 26.15 6.35 26.15 5.8 26.15 5.4 25.75 5.0 25.35 5.0 24.85 5.0 24.35 5.4 24.0 5.8 23.65 6.35 23.65 6.95 23.65 7.3 24.0 7.75 24.35 7.75 24.85" fill="#cbd2e0" fill-rule="evenodd" stroke="none"/>
    <path d="M-7.9 15.35 L5.25 14.75 Q6.1 14.65 6.8 15.35 7.4 15.95 7.4 16.8 L7.4 16.85 Q7.4 17.75 6.8 18.45 6.1 19.1 5.25 19.2 L-7.9 19.8 Q-8.85 19.85 -9.5 19.2 -10.15 18.6 -10.15 17.65 -10.15 16.65 -9.5 16.05 -8.85 15.4 -7.9 15.35 M-7.7 24.85 Q-7.7 24.35 -8.1 24.0 -8.45 23.65 -9.05 23.65 -9.6 23.65 -9.95 24.0 -10.4 24.35 -10.4 24.85 L-9.95 25.75 Q-9.6 26.15 -9.05 26.15 -8.45 26.15 -8.1 25.75 -7.7 25.35 -7.7 24.85 M-6.7 17.5 Q-6.7 17.0 -7.05 16.6 -7.45 16.25 -7.9 16.25 -8.45 16.25 -8.85 16.6 -9.2 17.0 -9.2 17.5 L-8.85 18.4 Q-8.45 18.75 -7.9 18.75 -7.45 18.75 -7.05 18.4 -6.7 18.0 -6.7 17.5 M-9.25 23.0 L6.5 23.0 Q7.3 23.0 7.85 23.55 8.4 24.05 8.4 24.8 8.4 25.55 7.85 26.15 7.3 26.65 6.5 26.65 L-9.25 26.65 Q-9.95 26.65 -10.55 26.15 -11.05 25.55 -11.05 24.8 -11.05 24.05 -10.55 23.55 -9.95 23.0 -9.25 23.0 M7.75 24.85 Q7.75 24.35 7.3 24.0 6.95 23.65 6.35 23.65 5.8 23.65 5.4 24.0 5.0 24.35 5.0 24.85 5.0 25.35 5.4 25.75 5.8 26.15 6.35 26.15 6.95 26.15 7.3 25.75 L7.75 24.85 M6.45 16.8 Q6.45 16.25 6.0 15.95 5.7 15.6 5.25 15.6 4.7 15.6 4.35 15.95 3.95 16.25 3.95 16.8 3.95 17.3 4.35 17.7 4.7 18.05 5.25 18.05 5.7 18.05 6.0 17.7 L6.45 16.8" fill="#a9aab8" fill-rule="evenodd" stroke="none"/>
    <path d="M-6.4 -12.1 L3.75 -12.1 Q5.65 -12.1 5.65 -10.15 L5.65 -6.5 Q5.65 -4.6 3.75 -4.6 L-6.4 -4.6 Q-8.35 -4.6 -8.35 -6.5 L-8.35 -10.15 Q-8.35 -12.1 -6.4 -12.1 M-6.4 -3.1 L3.75 -3.1 Q5.65 -3.1 5.65 -1.2 L5.65 2.5 Q5.65 4.45 3.75 4.45 L-6.4 4.45 Q-8.35 4.45 -8.35 2.5 L-8.35 -1.2 Q-8.35 -3.1 -6.4 -3.1 M-6.4 5.9 L3.75 5.9 Q5.65 5.9 5.65 7.85 L5.65 11.5 Q5.65 13.4 3.75 13.4 L-6.4 13.4 Q-8.35 13.4 -8.35 11.5 L-8.35 7.85 Q-8.35 5.9 -6.4 5.9 M-7.9 15.35 L5.25 14.75 Q6.1 14.65 6.8 15.35 7.4 15.95 7.4 16.8 L7.4 16.85 Q7.4 17.75 6.8 18.45 6.1 19.1 5.25 19.2 L-7.9 19.8 Q-8.85 19.85 -9.5 19.2 -10.15 18.6 -10.15 17.65 -10.15 16.65 -9.5 16.05 -8.85 15.4 -7.9 15.35 M-9.25 23.0 L6.5 23.0 Q7.3 23.0 7.85 23.55 8.4 24.05 8.4 24.8 8.4 25.55 7.85 26.15 7.3 26.65 6.5 26.65 L-9.25 26.65 Q-9.95 26.65 -10.55 26.15 -11.05 25.55 -11.05 24.8 -11.05 24.05 -10.55 23.55 -9.95 23.0 -9.25 23.0" fill="none" stroke="#000000" stroke-linecap="round" stroke-linejoin="round" stroke-width="1.5"/>
    <path d="M1.95 -4.85 L2.0 -2.4 M2.1 3.75 L2.1 6.5 M2.25 12.6 L2.35 20.55 M2.4 23.05 L2.4 24.9 M0.35 -97.95 L1.9 -11.65 M-0.55 -4.85 L-0.55 -2.4 M-0.5 3.75 L-0.5 6.5 M-0.45 12.6 L-0.4 20.55 M-0.4 23.05 L-0.4 24.85 M-3.2 -4.85 L-3.2 -2.4 M-3.2 3.75 L-3.2 6.5 M-3.15 12.6 L-3.15 20.55 M-3.15 23.05 L-3.15 24.9 M-5.75 -4.85 L-5.75 -2.4 M-5.8 3.75 L-5.8 6.5 M-5.85 12.6 L-5.9 20.55 M-5.9 23.05 L-5.9 24.9 M-5.15 -98.15 L-5.7 -11.65 M-1.35 -97.95 L-0.65 -11.65 M-3.35 -97.95 L-3.25 -11.65" fill="none" stroke="#333333" stroke-linecap="round" stroke-linejoin="round" stroke-width="1.5"/>
    <path d="M2.0 -2.4 L2.1 3.75 M2.1 6.5 L2.25 12.6 M2.35 20.55 L2.4 23.05 M1.9 -11.65 L1.95 -4.85 M1.6 -109.85 L0.35 -97.95 M-3.35 -97.95 L-3.15 -97.95 -4.5 -122.0 M-0.55 -2.4 L-0.5 3.75 M-0.5 6.5 L-0.45 12.6 M-0.4 20.55 L-0.4 23.05 M-3.2 -2.4 L-3.2 3.75 M-3.2 6.5 L-3.15 12.6 M-3.15 20.55 L-3.15 23.05 M-5.75 -2.4 L-5.8 3.75 M-5.8 6.5 L-5.85 12.6 M-5.9 20.55 L-5.9 23.05 M-5.7 -11.65 L-5.75 -4.85 M-3.25 -11.65 L-3.2 -4.85 M-0.65 -11.65 L-0.55 -4.85 M-1.45 -121.55 L-2.0 -97.95 M-5.15 -98.15 L-7.5 -109.7 M-6.0 -115.75 L-4.05 -97.95 M-1.35 -97.95 L0.1 -115.55" fill="none" stroke="#a1a1a1" stroke-linecap="round" stroke-linejoin="round" stroke-width="1.5"/>
    <path d="M-7.05 -17.45 L2.75 -17.45 M-7.05 -20.7 L2.75 -20.7 M-7.05 -23.9 L2.75 -23.9 M-7.05 -28.2 L2.75 -28.2 M-7.05 -33.2 L2.75 -33.2 M-7.05 -43.9 L2.75 -43.9 M-7.05 -38.9 L2.75 -38.9 M-7.1 -49.6 L2.1 -49.6 M-7.1 -54.6 L2.1 -54.6 M-7.1 -65.35 L2.1 -65.35 M-7.1 -60.3 L2.1 -60.3 M-6.75 -70.9 L1.65 -70.9 M-6.75 -75.95 L1.65 -75.95 M-6.05 -91.95 L0.9 -91.95 M-6.35 -86.65 L1.2 -86.65 M-6.35 -81.55 L1.2 -81.55" fill="none" stroke="#333333" stroke-linecap="round" stroke-linejoin="round" stroke-width="1.5"/>
    <path d="M-6.35 -81.55 L1.2 -81.55 M-6.35 -86.65 L1.2 -86.65 M-6.05 -91.95 L0.9 -91.95 M-6.75 -75.95 L1.65 -75.95 M-6.75 -70.9 L1.65 -70.9 M-7.1 -60.3 L2.1 -60.3 M-7.1 -65.35 L2.1 -65.35 M-7.1 -54.6 L2.1 -54.6 M-7.1 -49.6 L2.1 -49.6 M-7.05 -38.9 L2.75 -38.9 M-7.05 -43.9 L2.75 -43.9 M-7.05 -33.2 L2.75 -33.2 M-7.05 -28.2 L2.75 -28.2 M-7.05 -23.9 L2.75 -23.9 M-7.05 -20.7 L2.75 -20.7 M-7.05 -17.45 L2.75 -17.45" fill="none" stroke="#bdbdbd" stroke-linecap="round" stroke-linejoin="round" stroke-width="0.5"/>
    <path d="M-5.9 24.15 L3.3 24.15 Q3.75 24.15 4.05 24.45 4.4 24.75 4.4 25.1 4.4 25.55 4.05 25.8 L3.3 26.15 -5.9 26.15 Q-6.4 26.15 -6.7 25.8 L-7.0 25.1 -6.7 24.45 Q-6.4 24.15 -5.9 24.15" fill="#71717b" fill-rule="evenodd" stroke="none"/>
    <path d="M1.55 -109.55 Q1.55 -110.1 1.95 -110.6 2.4 -111.05 3.0 -111.05 3.65 -111.05 4.1 -110.6 4.5 -110.1 4.5 -109.55 4.5 -108.95 4.1 -108.5 3.65 -108.0 3.0 -108.0 2.4 -108.0 1.95 -108.5 1.55 -108.95 1.55 -109.55 M0.05 -115.3 Q0.05 -115.9 0.5 -116.4 0.95 -116.8 1.55 -116.8 L2.6 -116.4 Q3.0 -115.9 3.0 -115.3 3.0 -114.65 2.6 -114.25 2.1 -113.8 1.55 -113.8 0.95 -113.8 0.5 -114.25 0.05 -114.65 0.05 -115.3 M-1.5 -121.2 L-1.1 -122.25 Q-0.6 -122.65 0.0 -122.65 0.65 -122.65 1.05 -122.25 L1.5 -121.2 Q1.5 -120.6 1.05 -120.15 0.65 -119.65 0.0 -119.65 -0.6 -119.65 -1.1 -120.15 -1.5 -120.6 -1.5 -121.2 M-4.5 -121.2 Q-4.5 -120.6 -4.9 -120.15 -5.4 -119.65 -5.9 -119.65 -6.6 -119.65 -7.0 -120.15 -7.45 -120.6 -7.45 -121.2 L-7.0 -122.25 Q-6.6 -122.65 -5.9 -122.65 -5.4 -122.65 -4.9 -122.25 L-4.5 -121.2 M-5.9 -115.3 Q-5.9 -114.65 -6.4 -114.25 -6.8 -113.8 -7.5 -113.8 -8.1 -113.8 -8.6 -114.25 -9.0 -114.65 -9.0 -115.3 -9.0 -115.9 -8.6 -116.4 L-7.5 -116.8 Q-6.8 -116.8 -6.4 -116.4 -5.9 -115.9 -5.9 -115.3 M-7.5 -109.55 Q-7.5 -108.95 -7.9 -108.5 -8.4 -108.0 -9.0 -108.0 -9.55 -108.0 -10.0 -108.5 -10.45 -108.95 -10.45 -109.55 L-10.0 -110.6 Q-9.55 -111.05 -9.0 -111.05 -8.4 -111.05 -7.9 -110.6 -7.5 -110.1 -7.5 -109.55" fill="#cbd2e0" fill-rule="evenodd" stroke="none"/>
    <path d="M-1.5 -121.2 Q-1.5 -120.6 -1.1 -120.15 -0.6 -119.65 0.0 -119.65 0.65 -119.65 1.05 -120.15 1.5 -120.6 1.5 -121.2 L1.05 -122.25 Q0.65 -122.65 0.0 -122.65 -0.6 -122.65 -1.1 -122.25 L-1.5 -121.2 M0.05 -115.3 Q0.05 -114.65 0.5 -114.25 0.95 -113.8 1.55 -113.8 2.1 -113.8 2.6 -114.25 3.0 -114.65 3.0 -115.3 3.0 -115.9 2.6 -116.4 L1.55 -116.8 Q0.95 -116.8 0.5 -116.4 0.05 -115.9 0.05 -115.3 M1.55 -109.55 Q1.55 -108.95 1.95 -108.5 2.4 -108.0 3.0 -108.0 3.65 -108.0 4.1 -108.5 4.5 -108.95 4.5 -109.55 4.5 -110.1 4.1 -110.6 3.65 -111.05 3.0 -111.05 2.4 -111.05 1.95 -110.6 1.55 -110.1 1.55 -109.55 M-4.5 -121.2 Q-4.5 -120.6 -4.9 -120.15 -5.4 -119.65 -5.9 -119.65 -6.6 -119.65 -7.0 -120.15 -7.45 -120.6 -7.45 -121.2 L-7.0 -122.25 Q-6.6 -122.65 -5.9 -122.65 -5.4 -122.65 -4.9 -122.25 L-4.5 -121.2 M-5.9 -115.3 Q-5.9 -114.65 -6.4 -114.25 -6.8 -113.8 -7.5 -113.8 -8.1 -113.8 -8.6 -114.25 -9.0 -114.65 -9.0 -115.3 -9.0 -115.9 -8.6 -116.4 L-7.5 -116.8 Q-6.8 -116.8 -6.4 -116.4 -5.9 -115.9 -5.9 -115.3 M-7.5 -109.55 Q-7.5 -108.95 -7.9 -108.5 -8.4 -108.0 -9.0 -108.0 -9.55 -108.0 -10.0 -108.5 -10.45 -108.95 -10.45 -109.55 L-10.0 -110.6 Q-9.55 -111.05 -9.0 -111.05 -8.4 -111.05 -7.9 -110.6 -7.5 -110.1 -7.5 -109.55" fill="none" stroke="#000000" stroke-linecap="round" stroke-linejoin="round" stroke-width="1.5"/>
  </g>
</svg>
