<?xml version="1.0" encoding="UTF-8" standalone="no"?>
<svg xmlns:xlink="http://www.w3.org/1999/xlink" height="39.35px" width="104.3px" xmlns="http://www.w3.org/2000/svg">
  <g transform="matrix(1.0, 0.0, 0.0, 1.0, 52.3, 19.85)">
    <path d="M-4.3 0.5 L-5.25 1.9 -6.0 6.65 -7.95 10.0 -8.65 16.75 -12.7 16.05 -9.9 11.8 -6.5 4.65 -6.55 1.55 -6.05 0.05 -4.3 0.5" fill="#ffffff" fill-rule="evenodd" stroke="none"/>
    <path d="M-4.3 0.5 L1.1 1.25 Q7.15 1.75 11.45 0.6 15.75 -0.6 15.55 -2.7 15.35 -4.8 11.15 -6.65 6.95 -8.55 0.95 -9.1 -5.15 -9.55 -9.4 -8.35 -13.7 -7.1 -13.7 -5.15 -13.6 -3.05 -9.25 -1.15 L-6.05 0.05 -6.55 1.55 -6.5 4.65 -9.9 11.8 -12.7 16.05 Q-26.05 13.3 -36.4 8.4 -51.5 1.1 -51.8 -6.15 -52.15 -13.4 -36.9 -17.15 -21.6 -20.85 -0.25 -18.35 L1.4 -18.2 4.3 -17.85 Q22.5 -15.3 36.0 -8.8 50.8 -1.65 51.5 5.8 52.05 13.2 36.9 16.85 21.75 20.45 0.25 18.05 L-8.65 16.75 -7.95 10.0 -6.0 6.65 -5.25 1.9 -4.3 0.5" fill="url(#gradient0)" fill-rule="evenodd" stroke="none"/>
    <path d="M-6.05 0.05 L-9.25 -1.15 Q-13.6 -3.05 -13.7 -5.15 -13.7 -7.1 -9.4 -8.35 -5.15 -9.55 0.95 -9.1 6.95 -8.55 11.15 -6.65 15.35 -4.8 15.55 -2.7 15.75 -0.6 11.45 0.6 7.15 1.75 1.1 1.25 L-4.3 0.5 -6.05 0.05" fill="url(#gradient1)" fill-rule="evenodd" stroke="none"/>
    <path d="M-6.05 0.05 L-9.25 -1.15 Q-13.6 -3.05 -13.7 -5.15 -13.7 -7.1 -9.4 -8.35 -5.15 -9.55 0.95 -9.1 6.95 -8.55 11.15 -6.65 15.35 -4.8 15.55 -2.7 15.75 -0.6 11.45 0.6 7.15 1.75 1.1 1.25 L-4.3 0.5 -6.05 0.05 M-8.65 16.75 L0.25 18.05 Q21.75 20.45 36.9 16.85 52.05 13.2 51.5 5.8 50.8 -1.65 36.0 -8.8 22.5 -15.3 4.3 -17.85 L1.4 -18.2 -0.25 -18.35 Q-21.6 -20.85 -36.9 -17.15 -52.15 -13.4 -51.8 -6.15 -51.5 1.1 -36.4 8.4 -26.05 13.3 -12.7 16.05 L-8.65 16.75" fill="none" stroke="#000000" stroke-linecap="round" stroke-linejoin="round" stroke-width="1.0"/>
  </g>
  <defs>
    <linearGradient gradientTransform="matrix(0.0498, 0.0024, -0.0011, 0.0225, 15.9, 0.5)" gradientUnits="userSpaceOnUse" id="gradient0" spreadMethod="pad" x1="-819.2" x2="819.2">
      <stop offset="0.0" stop-color="#ecd9b5"/>
      <stop offset="1.0" stop-color="#9c8a6f"/>
    </linearGradient>
    <linearGradient gradientTransform="matrix(-0.0058, -0.0084, 0.0116, -0.0081, 1.7, -2.65)" gradientUnits="userSpaceOnUse" id="gradient1" spreadMethod="pad" x1="-819.2" x2="819.2">
      <stop offset="0.0" stop-color="#b1a388"/>
      <stop offset="0.3254901960784314" stop-color="#c9b89a"/>
      <stop offset="1.0" stop-color="#9c8a6f"/>
    </linearGradient>
  </defs>
</svg>
