<?xml version="1.0" encoding="UTF-8" standalone="no"?>
<svg xmlns:xlink="http://www.w3.org/1999/xlink" height="102.05px" width="160.5px" xmlns="http://www.w3.org/2000/svg">
  <g transform="matrix(1.0, 0.0, 0.0, 1.0, 75.3, 23.0)">
    <path d="M50.25 54.85 L51.45 55.25 54.7 58.3 Q54.95 58.85 54.5 59.35 52.45 60.8 50.7 60.7 L49.3 60.5 45.65 57.45 45.4 56.4 45.65 56.7 48.8 56.4 Q50.5 55.65 50.25 54.85 M56.05 60.65 L57.05 60.6 60.0 63.7 Q60.6 64.9 59.3 65.65 56.8 66.7 54.95 65.35 L51.7 62.3 51.95 61.7 52.5 62.2 Q54.3 62.5 56.3 61.15 L56.05 60.65 M-5.9 66.15 L-5.2 66.85 -7.85 71.0 Q-8.85 71.7 -10.05 71.75 L-12.05 71.6 -13.65 70.65 Q-14.4 70.0 -14.3 69.45 L-12.05 65.65 -10.5 65.15 -10.9 65.7 Q-10.4 66.4 -8.95 66.75 L-6.25 66.7 -5.9 66.15 M-11.25 73.5 L-10.55 73.95 -13.05 77.85 Q-14.5 78.9 -16.3 78.35 -18.1 77.3 -17.8 76.3 L-15.8 72.7 -14.85 72.3 -14.85 72.8 Q-14.65 73.5 -13.55 73.85 -12.5 74.15 -11.25 73.5 M11.4 33.4 L10.05 32.5 10.2 31.2 11.05 30.15 12.95 31.6 Q14.6 32.55 16.6 31.3 17.6 29.7 16.3 28.4 L13.5 26.15 14.25 25.4 15.5 25.2 16.7 25.7 20.95 27.55 21.3 29.05 16.85 35.55 15.05 35.9 11.4 33.4" fill="#36383c" fill-rule="evenodd" stroke="none"/>
    <path d="M37.9 -5.2 L44.1 -6.15 20.95 27.55 22.7 28.6 23.4 31.6 22.6 33.25 50.25 54.85 Q50.5 55.65 48.8 56.4 L45.65 56.7 45.4 56.4 45.65 57.45 49.3 60.5 46.8 61.0 43.4 57.75 43.35 57.75 42.2 56.5 44.2 55.55 20.15 36.8 18.65 37.6 16.95 37.25 15.05 35.9 -5.9 66.15 -6.25 66.7 -8.95 66.75 Q-10.4 66.4 -10.9 65.7 L-10.5 65.15 11.4 33.4 15.05 35.9 16.85 35.55 21.3 29.05 20.95 27.55 16.7 25.7 37.9 -5.2 M54.5 59.35 L56.05 60.65 56.3 61.15 Q54.3 62.5 52.5 62.2 L51.95 61.7 50.7 60.7 Q52.45 60.8 54.5 59.35 M-10.05 71.75 L-11.25 73.5 Q-12.5 74.15 -13.55 73.85 -14.65 73.5 -14.85 72.8 L-14.85 72.3 -13.65 70.65 -12.05 71.6 -10.05 71.75 M11.05 30.15 L-20.75 5.75 -13.15 5.45 13.5 26.15 16.3 28.4 Q17.6 29.7 16.6 31.3 14.6 32.55 12.95 31.6 L11.05 30.15 M22.6 33.25 L20.15 36.8 22.6 33.25 M44.2 55.55 L45.4 56.4 44.2 55.55" fill="#202125" fill-rule="evenodd" stroke="none"/>
    <path d="M44.1 -6.15 L20.95 27.55 22.7 28.6 23.4 31.6 22.6 33.25 50.25 54.85 51.45 55.25 54.7 58.3 Q54.95 58.85 54.5 59.35 L56.05 60.65 57.05 60.6 60.0 63.7 Q60.6 64.9 59.3 65.65 56.8 66.7 54.95 65.35 L51.7 62.3 51.95 61.7 50.7 60.7 49.3 60.5 46.8 61.0 43.4 57.75 M43.35 57.75 L42.2 56.5 44.2 55.55 20.15 36.8 18.65 37.6 16.95 37.25 15.05 35.9 -5.9 66.15 -5.2 66.85 -7.85 71.0 Q-8.85 71.7 -10.05 71.75 L-11.25 73.5 -10.55 73.95 -13.05 77.85 Q-14.5 78.9 -16.3 78.35 -18.1 77.3 -17.8 76.3 L-15.8 72.7 -14.85 72.3 -13.65 70.65 Q-14.4 70.0 -14.3 69.45 L-12.05 65.65 -10.5 65.15 11.4 33.4 10.05 32.5 10.2 31.2 11.05 30.15 -20.75 5.75 -13.15 5.45 -13.45 5.15 -16.25 4.05 M13.5 26.15 L14.25 25.4 15.5 25.2 16.7 25.7 37.9 -5.2 M11.4 33.4 L15.05 35.9 16.85 35.55 21.3 29.05 20.95 27.55 16.7 25.7 M11.05 30.15 L12.95 31.6 Q14.6 32.55 16.6 31.3 17.6 29.7 16.3 28.4 L13.5 26.15 -13.15 5.45 -12.3 5.4 M20.15 36.8 L22.6 33.25 M51.95 61.7 L52.5 62.2 Q54.3 62.5 56.3 61.15 L56.05 60.65 M54.5 59.35 Q52.45 60.8 50.7 60.7 M49.3 60.5 L45.65 57.45 45.4 56.4 44.2 55.55 M45.4 56.4 L45.65 56.7 48.8 56.4 Q50.5 55.65 50.25 54.85 M-10.5 65.15 L-10.9 65.7 Q-10.4 66.4 -8.95 66.75 L-6.25 66.7 -5.9 66.15 M-14.85 72.3 L-14.85 72.8 Q-14.65 73.5 -13.55 73.85 -12.5 74.15 -11.25 73.5 M-10.05 71.75 L-12.05 71.6 -13.65 70.65" fill="none" stroke="#000000" stroke-linecap="round" stroke-linejoin="round" stroke-width="1.0"/>
    <path d="M-66.85 -6.85 L-59.45 -7.85 -51.9 -8.9 -44.0 -9.95 -36.55 -11.0 -29.8 -11.95 -21.85 -13.05 -14.2 -14.05 -6.85 -15.15 0.65 -16.15 7.4 -17.05 14.45 -18.0 20.1 -18.75 25.85 -19.6 31.05 -20.3 35.95 -21.0 41.25 -21.7 60.85 -17.9 54.6 -16.85 47.15 -15.65 40.4 -14.45 33.4 -13.3 26.5 -12.25 14.45 -18.0 26.5 -12.25 19.15 -11.0 12.1 -9.85 4.65 -8.6 -2.4 -7.4 -14.2 -14.05 -2.4 -7.4 -10.95 -6.05 -18.8 -4.75 -26.35 -3.5 -36.55 -11.0 -26.35 -3.5 -33.7 -2.3 -41.15 -1.1 -51.9 -8.9 -41.15 -1.1 -48.5 0.15 -55.8 1.35 -66.85 -6.85 M-59.45 -7.85 L-48.5 0.15 -59.45 -7.85 M7.4 -17.05 L19.15 -11.0 7.4 -17.05 M0.65 -16.15 L12.1 -9.85 0.65 -16.15 M20.1 -18.75 L33.4 -13.3 20.1 -18.75 M25.85 -19.6 L40.4 -14.45 25.85 -19.6 M35.95 -21.0 L54.6 -16.85 35.95 -21.0 M31.05 -20.3 L47.15 -15.65 31.05 -20.3 M-44.0 -9.95 L-33.7 -2.3 -44.0 -9.95 M-29.8 -11.95 L-18.8 -4.75 -29.8 -11.95 M-6.85 -15.15 L4.65 -8.6 -6.85 -15.15 M-21.85 -13.05 L-10.95 -6.05 -21.85 -13.05" fill="#ffffff" fill-rule="evenodd" stroke="none"/>
    <path d="M-0.5 -6.35 L19.1 -9.7 25.4 -7.05 5.1 -3.45 -0.5 -6.35" fill="#3f4858" fill-rule="evenodd" stroke="none"/>
    <path d="M41.25 -21.7 L47.45 -22.5 81.65 -16.05 84.7 -14.45 -56.35 11.7 -52.6 8.25 -71.9 -6.2 -66.85 -6.85 -55.8 1.35 -48.5 0.15 -41.15 -1.1 -33.7 -2.3 -26.35 -3.5 -18.8 -4.75 -10.95 -6.05 -2.4 -7.4 4.65 -8.6 12.1 -9.85 19.15 -11.0 26.5 -12.25 33.4 -13.3 40.4 -14.45 47.15 -15.65 54.6 -16.85 60.85 -17.9 41.25 -21.7 M-74.8 -3.95 L-71.9 -6.2 -52.6 8.25 -56.35 11.7 -74.8 -3.95 M-0.5 -6.35 L5.1 -3.45 25.4 -7.05 19.1 -9.7 -0.5 -6.35 M81.65 -16.05 L-52.6 8.25 81.65 -16.05" fill="#36383c" fill-rule="evenodd" stroke="none"/>
    <path d="M84.7 -14.45 L84.7 -6.1 -56.35 20.1 -74.8 3.85 -74.8 -3.95 -56.35 11.7 84.7 -14.45 M-56.35 11.7 L-56.35 20.1 -56.35 11.7" fill="#202125" fill-rule="evenodd" stroke="none"/>
    <path d="M-66.85 -6.85 L-59.45 -7.85 -51.9 -8.9 -44.0 -9.95 -36.55 -11.0 -29.8 -11.95 -21.85 -13.05 -14.2 -14.05 -6.85 -15.15 0.65 -16.15 7.4 -17.05 14.45 -18.0 20.1 -18.75 25.85 -19.6 31.05 -20.3 35.95 -21.0 41.25 -21.7 47.45 -22.5 81.65 -16.05 84.7 -14.45 84.7 -6.1 -56.35 20.1 -74.8 3.85 -74.8 -3.95 -71.9 -6.2 -66.85 -6.85 -55.8 1.35 -48.5 0.15 -59.45 -7.85 M12.1 -9.85 L19.15 -11.0 7.4 -17.05 M4.65 -8.6 L12.1 -9.85 0.65 -16.15 M26.5 -12.25 L33.4 -13.3 20.1 -18.75 M33.4 -13.3 L40.4 -14.45 25.85 -19.6 M14.45 -18.0 L26.5 -12.25 19.15 -11.0 M-0.5 -6.35 L19.1 -9.7 25.4 -7.05 5.1 -3.45 -0.5 -6.35 M47.15 -15.65 L54.6 -16.85 35.95 -21.0 M54.6 -16.85 L60.85 -17.9 41.25 -21.7 M40.4 -14.45 L47.15 -15.65 31.05 -20.3 M-51.9 -8.9 L-41.15 -1.1 -33.7 -2.3 -44.0 -9.95 M-36.55 -11.0 L-26.35 -3.5 -18.8 -4.75 -29.8 -11.95 M-33.7 -2.3 L-26.35 -3.5 M-14.2 -14.05 L-2.4 -7.4 4.65 -8.6 -6.85 -15.15 M-10.95 -6.05 L-2.4 -7.4 M-18.8 -4.75 L-10.95 -6.05 -21.85 -13.05 M-56.35 11.7 L-52.6 8.25 -71.9 -6.2 M-56.35 20.1 L-56.35 11.7 -74.8 -3.95 M-48.5 0.15 L-41.15 -1.1 M-56.35 11.7 L84.7 -14.45 M-52.6 8.25 L81.65 -16.05" fill="none" stroke="#000000" stroke-linecap="round" stroke-linejoin="round" stroke-width="1.0"/>
    <path d="M67.8 -6.7 Q67.7 -5.95 67.2 -5.35 66.6 -4.8 65.75 -4.8 65.0 -4.8 64.35 -5.35 63.8 -5.9 63.8 -6.7 63.8 -7.45 64.35 -8.0 65.0 -8.6 65.75 -8.6 66.6 -8.6 67.2 -8.0 67.7 -7.5 67.8 -6.7 M77.15 -8.5 Q77.15 -7.7 76.55 -7.15 76.0 -6.6 75.2 -6.6 74.35 -6.55 73.75 -7.1 73.15 -7.7 73.15 -8.45 73.15 -9.25 73.75 -9.8 74.35 -10.35 75.2 -10.35 76.0 -10.4 76.55 -9.85 77.15 -9.25 77.15 -8.5 M-36.15 12.55 Q-36.2 13.25 -36.7 13.8 -37.25 14.35 -38.0 14.4 -38.8 14.4 -39.3 13.85 -39.85 13.25 -39.85 12.55 -39.85 11.85 -39.3 11.3 -38.8 10.75 -38.0 10.75 -37.25 10.75 -36.7 11.25 -36.2 11.8 -36.15 12.55 M-44.8 14.2 Q-44.8 14.95 -45.3 15.5 -45.9 16.0 -46.6 16.0 -47.4 16.0 -47.9 15.5 -48.45 14.95 -48.45 14.2 -48.45 13.45 -47.9 12.9 -47.4 12.4 -46.6 12.4 -45.9 12.4 -45.3 12.9 -44.8 13.45 -44.8 14.2" fill="#52555f" fill-rule="evenodd" stroke="none"/>
    <path d="M19.25 0.0 L41.1 -3.95 41.1 -0.5 19.25 3.55 19.25 0.0 M16.0 4.15 L-3.5 7.8 -3.5 4.15 16.0 0.65 16.0 4.15 M-7.05 8.5 L-14.85 9.95 -14.85 6.2 -7.05 4.85 -7.05 8.5" fill="#36373f" fill-rule="evenodd" stroke="none"/>
    <path d="M19.25 3.55 L16.0 4.15 16.0 0.65 19.25 0.0 19.25 3.55 M-3.5 7.8 L-7.05 8.5 -7.05 4.85 -3.5 4.15 -3.5 7.8" fill="#202125" fill-rule="evenodd" stroke="none"/>
    <path d="M67.8 -6.7 Q67.7 -5.95 67.2 -5.35 66.6 -4.8 65.75 -4.8 65.0 -4.8 64.35 -5.35 63.8 -5.9 63.8 -6.7 63.8 -7.45 64.35 -8.0 65.0 -8.6 65.75 -8.6 66.6 -8.6 67.2 -8.0 67.7 -7.5 67.8 -6.7 M77.15 -8.5 Q77.15 -7.7 76.55 -7.15 76.0 -6.6 75.2 -6.6 74.35 -6.55 73.75 -7.1 73.15 -7.7 73.15 -8.45 73.15 -9.25 73.75 -9.8 74.35 -10.35 75.2 -10.35 76.0 -10.4 76.55 -9.85 77.15 -9.25 77.15 -8.5 M-36.15 12.55 Q-36.2 13.25 -36.7 13.8 -37.25 14.35 -38.0 14.4 -38.8 14.4 -39.3 13.85 -39.85 13.25 -39.85 12.55 -39.85 11.85 -39.3 11.3 -38.8 10.75 -38.0 10.75 -37.25 10.75 -36.7 11.25 -36.2 11.8 -36.15 12.55 M-44.8 14.2 Q-44.8 14.95 -45.3 15.5 -45.9 16.0 -46.6 16.0 -47.4 16.0 -47.9 15.5 -48.45 14.95 -48.45 14.2 -48.45 13.45 -47.9 12.9 -47.4 12.4 -46.6 12.4 -45.9 12.4 -45.3 12.9 -44.8 13.45 -44.8 14.2" fill="none" stroke="#000000" stroke-linecap="round" stroke-linejoin="round" stroke-width="1.0"/>
    <path d="M29.65 -9.7 L26.5 -11.05 30.8 -11.85 33.9 -10.45 29.65 -9.7 33.9 -10.45 30.8 -11.85 34.2 -12.45 37.45 -11.05 33.9 -10.45 37.1 -9.0 33.9 -10.45 37.45 -11.05 40.75 -9.7 37.1 -9.0 32.85 -8.2 28.6 -7.4 25.35 -8.9 29.65 -9.7 32.85 -8.2 29.65 -9.7 M52.1 -13.75 L55.7 -12.55 51.2 -11.75 47.3 -11.0 43.55 -10.4 40.4 -11.75 37.4 -13.05 41.45 -13.7 45.3 -14.25 48.2 -13.0 52.1 -13.75 M55.45 -15.95 L59.1 -14.9 55.1 -14.3 59.1 -14.9 55.45 -15.95 59.25 -16.65 63.0 -15.65 59.25 -16.65 62.9 -17.2 66.8 -16.25 71.05 -15.3 67.05 -14.55 63.0 -15.65 66.8 -16.25 63.0 -15.65 59.1 -14.9 62.95 -13.8 59.1 -13.1 55.1 -14.3 51.4 -15.4 55.45 -15.95 M51.2 -11.75 L48.2 -13.0 51.2 -11.75 M40.4 -11.75 L44.3 -12.35 41.45 -13.7 44.3 -12.35 40.4 -11.75 M47.3 -11.0 L44.3 -12.35 48.2 -13.0 44.3 -12.35 47.3 -11.0 M-32.6 1.2 L-35.0 -0.5 -30.15 -1.35 -25.45 -2.15 -20.85 -2.9 -18.25 -1.35 -15.7 0.25 -20.7 1.1 -25.6 2.0 -27.9 0.35 -32.6 1.2 M-18.25 -1.35 L-23.05 -0.5 -25.45 -2.15 -23.05 -0.5 -18.25 -1.35 M-30.15 -1.35 L-27.9 0.35 -30.15 -1.35 M-3.2 -1.9 L-8.15 -1.0 -12.75 -0.25 -15.25 -1.9 -17.7 -3.5 -12.8 -4.4 -8.05 -5.2 -3.3 -6.0 -0.75 -4.4 -5.6 -3.5 -3.2 -1.9 M-5.6 -3.5 L-8.05 -5.2 -5.6 -3.5 -10.5 -2.7 -8.15 -1.0 -10.5 -2.7 -5.6 -3.5 M-12.8 -4.4 L-10.5 -2.7 -15.25 -1.9 -10.5 -2.7 -12.8 -4.4 M-42.4 0.7 L-37.9 -0.05 -35.55 1.65 -33.25 3.3 -38.05 4.15 -43.75 5.25 -49.35 6.2 -51.7 4.45 -54.05 2.65 -48.15 1.7 -45.9 3.45 -40.3 2.5 -42.4 0.7 M-38.05 4.15 L-40.3 2.5 -35.55 1.65 -40.3 2.5 -38.05 4.15 M-23.05 -0.5 L-27.9 0.35 -23.05 -0.5 -20.7 1.1 -23.05 -0.5 M-45.9 3.45 L-51.7 4.45 -45.9 3.45 -43.75 5.25 -45.9 3.45" fill="#414141" fill-rule="evenodd" stroke="none"/>
    <path d="M26.5 -11.05 L29.65 -9.7 25.35 -8.9 22.0 -10.35 26.5 -11.05 M45.3 -14.25 L48.85 -14.85 52.1 -13.75 48.2 -13.0 45.3 -14.25 M62.95 -13.8 L59.1 -14.9 63.0 -15.65 67.05 -14.55 62.95 -13.8 M-25.6 2.0 L-30.1 2.8 -32.6 1.2 -27.9 0.35 -25.6 2.0 M-0.75 -4.4 L1.85 -2.8 -3.2 -1.9 -5.6 -3.5 -0.75 -4.4 M-48.15 1.7 L-42.4 0.7 -40.3 2.5 -45.9 3.45 -48.15 1.7" fill="#ff4a4a" fill-rule="evenodd" stroke="none"/>
    <path d="M26.5 -11.05 L29.65 -9.7 33.9 -10.45 30.8 -11.85 26.5 -11.05 22.0 -10.35 25.35 -8.9 29.65 -9.7 32.85 -8.2 37.1 -9.0 33.9 -10.45 37.45 -11.05 34.2 -12.45 30.8 -11.85 M32.85 -8.2 L28.6 -7.4 25.35 -8.9 M52.1 -13.75 L55.7 -12.55 51.2 -11.75 47.3 -11.0 43.55 -10.4 40.4 -11.75 37.4 -13.05 41.45 -13.7 45.3 -14.25 48.85 -14.85 52.1 -13.75 48.2 -13.0 51.2 -11.75 M55.1 -14.3 L59.1 -14.9 55.45 -15.95 51.4 -15.4 55.1 -14.3 59.1 -13.1 62.95 -13.8 59.1 -14.9 63.0 -15.65 59.25 -16.65 55.45 -15.95 M45.3 -14.25 L48.2 -13.0 44.3 -12.35 47.3 -11.0 M41.45 -13.7 L44.3 -12.35 40.4 -11.75 M63.0 -15.65 L67.05 -14.55 71.05 -15.3 66.8 -16.25 63.0 -15.65 M67.05 -14.55 L62.95 -13.8 M59.25 -16.65 L62.9 -17.2 66.8 -16.25 M37.45 -11.05 L40.75 -9.7 37.1 -9.0 M-32.6 1.2 L-35.0 -0.5 -30.15 -1.35 -25.45 -2.15 -20.85 -2.9 -18.25 -1.35 -15.7 0.25 -20.7 1.1 -25.6 2.0 -30.1 2.8 -32.6 1.2 -27.9 0.35 -30.15 -1.35 M-25.45 -2.15 L-23.05 -0.5 -18.25 -1.35 M-3.2 -1.9 L-8.15 -1.0 -12.75 -0.25 -15.25 -1.9 -17.7 -3.5 -12.8 -4.4 -8.05 -5.2 -3.3 -6.0 -0.75 -4.4 1.85 -2.8 -3.2 -1.9 -5.6 -3.5 -10.5 -2.7 -8.15 -1.0 M-15.25 -1.9 L-10.5 -2.7 -12.8 -4.4 M-8.05 -5.2 L-5.6 -3.5 -0.75 -4.4 M-27.9 0.35 L-25.6 2.0 M-42.4 0.7 L-37.9 -0.05 -35.55 1.65 -33.25 3.3 -38.05 4.15 -43.75 5.25 -49.35 6.2 -51.7 4.45 -54.05 2.65 -48.15 1.7 -42.4 0.7 -40.3 2.5 -35.55 1.65 M-40.3 2.5 L-38.05 4.15 M-48.15 1.7 L-45.9 3.45 -40.3 2.5 M-45.9 3.45 L-43.75 5.25 M-51.7 4.45 L-45.9 3.45 M-23.05 -0.5 L-20.7 1.1 M-27.9 0.35 L-23.05 -0.5" fill="none" stroke="#000000" stroke-linecap="round" stroke-linejoin="round" stroke-width="1.0"/>
    <path d="M17.4 -10.9 L11.6 -14.35 11.65 -14.85 14.65 -15.4 20.2 -12.2 20.85 -11.35 17.4 -10.9 M10.8 -9.7 L4.7 -13.1 4.65 -13.65 7.4 -14.15 13.2 -10.95 13.9 -10.2 10.8 -9.7 M2.9 -8.4 L-2.95 -11.85 -2.85 -12.45 0.15 -12.9 5.85 -9.85 6.35 -8.9 2.9 -8.4 M38.1 -14.1 L32.1 -17.0 31.95 -17.45 34.2 -18.0 40.7 -15.15 40.7 -14.65 38.1 -14.1 M31.05 -13.05 L25.35 -16.1 25.25 -16.65 27.55 -17.05 34.0 -14.1 33.9 -13.6 31.05 -13.05 M52.3 -16.55 L44.55 -18.55 44.0 -19.0 45.8 -19.5 54.0 -17.45 54.25 -17.05 52.3 -16.55 M-42.45 -1.0 L-47.8 -4.9 -47.55 -5.45 -44.2 -6.0 -38.75 -2.0 -38.65 -1.55 -42.45 -1.0 M-50.2 0.4 L-56.05 -3.65 -55.9 -4.2 -52.6 -4.8 -46.85 -0.9 -46.35 -0.2 -50.2 0.4 M-34.9 -2.15 L-40.0 -6.05 -39.7 -6.65 -36.4 -7.15 -31.15 -3.45 -31.0 -2.7 -34.9 -2.15 M-20.55 -4.6 L-25.8 -8.3 -25.6 -8.9 -22.25 -9.4 -17.0 -5.65 -16.75 -5.15 -20.55 -4.6 M-12.85 -5.95 L-17.95 -9.7 -17.75 -10.3 -14.55 -10.85 -9.3 -7.05 -9.2 -6.5 -12.85 -5.95" fill="#191919" fill-rule="evenodd" stroke="none"/>
    <path d="M17.4 -10.9 L11.6 -14.35 11.65 -14.85 14.65 -15.4 20.2 -12.2 20.85 -11.35 17.4 -10.9 M10.8 -9.7 L4.7 -13.1 4.65 -13.65 7.4 -14.15 13.2 -10.95 13.9 -10.2 10.8 -9.7 M2.9 -8.4 L-2.95 -11.85 -2.85 -12.45 0.15 -12.9 5.85 -9.85 6.35 -8.9 2.9 -8.4 M38.1 -14.1 L32.1 -17.0 31.95 -17.45 34.2 -18.0 40.7 -15.15 40.7 -14.65 38.1 -14.1 M31.05 -13.05 L25.35 -16.1 25.25 -16.65 27.55 -17.05 34.0 -14.1 33.9 -13.6 31.05 -13.05 M52.3 -16.55 L44.55 -18.55 44.0 -19.0 45.8 -19.5 54.0 -17.45 54.25 -17.05 52.3 -16.55 M-42.45 -1.0 L-47.8 -4.9 -47.55 -5.45 -44.2 -6.0 -38.75 -2.0 -38.65 -1.55 -42.45 -1.0 M-50.2 0.4 L-56.05 -3.65 -55.9 -4.2 -52.6 -4.8 -46.85 -0.9 -46.35 -0.2 -50.2 0.4 M-34.9 -2.15 L-40.0 -6.05 -39.7 -6.65 -36.4 -7.15 -31.15 -3.45 -31.0 -2.7 -34.9 -2.15 M-20.55 -4.6 L-25.8 -8.3 -25.6 -8.9 -22.25 -9.4 -17.0 -5.65 -16.75 -5.15 -20.55 -4.6 M-12.85 -5.95 L-17.95 -9.7 -17.75 -10.3 -14.55 -10.85 -9.3 -7.05 -9.2 -6.5 -12.85 -5.95" fill="none" stroke="#000000" stroke-linecap="round" stroke-linejoin="round" stroke-width="1.0"/>
  </g>
</svg>
