<?xml version="1.0" encoding="UTF-8" standalone="no"?>
<svg xmlns:xlink="http://www.w3.org/1999/xlink" height="21.7px" width="91.0px" xmlns="http://www.w3.org/2000/svg">
  <g transform="matrix(1.0, 0.0, 0.0, 1.0, 45.5, 11.0)">
    <path d="M3.25 -2.8 L5.3 -2.9 Q7.95 -1.65 9.35 -0.4 7.75 0.6 0.9 0.95 L-8.75 0.3 Q-7.35 -1.05 -4.65 -2.4 L-3.15 -2.5 -3.05 -2.4 -2.2 -1.3 2.75 -1.65 3.25 -2.8 2.75 -1.65 -2.2 -1.3 -3.05 -2.4 -3.05 -2.5 -3.25 -6.45 -2.1 -6.5 -2.2 -7.7 -3.3 -7.7 -3.5 -9.8 Q-2.9 -10.5 -0.3 -10.5 2.55 -10.5 3.0 -10.0 L3.15 -7.9 1.9 -7.85 2.0 -6.7 3.2 -6.75 3.25 -2.8 M2.0 -6.7 L-2.1 -6.5 2.0 -6.7 M1.9 -7.85 L-2.2 -7.7 1.9 -7.85" fill="#2c2c2f" fill-rule="evenodd" stroke="none"/>
    <path d="M-8.75 0.3 L0.9 0.95 Q7.75 0.6 9.35 -0.4 L19.0 0.0 Q33.95 0.75 44.95 2.45 45.9 4.2 34.25 6.15 L23.5 7.35 23.05 7.45 19.0 7.8 Q-7.95 10.35 -33.9 10.2 -45.1 9.55 -45.0 8.35 -30.5 3.9 -8.75 0.3" fill="url(#gradient0)" fill-rule="evenodd" stroke="none"/>
    <path d="M9.35 -0.4 Q7.95 -1.65 5.3 -2.9 L3.25 -2.8 2.75 -1.65 -2.2 -1.3 -3.05 -2.4 -3.15 -2.5 -4.65 -2.4 Q-7.35 -1.05 -8.75 0.3 L0.9 0.95 Q7.75 0.6 9.35 -0.4 L19.0 0.0 Q33.95 0.75 44.95 2.45 45.9 4.2 34.25 6.15 L23.5 7.35 23.05 7.45 19.0 7.8 Q-7.95 10.35 -33.9 10.2 -45.1 9.55 -45.0 8.35 -30.5 3.9 -8.75 0.3 M-3.05 -2.5 L-3.25 -6.45 -2.1 -6.5 -2.2 -7.7 -3.3 -7.7 -3.5 -9.8 Q-2.9 -10.5 -0.3 -10.5 2.55 -10.5 3.0 -10.0 L3.15 -7.9 1.9 -7.85 2.0 -6.7 3.2 -6.75 3.25 -2.8 M-3.15 -2.5 L-3.05 -2.5 -3.05 -2.4 M-2.2 -7.7 L1.9 -7.85 M-2.1 -6.5 L2.0 -6.7" fill="none" stroke="#000000" stroke-linecap="round" stroke-linejoin="round" stroke-width="1.0"/>
  </g>
  <defs>
    <linearGradient gradientTransform="matrix(4.0E-4, 0.0053, -0.0549, 0.0038, 0.05, 6.85)" gradientUnits="userSpaceOnUse" id="gradient0" spreadMethod="pad" x1="-819.2" x2="819.2">
      <stop offset="0.0" stop-color="#ecd9b5"/>
      <stop offset="1.0" stop-color="#9c8a6f"/>
    </linearGradient>
  </defs>
</svg>
