<?xml version="1.0" encoding="UTF-8" standalone="no"?>
<svg xmlns:xlink="http://www.w3.org/1999/xlink" height="148.7px" width="145.2px" xmlns="http://www.w3.org/2000/svg">
  <g transform="matrix(1.0, 0.0, 0.0, 1.0, 0.85, 74.35)">
    <path d="M140.75 43.9 Q144.4 47.65 143.15 53.55 142.4 58.7 138.65 63.1 135.6 66.4 131.05 66.2 L130.8 66.3 Q127.85 67.55 123.85 67.15 L118.9 67.3 Q116.4 68.35 113.7 67.85 110.9 69.15 108.1 68.85 105.65 69.7 102.85 69.65 L102.8 69.65 Q98.05 71.6 91.9 71.4 L91.75 71.45 Q86.8 72.85 80.8 72.35 L74.5 72.5 67.2 73.5 69.6 71.7 Q83.15 61.05 79.7 50.45 L140.75 43.9 M127.0 59.05 Q123.25 65.45 118.9 67.3 123.25 65.45 127.0 59.05 M132.1 58.05 Q130.05 65.8 123.85 67.15 130.05 65.8 132.1 58.05 M137.15 59.25 Q135.15 64.35 131.05 66.2 135.15 64.35 137.15 59.25 M103.45 63.9 Q98.6 69.45 91.9 71.4 98.6 69.45 103.45 63.9 M121.3 60.95 Q117.6 66.0 113.7 67.85 117.6 66.0 121.3 60.95 M117.5 60.1 Q113.7 66.95 108.1 68.85 113.7 66.95 117.5 60.1 M111.4 63.2 Q107.9 67.6 102.85 69.65 107.9 67.6 111.4 63.2 M90.2 64.75 Q84.9 69.95 74.5 72.5 84.9 69.95 90.2 64.75 M95.55 64.75 Q90.7 71.3 80.8 72.35 90.7 71.3 95.55 64.75" fill="#f7f7f7" fill-rule="evenodd" stroke="none"/>
    <path d="M69.6 71.7 L64.8 71.9 Q62.8 72.8 60.45 73.5 L66.15 68.6 Q61.4 71.85 55.3 71.45 L61.55 67.85 Q57.35 69.2 52.6 66.95 L58.1 65.8 Q54.25 66.3 50.35 64.6 61.5 64.35 62.45 56.25 L76.3 50.8 79.7 50.45 Q83.15 61.05 69.6 71.7 M68.9 61.95 Q65.5 66.55 61.55 67.85 65.5 66.55 68.9 61.95 M62.0 64.75 Q60.2 65.5 58.4 65.75 L58.1 65.8 58.4 65.75 Q60.2 65.5 62.0 64.75 M77.15 58.4 Q73.8 67.7 64.8 71.9 73.8 67.7 77.15 58.4 M71.8 62.85 Q69.25 66.5 66.15 68.6 69.25 66.5 71.8 62.85" fill="#dbdbdb" fill-rule="evenodd" stroke="none"/>
    <path d="M62.45 56.25 L60.15 57.15 60.15 50.95 76.1 44.95 99.75 42.4 0.4 -67.75 Q-0.75 -70.05 1.55 -72.35 4.15 -74.65 6.75 -72.35 L108.8 41.4 143.5 37.6 143.5 43.6 140.75 43.9 Q144.4 47.65 143.15 53.55 142.4 58.7 138.65 63.1 135.6 66.4 131.05 66.2 L130.8 66.3 Q127.85 67.55 123.85 67.15 L118.9 67.3 Q116.4 68.35 113.7 67.85 110.9 69.15 108.1 68.85 105.65 69.7 102.85 69.65 L102.8 69.65 Q98.05 71.6 91.9 71.4 L91.75 71.45 Q86.8 72.85 80.8 72.35 L74.5 72.5 67.2 73.5 69.6 71.7 64.8 71.9 Q62.8 72.8 60.45 73.5 L66.15 68.6 Q61.4 71.85 55.3 71.45 L61.55 67.85 Q57.35 69.2 52.6 66.95 L58.1 65.8 Q54.25 66.3 50.35 64.6 61.5 64.35 62.45 56.25 L76.3 50.8 76.1 44.95 M99.75 42.4 L108.8 41.4 M102.85 69.65 Q107.9 67.6 111.4 63.2 M108.1 68.85 Q113.7 66.95 117.5 60.1 M113.7 67.85 Q117.6 66.0 121.3 60.95 M91.9 71.4 Q98.6 69.45 103.45 63.9 M131.05 66.2 Q135.15 64.35 137.15 59.25 M123.85 67.15 Q130.05 65.8 132.1 58.05 M118.9 67.3 Q123.25 65.45 127.0 59.05 M79.7 50.45 L76.3 50.8 M61.55 67.85 Q65.5 66.55 68.9 61.95 M79.7 50.45 Q83.15 61.05 69.6 71.7 M66.15 68.6 Q69.25 66.5 71.8 62.85 M64.8 71.9 Q73.8 67.7 77.15 58.4 M58.1 65.8 L58.4 65.75 Q60.2 65.5 62.0 64.75 M80.8 72.35 Q90.7 71.3 95.55 64.75 M74.5 72.5 Q84.9 69.95 90.2 64.75 M140.75 43.9 L79.7 50.45" fill="none" stroke="#000000" stroke-linecap="round" stroke-linejoin="round" stroke-width="1.7000000000000002"/>
  </g>
</svg>
