<?xml version="1.0" encoding="UTF-8" standalone="no"?>
<svg xmlns:xlink="http://www.w3.org/1999/xlink" height="280.0px" width="280.0px" xmlns="http://www.w3.org/2000/svg">
  <g transform="matrix(1.0, 0.0, 0.0, 1.0, 140.0, 140.0)">
    <path d="M139.5 0.0 Q139.5 57.8 98.6 98.65 57.75 139.5 0.0 139.5 -57.8 139.5 -98.7 98.65 -139.5 57.8 -139.5 0.0 -139.5 -57.75 -98.7 -98.65 -57.8 -139.5 0.0 -139.5 57.75 -139.5 98.6 -98.65 139.5 -57.75 139.5 0.0" fill="url(#gradient0)" fill-rule="evenodd" stroke="none"/>
    <path d="M139.5 0.0 Q139.5 57.8 98.6 98.65 57.75 139.5 0.0 139.5 -57.8 139.5 -98.7 98.65 -139.5 57.8 -139.5 0.0 -139.5 -57.75 -98.7 -98.65 -57.8 -139.5 0.0 -139.5 57.75 -139.5 98.6 -98.65 139.5 -57.75 139.5 0.0 Z" fill="none" stroke="#ffffff" stroke-linecap="round" stroke-linejoin="round" stroke-opacity="0.7372549" stroke-width="1.0"/>
  </g>
  <defs>
    <radialGradient cx="0" cy="0" gradientTransform="matrix(0.1723, 0.0, 0.0, 0.1723, -0.05, 0.0)" gradientUnits="userSpaceOnUse" id="gradient0" r="819.2" spreadMethod="pad">
      <stop offset="0.15294117647058825" stop-color="#f5c4ff" stop-opacity="0.0"/>
      <stop offset="1.0" stop-color="#b6e1ff" stop-opacity="0.5764706"/>
    </radialGradient>
  </defs>
</svg>
