<?xml version="1.0" encoding="UTF-8" standalone="no"?>
<svg xmlns:xlink="http://www.w3.org/1999/xlink" height="125.55px" width="143.95px" xmlns="http://www.w3.org/2000/svg">
  <g transform="matrix(1.0, 0.0, 0.0, 1.0, 75.4, 12.8)">
    <path d="M-42.05 87.7 Q-30.75 41.0 -11.95 -8.2 -10.35 -10.95 -7.4 -11.35 -0.7 -12.95 6.0 -8.9 17.25 1.4 32.7 54.1 44.8 84.9 67.55 86.45 46.9 97.15 20.4 88.9 -33.7 61.7 -42.05 87.7" fill="#000000" fill-opacity="0.3764706" fill-rule="evenodd" stroke="none"/>
    <path d="M-42.05 87.7 Q-33.7 61.7 20.4 88.9 46.9 97.15 67.55 86.45 44.8 84.9 32.7 54.1 17.25 1.4 6.0 -8.9 -0.7 -12.95 -7.4 -11.35 -10.35 -10.95 -11.95 -8.2 -30.75 41.0 -42.05 87.7 L-42.9 91.35 Q-41.85 108.35 -34.5 111.75 -76.85 111.3 -74.25 84.7 -54.45 67.65 -38.0 30.6 -29.25 9.45 -11.95 -8.2" fill="none" stroke="#000000" stroke-linecap="round" stroke-linejoin="round" stroke-width="2.0"/>
  </g>
</svg>
