<?xml version="1.0" encoding="UTF-8" standalone="no"?>
<svg xmlns:xlink="http://www.w3.org/1999/xlink" height="130.0px" width="111.6px" xmlns="http://www.w3.org/2000/svg">
  <g transform="matrix(1.0, 0.0, 0.0, 1.0, 64.55, 8.7)">
    <path d="M-42.35 70.7 Q-34.3 39.45 -18.05 3.4 L-13.55 -4.95 Q1.35 -11.0 12.4 -3.85 13.5 -3.4 14.65 -0.85 25.4 22.65 35.85 51.25 43.15 67.65 45.25 81.8 29.85 77.45 13.75 79.35 -5.8 79.85 -21.3 74.0 -33.3 68.55 -42.35 70.7 -33.3 68.55 -21.3 74.0 -5.8 79.85 13.75 79.35 29.85 77.45 45.25 81.8 46.75 92.3 45.35 101.55 34.3 95.8 20.4 94.95 L4.25 94.95 Q-7.25 94.3 -20.95 89.3 -31.95 85.4 -38.65 86.45 -44.3 87.35 -47.0 91.75 -45.15 81.5 -42.35 70.7" fill="#000000" fill-opacity="0.4" fill-rule="evenodd" stroke="none"/>
    <path d="M45.25 81.8 Q43.15 67.65 35.85 51.25 25.4 22.65 14.65 -0.85 13.5 -3.4 12.4 -3.85 1.35 -11.0 -13.55 -4.95 L-18.05 3.4 Q-34.3 39.45 -42.35 70.7 -33.3 68.55 -21.3 74.0 -5.8 79.85 13.75 79.35 29.85 77.45 45.25 81.8 46.75 92.3 45.35 101.55 34.3 95.8 20.4 94.95 L4.25 94.95 Q-7.25 94.3 -20.95 89.3 -31.95 85.4 -38.65 86.45 -44.3 87.35 -47.0 91.75 L-47.6 95.3 Q-49.65 108.1 -50.0 120.3 -70.4 110.3 -60.1 78.95 L-58.55 74.45 -57.95 72.85 -57.8 72.35 -57.25 71.0 -55.9 67.5 Q-46.55 44.15 -27.95 13.05 -24.35 7.05 -18.6 0.15 L-13.55 -4.95 M-58.55 74.45 Q-60.0 84.85 -47.6 95.3 M-42.35 70.7 Q-45.15 81.5 -47.0 91.75" fill="none" stroke="#000000" stroke-linecap="round" stroke-linejoin="round" stroke-width="2.0"/>
  </g>
</svg>
