<?xml version="1.0" encoding="UTF-8" standalone="no"?>
<svg xmlns:xlink="http://www.w3.org/1999/xlink" height="125.4px" width="119.55px" xmlns="http://www.w3.org/2000/svg">
  <g transform="matrix(1.0, 0.0, 0.0, 1.0, 68.0, 5.95)">
    <path d="M-49.1 92.75 Q-45.6 66.65 -38.65 46.4 -31.65 25.75 -16.55 -1.65 -3.15 -8.6 15.0 -0.95 24.7 5.0 29.75 20.3 32.15 27.55 33.35 36.6 34.95 48.15 35.8 61.2 36.85 79.55 45.5 98.1 47.8 102.95 50.55 107.85 L39.95 101.6 Q39.15 98.25 37.9 96.75 38.1 101.15 37.15 100.65 35.25 97.85 32.0 96.9 33.3 94.45 32.35 92.2 30.55 95.2 30.2 97.3 L24.7 92.5 24.55 91.05 23.3 87.8 21.4 87.6 12.5 85.85 8.85 84.9 5.0 83.8 Q3.55 87.4 2.65 87.4 -0.35 85.55 -2.95 85.5 -12.4 84.35 -17.3 82.85 -19.65 82.2 -20.95 81.4 -23.0 84.4 -21.45 87.1 L-23.55 88.0 -26.95 89.4 Q-30.0 85.05 -31.2 85.3 -33.4 88.7 -33.05 91.35 -38.6 82.55 -39.85 82.5 -41.5 90.95 -42.75 91.7 -45.3 89.45 -48.1 90.8 -48.85 91.25 -49.1 92.75" fill="#000000" fill-opacity="0.4" fill-rule="evenodd" stroke="none"/>
    <path d="M-49.1 92.75 Q-48.85 91.25 -48.1 90.8 -45.3 89.45 -42.75 91.7 -41.5 90.95 -39.85 82.5 -38.6 82.55 -33.05 91.35 -33.4 88.7 -31.2 85.3 -30.0 85.05 -26.95 89.4 L-23.55 88.0 -21.45 87.1 Q-23.0 84.4 -20.95 81.4 -19.65 82.2 -17.3 82.85 -12.4 84.35 -2.95 85.5 -0.35 85.55 2.65 87.4 3.55 87.4 5.0 83.8 L8.85 84.9 12.5 85.85 21.4 87.6 23.3 87.8 24.55 91.05 24.7 92.5 30.2 97.3 Q30.55 95.2 32.35 92.2 33.3 94.45 32.0 96.9 35.25 97.85 37.15 100.65 38.1 101.15 37.9 96.75 39.15 98.25 39.95 101.6 L50.55 107.85 Q47.8 102.95 45.5 98.1 36.85 79.55 35.8 61.2 34.95 48.15 33.35 36.6 32.15 27.55 29.75 20.3 24.7 5.0 15.0 -0.95 -3.15 -8.6 -16.55 -1.65 -31.65 25.75 -38.65 46.4 -45.6 66.65 -49.1 92.75 L-49.25 93.6 Q-51.0 106.65 -48.7 118.45 -53.4 113.5 -58.35 105.4 -56.7 103.35 -55.5 100.65 -53.25 92.75 -55.0 85.95 -57.2 88.9 -60.85 100.9 -64.0 97.5 -67.0 85.9 -61.8 65.8 -51.2 47.9 -40.55 29.95 -37.4 22.8 -29.65 7.45 -16.55 -1.65" fill="none" stroke="#000000" stroke-linecap="round" stroke-linejoin="round" stroke-width="2.0"/>
  </g>
</svg>
