<?xml version="1.0" encoding="UTF-8" standalone="no"?>
<svg xmlns:xlink="http://www.w3.org/1999/xlink" height="125.5px" width="110.9px" xmlns="http://www.w3.org/2000/svg">
  <g transform="matrix(1.0, 0.0, 0.0, 1.0, 62.75, 11.95)">
    <path d="M-5.15 -10.95 Q5.05 -11.2 9.6 -8.45 L39.65 86.05 Q43.85 99.25 47.15 104.5 -3.55 81.7 -38.45 96.1 L-38.45 95.4 -38.4 94.35 Q-37.8 85.0 -37.05 80.9 -0.05 72.25 39.65 86.05 -0.05 72.25 -37.05 80.9 -29.75 38.95 -5.15 -10.95" fill="#000000" fill-opacity="0.32941177" fill-rule="evenodd" stroke="none"/>
    <path d="M-38.45 96.1 L-38.45 112.55 Q-61.35 106.8 -61.75 95.15 -56.55 86.3 -55.35 82.55 -40.25 35.75 -10.6 -7.75 -7.3 -11.2 -5.15 -10.95 5.05 -11.2 9.6 -8.45 L39.65 86.05 Q43.85 99.25 47.15 104.5 -3.55 81.7 -38.45 96.1 L-38.45 95.4 -38.5 96.1 -38.45 96.1 M-37.05 80.9 Q-37.8 85.0 -38.4 94.35 L-38.45 95.4 M-38.4 94.35 Q-52.65 88.1 -55.35 82.55 M39.65 86.05 Q-0.05 72.25 -37.05 80.9 -29.75 38.95 -5.15 -10.95" fill="none" stroke="#000000" stroke-linecap="round" stroke-linejoin="round" stroke-width="2.0"/>
  </g>
</svg>
