<?xml version="1.0" encoding="UTF-8" standalone="no"?>
<svg xmlns:xlink="http://www.w3.org/1999/xlink" height="132.8px" width="120.6px" xmlns="http://www.w3.org/2000/svg">
  <g transform="matrix(1.0, 0.0, 0.0, 1.0, 66.95, 12.65)">
    <path d="M36.95 88.1 Q31.3 89.45 12.3 82.05 -9.8 73.25 -39.7 81.25 -9.8 73.25 12.3 82.05 31.3 89.45 36.95 88.1 47.1 104.65 52.65 104.4 43.65 112.5 23.05 103.25 2.0 93.8 -14.75 93.95 L-41.2 99.3 Q-40.95 88.25 -39.7 81.25 -32.75 24.4 -18.3 2.65 -12.0 -6.9 -8.55 -10.65 L-4.65 -10.95 Q1.25 -13.05 5.55 -9.05 14.05 37.35 36.95 88.1" fill="#000000" fill-opacity="0.32941177" fill-rule="evenodd" stroke="none"/>
    <path d="M-39.7 81.25 Q-9.8 73.25 12.3 82.05 31.3 89.45 36.95 88.1 14.05 37.35 5.55 -9.05 1.25 -13.05 -4.65 -10.95 L-8.55 -10.65 Q-12.0 -6.9 -18.3 2.65 -32.75 24.4 -39.7 81.25 -40.95 88.25 -41.2 99.3 L-14.75 93.95 Q2.0 93.8 23.05 103.25 43.65 112.5 52.65 104.4 47.1 104.65 36.95 88.1 M-41.2 99.3 L-41.1 101.65 Q-40.6 113.45 -39.55 119.15 -64.05 110.7 -65.95 95.85 L-60.6 83.15 Q-50.6 49.75 -36.2 22.9 -21.8 -3.95 -17.75 -7.25 -12.5 -9.9 -8.55 -10.65 M-60.6 83.15 Q-58.2 95.8 -41.1 101.65" fill="none" stroke="#000000" stroke-linecap="round" stroke-linejoin="round" stroke-width="2.0"/>
  </g>
</svg>
