<?xml version="1.0" encoding="UTF-8" standalone="no"?>
<svg xmlns:xlink="http://www.w3.org/1999/xlink" height="117.4px" width="120.3px" xmlns="http://www.w3.org/2000/svg">
  <g transform="matrix(1.0, 0.0, 0.0, 1.0, 65.25, 11.8)">
    <path d="M41.25 78.45 Q42.6 84.2 41.1 94.05 52.7 90.85 54.05 84.4 52.2 76.95 49.75 69.35 39.05 18.85 21.75 -0.95 17.0 -6.0 11.75 -8.4 -17.25 -16.95 -33.65 4.95 -50.1 26.9 -56.65 51.2 -63.2 75.45 -64.15 85.05 L-64.2 88.9 Q-64.1 90.7 -60.7 96.95 -57.3 103.15 -47.5 104.6 -49.55 90.2 -49.55 84.5 -49.5 27.75 -22.85 5.0 -11.85 -2.1 8.35 0.45 21.0 3.0 29.1 23.35 35.85 43.65 41.25 78.45 38.6 72.05 29.75 76.8 22.8 77.2 15.15 75.2 6.05 72.35 1.3 75.9 -3.45 79.35 -7.2 80.9 -18.95 84.55 -30.6 79.9 -47.15 80.2 -49.55 84.5 M29.75 76.8 Q28.5 49.25 15.7 13.35 M15.15 75.2 L6.55 14.0 M-19.65 19.9 Q-30.05 44.8 -30.6 79.9 M-6.85 12.85 Q-10.9 44.55 -7.2 80.9" fill="none" stroke="#000000" stroke-linecap="round" stroke-linejoin="round" stroke-width="2.0"/>
  </g>
</svg>
