<?xml version="1.0" encoding="UTF-8" standalone="no"?>
<svg xmlns:xlink="http://www.w3.org/1999/xlink" height="157.0px" width="77.65px" xmlns="http://www.w3.org/2000/svg">
  <g transform="matrix(1.0, 0.0, 0.0, 1.0, 83.25, 79.35)">
    <path d="M-65.2 -8.95 Q-62.85 -8.25 -62.75 -6.5 -62.55 -4.05 -64.65 -3.75 L-64.9 -3.75 -64.95 -3.75 -65.25 -7.65 -65.2 -8.95" fill="#090508" fill-rule="evenodd" stroke="none"/>
    <path d="M-47.55 -26.1 L-48.45 -31.4 -48.8 -32.75 Q-50.4 -39.2 -53.4 -44.15 -55.0 -46.75 -56.95 -48.9 L-67.3 -60.0 -70.3 -63.05 Q-77.85 -70.2 -80.7 -69.65 -81.55 -69.45 -81.95 -68.45 L-82.15 -67.9 Q-82.4 -66.8 -82.05 -62.55 L-81.35 -58.7 Q-80.2 -54.1 -77.3 -45.95 -74.45 -38.05 -68.25 -31.9 L-67.55 -31.2 -60.0 -23.45 -59.35 -22.75 M-48.8 -32.75 L-48.25 -31.5 Q-48.05 -31.6 -47.95 -31.65 L-47.75 -31.8 -43.55 -33.45 -41.0 -34.1 -40.25 -34.2 -35.65 -34.6 -35.3 -34.6 -34.95 -34.6 Q-33.1 -45.25 -35.9 -53.15 L-40.95 -66.0 -42.45 -69.65 -43.2 -71.25 Q-47.0 -78.85 -49.5 -78.3 L-50.6 -77.5 -50.95 -77.05 Q-51.55 -76.15 -52.75 -72.1 L-53.05 -70.85 Q-54.15 -66.35 -54.75 -55.45 -55.0 -49.6 -53.4 -44.15 M-48.45 -31.4 L-48.25 -31.5 M-60.0 -23.45 L-61.95 -20.55 -63.55 -16.5 -63.55 -16.45 Q-65.0 -12.95 -65.2 -9.0 L-65.2 -8.95 Q-62.85 -8.25 -62.75 -6.5 -62.55 -4.05 -64.65 -3.75 L-64.9 -3.75 Q-66.9 1.15 -63.25 1.15 -62.75 3.4 -60.4 6.5 -57.55 7.65 -57.85 4.65 M-64.9 -3.75 L-64.95 -3.75 -65.25 -7.65 -65.2 -8.95 M-60.4 6.5 L-59.15 8.0 -55.55 11.3 -54.75 12.0 Q-52.45 13.7 -50.05 15.1 L-47.75 16.4 -47.0 16.75 Q-41.75 19.25 -35.3 19.25 -27.45 19.25 -21.15 15.45 L-19.75 14.55 -15.85 11.3 Q-7.8 3.45 -7.8 -7.65 -7.8 -18.8 -15.85 -26.75 -20.9 -31.65 -27.2 -33.5 L-29.95 -34.15 -34.95 -34.6 M-47.0 16.75 L-47.25 18.0 Q-45.85 18.05 -43.2 21.05 L-41.7 22.9 Q-37.85 27.9 -42.3 37.15 -45.95 44.7 -49.15 49.0 L-50.6 50.75 Q-52.85 53.2 -55.05 53.95 -54.4 57.75 -52.5 61.05 L-51.75 62.25 Q-49.7 65.25 -47.4 67.35 -44.15 70.3 -40.4 71.4 L-35.9 72.0 -32.55 71.7 Q-28.75 71.0 -25.05 68.65 L-28.15 66.35 Q-29.35 65.15 -30.2 63.75 -31.95 60.8 -31.95 57.15 -31.95 51.75 -28.15 47.9 -24.3 44.1 -18.9 44.1 L-18.55 44.1 -16.1 44.45 Q-13.15 45.1 -10.7 47.05 -10.15 43.5 -10.3 39.55 -10.95 25.65 -18.85 15.7 L-19.75 14.55 M-25.05 68.65 L-24.7 68.85 Q-22.3 70.0 -19.55 69.85 L-17.25 69.4 Q-13.9 68.55 -11.15 65.65 -7.6 61.7 -6.75 56.7 -5.95 51.75 -9.75 47.9 L-10.7 47.05 M-47.25 18.0 L-47.4 18.0 Q-49.2 17.95 -54.5 22.95 -59.7 27.95 -62.4 34.8 -64.1 39.25 -64.1 43.2 -64.15 45.35 -63.65 47.35 -62.9 50.55 -61.25 52.3 -60.1 53.6 -58.4 54.05 L-55.05 53.95 M-52.5 61.05 L-55.05 62.1 Q-56.8 62.8 -58.4 63.65 L-58.45 63.7 Q-62.5 65.75 -63.25 69.6 -64.1 73.55 -60.35 75.55 -58.25 76.6 -55.7 76.65 L-54.55 76.6 -50.95 76.0 Q-46.75 74.9 -43.5 73.25 L-41.6 72.2 -40.4 71.4 M-43.5 73.25 L-39.85 73.95 -35.1 73.35 Q-29.65 71.85 -25.8 69.55 L-24.7 68.85" fill="none" stroke="#000000" stroke-linecap="round" stroke-linejoin="round" stroke-width="2.0"/>
  </g>
</svg>
