<?xml version="1.0" encoding="UTF-8" standalone="no"?>
<svg xmlns:xlink="http://www.w3.org/1999/xlink" height="119.4px" width="112.3px" xmlns="http://www.w3.org/2000/svg">
  <g transform="matrix(1.0, 0.0, 0.0, 1.0, 54.65, 8.0)">
    <path d="M-15.1 -5.25 Q-15.95 5.25 -18.4 14.75 L-18.45 15.05 Q-20.85 24.25 -24.55 32.3 -28.0 39.6 -32.4 45.95 -48.7 73.5 -53.15 96.05 L-53.65 98.8 -53.4 99.4 -53.3 99.5 -52.45 100.1 -50.8 100.8 -49.1 101.2 -48.95 101.2 -48.1 101.4 -47.35 101.55 -46.7 101.65 -46.45 101.7 -46.05 101.7 -44.9 101.9 -44.4 101.95 -43.15 102.1 -41.9 102.25 -41.8 102.3 -41.5 102.3 -41.3 102.25 -41.05 102.3 -39.25 102.25 -38.4 102.2 -37.0 102.1 -36.6 102.05 -35.95 102.0 -35.15 101.9 -34.05 101.75 -33.45 101.65 -33.25 101.6 -31.0 101.05 -30.35 100.85 -30.0 100.7 -28.15 99.6 -27.85 99.3 -27.6 98.8 -27.9 96.05 -27.95 95.6 -27.4 74.4 -27.05 71.65 -26.6 69.15 -26.3 67.25 Q-24.55 58.05 -21.3 48.3 -10.6 23.0 -7.1 -6.5 -10.95 -7.9 -15.1 -5.25 M31.65 103.35 Q28.75 102.05 29.05 98.7 L29.3 77.7 29.05 75.05 28.7 72.7 28.4 70.85 Q27.0 62.2 24.05 53.0 14.05 29.85 11.1 -0.55 12.0 -3.95 19.6 0.8 20.2 11.25 22.25 20.15 L22.35 20.45 Q24.35 29.1 27.85 36.45 30.95 43.0 35.25 48.45 51.75 73.85 54.95 96.35 L55.0 96.8 54.75 97.4 53.75 98.3 52.05 99.25 50.65 99.95 50.3 100.05 50.15 100.15 48.5 100.75 47.85 101.0 47.65 101.05 47.15 101.2 46.1 101.6 45.55 101.75 44.3 102.15 44.0 102.25 42.95 102.55 42.9 102.6 42.55 102.6 42.35 102.65 42.15 102.7 40.35 103.0 39.45 103.15 38.05 103.35 37.75 103.4 36.9 103.55 35.05 103.65 34.45 103.65 34.35 103.7 32.45 103.65 Q31.5 103.0 31.65 103.35" fill="none" stroke="#000000" stroke-linecap="round" stroke-linejoin="round" stroke-width="2.0"/>
    <path d="M-35.15 101.9 Q-31.85 107.75 -29.65 108.2 -27.0 108.15 -28.15 99.6 M-41.05 102.3 Q-40.8 108.7 -37.85 109.8 -34.85 107.85 -35.15 101.9 M-48.1 101.4 Q-47.2 108.15 -45.45 109.15 -43.9 111.25 -41.05 102.3 M-53.3 99.5 Q-54.9 106.4 -52.75 107.8 -49.7 107.45 -48.1 101.4 M54.95 96.35 Q58.15 102.7 56.65 106.65 53.3 104.85 50.65 99.95 51.65 105.75 50.45 109.35 45.8 107.95 44.0 102.25 44.4 107.55 41.55 110.2 39.2 109.7 36.9 103.55 37.05 107.65 32.45 110.9 30.65 109.0 31.65 103.35" fill="none" stroke="#000000" stroke-linecap="round" stroke-linejoin="round" stroke-width="1.0"/>
  </g>
</svg>
