<?xml version="1.0" encoding="UTF-8" standalone="no"?>
<svg xmlns:xlink="http://www.w3.org/1999/xlink" height="124.5px" width="72.6px" xmlns="http://www.w3.org/2000/svg">
  <g transform="matrix(1.0, 0.0, 0.0, 1.0, 74.05, 7.2)">
    <path d="M-25.35 6.55 L-25.75 8.2 -24.65 5.7 -21.25 -2.65 -20.85 -3.7 Q-17.0 -7.4 -8.45 -5.6 -1.4 -1.8 -2.6 1.85 -11.25 13.75 -8.25 38.2 L-9.75 33.45 Q-13.85 48.1 -16.1 63.65 -17.9 76.05 -18.5 89.0 -21.95 83.9 -22.75 76.55 -27.55 86.25 -29.35 97.35 L-29.35 97.4 -29.55 98.55 Q-30.15 102.8 -30.4 107.2 L-30.4 107.95 -30.4 112.3 Q-36.2 94.1 -33.7 77.4 -39.2 84.85 -40.9 94.15 -42.1 87.85 -40.8 81.1 -49.4 97.55 -54.55 116.3 -55.05 96.0 -50.0 76.85 -54.15 82.45 -59.1 83.4 -50.85 75.55 -50.7 67.7 -59.7 81.7 -73.05 89.9 -57.8 74.9 -49.65 53.75 L-49.65 53.65 -49.5 53.25 -49.3 52.7 -50.35 54.4 Q-53.4 58.7 -58.85 60.55 L-60.25 60.9 -58.05 58.55 Q-50.25 49.9 -43.45 40.05 -35.1 27.8 -28.2 13.55 L-28.1 13.25 -25.75 8.2 M-9.75 33.45 L-10.0 32.8 M-49.25 52.55 L-49.25 52.45 -49.25 52.5 -49.25 52.55 -49.3 52.7" fill="none" stroke="#000000" stroke-linecap="round" stroke-linejoin="round" stroke-width="2.0"/>
  </g>
</svg>
