<?xml version="1.0" encoding="UTF-8" standalone="no"?>
<svg xmlns:xlink="http://www.w3.org/1999/xlink" height="121.9px" width="129.95px" xmlns="http://www.w3.org/2000/svg">
  <g transform="matrix(1.0, 0.0, 0.0, 1.0, 66.75, 5.0)">
    <path d="M50.55 82.45 Q56.05 88.7 57.3 104.35 46.6 87.35 44.4 87.35 L44.3 87.35 Q50.65 104.3 45.45 115.4 45.65 111.7 45.35 108.05 44.3 96.25 37.8 85.15 42.05 97.0 39.2 106.85 39.1 101.15 32.25 86.2 25.35 71.2 23.0 65.6 10.75 36.65 9.4 0.8 12.25 -4.45 20.2 -0.8 21.35 7.15 23.25 14.95 29.2 39.7 42.55 63.1 66.5 86.3 61.25 98.3 59.0 91.65 50.55 82.45 L49.8 81.65 M-58.2 91.85 L-58.15 92.2 Q-64.15 101.85 -57.75 114.8 L-57.25 115.9 Q-53.1 105.25 -50.75 100.25 -48.45 95.15 -47.1 91.15 L-47.65 100.2 Q-48.05 108.3 -41.0 113.15 -44.65 81.8 -25.75 55.1 -7.6 29.2 -3.55 -0.6 -10.4 -5.9 -17.15 -2.95 -18.3 3.5 -19.7 9.35 -26.8 37.95 -41.35 51.05 -68.5 75.3 -65.45 106.7 L-65.2 109.45 Q-63.65 100.8 -58.65 92.9 L-58.15 92.2" fill="none" stroke="#000000" stroke-linecap="round" stroke-linejoin="round" stroke-width="2.0"/>
  </g>
</svg>
