<?xml version="1.0" encoding="UTF-8" standalone="no"?>
<svg xmlns:xlink="http://www.w3.org/1999/xlink" height="115.7px" width="173.8px" xmlns="http://www.w3.org/2000/svg">
  <g transform="matrix(1.0, 0.0, 0.0, 1.0, 91.9, 4.6)">
    <path d="M75.3 89.4 L76.05 88.35 76.15 88.15 76.95 87.05 77.1 86.85 80.9 82.35 Q71.25 82.35 64.05 78.15 59.95 75.65 56.85 71.85 53.5 67.9 51.0 62.55 49.45 59.3 48.25 55.4 L47.75 53.9 47.45 53.1 47.4 53.0 47.25 52.5 45.0 46.15 43.5 41.95 43.35 41.65 42.55 39.25 42.4 38.85 38.1 26.75 38.05 26.8 35.45 19.45 34.7 16.85 Q33.4 13.25 30.35 9.8 26.55 5.8 20.6 2.05 L16.25 -0.4 Q10.6 -2.3 5.25 -3.05 -3.3 -4.35 -10.9 -2.65 -15.7 -1.65 -19.95 0.5 L-21.85 2.15 -23.25 3.5 -23.3 3.55 -23.6 3.8 -34.15 12.55 -34.15 12.6 Q-40.6 16.35 -47.15 23.7 -51.95 30.6 -54.65 38.0 -56.7 43.9 -58.0 50.75 L-58.25 52.35 Q-59.2 57.5 -60.95 61.7 -63.5 67.8 -67.95 71.7 -70.8 74.25 -74.4 76.0 L-90.9 84.15 Q-84.8 83.9 -80.9 88.2 -77.45 92.0 -75.7 99.45 -74.6 104.1 -74.2 110.1 -67.05 109.7 -56.95 102.95 -38.25 87.55 -35.9 64.75 L-35.9 64.6 -35.85 62.25 Q-36.5 55.25 -35.75 49.6 -34.8 42.25 -31.7 36.8 -29.9 33.6 -27.3 30.1 L-24.05 25.4 Q-20.6 19.75 -17.35 15.65 -12.5 9.6 -7.95 7.05 L-6.95 6.4 Q-1.25 4.65 3.4 5.75 5.6 6.3 7.65 7.4 10.4 9.3 12.5 11.45 17.1 16.45 18.2 23.5 L18.35 27.2 19.3 35.1 Q20.2 40.55 21.35 45.8 22.7 51.95 24.6 57.95 26.8 65.1 29.9 71.75 L30.45 73.05 Q33.5 79.9 37.35 85.5 L40.85 90.2 41.65 91.2 42.05 91.6 43.7 93.45 Q46.1 96.0 48.8 98.2 57.0 104.85 67.2 107.6 68.2 103.25 69.95 99.15 L72.4 94.05 73.7 91.8 74.45 90.65 75.0 89.8 75.1 89.7 75.3 89.4 75.1 89.65 75.1 89.7 75.0 89.8 74.45 90.65 M41.65 91.2 L43.7 93.45" fill="none" stroke="#000000" stroke-linecap="round" stroke-linejoin="round" stroke-width="2.0"/>
  </g>
</svg>
