<?xml version="1.0" encoding="UTF-8" standalone="no"?>
<svg xmlns:xlink="http://www.w3.org/1999/xlink" height="64.9px" width="45.55px" xmlns="http://www.w3.org/2000/svg">
  <g transform="matrix(1.0, 0.0, 0.0, 1.0, 48.35, 7.4)">
    <path d="M-41.5 13.8 L-43.7 13.75 Q-44.75 9.75 -42.7 5.85 L-42.55 5.6 Q-40.6 2.5 -38.7 0.4 L-35.9 -2.5 -35.0 -3.15 Q-32.6 -4.4 -29.5 -4.3 -25.25 -4.45 -16.45 -6.15 -14.55 -6.6 -12.4 -6.15 -10.75 -5.85 -8.85 -4.95 -6.9 -2.5 -5.5 5.05 L-5.0 8.85 -4.4 13.9 -4.05 18.8 -3.9 22.85 Q-3.55 31.75 -4.7 37.85 -6.6 48.2 -8.55 51.05 -10.6 53.35 -15.8 54.55 L-18.95 55.15 -21.15 56.0 -25.6 56.5 -25.45 56.3 -26.3 56.3 -29.45 56.2 Q-31.25 56.0 -32.4 55.4 L-39.25 51.6 -40.6 50.65 -41.55 49.95 Q-43.95 48.25 -44.75 47.0 -45.75 44.35 -46.35 41.6 -47.25 37.65 -47.35 33.5 L-47.35 33.4 -47.3 30.6 Q-46.65 25.05 -42.1 21.85 -41.4 21.35 -41.15 20.15 -40.7 18.0 -41.5 13.8 -37.8 7.45 -33.15 5.35 -28.55 5.1 -24.5 8.3 L-24.6 5.9 -24.4 3.25 Q-24.05 0.3 -22.65 -0.7 L-18.8 -3.1 Q-15.15 -4.95 -14.2 -4.05 L-11.65 -1.4 -11.45 -1.2 -5.5 5.05 M-24.6 5.9 L-23.75 5.65 Q-23.45 2.75 -22.9 1.35 -22.3 0.15 -21.55 0.1 -18.75 1.5 -15.4 4.05 -14.1 5.0 -12.75 6.1 -5.9 12.3 -8.3 22.8 L-4.4 13.9 M-26.8 40.0 L-26.6 34.35 -26.35 30.9 -26.35 30.4 -26.25 30.0 Q-24.3 19.1 -24.5 8.3 M-26.65 48.7 Q-26.9 44.35 -26.8 40.0 M-23.75 5.65 L-15.4 4.05 M-26.3 56.3 Q-26.05 54.6 -26.35 52.9 L-26.65 48.7 M-25.6 56.5 Q-25.0 56.3 -25.45 56.3 -19.5 39.55 -8.3 22.8 M-3.9 22.85 Q-14.1 42.4 -18.95 55.15" fill="none" stroke="#000000" stroke-linecap="round" stroke-linejoin="round" stroke-width="2.0"/>
    <path d="M-26.8 40.0 Q-39.8 38.35 -47.35 33.4 M-26.65 48.7 Q-39.8 46.75 -46.35 41.6" fill="none" stroke="#000000" stroke-linecap="round" stroke-linejoin="round" stroke-width="1.4000000000000001"/>
  </g>
</svg>
