<?xml version="1.0" encoding="UTF-8" standalone="no"?>
<svg xmlns:xlink="http://www.w3.org/1999/xlink" height="152.05px" width="141.25px" xmlns="http://www.w3.org/2000/svg">
  <g transform="matrix(1.0, 0.0, 0.0, 1.0, 152.2, 77.75)">
    <path d="M-124.65 -57.2 L-122.5 -60.1 Q-111.45 -73.6 -106.15 -60.8 -94.85 -30.5 -60.0 -7.8 -43.1 3.2 -15.4 2.45 L-12.1 2.35 -11.95 -0.4 Q-38.5 -1.6 -54.5 -10.35 -91.1 -32.65 -98.5 -63.4 -104.8 -77.25 -115.45 -76.75 -121.55 -76.4 -127.05 -71.25 -134.15 -64.8 -139.15 -53.9 -156.55 -19.2 -148.85 23.8 -142.55 53.45 -144.25 65.8 L-144.45 67.05 Q-145.2 71.1 -147.05 73.0 L-147.3 73.3 Q-131.65 59.7 -136.45 44.85 -139.3 36.25 -139.5 28.55 -142.2 8.35 -140.1 -11.45 -138.55 -27.0 -134.1 -39.2 L-131.25 -46.05 -130.8 -47.0 Q-128.1 -52.4 -124.85 -56.9 M-110.55 -56.15 L-107.7 -55.65 -107.7 -55.45 -107.95 -52.15 -107.95 -51.6 Q-107.95 -45.0 -104.1 -41.8 -102.45 -40.4 -100.05 -39.7 L-99.6 -39.55 -98.05 -39.2 M-122.5 -60.1 Q-120.1 -57.55 -113.75 -56.4 L-110.9 -55.9 M-139.5 28.55 Q-136.0 46.15 -124.3 54.0 L-123.05 54.8 Q-125.45 45.9 -125.5 27.95 L-125.5 27.9 -125.75 26.1 Q-128.3 -3.4 -124.5 -32.4 L-124.2 -35.1 -123.85 -37.55 Q-131.75 -33.35 -130.8 -47.0 M-97.75 -37.8 Q-97.35 -31.35 -94.7 -27.95 L-94.5 -27.8 -94.3 -27.5 -94.0 -27.25 -93.85 -27.1 -93.65 -26.9 -93.45 -26.8 Q-91.4 -25.0 -88.6 -24.75 L-88.25 -24.7 -87.05 -24.6 -87.05 -22.25 Q-86.6 -18.2 -84.55 -16.1 -82.1 -13.65 -77.3 -13.95 L-75.4 -14.2 -75.3 -14.25 -75.05 -12.6 Q-74.15 -8.05 -71.55 -6.05 -68.9 -4.05 -64.6 -4.45 L-63.65 -4.65 -63.75 -2.8 -63.6 -2.5 Q-62.25 0.8 -59.8 2.15 -56.25 4.35 -50.4 2.25 L-48.55 1.45 -48.45 1.65 -47.5 2.85 -45.1 4.95 -44.3 5.5 Q-39.45 8.4 -32.25 5.95 L-30.7 5.4 -30.55 5.3 -29.5 6.3 Q-27.9 7.75 -25.8 8.35 L-20.1 8.5 -19.75 8.45 -19.35 8.35 -18.15 8.0 Q-16.2 7.4 -14.0 6.4 L-12.65 5.45 -12.25 5.2 -12.1 2.35 M-94.7 -27.95 L-95.8 -25.15 -96.1 -24.45 -96.15 -24.25 -98.6 -17.95 -98.65 -17.6 -98.75 -16.9 -98.05 -9.5 -97.95 -9.2 Q-95.85 -4.75 -88.75 -8.55 L-86.75 -9.75 -86.7 -9.75 -84.55 -16.1 M-113.75 -56.4 L-120.5 -39.85 Q-120.1 -31.8 -118.4 -28.3 -116.35 -24.0 -112.2 -26.5 -110.8 -27.4 -109.25 -28.9 L-109.2 -28.9 -105.3 -38.85 M-112.2 -26.5 L-112.5 -24.1 -112.55 -23.5 -112.55 -23.3 -113.2 -17.55 Q-115.15 2.9 -113.75 25.2 L-113.55 26.4 -113.55 26.65 -113.3 27.6 -113.25 27.85 Q-112.5 31.7 -111.15 34.75 L-109.8 37.3 Q-106.6 43.0 -101.0 44.4 L-101.35 24.8 Q-103.35 6.65 -102.35 -8.7 L-101.95 -13.4 -101.6 -16.6 Q-105.45 -15.3 -107.45 -17.15 -110.25 -19.8 -109.25 -28.9 M-101.35 24.8 L-101.15 26.4 -101.05 26.7 -100.9 27.1 -100.85 27.2 -100.8 27.35 -100.8 27.45 -100.75 27.6 -100.7 27.7 -100.65 27.85 -100.6 27.95 -100.55 28.1 -100.55 28.2 -100.5 28.25 -100.4 28.35 -100.35 28.45 -100.3 28.6 -100.3 28.7 -100.25 28.85 -100.2 28.9 -100.1 28.95 -100.05 29.1 Q-98.75 32.05 -97.0 34.25 L-94.85 36.5 -94.4 36.95 Q-91.4 39.55 -87.4 40.7 L-86.55 28.3 Q-89.85 13.3 -89.6 0.9 L-89.3 -3.7 -89.2 -4.7 -88.85 -7.65 -88.75 -8.55 M-86.75 -9.75 L-86.7 -9.5 -86.7 -9.3 -86.4 -6.75 -86.4 -6.55 Q-86.1 -4.25 -85.35 -2.6 L-84.75 -1.5 Q-82.35 2.4 -76.85 0.35 -75.45 -0.15 -73.9 -1.05 L-72.9 -3.1 -72.6 -3.8 -72.3 -4.45 M-98.6 -17.95 L-101.6 -16.6 M-120.5 -39.85 Q-122.35 -38.45 -123.85 -37.55 M-25.8 8.35 L-33.55 11.25 Q-34.05 13.6 -31.55 13.8 -29.5 13.85 -25.6 12.5 L-24.05 11.85 -21.55 10.65 -17.3 8.45 -14.0 6.4 M-33.55 11.25 Q-38.7 13.75 -42.15 14.0 L-42.25 16.45 -42.25 18.15 -42.0 21.25 Q-41.4 24.75 -38.65 27.05 L-38.45 27.2 -37.8 27.65 -35.15 29.1 Q-33.6 23.8 -25.6 12.5 M-61.1 5.15 L-61.65 6.2 Q-60.55 11.45 -57.85 13.25 -55.95 14.5 -53.2 14.05 L-53.1 14.05 Q-50.6 13.55 -47.55 11.6 L-46.1 8.95 -45.1 4.95 M-53.2 14.05 L-53.8 16.5 Q-54.9 21.65 -52.95 26.1 L-52.8 26.15 -49.1 29.05 Q-45.5 31.15 -42.0 30.65 -43.15 28.1 -42.0 21.25 M-42.15 14.0 L-43.65 13.9 Q-46.15 13.6 -47.55 11.6 M-73.9 -1.05 Q-74.0 3.15 -72.8 5.45 -70.55 9.75 -63.9 7.25 -62.85 6.75 -61.65 6.2 M-76.85 0.35 L-77.0 2.55 -77.2 6.75 Q-77.5 14.65 -76.35 20.95 L-76.3 21.2 -76.25 21.35 -76.2 21.5 Q-75.85 23.4 -75.1 25.05 L-73.75 27.4 Q-70.25 32.1 -62.25 33.2 L-65.0 24.0 Q-65.7 16.45 -65.0 11.5 L-64.05 7.5 -63.9 7.25 M-52.95 26.1 L-50.4 32.1 Q-57.2 31.15 -61.55 27.65 -63.55 26.1 -65.0 24.0 M-76.3 21.2 L-74.0 38.45 Q-78.6 37.65 -81.9 34.8 L-82.35 34.4 -82.5 34.25 -86.1 29.05 -86.55 28.3 M-59.8 2.15 L-61.0 4.85 M-113.55 26.65 L-111.4 49.65 -111.75 49.4 Q-123.0 42.0 -125.5 27.95" fill="none" stroke="#000000" stroke-linecap="round" stroke-linejoin="round" stroke-width="2.0"/>
  </g>
</svg>
