<?xml version="1.0" encoding="UTF-8" standalone="no"?>
<svg xmlns:xlink="http://www.w3.org/1999/xlink" height="127.0px" width="125.3px" xmlns="http://www.w3.org/2000/svg">
  <g transform="matrix(1.0, 0.0, 0.0, 1.0, 66.95, 43.6)">
    <path d="M38.1 -18.3 L38.5 -18.95 38.55 -18.9 38.1 -18.3 38.55 -18.9 38.15 -18.25 38.55 -18.9 Q40.25 -17.25 41.95 -13.65 L43.2 -11.05 43.25 -10.9 42.95 -10.5 42.85 -10.5 43.2 -11.05 42.85 -10.5 37.25 -10.75 39.75 -15.2 38.15 -18.25 38.1 -18.3 M42.2 -24.4 L43.1 -25.85 43.15 -25.85 Q45.8 -26.05 48.25 -24.8 L47.45 -23.45 48.15 -22.7 48.3 -22.45 48.0 -22.55 41.65 -23.6 42.2 -24.4 M48.05 -18.25 L48.1 -18.25 46.7 -16.25 45.0 -13.9 44.15 -16.8 Q43.35 -18.75 42.2 -20.05 L48.05 -18.25 46.7 -16.25 48.05 -18.25 M40.5 -7.0 L40.6 -7.0 38.45 -3.95 40.5 -7.0 38.45 -3.95 36.15 -5.5 34.85 -6.75 35.0 -7.2 40.5 -7.0 M-46.0 -9.25 L-46.55 -10.0 -48.25 -12.35 -48.15 -12.35 -46.55 -10.0 -48.15 -12.35 -42.1 -12.4 -41.95 -11.95 -43.45 -10.75 -46.0 -9.25 M-50.7 -15.95 L-51.05 -16.35 -49.6 -19.05 Q-47.6 -22.65 -45.7 -24.3 L-45.3 -23.6 -47.15 -20.5 -44.5 -16.05 -50.7 -15.95 M-55.55 -22.9 L-56.15 -23.75 -56.1 -23.75 -49.75 -25.5 Q-51.0 -24.15 -51.85 -22.2 L-52.9 -19.3 -55.55 -22.9 -56.1 -23.75 -55.55 -22.9 M43.15 -25.85 L41.65 -23.6 43.15 -25.85 M-56.25 -28.0 L-56.1 -28.2 -55.35 -28.95 -56.2 -30.35 Q-53.5 -31.5 -50.6 -31.25 L-49.05 -29.0 -56.25 -28.0" fill="#444536" fill-rule="evenodd" stroke="none"/>
    <path d="M44.4 -27.7 L48.1 -33.35 50.5 -36.95 Q51.95 -37.4 54.7 -36.0 L55.85 -35.15 Q57.7 -33.55 57.3 -32.15 L49.75 -20.85 48.05 -18.25 46.7 -16.25 43.2 -11.05 42.85 -10.5 40.5 -7.0 38.45 -3.95 36.15 -5.5 34.85 -6.75 Q33.5 -7.85 32.25 -9.35 L36.65 -16.0 38.15 -18.25 38.55 -18.9 41.65 -23.6 43.15 -25.85 44.4 -27.7 M38.45 -3.95 L39.7 -2.2 39.15 -1.45 37.45 0.85 35.7 3.2 35.1 3.95 33.3 2.95 31.7 5.1 33.15 6.15 9.15 34.5 8.2 35.45 Q31.85 59.7 54.55 78.3 48.5 79.45 42.7 78.1 38.95 77.2 35.3 75.25 L-0.05 43.25 -38.0 79.05 Q-41.35 80.95 -44.85 81.75 -50.15 83.05 -55.75 81.8 -32.7 62.0 -8.5 35.6 L-40.45 0.9 -38.85 -0.1 -40.5 -2.3 -42.45 -1.25 -43.05 -2.05 -44.95 -4.45 -46.7 -6.75 -47.3 -7.55 -46.0 -9.25 -46.55 -10.0 -48.15 -12.35 -50.7 -15.95 -51.05 -16.35 -55.55 -22.9 -56.1 -23.75 -57.25 -25.45 -58.65 -27.45 -65.85 -37.85 Q-66.3 -39.3 -64.2 -40.8 L-62.95 -41.65 Q-59.95 -43.0 -58.4 -42.45 L-56.15 -39.2 -50.1 -30.6 -45.7 -24.3 -45.3 -23.6 -39.15 -14.55 -36.7 -15.65 -33.95 -12.3 -31.15 -8.85 Q-31.6 -8.35 -32.2 -7.95 L-30.9 -5.9 -29.4 -7.1 -26.35 -3.35 Q-17.15 8.85 -5.45 21.05 L-0.3 26.55 0.5 25.6 Q11.6 13.6 20.2 1.65 L23.2 -2.1 24.55 -0.9 25.75 -2.9 Q25.2 -3.3 24.8 -3.85 L26.45 -5.95 27.45 -7.2 28.4 -8.45 30.0 -10.55 32.25 -9.35 M25.75 -2.9 Q28.5 -0.3 30.9 1.45 L33.3 2.95 M8.2 35.45 L5.1 32.25 -0.3 26.55 M-41.95 -11.95 L-39.15 -14.55 M-46.0 -9.25 L-43.45 -10.75 -41.95 -11.95 M-40.5 -2.3 L-37.9 -3.7 -32.2 -7.95 M-0.05 43.25 L-8.5 35.6" fill="none" stroke="#000000" stroke-linecap="round" stroke-linejoin="round" stroke-width="2.0"/>
    <path d="M38.55 -18.9 L42.2 -24.4 43.1 -25.85 44.4 -27.7 M39.15 -1.45 L37.5 0.85 35.7 3.2 M-43.05 -2.05 L-45.0 -4.45 -46.7 -6.75 M-36.7 -15.65 L-33.9 -12.35 -31.15 -8.85 M26.45 -5.95 L27.4 -7.25 28.4 -8.45 M36.65 -16.0 L38.1 -18.3 38.55 -18.9 M39.75 -15.2 L38.15 -18.25 38.1 -18.3 M39.75 -15.2 L35.0 -7.2 34.85 -6.75 M27.45 -7.2 L27.4 -7.25 M27.45 -7.2 Q30.45 -4.25 33.55 -2.0 L37.45 0.85 37.5 0.85 M43.1 -25.85 L43.15 -25.85 Q45.8 -26.05 48.25 -24.8 L51.5 -30.15 48.1 -33.35 M48.25 -24.8 L47.45 -23.45 48.15 -22.7 48.3 -22.45 49.75 -20.85 M24.55 -0.9 L23.25 1.25 Q24.95 3.4 27.8 5.35 L30.3 6.95 31.7 5.1 M-56.15 -39.2 L-55.9 -38.85 -50.6 -31.25 -50.1 -30.6 M-56.25 -28.0 L-57.9 -26.4 -57.25 -25.45 M-57.9 -26.4 L-58.65 -27.45 M-56.2 -30.35 L-59.65 -35.7 -55.9 -38.85 M-50.6 -31.25 Q-53.5 -31.5 -56.2 -30.35 L-55.35 -28.95 -56.1 -28.2 -56.25 -28.0 M-47.15 -20.5 L-42.1 -12.4 -41.95 -11.95 M-45.3 -23.6 L-47.15 -20.5 M-45.0 -4.45 L-44.95 -4.45 Q-42.8 -5.65 -40.65 -7.2 L-33.95 -12.3 -33.9 -12.35 M-38.85 -0.1 L-37.35 1.75 -34.65 0.25 Q-31.45 -1.65 -29.6 -3.8 L-30.9 -5.9" fill="none" stroke="#000000" stroke-linecap="round" stroke-linejoin="round" stroke-width="1.0"/>
  </g>
</svg>
