<?xml version="1.0" encoding="UTF-8" standalone="no"?>
<svg xmlns:xlink="http://www.w3.org/1999/xlink" height="165.35px" width="199.6px" xmlns="http://www.w3.org/2000/svg">
  <g transform="matrix(1.0, 0.0, 0.0, 1.0, 200.3, 139.95)">
    <path d="M-191.9 -137.65 L-193.05 -138.95 -195.0 -136.9 -193.5 -135.15 -197.9 -60.25 -199.3 -59.1 -197.45 -56.55 -196.6 -57.35 -99.2 -27.9 -95.9 -30.65 -114.35 -130.75 -113.05 -131.85 -115.25 -134.3 -116.5 -133.15 -191.9 -137.65 M-99.2 -27.9 Q-107.85 -25.95 -104.2 -21.55 -101.25 -16.9 -98.95 -17.75 -95.8 -19.2 -95.9 -24.15 L-94.2 -25.55 -92.55 -27.0 Q-86.75 -27.75 -86.05 -30.85 -87.0 -33.25 -88.95 -34.15 L-89.2 -35.3 Q-90.0 -36.4 -90.9 -36.95 -91.65 -37.4 -92.55 -37.3 -93.7 -37.4 -94.55 -36.0 -95.6 -34.3 -95.9 -30.65 M-94.2 -25.55 Q-87.05 -16.65 -76.5 -9.1 L-74.8 -10.6 Q-74.85 -14.3 -73.95 -16.05 -73.25 -17.55 -72.15 -17.55 L-70.45 -17.35 Q-69.55 -16.85 -68.75 -15.65 L-68.25 -14.75 Q-66.2 -13.95 -65.05 -11.65 -65.5 -8.5 -71.2 -7.25 L-72.75 -5.7 Q-64.6 -0.4 -53.9 4.6 L-52.75 2.7 Q-53.75 -0.85 -53.35 -2.8 -52.95 -4.35 -51.9 -4.7 L-50.3 -4.95 Q-49.25 -4.7 -48.15 -3.7 L-47.45 -2.95 Q-45.25 -2.7 -43.6 -0.8 -43.2 2.35 -48.35 4.95 L-49.15 6.4 Q-40.65 9.8 -29.35 12.35 L-28.9 10.95 Q-30.55 8.2 -30.7 6.45 -30.7 5.0 -29.85 4.55 -29.3 3.95 -28.55 3.9 -27.65 3.9 -26.55 4.45 L-25.7 4.95 Q-23.85 4.6 -22.05 5.9 -20.95 8.45 -24.75 11.85 L-25.1 13.3 -8.6 15.15 -8.25 13.2 Q-10.25 10.75 -10.55 9.0 -10.85 7.65 -10.05 7.05 -9.55 6.4 -8.85 6.3 -7.95 6.1 -6.75 6.6 -6.35 6.7 -5.95 6.9 -4.15 6.35 -2.15 7.35 -0.7 9.7 -3.95 13.65 L-4.4 17.4 Q-1.45 20.5 -2.65 23.25 -3.65 25.15 -8.2 23.95 -13.1 23.35 -8.75 17.0 L-8.8 16.75 -8.6 15.15 M-72.75 -5.7 L-74.25 -4.1 Q-73.75 0.85 -76.8 2.5 -79.0 3.55 -82.3 -0.85 -86.35 -4.85 -77.95 -7.55 L-76.5 -9.1 M-25.1 13.3 L-25.6 15.5 Q-23.15 19.0 -24.7 21.65 L-30.3 21.5 Q-35.05 20.2 -29.95 14.55 L-29.8 14.35 -29.35 12.35 M-49.15 6.4 L-50.55 8.9 Q-48.8 13.55 -51.25 15.9 -53.1 17.5 -57.4 14.1 -62.4 11.25 -54.95 6.45 L-54.8 6.25 -53.9 4.6" fill="none" stroke="#000000" stroke-linecap="round" stroke-linejoin="round" stroke-width="2.0"/>
    <path d="M-193.5 -135.15 L-158.45 -95.55 -197.9 -60.25 M-196.6 -57.35 L-156.35 -93.2 -99.2 -27.9 M-95.9 -30.65 L-154.15 -95.2 -114.35 -130.75 M-116.5 -133.15 L-156.25 -97.55 -191.9 -137.65 Z" fill="none" stroke="#000000" stroke-linecap="round" stroke-linejoin="round" stroke-width="1.0"/>
  </g>
</svg>
