<?xml version="1.0" encoding="UTF-8" standalone="no"?>
<svg xmlns:xlink="http://www.w3.org/1999/xlink" height="102.0px" width="136.45px" xmlns="http://www.w3.org/2000/svg">
  <g transform="matrix(1.0, 0.0, 0.0, 1.0, 142.4, 43.05)">
    <path d="M-78.95 -42.05 Q-77.25 -11.85 -59.2 11.95 -60.1 4.6 -54.45 2.2 -48.3 0.7 -42.2 6.2 -34.55 13.35 -38.45 18.45 -40.2 21.55 -46.7 19.95 -43.9 23.9 -36.2 26.45 -35.3 21.2 -31.2 19.2 -25.7 18.0 -24.45 22.95 -24.0 26.25 -29.45 28.7 -25.25 30.25 -18.2 29.95 -19.8 23.85 -6.95 21.2 L-13.1 19.15 Q-31.45 11.75 -30.7 -4.8 L-78.95 -42.05 M-19.9 45.75 L-30.65 53.75 Q-28.3 46.45 -32.15 42.25 -37.15 38.45 -41.15 45.5 -43.25 52.35 -39.15 56.5 -46.2 58.55 -58.9 57.75 -47.65 52.6 -50.9 45.0 -53.6 39.85 -64.65 39.25 -76.55 38.3 -79.9 46.5 -81.05 51.75 -76.65 57.0 -113.9 47.1 -141.4 16.75 L-113.05 18.45 Q-83.95 19.55 -58.65 17.75 -45.7 37.75 -13.15 29.0 -19.25 33.7 -20.35 39.0 -21.1 42.25 -19.9 45.75" fill="none" stroke="#000000" stroke-linecap="round" stroke-linejoin="round" stroke-width="2.0"/>
  </g>
</svg>
