<?xml version="1.0" encoding="UTF-8" standalone="no"?>
<svg xmlns:xlink="http://www.w3.org/1999/xlink" height="158.6px" width="164.15px" xmlns="http://www.w3.org/2000/svg">
  <g transform="matrix(1.0, 0.0, 0.0, 1.0, 108.6, 54.7)">
    <path d="M-63.25 2.3 L-63.75 2.3 -83.55 36.85 -83.9 37.25 -62.85 56.65 -49.65 32.6 -45.55 25.05 35.0 102.9 Q55.8 90.05 54.45 65.5 14.65 31.55 -25.5 1.8 L2.3 -37.85 Q-7.15 -45.65 -16.85 -51.0 -20.15 -53.1 -23.15 -53.6 L-49.65 -16.2 -55.1 -21.2 -85.0 -48.65 Q-93.4 -39.85 -99.2 -30.85 L-63.75 2.25 -63.75 2.3 -73.75 1.45 Q-83.55 19.35 -96.7 35.8 L-83.55 36.85 M-86.6 -34.3 L-74.95 -34.05 -73.8 -28.4 -50.25 -8.15 -37.5 -8.4 -24.35 -26.45 -26.75 -34.8 -13.95 -40.1 -13.15 -25.85 -19.55 -24.4 -33.8 -4.0 -30.4 8.0 Q3.2 43.1 32.25 64.1 L43.3 65.3 45.4 84.9 27.5 83.95 23.8 70.95 -34.3 13.0 -47.65 12.1 -61.35 32.75 -60.8 38.15 -70.2 44.9 -72.3 32.35 -66.75 29.55 -50.6 6.4 -54.05 -4.45 -76.0 -23.2 -82.1 -21.8 -86.6 -34.3 M-73.75 1.45 Q-92.75 -14.4 -107.6 -29.1 -103.75 -39.75 -91.95 -47.95 L-85.0 -48.65 M-99.2 -30.85 L-103.85 -29.85 -103.9 -29.85 -107.6 -29.1 M-55.1 -21.2 Q-42.1 -38.55 -36.6 -50.55 L-26.7 -53.55 Q-25.0 -53.8 -23.15 -53.6 M-62.85 56.65 L-64.7 59.85 -68.65 60.25 -96.7 35.8 M35.0 102.9 L29.25 102.5 25.1 101.6 20.75 100.2 -49.65 32.6" fill="none" stroke="#000000" stroke-linecap="round" stroke-linejoin="round" stroke-width="2.0"/>
  </g>
</svg>
