<?xml version="1.0" encoding="UTF-8" standalone="no"?>
<svg xmlns:xlink="http://www.w3.org/1999/xlink" height="96.3px" width="89.35px" xmlns="http://www.w3.org/2000/svg">
  <g transform="matrix(1.0, 0.0, 0.0, 1.0, 50.65, 58.35)">
    <path d="M-38.15 -56.85 L26.2 -56.85 Q37.2 -56.85 37.2 -45.95 L37.2 25.55 Q37.2 36.45 26.2 36.45 L-38.15 36.45 Q-49.15 36.45 -49.15 25.55 L-49.15 -45.95 Q-49.15 -56.85 -38.15 -56.85 Z" fill="none" stroke="#ffffff" stroke-linecap="round" stroke-linejoin="round" stroke-opacity="0.5686275" stroke-width="3.0"/>
    <path d="M37.2 17.65 L37.2 25.55 Q37.2 36.45 26.2 36.45 L-38.15 36.45 Q-49.15 36.45 -49.15 25.55 L-49.15 17.65 37.2 17.65" fill="#444677" fill-opacity="0.9098039" fill-rule="evenodd" stroke="none"/>
    <path d="M-49.15 17.65 L-49.15 -45.95 Q-49.15 -56.85 -38.15 -56.85 L26.2 -56.85 Q37.2 -56.85 37.2 -45.95 L37.2 17.65 -49.15 17.65" fill="url(#gradient0)" fill-rule="evenodd" stroke="none"/>
    <path d="M-49.15 17.65 L37.2 17.65" fill="none" stroke="#3b3277" stroke-linecap="round" stroke-linejoin="round" stroke-opacity="0.5686275" stroke-width="2.0"/>
    <path d="M-49.15 17.65 L-49.15 -45.95 Q-49.15 -56.85 -38.15 -56.85 L26.2 -56.85 Q37.2 -56.85 37.2 -45.95 L37.2 17.65 37.2 25.55 Q37.2 36.45 26.2 36.45 L-38.15 36.45 Q-49.15 36.45 -49.15 25.55 L-49.15 17.65 Z" fill="none" stroke="#3b3277" stroke-linecap="round" stroke-linejoin="round" stroke-opacity="0.5686275" stroke-width="1.5"/>
  </g>
  <defs>
    <linearGradient gradientTransform="matrix(0.0, -0.0424, 0.0527, 0.0, -6.0, -19.7)" gradientUnits="userSpaceOnUse" id="gradient0" spreadMethod="pad" x1="-819.2" x2="819.2">
      <stop offset="0.0" stop-color="#bec2e7"/>
      <stop offset="0.9882352941176471" stop-color="#b0bbf7"/>
    </linearGradient>
  </defs>
</svg>
