<?xml version="1.0" encoding="UTF-8" standalone="no"?>
<svg xmlns:xlink="http://www.w3.org/1999/xlink" height="50.35px" width="218.15px" xmlns="http://www.w3.org/2000/svg">
  <g transform="matrix(1.0, 0.0, 0.0, 1.0, 109.05, 25.15)">
    <path d="M90.75 -22.15 L2.5 -22.15 2.5 22.2 90.75 22.2 Q97.1 22.2 101.6 17.7 106.1 13.2 106.1 6.85 L106.1 -6.8 Q106.1 -13.15 101.6 -17.65 97.1 -22.15 90.75 -22.15 M0.0 -24.65 L90.75 -24.65 Q98.15 -24.65 103.35 -19.45 108.6 -14.2 108.6 -6.8 L108.6 6.85 Q108.6 14.25 103.35 19.45 98.15 24.7 90.75 24.7 L0.0 24.7 0.0 -24.65" fill="#a49dd2" fill-rule="evenodd" stroke="none"/>
    <path d="M90.75 -22.15 Q97.1 -22.15 101.6 -17.65 106.1 -13.15 106.1 -6.8 L106.1 6.85 Q106.1 13.2 101.6 17.7 97.1 22.2 90.75 22.2 L2.5 22.2 2.5 -22.15 90.75 -22.15" fill="url(#gradient0)" fill-rule="evenodd" stroke="none"/>
    <path d="M0.0 24.7 L-90.7 24.7 Q-98.1 24.7 -103.35 19.45 -108.55 14.25 -108.55 6.85 L-108.55 -6.8 Q-108.55 -14.2 -103.35 -19.45 -98.1 -24.65 -90.7 -24.65 L0.0 -24.65 0.0 24.7 M-90.7 -22.15 Q-97.05 -22.15 -101.55 -17.7 L-101.6 -17.65 Q-106.05 -13.15 -106.05 -6.8 L-106.05 6.85 Q-106.05 13.2 -101.55 17.7 -97.05 22.2 -90.7 22.2 L-2.5 22.2 -2.5 -22.15 -90.7 -22.15" fill="#c6beff" fill-rule="evenodd" stroke="none"/>
    <path d="M-90.7 -22.15 L-2.5 -22.15 -2.5 22.2 -90.7 22.2 Q-97.05 22.2 -101.55 17.7 -106.05 13.2 -106.05 6.85 L-106.05 -6.8 Q-106.05 -13.15 -101.6 -17.65 L-101.55 -17.7 Q-97.05 -22.15 -90.7 -22.15" fill="url(#gradient1)" fill-rule="evenodd" stroke="none"/>
    <path d="M0.0 -24.65 L90.75 -24.65 Q98.15 -24.65 103.35 -19.45 108.6 -14.2 108.6 -6.8 L108.6 6.85 Q108.6 14.25 103.35 19.45 98.15 24.7 90.75 24.7 L0.0 24.7" fill="none" stroke="#000000" stroke-linecap="round" stroke-linejoin="round" stroke-opacity="0.7372549" stroke-width="1.0"/>
    <path d="M0.0 24.7 L-90.7 24.7 Q-98.1 24.7 -103.35 19.45 -108.55 14.25 -108.55 6.85 L-108.55 -6.8 Q-108.55 -14.2 -103.35 -19.45 -98.1 -24.65 -90.7 -24.65 L0.0 -24.65 0.0 24.7" fill="none" stroke="#ffffff" stroke-linecap="round" stroke-linejoin="round" stroke-opacity="0.7372549" stroke-width="1.0"/>
  </g>
  <defs>
    <linearGradient gradientTransform="matrix(0.0, -0.0262, 0.0632, 0.0, 54.3, -0.1)" gradientUnits="userSpaceOnUse" id="gradient0" spreadMethod="pad" x1="-819.2" x2="819.2">
      <stop offset="0.0" stop-color="#dbe1ff"/>
      <stop offset="1.0" stop-color="#d3c9ff"/>
    </linearGradient>
    <linearGradient gradientTransform="matrix(0.0, -0.0271, 0.0632, 0.0, -54.3, 0.05)" gradientUnits="userSpaceOnUse" id="gradient1" spreadMethod="pad" x1="-819.2" x2="819.2">
      <stop offset="0.0" stop-color="#7a7cb4"/>
      <stop offset="1.0" stop-color="#75659c"/>
    </linearGradient>
  </defs>
</svg>
