<?xml version="1.0" encoding="UTF-8" standalone="no"?>
<svg xmlns:xlink="http://www.w3.org/1999/xlink" height="50.05px" width="59.5px" xmlns="http://www.w3.org/2000/svg">
  <g transform="matrix(1.0, 0.0, 0.0, 1.0, 29.7, 26.55)">
    <path d="M18.95 22.75 L29.05 22.75 Q27.8 20.85 27.55 9.95 29.85 -6.95 21.3 -16.65 12.75 -26.4 0.15 -25.75 L0.05 -25.75 -0.05 -25.75 Q-12.65 -26.4 -21.2 -16.65 -29.75 -6.95 -27.45 9.95 -27.7 20.85 -28.95 22.75 L-18.85 22.75 -4.05 22.75 Q-6.9 18.75 -12.15 17.3 L-14.95 16.75 M18.95 22.75 L4.15 22.75 Q7.45 18.8 14.25 16.95 L10.35 17.1 Q14.55 14.75 15.85 4.35 16.65 -1.85 13.65 -6.25 13.65 -3.4 10.95 -1.65 L10.9 -1.65 Q8.55 -5.2 7.45 -8.55 L7.0 -10.05 7.0 -9.8 Q6.1 -4.0 0.55 0.15 L0.05 0.5 Q-6.05 -3.85 -6.9 -10.05 -7.9 -6.0 -10.8 -1.65 -13.55 -3.4 -13.55 -6.25 -16.55 -1.85 -15.75 4.35 -14.45 14.75 -10.25 17.1 L-12.15 17.3 M15.05 16.75 L14.25 16.95" fill="none" stroke="#000000" stroke-linecap="round" stroke-linejoin="round" stroke-width="1.5"/>
    <path d="M-18.85 22.75 L-18.85 19.15 M18.95 22.75 L18.95 19.15 M15.05 16.75 Q20.35 15.3 22.15 9.15 M-14.95 16.75 Q-20.25 15.3 -22.05 9.15" fill="none" stroke="#000000" stroke-linecap="round" stroke-linejoin="round" stroke-width="1.0"/>
    <path d="M8.5 3.35 Q8.5 4.15 7.75 4.7 7.05 5.3 6.05 5.3 5.05 5.3 4.3 4.7 3.6 4.15 3.6 3.35 3.6 2.55 4.3 1.95 5.05 1.4 6.05 1.4 7.05 1.4 7.75 1.95 8.5 2.55 8.5 3.35 M-8.1 3.35 Q-8.1 4.15 -8.85 4.7 -9.55 5.3 -10.55 5.3 -11.55 5.3 -12.3 4.7 -13.0 4.15 -13.0 3.35 -13.0 2.55 -12.3 1.95 -11.55 1.4 -10.55 1.4 -9.55 1.4 -8.85 1.95 -8.1 2.55 -8.1 3.35" fill="#ffffff" fill-rule="evenodd" stroke="none"/>
  </g>
</svg>
