<?xml version="1.0" encoding="UTF-8" standalone="no"?>
<svg xmlns:xlink="http://www.w3.org/1999/xlink" height="133.25px" width="134.8px" xmlns="http://www.w3.org/2000/svg">
  <g transform="matrix(1.0, 0.0, 0.0, 1.0, 75.45, 19.25)">
    <path d="M-35.3 96.05 Q-35.8 71.05 -28.6 35.8 -20.1 10.35 -9.55 -0.9 4.2 -11.25 18.2 1.1 33.05 28.5 36.15 91.5 L36.5 95.4 Q24.4 92.3 12.3 91.5 L9.35 82.95 5.7 91.5 Q-13.85 89.9 -34.15 99.1 L-35.2 99.5 -35.3 96.05" fill="#000000" fill-opacity="0.32941177" fill-rule="evenodd" stroke="none"/>
    <path d="M22.15 -10.3 L27.7 2.4 27.75 2.55 27.75 2.6 Q36.45 30.65 38.75 56.2 51.5 56.85 53.55 50.55 46.05 36.15 41.2 22.0 L31.8 -1.1 Q23.15 -18.3 6.0 -18.25 -12.85 -18.2 -22.35 -6.35 L-36.65 21.4 -37.8 23.85 Q-41.0 30.2 -43.2 36.55 -47.75 49.0 -49.0 61.65 L-49.3 65.6 -48.7 69.95 -48.45 72.1 -48.1 74.35 -47.95 75.85 -51.05 76.3 Q-52.1 80.65 -51.95 82.45 -49.8 88.35 -45.45 91.6 L-45.3 91.7 Q-42.55 93.65 -38.85 95.2 L-35.3 96.05 Q-35.8 71.05 -28.6 35.8 -20.1 10.35 -9.55 -0.9 4.2 -11.25 18.2 1.1 33.05 28.5 36.15 91.5 L37.7 90.8 Q44.7 87.35 46.0 80.95 45.55 78.25 41.55 67.15 38.95 66.8 39.3 65.0 L39.25 63.3 39.25 62.8 38.75 56.2 M27.75 2.6 L27.7 2.4 M36.15 91.5 L36.5 95.4 Q36.75 102.25 34.25 109.45 52.05 100.55 50.35 90.9 L46.0 80.95 M36.5 95.4 Q24.4 92.3 12.3 91.5 L9.35 82.95 5.7 91.5 Q-13.85 89.9 -34.15 99.1 L-35.2 99.5 Q-34.95 106.7 -33.95 113.0 -41.7 111.05 -47.75 105.8 -53.8 100.55 -54.45 92.85 -51.7 85.4 -51.95 82.45 M41.55 67.15 L41.7 67.15 44.7 67.3 Q52.15 67.3 57.0 62.9 59.3 61.5 57.7 58.2 L57.0 56.9 53.55 50.55 M-51.05 76.3 L-57.15 77.0 Q-67.2 78.35 -73.85 72.45 -74.7 70.85 -74.3 69.1 -73.85 66.95 -71.8 63.65 L-67.35 57.0 Q-62.4 49.25 -57.8 41.2 -51.2 29.6 -47.75 20.55 -44.95 13.35 -40.5 7.85 -34.35 0.1 -25.1 -4.25 L-22.35 -6.35 M-74.3 69.1 Q-66.75 68.0 -59.35 69.85 -53.75 71.25 -48.15 74.35 L-48.1 74.35 M-67.35 57.0 Q-58.55 55.05 -49.0 61.65 M-35.3 96.05 L-35.2 99.5" fill="none" stroke="#000000" stroke-linecap="round" stroke-linejoin="round" stroke-width="2.0"/>
  </g>
</svg>
