<?xml version="1.0" encoding="UTF-8" standalone="no"?>
<svg xmlns:xlink="http://www.w3.org/1999/xlink" height="47.55px" width="55.4px" xmlns="http://www.w3.org/2000/svg">
  <g transform="matrix(1.0, 0.0, 0.0, 1.0, 28.05, 27.2)">
    <path d="M-11.35 -22.1 L-12.2 -22.6 Q-24.0 -18.25 -25.5 -13.75 L-23.4 -12.95 Q-28.5 -3.1 -26.95 7.65 L-24.85 3.3 Q-23.75 14.9 -11.8 19.6 -17.15 15.3 -17.4 6.75 -16.4 3.0 -14.5 -1.5 -15.05 -5.05 -11.5 -8.75 -11.95 -4.6 -8.75 -1.8 L-5.75 -9.4 Q-3.45 -4.25 -0.35 -1.5 2.75 -4.25 5.05 -9.4 L8.05 -1.8 Q11.25 -4.6 10.8 -8.75 14.35 -5.05 13.8 -1.5 15.7 3.0 16.7 6.75 16.45 15.3 11.1 19.6 23.05 14.9 24.15 3.3 L26.25 7.65 Q27.8 -3.1 22.7 -12.95 L24.8 -13.75 Q23.3 -18.25 11.5 -22.6 L10.65 -22.1 M11.5 -22.6 Q14.35 -24.55 14.8 -26.45 8.9 -26.7 -0.35 -23.8 -9.6 -26.7 -15.5 -26.45 -15.05 -24.55 -12.2 -22.6" fill="none" stroke="#000000" stroke-linecap="round" stroke-linejoin="round" stroke-width="1.5"/>
    <path d="M7.45 4.15 Q7.45 4.95 6.8 5.45 6.2 6.05 5.35 6.05 4.5 6.05 3.85 5.45 3.25 4.95 3.25 4.15 3.25 3.4 3.85 2.85 4.5 2.3 5.35 2.3 6.2 2.3 6.8 2.85 7.45 3.4 7.45 4.15 M-9.1 4.15 Q-9.1 4.95 -9.75 5.45 -10.35 6.05 -11.25 6.05 -12.1 6.05 -12.75 5.45 -13.35 4.95 -13.35 4.15 -13.35 3.4 -12.75 2.85 -12.1 2.3 -11.25 2.3 -10.35 2.3 -9.75 2.85 -9.1 3.4 -9.1 4.15" fill="#ffffff" fill-rule="evenodd" stroke="none"/>
  </g>
</svg>
