<?xml version="1.0" encoding="UTF-8" standalone="no"?>
<svg xmlns:xlink="http://www.w3.org/1999/xlink" height="95.95px" width="89.05px" xmlns="http://www.w3.org/2000/svg">
  <g transform="matrix(1.0, 0.0, 0.0, 1.0, 44.55, 38.15)">
    <path d="M-32.2 -37.15 L32.15 -37.15 Q43.5 -37.15 43.5 -25.8 L43.5 45.45 Q43.5 56.8 32.15 56.8 L-32.2 56.8 Q-43.55 56.8 -43.55 45.45 L-43.55 -25.8 Q-43.55 -37.15 -32.2 -37.15" fill="#ffffff" fill-opacity="0.14901961" fill-rule="evenodd" stroke="none"/>
    <path d="M-32.2 -37.15 L32.15 -37.15 Q43.5 -37.15 43.5 -25.8 L43.5 45.45 Q43.5 56.8 32.15 56.8 L-32.2 56.8 Q-43.55 56.8 -43.55 45.45 L-43.55 -25.8 Q-43.55 -37.15 -32.2 -37.15 Z" fill="none" stroke="#ffffff" stroke-linecap="round" stroke-linejoin="round" stroke-opacity="0.85882354" stroke-width="2.0"/>
  </g>
</svg>
