<?xml version="1.0" encoding="UTF-8" standalone="no"?>
<svg xmlns:xlink="http://www.w3.org/1999/xlink" height="384.0px" width="231.35px" xmlns="http://www.w3.org/2000/svg">
  <g transform="matrix(1.0, 0.0, 0.0, 1.0, -106.15, 100.15)">
    <path d="M150.95 283.35 L106.65 283.35 106.65 -99.65 150.95 -99.65 150.95 -96.15 110.15 -96.15 110.15 279.85 150.95 279.85 150.95 283.35" fill="url(#gradient0)" fill-rule="evenodd" stroke="none"/>
    <path d="M150.95 279.85 L110.15 279.85 110.15 -96.15 150.95 -96.15 150.95 279.85" fill="url(#gradient1)" fill-rule="evenodd" stroke="none"/>
    <path d="M150.95 -99.65 L337.0 -99.65 337.0 283.35 150.95 283.35 150.95 279.85 333.5 279.85 333.5 -96.15 150.95 -96.15 150.95 -99.65" fill="url(#gradient2)" fill-rule="evenodd" stroke="none"/>
    <path d="M150.95 -96.15 L333.5 -96.15 333.5 279.85 150.95 279.85 150.95 -96.15" fill="url(#gradient3)" fill-rule="evenodd" stroke="none"/>
    <path d="M150.95 283.35 L106.65 283.35 106.65 -99.65 150.95 -99.65 337.0 -99.65 337.0 283.35 150.95 283.35 Z" fill="none" stroke="#ffffff" stroke-linecap="round" stroke-linejoin="round" stroke-opacity="0.61960787" stroke-width="1.0"/>
  </g>
  <defs>
    <linearGradient gradientTransform="matrix(0.0, -0.2249, 0.2333, 0.0, 297.8, 92.8)" gradientUnits="userSpaceOnUse" id="gradient0" spreadMethod="pad" x1="-819.2" x2="819.2">
      <stop offset="0.0" stop-color="#665685" stop-opacity="0.84705883"/>
      <stop offset="1.0" stop-color="#484b8e" stop-opacity="0.84705883"/>
    </linearGradient>
    <linearGradient gradientTransform="matrix(0.0, -0.2229, 0.2291, 0.0, 297.8, 91.85)" gradientUnits="userSpaceOnUse" id="gradient1" spreadMethod="pad" x1="-819.2" x2="819.2">
      <stop offset="0.0" stop-color="#4c3f74" stop-opacity="0.84705883"/>
      <stop offset="1.0" stop-color="#313362" stop-opacity="0.84705883"/>
    </linearGradient>
    <linearGradient gradientTransform="matrix(0.0, -0.2249, 0.2333, 0.0, 145.85, 92.8)" gradientUnits="userSpaceOnUse" id="gradient2" spreadMethod="pad" x1="-819.2" x2="819.2">
      <stop offset="0.0" stop-color="#665685" stop-opacity="0.84705883"/>
      <stop offset="1.0" stop-color="#484b8e" stop-opacity="0.84705883"/>
    </linearGradient>
    <linearGradient gradientTransform="matrix(0.0, -0.2229, 0.2291, 0.0, 145.85, 91.85)" gradientUnits="userSpaceOnUse" id="gradient3" spreadMethod="pad" x1="-819.2" x2="819.2">
      <stop offset="0.0" stop-color="#4c3f74" stop-opacity="0.84705883"/>
      <stop offset="1.0" stop-color="#313362" stop-opacity="0.84705883"/>
    </linearGradient>
  </defs>
</svg>
