<?xml version="1.0" encoding="UTF-8" standalone="no"?>
<svg xmlns:xlink="http://www.w3.org/1999/xlink" height="50.25px" width="87.4px" xmlns="http://www.w3.org/2000/svg">
  <g transform="matrix(1.0, 0.0, 0.0, 1.0, 43.8, 22.45)">
    <path d="M-32.15 -21.45 L31.95 -21.45 Q42.6 -21.45 42.6 -10.8 L42.6 16.15 Q42.6 26.8 31.95 26.8 L-32.15 26.8 Q-42.8 26.8 -42.8 16.15 L-42.8 -10.8 Q-42.8 -21.45 -32.15 -21.45" fill="url(#gradient0)" fill-rule="evenodd" stroke="none"/>
    <path d="M-32.15 -21.45 L31.95 -21.45 Q42.6 -21.45 42.6 -10.8 L42.6 16.15 Q42.6 26.8 31.95 26.8 L-32.15 26.8 Q-42.8 26.8 -42.8 16.15 L-42.8 -10.8 Q-42.8 -21.45 -32.15 -21.45 Z" fill="none" stroke="#29195b" stroke-linecap="round" stroke-linejoin="round" stroke-opacity="0.40784314" stroke-width="2.0"/>
    <path d="M10.45 14.2 Q10.85 14.8 10.85 15.45 10.85 16.15 10.35 16.7 9.9 17.2 9.15 17.2 8.25 17.2 7.75 16.5 L0.0 5.85 -8.2 16.7 Q-8.75 17.2 -9.5 17.2 -10.25 17.2 -10.75 16.7 -11.2 16.2 -11.2 15.5 -11.2 14.8 -10.75 14.2 L-2.45 3.15 -10.25 -7.7 Q-10.65 -8.15 -10.65 -8.8 L-10.2 -10.1 Q-9.75 -10.65 -8.9 -10.65 -7.95 -10.65 -7.6 -10.1 L0.05 0.55 8.05 -10.1 Q8.55 -10.65 9.3 -10.65 10.1 -10.65 10.55 -10.1 10.95 -9.65 10.95 -8.85 L10.6 -7.7 2.45 3.15 10.45 14.2" fill="#1d1e3a" fill-opacity="0.80784315" fill-rule="evenodd" stroke="none"/>
    <path d="M10.45 14.2 Q10.85 14.8 10.85 15.45 10.85 16.15 10.35 16.7 9.9 17.2 9.15 17.2 8.25 17.2 7.75 16.5 L0.0 5.85 -8.2 16.7 Q-8.75 17.2 -9.5 17.2 -10.25 17.2 -10.75 16.7 -11.2 16.2 -11.2 15.5 -11.2 14.8 -10.75 14.2 L-2.45 3.15 -10.25 -7.7 Q-10.65 -8.15 -10.65 -8.8 L-10.2 -10.1 Q-9.75 -10.65 -8.9 -10.65 -7.95 -10.65 -7.6 -10.1 L0.05 0.55 8.05 -10.1 Q8.55 -10.65 9.3 -10.65 10.1 -10.65 10.55 -10.1 10.95 -9.65 10.95 -8.85 L10.6 -7.7 2.45 3.15 10.45 14.2 Z" fill="none" stroke="#d4dbff" stroke-linecap="round" stroke-linejoin="round" stroke-opacity="0.5764706" stroke-width="4.0"/>
    <path d="M10.45 14.2 Q10.85 14.8 10.85 15.45 10.85 16.15 10.35 16.7 9.9 17.2 9.15 17.2 8.25 17.2 7.75 16.5 L0.0 5.85 -8.2 16.7 Q-8.75 17.2 -9.5 17.2 -10.25 17.2 -10.75 16.7 -11.2 16.2 -11.2 15.5 -11.2 14.8 -10.75 14.2 L-2.45 3.15 -10.25 -7.7 Q-10.65 -8.15 -10.65 -8.8 L-10.2 -10.1 Q-9.75 -10.65 -8.9 -10.65 -7.95 -10.65 -7.6 -10.1 L0.05 0.55 8.05 -10.1 Q8.55 -10.65 9.3 -10.65 10.1 -10.65 10.55 -10.1 10.95 -9.65 10.95 -8.85 L10.6 -7.7 2.45 3.15 10.45 14.2" fill="#2e2b54" fill-rule="evenodd" stroke="none"/>
  </g>
  <defs>
    <linearGradient gradientTransform="matrix(0.0, 0.0264, -0.0521, 0.0, -0.1, 2.8)" gradientUnits="userSpaceOnUse" id="gradient0" spreadMethod="pad" x1="-819.2" x2="819.2">
      <stop offset="0.0" stop-color="#a6a2dc"/>
      <stop offset="1.0" stop-color="#a7b3f7"/>
    </linearGradient>
  </defs>
</svg>
