<?xml version="1.0" encoding="UTF-8" standalone="no"?>
<svg xmlns:xlink="http://www.w3.org/1999/xlink" height="96.45px" width="91.5px" xmlns="http://www.w3.org/2000/svg">
  <g transform="matrix(1.0, 0.0, 0.0, 1.0, 45.75, 48.55)">
    <path d="M-43.75 23.5 L-43.75 -35.55 Q-43.75 -46.55 -32.75 -46.55 L32.75 -46.55 Q43.75 -46.55 43.75 -35.55 L43.75 23.5 43.75 34.9 Q43.75 45.9 32.75 45.9 L-32.75 45.9 Q-43.75 45.9 -43.75 34.9 L-43.75 23.5 43.75 23.5" fill="none" stroke="#ffffff" stroke-linecap="round" stroke-linejoin="round" stroke-opacity="0.5686275" stroke-width="4.0"/>
    <path d="M43.75 23.5 L43.75 34.9 Q43.75 45.9 32.75 45.9 L-32.75 45.9 Q-43.75 45.9 -43.75 34.9 L-43.75 23.5 43.75 23.5" fill="#444677" fill-opacity="0.9098039" fill-rule="evenodd" stroke="none"/>
    <path d="M-43.75 23.5 L-43.75 -35.55 Q-43.75 -46.55 -32.75 -46.55 L32.75 -46.55 Q43.75 -46.55 43.75 -35.55 L43.75 23.5 -43.75 23.5" fill="url(#gradient0)" fill-rule="evenodd" stroke="none"/>
    <path d="M-43.75 23.5 L-43.75 -35.55 Q-43.75 -46.55 -32.75 -46.55 L32.75 -46.55 Q43.75 -46.55 43.75 -35.55 L43.75 23.5 43.75 34.9 Q43.75 45.9 32.75 45.9 L-32.75 45.9 Q-43.75 45.9 -43.75 34.9 L-43.75 23.5 43.75 23.5" fill="none" stroke="#3b3277" stroke-linecap="round" stroke-linejoin="round" stroke-opacity="0.5686275" stroke-width="2.0"/>
  </g>
  <defs>
    <linearGradient gradientTransform="matrix(0.0, -0.0394, 0.0534, 0.0, 0.0, -12.7)" gradientUnits="userSpaceOnUse" id="gradient0" spreadMethod="pad" x1="-819.2" x2="819.2">
      <stop offset="0.0" stop-color="#e0e6f7"/>
      <stop offset="1.0" stop-color="#c8ccf7"/>
    </linearGradient>
  </defs>
</svg>
