<?xml version="1.0" encoding="UTF-8" standalone="no"?>
<svg xmlns:xlink="http://www.w3.org/1999/xlink" height="38.15px" width="69.1px" xmlns="http://www.w3.org/2000/svg">
  <g transform="matrix(1.0, 0.0, 0.0, 1.0, 34.55, 21.6)">
    <path d="M8.3 -9.45 Q8.3 -13.8 10.55 -16.85 7.3 -16.05 4.85 -14.55 4.8 -15.2 5.45 -16.5 9.9 -21.8 18.05 -21.6 26.2 -21.4 34.55 -14.8 32.75 -10.2 24.75 -3.7 28.45 -10.25 28.25 -13.85 24.85 -16.15 21.2 -17.15 L21.4 -16.9 Q23.65 -13.8 23.65 -9.5 23.65 -5.1 21.4 -2.0 19.15 1.1 15.95 1.1 12.85 1.1 10.55 -2.0 8.3 -5.1 8.3 -9.45 M12.15 -3.9 Q13.75 -1.75 15.9 -1.7 18.05 -1.75 19.7 -3.9 21.35 -6.15 21.35 -9.5 21.35 -12.7 19.7 -15.0 L19.65 -15.05 Q18.6 -16.4 17.4 -16.9 L14.15 -16.75 Q13.05 -16.25 12.15 -15.05 10.5 -12.7 10.5 -9.45 10.5 -6.15 12.15 -3.9 M-8.3 -9.45 Q-8.3 -5.1 -10.55 -2.0 -12.85 1.1 -15.95 1.1 -19.15 1.1 -21.4 -2.0 -23.65 -5.1 -23.65 -9.5 -23.65 -13.8 -21.4 -16.9 L-21.2 -17.15 Q-24.85 -16.15 -28.25 -13.85 -28.45 -10.25 -24.75 -3.7 -32.75 -10.2 -34.55 -14.8 -26.2 -21.4 -18.05 -21.6 -9.9 -21.8 -5.45 -16.5 -4.8 -15.2 -4.85 -14.55 -7.3 -16.05 -10.55 -16.85 -8.3 -13.8 -8.3 -9.45 M-10.5 -9.45 Q-10.5 -12.7 -12.15 -15.05 -13.05 -16.25 -14.1 -16.75 L-17.4 -16.9 Q-18.6 -16.4 -19.65 -15.05 L-19.65 -15.0 Q-21.35 -12.7 -21.35 -9.5 -21.35 -6.15 -19.65 -3.9 -18.05 -1.75 -15.9 -1.7 -13.75 -1.75 -12.1 -3.9 -10.5 -6.15 -10.5 -9.45" fill="#000000" fill-rule="evenodd" stroke="none"/>
    <path d="M7.8 8.9 L7.45 10.3 7.1 11.15 6.95 11.55 Q5.15 15.1 0.75 15.05 -4.35 15.0 -6.15 11.55 L-6.35 11.1 -6.65 10.25 -7.0 8.9" fill="none" stroke="#000000" stroke-linecap="round" stroke-linejoin="round" stroke-width="3.0"/>
  </g>
</svg>
