<?xml version="1.0" encoding="UTF-8" standalone="no"?>
<svg xmlns:xlink="http://www.w3.org/1999/xlink" height="360.5px" width="285.6px" xmlns="http://www.w3.org/2000/svg">
  <g transform="matrix(1.0, 0.0, 0.0, 1.0, 143.85, 288.0)">
    <path d="M-70.25 -222.8 L-70.3 -222.8 -69.65 -223.2 -70.25 -222.8 M-121.8 -141.95 L-121.8 -142.0 -121.8 -141.95 -122.1 -142.45 -121.8 -142.0 -121.45 -141.45 -121.8 -141.95" fill="#47936f" fill-rule="evenodd" stroke="none"/>
    <path d="M-70.85 -222.4 L-70.3 -222.8 -70.25 -222.8 -70.85 -222.4" fill="#66d29f" fill-rule="evenodd" stroke="none"/>
    <path d="M-69.65 -223.2 L-63.45 -227.3 -113.8 -242.3 Q-112.9 -246.6 -111.6 -250.65 -107.8 -263.65 -101.45 -278.3 -92.25 -275.95 -83.2 -273.2 L-63.75 -267.6 Q-53.35 -264.7 -25.7 -256.2 L17.95 -287.0 22.45 -281.3 25.7 -277.2 Q33.7 -267.45 42.65 -257.5 L50.2 -249.25 33.25 -237.3 108.5 -212.0 113.1 -210.35 137.05 -202.1 140.75 -200.85 Q135.85 -179.95 128.55 -159.05 L126.7 -159.75 Q131.45 -140.7 132.25 -122.05 134.25 -72.35 107.8 -25.55 L107.8 -25.7 107.9 -25.9 107.9 -26.75 Q104.65 -10.0 98.05 5.2 82.15 34.9 15.1 67.2 M-7.05 -250.35 L19.45 -241.8 22.45 -240.9 33.25 -237.3 M113.8 -164.85 L95.7 -171.95 Q103.7 -146.85 107.1 -122.05 109.4 -104.15 109.4 -86.3 117.2 -103.0 118.6 -122.05 119.85 -142.1 113.8 -164.85 L126.7 -159.75 M13.0 19.4 L30.6 1.85 Q50.55 -59.7 59.85 -122.05 62.7 -141.25 64.6 -160.6 L65.75 -173.75 66.45 -183.1 Q33.25 -195.5 0.4 -206.65 L2.25 -173.75 2.85 -160.6 3.9 -122.05 Q4.8 -55.75 0.4 10.4 M95.7 -171.95 L66.45 -183.1 Q76.1 -153.25 79.8 -122.05 84.0 -86.15 80.4 -48.45 L87.0 -55.15 Q100.25 -68.3 109.4 -83.95 L109.15 -85.8 109.4 -86.3 109.4 -83.95 Q111.95 -61.8 108.25 -29.3 L108.25 -28.1 107.9 -25.9 M107.9 -26.75 L108.0 -27.1 108.0 -27.65 Q89.9 15.65 44.3 37.25 40.15 45.3 13.85 57.35 M108.0 -27.1 L108.25 -28.1 108.0 -27.65 108.25 -29.3 M-25.7 -256.2 L-7.05 -250.35 M-43.35 -220.95 L-63.45 -227.3 M-70.85 -222.4 L-70.25 -222.8 -69.65 -223.2 M-121.45 -141.45 L-121.35 -141.3 -118.45 -136.65 -90.95 -154.65 -53.9 -178.9 -53.35 -179.25 -7.5 -209.3 -43.35 -220.95 M-53.9 -178.9 Q-53.35 -151.65 -49.85 -122.05 -42.65 -60.15 -17.35 11.15 M-17.7 71.5 Q-126.35 37.6 -137.6 -25.0 -144.2 -81.3 -136.8 -122.05 -133.9 -138.5 -128.55 -152.45 L-129.2 -153.5 -129.85 -154.55 -135.7 -163.7 -135.85 -163.95 -142.85 -174.95 -70.85 -222.4 M-121.8 -141.95 L-123.45 -122.05 Q-131.8 23.3 -24.75 48.15 M-121.8 -142.0 L-121.8 -141.95 M-121.45 -141.45 L-121.8 -142.0 -122.1 -142.45 -128.55 -152.45 M-20.3 25.7 Q-85.95 -15.95 -90.5 -122.05 -91.2 -137.6 -90.95 -154.65 M-118.45 -136.65 L-106.1 -65.5 Q-94.9 -1.75 -22.75 41.0 M15.15 44.3 L44.3 37.25 Q68.45 -4.9 80.4 -48.45 L30.6 1.85 Q27.55 11.0 15.0 37.6 M0.4 -206.65 L-7.5 -209.3" fill="none" stroke="#000000" stroke-linecap="round" stroke-linejoin="round" stroke-width="2.0"/>
    <path d="M34.95 -223.35 L118.45 -195.6 M-7.05 -250.35 L20.9 -266.95 M-43.35 -220.95 L-88.0 -195.25 M-119.9 -147.45 L-23.5 -207.0 M-103.9 -248.75 L32.3 -209.25" fill="none" stroke="#000000" stroke-linecap="round" stroke-linejoin="round" stroke-width="1.0"/>
  </g>
</svg>
