<?xml version="1.0" encoding="UTF-8" standalone="no"?>
<svg xmlns:xlink="http://www.w3.org/1999/xlink" height="73.7px" width="71.5px" xmlns="http://www.w3.org/2000/svg">
  <g transform="matrix(1.0, 0.0, 0.0, 1.0, 35.75, 46.6)">
    <path d="M-35.0 5.85 L-35.0 -37.25 Q-35.0 -45.85 -26.2 -45.85 L26.2 -45.85 Q35.0 -45.85 35.0 -37.25 L35.0 5.85 35.0 17.75 Q35.0 26.35 26.2 26.35 L-26.2 26.35 Q-35.0 26.35 -35.0 17.75 L-35.0 5.85 35.0 5.85" fill="none" stroke="#ffffff" stroke-linecap="round" stroke-linejoin="round" stroke-opacity="0.5686275" stroke-width="1.5"/>
    <path d="M35.0 5.85 L35.0 17.75 Q35.0 26.35 26.2 26.35 L-26.2 26.35 Q-35.0 26.35 -35.0 17.75 L-35.0 5.85 35.0 5.85" fill="#444677" fill-opacity="0.9098039" fill-rule="evenodd" stroke="none"/>
    <path d="M-35.0 5.85 L-35.0 -37.25 Q-35.0 -45.85 -26.2 -45.85 L26.2 -45.85 Q35.0 -45.85 35.0 -37.25 L35.0 5.85 -35.0 5.85" fill="url(#gradient0)" fill-rule="evenodd" stroke="none"/>
    <path d="M-35.0 5.85 L-35.0 -37.25 Q-35.0 -45.85 -26.2 -45.85 L26.2 -45.85 Q35.0 -45.85 35.0 -37.25 L35.0 5.85 35.0 17.75 Q35.0 26.35 26.2 26.35 L-26.2 26.35 Q-35.0 26.35 -35.0 17.75 L-35.0 5.85 35.0 5.85" fill="none" stroke="#3b3277" stroke-linecap="round" stroke-linejoin="round" stroke-opacity="0.6666667" stroke-width="1.5"/>
  </g>
  <defs>
    <linearGradient gradientTransform="matrix(0.0, -0.0307, 0.0427, 0.0, 0.0, -19.4)" gradientUnits="userSpaceOnUse" id="gradient0" spreadMethod="pad" x1="-819.2" x2="819.2">
      <stop offset="0.0" stop-color="#e0e6f7"/>
      <stop offset="1.0" stop-color="#c8ccf7"/>
    </linearGradient>
  </defs>
</svg>
