<?xml version="1.0" encoding="UTF-8" standalone="no"?>
<svg xmlns:xlink="http://www.w3.org/1999/xlink" height="74.2px" width="71.4px" xmlns="http://www.w3.org/2000/svg">
  <g transform="matrix(1.0, 0.0, 0.0, 1.0, 35.9, 37.15)">
    <path d="M-34.9 27.45 L-34.9 -27.55 Q-34.9 -36.15 -26.15 -36.15 L25.75 -36.15 Q34.5 -36.15 34.5 -27.55 L34.5 27.45 Q34.5 36.05 25.75 36.05 L-26.15 36.05 Q-34.9 36.05 -34.9 27.45" fill="#ffffff" fill-opacity="0.2" fill-rule="evenodd" stroke="none"/>
    <path d="M-34.9 27.45 L-34.9 -27.55 Q-34.9 -36.15 -26.15 -36.15 L25.75 -36.15 Q34.5 -36.15 34.5 -27.55 L34.5 27.45 Q34.5 36.05 25.75 36.05 L-26.15 36.05 Q-34.9 36.05 -34.9 27.45 Z" fill="none" stroke="#ffffff" stroke-linecap="round" stroke-linejoin="round" stroke-opacity="0.5686275" stroke-width="2.0"/>
  </g>
</svg>
