<?xml version="1.0" encoding="UTF-8" standalone="no"?>
<svg xmlns:xlink="http://www.w3.org/1999/xlink" height="83.75px" width="476.75px" xmlns="http://www.w3.org/2000/svg">
  <g transform="matrix(1.0, 0.0, 0.0, 1.0, 238.25, 49.75)">
    <path d="M-222.8 -49.25 L223.05 -49.25 Q238.0 -49.25 238.0 -34.3 L238.0 18.55 Q238.0 33.5 223.05 33.5 L-222.8 33.5 Q-237.75 33.5 -237.75 18.55 L-237.75 -34.3 Q-237.75 -49.25 -222.8 -49.25" fill="url(#gradient0)" fill-rule="evenodd" stroke="none"/>
    <path d="M-222.8 -49.25 L223.05 -49.25 Q238.0 -49.25 238.0 -34.3 L238.0 18.55 Q238.0 33.5 223.05 33.5 L-222.8 33.5 Q-237.75 33.5 -237.75 18.55 L-237.75 -34.3 Q-237.75 -49.25 -222.8 -49.25 Z" fill="none" stroke="#ffffff" stroke-linecap="round" stroke-linejoin="round" stroke-opacity="0.7490196" stroke-width="1.0"/>
    <path d="M6.45 -4.1 L98.1 -4.1 Q103.05 -4.1 106.55 -0.6 110.1 2.95 110.1 7.9 L110.1 17.4 Q110.1 22.35 106.55 25.85 103.05 29.4 98.1 29.4 L6.45 29.4 Q1.5 29.4 -2.05 25.85 -5.55 22.35 -5.55 17.4 L-5.55 7.9 Q-5.55 2.95 -2.05 -0.6 1.5 -4.1 6.45 -4.1 M123.85 -4.1 L222.4 -4.1 Q227.35 -4.1 230.85 -0.6 234.4 2.95 234.4 7.9 L234.4 17.4 Q234.4 22.35 230.85 25.85 227.35 29.4 222.4 29.4 L123.85 29.4 Q118.9 29.4 115.35 25.85 111.85 22.35 111.85 17.4 L111.85 7.9 Q111.85 2.95 115.35 -0.6 118.9 -4.1 123.85 -4.1 M-221.9 -4.1 L-106.55 -4.1 Q-101.6 -4.1 -98.1 -0.6 -94.55 2.95 -94.55 7.9 L-94.55 17.4 Q-94.55 22.35 -98.1 25.85 -101.6 29.4 -106.55 29.4 L-221.9 29.4 Q-226.85 29.4 -230.4 25.85 -233.9 22.35 -233.9 17.4 L-233.9 7.9 Q-233.9 2.95 -230.4 -0.6 -226.85 -4.1 -221.9 -4.1 M-80.15 -4.1 L-19.4 -4.1 Q-14.45 -4.1 -10.95 -0.6 -7.4 2.95 -7.4 7.9 L-7.4 17.4 Q-7.4 22.35 -10.95 25.85 -14.45 29.4 -19.4 29.4 L-80.15 29.4 Q-85.1 29.4 -88.65 25.85 -92.15 22.35 -92.15 17.4 L-92.15 7.9 Q-92.15 2.95 -88.65 -0.6 -85.1 -4.1 -80.15 -4.1" fill="#171948" fill-opacity="0.40784314" fill-rule="evenodd" stroke="none"/>
  </g>
  <defs>
    <linearGradient gradientTransform="matrix(0.0, 0.0453, -0.2904, 0.0, 0.1, -7.75)" gradientUnits="userSpaceOnUse" id="gradient0" spreadMethod="pad" x1="-819.2" x2="819.2">
      <stop offset="0.0" stop-color="#7c7ac2" stop-opacity="0.9490196"/>
      <stop offset="1.0" stop-color="#718abd" stop-opacity="0.9490196"/>
    </linearGradient>
  </defs>
</svg>
