<?xml version="1.0" encoding="UTF-8" standalone="no"?>
<svg xmlns:xlink="http://www.w3.org/1999/xlink" height="42.4px" width="55.65px" xmlns="http://www.w3.org/2000/svg">
  <g transform="matrix(1.0, 0.0, 0.0, 1.0, 28.05, 21.0)">
    <path d="M-22.25 -21.0 L21.5 -21.0 27.6 -8.5 -0.25 21.4 -28.05 -8.5 -22.25 -21.0" fill="#000000" fill-rule="evenodd" stroke="none"/>
    <path d="M-21.05 -20.05 L20.35 -20.05 26.1 -8.6 -0.25 19.65 -26.5 -8.6 -21.05 -20.05" fill="url(#gradient0)" fill-rule="evenodd" stroke="none"/>
    <path d="M15.45 -19.25 L-0.55 -18.55 -0.5 -9.9 14.45 -8.65 -0.5 -8.65 -0.35 17.7 -2.5 -8.65 -2.5 -18.5 -13.3 -18.05 -20.25 -17.8 -23.65 -8.65 -0.95 17.0 -25.6 -8.65 -20.35 -19.35 19.0 -19.35 15.45 -19.25" fill="#ffffff" fill-rule="evenodd" stroke="none"/>
    <path d="M15.45 -19.0 L15.45 -19.25 19.0 -19.35 19.5 -19.35 25.0 -8.65 18.05 -8.65 15.45 -19.0 M-13.3 -18.0 L-13.3 -18.05 -2.5 -18.5 -2.5 -8.65 -15.25 -10.25 -13.3 -18.0 M-23.65 -8.65 L-18.3 -8.65 -0.35 17.7 -0.5 -8.65 14.45 -8.65 -0.35 17.7 -0.95 17.0 -23.65 -8.65" fill="url(#gradient1)" fill-rule="evenodd" stroke="none"/>
    <path d="M15.45 -19.25 L15.45 -19.0 14.45 -8.65 -0.5 -9.9 -0.55 -18.55 15.45 -19.25 M18.05 -8.65 L25.0 -8.65 -0.35 17.7 -15.8 -8.65 -2.5 -8.65 -0.35 17.7 18.05 -8.65" fill="url(#gradient2)" fill-rule="evenodd" stroke="none"/>
    <path d="M-13.3 -18.05 L-13.3 -18.0 -18.3 -8.65 -23.65 -8.65 -20.25 -17.8 -13.3 -18.05" fill="url(#gradient3)" fill-rule="evenodd" stroke="none"/>
    <path d="M14.45 -8.65 L15.45 -19.0 18.05 -8.65 -0.35 17.7 -18.3 -8.65 -13.3 -18.0 -15.25 -10.25 -2.5 -8.65 -15.8 -8.65 -0.35 17.7 14.45 -8.65" fill="#ffffff" fill-opacity="0.50980395" fill-rule="evenodd" stroke="none"/>
    <path d="M25.0 -8.65 L19.5 -19.35 19.0 -19.35 -20.35 -19.35 -25.6 -8.65 -0.95 17.0 -23.65 -8.65 M25.0 -8.65 L-0.35 17.7" fill="none" stroke="#ffffff" stroke-linecap="round" stroke-linejoin="round" stroke-opacity="0.8117647" stroke-width="0.05"/>
    <path d="M-21.05 -20.05 L20.35 -20.05 26.1 -8.6 -0.25 19.65 -26.5 -8.6 -21.05 -20.05 Z" fill="none" stroke="#000000" stroke-linecap="round" stroke-linejoin="round" stroke-width="1.0"/>
  </g>
  <defs>
    <linearGradient gradientTransform="matrix(-0.0032, -0.0172, 0.031, -0.0058, 0.85, -3.3)" gradientUnits="userSpaceOnUse" id="gradient0" spreadMethod="pad" x1="-819.2" x2="819.2">
      <stop offset="0.0" stop-color="#ee7381"/>
      <stop offset="0.2901960784313726" stop-color="#c87ee2"/>
      <stop offset="0.6470588235294118" stop-color="#7bc0de"/>
      <stop offset="1.0" stop-color="#ffffff"/>
    </linearGradient>
    <linearGradient gradientTransform="matrix(-0.0098, -0.0199, 0.023, -0.016, 0.0, -7.85)" gradientUnits="userSpaceOnUse" id="gradient1" spreadMethod="pad" x1="-819.2" x2="819.2">
      <stop offset="0.023529411764705882" stop-color="#9edef5" stop-opacity="0.32156864"/>
      <stop offset="0.45098039215686275" stop-color="#78acbf" stop-opacity="0.36862746"/>
      <stop offset="0.9921568627450981" stop-color="#7ee0cd" stop-opacity="0.2784314"/>
    </linearGradient>
    <linearGradient gradientTransform="matrix(-0.0098, -0.0199, 0.023, -0.016, 0.0, -7.85)" gradientUnits="userSpaceOnUse" id="gradient2" spreadMethod="pad" x1="-819.2" x2="819.2">
      <stop offset="0.00784313725490196" stop-color="#fbfaff" stop-opacity="0.3019608"/>
      <stop offset="0.44313725490196076" stop-color="#ffffff" stop-opacity="0.43137255"/>
      <stop offset="1.0" stop-color="#ffffff" stop-opacity="0.81960785"/>
    </linearGradient>
    <linearGradient gradientTransform="matrix(-0.0098, -0.0199, 0.023, -0.016, 0.0, -7.85)" gradientUnits="userSpaceOnUse" id="gradient3" spreadMethod="pad" x1="-819.2" x2="819.2">
      <stop offset="0.00784313725490196" stop-color="#fbfaff" stop-opacity="0.3019608"/>
      <stop offset="0.44313725490196076" stop-color="#ffffff" stop-opacity="0.43137255"/>
      <stop offset="1.0" stop-color="#ffffff" stop-opacity="0.5686275"/>
    </linearGradient>
  </defs>
</svg>
