<?xml version="1.0" encoding="UTF-8" standalone="no"?>
<svg xmlns:xlink="http://www.w3.org/1999/xlink" height="45.45px" width="252.4px" xmlns="http://www.w3.org/2000/svg">
  <g transform="matrix(1.0, 0.0, 0.0, 1.0, 88.05, 19.2)">
    <path d="M-33.75 -18.5 L15.8 -18.5 Q24.1 -18.5 24.1 -10.65 L24.1 17.85 Q24.1 25.75 15.8 25.75 L-33.75 25.75 Q-42.0 25.75 -42.0 17.85 L-42.0 -10.65 Q-42.0 -18.5 -33.75 -18.5 M-39.35 -11.3 L-39.35 17.15 Q-39.3 22.3 -33.75 22.3 L15.8 22.3 Q21.35 22.3 21.4 17.15 L21.4 -11.3 Q21.35 -16.4 15.8 -16.4 L-33.75 -16.4 Q-39.3 -16.4 -39.35 -11.3 M36.05 -18.5 L85.75 -18.5 Q94.0 -18.5 94.0 -10.65 L94.0 17.85 Q94.0 25.75 85.75 25.75 L36.05 25.75 Q27.8 25.75 27.8 17.85 L27.8 -10.65 Q27.8 -18.5 36.05 -18.5 M85.75 -16.4 L36.05 -16.4 Q30.65 -16.4 30.6 -11.3 L30.6 17.15 Q30.65 22.3 36.05 22.3 L85.75 22.3 Q91.15 22.3 91.2 17.15 L91.2 -11.3 Q91.15 -16.4 85.75 -16.4 M106.0 -18.5 L155.55 -18.5 Q163.85 -18.5 163.85 -10.65 L163.85 17.85 Q163.85 25.75 155.55 25.75 L106.0 25.75 Q97.75 25.75 97.75 17.85 L97.75 -10.65 Q97.75 -18.5 106.0 -18.5 M100.4 -11.3 L100.4 17.15 Q100.45 22.3 106.0 22.3 L155.55 22.3 Q161.1 22.3 161.15 17.15 L161.15 -11.3 Q161.1 -16.4 155.55 -16.4 L106.0 -16.4 Q100.45 -16.4 100.4 -11.3 M-79.3 -18.7 L-53.9 -18.7 Q-45.6 -18.7 -45.6 -10.85 L-45.6 17.65 Q-45.6 25.55 -53.9 25.55 L-79.3 25.55 Q-87.55 25.55 -87.55 17.65 L-87.55 -10.85 Q-87.55 -18.7 -79.3 -18.7 M-53.9 -16.6 L-79.3 -16.6 Q-84.75 -16.6 -84.8 -11.5 L-84.8 16.95 Q-84.75 22.1 -79.3 22.1 L-53.9 22.1 Q-48.45 22.1 -48.4 16.95 L-48.4 -11.5 Q-48.45 -16.6 -53.9 -16.6" fill="#afb1ec" fill-opacity="0.827451" fill-rule="evenodd" stroke="none"/>
    <path d="M-39.35 -11.3 Q-39.3 -16.4 -33.75 -16.4 L15.8 -16.4 Q21.35 -16.4 21.4 -11.3 L21.4 17.15 Q21.35 22.3 15.8 22.3 L-33.75 22.3 Q-39.3 22.3 -39.35 17.15 L-39.35 -11.3 M85.75 -16.4 Q91.15 -16.4 91.2 -11.3 L91.2 17.15 Q91.15 22.3 85.75 22.3 L36.05 22.3 Q30.65 22.3 30.6 17.15 L30.6 -11.3 Q30.65 -16.4 36.05 -16.4 L85.75 -16.4 M100.4 -11.3 Q100.45 -16.4 106.0 -16.4 L155.55 -16.4 Q161.1 -16.4 161.15 -11.3 L161.15 17.15 Q161.1 22.3 155.55 22.3 L106.0 22.3 Q100.45 22.3 100.4 17.15 L100.4 -11.3 M-53.9 -16.6 Q-48.45 -16.6 -48.4 -11.5 L-48.4 16.95 Q-48.45 22.1 -53.9 22.1 L-79.3 22.1 Q-84.75 22.1 -84.8 16.95 L-84.8 -11.5 Q-84.75 -16.6 -79.3 -16.6 L-53.9 -16.6" fill="#dedbff" fill-opacity="0.8980392" fill-rule="evenodd" stroke="none"/>
    <path d="M-33.75 -18.5 L15.8 -18.5 Q24.1 -18.5 24.1 -10.65 L24.1 17.85 Q24.1 25.75 15.8 25.75 L-33.75 25.75 Q-42.0 25.75 -42.0 17.85 L-42.0 -10.65 Q-42.0 -18.5 -33.75 -18.5 M36.05 -18.5 L85.75 -18.5 Q94.0 -18.5 94.0 -10.65 L94.0 17.85 Q94.0 25.75 85.75 25.75 L36.05 25.75 Q27.8 25.75 27.8 17.85 L27.8 -10.65 Q27.8 -18.5 36.05 -18.5 M106.0 -18.5 L155.55 -18.5 Q163.85 -18.5 163.85 -10.65 L163.85 17.85 Q163.85 25.75 155.55 25.75 L106.0 25.75 Q97.75 25.75 97.75 17.85 L97.75 -10.65 Q97.75 -18.5 106.0 -18.5 M-79.3 -18.7 L-53.9 -18.7 Q-45.6 -18.7 -45.6 -10.85 L-45.6 17.65 Q-45.6 25.55 -53.9 25.55 L-79.3 25.55 Q-87.55 25.55 -87.55 17.65 L-87.55 -10.85 Q-87.55 -18.7 -79.3 -18.7" fill="none" stroke="#182a43" stroke-linecap="round" stroke-linejoin="round" stroke-opacity="0.54901963" stroke-width="1.0"/>
    <path d="M-3.3 -4.1 Q-2.3 -5.1 -0.85 -5.1 0.6 -5.1 1.65 -4.1 2.65 -3.05 2.65 -1.6 2.65 -0.15 1.65 0.9 0.6 2.0 -0.85 2.0 -2.3 2.0 -3.3 0.9 -4.35 -0.15 -4.35 -1.6 -4.35 -3.05 -3.3 -4.1 M66.7 10.2 L66.65 10.3 67.7 9.35 Q70.6 6.3 70.6 2.1 70.6 -2.2 67.7 -5.1 64.6 -8.1 60.4 -8.1 56.1 -8.1 53.1 -5.1 50.2 -2.2 50.2 2.1 50.2 6.3 53.1 9.35 56.1 12.35 60.4 12.35 64.0 12.35 66.7 10.2 M60.4 15.15 Q55.0 15.15 51.1 11.3 47.35 7.5 47.35 2.1 47.35 -3.3 51.1 -7.15 55.0 -11.0 60.4 -11.0 65.75 -11.0 69.65 -7.15 73.45 -3.3 73.45 2.1 73.45 7.5 69.65 11.3 L69.6 11.35 72.9 14.9 Q73.3 15.25 73.3 15.95 73.3 16.5 72.9 16.85 72.4 17.3 71.9 17.3 71.25 17.3 70.9 16.8 L67.45 13.3 Q64.2 15.15 60.4 15.15 M66.85 3.75 L61.95 3.75 61.95 8.95 58.5 8.95 58.5 3.75 53.6 3.75 53.6 0.25 58.5 0.25 58.5 -4.9 61.95 -4.9 61.95 0.25 66.85 0.25 66.85 3.75 M127.15 -1.5 Q128.75 -3.0 131.05 -3.0 133.45 -3.0 135.05 -1.5 136.65 0.15 136.65 2.45 136.65 4.8 135.05 6.4 133.45 8.0 131.05 8.0 128.75 8.0 127.15 6.4 125.5 4.8 125.5 2.45 125.5 0.15 127.15 -1.5 M-59.4 -1.75 L-58.45 -1.45 Q-58.05 -1.1 -58.2 -0.5 -58.2 0.0 -58.6 0.35 L-59.75 0.6 -61.65 0.6 -62.25 4.5 -60.5 4.5 Q-59.85 4.5 -59.55 4.8 -59.25 5.05 -59.25 5.65 L-59.7 6.5 Q-60.1 6.85 -60.75 6.85 L-62.8 6.85 -63.7 12.15 Q-63.8 12.85 -64.2 13.1 -64.6 13.55 -65.25 13.55 -65.8 13.55 -66.0 13.15 L-66.0 13.1 -66.3 12.35 -66.3 12.05 -65.45 6.85 -69.75 6.85 -70.55 12.15 Q-70.65 12.8 -71.1 13.1 -71.55 13.55 -72.05 13.55 -72.55 13.55 -72.8 13.2 -73.25 13.0 -73.25 12.35 L-73.25 12.05 -72.3 6.85 -74.2 6.85 -75.1 6.65 -75.45 5.8 Q-75.45 5.15 -75.0 4.85 -74.6 4.5 -73.85 4.5 L-71.75 4.5 -71.1 0.6 -73.2 0.6 -74.05 0.35 -74.35 -0.4 Q-74.35 -1.05 -73.95 -1.4 L-72.7 -1.75 -70.5 -1.75 -69.6 -6.7 Q-69.3 -8.1 -68.15 -8.1 -67.55 -8.1 -67.3 -7.8 -66.95 -7.4 -66.95 -6.9 L-67.05 -6.6 -67.95 -1.75 -63.65 -1.75 -62.8 -6.7 -62.25 -7.75 -61.3 -8.1 Q-60.7 -8.1 -60.45 -7.8 -60.1 -7.5 -60.1 -6.95 L-60.15 -6.6 -61.0 -1.75 -59.4 -1.75 M-22.5 4.85 Q-14.55 1.55 -7.45 4.3 -1.05 6.95 4.65 4.85 L4.65 12.15 -22.5 12.15 -22.5 4.85 M-64.9 4.5 L-64.15 0.6 -68.45 0.6 -69.1 4.5 -64.9 4.5 M-23.75 -7.05 L-23.75 13.25 6.1 13.25 6.1 -7.05 -23.75 -7.05 M112.45 2.45 Q120.85 -5.9 130.7 -6.55 140.95 -6.65 149.75 2.45 141.95 10.9 131.05 11.6 119.75 10.6 112.45 2.45 M145.6 2.45 Q139.45 -3.3 131.05 -3.85 122.75 -3.0 116.65 2.45 122.75 8.25 131.5 8.7 138.45 8.7 145.6 2.45 M129.0 0.45 Q128.2 1.35 128.2 2.45 128.2 3.75 129.0 4.5 129.95 5.3 131.05 5.3 132.2 5.3 133.1 4.5 133.95 3.75 133.95 2.45 133.95 1.35 133.1 0.45 132.2 -0.4 131.05 -0.4 129.95 -0.4 129.0 0.45 M-25.8 -9.55 L8.15 -9.55 8.15 15.55 -25.8 15.55 -25.8 -9.55" fill="#443c5d" fill-opacity="0.80784315" fill-rule="evenodd" stroke="none"/>
  </g>
</svg>
