<?xml version="1.0" encoding="UTF-8" standalone="no"?>
<svg xmlns:xlink="http://www.w3.org/1999/xlink" height="58.0px" width="67.65px" xmlns="http://www.w3.org/2000/svg">
  <g transform="matrix(1.0, 0.0, 0.0, 1.0, 33.8, 29.0)">
    <path d="M25.55 -26.5 Q30.65 -26.5 30.7 -21.75 L30.7 20.45 Q30.65 25.25 25.55 25.25 L-25.55 25.25 Q-30.6 25.25 -30.65 20.45 L-30.65 -21.75 Q-30.6 -26.5 -25.55 -26.5 L25.55 -26.5" fill="#6b6295" fill-opacity="0.8980392" fill-rule="evenodd" stroke="none"/>
    <path d="M-25.55 -28.5 L25.55 -28.5 Q33.35 -28.5 33.35 -21.15 L33.35 21.1 Q33.35 24.55 31.65 26.45 30.55 27.55 28.8 28.1 L25.55 28.5 -25.55 28.5 -28.8 28.1 Q-30.55 27.55 -31.55 26.45 -33.3 24.55 -33.3 21.1 L-33.3 -21.15 Q-33.3 -28.5 -25.55 -28.5 M25.55 -26.5 L-25.55 -26.5 Q-30.6 -26.5 -30.65 -21.75 L-30.65 20.45 Q-30.6 25.25 -25.55 25.25 L25.55 25.25 Q30.65 25.25 30.7 20.45 L30.7 -21.75 Q30.65 -26.5 25.55 -26.5" fill="#b3b1ff" fill-opacity="0.827451" fill-rule="evenodd" stroke="none"/>
    <path d="M-25.55 -28.5 L25.55 -28.5 Q33.35 -28.5 33.35 -21.15 L33.35 21.1 Q33.35 24.55 31.65 26.45 30.55 27.55 28.8 28.1 L25.55 28.5 -25.55 28.5 -28.8 28.1 Q-30.55 27.55 -31.55 26.45 -33.3 24.55 -33.3 21.1 L-33.3 -21.15 Q-33.3 -28.5 -25.55 -28.5 Z" fill="none" stroke="#182a43" stroke-linecap="round" stroke-linejoin="round" stroke-opacity="0.54901963" stroke-width="1.0"/>
  </g>
</svg>
