<?xml version="1.0" encoding="UTF-8" standalone="no"?>
<svg xmlns:xlink="http://www.w3.org/1999/xlink" height="42.8px" width="31.2px" xmlns="http://www.w3.org/2000/svg">
  <g transform="matrix(1.0, 0.0, 0.0, 1.0, 15.6, 27.2)">
    <path d="M11.5 -15.6 Q15.6 -15.6 15.6 -11.45 L15.6 -0.85 0.85 -0.85 0.85 -15.6 11.5 -15.6 M15.6 11.5 Q15.6 15.6 11.5 15.6 L0.85 15.6 0.85 0.85 15.6 0.85 15.6 11.5 M-11.5 -15.6 L-0.85 -15.6 -0.85 -0.85 -15.6 -0.85 -15.6 -11.45 Q-15.6 -15.6 -11.5 -15.6 M-11.5 15.6 Q-15.6 15.6 -15.6 11.5 L-15.6 0.85 -0.85 0.85 -0.85 15.6 -11.5 15.6" fill="#dbdefa" fill-rule="evenodd" stroke="none"/>
    <path d="M0.0 -24.35 L3.1 -27.2 6.6 -22.9 0.0 -16.9 -6.6 -22.9 -3.1 -27.2 0.0 -24.35" fill="#dbdefa" fill-rule="evenodd" stroke="none"/>
  </g>
</svg>
