<?xml version="1.0" encoding="UTF-8" standalone="no"?>
<svg xmlns:xlink="http://www.w3.org/1999/xlink" height="67.55px" width="49.25px" xmlns="http://www.w3.org/2000/svg">
  <g transform="matrix(1.0, 0.0, 0.0, 1.0, 20.85, 31.85)">
    <path d="M-17.6 26.1 L-17.6 -23.0 Q-17.6 -29.1 -11.5 -29.1 L25.15 -29.1 25.15 31.95 -11.5 31.95 Q-17.45 31.95 -17.6 26.1" fill="#dedbff" fill-opacity="0.8980392" fill-rule="evenodd" stroke="none"/>
    <path d="M25.15 31.95 L25.15 -29.1 -11.5 -29.1 Q-17.6 -29.1 -17.6 -23.0 L-17.6 26.1 -17.6 26.35 Q-17.6 32.45 -11.5 32.45 L25.15 32.45 25.15 31.95 M27.65 34.95 L-11.5 34.95 Q-20.1 34.95 -20.1 26.35 L-20.1 -22.5 Q-20.1 -31.1 -11.5 -31.1 L27.65 -31.1 27.65 34.95" fill="#afb1ec" fill-opacity="0.827451" fill-rule="evenodd" stroke="none"/>
    <path d="M27.65 34.95 L-11.5 34.95 Q-20.1 34.95 -20.1 26.35 L-20.1 -22.5 Q-20.1 -31.1 -11.5 -31.1 L27.65 -31.1 27.65 34.95 Z" fill="none" stroke="#182a43" stroke-linecap="round" stroke-linejoin="round" stroke-opacity="0.54901963" stroke-width="1.5"/>
    <path d="M10.8 1.75 L11.25 2.35 11.25 2.45 11.25 3.05 11.25 3.15 10.9 3.7 10.85 3.75 0.7 13.05 0.65 13.05 -0.35 13.4 -1.3 13.05 -1.35 13.0 -1.7 12.05 Q-1.7 11.45 -1.2 11.05 L7.9 2.7 -1.25 -6.2 Q-1.7 -6.65 -1.7 -7.25 -1.7 -7.75 -1.3 -8.2 -0.9 -8.6 -0.3 -8.6 0.25 -8.6 0.7 -8.2 L10.8 1.75 M-2.6 0.7 Q-1.85 1.4 -1.85 2.45 -1.85 3.5 -2.6 4.25 L-2.6 4.2 Q-3.3 4.95 -4.35 4.95 -5.35 4.95 -6.1 4.25 L-6.1 4.2 Q-6.85 3.5 -6.85 2.45 -6.85 1.4 -6.1 0.7 L-6.05 0.7 Q-5.35 0.0 -4.35 0.0 -3.3 0.0 -2.6 0.7" fill="#4a4c82" fill-opacity="0.7882353" fill-rule="evenodd" stroke="none"/>
  </g>
</svg>
