<?xml version="1.0" encoding="UTF-8" standalone="no"?>
<svg xmlns:xlink="http://www.w3.org/1999/xlink" height="75.55px" width="53.05px" xmlns="http://www.w3.org/2000/svg">
  <g transform="matrix(1.0, 0.0, 0.0, 1.0, 20.85, 39.85)">
    <path d="M-17.6 -31.05 Q-17.6 -37.15 -11.5 -37.15 L22.85 -37.15 Q28.95 -37.15 28.95 -31.05 L28.95 25.8 Q28.95 31.9 22.85 31.9 L-11.5 31.9 Q-17.6 31.9 -17.6 25.8 L-17.6 -31.05" fill="#dedbff" fill-opacity="0.8980392" fill-rule="evenodd" stroke="none"/>
    <path d="M-17.6 -31.05 L-17.6 25.8 Q-17.6 31.9 -11.5 31.9 L22.85 31.9 Q28.95 31.9 28.95 25.8 L28.95 -31.05 Q28.95 -37.15 22.85 -37.15 L-11.5 -37.15 Q-17.6 -37.15 -17.6 -31.05 M-11.5 34.95 Q-20.1 34.95 -20.1 26.35 L-20.1 -30.5 Q-20.1 -39.1 -11.5 -39.1 L22.85 -39.1 Q31.45 -39.1 31.45 -30.5 L31.45 26.35 Q31.45 34.95 22.85 34.95 L-11.5 34.95" fill="#afb1ec" fill-opacity="0.827451" fill-rule="evenodd" stroke="none"/>
    <path d="M-11.5 34.95 Q-20.1 34.95 -20.1 26.35 L-20.1 -30.5 Q-20.1 -39.1 -11.5 -39.1 L22.85 -39.1 Q31.45 -39.1 31.45 -30.5 L31.45 26.35 Q31.45 34.95 22.85 34.95 L-11.5 34.95 Z" fill="none" stroke="#182a43" stroke-linecap="round" stroke-linejoin="round" stroke-opacity="0.54901963" stroke-width="1.5"/>
    <path d="M-5.2 -16.0 L-3.85 -16.5 Q-3.1 -16.5 -2.6 -16.0 L-2.55 -16.0 Q-2.0 -15.45 -2.0 -14.65 -2.0 -13.9 -2.55 -13.35 L-2.55 -13.3 Q-3.1 -12.8 -3.85 -12.8 -4.65 -12.8 -5.2 -13.35 L-5.2 -13.3 Q-5.75 -13.9 -5.75 -14.65 -5.75 -15.45 -5.2 -16.0 M-15.25 -15.2 L-7.65 -22.7 -6.9 -23.0 -6.15 -22.7 -5.85 -21.95 Q-5.85 -21.5 -6.2 -21.2 L-13.1 -14.5 -6.25 -8.2 -5.85 -7.45 Q-5.85 -7.05 -6.1 -6.75 L-6.15 -6.7 Q-6.4 -6.45 -6.85 -6.45 L-7.65 -6.7 -15.3 -13.7 -15.35 -13.75 -15.6 -14.15 -15.6 -14.2 -15.6 -14.65 -15.6 -14.75 -15.25 -15.2" fill="#4a4c82" fill-opacity="0.7882353" fill-rule="evenodd" stroke="none"/>
  </g>
</svg>
