<?xml version="1.0" encoding="UTF-8" standalone="no"?>
<svg xmlns:xlink="http://www.w3.org/1999/xlink" height="32.6px" width="32.15px" xmlns="http://www.w3.org/2000/svg">
  <g transform="matrix(1.0, 0.0, 0.0, 1.0, 8.7, 16.05)">
    <path d="M17.6 -1.7 Q16.85 -2.45 15.6 -2.9 7.05 -6.1 1.45 -11.6 L1.5 -11.25 1.6 -9.65 Q1.7 -4.85 0.55 -0.15 -0.35 3.75 -1.8 5.8 L-2.0 6.1 -3.7 7.95 Q-0.05 5.6 8.75 5.35 10.55 5.15 10.1 6.95 L9.5 9.0 Q9.3 11.65 7.6 14.35 7.1 15.1 7.7 15.35 L8.75 15.55 Q10.9 15.5 12.2 13.1 12.2 11.1 13.4 8.35 13.9 6.85 15.9 6.15 L17.2 5.9 Q18.15 5.55 18.55 4.75 19.2 2.2 18.55 -0.3 18.25 -1.1 17.6 -1.7 19.4 -1.1 21.6 0.25 22.6 1.35 22.45 2.95 22.45 5.1 20.9 5.6 L17.2 5.9 M-3.7 7.95 L-3.85 8.05 Q-4.75 8.65 -5.7 8.35 -8.1 6.15 -7.6 0.3 -7.1 -5.5 -5.1 -10.55 -3.15 -15.1 -1.15 -15.05 0.8 -14.9 1.45 -11.6" fill="none" stroke="#615a7c" stroke-linecap="round" stroke-linejoin="round" stroke-width="2.0"/>
    <path d="M-0.35 -8.45 L-0.35 -8.3 -0.4 -7.2 Q-0.6 -4.2 -1.2 -1.15 -1.75 1.35 -2.45 2.7 L-2.5 2.9 -3.25 4.05 -3.4 4.15 Q-3.75 4.5 -4.05 4.3 -4.95 2.9 -4.5 -0.9 -4.05 -4.55 -3.05 -7.85 -2.1 -10.7 -1.25 -10.7 -0.5 -10.65 -0.35 -8.45" fill="none" stroke="#615a7c" stroke-linecap="round" stroke-linejoin="round" stroke-width="1.0"/>
  </g>
</svg>
