<?xml version="1.0" encoding="UTF-8" standalone="no"?>
<svg xmlns:xlink="http://www.w3.org/1999/xlink" height="6.55px" width="104.45px" xmlns="http://www.w3.org/2000/svg">
  <g transform="matrix(1.0, 0.0, 0.0, 1.0, 52.2, 3.25)">
    <path d="M33.0 -2.75 L51.75 -2.75 51.75 2.8 33.0 2.8 33.0 -2.75 M-9.45 -2.75 L9.3 -2.75 9.3 2.8 -9.45 2.8 -9.45 -2.75 M-30.5 -2.75 L-11.75 -2.75 -11.75 2.8 -30.5 2.8 -30.5 -2.75 M-51.7 -2.75 L-32.95 -2.75 -32.95 2.8 -51.7 2.8 -51.7 -2.75" fill="#484b56" fill-opacity="0.69803923" fill-rule="evenodd" stroke="none"/>
    <path d="M11.75 -2.75 L30.5 -2.75 30.5 2.8 11.75 2.8 11.75 -2.75" fill="#a9cef7" fill-opacity="0.80784315" fill-rule="evenodd" stroke="none"/>
    <path d="M11.75 -2.75 L30.5 -2.75 30.5 2.8 11.75 2.8 11.75 -2.75 M33.0 -2.75 L51.75 -2.75 51.75 2.8 33.0 2.8 33.0 -2.75 M-9.45 -2.75 L9.3 -2.75 9.3 2.8 -9.45 2.8 -9.45 -2.75 M-30.5 -2.75 L-11.75 -2.75 -11.75 2.8 -30.5 2.8 -30.5 -2.75 M-51.7 -2.75 L-32.95 -2.75 -32.95 2.8 -51.7 2.8 -51.7 -2.75" fill="none" stroke="#000000" stroke-linecap="round" stroke-linejoin="round" stroke-opacity="0.69803923" stroke-width="1.0"/>
  </g>
</svg>
