<?xml version="1.0" encoding="UTF-8" standalone="no"?>
<svg xmlns:xlink="http://www.w3.org/1999/xlink" height="276.6px" width="783.05px" xmlns="http://www.w3.org/2000/svg">
  <g transform="matrix(1.0, 0.0, 0.0, 1.0, 213.65, 20.15)">
    <path d="M-173.5 -17.4 L-204.35 -17.4 Q-210.15 -17.4 -210.2 -12.05 L-210.2 18.25 Q-210.15 23.7 -204.35 23.7 L-173.5 23.7 Q-167.7 23.7 -167.65 18.25 L-167.65 -12.05 Q-167.7 -17.4 -173.5 -17.4 M-204.35 -19.65 L-173.5 -19.65 Q-164.65 -19.65 -164.65 -11.3 L-164.65 19.0 Q-164.65 27.35 -173.5 27.35 L-204.35 27.35 Q-213.15 27.35 -213.15 19.0 L-213.15 -11.3 Q-213.15 -19.65 -204.35 -19.65 M510.0 17.85 L561.1 17.85 Q568.9 17.85 568.9 25.2 L568.9 67.45 Q568.9 70.9 567.2 72.8 566.1 73.9 564.35 74.45 L561.1 74.85 510.0 74.85 506.75 74.45 Q505.0 73.9 504.0 72.8 502.25 70.9 502.25 67.45 L502.25 25.2 Q502.25 17.85 510.0 17.85 M561.1 19.85 L510.0 19.85 Q504.95 19.85 504.9 24.6 L504.9 66.8 Q504.95 71.6 510.0 71.6 L561.1 71.6 Q566.2 71.6 566.25 66.8 L566.25 24.6 Q566.2 19.85 561.1 19.85 M510.0 78.0 L561.05 78.0 Q568.8 78.0 568.8 85.4 L568.8 127.65 Q568.8 135.05 561.05 135.05 L510.0 135.05 Q502.3 135.05 502.3 127.65 L502.3 85.4 Q502.3 78.0 510.0 78.0 M504.75 144.7 L504.75 186.95 Q504.8 191.75 509.95 191.75 L561.0 191.75 Q566.15 191.75 566.2 186.95 L566.2 144.7 Q566.15 140.0 561.0 140.0 L509.95 140.0 Q504.8 140.0 504.75 144.7 M504.8 84.75 L504.8 127.0 Q504.85 131.8 510.0 131.8 L561.05 131.8 Q566.2 131.8 566.25 127.0 L566.25 84.75 Q566.2 80.05 561.05 80.05 L510.0 80.05 Q504.85 80.05 504.8 84.75 M509.95 137.95 L561.0 137.95 Q568.75 137.95 568.75 145.35 L568.75 187.6 Q568.75 195.0 561.0 195.0 L509.95 195.0 Q502.25 195.0 502.25 187.6 L502.25 145.35 Q502.25 137.95 509.95 137.95 M510.05 198.05 L561.1 198.05 Q568.85 198.05 568.85 205.45 L568.85 247.7 Q568.85 255.1 561.1 255.1 L510.05 255.1 Q502.35 255.1 502.35 247.7 L502.35 205.45 Q502.35 198.05 510.05 198.05 M504.85 204.8 L504.85 247.05 Q504.9 251.85 510.05 251.85 L561.1 251.85 Q566.25 251.85 566.3 247.05 L566.3 204.8 Q566.25 200.1 561.1 200.1 L510.05 200.1 Q504.9 200.1 504.85 204.8 M103.3 18.25 L154.35 18.25 Q162.1 18.25 162.1 25.65 L162.1 67.9 Q162.1 75.3 154.35 75.3 L103.3 75.3 Q95.6 75.3 95.6 67.9 L95.6 25.65 Q95.6 18.25 103.3 18.25 M103.3 78.3 L154.35 78.3 Q162.1 78.3 162.1 85.7 L162.1 127.95 Q162.1 135.35 154.35 135.35 L103.3 135.35 Q95.6 135.35 95.6 127.95 L95.6 85.7 Q95.6 78.3 103.3 78.3 M98.1 85.05 L98.1 127.3 Q98.15 132.1 103.3 132.1 L154.35 132.1 Q159.5 132.1 159.55 127.3 L159.55 85.05 Q159.5 80.35 154.35 80.35 L103.3 80.35 Q98.15 80.35 98.1 85.05 M98.1 25.0 L98.1 67.25 Q98.15 72.05 103.3 72.05 L154.35 72.05 Q159.5 72.05 159.55 67.25 L159.55 25.0 Q159.5 20.3 154.35 20.3 L103.3 20.3 Q98.15 20.3 98.1 25.0 M102.8 138.7 L153.85 138.7 Q161.6 138.7 161.6 146.1 L161.6 188.35 Q161.6 195.75 153.85 195.75 L102.8 195.75 Q95.1 195.75 95.1 188.35 L95.1 146.1 Q95.1 138.7 102.8 138.7 M97.6 145.45 L97.6 187.7 Q97.65 192.5 102.8 192.5 L153.85 192.5 Q159.0 192.5 159.05 187.7 L159.05 145.45 Q159.0 140.75 153.85 140.75 L102.8 140.75 Q97.65 140.75 97.6 145.45 M102.8 198.9 L153.85 198.9 Q161.6 198.9 161.6 206.3 L161.6 248.55 Q161.6 255.95 153.85 255.95 L102.8 255.95 Q95.1 255.95 95.1 248.55 L95.1 206.3 Q95.1 198.9 102.8 198.9 M97.6 205.65 L97.6 247.9 Q97.65 252.7 102.8 252.7 L153.85 252.7 Q159.0 252.7 159.05 247.9 L159.05 205.65 Q159.0 200.95 153.85 200.95 L102.8 200.95 Q97.65 200.95 97.6 205.65" fill="#afb1ec" fill-opacity="0.827451" fill-rule="evenodd" stroke="none"/>
    <path d="M-173.5 -17.4 Q-167.7 -17.4 -167.65 -12.05 L-167.65 18.25 Q-167.7 23.7 -173.5 23.7 L-204.35 23.7 Q-210.15 23.7 -210.2 18.25 L-210.2 -12.05 Q-210.15 -17.4 -204.35 -17.4 L-173.5 -17.4 M561.1 19.85 Q566.2 19.85 566.25 24.6 L566.25 66.8 Q566.2 71.6 561.1 71.6 L510.0 71.6 Q504.95 71.6 504.9 66.8 L504.9 24.6 Q504.95 19.85 510.0 19.85 L561.1 19.85 M504.8 84.75 Q504.85 80.05 510.0 80.05 L561.05 80.05 Q566.2 80.05 566.25 84.75 L566.25 127.0 Q566.2 131.8 561.05 131.8 L510.0 131.8 Q504.85 131.8 504.8 127.0 L504.8 84.75 M504.75 144.7 Q504.8 140.0 509.95 140.0 L561.0 140.0 Q566.15 140.0 566.2 144.7 L566.2 186.95 Q566.15 191.75 561.0 191.75 L509.95 191.75 Q504.8 191.75 504.75 186.95 L504.75 144.7 M504.85 204.8 Q504.9 200.1 510.05 200.1 L561.1 200.1 Q566.25 200.1 566.3 204.8 L566.3 247.05 Q566.25 251.85 561.1 251.85 L510.05 251.85 Q504.9 251.85 504.85 247.05 L504.85 204.8 M98.1 25.0 Q98.15 20.3 103.3 20.3 L154.35 20.3 Q159.5 20.3 159.55 25.0 L159.55 67.25 Q159.5 72.05 154.35 72.05 L103.3 72.05 Q98.15 72.05 98.1 67.25 L98.1 25.0 M98.1 85.05 Q98.15 80.35 103.3 80.35 L154.35 80.35 Q159.5 80.35 159.55 85.05 L159.55 127.3 Q159.5 132.1 154.35 132.1 L103.3 132.1 Q98.15 132.1 98.1 127.3 L98.1 85.05 M97.6 145.45 Q97.65 140.75 102.8 140.75 L153.85 140.75 Q159.0 140.75 159.05 145.45 L159.05 187.7 Q159.0 192.5 153.85 192.5 L102.8 192.5 Q97.65 192.5 97.6 187.7 L97.6 145.45 M97.6 205.65 Q97.65 200.95 102.8 200.95 L153.85 200.95 Q159.0 200.95 159.05 205.65 L159.05 247.9 Q159.0 252.7 153.85 252.7 L102.8 252.7 Q97.65 252.7 97.6 247.9 L97.6 205.65" fill="#dedbff" fill-opacity="0.8980392" fill-rule="evenodd" stroke="none"/>
    <path d="M-204.35 -19.65 L-173.5 -19.65 Q-164.65 -19.65 -164.65 -11.3 L-164.65 19.0 Q-164.65 27.35 -173.5 27.35 L-204.35 27.35 Q-213.15 27.35 -213.15 19.0 L-213.15 -11.3 Q-213.15 -19.65 -204.35 -19.65 M510.0 17.85 L561.1 17.85 Q568.9 17.85 568.9 25.2 L568.9 67.45 Q568.9 70.9 567.2 72.8 566.1 73.9 564.35 74.45 L561.1 74.85 510.0 74.85 506.75 74.45 Q505.0 73.9 504.0 72.8 502.25 70.9 502.25 67.45 L502.25 25.2 Q502.25 17.85 510.0 17.85 M510.0 78.0 L561.05 78.0 Q568.8 78.0 568.8 85.4 L568.8 127.65 Q568.8 135.05 561.05 135.05 L510.0 135.05 Q502.3 135.05 502.3 127.65 L502.3 85.4 Q502.3 78.0 510.0 78.0 M509.95 137.95 L561.0 137.95 Q568.75 137.95 568.75 145.35 L568.75 187.6 Q568.75 195.0 561.0 195.0 L509.95 195.0 Q502.25 195.0 502.25 187.6 L502.25 145.35 Q502.25 137.95 509.95 137.95 M510.05 198.05 L561.1 198.05 Q568.85 198.05 568.85 205.45 L568.85 247.7 Q568.85 255.1 561.1 255.1 L510.05 255.1 Q502.35 255.1 502.35 247.7 L502.35 205.45 Q502.35 198.05 510.05 198.05 M103.3 18.25 L154.35 18.25 Q162.1 18.25 162.1 25.65 L162.1 67.9 Q162.1 75.3 154.35 75.3 L103.3 75.3 Q95.6 75.3 95.6 67.9 L95.6 25.65 Q95.6 18.25 103.3 18.25 M103.3 78.3 L154.35 78.3 Q162.1 78.3 162.1 85.7 L162.1 127.95 Q162.1 135.35 154.35 135.35 L103.3 135.35 Q95.6 135.35 95.6 127.95 L95.6 85.7 Q95.6 78.3 103.3 78.3 M102.8 138.7 L153.85 138.7 Q161.6 138.7 161.6 146.1 L161.6 188.35 Q161.6 195.75 153.85 195.75 L102.8 195.75 Q95.1 195.75 95.1 188.35 L95.1 146.1 Q95.1 138.7 102.8 138.7 M102.8 198.9 L153.85 198.9 Q161.6 198.9 161.6 206.3 L161.6 248.55 Q161.6 255.95 153.85 255.95 L102.8 255.95 Q95.1 255.95 95.1 248.55 L95.1 206.3 Q95.1 198.9 102.8 198.9" fill="none" stroke="#182a43" stroke-linecap="round" stroke-linejoin="round" stroke-opacity="0.54901963" stroke-width="1.0"/>
    <path d="M-181.5 -1.6 L-180.5 -1.3 Q-180.1 -0.95 -180.25 -0.3 -180.25 0.2 -180.7 0.55 L-181.95 0.85 -183.9 0.85 -184.55 5.0 -182.7 5.0 Q-182.05 5.0 -181.65 5.35 -181.35 5.6 -181.35 6.2 -181.35 6.7 -181.9 7.1 -182.3 7.5 -183.0 7.5 L-185.2 7.5 -186.1 13.15 Q-186.2 13.85 -186.65 14.15 -187.05 14.65 -187.75 14.65 -188.3 14.65 -188.55 14.2 L-188.9 13.35 -188.9 13.0 -187.95 7.5 -192.55 7.5 -193.4 13.15 Q-193.5 13.8 -193.95 14.15 -194.45 14.65 -195.0 14.65 -195.55 14.65 -195.8 14.25 -196.25 14.0 -196.25 13.35 L-196.25 13.0 -195.25 7.5 -197.25 7.5 -198.25 7.25 -198.6 6.4 Q-198.6 5.7 -198.1 5.4 -197.7 5.0 -196.9 5.0 L-194.65 5.0 -193.95 0.85 -196.2 0.85 -197.1 0.55 -197.4 -0.2 Q-197.4 -0.9 -197.0 -1.25 -196.55 -1.6 -195.7 -1.6 L-193.35 -1.6 -192.4 -6.9 Q-192.1 -8.4 -190.8 -8.4 -190.2 -8.4 -189.95 -8.05 -189.55 -7.65 -189.55 -7.1 -189.55 -6.9 -189.7 -6.8 L-190.6 -1.6 -186.05 -1.6 -185.15 -6.9 -184.55 -8.0 Q-184.2 -8.4 -183.55 -8.4 -182.9 -8.4 -182.65 -8.05 -182.3 -7.75 -182.3 -7.15 L-182.35 -6.8 -183.25 -1.6 -181.5 -1.6 M-187.35 5.0 L-186.6 0.85 -191.15 0.85 -191.85 5.0 -187.35 5.0 M540.95 44.15 L540.9 44.25 541.85 43.3 Q544.6 40.5 544.6 36.55 544.6 32.5 541.85 29.75 539.0 26.9 535.05 26.9 531.0 26.9 528.15 29.75 525.45 32.5 525.45 36.55 525.45 40.5 528.15 43.3 531.0 46.15 535.05 46.15 538.4 46.15 540.95 44.15 M541.1 38.1 L536.45 38.1 536.45 42.95 533.25 42.95 533.25 38.1 528.65 38.1 528.65 34.75 533.25 34.75 533.25 29.9 536.45 29.9 536.45 34.75 541.1 34.75 541.1 38.1 M535.05 48.8 Q529.9 48.8 526.3 45.15 522.75 41.55 522.75 36.55 522.75 31.45 526.3 27.85 529.9 24.25 535.05 24.25 540.05 24.25 543.75 27.85 547.3 31.45 547.3 36.55 547.3 41.55 543.75 45.15 L543.7 45.2 546.75 48.55 Q547.2 48.9 547.2 49.5 L546.75 50.45 545.8 50.8 Q545.25 50.8 544.85 50.4 L541.6 47.05 Q538.6 48.8 535.05 48.8 M532.25 94.4 Q533.8 93.0 535.95 93.0 538.15 93.0 539.7 94.4 541.15 95.95 541.15 98.15 541.15 100.35 539.7 101.85 538.15 103.35 535.95 103.35 533.8 103.35 532.25 101.85 530.75 100.35 530.75 98.15 530.75 95.95 532.25 94.4 M518.45 98.15 Q526.3 90.25 535.6 89.7 545.25 89.55 553.5 98.15 546.15 106.05 535.95 106.75 525.35 105.8 518.45 98.15 M549.6 98.15 Q543.85 92.7 535.95 92.2 528.1 93.0 522.4 98.15 528.1 103.6 536.35 103.95 542.9 103.95 549.6 98.15 M534.0 96.2 Q533.25 97.05 533.25 98.15 533.25 99.35 534.0 100.05 534.9 100.8 535.95 100.8 537.05 100.8 537.85 100.05 538.65 99.35 538.65 98.15 538.65 97.05 537.85 96.2 537.05 95.45 535.95 95.45 534.9 95.45 534.0 96.2 M138.1 46.8 Q137.25 46.8 136.75 46.25 136.25 45.7 136.25 44.9 L136.25 39.95 131.25 39.95 Q130.45 39.95 129.9 39.35 129.35 38.85 129.35 38.0 129.35 37.2 129.9 36.65 130.45 36.1 131.25 36.1 L136.25 36.1 136.25 31.15 Q136.25 30.4 136.75 29.85 137.35 29.25 138.1 29.25 138.9 29.25 139.45 29.8 140.0 30.35 140.0 31.15 L140.0 36.1 145.0 36.1 Q145.75 36.1 146.3 36.7 146.85 37.25 146.85 38.05 146.85 38.85 146.3 39.35 145.75 39.95 145.0 39.95 L140.0 39.95 140.0 44.9 Q140.0 45.7 139.45 46.25 138.9 46.8 138.1 46.8 M125.25 32.3 Q125.25 34.95 123.35 36.85 121.45 38.7 118.85 38.7 116.15 38.7 114.3 36.85 112.4 34.95 112.4 32.3 112.4 29.65 114.3 27.75 116.15 25.9 118.85 25.9 121.45 25.9 123.35 27.75 125.25 29.65 125.25 32.3 M123.15 32.3 Q123.15 30.5 121.85 29.25 120.6 27.95 118.85 27.95 117.0 27.95 115.75 29.25 114.45 30.5 114.45 32.3 114.45 34.1 115.75 35.4 117.0 36.65 118.85 36.65 120.6 36.65 121.85 35.4 123.15 34.1 123.15 32.3 M116.15 40.05 L121.05 40.05 Q125.75 40.05 125.75 43.25 L125.75 50.55 111.4 50.55 111.4 43.25 Q111.4 40.05 116.15 40.05 M134.95 90.55 Q135.95 89.55 137.4 89.55 138.85 89.55 139.9 90.55 140.9 91.6 140.9 93.05 140.9 94.5 139.9 95.55 138.85 96.65 137.4 96.65 135.95 96.65 134.95 95.55 133.9 94.5 133.9 93.05 133.9 91.6 134.95 90.55 M114.5 87.6 L114.5 107.9 144.35 107.9 144.35 87.6 114.5 87.6 M112.45 85.1 L146.4 85.1 146.4 110.2 112.45 110.2 112.45 85.1 M115.75 99.5 Q123.7 96.2 130.8 98.95 137.2 101.6 142.9 99.5 L142.9 106.8 115.75 106.8 115.75 99.5" fill="#443c5d" fill-opacity="0.80784315" fill-rule="evenodd" stroke="none"/>
    <path d="M109.4 150.5 L111.15 155.5 116.45 155.65 112.25 158.85 113.75 163.95 109.4 160.95 105.0 163.95 106.5 158.85 102.3 155.65 107.6 155.5 109.4 150.5" fill="#615a7c" fill-rule="evenodd" stroke="none"/>
  </g>
</svg>
