<?xml version="1.0" encoding="UTF-8" standalone="no"?>
<svg xmlns:xlink="http://www.w3.org/1999/xlink" height="50.25px" width="87.4px" xmlns="http://www.w3.org/2000/svg">
  <g transform="matrix(1.0, 0.0, 0.0, 1.0, 43.6, 25.05)">
    <path d="M-31.95 -24.05 L32.15 -24.05 Q42.8 -24.05 42.8 -13.4 L42.8 13.55 Q42.8 24.2 32.15 24.2 L-31.95 24.2 Q-42.6 24.2 -42.6 13.55 L-42.6 -13.4 Q-42.6 -24.05 -31.95 -24.05" fill="url(#gradient0)" fill-rule="evenodd" stroke="none"/>
    <path d="M-31.95 -24.05 L32.15 -24.05 Q42.8 -24.05 42.8 -13.4 L42.8 13.55 Q42.8 24.2 32.15 24.2 L-31.95 24.2 Q-42.6 24.2 -42.6 13.55 L-42.6 -13.4 Q-42.6 -24.05 -31.95 -24.05 Z" fill="none" stroke="#29195b" stroke-linecap="round" stroke-linejoin="round" stroke-opacity="0.40784314" stroke-width="2.0"/>
  </g>
  <defs>
    <linearGradient gradientTransform="matrix(0.0, 0.0264, -0.0521, 0.0, 0.1, 0.2)" gradientUnits="userSpaceOnUse" id="gradient0" spreadMethod="pad" x1="-819.2" x2="819.2">
      <stop offset="0.0" stop-color="#a6a2dc" stop-opacity="0.8980392"/>
      <stop offset="1.0" stop-color="#a7b3f7" stop-opacity="0.8980392"/>
    </linearGradient>
  </defs>
</svg>
