<?xml version="1.0" encoding="UTF-8" standalone="no"?>
<svg xmlns:xlink="http://www.w3.org/1999/xlink" height="62.95px" width="160.45px" xmlns="http://www.w3.org/2000/svg">
  <g transform="matrix(1.0, 0.0, 0.0, 1.0, 76.65, 31.8)">
    <path d="M71.95 -28.05 Q79.3 -28.05 79.3 -20.7 L79.3 18.55 Q79.3 25.9 71.95 25.9 L-64.8 25.9 Q-72.15 25.9 -72.15 18.55 L-72.15 -20.7 Q-72.15 -28.05 -64.8 -28.05 L71.95 -28.05" fill="#d4d6ff" fill-rule="evenodd" stroke="none"/>
    <path d="M71.95 -28.05 L-64.8 -28.05 Q-72.15 -28.05 -72.15 -20.7 L-72.15 18.55 Q-72.15 25.9 -64.8 25.9 L71.95 25.9 Q79.3 25.9 79.3 18.55 L79.3 -20.7 Q79.3 -28.05 71.95 -28.05 M-64.8 -30.8 L71.95 -30.8 Q82.8 -30.8 82.8 -19.95 L82.8 19.3 Q82.8 30.15 71.95 30.15 L-64.8 30.15 Q-75.65 30.15 -75.65 19.3 L-75.65 -19.95 Q-75.65 -30.8 -64.8 -30.8" fill="#9b9adb" fill-rule="evenodd" stroke="none"/>
    <path d="M-64.8 -30.8 L71.95 -30.8 Q82.8 -30.8 82.8 -19.95 L82.8 19.3 Q82.8 30.15 71.95 30.15 L-64.8 30.15 Q-75.65 30.15 -75.65 19.3 L-75.65 -19.95 Q-75.65 -30.8 -64.8 -30.8 Z" fill="none" stroke="#323958" stroke-linecap="round" stroke-linejoin="round" stroke-width="2.0"/>
    <path d="M16.25 -1.95 L16.85 -1.0 16.85 -0.95 16.85 -0.1 16.85 0.0 16.3 0.85 16.3 0.9 2.1 13.95 2.05 13.95 0.65 14.4 Q-0.25 14.4 -0.7 13.85 L-0.75 13.8 -1.2 12.45 Q-1.2 11.55 -0.55 11.05 L-0.6 11.05 12.1 -0.6 -0.65 -12.95 Q-1.2 -13.55 -1.2 -14.35 -1.2 -15.2 -0.7 -15.7 -0.2 -16.35 0.7 -16.35 1.5 -16.35 2.1 -15.75 L16.25 -1.95" fill="#414480" fill-rule="evenodd" stroke="none"/>
    <path d="M-2.45 -3.4 Q-1.4 -2.35 -1.4 -0.9 -1.4 0.55 -2.45 1.6 -3.45 2.6 -4.9 2.6 -6.35 2.6 -7.4 1.65 L-7.4 1.6 Q-8.4 0.55 -8.4 -0.9 -8.4 -2.35 -7.4 -3.4 -6.35 -4.4 -4.9 -4.4 -3.45 -4.4 -2.45 -3.4" fill="#414480" fill-rule="evenodd" stroke="none"/>
  </g>
</svg>
