<?xml version="1.0" encoding="UTF-8" standalone="no"?>
<svg xmlns:xlink="http://www.w3.org/1999/xlink" height="55.55px" width="558.35px" xmlns="http://www.w3.org/2000/svg">
  <g transform="matrix(1.0, 0.0, 0.0, 1.0, 552.35, 40.1)">
    <path d="M-13.2 -34.75 L-6.75 -33.9 -3.65 -39.7 -3.35 -40.0 -2.9 -40.1 -2.5 -39.9 -2.25 -39.5 -1.05 -33.0 5.45 -31.85 5.8 -31.7 6.0 -31.25 5.95 -30.85 5.65 -30.55 -0.15 -27.35 0.75 -20.85 0.7 -20.4 0.4 -20.1 0.0 -20.0 Q-0.25 -20.05 -0.45 -20.25 L-5.25 -24.7 -11.15 -21.9 -11.55 -21.8 -12.0 -22.0 -12.2 -22.4 -12.15 -22.85 -9.35 -28.75 -13.85 -33.55 -14.05 -33.95 -14.0 -34.35 -13.7 -34.7 -13.2 -34.75 M-551.85 5.0 L-545.8 2.5 -546.05 -4.1 -545.9 -4.45 -545.6 -4.8 -545.15 -4.8 -544.7 -4.55 -540.45 0.45 -534.25 -1.8 -533.85 -1.85 Q-533.6 -1.85 -533.45 -1.55 L-533.3 -1.2 -533.45 -0.75 -536.85 4.9 -532.8 10.1 -532.6 10.45 -532.7 10.9 -533.0 11.15 -533.55 11.2 -539.9 9.7 -543.65 15.05 -543.9 15.35 -544.4 15.45 -544.8 15.2 -545.0 14.75 -545.5 8.25 -551.8 6.35 -552.2 6.1 -552.35 5.75 -552.25 5.3 -551.85 5.0 M-512.2 -33.15 L-505.75 -32.3 -502.65 -38.1 -502.35 -38.4 -501.9 -38.5 -501.5 -38.3 -501.25 -37.9 -500.05 -31.4 -493.55 -30.25 -493.2 -30.1 -493.0 -29.65 -493.05 -29.25 -493.35 -28.95 -499.15 -25.75 -498.25 -19.25 Q-498.15 -19.0 -498.3 -18.8 L-498.6 -18.5 -499.0 -18.4 Q-499.25 -18.45 -499.45 -18.65 L-504.25 -23.1 -510.15 -20.3 -510.55 -20.2 -511.0 -20.4 -511.2 -20.8 -511.15 -21.25 -508.35 -27.15 -512.85 -31.95 -513.05 -32.35 -513.0 -32.75 -512.7 -33.1 -512.2 -33.15 M-57.25 5.0 L-51.2 2.5 -51.45 -4.1 -51.3 -4.45 -51.0 -4.8 -50.55 -4.8 Q-50.25 -4.75 -50.1 -4.55 L-45.85 0.45 -39.65 -1.8 -39.25 -1.85 -38.85 -1.55 -38.7 -1.2 Q-38.7 -0.95 -38.85 -0.75 L-42.25 4.9 -38.2 10.1 -38.0 10.45 -38.1 10.9 -38.4 11.15 -38.95 11.2 -45.3 9.7 -49.05 15.05 -49.3 15.35 -49.8 15.45 -50.2 15.2 -50.4 14.75 -50.9 8.25 -57.2 6.35 -57.6 6.1 -57.75 5.75 -57.65 5.3 -57.25 5.0" fill="#5f5c90" fill-rule="evenodd" stroke="none"/>
  </g>
</svg>
