<?xml version="1.0" encoding="UTF-8" standalone="no"?>
<svg xmlns:xlink="http://www.w3.org/1999/xlink" height="150.25px" width="150.4px" xmlns="http://www.w3.org/2000/svg">
  <g transform="matrix(1.0, 0.0, 0.0, 1.0, 74.05, 25.65)">
    <path d="M25.5 5.6 Q33.95 16.75 40.1 38.35 L40.35 39.15 44.4 54.75 44.7 55.8 Q50.15 78.75 52.35 100.45 50.6 99.85 48.7 99.4 41.75 97.7 33.55 98.3 L30.75 98.55 27.85 99.0 25.4 99.4 14.6 100.7 11.35 100.85 8.1 100.95 -6.5 100.35 -8.7 100.15 -11.8 100.0 Q-13.6 99.9 -15.6 99.95 L-35.35 101.2 -41.45 101.95 Q-40.3 79.15 -36.8 56.1 -35.3 46.3 -33.45 36.45 -29.3 14.8 -22.7 3.65 -9.1 -8.05 5.55 -6.15 20.4 -2.55 25.5 5.15 L25.5 5.6 M22.0 34.4 Q31.2 73.1 30.75 98.55 31.2 73.1 22.0 34.4 M8.5 48.0 Q7.3 77.6 11.35 100.85 7.3 77.6 8.5 48.0 M-3.75 33.85 Q-13.8 75.0 -11.8 100.0 -13.8 75.0 -3.75 33.85" fill="url(#gradient0)" fill-rule="evenodd" stroke="none"/>
    <path d="M-41.45 101.95 Q-40.85 115.75 -34.85 123.6 -44.45 122.8 -50.3 120.65 -56.45 118.35 -58.55 114.7 L-60.9 110.6 Q-73.2 107.65 -73.05 104.05 L-72.8 100.7 Q-70.1 64.35 -59.8 41.0 -45.55 8.85 -26.4 -11.75 L-21.1 -16.5 Q1.35 -34.1 29.2 -13.8 L35.45 -3.4 33.65 -7.25 M25.7 5.15 L25.5 5.6 Q33.95 16.75 40.1 38.35 L40.35 39.15 44.4 54.75 44.7 55.8 Q50.15 78.75 52.35 100.45 53.35 110.0 53.7 119.35 61.7 120.9 68.75 111.5 L68.05 106.15 Q65.2 85.65 60.0 65.35 L58.35 59.15 Q49.75 27.75 35.45 -3.4 66.25 49.6 74.35 100.95 L75.35 108.05 Q72.55 111.75 68.75 111.5 M25.7 5.15 L25.5 5.15 25.5 5.6 M52.35 100.45 Q50.6 99.85 48.7 99.4 41.75 97.7 33.55 98.3 L30.75 98.55 27.85 99.0 25.4 99.4 14.6 100.7 11.35 100.85 8.1 100.95 -6.5 100.35 -8.7 100.15 -11.8 100.0 Q-13.6 99.9 -15.6 99.95 L-35.35 101.2 -41.45 101.95 Q-40.3 79.15 -36.8 56.1 -35.3 46.3 -33.45 36.45 -29.3 14.8 -22.7 3.65 -9.1 -8.05 5.55 -6.15 20.4 -2.55 25.5 5.15 M-60.55 104.8 L-60.9 110.6 M30.75 98.55 Q31.2 73.1 22.0 34.4 M11.35 100.85 Q7.3 77.6 8.5 48.0 M-21.1 -16.5 Q-27.85 -4.85 -33.5 6.8 L-38.9 18.65 -42.8 28.15 Q-57.95 66.6 -60.55 104.8 M-11.8 100.0 Q-13.8 75.0 -3.75 33.85" fill="none" stroke="#000000" stroke-linecap="round" stroke-linejoin="round" stroke-width="2.0"/>
    <path d="M68.05 106.15 Q66.05 113.5 58.4 114.1 56.5 86.35 50.8 60.85 L50.55 59.6 50.3 58.75 49.2 53.9 46.35 43.4 Q39.5 19.45 29.75 9.35 L25.7 5.15 M-22.7 3.65 Q-34.2 16.1 -40.35 47.0 L-42.6 59.75 -42.85 61.3 -42.95 61.85 -43.0 62.25 -43.05 62.4 -43.45 65.55 Q-45.5 79.75 -46.6 95.3 -47.6 106.3 -43.8 116.4 -49.2 115.4 -52.9 113.4 L-53.3 113.15 -53.75 112.9 -60.15 105.85 -60.55 104.8 Q-69.55 105.55 -72.8 100.7 M74.35 100.95 Q74.95 107.9 68.05 106.15" fill="none" stroke="#000000" stroke-linecap="round" stroke-linejoin="round" stroke-width="1.0"/>
  </g>
  <defs>
    <linearGradient gradientTransform="matrix(0.0, 0.0699, -0.0573, 0.0, 5.45, 68.45)" gradientUnits="userSpaceOnUse" id="gradient0" spreadMethod="pad" x1="-819.2" x2="819.2">
      <stop offset="0.0" stop-color="#000000"/>
      <stop offset="1.0" stop-color="#000000" stop-opacity="0.0"/>
    </linearGradient>
  </defs>
</svg>
