<?xml version="1.0" encoding="UTF-8" standalone="no"?>
<svg xmlns:xlink="http://www.w3.org/1999/xlink" height="293.35px" width="581.95px" xmlns="http://www.w3.org/2000/svg">
  <g transform="matrix(1.0, 0.0, 0.0, 1.0, 858.65, 73.8)">
    <path d="M-849.3 -73.05 L-286.05 -73.05 Q-277.45 -73.05 -277.45 -64.3 L-277.45 210.0 Q-277.45 218.8 -286.05 218.8 L-849.3 218.8 Q-857.9 218.8 -857.9 210.0 L-857.9 -64.3 Q-857.9 -73.05 -849.3 -73.05" fill="#393a66" fill-opacity="0.32941177" fill-rule="evenodd" stroke="none"/>
    <path d="M-849.3 -73.05 L-286.05 -73.05 Q-277.45 -73.05 -277.45 -64.3 L-277.45 210.0 Q-277.45 218.8 -286.05 218.8 L-849.3 218.8 Q-857.9 218.8 -857.9 210.0 L-857.9 -64.3 Q-857.9 -73.05 -849.3 -73.05 Z" fill="none" stroke="#1b1846" stroke-linecap="round" stroke-linejoin="round" stroke-opacity="0.70980394" stroke-width="1.5"/>
  </g>
</svg>
