<?xml version="1.0" encoding="UTF-8" standalone="no"?>
<svg xmlns:xlink="http://www.w3.org/1999/xlink" height="140.7px" width="93.4px" xmlns="http://www.w3.org/2000/svg">
  <g transform="matrix(1.0, 0.0, 0.0, 1.0, 46.8, 47.85)">
    <path d="M-38.1 -47.15 L37.9 -47.15 Q45.9 -47.15 45.9 -39.15 L45.9 84.15 Q45.9 92.15 37.9 92.15 L-38.1 92.15 Q-46.1 92.15 -46.1 84.15 L-46.1 -39.15 Q-46.1 -47.15 -38.1 -47.15 M37.9 -45.15 L-38.1 -45.15 Q-44.1 -45.15 -44.1 -39.15 L-44.1 84.15 Q-44.1 90.15 -38.1 90.15 L37.9 90.15 Q43.9 90.15 43.9 84.15 L43.9 -39.15 Q43.9 -45.15 37.9 -45.15" fill="#dbe2ff" fill-opacity="0.49803922" fill-rule="evenodd" stroke="none"/>
    <path d="M-38.1 -47.15 L37.9 -47.15 Q45.9 -47.15 45.9 -39.15 L45.9 84.15 Q45.9 92.15 37.9 92.15 L-38.1 92.15 Q-46.1 92.15 -46.1 84.15 L-46.1 -39.15 Q-46.1 -47.15 -38.1 -47.15 Z" fill="none" stroke="#212043" stroke-linecap="round" stroke-linejoin="round" stroke-opacity="0.61960787" stroke-width="1.4000000000000001"/>
  </g>
</svg>
