<?xml version="1.0" encoding="UTF-8" standalone="no"?>
<svg xmlns:xlink="http://www.w3.org/1999/xlink" height="90.05px" width="67.65px" xmlns="http://www.w3.org/2000/svg">
  <g transform="matrix(1.0, 0.0, 0.0, 1.0, 62.15, 11.5)">
    <path d="M-17.75 -10.5 L-14.75 -10.4 -13.95 -10.0 -13.8 -9.95 Q1.95 -7.55 4.5 27.05 2.95 73.4 -21.05 77.4 L-22.7 77.55 -24.4 76.9 -26.75 69.25 Q-36.2 33.65 -22.0 -1.25 L-21.1 -3.45 -19.95 -5.9 -17.75 -10.5 M-13.95 -10.0 Q-16.75 -10.85 -23.4 17.65 -30.3 46.9 -21.05 77.4 -30.3 46.9 -23.4 17.65 -16.75 -10.85 -13.95 -10.0" fill="#000000" fill-opacity="0.70980394" fill-rule="evenodd" stroke="none"/>
    <path d="M-21.1 -3.45 L-31.6 -1.5 -31.55 -0.2 -38.6 6.65 M-36.0 -7.45 Q-31.9 -6.05 -31.6 -1.5 M-33.95 26.65 Q-32.9 18.95 -30.65 13.7 L-30.5 12.3 -40.7 8.35 -43.25 10.9 Q-48.0 16.3 -47.6 22.6 L-47.4 23.85 M-30.5 12.3 L-29.95 9.9 Q-28.05 3.7 -22.0 -1.25 M-47.35 24.2 L-47.4 24.55 -34.0 27.05 Q-38.95 34.2 -34.7 44.25 -34.7 49.6 -34.2 55.5 L-38.7 61.4 -26.75 69.25 M-60.1 23.5 L-59.75 23.45 Q-57.2 22.75 -52.95 24.15 L-52.6 24.3 -51.4 24.8 -50.75 24.95 -49.95 25.35 -48.05 26.3 -47.4 24.55 M-43.25 10.9 Q-45.05 6.7 -52.2 5.6 M-44.15 65.75 Q-37.9 62.05 -38.7 61.4 L-38.75 61.35 Q-47.7 51.8 -48.25 44.55 L-51.15 44.3 -51.5 44.3 -53.05 44.3 -56.85 45.75 -57.2 46.05 -57.3 46.1 -57.4 46.2 -57.6 46.45 -57.65 46.45 -57.8 46.6 -57.9 46.65 M-34.7 44.25 L-48.25 42.65 -48.25 44.55 M-48.05 26.3 Q-50.7 32.85 -48.9 40.55 M-40.25 8.1 L-40.7 8.35" fill="none" stroke="#000000" stroke-linecap="round" stroke-linejoin="round" stroke-width="1.3"/>
    <path d="M-34.5 72.35 Q-39.9 69.3 -44.15 65.75 L-44.3 65.7 -45.1 64.95 -45.6 64.5 Q-54.1 56.85 -57.9 46.65 L-58.1 46.25 -58.75 44.1 -58.95 43.9 -59.05 43.35 Q-61.45 35.25 -61.1 30.15 -60.8 24.6 -60.45 23.6 L-60.4 23.45 -59.5 20.4 Q-56.7 11.9 -52.2 5.6 L-52.15 5.45 -50.9 3.9 -50.75 3.7 Q-44.75 -3.9 -36.0 -7.45 L-35.1 -7.75 -31.35 -8.9 Q-25.25 -10.6 -17.75 -10.5 M-24.4 76.9 L-25.75 76.4 -26.35 76.15 Q-30.5 74.35 -34.15 72.4" fill="none" stroke="#000000" stroke-linecap="round" stroke-linejoin="round" stroke-opacity="0.9882353" stroke-width="2.0"/>
    <path d="M-17.75 -10.5 L-14.75 -10.4 -13.95 -10.0 -13.8 -9.95 Q1.95 -7.55 4.5 27.05 2.95 73.4 -21.05 77.4 L-22.7 77.55 -24.4 76.9 -26.75 69.25 Q-36.2 33.65 -22.0 -1.25 L-21.1 -3.45 -19.95 -5.9 -17.75 -10.5 M-21.05 77.4 Q-30.3 46.9 -23.4 17.65 -16.75 -10.85 -13.95 -10.0" fill="none" stroke="#000000" stroke-linecap="round" stroke-linejoin="round" stroke-width="2.0"/>
  </g>
</svg>
