<?xml version="1.0" encoding="UTF-8" standalone="no"?>
<svg xmlns:xlink="http://www.w3.org/1999/xlink" height="44.5px" width="67.3px" xmlns="http://www.w3.org/2000/svg">
  <g transform="matrix(1.0, 0.0, 0.0, 1.0, 31.7, -9.3)">
    <path d="M8.35 21.9 Q16.2 11.7 24.3 10.3 27.35 13.95 27.5 19.45 27.65 24.95 28.6 29.25 29.35 32.6 28.15 35.9 30.1 40.35 34.6 45.15 30.7 45.45 27.35 47.3 24.0 49.1 19.55 49.9 17.55 45.85 13.65 40.55 9.8 35.25 8.05 30.5 5.65 31.65 3.25 30.6 1.55 35.8 -2.35 40.2 -6.25 44.55 -11.45 52.8 -16.4 50.85 -22.05 50.2 -27.75 49.55 -30.7 46.75 -27.2 41.05 -24.1 37.55 -25.75 35.05 -25.3 31.05 -24.7 24.65 -25.85 19.75 -27.0 14.8 -25.4 12.1 -12.1 12.35 1.45 22.1 L8.35 21.9 8.85 22.1 Q9.75 23.55 9.85 25.25 L13.45 24.3 M-24.1 37.55 Q-23.15 39.05 -21.45 40.0 -6.55 39.9 2.65 30.3 1.6 28.35 1.3 26.25 L-6.1 24.55 M9.85 25.25 Q9.95 27.5 8.65 30.15 16.35 39.9 27.3 37.65 L28.15 35.9 M3.25 30.6 L2.65 30.3 M8.65 30.15 L8.05 30.5 M1.3 26.25 Q1.0 24.25 1.45 22.1" fill="none" stroke="#000000" stroke-linecap="round" stroke-linejoin="round" stroke-width="2.0"/>
  </g>
</svg>
