<?xml version="1.0" encoding="UTF-8" standalone="no"?>
<svg xmlns:xlink="http://www.w3.org/1999/xlink" height="43.15px" width="81.5px" xmlns="http://www.w3.org/2000/svg">
  <g transform="matrix(1.0, 0.0, 0.0, 1.0, 49.1, -5.9)">
    <path d="M27.45 6.9 Q28.95 9.95 29.1 16.95 29.15 23.95 27.8 27.2 27.05 28.9 27.65 29.65 33.45 40.9 30.25 45.3 19.7 49.5 0.65 39.85 -2.6 41.25 -5.8 39.4 -30.95 47.6 -39.55 48.0 -48.15 48.4 -47.9 45.75 -48.7 38.55 -46.15 31.05 -45.85 29.5 -47.4 22.4 -49.15 14.6 -46.05 9.5 L-46.05 9.3 Q-44.0 8.85 -38.95 10.8 -32.2 13.5 -25.3 17.65 -10.5 22.0 -6.05 25.6 -1.75 24.0 0.2 25.2 L17.25 12.6 Q24.85 6.9 27.45 6.9 20.9 18.3 0.8 25.85 2.5 28.25 2.2 32.75 L2.2 32.95 Q9.35 34.2 13.8 30.35 M2.2 32.95 Q1.95 37.55 1.1 39.6 L0.65 39.85 M0.2 25.2 L0.6 25.55 0.8 25.85 M-5.8 39.4 Q-6.65 36.5 -6.6 32.45 -14.55 33.55 -22.5 31.15 M-6.6 32.45 Q-6.6 29.35 -6.05 25.6 -16.75 25.05 -32.7 17.25 -45.9 12.2 -46.05 9.5" fill="none" stroke="#000000" stroke-linecap="round" stroke-linejoin="round" stroke-width="2.0"/>
  </g>
</svg>
