<?xml version="1.0" encoding="UTF-8" standalone="no"?>
<svg xmlns:xlink="http://www.w3.org/1999/xlink" height="30.9px" width="57.8px" xmlns="http://www.w3.org/2000/svg">
  <g transform="matrix(1.0, 0.0, 0.0, 1.0, 36.45, -21.35)">
    <path d="M-1.55 35.2 L10.4 26.35 Q15.75 22.35 17.55 22.35 18.6 24.5 18.7 29.4 18.75 34.3 17.8 36.6 17.3 37.8 17.7 38.3 21.8 46.2 19.55 49.3 12.15 52.25 -1.25 45.45 -3.5 46.45 -5.75 45.15 -23.4 50.9 -29.45 51.2 -35.5 51.45 -35.3 49.6 -35.9 44.55 -34.1 39.3 -33.9 38.2 -34.95 33.2 -36.2 27.75 -34.0 24.15 L-34.0 24.05 Q-32.6 23.7 -29.05 25.1 -24.3 27.0 -19.45 29.9 -9.05 32.95 -5.95 35.45 -2.95 34.35 -1.55 35.2 L-1.3 35.45 -1.15 35.65 Q0.05 37.35 -0.15 40.5 L-0.15 40.65 Q-0.35 43.85 -0.95 45.3 L-1.25 45.45 M-5.75 45.15 Q-6.35 43.1 -6.35 40.3 -6.35 38.1 -5.95 35.45" fill="none" stroke="#000000" stroke-linecap="round" stroke-linejoin="round" stroke-width="2.0"/>
    <path d="M-1.15 35.65 Q12.95 30.35 17.55 22.35 M-0.15 40.65 Q4.85 41.5 8.0 38.8 M-6.35 40.3 Q-11.9 41.05 -17.5 39.35 M-5.95 35.45 Q-13.45 35.1 -24.65 29.6 -33.9 26.05 -34.0 24.15" fill="none" stroke="#000000" stroke-linecap="round" stroke-linejoin="round" stroke-width="1.3"/>
  </g>
</svg>
