<?xml version="1.0" encoding="UTF-8" standalone="no"?>
<svg xmlns:xlink="http://www.w3.org/1999/xlink" height="99.55px" width="98.0px" xmlns="http://www.w3.org/2000/svg">
  <g transform="matrix(1.0, 0.0, 0.0, 1.0, 51.85, -3.85)">
    <path d="M5.1 23.15 L22.15 10.55 Q29.75 4.85 32.35 4.85 33.85 7.9 34.0 14.9 34.05 21.9 32.7 25.15 31.95 26.85 32.55 27.6 38.35 38.85 35.15 43.25 29.4 45.55 21.15 43.75 44.55 73.55 45.15 95.25 42.9 92.6 34.1 87.7 32.5 94.4 25.7 100.55 23.55 69.45 3.55 38.35 1.9 38.55 0.3 37.95 -25.35 64.5 -29.8 102.4 -37.15 94.9 -38.55 87.35 -47.6 93.65 -50.45 99.35 -54.2 69.8 -22.25 43.7 -30.45 45.75 -34.65 45.95 -43.25 46.35 -43.0 43.7 -43.8 36.5 -41.25 29.0 -40.95 27.45 -42.5 20.35 -44.25 12.55 -41.15 7.45 L-41.15 7.25 Q-39.1 6.8 -34.05 8.75 -27.3 11.45 -20.4 15.6 -5.6 19.95 -1.15 23.55 3.15 21.95 5.1 23.15 L5.5 23.5 5.7 23.8 Q25.8 16.25 32.35 4.85 M5.7 23.8 Q7.4 26.2 7.1 30.7 L7.1 30.9 Q14.25 32.15 18.7 28.3 M7.1 30.9 Q6.85 35.5 6.0 37.55 L5.55 37.8 5.6 37.85 Q14.25 42.2 21.15 43.75 M5.55 37.8 L3.55 38.35 M-22.25 43.7 Q-13.75 41.55 -0.9 37.35 -1.75 34.45 -1.7 30.4 -9.65 31.5 -17.6 29.1 M-41.15 7.45 Q-41.0 10.15 -27.8 15.2 -11.85 23.0 -1.15 23.55 -1.7 27.3 -1.7 30.4 M0.3 37.95 L-0.9 37.35" fill="none" stroke="#000000" stroke-linecap="round" stroke-linejoin="round" stroke-width="2.0"/>
  </g>
</svg>
