<?xml version="1.0" encoding="UTF-8" standalone="no"?>
<svg xmlns:xlink="http://www.w3.org/1999/xlink" height="74.7px" width="60.35px" xmlns="http://www.w3.org/2000/svg">
  <g transform="matrix(1.0, 0.0, 0.0, 1.0, 60.75, 32.65)">
    <path d="M-41.1 1.0 Q-43.3 0.5 -44.75 -1.1 -47.65 12.2 -43.05 18.2 L-38.5 18.4 -34.45 17.7 Q-29.7 16.4 -24.4 13.1 -13.95 6.5 -6.1 -0.9 -4.65 -5.15 -7.8 -9.45 L-24.6 -18.35 -24.95 -18.55 -26.6 -19.4 Q-45.65 -29.4 -51.75 -24.3 -55.2 -17.8 -51.65 -10.4 -48.1 -3.0 -44.75 -1.1 M-24.6 -18.35 L-24.0 -18.05 -24.95 -18.55 M-26.6 -19.4 Q-29.9 -27.5 -27.95 -30.8 -17.4 -34.7 -7.1 -20.8 -1.9 -11.65 -4.45 -9.95 -1.7 -8.35 -1.4 -4.75 -1.7 -0.15 -6.1 -0.9 -23.35 17.45 -27.8 38.9 -32.25 40.9 -38.15 38.35 -44.05 35.8 -51.3 41.05 -49.75 36.95 -47.55 33.2 -54.55 33.9 -59.75 24.55 -47.85 22.75 -38.5 18.4 M-4.45 -9.95 L-7.8 -9.45 M-34.45 17.7 Q-42.65 24.65 -47.55 33.2" fill="none" stroke="#000000" stroke-linecap="round" stroke-linejoin="round" stroke-width="2.0"/>
  </g>
</svg>
