<?xml version="1.0" encoding="UTF-8" standalone="no"?>
<svg xmlns:xlink="http://www.w3.org/1999/xlink" height="82.45px" width="78.75px" xmlns="http://www.w3.org/2000/svg">
  <g transform="matrix(1.0, 0.0, 0.0, 1.0, 42.1, 0.65)">
    <path d="M24.95 37.95 Q27.45 29.35 24.65 21.45 22.75 16.25 16.75 9.8 10.15 4.3 -0.8 3.45 -11.9 2.6 -18.95 7.45 -25.85 13.6 -27.9 19.05 -31.4 27.5 -28.15 37.25 -24.3 46.05 -12.95 48.75 -6.85 50.4 -0.15 50.7 L-0.2 50.8 0.95 50.7 Q6.4 50.2 12.0 48.6 21.85 46.05 24.95 37.95 34.4 49.55 35.4 59.9 L35.9 64.6 Q35.9 71.6 30.95 74.85 L30.1 74.95 Q27.45 77.75 24.55 77.9 22.2 78.05 19.75 76.65 L19.4 76.2 Q11.85 75.45 13.45 68.05 14.15 57.1 12.0 48.6 M24.65 21.45 Q27.9 15.85 33.0 10.6 31.95 6.65 28.2 4.75 22.3 5.85 16.75 9.8 M20.65 61.75 Q20.4 63.6 21.45 65.0 22.4 66.25 24.2 66.0 25.95 65.65 27.15 64.45 28.25 63.25 28.45 61.6 28.7 60.0 27.3 59.0 25.9 58.05 24.4 58.15 22.8 58.1 21.9 59.05 20.85 59.8 20.65 61.75 M28.05 65.65 Q27.1 67.05 28.1 67.5 L29.85 67.85 Q30.6 67.7 31.35 66.95 32.1 66.2 32.1 65.2 L31.85 63.3 Q31.55 62.55 30.9 62.6 30.1 62.55 29.6 63.35 L28.05 65.65 M21.25 68.35 Q21.35 69.3 22.1 69.75 22.85 70.2 23.9 70.2 24.8 70.1 25.55 69.55 26.3 69.15 26.35 68.05 26.5 66.85 25.65 66.95 L23.65 67.0 21.9 67.25 Q21.15 67.35 21.25 68.35 M17.45 65.5 Q17.45 66.4 17.8 67.0 18.15 67.65 19.1 67.8 20.05 68.0 20.3 67.1 20.4 66.15 20.05 65.4 L19.45 63.85 Q19.05 63.2 18.55 63.15 18.05 63.0 17.75 63.8 17.45 64.5 17.45 65.5 M19.4 76.2 Q18.55 74.7 20.65 70.8 M30.1 74.95 Q28.0 74.85 27.7 70.45 M-27.9 19.05 Q-34.85 12.35 -38.65 5.85 -38.5 2.3 -32.65 0.1 -27.25 3.85 -18.95 7.45 M-28.15 37.25 Q-39.7 50.0 -40.8 61.95 -41.45 64.85 -41.35 67.45 -41.3 75.45 -34.75 78.45 L-33.7 78.45 Q-31.15 78.05 -30.75 73.1 M-18.7 66.8 Q-18.85 67.75 -19.15 68.5 -19.55 69.15 -20.7 69.45 -21.9 69.7 -22.0 68.75 -22.15 67.75 -21.75 66.85 -21.5 65.85 -21.05 65.25 -20.65 64.4 -20.05 64.4 -19.5 64.25 -19.15 65.05 -18.8 65.7 -18.7 66.8 M-22.45 63.05 Q-22.25 64.95 -23.3 66.55 -24.5 68.0 -26.65 67.9 -28.8 67.75 -30.2 66.5 -31.8 65.2 -31.95 63.45 -32.3 61.6 -30.55 60.5 -29.0 59.25 -27.0 59.35 -25.2 59.15 -23.9 60.15 -22.8 60.95 -22.45 63.05 M-31.4 67.85 Q-30.15 69.4 -31.4 70.05 L-33.55 70.55 Q-34.6 70.4 -35.5 69.7 -36.5 68.95 -36.35 67.75 -36.5 66.5 -36.1 65.65 -35.8 64.6 -34.85 64.6 -34.0 64.55 -33.3 65.45 L-31.4 67.85 M-23.15 70.2 Q-23.25 71.2 -24.05 71.8 -24.95 72.4 -26.15 72.45 L-28.15 72.0 Q-29.2 71.5 -29.35 70.45 -29.5 69.2 -28.4 69.1 -27.25 68.95 -25.95 69.1 L-23.85 69.2 Q-23.15 69.05 -23.15 70.2 M-33.7 78.45 Q-30.9 80.85 -27.7 81.05 L-26.7 81.05 Q-24.1 80.85 -21.15 79.0 L-20.75 78.5 Q-19.9 76.7 -22.3 72.85 M-20.75 78.5 Q-12.45 76.75 -14.25 69.2 -15.25 57.7 -12.95 48.75" fill="none" stroke="#000000" stroke-linecap="round" stroke-linejoin="round" stroke-width="1.5"/>
  </g>
</svg>
