<?xml version="1.0" encoding="UTF-8" standalone="no"?>
<svg xmlns:xlink="http://www.w3.org/1999/xlink" height="70.35px" width="61.9px" xmlns="http://www.w3.org/2000/svg">
  <g transform="matrix(1.0, 0.0, 0.0, 1.0, 58.2, 4.75)">
    <path d="M0.2 -3.75 Q7.35 -0.4 -5.95 8.55 -19.35 17.4 -20.35 31.8 -21.3 46.1 -30.0 53.75 -36.55 59.45 -43.2 62.25 L-47.6 63.7 Q-56.55 66.05 -57.1 62.4 -57.65 58.7 -54.55 56.65 -51.5 54.6 -47.25 53.3 L-46.8 53.15 Q-42.65 51.7 -36.2 46.55 -29.4 41.1 -29.45 30.15 -29.5 19.15 -23.1 10.2 -16.75 1.25 0.2 -3.75" fill="none" stroke="#151515" stroke-linecap="round" stroke-linejoin="round" stroke-width="2.0"/>
    <path d="M-46.8 53.15 Q-47.0 59.25 -43.2 62.25" fill="none" stroke="#202020" stroke-linecap="round" stroke-linejoin="round" stroke-width="1.0"/>
  </g>
</svg>
