<?xml version="1.0" encoding="UTF-8" standalone="no"?>
<svg xmlns:xlink="http://www.w3.org/1999/xlink" height="62.2px" width="61.85px" xmlns="http://www.w3.org/2000/svg">
  <g transform="matrix(1.0, 0.0, 0.0, 1.0, 61.35, 38.9)">
    <path d="M-41.7 -13.35 Q-44.65 -16.15 -45.8 -19.7 -50.2 -11.65 -50.45 -8.65 -52.5 -12.0 -53.7 -12.8 -56.35 -9.0 -57.3 -4.05 L-60.35 -6.95" fill="none" stroke="#000000" stroke-linecap="round" stroke-linejoin="round" stroke-width="1.5"/>
    <path d="M-60.35 -6.95 L-60.05 -3.15 Q-59.45 0.75 -57.9 4.1 -52.15 16.2 -33.55 21.1 -16.9 25.2 -6.65 15.55 -3.45 12.4 -0.85 8.0 0.7 2.75 -5.1 4.85 -21.25 10.15 -32.3 2.55 L-34.55 0.85 Q-42.55 -5.6 -41.7 -13.35 L-41.5 -14.7 Q-39.6 -24.35 -34.7 -29.7 -29.8 -35.15 -30.3 -37.8 -35.95 -38.15 -40.55 -37.1 -56.8 -33.8 -59.75 -14.85 -60.45 -10.7 -60.35 -6.95" fill="none" stroke="#000000" stroke-linecap="round" stroke-linejoin="round" stroke-width="2.0"/>
  </g>
</svg>
