<?xml version="1.0" encoding="UTF-8" standalone="no"?>
<svg xmlns:xlink="http://www.w3.org/1999/xlink" height="31.05px" width="31.35px" xmlns="http://www.w3.org/2000/svg">
  <g transform="matrix(1.0, 0.0, 0.0, 1.0, 35.4, 13.95)">
    <path d="M-29.95 -8.65 Q-27.95 -10.6 -25.4 -10.05 -22.9 -12.95 -19.65 -12.95 -17.0 -12.95 -15.2 -10.95 -12.0 -11.35 -10.45 -9.8 -8.9 -8.25 -8.95 -7.0 -6.45 -4.8 -6.3 -0.85 -5.05 0.2 -5.05 2.4 -5.05 4.55 -7.2 6.2 -6.5 9.1 -8.2 10.85 -9.9 12.5 -11.7 12.15 -14.15 15.55 -18.35 15.25 -19.2 16.1 -21.5 16.1 -23.8 16.05 -25.55 14.15 -27.85 14.6 -29.05 13.15 -30.25 11.65 -30.15 10.6 -33.65 7.9 -32.7 4.35 -34.35 3.35 -34.4 0.6 L-34.3 -0.3 Q-34.0 -2.6 -31.7 -4.45 -31.8 -6.8 -29.95 -8.65 Z" fill="none" stroke="#000000" stroke-linecap="round" stroke-linejoin="round" stroke-width="2.0"/>
  </g>
</svg>
