<?xml version="1.0" encoding="UTF-8" standalone="no"?>
<svg xmlns:xlink="http://www.w3.org/1999/xlink" height="77.25px" width="61.65px" xmlns="http://www.w3.org/2000/svg">
  <g transform="matrix(1.0, 0.0, 0.0, 1.0, 63.55, 57.8)">
    <path d="M-14.8 17.5 Q-22.4 20.35 -33.15 14.55 -41.8 10.95 -52.25 -6.2 -62.75 -23.35 -62.45 -44.45 L-62.55 -44.8 Q-61.05 -54.2 -55.5 -56.35 L-56.05 -54.85 Q-57.75 -50.3 -57.95 -45.15 L-58.0 -45.1 -57.85 -39.85 Q-57.5 -35.2 -56.05 -30.15 L-55.8 -29.2 -55.85 -29.25 -55.7 -28.8 -55.15 -27.0 -53.0 -21.1 -52.2 -19.25 -51.0 -16.45 Q-48.55 -11.35 -45.75 -6.95 -43.15 -2.95 -40.2 0.5 -37.05 4.15 -33.55 7.15 L-27.25 11.8 Q-23.35 14.25 -19.0 16.05 L-14.8 17.5" fill="#000000" fill-opacity="0.4392157" fill-rule="evenodd" stroke="none"/>
    <path d="M-39.35 -56.3 L-38.55 -56.3 -38.25 -56.25 -37.95 -56.25 -33.95 -56.1 Q-31.8 -55.75 -30.6 -53.7 -29.85 -52.5 -29.45 -50.7 L-29.15 -49.25 -28.75 -44.25 -28.65 -43.5 Q-27.9 -37.05 -26.15 -31.9 L-26.3 -31.45 -25.65 -30.65 Q-24.25 -26.95 -22.3 -23.95 -19.8 -20.3 -16.45 -17.9 L-15.2 -16.95 -10.3 -12.5 -8.95 -11.1 Q-1.1 -2.3 -3.4 5.55 L-3.8 6.75 Q-5.95 10.75 -8.3 13.3 L-9.5 14.45 Q-11.1 15.95 -12.85 16.8 L-14.8 17.5 Q-22.4 20.35 -33.15 14.55 -41.8 10.95 -52.25 -6.2 -62.75 -23.35 -62.45 -44.45 L-62.55 -44.8 Q-61.05 -54.2 -55.5 -56.35 L-52.85 -56.8 -50.8 -56.7 -50.0 -56.7 -49.75 -56.65 -49.1 -56.65 -48.8 -56.65 -47.8 -56.6 -40.15 -56.3 -39.35 -56.3" fill="none" stroke="#000000" stroke-linecap="round" stroke-linejoin="round" stroke-width="2.0"/>
    <path d="M-26.15 -31.9 L-25.65 -30.65 M-48.8 -56.65 L-47.8 -56.65 -40.15 -56.35 -39.35 -56.3 M-40.15 -56.3 L-44.05 -52.15 -37.6 -44.6 -33.75 -50.75 -37.95 -56.25 M-40.15 -56.35 L-40.15 -56.3 M-47.8 -56.6 L-44.05 -52.15 -48.7 -46.1 -41.6 -37.75 -37.6 -44.6 -31.5 -37.5 -28.65 -43.5 M-33.75 -50.75 L-30.6 -53.7 M-56.05 -54.85 L-54.0 -52.4 -50.35 -56.7 -50.8 -56.7 M-55.5 -56.35 L-56.05 -54.85 Q-57.75 -50.3 -57.95 -45.15 L-54.0 -52.4 -48.7 -46.1 -52.65 -38.85 -45.05 -29.95 -41.6 -37.75 -35.0 -30.0 -31.5 -37.5 -26.3 -31.45 -29.65 -23.7 -33.1 -15.8 -27.6 -9.35 -24.5 -17.7 -18.1 -10.1 -15.2 -16.95 M-50.35 -56.7 L-50.0 -56.7 M-47.8 -56.6 L-47.8 -56.65 M-58.0 -45.1 L-57.85 -39.85 Q-57.5 -35.2 -56.05 -30.15 L-52.65 -38.85 -58.0 -45.1 -57.95 -45.15 M-14.8 17.5 L-19.0 16.05 Q-23.35 14.25 -27.25 11.8 L-33.55 7.15 Q-37.05 4.15 -40.2 0.5 -43.15 -2.95 -45.75 -6.95 -48.55 -11.35 -51.0 -16.45 L-52.2 -19.25 -53.0 -21.1 -55.15 -27.0 -55.7 -28.8 -55.85 -29.25 -55.8 -29.2 -56.05 -30.15 M-51.0 -16.45 L-48.8 -21.3 Q-51.15 -23.5 -55.8 -29.2 L-55.7 -28.8 M-40.2 0.5 L-36.7 -7.55 -41.3 -13.2 -42.3 -14.35 -45.75 -6.95 M-42.3 -14.35 Q-45.5 -18.25 -48.8 -21.3 L-45.05 -29.95 -38.6 -22.35 -35.0 -30.0 -29.65 -23.7 -24.5 -17.7 -22.3 -23.95 M-38.6 -22.35 L-33.1 -15.8 -36.7 -7.55 -30.6 -1.05 -27.6 -9.35 -21.45 -2.05 -18.1 -10.1 -12.05 -2.85 -8.95 -11.1 M-42.3 -14.35 L-38.6 -22.35 M-28.75 -44.25 L-33.75 -50.75 M-16.85 10.15 L-14.65 4.2 -21.45 -2.05 -24.25 4.65 -16.85 10.15 Q-13.2 12.55 -9.5 14.45 M-8.3 13.3 L-7.25 10.7 -14.65 4.2 -12.05 -2.85 -3.8 6.75 M-16.85 10.15 L-19.0 16.05 M-24.25 4.65 L-27.25 11.8 M-30.6 -1.05 Q-27.5 1.95 -24.25 4.65 M-33.55 7.15 L-30.6 -1.05" fill="none" stroke="#000000" stroke-linecap="round" stroke-linejoin="round" stroke-width="1.0"/>
  </g>
</svg>
