<?xml version="1.0" encoding="UTF-8" standalone="no"?>
<svg xmlns:xlink="http://www.w3.org/1999/xlink" height="41.55px" width="90.05px" xmlns="http://www.w3.org/2000/svg">
  <g transform="matrix(1.0, 0.0, 0.0, 1.0, 84.75, 17.65)">
    <path d="M-72.7 12.3 Q-76.95 -1.95 -64.05 -6.9 -52.45 -9.5 -41.45 1.95 -30.55 13.35 -18.6 13.3 -7.1 13.2 -0.35 7.15 L0.1 6.75 0.2 6.75 Q3.95 2.4 4.3 -0.3 4.2 -5.1 0.65 -1.3 -9.85 8.9 -20.65 5.55 -31.6 2.2 -42.25 -10.1 -55.3 -21.15 -71.55 -13.5 -87.5 -3.85 -82.6 12.35 L-82.0 13.85 Q-80.05 18.75 -78.35 20.9 L-77.7 21.7 Q-75.05 23.7 -72.15 22.3 -70.15 21.1 -70.9 17.2 L-71.3 16.15 -72.7 12.3" fill="none" stroke="#000000" stroke-linecap="round" stroke-linejoin="round" stroke-width="2.0"/>
    <path d="M-82.0 13.85 Q-78.55 16.1 -72.7 12.3 Z" fill="none" stroke="#000000" stroke-linecap="round" stroke-linejoin="round" stroke-width="1.4000000000000001"/>
  </g>
</svg>
