<?xml version="1.0" encoding="UTF-8" standalone="no"?>
<svg xmlns:xlink="http://www.w3.org/1999/xlink" height="77.75px" width="96.3px" xmlns="http://www.w3.org/2000/svg">
  <g transform="matrix(1.0, 0.0, 0.0, 1.0, 90.05, 29.1)">
    <path d="M-74.85 -15.25 Q-93.15 -5.5 -87.9 4.45 -88.15 -1.65 -79.55 -6.3 L-81.2 -3.15 Q-84.45 3.6 -85.85 10.8 -87.3 17.9 -85.95 27.15 -84.65 36.4 -73.8 42.6 -78.15 37.25 -78.75 27.5 -72.15 43.0 -55.1 47.65 -61.25 42.8 -61.75 29.9 -56.95 37.25 -50.2 38.65 -58.25 31.4 -55.6 24.85 L-55.15 23.9 -55.0 23.55 -55.0 23.5 Q-52.0 17.7 -48.6 16.05 -43.65 13.75 -37.75 13.75 -31.8 13.75 -20.25 19.25 -10.35 23.9 0.6 7.5 L3.4 2.95 Q6.8 -1.65 3.95 -2.9 2.6 -3.55 0.35 -2.3 -11.4 9.55 -16.4 4.95 L-29.4 -7.2 Q-35.6 -12.9 -38.8 -15.2 -42.0 -17.5 -44.25 -18.65 -46.5 -19.85 -52.05 -21.6 -57.6 -23.4 -62.95 -28.1 -64.2 -20.45 -53.55 -17.1 L-63.95 -17.75 -68.95 -17.0 -74.85 -15.25 Z" fill="none" stroke="#000000" stroke-linecap="round" stroke-linejoin="round" stroke-width="2.0"/>
  </g>
</svg>
