<?xml version="1.0" encoding="UTF-8" standalone="no"?>
<svg xmlns:xlink="http://www.w3.org/1999/xlink" height="52.75px" width="93.4px" xmlns="http://www.w3.org/2000/svg">
  <g transform="matrix(1.0, 0.0, 0.0, 1.0, 92.15, 29.2)">
    <path d="M-82.2 -9.25 Q-83.55 -11.8 -86.15 -12.95 -88.65 -14.0 -90.35 -10.1 -92.1 -6.2 -90.0 -1.2 L-89.2 0.8 -87.8 4.7 -87.4 6.0 -86.85 9.7 Q-82.65 4.45 -77.85 1.05 -73.05 -2.45 -73.5 -5.55 -73.65 -6.35 -74.15 -7.15 L-74.65 -7.85 Q-76.6 -9.4 -78.65 -8.45 -82.1 -3.15 -83.2 -2.7 -83.5 -5.65 -82.2 -9.25 -80.35 -15.05 -75.15 -19.8 -73.0 -21.8 -70.85 -23.25 L-69.65 -24.0 -66.15 -25.85 Q-53.5 -30.7 -44.05 -25.5 -30.75 -17.0 -32.1 2.9 -32.45 8.55 -29.75 13.0 -27.85 15.95 -24.0 16.35 -11.35 17.55 -2.4 6.2 L-1.4 5.1 Q-0.5 4.3 -0.05 4.95 0.25 5.5 0.25 7.05 0.1 10.7 -2.55 13.85 -7.2 19.25 -13.55 21.2 L-16.0 21.8 -27.9 22.2 Q-29.75 21.85 -31.85 20.6 -40.05 16.1 -38.5 3.2 -39.0 -10.7 -44.2 -16.85 L-44.25 -16.85 -44.85 -17.55 Q-51.6 -23.75 -65.5 -18.35 -72.95 -14.75 -78.65 -8.45" fill="none" stroke="#000000" stroke-linecap="round" stroke-linejoin="round" stroke-width="2.0"/>
  </g>
</svg>
