<?xml version="1.0" encoding="UTF-8" standalone="no"?>
<svg xmlns:xlink="http://www.w3.org/1999/xlink" height="83.2px" width="55.85px" xmlns="http://www.w3.org/2000/svg">
  <g transform="matrix(1.0, 0.0, 0.0, 1.0, 60.15, 13.1)">
    <path d="M-19.6 31.45 L-19.65 33.6 -18.3 35.85 Q-17.6 36.75 -15.05 37.95 -16.5 32.85 -15.2 25.5 -13.5 19.55 -12.25 16.8 -11.05 14.05 -10.55 11.65 -9.1 4.95 -5.3 4.95 L-8.45 -5.55 Q-14.6 -10.8 -19.2 -12.1 L-23.05 -11.55 Q-28.25 -9.9 -32.2 -3.15 -33.75 0.45 -37.9 4.1 L-38.75 4.75 Q-33.8 3.9 -28.45 -0.45 -32.45 4.0 -34.85 9.15 L-36.05 11.8 Q-38.65 16.6 -42.25 19.2 -36.85 18.6 -32.55 14.55 L-31.5 13.25 M-37.95 41.35 L-38.0 42.55 Q-38.3 45.95 -39.25 48.85 -43.2 61.4 -59.15 63.7 L-57.9 64.15 Q-48.35 67.45 -42.2 62.4 -43.65 66.9 -49.5 69.1 L-48.1 69.05 Q-45.65 68.85 -43.55 68.05 -40.3 66.75 -37.8 63.95 M-43.55 68.05 Q-39.5 67.5 -36.3 66.15 -28.75 62.9 -26.45 55.1 L-26.05 58.4 Q-21.45 50.55 -20.05 39.0 L-19.65 33.6 M-32.55 14.55 Q-37.25 20.45 -39.5 27.65 -40.45 30.7 -40.95 33.95 L-39.2 32.7 Q-36.45 30.05 -34.15 24.1 M-42.75 19.25 L-42.45 19.25 -42.25 19.2 M-39.2 32.7 Q-40.75 35.75 -41.45 38.85 -43.2 45.95 -50.85 50.05 L-51.2 50.2 Q-38.95 49.7 -38.0 42.55" fill="none" stroke="#000000" stroke-linecap="round" stroke-linejoin="round" stroke-width="2.0"/>
  </g>
</svg>
