<?xml version="1.0" encoding="UTF-8" standalone="no"?>
<svg xmlns:xlink="http://www.w3.org/1999/xlink" height="32.25px" width="66.05px" xmlns="http://www.w3.org/2000/svg">
  <g transform="matrix(1.0, 0.0, 0.0, 1.0, 66.1, 9.7)">
    <path d="M-48.3 1.8 Q-43.3 5.95 -35.3 5.0 -28.7 1.75 -27.4 -5.2 -24.6 -1.1 -16.9 -0.9 L-15.5 -1.2 Q-8.75 -3.0 -7.9 -8.6 M-48.3 1.8 Q-52.35 7.65 -58.3 6.95 -60.55 6.65 -63.05 5.4" fill="none" stroke="#000000" stroke-linecap="round" stroke-linejoin="round" stroke-width="1.4000000000000001"/>
    <path d="M-27.4 -5.2 Q-31.15 -3.9 -35.3 -2.0 -41.35 0.65 -48.3 1.8 L-63.45 2.55 -65.1 2.4 -63.05 5.4 Q-52.35 20.25 -34.9 21.55 -19.2 21.8 -2.25 3.45 1.1 -1.8 -5.1 -8.1 L-7.9 -8.6 -11.3 -8.7 Q-18.05 -8.55 -27.4 -5.2" fill="none" stroke="#000000" stroke-linecap="round" stroke-linejoin="round" stroke-width="2.0"/>
  </g>
</svg>
