<?xml version="1.0" encoding="UTF-8" standalone="no"?>
<svg xmlns:xlink="http://www.w3.org/1999/xlink" height="61.6px" width="83.3px" xmlns="http://www.w3.org/2000/svg">
  <g transform="matrix(1.0, 0.0, 0.0, 1.0, 83.85, 8.7)">
    <path d="M-4.4 -7.7 Q1.95 3.1 -5.85 16.7 -21.05 43.15 -48.3 38.3 -59.15 36.45 -68.4 42.75 -70.15 43.95 -71.7 45.45 -73.9 47.3 -75.85 49.65 -79.0 52.6 -81.05 51.7 -82.05 51.3 -82.7 50.2 -83.6 44.6 -78.3 39.45 L-77.95 39.1 Q-61.8 23.5 -40.55 29.5 -37.05 30.45 -33.55 29.35 -23.0 26.2 -16.6 19.25 -8.05 9.75 -6.85 -6.5 -6.75 -7.8 -5.15 -7.65 L-4.4 -7.7" fill="none" stroke="#000000" stroke-linecap="round" stroke-linejoin="round" stroke-width="2.0"/>
    <path d="M-71.7 45.45 L-76.3 45.7 -76.15 44.35 -75.15 41.35 Q-77.45 42.0 -78.9 42.7 -78.85 41.05 -77.95 39.1" fill="none" stroke="#000000" stroke-linecap="round" stroke-linejoin="round" stroke-width="1.4000000000000001"/>
  </g>
</svg>
