<?xml version="1.0" encoding="UTF-8" standalone="no"?>
<svg xmlns:xlink="http://www.w3.org/1999/xlink" height="75.8px" width="69.0px" xmlns="http://www.w3.org/2000/svg">
  <g transform="matrix(1.0, 0.0, 0.0, 1.0, 70.75, 56.2)">
    <path d="M-55.6 -52.25 Q-49.8 -48.0 -46.65 -42.5 -45.0 -39.7 -44.05 -36.55 L-43.95 -36.2 Q-43.0 -32.8 -42.75 -28.3 L-42.75 -26.1 Q-42.85 -24.25 -43.1 -22.3 -43.5 -19.15 -44.4 -15.8 -45.3 -11.95 -44.1 -8.5 -40.4 1.6 -32.6 6.5 L-31.75 7.1 Q-21.35 12.85 -4.05 10.05 -2.65 9.9 -2.75 11.65 L-2.8 12.4 Q-14.55 21.65 -29.6 17.05 -45.4 12.15 -51.35 1.45 -56.5 -7.95 -54.25 -21.6 L-53.85 -25.4 Q-53.85 -27.35 -54.4 -31.15 -55.5 -35.45 -56.65 -37.45 -57.85 -39.5 -59.45 -41.3 L-62.45 -44.15 Q-64.65 -45.95 -67.15 -47.4 -70.5 -49.85 -69.55 -52.25 -69.1 -53.35 -67.9 -54.35 -61.75 -56.75 -55.95 -52.55 L-55.6 -52.25" fill="none" stroke="#000000" stroke-linecap="round" stroke-linejoin="round" stroke-width="2.0"/>
    <path d="M-56.65 -37.45 Q-56.65 -40.9 -58.1 -45.1 -56.1 -44.6 -54.3 -43.4 L-51.7 -41.45 Q-51.4 -44.3 -53.2 -47.35 -49.85 -45.8 -46.65 -42.5" fill="none" stroke="#000000" stroke-linecap="round" stroke-linejoin="round" stroke-width="1.4000000000000001"/>
  </g>
</svg>
