<?xml version="1.0" encoding="UTF-8" standalone="no"?>
<svg xmlns:xlink="http://www.w3.org/1999/xlink" height="73.05px" width="69.3px" xmlns="http://www.w3.org/2000/svg">
  <g transform="matrix(1.0, 0.0, 0.0, 1.0, 68.4, 9.75)">
    <path d="M-39.1 44.55 Q-34.2 43.4 -29.45 40.2 L-25.4 35.25 Q-16.55 22.7 -12.55 7.8 -8.5 -7.15 -3.2 -8.75 -0.85 -6.7 -0.3 -3.85 0.5 -0.05 -1.85 5.2 -5.95 14.3 -14.9 32.55 -17.4 37.7 -20.2 41.6 L-19.7 41.9 Q-17.95 43.55 -19.4 47.25 L-19.65 48.2 Q-20.3 50.4 -21.65 52.6 L-22.3 53.65 -23.7 55.4 -24.65 56.5 -24.9 56.7 -25.05 56.75 Q-27.15 58.3 -30.25 56.75 L-30.25 57.8 Q-30.6 61.4 -33.35 62.25 -38.3 62.7 -39.1 58.9 L-38.95 57.8 -38.65 55.95 -38.55 54.25 -38.5 53.45 -46.45 53.95 -48.55 54.95 Q-50.95 55.05 -51.9 53.1 L-54.45 52.3 Q-57.25 51.3 -59.8 49.75 -69.75 43.8 -66.7 39.1 L-66.55 38.95 Q-63.5 34.5 -59.3 39.35 -57.7 41.25 -55.15 42.65 L-55.1 41.35 -55.05 39.7 -54.95 38.65 Q-53.2 31.2 -49.15 29.95 -46.2 30.25 -43.0 34.75 -41.4 37.5 -40.6 40.05 -39.85 42.3 -39.8 44.4 L-39.8 44.7 -39.75 44.7 -39.65 44.55 -39.35 44.5 -39.1 44.55 -37.2 44.65 -36.6 45.0 -36.0 45.7 -35.3 44.85 -35.05 44.55 Q-31.6 40.9 -27.9 39.95 L-24.9 40.0 -23.4 40.3 Q-21.7 40.7 -20.2 41.6 M-39.8 44.7 L-39.75 44.7 M-51.9 53.1 L-52.1 52.6 Q-53.05 50.75 -52.25 48.7 L-52.25 48.65 Q-53.2 48.55 -54.0 48.05 -54.4 47.8 -54.6 47.0 L-54.85 46.2 -54.85 46.05 -55.05 44.55 -55.15 42.65 M-46.45 53.95 L-44.8 52.9 -42.35 50.9 -40.95 49.3 -40.6 49.55 Q-39.55 50.2 -38.55 49.9 -38.45 51.7 -38.5 53.45" fill="none" stroke="#000000" stroke-linecap="round" stroke-linejoin="round" stroke-width="2.0"/>
    <path d="M-52.25 48.7 Q-46.2 49.8 -41.2 48.8 L-41.2 48.2 -40.8 46.35 -40.6 45.9 -40.45 45.6 -40.35 45.45 -39.95 44.85 -39.8 44.7 M-38.15 49.65 Q-37.45 51.05 -35.55 52.7 -33.6 54.4 -30.25 56.35 M-37.8 49.5 L-36.0 45.7" fill="none" stroke="#000000" stroke-linecap="round" stroke-linejoin="round" stroke-width="1.0"/>
  </g>
</svg>
