<?xml version="1.0" encoding="UTF-8" standalone="no"?>
<svg xmlns:xlink="http://www.w3.org/1999/xlink" height="78.75px" width="71.15px" xmlns="http://www.w3.org/2000/svg">
  <g transform="matrix(1.0, 0.0, 0.0, 1.0, 65.6, 29.4)">
    <path d="M-60.75 22.65 Q-63.15 16.2 -63.7 10.45 -65.2 -6.0 -55.8 -15.05 -53.95 -17.15 -52.45 -19.3 -49.4 -23.7 -47.65 -28.4 -45.5 -21.05 -46.65 -16.8 -48.45 -10.75 -43.55 -3.15 -44.6 -10.9 -42.75 -14.4 -42.1 -4.2 -34.85 -0.35 -33.75 -4.4 -31.7 -8.9 -34.0 -7.4 -36.25 -5.0 -32.55 -16.5 -22.2 -20.6 -11.5 -23.7 -2.8 -17.35 2.2 -13.4 3.75 -7.05 4.75 -3.4 4.5 1.2 4.25 10.45 0.25 19.5 -2.55 28.65 1.75 34.2 -3.9 31.8 -5.1 26.1 -6.7 32.6 -13.1 37.75 -18.25 41.9 -19.0 48.35 -19.8 42.8 -19.45 38.9 -25.6 44.7 -32.75 46.2 -39.0 47.5 -46.0 45.5 -64.35 38.95 -64.6 17.4 -63.15 20.85 -60.75 22.65 -59.25 23.8 -57.35 24.25 -54.7 24.9 -51.35 24.3 M-36.25 10.0 Q-36.4 5.3 -34.85 -0.35 M-31.7 -8.9 Q-29.15 -10.55 -26.55 -11.1 M-19.45 38.9 Q-19.3 37.0 -18.8 35.45 M-32.85 20.45 Q-36.0 16.05 -36.25 10.0" fill="none" stroke="#000000" stroke-linecap="round" stroke-linejoin="round" stroke-width="2.0"/>
    <path d="M-57.35 24.25 Q-57.5 21.3 -55.25 18.4 -52.1 20.15 -44.1 21.0 -47.9 17.35 -47.25 13.7 -45.5 15.3 -39.3 16.85 -38.05 14.45 -39.4 8.3 L-36.25 10.0" fill="none" stroke="#000000" stroke-linecap="round" stroke-linejoin="round" stroke-width="1.3"/>
  </g>
</svg>
