<?xml version="1.0" encoding="UTF-8" standalone="no"?>
<svg xmlns:xlink="http://www.w3.org/1999/xlink" height="82.95px" width="95.0px" xmlns="http://www.w3.org/2000/svg">
  <g transform="matrix(1.0, 0.0, 0.0, 1.0, 83.45, 45.7)">
    <path d="M7.1 -0.6 Q14.9 -34.7 4.95 -39.0 L1.75 -39.7 Q-5.5 -41.1 -11.35 -39.5 L-13.15 -38.9 Q-31.6 -29.0 -38.4 -17.3 -45.65 -4.9 -45.9 9.25 -46.05 15.5 -44.8 22.1 L-44.65 23.4 Q-43.2 29.3 -33.8 32.55 -26.1 35.25 -13.1 36.2 -6.9 36.7 -3.0 31.5 4.15 21.95 7.1 -0.6 M-44.65 23.4 Q-59.95 17.75 -64.05 7.15 -65.5 3.5 -65.55 -0.8 -73.45 -4.45 -74.05 -10.0 -83.4 -16.45 -82.35 -21.25 L-81.4 -22.3 Q-79.35 -24.0 -74.45 -22.4 -72.45 -24.15 -69.9 -24.45 L-66.95 -24.25 Q-64.9 -26.05 -62.1 -27.45 -57.55 -29.75 -50.9 -30.85 L-48.4 -31.2 Q-44.7 -34.3 -38.05 -37.15 L-33.05 -39.15 Q-4.1 -49.3 3.55 -40.9 L4.95 -39.0 M-48.4 -31.2 L-49.2 -30.5 Q-60.4 -20.2 -64.5 -9.35 -65.3 -6.05 -65.45 -3.05 L-65.55 -0.8 M-74.05 -10.0 Q-74.25 -11.6 -73.8 -13.4 -73.1 -16.3 -70.6 -19.7 -69.25 -22.25 -66.95 -24.25 M-77.2 -18.95 L-76.0 -20.65 -74.45 -22.4" fill="none" stroke="#000000" stroke-linecap="round" stroke-linejoin="round" stroke-width="2.0"/>
  </g>
</svg>
