<?xml version="1.0" encoding="UTF-8" standalone="no"?>
<svg xmlns:xlink="http://www.w3.org/1999/xlink" height="96.25px" width="78.45px" xmlns="http://www.w3.org/2000/svg">
  <g transform="matrix(1.0, 0.0, 0.0, 1.0, 82.25, 81.0)">
    <path d="M-59.9 -58.3 Q-63.2 -56.35 -66.1 -55.2 -71.45 -53.1 -75.15 -53.65 -78.45 -54.2 -80.5 -56.8 -82.15 -59.8 -80.05 -64.05 L-78.2 -67.05 Q-71.1 -77.95 -57.2 -74.85 -59.4 -78.3 -67.45 -77.6 -62.4 -82.6 -52.7 -77.1 -47.8 -73.55 -47.0 -66.4 -46.4 -61.4 -47.8 -54.7 -50.95 -37.9 -50.55 -26.85 -50.3 -19.5 -48.45 -14.75 L-47.8 -13.3 Q-42.0 -1.55 -34.0 4.15 -25.1 10.55 -13.55 9.45 -3.75 8.6 -4.9 12.25 L-6.85 12.65 Q-28.65 17.15 -42.25 8.85 -46.4 6.35 -49.75 2.65 -54.55 -3.6 -56.75 -10.55 -57.9 -14.15 -58.35 -17.95 L-58.65 -22.5 Q-59.05 -28.85 -57.55 -38.85 -56.1 -48.9 -58.4 -56.55 L-59.9 -58.3 -58.85 -58.9" fill="none" stroke="#000000" stroke-linecap="round" stroke-linejoin="round" stroke-width="2.0"/>
  </g>
</svg>
