<?xml version="1.0" encoding="UTF-8" standalone="no"?>
<svg xmlns:xlink="http://www.w3.org/1999/xlink" height="78.5px" width="94.45px" xmlns="http://www.w3.org/2000/svg">
  <g transform="matrix(1.0, 0.0, 0.0, 1.0, 89.35, 51.3)">
    <path d="M-80.1 -50.3 L-77.35 -48.6 Q-64.55 -39.25 -66.8 -21.55 -69.4 -10.0 -61.55 -4.8 -70.1 -4.15 -71.45 1.95 -75.45 13.1 -88.35 18.1 -87.8 18.25 -87.35 18.55 L-83.35 20.15 Q-68.45 25.35 -55.35 16.85 -49.6 13.2 -44.2 6.85 L-22.65 21.3 Q-12.35 29.0 -5.9 24.65 -3.3 22.85 -1.3 19.2 L-0.25 16.75 Q0.95 13.85 1.85 10.1 L2.45 7.6 Q7.25 -16.35 -1.85 -14.6 -20.4 -8.45 -41.7 -9.9 -41.1 -42.35 -72.5 -49.15 L-78.15 -50.05 -80.1 -50.3 Z" fill="none" stroke="#000000" stroke-linecap="round" stroke-linejoin="round" stroke-width="2.0"/>
  </g>
</svg>
