<?xml version="1.0" encoding="UTF-8" standalone="no"?>
<svg xmlns:xlink="http://www.w3.org/1999/xlink" height="83.8px" width="74.15px" xmlns="http://www.w3.org/2000/svg">
  <g transform="matrix(1.0, 0.0, 0.0, 1.0, 74.95, 52.05)">
    <path d="M-4.0 -17.3 L-3.75 -18.35 Q-2.95 -20.85 -2.45 -23.5 L-2.0 -26.75 Q-0.85 -38.75 -6.9 -51.05 -12.15 -44.4 -40.95 -40.85 -58.55 -38.8 -68.5 -23.4 -76.75 -9.9 -72.5 4.45 -71.65 7.45 -70.15 10.5 L-70.05 10.85 -69.8 11.25 Q-66.4 17.85 -61.4 22.25 -51.9 30.55 -37.0 30.75 -16.65 29.6 -9.25 6.0 -7.95 0.55 -9.25 -6.4 -15.15 -24.1 -31.0 -25.0 L-34.9 -24.85 Q-43.65 -23.95 -48.45 -16.15 L-50.6 -11.9 -51.75 -7.85 Q-53.85 3.25 -43.4 9.3 -34.0 12.75 -31.0 4.25 -27.95 -2.95 -33.3 -6.6 M-9.25 -6.4 Q-5.8 -11.2 -4.0 -17.3" fill="none" stroke="#000000" stroke-linecap="round" stroke-linejoin="round" stroke-width="2.0"/>
    <path d="M-61.4 22.25 Q-72.5 3.95 -66.4 -16.0 M-4.0 -17.3 Q-18.35 -35.05 -36.05 -32.8 -60.1 -29.15 -60.55 -1.25" fill="none" stroke="#000000" stroke-linecap="round" stroke-linejoin="round" stroke-width="1.3"/>
  </g>
</svg>
