<?xml version="1.0" encoding="UTF-8" standalone="no"?>
<svg xmlns:xlink="http://www.w3.org/1999/xlink" height="116.05px" width="213.05px" xmlns="http://www.w3.org/2000/svg">
  <g transform="matrix(1.0, 0.0, 0.0, 1.0, 113.85, 55.05)">
    <path d="M-104.1 -53.8 L89.45 -53.8 Q97.95 -53.8 97.95 -45.25 L97.95 51.25 Q97.95 59.75 89.45 59.75 L-104.1 59.75 Q-112.6 59.75 -112.6 51.25 L-112.6 -45.25 Q-112.6 -53.8 -104.1 -53.8 Z" fill="none" stroke="#18203f" stroke-linecap="round" stroke-linejoin="round" stroke-opacity="0.49803922" stroke-width="2.5"/>
    <path d="M-111.35 -21.9 L-111.35 -45.1 Q-111.35 -53.5 -102.95 -53.5 L88.35 -53.5 Q96.75 -53.5 96.75 -45.1 L96.75 -21.9 -111.35 -21.9" fill="#cfcbff" fill-opacity="0.7490196" fill-rule="evenodd" stroke="none"/>
    <path d="M96.75 -21.9 L96.75 49.8 Q96.75 58.2 88.35 58.2 L-102.95 58.2 Q-111.35 58.2 -111.35 49.8 L-111.35 -21.9 96.75 -21.9" fill="#20213a" fill-opacity="0.5294118" fill-rule="evenodd" stroke="none"/>
    <path d="M-111.35 -21.9 L-111.35 -45.1 Q-111.35 -53.5 -102.95 -53.5 L88.35 -53.5 Q96.75 -53.5 96.75 -45.1 L96.75 -21.9 96.75 49.8 Q96.75 58.2 88.35 58.2 L-102.95 58.2 Q-111.35 58.2 -111.35 49.8 L-111.35 -21.9 96.75 -21.9" fill="none" stroke="#cfd7e9" stroke-linecap="round" stroke-linejoin="round" stroke-opacity="0.8980392" stroke-width="1.3"/>
  </g>
</svg>
