<?xml version="1.0" encoding="UTF-8" standalone="no"?>
<svg xmlns:xlink="http://www.w3.org/1999/xlink" height="74.9px" width="99.8px" xmlns="http://www.w3.org/2000/svg">
  <g transform="matrix(1.0, 0.0, 0.0, 1.0, 45.55, 37.6)">
    <path d="M40.4 -33.55 Q49.25 -33.55 49.25 -24.7 L49.25 22.6 Q49.25 31.4 40.4 31.4 L-31.75 31.4 Q-40.6 31.4 -40.6 22.6 L-40.6 -24.7 Q-40.6 -33.55 -31.75 -33.55 L40.4 -33.55" fill="#d4d6ff" fill-rule="evenodd" stroke="none"/>
    <path d="M40.4 -33.55 L-31.75 -33.55 Q-40.6 -33.55 -40.6 -24.7 L-40.6 22.6 Q-40.6 31.4 -31.75 31.4 L40.4 31.4 Q49.25 31.4 49.25 22.6 L49.25 -24.7 Q49.25 -33.55 40.4 -33.55 M-31.75 -36.85 L40.4 -36.85 Q53.5 -36.85 53.5 -23.8 L53.5 23.45 Q53.5 36.55 40.4 36.55 L-31.75 36.55 Q-44.8 36.55 -44.8 23.45 L-44.8 -23.8 Q-44.8 -36.85 -31.75 -36.85" fill="#9b9adb" fill-rule="evenodd" stroke="none"/>
    <path d="M-31.75 -36.85 L40.4 -36.85 Q53.5 -36.85 53.5 -23.8 L53.5 23.45 Q53.5 36.55 40.4 36.55 L-31.75 36.55 Q-44.8 36.55 -44.8 23.45 L-44.8 -23.8 Q-44.8 -36.85 -31.75 -36.85 Z" fill="none" stroke="#323958" stroke-linecap="round" stroke-linejoin="round" stroke-width="1.5"/>
    <path d="M17.7 -2.1 L18.3 -1.2 18.3 -1.15 18.3 -0.3 18.3 -0.2 17.75 0.6 17.75 0.65 3.95 13.35 3.9 13.35 2.55 13.8 Q1.7 13.8 1.25 13.25 L1.2 13.2 Q0.75 12.65 0.75 11.85 0.75 11.0 1.4 10.55 L1.35 10.55 13.65 -0.75 1.25 -12.8 Q0.75 -13.4 0.75 -14.15 0.75 -14.95 1.25 -15.45 1.7 -16.1 2.55 -16.1 3.35 -16.1 3.95 -15.5 L17.7 -2.1" fill="#3a3d74" fill-opacity="0.8980392" fill-rule="evenodd" stroke="none"/>
    <path d="M-0.45 -3.55 Q0.55 -2.5 0.55 -1.1 0.55 0.35 -0.45 1.35 -1.45 2.3 -2.85 2.3 -4.25 2.3 -5.3 1.4 L-5.3 1.35 Q-6.25 0.35 -6.25 -1.1 -6.25 -2.5 -5.3 -3.55 -4.25 -4.5 -2.85 -4.5 -1.45 -4.5 -0.45 -3.55" fill="#3a3d74" fill-opacity="0.8980392" fill-rule="evenodd" stroke="none"/>
  </g>
</svg>
