<?xml version="1.0" encoding="UTF-8" standalone="no"?>
<svg xmlns:xlink="http://www.w3.org/1999/xlink" height="68.2px" width="90.8px" xmlns="http://www.w3.org/2000/svg">
  <g transform="matrix(1.0, 0.0, 0.0, 1.0, 41.05, 34.3)">
    <path d="M-28.45 -33.55 L37.1 -33.55 Q49.0 -33.55 49.0 -21.65 L49.0 21.25 Q49.0 33.15 37.1 33.15 L-28.45 33.15 Q-40.3 33.15 -40.3 21.25 L-40.3 -21.65 Q-40.3 -33.55 -28.45 -33.55 M37.1 -30.55 L-28.45 -30.55 Q-36.5 -30.55 -36.5 -22.5 L-36.5 20.5 Q-36.5 28.5 -28.45 28.5 L37.1 28.5 Q45.15 28.5 45.15 20.5 L45.15 -22.5 Q45.15 -30.55 37.1 -30.55" fill="#afaef7" fill-rule="evenodd" stroke="none"/>
    <path d="M37.1 -30.55 Q45.15 -30.55 45.15 -22.5 L45.15 20.5 Q45.15 28.5 37.1 28.5 L-28.45 28.5 Q-36.5 28.5 -36.5 20.5 L-36.5 -22.5 Q-36.5 -30.55 -28.45 -30.55 L37.1 -30.55" fill="#d9e0f0" fill-rule="evenodd" stroke="none"/>
    <path d="M-28.45 -33.55 L37.1 -33.55 Q49.0 -33.55 49.0 -21.65 L49.0 21.25 Q49.0 33.15 37.1 33.15 L-28.45 33.15 Q-40.3 33.15 -40.3 21.25 L-40.3 -21.65 Q-40.3 -33.55 -28.45 -33.55 Z" fill="none" stroke="#454e79" stroke-linecap="round" stroke-linejoin="round" stroke-width="1.5"/>
    <path d="M16.5 -1.95 Q16.9 -1.8 17.0 -1.15 L17.0 -1.1 17.0 -0.3 17.0 -0.25 16.5 0.5 16.5 0.55 4.0 12.1 3.95 12.1 Q3.35 12.5 2.7 12.5 1.95 12.5 1.55 12.0 L1.5 11.95 Q1.1 11.45 1.1 10.7 1.1 9.95 1.65 9.55 L12.8 -0.75 1.55 -11.7 Q1.1 -12.2 1.1 -12.9 1.1 -13.65 1.55 -14.1 1.95 -14.7 2.7 -14.7 3.45 -14.7 4.0 -14.15 L16.5 -1.95" fill="#474b8e" fill-opacity="0.8980392" fill-rule="evenodd" stroke="none"/>
    <path d="M0.0 -3.25 Q0.9 -2.3 0.9 -1.05 0.9 0.25 0.0 1.2 -0.9 2.05 -2.2 2.05 -3.45 2.05 -4.4 1.2 -5.3 0.25 -5.3 -1.05 -5.3 -2.3 -4.4 -3.25 -3.45 -4.15 -2.2 -4.15 -0.9 -4.15 0.0 -3.25" fill="#474b8e" fill-opacity="0.8980392" fill-rule="evenodd" stroke="none"/>
  </g>
</svg>
