<?xml version="1.0" encoding="UTF-8" standalone="no"?>
<svg xmlns:xlink="http://www.w3.org/1999/xlink" height="106.9px" width="107.1px" xmlns="http://www.w3.org/2000/svg">
  <g transform="matrix(1.0, 0.0, 0.0, 1.0, 104.65, 55.45)">
    <path d="M-103.95 -26.85 L-104.0 -48.05 Q-103.5 -54.7 -94.95 -54.8 L1.8 -54.8 1.8 -35.3 Q2.2 -26.6 -6.55 -26.85 L-103.95 -26.85" fill="#cfcbff" fill-opacity="0.7490196" fill-rule="evenodd" stroke="none"/>
    <path d="M-103.95 -26.85 L-6.55 -26.85 Q2.2 -26.6 1.8 -35.3 L1.8 -54.8 -94.95 -54.8 Q-103.5 -54.7 -104.0 -48.05 L-103.95 -26.85 Z" fill="none" stroke="#cfd7e9" stroke-linecap="round" stroke-linejoin="round" stroke-opacity="0.8980392" stroke-width="1.3"/>
    <path d="M-13.5 -19.4 L-85.65 -19.4 Q-94.5 -19.4 -94.5 -10.55 L-94.5 36.75 Q-94.5 45.55 -85.65 45.55 L-13.5 45.55 Q-4.65 45.55 -4.65 36.75 L-4.65 -10.55 Q-4.65 -19.4 -13.5 -19.4 M-85.65 -22.7 L-13.5 -22.7 Q-0.4 -22.7 -0.4 -9.65 L-0.4 37.6 Q-0.4 50.7 -13.5 50.7 L-85.65 50.7 Q-98.7 50.7 -98.7 37.6 L-98.7 -9.65 Q-98.7 -22.7 -85.65 -22.7" fill="#9b9adb" fill-rule="evenodd" stroke="none"/>
    <path d="M-13.5 -19.4 Q-4.65 -19.4 -4.65 -10.55 L-4.65 36.75 Q-4.65 45.55 -13.5 45.55 L-85.65 45.55 Q-94.5 45.55 -94.5 36.75 L-94.5 -10.55 Q-94.5 -19.4 -85.65 -19.4 L-13.5 -19.4" fill="#d4d6ff" fill-rule="evenodd" stroke="none"/>
    <path d="M-85.65 -22.7 L-13.5 -22.7 Q-0.4 -22.7 -0.4 -9.65 L-0.4 37.6 Q-0.4 50.7 -13.5 50.7 L-85.65 50.7 Q-98.7 50.7 -98.7 37.6 L-98.7 -9.65 Q-98.7 -22.7 -85.65 -22.7 Z" fill="none" stroke="#323958" stroke-linecap="round" stroke-linejoin="round" stroke-width="1.5"/>
  </g>
</svg>
