<?xml version="1.0" encoding="UTF-8" standalone="no"?>
<svg xmlns:xlink="http://www.w3.org/1999/xlink" height="116.45px" width="104.55px" xmlns="http://www.w3.org/2000/svg">
  <g transform="matrix(1.0, 0.0, 0.0, 1.0, 708.55, 72.85)">
    <path d="M-707.9 -38.5 L-707.9 -64.2 Q-707.9 -72.2 -699.9 -72.2 L-612.65 -72.2 Q-604.65 -72.2 -604.65 -64.2 L-604.65 -38.5 -707.9 -38.5" fill="#cfcbff" fill-opacity="0.7490196" fill-rule="evenodd" stroke="none"/>
    <path d="M-604.65 -38.5 L-604.65 -37.55 -604.65 34.95 Q-604.65 42.95 -612.65 42.95 L-699.9 42.95 Q-707.9 42.95 -707.9 34.95 L-707.9 -37.55 -707.9 -38.5 -604.65 -38.5" fill="#20213a" fill-opacity="0.5294118" fill-rule="evenodd" stroke="none"/>
    <path d="M-707.9 -38.5 L-707.9 -64.2 Q-707.9 -72.2 -699.9 -72.2 L-612.65 -72.2 Q-604.65 -72.2 -604.65 -64.2 L-604.65 -38.5 -707.9 -38.5" fill="none" stroke="#2b4172" stroke-linecap="round" stroke-linejoin="round" stroke-opacity="0.5882353" stroke-width="1.3"/>
    <path d="M-604.65 -37.55 L-604.65 34.95 Q-604.65 42.95 -612.65 42.95 L-699.9 42.95 Q-707.9 42.95 -707.9 34.95 L-707.9 -37.55" fill="none" stroke="#cfd7e9" stroke-linecap="round" stroke-linejoin="round" stroke-opacity="0.8980392" stroke-width="1.3"/>
  </g>
</svg>
