<?xml version="1.0" encoding="UTF-8" standalone="no"?>
<svg xmlns:xlink="http://www.w3.org/1999/xlink" height="102.15px" width="92.35px" xmlns="http://www.w3.org/2000/svg">
  <g transform="matrix(1.0, 0.0, 0.0, 1.0, 86.3, 74.45)">
    <path d="M4.35 8.9 Q-0.75 14.2 -6.2 17.9 L-8.2 19.25 Q-17.35 24.95 -27.25 26.3 L-29.7 26.6 -32.2 26.65 -43.15 25.8 -43.9 25.6 -46.65 24.7 Q-50.85 23.2 -54.4 21.05 L-54.65 20.85 -56.25 19.75 -56.4 19.65 Q-60.55 16.75 -63.85 12.85 L-64.55 11.85 -64.6 11.8 -64.9 11.45 Q-69.1 5.85 -71.55 -1.65 L-71.6 -1.75 -71.65 -1.9 -71.65 -1.95 Q-72.8 -5.35 -73.55 -9.05 -74.85 -23.75 -72.0 -38.8 -70.75 -45.4 -71.05 -50.8 L-71.1 -52.0 Q-71.7 -58.15 -74.5 -62.65 -77.7 -68.0 -81.0 -70.4 -83.1 -71.95 -85.3 -72.3 -85.15 -73.15 -83.9 -73.4 -82.0 -73.75 -77.5 -72.3 -69.55 -70.95 -62.7 -62.85 -57.4 -56.55 -56.7 -47.65 L-56.75 -42.15 -56.75 -41.95 -56.9 -39.8 -56.95 -39.1 -56.95 -39.05 -57.05 -36.8 Q-57.35 -27.65 -56.05 -20.65 -54.25 -9.45 -46.65 -5.35 -39.1 -1.3 -33.9 -0.7 -29.7 -0.25 -17.05 -6.6 L-11.25 -9.65 Q-0.6 -7.1 2.85 -1.95 6.25 3.05 4.35 8.9" fill="none" stroke="#000000" stroke-linecap="round" stroke-linejoin="round" stroke-width="2.0"/>
    <path d="M2.85 -1.95 Q-1.25 1.85 -5.5 4.85 L-7.9 6.55 Q-18.75 13.75 -29.75 15.85 -45.2 18.75 -56.2 7.75 L-57.75 6.15 Q-69.2 -6.65 -68.3 -24.0 -67.5 -41.4 -68.55 -52.45 -69.25 -58.65 -72.0 -63.25 L-72.65 -64.3 Q-76.55 -70.15 -83.9 -73.4" fill="none" stroke="#000000" stroke-linecap="round" stroke-linejoin="round" stroke-width="1.4000000000000001"/>
  </g>
</svg>
