<?xml version="1.0" encoding="UTF-8" standalone="no"?>
<svg xmlns:xlink="http://www.w3.org/1999/xlink" height="56.1px" width="81.4px" xmlns="http://www.w3.org/2000/svg">
  <g transform="matrix(1.0, 0.0, 0.0, 1.0, 40.65, 28.05)">
    <path d="M-36.55 -24.15 L36.6 -24.15 36.6 24.15 -36.55 24.15 -36.55 -24.15" fill="none" stroke="#d5dae9" stroke-linecap="round" stroke-linejoin="round" stroke-opacity="0.627451" stroke-width="1.0"/>
    <path d="M-39.9 -27.3 L40.0 -27.3 40.0 27.3 -39.9 27.3 -39.9 -27.3" fill="none" stroke="#d5dae9" stroke-linecap="round" stroke-linejoin="round" stroke-opacity="0.81960785" stroke-width="1.5"/>
    <path d="M2.65 -0.05 Q2.65 1.15 1.8 1.95 1.0 2.8 -0.15 2.8 -1.35 2.8 -2.2 1.95 L-2.6 1.4 -2.8 1.1 -3.0 -0.05 Q-3.0 -1.25 -2.2 -2.1 -1.35 -2.9 -0.15 -2.9 1.0 -2.9 1.8 -2.1 L1.95 -2.0 2.6 -0.8 2.65 -0.05" fill="#000000" fill-opacity="0.15686275" fill-rule="evenodd" stroke="none"/>
  </g>
</svg>
