<?xml version="1.0" encoding="UTF-8" standalone="no"?>
<svg xmlns:xlink="http://www.w3.org/1999/xlink" height="115.9px" width="107.65px" xmlns="http://www.w3.org/2000/svg">
  <g transform="matrix(1.0, 0.0, 0.0, 1.0, 53.25, 57.4)">
    <path d="M-43.45 -56.15 L44.6 -56.15 Q53.15 -56.15 53.15 -47.65 L53.15 48.7 Q53.15 57.25 44.6 57.25 L-43.45 57.25 Q-52.0 57.25 -52.0 48.7 L-52.0 -47.65 Q-52.0 -56.15 -43.45 -56.15 Z" fill="none" stroke="#18203f" stroke-linecap="round" stroke-linejoin="round" stroke-opacity="0.49803922" stroke-width="2.5"/>
    <path d="M-51.05 -23.9 L-51.05 -47.45 Q-51.05 -55.85 -42.65 -55.85 L43.65 -55.85 Q52.05 -55.85 52.05 -47.45 L52.05 -23.9 -51.05 -23.9" fill="#cfcbff" fill-opacity="0.7490196" fill-rule="evenodd" stroke="none"/>
    <path d="M52.05 -23.9 L52.05 47.45 Q52.05 55.85 43.65 55.85 L-42.65 55.85 Q-51.05 55.85 -51.05 47.45 L-51.05 -23.9 52.05 -23.9" fill="#20213a" fill-opacity="0.5294118" fill-rule="evenodd" stroke="none"/>
    <path d="M-51.05 -23.9 L-51.05 -47.45 Q-51.05 -55.85 -42.65 -55.85 L43.65 -55.85 Q52.05 -55.85 52.05 -47.45 L52.05 -23.9 52.05 47.45 Q52.05 55.85 43.65 55.85 L-42.65 55.85 Q-51.05 55.85 -51.05 47.45 L-51.05 -23.9 Z" fill="none" stroke="#cfd7e9" stroke-linecap="round" stroke-linejoin="round" stroke-opacity="0.8980392" stroke-width="1.3"/>
  </g>
</svg>
