<?xml version="1.0" encoding="UTF-8" standalone="no"?>
<svg xmlns:xlink="http://www.w3.org/1999/xlink" height="72.75px" width="201.95px" xmlns="http://www.w3.org/2000/svg">
  <g transform="matrix(1.0, 0.0, 0.0, 1.0, 100.75, 36.7)">
    <path d="M-92.05 -36.05 L-10.05 -36.05 Q-1.95 -36.05 -1.95 -27.95 L-1.95 27.3 Q-1.95 35.4 -10.05 35.4 L-92.05 35.4 Q-100.1 35.4 -100.1 27.3 L-100.1 -27.95 Q-100.1 -36.05 -92.05 -36.05 M-97.6 -27.95 L-97.6 27.3 Q-97.6 32.9 -92.05 32.9 L-10.05 32.9 Q-4.45 32.9 -4.45 27.3 L-4.45 -27.95 Q-4.45 -33.55 -10.05 -33.55 L-92.05 -33.55 Q-97.6 -33.55 -97.6 -27.95" fill="#a1d3ff" fill-opacity="0.9098039" fill-rule="evenodd" stroke="none"/>
    <path d="M-97.6 -27.95 Q-97.6 -33.55 -92.05 -33.55 L-10.05 -33.55 Q-4.45 -33.55 -4.45 -27.95 L-4.45 27.3 Q-4.45 32.9 -10.05 32.9 L-92.05 32.9 Q-97.6 32.9 -97.6 27.3 L-97.6 -27.95" fill="url(#gradient0)" fill-rule="evenodd" stroke="none"/>
    <path d="M10.45 -36.05 L92.45 -36.05 Q100.55 -36.05 100.55 -27.95 L100.55 27.3 Q100.55 35.4 92.45 35.4 L10.45 35.4 Q2.4 35.4 2.4 27.3 L2.4 -27.95 Q2.4 -36.05 10.45 -36.05" fill="#dce4f3" fill-opacity="0.21960784" fill-rule="evenodd" stroke="none"/>
    <path d="M10.45 -36.05 L92.45 -36.05 Q100.55 -36.05 100.55 -27.95 L100.55 27.3 Q100.55 35.4 92.45 35.4 L10.45 35.4 Q2.4 35.4 2.4 27.3 L2.4 -27.95 Q2.4 -36.05 10.45 -36.05" fill="none" stroke="#23283a" stroke-linecap="round" stroke-linejoin="round" stroke-opacity="0.7294118" stroke-width="1.3"/>
    <path d="M-92.05 -36.05 L-10.05 -36.05 Q-1.95 -36.05 -1.95 -27.95 L-1.95 27.3 Q-1.95 35.4 -10.05 35.4 L-92.05 35.4 Q-100.1 35.4 -100.1 27.3 L-100.1 -27.95 Q-100.1 -36.05 -92.05 -36.05" fill="none" stroke="#283554" stroke-linecap="round" stroke-linejoin="round" stroke-opacity="0.7294118" stroke-width="1.3"/>
    <path d="M-64.3 -8.05 Q-62.7 -8.05 -61.5 -7.45 -60.3 -6.85 -59.55 -5.65 -58.85 -4.55 -58.85 -3.1 -58.85 -1.9 -59.55 -0.9 L-59.5 -0.9 -60.35 0.05 Q-59.45 0.45 -58.8 1.2 -57.85 2.35 -57.85 4.15 -57.85 5.75 -58.6 7.0 -59.4 8.3 -60.75 9.0 -62.1 9.7 -63.85 9.7 L-69.45 9.7 Q-70.1 9.7 -70.6 9.2 -71.05 8.75 -71.05 8.1 L-71.05 -6.45 Q-71.05 -7.15 -70.6 -7.6 L-70.55 -7.6 Q-70.1 -8.05 -69.45 -8.05 L-64.3 -8.05 M-64.3 -5.0 L-67.8 -5.0 -67.8 -1.2 -64.3 -1.2 Q-63.25 -1.2 -62.6 -1.7 -62.0 -2.2 -62.0 -3.1 -62.0 -4.05 -62.6 -4.5 -63.25 -5.0 -64.3 -5.0 M-49.95 -3.15 Q-48.1 -3.15 -46.65 -2.25 -45.2 -1.45 -44.35 0.0 -43.55 1.45 -43.55 3.35 -43.55 5.2 -44.35 6.65 -45.2 8.1 -46.65 8.95 -48.05 9.8 -49.95 9.8 -51.8 9.8 -53.25 8.95 -54.7 8.1 -55.5 6.65 -56.35 5.2 -56.35 3.35 -56.35 1.45 -55.5 0.0 -54.7 -1.45 -53.25 -2.25 -51.8 -3.15 -49.95 -3.15 M-41.45 -3.05 Q-40.55 -3.05 -40.1 -2.15 L-36.6 4.75 -33.6 -2.15 Q-33.15 -3.1 -32.3 -3.05 L-31.6 -2.9 -31.55 -2.9 Q-30.55 -2.5 -30.6 -1.6 L-30.8 -0.85 -30.8 -0.9 -37.35 13.9 Q-37.8 14.9 -38.65 14.85 L-39.4 14.65 -39.35 14.7 Q-40.4 14.3 -40.35 13.4 L-40.15 12.65 -38.1 8.1 -42.8 -0.9 -43.0 -1.6 -42.7 -2.4 -42.05 -2.9 -41.45 -3.05 M-48.2 0.25 L-49.95 -0.2 Q-50.9 -0.2 -51.65 0.25 L-51.6 0.25 Q-52.4 0.7 -52.8 1.5 -53.25 2.3 -53.25 3.35 -53.25 4.35 -52.8 5.15 L-52.8 5.2 -51.65 6.45 Q-50.9 6.85 -49.95 6.85 -49.0 6.85 -48.2 6.45 -47.5 6.0 -47.05 5.2 -46.65 4.35 -46.65 3.35 -46.65 2.3 -47.05 1.5 L-47.0 1.5 Q-47.45 0.7 -48.2 0.25 M-61.7 2.5 Q-62.55 1.9 -63.85 1.9 L-67.8 1.9 -67.8 6.65 -63.85 6.65 Q-62.55 6.65 -61.75 6.0 -61.0 5.3 -61.0 4.15 -61.0 3.05 -61.7 2.5" fill="#e2eeff" fill-rule="evenodd" stroke="none"/>
    <path d="M-64.3 -8.05 Q-62.7 -8.05 -61.5 -7.45 -60.3 -6.85 -59.55 -5.65 -58.85 -4.55 -58.85 -3.1 -58.85 -1.9 -59.55 -0.9 L-59.5 -0.9 -60.35 0.05 Q-59.45 0.45 -58.8 1.2 -57.85 2.35 -57.85 4.15 -57.85 5.75 -58.6 7.0 -59.4 8.3 -60.75 9.0 -62.1 9.7 -63.85 9.7 L-69.45 9.7 Q-70.1 9.7 -70.6 9.2 -71.05 8.75 -71.05 8.1 L-71.05 -6.45 Q-71.05 -7.15 -70.6 -7.6 L-70.55 -7.6 Q-70.1 -8.05 -69.45 -8.05 L-64.3 -8.05 M-64.3 -5.0 L-67.8 -5.0 -67.8 -1.2 -64.3 -1.2 Q-63.25 -1.2 -62.6 -1.7 -62.0 -2.2 -62.0 -3.1 -62.0 -4.05 -62.6 -4.5 -63.25 -5.0 -64.3 -5.0 M-49.95 -3.15 Q-48.1 -3.15 -46.65 -2.25 -45.2 -1.45 -44.35 0.0 -43.55 1.45 -43.55 3.35 -43.55 5.2 -44.35 6.65 -45.2 8.1 -46.65 8.95 -48.05 9.8 -49.95 9.8 -51.8 9.8 -53.25 8.95 -54.7 8.1 -55.5 6.65 -56.35 5.2 -56.35 3.35 -56.35 1.45 -55.5 0.0 -54.7 -1.45 -53.25 -2.25 -51.8 -3.15 -49.95 -3.15 M-41.45 -3.05 Q-40.55 -3.05 -40.1 -2.15 L-36.6 4.75 -33.6 -2.15 Q-33.15 -3.1 -32.3 -3.05 L-31.6 -2.9 -31.55 -2.9 Q-30.55 -2.5 -30.6 -1.6 L-30.8 -0.85 -30.8 -0.9 -37.35 13.9 Q-37.8 14.9 -38.65 14.85 L-39.4 14.65 -39.35 14.7 Q-40.4 14.3 -40.35 13.4 L-40.15 12.65 -38.1 8.1 -42.8 -0.9 -43.0 -1.6 -42.7 -2.4 -42.05 -2.9 -41.45 -3.05 M-48.2 0.25 L-49.95 -0.2 Q-50.9 -0.2 -51.65 0.25 L-51.6 0.25 Q-52.4 0.7 -52.8 1.5 -53.25 2.3 -53.25 3.35 -53.25 4.35 -52.8 5.15 L-52.8 5.2 -51.65 6.45 Q-50.9 6.85 -49.95 6.85 -49.0 6.85 -48.2 6.45 -47.5 6.0 -47.05 5.2 -46.65 4.35 -46.65 3.35 -46.65 2.3 -47.05 1.5 L-47.0 1.5 Q-47.45 0.7 -48.2 0.25 M-61.7 2.5 Q-62.55 1.9 -63.85 1.9 L-67.8 1.9 -67.8 6.65 -63.85 6.65 Q-62.55 6.65 -61.75 6.0 -61.0 5.3 -61.0 4.15 -61.0 3.05 -61.7 2.5" fill="none" stroke="#2b4172" stroke-linecap="round" stroke-linejoin="round" stroke-opacity="0.5882353" stroke-width="2.0"/>
    <path d="M-64.3 -8.05 Q-62.7 -8.05 -61.5 -7.45 -60.3 -6.85 -59.55 -5.65 -58.85 -4.55 -58.85 -3.1 -58.85 -1.9 -59.55 -0.9 L-59.5 -0.9 -60.35 0.05 Q-59.45 0.45 -58.8 1.2 -57.85 2.35 -57.85 4.15 -57.85 5.75 -58.6 7.0 -59.4 8.3 -60.75 9.0 -62.1 9.7 -63.85 9.7 L-69.45 9.7 Q-70.1 9.7 -70.6 9.2 -71.05 8.75 -71.05 8.1 L-71.05 -6.45 Q-71.05 -7.15 -70.6 -7.6 L-70.55 -7.6 Q-70.1 -8.05 -69.45 -8.05 L-64.3 -8.05 M-64.3 -5.0 L-67.8 -5.0 -67.8 -1.2 -64.3 -1.2 Q-63.25 -1.2 -62.6 -1.7 -62.0 -2.2 -62.0 -3.1 -62.0 -4.05 -62.6 -4.5 -63.25 -5.0 -64.3 -5.0 M-49.95 -3.15 Q-48.1 -3.15 -46.65 -2.25 -45.2 -1.45 -44.35 0.0 -43.55 1.45 -43.55 3.35 -43.55 5.2 -44.35 6.65 -45.2 8.1 -46.65 8.95 -48.05 9.8 -49.95 9.8 -51.8 9.8 -53.25 8.95 -54.7 8.1 -55.5 6.65 -56.35 5.2 -56.35 3.35 -56.35 1.45 -55.5 0.0 -54.7 -1.45 -53.25 -2.25 -51.8 -3.15 -49.95 -3.15 M-41.45 -3.05 Q-40.55 -3.05 -40.1 -2.15 L-36.6 4.75 -33.6 -2.15 Q-33.15 -3.1 -32.3 -3.05 L-31.6 -2.9 -31.55 -2.9 Q-30.55 -2.5 -30.6 -1.6 L-30.8 -0.85 -30.8 -0.9 -37.35 13.9 Q-37.8 14.9 -38.65 14.85 L-39.4 14.65 -39.35 14.7 Q-40.4 14.3 -40.35 13.4 L-40.15 12.65 -38.1 8.1 -42.8 -0.9 -43.0 -1.6 -42.7 -2.4 -42.05 -2.9 -41.45 -3.05 M-48.2 0.25 L-49.95 -0.2 Q-50.9 -0.2 -51.65 0.25 L-51.6 0.25 Q-52.4 0.7 -52.8 1.5 -53.25 2.3 -53.25 3.35 -53.25 4.35 -52.8 5.15 L-52.8 5.2 -51.65 6.45 Q-50.9 6.85 -49.95 6.85 -49.0 6.85 -48.2 6.45 -47.5 6.0 -47.05 5.2 -46.65 4.35 -46.65 3.35 -46.65 2.3 -47.05 1.5 L-47.0 1.5 Q-47.45 0.7 -48.2 0.25 M-61.7 2.5 Q-62.55 1.9 -63.85 1.9 L-67.8 1.9 -67.8 6.65 -63.85 6.65 Q-62.55 6.65 -61.75 6.0 -61.0 5.3 -61.0 4.15 -61.0 3.05 -61.7 2.5" fill="#e2eeff" fill-rule="evenodd" stroke="none"/>
  </g>
  <defs>
    <linearGradient gradientTransform="matrix(0.0, -0.0374, 0.0569, 0.0, -51.05, -1.55)" gradientUnits="userSpaceOnUse" id="gradient0" spreadMethod="pad" x1="-819.2" x2="819.2">
      <stop offset="0.0" stop-color="#7a94cf"/>
      <stop offset="1.0" stop-color="#5f7bbb" stop-opacity="0.8980392"/>
    </linearGradient>
  </defs>
</svg>
