<?xml version="1.0" encoding="UTF-8" standalone="no"?>
<svg xmlns:xlink="http://www.w3.org/1999/xlink" height="72.75px" width="202.0px" xmlns="http://www.w3.org/2000/svg">
  <g transform="matrix(1.0, 0.0, 0.0, 1.0, 100.75, 36.7)">
    <path d="M4.95 -27.95 Q4.95 -33.55 10.5 -33.55 L92.5 -33.55 Q98.1 -33.55 98.1 -27.95 L98.1 27.3 Q98.1 32.9 92.5 32.9 L10.5 32.9 Q4.95 32.9 4.95 27.3 L4.95 -27.95" fill="url(#gradient0)" fill-rule="evenodd" stroke="none"/>
    <path d="M4.95 -27.95 L4.95 27.3 Q4.95 32.9 10.5 32.9 L92.5 32.9 Q98.1 32.9 98.1 27.3 L98.1 -27.95 Q98.1 -33.55 92.5 -33.55 L10.5 -33.55 Q4.95 -33.55 4.95 -27.95 M92.25 -36.05 L92.5 -36.05 94.35 -35.9 Q100.6 -35.05 100.6 -27.95 L100.6 27.3 Q100.6 34.4 94.35 35.3 L92.5 35.4 92.25 35.4 10.5 35.4 10.25 35.4 8.45 35.3 Q2.45 34.3 2.45 27.3 L2.45 -27.95 Q2.45 -34.95 8.45 -35.9 L10.25 -36.05 92.25 -36.05" fill="#dcbfff" fill-opacity="0.9098039" fill-rule="evenodd" stroke="none"/>
    <path d="M-92.05 -36.05 L-10.05 -36.05 Q-1.95 -36.05 -1.95 -27.95 L-1.95 27.3 Q-1.95 35.4 -10.05 35.4 L-92.05 35.4 Q-100.1 35.4 -100.1 27.3 L-100.1 -27.95 Q-100.1 -36.05 -92.05 -36.05" fill="#dce4f3" fill-opacity="0.21960784" fill-rule="evenodd" stroke="none"/>
    <path d="M-92.05 -36.05 L-10.05 -36.05 Q-1.95 -36.05 -1.95 -27.95 L-1.95 27.3 Q-1.95 35.4 -10.05 35.4 L-92.05 35.4 Q-100.1 35.4 -100.1 27.3 L-100.1 -27.95 Q-100.1 -36.05 -92.05 -36.05" fill="none" stroke="#283554" stroke-linecap="round" stroke-linejoin="round" stroke-opacity="0.7294118" stroke-width="1.3"/>
    <path d="M92.25 -36.05 L92.5 -36.05 94.35 -35.9 Q100.6 -35.05 100.6 -27.95 L100.6 27.3 Q100.6 34.4 94.35 35.3 L92.5 35.4 92.25 35.4 10.5 35.4 10.25 35.4 8.45 35.3 Q2.45 34.3 2.45 27.3 L2.45 -27.95 Q2.45 -34.95 8.45 -35.9 L10.25 -36.05 92.25 -36.05" fill="none" stroke="#392854" stroke-linecap="round" stroke-linejoin="round" stroke-opacity="0.7294118" stroke-width="1.3"/>
    <path d="M32.35 -3.75 Q33.55 -5.85 35.55 -7.05 37.55 -8.3 40.0 -8.3 L43.05 -7.8 43.0 -7.8 45.55 -6.35 45.6 -6.3 46.05 -5.75 46.2 -5.05 Q46.2 -4.45 45.75 -4.0 L45.7 -3.95 Q45.2 -3.6 44.65 -3.6 44.1 -3.6 43.6 -3.95 L42.0 -5.0 42.05 -4.95 40.0 -5.25 Q38.5 -5.25 37.2 -4.45 L37.25 -4.45 Q35.9 -3.65 35.15 -2.25 34.35 -0.85 34.35 0.8 34.35 2.45 35.15 3.85 35.9 5.25 37.25 6.1 38.5 6.9 40.0 6.9 41.55 6.9 42.95 6.05 L42.95 3.0 40.5 3.0 Q39.8 3.0 39.35 2.55 38.9 2.1 38.9 1.5 38.9 0.8 39.35 0.45 L39.4 0.45 Q39.8 0.0 40.5 0.0 L44.55 0.0 Q45.2 0.0 45.65 0.45 L45.7 0.5 Q46.1 0.95 46.1 1.6 L46.1 6.75 Q46.1 7.5 45.6 7.95 43.2 9.9 40.0 9.9 37.55 9.9 35.55 8.75 33.55 7.5 32.35 5.4 L32.4 5.4 Q31.2 3.35 31.2 0.8 31.2 -1.7 32.4 -3.75 L32.35 -3.75 M48.95 -7.25 Q49.5 -7.8 50.3 -7.8 51.1 -7.8 51.65 -7.25 L51.7 -7.2 Q52.2 -6.65 52.2 -5.9 52.2 -5.1 51.7 -4.5 L51.65 -4.5 Q51.1 -3.95 50.3 -3.95 49.5 -3.95 48.95 -4.5 48.35 -5.1 48.35 -5.9 48.35 -6.65 48.95 -7.25 M48.7 -1.45 Q48.7 -2.15 49.15 -2.6 49.6 -3.05 50.3 -3.05 L51.45 -2.6 51.9 -1.45 51.9 8.1 51.45 9.25 50.3 9.7 Q49.6 9.7 49.15 9.25 48.7 8.8 48.7 8.1 L48.7 -1.45 M56.5 -3.05 Q57.75 -3.05 58.05 -2.1 L58.95 -2.7 61.2 -3.2 Q62.5 -3.2 63.2 -2.75 L63.2 -2.8 Q64.15 -2.3 64.1 -1.5 L64.1 -1.25 64.1 -1.1 Q63.75 -0.05 62.75 -0.05 L62.3 -0.1 62.35 -0.1 61.0 -0.25 Q59.65 -0.25 58.8 0.35 58.1 0.9 58.1 1.85 L58.1 8.15 Q58.1 8.85 57.7 9.25 L57.65 9.3 Q57.25 9.7 56.5 9.7 55.8 9.7 55.4 9.35 L55.35 9.3 Q54.95 8.85 54.95 8.15 L54.95 -1.5 Q54.95 -2.25 55.35 -2.6 55.8 -3.05 56.5 -3.05 M66.55 -8.05 Q67.2 -8.05 67.65 -7.6 68.1 -7.15 68.1 -6.5 L68.1 5.25 Q68.1 5.85 68.35 6.3 L68.7 6.55 69.2 6.55 Q69.9 6.55 70.25 7.0 L70.3 7.05 Q70.7 7.45 70.7 8.15 70.7 8.85 70.05 9.35 L68.7 9.7 Q67.6 9.7 66.75 9.15 65.85 8.55 65.4 7.5 64.95 6.45 64.95 5.25 L64.95 -6.5 Q64.95 -7.15 65.4 -7.6 65.85 -8.05 66.55 -8.05" fill="#e9d3fa" fill-rule="evenodd" stroke="none"/>
    <path d="M32.35 -3.75 Q33.55 -5.85 35.55 -7.05 37.55 -8.3 40.0 -8.3 L43.05 -7.8 43.0 -7.8 45.55 -6.35 45.6 -6.3 46.05 -5.75 46.2 -5.05 Q46.2 -4.45 45.75 -4.0 L45.7 -3.95 Q45.2 -3.6 44.65 -3.6 44.1 -3.6 43.6 -3.95 L42.0 -5.0 42.05 -4.95 40.0 -5.25 Q38.5 -5.25 37.2 -4.45 L37.25 -4.45 Q35.9 -3.65 35.15 -2.25 34.35 -0.85 34.35 0.8 34.35 2.45 35.15 3.85 35.9 5.25 37.25 6.1 38.5 6.9 40.0 6.9 41.55 6.9 42.95 6.05 L42.95 3.0 40.5 3.0 Q39.8 3.0 39.35 2.55 38.9 2.1 38.9 1.5 38.9 0.8 39.35 0.45 L39.4 0.45 Q39.8 0.0 40.5 0.0 L44.55 0.0 Q45.2 0.0 45.65 0.45 L45.7 0.5 Q46.1 0.95 46.1 1.6 L46.1 6.75 Q46.1 7.5 45.6 7.95 43.2 9.9 40.0 9.9 37.55 9.9 35.55 8.75 33.55 7.5 32.35 5.4 L32.4 5.4 Q31.2 3.35 31.2 0.8 31.2 -1.7 32.4 -3.75 L32.35 -3.75 M48.95 -7.25 Q49.5 -7.8 50.3 -7.8 51.1 -7.8 51.65 -7.25 L51.7 -7.2 Q52.2 -6.65 52.2 -5.9 52.2 -5.1 51.7 -4.5 L51.65 -4.5 Q51.1 -3.95 50.3 -3.95 49.5 -3.95 48.95 -4.5 48.35 -5.1 48.35 -5.9 48.35 -6.65 48.95 -7.25 M48.7 -1.45 Q48.7 -2.15 49.15 -2.6 49.6 -3.05 50.3 -3.05 L51.45 -2.6 51.9 -1.45 51.9 8.1 51.45 9.25 50.3 9.7 Q49.6 9.7 49.15 9.25 48.7 8.8 48.7 8.1 L48.7 -1.45 M56.5 -3.05 Q57.75 -3.05 58.05 -2.1 L58.95 -2.7 61.2 -3.2 Q62.5 -3.2 63.2 -2.75 L63.2 -2.8 Q64.15 -2.3 64.1 -1.5 L64.1 -1.25 64.1 -1.1 Q63.75 -0.05 62.75 -0.05 L62.3 -0.1 62.35 -0.1 61.0 -0.25 Q59.65 -0.25 58.8 0.35 58.1 0.9 58.1 1.85 L58.1 8.15 Q58.1 8.85 57.7 9.25 L57.65 9.3 Q57.25 9.7 56.5 9.7 55.8 9.7 55.4 9.35 L55.35 9.3 Q54.95 8.85 54.95 8.15 L54.95 -1.5 Q54.95 -2.25 55.35 -2.6 55.8 -3.05 56.5 -3.05 M66.55 -8.05 Q67.2 -8.05 67.65 -7.6 68.1 -7.15 68.1 -6.5 L68.1 5.25 Q68.1 5.85 68.35 6.3 L68.7 6.55 69.2 6.55 Q69.9 6.55 70.25 7.0 L70.3 7.05 Q70.7 7.45 70.7 8.15 70.7 8.85 70.05 9.35 L68.7 9.7 Q67.6 9.7 66.75 9.15 65.85 8.55 65.4 7.5 64.95 6.45 64.95 5.25 L64.95 -6.5 Q64.95 -7.15 65.4 -7.6 65.85 -8.05 66.55 -8.05" fill="none" stroke="#2e3072" stroke-linecap="round" stroke-linejoin="round" stroke-opacity="0.5882353" stroke-width="2.0"/>
    <path d="M32.35 -3.75 Q33.55 -5.85 35.55 -7.05 37.55 -8.3 40.0 -8.3 L43.05 -7.8 43.0 -7.8 45.55 -6.35 45.6 -6.3 46.05 -5.75 46.2 -5.05 Q46.2 -4.45 45.75 -4.0 L45.7 -3.95 Q45.2 -3.6 44.65 -3.6 44.1 -3.6 43.6 -3.95 L42.0 -5.0 42.05 -4.95 40.0 -5.25 Q38.5 -5.25 37.2 -4.45 L37.25 -4.45 Q35.9 -3.65 35.15 -2.25 34.35 -0.85 34.35 0.8 34.35 2.45 35.15 3.85 35.9 5.25 37.25 6.1 38.5 6.9 40.0 6.9 41.55 6.9 42.95 6.05 L42.95 3.0 40.5 3.0 Q39.8 3.0 39.35 2.55 38.9 2.1 38.9 1.5 38.9 0.8 39.35 0.45 L39.4 0.45 Q39.8 0.0 40.5 0.0 L44.55 0.0 Q45.2 0.0 45.65 0.45 L45.7 0.5 Q46.1 0.95 46.1 1.6 L46.1 6.75 Q46.1 7.5 45.6 7.95 43.2 9.9 40.0 9.9 37.55 9.9 35.55 8.75 33.55 7.5 32.35 5.4 L32.4 5.4 Q31.2 3.35 31.2 0.8 31.2 -1.7 32.4 -3.75 L32.35 -3.75 M48.95 -7.25 Q49.5 -7.8 50.3 -7.8 51.1 -7.8 51.65 -7.25 L51.7 -7.2 Q52.2 -6.65 52.2 -5.9 52.2 -5.1 51.7 -4.5 L51.65 -4.5 Q51.1 -3.95 50.3 -3.95 49.5 -3.95 48.95 -4.5 48.35 -5.1 48.35 -5.9 48.35 -6.65 48.95 -7.25 M48.7 -1.45 Q48.7 -2.15 49.15 -2.6 49.6 -3.05 50.3 -3.05 L51.45 -2.6 51.9 -1.45 51.9 8.1 51.45 9.25 50.3 9.7 Q49.6 9.7 49.15 9.25 48.7 8.8 48.7 8.1 L48.7 -1.45 M56.5 -3.05 Q57.75 -3.05 58.05 -2.1 L58.95 -2.7 61.2 -3.2 Q62.5 -3.2 63.2 -2.75 L63.2 -2.8 Q64.15 -2.3 64.1 -1.5 L64.1 -1.25 64.1 -1.1 Q63.75 -0.05 62.75 -0.05 L62.3 -0.1 62.35 -0.1 61.0 -0.25 Q59.65 -0.25 58.8 0.35 58.1 0.9 58.1 1.85 L58.1 8.15 Q58.1 8.85 57.7 9.25 L57.65 9.3 Q57.25 9.7 56.5 9.7 55.8 9.7 55.4 9.35 L55.35 9.3 Q54.95 8.85 54.95 8.15 L54.95 -1.5 Q54.95 -2.25 55.35 -2.6 55.8 -3.05 56.5 -3.05 M66.55 -8.05 Q67.2 -8.05 67.65 -7.6 68.1 -7.15 68.1 -6.5 L68.1 5.25 Q68.1 5.85 68.35 6.3 L68.7 6.55 69.2 6.55 Q69.9 6.55 70.25 7.0 L70.3 7.05 Q70.7 7.45 70.7 8.15 70.7 8.85 70.05 9.35 L68.7 9.7 Q67.6 9.7 66.75 9.15 65.85 8.55 65.4 7.5 64.95 6.45 64.95 5.25 L64.95 -6.5 Q64.95 -7.15 65.4 -7.6 65.85 -8.05 66.55 -8.05" fill="#e9d3fa" fill-rule="evenodd" stroke="none"/>
  </g>
  <defs>
    <linearGradient gradientTransform="matrix(0.0, -0.0374, 0.0569, 0.0, 51.5, -1.55)" gradientUnits="userSpaceOnUse" id="gradient0" spreadMethod="pad" x1="-819.2" x2="819.2">
      <stop offset="0.0" stop-color="#a183cf"/>
      <stop offset="1.0" stop-color="#835ebb" stop-opacity="0.8980392"/>
    </linearGradient>
  </defs>
</svg>
