<?xml version="1.0" encoding="UTF-8" standalone="no"?>
<svg xmlns:xlink="http://www.w3.org/1999/xlink" height="39.25px" width="26.55px" xmlns="http://www.w3.org/2000/svg">
  <g transform="matrix(1.0, 0.0, 0.0, 1.0, 13.75, 18.3)">
    <path d="M-2.15 -17.3 L1.4 -7.3 Q3.3 -1.85 6.2 2.9 L9.1 7.15 Q14.15 13.55 9.8 17.55 5.4 21.5 0.9 19.0 -3.75 16.45 -3.95 12.7 -4.2 8.9 -5.65 4.15 L-6.05 2.9 Q-7.75 -2.1 -12.4 -12.55 -12.85 -14.75 -12.7 -15.6 -10.35 -17.05 -7.35 -17.5 L-2.15 -17.3 M9.45 8.4 Q11.3 12.45 8.5 14.05 5.65 15.55 4.05 10.15 5.65 15.55 8.5 14.05 11.3 12.45 9.45 8.4" fill="#c6dbf3" fill-rule="evenodd" stroke="none"/>
    <path d="M-12.7 -15.6 Q-12.85 -14.75 -12.4 -12.55 -7.75 -2.1 -6.05 2.9 L-5.65 4.15 Q-4.2 8.9 -3.95 12.7 -3.75 16.45 0.9 19.0 5.4 21.5 9.8 17.55 14.15 13.55 9.1 7.15 L6.2 2.9 Q3.3 -1.85 1.4 -7.3 L-2.15 -17.3 M4.05 10.15 Q5.65 15.55 8.5 14.05 11.3 12.45 9.45 8.4" fill="none" stroke="#5e75a8" stroke-linecap="round" stroke-linejoin="round" stroke-width="2.0"/>
  </g>
</svg>
