<?xml version="1.0" encoding="UTF-8" standalone="no"?>
<svg xmlns:xlink="http://www.w3.org/1999/xlink" height="77.0px" width="42.5px" xmlns="http://www.w3.org/2000/svg">
  <g transform="matrix(1.0, 0.0, 0.0, 1.0, 20.7, 38.5)">
    <path d="M11.4 33.95 Q7.35 37.25 1.15 37.5 -11.8 36.95 -17.0 32.6 -22.2 28.2 -17.45 17.75 -12.95 8.0 -15.65 -0.5 -18.35 -9.05 -17.15 -14.7 -15.95 -20.4 -10.3 -23.15 -7.5 -24.7 -8.95 -35.75 -6.45 -37.7 -2.5 -37.5 2.25 -36.9 2.6 -33.9 2.55 -25.7 4.35 -23.25 L4.9 -22.65 7.8 -20.6 Q13.75 -16.15 14.4 -6.0 15.4 3.15 17.6 10.75 19.8 18.35 20.4 22.1 21.0 25.8 20.65 27.9 18.7 28.25 16.4 30.65 14.05 32.95 11.4 33.95 M4.35 -23.25 Q4.45 -19.55 2.7 -18.0 -6.3 -19.35 -9.25 -23.4 -6.3 -19.35 2.7 -18.0 4.45 -19.55 4.35 -23.25" fill="#c6dbf3" fill-rule="evenodd" stroke="none"/>
    <path d="M11.4 33.95 Q7.35 37.25 1.15 37.5 -11.8 36.95 -17.0 32.6 -22.2 28.2 -17.45 17.75 -12.95 8.0 -15.65 -0.5 -18.35 -9.05 -17.15 -14.7 -15.95 -20.4 -10.3 -23.15 -7.5 -24.7 -8.95 -35.75 -6.45 -37.7 -2.5 -37.5 2.25 -36.9 2.6 -33.9 2.55 -25.7 4.35 -23.25 L4.9 -22.65 7.8 -20.6 Q13.75 -16.15 14.4 -6.0 15.4 3.15 17.6 10.75 19.8 18.35 20.4 22.1 21.0 25.8 20.65 27.9 M-9.25 -23.4 Q-6.3 -19.35 2.7 -18.0 4.45 -19.55 4.35 -23.25" fill="none" stroke="#5e75a8" stroke-linecap="round" stroke-linejoin="round" stroke-width="2.0"/>
    <path d="M3.3 -16.6 Q5.25 -11.1 6.25 -3.7 L12.65 -4.6 M6.25 -3.7 Q7.65 6.6 7.25 20.6 M6.25 -3.7 Q0.0 -3.15 -7.5 -3.6" fill="none" stroke="#5e75a8" stroke-linecap="round" stroke-linejoin="round" stroke-opacity="0.49803922" stroke-width="2.0"/>
  </g>
</svg>
