<?xml version="1.0" encoding="UTF-8" standalone="no"?>
<svg xmlns:xlink="http://www.w3.org/1999/xlink" height="51.05px" width="25.35px" xmlns="http://www.w3.org/2000/svg">
  <g transform="matrix(1.0, 0.0, 0.0, 1.0, 13.1, 23.7)">
    <path d="M-9.8 -22.7 Q-5.05 -23.3 1.15 -22.7 L11.2 -21.25 Q11.4 -20.15 10.65 -16.5 7.95 -2.6 7.15 3.55 L6.9 5.7 Q6.45 11.15 6.45 13.4 L6.6 16.55 Q6.2 17.4 0.4 17.8 -9.25 18.2 -11.2 16.8 -9.25 18.2 0.4 17.8 6.2 17.4 6.6 16.55 L6.8 18.15 Q7.15 20.7 7.9 23.65 8.55 26.6 1.25 26.35 -6.05 26.05 -8.6 23.2 -10.45 21.05 -11.2 16.8 L-11.65 13.2 -12.1 3.55 Q-12.2 -2.6 -11.6 -7.8 L-10.25 -19.8 Q-10.35 -21.3 -9.8 -22.7" fill="#c6dbf3" fill-rule="evenodd" stroke="none"/>
    <path d="M-9.8 -22.7 Q-10.35 -21.3 -10.25 -19.8 L-11.6 -7.8 Q-12.2 -2.6 -12.1 3.55 L-11.65 13.2 -11.2 16.8 Q-9.25 18.2 0.4 17.8 6.2 17.4 6.6 16.55 L6.45 13.4 Q6.45 11.15 6.9 5.7 L7.15 3.55 Q7.95 -2.6 10.65 -16.5 11.4 -20.15 11.2 -21.25 M-11.2 16.8 Q-10.45 21.05 -8.6 23.2 -6.05 26.05 1.25 26.35 8.55 26.6 7.9 23.65 7.15 20.7 6.8 18.15 L6.6 16.55" fill="none" stroke="#5e75a8" stroke-linecap="round" stroke-linejoin="round" stroke-width="2.0"/>
  </g>
</svg>
