<?xml version="1.0" encoding="UTF-8" standalone="no"?>
<svg xmlns:xlink="http://www.w3.org/1999/xlink" height="53.1px" width="25.0px" xmlns="http://www.w3.org/2000/svg">
  <g transform="matrix(1.0, 0.0, 0.0, 1.0, 13.5, 24.75)">
    <path d="M-8.1 -23.75 Q-5.05 -25.5 3.8 -20.4 10.2 -17.1 10.2 -13.2 11.25 2.75 8.35 20.1 6.95 27.6 -1.35 27.35 -10.45 26.25 -11.7 21.25 -12.95 16.2 -12.25 3.25 -10.75 -15.25 -8.1 -23.75" fill="#c6dbf3" fill-rule="evenodd" stroke="none"/>
    <path d="M-8.1 -23.75 Q-10.75 -15.25 -12.25 3.25 -12.95 16.2 -11.7 21.25 -10.45 26.25 -1.35 27.35 6.95 27.6 8.35 20.1 11.25 2.75 10.2 -13.2" fill="none" stroke="#5e75a8" stroke-linecap="round" stroke-linejoin="round" stroke-width="2.0"/>
  </g>
</svg>
