<?xml version="1.0" encoding="UTF-8" standalone="no"?>
<svg xmlns:xlink="http://www.w3.org/1999/xlink" height="40.75px" width="26.4px" xmlns="http://www.w3.org/2000/svg">
  <g transform="matrix(1.0, 0.0, 0.0, 1.0, 13.05, 20.25)">
    <path d="M12.35 -15.8 Q10.65 -8.6 7.8 -1.9 L6.4 3.55 6.2 4.35 Q5.2 8.55 5.5 10.05 L6.0 13.85 Q6.2 16.1 3.7 16.6 1.2 17.1 0.85 13.9 0.65 16.2 -0.45 17.55 -1.6 18.85 -4.45 19.4 -7.4 19.9 -9.5 18.35 -11.7 16.75 -12.05 13.55 -12.35 10.7 -8.2 3.55 L-6.75 1.05 1.4 -18.45 1.85 -19.25 3.45 -19.7 Q4.65 -19.95 7.5 -18.9 10.25 -17.85 12.0 -16.15 L12.35 -15.8" fill="#c6dbf3" fill-rule="evenodd" stroke="none"/>
    <path d="M12.35 -15.8 Q10.65 -8.6 7.8 -1.9 L6.4 3.55 6.2 4.35 Q5.2 8.55 5.5 10.05 L6.0 13.85 Q6.2 16.1 3.7 16.6 1.2 17.1 0.85 13.9 0.65 16.2 -0.45 17.55 -1.6 18.85 -4.45 19.4 -7.4 19.9 -9.5 18.35 -11.7 16.75 -12.05 13.55 -12.35 10.7 -8.2 3.55 L-6.75 1.05 1.4 -18.45 1.85 -19.25" fill="none" stroke="#5e75a8" stroke-linecap="round" stroke-linejoin="round" stroke-width="2.0"/>
  </g>
</svg>
