<?xml version="1.0" encoding="UTF-8" standalone="no"?>
<svg xmlns:xlink="http://www.w3.org/1999/xlink" height="107.25px" width="110.4px" xmlns="http://www.w3.org/2000/svg">
  <g transform="matrix(1.0, 0.0, 0.0, 1.0, 58.25, 106.95)">
    <path d="M-51.0 -35.5 Q-54.5 -45.15 -55.3 -53.05 -55.65 -77.05 -42.7 -90.4 -23.3 -108.25 3.05 -105.6 37.15 -102.15 46.8 -75.5 52.9 -60.7 50.4 -40.95 48.8 -36.75 49.95 -26.7 51.55 -16.3 40.4 -7.8 33.25 -2.05 16.55 -1.2 -15.95 0.9 -28.55 -5.6 -34.1 -8.55 -37.6 -12.3 L-41.9 -17.05 Q-43.15 -15.7 -47.0 -16.3 -50.7 -17.05 -54.5 -22.5 -59.6 -29.2 -55.3 -34.15 -53.55 -35.5 -51.0 -35.5 L-51.0 -35.1 -50.2 -34.75 -47.75 -32.55 -50.2 -34.75 -51.0 -35.1 -51.0 -35.5" fill="#c6dbf3" fill-rule="evenodd" stroke="none"/>
    <path d="M-51.0 -35.5 Q-53.55 -35.5 -55.3 -34.15 -59.6 -29.2 -54.5 -22.5 -50.7 -17.05 -47.0 -16.3 -43.15 -15.7 -41.9 -17.05 L-37.6 -12.3 Q-34.1 -8.55 -28.55 -5.6 -15.95 0.9 16.55 -1.2 33.25 -2.05 40.4 -7.8 51.55 -16.3 49.95 -26.7 48.8 -36.75 50.4 -40.95 52.9 -60.7 46.8 -75.5 37.15 -102.15 3.05 -105.6 -23.3 -108.25 -42.7 -90.4 -55.65 -77.05 -55.3 -53.05 -54.5 -45.15 -51.0 -35.5 L-51.0 -35.1 -50.2 -34.75 -47.75 -32.55" fill="none" stroke="#5e75a8" stroke-linecap="round" stroke-linejoin="round" stroke-width="2.0"/>
    <path d="M13.35 -3.3 Q24.95 -4.35 26.45 -28.05 25.4 -98.5 -0.65 -102.8" fill="none" stroke="#5e75a8" stroke-linecap="round" stroke-linejoin="round" stroke-opacity="0.49803922" stroke-width="2.0"/>
    <path d="M-30.45 -30.45 Q28.2 -33.4 46.9 -30.45" fill="none" stroke="#5e75a8" stroke-linecap="round" stroke-linejoin="round" stroke-opacity="0.49803922" stroke-width="2.0"/>
  </g>
</svg>
