<?xml version="1.0" encoding="UTF-8" standalone="no"?>
<svg xmlns:xlink="http://www.w3.org/1999/xlink" height="40.8px" width="33.8px" xmlns="http://www.w3.org/2000/svg">
  <g transform="matrix(1.0, 0.0, 0.0, 1.0, 16.9, 20.4)">
    <path d="M4.65 -16.4 L3.6 -2.45 -1.95 -4.5 -0.6 -14.85 4.65 -16.4 -0.6 -14.85 -1.95 -4.5 3.6 -2.45 Q6.15 -0.25 6.9 1.35 L16.4 5.25 16.4 13.75 -0.6 19.9 -12.55 13.0 -12.2 5.25 -16.4 1.5 -15.45 -15.45 0.35 -19.9 4.65 -16.4 M-0.25 10.45 L-0.6 19.9 -0.25 10.45 -0.8 10.6 -7.7 7.35 Q-8.7 4.45 -11.8 1.3 L-11.6 -0.9 -10.45 -11.95 -0.6 -14.85 -10.45 -11.95 -11.6 -0.9 -1.95 -4.5 -11.6 -0.9 -11.8 1.3 Q-8.7 4.45 -7.7 7.35 L-0.8 10.6 -0.25 10.45 16.4 5.25 -0.25 10.45 M-10.45 -11.95 L-15.45 -15.45 -10.45 -11.95 M8.95 3.85 L-2.85 7.35 8.95 3.85" fill="#c6dbf3" fill-rule="evenodd" stroke="none"/>
    <path d="M3.6 -2.45 L4.65 -16.4 -0.6 -14.85 -1.95 -4.5 3.6 -2.45 Q6.15 -0.25 6.9 1.35 L16.4 5.25 16.4 13.75 -0.6 19.9 -12.55 13.0 -12.2 5.25 -16.4 1.5 -15.45 -15.45 0.35 -19.9 4.65 -16.4 M-0.6 -14.85 L-10.45 -11.95 -11.6 -0.9 -1.95 -4.5 M-15.45 -15.45 L-10.45 -11.95 M-11.6 -0.9 L-11.8 1.3 Q-8.7 4.45 -7.7 7.35 L-0.8 10.6 -0.25 10.45 16.4 5.25 M-0.6 19.9 L-0.25 10.45" fill="none" stroke="#5e75a8" stroke-linecap="round" stroke-linejoin="round" stroke-width="1.0"/>
    <path d="M-2.85 7.35 L8.95 3.85" fill="none" stroke="#5e75a8" stroke-linecap="round" stroke-linejoin="round" stroke-width="0.5"/>
    <path d="M2.1 0.05 Q5.8 -1.0 7.85 3.9 L6.35 4.4 5.65 4.5 Q4.8 1.55 2.85 2.3 0.9 3.1 0.8 5.95 L-1.9 6.75 Q-1.75 0.95 2.1 0.05" fill="#c6dbf3" fill-rule="evenodd" stroke="none"/>
    <path d="M2.1 0.05 Q5.8 -1.0 7.85 3.9 L6.35 4.4 5.65 4.5 Q4.8 1.55 2.85 2.3 0.9 3.1 0.8 5.95 L-1.9 6.75 Q-1.75 0.95 2.1 0.05 Z" fill="none" stroke="#5e75a8" stroke-linecap="round" stroke-linejoin="round" stroke-width="0.5"/>
    <path d="M3.15 0.95 L-0.6 -1.8 0.75 -4.65 3.8 -5.4 6.0 -2.95 3.15 0.95" fill="#c6dbf3" fill-rule="evenodd" stroke="none"/>
    <path d="M3.15 0.95 L-0.6 -1.8 0.75 -4.65 3.8 -5.4 6.0 -2.95 3.15 0.95 Z" fill="none" stroke="#5e75a8" stroke-linecap="round" stroke-linejoin="round" stroke-width="0.5"/>
  </g>
</svg>
