<?xml version="1.0" encoding="UTF-8" standalone="no"?>
<svg xmlns:xlink="http://www.w3.org/1999/xlink" height="135.55px" width="35.3px" xmlns="http://www.w3.org/2000/svg">
  <g transform="matrix(1.0, 0.0, 0.0, 1.0, 18.15, 118.85)">
    <path d="M-0.85 -117.75 L-0.85 -117.8 -0.45 -117.2 -0.85 -117.75 M9.6 -22.2 L9.6 -22.15 -11.2 -22.15 -11.2 -22.2 -0.9 -22.2 9.6 -22.2" fill="#d7b899" fill-rule="evenodd" stroke="none"/>
    <path d="M16.15 -11.65 L16.15 -11.6 4.8 -11.6 4.8 -11.65 4.8 -11.6 -6.9 -11.6 -17.15 -11.6 -17.15 -11.65 -6.9 -11.65 -6.9 -11.6 -6.9 -11.65 4.8 -11.65 16.15 -11.65" fill="#af4d4d" fill-rule="evenodd" stroke="none"/>
    <path d="M16.15 -22.15 L16.15 -11.65 4.8 -11.65 -6.9 -11.65 -17.15 -11.65 -17.15 -22.15 -11.2 -22.15 9.6 -22.15 16.15 -22.15 M4.8 -11.6 L3.85 15.7 -5.7 15.7 -6.9 -11.6 4.8 -11.6 M-0.45 -117.2 L9.6 -101.95 9.6 -22.2 -0.9 -22.2 -11.2 -22.2 -11.2 -101.95 -0.9 -117.7 -0.9 -22.2 -0.9 -117.7 -0.85 -117.75 -0.45 -117.2" fill="#c6dbf3" fill-rule="evenodd" stroke="none"/>
    <path d="M9.6 -22.2 L16.15 -22.2 16.15 -22.15 16.15 -11.65 4.8 -11.65 -6.9 -11.65 -17.15 -11.65 -17.15 -22.15 -17.15 -22.2 -11.25 -22.2 -11.25 -101.95 -0.9 -117.85 -0.85 -117.75 -0.45 -117.2 9.6 -101.95 9.6 -22.2 -0.9 -22.2 -11.2 -22.2 -11.25 -22.2 M4.8 -11.6 L3.85 15.7 -5.7 15.7 -6.9 -11.6 -6.9 -11.65 M4.8 -11.65 L4.8 -11.6 M-0.9 -117.7 L-0.9 -117.85" fill="none" stroke="#5e75a8" stroke-linecap="round" stroke-linejoin="round" stroke-width="2.0"/>
    <path d="M-0.9 -22.2 L-0.9 -117.7" fill="none" stroke="#5e75a8" stroke-linecap="round" stroke-linejoin="round" stroke-opacity="0.49803922" stroke-width="2.0"/>
  </g>
</svg>
