<?xml version="1.0" encoding="UTF-8" standalone="no"?>
<svg xmlns:xlink="http://www.w3.org/1999/xlink" height="35.8px" width="35.8px" xmlns="http://www.w3.org/2000/svg">
  <g transform="matrix(1.0, 0.0, 0.0, 1.0, 17.9, 17.9)">
    <path d="M-17.4 -17.4 L17.4 -17.4 17.4 17.4 -17.4 17.4 -17.4 -17.4 M-14.65 -14.55 L-14.65 14.6 14.55 14.6 14.55 -14.55 -14.65 -14.55" fill="url(#gradient0)" fill-rule="evenodd" stroke="none"/>
    <path d="M-14.65 -14.55 L14.55 -14.55 14.55 14.6 -14.65 14.6 -14.65 -14.55" fill="url(#gradient1)" fill-rule="evenodd" stroke="none"/>
    <path d="M-14.65 -14.55 L14.55 -14.55 14.55 14.6 -14.65 14.6 -14.65 -14.55" fill="none" stroke="#000000" stroke-linecap="round" stroke-linejoin="round" stroke-opacity="0.30980393" stroke-width="1.0"/>
    <path d="M-17.4 -17.4 L17.4 -17.4 17.4 17.4 -17.4 17.4 -17.4 -17.4" fill="none" stroke="#000000" stroke-linecap="round" stroke-linejoin="round" stroke-opacity="0.8" stroke-width="1.0"/>
  </g>
  <defs>
    <linearGradient gradientTransform="matrix(0.0121, 0.0197, -0.0249, 0.0153, 0.4, 0.55)" gradientUnits="userSpaceOnUse" id="gradient0" spreadMethod="pad" x1="-819.2" x2="819.2">
      <stop offset="0.00784313725490196" stop-color="#f3d1a9"/>
      <stop offset="0.47058823529411764" stop-color="#b7deec"/>
      <stop offset="1.0" stop-color="#eebde8"/>
    </linearGradient>
    <linearGradient gradientTransform="matrix(0.0121, 0.0197, -0.0249, 0.0153, 0.4, 0.55)" gradientUnits="userSpaceOnUse" id="gradient1" spreadMethod="pad" x1="-819.2" x2="819.2">
      <stop offset="0.0" stop-color="#ffe5a3"/>
      <stop offset="0.47058823529411764" stop-color="#93d6ec"/>
      <stop offset="1.0" stop-color="#d592ee"/>
    </linearGradient>
  </defs>
</svg>
