<?xml version="1.0" encoding="UTF-8" standalone="no"?>
<svg xmlns:xlink="http://www.w3.org/1999/xlink" height="102.45px" width="197.7px" xmlns="http://www.w3.org/2000/svg">
  <g transform="matrix(1.0, 0.0, 0.0, 1.0, 98.45, 50.95)">
    <path d="M90.0 -48.1 L8.3 -48.1 Q2.55 -48.1 2.55 -42.35 L2.55 -11.7 Q2.55 -6.0 8.3 -6.0 L90.0 -6.0 Q95.75 -6.0 95.75 -11.7 L95.75 -42.35 Q95.75 -48.1 90.0 -48.1 M8.3 -50.2 L90.0 -50.2 Q98.5 -50.2 98.5 -41.8 L98.5 -11.15 Q98.5 -2.65 90.0 -2.65 L8.3 -2.65 Q-0.15 -2.65 -0.15 -11.15 L-0.15 -41.8 Q-0.15 -50.2 8.3 -50.2 M8.3 2.6 L90.0 2.6 Q98.5 2.6 98.5 11.0 L98.5 41.65 Q98.5 50.15 90.0 50.15 L8.3 50.15 Q-0.15 50.15 -0.15 41.65 L-0.15 11.0 Q-0.15 2.6 8.3 2.6 M-18.75 -48.1 L-89.25 -48.1 Q-95.0 -48.1 -95.0 -42.35 L-95.0 41.7 Q-95.0 47.4 -89.25 47.4 L-18.75 47.4 Q-13.0 47.4 -13.0 41.7 L-13.0 -42.35 Q-13.0 -48.1 -18.75 -48.1 M90.0 4.7 L8.3 4.7 Q2.55 4.7 2.55 10.45 L2.55 41.1 Q2.55 46.8 8.3 46.8 L90.0 46.8 Q95.75 46.8 95.75 41.1 L95.75 10.45 Q95.75 4.7 90.0 4.7 M-89.25 -50.2 L-18.75 -50.2 Q-10.25 -50.2 -10.25 -41.8 L-10.25 42.25 Q-10.25 50.75 -18.75 50.75 L-89.25 50.75 Q-97.7 50.75 -97.7 42.25 L-97.7 -41.8 Q-97.7 -50.2 -89.25 -50.2" fill="#9b9adb" fill-rule="evenodd" stroke="none"/>
    <path d="M90.0 -48.1 Q95.75 -48.1 95.75 -42.35 L95.75 -11.7 Q95.75 -6.0 90.0 -6.0 L8.3 -6.0 Q2.55 -6.0 2.55 -11.7 L2.55 -42.35 Q2.55 -48.1 8.3 -48.1 L90.0 -48.1 M90.0 4.7 Q95.75 4.7 95.75 10.45 L95.75 41.1 Q95.75 46.8 90.0 46.8 L8.3 46.8 Q2.55 46.8 2.55 41.1 L2.55 10.45 Q2.55 4.7 8.3 4.7 L90.0 4.7 M-18.75 -48.1 Q-13.0 -48.1 -13.0 -42.35 L-13.0 41.7 Q-13.0 47.4 -18.75 47.4 L-89.25 47.4 Q-95.0 47.4 -95.0 41.7 L-95.0 -42.35 Q-95.0 -48.1 -89.25 -48.1 L-18.75 -48.1" fill="#d4d6ff" fill-rule="evenodd" stroke="none"/>
    <path d="M8.3 -50.2 L90.0 -50.2 Q98.5 -50.2 98.5 -41.8 L98.5 -11.15 Q98.5 -2.65 90.0 -2.65 L8.3 -2.65 Q-0.15 -2.65 -0.15 -11.15 L-0.15 -41.8 Q-0.15 -50.2 8.3 -50.2 M8.3 2.6 L90.0 2.6 Q98.5 2.6 98.5 11.0 L98.5 41.65 Q98.5 50.15 90.0 50.15 L8.3 50.15 Q-0.15 50.15 -0.15 41.65 L-0.15 11.0 Q-0.15 2.6 8.3 2.6 M-89.25 -50.2 L-18.75 -50.2 Q-10.25 -50.2 -10.25 -41.8 L-10.25 42.25 Q-10.25 50.75 -18.75 50.75 L-89.25 50.75 Q-97.7 50.75 -97.7 42.25 L-97.7 -41.8 Q-97.7 -50.2 -89.25 -50.2" fill="none" stroke="#323958" stroke-linecap="round" stroke-linejoin="round" stroke-width="1.5"/>
    <path d="M-5.4 -47.45 L-5.4 47.45" fill="none" stroke="#d5dae9" stroke-linecap="round" stroke-linejoin="round" stroke-opacity="0.49803922" stroke-width="1.5"/>
  </g>
</svg>
