<?xml version="1.0" encoding="UTF-8" standalone="no"?>
<svg xmlns:xlink="http://www.w3.org/1999/xlink" height="89.35px" width="66.75px" xmlns="http://www.w3.org/2000/svg">
  <g transform="matrix(1.0, 0.0, 0.0, 1.0, 32.5, 62.05)">
    <path d="M-22.9 -60.95 L-13.5 -61.5 Q-6.75 -62.1 -5.3 -55.85 L0.05 -31.75 Q1.7 -27.2 3.35 -25.0 6.8 -20.25 16.5 -20.55 23.5 -20.4 27.5 -17.55 31.95 -14.8 29.7 -12.75 L28.45 -11.8 26.15 -10.15 28.45 -11.8 33.75 20.0 Q32.8 20.6 31.35 20.0 L26.15 -10.15 Q21.7 -7.15 14.0 -3.25 L12.4 -2.35 Q8.85 -0.95 4.8 -2.3 L1.8 -3.4 4.8 -2.3 3.35 -1.6 0.45 7.85 4.4 26.25 1.25 26.4 -0.05 19.8 -1.2 13.65 -2.05 9.35 -1.2 13.65 -2.65 20.05 Q-4.05 20.35 -4.65 19.65 L-4.6 19.35 -2.05 9.35 Q-3.7 1.55 -4.95 -3.15 -5.5 -4.95 -13.85 -5.9 L-16.3 -6.15 Q-20.0 -6.25 -22.4 -6.9 -24.05 -7.4 -25.25 -8.05 -24.05 -7.4 -22.4 -6.9 -20.0 -6.25 -16.3 -6.15 -20.85 -6.05 -23.55 -3.7 L-28.35 22.65 Q-30.25 23.45 -31.1 22.45 L-25.25 -8.05 -26.3 -8.85 Q-29.75 -11.95 -29.65 -30.1 L-29.55 -31.75 Q-30.3 -49.5 -32.0 -58.35 L-31.55 -59.35 Q-30.8 -60.4 -28.95 -60.6 L-23.2 -60.9 -22.9 -60.95 M-3.75 -5.1 L-13.85 -5.9 -3.75 -5.1 -2.7 -4.8 -1.95 -2.15 -1.2 0.55 -1.95 -2.15 1.8 -3.4 -2.75 -4.95 -3.75 -5.1 M-0.45 4.0 L0.45 7.85 -0.45 4.0 1.05 -0.6 -1.2 0.55 -0.45 4.0" fill="#c6dbf3" fill-rule="evenodd" stroke="none"/>
    <path d="M28.45 -11.8 L29.7 -12.75 Q31.95 -14.8 27.5 -17.55 23.5 -20.4 16.5 -20.55 6.8 -20.25 3.35 -25.0 1.7 -27.2 0.05 -31.75 L-5.3 -55.85 Q-6.75 -62.1 -13.5 -61.5 L-22.9 -60.95 M-23.2 -60.9 L-28.95 -60.6 Q-30.8 -60.4 -31.55 -59.35 L-32.0 -58.35 Q-30.3 -49.5 -29.55 -31.75 L-29.65 -30.1 Q-29.75 -11.95 -26.3 -8.85 L-25.25 -8.05 Q-24.05 -7.4 -22.4 -6.9 -20.0 -6.25 -16.3 -6.15 L-13.85 -5.9 -3.75 -5.1 -2.75 -4.95 1.8 -3.4 4.8 -2.3 Q8.85 -0.95 12.4 -2.35 L14.0 -3.25 Q21.7 -7.15 26.15 -10.15 L28.45 -11.8 33.75 20.0 Q32.8 20.6 31.35 20.0 L26.15 -10.15 M0.45 7.85 L3.35 -1.6 4.8 -2.3 M-1.2 13.65 L-0.05 19.8 1.25 26.4 4.4 26.25 0.45 7.85 -0.45 4.0 -1.2 0.55 -1.95 -2.15 -2.7 -4.8 -3.75 -5.1 M-13.85 -5.9 Q-5.5 -4.95 -4.95 -3.15 -3.7 1.55 -2.05 9.35 L-1.2 13.65 -2.65 20.05 Q-4.05 20.35 -4.65 19.65 M-4.6 19.35 L-2.05 9.35 M-25.25 -8.05 L-31.1 22.45 Q-30.25 23.45 -28.35 22.65 L-23.55 -3.7 Q-20.85 -6.05 -16.3 -6.15 M1.8 -3.4 L-1.95 -2.15 M-1.2 0.55 L1.05 -0.6 -0.45 4.0" fill="none" stroke="#5e75a8" stroke-linecap="round" stroke-linejoin="round" stroke-width="1.0"/>
  </g>
</svg>
