<?xml version="1.0" encoding="UTF-8" standalone="no"?>
<svg xmlns:xlink="http://www.w3.org/1999/xlink" height="32.6px" width="42.45px" xmlns="http://www.w3.org/2000/svg">
  <g transform="matrix(1.0, 0.0, 0.0, 1.0, 11.95, 12.65)">
    <path d="M9.3 -6.8 Q12.6 -7.25 13.75 -8.9 L9.3 -8.5 4.8 -8.95 Q5.95 -7.25 9.3 -6.8 M27.05 -2.75 L17.15 -8.6 Q16.0 -4.6 9.5 -3.8 L9.15 -3.8 Q2.55 -4.6 1.4 -8.7 L-8.45 -3.1 -4.6 4.7 -1.1 2.7 -0.05 2.55 Q0.45 2.65 0.8 3.05 1.15 3.45 1.15 4.0 L1.15 16.95 17.45 16.95 17.45 4.0 Q17.45 3.45 17.8 3.05 18.15 2.65 18.7 2.55 L19.7 2.7 23.25 4.75 27.05 -2.75 M29.8 -4.65 Q30.3 -4.35 30.45 -3.75 30.6 -3.2 30.35 -2.65 L25.2 7.5 24.65 8.1 23.9 8.3 23.1 8.1 20.45 6.6 20.45 18.45 Q20.45 19.05 20.0 19.5 19.55 19.95 18.95 19.95 L-0.35 19.95 Q-0.95 19.95 -1.4 19.5 L-1.85 18.45 -1.85 6.6 -4.5 8.1 -5.25 8.3 -6.05 8.1 -6.6 7.5 -11.8 -3.0 Q-12.05 -3.55 -11.85 -4.15 L-11.2 -5.0 1.95 -12.45 2.1 -12.5 2.2 -12.55 2.8 -12.65 3.1 -12.6 3.2 -12.55 3.45 -12.45 Q6.1 -11.5 9.3 -11.5 L9.35 -11.5 Q12.55 -11.45 15.25 -12.5 L15.3 -12.55 15.75 -12.65 15.9 -12.65 16.65 -12.45 29.8 -4.65" fill="#53547c" fill-rule="evenodd" stroke="none"/>
  </g>
</svg>
