<?xml version="1.0" encoding="UTF-8" standalone="no"?>
<svg xmlns:xlink="http://www.w3.org/1999/xlink" height="86.5px" width="87.35px" xmlns="http://www.w3.org/2000/svg">
  <g transform="matrix(1.0, 0.0, 0.0, 1.0, 85.2, 60.3)">
    <path d="M-64.4 -25.95 Q-65.6 -29.25 -66.2 -32.35 L-66.4 -34.45 -66.45 -34.6 Q-67.45 -45.6 -59.1 -53.25 -55.5 -56.55 -50.15 -59.2 -55.6 -59.65 -61.0 -58.05 -68.35 -55.9 -75.65 -50.0 L-77.55 -48.0 Q-86.5 -37.75 -83.4 -23.45 -79.25 -10.3 -69.95 -5.5 -67.8 -4.35 -65.8 -4.05 -63.75 -3.8 -61.85 -4.6 -58.7 -5.75 -55.95 -9.8 -51.3 -18.25 -52.15 -23.8 -54.85 -31.7 -66.2 -32.35 M-55.95 -9.8 Q-48.9 4.05 -41.9 2.05 -35.6 -0.65 -31.05 1.2 L-31.0 1.05 -29.45 -0.4 -29.3 -0.45 -27.65 -1.5 -27.55 -1.6 Q-24.05 -3.4 -19.05 -2.8 L-12.4 -1.85 Q-4.75 -0.2 -1.0 5.05 4.75 13.2 -4.85 21.0 -21.1 28.65 -28.5 22.35 -54.6 18.15 -61.85 -4.6 M-31.05 1.2 Q-32.2 2.45 -33.1 4.25 -36.4 10.95 -32.4 17.55 -31.15 19.7 -29.15 21.8 L-28.5 22.35" fill="none" stroke="#000000" stroke-linecap="round" stroke-linejoin="round" stroke-width="2.0"/>
  </g>
</svg>
