<?xml version="1.0" encoding="UTF-8" standalone="no"?>
<svg xmlns:xlink="http://www.w3.org/1999/xlink" height="49.2px" width="56.5px" xmlns="http://www.w3.org/2000/svg">
  <g transform="matrix(1.0, 0.0, 0.0, 1.0, 28.25, 24.6)">
    <path d="M-18.8 -24.1 L18.7 -24.1 Q27.75 -24.1 27.75 -15.55 L27.75 15.5 Q27.75 24.1 18.7 24.1 L-18.8 24.1 Q-27.75 24.1 -27.75 15.5 L-27.75 -15.55 Q-27.75 -24.1 -18.8 -24.1 M-24.9 -16.25 L-24.9 14.75 Q-24.85 20.35 -18.8 20.35 L18.7 20.35 Q24.75 20.35 24.8 14.75 L24.8 -16.25 Q24.75 -21.8 18.7 -21.8 L-18.8 -21.8 Q-24.85 -21.8 -24.9 -16.25" fill="#b7d0ec" fill-opacity="0.4" fill-rule="evenodd" stroke="none"/>
    <path d="M-24.9 -16.25 Q-24.85 -21.8 -18.8 -21.8 L18.7 -21.8 Q24.75 -21.8 24.8 -16.25 L24.8 14.75 Q24.75 20.35 18.7 20.35 L-18.8 20.35 Q-24.85 20.35 -24.9 14.75 L-24.9 -16.25" fill="#d9edff" fill-opacity="0.44705883" fill-rule="evenodd" stroke="none"/>
    <path d="M-18.8 -24.1 L18.7 -24.1 Q27.75 -24.1 27.75 -15.55 L27.75 15.5 Q27.75 24.1 18.7 24.1 L-18.8 24.1 Q-27.75 24.1 -27.75 15.5 L-27.75 -15.55 Q-27.75 -24.1 -18.8 -24.1 Z" fill="none" stroke="#182a43" stroke-linecap="round" stroke-linejoin="round" stroke-opacity="0.21960784" stroke-width="1.0"/>
  </g>
</svg>
