<?xml version="1.0" encoding="UTF-8" standalone="no"?>
<svg xmlns:xlink="http://www.w3.org/1999/xlink" height="57.6px" width="84.05px" xmlns="http://www.w3.org/2000/svg">
  <g transform="matrix(1.0, 0.0, 0.0, 1.0, 27.4, 36.45)">
    <path d="M-23.55 -26.7 Q-23.5 -33.25 -16.4 -33.25 L45.95 -33.25 47.15 -33.15 Q52.6 -32.45 52.7 -26.7 L52.7 9.7 Q52.6 15.45 47.15 16.2 L45.85 16.3 -16.4 16.3 Q-23.5 16.3 -23.55 9.7 L-23.55 -26.7" fill="#d9edff" fill-opacity="0.9098039" fill-rule="evenodd" stroke="none"/>
    <path d="M47.15 20.65 L46.4 20.65 -16.4 20.65 Q-26.9 20.65 -26.9 10.6 L-26.9 -25.9 Q-26.9 -35.95 -16.4 -35.95 L46.25 -35.95 47.15 -35.95 47.15 -35.85 Q56.15 -35.1 56.15 -25.9 L56.15 10.6 Q56.15 19.85 47.15 20.6 L47.15 20.65 M47.15 -35.85 L46.25 -35.95 47.15 -35.85 M-23.55 -26.7 L-23.55 9.7 Q-23.5 16.3 -16.4 16.3 L45.85 16.3 47.15 16.2 Q52.6 15.45 52.7 9.7 L52.7 -26.7 Q52.6 -32.45 47.15 -33.15 L45.95 -33.25 -16.4 -33.25 Q-23.5 -33.25 -23.55 -26.7 M46.4 20.65 L47.15 20.6 46.4 20.65" fill="#b7d0ec" fill-opacity="0.8666667" fill-rule="evenodd" stroke="none"/>
    <path d="M47.15 20.65 L46.4 20.65 -16.4 20.65 Q-26.9 20.65 -26.9 10.6 L-26.9 -25.9 Q-26.9 -35.95 -16.4 -35.95 L46.25 -35.95 47.15 -35.95 M47.15 -35.85 Q56.15 -35.1 56.15 -25.9 L56.15 10.6 Q56.15 19.85 47.15 20.6 L46.4 20.65 M46.25 -35.95 L47.15 -35.85" fill="none" stroke="#182a43" stroke-linecap="round" stroke-linejoin="round" stroke-opacity="0.70980394" stroke-width="1.0"/>
  </g>
</svg>
