<?xml version="1.0" encoding="UTF-8" standalone="no"?>
<svg xmlns:xlink="http://www.w3.org/1999/xlink" height="57.45px" width="155.05px" xmlns="http://www.w3.org/2000/svg">
  <g transform="matrix(1.0, 0.0, 0.0, 1.0, 77.65, 28.7)">
    <path d="M-0.15 23.85 L65.85 23.85 Q73.2 23.85 73.3 17.3 L73.3 -19.0 Q73.2 -25.5 65.85 -25.5 L-0.15 -25.5 -0.15 -28.2 -0.15 -25.5 -66.2 -25.5 Q-73.55 -25.5 -73.65 -19.0 L-73.65 17.3 Q-73.55 23.85 -66.2 23.85 L-0.15 23.85 -0.15 28.25 -0.15 23.85 M-0.15 -28.2 L65.85 -28.2 Q76.9 -28.2 76.9 -18.15 L76.9 18.15 Q76.9 28.25 65.85 28.25 L-0.15 28.25 -66.2 28.25 Q-77.15 28.25 -77.15 18.15 L-77.15 -18.15 Q-77.15 -28.2 -66.2 -28.2 L-0.15 -28.2 M-0.15 -22.8 L24.1 -22.8 24.1 21.0 -0.15 21.0 -24.2 21.0 -24.2 -22.8 -0.15 -22.8" fill="#b7d0ec" fill-opacity="0.827451" fill-rule="evenodd" stroke="none"/>
    <path d="M-0.15 -25.5 L65.85 -25.5 Q73.2 -25.5 73.3 -19.0 L73.3 17.3 Q73.2 23.85 65.85 23.85 L-0.15 23.85 -0.15 21.0 -0.15 23.85 -66.2 23.85 Q-73.55 23.85 -73.65 17.3 L-73.65 -19.0 Q-73.55 -25.5 -66.2 -25.5 L-0.15 -25.5 -0.15 -22.8 -0.15 -25.5 M-0.15 21.0 L24.1 21.0 24.1 -22.8 -0.15 -22.8 -24.2 -22.8 -24.2 21.0 -0.15 21.0" fill="#d9edff" fill-opacity="0.8980392" fill-rule="evenodd" stroke="none"/>
    <path d="M-0.15 23.85 L-0.15 28.25 65.85 28.25 Q76.9 28.25 76.9 18.15 L76.9 -18.15 Q76.9 -28.2 65.85 -28.2 L-0.15 -28.2 -0.15 -25.5 -0.15 -22.8 24.1 -22.8 24.1 21.0 -0.15 21.0 -0.15 23.85 M-0.15 28.25 L-66.2 28.25 Q-77.15 28.25 -77.15 18.15 L-77.15 -18.15 Q-77.15 -28.2 -66.2 -28.2 L-0.15 -28.2 M-0.15 21.0 L-24.2 21.0 -24.2 -22.8 -0.15 -22.8" fill="none" stroke="#182a43" stroke-linecap="round" stroke-linejoin="round" stroke-opacity="0.54901963" stroke-width="1.0"/>
    <path d="M41.95 9.0 L41.95 -10.5 56.0 -0.6 41.95 9.0 M-44.05 9.0 L-58.05 -0.6 -44.05 -10.5 -44.05 9.0" fill="#627298" fill-rule="evenodd" stroke="none"/>
  </g>
</svg>
