<?xml version="1.0" encoding="UTF-8" standalone="no"?>
<svg xmlns:xlink="http://www.w3.org/1999/xlink" height="577.2px" width="993.85px" xmlns="http://www.w3.org/2000/svg">
  <g transform="matrix(1.0, 0.0, 0.0, 1.0, 1178.5, 306.7)">
    <path d="M-185.65 -199.75 L-185.65 269.5 -704.0 269.5 -704.0 -199.75 -185.65 -199.75" fill="#767eb1" fill-opacity="0.9372549" fill-rule="evenodd" stroke="none"/>
    <path d="M-704.0 -300.4 L-704.0 -305.7 -185.65 -305.7 -185.65 -199.75 -704.0 -199.75 -704.0 -300.4" fill="#c1c4e5" fill-opacity="0.9372549" fill-rule="evenodd" stroke="none"/>
    <path d="M-704.0 269.5 L-1178.5 269.5 -1178.5 -301.6 -704.0 -300.4 -704.0 -199.75 -704.0 269.5 M-994.0 -259.15 L-994.0 -211.85 -925.45 -211.85 -925.45 -259.15 -994.0 -259.15" fill="#0b0b19" fill-opacity="0.007843138" fill-rule="evenodd" stroke="none"/>
    <path d="M-704.0 -300.4 L-704.0 -305.7 -185.65 -305.7 -185.65 -199.75 -185.65 269.5 -704.0 269.5 -704.0 -199.75 -704.0 -300.4" fill="none" stroke="#142558" stroke-linecap="round" stroke-linejoin="round" stroke-opacity="0.44705883" stroke-width="2.0"/>
    <path d="M-704.0 -199.75 L-185.65 -199.75" fill="none" stroke="#142558" stroke-linecap="round" stroke-linejoin="round" stroke-opacity="0.44705883" stroke-width="1.5"/>
    <path d="M-1100.4 -258.4 L-1073.35 -258.4 Q-1065.25 -258.4 -1065.25 -250.3 L-1065.25 -221.2 Q-1065.25 -213.1 -1073.35 -213.1 L-1100.4 -213.1 Q-1108.5 -213.1 -1108.5 -221.2 L-1108.5 -250.3 Q-1108.5 -258.4 -1100.4 -258.4 M-1054.65 -257.9 L-1003.8 -257.9 Q-995.7 -257.9 -995.7 -249.8 L-995.7 -221.45 Q-995.7 -213.35 -1003.8 -213.35 L-1054.65 -213.35 Q-1062.75 -213.35 -1062.75 -221.45 L-1062.75 -249.8 Q-1062.75 -257.9 -1054.65 -257.9 M-914.6 -257.9 L-863.75 -257.9 Q-855.65 -257.9 -855.65 -249.8 L-855.65 -221.45 Q-855.65 -213.35 -863.75 -213.35 L-914.6 -213.35 Q-922.7 -213.35 -922.7 -221.45 L-922.7 -249.8 Q-922.7 -257.9 -914.6 -257.9" fill="#000000" fill-opacity="0.24705882" fill-rule="evenodd" stroke="none"/>
    <path d="M-1100.4 -258.4 L-1073.35 -258.4 Q-1065.25 -258.4 -1065.25 -250.3 L-1065.25 -221.2 Q-1065.25 -213.1 -1073.35 -213.1 L-1100.4 -213.1 Q-1108.5 -213.1 -1108.5 -221.2 L-1108.5 -250.3 Q-1108.5 -258.4 -1100.4 -258.4 M-1054.65 -257.9 L-1003.8 -257.9 Q-995.7 -257.9 -995.7 -249.8 L-995.7 -221.45 Q-995.7 -213.35 -1003.8 -213.35 L-1054.65 -213.35 Q-1062.75 -213.35 -1062.75 -221.45 L-1062.75 -249.8 Q-1062.75 -257.9 -1054.65 -257.9 M-914.6 -257.9 L-863.75 -257.9 Q-855.65 -257.9 -855.65 -249.8 L-855.65 -221.45 Q-855.65 -213.35 -863.75 -213.35 L-914.6 -213.35 Q-922.7 -213.35 -922.7 -221.45 L-922.7 -249.8 Q-922.7 -257.9 -914.6 -257.9" fill="none" stroke="#ffffff" stroke-linecap="round" stroke-linejoin="round" stroke-opacity="0.0" stroke-width="1.0"/>
    <path d="M-571.5 163.95 L-522.7 163.95 Q-510.7 163.95 -510.7 175.95 L-510.7 216.2 Q-510.7 228.2 -522.7 228.2 L-571.5 228.2 Q-583.5 228.2 -583.5 216.2 L-583.5 175.95 Q-583.5 163.95 -571.5 163.95" fill="#d1d0ff" fill-opacity="0.70980394" fill-rule="evenodd" stroke="none"/>
    <path d="M-389.3 160.1 L-389.3 232.7" fill="none" stroke="#f3f8ff" stroke-linecap="round" stroke-linejoin="round" stroke-opacity="0.70980394" stroke-width="1.5"/>
  </g>
</svg>
