<?xml version="1.0" encoding="UTF-8" standalone="no"?>
<svg xmlns:xlink="http://www.w3.org/1999/xlink" height="72.4px" width="113.35px" xmlns="http://www.w3.org/2000/svg">
  <g transform="matrix(1.0, 0.0, 0.0, 1.0, 57.15, 36.3)">
    <path d="M42.8 -32.35 Q51.35 -32.35 51.35 -23.8 L51.35 21.9 Q51.35 30.4 42.8 30.4 L-43.8 30.4 Q-52.35 30.4 -52.35 21.9 L-52.35 -23.8 Q-52.35 -32.35 -43.8 -32.35 L42.8 -32.35" fill="#d4d6ff" fill-rule="evenodd" stroke="none"/>
    <path d="M42.8 -32.35 L-43.8 -32.35 Q-52.35 -32.35 -52.35 -23.8 L-52.35 21.9 Q-52.35 30.4 -43.8 30.4 L42.8 30.4 Q51.35 30.4 51.35 21.9 L51.35 -23.8 Q51.35 -32.35 42.8 -32.35 M-43.8 -35.55 L42.8 -35.55 Q55.45 -35.55 55.45 -22.95 L55.45 22.7 Q55.45 35.35 42.8 35.35 L-43.8 35.35 Q-56.4 35.35 -56.4 22.7 L-56.4 -22.95 Q-56.4 -35.55 -43.8 -35.55" fill="#9b9adb" fill-rule="evenodd" stroke="none"/>
    <path d="M-43.8 -35.55 L42.8 -35.55 Q55.45 -35.55 55.45 -22.95 L55.45 22.7 Q55.45 35.35 42.8 35.35 L-43.8 35.35 Q-56.4 35.35 -56.4 22.7 L-56.4 -22.95 Q-56.4 -35.55 -43.8 -35.55 Z" fill="none" stroke="#323958" stroke-linecap="round" stroke-linejoin="round" stroke-width="1.5"/>
    <path d="M11.3 -2.0 Q11.75 -1.8 11.9 -1.1 L11.9 -1.05 11.9 -0.25 11.9 -0.15 11.35 0.65 11.35 0.7 -2.0 12.95 -2.05 12.95 -3.35 13.4 Q-4.15 13.4 -4.6 12.85 L-4.65 12.8 Q-5.1 12.25 -5.1 11.5 -5.1 10.7 -4.45 10.25 L-4.5 10.25 7.4 -0.65 -4.6 -12.3 Q-5.1 -12.9 -5.1 -13.6 -5.1 -14.4 -4.6 -14.9 -4.15 -15.5 -3.35 -15.5 -2.55 -15.5 -2.0 -14.95 L11.3 -2.0" fill="#3a3d74" fill-opacity="0.8980392" fill-rule="evenodd" stroke="none"/>
    <path d="M-6.25 -3.4 Q-5.25 -2.35 -5.25 -1.0 -5.25 0.4 -6.25 1.35 -7.2 2.25 -8.55 2.25 -9.9 2.25 -10.9 1.4 L-10.9 1.35 Q-11.85 0.4 -11.85 -1.0 -11.85 -2.35 -10.9 -3.4 -9.9 -4.3 -8.55 -4.3 -7.2 -4.3 -6.25 -3.4" fill="#3a3d74" fill-opacity="0.8980392" fill-rule="evenodd" stroke="none"/>
  </g>
</svg>
