<?xml version="1.0" encoding="UTF-8" standalone="no"?>
<svg xmlns:xlink="http://www.w3.org/1999/xlink" height="61.15px" width="229.15px" xmlns="http://www.w3.org/2000/svg">
  <g transform="matrix(1.0, 0.0, 0.0, 1.0, 114.9, 31.15)">
    <path d="M-0.3 29.25 L-95.6 29.25 Q-114.15 29.25 -114.15 10.75 L-114.15 -11.85 Q-114.15 -30.4 -95.6 -30.4 L-0.3 -30.4 -0.3 29.25" fill="#23253c" fill-rule="evenodd" stroke="none"/>
    <path d="M-0.3 -30.4 L94.95 -30.4 Q113.5 -30.4 113.5 -11.85 L113.5 10.75 Q113.5 29.25 94.95 29.25 L-0.3 29.25 -0.3 -30.4" fill="#494e7e" fill-rule="evenodd" stroke="none"/>
    <path d="M-0.3 -30.4 L94.95 -30.4 Q113.5 -30.4 113.5 -11.85 L113.5 10.75 Q113.5 29.25 94.95 29.25 L-0.3 29.25 -95.6 29.25 Q-114.15 29.25 -114.15 10.75 L-114.15 -11.85 Q-114.15 -30.4 -95.6 -30.4 L-0.3 -30.4" fill="none" stroke="#142558" stroke-linecap="round" stroke-linejoin="round" stroke-opacity="0.44705883" stroke-width="1.5"/>
    <path d="M-0.3 -30.4 L-0.3 29.25" fill="none" stroke="#bcc8e2" stroke-linecap="round" stroke-linejoin="round" stroke-opacity="0.44705883" stroke-width="1.5"/>
  </g>
</svg>
