<?xml version="1.0" encoding="UTF-8" standalone="no"?>
<svg xmlns:xlink="http://www.w3.org/1999/xlink" height="66.75px" width="115.9px" xmlns="http://www.w3.org/2000/svg">
  <g transform="matrix(1.0, 0.0, 0.0, 1.0, 57.95, 32.05)">
    <path d="M-57.2 -4.05 L-57.2 -19.1 Q-57.2 -31.3 -45.0 -31.3 L45.05 -31.3 Q57.2 -31.3 57.2 -19.1 L57.2 -4.05 -57.2 -4.05" fill="#38374f" fill-opacity="0.70980394" fill-rule="evenodd" stroke="none"/>
    <path d="M57.2 -4.05 L57.2 21.75 Q57.2 33.95 45.05 33.95 L-45.0 33.95 Q-57.2 33.95 -57.2 21.75 L-57.2 -4.05 57.2 -4.05" fill="#a4a3c9" fill-opacity="0.70980394" fill-rule="evenodd" stroke="none"/>
    <path d="M-57.2 -4.05 L-57.2 -19.1 Q-57.2 -31.3 -45.0 -31.3 L45.05 -31.3 Q57.2 -31.3 57.2 -19.1 L57.2 -4.05 57.2 21.75 Q57.2 33.95 45.05 33.95 L-45.0 33.95 Q-57.2 33.95 -57.2 21.75 L-57.2 -4.05" fill="none" stroke="#323958" stroke-linecap="round" stroke-linejoin="round" stroke-width="1.5"/>
    <path d="M-57.2 -4.05 L57.2 -4.05" fill="none" stroke="#c1c5cb" stroke-linecap="round" stroke-linejoin="round" stroke-opacity="0.70980394" stroke-width="1.5"/>
  </g>
</svg>
