<?xml version="1.0" encoding="UTF-8" standalone="no"?>
<svg xmlns:xlink="http://www.w3.org/1999/xlink" height="44.0px" width="168.5px" xmlns="http://www.w3.org/2000/svg">
  <g transform="matrix(1.0, 0.0, 0.0, 1.0, 65.15, 21.7)">
    <path d="M-64.4 -20.85 L-62.65 -20.95 81.35 -20.95 Q90.15 -20.95 96.35 -14.75 102.6 -8.5 102.6 0.3 102.6 9.1 96.35 15.3 L93.15 18.0 Q88.0 21.55 81.35 21.55 L-62.65 21.55 -64.4 21.5 -64.4 -20.85 M91.95 10.6 L-62.6 10.6 91.95 10.6" fill="url(#gradient0)" fill-rule="evenodd" stroke="none"/>
    <path d="M-62.6 10.6 L91.95 10.6" fill="none" stroke="#67729f" stroke-linecap="round" stroke-linejoin="round" stroke-width="1.5"/>
    <path d="M-64.4 -20.85 L-62.65 -20.95 81.35 -20.95 Q90.15 -20.95 96.35 -14.75 102.6 -8.5 102.6 0.3 102.6 9.1 96.35 15.3 L93.15 18.0 Q88.0 21.55 81.35 21.55 L-62.65 21.55 -64.4 21.5" fill="none" stroke="#1e1d35" stroke-linecap="round" stroke-linejoin="round" stroke-opacity="0.69803923" stroke-width="1.5"/>
  </g>
  <defs>
    <linearGradient gradientTransform="matrix(0.0, -0.0234, 0.1019, 0.0, 19.1, 1.6)" gradientUnits="userSpaceOnUse" id="gradient0" spreadMethod="pad" x1="-819.2" x2="819.2">
      <stop offset="0.0" stop-color="#4c5372"/>
      <stop offset="1.0" stop-color="#433d64"/>
    </linearGradient>
  </defs>
</svg>
