<?xml version="1.0" encoding="UTF-8" standalone="no"?>
<svg xmlns:xlink="http://www.w3.org/1999/xlink" height="579.25px" width="1004.85px" xmlns="http://www.w3.org/2000/svg">
  <g transform="matrix(1.0, 0.0, 0.0, 1.0, 1170.2, 189.65)">
    <path d="M-1169.7 -188.95 L-172.75 -188.95 -172.75 389.1 -1169.7 389.1 -1169.7 -188.95 M-978.6 -144.65 L-978.6 -99.65 -909.85 -99.65 -909.85 -144.65 -978.6 -144.65" fill="#000000" fill-opacity="0.007843138" fill-rule="evenodd" stroke="none"/>
    <path d="M-1169.7 -188.95 L-172.75 -188.95 -172.75 389.1 -1169.7 389.1 -1169.7 -188.95 Z" fill="none" stroke="#000000" stroke-linecap="round" stroke-linejoin="round" stroke-width="1.0"/>
    <path d="M-165.85 -89.35 L-165.85 388.6 -687.5 388.6 -687.5 -89.35 -165.85 -89.35" fill="#9198d7" fill-rule="evenodd" stroke="none"/>
    <path d="M-687.5 -89.35 L-687.5 -189.15 -165.85 -189.15 -165.85 -89.35 -687.5 -89.35" fill="#c5c7f1" fill-rule="evenodd" stroke="none"/>
    <path d="M-687.5 -89.35 L-687.5 -189.15 -165.85 -189.15 -165.85 -89.35 -165.85 388.6 -687.5 388.6 -687.5 -89.35 Z" fill="none" stroke="#bed3e2" stroke-linecap="round" stroke-linejoin="round" stroke-opacity="0.9098039" stroke-width="1.0"/>
  </g>
</svg>
