<?xml version="1.0" encoding="UTF-8" standalone="no"?>
<svg xmlns:xlink="http://www.w3.org/1999/xlink" height="107.25px" width="100.75px" xmlns="http://www.w3.org/2000/svg">
  <g transform="matrix(1.0, 0.0, 0.0, 1.0, 95.5, 59.2)">
    <path d="M-65.45 -29.9 Q-63.75 -29.5 -62.4 -28.7 -59.5 -26.85 -58.25 -22.85 -57.3 -19.55 -57.45 -14.75 -57.5 -10.85 -58.45 -5.95 L-58.8 -4.75 Q-60.0 -0.5 -60.65 3.45 -61.55 9.05 -61.25 13.9 -60.95 19.6 -59.0 24.25 L-56.75 28.45 -54.6 31.45 Q-51.15 35.3 -45.8 37.05 -40.45 38.7 -33.3 38.2 L-31.25 38.0 Q-26.8 37.05 -22.8 34.3 -17.75 30.65 -13.35 23.8 -9.35 17.35 -6.05 8.3 L-5.45 6.8 Q-2.8 -3.75 1.55 -4.15 2.5 -3.8 3.15 -3.0 3.9 -1.95 4.1 -0.2 5.05 -11.25 -0.7 -10.85 L-2.8 -11.25 Q-6.5 -11.85 -9.7 -11.25 -12.95 -10.7 -15.5 -9.0 -17.8 -7.5 -19.55 -5.0 -22.8 -0.7 -24.45 6.8 L-24.8 8.8 -25.75 12.1 Q-27.1 16.4 -28.7 19.65 -31.2 24.6 -34.6 26.9 -38.6 29.7 -43.85 28.45 L-47.05 27.4 Q-50.1 26.05 -52.1 23.6 -55.55 19.45 -56.05 12.15 -56.3 8.6 -55.9 4.25 L-55.0 -1.75 -53.25 -7.5 -51.95 -12.2 Q-50.8 -17.6 -51.95 -21.3 -52.7 -23.95 -54.55 -25.7 L-61.1 -31.4 -63.05 -33.05 -65.0 -34.75 -68.0 -37.4 -71.3 -40.3 -67.1 -32.9 -65.45 -29.9 Q-62.95 -26.75 -62.2 -22.25 -61.65 -18.9 -62.05 -14.75 -62.45 -10.35 -64.1 -5.1 -64.9 -2.3 -66.05 0.65 L-66.45 2.3 Q-68.45 9.2 -68.35 15.6 -68.25 20.9 -66.7 25.9 -65.1 31.5 -61.5 36.85 -56.55 41.8 -49.75 44.3 -43.3 46.8 -35.25 47.05 L-24.15 46.45 -23.7 46.4 Q-19.45 45.8 -15.65 43.2 -8.5 38.35 -3.0 26.45 0.1 19.65 2.7 10.75 4.65 3.55 4.1 -0.2 M-68.4 -30.9 L-67.1 -32.9 M-68.0 -37.4 Q-67.85 -38.7 -68.2 -39.85 L-68.55 -40.65 M-64.8 -36.2 L-65.0 -34.8 -65.0 -34.75" fill="none" stroke="#000000" stroke-linecap="round" stroke-linejoin="round" stroke-width="2.0"/>
    <path d="M-62.2 -22.25 L-58.25 -22.85 M-68.55 -40.65 Q-69.9 -43.5 -74.15 -45.95 -79.45 -47.65 -84.45 -53.75 L-84.45 -47.9 Q-89.3 -50.35 -93.6 -55.6 -98.95 -38.4 -80.7 -35.2 L-88.15 -33.85 Q-82.45 -28.0 -72.2 -28.55 -69.95 -29.15 -68.4 -30.9 L-71.05 -25.45 Q-79.75 -27.15 -91.7 -23.1 -78.75 -20.65 -69.15 -20.6 L-65.45 -29.9 M-51.95 -21.3 Q-49.35 -25.1 -48.85 -29.1 -53.45 -28.35 -54.55 -25.7 M-68.55 -40.65 Q-67.05 -50.35 -86.2 -57.7 -78.8 -60.3 -68.85 -54.55 -63.15 -50.2 -64.8 -36.2 L-58.75 -39.15 Q-58.7 -35.25 -61.1 -31.4 M-53.25 -7.5 Q-46.2 -8.15 -43.4 -11.7 L-51.95 -12.2 M-62.05 -14.75 L-57.45 -14.75 M-58.8 -4.75 L-64.1 -5.1 M-2.8 -11.25 L-6.6 -18.15 -9.7 -11.25 M-15.5 -9.0 Q-19.7 -11.6 -24.25 -10.85 -23.65 -7.9 -19.55 -5.0 M-3.0 26.45 Q-2.4 22.7 -2.25 19.75 -1.85 10.7 -6.05 8.3 M-24.45 6.8 L-32.95 7.1 Q-31.95 9.95 -25.75 12.1 M-28.7 19.65 Q-33.45 17.9 -36.6 18.55 L-34.6 26.9 M-35.25 47.05 L-34.3 45.25 Q-32.75 41.7 -33.3 38.2 M-22.8 34.3 Q-21.8 38.95 -23.1 43.7 L-23.3 44.2 -24.15 46.45 M-15.65 43.2 L-13.1 38.45 Q-8.35 28.2 -13.35 23.8 M-47.05 27.4 Q-45.85 22.5 -47.05 17.6 -49.75 19.45 -52.1 23.6 M-56.05 12.15 Q-49.9 7.55 -47.65 2.6 -52.75 2.65 -55.9 4.25 M-68.35 15.6 L-66.45 16.1 Q-63.2 16.65 -61.25 13.9 M-59.0 24.25 Q-61.9 25.95 -64.8 26.05 L-66.7 25.9 M-49.75 44.3 L-48.2 42.85 Q-45.5 39.9 -45.8 37.05 M-61.5 36.85 L-59.2 36.3 Q-56.45 35.1 -54.6 31.45 M-66.45 2.3 L-60.65 3.45" fill="none" stroke="#000000" stroke-linecap="round" stroke-linejoin="round" stroke-width="1.4000000000000001"/>
  </g>
</svg>
