<?xml version="1.0" encoding="UTF-8" standalone="no"?>
<svg xmlns:xlink="http://www.w3.org/1999/xlink" height="118.3px" width="109.0px" xmlns="http://www.w3.org/2000/svg">
  <g transform="matrix(1.0, 0.0, 0.0, 1.0, 104.9, 87.1)">
    <path d="M-64.15 -4.0 Q-82.25 5.2 -89.55 -4.05 -90.55 -5.35 -91.35 -6.95 -88.15 -5.35 -86.4 -7.3 L-88.95 -8.25 Q-82.25 -9.8 -82.05 -17.5 -81.7 -24.25 -91.25 -33.2 -101.65 -43.0 -101.55 -52.6 L-103.9 -51.95 Q-103.7 -56.7 -101.65 -61.15 -101.65 -66.45 -94.85 -71.95 L-97.8 -71.85 -94.9 -73.15 Q-90.65 -74.8 -84.85 -74.7 -77.95 -75.0 -71.5 -72.5 L-68.9 -73.2 Q-62.1 -75.45 -58.6 -81.05 L-61.15 -80.85 Q-59.7 -82.3 -56.7 -83.3 L-53.25 -84.2 -54.9 -86.1 Q-43.55 -86.3 -35.2 -74.0 -26.4 -60.45 -24.45 -45.5 -23.95 -23.85 -19.65 -14.35 -14.05 -2.1 -2.15 0.25 0.8 0.55 2.05 2.0 L2.6 2.95 Q4.0 7.2 1.3 13.75 -3.65 24.5 -17.95 29.4 -26.0 31.45 -28.0 28.4 -38.5 28.8 -41.65 25.55 L-36.5 25.3 Q-54.35 18.3 -57.8 11.7 L-53.0 12.95 Q-60.5 4.55 -64.15 -4.0 -67.05 -10.8 -67.45 -17.7 -67.55 -26.6 -70.4 -33.25 -73.95 -41.35 -78.75 -43.15 -80.45 -43.2 -81.35 -42.7 -82.85 -41.85 -82.0 -39.25 M-78.75 -43.15 L-79.0 -43.85 Q-80.35 -46.7 -83.55 -47.0 M-28.0 28.4 L-22.85 28.0" fill="none" stroke="#000000" stroke-linecap="round" stroke-linejoin="round" stroke-width="2.0"/>
    <path d="M-68.9 -73.2 Q-66.85 -72.25 -63.7 -73.3 -58.7 -76.2 -55.6 -72.5 -38.25 -53.5 -35.3 -34.0 -33.4 -13.8 -24.5 -0.75 -15.75 11.45 2.05 2.0 -8.7 2.95 -12.75 0.5 -24.1 -4.8 -26.05 -22.0 -26.15 -35.15 -29.15 -48.75 -37.25 -76.95 -56.7 -83.3 M-94.9 -73.15 Q-65.9 -69.45 -55.4 -32.45 -53.9 -27.25 -54.2 -23.2 -54.65 -13.75 -50.8 -5.6 L-50.65 -5.3 -50.5 -5.05 Q-46.75 2.5 -35.95 9.0 L-40.0 8.05 Q-36.4 12.5 -27.2 14.05 L-32.5 15.05 Q-14.05 21.95 2.05 2.0 -14.95 15.0 -26.1 5.05 -37.55 -5.7 -39.65 -20.1 -42.25 -44.3 -51.25 -56.1 -60.7 -68.2 -71.5 -72.5" fill="none" stroke="#000000" stroke-linecap="round" stroke-linejoin="round" stroke-width="1.4000000000000001"/>
  </g>
</svg>
