<?xml version="1.0" encoding="UTF-8" standalone="no"?>
<svg xmlns:xlink="http://www.w3.org/1999/xlink" height="46.9px" width="59.6px" xmlns="http://www.w3.org/2000/svg">
  <g transform="matrix(1.0, 0.0, 0.0, 1.0, 61.3, 37.05)">
    <path d="M-33.9 -27.5 Q-37.2 -28.45 -46.8 -24.95 -58.35 -20.55 -59.95 -15.25 L-59.15 -12.0 Q-56.8 -5.8 -51.15 -1.0 -50.4 -4.85 -44.55 -10.95 -36.7 -19.25 -30.3 -20.75 L-30.65 -21.5 Q-32.1 -24.9 -33.9 -27.5 -37.25 -32.55 -41.65 -34.9 -48.45 -38.55 -55.55 -30.8 -61.6 -24.25 -59.95 -15.25 M-51.15 -1.0 Q-46.3 3.1 -39.15 6.15 -39.0 2.15 -35.25 -3.9 -30.85 -11.25 -25.65 -13.8 -28.45 -17.1 -30.3 -20.75 M-9.2 -3.75 Q-14.9 -4.8 -19.0 -7.8 -22.35 -5.4 -25.25 2.3 -26.95 6.7 -26.55 8.75 L-16.9 8.4 -13.7 7.9 Q-13.45 2.1 -9.2 -3.75 L-5.9 -3.35 Q-1.1 -2.2 -3.5 3.7 -5.25 6.4 -13.7 7.9 M-19.0 -7.8 L-19.1 -7.9 Q-22.85 -10.6 -25.65 -13.8 M-39.15 6.15 Q-32.95 8.35 -26.55 8.75" fill="none" stroke="#000000" stroke-linecap="round" stroke-linejoin="round" stroke-width="2.0"/>
  </g>
</svg>
