<?xml version="1.0" encoding="UTF-8" standalone="no"?>
<svg xmlns:xlink="http://www.w3.org/1999/xlink" height="92.25px" width="88.8px" xmlns="http://www.w3.org/2000/svg">
  <g transform="matrix(1.0, 0.0, 0.0, 1.0, 85.3, 10.0)">
    <path d="M-6.5 -8.85 Q-14.6 -8.6 -22.15 16.2 -29.75 40.95 -40.55 46.65 -55.25 51.45 -63.35 39.45 -64.95 49.75 -58.95 56.4 -74.6 53.75 -84.3 41.45 -80.0 71.9 -60.75 78.35 -41.55 84.75 -25.7 77.1 -13.05 69.35 -9.7 47.3 -11.6 61.6 -14.0 66.75 -6.55 57.6 -1.2 39.5 4.2 21.4 1.75 -4.85 -1.25 -9.7 -6.5 -8.85" fill="none" stroke="#000000" stroke-linecap="round" stroke-linejoin="round" stroke-width="2.0"/>
    <path d="M-24.15 26.75 Q-31.7 52.3 -44.6 61.4" fill="none" stroke="#000000" stroke-linecap="round" stroke-linejoin="round" stroke-width="1.5"/>
  </g>
</svg>
