<?xml version="1.0" encoding="UTF-8" standalone="no"?>
<svg xmlns:xlink="http://www.w3.org/1999/xlink" height="72.4px" width="165.3px" xmlns="http://www.w3.org/2000/svg">
  <g transform="matrix(1.0, 0.0, 0.0, 1.0, 83.55, 36.3)">
    <path d="M68.35 -32.35 Q76.9 -32.35 76.9 -23.8 L76.9 21.9 Q76.9 30.4 68.35 30.4 L-70.2 30.4 Q-78.75 30.4 -78.75 21.9 L-78.75 -23.8 Q-78.75 -32.35 -70.2 -32.35 L68.35 -32.35" fill="#d4d6ff" fill-rule="evenodd" stroke="none"/>
    <path d="M68.35 -32.35 L-70.2 -32.35 Q-78.75 -32.35 -78.75 -23.8 L-78.75 21.9 Q-78.75 30.4 -70.2 30.4 L68.35 30.4 Q76.9 30.4 76.9 21.9 L76.9 -23.8 Q76.9 -32.35 68.35 -32.35 M-70.2 -35.55 L68.35 -35.55 Q81.0 -35.55 81.0 -22.95 L81.0 22.7 Q81.0 35.35 68.35 35.35 L-70.2 35.35 Q-82.8 35.35 -82.8 22.7 L-82.8 -22.95 Q-82.8 -35.55 -70.2 -35.55" fill="#9b9adb" fill-rule="evenodd" stroke="none"/>
    <path d="M-70.2 -35.55 L68.35 -35.55 Q81.0 -35.55 81.0 -22.95 L81.0 22.7 Q81.0 35.35 68.35 35.35 L-70.2 35.35 Q-82.8 35.35 -82.8 22.7 L-82.8 -22.95 Q-82.8 -35.55 -70.2 -35.55 Z" fill="none" stroke="#323958" stroke-linecap="round" stroke-linejoin="round" stroke-width="1.5"/>
    <path d="M11.3 -2.0 Q11.75 -1.8 11.9 -1.1 L11.9 -1.05 11.9 -0.25 11.9 -0.15 11.35 0.65 11.35 0.7 -2.0 12.95 -2.05 12.95 -3.35 13.4 Q-4.15 13.4 -4.6 12.85 L-4.65 12.8 Q-5.1 12.25 -5.1 11.5 -5.1 10.7 -4.45 10.25 L-4.5 10.25 7.4 -0.65 -4.6 -12.3 Q-5.1 -12.9 -5.1 -13.6 -5.1 -14.4 -4.6 -14.9 -4.15 -15.5 -3.35 -15.5 -2.55 -15.5 -2.0 -14.95 L11.3 -2.0" fill="#3a3d74" fill-opacity="0.8980392" fill-rule="evenodd" stroke="none"/>
    <path d="M-6.25 -3.4 Q-5.25 -2.35 -5.25 -1.0 -5.25 0.4 -6.25 1.35 -7.2 2.25 -8.55 2.25 -9.9 2.25 -10.9 1.4 L-10.9 1.35 Q-11.85 0.4 -11.85 -1.0 -11.85 -2.35 -10.9 -3.4 -9.9 -4.3 -8.55 -4.3 -7.2 -4.3 -6.25 -3.4" fill="#3a3d74" fill-opacity="0.8980392" fill-rule="evenodd" stroke="none"/>
  </g>
</svg>
