<?xml version="1.0" encoding="UTF-8" standalone="no"?>
<svg xmlns:xlink="http://www.w3.org/1999/xlink" height="50.25px" width="176.95px" xmlns="http://www.w3.org/2000/svg">
  <g transform="matrix(1.0, 0.0, 0.0, 1.0, 88.25, 25.6)">
    <path d="M12.95 -24.6 L77.05 -24.6 Q87.7 -24.6 87.7 -13.95 L87.7 13.0 Q87.7 23.65 77.05 23.65 L12.95 23.65 Q2.3 23.65 2.3 13.0 L2.3 -13.95 Q2.3 -24.6 12.95 -24.6" fill="url(#gradient0)" fill-rule="evenodd" stroke="none"/>
    <path d="M-76.6 -24.6 L-12.5 -24.6 Q-1.85 -24.6 -1.85 -13.95 L-1.85 13.0 Q-1.85 23.65 -12.5 23.65 L-76.6 23.65 Q-87.25 23.65 -87.25 13.0 L-87.25 -13.95 Q-87.25 -24.6 -76.6 -24.6" fill="url(#gradient1)" fill-rule="evenodd" stroke="none"/>
    <path d="M12.95 -24.6 L77.05 -24.6 Q87.7 -24.6 87.7 -13.95 L87.7 13.0 Q87.7 23.65 77.05 23.65 L12.95 23.65 Q2.3 23.65 2.3 13.0 L2.3 -13.95 Q2.3 -24.6 12.95 -24.6 M-76.6 -24.6 L-12.5 -24.6 Q-1.85 -24.6 -1.85 -13.95 L-1.85 13.0 Q-1.85 23.65 -12.5 23.65 L-76.6 23.65 Q-87.25 23.65 -87.25 13.0 L-87.25 -13.95 Q-87.25 -24.6 -76.6 -24.6" fill="none" stroke="#29195b" stroke-linecap="round" stroke-linejoin="round" stroke-opacity="0.40784314" stroke-width="2.0"/>
  </g>
  <defs>
    <linearGradient gradientTransform="matrix(0.0, 0.0264, -0.0521, 0.0, 45.0, -0.35)" gradientUnits="userSpaceOnUse" id="gradient0" spreadMethod="pad" x1="-819.2" x2="819.2">
      <stop offset="0.0" stop-color="#a6a2dc" stop-opacity="0.8980392"/>
      <stop offset="1.0" stop-color="#a7b3f7" stop-opacity="0.8980392"/>
    </linearGradient>
    <linearGradient gradientTransform="matrix(0.0, 0.0264, -0.0521, 0.0, -44.55, -0.35)" gradientUnits="userSpaceOnUse" id="gradient1" spreadMethod="pad" x1="-819.2" x2="819.2">
      <stop offset="0.0" stop-color="#a6a2dc" stop-opacity="0.8980392"/>
      <stop offset="1.0" stop-color="#a7b3f7" stop-opacity="0.8980392"/>
    </linearGradient>
  </defs>
</svg>
