<?xml version="1.0" encoding="UTF-8" standalone="no"?>
<svg xmlns:xlink="http://www.w3.org/1999/xlink" height="465.15px" width="659.05px" xmlns="http://www.w3.org/2000/svg">
  <g transform="matrix(1.0, 0.0, 0.0, 1.0, 863.45, 178.2)">
    <path d="M-270.7 -177.5 L-270.7 -78.1 -862.75 -78.1 -862.75 -177.5 -270.7 -177.5" fill="url(#gradient0)" fill-rule="evenodd" stroke="none"/>
    <path d="M-270.7 -78.1 L-204.9 -78.1 -204.9 286.25 -270.7 286.25 -270.7 -78.1" fill="#9198d7" fill-rule="evenodd" stroke="none"/>
    <path d="M-270.7 -78.1 L-270.7 -177.5 -204.9 -177.5 -204.9 -78.1 -270.7 -78.1" fill="#a4acf3" fill-rule="evenodd" stroke="none"/>
    <path d="M-862.75 -78.1 L-270.7 -78.1 -270.7 286.25 -862.75 286.25 -862.75 -78.1" fill="url(#gradient1)" fill-rule="evenodd" stroke="none"/>
    <path d="M-270.7 -78.1 L-270.7 -177.5 -862.75 -177.5 M-862.75 -78.1 L-270.7 -78.1 -204.9 -78.1 -204.9 -177.5 -270.7 -177.5 M-204.9 -78.1 L-204.9 286.25 -270.7 286.25 -862.75 286.25 M-270.7 286.25 L-270.7 -78.1" fill="none" stroke="#142098" stroke-linecap="round" stroke-linejoin="round" stroke-opacity="0.5294118" stroke-width="1.0"/>
    <path d="M-862.75 -177.5 L-862.75 -78.1 -862.75 286.25" fill="none" stroke="#101979" stroke-linecap="round" stroke-linejoin="round" stroke-opacity="0.7764706" stroke-width="1.4000000000000001"/>
  </g>
  <defs>
    <linearGradient gradientTransform="matrix(0.0, 0.0332, -0.3614, 0.0, -566.7, -109.55)" gradientUnits="userSpaceOnUse" id="gradient0" spreadMethod="pad" x1="-819.2" x2="819.2">
      <stop offset="0.0" stop-color="#bfc1f0" stop-opacity="0.8980392"/>
      <stop offset="1.0" stop-color="#d9dfff" stop-opacity="0.8980392"/>
    </linearGradient>
    <linearGradient gradientTransform="matrix(0.0, 0.2224, -0.3614, 0.0, -566.7, 104.05)" gradientUnits="userSpaceOnUse" id="gradient1" spreadMethod="pad" x1="-819.2" x2="819.2">
      <stop offset="0.0" stop-color="#6873b4" stop-opacity="0.8980392"/>
      <stop offset="1.0" stop-color="#6c6bb1" stop-opacity="0.8980392"/>
    </linearGradient>
  </defs>
</svg>
