<?xml version="1.0" encoding="UTF-8" standalone="no"?>
<svg xmlns:xlink="http://www.w3.org/1999/xlink" height="37.0px" width="37.0px" xmlns="http://www.w3.org/2000/svg">
  <g transform="matrix(1.0, 0.0, 0.0, 1.0, 18.5, 15.95)">
    <path d="M18.0 2.55 Q18.0 10.0 12.65 15.25 7.4 20.55 0.0 20.55 -7.45 20.55 -12.75 15.25 -18.0 10.0 -18.0 2.55 -18.0 -4.9 -12.75 -10.2 -7.45 -15.45 0.0 -15.45 7.4 -15.45 12.65 -10.2 18.0 -4.9 18.0 2.55 M15.2 2.6 Q15.2 -3.7 10.7 -8.15 6.25 -12.65 0.0 -12.65 -6.3 -12.65 -10.8 -8.15 -15.3 -3.7 -15.3 2.6 -15.3 8.9 -10.8 13.35 -6.3 17.8 0.0 17.8 6.25 17.8 10.7 13.35 15.2 8.9 15.2 2.6" fill="#c0d0e2" fill-rule="evenodd" stroke="none"/>
    <path d="M18.0 2.55 Q18.0 10.0 12.65 15.25 7.4 20.55 0.0 20.55 -7.45 20.55 -12.75 15.25 -18.0 10.0 -18.0 2.55 -18.0 -4.9 -12.75 -10.2 -7.45 -15.45 0.0 -15.45 7.4 -15.45 12.65 -10.2 18.0 -4.9 18.0 2.55 Z" fill="none" stroke="#000000" stroke-linecap="round" stroke-linejoin="round" stroke-opacity="0.30980393" stroke-width="1.0"/>
  </g>
</svg>
