<?xml version="1.0" encoding="UTF-8" standalone="no"?>
<svg xmlns:xlink="http://www.w3.org/1999/xlink" height="71.25px" width="84.25px" xmlns="http://www.w3.org/2000/svg">
  <g transform="matrix(1.0, 0.0, 0.0, 1.0, 38.2, 35.1)">
    <path d="M32.9 -31.2 Q41.3 -31.2 41.3 -22.8 L41.3 22.1 Q41.3 30.45 32.9 30.45 L-25.05 30.45 Q-33.45 30.45 -33.45 22.1 L-33.45 -22.8 Q-33.45 -31.2 -25.05 -31.2 L32.9 -31.2" fill="#d9e0f0" fill-rule="evenodd" stroke="none"/>
    <path d="M32.9 -31.2 L-25.05 -31.2 Q-33.45 -31.2 -33.45 -22.8 L-33.45 22.1 Q-33.45 30.45 -25.05 30.45 L32.9 30.45 Q41.3 30.45 41.3 22.1 L41.3 -22.8 Q41.3 -31.2 32.9 -31.2 M-25.05 -34.35 L32.9 -34.35 Q45.3 -34.35 45.3 -21.95 L45.3 22.9 Q45.3 35.4 32.9 35.4 L-25.05 35.4 Q-37.45 35.4 -37.45 22.9 L-37.45 -21.95 Q-37.45 -34.35 -25.05 -34.35" fill="#afaef7" fill-rule="evenodd" stroke="none"/>
    <path d="M-25.05 -34.35 L32.9 -34.35 Q45.3 -34.35 45.3 -21.95 L45.3 22.9 Q45.3 35.4 32.9 35.4 L-25.05 35.4 Q-37.45 35.4 -37.45 22.9 L-37.45 -21.95 Q-37.45 -34.35 -25.05 -34.35 Z" fill="none" stroke="#454e79" stroke-linecap="round" stroke-linejoin="round" stroke-width="1.5"/>
    <path d="M17.0 -1.0 L17.55 -0.15 17.55 -0.05 17.55 0.75 17.55 0.9 17.1 1.65 17.05 1.7 3.1 14.5 3.05 14.5 1.65 15.0 Q0.75 15.0 0.35 14.45 L0.3 14.4 -0.15 13.1 Q-0.15 12.25 0.5 11.75 L12.95 0.3 0.45 -11.9 Q-0.15 -12.45 -0.15 -13.25 -0.15 -14.0 0.4 -14.55 0.85 -15.15 1.75 -15.15 2.5 -15.15 3.1 -14.6 L17.0 -1.0 M-1.4 -2.45 Q-0.35 -1.45 -0.35 0.0 -0.35 1.4 -1.4 2.45 L-1.4 2.4 Q-2.4 3.4 -3.85 3.4 -5.2 3.4 -6.25 2.45 L-6.25 2.4 Q-7.2 1.4 -7.2 0.0 -7.2 -1.45 -6.25 -2.45 L-6.2 -2.45 Q-5.2 -3.4 -3.85 -3.4 -2.4 -3.4 -1.4 -2.45" fill="#474b8e" fill-opacity="0.8980392" fill-rule="evenodd" stroke="none"/>
  </g>
</svg>
