<?xml version="1.0" encoding="UTF-8" standalone="no"?>
<svg xmlns:xlink="http://www.w3.org/1999/xlink" height="343.75px" width="129.7px" xmlns="http://www.w3.org/2000/svg">
  <g transform="matrix(1.0, 0.0, 0.0, 1.0, 61.95, 35.3)">
    <path d="M-12.55 -28.7 L-4.65 -27.7 -0.85 -34.75 -0.5 -35.2 0.1 -35.3 0.55 -35.0 0.85 -34.55 2.3 -26.55 10.35 -25.15 10.75 -24.95 11.0 -24.4 10.95 -23.95 10.55 -23.55 3.45 -19.6 4.55 -11.65 4.5 -11.05 4.15 -10.7 3.6 -10.6 Q3.3 -10.65 3.1 -10.9 L-2.85 -16.4 -10.05 -12.95 -10.55 -12.8 Q-10.85 -12.85 -11.1 -13.05 L-11.4 -13.5 -11.25 -14.1 -7.85 -21.35 -13.4 -27.2 -13.6 -27.75 -13.55 -28.2 -13.2 -28.6 -12.55 -28.7 M-61.3 18.15 L-53.85 15.05 -54.15 7.0 -53.95 6.5 -53.6 6.1 -53.1 6.1 Q-52.7 6.15 -52.5 6.4 L-47.3 12.55 -39.65 9.8 -39.2 9.75 Q-38.85 9.75 -38.7 10.1 L-38.5 10.55 -38.7 11.1 -42.85 18.05 -37.9 24.45 Q-37.65 24.6 -37.65 24.85 L-37.75 25.4 -38.15 25.7 -38.8 25.8 -46.6 23.9 -51.2 30.45 -51.5 30.9 -52.15 31.0 -52.6 30.7 -52.85 30.1 -53.5 22.15 -61.25 19.8 -61.7 19.5 -61.95 19.05 Q-61.95 18.7 -61.75 18.5 L-61.3 18.15 M-50.6 100.05 L-43.15 96.95 -43.45 88.9 -43.25 88.4 -42.9 88.0 -42.4 88.0 Q-42.0 88.05 -41.8 88.3 L-36.6 94.45 -28.95 91.7 -28.5 91.65 Q-28.15 91.65 -28.0 92.0 -27.85 92.15 -27.8 92.45 L-28.0 93.0 -32.15 99.95 -27.2 106.35 -26.95 106.75 -27.05 107.3 -27.45 107.6 -28.1 107.7 -35.9 105.8 -40.5 112.35 -40.8 112.8 -41.45 112.9 -41.9 112.6 -42.15 112.0 -42.8 104.05 -50.55 101.7 -51.0 101.4 -51.25 100.95 -51.05 100.4 -50.6 100.05 M-1.85 53.2 L6.05 54.2 9.85 47.15 10.2 46.7 10.8 46.6 11.25 46.9 11.55 47.35 13.0 55.35 21.05 56.75 21.45 56.95 21.7 57.5 21.65 57.95 21.25 58.35 14.15 62.3 15.25 70.25 15.2 70.85 14.85 71.2 14.3 71.3 13.8 71.0 7.85 65.5 0.65 68.95 0.15 69.1 -0.4 68.85 -0.7 68.4 -0.55 67.8 2.85 60.55 -2.7 54.7 -2.9 54.15 -2.85 53.7 -2.5 53.3 -1.85 53.2 M-11.95 132.4 L-4.05 133.4 -0.25 126.35 0.1 125.9 0.7 125.8 1.15 126.1 1.45 126.55 2.9 134.55 10.95 135.95 11.35 136.15 11.6 136.7 11.55 137.15 11.15 137.55 4.05 141.5 5.15 149.45 5.1 150.05 4.75 150.4 4.2 150.5 Q3.9 150.45 3.7 150.2 L-2.25 144.7 -9.45 148.15 -9.95 148.3 -10.5 148.05 -10.8 147.6 -10.65 147.0 -7.25 139.75 -12.8 133.9 -13.0 133.35 -12.95 132.9 -12.6 132.5 -11.95 132.4 M-60.7 179.25 L-53.25 176.15 -53.55 168.1 -53.35 167.6 -53.0 167.2 -52.5 167.2 Q-52.1 167.25 -51.9 167.5 L-46.7 173.65 -39.05 170.9 -38.6 170.85 Q-38.25 170.85 -38.1 171.2 L-37.9 171.65 -38.1 172.2 -42.25 179.15 -37.3 185.55 Q-37.05 185.7 -37.05 185.95 L-37.15 186.5 -37.55 186.8 -38.2 186.9 -46.0 185.0 -50.6 191.55 -50.9 192.0 -51.55 192.1 -52.0 191.8 -52.25 191.2 -52.9 183.25 -60.65 180.9 -61.1 180.6 -61.35 180.15 -61.15 179.6 -60.7 179.25 M-1.25 214.3 L6.65 215.3 10.45 208.25 10.8 207.8 11.4 207.7 11.85 208.0 12.15 208.45 13.6 216.45 21.65 217.85 22.05 218.05 22.3 218.6 22.25 219.05 21.85 219.45 14.75 223.4 15.85 231.35 15.8 231.95 15.45 232.3 14.9 232.4 14.4 232.1 8.45 226.6 1.25 230.05 0.75 230.2 0.2 229.95 -0.1 229.5 0.05 228.9 3.45 221.65 -2.1 215.8 -2.3 215.25 -2.25 214.8 -1.9 214.4 -1.25 214.3 M-50.0 261.15 L-42.55 258.05 -42.85 250.0 -42.65 249.5 -42.3 249.1 -41.8 249.1 Q-41.4 249.15 -41.2 249.4 L-36.0 255.55 -28.35 252.8 -27.9 252.75 Q-27.55 252.75 -27.4 253.1 L-27.2 253.55 -27.4 254.1 -31.55 261.05 -26.6 267.45 -26.35 267.85 -26.45 268.4 -26.85 268.7 -27.5 268.8 -35.3 266.9 -39.9 273.45 -40.2 273.9 -40.85 274.0 -41.3 273.7 -41.55 273.1 -42.2 265.15 -49.95 262.8 -50.4 262.5 -50.65 262.05 -50.45 261.5 -50.0 261.15 M-6.05 290.35 L1.85 291.35 5.65 284.3 6.0 283.85 6.6 283.75 7.05 284.05 7.35 284.5 8.8 292.5 16.85 293.9 17.25 294.1 17.5 294.65 17.45 295.1 17.05 295.5 9.95 299.45 11.05 307.4 11.0 308.0 10.65 308.35 10.1 308.45 9.6 308.15 3.65 302.65 -3.55 306.1 -4.05 306.25 -4.6 306.0 -4.9 305.55 -4.75 304.95 -1.35 297.7 -6.9 291.85 -7.1 291.3 -7.05 290.85 -6.7 290.45 -6.05 290.35 M32.8 18.15 L40.25 15.05 39.95 7.0 40.15 6.5 Q40.2 6.25 40.55 6.1 L41.05 6.1 Q41.4 6.15 41.6 6.4 L46.85 12.55 54.5 9.8 54.95 9.75 55.4 10.1 55.65 10.55 55.4 11.1 51.25 18.05 56.25 24.45 56.45 24.85 56.35 25.4 56.0 25.7 55.3 25.8 47.5 23.9 42.9 30.45 42.6 30.9 42.0 31.0 41.5 30.7 41.25 30.1 40.65 22.15 32.9 19.8 32.4 19.5 32.2 19.05 Q32.2 18.7 32.35 18.5 L32.8 18.15 M43.5 100.05 L50.95 96.95 50.65 88.9 50.85 88.4 Q50.9 88.15 51.25 88.0 L51.75 88.0 52.3 88.3 57.55 94.45 65.2 91.7 65.65 91.65 Q65.95 91.65 66.1 92.0 L66.35 92.45 66.1 93.0 61.95 99.95 66.95 106.35 67.15 106.75 67.05 107.3 66.7 107.6 66.0 107.7 58.2 105.8 53.6 112.35 53.3 112.8 52.7 112.9 52.2 112.6 51.95 112.0 51.35 104.05 43.6 101.7 43.1 101.4 42.9 100.95 Q42.9 100.6 43.05 100.4 L43.5 100.05 M33.4 179.25 L40.85 176.15 40.55 168.1 40.75 167.6 Q40.8 167.35 41.15 167.2 L41.65 167.2 Q42.0 167.25 42.2 167.5 L47.45 173.65 55.1 170.9 55.55 170.85 56.0 171.2 56.25 171.65 56.0 172.2 51.85 179.15 56.85 185.55 57.05 185.95 56.95 186.5 56.6 186.8 55.9 186.9 48.1 185.0 43.5 191.55 43.2 192.0 42.6 192.1 42.1 191.8 41.85 191.2 41.25 183.25 33.5 180.9 33.0 180.6 32.8 180.15 Q32.8 179.8 32.95 179.6 L33.4 179.25 M44.1 261.15 L51.55 258.05 51.25 250.0 51.45 249.5 Q51.5 249.25 51.85 249.1 L52.35 249.1 52.9 249.4 58.15 255.55 65.8 252.8 66.25 252.75 66.7 253.1 66.95 253.55 66.7 254.1 62.55 261.05 67.55 267.45 67.75 267.85 67.65 268.4 67.3 268.7 66.6 268.8 58.8 266.9 54.2 273.45 53.9 273.9 53.3 274.0 52.8 273.7 52.55 273.1 51.95 265.15 44.2 262.8 43.7 262.5 43.5 262.05 Q43.5 261.7 43.65 261.5 L44.1 261.15" fill="#5f5c90" fill-rule="evenodd" stroke="none"/>
  </g>
</svg>
