<?xml version="1.0" encoding="UTF-8" standalone="no"?>
<svg xmlns:xlink="http://www.w3.org/1999/xlink" height="76.7px" width="90.75px" xmlns="http://www.w3.org/2000/svg">
  <g transform="matrix(1.0, 0.0, 0.0, 1.0, 41.45, 37.85)">
    <path d="M35.15 -33.7 L-27.35 -33.7 Q-36.4 -33.7 -36.4 -24.65 L-36.4 23.8 Q-36.4 32.8 -27.35 32.8 L35.15 32.8 Q44.2 32.8 44.2 23.8 L44.2 -24.65 Q44.2 -33.7 35.15 -33.7 M-27.35 -37.1 L35.15 -37.1 Q48.55 -37.1 48.55 -23.7 L48.55 24.65 Q48.55 38.1 35.15 38.1 L-27.35 38.1 Q-40.7 38.1 -40.7 24.65 L-40.7 -23.7 Q-40.7 -37.1 -27.35 -37.1" fill="#9b9adb" fill-rule="evenodd" stroke="none"/>
    <path d="M35.15 -33.7 Q44.2 -33.7 44.2 -24.65 L44.2 23.8 Q44.2 32.8 35.15 32.8 L-27.35 32.8 Q-36.4 32.8 -36.4 23.8 L-36.4 -24.65 Q-36.4 -33.7 -27.35 -33.7 L35.15 -33.7" fill="#d4d6ff" fill-rule="evenodd" stroke="none"/>
    <path d="M-27.35 -37.1 L35.15 -37.1 Q48.55 -37.1 48.55 -23.7 L48.55 24.65 Q48.55 38.1 35.15 38.1 L-27.35 38.1 Q-40.7 38.1 -40.7 24.65 L-40.7 -23.7 Q-40.7 -37.1 -27.35 -37.1 Z" fill="none" stroke="#323958" stroke-linecap="round" stroke-linejoin="round" stroke-width="1.5"/>
    <path d="M18.0 -1.15 L18.6 -0.2 18.6 -0.1 18.6 0.75 18.6 0.9 18.1 1.75 18.05 1.8 3.0 15.6 2.95 15.6 1.45 16.1 Q0.5 16.1 0.05 15.55 L0.0 15.5 Q-0.5 14.85 -0.5 14.1 -0.5 13.15 0.2 12.6 L0.15 12.65 13.65 0.25 0.15 -12.9 Q-0.5 -13.5 -0.5 -14.35 -0.5 -15.15 0.1 -15.75 0.6 -16.4 1.55 -16.4 2.35 -16.4 3.0 -15.8 L18.0 -1.15 M-1.85 -2.7 Q-0.7 -1.6 -0.7 -0.05 -0.7 1.45 -1.85 2.6 L-1.85 2.55 Q-2.9 3.6 -4.45 3.6 -5.95 3.6 -7.05 2.6 L-7.05 2.55 Q-8.1 1.45 -8.1 -0.05 -8.1 -1.6 -7.05 -2.7 L-7.0 -2.7 Q-5.95 -3.7 -4.45 -3.7 -2.9 -3.7 -1.85 -2.7" fill="#4a4c82" fill-rule="evenodd" stroke="none"/>
  </g>
</svg>
