<?xml version="1.0" encoding="UTF-8" standalone="no"?>
<svg xmlns:xlink="http://www.w3.org/1999/xlink" height="113.2px" width="284.95px" xmlns="http://www.w3.org/2000/svg">
  <g transform="matrix(1.0, 0.0, 0.0, 1.0, 142.5, 56.6)">
    <path d="M-133.35 -55.85 L133.3 -55.85 Q141.7 -55.85 141.7 -47.45 L141.7 47.45 Q141.7 55.85 133.3 55.85 L-133.35 55.85 Q-141.75 55.85 -141.75 47.45 L-141.75 -47.45 Q-141.75 -55.85 -133.35 -55.85" fill="#20213a" fill-opacity="0.5294118" fill-rule="evenodd" stroke="none"/>
    <path d="M-133.35 -55.85 L133.3 -55.85 Q141.7 -55.85 141.7 -47.45 L141.7 47.45 Q141.7 55.85 133.3 55.85 L-133.35 55.85 Q-141.75 55.85 -141.75 47.45 L-141.75 -47.45 Q-141.75 -55.85 -133.35 -55.85 Z" fill="none" stroke="#d5dae9" stroke-linecap="round" stroke-linejoin="round" stroke-opacity="0.49803922" stroke-width="1.5"/>
  </g>
</svg>
