<?xml version="1.0" encoding="UTF-8" standalone="no"?>
<svg xmlns:xlink="http://www.w3.org/1999/xlink" height="49.4px" width="54.75px" xmlns="http://www.w3.org/2000/svg">
  <g transform="matrix(1.0, 0.0, 0.0, 1.0, 27.35, 24.7)">
    <path d="M-23.65 -21.3 L23.7 -21.3 23.7 21.3 -23.65 21.3 -23.65 -21.3" fill="none" stroke="#d5dae9" stroke-linecap="round" stroke-linejoin="round" stroke-opacity="0.627451" stroke-width="1.0"/>
    <path d="M-26.75 -24.1 L26.8 -24.1 26.8 24.1 -26.75 24.1 -26.75 -24.1" fill="none" stroke="#000000" stroke-linecap="round" stroke-linejoin="round" stroke-opacity="0.61960787" stroke-width="1.2000000000000002"/>
    <path d="M2.7 -0.05 Q2.7 1.0 1.8 1.7 1.05 2.45 -0.15 2.45 -1.35 2.45 -2.2 1.7 L-2.6 1.25 -2.8 0.95 -3.0 -0.05 Q-3.0 -1.1 -2.2 -1.85 -1.35 -2.55 -0.15 -2.55 1.05 -2.55 1.8 -1.85 L1.95 -1.75 2.6 -0.7 2.7 -0.05" fill="#000000" fill-opacity="0.15686275" fill-rule="evenodd" stroke="none"/>
  </g>
</svg>
