<?xml version="1.0" encoding="UTF-8" standalone="no"?>
<svg xmlns:xlink="http://www.w3.org/1999/xlink" height="53.75px" width="86.5px" xmlns="http://www.w3.org/2000/svg">
  <g transform="matrix(1.0, 0.0, 0.0, 1.0, 81.75, 5.2)">
    <path d="M-9.6 32.35 L-7.25 29.95 Q3.2 20.55 3.75 7.45 2.9 -7.05 -15.1 -3.5 L-21.65 -2.35 Q-23.5 3.8 -18.35 17.0 -13.25 30.25 -9.6 32.35 -18.5 40.8 -29.65 44.6 -36.3 46.95 -43.9 47.55 L-55.8 46.75 Q-72.9 44.0 -79.15 30.6 -82.1 22.4 -79.6 14.85 -77.6 8.05 -70.75 4.55 -64.25 1.7 -56.5 0.95 L-48.2 0.6 -37.75 -0.1 Q-30.0 -0.8 -21.65 -2.35 M-37.75 -0.1 Q-40.2 8.45 -37.45 25.15 -34.3 39.95 -29.65 44.6 M-56.5 0.95 Q-61.75 11.3 -61.05 24.8 -60.35 38.35 -55.8 46.75" fill="none" stroke="#000000" stroke-linecap="round" stroke-linejoin="round" stroke-width="2.0"/>
  </g>
</svg>
