<?xml version="1.0" encoding="UTF-8" standalone="no"?>
<svg xmlns:xlink="http://www.w3.org/1999/xlink" height="15.5px" width="22.05px" xmlns="http://www.w3.org/2000/svg">
  <g transform="matrix(1.0, 0.0, 0.0, 1.0, 6.4, 4.8)">
    <path d="M14.3 2.35 Q13.1 4.95 10.8 6.5 8.4 8.0 3.55 9.25 -1.3 10.4 -3.6 8.45 -5.95 6.55 -5.2 3.7 -4.5 0.8 -1.55 -1.25 1.3 -3.3 6.15 -3.7 11.0 -4.15 13.25 -2.25 15.4 -0.3 14.3 2.35" fill="#777777" fill-rule="evenodd" stroke="none"/>
    <path d="M14.3 2.35 Q13.1 4.95 10.8 6.5 8.4 8.0 3.55 9.25 -1.3 10.4 -3.6 8.45 -5.95 6.55 -5.2 3.7 -4.5 0.8 -1.55 -1.25 1.3 -3.3 6.15 -3.7 11.0 -4.15 13.25 -2.25 15.4 -0.3 14.3 2.35 Z" fill="none" stroke="#000000" stroke-linecap="round" stroke-linejoin="round" stroke-width="2.0"/>
  </g>
</svg>
