<?xml version="1.0" encoding="UTF-8" standalone="no"?>
<svg xmlns:xlink="http://www.w3.org/1999/xlink" height="13.5px" width="23.65px" xmlns="http://www.w3.org/2000/svg">
  <g transform="matrix(1.0, 0.0, 0.0, 1.0, 7.9, 2.15)">
    <path d="M13.6 8.65 Q11.45 10.05 8.7 10.35 5.8 10.45 0.65 9.35 -4.6 8.15 -6.1 5.65 -7.75 3.05 -5.95 1.1 -4.25 -0.9 -0.75 -1.1 2.85 -1.45 7.7 0.25 12.65 2.1 14.1 4.55 15.6 7.0 13.6 8.65" fill="#777777" fill-rule="evenodd" stroke="none"/>
    <path d="M13.6 8.65 Q11.45 10.05 8.7 10.35 5.8 10.45 0.65 9.35 -4.6 8.15 -6.1 5.65 -7.75 3.05 -5.95 1.1 -4.25 -0.9 -0.75 -1.1 2.85 -1.45 7.7 0.25 12.65 2.1 14.1 4.55 15.6 7.0 13.6 8.65 Z" fill="none" stroke="#000000" stroke-linecap="round" stroke-linejoin="round" stroke-width="2.0"/>
  </g>
</svg>
