<?xml version="1.0" encoding="UTF-8" standalone="no"?>
<svg xmlns:xlink="http://www.w3.org/1999/xlink" height="12.35px" width="21.4px" xmlns="http://www.w3.org/2000/svg">
  <g transform="matrix(1.0, 0.0, 0.0, 1.0, 7.05, 2.25)">
    <path d="M12.3 7.55 Q10.4 8.85 7.95 9.1 L0.7 8.2 Q-4.0 7.1 -5.35 4.85 -6.85 2.55 -5.2 0.8 -3.7 -1.0 -0.55 -1.2 2.7 -1.5 7.05 0.05 11.45 1.7 12.75 3.9 14.1 6.05 12.3 7.55" fill="#777777" fill-rule="evenodd" stroke="none"/>
    <path d="M12.3 7.55 Q10.4 8.85 7.95 9.1 L0.7 8.2 Q-4.0 7.1 -5.35 4.85 -6.85 2.55 -5.2 0.8 -3.7 -1.0 -0.55 -1.2 2.7 -1.5 7.05 0.05 11.45 1.7 12.75 3.9 14.1 6.05 12.3 7.55 Z" fill="none" stroke="#000000" stroke-linecap="round" stroke-linejoin="round" stroke-width="2.0"/>
  </g>
</svg>
