<?xml version="1.0" encoding="UTF-8" standalone="no"?>
<svg xmlns:xlink="http://www.w3.org/1999/xlink" height="14.65px" width="25.35px" xmlns="http://www.w3.org/2000/svg">
  <g transform="matrix(1.0, 0.0, 0.0, 1.0, 8.4, 2.8)">
    <path d="M15.55 3.95 Q14.1 6.35 11.45 7.8 8.6 9.2 3.0 10.45 -2.7 11.5 -5.35 9.7 -8.1 7.95 -7.15 5.2 -6.35 2.5 -2.95 0.6 0.4 -1.35 6.05 -1.75 11.75 -2.1 14.3 -0.35 16.75 1.45 15.55 3.95" fill="#777777" fill-rule="evenodd" stroke="none"/>
    <path d="M15.55 3.95 Q14.1 6.35 11.45 7.8 8.6 9.2 3.0 10.45 -2.7 11.5 -5.35 9.7 -8.1 7.95 -7.15 5.2 -6.35 2.5 -2.95 0.6 0.4 -1.35 6.05 -1.75 11.75 -2.1 14.3 -0.35 16.75 1.45 15.55 3.95 Z" fill="none" stroke="#000000" stroke-linecap="round" stroke-linejoin="round" stroke-width="2.0"/>
  </g>
</svg>
