<?xml version="1.0" encoding="UTF-8" standalone="no"?>
<svg xmlns:xlink="http://www.w3.org/1999/xlink" height="13.15px" width="20.15px" xmlns="http://www.w3.org/2000/svg">
  <g transform="matrix(1.0, 0.0, 0.0, 1.0, 5.5, 2.15)">
    <path d="M13.65 4.45 Q13.65 6.8 11.0 8.4 8.35 10.0 4.55 10.0 0.9 10.0 -1.8 8.4 -4.5 6.8 -4.5 4.45 -4.5 2.1 -1.8 0.45 0.9 -1.15 4.55 -1.15 8.35 -1.15 11.0 0.45 13.65 2.1 13.65 4.45" fill="#777777" fill-rule="evenodd" stroke="none"/>
    <path d="M13.65 4.45 Q13.65 6.8 11.0 8.4 8.35 10.0 4.55 10.0 0.9 10.0 -1.8 8.4 -4.5 6.8 -4.5 4.45 -4.5 2.1 -1.8 0.45 0.9 -1.15 4.55 -1.15 8.35 -1.15 11.0 0.45 13.65 2.1 13.65 4.45 Z" fill="none" stroke="#000000" stroke-linecap="round" stroke-linejoin="round" stroke-width="2.0"/>
  </g>
</svg>
