<?xml version="1.0" encoding="UTF-8" standalone="no"?>
<svg xmlns:xlink="http://www.w3.org/1999/xlink" height="25.7px" width="38.75px" xmlns="http://www.w3.org/2000/svg">
  <g transform="matrix(1.0, 0.0, 0.0, 1.0, 15.8, 8.85)">
    <path d="M-13.5 5.8 Q-15.3 3.6 -14.65 -0.35 -14.05 -4.35 -9.7 -7.85 -10.05 -2.75 -0.1 1.35 9.8 5.45 21.35 10.75 23.15 13.9 19.6 15.85 6.25 12.85 -13.5 5.8" fill="#777777" fill-rule="evenodd" stroke="none"/>
    <path d="M-13.5 5.8 Q6.25 12.85 19.6 15.85 23.15 13.9 21.35 10.75 9.8 5.45 -0.1 1.35 -10.05 -2.75 -9.7 -7.85 -14.05 -4.35 -14.65 -0.35 -15.3 3.6 -13.5 5.8 Z" fill="none" stroke="#000000" stroke-linecap="round" stroke-linejoin="round" stroke-width="2.0"/>
  </g>
</svg>
