<?xml version="1.0" encoding="UTF-8" standalone="no"?>
<svg xmlns:xlink="http://www.w3.org/1999/xlink" height="15.05px" width="23.05px" xmlns="http://www.w3.org/2000/svg">
  <g transform="matrix(1.0, 0.0, 0.0, 1.0, 8.1, 2.4)">
    <path d="M10.15 11.55 Q6.25 10.8 1.25 8.45 -3.7 6.1 -6.3 3.15 -8.95 0.15 -2.95 -0.95 3.05 -1.95 8.55 -0.65 14.0 0.55 13.95 7.2 13.95 12.3 10.15 11.55" fill="#777777" fill-rule="evenodd" stroke="none"/>
    <path d="M10.15 11.55 Q13.95 12.3 13.95 7.2 14.0 0.55 8.55 -0.65 3.05 -1.95 -2.95 -0.95 -8.95 0.15 -6.3 3.15 -3.7 6.1 1.25 8.45 6.25 10.8 10.15 11.55 Z" fill="none" stroke="#000000" stroke-linecap="round" stroke-linejoin="round" stroke-width="2.0"/>
  </g>
</svg>
