<?xml version="1.0" encoding="UTF-8" standalone="no"?>
<svg xmlns:xlink="http://www.w3.org/1999/xlink" height="570.75px" width="649.85px" xmlns="http://www.w3.org/2000/svg">
  <g transform="matrix(1.0, 0.0, 0.0, 1.0, 718.7, 217.0)">
    <path d="M-69.35 -116.9 L-69.35 235.7 -718.0 235.7 -718.0 -116.9 -69.35 -116.9" fill="#9198d7" fill-rule="evenodd" stroke="none"/>
    <path d="M-718.0 -216.3 L-69.35 -216.3 -69.35 -116.9 -718.0 -116.9 -718.0 -216.3" fill="#c5c7f1" fill-rule="evenodd" stroke="none"/>
    <path d="M-69.35 235.7 L-69.35 353.05 -718.0 353.05 -718.0 235.7 -69.35 235.7" fill="#b5bde9" fill-rule="evenodd" stroke="none"/>
    <path d="M-718.0 -216.3 L-69.35 -216.3 -69.35 -116.9 -69.35 235.7 -69.35 353.05 -718.0 353.05 M-718.0 235.7 L-69.35 235.7 M-69.35 -116.9 L-718.0 -116.9" fill="none" stroke="#142098" stroke-linecap="round" stroke-linejoin="round" stroke-opacity="0.5294118" stroke-width="1.0"/>
    <path d="M-718.0 353.05 L-718.0 235.7 -718.0 -116.9 -718.0 -216.3 Z" fill="none" stroke="#101979" stroke-linecap="round" stroke-linejoin="round" stroke-opacity="0.7764706" stroke-width="1.4000000000000001"/>
    <path d="M-650.05 -169.0 L-295.85 -169.0 Q-285.9 -169.0 -278.9 -162.0 -271.85 -154.95 -271.85 -145.0 -271.85 -135.05 -278.9 -128.05 -285.9 -121.0 -295.85 -121.0 L-650.05 -121.0 -653.7 -121.25 Q-661.35 -122.35 -667.05 -128.05 -674.05 -135.05 -674.05 -145.0 -674.05 -154.95 -667.05 -162.0 -661.35 -167.7 -653.7 -168.75 L-650.05 -169.0" fill="#3954b2" fill-opacity="0.14901961" fill-rule="evenodd" stroke="none"/>
  </g>
</svg>
