<?xml version="1.0" encoding="UTF-8" standalone="no"?>
<svg xmlns:xlink="http://www.w3.org/1999/xlink" height="13.6px" width="20.8px" xmlns="http://www.w3.org/2000/svg">
  <g transform="matrix(1.0, 0.0, 0.0, 1.0, 6.15, 3.15)">
    <path d="M13.65 3.7 Q13.65 6.1 10.95 7.8 8.2 9.45 4.25 9.45 0.45 9.45 -2.35 7.8 -5.15 6.1 -5.15 3.7 -5.15 1.25 -2.35 -0.5 0.45 -2.15 4.25 -2.15 8.2 -2.15 10.95 -0.5 13.65 1.25 13.65 3.7" fill="#777777" fill-rule="evenodd" stroke="none"/>
    <path d="M13.65 3.7 Q13.65 6.1 10.95 7.8 8.2 9.45 4.25 9.45 0.45 9.45 -2.35 7.8 -5.15 6.1 -5.15 3.7 -5.15 1.25 -2.35 -0.5 0.45 -2.15 4.25 -2.15 8.2 -2.15 10.95 -0.5 13.65 1.25 13.65 3.7 Z" fill="none" stroke="#000000" stroke-linecap="round" stroke-linejoin="round" stroke-width="2.0"/>
  </g>
</svg>
