<?xml version="1.0" encoding="UTF-8" standalone="no"?>
<svg xmlns:xlink="http://www.w3.org/1999/xlink" height="71.85px" width="183.6px" xmlns="http://www.w3.org/2000/svg">
  <g transform="matrix(1.0, 0.0, 0.0, 1.0, 88.25, 35.8)">
    <path d="M81.9 -31.65 Q90.3 -31.65 90.3 -23.2 L90.3 21.75 Q90.3 30.2 81.9 30.2 L-74.8 30.2 Q-83.25 30.2 -83.25 21.75 L-83.25 -23.2 Q-83.25 -31.65 -74.8 -31.65 L81.9 -31.65" fill="#d4d6ff" fill-rule="evenodd" stroke="none"/>
    <path d="M81.9 -31.65 L-74.8 -31.65 Q-83.25 -31.65 -83.25 -23.2 L-83.25 21.75 Q-83.25 30.2 -74.8 30.2 L81.9 30.2 Q90.3 30.2 90.3 21.75 L90.3 -23.2 Q90.3 -31.65 81.9 -31.65 M-74.8 -34.8 L81.9 -34.8 Q94.35 -34.8 94.35 -22.35 L94.35 22.6 Q94.35 35.05 81.9 35.05 L-74.8 35.05 Q-87.25 35.05 -87.25 22.6 L-87.25 -22.35 Q-87.25 -34.8 -74.8 -34.8" fill="#9b9adb" fill-rule="evenodd" stroke="none"/>
    <path d="M-74.8 -34.8 L81.9 -34.8 Q94.35 -34.8 94.35 -22.35 L94.35 22.6 Q94.35 35.05 81.9 35.05 L-74.8 35.05 Q-87.25 35.05 -87.25 22.6 L-87.25 -22.35 Q-87.25 -34.8 -74.8 -34.8 Z" fill="none" stroke="#323958" stroke-linecap="round" stroke-linejoin="round" stroke-width="2.0"/>
    <path d="M18.05 -1.75 Q18.6 -1.45 18.75 -0.65 L18.75 -0.6 18.75 0.4 18.75 0.5 18.15 1.45 18.15 1.55 1.85 16.5 1.8 16.5 Q1.05 17.0 0.2 17.0 -0.85 17.0 -1.35 16.35 L-1.4 16.3 Q-1.95 15.65 -1.95 14.75 -1.95 13.75 -1.2 13.15 L-1.25 13.15 13.3 -0.2 -1.3 -14.35 Q-1.95 -15.05 -1.95 -15.95 -1.95 -16.9 -1.35 -17.5 -0.8 -18.25 0.25 -18.25 1.15 -18.25 1.85 -17.55 L18.05 -1.75" fill="#414480" fill-rule="evenodd" stroke="none"/>
    <path d="M-3.35 -3.4 Q-2.15 -2.2 -2.15 -0.55 -2.15 1.15 -3.35 2.35 -4.5 3.5 -6.15 3.5 -7.85 3.5 -9.05 2.4 L-9.05 2.35 Q-10.2 1.15 -10.2 -0.55 -10.2 -2.2 -9.05 -3.4 -7.85 -4.55 -6.15 -4.55 -4.5 -4.55 -3.35 -3.4" fill="#414480" fill-rule="evenodd" stroke="none"/>
  </g>
</svg>
