<?xml version="1.0" encoding="UTF-8" standalone="no"?>
<svg xmlns:xlink="http://www.w3.org/1999/xlink" height="60.5px" width="103.25px" xmlns="http://www.w3.org/2000/svg">
  <g transform="matrix(1.0, 0.0, 0.0, 1.0, 94.95, 15.2)">
    <path d="M-44.5 -2.35 L-48.2 -3.0 Q-47.85 -7.75 -51.65 -14.2 -58.55 -8.85 -60.65 -2.5 -63.7 -7.7 -70.6 -12.95 -73.0 -4.0 -71.9 3.0 -78.15 -1.05 -84.45 0.55 -84.2 5.65 -79.45 12.5 -86.5 11.1 -93.95 14.3 -87.0 20.4 -82.15 21.35 -87.05 25.35 -88.4 28.6 -84.85 30.9 -76.75 29.35 -71.3 37.95 -61.85 41.65 -64.25 31.15 -58.1 17.05 -52.0 2.95 -44.5 -2.35 L-34.3 -1.4 Q-28.2 -1.15 -21.45 -1.6 L-7.55 -3.15 Q5.4 -5.15 7.3 5.1 5.55 15.9 -1.7 24.35 -7.9 30.85 -14.75 35.3 -25.85 42.35 -38.55 43.9 L-41.25 44.15 Q-53.2 44.95 -61.85 41.65 M-21.45 -1.6 Q-23.6 18.65 -14.75 35.3 M-34.3 -1.4 Q-42.05 23.2 -38.55 43.9" fill="none" stroke="#000000" stroke-linecap="round" stroke-linejoin="round" stroke-width="2.0"/>
  </g>
</svg>
