<?xml version="1.0" encoding="UTF-8" standalone="no"?>
<svg xmlns:xlink="http://www.w3.org/1999/xlink" height="115.9px" width="288.3px" xmlns="http://www.w3.org/2000/svg">
  <g transform="matrix(1.0, 0.0, 0.0, 1.0, 113.45, 55.15)">
    <path d="M-112.45 51.2 L-112.45 -45.6 Q-112.45 -54.15 -104.0 -54.15 L165.45 -54.15 Q173.85 -54.15 173.85 -45.6 L173.85 51.2 Q173.85 59.75 165.45 59.75 L-104.0 59.75 Q-112.45 59.75 -112.45 51.2 Z" fill="none" stroke="#3f3c54" stroke-linecap="round" stroke-linejoin="round" stroke-opacity="0.8980392" stroke-width="2.0"/>
    <path d="M121.35 -53.5 L121.35 -21.6 -111.35 -21.6 -111.35 -45.1 Q-111.35 -53.5 -102.95 -53.5 L121.35 -53.5" fill="#cfcbff" fill-opacity="0.7490196" fill-rule="evenodd" stroke="none"/>
    <path d="M121.35 -21.6 L121.35 -53.5 164.3 -53.5 Q172.7 -53.5 172.7 -45.1 L172.7 49.8 Q172.7 58.2 164.3 58.2 L121.35 58.2 -102.95 58.2 Q-111.35 58.2 -111.35 49.8 L-111.35 -21.6 121.35 -21.6 121.35 58.2 121.35 -21.6" fill="#20213a" fill-opacity="0.5294118" fill-rule="evenodd" stroke="none"/>
    <path d="M121.35 -21.6 L121.35 -53.5 -102.95 -53.5 Q-111.35 -53.5 -111.35 -45.1 L-111.35 -21.6 -111.35 49.8 Q-111.35 58.2 -102.95 58.2 L121.35 58.2 164.3 58.2 Q172.7 58.2 172.7 49.8 L172.7 -45.1 Q172.7 -53.5 164.3 -53.5 L121.35 -53.5 M121.35 -21.6 L121.35 58.2" fill="none" stroke="#cfd7e9" stroke-linecap="round" stroke-linejoin="round" stroke-opacity="0.8980392" stroke-width="1.3"/>
    <path d="M125.65 -48.35 L168.25 -48.35 168.25 0.15 125.65 0.15 125.65 -48.35 M125.65 4.4 L168.25 4.4 168.25 52.9 125.65 52.9 125.65 4.4" fill="#000000" fill-opacity="0.21960784" fill-rule="evenodd" stroke="none"/>
  </g>
</svg>
