<?xml version="1.0" encoding="UTF-8" standalone="no"?>
<svg xmlns:xlink="http://www.w3.org/1999/xlink" height="76.7px" width="67.5px" xmlns="http://www.w3.org/2000/svg">
  <g transform="matrix(1.0, 0.0, 0.0, 1.0, 29.8, 38.65)">
    <path d="M23.95 -35.45 L-16.0 -35.45 Q-25.2 -35.45 -25.2 -26.1 L-25.2 23.9 Q-25.2 33.15 -16.0 33.15 L23.95 33.15 Q33.15 33.15 33.15 23.9 L33.15 -26.1 Q33.15 -35.45 23.95 -35.45 M-15.7 -37.9 L23.55 -37.9 Q36.95 -37.9 36.95 -24.5 L36.95 23.85 Q36.95 37.3 23.55 37.3 L-15.7 37.3 Q-29.05 37.3 -29.05 23.85 L-29.05 -24.5 Q-29.05 -37.9 -15.7 -37.9" fill="#9b9adb" fill-rule="evenodd" stroke="none"/>
    <path d="M23.95 -35.45 Q33.15 -35.45 33.15 -26.1 L33.15 23.9 Q33.15 33.15 23.95 33.15 L-16.0 33.15 Q-25.2 33.15 -25.2 23.9 L-25.2 -26.1 Q-25.2 -35.45 -16.0 -35.45 L23.95 -35.45" fill="#d4d6ff" fill-rule="evenodd" stroke="none"/>
    <path d="M-15.7 -37.9 L23.55 -37.9 Q36.95 -37.9 36.95 -24.5 L36.95 23.85 Q36.95 37.3 23.55 37.3 L-15.7 37.3 Q-29.05 37.3 -29.05 23.85 L-29.05 -24.5 Q-29.05 -37.9 -15.7 -37.9 Z" fill="none" stroke="#323958" stroke-linecap="round" stroke-linejoin="round" stroke-width="1.5"/>
    <path d="M15.55 -1.85 L16.1 -1.0 16.1 -0.9 16.1 -0.15 16.1 0.0 15.65 0.75 15.6 0.8 2.1 13.15 0.75 13.6 Q-0.1 13.6 -0.5 13.1 L-0.55 13.05 -1.0 11.8 Q-1.0 10.95 -0.4 10.45 L11.65 -0.6 -0.45 -12.35 Q-1.0 -12.9 -1.0 -13.65 -1.0 -14.4 -0.45 -14.9 -0.05 -15.5 0.8 -15.5 1.55 -15.5 2.1 -14.95 L15.55 -1.85 M-2.2 -3.25 Q-1.2 -2.25 -1.2 -0.85 -1.2 0.5 -2.2 1.5 L-2.2 1.45 Q-3.15 2.4 -4.55 2.4 -5.9 2.4 -6.85 1.5 L-6.85 1.45 Q-7.8 0.5 -7.8 -0.85 -7.8 -2.25 -6.85 -3.25 -5.9 -4.15 -4.55 -4.15 -3.15 -4.15 -2.2 -3.25" fill="#4a4c82" fill-rule="evenodd" stroke="none"/>
  </g>
</svg>
