<?xml version="1.0" encoding="UTF-8" standalone="no"?>
<svg xmlns:xlink="http://www.w3.org/1999/xlink" height="72.8px" width="64.1px" xmlns="http://www.w3.org/2000/svg">
  <g transform="matrix(1.0, 0.0, 0.0, 1.0, 28.05, 36.8)">
    <path d="M22.95 -33.75 Q31.7 -33.75 31.7 -24.85 L31.7 22.6 Q31.7 31.35 22.95 31.35 L-14.9 31.35 Q-23.65 31.35 -23.65 22.6 L-23.65 -24.85 Q-23.65 -33.75 -14.9 -33.75 L22.95 -33.75" fill="#d9e0f0" fill-rule="evenodd" stroke="none"/>
    <path d="M22.95 -33.75 L-14.9 -33.75 Q-23.65 -33.75 -23.65 -24.85 L-23.65 22.6 Q-23.65 31.35 -14.9 31.35 L22.95 31.35 Q31.7 31.35 31.7 22.6 L31.7 -24.85 Q31.7 -33.75 22.95 -33.75 M-14.6 -36.05 L22.6 -36.05 Q35.3 -36.05 35.3 -23.35 L35.3 22.55 Q35.3 35.25 22.6 35.25 L-14.6 35.25 Q-27.3 35.25 -27.3 22.55 L-27.3 -23.35 Q-27.3 -36.05 -14.6 -36.05" fill="#afaef7" fill-rule="evenodd" stroke="none"/>
    <path d="M-14.6 -36.05 L22.6 -36.05 Q35.3 -36.05 35.3 -23.35 L35.3 22.55 Q35.3 35.25 22.6 35.25 L-14.6 35.25 Q-27.3 35.25 -27.3 22.55 L-27.3 -23.35 Q-27.3 -36.05 -14.6 -36.05 Z" fill="none" stroke="#454e79" stroke-linecap="round" stroke-linejoin="round" stroke-width="1.5"/>
    <path d="M15.0 -1.85 L15.5 -1.05 15.5 -0.95 15.5 -0.25 15.5 -0.1 15.1 0.65 15.05 0.7 2.25 12.35 1.0 12.8 Q0.15 12.8 -0.25 12.3 L-0.3 12.25 Q-0.7 11.75 -0.7 11.1 -0.7 10.25 -0.15 9.85 L11.3 -0.7 -0.2 -11.85 Q-0.7 -12.35 -0.7 -13.05 -0.7 -13.75 -0.2 -14.25 0.2 -14.8 1.05 -14.8 1.7 -14.8 2.25 -14.3 L15.0 -1.85 M-1.85 -3.2 Q-0.9 -2.25 -0.9 -0.9 -0.9 0.4 -1.85 1.3 L-1.85 1.25 Q-2.75 2.2 -4.05 2.2 -5.35 2.2 -6.25 1.3 L-6.25 1.25 Q-7.15 0.4 -7.15 -0.9 -7.15 -2.25 -6.25 -3.2 -5.35 -4.0 -4.05 -4.0 -2.75 -4.0 -1.85 -3.2" fill="#474b8e" fill-opacity="0.8980392" fill-rule="evenodd" stroke="none"/>
  </g>
</svg>
