<?xml version="1.0" encoding="UTF-8" standalone="no"?>
<svg xmlns:xlink="http://www.w3.org/1999/xlink" height="45.25px" width="117.05px" xmlns="http://www.w3.org/2000/svg">
  <g transform="matrix(1.0, 0.0, 0.0, 1.0, 58.55, 22.6)">
    <path d="M-0.05 -22.1 L49.7 -22.1 Q58.0 -22.1 58.0 -14.25 L58.0 14.25 Q58.0 22.15 49.7 22.15 L-0.05 22.15 -49.8 22.15 Q-58.05 22.15 -58.05 14.25 L-58.05 -14.25 Q-58.05 -22.1 -49.8 -22.1 L-0.05 -22.1 -0.05 -20.0 -0.05 -22.1 M-0.05 18.7 L49.7 18.7 Q55.25 18.7 55.3 13.55 L55.3 -14.9 Q55.25 -20.0 49.7 -20.0 L-0.05 -20.0 -49.8 -20.0 Q-55.35 -20.0 -55.4 -14.9 L-55.4 13.55 Q-55.35 18.7 -49.8 18.7 L-0.05 18.7 -0.05 22.15 -0.05 18.7" fill="#afb1ec" fill-opacity="0.827451" fill-rule="evenodd" stroke="none"/>
    <path d="M-0.05 -20.0 L49.7 -20.0 Q55.25 -20.0 55.3 -14.9 L55.3 13.55 Q55.25 18.7 49.7 18.7 L-0.05 18.7 -49.8 18.7 Q-55.35 18.7 -55.4 13.55 L-55.4 -14.9 Q-55.35 -20.0 -49.8 -20.0 L-0.05 -20.0 -0.05 -15.55 -0.05 -20.0 M-0.05 14.15 L18.2 14.15 18.2 -15.55 -0.05 -15.55 -18.15 -15.55 -18.15 14.15 -0.05 14.15 -0.05 18.7 -0.05 14.15" fill="#dedbff" fill-opacity="0.8980392" fill-rule="evenodd" stroke="none"/>
    <path d="M-0.05 -15.55 L18.2 -15.55 18.2 14.15 -0.05 14.15 -18.15 14.15 -18.15 -15.55 -0.05 -15.55" fill="#bdbfff" fill-opacity="0.827451" fill-rule="evenodd" stroke="none"/>
    <path d="M-0.05 -22.1 L49.7 -22.1 Q58.0 -22.1 58.0 -14.25 L58.0 14.25 Q58.0 22.15 49.7 22.15 L-0.05 22.15 -49.8 22.15 Q-58.05 22.15 -58.05 14.25 L-58.05 -14.25 Q-58.05 -22.1 -49.8 -22.1 L-0.05 -22.1 -0.05 -20.0 -0.05 -15.55 18.2 -15.55 18.2 14.15 -0.05 14.15 -0.05 18.7 -0.05 22.15 M-0.05 14.15 L-18.15 14.15 -18.15 -15.55 -0.05 -15.55" fill="none" stroke="#182a43" stroke-linecap="round" stroke-linejoin="round" stroke-opacity="0.54901963" stroke-width="1.0"/>
    <path d="M-9.45 -9.4 Q-8.85 -9.95 -7.9 -9.95 -6.95 -9.95 -6.35 -9.4 -5.75 -8.7 -5.75 -7.75 -5.75 -6.85 -6.35 -6.25 -6.95 -5.6 -7.9 -5.6 -8.85 -5.6 -9.45 -6.25 -10.1 -6.85 -10.1 -7.75 -10.1 -8.7 -9.45 -9.4 M-16.55 -7.75 Q-12.8 -11.55 -8.3 -11.85 -3.7 -11.9 0.3 -7.75 -3.2 -4.0 -8.15 -3.65 -13.25 -4.1 -16.55 -7.75 M-1.55 -7.75 Q-4.4 -10.4 -8.15 -10.6 -11.9 -10.25 -14.65 -7.75 -11.9 -5.15 -8.0 -4.95 -4.85 -4.95 -1.55 -7.75 M-8.7 -8.6 L-9.05 -7.75 Q-9.05 -7.25 -8.7 -7.05 -8.35 -6.7 -7.9 -6.7 -7.45 -6.7 -7.15 -7.05 -6.8 -7.25 -6.8 -7.75 -6.8 -8.25 -7.15 -8.6 -7.45 -8.95 -7.9 -8.95 -8.35 -8.95 -8.7 -8.6" fill="#3c465d" fill-opacity="0.80784315" fill-rule="evenodd" stroke="none"/>
    <path d="M3.7 -7.7 Q9.3 -10.25 15.35 -7.7" fill="none" stroke="#556179" stroke-linecap="round" stroke-linejoin="round" stroke-width="1.5"/>
    <path d="M31.7 7.05 L31.7 -8.25 42.25 -0.5 31.7 7.05 M-33.1 7.05 L-43.65 -0.5 -33.1 -8.25 -33.1 7.05" fill="#627298" fill-rule="evenodd" stroke="none"/>
  </g>
</svg>
