<?xml version="1.0" encoding="UTF-8" standalone="no"?>
<svg xmlns:xlink="http://www.w3.org/1999/xlink" height="45.25px" width="67.1px" xmlns="http://www.w3.org/2000/svg">
  <g transform="matrix(1.0, 0.0, 0.0, 1.0, 33.55, 22.65)">
    <path d="M-30.4 -14.95 Q-30.35 -20.05 -24.8 -20.05 L24.75 -20.05 Q30.3 -20.05 30.35 -14.95 L30.35 13.5 Q30.3 18.65 24.75 18.65 L-24.8 18.65 Q-30.35 18.65 -30.4 13.5 L-30.4 -14.95" fill="#dedbff" fill-opacity="0.8980392" fill-rule="evenodd" stroke="none"/>
    <path d="M-24.8 -22.15 L24.75 -22.15 Q33.05 -22.15 33.05 -14.3 L33.05 14.2 Q33.05 22.1 24.75 22.1 L-24.8 22.1 Q-33.05 22.1 -33.05 14.2 L-33.05 -14.3 Q-33.05 -22.15 -24.8 -22.15 M-30.4 -14.95 L-30.4 13.5 Q-30.35 18.65 -24.8 18.65 L24.75 18.65 Q30.3 18.65 30.35 13.5 L30.35 -14.95 Q30.3 -20.05 24.75 -20.05 L-24.8 -20.05 Q-30.35 -20.05 -30.4 -14.95" fill="#afb1ec" fill-opacity="0.827451" fill-rule="evenodd" stroke="none"/>
    <path d="M-24.8 -22.15 L24.75 -22.15 Q33.05 -22.15 33.05 -14.3 L33.05 14.2 Q33.05 22.1 24.75 22.1 L-24.8 22.1 Q-33.05 22.1 -33.05 14.2 L-33.05 -14.3 Q-33.05 -22.15 -24.8 -22.15 Z" fill="none" stroke="#182a43" stroke-linecap="round" stroke-linejoin="round" stroke-opacity="0.54901963" stroke-width="1.0"/>
    <path d="M25.85 0.45 Q25.85 4.15 23.25 6.75 20.65 9.35 16.95 9.35 13.25 9.35 10.65 6.75 8.05 4.15 8.05 0.45 8.05 -1.35 8.65 -2.85 L11.1 -1.95 Q10.6 -0.8 10.6 0.5 10.6 3.15 12.45 5.0 14.35 6.85 17.0 6.85 19.65 6.85 21.5 5.0 23.35 3.15 23.35 0.5 23.35 -2.15 21.5 -4.05 19.65 -5.9 17.0 -5.9 L17.0 -3.55 11.5 -6.7 17.0 -10.7 17.0 -8.45 Q20.65 -8.45 23.25 -5.85 25.85 -3.25 25.85 0.45 M-8.7 -1.55 Q-9.35 -0.9 -9.35 -0.05 -9.35 0.9 -8.7 1.4 -8.0 2.0 -7.25 2.0 -6.35 2.0 -5.7 1.4 -5.1 0.9 -5.1 -0.05 -5.1 -0.9 -5.7 -1.55 -6.35 -2.15 -7.25 -2.15 -8.0 -2.15 -8.7 -1.55 M-10.05 -3.0 Q-8.95 -4.1 -7.25 -4.1 -5.45 -4.1 -4.25 -3.0 -3.15 -1.75 -3.15 -0.05 -3.15 1.65 -4.25 2.8 -5.45 4.0 -7.25 4.0 -8.95 4.0 -10.05 2.8 -11.3 1.65 -11.3 -0.05 -11.3 -1.75 -10.05 -3.0 M-26.15 -0.05 Q-19.1 -7.1 -10.8 -7.65 -2.15 -7.7 5.25 -0.05 -1.3 7.05 -10.5 7.65 -20.0 6.8 -26.15 -0.05 M1.75 -0.05 Q-3.4 -4.9 -10.5 -5.35 -17.5 -4.65 -22.6 -0.05 -17.5 4.8 -10.1 5.2 -4.25 5.2 1.75 -0.05" fill="#3c465d" fill-opacity="0.80784315" fill-rule="evenodd" stroke="none"/>
  </g>
</svg>
