<?xml version="1.0" encoding="UTF-8" standalone="no"?>
<svg xmlns:xlink="http://www.w3.org/1999/xlink" height="45.25px" width="67.1px" xmlns="http://www.w3.org/2000/svg">
  <g transform="matrix(1.0, 0.0, 0.0, 1.0, 33.55, 22.65)">
    <path d="M-30.4 -14.95 Q-30.35 -20.05 -24.8 -20.05 L24.75 -20.05 Q30.3 -20.05 30.35 -14.95 L30.35 13.5 Q30.3 18.65 24.75 18.65 L-24.8 18.65 Q-30.35 18.65 -30.4 13.5 L-30.4 -14.95" fill="#dedbff" fill-opacity="0.8980392" fill-rule="evenodd" stroke="none"/>
    <path d="M-24.8 -22.15 L24.75 -22.15 Q33.05 -22.15 33.05 -14.3 L33.05 14.2 Q33.05 22.1 24.75 22.1 L-24.8 22.1 Q-33.05 22.1 -33.05 14.2 L-33.05 -14.3 Q-33.05 -22.15 -24.8 -22.15 M-30.4 -14.95 L-30.4 13.5 Q-30.35 18.65 -24.8 18.65 L24.75 18.65 Q30.3 18.65 30.35 13.5 L30.35 -14.95 Q30.3 -20.05 24.75 -20.05 L-24.8 -20.05 Q-30.35 -20.05 -30.4 -14.95" fill="#afb1ec" fill-opacity="0.827451" fill-rule="evenodd" stroke="none"/>
    <path d="M-24.8 -22.15 L24.75 -22.15 Q33.05 -22.15 33.05 -14.3 L33.05 14.2 Q33.05 22.1 24.75 22.1 L-24.8 22.1 Q-33.05 22.1 -33.05 14.2 L-33.05 -14.3 Q-33.05 -22.15 -24.8 -22.15 Z" fill="none" stroke="#182a43" stroke-linecap="round" stroke-linejoin="round" stroke-opacity="0.54901963" stroke-width="1.0"/>
    <path d="M8.1 -0.2 Q8.1 2.95 5.9 5.2 3.65 7.4 0.5 7.4 -2.7 7.4 -4.9 5.2 -7.15 2.95 -7.15 -0.2 -7.15 -3.4 -4.9 -5.6 -2.7 -7.85 0.5 -7.85 3.65 -7.85 5.9 -5.6 8.1 -3.4 8.1 -0.2" fill="#3c465d" fill-opacity="0.80784315" fill-rule="evenodd" stroke="none"/>
    <path d="M0.65 8.1 Q9.8 8.1 19.15 -0.1 L19.2 -0.15 19.2 -0.25 19.15 -0.3 Q11.1 -7.85 0.05 -8.55 -10.85 -7.45 -18.8 -0.3 L-18.85 -0.25 -18.85 -0.15 -18.8 -0.15 Q-10.85 7.5 0.65 8.1 M0.1 11.6 Q-14.5 10.25 -23.95 -0.2 -13.15 -10.9 -0.4 -11.8 12.85 -11.85 24.25 -0.2 14.2 10.65 0.1 11.6" fill="#3c465d" fill-opacity="0.6" fill-rule="evenodd" stroke="none"/>
    <path d="M1.2 -3.45 Q0.75 -2.5 -0.5 -1.6 L-2.7 0.05 Q-3.55 0.75 -4.65 -0.3 -5.65 -1.35 -5.65 -2.8 -5.65 -4.3 -4.65 -5.4 -3.55 -6.4 -2.1 -6.4 -0.6 -6.4 0.5 -5.4 1.5 -4.35 1.2 -3.45 M5.85 4.0 Q5.85 4.55 5.2 4.9 4.55 5.3 3.55 5.3 2.55 5.3 1.9 4.9 1.25 4.55 1.5 4.1 1.75 3.65 2.35 3.25 2.95 2.85 3.75 2.8 4.55 2.65 5.2 3.05 5.85 3.45 5.85 4.0" fill="#ffffff" fill-rule="evenodd" stroke="none"/>
  </g>
</svg>
