<?xml version="1.0" encoding="UTF-8" standalone="no"?>
<svg xmlns:xlink="http://www.w3.org/1999/xlink" height="25.6px" width="27.25px" xmlns="http://www.w3.org/2000/svg">
  <g transform="matrix(1.0, 0.0, 0.0, 1.0, 23.8, 15.85)">
    <path d="M-14.75 -14.85 Q-14.7 -12.4 -13.05 -11.9 L-16.2 -11.85 Q-17.45 -11.6 -19.65 -12.3 -19.9 -9.7 -17.55 -10.0 -20.8 -9.0 -22.45 -5.6 L-20.25 -6.15 Q-22.5 -4.1 -22.8 0.15 L-20.0 -2.05 Q-22.65 1.05 -19.5 6.3 -19.1 4.25 -17.9 3.55 -18.4 6.85 -15.25 8.75 L-11.4 6.1 Q-10.5 7.6 -9.1 8.65 L-6.9 5.8 -5.25 8.1 -3.0 1.25 -1.3 4.3 Q0.75 0.9 -0.4 -4.85 L2.45 -3.45 Q1.7 -6.5 -1.95 -8.85 -1.75 -9.85 -2.9 -12.95 -3.7 -11.4 -4.7 -11.05 -5.25 -13.1 -8.1 -14.45 -8.4 -13.1 -8.85 -12.7 -9.45 -13.35 -11.3 -13.55 -13.15 -13.75 -14.75 -14.85 Z" fill="none" stroke="#000000" stroke-linecap="round" stroke-linejoin="round" stroke-width="2.0"/>
  </g>
</svg>
