<?xml version="1.0" encoding="UTF-8" standalone="no"?>
<svg xmlns:xlink="http://www.w3.org/1999/xlink" height="350.5px" width="425.9px" xmlns="http://www.w3.org/2000/svg">
  <g transform="matrix(1.0, 0.0, 0.0, 1.0, 706.85, 72.15)">
    <path d="M-697.7 -71.4 L-290.1 -71.4 Q-281.7 -71.4 -281.7 -63.0 L-281.7 10.1 Q-281.7 18.5 -290.1 18.5 L-697.7 18.5 Q-706.1 18.5 -706.1 10.1 L-706.1 -63.0 Q-706.1 -71.4 -697.7 -71.4 M-697.7 25.1 L-290.1 25.1 Q-281.7 25.1 -281.7 33.5 L-281.7 130.75 Q-281.7 139.15 -290.1 139.15 L-697.7 139.15 Q-706.1 139.15 -706.1 130.75 L-706.1 33.5 Q-706.1 25.1 -697.7 25.1 M-353.5 146.55 L-356.25 146.9 -356.25 146.55 -353.5 146.55 M-621.65 146.55 L-377.05 146.55 Q-368.65 146.55 -368.65 154.95 L-368.65 269.2 Q-368.65 277.6 -377.05 277.6 L-621.65 277.6 Q-630.05 277.6 -630.05 269.2 L-630.05 154.95 Q-630.05 146.55 -621.65 146.55" fill="#20213a" fill-opacity="0.5294118" fill-rule="evenodd" stroke="none"/>
    <path d="M-697.7 -71.4 L-290.1 -71.4 Q-281.7 -71.4 -281.7 -63.0 L-281.7 10.1 Q-281.7 18.5 -290.1 18.5 L-697.7 18.5 Q-706.1 18.5 -706.1 10.1 L-706.1 -63.0 Q-706.1 -71.4 -697.7 -71.4 M-697.7 25.1 L-290.1 25.1 Q-281.7 25.1 -281.7 33.5 L-281.7 130.75 Q-281.7 139.15 -290.1 139.15 L-697.7 139.15 Q-706.1 139.15 -706.1 130.75 L-706.1 33.5 Q-706.1 25.1 -697.7 25.1 M-621.65 146.55 L-377.05 146.55 Q-368.65 146.55 -368.65 154.95 L-368.65 269.2 Q-368.65 277.6 -377.05 277.6 L-621.65 277.6 Q-630.05 277.6 -630.05 269.2 L-630.05 154.95 Q-630.05 146.55 -621.65 146.55" fill="none" stroke="#d5dae9" stroke-linecap="round" stroke-linejoin="round" stroke-opacity="0.49803922" stroke-width="1.5"/>
  </g>
</svg>
