<?xml version="1.0" encoding="UTF-8" standalone="no"?>
<svg xmlns:xlink="http://www.w3.org/1999/xlink" height="52.4px" width="89.8px" xmlns="http://www.w3.org/2000/svg">
  <g transform="matrix(1.0, 0.0, 0.0, 1.0, 44.9, 26.2)">
    <path d="M-36.15 -25.45 L36.15 -25.45 Q44.15 -25.45 44.15 -17.45 L44.15 17.45 Q44.15 25.45 36.15 25.45 L-36.15 25.45 Q-44.15 25.45 -44.15 17.45 L-44.15 -17.45 Q-44.15 -25.45 -36.15 -25.45" fill="url(#gradient0)" fill-rule="evenodd" stroke="none"/>
    <path d="M-36.15 -25.45 L36.15 -25.45 Q44.15 -25.45 44.15 -17.45 L44.15 17.45 Q44.15 25.45 36.15 25.45 L-36.15 25.45 Q-44.15 25.45 -44.15 17.45 L-44.15 -17.45 Q-44.15 -25.45 -36.15 -25.45 Z" fill="none" stroke="#2a2e4a" stroke-linecap="round" stroke-linejoin="round" stroke-opacity="0.49803922" stroke-width="1.5"/>
  </g>
  <defs>
    <linearGradient gradientTransform="matrix(0.0, 0.029, -0.0539, 0.0, 0.0, 1.5)" gradientUnits="userSpaceOnUse" id="gradient0" spreadMethod="pad" x1="-819.2" x2="819.2">
      <stop offset="0.0" stop-color="#b1bcec"/>
      <stop offset="1.0" stop-color="#b3cae9"/>
    </linearGradient>
  </defs>
</svg>
