<?xml version="1.0" encoding="UTF-8" standalone="no"?>
<svg xmlns:xlink="http://www.w3.org/1999/xlink" height="29.75px" width="12.5px" xmlns="http://www.w3.org/2000/svg">
  <g transform="matrix(1.0, 0.0, 0.0, 1.0, 8.4, 37.25)">
    <path d="M3.15 -36.15 Q4.1 -35.1 4.1 -33.55 L4.1 -11.2 Q4.1 -9.65 3.05 -8.55 L3.1 -8.65 Q2.1 -7.5 0.4 -7.5 -1.05 -7.45 -2.15 -8.55 -3.25 -9.65 -3.25 -11.2 L-3.25 -28.3 -4.7 -28.05 Q-6.4 -28.05 -7.35 -29.2 -8.4 -30.2 -8.4 -31.7 -8.4 -32.8 -7.9 -33.65 L-7.75 -33.9 Q-7.15 -34.75 -5.95 -35.15 L-0.8 -37.0 -0.6 -37.1 0.45 -37.25 Q2.1 -37.25 3.1 -36.2 L3.15 -36.15" fill="#000000" fill-rule="evenodd" stroke="none"/>
    <path d="M-0.4 -36.35 L0.45 -36.5 Q1.65 -36.5 2.35 -35.75 L2.4 -35.7 Q3.1 -34.95 3.1 -33.8 L3.1 -11.45 Q3.1 -10.35 2.3 -9.55 L2.35 -9.55 Q1.6 -8.75 0.4 -8.75 -0.65 -8.75 -1.45 -9.55 -2.25 -10.35 -2.25 -11.45 L-2.25 -30.05 -3.2 -29.65 -3.25 -29.6 -4.7 -29.3 Q-5.85 -29.3 -6.55 -30.05 L-6.65 -30.1 Q-7.4 -30.85 -7.4 -31.95 -7.4 -32.75 -7.0 -33.4 L-6.95 -33.55 -5.65 -34.5 -0.5 -36.35 -0.4 -36.35" fill="#61646d" fill-rule="evenodd" stroke="none"/>
    <path d="M0.4 -10.0 Q-0.25 -10.0 -0.75 -10.5 -1.25 -11.0 -1.25 -11.7 L-1.25 -31.8 -3.65 -30.8 -4.7 -30.55 Q-5.45 -30.55 -5.9 -31.05 -6.4 -31.5 -6.4 -32.2 L-6.15 -33.2 -5.3 -33.8 -0.15 -35.65 0.45 -35.75 Q1.2 -35.75 1.65 -35.3 L2.1 -34.05 2.1 -11.7 Q2.1 -11.0 1.6 -10.5 1.15 -10.0 0.4 -10.0" fill="url(#gradient0)" fill-rule="evenodd" stroke="none"/>
  </g>
  <defs>
    <linearGradient gradientTransform="matrix(0.0, 0.0163, -0.2139, 0.0, 168.8, -22.15)" gradientUnits="userSpaceOnUse" id="gradient0" spreadMethod="pad" x1="-819.2" x2="819.2">
      <stop offset="0.0" stop-color="#e5f2ff"/>
      <stop offset="1.0" stop-color="#c9d0d7"/>
    </linearGradient>
  </defs>
</svg>
