<?xml version="1.0" encoding="UTF-8" standalone="no"?>
<svg xmlns:xlink="http://www.w3.org/1999/xlink" height="29.8px" width="20.5px" xmlns="http://www.w3.org/2000/svg">
  <g transform="matrix(1.0, 0.0, 0.0, 1.0, 10.9, 37.85)">
    <path d="M-9.85 -29.15 Q-9.85 -31.65 -8.5 -33.65 L-8.55 -33.65 Q-7.35 -35.6 -5.05 -36.75 L-5.05 -36.8 Q-2.95 -37.85 -0.35 -37.85 2.15 -37.85 4.1 -36.75 6.2 -35.65 7.35 -33.75 8.55 -31.8 8.55 -29.5 8.55 -26.95 7.0 -25.1 L6.95 -25.05 6.45 -24.55 8.05 -22.8 8.0 -22.85 Q9.6 -20.6 9.6 -17.55 9.6 -14.85 8.2 -12.6 6.8 -10.5 4.6 -9.25 L4.55 -9.2 Q2.25 -8.05 -0.4 -8.05 -3.4 -8.05 -5.7 -9.35 -8.15 -10.65 -9.5 -12.9 L-9.5 -12.85 Q-10.9 -15.1 -10.9 -18.0 -10.9 -19.5 -9.9 -20.55 -8.95 -21.65 -7.35 -21.7 -5.8 -21.7 -4.8 -20.55 -3.85 -19.5 -3.85 -18.0 -3.85 -17.2 -3.45 -16.55 L-2.3 -15.4 -2.25 -15.35 -0.6 -15.0 Q0.75 -15.0 1.6 -15.65 L1.65 -15.7 Q2.25 -16.4 2.25 -17.55 2.25 -18.4 1.9 -19.1 L0.95 -20.15 -0.25 -20.5 Q-1.85 -20.5 -2.9 -21.55 L-2.95 -21.65 Q-3.95 -22.7 -3.95 -24.2 -3.95 -25.85 -2.9 -26.8 -1.85 -27.9 -0.25 -27.9 L0.65 -28.15 1.3 -28.75 1.3 -28.8 1.5 -29.5 Q1.5 -30.05 1.1 -30.45 L1.1 -30.5 Q0.55 -30.9 -0.25 -30.9 L-1.7 -30.6 -1.7 -30.65 -2.55 -29.95 -2.8 -29.25 Q-2.8 -27.75 -3.7 -26.7 -4.8 -25.4 -6.35 -25.45 -7.85 -25.45 -8.9 -26.6 L-9.0 -26.7 Q-9.8 -27.7 -9.85 -29.15" fill="#000000" fill-rule="evenodd" stroke="none"/>
    <path d="M-4.6 -36.15 Q-2.7 -37.1 -0.35 -37.1 1.85 -37.1 3.65 -36.1 5.45 -35.15 6.5 -33.45 7.55 -31.8 7.55 -29.75 7.55 -27.55 6.25 -26.0 L6.2 -25.95 4.85 -24.7 Q6.3 -23.85 7.2 -22.5 8.6 -20.55 8.6 -17.8 8.6 -15.4 7.35 -13.4 6.1 -11.5 4.1 -10.35 L4.05 -10.35 Q2.0 -9.3 -0.4 -9.3 -3.1 -9.3 -5.2 -10.45 -7.4 -11.65 -8.65 -13.65 -9.9 -15.65 -9.9 -18.25 -9.9 -19.35 -9.2 -20.1 L-9.2 -20.05 Q-8.55 -20.95 -7.35 -20.95 -6.2 -20.95 -5.5 -20.05 -4.85 -19.3 -4.85 -18.25 -4.85 -17.15 -4.3 -16.25 -3.75 -15.35 -2.75 -14.75 -1.8 -14.25 -0.6 -14.25 1.15 -14.25 2.25 -15.15 L2.3 -15.2 Q3.25 -16.2 3.25 -17.8 3.25 -18.95 2.8 -19.8 2.3 -20.75 1.5 -21.25 L1.55 -21.25 -0.25 -21.75 Q-1.4 -21.75 -2.2 -22.55 L-2.25 -22.55 Q-2.95 -23.35 -2.95 -24.45 -2.95 -25.65 -2.2 -26.35 -1.4 -27.15 -0.25 -27.15 L1.1 -27.5 1.05 -27.45 2.1 -28.5 2.15 -28.5 Q2.5 -29.05 2.5 -29.75 2.5 -30.75 1.8 -31.45 L1.75 -31.45 Q0.95 -32.15 -0.25 -32.15 L-2.15 -31.8 -2.1 -31.8 Q-2.9 -31.4 -3.35 -30.75 -3.8 -30.2 -3.8 -29.5 -3.8 -28.4 -4.45 -27.6 L-4.5 -27.55 Q-5.3 -26.7 -6.35 -26.7 -7.45 -26.7 -8.2 -27.5 L-8.2 -27.55 Q-8.85 -28.35 -8.85 -29.4 -8.85 -31.6 -7.7 -33.4 L-7.7 -33.35 Q-6.6 -35.1 -4.6 -36.15" fill="#3b6caf" fill-rule="evenodd" stroke="none"/>
    <path d="M-0.4 -10.55 Q-2.85 -10.55 -4.75 -11.6 -6.7 -12.65 -7.8 -14.45 -8.9 -16.2 -8.9 -18.5 L-8.45 -19.7 Q-8.05 -20.2 -7.35 -20.2 -6.7 -20.2 -6.3 -19.7 -5.85 -19.2 -5.85 -18.5 -5.85 -17.1 -5.15 -16.0 -4.45 -14.85 -3.25 -14.15 -2.05 -13.5 -0.6 -13.5 1.6 -13.5 2.95 -14.7 4.25 -15.95 4.25 -18.05 4.25 -19.45 3.65 -20.55 3.05 -21.7 2.05 -22.35 1.0 -23.0 -0.25 -23.0 -1.0 -23.0 -1.5 -23.5 -1.95 -24.0 -1.95 -24.7 L-1.5 -25.9 Q-1.0 -26.4 -0.25 -26.4 0.65 -26.4 1.55 -26.85 2.4 -27.35 2.95 -28.2 3.5 -29.0 3.5 -30.0 3.5 -31.45 2.45 -32.45 1.4 -33.4 -0.25 -33.4 L-2.55 -32.95 -4.2 -31.6 Q-4.8 -30.75 -4.8 -29.75 -4.8 -29.0 -5.25 -28.5 -5.7 -27.95 -6.35 -27.95 -7.0 -27.95 -7.45 -28.45 -7.85 -28.95 -7.85 -29.65 -7.85 -31.55 -6.85 -33.1 -5.9 -34.6 -4.15 -35.5 -2.45 -36.35 -0.35 -36.35 1.6 -36.35 3.15 -35.5 4.75 -34.65 5.65 -33.2 6.55 -31.75 6.55 -30.0 6.55 -28.2 5.45 -26.9 4.3 -25.6 2.65 -24.85 5.15 -24.0 6.35 -22.2 7.6 -20.45 7.6 -18.05 7.6 -15.95 6.5 -14.2 5.4 -12.5 3.6 -11.5 1.75 -10.55 -0.4 -10.55" fill="url(#gradient0)" fill-rule="evenodd" stroke="none"/>
  </g>
  <defs>
    <linearGradient gradientTransform="matrix(0.0, 0.0163, -0.2139, 0.0, 75.45, -22.7)" gradientUnits="userSpaceOnUse" id="gradient0" spreadMethod="pad" x1="-819.2" x2="819.2">
      <stop offset="0.0" stop-color="#e5f2ff"/>
      <stop offset="1.0" stop-color="#b7d5ff"/>
    </linearGradient>
  </defs>
</svg>
