<?xml version="1.0" encoding="UTF-8" standalone="no"?>
<svg xmlns:xlink="http://www.w3.org/1999/xlink" height="58.9px" width="254.0px" xmlns="http://www.w3.org/2000/svg">
  <g transform="matrix(1.0, 0.0, 0.0, 1.0, 216.35, 28.7)">
    <path d="M-215.85 4.6 L-209.8 2.1 -210.05 -4.5 -209.9 -4.85 -209.6 -5.2 -209.15 -5.2 -208.7 -4.95 -204.45 0.05 -198.25 -2.2 -197.85 -2.25 Q-197.6 -2.25 -197.45 -1.95 L-197.3 -1.6 -197.45 -1.15 -200.85 4.5 -196.8 9.7 -196.6 10.05 -196.7 10.5 -197.0 10.75 -197.55 10.8 -203.9 9.3 -207.65 14.65 -207.9 14.95 -208.4 15.05 -208.8 14.8 -209.0 14.35 -209.5 7.85 -215.8 5.95 -216.2 5.7 -216.35 5.35 -216.25 4.9 -215.85 4.6 M-138.4 -23.3 L-131.9 -22.5 -128.8 -28.3 -128.5 -28.55 -128.05 -28.7 -127.65 -28.45 -127.45 -28.05 -126.25 -21.55 -119.75 -20.45 -119.4 -20.3 Q-119.15 -20.15 -119.2 -19.85 L-119.2 -19.45 -119.6 -19.15 -125.35 -15.9 -124.45 -9.4 -124.45 -9.0 -124.75 -8.65 -125.15 -8.6 Q-125.45 -8.6 -125.65 -8.85 L-130.4 -13.3 -136.3 -10.5 -136.7 -10.4 -137.15 -10.55 -137.35 -11.0 -137.35 -11.45 -134.55 -17.35 -139.05 -22.15 -139.25 -22.55 -139.2 -22.9 -138.85 -23.25 -138.4 -23.3 M18.45 12.45 L24.9 13.3 28.0 7.5 28.3 7.2 28.75 7.1 29.15 7.3 29.4 7.7 30.6 14.2 37.1 15.35 Q37.3 15.35 37.45 15.5 37.65 15.65 37.65 15.95 L37.6 16.35 37.3 16.65 31.5 19.85 32.4 26.35 32.35 26.8 32.05 27.1 31.65 27.2 31.2 26.95 26.4 22.5 20.5 25.3 20.1 25.4 19.65 25.2 19.45 24.8 Q19.4 24.6 19.5 24.35 L22.3 18.45 17.8 13.65 17.6 13.25 17.65 12.85 17.95 12.5 18.45 12.45 M-21.8 19.75 L-15.75 17.25 -16.0 10.65 -15.85 10.3 -15.55 9.95 -15.1 9.95 Q-14.8 10.0 -14.65 10.2 L-10.4 15.2 -4.2 12.95 -3.8 12.9 -3.4 13.2 -3.25 13.55 -3.4 14.0 -6.8 19.65 -2.75 24.85 -2.55 25.2 -2.65 25.65 -2.95 25.9 -3.5 25.95 -9.85 24.45 -13.6 29.8 -13.85 30.1 -14.35 30.2 -14.75 29.95 -14.95 29.5 -15.45 23.0 -21.75 21.1 -22.15 20.85 -22.3 20.5 -22.2 20.05 -21.8 19.75" fill="#5f5c90" fill-rule="evenodd" stroke="none"/>
  </g>
</svg>
