<?xml version="1.0" encoding="UTF-8" standalone="no"?>
<svg xmlns:xlink="http://www.w3.org/1999/xlink" height="29.75px" width="19.6px" xmlns="http://www.w3.org/2000/svg">
  <g transform="matrix(1.0, 0.0, 0.0, 1.0, 10.35, 37.6)">
    <path d="M-1.75 -30.2 L-2.6 -29.25 -2.65 -29.2 -3.0 -27.8 Q-3.0 -26.4 -3.95 -25.3 L-4.0 -25.2 Q-5.1 -24.15 -6.65 -24.15 -8.2 -24.15 -9.25 -25.2 -10.4 -26.35 -10.35 -27.8 -10.35 -30.55 -9.1 -32.75 L-9.05 -32.8 Q-7.75 -35.05 -5.55 -36.3 -3.35 -37.6 -0.55 -37.6 2.2 -37.6 4.3 -36.35 L4.3 -36.4 Q6.5 -35.15 7.7 -32.85 8.8 -30.75 8.8 -27.8 8.8 -25.9 7.7 -23.85 L7.75 -23.85 Q6.75 -22.05 5.35 -20.45 L0.75 -15.2 5.55 -15.2 Q7.1 -15.2 8.2 -14.1 9.3 -13.0 9.25 -11.55 9.25 -10.0 8.2 -8.9 7.1 -7.85 5.55 -7.85 L-6.65 -7.85 Q-8.35 -7.85 -9.3 -9.0 L-9.25 -8.9 Q-10.35 -10.0 -10.35 -11.55 -10.35 -13.1 -9.3 -14.1 L-0.05 -25.0 Q1.4 -26.65 1.55 -27.8 1.55 -29.1 0.95 -29.9 L0.95 -29.95 Q0.35 -30.5 -0.55 -30.5 -1.25 -30.5 -1.75 -30.15 L-1.75 -30.2" fill="#000000" fill-rule="evenodd" stroke="none"/>
    <path d="M-5.05 -35.7 Q-3.1 -36.85 -0.55 -36.85 1.95 -36.85 3.8 -35.75 5.75 -34.65 6.8 -32.65 7.8 -30.7 7.8 -28.05 7.8 -26.35 6.85 -24.55 L4.6 -21.35 4.6 -21.4 -1.5 -14.45 5.55 -14.45 Q6.65 -14.45 7.45 -13.65 8.25 -12.85 8.25 -11.8 8.25 -10.7 7.45 -9.9 6.65 -9.1 5.55 -9.1 L-6.65 -9.1 Q-7.85 -9.1 -8.6 -9.9 L-8.55 -9.9 Q-9.35 -10.7 -9.35 -11.8 -9.35 -12.9 -8.65 -13.6 L-8.6 -13.65 0.7 -24.6 Q2.5 -26.6 2.55 -28.05 2.55 -29.8 1.7 -30.85 0.85 -31.75 -0.55 -31.75 L-2.25 -31.3 -3.5 -29.95 -3.5 -29.9 Q-4.0 -29.05 -4.0 -28.05 -4.0 -27.0 -4.7 -26.2 L-4.75 -26.2 Q-5.55 -25.4 -6.65 -25.4 -7.75 -25.4 -8.55 -26.2 -9.35 -27.0 -9.35 -28.05 -9.35 -30.5 -8.2 -32.5 L-8.2 -32.55 Q-7.05 -34.6 -5.05 -35.7" fill="#468e58" fill-rule="evenodd" stroke="none"/>
    <path d="M-6.65 -10.35 Q-7.4 -10.35 -7.85 -10.85 -8.35 -11.35 -8.35 -12.05 L-7.9 -13.2 1.45 -24.2 Q3.55 -26.55 3.55 -28.3 3.55 -30.45 2.45 -31.75 1.35 -33.0 -0.55 -33.0 -1.8 -33.0 -2.8 -32.4 -3.85 -31.75 -4.4 -30.65 -5.0 -29.55 -5.0 -28.3 -5.0 -27.65 -5.45 -27.15 -5.95 -26.65 -6.65 -26.65 -7.35 -26.65 -7.85 -27.15 -8.35 -27.65 -8.35 -28.3 -8.35 -30.5 -7.35 -32.3 -6.3 -34.1 -4.55 -35.1 -2.8 -36.1 -0.55 -36.1 1.65 -36.1 3.3 -35.15 5.0 -34.2 5.9 -32.45 6.8 -30.7 6.8 -28.3 6.8 -26.85 5.95 -25.3 5.1 -23.7 3.85 -22.3 L-3.7 -13.7 5.55 -13.7 Q6.25 -13.7 6.75 -13.2 7.25 -12.7 7.25 -12.05 7.25 -11.35 6.75 -10.85 6.25 -10.35 5.55 -10.35 L-6.65 -10.35" fill="url(#gradient0)" fill-rule="evenodd" stroke="none"/>
  </g>
  <defs>
    <linearGradient gradientTransform="matrix(0.0, 0.0163, -0.2139, 0.0, 123.95, -22.5)" gradientUnits="userSpaceOnUse" id="gradient0" spreadMethod="pad" x1="-819.2" x2="819.2">
      <stop offset="0.00392156862745098" stop-color="#ecfff1"/>
      <stop offset="1.0" stop-color="#c2ffd1"/>
    </linearGradient>
  </defs>
</svg>
