<?xml version="1.0" encoding="UTF-8" standalone="no"?>
<svg xmlns:xlink="http://www.w3.org/1999/xlink" height="29.8px" width="19.75px" xmlns="http://www.w3.org/2000/svg">
  <g transform="matrix(1.0, 0.0, 0.0, 1.0, 10.35, 37.65)">
    <path d="M1.05 -28.8 Q0.45 -30.1 -0.45 -30.25 -1.4 -30.1 -1.95 -28.85 -2.95 -26.5 -2.95 -22.75 -2.95 -18.95 -1.95 -16.7 -1.4 -15.45 -0.45 -15.3 0.5 -15.45 1.1 -16.7 L1.05 -16.65 Q2.0 -19.0 2.0 -22.75 2.0 -26.5 1.05 -28.8 M-0.45 -37.65 Q2.75 -37.65 5.1 -35.6 7.3 -33.75 8.4 -30.25 9.4 -27.1 9.4 -22.75 9.4 -18.4 8.4 -15.25 7.3 -11.75 5.1 -9.85 2.75 -7.85 -0.45 -7.85 -5.35 -7.85 -8.0 -12.2 -10.35 -16.0 -10.35 -22.75 -10.35 -29.5 -8.0 -33.25 -5.35 -37.65 -0.45 -37.65" fill="#000000" fill-rule="evenodd" stroke="none"/>
    <path d="M-0.45 -31.5 Q-2.0 -31.45 -2.85 -29.5 -3.95 -27.0 -3.95 -23.0 -3.95 -18.95 -2.9 -16.55 L-2.85 -16.55 Q-2.0 -14.6 -0.45 -14.55 1.1 -14.6 2.0 -16.55 3.0 -19.0 3.0 -23.0 3.0 -27.0 1.95 -29.45 1.1 -31.4 -0.45 -31.5 M-0.45 -9.1 Q-4.8 -9.1 -7.15 -12.95 -9.35 -16.55 -9.35 -23.0 -9.35 -29.45 -7.15 -33.0 -4.8 -36.9 -0.45 -36.9 2.35 -36.9 4.45 -35.1 6.45 -33.4 7.45 -30.2 8.4 -27.15 8.4 -23.0 8.4 -18.85 7.45 -15.8 6.45 -12.6 4.45 -10.9 2.35 -9.1 -0.45 -9.1" fill="#6c7277" fill-rule="evenodd" stroke="none"/>
    <path d="M-0.45 -13.8 Q1.75 -13.8 2.9 -16.4 4.0 -19.0 4.0 -23.25 4.0 -27.5 2.85 -30.1 1.7 -32.75 -0.45 -32.75 -2.65 -32.75 -3.8 -30.15 -4.95 -27.5 -4.95 -23.25 -4.95 -18.95 -3.8 -16.4 -2.65 -13.8 -0.45 -13.8 M-0.45 -10.35 Q-4.25 -10.35 -6.3 -13.75 -8.35 -17.15 -8.35 -23.25 -8.35 -29.35 -6.3 -32.75 -4.25 -36.15 -0.45 -36.15 2.0 -36.15 3.8 -34.6 5.6 -33.05 6.5 -30.15 7.4 -27.25 7.4 -23.25 7.4 -19.25 6.5 -16.35 5.6 -13.45 3.8 -11.9 2.0 -10.35 -0.45 -10.35" fill="url(#gradient0)" fill-rule="evenodd" stroke="none"/>
  </g>
  <defs>
    <linearGradient gradientTransform="matrix(0.0, 0.0163, -0.2139, 0.0, -167.8, -22.5)" gradientUnits="userSpaceOnUse" id="gradient0" spreadMethod="pad" x1="-819.2" x2="819.2">
      <stop offset="0.0" stop-color="#585a5f"/>
      <stop offset="1.0" stop-color="#2c2e33"/>
    </linearGradient>
  </defs>
</svg>
