<?xml version="1.0" encoding="UTF-8" standalone="no"?>
<svg xmlns:xlink="http://www.w3.org/1999/xlink" height="29.75px" width="23.55px" xmlns="http://www.w3.org/2000/svg">
  <g transform="matrix(1.0, 0.0, 0.0, 1.0, 12.8, 38.75)">
    <path d="M-12.8 -18.5 Q-12.8 -19.75 -12.0 -20.7 L-12.05 -20.7 0.6 -37.25 0.65 -37.25 Q1.8 -38.8 3.55 -38.75 5.1 -38.75 6.15 -37.7 L6.25 -37.55 Q7.1 -36.55 7.1 -35.05 L7.1 -21.9 Q8.65 -21.9 9.6 -21.0 L9.65 -21.0 Q10.75 -20.2 10.75 -18.35 10.75 -16.95 9.75 -15.85 L9.65 -15.8 Q8.6 -14.85 7.1 -14.85 L7.1 -12.7 Q7.1 -11.2 6.15 -10.15 L6.1 -10.05 Q5.0 -9.0 3.45 -9.0 1.95 -9.0 0.9 -10.15 -0.1 -11.2 -0.1 -12.7 L-0.1 -14.85 -9.1 -14.85 Q-10.8 -14.85 -11.75 -16.0 L-11.7 -15.9 Q-12.85 -17.05 -12.8 -18.5 M-0.1 -21.9 L-0.1 -24.85 -2.35 -21.9 -0.1 -21.9" fill="#000000" fill-rule="evenodd" stroke="none"/>
    <path d="M-9.1 -16.1 Q-10.3 -16.1 -11.05 -16.9 L-11.0 -16.9 Q-11.8 -17.7 -11.8 -18.75 -11.8 -19.65 -11.25 -20.35 L1.4 -36.9 1.45 -36.9 Q2.3 -38.0 3.55 -38.0 4.7 -38.0 5.4 -37.25 L5.5 -37.15 Q6.1 -36.45 6.1 -35.3 L6.1 -21.15 7.1 -21.15 Q8.25 -21.15 8.95 -20.55 9.75 -19.95 9.75 -18.6 9.75 -17.6 9.0 -16.85 L9.0 -16.8 Q8.2 -16.1 7.1 -16.1 L6.1 -16.1 6.1 -12.95 Q6.1 -11.85 5.4 -11.05 L5.35 -11.05 Q4.55 -10.25 3.45 -10.25 2.35 -10.25 1.6 -11.05 0.9 -11.85 0.9 -12.95 L0.9 -16.1 -9.1 -16.1 M0.9 -21.15 L0.9 -28.1 -4.4 -21.15 0.9 -21.15" fill="#954858" fill-rule="evenodd" stroke="none"/>
    <path d="M7.1 -20.4 Q7.85 -20.4 8.3 -20.0 8.75 -19.65 8.75 -18.85 8.75 -18.25 8.3 -17.8 7.8 -17.35 7.1 -17.35 L5.1 -17.35 5.1 -13.2 Q5.1 -12.5 4.65 -12.0 4.15 -11.5 3.45 -11.5 2.8 -11.5 2.35 -12.0 1.9 -12.5 1.9 -13.2 L1.9 -17.35 -9.1 -17.35 Q-9.85 -17.35 -10.3 -17.85 -10.8 -18.35 -10.8 -19.0 L-10.45 -20.0 2.2 -36.55 Q2.75 -37.25 3.55 -37.25 4.25 -37.25 4.7 -36.8 5.1 -36.3 5.1 -35.55 L5.1 -20.4 7.1 -20.4 M-6.45 -20.4 L1.9 -20.4 1.9 -31.3 -6.45 -20.4" fill="url(#gradient0)" fill-rule="evenodd" stroke="none"/>
  </g>
  <defs>
    <linearGradient gradientTransform="matrix(0.0, 0.0163, -0.2139, 0.0, 26.0, -23.65)" gradientUnits="userSpaceOnUse" id="gradient0" spreadMethod="pad" x1="-819.2" x2="819.2">
      <stop offset="0.0" stop-color="#ffe7f3"/>
      <stop offset="1.0" stop-color="#ffbfe2"/>
    </linearGradient>
  </defs>
</svg>
