<?xml version="1.0" encoding="UTF-8" standalone="no"?>
<svg xmlns:xlink="http://www.w3.org/1999/xlink" height="29.75px" width="19.55px" xmlns="http://www.w3.org/2000/svg">
  <g transform="matrix(1.0, 0.0, 0.0, 1.0, 10.2, 39.05)">
    <path d="M5.8 -35.35 Q5.8 -34.25 5.25 -33.4 L2.35 -28.65 Q3.55 -28.3 4.65 -27.65 L4.6 -27.65 Q6.8 -26.4 8.1 -24.2 L8.1 -24.15 Q9.35 -21.95 9.35 -19.1 9.35 -16.35 8.1 -14.1 6.85 -11.85 4.6 -10.55 2.4 -9.3 -0.4 -9.3 -3.25 -9.3 -5.45 -10.55 -7.7 -11.85 -8.95 -14.1 -10.2 -16.35 -10.2 -19.1 -10.2 -22.25 -8.65 -24.7 L-8.65 -24.65 -1.15 -37.1 -1.15 -37.15 Q0.1 -39.15 2.05 -39.05 3.65 -39.05 4.75 -37.95 5.8 -36.9 5.8 -35.35 M-3.05 -19.1 Q-3.05 -17.8 -2.3 -16.95 L-2.25 -16.95 Q-1.6 -16.25 -0.45 -16.25 0.7 -16.25 1.45 -16.95 2.15 -17.8 2.15 -19.1 2.15 -20.45 1.4 -21.3 0.65 -22.0 -0.45 -22.0 -1.55 -22.0 -2.25 -21.3 L-2.3 -21.25 Q-3.05 -20.4 -3.05 -19.1" fill="#000000" fill-rule="evenodd" stroke="none"/>
    <path d="M-0.3 -36.85 Q0.65 -38.35 2.05 -38.3 3.2 -38.3 4.0 -37.5 4.8 -36.7 4.8 -35.6 4.8 -34.8 4.4 -34.15 L0.8 -28.15 Q2.6 -27.95 4.15 -27.05 L4.1 -27.05 Q6.1 -25.95 7.25 -23.95 L7.25 -23.9 Q8.35 -21.9 8.35 -19.35 8.35 -16.9 7.25 -14.85 6.1 -12.8 4.1 -11.65 2.15 -10.55 -0.4 -10.55 -3.0 -10.55 -4.95 -11.65 -6.95 -12.8 -8.05 -14.85 -9.2 -16.9 -9.2 -19.35 -9.2 -22.2 -7.8 -24.4 L-0.3 -36.85 M-3.0 -22.2 Q-4.05 -21.1 -4.05 -19.35 -4.05 -17.65 -3.0 -16.55 L-3.0 -16.5 Q-2.05 -15.5 -0.45 -15.5 1.15 -15.5 2.2 -16.55 L2.2 -16.5 Q3.15 -17.6 3.15 -19.35 3.15 -21.05 2.2 -22.2 L2.15 -22.2 Q1.15 -23.25 -0.45 -23.25 -2.0 -23.25 -3.0 -22.2" fill="url(#gradient0)" fill-rule="evenodd" stroke="none"/>
    <path d="M-0.4 -27.5 Q1.85 -27.5 3.6 -26.45 5.35 -25.45 6.35 -23.7 7.35 -21.9 7.35 -19.6 7.35 -17.4 6.35 -15.6 5.35 -13.8 3.6 -12.8 1.85 -11.8 -0.4 -11.8 -2.7 -11.8 -4.45 -12.8 -6.2 -13.8 -7.2 -15.6 -8.2 -17.4 -8.2 -19.6 -8.2 -22.15 -6.95 -24.15 L0.55 -36.6 Q1.15 -37.55 2.05 -37.55 2.8 -37.55 3.3 -37.05 3.8 -36.55 3.8 -35.85 L3.55 -34.95 -0.95 -27.5 -0.4 -27.5 M-0.45 -14.75 Q1.6 -14.75 2.9 -16.1 4.15 -17.45 4.15 -19.6 4.15 -21.75 2.9 -23.15 1.6 -24.5 -0.45 -24.5 -2.45 -24.5 -3.75 -23.15 -5.05 -21.75 -5.05 -19.6 -5.05 -17.45 -3.75 -16.1 -2.5 -14.75 -0.45 -14.75" fill="url(#gradient1)" fill-rule="evenodd" stroke="none"/>
  </g>
  <defs>
    <linearGradient gradientTransform="matrix(0.0, 0.0169, -0.0107, 0.0, -0.4, -24.45)" gradientUnits="userSpaceOnUse" id="gradient0" spreadMethod="pad" x1="-819.2" x2="819.2">
      <stop offset="0.0" stop-color="#c2945c"/>
      <stop offset="0.48627450980392156" stop-color="#76a2bb"/>
      <stop offset="1.0" stop-color="#bb6f9d"/>
    </linearGradient>
    <linearGradient gradientTransform="matrix(0.0, 0.0163, -0.2139, 0.0, -73.05, -23.95)" gradientUnits="userSpaceOnUse" id="gradient1" spreadMethod="pad" x1="-819.2" x2="819.2">
      <stop offset="0.0" stop-color="#fffad7"/>
      <stop offset="0.5372549019607843" stop-color="#d7f0ff"/>
      <stop offset="1.0" stop-color="#ffdbf6"/>
    </linearGradient>
  </defs>
</svg>
