<?xml version="1.0" encoding="UTF-8" standalone="no"?>
<svg xmlns:xlink="http://www.w3.org/1999/xlink" height="29.75px" width="20.8px" xmlns="http://www.w3.org/2000/svg">
  <g transform="matrix(1.0, 0.0, 0.0, 1.0, 10.8, 37.0)">
    <path d="M-9.6 -33.3 Q-9.6 -34.9 -8.5 -35.95 -7.5 -37.0 -5.95 -37.0 L5.1 -37.0 Q6.65 -37.0 7.75 -35.9 L7.8 -35.85 Q8.75 -34.8 8.75 -33.3 8.75 -31.9 7.8 -30.8 L7.75 -30.7 Q6.65 -29.65 5.1 -29.65 L-2.25 -29.65 -2.25 -28.05 -0.45 -28.05 Q2.4 -28.05 4.8 -26.75 L4.9 -26.7 Q7.3 -25.3 8.65 -22.95 L8.65 -22.9 Q10.0 -20.55 10.0 -17.65 10.0 -14.75 8.65 -12.4 7.25 -10.0 4.85 -8.6 2.45 -7.25 -0.45 -7.25 -3.3 -7.25 -5.65 -8.6 -8.15 -10.0 -9.45 -12.35 -10.8 -14.75 -10.8 -17.65 -10.8 -19.25 -9.8 -20.2 L-9.75 -20.25 Q-9.0 -21.05 -7.9 -21.25 L-8.45 -21.7 Q-9.6 -22.7 -9.6 -24.4 L-9.6 -33.3 M-0.45 -20.7 L-5.0 -20.7 -4.5 -20.25 Q-3.45 -19.3 -3.45 -17.65 -3.45 -16.8 -3.05 -16.05 L-1.95 -15.05 -1.85 -14.95 Q-1.25 -14.6 -0.45 -14.6 L1.1 -15.0 1.2 -15.05 2.2 -16.05 2.25 -16.15 Q2.65 -16.85 2.65 -17.65 2.65 -18.5 2.25 -19.2 L2.2 -19.25 Q1.85 -19.95 1.2 -20.3 L-0.45 -20.7" fill="#000000" fill-rule="evenodd" stroke="none"/>
    <path d="M5.1 -36.25 Q6.2 -36.25 7.0 -35.45 L7.05 -35.4 Q7.75 -34.65 7.75 -33.55 7.75 -32.5 7.05 -31.7 L7.0 -31.7 Q6.2 -30.9 5.1 -30.9 L-3.25 -30.9 -3.25 -27.3 -0.45 -27.3 Q2.15 -27.3 4.35 -26.1 6.55 -24.8 7.8 -22.7 9.0 -20.5 9.0 -17.9 9.0 -15.25 7.8 -13.15 6.55 -10.95 4.35 -9.7 2.15 -8.5 -0.45 -8.5 -3.0 -8.5 -5.2 -9.7 -7.4 -10.95 -8.55 -13.1 -9.8 -15.3 -9.8 -17.9 -9.8 -19.05 -9.1 -19.75 L-9.05 -19.8 Q-8.3 -20.6 -7.15 -20.6 -6.0 -20.6 -5.25 -19.85 L-5.2 -19.75 Q-4.45 -19.05 -4.45 -17.9 -4.45 -16.75 -3.9 -15.85 L-3.95 -15.85 Q-3.4 -14.95 -2.45 -14.4 L-2.4 -14.4 Q-1.55 -13.85 -0.45 -13.85 0.7 -13.85 1.65 -14.4 2.55 -14.95 3.1 -15.85 3.65 -16.8 3.65 -17.9 3.65 -19.05 3.1 -19.95 L3.1 -20.0 Q2.55 -20.9 1.65 -21.4 0.7 -21.95 -0.45 -21.95 L-5.95 -21.95 Q-7.05 -21.95 -7.75 -22.7 L-7.85 -22.75 Q-8.6 -23.5 -8.6 -24.65 L-8.6 -33.55 Q-8.6 -34.7 -7.8 -35.5 -7.1 -36.25 -5.95 -36.25 L5.1 -36.25" fill="#a88248" fill-rule="evenodd" stroke="none"/>
    <path d="M-0.45 -9.75 Q-2.75 -9.75 -4.7 -10.85 -6.65 -11.95 -7.7 -13.85 -8.8 -15.8 -8.8 -18.15 -8.8 -18.9 -8.35 -19.35 -7.9 -19.85 -7.15 -19.85 -6.4 -19.85 -5.95 -19.35 -5.45 -18.9 -5.45 -18.15 -5.45 -16.75 -4.8 -15.6 -4.1 -14.45 -2.95 -13.8 -1.85 -13.1 -0.45 -13.1 1.0 -13.1 2.15 -13.8 3.3 -14.45 3.95 -15.6 4.65 -16.75 4.65 -18.15 4.65 -19.6 3.95 -20.75 3.3 -21.9 2.15 -22.55 1.0 -23.2 -0.45 -23.2 L-5.95 -23.2 Q-6.65 -23.2 -7.1 -23.7 -7.6 -24.15 -7.6 -24.9 L-7.6 -33.8 Q-7.6 -34.55 -7.1 -35.05 L-5.95 -35.5 5.1 -35.5 Q5.8 -35.5 6.3 -35.0 L6.75 -33.8 Q6.75 -33.15 6.3 -32.65 5.8 -32.15 5.1 -32.15 L-4.25 -32.15 -4.25 -26.55 -0.45 -26.55 Q1.9 -26.55 3.85 -25.5 5.8 -24.35 6.9 -22.45 8.0 -20.5 8.0 -18.15 8.0 -15.8 6.9 -13.9 5.8 -11.95 3.85 -10.85 1.9 -9.75 -0.45 -9.75" fill="url(#gradient0)" fill-rule="evenodd" stroke="none"/>
  </g>
  <defs>
    <linearGradient gradientTransform="matrix(0.0, 0.0163, -0.2139, 0.0, -23.95, -21.9)" gradientUnits="userSpaceOnUse" id="gradient0" spreadMethod="pad" x1="-819.2" x2="819.2">
      <stop offset="0.0" stop-color="#fdffe2"/>
      <stop offset="1.0" stop-color="#fff9a6"/>
    </linearGradient>
  </defs>
</svg>
