<?xml version="1.0" encoding="UTF-8" standalone="no"?>
<svg xmlns:xlink="http://www.w3.org/1999/xlink" height="29.75px" width="19.9px" xmlns="http://www.w3.org/2000/svg">
  <g transform="matrix(1.0, 0.0, 0.0, 1.0, 9.5, 36.1)">
    <path d="M10.4 -32.45 Q10.45 -31.75 10.0 -30.7 L9.95 -30.7 -0.6 -8.4 -0.6 -8.35 Q-1.05 -7.45 -2.0 -6.9 L-2.05 -6.85 Q-2.9 -6.35 -3.95 -6.35 -5.4 -6.3 -6.5 -7.4 -7.6 -8.5 -7.6 -10.05 -7.65 -10.9 -7.1 -12.0 L-7.1 -11.95 1.0 -28.75 -5.85 -28.75 Q-7.4 -28.75 -8.45 -29.8 -9.5 -30.8 -9.5 -32.45 -9.5 -33.95 -8.5 -35.0 L-8.4 -35.1 Q-7.35 -36.1 -5.85 -36.1 L6.7 -36.1 Q8.2 -36.1 9.25 -35.1 L9.35 -35.05 Q10.4 -34.0 10.4 -32.45" fill="#000000" fill-rule="evenodd" stroke="none"/>
    <path d="M-7.7 -34.65 Q-6.95 -35.35 -5.85 -35.35 L6.7 -35.35 Q7.8 -35.35 8.6 -34.65 L8.6 -34.6 Q9.4 -33.8 9.4 -32.7 L9.05 -31.35 -1.5 -9.05 Q-1.8 -8.4 -2.5 -8.0 L-2.55 -7.95 Q-3.2 -7.6 -3.95 -7.6 -5.0 -7.6 -5.8 -8.4 -6.6 -9.2 -6.6 -10.3 -6.6 -10.95 -6.2 -11.8 L-6.2 -11.75 2.6 -30.0 -5.85 -30.0 Q-6.95 -30.0 -7.75 -30.8 -8.5 -31.5 -8.5 -32.7 -8.5 -33.8 -7.8 -34.55 L-7.7 -34.65" fill="url(#gradient0)" fill-rule="evenodd" stroke="none"/>
    <path d="M-3.95 -8.85 Q-4.6 -8.85 -5.1 -9.35 -5.6 -9.85 -5.6 -10.55 L-5.3 -11.6 4.2 -31.25 -5.85 -31.25 Q-6.55 -31.25 -7.05 -31.75 -7.5 -32.2 -7.5 -32.95 -7.5 -33.65 -7.05 -34.15 L-5.85 -34.6 6.7 -34.6 Q7.4 -34.6 7.9 -34.15 8.4 -33.65 8.4 -32.95 L8.15 -32.05 -2.4 -9.75 Q-2.6 -9.35 -3.05 -9.1 L-3.95 -8.85" fill="url(#gradient1)" fill-rule="evenodd" stroke="none"/>
  </g>
  <defs>
    <linearGradient gradientTransform="matrix(0.0, 0.0164, -0.0109, 0.0, 0.45, -21.35)" gradientUnits="userSpaceOnUse" id="gradient0" spreadMethod="pad" x1="-819.2" x2="819.2">
      <stop offset="0.0" stop-color="#3b1f70"/>
      <stop offset="0.5137254901960784" stop-color="#8a2e5c"/>
      <stop offset="1.0" stop-color="#1a1954"/>
    </linearGradient>
    <linearGradient gradientTransform="matrix(0.0, 0.0163, -0.2139, 0.0, -119.45, -21.0)" gradientUnits="userSpaceOnUse" id="gradient1" spreadMethod="pad" x1="-819.2" x2="819.2">
      <stop offset="0.0" stop-color="#b7a1ff"/>
      <stop offset="0.4196078431372549" stop-color="#e586ca"/>
      <stop offset="1.0" stop-color="#7b6dd9"/>
    </linearGradient>
  </defs>
</svg>
