<?xml version="1.0" encoding="UTF-8" standalone="no"?>
<svg xmlns:xlink="http://www.w3.org/1999/xlink" height="54.8px" width="124.85px" xmlns="http://www.w3.org/2000/svg">
  <g transform="matrix(1.0, 0.0, 0.0, 1.0, 60.8, 10.7)">
    <path d="M30.9 -7.8 Q40.8 -12.0 63.3 -2.9 58.15 16.6 44.15 18.25 49.05 33.25 46.8 43.35 36.25 42.85 29.75 31.5 19.1 15.15 20.0 5.75 20.9 -3.7 30.9 -7.8 M-8.9 -9.05 Q-17.2 -11.7 -36.8 -6.7 -45.85 -4.7 -52.8 -3.9 L-59.6 -2.95 Q-61.45 -1.85 -56.05 5.15 -50.7 12.2 -32.85 18.25 -40.3 33.25 -36.85 43.35 -20.75 42.85 -10.9 31.5 5.3 15.15 4.55 5.1 3.75 -5.0 -8.9 -9.05" fill="none" stroke="#000000" stroke-linecap="round" stroke-linejoin="round" stroke-width="1.5"/>
    <path d="M49.8 7.45 Q41.75 1.75 31.9 0.2 M28.25 11.7 Q29.25 19.4 41.35 29.7 M40.85 15.55 Q36.3 11.9 29.15 8.65 M-8.6 11.7 Q-10.15 19.4 -28.55 29.7 M-27.8 15.55 Q-20.9 11.9 -9.95 8.65 M-41.45 7.45 Q-29.2 1.75 -14.2 0.2" fill="none" stroke="#000000" stroke-linecap="round" stroke-linejoin="round" stroke-opacity="0.4862745" stroke-width="1.0"/>
  </g>
</svg>
