<?xml version="1.0" encoding="UTF-8" standalone="no"?>
<svg xmlns:xlink="http://www.w3.org/1999/xlink" height="17.0px" width="16.95px" xmlns="http://www.w3.org/2000/svg">
  <g transform="matrix(1.0, 0.0, 0.0, 1.0, 8.5, 8.5)">
    <path d="M-6.05 3.25 Q-6.85 1.75 -6.85 0.0 -6.85 -2.85 -4.85 -4.8 -2.9 -6.8 -0.05 -6.8 2.8 -6.8 4.85 -4.8 L6.0 -3.3 Q6.55 0.1 5.2 2.45 3.65 5.05 0.15 5.5 -3.4 5.95 -6.05 3.25" fill="#fcd349" fill-rule="evenodd" stroke="none"/>
    <path d="M6.0 -3.3 Q6.8 -1.85 6.8 0.0 6.8 2.8 4.85 4.9 2.8 6.85 -0.05 6.85 -2.9 6.85 -4.85 4.9 L-6.05 3.25 Q-3.4 5.95 0.15 5.5 3.65 5.05 5.2 2.45 6.55 0.1 6.0 -3.3" fill="#d99511" fill-rule="evenodd" stroke="none"/>
    <path d="M6.0 -3.3 L4.85 -4.8 Q2.8 -6.8 -0.05 -6.8 -2.9 -6.8 -4.85 -4.8 -6.85 -2.85 -6.85 0.0 -6.85 1.75 -6.05 3.25 L-4.85 4.9 Q-2.9 6.85 -0.05 6.85 2.8 6.85 4.85 4.9 6.8 2.8 6.8 0.0 6.8 -1.85 6.0 -3.3 M7.5 0.0 Q7.5 3.1 5.35 5.4 3.1 7.55 -0.05 7.55 -3.2 7.55 -5.35 5.4 -7.55 3.1 -7.55 0.0 -7.55 -3.15 -5.35 -5.3 -3.2 -7.5 -0.05 -7.5 3.1 -7.5 5.35 -5.3 7.5 -3.15 7.5 0.0" fill="#382406" fill-rule="evenodd" stroke="none"/>
    <path d="M7.5 0.0 Q7.5 -3.15 5.35 -5.3 3.1 -7.5 -0.05 -7.5 -3.2 -7.5 -5.35 -5.3 -7.55 -3.15 -7.55 0.0 -7.55 3.1 -5.35 5.4 -3.2 7.55 -0.05 7.55 3.1 7.55 5.35 5.4 7.5 3.1 7.5 0.0 M8.45 0.0 Q8.45 3.55 6.0 6.0 3.5 8.5 -0.05 8.5 -3.55 8.5 -6.05 6.0 -8.5 3.55 -8.5 0.0 -8.5 -3.6 -6.05 -6.0 -3.55 -8.5 -0.05 -8.5 3.5 -8.5 6.0 -6.0 8.45 -3.6 8.45 0.0" fill="#916a09" fill-rule="evenodd" stroke="none"/>
    <path d="M8.45 0.0 Q8.45 3.55 6.0 6.0 3.5 8.5 -0.05 8.5 -3.55 8.5 -6.05 6.0 -8.5 3.55 -8.5 0.0 -8.5 -3.6 -6.05 -6.0 -3.55 -8.5 -0.05 -8.5 3.5 -8.5 6.0 -6.0 8.45 -3.6 8.45 0.0 Z" fill="none" stroke="#000000" stroke-linecap="round" stroke-linejoin="round" stroke-width="0.05"/>
    <path d="M4.85 -0.2 L2.0 0.7 3.4 3.35 0.75 1.95 -0.15 4.8 -1.05 1.95 -3.7 3.35 -2.3 0.7 -5.15 -0.2 -2.3 -1.1 -3.7 -3.75 -1.05 -2.35 -0.15 -5.2 0.75 -2.35 3.4 -3.75 2.0 -1.1 4.85 -0.2" fill="#fff9af" fill-opacity="0.7490196" fill-rule="evenodd" stroke="none"/>
    <path d="M-0.35 -6.45 Q0.9 -6.6 0.4 -5.8 L0.1 -5.6 -0.95 -5.85 Q-1.25 -6.05 -0.9 -6.25 L-0.35 -6.45 M-1.8 -5.85 Q-0.8 -5.7 -2.25 -4.3 -3.7 -2.95 -4.6 -3.05 -5.45 -3.25 -4.75 -4.5 -4.05 -5.75 -1.8 -5.85" fill="#ffffff" fill-opacity="0.7019608" fill-rule="evenodd" stroke="none"/>
  </g>
</svg>
