<?xml version="1.0" encoding="UTF-8" standalone="no"?>
<svg xmlns:xlink="http://www.w3.org/1999/xlink" height="90.75px" width="140.15px" xmlns="http://www.w3.org/2000/svg">
  <g transform="matrix(1.0, 0.0, 0.0, 1.0, 72.8, 13.4)">
    <path d="M39.25 67.25 Q35.1 63.65 31.2 57.15 23.3 29.0 17.9 -10.7 8.0 -12.25 5.45 -6.5 7.35 25.35 16.15 58.3 19.75 69.0 31.2 73.1 47.85 75.15 52.4 71.55 45.5 72.7 39.25 67.25 45.7 66.9 50.05 62.4 56.75 55.4 56.15 49.1 L54.35 48.8 47.6 48.15 Q48.0 45.1 50.5 44.05 56.05 43.35 64.75 46.55 68.0 49.8 64.6 58.75 58.75 69.0 52.5 71.45 L52.4 71.55 M56.15 49.1 L62.05 49.55 64.75 46.55 M-56.7 73.75 Q-44.45 79.0 -33.5 73.75 -21.8 68.35 -12.9 47.95 -9.05 39.2 -6.85 28.3 -2.0 3.75 3.7 -6.5 2.5 -11.65 -4.15 -12.4 -17.9 -9.1 -21.9 26.3 -26.7 50.6 -35.55 62.1 -39.25 67.1 -43.1 70.1 -49.7 74.95 -56.7 73.75 -62.8 70.35 -68.05 63.85 -74.35 53.4 -70.1 49.2 -64.8 47.05 -57.3 46.15 -53.75 45.85 -51.3 50.0 -53.9 51.35 -59.8 51.0 L-61.55 51.15 Q-60.85 56.1 -55.8 62.85 -51.1 67.95 -43.1 70.1 M-69.55 49.65 L-66.35 52.3 Q-64.4 51.5 -61.55 51.15" fill="none" stroke="#000000" stroke-linecap="round" stroke-linejoin="round" stroke-width="2.0"/>
  </g>
</svg>
