<?xml version="1.0" encoding="UTF-8" standalone="no"?>
<svg xmlns:xlink="http://www.w3.org/1999/xlink" height="74.55px" width="66.5px" xmlns="http://www.w3.org/2000/svg">
  <g transform="matrix(1.0, 0.0, 0.0, 1.0, 68.25, 0.35)">
    <path d="M-5.95 0.4 L-23.75 33.05 Q-25.95 35.25 -31.35 36.25 -31.05 38.6 -32.0 40.05 L-35.45 40.85 Q-41.9 48.2 -50.2 51.85 -58.8 54.75 -62.9 58.7 L-67.5 73.1 Q-61.7 74.75 -45.0 68.45 L-37.3 70.15 Q-28.2 65.5 -21.15 55.05 L-21.4 51.9 -16.45 51.9 -14.85 48.65 -14.45 46.4 -11.9 44.45 -8.65 33.1 -2.5 3.35 -5.95 0.4" fill="none" stroke="#000000" stroke-linecap="round" stroke-linejoin="round" stroke-width="1.5"/>
    <path d="M-20.7 43.65 L-20.0 33.7 -24.5 42.1 -26.5 44.75 -27.65 55.0 M-49.8 56.35 L-40.15 55.85 -40.1 55.85 Q-31.95 51.35 -26.5 44.75 L-37.1 47.5 M-11.85 18.35 L-20.0 33.7 M-40.15 55.85 L-41.65 56.65 -51.7 65.8 M-40.1 55.85 L-41.25 62.95" fill="none" stroke="#000000" stroke-linecap="round" stroke-linejoin="round" stroke-opacity="0.49803922" stroke-width="1.0"/>
  </g>
</svg>
