<?xml version="1.0" encoding="UTF-8" standalone="no"?>
<svg xmlns:xlink="http://www.w3.org/1999/xlink" height="567.65px" width="988.65px" xmlns="http://www.w3.org/2000/svg">
  <g transform="matrix(1.0, 0.0, 0.0, 1.0, 1205.15, 241.7)">
    <path d="M-1205.15 -241.7 L-216.5 -241.7 -216.5 325.95 -1205.15 325.95 -1205.15 -241.7" fill="#0b0b19" fill-opacity="0.54901963" fill-rule="evenodd" stroke="none"/>
    <path d="M-1008.6 -133.55 L-1008.6 -174.1 Q-1008.6 -183.05 -1002.25 -189.4 -995.9 -195.75 -986.95 -195.75 L-448.25 -195.75 Q-439.3 -195.75 -432.95 -189.4 -426.6 -183.05 -426.6 -174.1 L-426.6 -133.55 -1008.6 -133.55" fill="url(#gradient0)" fill-rule="evenodd" stroke="none"/>
    <path d="M-426.6 -133.55 L-426.6 255.2 Q-426.6 264.15 -432.95 270.5 -439.3 276.85 -448.25 276.85 L-986.95 276.85 Q-995.9 276.85 -1002.25 270.5 -1008.6 264.15 -1008.6 255.2 L-1008.6 -133.55 -426.6 -133.55" fill="url(#gradient1)" fill-rule="evenodd" stroke="none"/>
    <path d="M-1008.6 -133.55 L-1008.6 -174.1 Q-1008.6 -183.05 -1002.25 -189.4 -995.9 -195.75 -986.95 -195.75 L-448.25 -195.75 Q-439.3 -195.75 -432.95 -189.4 -426.6 -183.05 -426.6 -174.1 L-426.6 -133.55 -426.6 255.2 Q-426.6 264.15 -432.95 270.5 -439.3 276.85 -448.25 276.85 L-986.95 276.85 Q-995.9 276.85 -1002.25 270.5 -1008.6 264.15 -1008.6 255.2 L-1008.6 -133.55 -426.6 -133.55" fill="none" stroke="#101979" stroke-linecap="round" stroke-linejoin="round" stroke-opacity="0.7764706" stroke-width="1.4000000000000001"/>
  </g>
  <defs>
    <linearGradient gradientTransform="matrix(0.0, 0.0323, -0.3552, 0.0, -717.6, -163.85)" gradientUnits="userSpaceOnUse" id="gradient0" spreadMethod="pad" x1="-819.2" x2="819.2">
      <stop offset="0.0" stop-color="#bfc1f0" stop-opacity="0.8980392"/>
      <stop offset="1.0" stop-color="#d9dfff" stop-opacity="0.8980392"/>
    </linearGradient>
    <linearGradient gradientTransform="matrix(0.0, 0.244, -0.3552, 0.0, -717.6, 73.1)" gradientUnits="userSpaceOnUse" id="gradient1" spreadMethod="pad" x1="-819.2" x2="819.2">
      <stop offset="0.0" stop-color="#aab5e2" stop-opacity="0.8980392"/>
      <stop offset="1.0" stop-color="#9fa2e5" stop-opacity="0.8980392"/>
    </linearGradient>
  </defs>
</svg>
