<?xml version="1.0" encoding="UTF-8" standalone="no"?>
<svg xmlns:xlink="http://www.w3.org/1999/xlink" height="76.25px" width="622.75px" xmlns="http://www.w3.org/2000/svg">
  <g transform="matrix(1.0, 0.0, 0.0, 1.0, 951.25, 91.8)">
    <path d="M-940.5 -87.7 L-465.5 -87.7 Q-455.75 -87.7 -455.75 -77.95 L-455.75 -28.2 Q-455.75 -18.45 -465.5 -18.45 L-940.5 -18.45 Q-950.25 -18.45 -950.25 -28.2 L-950.25 -77.95 Q-950.25 -87.7 -940.5 -87.7" fill="#ecf1ff" fill-rule="evenodd" stroke="none"/>
    <path d="M-940.5 -87.7 L-465.5 -87.7 Q-455.75 -87.7 -455.75 -77.95 L-455.75 -28.2 Q-455.75 -18.45 -465.5 -18.45 L-940.5 -18.45 Q-950.25 -18.45 -950.25 -28.2 L-950.25 -77.95 Q-950.25 -87.7 -940.5 -87.7 Z" fill="none" stroke="#000000" stroke-linecap="round" stroke-linejoin="round" stroke-opacity="0.9098039" stroke-width="2.0"/>
    <path d="M-444.2 -82.15 Q-444.2 -88.9 -437.45 -88.9 L-338.75 -88.9 Q-332.0 -88.9 -332.0 -82.15 L-332.0 -26.4 Q-332.0 -19.65 -338.75 -19.65 L-437.45 -19.65 Q-444.2 -19.65 -444.2 -26.4 L-444.2 -82.15" fill="#3e724c" fill-rule="evenodd" stroke="none"/>
    <path d="M-444.2 -82.15 L-444.2 -26.4 Q-444.2 -19.65 -437.45 -19.65 L-338.75 -19.65 Q-332.0 -19.65 -332.0 -26.4 L-332.0 -82.15 Q-332.0 -88.9 -338.75 -88.9 L-437.45 -88.9 Q-444.2 -88.9 -444.2 -82.15 M-437.45 -91.3 L-338.75 -91.3 Q-329.0 -91.3 -329.0 -81.55 L-329.0 -25.8 Q-329.0 -16.05 -338.75 -16.05 L-437.45 -16.05 Q-447.2 -16.05 -447.2 -25.8 L-447.2 -81.55 Q-447.2 -91.3 -437.45 -91.3" fill="#25432c" fill-rule="evenodd" stroke="none"/>
    <path d="M-437.45 -91.3 L-338.75 -91.3 Q-329.0 -91.3 -329.0 -81.55 L-329.0 -25.8 Q-329.0 -16.05 -338.75 -16.05 L-437.45 -16.05 Q-447.2 -16.05 -447.2 -25.8 L-447.2 -81.55 Q-447.2 -91.3 -437.45 -91.3 Z" fill="none" stroke="#000000" stroke-linecap="round" stroke-linejoin="round" stroke-opacity="0.9098039" stroke-width="1.0"/>
    <path d="M-412.45 -46.95 Q-410.3 -51.45 -402.6 -55.1 -399.2 -46.5 -393.25 -41.3 -382.3 -64.05 -368.95 -81.7 L-358.75 -64.2 Q-378.6 -47.0 -392.1 -26.65 -407.2 -37.85 -412.45 -46.95" fill="#7ce598" fill-rule="evenodd" stroke="none"/>
    <path d="M-412.45 -46.95 Q-410.3 -51.45 -402.6 -55.1 -399.2 -46.5 -393.25 -41.3 -382.3 -64.05 -368.95 -81.7 L-358.75 -64.2 Q-378.6 -47.0 -392.1 -26.65 -407.2 -37.85 -412.45 -46.95 Z" fill="none" stroke="#000000" stroke-linecap="round" stroke-linejoin="round" stroke-opacity="0.9098039" stroke-width="2.0"/>
  </g>
</svg>
