<?xml version="1.0" encoding="UTF-8" standalone="no"?>
<svg xmlns:xlink="http://www.w3.org/1999/xlink" height="116.05px" width="567.5px" xmlns="http://www.w3.org/2000/svg">
  <g transform="matrix(1.0, 0.0, 0.0, 1.0, 1001.3, 188.6)">
    <path d="M-973.6 -188.6 L-555.25 -188.6 Q-545.15 -188.6 -538.0 -181.45 -530.85 -174.3 -530.85 -164.15 -530.85 -154.05 -538.0 -146.95 -545.15 -139.75 -555.25 -139.75 L-973.6 -139.75 Q-983.7 -139.75 -990.85 -146.95 -998.0 -154.05 -998.0 -164.15 -998.0 -174.3 -990.85 -181.45 -983.7 -188.6 -973.6 -188.6" fill="#3954b2" fill-opacity="0.14901961" fill-rule="evenodd" stroke="none"/>
    <path d="M-619.45 -72.55 L-619.45 -129.1 -447.35 -129.1 Q-433.8 -129.1 -433.8 -115.6 L-433.8 -86.1 Q-433.8 -72.55 -447.35 -72.55 L-619.45 -72.55 M-900.7 -129.1 L-733.0 -129.1 Q-719.5 -129.1 -719.5 -115.6 L-719.5 -86.1 Q-719.5 -72.55 -733.0 -72.55 L-900.7 -72.55 -900.7 -129.1" fill="#28315d" fill-opacity="0.44705883" fill-rule="evenodd" stroke="none"/>
    <path d="M-619.45 -129.1 L-619.45 -72.55 -702.1 -72.55 Q-715.6 -72.55 -715.6 -86.1 L-715.6 -115.6 Q-715.6 -129.1 -702.1 -129.1 L-619.45 -129.1 M-900.7 -72.55 L-987.75 -72.55 Q-1001.3 -72.55 -1001.3 -86.1 L-1001.3 -115.6 Q-1001.3 -129.1 -987.75 -129.1 L-900.7 -129.1 -900.7 -72.55" fill="#19214d" fill-opacity="0.6392157" fill-rule="evenodd" stroke="none"/>
  </g>
</svg>
