<?xml version="1.0" encoding="UTF-8" standalone="no"?>
<svg xmlns:xlink="http://www.w3.org/1999/xlink" height="79.0px" width="277.05px" xmlns="http://www.w3.org/2000/svg">
  <g transform="matrix(1.0, 0.0, 0.0, 1.0, 139.95, 55.75)">
    <path d="M-126.65 -55.75 L123.8 -55.75 Q137.1 -55.75 137.1 -42.45 L137.1 9.95 Q137.1 23.25 123.8 23.25 L-126.65 23.25 Q-139.95 23.25 -139.95 9.95 L-139.95 -42.45 Q-139.95 -55.75 -126.65 -55.75" fill="#28315d" fill-opacity="0.44705883" fill-rule="evenodd" stroke="none"/>
    <path d="M-117.75 -20.35 L114.5 -20.35 Q122.85 -20.35 128.85 -14.4 134.8 -8.45 134.8 0.0 L134.8 0.05 Q134.8 8.45 128.85 14.35 122.85 20.35 114.5 20.35 L-117.75 20.35 Q-126.2 20.35 -132.15 14.35 -138.15 8.45 -138.15 0.05 L-138.15 0.0 Q-138.15 -8.45 -132.15 -14.4 -126.2 -20.35 -117.75 -20.35" fill="#242e54" fill-opacity="0.6" fill-rule="evenodd" stroke="none"/>
  </g>
</svg>
