<?xml version="1.0" encoding="UTF-8" standalone="no"?>
<svg xmlns:xlink="http://www.w3.org/1999/xlink" height="50.25px" width="113.0px" xmlns="http://www.w3.org/2000/svg">
  <g transform="matrix(1.0, 0.0, 0.0, 1.0, 1.0, 25.15)">
    <path d="M55.25 24.1 L10.65 24.1 Q0.0 24.1 0.0 13.45 L0.0 -13.5 Q0.0 -24.15 10.65 -24.15 L55.25 -24.15 100.35 -24.15 Q111.0 -24.15 111.0 -13.5 L111.0 13.45 Q111.0 24.1 100.35 24.1 L55.25 24.1 55.25 -24.15 55.25 24.1" fill="url(#gradient0)" fill-rule="evenodd" stroke="none"/>
    <path d="M55.25 24.1 L10.65 24.1 Q0.0 24.1 0.0 13.45 L0.0 -13.5 Q0.0 -24.15 10.65 -24.15 L55.25 -24.15 100.35 -24.15 Q111.0 -24.15 111.0 -13.5 L111.0 13.45 Q111.0 24.1 100.35 24.1 L55.25 24.1 55.25 -24.15" fill="none" stroke="#29195b" stroke-linecap="round" stroke-linejoin="round" stroke-opacity="0.40784314" stroke-width="2.0"/>
    <path d="M32.95 -1.95 Q33.75 -2.7 34.9 -2.7 36.0 -2.7 36.8 -1.95 L36.85 -1.95 Q37.6 -1.15 37.6 0.0 37.6 1.15 36.85 1.95 L36.85 2.0 Q36.0 2.7 34.9 2.7 33.75 2.7 32.95 1.95 L32.95 2.0 Q32.1 1.15 32.1 0.0 32.1 -1.15 32.95 -1.95 M18.25 -0.8 L29.4 -11.65 Q29.85 -12.1 30.45 -12.1 31.15 -12.1 31.55 -11.65 31.95 -11.2 31.95 -10.6 31.95 -9.95 31.5 -9.5 L21.5 0.25 31.45 9.4 31.5 9.45 Q31.95 9.85 31.95 10.5 L31.6 11.55 31.55 11.6 Q31.25 12.0 30.5 12.0 29.95 12.0 29.4 11.6 L18.2 1.4 18.2 1.35 17.8 0.7 17.8 0.6 17.8 0.0 17.8 -0.1 18.25 -0.8 M91.95 -0.8 L92.4 -0.1 92.4 0.0 92.4 0.6 92.4 0.7 92.0 1.35 92.0 1.4 80.8 11.6 79.7 12.0 Q78.95 12.0 78.65 11.6 L78.6 11.55 Q78.25 11.05 78.25 10.5 78.25 9.85 78.7 9.45 L78.75 9.4 88.7 0.25 78.7 -9.5 Q78.25 -9.95 78.25 -10.6 78.25 -11.2 78.65 -11.65 79.05 -12.1 79.75 -12.1 80.35 -12.1 80.8 -11.65 L91.95 -0.8 M77.25 -1.95 Q78.1 -1.15 78.1 0.0 78.1 1.15 77.25 2.0 L77.25 1.95 Q76.45 2.7 75.3 2.7 74.2 2.7 73.35 2.0 L73.35 1.95 Q72.6 1.15 72.6 0.0 72.6 -1.15 73.35 -1.95 L73.4 -1.95 Q74.2 -2.7 75.3 -2.7 76.45 -2.7 77.25 -1.95" fill="#4a4c82" fill-rule="evenodd" stroke="none"/>
  </g>
  <defs>
    <linearGradient gradientTransform="matrix(0.0, 0.0294, -0.0677, 0.0, 55.5, -0.05)" gradientUnits="userSpaceOnUse" id="gradient0" spreadMethod="pad" x1="-819.2" x2="819.2">
      <stop offset="0.0" stop-color="#bcb8fa"/>
      <stop offset="1.0" stop-color="#bdcaff"/>
    </linearGradient>
  </defs>
</svg>
