<?xml version="1.0" encoding="UTF-8" standalone="no"?>
<svg xmlns:xlink="http://www.w3.org/1999/xlink" height="102.65px" width="126.3px" xmlns="http://www.w3.org/2000/svg">
  <g transform="matrix(1.0, 0.0, 0.0, 1.0, 29.7, 41.6)">
    <path d="M81.65 -16.85 Q82.85 -8.6 82.7 -0.15 82.55 5.75 81.8 11.75 L81.65 12.6 Q80.5 16.5 78.9 20.15 76.35 25.95 72.7 31.3 70.1 35.05 66.95 38.55 L63.95 41.7 57.55 46.0 Q53.5 48.5 49.4 50.45 44.4 52.8 39.35 54.45 32.6 56.55 25.65 57.45 -2.65 62.05 -19.6 47.8 -27.7 39.0 -28.65 28.3 -29.5 14.05 -3.95 -4.7" fill="none" stroke="#000000" stroke-linecap="round" stroke-linejoin="round" stroke-width="2.0"/>
    <path d="M81.65 -16.85 L81.45 -17.25 Q80.65 -9.8 74.45 -7.6 69.25 -5.75 66.1 -9.95 64.35 -14.8 67.2 -23.85 69.45 -31.7 67.5 -40.85 81.15 -35.5 88.45 -26.8 100.55 -13.3 92.8 -8.85 87.75 -6.1 81.65 -16.85 M82.7 -0.15 Q86.8 5.05 87.65 10.7 88.7 14.75 86.0 15.65 83.45 15.55 81.8 11.75 L81.15 10.2 Q79.2 14.0 77.25 14.05 73.55 14.2 74.45 11.3 76.7 5.55 82.65 -0.2 L82.7 -0.15 M78.9 20.15 Q81.1 24.9 81.55 28.5 81.9 36.45 78.4 36.8 74.35 36.1 74.2 30.2 L72.7 31.3 Q69.45 33.3 66.9 32.05 64.35 30.45 67.95 27.35 74.15 24.0 78.8 19.95 L78.9 20.15 M66.95 38.55 Q66.6 42.95 64.95 46.5 62.9 51.25 59.15 52.1 55.8 51.0 57.55 46.0 51.75 47.75 50.5 44.95 50.9 42.75 54.05 41.45 60.6 38.75 67.0 37.85 L66.95 38.55 M49.4 50.45 Q46.55 59.95 41.65 60.3 38.6 58.9 39.65 54.4 L39.35 54.45 Q35.05 54.8 33.85 53.2 34.35 51.05 40.15 50.3 L49.6 49.65 49.4 50.45" fill="none" stroke="#000000" stroke-linecap="round" stroke-linejoin="round" stroke-width="1.5"/>
  </g>
</svg>
