<?xml version="1.0" encoding="UTF-8" standalone="no"?>
<svg xmlns:xlink="http://www.w3.org/1999/xlink" height="118.1px" width="1012.35px" xmlns="http://www.w3.org/2000/svg">
  <g transform="matrix(1.0, 0.0, 0.0, 1.0, 506.15, 59.0)">
    <path d="M-491.65 -59.0 L490.8 -59.0 490.8 -56.75 -491.65 -56.75 -491.65 -59.0" fill="#000000" fill-opacity="0.32941177" fill-rule="evenodd" stroke="none"/>
    <path d="M505.7 -56.7 L505.7 -55.3 -505.65 -55.3 -505.65 -56.7 505.7 -56.7" fill="url(#gradient0)" fill-rule="evenodd" stroke="none"/>
    <path d="M505.7 -55.3 L505.7 58.6 -505.65 58.6 -505.65 -55.3 505.7 -55.3" fill="url(#gradient1)" fill-rule="evenodd" stroke="none"/>
    <path d="M505.7 -56.7 L505.7 -55.3 505.7 58.6 -505.65 58.6 -505.65 -55.3 -505.65 -56.7" fill="none" stroke="#000000" stroke-linecap="round" stroke-linejoin="round" stroke-width="1.0"/>
    <path d="M-505.65 -55.3 L505.7 -55.3" fill="none" stroke="#000000" stroke-linecap="round" stroke-linejoin="round" stroke-opacity="0.7294118" stroke-width="1.0"/>
    <path d="M-505.65 -56.7 L505.7 -56.7 Z" fill="none" stroke="#bac9f5" stroke-linecap="round" stroke-linejoin="round" stroke-opacity="0.8392157" stroke-width="1.0"/>
    <path d="M-501.45 -33.25 L496.1 -33.25 496.1 -1.9 -501.45 -1.9 -501.45 -33.25" fill="#aaa8ff" fill-opacity="0.45882353" fill-rule="evenodd" stroke="none"/>
  </g>
  <defs>
    <linearGradient gradientTransform="matrix(0.0, -0.066, 0.6172, 0.0, 0.0, -5.85)" gradientUnits="userSpaceOnUse" id="gradient0" spreadMethod="pad" x1="-819.2" x2="819.2">
      <stop offset="0.0" stop-color="#525779"/>
      <stop offset="1.0" stop-color="#344054"/>
    </linearGradient>
    <linearGradient gradientTransform="matrix(0.0, 0.0527, -0.6173, 0.0, 0.05, -9.8)" gradientUnits="userSpaceOnUse" id="gradient1" spreadMethod="pad" x1="-819.2" x2="819.2">
      <stop offset="0.0" stop-color="#6d66a6"/>
      <stop offset="1.0" stop-color="#7473af"/>
    </linearGradient>
  </defs>
</svg>
