<?xml version="1.0" encoding="UTF-8" standalone="no"?>
<svg xmlns:xlink="http://www.w3.org/1999/xlink" height="74.5px" width="625.35px" xmlns="http://www.w3.org/2000/svg">
  <g transform="matrix(1.0, 0.0, 0.0, 1.0, 810.2, 205.2)">
    <path d="M-774.45 -203.4 L-350.25 -203.4 Q-335.85 -203.4 -325.7 -193.25 -315.5 -183.05 -315.5 -168.65 L-315.5 -168.6 Q-315.5 -154.2 -325.7 -144.05 -335.85 -133.85 -350.25 -133.85 L-774.45 -133.85 Q-788.85 -133.85 -799.05 -144.05 -809.2 -154.2 -809.2 -168.6 L-809.2 -168.65 Q-809.2 -183.05 -799.05 -193.25 -788.85 -203.4 -774.45 -203.4" fill="#3b3a69" fill-rule="evenodd" stroke="none"/>
    <path d="M-774.45 -203.4 L-350.25 -203.4 Q-335.85 -203.4 -325.7 -193.25 -315.5 -183.05 -315.5 -168.65 L-315.5 -168.6 Q-315.5 -154.2 -325.7 -144.05 -335.85 -133.85 -350.25 -133.85 L-774.45 -133.85 Q-788.85 -133.85 -799.05 -144.05 -809.2 -154.2 -809.2 -168.6 L-809.2 -168.65 Q-809.2 -183.05 -799.05 -193.25 -788.85 -203.4 -774.45 -203.4 Z" fill="none" stroke="#c7c2e7" stroke-linecap="round" stroke-linejoin="round" stroke-opacity="0.9098039" stroke-width="2.0"/>
    <path d="M-272.05 -204.2 L-221.85 -204.2 Q-206.95 -204.2 -196.4 -193.65 -185.85 -183.1 -185.85 -168.2 L-185.85 -167.7 Q-185.85 -152.8 -196.4 -142.25 -206.95 -131.7 -221.85 -131.7 L-272.05 -131.7 Q-286.95 -131.7 -297.5 -142.25 -308.05 -152.8 -308.05 -167.7 L-308.05 -168.2 Q-308.05 -183.1 -297.5 -193.65 -286.95 -204.2 -272.05 -204.2" fill="#43695d" fill-rule="evenodd" stroke="none"/>
    <path d="M-272.05 -204.2 L-221.85 -204.2 Q-206.95 -204.2 -196.4 -193.65 -185.85 -183.1 -185.85 -168.2 L-185.85 -167.7 Q-185.85 -152.8 -196.4 -142.25 -206.95 -131.7 -221.85 -131.7 L-272.05 -131.7 Q-286.95 -131.7 -297.5 -142.25 -308.05 -152.8 -308.05 -167.7 L-308.05 -168.2 Q-308.05 -183.1 -297.5 -193.65 -286.95 -204.2 -272.05 -204.2 Z" fill="none" stroke="#bae7cd" stroke-linecap="round" stroke-linejoin="round" stroke-opacity="0.9098039" stroke-width="2.0"/>
    <path d="M-268.95 -163.05 Q-267.1 -167.0 -260.35 -170.25 -257.35 -162.65 -252.1 -158.05 -242.45 -178.1 -230.75 -193.6 L-221.8 -178.2 Q-239.25 -163.1 -251.1 -145.2 -264.4 -155.0 -268.95 -163.05" fill="#7ce598" fill-rule="evenodd" stroke="none"/>
    <path d="M-268.95 -163.05 Q-267.1 -167.0 -260.35 -170.25 -257.35 -162.65 -252.1 -158.05 -242.45 -178.1 -230.75 -193.6 L-221.8 -178.2 Q-239.25 -163.1 -251.1 -145.2 -264.4 -155.0 -268.95 -163.05 Z" fill="none" stroke="#2e3c51" stroke-linecap="round" stroke-linejoin="round" stroke-opacity="0.9098039" stroke-width="2.0"/>
  </g>
</svg>
