<?xml version="1.0" encoding="UTF-8" standalone="no"?>
<svg xmlns:xlink="http://www.w3.org/1999/xlink" height="71.35px" width="139.45px" xmlns="http://www.w3.org/2000/svg">
  <g transform="matrix(1.0, 0.0, 0.0, 1.0, 69.8, 35.7)">
    <path d="M-57.65 -34.45 L57.5 -34.45 Q68.4 -34.45 68.4 -23.55 L68.4 23.55 Q68.4 34.4 57.5 34.4 L-57.65 34.4 Q-68.55 34.4 -68.55 23.55 L-68.55 -23.55 Q-68.55 -34.45 -57.65 -34.45 Z" fill="none" stroke="#0b114f" stroke-linecap="round" stroke-linejoin="round" stroke-opacity="0.40784314" stroke-width="2.5"/>
    <path d="M-65.6 -24.3 Q-65.6 -32.2 -57.65 -32.2 L57.5 -32.2 Q65.45 -32.2 65.45 -24.3 L65.45 22.8 Q65.45 30.7 57.5 30.7 L-57.65 30.7 Q-65.6 30.7 -65.6 22.8 L-65.6 -24.3" fill="#e8e2ff" fill-opacity="0.9098039" fill-rule="evenodd" stroke="none"/>
    <path d="M-57.65 -35.2 L57.5 -35.2 Q68.4 -35.2 68.4 -24.3 L68.4 22.8 Q68.4 33.7 57.5 33.7 L-57.65 33.7 Q-68.55 33.7 -68.55 22.8 L-68.55 -24.3 Q-68.55 -35.2 -57.65 -35.2 M-65.6 -24.3 L-65.6 22.8 Q-65.6 30.7 -57.65 30.7 L57.5 30.7 Q65.45 30.7 65.45 22.8 L65.45 -24.3 Q65.45 -32.2 57.5 -32.2 L-57.65 -32.2 Q-65.6 -32.2 -65.6 -24.3" fill="#a3a1e5" fill-opacity="0.84705883" fill-rule="evenodd" stroke="none"/>
    <path d="M-57.65 -35.2 L57.5 -35.2 Q68.4 -35.2 68.4 -24.3 L68.4 22.8 Q68.4 33.7 57.5 33.7 L-57.65 33.7 Q-68.55 33.7 -68.55 22.8 L-68.55 -24.3 Q-68.55 -35.2 -57.65 -35.2 Z" fill="none" stroke="#3b3277" stroke-linecap="round" stroke-linejoin="round" stroke-opacity="0.5686275" stroke-width="1.0"/>
  </g>
</svg>
