<?xml version="1.0" encoding="UTF-8" standalone="no"?>
<svg xmlns:xlink="http://www.w3.org/1999/xlink" height="38.9px" width="34.4px" xmlns="http://www.w3.org/2000/svg">
  <g transform="matrix(1.0, 0.0, 0.0, 1.0, 11.85, 19.65)">
    <path d="M-3.8 5.1 Q-6.15 5.1 -7.8 3.75 -9.45 2.35 -9.45 0.4 -9.45 -0.7 -8.9 -1.65 L-10.2 -2.45 Q-11.85 -3.85 -11.85 -5.8 -11.85 -7.75 -10.2 -9.15 -9.2 -10.0 -7.95 -10.3 L-8.0 -11.0 Q-8.0 -13.0 -6.35 -14.4 -4.7 -15.8 -2.4 -15.8 L-1.85 -15.75 Q-1.6 -17.2 -0.35 -18.3 1.35 -19.65 3.65 -19.65 5.95 -19.65 7.65 -18.3 L8.3 -17.65 10.2 -17.95 Q12.5 -17.95 14.15 -16.5 15.4 -15.45 15.7 -14.05 17.5 -13.9 18.85 -12.75 20.45 -11.35 20.45 -9.4 L20.45 -8.7 20.95 -8.3 Q22.55 -6.9 22.55 -4.9 22.55 -3.05 21.1 -1.7 22.0 0.5 20.55 2.9 19.45 4.35 17.1 4.8 L15.3 4.9 Q13.6 4.7 12.6 4.15 L9.35 8.75 9.65 15.4 10.65 19.25 0.35 19.25 1.25 15.9 1.7 7.75 Q-0.4 6.25 -1.7 4.8 L-3.8 5.1 M9.6 1.9 Q8.05 3.1 5.95 3.25 L7.15 6.55 7.7 6.5 9.45 5.15 11.3 3.1 10.8 2.2 10.4 1.05 9.6 1.9 M0.15 3.75 L-0.3 4.1 Q2.55 5.85 4.2 6.4 L4.15 3.1 Q2.7 2.8 1.6 1.9 L1.55 1.85 Q1.15 2.9 0.15 3.75" fill="#5f6198" fill-rule="evenodd" stroke="none"/>
  </g>
</svg>
