<?xml version="1.0" encoding="UTF-8" standalone="no"?>
<svg xmlns:xlink="http://www.w3.org/1999/xlink" height="625.0px" width="1038.4px" xmlns="http://www.w3.org/2000/svg">
  <g transform="matrix(1.0, 0.0, 0.0, 1.0, 1113.5, 415.25)">
    <path d="M-908.85 -289.1 L-775.35 -289.1 -775.35 195.85 -1113.5 195.85 -1113.5 -401.35 -775.35 -401.35 -775.35 -339.75 -908.85 -339.75 -908.85 -289.1" fill="#000000" fill-opacity="0.007843138" fill-rule="evenodd" stroke="none"/>
    <path d="M-775.3 -414.75 L-75.6 -414.75 -75.6 209.25 -775.3 209.25 -775.3 -414.75" fill="#81879f" fill-opacity="0.5294118" fill-rule="evenodd" stroke="none"/>
    <path d="M-775.3 -414.75 L-75.6 -414.75 -75.6 209.25 -775.3 209.25 -775.3 -414.75 Z" fill="none" stroke="#1c306d" stroke-linecap="round" stroke-linejoin="round" stroke-opacity="0.627451" stroke-width="1.0"/>
    <path d="M-188.8 -283.95 L-188.8 141.95 -771.0 141.95 -771.0 -283.95 -188.8 -283.95" fill="#6f749f" fill-rule="evenodd" stroke="none"/>
    <path d="M-771.0 -283.95 L-771.0 -337.45 Q-770.4 -342.75 -765.2 -343.5 L-196.8 -343.5 Q-189.1 -342.7 -188.8 -335.5 L-188.8 -284.05 -188.8 -283.95 -771.0 -283.95 M-188.8 141.95 L-188.8 146.5 -771.0 146.5 -771.0 141.95 -188.8 141.95" fill="#3d3f56" fill-rule="evenodd" stroke="none"/>
    <path d="M-771.0 -283.95 L-771.0 -337.45 Q-770.4 -342.75 -765.2 -343.5 L-196.8 -343.5 Q-189.1 -342.7 -188.8 -335.5 L-188.8 -284.05 M-188.8 -283.95 L-188.8 141.95 -188.8 146.5 -771.0 146.5 -771.0 141.95 -771.0 -283.95 -188.8 -283.95 M-188.8 141.95 L-771.0 141.95" fill="none" stroke="#1c306d" stroke-linecap="round" stroke-linejoin="round" stroke-opacity="0.7490196" stroke-width="1.0"/>
  </g>
</svg>
