<?xml version="1.0" encoding="UTF-8" standalone="no"?>
<svg xmlns:xlink="http://www.w3.org/1999/xlink" height="58.85px" width="118.15px" xmlns="http://www.w3.org/2000/svg">
  <g transform="matrix(1.0, 0.0, 0.0, 1.0, 57.85, 28.3)">
    <path d="M-45.15 -27.3 L47.55 -27.3 Q59.3 -27.3 59.3 -15.6 L59.3 17.85 Q59.3 29.55 47.55 29.55 L-45.15 29.55 Q-56.85 29.55 -56.85 17.85 L-56.85 -15.6 Q-56.85 -27.3 -45.15 -27.3" fill="url(#gradient0)" fill-rule="evenodd" stroke="none"/>
    <path d="M-45.15 -27.3 L47.55 -27.3 Q59.3 -27.3 59.3 -15.6 L59.3 17.85 Q59.3 29.55 47.55 29.55 L-45.15 29.55 Q-56.85 29.55 -56.85 17.85 L-56.85 -15.6 Q-56.85 -27.3 -45.15 -27.3 Z" fill="none" stroke="#29195b" stroke-linecap="round" stroke-linejoin="round" stroke-opacity="0.40784314" stroke-width="2.0"/>
    <path d="M11.75 11.65 Q12.15 12.25 12.15 12.9 12.15 13.6 11.65 14.15 11.2 14.65 10.45 14.65 9.55 14.65 9.05 13.95 L1.3 3.3 -6.9 14.15 Q-7.45 14.65 -8.2 14.65 -8.95 14.65 -9.45 14.15 -9.9 13.65 -9.9 12.95 L-9.45 11.65 -1.15 0.6 -8.95 -10.25 Q-9.35 -10.7 -9.35 -11.35 L-8.9 -12.65 Q-8.45 -13.2 -7.6 -13.2 -6.65 -13.2 -6.3 -12.65 L1.35 -2.0 9.35 -12.65 Q9.85 -13.2 10.6 -13.2 11.4 -13.2 11.85 -12.65 12.25 -12.2 12.25 -11.4 12.25 -10.85 11.9 -10.25 L3.75 0.6 11.75 11.65" fill="#1d1e3a" fill-opacity="0.80784315" fill-rule="evenodd" stroke="none"/>
    <path d="M11.75 11.65 Q12.15 12.25 12.15 12.9 12.15 13.6 11.65 14.15 11.2 14.65 10.45 14.65 9.55 14.65 9.05 13.95 L1.3 3.3 -6.9 14.15 Q-7.45 14.65 -8.2 14.65 -8.95 14.65 -9.45 14.15 -9.9 13.65 -9.9 12.95 L-9.45 11.65 -1.15 0.6 -8.95 -10.25 Q-9.35 -10.7 -9.35 -11.35 L-8.9 -12.65 Q-8.45 -13.2 -7.6 -13.2 -6.65 -13.2 -6.3 -12.65 L1.35 -2.0 9.35 -12.65 Q9.85 -13.2 10.6 -13.2 11.4 -13.2 11.85 -12.65 12.25 -12.2 12.25 -11.4 12.25 -10.85 11.9 -10.25 L3.75 0.6 11.75 11.65 Z" fill="none" stroke="#d4dbff" stroke-linecap="round" stroke-linejoin="round" stroke-opacity="0.5764706" stroke-width="4.0"/>
    <path d="M11.75 11.65 Q12.15 12.25 12.15 12.9 12.15 13.6 11.65 14.15 11.2 14.65 10.45 14.65 9.55 14.65 9.05 13.95 L1.3 3.3 -6.9 14.15 Q-7.45 14.65 -8.2 14.65 -8.95 14.65 -9.45 14.15 -9.9 13.65 -9.9 12.95 L-9.45 11.65 -1.15 0.6 -8.95 -10.25 Q-9.35 -10.7 -9.35 -11.35 L-8.9 -12.65 Q-8.45 -13.2 -7.6 -13.2 -6.65 -13.2 -6.3 -12.65 L1.35 -2.0 9.35 -12.65 Q9.85 -13.2 10.6 -13.2 11.4 -13.2 11.85 -12.65 12.25 -12.2 12.25 -11.4 12.25 -10.85 11.9 -10.25 L3.75 0.6 11.75 11.65" fill="#2e2b54" fill-rule="evenodd" stroke="none"/>
  </g>
  <defs>
    <linearGradient gradientTransform="matrix(0.0, 0.0347, -0.0709, 0.0, 1.25, 1.1)" gradientUnits="userSpaceOnUse" id="gradient0" spreadMethod="pad" x1="-819.2" x2="819.2">
      <stop offset="0.0" stop-color="#a6a2dc" stop-opacity="0.8980392"/>
      <stop offset="1.0" stop-color="#a7b3f7" stop-opacity="0.8980392"/>
    </linearGradient>
  </defs>
</svg>
