<?xml version="1.0" encoding="UTF-8" standalone="no"?>
<svg xmlns:xlink="http://www.w3.org/1999/xlink" height="609.85px" width="1007.15px" xmlns="http://www.w3.org/2000/svg">
  <g transform="matrix(1.0, 0.0, 0.0, 1.0, 1111.35, 407.7)">
    <path d="M-694.7 -407.7 L-104.2 -407.7 -104.2 202.15 -694.7 202.15 -694.7 -407.7" fill="#000000" fill-opacity="0.47058824" fill-rule="evenodd" stroke="none"/>
    <path d="M-694.7 202.15 L-1111.35 202.15 -1111.35 -407.7 -694.7 -407.7 -694.7 202.15 M-915.45 -344.8 L-915.45 -295.25 -846.05 -295.25 -846.05 -344.8 -915.45 -344.8" fill="#000000" fill-opacity="0.007843138" fill-rule="evenodd" stroke="none"/>
    <path d="M-540.85 -294.95 L-554.25 -250.4 -328.45 -250.4 -341.15 -294.95 -540.85 -294.95 M-557.3 -248.05 L-542.5 -297.25 -339.4 -297.25 -325.45 -248.05 -557.3 -248.05" fill="#745a85" fill-rule="evenodd" stroke="none"/>
    <path d="M-540.85 -294.95 L-341.15 -294.95 -328.45 -250.4 -554.25 -250.4 -540.85 -294.95" fill="#494558" fill-rule="evenodd" stroke="none"/>
    <path d="M-557.3 -248.05 L-325.45 -248.05 -339.4 -297.25 -542.5 -297.25 -557.3 -248.05 M-544.25 -299.55 L-337.7 -299.55 -322.4 -245.8 -560.4 -245.8 -544.25 -299.55" fill="#b9a5c6" fill-rule="evenodd" stroke="none"/>
    <path d="M-544.25 -299.55 L-337.7 -299.55 -322.4 -245.8 -560.4 -245.8 -544.25 -299.55 Z" fill="none" stroke="#000000" stroke-linecap="round" stroke-linejoin="round" stroke-opacity="0.5019608" stroke-width="1.0"/>
  </g>
</svg>
