<?xml version="1.0" encoding="UTF-8" standalone="no"?>
<svg xmlns:xlink="http://www.w3.org/1999/xlink" height="31.35px" width="33.45px" xmlns="http://www.w3.org/2000/svg">
  <g transform="matrix(1.0, 0.0, 0.0, 1.0, 16.7, 15.65)">
    <path d="M-4.8 -4.8 Q-5.85 -10.05 -4.35 -14.9 L-2.85 -14.5 -0.85 -13.95 1.9 -12.9 3.7 -11.9 6.15 -10.3 7.85 -9.0 9.2 -7.5 Q5.75 -4.45 2.05 -2.8 L16.0 -4.1 15.0 -2.7 13.75 -0.95 13.25 -0.45 13.55 0.6 14.55 2.95 15.2 4.15 Q8.3 2.85 0.4 -0.3 6.25 4.45 12.1 7.9 L10.6 8.5 10.4 8.5 10.2 8.55 7.5 9.45 6.5 9.6 5.8 14.95 Q2.65 12.35 -1.1 5.4 -1.15 7.75 -1.85 9.6 L-3.15 9.25 Q-4.1 8.9 -4.9 8.7 -6.6 8.2 -8.15 7.4 L-9.85 6.65 Q-11.85 5.65 -13.35 4.55 L-14.65 3.6 -15.95 2.6 Q-12.85 -0.1 -6.65 -2.65 -6.2 -3.9 -4.85 -4.75 L-4.8 -4.8 -4.15 -4.55 Q-2.35 -3.75 0.0 -2.4 L0.45 -2.1 Q1.45 -2.4 2.05 -2.8 1.45 -2.4 0.45 -2.1 L0.0 -2.4 Q-2.35 -3.75 -4.15 -4.55 L-4.8 -4.8 M-1.3 0.35 L-0.9 0.45 Q-0.45 0.35 -0.5 -1.05 0.4 -1.25 0.9 -1.6 0.85 -2.1 0.45 -2.1 0.85 -2.1 0.9 -1.6 0.4 -1.25 -0.5 -1.05 L0.4 -0.3 -0.5 -1.05 Q-0.45 0.35 -0.9 0.45 L-1.3 0.35 Q-0.9 3.15 -1.1 5.4 -0.9 3.15 -1.3 0.35 L-1.95 0.15 Q-3.9 -0.65 -5.95 -2.15 L-6.0 -2.15 -6.65 -2.65 -6.0 -2.15 -5.95 -2.15 Q-3.9 -0.65 -1.95 0.15 L-1.3 0.35" fill="#f09963" fill-rule="evenodd" stroke="none"/>
    <path d="M-4.8 -4.8 Q-5.85 -10.05 -4.35 -14.9 L-2.85 -14.5 -0.85 -13.95 1.9 -12.9 3.7 -11.9 6.15 -10.3 7.85 -9.0 9.2 -7.5 Q5.75 -4.45 2.05 -2.8 L16.0 -4.1 15.0 -2.7 13.75 -0.95 13.25 -0.45 13.55 0.6 14.55 2.95 15.2 4.15 Q8.3 2.85 0.4 -0.3 6.25 4.45 12.1 7.9 L10.6 8.5 10.4 8.5 10.2 8.55 7.5 9.45 6.5 9.6 5.8 14.95 Q2.65 12.35 -1.1 5.4 -1.15 7.75 -1.85 9.6 L-3.15 9.25 Q-4.1 8.9 -4.9 8.7 -6.6 8.2 -8.15 7.4 L-9.85 6.65 Q-11.85 5.65 -13.35 4.55 L-14.65 3.6 -15.95 2.6 Q-12.85 -0.1 -6.65 -2.65 -6.2 -3.9 -4.85 -4.75 L-4.8 -4.8 -4.15 -4.55 Q-2.35 -3.75 0.0 -2.4 L0.45 -2.1 Q1.45 -2.4 2.05 -2.8 M0.45 -2.1 Q0.85 -2.1 0.9 -1.6 0.4 -1.25 -0.5 -1.05 L0.4 -0.3 M-1.1 5.4 Q-0.9 3.15 -1.3 0.35 L-1.95 0.15 Q-3.9 -0.65 -5.95 -2.15 L-6.0 -2.15 -6.65 -2.65 M-0.5 -1.05 Q-0.45 0.35 -0.9 0.45 L-1.3 0.35" fill="none" stroke="#000000" stroke-linecap="round" stroke-linejoin="round" stroke-width="1.5"/>
  </g>
</svg>
