<?xml version="1.0" encoding="UTF-8" standalone="no"?>
<svg xmlns:xlink="http://www.w3.org/1999/xlink" height="66.2px" width="132.75px" xmlns="http://www.w3.org/2000/svg">
  <g transform="matrix(1.0, 0.0, 0.0, 1.0, 66.35, 33.1)">
    <path d="M59.85 -32.1 L65.35 -32.1 65.35 -26.05 -60.25 32.1 -65.35 32.1 -65.35 26.1 59.85 -32.1" fill="#e74c4c" fill-rule="evenodd" stroke="none"/>
    <path d="M65.35 -26.05 L65.35 19.1 Q66.05 31.7 51.15 32.1 L-60.25 32.1 65.35 -26.05 M-65.35 26.1 L-65.35 -19.7 Q-65.2 -32.5 -50.1 -32.1 L59.85 -32.1 -65.35 26.1" fill="#9ba0dd" fill-rule="evenodd" stroke="none"/>
    <path d="M59.85 -32.1 L65.35 -32.1 65.35 -26.05 65.35 19.1 Q66.05 31.7 51.15 32.1 L-60.25 32.1 -65.35 32.1 -65.35 26.1 -65.35 -19.7 Q-65.2 -32.5 -50.1 -32.1 L59.85 -32.1 Z" fill="none" stroke="#161a2c" stroke-linecap="round" stroke-linejoin="round" stroke-width="2.0"/>
    <path d="M12.35 10.55 Q10.4 10.55 8.8 9.65 7.15 8.8 6.3 7.2 5.45 5.6 5.45 3.6 5.45 1.55 6.3 -0.05 7.15 -1.6 8.8 -2.5 10.4 -3.4 12.35 -3.4 14.4 -3.4 15.95 -2.5 17.5 -1.6 18.4 -0.05 19.3 1.55 19.3 3.6 19.3 5.6 18.45 7.2 17.55 8.8 16.0 9.65 14.4 10.55 12.35 10.55 M12.35 8.3 Q13.7 8.3 14.65 7.7 15.7 7.1 16.25 6.05 16.85 4.95 16.85 3.6 16.85 2.2 16.25 1.15 15.7 0.05 14.65 -0.5 13.7 -1.15 12.35 -1.15 11.1 -1.15 10.1 -0.5 9.05 0.05 8.5 1.15 7.95 2.2 7.95 3.6 7.95 4.95 8.5 6.05 9.05 7.1 10.1 7.7 11.1 8.3 12.35 8.3 M33.75 -3.1 L34.25 -2.7 34.45 -2.1 34.35 -1.65 28.95 9.6 Q28.6 10.45 27.85 10.45 L27.1 10.3 26.6 9.6 21.25 -1.65 21.2 -2.05 Q21.2 -2.8 21.9 -3.1 L22.4 -3.25 22.95 -3.1 23.4 -2.65 27.8 6.85 32.1 -2.65 32.55 -3.1 33.15 -3.25 33.75 -3.1 M49.3 3.35 L48.95 4.15 Q48.65 4.5 48.15 4.5 L38.6 4.5 Q38.85 6.25 40.2 7.3 41.5 8.4 43.4 8.4 L45.0 8.1 46.3 7.45 Q46.7 7.15 47.15 7.15 47.65 7.15 47.9 7.4 48.35 7.8 48.35 8.3 48.35 8.75 47.95 9.0 47.1 9.7 45.85 10.15 L43.4 10.55 Q41.35 10.55 39.7 9.65 38.05 8.8 37.15 7.2 36.2 5.6 36.2 3.6 36.2 1.6 37.1 0.0 37.95 -1.6 39.55 -2.5 41.1 -3.4 43.0 -3.4 44.95 -3.4 46.35 -2.55 47.8 -1.7 48.55 -0.15 49.3 1.35 49.3 3.35 M43.0 -1.2 Q41.2 -1.2 40.05 -0.25 38.9 0.8 38.6 2.45 L47.0 2.45 Q46.75 0.8 45.7 -0.25 44.65 -1.2 43.0 -1.2 M-3.0 -3.45 Q-0.85 -3.45 0.5 -2.0 1.9 -0.55 1.9 2.05 L1.9 9.2 Q1.9 9.75 1.5 10.15 1.2 10.5 0.55 10.5 0.05 10.5 -0.35 10.15 -0.7 9.75 -0.7 9.2 L-0.7 2.05 Q-0.7 0.45 -1.45 -0.35 -2.25 -1.15 -3.55 -1.15 -4.85 -1.15 -5.65 -0.2 -6.5 0.7 -6.5 2.15 L-6.5 9.2 Q-6.5 9.75 -6.9 10.15 -7.2 10.5 -7.8 10.5 L-8.7 10.15 Q-9.1 9.75 -9.1 9.2 L-9.1 2.05 Q-9.1 0.45 -9.85 -0.35 -10.6 -1.15 -11.9 -1.15 -13.25 -1.15 -14.1 -0.2 -14.95 0.7 -14.95 2.15 L-14.95 9.2 Q-14.95 9.75 -15.3 10.15 -15.6 10.5 -16.2 10.5 -16.75 10.5 -17.1 10.15 -17.5 9.75 -17.5 9.2 L-17.5 -2.0 Q-17.5 -2.6 -17.1 -2.9 -16.75 -3.25 -16.2 -3.25 L-15.3 -2.9 Q-14.95 -2.6 -14.95 -2.05 L-13.35 -3.05 -11.4 -3.45 Q-10.15 -3.45 -9.1 -2.9 L-7.4 -1.45 Q-6.65 -2.35 -5.5 -2.85 -4.4 -3.45 -3.0 -3.45 M-36.05 8.45 Q-35.75 8.85 -35.75 9.3 -35.75 9.8 -36.1 10.15 -36.45 10.45 -37.0 10.45 -37.8 10.45 -38.15 9.85 L-42.5 2.9 -46.15 2.9 -46.15 9.15 Q-46.15 9.7 -46.55 10.1 -46.9 10.45 -47.5 10.45 -48.05 10.45 -48.4 10.1 -48.8 9.7 -48.8 9.15 L-48.8 -7.85 Q-48.8 -8.45 -48.4 -8.8 -48.05 -9.2 -47.5 -9.2 L-42.95 -9.2 Q-41.1 -9.2 -39.6 -8.4 -38.15 -7.65 -37.3 -6.2 -36.5 -4.8 -36.5 -3.0 -36.5 -1.2 -37.4 0.2 -38.3 1.55 -39.9 2.25 L-36.05 8.45 M-42.95 0.45 Q-41.2 0.45 -40.15 -0.5 -39.05 -1.45 -39.05 -3.0 -39.05 -4.65 -40.15 -5.7 -41.2 -6.8 -42.95 -6.8 L-46.15 -6.8 -46.15 0.45 -42.95 0.45 M-20.8 3.35 Q-20.8 3.8 -21.15 4.15 -21.45 4.5 -21.95 4.5 L-31.5 4.5 Q-31.2 6.25 -29.9 7.3 -28.6 8.4 -26.7 8.4 L-25.1 8.1 -23.75 7.45 Q-23.4 7.15 -22.9 7.15 -22.45 7.15 -22.15 7.4 -21.75 7.8 -21.75 8.3 -21.75 8.75 -22.1 9.0 -22.95 9.7 -24.25 10.15 L-26.7 10.55 Q-28.7 10.55 -30.35 9.65 -32.0 8.8 -32.9 7.2 -33.85 5.6 -33.85 3.6 -33.85 1.6 -32.95 0.0 -32.1 -1.6 -30.55 -2.5 -29.0 -3.4 -27.05 -3.4 -25.15 -3.4 -23.7 -2.55 -22.3 -1.7 -21.55 -0.15 -20.8 1.35 -20.8 3.35 M-27.05 -1.2 Q-28.9 -1.2 -30.05 -0.25 -31.15 0.8 -31.5 2.45 L-23.1 2.45 Q-23.35 0.8 -24.4 -0.25 -25.4 -1.2 -27.05 -1.2" fill="#000000" fill-rule="evenodd" stroke="none"/>
    <path d="M12.35 10.55 Q10.4 10.55 8.8 9.65 7.15 8.8 6.3 7.2 5.45 5.6 5.45 3.6 5.45 1.55 6.3 -0.05 7.15 -1.6 8.8 -2.5 10.4 -3.4 12.35 -3.4 14.4 -3.4 15.95 -2.5 17.5 -1.6 18.4 -0.05 19.3 1.55 19.3 3.6 19.3 5.6 18.45 7.2 17.55 8.8 16.0 9.65 14.4 10.55 12.35 10.55 M12.35 8.3 Q13.7 8.3 14.65 7.7 15.7 7.1 16.25 6.05 16.85 4.95 16.85 3.6 16.85 2.2 16.25 1.15 15.7 0.05 14.65 -0.5 13.7 -1.15 12.35 -1.15 11.1 -1.15 10.1 -0.5 9.05 0.05 8.5 1.15 7.95 2.2 7.95 3.6 7.95 4.95 8.5 6.05 9.05 7.1 10.1 7.7 11.1 8.3 12.35 8.3 M33.75 -3.1 L34.25 -2.7 34.45 -2.1 34.35 -1.65 28.95 9.6 Q28.6 10.45 27.85 10.45 L27.1 10.3 26.6 9.6 21.25 -1.65 21.2 -2.05 Q21.2 -2.8 21.9 -3.1 L22.4 -3.25 22.95 -3.1 23.4 -2.65 27.8 6.85 32.1 -2.65 32.55 -3.1 33.15 -3.25 33.75 -3.1 M49.3 3.35 L48.95 4.15 Q48.65 4.5 48.15 4.5 L38.6 4.5 Q38.85 6.25 40.2 7.3 41.5 8.4 43.4 8.4 L45.0 8.1 46.3 7.45 Q46.7 7.15 47.15 7.15 47.65 7.15 47.9 7.4 48.35 7.8 48.35 8.3 48.35 8.75 47.95 9.0 47.1 9.7 45.85 10.15 L43.4 10.55 Q41.35 10.55 39.7 9.65 38.05 8.8 37.15 7.2 36.2 5.6 36.2 3.6 36.2 1.6 37.1 0.0 37.95 -1.6 39.55 -2.5 41.1 -3.4 43.0 -3.4 44.95 -3.4 46.35 -2.55 47.8 -1.7 48.55 -0.15 49.3 1.35 49.3 3.35 M43.0 -1.2 Q41.2 -1.2 40.05 -0.25 38.9 0.8 38.6 2.45 L47.0 2.45 Q46.75 0.8 45.7 -0.25 44.65 -1.2 43.0 -1.2 M-3.0 -3.45 Q-0.85 -3.45 0.5 -2.0 1.9 -0.55 1.9 2.05 L1.9 9.2 Q1.9 9.75 1.5 10.15 1.2 10.5 0.55 10.5 0.05 10.5 -0.35 10.15 -0.7 9.75 -0.7 9.2 L-0.7 2.05 Q-0.7 0.45 -1.45 -0.35 -2.25 -1.15 -3.55 -1.15 -4.85 -1.15 -5.65 -0.2 -6.5 0.7 -6.5 2.15 L-6.5 9.2 Q-6.5 9.75 -6.9 10.15 -7.2 10.5 -7.8 10.5 L-8.7 10.15 Q-9.1 9.75 -9.1 9.2 L-9.1 2.05 Q-9.1 0.45 -9.85 -0.35 -10.6 -1.15 -11.9 -1.15 -13.25 -1.15 -14.1 -0.2 -14.95 0.7 -14.95 2.15 L-14.95 9.2 Q-14.95 9.75 -15.3 10.15 -15.6 10.5 -16.2 10.5 -16.75 10.5 -17.1 10.15 -17.5 9.75 -17.5 9.2 L-17.5 -2.0 Q-17.5 -2.6 -17.1 -2.9 -16.75 -3.25 -16.2 -3.25 L-15.3 -2.9 Q-14.95 -2.6 -14.95 -2.05 L-13.35 -3.05 -11.4 -3.45 Q-10.15 -3.45 -9.1 -2.9 L-7.4 -1.45 Q-6.65 -2.35 -5.5 -2.85 -4.4 -3.45 -3.0 -3.45 M-36.05 8.45 Q-35.75 8.85 -35.75 9.3 -35.75 9.8 -36.1 10.15 -36.45 10.45 -37.0 10.45 -37.8 10.45 -38.15 9.85 L-42.5 2.9 -46.15 2.9 -46.15 9.15 Q-46.15 9.7 -46.55 10.1 -46.9 10.45 -47.5 10.45 -48.05 10.45 -48.4 10.1 -48.8 9.7 -48.8 9.15 L-48.8 -7.85 Q-48.8 -8.45 -48.4 -8.8 -48.05 -9.2 -47.5 -9.2 L-42.95 -9.2 Q-41.1 -9.2 -39.6 -8.4 -38.15 -7.65 -37.3 -6.2 -36.5 -4.8 -36.5 -3.0 -36.5 -1.2 -37.4 0.2 -38.3 1.55 -39.9 2.25 L-36.05 8.45 M-42.95 0.45 Q-41.2 0.45 -40.15 -0.5 -39.05 -1.45 -39.05 -3.0 -39.05 -4.65 -40.15 -5.7 -41.2 -6.8 -42.95 -6.8 L-46.15 -6.8 -46.15 0.45 -42.95 0.45 M-20.8 3.35 Q-20.8 3.8 -21.15 4.15 -21.45 4.5 -21.95 4.5 L-31.5 4.5 Q-31.2 6.25 -29.9 7.3 -28.6 8.4 -26.7 8.4 L-25.1 8.1 -23.75 7.45 Q-23.4 7.15 -22.9 7.15 -22.45 7.15 -22.15 7.4 -21.75 7.8 -21.75 8.3 -21.75 8.75 -22.1 9.0 -22.95 9.7 -24.25 10.15 L-26.7 10.55 Q-28.7 10.55 -30.35 9.65 -32.0 8.8 -32.9 7.2 -33.85 5.6 -33.85 3.6 -33.85 1.6 -32.95 0.0 -32.1 -1.6 -30.55 -2.5 -29.0 -3.4 -27.05 -3.4 -25.15 -3.4 -23.7 -2.55 -22.3 -1.7 -21.55 -0.15 -20.8 1.35 -20.8 3.35 M-27.05 -1.2 Q-28.9 -1.2 -30.05 -0.25 -31.15 0.8 -31.5 2.45 L-23.1 2.45 Q-23.35 0.8 -24.4 -0.25 -25.4 -1.2 -27.05 -1.2" fill="none" stroke="#380b0b" stroke-linecap="round" stroke-linejoin="round" stroke-opacity="0.7764706" stroke-width="4.0"/>
    <path d="M5.85 -0.3 Q6.75 -2.0 8.55 -2.95 L8.55 -2.9 Q10.25 -3.9 12.35 -3.9 14.55 -3.9 16.2 -2.9 17.85 -1.95 18.85 -0.3 19.8 1.4 19.8 3.6 19.8 5.75 18.9 7.45 17.9 9.2 16.25 10.1 14.55 11.05 12.35 11.05 10.25 11.05 8.55 10.1 L8.6 10.1 Q6.8 9.15 5.85 7.45 4.95 5.75 4.95 3.6 4.95 1.4 5.85 -0.25 L5.85 -0.3 M2.4 2.05 L2.4 9.2 Q2.4 9.95 1.9 10.5 L1.85 10.5 Q1.45 11.0 0.55 11.0 -0.15 11.0 -0.65 10.55 L-0.7 10.5 Q-1.2 9.95 -1.2 9.2 L-1.2 2.05 Q-1.2 0.7 -1.8 0.0 -2.45 -0.65 -3.55 -0.65 -4.6 -0.65 -5.25 0.15 -6.0 0.9 -6.0 2.15 L-6.0 9.2 Q-6.0 9.95 -6.5 10.5 L-6.55 10.5 Q-6.95 11.0 -7.8 11.0 -8.55 11.0 -9.05 10.5 -9.6 9.95 -9.6 9.2 L-9.6 2.05 Q-9.6 0.7 -10.2 0.0 -10.85 -0.65 -11.9 -0.65 -13.0 -0.65 -13.7 0.15 -14.45 0.9 -14.45 2.15 L-14.45 9.2 Q-14.45 9.95 -14.9 10.5 -15.35 11.0 -16.2 11.0 -16.95 11.0 -17.45 10.5 -18.0 9.95 -18.0 9.2 L-18.0 -2.0 Q-18.0 -2.85 -17.4 -3.3 L-16.2 -3.75 Q-15.45 -3.75 -14.95 -3.25 L-14.65 -2.9 -13.5 -3.5 -13.55 -3.5 -11.4 -3.95 Q-10.05 -3.95 -8.85 -3.35 L-7.35 -2.2 -5.7 -3.3 -5.75 -3.3 Q-4.55 -3.95 -3.0 -3.95 -0.6 -3.95 0.9 -2.35 L0.85 -2.35 Q2.4 -0.8 2.4 2.05 M14.4 -0.05 Q13.55 -0.65 12.35 -0.65 11.25 -0.65 10.4 -0.05 L10.35 -0.05 Q9.4 0.4 8.95 1.4 8.45 2.35 8.45 3.6 8.45 4.85 8.95 5.85 L10.35 7.3 Q11.25 7.8 12.35 7.8 13.55 7.8 14.4 7.3 15.3 6.75 15.8 5.85 L15.8 5.8 Q16.35 4.8 16.35 3.6 16.35 2.35 15.85 1.4 L15.8 1.4 Q15.35 0.4 14.45 -0.05 L14.4 -0.05 M21.6 -3.5 L22.4 -3.75 23.2 -3.5 23.25 -3.5 23.85 -2.9 23.85 -2.85 27.8 5.7 31.65 -2.85 31.7 -2.9 32.3 -3.5 32.35 -3.55 33.15 -3.75 33.95 -3.55 34.0 -3.5 34.65 -3.0 34.95 -2.1 34.85 -1.45 34.8 -1.4 29.4 9.85 29.4 9.8 Q28.9 11.0 27.85 10.95 L26.9 10.75 26.75 10.65 26.2 9.85 26.15 9.85 20.8 -1.4 20.8 -1.5 20.7 -2.05 Q20.7 -3.05 21.6 -3.5 M43.0 -3.9 Q45.1 -3.9 46.6 -2.95 48.2 -2.05 49.0 -0.35 49.8 1.2 49.8 3.35 L49.35 4.5 49.3 4.5 Q48.85 5.0 48.15 5.0 L39.25 5.0 Q39.55 6.15 40.5 6.9 L40.55 6.95 Q41.7 7.9 43.4 7.9 L44.85 7.65 46.0 7.05 Q46.55 6.65 47.15 6.65 47.85 6.65 48.25 7.05 48.85 7.6 48.85 8.3 48.85 9.0 48.25 9.45 L48.3 9.4 46.05 10.65 46.0 10.65 43.4 11.05 Q41.2 11.05 39.45 10.1 L39.5 10.1 Q37.7 9.2 36.75 7.45 35.7 5.75 35.7 3.6 35.7 1.45 36.7 -0.25 L36.65 -0.2 Q37.55 -1.95 39.3 -2.9 40.95 -3.9 43.0 -3.9 M-49.3 -7.85 Q-49.3 -8.65 -48.75 -9.1 L-48.7 -9.15 Q-48.25 -9.7 -47.5 -9.7 L-42.95 -9.7 Q-41.0 -9.7 -39.35 -8.85 -37.8 -8.05 -36.85 -6.45 -36.0 -4.95 -36.0 -3.0 -36.0 -1.05 -36.95 0.5 -37.8 1.7 -39.15 2.45 L-35.6 8.2 Q-35.25 8.7 -35.25 9.3 -35.25 10.0 -35.75 10.5 L-35.75 10.55 Q-36.25 10.95 -37.0 10.95 -38.1 10.95 -38.55 10.1 L-38.55 10.15 -42.75 3.4 -45.65 3.4 -45.65 9.15 Q-45.65 9.9 -46.2 10.45 -46.7 10.95 -47.5 10.95 -48.25 10.95 -48.75 10.45 -49.3 9.9 -49.3 9.15 L-49.3 -7.85 M-42.95 -6.3 L-45.65 -6.3 -45.65 -0.05 -42.95 -0.05 Q-41.4 -0.05 -40.45 -0.85 -39.55 -1.7 -39.55 -3.0 -39.55 -4.45 -40.5 -5.35 -41.4 -6.3 -42.95 -6.3 M-27.05 -3.9 Q-25.0 -3.9 -23.45 -2.95 -21.9 -2.05 -21.1 -0.35 -20.3 1.2 -20.3 3.35 -20.3 4.0 -20.75 4.5 L-20.8 4.5 Q-21.25 5.0 -21.95 5.0 L-30.85 5.0 Q-30.5 6.15 -29.55 6.9 L-29.55 6.95 Q-28.4 7.9 -26.7 7.9 L-25.25 7.65 -24.05 7.1 -24.05 7.05 Q-23.55 6.65 -22.9 6.65 -22.25 6.65 -21.8 7.05 -21.25 7.6 -21.25 8.3 -21.25 9.0 -21.75 9.4 L-21.8 9.4 Q-22.7 10.15 -24.05 10.65 L-24.1 10.65 -26.7 11.05 Q-28.85 11.05 -30.6 10.1 L-30.55 10.1 Q-32.35 9.2 -33.3 7.45 -34.35 5.75 -34.35 3.6 -34.35 1.45 -33.35 -0.25 L-33.4 -0.2 Q-32.5 -1.95 -30.8 -2.9 -29.15 -3.9 -27.05 -3.9 M-27.05 -0.7 Q-28.7 -0.7 -29.7 0.1 L-29.7 0.15 Q-30.5 0.85 -30.85 1.95 L-23.7 1.95 Q-24.0 0.85 -24.75 0.1 L-24.75 0.15 Q-25.6 -0.7 -27.05 -0.7 M45.4 0.15 L45.35 0.1 Q44.45 -0.7 43.0 -0.7 41.4 -0.7 40.4 0.15 39.55 0.85 39.25 1.95 L46.4 1.95 Q46.1 0.85 45.4 0.15" fill="#e0effa" fill-rule="evenodd" stroke="none"/>
  </g>
</svg>
