<?xml version="1.0" encoding="UTF-8" standalone="no"?>
<svg xmlns:xlink="http://www.w3.org/1999/xlink" height="416.8px" width="571.75px" xmlns="http://www.w3.org/2000/svg">
  <g transform="matrix(1.0, 0.0, 0.0, 1.0, 766.1, 278.65)">
    <path d="M-295.25 -10.85 L-246.25 -10.85 -246.25 25.0 -295.25 25.0 -295.25 -10.85" fill="#fff5af" fill-rule="evenodd" stroke="none"/>
    <path d="M-246.25 25.0 L-246.25 62.1 -295.25 62.1 -295.25 25.0 -246.25 25.0" fill="#ffdf8e" fill-rule="evenodd" stroke="none"/>
    <path d="M-246.25 62.1 L-246.25 97.45 -295.25 97.45 -295.25 62.1 -246.25 62.1" fill="#ffde72" fill-rule="evenodd" stroke="none"/>
    <path d="M-194.85 25.0 L-194.85 62.1 -243.9 62.1 -243.9 25.0 -194.85 25.0" fill="#3fbf91" fill-rule="evenodd" stroke="none"/>
    <path d="M-194.85 62.1 L-194.85 97.9 -243.9 97.9 -243.9 62.1 -194.85 62.1" fill="#0f794d" fill-rule="evenodd" stroke="none"/>
    <path d="M-194.85 -10.85 L-194.85 25.0 -243.9 25.0 -243.9 -10.85 -194.85 -10.85" fill="#75f7c8" fill-rule="evenodd" stroke="none"/>
    <path d="M-243.9 -10.85 L-243.9 -46.7 -194.85 -46.7 -194.85 -10.85 -243.9 -10.85" fill="#b3f7f1" fill-rule="evenodd" stroke="none"/>
    <path d="M-295.25 -10.85 L-295.25 -46.7 -246.25 -46.7 -246.25 -10.85 -295.25 -10.85" fill="#a3958d" fill-rule="evenodd" stroke="none"/>
    <path d="M-295.25 -241.95 L-246.25 -241.95 -246.25 -195.6 -246.25 -147.15 -246.25 -100.75 -246.25 -53.0 -295.25 -53.0 -295.25 -100.75 -295.25 -147.15 -295.25 -195.6 -295.25 -241.95 M-295.25 -242.0 L-295.25 -278.05 -246.25 -278.05 -246.25 -242.0 -295.25 -242.0 M-246.25 -100.75 L-295.25 -100.75 -246.25 -100.75 M-246.25 -195.6 L-295.25 -195.6 -246.25 -195.6 M-246.25 -147.15 L-295.25 -147.15 -246.25 -147.15" fill="url(#gradient0)" fill-rule="evenodd" stroke="none"/>
    <path d="M-243.9 -242.0 L-243.9 -278.05 -194.85 -278.05 -194.85 -242.0 -243.9 -242.0 M-243.9 -241.95 L-194.85 -241.95 -194.85 -195.6 -194.85 -147.15 -194.85 -100.75 -194.85 -52.8 -243.9 -52.8 -243.9 -100.75 -243.9 -147.15 -243.9 -195.6 -243.9 -241.95 M-194.85 -195.6 L-243.9 -195.6 -194.85 -195.6 M-194.85 -147.15 L-243.9 -147.15 -194.85 -147.15 M-194.85 -100.75 L-243.9 -100.75 -194.85 -100.75" fill="url(#gradient1)" fill-rule="evenodd" stroke="none"/>
    <path d="M-246.25 -241.95 L-246.25 -195.6 -246.25 -147.15 -246.25 -100.75 -246.25 -53.0 -295.25 -53.0 -295.25 -100.75 -295.25 -147.15 -295.25 -195.6 -295.25 -241.95 M-243.9 -242.0 L-243.9 -278.05 -194.85 -278.05 -194.85 -242.0 -243.9 -242.0 M-295.25 -242.0 L-295.25 -278.05 -246.25 -278.05 -246.25 -242.0 -295.25 -242.0 M-194.85 -241.95 L-194.85 -195.6 -194.85 -147.15 -194.85 -100.75 -194.85 -52.8 -243.9 -52.8 -243.9 -100.75 -243.9 -147.15 -243.9 -195.6 -243.9 -241.95 M-295.25 -147.15 L-246.25 -147.15 M-295.25 -195.6 L-246.25 -195.6 M-295.25 -100.75 L-246.25 -100.75 M-246.25 -10.85 L-246.25 -46.7 -295.25 -46.7 -295.25 -10.85 -246.25 -10.85 -246.25 25.0 -246.25 62.1 -246.25 97.45 -295.25 97.45 -295.25 62.1 -295.25 25.0 -295.25 -10.85 M-243.9 -10.85 L-243.9 -46.7 -194.85 -46.7 -194.85 -10.85 -194.85 25.0 -194.85 62.1 -194.85 97.9 -243.9 97.9 -243.9 62.1 -243.9 25.0 -243.9 -10.85 -194.85 -10.85 M-243.9 -100.75 L-194.85 -100.75 M-243.9 -147.15 L-194.85 -147.15 M-243.9 -195.6 L-194.85 -195.6 M-295.25 25.0 L-246.25 25.0 M-295.25 62.1 L-246.25 62.1 M-243.9 25.0 L-194.85 25.0 M-243.9 62.1 L-194.85 62.1" fill="none" stroke="#000000" stroke-linecap="round" stroke-linejoin="round" stroke-opacity="0.5019608" stroke-width="1.0"/>
    <path d="M-765.6 -242.35 L-765.6 -278.15 -298.0 -278.15 -298.0 -242.35 -298.0 -195.0 -298.0 -147.25 -298.0 -100.55 -298.0 -52.6 -765.6 -52.6 -765.6 -100.55 -765.6 -147.25 -765.6 -195.0 -765.6 -242.35 -298.0 -242.35 M-298.0 98.0 L-765.6 98.0 M-765.6 61.7 L-298.0 61.7 M-298.0 25.0 L-765.6 25.0 M-298.0 -11.3 L-765.6 -11.3 M-298.0 -46.7 L-765.6 -46.7 M-298.0 -100.55 L-765.6 -100.55 M-765.6 -147.25 L-298.0 -147.25 M-298.0 -195.0 L-765.6 -195.0" fill="none" stroke="#000000" stroke-linecap="round" stroke-linejoin="round" stroke-opacity="0.5019608" stroke-width="1.0"/>
    <path d="M-433.85 103.4 L-433.85 137.6 -481.3 137.6 -481.3 103.4 -433.85 103.4" fill="#be2843" fill-rule="evenodd" stroke="none"/>
    <path d="M-243.3 137.55 L-243.3 103.4 -195.95 103.4 -195.95 137.5 -243.3 137.55" fill="#020202" fill-rule="evenodd" stroke="none"/>
    <path d="M-243.3 103.4 L-243.3 137.55 -291.2 137.55 -291.2 103.4 -243.3 103.4" fill="#afbed9" fill-rule="evenodd" stroke="none"/>
    <path d="M-386.45 137.55 L-386.45 103.4 -339.1 103.4 -339.1 137.55 -386.45 137.55" fill="#f5dbc6" fill-rule="evenodd" stroke="none"/>
    <path d="M-433.85 137.6 L-433.85 103.4 -386.45 103.4 -386.45 137.55 -433.85 137.6" fill="#efe3e3" fill-rule="evenodd" stroke="none"/>
    <path d="M-291.2 103.4 L-291.2 137.55 -339.1 137.55 -339.1 103.4 -291.2 103.4" fill="#d9a687" fill-rule="evenodd" stroke="none"/>
    <path d="M-623.45 103.35 L-623.45 137.65 -670.8 137.65 -670.8 103.35 -623.45 103.35" fill="#5478e0" fill-rule="evenodd" stroke="none"/>
    <path d="M-576.1 103.35 L-576.1 137.6 -623.45 137.65 -623.45 103.35 -576.1 103.35" fill="#724fc6" fill-rule="evenodd" stroke="none"/>
    <path d="M-576.1 137.6 L-576.1 103.35 -528.7 103.35 -528.7 137.6 -576.1 137.6" fill="#9147be" fill-rule="evenodd" stroke="none"/>
    <path d="M-481.3 103.4 L-481.3 137.6 -528.7 137.6 -528.7 103.35 -481.3 103.4" fill="#be4989" fill-rule="evenodd" stroke="none"/>
    <path d="M-718.2 137.65 L-718.2 103.3 -670.8 103.35 -670.8 137.65 -718.2 137.65" fill="#4c97d9" fill-rule="evenodd" stroke="none"/>
    <path d="M-718.2 137.65 L-765.6 137.65 -765.6 103.3 -718.2 103.3 -718.2 137.65" fill="#6c71a4" fill-rule="evenodd" stroke="none"/>
    <path d="M-532.1 -278.15 L-532.1 -53.0 M-625.5 -278.15 L-625.5 -53.0 M-578.8 -53.0 L-578.8 -278.15 M-391.9 -53.0 L-391.9 -278.15 M-345.2 -278.15 L-345.2 -53.0 M-485.35 -53.0 L-485.35 -278.15 M-438.6 -278.15 L-438.6 -53.0 M-243.3 103.4 L-243.3 137.55 -195.95 137.5 -195.95 103.4 -243.3 103.4 -291.2 103.4 -291.2 137.55 -243.3 137.55 M-433.85 103.4 L-433.85 137.6 -386.45 137.55 -386.45 103.4 -433.85 103.4 -481.3 103.4 -481.3 137.6 -433.85 137.6 M-339.1 103.4 L-339.1 137.55 -291.2 137.55 M-386.45 103.4 L-339.1 103.4 -291.2 103.4 M-339.1 137.55 L-386.45 137.55 M-576.1 137.6 L-576.1 103.35 -623.45 103.35 -623.45 137.65 -576.1 137.6 -528.7 137.6 -528.7 103.35 -576.1 103.35 M-528.7 103.35 L-481.3 103.4 M-481.3 137.6 L-528.7 137.6 M-298.0 -46.7 L-298.0 97.25 M-345.2 -46.4 L-345.2 97.45 M-391.9 97.45 L-391.9 -46.4 M-438.6 -46.4 L-438.6 97.45 M-485.35 97.45 L-485.35 -46.4 M-532.1 -46.4 L-532.1 97.45 M-578.8 97.45 L-578.8 -46.4 M-625.5 -46.4 L-625.5 97.45 M-718.85 -278.15 L-718.85 -53.0 M-672.15 -53.0 L-672.15 -278.15 M-718.2 103.3 L-765.6 103.3 -765.6 137.65 -718.2 137.65 -718.2 103.3 -670.8 103.35 -623.45 103.35 M-670.8 137.65 L-670.8 103.35 M-670.8 137.65 L-718.2 137.65 M-672.15 97.45 L-672.15 -46.4 M-718.85 -46.4 L-718.85 97.45 M-765.6 -46.9 L-765.6 98.05 M-623.45 137.65 L-670.8 137.65" fill="none" stroke="#000000" stroke-linecap="round" stroke-linejoin="round" stroke-opacity="0.5019608" stroke-width="1.0"/>
  </g>
  <defs>
    <linearGradient gradientTransform="matrix(0.0, 0.1533, -0.0299, 0.0, -270.7, -148.25)" gradientUnits="userSpaceOnUse" id="gradient0" spreadMethod="pad" x1="-819.2" x2="819.2">
      <stop offset="0.0" stop-color="#ffd7b8"/>
      <stop offset="0.5019607843137255" stop-color="#7e5d48"/>
      <stop offset="0.8823529411764706" stop-color="#19120b"/>
    </linearGradient>
    <linearGradient gradientTransform="matrix(0.0, 0.1533, -0.0299, 0.0, -219.3, -149.9)" gradientUnits="userSpaceOnUse" id="gradient1" spreadMethod="pad" x1="-819.2" x2="819.2">
      <stop offset="0.0" stop-color="#ffffff"/>
      <stop offset="1.0" stop-color="#000000"/>
    </linearGradient>
  </defs>
</svg>
