<?xml version="1.0" encoding="UTF-8" standalone="no"?>
<svg xmlns:xlink="http://www.w3.org/1999/xlink" height="348.25px" width="505.8px" xmlns="http://www.w3.org/2000/svg">
  <g transform="matrix(1.0, 0.0, 0.0, 1.0, 688.55, 246.25)">
    <path d="M-183.25 94.7 L-183.25 101.5 -688.05 101.5 -688.05 94.7 -183.25 94.7" fill="#60677e" fill-rule="evenodd" stroke="none"/>
    <path d="M-688.05 94.7 L-688.05 -245.75 -183.25 -245.75 -183.25 94.7 -688.05 94.7" fill="#9fa3bd" fill-rule="evenodd" stroke="none"/>
    <path d="M-183.25 94.7 L-183.25 101.5 -688.05 101.5 -688.05 94.7 -688.05 -245.75 -183.25 -245.75 -183.25 94.7 Z" fill="none" stroke="#000000" stroke-linecap="round" stroke-linejoin="round" stroke-opacity="0.7490196" stroke-width="1.0"/>
    <path d="M-483.1 80.4 L-530.2 80.4 -530.2 22.0 -483.1 22.0 -483.1 80.4" fill="#b1ff4a" fill-rule="evenodd" stroke="none"/>
    <path d="M-435.8 -100.15 L-388.55 -100.15 -388.55 -41.85 -435.8 -41.85 -435.8 -100.15" fill="#de6969" fill-rule="evenodd" stroke="none"/>
    <path d="M-530.2 -100.15 L-483.1 -100.15 -483.1 -41.85 -530.2 -41.85 -530.2 -100.15" fill="#57bb66" fill-rule="evenodd" stroke="none"/>
    <path d="M-577.65 -100.15 L-530.2 -100.15 -530.2 -41.85 -577.65 -41.85 -577.65 -100.15" fill="#b8ffc3" fill-rule="evenodd" stroke="none"/>
    <path d="M-530.2 80.4 L-577.65 80.4 -577.65 22.0 -530.2 22.0 -530.2 80.4" fill="#31fff9" fill-rule="evenodd" stroke="none"/>
    <path d="M-388.55 -100.15 L-341.2 -100.15 -341.2 -41.85 -388.55 -41.85 -388.55 -100.15" fill="#ff8e48" fill-rule="evenodd" stroke="none"/>
    <path d="M-341.2 -39.25 L-293.75 -39.25 -293.75 19.1 -341.2 19.1 -341.2 -39.25" fill="#ffdc3a" fill-rule="evenodd" stroke="none"/>
    <path d="M-293.75 -39.25 L-246.4 -39.25 -246.4 19.1 -293.75 19.1 -293.75 -39.25" fill="#a87f31" fill-rule="evenodd" stroke="none"/>
    <path d="M-388.55 80.4 L-435.8 80.4 -435.8 22.0 -388.55 22.0 -388.55 80.4" fill="#ff2c2c" fill-rule="evenodd" stroke="none"/>
    <path d="M-246.4 -100.15 L-198.85 -100.15 -198.85 -41.85 -246.4 -41.85 -246.4 -100.15" fill="#b6c1e2" fill-rule="evenodd" stroke="none"/>
    <path d="M-246.4 22.0 L-198.85 22.0 -198.85 80.4 -246.4 80.4 -246.4 22.0" fill="#000000" fill-rule="evenodd" stroke="none"/>
    <path d="M-246.4 80.4 L-293.75 80.4 -293.75 22.0 -246.4 22.0 -246.4 80.4" fill="#2f2f33" fill-rule="evenodd" stroke="none"/>
    <path d="M-624.85 -100.15 L-577.65 -100.15 -577.65 -41.85 -624.85 -41.85 -624.85 -100.15" fill="#a1c3ff" fill-rule="evenodd" stroke="none"/>
    <path d="M-293.75 80.4 L-341.2 80.4 -341.2 22.0 -293.75 22.0 -293.75 80.4" fill="#c4cbd2" fill-rule="evenodd" stroke="none"/>
    <path d="M-624.85 -41.85 L-672.35 -41.85 -672.35 -100.15 -624.85 -100.15 -624.85 -41.85" fill="#d0f3ff" fill-rule="evenodd" stroke="none"/>
    <path d="M-341.2 80.4 L-388.55 80.4 -388.55 22.0 -341.2 22.0 -341.2 80.4" fill="#ffffff" fill-rule="evenodd" stroke="none"/>
    <path d="M-624.85 -171.75 L-672.35 -171.75 -672.35 -230.25 -624.85 -230.25 -624.85 -171.75" fill="#fffbee" fill-rule="evenodd" stroke="none"/>
    <path d="M-577.65 -171.75 L-624.85 -171.75 -624.85 -230.25 -577.65 -230.25 -577.65 -171.75" fill="#fff0e2" fill-rule="evenodd" stroke="none"/>
    <path d="M-530.2 -171.75 L-577.65 -171.75 -577.65 -230.25 -530.2 -230.25 -530.2 -171.75" fill="#ffe5d4" fill-rule="evenodd" stroke="none"/>
    <path d="M-483.1 -171.75 L-530.2 -171.75 -530.2 -230.25 -483.1 -230.25 -483.1 -171.75" fill="#ffdcc6" fill-rule="evenodd" stroke="none"/>
    <path d="M-483.1 -230.25 L-435.8 -230.25 -435.8 -171.75 -483.1 -171.75 -483.1 -230.25" fill="#ffd1bb" fill-rule="evenodd" stroke="none"/>
    <path d="M-435.8 -230.25 L-388.55 -230.25 -388.55 -171.75 -435.8 -171.75 -435.8 -230.25" fill="#fcccad" fill-rule="evenodd" stroke="none"/>
    <path d="M-388.55 -230.25 L-341.2 -230.25 -341.2 -171.75 -388.55 -171.75 -388.55 -230.25" fill="#e7dcc7" fill-rule="evenodd" stroke="none"/>
    <path d="M-341.2 -230.25 L-293.75 -230.25 -293.75 -171.75 -341.2 -171.75 -341.2 -230.25" fill="#dbcfb8" fill-rule="evenodd" stroke="none"/>
    <path d="M-246.4 -230.25 L-198.85 -230.25 -198.85 -171.75 -246.4 -171.75 -246.4 -230.25" fill="#af9686" fill-rule="evenodd" stroke="none"/>
    <path d="M-624.85 -169.55 L-624.85 -111.05 -672.35 -111.05 -672.35 -169.55 -624.85 -169.55" fill="#fff1c2" fill-rule="evenodd" stroke="none"/>
    <path d="M-577.65 -169.55 L-577.65 -111.05 -624.85 -111.05 -624.85 -169.55 -577.65 -169.55" fill="#e5d09d" fill-rule="evenodd" stroke="none"/>
    <path d="M-530.2 -169.55 L-530.2 -111.05 -577.65 -111.05 -577.65 -169.55 -530.2 -169.55" fill="#c2aa97" fill-rule="evenodd" stroke="none"/>
    <path d="M-530.2 -111.05 L-530.2 -169.55 -483.1 -169.55 -483.1 -111.05 -530.2 -111.05" fill="#a88b79" fill-rule="evenodd" stroke="none"/>
    <path d="M-483.1 -111.05 L-483.1 -169.55 -435.8 -169.55 -435.8 -111.05 -483.1 -111.05" fill="#8c7164" fill-rule="evenodd" stroke="none"/>
    <path d="M-388.55 -169.55 L-388.55 -111.05 -435.8 -111.05 -435.8 -169.55 -388.55 -169.55" fill="#6b5649" fill-rule="evenodd" stroke="none"/>
    <path d="M-246.4 -169.55 L-198.85 -169.55 -198.85 -111.05 -246.4 -111.05 -246.4 -169.55" fill="#1c1511" fill-rule="evenodd" stroke="none"/>
    <path d="M-341.2 -111.05 L-341.2 -169.55 -293.75 -169.55 -293.75 -111.05 -341.2 -111.05" fill="#412d23" fill-rule="evenodd" stroke="none"/>
    <path d="M-293.75 -111.05 L-293.75 -169.55 -293.65 -169.55 -246.4 -169.55 -246.4 -111.05 -293.75 -111.05" fill="#271d18" fill-rule="evenodd" stroke="none"/>
    <path d="M-341.2 -169.55 L-341.2 -111.05 -388.55 -111.05 -388.55 -169.55 -341.2 -169.55" fill="#584032" fill-rule="evenodd" stroke="none"/>
    <path d="M-624.85 19.1 L-672.35 19.1 -672.35 -39.25 -624.85 -39.25 -624.85 19.1" fill="#8a95d7" fill-rule="evenodd" stroke="none"/>
    <path d="M-624.85 -39.25 L-577.65 -39.25 -577.65 19.1 -624.85 19.1 -624.85 -39.25" fill="#4960a1" fill-rule="evenodd" stroke="none"/>
    <path d="M-577.65 -39.25 L-530.2 -39.25 -530.2 19.1 -577.65 19.1 -577.65 -39.25" fill="#80e7c8" fill-rule="evenodd" stroke="none"/>
    <path d="M-530.2 -39.25 L-483.1 -39.25 -483.1 19.1 -530.2 19.1 -530.2 -39.25" fill="#24723f" fill-rule="evenodd" stroke="none"/>
    <path d="M-483.1 -39.25 L-435.8 -39.25 -435.8 19.1 -483.1 19.1 -483.1 -39.25" fill="#ff77e7" fill-rule="evenodd" stroke="none"/>
    <path d="M-435.8 -39.25 L-388.55 -39.25 -388.55 19.1 -435.8 19.1 -435.8 -39.25" fill="#a63b3b" fill-rule="evenodd" stroke="none"/>
    <path d="M-388.55 -39.25 L-341.2 -39.25 -341.2 19.1 -388.55 19.1 -388.55 -39.25" fill="#c95022" fill-rule="evenodd" stroke="none"/>
    <path d="M-341.2 -100.15 L-293.75 -100.15 -293.75 -41.85 -341.2 -41.85 -341.2 -100.15" fill="#f6ffaa" fill-rule="evenodd" stroke="none"/>
    <path d="M-293.75 -100.15 L-246.4 -100.15 -246.4 -41.85 -293.75 -41.85 -293.75 -100.15" fill="#dbce70" fill-rule="evenodd" stroke="none"/>
    <path d="M-246.4 -39.25 L-198.85 -39.25 -198.85 19.1 -246.4 19.1 -246.4 -39.25" fill="#7f879f" fill-rule="evenodd" stroke="none"/>
    <path d="M-435.8 80.4 L-483.1 80.4 -483.1 22.0 -435.8 22.0 -435.8 80.4" fill="#d2b4ff" fill-rule="evenodd" stroke="none"/>
    <path d="M-577.65 80.4 L-624.85 80.4 -624.85 22.0 -577.65 22.0 -577.65 80.4" fill="#2c8bf3" fill-rule="evenodd" stroke="none"/>
    <path d="M-624.85 80.4 L-672.35 80.4 -672.35 22.0 -624.85 22.0 -624.85 80.4" fill="#2536e5" fill-rule="evenodd" stroke="none"/>
    <path d="M-483.1 -100.15 L-435.8 -100.15 -435.8 -41.85 -483.1 -41.85 -483.1 -100.15" fill="#ffc9d5" fill-rule="evenodd" stroke="none"/>
    <path d="M-293.75 -230.25 L-293.65 -230.25 -246.4 -230.25 -246.4 -171.75 -293.75 -171.75 -293.75 -230.25" fill="#d5a385" fill-rule="evenodd" stroke="none"/>
    <path d="M-483.1 -230.25 L-435.8 -230.25 -388.55 -230.25 -341.2 -230.25 -293.75 -230.25 -293.75 -171.75 -341.2 -171.75 -388.55 -171.75 -435.8 -171.75 -483.1 -171.75 -530.2 -171.75 -577.65 -171.75 -624.85 -171.75 -672.35 -171.75 -672.35 -230.25 -624.85 -230.25 -577.65 -230.25 -530.2 -230.25 -483.1 -230.25 -483.1 -171.75 M-293.65 -230.25 L-246.4 -230.25 -198.85 -230.25 -198.85 -171.75 -246.4 -171.75 -293.75 -171.75 M-530.2 -111.05 L-530.2 -169.55 -577.65 -169.55 -577.65 -111.05 -530.2 -111.05 -483.1 -111.05 -483.1 -169.55 -530.2 -169.55 M-624.85 -111.05 L-624.85 -169.55 -672.35 -169.55 -672.35 -111.05 -624.85 -111.05 -577.65 -111.05 M-624.85 -100.15 L-577.65 -100.15 -530.2 -100.15 -483.1 -100.15 -435.8 -100.15 -388.55 -100.15 -341.2 -100.15 -293.75 -100.15 -246.4 -100.15 -198.85 -100.15 -198.85 -41.85 -246.4 -41.85 -293.75 -41.85 -341.2 -41.85 -388.55 -41.85 -435.8 -41.85 -483.1 -41.85 -530.2 -41.85 -577.65 -41.85 -624.85 -41.85 -672.35 -41.85 -672.35 -100.15 -624.85 -100.15 -624.85 -41.85 M-624.85 -169.55 L-577.65 -169.55 M-624.85 -39.25 L-577.65 -39.25 -530.2 -39.25 -483.1 -39.25 -435.8 -39.25 -388.55 -39.25 -341.2 -39.25 -293.75 -39.25 -246.4 -39.25 -198.85 -39.25 -198.85 19.1 -246.4 19.1 -293.75 19.1 -341.2 19.1 -388.55 19.1 -435.8 19.1 -483.1 19.1 -530.2 19.1 -577.65 19.1 -624.85 19.1 -672.35 19.1 -672.35 -39.25 -624.85 -39.25 -624.85 19.1 M-530.2 -41.85 L-530.2 -100.15 M-577.65 -41.85 L-577.65 -100.15 M-341.2 -111.05 L-341.2 -169.55 -388.55 -169.55 -388.55 -111.05 -341.2 -111.05 -293.75 -111.05 -293.75 -169.55 -341.2 -169.55 M-435.8 -111.05 L-483.1 -111.05 M-483.1 -169.55 L-435.8 -169.55 -388.55 -169.55 M-435.8 -111.05 L-435.8 -169.55 M-435.8 -41.85 L-435.8 -100.15 M-483.1 -41.85 L-483.1 -100.15 M-341.2 -41.85 L-341.2 -100.15 M-388.55 -41.85 L-388.55 -100.15 M-388.55 -111.05 L-435.8 -111.05 M-435.8 -171.75 L-435.8 -230.25 M-530.2 -171.75 L-530.2 -230.25 M-341.2 -171.75 L-341.2 -230.25 M-388.55 -171.75 L-388.55 -230.25 M-577.65 -171.75 L-577.65 -230.25 M-624.85 -171.75 L-624.85 -230.25 M-246.4 -169.55 L-198.85 -169.55 -198.85 -111.05 -246.4 -111.05 -293.75 -111.05 M-293.65 -169.55 L-246.4 -169.55 -246.4 -111.05 M-293.75 -41.85 L-293.75 -100.15 M-246.4 -41.85 L-246.4 -100.15 M-246.4 -171.75 L-246.4 -230.25 M-246.4 22.0 L-198.85 22.0 -198.85 80.4 -246.4 80.4 -293.75 80.4 -341.2 80.4 -388.55 80.4 -435.8 80.4 -483.1 80.4 -530.2 80.4 -577.65 80.4 -624.85 80.4 -672.35 80.4 -672.35 22.0 -624.85 22.0 -577.65 22.0 -530.2 22.0 -483.1 22.0 -435.8 22.0 -388.55 22.0 -341.2 22.0 -293.75 22.0 -246.4 22.0 -246.4 80.4 M-293.75 80.4 L-293.75 22.0 M-388.55 80.4 L-388.55 22.0 M-341.2 80.4 L-341.2 22.0 M-483.1 80.4 L-483.1 22.0 M-435.8 80.4 L-435.8 22.0 M-530.2 80.4 L-530.2 22.0 M-624.85 80.4 L-624.85 22.0 M-577.65 80.4 L-577.65 22.0 M-435.8 19.1 L-435.8 -39.25 M-483.1 19.1 L-483.1 -39.25 M-530.2 19.1 L-530.2 -39.25 M-246.4 19.1 L-246.4 -39.25 M-293.75 19.1 L-293.75 -39.25 M-341.2 19.1 L-341.2 -39.25 M-388.55 19.1 L-388.55 -39.25 M-577.65 19.1 L-577.65 -39.25" fill="none" stroke="#000000" stroke-linecap="round" stroke-linejoin="round" stroke-opacity="0.5019608" stroke-width="1.0"/>
  </g>
</svg>
