<?xml version="1.0" encoding="UTF-8" standalone="no"?>
<svg xmlns:xlink="http://www.w3.org/1999/xlink" height="132.8px" width="301.2px" xmlns="http://www.w3.org/2000/svg">
  <g transform="matrix(1.0, 0.0, 0.0, 1.0, 788.3, 427.1)">
    <path d="M-751.0 -376.7 L-736.65 -424.4 -539.55 -424.4 -526.0 -376.7 -751.0 -376.7 M-735.0 -422.15 L-748.0 -378.95 -528.95 -378.95 -541.2 -422.15 -735.0 -422.15" fill="#745a85" fill-rule="evenodd" stroke="none"/>
    <path d="M-735.0 -422.15 L-541.2 -422.15 -528.95 -378.95 -748.0 -378.95 -735.0 -422.15" fill="#494558" fill-rule="evenodd" stroke="none"/>
    <path d="M-751.0 -376.7 L-526.0 -376.7 -539.55 -424.4 -736.65 -424.4 -751.0 -376.7 M-738.35 -426.6 L-537.9 -426.6 -523.05 -374.45 -754.05 -374.45 -738.35 -426.6" fill="#b9a5c6" fill-rule="evenodd" stroke="none"/>
    <path d="M-617.6 -350.0 L-504.9 -350.0 Q-487.6 -350.0 -487.6 -332.7 L-487.6 -312.1 Q-487.6 -294.8 -504.9 -294.8 L-617.6 -294.8 Q-634.9 -294.8 -634.9 -312.1 L-634.9 -332.7 Q-634.9 -350.0 -617.6 -350.0 M-770.5 -350.0 L-657.8 -350.0 Q-640.5 -350.0 -640.5 -332.7 L-640.5 -312.1 Q-640.5 -294.8 -657.8 -294.8 L-770.5 -294.8 Q-787.8 -294.8 -787.8 -312.1 L-787.8 -332.7 Q-787.8 -350.0 -770.5 -350.0" fill="#c5c4e9" fill-rule="evenodd" stroke="none"/>
    <path d="M-738.35 -426.6 L-537.9 -426.6 -523.05 -374.45 -754.05 -374.45 -738.35 -426.6" fill="none" stroke="#000000" stroke-linecap="round" stroke-linejoin="round" stroke-opacity="0.5019608" stroke-width="1.0"/>
    <path d="M-617.6 -350.0 L-504.9 -350.0 Q-487.6 -350.0 -487.6 -332.7 L-487.6 -312.1 Q-487.6 -294.8 -504.9 -294.8 L-617.6 -294.8 Q-634.9 -294.8 -634.9 -312.1 L-634.9 -332.7 Q-634.9 -350.0 -617.6 -350.0 M-770.5 -350.0 L-657.8 -350.0 Q-640.5 -350.0 -640.5 -332.7 L-640.5 -312.1 Q-640.5 -294.8 -657.8 -294.8 L-770.5 -294.8 Q-787.8 -294.8 -787.8 -312.1 L-787.8 -332.7 Q-787.8 -350.0 -770.5 -350.0" fill="none" stroke="#131731" stroke-linecap="round" stroke-linejoin="round" stroke-opacity="0.627451" stroke-width="1.0"/>
  </g>
</svg>
