<?xml version="1.0" encoding="UTF-8" standalone="no"?>
<svg xmlns:xlink="http://www.w3.org/1999/xlink" height="460.2px" width="313.1px" xmlns="http://www.w3.org/2000/svg">
  <g transform="matrix(1.0, 0.0, 0.0, 1.0, 478.35, 415.45)">
    <path d="M-476.45 -414.6 L-426.85 -414.6 -426.85 -364.7 -476.45 -364.7 -476.45 -414.6" fill="none" stroke="#9adbff" stroke-linecap="round" stroke-linejoin="round" stroke-opacity="0.7490196" stroke-width="1.0"/>
    <path d="M-424.25 -414.95 L-374.65 -414.95 -374.65 -365.7 -424.25 -365.7 -424.25 -414.95" fill="none" stroke="#8effb1" stroke-linecap="round" stroke-linejoin="round" stroke-opacity="0.7490196" stroke-width="1.0"/>
    <path d="M-319.85 -414.6 L-270.9 -414.6 -270.9 -366.3 -319.85 -366.3 -319.85 -414.6" fill="none" stroke="#ff98e1" stroke-linecap="round" stroke-linejoin="round" stroke-opacity="0.7490196" stroke-width="1.0"/>
    <path d="M-269.3 -357.9 L-320.85 -357.9 -320.85 -308.95 -269.3 -308.95" fill="none" stroke="#fff67b" stroke-linecap="round" stroke-linejoin="round" stroke-opacity="0.7490196" stroke-width="1.0"/>
    <path d="M-269.3 -357.9 L-269.3 -308.95 -218.4 -308.95 -218.4 -357.9 -269.3 -357.9" fill="none" stroke="#ffa258" stroke-linecap="round" stroke-linejoin="round" stroke-opacity="0.7490196" stroke-width="1.0"/>
    <path d="M-215.85 -358.55 L-166.25 -358.55 -166.25 -308.65 -215.85 -308.65 -215.85 -358.55" fill="none" stroke="#e662ff" stroke-linecap="round" stroke-linejoin="round" stroke-opacity="0.7490196" stroke-width="1.0"/>
    <path d="M-319.9 -302.55 L-269.3 -302.55 -269.3 -253.9 -319.9 -253.9 -319.9 -302.55" fill="none" stroke="#9279ff" stroke-linecap="round" stroke-linejoin="round" stroke-opacity="0.7490196" stroke-width="1.0"/>
    <path d="M-426.0 -253.3 L-477.05 -253.3 -477.05 -302.55 -426.0 -302.55 -374.95 -302.55 -374.95 -253.3 -426.0 -253.3 -426.0 -302.55" fill="none" stroke="#f1ffbd" stroke-linecap="round" stroke-linejoin="round" stroke-opacity="0.7490196" stroke-width="1.0"/>
    <path d="M-424.55 -244.85 L-377.7 -244.85 -377.7 -195.75 -424.55 -195.75 -424.55 -244.85 M-477.85 -119.4 L-426.05 -119.4 -426.05 -69.6 -477.85 -69.6 -477.85 -119.4 M-476.55 -174.5 L-426.7 -174.5 -426.7 -125.3 -476.55 -125.3 -476.55 -174.5 M-372.3 -118.75 L-321.8 -118.75 -321.8 -68.95 -372.3 -68.95 -372.3 -118.75 M-425.4 -118.1 L-372.95 -118.1 -372.95 -68.95 -425.4 -68.95 -425.4 -118.1 M-218.2 -119.4 L-219.55 -119.4 -219.55 -177.1 -165.75 -177.1 -165.75 -121.4 -165.75 -119.4 -165.75 -71.55 -218.2 -71.55 -218.2 -119.4 -218.2 -121.4 -165.75 -121.4 M-165.75 -119.4 L-218.2 -119.4 M-321.15 -118.1 L-268.05 -118.1 -268.05 -69.6 -321.15 -69.6 -321.15 -118.1 M-320.5 -64.35 L-268.7 -64.35 -268.7 -12.6 -320.5 -12.6 -320.5 -64.35 M-320.55 -5.65 L-269.95 -5.65 -269.95 44.25 -320.55 44.25 -320.55 -5.65 M-269.25 -5.65 L-218.65 -5.65 -218.65 44.25 -269.25 44.25 -269.25 -5.65" fill="none" stroke="#e59fff" stroke-linecap="round" stroke-linejoin="round" stroke-width="1.0"/>
  </g>
</svg>
