<?xml version="1.0" encoding="UTF-8" standalone="no"?>
<svg xmlns:xlink="http://www.w3.org/1999/xlink" height="31.35px" width="33.45px" xmlns="http://www.w3.org/2000/svg">
  <g transform="matrix(1.0, 0.0, 0.0, 1.0, -29.95, -29.4)">
    <path d="M52.8 34.75 L54.5 36.05 Q50.5 40.2 46.65 42.65 44.3 41.3 42.5 40.5 42.1 35.1 43.8 30.55 L45.8 31.1 Q44.0 35.6 44.4 40.45 46.25 37.65 48.55 32.15 L50.35 33.15 Q48.0 38.15 45.65 41.5 49.25 39.1 52.8 34.75 M48.7 42.25 L62.65 40.95 61.65 42.35 49.65 43.25 60.4 44.1 59.9 44.6 60.2 45.65 49.2 44.5 Q55.1 47.05 61.2 48.0 61.45 48.7 61.85 49.2 54.95 47.9 47.05 44.75 52.9 49.5 58.75 52.95 L57.25 53.55 46.7 46.1 Q49.7 50.2 54.15 54.5 L53.15 54.65 53.05 55.75 Q49.4 52.35 46.1 48.35 48.1 53.3 52.7 58.6 L52.45 60.0 Q49.3 57.4 45.55 50.45 45.75 48.2 45.35 45.4 L45.75 45.5 Q46.2 45.4 46.15 44.0 L47.55 43.45 Q47.5 42.95 47.1 42.95 L48.7 42.25 M43.5 54.3 L41.75 53.75 Q42.7 50.05 42.85 45.25 40.75 48.3 38.5 52.45 L36.8 51.7 Q38.8 47.7 41.45 44.15 38.0 46.2 33.3 49.6 L32.0 48.65 Q36.45 44.9 40.65 42.9 L40.7 42.9 Q42.75 44.4 44.7 45.2 44.3 51.2 43.5 54.3 M47.05 44.75 L46.15 44.0 47.05 44.75" fill="#000000" fill-opacity="0.84705883" fill-rule="evenodd" stroke="none"/>
    <path d="M52.8 34.75 L54.5 36.05 55.85 37.55 Q52.4 40.6 48.7 42.25 L62.65 40.95 61.65 42.35 60.4 44.1 59.9 44.6 60.2 45.65 61.2 48.0 Q61.45 48.7 61.85 49.2 54.95 47.9 47.05 44.75 52.9 49.5 58.75 52.95 L57.25 53.55 57.05 53.55 56.85 53.6 54.15 54.5 53.15 54.65 53.05 55.75 52.7 58.6 52.45 60.0 Q49.3 57.4 45.55 50.45 45.5 52.8 44.8 54.65 L43.5 54.3 41.75 53.75 Q40.05 53.25 38.5 52.45 L36.8 51.7 Q34.8 50.7 33.3 49.6 L32.0 48.65 30.7 47.65 Q33.8 44.95 40.0 42.4 40.45 41.15 41.8 40.3 L41.85 40.25 Q40.8 35.0 42.3 30.15 L43.8 30.55 45.8 31.1 48.55 32.15 50.35 33.15 Q51.75 33.85 52.8 34.75 M47.1 42.95 L48.7 42.25 M46.65 42.65 L47.1 42.95 Q47.5 42.95 47.55 43.45 L46.15 44.0 47.05 44.75 M41.85 40.25 L42.5 40.5 Q44.3 41.3 46.65 42.65 M44.7 45.2 Q42.75 44.4 40.7 42.9 L40.65 42.9 40.0 42.4 M45.35 45.4 L44.7 45.2 M46.15 44.0 Q46.2 45.4 45.75 45.5 L45.35 45.4 Q45.75 48.2 45.55 50.45" fill="none" stroke="#000000" stroke-linecap="round" stroke-linejoin="round" stroke-width="1.5"/>
  </g>
</svg>
