<?xml version="1.0" encoding="UTF-8" standalone="no"?>
<svg xmlns:xlink="http://www.w3.org/1999/xlink" height="56.85px" width="43.5px" xmlns="http://www.w3.org/2000/svg">
  <g transform="matrix(1.0, 0.0, 0.0, 1.0, 21.75, 23.6)">
    <path d="M-14.75 -23.1 L14.75 -23.1 Q21.25 -23.1 21.25 -16.6 L21.25 26.25 Q21.25 32.75 14.75 32.75 L-14.75 32.75 Q-21.25 32.75 -21.25 26.25 L-21.25 -16.6 Q-21.25 -23.1 -14.75 -23.1" fill="#f9e2ff" fill-opacity="0.80784315" fill-rule="evenodd" stroke="none"/>
    <path d="M-14.75 -23.1 L14.75 -23.1 Q21.25 -23.1 21.25 -16.6 L21.25 26.25 Q21.25 32.75 14.75 32.75 L-14.75 32.75 Q-21.25 32.75 -21.25 26.25 L-21.25 -16.6 Q-21.25 -23.1 -14.75 -23.1 Z" fill="none" stroke="#000000" stroke-linecap="round" stroke-linejoin="round" stroke-opacity="0.8784314" stroke-width="1.0"/>
    <path d="M-5.05 -12.85 L8.2 -0.5 -5.05 12.65 -5.05 -12.85" fill="#303677" fill-rule="evenodd" stroke="none"/>
    <path d="M-5.05 -12.85 L-5.05 12.65 8.2 -0.5 -5.05 -12.85 Z" fill="none" stroke="#000000" stroke-linecap="round" stroke-linejoin="round" stroke-opacity="0.8784314" stroke-width="1.0"/>
  </g>
</svg>
