<?xml version="1.0" encoding="UTF-8" standalone="no"?>
<svg xmlns:xlink="http://www.w3.org/1999/xlink" height="575.75px" width="614.65px" xmlns="http://www.w3.org/2000/svg">
  <g transform="matrix(1.0, 0.0, 0.0, 1.0, 723.1, 460.05)">
    <path d="M-108.95 -355.95 L-108.95 115.0 -177.4 115.0 -177.4 -355.95 -108.95 -355.95" fill="#9198d7" fill-rule="evenodd" stroke="none"/>
    <path d="M-177.4 -459.35 L-108.95 -459.35 -108.95 -355.95 -177.4 -355.95 -177.4 -459.35" fill="#a4acf3" fill-rule="evenodd" stroke="none"/>
    <path d="M-460.05 -459.35 L-177.4 -459.35 -177.4 -355.95 -460.05 -355.95 -460.05 -459.35" fill="url(#gradient0)" fill-rule="evenodd" stroke="none"/>
    <path d="M-177.4 115.0 L-722.4 115.0 -722.4 -355.95 -460.05 -355.95 -177.4 -355.95 -177.4 115.0" fill="url(#gradient1)" fill-rule="evenodd" stroke="none"/>
    <path d="M-722.4 -355.95 L-722.4 -459.35 -460.05 -459.35 -460.05 -355.95 -722.4 -355.95" fill="url(#gradient2)" fill-rule="evenodd" stroke="none"/>
    <path d="M-177.4 -459.35 L-108.95 -459.35 -108.95 -355.95 -108.95 115.0 -177.4 115.0 -722.4 115.0 M-722.4 -459.35 L-460.05 -459.35 -177.4 -459.35 -177.4 -355.95 -108.95 -355.95 M-177.4 -355.95 L-460.05 -355.95 -722.4 -355.95 M-177.4 115.0 L-177.4 -355.95" fill="none" stroke="#142098" stroke-linecap="round" stroke-linejoin="round" stroke-opacity="0.5294118" stroke-width="1.0"/>
    <path d="M-722.4 115.0 L-722.4 -355.95 -722.4 -459.35" fill="none" stroke="#101979" stroke-linecap="round" stroke-linejoin="round" stroke-opacity="0.7764706" stroke-width="1.4000000000000001"/>
  </g>
  <defs>
    <linearGradient gradientTransform="matrix(0.0, 0.0345, -0.376, 0.0, -485.35, -388.65)" gradientUnits="userSpaceOnUse" id="gradient0" spreadMethod="pad" x1="-819.2" x2="819.2">
      <stop offset="0.0" stop-color="#bfc1f0" stop-opacity="0.8980392"/>
      <stop offset="1.0" stop-color="#d9dfff" stop-opacity="0.8980392"/>
    </linearGradient>
    <linearGradient gradientTransform="matrix(0.0, 0.2874, -0.3326, 0.0, -449.9, -120.5)" gradientUnits="userSpaceOnUse" id="gradient1" spreadMethod="pad" x1="-819.2" x2="819.2">
      <stop offset="0.0" stop-color="#6873b4" stop-opacity="0.8980392"/>
      <stop offset="1.0" stop-color="#6c6bb1" stop-opacity="0.8980392"/>
    </linearGradient>
    <linearGradient gradientTransform="matrix(0.0, 0.0345, -0.376, 0.0, -414.35, -388.65)" gradientUnits="userSpaceOnUse" id="gradient2" spreadMethod="pad" x1="-819.2" x2="819.2">
      <stop offset="0.0" stop-color="#bfc1f0" stop-opacity="0.8980392"/>
      <stop offset="1.0" stop-color="#d9dfff" stop-opacity="0.8980392"/>
    </linearGradient>
  </defs>
</svg>
