<?xml version="1.0" encoding="UTF-8" standalone="no"?>
<svg xmlns:xlink="http://www.w3.org/1999/xlink" height="567.65px" width="988.65px" xmlns="http://www.w3.org/2000/svg">
  <g transform="matrix(1.0, 0.0, 0.0, 1.0, 1095.35, 315.9)">
    <path d="M-1095.35 -315.9 L-106.7 -315.9 -106.7 251.75 -1095.35 251.75 -1095.35 -315.9" fill="#14142e" fill-opacity="0.54901963" fill-rule="evenodd" stroke="none"/>
    <path d="M-817.4 -86.8 L-817.4 -126.65 Q-817.4 -135.45 -811.15 -141.7 -804.9 -147.95 -796.1 -147.95 L-406.5 -147.95 Q-397.7 -147.95 -391.45 -141.7 -385.2 -135.45 -385.2 -126.65 L-385.2 -86.8 -817.4 -86.8" fill="url(#gradient0)" fill-rule="evenodd" stroke="none"/>
    <path d="M-385.2 -86.8 L-385.2 63.2 Q-385.2 72.0 -391.45 78.25 -397.7 84.5 -406.5 84.5 L-796.1 84.5 Q-804.9 84.5 -811.15 78.25 -817.4 72.0 -817.4 63.2 L-817.4 -86.8 -385.2 -86.8" fill="url(#gradient1)" fill-rule="evenodd" stroke="none"/>
    <path d="M-817.4 -86.8 L-817.4 -126.65 Q-817.4 -135.45 -811.15 -141.7 -804.9 -147.95 -796.1 -147.95 L-406.5 -147.95 Q-397.7 -147.95 -391.45 -141.7 -385.2 -135.45 -385.2 -126.65 L-385.2 -86.8 -385.2 63.2 Q-385.2 72.0 -391.45 78.25 -397.7 84.5 -406.5 84.5 L-796.1 84.5 Q-804.9 84.5 -811.15 78.25 -817.4 72.0 -817.4 63.2 L-817.4 -86.8 -385.2 -86.8" fill="none" stroke="#101979" stroke-linecap="round" stroke-linejoin="round" stroke-opacity="0.7764706" stroke-width="1.4000000000000001"/>
    <path d="M-739.2 -140.0 L-467.95 -140.0 Q-458.0 -140.0 -451.0 -133.0 -443.95 -125.95 -443.95 -116.0 -443.95 -106.05 -451.0 -99.05 -458.0 -92.0 -467.95 -92.0 L-739.2 -92.0 Q-749.15 -92.0 -756.2 -99.05 -763.2 -106.05 -763.2 -116.0 -763.2 -125.95 -756.2 -133.0 -749.15 -140.0 -739.2 -140.0" fill="#3954b2" fill-opacity="0.14901961" fill-rule="evenodd" stroke="none"/>
  </g>
  <defs>
    <linearGradient gradientTransform="matrix(0.0, 0.0373, -0.2638, 0.0, -601.3, -117.4)" gradientUnits="userSpaceOnUse" id="gradient0" spreadMethod="pad" x1="-819.2" x2="819.2">
      <stop offset="0.0" stop-color="#bfc1f0" stop-opacity="0.8980392"/>
      <stop offset="1.0" stop-color="#d9dfff" stop-opacity="0.8980392"/>
    </linearGradient>
    <linearGradient gradientTransform="matrix(0.0, 0.1031, -0.2638, 0.0, -601.3, 1.95)" gradientUnits="userSpaceOnUse" id="gradient1" spreadMethod="pad" x1="-819.2" x2="819.2">
      <stop offset="0.0" stop-color="#b7c2f3" stop-opacity="0.8980392"/>
      <stop offset="1.0" stop-color="#9fa2e5" stop-opacity="0.8980392"/>
    </linearGradient>
  </defs>
</svg>
