<?xml version="1.0" encoding="UTF-8" standalone="no"?>
<svg xmlns:xlink="http://www.w3.org/1999/xlink" height="66.3px" width="385.45px" xmlns="http://www.w3.org/2000/svg">
  <g transform="matrix(1.0, 0.0, 0.0, 1.0, 865.25, -91.5)">
    <path d="M-652.6 92.5 L-495.0 92.5 Q-480.8 92.5 -480.8 106.7 L-480.8 142.65 Q-480.8 156.8 -495.0 156.8 L-652.6 156.8 Q-666.8 156.8 -666.8 142.65 L-666.8 106.7 Q-666.8 92.5 -652.6 92.5" fill="url(#gradient0)" fill-rule="evenodd" stroke="none"/>
    <path d="M-850.05 92.5 L-692.45 92.5 Q-678.25 92.5 -678.25 106.7 L-678.25 142.65 Q-678.25 156.8 -692.45 156.8 L-850.05 156.8 Q-864.25 156.8 -864.25 142.65 L-864.25 106.7 Q-864.25 92.5 -850.05 92.5" fill="url(#gradient1)" fill-rule="evenodd" stroke="none"/>
    <path d="M-652.6 92.5 L-495.0 92.5 Q-480.8 92.5 -480.8 106.7 L-480.8 142.65 Q-480.8 156.8 -495.0 156.8 L-652.6 156.8 Q-666.8 156.8 -666.8 142.65 L-666.8 106.7 Q-666.8 92.5 -652.6 92.5 M-850.05 92.5 L-692.45 92.5 Q-678.25 92.5 -678.25 106.7 L-678.25 142.65 Q-678.25 156.8 -692.45 156.8 L-850.05 156.8 Q-864.25 156.8 -864.25 142.65 L-864.25 106.7 Q-864.25 92.5 -850.05 92.5" fill="none" stroke="#29195b" stroke-linecap="round" stroke-linejoin="round" stroke-opacity="0.40784314" stroke-width="2.0"/>
  </g>
  <defs>
    <linearGradient gradientTransform="matrix(0.0, 0.0343, -0.1135, 0.0, -573.8, 124.25)" gradientUnits="userSpaceOnUse" id="gradient0" spreadMethod="pad" x1="-819.2" x2="819.2">
      <stop offset="0.0" stop-color="#c0bbff"/>
      <stop offset="1.0" stop-color="#cdd2ff"/>
    </linearGradient>
    <linearGradient gradientTransform="matrix(0.0, 0.0343, -0.1135, 0.0, -771.25, 124.25)" gradientUnits="userSpaceOnUse" id="gradient1" spreadMethod="pad" x1="-819.2" x2="819.2">
      <stop offset="0.0" stop-color="#a6a5cb"/>
      <stop offset="1.0" stop-color="#a3abd9"/>
    </linearGradient>
  </defs>
</svg>
