<?xml version="1.0" encoding="UTF-8" standalone="no"?>
<svg xmlns:xlink="http://www.w3.org/1999/xlink" height="567.65px" width="988.65px" xmlns="http://www.w3.org/2000/svg">
  <g transform="matrix(1.0, 0.0, 0.0, 1.0, 322.3, 56.45)">
    <path d="M-322.3 -56.45 L666.35 -56.45 666.35 511.2 -322.3 511.2 -322.3 -56.45" fill="#14142e" fill-opacity="0.54901963" fill-rule="evenodd" stroke="none"/>
    <path d="M412.35 88.85 L527.0 88.85 Q535.8 88.85 542.05 95.1 548.3 101.35 548.3 110.15 L548.3 150.0 412.35 150.0 412.35 88.85" fill="url(#gradient0)" fill-rule="evenodd" stroke="none"/>
    <path d="M378.95 88.85 L412.35 88.85 412.35 150.0 378.95 150.0 378.95 88.85" fill="url(#gradient1)" fill-rule="evenodd" stroke="none"/>
    <path d="M548.3 150.0 L548.3 322.8 Q548.3 331.6 542.05 337.85 535.8 344.1 527.0 344.1 L378.95 344.1 378.95 150.0 412.35 150.0 548.3 150.0" fill="url(#gradient2)" fill-rule="evenodd" stroke="none"/>
    <path d="M-70.4 88.85 L378.95 88.85 378.95 150.0 -70.4 150.0 -70.4 88.85" fill="url(#gradient3)" fill-rule="evenodd" stroke="none"/>
    <path d="M378.95 344.1 L-70.4 344.1 -70.4 150.0 378.95 150.0 378.95 344.1" fill="url(#gradient4)" fill-rule="evenodd" stroke="none"/>
    <path d="M-210.25 150.0 L-210.25 110.15 Q-210.25 101.35 -204.0 95.1 -197.75 88.85 -188.95 88.85 L-70.4 88.85 -70.4 150.0 -210.25 150.0" fill="url(#gradient5)" fill-rule="evenodd" stroke="none"/>
    <path d="M-70.4 344.1 L-188.95 344.1 Q-197.75 344.1 -204.0 337.85 -210.25 331.6 -210.25 322.8 L-210.25 150.0 -70.4 150.0 -70.4 344.1" fill="url(#gradient6)" fill-rule="evenodd" stroke="none"/>
    <path d="M412.35 88.85 L527.0 88.85 Q535.8 88.85 542.05 95.1 548.3 101.35 548.3 110.15 L548.3 150.0 548.3 322.8 Q548.3 331.6 542.05 337.85 535.8 344.1 527.0 344.1 L378.95 344.1 -70.4 344.1 -188.95 344.1 Q-197.75 344.1 -204.0 337.85 -210.25 331.6 -210.25 322.8 L-210.25 150.0 -210.25 110.15 Q-210.25 101.35 -204.0 95.1 -197.75 88.85 -188.95 88.85 L-70.4 88.85 378.95 88.85 412.35 88.85 M412.35 150.0 L548.3 150.0 M378.95 150.0 L412.35 150.0 M378.95 150.0 L-70.4 150.0 -210.25 150.0" fill="none" stroke="#101979" stroke-linecap="round" stroke-linejoin="round" stroke-opacity="0.7764706" stroke-width="1.4000000000000001"/>
    <path d="M392.85 255.45 L392.85 182.7 464.1 182.7 464.1 255.45 392.85 255.45 M317.0 332.7 L317.0 259.95 388.25 259.95 388.25 332.7 317.0 332.7 M392.85 332.7 L392.85 259.95 464.1 259.95 464.1 332.7 392.85 332.7 M467.85 332.7 L467.85 259.95 539.1 259.95 539.1 332.7 467.85 332.7 M467.85 255.45 L467.85 182.7 539.1 182.7 539.1 255.45 467.85 255.45 M317.0 255.45 L317.0 182.7 388.25 182.7 388.25 255.45 317.0 255.45 M241.75 255.45 L241.75 182.7 313.0 182.7 313.0 255.45 241.75 255.45 M241.75 332.7 L241.75 259.95 313.0 259.95 313.0 332.7 241.75 332.7" fill="#69649a" fill-rule="evenodd" stroke="none"/>
    <path d="M392.85 255.45 L392.85 182.7 464.1 182.7 464.1 255.45 392.85 255.45 M317.0 332.7 L317.0 259.95 388.25 259.95 388.25 332.7 317.0 332.7 M392.85 332.7 L392.85 259.95 464.1 259.95 464.1 332.7 392.85 332.7 M467.85 332.7 L467.85 259.95 539.1 259.95 539.1 332.7 467.85 332.7 M467.85 255.45 L467.85 182.7 539.1 182.7 539.1 255.45 467.85 255.45 M317.0 255.45 L317.0 182.7 388.25 182.7 388.25 255.45 317.0 255.45 M241.75 255.45 L241.75 182.7 313.0 182.7 313.0 255.45 241.75 255.45 M241.75 332.7 L241.75 259.95 313.0 259.95 313.0 332.7 241.75 332.7" fill="none" stroke="#101979" stroke-linecap="round" stroke-linejoin="round" stroke-opacity="0.7764706" stroke-width="1.4000000000000001"/>
  </g>
  <defs>
    <linearGradient gradientTransform="matrix(0.0, 0.0373, -0.2638, 0.0, 332.2, 119.4)" gradientUnits="userSpaceOnUse" id="gradient0" spreadMethod="pad" x1="-819.2" x2="819.2">
      <stop offset="0.0" stop-color="#bfc1f0" stop-opacity="0.8980392"/>
      <stop offset="1.0" stop-color="#d9dfff" stop-opacity="0.8980392"/>
    </linearGradient>
    <linearGradient gradientTransform="matrix(0.0, 0.0373, -4.3044, 0.0, -115.5, 119.4)" gradientUnits="userSpaceOnUse" id="gradient1" spreadMethod="pad" x1="-819.2" x2="819.2">
      <stop offset="0.0" stop-color="#bfc1f0" stop-opacity="0.8980392"/>
      <stop offset="1.0" stop-color="#d9dfff" stop-opacity="0.8980392"/>
    </linearGradient>
    <linearGradient gradientTransform="matrix(0.0, 0.1185, -0.3455, 0.0, 265.25, 247.05)" gradientUnits="userSpaceOnUse" id="gradient2" spreadMethod="pad" x1="-819.2" x2="819.2">
      <stop offset="0.0" stop-color="#b7c2f3" stop-opacity="0.8980392"/>
      <stop offset="1.0" stop-color="#9fa2e5" stop-opacity="0.8980392"/>
    </linearGradient>
    <linearGradient gradientTransform="matrix(0.0, 0.0373, -124.3865, 0.0, -13182.6, 119.4)" gradientUnits="userSpaceOnUse" id="gradient3" spreadMethod="pad" x1="-819.2" x2="819.2">
      <stop offset="0.0" stop-color="#bfc1f0" stop-opacity="0.8980392"/>
      <stop offset="1.0" stop-color="#d9dfff" stop-opacity="0.8980392"/>
    </linearGradient>
    <linearGradient gradientTransform="matrix(0.0, 0.1185, -9.9846, 0.0, -2179.9, 247.05)" gradientUnits="userSpaceOnUse" id="gradient4" spreadMethod="pad" x1="-819.2" x2="819.2">
      <stop offset="0.0" stop-color="#b7c2f3" stop-opacity="0.8980392"/>
      <stop offset="1.0" stop-color="#9fa2e5" stop-opacity="0.8980392"/>
    </linearGradient>
    <linearGradient gradientTransform="matrix(0.0, 0.0373, -0.2638, 0.0, 5.85, 119.4)" gradientUnits="userSpaceOnUse" id="gradient5" spreadMethod="pad" x1="-819.2" x2="819.2">
      <stop offset="0.0" stop-color="#bfc1f0" stop-opacity="0.8980392"/>
      <stop offset="1.0" stop-color="#d9dfff" stop-opacity="0.8980392"/>
    </linearGradient>
    <linearGradient gradientTransform="matrix(0.0, 0.1185, -0.3455, 0.0, 72.8, 247.05)" gradientUnits="userSpaceOnUse" id="gradient6" spreadMethod="pad" x1="-819.2" x2="819.2">
      <stop offset="0.0" stop-color="#b7c2f3" stop-opacity="0.8980392"/>
      <stop offset="1.0" stop-color="#9fa2e5" stop-opacity="0.8980392"/>
    </linearGradient>
  </defs>
</svg>
