<?xml version="1.0" encoding="UTF-8" standalone="no"?>
<svg xmlns:xlink="http://www.w3.org/1999/xlink" height="62.45px" width="143.85px" xmlns="http://www.w3.org/2000/svg">
  <g transform="matrix(1.0, 0.0, 0.0, 1.0, 71.95, 31.2)">
    <path d="M-71.25 27.45 L-71.25 -30.5 0.0 -30.5 71.2 -30.5 71.2 27.45 0.0 27.45 -71.25 27.45 M0.0 -30.5 L0.0 27.45 0.0 -30.5" fill="#7974b1" fill-rule="evenodd" stroke="none"/>
    <path d="M71.2 27.45 L71.2 30.55 0.0 30.55 -71.25 30.55 -71.25 27.45 0.0 27.45 0.0 30.55 0.0 27.45 71.2 27.45" fill="#aca5fc" fill-rule="evenodd" stroke="none"/>
    <path d="M-71.25 27.45 L-71.25 -30.5 0.0 -30.5 71.2 -30.5 71.2 27.45 71.2 30.55 0.0 30.55 -71.25 30.55 -71.25 27.45 M0.0 27.45 L0.0 -30.5 M0.0 30.55 L0.0 27.45" fill="none" stroke="#101979" stroke-linecap="round" stroke-linejoin="round" stroke-opacity="0.7764706" stroke-width="1.4000000000000001"/>
    <path d="M36.25 17.95 Q34.6 17.95 33.55 16.85 32.5 15.8 32.5 14.15 L32.5 4.35 22.65 4.35 Q21.0 4.35 20.0 3.2 18.9 2.15 18.9 0.5 18.9 -1.15 20.0 -2.15 21.0 -3.25 22.65 -3.25 L32.5 -3.25 32.5 -13.1 Q32.5 -14.6 33.6 -15.75 34.75 -16.85 36.25 -16.85 37.85 -16.85 38.9 -15.75 40.0 -14.7 40.0 -13.1 L40.0 -3.25 49.85 -3.25 Q51.4 -3.25 52.5 -2.15 53.65 -1.0 53.65 0.6 53.65 2.15 52.5 3.2 51.4 4.35 49.85 4.35 L40.0 4.35 40.0 14.15 Q40.0 15.8 38.9 16.85 37.85 17.95 36.25 17.95 M-44.15 4.25 Q-45.8 4.25 -46.85 3.25 -47.9 2.2 -47.9 0.6 -47.9 -1.0 -46.85 -2.1 -45.8 -3.2 -44.15 -3.2 L-27.75 -3.2 Q-26.15 -3.2 -25.1 -2.1 -24.1 -1.0 -24.1 0.6 -24.1 2.2 -25.1 3.25 -26.15 4.25 -27.75 4.25 L-44.15 4.25" fill="#e4deff" fill-rule="evenodd" stroke="none"/>
    <path d="M36.25 17.95 Q34.6 17.95 33.55 16.85 32.5 15.8 32.5 14.15 L32.5 4.35 22.65 4.35 Q21.0 4.35 20.0 3.2 18.9 2.15 18.9 0.5 18.9 -1.15 20.0 -2.15 21.0 -3.25 22.65 -3.25 L32.5 -3.25 32.5 -13.1 Q32.5 -14.6 33.6 -15.75 34.75 -16.85 36.25 -16.85 37.85 -16.85 38.9 -15.75 40.0 -14.7 40.0 -13.1 L40.0 -3.25 49.85 -3.25 Q51.4 -3.25 52.5 -2.15 53.65 -1.0 53.65 0.6 53.65 2.15 52.5 3.2 51.4 4.35 49.85 4.35 L40.0 4.35 40.0 14.15 Q40.0 15.8 38.9 16.85 37.85 17.95 36.25 17.95 M-44.15 4.25 Q-45.8 4.25 -46.85 3.25 -47.9 2.2 -47.9 0.6 -47.9 -1.0 -46.85 -2.1 -45.8 -3.2 -44.15 -3.2 L-27.75 -3.2 Q-26.15 -3.2 -25.1 -2.1 -24.1 -1.0 -24.1 0.6 -24.1 2.2 -25.1 3.25 -26.15 4.25 -27.75 4.25 L-44.15 4.25" fill="none" stroke="#101979" stroke-linecap="round" stroke-linejoin="round" stroke-opacity="0.7764706" stroke-width="1.4000000000000001"/>
  </g>
</svg>
