<?xml version="1.0" encoding="UTF-8" standalone="no"?>
<svg xmlns:xlink="http://www.w3.org/1999/xlink" height="237.15px" width="645.6px" xmlns="http://www.w3.org/2000/svg">
  <g transform="matrix(1.0, 0.0, 0.0, 1.0, 198.5, -96.8)">
    <path d="M-174.5 96.8 L423.1 96.8 Q433.05 96.8 440.05 103.8 447.1 110.85 447.1 120.8 447.1 130.75 440.05 137.75 433.05 144.8 423.1 144.8 L-174.5 144.8 Q-184.45 144.8 -191.5 137.75 -198.5 130.75 -198.5 120.8 -198.5 110.85 -191.5 103.8 -184.45 96.8 -174.5 96.8" fill="#3954b2" fill-opacity="0.14901961" fill-rule="evenodd" stroke="none"/>
    <path d="M28.95 267.7 L198.35 267.7 198.35 333.25 28.95 333.25 28.95 267.7" fill="#5c5887" fill-rule="evenodd" stroke="none"/>
    <path d="M28.95 267.7 L198.35 267.7 198.35 333.25 28.95 333.25 28.95 267.7 Z" fill="none" stroke="#101979" stroke-linecap="round" stroke-linejoin="round" stroke-opacity="0.7764706" stroke-width="1.4000000000000001"/>
  </g>
</svg>
