<?xml version="1.0" encoding="UTF-8" standalone="no"?>
<svg xmlns:xlink="http://www.w3.org/1999/xlink" height="80.2px" width="529.05px" xmlns="http://www.w3.org/2000/svg">
  <g transform="matrix(1.0, 0.0, 0.0, 1.0, 263.95, 40.05)">
    <path d="M224.95 -40.05 Q241.6 -40.05 253.3 -28.3 265.1 -16.6 265.1 0.0 265.1 16.65 253.3 28.4 241.6 40.15 224.95 40.15 L-223.85 40.15 Q-240.5 40.15 -252.25 28.4 -263.95 16.65 -263.95 0.0 -263.95 -16.6 -252.25 -28.3 -240.5 -40.05 -223.85 -40.05 L224.95 -40.05" fill="#b8d5f5" fill-opacity="0.70980394" fill-rule="evenodd" stroke="none"/>
    <path d="M-223.85 -36.55 L224.95 -36.55 Q240.15 -36.55 250.8 -25.85 261.6 -15.15 261.6 0.0 261.6 15.2 250.8 25.9 240.15 36.65 224.95 36.65 L-223.85 36.65 Q-239.05 36.65 -249.8 25.9 -260.45 15.2 -260.45 0.0 -260.45 -15.15 -249.8 -25.85 -239.05 -36.55 -223.85 -36.55" fill="url(#gradient0)" fill-rule="evenodd" stroke="none"/>
    <path d="M-223.85 -36.55 L224.95 -36.55 Q240.15 -36.55 250.8 -25.85 261.6 -15.15 261.6 0.0 261.6 15.2 250.8 25.9 240.15 36.65 224.95 36.65 L-223.85 36.65 Q-239.05 36.65 -249.8 25.9 -260.45 15.2 -260.45 0.0 -260.45 -15.15 -249.8 -25.85 -239.05 -36.55 -223.85 -36.55 Z" fill="none" stroke="#3c4772" stroke-linecap="round" stroke-linejoin="round" stroke-opacity="0.69803923" stroke-width="3.0"/>
  </g>
  <defs>
    <linearGradient gradientTransform="matrix(0.0, -0.0411, 0.3186, 0.0, 0.55, 1.25)" gradientUnits="userSpaceOnUse" id="gradient0" spreadMethod="pad" x1="-819.2" x2="819.2">
      <stop offset="0.0" stop-color="#dae7f3"/>
      <stop offset="1.0" stop-color="#d8d8f3"/>
    </linearGradient>
  </defs>
</svg>
