<?xml version="1.0" encoding="UTF-8" standalone="no"?>
<svg xmlns:xlink="http://www.w3.org/1999/xlink" height="30.05px" width="54.7px" xmlns="http://www.w3.org/2000/svg">
  <g transform="matrix(1.0, 0.0, 0.0, 1.0, 53.5, 15.5)">
    <path d="M-35.3 -9.4 L-38.1 -11.7 Q-44.7 -16.9 -50.45 -12.45 -55.05 -8.9 -49.45 -1.7 L-47.75 0.3 -46.65 1.55 -46.05 2.1 -41.9 5.7 Q-37.9 8.8 -33.2 10.6 -27.8 12.8 -21.65 13.35 L-8.8 12.85 Q-0.5 11.5 0.0 7.9 1.65 -0.15 -10.6 -0.55 L-15.85 -0.85 Q-19.9 -1.35 -23.85 -2.75 -27.3 -4.05 -30.8 -6.15 -33.15 -7.6 -35.3 -9.4 Z" fill="none" stroke="#000000" stroke-linecap="round" stroke-linejoin="round" stroke-width="2.0"/>
  </g>
</svg>
