<?xml version="1.0" encoding="UTF-8" standalone="no"?>
<svg xmlns:xlink="http://www.w3.org/1999/xlink" height="565.65px" width="984.4px" xmlns="http://www.w3.org/2000/svg">
  <g transform="matrix(1.0, 0.0, 0.0, 1.0, 1155.35, 198.45)">
    <path d="M-354.95 -198.45 L-170.95 -198.45 -170.95 78.05 -354.95 78.05 -354.95 -198.45 M-170.95 142.05 L-170.95 367.2 -354.95 367.2 -354.95 142.05 -170.95 142.05" fill="#5b678a" fill-opacity="0.9098039" fill-rule="evenodd" stroke="none"/>
    <path d="M-354.95 367.2 L-1155.35 367.2 -1155.35 -198.45 -354.95 -198.45 -354.95 78.05 -354.95 142.05 -354.95 367.2" fill="#262643" fill-opacity="0.9098039" fill-rule="evenodd" stroke="none"/>
    <path d="M-170.95 78.05 L-170.95 142.05 -354.95 142.05 -354.95 78.05 -170.95 78.05" fill="#c2c6ee" fill-opacity="0.9098039" fill-rule="evenodd" stroke="none"/>
    <path d="M-354.95 -198.45 L-170.95 -198.45 -170.95 78.05 -170.95 142.05 -170.95 367.2 -354.95 367.2 -354.95 142.05 -170.95 142.05 M-354.95 -198.45 L-354.95 78.05 -170.95 78.05 M-354.95 142.05 L-354.95 78.05" fill="none" stroke="#7ba0bb" stroke-linecap="round" stroke-linejoin="round" stroke-width="0.05"/>
  </g>
</svg>
