<?xml version="1.0" encoding="UTF-8" standalone="no"?>
<svg xmlns:xlink="http://www.w3.org/1999/xlink" height="172.85px" width="104.85px" xmlns="http://www.w3.org/2000/svg">
  <g transform="matrix(1.0, 0.0, 0.0, 1.0, 50.9, 80.25)">
    <path d="M39.4 -76.05 Q48.75 -76.05 48.75 -66.7 L48.75 77.2 Q48.75 86.45 39.4 86.45 L-36.45 86.45 Q-45.75 86.45 -45.75 77.2 L-45.75 -66.7 Q-45.75 -76.05 -36.45 -76.05 L39.4 -76.05" fill="#d4d6ff" fill-rule="evenodd" stroke="none"/>
    <path d="M39.4 -76.05 L-36.45 -76.05 Q-45.75 -76.05 -45.75 -66.7 L-45.75 77.2 Q-45.75 86.45 -36.45 86.45 L39.4 86.45 Q48.75 86.45 48.75 77.2 L48.75 -66.7 Q48.75 -76.05 39.4 -76.05 M-36.45 -79.5 L39.4 -79.5 Q53.2 -79.5 53.2 -65.75 L53.2 78.1 Q53.2 91.85 39.4 91.85 L-36.45 91.85 Q-50.15 91.85 -50.15 78.1 L-50.15 -65.75 Q-50.15 -79.5 -36.45 -79.5" fill="#9b9adb" fill-rule="evenodd" stroke="none"/>
    <path d="M-36.45 -79.5 L39.4 -79.5 Q53.2 -79.5 53.2 -65.75 L53.2 78.1 Q53.2 91.85 39.4 91.85 L-36.45 91.85 Q-50.15 91.85 -50.15 78.1 L-50.15 -65.75 Q-50.15 -79.5 -36.45 -79.5 Z" fill="none" stroke="#323958" stroke-linecap="round" stroke-linejoin="round" stroke-width="1.5"/>
    <path d="M16.2 3.65 Q16.7 3.85 16.85 4.65 L16.85 4.7 16.85 5.6 16.85 5.75 16.25 6.6 16.25 6.65 1.05 20.65 1.0 20.65 -0.5 21.15 Q-1.45 21.15 -1.9 20.55 L-2.0 20.5 Q-2.45 19.9 -2.45 19.0 -2.45 18.05 -1.75 17.55 L-1.8 17.55 11.75 5.1 -1.9 -8.15 Q-2.45 -8.8 -2.45 -9.65 -2.45 -10.5 -1.9 -11.05 -1.45 -11.8 -0.5 -11.8 0.4 -11.8 1.05 -11.15 L16.2 3.65" fill="#3a3d74" fill-opacity="0.8980392" fill-rule="evenodd" stroke="none"/>
    <path d="M-3.8 2.05 Q-2.7 3.2 -2.7 4.75 -2.7 6.35 -3.8 7.45 -4.9 8.5 -6.45 8.5 -8.0 8.5 -9.15 7.5 L-9.15 7.45 Q-10.2 6.35 -10.2 4.75 -10.2 3.2 -9.15 2.05 -8.0 1.0 -6.45 1.0 -4.9 1.0 -3.8 2.05" fill="#3a3d74" fill-opacity="0.8980392" fill-rule="evenodd" stroke="none"/>
  </g>
</svg>
