<?xml version="1.0" encoding="UTF-8" standalone="no"?>
<svg xmlns:xlink="http://www.w3.org/1999/xlink" height="37.3px" width="62.45px" xmlns="http://www.w3.org/2000/svg">
  <g transform="matrix(1.0, 0.0, 0.0, 1.0, 47.75, 18.7)">
    <path d="M-42.35 -18.2 L9.3 -18.2 Q14.2 -18.2 14.2 -13.5 L14.2 13.4 Q14.2 18.1 9.3 18.1 L-42.35 18.1 Q-47.25 18.1 -47.25 13.4 L-47.25 -13.5 Q-47.25 -18.2 -42.35 -18.2 M-45.65 -13.9 L-45.65 13.0 Q-45.6 16.05 -42.35 16.05 L9.3 16.05 Q12.55 16.05 12.6 13.0 L12.6 -13.9 Q12.55 -16.9 9.3 -16.9 L-42.35 -16.9 Q-45.6 -16.9 -45.65 -13.9" fill="#afb1ec" fill-opacity="0.827451" fill-rule="evenodd" stroke="none"/>
    <path d="M-45.65 -13.9 Q-45.6 -16.9 -42.35 -16.9 L9.3 -16.9 Q12.55 -16.9 12.6 -13.9 L12.6 13.0 Q12.55 16.05 9.3 16.05 L-42.35 16.05 Q-45.6 16.05 -45.65 13.0 L-45.65 -13.9" fill="#dedbff" fill-opacity="0.8980392" fill-rule="evenodd" stroke="none"/>
    <path d="M-42.35 -18.2 L9.3 -18.2 Q14.2 -18.2 14.2 -13.5 L14.2 13.4 Q14.2 18.1 9.3 18.1 L-42.35 18.1 Q-47.25 18.1 -47.25 13.4 L-47.25 -13.5 Q-47.25 -18.2 -42.35 -18.2 Z" fill="none" stroke="#182a43" stroke-linecap="round" stroke-linejoin="round" stroke-opacity="0.54901963" stroke-width="1.0"/>
  </g>
</svg>
