<?xml version="1.0" encoding="UTF-8" standalone="no"?>
<svg xmlns:xlink="http://www.w3.org/1999/xlink" height="37.3px" width="43.35px" xmlns="http://www.w3.org/2000/svg">
  <g transform="matrix(1.0, 0.0, 0.0, 1.0, 21.7, 18.65)">
    <path d="M-16.3 -18.15 L16.25 -18.15 Q21.15 -18.15 21.15 -13.45 L21.15 13.45 Q21.15 18.15 16.25 18.15 L-16.3 18.15 Q-21.2 18.15 -21.2 13.45 L-21.2 -13.45 Q-21.2 -18.15 -16.3 -18.15 M-19.6 -13.85 L-19.6 13.05 Q-19.55 16.1 -16.3 16.1 L16.25 16.1 Q19.5 16.1 19.55 13.05 L19.55 -13.85 Q19.5 -16.85 16.25 -16.85 L-16.3 -16.85 Q-19.55 -16.85 -19.6 -13.85" fill="#afb1ec" fill-opacity="0.827451" fill-rule="evenodd" stroke="none"/>
    <path d="M-19.6 -13.85 Q-19.55 -16.85 -16.3 -16.85 L16.25 -16.85 Q19.5 -16.85 19.55 -13.85 L19.55 13.05 Q19.5 16.1 16.25 16.1 L-16.3 16.1 Q-19.55 16.1 -19.6 13.05 L-19.6 -13.85" fill="#dedbff" fill-opacity="0.8980392" fill-rule="evenodd" stroke="none"/>
    <path d="M-16.3 -18.15 L16.25 -18.15 Q21.15 -18.15 21.15 -13.45 L21.15 13.45 Q21.15 18.15 16.25 18.15 L-16.3 18.15 Q-21.2 18.15 -21.2 13.45 L-21.2 -13.45 Q-21.2 -18.15 -16.3 -18.15 Z" fill="none" stroke="#182a43" stroke-linecap="round" stroke-linejoin="round" stroke-opacity="0.54901963" stroke-width="1.0"/>
  </g>
</svg>
