<?xml version="1.0" encoding="UTF-8" standalone="no"?>
<svg xmlns:xlink="http://www.w3.org/1999/xlink" height="567.65px" width="988.65px" xmlns="http://www.w3.org/2000/svg">
  <g transform="matrix(1.0, 0.0, 0.0, 1.0, 1314.15, 295.4)">
    <path d="M-1314.15 -295.4 L-325.5 -295.4 -325.5 272.25 -1314.15 272.25 -1314.15 -295.4" fill="#14142e" fill-opacity="0.54901963" fill-rule="evenodd" stroke="none"/>
    <path d="M-594.65 -233.7 L-465.75 -233.7 Q-456.6 -233.7 -450.05 -227.15 -443.55 -220.65 -443.55 -211.45 L-443.55 -169.9 -594.65 -169.9 -594.65 -233.7" fill="url(#gradient0)" fill-rule="evenodd" stroke="none"/>
    <path d="M-1004.6 -233.7 L-594.65 -233.7 -594.65 -169.9 -1004.6 -169.9 -1004.6 -233.7" fill="url(#gradient1)" fill-rule="evenodd" stroke="none"/>
    <path d="M-443.55 -169.9 L-443.55 189.05 Q-443.55 198.25 -450.05 204.75 -456.6 211.25 -465.75 211.25 L-1170.5 211.25 Q-1179.7 211.25 -1186.2 204.75 -1192.75 198.25 -1192.75 189.05 L-1192.75 -169.9 -1004.6 -169.9 -594.65 -169.9 -443.55 -169.9" fill="url(#gradient2)" fill-rule="evenodd" stroke="none"/>
    <path d="M-1192.75 -169.9 L-1192.75 -211.45 Q-1192.75 -220.65 -1186.2 -227.15 -1179.7 -233.7 -1170.5 -233.7 L-1004.6 -233.7 -1004.6 -169.9 -1192.75 -169.9" fill="url(#gradient3)" fill-rule="evenodd" stroke="none"/>
  </g>
  <defs>
    <linearGradient gradientTransform="matrix(0.0, 0.0389, -0.2752, 0.0, -668.95, -201.8)" gradientUnits="userSpaceOnUse" id="gradient0" spreadMethod="pad" x1="-819.2" x2="819.2">
      <stop offset="0.0" stop-color="#bfc1f0" stop-opacity="0.8980392"/>
      <stop offset="1.0" stop-color="#d9dfff" stop-opacity="0.8980392"/>
    </linearGradient>
    <linearGradient gradientTransform="matrix(0.0, 0.0389, -4.7018, 0.0, -1188.1, -201.8)" gradientUnits="userSpaceOnUse" id="gradient1" spreadMethod="pad" x1="-819.2" x2="819.2">
      <stop offset="0.0" stop-color="#bfc1f0" stop-opacity="0.8980392"/>
      <stop offset="1.0" stop-color="#d9dfff" stop-opacity="0.8980392"/>
    </linearGradient>
    <linearGradient gradientTransform="matrix(0.0, 0.2262, -0.4573, 0.0, -818.1, 25.95)" gradientUnits="userSpaceOnUse" id="gradient2" spreadMethod="pad" x1="-819.2" x2="819.2">
      <stop offset="0.0" stop-color="#b7c2f3" stop-opacity="0.8980392"/>
      <stop offset="1.0" stop-color="#9fa2e5" stop-opacity="0.8980392"/>
    </linearGradient>
    <linearGradient gradientTransform="matrix(0.0, 0.0389, -0.2752, 0.0, -967.3, -201.8)" gradientUnits="userSpaceOnUse" id="gradient3" spreadMethod="pad" x1="-819.2" x2="819.2">
      <stop offset="0.0" stop-color="#bfc1f0" stop-opacity="0.8980392"/>
      <stop offset="1.0" stop-color="#d9dfff" stop-opacity="0.8980392"/>
    </linearGradient>
  </defs>
</svg>
