<?xml version="1.0" encoding="UTF-8" standalone="no"?>
<svg xmlns:xlink="http://www.w3.org/1999/xlink" height="446.35px" width="750.6px" xmlns="http://www.w3.org/2000/svg">
  <g transform="matrix(1.0, 0.0, 0.0, 1.0, 1193.45, 234.4)">
    <path d="M-1057.65 -225.4 L-574.65 -225.4 Q-564.3 -225.4 -557.0 -218.1 -549.65 -210.75 -549.65 -200.35 -549.65 -189.95 -557.0 -182.65 -564.3 -175.3 -574.65 -175.3 L-1057.65 -175.3 Q-1068.0 -175.3 -1075.4 -182.65 -1082.7 -189.95 -1082.7 -200.35 -1082.7 -210.75 -1075.4 -218.1 -1068.0 -225.4 -1057.65 -225.4" fill="#3954b2" fill-opacity="0.14901961" fill-rule="evenodd" stroke="none"/>
    <path d="M-1192.75 -169.9 L-1192.75 -211.45 Q-1192.75 -220.65 -1186.2 -227.15 -1179.7 -233.7 -1170.5 -233.7 L-465.75 -233.7 Q-456.6 -233.7 -450.05 -227.15 -443.55 -220.65 -443.55 -211.45 L-443.55 -169.9 -443.55 189.05 Q-443.55 198.25 -450.05 204.75 -456.6 211.25 -465.75 211.25 L-1170.5 211.25 Q-1179.7 211.25 -1186.2 204.75 -1192.75 198.25 -1192.75 189.05 L-1192.75 -169.9 -443.55 -169.9" fill="none" stroke="#101979" stroke-linecap="round" stroke-linejoin="round" stroke-opacity="0.7764706" stroke-width="1.4000000000000001"/>
  </g>
</svg>
