<?xml version="1.0" encoding="UTF-8" standalone="no"?>
<svg xmlns:xlink="http://www.w3.org/1999/xlink" height="50.25px" width="87.4px" xmlns="http://www.w3.org/2000/svg">
  <g transform="matrix(1.0, 0.0, 0.0, 1.0, 43.7, 25.15)">
    <path d="M-32.05 -24.15 L32.05 -24.15 Q42.7 -24.15 42.7 -13.5 L42.7 13.45 Q42.7 24.1 32.05 24.1 L-32.05 24.1 Q-42.7 24.1 -42.7 13.45 L-42.7 -13.5 Q-42.7 -24.15 -32.05 -24.15" fill="url(#gradient0)" fill-rule="evenodd" stroke="none"/>
    <path d="M-32.05 -24.15 L32.05 -24.15 Q42.7 -24.15 42.7 -13.5 L42.7 13.45 Q42.7 24.1 32.05 24.1 L-32.05 24.1 Q-42.7 24.1 -42.7 13.45 L-42.7 -13.5 Q-42.7 -24.15 -32.05 -24.15 Z" fill="none" stroke="#29195b" stroke-linecap="round" stroke-linejoin="round" stroke-opacity="0.40784314" stroke-width="2.0"/>
    <path d="M3.2 -12.95 Q4.4 -12.95 5.0 -12.1 5.75 -11.4 5.75 -10.4 5.75 -9.3 4.95 -8.55 L-4.5 0.65 4.95 9.25 5.1 9.45 Q5.75 10.1 5.75 11.1 5.75 12.05 5.15 12.85 L5.0 12.95 Q4.4 13.65 3.25 13.65 2.35 13.65 1.5 13.05 L1.45 13.0 -9.95 2.55 -10.15 2.3 -10.6 1.6 -10.7 1.15 -10.7 1.05 -10.7 0.2 -10.65 0.05 Q-10.4 -0.95 -9.8 -1.25 L1.4 -12.2 Q2.15 -12.95 3.2 -12.95 M7.7 -3.35 Q9.1 -3.35 10.1 -2.5 L10.45 -2.25 Q11.5 -1.15 11.5 0.4 11.5 1.95 10.45 3.1 L10.35 3.15 Q9.2 4.15 7.7 4.15 6.15 4.15 5.1 3.15 L5.05 3.1 Q3.9 1.95 3.9 0.4 3.9 -1.15 5.05 -2.3 L5.1 -2.3 Q6.15 -3.35 7.7 -3.35" fill="#e2ebff" fill-opacity="0.7490196" fill-rule="evenodd" stroke="none"/>
    <path d="M-9.25 -0.4 L2.1 -11.5 Q2.55 -11.95 3.2 -11.95 3.9 -11.95 4.25 -11.45 4.75 -11.0 4.75 -10.4 4.75 -9.75 4.25 -9.3 L-6.0 0.65 4.25 10.0 4.2 10.0 Q4.75 10.4 4.75 11.1 4.75 11.7 4.35 12.2 L4.3 12.2 Q3.95 12.65 3.25 12.65 2.65 12.65 2.1 12.25 L-9.3 1.8 -9.35 1.75 -9.7 1.15 -9.7 1.0 -9.7 0.35 -9.7 0.3 -9.25 -0.4 M5.75 -1.6 Q6.55 -2.35 7.7 -2.35 8.85 -2.35 9.65 -1.6 L9.7 -1.6 Q10.5 -0.75 10.5 0.4 10.5 1.55 9.7 2.4 8.85 3.15 7.7 3.15 6.55 3.15 5.75 2.4 4.9 1.55 4.9 0.4 4.9 -0.75 5.75 -1.6" fill="#2e2b54" fill-rule="evenodd" stroke="none"/>
  </g>
  <defs>
    <linearGradient gradientTransform="matrix(0.0, 0.0264, -0.0521, 0.0, 0.0, 0.1)" gradientUnits="userSpaceOnUse" id="gradient0" spreadMethod="pad" x1="-819.2" x2="819.2">
      <stop offset="0.0" stop-color="#a6a2dc"/>
      <stop offset="1.0" stop-color="#a7b3f7"/>
    </linearGradient>
  </defs>
</svg>
