<?xml version="1.0" encoding="UTF-8" standalone="no"?>
<svg xmlns:xlink="http://www.w3.org/1999/xlink" height="567.65px" width="988.65px" xmlns="http://www.w3.org/2000/svg">
  <g transform="matrix(1.0, 0.0, 0.0, 1.0, 1105.05, 245.55)">
    <path d="M-1105.05 -245.55 L-116.4 -245.55 -116.4 322.1 -1105.05 322.1 -1105.05 -245.55" fill="#14142e" fill-opacity="0.54901963" fill-rule="evenodd" stroke="none"/>
    <path d="M-827.1 -57.15 L-827.1 -97.0 Q-827.1 -105.8 -820.85 -112.05 -814.6 -118.3 -805.8 -118.3 L-416.2 -118.3 Q-407.4 -118.3 -401.15 -112.05 -394.9 -105.8 -394.9 -97.0 L-394.9 -57.15 -827.1 -57.15" fill="url(#gradient0)" fill-rule="evenodd" stroke="none"/>
    <path d="M-394.9 -57.15 L-394.9 152.25 Q-394.9 161.05 -401.15 167.3 -407.4 173.55 -416.2 173.55 L-805.8 173.55 Q-812.0 173.55 -816.9 170.5 -819.0 169.15 -820.85 167.3 -827.1 161.05 -827.1 152.25 L-827.1 -57.15 -394.9 -57.15" fill="url(#gradient1)" fill-rule="evenodd" stroke="none"/>
    <path d="M-827.1 -57.15 L-827.1 -97.0 Q-827.1 -105.8 -820.85 -112.05 -814.6 -118.3 -805.8 -118.3 L-416.2 -118.3 Q-407.4 -118.3 -401.15 -112.05 -394.9 -105.8 -394.9 -97.0 L-394.9 -57.15 -394.9 152.25 Q-394.9 161.05 -401.15 167.3 -407.4 173.55 -416.2 173.55 L-805.8 173.55 Q-812.0 173.55 -816.9 170.5 -819.0 169.15 -820.85 167.3 -827.1 161.05 -827.1 152.25 L-827.1 -57.15 -394.9 -57.15" fill="none" stroke="#101979" stroke-linecap="round" stroke-linejoin="round" stroke-opacity="0.7764706" stroke-width="1.4000000000000001"/>
    <path d="M-814.1 -53.15 L-407.15 -53.15 Q-400.65 -53.15 -400.65 -46.65 L-400.65 -4.0 Q-400.65 2.5 -407.15 2.5 L-814.1 2.5 Q-820.6 2.5 -820.6 -4.0 L-820.6 -46.65 Q-820.6 -53.15 -814.1 -53.15" fill="#ffffff" fill-opacity="0.3882353" fill-rule="evenodd" stroke="none"/>
    <path d="M-791.35 -110.35 L-520.1 -110.35 Q-510.15 -110.35 -503.15 -103.35 -496.1 -96.3 -496.1 -86.35 -496.1 -76.4 -503.15 -69.4 -510.15 -62.35 -520.1 -62.35 L-791.35 -62.35 Q-801.3 -62.35 -808.35 -69.4 -815.35 -76.4 -815.35 -86.35 -815.35 -96.3 -808.35 -103.35 -801.3 -110.35 -791.35 -110.35" fill="#3954b2" fill-opacity="0.14901961" fill-rule="evenodd" stroke="none"/>
  </g>
  <defs>
    <linearGradient gradientTransform="matrix(0.0, 0.0373, -0.2638, 0.0, -611.0, -87.75)" gradientUnits="userSpaceOnUse" id="gradient0" spreadMethod="pad" x1="-819.2" x2="819.2">
      <stop offset="0.0" stop-color="#bfc1f0" stop-opacity="0.8980392"/>
      <stop offset="1.0" stop-color="#d9dfff" stop-opacity="0.8980392"/>
    </linearGradient>
    <linearGradient gradientTransform="matrix(0.0, 0.1408, -0.2638, 0.0, -611.0, 58.2)" gradientUnits="userSpaceOnUse" id="gradient1" spreadMethod="pad" x1="-819.2" x2="819.2">
      <stop offset="0.0" stop-color="#b7c2f3" stop-opacity="0.8980392"/>
      <stop offset="1.0" stop-color="#9fa2e5" stop-opacity="0.8980392"/>
    </linearGradient>
  </defs>
</svg>
