<?xml version="1.0" encoding="UTF-8" standalone="no"?>
<svg xmlns:xlink="http://www.w3.org/1999/xlink" height="66.3px" width="188.0px" xmlns="http://www.w3.org/2000/svg">
  <g transform="matrix(1.0, 0.0, 0.0, 1.0, 706.25, -69.05)">
    <path d="M-691.05 70.05 L-533.45 70.05 Q-519.25 70.05 -519.25 84.25 L-519.25 120.2 Q-519.25 134.35 -533.45 134.35 L-691.05 134.35 Q-705.25 134.35 -705.25 120.2 L-705.25 84.25 Q-705.25 70.05 -691.05 70.05" fill="url(#gradient0)" fill-rule="evenodd" stroke="none"/>
    <path d="M-691.05 70.05 L-533.45 70.05 Q-519.25 70.05 -519.25 84.25 L-519.25 120.2 Q-519.25 134.35 -533.45 134.35 L-691.05 134.35 Q-705.25 134.35 -705.25 120.2 L-705.25 84.25 Q-705.25 70.05 -691.05 70.05 Z" fill="none" stroke="#29195b" stroke-linecap="round" stroke-linejoin="round" stroke-opacity="0.40784314" stroke-width="2.0"/>
  </g>
  <defs>
    <linearGradient gradientTransform="matrix(0.0, 0.0343, -0.1135, 0.0, -612.25, 101.8)" gradientUnits="userSpaceOnUse" id="gradient0" spreadMethod="pad" x1="-819.2" x2="819.2">
      <stop offset="0.0" stop-color="#c0bbff"/>
      <stop offset="1.0" stop-color="#cdd2ff"/>
    </linearGradient>
  </defs>
</svg>
