<?xml version="1.0" encoding="UTF-8" standalone="no"?>
<svg xmlns:xlink="http://www.w3.org/1999/xlink" height="36.25px" width="36.5px" xmlns="http://www.w3.org/2000/svg">
  <g transform="matrix(1.0, 0.0, 0.0, 1.0, 18.25, 18.1)">
    <path d="M-5.1 0.1 Q-5.1 -4.85 -1.7 -8.2 0.85 -10.7 4.15 -11.45 L6.75 -11.6 9.35 -11.4 Q12.5 -10.6 15.0 -8.05 L17.2 -5.25 Q17.2 -1.75 13.75 1.2 L13.25 1.65 Q8.65 5.15 2.3 5.3 -3.95 5.5 -4.9 2.4 L-4.95 1.55 -5.1 0.1 M-0.2 -7.0 L-0.45 -6.95 Q-3.25 -4.1 -3.25 0.1 L-3.25 1.45 -3.25 1.55 -3.25 1.7 Q-2.2 3.55 2.2 3.45 L2.3 3.45 Q6.95 3.35 10.5 1.2 L12.5 -0.1 Q15.0 -2.3 15.45 -4.8 L13.85 -6.8 Q10.9 -9.8 6.75 -9.8 2.65 -9.85 -0.2 -7.0 M14.8 8.45 Q11.4 11.85 6.55 11.85 1.65 11.85 -1.9 8.45 L-4.35 5.15 -4.1 5.15 Q-2.45 6.35 1.05 6.8 L2.4 6.8 Q9.45 6.6 14.2 2.7 L15.0 2.0 Q16.8 0.4 17.45 -1.25 L17.95 -2.35 Q18.45 -0.8 18.05 2.5 17.4 5.95 14.8 8.45 M12.7 12.9 Q7.45 18.15 -0.15 18.15 -7.6 18.15 -12.95 12.9 -18.25 7.65 -18.25 0.05 -18.25 -7.5 -12.95 -12.75 -7.6 -18.1 -0.15 -18.1 7.45 -18.1 12.7 -12.75 L13.7 -11.7 Q10.5 -13.8 6.45 -13.8 0.65 -13.8 -3.4 -9.75 -7.4 -5.65 -7.4 0.05 -7.4 5.8 -3.4 9.85 0.65 13.95 6.45 13.95 10.5 13.95 13.7 11.85 L12.7 12.9" fill="#00adfa" fill-rule="evenodd" stroke="none"/>
  </g>
</svg>
