<?xml version="1.0" encoding="UTF-8" standalone="no"?>
<svg xmlns:xlink="http://www.w3.org/1999/xlink" height="200.95px" width="184.6px" xmlns="http://www.w3.org/2000/svg">
  <g transform="matrix(1.0, 0.0, 0.0, 1.0, 94.8, 106.25)">
    <path d="M-94.8 -91.95 Q-94.8 -102.0 -87.2 -104.5 -92.8 -102.15 -92.8 -94.15 L-92.8 79.15 Q-92.8 90.5 -81.45 90.5 L76.45 90.5 Q87.8 90.5 87.8 79.15 L87.8 -94.15 Q87.8 -102.15 82.2 -104.5 89.8 -102.05 89.8 -91.95 L89.8 81.35 Q89.8 94.7 76.45 94.7 L-81.45 94.7 Q-94.8 94.7 -94.8 81.35 L-94.8 -91.95" fill="#2e3958" fill-opacity="0.5372549" fill-rule="evenodd" stroke="none"/>
    <path d="M87.8 51.75 L87.8 79.15 Q87.8 90.5 76.45 90.5 L-81.45 90.5 Q-92.8 90.5 -92.8 79.15 L-92.8 51.75 87.8 51.75" fill="#d1d8fe" fill-opacity="0.69803923" fill-rule="evenodd" stroke="none"/>
    <path d="M87.8 -65.5 L87.8 51.75 -92.8 51.75 -92.8 -65.5 87.8 -65.5" fill="#252e48" fill-opacity="0.76862746" fill-rule="evenodd" stroke="none"/>
    <path d="M-92.8 -65.5 L-92.8 -94.15 Q-92.8 -105.5 -81.45 -105.5 L76.45 -105.5 Q87.8 -105.5 87.8 -94.15 L87.8 -65.5 -92.8 -65.5" fill="#131825" fill-opacity="0.8392157" fill-rule="evenodd" stroke="none"/>
    <path d="M-92.8 -65.5 L-92.8 -94.15 Q-92.8 -105.5 -81.45 -105.5 L76.45 -105.5 Q87.8 -105.5 87.8 -94.15 L87.8 -65.5 87.8 51.75 87.8 79.15 Q87.8 90.5 76.45 90.5 L-81.45 90.5 Q-92.8 90.5 -92.8 79.15 L-92.8 51.75 -92.8 -65.5 M-92.8 51.75 L87.8 51.75" fill="none" stroke="#83b0ff" stroke-linecap="round" stroke-linejoin="round" stroke-opacity="0.21960784" stroke-width="1.5"/>
  </g>
</svg>
