<?xml version="1.0" encoding="UTF-8" standalone="no"?>
<svg xmlns:xlink="http://www.w3.org/1999/xlink" height="47.2px" width="73.0px" xmlns="http://www.w3.org/2000/svg">
  <g transform="matrix(1.0, 0.0, 0.0, 1.0, 69.4, 1.5)">
    <path d="M-44.4 27.5 Q-41.45 26.3 -37.65 23.95 L-37.4 23.8 -36.3 23.0 -35.85 22.75 -35.7 22.65 Q-38.05 22.65 -40.5 21.1 L-41.65 20.3 Q-30.5 20.55 -19.5 10.8 L-15.0 6.95 Q-7.55 0.75 -4.15 -0.5 3.6 4.05 2.45 9.45 1.3 14.9 -1.75 21.25 -4.75 27.65 -10.3 32.75 -16.0 37.85 -22.65 41.5 -23.0 40.8 -21.0 37.1 -25.55 41.5 -33.95 43.7 -38.95 44.95 -46.95 44.6 L-59.65 43.3 Q-59.2 42.65 -56.8 41.2 -63.05 38.45 -66.15 31.9 -68.35 27.2 -68.4 23.55 -68.45 22.05 -68.1 20.8 -66.05 25.35 -60.7 27.65 -55.4 29.95 -47.7 28.5 -46.2 28.2 -44.4 27.5 Z" fill="none" stroke="#000000" stroke-linecap="round" stroke-linejoin="round" stroke-width="2.0"/>
  </g>
</svg>
