<?xml version="1.0" encoding="UTF-8" standalone="no"?>
<svg xmlns:xlink="http://www.w3.org/1999/xlink" height="72.55px" width="206.4px" xmlns="http://www.w3.org/2000/svg">
  <g transform="matrix(1.0, 0.0, 0.0, 1.0, 103.2, 30.85)">
    <path d="M-95.65 -29.6 L95.65 -29.6 Q101.95 -29.6 101.95 -22.85 L101.95 33.65 Q101.95 40.45 95.65 40.45 L-95.65 40.45 Q-101.95 40.45 -101.95 33.65 L-101.95 -22.85 Q-101.95 -29.6 -95.65 -29.6 Z" fill="none" stroke="#1e2658" stroke-linecap="round" stroke-linejoin="round" stroke-opacity="0.32941177" stroke-width="2.5"/>
    <path d="M-95.2 -30.15 L95.2 -30.15 Q101.45 -30.15 101.45 -23.4 L101.45 33.1 Q101.45 39.9 95.2 39.9 L-95.2 39.9 Q-101.45 39.9 -101.45 33.1 L-101.45 -23.4 Q-101.45 -30.15 -95.2 -30.15" fill="#4d547b" fill-opacity="0.8980392" fill-rule="evenodd" stroke="none"/>
  </g>
</svg>
