<?xml version="1.0" encoding="UTF-8" standalone="no"?>
<svg xmlns:xlink="http://www.w3.org/1999/xlink" height="32.35px" width="31.45px" xmlns="http://www.w3.org/2000/svg">
  <g transform="matrix(1.0, 0.0, 0.0, 1.0, 15.85, 16.25)">
    <path d="M7.85 -6.25 Q7.85 -6.9 7.35 -7.4 L6.2 -7.85 Q5.6 -7.85 5.1 -7.4 4.6 -6.9 4.6 -6.25 4.6 -5.6 5.1 -5.1 5.6 -4.6 6.2 -4.6 6.85 -4.6 7.35 -5.1 7.85 -5.6 7.85 -6.25 M-4.4 -9.4 L4.15 -9.4 Q9.4 -9.4 9.4 -4.15 L9.4 4.4 Q9.4 9.6 4.15 9.6 L-4.4 9.6 Q-9.6 9.6 -9.6 4.4 L-9.6 -4.15 Q-9.6 -9.4 -4.4 -9.4 M-5.25 -11.7 Q-11.8 -11.7 -11.8 -5.15 L-11.8 5.15 Q-11.8 11.7 -5.25 11.7 L5.1 11.7 Q11.65 11.7 11.65 5.15 L11.65 -5.15 Q11.65 -11.7 5.1 -11.7 L-5.25 -11.7 M-7.95 -16.25 L7.75 -16.25 Q15.6 -16.25 15.6 -8.35 L15.6 8.25 Q15.6 16.1 7.75 16.1 L-7.95 16.1 Q-15.85 16.1 -15.85 8.25 L-15.85 -8.35 Q-15.85 -16.25 -7.95 -16.25 M3.8 0.05 Q3.8 1.6 2.65 2.75 1.5 3.85 -0.05 3.85 -1.65 3.85 -2.75 2.75 -3.9 1.6 -3.9 0.05 -3.9 -1.55 -2.75 -2.7 -1.65 -3.8 -0.05 -3.8 1.5 -3.8 2.65 -2.7 3.8 -1.55 3.8 0.05 M5.85 0.0 Q5.85 -2.45 4.1 -4.2 2.4 -5.95 -0.1 -5.95 -2.55 -5.95 -4.3 -4.2 -6.05 -2.45 -6.05 0.0 -6.05 2.45 -4.3 4.2 -2.55 5.95 -0.1 5.95 2.4 5.95 4.1 4.2 5.85 2.45 5.85 0.0" fill="#c4d3ff" fill-rule="evenodd" stroke="none"/>
  </g>
</svg>
