<?xml version="1.0" encoding="UTF-8" standalone="no"?>
<svg xmlns:xlink="http://www.w3.org/1999/xlink" height="29.8px" width="36.8px" xmlns="http://www.w3.org/2000/svg">
  <g transform="matrix(1.0, 0.0, 0.0, 1.0, 18.5, 15.15)">
    <path d="M-16.1 -13.45 Q-10.6 -6.85 -0.6 -5.7 -1.2 -8.7 0.4 -11.35 2.35 -14.8 6.8 -15.15 10.1 -15.25 12.45 -12.65 L17.15 -14.35 Q16.5 -12.3 14.45 -10.25 L18.3 -11.5 Q17.4 -9.35 14.6 -7.55 14.95 -1.2 11.35 5.1 6.6 11.85 -1.45 14.05 -11.05 16.0 -18.5 11.35 -12.65 11.95 -7.55 8.3 -12.5 7.6 -14.4 3.25 L-11.4 3.25 Q-17.0 0.75 -16.95 -4.4 -15.8 -3.95 -13.8 -3.85 -18.55 -7.5 -16.1 -13.45" fill="#c4d3ff" fill-rule="evenodd" stroke="none"/>
  </g>
</svg>
