<?xml version="1.0" encoding="UTF-8" standalone="no"?>
<svg xmlns:xlink="http://www.w3.org/1999/xlink" height="31.2px" width="31.4px" xmlns="http://www.w3.org/2000/svg">
  <g transform="matrix(1.0, 0.0, 0.0, 1.0, 15.7, 15.9)">
    <path d="M1.15 15.3 L-12.35 15.3 Q-16.0 15.3 -15.7 12.25 L-15.7 -12.7 Q-15.95 -16.2 -11.9 -15.85 L13.25 -15.85 Q15.85 -16.05 15.7 -12.9 L15.7 12.0 Q15.85 15.15 12.9 15.3 L6.15 15.3 6.15 3.0 10.05 3.0 10.75 -1.7 6.15 -1.7 6.15 -5.05 Q5.95 -6.85 8.0 -6.9 L10.8 -6.9 10.8 -11.4 7.4 -11.4 Q1.6 -11.3 1.15 -5.95 L1.15 -1.7 -3.0 -1.7 -3.0 3.0 1.15 3.0 1.15 15.3" fill="#c4d3ff" fill-rule="evenodd" stroke="none"/>
  </g>
</svg>
