<?xml version="1.0" encoding="UTF-8" standalone="no"?>
<svg xmlns:xlink="http://www.w3.org/1999/xlink" height="31.85px" width="29.9px" xmlns="http://www.w3.org/2000/svg">
  <g transform="matrix(1.0, 0.0, 0.0, 1.0, 15.4, 16.05)">
    <path d="M2.8 -7.6 L6.1 -7.6 6.1 1.0 2.8 1.0 2.8 -7.6 M-15.4 -10.75 L-13.15 -16.05 14.5 -16.05 14.5 3.1 6.05 11.65 -0.35 11.65 -3.4 15.8 -7.75 15.8 -7.75 11.65 -15.4 11.65 -15.4 -10.75 M-10.95 -12.65 L-10.95 7.3 -4.55 7.3 -4.55 11.65 -0.5 7.3 6.05 7.3 11.35 2.0 11.35 -12.65 -10.95 -12.65 M-3.6 -7.6 L-0.35 -7.6 -0.35 1.0 -3.6 1.0 -3.6 -7.6" fill="#c4d3ff" fill-rule="evenodd" stroke="none"/>
  </g>
</svg>
