<?xml version="1.0" encoding="UTF-8" standalone="no"?>
<svg xmlns:xlink="http://www.w3.org/1999/xlink" height="53.4px" width="97.95px" xmlns="http://www.w3.org/2000/svg">
  <g transform="matrix(1.0, 0.0, 0.0, 1.0, 90.3, 10.0)">
    <path d="M-79.95 20.9 Q-78.6 27.4 -73.4 32.65 L-69.1 36.45 -67.95 37.3 Q-65.4 39.45 -59.4 41.55 L-59.15 41.6 -58.85 41.65 -58.5 41.75 -58.15 41.9 -57.9 42.0 -57.0 42.15 -56.7 42.25 Q-50.45 43.35 -43.7 41.4 -35.8 37.8 -31.65 30.9 -26.95 23.05 -27.15 10.9 -27.3 4.9 -24.25 0.4 -22.05 -2.55 -18.05 -2.8 -4.75 -3.35 4.15 8.95 6.8 12.7 6.9 8.2 6.9 4.3 4.35 0.9 -0.35 -5.0 -6.85 -7.4 L-9.45 -8.1 -14.8 -9.0 Q-18.7 -9.45 -21.75 -9.1 L-24.05 -8.6 Q-31.9 -5.3 -33.75 9.15 -34.9 24.4 -40.8 31.0 -43.2 33.55 -46.1 34.7 -57.65 37.85 -68.8 29.15 -72.55 26.25 -76.45 20.45 L-78.0 17.7 -80.8 13.45 -80.85 13.4 -80.7 17.45 -79.95 20.9 Q-81.85 23.7 -84.6 24.85 -87.25 25.85 -88.9 21.65 -90.55 17.4 -88.1 12.35 L-87.05 10.2 Q-85.95 7.9 -85.4 6.25 L-84.95 4.85 -84.15 1.2 Q-80.05 6.75 -75.2 10.65 -70.35 14.55 -71.0 17.7 -71.2 18.6 -71.75 19.35 L-72.35 20.05 Q-74.5 21.6 -76.45 20.45" fill="none" stroke="#000000" stroke-linecap="round" stroke-linejoin="round" stroke-width="1.5"/>
  </g>
</svg>
