<?xml version="1.0" encoding="UTF-8" standalone="no"?>
<svg xmlns:xlink="http://www.w3.org/1999/xlink" height="210.0px" width="147.7px" xmlns="http://www.w3.org/2000/svg">
  <g transform="matrix(1.0, 0.0, 0.0, 1.0, 73.85, 105.0)">
    <path d="M-43.55 -4.9 Q-54.55 -3.7 -56.75 -19.9 -57.25 -35.05 -47.4 -43.7 -35.7 -54.1 -21.35 -57.95 L-21.1 -66.95 Q-37.75 -65.35 -56.2 -52.75 -76.2 -38.3 -72.15 -19.9 -68.45 0.2 -46.7 8.7 -19.5 13.05 -10.15 -3.45 6.7 -25.75 4.9 -57.3 L4.3 -63.7 3.85 -67.35 3.4 -70.25 M3.85 -67.35 Q35.4 -64.45 51.3 -45.85 75.85 -24.35 72.45 4.5 63.2 38.25 15.95 44.3 -9.75 47.5 -26.55 55.8 -45.35 64.15 -51.4 77.1 -52.95 80.45 -53.75 83.4 -58.05 99.0 -41.9 104.0 -61.95 99.75 -59.3 79.15 -58.3 71.6 -55.1 65.0 -50.0 54.45 -39.25 46.3 -15.5 25.8 12.6 17.55 40.7 9.25 49.7 4.0 57.95 -0.45 51.3 -19.35 39.5 -48.1 4.9 -57.3 M-21.35 -57.95 Q-21.5 -49.0 -21.25 -38.95 -24.1 -13.25 -37.25 -6.8 L-37.55 -6.65 -40.85 -5.4 -43.55 -4.9 M-15.95 -104.0 Q-20.25 -88.45 -21.1 -66.95" fill="none" stroke="#000000" stroke-linecap="round" stroke-linejoin="round" stroke-width="2.0"/>
    <path d="M4.3 -63.7 Q21.05 -62.5 34.6 -54.3 M62.4 10.0 Q43.5 34.1 19.6 36.8 -3.5 39.35 -22.2 48.75 L-23.55 49.4 Q-52.9 64.45 -53.75 83.4 M-43.55 -4.9 Q-59.85 -2.0 -63.35 -18.3 -65.3 -36.15 -50.95 -49.8 -40.8 -58.5 -24.75 -61.95 M-3.55 -71.8 Q-0.3 -53.05 -5.35 -25.45" fill="none" stroke="#000000" stroke-linecap="round" stroke-linejoin="round" stroke-width="1.4000000000000001"/>
  </g>
</svg>
