<?xml version="1.0" encoding="UTF-8" standalone="no"?>
<svg xmlns:xlink="http://www.w3.org/1999/xlink" height="567.65px" width="988.65px" xmlns="http://www.w3.org/2000/svg">
  <g transform="matrix(1.0, 0.0, 0.0, 1.0, 1105.05, 247.85)">
    <path d="M-1105.05 -247.85 L-116.4 -247.85 -116.4 319.8 -1105.05 319.8 -1105.05 -247.85" fill="#14142e" fill-opacity="0.54901963" fill-rule="evenodd" stroke="none"/>
    <path d="M-827.1 -59.45 L-827.1 -99.3 Q-827.1 -108.1 -820.85 -114.35 -814.6 -120.6 -805.8 -120.6 L-416.2 -120.6 Q-407.4 -120.6 -401.15 -114.35 -394.9 -108.1 -394.9 -99.3 L-394.9 -59.45 -827.1 -59.45" fill="url(#gradient0)" fill-rule="evenodd" stroke="none"/>
    <path d="M-394.9 -59.45 L-394.9 149.95 Q-394.9 158.75 -401.15 165.0 -407.4 171.25 -416.2 171.25 L-805.8 171.25 Q-812.0 171.25 -816.9 168.2 -819.0 166.85 -820.85 165.0 -827.1 158.75 -827.1 149.95 L-827.1 -59.45 -394.9 -59.45" fill="url(#gradient1)" fill-rule="evenodd" stroke="none"/>
    <path d="M-827.1 -59.45 L-827.1 -99.3 Q-827.1 -108.1 -820.85 -114.35 -814.6 -120.6 -805.8 -120.6 L-416.2 -120.6 Q-407.4 -120.6 -401.15 -114.35 -394.9 -108.1 -394.9 -99.3 L-394.9 -59.45 -394.9 149.95 Q-394.9 158.75 -401.15 165.0 -407.4 171.25 -416.2 171.25 L-805.8 171.25 Q-812.0 171.25 -816.9 168.2 -819.0 166.85 -820.85 165.0 -827.1 158.75 -827.1 149.95 L-827.1 -59.45 -394.9 -59.45" fill="none" stroke="#101979" stroke-linecap="round" stroke-linejoin="round" stroke-opacity="0.7764706" stroke-width="1.4000000000000001"/>
    <path d="M-814.1 -52.6 L-407.15 -52.6 Q-400.65 -52.6 -400.65 -46.1 L-400.65 -15.45 Q-400.65 -8.95 -407.15 -8.95 L-814.1 -8.95 Q-820.6 -8.95 -820.6 -15.45 L-820.6 -46.1 Q-820.6 -52.6 -814.1 -52.6" fill="#ffffff" fill-opacity="0.3882353" fill-rule="evenodd" stroke="none"/>
    <path d="M-791.35 -112.65 L-520.1 -112.65 Q-510.15 -112.65 -503.15 -105.65 -496.1 -98.6 -496.1 -88.65 -496.1 -78.7 -503.15 -71.7 -510.15 -64.65 -520.1 -64.65 L-791.35 -64.65 Q-801.3 -64.65 -808.35 -71.7 -815.35 -78.7 -815.35 -88.65 -815.35 -98.6 -808.35 -105.65 -801.3 -112.65 -791.35 -112.65" fill="#3954b2" fill-opacity="0.14901961" fill-rule="evenodd" stroke="none"/>
  </g>
  <defs>
    <linearGradient gradientTransform="matrix(0.0, 0.0373, -0.2638, 0.0, -611.0, -90.05)" gradientUnits="userSpaceOnUse" id="gradient0" spreadMethod="pad" x1="-819.2" x2="819.2">
      <stop offset="0.0" stop-color="#bfc1f0" stop-opacity="0.8980392"/>
      <stop offset="1.0" stop-color="#d9dfff" stop-opacity="0.8980392"/>
    </linearGradient>
    <linearGradient gradientTransform="matrix(0.0, 0.1408, -0.2638, 0.0, -611.0, 55.9)" gradientUnits="userSpaceOnUse" id="gradient1" spreadMethod="pad" x1="-819.2" x2="819.2">
      <stop offset="0.0" stop-color="#b7c2f3" stop-opacity="0.8980392"/>
      <stop offset="1.0" stop-color="#9fa2e5" stop-opacity="0.8980392"/>
    </linearGradient>
  </defs>
</svg>
