<?xml version="1.0" encoding="UTF-8" standalone="no"?>
<svg xmlns:xlink="http://www.w3.org/1999/xlink" height="110.35px" width="258.05px" xmlns="http://www.w3.org/2000/svg">
  <g transform="matrix(1.0, 0.0, 0.0, 1.0, 129.05, 46.2)">
    <path d="M-108.55 -45.2 L108.5 -45.2 Q128.0 -45.2 128.0 -25.7 L128.0 25.65 Q128.0 45.15 108.5 45.15 L10.0 45.15 -0.45 63.15 -10.5 45.15 -108.55 45.15 Q-128.05 45.15 -128.05 25.65 L-128.05 -25.7 Q-128.05 -45.2 -108.55 -45.2" fill="url(#gradient0)" fill-rule="evenodd" stroke="none"/>
    <path d="M-108.55 -45.2 L108.5 -45.2 Q128.0 -45.2 128.0 -25.7 L128.0 25.65 Q128.0 45.15 108.5 45.15 L10.0 45.15 -0.45 63.15 -10.5 45.15 -108.55 45.15 Q-128.05 45.15 -128.05 25.65 L-128.05 -25.7 Q-128.05 -45.2 -108.55 -45.2 Z" fill="none" stroke="#4c4e74" stroke-linecap="round" stroke-linejoin="round" stroke-width="2.0"/>
    <path d="M108.5 -41.7 Q124.5 -41.7 124.5 -25.7 L124.5 25.65 Q124.5 41.65 108.5 41.65 L10.0 41.65 Q9.05 41.65 8.25 42.15 7.45 42.6 7.0 43.4 L-0.4 56.1 -7.45 43.45 Q-7.9 42.6 -8.7 42.15 -9.55 41.65 -10.5 41.65 L-108.55 41.65 Q-124.55 41.65 -124.55 25.65 L-124.55 -25.7 Q-124.55 -41.7 -108.55 -41.7 L108.5 -41.7" fill="url(#gradient1)" fill-rule="evenodd" stroke="none"/>
  </g>
  <defs>
    <linearGradient gradientTransform="matrix(0.0, 0.0559, -0.1563, 0.0, 0.0, 2.35)" gradientUnits="userSpaceOnUse" id="gradient0" spreadMethod="pad" x1="-819.2" x2="819.2">
      <stop offset="0.0" stop-color="#d1d4f7"/>
      <stop offset="0.9921568627450981" stop-color="#d8daee"/>
    </linearGradient>
    <linearGradient gradientTransform="matrix(0.0, 0.0559, -0.1563, 0.0, 0.0, 2.35)" gradientUnits="userSpaceOnUse" id="gradient1" spreadMethod="pad" x1="-819.2" x2="819.2">
      <stop offset="0.0" stop-color="#e8e7ff"/>
      <stop offset="0.9921568627450981" stop-color="#ffffff"/>
    </linearGradient>
  </defs>
</svg>
