<?xml version="1.0" encoding="UTF-8" standalone="no"?>
<svg xmlns:xlink="http://www.w3.org/1999/xlink" height="495.3px" width="844.65px" xmlns="http://www.w3.org/2000/svg">
  <g transform="matrix(1.0, 0.0, 0.0, 1.0, 1264.85, 325.9)">
    <path d="M-556.65 -325.2 L-442.2 -325.2 Q-433.4 -325.2 -427.15 -318.95 -420.9 -312.7 -420.9 -303.9 L-420.9 -264.05 -556.65 -264.05 -556.65 -325.2" fill="url(#gradient0)" fill-rule="evenodd" stroke="none"/>
    <path d="M-989.2 -325.2 L-556.65 -325.2 -556.65 -264.05 -989.2 -264.05 -989.2 -325.2" fill="url(#gradient1)" fill-rule="evenodd" stroke="none"/>
    <path d="M-420.9 -264.05 L-420.9 147.4 Q-420.9 156.2 -427.15 162.45 -433.4 168.7 -442.2 168.7 L-1242.85 168.7 Q-1251.65 168.7 -1257.9 162.45 -1264.15 156.2 -1264.15 147.4 L-1264.15 -264.05 -989.2 -264.05 -556.65 -264.05 -420.9 -264.05" fill="url(#gradient2)" fill-rule="evenodd" stroke="none"/>
    <path d="M-1264.15 -264.05 L-1264.15 -303.9 Q-1264.15 -312.7 -1257.9 -318.95 -1251.65 -325.2 -1242.85 -325.2 L-989.2 -325.2 -989.2 -264.05 -1264.15 -264.05" fill="url(#gradient3)" fill-rule="evenodd" stroke="none"/>
    <path d="M-556.65 -325.2 L-442.2 -325.2 Q-433.4 -325.2 -427.15 -318.95 -420.9 -312.7 -420.9 -303.9 L-420.9 -264.05 -420.9 147.4 Q-420.9 156.2 -427.15 162.45 -433.4 168.7 -442.2 168.7 L-1242.85 168.7 Q-1251.65 168.7 -1257.9 162.45 -1264.15 156.2 -1264.15 147.4 L-1264.15 -264.05 -1264.15 -303.9 Q-1264.15 -312.7 -1257.9 -318.95 -1251.65 -325.2 -1242.85 -325.2 L-989.2 -325.2 -556.65 -325.2 M-556.65 -264.05 L-420.9 -264.05 M-1264.15 -264.05 L-989.2 -264.05 -556.65 -264.05" fill="none" stroke="#101979" stroke-linecap="round" stroke-linejoin="round" stroke-opacity="0.7764706" stroke-width="1.4000000000000001"/>
    <path d="M-1222.7 -317.25 L-549.65 -317.25 Q-539.7 -317.25 -532.7 -310.25 -525.65 -303.2 -525.65 -293.25 -525.65 -283.3 -532.7 -276.3 -539.7 -269.25 -549.65 -269.25 L-1222.7 -269.25 Q-1232.65 -269.25 -1239.7 -276.3 -1246.7 -283.3 -1246.7 -293.25 -1246.7 -303.2 -1239.7 -310.25 -1232.65 -317.25 -1222.7 -317.25" fill="#3954b2" fill-opacity="0.14901961" fill-rule="evenodd" stroke="none"/>
  </g>
  <defs>
    <linearGradient gradientTransform="matrix(0.0, 0.0373, -0.2638, 0.0, -637.0, -294.65)" gradientUnits="userSpaceOnUse" id="gradient0" spreadMethod="pad" x1="-819.2" x2="819.2">
      <stop offset="0.0" stop-color="#bfc1f0" stop-opacity="0.8980392"/>
      <stop offset="1.0" stop-color="#d9dfff" stop-opacity="0.8980392"/>
    </linearGradient>
    <linearGradient gradientTransform="matrix(0.0, 0.0373, -11.824, 0.0, -3887.0, -294.65)" gradientUnits="userSpaceOnUse" id="gradient1" spreadMethod="pad" x1="-819.2" x2="819.2">
      <stop offset="0.0" stop-color="#bfc1f0" stop-opacity="0.8980392"/>
      <stop offset="1.0" stop-color="#d9dfff" stop-opacity="0.8980392"/>
    </linearGradient>
    <linearGradient gradientTransform="matrix(0.0, 0.2641, -0.5147, 0.0, -842.5, -47.7)" gradientUnits="userSpaceOnUse" id="gradient2" spreadMethod="pad" x1="-819.2" x2="819.2">
      <stop offset="0.0" stop-color="#b7c2f3" stop-opacity="0.8980392"/>
      <stop offset="1.0" stop-color="#9fa2e5" stop-opacity="0.8980392"/>
    </linearGradient>
    <linearGradient gradientTransform="matrix(0.0, 0.0373, -0.2638, 0.0, -1048.05, -294.65)" gradientUnits="userSpaceOnUse" id="gradient3" spreadMethod="pad" x1="-819.2" x2="819.2">
      <stop offset="0.0" stop-color="#bfc1f0" stop-opacity="0.8980392"/>
      <stop offset="1.0" stop-color="#d9dfff" stop-opacity="0.8980392"/>
    </linearGradient>
  </defs>
</svg>
