<?xml version="1.0" encoding="UTF-8" standalone="no"?>
<svg xmlns:xlink="http://www.w3.org/1999/xlink" height="50.25px" width="87.4px" xmlns="http://www.w3.org/2000/svg">
  <g transform="matrix(1.0, 0.0, 0.0, 1.0, 43.8, 22.45)">
    <path d="M-32.15 -21.45 L31.95 -21.45 Q42.6 -21.45 42.6 -10.8 L42.6 16.15 Q42.6 26.8 31.95 26.8 L-32.15 26.8 Q-42.8 26.8 -42.8 16.15 L-42.8 -10.8 Q-42.8 -21.45 -32.15 -21.45" fill="url(#gradient0)" fill-rule="evenodd" stroke="none"/>
    <path d="M-32.15 -21.45 L31.95 -21.45 Q42.6 -21.45 42.6 -10.8 L42.6 16.15 Q42.6 26.8 31.95 26.8 L-32.15 26.8 Q-42.8 26.8 -42.8 16.15 L-42.8 -10.8 Q-42.8 -21.45 -32.15 -21.45 Z" fill="none" stroke="#29195b" stroke-linecap="round" stroke-linejoin="round" stroke-opacity="0.40784314" stroke-width="2.0"/>
  </g>
  <defs>
    <linearGradient gradientTransform="matrix(0.0, 0.0264, -0.0521, 0.0, -0.1, 2.8)" gradientUnits="userSpaceOnUse" id="gradient0" spreadMethod="pad" x1="-819.2" x2="819.2">
      <stop offset="0.0" stop-color="#a6a2dc"/>
      <stop offset="1.0" stop-color="#a7b3f7"/>
    </linearGradient>
  </defs>
</svg>
