<?xml version="1.0" encoding="UTF-8" standalone="no"?>
<svg xmlns:xlink="http://www.w3.org/1999/xlink" height="293.55px" width="508.65px" xmlns="http://www.w3.org/2000/svg">
  <g transform="matrix(1.0, 0.0, 0.0, 1.0, 270.55, 165.3)">
    <path d="M-259.2 -165.3 L226.75 -165.3 Q238.1 -165.3 238.1 -153.95 L238.1 -110.65 Q238.1 -99.3 226.75 -99.3 L-259.2 -99.3 Q-270.55 -99.3 -270.55 -110.65 L-270.55 -153.95 Q-270.55 -165.3 -259.2 -165.3 M-254.45 36.45 L-103.1 36.45 Q-91.75 36.45 -91.75 47.8 L-91.75 116.9 Q-91.75 128.25 -103.1 128.25 L-254.45 128.25 Q-265.8 128.25 -265.8 116.9 L-265.8 47.8 Q-265.8 36.45 -254.45 36.45" fill="#2f3354" fill-opacity="0.76862746" fill-rule="evenodd" stroke="none"/>
  </g>
</svg>
