<?xml version="1.0" encoding="UTF-8" standalone="no"?>
<svg xmlns:xlink="http://www.w3.org/1999/xlink" height="287.8px" width="533.1px" xmlns="http://www.w3.org/2000/svg">
  <g transform="matrix(1.0, 0.0, 0.0, 1.0, 265.4, 162.5)">
    <path d="M-254.05 -162.5 L256.35 -162.5 Q267.7 -162.5 267.7 -151.15 L267.7 -135.25 Q267.7 -123.9 256.35 -123.9 L-254.05 -123.9 Q-265.4 -123.9 -265.4 -135.25 L-265.4 -151.15 Q-265.4 -162.5 -254.05 -162.5 M-253.2 -117.05 L-96.75 -117.05 Q-85.4 -117.05 -85.4 -105.7 L-85.4 63.6 Q-85.4 74.95 -96.75 74.95 L-253.2 74.95 Q-264.55 74.95 -264.55 63.6 L-264.55 -105.7 Q-264.55 -117.05 -253.2 -117.05 M-151.95 85.4 L154.3 85.4 Q165.95 85.4 165.95 96.75 L165.95 113.95 Q165.95 125.3 154.3 125.3 L-151.95 125.3 Q-163.6 125.3 -163.6 113.95 L-163.6 96.75 Q-163.6 85.4 -151.95 85.4" fill="#2f3354" fill-opacity="0.76862746" fill-rule="evenodd" stroke="none"/>
  </g>
</svg>
