<?xml version="1.0" encoding="UTF-8" standalone="no"?>
<svg xmlns:xlink="http://www.w3.org/1999/xlink" height="61.7px" width="61.8px" xmlns="http://www.w3.org/2000/svg">
  <g transform="matrix(1.0, 0.0, 0.0, 1.0, 62.1, 1.75)">
    <path d="M-45.65 48.6 L-33.7 42.15 Q-27.05 38.45 -22.6 23.35 -18.15 8.25 -14.35 4.15 -10.55 0.05 -6.4 -0.95 1.15 0.2 -2.1 3.3 L-9.1 9.8 Q-12.9 13.2 -17.2 28.85 -21.5 44.5 -38.2 50.85 -40.7 51.8 -44.9 52.6 -40.55 57.15 -46.95 58.95 -54.8 60.2 -61.3 53.3 L-53.9 46.8 Q-49.9 43.9 -47.25 44.5 -44.65 45.15 -45.6 48.6 L-45.25 48.4 -45.65 48.6 -45.6 48.6 Q-49.55 50.6 -51.7 52.9 L-44.9 52.6" fill="none" stroke="#000000" stroke-linecap="round" stroke-linejoin="round" stroke-width="1.6"/>
  </g>
</svg>
