<?xml version="1.0" encoding="UTF-8" standalone="no"?>
<svg xmlns:xlink="http://www.w3.org/1999/xlink" height="289.65px" width="468.95px" xmlns="http://www.w3.org/2000/svg">
  <g transform="matrix(1.0, 0.0, 0.0, 1.0, 265.75, 159.5)">
    <path d="M-254.4 -159.5 L191.85 -159.5 Q203.2 -159.5 203.2 -148.15 L203.2 -53.25 Q203.2 -41.9 191.85 -41.9 L-254.4 -41.9 Q-265.75 -41.9 -265.75 -53.25 L-265.75 -148.15 Q-265.75 -159.5 -254.4 -159.5 M-254.4 -32.4 L-133.7 -32.4 Q-122.35 -32.4 -122.35 -21.05 L-122.35 118.8 Q-122.35 130.15 -133.7 130.15 L-254.4 130.15 Q-265.75 130.15 -265.75 118.8 L-265.75 -21.05 Q-265.75 -32.4 -254.4 -32.4" fill="#2f3354" fill-opacity="0.76862746" fill-rule="evenodd" stroke="none"/>
  </g>
</svg>
