<?xml version="1.0" encoding="UTF-8" standalone="no"?>
<svg xmlns:xlink="http://www.w3.org/1999/xlink" height="282.2px" width="491.75px" xmlns="http://www.w3.org/2000/svg">
  <g transform="matrix(1.0, 0.0, 0.0, 1.0, 221.15, 153.8)">
    <path d="M149.15 -21.1 L260.15 -21.1 Q270.6 -21.1 270.6 -10.65 L270.6 117.95 Q270.6 128.4 260.15 128.4 L149.15 128.4 Q138.7 128.4 138.7 117.95 L138.7 -10.65 Q138.7 -21.1 149.15 -21.1 M-209.8 -153.8 L236.45 -153.8 Q247.8 -153.8 247.8 -142.45 L247.8 -47.55 Q247.8 -36.2 236.45 -36.2 L-209.8 -36.2 Q-221.15 -36.2 -221.15 -47.55 L-221.15 -142.45 Q-221.15 -153.8 -209.8 -153.8" fill="#2f3354" fill-opacity="0.76862746" fill-rule="evenodd" stroke="none"/>
  </g>
</svg>
