<?xml version="1.0" encoding="UTF-8" standalone="no"?>
<svg xmlns:xlink="http://www.w3.org/1999/xlink" height="65.5px" width="73.5px" xmlns="http://www.w3.org/2000/svg">
  <g transform="matrix(1.0, 0.0, 0.0, 1.0, 75.25, 43.15)">
    <path d="M-43.5 7.3 Q-52.6 15.4 -58.3 11.2 L-59.8 9.75 Q-57.7 10.25 -56.95 8.8 L-58.6 8.65 Q-54.95 6.7 -56.05 2.25 -56.9 -1.8 -63.8 -5.5 -71.4 -9.55 -72.8 -15.15 L-74.1 -14.4 Q-74.7 -17.2 -74.2 -20.1 -75.05 -23.15 -71.95 -27.45 L-73.65 -26.9 -72.15 -28.1 Q-69.95 -29.75 -66.55 -30.6 L-63.05 -31.35 -60.35 -31.5 -58.45 -31.4 Q-58.45 -32.0 -57.5 -33.55 -56.6 -35.1 -52.45 -37.8 L-52.25 -38.4 -53.75 -37.9 Q-53.1 -38.95 -51.5 -39.95 L-49.65 -41.05 -50.9 -41.9 Q-44.35 -43.75 -37.55 -37.9 -30.35 -31.45 -26.9 -23.05 -23.2 -10.5 -19.25 -5.7 -14.1 0.6 -6.8 0.1 -5.05 -0.2 -4.1 0.45 L-3.75 0.75 -3.65 0.9 Q-2.2 3.2 -2.7 7.4 L-3.35 10.0 Q-5.35 15.35 -11.45 19.5 -15.8 21.95 -17.45 20.45 -23.5 22.35 -25.8 20.95 L-22.85 20.0 Q-34.35 18.7 -37.4 15.4 L-34.4 15.4 Q-40.05 11.65 -43.5 7.3 -46.25 3.75 -47.55 -0.2 -49.0 -5.35 -51.7 -8.8 -55.05 -12.95 -58.05 -13.25 -59.1 -12.95 -59.55 -12.55 -60.25 -11.8 -59.35 -10.45 M-58.05 -13.25 L-58.35 -13.6 Q-59.55 -15.05 -61.45 -14.7 M-17.45 20.45 L-14.55 19.4" fill="none" stroke="#000000" stroke-linecap="round" stroke-linejoin="round" stroke-width="1.6"/>
  </g>
</svg>
