<?xml version="1.0" encoding="UTF-8" standalone="no"?>
<svg xmlns:xlink="http://www.w3.org/1999/xlink" height="287.8px" width="513.45px" xmlns="http://www.w3.org/2000/svg">
  <g transform="matrix(1.0, 0.0, 0.0, 1.0, 266.75, 159.55)">
    <path d="M-232.45 -159.55 L235.35 -159.55 Q246.7 -159.55 246.7 -148.2 L246.7 -64.8 Q246.7 -53.45 235.35 -53.45 L-232.45 -53.45 Q-243.8 -53.45 -243.8 -64.8 L-243.8 -148.2 Q-243.8 -159.55 -232.45 -159.55 M-256.3 -44.05 L-110.85 -44.05 Q-100.4 -44.05 -100.4 -33.6 L-100.4 117.8 Q-100.4 128.25 -110.85 128.25 L-256.3 128.25 Q-266.75 128.25 -266.75 117.8 L-266.75 -33.6 Q-266.75 -44.05 -256.3 -44.05" fill="#2f3354" fill-opacity="0.76862746" fill-rule="evenodd" stroke="none"/>
  </g>
</svg>
