<?xml version="1.0" encoding="UTF-8" standalone="no"?>
<svg xmlns:xlink="http://www.w3.org/1999/xlink" height="169.55px" width="407.5px" xmlns="http://www.w3.org/2000/svg">
  <g transform="matrix(1.0, 0.0, 0.0, 1.0, 199.85, 152.6)">
    <path d="M-54.95 -54.1 L64.4 -54.1 Q75.85 -54.1 83.9 -46.05 91.95 -38.0 91.95 -26.55 L91.95 -10.65 Q91.95 0.8 83.9 8.85 75.85 16.95 64.4 16.95 L-54.95 16.95 Q-66.4 16.95 -74.5 8.85 -82.55 0.8 -82.55 -10.65 L-82.55 -26.55 Q-82.55 -38.0 -74.5 -46.05 -66.4 -54.1 -54.95 -54.1 M-180.35 -152.6 L188.15 -152.6 Q207.65 -152.6 207.65 -133.1 L207.65 -96.45 Q207.65 -76.95 188.15 -76.95 L-180.35 -76.95 Q-199.85 -76.95 -199.85 -96.45 L-199.85 -133.1 Q-199.85 -152.6 -180.35 -152.6" fill="#2f3354" fill-opacity="0.76862746" fill-rule="evenodd" stroke="none"/>
  </g>
</svg>
