<?xml version="1.0" encoding="UTF-8" standalone="no"?>
<svg xmlns:xlink="http://www.w3.org/1999/xlink" height="72.3px" width="287.45px" xmlns="http://www.w3.org/2000/svg">
  <g transform="matrix(1.0, 0.0, 0.0, 1.0, 140.55, -39.75)">
    <path d="M-124.0 40.75 L130.4 40.75 Q145.9 40.75 145.9 56.3 L145.9 95.5 Q145.9 111.05 130.4 111.05 L-124.0 111.05 Q-139.55 111.05 -139.55 95.5 L-139.55 56.3 Q-139.55 40.75 -124.0 40.75" fill="url(#gradient0)" fill-rule="evenodd" stroke="none"/>
    <path d="M-124.0 40.75 L130.4 40.75 Q145.9 40.75 145.9 56.3 L145.9 95.5 Q145.9 111.05 130.4 111.05 L-124.0 111.05 Q-139.55 111.05 -139.55 95.5 L-139.55 56.3 Q-139.55 40.75 -124.0 40.75 Z" fill="none" stroke="#29195b" stroke-linecap="round" stroke-linejoin="round" stroke-opacity="0.40784314" stroke-width="2.0"/>
  </g>
  <defs>
    <linearGradient gradientTransform="matrix(0.0, 0.0429, -0.1742, 0.0, 3.15, 75.85)" gradientUnits="userSpaceOnUse" id="gradient0" spreadMethod="pad" x1="-819.2" x2="819.2">
      <stop offset="0.0" stop-color="#a6a2dc"/>
      <stop offset="1.0" stop-color="#a7b3f7"/>
    </linearGradient>
  </defs>
</svg>
