<?xml version="1.0" encoding="UTF-8" standalone="no"?>
<svg xmlns:xlink="http://www.w3.org/1999/xlink" height="104.75px" width="187.75px" xmlns="http://www.w3.org/2000/svg">
  <g transform="matrix(1.0, 0.0, 0.0, 1.0, 93.85, 50.85)">
    <path d="M74.05 -48.25 Q93.9 -48.25 93.9 -28.85 L93.9 34.5 Q93.9 53.9 74.05 53.9 L-74.0 53.9 Q-93.85 53.9 -93.85 34.5 L-93.85 -28.85 Q-93.85 -48.25 -74.0 -48.25 L74.05 -48.25" fill="#392e6d" fill-opacity="0.5294118" fill-rule="evenodd" stroke="none"/>
    <path d="M75.1 -48.6 Q90.2 -48.6 90.2 -33.5 L90.2 32.8 Q89.8 47.15 75.1 47.15 L-75.05 47.15 Q-89.75 47.15 -90.15 32.8 L-90.15 -33.5 Q-90.15 -48.6 -75.05 -48.6 L75.1 -48.6" fill="url(#gradient0)" fill-rule="evenodd" stroke="none"/>
    <path d="M-75.05 -50.35 L75.1 -50.35 Q92.7 -50.35 92.7 -32.75 L92.7 32.8 Q92.7 50.4 75.1 50.4 L-75.05 50.4 Q-92.65 50.4 -92.65 32.8 L-92.65 -32.75 Q-92.65 -50.35 -75.05 -50.35 M75.1 -48.6 L-75.05 -48.6 Q-90.15 -48.6 -90.15 -33.5 L-90.15 32.8 Q-89.75 47.15 -75.05 47.15 L75.1 47.15 Q89.8 47.15 90.2 32.8 L90.2 -33.5 Q90.2 -48.6 75.1 -48.6" fill="url(#gradient1)" fill-rule="evenodd" stroke="none"/>
    <path d="M-75.05 -50.35 L75.1 -50.35 Q92.7 -50.35 92.7 -32.75 L92.7 32.8 Q92.7 50.4 75.1 50.4 L-75.05 50.4 Q-92.65 50.4 -92.65 32.8 L-92.65 -32.75 Q-92.65 -50.35 -75.05 -50.35 Z" fill="none" stroke="#271856" stroke-linecap="round" stroke-linejoin="round" stroke-opacity="0.5764706" stroke-width="1.0"/>
  </g>
  <defs>
    <linearGradient gradientTransform="matrix(0.0, 0.0582, -0.1101, 0.0, 0.05, 4.25)" gradientUnits="userSpaceOnUse" id="gradient0" spreadMethod="pad" x1="-819.2" x2="819.2">
      <stop offset="0.0" stop-color="#d7defa"/>
      <stop offset="1.0" stop-color="#c2c4ff"/>
    </linearGradient>
    <linearGradient gradientTransform="matrix(0.0, 0.0582, -0.1131, 0.0, 0.05, 0.2)" gradientUnits="userSpaceOnUse" id="gradient1" spreadMethod="pad" x1="-819.2" x2="819.2">
      <stop offset="0.0" stop-color="#7c71aa"/>
      <stop offset="1.0" stop-color="#a69ce7"/>
    </linearGradient>
  </defs>
</svg>
