<?xml version="1.0" encoding="UTF-8" standalone="no"?>
<svg xmlns:xlink="http://www.w3.org/1999/xlink" height="80.8px" width="57.05px" xmlns="http://www.w3.org/2000/svg">
  <g transform="matrix(1.0, 0.0, 0.0, 1.0, 33.4, 7.25)">
    <path d="M16.35 26.8 L16.4 25.9 Q17.35 8.2 20.95 -2.7 14.45 -5.65 12.25 -1.35 L12.2 -1.3 Q8.25 17.3 8.6 32.05 L8.6 34.1 8.6 34.8 8.55 35.7 Q8.35 43.35 8.7 50.9 9.0 57.25 9.7 63.6 16.35 64.8 21.7 61.9 L16.35 27.5 M22.6 69.85 L21.7 65.95 19.1 66.95 19.75 69.45 19.8 69.9 15.55 70.35 14.85 67.6 12.25 67.55 11.75 67.5 12.7 71.25 12.9 72.45 22.95 71.7 22.65 70.2 M21.7 65.95 L22.8 65.25 22.35 64.1 21.9 63.05 21.7 61.9 M9.7 63.6 L10.05 67.25 11.75 67.5 M14.85 67.6 L19.1 66.95 M-19.3 63.3 Q-18.4 51.0 -14.45 37.4 L-11.6 28.75 Q-5.55 9.15 -3.6 -4.7 -7.8 -7.7 -11.25 -5.8 -13.05 5.05 -16.85 15.55 L-16.85 15.65 -16.9 16.0 -17.05 16.25 -17.1 16.3 Q-32.65 52.3 -32.5 61.75 -28.55 63.6 -19.3 63.3 L-19.4 66.4 -20.65 66.55 -20.35 72.85 -31.6 72.0 -31.7 65.2 -32.7 64.75 -32.5 61.75 M-16.85 15.65 L-17.1 16.3 M-31.7 65.2 L-28.25 66.4 -23.95 66.75 -21.35 66.65 -21.05 66.6 -20.65 66.55 M-28.25 66.4 L-28.5 68.6 -28.45 69.35 -23.8 69.65 -23.95 66.75" fill="none" stroke="#000000" stroke-linecap="round" stroke-linejoin="round" stroke-width="1.4000000000000001"/>
  </g>
</svg>
