<?xml version="1.0" encoding="UTF-8" standalone="no"?>
<svg xmlns:xlink="http://www.w3.org/1999/xlink" height="82.95px" width="643.75px" xmlns="http://www.w3.org/2000/svg">
  <g transform="matrix(1.0, 0.0, 0.0, 1.0, 323.05, 53.8)">
    <path d="M291.0 24.45 L291.0 25.5 -293.95 25.5 -294.0 24.45 Q-294.0 -7.85 -208.4 -30.85 -122.7 -53.8 -1.55 -53.8 119.65 -53.8 205.3 -30.85 291.0 -7.85 291.0 24.45" fill="url(#gradient0)" fill-rule="evenodd" stroke="none"/>
    <path d="M320.7 24.55 Q320.7 26.5 226.4 27.85 132.15 29.15 -1.2 29.15 -134.5 29.15 -228.8 27.85 -323.05 26.5 -323.05 24.55 -323.05 22.65 -228.8 21.3 -134.5 19.95 -1.2 19.95 132.15 19.95 226.4 21.3 320.7 22.65 320.7 24.55" fill="url(#gradient1)" fill-rule="evenodd" stroke="none"/>
  </g>
  <defs>
    <radialGradient cx="0" cy="0" gradientTransform="matrix(0.3598, 0.0, 0.0, 0.096, -1.4, 24.35)" gradientUnits="userSpaceOnUse" id="gradient0" r="819.2" spreadMethod="pad">
      <stop offset="0.4627450980392157" stop-color="#ffffff" stop-opacity="0.65882355"/>
      <stop offset="1.0" stop-color="#ffffff" stop-opacity="0.0"/>
    </radialGradient>
    <radialGradient cx="0" cy="0" gradientTransform="matrix(0.3959, 0.0, 0.0, 0.0056, -1.15, 24.55)" gradientUnits="userSpaceOnUse" id="gradient1" r="819.2" spreadMethod="pad">
      <stop offset="0.5490196078431373" stop-color="#ffffff" stop-opacity="0.8784314"/>
      <stop offset="1.0" stop-color="#ffffff" stop-opacity="0.0"/>
    </radialGradient>
  </defs>
</svg>
