<?xml version="1.0" encoding="UTF-8" standalone="no"?>
<svg xmlns:xlink="http://www.w3.org/1999/xlink" height="394.4px" width="569.45px" xmlns="http://www.w3.org/2000/svg">
  <g transform="matrix(1.0, 0.0, 0.0, 1.0, 953.8, 133.85)">
    <path d="M-505.55 222.85 L-403.4 222.85 Q-395.7 222.85 -390.25 228.25 -384.85 233.7 -384.85 241.4 L-384.85 241.45 Q-384.85 249.2 -390.25 254.6 -395.7 260.05 -403.4 260.05 L-505.55 260.05 Q-513.3 260.05 -518.7 254.6 -524.15 249.2 -524.15 241.45 L-524.15 241.4 Q-524.15 233.7 -518.7 228.25 -513.3 222.85 -505.55 222.85 M-648.7 222.85 L-546.55 222.85 Q-538.85 222.85 -533.4 228.25 -527.95 233.7 -527.95 241.4 L-527.95 241.45 Q-527.95 249.2 -533.4 254.6 -538.85 260.05 -546.55 260.05 L-648.7 260.05 Q-656.4 260.05 -661.85 254.6 -667.3 249.2 -667.3 241.45 L-667.3 241.4 Q-667.3 233.7 -661.85 228.25 -656.4 222.85 -648.7 222.85 M-934.75 222.85 L-832.6 222.85 Q-824.85 222.85 -819.45 228.25 -814.0 233.7 -814.0 241.4 L-814.0 241.45 Q-814.0 249.2 -819.45 254.6 -824.85 260.05 -832.6 260.05 L-934.75 260.05 Q-942.45 260.05 -947.9 254.6 -953.3 249.2 -953.3 241.45 L-953.3 241.4 Q-953.3 233.7 -947.9 228.25 -942.45 222.85 -934.75 222.85 M-791.6 222.85 L-689.45 222.85 Q-681.75 222.85 -676.3 228.25 -670.85 233.7 -670.85 241.4 L-670.85 241.45 Q-670.85 249.2 -676.3 254.6 -681.75 260.05 -689.45 260.05 L-791.6 260.05 Q-799.3 260.05 -804.75 254.6 -810.2 249.2 -810.2 241.45 L-810.2 241.4 Q-810.2 233.7 -804.75 228.25 -799.3 222.85 -791.6 222.85" fill="#10112c" fill-opacity="0.42745098" fill-rule="evenodd" stroke="none"/>
    <path d="M-937.7 -133.85 L-402.0 -133.85 Q-389.0 -133.85 -389.0 -120.85 L-389.0 176.15 Q-389.0 189.15 -402.0 189.15 L-937.7 189.15 Q-950.7 189.15 -950.7 176.15 L-950.7 -120.85 Q-950.7 -133.85 -937.7 -133.85" fill="#101535" fill-opacity="0.44705883" fill-rule="evenodd" stroke="none"/>
    <path d="M-505.55 222.85 L-403.4 222.85 Q-395.7 222.85 -390.25 228.25 -384.85 233.7 -384.85 241.4 L-384.85 241.45 Q-384.85 249.2 -390.25 254.6 -395.7 260.05 -403.4 260.05 L-505.55 260.05 Q-513.3 260.05 -518.7 254.6 -524.15 249.2 -524.15 241.45 L-524.15 241.4 Q-524.15 233.7 -518.7 228.25 -513.3 222.85 -505.55 222.85 M-648.7 222.85 L-546.55 222.85 Q-538.85 222.85 -533.4 228.25 -527.95 233.7 -527.95 241.4 L-527.95 241.45 Q-527.95 249.2 -533.4 254.6 -538.85 260.05 -546.55 260.05 L-648.7 260.05 Q-656.4 260.05 -661.85 254.6 -667.3 249.2 -667.3 241.45 L-667.3 241.4 Q-667.3 233.7 -661.85 228.25 -656.4 222.85 -648.7 222.85 M-934.75 222.85 L-832.6 222.85 Q-824.85 222.85 -819.45 228.25 -814.0 233.7 -814.0 241.4 L-814.0 241.45 Q-814.0 249.2 -819.45 254.6 -824.85 260.05 -832.6 260.05 L-934.75 260.05 Q-942.45 260.05 -947.9 254.6 -953.3 249.2 -953.3 241.45 L-953.3 241.4 Q-953.3 233.7 -947.9 228.25 -942.45 222.85 -934.75 222.85 M-791.6 222.85 L-689.45 222.85 Q-681.75 222.85 -676.3 228.25 -670.85 233.7 -670.85 241.4 L-670.85 241.45 Q-670.85 249.2 -676.3 254.6 -681.75 260.05 -689.45 260.05 L-791.6 260.05 Q-799.3 260.05 -804.75 254.6 -810.2 249.2 -810.2 241.45 L-810.2 241.4 Q-810.2 233.7 -804.75 228.25 -799.3 222.85 -791.6 222.85" fill="none" stroke="#ffffff" stroke-linecap="round" stroke-linejoin="round" stroke-opacity="0.25882354" stroke-width="1.0"/>
    <path d="M-921.7 99.2 L-775.2 99.2 Q-772.25 99.2 -769.65 100.0 -766.6 100.95 -764.0 103.05 L-762.35 104.5 Q-757.0 109.85 -757.0 117.4 L-757.0 117.45 Q-757.0 125.0 -762.35 130.3 L-764.0 131.8 Q-768.8 135.65 -775.2 135.65 L-921.7 135.65 Q-929.25 135.65 -934.6 130.3 -939.9 125.0 -939.9 117.45 L-939.9 117.4 Q-939.9 109.85 -934.6 104.5 -931.35 101.25 -927.2 100.0 -924.65 99.2 -921.7 99.2 M-921.7 141.55 L-775.2 141.55 Q-772.25 141.55 -769.65 142.35 -766.6 143.3 -764.0 145.4 L-762.35 146.85 Q-757.0 152.2 -757.0 159.75 L-757.0 159.8 Q-757.0 167.35 -762.35 172.65 L-764.0 174.15 Q-768.8 178.0 -775.2 178.0 L-921.7 178.0 Q-929.25 178.0 -934.6 172.65 -939.9 167.35 -939.9 159.8 L-939.9 159.75 Q-939.9 152.2 -934.6 146.85 -931.35 143.6 -927.2 142.35 -924.65 141.55 -921.7 141.55" fill="#10112a" fill-opacity="0.26666668" fill-rule="evenodd" stroke="none"/>
    <path d="M-921.7 99.2 L-775.2 99.2 Q-772.25 99.2 -769.65 100.0 -766.6 100.95 -764.0 103.05 L-762.35 104.5 Q-757.0 109.85 -757.0 117.4 L-757.0 117.45 Q-757.0 125.0 -762.35 130.3 L-764.0 131.8 Q-768.8 135.65 -775.2 135.65 L-921.7 135.65 Q-929.25 135.65 -934.6 130.3 -939.9 125.0 -939.9 117.45 L-939.9 117.4 Q-939.9 109.85 -934.6 104.5 -931.35 101.25 -927.2 100.0 -924.65 99.2 -921.7 99.2 M-921.7 141.55 L-775.2 141.55 Q-772.25 141.55 -769.65 142.35 -766.6 143.3 -764.0 145.4 L-762.35 146.85 Q-757.0 152.2 -757.0 159.75 L-757.0 159.8 Q-757.0 167.35 -762.35 172.65 L-764.0 174.15 Q-768.8 178.0 -775.2 178.0 L-921.7 178.0 Q-929.25 178.0 -934.6 172.65 -939.9 167.35 -939.9 159.8 L-939.9 159.75 Q-939.9 152.2 -934.6 146.85 -931.35 143.6 -927.2 142.35 -924.65 141.55 -921.7 141.55" fill="none" stroke="#ffffff" stroke-linecap="round" stroke-linejoin="round" stroke-opacity="0.25882354" stroke-width="1.0"/>
    <path d="M-900.25 -93.45 L-733.45 -93.45 M-900.25 -24.6 L-733.45 -24.6 M-900.25 47.45 L-733.45 47.45 M-673.15 -92.75 L-472.3 -92.75" fill="none" stroke="#c3c8e5" stroke-linecap="round" stroke-linejoin="round" stroke-opacity="0.5882353" stroke-width="2.0"/>
  </g>
</svg>
