<?xml version="1.0" encoding="UTF-8" standalone="no"?>
<svg xmlns:xlink="http://www.w3.org/1999/xlink" height="567.65px" width="988.65px" xmlns="http://www.w3.org/2000/svg">
  <g transform="matrix(1.0, 0.0, 0.0, 1.0, 1156.85, 252.05)">
    <path d="M-1156.85 -252.05 L-168.2 -252.05 -168.2 315.6 -1156.85 315.6 -1156.85 -252.05" fill="#0b0b19" fill-opacity="0.54901963" fill-rule="evenodd" stroke="none"/>
    <path d="M-960.3 -143.9 L-960.3 -184.45 Q-960.3 -193.4 -953.95 -199.75 -947.6 -206.1 -938.65 -206.1 L-399.95 -206.1 Q-391.0 -206.1 -384.65 -199.75 -378.3 -193.4 -378.3 -184.45 L-378.3 -143.9 -960.3 -143.9" fill="url(#gradient0)" fill-rule="evenodd" stroke="none"/>
    <path d="M-378.3 -143.9 L-378.3 244.85 Q-378.3 253.8 -384.65 260.15 -391.0 266.5 -399.95 266.5 L-938.65 266.5 Q-947.6 266.5 -953.95 260.15 -960.3 253.8 -960.3 244.85 L-960.3 -143.9 -378.3 -143.9" fill="url(#gradient1)" fill-rule="evenodd" stroke="none"/>
    <path d="M-960.3 -143.9 L-960.3 -184.45 Q-960.3 -193.4 -953.95 -199.75 -947.6 -206.1 -938.65 -206.1 L-399.95 -206.1 Q-391.0 -206.1 -384.65 -199.75 -378.3 -193.4 -378.3 -184.45 L-378.3 -143.9 -378.3 244.85 Q-378.3 253.8 -384.65 260.15 -391.0 266.5 -399.95 266.5 L-938.65 266.5 Q-947.6 266.5 -953.95 260.15 -960.3 253.8 -960.3 244.85 L-960.3 -143.9 -378.3 -143.9" fill="none" stroke="#101979" stroke-linecap="round" stroke-linejoin="round" stroke-opacity="0.7764706" stroke-width="1.4000000000000001"/>
  </g>
  <defs>
    <linearGradient gradientTransform="matrix(0.0, 0.0323, -0.3552, 0.0, -669.3, -174.2)" gradientUnits="userSpaceOnUse" id="gradient0" spreadMethod="pad" x1="-819.2" x2="819.2">
      <stop offset="0.0" stop-color="#bfc1f0"/>
      <stop offset="1.0" stop-color="#d9dfff"/>
    </linearGradient>
    <linearGradient gradientTransform="matrix(0.0, 0.244, -0.3552, 0.0, -669.3, 62.75)" gradientUnits="userSpaceOnUse" id="gradient1" spreadMethod="pad" x1="-819.2" x2="819.2">
      <stop offset="0.0" stop-color="#aab5e2"/>
      <stop offset="1.0" stop-color="#9fa2e5"/>
    </linearGradient>
  </defs>
</svg>
