<?xml version="1.0" encoding="UTF-8" standalone="no"?>
<svg xmlns:xlink="http://www.w3.org/1999/xlink" height="66.3px" width="385.45px" xmlns="http://www.w3.org/2000/svg">
  <g transform="matrix(1.0, 0.0, 0.0, 1.0, 725.7, -122.35)">
    <path d="M-710.5 123.35 L-552.9 123.35 Q-538.7 123.35 -538.7 137.55 L-538.7 173.5 Q-538.7 187.65 -552.9 187.65 L-710.5 187.65 Q-724.7 187.65 -724.7 173.5 L-724.7 137.55 Q-724.7 123.35 -710.5 123.35" fill="url(#gradient0)" fill-rule="evenodd" stroke="none"/>
    <path d="M-513.05 123.35 L-355.45 123.35 Q-341.25 123.35 -341.25 137.55 L-341.25 173.5 Q-341.25 187.65 -355.45 187.65 L-513.05 187.65 Q-527.25 187.65 -527.25 173.5 L-527.25 137.55 Q-527.25 123.35 -513.05 123.35" fill="url(#gradient1)" fill-rule="evenodd" stroke="none"/>
    <path d="M-710.5 123.35 L-552.9 123.35 Q-538.7 123.35 -538.7 137.55 L-538.7 173.5 Q-538.7 187.65 -552.9 187.65 L-710.5 187.65 Q-724.7 187.65 -724.7 173.5 L-724.7 137.55 Q-724.7 123.35 -710.5 123.35" fill="none" stroke="#29195b" stroke-linecap="round" stroke-linejoin="round" stroke-opacity="0.40784314" stroke-width="2.0"/>
    <path d="M-513.05 123.35 L-355.45 123.35 Q-341.25 123.35 -341.25 137.55 L-341.25 173.5 Q-341.25 187.65 -355.45 187.65 L-513.05 187.65 Q-527.25 187.65 -527.25 173.5 L-527.25 137.55 Q-527.25 123.35 -513.05 123.35" fill="none" stroke="#100101" stroke-linecap="round" stroke-linejoin="round" stroke-opacity="0.40784314" stroke-width="2.0"/>
  </g>
  <defs>
    <linearGradient gradientTransform="matrix(0.0, 0.0343, -0.1135, 0.0, -631.7, 155.1)" gradientUnits="userSpaceOnUse" id="gradient0" spreadMethod="pad" x1="-819.2" x2="819.2">
      <stop offset="0.0" stop-color="#a6a5cb"/>
      <stop offset="1.0" stop-color="#a3abd9"/>
    </linearGradient>
    <linearGradient gradientTransform="matrix(0.0, 0.0343, -0.1135, 0.0, -434.25, 155.1)" gradientUnits="userSpaceOnUse" id="gradient1" spreadMethod="pad" x1="-819.2" x2="819.2">
      <stop offset="0.0" stop-color="#4a2222"/>
      <stop offset="1.0" stop-color="#6b3a3a"/>
    </linearGradient>
  </defs>
</svg>
