<?xml version="1.0" encoding="UTF-8" standalone="no"?>
<svg xmlns:xlink="http://www.w3.org/1999/xlink" height="86.3px" width="128.4px" xmlns="http://www.w3.org/2000/svg">
  <g transform="matrix(1.0, 0.0, 0.0, 1.0, 59.5, 13.0)">
    <path d="M26.2 -1.3 Q30.8 8.8 40.35 16.65 L42.2 18.1 45.85 21.25 42.8 15.4 41.6 13.3 Q38.9 8.6 35.55 3.65 30.8 -3.5 32.35 -7.3 L32.4 -7.4 34.35 -5.25 32.35 -8.3 Q29.35 -12.15 12.95 -12.25 -0.45 -12.3 -7.5 -7.95 L-7.65 -7.35 -8.1 -6.1 -6.65 -7.4 Q-5.9 -3.6 -10.3 4.2 L-15.6 10.3 -17.65 12.7 -23.6 20.0 -20.95 18.25 -18.9 17.0 -18.6 16.85 Q-4.5 8.25 2.55 -2.85 M-8.1 -6.1 L-9.1 -5.25 -9.65 -4.5 M-7.65 -7.35 L-9.1 -5.25 M-9.9 -4.2 L-13.5 0.05 -14.8 1.55 Q-23.2 10.9 -32.55 18.9 L-36.15 22.45 -41.25 27.9 Q-63.45 52.7 -57.45 67.75 L-57.05 68.6 -57.0 68.7 Q-57.9 64.4 -54.6 57.45 -52.55 53.1 -48.95 47.7 -52.7 57.75 -45.2 72.55 L-45.75 70.2 Q-46.3 67.4 -46.15 64.25 L-46.1 63.45 Q-45.05 51.4 -33.8 34.15 L-33.4 33.5 -32.8 32.65 -31.7 30.9 Q-28.1 25.7 -23.6 20.0 M-18.9 17.0 Q-31.2 24.95 -27.4 38.35 L-27.0 37.55 -25.95 35.0 Q-23.45 30.05 -18.8 25.9 -21.2 29.4 -21.8 32.95 L-22.0 35.5 -21.85 37.35 Q-20.05 32.25 -12.5 23.55 -11.55 20.05 -9.75 16.5 M-14.8 1.55 Q-19.55 4.9 -27.25 7.75 -41.65 12.35 -41.6 24.15 L-41.25 27.9 Q-40.6 24.75 -35.5 20.75 L-36.15 22.45 M-33.8 34.15 L-33.05 35.25 -32.7 35.8 -31.55 37.35 -31.75 36.25 Q-32.2 33.5 -31.7 30.9 M29.15 38.95 Q28.0 35.65 25.55 31.95 27.7 36.85 24.85 40.95 L24.25 41.65 23.95 39.5 23.95 39.35 23.9 39.1 Q22.8 33.3 18.15 25.15 19.65 33.55 17.45 39.7 L17.25 40.25 17.2 40.35 16.75 41.3 Q15.95 43.0 14.8 44.55 15.7 39.2 11.75 30.0 10.7 33.2 10.3 35.9 9.55 40.4 10.8 43.45 L10.75 43.4 10.55 43.15 Q3.4 35.9 4.35 25.65 -1.65 32.65 -3.75 37.9 -5.15 41.25 -5.0 43.8 L-5.25 43.3 -5.25 43.25 -5.4 43.0 Q-8.55 36.3 -5.4 29.0 -9.35 32.1 -11.2 35.7 -12.05 37.2 -12.4 38.75 L-12.5 39.1 -12.9 41.9 Q-15.05 32.55 -12.5 23.55 M34.35 -5.25 Q39.2 1.5 48.2 8.85 58.4 15.5 61.1 23.35 L61.15 23.5 61.8 25.85 Q60.5 24.3 58.75 22.9 L57.8 22.15 Q55.05 20.1 51.35 18.1 L52.8 20.05 53.55 21.2 53.8 21.65 Q74.3 49.2 65.55 65.85 L63.8 68.7 Q65.05 65.85 64.85 61.95 64.5 56.1 60.9 47.7 62.0 56.3 53.95 68.4 L51.05 72.55 51.05 72.3 51.35 71.85 Q52.6 68.8 53.45 65.65 L53.55 65.2 53.6 65.0 53.7 64.6 Q58.0 45.8 45.85 21.25 M34.35 -5.25 Q39.25 3.4 45.1 11.0 48.3 15.1 51.75 18.9 L52.5 19.95 53.45 21.15 53.8 21.65 M40.35 16.65 Q48.75 28.7 47.9 38.3 L47.5 40.95 47.0 42.65 Q45.9 36.9 41.05 30.15 43.7 36.55 41.45 39.6 L40.3 40.75 39.0 41.5 Q39.0 33.25 28.8 19.6 35.05 33.0 30.9 43.15 L30.25 44.7 30.25 44.0 30.2 43.35 29.8 41.4 29.25 39.25 M28.8 19.6 L27.5 17.85 M18.15 25.15 L15.2 20.3 M4.35 25.65 L4.75 22.9 M41.05 30.15 Q39.45 27.8 37.45 25.5" fill="none" stroke="#000000" stroke-linecap="round" stroke-linejoin="round" stroke-width="1.5"/>
  </g>
</svg>
