<?xml version="1.0" encoding="UTF-8" standalone="no"?>
<svg xmlns:xlink="http://www.w3.org/1999/xlink" height="574.65px" width="994.2px" xmlns="http://www.w3.org/2000/svg">
  <g transform="matrix(1.0, 0.0, 0.0, 1.0, 1141.2, 356.55)">
    <path d="M-1141.2 -356.55 L-147.0 -356.55 -147.0 218.1 -1141.2 218.1 -1141.2 -356.55" fill="#2b2551" fill-opacity="0.54901963" fill-rule="evenodd" stroke="none"/>
    <path d="M-947.75 -251.45 L-947.75 -292.9 Q-947.75 -302.05 -941.25 -308.55 -934.75 -315.05 -925.6 -315.05 L-374.95 -315.05 Q-365.8 -315.05 -359.3 -308.55 -352.8 -302.05 -352.8 -292.9 L-352.8 -251.45 -947.75 -251.45" fill="url(#gradient0)" fill-rule="evenodd" stroke="none"/>
    <path d="M-352.8 -251.45 L-352.8 145.95 Q-352.8 155.1 -359.3 161.6 -365.8 168.05 -374.95 168.05 L-925.6 168.05 Q-934.75 168.05 -941.25 161.6 -947.75 155.1 -947.75 145.95 L-947.75 -251.45 -352.8 -251.45" fill="url(#gradient1)" fill-rule="evenodd" stroke="none"/>
    <path d="M-947.75 -251.45 L-947.75 -292.9 Q-947.75 -302.05 -941.25 -308.55 -934.75 -315.05 -925.6 -315.05 L-374.95 -315.05 Q-365.8 -315.05 -359.3 -308.55 -352.8 -302.05 -352.8 -292.9 L-352.8 -251.45 -352.8 145.95 Q-352.8 155.1 -359.3 161.6 -365.8 168.05 -374.95 168.05 L-925.6 168.05 Q-934.75 168.05 -941.25 161.6 -947.75 155.1 -947.75 145.95 L-947.75 -251.45 -352.8 -251.45" fill="none" stroke="#101979" stroke-linecap="round" stroke-linejoin="round" stroke-opacity="0.7764706" stroke-width="1.4000000000000001"/>
  </g>
  <defs>
    <linearGradient gradientTransform="matrix(0.0, 0.0331, -0.3631, 0.0, -650.25, -282.4)" gradientUnits="userSpaceOnUse" id="gradient0" spreadMethod="pad" x1="-819.2" x2="819.2">
      <stop offset="0.0" stop-color="#bfc1f0"/>
      <stop offset="1.0" stop-color="#d9dfff"/>
    </linearGradient>
    <linearGradient gradientTransform="matrix(0.0, 0.2495, -0.3631, 0.0, -650.25, -40.2)" gradientUnits="userSpaceOnUse" id="gradient1" spreadMethod="pad" x1="-819.2" x2="819.2">
      <stop offset="0.0" stop-color="#aab5e2"/>
      <stop offset="1.0" stop-color="#9fa2e5"/>
    </linearGradient>
  </defs>
</svg>
