<?xml version="1.0" encoding="UTF-8" standalone="no"?>
<svg xmlns:xlink="http://www.w3.org/1999/xlink" height="105.35px" width="62.95px" xmlns="http://www.w3.org/2000/svg">
  <g transform="matrix(1.0, 0.0, 0.0, 1.0, 43.05, 78.8)">
    <path d="M8.55 -45.65 L12.1 -44.1 Q16.15 -45.3 16.8 -47.3 21.05 -57.4 16.8 -67.55 11.05 -75.9 5.5 -77.45 L4.9 -77.55 Q-1.3 -78.35 -6.65 -76.55 -9.55 -75.5 -10.1 -72.95 -9.95 -70.05 -12.35 -68.7 -16.85 -66.4 -13.8 -62.0 -7.3 -53.7 -0.5 -48.8 4.3 -47.4 8.55 -45.65 M12.3 -41.25 Q13.55 -42.9 12.1 -44.1 M12.3 -41.25 Q13.8 -40.2 12.3 -37.1 9.35 -33.25 6.7 -28.1 0.55 -16.15 -3.7 2.8 L-6.05 22.3 Q-6.65 26.25 -10.45 25.4 -14.2 25.05 -17.4 23.85 -21.25 22.3 -24.25 19.25 -27.3 14.05 -25.35 8.9 -19.75 -8.0 -8.7 -20.85 L-6.35 -23.95 -19.85 -14.25 Q-26.3 -9.45 -29.8 -8.35 L-32.35 -8.15 Q-36.3 -8.9 -35.65 -19.8 -35.2 -22.7 -37.4 -27.2 L-37.85 -28.1 Q-40.9 -34.0 -41.75 -41.45 -43.05 -50.85 -38.5 -52.2 -28.4 -54.75 -13.75 -51.95 -6.65 -50.65 -0.5 -48.8 M12.3 -41.25 Q4.55 -36.55 -2.9 -28.1 L-6.35 -23.95" fill="none" stroke="#000000" stroke-linecap="round" stroke-linejoin="round" stroke-width="2.0"/>
    <path d="M8.55 -45.65 Q7.1 -52.8 -0.95 -64.85 M8.55 -45.65 Q11.0 -52.9 8.55 -63.5 M12.3 -41.25 Q-5.2 -40.3 -23.75 -32.55 M-24.85 -41.25 Q-6.65 -44.4 12.3 -41.25" fill="none" stroke="#000000" stroke-linecap="round" stroke-linejoin="round" stroke-width="1.4000000000000001"/>
  </g>
</svg>
