<?xml version="1.0" encoding="UTF-8" standalone="no"?>
<svg xmlns:xlink="http://www.w3.org/1999/xlink" height="24.85px" width="26.45px" xmlns="http://www.w3.org/2000/svg">
  <g transform="matrix(1.0, 0.0, 0.0, 1.0, 13.25, 12.4)">
    <path d="M8.9 -12.4 L8.85 -9.3 10.9 -9.3 Q12.65 -8.7 13.15 -7.2 13.65 -4.5 10.5 -1.2 7.3 2.1 2.75 2.95 2.3 9.1 5.7 10.2 L5.7 12.45 -5.7 12.45 -5.7 10.2 Q-2.35 9.1 -2.8 2.95 -7.3 2.1 -10.5 -1.2 -13.7 -4.5 -13.15 -7.2 -12.7 -8.7 -10.9 -9.3 L-8.85 -9.3 -8.9 -12.4 8.9 -12.4 M-0.05 -10.1 L-1.25 -6.8 -4.85 -6.7 -1.95 -4.55 -2.95 -1.15 -0.1 -3.15 2.8 -1.15 1.8 -4.55 4.6 -6.7 1.1 -6.8 -0.05 -10.1 M6.65 -1.7 L6.4 -1.3 Q8.25 -1.9 9.4 -3.65 10.6 -5.45 10.1 -6.05 L8.3 -6.15 Q7.75 -3.65 6.65 -1.7 M-6.65 -1.7 Q-7.7 -3.65 -8.3 -6.15 L-10.1 -6.05 Q-10.65 -5.45 -9.4 -3.65 -8.25 -1.9 -6.45 -1.3 L-6.65 -1.7" fill="#3e406d" fill-rule="evenodd" stroke="none"/>
  </g>
</svg>
