<?xml version="1.0" encoding="UTF-8" standalone="no"?>
<svg xmlns:xlink="http://www.w3.org/1999/xlink" height="178.45px" width="207.6px" xmlns="http://www.w3.org/2000/svg">
  <g transform="matrix(1.0, 0.0, 0.0, 1.0, 128.35, 88.8)">
    <path d="M78.0 53.6 L78.0 78.8 Q78.0 88.4 68.4 88.4 L-117.5 88.4 Q-127.1 88.4 -127.1 78.8 L-127.1 53.6 78.0 53.6" fill="url(#gradient0)" fill-rule="evenodd" stroke="none"/>
    <path d="M-127.1 -60.65 L-127.1 -77.95 Q-127.1 -87.55 -117.5 -87.55 L68.4 -87.55 Q78.0 -87.55 78.0 -77.95 L78.0 -60.65 -127.1 -60.65" fill="url(#gradient1)" fill-rule="evenodd" stroke="none"/>
    <path d="M78.0 -60.65 L78.0 53.6 -127.1 53.6 -127.1 -60.65 78.0 -60.65" fill="#c0c2e7" fill-opacity="0.2" fill-rule="evenodd" stroke="none"/>
    <path d="M-127.1 -60.65 L-127.1 -77.95 Q-127.1 -87.55 -117.5 -87.55 L68.4 -87.55 Q78.0 -87.55 78.0 -77.95 L78.0 -60.65 78.0 53.6 78.0 78.8 Q78.0 88.4 68.4 88.4 L-117.5 88.4 Q-127.1 88.4 -127.1 78.8 L-127.1 53.6 -127.1 -60.65 78.0 -60.65 M-127.1 53.6 L78.0 53.6" fill="none" stroke="#1e2035" stroke-linecap="round" stroke-linejoin="round" stroke-opacity="0.6392157" stroke-width="2.5"/>
  </g>
  <defs>
    <linearGradient gradientTransform="matrix(0.1252, 0.0, 0.0, 0.0212, -24.55, 71.0)" gradientUnits="userSpaceOnUse" id="gradient0" spreadMethod="pad" x1="-819.2" x2="819.2">
      <stop offset="0.0392156862745098" stop-color="#e0d9ff" stop-opacity="0.84705883"/>
      <stop offset="1.0" stop-color="#bfc5ff" stop-opacity="0.84705883"/>
    </linearGradient>
    <linearGradient gradientTransform="matrix(0.0, -0.0164, 0.1252, 0.0, -24.55, -74.1)" gradientUnits="userSpaceOnUse" id="gradient1" spreadMethod="pad" x1="-819.2" x2="819.2">
      <stop offset="0.0" stop-color="#52497b" stop-opacity="0.9490196"/>
      <stop offset="1.0" stop-color="#46487e" stop-opacity="0.9490196"/>
    </linearGradient>
  </defs>
</svg>
