<?xml version="1.0" encoding="UTF-8" standalone="no"?>
<svg xmlns:xlink="http://www.w3.org/1999/xlink" height="351.65px" width="410.4px" xmlns="http://www.w3.org/2000/svg">
  <g transform="matrix(1.0, 0.0, 0.0, 1.0, 204.2, 155.0)">
    <path d="M-188.5 -100.9 L188.45 -100.9 Q202.45 -100.9 202.45 -86.9 L202.45 79.05 Q202.45 93.05 188.45 93.05 L-188.5 93.05 Q-202.5 93.05 -202.5 79.05 L-202.5 -86.9 Q-202.5 -100.9 -188.5 -100.9 Z" fill="none" stroke="#131731" stroke-linecap="round" stroke-linejoin="round" stroke-opacity="0.627451" stroke-width="2.0"/>
    <path d="M187.5 -155.0 Q200.15 -155.0 200.15 -142.35 L200.15 -121.15 Q200.15 -108.5 187.5 -108.5 L-172.2 -108.5 -172.2 -155.0 187.5 -155.0 M-191.55 98.55 L193.55 98.55 Q206.2 98.55 206.2 111.2 L206.2 184.0 Q206.2 196.65 193.55 196.65 L-191.55 196.65 Q-204.2 196.65 -204.2 184.0 L-204.2 111.2 Q-204.2 98.55 -191.55 98.55" fill="#d4d8ff" fill-opacity="0.6666667" fill-rule="evenodd" stroke="none"/>
  </g>
</svg>
