<?xml version="1.0" encoding="UTF-8" standalone="no"?>
<svg xmlns:xlink="http://www.w3.org/1999/xlink" height="365.95px" width="838.95px" xmlns="http://www.w3.org/2000/svg">
  <g transform="matrix(1.0, 0.0, 0.0, 1.0, 419.45, 182.95)">
    <path d="M-403.8 -181.95 L403.85 -181.95 Q418.5 -181.95 418.5 -167.3 L418.5 167.35 Q418.5 182.0 403.85 182.0 L-403.8 182.0 Q-418.45 182.0 -418.45 167.35 L-418.45 -167.3 Q-418.45 -181.95 -403.8 -181.95" fill="#6c67a6" fill-opacity="0.47843137" fill-rule="evenodd" stroke="none"/>
    <path d="M-403.8 -181.95 L403.85 -181.95 Q418.5 -181.95 418.5 -167.3 L418.5 167.35 Q418.5 182.0 403.85 182.0 L-403.8 182.0 Q-418.45 182.0 -418.45 167.35 L-418.45 -167.3 Q-418.45 -181.95 -403.8 -181.95 Z" fill="none" stroke="#131731" stroke-linecap="round" stroke-linejoin="round" stroke-opacity="0.627451" stroke-width="2.0"/>
  </g>
</svg>
