<?xml version="1.0" encoding="UTF-8" standalone="no"?>
<svg xmlns:xlink="http://www.w3.org/1999/xlink" height="57.05px" width="77.0px" xmlns="http://www.w3.org/2000/svg">
  <g transform="matrix(1.0, 0.0, 0.0, 1.0, 73.1, 51.55)">
    <path d="M-3.9 -4.5 Q-9.1 -9.3 -17.05 -12.65 L-21.0 -14.2 Q-25.75 -15.9 -31.95 -20.05 L-31.9 -19.8 Q-30.45 -17.25 -27.45 -15.35 L-28.05 -15.45 -28.3 -15.5 -29.1 -15.55 Q-37.35 -16.7 -43.5 -18.35 L-46.05 -19.15 Q-49.45 -20.7 -52.4 -22.7 -58.1 -26.45 -62.1 -31.65 -66.85 -37.95 -69.35 -46.2 -70.35 -49.55 -70.85 -50.7 L-71.2 -49.0 Q-73.8 -37.15 -70.05 -28.15 -67.45 -21.7 -61.8 -16.8 -57.5 -13.1 -51.5 -10.1 -49.8 -9.35 -48.15 -8.7 -42.25 -6.4 -36.25 -4.75 -40.6 -3.8 -45.75 -3.85 -39.5 -2.1 -32.9 -2.3 L-27.3 -2.7 -19.8 -1.4 Q-13.6 0.15 -8.75 2.2 -2.15 4.8 3.05 4.65 0.6 -0.45 -3.9 -4.5 Z" fill="none" stroke="#000000" stroke-linecap="round" stroke-linejoin="round" stroke-width="1.7000000000000002"/>
  </g>
</svg>
