<?xml version="1.0" encoding="UTF-8" standalone="no"?>
<svg xmlns:xlink="http://www.w3.org/1999/xlink" height="53.15px" width="64.85px" xmlns="http://www.w3.org/2000/svg">
  <g transform="matrix(1.0, 0.0, 0.0, 1.0, 204.2, 157.85)">
    <path d="M-192.35 -156.85 L-151.2 -156.85 Q-140.35 -156.85 -140.35 -146.4 L-140.35 -116.15 Q-140.35 -105.7 -151.2 -105.7 L-192.35 -105.7 Q-203.2 -105.7 -203.2 -116.15 L-203.2 -146.4 Q-203.2 -156.85 -192.35 -156.85" fill="#bab9de" fill-rule="evenodd" stroke="none"/>
    <path d="M-192.35 -156.85 L-151.2 -156.85 Q-140.35 -156.85 -140.35 -146.4 L-140.35 -116.15 Q-140.35 -105.7 -151.2 -105.7 L-192.35 -105.7 Q-203.2 -105.7 -203.2 -116.15 L-203.2 -146.4 Q-203.2 -156.85 -192.35 -156.85 Z" fill="none" stroke="#131731" stroke-linecap="round" stroke-linejoin="round" stroke-opacity="0.627451" stroke-width="2.0"/>
    <path d="M-167.1 -133.1 Q-166.25 -133.9 -165.0 -133.9 -163.8 -133.9 -162.95 -133.1 L-162.9 -133.1 Q-162.05 -132.2 -162.05 -130.95 -162.05 -129.75 -162.9 -128.85 L-162.9 -128.8 Q-163.8 -128.0 -165.0 -128.0 -166.25 -128.0 -167.1 -128.85 L-167.1 -128.8 Q-168.05 -129.75 -168.05 -130.95 -168.05 -132.2 -167.1 -133.1 M-183.15 -131.85 L-171.05 -143.7 -169.85 -144.15 Q-169.1 -144.15 -168.7 -143.65 -168.2 -143.15 -168.2 -142.5 -168.2 -141.8 -168.7 -141.35 L-179.65 -130.7 -168.75 -120.7 -168.7 -120.65 Q-168.2 -120.2 -168.2 -119.5 -168.2 -118.9 -168.6 -118.35 L-168.65 -118.3 Q-169.0 -117.9 -169.75 -117.9 -170.4 -117.9 -171.0 -118.3 L-171.05 -118.3 -183.2 -129.45 -183.25 -129.5 -183.65 -130.15 -183.65 -130.3 -183.65 -131.0 -183.65 -131.05 -183.15 -131.85" fill="#4c4d69" fill-rule="evenodd" stroke="none"/>
  </g>
</svg>
