<?xml version="1.0" encoding="UTF-8" standalone="no"?>
<svg xmlns:xlink="http://www.w3.org/1999/xlink" height="203.95px" width="412.05px" xmlns="http://www.w3.org/2000/svg">
  <g transform="matrix(1.0, 0.0, 0.0, 1.0, 206.0, 102.0)">
    <path d="M-205.0 -63.05 L-205.0 -84.35 Q-205.0 -101.0 -188.35 -101.0 L188.4 -101.0 Q205.05 -101.0 205.05 -84.35 L205.05 -63.05 -205.0 -63.05" fill="#c7c6ee" fill-opacity="0.84705883" fill-rule="evenodd" stroke="none"/>
    <path d="M205.05 -63.05 L205.05 -31.0 -205.0 -31.0 -205.0 -63.05 205.05 -63.05" fill="#5e5e87" fill-opacity="0.84705883" fill-rule="evenodd" stroke="none"/>
    <path d="M205.05 -31.0 L205.05 84.3 Q205.05 100.95 188.4 100.95 L-188.35 100.95 Q-205.0 100.95 -205.0 84.3 L-205.0 -31.0 205.05 -31.0" fill="#403d5f" fill-opacity="0.84705883" fill-rule="evenodd" stroke="none"/>
    <path d="M-205.0 -63.05 L-205.0 -84.35 Q-205.0 -101.0 -188.35 -101.0 L188.4 -101.0 Q205.05 -101.0 205.05 -84.35 L205.05 -63.05 205.05 -31.0 205.05 84.3 Q205.05 100.95 188.4 100.95 L-188.35 100.95 Q-205.0 100.95 -205.0 84.3 L-205.0 -31.0 -205.0 -63.05 205.05 -63.05 M-205.0 -31.0 L205.05 -31.0" fill="none" stroke="#131731" stroke-linecap="round" stroke-linejoin="round" stroke-opacity="0.627451" stroke-width="2.0"/>
    <path d="M127.4 -60.5 L127.4 -30.5 M-76.5 -60.5 L-76.5 -30.5 M-0.85 -60.5 L-0.85 -30.5" fill="none" stroke="#131731" stroke-linecap="round" stroke-linejoin="round" stroke-opacity="0.627451" stroke-width="2.0"/>
    <path d="M127.4 -30.5 L127.4 98.0 M-76.5 -30.5 L-76.5 98.0 M-0.85 -30.5 L-0.85 98.0" fill="none" stroke="#8d93b6" stroke-linecap="round" stroke-linejoin="round" stroke-opacity="0.627451" stroke-width="2.0"/>
  </g>
</svg>
