<?xml version="1.0" encoding="UTF-8" standalone="no"?>
<svg xmlns:xlink="http://www.w3.org/1999/xlink" height="139.35px" width="398.0px" xmlns="http://www.w3.org/2000/svg">
  <g transform="matrix(1.0, 0.0, 0.0, 1.0, -7.45, -34.35)">
    <path d="M98.95 88.5 L311.5 88.5 Q321.55 88.5 328.6 95.6 335.75 102.75 335.75 112.8 L335.75 148.45 Q335.75 158.5 328.6 165.55 321.55 172.7 311.5 172.7 L98.95 172.7 Q88.9 172.7 81.75 165.55 74.7 158.5 74.7 148.45 L74.7 112.8 Q74.7 102.75 81.75 95.6 88.9 88.5 98.95 88.5" fill="#bfbbee" fill-rule="evenodd" stroke="none"/>
    <path d="M29.55 34.35 L383.35 34.35 Q392.5 34.35 398.95 40.8 405.45 47.3 405.45 56.45 405.45 65.6 398.95 72.05 392.5 78.55 383.35 78.55 L29.55 78.55 Q20.4 78.55 13.95 72.05 7.45 65.6 7.45 56.45 7.45 47.3 13.95 40.8 20.4 34.35 29.55 34.35" fill="#d1cef0" fill-opacity="0.84705883" fill-rule="evenodd" stroke="none"/>
    <path d="M98.95 88.5 L311.5 88.5 Q321.55 88.5 328.6 95.6 335.75 102.75 335.75 112.8 L335.75 148.45 Q335.75 158.5 328.6 165.55 321.55 172.7 311.5 172.7 L98.95 172.7 Q88.9 172.7 81.75 165.55 74.7 158.5 74.7 148.45 L74.7 112.8 Q74.7 102.75 81.75 95.6 88.9 88.5 98.95 88.5 Z" fill="none" stroke="#131731" stroke-linecap="round" stroke-linejoin="round" stroke-opacity="0.627451" stroke-width="2.0"/>
  </g>
</svg>
