<?xml version="1.0" encoding="UTF-8" standalone="no"?>
<svg xmlns:xlink="http://www.w3.org/1999/xlink" height="41.35px" width="60.25px" xmlns="http://www.w3.org/2000/svg">
  <g transform="matrix(1.0, 0.0, 0.0, 1.0, 59.4, 26.3)">
    <path d="M-51.15 -23.15 Q-43.35 -27.75 -36.65 -23.1 -34.05 -21.2 -30.75 -14.2 -27.45 -7.25 -27.25 -1.7 -24.2 8.5 -12.05 2.3 -9.95 1.2 -7.85 0.65 -1.9 -0.8 -0.15 3.25 0.95 9.2 -6.4 11.15 L-17.35 13.65 Q-34.2 17.45 -38.25 -6.15 -39.1 -10.05 -40.9 -12.0 -41.75 -13.0 -42.55 -13.35 L-44.3 -13.4 Q-45.8 -12.65 -46.8 -11.2 -47.75 -9.8 -49.45 -7.95 -51.05 -6.15 -52.35 -5.75 L-54.65 -5.9 Q-56.45 -6.55 -57.6 -8.35 -59.65 -11.55 -57.35 -15.9 -55.05 -20.25 -51.15 -23.15 Z" fill="none" stroke="#000000" stroke-linecap="round" stroke-linejoin="round" stroke-width="1.7000000000000002"/>
  </g>
</svg>
