<?xml version="1.0" encoding="UTF-8" standalone="no"?>
<svg xmlns:xlink="http://www.w3.org/1999/xlink" height="92.0px" width="232.65px" xmlns="http://www.w3.org/2000/svg">
  <g transform="matrix(1.0, 0.0, 0.0, 1.0, 116.35, 46.0)">
    <path d="M-87.35 -45.0 L87.3 -45.0 Q98.9 -45.0 107.1 -36.8 115.3 -28.6 115.3 -17.0 L115.3 17.0 Q115.3 28.6 107.1 36.8 98.9 45.0 87.3 45.0 L-87.35 45.0 Q-98.95 45.0 -107.15 36.8 -115.35 28.6 -115.35 17.0 L-115.35 -17.0 Q-115.35 -28.6 -107.15 -36.8 -98.95 -45.0 -87.35 -45.0" fill="url(#gradient0)" fill-rule="evenodd" stroke="none"/>
    <path d="M-87.35 -45.0 L87.3 -45.0 Q98.9 -45.0 107.1 -36.8 115.3 -28.6 115.3 -17.0 L115.3 17.0 Q115.3 28.6 107.1 36.8 98.9 45.0 87.3 45.0 L-87.35 45.0 Q-98.95 45.0 -107.15 36.8 -115.35 28.6 -115.35 17.0 L-115.35 -17.0 Q-115.35 -28.6 -107.15 -36.8 -98.95 -45.0 -87.35 -45.0 Z" fill="none" stroke="#333a56" stroke-linecap="round" stroke-linejoin="round" stroke-opacity="0.69803923" stroke-width="2.0"/>
    <path d="M103.9 -33.6 Q110.8 -26.75 110.8 -17.0 L110.8 17.0 Q110.8 26.75 103.9 33.6 97.05 40.5 87.3 40.5 L-87.35 40.5 Q-97.1 40.5 -103.95 33.6 -110.85 26.75 -110.85 17.0 L-110.85 -17.0 Q-110.85 -26.75 -103.95 -33.6 -97.1 -40.5 -87.35 -40.5 L87.3 -40.5 Q97.05 -40.5 103.9 -33.6" fill="url(#gradient1)" fill-rule="evenodd" stroke="none"/>
  </g>
  <defs>
    <linearGradient gradientTransform="matrix(0.0, 0.0504, -0.1408, 0.0, 0.0, 2.45)" gradientUnits="userSpaceOnUse" id="gradient0" spreadMethod="pad" x1="-819.2" x2="819.2">
      <stop offset="0.0" stop-color="#c2a179"/>
      <stop offset="0.4823529411764706" stop-color="#6e90cd"/>
      <stop offset="1.0" stop-color="#ad69ab"/>
    </linearGradient>
    <linearGradient gradientTransform="matrix(0.0, 0.0504, -0.1408, 0.0, 0.0, 2.45)" gradientUnits="userSpaceOnUse" id="gradient1" spreadMethod="pad" x1="-819.2" x2="819.2">
      <stop offset="0.0" stop-color="#ffdcbb"/>
      <stop offset="0.4823529411764706" stop-color="#c9dfff"/>
      <stop offset="1.0" stop-color="#fbbdff"/>
    </linearGradient>
  </defs>
</svg>
