<?xml version="1.0" encoding="UTF-8" standalone="no"?>
<svg xmlns:xlink="http://www.w3.org/1999/xlink" height="63.0px" width="159.7px" xmlns="http://www.w3.org/2000/svg">
  <g transform="matrix(1.0, 0.0, 0.0, 1.0, 79.85, 31.5)">
    <path d="M48.35 -26.0 Q59.15 -26.0 66.75 -18.4 74.35 -10.8 74.35 0.0 74.35 10.75 66.75 18.35 L66.7 18.4 Q59.1 26.0 48.35 26.0 L-48.35 26.0 Q-59.15 26.0 -66.75 18.4 -74.35 10.8 -74.35 0.0 -74.35 -10.75 -66.75 -18.4 -59.1 -26.0 -48.35 -26.0 L48.35 -26.0" fill="#e8e2ff" fill-opacity="0.9098039" fill-rule="evenodd" stroke="none"/>
    <path d="M-48.35 -30.5 L48.35 -30.5 Q61.0 -30.5 69.9 -21.6 78.85 -12.65 78.85 0.0 78.85 12.65 69.9 21.55 61.0 30.5 48.35 30.5 L-48.35 30.5 Q-61.0 30.5 -69.95 21.55 -78.85 12.65 -78.85 0.0 -78.85 -12.65 -69.95 -21.6 -61.0 -30.5 -48.35 -30.5 M48.35 -26.0 L-48.35 -26.0 Q-59.1 -26.0 -66.75 -18.4 -74.35 -10.75 -74.35 0.0 -74.35 10.8 -66.75 18.4 -59.15 26.0 -48.35 26.0 L48.35 26.0 Q59.1 26.0 66.7 18.4 L66.75 18.35 Q74.35 10.75 74.35 0.0 74.35 -10.8 66.75 -18.4 59.15 -26.0 48.35 -26.0" fill="#a3a1e5" fill-opacity="0.84705883" fill-rule="evenodd" stroke="none"/>
    <path d="M-48.35 -30.5 L48.35 -30.5 Q61.0 -30.5 69.9 -21.6 78.85 -12.65 78.85 0.0 78.85 12.65 69.9 21.55 61.0 30.5 48.35 30.5 L-48.35 30.5 Q-61.0 30.5 -69.95 21.55 -78.85 12.65 -78.85 0.0 -78.85 -12.65 -69.95 -21.6 -61.0 -30.5 -48.35 -30.5 Z" fill="none" stroke="#333a56" stroke-linecap="round" stroke-linejoin="round" stroke-opacity="0.69803923" stroke-width="2.0"/>
  </g>
</svg>
