<?xml version="1.0" encoding="UTF-8" standalone="no"?>
<svg xmlns:xlink="http://www.w3.org/1999/xlink" height="263.0px" width="679.6px" xmlns="http://www.w3.org/2000/svg">
  <g transform="matrix(1.0, 0.0, 0.0, 1.0, 1019.9, 211.8)">
    <path d="M-984.9 -211.8 L-375.3 -211.8 Q-360.8 -211.8 -350.55 -201.45 -340.3 -191.15 -340.3 -176.5 L-340.3 15.9 Q-340.3 30.5 -350.55 40.9 -360.8 51.2 -375.3 51.2 L-984.9 51.2 Q-999.35 51.2 -1009.65 40.9 -1019.9 30.5 -1019.9 15.9 L-1019.9 -176.5 Q-1019.9 -191.15 -1009.65 -201.45 -999.35 -211.8 -984.9 -211.8" fill="#1c0c33" fill-opacity="0.35686275" fill-rule="evenodd" stroke="none"/>
    <path d="M-377.8 -206.25 Q-365.75 -206.25 -357.15 -197.65 -348.6 -189.1 -348.6 -176.9 L-348.6 13.05 Q-348.6 25.2 -357.15 33.85 L-357.15 33.8 Q-365.75 42.4 -377.8 42.4 L-982.3 42.4 Q-994.35 42.4 -1002.95 33.8 L-1002.95 33.85 Q-1011.5 25.2 -1011.5 13.05 L-1011.5 -176.9 Q-1011.5 -189.1 -1002.95 -197.65 -994.35 -206.25 -982.3 -206.25 L-377.8 -206.25" fill="url(#gradient0)" fill-rule="evenodd" stroke="none"/>
  </g>
  <defs>
    <linearGradient gradientTransform="matrix(0.0, 0.1415, -0.4046, 0.0, -680.05, -82.1)" gradientUnits="userSpaceOnUse" id="gradient0" spreadMethod="pad" x1="-819.2" x2="819.2">
      <stop offset="0.0" stop-color="#b49075"/>
      <stop offset="0.21176470588235294" stop-color="#84a48a"/>
      <stop offset="0.4823529411764706" stop-color="#8ea9cd"/>
      <stop offset="0.788235294117647" stop-color="#977db6"/>
      <stop offset="1.0" stop-color="#c285a6"/>
    </linearGradient>
  </defs>
</svg>
