<?xml version="1.0" encoding="UTF-8" standalone="no"?>
<svg xmlns:xlink="http://www.w3.org/1999/xlink" height="91.65px" width="123.85px" xmlns="http://www.w3.org/2000/svg">
  <g transform="matrix(1.0, 0.0, 0.0, 1.0, 52.95, 20.4)">
    <path d="M16.65 -12.65 Q26.45 -7.2 38.6 -12.3 M-18.65 -0.7 Q-19.75 -1.25 -20.5 -2.2 -24.85 7.45 -22.0 14.85 -19.75 17.1 -11.95 15.9 L-6.0 14.35 Q-1.65 12.95 3.3 10.55 L12.5 5.5 Q16.75 8.65 21.4 10.6 24.2 11.8 27.15 12.55 L34.8 13.75 41.9 13.4 Q43.85 11.3 42.95 6.95 42.1 2.55 40.25 -0.2 L38.3 -3.05 36.85 -2.15 38.25 -3.2 Q41.0 -7.15 41.5 -11.05 41.7 -13.45 41.2 -15.75 L40.25 -18.5 Q29.2 -21.5 16.95 -15.7 14.5 -14.55 12.1 -13.1 L5.55 -15.05 Q-15.35 -20.95 -18.15 -18.9 L-18.85 -18.0 -19.9 -16.5 -20.1 -16.2 Q-24.15 -9.4 -20.5 -2.2 M21.4 10.6 Q31.25 23.35 36.55 35.3 40.3 43.65 41.85 51.65 42.9 57.6 42.8 63.35 44.05 61.15 48.05 60.15 L51.85 59.35 52.1 59.35 54.45 59.15 57.65 59.0 Q66.8 58.65 70.0 55.05 59.7 37.35 39.05 17.75 L34.8 13.75 M-11.95 15.9 Q-16.5 20.75 -22.05 25.4 L-22.45 25.7 -23.1 26.25 -31.1 32.25 -32.0 32.8 Q-33.5 33.5 -34.8 34.25 L-35.7 34.75 Q-47.1 41.25 -52.05 51.3 -43.45 47.75 -37.5 55.55 -34.25 67.1 -25.8 69.9 L-23.95 70.35 -23.65 65.6 Q-20.8 40.1 3.3 10.55 M-17.7 -13.9 Q-4.85 -4.8 7.95 -12.3" fill="none" stroke="#000000" stroke-linecap="round" stroke-linejoin="round" stroke-width="1.8"/>
  </g>
</svg>
