<?xml version="1.0" encoding="UTF-8" standalone="no"?>
<svg xmlns:xlink="http://www.w3.org/1999/xlink" height="70.35px" width="74.35px" xmlns="http://www.w3.org/2000/svg">
  <g transform="matrix(1.0, 0.0, 0.0, 1.0, 68.75, 5.45)">
    <path d="M-35.15 59.0 L-36.35 59.95 Q-43.15 64.75 -50.2 63.9 L-50.4 63.9 -52.1 63.6 -55.5 62.5 -56.0 62.3 -57.25 61.7 Q-59.35 60.75 -60.95 59.6 L-63.2 57.85 Q-67.0 54.4 -67.65 49.75 L-67.85 47.8 Q-68.3 41.35 -65.05 40.15 -61.35 38.8 -59.35 40.35 -57.4 41.85 -57.4 44.65 -57.45 46.1 -57.0 47.45 L-56.55 48.65 -56.5 48.8 -56.15 49.45 -56.0 49.75 -55.9 49.9 Q-54.9 51.5 -52.55 52.95 L-52.15 53.2 -50.8 53.95 -49.45 54.6 -48.8 54.85 -43.7 54.55 -42.75 54.15 -42.25 53.9 -42.15 53.85 Q-40.0 52.7 -37.6 50.55 L-37.25 50.25 -36.7 49.7 Q-34.95 47.95 -33.45 45.85 L-32.75 44.8 -30.9 41.5 -30.5 40.75 -30.15 39.95 -29.2 37.6 -28.1 34.25 -27.65 32.6 -26.75 29.35 -26.05 27.2 -24.9 23.85 -24.4 22.45 -22.4 17.65 -21.3 15.2 -18.85 10.4 -18.65 10.15 -18.65 10.1 -18.55 9.85 -17.3 7.6 Q-11.8 -1.45 -5.2 -3.45 L-2.55 -4.25 Q2.55 -5.55 4.55 -2.2 5.35 1.25 2.75 1.8 L0.85 2.7 0.75 2.75 -0.7 3.4 -1.8 3.9 Q-3.8 4.8 -5.4 6.15 -7.25 7.6 -8.6 9.6 L-9.45 10.85 -10.85 13.35 -11.2 13.95 -11.55 14.6 -12.05 15.55 -14.65 20.85 -15.35 22.4 -15.75 23.4 -17.45 27.65 -17.95 29.1 -19.0 32.15 -20.0 35.4 -20.15 36.15 -20.2 36.25 -20.25 36.3 -21.95 41.4 -22.1 41.75 -22.3 42.2 -22.35 42.35 -24.6 46.85 -25.7 48.6 -26.4 49.65 -29.2 53.3 -30.05 54.25 -34.2 58.25 -34.85 58.8 M-67.85 47.8 Q-66.3 49.95 -64.5 47.95 -62.95 45.9 -61.55 46.4 -58.05 48.3 -57.0 47.45" fill="none" stroke="#000000" stroke-linecap="round" stroke-linejoin="round" stroke-width="1.7000000000000002"/>
  </g>
</svg>
