<?xml version="1.0" encoding="UTF-8" standalone="no"?>
<svg xmlns:xlink="http://www.w3.org/1999/xlink" height="249.75px" width="231.65px" xmlns="http://www.w3.org/2000/svg">
  <g transform="matrix(1.0, 0.0, 0.0, 1.0, 115.85, 124.85)">
    <path d="M-97.7 -124.15 L97.65 -124.15 Q115.1 -124.15 115.1 -106.7 L115.1 106.75 Q115.1 124.2 97.65 124.2 L-97.7 124.2 Q-115.15 124.2 -115.15 106.75 L-115.15 -106.7 Q-115.15 -124.15 -97.7 -124.15 M97.65 -116.65 L-97.7 -116.65 Q-107.65 -116.65 -107.65 -106.7 L-107.65 106.75 Q-107.65 116.7 -97.7 116.7 L97.65 116.7 Q107.6 116.7 107.6 106.75 L107.6 -106.7 Q107.6 -116.65 97.65 -116.65" fill="url(#gradient0)" fill-rule="evenodd" stroke="none"/>
    <path d="M97.65 -116.65 Q107.6 -116.65 107.6 -106.7 L107.6 106.75 Q107.6 116.7 97.65 116.7 L-97.7 116.7 Q-107.65 116.7 -107.65 106.75 L-107.65 -106.7 Q-107.65 -116.65 -97.7 -116.65 L97.65 -116.65 M95.15 -113.6 L-95.3 -113.6 Q-105.0 -113.6 -105.0 -103.9 L-105.0 103.95 Q-105.0 113.65 -95.3 113.65 L95.15 113.65 Q104.85 113.65 104.85 103.95 L104.85 -103.9 Q104.85 -113.6 95.15 -113.6" fill="#000000" fill-opacity="0.6862745" fill-rule="evenodd" stroke="none"/>
    <path d="M-97.7 -124.15 L97.65 -124.15 Q115.1 -124.15 115.1 -106.7 L115.1 106.75 Q115.1 124.2 97.65 124.2 L-97.7 124.2 Q-115.15 124.2 -115.15 106.75 L-115.15 -106.7 Q-115.15 -124.15 -97.7 -124.15 Z" fill="none" stroke="#101979" stroke-linecap="round" stroke-linejoin="round" stroke-opacity="0.7764706" stroke-width="1.4000000000000001"/>
  </g>
  <defs>
    <linearGradient gradientTransform="matrix(0.0, 0.1487, -0.1405, 0.0, 0.0, -0.65)" gradientUnits="userSpaceOnUse" id="gradient0" spreadMethod="pad" x1="-819.2" x2="819.2">
      <stop offset="0.0" stop-color="#fffbf5"/>
      <stop offset="0.1568627450980392" stop-color="#eeda94"/>
      <stop offset="0.49411764705882355" stop-color="#6da5e2"/>
      <stop offset="0.9882352941176471" stop-color="#b66394"/>
    </linearGradient>
  </defs>
</svg>
