<?xml version="1.0" encoding="UTF-8" standalone="no"?>
<svg xmlns:xlink="http://www.w3.org/1999/xlink" height="81.65px" width="116.35px" xmlns="http://www.w3.org/2000/svg">
  <g transform="matrix(1.0, 0.0, 0.0, 1.0, 56.4, 8.3)">
    <path d="M31.05 9.25 Q29.9 2.7 29.25 -3.4 L34.95 -2.05 Q35.9 7.5 38.85 19.8 L45.05 27.4 45.5 27.95 46.25 28.85 Q52.35 35.9 59.1 42.8 55.5 42.9 53.95 44.25 52.85 45.3 52.85 46.95 L47.6 40.6 47.15 40.1 46.8 39.6 45.65 38.2 43.5 35.4 42.85 34.55 43.05 35.35 Q47.15 49.3 53.2 66.05 46.55 64.95 45.85 62.7 39.9 46.35 36.0 31.7 L33.45 21.25 33.0 20.45 Q29.15 14.55 26.05 8.75 L24.35 -0.85 27.85 4.5 31.05 9.25 Q32.05 15.05 33.45 21.25 M10.5 19.45 L11.25 30.45 Q12.2 52.75 8.7 72.5 12.65 67.15 19.4 66.65 20.7 45.6 18.3 24.1 L16.6 11.4 16.05 8.25 15.2 3.75 13.45 -5.0 7.85 -0.5 8.55 3.35 8.65 4.1 Q9.8 11.9 10.5 19.45 11.5 42.65 8.75 63.95 5.6 55.3 2.85 54.9 8.15 30.0 7.85 -0.5 M38.85 19.8 Q40.5 26.7 42.85 34.55 M-5.55 3.35 L-4.05 -3.4 -9.05 -7.45 Q-10.45 1.1 -12.45 8.65 -13.95 13.9 -15.65 18.65 L-15.75 18.95 Q-27.2 50.0 -51.75 58.15 -40.15 61.45 -40.85 64.8 -25.0 55.8 -14.55 31.5 -11.3 23.75 -8.5 14.45 -6.95 9.15 -5.55 3.35 L-1.05 -1.45 2.45 1.75 Q-1.8 9.3 -8.5 14.45 M-12.45 8.65 L-15.0 10.2 Q-20.7 13.5 -27.75 16.05 -47.6 23.95 -55.55 35.5 -54.65 38.95 -43.9 41.4 -40.7 33.65 -33.65 27.95 L-33.65 27.9 -30.75 25.7 -26.75 23.35 -25.55 22.65 -25.0 22.5 Q-20.95 21.3 -17.3 19.7 L-17.15 19.65 -16.25 19.15 -15.75 18.95" fill="none" stroke="#000000" stroke-linecap="round" stroke-linejoin="round" stroke-width="1.7000000000000002"/>
  </g>
</svg>
