<?xml version="1.0" encoding="UTF-8" standalone="no"?>
<svg xmlns:xlink="http://www.w3.org/1999/xlink" height="90.4px" width="104.7px" xmlns="http://www.w3.org/2000/svg">
  <g transform="matrix(1.0, 0.0, 0.0, 1.0, 49.65, 26.45)">
    <path d="M-17.95 -0.25 L-17.4 -0.05 -17.95 0.1 -17.95 -0.25" fill="#a4b7bb" fill-rule="evenodd" stroke="none"/>
    <path d="M23.4 1.85 L24.0 1.65 24.0 2.2 23.4 1.85" fill="#d7f0f5" fill-rule="evenodd" stroke="none"/>
    <path d="M-33.85 -6.2 L-33.55 -6.1 -17.95 -0.25 -17.95 0.1 -18.1 39.3 -18.65 53.2 -33.85 46.9 -33.85 -6.2" fill="url(#gradient0)" fill-rule="evenodd" stroke="none"/>
    <path d="M24.0 1.65 L39.9 -4.0 39.8 48.5 23.95 55.4 24.0 2.2 24.0 1.65" fill="url(#gradient1)" fill-rule="evenodd" stroke="none"/>
    <path d="M-49.15 -11.95 L-33.85 -6.2 -33.85 46.9 -49.15 40.5 -49.15 -11.95 M-17.4 -0.05 L5.15 8.3 5.5 63.45 -18.65 53.2 -18.1 39.3 -17.95 0.1 -17.4 -0.05" fill="url(#gradient2)" fill-rule="evenodd" stroke="none"/>
    <path d="M39.9 -4.0 L54.55 -9.2 54.55 42.15 39.8 48.5 39.9 -4.0 M5.15 8.3 L23.4 1.85 24.0 2.2 23.95 55.4 5.5 63.45 5.15 8.3" fill="url(#gradient3)" fill-rule="evenodd" stroke="none"/>
    <path d="M35.9 -5.3 L39.9 -4.0 24.0 1.65 23.4 1.85 20.3 0.0 35.9 -5.3 M-33.55 -6.1 L-29.25 -7.35 -13.25 -1.55 -17.4 -0.05 -17.95 -0.25 -33.55 -6.1" fill="#639ec7" fill-rule="evenodd" stroke="none"/>
    <path d="M39.9 -4.0 L35.9 -5.3 47.85 -9.4 5.15 -23.55 -40.55 -11.4 -29.25 -7.35 -33.55 -6.1 -33.85 -6.2 -49.15 -11.95 4.5 -25.95 54.55 -9.2 39.9 -4.0 M20.3 0.0 L23.4 1.85 5.15 8.3 -17.4 -0.05 -13.25 -1.55 5.25 5.1 20.3 0.0" fill="#2e2210" fill-rule="evenodd" stroke="none"/>
    <path d="M35.9 -5.3 L20.3 0.0 5.25 5.1 -13.25 -1.55 -29.25 -7.35 -40.55 -11.4 5.15 -23.55 47.85 -9.4 35.9 -5.3" fill="#64519f" fill-rule="evenodd" stroke="none"/>
    <path d="M39.9 -4.0 L35.9 -5.3 20.3 0.0 23.4 1.85 24.0 1.65 39.9 -4.0 54.55 -9.2 4.5 -25.95 -49.15 -11.95 -33.85 -6.2 -33.55 -6.1 -29.25 -7.35 -40.55 -11.4 5.15 -23.55 47.85 -9.4 35.9 -5.3 M24.0 2.2 L24.0 1.65 M20.3 0.0 L5.25 5.1 -13.25 -1.55 -17.4 -0.05 5.15 8.3 23.4 1.85 24.0 2.2 23.95 55.4 39.8 48.5 39.9 -4.0 M23.95 55.4 L5.5 63.45 -18.65 53.2 -33.85 46.9 -49.15 40.5 -49.15 -11.95 M54.55 -9.2 L54.55 42.15 39.8 48.5 M-33.55 -6.1 L-17.95 -0.25 -17.4 -0.05 -17.95 0.1 -18.1 39.3 -18.65 53.2 M-13.25 -1.55 L-29.25 -7.35 M-33.85 -6.2 L-33.85 46.9 M-17.95 -0.25 L-17.95 0.1" fill="none" stroke="#000000" stroke-linecap="round" stroke-linejoin="round" stroke-width="1.0"/>
  </g>
  <defs>
    <linearGradient gradientTransform="matrix(0.0, 0.0714, -0.0507, 0.0, 7.7, -3.2)" gradientUnits="userSpaceOnUse" id="gradient0" spreadMethod="pad" x1="-819.2" x2="819.2">
      <stop offset="0.0" stop-color="#bf9b65"/>
      <stop offset="0.4823529411764706" stop-color="#5ba5cd"/>
      <stop offset="1.0" stop-color="#bf5c88"/>
    </linearGradient>
    <linearGradient gradientTransform="matrix(0.0, 0.0717, -0.0154, 0.0, 36.6, -2.7)" gradientUnits="userSpaceOnUse" id="gradient1" spreadMethod="pad" x1="-819.2" x2="819.2">
      <stop offset="0.0" stop-color="#f5ea9f"/>
      <stop offset="0.4823529411764706" stop-color="#91d8e9"/>
      <stop offset="0.9882352941176471" stop-color="#e794c2"/>
    </linearGradient>
    <linearGradient gradientTransform="matrix(-0.0069, 0.0324, -0.0388, -0.0082, -29.8, 21.8)" gradientUnits="userSpaceOnUse" id="gradient2" spreadMethod="pad" x1="-819.2" x2="819.2">
      <stop offset="0.0" stop-color="#2c1f0f"/>
      <stop offset="0.23137254901960785" stop-color="#1c311e"/>
      <stop offset="0.4823529411764706" stop-color="#1d3856"/>
      <stop offset="0.7215686274509804" stop-color="#2c2043"/>
      <stop offset="0.9882352941176471" stop-color="#51192c"/>
    </linearGradient>
    <linearGradient gradientTransform="matrix(0.0072, 0.0333, -0.0367, 0.008, 36.55, 23.9)" gradientUnits="userSpaceOnUse" id="gradient3" spreadMethod="pad" x1="-819.2" x2="819.2">
      <stop offset="0.0" stop-color="#4f381b"/>
      <stop offset="0.23137254901960785" stop-color="#325836"/>
      <stop offset="0.4823529411764706" stop-color="#274c74"/>
      <stop offset="0.7215686274509804" stop-color="#46336b"/>
      <stop offset="0.9882352941176471" stop-color="#6b203a"/>
    </linearGradient>
  </defs>
</svg>
