<?xml version="1.0" encoding="UTF-8" standalone="no"?>
<svg xmlns:xlink="http://www.w3.org/1999/xlink" height="90.4px" width="104.7px" xmlns="http://www.w3.org/2000/svg">
  <g transform="matrix(1.0, 0.0, 0.0, 1.0, 49.65, 26.45)">
    <path d="M35.9 -5.3 L39.9 -4.0 24.0 1.65 23.4 1.85 20.3 0.0 35.9 -5.3 M-33.85 -6.2 L-33.55 -6.1 -29.25 -7.35 -13.25 -1.55 -17.4 -0.05 -17.95 -0.25 -33.55 -6.1 -17.95 -0.25 -17.95 0.1 -18.1 39.3 -18.65 53.2 -33.85 46.9 -33.85 -6.2" fill="#4d69d9" fill-rule="evenodd" stroke="none"/>
    <path d="M39.9 -4.0 L35.9 -5.3 47.85 -9.4 5.15 -23.55 -40.55 -11.4 -29.25 -7.35 -33.55 -6.1 -33.85 -6.2 -49.15 -11.95 -33.85 -6.2 -33.85 46.9 -49.15 40.5 -49.15 -11.95 4.5 -25.95 54.55 -9.2 39.9 -4.0 M20.3 0.0 L23.4 1.85 5.15 8.3 5.5 63.45 -18.65 53.2 -18.1 39.3 -17.95 0.1 -17.95 -0.25 -17.4 -0.05 -13.25 -1.55 5.25 5.1 20.3 0.0 M5.15 8.3 L-17.4 -0.05 5.15 8.3 M-17.95 0.1 L-17.4 -0.05 -17.95 0.1" fill="#a4b7bb" fill-rule="evenodd" stroke="none"/>
    <path d="M23.4 1.85 L24.0 1.65 24.0 2.2 23.95 55.4 5.5 63.45 5.15 8.3 23.4 1.85 24.0 2.2 23.4 1.85 M39.9 -4.0 L54.55 -9.2 54.55 42.15 39.8 48.5 39.9 -4.0" fill="#d7f0f5" fill-rule="evenodd" stroke="none"/>
    <path d="M24.0 1.65 L39.9 -4.0 39.8 48.5 23.95 55.4 24.0 2.2 24.0 1.65" fill="#729eff" fill-rule="evenodd" stroke="none"/>
    <path d="M35.9 -5.3 L20.3 0.0 5.25 5.1 -13.25 -1.55 -29.25 -7.35 -40.55 -11.4 5.15 -23.55 47.85 -9.4 35.9 -5.3" fill="#525e69" fill-rule="evenodd" stroke="none"/>
    <path d="M39.9 -4.0 L35.9 -5.3 20.3 0.0 23.4 1.85 24.0 1.65 39.9 -4.0 54.55 -9.2 4.5 -25.95 -49.15 -11.95 -33.85 -6.2 -33.55 -6.1 -29.25 -7.35 -40.55 -11.4 5.15 -23.55 47.85 -9.4 35.9 -5.3 M24.0 2.2 L23.4 1.85 5.15 8.3 -17.4 -0.05 -17.95 0.1 -18.1 39.3 -18.65 53.2 5.5 63.45 23.95 55.4 24.0 2.2 24.0 1.65 M20.3 0.0 L5.25 5.1 -13.25 -1.55 -17.4 -0.05 -17.95 -0.25 -17.95 0.1 M39.8 48.5 L23.95 55.4 M54.55 -9.2 L54.55 42.15 39.8 48.5 39.9 -4.0 M-13.25 -1.55 L-29.25 -7.35 M-33.55 -6.1 L-17.95 -0.25 M-18.65 53.2 L-33.85 46.9 -49.15 40.5 -49.15 -11.95 M-33.85 -6.2 L-33.85 46.9" fill="none" stroke="#000000" stroke-linecap="round" stroke-linejoin="round" stroke-width="1.0"/>
  </g>
</svg>
