<?xml version="1.0" encoding="UTF-8" standalone="no"?>
<svg xmlns:xlink="http://www.w3.org/1999/xlink" height="82.8px" width="118.7px" xmlns="http://www.w3.org/2000/svg">
  <g transform="matrix(1.0, 0.0, 0.0, 1.0, 57.55, 63.3)">
    <path d="M25.7 -3.7 L25.9 11.4 24.0 12.1 4.95 18.7 4.0 19.0 3.7 1.9 25.7 -3.7 M41.75 5.5 L41.35 -8.15 Q51.25 -11.05 59.7 -14.1 61.65 -8.05 59.7 -1.9 L54.55 0.35 41.75 5.5" fill="#dcf5e2" fill-rule="evenodd" stroke="none"/>
    <path d="M4.0 19.0 Q-7.25 15.55 -17.7 11.6 L-19.5 10.95 -19.0 -5.25 Q-8.3 -1.45 3.7 1.9 L4.0 19.0 M-35.8 4.2 Q-42.7 1.0 -49.2 -2.35 L-53.95 -4.8 Q-55.9 -11.0 -53.95 -20.8 -45.5 -16.1 -35.8 -11.9 L-35.8 4.2" fill="#98bba9" fill-rule="evenodd" stroke="none"/>
    <path d="M3.35 -22.45 L-17.65 -30.2 1.8 -34.25 23.1 -27.75 3.35 -22.45 M-31.75 -26.85 L-11.0 -18.6 -35.8 -11.9 Q-45.5 -16.1 -53.95 -20.8 -43.7 -23.9 -31.75 -26.85 M2.3 -13.1 L25.7 -3.7 3.7 1.9 Q-8.3 -1.45 -19.0 -5.25 L2.3 -13.1 M41.35 -8.15 L15.2 -17.95 34.2 -23.9 Q46.45 -19.65 59.7 -14.1 51.25 -11.05 41.35 -8.15" fill="#e5fff1" fill-rule="evenodd" stroke="none"/>
    <path d="M3.35 -22.45 L15.2 -17.95 3.35 -22.45 23.1 -27.75 34.2 -23.9 15.2 -17.95 41.35 -8.15 41.75 5.5 40.2 6.15 25.9 11.4 25.7 -3.7 2.3 -13.1 -11.0 -18.6 2.3 -13.1 -19.0 -5.25 Q-27.8 -8.35 -35.8 -11.9 L-11.0 -18.6 -31.75 -26.85 -17.65 -30.2 3.35 -22.45" fill="#69e295" fill-rule="evenodd" stroke="none"/>
    <path d="M-19.5 10.95 L-33.85 5.0 -35.8 4.2 -35.8 -11.9 Q-27.8 -8.35 -19.0 -5.25 L-19.5 10.95" fill="#44a66d" fill-rule="evenodd" stroke="none"/>
    <path d="M15.2 -17.95 L3.35 -22.45 -17.65 -30.2 -31.75 -26.85 -11.0 -18.6 2.3 -13.1 25.7 -3.7 25.9 11.4 40.2 6.15 41.75 5.5 41.35 -8.15 15.2 -17.95 34.2 -23.9 23.1 -27.75 3.35 -22.45 M-17.65 -30.2 L1.8 -34.25 23.1 -27.75 M59.7 -14.1 Q61.65 -8.05 59.7 -1.9 L54.55 0.35 41.75 5.5 M34.2 -23.9 Q46.45 -19.65 59.7 -14.1 M25.9 11.4 L24.0 12.1 4.95 18.7 4.0 19.0 Q-7.25 15.55 -17.7 11.6 L-19.5 10.95 -33.85 5.0 -35.8 4.2 Q-42.7 1.0 -49.2 -2.35 L-53.95 -4.8 Q-55.9 -11.0 -53.95 -20.8 -43.7 -23.9 -31.75 -26.85 M-19.0 -5.25 L-19.5 10.95 M-35.8 -11.9 L-11.0 -18.6 M-35.8 -11.9 L-35.8 4.2 M2.3 -13.1 L-19.0 -5.25" fill="none" stroke="#000000" stroke-linecap="round" stroke-linejoin="round" stroke-width="1.0"/>
    <path d="M2.9 -34.8 Q0.45 -42.35 1.4 -49.0 2.7 -59.4 13.6 -62.65 17.65 -63.2 26.15 -61.35 35.1 -58.75 41.55 -54.25 L42.75 -53.35 Q49.65 -47.5 44.75 -37.5 39.2 -29.3 28.65 -27.55 19.25 -25.85 14.8 -22.2 21.55 -26.3 33.5 -25.3 43.4 -23.5 49.05 -27.35 51.7 -16.25 45.6 -10.15 39.2 -3.7 38.95 -0.55 33.4 -0.5 28.0 -8.9 24.4 -14.55 16.1 -15.95 15.2 -13.65 10.9 -12.3 5.1 -15.95 10.1 -21.75 L2.5 -21.95 Q-1.15 -20.05 0.45 -27.15 L5.85 -27.5 Q10.25 -27.15 12.8 -24.7 13.7 -28.7 15.0 -32.45 20.15 -44.35 29.3 -53.15 22.15 -51.0 15.2 -39.45 15.0 -50.4 11.45 -51.75 4.0 -51.35 2.9 -34.8 M8.9 -11.85 Q8.25 -1.55 15.25 9.4 7.35 6.8 3.05 9.1 -6.75 12.6 -12.95 11.4 -14.95 -6.15 -1.05 -13.1 L0.75 -11.9 Q-3.5 -1.3 -2.4 1.55 -0.6 -2.35 4.75 -11.2 L8.9 -11.85 M-55.9 -27.8 L-54.35 -30.2 Q-44.5 -44.35 -30.25 -50.15 L-28.15 -50.9 Q-22.0 -52.85 -15.95 -48.6 -11.25 -43.95 -6.75 -35.9 -5.55 -29.1 -1.6 -25.75 -2.45 -23.75 -2.7 -21.35 -6.2 -23.6 -10.05 -30.3 -13.7 -40.7 -18.35 -44.6 -22.2 -48.6 -26.9 -44.2 -29.45 -37.9 -25.0 -30.0 -14.6 -17.05 -2.75 -18.5 L-2.6 -16.35 Q-10.45 -14.9 -16.85 -18.6 -29.15 -26.5 -31.75 -37.65 -46.7 -28.4 -55.9 -27.8 M15.45 -20.7 L14.8 -22.2 12.8 -24.7 14.8 -22.2 15.45 -20.7 Q16.4 -18.9 16.5 -17.45 L35.35 -18.25 Q30.25 -21.25 15.45 -20.7 M16.1 -15.95 Q16.5 -16.6 16.5 -17.45 16.5 -16.6 16.1 -15.95 M18.2 -27.8 Q21.2 -30.25 27.5 -31.1 37.3 -32.95 41.35 -39.6 46.55 -46.8 40.3 -51.05 34.8 -53.95 26.8 -46.35 20.15 -39.0 18.2 -27.8" fill="#69e295" fill-rule="evenodd" stroke="none"/>
    <path d="M10.9 -12.3 L8.9 -11.85 4.75 -11.2 Q-0.6 -2.35 -2.4 1.55 -3.5 -1.3 0.75 -11.9 L-1.05 -13.1 Q-2.1 -14.35 -2.6 -16.35 -8.35 -11.95 -22.2 -9.25 -36.15 -9.2 -44.25 -11.55 -55.45 -16.4 -56.85 -20.85 -57.5 -24.5 -55.9 -27.8 -46.7 -28.4 -31.75 -37.65 -29.15 -26.5 -16.85 -18.6 -10.45 -14.9 -2.6 -16.35 L-2.75 -18.5 -2.7 -21.35 Q-2.45 -23.75 -1.6 -25.75 -0.7 -26.65 0.45 -27.15 -1.15 -20.05 2.5 -21.95 L10.1 -21.75 Q5.1 -15.95 10.9 -12.3 M5.85 -27.5 Q4.1 -31.2 2.9 -34.8 4.0 -51.35 11.45 -51.75 15.0 -50.4 15.2 -39.45 22.15 -51.0 29.3 -53.15 20.15 -44.35 15.0 -32.45 13.7 -28.7 12.8 -24.7 10.25 -27.15 5.85 -27.5 M15.45 -20.7 Q30.25 -21.25 35.35 -18.25 L16.5 -17.45 Q16.4 -18.9 15.45 -20.7 M0.75 -11.9 Q2.3 -11.2 4.75 -11.2 2.3 -11.2 0.75 -11.9" fill="#44a66d" fill-rule="evenodd" stroke="none"/>
    <path d="M18.2 -27.8 Q20.15 -39.0 26.8 -46.35 34.8 -53.95 40.3 -51.05 46.55 -46.8 41.35 -39.6 37.3 -32.95 27.5 -31.1 21.2 -30.25 18.2 -27.8 M-2.75 -18.5 Q-14.6 -17.05 -25.0 -30.0 -29.45 -37.9 -26.9 -44.2 -22.2 -48.6 -18.35 -44.6 -13.7 -40.7 -10.05 -30.3 -6.2 -23.6 -2.7 -21.35 L-2.75 -18.5" fill="#266d38" fill-rule="evenodd" stroke="none"/>
    <path d="M2.9 -34.8 Q0.45 -42.35 1.4 -49.0 2.7 -59.4 13.6 -62.65 17.65 -63.2 26.15 -61.35 35.1 -58.75 41.55 -54.25 L42.75 -53.35 Q49.65 -47.5 44.75 -37.5 39.2 -29.3 28.65 -27.55 19.25 -25.85 14.8 -22.2 21.55 -26.3 33.5 -25.3 43.4 -23.5 49.05 -27.35 51.7 -16.25 45.6 -10.15 39.2 -3.7 38.95 -0.55 33.4 -0.5 28.0 -8.9 24.4 -14.55 16.1 -15.95 15.2 -13.65 10.9 -12.3 L8.9 -11.85 Q8.25 -1.55 15.25 9.4 7.35 6.8 3.05 9.1 -6.75 12.6 -12.95 11.4 -14.95 -6.15 -1.05 -13.1 -2.1 -14.35 -2.6 -16.35 -8.35 -11.95 -22.2 -9.25 -36.15 -9.2 -44.25 -11.55 -55.45 -16.4 -56.85 -20.85 -57.5 -24.5 -55.9 -27.8 L-54.35 -30.2 Q-44.5 -44.35 -30.25 -50.15 L-28.15 -50.9 Q-22.0 -52.85 -15.95 -48.6 -11.25 -43.95 -6.75 -35.9 -5.55 -29.1 -1.6 -25.75 -0.7 -26.65 0.45 -27.15 L5.85 -27.5 Q4.1 -31.2 2.9 -34.8 M12.8 -24.7 L14.8 -22.2 15.45 -20.7 Q16.4 -18.9 16.5 -17.45 16.5 -16.6 16.1 -15.95 M8.9 -11.85 L4.75 -11.2 Q2.3 -11.2 0.75 -11.9 L-1.05 -13.1 M18.2 -27.8 Q20.15 -39.0 26.8 -46.35 34.8 -53.95 40.3 -51.05 46.55 -46.8 41.35 -39.6 37.3 -32.95 27.5 -31.1 21.2 -30.25 18.2 -27.8 M5.85 -27.5 Q10.25 -27.15 12.8 -24.7 M-2.7 -21.35 Q-6.2 -23.6 -10.05 -30.3 -13.7 -40.7 -18.35 -44.6 -22.2 -48.6 -26.9 -44.2 -29.45 -37.9 -25.0 -30.0 -14.6 -17.05 -2.75 -18.5 L-2.7 -21.35 Q-2.45 -23.75 -1.6 -25.75 M-2.6 -16.35 L-2.75 -18.5" fill="none" stroke="#000000" stroke-linecap="round" stroke-linejoin="round" stroke-width="1.0"/>
  </g>
</svg>
