<?xml version="1.0" encoding="UTF-8" standalone="no"?>
<svg xmlns:xlink="http://www.w3.org/1999/xlink" height="33.9px" width="22.45px" xmlns="http://www.w3.org/2000/svg">
  <g transform="matrix(1.0, 0.0, 0.0, 1.0, 11.55, 40.45)">
    <path d="M2.45 -40.45 Q4.25 -40.45 5.5 -39.35 L5.75 -39.15 Q7.0 -37.8 6.95 -36.1 6.95 -34.8 6.25 -33.7 L6.3 -33.8 3.25 -28.65 5.45 -27.7 5.4 -27.7 Q8.0 -26.25 9.5 -23.65 L9.5 -23.6 Q10.9 -21.05 10.9 -17.85 10.9 -14.6 9.5 -12.1 8.0 -9.5 5.4 -8.0 L5.45 -8.05 Q2.9 -6.55 -0.3 -6.55 -3.55 -6.55 -6.1 -8.0 L-6.1 -8.05 Q-8.65 -9.55 -10.1 -12.1 -11.55 -14.6 -11.55 -17.85 -11.55 -21.4 -9.8 -24.2 L-9.75 -24.25 -1.4 -38.2 -1.3 -38.35 Q0.2 -40.55 2.45 -40.45 M1.6 -15.6 Q2.35 -16.5 2.35 -17.85 2.35 -19.15 1.6 -20.05 L1.55 -20.1 Q0.8 -20.8 -0.35 -20.8 -1.5 -20.8 -2.2 -20.1 -3.0 -19.2 -3.0 -17.85 -3.0 -16.5 -2.25 -15.6 L-2.2 -15.6 Q-1.5 -14.9 -0.35 -14.9 0.85 -14.9 1.6 -15.6" fill="#000000" fill-rule="evenodd" stroke="none"/>
    <path d="M2.45 -39.7 Q3.75 -39.7 4.7 -38.9 L4.85 -38.8 Q5.7 -37.8 5.7 -36.6 5.7 -35.7 5.25 -34.95 L5.2 -34.9 1.25 -28.35 Q3.2 -28.05 4.8 -27.1 7.05 -25.8 8.4 -23.5 9.65 -21.25 9.65 -18.35 9.65 -15.45 8.4 -13.2 7.05 -10.95 4.8 -9.6 2.55 -8.3 -0.3 -8.3 -3.2 -8.3 -5.45 -9.6 -7.7 -10.95 -9.0 -13.2 L-9.05 -13.2 Q-10.3 -15.45 -10.3 -18.35 -10.3 -21.55 -8.7 -24.1 L-0.3 -38.1 -0.25 -38.15 Q0.85 -39.75 2.45 -39.7 M2.5 -15.25 Q3.6 -16.45 3.6 -18.35 3.6 -20.15 2.5 -21.4 L2.5 -21.45 Q1.35 -22.55 -0.35 -22.55 -2.05 -22.55 -3.1 -21.45 -4.25 -20.2 -4.25 -18.35 -4.25 -16.45 -3.15 -15.25 L-3.1 -15.25 Q-2.05 -14.15 -0.35 -14.15 1.4 -14.15 2.5 -15.25" fill="url(#gradient0)" fill-rule="evenodd" stroke="none"/>
    <path d="M-0.3 -27.45 Q2.2 -27.45 4.15 -26.3 6.15 -25.15 7.3 -23.15 8.4 -21.15 8.4 -18.6 8.4 -16.05 7.3 -14.1 6.15 -12.1 4.15 -10.95 2.2 -9.8 -0.3 -9.8 -2.85 -9.8 -4.85 -10.95 -6.8 -12.1 -7.95 -14.1 -9.05 -16.05 -9.05 -18.6 -9.05 -21.45 -7.65 -23.7 L0.75 -37.7 Q1.45 -38.7 2.45 -38.7 3.3 -38.7 3.9 -38.2 4.45 -37.6 4.45 -36.85 L4.15 -35.85 -0.9 -27.45 -0.3 -27.45 M-0.35 -13.15 Q1.95 -13.15 3.4 -14.65 4.85 -16.15 4.85 -18.6 4.85 -20.95 3.4 -22.55 1.95 -24.05 -0.35 -24.05 -2.65 -24.05 -4.05 -22.55 -5.5 -20.95 -5.5 -18.6 -5.5 -16.15 -4.05 -14.65 -2.65 -13.15 -0.35 -13.15" fill="url(#gradient1)" fill-rule="evenodd" stroke="none"/>
  </g>
  <defs>
    <linearGradient gradientTransform="matrix(0.0, 0.0184, -0.0122, 0.0, -0.3, -23.8)" gradientUnits="userSpaceOnUse" id="gradient0" spreadMethod="pad" x1="-819.2" x2="819.2">
      <stop offset="0.0" stop-color="#6881a3"/>
      <stop offset="0.5098039215686274" stop-color="#8a6de9"/>
      <stop offset="1.0" stop-color="#925e98"/>
    </linearGradient>
    <linearGradient gradientTransform="matrix(0.0, 0.0176, -0.0107, 0.0, -0.3, -24.25)" gradientUnits="userSpaceOnUse" id="gradient1" spreadMethod="pad" x1="-819.2" x2="819.2">
      <stop offset="0.0" stop-color="#fff9e5"/>
      <stop offset="0.5333333333333333" stop-color="#cde5f6"/>
      <stop offset="1.0" stop-color="#eeb7de"/>
    </linearGradient>
  </defs>
</svg>
