<?xml version="1.0" encoding="UTF-8" standalone="no"?>
<svg xmlns:xlink="http://www.w3.org/1999/xlink" height="261.65px" width="675.9px" xmlns="http://www.w3.org/2000/svg">
  <g transform="matrix(1.0, 0.0, 0.0, 1.0, 1018.0, 212.75)">
    <path d="M-377.8 -202.25 L-982.3 -202.25 Q-992.7 -202.25 -1000.1 -194.8 L-1000.35 -194.55 Q-1007.5 -187.25 -1007.5 -176.9 L-1007.5 13.05 Q-1007.5 23.45 -1000.2 30.9 L-1000.1 31.0 Q-992.7 38.4 -982.3 38.4 L-377.8 38.4 Q-367.4 38.4 -360.0 31.0 L-359.9 30.9 Q-352.6 23.45 -352.6 13.05 L-352.6 -176.9 Q-352.6 -187.25 -359.7 -194.55 L-359.95 -194.8 Q-367.4 -202.25 -377.8 -202.25 M-377.8 -206.25 Q-365.75 -206.25 -357.15 -197.65 -348.6 -189.1 -348.6 -176.9 L-348.6 13.05 Q-348.6 25.2 -357.15 33.85 L-357.15 33.8 Q-365.75 42.4 -377.8 42.4 L-982.3 42.4 Q-994.35 42.4 -1002.95 33.8 L-1002.95 33.85 Q-1011.5 25.2 -1011.5 13.05 L-1011.5 -176.9 Q-1011.5 -189.1 -1002.95 -197.65 -994.35 -206.25 -982.3 -206.25 L-377.8 -206.25" fill="#0d152a" fill-opacity="0.47843137" fill-rule="evenodd" stroke="none"/>
    <path d="M-982.3 -211.75 L-377.8 -211.75 Q-363.45 -211.75 -353.25 -201.55 -343.1 -191.35 -343.1 -176.9 L-343.1 13.05 Q-343.1 27.45 -353.25 37.7 -363.45 47.9 -377.8 47.9 L-982.3 47.9 Q-996.65 47.9 -1006.85 37.7 -1017.0 27.45 -1017.0 13.05 L-1017.0 -176.9 Q-1017.0 -191.35 -1006.85 -201.55 -996.65 -211.75 -982.3 -211.75 M-377.8 -206.25 L-982.3 -206.25 Q-994.35 -206.25 -1002.95 -197.65 -1011.5 -189.1 -1011.5 -176.9 L-1011.5 13.05 Q-1011.5 25.2 -1002.95 33.85 L-1002.95 33.8 Q-994.35 42.4 -982.3 42.4 L-377.8 42.4 Q-365.75 42.4 -357.15 33.8 L-357.15 33.85 Q-348.6 25.2 -348.6 13.05 L-348.6 -176.9 Q-348.6 -189.1 -357.15 -197.65 -365.75 -206.25 -377.8 -206.25" fill="url(#gradient0)" fill-rule="evenodd" stroke="none"/>
    <path d="M-982.3 -211.75 L-377.8 -211.75 Q-363.45 -211.75 -353.25 -201.55 -343.1 -191.35 -343.1 -176.9 L-343.1 13.05 Q-343.1 27.45 -353.25 37.7 -363.45 47.9 -377.8 47.9 L-982.3 47.9 Q-996.65 47.9 -1006.85 37.7 -1017.0 27.45 -1017.0 13.05 L-1017.0 -176.9 Q-1017.0 -191.35 -1006.85 -201.55 -996.65 -211.75 -982.3 -211.75 Z" fill="none" stroke="#343556" stroke-linecap="round" stroke-linejoin="round" stroke-opacity="0.69803923" stroke-width="2.0"/>
  </g>
  <defs>
    <linearGradient gradientTransform="matrix(0.3805, 0.1662, -0.1187, 0.2718, -676.15, -80.2)" gradientUnits="userSpaceOnUse" id="gradient0" spreadMethod="pad" x1="-819.2" x2="819.2">
      <stop offset="0.0" stop-color="#f5e1c3"/>
      <stop offset="0.2627450980392157" stop-color="#c4e9cb"/>
      <stop offset="0.4823529411764706" stop-color="#c4dfe9"/>
      <stop offset="0.6980392156862745" stop-color="#d5d1ee"/>
      <stop offset="1.0" stop-color="#e5bbd1"/>
    </linearGradient>
  </defs>
</svg>
