<?xml version="1.0" encoding="UTF-8" standalone="no"?>
<svg xmlns:xlink="http://www.w3.org/1999/xlink" height="267.8px" width="802.75px" xmlns="http://www.w3.org/2000/svg">
  <g transform="matrix(1.0, 0.0, 0.0, 1.0, 1076.85, 215.9)">
    <path d="M-310.6 -209.25 Q-298.25 -209.25 -289.45 -200.45 -280.7 -191.7 -280.7 -179.2 L-280.7 15.2 Q-280.7 27.65 -289.45 36.5 L-289.45 36.45 Q-298.25 45.25 -310.6 45.25 L-1040.3 45.25 Q-1052.65 45.25 -1061.45 36.45 L-1061.45 36.5 Q-1070.2 27.65 -1070.2 15.2 L-1070.2 -179.2 Q-1070.2 -191.7 -1061.45 -200.45 -1052.65 -209.25 -1040.3 -209.25 L-310.6 -209.25 M-310.6 -205.15 L-1040.3 -205.15 Q-1050.95 -205.15 -1058.55 -197.55 L-1058.8 -197.3 Q-1066.1 -189.8 -1066.1 -179.2 L-1066.1 15.2 Q-1066.1 25.85 -1058.65 33.5 L-1058.55 33.6 Q-1050.95 41.15 -1040.3 41.15 L-310.6 41.15 Q-299.95 41.15 -292.4 33.6 L-292.3 33.5 Q-284.8 25.85 -284.8 15.2 L-284.8 -179.2 Q-284.8 -189.8 -292.1 -197.3 L-292.35 -197.55 Q-299.95 -205.15 -310.6 -205.15" fill="#0d152a" fill-opacity="0.47843137" fill-rule="evenodd" stroke="none"/>
    <path d="M-1040.3 -214.9 L-310.6 -214.9 Q-295.9 -214.9 -285.5 -204.45 -275.1 -194.0 -275.1 -179.2 L-275.1 15.2 Q-275.1 29.95 -285.5 40.45 -295.9 50.9 -310.6 50.9 L-1040.3 50.9 Q-1055.0 50.9 -1065.45 40.45 -1075.85 29.95 -1075.85 15.2 L-1075.85 -179.2 Q-1075.85 -194.0 -1065.45 -204.45 -1055.0 -214.9 -1040.3 -214.9 M-310.6 -209.25 L-1040.3 -209.25 Q-1052.65 -209.25 -1061.45 -200.45 -1070.2 -191.7 -1070.2 -179.2 L-1070.2 15.2 Q-1070.2 27.65 -1061.45 36.5 L-1061.45 36.45 Q-1052.65 45.25 -1040.3 45.25 L-310.6 45.25 Q-298.25 45.25 -289.45 36.45 L-289.45 36.5 Q-280.7 27.65 -280.7 15.2 L-280.7 -179.2 Q-280.7 -191.7 -289.45 -200.45 -298.25 -209.25 -310.6 -209.25" fill="url(#gradient0)" fill-rule="evenodd" stroke="none"/>
    <path d="M-1040.3 -214.9 L-310.6 -214.9 Q-295.9 -214.9 -285.5 -204.45 -275.1 -194.0 -275.1 -179.2 L-275.1 15.2 Q-275.1 29.95 -285.5 40.45 -295.9 50.9 -310.6 50.9 L-1040.3 50.9 Q-1055.0 50.9 -1065.45 40.45 -1075.85 29.95 -1075.85 15.2 L-1075.85 -179.2 Q-1075.85 -194.0 -1065.45 -204.45 -1055.0 -214.9 -1040.3 -214.9 Z" fill="none" stroke="#343556" stroke-linecap="round" stroke-linejoin="round" stroke-opacity="0.69803923" stroke-width="2.0"/>
  </g>
  <defs>
    <linearGradient gradientTransform="matrix(0.4887, 0.0, 0.0, 0.1622, -675.5, -82.0)" gradientUnits="userSpaceOnUse" id="gradient0" spreadMethod="pad" x1="-819.2" x2="819.2">
      <stop offset="0.0" stop-color="#f5e1c3"/>
      <stop offset="0.2627450980392157" stop-color="#c4e9cb"/>
      <stop offset="0.4823529411764706" stop-color="#c4dfe9"/>
      <stop offset="0.6980392156862745" stop-color="#d5d1ee"/>
      <stop offset="1.0" stop-color="#e5bbd1"/>
    </linearGradient>
  </defs>
</svg>
