<?xml version="1.0" encoding="UTF-8" standalone="no"?>
<svg xmlns:xlink="http://www.w3.org/1999/xlink" height="168.15px" width="185.3px" xmlns="http://www.w3.org/2000/svg">
  <g transform="matrix(1.0, 0.0, 0.0, 1.0, 470.55, -60.8)">
    <path d="M-469.85 103.7 L-469.85 76.2 Q-469.85 70.15 -465.5 65.85 -461.2 61.5 -455.15 61.5 L-300.65 61.5 Q-294.6 61.5 -290.3 65.85 -285.95 70.15 -285.95 76.2 L-285.95 103.7 -469.85 103.7" fill="url(#gradient0)" fill-rule="evenodd" stroke="none"/>
    <path d="M-285.95 103.7 L-285.95 213.55 Q-285.95 219.65 -290.3 223.95 -294.6 228.25 -300.65 228.25 L-455.15 228.25 Q-461.2 228.25 -465.5 223.95 -469.85 219.65 -469.85 213.55 L-469.85 103.7 -285.95 103.7" fill="url(#gradient1)" fill-rule="evenodd" stroke="none"/>
    <path d="M-469.85 103.7 L-469.85 76.2 Q-469.85 70.15 -465.5 65.85 -461.2 61.5 -455.15 61.5 L-300.65 61.5 Q-294.6 61.5 -290.3 65.85 -285.95 70.15 -285.95 76.2 L-285.95 103.7 -285.95 213.55 Q-285.95 219.65 -290.3 223.95 -294.6 228.25 -300.65 228.25 L-455.15 228.25 Q-461.2 228.25 -465.5 223.95 -469.85 219.65 -469.85 213.55 L-469.85 103.7 -285.95 103.7" fill="none" stroke="#101979" stroke-linecap="round" stroke-linejoin="round" stroke-opacity="0.7764706" stroke-width="1.4000000000000001"/>
  </g>
  <defs>
    <linearGradient gradientTransform="matrix(0.0, 0.0258, -0.1122, 0.0, -377.9, 82.6)" gradientUnits="userSpaceOnUse" id="gradient0" spreadMethod="pad" x1="-819.2" x2="819.2">
      <stop offset="0.0" stop-color="#bfc1f0" stop-opacity="0.8980392"/>
      <stop offset="1.0" stop-color="#d9dfff" stop-opacity="0.8980392"/>
    </linearGradient>
    <linearGradient gradientTransform="matrix(0.0, 0.076, -0.1122, 0.0, -377.9, 165.95)" gradientUnits="userSpaceOnUse" id="gradient1" spreadMethod="pad" x1="-819.2" x2="819.2">
      <stop offset="0.0" stop-color="#aab5e2" stop-opacity="0.8980392"/>
      <stop offset="1.0" stop-color="#9fa2e5" stop-opacity="0.8980392"/>
    </linearGradient>
  </defs>
</svg>
