<?xml version="1.0" encoding="UTF-8" standalone="no"?>
<svg xmlns:xlink="http://www.w3.org/1999/xlink" height="96.75px" width="402.95px" xmlns="http://www.w3.org/2000/svg">
  <g transform="matrix(1.0, 0.0, 0.0, 1.0, 217.4, 34.9)">
    <path d="M-169.0 -33.9 L137.15 -33.9 Q156.8 -33.9 170.65 -20.05 184.55 -6.15 184.55 13.45 184.55 33.1 170.65 46.95 156.8 60.85 137.15 60.85 L-169.0 60.85 Q-188.6 60.85 -202.55 46.95 -216.4 33.1 -216.4 13.45 -216.4 -6.15 -202.55 -20.05 -188.6 -33.9 -169.0 -33.9" fill="#e2f8ff" fill-opacity="0.9098039" fill-rule="evenodd" stroke="none"/>
    <path d="M-169.0 -33.9 L137.15 -33.9 Q156.8 -33.9 170.65 -20.05 184.55 -6.15 184.55 13.45 184.55 33.1 170.65 46.95 156.8 60.85 137.15 60.85 L-169.0 60.85 Q-188.6 60.85 -202.55 46.95 -216.4 33.1 -216.4 13.45 -216.4 -6.15 -202.55 -20.05 -188.6 -33.9 -169.0 -33.9 Z" fill="none" stroke="#343556" stroke-linecap="round" stroke-linejoin="round" stroke-opacity="0.69803923" stroke-width="2.0"/>
  </g>
</svg>
