<?xml version="1.0" encoding="UTF-8" standalone="no"?>
<svg xmlns:xlink="http://www.w3.org/1999/xlink" height="70.1px" width="105.8px" xmlns="http://www.w3.org/2000/svg">
  <g transform="matrix(1.0, 0.0, 0.0, 1.0, 52.9, 43.8)">
    <path d="M49.9 -23.25 L49.9 7.2 Q49.5 22.4 34.4 22.4 L-34.4 22.4 Q-49.5 22.4 -49.9 7.2 L-49.9 -23.25 Q-49.5 -38.45 -34.4 -38.45 L34.4 -38.45 Q49.5 -38.45 49.9 -23.25" fill="#6b7da8" fill-opacity="0.9098039" fill-rule="evenodd" stroke="none"/>
    <path d="M-49.9 -23.25 L-49.9 -25.6 Q-49.9 -41.55 -34.4 -41.55 L34.4 -41.55 Q49.9 -41.55 49.9 -25.6 L49.9 -23.25 Q49.5 -38.45 34.4 -38.45 L-34.4 -38.45 Q-49.5 -38.45 -49.9 -23.25" fill="#8095c9" fill-opacity="0.9098039" fill-rule="evenodd" stroke="none"/>
    <path d="M49.9 -23.25 L49.9 -25.6 Q49.9 -41.55 34.4 -41.55 L-34.4 -41.55 Q-49.9 -41.55 -49.9 -25.6 L-49.9 -23.25 -49.9 7.2 Q-49.5 22.4 -34.4 22.4 L34.4 22.4 Q49.5 22.4 49.9 7.2 L49.9 -23.25 M-34.4 -43.8 L34.4 -43.8 Q52.9 -43.8 52.9 -24.75 L52.9 7.25 Q52.9 26.3 34.4 26.3 L-34.4 26.3 Q-52.9 26.3 -52.9 7.25 L-52.9 -24.75 Q-52.9 -43.8 -34.4 -43.8" fill="#323c70" fill-opacity="0.9098039" fill-rule="evenodd" stroke="none"/>
  </g>
</svg>
