<?xml version="1.0" encoding="UTF-8" standalone="no"?>
<svg xmlns:xlink="http://www.w3.org/1999/xlink" height="46.4px" width="255.6px" xmlns="http://www.w3.org/2000/svg">
  <g transform="matrix(1.0, 0.0, 0.0, 1.0, 127.8, 23.2)">
    <path d="M-104.6 -22.2 L104.6 -22.2 Q113.8 -22.2 120.3 -15.7 126.8 -9.2 126.8 0.0 126.8 9.2 120.3 15.7 113.8 22.2 104.6 22.2 L-104.6 22.2 Q-113.8 22.2 -120.3 15.7 -126.8 9.2 -126.8 0.0 -126.8 -9.2 -120.3 -15.7 -113.8 -22.2 -104.6 -22.2" fill="url(#gradient0)" fill-rule="evenodd" stroke="none"/>
    <path d="M-104.6 -22.2 L104.6 -22.2 Q113.8 -22.2 120.3 -15.7 126.8 -9.2 126.8 0.0 126.8 9.2 120.3 15.7 113.8 22.2 104.6 22.2 L-104.6 22.2 Q-113.8 22.2 -120.3 15.7 -126.8 9.2 -126.8 0.0 -126.8 -9.2 -120.3 -15.7 -113.8 -22.2 -104.6 -22.2 Z" fill="none" stroke="#1e2943" stroke-linecap="round" stroke-linejoin="round" stroke-opacity="0.5372549" stroke-width="2.0"/>
  </g>
  <defs>
    <linearGradient gradientTransform="matrix(0.0, -0.023, 0.1548, 0.0, 0.0, 1.5)" gradientUnits="userSpaceOnUse" id="gradient0" spreadMethod="pad" x1="-819.2" x2="819.2">
      <stop offset="0.0" stop-color="#bfd7ff" stop-opacity="0.8980392"/>
      <stop offset="0.9686274509803922" stop-color="#bdc3ff" stop-opacity="0.8980392"/>
    </linearGradient>
  </defs>
</svg>
