<?xml version="1.0" encoding="UTF-8" standalone="no"?>
<svg xmlns:xlink="http://www.w3.org/1999/xlink" height="70.7px" width="105.8px" xmlns="http://www.w3.org/2000/svg">
  <g transform="matrix(1.0, 0.0, 0.0, 1.0, 52.9, 44.15)">
    <path d="M49.9 -23.4 L49.9 -25.75 Q49.9 -41.85 34.4 -41.85 L-34.4 -41.85 Q-49.9 -41.85 -49.9 -25.75 L-49.9 -23.4 -49.9 7.3 Q-49.5 22.6 -34.4 22.6 L34.4 22.6 Q49.5 22.6 49.9 7.3 L49.9 -23.4 M-34.4 -44.15 L34.4 -44.15 Q52.9 -44.15 52.9 -24.95 L52.9 7.35 Q52.9 26.55 34.4 26.55 L-34.4 26.55 Q-52.9 26.55 -52.9 7.35 L-52.9 -24.95 Q-52.9 -44.15 -34.4 -44.15" fill="#2a325d" fill-opacity="0.9098039" fill-rule="evenodd" stroke="none"/>
    <path d="M-49.9 -23.4 L-49.9 -25.75 Q-49.9 -41.85 -34.4 -41.85 L34.4 -41.85 Q49.9 -41.85 49.9 -25.75 L49.9 -23.4 Q49.5 -38.75 34.4 -38.75 L-34.4 -38.75 Q-49.5 -38.75 -49.9 -23.4" fill="#6879a3" fill-opacity="0.9098039" fill-rule="evenodd" stroke="none"/>
    <path d="M49.9 -23.4 L49.9 7.3 Q49.5 22.6 34.4 22.6 L-34.4 22.6 Q-49.5 22.6 -49.9 7.3 L-49.9 -23.4 Q-49.5 -38.75 -34.4 -38.75 L34.4 -38.75 Q49.5 -38.75 49.9 -23.4" fill="#4d5a79" fill-opacity="0.9098039" fill-rule="evenodd" stroke="none"/>
  </g>
</svg>
