<?xml version="1.0" encoding="UTF-8" standalone="no"?>
<svg xmlns:xlink="http://www.w3.org/1999/xlink" height="121.3px" width="83.4px" xmlns="http://www.w3.org/2000/svg">
  <g transform="matrix(1.0, 0.0, 0.0, 1.0, 41.7, 60.65)">
    <path d="M-30.95 -59.65 L30.95 -59.65 Q40.7 -59.65 40.7 -49.9 L40.7 49.9 Q40.7 59.65 30.95 59.65 L-30.95 59.65 Q-40.7 59.65 -40.7 49.9 L-40.7 -49.9 Q-40.7 -59.65 -30.95 -59.65" fill="url(#gradient0)" fill-rule="evenodd" stroke="none"/>
    <path d="M-30.95 -59.65 L30.95 -59.65 Q40.7 -59.65 40.7 -49.9 L40.7 49.9 Q40.7 59.65 30.95 59.65 L-30.95 59.65 Q-40.7 59.65 -40.7 49.9 L-40.7 -49.9 Q-40.7 -59.65 -30.95 -59.65 Z" fill="none" stroke="#29195b" stroke-linecap="round" stroke-linejoin="round" stroke-opacity="0.40784314" stroke-width="2.0"/>
    <path d="M-0.75 -17.05 L14.1 -2.55 Q14.9 -2.0 15.35 -0.55 L15.3 -0.75 15.4 -0.4 15.45 -0.2 15.45 1.15 15.35 1.7 15.3 1.8 14.55 3.1 14.25 3.45 -0.8 17.25 -1.0 17.45 -1.05 17.45 -1.1 17.5 -1.2 17.55 Q-2.35 18.3 -3.7 18.3 -5.6 18.3 -6.55 17.15 L-6.7 16.95 Q-7.65 15.75 -7.65 14.3 -7.6 12.55 -6.5 11.5 L-6.35 11.35 5.6 0.4 -6.4 -11.25 Q-7.65 -12.45 -7.65 -14.15 -7.65 -15.7 -6.6 -16.8 -5.6 -18.2 -3.6 -18.2 -2.1 -18.25 -0.8 -17.1 L-0.75 -17.05 M-9.6 -5.5 Q-7.2 -5.5 -5.6 -3.95 L-5.45 -3.75 Q-3.85 -2.15 -3.85 0.15 -3.85 2.5 -5.6 4.25 L-5.85 4.45 Q-7.4 5.75 -9.6 5.8 -11.9 5.8 -13.55 4.25 L-13.6 4.2 -13.65 4.2 -13.65 4.15 Q-15.25 2.45 -15.25 0.15 -15.25 -2.2 -13.65 -3.85 L-13.4 -4.1 Q-11.8 -5.5 -9.6 -5.5" fill="#c7ceff" fill-opacity="0.7764706" fill-rule="evenodd" stroke="none"/>
    <path d="M12.85 -0.95 L13.45 0.0 13.45 0.1 13.45 0.95 13.45 1.1 12.95 1.95 12.9 2.0 -2.15 15.8 -2.2 15.8 Q-2.9 16.3 -3.7 16.3 -4.65 16.3 -5.1 15.75 L-5.15 15.7 Q-5.65 15.05 -5.65 14.3 -5.65 13.35 -4.95 12.8 L8.5 0.45 -5.0 -12.7 Q-5.65 -13.3 -5.65 -14.15 -5.65 -14.95 -5.05 -15.55 -4.55 -16.2 -3.6 -16.2 -2.8 -16.2 -2.15 -15.6 L12.85 -0.95 M-7.0 -2.5 Q-5.85 -1.4 -5.85 0.15 -5.85 1.65 -7.0 2.8 L-7.0 2.75 Q-8.05 3.8 -9.6 3.8 -11.1 3.8 -12.2 2.8 L-12.2 2.75 Q-13.25 1.65 -13.25 0.15 -13.25 -1.4 -12.2 -2.5 L-12.15 -2.5 Q-11.1 -3.5 -9.6 -3.5 -8.05 -3.5 -7.0 -2.5" fill="#413d77" fill-rule="evenodd" stroke="none"/>
  </g>
  <defs>
    <linearGradient gradientTransform="matrix(0.0, 0.0673, -0.0497, 0.0, 0.0, -0.25)" gradientUnits="userSpaceOnUse" id="gradient0" spreadMethod="pad" x1="-819.2" x2="819.2">
      <stop offset="0.0" stop-color="#a6a2dc"/>
      <stop offset="1.0" stop-color="#a7b3f7"/>
    </linearGradient>
  </defs>
</svg>
