<?xml version="1.0" encoding="UTF-8" standalone="no"?>
<svg xmlns:xlink="http://www.w3.org/1999/xlink" height="132.7px" width="98.6px" xmlns="http://www.w3.org/2000/svg">
  <g transform="matrix(1.0, 0.0, 0.0, 1.0, 44.85, 73.5)">
    <path d="M44.0 -73.5 Q53.75 -73.5 53.75 -63.55 L53.75 49.2 Q53.75 59.2 44.0 59.2 L-35.1 59.2 Q-44.85 59.2 -44.85 49.2 L-44.85 -63.55 Q-44.85 -73.5 -35.1 -73.5 L44.0 -73.5" fill="#111217" fill-opacity="0.6" fill-rule="evenodd" stroke="none"/>
    <path d="M-35.6 -72.45 L44.55 -72.45 Q52.15 -72.45 52.15 -64.85 L52.15 48.0 Q52.15 55.6 44.55 55.6 L-35.6 55.6 Q-43.2 55.6 -43.2 48.0 L-43.2 -64.85 Q-43.2 -72.45 -35.6 -72.45 M44.55 -69.6 L-35.6 -69.6 Q-40.35 -69.6 -40.35 -64.85 L-40.35 48.0 Q-40.35 52.75 -35.6 52.75 L44.55 52.75 Q49.3 52.75 49.3 48.0 L49.3 -64.85 Q49.3 -69.6 44.55 -69.6" fill="#cfd2f5" fill-rule="evenodd" stroke="none"/>
    <path d="M44.55 -69.6 Q49.3 -69.6 49.3 -64.85 L49.3 48.0 Q49.3 52.75 44.55 52.75 L-35.6 52.75 Q-40.35 52.75 -40.35 48.0 L-40.35 -64.85 Q-40.35 -69.6 -35.6 -69.6 L44.55 -69.6" fill="#bfbee2" fill-rule="evenodd" stroke="none"/>
  </g>
</svg>
