<?xml version="1.0" encoding="UTF-8" standalone="no"?>
<svg xmlns:xlink="http://www.w3.org/1999/xlink" height="65.45px" width="406.6px" xmlns="http://www.w3.org/2000/svg">
  <g transform="matrix(1.0, 0.0, 0.0, 1.0, 203.3, 32.7)">
    <path d="M-170.6 -32.0 L170.6 -32.0 Q183.85 -32.0 193.2 -22.65 202.6 -13.25 202.6 0.0 L202.6 0.05 Q202.6 13.3 193.2 22.65 183.85 32.05 170.6 32.05 L-170.6 32.05 Q-183.85 32.05 -193.25 22.65 -202.6 13.3 -202.6 0.05 L-202.6 0.0 Q-202.6 -13.25 -193.25 -22.65 -183.85 -32.0 -170.6 -32.0" fill="#e5e5ff" fill-opacity="0.7490196" fill-rule="evenodd" stroke="none"/>
    <path d="M-170.6 -32.0 L170.6 -32.0 Q183.85 -32.0 193.2 -22.65 202.6 -13.25 202.6 0.0 L202.6 0.05 Q202.6 13.3 193.2 22.65 183.85 32.05 170.6 32.05 L-170.6 32.05 Q-183.85 32.05 -193.25 22.65 -202.6 13.3 -202.6 0.05 L-202.6 0.0 Q-202.6 -13.25 -193.25 -22.65 -183.85 -32.0 -170.6 -32.0 Z" fill="none" stroke="#46498c" stroke-linecap="round" stroke-linejoin="round" stroke-opacity="0.81960785" stroke-width="1.4000000000000001"/>
  </g>
</svg>
