<?xml version="1.0" encoding="UTF-8" standalone="no"?>
<svg xmlns:xlink="http://www.w3.org/1999/xlink" height="67.05px" width="84.05px" xmlns="http://www.w3.org/2000/svg">
  <g transform="matrix(1.0, 0.0, 0.0, 1.0, 75.7, 26.4)">
    <path d="M3.65 -1.25 Q3.0 -3.6 0.95 -5.9 -3.3 -10.75 -8.6 -13.7 -15.65 -17.7 -24.6 -18.1 L-25.15 -18.1 -32.2 -17.75 -35.05 -17.45 Q-42.95 -16.8 -49.35 -17.4 -63.0 -18.7 -69.85 -25.65 L-69.8 -25.3 Q-65.85 -9.45 -54.45 1.7 L-48.15 7.25 -43.5 10.35 -41.35 11.7 -39.75 10.25 -37.55 8.2 -31.7 3.25 -31.25 2.9 Q-23.3 -2.6 -14.65 -3.8 L-1.4 -3.25 Q1.65 -2.65 3.65 -1.25 7.9 1.75 7.55 8.6 7.85 33.2 -22.15 38.75 L-28.9 39.6 -34.9 39.9 -43.95 39.3 Q-60.9 37.15 -74.65 26.15 L-74.95 25.9 Q-64.5 27.4 -52.0 19.6 -46.85 16.4 -41.35 11.7" fill="none" stroke="#000000" stroke-linecap="round" stroke-linejoin="round" stroke-width="1.5"/>
  </g>
</svg>
