<?xml version="1.0" encoding="UTF-8" standalone="no"?>
<svg xmlns:xlink="http://www.w3.org/1999/xlink" height="113.65px" width="160.65px" xmlns="http://www.w3.org/2000/svg">
  <g transform="matrix(1.0, 0.0, 0.0, 1.0, 72.9, 39.6)">
    <path d="M12.15 -1.95 Q14.0 -1.9 15.7 -1.05 23.05 -14.25 42.25 -16.7 L48.35 -16.95 53.7 -16.8 57.2 -16.3 60.1 -20.9 Q68.1 -32.45 77.25 -34.1 L76.9 -34.2 Q62.05 -40.95 47.35 -37.95 L39.6 -35.7 Q36.9 -34.8 34.7 -33.65 32.0 -32.55 29.35 -30.85 11.1 -19.4 12.15 -1.95 L8.95 -1.55 Q7.45 -1.2 5.9 -0.35 L5.05 0.1 3.35 1.2 Q-3.8 6.15 -6.4 12.25 -9.75 20.5 -9.15 30.25 L-9.05 30.9 -9.05 30.8 -7.8 38.45 -7.75 38.75 -7.2 41.45 Q-5.6 49.95 -5.5 57.0 -5.25 70.1 -7.45 73.3 7.4 70.6 15.7 59.9 L20.85 52.2 Q22.6 49.35 23.65 46.7 25.3 43.7 26.45 40.4 L26.65 39.9 Q35.8 14.5 20.5 2.15 18.4 0.45 15.85 -1.0 L15.7 -1.05 M20.5 2.15 Q21.75 1.6 23.25 1.3 L35.35 0.9 Q43.1 2.2 49.7 7.8 L50.15 8.25 50.1 8.25 54.6 12.95 Q60.5 8.2 65.75 5.15 78.0 -1.95 87.0 0.4 L86.75 0.1 Q76.2 -12.15 61.65 -15.55 L57.2 -16.3 M54.6 12.95 L54.85 13.2 56.6 15.3 Q61.75 20.95 66.6 24.7 77.15 32.7 86.85 31.3 L86.5 31.6 Q72.7 42.35 57.1 44.3 L48.75 44.7 43.3 44.35 37.2 43.55 Q31.15 42.2 26.65 39.9 M-7.75 38.75 Q-11.85 40.85 -16.9 42.5 L-23.65 44.25 Q-26.35 45.05 -29.65 45.45 L-38.9 46.15 Q-56.35 46.35 -71.75 37.5 L-72.15 37.3 Q-61.3 37.3 -49.8 27.8 -44.5 23.5 -39.05 17.25 -44.4 12.15 -49.6 8.8 -61.2 1.4 -72.05 3.35 L-71.65 3.1 Q-57.15 -7.9 -40.9 -11.1 -43.05 -16.15 -45.65 -20.15 -53.0 -31.65 -63.6 -34.35 L-63.15 -34.45 Q-44.15 -38.7 -27.1 -34.1 -24.55 -33.4 -18.4 -31.15 -15.25 -29.9 -12.9 -28.65 L-7.05 -25.4 Q9.5 -14.55 8.95 -1.55 M-40.9 -11.1 L-38.85 -11.5 -29.6 -12.4 Q-26.3 -12.6 -23.6 -12.35 L-16.85 -11.8 Q-0.25 -9.3 5.9 -0.35 M5.05 0.1 Q2.45 -1.9 -1.8 -2.1 -8.95 -2.55 -15.3 -0.75 -23.9 1.75 -31.15 8.3 L-31.55 8.8 -36.75 14.45 -38.7 16.85 -39.05 17.25" fill="none" stroke="#000000" stroke-linecap="round" stroke-linejoin="round" stroke-width="1.5"/>
  </g>
</svg>
