<?xml version="1.0" encoding="UTF-8" standalone="no"?>
<svg xmlns:xlink="http://www.w3.org/1999/xlink" height="26.05px" width="47.5px" xmlns="http://www.w3.org/2000/svg">
  <g transform="matrix(1.0, 0.0, 0.0, 1.0, 46.1, 22.15)">
    <path d="M-28.9 -15.1 Q-28.65 -13.15 -29.3 -11.4 L-29.55 -10.75 0.4 -4.95 -0.6 1.7 -30.9 -4.1 -31.05 -2.5 Q-31.45 -1.2 -32.35 0.0 -34.2 2.25 -37.15 2.8 -40.0 3.3 -42.35 1.8 -44.7 0.35 -45.05 -2.3 -45.45 -4.9 -43.65 -7.1 -42.6 -8.45 -41.1 -9.25 -42.25 -10.65 -42.45 -12.6 -42.9 -15.6 -41.25 -18.05 -39.55 -20.5 -36.75 -21.05 -33.9 -21.55 -31.65 -19.8 -29.3 -18.05 -28.9 -15.1 Z" fill="none" stroke="#000000" stroke-linecap="round" stroke-linejoin="round" stroke-width="2.0"/>
  </g>
</svg>
