<?xml version="1.0" encoding="UTF-8" standalone="no"?>
<svg xmlns:xlink="http://www.w3.org/1999/xlink" height="48.0px" width="81.0px" xmlns="http://www.w3.org/2000/svg">
  <g transform="matrix(1.0, 0.0, 0.0, 1.0, 74.15, 29.45)">
    <path d="M-31.1 -19.75 L-32.3 -20.65 Q-34.4 -21.85 -35.4 -21.8 -35.25 -27.3 -37.25 -28.45 -38.55 -27.95 -41.85 -22.0 L-45.15 -20.8 -47.2 -20.35 Q-47.6 -25.7 -49.0 -26.05 -50.55 -26.5 -54.25 -18.6 L-56.65 -17.75 -59.6 -16.75 Q-60.05 -19.25 -61.3 -22.15 -63.95 -21.0 -67.05 -13.15 -70.55 -11.25 -72.05 -10.05 -73.6 -8.8 -72.95 -8.45 L-67.2 -8.6 Q-55.0 -11.05 -48.05 -4.9 -45.7 -2.85 -41.9 1.3 -38.0 5.5 -33.1 8.9 -27.9 12.45 -15.3 16.4 -2.7 20.4 1.6 10.2 3.8 5.9 5.5 0.2 6.15 -3.75 5.55 -6.35 L4.9 -8.15 Q3.25 -11.75 -4.0 -8.4 -4.95 -15.3 -7.3 -17.15 -8.65 -16.15 -13.15 -9.1 -14.75 -6.35 -17.65 -9.65 L-16.0 -19.05 Q-19.2 -19.5 -22.65 -13.95 -24.25 -16.95 -26.05 -18.4 -25.15 -22.65 -26.55 -24.75 -27.55 -24.45 -31.1 -19.75 Z" fill="none" stroke="#000000" stroke-linecap="round" stroke-linejoin="round" stroke-width="2.0"/>
  </g>
</svg>
