<?xml version="1.0" encoding="UTF-8" standalone="no"?>
<svg xmlns:xlink="http://www.w3.org/1999/xlink" height="53.5px" width="82.0px" xmlns="http://www.w3.org/2000/svg">
  <g transform="matrix(1.0, 0.0, 0.0, 1.0, 75.85, 40.6)">
    <path d="M-60.65 -33.2 L-60.6 -33.15 Q-60.95 -31.8 -60.5 -29.95 L-60.25 -29.1 Q-58.75 -33.1 -54.6 -32.75 L-54.6 -33.0 -54.5 -36.05 M-68.45 -28.6 Q-67.85 -27.1 -66.35 -25.25 L-65.7 -24.45 Q-64.7 -29.05 -60.5 -29.95 M-54.6 -32.75 Q-54.45 -29.6 -53.5 -26.45 -51.6 -19.55 -45.95 -12.45 M-41.55 -31.25 Q-43.25 -35.65 -48.15 -32.7 L-48.2 -27.15 Q-47.7 -19.3 -43.8 -12.8 M-54.6 -33.0 Q-50.55 -35.65 -47.9 -35.1 L-47.85 -36.05 M-48.15 -32.7 L-47.9 -35.1 M-65.7 -24.45 L-61.35 -20.1 -61.2 -20.05 -55.85 -15.65 Q-52.65 -12.85 -50.0 -9.65 M-69.15 -12.9 Q-71.55 -16.6 -69.9 -19.9 L-70.0 -20.0 -72.7 -22.2 M-66.35 -25.25 Q-69.5 -23.2 -69.5 -19.7 -66.65 -17.5 -63.4 -15.8 L-63.05 -15.7 Q-55.75 -11.7 -51.5 -7.0 M-69.5 -19.7 L-69.9 -19.9 M-47.95 -11.45 Q-54.15 -18.3 -57.35 -23.45 -59.45 -26.6 -60.25 -29.1" fill="none" stroke="#000000" stroke-linecap="round" stroke-linejoin="round" stroke-opacity="0.4862745" stroke-width="0.05"/>
    <path d="M-54.5 -36.05 Q-58.35 -39.5 -60.65 -33.2 -67.3 -34.8 -68.45 -28.6 -73.95 -26.05 -72.7 -22.2 L-72.85 -22.0 Q-77.7 -17.8 -70.8 -13.65 L-69.15 -12.9 -53.35 -4.75 -51.4 -4.0 -51.1 -3.9 -51.05 -3.9 -50.4 -2.65 -49.5 -1.25 -47.2 1.2 -45.1 2.95 Q-44.35 3.4 -43.8 3.95 L-43.0 4.4 -38.2 7.45 Q-33.5 9.9 -28.35 11.05 L-16.2 11.8 Q-9.85 11.35 -3.1 9.15 5.2 6.4 5.15 2.5 5.45 -6.0 -7.15 -4.25 L-12.6 -3.7 -21.15 -4.3 Q-24.9 -5.0 -28.85 -6.6 -31.45 -7.6 -34.0 -9.1 L-37.25 -11.0 Q-39.1 -12.05 -40.75 -12.5 -40.8 -14.1 -41.9 -15.6 -44.6 -19.0 -42.45 -27.9 L-41.65 -30.85 -41.55 -31.25 Q-39.3 -39.35 -44.5 -39.5 -46.55 -39.4 -47.85 -36.05 -46.85 -39.9 -50.35 -39.6 -53.55 -39.1 -54.5 -36.05" fill="none" stroke="#000000" stroke-linecap="round" stroke-linejoin="round" stroke-width="2.0"/>
  </g>
</svg>
