<?xml version="1.0" encoding="UTF-8" standalone="no"?>
<svg xmlns:xlink="http://www.w3.org/1999/xlink" height="67.1px" width="105.05px" xmlns="http://www.w3.org/2000/svg">
  <g transform="matrix(1.0, 0.0, 0.0, 1.0, 101.1, 33.75)">
    <path d="M-35.2 21.15 Q-35.95 19.75 -35.7 18.3 -34.5 12.8 -31.55 6.8 L-30.8 4.3 Q-28.95 -3.1 -33.4 -11.0 -36.55 -18.65 -47.2 -23.7 -55.95 -27.05 -54.6 -32.75 -56.5 -27.0 -54.35 -23.9 -53.55 -22.65 -52.65 -22.25 -50.95 -21.55 -50.85 -19.9 -50.65 -19.1 -51.3 -18.2 -52.25 -16.8 -51.6 -14.8 -51.05 -13.3 -49.05 -12.85 L-48.7 -12.85 Q-47.3 -12.75 -46.5 -11.2 -46.1 -10.0 -46.55 -8.95 -47.1 -7.5 -46.3 -6.3 -45.9 -5.65 -44.85 -5.3 -43.7 -4.7 -43.3 -3.55 -43.2 -2.6 -44.15 -1.8 L-44.4 -1.5 Q-44.95 -0.55 -43.9 1.15 -43.0 3.05 -44.65 4.05 -47.5 7.35 -47.65 12.25 -51.0 9.75 -55.25 11.95 L-55.4 12.05 Q-58.1 13.9 -61.15 11.4 -64.7 7.4 -67.7 7.0 -70.5 7.0 -73.1 8.85 -76.8 10.6 -79.95 7.65 -83.55 2.95 -89.6 3.9 -93.55 4.4 -97.0 1.8 -98.55 0.45 -100.1 0.85 -97.8 1.55 -95.05 5.75 -92.9 8.55 -87.75 9.5 -84.0 10.1 -78.8 19.5 L-77.45 21.55 Q-68.95 34.4 -55.85 31.95 -50.95 31.1 -46.15 29.25 -43.25 27.5 -36.55 27.65 L-36.1 27.65 Q-31.25 27.85 -25.35 25.2 L-25.1 25.15 Q-18.2 21.4 -14.4 16.6 -10.65 13.05 -7.4 12.65 L-2.45 11.45 Q6.3 6.45 0.85 -1.25 -2.75 -7.15 -8.1 -3.35 -15.7 1.95 -22.0 9.6 -26.45 15.25 -31.6 19.25 -33.4 20.5 -35.2 21.15 Z" fill="none" stroke="#000000" stroke-linecap="round" stroke-linejoin="round" stroke-width="2.0"/>
  </g>
</svg>
