<?xml version="1.0" encoding="UTF-8" standalone="no"?>
<svg xmlns:xlink="http://www.w3.org/1999/xlink" height="69.35px" width="150.1px" xmlns="http://www.w3.org/2000/svg">
  <g transform="matrix(1.0, 0.0, 0.0, 1.0, 153.95, 25.5)">
    <path d="M-20.1 15.6 L-20.7 17.4 Q-21.7 21.2 -19.8 23.45 -9.5 18.75 -4.75 1.65 -4.6 -6.15 -10.9 -2.85 -17.4 3.05 -24.85 5.0 L-31.3 2.2 Q-49.4 -5.45 -71.8 -23.5 -78.1 -26.3 -85.45 -21.85 -116.55 -12.0 -138.0 -2.25 L-136.6 -1.85 Q-118.85 3.0 -101.95 -5.1 M-69.15 -10.5 Q-75.7 -14.25 -80.95 -12.4 -92.75 -8.5 -98.35 -3.4 -88.0 -2.25 -76.3 -7.45 M-72.65 -8.15 Q-78.95 -4.25 -79.95 -0.35 -73.05 -0.1 -67.35 -3.25 M-30.75 8.75 Q-34.8 11.2 -35.1 14.2 -23.4 13.15 -13.3 5.4 M-20.7 17.4 Q-27.0 28.75 -35.35 32.65 -36.6 29.95 -34.9 25.3 -41.75 34.35 -47.1 35.75 -48.2 33.1 -46.1 29.2 -53.1 38.1 -59.0 38.35 -58.8 33.65 -54.3 26.5 -67.25 38.65 -81.35 42.95 -82.35 35.35 -70.25 24.7 -95.6 38.15 -107.3 37.65 -106.9 33.75 -90.45 23.05 -105.25 32.05 -120.55 31.35 -115.45 24.1 -105.95 18.25 -118.05 25.4 -131.05 23.0 -125.25 16.9 -116.8 11.6 -127.55 16.95 -140.5 15.3 -134.95 10.45 -129.15 6.2 -144.25 9.45 -153.05 5.7 -148.25 2.25 -136.6 -1.85 M-34.9 25.3 L-34.05 23.15 M-42.05 6.8 Q-44.65 9.35 -44.75 11.85 -38.35 11.9 -32.7 8.35 M-99.05 -5.5 Q-111.9 -0.35 -118.05 7.9 -103.0 10.1 -87.05 2.05 -95.7 9.2 -100.15 16.3 -87.15 18.25 -70.85 10.55 -75.9 17.45 -76.15 22.85 -66.9 21.7 -57.7 13.9 -63.95 19.95 -64.85 24.65 -53.7 23.85 -43.6 16.15 -46.75 20.25 -46.55 23.85 -36.65 23.6 -31.05 16.15 M-52.7 1.35 Q-55.65 5.55 -55.6 9.15 -49.95 10.1 -44.3 6.25 M-70.25 24.7 L-69.45 23.95 M-46.1 29.2 L-43.6 25.5 M-65.8 -2.3 Q-69.25 1.85 -69.75 5.95 -61.0 6.75 -54.25 1.9 M-54.3 26.5 L-52.95 24.4 M-90.45 23.05 L-89.4 22.4 -79.1 16.0 M-105.95 18.25 Q-103.95 16.95 -101.7 15.75 M-116.8 11.6 L-114.4 10.15 M-129.15 6.2 L-123.35 2.3" fill="none" stroke="#000000" stroke-linecap="round" stroke-linejoin="round" stroke-width="1.8"/>
  </g>
</svg>
