<?xml version="1.0" encoding="UTF-8" standalone="no"?>
<svg xmlns:xlink="http://www.w3.org/1999/xlink" height="71.3px" width="145.25px" xmlns="http://www.w3.org/2000/svg">
  <g transform="matrix(1.0, 0.0, 0.0, 1.0, 72.6, 35.65)">
    <path d="M19.65 -16.1 Q9.1 -16.85 8.4 -10.35 8.0 5.45 27.55 12.05 39.2 15.55 62.8 18.8 74.5 21.3 72.3 25.8 71.8 30.2 29.3 33.4 L-5.6 35.65 -3.45 33.9 -36.7 33.9 Q-45.15 33.1 -25.2 26.8 -35.55 24.1 -40.2 16.55 L-41.45 20.05 Q-50.15 15.6 -55.95 18.9 -61.4 22.8 -62.2 34.3 L-72.6 9.55 Q-60.5 10.05 -46.85 6.05 -48.3 -2.15 -46.85 -9.35 -51.5 -12.1 -50.45 -18.45 -47.05 -20.4 -40.7 -19.8 -27.3 -33.0 -13.95 -29.05 -11.3 -34.95 -5.35 -35.65 -3.25 -35.0 -1.2 -27.1 0.7 -18.75 3.3 -18.7 8.9 -20.25 15.4 -34.95 19.35 -27.35 19.65 -16.1 M-30.95 -16.7 Q-34.0 -12.75 -46.85 -15.1 -43.9 -7.5 -33.85 -7.35 -29.7 -11.05 -30.95 -16.7 M-16.1 -21.35 Q-11.0 -17.05 -5.35 -18.45 -4.95 -25.15 -7.45 -29.7 -10.35 -23.65 -16.1 -21.35" fill="#000000" fill-rule="evenodd" stroke="none"/>
    <path d="M-30.95 -16.7 Q-29.7 -11.05 -33.85 -7.35 -43.9 -7.5 -46.85 -15.1 -34.0 -12.75 -30.95 -16.7 M-16.1 -21.35 Q-10.35 -23.65 -7.45 -29.7 -4.95 -25.15 -5.35 -18.45 -11.0 -17.05 -16.1 -21.35" fill="#de6363" fill-rule="evenodd" stroke="none"/>
  </g>
</svg>
