<?xml version="1.0" encoding="UTF-8" standalone="no"?>
<svg xmlns:xlink="http://www.w3.org/1999/xlink" height="40.85px" width="57.4px" xmlns="http://www.w3.org/2000/svg">
  <g transform="matrix(1.0, 0.0, 0.0, 1.0, 61.1, 18.3)">
    <path d="M-59.9 -14.25 Q-58.4 -18.35 -48.0 -17.15 -36.9 -14.65 -30.6 -12.15 -17.85 -6.5 -9.6 2.5 -6.8 5.55 -4.6 8.95 -6.7 13.2 -12.05 16.65 L-13.35 17.4 Q-24.65 23.25 -38.5 21.0 L-42.5 19.45 Q-45.3 18.1 -47.1 16.4 -50.35 12.45 -44.45 13.45 -39.0 14.8 -36.45 14.05 -43.95 13.9 -50.95 8.4 L-53.2 6.0 Q-55.5 3.05 -55.45 1.25 -55.35 -1.3 -46.75 2.05 -41.05 3.95 -38.65 3.5 -42.65 2.65 -48.65 -0.05 -55.25 -2.95 -57.8 -6.7 L-58.3 -7.55 Q-61.0 -11.9 -59.9 -14.25 Z" fill="none" stroke="#000000" stroke-linecap="round" stroke-linejoin="round" stroke-width="1.8"/>
  </g>
</svg>
