<?xml version="1.0" encoding="UTF-8" standalone="no"?>
<svg xmlns:xlink="http://www.w3.org/1999/xlink" height="121.6px" width="109.3px" xmlns="http://www.w3.org/2000/svg">
  <g transform="matrix(1.0, 0.0, 0.0, 1.0, 54.65, 60.8)">
    <path d="M26.2 -36.1 Q25.55 -28.35 32.6 -25.45 40.8 -22.5 46.6 -29.85 33.75 -26.2 26.2 -36.1 M25.85 -56.1 Q34.75 -62.8 44.6 -59.95 56.4 -56.3 54.35 -38.2 53.55 -21.95 38.45 -8.95 23.65 0.45 2.45 0.4 -6.6 0.25 -14.65 -1.85 -27.8 -4.8 -34.55 2.8 -41.55 10.6 -39.55 16.9 -36.45 23.05 -17.25 24.8 0.6 27.1 15.1 37.15 23.95 43.3 19.1 52.15 14.0 59.7 4.2 60.8 16.05 54.85 17.75 47.25 19.4 39.65 10.85 38.55 -8.3 34.4 -35.05 31.4 -55.3 29.15 -54.65 17.55 -53.75 6.3 -43.65 -6.1 -29.9 -21.35 -13.4 -20.2 8.25 -18.6 15.85 -36.45 20.1 -50.25 25.85 -56.1" fill="#000000" fill-rule="evenodd" stroke="none"/>
    <path d="M26.2 -36.1 Q33.75 -26.2 46.6 -29.85 40.8 -22.5 32.6 -25.45 25.55 -28.35 26.2 -36.1" fill="#ffffff" fill-rule="evenodd" stroke="none"/>
  </g>
</svg>
