<?xml version="1.0" encoding="UTF-8" standalone="no"?>
<svg xmlns:xlink="http://www.w3.org/1999/xlink" height="240.2px" width="425.85px" xmlns="http://www.w3.org/2000/svg">
  <g transform="matrix(1.0, 0.0, 0.0, 1.0, 212.9, 120.1)">
    <path d="M-190.2 62.7 Q-188.95 21.3 -174.0 -12.95 -158.85 -47.6 -130.85 -72.45 -104.6 -95.85 -69.9 -108.2 -36.4 -120.1 0.05 -120.1 36.45 -120.1 69.95 -108.2 104.65 -95.85 130.9 -72.45 158.9 -47.6 174.05 -12.95 188.45 20.0 190.15 59.45 186.15 57.25 181.5 57.25 L177.2 57.75 Q175.25 22.35 162.3 -7.35 148.15 -39.7 122.05 -62.9 97.55 -84.7 65.2 -96.25 34.0 -107.35 0.05 -107.35 -33.95 -107.35 -65.15 -96.25 -97.5 -84.7 -122.0 -62.9 -148.1 -39.7 -162.25 -7.35 -175.65 23.35 -177.25 60.2 L-180.55 59.9 Q-185.9 59.9 -190.2 62.7" fill="#ec1c24" fill-rule="evenodd" stroke="none"/>
    <path d="M113.55 65.25 Q112.7 41.0 103.9 20.85 94.85 0.25 78.15 -14.55 62.45 -28.45 41.75 -35.75 21.75 -42.85 0.05 -42.85 -21.7 -42.85 -41.7 -35.75 -62.4 -28.45 -78.1 -14.55 -94.8 0.25 -103.85 20.85 -112.05 39.55 -113.35 61.85 -114.65 60.7 -116.2 59.75 -120.45 57.25 -125.4 57.25 L-125.5 57.25 Q-123.65 34.4 -115.2 14.95 -105.2 -8.1 -86.65 -24.65 -69.25 -40.2 -46.25 -48.45 -24.1 -56.35 0.05 -56.35 24.15 -56.35 46.3 -48.45 69.3 -40.2 86.7 -24.65 105.25 -8.1 115.25 14.95 124.2 35.5 125.8 59.9 119.4 60.1 114.5 64.35 L113.55 65.25" fill="#7f3f98" fill-rule="evenodd" stroke="none"/>
    <path d="M151.65 62.65 Q150.4 30.65 138.75 4.1 126.7 -23.45 104.35 -43.2 83.4 -61.8 55.75 -71.65 29.1 -81.1 0.05 -81.1 -29.0 -81.1 -55.7 -71.65 -83.35 -61.8 -104.3 -43.2 -126.65 -23.4 -138.7 4.1 -150.4 30.75 -151.6 62.9 L-154.75 62.65 Q-160.25 62.65 -165.0 65.2 -164.1 28.3 -150.85 -2.1 -137.75 -32.25 -113.45 -53.9 -90.7 -74.25 -60.6 -85.0 -31.55 -95.35 0.05 -95.35 31.6 -95.35 60.65 -85.0 90.75 -74.25 113.5 -53.9 137.8 -32.25 150.9 -2.1 164.5 29.05 165.1 67.0 159.35 62.65 152.15 62.65 L151.65 62.65" fill="#ffdd1c" fill-rule="evenodd" stroke="none"/>
    <path d="M-151.6 62.9 Q-150.4 30.75 -138.7 4.1 -126.65 -23.4 -104.3 -43.2 -83.35 -61.8 -55.7 -71.65 -29.0 -81.1 0.05 -81.1 29.1 -81.1 55.75 -71.65 83.4 -61.8 104.35 -43.2 126.7 -23.45 138.75 4.1 150.4 30.65 151.65 62.65 145.35 62.8 140.15 66.3 L139.35 65.4 Q138.5 34.55 127.4 9.05 116.35 -16.45 95.85 -34.8 76.6 -52.0 51.2 -61.1 26.7 -69.85 0.05 -69.85 -26.65 -69.85 -51.15 -61.1 -76.55 -52.0 -95.8 -34.8 -116.3 -16.45 -127.35 9.05 -138.15 33.85 -139.2 63.7 -140.55 65.3 -141.55 67.2 -146.1 63.65 -151.6 62.9" fill="#0c9f4c" fill-rule="evenodd" stroke="none"/>
    <path d="M-177.25 60.2 Q-175.65 23.35 -162.25 -7.35 -148.1 -39.7 -122.0 -62.9 -97.5 -84.7 -65.15 -96.25 -33.95 -107.35 0.05 -107.35 34.0 -107.35 65.2 -96.25 97.55 -84.7 122.05 -62.9 148.15 -39.7 162.3 -7.35 175.25 22.35 177.2 57.75 174.4 58.4 171.9 60.0 167.65 62.7 165.35 67.2 L165.1 67.0 Q164.5 29.05 150.9 -2.1 137.8 -32.25 113.5 -53.9 90.75 -74.25 60.65 -85.0 31.6 -95.35 0.05 -95.35 -31.55 -95.35 -60.6 -85.0 -90.7 -74.25 -113.45 -53.9 -137.75 -32.25 -150.85 -2.1 -164.1 28.3 -165.0 65.2 L-166.8 66.3 Q-169.3 63.3 -172.85 61.65 -175.0 60.6 -177.25 60.2" fill="#f26623" fill-rule="evenodd" stroke="none"/>
    <path d="M-139.2 63.7 Q-138.15 33.85 -127.35 9.05 -116.3 -16.45 -95.8 -34.8 -76.55 -52.0 -51.15 -61.1 -26.65 -69.85 0.05 -69.85 26.7 -69.85 51.2 -61.1 76.6 -52.0 95.85 -34.8 116.35 -16.45 127.4 9.05 138.5 34.55 139.35 65.4 137.05 63.05 134.05 61.65 130.4 59.9 126.35 59.9 L125.8 59.9 Q124.2 35.5 115.25 14.95 105.25 -8.1 86.7 -24.65 69.3 -40.2 46.3 -48.45 24.15 -56.35 0.05 -56.35 -24.1 -56.35 -46.25 -48.45 -69.25 -40.2 -86.65 -24.65 -105.2 -8.1 -115.2 14.95 -123.65 34.4 -125.5 57.25 -130.65 57.3 -135.0 60.0 -137.45 61.55 -139.2 63.7" fill="#213e9a" fill-rule="evenodd" stroke="none"/>
    <path d="M190.15 59.45 L190.7 59.75 Q194.8 62.2 197.15 66.3 203.85 67.15 208.4 72.25 212.95 77.35 212.95 84.2 212.95 90.7 208.8 95.7 204.75 100.65 198.5 101.95 196.55 107.25 191.95 110.55 187.25 113.9 181.5 113.9 178.2 113.9 174.8 112.6 172.3 116.1 168.5 118.05 164.6 120.1 160.15 120.1 152.55 120.1 147.25 114.7 141.95 120.1 134.35 120.1 129.15 120.1 124.75 117.35 120.5 114.65 118.2 110.15 115.15 111.2 112.1 111.2 104.6 111.2 99.3 105.9 94.0 100.6 94.0 93.1 94.0 86.65 98.15 81.65 102.2 76.7 108.45 75.4 109.35 69.45 113.55 65.25 L114.5 64.35 Q119.4 60.1 125.8 59.9 L126.35 59.9 Q130.4 59.9 134.05 61.65 137.05 63.05 139.35 65.4 L140.15 66.3 Q145.35 62.8 151.65 62.65 L152.15 62.65 Q159.35 62.65 165.1 67.0 L165.35 67.2 Q167.65 62.7 171.9 60.0 174.4 58.4 177.2 57.75 L181.5 57.25 Q186.15 57.25 190.15 59.45 M-113.35 61.85 Q-111.2 63.75 -109.75 66.3 -103.05 67.15 -98.5 72.25 -93.95 77.35 -93.95 84.2 -93.95 90.7 -98.1 95.7 -102.15 100.65 -108.4 101.95 -110.35 107.25 -114.95 110.55 -119.65 113.9 -125.4 113.9 -128.75 113.9 -132.1 112.6 -134.6 116.1 -138.4 118.05 -142.3 120.1 -146.75 120.1 -154.35 120.1 -159.65 114.7 -164.95 120.1 -172.55 120.1 -177.75 120.1 -182.15 117.35 -186.4 114.65 -188.7 110.15 -191.75 111.2 -194.8 111.2 -202.3 111.2 -207.6 105.9 -212.9 100.6 -212.9 93.1 -212.9 86.65 -208.75 81.65 -204.7 76.7 -198.45 75.4 -197.5 68.8 -192.45 64.35 -191.4 63.4 -190.2 62.7 -185.9 59.9 -180.55 59.9 L-177.25 60.2 Q-175.0 60.6 -172.85 61.65 -169.3 63.3 -166.8 66.3 L-165.0 65.2 Q-160.25 62.65 -154.75 62.65 L-151.6 62.9 Q-146.1 63.65 -141.55 67.2 -140.55 65.3 -139.2 63.7 -137.45 61.55 -135.0 60.0 -130.65 57.3 -125.5 57.25 L-125.4 57.25 Q-120.45 57.25 -116.2 59.75 -114.65 60.7 -113.35 61.85" fill="#ffffff" fill-rule="evenodd" stroke="none"/>
  </g>
</svg>
