<?xml version="1.0" encoding="UTF-8" standalone="no"?>
<svg xmlns:xlink="http://www.w3.org/1999/xlink" height="95.35px" width="231.75px" xmlns="http://www.w3.org/2000/svg">
  <g transform="matrix(1.0, 0.0, 0.0, 1.0, 115.85, 47.4)">
    <path d="M79.85 -22.75 L79.35 -25.7 Q78.8 -28.65 80.9 -34.65 81.25 -32.6 81.85 -30.85 84.4 -23.5 91.1 -21.25 L89.35 -21.25 Q84.95 -23.25 81.65 -29.75 80.85 -25.55 81.2 -20.7 80.4 -21.65 79.85 -22.75 M93.75 -30.5 L94.1 -31.8 99.85 -30.35 97.5 -23.6 Q97.25 -22.65 97.4 -21.95 96.15 -21.45 96.05 -23.2 L96.05 -23.35 97.1 -28.8 Q97.45 -30.55 93.75 -30.5 M77.9 -18.25 Q71.45 -20.7 66.05 -19.2 L66.75 -19.65 Q76.2 -21.4 78.45 -18.7 L77.9 -18.25 M71.25 -9.95 Q74.45 -13.2 77.75 -14.35 80.85 -15.45 82.65 -13.7 L80.95 -13.5 Q77.1 -12.75 71.25 -9.95 M84.3 -13.35 Q87.4 -13.65 88.35 -6.25 92.25 -9.05 95.1 -13.2 100.65 -9.65 104.55 -2.3 L103.65 -0.25 Q101.65 -4.2 98.95 -7.65 L95.25 -11.6 Q93.15 -7.9 89.0 -4.75 L87.45 -3.7 86.15 -8.8 85.8 -10.75 Q85.55 -12.05 84.3 -13.35 M107.75 -10.4 Q110.15 -11.15 113.1 -8.75 L110.85 -12.95 Q114.2 -10.1 115.4 -5.6 111.75 -8.7 107.75 -10.4 M104.7 -15.25 Q99.25 -12.5 94.7 -14.15 L99.45 -14.65 104.7 -15.25 M109.65 -23.0 Q111.25 -24.75 112.2 -27.5 113.15 -18.8 106.75 -16.0 109.65 -20.3 109.65 -23.0 M85.55 -16.15 L91.25 -14.25 Q87.35 -13.65 85.55 -16.15 M93.0 -16.75 Q89.3 -16.5 87.6 -18.55 L93.0 -16.75 M-87.4 -25.75 L-86.95 -24.0 Q-91.8 -24.1 -91.35 -21.8 L-89.95 -14.65 -89.95 -14.4 Q-90.1 -12.15 -91.75 -12.8 -91.55 -13.7 -91.85 -14.95 L-94.95 -23.8 -87.4 -25.75 M-83.45 -11.9 Q-74.65 -14.85 -71.35 -24.5 -70.55 -26.8 -70.1 -29.45 -67.35 -21.6 -68.05 -17.7 L-68.7 -13.85 Q-69.4 -12.4 -70.5 -11.15 -70.0 -17.5 -71.05 -23.0 -75.4 -14.5 -81.2 -11.9 L-83.45 -11.9 M-51.5 -9.8 L-50.6 -9.15 Q-57.65 -11.15 -66.15 -7.95 L-66.85 -8.55 Q-63.9 -12.05 -51.5 -9.8 M-57.4 2.95 Q-65.1 -0.7 -70.15 -1.7 L-72.4 -1.95 Q-70.0 -4.25 -65.95 -2.8 -61.65 -1.3 -57.4 2.95 M-107.85 -14.15 Q-107.85 -10.65 -104.0 -4.95 -112.4 -8.65 -111.2 -20.05 -109.95 -16.45 -107.85 -14.15 M-101.3 -4.0 L-94.45 -3.2 -88.2 -2.55 Q-94.2 -0.4 -101.3 -4.0 M-85.95 -5.95 L-78.85 -8.3 Q-81.1 -5.65 -85.95 -5.95 M-83.7 -2.7 L-76.2 -5.2 Q-78.55 -1.9 -83.7 -2.7 M-77.0 4.45 L-78.7 11.2 -80.7 9.8 Q-86.15 5.65 -88.95 0.8 -91.6 3.25 -93.75 6.0 -97.35 10.5 -99.95 15.7 L-101.15 13.0 Q-96.0 3.35 -88.7 -1.3 -85.0 4.15 -79.85 7.8 -78.6 -1.9 -74.55 -1.5 -76.2 0.2 -76.5 1.9 L-77.0 4.45 M-105.35 2.35 Q-110.6 4.6 -115.35 8.7 -113.8 2.8 -109.4 -1.0 L-112.35 4.55 Q-108.45 1.4 -105.35 2.35" fill="#12001b" fill-rule="evenodd" stroke="none"/>
    <path d="M51.3 -40.75 Q49.4 -40.4 48.05 -38.55 L46.8 -41.45 47.25 -41.95 Q48.7 -43.5 50.35 -44.0 L51.0 -41.95 51.3 -40.75 M46.15 -43.45 Q45.75 -45.3 46.45 -45.7 L48.75 -46.9 49.5 -45.7 Q47.3 -44.95 46.15 -43.45 M-28.85 -43.95 L-27.85 -45.55 -24.85 -43.95 Q-23.95 -43.45 -24.5 -41.0 -25.95 -42.95 -28.85 -43.95 M-25.3 -38.4 L-26.95 -34.55 Q-28.75 -37.0 -31.2 -37.45 L-30.85 -39.05 -29.95 -41.7 Q-27.8 -41.05 -25.9 -39.05 L-25.3 -38.4" fill="#494949" fill-rule="evenodd" stroke="none"/>
    <path d="M51.3 -40.75 L52.4 -39.35 Q49.6 -39.35 50.05 -32.75 48.75 -35.65 48.05 -38.55 49.4 -40.4 51.3 -40.75 M54.9 -34.25 L60.05 -40.05 Q60.25 -36.8 58.3 -33.5 61.95 -31.65 64.25 -28.25 L57.7 -31.05 60.55 -31.05 57.0 -33.5 58.25 -36.8 Q56.55 -35.0 54.9 -34.25 M49.85 -30.35 Q44.4 -28.95 41.0 -33.5 45.35 -32.15 50.05 -32.75 47.2 -31.6 43.3 -32.25 45.2 -31.05 49.85 -30.35 L49.15 -22.8 Q47.7 -26.7 49.85 -30.35 M57.6 -27.6 L57.55 -24.55 52.9 -30.45 57.6 -27.6 M-39.6 -24.7 L-48.2 -21.05 Q-45.2 -25.55 -40.45 -27.95 -43.0 -32.25 -42.7 -36.55 L-35.95 -28.95 Q-38.15 -29.95 -40.35 -32.3 L-38.7 -27.95 -43.35 -24.7 -39.6 -24.7 M-26.95 -34.55 Q-27.85 -30.75 -29.6 -26.95 -23.4 -26.15 -17.7 -27.95 -22.2 -21.95 -29.35 -23.8 -26.5 -19.0 -28.4 -13.9 L-29.35 -23.8 Q-23.25 -24.75 -20.7 -26.3 -25.85 -25.45 -29.6 -26.95 -29.0 -35.65 -32.65 -35.6 L-31.2 -37.45 Q-28.75 -37.0 -26.95 -34.55 M-33.35 -23.95 L-39.45 -16.2 -39.5 -20.2 Q-36.4 -22.05 -33.35 -23.95" fill="#030502" fill-rule="evenodd" stroke="none"/>
    <path d="M59.65 -25.1 L64.7 -11.15 62.35 -12.5 60.8 -16.8 59.65 -25.1 M50.35 -44.0 Q48.7 -43.5 47.25 -41.95 L46.8 -41.45 46.65 -41.95 46.15 -43.45 Q47.3 -44.95 49.5 -45.7 L50.35 -44.0 M91.05 14.9 L88.4 18.2 87.7 15.55 92.2 4.0 97.85 -3.5 Q95.3 5.6 91.05 14.9 M-42.2 -16.95 L-43.7 -6.05 -45.75 -0.4 -48.8 1.4 -42.2 -16.95 M-24.5 -41.0 L-25.1 -39.05 -25.3 -38.4 -25.9 -39.05 Q-27.8 -41.05 -29.95 -41.7 L-28.85 -43.95 Q-25.95 -42.95 -24.5 -41.0 M-79.0 36.45 L-79.95 39.95 -83.4 35.6 Q-89.0 23.35 -92.35 11.45 L-84.95 21.3 -79.0 36.45" fill="#ffffff" fill-rule="evenodd" stroke="none"/>
    <path d="M50.05 -32.75 Q49.6 -39.35 52.4 -39.35 54.0 -37.1 54.9 -34.25 56.55 -35.0 58.25 -36.8 L57.0 -33.5 60.55 -31.05 57.7 -31.05 57.7 -30.65 57.6 -27.6 52.9 -30.45 51.5 -28.0 Q50.05 -25.25 49.55 -21.9 L49.15 -22.8 49.85 -30.35 Q45.2 -31.05 43.3 -32.25 47.2 -31.6 50.05 -32.75 M51.4 -28.35 L51.5 -28.0 51.4 -28.35 M-39.6 -24.2 L-39.6 -24.7 -43.35 -24.7 -38.7 -27.95 -40.35 -32.3 Q-38.15 -29.95 -35.95 -28.95 -34.75 -32.65 -32.65 -35.6 -29.0 -35.65 -29.6 -26.95 -25.85 -25.45 -20.7 -26.3 -23.25 -24.75 -29.35 -23.8 L-28.4 -13.9 -28.95 -12.7 Q-29.6 -17.15 -31.5 -20.7 L-31.35 -21.2 -31.5 -20.7 -33.35 -23.95 Q-36.4 -22.05 -39.5 -20.2 L-39.6 -24.2" fill="#003700" fill-rule="evenodd" stroke="none"/>
    <path d="M57.7 -30.65 L58.85 -27.35 Q58.95 -24.55 57.95 -23.05 54.2 -27.35 53.95 -26.15 L60.3 -8.05 58.85 -7.75 51.5 -28.0 52.9 -30.45 57.55 -24.55 57.6 -27.6 57.7 -30.65 M-43.05 5.45 L-34.7 -18.3 Q-35.05 -19.85 -39.95 -14.2 -41.25 -16.2 -41.15 -19.85 L-39.6 -24.2 -39.5 -20.2 -39.45 -16.2 -33.35 -23.95 -31.5 -20.7 -41.15 5.85 -43.05 5.45" fill="#6f6f6f" fill-rule="evenodd" stroke="none"/>
    <path d="M58.85 -27.35 L59.65 -25.1 60.8 -16.8 62.35 -12.5 63.9 -8.15 60.9 -8.25 60.3 -8.05 53.95 -26.15 Q54.2 -27.35 57.95 -23.05 58.95 -24.55 58.85 -27.35 M-42.2 -16.95 L-41.15 -19.85 Q-41.25 -16.2 -39.95 -14.2 -35.05 -19.85 -34.7 -18.3 L-43.05 5.45 -43.85 5.2 -47.8 5.3 -45.75 -0.4 -43.7 -6.05 -42.2 -16.95" fill="#9c9c9c" fill-rule="evenodd" stroke="none"/>
    <path d="M79.85 -22.75 Q80.4 -21.65 81.2 -20.7 80.85 -25.55 81.65 -29.75 84.95 -23.25 89.35 -21.25 L91.1 -21.25 91.4 -21.2 93.75 -30.5 Q97.45 -30.55 97.1 -28.8 L96.05 -23.35 96.05 -23.2 Q96.15 -21.45 97.4 -21.95 97.7 -20.85 99.0 -20.45 106.0 -18.85 109.65 -23.0 109.65 -20.3 106.75 -16.0 109.05 -14.55 110.85 -12.95 L113.1 -8.75 Q110.15 -11.15 107.75 -10.4 L105.75 -11.2 Q106.6 -6.75 104.55 -2.3 100.65 -9.65 95.1 -13.2 92.25 -9.05 88.35 -6.25 87.4 -13.65 84.3 -13.35 L83.4 -13.7 82.65 -13.7 Q80.85 -15.45 77.75 -14.35 74.45 -13.2 71.25 -9.95 L71.15 -9.9 Q72.25 -14.3 77.7 -18.1 L77.95 -18.25 77.9 -18.25 78.45 -18.7 Q76.2 -21.4 66.75 -19.65 72.85 -25.1 79.6 -22.85 L79.85 -22.75 M94.1 -31.8 L94.45 -33.1 100.35 -31.65 99.85 -30.35 94.1 -31.8 M104.7 -15.25 Q105.8 -15.55 106.75 -16.0 105.8 -15.55 104.7 -15.25 L99.45 -14.65 94.7 -14.15 Q99.25 -12.5 104.7 -15.25 M85.55 -16.15 Q87.35 -13.65 91.25 -14.25 L85.55 -16.15 M93.0 -16.75 L87.6 -18.55 Q89.3 -16.5 93.0 -16.75 M92.9 -15.3 Q84.6 -16.8 81.2 -20.7 84.6 -16.8 92.9 -15.3 M-94.95 -23.8 L-95.6 -25.55 -87.85 -27.45 -87.4 -25.75 -94.95 -23.8 M-86.95 -24.0 L-83.85 -11.8 -83.45 -11.9 -81.2 -11.9 Q-75.4 -14.5 -71.05 -23.0 -70.0 -17.5 -70.5 -11.15 -69.4 -12.4 -68.7 -13.85 L-68.4 -13.95 Q-59.55 -16.95 -51.5 -9.8 -63.9 -12.05 -66.85 -8.55 L-66.15 -7.95 -66.2 -7.95 -65.9 -7.75 Q-58.75 -2.75 -57.3 3.0 L-57.4 2.95 Q-61.65 -1.3 -65.95 -2.8 -70.0 -4.25 -72.4 -1.95 L-73.35 -1.95 -74.55 -1.5 Q-78.6 -1.9 -79.85 7.8 -85.0 4.15 -88.7 -1.3 -96.0 3.35 -101.15 13.0 -103.8 7.15 -102.7 1.3 L-105.35 2.35 Q-108.45 1.4 -112.35 4.55 L-109.4 -1.0 Q-107.05 -3.1 -104.0 -4.95 -107.85 -10.65 -107.85 -14.15 -103.05 -8.75 -93.85 -10.8 -92.15 -11.35 -91.75 -12.8 -90.1 -12.15 -89.95 -14.4 L-89.95 -14.65 -91.35 -21.8 Q-91.8 -24.1 -86.95 -24.0 M-101.3 -4.0 L-104.0 -4.95 -101.3 -4.0 Q-94.2 -0.4 -88.2 -2.55 L-94.45 -3.2 -101.3 -4.0 M-85.95 -5.95 Q-81.1 -5.65 -78.85 -8.3 L-85.95 -5.95 M-83.7 -2.7 Q-78.55 -1.9 -76.2 -5.2 L-83.7 -2.7 M-70.5 -11.15 Q-74.95 -6.0 -85.85 -4.05 -74.95 -6.0 -70.5 -11.15" fill="#34005c" fill-rule="evenodd" stroke="none"/>
    <path d="M64.7 -11.15 L66.0 -7.5 63.9 -8.15 62.35 -12.5 64.7 -11.15 M-45.75 -0.4 L-47.8 5.3 Q-49.1 5.55 -50.5 6.15 L-48.8 1.4 -45.75 -0.4" fill="#cccccc" fill-rule="evenodd" stroke="none"/>
    <path d="M82.65 -13.7 L83.4 -13.7 84.3 -13.35 Q85.55 -12.05 85.8 -10.75 L86.15 -8.8 85.85 -5.1 Q84.35 -11.85 80.35 -11.8 L80.95 -13.5 82.65 -13.7 M88.9 -3.4 L89.0 -4.75 Q93.15 -7.9 95.25 -11.6 L98.95 -7.65 98.5 -6.05 Q96.95 -7.55 94.6 -7.7 93.65 -8.3 88.9 -3.4 M81.0 9.8 L81.85 13.4 82.9 17.65 80.2 19.55 79.25 19.35 81.55 17.55 81.0 9.8 M-70.15 -1.7 L-69.35 0.55 Q-74.6 0.5 -76.6 9.3 L-77.0 4.45 -76.5 1.9 Q-76.2 0.2 -74.55 -1.5 L-73.35 -1.95 -72.4 -1.95 -70.15 -1.7 M-93.75 6.0 Q-91.6 3.25 -88.95 0.8 -86.15 5.65 -80.7 9.8 L-80.6 11.55 Q-86.8 5.15 -88.1 5.95 -91.15 6.1 -93.2 8.1 L-93.75 6.0 M-71.35 33.6 L-70.2 28.9 -70.95 39.05 -67.9 41.4 -69.15 41.7 -72.7 39.2 -71.35 33.6" fill="#37363e" fill-rule="evenodd" stroke="none"/>
    <path d="M85.85 -5.1 L86.15 -8.8 87.45 -3.7 89.0 -4.75 88.9 -3.4 88.55 4.9 84.6 4.9 87.1 2.5 85.65 -2.65 85.85 -5.1 M81.85 13.4 L82.15 4.9 83.25 4.9 82.9 17.65 81.85 13.4 M-80.7 9.8 L-78.7 11.2 -77.0 4.45 -76.6 9.3 -76.35 12.55 -78.2 19.3 -74.95 22.45 -80.1 22.45 -80.6 11.55 -80.7 9.8 M-73.2 22.45 L-71.7 22.45 -71.35 33.6 -72.7 39.2 -73.2 22.45" fill="#8953a9" fill-rule="evenodd" stroke="none"/>
    <path d="M80.35 -11.8 Q84.35 -11.85 85.85 -5.1 L85.65 -2.65 85.35 1.35 79.25 2.7 81.0 9.8 81.55 17.55 79.25 19.35 Q76.95 18.9 73.75 19.35 70.55 19.75 69.2 18.55 74.2 3.5 80.35 -11.8 M88.9 -3.4 Q93.65 -8.3 94.6 -7.7 96.95 -7.55 98.5 -6.05 L98.35 -5.45 Q96.05 -6.25 95.0 -4.3 L92.2 4.0 87.7 15.55 84.6 22.55 82.7 20.95 Q81.7 20.0 80.2 19.55 L82.9 17.65 83.25 4.9 84.6 4.9 88.55 4.9 88.9 -3.4 M-69.35 0.55 Q-61.3 20.6 -54.7 40.35 -56.5 41.95 -60.7 41.45 -64.9 40.85 -67.9 41.4 L-70.95 39.05 -70.2 28.9 -67.95 19.55 -75.95 17.8 -76.35 12.55 -76.6 9.3 Q-74.6 0.5 -69.35 0.55 M-80.6 11.55 L-80.1 22.45 -74.95 22.45 -73.2 22.45 -72.7 39.2 -69.15 41.7 Q-71.15 42.3 -72.45 43.55 L-74.95 45.65 -79.0 36.45 -84.95 21.3 -88.6 10.4 Q-89.95 7.8 -93.0 8.9 L-93.2 8.1 Q-91.15 6.1 -88.1 5.95 -86.8 5.15 -80.6 11.55" fill="#6a6c69" fill-rule="evenodd" stroke="none"/>
    <path d="M95.0 -4.3 Q96.05 -6.25 98.35 -5.45 L97.85 -3.5 92.2 4.0 95.0 -4.3 M87.7 15.55 L88.4 18.2 91.05 14.9 86.8 23.5 Q85.75 23.3 84.6 22.55 L87.7 15.55 M-74.95 45.65 Q-76.45 46.6 -77.85 46.9 L-83.4 35.6 -79.95 39.95 -79.0 36.45 -74.95 45.65 M-93.0 8.9 Q-89.95 7.8 -88.6 10.4 L-84.95 21.3 -92.35 11.45 -93.0 8.9" fill="#c4c4c4" fill-rule="evenodd" stroke="none"/>
    <path d="M83.25 4.9 L82.15 4.9 81.85 13.4 81.0 9.8 79.25 2.7 85.35 1.35 85.65 -2.65 87.1 2.5 84.6 4.9 83.25 4.9 M-74.95 22.45 L-78.2 19.3 -76.35 12.55 -75.95 17.8 -67.95 19.55 -70.2 28.9 -71.35 33.6 -71.7 22.45 -73.2 22.45 -74.95 22.45" fill="#cda6e7" fill-rule="evenodd" stroke="none"/>
    <path d="M91.1 -21.25 Q84.4 -23.5 81.85 -30.85 81.25 -32.6 80.9 -34.65 78.8 -28.65 79.35 -25.7 L79.85 -22.75 Q80.4 -21.65 81.2 -20.7 84.6 -16.8 92.9 -15.3 M91.1 -21.25 L91.4 -21.2 93.75 -30.5 94.1 -31.8 94.45 -33.1 100.35 -31.65 99.85 -30.35 97.5 -23.6 Q97.25 -22.65 97.4 -21.95 97.7 -20.85 99.0 -20.45 106.0 -18.85 109.65 -23.0 111.25 -24.75 112.2 -27.5 113.15 -18.8 106.75 -16.0 105.8 -15.55 104.7 -15.25 L99.45 -14.65 M52.4 -39.35 L51.3 -40.75 Q49.4 -40.4 48.05 -38.55 48.75 -35.65 50.05 -32.75 45.35 -32.15 41.0 -33.5 44.4 -28.95 49.85 -30.35 47.7 -26.7 49.15 -22.8 L49.55 -21.9 Q50.05 -25.25 51.5 -28.0 L51.4 -28.35 M52.4 -39.35 Q54.0 -37.1 54.9 -34.25 L60.05 -40.05 Q60.25 -36.8 58.3 -33.5 61.95 -31.65 64.25 -28.25 L57.7 -31.05 57.7 -30.65 58.85 -27.35 59.65 -25.1 64.7 -11.15 66.0 -7.5 M51.3 -40.75 L51.0 -41.95 50.35 -44.0 Q48.7 -43.5 47.25 -41.95 L46.8 -41.45 48.05 -38.55 M49.5 -45.7 L48.75 -46.9 46.45 -45.7 Q45.75 -45.3 46.15 -43.45 47.3 -44.95 49.5 -45.7 L50.35 -44.0 M46.15 -43.45 L46.65 -41.95 46.8 -41.45 M52.9 -30.45 L51.5 -28.0 58.85 -7.75 M57.7 -30.65 L57.6 -27.6 57.55 -24.55 52.9 -30.45 M77.7 -18.1 L77.95 -18.25 77.9 -18.25 Q71.45 -20.7 66.05 -19.2 L66.75 -19.65 Q72.85 -25.1 79.6 -22.85 L79.85 -22.75 M82.65 -13.7 L83.4 -13.7 84.3 -13.35 Q85.55 -12.05 85.8 -10.75 L86.15 -8.8 85.85 -5.1 85.65 -2.65 85.35 1.35 79.25 2.7 81.0 9.8 81.85 13.4 82.9 17.65 83.25 4.9 84.6 4.9 88.55 4.9 88.9 -3.4 89.0 -4.75 87.45 -3.7 86.15 -8.8 M104.55 -2.3 Q106.6 -6.75 105.75 -11.2 L107.75 -10.4 Q111.75 -8.7 115.4 -5.6 114.2 -10.1 110.85 -12.95 109.05 -14.55 106.75 -16.0 M80.95 -13.5 L80.35 -11.8 Q74.2 3.5 69.2 18.55 M71.25 -9.95 Q77.1 -12.75 80.95 -13.5 L82.65 -13.7 M77.7 -18.1 Q72.25 -14.3 71.15 -9.9 M98.5 -6.05 L98.95 -7.65 95.25 -11.6 Q93.15 -7.9 89.0 -4.75 M98.35 -5.45 L98.5 -6.05 M97.85 -3.5 L98.35 -5.45 M98.95 -7.65 Q101.65 -4.2 103.65 -0.25 L104.55 -2.3 M91.05 14.9 Q95.3 5.6 97.85 -3.5 M92.2 4.0 L87.7 15.55 84.6 22.55 M86.8 23.5 L91.05 14.9 M92.2 4.0 L95.0 -4.3 M-94.95 -23.8 L-95.6 -25.55 -87.85 -27.45 -87.4 -25.75 -86.95 -24.0 -83.85 -11.8 -83.45 -11.9 Q-74.65 -14.85 -71.35 -24.5 -70.55 -26.8 -70.1 -29.45 -67.35 -21.6 -68.05 -17.7 L-68.7 -13.85 -68.4 -13.95 Q-59.55 -16.95 -51.5 -9.8 L-50.6 -9.15 Q-57.65 -11.15 -66.15 -7.95 L-66.2 -7.95 -65.9 -7.75 Q-58.75 -2.75 -57.3 3.0 M-57.4 2.95 Q-65.1 -0.7 -70.15 -1.7 L-69.35 0.55 Q-61.3 20.6 -54.7 40.35 M-104.0 -4.95 L-101.3 -4.0 -94.45 -3.2 M-109.4 -1.0 Q-107.05 -3.1 -104.0 -4.95 -112.4 -8.65 -111.2 -20.05 -109.95 -16.45 -107.85 -14.15 -103.05 -8.75 -93.85 -10.8 -92.15 -11.35 -91.75 -12.8 -91.55 -13.7 -91.85 -14.95 L-94.95 -23.8 M-70.5 -11.15 Q-69.4 -12.4 -68.7 -13.85 M-74.55 -1.5 L-73.35 -1.95 -72.4 -1.95 -70.15 -1.7 M-41.15 -19.85 L-42.2 -16.95 -48.8 1.4 -50.5 6.15 M-41.15 -19.85 L-39.6 -24.2 -39.6 -24.7 -48.2 -21.05 Q-45.2 -25.55 -40.45 -27.95 -43.0 -32.25 -42.7 -36.55 L-35.95 -28.95 Q-34.75 -32.65 -32.65 -35.6 L-31.2 -37.45 Q-28.75 -37.0 -26.95 -34.55 -27.85 -30.75 -29.6 -26.95 -23.4 -26.15 -17.7 -27.95 -22.2 -21.95 -29.35 -23.8 -26.5 -19.0 -28.4 -13.9 L-28.95 -12.7 Q-29.6 -17.15 -31.5 -20.7 L-41.15 5.85 M-28.85 -43.95 L-27.85 -45.55 -24.85 -43.95 Q-23.95 -43.45 -24.5 -41.0 L-25.1 -39.05 -25.3 -38.4 -26.95 -34.55 M-29.95 -41.7 Q-27.8 -41.05 -25.9 -39.05 L-25.3 -38.4 M-24.5 -41.0 Q-25.95 -42.95 -28.85 -43.95 L-29.95 -41.7 -30.85 -39.05 -31.2 -37.45 M-31.5 -20.7 L-31.35 -21.2 M-39.5 -20.2 L-39.6 -24.2 M-33.35 -23.95 L-39.45 -16.2 -39.5 -20.2 M-33.35 -23.95 L-31.5 -20.7 M-85.85 -4.05 Q-74.95 -6.0 -70.5 -11.15 M-80.7 9.8 L-78.7 11.2 -77.0 4.45 -76.5 1.9 Q-76.2 0.2 -74.55 -1.5 M-101.15 13.0 L-99.95 15.7 Q-97.35 10.5 -93.75 6.0 -91.6 3.25 -88.95 0.8 -86.15 5.65 -80.7 9.8 L-80.6 11.55 -80.1 22.45 -74.95 22.45 -73.2 22.45 -72.7 39.2 -71.35 33.6 -70.2 28.9 -67.95 19.55 -75.95 17.8 -76.35 12.55 -76.6 9.3 -77.0 4.45 M-74.95 45.65 L-79.0 36.45 -84.95 21.3 -88.6 10.4 M-83.4 35.6 L-77.85 46.9 M-93.75 6.0 L-93.2 8.1 -93.0 8.9 -92.35 11.45 Q-89.0 23.35 -83.4 35.6 M-101.15 13.0 Q-103.8 7.15 -102.7 1.3 L-105.35 2.35 Q-110.6 4.6 -115.35 8.7 -113.8 2.8 -109.4 -1.0" fill="none" stroke="#000000" stroke-linecap="round" stroke-linejoin="round" stroke-width="1.0"/>
    <path d="M81.2 -20.7 Q80.85 -25.55 81.65 -29.75 84.95 -23.25 89.35 -21.25 L91.1 -21.25 M99.85 -30.35 L100.15 -30.25 M52.4 -39.35 L52.55 -39.8 M50.05 -32.75 Q49.6 -39.35 52.4 -39.35 M49.85 -30.35 Q45.2 -31.05 43.3 -32.25 47.2 -31.6 50.05 -32.75 M57.7 -31.05 L60.55 -31.05 57.0 -33.5 58.25 -36.8 Q56.55 -35.0 54.9 -34.25 M52.9 -30.45 L57.6 -27.6 M77.9 -18.25 L77.7 -18.1 M66.75 -19.65 Q76.2 -21.4 78.45 -18.7 L77.9 -18.25 M71.15 -9.9 L71.25 -9.95 Q74.45 -13.2 77.75 -14.35 80.85 -15.45 82.65 -13.7 M84.3 -13.35 Q87.4 -13.65 88.35 -6.25 92.25 -9.05 95.1 -13.2 100.65 -9.65 104.55 -2.3 M107.75 -10.4 Q110.15 -11.15 113.1 -8.75 L110.85 -12.95 110.5 -13.7 M104.7 -15.25 Q99.25 -12.5 94.7 -14.15 L99.45 -14.65 M49.15 -22.8 L49.85 -30.35 M97.4 -21.95 Q96.15 -21.45 96.05 -23.2 L96.05 -23.35 97.1 -28.8 Q97.45 -30.55 93.75 -30.5 M94.1 -31.8 L99.85 -30.35 M106.75 -16.0 Q109.65 -20.3 109.65 -23.0 M85.55 -16.15 Q87.35 -13.65 91.25 -14.25 L85.55 -16.15 M93.0 -16.75 Q89.3 -16.5 87.6 -18.55 L93.0 -16.75 M-66.15 -7.95 L-65.9 -7.75 M-57.3 3.0 L-57.4 2.95 Q-61.65 -1.3 -65.95 -2.8 -70.0 -4.25 -72.4 -1.95 M-107.85 -14.15 Q-107.85 -10.65 -104.0 -4.95 M-94.45 -3.2 L-88.2 -2.55 Q-94.2 -0.4 -101.3 -4.0 M-108.95 -1.95 L-109.4 -1.0 -112.35 4.55 Q-108.45 1.4 -105.35 2.35 M-94.95 -23.8 L-95.35 -23.7 M-91.75 -12.8 Q-90.1 -12.15 -89.95 -14.4 L-89.95 -14.65 -91.35 -21.8 Q-91.8 -24.1 -86.95 -24.0 M-83.45 -11.9 L-81.2 -11.9 Q-75.4 -14.5 -71.05 -23.0 -70.0 -17.5 -70.5 -11.15 M-87.4 -25.75 L-94.95 -23.8 M-51.5 -9.8 Q-63.9 -12.05 -66.85 -8.55 L-66.15 -7.95 M-32.65 -35.6 L-32.85 -36.2 M-39.6 -24.7 L-43.35 -24.7 -38.7 -27.95 -40.35 -32.3 Q-38.15 -29.95 -35.95 -28.95 M-28.4 -13.9 L-29.35 -23.8 Q-23.25 -24.75 -20.7 -26.3 -25.85 -25.45 -29.6 -26.95 -29.0 -35.65 -32.65 -35.6 M-39.5 -20.2 Q-36.4 -22.05 -33.35 -23.95 M-85.95 -5.95 Q-81.1 -5.65 -78.85 -8.3 L-85.95 -5.95 M-83.7 -2.7 L-76.2 -5.2 Q-78.55 -1.9 -83.7 -2.7 M-74.55 -1.5 Q-78.6 -1.9 -79.85 7.8 -85.0 4.15 -88.7 -1.3 -96.0 3.35 -101.15 13.0" fill="none" stroke="#000000" stroke-linecap="round" stroke-linejoin="round" stroke-width="0.05"/>
    <path d="M66.0 -7.5 Q68.15 -6.7 70.65 -4.95 M58.85 -7.75 L60.3 -8.05 60.9 -8.25 63.9 -8.15 66.0 -7.5 M49.0 -9.3 Q52.55 -6.55 58.85 -7.75 M84.6 22.55 Q85.75 23.3 86.8 23.5 88.7 23.8 90.3 22.4 95.8 18.05 98.5 18.55 103.0 19.25 106.15 23.55 M80.2 19.55 Q81.7 20.0 82.7 20.95 L84.6 22.55 M79.25 19.35 L80.2 19.55 M69.2 18.55 Q70.55 19.75 73.75 19.35 76.95 18.9 79.25 19.35 M68.9 18.2 L69.2 18.55 M-54.7 40.35 L-54.35 39.95 M-47.8 5.3 L-43.85 5.2 -43.05 5.45 -41.15 5.85 Q-32.9 7.45 -28.2 3.8 M-50.5 6.15 Q-49.1 5.55 -47.8 5.3 M-56.6 9.55 Q-53.35 7.25 -50.5 6.15 M-77.85 46.9 Q-76.45 46.6 -74.95 45.65 L-72.45 43.55 Q-71.15 42.3 -69.15 41.7 L-67.9 41.4 Q-64.9 40.85 -60.7 41.45 -56.5 41.95 -54.7 40.35 M-77.85 46.9 Q-80.3 47.3 -82.45 45.45 -89.65 39.7 -93.2 40.35 -99.1 41.3 -103.2 46.95" fill="none" stroke="#000000" stroke-linecap="round" stroke-linejoin="round" stroke-width="2.0"/>
  </g>
</svg>
