<?xml version="1.0" encoding="UTF-8" standalone="no"?>
<svg xmlns:xlink="http://www.w3.org/1999/xlink" height="55.7px" width="66.05px" xmlns="http://www.w3.org/2000/svg">
  <g transform="matrix(1.0, 0.0, 0.0, 1.0, 74.6, 22.8)">
    <path d="M-30.3 31.9 L-24.5 22.2 Q-36.65 30.5 -49.3 28.15 -45.75 26.45 -43.5 24.05 L-41.9 22.05 Q-38.65 16.35 -33.5 11.05 L-34.85 11.85 Q-53.25 23.2 -65.2 12.65 L-61.0 12.35 Q-54.1 11.15 -46.35 5.85 -65.1 8.6 -73.6 -4.75 -71.5 -3.85 -69.45 -3.3 L-56.9 -2.9 Q-50.0 -4.75 -44.15 -5.55 -52.75 -8.25 -56.1 -21.8 -44.15 -6.25 -20.45 -4.55 -12.1 -2.95 -9.85 5.45 L-9.6 8.4 Q-9.2 15.65 -11.05 19.1 -18.6 31.05 -30.3 31.9 M-44.15 -5.55 L-38.05 -6.2 M-12.25 12.65 Q-14.9 15.0 -18.1 16.05 L-30.05 15.7 -29.0 15.3 M-33.5 11.05 L-30.45 8.9 M-20.0 18.7 L-20.85 19.4 -24.5 22.2 M-18.65 7.55 Q-34.3 10.65 -39.1 -0.95 -37.35 0.0 -35.5 0.5 -31.1 1.6 -26.05 0.1 -21.85 -0.9 -17.2 1.7 M-28.2 15.0 Q-22.5 12.25 -20.25 8.65 M-39.9 0.9 L-41.05 1.85 -46.35 5.85" fill="none" stroke="#000000" stroke-linecap="round" stroke-linejoin="round" stroke-width="2.0"/>
  </g>
</svg>
