<?xml version="1.0" encoding="UTF-8" standalone="no"?>
<svg xmlns:xlink="http://www.w3.org/1999/xlink" height="93.5px" width="113.95px" xmlns="http://www.w3.org/2000/svg">
  <g transform="matrix(1.0, 0.0, 0.0, 1.0, 116.05, 67.55)">
    <path d="M-87.8 -33.9 Q-83.55 -36.2 -80.75 -36.75 L-86.6 -33.55 -79.4 -29.4 -82.7 -30.65 Q-86.7 -32.15 -88.05 -33.75 -87.9 -33.85 -87.8 -33.9 M-79.7 -21.25 Q-84.0 -18.05 -85.4 -15.85 L-69.55 -14.75 Q-78.7 -13.2 -88.3 -14.8 -83.75 -19.8 -82.2 -20.35 L-79.7 -21.25 M-74.05 -33.8 Q-71.6 -33.45 -64.45 -30.35 -57.35 -27.3 -52.6 -25.75 -57.1 -26.35 -61.75 -28.05 -69.25 -30.9 -72.95 -32.55 -76.6 -34.2 -74.05 -33.8 M-54.15 -6.25 Q-64.15 -2.7 -70.15 -4.3 -70.5 -8.25 -69.8 -9.95 -69.35 -11.25 -68.4 -11.95 -68.8 -9.55 -69.0 -5.4 L-54.15 -6.25 M-46.85 2.1 Q-49.1 0.2 -49.15 -5.05 L-47.7 -1.25 Q-47.0 -0.3 -46.55 0.8 L-38.65 -1.05 Q-36.3 -1.65 -34.85 -0.55 L-41.65 1.0 -46.85 2.1" fill="#09080b" fill-opacity="0.8392157" fill-rule="evenodd" stroke="none"/>
    <path d="M-95.85 -27.0 Q-97.85 -27.45 -100.55 -28.95 -100.85 -30.6 -98.55 -31.0 L-96.45 -31.3 Q-101.9 -33.95 -105.1 -37.1 -108.35 -40.25 -110.9 -44.0 -105.65 -45.15 -92.75 -41.2 -98.05 -44.15 -99.95 -48.55 -101.5 -51.95 -101.7 -56.6 L-101.75 -59.0 Q-101.75 -65.1 -99.35 -66.65 -87.1 -49.75 -72.15 -42.4 -57.35 -34.95 -48.25 -29.5 -39.85 -3.4 -13.95 2.75 -8.9 3.95 -3.3 4.4 -2.15 6.15 -5.65 9.35 -9.15 12.55 -17.65 12.6 L-18.15 20.25 Q-22.8 17.05 -24.25 11.5 L-25.7 24.45 Q-33.95 18.35 -35.8 11.3 -34.9 20.3 -36.15 24.15 -46.5 19.3 -46.3 11.95 -51.25 21.95 -56.65 25.05 -59.95 20.7 -58.95 12.2 L-60.55 14.25 Q-66.4 21.65 -75.75 24.15 -76.75 17.3 -76.0 13.25 L-74.65 6.55 Q-81.8 19.8 -93.3 22.9 -94.05 7.55 -87.5 -0.75 -99.55 6.3 -111.0 2.75 -101.5 -5.85 -98.1 -9.3 -94.7 -12.7 -93.05 -12.75 -100.55 -12.9 -105.4 -15.8 -110.15 -18.7 -115.15 -23.5 -105.5 -26.5 -95.85 -27.0 L-95.3 -26.85 M-24.25 11.5 L-24.2 10.8 M-74.65 6.55 L-74.45 6.15 -74.25 5.5" fill="none" stroke="#000000" stroke-linecap="round" stroke-linejoin="round" stroke-width="1.8"/>
  </g>
</svg>
