<?xml version="1.0" encoding="UTF-8" standalone="no"?>
<svg xmlns:xlink="http://www.w3.org/1999/xlink" height="208.4px" width="243.3px" xmlns="http://www.w3.org/2000/svg">
  <g transform="matrix(1.0, 0.0, 0.0, 1.0, 155.35, 353.8)">
    <path d="M-101.25 -302.25 L-98.75 -304.3 -100.1 -303.05 -101.25 -302.25 M57.4 -271.45 L57.5 -271.1 56.7 -271.6 57.4 -271.45 M32.5 -282.85 L30.2 -284.45 26.9 -284.35 Q22.2 -289.15 17.25 -294.85 L25.75 -287.75 30.2 -284.45 30.55 -284.5 32.5 -282.85 M30.85 -214.15 L31.2 -214.0 31.35 -213.55 30.85 -214.15 M-127.1 -270.85 L-126.65 -271.7 -126.6 -271.7 -127.1 -270.85" fill="#cccccc" fill-rule="evenodd" stroke="none"/>
    <path d="M12.3 -317.8 Q9.95 -315.6 13.15 -311.95 16.3 -308.35 19.7 -309.0 23.05 -309.7 22.65 -310.5 20.0 -316.55 12.3 -317.8 M-98.75 -304.3 L-95.3 -307.05 -93.35 -308.3 Q-62.85 -328.05 -25.75 -326.8 13.25 -327.95 36.4 -309.35 L40.75 -305.65 41.35 -305.2 Q58.5 -292.8 75.05 -297.6 72.85 -294.8 70.45 -292.7 59.65 -283.5 45.0 -289.55 L53.25 -283.4 Q56.4 -280.85 59.5 -278.8 67.9 -273.2 75.45 -271.25 72.3 -268.3 68.6 -267.85 63.55 -267.25 57.5 -271.1 L57.4 -271.45 64.7 -270.6 55.3 -277.3 Q50.1 -281.3 44.95 -285.95 L36.1 -294.35 Q40.7 -291.3 45.0 -289.55 40.7 -291.3 36.1 -294.35 L44.95 -285.95 Q50.1 -281.3 55.3 -277.3 L64.7 -270.6 57.4 -271.45 56.7 -271.6 Q53.35 -272.35 49.9 -273.65 41.6 -276.7 32.5 -282.85 L30.55 -284.5 30.2 -284.45 25.75 -287.75 17.25 -294.85 15.75 -296.6 12.6 -300.35 15.75 -296.6 17.25 -294.85 Q22.2 -289.15 26.9 -284.35 L30.1 -281.15 Q36.0 -275.45 41.5 -271.25 37.0 -272.85 32.5 -274.85 L30.4 -275.85 Q31.1 -276.5 30.4 -276.85 22.4 -280.5 14.6 -284.55 L8.7 -288.5 2.4 -293.15 8.7 -288.5 14.6 -284.55 Q4.9 -289.7 -4.5 -295.5 -8.95 -293.7 -6.55 -288.85 L-3.55 -282.5 -3.75 -282.5 -3.2 -281.8 -0.55 -275.65 Q-0.1 -274.6 0.75 -274.55 L3.4 -274.7 Q8.45 -270.3 14.7 -267.45 6.6 -267.9 -0.55 -269.95 -12.0 -273.3 -21.05 -280.75 L-23.4 -280.5 Q-28.45 -283.55 -33.75 -285.9 -38.9 -288.15 -50.75 -294.7 L-50.65 -294.35 -49.35 -290.5 -49.35 -290.45 Q-46.8 -283.2 -43.0 -276.35 -40.15 -266.5 -41.8 -257.05 -42.3 -254.15 -43.25 -251.3 L-44.65 -256.45 Q-46.1 -260.65 -48.55 -265.25 -51.55 -270.7 -56.05 -276.65 L-58.25 -276.1 -58.9 -278.25 -59.05 -278.65 -70.2 -280.95 -75.2 -282.05 -74.65 -281.95 -76.65 -291.15 Q-80.0 -288.2 -81.85 -283.2 L-81.75 -283.15 -83.25 -283.4 -91.4 -284.25 -93.35 -284.35 Q-84.1 -293.4 -92.3 -299.35 -110.35 -287.25 -115.85 -274.75 -121.35 -262.25 -123.7 -257.6 -122.7 -264.85 -120.35 -271.6 -116.85 -281.75 -110.45 -290.8 -114.4 -285.6 -119.25 -283.15 -129.65 -277.9 -144.15 -285.45 -136.95 -286.35 -129.8 -288.5 -115.35 -292.85 -101.25 -302.25 L-100.1 -303.05 -98.75 -304.3 M56.5 -261.75 Q67.4 -244.3 82.7 -240.05 80.6 -238.0 78.25 -236.45 70.15 -231.2 59.1 -231.9 L58.55 -231.95 Q49.55 -240.0 44.85 -249.35 42.4 -254.2 41.1 -259.4 42.4 -254.2 44.85 -249.35 49.55 -240.0 58.55 -231.95 L62.35 -227.75 62.3 -227.75 Q58.4 -228.5 54.9 -229.6 46.85 -232.15 40.75 -236.65 L43.0 -212.0 29.4 -220.55 Q31.7 -216.65 34.5 -213.0 L31.2 -214.0 30.85 -214.15 Q27.75 -215.2 24.9 -216.45 18.75 -219.25 13.9 -223.0 L7.25 -218.05 Q6.4 -222.9 2.65 -227.0 -0.65 -227.25 -2.55 -224.75 -7.6 -236.1 -16.15 -247.6 1.05 -195.15 -23.1 -148.05 -22.1 -151.8 -21.5 -155.85 -19.05 -172.95 -23.9 -195.85 -24.75 -189.75 -27.15 -184.6 -29.75 -179.1 -34.1 -174.65 -33.9 -178.3 -33.95 -181.95 -34.1 -193.75 -36.7 -206.15 L-38.1 -206.85 -39.65 -207.7 -41.25 -208.6 Q-49.65 -213.45 -61.45 -222.15 -51.45 -235.85 -42.1 -250.1 -40.55 -250.5 -38.95 -251.2 -33.65 -253.5 -28.45 -254.6 -17.5 -257.0 2.0 -258.8 21.45 -260.6 41.1 -259.4 L44.3 -259.8 56.75 -261.3 56.5 -261.75 M-71.2 -229.6 L-73.3 -231.25 -73.05 -231.0 -73.65 -231.45 -73.4 -231.7 Q-68.45 -235.7 -64.3 -240.85 L-64.9 -240.1 -71.2 -229.6 M-76.55 -213.25 Q-74.3 -195.65 -81.25 -182.5 -82.0 -188.7 -83.7 -194.95 -85.65 -202.0 -88.85 -209.15 L-79.5 -211.2 -76.4 -211.9 -76.55 -213.25 M-89.85 -208.95 Q-91.1 -194.6 -90.3 -183.1 L-89.55 -175.9 Q-91.9 -179.0 -93.75 -182.25 -100.3 -193.5 -101.6 -206.95 L-89.85 -208.95 M-110.45 -290.8 L-110.1 -291.35 -109.85 -291.7 Q-105.6 -297.6 -100.1 -303.05 -105.6 -297.6 -109.85 -291.7 L-110.1 -291.35 -110.45 -290.8 M-33.9 -279.35 L-35.05 -279.2 -36.15 -280.8 -33.9 -279.35 M32.35 -297.0 L36.1 -294.35 32.35 -297.0 M20.05 -252.15 Q21.15 -235.75 28.3 -222.5 L29.4 -220.55 28.3 -222.5 Q21.15 -235.75 20.05 -252.15 M-2.7 -248.85 Q1.45 -232.65 13.9 -223.0 1.45 -232.65 -2.7 -248.85 M26.7 -254.65 Q31.6 -243.4 40.75 -236.65 31.6 -243.4 26.7 -254.65 M-14.7 -313.6 L-16.85 -313.1 Q-18.0 -312.75 -17.95 -311.7 -17.7 -303.0 -11.45 -303.1 -5.25 -303.2 -5.1 -307.35 -5.0 -311.5 -14.7 -313.6 M-46.65 -314.4 Q-51.65 -310.8 -51.95 -306.7 -52.25 -302.6 -49.4 -299.85 -46.6 -297.1 -44.2 -305.3 -42.45 -311.4 -46.65 -314.4 M-74.2 -313.1 Q-80.05 -312.2 -84.45 -308.6 -85.65 -307.65 -84.9 -306.45 -82.15 -302.3 -79.45 -304.05 -76.8 -305.8 -73.75 -309.4 -70.75 -313.05 -74.2 -313.1 M-67.45 -290.15 Q-60.9 -283.1 -56.05 -276.65 -60.9 -283.1 -67.45 -290.15 M-21.05 -280.75 Q-27.85 -286.3 -33.3 -294.15 -27.85 -286.3 -21.05 -280.75 M-9.9 -293.15 Q-7.25 -287.25 -3.75 -282.5 -7.25 -287.25 -9.9 -293.15 M-21.4 -254.25 L-16.15 -247.6 -21.4 -254.25 M-51.75 -294.2 L-49.35 -290.5 -51.75 -294.2 M-36.7 -206.15 Q-39.9 -221.35 -46.75 -237.55 -39.9 -221.35 -36.7 -206.15 M-23.5 -205.4 Q-23.3 -200.35 -23.9 -195.85 -23.3 -200.35 -23.5 -205.4" fill="#132a4c" fill-rule="evenodd" stroke="none"/>
    <path d="M-112.9 -217.6 Q-118.75 -216.85 -120.5 -218.15 L-122.25 -218.45 -122.9 -218.6 -127.35 -220.1 Q-142.55 -224.95 -154.25 -225.05 -145.45 -233.45 -118.1 -251.05 L-117.9 -251.0 Q-91.9 -245.75 -66.5 -248.0 -88.95 -223.15 -103.2 -219.55 -109.0 -218.1 -112.9 -217.6 L-120.5 -218.15 -112.9 -217.6 M-114.2 -253.6 Q-114.1 -265.15 -109.25 -278.25 -106.95 -280.35 -99.35 -279.75 L-75.35 -277.25 Q-58.9 -275.35 -57.1 -271.45 -55.05 -261.75 -56.45 -253.15 -80.85 -248.2 -114.2 -253.6 M-91.4 -284.25 L-83.25 -283.4 -81.75 -283.15 -81.6 -283.15 -75.2 -282.05 -70.2 -280.95 -59.05 -278.65 -58.9 -278.25 Q-74.85 -282.3 -91.4 -284.25" fill="#4c97d9" fill-rule="evenodd" stroke="none"/>
    <path d="M-109.25 -278.25 L-108.8 -279.55 -103.9 -284.65 Q-99.25 -284.75 -94.55 -284.45 L-93.35 -284.35 -91.4 -284.25 Q-74.85 -282.3 -58.9 -278.25 L-58.25 -276.1 -57.1 -271.45 Q-58.9 -275.35 -75.35 -277.25 L-99.35 -279.75 Q-106.95 -280.35 -109.25 -278.25" fill="#79c7ff" fill-rule="evenodd" stroke="none"/>
    <path d="M57.5 -271.1 L57.7 -270.1 Q58.3 -266.95 58.2 -263.8 L55.25 -263.8 35.65 -263.8 Q-5.3 -263.85 -37.15 -257.95 L-40.8 -257.25 -41.8 -257.05 Q-40.15 -266.5 -43.0 -276.35 L-43.6 -278.25 -35.05 -279.2 -33.9 -279.35 -23.8 -280.45 -23.4 -280.5 -21.05 -280.75 Q-12.0 -273.3 -0.55 -269.95 6.6 -267.9 14.7 -267.45 8.45 -270.3 3.4 -274.7 -0.2 -277.85 -3.2 -281.8 L-3.75 -282.5 -3.55 -282.5 -3.25 -282.55 15.6 -283.95 Q18.0 -282.45 20.4 -281.05 L20.85 -280.8 21.35 -280.5 Q25.7 -278.05 30.15 -275.95 L30.4 -275.85 32.5 -274.85 Q37.0 -272.85 41.5 -271.25 36.0 -275.45 30.1 -281.15 L26.9 -284.35 30.2 -284.45 32.5 -282.85 Q41.6 -276.7 49.9 -273.65 53.35 -272.35 56.7 -271.6 L57.5 -271.1 M-73.65 -231.45 Q-76.5 -229.2 -79.65 -227.25 L-80.85 -226.55 Q-84.05 -224.7 -87.5 -223.2 -94.75 -220.05 -101.8 -218.65 L-105.95 -218.0 -106.0 -218.0 -112.9 -217.6 Q-109.0 -218.1 -103.2 -219.55 -88.95 -223.15 -66.5 -248.0 -91.9 -245.75 -117.9 -251.0 L-118.1 -251.05 -117.5 -251.4 -116.55 -252.05 -114.2 -253.6 Q-80.85 -248.2 -56.45 -253.15 -55.05 -261.75 -57.1 -271.45 L-58.25 -276.1 -56.05 -276.65 Q-51.55 -270.7 -48.55 -265.25 -46.1 -260.65 -44.65 -256.45 L-49.15 -255.45 -53.7 -254.35 -56.45 -253.15 -56.8 -252.45 -58.85 -248.75 -59.5 -247.65 Q-61.75 -244.05 -64.3 -240.85 -68.45 -235.7 -73.4 -231.7 L-73.65 -231.45 M-127.35 -220.1 Q-155.85 -214.65 -154.25 -225.05 -142.55 -224.95 -127.35 -220.1 M-117.5 -251.4 L-118.1 -251.05 -117.5 -251.4" fill="#3572b4" fill-rule="evenodd" stroke="none"/>
    <path d="M55.25 -263.8 L56.5 -261.75 56.75 -261.3 44.3 -259.8 41.1 -259.4 41.0 -259.85 41.1 -259.4 Q21.45 -260.6 2.0 -258.8 -17.5 -257.0 -28.45 -254.6 -33.65 -253.5 -38.95 -251.2 -40.55 -250.5 -42.1 -250.1 -51.45 -235.85 -61.45 -222.15 L-68.25 -227.3 -71.2 -229.6 -64.9 -240.1 -64.3 -240.85 Q-61.75 -244.05 -59.5 -247.65 L-58.85 -248.75 -56.8 -252.45 -56.45 -253.15 -53.7 -254.35 -49.15 -255.45 -44.65 -256.45 -43.25 -251.3 Q-42.3 -254.15 -41.8 -257.05 L-40.8 -257.25 -37.15 -257.95 Q-5.3 -263.85 35.65 -263.8 L55.25 -263.8 M59.1 -231.9 Q60.25 -230.9 61.45 -230.0 73.25 -221.2 86.95 -223.3 83.95 -217.95 80.0 -213.95 70.65 -204.4 56.0 -202.4 L56.35 -200.4 Q58.35 -188.55 55.7 -178.9 52.8 -168.45 53.35 -158.7 50.55 -162.1 48.7 -165.4 44.65 -172.6 45.1 -179.1 L44.15 -176.65 Q37.6 -160.5 26.6 -153.6 27.25 -155.6 27.7 -158.35 28.6 -163.95 28.65 -172.6 26.05 -168.1 24.3 -163.7 22.25 -158.75 21.4 -153.95 20.65 -150.2 20.65 -146.6 18.65 -149.05 17.55 -151.95 16.25 -155.25 16.1 -159.15 15.1 -155.3 13.3 -152.1 11.45 -148.9 8.75 -146.4 8.8 -149.15 8.35 -152.45 7.2 -161.05 2.55 -173.45 L2.0 -171.1 Q0.0 -163.2 -3.55 -156.15 L-3.65 -182.85 Q-5.4 -172.5 -10.1 -163.9 -15.05 -155.05 -23.1 -148.05 1.05 -195.15 -16.15 -247.6 -7.6 -236.1 -2.55 -224.75 2.25 -213.9 3.85 -203.15 6.4 -207.8 7.15 -211.95 7.7 -215.15 7.25 -218.05 L13.9 -223.0 Q18.75 -219.25 24.9 -216.45 27.75 -215.2 30.85 -214.15 L31.35 -213.55 31.2 -214.0 34.5 -213.0 Q31.7 -216.65 29.4 -220.55 L43.0 -212.0 40.75 -236.65 Q46.85 -232.15 54.9 -229.6 58.4 -228.5 62.3 -227.75 L62.35 -227.75 58.55 -231.95 59.1 -231.9 M-79.65 -227.25 L-78.5 -223.25 Q-77.2 -218.1 -76.55 -213.25 L-76.4 -211.9 -79.5 -211.2 -88.85 -209.15 -89.65 -210.9 -89.85 -208.95 -101.6 -206.95 -101.7 -208.35 Q-102.1 -213.15 -101.8 -218.25 L-101.8 -218.65 Q-94.75 -220.05 -87.5 -223.2 -84.05 -224.7 -80.85 -226.55 L-79.65 -227.25 M-108.8 -279.55 Q-119.2 -267.9 -124.2 -253.85 L-124.1 -254.7 -123.9 -256.15 -123.75 -257.6 -123.7 -257.6 Q-121.35 -262.25 -115.85 -274.75 -110.35 -287.25 -92.3 -299.35 -84.1 -293.4 -93.35 -284.35 L-94.55 -284.45 Q-99.25 -284.75 -103.9 -284.65 L-108.8 -279.55 M30.4 -275.85 L30.15 -275.95 Q25.7 -278.05 21.35 -280.5 L20.85 -280.8 20.4 -281.05 Q18.0 -282.45 15.6 -283.95 L-3.25 -282.55 -3.55 -282.5 -6.55 -288.85 Q-8.95 -293.7 -4.5 -295.5 4.9 -289.7 14.6 -284.55 22.4 -280.5 30.4 -276.85 31.1 -276.5 30.4 -275.85 M-3.2 -281.8 Q-0.2 -277.85 3.4 -274.7 L0.75 -274.55 Q-0.1 -274.6 -0.55 -275.65 L-3.2 -281.8 M-23.4 -280.5 L-23.8 -280.45 -33.9 -279.35 -36.15 -280.8 -35.05 -279.2 -43.6 -278.25 -43.0 -276.35 Q-46.8 -283.2 -49.35 -290.45 L-49.35 -290.5 -50.65 -294.35 -50.75 -294.7 Q-38.9 -288.15 -33.75 -285.9 -28.45 -283.55 -23.4 -280.5 M14.6 -284.55 L15.6 -283.95 14.6 -284.55 M2.55 -173.45 Q5.1 -185.3 4.3 -199.05 L3.85 -203.15 4.3 -199.05 Q5.1 -185.3 2.55 -173.45 M42.1 -227.75 Q53.55 -205.9 45.05 -187.15 44.7 -191.05 43.05 -195.25 39.75 -203.75 31.35 -213.55 39.75 -203.75 43.05 -195.25 44.7 -191.05 45.05 -187.15 53.55 -205.9 42.1 -227.75 M54.8 -202.25 L56.0 -202.4 54.8 -202.25 M34.25 -181.2 Q31.05 -176.85 28.65 -172.6 31.05 -176.85 34.25 -181.2 M17.05 -173.8 L17.25 -169.7 Q17.3 -163.9 16.1 -159.15 17.3 -163.9 17.25 -169.7 L17.05 -173.8 M48.25 -189.3 Q46.85 -183.85 45.1 -179.1 46.85 -183.85 48.25 -189.3 M-81.75 -283.15 L-81.85 -283.2 Q-80.0 -288.2 -76.65 -291.15 L-74.65 -281.95 -75.2 -282.05 -81.6 -283.15 -81.75 -283.15 M-123.9 -256.15 L-123.7 -257.6 -123.9 -256.15 M-94.35 -292.75 Q-99.5 -288.9 -103.9 -284.65 -99.5 -288.9 -94.35 -292.75 M-101.6 -206.95 L-101.7 -208.35 -101.6 -206.95 M-89.1 -216.45 L-89.65 -210.9 -89.1 -216.45 M-43.6 -278.25 Q-45.65 -284.3 -49.35 -290.45 -45.65 -284.3 -43.6 -278.25 M-2.95 -188.45 L-3.65 -182.85 -2.95 -188.45" fill="#091425" fill-rule="evenodd" stroke="none"/>
    <path d="M12.3 -317.8 Q20.0 -316.55 22.65 -310.5 23.05 -309.7 19.7 -309.0 16.3 -308.35 13.15 -311.95 9.95 -315.6 12.3 -317.8 M-74.2 -313.1 Q-70.75 -313.05 -73.75 -309.4 -76.8 -305.8 -79.45 -304.05 -82.15 -302.3 -84.9 -306.45 -85.65 -307.65 -84.45 -308.6 -80.05 -312.2 -74.2 -313.1 M-46.65 -314.4 Q-42.45 -311.4 -44.2 -305.3 -46.6 -297.1 -49.4 -299.85 -52.25 -302.6 -51.95 -306.7 -51.65 -310.8 -46.65 -314.4 M-14.7 -313.6 Q-5.0 -311.5 -5.1 -307.35 -5.25 -303.2 -11.45 -303.1 -17.7 -303.0 -17.95 -311.7 -18.0 -312.75 -16.85 -313.1 L-14.7 -313.6" fill="#245091" fill-rule="evenodd" stroke="none"/>
    <path d="M-98.75 -304.3 L-95.3 -307.05 -93.35 -308.3 Q-62.85 -328.05 -25.75 -326.8 13.25 -327.95 36.4 -309.35 L40.75 -305.65 41.35 -305.2 Q58.5 -292.8 75.05 -297.6 72.85 -294.8 70.45 -292.7 59.65 -283.5 45.0 -289.55 L53.25 -283.4 Q56.4 -280.85 59.5 -278.8 67.9 -273.2 75.45 -271.25 72.3 -268.3 68.6 -267.85 63.55 -267.25 57.5 -271.1 L57.7 -270.1 Q58.3 -266.95 58.2 -263.8 L55.25 -263.8 56.5 -261.75 Q67.4 -244.3 82.7 -240.05 80.6 -238.0 78.25 -236.45 70.15 -231.2 59.1 -231.9 60.25 -230.9 61.45 -230.0 73.25 -221.2 86.95 -223.3 83.95 -217.95 80.0 -213.95 70.65 -204.4 56.0 -202.4 L56.35 -200.4 Q58.35 -188.55 55.7 -178.9 52.8 -168.45 53.35 -158.7 50.55 -162.1 48.7 -165.4 44.65 -172.6 45.1 -179.1 L44.15 -176.65 Q37.6 -160.5 26.6 -153.6 27.25 -155.6 27.7 -158.35 28.6 -163.95 28.65 -172.6 26.05 -168.1 24.3 -163.7 22.25 -158.75 21.4 -153.95 20.65 -150.2 20.65 -146.6 18.65 -149.05 17.55 -151.95 16.25 -155.25 16.1 -159.15 15.1 -155.3 13.3 -152.1 11.45 -148.9 8.75 -146.4 8.8 -149.15 8.35 -152.45 7.2 -161.05 2.55 -173.45 L2.0 -171.1 Q0.0 -163.2 -3.55 -156.15 L-3.65 -182.85 Q-5.4 -172.5 -10.1 -163.9 -15.05 -155.05 -23.1 -148.05 -22.1 -151.8 -21.5 -155.85 -19.05 -172.95 -23.9 -195.85 -24.75 -189.75 -27.15 -184.6 -29.75 -179.1 -34.1 -174.65 -33.9 -178.3 -33.95 -181.95 -34.1 -193.75 -36.7 -206.15 L-38.1 -206.85 -39.65 -207.7 -41.25 -208.6 Q-49.65 -213.45 -61.45 -222.15 L-68.25 -227.3 -71.2 -229.6 -73.3 -231.25 -73.05 -231.0 -73.65 -231.45 Q-76.5 -229.2 -79.65 -227.25 L-78.5 -223.25 Q-77.2 -218.1 -76.55 -213.25 -74.3 -195.65 -81.25 -182.5 -82.0 -188.7 -83.7 -194.95 -85.65 -202.0 -88.85 -209.15 L-89.65 -210.9 -89.85 -208.95 Q-91.1 -194.6 -90.3 -183.1 L-89.55 -175.9 Q-91.9 -179.0 -93.75 -182.25 -100.3 -193.5 -101.6 -206.95 L-101.7 -208.35 Q-102.1 -213.15 -101.8 -218.25 M-101.8 -218.65 L-105.95 -218.0 -106.0 -218.0 -112.9 -217.6 -120.5 -218.15 -122.25 -218.45 -122.9 -218.6 -127.35 -220.1 Q-155.85 -214.65 -154.25 -225.05 -145.45 -233.45 -118.1 -251.05 L-117.5 -251.4 -116.55 -252.05 -114.2 -253.6 Q-114.1 -265.15 -109.25 -278.25 L-108.8 -279.55 Q-119.2 -267.9 -124.2 -253.85 L-124.1 -254.7 -123.9 -256.15 -123.7 -257.6 Q-122.7 -264.85 -120.35 -271.6 -116.85 -281.75 -110.45 -290.8 -114.4 -285.6 -119.25 -283.15 -129.65 -277.9 -144.15 -285.45 -136.95 -286.35 -129.8 -288.5 -115.35 -292.85 -101.25 -302.25 L-98.75 -304.3 -100.1 -303.05 Q-105.6 -297.6 -109.85 -291.7 L-110.1 -291.35 -110.45 -290.8 M45.0 -289.55 Q40.7 -291.3 36.1 -294.35 L44.95 -285.95 Q50.1 -281.3 55.3 -277.3 L64.7 -270.6 57.4 -271.45 57.5 -271.1 56.7 -271.6 Q53.35 -272.35 49.9 -273.65 41.6 -276.7 32.5 -282.85 L30.2 -284.45 26.9 -284.35 30.1 -281.15 Q36.0 -275.45 41.5 -271.25 37.0 -272.85 32.5 -274.85 L30.4 -275.85 M30.15 -275.95 Q25.7 -278.05 21.35 -280.5 L20.85 -280.8 20.4 -281.05 Q18.0 -282.45 15.6 -283.95 L-3.25 -282.55 M-3.55 -282.5 L-3.75 -282.5 -3.2 -281.8 Q-0.2 -277.85 3.4 -274.7 8.45 -270.3 14.7 -267.45 6.6 -267.9 -0.55 -269.95 -12.0 -273.3 -21.05 -280.75 L-23.4 -280.5 M-23.8 -280.45 L-33.9 -279.35 -35.05 -279.2 -43.6 -278.25 -43.0 -276.35 Q-40.15 -266.5 -41.8 -257.05 L-40.8 -257.25 -37.15 -257.95 Q-5.3 -263.85 35.65 -263.8 L55.25 -263.8 M57.4 -271.45 L56.7 -271.6 M41.1 -259.4 Q42.4 -254.2 44.85 -249.35 49.55 -240.0 58.55 -231.95 L59.1 -231.9 M41.1 -259.4 L41.0 -259.85 M36.1 -294.35 L32.35 -297.0 M17.25 -294.85 L25.75 -287.75 30.2 -284.45 30.55 -284.5 32.5 -282.85 M12.6 -300.35 L15.75 -296.6 17.25 -294.85 Q22.2 -289.15 26.9 -284.35 M14.6 -284.55 L8.7 -288.5 2.4 -293.15 M15.6 -283.95 L14.6 -284.55 M7.25 -218.05 Q7.7 -215.15 7.15 -211.95 6.4 -207.8 3.85 -203.15 L4.3 -199.05 Q5.1 -185.3 2.55 -173.45 M13.9 -223.0 Q18.75 -219.25 24.9 -216.45 27.75 -215.2 30.85 -214.15 L31.2 -214.0 34.5 -213.0 Q31.7 -216.65 29.4 -220.55 L28.3 -222.5 Q21.15 -235.75 20.05 -252.15 M31.2 -214.0 L31.35 -213.55 Q39.75 -203.75 43.05 -195.25 44.7 -191.05 45.05 -187.15 53.55 -205.9 42.1 -227.75 M30.85 -214.15 L31.35 -213.55 M13.9 -223.0 Q1.45 -232.65 -2.7 -248.85 M-2.55 -224.75 Q-0.65 -227.25 2.65 -227.0 6.4 -222.9 7.25 -218.05 M40.75 -236.65 Q46.85 -232.15 54.9 -229.6 58.4 -228.5 62.3 -227.75 L62.35 -227.75 58.55 -231.95 M56.0 -202.4 L54.8 -202.25 M40.75 -236.65 Q31.6 -243.4 26.7 -254.65 M45.1 -179.1 Q46.85 -183.85 48.25 -189.3 M16.1 -159.15 Q17.3 -163.9 17.25 -169.7 L17.05 -173.8 M28.65 -172.6 Q31.05 -176.85 34.25 -181.2 M-100.1 -303.05 L-101.25 -302.25 M-93.35 -284.35 L-91.4 -284.25 -83.25 -283.4 -81.75 -283.15 -81.6 -283.15 -75.2 -282.05 -70.2 -280.95 -59.05 -278.65 -58.9 -278.25 -58.25 -276.1 -56.05 -276.65 Q-60.9 -283.1 -67.45 -290.15 M-108.8 -279.55 L-103.9 -284.65 Q-99.5 -288.9 -94.35 -292.75 M-103.9 -284.65 Q-99.25 -284.75 -94.55 -284.45 M-127.35 -220.1 Q-142.55 -224.95 -154.25 -225.05 M-89.65 -210.9 L-89.1 -216.45 M-79.65 -227.25 L-80.85 -226.55 Q-84.05 -224.7 -87.5 -223.2 -94.75 -220.05 -101.8 -218.65 M-3.75 -282.5 Q-7.25 -287.25 -9.9 -293.15 M-33.3 -294.15 Q-27.85 -286.3 -21.05 -280.75 M-16.15 -247.6 L-21.4 -254.25 M-49.35 -290.45 L-49.35 -290.5 -51.75 -294.2 M-49.35 -290.45 Q-45.65 -284.3 -43.6 -278.25 M-44.65 -256.45 L-49.15 -255.45 -53.7 -254.35 -56.45 -253.15 -56.8 -252.45 -58.85 -248.75 -59.5 -247.65 Q-61.75 -244.05 -64.3 -240.85 -68.45 -235.7 -73.4 -231.7 L-73.65 -231.45 M-44.65 -256.45 L-43.25 -251.3 Q-42.3 -254.15 -41.8 -257.05 M-56.05 -276.65 Q-51.55 -270.7 -48.55 -265.25 -46.1 -260.65 -44.65 -256.45 M-114.2 -253.6 Q-80.85 -248.2 -56.45 -253.15 -55.05 -261.75 -57.1 -271.45 L-58.25 -276.1 M-46.75 -237.55 Q-39.9 -221.35 -36.7 -206.15 M-2.55 -224.75 Q-7.6 -236.1 -16.15 -247.6 M-3.65 -182.85 L-2.95 -188.45 M-23.9 -195.85 Q-23.3 -200.35 -23.5 -205.4 M3.85 -203.15 Q2.25 -213.9 -2.55 -224.75" fill="none" stroke="#1a5283" stroke-linecap="round" stroke-linejoin="round" stroke-width="2.0"/>
    <path d="M-26.55 -323.25 L-31.55 -324.8 Q-43.6 -353.45 -16.55 -352.8 -27.8 -343.4 -29.2 -326.05 -21.1 -353.0 10.15 -335.25 -15.05 -337.75 -26.55 -323.25" fill="#132a4c" fill-rule="evenodd" stroke="none"/>
    <path d="M-31.55 -324.8 Q-43.6 -353.45 -16.55 -352.8 -27.8 -343.4 -29.2 -326.05 -21.1 -353.0 10.15 -335.25 -15.05 -337.75 -26.55 -323.25" fill="none" stroke="#1a5283" stroke-linecap="round" stroke-linejoin="round" stroke-width="2.0"/>
  </g>
</svg>
