<?xml version="1.0" encoding="UTF-8" standalone="no"?>
<svg xmlns:xlink="http://www.w3.org/1999/xlink" height="589.4px" width="271.65px" xmlns="http://www.w3.org/2000/svg">
  <g transform="matrix(1.0, 0.0, 0.0, 1.0, 153.65, 244.5)">
    <path d="M1.65 329.0 L-0.75 326.8 -1.2 326.4 -1.45 326.15 Q1.0 325.15 3.45 324.25 2.25 326.55 1.65 329.0 M-6.1 313.7 Q-5.9 311.9 -5.2 310.1 -1.45 268.05 -2.7 207.35 -3.95 145.75 -9.75 92.05 L-12.7 91.6 Q-18.65 90.55 -23.85 88.55 L-26.95 87.25 -23.85 88.55 -23.75 90.05 -26.95 87.25 -26.95 87.2 -28.0 86.45 -28.45 86.5 -29.9 85.75 -28.45 86.5 Q-29.05 86.6 -29.65 87.0 -30.65 87.65 -30.25 88.25 -25.45 95.4 -23.8 103.9 -25.75 148.1 -50.8 196.25 -57.15 206.25 -61.4 208.45 L-53.9 213.0 Q-44.15 288.25 -65.15 311.8 -91.85 295.6 -126.2 296.85 L-123.8 290.55 Q-110.6 250.65 -105.85 205.95 L-100.45 172.1 Q-91.15 107.95 -81.85 77.45 -71.75 81.2 -55.65 80.85 L-57.1 77.6 Q-42.45 79.15 -27.7 77.9 L-25.15 79.45 -26.0 80.0 -22.6 80.75 Q-14.0 84.9 -3.25 86.25 22.1 89.45 47.2 93.85 L53.2 94.65 Q49.95 122.15 50.9 150.9 52.9 212.0 59.6 272.35 61.65 290.6 58.65 308.35 48.2 301.9 31.45 303.8 11.4 305.05 -6.1 313.7 M-9.75 92.05 L-7.1 92.35 -9.75 92.05" fill="#283e5d" fill-rule="evenodd" stroke="none"/>
    <path d="M59.05 335.8 Q58.35 342.65 55.45 342.6 21.9 345.5 3.1 342.0 2.1 340.55 1.8 336.1 L11.5 336.05 59.05 335.8 M-60.0 333.3 Q-60.3 337.35 -61.5 339.35 -76.7 341.3 -104.5 340.2 L-150.7 339.35 Q-153.0 335.55 -152.6 331.75 -121.9 333.3 -87.45 333.45 L-62.0 333.35 -60.0 333.3 M-40.1 -111.4 Q-40.35 -110.15 -35.1 -106.3 -29.85 -102.45 -11.35 -104.35 -21.05 -105.1 -30.35 -109.9 -34.9 -112.25 -39.6 -114.25 L-38.35 -121.85 Q-29.3 -112.5 -10.05 -115.4 L-9.25 -115.5 -9.85 -111.9 Q-10.55 -104.15 -14.8 -77.05 -19.05 -49.95 -17.25 -13.9 -15.4 22.15 -15.8 25.0 L-17.45 36.85 Q-19.0 48.85 -22.7 60.25 -40.3 67.1 -59.45 68.15 L-59.55 67.5 -60.35 58.75 -56.6 59.25 Q-38.45 61.15 -25.0 52.4 -25.2 51.6 -25.9 51.85 -41.0 58.2 -57.8 55.85 L-60.45 55.45 -60.5 53.8 -60.45 48.5 Q-60.15 31.7 -56.6 7.9 -53.5 -13.25 -51.45 -36.35 -51.4 -31.25 -48.75 -16.25 -46.1 -1.25 -27.2 25.6 -30.7 12.85 -38.6 -4.4 -46.5 -21.65 -50.35 -51.25 L-49.65 -62.2 -49.3 -69.3 -49.3 -68.9 -49.2 -71.7 -48.9 -79.5 Q-43.9 -92.7 -40.75 -108.1 L-40.1 -111.4 M-27.85 71.55 L-27.35 71.5 -26.9 71.35 -26.95 71.5 -27.85 71.55" fill="#1b2734" fill-rule="evenodd" stroke="none"/>
    <path d="M32.8 -148.3 L34.75 -145.75 Q46.65 -140.4 54.35 -131.75 60.3 -126.7 59.1 -120.75 68.75 -113.7 77.6 -101.05 L81.15 -95.65 79.7 -89.15 Q78.5 -83.45 80.0 -78.3 80.7 -76.05 81.8 -77.75 84.95 -82.35 87.2 -87.55 L86.75 -88.1 Q99.4 -73.9 117.0 -44.1 116.45 -44.15 115.65 -43.75 L115.1 -43.45 Q87.65 -29.55 65.45 -31.4 53.75 -49.85 30.9 -75.75 L29.25 -79.2 30.9 -75.75 32.2 -73.3 Q42.55 -34.25 39.8 1.85 L41.75 1.25 43.45 3.8 43.55 3.95 43.6 4.05 45.5 7.25 Q50.15 14.25 60.15 23.75 L61.5 25.0 62.15 25.6 61.65 25.2 Q57.0 27.0 53.1 26.35 49.1 25.65 50.4 30.3 51.65 34.95 47.4 39.95 L47.4 40.45 47.2 40.45 44.45 39.15 Q27.6 30.8 25.35 15.65 L25.05 13.05 Q27.2 9.25 31.05 7.6 27.2 9.25 25.05 13.05 L25.35 15.65 20.05 20.9 Q18.15 16.1 17.5 11.1 18.15 16.1 20.05 20.9 24.9 33.2 37.85 44.15 L38.2 44.05 39.15 44.9 Q41.4 46.9 43.7 48.7 47.95 52.05 52.4 54.65 L53.6 55.3 Q61.7 75.25 59.9 79.4 L58.4 79.6 Q26.7 83.85 -5.05 82.8 L-9.45 82.6 -9.85 82.55 -10.25 82.5 -10.75 82.45 -10.95 82.45 -17.4 81.6 -17.95 81.5 -22.6 80.75 -26.0 80.0 -25.15 79.45 -23.0 77.45 Q-20.9 74.95 -19.15 71.0 -9.85 49.8 -11.9 -14.6 L-12.05 -17.85 -12.35 -25.65 Q-12.85 -41.85 -11.7 -55.85 -4.1 -64.75 2.35 -74.9 22.25 -106.25 54.35 -122.95 L52.95 -123.25 Q47.75 -124.1 42.1 -120.7 15.85 -103.35 -1.55 -81.2 -3.65 -78.75 -5.2 -77.25 -5.55 -106.05 32.8 -148.3 M59.25 331.1 L59.05 335.8 11.5 336.05 Q6.55 324.25 15.05 314.65 L15.6 313.2 Q21.75 310.75 31.6 310.05 47.85 311.0 54.65 316.95 L56.4 318.8 Q60.35 323.65 59.25 331.1 M-152.6 331.75 Q-152.25 327.75 -148.85 323.75 -138.2 315.95 -123.9 308.8 -113.8 306.35 -104.1 307.45 -89.55 317.95 -89.6 325.15 -89.7 332.3 -89.1 333.4 L-87.45 333.45 Q-121.9 333.3 -152.6 331.75 M-81.85 77.45 Q-103.35 70.15 -102.35 52.8 -97.0 45.75 -92.35 37.7 -92.55 43.3 -89.5 47.85 -88.45 49.4 -87.5 48.05 -78.75 35.3 -78.45 18.15 -78.35 10.6 -76.85 3.2 -76.4 1.0 -76.3 -1.0 L-75.8 -2.75 -74.95 -5.8 Q-71.55 -18.4 -69.2 -32.45 -68.25 -38.2 -67.45 -44.1 L-67.0 -47.95 -64.65 -65.75 -64.05 -69.8 -68.0 -96.1 Q-76.95 -46.65 -101.3 -37.0 -108.45 -40.6 -115.1 -46.5 -119.8 -50.65 -126.75 -58.5 -117.1 -63.55 -104.0 -84.0 -89.85 -115.9 -72.9 -124.7 -67.3 -119.9 -62.2 -104.3 -57.1 -88.75 -53.75 -75.45 -50.45 -62.15 -49.75 -61.2 L-49.65 -62.2 -50.35 -51.25 -50.55 -48.15 -51.15 -40.0 -51.45 -36.35 Q-53.5 -13.25 -56.6 7.9 -60.15 31.7 -60.45 48.5 L-60.5 53.8 -60.45 55.45 -60.35 58.75 -59.55 67.5 -59.45 68.15 -59.4 68.35 -59.25 69.45 -59.2 69.7 -59.15 69.9 -59.1 70.1 -59.1 70.25 Q-58.4 73.9 -57.4 76.8 L-57.2 77.35 -57.1 77.6 -55.65 80.85 Q-71.75 81.2 -81.85 77.45 M-88.35 28.75 Q-92.95 27.85 -95.3 19.3 -91.05 10.6 -92.95 8.4 -94.95 8.6 -99.05 14.65 -100.45 12.45 -100.45 10.05 L-100.1 8.1 Q-98.25 -0.45 -90.2 -2.75 -87.15 -3.65 -84.2 -3.8 -80.8 1.45 -81.0 7.6 -81.05 9.95 -80.45 11.65 L-80.85 12.75 Q-89.95 20.3 -88.35 28.75 M-70.45 -125.9 Q-69.85 -133.15 -60.9 -135.7 L-58.7 -136.2 -56.85 -133.45 Q-54.0 -129.55 -52.2 -130.05 -50.45 -130.6 -51.5 -133.8 -52.55 -137.0 -54.05 -138.6 L-53.8 -138.9 Q-49.45 -143.35 -41.1 -148.2 L-40.4 -148.6 -36.35 -150.7 Q-40.15 -119.95 -49.6 -89.55 -50.9 -85.3 -53.0 -81.65 L-53.95 -85.65 Q-57.6 -112.15 -70.45 -125.9 M-29.05 -154.5 L-28.65 -154.7 -27.8 -155.1 Q-27.3 -152.85 -27.45 -150.9 -27.95 -152.8 -28.85 -154.55 L-29.05 -154.5 M59.1 -120.75 Q56.75 -122.35 54.35 -122.95 56.75 -122.35 59.1 -120.75 M58.05 -19.05 L58.1 -19.05 58.05 -19.05 M54.8 35.45 L54.55 34.35 55.05 35.05 54.8 35.45 M39.75 1.9 L39.8 1.85 38.85 2.25 39.75 1.9 39.8 1.85 39.75 1.9 M35.2 4.8 L35.85 4.2 35.95 4.15 36.4 3.75 38.85 2.25 36.4 3.75 35.95 4.15 35.85 4.2 35.2 4.8 34.0 6.2 33.7 6.6 33.6 6.75 33.45 6.8 32.35 7.1 Q31.65 7.3 31.05 7.6 33.1 11.6 37.3 10.75 37.4 8.3 36.1 6.0 L35.35 4.7 35.2 4.8 M12.55 45.4 Q9.35 45.6 9.75 48.45 10.85 57.2 22.35 58.2 33.85 59.15 37.75 57.9 41.65 56.6 31.8 53.9 21.9 51.15 12.55 45.4 M43.7 48.7 L38.75 44.9 37.85 44.15 38.75 44.9 43.7 48.7 M-62.55 -80.15 L-64.05 -69.8 -62.55 -80.15 M-68.6 -99.85 L-68.0 -96.1 -68.6 -99.85 M-68.05 44.4 Q-73.2 48.3 -77.4 50.3 -80.6 51.85 -87.25 52.85 -86.6 54.3 -84.45 56.15 -82.3 57.95 -75.3 54.3 -68.35 50.65 -68.05 44.4" fill="#4c97d9" fill-rule="evenodd" stroke="none"/>
    <path d="M0.15 -232.6 Q-4.4 -228.25 -7.5 -223.05 -8.45 -221.5 -8.25 -219.8 -7.45 -212.7 -4.3 -206.35 0.5 -196.75 -0.4 -186.8 -0.6 -184.2 1.75 -183.35 9.5 -180.7 8.3 -194.45 7.05 -208.25 0.8 -219.0 L2.45 -221.95 Q3.6 -224.2 6.0 -225.25 8.4 -226.3 9.3 -227.5 L16.45 -192.15 15.75 -187.3 Q2.1 -175.9 -13.75 -167.0 -14.75 -172.4 -16.45 -177.85 -22.95 -198.6 -33.45 -217.45 -29.5 -218.6 -26.65 -221.35 -21.4 -226.4 -27.9 -229.45 -34.65 -232.6 -42.45 -231.1 -42.7 -236.3 -47.9 -237.0 L-63.05 -238.05 Q-70.65 -237.25 -77.85 -235.65 L-67.3 -243.5 0.15 -232.6 M111.95 -28.4 Q110.4 -22.0 104.75 -15.0 95.4 -5.9 77.65 7.55 64.95 17.25 60.15 23.75 50.15 14.25 45.5 7.25 52.6 2.05 60.3 -6.75 67.95 -15.5 85.25 -23.35 102.5 -31.2 111.95 -28.4 M-100.1 8.1 Q-110.65 -12.55 -116.9 -31.25 -118.7 -39.35 -116.25 -44.5 L-116.55 -43.8 Q-92.4 -29.1 -84.15 -3.8 L-84.2 -3.8 Q-87.15 -3.65 -90.2 -2.75 -98.25 -0.45 -100.1 8.1 M-43.2 -154.45 Q-45.3 -152.8 -47.35 -153.05 L-47.45 -153.05 Q-52.2 -151.65 -55.55 -151.5 L-58.45 -151.95 Q-60.75 -152.5 -62.9 -153.5 -71.8 -157.65 -78.15 -169.9 -80.7 -175.05 -81.05 -179.1 -88.3 -184.75 -85.1 -189.45 -81.95 -194.2 -81.45 -200.45 L-83.75 -206.4 -69.6 -209.05 Q-61.7 -210.15 -55.45 -206.35 -45.6 -200.3 -39.45 -184.65 -33.35 -169.0 -38.15 -160.75 -40.75 -156.35 -43.2 -154.45 L-47.35 -153.05 -43.2 -154.45 M-34.3 -137.4 Q-26.25 -138.85 -17.8 -144.2 L0.35 -155.45 Q2.25 -147.0 5.35 -138.9 1.9 -133.3 -1.05 -127.5 L-12.05 -126.05 -14.75 -122.8 -12.05 -126.05 -1.05 -127.5 Q-3.9 -121.9 -6.25 -116.1 L-9.25 -115.5 -10.05 -115.4 Q-29.3 -112.5 -38.35 -121.85 L-37.3 -130.25 -37.05 -132.55 -34.3 -137.4 M-27.4 -123.2 L-28.95 -127.2 -37.3 -130.25 -28.95 -127.2 -27.4 -123.2 M-52.85 -194.3 Q-53.85 -194.3 -54.2 -193.35 -56.1 -188.8 -49.85 -189.45 -48.7 -189.6 -48.4 -190.65 -47.0 -195.1 -52.85 -194.3" fill="#ffe8d7" fill-rule="evenodd" stroke="none"/>
    <path d="M-62.9 -153.5 Q-60.8 -146.65 -62.4 -142.8 -82.2 -154.75 -92.75 -177.05 -93.3 -165.5 -99.6 -157.05 -101.25 -168.55 -106.2 -185.35 -109.1 -195.1 -110.05 -201.0 -118.3 -189.65 -139.7 -196.55 -117.85 -204.8 -114.4 -221.1 L-86.9 -228.3 Q-87.95 -220.9 -83.75 -206.4 L-81.45 -200.45 Q-81.95 -194.2 -85.1 -189.45 -88.3 -184.75 -81.05 -179.1 -80.7 -175.05 -78.15 -169.9 -71.8 -157.65 -62.9 -153.5 M-110.05 -201.0 Q-111.2 -209.95 -109.8 -214.0 -111.2 -209.95 -110.05 -201.0" fill="#091425" fill-rule="evenodd" stroke="none"/>
    <path d="M14.8 -158.5 Q24.45 -156.65 30.95 -150.25 L32.8 -148.3 Q-5.55 -106.05 -5.2 -77.25 -3.65 -78.75 -1.55 -81.2 15.85 -103.35 42.1 -120.7 47.75 -124.1 52.95 -123.25 L54.35 -122.95 Q22.25 -106.25 2.35 -74.9 -4.1 -64.75 -11.7 -55.85 L-11.7 -56.2 -11.7 -56.3 Q-10.9 -66.3 -9.25 -75.2 -8.45 -85.25 -6.4 -94.2 -3.4 -107.35 2.2 -118.2 5.05 -123.85 8.7 -128.8 14.4 -136.8 21.95 -143.15 L18.8 -145.9 Q15.85 -150.75 14.8 -158.5 M81.15 -95.65 L83.45 -91.9 83.8 -91.35 86.45 -88.4 86.75 -88.1 87.2 -87.55 Q84.95 -82.35 81.8 -77.75 80.7 -76.05 80.0 -78.3 78.5 -83.45 79.7 -89.15 L81.15 -95.65 M115.1 -43.45 Q113.45 -42.55 111.05 -40.3 101.95 -31.8 89.65 -29.35 78.2 -27.15 68.55 -23.55 63.0 -21.55 58.1 -19.05 L58.05 -19.05 53.45 -18.35 52.35 -5.9 52.35 -5.85 43.45 3.8 41.75 1.25 39.8 1.85 Q42.55 -34.25 32.2 -73.3 L30.9 -75.75 Q53.75 -49.85 65.45 -31.4 87.65 -29.55 115.1 -43.45 M62.15 25.6 L62.6 26.05 Q60.75 30.2 55.6 33.95 63.75 61.7 63.65 78.85 L59.9 79.4 Q61.7 75.25 53.6 55.3 L52.4 54.65 Q47.95 52.05 43.7 48.7 41.4 46.9 39.15 44.9 L38.2 44.05 38.35 44.0 Q44.55 42.2 44.45 39.15 L47.2 40.45 47.4 40.45 47.4 39.95 Q51.65 34.95 50.4 30.3 49.1 25.65 53.1 26.35 57.0 27.0 61.65 25.2 L62.15 25.6 M1.8 336.1 Q1.55 333.2 1.65 329.0 2.25 326.55 3.45 324.25 5.25 320.8 8.4 317.8 L9.35 316.9 9.55 316.7 Q11.9 314.65 15.6 313.2 L15.05 314.65 Q6.55 324.25 11.5 336.05 L1.8 336.1 M-60.2 324.8 Q-59.75 329.8 -60.0 333.3 L-62.0 333.35 -87.45 333.45 -89.1 333.4 Q-89.7 332.3 -89.6 325.15 -89.55 317.95 -104.1 307.45 -94.55 308.5 -85.4 313.05 L-73.8 318.65 -60.2 324.8 M-92.35 37.7 L-92.35 37.65 -92.05 37.1 -89.75 32.9 -88.2 29.85 -87.9 29.2 Q-84.1 21.4 -80.85 12.75 L-80.45 11.65 -76.55 -0.2 -76.3 -1.0 Q-76.4 1.0 -76.85 3.2 -78.35 10.6 -78.45 18.15 -78.75 35.3 -87.5 48.05 -88.45 49.4 -89.5 47.85 -92.55 43.3 -92.35 37.7 L-92.05 37.1 -92.35 37.7 M-95.3 19.3 L-95.55 18.35 Q-97.85 16.6 -99.05 14.65 -94.95 8.6 -92.95 8.4 -91.05 10.6 -95.3 19.3 M-72.9 -124.7 L-71.75 -125.3 -70.45 -125.9 Q-57.6 -112.15 -53.95 -85.65 L-53.0 -81.65 Q-50.9 -85.3 -49.6 -89.55 -40.15 -119.95 -36.35 -150.7 L-29.05 -154.5 -28.85 -154.55 Q-27.95 -152.8 -27.45 -150.9 -27.75 -147.85 -29.75 -145.55 L-34.3 -137.4 -37.05 -132.55 -37.3 -130.25 -38.35 -121.85 -39.6 -114.25 -39.85 -112.85 -40.1 -111.4 -40.75 -108.1 Q-43.9 -92.7 -48.9 -79.5 L-49.2 -71.7 -49.3 -68.9 -49.3 -69.3 -49.65 -62.2 -49.75 -61.2 Q-50.45 -62.15 -53.75 -75.45 -57.1 -88.75 -62.2 -104.3 -67.3 -119.9 -72.9 -124.7 M-58.7 -136.2 L-55.75 -136.7 -55.65 -136.75 -54.8 -137.8 -54.05 -138.6 Q-52.55 -137.0 -51.5 -133.8 -50.45 -130.6 -52.2 -130.05 -54.0 -129.55 -56.85 -133.45 L-58.7 -136.2 M-8.75 -75.1 L-6.3 -76.3 -5.2 -77.25 -6.3 -76.3 -8.75 -75.1 M32.2 -73.3 Q33.7 -70.45 35.65 -67.35 L36.4 -66.15 37.2 -64.9 Q55.7 -35.4 51.25 -18.05 L53.45 -18.35 51.25 -18.05 Q55.7 -35.4 37.2 -64.9 L36.4 -66.15 35.65 -67.35 Q33.7 -70.45 32.2 -73.3 M55.05 35.05 L54.55 34.35 54.8 35.45 55.05 35.05 55.6 33.95 55.05 35.05 M54.8 35.45 Q53.15 38.05 50.45 39.4 L47.4 39.95 50.45 39.4 Q53.15 38.05 54.8 35.45 M38.85 2.25 L39.8 1.85 39.75 1.9 38.85 2.25 M35.2 4.8 L35.35 4.7 36.1 6.0 Q37.4 8.3 37.3 10.75 33.1 11.6 31.05 7.6 31.65 7.3 32.35 7.1 L33.45 6.8 33.6 6.75 33.7 6.6 34.0 6.2 35.2 4.8 M12.55 45.4 Q21.9 51.15 31.8 53.9 41.65 56.6 37.75 57.9 33.85 59.15 22.35 58.2 10.85 57.2 9.75 48.45 9.35 45.6 12.55 45.4 M-81.55 -31.7 Q-89.55 -32.15 -97.05 -35.1 L-101.3 -37.0 Q-76.95 -46.65 -68.0 -96.1 L-64.05 -69.8 -64.65 -65.75 Q-68.35 -45.9 -73.85 -31.85 -77.75 -31.5 -81.55 -31.7 M-84.2 -3.8 L-84.15 -3.8 Q-79.85 -4.05 -75.8 -2.75 L-76.3 -1.0 -76.55 -0.2 -80.45 11.65 Q-81.05 9.95 -81.0 7.6 -80.8 1.45 -84.2 -3.8 M-53.0 -81.65 Q-51.95 -78.2 -50.25 -77.45 L-49.6 -77.25 -49.55 -77.25 -48.9 -79.5 -49.55 -77.25 -49.6 -77.25 -50.25 -77.45 Q-51.95 -78.2 -53.0 -81.65 M-80.25 12.25 L-80.85 12.75 -80.25 12.25 M-68.05 44.4 Q-68.35 50.65 -75.3 54.3 -82.3 57.95 -84.45 56.15 -86.6 54.3 -87.25 52.85 -80.6 51.85 -77.4 50.3 -73.2 48.3 -68.05 44.4" fill="#3572b4" fill-rule="evenodd" stroke="none"/>
    <path d="M0.7 -232.5 L8.55 -231.25 9.3 -227.5 Q8.4 -226.3 6.0 -225.25 3.6 -224.2 2.45 -221.95 L0.8 -219.0 Q7.05 -208.25 8.3 -194.45 9.5 -180.7 1.75 -183.35 -0.6 -184.2 -0.4 -186.8 0.5 -196.75 -4.3 -206.35 -7.45 -212.7 -8.25 -219.8 -8.45 -221.5 -7.5 -223.05 -4.4 -228.25 0.15 -232.6 L0.7 -232.5 M15.75 -187.3 Q14.65 -179.85 14.35 -173.5 14.1 -168.55 14.3 -164.25 L14.3 -163.85 14.8 -158.5 Q15.85 -150.75 18.8 -145.9 L21.95 -143.15 Q14.4 -136.8 8.7 -128.8 5.05 -123.85 2.2 -118.2 L0.4 -117.7 -4.65 -116.4 -5.05 -116.3 -6.25 -116.1 -5.05 -116.3 -6.25 -116.05 -6.25 -116.1 Q-3.9 -121.9 -1.05 -127.5 1.9 -133.3 5.35 -138.9 2.25 -147.0 0.35 -155.45 L-17.8 -144.2 Q-26.25 -138.85 -34.3 -137.4 L-29.75 -145.55 Q-27.75 -147.85 -27.45 -150.9 -27.3 -152.85 -27.8 -155.1 -28.3 -157.0 -29.25 -159.15 L-29.75 -160.15 Q-37.3 -156.55 -43.2 -154.45 -40.75 -156.35 -38.15 -160.75 -33.35 -169.0 -39.45 -184.65 -45.6 -200.3 -55.45 -206.35 -61.7 -210.15 -69.6 -209.05 L-83.75 -206.4 Q-87.95 -220.9 -86.9 -228.3 L-77.85 -235.65 Q-70.65 -237.25 -63.05 -238.05 L-47.9 -237.0 Q-42.7 -236.3 -42.45 -231.1 -34.65 -232.6 -27.9 -229.45 -21.4 -226.4 -26.65 -221.35 -29.5 -218.6 -33.45 -217.45 -22.95 -198.6 -16.45 -177.85 -14.75 -172.4 -13.75 -167.0 2.1 -175.9 15.75 -187.3 M111.05 -40.3 L111.75 -38.3 Q112.5 -35.85 112.5 -33.3 112.55 -30.9 111.95 -28.4 102.5 -31.2 85.25 -23.35 67.95 -15.5 60.3 -6.75 52.6 2.05 45.5 7.25 L43.6 4.05 43.55 3.95 43.45 3.8 52.35 -5.85 68.55 -23.55 Q78.2 -27.15 89.65 -29.35 101.95 -31.8 111.05 -40.3 M-116.25 -44.5 L-115.2 -46.4 -115.1 -46.5 Q-108.45 -40.6 -101.3 -37.0 L-97.05 -35.1 Q-89.55 -32.15 -81.55 -31.7 -77.25 -18.2 -74.95 -5.8 L-75.8 -2.75 Q-79.85 -4.05 -84.15 -3.8 -92.4 -29.1 -116.55 -43.8 L-116.25 -44.5 M8.7 -128.8 L-1.05 -127.5 8.7 -128.8" fill="#e0bcaa" fill-rule="evenodd" stroke="none"/>
    <path d="M2.2 -118.2 Q-3.4 -107.35 -6.4 -94.2 -8.45 -85.25 -9.25 -75.2 -10.9 -66.3 -11.7 -56.3 L-11.7 -56.2 -11.7 -55.85 Q-12.85 -41.85 -12.35 -25.65 L-12.05 -17.85 -11.9 -14.6 Q-9.85 49.8 -19.15 71.0 L-20.2 71.05 -26.95 71.5 -26.9 71.35 -27.35 71.5 -27.85 71.55 -29.0 71.65 Q-47.8 73.4 -59.15 69.9 L-59.2 69.7 -59.25 69.45 -59.4 68.35 -59.45 68.15 Q-40.3 67.1 -22.7 60.25 -19.0 48.85 -17.45 36.85 L-15.8 25.0 Q-15.4 22.15 -17.25 -13.9 -19.05 -49.95 -14.8 -77.05 -10.55 -104.15 -9.85 -111.9 L-9.25 -115.5 -6.25 -116.1 -6.25 -116.05 -5.05 -116.3 -4.65 -116.4 0.4 -117.7 2.2 -118.2 M-40.1 -111.4 L-39.85 -112.85 -39.6 -114.25 Q-34.9 -112.25 -30.35 -109.9 -21.05 -105.1 -11.35 -104.35 -29.85 -102.45 -35.1 -106.3 -40.35 -110.15 -40.1 -111.4 M-50.35 -51.25 Q-46.5 -21.65 -38.6 -4.4 -30.7 12.85 -27.2 25.6 -46.1 -1.25 -48.75 -16.25 -51.4 -31.25 -51.45 -36.35 L-51.15 -40.0 -50.55 -48.15 -50.35 -51.25 M-60.45 55.45 L-57.8 55.85 Q-41.0 58.2 -25.9 51.85 -25.2 51.6 -25.0 52.4 -38.45 61.15 -56.6 59.25 L-60.35 58.75 -60.45 55.45" fill="#070a0e" fill-rule="evenodd" stroke="none"/>
    <path d="M58.4 79.6 L58.7 91.0 58.75 94.8 Q59.1 117.75 58.45 146.55 57.55 185.25 63.05 232.6 68.45 279.9 65.3 315.65 63.85 330.6 59.25 331.1 60.35 323.65 56.4 318.8 L54.65 316.95 Q47.85 311.0 31.6 310.05 21.75 310.75 15.6 313.2 11.9 314.65 9.55 316.7 L9.35 316.9 8.4 317.8 Q5.25 320.8 3.45 324.25 1.0 325.15 -1.45 326.15 -3.85 323.5 -5.0 320.85 L-5.35 320.0 Q-6.5 316.9 -6.1 313.7 11.4 305.05 31.45 303.8 48.2 301.9 58.65 308.35 61.65 290.6 59.6 272.35 52.9 212.0 50.9 150.9 49.95 122.15 53.2 94.65 L47.2 93.85 Q22.1 89.45 -3.25 86.25 -14.0 84.9 -22.6 80.75 L-17.95 81.5 -17.4 81.6 -10.95 82.45 -10.75 82.45 -10.25 82.5 -9.85 82.55 -9.45 82.6 -5.05 82.8 Q26.7 83.85 58.4 79.6 M-12.7 91.6 Q-16.25 123.85 -22.4 143.75 L-40.15 203.9 Q-35.75 292.05 -48.3 329.85 L-60.2 324.8 -73.8 318.65 -85.4 313.05 Q-94.55 308.5 -104.1 307.45 -113.8 306.35 -123.9 308.8 L-126.85 309.55 Q-127.45 308.5 -127.7 307.1 L-127.7 307.05 Q-128.3 303.25 -126.2 296.85 -91.85 295.6 -65.15 311.8 -44.15 288.25 -53.9 213.0 L-61.4 208.45 Q-57.15 206.25 -50.8 196.25 -25.75 148.1 -23.8 103.9 -25.45 95.4 -30.25 88.25 -30.65 87.65 -29.65 87.0 -29.05 86.6 -28.45 86.5 L-28.0 86.45 -26.95 87.2 -26.95 87.25 -28.45 86.5 -26.95 87.25 -23.75 90.05 -23.85 88.55 Q-18.65 90.55 -12.7 91.6 M-25.15 79.45 L-27.7 77.9 Q-42.45 79.15 -57.1 77.6 L-57.2 77.35 -57.4 76.8 Q-58.4 73.9 -59.1 70.25 L-59.1 70.1 -59.15 69.9 Q-47.8 73.4 -29.0 71.65 L-27.85 71.55 -26.95 71.5 -20.2 71.05 -19.15 71.0 Q-20.9 74.95 -23.0 77.45 L-25.15 79.45" fill="#182538" fill-rule="evenodd" stroke="none"/>
    <path d="M-52.85 -194.3 Q-47.0 -195.1 -48.4 -190.65 -48.7 -189.6 -49.85 -189.45 -56.1 -188.8 -54.2 -193.35 -53.85 -194.3 -52.85 -194.3" fill="#fffce9" fill-rule="evenodd" stroke="none"/>
    <path d="M-87.9 29.2 L-88.35 28.75 Q-89.95 20.3 -80.85 12.75 -84.1 21.4 -87.9 29.2 M25.35 15.65 Q27.6 30.8 44.45 39.15 44.55 42.2 38.35 44.0 L38.2 44.05 37.85 44.15 Q24.9 33.2 20.05 20.9 L25.35 15.65" fill="#121b25" fill-rule="evenodd" stroke="none"/>
    <path d="M9.3 -227.5 L8.55 -231.25 0.7 -232.5 M9.3 -227.5 L16.45 -192.15 15.75 -187.3 Q14.65 -179.85 14.35 -173.5 14.1 -168.55 14.3 -164.25 M14.3 -163.85 L14.8 -158.5 Q24.45 -156.65 30.95 -150.25 L32.8 -148.3 34.75 -145.75 Q46.65 -140.4 54.35 -131.75 60.3 -126.7 59.1 -120.75 68.75 -113.7 77.6 -101.05 L81.15 -95.65 83.45 -91.9 83.8 -91.35 86.45 -88.4 86.75 -88.1 Q99.4 -73.9 117.0 -44.1 116.45 -44.15 115.65 -43.75 L115.1 -43.45 Q113.45 -42.55 111.05 -40.3 L111.75 -38.3 Q112.5 -35.85 112.5 -33.3 112.55 -30.9 111.95 -28.4 110.4 -22.0 104.75 -15.0 95.4 -5.9 77.65 7.55 64.95 17.25 60.15 23.75 L61.5 25.0 62.15 25.6 62.6 26.05 Q60.75 30.2 55.6 33.95 63.75 61.7 63.65 78.85 L59.9 79.4 58.4 79.6 58.7 91.0 58.75 94.8 Q59.1 117.75 58.45 146.55 57.55 185.25 63.05 232.6 68.45 279.9 65.3 315.65 63.85 330.6 59.25 331.1 L59.05 335.8 Q58.35 342.65 55.45 342.6 21.9 345.5 3.1 342.0 2.1 340.55 1.8 336.1 1.55 333.2 1.65 329.0 L-0.75 326.8 -1.2 326.4 -1.45 326.15 Q-3.85 323.5 -5.0 320.85 L-5.35 320.0 Q-6.5 316.9 -6.1 313.7 -5.9 311.9 -5.2 310.1 -1.45 268.05 -2.7 207.35 -3.95 145.75 -9.75 92.05 L-12.7 91.6 Q-16.25 123.85 -22.4 143.75 L-40.15 203.9 Q-35.75 292.05 -48.3 329.85 L-60.2 324.8 Q-59.75 329.8 -60.0 333.3 -60.3 337.35 -61.5 339.35 -76.7 341.3 -104.5 340.2 L-150.7 339.35 Q-153.0 335.55 -152.6 331.75 -152.25 327.75 -148.85 323.75 -138.2 315.95 -123.9 308.8 L-126.85 309.55 Q-127.45 308.5 -127.7 307.1 L-127.7 307.05 Q-128.3 303.25 -126.2 296.85 L-123.8 290.55 Q-110.6 250.65 -105.85 205.95 L-100.45 172.1 Q-91.15 107.95 -81.85 77.45 -103.35 70.15 -102.35 52.8 -97.0 45.75 -92.35 37.7 L-92.05 37.1 -89.75 32.9 -88.2 29.85 -87.9 29.2 -88.35 28.75 Q-92.95 27.85 -95.3 19.3 L-95.55 18.35 Q-97.85 16.6 -99.05 14.65 -100.45 12.45 -100.45 10.05 L-100.1 8.1 Q-110.65 -12.55 -116.9 -31.25 -118.7 -39.35 -116.25 -44.5 L-115.2 -46.4 -115.1 -46.5 Q-119.8 -50.65 -126.75 -58.5 -117.1 -63.55 -104.0 -84.0 -89.85 -115.9 -72.9 -124.7 L-71.75 -125.3 -70.45 -125.9 Q-69.85 -133.15 -60.9 -135.7 L-58.7 -136.2 -55.75 -136.7 -55.65 -136.75 -54.8 -137.8 -54.05 -138.6 -53.8 -138.9 Q-49.45 -143.35 -41.1 -148.2 L-40.4 -148.6 -36.35 -150.7 -29.05 -154.5 -28.65 -154.7 -27.8 -155.1 Q-28.3 -157.0 -29.25 -159.15 L-29.75 -160.15 Q-37.3 -156.55 -43.2 -154.45 L-47.35 -153.05 -47.45 -153.05 Q-52.2 -151.65 -55.55 -151.5 L-58.45 -151.95 Q-60.75 -152.5 -62.9 -153.5 -60.8 -146.65 -62.4 -142.8 -82.2 -154.75 -92.75 -177.05 -93.3 -165.5 -99.6 -157.05 -101.25 -168.55 -106.2 -185.35 -109.1 -195.1 -110.05 -201.0 -118.3 -189.65 -139.7 -196.55 -117.85 -204.8 -114.4 -221.1 L-86.9 -228.3 -77.85 -235.65 -67.3 -243.5 0.15 -232.6 M14.8 -158.5 Q15.85 -150.75 18.8 -145.9 L21.95 -143.15 Q14.4 -136.8 8.7 -128.8 5.05 -123.85 2.2 -118.2 -3.4 -107.35 -6.4 -94.2 -8.45 -85.25 -9.25 -75.2 -10.9 -66.3 -11.7 -56.3 L-11.7 -56.2 M52.95 -123.25 Q47.75 -124.1 42.1 -120.7 15.85 -103.35 -1.55 -81.2 -3.65 -78.75 -5.2 -77.25 L-6.3 -76.3 -8.75 -75.1 M-5.05 -116.3 L-4.65 -116.4 0.4 -117.7 2.2 -118.2 M54.35 -122.95 Q56.75 -122.35 59.1 -120.75 M-1.05 -127.5 L8.7 -128.8 M30.9 -75.75 L29.25 -79.2 M32.2 -73.3 L30.9 -75.75 M53.45 -18.35 L51.25 -18.05 Q55.7 -35.4 37.2 -64.9 L36.4 -66.15 35.65 -67.35 Q33.7 -70.45 32.2 -73.3 M39.8 1.85 L41.75 1.25 43.45 3.8 52.35 -5.85 52.35 -5.9 53.45 -18.35 58.05 -19.05 58.1 -19.05 Q63.0 -21.55 68.55 -23.55 78.2 -27.15 89.65 -29.35 101.95 -31.8 111.05 -40.3 M58.1 -19.05 L58.05 -19.05 M52.35 -5.85 L68.55 -23.55 M45.5 7.25 Q50.15 14.25 60.15 23.75 M45.5 7.25 L43.6 4.05 43.55 3.95 43.45 3.8 M54.8 35.45 L55.05 35.05 55.6 33.95 M44.45 39.15 L47.2 40.45 47.4 40.45 M47.4 39.95 L50.45 39.4 Q53.15 38.05 54.8 35.45 M39.75 1.9 L39.8 1.85 M39.75 1.9 L38.85 2.25 36.4 3.75 35.95 4.15 35.85 4.2 35.2 4.8 34.0 6.2 33.7 6.6 33.6 6.75 33.45 6.8 32.35 7.1 Q31.65 7.3 31.05 7.6 27.2 9.25 25.05 13.05 L25.35 15.65 Q27.6 30.8 44.45 39.15 44.55 42.2 38.35 44.0 M43.7 48.7 Q47.95 52.05 52.4 54.65 M17.5 11.1 Q18.15 16.1 20.05 20.9 L25.35 15.65 M37.85 44.15 L38.75 44.9 43.7 48.7 M38.2 44.05 L37.85 44.15 Q24.9 33.2 20.05 20.9 M-22.6 80.75 L-26.0 80.0 -25.15 79.45 -23.0 77.45 Q-20.9 74.95 -19.15 71.0 -9.85 49.8 -11.9 -14.6 L-12.05 -17.85 -12.35 -25.65 Q-12.85 -41.85 -11.7 -55.85 M-57.1 77.6 L-55.65 80.85 Q-71.75 81.2 -81.85 77.45 M15.6 313.2 Q21.75 310.75 31.6 310.05 47.85 311.0 54.65 316.95 L56.4 318.8 Q60.35 323.65 59.25 331.1 M3.45 324.25 Q5.25 320.8 8.4 317.8 L9.35 316.9 9.55 316.7 Q11.9 314.65 15.6 313.2 M11.5 336.05 L59.05 335.8 M1.8 336.1 L11.5 336.05 M1.65 329.0 Q2.25 326.55 3.45 324.25 M-109.8 -214.0 Q-111.2 -209.95 -110.05 -201.0 M-83.75 -206.4 L-81.45 -200.45 Q-81.95 -194.2 -85.1 -189.45 -88.3 -184.75 -81.05 -179.1 -80.7 -175.05 -78.15 -169.9 -71.8 -157.65 -62.9 -153.5 M-86.9 -228.3 Q-87.95 -220.9 -83.75 -206.4 M-27.8 -155.1 Q-27.3 -152.85 -27.45 -150.9 -27.75 -147.85 -29.75 -145.55 L-34.3 -137.4 -37.05 -132.55 -37.3 -130.25 -28.95 -127.2 -27.4 -123.2 M-1.05 -127.5 L-12.05 -126.05 -14.75 -122.8 M-39.6 -114.25 L-39.85 -112.85 M-38.35 -121.85 L-39.6 -114.25 M-9.25 -115.5 L-10.05 -115.4 Q-29.3 -112.5 -38.35 -121.85 L-37.3 -130.25 M-9.25 -115.5 L-6.25 -116.1 -5.05 -116.3 M-40.1 -111.4 L-40.75 -108.1 Q-43.9 -92.7 -48.9 -79.5 L-49.2 -71.7 -49.3 -68.9 M-49.3 -69.3 L-49.65 -62.2 -50.35 -51.25 -50.55 -48.15 -51.15 -40.0 -51.45 -36.35 Q-53.5 -13.25 -56.6 7.9 -60.15 31.7 -60.45 48.5 L-60.5 53.8 -60.45 55.45 -60.35 58.75 -59.55 67.5 -59.45 68.15 M-59.4 68.35 L-59.25 69.45 -59.2 69.7 -59.15 69.9 Q-47.8 73.4 -29.0 71.65 L-27.85 71.55 -26.95 71.5 -20.2 71.05 -19.15 71.0 M-101.3 -37.0 L-97.05 -35.1 Q-89.55 -32.15 -81.55 -31.7 -77.75 -31.5 -73.85 -31.85 -68.35 -45.9 -64.65 -65.75 L-64.05 -69.8 -68.0 -96.1 -68.6 -99.85 M-101.3 -37.0 Q-108.45 -40.6 -115.1 -46.5 M-84.2 -3.8 Q-87.15 -3.65 -90.2 -2.75 -98.25 -0.45 -100.1 8.1 M-84.15 -3.8 Q-79.85 -4.05 -75.8 -2.75 L-74.95 -5.8 Q-77.25 -18.2 -81.55 -31.7 M-48.9 -79.5 L-49.55 -77.25 -49.6 -77.25 -50.25 -77.45 Q-51.95 -78.2 -53.0 -81.65 L-53.95 -85.65 Q-57.6 -112.15 -70.45 -125.9 M-64.05 -69.8 L-62.55 -80.15 M-64.65 -65.75 L-67.0 -47.95 -67.45 -44.1 Q-68.25 -38.2 -69.2 -32.45 -71.55 -18.4 -74.95 -5.8 M-75.8 -2.75 L-76.3 -1.0 -76.55 -0.2 -80.45 11.65 -80.85 12.75 -80.25 12.25 M-59.15 69.9 L-59.1 70.1 -59.1 70.25 Q-58.4 73.9 -57.4 76.8 L-57.2 77.35 M-28.45 86.5 L-26.95 87.25 -23.85 88.55 Q-18.65 90.55 -12.7 91.6 M-28.45 86.5 L-29.9 85.75 M-22.6 80.75 L-17.95 81.5 -17.4 81.6 -10.95 82.45 -10.75 82.45 -10.25 82.5 -9.85 82.55 -9.45 82.6 -5.05 82.8 Q26.7 83.85 58.4 79.6 M-7.1 92.35 L-9.75 92.05 M-88.35 28.75 Q-89.95 20.3 -80.85 12.75 -84.1 21.4 -87.9 29.2 M-60.2 324.8 L-73.8 318.65 -85.4 313.05 Q-94.55 308.5 -104.1 307.45 -113.8 306.35 -123.9 308.8 M-87.45 333.45 L-62.0 333.35 -60.0 333.3 M-152.6 331.75 Q-121.9 333.3 -87.45 333.45" fill="none" stroke="#1a5283" stroke-linecap="round" stroke-linejoin="round" stroke-width="2.0"/>
  </g>
</svg>
