<?xml version="1.0" encoding="UTF-8" standalone="no"?>
<svg xmlns:xlink="http://www.w3.org/1999/xlink" height="34.1px" width="56.85px" xmlns="http://www.w3.org/2000/svg">
  <g transform="matrix(1.0, 0.0, 0.0, 1.0, 97.35, 222.6)">
    <path d="M-76.95 -201.9 L-75.1 -204.95 -60.2 -207.6 -50.5 -208.2 Q-61.95 -195.85 -76.95 -201.9" fill="#000000" fill-rule="evenodd" stroke="none"/>
    <path d="M-73.9 -210.55 L-67.5 -211.9 M-76.95 -201.9 L-75.1 -204.95 -60.2 -207.6 -50.5 -208.2 Q-61.95 -195.85 -76.95 -201.9" fill="none" stroke="#1a5283" stroke-linecap="round" stroke-linejoin="round" stroke-width="2.0"/>
    <path d="M-86.0 -207.5 L-86.9 -211.2 -87.05 -212.9 -87.05 -212.95 -87.05 -213.4 Q-86.95 -217.3 -83.5 -218.2 L-60.4 -218.2 -42.75 -221.6 -41.5 -215.65 -60.9 -212.05 -62.3 -194.4 Q-62.85 -190.5 -67.15 -190.35 L-79.7 -189.5 -82.45 -192.5 -86.0 -207.5 M-67.2 -210.5 Q-67.65 -213.6 -68.75 -214.2 L-80.55 -214.2 Q-81.85 -213.5 -82.35 -210.15 L-78.35 -194.65 -77.05 -192.8 -69.0 -192.8 Q-67.25 -193.7 -67.2 -196.85 L-67.2 -210.5" fill="#000000" fill-rule="evenodd" stroke="none"/>
    <path d="M-87.05 -212.9 L-86.9 -211.2 -86.0 -207.5 -86.35 -207.5 -85.75 -196.75 Q-86.4 -191.85 -87.85 -191.35 L-91.2 -191.35 Q-92.55 -192.35 -93.95 -196.2 L-96.35 -214.55 Q-96.55 -216.65 -94.7 -218.3 L-89.85 -218.3 Q-87.7 -218.4 -87.05 -216.75 L-87.05 -213.4 -87.05 -212.95 -87.05 -212.9 -88.3 -212.9 -87.05 -212.9 M-87.85 -207.6 L-86.35 -207.5 -87.85 -207.6 M-88.75 -192.45 L-90.2 -217.1 -88.75 -192.45" fill="#132a4c" fill-rule="evenodd" stroke="none"/>
    <path d="M-86.0 -207.5 L-86.9 -211.2 -87.05 -212.9 -88.3 -212.9 M-87.05 -212.9 L-87.05 -212.95 -87.05 -213.4 -87.05 -216.75 Q-87.7 -218.4 -89.85 -218.3 L-94.7 -218.3 Q-96.55 -216.65 -96.35 -214.55 L-93.95 -196.2 Q-92.55 -192.35 -91.2 -191.35 L-87.85 -191.35 Q-86.4 -191.85 -85.75 -196.75 L-86.35 -207.5 -87.85 -207.6 M-87.05 -213.4 Q-86.95 -217.3 -83.5 -218.2 L-60.4 -218.2 -42.75 -221.6 -41.5 -215.65 -60.9 -212.05 -62.3 -194.4 Q-62.85 -190.5 -67.15 -190.35 L-79.7 -189.5 -82.45 -192.5 -86.0 -207.5 -86.35 -207.5 M-67.2 -210.5 L-67.2 -196.85 Q-67.25 -193.7 -69.0 -192.8 L-77.05 -192.8 -78.35 -194.65 -82.35 -210.15 Q-81.85 -213.5 -80.55 -214.2 L-68.75 -214.2 Q-67.65 -213.6 -67.2 -210.5 M-90.2 -217.1 L-88.75 -192.45" fill="none" stroke="#1a5283" stroke-linecap="round" stroke-linejoin="round" stroke-width="2.0"/>
  </g>
</svg>
