<?xml version="1.0" encoding="UTF-8" standalone="no"?>
<svg xmlns:xlink="http://www.w3.org/1999/xlink" height="215.95px" width="237.85px" xmlns="http://www.w3.org/2000/svg">
  <g transform="matrix(1.0, 0.0, 0.0, 1.0, 155.35, 360.3)">
    <path d="M57.5 -280.5 L56.95 -280.55 56.8 -281.0 57.5 -280.5 M-101.85 -218.3 L-101.8 -218.65 -101.75 -218.65 -101.85 -218.3 M41.1 -285.3 Q39.9 -287.8 37.85 -290.2 40.65 -287.45 43.65 -285.45 L41.1 -285.3 M22.85 -289.65 Q25.6 -287.3 27.8 -284.8 L25.5 -284.7 Q24.55 -287.3 22.85 -289.65 M2.05 -200.2 L2.05 -200.15 2.05 -199.8 2.0 -200.15 2.05 -200.2 M-23.35 -253.7 L-21.45 -251.65 -16.25 -245.4 -19.25 -249.05 -23.35 -253.7 -23.9 -254.3 -23.35 -253.7 M-4.05 -225.35 L-3.25 -223.6 -3.3 -223.55 -4.05 -225.35" fill="#cccccc" fill-rule="evenodd" stroke="none"/>
    <path d="M12.3 -317.8 Q7.95 -316.15 11.75 -312.75 15.5 -309.35 18.55 -310.7 21.55 -312.05 20.8 -314.3 20.0 -316.55 12.3 -317.8 M-138.15 -274.3 Q-131.85 -281.25 -124.25 -287.5 -120.65 -290.5 -116.75 -293.3 -124.2 -291.1 -131.25 -295.05 -137.4 -298.5 -143.25 -306.65 -125.7 -296.4 -95.45 -307.15 L-95.4 -307.2 -93.35 -308.3 Q-62.85 -328.05 -25.75 -326.8 10.6 -327.85 33.2 -311.8 L34.0 -311.2 Q40.55 -306.15 49.15 -297.05 57.25 -290.0 63.85 -286.05 67.8 -283.65 71.25 -282.45 64.05 -279.95 57.5 -280.5 L56.8 -281.0 56.95 -280.55 Q64.75 -272.75 65.8 -264.9 66.55 -259.3 63.8 -253.7 62.95 -260.15 57.7 -270.1 56.6 -275.65 53.25 -281.15 49.45 -282.1 45.9 -284.05 L43.65 -285.45 Q40.65 -287.45 37.85 -290.2 39.9 -287.8 41.1 -285.3 43.8 -279.65 41.9 -273.7 40.3 -268.85 35.65 -263.8 36.0 -274.8 28.6 -283.85 L27.8 -284.8 Q25.6 -287.3 22.85 -289.65 L22.7 -289.85 Q19.9 -293.7 15.25 -296.9 L11.9 -298.95 10.9 -299.5 11.9 -298.95 15.25 -296.9 Q19.9 -293.7 22.7 -289.85 L22.85 -289.65 Q24.55 -287.3 25.5 -284.7 27.05 -280.55 26.7 -275.7 26.35 -270.85 24.05 -265.4 23.4 -275.7 14.25 -283.8 L10.2 -283.45 Q4.0 -291.55 -6.45 -295.6 -9.55 -295.2 -10.45 -292.1 L-10.55 -291.75 -10.8 -290.65 -10.85 -290.6 -10.85 -290.55 Q-12.65 -282.6 -10.85 -274.0 L-10.3 -272.7 -9.1 -267.35 -7.2 -262.05 Q-23.05 -268.05 -29.2 -279.85 L-30.55 -279.65 Q-44.4 -290.15 -50.0 -294.9 -50.4 -294.2 -50.25 -293.1 -49.7 -289.7 -50.05 -286.2 L-50.05 -286.15 -50.7 -282.1 Q-52.3 -275.4 -50.0 -272.65 -51.05 -267.4 -53.85 -262.75 L-56.6 -258.95 Q-59.75 -255.15 -64.2 -251.85 L-67.6 -249.55 -66.1 -251.65 Q-60.55 -260.45 -62.7 -273.75 -63.15 -276.4 -63.9 -279.25 L-70.2 -280.95 -73.1 -281.6 -75.5 -293.95 -75.55 -293.95 Q-78.85 -288.8 -81.85 -283.2 L-83.25 -283.4 -94.5 -284.45 -94.55 -284.45 -96.5 -284.55 -95.75 -285.2 Q-85.4 -293.75 -88.75 -300.8 -97.45 -298.9 -99.5 -297.25 L-102.05 -295.6 Q-121.0 -286.3 -138.15 -274.3 M55.8 -262.45 Q62.4 -245.55 76.75 -233.8 L80.0 -231.25 Q68.8 -225.55 58.75 -230.5 62.05 -226.45 67.2 -222.15 L45.7 -234.75 Q42.45 -245.5 41.3 -259.0 L41.2 -259.3 41.0 -259.85 41.2 -259.3 41.3 -259.0 Q42.45 -245.5 45.7 -234.75 L47.5 -229.5 Q48.8 -226.05 50.35 -222.9 43.95 -225.2 39.3 -228.45 26.1 -237.55 26.75 -254.15 L26.7 -254.65 26.75 -254.15 Q26.1 -237.55 39.3 -228.45 42.7 -215.6 35.7 -210.25 L28.05 -230.55 Q24.85 -218.15 14.55 -213.0 L14.25 -216.95 Q13.35 -233.15 19.2 -252.0 13.35 -233.15 14.25 -216.95 L14.55 -213.0 15.35 -207.6 Q10.85 -211.95 7.45 -216.3 3.25 -221.6 0.75 -226.9 -1.85 -226.35 -3.25 -223.6 L-4.05 -225.35 -4.5 -226.4 -16.25 -245.4 -21.45 -251.65 -23.35 -253.7 3.2 -257.85 Q27.6 -261.45 55.8 -262.45 M-43.0 -148.4 Q-33.9 -160.2 -31.15 -185.8 -30.6 -191.1 -30.3 -196.95 -32.75 -187.9 -39.2 -180.4 L-43.3 -176.2 Q-40.05 -189.1 -40.55 -203.35 -53.9 -211.6 -62.9 -219.75 L-56.0 -228.7 Q-51.2 -235.2 -48.75 -241.7 -46.35 -248.25 -44.6 -249.25 -42.85 -250.2 -32.0 -252.2 L-23.35 -253.7 -19.25 -249.05 Q1.15 -181.6 -43.0 -148.4 M-72.8 -230.35 L-73.65 -231.45 -73.4 -231.7 Q-65.7 -237.95 -60.0 -246.85 -63.5 -239.0 -70.4 -232.55 L-72.8 -230.35 M-80.55 -213.7 Q-82.0 -200.0 -91.15 -188.5 L-93.7 -185.5 -96.85 -182.3 Q-94.7 -186.9 -92.6 -198.25 L-91.4 -205.55 -91.2 -206.8 -90.75 -209.15 -90.4 -210.85 -90.55 -210.05 Q-85.5 -211.55 -80.55 -213.7 M-90.7 -210.0 Q-94.1 -198.0 -99.7 -189.15 -104.4 -181.85 -110.6 -176.8 -107.2 -182.55 -105.3 -200.95 L-104.4 -207.35 Q-97.45 -208.1 -90.7 -210.0 M-67.15 -289.0 L-67.05 -288.8 Q-65.1 -283.8 -63.9 -279.25 -65.1 -283.8 -67.05 -288.8 L-67.15 -289.0 M30.65 -296.7 L34.35 -293.75 37.85 -290.2 34.35 -293.75 30.65 -296.7 M53.25 -281.15 L56.95 -280.55 53.25 -281.15 M14.25 -283.8 Q8.85 -288.6 0.55 -292.6 8.85 -288.6 14.25 -283.8 M-2.7 -248.85 L-2.7 -248.55 Q-4.4 -237.7 0.75 -226.9 -4.4 -237.7 -2.7 -248.55 L-2.7 -248.85 M-14.7 -313.6 Q-14.6 -313.45 -14.95 -313.1 -15.3 -312.75 -16.5 -307.85 -17.7 -303.0 -7.85 -302.15 -6.85 -302.1 -6.7 -302.9 -5.0 -311.5 -14.7 -313.6 M-47.2 -311.5 Q-53.05 -311.65 -53.5 -304.7 -53.55 -303.35 -52.8 -302.65 -46.6 -297.1 -44.2 -305.3 -42.45 -311.4 -47.2 -311.5 M-74.2 -313.1 Q-80.05 -312.2 -84.45 -308.6 -85.65 -307.65 -84.9 -306.45 -82.15 -302.3 -78.55 -304.3 -75.0 -306.35 -73.45 -310.25 -71.95 -314.2 -74.2 -313.1 M-93.35 -308.3 L-95.3 -307.05 -96.55 -306.1 Q-107.5 -300.1 -116.75 -293.3 -107.5 -300.1 -96.55 -306.1 L-95.3 -307.05 -93.35 -308.3 M-29.2 -279.85 Q-32.3 -285.75 -32.95 -293.05 L-33.3 -294.15 -32.95 -293.05 Q-32.3 -285.75 -29.2 -279.85 M-52.35 -294.7 Q-51.3 -291.7 -50.6 -288.85 L-50.05 -286.2 -50.6 -288.85 Q-51.3 -291.7 -52.35 -294.7 M-40.55 -203.35 L-40.65 -205.95 Q-41.55 -220.3 -46.1 -235.9 L-46.1 -235.95 -46.15 -236.05 -46.75 -237.55 -46.15 -236.05 -46.1 -235.95 -46.1 -235.9 Q-41.55 -220.3 -40.65 -205.95 L-40.55 -203.35 M-29.3 -202.25 Q-29.65 -199.55 -30.3 -196.95 -29.65 -199.55 -29.3 -202.25" fill="#132a4c" fill-rule="evenodd" stroke="none"/>
    <path d="M-111.5 -217.6 L-122.9 -218.6 -127.35 -220.1 Q-142.55 -224.95 -154.25 -225.05 -145.55 -233.35 -118.7 -250.65 L-118.5 -250.8 Q-116.9 -251.3 -104.05 -249.4 -89.9 -247.35 -67.3 -248.6 -79.6 -232.05 -100.1 -221.85 -106.15 -218.85 -112.55 -217.6 L-111.5 -217.6 M-114.2 -253.6 Q-114.1 -266.0 -108.55 -280.25 L-77.5 -276.5 Q-62.8 -274.45 -62.7 -273.75 -60.55 -260.45 -66.1 -251.65 -87.25 -249.25 -114.2 -253.6 M-94.5 -284.45 L-83.25 -283.4 -81.85 -283.2 -81.6 -283.15 -93.75 -284.4 -94.25 -284.4 -94.5 -284.45 M-53.85 -262.75 L-56.45 -253.15 -64.2 -251.85 Q-59.75 -255.15 -56.6 -258.95 L-53.85 -262.75" fill="#4c97d9" fill-rule="evenodd" stroke="none"/>
    <path d="M-108.55 -280.25 L-108.35 -280.75 -107.5 -282.85 Q-106.9 -284.0 -106.2 -284.3 L-105.75 -284.45 -104.25 -284.65 -96.5 -284.55 -94.55 -284.45 -94.5 -284.45 -94.25 -284.4 -93.75 -284.4 -81.6 -283.15 -81.2 -283.1 -81.0 -283.05 -73.1 -281.6 -70.2 -280.95 -63.9 -279.25 Q-63.15 -276.4 -62.7 -273.75 -62.8 -274.45 -77.5 -276.5 L-108.55 -280.25" fill="#79c7ff" fill-rule="evenodd" stroke="none"/>
    <path d="M57.7 -270.1 Q58.3 -266.95 58.2 -263.8 L55.3 -263.8 55.25 -263.8 35.65 -263.8 Q-7.65 -263.85 -40.8 -257.25 L-49.15 -255.45 -56.45 -253.15 -53.85 -262.75 Q-51.05 -267.4 -50.0 -272.65 -49.6 -274.75 -49.45 -276.95 L-30.55 -279.65 -29.2 -279.85 Q-23.05 -268.05 -7.2 -262.05 L-9.1 -267.35 -10.3 -272.7 -10.9 -277.4 -11.15 -281.4 -11.15 -281.65 10.2 -283.45 14.25 -283.8 Q23.4 -275.7 24.05 -265.4 26.35 -270.85 26.7 -275.7 27.05 -280.55 25.5 -284.7 L27.8 -284.8 28.6 -283.85 Q36.0 -274.8 35.65 -263.8 40.3 -268.85 41.9 -273.7 43.8 -279.65 41.1 -285.3 L43.65 -285.45 45.9 -284.05 Q49.45 -282.1 53.25 -281.15 56.6 -275.65 57.7 -270.1 M-73.65 -231.45 Q-77.05 -228.75 -80.85 -226.55 -84.05 -224.7 -87.5 -223.2 -94.75 -220.05 -101.75 -218.65 L-101.8 -218.65 -105.95 -218.0 -106.0 -218.0 -106.45 -217.95 -108.4 -217.75 -111.5 -217.6 -112.55 -217.6 Q-106.15 -218.85 -100.1 -221.85 -79.6 -232.05 -67.3 -248.6 -89.9 -247.35 -104.05 -249.4 -116.9 -251.3 -118.5 -250.8 L-116.55 -252.05 -114.2 -253.6 Q-87.25 -249.25 -66.1 -251.65 L-67.6 -249.55 -64.2 -251.85 -56.45 -253.15 -56.8 -252.45 -58.85 -248.75 -60.0 -246.9 -60.0 -246.85 Q-65.7 -237.95 -73.4 -231.7 L-73.65 -231.45 M-127.35 -220.1 Q-155.85 -214.65 -154.25 -225.05 -142.55 -224.95 -127.35 -220.1" fill="#3572b4" fill-rule="evenodd" stroke="none"/>
    <path d="M55.55 -263.2 L55.55 -263.1 55.8 -262.45 Q27.6 -261.45 3.2 -257.85 L-23.35 -253.7 -32.0 -252.2 Q-42.85 -250.2 -44.6 -249.25 -46.35 -248.25 -48.75 -241.7 -51.2 -235.2 -56.0 -228.7 L-62.9 -219.75 Q-68.2 -224.55 -72.0 -229.3 L-72.8 -230.35 -70.4 -232.55 Q-63.5 -239.0 -60.0 -246.85 L-60.0 -246.9 -58.85 -248.75 -56.8 -252.45 -56.45 -253.15 -49.15 -255.45 -40.8 -257.25 Q-7.65 -263.85 35.65 -263.8 L55.25 -263.8 55.55 -263.2 M67.2 -222.15 Q72.4 -217.85 79.55 -213.3 L81.5 -212.1 Q72.4 -201.05 55.55 -199.3 L54.75 -199.25 Q55.35 -179.45 44.15 -165.0 40.65 -160.5 36.0 -156.45 39.6 -163.0 42.0 -174.35 L43.55 -183.3 Q34.5 -165.0 21.45 -154.1 L19.55 -152.55 Q19.75 -155.85 21.7 -161.75 23.45 -167.05 26.6 -174.4 16.3 -159.6 14.3 -149.4 13.85 -147.3 13.8 -145.35 11.0 -151.1 12.35 -158.65 12.75 -160.85 13.5 -163.2 10.0 -154.9 3.7 -149.4 L-0.5 -146.25 Q4.45 -159.3 -0.7 -177.0 L-1.7 -180.15 Q-5.15 -168.9 -11.35 -159.5 L-14.65 -154.95 Q-12.55 -159.65 -10.45 -168.55 L-8.4 -178.45 Q-14.8 -160.8 -32.3 -152.4 -37.2 -150.05 -43.0 -148.4 1.15 -181.6 -19.25 -249.05 L-16.25 -245.4 -4.5 -226.4 -4.05 -225.35 -3.3 -223.55 -1.45 -218.4 Q1.45 -209.0 2.0 -200.15 L2.05 -199.8 2.05 -200.15 2.05 -200.2 Q6.15 -206.55 7.15 -211.95 7.55 -214.2 7.45 -216.3 10.85 -211.95 15.35 -207.6 L14.55 -213.0 Q24.85 -218.15 28.05 -230.55 L35.7 -210.25 Q42.7 -215.6 39.3 -228.45 43.95 -225.2 50.35 -222.9 48.8 -226.05 47.5 -229.5 L45.7 -234.75 67.2 -222.15 M-80.85 -226.55 L-80.65 -224.9 Q-80.0 -219.15 -80.55 -213.7 -85.5 -211.55 -90.55 -210.05 L-90.4 -210.85 -89.9 -213.15 -89.8 -213.6 -90.7 -210.0 Q-97.45 -208.1 -104.4 -207.35 -103.4 -213.45 -101.85 -218.3 L-101.75 -218.65 Q-94.75 -220.05 -87.5 -223.2 -84.05 -224.7 -80.85 -226.55 M-106.2 -284.3 L-103.95 -288.95 Q-112.6 -285.45 -120.35 -281.65 -132.8 -275.5 -143.05 -268.65 L-138.15 -274.3 Q-121.0 -286.3 -102.05 -295.6 L-99.5 -297.25 Q-97.45 -298.9 -88.75 -300.8 -85.4 -293.75 -95.75 -285.2 L-96.5 -284.55 -104.25 -284.65 -105.75 -284.45 -106.2 -284.3 M-81.85 -283.2 Q-78.85 -288.8 -75.55 -293.95 L-75.5 -293.95 -73.1 -281.6 -81.0 -283.05 -81.2 -283.1 -81.6 -283.15 -81.85 -283.2 M10.2 -283.45 L-11.15 -281.65 -11.15 -281.4 -10.9 -277.4 -10.3 -272.7 -10.85 -274.0 Q-12.65 -282.6 -10.85 -290.55 L-10.85 -290.6 -10.8 -290.65 -10.55 -291.75 -10.45 -292.1 Q-9.55 -295.2 -6.45 -295.6 4.0 -291.55 10.2 -283.45 M-30.55 -279.65 L-49.45 -276.95 Q-49.6 -274.75 -50.0 -272.65 -52.3 -275.4 -50.7 -282.1 L-50.05 -286.15 -50.05 -286.2 Q-49.7 -289.7 -50.25 -293.1 -50.4 -294.2 -50.0 -294.9 -44.4 -290.15 -30.55 -279.65 M-1.7 -180.15 Q1.1 -189.35 2.05 -199.8 1.1 -189.35 -1.7 -180.15 M54.55 -203.05 L54.75 -199.25 54.55 -203.05 M41.45 -226.5 L42.05 -225.5 Q47.05 -205.9 36.2 -191.3 33.2 -187.3 29.05 -183.65 32.25 -201.4 27.3 -225.3 32.25 -201.4 29.05 -183.65 33.2 -187.3 36.2 -191.3 47.05 -205.9 42.05 -225.5 L41.45 -226.5 M16.85 -175.0 Q16.15 -170.85 14.95 -167.15 L13.5 -163.2 14.95 -167.15 Q16.15 -170.85 16.85 -175.0 M32.1 -181.9 L26.6 -174.4 32.1 -181.9 M45.0 -186.35 L43.55 -183.3 45.0 -186.35 M-94.4 -292.7 L-103.95 -288.95 -94.4 -292.7 M-11.15 -281.65 Q-11.25 -285.95 -10.8 -290.65 -11.25 -285.95 -11.15 -281.65 M-23.35 -253.7 L-23.9 -254.3 -23.35 -253.7 M-49.45 -276.95 Q-49.15 -281.4 -50.05 -286.2 -49.15 -281.4 -49.45 -276.95 M-6.25 -186.1 Q-7.1 -182.1 -8.4 -178.45 -7.1 -182.1 -6.25 -186.1" fill="#091425" fill-rule="evenodd" stroke="none"/>
    <path d="M12.3 -317.8 Q20.0 -316.55 20.8 -314.3 21.55 -312.05 18.55 -310.7 15.5 -309.35 11.75 -312.75 7.95 -316.15 12.3 -317.8 M-74.2 -313.1 Q-71.95 -314.2 -73.45 -310.25 -75.0 -306.35 -78.55 -304.3 -82.15 -302.3 -84.9 -306.45 -85.65 -307.65 -84.45 -308.6 -80.05 -312.2 -74.2 -313.1 M-47.2 -311.5 Q-42.45 -311.4 -44.2 -305.3 -46.6 -297.1 -52.8 -302.65 -53.55 -303.35 -53.5 -304.7 -53.05 -311.65 -47.2 -311.5 M-14.7 -313.6 Q-5.0 -311.5 -6.7 -302.9 -6.85 -302.1 -7.85 -302.15 -17.7 -303.0 -16.5 -307.85 -15.3 -312.75 -14.95 -313.1 -14.6 -313.45 -14.7 -313.6" fill="#245091" fill-rule="evenodd" stroke="none"/>
    <path d="M-138.15 -274.3 Q-131.85 -281.25 -124.25 -287.5 -120.65 -290.5 -116.75 -293.3 -124.2 -291.1 -131.25 -295.05 -137.4 -298.5 -143.25 -306.65 -125.7 -296.4 -95.45 -307.15 L-95.4 -307.2 -93.35 -308.3 Q-62.85 -328.05 -25.75 -326.8 10.6 -327.85 33.2 -311.8 L34.0 -311.2 Q40.55 -306.15 49.15 -297.05 57.25 -290.0 63.85 -286.05 67.8 -283.65 71.25 -282.45 64.05 -279.95 57.5 -280.5 L56.95 -280.55 Q64.75 -272.75 65.8 -264.9 66.55 -259.3 63.8 -253.7 62.95 -260.15 57.7 -270.1 58.3 -266.95 58.2 -263.8 L55.3 -263.8 55.55 -263.2 55.55 -263.1 M55.8 -262.45 Q62.4 -245.55 76.75 -233.8 L80.0 -231.25 Q68.8 -225.55 58.75 -230.5 62.05 -226.45 67.2 -222.15 72.4 -217.85 79.55 -213.3 L81.5 -212.1 Q72.4 -201.05 55.55 -199.3 L54.75 -199.25 Q55.35 -179.45 44.15 -165.0 40.65 -160.5 36.0 -156.45 39.6 -163.0 42.0 -174.35 L43.55 -183.3 Q34.5 -165.0 21.45 -154.1 L19.55 -152.55 Q19.75 -155.85 21.7 -161.75 23.45 -167.05 26.6 -174.4 16.3 -159.6 14.3 -149.4 13.85 -147.3 13.8 -145.35 11.0 -151.1 12.35 -158.65 12.75 -160.85 13.5 -163.2 10.0 -154.9 3.7 -149.4 L-0.5 -146.25 Q4.45 -159.3 -0.7 -177.0 L-1.7 -180.15 Q-5.15 -168.9 -11.35 -159.5 L-14.65 -154.95 Q-12.55 -159.65 -10.45 -168.55 L-8.4 -178.45 Q-14.8 -160.8 -32.3 -152.4 -37.2 -150.05 -43.0 -148.4 -33.9 -160.2 -31.15 -185.8 -30.6 -191.1 -30.3 -196.95 -32.75 -187.9 -39.2 -180.4 L-43.3 -176.2 Q-40.05 -189.1 -40.55 -203.35 -53.9 -211.6 -62.9 -219.75 -68.2 -224.55 -72.0 -229.3 L-72.8 -230.35 -73.65 -231.45 Q-77.05 -228.75 -80.85 -226.55 L-80.65 -224.9 Q-80.0 -219.15 -80.55 -213.7 -82.0 -200.0 -91.15 -188.5 L-93.7 -185.5 -96.85 -182.3 Q-94.7 -186.9 -92.6 -198.25 L-91.4 -205.55 -91.2 -206.8 -90.75 -209.15 -90.4 -210.85 -89.9 -213.15 -89.8 -213.6 -90.7 -210.0 Q-94.1 -198.0 -99.7 -189.15 -104.4 -181.85 -110.6 -176.8 -107.2 -182.55 -105.3 -200.95 L-104.4 -207.35 Q-103.4 -213.45 -101.85 -218.3 L-101.8 -218.65 -105.95 -218.0 -106.0 -218.0 -106.45 -217.95 -108.4 -217.75 -111.5 -217.6 -122.9 -218.6 -127.35 -220.1 Q-155.85 -214.65 -154.25 -225.05 -145.55 -233.35 -118.7 -250.65 L-118.5 -250.8 -116.55 -252.05 -114.2 -253.6 Q-114.1 -266.0 -108.55 -280.25 L-108.35 -280.75 -107.5 -282.85 Q-106.9 -284.0 -106.2 -284.3 L-103.95 -288.95 Q-112.6 -285.45 -120.35 -281.65 -132.8 -275.5 -143.05 -268.65 L-138.15 -274.3 M-96.5 -284.55 L-94.55 -284.45 -94.5 -284.45 -83.25 -283.4 -81.85 -283.2 -81.6 -283.15 M-73.1 -281.6 L-70.2 -280.95 -63.9 -279.25 Q-65.1 -283.8 -67.05 -288.8 L-67.15 -289.0 M22.85 -289.65 L22.7 -289.85 Q19.9 -293.7 15.25 -296.9 L11.9 -298.95 10.9 -299.5 M56.95 -280.55 L56.8 -281.0 57.5 -280.5 M27.8 -284.8 L28.6 -283.85 Q36.0 -274.8 35.65 -263.8 40.3 -268.85 41.9 -273.7 43.8 -279.65 41.1 -285.3 39.9 -287.8 37.85 -290.2 L34.35 -293.75 30.65 -296.7 M41.1 -285.3 L43.65 -285.45 Q40.65 -287.45 37.85 -290.2 M56.95 -280.55 L53.25 -281.15 Q56.6 -275.65 57.7 -270.1 M53.25 -281.15 Q49.45 -282.1 45.9 -284.05 L43.65 -285.45 M55.3 -263.8 L55.25 -263.8 55.55 -263.2 M45.7 -234.75 Q42.45 -245.5 41.3 -259.0 L41.2 -259.3 41.0 -259.85 M22.85 -289.65 Q25.6 -287.3 27.8 -284.8 L25.5 -284.7 Q27.05 -280.55 26.7 -275.7 26.35 -270.85 24.05 -265.4 23.4 -275.7 14.25 -283.8 L10.2 -283.45 -11.15 -281.65 -11.15 -281.4 -10.9 -277.4 -10.3 -272.7 -9.1 -267.35 -7.2 -262.05 Q-23.05 -268.05 -29.2 -279.85 L-30.55 -279.65 M-49.45 -276.95 Q-49.6 -274.75 -50.0 -272.65 -51.05 -267.4 -53.85 -262.75 L-56.45 -253.15 -49.15 -255.45 -40.8 -257.25 Q-7.65 -263.85 35.65 -263.8 L55.25 -263.8 M25.5 -284.7 Q24.55 -287.3 22.85 -289.65 M0.55 -292.6 Q8.85 -288.6 14.25 -283.8 M26.7 -254.65 L26.75 -254.15 Q26.1 -237.55 39.3 -228.45 43.95 -225.2 50.35 -222.9 48.8 -226.05 47.5 -229.5 L45.7 -234.75 M14.55 -213.0 L14.25 -216.95 Q13.35 -233.15 19.2 -252.0 M7.45 -216.3 Q7.55 -214.2 7.15 -211.95 6.15 -206.55 2.05 -200.2 L2.05 -200.15 2.05 -199.8 Q1.1 -189.35 -1.7 -180.15 M2.05 -200.2 L2.0 -200.15 2.05 -199.8 M7.45 -216.3 Q10.85 -211.95 15.35 -207.6 L14.55 -213.0 M0.75 -226.9 Q3.25 -221.6 7.45 -216.3 M27.3 -225.3 Q32.25 -201.4 29.05 -183.65 33.2 -187.3 36.2 -191.3 47.05 -205.9 42.05 -225.5 L41.45 -226.5 M54.75 -199.25 L54.55 -203.05 M-23.35 -253.7 L-21.45 -251.65 -16.25 -245.4 -4.5 -226.4 -4.05 -225.35 -3.25 -223.6 Q-1.85 -226.35 0.75 -226.9 -4.4 -237.7 -2.7 -248.55 L-2.7 -248.85 M43.55 -183.3 L45.0 -186.35 M26.6 -174.4 L32.1 -181.9 M13.5 -163.2 L14.95 -167.15 Q16.15 -170.85 16.85 -175.0 M-116.75 -293.3 Q-107.5 -300.1 -96.55 -306.1 L-95.3 -307.05 -93.35 -308.3 M-81.0 -283.05 L-73.1 -281.6 M-106.2 -284.3 L-105.75 -284.45 -104.25 -284.65 -96.5 -284.55 M-103.95 -288.95 L-94.4 -292.7 M-127.35 -220.1 Q-142.55 -224.95 -154.25 -225.05 M-101.75 -218.65 L-101.8 -218.65 M-101.75 -218.65 L-101.85 -218.3 M-80.85 -226.55 Q-84.05 -224.7 -87.5 -223.2 -94.75 -220.05 -101.75 -218.65 M-10.8 -290.65 L-10.55 -291.75 M-10.8 -290.65 Q-11.25 -285.95 -11.15 -281.65 M-33.3 -294.15 L-32.95 -293.05 Q-32.3 -285.75 -29.2 -279.85 M-23.35 -253.7 L-23.9 -254.3 -23.35 -253.7 -19.25 -249.05 -16.25 -245.4 M-50.05 -286.2 Q-49.15 -281.4 -49.45 -276.95 M-50.05 -286.2 L-50.6 -288.85 Q-51.3 -291.7 -52.35 -294.7 M-63.9 -279.25 Q-63.15 -276.4 -62.7 -273.75 -60.55 -260.45 -66.1 -251.65 L-67.6 -249.55 -64.2 -251.85 Q-59.75 -255.15 -56.6 -258.95 L-53.85 -262.75 M-56.45 -253.15 L-56.8 -252.45 -58.85 -248.75 -60.0 -246.9 -60.0 -246.85 Q-65.7 -237.95 -73.4 -231.7 L-73.65 -231.45 M-64.2 -251.85 L-56.45 -253.15 M-46.75 -237.55 L-46.15 -236.05 -46.1 -235.95 -46.1 -235.9 Q-41.55 -220.3 -40.65 -205.95 L-40.55 -203.35 M-3.3 -223.55 L-4.05 -225.35 M-3.3 -223.55 L-3.25 -223.6 Q1.65 -211.9 2.05 -200.2 M2.0 -200.15 Q1.45 -209.0 -1.45 -218.4 L-3.3 -223.55 M-114.2 -253.6 Q-87.25 -249.25 -66.1 -251.65 M-8.4 -178.45 Q-7.1 -182.1 -6.25 -186.1 M-30.3 -196.95 Q-29.65 -199.55 -29.3 -202.25" fill="none" stroke="#1a5283" stroke-linecap="round" stroke-linejoin="round" stroke-width="2.0"/>
    <path d="M-26.55 -323.25 L-31.55 -324.8 Q-52.75 -350.15 -28.35 -359.3 -34.45 -339.1 -29.2 -326.05 -28.9 -354.6 2.7 -344.5 -18.25 -341.45 -26.55 -323.25" fill="#132a4c" fill-rule="evenodd" stroke="none"/>
    <path d="M-31.55 -324.8 Q-52.75 -350.15 -28.35 -359.3 -34.45 -339.1 -29.2 -326.05 -28.9 -354.6 2.7 -344.5 -18.25 -341.45 -26.55 -323.25" fill="none" stroke="#1a5283" stroke-linecap="round" stroke-linejoin="round" stroke-width="2.0"/>
  </g>
</svg>
