<?xml version="1.0" encoding="UTF-8" standalone="no"?>
<svg xmlns:xlink="http://www.w3.org/1999/xlink" height="589.4px" width="273.3px" xmlns="http://www.w3.org/2000/svg">
  <g transform="matrix(1.0, 0.0, 0.0, 1.0, 153.65, 244.5)">
    <path d="M-5.35 320.0 Q-7.15 315.2 -5.2 310.1 -1.45 268.05 -2.7 207.35 -3.95 145.75 -9.75 92.05 L-12.7 91.6 Q-18.65 90.55 -23.85 88.55 -21.35 139.7 -50.8 196.25 -57.15 206.25 -61.4 208.45 L-53.9 213.0 Q-44.15 288.25 -65.15 311.8 -91.85 295.6 -126.2 296.85 L-123.8 290.55 Q-110.6 250.65 -105.85 205.95 L-100.45 172.1 Q-91.15 107.95 -81.85 77.45 -71.75 81.2 -55.65 80.85 L-57.2 77.35 -57.0 77.85 Q-45.25 81.0 -32.2 80.05 L-17.5 78.1 -9.15 81.35 -9.45 82.6 -5.05 82.8 Q21.25 91.55 50.15 91.3 55.0 143.7 53.1 197.5 52.7 208.9 54.4 220.05 60.85 262.15 56.35 303.85 49.1 301.15 39.1 301.9 12.45 304.7 5.9 310.65 -0.65 316.55 -5.35 320.0 M-9.75 92.05 L-7.1 92.35 -9.75 92.05 M-29.9 85.75 Q-27.0 87.3 -23.85 88.55 -27.0 87.3 -29.9 85.75" fill="#283e5d" fill-rule="evenodd" stroke="none"/>
    <path d="M59.05 335.8 Q58.35 342.65 55.45 342.6 21.9 345.5 3.1 342.0 2.1 340.55 1.8 336.1 L11.5 336.05 59.05 335.8 M-60.0 333.3 Q-60.3 337.35 -61.5 339.35 -76.7 341.3 -104.5 340.2 L-150.7 339.35 Q-153.0 335.55 -152.6 331.75 -121.9 333.3 -87.45 333.45 L-62.0 333.35 -60.0 333.3 M-7.45 69.65 L-7.7 72.6 Q-8.5 71.75 -10.9 71.35 L-7.45 69.65 M-38.35 -121.85 Q-29.3 -112.5 -10.05 -115.4 -10.6 -110.7 -9.4 -105.9 -10.0 -104.7 -10.2 -103.5 -16.8 -69.3 -16.1 -33.55 -15.15 13.9 -12.05 60.95 L-20.15 62.85 Q-38.7 67.1 -58.05 67.5 L-59.55 67.5 Q-60.4 61.5 -60.5 53.8 L-57.5 55.0 Q-33.8 65.2 -13.1 54.95 L-22.25 56.1 Q-33.25 57.75 -42.9 54.2 -52.6 50.6 -60.45 48.5 -60.15 31.7 -56.6 7.9 -52.7 -18.55 -50.55 -48.15 -43.8 -8.0 -27.3 29.35 L-25.8 29.85 -25.5 29.95 -32.15 10.7 Q-43.5 -22.8 -48.45 -65.05 L-49.2 -71.65 -49.2 -71.7 -48.9 -79.5 Q-43.9 -92.7 -40.75 -108.1 -36.9 -106.05 -32.9 -104.15 -21.35 -98.55 -12.05 -101.8 -20.3 -105.8 -30.55 -109.2 -35.35 -110.8 -39.85 -112.85 L-38.35 -121.85" fill="#1b2734" fill-rule="evenodd" stroke="none"/>
    <path d="M-6.4 -94.2 L-4.8 -98.4 Q5.65 -125.75 28.2 -142.55 30.4 -144.2 30.75 -146.45 31.05 -148.45 30.95 -150.25 L34.75 -145.75 Q46.65 -140.4 54.35 -131.75 60.3 -126.7 59.1 -120.75 68.75 -113.7 77.6 -101.05 76.9 -100.0 80.75 -78.95 L81.0 -77.5 81.5 -79.45 Q83.15 -83.5 86.45 -88.4 99.2 -74.2 118.65 -49.4 115.2 -44.2 111.05 -40.3 L76.2 -33.85 Q52.75 -45.65 29.25 -79.2 31.65 -73.75 35.65 -67.35 35.55 -66.2 36.55 -62.45 40.05 -49.0 41.3 -27.6 42.5 -6.25 41.75 1.25 L42.25 1.1 43.45 3.8 43.55 3.95 43.6 4.05 45.5 7.25 Q50.15 14.25 60.15 23.75 L61.5 25.0 Q56.05 26.6 52.55 27.05 49.05 27.45 48.7 31.45 48.35 35.4 50.45 39.4 L47.2 40.45 44.45 39.15 Q27.6 30.8 25.35 15.65 L25.05 13.05 Q27.55 8.6 32.35 7.1 L32.3 7.35 Q31.95 10.05 34.05 11.3 36.9 13.0 36.7 9.8 36.35 4.75 39.75 1.9 L39.8 1.85 38.85 2.25 36.4 3.75 35.95 4.15 35.85 4.2 Q34.65 5.25 33.7 6.6 L33.6 6.75 33.45 6.8 32.35 7.1 Q27.55 8.6 25.05 13.05 L25.35 15.65 20.05 20.9 Q18.15 16.1 17.5 11.1 18.15 16.1 20.05 20.9 24.9 33.2 37.85 44.15 L38.35 44.0 38.75 44.9 37.85 44.15 38.75 44.9 Q41.8 51.35 49.2 55.7 62.45 63.45 63.1 78.9 L63.65 78.85 58.4 79.6 Q26.7 83.85 -5.05 82.8 L-9.45 82.6 -9.15 81.35 -8.1 76.1 -7.7 72.85 -7.7 72.6 -7.45 69.65 Q-5.6 45.3 -9.75 9.4 -14.05 -27.95 -11.7 -56.3 -5.0 -66.2 10.5 -85.55 25.95 -104.9 52.95 -123.25 56.1 -122.8 59.1 -120.75 56.1 -122.8 52.95 -123.25 47.75 -124.1 42.1 -120.7 15.85 -103.35 -1.55 -81.2 -7.35 -74.35 -9.25 -75.2 -8.45 -85.25 -6.4 -94.2 M59.25 331.1 L59.05 335.8 11.5 336.05 Q6.55 324.25 15.05 314.65 L15.6 313.2 Q21.75 310.75 31.6 310.05 47.85 311.0 54.65 316.95 60.55 322.15 59.25 331.1 M-152.6 331.75 Q-152.25 327.75 -148.85 323.75 -138.2 315.95 -123.9 308.8 -113.8 306.35 -104.1 307.45 -89.55 317.95 -89.6 325.15 -89.7 332.3 -89.1 333.4 L-87.45 333.45 Q-121.9 333.3 -152.6 331.75 M-81.85 77.45 Q-97.0 71.8 -98.65 56.95 -93.2 49.1 -86.65 34.1 -83.0 31.8 -92.05 51.5 -69.45 25.25 -75.05 8.65 L-77.4 10.5 -77.25 10.05 Q-75.3 4.1 -73.75 -1.95 -69.9 -16.95 -68.55 -32.6 -66.9 -51.4 -64.05 -69.8 L-67.9 -95.15 Q-74.55 -39.25 -97.05 -35.1 -106.5 -38.85 -115.1 -46.5 -119.8 -50.65 -124.2 -55.95 -115.55 -62.6 -102.8 -83.25 -89.35 -117.0 -71.75 -125.3 -62.1 -102.0 -56.15 -84.85 -50.25 -67.7 -49.85 -68.35 L-49.3 -69.3 Q-49.85 -58.55 -50.55 -48.15 -52.7 -18.55 -56.6 7.9 -60.15 31.7 -60.45 48.5 L-60.5 53.8 Q-60.4 61.5 -59.55 67.5 L-59.2 69.7 -59.15 69.9 -59.1 70.1 -59.1 70.25 Q-58.4 73.9 -57.4 76.8 L-57.2 77.35 -55.65 80.85 Q-71.75 81.2 -81.85 77.45 M-88.35 28.75 Q-92.95 27.85 -95.3 19.3 -89.55 15.35 -94.2 11.35 L-99.05 14.65 Q-100.45 12.45 -100.45 10.05 L-100.1 8.1 Q-98.25 -0.45 -90.2 -2.75 -87.15 -3.65 -84.2 -3.8 -80.8 1.45 -81.0 7.6 -81.1 10.35 -80.25 12.25 -90.0 20.0 -88.35 28.75 M-70.45 -125.9 Q-69.85 -133.15 -60.9 -135.7 L-60.85 -135.6 Q-57.45 -131.35 -52.65 -130.9 -50.75 -130.75 -51.15 -132.5 -51.9 -135.85 -53.8 -138.9 -49.45 -143.35 -41.1 -148.2 -39.35 -143.45 -41.55 -125.65 -43.8 -107.85 -50.25 -77.45 -52.75 -78.6 -53.95 -85.65 -57.6 -112.15 -70.45 -125.9 M41.75 1.25 Q40.7 1.5 39.75 1.9 40.7 1.5 41.75 1.25 M14.55 48.55 Q13.45 48.55 12.65 49.4 11.0 51.2 12.6 52.95 22.55 63.6 38.3 61.1 39.9 60.85 40.8 59.75 45.2 54.4 37.15 55.3 23.6 56.9 14.55 48.55 M-62.55 -80.15 L-64.05 -69.8 -62.55 -80.15 M-68.6 -99.85 L-67.9 -95.15 -68.6 -99.85 M-68.3 42.0 Q-82.25 48.55 -86.1 53.3 -88.0 55.6 -85.1 56.3 -81.9 57.1 -78.7 55.1 -70.8 50.25 -68.3 42.0" fill="#4c97d9" fill-rule="evenodd" stroke="none"/>
    <path d="M0.15 -232.6 Q-4.4 -228.25 -7.5 -223.05 -8.45 -221.5 -8.25 -219.8 -7.45 -212.7 -4.3 -206.35 0.5 -196.75 -0.4 -186.8 -0.6 -184.2 1.75 -183.35 9.5 -180.7 8.3 -194.45 7.05 -208.25 0.8 -219.0 L2.45 -221.95 Q3.6 -224.2 6.0 -225.25 8.4 -226.3 9.3 -227.5 L16.45 -192.15 15.75 -187.3 Q2.1 -175.9 -13.75 -167.0 -14.75 -172.4 -16.45 -177.85 -22.95 -198.6 -33.45 -217.45 -29.5 -218.6 -26.65 -221.35 -21.4 -226.4 -27.9 -229.45 -34.65 -232.6 -42.45 -231.1 -42.7 -236.3 -47.9 -237.0 L-63.05 -238.05 Q-70.65 -237.25 -77.85 -235.65 L-67.3 -243.5 0.15 -232.6 M111.95 -28.4 Q110.4 -22.0 104.75 -15.0 95.4 -5.9 77.65 7.55 64.95 17.25 60.15 23.75 50.15 14.25 45.5 7.25 52.6 2.05 60.3 -6.75 67.95 -15.5 85.25 -23.35 102.5 -31.2 111.95 -28.4 M-100.1 8.1 Q-110.65 -12.55 -116.9 -31.25 -118.7 -39.35 -116.25 -44.5 L-116.55 -43.8 Q-92.4 -29.1 -84.15 -3.8 L-84.2 -3.8 Q-87.15 -3.65 -90.2 -2.75 -98.25 -0.45 -100.1 8.1 M-43.2 -154.45 Q-45.3 -152.8 -47.35 -153.05 L-47.45 -153.05 Q-52.2 -151.65 -55.55 -151.5 L-58.45 -151.95 Q-70.25 -154.7 -78.15 -169.9 -80.7 -175.05 -81.05 -179.1 -88.3 -184.75 -85.1 -189.45 -81.95 -194.2 -81.45 -200.45 L-83.75 -206.4 -69.6 -209.05 Q-61.7 -210.15 -55.45 -206.35 -45.6 -200.3 -39.45 -184.65 -33.35 -169.0 -38.15 -160.75 -40.75 -156.35 -43.2 -154.45 L-47.35 -153.05 -43.2 -154.45 M-34.3 -137.4 Q-26.25 -138.85 -17.8 -144.2 L0.35 -155.45 Q2.25 -147.0 5.35 -138.9 1.9 -133.3 -1.05 -127.5 L-12.05 -126.05 -14.75 -122.8 -12.05 -126.05 -1.05 -127.5 Q-3.9 -121.9 -6.25 -116.1 L-10.05 -115.4 Q-29.3 -112.5 -38.35 -121.85 L-37.3 -130.25 -37.05 -132.55 -34.3 -137.4 M-52.85 -194.3 Q-53.85 -194.3 -54.2 -193.35 -56.1 -188.8 -49.85 -189.45 -48.7 -189.6 -48.4 -190.65 -47.0 -195.1 -52.85 -194.3 M-27.4 -123.2 L-28.95 -127.2 -37.3 -130.25 -28.95 -127.2 -27.4 -123.2" fill="#ffe8d7" fill-rule="evenodd" stroke="none"/>
    <path d="M-58.45 -151.95 L-55.6 -144.35 Q-82.2 -154.75 -90.6 -176.85 -90.85 -165.15 -87.7 -156.85 -105.95 -174.95 -109.1 -202.6 -118.3 -189.65 -135.65 -191.85 -117.85 -204.8 -114.4 -221.1 L-86.9 -228.6 Q-88.65 -219.2 -83.75 -206.4 L-81.45 -200.45 Q-81.95 -194.2 -85.1 -189.45 -88.3 -184.75 -81.05 -179.1 -80.7 -175.05 -78.15 -169.9 -70.25 -154.7 -58.45 -151.95 M-109.1 -202.6 Q-109.75 -208.15 -109.8 -214.0 -109.75 -208.15 -109.1 -202.6" fill="#091425" fill-rule="evenodd" stroke="none"/>
    <path d="M14.8 -158.5 Q24.45 -156.65 30.95 -150.25 31.05 -148.45 30.75 -146.45 30.4 -144.2 28.2 -142.55 5.65 -125.75 -4.8 -98.4 L-6.4 -94.2 Q-3.4 -107.35 2.2 -118.2 5.05 -123.85 8.7 -128.8 14.4 -136.8 21.95 -143.15 L18.8 -145.9 Q15.85 -150.75 14.8 -158.5 M77.6 -101.05 L83.45 -91.9 83.8 -91.35 86.45 -88.4 Q83.15 -83.5 81.5 -79.45 L81.0 -77.5 80.75 -78.95 Q76.9 -100.0 77.6 -101.05 M61.5 25.0 L62.6 26.05 Q60.75 30.2 55.6 33.95 65.9 57.5 67.7 78.2 L63.65 78.85 63.1 78.9 Q62.45 63.45 49.2 55.7 41.8 51.35 38.75 44.9 L38.35 44.0 Q44.55 42.2 44.45 39.15 L47.2 40.45 50.45 39.4 Q48.35 35.4 48.7 31.45 49.05 27.45 52.55 27.05 56.05 26.6 61.5 25.0 M1.8 336.1 Q1.55 333.2 1.65 329.0 3.3 322.2 9.55 316.7 11.9 314.65 15.6 313.2 L15.05 314.65 Q6.55 324.25 11.5 336.05 L1.8 336.1 M-60.2 324.8 Q-59.75 329.8 -60.0 333.3 L-62.0 333.35 -87.45 333.45 -89.1 333.4 Q-89.7 332.3 -89.6 325.15 -89.55 317.95 -104.1 307.45 -94.55 308.5 -85.4 313.05 L-73.8 318.65 -60.2 324.8 M-86.65 34.1 L-85.55 31.55 -80.95 20.35 -77.4 10.5 -75.05 8.65 Q-69.45 25.25 -92.05 51.5 -83.0 31.8 -86.65 34.1 M-95.3 19.3 L-95.55 18.35 Q-97.85 16.6 -99.05 14.65 L-94.2 11.35 Q-89.55 15.35 -95.3 19.3 M-71.75 -125.3 L-70.45 -125.9 Q-57.6 -112.15 -53.95 -85.65 -52.75 -78.6 -50.25 -77.45 -43.8 -107.85 -41.55 -125.65 -39.35 -143.45 -41.1 -148.2 L-40.4 -148.6 -28.65 -154.7 -27.8 -155.1 Q-26.45 -149.3 -29.75 -145.55 L-34.3 -137.4 -37.05 -132.55 -37.3 -130.25 -38.35 -121.85 -39.85 -112.85 -40.75 -108.1 Q-43.9 -92.7 -48.9 -79.5 L-49.2 -71.7 -49.2 -71.65 -49.3 -69.3 -49.85 -68.35 Q-50.25 -67.7 -56.15 -84.85 -62.1 -102.0 -71.75 -125.3 M-60.9 -135.7 L-55.75 -136.7 -55.65 -136.75 -54.8 -137.8 -53.8 -138.9 Q-51.9 -135.85 -51.15 -132.5 -50.75 -130.75 -52.65 -130.9 -57.45 -131.35 -60.85 -135.6 L-60.9 -135.7 M-9.25 -75.2 Q-7.35 -74.35 -1.55 -81.2 15.85 -103.35 42.1 -120.7 47.75 -124.1 52.95 -123.25 25.95 -104.9 10.5 -85.55 -5.0 -66.2 -11.7 -56.3 -10.9 -66.3 -9.25 -75.2 M35.65 -67.35 Q39.0 -62.0 43.5 -56.05 L44.15 -55.15 45.2 -53.8 44.15 -55.15 43.5 -56.05 Q39.0 -62.0 35.65 -67.35 31.65 -73.75 29.25 -79.2 52.75 -45.65 76.2 -33.85 L111.05 -40.3 Q101.95 -31.8 89.65 -29.35 78.2 -27.15 68.55 -23.55 63.0 -21.55 58.05 -19.05 58.45 -28.6 55.15 -37.4 L52.35 -5.9 52.35 -5.85 43.45 3.8 42.25 1.1 41.75 1.25 Q42.5 -6.25 41.3 -27.6 40.05 -49.0 36.55 -62.45 35.55 -66.2 35.65 -67.35 M45.5 -53.4 Q52.0 -45.75 55.15 -37.4 52.0 -45.75 45.5 -53.4 M55.6 33.95 Q53.9 37.7 50.45 39.4 53.9 37.7 55.6 33.95 M32.35 7.1 L33.45 6.8 33.6 6.75 33.7 6.6 Q34.65 5.25 35.85 4.2 L35.95 4.15 36.4 3.75 38.85 2.25 39.75 1.9 38.85 2.25 39.8 1.85 39.75 1.9 Q36.35 4.75 36.7 9.8 36.9 13.0 34.05 11.3 31.95 10.05 32.3 7.35 L32.35 7.1 M52.45 54.5 Q44.75 49.85 38.75 44.9 44.75 49.85 52.45 54.5 M14.55 48.55 Q23.6 56.9 37.15 55.3 45.2 54.4 40.8 59.75 39.9 60.85 38.3 61.1 22.55 63.6 12.6 52.95 11.0 51.2 12.65 49.4 13.45 48.55 14.55 48.55 M-81.55 -31.7 Q-89.55 -32.15 -97.05 -35.1 -74.55 -39.25 -67.9 -95.15 L-64.05 -69.8 Q-66.9 -51.4 -68.55 -32.6 -75.2 -31.35 -81.55 -31.7 M-84.2 -3.8 L-84.15 -3.8 Q-79.05 -4.1 -74.35 -2.2 L-73.75 -1.95 Q-75.3 4.1 -77.25 10.05 L-77.5 10.25 -79.25 11.5 -80.25 12.25 -79.25 11.5 -80.25 12.25 Q-81.1 10.35 -81.0 7.6 -80.8 1.45 -84.2 -3.8 M-50.25 -77.45 L-49.6 -77.25 -49.55 -77.25 -48.9 -79.5 -49.55 -77.25 -49.6 -77.25 -50.25 -77.45 M-68.3 42.0 Q-70.8 50.25 -78.7 55.1 -81.9 57.1 -85.1 56.3 -88.0 55.6 -86.1 53.3 -82.25 48.55 -68.3 42.0" fill="#3572b4" fill-rule="evenodd" stroke="none"/>
    <path d="M9.3 -227.5 Q8.4 -226.3 6.0 -225.25 3.6 -224.2 2.45 -221.95 L0.8 -219.0 Q7.05 -208.25 8.3 -194.45 9.5 -180.7 1.75 -183.35 -0.6 -184.2 -0.4 -186.8 0.5 -196.75 -4.3 -206.35 -7.45 -212.7 -8.25 -219.8 -8.45 -221.5 -7.5 -223.05 -4.4 -228.25 0.15 -232.6 L0.7 -232.5 8.55 -231.25 9.3 -227.5 M-77.85 -235.65 Q-70.65 -237.25 -63.05 -238.05 L-47.9 -237.0 Q-42.7 -236.3 -42.45 -231.1 -34.65 -232.6 -27.9 -229.45 -21.4 -226.4 -26.65 -221.35 -29.5 -218.6 -33.45 -217.45 -22.95 -198.6 -16.45 -177.85 -14.75 -172.4 -13.75 -167.0 2.1 -175.9 15.75 -187.3 14.65 -179.85 14.35 -173.5 14.1 -168.55 14.3 -164.25 L14.3 -163.85 14.8 -158.5 Q15.85 -150.75 18.8 -145.9 L21.95 -143.15 Q14.4 -136.8 8.7 -128.8 5.05 -123.85 2.2 -118.2 L0.4 -117.7 -4.65 -116.4 -5.05 -116.3 -6.25 -116.1 -5.05 -116.3 -6.25 -116.05 -6.25 -116.1 Q-3.9 -121.9 -1.05 -127.5 1.9 -133.3 5.35 -138.9 2.25 -147.0 0.35 -155.45 L-17.8 -144.2 Q-26.25 -138.85 -34.3 -137.4 L-29.75 -145.55 Q-26.45 -149.3 -27.8 -155.1 -28.3 -157.0 -29.25 -159.15 L-29.75 -160.15 Q-37.3 -156.55 -43.2 -154.45 -40.75 -156.35 -38.15 -160.75 -33.35 -169.0 -39.45 -184.65 -45.6 -200.3 -55.45 -206.35 -61.7 -210.15 -69.6 -209.05 L-83.75 -206.4 Q-88.65 -219.2 -86.9 -228.6 L-77.85 -235.65 M111.05 -40.3 L111.75 -38.3 Q112.5 -35.85 112.5 -33.3 112.55 -30.9 111.95 -28.4 102.5 -31.2 85.25 -23.35 67.95 -15.5 60.3 -6.75 52.6 2.05 45.5 7.25 L43.6 4.05 43.55 3.95 43.45 3.8 52.35 -5.85 68.55 -23.55 Q78.2 -27.15 89.65 -29.35 101.95 -31.8 111.05 -40.3 M-116.25 -44.5 L-115.2 -46.4 -115.1 -46.5 Q-106.5 -38.85 -97.05 -35.1 -89.55 -32.15 -81.55 -31.7 -76.6 -16.2 -74.35 -2.2 -79.05 -4.1 -84.15 -3.8 -92.4 -29.1 -116.55 -43.8 L-116.25 -44.5 M8.7 -128.8 L-1.05 -127.5 8.7 -128.8" fill="#e0bcaa" fill-rule="evenodd" stroke="none"/>
    <path d="M2.2 -118.2 Q-3.4 -107.35 -6.4 -94.2 -8.45 -85.25 -9.25 -75.2 -10.9 -66.3 -11.7 -56.3 -14.05 -27.95 -9.75 9.4 -5.6 45.3 -7.45 69.65 L-10.9 71.35 Q-16.15 70.45 -29.0 71.65 -47.8 73.4 -59.15 69.9 L-59.2 69.7 -59.55 67.5 -58.05 67.5 Q-38.7 67.1 -20.15 62.85 L-12.05 60.95 Q-15.15 13.9 -16.1 -33.55 -16.8 -69.3 -10.2 -103.5 -10.0 -104.7 -9.4 -105.9 -10.6 -110.7 -10.05 -115.4 L-6.25 -116.1 -6.25 -116.05 -5.05 -116.3 -4.65 -116.4 0.4 -117.7 2.2 -118.2 M-39.85 -112.85 Q-35.35 -110.8 -30.55 -109.2 -20.3 -105.8 -12.05 -101.8 -21.35 -98.55 -32.9 -104.15 -36.9 -106.05 -40.75 -108.1 L-39.85 -112.85 M-49.2 -71.65 L-48.45 -65.05 Q-43.5 -22.8 -32.15 10.7 L-25.5 29.95 -25.8 29.85 -27.3 29.35 Q-43.8 -8.0 -50.55 -48.15 -49.85 -58.55 -49.3 -69.3 L-49.2 -71.65 M-60.45 48.5 Q-52.6 50.6 -42.9 54.2 -33.25 57.75 -22.25 56.1 L-13.1 54.95 Q-33.8 65.2 -57.5 55.0 L-60.5 53.8 -60.45 48.5" fill="#070a0e" fill-rule="evenodd" stroke="none"/>
    <path d="M58.4 79.6 L58.7 91.0 Q59.15 115.35 58.45 146.55 57.55 185.25 63.05 232.6 68.45 279.9 65.3 315.65 63.85 330.6 59.25 331.1 60.55 322.15 54.65 316.95 47.85 311.0 31.6 310.05 21.75 310.75 15.6 313.2 11.9 314.65 9.55 316.7 3.3 322.2 1.65 329.0 L-0.75 326.8 -1.2 326.4 Q-3.8 323.65 -5.0 320.85 L-5.35 320.0 Q-0.65 316.55 5.9 310.65 12.45 304.7 39.1 301.9 49.1 301.15 56.35 303.85 60.85 262.15 54.4 220.05 52.7 208.9 53.1 197.5 55.0 143.7 50.15 91.3 21.25 91.55 -5.05 82.8 26.7 83.85 58.4 79.6 M-12.7 91.6 Q-16.25 123.85 -22.4 143.75 L-40.15 203.9 Q-35.75 292.05 -48.3 329.85 L-60.2 324.8 -73.8 318.65 -85.4 313.05 Q-94.55 308.5 -104.1 307.45 -113.8 306.35 -123.9 308.8 L-126.85 309.55 Q-127.45 308.5 -127.7 307.1 L-127.7 307.05 Q-128.3 303.25 -126.2 296.85 -91.85 295.6 -65.15 311.8 -44.15 288.25 -53.9 213.0 L-61.4 208.45 Q-57.15 206.25 -50.8 196.25 -21.35 139.7 -23.85 88.55 -18.65 90.55 -12.7 91.6 M-7.7 72.6 L-7.7 72.85 -8.1 76.1 -9.15 81.35 -17.5 78.1 -32.2 80.05 Q-45.25 81.0 -57.0 77.85 L-57.2 77.35 -57.4 76.8 Q-58.4 73.9 -59.1 70.25 L-59.1 70.1 -59.15 69.9 Q-47.8 73.4 -29.0 71.65 -16.15 70.45 -10.9 71.35 -8.5 71.75 -7.7 72.6" fill="#182538" fill-rule="evenodd" stroke="none"/>
    <path d="M-52.85 -194.3 Q-47.0 -195.1 -48.4 -190.65 -48.7 -189.6 -49.85 -189.45 -56.1 -188.8 -54.2 -193.35 -53.85 -194.3 -52.85 -194.3" fill="#fffce9" fill-rule="evenodd" stroke="none"/>
    <path d="M-85.55 31.55 L-88.35 28.75 Q-90.0 20.0 -80.25 12.25 L-79.25 11.5 -77.5 10.25 -77.25 10.05 -77.4 10.5 -80.95 20.35 -85.55 31.55 M25.35 15.65 Q27.6 30.8 44.45 39.15 44.55 42.2 38.35 44.0 L37.85 44.15 Q24.9 33.2 20.05 20.9 L25.35 15.65" fill="#121b25" fill-rule="evenodd" stroke="none"/>
    <path d="M9.3 -227.5 L8.55 -231.25 0.7 -232.5 M0.15 -232.6 L-67.3 -243.5 -77.85 -235.65 -86.9 -228.6 Q-88.65 -219.2 -83.75 -206.4 L-81.45 -200.45 Q-81.95 -194.2 -85.1 -189.45 -88.3 -184.75 -81.05 -179.1 -80.7 -175.05 -78.15 -169.9 -70.25 -154.7 -58.45 -151.95 L-55.6 -144.35 Q-82.2 -154.75 -90.6 -176.85 -90.85 -165.15 -87.7 -156.85 -105.95 -174.95 -109.1 -202.6 -118.3 -189.65 -135.65 -191.85 -117.85 -204.8 -114.4 -221.1 L-86.9 -228.6 M15.75 -187.3 L16.45 -192.15 9.3 -227.5 M14.8 -158.5 L14.3 -163.85 M14.3 -164.25 Q14.1 -168.55 14.35 -173.5 14.65 -179.85 15.75 -187.3 M30.95 -150.25 Q24.45 -156.65 14.8 -158.5 15.85 -150.75 18.8 -145.9 L21.95 -143.15 Q14.4 -136.8 8.7 -128.8 5.05 -123.85 2.2 -118.2 -3.4 -107.35 -6.4 -94.2 -8.45 -85.25 -9.25 -75.2 -7.35 -74.35 -1.55 -81.2 15.85 -103.35 42.1 -120.7 47.75 -124.1 52.95 -123.25 56.1 -122.8 59.1 -120.75 68.75 -113.7 77.6 -101.05 L83.45 -91.9 83.8 -91.35 86.45 -88.4 Q99.2 -74.2 118.65 -49.4 115.2 -44.2 111.05 -40.3 L111.75 -38.3 Q112.5 -35.85 112.5 -33.3 112.55 -30.9 111.95 -28.4 110.4 -22.0 104.75 -15.0 95.4 -5.9 77.65 7.55 64.95 17.25 60.15 23.75 L61.5 25.0 62.6 26.05 Q60.75 30.2 55.6 33.95 65.9 57.5 67.7 78.2 L63.65 78.85 58.4 79.6 58.7 91.0 Q59.15 115.35 58.45 146.55 57.55 185.25 63.05 232.6 68.45 279.9 65.3 315.65 63.85 330.6 59.25 331.1 L59.05 335.8 Q58.35 342.65 55.45 342.6 21.9 345.5 3.1 342.0 2.1 340.55 1.8 336.1 1.55 333.2 1.65 329.0 L-0.75 326.8 -1.2 326.4 Q-3.8 323.65 -5.0 320.85 L-5.35 320.0 Q-7.15 315.2 -5.2 310.1 -1.45 268.05 -2.7 207.35 -3.95 145.75 -9.75 92.05 L-12.7 91.6 Q-16.25 123.85 -22.4 143.75 L-40.15 203.9 Q-35.75 292.05 -48.3 329.85 L-60.2 324.8 Q-59.75 329.8 -60.0 333.3 -60.3 337.35 -61.5 339.35 -76.7 341.3 -104.5 340.2 L-150.7 339.35 Q-153.0 335.55 -152.6 331.75 -152.25 327.75 -148.85 323.75 -138.2 315.95 -123.9 308.8 L-126.85 309.55 Q-127.45 308.5 -127.7 307.1 L-127.7 307.05 Q-128.3 303.25 -126.2 296.85 L-123.8 290.55 Q-110.6 250.65 -105.85 205.95 L-100.45 172.1 Q-91.15 107.95 -81.85 77.45 -97.0 71.8 -98.65 56.95 -93.2 49.1 -86.65 34.1 L-85.55 31.55 -88.35 28.75 Q-92.95 27.85 -95.3 19.3 L-95.55 18.35 Q-97.85 16.6 -99.05 14.65 -100.45 12.45 -100.45 10.05 L-100.1 8.1 Q-110.65 -12.55 -116.9 -31.25 -118.7 -39.35 -116.25 -44.5 L-115.2 -46.4 -115.1 -46.5 Q-119.8 -50.65 -124.2 -55.95 -115.55 -62.6 -102.8 -83.25 -89.35 -117.0 -71.75 -125.3 L-70.45 -125.9 Q-69.85 -133.15 -60.9 -135.7 L-55.75 -136.7 -55.65 -136.75 -54.8 -137.8 -53.8 -138.9 Q-49.45 -143.35 -41.1 -148.2 L-40.4 -148.6 -28.65 -154.7 -27.8 -155.1 Q-28.3 -157.0 -29.25 -159.15 L-29.75 -160.15 Q-37.3 -156.55 -43.2 -154.45 L-47.35 -153.05 -47.45 -153.05 Q-52.2 -151.65 -55.55 -151.5 L-58.45 -151.95 M30.95 -150.25 L34.75 -145.75 Q46.65 -140.4 54.35 -131.75 60.3 -126.7 59.1 -120.75 M-5.05 -116.3 L-4.65 -116.4 0.4 -117.7 2.2 -118.2 M-11.7 -56.3 Q-14.05 -27.95 -9.75 9.4 -5.6 45.3 -7.45 69.65 L-7.7 72.6 -7.7 72.85 -8.1 76.1 -9.15 81.35 -9.45 82.6 -5.05 82.8 Q26.7 83.85 58.4 79.6 M-1.05 -127.5 L8.7 -128.8 M45.2 -53.8 L44.15 -55.15 43.5 -56.05 Q39.0 -62.0 35.65 -67.35 31.65 -73.75 29.25 -79.2 M42.25 1.1 L43.45 3.8 52.35 -5.85 52.35 -5.9 55.15 -37.4 Q52.0 -45.75 45.5 -53.4 M111.05 -40.3 Q101.95 -31.8 89.65 -29.35 78.2 -27.15 68.55 -23.55 L52.35 -5.85 M68.55 -23.55 Q63.0 -21.55 58.05 -19.05 58.45 -28.6 55.15 -37.4 M45.5 7.25 Q50.15 14.25 60.15 23.75 M45.5 7.25 L43.6 4.05 43.55 3.95 43.45 3.8 M50.45 39.4 Q53.9 37.7 55.6 33.95 M44.45 39.15 L47.2 40.45 50.45 39.4 M38.85 2.25 L36.4 3.75 35.95 4.15 35.85 4.2 Q34.65 5.25 33.7 6.6 L33.6 6.75 33.45 6.8 32.35 7.1 Q27.55 8.6 25.05 13.05 L25.35 15.65 Q27.6 30.8 44.45 39.15 44.55 42.2 38.35 44.0 L37.85 44.15 38.75 44.9 Q44.75 49.85 52.45 54.5 M39.75 1.9 L38.85 2.25 M39.75 1.9 Q40.7 1.5 41.75 1.25 M17.5 11.1 Q18.15 16.1 20.05 20.9 L25.35 15.65 M20.05 20.9 Q24.9 33.2 37.85 44.15 M15.6 313.2 Q21.75 310.75 31.6 310.05 47.85 311.0 54.65 316.95 60.55 322.15 59.25 331.1 M1.65 329.0 Q3.3 322.2 9.55 316.7 11.9 314.65 15.6 313.2 M11.5 336.05 L59.05 335.8 M1.8 336.1 L11.5 336.05 M-109.8 -214.0 Q-109.75 -208.15 -109.1 -202.6 M-1.05 -127.5 L-12.05 -126.05 -14.75 -122.8 M-37.3 -130.25 L-28.95 -127.2 -27.4 -123.2 M-34.3 -137.4 L-37.05 -132.55 -37.3 -130.25 -38.35 -121.85 Q-29.3 -112.5 -10.05 -115.4 L-6.25 -116.1 -5.05 -116.3 M-27.8 -155.1 Q-26.45 -149.3 -29.75 -145.55 L-34.3 -137.4 M-40.75 -108.1 Q-43.9 -92.7 -48.9 -79.5 L-49.55 -77.25 -49.6 -77.25 -50.25 -77.45 Q-52.75 -78.6 -53.95 -85.65 -57.6 -112.15 -70.45 -125.9 M-50.55 -48.15 Q-52.7 -18.55 -56.6 7.9 -60.15 31.7 -60.45 48.5 L-60.5 53.8 Q-60.4 61.5 -59.55 67.5 L-59.2 69.7 -59.15 69.9 Q-47.8 73.4 -29.0 71.65 -16.15 70.45 -10.9 71.35 -8.5 71.75 -7.7 72.6 M-38.35 -121.85 L-39.85 -112.85 -40.75 -108.1 M-97.05 -35.1 Q-89.55 -32.15 -81.55 -31.7 -75.2 -31.35 -68.55 -32.6 -66.9 -51.4 -64.05 -69.8 L-67.9 -95.15 -68.6 -99.85 M-97.05 -35.1 Q-106.5 -38.85 -115.1 -46.5 M-84.15 -3.8 Q-79.05 -4.1 -74.35 -2.2 -76.6 -16.2 -81.55 -31.7 M-84.2 -3.8 Q-87.15 -3.65 -90.2 -2.75 -98.25 -0.45 -100.1 8.1 M-9.25 -75.2 Q-10.9 -66.3 -11.7 -56.3 M-49.3 -69.3 Q-49.85 -58.55 -50.55 -48.15 M-64.05 -69.8 L-62.55 -80.15 M-73.75 -1.95 Q-69.9 -16.95 -68.55 -32.6 M-73.75 -1.95 L-74.35 -2.2 M-80.25 12.25 Q-90.0 20.0 -88.35 28.75 M-85.55 31.55 L-80.95 20.35 -77.4 10.5 -77.25 10.05 -77.5 10.25 -79.25 11.5 -80.25 12.25 M-59.15 69.9 L-59.1 70.1 -59.1 70.25 Q-58.4 73.9 -57.4 76.8 L-57.2 77.35 -55.65 80.85 Q-71.75 81.2 -81.85 77.45 M-23.85 88.55 Q-27.0 87.3 -29.9 85.75 M-7.1 92.35 L-9.75 92.05 M-12.7 91.6 Q-18.65 90.55 -23.85 88.55 M-104.1 307.45 Q-113.8 306.35 -123.9 308.8 M-60.2 324.8 L-73.8 318.65 -85.4 313.05 Q-94.55 308.5 -104.1 307.45 M-152.6 331.75 Q-121.9 333.3 -87.45 333.45 L-62.0 333.35 -60.0 333.3 M-77.25 10.05 Q-75.3 4.1 -73.75 -1.95" fill="none" stroke="#1a5283" stroke-linecap="round" stroke-linejoin="round" stroke-width="2.0"/>
  </g>
</svg>
