<?xml version="1.0" encoding="UTF-8" standalone="no"?>
<svg xmlns:xlink="http://www.w3.org/1999/xlink" height="215.05px" width="242.15px" xmlns="http://www.w3.org/2000/svg">
  <g transform="matrix(1.0, 0.0, 0.0, 1.0, 155.35, 360.3)">
    <path d="M27.5 -285.6 Q22.55 -289.55 18.15 -294.05 L17.25 -294.85 15.75 -296.6 15.45 -296.95 14.7 -297.8 14.8 -297.7 Q23.3 -290.2 32.7 -285.85 L27.5 -285.6 M51.1 -280.65 L51.55 -280.6 52.05 -279.9 51.1 -280.65 M36.35 -294.1 L34.25 -295.6 36.1 -294.35 36.35 -294.1 M-97.25 -305.5 L-98.65 -304.25 -99.2 -303.85 -99.65 -303.6 -98.75 -304.3 -97.25 -305.5 M57.35 -271.45 L57.4 -271.45 57.45 -271.3 57.55 -271.05 57.5 -271.1 57.45 -271.3 57.35 -271.45 57.45 -271.3 57.5 -271.1 56.7 -271.6 57.35 -271.45 M26.8 -154.25 L27.05 -153.85 26.6 -153.6 26.8 -154.25 M14.8 -297.7 L15.45 -296.95 18.15 -294.05 15.45 -296.95 14.8 -297.7 M31.35 -213.55 L30.85 -214.15 31.2 -214.0 31.35 -213.55 M-99.65 -303.6 L-99.2 -303.85 -100.1 -303.05 -101.25 -302.25 -99.65 -303.6 M-98.75 -304.3 L-99.2 -303.85 -98.75 -304.3 M-127.1 -270.85 L-126.65 -271.7 -126.6 -271.7 -127.1 -270.85" fill="#cccccc" fill-rule="evenodd" stroke="none"/>
    <path d="M32.7 -285.85 Q23.3 -290.2 14.8 -297.7 L14.7 -297.8 15.45 -296.95 15.75 -296.6 17.25 -294.85 18.15 -294.05 Q22.55 -289.55 27.5 -285.6 L29.0 -284.4 Q36.9 -278.35 46.2 -273.7 40.8 -274.6 35.6 -276.05 25.75 -278.9 16.55 -283.9 L15.9 -283.85 14.5 -285.05 13.95 -285.35 14.45 -285.05 Q7.5 -290.9 -0.45 -295.75 L-0.5 -295.7 Q-5.85 -292.6 -3.25 -285.7 L-3.25 -285.65 -2.95 -284.95 Q-0.25 -278.8 3.25 -279.95 9.7 -275.45 18.5 -272.95 L4.5 -273.75 Q-7.7 -275.6 -17.15 -281.3 L-19.05 -281.1 Q-20.05 -282.7 -42.85 -292.05 L-48.15 -294.2 -48.2 -293.05 -48.1 -292.25 -48.05 -291.6 -48.3 -292.3 -49.05 -294.55 -49.15 -294.85 -49.05 -294.55 -48.3 -292.3 -48.05 -291.6 Q-46.95 -282.9 -41.5 -275.65 L-41.05 -275.2 Q-36.35 -266.0 -30.65 -259.05 L-28.2 -256.25 Q-31.2 -257.05 -34.25 -258.45 -37.7 -260.15 -41.2 -262.65 -48.4 -267.8 -55.65 -276.65 L-58.25 -276.1 -59.05 -278.65 -70.2 -280.95 -73.75 -281.75 Q-77.55 -288.75 -78.45 -291.45 -80.15 -290.6 -80.55 -288.45 L-81.75 -283.15 -83.25 -283.4 -91.1 -284.2 Q-91.3 -286.6 -90.25 -292.1 -89.2 -297.7 -89.5 -301.45 -98.35 -297.15 -104.6 -287.15 -110.85 -277.2 -112.9 -264.0 L-113.05 -264.75 Q-113.9 -269.2 -113.8 -273.35 -113.65 -282.55 -109.3 -290.7 -105.55 -297.85 -98.65 -304.25 -105.55 -297.85 -109.3 -290.7 L-113.9 -285.45 Q-125.5 -273.6 -138.8 -273.0 -135.6 -276.85 -130.8 -281.1 -122.65 -288.45 -109.8 -297.0 -105.5 -299.4 -101.25 -302.25 L-100.1 -303.05 -99.2 -303.85 -98.65 -304.25 -97.25 -305.5 -95.3 -307.05 -93.35 -308.3 Q-62.85 -328.05 -25.75 -326.8 -4.1 -327.45 12.7 -321.95 24.65 -318.4 43.1 -307.15 61.5 -295.95 75.1 -300.2 L72.3 -296.9 Q60.75 -285.1 42.15 -290.85 L40.6 -291.35 Q44.3 -289.05 48.2 -287.15 57.05 -282.8 66.7 -280.45 L57.55 -280.15 51.55 -280.6 57.55 -280.15 58.3 -279.65 58.6 -279.4 Q68.2 -274.4 76.85 -274.7 74.55 -273.15 72.3 -272.2 67.95 -270.45 63.85 -271.15 59.05 -272.0 54.65 -276.15 L52.05 -279.9 51.55 -280.6 51.1 -280.65 Q41.5 -281.85 32.7 -285.85 M36.35 -294.1 L40.6 -291.35 36.35 -294.1 36.1 -294.35 34.25 -295.6 36.35 -294.1 M32.35 -297.0 L34.25 -295.6 32.35 -297.0 M12.3 -317.8 Q9.85 -315.85 13.7 -312.0 17.5 -308.2 20.3 -308.95 23.05 -309.7 22.65 -310.5 20.0 -316.55 12.3 -317.8 M-65.7 -290.5 Q-60.65 -282.7 -55.65 -276.65 -60.65 -282.7 -65.7 -290.5 M58.6 -261.2 Q69.35 -247.45 83.05 -245.6 81.5 -243.05 79.75 -241.0 72.35 -232.4 60.7 -231.8 L59.8 -231.8 Q73.3 -225.6 85.8 -226.85 68.2 -215.05 38.85 -232.75 L38.9 -217.8 40.75 -216.1 Q35.35 -217.05 30.5 -218.7 20.6 -222.1 13.05 -228.35 13.85 -221.9 5.65 -222.8 L4.3 -225.0 2.65 -227.0 Q0.1 -227.2 -1.6 -225.7 -5.05 -232.75 -10.0 -239.85 -3.45 -197.65 -14.55 -146.55 -14.4 -151.55 -14.7 -156.95 -15.65 -174.85 -21.4 -197.3 -21.65 -192.8 -22.55 -188.7 -24.35 -180.8 -28.65 -174.55 L-29.05 -181.1 Q-30.15 -193.0 -33.6 -205.15 L-36.7 -206.15 -38.1 -206.85 -39.65 -207.7 -41.25 -208.6 Q-50.5 -213.9 -63.85 -223.95 -60.35 -224.65 -55.75 -230.3 -51.2 -235.95 -46.6 -244.35 -42.0 -252.75 -30.65 -254.2 L2.65 -258.6 Q24.6 -261.55 58.6 -261.2 M-76.0 -212.1 Q-72.15 -197.55 -67.45 -185.3 -72.95 -188.9 -77.15 -193.65 -82.5 -199.65 -85.85 -207.5 -80.9 -209.75 -76.0 -212.1 M-86.5 -207.2 Q-83.9 -194.95 -80.15 -184.65 L-76.7 -176.05 Q-85.3 -183.15 -90.6 -191.0 -94.45 -196.65 -96.55 -202.7 -91.5 -204.9 -86.5 -207.2 M41.0 -259.85 L41.45 -258.15 Q51.3 -238.4 69.55 -235.6 L55.45 -234.85 Q36.4 -236.4 27.3 -253.35 L26.7 -254.65 27.3 -253.35 Q36.4 -236.4 55.45 -234.85 L69.55 -235.6 Q51.3 -238.4 41.45 -258.15 L41.0 -259.85 M14.45 -285.05 L16.55 -283.9 14.45 -285.05 M-8.95 -293.9 Q-6.6 -289.35 -3.25 -285.65 -6.6 -289.35 -8.95 -293.9 M20.05 -252.15 Q24.85 -231.25 38.9 -217.8 24.85 -231.25 20.05 -252.15 M-2.8 -249.85 Q3.1 -236.65 13.05 -228.35 3.1 -236.65 -2.8 -249.85 M-12.6 -312.75 L-16.25 -313.2 Q-16.85 -312.95 -16.2 -308.15 -15.55 -303.4 -11.2 -302.75 L-6.7 -302.9 Q-5.0 -311.5 -12.6 -312.75 M-46.65 -311.5 Q-53.05 -311.65 -53.5 -304.7 -53.55 -303.35 -52.8 -302.65 -46.6 -297.1 -44.2 -305.3 -42.45 -311.4 -46.65 -311.5 M-74.2 -313.1 Q-80.05 -312.2 -84.45 -308.6 -85.65 -307.65 -84.9 -306.45 -82.15 -302.3 -78.95 -304.4 -75.8 -306.5 -74.3 -310.25 -72.85 -314.05 -74.2 -313.1 M-105.65 -278.75 Q-109.35 -271.3 -106.45 -277.35 L-105.65 -278.75 M-110.7 -259.05 L-110.2 -254.75 -111.6 -258.85 -110.7 -259.05 M-31.35 -294.15 Q-25.3 -286.3 -17.15 -281.3 -25.3 -286.3 -31.35 -294.15 M-35.65 -279.15 L-34.95 -279.25 -36.35 -281.5 -33.15 -279.45 -35.65 -279.15 M-21.35 -254.2 Q-14.95 -247.0 -10.0 -239.85 -14.95 -247.0 -21.35 -254.2 M-33.6 -205.15 Q-38.15 -221.1 -46.75 -237.5 -38.15 -221.1 -33.6 -205.15 M-21.65 -206.6 Q-21.2 -201.75 -21.4 -197.3 -21.2 -201.75 -21.65 -206.6" fill="#132a4c" fill-rule="evenodd" stroke="none"/>
    <path d="M-113.05 -264.75 L-112.9 -264.0 -111.6 -258.85 -110.2 -254.75 -110.7 -259.05 Q-111.2 -268.35 -106.45 -277.35 -109.35 -271.3 -105.65 -278.75 L-96.0 -279.1 Q-87.95 -279.3 -67.75 -275.35 L-57.5 -273.2 -57.2 -271.95 -57.5 -273.2 Q-50.9 -271.65 -57.2 -271.95 -55.0 -261.95 -56.45 -253.15 -80.85 -248.2 -114.2 -253.6 -114.15 -259.0 -113.05 -264.75 M-115.2 -217.65 L-122.9 -218.6 -127.35 -220.1 Q-142.55 -224.95 -154.25 -225.05 -145.3 -233.6 -117.3 -251.55 -97.85 -246.0 -67.8 -248.35 -85.2 -224.5 -100.8 -220.85 -113.6 -217.9 -115.8 -217.7 L-115.2 -217.65" fill="#4c97d9" fill-rule="evenodd" stroke="none"/>
    <path d="M-91.1 -284.2 L-83.25 -283.4 -81.75 -283.15 -81.6 -283.15 -73.75 -281.75 -70.2 -280.95 -59.05 -278.65 -58.25 -276.1 -57.5 -273.2 -67.75 -275.35 Q-87.95 -279.3 -96.0 -279.1 L-105.65 -278.75 Q-103.95 -281.75 -101.7 -284.65 L-94.55 -284.45 -91.1 -284.2" fill="#79c7ff" fill-rule="evenodd" stroke="none"/>
    <path d="M32.7 -285.85 Q41.5 -281.85 51.1 -280.65 L52.05 -279.9 54.65 -276.15 57.35 -271.45 56.7 -271.6 57.5 -271.1 57.7 -270.1 Q58.3 -266.95 58.2 -263.8 L56.7 -263.8 35.65 -263.8 Q-1.15 -263.85 -30.65 -259.05 -36.35 -266.0 -41.05 -275.2 L-42.5 -278.1 -42.65 -278.35 -35.65 -279.15 -33.15 -279.45 -19.05 -281.1 -17.15 -281.3 Q-7.7 -275.6 4.5 -273.75 L18.5 -272.95 Q9.7 -275.45 3.25 -279.95 L-0.25 -282.75 15.9 -283.85 16.55 -283.9 Q25.75 -278.9 35.6 -276.05 40.8 -274.6 46.2 -273.7 36.9 -278.35 29.0 -284.4 L27.5 -285.6 32.7 -285.85 M-58.25 -276.1 L-55.65 -276.65 Q-48.4 -267.8 -41.2 -262.65 -37.7 -260.15 -34.25 -258.45 L-40.8 -257.25 -41.8 -257.05 -44.65 -256.45 -49.15 -255.45 -53.7 -254.35 -56.45 -253.15 -56.8 -252.45 -58.85 -248.75 Q-64.9 -238.6 -73.4 -231.7 L-73.65 -231.45 Q-76.5 -229.2 -79.65 -227.25 L-80.85 -226.55 Q-84.05 -224.7 -87.5 -223.2 -93.45 -220.6 -99.3 -219.2 L-101.8 -218.65 -105.95 -218.0 -106.0 -218.0 -106.65 -217.9 -107.9 -217.8 -108.05 -217.75 -115.2 -217.65 -115.8 -217.7 Q-113.6 -217.9 -100.8 -220.85 -85.2 -224.5 -67.8 -248.35 -97.85 -246.0 -117.3 -251.55 L-116.55 -252.05 -114.2 -253.6 Q-80.85 -248.2 -56.45 -253.15 -55.0 -261.95 -57.2 -271.95 -50.9 -271.65 -57.5 -273.2 L-58.25 -276.1 M-127.35 -220.1 Q-155.85 -214.65 -154.25 -225.05 -142.55 -224.95 -127.35 -220.1" fill="#3572b4" fill-rule="evenodd" stroke="none"/>
    <path d="M-112.9 -264.0 Q-110.85 -277.2 -104.6 -287.15 -98.35 -297.15 -89.5 -301.45 -89.2 -297.7 -90.25 -292.1 -91.3 -286.6 -91.1 -284.2 L-94.55 -284.45 -101.7 -284.65 Q-103.95 -281.75 -105.65 -278.75 L-106.45 -277.35 Q-111.2 -268.35 -110.7 -259.05 L-111.6 -258.85 -112.9 -264.0 M-81.75 -283.15 L-80.55 -288.45 Q-80.15 -290.6 -78.45 -291.45 -77.55 -288.75 -73.75 -281.75 L-81.6 -283.15 -81.75 -283.15 M56.7 -263.8 L56.85 -263.6 57.15 -263.2 57.9 -262.2 58.65 -261.2 58.6 -261.2 57.9 -262.2 58.6 -261.2 Q24.6 -261.55 2.65 -258.6 L-30.65 -254.2 Q-42.0 -252.75 -46.6 -244.35 -51.2 -235.95 -55.75 -230.3 -60.35 -224.65 -63.85 -223.95 L-68.25 -227.3 -73.3 -231.25 -73.05 -231.0 -73.65 -231.45 -73.4 -231.7 Q-64.9 -238.6 -58.85 -248.75 L-56.8 -252.45 -56.45 -253.15 -53.7 -254.35 -49.15 -255.45 -44.65 -256.45 -41.8 -257.05 -40.8 -257.25 -34.25 -258.45 Q-31.2 -257.05 -28.2 -256.25 L-30.65 -259.05 Q-1.15 -263.85 35.65 -263.8 L56.7 -263.8 M85.8 -226.85 L83.4 -222.9 Q74.45 -209.5 61.25 -203.4 L56.2 -201.4 Q58.75 -191.2 57.85 -182.5 56.9 -173.8 62.75 -164.05 57.4 -165.9 53.6 -168.25 48.15 -171.65 45.9 -176.05 L45.35 -174.35 Q41.2 -162.0 32.45 -153.55 33.0 -155.45 32.8 -158.55 32.4 -164.1 29.65 -173.45 L28.65 -171.65 Q23.05 -161.15 26.8 -154.25 L26.6 -153.6 27.05 -153.85 Q28.0 -152.2 29.55 -150.75 23.8 -151.75 21.35 -153.85 19.45 -155.5 19.55 -157.8 19.1 -154.2 18.0 -150.8 17.25 -148.5 16.15 -146.25 15.6 -149.75 14.1 -153.6 11.45 -160.3 6.0 -168.15 L5.4 -165.05 Q4.5 -160.7 3.2 -156.5 3.7 -161.55 2.0 -171.1 L2.0 -171.15 Q0.65 -178.6 -1.95 -188.75 -1.95 -179.4 -3.6 -171.2 -6.5 -157.1 -14.55 -146.55 -3.45 -197.65 -10.0 -239.85 -5.05 -232.75 -1.6 -225.7 0.0 -222.35 1.3 -219.0 3.9 -212.3 5.1 -205.65 6.6 -208.95 7.15 -211.95 8.2 -217.85 5.65 -222.8 13.85 -221.9 13.05 -228.35 20.6 -222.1 30.5 -218.7 35.35 -217.05 40.75 -216.1 L38.9 -217.8 38.85 -232.75 Q68.2 -215.05 85.8 -226.85 M-79.65 -227.25 Q-77.85 -221.2 -76.9 -215.6 L-76.8 -215.1 -76.0 -212.1 Q-80.9 -209.75 -85.85 -207.5 L-87.2 -211.05 -87.3 -211.3 -87.4 -211.6 -86.5 -207.2 Q-91.5 -204.9 -96.55 -202.7 -99.35 -210.6 -99.3 -219.2 -93.45 -220.6 -87.5 -223.2 -84.05 -224.7 -80.85 -226.55 L-79.65 -227.25 M14.45 -285.05 L13.95 -285.35 14.5 -285.05 15.9 -283.85 -0.25 -282.75 -3.25 -285.65 -0.25 -282.75 3.25 -279.95 Q-0.25 -278.8 -2.95 -284.95 L-3.25 -285.65 -3.25 -285.7 Q-5.85 -292.6 -0.5 -295.7 L-0.45 -295.75 Q7.5 -290.9 14.45 -285.05 M2.45 -293.1 L3.05 -292.65 6.25 -290.3 13.95 -285.35 6.25 -290.3 3.05 -292.65 2.45 -293.1 M42.1 -227.7 Q54.55 -209.15 54.05 -190.55 52.25 -195.0 48.45 -199.45 42.45 -206.5 31.35 -213.55 42.45 -206.5 48.45 -199.45 52.25 -195.0 54.05 -190.55 54.55 -209.15 42.1 -227.7 M5.1 -205.65 L5.65 -202.05 Q8.55 -183.85 6.0 -168.15 8.55 -183.85 5.65 -202.05 L5.1 -205.65 M31.35 -213.55 L31.2 -214.0 30.85 -214.15 31.35 -213.55 M28.65 -171.65 L28.65 -172.6 Q31.05 -176.85 34.25 -181.2 31.05 -176.85 28.65 -172.6 L28.65 -171.65 M35.45 -181.8 Q31.95 -177.4 29.65 -173.45 31.95 -177.4 35.45 -181.8 M48.7 -190.55 Q47.95 -182.75 45.9 -176.05 47.95 -182.75 48.7 -190.55 M17.5 -176.05 Q20.45 -166.3 19.55 -157.8 20.45 -166.3 17.5 -176.05 M-101.7 -284.65 Q-98.55 -288.75 -94.35 -292.75 -98.55 -288.75 -101.7 -284.65 M-88.65 -218.6 L-87.4 -211.6 -88.65 -218.6 M-33.15 -279.45 L-36.35 -281.5 -34.95 -279.25 -35.65 -279.15 -42.65 -278.35 -42.5 -278.1 -41.05 -275.2 -41.5 -275.65 Q-46.95 -282.9 -48.05 -291.6 L-48.1 -292.25 -48.2 -293.05 -48.15 -294.2 -42.85 -292.05 Q-20.05 -282.7 -19.05 -281.1 L-33.15 -279.45 M-42.65 -278.35 Q-45.55 -284.55 -48.05 -291.6 -45.55 -284.55 -42.65 -278.35 M-2.05 -192.3 L-1.95 -188.75 -2.05 -192.3" fill="#091425" fill-rule="evenodd" stroke="none"/>
    <path d="M1.3 -219.0 L2.1 -220.3 3.6 -223.15 4.3 -225.0 5.65 -222.8 Q8.2 -217.85 7.15 -211.95 6.6 -208.95 5.1 -205.65 3.9 -212.3 1.3 -219.0" fill="#ffe8d7" fill-rule="evenodd" stroke="none"/>
    <path d="M4.3 -225.0 L3.6 -223.15 2.1 -220.3 1.3 -219.0 Q0.0 -222.35 -1.6 -225.7 0.1 -227.2 2.65 -227.0 L4.3 -225.0" fill="#e0bcaa" fill-rule="evenodd" stroke="none"/>
    <path d="M12.3 -317.8 Q20.0 -316.55 22.65 -310.5 23.05 -309.7 20.3 -308.95 17.5 -308.2 13.7 -312.0 9.85 -315.85 12.3 -317.8 M-74.2 -313.1 Q-72.85 -314.05 -74.3 -310.25 -75.8 -306.5 -78.95 -304.4 -82.15 -302.3 -84.9 -306.45 -85.65 -307.65 -84.45 -308.6 -80.05 -312.2 -74.2 -313.1 M-46.65 -311.5 Q-42.45 -311.4 -44.2 -305.3 -46.6 -297.1 -52.8 -302.65 -53.55 -303.35 -53.5 -304.7 -53.05 -311.65 -46.65 -311.5 M-12.6 -312.75 Q-5.0 -311.5 -6.7 -302.9 L-11.2 -302.75 Q-15.55 -303.4 -16.2 -308.15 -16.85 -312.95 -16.25 -313.2 L-12.6 -312.75" fill="#245091" fill-rule="evenodd" stroke="none"/>
    <path d="M27.5 -285.6 Q22.55 -289.55 18.15 -294.05 L17.25 -294.85 15.75 -296.6 15.45 -296.95 14.7 -297.8 14.8 -297.7 Q23.3 -290.2 32.7 -285.85 41.5 -281.85 51.1 -280.65 L51.55 -280.6 57.55 -280.15 66.7 -280.45 Q57.05 -282.8 48.2 -287.15 44.3 -289.05 40.6 -291.35 L36.35 -294.1 34.25 -295.6 32.35 -297.0 M40.6 -291.35 L42.15 -290.85 Q60.75 -285.1 72.3 -296.9 L75.1 -300.2 Q61.5 -295.95 43.1 -307.15 24.65 -318.4 12.7 -321.95 -4.1 -327.45 -25.75 -326.8 -62.85 -328.05 -93.35 -308.3 L-95.3 -307.05 -97.25 -305.5 -98.65 -304.25 Q-105.55 -297.85 -109.3 -290.7 -113.65 -282.55 -113.8 -273.35 -113.9 -269.2 -113.05 -264.75 L-112.9 -264.0 -111.6 -258.85 -110.2 -254.75 -110.7 -259.05 Q-111.2 -268.35 -106.45 -277.35 L-105.65 -278.75 Q-103.95 -281.75 -101.7 -284.65 L-94.55 -284.45 -91.1 -284.2 -83.25 -283.4 -81.75 -283.15 -81.6 -283.15 -73.75 -281.75 -70.2 -280.95 -59.05 -278.65 -58.25 -276.1 -55.65 -276.65 Q-60.65 -282.7 -65.7 -290.5 M57.55 -280.15 L58.3 -279.65 58.6 -279.4 Q68.2 -274.4 76.85 -274.7 74.55 -273.15 72.3 -272.2 67.95 -270.45 63.85 -271.15 59.05 -272.0 54.65 -276.15 L57.35 -271.45 57.4 -271.45 57.45 -271.3 57.55 -271.05 57.5 -271.1 57.7 -270.1 Q58.3 -266.95 58.2 -263.8 L56.7 -263.8 56.85 -263.6 57.15 -263.2 57.9 -262.2 58.6 -261.2 Q69.35 -247.45 83.05 -245.6 81.5 -243.05 79.75 -241.0 72.35 -232.4 60.7 -231.8 L59.8 -231.8 Q73.3 -225.6 85.8 -226.85 L83.4 -222.9 Q74.45 -209.5 61.25 -203.4 L56.2 -201.4 Q58.75 -191.2 57.85 -182.5 56.9 -173.8 62.75 -164.05 57.4 -165.9 53.6 -168.25 48.15 -171.65 45.9 -176.05 L45.35 -174.35 Q41.2 -162.0 32.45 -153.55 33.0 -155.45 32.8 -158.55 32.4 -164.1 29.65 -173.45 L28.65 -171.65 Q23.05 -161.15 26.8 -154.25 L27.05 -153.85 Q28.0 -152.2 29.55 -150.75 23.8 -151.75 21.35 -153.85 19.45 -155.5 19.55 -157.8 19.1 -154.2 18.0 -150.8 17.25 -148.5 16.15 -146.25 15.6 -149.75 14.1 -153.6 11.45 -160.3 6.0 -168.15 L5.4 -165.05 Q4.5 -160.7 3.2 -156.5 3.7 -161.55 2.0 -171.1 L2.0 -171.15 Q0.65 -178.6 -1.95 -188.75 -1.95 -179.4 -3.6 -171.2 -6.5 -157.1 -14.55 -146.55 -14.4 -151.55 -14.7 -156.95 -15.65 -174.85 -21.4 -197.3 -21.65 -192.8 -22.55 -188.7 -24.35 -180.8 -28.65 -174.55 L-29.05 -181.1 Q-30.15 -193.0 -33.6 -205.15 L-36.7 -206.15 -38.1 -206.85 -39.65 -207.7 -41.25 -208.6 Q-50.5 -213.9 -63.85 -223.95 L-68.25 -227.3 -73.3 -231.25 -73.05 -231.0 -73.65 -231.45 Q-76.5 -229.2 -79.65 -227.25 -77.85 -221.2 -76.9 -215.6 L-76.8 -215.1 -76.0 -212.1 Q-72.15 -197.55 -67.45 -185.3 -72.95 -188.9 -77.15 -193.65 -82.5 -199.65 -85.85 -207.5 L-87.2 -211.05 -87.3 -211.3 -87.4 -211.6 -86.5 -207.2 Q-83.9 -194.95 -80.15 -184.65 L-76.7 -176.05 Q-85.3 -183.15 -90.6 -191.0 -94.45 -196.65 -96.55 -202.7 -99.35 -210.6 -99.3 -219.2 L-101.8 -218.65 -105.95 -218.0 -106.0 -218.0 -106.65 -217.9 -107.9 -217.8 -108.05 -217.75 -115.2 -217.65 -122.9 -218.6 -127.35 -220.1 Q-155.85 -214.65 -154.25 -225.05 -145.3 -233.6 -117.3 -251.55 L-116.55 -252.05 -114.2 -253.6 Q-114.15 -259.0 -113.05 -264.75 M52.05 -279.9 L51.55 -280.6 M51.1 -280.65 L52.05 -279.9 54.65 -276.15 M57.35 -271.45 L57.45 -271.3 57.5 -271.1 56.7 -271.6 57.35 -271.45 M26.7 -254.65 L27.3 -253.35 Q36.4 -236.4 55.45 -234.85 L69.55 -235.6 Q51.3 -238.4 41.45 -258.15 L41.0 -259.85 M34.25 -295.6 L36.1 -294.35 36.35 -294.1 M16.55 -283.9 Q25.75 -278.9 35.6 -276.05 40.8 -274.6 46.2 -273.7 36.9 -278.35 29.0 -284.4 L27.5 -285.6 32.7 -285.85 M13.95 -285.35 L14.45 -285.05 16.55 -283.9 15.9 -283.85 -0.25 -282.75 -3.25 -285.65 Q-6.6 -289.35 -8.95 -293.9 M13.95 -285.35 L6.25 -290.3 3.05 -292.65 2.45 -293.1 M18.15 -294.05 L15.45 -296.95 14.8 -297.7 M-17.15 -281.3 Q-7.7 -275.6 4.5 -273.75 L18.5 -272.95 Q9.7 -275.45 3.25 -279.95 L-0.25 -282.75 M1.3 -219.0 Q3.9 -212.3 5.1 -205.65 6.6 -208.95 7.15 -211.95 8.2 -217.85 5.65 -222.8 L4.3 -225.0 2.65 -227.0 Q0.1 -227.2 -1.6 -225.7 0.0 -222.35 1.3 -219.0 M6.0 -168.15 Q8.55 -183.85 5.65 -202.05 L5.1 -205.65 M31.35 -213.55 Q42.45 -206.5 48.45 -199.45 52.25 -195.0 54.05 -190.55 54.55 -209.15 42.1 -227.7 M31.35 -213.55 L31.2 -214.0 30.85 -214.15 31.35 -213.55 M13.05 -228.35 Q20.6 -222.1 30.5 -218.7 35.35 -217.05 40.75 -216.1 L38.9 -217.8 Q24.85 -231.25 20.05 -252.15 M13.05 -228.35 Q3.1 -236.65 -2.8 -249.85 M56.7 -263.8 L35.65 -263.8 Q-1.15 -263.85 -30.65 -259.05 L-28.2 -256.25 Q-31.2 -257.05 -34.25 -258.45 L-40.8 -257.25 -41.8 -257.05 -44.65 -256.45 -49.15 -255.45 -53.7 -254.35 -56.45 -253.15 -56.8 -252.45 -58.85 -248.75 Q-64.9 -238.6 -73.4 -231.7 L-73.65 -231.45 M45.9 -176.05 Q47.95 -182.75 48.7 -190.55 M29.65 -173.45 Q31.95 -177.4 35.45 -181.8 M34.25 -181.2 Q31.05 -176.85 28.65 -172.6 L28.65 -171.65 M26.8 -154.25 L26.6 -153.6 27.05 -153.85 M19.55 -157.8 Q20.45 -166.3 17.5 -176.05 M-99.65 -303.6 L-98.75 -304.3 -97.25 -305.5 M-99.2 -303.85 L-99.65 -303.6 -101.25 -302.25 -100.1 -303.05 -99.2 -303.85 -98.75 -304.3 M-98.65 -304.25 L-99.2 -303.85 M-101.25 -302.25 Q-105.5 -299.4 -109.8 -297.0 -122.65 -288.45 -130.8 -281.1 -135.6 -276.85 -138.8 -273.0 -125.5 -273.6 -113.9 -285.45 L-109.3 -290.7 M-99.65 -303.6 L-109.8 -297.0 M-57.5 -273.2 L-58.25 -276.1 M-94.35 -292.75 Q-98.55 -288.75 -101.7 -284.65 M-127.35 -220.1 Q-142.55 -224.95 -154.25 -225.05 M-87.4 -211.6 L-88.65 -218.6 M-79.65 -227.25 L-80.85 -226.55 Q-84.05 -224.7 -87.5 -223.2 -93.45 -220.6 -99.3 -219.2 M-19.05 -281.1 L-17.15 -281.3 Q-25.3 -286.3 -31.35 -294.15 M-33.15 -279.45 L-19.05 -281.1 M-48.05 -291.6 Q-45.55 -284.55 -42.65 -278.35 L-35.65 -279.15 -33.15 -279.45 M-48.05 -291.6 L-48.3 -292.3 -49.05 -294.55 -49.15 -294.85 M-41.05 -275.2 L-42.5 -278.1 -42.65 -278.35 M-114.2 -253.6 Q-80.85 -248.2 -56.45 -253.15 -55.0 -261.95 -57.2 -271.95 L-57.5 -273.2 M-55.65 -276.65 Q-48.4 -267.8 -41.2 -262.65 -37.7 -260.15 -34.25 -258.45 M-1.6 -225.7 Q-5.05 -232.75 -10.0 -239.85 -14.95 -247.0 -21.35 -254.2 M-46.75 -237.5 Q-38.15 -221.1 -33.6 -205.15 M-30.65 -259.05 Q-36.35 -266.0 -41.05 -275.2 M-1.95 -188.75 L-2.05 -192.3 M-21.4 -197.3 Q-21.2 -201.75 -21.65 -206.6" fill="none" stroke="#1a5283" stroke-linecap="round" stroke-linejoin="round" stroke-width="2.0"/>
    <path d="M-26.55 -323.25 L-31.55 -324.8 Q-52.75 -350.15 -23.25 -359.3 -34.45 -339.1 -29.2 -326.05 -28.9 -354.6 5.25 -342.9 -18.25 -341.45 -26.55 -323.25" fill="#132a4c" fill-rule="evenodd" stroke="none"/>
    <path d="M-31.55 -324.8 Q-52.75 -350.15 -23.25 -359.3 -34.45 -339.1 -29.2 -326.05 -28.9 -354.6 5.25 -342.9 -18.25 -341.45 -26.55 -323.25" fill="none" stroke="#1a5283" stroke-linecap="round" stroke-linejoin="round" stroke-width="2.0"/>
  </g>
</svg>
