<?xml version="1.0" encoding="UTF-8" standalone="no"?>
<svg xmlns:xlink="http://www.w3.org/1999/xlink" height="589.4px" width="276.4px" xmlns="http://www.w3.org/2000/svg">
  <g transform="matrix(1.0, 0.0, 0.0, 1.0, 153.65, 244.5)">
    <path d="M61.2 -119.05 Q68.75 -113.7 77.6 -101.05 L80.1 -97.3 79.3 -98.5 Q70.0 -111.9 61.2 -119.05 M84.4 -90.7 L86.45 -88.4 99.85 -73.5 Q94.55 -78.45 88.05 -86.25 L84.4 -90.7 M-49.55 -76.3 L-49.6 -77.25 -49.55 -77.25 -49.55 -76.3 M-67.0 -47.95 L-68.35 -34.8 -69.05 -34.7 -67.0 -47.95" fill="#cccccc" fill-rule="evenodd" stroke="none"/>
    <path d="M-55.55 -151.5 L-50.8 -145.9 -56.65 -147.2 Q-73.15 -152.2 -87.25 -171.35 -85.8 -168.5 -84.5 -165.45 -82.3 -160.25 -80.5 -154.75 -85.6 -159.6 -89.8 -164.75 -106.95 -185.75 -109.75 -212.2 -109.65 -207.3 -108.25 -202.5 -115.65 -190.9 -129.45 -183.55 -126.3 -187.45 -123.7 -192.35 -117.6 -203.85 -114.4 -221.1 L-91.25 -225.75 -83.75 -231.3 Q-84.85 -228.0 -85.25 -224.4 L-85.3 -223.85 -85.3 -223.6 Q-85.75 -219.5 -85.3 -215.0 -84.9 -210.85 -83.75 -206.4 L-81.45 -200.45 Q-81.95 -194.2 -85.1 -189.45 -88.3 -184.75 -81.05 -179.1 -80.7 -175.05 -78.15 -169.9 -70.25 -154.7 -58.45 -151.95 L-55.55 -151.5 M-109.75 -212.2 L-109.75 -212.5 -109.8 -214.0 -109.75 -212.5 -109.75 -212.2 M-90.75 -177.95 L-87.25 -171.35 -90.75 -177.95" fill="#091425" fill-rule="evenodd" stroke="none"/>
    <path d="M14.8 -158.5 Q19.3 -157.35 22.75 -156.0 L21.2 -154.65 Q18.2 -151.85 17.35 -148.8 16.75 -150.1 16.3 -151.55 15.3 -154.65 14.8 -158.5 M35.9 -146.3 L40.45 -142.0 Q49.45 -138.55 54.9 -132.6 60.3 -126.7 61.2 -119.05 57.7 -121.65 55.1 -122.65 57.7 -121.65 61.2 -119.05 70.0 -111.9 79.3 -98.5 L81.4 -85.85 Q82.65 -77.95 82.15 -76.95 L82.45 -77.2 Q87.05 -80.45 88.05 -86.25 94.55 -78.45 99.85 -73.5 116.25 -59.7 121.75 -58.4 121.35 -53.55 120.3 -49.6 97.35 -33.45 71.8 -35.25 52.55 -49.25 31.9 -74.6 L35.2 -68.85 Q43.75 -31.7 42.25 1.15 L42.9 2.7 43.45 3.8 43.55 3.95 43.6 4.05 45.5 7.25 47.3 9.75 47.6 10.2 Q52.15 16.15 60.15 23.75 L61.5 25.0 62.6 26.05 62.5 26.25 Q61.1 27.8 55.1 26.65 49.05 25.45 48.4 25.95 50.7 35.45 47.55 40.4 L47.2 40.45 44.45 39.15 Q27.6 30.8 25.35 15.65 L25.05 13.05 Q26.55 10.35 28.9 8.75 26.55 10.35 25.05 13.05 L25.35 15.65 20.05 20.9 Q18.15 16.1 17.5 11.1 18.15 16.1 20.05 20.9 24.9 33.2 37.85 44.15 L38.75 44.9 Q42.3 47.85 46.5 50.7 71.0 58.95 73.95 70.0 L67.25 74.05 Q63.05 76.35 58.65 78.2 L54.75 79.75 53.4 80.25 Q40.25 84.95 25.3 86.05 12.8 87.0 -0.9 85.4 L-0.1 82.95 0.95 78.65 1.1 77.8 1.8 73.5 1.85 73.3 Q2.65 67.1 2.7 59.7 L-3.25 8.0 -5.25 -1.45 Q-10.25 -34.3 -9.9 -60.05 -2.3 -73.3 8.55 -84.35 13.85 -89.7 28.05 -102.6 42.25 -115.55 55.1 -122.65 L52.95 -123.25 Q47.75 -124.1 42.1 -120.7 L-1.55 -81.2 -4.1 -78.35 Q-12.25 -92.05 23.45 -138.4 30.85 -146.85 35.9 -146.3 M59.25 331.1 L59.05 335.8 11.9 336.05 Q9.35 326.35 13.55 320.4 L19.6 311.9 Q24.7 310.55 31.6 310.05 46.15 310.9 53.15 315.75 L54.65 316.95 Q60.55 322.15 59.25 331.1 M-152.6 331.75 Q-152.25 327.75 -148.85 323.75 -138.2 315.95 -123.9 308.8 -113.8 306.35 -104.1 307.45 L-102.85 307.6 -103.95 307.5 Q-92.25 318.95 -87.7 333.45 -122.0 333.3 -152.6 331.75 M-82.0 75.95 Q-90.45 71.35 -94.75 63.6 -90.95 53.7 -86.2 36.2 L-83.95 28.2 -85.5 37.5 Q-86.5 43.45 -82.55 46.9 -81.45 47.9 -81.15 46.6 -78.0 34.3 -77.35 23.35 -76.75 12.35 -74.6 4.25 -72.45 -3.9 -73.35 -3.55 L-72.5 -7.15 Q-71.1 -20.25 -69.35 -32.45 L-69.05 -34.7 -68.35 -34.8 -67.0 -47.95 Q-65.75 -58.95 -64.05 -69.8 L-67.6 -93.45 Q-74.0 -43.15 -91.1 -34.0 L-93.85 -34.3 -94.35 -34.4 -94.5 -34.4 -95.8 -34.65 -96.0 -34.7 -96.6 -34.85 -96.75 -34.85 -97.0 -34.9 -97.15 -34.95 -97.25 -34.95 -115.45 -41.3 -116.2 -41.6 -116.15 -41.6 -117.15 -42.0 -119.65 -44.25 Q-114.9 -50.2 -101.75 -82.45 -86.45 -115.6 -74.6 -123.75 L-73.0 -124.65 Q-72.5 -123.5 -69.5 -119.3 -66.5 -115.15 -61.35 -99.55 L-49.2 -62.65 -49.15 -60.25 -49.15 -60.2 -49.1 -47.95 -49.15 -45.05 -49.15 -45.0 Q-49.45 -13.8 -52.95 13.55 -55.2 31.45 -55.2 45.45 L-55.1 50.0 Q-54.85 59.2 -53.5 66.6 L-52.4 71.45 -52.35 71.65 -52.15 72.45 -50.3 77.95 Q-49.25 80.55 -48.0 82.75 -61.95 82.75 -72.1 79.9 -77.6 78.35 -82.0 75.95 M-88.35 28.75 Q-92.95 27.85 -95.3 19.3 L-95.35 19.0 -92.85 15.9 Q-89.95 12.2 -94.0 11.05 -96.25 13.15 -98.35 15.6 L-99.05 14.65 Q-100.45 12.45 -100.45 10.05 L-100.1 8.1 Q-98.25 -0.45 -90.2 -2.75 L-88.7 -3.15 -88.2 -3.25 -84.85 -3.75 -84.95 -3.7 -83.8 -0.7 Q-82.8 2.0 -82.3 7.6 -81.85 13.2 -82.2 13.9 L-82.3 14.0 Q-89.8 21.0 -88.35 28.75 M-70.45 -125.9 Q-72.55 -129.25 -56.2 -136.45 -53.1 -134.05 -49.65 -132.4 -47.9 -131.55 -47.65 -133.2 -46.9 -137.95 -48.8 -141.65 L-46.25 -144.0 -41.7 -147.7 -39.45 -149.1 Q-39.55 -144.25 -42.05 -117.7 -44.6 -91.15 -52.6 -80.5 -53.4 -82.5 -53.95 -85.65 -53.9 -107.5 -70.45 -125.9 M31.9 -74.6 L29.25 -79.2 31.9 -74.6 M35.7 4.35 L35.85 4.2 35.95 4.15 36.4 3.75 38.85 2.25 39.75 1.9 Q40.7 1.5 42.9 2.7 40.7 1.5 39.75 1.9 L38.85 2.25 36.4 3.75 35.95 4.15 35.85 4.2 35.7 4.35 33.7 6.6 33.6 6.75 33.45 6.8 32.35 7.1 Q30.45 7.7 28.9 8.75 36.4 14.65 37.9 14.5 39.4 14.3 39.05 13.15 L35.7 4.35 M21.1 54.55 Q20.25 54.6 19.45 55.15 18.4 55.85 18.9 56.65 L20.45 58.7 Q26.0 65.0 36.3 64.3 44.45 63.7 47.5 62.1 48.85 61.35 49.2 60.4 50.3 57.35 43.55 58.1 36.75 58.85 21.1 54.55 M52.45 54.5 Q49.3 52.6 46.5 50.7 49.3 52.6 52.45 54.5 M-68.6 -99.85 L-67.6 -93.45 -68.6 -99.85 M-60.25 -82.0 Q-64.0 -66.0 -67.0 -47.95 -64.0 -66.0 -60.25 -82.0 M-63.85 46.25 Q-71.1 50.8 -74.85 52.65 -78.6 54.5 -80.95 56.45 -83.3 58.4 -80.2 59.7 -77.15 61.0 -70.35 57.1 -63.55 53.15 -63.85 46.25" fill="#4c97d9" fill-rule="evenodd" stroke="none"/>
    <path d="M59.05 335.8 Q58.35 342.65 55.45 342.6 21.9 345.5 3.1 342.0 2.1 340.55 1.8 336.1 L11.9 336.05 59.05 335.8 M-60.0 333.3 Q-60.3 337.35 -61.5 339.35 -76.7 341.3 -104.5 340.2 L-150.7 339.35 Q-153.0 335.55 -152.6 331.75 -122.0 333.3 -87.7 333.45 L-87.45 333.45 -62.0 333.35 -60.0 333.3 M-5.5 -116.25 Q-15.6 -93.75 -16.45 -67.9 -17.05 -49.95 -15.15 -31.95 -11.05 7.05 -5.65 45.9 -4.55 53.7 -6.25 60.9 L-53.5 66.6 Q-54.85 59.2 -55.1 50.0 -42.15 54.6 -28.45 56.4 -19.75 57.55 -14.5 53.85 L-41.5 48.95 Q-48.65 47.8 -55.2 45.45 -55.2 31.45 -52.95 13.55 -49.45 -13.8 -49.15 -45.0 L-44.6 -26.3 Q-41.85 -14.5 -21.55 18.45 L-30.6 -4.35 Q-41.65 -32.3 -49.15 -60.2 L-49.15 -60.25 -49.2 -62.65 -49.4 -71.9 -49.5 -74.95 -49.55 -76.3 -49.55 -77.25 -48.9 -79.5 Q-43.9 -92.7 -40.75 -108.1 L-40.5 -109.4 -30.45 -105.9 Q-21.25 -102.55 -12.6 -105.15 -22.65 -108.65 -31.95 -110.9 L-39.8 -113.0 -38.35 -121.85 Q-35.3 -115.7 -21.85 -115.75 -8.4 -115.8 -7.0 -116.0 L-5.5 -116.25 M-0.85 73.55 L-0.05 73.45 1.5 67.0 2.7 59.7 Q2.65 67.1 1.85 73.3 L-0.85 73.55" fill="#1b2734" fill-rule="evenodd" stroke="none"/>
    <path d="M1.65 329.0 L-0.55 327.0 2.8 325.6 Q2.1 327.25 1.65 329.0 M-5.4 319.9 Q-7.1 315.15 -5.2 310.1 -1.45 268.05 -2.7 207.35 -3.95 145.75 -9.75 92.05 L-12.7 91.6 Q-18.65 90.55 -23.85 88.55 L-25.5 87.9 Q-16.9 136.75 -59.05 212.85 -58.15 216.15 -51.1 215.1 -45.65 269.35 -58.25 318.0 -79.45 300.75 -110.4 298.3 -119.1 300.65 -127.75 303.6 -127.45 300.7 -126.2 296.85 L-123.8 290.55 Q-110.6 250.65 -105.85 205.95 L-100.45 172.1 Q-91.3 108.95 -82.15 78.45 L-82.0 75.95 Q-77.6 78.35 -72.1 79.9 -61.95 82.75 -48.0 82.75 -49.25 80.55 -50.3 77.95 -25.7 79.3 -1.1 77.95 L0.95 78.65 -0.1 82.95 -0.9 85.4 Q12.8 87.0 25.3 86.05 38.8 89.5 52.65 91.5 L53.5 200.8 Q62.3 290.85 53.15 306.15 41.95 299.45 24.7 302.45 17.55 303.65 10.4 306.4 -1.25 310.85 -5.4 319.9 M-29.9 85.75 L-25.5 87.9 -29.9 85.75 M-9.75 92.05 L-7.1 92.35 -9.75 92.05" fill="#283e5d" fill-rule="evenodd" stroke="none"/>
    <path d="M0.7 -232.5 L8.55 -231.25 15.0 -199.3 Q13.65 -198.8 12.15 -197.7 13.15 -200.35 13.55 -203.05 14.2 -208.0 9.05 -208.95 7.1 -208.8 5.75 -207.55 4.6 -214.4 1.45 -220.95 3.65 -222.45 4.6 -225.15 5.1 -226.55 4.65 -227.75 2.6 -233.3 -1.05 -227.05 -1.95 -228.65 -2.4 -230.45 -2.85 -232.15 -3.9 -233.25 L0.15 -232.6 0.7 -232.5 M14.25 -171.3 L14.25 -169.7 13.25 -170.4 14.25 -171.3 M14.7 -159.45 L14.8 -158.5 Q15.3 -154.65 16.3 -151.55 L15.5 -150.65 Q13.9 -153.8 11.65 -156.5 L14.75 -159.0 14.7 -159.45 M110.85 -24.95 Q108.9 -20.15 104.75 -15.0 95.4 -5.9 77.65 7.55 64.95 17.25 60.15 23.75 52.15 16.15 47.6 10.2 L47.3 9.75 Q47.1 8.4 50.65 3.2 55.05 -3.4 73.9 -16.9 92.75 -30.45 110.85 -24.95 M-100.1 8.1 Q-110.65 -12.55 -116.9 -31.25 -118.3 -37.5 -117.15 -42.0 L-116.15 -41.6 Q-105.95 -35.0 -96.9 -25.95 -87.9 -16.9 -86.2 -9.45 -85.2 -4.8 -84.5 -3.75 L-84.85 -3.75 -88.2 -3.25 -88.7 -3.15 -90.2 -2.75 Q-98.25 -0.45 -100.1 8.1 M-43.8 -154.2 L-47.35 -153.05 -47.45 -153.05 Q-52.2 -151.65 -55.55 -151.5 L-58.45 -151.95 Q-70.25 -154.7 -78.15 -169.9 -80.7 -175.05 -81.05 -179.1 -88.3 -184.75 -85.1 -189.45 -81.95 -194.2 -81.45 -200.45 L-83.75 -206.4 Q-84.9 -210.85 -85.3 -215.0 -62.8 -214.75 -45.4 -199.05 -31.75 -186.75 -34.1 -174.65 -30.6 -163.5 -35.75 -159.9 L-43.8 -154.2 M-74.5 -238.15 L-67.3 -243.5 -6.9 -233.75 Q-8.95 -228.5 -5.0 -222.35 L-4.2 -220.7 0.2 -205.55 Q0.75 -203.55 1.75 -202.1 L-0.15 -200.3 Q-0.1 -201.75 -0.8 -203.0 -2.6 -206.35 -5.75 -204.3 -10.3 -201.35 -11.95 -195.85 -11.4 -198.8 -12.9 -201.45 -15.2 -205.4 -17.85 -202.05 -21.0 -198.15 -23.3 -193.85 L-22.95 -193.35 Q-31.3 -205.45 -43.2 -212.75 -46.8 -214.95 -49.9 -217.85 -35.5 -217.75 -29.65 -228.8 -28.55 -230.9 -30.1 -231.9 -47.45 -243.2 -71.55 -238.15 L-74.5 -238.15 M-34.55 -136.95 Q-32.5 -138.75 -25.55 -140.2 -18.65 -141.65 2.2 -154.15 3.2 -147.95 4.3 -146.95 5.35 -146.0 6.35 -139.15 2.6 -133.65 -0.45 -127.55 -3.2 -122.15 -5.35 -116.25 L-5.5 -116.25 -7.0 -116.0 Q-8.4 -115.8 -21.85 -115.75 -35.3 -115.7 -38.35 -121.85 L-37.3 -130.25 -37.1 -131.9 -37.05 -132.15 -37.05 -132.55 -34.55 -136.95 M-27.4 -123.2 L-28.95 -127.2 -37.3 -130.25 -28.95 -127.2 -27.4 -123.2 M67.75 -22.65 L68.6 -22.9 67.0 -21.85 67.75 -22.65 M-85.3 -223.85 L-85.25 -224.4 -81.0 -224.35 -85.3 -223.85 M-52.85 -194.3 Q-53.85 -194.3 -54.2 -193.35 -56.1 -188.8 -49.85 -189.45 -48.7 -189.6 -48.4 -190.65 -47.0 -195.1 -52.85 -194.3 M-14.75 -122.8 L-12.05 -126.05 -0.45 -127.55 -12.05 -126.05 -14.75 -122.8" fill="#ffe8d7" fill-rule="evenodd" stroke="none"/>
    <path d="M22.75 -156.0 Q28.05 -153.95 30.65 -151.4 L35.9 -146.3 Q30.85 -146.85 23.45 -138.4 -12.25 -92.05 -4.1 -78.35 L-1.55 -81.2 42.1 -120.7 Q47.75 -124.1 52.95 -123.25 L55.1 -122.65 Q42.25 -115.55 28.05 -102.6 13.85 -89.7 8.55 -84.35 -2.3 -73.3 -9.9 -60.05 -9.85 -67.95 -9.25 -75.2 -8.45 -85.25 -6.4 -94.2 -3.4 -107.35 2.2 -118.2 5.05 -123.85 8.7 -128.8 14.4 -136.8 21.95 -143.15 L18.8 -145.9 18.55 -146.35 17.35 -148.8 Q18.2 -151.85 21.2 -154.65 L22.75 -156.0 M120.3 -49.6 Q117.9 -40.85 112.15 -36.7 106.3 -32.5 98.2 -30.55 82.25 -26.7 68.6 -22.9 L67.75 -22.65 68.55 -23.55 62.65 -21.2 54.9 -34.6 35.2 -68.85 54.9 -34.6 52.35 -5.9 51.25 -4.65 43.45 3.8 42.9 2.7 42.25 1.15 Q43.75 -31.7 35.2 -68.85 L31.9 -74.6 Q52.55 -49.25 71.8 -35.25 97.35 -33.45 120.3 -49.6 M62.5 26.25 L62.35 26.55 58.4 31.7 58.2 31.85 58.0 32.05 57.85 32.15 57.75 32.25 Q66.05 53.25 82.2 63.95 L73.95 70.0 Q71.0 58.95 46.5 50.7 42.3 47.85 38.75 44.9 L37.85 44.15 38.35 44.0 Q44.55 42.2 44.45 39.15 L47.2 40.45 47.55 40.4 Q50.7 35.45 48.4 25.95 49.05 25.45 55.1 26.65 61.1 27.8 62.5 26.25 M1.8 336.1 Q1.55 333.2 1.65 329.0 2.1 327.25 2.8 325.6 L2.85 325.6 3.6 324.05 6.65 319.65 6.75 319.55 7.2 319.0 7.75 318.45 9.55 316.7 Q11.9 314.65 15.6 313.2 L19.6 311.9 13.55 320.4 Q9.35 326.35 11.9 336.05 L1.8 336.1 M-60.2 324.8 Q-59.75 329.8 -60.0 333.3 L-62.0 333.35 -87.45 333.45 -87.7 333.45 Q-92.25 318.95 -103.95 307.5 L-102.85 307.6 -86.75 312.4 -86.2 312.65 -85.4 313.05 -73.8 318.65 -60.2 324.8 M-83.95 28.2 L-83.6 26.9 -78.6 11.05 -79.25 11.5 -80.25 12.25 -82.2 13.9 Q-81.85 13.2 -82.3 7.6 -82.8 2.0 -83.8 -0.7 L-84.95 -3.7 -84.85 -3.75 -84.5 -3.75 -84.15 -3.8 -83.9 -3.8 Q-78.95 -4.05 -74.35 -2.2 L-74.2 -2.15 -78.6 11.05 -74.2 -2.15 -73.75 -1.95 -73.35 -3.55 Q-72.45 -3.9 -74.6 4.25 -76.75 12.35 -77.35 23.35 -78.0 34.3 -81.15 46.6 -81.45 47.9 -82.55 46.9 -86.5 43.45 -85.5 37.5 L-83.95 28.2 M-95.35 19.0 L-95.5 18.45 -95.55 18.35 -98.35 15.6 Q-96.25 13.15 -94.0 11.05 -89.95 12.2 -92.85 15.9 L-95.35 19.0 M-56.2 -136.45 L-51.2 -138.6 Q-50.4 -140.05 -48.8 -141.65 -46.9 -137.95 -47.65 -133.2 -47.9 -131.55 -49.65 -132.4 -53.1 -134.05 -56.2 -136.45 M-39.45 -149.1 L-38.65 -149.55 -28.65 -154.7 -27.8 -155.1 Q-26.45 -149.3 -29.75 -145.55 L-34.55 -136.95 -37.05 -132.55 -37.05 -132.15 -37.1 -131.9 -37.3 -130.25 -38.35 -121.85 -39.8 -113.0 -39.85 -112.85 -40.5 -109.4 -40.75 -108.1 Q-43.9 -92.7 -48.9 -79.5 L-49.55 -77.25 -49.6 -77.25 -49.55 -76.3 -49.5 -74.95 -49.4 -71.9 -49.2 -62.65 -61.35 -99.55 Q-66.5 -115.15 -69.5 -119.3 -72.5 -123.5 -73.0 -124.65 L-71.75 -125.3 -70.45 -125.9 Q-53.9 -107.5 -53.95 -85.65 -53.4 -82.5 -52.6 -80.5 -44.6 -91.15 -42.05 -117.7 -39.55 -144.25 -39.45 -149.1 M79.3 -98.5 L80.1 -97.3 83.45 -91.9 83.8 -91.35 84.4 -90.7 88.05 -86.25 Q87.05 -80.45 82.45 -77.2 L82.15 -76.95 Q82.65 -77.95 81.4 -85.85 L79.3 -98.5 M35.7 4.35 L39.05 13.15 Q39.4 14.3 37.9 14.5 36.4 14.65 28.9 8.75 30.45 7.7 32.35 7.1 L33.45 6.8 33.6 6.75 33.7 6.6 35.7 4.35 M57.75 32.25 L55.6 33.95 Q53.9 37.7 50.45 39.4 L47.55 40.4 50.45 39.4 Q53.9 37.7 55.6 33.95 L57.75 32.25 M21.1 54.55 Q36.75 58.85 43.55 58.1 50.3 57.35 49.2 60.4 48.85 61.35 47.5 62.1 44.45 63.7 36.3 64.3 26.0 65.0 20.45 58.7 L18.9 56.65 Q18.4 55.85 19.45 55.15 20.25 54.6 21.1 54.55 M-52.6 -80.5 Q-51.9 -78.7 -50.9 -77.85 L-50.25 -77.45 -49.6 -77.25 -50.25 -77.45 -50.9 -77.85 Q-51.9 -78.7 -52.6 -80.5 M-91.1 -34.0 Q-74.0 -43.15 -67.6 -93.45 L-64.05 -69.8 Q-65.75 -58.95 -67.0 -47.95 L-69.05 -34.7 -82.7 -33.6 -91.1 -34.0 M-4.1 -78.35 Q-7.4 -74.95 -8.9 -75.1 L-9.15 -75.15 -9.2 -75.2 -9.25 -75.2 -9.2 -75.2 -9.15 -75.15 -8.9 -75.1 Q-7.4 -74.95 -4.1 -78.35 M-63.85 46.25 Q-63.55 53.15 -70.35 57.1 -77.15 61.0 -80.2 59.7 -83.3 58.4 -80.95 56.45 -78.6 54.5 -74.85 52.65 -71.1 50.8 -63.85 46.25" fill="#3572b4" fill-rule="evenodd" stroke="none"/>
    <path d="M-3.9 -233.25 Q-2.85 -232.15 -2.4 -230.45 -1.95 -228.65 -1.05 -227.05 2.6 -233.3 4.65 -227.75 5.1 -226.55 4.6 -225.15 3.65 -222.45 1.45 -220.95 4.6 -214.4 5.75 -207.55 7.1 -208.8 9.05 -208.95 14.2 -208.0 13.55 -203.05 13.15 -200.35 12.15 -197.7 13.65 -198.8 15.0 -199.3 L16.45 -192.15 15.75 -187.3 Q14.65 -179.85 14.35 -173.5 L14.25 -171.3 13.25 -170.4 14.25 -169.7 Q14.2 -166.85 14.3 -164.25 L14.3 -163.85 14.7 -159.45 14.75 -159.0 11.65 -156.5 Q13.9 -153.8 15.5 -150.65 L16.3 -151.55 Q16.75 -150.1 17.35 -148.8 L18.55 -146.35 18.8 -145.9 21.95 -143.15 Q14.4 -136.8 8.7 -128.8 5.05 -123.85 2.2 -118.2 L0.4 -117.7 -4.65 -116.4 -5.05 -116.3 -5.2 -116.3 -5.35 -116.25 Q-3.2 -122.15 -0.45 -127.55 2.6 -133.65 6.35 -139.15 5.35 -146.0 4.3 -146.95 3.2 -147.95 2.2 -154.15 -18.65 -141.65 -25.55 -140.2 -32.5 -138.75 -34.55 -136.95 L-29.75 -145.55 Q-26.45 -149.3 -27.8 -155.1 L-28.9 -158.3 -29.25 -159.15 -29.75 -160.15 Q-37.3 -156.55 -43.2 -154.45 L-43.8 -154.2 -35.75 -159.9 Q-30.6 -163.5 -34.1 -174.65 -31.75 -186.75 -45.4 -199.05 -62.8 -214.75 -85.3 -215.0 -85.75 -219.5 -85.3 -223.6 L-85.3 -223.85 -81.0 -224.35 -85.25 -224.4 Q-84.85 -228.0 -83.75 -231.3 L-74.9 -237.8 -74.5 -238.15 -71.55 -238.15 Q-47.45 -243.2 -30.1 -231.9 -28.55 -230.9 -29.65 -228.8 -35.5 -217.75 -49.9 -217.85 -46.8 -214.95 -43.2 -212.75 -31.3 -205.45 -22.95 -193.35 L-23.3 -193.85 Q-21.0 -198.15 -17.85 -202.05 -15.2 -205.4 -12.9 -201.45 -11.4 -198.8 -11.95 -195.85 -10.3 -201.35 -5.75 -204.3 -2.6 -206.35 -0.8 -203.0 -0.1 -201.75 -0.15 -200.3 L1.75 -202.1 Q0.75 -203.55 0.2 -205.55 L-4.2 -220.7 -5.0 -222.35 Q-8.95 -228.5 -6.9 -233.75 L-3.9 -233.25 M112.15 -36.7 Q112.5 -35.05 112.5 -33.3 112.55 -30.9 111.95 -28.4 L110.85 -24.95 Q92.75 -30.45 73.9 -16.9 55.05 -3.4 50.65 3.2 47.1 8.4 47.3 9.75 L45.5 7.25 43.6 4.05 43.55 3.95 43.45 3.8 51.25 -4.65 52.35 -5.9 52.35 -5.85 53.4 -7.0 52.35 -5.85 52.35 -5.9 53.4 -7.0 67.0 -21.85 68.6 -22.9 Q82.25 -26.7 98.2 -30.55 106.3 -32.5 112.15 -36.7 M-0.45 -127.55 L8.7 -128.8 -0.45 -127.55 M52.35 -5.85 L51.25 -4.65 52.35 -5.85 M-97.15 -34.95 L-97.0 -34.9 -96.75 -34.85 -96.6 -34.85 -96.0 -34.7 -95.8 -34.65 -94.5 -34.4 -94.35 -34.4 -93.85 -34.3 -91.1 -34.0 -82.7 -33.6 -81.55 -31.7 Q-76.6 -16.2 -74.35 -2.2 -78.95 -4.05 -83.9 -3.8 L-84.15 -3.8 -84.5 -3.75 Q-85.2 -4.8 -86.2 -9.45 -87.9 -16.9 -96.9 -25.95 -105.95 -35.0 -116.15 -41.6 L-116.2 -41.6 -115.45 -41.3 -97.25 -34.95 -97.15 -34.95 M-116.15 -41.6 L-115.45 -41.3 -116.15 -41.6" fill="#e0bcaa" fill-rule="evenodd" stroke="none"/>
    <path d="M-5.35 -116.25 L-5.2 -116.3 -5.05 -116.3 -4.65 -116.4 0.4 -117.7 2.2 -118.2 Q-3.4 -107.35 -6.4 -94.2 -8.45 -85.25 -9.25 -75.2 -9.85 -67.95 -9.9 -60.05 -10.25 -34.3 -5.25 -1.45 L-3.25 8.0 2.7 59.7 1.5 67.0 -0.05 73.45 -0.85 73.55 -10.8 73.75 -11.0 73.75 -11.6 73.7 -12.8 73.55 -31.55 72.05 Q-45.15 71.2 -52.4 71.45 L-53.5 66.6 -6.25 60.9 Q-4.55 53.7 -5.65 45.9 -11.05 7.05 -15.15 -31.95 -17.05 -49.95 -16.45 -67.9 -15.6 -93.75 -5.5 -116.25 L-5.35 -116.25 M-40.5 -109.4 L-39.85 -112.85 -39.8 -113.0 -31.95 -110.9 Q-22.65 -108.65 -12.6 -105.15 -21.25 -102.55 -30.45 -105.9 L-40.5 -109.4 M-49.15 -60.2 Q-41.65 -32.3 -30.6 -4.35 L-21.55 18.45 Q-41.85 -14.5 -44.6 -26.3 L-49.15 -45.0 -49.15 -45.05 -49.1 -47.95 -49.15 -60.2 M-55.2 45.45 Q-48.65 47.8 -41.5 48.95 L-14.5 53.85 Q-19.75 57.55 -28.45 56.4 -42.15 54.6 -55.1 50.0 L-55.2 45.45" fill="#070a0e" fill-rule="evenodd" stroke="none"/>
    <path d="M58.65 78.2 Q58.6 86.05 58.7 91.0 L58.75 92.35 Q59.15 116.2 58.45 146.55 57.55 185.25 63.05 232.6 68.45 279.9 65.3 315.65 63.85 330.6 59.25 331.1 60.55 322.15 54.65 316.95 L53.15 315.75 Q46.15 310.9 31.6 310.05 24.7 310.55 19.6 311.9 L15.6 313.2 Q11.9 314.65 9.55 316.7 L7.75 318.45 7.2 319.0 6.75 319.55 6.65 319.65 3.6 324.05 2.85 325.6 2.8 325.6 3.6 324.05 2.8 325.6 -0.55 327.0 -0.75 326.8 -1.2 326.4 Q-3.8 323.65 -5.0 320.85 L-5.35 320.0 -5.4 319.9 Q-1.25 310.85 10.4 306.4 17.55 303.65 24.7 302.45 41.95 299.45 53.15 306.15 62.3 290.85 53.5 200.8 L52.65 91.5 Q38.8 89.5 25.3 86.05 40.25 84.95 53.4 80.25 L54.75 79.75 58.65 78.2 M-12.7 91.6 Q-16.25 123.85 -22.4 143.75 L-40.15 203.9 Q-35.75 292.05 -48.3 329.85 L-60.15 324.85 -60.2 324.8 -73.8 318.65 -85.4 313.05 -86.2 312.65 -86.75 312.4 -102.85 307.6 -104.1 307.45 Q-113.8 306.35 -123.9 308.8 L-126.85 309.55 Q-127.45 308.5 -127.7 307.1 L-127.7 307.05 Q-127.95 305.5 -127.75 303.6 -119.1 300.65 -110.4 298.3 -79.45 300.75 -58.25 318.0 -45.65 269.35 -51.1 215.1 -58.15 216.15 -59.05 212.85 -16.9 136.75 -25.5 87.9 L-23.85 88.55 Q-18.65 90.55 -12.7 91.6 M-52.4 71.45 Q-45.15 71.2 -31.55 72.05 L-12.8 73.55 -11.6 73.7 -11.0 73.75 -10.8 73.75 -0.85 73.55 1.85 73.3 1.8 73.5 1.1 77.8 0.95 78.65 -1.1 77.95 Q-25.7 79.3 -50.3 77.95 L-52.15 72.45 -52.35 71.65 -52.4 71.45" fill="#182538" fill-rule="evenodd" stroke="none"/>
    <path d="M-83.6 26.9 L-85.55 31.55 -88.35 28.75 Q-89.8 21.0 -82.3 14.0 L-82.2 13.9 -80.25 12.25 -79.25 11.5 -78.6 11.05 -83.6 26.9 M25.35 15.65 Q27.6 30.8 44.45 39.15 44.55 42.2 38.35 44.0 L37.85 44.15 Q24.9 33.2 20.05 20.9 L25.35 15.65" fill="#121b25" fill-rule="evenodd" stroke="none"/>
    <path d="M-52.85 -194.3 Q-47.0 -195.1 -48.4 -190.65 -48.7 -189.6 -49.85 -189.45 -56.1 -188.8 -54.2 -193.35 -53.85 -194.3 -52.85 -194.3" fill="#fffce9" fill-rule="evenodd" stroke="none"/>
    <path d="M15.0 -199.3 L8.55 -231.25 0.7 -232.5 M0.15 -232.6 L-3.9 -233.25 -6.9 -233.75 -67.3 -243.5 -74.5 -238.15 M15.0 -199.3 L16.45 -192.15 15.75 -187.3 Q14.65 -179.85 14.35 -173.5 L14.25 -171.3 14.25 -169.7 Q14.2 -166.85 14.3 -164.25 M14.3 -163.85 L14.7 -159.45 14.8 -158.5 Q19.3 -157.35 22.75 -156.0 28.05 -153.95 30.65 -151.4 L35.9 -146.3 40.45 -142.0 Q49.45 -138.55 54.9 -132.6 60.3 -126.7 61.2 -119.05 68.75 -113.7 77.6 -101.05 L80.1 -97.3 84.2 -90.95 84.4 -90.7 86.45 -88.4 99.85 -73.5 Q116.25 -59.7 121.75 -58.4 121.35 -53.55 120.3 -49.6 117.9 -40.85 112.15 -36.7 112.5 -35.05 112.5 -33.3 112.55 -30.9 111.95 -28.4 L110.85 -24.95 Q108.9 -20.15 104.75 -15.0 95.4 -5.9 77.65 7.55 64.95 17.25 60.15 23.75 L61.5 25.0 62.6 26.05 62.5 26.25 M62.35 26.55 L58.4 31.7 58.2 31.85 58.0 32.05 57.85 32.15 57.75 32.25 Q66.05 53.25 82.2 63.95 L73.95 70.0 67.25 74.05 Q63.05 76.35 58.65 78.2 58.6 86.05 58.7 91.0 L58.75 92.35 Q59.15 116.2 58.45 146.55 57.55 185.25 63.05 232.6 68.45 279.9 65.3 315.65 63.85 330.6 59.25 331.1 L59.05 335.8 Q58.35 342.65 55.45 342.6 21.9 345.5 3.1 342.0 2.1 340.55 1.8 336.1 1.55 333.2 1.65 329.0 L-0.55 327.0 -0.75 326.8 -1.2 326.4 Q-3.8 323.65 -5.0 320.85 L-5.35 320.0 -5.4 319.9 Q-7.1 315.15 -5.2 310.1 -1.45 268.05 -2.7 207.35 -3.95 145.75 -9.75 92.05 L-12.7 91.6 Q-16.25 123.85 -22.4 143.75 L-40.15 203.9 Q-35.75 292.05 -48.3 329.85 L-60.15 324.85 -60.2 324.8 Q-59.75 329.8 -60.0 333.3 -60.3 337.35 -61.5 339.35 -76.7 341.3 -104.5 340.2 L-150.7 339.35 Q-153.0 335.55 -152.6 331.75 -152.25 327.75 -148.85 323.75 -138.2 315.95 -123.9 308.8 L-126.85 309.55 Q-127.45 308.5 -127.7 307.1 L-127.7 307.05 Q-127.95 305.5 -127.75 303.6 -127.45 300.7 -126.2 296.85 L-123.8 290.55 Q-110.6 250.65 -105.85 205.95 L-100.45 172.1 Q-91.3 108.95 -82.15 78.45 L-82.0 75.95 Q-90.45 71.35 -94.75 63.6 -90.95 53.7 -86.2 36.2 L-83.95 28.2 -83.6 26.9 -85.55 31.55 -88.35 28.75 Q-92.95 27.85 -95.3 19.3 L-95.35 19.0 -95.5 18.45 -95.55 18.35 -98.35 15.6 -99.05 14.65 Q-100.45 12.45 -100.45 10.05 L-100.1 8.1 Q-110.65 -12.55 -116.9 -31.25 -118.3 -37.5 -117.15 -42.0 L-119.65 -44.25 Q-114.9 -50.2 -101.75 -82.45 -86.45 -115.6 -74.6 -123.75 -72.45 -125.25 -70.45 -125.9 -72.55 -129.25 -56.2 -136.45 L-51.2 -138.6 Q-50.4 -140.05 -48.8 -141.65 L-46.25 -144.0 -41.7 -147.7 -39.45 -149.1 M-38.65 -149.55 L-28.65 -154.7 -27.8 -155.1 -28.9 -158.3 -29.25 -159.15 -29.75 -160.15 Q-37.3 -156.55 -43.2 -154.45 L-43.8 -154.2 -47.35 -153.05 -47.45 -153.05 Q-52.2 -151.65 -55.55 -151.5 L-50.8 -145.9 -56.65 -147.2 Q-73.15 -152.2 -87.25 -171.35 -85.8 -168.5 -84.5 -165.45 -82.3 -160.25 -80.5 -154.75 -85.6 -159.6 -89.8 -164.75 -106.95 -185.75 -109.75 -212.2 L-109.75 -212.5 -109.8 -214.0 M-108.25 -202.5 Q-115.65 -190.9 -129.45 -183.55 -126.3 -187.45 -123.7 -192.35 -117.6 -203.85 -114.4 -221.1 L-91.25 -225.75 -83.75 -231.3 -74.9 -237.8 M16.3 -151.55 Q15.3 -154.65 14.8 -158.5 M16.3 -151.55 Q16.75 -150.1 17.35 -148.8 L18.55 -146.35 18.8 -145.9 21.95 -143.15 Q14.4 -136.8 8.7 -128.8 L-0.45 -127.55 -12.05 -126.05 -14.75 -122.8 M-4.1 -78.35 L-1.55 -81.2 42.1 -120.7 Q47.75 -124.1 52.95 -123.25 L55.1 -122.65 Q57.7 -121.65 61.2 -119.05 70.0 -111.9 79.3 -98.5 L80.1 -97.3 83.45 -91.9 83.8 -91.35 84.4 -90.7 M88.05 -86.25 Q94.55 -78.45 99.85 -73.5 M-34.55 -136.95 L-37.05 -132.55 -37.05 -132.15 M-37.1 -131.9 L-37.3 -130.25 -28.95 -127.2 -27.4 -123.2 M-5.35 -116.25 L-5.2 -116.3 -5.05 -116.3 -4.65 -116.4 0.4 -117.7 2.2 -118.2 Q5.05 -123.85 8.7 -128.8 M-5.35 -116.25 L-5.5 -116.25 -7.0 -116.0 Q-8.4 -115.8 -21.85 -115.75 -35.3 -115.7 -38.35 -121.85 L-37.3 -130.25 M-53.5 66.6 L-52.4 71.45 Q-45.15 71.2 -31.55 72.05 L-12.8 73.55 -11.6 73.7 -11.0 73.75 -10.8 73.75 -0.85 73.55 1.85 73.3 Q2.65 67.1 2.7 59.7 L-3.25 8.0 -5.25 -1.45 Q-10.25 -34.3 -9.9 -60.05 -9.85 -67.95 -9.25 -75.2 -8.45 -85.25 -6.4 -94.2 -3.4 -107.35 2.2 -118.2 M31.9 -74.6 L35.2 -68.85 54.9 -34.6 62.65 -21.2 67.75 -22.65 67.0 -21.85 53.4 -7.0 52.35 -5.85 52.35 -5.9 54.9 -34.6 M67.75 -22.65 L68.6 -22.9 Q82.25 -26.7 98.2 -30.55 106.3 -32.5 112.15 -36.7 M29.25 -79.2 L31.9 -74.6 M51.25 -4.65 L52.35 -5.85 M47.3 9.75 L47.6 10.2 Q52.15 16.15 60.15 23.75 M42.9 2.7 Q40.7 1.5 39.75 1.9 L38.85 2.25 36.4 3.75 35.95 4.15 35.85 4.2 35.7 4.35 33.7 6.6 33.6 6.75 33.45 6.8 32.35 7.1 Q30.45 7.7 28.9 8.75 26.55 10.35 25.05 13.05 L25.35 15.65 Q27.6 30.8 44.45 39.15 L47.2 40.45 47.55 40.4 50.45 39.4 Q53.9 37.7 55.6 33.95 L57.75 32.25 M47.3 9.75 L45.5 7.25 43.6 4.05 43.55 3.95 43.45 3.8 51.25 -4.65 M17.5 11.1 Q18.15 16.1 20.05 20.9 L25.35 15.65 M37.85 44.15 L38.75 44.9 Q42.3 47.85 46.5 50.7 49.3 52.6 52.45 54.5 M44.45 39.15 Q44.55 42.2 38.35 44.0 L37.85 44.15 Q24.9 33.2 20.05 20.9 M0.95 78.65 L1.1 77.8 1.8 73.5 1.85 73.3 M58.65 78.2 L54.75 79.75 53.4 80.25 Q40.25 84.95 25.3 86.05 12.8 87.0 -0.9 85.4 L-0.1 82.95 0.95 78.65 M19.6 311.9 Q24.7 310.55 31.6 310.05 46.15 310.9 53.15 315.75 L54.65 316.95 Q60.55 322.15 59.25 331.1 M11.9 336.05 L59.05 335.8 M3.6 324.05 L6.65 319.65 6.75 319.55 7.2 319.0 7.75 318.45 9.55 316.7 Q11.9 314.65 15.6 313.2 L19.6 311.9 M2.8 325.6 Q2.1 327.25 1.65 329.0 M1.8 336.1 L11.9 336.05 M2.8 325.6 L3.6 324.05 M-85.3 -223.85 L-85.25 -224.4 Q-84.85 -228.0 -83.75 -231.3 M-85.3 -215.0 Q-84.9 -210.85 -83.75 -206.4 L-81.45 -200.45 Q-81.95 -194.2 -85.1 -189.45 -88.3 -184.75 -81.05 -179.1 -80.7 -175.05 -78.15 -169.9 -70.25 -154.7 -58.45 -151.95 L-55.55 -151.5 M-85.3 -223.6 Q-85.75 -219.5 -85.3 -215.0 M-73.0 -124.65 L-74.6 -123.75 M-70.45 -125.9 L-71.75 -125.3 -73.0 -124.65 M-49.2 -62.65 L-49.4 -71.9 -49.5 -74.95 -49.55 -76.3 -49.6 -77.25 -50.25 -77.45 -50.9 -77.85 Q-51.9 -78.7 -52.6 -80.5 -53.4 -82.5 -53.95 -85.65 -53.9 -107.5 -70.45 -125.9 M-27.8 -155.1 Q-26.45 -149.3 -29.75 -145.55 L-34.55 -136.95 M-39.8 -113.0 L-39.85 -112.85 -40.5 -109.4 -40.75 -108.1 Q-43.9 -92.7 -48.9 -79.5 L-49.55 -77.25 -49.55 -76.3 M-39.8 -113.0 L-38.35 -121.85 M-87.25 -171.35 L-90.75 -177.95 M-97.15 -34.95 L-97.0 -34.9 -96.75 -34.85 -96.6 -34.85 -96.0 -34.7 -95.8 -34.65 -94.5 -34.4 -94.35 -34.4 -93.85 -34.3 -91.1 -34.0 -82.7 -33.6 -81.55 -31.7 Q-76.6 -16.2 -74.35 -2.2 -78.95 -4.05 -83.9 -3.8 L-84.15 -3.8 -84.5 -3.75 -84.85 -3.75 -88.2 -3.25 M-67.6 -93.45 L-68.6 -99.85 M-97.25 -34.95 L-115.45 -41.3 -116.15 -41.6 -117.15 -42.0 M-88.7 -3.15 L-90.2 -2.75 Q-98.25 -0.45 -100.1 8.1 M-82.2 13.9 L-80.25 12.25 -79.25 11.5 -78.6 11.05 -74.2 -2.15 -74.35 -2.2 M-9.25 -75.2 L-9.2 -75.2 -9.15 -75.15 -8.9 -75.1 Q-7.4 -74.95 -4.1 -78.35 M-49.55 -77.25 L-49.6 -77.25 M-49.2 -62.65 L-49.15 -60.25 -49.15 -60.2 -49.1 -47.95 -49.15 -45.05 -49.15 -45.0 Q-49.45 -13.8 -52.95 13.55 -55.2 31.45 -55.2 45.45 L-55.1 50.0 Q-54.85 59.2 -53.5 66.6 M-67.0 -47.95 Q-65.75 -58.95 -64.05 -69.8 L-67.6 -93.45 M-72.5 -7.15 Q-71.1 -20.25 -69.35 -32.45 L-69.05 -34.7 -82.7 -33.6 M-67.0 -47.95 L-69.05 -34.7 M-72.5 -7.15 L-73.35 -3.55 M-73.75 -1.95 L-74.2 -2.15 -72.5 -7.15 M-67.0 -47.95 Q-64.0 -66.0 -60.25 -82.0 M-52.4 71.45 L-52.35 71.65 -52.15 72.45 M-50.3 77.95 Q-49.25 80.55 -48.0 82.75 -61.95 82.75 -72.1 79.9 -77.6 78.35 -82.0 75.95 M-25.5 87.9 L-29.9 85.75 M-12.7 91.6 Q-18.65 90.55 -23.85 88.55 L-25.5 87.9 M-7.1 92.35 L-9.75 92.05 M-88.35 28.75 Q-89.8 21.0 -82.3 14.0 L-82.2 13.9 M-83.6 26.9 L-78.6 11.05 M-102.85 307.6 L-104.1 307.45 Q-113.8 306.35 -123.9 308.8 M-60.2 324.8 L-73.8 318.65 -85.4 313.05 -86.2 312.65 -86.75 312.4 -102.85 307.6 M-87.7 333.45 L-87.45 333.45 -62.0 333.35 -60.0 333.3 M-152.6 331.75 Q-122.0 333.3 -87.7 333.45" fill="none" stroke="#1a5283" stroke-linecap="round" stroke-linejoin="round" stroke-width="2.0"/>
  </g>
</svg>
