<?xml version="1.0" encoding="UTF-8" standalone="no"?>
<svg xmlns:xlink="http://www.w3.org/1999/xlink" height="638.15px" width="235.25px" xmlns="http://www.w3.org/2000/svg">
  <g transform="matrix(1.0, 0.0, 0.0, 1.0, 130.65, 294.0)">
    <path d="M-53.5 -277.4 L-53.95 -277.0 -53.55 -277.45 -53.5 -277.4 M-64.65 -246.15 L-64.55 -246.15 -64.6 -246.1 -64.65 -246.15 M43.45 -142.9 L43.5 -142.9 43.45 -142.9 M63.95 -117.35 L64.05 -117.25 63.95 -117.35 M-41.7 -162.5 L-43.85 -165.5 -44.45 -169.05 Q-43.3 -165.8 -41.7 -162.5 M-60.65 -195.65 L-60.45 -196.65 -60.25 -196.65 -60.65 -195.65 M6.95 311.2 L8.35 311.5 6.7 311.4 6.95 311.2 M-90.1 -204.3 L-90.85 -204.8 -90.8 -204.8 -90.1 -204.3 M-26.9 -140.55 L-27.8 -142.4 -27.95 -142.7 -27.95 -142.75 -28.0 -142.85 -27.8 -142.9 -26.9 -140.55 -27.8 -142.9 -27.4 -143.1 -26.9 -140.55 M-17.05 73.95 L-16.65 73.9 -17.05 73.95" fill="#cccccc" fill-rule="evenodd" stroke="none"/>
    <path d="M-15.5 60.6 L-16.2 66.7 -17.05 73.95 -16.65 73.9 Q-38.95 82.25 -58.4 80.1 -59.5 79.4 -73.1 73.0 -86.7 66.6 -83.35 50.2 -80.15 34.25 -77.5 29.25 L-77.35 28.95 -75.4 25.55 -75.05 25.7 -74.55 25.85 -74.4 25.9 -73.75 27.55 Q-72.0 31.05 -66.95 33.15 L-66.05 33.45 -64.75 33.1 -63.9 32.8 -63.75 33.45 -62.85 36.75 -62.8 36.9 -65.75 39.75 -72.25 45.6 -75.85 48.9 -73.6 48.1 -70.8 47.2 Q-68.5 46.5 -65.75 45.2 L-64.15 44.5 -64.1 44.45 Q-61.25 43.15 -59.5 41.9 -61.25 43.15 -64.1 44.45 L-64.15 44.5 -65.75 45.2 -59.75 41.75 -59.5 41.9 -54.75 38.1 Q-49.7 33.6 -45.8 28.4 L-45.75 28.3 -45.5 27.95 -43.0 23.6 -40.05 19.65 Q-36.9 15.6 -37.65 12.5 -38.15 10.7 -39.95 9.2 L-40.5 9.5 -43.25 14.3 -46.35 12.1 -45.6 10.15 Q-45.55 8.8 -46.0 7.55 -47.1 4.85 -50.9 2.8 L-51.75 2.4 -50.9 2.8 Q-47.1 4.85 -46.0 7.55 L-46.9 9.8 Q-52.95 25.0 -68.65 24.85 L-68.85 24.05 -69.1 23.0 -69.3 22.5 -64.9 17.0 Q-64.05 15.85 -65.15 15.2 -66.3 14.5 -72.3 17.9 L-73.15 17.9 Q-75.25 17.9 -76.55 16.4 L-75.75 10.95 Q-75.1 7.45 -76.3 5.2 L-73.15 1.9 -72.9 1.7 Q-69.2 -1.9 -64.05 -5.7 L-62.35 -7.0 -62.2 -7.1 -59.6 -5.9 Q-59.3 -7.3 -59.15 -9.25 -58.7 -14.85 -57.25 -26.55 -55.8 -38.3 -51.2 -55.1 -46.6 -71.95 -39.4 -79.45 -32.25 -86.95 -41.5 -82.4 -45.4 -80.95 -48.35 -77.15 -52.1 -72.3 -56.15 -67.85 -61.65 -61.7 -63.65 -54.05 L-65.2 -51.3 -63.65 -54.05 Q-64.65 -50.35 -64.8 -46.25 L-65.0 -41.7 -65.1 -42.35 -65.15 -42.75 -65.2 -51.3 Q-69.3 -43.7 -71.05 -36.0 -78.0 -38.25 -85.1 -38.95 L-94.15 -40.0 -94.25 -40.0 Q-100.15 -40.4 -107.45 -42.95 L-113.25 -45.2 Q-118.7 -50.05 -116.15 -63.95 -113.65 -77.9 -103.15 -92.05 L-104.1 -90.9 -97.7 -98.7 -88.4 -109.15 Q-83.25 -115.15 -78.4 -118.2 L-75.5 -119.8 -73.3 -122.45 Q-65.4 -131.4 -55.15 -134.45 -52.05 -132.75 -44.7 -130.65 -37.4 -128.55 -37.1 -128.95 -36.8 -129.35 -39.75 -132.0 -42.7 -134.7 -48.15 -138.25 L-45.8 -140.1 -41.35 -143.65 -37.35 -146.6 Q-35.65 -141.4 -27.25 -135.2 -18.9 -129.0 -13.35 -106.15 -9.25 -89.3 -12.5 -91.05 L-12.95 -91.55 -15.75 -94.65 Q-30.4 -110.0 -49.15 -116.05 -66.95 -121.8 -67.9 -121.45 L-68.1 -121.45 -69.3 -121.4 -71.4 -121.15 Q-54.75 -119.6 -40.55 -110.9 -16.7 -96.4 -7.65 -70.85 -6.8 -68.5 -5.55 -66.6 L-5.8 -58.55 -6.6 -34.9 -7.4 -10.45 -13.9 46.4 -14.45 51.2 -15.5 60.6 M24.25 68.15 Q35.05 43.1 35.6 -29.8 L35.6 -36.8 35.55 -48.4 35.55 -49.05 35.6 -56.1 35.6 -56.4 35.65 -59.3 Q36.35 -67.9 42.45 -86.3 49.85 -108.6 65.8 -115.65 76.3 -105.95 80.25 -98.05 L87.2 -82.45 86.95 -83.0 Q87.65 -77.6 87.6 -71.75 87.5 -65.9 88.4 -65.45 89.3 -65.05 89.95 -66.55 L92.0 -71.7 103.6 -45.7 103.15 -43.85 Q88.3 -29.15 67.45 -35.75 58.05 -58.7 57.7 -94.2 L56.95 -92.15 Q51.2 -75.55 52.2 -52.05 52.95 -39.7 54.45 -25.1 55.2 -17.9 56.75 -8.55 L57.6 -4.15 59.1 2.65 61.0 9.75 Q61.95 13.15 63.05 16.4 63.55 23.1 63.7 29.9 63.75 31.7 64.65 32.9 69.05 38.7 69.7 31.85 L72.9 39.5 Q73.8 44.3 73.45 49.95 73.05 55.6 70.6 62.3 58.4 72.3 48.75 72.25 39.05 72.2 37.2 73.7 L37.1 73.8 33.2 73.5 21.15 74.0 Q22.8 71.5 24.25 68.15 M45.95 -140.35 Q48.2 -137.65 50.0 -134.2 49.25 -133.05 48.8 -129.9 L47.75 -122.9 Q47.1 -119.05 49.4 -124.2 51.7 -129.4 54.25 -128.7 L64.8 -119.65 62.8 -118.35 Q59.0 -116.1 52.75 -112.9 44.55 -108.75 39.9 -95.35 L38.45 -90.9 Q34.55 -101.7 33.4 -113.0 32.05 -126.4 41.85 -135.7 44.4 -138.15 45.95 -140.35 M79.45 7.6 L80.25 10.8 80.15 11.35 Q79.45 12.85 77.9 11.8 L74.25 8.7 Q72.2 6.7 72.65 8.3 L74.05 16.05 Q72.7 17.65 69.0 19.7 L68.95 19.9 Q69.55 14.2 62.15 5.85 63.1 3.95 63.6 1.7 64.25 -1.25 64.1 -3.8 75.55 -2.2 79.45 7.6 M35.8 304.25 L37.85 309.1 Q34.55 305.0 35.8 304.25 M37.9 309.15 L43.7 322.8 Q44.65 327.05 43.9 330.35 34.95 333.95 20.6 330.15 19.7 315.75 37.9 309.15 M16.75 334.75 L16.6 336.1 -28.5 336.1 Q-16.95 313.8 9.35 311.75 14.5 313.2 15.8 321.35 L16.4 323.85 16.4 324.0 16.45 324.3 16.85 329.0 Q17.0 332.1 16.75 334.75 M57.7 -94.2 L58.75 -96.9 57.7 -94.2 M61.45 48.7 Q68.8 44.9 67.35 43.2 66.25 43.75 62.4 44.6 53.55 46.5 49.25 44.0 44.9 41.5 43.7 41.55 42.5 41.6 48.3 47.1 54.05 52.55 61.45 48.7 M-20.35 -152.45 L-20.1 -153.05 -18.25 -153.45 -18.6 -151.2 -20.35 -152.45 M-75.5 -119.8 Q-73.45 -120.75 -71.4 -121.15 -73.45 -120.75 -75.5 -119.8 M-26.65 -143.45 L-27.2 -143.2 -27.4 -143.1 -27.55 -144.05 -26.65 -143.45 M-54.4 -1.15 Q-55.8 -3.85 -59.6 -5.9 -55.8 -3.85 -54.4 -1.15 -58.05 1.3 -57.5 6.45 -57.35 7.7 -56.5 7.4 -50.75 5.55 -51.15 2.7 L-51.75 2.4 -53.7 1.55 Q-53.8 0.25 -54.35 -0.95 L-54.4 -1.15 M-37.0 10.45 L-37.5 11.95 -37.65 12.5 -37.5 11.95 -37.0 10.45 M-34.95 54.1 Q-25.95 45.9 -28.45 43.4 L-28.4 44.55 Q-28.45 45.45 -37.55 50.9 -46.7 56.35 -51.85 56.35 L-59.55 56.35 Q-62.1 56.4 -53.0 59.35 -43.95 62.3 -34.95 54.1" fill="#4c97d9" fill-rule="evenodd" stroke="none"/>
    <path d="M13.35 -113.65 L14.4 -113.65 Q17.65 -114.5 20.15 -115.7 L20.65 -116.15 Q20.75 -112.0 25.05 -99.5 29.3 -87.05 28.95 -57.55 28.6 -28.05 27.65 2.25 L26.95 18.8 Q30.9 24.2 26.8 21.1 25.75 37.55 24.0 47.2 21.25 61.9 19.9 62.05 2.1 64.2 -15.5 60.6 L-14.45 51.2 Q-7.35 53.65 -0.1 55.55 11.9 58.7 20.6 54.35 14.5 51.85 6.4 50.8 -4.0 49.35 -13.9 46.4 L-7.4 -10.45 -6.6 -34.9 Q3.35 -9.7 19.5 9.55 L22.55 13.25 Q20.15 6.1 14.5 -4.05 6.35 -18.45 1.6 -34.2 L-5.8 -58.55 -5.55 -66.6 -5.5 -68.2 -5.05 -81.35 Q-5.85 -92.35 -7.4 -101.15 L-8.05 -104.55 Q-6.3 -99.1 3.2 -98.6 13.9 -98.1 20.05 -102.65 L5.1 -103.1 Q-3.2 -103.45 -9.75 -111.5 L-9.65 -111.15 Q-11.75 -118.6 -14.65 -123.9 -6.4 -113.9 12.7 -113.65 L13.35 -113.65 M36.4 -78.95 L36.25 -80.35 36.45 -79.85 36.4 -78.95 M43.9 330.35 Q42.65 335.6 37.05 338.5 24.95 339.45 16.75 334.75 17.0 332.1 16.85 329.0 L17.2 329.1 17.95 329.35 19.75 329.9 20.6 330.15 Q34.95 333.95 43.9 330.35 M16.6 336.1 Q15.95 340.2 14.35 343.15 L-38.75 343.15 Q-41.1 340.45 -41.8 336.1 L-28.5 336.1 16.6 336.1" fill="#1b2734" fill-rule="evenodd" stroke="none"/>
    <path d="M67.1 83.45 L79.75 155.1 Q88.9 190.55 79.15 203.95 62.0 235.0 55.5 255.8 49.9 273.65 49.65 294.9 L49.65 294.95 49.65 295.9 49.65 296.85 Q47.9 295.95 34.05 292.5 22.1 289.55 22.45 282.25 L21.5 285.2 Q21.2 285.75 21.05 286.55 20.8 288.2 21.6 289.55 L21.6 289.8 21.55 294.9 21.35 298.65 21.55 294.9 21.6 289.8 21.6 289.55 22.75 290.85 22.7 291.15 Q21.85 294.75 21.95 298.5 L21.35 298.65 Q20.9 305.65 19.6 312.1 L19.55 312.4 Q6.35 304.05 -10.75 304.6 -14.6 303.6 -16.2 305.35 -25.15 305.55 -34.6 308.5 -35.0 298.65 -36.2 288.9 -41.8 244.25 -43.5 199.65 -23.35 205.9 -33.95 201.05 L-44.45 182.75 Q-48.95 149.3 -48.95 135.65 -49.05 121.95 -48.45 107.85 -47.9 93.7 -44.1 86.15 -34.55 82.65 -12.25 73.35 9.9 71.4 13.8 73.9 17.7 76.35 28.55 77.45 48.0 79.4 67.1 83.45 M18.1 83.9 Q12.55 85.3 4.6 85.9 L4.6 82.95 4.6 85.9 4.6 133.2 11.4 194.15 15.55 231.15 Q15.0 207.85 25.35 187.05 L33.15 192.15 Q13.75 133.75 18.1 83.9 L23.9 81.85 18.1 83.9 M15.55 231.15 L20.85 279.0 20.85 279.1 21.45 284.65 21.5 285.2 21.45 284.65 20.85 279.1 20.85 279.0 15.55 231.15" fill="#283e5d" fill-rule="evenodd" stroke="none"/>
    <path d="M16.55 -213.65 Q5.9 -199.05 -12.05 -195.1 L-16.45 -194.35 Q-17.85 -184.35 -16.75 -175.0 -16.15 -169.8 -14.8 -164.75 L-18.05 -167.45 -20.6 -169.85 Q-23.1 -172.35 -25.05 -174.9 L-26.25 -169.55 Q-28.05 -160.9 -28.1 -153.4 L-28.1 -151.3 -27.9 -147.0 -27.55 -144.05 -27.4 -143.1 -27.8 -142.9 Q-47.9 -190.15 -32.1 -236.65 -45.35 -219.75 -50.25 -204.6 L-49.95 -205.45 Q-53.85 -207.65 -58.15 -207.7 -74.25 -207.95 -89.45 -212.55 L-71.4 -215.8 Q-82.6 -215.85 -93.0 -221.65 -95.4 -222.95 -97.75 -224.6 -86.5 -226.15 -76.0 -234.55 L-76.6 -234.85 -75.6 -234.9 Q-73.25 -235.2 -71.0 -236.65 -68.2 -238.45 -67.7 -241.5 L-67.5 -242.7 -68.1 -242.15 -67.5 -242.7 Q-67.25 -245.4 -67.9 -246.45 L-64.65 -246.15 -64.6 -246.1 -64.55 -246.15 -64.65 -246.15 Q-82.55 -250.95 -89.55 -262.4 L-90.0 -263.7 -91.9 -267.75 Q-75.25 -259.35 -53.95 -277.0 L-53.5 -277.4 16.5 -246.95 16.5 -213.7 16.55 -213.65 M-62.15 -246.15 L-63.7 -246.15 -64.55 -246.15 -63.7 -246.15 -62.15 -246.15 M-77.1 -246.65 Q-74.1 -246.5 -70.7 -246.6 L-71.3 -246.55 -73.8 -244.95 -74.8 -245.35 -77.1 -246.65 M-65.05 -245.1 L-67.5 -242.7 -65.05 -245.1 M-76.0 -234.55 L-75.6 -234.9 -76.0 -234.55 M-30.45 -238.75 L-32.1 -236.65 -30.45 -238.75 M-58.85 -198.1 L-58.0 -198.05 -51.95 -198.3 -52.0 -197.95 Q-55.55 -197.95 -58.85 -198.1 M-9.3 -220.65 L-9.5 -220.0 Q-14.8 -206.7 -16.45 -194.35 -14.8 -206.7 -9.5 -220.0 L-9.3 -220.65 M-55.8 -218.4 Q-63.8 -215.8 -71.4 -215.8 -63.8 -215.8 -55.8 -218.4 M-25.05 -174.9 Q-34.4 -187.05 -33.1 -201.85 -34.4 -187.05 -25.05 -174.9" fill="#132a4c" fill-rule="evenodd" stroke="none"/>
    <path d="M-5.6 -155.65 Q-7.55 -158.35 -8.75 -166.45 -10.3 -176.95 -5.35 -187.05 16.95 -186.6 39.25 -186.65 44.8 -174.3 53.9 -162.7 55.65 -160.45 57.6 -158.5 L57.0 -157.5 56.85 -157.3 56.55 -156.95 56.4 -156.75 56.2 -156.5 55.8 -156.0 55.65 -155.8 55.45 -155.6 55.3 -155.35 55.2 -155.3 55.1 -155.15 Q51.9 -151.45 48.15 -148.55 45.05 -146.25 41.6 -144.45 35.2 -141.15 27.45 -139.75 L26.9 -139.9 27.4 -139.75 Q11.85 -147.8 -3.6 -154.1 L-4.0 -154.4 -5.6 -155.65 M63.55 -168.95 L63.8 -169.5 61.95 -171.4 64.1 -171.8 64.9 -172.1 64.25 -170.45 63.95 -169.75 63.55 -168.95 M65.6 -174.0 Q63.3 -185.0 53.65 -194.3 44.05 -203.6 32.95 -209.55 L66.2 -201.2 Q67.85 -199.15 68.6 -196.35 69.4 -193.25 69.15 -189.15 68.75 -183.4 66.2 -175.75 L65.6 -174.0 M-1.1 -179.9 Q-3.1 -179.7 -2.95 -177.75 -2.75 -174.25 1.7 -174.6 3.15 -174.7 3.7 -176.0 5.75 -180.95 -1.1 -179.9 M20.5 -125.9 L20.75 -125.85 Q18.45 -124.8 17.2 -123.95 L17.7 -125.5 20.5 -125.9 17.7 -125.5 17.2 -123.95 Q14.4 -122.1 16.5 -121.05 14.25 -117.7 13.35 -113.65 L12.7 -113.65 Q-6.4 -113.9 -14.65 -123.9 -15.9 -126.2 -17.3 -128.1 L-19.15 -130.35 Q-24.65 -136.45 -26.9 -140.55 -26.65 -140.05 -13.65 -132.45 -0.7 -124.9 20.5 -125.9 M4.45 -121.05 L0.8 -125.3 -17.3 -128.1 0.8 -125.3 4.45 -121.05 M99.05 -34.5 L99.15 -32.4 Q98.9 -24.9 93.95 -16.65 L79.45 7.6 Q75.55 -2.2 64.1 -3.8 L63.35 -3.9 Q64.95 -8.35 68.0 -12.65 L74.65 -21.5 Q78.25 -26.0 87.9 -29.5 97.5 -33.05 99.05 -34.5 M-81.0 11.8 L-109.8 -18.9 Q-123.05 -34.0 -115.8 -44.65 L-115.7 -44.8 -115.35 -45.3 -114.9 -45.9 -113.25 -45.2 -107.45 -42.95 Q-102.75 -38.15 -96.9 -33.9 -79.65 -21.4 -73.75 -0.7 L-72.9 1.7 -73.15 1.9 -76.3 5.2 -77.0 6.0 Q-79.55 8.95 -81.0 11.8 M-27.2 -143.2 L-26.65 -143.45 -26.4 -143.6 -25.95 -143.8 -27.2 -143.2" fill="#ffe8d7" fill-rule="evenodd" stroke="none"/>
    <path d="M68.95 19.9 L68.95 20.1 68.8 20.8 65.7 23.5 65.55 23.1 65.4 22.8 63.3 17.0 63.05 16.35 63.05 16.4 Q61.95 13.15 61.0 9.75 L59.1 2.65 61.3 4.9 62.15 5.85 Q69.55 14.2 68.95 19.9 M-46.35 12.1 L-43.25 14.3 -42.85 14.6 -42.8 14.65 -39.4 17.1 -39.8 17.95 -43.0 23.6 -45.5 27.95 -45.75 28.3 -45.8 28.4 Q-49.7 33.6 -54.75 38.1 L-59.5 41.9 -59.75 41.75 Q-61.45 40.6 -62.8 36.9 L-62.85 36.75 -63.75 33.45 -63.9 32.8 Q-57.2 30.4 -52.1 23.2 -49.65 19.65 -47.55 14.95 L-46.35 12.1" fill="#121b25" fill-rule="evenodd" stroke="none"/>
    <path d="M57.6 -158.5 L63.55 -168.95 63.95 -169.75 64.25 -170.45 64.9 -172.1 65.3 -173.2 65.6 -174.0 66.2 -175.75 Q68.75 -183.4 69.15 -189.15 L79.95 -180.4 Q78.3 -163.7 68.55 -153.0 64.05 -148.15 57.9 -144.5 L67.4 -162.7 Q61.1 -151.45 47.85 -144.85 45.75 -143.8 43.5 -142.9 L43.45 -142.9 48.15 -148.55 Q51.9 -151.45 55.1 -155.15 L55.2 -155.3 55.3 -155.35 55.45 -155.6 55.65 -155.8 55.8 -156.0 56.2 -156.5 56.4 -156.75 56.55 -156.95 56.85 -157.3 57.0 -157.5 57.6 -158.5 M70.4 -169.6 Q69.45 -166.7 68.1 -164.05 L67.7 -163.25 67.4 -162.7 67.7 -163.25 68.1 -164.05 Q69.45 -166.7 70.4 -169.6 M-33.55 -148.95 Q-38.5 -155.8 -41.7 -162.5 -43.3 -165.8 -44.45 -169.05 L-44.55 -169.35 Q-51.5 -189.1 -43.35 -207.75 -51.5 -189.1 -44.55 -169.35 L-44.45 -169.05 -43.85 -165.5 -41.95 -154.25 -44.85 -159.0 Q-47.75 -164.05 -49.65 -169.1 -48.7 -165.2 -51.05 -161.25 -53.75 -156.85 -60.55 -152.45 -55.75 -160.5 -56.95 -173.8 L-57.35 -177.4 Q-62.25 -172.35 -69.1 -170.55 -74.05 -169.25 -80.0 -169.65 -67.4 -178.65 -60.65 -195.65 L-60.25 -196.65 -59.7 -198.15 Q-78.95 -199.3 -88.95 -207.55 -91.4 -209.5 -93.25 -211.9 L-89.45 -212.55 Q-74.25 -207.95 -58.15 -207.7 -53.85 -207.65 -49.95 -205.45 L-50.25 -204.6 Q-45.35 -219.75 -32.1 -236.65 -47.9 -190.15 -27.8 -142.9 L-28.0 -142.85 -27.95 -142.75 -27.95 -142.7 -27.8 -142.4 -26.9 -140.55 -33.55 -148.95 M-76.6 -234.85 Q-85.65 -239.95 -88.0 -248.5 -83.3 -247.05 -77.1 -246.65 L-74.8 -245.35 -73.8 -244.95 -71.3 -246.55 -70.7 -246.6 -69.3 -246.65 -69.1 -246.6 -67.9 -246.45 Q-67.25 -245.4 -67.5 -242.7 L-68.1 -242.15 -67.5 -242.7 -67.7 -241.5 Q-68.2 -238.45 -71.0 -236.65 -73.25 -235.2 -75.6 -234.9 L-76.6 -234.85 M-67.5 -242.7 L-75.6 -234.9 -67.5 -242.7 M-58.85 -198.1 L-59.7 -198.15 -58.85 -198.1 Q-55.55 -197.95 -52.0 -197.95 L-52.1 -197.55 Q-53.5 -190.55 -52.9 -183.45 -54.85 -180.0 -57.35 -177.4 -54.85 -180.0 -52.9 -183.45 -53.5 -190.55 -52.1 -197.55 L-52.0 -197.95 -51.95 -198.3 -58.0 -198.05 -58.85 -198.1 M-50.25 -204.6 Q-51.25 -201.6 -51.85 -198.65 L-51.95 -198.3 -51.85 -198.65 Q-51.25 -201.6 -50.25 -204.6 M-22.15 -152.6 Q-22.75 -161.5 -26.25 -169.55 L-25.05 -174.9 Q-23.1 -172.35 -20.6 -169.85 L-18.05 -167.45 -18.05 -164.5 -18.05 -157.9 -20.1 -153.05 -20.35 -152.45 -22.0 -148.7 Q-22.0 -150.65 -22.15 -152.6 M-49.65 -169.1 L-50.4 -171.3 Q-52.4 -177.4 -52.9 -183.45 -52.4 -177.4 -50.4 -171.3 L-49.65 -169.1" fill="#091425" fill-rule="evenodd" stroke="none"/>
    <path d="M-16.2 66.7 L-8.9 66.75 -8.9 66.7 0.1 67.9 Q12.95 69.2 24.25 68.15 22.8 71.5 21.15 74.0 L33.2 73.5 37.1 73.8 Q43.35 74.25 49.05 74.1 57.8 73.85 65.1 72.2 L67.1 83.45 Q48.0 79.4 28.55 77.45 17.7 76.35 13.8 73.9 9.9 71.4 -12.25 73.35 -34.55 82.65 -44.1 86.15 -47.9 93.7 -48.45 107.85 -49.05 121.95 -48.95 135.65 -48.95 149.3 -44.45 182.75 L-33.95 201.05 Q-23.35 205.9 -43.5 199.65 -41.8 244.25 -36.2 288.9 -35.0 298.65 -34.6 308.5 -25.15 305.55 -16.2 305.35 -14.6 303.6 -10.75 304.6 6.35 304.05 19.55 312.4 L18.8 315.5 18.7 315.9 16.8 323.05 16.45 324.3 16.4 324.0 16.4 323.85 15.8 321.35 Q14.5 313.2 9.35 311.75 L9.05 311.65 6.95 311.2 6.7 311.4 Q2.25 311.05 -0.4 311.3 L-21.5 311.75 -23.5 312.4 -25.65 313.15 -25.85 313.25 Q-29.5 314.65 -33.0 316.65 L-37.5 321.75 Q-40.0 325.0 -41.25 328.0 L-41.3 328.1 -41.35 328.2 -42.0 330.1 -42.05 330.3 -42.1 330.45 Q-42.5 332.0 -42.55 333.45 -50.2 331.55 -51.65 313.3 -50.55 222.5 -63.7 141.4 -68.3 111.85 -69.5 91.75 L-69.55 91.2 -69.85 84.1 -68.6 78.2 -67.9 78.4 -59.6 79.95 -58.4 80.1 Q-38.95 82.25 -16.65 73.9 L-17.05 73.95 -16.2 66.7 M49.65 296.85 L49.7 301.5 49.7 301.8 Q42.65 301.65 33.8 299.6 L33.25 299.45 32.3 299.25 28.95 298.65 Q24.4 297.95 21.95 298.5 21.85 294.75 22.7 291.15 L22.75 290.85 21.6 289.55 Q20.8 288.2 21.05 286.55 21.2 285.75 21.5 285.2 L21.6 289.55 21.5 285.2 22.45 282.25 Q22.1 289.55 34.05 292.5 47.9 295.95 49.65 296.85 M4.6 85.9 Q12.55 85.3 18.1 83.9 13.75 133.75 33.15 192.15 L25.35 187.05 Q15.0 207.85 15.55 231.15 L11.4 194.15 20.45 177.2 4.6 133.2 4.6 85.9" fill="#182538" fill-rule="evenodd" stroke="none"/>
    <path d="M25.1 -140.35 L26.15 -140.05 26.55 -140.0 26.75 -139.95 26.9 -139.9 27.45 -139.75 Q35.2 -141.15 41.6 -144.45 L42.7 -143.6 42.8 -143.5 43.45 -142.9 43.5 -142.9 45.65 -140.7 45.95 -140.35 Q44.4 -138.15 41.85 -135.7 32.05 -126.4 33.4 -113.0 34.55 -101.7 38.45 -90.9 L39.9 -95.35 Q44.55 -108.75 52.75 -112.9 59.0 -116.1 62.8 -118.35 L63.8 -117.45 63.95 -117.35 64.05 -117.25 65.8 -115.65 Q49.85 -108.6 42.45 -86.3 36.35 -67.9 35.65 -59.3 35.85 -69.6 36.4 -78.95 L36.45 -79.85 Q35.9 -81.8 37.4 -87.35 L38.45 -90.9 37.4 -87.35 Q35.9 -81.8 36.45 -79.85 L36.25 -80.35 Q27.55 -103.5 28.6 -125.35 L28.7 -127.15 28.75 -128.25 29.25 -130.55 29.45 -131.3 Q29.6 -134.6 25.8 -139.5 L25.1 -140.35 M29.45 -131.3 Q30.65 -135.05 33.7 -138.3 30.65 -135.05 29.45 -131.3 M-8.05 -104.55 L-7.4 -101.15 Q-5.85 -92.35 -5.05 -81.35 L-5.5 -68.2 -5.55 -66.6 Q-6.8 -68.5 -7.65 -70.85 -16.7 -96.4 -40.55 -110.9 -54.75 -119.6 -71.4 -121.15 L-69.3 -121.4 -68.1 -121.45 -67.9 -121.45 Q-66.95 -121.8 -49.15 -116.05 -30.4 -110.0 -15.75 -94.65 L-12.95 -91.55 -12.5 -91.05 Q-9.25 -89.3 -13.35 -106.15 -18.9 -129.0 -27.25 -135.2 -35.65 -141.4 -37.35 -146.6 L-34.9 -148.2 -33.55 -148.95 -26.9 -140.55 Q-24.65 -136.45 -19.15 -130.35 L-17.3 -128.1 Q-15.9 -126.2 -14.65 -123.9 -11.75 -118.6 -9.65 -111.15 L-9.35 -110.05 -8.4 -106.05 -8.3 -105.65 -8.05 -104.55 M50.0 -134.2 L50.05 -134.1 51.5 -131.05 54.25 -128.7 Q51.7 -129.4 49.4 -124.2 47.1 -119.05 47.75 -122.9 L48.8 -129.9 Q49.25 -133.05 50.0 -134.2 M87.2 -82.45 L87.3 -82.3 92.0 -71.7 89.95 -66.55 Q89.3 -65.05 88.4 -65.45 87.5 -65.9 87.6 -71.75 87.65 -77.6 86.95 -83.0 L87.2 -82.45 M103.15 -43.85 Q102.5 -42.4 101.05 -40.25 L98.8 -36.75 Q83.8 -27.5 76.2 -26.65 L64.8 -26.0 Q55.2 -26.05 54.45 -25.1 52.95 -39.7 52.2 -52.05 51.2 -75.55 56.95 -92.15 L57.7 -94.2 Q58.05 -58.7 67.45 -35.75 88.3 -29.15 103.15 -43.85 M80.15 11.35 L80.15 11.5 80.15 11.55 80.1 11.7 Q79.05 17.1 76.25 18.4 76.05 23.45 74.6 25.05 71.05 28.9 66.85 26.15 L65.9 24.05 65.75 23.65 65.7 23.5 68.8 20.8 68.95 20.1 68.95 19.9 69.0 19.7 Q72.7 17.65 74.05 16.05 L72.65 8.3 Q72.2 6.7 74.25 8.7 L77.9 11.8 Q79.45 12.85 80.15 11.35 M66.9 26.4 L69.7 31.85 Q69.05 38.7 64.65 32.9 63.75 31.7 63.7 29.9 63.55 23.1 63.05 16.4 L63.05 16.35 63.3 17.0 65.4 22.8 65.55 23.1 65.7 23.5 65.65 23.5 65.9 24.05 66.8 26.15 66.9 26.4 M72.9 39.5 Q78.7 55.35 75.8 68.65 70.9 70.85 65.1 72.2 57.8 73.85 49.05 74.1 43.35 74.25 37.1 73.8 L37.2 73.7 Q39.05 72.2 48.75 72.25 58.4 72.3 70.6 62.3 73.05 55.6 73.45 49.95 73.8 44.3 72.9 39.5 M33.8 299.6 L35.8 304.25 Q34.55 305.0 37.85 309.1 L37.9 309.15 37.85 309.1 37.9 309.15 Q19.7 315.75 20.6 330.15 L19.75 329.9 17.95 329.35 17.2 329.1 16.85 329.0 16.45 324.3 16.8 323.05 18.7 315.9 18.8 315.5 19.55 312.4 19.6 312.1 Q20.9 305.65 21.35 298.65 L21.95 298.5 Q24.4 297.95 28.95 298.65 L32.3 299.25 33.25 299.45 33.8 299.6 M-41.8 336.1 Q-42.25 333.55 -42.1 330.45 L-42.05 330.3 -42.0 330.1 -41.35 328.2 -41.3 328.1 -41.25 328.0 Q-40.0 325.0 -37.5 321.75 L-33.0 316.65 Q-29.5 314.65 -25.85 313.25 L-25.65 313.15 -23.5 312.4 -21.5 311.75 -0.4 311.3 Q2.25 311.05 6.7 311.4 L8.35 311.5 6.95 311.2 9.05 311.65 9.35 311.75 Q-16.95 313.8 -28.5 336.1 L-41.8 336.1 M-68.6 78.2 Q-89.15 73.7 -96.15 74.7 -94.6 59.75 -77.5 29.25 -80.15 34.25 -83.35 50.2 -86.7 66.6 -73.1 73.0 -59.5 79.4 -58.4 80.1 L-59.6 79.95 -67.9 78.4 -68.6 78.2 M-75.4 25.55 L-75.5 25.55 -76.7 25.05 -76.9 24.95 Q-79.45 23.7 -80.95 21.95 -82.5 20.15 -82.85 17.85 L-82.9 17.65 -82.9 17.5 -82.9 17.4 -82.9 17.3 -82.95 17.15 -82.95 17.05 -82.95 16.95 -82.95 16.85 Q-82.4 14.4 -81.0 11.8 -79.55 8.95 -77.0 6.0 L-76.3 5.2 Q-75.1 7.45 -75.75 10.95 L-76.55 16.4 Q-75.25 17.9 -73.15 17.9 L-72.3 17.9 Q-66.3 14.5 -65.15 15.2 -64.05 15.85 -64.9 17.0 L-69.3 22.5 -69.1 23.0 -68.85 24.05 -68.65 24.85 Q-52.95 25.0 -46.9 9.8 L-46.0 7.55 Q-45.55 8.8 -45.6 10.15 L-46.35 12.1 -47.55 14.95 Q-49.65 19.65 -52.1 23.2 -57.2 30.4 -63.9 32.8 L-64.75 33.1 -66.05 33.45 -66.95 33.15 Q-72.0 31.05 -73.75 27.55 L-74.4 25.9 -74.55 25.85 -75.05 25.7 -75.4 25.55 M-114.9 -45.9 L-116.9 -46.75 Q-125.9 -50.9 -129.65 -56.9 -124.7 -61.7 -114.2 -76.85 L-112.85 -78.8 -112.6 -79.2 -112.3 -79.6 -111.75 -80.4 -111.65 -80.55 -111.25 -81.1 -104.1 -90.9 -103.15 -92.05 Q-113.65 -77.9 -116.15 -63.95 -118.7 -50.05 -113.25 -45.2 L-114.9 -45.9 M-55.15 -134.45 L-55.0 -134.5 -52.15 -135.25 -48.15 -138.25 Q-42.7 -134.7 -39.75 -132.0 -36.8 -129.35 -37.1 -128.95 -37.4 -128.55 -44.7 -130.65 -52.05 -132.75 -55.15 -134.45 M57.6 -4.15 L58.15 -4.15 61.0 -4.1 62.75 -4.0 63.35 -3.9 64.1 -3.8 Q64.25 -1.25 63.6 1.7 63.1 3.95 62.15 5.85 L61.3 4.9 59.1 2.65 57.6 -4.15 M63.3 17.0 L63.05 16.4 63.3 17.0 M61.45 48.7 Q54.05 52.55 48.3 47.1 42.5 41.6 43.7 41.55 44.9 41.5 49.25 44.0 53.55 46.5 62.4 44.6 66.25 43.75 67.35 43.2 68.8 44.9 61.45 48.7 M-28.1 -151.3 L-26.6 -151.65 -26.15 -151.75 -26.1 -151.7 -22.15 -152.6 Q-22.0 -150.65 -22.0 -148.7 L-20.35 -152.45 -18.6 -151.2 -19.25 -146.85 -19.3 -146.9 -25.5 -144.0 -25.95 -143.8 -26.4 -143.6 -26.65 -143.45 -27.55 -144.05 -27.9 -147.0 -28.1 -151.3 M-25.15 -148.45 L-27.9 -147.0 -25.15 -148.45 M-63.65 -54.05 Q-61.65 -61.7 -56.15 -67.85 -52.1 -72.3 -48.35 -77.15 -45.4 -80.95 -41.5 -82.4 -32.25 -86.95 -39.4 -79.45 -46.6 -71.95 -51.2 -55.1 -55.8 -38.3 -57.25 -26.55 -58.7 -14.85 -59.15 -9.25 -59.3 -7.3 -59.6 -5.9 L-62.2 -7.1 -62.35 -7.0 -64.05 -5.7 -64.4 -6.25 -64.8 -6.85 -63.9 -11.9 -63.8 -12.75 -63.75 -13.0 -63.75 -13.2 -63.7 -13.8 -63.6 -14.55 -63.55 -15.25 -63.55 -15.5 -64.95 -41.4 -65.0 -41.7 -64.8 -46.25 Q-64.65 -50.35 -63.65 -54.05 -56.3 -66.55 -42.7 -78.8 L-40.95 -80.7 -42.7 -78.8 Q-56.3 -66.55 -63.65 -54.05 M-54.4 -1.15 L-54.35 -0.95 Q-53.8 0.25 -53.7 1.55 L-51.75 2.4 -51.15 2.7 Q-50.75 5.55 -56.5 7.4 -57.35 7.7 -57.5 6.45 -58.05 1.3 -54.4 -1.15 M-43.25 14.3 L-40.5 9.5 -39.95 9.2 Q-38.15 10.7 -37.65 12.5 L-39.4 17.1 -37.65 12.5 Q-36.9 15.6 -40.05 19.65 L-43.0 23.6 -39.8 17.95 -39.4 17.1 -42.8 14.65 -42.85 14.6 -43.25 14.3 M-12.5 -91.05 Q-8.6 -86.55 -5.05 -81.35 -8.6 -86.55 -12.5 -91.05 M-34.95 54.1 Q-43.95 62.3 -53.0 59.35 -62.1 56.4 -59.55 56.35 L-51.85 56.35 Q-46.7 56.35 -37.55 50.9 -28.45 45.45 -28.4 44.55 L-28.45 43.4 Q-25.95 45.9 -34.95 54.1 M-62.8 36.9 Q-61.45 40.6 -59.75 41.75 L-65.75 45.2 Q-68.5 46.5 -70.8 47.2 L-73.6 48.1 -75.85 48.9 -72.25 45.6 -65.75 39.75 -62.8 36.9 M-58.4 80.1 L-59.6 79.95 -58.4 80.1" fill="#3572b4" fill-rule="evenodd" stroke="none"/>
    <path d="M20.65 -116.15 L27.5 -122.2 27.6 -122.4 27.65 -122.5 27.75 -122.7 27.85 -122.95 28.05 -123.4 28.1 -123.55 28.15 -123.65 28.2 -123.8 28.25 -124.0 28.3 -124.25 28.35 -124.4 28.45 -124.65 28.45 -124.8 28.6 -125.35 Q27.55 -103.5 36.25 -80.35 L36.4 -78.95 Q35.85 -69.6 35.65 -59.3 L35.6 -56.4 35.6 -56.1 35.55 -49.05 35.55 -48.4 35.6 -36.8 35.6 -29.8 Q35.05 43.1 24.25 68.15 12.95 69.2 0.1 67.9 L-8.9 66.7 -8.9 66.75 -16.2 66.7 -15.5 60.6 Q2.1 64.2 19.9 62.05 21.25 61.9 24.0 47.2 25.75 37.55 26.8 21.1 30.9 24.2 26.95 18.8 L27.65 2.25 Q28.6 -28.05 28.95 -57.55 29.3 -87.05 25.05 -99.5 20.75 -112.0 20.65 -116.15 M-9.65 -111.15 L-9.75 -111.5 Q-3.2 -103.45 5.1 -103.1 L20.05 -102.65 Q13.9 -98.1 3.2 -98.6 -6.3 -99.1 -8.05 -104.55 L-8.3 -105.65 -8.4 -106.05 -9.35 -110.05 -9.65 -111.15 M-5.8 -58.55 L1.6 -34.2 Q6.35 -18.45 14.5 -4.05 20.15 6.1 22.55 13.25 L19.5 9.55 Q3.35 -9.7 -6.6 -34.9 L-5.8 -58.55 M-13.9 46.4 Q-4.0 49.35 6.4 50.8 14.5 51.85 20.6 54.35 11.9 58.7 -0.1 55.55 -7.35 53.65 -14.45 51.2 L-13.9 46.4" fill="#070a0e" fill-rule="evenodd" stroke="none"/>
    <path d="M16.55 -213.65 L32.55 -209.65 32.95 -209.55 Q44.05 -203.6 53.65 -194.3 63.3 -185.0 65.6 -174.0 L65.3 -173.2 64.9 -172.1 64.1 -171.8 61.95 -171.4 63.8 -169.5 63.55 -168.95 57.6 -158.5 Q55.65 -160.45 53.9 -162.7 44.8 -174.3 39.25 -186.65 16.95 -186.6 -5.35 -187.05 -10.3 -176.95 -8.75 -166.45 -7.55 -158.35 -5.6 -155.65 -10.65 -159.8 -14.8 -164.75 -10.65 -159.8 -5.6 -155.65 L-4.0 -154.4 -3.6 -154.1 Q11.85 -147.8 27.4 -139.75 L26.9 -139.9 26.75 -139.95 26.55 -140.0 26.15 -140.05 25.1 -140.35 23.3 -140.9 Q12.8 -144.05 4.25 -148.95 12.8 -144.05 23.3 -140.9 L25.1 -140.35 25.8 -139.5 Q29.6 -134.6 29.45 -131.3 L29.25 -130.55 28.75 -128.25 28.7 -127.15 28.6 -125.35 28.45 -124.8 28.45 -124.65 28.35 -124.4 28.3 -124.25 28.25 -124.0 28.2 -123.8 28.15 -123.65 28.1 -123.55 28.05 -123.4 27.85 -122.95 27.75 -122.7 27.65 -122.5 27.6 -122.4 27.5 -122.2 20.65 -116.15 20.15 -115.7 Q17.65 -114.5 14.4 -113.65 L13.35 -113.65 Q14.25 -117.7 16.5 -121.05 14.4 -122.1 17.2 -123.95 18.45 -124.8 20.75 -125.85 L20.5 -125.9 28.7 -127.15 20.5 -125.9 Q-0.7 -124.9 -13.65 -132.45 -26.65 -140.05 -26.9 -140.55 L-27.4 -143.1 -27.2 -143.2 -25.95 -143.8 -25.5 -144.0 -19.3 -146.9 -19.25 -146.85 -18.6 -151.2 -18.25 -153.45 -18.0 -155.35 -18.05 -155.5 -18.05 -157.9 -18.05 -164.5 -18.05 -167.45 -14.8 -164.75 Q-16.15 -169.8 -16.75 -175.0 -17.85 -184.35 -16.45 -194.35 L-12.05 -195.1 Q5.9 -199.05 16.55 -213.65 M4.0 -149.15 L-1.4 -152.6 -1.45 -152.65 -2.95 -153.6 -3.2 -153.8 -3.6 -154.1 -3.2 -153.8 -2.95 -153.6 -1.45 -152.65 -1.4 -152.6 4.0 -149.15 M16.35 -121.45 L17.2 -123.95 16.35 -121.45 M23.3 -130.7 Q21.05 -135.0 23.3 -140.9 21.05 -135.0 23.3 -130.7 M98.8 -36.75 L98.85 -36.75 98.85 -36.8 98.9 -36.5 99.05 -34.5 Q97.5 -33.05 87.9 -29.5 78.25 -26.0 74.65 -21.5 L68.0 -12.65 Q64.95 -8.35 63.35 -3.9 L62.75 -4.0 61.0 -4.1 58.15 -4.15 57.6 -4.15 56.75 -8.55 64.8 -26.0 76.2 -26.65 Q83.8 -27.5 98.8 -36.75 M-21.5 -141.9 L-19.3 -146.9 -21.5 -141.9 M-107.45 -42.95 Q-100.15 -40.4 -94.25 -40.0 L-94.15 -40.0 -85.1 -38.95 -65.1 -7.35 -64.8 -6.85 -65.1 -7.35 -64.8 -6.85 -64.4 -6.25 -64.8 -6.85 -64.4 -6.25 -64.05 -5.7 Q-69.2 -1.9 -72.9 1.7 L-73.75 -0.7 Q-79.65 -21.4 -96.9 -33.9 -102.75 -38.15 -107.45 -42.95" fill="#e0bcaa" fill-rule="evenodd" stroke="none"/>
    <path d="M-1.1 -179.9 Q5.75 -180.95 3.7 -176.0 3.15 -174.7 1.7 -174.6 -2.75 -174.25 -2.95 -177.75 -3.1 -179.7 -1.1 -179.9" fill="#fffce9" fill-rule="evenodd" stroke="none"/>
    <path d="M32.55 -209.65 L16.55 -213.65 Q5.9 -199.05 -12.05 -195.1 L-16.45 -194.35 Q-17.85 -184.35 -16.75 -175.0 -16.15 -169.8 -14.8 -164.75 -10.65 -159.8 -5.6 -155.65 L-4.0 -154.4 -3.6 -154.1 -3.2 -153.8 -2.95 -153.6 -1.45 -152.65 -1.4 -152.6 4.0 -149.15 M57.6 -158.5 L63.55 -168.95 63.95 -169.75 64.25 -170.45 64.9 -172.1 65.3 -173.2 M16.55 -213.65 L16.5 -213.7 16.5 -246.95 -53.5 -277.4 -53.95 -277.0 Q-75.25 -259.35 -91.9 -267.75 L-90.0 -263.7 -89.55 -262.4 Q-82.55 -250.95 -64.65 -246.15 L-64.55 -246.15 -63.7 -246.15 -62.15 -246.15 M69.15 -189.15 Q69.4 -193.25 68.6 -196.35 67.85 -199.15 66.2 -201.2 L32.95 -209.55 M69.15 -189.15 Q68.75 -183.4 66.2 -175.75 L65.6 -174.0 M67.4 -162.7 L57.9 -144.5 Q64.05 -148.15 68.55 -153.0 78.3 -163.7 79.95 -180.4 L69.15 -189.15 M57.6 -158.5 L57.0 -157.5 56.85 -157.3 56.55 -156.95 56.4 -156.75 56.2 -156.5 55.8 -156.0 55.65 -155.8 55.45 -155.6 55.3 -155.35 55.2 -155.3 55.1 -155.15 Q51.9 -151.45 48.15 -148.55 L43.45 -142.9 43.5 -142.9 Q45.75 -143.8 47.85 -144.85 61.1 -151.45 67.4 -162.7 L67.7 -163.25 68.1 -164.05 Q69.45 -166.7 70.4 -169.6 M4.25 -148.95 Q12.8 -144.05 23.3 -140.9 L25.1 -140.35 26.15 -140.05 26.55 -140.0 26.75 -139.95 26.9 -139.9 27.45 -139.75 Q35.2 -141.15 41.6 -144.45 45.05 -146.25 48.15 -148.55 M28.7 -127.15 L28.75 -128.25 29.25 -130.55 29.45 -131.3 Q29.6 -134.6 25.8 -139.5 L25.1 -140.35 M17.2 -123.95 L16.35 -121.45 M20.65 -116.15 L27.5 -122.2 27.6 -122.4 27.65 -122.5 27.75 -122.7 27.85 -122.95 28.05 -123.4 28.1 -123.55 28.15 -123.65 28.2 -123.8 28.25 -124.0 28.3 -124.25 28.35 -124.4 28.45 -124.65 28.45 -124.8 28.6 -125.35 28.7 -127.15 20.5 -125.9 17.7 -125.5 17.2 -123.95 M14.4 -113.65 Q17.65 -114.5 20.15 -115.7 L20.65 -116.15 M-15.5 60.6 L-16.2 66.7 -8.9 66.75 -8.9 66.7 0.1 67.9 Q12.95 69.2 24.25 68.15 35.05 43.1 35.6 -29.8 L35.6 -36.8 35.55 -48.4 35.55 -49.05 35.6 -56.1 35.6 -56.4 35.65 -59.3 Q35.85 -69.6 36.4 -78.95 L36.45 -79.85 Q35.9 -81.8 37.4 -87.35 L38.45 -90.9 39.9 -95.35 Q44.55 -108.75 52.75 -112.9 59.0 -116.1 62.8 -118.35 L63.8 -117.45 63.95 -117.35 64.05 -117.25 65.8 -115.65 Q76.3 -105.95 80.25 -98.05 L87.2 -82.45 87.3 -82.3 92.0 -71.7 103.6 -45.7 103.15 -43.85 Q102.5 -42.4 101.05 -40.25 L98.8 -36.75 98.85 -36.75 98.85 -36.8 98.9 -36.5 99.05 -34.5 99.15 -32.4 Q98.9 -24.9 93.95 -16.65 L79.45 7.6 80.25 10.8 80.15 11.35 M36.25 -80.35 Q27.55 -103.5 28.6 -125.35 M23.3 -140.9 Q21.05 -135.0 23.3 -130.7 M33.7 -138.3 Q30.65 -135.05 29.45 -131.3 M-14.65 -123.9 Q-6.4 -113.9 12.7 -113.65 L13.35 -113.65 M-8.05 -104.55 L-7.4 -101.15 Q-5.85 -92.35 -5.05 -81.35 L-5.5 -68.2 -5.55 -66.6 -5.8 -58.55 -6.6 -34.9 -7.4 -10.45 -13.9 46.4 -14.45 51.2 -15.5 60.6 M-17.3 -128.1 L0.8 -125.3 4.45 -121.05 M43.45 -142.9 L42.8 -143.5 42.7 -143.6 41.6 -144.45 M43.45 -142.9 L43.5 -142.9 45.65 -140.7 45.95 -140.35 Q48.2 -137.65 50.0 -134.2 L50.05 -134.1 51.5 -131.05 54.25 -128.7 64.8 -119.65 62.8 -118.35 M80.15 11.5 L80.15 11.55 80.1 11.7 Q79.05 17.1 76.25 18.4 76.05 23.45 74.6 25.05 71.05 28.9 66.85 26.15 67.1 26.75 66.9 26.3 L66.9 26.4 69.7 31.85 72.9 39.5 Q78.7 55.35 75.8 68.65 70.9 70.85 65.1 72.2 L67.1 83.45 79.75 155.1 Q88.9 190.55 79.15 203.95 62.0 235.0 55.5 255.8 49.9 273.65 49.65 294.9 M49.65 294.95 L49.65 295.9 49.65 296.85 49.7 301.5 49.7 301.8 Q42.65 301.65 33.8 299.6 L35.8 304.25 37.85 309.1 37.9 309.15 43.7 322.8 Q44.65 327.05 43.9 330.35 42.65 335.6 37.05 338.5 24.95 339.45 16.75 334.75 L16.6 336.1 Q15.95 340.2 14.35 343.15 L-38.75 343.15 Q-41.1 340.45 -41.8 336.1 -42.25 333.55 -42.1 330.45 -42.5 332.0 -42.55 333.45 -50.2 331.55 -51.65 313.3 -50.55 222.5 -63.7 141.4 -68.3 111.85 -69.5 91.75 M-69.55 91.2 L-69.85 84.1 -68.6 78.2 Q-89.15 73.7 -96.15 74.7 -94.6 59.75 -77.5 29.25 L-77.35 28.95 -75.4 25.55 -75.05 25.7 -74.55 25.85 -74.4 25.9 -73.75 27.55 Q-72.0 31.05 -66.95 33.15 L-66.05 33.45 -64.75 33.1 -63.9 32.8 -63.75 33.45 -62.85 36.75 -62.8 36.9 M-75.5 25.55 L-76.7 25.05 -76.9 24.95 Q-79.45 23.7 -80.95 21.95 -82.5 20.15 -82.85 17.85 L-82.9 17.65 -82.9 17.5 -82.9 17.4 -82.9 17.3 -82.95 17.15 -82.95 17.05 -82.95 16.95 -82.95 16.85 Q-82.4 14.4 -81.0 11.8 L-109.8 -18.9 Q-123.05 -34.0 -115.8 -44.65 L-115.7 -44.8 -115.35 -45.3 -114.9 -45.9 -116.9 -46.75 Q-125.9 -50.9 -129.65 -56.9 -124.7 -61.7 -114.2 -76.85 L-112.85 -78.8 -112.6 -79.2 -112.3 -79.6 -111.75 -80.4 -111.65 -80.55 -111.25 -81.1 -104.1 -90.9 -97.7 -98.7 -88.4 -109.15 Q-83.25 -115.15 -78.4 -118.2 L-75.5 -119.8 -73.3 -122.45 Q-65.4 -131.4 -55.15 -134.45 L-55.0 -134.5 -52.15 -135.25 -48.15 -138.25 -45.8 -140.1 -41.35 -143.65 -37.35 -146.6 -34.9 -148.2 -33.55 -148.95 Q-38.5 -155.8 -41.7 -162.5 L-43.85 -165.5 -41.95 -154.25 -44.85 -159.0 Q-47.75 -164.05 -49.65 -169.1 -48.7 -165.2 -51.05 -161.25 -53.75 -156.85 -60.55 -152.45 -55.75 -160.5 -56.95 -173.8 L-57.35 -177.4 Q-62.25 -172.35 -69.1 -170.55 -74.05 -169.25 -80.0 -169.65 -67.4 -178.65 -60.65 -195.65 L-60.45 -196.65 -60.25 -196.65 -59.7 -198.15 Q-78.95 -199.3 -88.95 -207.55 -91.4 -209.5 -93.25 -211.9 L-89.45 -212.55 -71.4 -215.8 Q-82.6 -215.85 -93.0 -221.65 -95.4 -222.95 -97.75 -224.6 -86.5 -226.15 -76.0 -234.55 L-76.6 -234.85 Q-85.65 -239.95 -88.0 -248.5 -83.3 -247.05 -77.1 -246.65 -74.1 -246.5 -70.7 -246.6 L-69.3 -246.65 -69.1 -246.6 -67.9 -246.45 -64.65 -246.15 -64.6 -246.1 -64.55 -246.15 M57.7 -94.2 L56.95 -92.15 Q51.2 -75.55 52.2 -52.05 52.95 -39.7 54.45 -25.1 55.2 -26.05 64.8 -26.0 L76.2 -26.65 Q83.8 -27.5 98.8 -36.75 M58.75 -96.9 L57.7 -94.2 M36.25 -80.35 L36.45 -79.85 M56.75 -8.55 L57.6 -4.15 58.15 -4.15 61.0 -4.1 62.75 -4.0 M64.1 -3.8 L63.35 -3.9 M56.75 -8.55 L64.8 -26.0 M54.45 -25.1 Q55.2 -17.9 56.75 -8.55 M68.95 19.9 L68.95 20.1 68.8 20.8 65.7 23.5 65.75 23.65 65.9 24.05 66.85 26.15 66.8 26.15 66.9 26.3 M64.1 -3.8 Q75.55 -2.2 79.45 7.6 M62.15 5.85 Q69.55 14.2 68.95 19.9 M63.3 17.0 L65.4 22.8 65.55 23.1 65.7 23.5 65.65 23.5 65.9 24.05 66.8 26.15 66.9 26.4 M63.05 16.4 L63.3 17.0 M59.1 2.65 L61.0 9.75 Q61.95 13.15 63.05 16.4 M59.1 2.65 L61.3 4.9 M24.25 68.15 Q22.8 71.5 21.15 74.0 L33.2 73.5 37.1 73.8 Q43.35 74.25 49.05 74.1 57.8 73.85 65.1 72.2 M4.6 85.9 Q12.55 85.3 18.1 83.9 L23.9 81.85 M4.6 85.9 L4.6 82.95 M19.55 312.4 L19.6 312.1 Q20.9 305.65 21.35 298.65 L21.55 294.9 21.6 289.8 21.6 289.55 21.5 285.2 21.45 284.65 20.85 279.1 20.85 279.0 15.55 231.15 11.4 194.15 4.6 133.2 4.6 85.9 M4.6 133.2 L20.45 177.2 11.4 194.15 M20.6 330.15 Q34.95 333.95 43.9 330.35 M21.95 298.5 Q24.4 297.95 28.95 298.65 L32.3 299.25 33.25 299.45 33.8 299.6 M21.35 298.65 L21.95 298.5 M9.05 311.65 L6.95 311.2 8.35 311.5 6.7 311.4 Q2.25 311.05 -0.4 311.3 L-21.5 311.75 -23.5 312.4 -25.65 313.15 -25.85 313.25 Q-29.5 314.65 -33.0 316.65 L-37.5 321.75 Q-40.0 325.0 -41.25 328.0 L-41.3 328.1 -41.35 328.2 -42.0 330.1 -42.05 330.3 -42.1 330.45 M6.95 311.2 L6.7 311.4 M16.45 324.3 L16.8 323.05 18.7 315.9 18.8 315.5 19.55 312.4 M9.35 311.75 Q14.5 313.2 15.8 321.35 L16.4 323.85 16.4 324.0 16.45 324.3 16.85 329.0 17.2 329.1 17.95 329.35 19.75 329.9 20.6 330.15 M16.75 334.75 Q17.0 332.1 16.85 329.0 M57.6 -4.15 L59.1 2.65 M-53.5 -277.4 L-53.55 -277.45 -53.95 -277.0 M-67.5 -242.7 L-65.05 -245.1 M-75.6 -234.9 L-76.0 -234.55 M-75.6 -234.9 L-67.5 -242.7 M-50.25 -204.6 Q-45.35 -219.75 -32.1 -236.65 L-30.45 -238.75 M-59.7 -198.15 L-58.85 -198.1 Q-55.55 -197.95 -52.0 -197.95 L-52.1 -197.55 Q-53.5 -190.55 -52.9 -183.45 -52.4 -177.4 -50.4 -171.3 L-49.65 -169.1 M-51.95 -198.3 L-51.85 -198.65 Q-51.25 -201.6 -50.25 -204.6 M-71.4 -215.8 Q-63.8 -215.8 -55.8 -218.4 M-16.45 -194.35 Q-14.8 -206.7 -9.5 -220.0 L-9.3 -220.65 M-28.1 -151.3 L-26.6 -151.65 -26.15 -151.75 -26.1 -151.7 -22.15 -152.6 Q-22.75 -161.5 -26.25 -169.55 -28.05 -160.9 -28.1 -153.4 L-28.1 -151.3 -27.9 -147.0 -25.15 -148.45 M-22.15 -152.6 Q-22.0 -150.65 -22.0 -148.7 L-20.35 -152.45 -20.1 -153.05 -18.05 -157.9 -18.05 -164.5 M-18.05 -167.45 L-20.6 -169.85 Q-23.1 -172.35 -25.05 -174.9 L-26.25 -169.55 M-18.05 -167.45 L-14.8 -164.75 M-20.1 -153.05 L-18.25 -153.45 -18.0 -155.35 -18.05 -155.5 -18.05 -157.9 M-18.25 -153.45 L-18.6 -151.2 -19.25 -146.85 -19.3 -146.9 -21.5 -141.9 M-57.35 -177.4 Q-54.85 -180.0 -52.9 -183.45 M-60.25 -196.65 L-60.65 -195.65 M-43.35 -207.75 Q-51.5 -189.1 -44.55 -169.35 L-44.45 -169.05 Q-43.3 -165.8 -41.7 -162.5 M-43.85 -165.5 L-44.45 -169.05 M-71.4 -121.15 Q-73.45 -120.75 -75.5 -119.8 M-12.5 -91.05 L-12.95 -91.55 -15.75 -94.65 Q-30.4 -110.0 -49.15 -116.05 -66.95 -121.8 -67.9 -121.45 L-68.1 -121.45 -69.3 -121.4 -71.4 -121.15 M-17.3 -128.1 Q-15.9 -126.2 -14.65 -123.9 -11.75 -118.6 -9.65 -111.15 L-9.35 -110.05 -8.4 -106.05 -8.3 -105.65 -8.05 -104.55 M-26.9 -140.55 Q-24.65 -136.45 -19.15 -130.35 L-17.3 -128.1 M-27.8 -142.9 L-28.0 -142.85 -27.95 -142.75 -27.95 -142.7 -27.8 -142.4 -26.9 -140.55 -27.8 -142.9 -27.4 -143.1 -27.2 -143.2 -26.65 -143.45 M-27.55 -144.05 L-27.4 -143.1 -26.9 -140.55 -33.55 -148.95 M-25.95 -143.8 L-26.4 -143.6 M-25.95 -143.8 L-25.5 -144.0 -19.3 -146.9 M-27.55 -144.05 L-27.9 -147.0 M-113.25 -45.2 L-107.45 -42.95 Q-100.15 -40.4 -94.25 -40.0 L-94.15 -40.0 -85.1 -38.95 Q-78.0 -38.25 -71.05 -36.0 -69.3 -43.7 -65.2 -51.3 L-63.65 -54.05 Q-56.3 -66.55 -42.7 -78.8 L-40.95 -80.7 M-59.6 -5.9 Q-55.8 -3.85 -54.4 -1.15 M-54.35 -0.95 Q-53.8 0.25 -53.7 1.55 L-51.75 2.4 -50.9 2.8 Q-47.1 4.85 -46.0 7.55 -45.55 8.8 -45.6 10.15 L-46.35 12.1 -43.25 14.3 M-37.65 12.5 L-37.5 11.95 -37.0 10.45 M-114.9 -45.9 L-113.25 -45.2 M-5.05 -81.35 Q-8.6 -86.55 -12.5 -91.05 M-65.0 -41.7 L-65.1 -42.35 -65.15 -42.75 -65.2 -51.3 M-64.8 -6.85 L-63.9 -11.9 -63.8 -12.75 -63.75 -13.0 -63.75 -13.2 -63.7 -13.8 -63.6 -14.55 -63.55 -15.25 -63.55 -15.5 -64.95 -41.4 M-65.1 -7.35 L-64.8 -6.85 -64.4 -6.25 -64.05 -5.7 Q-69.2 -1.9 -72.9 1.7 L-73.15 1.9 -76.3 5.2 -77.0 6.0 Q-79.55 8.95 -81.0 11.8 M-65.1 -7.35 L-85.1 -38.95 M-59.6 -5.9 L-62.2 -7.1 -62.35 -7.0 -64.05 -5.7 M-33.1 -201.85 Q-34.4 -187.05 -25.05 -174.9 M-51.95 -198.3 L-52.0 -197.95 M-37.65 12.5 L-39.4 17.1 -39.8 17.95 -43.0 23.6 -45.5 27.95 -45.75 28.3 -45.8 28.4 Q-49.7 33.6 -54.75 38.1 L-59.5 41.9 Q-61.25 43.15 -64.1 44.45 L-64.15 44.5 -65.75 45.2 Q-68.5 46.5 -70.8 47.2 M-42.85 14.6 L-42.8 14.65 -39.4 17.1 M-63.9 32.8 Q-57.2 30.4 -52.1 23.2 -49.65 19.65 -47.55 14.95 L-46.35 12.1 M-59.75 41.75 L-59.5 41.9 M-68.6 78.2 L-67.9 78.4 -59.6 79.95 -58.4 80.1 Q-38.95 82.25 -16.65 73.9 L-17.05 73.95 -16.65 73.9 M-17.05 73.95 L-16.2 66.7 M-41.8 336.1 L-28.5 336.1 16.6 336.1" fill="none" stroke="#1a5283" stroke-linecap="round" stroke-linejoin="round" stroke-width="2.0"/>
    <path d="M-68.7 -294.0 Q-56.05 -280.65 -40.85 -268.2 -26.0 -256.05 -9.9 -245.7 3.35 -237.2 11.5 -223.65 16.85 -214.75 7.45 -216.65 5.35 -217.05 3.45 -218.8 -7.8 -229.05 -16.15 -240.15 -18.25 -242.9 -21.5 -244.7 -51.8 -261.35 -71.35 -288.8 -73.6 -291.95 -69.85 -293.65 L-68.7 -294.0" fill="#091425" fill-rule="evenodd" stroke="none"/>
  </g>
</svg>
