<?xml version="1.0" encoding="UTF-8" standalone="no"?>
<svg xmlns:xlink="http://www.w3.org/1999/xlink" height="53.5px" width="101.6px" xmlns="http://www.w3.org/2000/svg">
  <g transform="matrix(1.0, 0.0, 0.0, 1.0, 4.5, 205.2)">
    <path d="M7.45 -193.65 Q24.3 -186.2 37.4 -186.55 35.4 -182.0 30.6 -181.65 23.65 -180.95 14.25 -184.65 8.9 -187.8 7.45 -193.65" fill="#000000" fill-rule="evenodd" stroke="none"/>
    <path d="M7.45 -193.65 Q24.3 -186.2 37.4 -186.55 35.4 -182.0 30.6 -181.65 23.65 -180.95 14.25 -184.65 8.9 -187.8 7.45 -193.65 M26.25 -194.35 L35.85 -191.65" fill="none" stroke="#1a5283" stroke-linecap="round" stroke-linejoin="round" stroke-width="2.0"/>
    <path d="M5.55 -202.9 L47.7 -199.55 Q50.5 -198.35 50.95 -193.8 L58.4 -193.8 Q59.0 -197.5 61.95 -199.45 L93.5 -200.9 Q97.7 -200.4 95.15 -193.9 L89.45 -179.15 Q88.25 -175.45 84.35 -174.6 L64.65 -172.9 Q59.4 -173.1 58.65 -177.6 L56.9 -189.3 50.95 -189.3 43.7 -177.85 Q41.75 -173.35 37.5 -172.15 L10.8 -173.9 Q6.45 -175.8 4.1 -179.5 1.5 -186.8 0.7 -193.55 L-3.5 -197.95 -3.5 -204.2 5.55 -202.9 M7.65 -193.6 Q6.7 -185.7 9.45 -179.85 10.6 -177.7 13.25 -177.35 L34.6 -176.2 Q38.05 -176.15 39.95 -179.9 L45.3 -190.25 Q45.85 -194.4 41.65 -195.8 L12.5 -197.0 Q8.75 -196.1 7.65 -193.6 M61.85 -191.4 L61.85 -181.2 Q63.05 -176.75 66.1 -176.4 L81.2 -177.2 Q84.7 -177.7 86.0 -180.9 L90.3 -192.75 Q91.25 -195.95 89.55 -196.4 L65.5 -195.25 Q62.45 -194.25 61.85 -191.4" fill="#000000" fill-rule="evenodd" stroke="none"/>
    <path d="M5.55 -202.9 L47.7 -199.55 Q50.5 -198.35 50.95 -193.8 L58.4 -193.8 Q59.0 -197.5 61.95 -199.45 L93.5 -200.9 Q97.7 -200.4 95.15 -193.9 L89.45 -179.15 Q88.25 -175.45 84.35 -174.6 L64.65 -172.9 Q59.4 -173.1 58.65 -177.6 L56.9 -189.3 50.95 -189.3 43.7 -177.85 Q41.75 -173.35 37.5 -172.15 L10.8 -173.9 Q6.45 -175.8 4.1 -179.5 1.5 -186.8 0.7 -193.55 L-3.5 -197.95 -3.5 -204.2 5.55 -202.9 M61.85 -191.4 Q62.45 -194.25 65.5 -195.25 L89.55 -196.4 Q91.25 -195.95 90.3 -192.75 L86.0 -180.9 Q84.7 -177.7 81.2 -177.2 L66.1 -176.4 Q63.05 -176.75 61.85 -181.2 L61.85 -191.4 M7.65 -193.6 Q8.75 -196.1 12.5 -197.0 L41.65 -195.8 Q45.85 -194.4 45.3 -190.25 L39.95 -179.9 Q38.05 -176.15 34.6 -176.2 L13.25 -177.35 Q10.6 -177.7 9.45 -179.85 6.7 -185.7 7.65 -193.6 M53.05 -170.45 Q53.5 -168.0 50.45 -167.65" fill="none" stroke="#1a5283" stroke-linecap="round" stroke-linejoin="round" stroke-width="2.0"/>
    <path d="M26.4 -152.7 Q30.65 -154.15 35.3 -153.75" fill="none" stroke="#1a5283" stroke-linecap="round" stroke-linejoin="round" stroke-width="2.0"/>
  </g>
</svg>
