<?xml version="1.0" encoding="UTF-8" standalone="no"?>
<svg xmlns:xlink="http://www.w3.org/1999/xlink" height="216.5px" width="239.35px" xmlns="http://www.w3.org/2000/svg">
  <g transform="matrix(1.0, 0.0, 0.0, 1.0, 155.35, 361.25)">
    <path d="M-105.95 -218.0 L-106.0 -218.0 -122.9 -218.6 -127.35 -220.1 Q-142.55 -224.95 -154.25 -225.05 -145.2 -233.7 -116.55 -252.05 -110.95 -250.5 -105.1 -249.85 -86.1 -247.8 -67.35 -248.3 L-67.7 -248.3 Q-69.85 -245.3 -72.5 -242.45 -87.05 -226.75 -105.95 -218.0 M-114.2 -253.6 Q-114.1 -266.2 -108.35 -280.75 -83.95 -278.55 -59.8 -273.55 -56.15 -263.1 -56.45 -253.15 -80.85 -248.2 -114.2 -253.6" fill="#4c97d9" fill-rule="evenodd" stroke="none"/>
    <path d="M12.3 -317.8 Q7.95 -316.15 11.5 -312.8 16.1 -308.4 22.05 -309.5 23.05 -309.7 22.65 -310.5 20.0 -316.55 12.3 -317.8 M51.6 -283.65 L53.65 -283.35 51.6 -283.65 Q47.2 -284.45 42.3 -287.4 52.6 -280.05 49.1 -263.8 43.15 -274.15 30.55 -284.5 L28.25 -284.4 Q33.05 -276.9 33.75 -267.55 27.55 -276.5 16.25 -284.0 L12.75 -283.7 Q4.75 -289.75 -4.25 -293.0 -6.35 -293.0 -7.9 -291.25 -9.15 -289.85 -8.2 -288.8 L-2.35 -282.6 -7.65 -282.2 Q-9.4 -286.6 -10.75 -291.95 -9.4 -286.6 -7.65 -282.2 -2.25 -268.5 6.8 -264.4 -16.1 -265.65 -26.7 -280.15 -31.0 -286.05 -33.3 -294.15 -31.0 -286.05 -26.7 -280.15 L-28.85 -279.9 Q-47.9 -291.95 -50.75 -295.45 -52.15 -294.35 -52.15 -292.15 L-52.95 -293.65 -52.15 -292.15 -52.1 -291.35 Q-50.85 -279.8 -47.9 -268.2 L-47.8 -268.7 Q-49.05 -261.4 -53.7 -254.35 L-56.6 -250.4 -56.45 -253.15 Q-56.15 -263.1 -59.8 -273.55 L-61.8 -278.65 -70.2 -280.95 Q-79.5 -288.15 -77.1 -293.1 L-83.25 -283.4 -94.55 -284.45 Q-91.3 -297.0 -93.65 -299.0 -110.9 -286.35 -126.6 -271.7 -120.95 -281.95 -112.9 -290.95 -105.2 -299.55 -95.3 -307.05 L-93.35 -308.3 -95.3 -307.05 Q-105.2 -299.55 -112.9 -290.95 -128.8 -281.15 -144.05 -299.3 -131.85 -287.55 -93.35 -308.3 -62.85 -328.05 -25.75 -326.8 13.25 -327.95 36.4 -309.35 61.05 -287.85 70.5 -292.75 63.3 -282.7 53.65 -283.35 68.65 -272.9 71.15 -260.9 67.4 -264.2 57.7 -270.1 56.35 -276.9 51.6 -283.65 M-67.2 -289.05 Q-64.05 -283.8 -61.8 -278.65 -64.05 -283.8 -67.2 -289.05 M56.7 -260.75 Q64.6 -245.2 79.75 -235.5 67.4 -228.15 58.75 -230.5 L54.85 -233.9 48.8 -240.45 Q52.65 -232.5 57.15 -226.25 45.15 -229.5 37.9 -234.85 46.35 -209.2 36.65 -209.45 L29.55 -218.95 21.85 -227.45 Q23.9 -217.45 27.55 -210.4 20.75 -212.85 15.5 -216.15 L7.15 -211.95 Q8.65 -220.45 2.65 -227.0 -1.35 -227.3 -3.3 -223.55 -9.1 -237.95 -21.45 -251.65 1.0 -192.75 -34.5 -147.8 -25.25 -164.9 -27.65 -193.65 -31.1 -182.55 -40.65 -175.95 -36.0 -188.15 -37.8 -204.25 -53.65 -213.7 -63.9 -222.2 -50.6 -234.65 -43.0 -250.5 L-43.45 -249.55 Q-34.25 -251.9 -25.0 -255.25 -16.25 -258.45 -7.0 -258.7 L56.7 -260.75 M-78.85 -212.9 Q-79.7 -199.0 -91.15 -181.85 L-91.2 -206.8 Q-94.55 -189.05 -93.55 -176.45 -102.3 -190.2 -102.75 -205.9 -96.7 -207.4 -90.75 -209.15 L-91.2 -206.8 -90.75 -209.15 Q-84.75 -210.9 -78.85 -212.9 M10.9 -299.5 Q19.35 -294.95 24.7 -289.0 L28.25 -284.4 24.7 -289.0 Q19.35 -294.95 10.9 -299.5 M0.55 -292.6 Q9.35 -288.55 16.25 -284.0 9.35 -288.55 0.55 -292.6 M24.7 -289.0 L30.55 -284.5 24.7 -289.0 M-2.7 -248.85 Q-2.6 -227.5 15.5 -216.15 -2.6 -227.5 -2.7 -248.85 M26.7 -254.65 Q27.35 -242.6 37.9 -234.85 27.35 -242.6 26.7 -254.65 M27.3 -225.3 L29.55 -218.95 27.3 -225.3 M19.2 -252.0 Q19.6 -238.05 21.85 -227.45 19.6 -238.05 19.2 -252.0 M41.0 -259.85 Q44.55 -249.15 48.8 -240.45 44.55 -249.15 41.0 -259.85 M30.65 -296.7 L42.3 -287.4 30.65 -296.7 M-14.7 -313.6 L-16.85 -313.1 Q-18.0 -312.75 -17.95 -311.7 -17.7 -303.0 -7.85 -302.15 -6.85 -302.1 -6.7 -302.9 -5.0 -311.5 -14.7 -313.6 M-74.2 -313.1 Q-80.05 -312.2 -84.45 -308.6 -85.65 -307.65 -84.9 -306.45 -82.15 -302.3 -78.4 -304.25 -74.65 -306.2 -72.1 -309.7 -69.6 -313.25 -74.2 -313.1 M-46.65 -314.4 Q-53.05 -311.65 -53.5 -304.7 -53.55 -303.35 -52.8 -302.65 -46.6 -297.1 -44.2 -305.3 -42.45 -311.4 -46.65 -314.4 M-23.9 -254.3 L-21.45 -251.65 -23.9 -254.3 M-37.8 -204.25 Q-39.5 -219.2 -46.75 -237.55 -39.5 -219.2 -37.8 -204.25 M-25.95 -202.5 Q-26.4 -197.75 -27.65 -193.65 -26.4 -197.75 -25.95 -202.5" fill="#132a4c" fill-rule="evenodd" stroke="none"/>
    <path d="M-94.55 -284.45 L-83.25 -283.4 -83.25 -283.35 -81.6 -283.15 -70.2 -280.95 -61.8 -278.65 -59.8 -273.55 Q-83.95 -278.55 -108.35 -280.75 L-107.5 -282.85 -105.25 -284.65 -104.25 -284.65 Q-99.4 -284.75 -94.55 -284.45" fill="#79c7ff" fill-rule="evenodd" stroke="none"/>
    <path d="M51.6 -283.65 Q56.35 -276.9 57.7 -270.1 58.3 -266.95 58.2 -263.8 L55.25 -263.8 49.1 -263.8 Q52.6 -280.05 42.3 -287.4 47.2 -284.45 51.6 -283.65 M-73.65 -231.45 Q-77.05 -228.75 -80.85 -226.55 -84.05 -224.7 -87.5 -223.2 -94.75 -220.05 -101.8 -218.65 L-105.95 -218.0 Q-87.05 -226.75 -72.5 -242.45 -69.85 -245.3 -67.7 -248.3 L-67.35 -248.3 Q-86.1 -247.8 -105.1 -249.85 -110.95 -250.5 -116.55 -252.05 L-114.2 -253.6 Q-80.85 -248.2 -56.45 -253.15 L-56.8 -252.45 -58.85 -248.75 Q-64.9 -238.6 -73.4 -231.7 L-73.65 -231.45 M-127.35 -220.1 Q-155.85 -214.65 -154.25 -225.05 -142.55 -224.95 -127.35 -220.1 M12.75 -283.7 L16.25 -284.0 Q27.55 -276.5 33.75 -267.55 33.05 -276.9 28.25 -284.4 L30.55 -284.5 Q43.15 -274.15 49.1 -263.8 L35.65 -263.8 Q-7.65 -263.85 -40.8 -257.25 L-49.15 -255.45 -53.7 -254.35 Q-49.05 -261.4 -47.8 -268.7 L-47.45 -276.6 -47.55 -277.85 -29.05 -279.9 -28.85 -279.9 -26.7 -280.15 Q-16.1 -265.65 6.8 -264.4 -2.25 -268.5 -7.65 -282.2 L-2.35 -282.6 12.75 -283.7" fill="#3572b4" fill-rule="evenodd" stroke="none"/>
    <path d="M-126.6 -271.7 Q-110.9 -286.35 -93.65 -299.0 -91.3 -297.0 -94.55 -284.45 -99.4 -284.75 -104.25 -284.65 L-105.25 -284.65 -107.5 -282.85 Q-123.1 -270.3 -133.05 -257.75 L-127.1 -270.85 -126.65 -271.7 -126.6 -271.7 -127.1 -270.85 -126.6 -271.7 M-83.25 -283.4 L-77.1 -293.1 Q-79.5 -288.15 -70.2 -280.95 L-81.6 -283.15 -83.25 -283.35 -83.25 -283.4 -81.6 -283.15 -83.25 -283.4 M49.1 -263.8 L55.25 -263.8 56.7 -260.75 -7.0 -258.7 Q-16.25 -258.45 -25.0 -255.25 -34.25 -251.9 -43.45 -249.55 L-43.0 -250.5 Q-50.6 -234.65 -63.9 -222.2 -69.65 -227.0 -73.65 -231.45 L-73.4 -231.7 Q-64.9 -238.6 -58.85 -248.75 L-56.8 -252.45 -56.45 -253.15 -56.6 -250.4 -53.7 -254.35 -49.15 -255.45 -40.8 -257.25 Q-7.65 -263.85 35.65 -263.8 L49.1 -263.8 M58.75 -230.5 Q71.0 -220.5 83.0 -218.4 78.65 -211.4 73.95 -207.1 69.55 -203.15 64.85 -201.5 60.2 -199.9 55.25 -200.55 60.75 -179.3 44.15 -159.25 L44.15 -178.55 Q37.5 -164.1 21.4 -153.95 L26.0 -169.6 Q16.15 -152.75 16.5 -145.75 10.8 -153.55 13.6 -161.3 10.15 -153.3 3.05 -146.6 6.55 -159.8 -0.35 -178.2 -3.9 -166.25 -12.5 -155.55 L-6.7 -176.1 Q-14.4 -157.1 -34.5 -147.8 1.0 -192.75 -21.45 -251.65 -9.1 -237.95 -3.3 -223.55 L-1.45 -218.4 Q1.45 -209.0 2.0 -200.15 6.15 -206.5 7.15 -211.95 L15.5 -216.15 Q20.75 -212.85 27.55 -210.4 23.9 -217.45 21.85 -227.45 L29.55 -218.95 36.65 -209.45 Q46.35 -209.2 37.9 -234.85 45.15 -229.5 57.15 -226.25 52.65 -232.5 48.8 -240.45 L54.85 -233.9 58.75 -230.5 M-80.85 -226.55 L-80.6 -225.95 -79.9 -223.7 -78.75 -214.3 -78.75 -213.95 -78.8 -212.9 -78.85 -212.9 -78.75 -213.95 -78.85 -212.9 Q-84.75 -210.9 -90.75 -209.15 L-89.8 -213.6 -90.75 -209.15 Q-96.7 -207.4 -102.75 -205.9 -102.95 -212.15 -101.8 -218.65 -94.75 -220.05 -87.5 -223.2 -84.05 -224.7 -80.85 -226.55 M-0.35 -178.2 Q2.75 -188.7 2.0 -200.15 2.75 -188.7 -0.35 -178.2 M54.45 -203.3 L55.25 -200.55 54.45 -203.3 M41.45 -226.5 Q54.7 -205.7 36.0 -185.8 37.55 -195.4 29.55 -218.95 37.55 -195.4 36.0 -185.8 54.7 -205.7 41.45 -226.5 M16.5 -171.9 Q15.85 -167.1 14.2 -162.7 L13.6 -161.3 14.2 -162.7 Q15.85 -167.1 16.5 -171.9 M33.2 -181.25 L26.0 -169.6 33.2 -181.25 M47.5 -188.6 Q46.35 -183.35 44.15 -178.55 46.35 -183.35 47.5 -188.6 M-105.25 -284.65 L-94.35 -292.75 -105.25 -284.65 M-2.35 -282.6 L-8.2 -288.8 Q-9.15 -289.85 -7.9 -291.25 -6.35 -293.0 -4.25 -293.0 4.75 -289.75 12.75 -283.7 L-2.35 -282.6 M-28.85 -279.9 L-29.05 -279.9 -47.55 -277.85 -47.45 -276.6 -47.8 -268.7 -47.9 -268.2 Q-50.85 -279.8 -52.1 -291.35 L-52.15 -292.15 Q-52.15 -294.35 -50.75 -295.45 -47.9 -291.95 -28.85 -279.9 M-47.55 -277.85 Q-48.4 -284.85 -52.15 -292.15 -48.4 -284.85 -47.55 -277.85 M-3.5 -187.0 Q-4.65 -181.35 -6.6 -176.4 L-6.7 -176.1 -6.6 -176.4 Q-4.65 -181.35 -3.5 -187.0" fill="#091425" fill-rule="evenodd" stroke="none"/>
    <path d="M12.3 -317.8 Q20.0 -316.55 22.65 -310.5 23.05 -309.7 22.05 -309.5 16.1 -308.4 11.5 -312.8 7.95 -316.15 12.3 -317.8 M-46.65 -314.4 Q-42.45 -311.4 -44.2 -305.3 -46.6 -297.1 -52.8 -302.65 -53.55 -303.35 -53.5 -304.7 -53.05 -311.65 -46.65 -314.4 M-74.2 -313.1 Q-69.6 -313.25 -72.1 -309.7 -74.65 -306.2 -78.4 -304.25 -82.15 -302.3 -84.9 -306.45 -85.65 -307.65 -84.45 -308.6 -80.05 -312.2 -74.2 -313.1 M-14.7 -313.6 Q-5.0 -311.5 -6.7 -302.9 -6.85 -302.1 -7.85 -302.15 -17.7 -303.0 -17.95 -311.7 -18.0 -312.75 -16.85 -313.1 L-14.7 -313.6" fill="#245091" fill-rule="evenodd" stroke="none"/>
    <path d="M53.65 -283.35 L51.6 -283.65 Q56.35 -276.9 57.7 -270.1 67.4 -264.2 71.15 -260.9 68.65 -272.9 53.65 -283.35 63.3 -282.7 70.5 -292.75 61.05 -287.85 36.4 -309.35 13.25 -327.95 -25.75 -326.8 -62.85 -328.05 -93.35 -308.3 L-95.3 -307.05 Q-105.2 -299.55 -112.9 -290.95 -120.95 -281.95 -126.6 -271.7 L-127.1 -270.85 -133.05 -257.75 Q-123.1 -270.3 -107.5 -282.85 L-108.35 -280.75 Q-114.1 -266.2 -114.2 -253.6 L-116.55 -252.05 Q-145.2 -233.7 -154.25 -225.05 -155.85 -214.65 -127.35 -220.1 -142.55 -224.95 -154.25 -225.05 M-94.55 -284.45 L-83.25 -283.4 -81.6 -283.15 -70.2 -280.95 -61.8 -278.65 Q-64.05 -283.8 -67.2 -289.05 M51.6 -283.65 Q47.2 -284.45 42.3 -287.4 52.6 -280.05 49.1 -263.8 L55.25 -263.8 58.2 -263.8 Q58.3 -266.95 57.7 -270.1 M55.25 -263.8 L56.7 -260.75 Q64.6 -245.2 79.75 -235.5 67.4 -228.15 58.75 -230.5 71.0 -220.5 83.0 -218.4 78.65 -211.4 73.95 -207.1 69.55 -203.15 64.85 -201.5 60.2 -199.9 55.25 -200.55 60.75 -179.3 44.15 -159.25 L44.15 -178.55 Q37.5 -164.1 21.4 -153.95 L26.0 -169.6 Q16.15 -152.75 16.5 -145.75 10.8 -153.55 13.6 -161.3 10.15 -153.3 3.05 -146.6 6.55 -159.8 -0.35 -178.2 -3.9 -166.25 -12.5 -155.55 L-6.7 -176.1 Q-14.4 -157.1 -34.5 -147.8 -25.25 -164.9 -27.65 -193.65 -31.1 -182.55 -40.65 -175.95 -36.0 -188.15 -37.8 -204.25 -53.65 -213.7 -63.9 -222.2 -69.65 -227.0 -73.65 -231.45 -77.05 -228.75 -80.85 -226.55 L-80.6 -225.95 -79.9 -223.7 -78.75 -214.3 -78.75 -213.95 -78.85 -212.9 Q-79.7 -199.0 -91.15 -181.85 L-91.2 -206.8 Q-94.55 -189.05 -93.55 -176.45 -102.3 -190.2 -102.75 -205.9 -102.95 -212.15 -101.8 -218.65 L-105.95 -218.0 -106.0 -218.0 -122.9 -218.6 -127.35 -220.1 M12.75 -283.7 L16.25 -284.0 Q9.35 -288.55 0.55 -292.6 M28.25 -284.4 L24.7 -289.0 Q19.35 -294.95 10.9 -299.5 M16.25 -284.0 Q27.55 -276.5 33.75 -267.55 33.05 -276.9 28.25 -284.4 L30.55 -284.5 24.7 -289.0 M7.15 -211.95 Q6.15 -206.5 2.0 -200.15 2.75 -188.7 -0.35 -178.2 M-3.3 -223.55 Q-1.35 -227.3 2.65 -227.0 8.65 -220.45 7.15 -211.95 M15.5 -216.15 Q-2.6 -227.5 -2.7 -248.85 M37.9 -234.85 Q27.35 -242.6 26.7 -254.65 M29.55 -218.95 L27.3 -225.3 M15.5 -216.15 Q20.75 -212.85 27.55 -210.4 23.9 -217.45 21.85 -227.45 19.6 -238.05 19.2 -252.0 M48.8 -240.45 Q52.65 -232.5 57.15 -226.25 45.15 -229.5 37.9 -234.85 M48.8 -240.45 Q44.55 -249.15 41.0 -259.85 M55.25 -200.55 L54.45 -203.3 M42.3 -287.4 L30.65 -296.7 M49.1 -263.8 L35.65 -263.8 Q-7.65 -263.85 -40.8 -257.25 L-49.15 -255.45 -53.7 -254.35 -56.6 -250.4 -56.45 -253.15 -56.8 -252.45 -58.85 -248.75 Q-64.9 -238.6 -73.4 -231.7 L-73.65 -231.45 M30.55 -284.5 Q43.15 -274.15 49.1 -263.8 M44.15 -178.55 Q46.35 -183.35 47.5 -188.6 M26.0 -169.6 L33.2 -181.25 M13.6 -161.3 L14.2 -162.7 Q15.85 -167.1 16.5 -171.9 M29.55 -218.95 Q37.55 -195.4 36.0 -185.8 54.7 -205.7 41.45 -226.5 M-105.25 -284.65 L-104.25 -284.65 Q-99.4 -284.75 -94.55 -284.45 M-105.25 -284.65 L-107.5 -282.85 M-94.35 -292.75 L-105.25 -284.65 M-80.85 -226.55 Q-84.05 -224.7 -87.5 -223.2 -94.75 -220.05 -101.8 -218.65 M-90.75 -209.15 L-89.8 -213.6 M-91.2 -206.8 L-90.75 -209.15 M-7.65 -282.2 L-2.35 -282.6 12.75 -283.7 M-7.65 -282.2 Q-9.4 -286.6 -10.75 -291.95 M-33.3 -294.15 Q-31.0 -286.05 -26.7 -280.15 -16.1 -265.65 6.8 -264.4 -2.25 -268.5 -7.65 -282.2 M-28.85 -279.9 L-26.7 -280.15 M-52.15 -292.15 Q-48.4 -284.85 -47.55 -277.85 L-29.05 -279.9 M-21.45 -251.65 L-23.9 -254.3 M-47.8 -268.7 L-47.45 -276.6 -47.55 -277.85 M-52.15 -292.15 L-52.95 -293.65 M-47.8 -268.7 Q-49.05 -261.4 -53.7 -254.35 M-59.8 -273.55 Q-56.15 -263.1 -56.45 -253.15 -80.85 -248.2 -114.2 -253.6 M-61.8 -278.65 L-59.8 -273.55 M2.0 -200.15 Q1.45 -209.0 -1.45 -218.4 L-3.3 -223.55 Q-9.1 -237.95 -21.45 -251.65 M-46.75 -237.55 Q-39.5 -219.2 -37.8 -204.25 M-93.35 -308.3 Q-131.85 -287.55 -144.05 -299.3 -128.8 -281.15 -112.9 -290.95 M-6.7 -176.1 L-6.6 -176.4 Q-4.65 -181.35 -3.5 -187.0 M-27.65 -193.65 Q-26.4 -197.75 -25.95 -202.5" fill="none" stroke="#1a5283" stroke-linecap="round" stroke-linejoin="round" stroke-width="2.0"/>
    <path d="M-26.55 -323.25 L-31.55 -324.8 Q-54.95 -345.45 -35.6 -360.25 -37.25 -339.1 -29.2 -326.05 -32.95 -353.9 -3.8 -350.4 -21.85 -340.35 -26.55 -323.25" fill="#132a4c" fill-rule="evenodd" stroke="none"/>
    <path d="M-31.55 -324.8 Q-54.95 -345.45 -35.6 -360.25 -37.25 -339.1 -29.2 -326.05 -32.95 -353.9 -3.8 -350.4 -21.85 -340.35 -26.55 -323.25" fill="none" stroke="#1a5283" stroke-linecap="round" stroke-linejoin="round" stroke-width="2.0"/>
  </g>
</svg>
