<?xml version="1.0" encoding="UTF-8" standalone="no"?>
<svg xmlns:xlink="http://www.w3.org/1999/xlink" height="589.4px" width="279.0px" xmlns="http://www.w3.org/2000/svg">
  <g transform="matrix(1.0, 0.0, 0.0, 1.0, 153.65, 244.5)">
    <path d="M59.1 -120.75 Q68.75 -113.7 77.6 -101.05 L80.1 -97.3 Q70.4 -111.6 59.1 -120.75 M84.4 -90.7 L86.45 -88.4 100.5 -72.0 Q94.0 -78.9 86.4 -88.2 L86.15 -88.5 84.4 -90.7 M-107.4 -199.05 L-108.2 -202.5 Q-109.25 -207.25 -109.75 -212.2 L-109.75 -212.5 -109.75 -214.0 Q-109.05 -207.05 -107.3 -200.55 L-107.4 -199.05 M-49.55 -77.25 L-49.55 -76.3 -49.6 -77.25 -49.55 -77.25 M-67.0 -47.95 L-68.35 -34.8 -69.05 -34.7 -67.0 -47.95 M-73.95 -2.05 L-76.95 11.5 Q-76.6 4.75 -74.2 -2.15 L-73.95 -2.05" fill="#cccccc" fill-rule="evenodd" stroke="none"/>
    <path d="M-85.65 -229.45 Q-87.6 -221.75 -85.05 -211.15 L-83.75 -206.4 -81.45 -200.45 Q-81.95 -194.2 -85.1 -189.45 -88.3 -184.75 -81.05 -179.1 -80.7 -175.05 -78.15 -169.9 -70.25 -154.7 -58.45 -151.95 L-55.55 -151.5 -51.55 -152.0 -47.9 -146.3 -51.85 -147.1 Q-68.45 -151.65 -85.05 -172.95 L-71.9 -153.05 Q-78.0 -157.3 -83.1 -161.95 -101.35 -178.65 -107.3 -200.55 -109.05 -207.05 -109.75 -214.0 L-109.75 -212.5 -109.75 -212.2 Q-109.25 -207.25 -108.2 -202.5 L-107.4 -199.05 Q-108.55 -186.55 -119.15 -178.4 L-118.7 -187.4 Q-117.65 -201.45 -114.6 -220.0 L-114.4 -221.1 -91.25 -225.75 -85.5 -230.0 -85.65 -229.45 M-109.85 -215.0 L-109.75 -214.0 -109.85 -215.0 M-89.35 -179.45 L-85.05 -172.95 -89.35 -179.45" fill="#091425" fill-rule="evenodd" stroke="none"/>
    <path d="M15.4 -155.05 L14.8 -158.5 17.9 -157.75 15.4 -155.05 M-8.15 -75.2 L-7.85 -75.35 Q-3.8 -92.15 3.55 -107.95 13.9 -130.1 34.15 -144.05 L36.1 -145.4 38.1 -143.55 Q46.65 -140.4 56.15 -130.8 60.3 -126.7 59.1 -120.75 56.1 -122.8 52.95 -123.25 48.25 -124.0 43.15 -121.3 48.25 -124.0 52.95 -123.25 56.1 -122.8 59.1 -120.75 70.4 -111.6 80.1 -97.3 L80.2 -97.2 79.9 -95.6 Q78.65 -87.55 80.5 -80.5 81.0 -78.7 82.0 -80.2 84.55 -84.0 86.4 -88.2 94.0 -78.9 100.5 -72.0 115.05 -56.65 124.35 -53.25 L124.35 -53.2 Q109.45 -39.05 81.65 -36.75 59.2 -41.85 31.1 -76.3 L32.95 -73.4 Q46.6 -33.05 40.35 1.8 43.8 1.25 43.45 3.8 L43.55 3.95 43.6 4.05 45.5 7.25 Q50.15 14.25 60.15 23.75 L61.5 25.0 61.9 25.4 Q56.25 28.0 51.85 26.6 47.4 25.15 48.05 30.55 48.7 36.0 48.75 40.05 L47.2 40.45 44.45 39.15 Q27.6 30.8 25.35 15.65 L25.05 13.05 Q26.75 10.0 29.55 8.35 26.75 10.0 25.05 13.05 L25.35 15.65 20.05 20.9 Q24.9 33.2 37.85 44.15 L38.75 44.9 39.85 45.8 Q45.75 55.8 62.65 59.6 76.05 63.6 76.45 69.15 L67.25 74.05 Q63.05 76.35 58.65 78.2 L54.75 79.75 53.4 80.25 Q35.55 86.6 14.45 86.4 L2.8 85.8 4.85 82.75 5.5 81.45 Q6.75 78.65 7.5 75.1 L7.75 73.65 7.75 73.5 7.9 72.45 8.45 72.35 7.9 72.4 Q13.0 49.35 -0.55 -2.35 -8.1 -31.05 -9.4 -54.2 7.4 -84.15 30.9 -109.85 36.65 -116.1 43.15 -121.3 L42.1 -120.7 Q20.2 -104.85 -1.55 -81.2 -6.0 -75.95 -8.15 -75.2 M59.25 331.1 L59.05 335.8 12.2 336.05 11.45 328.5 Q10.75 322.8 14.9 318.0 19.0 313.2 22.3 311.3 26.45 310.4 31.6 310.05 47.85 311.0 54.65 316.95 L54.85 317.1 Q56.9 319.0 58.1 321.4 L59.1 324.25 Q59.8 327.35 59.25 331.1 M-152.6 331.75 Q-152.25 327.75 -148.85 323.75 -138.2 315.95 -123.9 308.8 -113.8 306.35 -104.1 307.45 L-102.45 307.65 Q-93.65 319.75 -88.7 333.45 -122.45 333.25 -152.6 331.75 M-82.0 75.95 Q-89.25 72.0 -90.4 67.05 -86.8 53.55 -82.75 36.75 -83.4 42.25 -83.45 46.8 -83.55 51.35 -81.35 48.15 -79.2 44.95 -77.5 30.35 -75.85 15.75 -73.7 1.4 -73.35 -0.8 -73.55 -2.7 L-72.5 -7.15 -72.2 -9.55 Q-70.95 -21.35 -69.35 -32.45 L-69.05 -34.7 -68.35 -34.8 -67.0 -47.95 Q-65.75 -58.95 -64.05 -69.8 L-67.75 -94.25 Q-74.8 -46.4 -89.15 -33.6 L-93.55 -33.85 Q-105.25 -34.9 -112.95 -39.2 -115.25 -40.45 -117.15 -42.0 -121.0 -45.1 -123.45 -49.3 L-120.75 -52.0 Q-109.95 -63.6 -103.2 -79.35 -86.95 -115.25 -74.6 -123.75 -68.8 -122.15 -64.2 -111.8 -59.65 -101.5 -59.25 -99.0 -56.25 -77.85 -44.4 -60.8 L-44.3 -60.65 -44.0 -52.85 -44.0 -51.75 -43.85 -44.9 Q-43.5 -10.35 -48.8 10.0 -52.3 42.5 -45.85 68.7 L-45.15 71.45 -45.05 71.85 Q-44.2 75.05 -43.15 77.65 -41.95 80.6 -40.55 82.75 L-48.0 82.75 -50.3 82.75 Q-62.8 82.55 -72.1 79.9 -77.6 78.35 -82.0 75.95 M-88.35 28.75 Q-92.5 27.95 -94.8 20.9 -94.15 19.85 -94.0 18.45 -93.9 17.0 -92.4 14.4 -90.9 11.75 -92.45 8.9 -96.75 9.85 -97.7 16.4 L-99.05 14.65 Q-100.45 12.45 -100.45 10.05 L-100.1 8.1 Q-98.25 -0.45 -90.2 -2.75 L-84.85 -3.75 -84.15 -3.8 -82.35 -3.8 Q-80.8 4.25 -80.65 12.55 -90.0 20.15 -88.35 28.75 M-70.45 -125.9 Q-67.75 -132.3 -62.8 -134.2 L-56.8 -136.4 -55.65 -136.75 -55.6 -136.75 Q-54.25 -132.6 -50.75 -130.7 -49.1 -129.85 -49.25 -131.5 -49.65 -135.6 -50.7 -139.35 -49.05 -141.7 -45.45 -144.8 -41.3 -148.4 -41.0 -148.4 L-40.65 -148.5 Q-46.95 -118.75 -45.9 -87.25 -45.7 -82.05 -47.6 -77.35 L-48.35 -77.25 -49.55 -77.25 -49.6 -77.25 -50.25 -77.45 Q-52.75 -78.6 -53.95 -85.65 -55.45 -111.15 -70.45 -125.9 M-9.25 -75.2 L-8.2 -75.2 -8.75 -75.2 -9.3 -74.4 -9.25 -75.2 M31.1 -76.3 L29.25 -79.2 31.1 -76.3 M34.3 5.85 Q35.0 4.95 35.85 4.2 L35.95 4.15 36.4 3.75 38.85 2.25 39.75 1.9 Q40.7 1.5 43.45 3.8 40.7 1.5 39.75 1.9 L38.85 2.25 36.4 3.75 35.95 4.15 35.85 4.2 Q35.0 4.95 34.3 5.85 L33.7 6.6 33.6 6.75 33.45 6.8 32.35 7.1 Q30.8 7.6 29.55 8.35 33.7 13.55 38.95 14.8 38.35 10.45 34.75 6.35 L34.3 5.85 M20.05 20.9 Q18.15 16.1 17.5 11.1 18.15 16.1 20.05 20.9 M28.35 53.2 Q24.05 55.6 28.9 58.25 38.8 63.75 50.45 62.25 54.0 61.8 54.45 58.65 54.55 57.65 53.7 57.75 40.15 59.75 28.35 53.2 M-68.6 -99.85 L-67.75 -94.25 -68.6 -99.85 M-60.25 -82.0 Q-64.0 -66.0 -67.0 -47.95 -64.0 -66.0 -60.25 -82.0 M-59.15 44.15 Q-68.55 52.55 -81.0 54.1 -82.35 54.25 -81.8 55.45 -78.9 61.4 -72.75 58.5 -66.65 55.6 -61.3 50.45 -56.0 45.3 -59.15 44.15 M-50.3 82.75 L-48.0 82.75 -50.3 82.75" fill="#4c97d9" fill-rule="evenodd" stroke="none"/>
    <path d="M64.05 323.75 Q62.4 330.75 59.25 331.1 59.8 327.35 59.1 324.25 L59.4 324.45 Q62.65 326.8 64.05 323.75 M-5.65 319.0 Q-6.95 314.65 -5.2 310.1 -1.45 268.05 -2.7 207.35 -3.95 145.75 -9.75 92.05 L-12.7 91.6 -13.0 94.6 -13.7 93.75 Q-13.8 92.2 -15.05 91.15 L-12.7 91.6 -15.05 91.15 -15.15 91.15 Q-19.75 90.15 -23.85 88.55 -26.15 87.65 -28.35 86.55 L-30.8 86.95 Q-29.8 87.65 -27.6 90.75 -24.45 95.15 -23.05 112.0 L-29.2 137.05 Q-34.65 160.65 -42.8 182.25 -51.0 203.85 -59.95 213.1 -54.45 220.75 -49.0 213.1 -52.45 218.15 -50.2 240.25 -46.05 280.35 -55.8 318.05 -59.85 317.15 -63.1 315.0 -92.8 295.1 -127.25 300.7 L-126.2 296.85 -123.8 290.55 Q-110.6 250.65 -105.85 205.95 L-100.45 172.1 Q-91.3 108.95 -82.15 78.45 L-82.0 75.95 Q-77.6 78.35 -72.1 79.9 -62.8 82.55 -50.3 82.75 L-48.0 82.75 -40.55 82.75 Q-41.95 80.6 -43.15 77.65 L-42.65 77.75 Q-26.45 80.8 -9.05 81.4 L2.05 81.5 4.85 82.75 2.8 85.8 14.45 86.4 Q33.45 92.85 53.15 93.45 53.05 131.35 51.8 153.1 50.5 174.8 55.2 211.2 59.85 247.6 57.75 309.3 37.65 289.85 12.85 302.7 1.15 308.8 -5.65 319.0 M-35.4 187.7 L-38.95 199.85 -40.65 197.45 -35.4 187.7 M-47.55 327.5 L-48.3 329.85 -48.35 329.85 -47.85 328.45 -47.55 327.5 M7.9 72.45 L7.9 72.4 8.45 72.35 7.9 72.45 M-29.9 85.75 L-28.35 86.55 -29.9 85.75 M-9.75 92.05 L-7.1 92.35 -9.75 92.05" fill="#283e5d" fill-rule="evenodd" stroke="none"/>
    <path d="M59.05 335.8 Q58.35 342.65 55.45 342.6 21.9 345.5 3.1 342.0 2.1 340.55 1.8 336.1 L12.2 336.05 59.05 335.8 M-60.0 333.3 Q-60.3 337.35 -61.5 339.35 -76.7 341.3 -104.5 340.2 L-150.7 339.35 Q-153.0 335.55 -152.6 331.75 -122.45 333.25 -88.7 333.45 L-87.45 333.45 -62.0 333.35 -60.0 333.3 M-2.3 73.4 L-8.3 73.7 -1.85 72.2 -2.05 72.65 -2.3 73.4 M-44.3 -60.65 Q-44.65 -69.0 -45.3 -78.1 -42.85 -79.95 -41.65 -92.75 L-39.9 -110.6 -38.8 -110.15 -26.75 -105.45 Q-18.3 -102.25 -12.75 -105.05 -18.35 -107.9 -25.35 -109.45 -32.7 -111.1 -39.45 -114.25 L-38.35 -121.85 Q-35.3 -115.7 -21.85 -115.75 L-9.0 -115.9 -7.0 -116.0 -6.25 -116.1 -6.8 -114.55 Q-16.85 -82.5 -15.25 -60.85 -13.65 -39.2 -8.7 -14.35 -3.8 10.45 -0.75 35.45 1.1 50.6 0.25 61.05 -22.15 68.0 -45.85 68.7 -52.3 42.5 -48.8 10.0 -43.5 -10.35 -43.85 -44.9 -39.75 -17.85 -32.1 -3.65 L-20.8 16.75 Q-24.1 4.0 -27.7 -5.8 -36.35 -29.4 -44.0 -52.85 L-44.3 -60.65" fill="#1b2734" fill-rule="evenodd" stroke="none"/>
    <path d="M14.25 -165.6 L14.25 -166.25 13.9 -166.95 Q12.85 -169.05 12.15 -171.3 10.75 -175.5 6.45 -175.6 L5.4 -178.3 4.15 -181.7 Q3.3 -184.35 0.85 -185.5 0.6 -187.45 0.5 -189.45 0.4 -191.4 -0.75 -192.35 -7.15 -197.5 -9.55 -187.45 -10.8 -182.3 -12.5 -177.7 -14.35 -181.2 -15.7 -184.8 -18.6 -192.45 -24.0 -198.65 -32.9 -208.95 -44.55 -215.8 L-16.5 -217.75 Q-5.95 -218.25 3.6 -222.1 6.25 -223.15 4.25 -224.8 -1.3 -229.55 -10.05 -228.05 -22.65 -225.9 -31.3 -225.9 -22.95 -230.65 -13.8 -232.95 -11.45 -233.55 -10.15 -234.25 L0.15 -232.6 0.7 -232.5 8.55 -231.25 16.45 -192.15 15.75 -187.3 Q14.65 -179.85 14.35 -173.5 14.15 -169.35 14.25 -165.6 M-28.75 -237.25 L-84.95 -229.55 -85.65 -229.45 -85.5 -230.0 -67.3 -243.5 -28.75 -237.25 M-85.05 -211.15 L-57.6 -214.55 Q-54.15 -209.3 -50.9 -207.1 -47.7 -204.9 -43.45 -198.45 -39.25 -192.0 -33.2 -185.0 -27.15 -178.0 -25.25 -175.45 -25.05 -170.5 -26.75 -166.8 -28.5 -163.15 -30.9 -159.6 -37.75 -156.4 -43.2 -154.45 L-47.35 -153.05 -47.45 -153.05 -51.55 -152.0 -55.55 -151.5 -58.45 -151.95 Q-70.25 -154.7 -78.15 -169.9 -80.7 -175.05 -81.05 -179.1 -88.3 -184.75 -85.1 -189.45 -81.95 -194.2 -81.45 -200.45 L-83.75 -206.4 -85.05 -211.15 M-31.65 -142.2 L-31.7 -142.0 Q-30.2 -140.05 -23.7 -142.25 -17.2 -144.45 -2.15 -154.35 3.1 -148.5 4.75 -141.25 1.45 -132.85 -0.4 -129.95 -1.9 -127.6 -2.3 -127.35 L-2.4 -127.3 Q-3.4 -123.35 -7.4 -118.75 -9.35 -116.55 -9.0 -115.9 L-21.85 -115.75 Q-35.3 -115.7 -38.35 -121.85 L-37.3 -130.25 -37.05 -132.55 -31.65 -142.2 M112.15 -36.7 Q112.5 -35.05 112.5 -33.3 112.55 -30.9 111.95 -28.4 110.4 -22.0 104.75 -15.0 95.4 -5.9 77.65 7.55 64.95 17.25 60.15 23.75 50.15 14.25 45.5 7.25 L43.6 4.05 43.55 3.95 43.45 3.8 52.35 -5.85 67.75 -22.65 Q81.75 -26.6 98.2 -30.55 106.3 -32.5 112.15 -36.7 M-100.1 8.1 Q-110.65 -12.55 -116.9 -31.25 -118.3 -37.5 -117.15 -42.0 -115.25 -40.45 -112.95 -39.2 -108.7 -34.65 -100.85 -29.0 -93.0 -23.35 -90.15 -16.3 -87.35 -9.25 -84.85 -3.75 L-90.2 -2.75 Q-98.25 -0.45 -100.1 8.1 M-52.85 -194.3 Q-53.85 -194.3 -54.2 -193.35 -56.1 -188.8 -49.85 -189.45 -48.7 -189.6 -48.4 -190.65 -47.0 -195.1 -52.85 -194.3 M-14.75 -122.8 L-12.05 -126.05 -2.4 -127.3 -12.05 -126.05 -14.75 -122.8 M-27.4 -123.2 L-28.95 -127.2 -37.3 -130.25 -28.95 -127.2 -27.4 -123.2" fill="#ffe8d7" fill-rule="evenodd" stroke="none"/>
    <path d="M-82.3 34.8 L-85.55 31.55 -88.35 28.75 Q-90.0 20.15 -80.65 12.55 L-80.25 12.25 -79.25 11.5 -76.95 11.5 -82.3 34.8 M25.35 15.65 Q27.6 30.8 44.45 39.15 44.55 42.2 38.35 44.0 L37.85 44.15 Q24.9 33.2 20.05 20.9 L25.35 15.65" fill="#121b25" fill-rule="evenodd" stroke="none"/>
    <path d="M-27.8 -155.1 Q-26.45 -149.3 -29.75 -145.55 L-30.7 -143.8 -31.65 -142.2 -37.05 -132.55 -37.3 -130.25 -38.35 -121.85 -39.45 -114.25 -39.6 -112.9 -39.9 -110.6 -41.65 -92.75 Q-42.85 -79.95 -45.3 -78.1 -44.65 -69.0 -44.3 -60.65 L-44.4 -60.8 Q-56.25 -77.85 -59.25 -99.0 -59.65 -101.5 -64.2 -111.8 -68.8 -122.15 -74.6 -123.75 L-71.75 -125.3 -70.45 -125.9 Q-55.45 -111.15 -53.95 -85.65 -52.75 -78.6 -50.25 -77.45 L-49.6 -77.25 -49.55 -76.3 -49.55 -77.25 -48.35 -77.25 -47.6 -77.35 -46.4 -77.6 -45.5 -77.95 -45.3 -78.1 -45.5 -77.95 -46.4 -77.6 -47.6 -77.35 Q-45.7 -82.05 -45.9 -87.25 -46.95 -118.75 -40.65 -148.5 L-38.65 -149.55 -28.65 -154.7 -27.8 -155.1 M8.7 -128.8 Q14.4 -136.8 21.95 -143.15 L18.8 -145.9 Q16.55 -149.65 15.4 -155.05 L17.9 -157.75 Q25.5 -155.6 30.95 -150.25 L36.1 -145.4 34.15 -144.05 Q13.9 -130.1 3.55 -107.95 -3.8 -92.15 -7.85 -75.35 L-8.15 -75.2 -8.2 -75.2 -8.15 -75.2 Q-6.0 -75.95 -1.55 -81.2 20.2 -104.85 42.1 -120.7 L43.15 -121.3 Q36.65 -116.1 30.9 -109.85 7.4 -84.15 -9.4 -54.2 L-9.4 -54.15 Q-10.05 -64.9 -9.3 -74.4 L-8.75 -75.2 -8.2 -75.2 -9.25 -75.2 Q-8.45 -85.25 -6.4 -94.2 -3.4 -107.35 2.2 -118.2 4.95 -123.6 8.4 -128.4 L8.7 -128.8 M124.35 -53.2 Q120.45 -42.7 112.15 -36.7 106.3 -32.5 98.2 -30.55 81.75 -26.6 67.75 -22.65 L68.55 -23.55 62.65 -21.2 57.55 -34.6 32.95 -73.4 57.55 -34.6 Q57.9 -18.65 52.35 -5.9 L52.35 -5.85 43.45 3.8 Q43.8 1.25 40.35 1.8 46.6 -33.05 32.95 -73.4 L31.1 -76.3 Q59.2 -41.85 81.65 -36.75 109.45 -39.05 124.35 -53.2 M61.9 25.4 L62.6 26.05 Q61.15 29.25 60.1 30.2 75.3 42.45 85.5 64.6 80.7 66.95 76.45 69.15 76.05 63.6 62.65 59.6 45.75 55.8 39.85 45.8 L38.75 44.9 37.85 44.15 38.35 44.0 Q44.55 42.2 44.45 39.15 L47.2 40.45 48.75 40.05 50.45 39.4 Q53.9 37.7 55.6 33.95 L60.1 30.2 55.6 33.95 Q53.9 37.7 50.45 39.4 L48.75 40.05 Q48.7 36.0 48.05 30.55 47.4 25.15 51.85 26.6 56.25 28.0 61.9 25.4 M1.8 336.1 Q1.55 333.2 1.65 329.0 3.3 322.2 9.55 316.7 11.9 314.65 15.6 313.2 L20.5 311.7 22.3 311.3 20.5 311.7 22.3 311.25 22.3 311.3 Q19.0 313.2 14.9 318.0 10.75 322.8 11.45 328.5 L12.2 336.05 1.8 336.1 M-60.2 324.8 Q-59.75 329.8 -60.0 333.3 L-62.0 333.35 -87.45 333.45 -88.7 333.45 Q-93.65 319.75 -102.45 307.65 -93.75 308.9 -85.4 313.05 L-73.8 318.65 -60.2 324.8 M-82.75 36.75 L-82.75 36.7 -82.6 36.1 -82.3 34.8 -76.95 11.5 -73.95 -2.05 -73.75 -1.95 -73.6 -2.4 -73.55 -2.7 Q-73.35 -0.8 -73.7 1.4 -75.85 15.75 -77.5 30.35 -79.2 44.95 -81.35 48.15 -83.55 51.35 -83.45 46.8 -83.4 42.25 -82.75 36.75 L-82.6 36.1 -82.75 36.75 M-94.8 20.9 L-95.3 19.3 -95.55 18.35 -97.7 16.4 Q-96.75 9.85 -92.45 8.9 -90.9 11.75 -92.4 14.4 -93.9 17.0 -94.0 18.45 -94.15 19.85 -94.8 20.9 M-55.6 -136.75 L-51.2 -138.6 -50.7 -139.35 Q-49.65 -135.6 -49.25 -131.5 -49.1 -129.85 -50.75 -130.7 -54.25 -132.6 -55.6 -136.75 M80.2 -97.2 L80.6 -96.55 83.45 -91.9 83.8 -91.35 84.4 -90.7 86.15 -88.5 86.4 -88.2 Q84.55 -84.0 82.0 -80.2 81.0 -78.7 80.5 -80.5 78.65 -87.55 79.9 -95.6 L80.2 -97.2 80.6 -96.55 80.2 -97.2 M34.3 5.85 L34.75 6.35 Q38.35 10.45 38.95 14.8 33.7 13.55 29.55 8.35 30.8 7.6 32.35 7.1 L33.45 6.8 33.6 6.75 33.7 6.6 34.3 5.85 M52.45 54.5 Q45.45 50.25 39.85 45.8 45.45 50.25 52.45 54.5 M28.35 53.2 Q40.15 59.75 53.7 57.75 54.55 57.65 54.45 58.65 54.0 61.8 50.45 62.25 38.8 63.75 28.9 58.25 24.05 55.6 28.35 53.2 M-82.7 -33.6 L-89.15 -33.6 Q-74.8 -46.4 -67.75 -94.25 L-64.05 -69.8 Q-65.75 -58.95 -67.0 -47.95 L-69.05 -34.7 -82.7 -33.6 M-82.35 -3.8 L-82.35 -3.85 -80.4 -3.7 -74.7 -2.3 -74.45 -2.25 -74.35 -2.2 -74.2 -2.15 Q-76.6 4.75 -76.95 11.5 L-79.25 11.5 -80.25 12.25 -80.65 12.55 Q-80.8 4.25 -82.35 -3.8 L-80.4 -3.7 -82.35 -3.8 M-9.4 -54.2 Q-10.0 -64.9 -9.3 -74.4 -10.0 -64.9 -9.4 -54.2 M-59.15 44.15 Q-56.0 45.3 -61.3 50.45 -66.65 55.6 -72.75 58.5 -78.9 61.4 -81.8 55.45 -82.35 54.25 -81.0 54.1 -68.55 52.55 -59.15 44.15" fill="#3572b4" fill-rule="evenodd" stroke="none"/>
    <path d="M58.65 78.2 Q58.6 86.05 58.7 91.0 L58.75 93.95 58.8 97.0 58.85 100.3 Q59.0 118.25 58.6 139.7 L58.45 146.55 Q57.55 185.25 63.05 232.6 68.45 279.9 65.3 315.65 64.85 320.45 64.05 323.75 62.65 326.8 59.4 324.45 L59.1 324.25 58.1 321.4 Q56.9 319.0 54.85 317.1 L54.65 316.95 Q47.85 311.0 31.6 310.05 26.45 310.4 22.3 311.3 L22.3 311.25 20.5 311.7 15.6 313.2 Q11.9 314.65 9.55 316.7 3.3 322.2 1.65 329.0 L-0.75 326.8 -1.2 326.4 Q-3.8 323.65 -5.0 320.85 L-5.35 320.0 -5.65 319.0 Q1.15 308.8 12.85 302.7 37.65 289.85 57.75 309.3 59.85 247.6 55.2 211.2 50.5 174.8 51.8 153.1 53.05 131.35 53.15 93.45 33.45 92.85 14.45 86.4 35.55 86.6 53.4 80.25 L54.75 79.75 58.65 78.2 M-13.0 94.6 Q-16.55 124.75 -22.4 143.75 L-35.4 187.7 -40.65 197.45 -38.95 199.85 -40.15 203.9 -39.3 224.9 -39.1 233.6 -39.05 236.15 -39.0 240.0 Q-38.5 297.95 -47.55 327.5 L-47.85 328.45 -48.35 329.85 -60.2 324.8 -73.8 318.65 -85.4 313.05 Q-93.75 308.9 -102.45 307.65 L-104.1 307.45 Q-113.8 306.35 -123.9 308.8 L-126.85 309.55 Q-127.45 308.5 -127.7 307.1 L-127.7 307.05 Q-128.1 304.45 -127.25 300.7 -92.8 295.1 -63.1 315.0 -59.85 317.15 -55.8 318.05 -46.05 280.35 -50.2 240.25 -52.45 218.15 -49.0 213.1 -54.45 220.75 -59.95 213.1 -51.0 203.85 -42.8 182.25 -34.65 160.65 -29.2 137.05 L-23.05 112.0 Q-24.45 95.15 -27.6 90.75 -29.8 87.65 -30.8 86.95 L-28.35 86.55 Q-26.15 87.65 -23.85 88.55 -19.75 90.15 -15.15 91.15 L-15.05 91.15 Q-13.8 92.2 -13.7 93.75 L-13.0 94.6 M7.9 72.4 L7.9 72.45 7.75 73.5 7.75 73.65 7.5 75.1 Q6.75 78.65 5.5 81.45 L4.85 82.75 2.05 81.5 -9.05 81.4 Q-26.45 80.8 -42.65 77.75 L-43.15 77.65 Q-44.2 75.05 -45.05 71.85 L-45.15 71.45 -31.55 72.05 -12.8 73.55 -8.3 73.7 -2.3 73.4 6.45 72.55 7.9 72.4" fill="#182538" fill-rule="evenodd" stroke="none"/>
    <path d="M-10.15 -234.25 Q-11.45 -233.55 -13.8 -232.95 -22.95 -230.65 -31.3 -225.9 -22.65 -225.9 -10.05 -228.05 -1.3 -229.55 4.25 -224.8 6.25 -223.15 3.6 -222.1 -5.95 -218.25 -16.5 -217.75 L-44.55 -215.8 Q-32.9 -208.95 -24.0 -198.65 -18.6 -192.45 -15.7 -184.8 -14.35 -181.2 -12.5 -177.7 -10.8 -182.3 -9.55 -187.45 -7.15 -197.5 -0.75 -192.35 0.4 -191.4 0.5 -189.45 0.6 -187.45 0.85 -185.5 3.3 -184.35 4.15 -181.7 L5.4 -178.3 6.45 -175.6 Q10.75 -175.5 12.15 -171.3 12.85 -169.05 13.9 -166.95 L14.25 -166.25 14.25 -165.6 14.3 -164.25 14.3 -163.85 14.8 -158.5 15.4 -155.05 Q16.55 -149.65 18.8 -145.9 L21.95 -143.15 Q14.4 -136.8 8.7 -128.8 L8.4 -128.4 Q4.95 -123.6 2.2 -118.2 L0.4 -117.7 -4.65 -116.4 -5.05 -116.3 -5.55 -116.2 -6.25 -116.1 -7.0 -116.0 -9.0 -115.9 Q-9.35 -116.55 -7.4 -118.75 -3.4 -123.35 -2.4 -127.3 L-2.3 -127.35 Q-1.9 -127.6 -0.4 -129.95 1.45 -132.85 4.75 -141.25 3.1 -148.5 -2.15 -154.35 -17.2 -144.45 -23.7 -142.25 -30.2 -140.05 -31.7 -142.0 L-31.65 -142.2 -30.7 -143.8 -29.75 -145.55 Q-26.45 -149.3 -27.8 -155.1 -28.3 -157.0 -29.25 -159.15 L-29.75 -160.15 -30.05 -160.0 -30.5 -159.8 -30.9 -159.6 Q-28.5 -163.15 -26.75 -166.8 -25.05 -170.5 -25.25 -175.45 -27.15 -178.0 -33.2 -185.0 -39.25 -192.0 -43.45 -198.45 -47.7 -204.9 -50.9 -207.1 -54.15 -209.3 -57.6 -214.55 L-85.05 -211.15 Q-87.6 -221.75 -85.65 -229.45 L-84.95 -229.55 -28.75 -237.25 -10.4 -234.3 -10.15 -234.25 M8.7 -128.8 L-2.3 -127.35 8.7 -128.8 M-82.7 -33.6 L-81.55 -31.7 Q-76.6 -16.2 -74.35 -2.2 L-74.45 -2.25 -74.7 -2.3 -80.4 -3.7 -82.35 -3.85 -82.35 -3.8 -84.15 -3.8 -84.85 -3.75 Q-87.35 -9.25 -90.15 -16.3 -93.0 -23.35 -100.85 -29.0 -108.7 -34.65 -112.95 -39.2 -105.25 -34.9 -93.55 -33.85 L-89.15 -33.6 -82.7 -33.6" fill="#e0bcaa" fill-rule="evenodd" stroke="none"/>
    <path d="M2.2 -118.2 Q-3.4 -107.35 -6.4 -94.2 -8.45 -85.25 -9.25 -75.2 L-9.3 -74.4 Q-10.05 -64.9 -9.4 -54.15 L-9.4 -54.2 Q-8.1 -31.05 -0.55 -2.35 13.0 49.35 7.9 72.4 L6.45 72.55 -2.3 73.4 -2.05 72.65 -1.85 72.2 -8.3 73.7 -12.8 73.55 -31.55 72.05 -45.15 71.45 -45.85 68.7 Q-22.15 68.0 0.25 61.05 1.1 50.6 -0.75 35.45 -3.8 10.45 -8.7 -14.35 -13.65 -39.2 -15.25 -60.85 -16.85 -82.5 -6.8 -114.55 L-6.25 -116.1 -5.55 -116.2 -5.05 -116.3 -4.65 -116.4 0.4 -117.7 2.2 -118.2 M-39.45 -114.25 Q-32.7 -111.1 -25.35 -109.45 -18.35 -107.9 -12.75 -105.05 -18.3 -102.25 -26.75 -105.45 L-38.8 -110.15 -39.9 -110.6 -39.6 -112.9 -39.45 -114.25 M-43.85 -44.9 L-44.0 -51.75 -44.0 -52.85 Q-36.35 -29.4 -27.7 -5.8 -24.1 4.0 -20.8 16.75 L-32.1 -3.65 Q-39.75 -17.85 -43.85 -44.9" fill="#070a0e" fill-rule="evenodd" stroke="none"/>
    <path d="M-52.85 -194.3 Q-47.0 -195.1 -48.4 -190.65 -48.7 -189.6 -49.85 -189.45 -56.1 -188.8 -54.2 -193.35 -53.85 -194.3 -52.85 -194.3" fill="#fffce9" fill-rule="evenodd" stroke="none"/>
    <path d="M-10.4 -234.3 L-28.75 -237.25 -67.3 -243.5 -85.5 -230.0 -85.65 -229.45 Q-87.6 -221.75 -85.05 -211.15 L-83.75 -206.4 -81.45 -200.45 Q-81.95 -194.2 -85.1 -189.45 -88.3 -184.75 -81.05 -179.1 -80.7 -175.05 -78.15 -169.9 -70.25 -154.7 -58.45 -151.95 L-55.55 -151.5 -51.55 -152.0 -47.45 -153.05 -47.35 -153.05 -43.2 -154.45 Q-37.75 -156.4 -30.9 -159.6 M-30.5 -159.8 L-30.05 -160.0 -29.75 -160.15 -29.25 -159.15 Q-28.3 -157.0 -27.8 -155.1 -26.45 -149.3 -29.75 -145.55 L-30.7 -143.8 -31.65 -142.2 -37.05 -132.55 -37.3 -130.25 -28.95 -127.2 -27.4 -123.2 M-2.3 -127.35 L8.7 -128.8 Q14.4 -136.8 21.95 -143.15 L18.8 -145.9 Q16.55 -149.65 15.4 -155.05 L14.8 -158.5 14.3 -163.85 M14.3 -164.25 L14.25 -165.6 Q14.15 -169.35 14.35 -173.5 14.65 -179.85 15.75 -187.3 L16.45 -192.15 8.55 -231.25 0.7 -232.5 M0.15 -232.6 L-10.15 -234.25 M17.9 -157.75 L14.8 -158.5 M36.1 -145.4 L30.95 -150.25 Q25.5 -155.6 17.9 -157.75 M36.1 -145.4 L38.1 -143.55 Q46.65 -140.4 56.15 -130.8 60.3 -126.7 59.1 -120.75 68.75 -113.7 77.6 -101.05 L80.1 -97.3 80.2 -97.2 84.2 -90.95 84.4 -90.7 86.45 -88.4 100.5 -72.0 Q115.05 -56.65 124.35 -53.25 L124.35 -53.2 Q120.45 -42.7 112.15 -36.7 112.5 -35.05 112.5 -33.3 112.55 -30.9 111.95 -28.4 110.4 -22.0 104.75 -15.0 95.4 -5.9 77.65 7.55 64.95 17.25 60.15 23.75 L61.5 25.0 61.9 25.4 62.6 26.05 Q61.15 29.25 60.1 30.2 75.3 42.45 85.5 64.6 80.7 66.95 76.45 69.15 L67.25 74.05 Q63.05 76.35 58.65 78.2 58.6 86.05 58.7 91.0 L58.75 93.95 58.8 97.0 58.85 100.3 Q59.0 118.25 58.6 139.7 L58.45 146.55 Q57.55 185.25 63.05 232.6 68.45 279.9 65.3 315.65 64.85 320.45 64.05 323.75 62.4 330.75 59.25 331.1 L59.05 335.8 Q58.35 342.65 55.45 342.6 21.9 345.5 3.1 342.0 2.1 340.55 1.8 336.1 1.55 333.2 1.65 329.0 L-0.75 326.8 -1.2 326.4 Q-3.8 323.65 -5.0 320.85 L-5.35 320.0 -5.65 319.0 Q-6.95 314.65 -5.2 310.1 -1.45 268.05 -2.7 207.35 -3.95 145.75 -9.75 92.05 L-12.7 91.6 -13.0 94.6 Q-16.55 124.75 -22.4 143.75 L-35.4 187.7 -38.95 199.85 -40.15 203.9 -39.3 224.9 -39.1 233.6 -39.05 236.15 -39.0 240.0 Q-38.5 297.95 -47.55 327.5 L-48.3 329.85 -48.35 329.85 -60.2 324.8 Q-59.75 329.8 -60.0 333.3 -60.3 337.35 -61.5 339.35 -76.7 341.3 -104.5 340.2 L-150.7 339.35 Q-153.0 335.55 -152.6 331.75 -152.25 327.75 -148.85 323.75 -138.2 315.95 -123.9 308.8 L-126.85 309.55 Q-127.45 308.5 -127.7 307.1 L-127.7 307.05 Q-128.1 304.45 -127.25 300.7 L-126.2 296.85 -123.8 290.55 Q-110.6 250.65 -105.85 205.95 L-100.45 172.1 Q-91.3 108.95 -82.15 78.45 L-82.0 75.95 Q-89.25 72.0 -90.4 67.05 -86.8 53.55 -82.75 36.75 L-82.6 36.1 -82.3 34.8 -85.55 31.55 -88.35 28.75 Q-92.5 27.95 -94.8 20.9 L-95.3 19.3 -95.55 18.35 -97.7 16.4 -99.05 14.65 Q-100.45 12.45 -100.45 10.05 L-100.1 8.1 Q-110.65 -12.55 -116.9 -31.25 -118.3 -37.5 -117.15 -42.0 -121.0 -45.1 -123.45 -49.3 L-120.75 -52.0 Q-109.95 -63.6 -103.2 -79.35 -86.95 -115.25 -74.6 -123.75 -72.45 -125.25 -70.45 -125.9 -67.75 -132.3 -62.8 -134.2 L-56.8 -136.4 -55.65 -136.75 -55.6 -136.75 -51.2 -138.6 -50.7 -139.35 Q-49.05 -141.7 -45.45 -144.8 -41.3 -148.4 -41.0 -148.4 L-40.65 -148.5 -38.65 -149.55 -28.65 -154.7 -27.8 -155.1 M8.7 -128.8 L8.4 -128.4 Q4.95 -123.6 2.2 -118.2 -3.4 -107.35 -6.4 -94.2 -8.45 -85.25 -9.25 -75.2 L-8.2 -75.2 -8.15 -75.2 Q-6.0 -75.95 -1.55 -81.2 20.2 -104.85 42.1 -120.7 L43.15 -121.3 Q48.25 -124.0 52.95 -123.25 56.1 -122.8 59.1 -120.75 70.4 -111.6 80.1 -97.3 L80.2 -97.2 80.6 -96.55 83.45 -91.9 83.8 -91.35 84.4 -90.7 86.15 -88.5 M86.4 -88.2 Q94.0 -78.9 100.5 -72.0 M-6.25 -116.1 L-5.55 -116.2 -5.05 -116.3 -4.65 -116.4 0.4 -117.7 2.2 -118.2 M31.1 -76.3 L32.95 -73.4 57.55 -34.6 62.65 -21.2 67.75 -22.65 52.35 -5.85 43.45 3.8 43.55 3.95 43.6 4.05 45.5 7.25 Q50.15 14.25 60.15 23.75 M67.75 -22.65 Q81.75 -26.6 98.2 -30.55 106.3 -32.5 112.15 -36.7 M29.25 -79.2 L31.1 -76.3 M52.35 -5.85 L52.35 -5.9 Q57.9 -18.65 57.55 -34.6 M48.75 40.05 L50.45 39.4 Q53.9 37.7 55.6 33.95 L60.1 30.2 M44.45 39.15 L47.2 40.45 48.75 40.05 M43.45 3.8 Q40.7 1.5 39.75 1.9 L38.85 2.25 36.4 3.75 35.95 4.15 35.85 4.2 Q35.0 4.95 34.3 5.85 L33.7 6.6 33.6 6.75 33.45 6.8 32.35 7.1 Q30.8 7.6 29.55 8.35 26.75 10.0 25.05 13.05 L25.35 15.65 Q27.6 30.8 44.45 39.15 44.55 42.2 38.35 44.0 L37.85 44.15 38.75 44.9 39.85 45.8 Q45.45 50.25 52.45 54.5 M17.5 11.1 Q18.15 16.1 20.05 20.9 L25.35 15.65 M20.05 20.9 Q24.9 33.2 37.85 44.15 M7.9 72.45 L7.9 72.4 6.45 72.55 -2.3 73.4 -8.3 73.7 -12.8 73.55 -31.55 72.05 -45.15 71.45 -45.05 71.85 Q-44.2 75.05 -43.15 77.65 -41.95 80.6 -40.55 82.75 L-48.0 82.75 -50.3 82.75 Q-62.8 82.55 -72.1 79.9 -77.6 78.35 -82.0 75.95 M4.85 82.75 L5.5 81.45 Q6.75 78.65 7.5 75.1 L7.75 73.65 7.75 73.5 7.9 72.45 M7.9 72.4 Q13.0 49.35 -0.55 -2.35 -8.1 -31.05 -9.4 -54.2 -10.0 -64.9 -9.3 -74.4 L-9.25 -75.2 M14.45 86.4 L2.8 85.8 4.85 82.75 M58.65 78.2 L54.75 79.75 53.4 80.25 Q35.55 86.6 14.45 86.4 M22.3 311.3 Q26.45 310.4 31.6 310.05 47.85 311.0 54.65 316.95 L54.85 317.1 Q56.9 319.0 58.1 321.4 L59.1 324.25 Q59.8 327.35 59.25 331.1 M20.5 311.7 L22.3 311.3 M20.5 311.7 L15.6 313.2 Q11.9 314.65 9.55 316.7 3.3 322.2 1.65 329.0 M1.8 336.1 L12.2 336.05 59.05 335.8 M-85.5 -230.0 L-91.25 -225.75 -114.4 -221.1 -114.6 -220.0 Q-117.65 -201.45 -118.7 -187.4 L-119.15 -178.4 Q-108.55 -186.55 -107.4 -199.05 L-108.2 -202.5 Q-109.25 -207.25 -109.75 -212.2 L-109.75 -212.5 -109.75 -214.0 -109.85 -215.0 M-109.75 -214.0 Q-109.05 -207.05 -107.3 -200.55 -101.35 -178.65 -83.1 -161.95 -78.0 -157.3 -71.9 -153.05 L-85.05 -172.95 -89.35 -179.45 M-107.4 -199.05 L-107.3 -200.55 M-85.05 -172.95 Q-68.45 -151.65 -51.85 -147.1 L-47.9 -146.3 -51.55 -152.0 M-70.45 -125.9 L-71.75 -125.3 -74.6 -123.75 M-44.3 -60.65 Q-44.65 -69.0 -45.3 -78.1 L-45.5 -77.95 -46.4 -77.6 -47.6 -77.35 -48.35 -77.25 -49.55 -77.25 -49.6 -77.25 -50.25 -77.45 Q-52.75 -78.6 -53.95 -85.65 -55.45 -111.15 -70.45 -125.9 M-2.3 -127.35 L-2.4 -127.3 -12.05 -126.05 -14.75 -122.8 M-9.0 -115.9 L-7.0 -116.0 -6.25 -116.1 M-45.85 68.7 L-45.15 71.45 M-38.35 -121.85 L-39.45 -114.25 M-39.9 -110.6 L-41.65 -92.75 Q-42.85 -79.95 -45.3 -78.1 M-39.6 -112.9 L-39.9 -110.6 M-38.35 -121.85 Q-35.3 -115.7 -21.85 -115.75 L-9.0 -115.9 M-37.3 -130.25 L-38.35 -121.85 M-74.35 -2.2 Q-76.6 -16.2 -81.55 -31.7 L-82.7 -33.6 -89.15 -33.6 -93.55 -33.85 Q-105.25 -34.9 -112.95 -39.2 -115.25 -40.45 -117.15 -42.0 M-84.85 -3.75 L-84.15 -3.8 -82.35 -3.8 -80.4 -3.7 -74.7 -2.3 -74.45 -2.25 -74.35 -2.2 -74.2 -2.15 -73.35 -4.65 -72.2 -9.55 Q-70.95 -21.35 -69.35 -32.45 L-69.05 -34.7 -82.7 -33.6 M-84.85 -3.75 L-90.2 -2.75 Q-98.25 -0.45 -100.1 8.1 M-44.0 -52.85 L-44.0 -51.75 -43.85 -44.9 Q-43.5 -10.35 -48.8 10.0 -52.3 42.5 -45.85 68.7 M-44.0 -52.85 L-44.3 -60.65 M-67.0 -47.95 Q-65.75 -58.95 -64.05 -69.8 L-67.75 -94.25 -68.6 -99.85 M-69.05 -34.7 L-68.35 -34.8 -67.0 -47.95 -69.05 -34.7 M-72.5 -7.15 L-72.2 -9.55 M-73.6 -2.4 L-73.75 -1.95 -73.95 -2.05 -76.95 11.5 -82.3 34.8 M-73.95 -2.05 L-74.2 -2.15 M-76.95 11.5 L-79.25 11.5 -80.25 12.25 -80.65 12.55 Q-90.0 20.15 -88.35 28.75 M-72.5 -7.15 L-73.35 -4.65 -73.95 -2.05 M-72.5 -7.15 L-73.55 -2.7 M-67.0 -47.95 Q-64.0 -66.0 -60.25 -82.0 M-48.0 82.75 L-50.3 82.75 M-28.35 86.55 L-29.9 85.75 M-15.05 91.15 L-15.15 91.15 Q-19.75 90.15 -23.85 88.55 -26.15 87.65 -28.35 86.55 M-7.1 92.35 L-9.75 92.05 M-12.7 91.6 L-15.05 91.15 M-102.45 307.65 L-104.1 307.45 Q-113.8 306.35 -123.9 308.8 M-60.2 324.8 L-73.8 318.65 -85.4 313.05 Q-93.75 308.9 -102.45 307.65 M-88.7 333.45 L-87.45 333.45 -62.0 333.35 -60.0 333.3 M-152.6 331.75 Q-122.45 333.25 -88.7 333.45" fill="none" stroke="#1a5283" stroke-linecap="round" stroke-linejoin="round" stroke-width="2.0"/>
  </g>
</svg>
