<?xml version="1.0" encoding="UTF-8" standalone="no"?>
<svg xmlns:xlink="http://www.w3.org/1999/xlink" height="194.75px" width="217.65px" xmlns="http://www.w3.org/2000/svg">
  <g transform="matrix(1.0, 0.0, 0.0, 1.0, 77.9, 352.6)">
    <path d="M5.9 -236.6 L5.9 -236.65 5.9 -236.6 6.0 -236.4 5.85 -236.45 5.9 -236.6 M103.4 -256.6 L103.4 -256.65 103.4 -256.6 103.4 -256.55 103.4 -256.6 M112.6 -235.55 L112.75 -236.15 112.75 -236.1 112.6 -235.55 M-28.2 -273.05 L-28.2 -272.95 -28.2 -272.9 -28.2 -272.95 -28.2 -273.05" fill="#cccccc" fill-rule="evenodd" stroke="none"/>
    <path d="M-0.8 -255.35 L9.5 -255.7 10.1 -252.45 Q11.3 -246.95 14.0 -241.8 16.15 -237.7 19.25 -233.6 L19.1 -233.65 18.65 -233.7 18.5 -233.75 14.0 -234.6 14.0 -234.55 8.7 -235.7 9.45 -235.55 Q7.0 -238.55 4.15 -242.8 1.25 -247.1 -0.8 -255.35 M28.7 -232.55 L28.25 -232.65 Q23.8 -243.5 23.05 -256.45 43.6 -257.5 67.4 -256.55 91.15 -255.65 104.25 -251.55 105.35 -242.05 103.4 -233.35 99.75 -229.2 75.25 -229.25 L66.1 -229.55 Q53.4 -228.45 40.1 -230.45 L29.2 -232.5 Q44.25 -230.45 66.1 -229.55 44.25 -230.45 29.2 -232.5 L29.05 -232.55 28.7 -232.55 M31.9 -226.75 L48.85 -225.5 Q61.2 -224.7 77.15 -225.4 L107.5 -227.6 115.55 -215.55 Q124.0 -202.7 126.15 -196.2 128.6 -188.7 110.1 -192.2 L101.45 -193.3 99.8 -193.4 97.95 -193.5 89.7 -193.55 85.1 -193.35 74.85 -192.45 59.8 -190.4 60.35 -190.5 53.45 -190.2 51.5 -190.3 49.65 -190.4 49.1 -190.45 49.0 -190.45 48.95 -190.45 48.9 -190.5 48.7 -190.5 Q44.15 -190.9 40.0 -191.8 36.8 -193.9 28.5 -201.55 20.2 -209.2 17.3 -227.25 L21.8 -227.7 26.35 -227.25 26.6 -227.15 26.6 -227.1 28.05 -226.4 32.65 -224.8 33.15 -224.7 31.9 -226.75 M107.45 -227.65 Q104.3 -230.7 105.1 -231.0 L105.4 -230.6 107.45 -227.65" fill="#4c97d9" fill-rule="evenodd" stroke="none"/>
    <path d="M54.05 -298.9 Q52.5 -298.8 51.35 -292.65 50.2 -286.5 57.45 -286.1 64.7 -285.7 64.1 -291.2 63.5 -296.75 54.05 -298.9 M15.2 -303.3 Q10.05 -299.55 8.05 -295.8 6.0 -292.05 7.95 -290.4 9.85 -288.8 13.25 -289.65 16.65 -290.55 19.25 -292.9 21.8 -295.3 21.55 -299.8 21.3 -304.35 15.2 -303.3 M47.5 -261.5 L48.55 -262.1 Q49.55 -262.65 44.2 -275.75 L42.3 -271.0 Q39.15 -263.65 39.3 -261.45 L35.8 -261.4 27.25 -261.2 27.75 -265.75 Q29.0 -274.4 23.4 -277.95 22.4 -277.9 19.45 -269.85 16.5 -261.85 18.2 -249.5 19.9 -237.2 26.6 -227.15 L26.35 -227.25 Q22.25 -229.6 19.25 -233.6 16.15 -237.7 14.0 -241.8 11.3 -246.95 10.1 -252.45 10.4 -253.2 10.2 -254.25 L9.1 -259.8 9.1 -259.2 9.0 -261.6 8.7 -261.6 7.6 -266.3 Q5.4 -275.5 -0.85 -280.4 -6.5 -274.95 -10.25 -266.75 L-10.3 -266.7 -11.3 -265.35 -10.3 -266.7 -10.75 -265.65 -10.9 -265.2 -9.8 -264.7 -11.3 -265.35 Q-13.5 -262.6 -16.0 -259.9 -20.9 -254.75 -23.8 -248.85 L-25.55 -244.8 -27.25 -250.6 Q-28.2 -254.3 -28.6 -257.9 -29.55 -265.65 -28.2 -272.9 L-28.2 -272.95 -28.2 -273.05 -27.7 -275.4 -28.2 -273.05 -28.2 -272.95 -28.65 -273.15 -27.7 -275.35 -27.6 -275.7 -27.7 -275.4 -27.25 -276.6 Q-26.6 -278.45 -26.35 -280.0 -25.5 -285.5 -29.4 -288.05 -31.95 -287.15 -38.75 -282.3 -45.55 -277.45 -47.55 -272.35 -49.5 -267.25 -52.5 -255.35 L-52.5 -255.3 -53.45 -252.5 Q-55.25 -260.1 -54.3 -267.05 L-54.05 -268.6 Q-52.65 -276.35 -47.8 -283.35 -45.55 -286.6 -42.6 -289.7 -45.55 -286.6 -47.8 -283.35 -49.1 -282.2 -52.4 -280.6 -54.65 -279.5 -57.85 -278.2 -65.75 -275.0 -76.9 -269.6 -74.75 -274.5 -71.65 -278.8 -66.25 -286.25 -58.0 -291.75 L-61.45 -292.6 Q-67.65 -294.35 -73.3 -297.5 -68.05 -298.35 -62.45 -300.35 -57.55 -302.15 -52.4 -304.85 -41.5 -310.65 -32.45 -314.1 -24.0 -316.8 -14.25 -320.4 L-13.6 -320.6 Q24.0 -330.4 59.25 -316.85 84.2 -306.55 102.0 -287.7 L103.55 -286.1 103.6 -286.1 103.95 -285.8 Q124.1 -274.25 138.75 -278.95 136.2 -274.05 132.15 -271.45 L131.8 -271.2 Q123.6 -271.7 111.95 -276.15 111.2 -275.4 111.75 -274.4 113.5 -271.15 115.9 -268.9 L115.45 -269.0 117.3 -266.9 Q129.05 -253.25 133.3 -237.85 L131.3 -239.75 131.65 -239.45 130.1 -241.85 Q116.4 -261.2 97.35 -272.9 L96.3 -272.65 Q94.6 -272.1 94.95 -270.6 96.6 -263.55 100.75 -257.3 L96.15 -258.25 85.95 -259.75 87.2 -259.6 75.4 -272.25 Q73.9 -272.25 73.6 -270.85 72.55 -265.7 75.65 -260.65 L76.25 -260.6 73.0 -260.8 Q61.7 -261.5 47.5 -261.5 M107.15 -276.55 Q112.45 -272.3 115.45 -269.0 112.45 -272.3 107.15 -276.55 M10.7 -273.1 Q8.9 -266.8 9.0 -261.6 8.9 -266.8 10.7 -273.1 M7.8 -178.85 Q-15.5 -203.2 -5.9 -227.55 -2.35 -220.7 2.4 -214.15 3.4 -212.85 3.5 -211.6 5.25 -195.4 7.8 -178.85 M82.2 -300.15 Q81.45 -300.0 83.2 -294.15 84.95 -288.35 88.2 -288.7 91.4 -289.05 91.35 -293.95 91.25 -298.85 82.2 -300.15 M106.05 -186.65 Q112.8 -175.05 110.15 -164.25 108.0 -170.95 101.6 -177.9 98.5 -181.25 94.45 -184.6 L106.05 -186.65 M91.7 -184.0 Q92.9 -176.45 95.45 -171.7 L93.85 -172.6 Q90.2 -174.75 87.65 -177.1 85.7 -178.85 84.4 -180.7 85.0 -178.35 85.25 -174.15 L85.3 -173.3 Q85.7 -166.9 87.8 -158.85 82.7 -163.35 78.4 -168.15 73.1 -174.0 68.95 -180.2 72.4 -172.3 77.75 -166.2 73.9 -167.5 70.65 -169.05 67.6 -170.5 65.05 -172.2 60.25 -175.35 57.05 -179.25 L68.95 -180.2 Q76.5 -181.05 84.05 -182.45 L90.15 -183.7 91.7 -184.0 M84.05 -182.45 L84.4 -180.7 84.05 -182.45 M-10.65 -314.05 Q-19.45 -313.05 -27.05 -309.1 -30.9 -307.05 -27.4 -305.9 -23.95 -304.75 -20.15 -305.15 -16.4 -305.55 -11.95 -308.35 -7.5 -311.2 -10.65 -314.05 M-38.8 -276.1 L-38.65 -276.5 -38.7 -276.2 -38.8 -276.1 M-26.35 -280.0 L-25.55 -282.15 -26.35 -280.0 M-35.05 -291.25 Q-47.25 -289.5 -58.0 -291.75 -47.25 -289.5 -35.05 -291.25" fill="#132a4c" fill-rule="evenodd" stroke="none"/>
    <path d="M47.5 -261.5 L47.0 -261.5 39.3 -261.45 Q39.15 -263.65 42.3 -271.0 L44.2 -275.75 Q49.55 -262.65 48.55 -262.1 L47.5 -261.5 M76.25 -260.6 L75.65 -260.65 Q72.55 -265.7 73.6 -270.85 73.9 -272.25 75.4 -272.25 L87.2 -259.6 85.95 -259.75 84.6 -259.9 76.25 -260.6 M100.75 -257.3 Q96.6 -263.55 94.95 -270.6 94.6 -272.1 96.3 -272.65 L97.35 -272.9 Q116.4 -261.2 130.1 -241.85 L131.65 -239.45 131.3 -239.75 121.7 -248.45 121.35 -248.75 Q111.9 -256.9 99.75 -266.2 L101.55 -264.5 Q103.45 -261.65 103.4 -256.65 L103.4 -256.6 100.75 -257.3 M-10.3 -266.7 L-10.25 -266.75 Q-6.5 -274.95 -0.85 -280.4 5.4 -275.5 7.6 -266.3 L8.7 -261.6 Q1.3 -262.2 -0.2 -260.8 L-1.8 -261.4 -9.8 -264.7 -10.9 -265.2 -10.75 -265.65 -10.3 -266.7 Q-7.5 -270.5 -5.35 -274.45 -7.5 -270.5 -10.3 -266.7 M9.5 -255.7 L9.4 -256.3 9.35 -256.9 9.25 -257.45 9.1 -259.2 9.1 -259.8 10.2 -254.25 Q10.4 -253.2 10.1 -252.45 L9.5 -255.7 M26.6 -227.15 Q19.9 -237.2 18.2 -249.5 16.5 -261.85 19.45 -269.85 22.4 -277.9 23.4 -277.95 29.0 -274.4 27.75 -265.75 L27.25 -261.2 22.9 -261.05 Q22.85 -266.1 23.25 -271.35 22.85 -266.1 22.9 -261.05 L23.05 -256.45 Q23.8 -243.5 28.25 -232.65 L31.9 -226.75 33.15 -224.7 32.65 -224.8 28.05 -226.4 26.6 -227.1 26.6 -227.15 28.05 -226.4 26.6 -227.15 M51.5 -190.3 L53.45 -190.2 58.85 -190.25 59.8 -190.4 74.85 -192.45 85.1 -193.35 89.7 -193.55 97.95 -193.5 99.8 -193.4 101.45 -193.3 101.8 -192.85 102.85 -191.45 105.05 -188.25 106.05 -186.65 94.45 -184.6 91.3 -187.15 91.35 -186.6 91.5 -185.3 91.7 -184.0 90.15 -183.7 84.05 -182.45 Q76.5 -181.05 68.95 -180.2 L68.9 -180.35 68.95 -180.2 57.05 -179.25 56.95 -179.4 54.15 -183.55 54.05 -183.7 53.95 -183.9 53.85 -184.05 53.75 -184.25 53.65 -184.45 Q52.35 -187.1 51.6 -190.0 L51.55 -190.15 51.5 -190.3 M-1.05 -239.4 L1.5 -229.75 1.7 -229.0 1.95 -228.15 Q3.4 -222.05 8.7 -214.6 L9.35 -213.65 Q7.55 -193.6 10.15 -176.15 L7.8 -178.85 Q5.25 -195.4 3.5 -211.6 3.4 -212.85 2.4 -214.15 -2.35 -220.7 -5.9 -227.55 -4.3 -233.45 -1.05 -239.4 M-48.75 -263.45 L-49.55 -261.95 -50.25 -260.65 -50.35 -260.45 -52.5 -255.35 Q-49.5 -267.25 -47.55 -272.35 -45.55 -277.45 -38.75 -282.3 -31.95 -287.15 -29.4 -288.05 -25.5 -285.5 -26.35 -280.0 -26.6 -278.45 -27.25 -276.6 L-27.7 -275.4 -27.6 -275.7 -26.35 -280.0 -27.6 -275.7 -27.7 -275.35 -28.65 -273.15 -37.5 -277.35 -38.7 -276.2 -38.65 -276.5 -38.8 -276.1 Q-44.85 -270.2 -48.75 -263.45 L-49.4 -263.9 -49.45 -263.9 -48.75 -263.45 M131.8 -271.2 Q129.05 -269.55 125.7 -268.9 121.3 -268.1 115.9 -268.9 113.5 -271.15 111.75 -274.4 111.2 -275.4 111.95 -276.15 123.6 -271.7 131.8 -271.2 M97.35 -268.55 L99.75 -266.2 97.35 -268.55 M91.3 -187.15 L90.9 -191.75 91.3 -187.15 M91.5 -185.3 L91.7 -184.0 91.5 -185.3 M66.25 -187.55 Q67.4 -183.75 68.9 -180.35 67.4 -183.75 66.25 -187.55 M79.75 -191.9 Q82.75 -187.5 84.05 -182.45 82.75 -187.5 79.75 -191.9 M-32.2 -281.8 Q-35.05 -279.65 -37.5 -277.35 -35.05 -279.65 -32.2 -281.8" fill="#091425" fill-rule="evenodd" stroke="none"/>
    <path d="M-0.2 -260.8 L-1.1 -255.35 -0.8 -255.35 Q1.25 -247.1 4.15 -242.8 7.0 -238.55 9.45 -235.55 L8.7 -235.7 6.05 -236.3 6.0 -236.4 6.05 -236.3 8.7 -235.7 14.0 -234.55 14.0 -234.6 18.5 -233.75 18.65 -233.7 19.1 -233.65 19.25 -233.6 Q22.25 -229.6 26.35 -227.25 L21.8 -227.7 17.3 -227.25 Q20.2 -209.2 28.5 -201.55 36.8 -193.9 40.0 -191.8 32.75 -193.4 26.7 -196.6 22.5 -198.8 18.9 -201.8 L17.55 -203.3 10.3 -212.3 9.65 -213.2 8.7 -214.6 Q3.4 -222.05 1.95 -228.15 L1.7 -229.0 1.5 -229.75 -1.05 -239.4 -4.2 -240.7 -4.25 -240.75 Q-14.0 -244.05 -23.8 -248.85 -20.9 -254.75 -16.0 -259.9 -13.5 -262.6 -11.3 -265.35 L-9.8 -264.7 -1.8 -261.4 -0.2 -260.8 M28.7 -232.55 L29.2 -232.5 28.7 -232.55 29.05 -232.55 29.2 -232.5 40.1 -230.45 Q53.4 -228.45 66.1 -229.55 L75.25 -229.25 Q99.75 -229.2 103.4 -233.35 L105.1 -231.0 Q104.3 -230.7 107.45 -227.65 L107.5 -227.6 107.45 -227.65 107.5 -227.6 77.15 -225.4 Q61.2 -224.7 48.85 -225.5 L31.9 -226.75 28.25 -232.65 28.7 -232.55 M53.45 -190.2 L60.35 -190.5 59.8 -190.4 58.85 -190.25 53.45 -190.2 M6.0 -236.4 L5.9 -236.6 5.9 -236.65 5.9 -236.6 5.85 -236.45 6.0 -236.4 M-1.05 -239.4 L-0.5 -239.15 5.9 -236.6 -0.5 -239.15 -1.05 -239.4 M-27.25 -250.6 L-35.4 -255.05 -36.0 -255.4 -36.1 -255.4 -39.15 -257.25 -39.15 -257.3 Q-43.85 -260.15 -48.55 -263.3 L-48.75 -263.45 Q-44.85 -270.2 -38.8 -276.1 L-38.7 -276.2 -37.5 -277.35 -28.65 -273.15 -28.2 -272.95 -28.2 -272.9 Q-29.55 -265.65 -28.6 -257.9 -28.2 -254.3 -27.25 -250.6 M-54.05 -268.6 Q-57.25 -274.2 -52.4 -280.6 -49.1 -282.2 -47.8 -283.35 -52.65 -276.35 -54.05 -268.6 M-1.1 -255.35 Q-1.9 -247.65 -0.5 -239.15 -1.9 -247.65 -1.1 -255.35" fill="#3572b4" fill-rule="evenodd" stroke="none"/>
    <path d="M47.0 -261.5 L47.5 -261.5 Q61.7 -261.5 73.0 -260.8 L76.25 -260.6 84.6 -259.9 85.95 -259.75 96.15 -258.25 100.75 -257.3 103.4 -256.6 103.4 -256.55 104.15 -252.3 104.25 -251.55 Q91.15 -255.65 67.4 -256.55 43.6 -257.5 23.05 -256.45 L22.9 -261.05 27.25 -261.2 35.8 -261.4 39.3 -261.45 47.0 -261.5 M8.7 -261.6 L9.0 -261.6 9.1 -259.2 9.25 -257.45 9.35 -256.9 9.4 -256.3 9.5 -255.7 -0.8 -255.35 -1.1 -255.35 -0.2 -260.8 Q1.3 -262.2 8.7 -261.6" fill="#79c7ff" fill-rule="evenodd" stroke="none"/>
    <path d="M15.2 -303.3 Q21.3 -304.35 21.55 -299.8 21.8 -295.3 19.25 -292.9 16.65 -290.55 13.25 -289.65 9.85 -288.8 7.95 -290.4 6.0 -292.05 8.05 -295.8 10.05 -299.55 15.2 -303.3 M54.05 -298.9 Q63.5 -296.75 64.1 -291.2 64.7 -285.7 57.45 -286.1 50.2 -286.5 51.35 -292.65 52.5 -298.8 54.05 -298.9 M82.2 -300.15 Q91.25 -298.85 91.35 -293.95 91.4 -289.05 88.2 -288.7 84.95 -288.35 83.2 -294.15 81.45 -300.0 82.2 -300.15 M-10.65 -314.05 Q-7.5 -311.2 -11.95 -308.35 -16.4 -305.55 -20.15 -305.15 -23.95 -304.75 -27.4 -305.9 -30.9 -307.05 -27.05 -309.1 -19.45 -313.05 -10.65 -314.05" fill="#245091" fill-rule="evenodd" stroke="none"/>
    <path d="M39.3 -261.45 L47.0 -261.5 M47.5 -261.5 Q61.7 -261.5 73.0 -260.8 L76.25 -260.6 84.6 -259.9 85.95 -259.75 96.15 -258.25 100.75 -257.3 103.4 -256.6 103.4 -256.65 Q103.45 -261.65 101.55 -264.5 L99.75 -266.2 Q111.9 -256.9 121.35 -248.75 L121.7 -248.45 131.3 -239.75 133.3 -237.85 Q129.05 -253.25 117.3 -266.9 L115.45 -269.0 Q112.45 -272.3 107.15 -276.55 M8.7 -261.6 L9.0 -261.6 Q8.9 -266.8 10.7 -273.1 M8.7 -261.6 Q1.3 -262.2 -0.2 -260.8 L-1.1 -255.35 Q-1.9 -247.65 -0.5 -239.15 L-1.05 -239.4 1.5 -229.75 1.7 -229.0 1.95 -228.15 Q3.4 -222.05 8.7 -214.6 L9.65 -213.2 10.3 -212.3 17.55 -203.3 18.9 -201.8 Q22.5 -198.8 26.7 -196.6 32.75 -193.4 40.0 -191.8 44.15 -190.9 48.7 -190.5 L48.9 -190.5 48.95 -190.45 49.0 -190.45 49.1 -190.45 49.65 -190.4 51.5 -190.3 53.45 -190.2 58.85 -190.25 59.8 -190.4 74.85 -192.45 85.1 -193.35 89.7 -193.55 97.95 -193.5 99.8 -193.4 101.45 -193.3 110.1 -192.2 Q128.6 -188.7 126.15 -196.2 124.0 -202.7 115.55 -215.55 L107.5 -227.6 107.45 -227.65 105.4 -230.6 105.1 -231.0 103.4 -233.35 Q99.75 -229.2 75.25 -229.25 L66.1 -229.55 Q44.25 -230.45 29.2 -232.5 L28.7 -232.55 28.25 -232.65 31.9 -226.75 33.15 -224.7 32.65 -224.8 28.05 -226.4 26.6 -227.15 26.35 -227.25 Q22.25 -229.6 19.25 -233.6 L19.1 -233.65 18.65 -233.7 M9.5 -255.7 L9.4 -256.3 9.35 -256.9 9.25 -257.45 9.1 -259.2 9.0 -261.6 M9.5 -255.7 L10.1 -252.45 Q11.3 -246.95 14.0 -241.8 16.15 -237.7 19.25 -233.6 M27.25 -261.2 L35.8 -261.4 39.3 -261.45 M22.9 -261.05 L27.25 -261.2 M22.9 -261.05 Q22.85 -266.1 23.25 -271.35 M23.05 -256.45 L22.9 -261.05 M5.9 -236.6 L5.9 -236.65 5.9 -236.6 6.0 -236.4 6.05 -236.3 8.7 -235.7 14.0 -234.55 14.0 -234.6 18.5 -233.75 M6.0 -236.4 L5.85 -236.45 5.9 -236.6 -0.5 -239.15 M8.7 -214.6 L9.35 -213.65 Q7.55 -193.6 10.15 -176.15 L7.8 -178.85 Q-15.5 -203.2 -5.9 -227.55 -4.3 -233.45 -1.05 -239.4 L-4.2 -240.7 -4.25 -240.75 Q-14.0 -244.05 -23.8 -248.85 L-25.55 -244.8 -27.25 -250.6 -35.4 -255.05 -36.1 -255.4 -39.15 -257.25 -39.15 -257.3 Q-43.85 -260.15 -48.55 -263.3 L-48.75 -263.45 -49.55 -261.95 -50.25 -260.65 -50.35 -260.45 -52.5 -255.35 -52.5 -255.3 -53.45 -252.5 Q-55.25 -260.1 -54.3 -267.05 L-54.05 -268.6 Q-57.25 -274.2 -52.4 -280.6 -54.65 -279.5 -57.85 -278.2 -65.75 -275.0 -76.9 -269.6 -74.75 -274.5 -71.65 -278.8 -66.25 -286.25 -58.0 -291.75 L-61.45 -292.6 Q-67.65 -294.35 -73.3 -297.5 -68.05 -298.35 -62.45 -300.35 -57.55 -302.15 -52.4 -304.85 -41.5 -310.65 -32.45 -314.1 -24.0 -316.8 -14.25 -320.4 L-13.6 -320.6 Q24.0 -330.4 59.25 -316.85 84.2 -306.55 102.0 -287.7 L103.55 -286.1 103.6 -286.1 103.95 -285.8 Q124.1 -274.25 138.75 -278.95 136.2 -274.05 132.15 -271.45 L131.8 -271.2 Q129.05 -269.55 125.7 -268.9 121.3 -268.1 115.9 -268.9 L115.45 -269.0 M23.05 -256.45 Q23.8 -243.5 28.25 -232.65 M99.75 -266.2 L97.35 -268.55 M103.4 -256.6 L103.4 -256.65 M103.4 -256.55 L104.15 -252.3 104.25 -251.55 Q105.35 -242.05 103.4 -233.35 M103.4 -256.55 L103.4 -256.6 103.4 -256.55 M101.45 -193.3 L101.8 -192.85 102.85 -191.45 105.05 -188.25 106.05 -186.65 Q112.8 -175.05 110.15 -164.25 108.0 -170.95 101.6 -177.9 98.5 -181.25 94.45 -184.6 L91.3 -187.15 91.35 -186.6 91.5 -185.3 91.7 -184.0 Q92.9 -176.45 95.45 -171.7 L93.85 -172.6 Q90.2 -174.75 87.65 -177.1 85.7 -178.85 84.4 -180.7 85.0 -178.35 85.25 -174.15 L85.3 -173.3 Q85.7 -166.9 87.8 -158.85 82.7 -163.35 78.4 -168.15 73.1 -174.0 68.95 -180.2 72.4 -172.3 77.75 -166.2 73.9 -167.5 70.65 -169.05 67.6 -170.5 65.05 -172.2 60.25 -175.35 57.05 -179.25 M68.9 -180.35 L68.95 -180.2 M56.95 -179.4 L54.15 -183.55 54.05 -183.7 53.95 -183.9 53.85 -184.05 53.75 -184.25 53.65 -184.45 Q52.35 -187.1 51.6 -190.0 L51.55 -190.15 51.5 -190.3 M84.4 -180.7 L84.05 -182.45 Q82.75 -187.5 79.75 -191.9 M90.9 -191.75 L91.3 -187.15 M68.9 -180.35 Q67.4 -183.75 66.25 -187.55 M-38.8 -276.1 L-38.7 -276.2 -37.5 -277.35 Q-35.05 -279.65 -32.2 -281.8 M-25.55 -282.15 L-26.35 -280.0 -27.6 -275.7 -27.7 -275.4 -28.2 -273.05 -28.2 -272.95 -28.2 -272.9 Q-29.55 -265.65 -28.6 -257.9 -28.2 -254.3 -27.25 -250.6 M-28.65 -273.15 L-28.2 -272.95 -28.2 -273.05 M-28.2 -272.95 L-28.2 -272.9 M-37.5 -277.35 L-28.65 -273.15 M-36.1 -255.4 L-36.0 -255.4 -35.4 -255.05 M-0.2 -260.8 L-1.8 -261.4 -9.8 -264.7 -11.3 -265.35 Q-13.5 -262.6 -16.0 -259.9 -20.9 -254.75 -23.8 -248.85 M-11.3 -265.35 L-10.3 -266.7 Q-7.5 -270.5 -5.35 -274.45 M-42.6 -289.7 Q-45.55 -286.6 -47.8 -283.35 -52.65 -276.35 -54.05 -268.6 M-52.4 -280.6 Q-49.1 -282.2 -47.8 -283.35 M-58.0 -291.75 Q-47.25 -289.5 -35.05 -291.25 M-48.75 -263.45 Q-44.85 -270.2 -38.8 -276.1" fill="none" stroke="#1a5283" stroke-linecap="round" stroke-linejoin="round" stroke-width="2.0"/>
    <path d="M46.05 -317.25 L40.05 -315.7 Q32.45 -330.8 26.25 -351.6 47.35 -345.5 43.2 -318.5 49.5 -331.55 61.45 -348.35 71.45 -337.2 46.05 -317.25" fill="#132a4c" fill-rule="evenodd" stroke="none"/>
    <path d="M46.05 -317.25 Q71.45 -337.2 61.45 -348.35 49.5 -331.55 43.2 -318.5 47.35 -345.5 26.25 -351.6 32.45 -330.8 40.05 -315.7" fill="none" stroke="#1a5283" stroke-linecap="round" stroke-linejoin="round" stroke-width="2.0"/>
  </g>
</svg>
