<?xml version="1.0" encoding="UTF-8" standalone="no"?>
<svg xmlns:xlink="http://www.w3.org/1999/xlink" height="194.8px" width="217.15px" xmlns="http://www.w3.org/2000/svg">
  <g transform="matrix(1.0, 0.0, 0.0, 1.0, 80.3, 351.0)">
    <path d="M5.9 -236.65 L5.9 -236.6 6.0 -236.4 5.85 -236.45 5.9 -236.6 5.9 -236.65 M103.4 -256.55 L103.4 -256.6 103.4 -256.65 103.4 -256.6 103.4 -256.55 M112.6 -235.55 L112.75 -236.15 112.75 -236.1 112.6 -235.55 M-64.75 -278.05 L-64.1 -278.85 -64.05 -278.85 -64.75 -278.05" fill="#cccccc" fill-rule="evenodd" stroke="none"/>
    <path d="M2.3 -251.25 Q2.4 -248.8 2.85 -246.3 0.9 -249.45 -2.35 -252.0 L-2.4 -250.95 Q-2.35 -253.6 -1.8 -256.15 L-1.05 -256.1 Q1.4 -256.4 2.6 -257.05 2.2 -254.15 2.3 -251.25 M5.55 -237.45 L5.9 -236.65 5.9 -236.6 5.55 -236.7 5.55 -237.45 M15.7 -253.85 Q18.25 -257.8 39.8 -256.35 58.5 -256.45 75.3 -255.9 90.05 -255.45 104.2 -252.1 105.45 -242.3 103.4 -233.35 99.75 -229.2 75.25 -229.25 41.8 -230.15 20.95 -233.35 L19.1 -233.65 17.9 -233.85 14.0 -234.6 Q13.5 -243.85 15.7 -253.85 M41.05 -191.6 Q35.8 -194.75 28.4 -202.95 20.95 -211.2 19.15 -219.8 17.35 -228.4 18.1 -227.5 L26.7 -226.25 53.35 -224.95 Q76.2 -223.75 106.5 -229.05 L115.55 -215.55 Q124.0 -202.7 126.15 -196.2 128.6 -188.7 110.1 -192.2 L99.8 -193.4 97.95 -193.5 89.7 -193.55 85.1 -193.35 74.85 -192.45 58.85 -190.25 Q53.75 -190.1 49.1 -190.45 L49.0 -190.45 48.95 -190.45 48.9 -190.5 48.7 -190.5 41.05 -191.6" fill="#4c97d9" fill-rule="evenodd" stroke="none"/>
    <path d="M54.05 -298.9 Q52.5 -298.8 53.55 -292.0 54.55 -285.25 59.8 -284.95 65.05 -284.65 65.35 -290.7 65.6 -296.75 54.05 -298.9 M15.2 -303.3 Q10.15 -300.3 8.45 -296.2 6.7 -292.1 10.55 -290.6 14.4 -289.15 15.75 -289.85 17.1 -290.6 19.45 -292.95 21.8 -295.3 21.55 -299.8 21.3 -304.35 15.2 -303.3 M43.2 -261.45 Q49.45 -262.05 43.45 -276.8 L44.55 -276.65 43.95 -276.9 43.45 -276.8 43.0 -276.5 42.7 -276.25 42.15 -274.55 Q40.75 -267.85 38.45 -261.45 L39.4 -261.45 35.8 -261.4 21.75 -261.05 23.85 -263.35 Q26.85 -267.0 22.65 -280.75 14.95 -273.7 12.2 -262.05 9.9 -252.3 10.55 -242.25 11.0 -234.3 12.05 -226.45 8.3 -231.45 6.0 -236.4 L5.9 -236.6 5.9 -236.65 5.55 -237.45 5.4 -237.8 Q4.45 -240.0 3.8 -242.2 L3.6 -242.9 2.85 -246.3 Q2.4 -248.8 2.3 -251.25 5.35 -251.95 3.95 -258.55 L3.4 -261.3 3.1 -270.0 Q3.0 -275.55 -3.55 -283.5 -9.5 -277.6 -12.25 -268.45 L-11.4 -269.35 -12.25 -268.4 -12.5 -267.7 -12.9 -266.0 -14.25 -266.55 Q-22.6 -259.1 -36.0 -255.4 -39.05 -254.6 -42.3 -253.95 L-39.15 -257.3 Q-36.65 -260.25 -34.55 -263.75 L-31.95 -268.75 Q-29.3 -273.1 -27.1 -277.9 -23.15 -286.55 -30.5 -289.0 L-31.7 -288.65 -35.15 -287.05 Q-52.4 -279.35 -59.8 -262.9 L-60.75 -259.7 -62.5 -257.2 Q-64.2 -264.3 -62.25 -270.4 -59.75 -278.25 -51.2 -284.45 L-60.35 -282.55 Q-71.3 -279.75 -79.3 -274.95 -76.45 -280.3 -71.95 -284.7 -64.95 -291.65 -54.0 -296.3 L-55.75 -297.0 Q-64.0 -300.55 -72.55 -307.1 L-59.0 -307.75 Q-41.45 -310.25 -14.25 -320.4 L-13.6 -320.6 Q24.0 -330.4 59.25 -316.85 84.2 -306.55 102.0 -287.7 L103.55 -286.1 Q120.5 -273.05 135.85 -270.75 131.6 -267.95 126.45 -267.05 L113.45 -267.55 114.45 -265.85 Q121.5 -253.7 122.2 -242.45 113.4 -261.5 96.95 -275.95 95.65 -275.95 95.7 -274.85 96.0 -266.15 99.2 -257.65 L96.15 -258.25 86.65 -259.65 Q79.75 -265.4 73.85 -271.5 71.7 -271.3 72.05 -269.25 72.8 -265.0 73.85 -260.75 L73.0 -260.8 Q61.5 -261.5 47.0 -261.5 L43.2 -261.45 M107.1 -276.6 Q110.7 -272.0 113.45 -267.55 110.7 -272.0 107.1 -276.6 M77.25 -260.5 L78.2 -260.45 78.1 -260.65 78.35 -260.45 77.25 -260.5 M9.75 -275.25 Q5.15 -268.3 3.4 -261.3 5.15 -268.3 9.75 -275.25 M-4.1 -182.25 Q-19.25 -204.95 -7.85 -228.35 L-7.15 -227.0 Q-2.65 -218.75 3.3 -211.4 -3.75 -197.55 -4.1 -182.25 M82.2 -300.15 Q80.95 -300.1 80.75 -298.95 79.3 -288.65 90.55 -288.3 91.85 -288.25 91.0 -292.6 90.15 -296.95 82.2 -300.15 M101.65 -185.2 Q102.85 -173.85 96.2 -164.15 L90.5 -184.65 101.65 -185.2 M89.65 -183.8 Q89.25 -181.0 88.2 -178.4 86.35 -173.85 82.4 -170.05 L79.85 -181.75 79.95 -181.45 89.55 -183.2 89.65 -183.8 M79.5 -181.4 Q79.85 -176.85 79.3 -172.6 78.1 -164.2 73.15 -157.2 72.8 -162.05 71.1 -167.6 69.35 -173.25 66.2 -179.55 L79.5 -181.4 M64.25 -179.35 Q65.0 -168.5 67.7 -162.05 L67.7 -162.0 Q65.35 -164.05 63.35 -166.05 L61.1 -168.35 Q56.4 -173.4 53.5 -178.35 L64.25 -179.35 M-10.65 -314.05 Q-17.7 -312.05 -23.8 -309.3 -29.95 -306.55 -26.9 -305.55 -23.85 -304.6 -19.75 -304.55 -15.7 -304.5 -11.6 -307.85 -7.5 -311.2 -10.65 -314.05 M-38.2 -277.65 L-37.35 -277.3 -36.4 -277.75 -36.5 -276.9 -38.2 -277.65 M-14.25 -266.55 L-12.25 -268.45 -14.25 -266.55 M-42.6 -289.7 Q-47.45 -287.2 -51.2 -284.45 -47.45 -287.2 -42.6 -289.7 M-35.55 -293.1 Q-44.6 -292.7 -54.0 -296.3 -44.6 -292.7 -35.55 -293.1" fill="#132a4c" fill-rule="evenodd" stroke="none"/>
    <path d="M39.4 -261.45 L38.45 -261.45 Q40.75 -267.85 42.15 -274.55 L42.7 -276.25 43.0 -276.5 43.45 -276.8 43.95 -276.9 44.55 -276.65 43.45 -276.8 Q49.45 -262.05 43.2 -261.45 L42.2 -261.45 39.4 -261.45 M73.85 -260.75 Q72.8 -265.0 72.05 -269.25 71.7 -271.3 73.85 -271.5 79.75 -265.4 86.65 -259.65 L84.6 -259.9 78.35 -260.45 78.1 -260.65 78.2 -260.45 77.25 -260.5 74.45 -260.7 73.85 -260.75 M99.2 -257.65 Q96.0 -266.15 95.7 -274.85 95.65 -275.95 96.95 -275.95 113.4 -261.5 122.2 -242.45 L122.25 -241.75 122.2 -242.45 122.25 -242.45 122.25 -241.75 Q122.45 -237.9 121.9 -234.1 L121.85 -233.85 Q119.2 -242.05 114.2 -249.9 109.35 -257.5 101.5 -264.55 L101.55 -264.5 Q103.45 -261.65 103.4 -256.65 L103.4 -256.6 103.05 -256.7 102.7 -256.8 102.6 -256.8 102.25 -256.9 99.2 -257.65 M3.4 -261.3 L3.95 -258.55 Q5.35 -251.95 2.3 -251.25 2.2 -254.15 2.6 -257.05 L3.05 -259.65 3.4 -261.3 3.05 -259.65 -0.4 -260.9 -1.8 -261.4 -12.9 -266.0 -12.5 -267.7 -12.25 -268.4 -11.4 -269.35 -12.25 -268.45 Q-9.5 -277.6 -3.55 -283.5 3.0 -275.55 3.1 -270.0 L3.4 -261.3 M12.05 -226.45 Q11.0 -234.3 10.55 -242.25 9.9 -252.3 12.2 -262.05 14.95 -273.7 22.65 -280.75 26.85 -267.0 23.85 -263.35 L21.75 -261.05 20.8 -261.0 21.75 -261.05 20.8 -261.0 20.3 -261.0 17.55 -260.9 Q16.45 -257.35 15.7 -253.85 13.5 -243.85 14.0 -234.6 14.35 -227.85 16.1 -221.55 13.9 -224.0 12.05 -226.45 M21.5 -271.9 Q19.15 -266.3 17.55 -260.9 19.15 -266.3 21.5 -271.9 M-1.05 -239.4 L1.5 -229.75 Q3.5 -222.1 9.35 -213.65 -1.8 -195.95 -0.6 -177.4 L-0.75 -177.6 -4.1 -182.25 Q-3.75 -197.55 3.3 -211.4 -2.65 -218.75 -7.15 -227.0 L-7.85 -228.35 Q-5.2 -233.85 -1.05 -239.4 M-54.15 -267.2 L-55.1 -266.25 -55.9 -265.45 -60.55 -260.0 -60.75 -259.7 -59.8 -262.9 Q-52.4 -279.35 -35.15 -287.05 L-31.7 -288.65 -30.5 -289.0 Q-23.15 -286.55 -27.1 -277.9 -29.3 -273.1 -31.95 -268.75 -30.9 -271.0 -30.0 -273.4 L-34.65 -276.1 -36.5 -276.9 -36.4 -277.75 -37.35 -277.3 -38.2 -277.65 -38.5 -277.75 -39.6 -278.25 Q-48.05 -273.1 -54.15 -267.2 M97.35 -268.55 L101.55 -264.5 97.35 -268.55 M99.8 -193.4 Q101.2 -189.2 101.65 -185.2 L90.5 -184.65 89.9 -186.9 89.9 -186.4 89.65 -183.8 89.55 -183.2 79.95 -181.45 79.85 -181.75 78.8 -186.7 79.5 -181.4 66.2 -179.55 64.05 -183.7 64.25 -179.35 53.5 -178.35 Q50.0 -184.2 49.05 -189.95 L48.95 -190.45 49.0 -190.45 49.1 -190.45 Q53.75 -190.1 58.85 -190.25 L74.85 -192.45 85.1 -193.35 89.7 -193.55 97.95 -193.5 99.8 -193.4 M89.9 -186.9 L89.7 -190.15 89.7 -193.05 89.7 -193.55 89.7 -193.05 89.7 -190.15 89.9 -186.9 M63.95 -187.7 L64.05 -183.7 63.95 -187.7 M77.7 -191.35 L78.55 -187.85 78.7 -187.25 78.8 -186.7 78.7 -187.25 78.55 -187.85 77.7 -191.35 M-39.6 -278.25 L-33.8 -281.7 -39.6 -278.25 M-26.6 -285.3 Q-27.95 -278.9 -30.0 -273.4 -27.95 -278.9 -26.6 -285.3 M-6.2 -276.6 Q-8.4 -272.7 -11.4 -269.35 -8.4 -272.7 -6.2 -276.6" fill="#091425" fill-rule="evenodd" stroke="none"/>
    <path d="M2.85 -246.3 L3.6 -242.9 3.8 -242.2 Q4.45 -240.0 5.4 -237.8 L5.55 -237.45 5.55 -236.7 5.9 -236.6 5.85 -236.45 6.0 -236.4 Q8.3 -231.45 12.05 -226.45 13.9 -224.0 16.1 -221.55 14.35 -227.85 14.0 -234.6 L17.9 -233.85 19.1 -233.65 20.95 -233.35 Q41.8 -230.15 75.25 -229.25 99.75 -229.2 103.4 -233.35 L105.4 -230.6 106.5 -229.05 Q76.2 -223.75 53.35 -224.95 L26.7 -226.25 18.1 -227.5 Q17.35 -228.4 19.15 -219.8 20.95 -211.2 28.4 -202.95 35.8 -194.75 41.05 -191.6 L41.05 -191.55 Q30.45 -193.7 22.35 -199.2 20.55 -200.45 18.9 -201.8 L17.55 -203.3 10.3 -212.3 9.65 -213.2 9.35 -213.65 Q3.5 -222.1 1.5 -229.75 L-1.05 -239.4 -4.2 -240.7 -4.25 -240.75 Q-20.0 -246.1 -36.0 -255.4 -22.6 -259.1 -14.25 -266.55 L-12.9 -266.0 -1.8 -261.4 -0.4 -260.9 Q-1.35 -258.55 -1.8 -256.15 -2.35 -253.6 -2.4 -250.95 L-2.35 -252.0 Q0.9 -249.45 2.85 -246.3 M41.05 -191.6 Q30.4 -193.75 22.35 -199.2 30.4 -193.75 41.05 -191.6 M-39.15 -257.3 Q-43.85 -260.15 -48.55 -263.3 L-49.4 -263.9 -49.45 -263.9 -51.15 -265.1 -54.15 -267.2 Q-48.05 -273.1 -39.6 -278.25 L-38.5 -277.75 -38.2 -277.65 -36.5 -276.9 -34.65 -276.1 -30.0 -273.4 Q-30.9 -271.0 -31.95 -268.75 L-34.55 -263.75 Q-36.65 -260.25 -39.15 -257.3 M-2.4 -250.95 L-2.1 -246.15 -2.05 -246.05 -1.85 -244.8 -1.5 -243.15 -1.0 -241.25 -0.3 -239.1 -1.05 -239.4 -0.3 -239.1 -1.0 -241.25 -1.5 -243.15 -1.85 -244.8 -2.05 -246.05 -2.1 -246.15 -2.4 -250.95 M5.55 -236.7 L-0.3 -239.1 5.55 -236.7" fill="#3572b4" fill-rule="evenodd" stroke="none"/>
    <path d="M43.2 -261.45 L47.0 -261.5 Q61.5 -261.5 73.0 -260.8 L73.85 -260.75 74.45 -260.7 77.25 -260.5 78.35 -260.45 84.6 -259.9 86.65 -259.65 96.15 -258.25 99.2 -257.65 102.25 -256.9 102.6 -256.8 102.7 -256.8 103.05 -256.7 103.4 -256.6 103.4 -256.55 104.15 -252.3 104.2 -252.1 Q90.05 -255.45 75.3 -255.9 58.5 -256.45 39.8 -256.35 18.25 -257.8 15.7 -253.85 16.45 -257.35 17.55 -260.9 L20.3 -261.0 20.8 -261.0 21.75 -261.05 35.8 -261.4 39.4 -261.45 42.2 -261.45 43.2 -261.45 M3.05 -259.65 L2.6 -257.05 Q1.4 -256.4 -1.05 -256.1 L-1.8 -256.15 Q-1.35 -258.55 -0.4 -260.9 L3.05 -259.65" fill="#79c7ff" fill-rule="evenodd" stroke="none"/>
    <path d="M15.2 -303.3 Q21.3 -304.35 21.55 -299.8 21.8 -295.3 19.45 -292.95 17.1 -290.6 15.75 -289.85 14.4 -289.15 10.55 -290.6 6.7 -292.1 8.45 -296.2 10.15 -300.3 15.2 -303.3 M54.05 -298.9 Q65.6 -296.75 65.35 -290.7 65.05 -284.65 59.8 -284.95 54.55 -285.25 53.55 -292.0 52.5 -298.8 54.05 -298.9 M82.2 -300.15 Q90.15 -296.95 91.0 -292.6 91.85 -288.25 90.55 -288.3 79.3 -288.65 80.75 -298.95 80.95 -300.1 82.2 -300.15 M-10.65 -314.05 Q-7.5 -311.2 -11.6 -307.85 -15.7 -304.5 -19.75 -304.55 -23.85 -304.6 -26.9 -305.55 -29.95 -306.55 -23.8 -309.3 -17.7 -312.05 -10.65 -314.05" fill="#245091" fill-rule="evenodd" stroke="none"/>
    <path d="M43.2 -261.45 L47.0 -261.5 Q61.5 -261.5 73.0 -260.8 L73.85 -260.75 74.45 -260.7 77.25 -260.5 78.35 -260.45 84.6 -259.9 86.65 -259.65 96.15 -258.25 99.2 -257.65 M122.2 -242.45 Q121.5 -253.7 114.45 -265.85 L113.45 -267.55 Q110.7 -272.0 107.1 -276.6 M39.4 -261.45 L42.2 -261.45 43.2 -261.45 M2.3 -251.25 Q2.4 -248.8 2.85 -246.3 L3.6 -242.9 3.8 -242.2 Q4.45 -240.0 5.4 -237.8 L5.55 -237.45 5.9 -236.65 5.9 -236.6 6.0 -236.4 Q8.3 -231.45 12.05 -226.45 13.9 -224.0 16.1 -221.55 14.35 -227.85 14.0 -234.6 L17.9 -233.85 19.1 -233.65 20.95 -233.35 Q41.8 -230.15 75.25 -229.25 99.75 -229.2 103.4 -233.35 105.45 -242.3 104.2 -252.1 L104.15 -252.3 103.4 -256.55 103.4 -256.6 103.05 -256.7 102.7 -256.8 102.6 -256.8 102.25 -256.9 M21.75 -261.05 L35.8 -261.4 39.4 -261.45 M3.4 -261.3 Q5.15 -268.3 9.75 -275.25 M3.4 -261.3 L3.05 -259.65 2.6 -257.05 Q2.2 -254.15 2.3 -251.25 M15.7 -253.85 Q16.45 -257.35 17.55 -260.9 19.15 -266.3 21.5 -271.9 M21.75 -261.05 L20.8 -261.0 M20.3 -261.0 L17.55 -260.9 M15.7 -253.85 Q13.5 -243.85 14.0 -234.6 M5.55 -236.7 L5.9 -236.6 5.9 -236.65 M6.0 -236.4 L5.85 -236.45 5.9 -236.6 M9.35 -213.65 L9.65 -213.2 10.3 -212.3 17.55 -203.3 18.9 -201.8 Q20.55 -200.45 22.35 -199.2 30.4 -193.75 41.05 -191.6 L48.7 -190.5 48.9 -190.5 48.95 -190.45 49.05 -189.95 Q50.0 -184.2 53.5 -178.35 56.4 -173.4 61.1 -168.35 L63.35 -166.05 Q65.35 -164.05 67.7 -162.0 L67.7 -162.05 67.75 -161.95 67.7 -162.0 M106.5 -229.05 L105.4 -230.6 103.4 -233.35 M-1.05 -239.4 L1.5 -229.75 Q3.5 -222.1 9.35 -213.65 -1.8 -195.95 -0.6 -177.4 L-0.75 -177.6 -4.1 -182.25 Q-19.25 -204.95 -7.85 -228.35 -5.2 -233.85 -1.05 -239.4 L-4.2 -240.7 -4.25 -240.75 Q-20.0 -246.1 -36.0 -255.4 -39.05 -254.6 -42.3 -253.95 L-39.15 -257.3 Q-43.85 -260.15 -48.55 -263.3 L-49.45 -263.9 -51.15 -265.1 -54.15 -267.2 -55.1 -266.25 -55.9 -265.45 -60.55 -260.0 M-60.75 -259.7 L-62.5 -257.2 Q-64.2 -264.3 -62.25 -270.4 -59.75 -278.25 -51.2 -284.45 L-60.35 -282.55 Q-71.3 -279.75 -79.3 -274.95 -76.45 -280.3 -71.95 -284.7 -64.95 -291.65 -54.0 -296.3 L-55.75 -297.0 Q-64.0 -300.55 -72.55 -307.1 L-59.0 -307.75 Q-41.45 -310.25 -14.25 -320.4 L-13.6 -320.6 Q24.0 -330.4 59.25 -316.85 84.2 -306.55 102.0 -287.7 L103.55 -286.1 Q120.5 -273.05 135.85 -270.75 131.6 -267.95 126.45 -267.05 L113.45 -267.55 M101.55 -264.5 L101.5 -264.55 Q109.35 -257.5 114.2 -249.9 119.2 -242.05 121.85 -233.85 L121.9 -234.1 Q122.45 -237.9 122.25 -241.75 L122.2 -242.45 M103.4 -256.6 L103.4 -256.65 Q103.45 -261.65 101.55 -264.5 L97.35 -268.55 M103.4 -256.65 L103.4 -256.6 103.4 -256.55 M106.5 -229.05 L115.55 -215.55 Q124.0 -202.7 126.15 -196.2 128.6 -188.7 110.1 -192.2 L99.8 -193.4 Q101.2 -189.2 101.65 -185.2 102.85 -173.85 96.2 -164.15 L90.5 -184.65 89.9 -186.9 89.9 -186.4 89.65 -183.8 Q89.25 -181.0 88.2 -178.4 86.35 -173.85 82.4 -170.05 L79.85 -181.75 78.8 -186.7 79.5 -181.4 Q79.85 -176.85 79.3 -172.6 78.1 -164.2 73.15 -157.2 72.8 -162.05 71.1 -167.6 69.35 -173.25 66.2 -179.55 L64.05 -183.7 64.25 -179.35 Q65.0 -168.5 67.7 -162.05 M99.8 -193.4 L97.95 -193.5 89.7 -193.55 89.7 -193.05 89.7 -190.15 89.9 -186.9 M89.7 -193.55 L85.1 -193.35 74.85 -192.45 58.85 -190.25 Q53.75 -190.1 49.1 -190.45 L49.0 -190.45 48.95 -190.45 M78.8 -186.7 L78.7 -187.25 78.55 -187.85 77.7 -191.35 M64.05 -183.7 L63.95 -187.7 M-31.95 -268.75 L-34.55 -263.75 Q-36.65 -260.25 -39.15 -257.3 M-38.2 -277.65 L-38.5 -277.75 -39.6 -278.25 Q-48.05 -273.1 -54.15 -267.2 M-34.65 -276.1 L-30.0 -273.4 Q-27.95 -278.9 -26.6 -285.3 M-33.8 -281.7 L-39.6 -278.25 M-36.5 -276.9 L-38.2 -277.65 M-0.4 -260.9 L-1.8 -261.4 -12.9 -266.0 -14.25 -266.55 Q-22.6 -259.1 -36.0 -255.4 M-11.4 -269.35 L-12.25 -268.45 -14.25 -266.55 M-1.8 -256.15 Q-2.35 -253.6 -2.4 -250.95 L-2.1 -246.15 -2.05 -246.05 -1.85 -244.8 -1.5 -243.15 -1.0 -241.25 -0.3 -239.1 5.55 -236.7 M-1.8 -256.15 Q-1.35 -258.55 -0.4 -260.9 L3.05 -259.65 M-11.4 -269.35 Q-8.4 -272.7 -6.2 -276.6 M-30.0 -273.4 Q-30.9 -271.0 -31.95 -268.75 M-51.2 -284.45 Q-47.45 -287.2 -42.6 -289.7 M-48.55 -263.3 L-49.4 -263.9 -49.45 -263.9 M-1.05 -239.4 L-0.3 -239.1 M-54.0 -296.3 Q-44.6 -292.7 -35.55 -293.1" fill="none" stroke="#1a5283" stroke-linecap="round" stroke-linejoin="round" stroke-width="2.0"/>
    <path d="M46.05 -317.25 L40.05 -315.7 Q32.45 -330.8 14.2 -348.85 47.35 -345.5 43.2 -318.5 49.5 -331.55 48.35 -350.0 71.45 -337.2 46.05 -317.25" fill="#132a4c" fill-rule="evenodd" stroke="none"/>
    <path d="M46.05 -317.25 Q71.45 -337.2 48.35 -350.0 49.5 -331.55 43.2 -318.5 47.35 -345.5 14.2 -348.85 32.45 -330.8 40.05 -315.7" fill="none" stroke="#1a5283" stroke-linecap="round" stroke-linejoin="round" stroke-width="2.0"/>
  </g>
</svg>
