<?xml version="1.0" encoding="UTF-8" standalone="no"?>
<svg xmlns:xlink="http://www.w3.org/1999/xlink" height="622.6px" width="233.85px" xmlns="http://www.w3.org/2000/svg">
  <g transform="matrix(1.0, 0.0, 0.0, 1.0, 126.5, 278.45)">
    <path d="M66.45 79.7 L79.75 155.1 Q88.9 190.55 79.15 203.95 62.0 235.0 55.5 255.8 49.9 273.65 49.65 294.9 37.75 297.9 20.85 279.0 L20.8 278.95 20.85 279.1 21.45 284.65 21.6 289.75 21.45 284.65 20.85 279.1 Q23.25 287.75 21.6 289.75 L21.6 289.8 Q21.05 290.45 20.65 291.3 19.45 293.75 21.2 294.7 L21.55 294.9 21.35 298.65 21.55 294.9 28.95 298.65 Q23.85 297.85 21.35 298.65 20.9 305.65 19.6 312.1 10.8 303.75 -19.9 301.95 -30.9 305.2 -38.3 312.8 L-39.0 297.8 Q-39.6 283.15 -43.85 240.9 -45.2 227.55 -44.4 198.15 -29.25 207.55 -31.0 204.4 -43.55 191.95 -46.75 147.45 -49.95 102.9 -48.9 88.85 -45.7 85.7 -33.5 81.3 L-12.2 73.45 -7.85 73.15 -7.95 72.55 4.6 70.3 Q12.6 69.0 20.05 71.95 23.0 73.1 26.15 73.7 46.05 77.5 66.45 79.7 M16.75 242.15 L20.85 279.0 16.75 242.15 Q14.45 212.6 28.65 186.9 L39.85 193.15 Q32.55 179.3 21.2 137.25 L18.1 83.9 Q12.55 85.3 4.6 85.9 L4.6 133.2 11.4 194.15 16.75 242.15 M4.6 82.95 L4.6 85.9 4.6 82.95 M16.4 323.85 L16.45 323.9 16.4 324.0 16.4 323.85 M23.9 81.85 L18.1 83.9 23.9 81.85" fill="#283e5d" fill-rule="evenodd" stroke="none"/>
    <path d="M43.9 330.35 Q42.65 335.6 37.05 338.5 24.95 339.45 16.75 334.75 17.0 332.1 16.85 329.0 L17.2 329.1 17.95 329.35 19.75 329.9 Q34.7 334.05 43.9 330.35 M16.6 336.1 Q15.95 340.2 14.35 343.15 L-38.75 343.15 Q-41.1 340.45 -41.8 336.1 L-28.55 336.1 16.6 336.1 M12.7 -113.65 L14.4 -113.65 Q17.65 -114.5 20.15 -115.7 L19.65 -115.45 Q28.65 -84.5 29.2 -51.55 29.35 -42.2 30.0 -33.0 33.0 9.6 29.65 52.2 L30.65 52.3 6.45 51.0 Q-2.3 50.75 -10.5 48.35 -11.2 27.75 -7.85 2.65 L-5.8 -58.2 Q-4.8 -55.75 -4.4 -35.25 -4.1 -17.45 26.5 13.7 10.75 -9.35 3.1 -29.45 -4.6 -49.6 -5.45 -69.25 L-5.5 -68.2 -5.05 -81.35 Q-5.85 -92.35 -7.4 -101.15 -1.9 -99.45 3.9 -98.15 14.25 -95.85 20.7 -100.05 9.55 -103.15 -3.3 -104.8 L-8.3 -105.65 Q-10.75 -116.7 -14.65 -123.9 -6.4 -113.9 12.7 -113.65 M-10.25 53.6 L-9.1 53.95 Q11.95 60.7 29.5 53.85 L28.7 62.75 28.7 62.9 -9.3 63.65 -10.25 53.6" fill="#1b2734" fill-rule="evenodd" stroke="none"/>
    <path d="M-29.5 -267.0 L16.5 -246.95 16.5 -213.7 15.2 -211.95 Q11.55 -217.4 7.0 -222.6 4.4 -232.35 -0.5 -242.75 -1.6 -245.1 -3.4 -246.6 -15.55 -256.9 -29.5 -267.0 M-90.8 -204.8 L-92.65 -206.25 -75.1 -212.4 Q-87.7 -212.3 -96.95 -220.35 -85.6 -223.4 -74.25 -234.3 -69.0 -239.4 -63.7 -246.15 L-62.15 -246.15 -63.7 -246.15 -69.3 -246.65 Q-85.8 -249.3 -90.3 -264.55 -76.15 -255.25 -56.75 -274.15 -43.0 -258.85 -30.25 -247.95 -17.55 -237.1 -8.3 -228.55 L0.3 -213.55 Q5.2 -204.5 7.65 -204.4 -0.7 -197.85 -12.05 -195.3 L-12.0 -194.95 Q-11.65 -190.8 -10.8 -186.65 -9.6 -180.85 -7.4 -175.0 L-4.25 -167.5 -7.5 -169.1 Q-15.5 -173.35 -20.85 -178.55 L-20.8 -173.25 Q-20.5 -163.45 -18.05 -155.5 -15.9 -148.45 -12.05 -142.85 -47.0 -174.2 -30.5 -234.6 L-28.45 -237.45 -30.5 -234.6 Q-38.45 -223.55 -43.25 -214.6 -46.45 -209.35 -58.8 -206.25 -74.7 -203.9 -90.8 -204.8 M-44.05 -273.3 L-41.65 -272.25 -41.95 -271.95 -44.05 -273.3 M-35.25 -257.0 L-33.05 -255.75 -29.7 -253.15 Q-30.9 -253.6 -31.95 -254.4 L-35.25 -257.0 M-49.7 -198.85 L-49.8 -198.55 -49.75 -198.85 -49.7 -198.85 M-54.3 -217.2 Q-65.65 -212.5 -75.1 -212.4 -65.65 -212.5 -54.3 -217.2 M-31.65 -201.15 Q-30.75 -188.2 -20.85 -178.55 -30.75 -188.2 -31.65 -201.15 M-12.05 -195.3 Q-13.1 -208.15 -9.3 -220.7 -13.1 -208.15 -12.05 -195.3" fill="#132a4c" fill-rule="evenodd" stroke="none"/>
    <path d="M45.65 -140.7 Q48.1 -137.85 50.05 -134.1 48.8 -132.9 48.95 -127.9 49.05 -122.9 48.55 -120.95 48.0 -119.05 49.65 -123.4 51.25 -127.75 53.2 -129.6 L64.8 -119.65 62.8 -118.35 Q59.0 -116.1 52.75 -112.9 44.55 -108.75 39.9 -95.35 38.3 -90.7 37.4 -87.35 37.25 -96.85 34.3 -112.75 31.35 -128.6 46.0 -140.25 L45.65 -140.7 M64.05 -117.25 Q76.0 -106.6 80.25 -98.05 L87.9 -80.85 Q87.85 -79.05 89.2 -71.05 89.95 -66.55 89.3 -64.2 92.15 -65.65 95.5 -65.65 L106.35 -48.95 Q105.55 -45.7 104.05 -42.95 73.95 -26.45 65.0 -38.45 L56.95 -92.15 Q51.2 -75.55 52.2 -52.05 52.95 -39.7 54.45 -25.1 55.2 -17.9 56.75 -8.55 L57.6 -4.15 59.1 2.65 61.0 9.75 60.95 9.65 Q65.4 28.8 63.25 33.1 L69.95 33.4 Q74.2 43.3 77.0 51.35 73.7 68.45 49.05 74.1 L31.9 73.35 33.4 66.85 Q35.85 54.15 36.6 35.75 L34.4 34.3 36.65 34.9 Q37.35 16.35 36.35 -7.85 35.25 -34.25 35.6 -56.4 37.5 -56.5 38.5 -71.85 39.45 -87.2 49.55 -100.55 59.55 -113.9 64.05 -117.25 M79.45 7.6 L80.25 10.8 80.15 11.55 76.75 11.65 Q75.7 10.25 71.35 6.9 74.4 12.7 73.85 15.85 72.65 23.05 68.95 20.1 69.7 14.05 61.3 4.9 63.3 3.35 63.0 -1.5 L62.75 -4.0 Q75.3 -2.75 79.45 7.6 M37.8 308.95 L43.7 322.8 Q44.65 327.05 43.9 330.35 34.7 334.05 19.75 329.9 L20.85 330.15 Q23.2 314.15 37.8 308.95 M16.75 334.75 L16.6 336.1 -28.55 336.1 -28.25 334.8 Q-21.95 313.2 -0.4 311.3 2.7 311.0 6.1 311.15 L6.25 311.15 6.95 311.2 9.05 311.65 Q14.45 312.95 15.8 321.35 L16.4 323.85 16.4 324.0 16.85 329.0 Q17.0 332.1 16.75 334.75 M-80.65 39.9 L-73.95 27.95 -73.45 28.7 Q-68.7 34.55 -63.75 33.45 L-62.85 36.75 Q-65.45 40.75 -77.85 49.0 L-75.0 47.95 Q-69.35 46.0 -64.15 44.5 L-64.1 44.45 -64.05 44.45 Q-59.3 42.95 -54.75 38.1 -49.7 33.6 -45.85 28.45 -43.9 26.2 -39.45 19.75 -36.75 15.85 -37.5 11.95 -37.95 9.4 -39.9 6.9 L-45.75 12.5 -46.35 12.1 -45.6 10.15 Q-45.4 5.75 -50.9 2.8 -45.4 5.75 -45.6 10.15 L-46.35 12.1 -47.55 14.95 -47.8 14.75 Q-51.6 16.35 -54.85 19.25 L-64.7 27.6 Q-67.8 26.55 -69.7 25.15 -71.55 23.75 -67.15 16.15 -72.8 18.1 -78.25 18.9 -78.9 13.0 -77.0 6.0 L-73.15 1.9 Q-69.35 -1.8 -64.05 -5.7 L-62.35 -7.0 -61.65 -10.0 Q-57.05 -34.95 -51.45 -52.9 -45.9 -70.85 -38.5 -79.95 -31.1 -89.05 -38.8 -84.1 -45.5 -82.1 -49.25 -75.55 -56.0 -63.9 -61.4 -51.45 L-63.0 -47.7 -65.1 -42.35 -65.2 -42.8 -68.0 -34.95 Q-76.45 -38.1 -85.1 -38.95 L-94.15 -40.0 -94.25 -40.0 Q-103.7 -40.65 -113.4 -45.15 L-109.65 -60.4 Q-107.6 -68.55 -102.05 -83.1 -96.55 -97.65 -94.85 -101.05 L-88.4 -109.15 Q-83.25 -115.15 -78.4 -118.2 -62.25 -120.25 -51.45 -113.8 -40.7 -107.35 -26.65 -97.05 -12.65 -86.8 -5.6 -65.15 L-5.8 -58.2 -7.85 2.65 Q-11.2 27.75 -10.5 48.35 L-10.25 53.6 -9.3 63.65 -8.9 66.7 -7.95 72.55 -7.85 73.15 -12.2 73.45 -13.9 73.6 Q-27.0 74.85 -49.5 79.4 L-55.9 80.7 Q-89.95 75.15 -80.65 39.9 M-74.55 25.85 L-75.05 25.7 -74.55 25.65 -74.55 25.85 M-75.5 -119.8 L-73.3 -122.45 Q-65.35 -131.45 -55.0 -134.5 L-41.05 -132.0 -42.2 -133.8 Q-43.7 -136.85 -45.8 -140.1 L-41.35 -143.65 Q-37.9 -146.4 -34.9 -148.2 -36.8 -146.05 -21.75 -124.0 -6.75 -101.95 -12.95 -91.55 -28.55 -109.4 -49.15 -116.05 -66.95 -121.8 -67.9 -121.45 -71.6 -121.6 -75.5 -119.8 M25.1 -140.35 L26.15 -140.05 26.0 -140.1 25.8 -139.5 25.1 -140.35 M56.95 -92.15 L58.75 -96.9 56.95 -92.15 M-54.35 -0.95 Q-56.05 -4.6 -62.2 -7.1 L-62.35 -7.0 -62.2 -7.1 Q-56.05 -4.6 -54.35 -0.95 -58.75 1.35 -57.8 6.7 -57.3 9.55 -54.9 7.8 -51.35 5.15 -50.9 2.8 -52.15 2.15 -53.7 1.55 -53.8 0.25 -54.35 -0.95 M-37.0 10.45 L-37.5 11.95 -37.0 10.45 M-65.2 -42.8 L-61.4 -51.45 -65.2 -42.8 M-70.85 47.05 L-64.15 44.5 -70.85 47.05 M-22.3 42.75 Q-24.8 45.25 -31.1 50.15 -37.4 55.05 -47.15 54.85 L-58.3 54.0 Q-59.7 53.4 -58.75 54.45 -52.75 61.4 -42.9 59.85 -33.1 58.3 -27.75 51.8 -22.4 45.25 -22.3 42.75 M65.75 23.65 L65.7 23.5 67.65 21.8 66.2 23.25 65.75 23.65 M61.25 45.95 Q56.55 46.45 47.9 42.2 47.2 47.55 55.0 50.4 64.95 53.95 71.9 43.2 69.05 45.1 61.25 45.95 M36.6 35.75 L36.65 34.9 36.6 35.75" fill="#4c97d9" fill-rule="evenodd" stroke="none"/>
    <path d="M68.6 -196.35 Q69.4 -193.25 69.15 -189.15 68.75 -183.4 66.2 -175.75 L64.25 -170.45 57.25 -181.05 54.65 -184.35 Q51.8 -187.45 49.45 -190.95 58.5 -194.3 68.6 -196.35 M55.1 -155.15 Q49.35 -148.45 41.6 -144.45 35.2 -141.15 27.45 -139.75 L26.75 -139.95 26.55 -140.0 26.15 -140.05 25.1 -140.35 23.3 -140.9 Q12.8 -144.05 4.25 -148.95 L4.0 -149.15 Q-8.6 -160.1 -7.5 -169.1 L-4.25 -167.5 -7.4 -175.0 Q-8.55 -182.05 -2.95 -186.9 13.9 -188.2 37.35 -187.75 L37.5 -187.35 38.0 -187.4 Q43.0 -184.7 44.9 -178.95 42.4 -181.45 47.55 -172.95 52.7 -164.5 57.15 -162.25 L59.15 -161.25 57.0 -157.5 56.85 -157.3 56.55 -156.95 56.4 -156.75 56.2 -156.5 55.8 -156.0 55.65 -155.8 55.45 -155.6 55.3 -155.35 55.2 -155.3 55.1 -155.15 M99.15 -32.4 Q98.9 -24.9 93.95 -16.65 L79.45 7.6 Q75.3 -2.75 62.75 -4.0 L62.65 -4.0 Q67.05 -13.15 74.05 -23.25 80.9 -27.2 91.7 -30.15 L99.15 -32.4 M-81.0 11.8 L-109.8 -18.9 Q-123.05 -34.0 -115.8 -44.65 L-99.9 -36.7 -98.4 -35.85 Q-91.45 -31.55 -80.6 -18.65 -68.55 -4.3 -73.15 1.9 L-77.0 6.0 Q-79.55 8.95 -81.0 11.8 M59.05 -186.4 L69.15 -189.15 59.05 -186.4 M-1.1 -179.9 Q-3.1 -179.7 -2.95 -177.75 -2.75 -174.25 1.7 -174.6 3.15 -174.7 3.7 -176.0 5.75 -180.95 -1.1 -179.9 M17.5 -124.9 L21.0 -124.75 12.7 -113.65 Q-6.4 -113.9 -14.65 -123.9 -15.9 -126.2 -17.3 -128.1 L-19.15 -130.35 Q-26.0 -137.95 -27.8 -142.4 -7.55 -126.75 17.5 -124.9 L16.35 -121.45 17.5 -124.9 M4.45 -121.05 L0.8 -125.3 -17.3 -128.1 0.8 -125.3 4.45 -121.05" fill="#ffe8d7" fill-rule="evenodd" stroke="none"/>
    <path d="M15.2 -211.95 L16.5 -213.7 66.2 -201.2 Q67.85 -199.15 68.6 -196.35 58.5 -194.3 49.45 -190.95 51.8 -187.45 54.65 -184.35 L57.25 -181.05 64.25 -170.45 63.95 -169.75 59.15 -161.25 57.15 -162.25 Q52.7 -164.5 47.55 -172.95 42.4 -181.45 44.9 -178.95 43.0 -184.7 38.0 -187.4 L37.5 -187.35 37.35 -187.75 Q13.9 -188.2 -2.95 -186.9 -8.55 -182.05 -7.4 -175.0 -9.6 -180.85 -10.8 -186.65 -11.65 -190.8 -12.0 -194.95 L-12.05 -195.3 Q-0.7 -197.85 7.65 -204.4 L7.95 -204.65 Q11.95 -207.85 15.2 -211.95 M98.85 -36.8 L98.9 -36.5 99.15 -32.4 91.7 -30.15 Q80.9 -27.2 74.05 -23.25 67.05 -13.15 62.65 -4.0 L61.0 -4.1 58.15 -4.15 57.6 -4.15 56.75 -8.55 63.4 -27.4 79.0 -29.5 Q91.85 -31.0 98.85 -36.8 M-115.8 -44.65 L-115.7 -44.8 -115.35 -45.3 -114.9 -45.9 -113.4 -45.15 Q-103.7 -40.65 -94.25 -40.0 L-94.15 -40.0 -85.1 -38.95 -64.8 -6.85 -64.05 -5.7 Q-69.35 -1.8 -73.15 1.9 -68.55 -4.3 -80.6 -18.65 -91.45 -31.55 -98.4 -35.85 L-99.9 -36.7 -115.8 -44.65 M-7.5 -169.1 Q-8.6 -160.1 4.0 -149.15 L4.25 -148.95 Q12.8 -144.05 23.3 -140.9 L25.1 -140.35 25.8 -139.5 Q29.6 -134.6 29.45 -131.3 28.95 -129.8 28.75 -128.25 L28.7 -127.15 28.6 -125.35 28.45 -124.8 28.45 -124.65 28.35 -124.4 28.3 -124.25 28.25 -124.0 28.2 -123.8 28.15 -123.65 28.1 -123.55 28.05 -123.4 27.85 -122.95 27.75 -122.7 27.65 -122.5 27.6 -122.4 27.5 -122.2 20.15 -115.7 Q17.65 -114.5 14.4 -113.65 L12.7 -113.65 21.0 -124.75 17.5 -124.9 17.7 -125.5 28.7 -127.15 17.7 -125.5 17.5 -124.9 Q-7.55 -126.75 -27.8 -142.4 L-27.85 -142.4 -27.95 -142.7 -27.8 -142.4 -27.95 -142.7 -27.95 -142.75 -28.0 -142.85 -19.3 -146.9 Q-15.9 -144.8 -12.05 -142.85 -15.9 -148.45 -18.05 -155.5 L-18.05 -169.0 -17.85 -168.7 -17.65 -168.45 -17.5 -168.25 -17.35 -168.0 -17.2 -167.85 -17.05 -167.6 -16.9 -167.4 -16.75 -167.25 -16.6 -167.0 -16.4 -166.75 -16.2 -166.5 Q-10.6 -159.35 -3.2 -153.8 L-2.95 -153.6 4.0 -149.15 -2.95 -153.6 -3.2 -153.8 Q-10.6 -159.35 -16.2 -166.5 L-16.4 -166.75 -16.6 -167.0 -16.75 -167.25 -16.9 -167.4 -17.05 -167.6 -17.2 -167.85 -17.35 -168.0 -17.5 -168.25 -17.65 -168.45 -17.85 -168.7 -18.05 -169.0 -20.8 -173.25 -20.85 -178.55 Q-15.5 -173.35 -7.5 -169.1 M23.3 -130.65 Q21.05 -134.95 23.3 -140.9 21.05 -134.95 23.3 -130.65 M-21.5 -141.9 L-19.3 -146.9 -21.5 -141.9" fill="#e0bcaa" fill-rule="evenodd" stroke="none"/>
    <path d="M-29.5 -267.0 Q-15.55 -256.9 -3.4 -246.6 -1.6 -245.1 -0.5 -242.75 4.4 -232.35 7.0 -222.6 11.55 -217.4 15.2 -211.95 11.95 -207.85 7.95 -204.65 L7.65 -204.4 Q5.2 -204.5 0.3 -213.55 L-8.3 -228.55 Q-17.55 -237.1 -30.25 -247.95 -43.0 -258.85 -56.75 -274.15 L-53.55 -277.45 -44.05 -273.3 -41.95 -271.95 -41.65 -272.25 -29.5 -267.0 M69.15 -189.15 L81.4 -179.2 Q81.6 -160.35 67.25 -145.0 L69.75 -160.8 Q62.6 -147.4 46.35 -142.75 L55.1 -155.15 55.2 -155.3 55.3 -155.35 55.45 -155.6 55.65 -155.8 55.8 -156.0 56.2 -156.5 56.4 -156.75 56.55 -156.95 56.85 -157.3 57.0 -157.5 59.15 -161.25 63.95 -169.75 64.25 -170.45 66.2 -175.75 Q68.75 -183.4 69.15 -189.15 M-26.15 -151.75 Q-34.8 -158.65 -39.5 -167.1 L-34.75 -155.0 Q-41.0 -160.8 -44.7 -166.85 -42.6 -158.2 -49.65 -152.65 -49.75 -159.55 -55.75 -175.4 -60.65 -168.25 -71.95 -166.35 -64.25 -176.25 -60.45 -196.65 L-66.5 -196.75 -70.4 -197.1 -72.05 -197.3 -74.3 -197.7 -75.65 -198.0 -76.3 -198.15 -77.5 -198.5 -90.1 -204.3 -90.85 -204.8 -90.8 -204.8 -90.1 -204.3 -90.8 -204.8 Q-74.7 -203.9 -58.8 -206.25 -46.45 -209.35 -43.25 -214.6 L-48.9 -201.7 -49.1 -201.1 -49.7 -198.85 -49.1 -201.1 -48.9 -201.7 -43.25 -214.6 Q-38.45 -223.55 -30.5 -234.6 -47.0 -174.2 -12.05 -142.85 -15.9 -144.8 -19.3 -146.9 -23.0 -149.25 -26.15 -151.75 M-74.25 -234.3 Q-84.25 -235.25 -86.8 -243.8 -80.3 -242.35 -69.3 -246.65 L-63.7 -246.15 Q-69.0 -239.4 -74.25 -234.3 M72.4 -167.1 Q71.3 -163.75 69.75 -160.8 71.3 -163.75 72.4 -167.1 M-35.25 -257.0 L-31.95 -254.4 Q-30.9 -253.6 -29.7 -253.15 L-33.05 -255.75 -35.25 -257.0 M-49.8 -198.55 L-49.7 -198.85 -49.75 -198.85 -49.8 -198.55 -49.9 -198.1 Q-53.9 -181.7 -44.7 -166.85 -53.9 -181.7 -49.9 -198.1 L-49.8 -198.55 M-53.15 -181.2 Q-54.05 -178.0 -55.75 -175.4 -54.05 -178.0 -53.15 -181.2 M-49.9 -198.1 Q-54.5 -196.85 -60.45 -196.65 -54.5 -196.85 -49.9 -198.1 M-41.8 -207.4 Q-49.35 -184.8 -39.5 -167.1 -49.35 -184.8 -41.8 -207.4" fill="#091425" fill-rule="evenodd" stroke="none"/>
    <path d="M41.6 -144.45 L42.7 -143.6 42.8 -143.5 45.65 -140.7 46.0 -140.25 Q31.35 -128.6 34.3 -112.75 37.25 -96.85 37.4 -87.35 35.9 -81.8 36.45 -79.85 35.9 -81.8 37.4 -87.35 38.3 -90.7 39.9 -95.35 44.55 -108.75 52.75 -112.9 59.0 -116.1 62.8 -118.35 L63.8 -117.45 63.95 -117.35 64.05 -117.25 63.95 -117.35 64.05 -117.25 Q59.55 -113.9 49.55 -100.55 39.45 -87.2 38.5 -71.85 37.5 -56.5 35.6 -56.4 35.8 -68.8 36.45 -79.85 27.55 -103.25 28.6 -125.35 L28.7 -127.15 28.75 -128.25 Q28.95 -129.8 29.45 -131.3 29.6 -134.6 25.8 -139.5 L26.0 -140.1 26.15 -140.05 26.55 -140.0 26.75 -139.95 27.45 -139.75 Q35.2 -141.15 41.6 -144.45 M50.05 -134.1 L51.5 -131.05 53.2 -129.6 Q51.25 -127.75 49.65 -123.4 48.0 -119.05 48.55 -120.95 49.05 -122.9 48.95 -127.9 48.8 -132.9 50.05 -134.1 M87.9 -80.85 L92.75 -69.85 95.5 -65.65 Q92.15 -65.65 89.3 -64.2 89.95 -66.55 89.2 -71.05 87.85 -79.05 87.9 -80.85 M104.05 -42.95 Q102.05 -39.45 98.85 -36.8 91.85 -31.0 79.0 -29.5 L63.4 -27.4 Q55.2 -26.05 54.45 -25.1 52.95 -39.7 52.2 -52.05 51.2 -75.55 56.95 -92.15 L65.0 -38.45 Q73.95 -26.45 104.05 -42.95 M80.15 11.55 Q79.05 17.1 76.25 18.4 76.05 23.45 74.6 25.05 71.05 28.9 66.85 26.15 L65.9 24.05 66.8 26.15 67.6 27.9 67.75 28.3 69.95 33.4 63.25 33.1 Q65.4 28.8 60.95 9.65 L61.0 9.75 Q63.05 17.0 65.7 23.5 L65.65 23.5 65.9 24.05 65.75 23.65 66.2 23.25 67.65 21.8 68.8 20.8 68.95 20.1 Q72.65 23.05 73.85 15.85 74.4 12.7 71.35 6.9 75.7 10.25 76.75 11.65 L80.15 11.55 M77.0 51.35 L77.3 52.2 Q79.45 58.35 80.8 63.4 L81.35 65.7 Q74.35 70.05 65.1 72.2 57.8 73.85 49.05 74.1 73.7 68.45 77.0 51.35 M33.8 299.6 L37.7 308.7 37.8 308.95 Q23.2 314.15 20.85 330.15 L19.75 329.9 17.95 329.35 17.2 329.1 16.85 329.0 16.4 324.0 16.45 323.9 Q17.8 320.0 18.8 315.85 L19.6 312.1 Q20.9 305.65 21.35 298.65 23.85 297.85 28.95 298.65 L32.3 299.25 33.25 299.45 33.8 299.6 M-41.8 336.1 Q-42.25 333.55 -42.1 330.45 L-42.05 330.3 -42.0 330.1 -41.35 328.2 -41.3 328.1 -41.25 328.0 Q-40.0 325.0 -37.5 321.75 L-33.0 316.65 Q-29.5 314.65 -25.85 313.25 L-25.65 313.15 -23.5 312.4 -21.5 311.75 -0.4 311.3 Q-21.95 313.2 -28.25 334.8 L-28.55 336.1 -41.8 336.1 M-69.9 82.85 Q-85.85 83.35 -94.3 71.65 L-92.95 67.6 -90.45 60.95 -90.2 60.4 -90.05 60.0 -81.0 40.55 -80.65 39.9 Q-89.95 75.15 -55.9 80.7 L-58.25 81.15 -58.9 81.3 Q-64.8 82.7 -69.9 82.85 M-73.95 27.95 L-73.75 27.55 -74.4 25.9 -74.55 25.85 -74.55 25.65 -75.05 25.7 -75.5 25.55 -76.7 25.05 -76.9 24.95 Q-79.45 23.7 -80.95 21.95 -82.5 20.15 -82.85 17.85 L-82.9 17.65 -82.9 17.5 -82.9 17.4 -82.9 17.3 -82.95 17.15 -82.95 17.05 -82.95 16.95 -82.95 16.85 Q-82.4 14.4 -81.0 11.8 -79.55 8.95 -77.0 6.0 -78.9 13.0 -78.25 18.9 -72.8 18.1 -67.15 16.15 -71.55 23.75 -69.7 25.15 -67.8 26.55 -64.7 27.6 L-54.85 19.25 Q-51.6 16.35 -47.8 14.75 L-47.55 14.95 Q-53.9 29.2 -63.9 32.8 L-63.8 33.25 -63.75 33.45 Q-68.7 34.55 -73.45 28.7 L-73.95 27.95 M-114.9 -45.9 Q-120.15 -48.5 -125.5 -52.25 -120.4 -57.4 -109.85 -76.95 -102.45 -90.7 -94.85 -101.05 -96.55 -97.65 -102.05 -83.1 -107.6 -68.55 -109.65 -60.4 L-113.4 -45.15 -114.9 -45.9 M-78.4 -118.2 L-75.5 -119.8 Q-71.6 -121.6 -67.9 -121.45 -66.95 -121.8 -49.15 -116.05 -28.55 -109.4 -12.95 -91.55 -6.75 -101.95 -21.75 -124.0 -36.8 -146.05 -34.9 -148.2 -30.2 -151.1 -26.6 -151.65 L-26.15 -151.75 Q-23.0 -149.25 -19.3 -146.9 L-28.0 -142.85 Q-29.0 -145.55 -28.0 -146.95 L-25.15 -148.45 -28.0 -146.95 Q-29.0 -145.55 -28.0 -142.85 L-27.95 -142.75 -27.95 -142.7 -27.85 -142.4 -27.8 -142.4 Q-26.0 -137.95 -19.15 -130.35 L-17.3 -128.1 Q-15.9 -126.2 -14.65 -123.9 -10.75 -116.7 -8.3 -105.65 L-7.4 -101.15 Q-5.85 -92.35 -5.05 -81.35 L-5.5 -68.2 -5.6 -65.15 Q-12.65 -86.8 -26.65 -97.05 -40.7 -107.35 -51.45 -113.8 -62.25 -120.25 -78.4 -118.2 M-55.0 -134.5 L-52.15 -135.25 Q-51.05 -136.0 -45.8 -140.1 -43.7 -136.85 -42.2 -133.8 L-41.05 -132.0 -55.0 -134.5 M33.7 -138.3 Q30.65 -135.05 29.45 -131.3 30.65 -135.05 33.7 -138.3 M57.6 -4.15 L58.15 -4.15 61.0 -4.1 62.65 -4.0 62.75 -4.0 63.0 -1.5 Q63.3 3.35 61.3 4.9 L59.1 2.65 57.6 -4.15 M-64.05 -5.7 L-64.8 -6.85 Q-61.8 -19.6 -65.1 -42.35 L-63.0 -47.7 -61.4 -51.45 Q-56.0 -63.9 -49.25 -75.55 -45.5 -82.1 -38.8 -84.1 -31.1 -89.05 -38.5 -79.95 -45.9 -70.85 -51.45 -52.9 -57.05 -34.95 -61.65 -10.0 L-62.35 -7.0 -64.05 -5.7 M-54.35 -0.95 Q-53.8 0.25 -53.7 1.55 -52.15 2.15 -50.9 2.8 -51.35 5.15 -54.9 7.8 -57.3 9.55 -57.8 6.7 -58.75 1.35 -54.35 -0.95 M-45.75 12.5 L-39.9 6.9 Q-37.95 9.4 -37.5 11.95 -36.75 15.85 -39.45 19.75 -43.9 26.2 -45.85 28.45 L-45.8 28.4 -45.75 28.3 -45.5 27.95 -39.8 17.95 -39.4 17.1 -37.5 11.95 -39.4 17.1 -45.3 12.85 -45.75 12.5 M-40.95 -80.7 Q-53.45 -67.75 -61.4 -51.45 -53.45 -67.75 -40.95 -80.7 M-12.95 -91.55 Q-8.8 -86.85 -5.05 -81.35 -8.8 -86.85 -12.95 -91.55 M-54.75 38.1 Q-59.3 42.95 -64.05 44.45 L-64.1 44.45 -64.15 44.5 Q-69.35 46.0 -75.0 47.95 L-77.85 49.0 Q-65.45 40.75 -62.85 36.75 -61.4 40.9 -59.5 41.9 L-54.75 38.1 M-63.9 32.8 L-64.75 33.1 -66.05 33.45 -66.95 33.15 -66.05 33.45 -64.75 33.1 -63.9 32.8 M-75.05 25.7 L-75.5 25.55 -75.05 25.7 M-64.05 44.45 L-59.5 41.9 -64.05 44.45 M-67.25 33.0 Q-72.0 31.05 -73.75 27.55 -72.0 31.05 -67.25 33.0 M-22.3 42.75 Q-22.4 45.25 -27.75 51.8 -33.1 58.3 -42.9 59.85 -52.75 61.4 -58.75 54.45 -59.7 53.4 -58.3 54.0 L-47.15 54.85 Q-37.4 55.05 -31.1 50.15 -24.8 45.25 -22.3 42.75 M6.25 311.15 L6.7 311.15 6.95 311.2 6.25 311.15 M61.25 45.95 Q69.05 45.1 71.9 43.2 64.95 53.95 55.0 50.4 47.2 47.55 47.9 42.2 56.55 46.45 61.25 45.95" fill="#3572b4" fill-rule="evenodd" stroke="none"/>
    <path d="M28.6 -125.35 Q27.55 -103.25 36.45 -79.85 35.8 -68.8 35.6 -56.4 35.25 -34.25 36.35 -7.85 37.35 16.35 36.65 34.9 L34.4 34.3 36.6 35.75 Q35.85 54.15 33.4 66.85 14.7 70.45 -8.9 66.7 L-9.3 63.65 28.7 62.9 28.7 62.75 29.5 53.85 Q11.95 60.7 -9.1 53.95 L-10.25 53.6 -10.5 48.35 Q-2.3 50.75 6.45 51.0 L30.65 52.3 29.65 52.2 Q33.0 9.6 30.0 -33.0 29.35 -42.2 29.2 -51.55 28.65 -84.5 19.65 -115.45 L20.15 -115.7 27.5 -122.2 27.6 -122.4 27.65 -122.5 27.75 -122.7 27.85 -122.95 28.05 -123.4 28.1 -123.55 28.15 -123.65 28.2 -123.8 28.25 -124.0 28.3 -124.25 28.35 -124.4 28.45 -124.65 28.45 -124.8 28.6 -125.35 M-8.3 -105.65 L-3.3 -104.8 Q9.55 -103.15 20.7 -100.05 14.25 -95.85 3.9 -98.15 -1.9 -99.45 -7.4 -101.15 L-8.3 -105.65 M-5.5 -68.2 L-5.45 -69.25 Q-4.6 -49.6 3.1 -29.45 10.75 -9.35 26.5 13.7 -4.1 -17.45 -4.4 -35.25 -4.8 -55.75 -5.8 -58.2 L-5.6 -65.15 -5.5 -68.2" fill="#070a0e" fill-rule="evenodd" stroke="none"/>
    <path d="M65.1 72.2 L66.45 79.7 Q46.05 77.5 26.15 73.7 23.0 73.1 20.05 71.95 12.6 69.0 4.6 70.3 L-7.95 72.55 -8.9 66.7 Q14.7 70.45 33.4 66.85 L31.9 73.35 49.05 74.1 Q57.8 73.85 65.1 72.2 M49.65 294.9 L49.65 294.95 49.65 295.9 49.7 301.5 49.7 301.8 Q42.65 301.65 33.8 299.6 L33.25 299.45 32.3 299.25 28.95 298.65 21.55 294.9 21.2 294.7 Q19.45 293.75 20.65 291.3 21.05 290.45 21.6 289.8 L21.6 289.75 Q23.25 287.75 20.85 279.1 L20.8 278.95 20.85 279.0 20.85 279.1 20.85 279.0 Q37.75 297.9 49.65 294.9 M-42.1 330.45 Q-42.5 332.0 -42.55 333.45 -50.2 331.55 -51.65 313.3 -50.55 222.5 -63.7 141.4 -68.35 111.45 -69.55 91.2 L-69.9 82.85 Q-64.8 82.7 -58.9 81.3 L-58.25 81.15 -55.9 80.7 -49.5 79.4 Q-27.0 74.85 -13.9 73.6 L-12.2 73.45 -33.5 81.3 Q-45.7 85.7 -48.9 88.85 -49.95 102.9 -46.75 147.45 -43.55 191.95 -31.0 204.4 -29.25 207.55 -44.4 198.15 -45.2 227.55 -43.85 240.9 -39.6 283.15 -39.0 297.8 L-38.3 312.8 Q-30.9 305.2 -19.9 301.95 10.8 303.75 19.6 312.1 L18.8 315.85 Q17.8 320.0 16.45 323.9 L16.4 323.85 15.8 321.35 Q14.45 312.95 9.05 311.65 L6.95 311.2 6.7 311.15 6.25 311.15 6.1 311.15 Q2.7 311.0 -0.4 311.3 L-21.5 311.75 -23.5 312.4 -25.65 313.15 -25.85 313.25 Q-29.5 314.65 -33.0 316.65 L-37.5 321.75 Q-40.0 325.0 -41.25 328.0 L-41.3 328.1 -41.35 328.2 -42.0 330.1 -42.05 330.3 -42.1 330.45 M16.75 242.15 L11.4 194.15 20.45 177.2 4.6 133.2 4.6 85.9 Q12.55 85.3 18.1 83.9 L21.2 137.25 Q32.55 179.3 39.85 193.15 L28.65 186.9 Q14.45 212.6 16.75 242.15 M21.6 289.8 L21.55 294.9 21.6 289.8" fill="#182538" fill-rule="evenodd" stroke="none"/>
    <path d="M-1.1 -179.9 Q5.75 -180.95 3.7 -176.0 3.15 -174.7 1.7 -174.6 -2.75 -174.25 -2.95 -177.75 -3.1 -179.7 -1.1 -179.9" fill="#fffce9" fill-rule="evenodd" stroke="none"/>
    <path d="M59.1 2.65 L61.3 4.9 Q69.7 14.05 68.95 20.1 L68.8 20.8 67.65 21.8 65.7 23.5 Q63.05 17.0 61.0 9.75 L59.1 2.65 M-46.35 12.1 L-45.75 12.5 -45.3 12.85 -39.4 17.1 -39.8 17.95 -45.5 27.95 -45.75 28.3 -45.8 28.4 -45.85 28.45 Q-49.7 33.6 -54.75 38.1 L-59.5 41.9 Q-61.4 40.9 -62.85 36.75 L-63.75 33.45 -63.8 33.25 -63.9 32.8 Q-53.9 29.2 -47.55 14.95 L-46.35 12.1" fill="#121b25" fill-rule="evenodd" stroke="none"/>
    <path d="M16.5 -213.7 L16.5 -246.95 -29.5 -267.0 -41.65 -272.25 -44.05 -273.3 -53.55 -277.45 -56.75 -274.15 Q-76.15 -255.25 -90.3 -264.55 -85.8 -249.3 -69.3 -246.65 L-63.7 -246.15 Q-69.0 -239.4 -74.25 -234.3 -84.25 -235.25 -86.8 -243.8 -80.3 -242.35 -69.3 -246.65 M15.2 -211.95 L16.5 -213.7 66.2 -201.2 Q67.85 -199.15 68.6 -196.35 69.4 -193.25 69.15 -189.15 L81.4 -179.2 Q81.6 -160.35 67.25 -145.0 L69.75 -160.8 Q62.6 -147.4 46.35 -142.75 L55.1 -155.15 Q49.35 -148.45 41.6 -144.45 L42.7 -143.6 42.8 -143.5 45.65 -140.7 Q48.1 -137.85 50.05 -134.1 L51.5 -131.05 53.2 -129.6 64.8 -119.65 62.8 -118.35 63.8 -117.45 63.95 -117.35 64.05 -117.25 Q76.0 -106.6 80.25 -98.05 L87.9 -80.85 92.75 -69.85 95.5 -65.65 106.35 -48.95 Q105.55 -45.7 104.05 -42.95 102.05 -39.45 98.85 -36.8 L98.9 -36.5 99.15 -32.4 Q98.9 -24.9 93.95 -16.65 L79.45 7.6 80.25 10.8 80.15 11.55 Q79.05 17.1 76.25 18.4 76.05 23.45 74.6 25.05 71.05 28.9 66.85 26.15 67.15 26.8 66.8 26.15 L67.6 27.9 67.75 28.3 69.95 33.4 Q74.2 43.3 77.0 51.35 L77.3 52.2 Q79.45 58.35 80.8 63.4 L81.35 65.7 Q74.35 70.05 65.1 72.2 L66.45 79.7 79.75 155.1 Q88.9 190.55 79.15 203.95 62.0 235.0 55.5 255.8 49.9 273.65 49.65 294.9 M49.65 294.95 L49.65 295.9 49.7 301.5 49.7 301.8 Q42.65 301.65 33.8 299.6 L37.7 308.7 M37.8 308.95 L43.7 322.8 Q44.65 327.05 43.9 330.35 42.65 335.6 37.05 338.5 24.95 339.45 16.75 334.75 L16.6 336.1 Q15.95 340.2 14.35 343.15 L-38.75 343.15 Q-41.1 340.45 -41.8 336.1 -42.25 333.55 -42.1 330.45 -42.5 332.0 -42.55 333.45 -50.2 331.55 -51.65 313.3 -50.55 222.5 -63.7 141.4 -68.35 111.45 -69.55 91.2 L-69.9 82.85 Q-85.85 83.35 -94.3 71.65 L-92.95 67.6 -90.45 60.95 M-90.05 60.0 L-81.0 40.55 -80.65 39.9 -73.95 27.95 -73.75 27.55 -74.4 25.9 -74.55 25.85 -75.05 25.7 -75.5 25.55 -76.7 25.05 -76.9 24.95 Q-79.45 23.7 -80.95 21.95 -82.5 20.15 -82.85 17.85 L-82.9 17.65 -82.9 17.5 -82.9 17.4 -82.9 17.3 -82.95 17.15 -82.95 17.05 -82.95 16.95 -82.95 16.85 Q-82.4 14.4 -81.0 11.8 L-109.8 -18.9 Q-123.05 -34.0 -115.8 -44.65 L-115.7 -44.8 -115.35 -45.3 -114.9 -45.9 Q-120.15 -48.5 -125.5 -52.25 -120.4 -57.4 -109.85 -76.95 -102.45 -90.7 -94.85 -101.05 L-88.4 -109.15 Q-83.25 -115.15 -78.4 -118.2 L-75.5 -119.8 -73.3 -122.45 Q-65.35 -131.45 -55.0 -134.5 L-52.15 -135.25 Q-51.05 -136.0 -45.8 -140.1 L-41.35 -143.65 Q-37.9 -146.4 -34.9 -148.2 -30.2 -151.1 -26.6 -151.65 L-26.15 -151.75 Q-34.8 -158.65 -39.5 -167.1 L-34.75 -155.0 Q-41.0 -160.8 -44.7 -166.85 -42.6 -158.2 -49.65 -152.65 -49.75 -159.55 -55.75 -175.4 -60.65 -168.25 -71.95 -166.35 -64.25 -176.25 -60.45 -196.65 L-66.5 -196.75 -70.4 -197.1 -72.05 -197.3 -74.3 -197.7 -75.65 -198.0 -76.3 -198.15 -77.5 -198.5 -90.1 -204.3 -90.8 -204.8 -92.65 -206.25 -75.1 -212.4 Q-87.7 -212.3 -96.95 -220.35 -85.6 -223.4 -74.25 -234.3 M7.65 -204.4 L7.95 -204.65 Q11.95 -207.85 15.2 -211.95 M69.15 -189.15 Q68.75 -183.4 66.2 -175.75 L64.25 -170.45 63.95 -169.75 59.15 -161.25 57.0 -157.5 56.85 -157.3 56.55 -156.95 56.4 -156.75 56.2 -156.5 55.8 -156.0 55.65 -155.8 55.45 -155.6 55.3 -155.35 55.2 -155.3 55.1 -155.15 M-7.4 -175.0 L-4.25 -167.5 -7.5 -169.1 Q-15.5 -173.35 -20.85 -178.55 -30.75 -188.2 -31.65 -201.15 M4.25 -148.95 Q12.8 -144.05 23.3 -140.9 L25.1 -140.35 26.15 -140.05 26.55 -140.0 26.75 -139.95 27.45 -139.75 Q35.2 -141.15 41.6 -144.45 M69.75 -160.8 Q71.3 -163.75 72.4 -167.1 M69.15 -189.15 L59.05 -186.4 M25.8 -139.5 L25.1 -140.35 M25.8 -139.5 Q29.6 -134.6 29.45 -131.3 30.65 -135.05 33.7 -138.3 M29.45 -131.3 Q28.95 -129.8 28.75 -128.25 L28.7 -127.15 28.6 -125.35 Q27.55 -103.25 36.45 -79.85 35.9 -81.8 37.4 -87.35 38.3 -90.7 39.9 -95.35 44.55 -108.75 52.75 -112.9 59.0 -116.1 62.8 -118.35 M20.15 -115.7 L27.5 -122.2 27.6 -122.4 27.65 -122.5 27.75 -122.7 27.85 -122.95 28.05 -123.4 28.1 -123.55 28.15 -123.65 28.2 -123.8 28.25 -124.0 28.3 -124.25 28.35 -124.4 28.45 -124.65 28.45 -124.8 28.6 -125.35 M23.3 -140.9 Q21.05 -134.95 23.3 -130.65 M28.7 -127.15 L17.7 -125.5 17.5 -124.9 16.35 -121.45 M12.7 -113.65 L14.4 -113.65 Q17.65 -114.5 20.15 -115.7 M-10.5 48.35 L-10.25 53.6 -9.3 63.65 -8.9 66.7 Q14.7 70.45 33.4 66.85 35.85 54.15 36.6 35.75 L36.65 34.9 Q37.35 16.35 36.35 -7.85 35.25 -34.25 35.6 -56.4 35.8 -68.8 36.45 -79.85 M-17.3 -128.1 L0.8 -125.3 4.45 -121.05 M56.95 -92.15 Q51.2 -75.55 52.2 -52.05 52.95 -39.7 54.45 -25.1 55.2 -26.05 63.4 -27.4 L79.0 -29.5 Q91.85 -31.0 98.85 -36.8 M58.75 -96.9 L56.95 -92.15 M62.65 -4.0 L61.0 -4.1 58.15 -4.15 57.6 -4.15 59.1 2.65 61.3 4.9 Q69.7 14.05 68.95 20.1 L68.8 20.8 67.65 21.8 65.7 23.5 Q63.05 17.0 61.0 9.75 L59.1 2.65 M56.75 -8.55 L57.6 -4.15 M56.75 -8.55 L63.4 -27.4 M54.45 -25.1 Q55.2 -17.9 56.75 -8.55 M-7.4 -101.15 Q-5.85 -92.35 -5.05 -81.35 L-5.5 -68.2 -5.6 -65.15 -5.8 -58.2 -7.85 2.65 Q-11.2 27.75 -10.5 48.35 M-63.7 -246.15 L-62.15 -246.15 M-49.7 -198.85 L-49.1 -201.1 -48.9 -201.7 -43.25 -214.6 Q-38.45 -223.55 -30.5 -234.6 L-28.45 -237.45 M-49.8 -198.55 L-49.7 -198.85 M-49.8 -198.55 L-49.9 -198.1 Q-53.9 -181.7 -44.7 -166.85 M-75.1 -212.4 Q-65.65 -212.5 -54.3 -217.2 M-12.05 -142.85 Q-15.9 -148.45 -18.05 -155.5 -20.5 -163.45 -20.8 -173.25 L-20.85 -178.55 M7.65 -204.4 Q-0.7 -197.85 -12.05 -195.3 L-12.0 -194.95 Q-11.65 -190.8 -10.8 -186.65 -9.6 -180.85 -7.4 -175.0 M-18.05 -169.0 L-17.85 -168.7 -17.65 -168.45 -17.5 -168.25 -17.35 -168.0 -17.2 -167.85 -17.05 -167.6 -16.9 -167.4 -16.75 -167.25 -16.6 -167.0 -16.4 -166.75 -16.2 -166.5 Q-10.6 -159.35 -3.2 -153.8 L-2.95 -153.6 4.0 -149.15 M-18.05 -169.0 L-18.05 -155.5 M-20.8 -173.25 L-18.05 -169.0 M-55.75 -175.4 Q-54.05 -178.0 -53.15 -181.2 M-12.95 -91.55 Q-28.55 -109.4 -49.15 -116.05 -66.95 -121.8 -67.9 -121.45 -71.6 -121.6 -75.5 -119.8 M-17.3 -128.1 Q-15.9 -126.2 -14.65 -123.9 -6.4 -113.9 12.7 -113.65 M-27.8 -142.4 Q-26.0 -137.95 -19.15 -130.35 L-17.3 -128.1 M-12.05 -142.85 Q-15.9 -144.8 -19.3 -146.9 L-21.5 -141.9 M-25.15 -148.45 L-28.0 -146.95 Q-29.0 -145.55 -28.0 -142.85 L-19.3 -146.9 Q-23.0 -149.25 -26.15 -151.75 M-27.8 -142.4 L-27.95 -142.7 -27.95 -142.75 -28.0 -142.85 M-8.3 -105.65 L-7.4 -101.15 M-14.65 -123.9 Q-10.75 -116.7 -8.3 -105.65 M-73.15 1.9 Q-69.35 -1.8 -64.05 -5.7 L-64.8 -6.85 -85.1 -38.95 -94.15 -40.0 -94.25 -40.0 Q-103.7 -40.65 -113.4 -45.15 M-62.35 -7.0 L-62.2 -7.1 Q-56.05 -4.6 -54.35 -0.95 -53.8 0.25 -53.7 1.55 -52.15 2.15 -50.9 2.8 -45.4 5.75 -45.6 10.15 L-46.35 12.1 -45.75 12.5 M-37.5 11.95 L-37.0 10.45 M-5.05 -81.35 Q-8.8 -86.85 -12.95 -91.55 M-61.4 -51.45 Q-53.45 -67.75 -40.95 -80.7 M-61.4 -51.45 L-65.2 -42.8 -65.1 -42.35 Q-61.8 -19.6 -64.8 -6.85 M-85.1 -38.95 Q-76.45 -38.1 -68.0 -34.95 L-65.2 -42.8 M-62.35 -7.0 L-64.05 -5.7 M-9.3 -220.7 Q-13.1 -208.15 -12.05 -195.3 M-39.5 -167.1 Q-49.35 -184.8 -41.8 -207.4 M-60.45 -196.65 Q-54.5 -196.85 -49.9 -198.1 M-45.85 28.45 Q-49.7 33.6 -54.75 38.1 L-59.5 41.9 -64.05 44.45 M-64.1 44.45 L-64.15 44.5 -70.85 47.05 M-37.5 11.95 L-39.4 17.1 -39.8 17.95 -45.5 27.95 -45.75 28.3 -45.8 28.4 M-47.55 14.95 L-46.35 12.1 M-77.0 6.0 Q-79.55 8.95 -81.0 11.8 M-73.15 1.9 L-77.0 6.0 M-66.95 33.15 L-66.05 33.45 -64.75 33.1 -63.9 32.8 Q-53.9 29.2 -47.55 14.95 M-63.9 32.8 L-63.8 33.25 M-63.75 33.45 L-62.85 36.75 Q-61.4 40.9 -59.5 41.9 M-73.75 27.55 Q-72.0 31.05 -67.25 33.0 M-55.9 80.7 L-58.25 81.15 -58.9 81.3 Q-64.8 82.7 -69.9 82.85 M-12.2 73.45 L-13.9 73.6 Q-27.0 74.85 -49.5 79.4 L-55.9 80.7 M19.6 312.1 Q20.9 305.65 21.35 298.65 L21.55 294.9 21.6 289.8 M21.6 289.75 L21.45 284.65 20.85 279.1 20.85 279.0 16.75 242.15 11.4 194.15 4.6 133.2 4.6 85.9 4.6 82.95 M-7.95 72.55 L-7.85 73.15 -12.2 73.45 M-8.9 66.7 L-7.95 72.55 M-45.3 12.85 L-39.4 17.1 M-42.1 330.45 L-42.05 330.3 -42.0 330.1 -41.35 328.2 -41.3 328.1 -41.25 328.0 Q-40.0 325.0 -37.5 321.75 L-33.0 316.65 Q-29.5 314.65 -25.85 313.25 L-25.65 313.15 -23.5 312.4 -21.5 311.75 -0.4 311.3 Q2.7 311.0 6.1 311.15 L6.25 311.15 6.7 311.15 M6.95 311.2 L9.05 311.65 Q14.45 312.95 15.8 321.35 L16.4 323.85 16.4 324.0 16.45 323.9 M18.8 315.85 L19.6 312.1 M-28.55 336.1 L16.6 336.1 M-41.8 336.1 L-28.55 336.1 M65.7 23.5 L65.75 23.65 65.9 24.05 66.8 26.15 66.85 26.15 65.9 24.05 65.65 23.5 65.7 23.5 M33.4 66.85 L31.9 73.35 49.05 74.1 Q57.8 73.85 65.1 72.2 M4.6 85.9 Q12.55 85.3 18.1 83.9 L23.9 81.85 M4.6 133.2 L20.45 177.2 11.4 194.15 M21.35 298.65 Q23.85 297.85 28.95 298.65 L32.3 299.25 33.25 299.45 33.8 299.6 M19.75 329.9 L17.95 329.35 17.2 329.1 16.85 329.0 Q17.0 332.1 16.75 334.75 M16.85 329.0 L16.4 324.0 M19.75 329.9 Q34.7 334.05 43.9 330.35 M79.45 7.6 Q75.3 -2.75 62.75 -4.0" fill="none" stroke="#1a5283" stroke-linecap="round" stroke-linejoin="round" stroke-width="2.0"/>
  </g>
</svg>
