<?xml version="1.0" encoding="UTF-8" standalone="no"?>
<svg xmlns:xlink="http://www.w3.org/1999/xlink" height="197.2px" width="211.3px" xmlns="http://www.w3.org/2000/svg">
  <g transform="matrix(1.0, 0.0, 0.0, 1.0, 79.95, 352.75)">
    <path d="M54.05 -298.9 Q52.5 -298.8 52.25 -297.3 50.0 -285.25 62.45 -284.75 64.5 -284.65 64.35 -286.6 63.5 -296.75 54.05 -298.9 M15.2 -303.3 Q8.6 -300.7 7.1 -296.55 5.55 -292.4 7.7 -290.6 9.85 -288.8 13.25 -289.65 16.65 -290.55 19.25 -292.9 21.8 -295.3 21.55 -299.8 21.3 -304.35 15.2 -303.3 M84.6 -259.9 L68.85 -272.1 Q67.9 -268.55 71.25 -263.55 L73.0 -260.8 Q61.5 -261.5 47.0 -261.5 47.2 -262.05 41.6 -275.8 40.75 -275.15 40.3 -273.9 L36.5 -263.6 35.8 -261.4 17.25 -260.9 Q18.4 -262.75 19.3 -273.1 L19.8 -279.0 Q16.65 -278.6 14.8 -275.7 10.5 -268.85 7.25 -261.4 1.4 -248.15 -1.4 -234.2 -2.7 -236.5 -3.55 -238.75 L-4.25 -240.75 Q-6.05 -246.75 -4.95 -252.7 -2.7 -257.9 0.15 -262.75 1.7 -265.35 2.45 -267.75 5.5 -271.55 9.75 -275.3 5.5 -271.55 2.45 -267.75 L-2.15 -281.15 Q-9.3 -275.5 -16.25 -268.0 L-16.65 -267.55 -19.45 -268.7 Q-32.55 -261.55 -49.4 -263.9 L-52.95 -264.5 -51.15 -265.1 Q-42.75 -268.25 -34.65 -276.1 L-39.3 -278.15 -36.1 -279.15 Q-22.45 -283.2 -32.25 -289.25 L-37.8 -287.75 Q-51.2 -283.85 -64.05 -278.85 -61.55 -281.85 -58.5 -284.0 -70.2 -279.15 -78.95 -291.7 -73.0 -288.65 -61.2 -294.7 -53.75 -298.45 -47.65 -298.6 -61.4 -305.2 -63.75 -319.65 -45.1 -311.05 -17.05 -319.65 22.4 -331.0 59.25 -316.85 84.2 -306.55 102.0 -287.7 122.7 -266.65 130.35 -265.7 114.25 -261.95 108.55 -270.75 117.05 -255.15 112.75 -236.15 112.35 -242.5 109.95 -249.05 108.1 -254.05 106.5 -259.1 103.1 -270.25 95.45 -276.95 93.3 -276.9 93.25 -274.95 92.95 -266.55 96.15 -258.25 L84.6 -259.9 M105.2 -276.1 Q107.05 -273.5 108.55 -270.75 107.05 -273.5 105.2 -276.1 M82.2 -300.15 Q80.95 -300.1 80.75 -298.95 79.3 -288.65 90.55 -288.3 91.85 -288.25 91.8 -289.5 91.25 -298.85 82.2 -300.15 M99.15 -187.35 Q99.4 -175.45 82.65 -166.4 88.35 -173.75 89.45 -186.1 L97.7 -185.9 99.1 -185.9 99.15 -187.35 M88.05 -183.95 Q84.75 -175.35 75.1 -169.9 76.9 -174.9 75.25 -183.25 L85.1 -183.75 88.05 -183.95 M74.95 -181.4 L74.15 -176.4 Q71.6 -164.65 62.7 -156.55 64.65 -165.35 61.1 -179.6 L61.1 -161.65 Q54.6 -170.5 51.45 -178.9 L61.1 -179.6 74.85 -180.75 74.95 -181.4 M-39.4 -295.65 Q-43.95 -296.85 -47.65 -298.6 -43.95 -296.85 -39.4 -295.65 M-10.65 -314.05 Q-19.45 -313.05 -27.05 -309.1 -30.9 -307.05 -27.35 -305.8 -23.85 -304.6 -19.75 -304.55 -15.7 -304.5 -11.6 -307.85 -7.5 -311.2 -10.65 -314.05 M-26.6 -285.3 Q-30.6 -280.1 -34.65 -276.1 -30.6 -280.1 -26.6 -285.3 M-42.6 -289.7 Q-51.7 -288.9 -58.5 -284.0 -51.7 -288.9 -42.6 -289.7 M-19.45 -268.7 Q-12.75 -272.35 -7.05 -278.5 -12.75 -272.35 -19.45 -268.7 M-71.75 -265.9 L-66.4 -268.25 -72.15 -264.9 -71.75 -265.9 M-9.75 -227.8 Q-3.45 -221.1 1.45 -213.4 -3.5 -201.3 -4.1 -188.2 -5.6 -182.9 -5.55 -178.2 -21.3 -202.5 -9.75 -227.8" fill="#132a4c" fill-rule="evenodd" stroke="none"/>
    <path d="M10.7 -256.55 Q22.65 -256.2 34.65 -256.7 69.7 -258.1 104.15 -252.3 105.45 -242.4 103.4 -233.35 99.75 -229.2 75.25 -229.25 41.8 -230.15 20.95 -233.35 13.1 -237.35 11.0 -242.7 8.85 -248.05 9.6 -253.45 L9.5 -253.2 10.7 -256.55 M48.9 -190.5 Q28.8 -196.05 20.7 -214.55 18.0 -220.7 18.35 -227.1 43.3 -226.1 64.3 -225.85 85.3 -225.65 97.0 -226.65 106.6 -227.45 106.1 -229.6 L115.55 -215.55 Q124.0 -202.7 126.15 -196.2 128.6 -188.7 110.1 -192.2 L97.95 -193.5 89.7 -193.55 85.1 -193.35 74.85 -192.45 58.85 -190.25 Q53.75 -190.1 49.1 -190.45 L49.0 -190.45 48.9 -190.5" fill="#4c97d9" fill-rule="evenodd" stroke="none"/>
    <path d="M84.6 -259.9 L96.15 -258.25 103.4 -256.6 104.15 -252.3 Q69.7 -258.1 34.65 -256.7 22.65 -256.2 10.7 -256.55 L12.45 -260.75 17.25 -260.9 35.8 -261.4 47.0 -261.5 Q61.5 -261.5 73.0 -260.8 L84.6 -259.9" fill="#79c7ff" fill-rule="evenodd" stroke="none"/>
    <path d="M-4.95 -252.7 Q-6.05 -246.75 -4.25 -240.75 -26.55 -248.3 -49.4 -263.9 -32.55 -261.55 -19.45 -268.7 L-16.65 -267.55 -16.1 -267.3 -16.05 -267.3 -15.7 -267.15 -1.8 -261.4 -2.05 -260.95 -4.0 -256.35 -4.75 -253.65 -4.95 -252.7 M1.45 -229.8 Q3.3 -227.2 5.75 -224.6 5.25 -230.5 5.85 -236.45 L6.0 -237.85 6.1 -238.6 6.4 -240.7 6.55 -241.6 6.65 -242.15 6.85 -243.3 7.2 -244.9 7.25 -245.2 9.45 -253.1 9.5 -253.15 9.5 -253.2 9.6 -253.45 Q8.85 -248.05 11.0 -242.7 13.1 -237.35 20.95 -233.35 41.8 -230.15 75.25 -229.25 99.75 -229.2 103.4 -233.35 L105.4 -230.6 106.1 -229.6 Q106.6 -227.45 97.0 -226.65 85.3 -225.65 64.3 -225.85 43.3 -226.1 18.35 -227.1 18.0 -220.7 20.7 -214.55 28.8 -196.05 48.9 -190.5 L48.85 -190.5 48.9 -190.5 49.0 -190.45 49.1 -190.45 48.85 -190.5 48.7 -190.5 Q30.7 -192.05 18.9 -201.8 L17.55 -203.3 10.3 -212.3 9.65 -213.2 9.35 -213.65 Q3.5 -222.15 1.45 -229.8 M5.85 -236.45 L9.45 -235.55 19.1 -233.65 20.95 -233.35 19.1 -233.65 9.45 -235.55 5.85 -236.45 M-39.3 -278.15 L-34.65 -276.1 Q-42.75 -268.25 -51.15 -265.1 -55.55 -268.15 -59.95 -271.5 -51.6 -275.55 -41.5 -279.1 L-39.3 -278.15" fill="#3572b4" fill-rule="evenodd" stroke="none"/>
    <path d="M73.0 -260.8 L71.25 -263.55 Q67.9 -268.55 68.85 -272.1 L84.6 -259.9 73.0 -260.8 M96.15 -258.25 Q92.95 -266.55 93.25 -274.95 93.3 -276.9 95.45 -276.95 103.1 -270.25 106.5 -259.1 108.1 -254.05 109.95 -249.05 112.35 -242.5 112.75 -236.15 L112.6 -235.55 112.75 -236.15 112.75 -236.1 112.6 -235.55 111.55 -231.75 Q109.7 -244.55 103.4 -256.6 L96.15 -258.25 M35.8 -261.4 L36.5 -263.6 40.3 -273.9 Q40.75 -275.15 41.6 -275.8 47.2 -262.05 47.0 -261.5 L35.8 -261.4 M17.25 -260.9 L12.45 -260.75 10.7 -256.55 9.5 -253.2 9.5 -253.15 9.45 -253.1 7.25 -245.2 7.2 -244.9 6.85 -243.3 6.65 -242.15 6.55 -241.6 6.4 -240.7 6.1 -238.6 6.0 -237.85 5.85 -236.45 Q5.25 -230.5 5.75 -224.6 3.3 -227.2 1.45 -229.8 L-1.4 -234.2 1.45 -229.8 Q3.5 -222.15 9.35 -213.65 L5.8 -208.55 5.55 -208.15 3.5 -204.85 2.35 -202.85 1.3 -201.0 -0.35 -197.75 Q-2.8 -192.75 -4.1 -188.2 -3.5 -201.3 1.45 -213.4 -3.45 -221.1 -9.75 -227.8 -7.3 -233.25 -3.55 -238.75 -2.7 -236.5 -1.4 -234.2 1.4 -248.15 7.25 -261.4 10.5 -268.85 14.8 -275.7 16.65 -278.6 19.8 -279.0 L19.3 -273.1 Q18.4 -262.75 17.25 -260.9 M12.45 -260.75 Q14.85 -266.2 18.1 -271.7 14.85 -266.2 12.45 -260.75 M2.45 -267.75 Q1.7 -265.35 0.15 -262.75 -2.7 -257.9 -4.95 -252.7 L-4.75 -253.65 -4.0 -256.35 -2.05 -260.95 -1.8 -261.4 -15.7 -267.15 -16.05 -267.3 -16.1 -267.3 -16.65 -267.55 -16.25 -268.0 Q-9.3 -275.5 -2.15 -281.15 L2.45 -267.75 Q-0.1 -264.6 -1.8 -261.4 -0.1 -264.6 2.45 -267.75 M48.7 -190.5 L48.85 -190.5 49.1 -190.45 Q53.75 -190.1 58.85 -190.25 L74.85 -192.45 85.1 -193.35 89.7 -193.55 89.7 -193.05 89.7 -193.55 97.95 -193.5 98.2 -192.85 98.2 -192.75 99.05 -188.8 99.15 -187.35 99.1 -185.9 97.7 -185.9 89.45 -186.1 Q89.75 -189.45 89.7 -193.05 89.6 -188.15 88.05 -183.95 L85.1 -183.75 75.25 -183.25 75.1 -183.9 74.95 -181.4 74.85 -180.75 61.1 -179.6 51.45 -178.9 Q49.3 -184.75 48.75 -190.3 L48.7 -190.5 M103.4 -256.6 Q99.35 -264.3 95.2 -270.5 99.35 -264.3 103.4 -256.6 M75.1 -183.9 L75.15 -184.35 Q75.25 -188.25 74.85 -192.45 75.25 -188.25 75.15 -184.35 L75.1 -183.9 M61.1 -179.6 L61.1 -184.35 61.1 -179.6 M-64.05 -278.85 Q-51.2 -283.85 -37.8 -287.75 L-32.25 -289.25 Q-22.45 -283.2 -36.1 -279.15 L-39.3 -278.15 -41.5 -279.1 Q-51.6 -275.55 -59.95 -271.5 L-66.4 -268.25 -71.75 -265.9 Q-70.15 -269.9 -68.1 -273.25 L-65.15 -277.55 -64.75 -278.05 -64.05 -278.85 -64.75 -278.05 -64.1 -278.85 -64.05 -278.85 M-33.8 -281.7 L-41.5 -279.1 -33.8 -281.7" fill="#091425" fill-rule="evenodd" stroke="none"/>
    <path d="M15.2 -303.3 Q21.3 -304.35 21.55 -299.8 21.8 -295.3 19.25 -292.9 16.65 -290.55 13.25 -289.65 9.85 -288.8 7.7 -290.6 5.55 -292.4 7.1 -296.55 8.6 -300.7 15.2 -303.3 M54.05 -298.9 Q63.5 -296.75 64.35 -286.6 64.5 -284.65 62.45 -284.75 50.0 -285.25 52.25 -297.3 52.5 -298.8 54.05 -298.9 M82.2 -300.15 Q91.25 -298.85 91.8 -289.5 91.85 -288.25 90.55 -288.3 79.3 -288.65 80.75 -298.95 80.95 -300.1 82.2 -300.15 M-10.65 -314.05 Q-7.5 -311.2 -11.6 -307.85 -15.7 -304.5 -19.75 -304.55 -23.85 -304.6 -27.35 -305.8 -30.9 -307.05 -27.05 -309.1 -19.45 -313.05 -10.65 -314.05" fill="#245091" fill-rule="evenodd" stroke="none"/>
    <path d="M84.6 -259.9 L96.15 -258.25 103.4 -256.6 Q109.7 -244.55 111.55 -231.75 L112.6 -235.55 112.75 -236.15 Q117.05 -255.15 108.55 -270.75 107.05 -273.5 105.2 -276.1 M47.0 -261.5 Q61.5 -261.5 73.0 -260.8 L84.6 -259.9 M47.0 -261.5 L35.8 -261.4 17.25 -260.9 12.45 -260.75 10.7 -256.55 9.5 -253.2 M104.15 -252.3 L103.4 -256.6 Q99.35 -264.3 95.2 -270.5 M18.1 -271.7 Q14.85 -266.2 12.45 -260.75 M-4.95 -252.7 Q-6.05 -246.75 -4.25 -240.75 L-3.55 -238.75 Q-2.7 -236.5 -1.4 -234.2 L1.45 -229.8 Q3.3 -227.2 5.75 -224.6 5.25 -230.5 5.85 -236.45 L6.0 -237.85 6.1 -238.6 6.4 -240.7 6.55 -241.6 6.65 -242.15 6.85 -243.3 7.2 -244.9 7.25 -245.2 9.45 -253.1 9.5 -253.15 M20.95 -233.35 Q41.8 -230.15 75.25 -229.25 99.75 -229.2 103.4 -233.35 105.45 -242.4 104.15 -252.3 M2.45 -267.75 Q5.5 -271.55 9.75 -275.3 M20.95 -233.35 L19.1 -233.65 9.45 -235.55 5.85 -236.45 M9.35 -213.65 L9.65 -213.2 10.3 -212.3 17.55 -203.3 18.9 -201.8 Q30.7 -192.05 48.7 -190.5 L48.85 -190.5 48.9 -190.5 49.0 -190.45 49.1 -190.45 Q53.75 -190.1 58.85 -190.25 L74.85 -192.45 Q75.25 -188.25 75.15 -184.35 L75.1 -183.9 74.95 -181.4 74.15 -176.4 Q71.6 -164.65 62.7 -156.55 64.65 -165.35 61.1 -179.6 L61.1 -161.65 Q54.6 -170.5 51.45 -178.9 49.3 -184.75 48.75 -190.3 L48.7 -190.5 M106.1 -229.6 L105.4 -230.6 103.4 -233.35 M-4.1 -188.2 Q-2.8 -192.75 -0.35 -197.75 L1.3 -201.0 2.35 -202.85 3.5 -204.85 5.55 -208.15 5.8 -208.55 9.35 -213.65 Q3.5 -222.15 1.45 -229.8 M106.1 -229.6 L115.55 -215.55 Q124.0 -202.7 126.15 -196.2 128.6 -188.7 110.1 -192.2 L97.95 -193.5 98.2 -192.85 98.2 -192.75 99.05 -188.8 99.15 -187.35 Q99.4 -175.45 82.65 -166.4 88.35 -173.75 89.45 -186.1 89.75 -189.45 89.7 -193.05 89.6 -188.15 88.05 -183.95 84.75 -175.35 75.1 -169.9 76.9 -174.9 75.25 -183.25 M108.55 -270.75 Q114.25 -261.95 130.35 -265.7 122.7 -266.65 102.0 -287.7 84.2 -306.55 59.25 -316.85 22.4 -331.0 -17.05 -319.65 -45.1 -311.05 -63.75 -319.65 -61.4 -305.2 -47.65 -298.6 -43.95 -296.85 -39.4 -295.65 M89.7 -193.05 L89.7 -193.55 85.1 -193.35 74.85 -192.45 M97.95 -193.5 L89.7 -193.55 M61.1 -184.35 L61.1 -179.6 M-39.3 -278.15 L-34.65 -276.1 Q-30.6 -280.1 -26.6 -285.3 M-4.95 -252.7 L-4.75 -253.65 -4.0 -256.35 -2.05 -260.95 -1.8 -261.4 -15.7 -267.15 -16.05 -267.3 -16.1 -267.3 M-16.65 -267.55 L-19.45 -268.7 Q-32.55 -261.55 -49.4 -263.9 -26.55 -248.3 -4.25 -240.75 M2.45 -267.75 Q-0.1 -264.6 -1.8 -261.4 M-7.05 -278.5 Q-12.75 -272.35 -19.45 -268.7 M-58.5 -284.0 Q-51.7 -288.9 -42.6 -289.7 M-64.75 -278.05 L-64.05 -278.85 Q-61.55 -281.85 -58.5 -284.0 -70.2 -279.15 -78.95 -291.7 -73.0 -288.65 -61.2 -294.7 -53.75 -298.45 -47.65 -298.6 M-64.75 -278.05 L-65.15 -277.55 -68.1 -273.25 Q-70.15 -269.9 -71.75 -265.9 L-72.15 -264.9 -66.4 -268.25 -59.95 -271.5 Q-51.6 -275.55 -41.5 -279.1 L-33.8 -281.7 M-49.4 -263.9 L-52.95 -264.5 -51.15 -265.1 Q-55.55 -268.15 -59.95 -271.5 M-3.55 -238.75 Q-7.3 -233.25 -9.75 -227.8 -21.3 -202.5 -5.55 -178.2 -5.6 -182.9 -4.1 -188.2 M-51.15 -265.1 Q-42.75 -268.25 -34.65 -276.1 M-39.3 -278.15 L-41.5 -279.1" fill="none" stroke="#1a5283" stroke-linecap="round" stroke-linejoin="round" stroke-width="2.0"/>
    <path d="M40.05 -315.7 Q28.25 -331.85 5.45 -345.35 42.85 -347.05 43.2 -318.5 49.5 -331.55 42.2 -351.75 71.45 -342.6 46.05 -317.25 L40.05 -315.7" fill="#132a4c" fill-rule="evenodd" stroke="none"/>
    <path d="M40.05 -315.7 Q28.25 -331.85 5.45 -345.35 42.85 -347.05 43.2 -318.5 49.5 -331.55 42.2 -351.75 71.45 -342.6 46.05 -317.25" fill="none" stroke="#1a5283" stroke-linecap="round" stroke-linejoin="round" stroke-width="2.0"/>
  </g>
</svg>
