<?xml version="1.0" encoding="UTF-8" standalone="no"?>
<svg xmlns:xlink="http://www.w3.org/1999/xlink" height="622.9px" width="233.25px" xmlns="http://www.w3.org/2000/svg">
  <g transform="matrix(1.0, 0.0, 0.0, 1.0, 123.55, 278.75)">
    <path d="M63.95 -117.35 L64.05 -117.25 63.95 -117.35 M-75.05 25.7 L-75.5 25.55 -75.05 25.7 M-75.05 -119.95 L-75.5 -119.8 -74.15 -121.45 -75.05 -119.95 M-20.45 -172.7 L-20.8 -173.25 -20.8 -173.5 -20.45 -172.7 M54.15 -28.2 L54.6 -25.2 54.45 -25.1 54.15 -28.2 M-90.8 -204.8 L-90.1 -204.3 -90.85 -204.8 -90.8 -204.8" fill="#cccccc" fill-rule="evenodd" stroke="none"/>
    <path d="M44.05 -142.4 L45.65 -140.7 Q48.0 -137.95 49.9 -134.35 48.8 -131.95 49.35 -124.9 L49.45 -122.45 Q52.55 -128.1 57.2 -126.2 L64.8 -119.65 62.8 -118.35 Q59.0 -116.1 52.75 -112.9 44.8 -108.9 40.2 -96.2 L40.05 -95.75 39.95 -95.55 Q37.3 -88.85 33.65 -108.05 29.8 -128.15 42.3 -140.55 L44.05 -142.4 M66.0 -115.45 Q76.35 -105.9 80.25 -98.05 L83.25 -91.3 Q86.55 -84.55 89.95 -78.55 L89.35 -75.2 Q87.9 -67.8 90.65 -62.95 93.0 -66.75 94.15 -71.5 101.15 -60.45 108.7 -52.2 108.7 -50.5 108.35 -48.85 87.0 -35.65 65.7 -37.55 58.1 -58.05 57.85 -94.7 L56.95 -92.15 Q54.55 -85.2 53.35 -77.0 51.6 -65.7 52.2 -52.05 52.85 -41.0 54.15 -28.2 L54.45 -25.1 54.6 -25.2 Q55.75 -17.75 57.5 -10.55 L59.15 -4.1 Q60.55 1.0 62.3 6.05 L64.1 11.05 63.9 10.55 64.4 13.0 Q66.7 24.65 66.65 36.55 66.65 37.9 67.3 37.15 70.6 33.4 71.7 28.1 L82.1 48.55 74.45 59.05 Q68.55 67.05 61.5 74.35 55.5 77.55 50.65 77.5 L40.4 76.6 29.95 74.15 Q32.4 70.85 34.35 66.7 45.15 43.55 41.25 -5.5 L40.65 -12.1 40.65 -12.45 Q38.0 -41.35 36.95 -65.15 37.95 -67.25 40.35 -79.05 42.75 -90.85 50.35 -102.7 57.95 -114.6 66.0 -115.45 M79.45 7.6 L80.2 10.6 77.4 12.65 Q75.85 11.9 74.45 9.9 73.05 7.85 72.2 8.25 72.1 8.5 72.15 8.7 72.85 10.7 72.65 12.8 L72.35 16.7 Q70.15 17.75 69.0 19.7 L68.95 19.9 Q69.4 15.55 65.2 9.65 66.2 5.4 65.35 0.3 L64.8 -3.7 Q75.65 -1.9 79.45 7.6 M76.2 19.7 Q75.85 23.65 74.6 25.05 L73.85 25.8 76.2 19.7 M87.0 58.05 L87.3 58.65 87.25 58.75 86.35 59.1 87.0 58.05 M37.45 308.1 L37.7 308.7 37.8 308.95 43.7 322.8 Q44.65 327.05 43.9 330.35 35.2 333.85 21.35 330.35 L23.2 323.6 Q25.8 313.15 34.35 309.15 L38.0 309.45 37.45 308.1 M16.75 334.75 L16.6 336.1 -30.15 336.1 Q-19.5 315.75 6.6 312.1 L8.7 311.6 8.25 311.45 9.05 311.65 Q13.4 312.7 15.15 318.4 L15.7 320.85 15.8 321.35 16.4 323.85 16.4 324.0 16.45 324.3 16.5 324.55 16.85 328.25 16.85 329.0 Q17.0 332.1 16.75 334.75 M-79.4 45.65 Q-78.8 41.4 -78.7 44.25 -75.55 37.6 -71.55 30.4 -70.05 31.75 -67.9 32.75 L-67.75 32.8 -67.35 32.95 -67.25 33.0 -66.05 33.45 -64.75 33.1 -63.9 32.8 -63.8 33.25 -63.45 34.7 -63.65 33.95 Q-63.6 37.6 -68.5 41.9 -73.5 46.2 -72.3 48.7 -71.15 51.2 -69.7 50.45 -60.05 45.3 -52.95 36.45 -49.0 32.65 -45.8 28.4 L-45.75 28.3 -45.5 27.95 -43.3 24.15 -42.15 23.1 Q-34.05 16.3 -37.15 11.0 -38.15 9.35 -40.15 7.9 L-45.8 12.5 -46.35 12.1 -45.6 10.15 -45.7 8.6 Q-46.4 5.2 -50.9 2.8 -46.4 5.2 -45.7 8.6 -50.4 13.55 -54.65 19.3 -60.95 27.9 -68.95 24.1 -68.45 21.1 -67.4 18.15 -65.5 12.75 -70.15 16.0 -76.3 20.25 -76.7 13.15 -76.85 9.55 -78.3 7.65 L-77.0 6.0 -73.15 1.9 -72.15 1.0 Q-68.7 -2.3 -64.05 -5.7 L-62.35 -7.0 -62.2 -7.1 -60.35 -6.3 Q-56.9 -4.6 -55.2 -2.4 L-55.5 -3.75 Q-56.5 -9.25 -55.85 -15.7 -55.2 -22.2 -52.05 -39.15 -51.75 -48.35 -46.05 -60.8 -39.85 -74.5 -36.65 -85.7 -38.1 -85.65 -38.95 -84.4 L-44.85 -75.45 Q-57.75 -56.3 -64.3 -34.3 L-68.0 -34.95 -85.1 -38.95 -92.65 -40.95 -98.9 -42.8 -108.45 -44.8 -113.15 -45.6 Q-108.2 -63.3 -105.3 -81.9 L-105.05 -83.6 Q-90.55 -107.8 -76.05 -119.2 -72.7 -120.55 -61.05 -117.55 -49.45 -114.6 -33.65 -103.45 -17.9 -92.3 -11.7 -80.65 L-3.95 -66.2 -3.45 -55.55 -3.15 -45.55 Q-2.8 -32.6 -2.8 -18.0 -5.7 22.95 -0.05 47.8 L0.6 50.6 0.75 51.15 Q2.35 57.2 4.5 62.25 L5.2 63.8 7.45 68.2 7.6 68.45 Q3.6 72.65 -7.85 73.15 L-12.2 73.45 -13.9 73.6 Q-27.0 74.85 -49.5 79.4 L-53.9 80.3 Q-60.65 80.45 -71.2 74.75 -81.8 69.0 -80.35 54.3 L-79.4 45.65 -78.7 44.25 -79.4 45.65 M-74.15 -121.45 L-73.3 -122.45 Q-66.45 -130.2 -57.75 -133.55 -55.55 -132.35 -43.05 -130.7 L-39.05 -130.15 -47.35 -138.85 -45.8 -140.1 -41.35 -143.65 -35.4 -147.9 Q-34.35 -147.25 -32.6 -146.95 L-32.75 -146.8 Q-34.5 -141.6 -30.45 -136.9 -27.8 -133.8 -18.55 -118.4 -9.35 -103.05 -10.7 -88.95 L-10.15 -88.25 -12.95 -91.55 Q-28.55 -109.4 -49.15 -116.05 -66.95 -121.8 -67.9 -121.45 -71.4 -121.6 -75.05 -119.95 L-74.15 -121.45 M57.85 -94.7 L58.75 -96.9 57.85 -94.7 M65.7 23.5 L65.65 23.5 65.75 23.6 65.7 23.5 M52.4 42.15 L52.4 42.2 52.0 42.25 51.8 42.3 51.4 42.75 51.85 42.4 Q52.45 41.8 54.5 45.5 56.5 49.1 64.25 50.5 72.0 51.85 77.8 45.55 L77.7 45.35 Q70.65 45.75 62.1 45.5 56.7 45.35 52.4 42.15 M-54.4 -1.15 L-55.2 -2.4 -54.4 -1.15 -55.1 -0.5 Q-58.5 3.3 -56.95 7.85 -56.25 9.9 -54.45 8.25 -51.5 5.55 -50.8 2.9 L-50.9 2.8 Q-52.15 2.15 -53.7 1.55 L-53.7 1.25 Q-53.85 0.1 -54.35 -0.95 L-54.4 -1.15 M-37.0 10.45 L-37.15 11.0 -37.0 10.45 M-17.4 40.5 L-17.8 40.6 -18.2 40.85 -18.7 41.95 -17.4 40.5 M-27.95 53.4 Q-22.6 47.45 -19.6 42.85 L-30.6 50.7 Q-42.15 58.4 -57.0 55.8 -53.1 62.15 -43.2 60.8 -33.3 59.4 -27.95 53.4 M-7.95 72.55 L-7.85 73.15 -7.95 72.55" fill="#4c97d9" fill-rule="evenodd" stroke="none"/>
    <path d="M43.9 330.35 Q42.65 335.6 37.05 338.5 24.95 339.45 16.75 334.75 17.0 332.1 16.85 329.0 L17.2 329.1 17.95 329.35 19.75 329.9 21.35 330.35 Q35.2 333.85 43.9 330.35 M16.6 336.1 Q15.95 340.2 14.35 343.15 L-38.75 343.15 Q-41.1 340.45 -41.8 336.1 L-30.15 336.1 16.6 336.1 M28.6 -125.35 L28.55 -123.4 28.25 -123.95 28.25 -124.0 28.3 -124.25 28.35 -124.4 28.45 -124.65 28.45 -124.8 28.6 -125.35 M12.7 -113.9 L12.95 -113.95 17.15 -114.45 17.7 -114.6 18.1 -114.65 17.9 -114.6 Q18.45 -112.6 19.45 -110.4 27.2 -93.3 30.3 -63.5 33.4 -33.75 35.1 2.2 36.8 38.1 33.4 49.8 L32.1 54.3 31.9 49.0 Q29.85 52.1 15.4 52.2 1.05 52.25 -0.25 46.95 L-0.05 47.8 Q-5.7 22.95 -2.8 -18.0 -2.8 -32.6 -3.15 -45.55 0.25 -23.7 8.05 -9.1 15.8 5.55 25.35 12.5 19.55 3.8 11.5 -16.65 3.4 -37.15 -3.45 -55.55 L-3.95 -66.2 Q-4.35 -73.2 -4.9 -79.55 L-5.05 -81.3 -5.05 -81.35 Q-5.85 -92.35 -7.4 -101.15 L-7.65 -102.55 -7.6 -102.2 -3.45 -100.4 Q0.55 -98.6 17.5 -97.75 L17.65 -98.5 17.6 -99.55 17.5 -99.9 Q3.95 -103.45 0.35 -104.95 -3.3 -106.5 -8.9 -108.3 -11.25 -117.6 -14.65 -123.9 -12.45 -121.25 -9.5 -119.3 L-9.35 -119.15 Q-0.5 -113.85 6.1 -113.75 9.7 -113.7 12.7 -113.9 M0.75 51.15 Q11.45 61.35 32.05 54.5 L29.9 61.5 4.5 62.25 Q2.35 57.2 0.75 51.15 M30.6 46.9 Q31.6 47.8 31.85 48.45 L31.65 47.95 Q31.35 47.2 30.6 46.9" fill="#1b2734" fill-rule="evenodd" stroke="none"/>
    <path d="M67.4 85.1 L79.75 155.1 Q88.9 190.55 79.15 203.95 62.0 235.0 55.5 255.8 49.9 273.65 49.65 294.9 L49.65 294.95 49.65 295.3 Q43.3 299.75 22.85 285.6 24.55 287.2 22.85 289.0 L21.6 290.65 21.55 294.9 21.35 298.65 21.25 300.1 20.7 305.4 Q20.1 305.25 19.15 313.65 L19.1 313.75 19.15 313.65 19.1 313.75 Q9.55 304.25 -2.05 301.95 -13.65 299.6 -39.35 308.8 -36.4 290.55 -38.9 270.4 -41.4 250.25 -45.65 200.35 -38.0 204.2 -33.3 208.15 -36.4 202.95 -38.6 195.2 -42.1 183.15 -44.55 170.2 -51.6 133.15 -45.3 95.95 -44.5 91.1 -44.8 86.9 -33.1 81.25 -12.95 76.2 L22.15 71.65 Q22.1 76.3 39.0 77.65 55.9 79.0 67.4 85.1 M18.2 83.9 L15.95 83.45 Q13.3 83.95 10.35 84.9 9.6 85.15 9.0 85.5 7.35 86.45 7.05 88.0 5.4 97.25 4.6 106.6 L4.6 85.9 4.6 82.95 4.6 85.9 4.6 106.6 Q2.2 134.1 6.9 162.1 7.4 165.0 8.45 167.4 L11.4 194.15 11.95 199.55 Q12.75 209.25 12.95 216.85 L13.8 215.75 Q19.7 208.0 24.3 199.0 27.0 193.75 27.4 189.1 L39.6 192.75 Q34.75 190.35 28.55 162.3 22.3 134.2 21.8 133.4 21.25 132.55 20.7 128.05 20.15 123.55 19.75 110.7 19.3 97.8 20.85 90.35 22.45 82.85 18.3 83.85 L18.2 83.9 M9.0 85.5 L4.6 85.9 9.0 85.5 M13.8 215.75 L20.85 279.0 20.85 279.1 21.45 284.65 21.6 289.8 21.6 290.65 21.6 289.8 21.45 284.65 20.85 279.1 20.85 279.0 13.8 215.75 M23.9 81.85 Q21.55 82.95 18.3 83.85 21.55 82.95 23.9 81.85 M15.15 318.4 L16.85 318.6 15.7 320.85 15.15 318.4" fill="#283e5d" fill-rule="evenodd" stroke="none"/>
    <path d="M46.45 -206.15 L44.65 -206.15 38.7 -206.55 37.95 -206.7 44.25 -206.7 46.45 -206.15 M-10.45 -205.85 L-6.0 -205.0 -1.0 -204.15 -0.35 -204.05 -6.6 -204.15 Q-13.8 -204.45 -17.7 -200.75 L-16.6 -204.1 -10.45 -205.85 M-19.35 -195.55 Q-10.95 -188.65 1.9 -188.5 L2.65 -188.4 Q9.85 -187.05 18.0 -188.6 30.0 -186.25 42.3 -185.55 45.95 -181.15 46.05 -178.9 49.7 -172.75 52.45 -166.15 L54.45 -161.65 54.65 -161.25 56.35 -156.65 56.2 -156.5 55.8 -156.0 55.65 -155.8 55.45 -155.6 55.3 -155.35 55.2 -155.3 55.1 -155.15 Q49.35 -148.45 41.6 -144.45 35.2 -141.15 27.45 -139.75 L26.75 -139.95 26.55 -140.0 26.15 -140.05 25.1 -140.35 23.3 -140.9 21.7 -141.4 23.3 -140.9 25.1 -140.35 25.8 -139.5 27.65 -136.85 27.05 -136.9 Q25.4 -138.9 23.15 -140.45 L21.7 -141.4 17.4 -143.35 16.15 -143.8 Q10.2 -145.95 4.7 -148.75 L4.3 -148.95 4.0 -149.1 2.35 -150.15 Q-8.1 -160.4 -6.75 -172.85 -5.4 -185.3 -14.65 -191.8 -16.55 -191.75 -17.0 -189.9 -19.5 -180.05 -18.8 -170.1 L-20.45 -172.7 -20.8 -173.5 -24.1 -180.8 -19.35 -195.55 M65.6 -173.95 L63.75 -177.5 Q61.75 -181.05 60.3 -184.95 L59.95 -185.4 62.4 -185.55 Q65.55 -184.7 68.5 -184.35 67.75 -180.4 66.2 -175.75 L65.6 -173.95 M68.6 -196.45 L62.2 -196.0 62.45 -196.15 63.25 -197.0 Q64.55 -198.6 63.4 -199.75 61.6 -201.6 59.4 -202.9 L66.2 -201.2 Q67.8 -199.2 68.6 -196.45 M99.15 -32.35 Q98.9 -24.9 93.95 -16.65 L79.45 7.6 Q75.65 -1.9 64.8 -3.7 L74.95 -25.0 Q81.8 -27.6 88.45 -29.65 95.1 -31.7 99.15 -32.05 L99.15 -32.35 M-81.0 11.8 L-109.8 -18.9 Q-123.05 -34.0 -115.8 -44.65 L-115.7 -44.8 -115.35 -45.3 -114.9 -45.9 -113.15 -45.6 -108.45 -44.8 Q-80.7 -28.55 -72.15 1.0 L-73.15 1.9 -77.0 6.0 -78.3 7.65 Q-79.95 9.75 -81.0 11.8 M23.3 -140.9 L23.15 -140.45 23.3 -140.9 M19.2 -125.7 L19.85 -125.4 18.75 -122.6 Q17.3 -118.25 14.0 -115.25 L12.7 -113.9 Q9.7 -113.7 6.1 -113.75 -0.5 -113.85 -9.35 -119.15 L-9.5 -119.3 Q-12.45 -121.25 -14.65 -123.9 -15.9 -126.2 -17.3 -128.1 L-19.15 -130.35 Q-23.5 -135.15 -25.8 -138.7 L-25.5 -138.55 Q-21.05 -136.1 -12.95 -133.35 L4.8 -127.25 Q14.45 -123.9 17.9 -126.35 L19.2 -125.7 17.7 -125.5 16.35 -121.45 17.7 -125.5 19.2 -125.7 M4.45 -121.05 L0.8 -125.3 -17.3 -128.1 0.8 -125.3 4.45 -121.05 M60.55 -4.1 Q62.3 -7.05 64.8 -3.7 L62.75 -4.0 61.0 -4.1 60.55 -4.1 M-20.5 -144.1 L-23.35 -145.0 -19.3 -146.9 -20.5 -144.1 M-2.3 -135.0 L-1.4 -134.7 -2.55 -134.95 -6.65 -136.0 -2.3 -135.0" fill="#ffe8d7" fill-rule="evenodd" stroke="none"/>
    <path d="M65.2 9.65 Q69.4 15.55 68.95 19.9 L68.95 20.1 68.8 20.8 68.35 21.2 68.1 20.7 67.85 20.1 67.7 19.8 67.5 19.3 67.3 18.8 67.1 18.4 64.1 11.05 62.3 6.05 64.85 9.15 65.2 9.65 M-46.35 12.1 L-45.8 12.5 -39.4 17.1 -39.8 17.95 -43.3 24.15 -45.5 27.95 -45.75 28.3 -45.8 28.4 Q-49.0 32.65 -52.95 36.45 L-54.75 38.1 -59.5 41.9 Q-61.4 40.9 -62.85 36.75 L-62.85 36.65 -63.45 34.7 -63.8 33.25 -63.9 32.8 Q-55.55 29.8 -49.7 19.35 L-47.55 14.95 -46.35 12.1" fill="#121b25" fill-rule="evenodd" stroke="none"/>
    <path d="M44.25 -206.7 L37.95 -206.7 38.7 -206.55 44.65 -206.15 46.45 -206.15 59.4 -202.9 46.45 -206.15 46.5 -206.15 59.4 -202.9 Q61.6 -201.6 63.4 -199.75 64.55 -198.6 63.25 -197.0 L62.45 -196.15 62.2 -196.0 68.6 -196.45 68.6 -196.35 Q69.4 -193.25 69.15 -189.15 L69.15 -188.85 69.15 -188.7 68.75 -185.5 68.55 -184.35 68.5 -184.35 Q65.55 -184.7 62.4 -185.55 L59.95 -185.4 60.3 -184.95 Q61.75 -181.05 63.75 -177.5 L65.6 -173.95 64.25 -170.45 63.95 -169.75 57.0 -157.5 56.85 -157.3 56.55 -156.95 56.4 -156.75 56.4 -156.7 56.35 -156.65 56.4 -156.7 56.35 -156.6 56.35 -156.65 54.65 -161.25 54.45 -161.65 52.45 -166.15 Q49.7 -172.75 46.05 -178.9 45.95 -181.15 42.3 -185.55 30.0 -186.25 18.0 -188.6 9.85 -187.05 2.65 -188.4 L1.9 -188.5 Q-10.95 -188.65 -19.35 -195.55 L-17.7 -200.75 Q-13.8 -204.45 -6.6 -204.15 L-0.35 -204.05 -1.0 -204.15 -6.0 -205.0 -10.45 -205.85 16.45 -213.6 16.5 -213.7 44.25 -206.7 M68.75 -185.5 L68.5 -184.35 68.75 -185.5 M98.9 -36.5 L99.15 -32.35 99.15 -32.05 Q95.1 -31.7 88.45 -29.65 81.8 -27.6 74.95 -25.0 L64.8 -3.7 Q62.3 -7.05 60.55 -4.1 L59.15 -4.1 57.5 -10.55 63.4 -27.4 Q68.8 -29.4 77.6 -30.95 L90.25 -33.1 94.8 -34.0 98.9 -36.5 M-18.4 -152.9 L-18.05 -155.5 -18.05 -169.0 -18.8 -170.1 Q-19.5 -180.05 -17.0 -189.9 -16.55 -191.75 -14.65 -191.8 -5.4 -185.3 -6.75 -172.85 -8.1 -160.4 2.35 -150.15 L4.0 -149.1 4.3 -148.95 4.7 -148.75 Q10.2 -145.95 16.15 -143.8 L17.4 -143.35 21.7 -141.4 23.15 -140.45 Q25.4 -138.9 27.05 -136.9 L27.65 -136.85 Q29.55 -133.65 29.45 -131.3 28.95 -129.8 28.75 -128.25 L28.7 -127.15 28.6 -125.35 28.45 -124.8 28.45 -124.65 28.35 -124.4 28.3 -124.25 28.25 -124.0 28.25 -123.95 28.2 -123.8 28.15 -123.65 28.1 -123.55 28.05 -123.4 27.85 -122.95 27.75 -122.7 27.65 -122.5 27.6 -122.4 27.5 -122.2 27.4 -122.05 Q26.5 -116.6 18.2 -114.7 L18.1 -114.65 17.7 -114.6 17.15 -114.45 12.95 -113.95 12.7 -113.9 14.0 -115.25 Q17.3 -118.25 18.75 -122.6 L19.85 -125.4 19.2 -125.7 17.9 -126.35 Q14.45 -123.9 4.8 -127.25 L-12.95 -133.35 Q-21.05 -136.1 -25.5 -138.55 L-25.8 -138.7 -26.3 -139.5 -25.8 -138.7 -26.3 -139.5 -27.0 -140.75 -27.8 -142.4 -28.0 -142.85 -23.35 -145.0 -20.5 -144.1 -19.3 -146.9 -18.4 -152.9 M23.3 -130.65 Q22.7 -131.85 22.4 -133.15 21.7 -136.4 23.15 -140.45 21.7 -136.4 22.4 -133.15 22.7 -131.85 23.3 -130.65 M28.7 -127.15 L19.2 -125.7 28.7 -127.15 M21.7 -141.4 Q12.15 -144.45 4.3 -148.95 12.15 -144.45 21.7 -141.4 M-18.05 -169.0 L-17.85 -168.7 -17.65 -168.45 -17.5 -168.25 -17.35 -168.0 -17.2 -167.85 -17.05 -167.6 -16.9 -167.4 -16.75 -167.25 -16.6 -167.0 -16.4 -166.75 -16.2 -166.5 Q-10.6 -159.35 -3.2 -153.8 L-2.95 -153.6 2.35 -150.15 -2.95 -153.6 -3.2 -153.8 Q-10.6 -159.35 -16.2 -166.5 L-16.4 -166.75 -16.6 -167.0 -16.75 -167.25 -16.9 -167.4 -17.05 -167.6 -17.2 -167.85 -17.35 -168.0 -17.5 -168.25 -17.65 -168.45 -17.85 -168.7 -18.05 -169.0 M-2.3 -135.0 L-6.65 -136.0 -2.55 -134.95 -1.4 -134.7 -2.3 -135.0 M-21.5 -141.9 L-20.5 -144.1 -21.5 -141.9 M-108.45 -44.8 L-98.9 -42.8 -92.65 -40.95 -85.1 -38.95 -64.05 -5.7 Q-68.7 -2.3 -72.15 1.0 -80.7 -28.55 -108.45 -44.8" fill="#e0bcaa" fill-rule="evenodd" stroke="none"/>
    <path d="M41.6 -144.45 L42.7 -143.6 42.8 -143.5 44.05 -142.4 42.3 -140.55 Q29.8 -128.15 33.65 -108.05 37.3 -88.85 39.95 -95.55 L39.9 -95.35 Q38.3 -90.7 37.4 -87.35 35.9 -81.8 36.45 -79.85 35.9 -81.8 37.4 -87.35 38.3 -90.7 39.9 -95.35 L39.95 -95.55 40.05 -95.75 40.2 -96.2 Q44.8 -108.9 52.75 -112.9 59.0 -116.1 62.8 -118.35 L63.8 -117.45 63.95 -117.35 64.05 -117.25 66.0 -115.45 Q57.95 -114.6 50.35 -102.7 42.75 -90.85 40.35 -79.05 37.95 -67.25 36.95 -65.15 L36.45 -79.8 36.45 -79.85 Q27.95 -102.25 28.55 -123.4 L28.6 -125.35 28.7 -127.15 28.75 -128.25 Q28.95 -129.8 29.45 -131.3 29.55 -133.65 27.65 -136.85 L25.8 -139.5 25.1 -140.35 26.15 -140.05 26.55 -140.0 26.75 -139.95 27.45 -139.75 Q35.2 -141.15 41.6 -144.45 M49.9 -134.35 L50.05 -134.1 51.5 -131.05 57.2 -126.2 Q52.55 -128.1 49.45 -122.45 L49.35 -124.9 Q48.8 -131.95 49.9 -134.35 M89.95 -78.55 L94.15 -71.5 Q93.0 -66.75 90.65 -62.95 87.9 -67.8 89.35 -75.2 L89.95 -78.55 M108.35 -48.85 Q106.8 -42.15 98.9 -36.5 L94.8 -34.0 90.25 -33.1 77.6 -30.95 Q68.8 -29.4 63.4 -27.4 59.3 -26.7 54.6 -25.2 52.55 -46.25 53.35 -77.0 54.55 -85.2 56.95 -92.15 L57.85 -94.7 Q58.1 -58.05 65.7 -37.55 87.0 -35.65 108.35 -48.85 M80.2 10.6 L80.25 10.8 80.15 11.55 Q79.05 17.1 76.25 18.4 L76.2 19.7 73.85 25.8 73.2 26.3 71.25 27.2 71.45 27.65 71.7 28.1 Q70.6 33.4 67.3 37.15 66.65 37.9 66.65 36.55 66.7 24.65 64.4 13.0 L63.9 10.55 64.1 11.05 67.1 18.4 67.3 18.8 67.5 19.3 67.7 19.8 67.85 20.1 68.1 20.7 68.35 21.2 68.8 20.8 68.95 20.1 68.95 19.9 69.0 19.7 Q70.15 17.75 72.35 16.7 L72.65 12.8 Q72.85 10.7 72.15 8.7 72.1 8.5 72.2 8.25 73.05 7.85 74.45 9.9 75.85 11.9 77.4 12.65 L80.2 10.6 M82.1 48.55 L82.4 49.15 87.0 58.05 86.35 59.1 Q74.3 63.95 65.4 72.1 L65.1 72.2 61.5 74.35 Q68.55 67.05 74.45 59.05 L82.1 48.55 M33.8 299.6 L37.45 308.1 38.0 309.45 34.35 309.15 Q25.8 313.15 23.2 323.6 L21.35 330.35 19.75 329.9 17.95 329.35 17.2 329.1 16.85 329.0 16.85 328.25 16.5 324.55 16.45 324.3 16.4 324.0 16.4 323.85 15.8 321.35 15.7 320.85 16.85 318.6 19.1 313.75 19.15 313.65 19.6 312.1 20.7 305.4 21.25 300.1 21.35 298.65 Q23.85 297.85 28.95 298.65 L30.35 298.85 32.3 299.25 33.25 299.45 33.8 299.6 M-41.8 336.1 Q-42.25 333.55 -42.1 330.45 L-42.05 330.3 -42.0 330.1 -41.35 328.2 -41.3 328.1 -41.25 328.0 Q-40.0 325.0 -37.5 321.75 L-33.0 316.65 Q-29.5 314.65 -25.85 313.25 L-25.65 313.15 -23.5 312.4 -21.5 311.75 -0.4 311.3 Q2.7 311.0 6.1 311.15 L8.25 311.45 8.7 311.6 6.6 312.1 Q-19.5 315.75 -30.15 336.1 L-41.8 336.1 M-69.9 82.85 Q-79.0 83.15 -90.1 77.0 -87.75 63.45 -79.4 45.65 L-80.35 54.3 Q-81.8 69.0 -71.2 74.75 -60.65 80.45 -53.9 80.3 L-55.9 80.7 -58.25 81.15 -58.9 81.3 Q-64.8 82.7 -69.9 82.85 M-71.55 30.4 Q-72.95 29.15 -73.75 27.55 L-74.4 25.9 -74.55 25.85 -75.05 25.7 -75.5 25.55 -76.7 25.05 -76.9 24.95 Q-79.45 23.7 -80.95 21.95 -82.5 20.15 -82.85 17.85 L-82.9 17.65 -82.9 17.5 -82.9 17.4 -82.9 17.3 -82.95 17.15 -82.95 17.05 -82.95 16.95 -82.95 16.85 -82.05 14.1 -81.0 11.8 Q-79.95 9.75 -78.3 7.65 -76.85 9.55 -76.7 13.15 -76.3 20.25 -70.15 16.0 -65.5 12.75 -67.4 18.15 -68.45 21.1 -68.95 24.1 -60.95 27.9 -54.65 19.3 -50.4 13.55 -45.7 8.6 L-45.6 10.15 -46.35 12.1 -47.55 14.95 -49.7 19.35 Q-55.55 29.8 -63.9 32.8 L-64.75 33.1 -66.05 33.45 -67.25 33.0 -67.35 32.95 -67.75 32.8 -67.9 32.75 Q-70.05 31.75 -71.55 30.4 M-114.9 -45.9 L-122.55 -50.25 -119.6 -56.1 Q-112.35 -71.45 -105.05 -83.6 L-105.3 -81.9 Q-108.2 -63.3 -113.15 -45.6 L-114.9 -45.9 M-76.05 -119.2 L-75.05 -119.95 Q-71.4 -121.6 -67.9 -121.45 -66.95 -121.8 -49.15 -116.05 -28.55 -109.4 -12.95 -91.55 L-10.15 -88.25 -10.7 -88.95 Q-9.35 -103.05 -18.55 -118.4 -27.8 -133.8 -30.45 -136.9 -34.5 -141.6 -32.75 -146.8 L-32.6 -146.95 Q-34.35 -147.25 -35.4 -147.9 L-34.9 -148.2 Q-30.2 -151.1 -26.6 -151.65 L-26.15 -151.75 -26.1 -151.7 -18.4 -152.9 -19.3 -146.9 -23.35 -145.0 -28.0 -142.85 -27.8 -142.4 -27.0 -140.75 -26.3 -139.5 -25.8 -138.7 Q-23.5 -135.15 -19.15 -130.35 L-17.3 -128.1 Q-15.9 -126.2 -14.65 -123.9 -11.25 -117.6 -8.9 -108.3 L-8.3 -105.65 -8.2 -105.3 -7.65 -102.55 -7.4 -101.15 Q-5.85 -92.35 -5.05 -81.35 L-5.05 -81.3 -4.9 -79.55 Q-4.35 -73.2 -3.95 -66.2 L-11.7 -80.65 Q-17.9 -92.3 -33.65 -103.45 -49.45 -114.6 -61.05 -117.55 -72.7 -120.55 -76.05 -119.2 M-57.75 -133.55 L-55.3 -134.4 -55.0 -134.5 -52.15 -135.25 -47.35 -138.85 -39.05 -130.15 -43.05 -130.7 Q-55.55 -132.35 -57.75 -133.55 M33.7 -138.3 Q30.65 -135.05 29.45 -131.3 30.65 -135.05 33.7 -138.3 M59.15 -4.1 L60.55 -4.1 61.0 -4.1 62.75 -4.0 64.8 -3.7 65.35 0.3 Q66.2 5.4 65.2 9.65 L64.85 9.15 62.3 6.05 Q60.55 1.0 59.15 -4.1 M52.4 42.15 Q56.7 45.35 62.1 45.5 70.65 45.75 77.7 45.35 L77.8 45.55 Q72.0 51.85 64.25 50.5 56.5 49.1 54.5 45.5 52.45 41.8 51.85 42.4 L51.4 42.75 51.8 42.3 52.0 42.25 52.4 42.2 52.4 42.15 M73.85 25.8 L73.2 26.3 73.85 25.8 M71.7 28.1 L71.45 27.65 71.7 28.1 M71.25 27.2 L68.35 21.2 71.25 27.2 M-28.0 -142.85 Q-29.0 -145.55 -28.0 -146.95 L-25.15 -148.45 -28.0 -146.95 Q-29.0 -145.55 -28.0 -142.85 M-64.3 -34.3 Q-57.75 -56.3 -44.85 -75.45 L-38.95 -84.4 Q-38.1 -85.65 -36.65 -85.7 -39.85 -74.5 -46.05 -60.8 -51.75 -48.35 -52.05 -39.15 -55.2 -22.2 -55.85 -15.7 -56.5 -9.25 -55.5 -3.75 L-55.2 -2.4 Q-56.9 -4.6 -60.35 -6.3 -59.35 -14.45 -59.6 -21.9 -59.85 -28.15 -61.0 -33.9 L-64.1 -34.25 -64.3 -34.3 M-54.4 -1.15 L-54.35 -0.95 Q-53.85 0.1 -53.7 1.25 L-53.7 1.55 Q-52.15 2.15 -50.9 2.8 L-50.8 2.9 Q-51.5 5.55 -54.45 8.25 -56.25 9.9 -56.95 7.85 -58.5 3.3 -55.1 -0.5 L-54.4 -1.15 M-45.8 12.5 L-40.15 7.9 Q-38.15 9.35 -37.15 11.0 -34.05 16.3 -42.15 23.1 L-43.3 24.15 -39.8 17.95 -39.4 17.1 -37.5 11.95 -37.15 11.0 -37.5 11.95 -39.4 17.1 -45.8 12.5 M-61.0 -33.9 Q-58.45 -53.9 -42.15 -79.15 L-41.95 -79.65 -41.9 -79.65 -40.95 -80.7 -41.9 -79.65 -41.95 -79.65 -42.15 -79.15 Q-58.45 -53.9 -61.0 -33.9 M-10.15 -88.25 L-6.35 -83.2 -5.45 -81.95 -5.05 -81.35 -5.45 -81.95 -6.35 -83.2 -10.15 -88.25 M-17.4 40.5 L-18.7 41.95 -18.2 40.85 -17.8 40.6 -17.4 40.5 M-63.45 34.7 L-62.85 36.65 -62.85 36.75 Q-61.4 40.9 -59.5 41.9 L-54.75 38.1 -52.95 36.45 Q-60.05 45.3 -69.7 50.45 -71.15 51.2 -72.3 48.7 -73.5 46.2 -68.5 41.9 -63.6 37.6 -63.65 33.95 L-63.45 34.7 M-70.85 47.05 L-64.15 44.5 -64.1 44.45 Q-61.25 43.15 -59.5 41.9 -61.25 43.15 -64.1 44.45 L-64.15 44.5 -70.85 47.05 M-27.95 53.4 Q-33.3 59.4 -43.2 60.8 -53.1 62.15 -57.0 55.8 -42.15 58.4 -30.6 50.7 L-19.6 42.85 Q-22.6 47.45 -27.95 53.4" fill="#3572b4" fill-rule="evenodd" stroke="none"/>
    <path d="M28.55 -123.4 Q27.95 -102.25 36.45 -79.85 L36.45 -79.8 36.95 -65.15 Q38.0 -41.35 40.65 -12.45 L40.65 -12.1 41.25 -5.5 Q45.15 43.55 34.35 66.7 L33.4 66.9 33.4 66.85 Q21.5 69.15 7.6 68.45 L7.45 68.2 5.2 63.8 4.5 62.25 5.2 63.8 4.5 62.25 29.9 61.5 32.05 54.5 Q11.45 61.35 0.75 51.15 L0.6 50.6 -0.05 47.8 -0.25 46.95 Q1.05 52.25 15.4 52.2 29.85 52.1 31.9 49.0 L32.1 54.3 33.4 49.8 Q36.8 38.1 35.1 2.2 33.4 -33.75 30.3 -63.5 27.2 -93.3 19.45 -110.4 18.45 -112.6 17.9 -114.6 L18.1 -114.65 18.2 -114.7 Q26.5 -116.6 27.4 -122.05 L27.5 -122.2 27.6 -122.4 27.65 -122.5 27.75 -122.7 27.85 -122.95 28.05 -123.4 28.1 -123.55 28.15 -123.65 28.2 -123.8 28.25 -123.95 28.55 -123.4 M-8.9 -108.3 Q-3.3 -106.5 0.35 -104.95 3.95 -103.45 17.5 -99.9 L17.6 -99.55 17.65 -98.5 17.5 -97.75 Q0.55 -98.6 -3.45 -100.4 L-7.6 -102.2 -7.65 -102.55 -8.2 -105.3 -8.3 -105.65 -8.9 -108.3 M-3.45 -55.55 Q3.4 -37.15 11.5 -16.65 19.55 3.8 25.35 12.5 15.8 5.55 8.05 -9.1 0.25 -23.7 -3.15 -45.55 L-3.45 -55.55 M30.6 46.9 Q31.35 47.2 31.65 47.95 L31.85 48.45 Q31.6 47.8 30.6 46.9" fill="#070a0e" fill-rule="evenodd" stroke="none"/>
    <path d="M65.1 72.25 L67.4 85.1 Q55.9 79.0 39.0 77.65 22.1 76.3 22.15 71.65 L-12.95 76.2 Q-33.1 81.25 -44.8 86.9 -44.5 91.1 -45.3 95.95 -51.6 133.15 -44.55 170.2 -42.1 183.15 -38.6 195.2 -36.4 202.95 -33.3 208.15 -38.0 204.2 -45.65 200.35 -41.4 250.25 -38.9 270.4 -36.4 290.55 -39.35 308.8 -13.65 299.6 -2.05 301.95 9.55 304.25 19.1 313.75 L16.85 318.6 15.15 318.4 Q13.4 312.7 9.05 311.65 L8.25 311.45 6.1 311.15 Q2.7 311.0 -0.4 311.3 L-21.5 311.75 -23.5 312.4 -25.65 313.15 -25.85 313.25 Q-29.5 314.65 -33.0 316.65 L-37.5 321.75 Q-40.0 325.0 -41.25 328.0 L-41.3 328.1 -41.35 328.2 -42.0 330.1 -42.05 330.3 -42.1 330.45 -42.45 332.3 -42.55 333.45 Q-50.2 331.55 -51.65 313.3 -50.55 222.5 -63.7 141.4 -66.4 123.9 -68.0 108.6 L-69.55 91.2 -69.9 82.85 Q-64.8 82.7 -58.9 81.3 L-58.25 81.15 -55.9 80.7 -53.9 80.3 -49.5 79.4 Q-27.0 74.85 -13.9 73.6 L-12.2 73.45 -7.85 73.15 Q3.6 72.65 7.6 68.45 21.5 69.15 33.4 66.85 L33.4 66.9 34.35 66.7 Q32.4 70.85 29.95 74.15 L40.4 76.6 50.65 77.5 Q55.5 77.55 61.5 74.35 L65.1 72.2 65.1 72.25 M49.65 295.3 L49.65 295.9 49.7 301.5 49.7 301.8 Q42.65 301.65 33.8 299.6 L33.25 299.45 32.3 299.25 30.35 298.85 28.95 298.65 Q23.85 297.85 21.35 298.65 L21.55 294.9 21.6 290.65 22.85 289.0 Q24.55 287.2 22.85 285.6 43.3 299.75 49.65 295.3 M18.2 83.9 L18.1 83.9 Q14.15 84.9 9.0 85.5 14.15 84.9 18.1 83.9 L18.2 83.9 18.3 83.85 Q22.45 82.85 20.85 90.35 19.3 97.8 19.75 110.7 20.15 123.55 20.7 128.05 21.25 132.55 21.8 133.4 22.3 134.2 28.55 162.3 34.75 190.35 39.6 192.75 L27.4 189.1 Q27.0 193.75 24.3 199.0 19.7 208.0 13.8 215.75 L11.95 199.55 13.8 215.75 12.95 216.85 Q12.75 209.25 11.95 199.55 L11.4 194.15 18.95 180.1 19.15 179.7 19.25 179.45 19.7 178.65 20.45 177.2 4.6 133.2 4.6 106.6 4.6 133.2 8.45 167.4 Q7.4 165.0 6.9 162.1 2.2 134.1 4.6 106.6 5.4 97.25 7.05 88.0 7.35 86.45 9.0 85.5 9.6 85.15 10.35 84.9 13.3 83.95 15.95 83.45 L18.2 83.9 M19.15 313.65 Q20.1 305.25 20.7 305.4 L19.6 312.1 19.15 313.65" fill="#182538" fill-rule="evenodd" stroke="none"/>
    <path d="M46.45 -206.15 L44.25 -206.7 16.5 -213.7 M16.45 -213.6 L-10.45 -205.85 -16.6 -204.1 -17.7 -200.75 -19.35 -195.55 -24.1 -180.8 -20.8 -173.5 -20.45 -172.7 -20.8 -173.25 M56.35 -156.65 L56.4 -156.7 56.4 -156.75 56.55 -156.95 56.85 -157.3 57.0 -157.5 63.95 -169.75 64.25 -170.45 65.6 -173.95 66.2 -175.75 Q67.75 -180.4 68.5 -184.35 L68.75 -185.5 69.15 -188.7 69.15 -188.85 69.15 -189.15 Q69.4 -193.25 68.6 -196.35 L68.6 -196.45 Q67.8 -199.2 66.2 -201.2 L59.4 -202.9 46.45 -206.15 M56.35 -156.65 L56.2 -156.5 55.8 -156.0 55.65 -155.8 55.45 -155.6 55.3 -155.35 55.2 -155.3 55.1 -155.15 Q49.35 -148.45 41.6 -144.45 L42.7 -143.6 42.8 -143.5 44.05 -142.4 45.65 -140.7 Q48.0 -137.95 49.9 -134.35 L50.05 -134.1 51.5 -131.05 57.2 -126.2 64.8 -119.65 62.8 -118.35 63.8 -117.45 63.95 -117.35 64.05 -117.25 66.0 -115.45 Q76.35 -105.9 80.25 -98.05 L83.25 -91.3 Q86.55 -84.55 89.95 -78.55 L94.15 -71.5 Q101.15 -60.45 108.7 -52.2 108.7 -50.5 108.35 -48.85 106.8 -42.15 98.9 -36.5 L99.15 -32.35 Q98.9 -24.9 93.95 -16.65 L79.45 7.6 80.2 10.6 80.25 10.8 80.15 11.55 Q79.05 17.1 76.25 18.4 L76.2 19.7 Q75.85 23.65 74.6 25.05 L73.85 25.8 73.2 26.3 71.25 27.2 71.45 27.65 71.7 28.1 82.1 48.55 M82.4 49.15 L87.0 58.05 87.3 58.65 87.25 58.75 86.35 59.1 Q74.3 63.95 65.4 72.1 L65.1 72.25 67.4 85.1 79.75 155.1 Q88.9 190.55 79.15 203.95 62.0 235.0 55.5 255.8 49.9 273.65 49.65 294.9 M49.65 294.95 L49.65 295.3 49.65 295.9 49.7 301.5 49.7 301.8 Q42.65 301.65 33.8 299.6 L37.45 308.1 37.7 308.7 M37.8 308.95 L43.7 322.8 Q44.65 327.05 43.9 330.35 42.65 335.6 37.05 338.5 24.95 339.45 16.75 334.75 L16.6 336.1 Q15.95 340.2 14.35 343.15 L-38.75 343.15 Q-41.1 340.45 -41.8 336.1 -42.25 333.55 -42.1 330.45 L-42.45 332.3 -42.55 333.45 Q-50.2 331.55 -51.65 313.3 -50.55 222.5 -63.7 141.4 -66.4 123.9 -68.0 108.6 L-69.55 91.2 -69.9 82.85 Q-79.0 83.15 -90.1 77.0 -87.75 63.45 -79.4 45.65 L-78.7 44.25 Q-75.55 37.6 -71.55 30.4 -72.95 29.15 -73.75 27.55 L-74.4 25.9 -74.55 25.85 -75.05 25.7 -75.5 25.55 -76.7 25.05 -76.9 24.95 Q-79.45 23.7 -80.95 21.95 -82.5 20.15 -82.85 17.85 L-82.9 17.65 -82.9 17.5 -82.9 17.4 -82.9 17.3 -82.95 17.15 -82.95 17.05 -82.95 16.95 -82.95 16.85 -82.05 14.1 -81.0 11.8 -109.8 -18.9 Q-123.05 -34.0 -115.8 -44.65 L-115.7 -44.8 -115.35 -45.3 -114.9 -45.9 -122.55 -50.25 -119.6 -56.1 Q-112.35 -71.45 -105.05 -83.6 -90.55 -107.8 -76.05 -119.2 L-75.05 -119.95 -75.5 -119.8 -74.15 -121.45 -73.3 -122.45 Q-66.45 -130.2 -57.75 -133.55 L-55.3 -134.4 -55.0 -134.5 -52.15 -135.25 -47.35 -138.85 -45.8 -140.1 -41.35 -143.65 -35.4 -147.9 -34.9 -148.2 Q-30.2 -151.1 -26.6 -151.65 L-26.15 -151.75 M-26.1 -151.7 L-18.4 -152.9 -18.05 -155.5 -18.05 -169.0 -18.8 -170.1 -20.45 -172.7 M2.35 -150.15 L4.0 -149.1 M21.7 -141.4 L23.3 -140.9 25.1 -140.35 26.15 -140.05 26.55 -140.0 26.75 -139.95 27.45 -139.75 Q35.2 -141.15 41.6 -144.45 M23.15 -140.45 L23.3 -140.9 M27.65 -136.85 L25.8 -139.5 25.1 -140.35 M27.65 -136.85 Q29.55 -133.65 29.45 -131.3 30.65 -135.05 33.7 -138.3 M23.15 -140.45 Q21.7 -136.4 22.4 -133.15 22.7 -131.85 23.3 -130.65 M29.45 -131.3 Q28.95 -129.8 28.75 -128.25 L28.7 -127.15 28.6 -125.35 28.55 -123.4 Q27.95 -102.25 36.45 -79.85 35.9 -81.8 37.4 -87.35 38.3 -90.7 39.9 -95.35 L39.95 -95.55 40.05 -95.75 40.2 -96.2 Q44.8 -108.9 52.75 -112.9 59.0 -116.1 62.8 -118.35 M28.25 -123.95 L28.25 -124.0 28.3 -124.25 28.35 -124.4 28.45 -124.65 28.45 -124.8 28.6 -125.35 M18.1 -114.65 L18.2 -114.7 Q26.5 -116.6 27.4 -122.05 L27.5 -122.2 27.6 -122.4 27.65 -122.5 27.75 -122.7 27.85 -122.95 28.05 -123.4 28.1 -123.55 28.15 -123.65 28.2 -123.8 28.25 -123.95 M12.95 -113.95 L17.15 -114.45 17.7 -114.6 18.1 -114.65 M-0.05 47.8 L0.6 50.6 0.75 51.15 Q2.35 57.2 4.5 62.25 L5.2 63.8 7.45 68.2 7.6 68.45 Q21.5 69.15 33.4 66.85 L33.4 66.9 34.35 66.7 Q45.15 43.55 41.25 -5.5 L40.65 -12.1 40.65 -12.45 Q38.0 -41.35 36.95 -65.15 L36.45 -79.8 36.45 -79.85 M19.2 -125.7 L28.7 -127.15 M19.2 -125.7 L17.7 -125.5 16.35 -121.45 M-7.65 -102.55 L-7.4 -101.15 Q-5.85 -92.35 -5.05 -81.35 L-5.05 -81.3 -4.9 -79.55 Q-4.35 -73.2 -3.95 -66.2 L-3.45 -55.55 -3.15 -45.55 Q-2.8 -32.6 -2.8 -18.0 -5.7 22.95 -0.05 47.8 M-14.65 -123.9 Q-12.45 -121.25 -9.5 -119.3 L-9.35 -119.15 Q-0.5 -113.85 6.1 -113.75 9.7 -113.7 12.7 -113.9 M-17.3 -128.1 L0.8 -125.3 4.45 -121.05 M4.3 -148.95 Q12.15 -144.45 21.7 -141.4 M57.85 -94.7 L56.95 -92.15 Q54.55 -85.2 53.35 -77.0 52.55 -46.25 54.6 -25.2 59.3 -26.7 63.4 -27.4 68.8 -29.4 77.6 -30.95 L90.25 -33.1 94.8 -34.0 98.9 -36.5 M58.75 -96.9 L57.85 -94.7 M53.35 -77.0 Q51.6 -65.7 52.2 -52.05 52.85 -41.0 54.15 -28.2 L54.6 -25.2 54.45 -25.1 54.15 -28.2 M57.5 -10.55 L59.15 -4.1 60.55 -4.1 61.0 -4.1 62.75 -4.0 64.8 -3.7 Q75.65 -1.9 79.45 7.6 M65.2 9.65 Q69.4 15.55 68.95 19.9 L68.95 20.1 68.8 20.8 68.35 21.2 71.25 27.2 M54.6 -25.2 Q55.75 -17.75 57.5 -10.55 L63.4 -27.4 M62.3 6.05 L64.1 11.05 67.1 18.4 67.3 18.8 67.5 19.3 67.7 19.8 67.85 20.1 68.1 20.7 68.35 21.2 M62.3 6.05 L64.85 9.15 M34.35 66.7 Q32.4 70.85 29.95 74.15 L40.4 76.6 50.65 77.5 Q55.5 77.55 61.5 74.35 L65.1 72.2 65.1 72.25 M9.0 85.5 Q14.15 84.9 18.1 83.9 L18.2 83.9 18.3 83.85 Q21.55 82.95 23.9 81.85 M4.6 106.6 L4.6 133.2 20.45 177.2 19.7 178.65 19.25 179.45 19.15 179.7 M18.95 180.1 L11.4 194.15 11.95 199.55 13.8 215.75 20.85 279.0 20.85 279.1 21.45 284.65 21.6 289.8 21.6 290.65 21.55 294.9 21.35 298.65 Q23.85 297.85 28.95 298.65 L30.35 298.85 32.3 299.25 33.25 299.45 33.8 299.6 M4.6 106.6 L4.6 85.9 4.6 82.95 M4.6 85.9 L9.0 85.5 M19.1 313.75 L19.15 313.65 19.6 312.1 20.7 305.4 21.25 300.1 21.35 298.65 M65.4 72.1 L65.1 72.2 M11.4 194.15 L8.45 167.4 4.6 133.2 M8.25 311.45 L9.05 311.65 Q13.4 312.7 15.15 318.4 L15.7 320.85 16.85 318.6 19.1 313.75 M-30.15 336.1 L16.6 336.1 M-42.1 330.45 L-42.05 330.3 -42.0 330.1 -41.35 328.2 -41.3 328.1 -41.25 328.0 Q-40.0 325.0 -37.5 321.75 L-33.0 316.65 Q-29.5 314.65 -25.85 313.25 L-25.65 313.15 -23.5 312.4 -21.5 311.75 -0.4 311.3 Q2.7 311.0 6.1 311.15 L8.25 311.45 M15.7 320.85 L15.8 321.35 16.4 323.85 16.4 324.0 16.45 324.3 16.5 324.55 16.85 328.25 16.85 329.0 17.2 329.1 17.95 329.35 19.75 329.9 21.35 330.35 Q35.2 333.85 43.9 330.35 M16.75 334.75 Q17.0 332.1 16.85 329.0 M59.15 -4.1 Q60.55 1.0 62.3 6.05 M2.35 -150.15 L-2.95 -153.6 -3.2 -153.8 Q-10.6 -159.35 -16.2 -166.5 L-16.4 -166.75 -16.6 -167.0 -16.75 -167.25 -16.9 -167.4 -17.05 -167.6 -17.2 -167.85 -17.35 -168.0 -17.5 -168.25 -17.65 -168.45 -17.85 -168.7 -18.05 -169.0 M-74.15 -121.45 L-75.05 -119.95 Q-71.4 -121.6 -67.9 -121.45 -66.95 -121.8 -49.15 -116.05 -28.55 -109.4 -12.95 -91.55 L-10.15 -88.25 -6.35 -83.2 -5.45 -81.95 -5.05 -81.35 M-17.3 -128.1 Q-15.9 -126.2 -14.65 -123.9 -11.25 -117.6 -8.9 -108.3 L-8.3 -105.65 -8.2 -105.3 -7.65 -102.55 M-25.8 -138.7 Q-23.5 -135.15 -19.15 -130.35 L-17.3 -128.1 M-20.5 -144.1 L-19.3 -146.9 -23.35 -145.0 -28.0 -142.85 -27.8 -142.4 M-27.0 -140.75 L-26.3 -139.5 -25.8 -138.7 M-25.15 -148.45 L-28.0 -146.95 Q-29.0 -145.55 -28.0 -142.85 M-20.5 -144.1 L-21.5 -141.9 M-19.3 -146.9 L-18.4 -152.9 M-113.15 -45.6 L-108.45 -44.8 -98.9 -42.8 -92.65 -40.95 -85.1 -38.95 -68.0 -34.95 -64.3 -34.3 -64.1 -34.25 -61.0 -33.9 Q-59.85 -28.15 -59.6 -21.9 -59.35 -14.45 -60.35 -6.3 -56.9 -4.6 -55.2 -2.4 L-54.4 -1.15 M-54.35 -0.95 Q-53.85 0.1 -53.7 1.25 L-53.7 1.55 Q-52.15 2.15 -50.9 2.8 -46.4 5.2 -45.7 8.6 L-45.6 10.15 -46.35 12.1 -45.8 12.5 -39.4 17.1 -39.8 17.95 -43.3 24.15 -45.5 27.95 -45.75 28.3 -45.8 28.4 Q-49.0 32.65 -52.95 36.45 L-54.75 38.1 -59.5 41.9 Q-61.25 43.15 -64.1 44.45 L-64.15 44.5 -70.85 47.05 M-37.15 11.0 L-37.0 10.45 M-114.9 -45.9 L-113.15 -45.6 M-40.95 -80.7 L-41.9 -79.65 -41.95 -79.65 -42.15 -79.15 Q-58.45 -53.9 -61.0 -33.9 M-60.35 -6.3 L-62.2 -7.1 -62.35 -7.0 -64.05 -5.7 Q-68.7 -2.3 -72.15 1.0 L-73.15 1.9 -77.0 6.0 -78.3 7.65 Q-79.95 9.75 -81.0 11.8 M-64.05 -5.7 L-85.1 -38.95 M-37.15 11.0 L-37.5 11.95 -39.4 17.1 M-63.9 32.8 Q-55.55 29.8 -49.7 19.35 L-47.55 14.95 -46.35 12.1 M-71.55 30.4 Q-70.05 31.75 -67.9 32.75 L-67.75 32.8 -67.35 32.95 -67.25 33.0 -66.05 33.45 -64.75 33.1 -63.9 32.8 -63.8 33.25 -63.45 34.7 -62.85 36.65 -62.85 36.75 Q-61.4 40.9 -59.5 41.9 M-53.9 80.3 L-49.5 79.4 Q-27.0 74.85 -13.9 73.6 L-12.2 73.45 -7.85 73.15 -7.95 72.55 M-69.9 82.85 Q-64.8 82.7 -58.9 81.3 L-58.25 81.15 -55.9 80.7 -53.9 80.3 M-41.8 336.1 L-30.15 336.1 M7.6 68.45 Q3.6 72.65 -7.85 73.15" fill="none" stroke="#1a5283" stroke-linecap="round" stroke-linejoin="round" stroke-width="2.0"/>
    <path d="M-1.1 -179.9 Q5.75 -180.95 3.7 -176.0 3.15 -174.7 1.7 -174.6 -2.75 -174.25 -2.95 -177.75 -3.1 -179.7 -1.1 -179.9" fill="#fffce9" fill-rule="evenodd" stroke="none"/>
    <path d="M17.8 -220.3 L16.45 -221.95 Q-2.55 -241.25 -24.8 -255.75 -39.5 -265.3 -52.65 -276.3 L-51.2 -277.75 17.6 -249.05 17.8 -220.3 M-57.05 -272.05 Q-45.45 -257.8 -28.15 -248.45 -23.45 -245.9 -19.65 -242.35 -4.25 -227.9 12.1 -213.75 14.35 -211.8 15.95 -211.95 5.05 -201.05 -9.7 -195.75 -8.05 -180.35 -0.95 -169.1 -12.1 -172.85 -19.0 -180.05 -15.3 -160.3 -1.15 -144.7 -40.3 -168.95 -32.15 -234.2 -41.5 -218.95 -45.2 -205.7 -63.95 -198.6 -84.25 -200.4 L-84.7 -200.15 Q-78.7 -203.25 -71.7 -209.6 -84.45 -207.4 -96.05 -211.8 -83.9 -219.0 -73.2 -232.55 -68.5 -238.5 -64.05 -245.65 L-68.7 -245.3 Q-82.75 -245.0 -93.8 -255.25 -76.15 -254.65 -57.05 -272.05 M-29.65 -238.2 L-32.15 -234.2 -29.65 -238.2 M-60.6 -246.3 L-64.05 -245.65 -63.65 -246.1 -64.05 -245.65 -60.6 -246.3 M-53.05 -216.05 Q-62.65 -211.15 -71.7 -209.6 -62.65 -211.15 -53.05 -216.05 M-9.25 -220.65 Q-10.95 -207.05 -9.7 -195.75 -10.95 -207.05 -9.25 -220.65 M-29.35 -201.25 Q-27.0 -188.35 -19.0 -180.05 -27.0 -188.35 -29.35 -201.25" fill="#132a4c" fill-rule="evenodd" stroke="none"/>
    <path d="M-52.65 -276.3 Q-39.5 -265.3 -24.8 -255.75 -2.55 -241.25 16.45 -221.95 L17.8 -220.3 17.8 -213.95 15.95 -211.95 Q14.35 -211.8 12.1 -213.75 -4.25 -227.9 -19.65 -242.35 -23.45 -245.9 -28.15 -248.45 -45.45 -257.8 -57.05 -272.05 L-56.8 -272.25 -54.85 -274.1 -52.65 -276.3 M74.05 -170.25 Q73.45 -166.85 72.3 -163.7 73.45 -166.85 74.05 -170.25 M72.3 -163.7 Q66.65 -148.55 49.8 -142.85 63.05 -160.4 69.05 -187.85 L82.9 -178.45 Q83.9 -158.5 74.4 -144.45 75.05 -150.7 72.3 -163.7 M-84.7 -200.15 L-84.25 -200.4 Q-63.95 -198.6 -45.2 -205.7 -41.5 -218.95 -32.15 -234.2 -40.3 -168.95 -1.15 -144.7 -22.05 -150.05 -35.15 -166.0 L-31.25 -154.35 Q-38.7 -160.85 -42.75 -168.45 -39.7 -158.35 -45.15 -150.55 -46.6 -162.4 -53.6 -174.9 -57.05 -165.3 -67.1 -160.65 -60.7 -173.15 -59.6 -192.6 L-59.55 -193.9 Q-75.0 -190.5 -91.25 -197.75 L-90.2 -198.0 -87.7 -198.8 -84.7 -200.15 M-50.1 -197.05 Q-54.8 -194.95 -59.55 -193.9 -54.8 -194.95 -50.1 -197.05 M-64.05 -245.65 Q-68.5 -238.5 -73.2 -232.55 -80.05 -231.3 -87.6 -237.85 -77.8 -239.15 -68.7 -245.3 L-64.05 -245.65 M-40.35 -207.6 Q-46.15 -181.8 -35.25 -166.1 L-35.15 -166.0 -35.25 -166.1 Q-46.15 -181.8 -40.35 -207.6 M-45.2 -205.7 Q-46.65 -200.65 -47.25 -195.85 -49.2 -180.6 -42.75 -168.45 -49.2 -180.6 -47.25 -195.85 -46.65 -200.65 -45.2 -205.7 M-52.4 -179.65 Q-52.85 -177.15 -53.6 -174.9 -52.85 -177.15 -52.4 -179.65" fill="#091425" fill-rule="evenodd" stroke="none"/>
    <path d="M17.8 -220.3 L17.6 -249.05 -51.2 -277.75 -52.65 -276.3 M-54.85 -274.1 L-56.8 -272.25 M15.95 -211.95 L17.8 -213.95 17.8 -220.3 M72.3 -163.7 Q73.45 -166.85 74.05 -170.25 M72.3 -163.7 Q75.05 -150.7 74.4 -144.45 83.9 -158.5 82.9 -178.45 L69.05 -187.85 Q63.05 -160.4 49.8 -142.85 66.65 -148.55 72.3 -163.7 M-45.2 -205.7 Q-41.5 -218.95 -32.15 -234.2 L-29.65 -238.2 M-84.7 -200.15 L-87.7 -198.8 -90.2 -198.0 -91.25 -197.75 Q-75.0 -190.5 -59.55 -193.9 -54.8 -194.95 -50.1 -197.05 M-71.7 -209.6 Q-62.65 -211.15 -53.05 -216.05 M-63.65 -246.1 L-64.05 -245.65 -60.6 -246.3 M-64.05 -245.65 Q-68.5 -238.5 -73.2 -232.55 -83.9 -219.0 -96.05 -211.8 -84.45 -207.4 -71.7 -209.6 -78.7 -203.25 -84.7 -200.15 M-68.7 -245.3 L-64.05 -245.65 M-57.05 -272.05 Q-76.15 -254.65 -93.8 -255.25 -82.75 -245.0 -68.7 -245.3 -77.8 -239.15 -87.6 -237.85 -80.05 -231.3 -73.2 -232.55 M-19.0 -180.05 Q-12.1 -172.85 -0.95 -169.1 -8.05 -180.35 -9.7 -195.75 -10.95 -207.05 -9.25 -220.65 M-42.75 -168.45 Q-38.7 -160.85 -31.25 -154.35 L-35.15 -166.0 -35.25 -166.1 Q-46.15 -181.8 -40.35 -207.6 M-53.6 -174.9 Q-46.6 -162.4 -45.15 -150.55 -39.7 -158.35 -42.75 -168.45 -49.2 -180.6 -47.25 -195.85 -46.65 -200.65 -45.2 -205.7 M-59.55 -193.9 L-59.6 -192.6 Q-60.7 -173.15 -67.1 -160.65 -57.05 -165.3 -53.6 -174.9 -52.85 -177.15 -52.4 -179.65 M-1.15 -144.7 Q-15.3 -160.3 -19.0 -180.05 -27.0 -188.35 -29.35 -201.25 M-35.15 -166.0 Q-22.05 -150.05 -1.15 -144.7 M-9.7 -195.75 Q5.05 -201.05 15.95 -211.95" fill="none" stroke="#1a5283" stroke-linecap="round" stroke-linejoin="round" stroke-width="2.0"/>
  </g>
</svg>
