<?xml version="1.0" encoding="UTF-8" standalone="no"?>
<svg xmlns:xlink="http://www.w3.org/1999/xlink" height="624.55px" width="229.55px" xmlns="http://www.w3.org/2000/svg">
  <g transform="matrix(1.0, 0.0, 0.0, 1.0, 119.35, 280.4)">
    <path d="M63.95 -117.35 L64.05 -117.25 63.95 -117.35 M-75.05 25.7 L-75.5 25.55 -75.05 25.7 M-20.45 -172.7 L-20.8 -173.25 -20.8 -173.5 -20.45 -172.7 M54.15 -28.2 L54.6 -25.2 54.45 -25.1 54.15 -28.2 M-90.8 -204.8 L-90.1 -204.3 -90.85 -204.8 -90.8 -204.8" fill="#cccccc" fill-rule="evenodd" stroke="none"/>
    <path d="M43.25 -206.95 L66.2 -201.2 Q67.85 -199.15 68.6 -196.35 L68.9 -195.1 Q63.05 -188.95 52.15 -189.05 60.15 -182.1 65.2 -172.9 L65.0 -172.3 64.25 -170.45 63.95 -169.75 58.05 -159.3 57.25 -160.55 Q49.8 -172.7 43.4 -184.7 L27.45 -186.55 28.4 -184.95 Q30.55 -180.75 14.7 -188.1 L13.15 -188.75 6.05 -190.1 7.1 -190.15 Q-1.95 -190.3 -4.0 -176.35 -4.65 -160.05 0.3 -154.0 4.15 -149.2 6.55 -147.7 L7.05 -147.4 7.6 -147.15 7.65 -147.1 Q14.85 -143.45 23.3 -140.9 L25.1 -140.35 25.8 -139.5 Q27.95 -136.75 28.85 -134.5 29.5 -132.75 29.45 -131.3 L29.2 -130.35 28.75 -128.25 28.7 -127.15 28.6 -125.35 28.45 -124.8 28.45 -124.65 28.35 -124.4 28.3 -124.25 28.25 -124.0 28.2 -123.8 28.15 -123.65 28.1 -123.55 28.05 -123.4 27.85 -122.95 27.75 -122.7 27.65 -122.5 27.6 -122.4 27.5 -122.2 27.4 -122.05 Q24.5 -117.05 19.1 -115.0 L18.45 -114.75 16.8 -114.3 13.4 -113.75 Q18.75 -118.1 20.4 -123.5 L17.45 -124.7 17.7 -125.5 28.7 -127.15 17.7 -125.5 17.45 -124.7 Q-5.75 -128.05 -15.25 -132.6 L-24.75 -137.2 Q-26.9 -140.2 -27.8 -142.4 L-28.0 -142.85 -19.6 -146.75 -19.4 -146.65 -19.3 -146.9 -18.4 -152.9 -18.05 -155.5 -18.05 -169.0 -17.85 -168.7 -17.65 -168.45 -17.5 -168.25 -17.35 -168.0 -17.2 -167.85 -17.05 -167.6 -16.9 -167.4 -16.75 -167.25 -16.6 -167.0 -16.4 -166.75 -16.2 -166.5 Q-13.65 -163.25 -10.75 -160.35 -14.05 -170.05 -16.45 -179.85 L-23.4 -179.2 -23.75 -180.0 -24.1 -180.8 -17.05 -202.7 -16.95 -203.05 -12.7 -203.0 Q-2.4 -202.2 8.0 -203.3 L43.25 -206.95 M98.9 -36.5 L99.15 -32.4 99.15 -31.8 96.3 -32.95 Q93.65 -34.1 83.05 -28.1 72.45 -22.1 71.75 -20.8 L62.8 -4.0 62.75 -4.0 61.0 -4.1 59.15 -4.1 57.5 -10.55 63.0 -26.15 64.25 -26.4 66.1 -28.3 Q70.85 -29.75 77.6 -30.95 L78.45 -31.1 90.25 -33.1 94.8 -34.0 98.9 -36.5 M23.3 -130.65 L22.7 -132.05 22.6 -132.4 22.7 -132.05 23.3 -130.65 M22.5 -132.75 Q21.6 -136.35 23.3 -140.9 21.6 -136.35 22.5 -132.75 M6.55 -147.7 L4.25 -148.95 6.55 -147.7 M4.0 -149.15 L-2.95 -153.6 -3.2 -153.8 Q-7.25 -156.85 -10.75 -160.35 -7.25 -156.85 -3.2 -153.8 L-2.95 -153.6 4.0 -149.15 M-21.5 -141.9 L-19.4 -146.65 -21.5 -141.9 M-109.45 -45.75 Q-97.5 -44.85 -85.05 -38.9 L-85.05 -38.85 -64.05 -5.7 -71.2 0.1 -71.65 0.5 Q-83.05 -28.2 -109.35 -45.1 L-110.35 -45.8 -110.0 -45.75 -109.45 -45.75" fill="#e0bcaa" fill-rule="evenodd" stroke="none"/>
    <path d="M46.1 -140.15 Q48.3 -137.5 50.05 -134.1 L50.85 -132.5 49.85 -131.35 Q47.45 -128.4 48.1 -125.4 48.35 -124.25 49.2 -124.85 51.8 -126.6 54.1 -128.8 L64.8 -119.65 62.8 -118.35 Q59.0 -116.1 52.75 -112.9 44.55 -108.75 39.9 -95.35 38.85 -92.35 38.15 -89.85 L37.3 -91.95 Q28.25 -112.65 38.4 -132.4 40.6 -136.7 44.7 -139.25 L46.1 -140.15 M63.65 -117.6 L63.8 -117.45 63.95 -117.35 64.05 -117.25 Q76.0 -106.6 80.25 -98.05 L83.25 -91.3 Q95.0 -67.15 109.2 -55.15 L108.7 -50.95 107.85 -50.05 Q95.35 -35.9 72.25 -35.7 70.8 -41.1 66.95 -51.55 63.05 -62.05 60.4 -73.85 57.7 -85.65 59.95 -96.95 L58.7 -96.7 58.65 -96.7 Q56.65 -96.0 56.6 -93.45 L56.6 -91.1 Q54.45 -84.6 53.35 -77.0 51.6 -65.7 52.2 -52.05 52.85 -41.0 54.15 -28.2 L54.45 -25.1 54.6 -25.2 Q55.75 -17.75 57.5 -10.55 L59.15 -4.1 Q60.55 1.0 62.3 6.05 L65.2 13.8 66.15 25.55 Q66.55 31.3 69.45 35.85 70.4 37.35 70.7 35.9 L71.75 28.25 Q76.4 37.15 82.3 43.15 L81.8 42.65 Q81.6 52.6 75.55 60.55 71.8 65.6 66.5 68.55 63.1 70.45 61.3 72.95 L49.05 74.1 Q44.15 74.2 38.9 73.9 L36.5 73.75 36.7 73.3 Q38.2 69.55 39.4 65.4 L39.7 64.4 39.85 63.8 40.45 61.5 43.7 20.3 43.4 15.1 Q38.95 -25.7 37.3 -57.85 38.65 -58.25 39.15 -61.0 L40.3 -70.8 Q41.0 -77.9 44.95 -93.55 48.9 -109.2 63.65 -117.6 M79.45 7.6 L80.25 10.8 80.1 10.15 Q79.1 10.35 77.9 10.95 L77.0 9.75 Q76.25 9.15 75.3 9.1 71.9 6.15 72.6 7.15 73.3 8.1 74.6 16.7 71.7 16.8 68.85 17.45 68.3 14.15 65.5 10.1 66.6 3.7 64.85 -2.95 L64.65 -3.75 Q75.65 -1.95 79.45 7.6 M38.05 309.45 L43.7 322.8 Q44.65 327.05 43.9 330.35 35.5 333.75 22.25 330.55 L22.85 326.9 Q23.35 318.95 28.8 313.2 L30.1 311.7 Q33.85 309.45 38.05 309.45 M16.75 334.75 L16.6 336.1 -30.45 336.1 Q-21.5 319.65 -2.65 311.35 L-0.4 311.3 Q2.7 311.0 6.1 311.15 L9.05 311.65 9.65 311.85 Q14.5 313.4 15.8 321.35 L16.3 323.5 16.4 323.85 16.4 324.0 16.85 329.0 Q17.0 332.1 16.75 334.75 M-79.9 81.8 Q-82.95 80.95 -85.65 79.45 L-85.7 77.7 -84.9 78.4 -80.7 81.55 -79.9 81.8 M-74.9 36.8 L-71.55 30.4 Q-70.15 31.65 -68.15 32.6 L-66.05 33.45 -64.75 33.1 -63.9 32.8 -63.8 33.25 -62.85 36.75 -62.8 36.9 Q-66.7 39.9 -71.05 42.45 -73.75 44.0 -74.45 46.7 -75.7 51.35 -70.1 48.95 -63.95 46.35 -58.35 42.0 -54.4 38.9 -51.45 35.0 -48.4 31.85 -45.8 28.4 L-45.75 28.3 -45.5 27.95 -42.35 22.5 -40.1 20.15 Q-32.6 12.95 -37.95 8.4 -40.1 8.45 -41.0 10.2 L-43.2 14.35 -46.35 12.1 -45.6 10.15 Q-45.55 9.1 -45.8 8.15 -46.65 5.25 -50.4 3.1 -46.65 5.25 -45.8 8.15 L-52.0 17.25 Q-58.3 26.6 -68.6 24.25 L-64.4 16.95 Q-63.85 16.05 -64.5 16.15 L-77.5 17.25 Q-76.7 14.5 -76.65 11.7 -76.6 8.65 -78.05 7.3 L-77.0 6.0 -73.15 1.9 -71.2 0.1 -64.05 -5.7 -62.35 -7.0 -62.2 -7.1 -60.35 -6.3 -58.15 -5.05 -57.3 -7.75 Q-53.4 -19.3 -51.45 -26.2 -49.55 -33.15 -48.5 -42.55 -47.45 -51.95 -41.75 -68.3 -36.05 -84.65 -40.15 -82.85 L-41.15 -82.35 Q-47.85 -75.5 -51.55 -66.3 -56.35 -54.25 -54.6 -40.85 L-55.8 -40.25 -54.6 -40.85 -54.55 -40.4 -55.75 -40.25 -55.8 -40.25 Q-57.6 -39.9 -59.55 -38.95 -60.75 -38.4 -61.15 -37.5 L-61.4 -37.35 -61.15 -37.5 -61.3 -36.85 -61.4 -37.35 -61.45 -37.5 -61.45 -37.35 Q-72.2 -34.3 -84.95 -38.85 L-85.1 -38.95 -85.05 -38.9 Q-97.5 -44.85 -109.45 -45.75 L-108.7 -45.7 -107.8 -54.6 Q-107.15 -62.35 -102.75 -76.5 L-98.35 -90.9 Q-88.6 -106.55 -73.15 -120.7 L-75.5 -119.8 -73.3 -122.45 Q-66.3 -130.4 -57.4 -133.7 L-41.1 -128.7 Q-40.15 -128.3 -40.3 -131.3 -40.5 -134.35 -49.15 -137.5 L-45.8 -140.1 -41.35 -143.65 Q-37.9 -146.4 -34.9 -148.2 L-30.95 -150.3 -32.3 -147.6 Q-34.5 -142.3 -30.8 -138.15 -11.75 -116.9 -11.3 -89.65 L-12.95 -91.55 Q-28.55 -109.4 -49.15 -116.05 -66.95 -121.8 -67.9 -121.45 L-69.15 -121.45 Q-46.8 -113.75 -30.85 -101.0 -14.9 -88.3 -8.85 -75.5 -4.65 -66.65 -3.7 -61.55 L-3.6 -59.25 -3.55 -57.8 -3.35 -52.2 -3.05 -41.7 -3.0 -40.8 -2.95 -37.4 -2.8 -29.1 Q-5.65 10.9 3.8 48.2 L5.15 53.2 8.0 62.65 9.2 66.3 2.75 69.05 Q-5.9 72.35 -13.4 73.65 L-14.15 73.8 -24.85 75.5 Q-31.15 75.95 -41.85 77.95 L-41.1 77.8 Q-43.0 76.75 -43.4 76.85 L-56.75 77.5 Q-69.65 78.1 -74.9 68.65 -80.15 59.25 -77.3 48.2 -74.5 37.1 -74.9 36.8 M90.3 -63.65 Q93.3 -66.25 95.1 -70.9 L91.2 -76.8 Q90.25 -70.0 90.3 -63.65 M65.7 23.5 L65.65 23.5 65.75 23.6 65.7 23.5 M77.95 42.3 L77.85 42.25 78.65 43.05 78.65 42.85 77.95 42.3 M75.45 48.85 Q75.3 45.15 75.5 43.2 67.8 47.65 62.05 46.0 55.65 44.1 53.0 44.3 54.1 46.7 57.1 47.75 69.2 52.05 75.45 48.85 M21.35 298.65 L21.9 298.5 21.35 299.2 21.3 299.55 21.35 298.65 M-73.15 -120.7 Q-71.15 -121.35 -69.15 -121.45 -71.15 -121.35 -73.15 -120.7 M-54.3 -0.9 L-54.35 -0.95 Q-55.4 -3.25 -58.15 -5.05 -55.4 -3.25 -54.35 -0.95 L-54.3 -0.9 Q-55.8 0.7 -57.0 2.9 -60.2 8.85 -55.25 10.3 L-51.8 5.55 -50.4 3.1 -50.9 2.8 Q-52.15 2.15 -53.7 1.55 -53.75 0.65 -54.05 -0.2 L-54.3 -0.9 M-16.95 43.15 L-17.0 43.25 Q-23.7 50.65 -33.9 52.05 -45.3 53.6 -55.55 52.1 -52.05 56.9 -44.15 57.6 -24.35 59.35 -15.2 44.0 L-15.9 43.5 Q-16.4 43.25 -16.95 43.15" fill="#4c97d9" fill-rule="evenodd" stroke="none"/>
    <path d="M43.9 330.35 Q42.65 335.6 37.05 338.5 24.95 339.45 16.75 334.75 17.0 332.1 16.85 329.0 L17.0 329.05 17.2 329.1 17.95 329.35 19.75 329.9 22.25 330.55 Q35.5 333.75 43.9 330.35 M16.6 336.1 Q15.95 340.2 14.35 343.15 L-38.75 343.15 Q-41.1 340.45 -41.8 336.1 L-30.45 336.1 16.6 336.1 M13.4 -113.75 L16.8 -114.3 18.45 -114.75 19.1 -115.0 19.6 -112.3 Q27.15 -79.75 30.3 -57.6 33.4 -35.45 35.55 -6.85 37.7 21.75 33.1 57.4 20.75 61.3 8.0 62.65 L5.15 53.2 Q12.75 56.95 20.8 56.65 L27.5 55.7 27.45 55.7 27.5 55.7 Q29.7 54.9 30.5 53.65 L30.85 53.05 Q28.6 53.55 20.1 53.25 11.55 52.9 3.8 48.2 -5.65 10.9 -2.8 -29.1 L-2.95 -37.4 -3.0 -40.8 -3.05 -41.7 Q-0.9 -25.1 7.15 -11.35 15.15 2.4 29.35 15.95 25.65 11.55 15.75 -7.2 5.8 -26.05 -3.35 -52.2 L-3.55 -57.8 -3.55 -57.75 -3.55 -57.9 -3.6 -59.25 -3.7 -61.55 -4.9 -79.65 -4.95 -80.05 -5.05 -81.3 -5.05 -81.35 Q-5.85 -92.35 -7.4 -101.15 L-7.55 -102.1 Q5.15 -95.35 18.2 -99.55 18.4 -103.5 15.95 -102.65 13.45 -101.85 4.55 -103.7 L-8.5 -106.5 Q-10.9 -117.0 -14.65 -123.9 -12.45 -121.25 -9.5 -119.3 L-5.9 -116.55 Q-2.4 -113.85 10.0 -113.6 L13.4 -113.75 M38.75 64.75 L39.1 64.45 39.85 63.8 39.7 64.4 38.75 64.75" fill="#1b2734" fill-rule="evenodd" stroke="none"/>
    <path d="M67.2 84.1 L79.75 155.1 Q88.9 190.55 79.15 203.95 62.0 235.0 55.5 255.8 49.9 273.65 49.65 294.9 L49.65 294.95 49.65 295.9 49.65 297.9 Q37.3 293.2 24.5 288.95 22.8 289.0 21.6 290.1 L21.6 289.8 21.45 284.65 20.85 279.1 20.85 279.0 14.3 219.95 11.5 195.05 11.4 194.15 11.5 195.05 14.3 219.95 20.85 279.0 20.85 279.1 21.45 284.65 21.6 289.8 21.6 290.1 Q21.0 290.6 20.55 291.4 19.55 293.0 20.65 293.7 L21.55 294.3 21.55 294.9 21.35 298.65 21.55 294.9 21.55 294.3 28.4 298.6 Q24.2 297.95 21.9 298.5 L21.35 298.65 21.3 299.55 20.0 310.15 19.7 311.7 19.6 312.1 19.5 312.65 Q8.3 306.95 -4.15 305.45 -18.3 302.55 -34.85 306.85 L-39.4 270.8 Q-42.0 249.45 -43.2 198.8 L-31.5 205.25 Q-35.7 200.3 -41.7 188.25 -47.7 176.15 -48.0 135.35 -48.3 94.55 -44.5 87.05 L-13.4 73.65 Q-5.9 72.35 2.75 69.05 L17.8 68.55 Q28.0 70.9 36.7 73.3 L36.5 73.75 38.9 73.9 Q56.2 78.85 67.2 84.1 M17.8 84.0 L17.2 83.45 Q15.25 83.55 14.2 84.75 L15.1 84.6 14.75 84.65 14.2 84.75 4.6 85.9 4.6 133.2 11.4 194.15 11.7 193.65 11.5 195.05 Q12.8 203.5 14.75 211.65 16.65 219.8 14.3 219.95 17.0 223.25 17.75 228.55 18.45 233.8 17.45 224.35 16.45 214.95 26.2 186.3 31.85 190.3 36.35 194.0 30.15 180.85 24.05 132.65 17.95 84.4 22.05 82.65 L18.1 83.9 17.8 84.0 M23.9 81.85 L22.1 82.65 22.05 82.65 22.1 82.65 23.9 81.85 M4.6 82.95 L4.6 85.9 4.6 82.95" fill="#283e5d" fill-rule="evenodd" stroke="none"/>
    <path d="M16.45 -213.6 L16.5 -213.7 43.25 -206.95 8.0 -203.3 Q-2.4 -202.2 -12.7 -203.0 L-16.95 -203.05 -16.6 -204.1 16.45 -213.6 M68.9 -195.1 Q69.35 -192.45 69.15 -189.15 68.75 -183.4 66.2 -175.75 L65.0 -172.3 65.2 -172.9 Q60.15 -182.1 52.15 -189.05 63.05 -188.95 68.9 -195.1 M58.05 -159.3 L57.0 -157.5 56.85 -157.3 56.55 -156.95 56.4 -156.75 56.2 -156.5 55.8 -156.0 55.65 -155.8 55.45 -155.6 55.3 -155.35 55.2 -155.3 55.1 -155.15 Q49.35 -148.45 41.6 -144.45 37.6 -142.4 33.1 -141.05 L27.45 -139.75 26.75 -139.95 26.55 -140.0 26.15 -140.05 25.1 -140.35 23.3 -140.9 Q14.85 -143.45 7.65 -147.1 L7.6 -147.15 7.05 -147.4 6.55 -147.7 Q4.15 -149.2 0.3 -154.0 -4.65 -160.05 -4.0 -176.35 -1.95 -190.3 7.1 -190.15 L6.05 -190.1 13.15 -188.75 14.7 -188.1 Q30.55 -180.75 28.4 -184.95 L27.45 -186.55 43.4 -184.7 Q49.8 -172.7 57.25 -160.55 L58.05 -159.3 M99.15 -31.8 Q98.7 -24.6 93.95 -16.65 L79.45 7.6 Q75.65 -1.95 64.65 -3.75 L63.75 -3.9 62.8 -4.0 71.75 -20.8 Q72.45 -22.1 83.05 -28.1 93.65 -34.1 96.3 -32.95 L99.15 -31.8 M-81.0 11.8 L-109.8 -18.9 Q-123.05 -34.0 -115.8 -44.65 L-115.7 -44.8 -115.35 -45.3 -114.9 -45.9 -114.4 -45.9 -110.35 -45.8 -109.35 -45.1 Q-83.05 -28.2 -71.65 0.5 L-71.2 0.1 -73.15 1.9 -77.0 6.0 -78.05 7.3 Q-79.85 9.55 -81.0 11.8 M-18.05 -169.0 L-20.45 -172.7 -20.8 -173.5 -23.75 -180.0 -23.4 -179.2 -16.45 -179.85 Q-14.05 -170.05 -10.75 -160.35 -13.65 -163.25 -16.2 -166.5 L-16.4 -166.75 -16.6 -167.0 -16.75 -167.25 -16.9 -167.4 -17.05 -167.6 -17.2 -167.85 -17.35 -168.0 -17.5 -168.25 -17.65 -168.45 -17.85 -168.7 -18.05 -169.0 M-1.1 -179.9 Q-3.1 -179.7 -2.95 -177.75 -2.75 -174.25 1.7 -174.6 3.15 -174.7 3.7 -176.0 5.75 -180.95 -1.1 -179.9 M17.45 -124.7 L20.4 -123.5 Q18.75 -118.1 13.4 -113.75 L10.0 -113.6 Q-2.4 -113.85 -5.9 -116.55 L-9.5 -119.3 Q-12.45 -121.25 -14.65 -123.9 -15.9 -126.2 -17.3 -128.1 L-19.15 -130.35 Q-22.6 -134.2 -24.75 -137.2 L-15.25 -132.6 Q-5.75 -128.05 17.45 -124.7 L16.35 -121.45 17.45 -124.7 M4.45 -121.05 L0.8 -125.3 -17.3 -128.1 0.8 -125.3 4.45 -121.05 M63.4 -27.4 L66.1 -28.3 64.25 -26.4 63.0 -26.15 63.4 -27.4 M-19.4 -146.65 L-19.6 -146.75 -19.3 -146.9 -19.4 -146.65" fill="#ffe8d7" fill-rule="evenodd" stroke="none"/>
    <path d="M65.5 10.1 Q68.3 14.15 68.85 17.45 69.1 18.8 68.95 20.1 L68.8 20.8 68.35 21.2 68.05 20.55 65.3 14.15 65.2 13.8 62.3 6.05 65.5 10.1 M-46.35 12.1 L-43.2 14.35 -42.75 14.65 -42.25 15.05 -39.4 17.1 -39.8 17.95 -42.35 22.5 -45.5 27.95 -45.75 28.3 -45.8 28.4 Q-48.4 31.85 -51.45 35.0 L-54.1 37.5 -54.25 37.7 -54.75 38.1 -59.5 41.9 Q-61.35 40.9 -62.8 36.9 L-62.85 36.75 -63.8 33.25 -63.9 32.8 Q-57.05 30.35 -51.9 22.9 L-48.1 16.2 -47.55 14.95 -46.35 12.1" fill="#121b25" fill-rule="evenodd" stroke="none"/>
    <path d="M41.6 -144.45 L42.7 -143.6 42.8 -143.5 45.65 -140.7 46.1 -140.15 44.7 -139.25 Q40.6 -136.7 38.4 -132.4 28.25 -112.65 37.3 -91.95 L38.15 -89.85 37.4 -87.35 Q35.9 -81.8 36.45 -79.85 35.9 -81.8 37.4 -87.35 L38.15 -89.85 Q38.85 -92.35 39.9 -95.35 44.55 -108.75 52.75 -112.9 59.0 -116.1 62.8 -118.35 L63.65 -117.6 Q48.9 -109.2 44.95 -93.55 41.0 -77.9 40.3 -70.8 L39.15 -61.0 Q38.65 -58.25 37.3 -57.85 36.7 -69.4 36.45 -79.8 L36.45 -79.85 Q27.55 -103.25 28.6 -125.35 L28.7 -127.15 28.75 -128.25 29.2 -130.35 29.45 -131.3 Q29.5 -132.75 28.85 -134.5 27.95 -136.75 25.8 -139.5 L25.1 -140.35 26.15 -140.05 26.55 -140.0 26.75 -139.95 27.45 -139.75 33.1 -141.05 Q37.6 -142.4 41.6 -144.45 M50.85 -132.5 L51.5 -131.05 54.1 -128.8 Q51.8 -126.6 49.2 -124.85 48.35 -124.25 48.1 -125.4 47.45 -128.4 49.85 -131.35 L50.85 -132.5 M108.7 -50.95 L108.7 -51.0 108.45 -49.95 100.3 -37.55 99.85 -37.2 99.7 -37.1 99.55 -37.0 98.9 -36.5 94.8 -34.0 90.25 -33.1 78.45 -31.1 77.6 -30.95 Q70.85 -29.75 66.1 -28.3 L63.4 -27.4 57.05 -26.15 Q52.55 -46.25 53.35 -77.0 54.45 -84.6 56.6 -91.1 L56.6 -93.45 Q56.65 -96.0 58.65 -96.7 L58.7 -96.7 59.95 -96.95 Q57.7 -85.65 60.4 -73.85 63.05 -62.05 66.95 -51.55 70.8 -41.1 72.25 -35.7 95.35 -35.9 107.85 -50.05 L108.7 -50.95 108.45 -49.95 108.7 -50.95 M80.25 10.8 L80.15 11.55 Q79.05 17.1 76.25 18.4 76.05 23.45 74.6 25.05 73.0 26.8 71.25 27.2 L71.65 28.1 71.75 28.2 71.75 28.25 70.7 35.9 Q70.4 37.35 69.45 35.85 66.55 31.3 66.15 25.55 L65.2 13.8 65.3 14.15 68.05 20.55 68.35 21.2 68.8 20.8 68.95 20.1 Q69.1 18.8 68.85 17.45 71.7 16.8 74.6 16.7 73.3 8.1 72.6 7.15 71.9 6.15 75.3 9.1 76.25 9.15 77.0 9.75 L77.9 10.95 Q79.1 10.35 80.1 10.15 L80.25 10.8 M82.3 43.15 L90.15 49.4 90.35 49.55 90.8 49.85 91.2 50.05 Q90.7 60.1 81.35 65.7 L81.35 65.75 Q74.35 70.05 65.1 72.2 L61.3 72.95 Q63.1 70.45 66.5 68.55 71.8 65.6 75.55 60.55 81.6 52.6 81.8 42.65 L82.3 43.15 M33.8 299.6 L37.7 308.7 37.8 308.95 38.05 309.45 Q33.85 309.45 30.1 311.7 L28.8 313.2 Q23.35 318.95 22.85 326.9 L22.25 330.55 19.75 329.9 17.95 329.35 17.2 329.1 17.0 329.05 16.85 329.0 16.4 324.0 16.4 323.85 16.3 323.5 16.35 323.35 18.35 316.7 18.5 316.3 18.55 316.05 18.6 315.9 19.5 312.65 19.6 312.1 19.7 311.7 20.0 310.15 21.3 299.55 21.35 299.2 21.9 298.5 Q24.2 297.95 28.4 298.6 L28.95 298.65 32.3 299.25 33.25 299.45 33.8 299.6 M-41.8 336.1 Q-42.25 333.55 -42.1 330.45 L-42.05 330.3 -42.0 330.1 -41.35 328.2 -41.3 328.1 -41.25 328.0 -41.1 327.7 Q-39.9 324.85 -37.5 321.75 L-33.0 316.65 Q-29.5 314.65 -25.85 313.25 L-25.65 313.15 -23.5 312.4 -21.5 311.75 -2.65 311.35 Q-21.5 319.65 -30.45 336.1 L-41.8 336.1 M-69.9 82.85 L-71.45 82.9 Q-76.0 82.85 -79.9 81.8 L-80.7 81.55 -84.9 78.4 -85.7 77.7 Q-85.85 72.5 -85.0 66.95 -83.0 53.35 -75.4 37.8 L-74.9 36.75 -74.9 36.8 -75.4 37.8 -74.9 36.8 Q-74.5 37.1 -77.3 48.2 -80.15 59.25 -74.9 68.65 -69.65 78.1 -56.75 77.5 L-43.4 76.85 Q-43.0 76.75 -41.1 77.8 L-41.85 77.95 -49.35 79.4 -49.5 79.4 -55.9 80.7 -58.25 81.15 -58.9 81.3 Q-64.8 82.7 -69.9 82.85 M-71.55 30.4 Q-72.95 29.15 -73.75 27.55 L-74.4 25.9 -74.55 25.85 -75.05 25.7 -75.5 25.55 -76.7 25.05 -76.9 24.95 Q-79.45 23.7 -80.95 21.95 -82.5 20.15 -82.85 17.85 L-82.9 17.65 -82.9 17.5 -82.9 17.4 -82.9 17.3 -82.95 17.15 -82.95 17.05 -82.95 16.95 -82.95 16.85 -82.05 14.0 -81.0 11.8 Q-79.85 9.55 -78.05 7.3 -76.6 8.65 -76.65 11.7 -76.7 14.5 -77.5 17.25 L-64.5 16.15 Q-63.85 16.05 -64.4 16.95 L-68.6 24.25 Q-58.3 26.6 -52.0 17.25 L-45.8 8.15 Q-45.55 9.1 -45.6 10.15 L-46.35 12.1 -47.55 14.95 -48.1 16.2 -51.9 22.9 Q-57.05 30.35 -63.9 32.8 L-64.75 33.1 -66.05 33.45 -68.15 32.6 Q-70.15 31.65 -71.55 30.4 M-114.9 -45.9 L-117.65 -47.35 Q-116.55 -52.05 -106.15 -76.05 -102.85 -83.65 -98.35 -90.9 L-102.75 -76.5 Q-107.15 -62.35 -107.8 -54.6 L-108.7 -45.7 -109.45 -45.75 -110.0 -45.75 -110.35 -45.8 -114.4 -45.9 -114.9 -45.9 M-57.4 -133.7 L-55.0 -134.5 -52.15 -135.25 -49.15 -137.5 Q-40.5 -134.35 -40.3 -131.3 -40.15 -128.3 -41.1 -128.7 L-57.4 -133.7 M-30.95 -150.3 L-29.2 -150.95 -26.8 -151.6 -26.7 -151.6 -26.6 -151.65 -26.15 -151.75 -26.1 -151.7 -18.4 -152.9 -19.3 -146.9 -19.6 -146.75 -28.0 -142.85 -27.8 -142.4 Q-26.9 -140.2 -24.75 -137.2 -22.6 -134.2 -19.15 -130.35 L-17.3 -128.1 Q-15.9 -126.2 -14.65 -123.9 -10.9 -117.0 -8.5 -106.5 L-8.3 -105.65 -8.15 -105.0 -7.6 -102.35 -7.55 -102.1 -7.4 -101.15 Q-5.85 -92.35 -5.05 -81.35 L-5.05 -81.3 -4.95 -80.05 -4.9 -79.65 -3.7 -61.55 Q-4.65 -66.65 -8.85 -75.5 -14.9 -88.3 -30.85 -101.0 -46.8 -113.75 -69.15 -121.45 L-67.9 -121.45 Q-66.95 -121.8 -49.15 -116.05 -28.55 -109.4 -12.95 -91.55 L-11.3 -89.65 Q-11.75 -116.9 -30.8 -138.15 -34.5 -142.3 -32.3 -147.6 L-30.95 -150.3 M29.45 -131.3 Q30.65 -135.05 33.7 -138.3 30.65 -135.05 29.45 -131.3 M-3.6 -59.25 L-3.55 -57.9 -3.55 -57.75 -3.55 -57.8 -3.6 -59.25 M56.6 -91.1 L56.95 -92.15 58.7 -96.7 56.95 -92.15 56.6 -91.1 M59.15 -4.1 L61.0 -4.1 62.75 -4.0 62.8 -4.0 63.75 -3.9 64.65 -3.75 64.85 -2.95 Q66.6 3.7 65.5 10.1 L62.3 6.05 Q60.55 1.0 59.15 -4.1 M63.75 -3.9 L64.65 -3.75 63.75 -3.9 M90.3 -63.65 Q90.25 -70.0 91.2 -76.8 L95.1 -70.9 Q93.3 -66.25 90.3 -63.65 M71.65 28.1 L71.75 28.25 71.65 28.1 M75.45 48.85 Q69.2 52.05 57.1 47.75 54.1 46.7 53.0 44.3 55.65 44.1 62.05 46.0 67.8 47.65 75.5 43.2 75.3 45.15 75.45 48.85 M77.95 42.3 L78.65 42.85 78.65 43.05 77.85 42.25 77.95 42.3 M71.25 27.2 L68.35 21.2 71.25 27.2 M-28.0 -142.85 Q-29.0 -145.55 -28.0 -146.95 L-25.15 -148.45 -28.0 -146.95 Q-29.0 -145.55 -28.0 -142.85 M-61.15 -37.5 Q-60.75 -38.4 -59.55 -38.95 -57.6 -39.9 -55.8 -40.25 L-55.75 -40.25 -54.55 -40.4 -54.6 -40.85 Q-56.35 -54.25 -51.55 -66.3 -47.85 -75.5 -41.15 -82.35 L-40.15 -82.85 Q-36.05 -84.65 -41.75 -68.3 -47.45 -51.95 -48.5 -42.55 -49.55 -33.15 -51.45 -26.2 -53.4 -19.3 -57.3 -7.75 L-58.15 -5.05 -60.35 -6.3 Q-58.5 -20.9 -61.3 -36.85 L-61.15 -37.5 -55.8 -40.25 -61.15 -37.5 M-54.3 -0.9 L-54.05 -0.2 Q-53.75 0.65 -53.7 1.55 -52.15 2.15 -50.9 2.8 L-50.4 3.1 -51.8 5.55 -55.25 10.3 Q-60.2 8.85 -57.0 2.9 -55.8 0.7 -54.3 -0.9 M-43.2 14.35 L-41.0 10.2 Q-40.1 8.45 -37.95 8.4 -32.6 12.95 -40.1 20.15 L-42.35 22.5 -39.8 17.95 -39.4 17.1 -37.5 11.95 -37.0 10.45 -37.5 11.95 -39.4 17.1 -42.25 15.05 -42.75 14.65 -43.2 14.35 M-51.45 35.0 Q-54.4 38.9 -58.35 42.0 -63.95 46.35 -70.1 48.95 -75.7 51.35 -74.45 46.7 -73.75 44.0 -71.05 42.45 -66.7 39.9 -62.8 36.9 -61.35 40.9 -59.5 41.9 L-54.75 38.1 -54.25 37.7 -54.1 37.5 -51.45 35.0 M-11.3 -89.65 Q-8.45 -86.25 -5.8 -82.45 L-5.05 -81.35 -5.8 -82.45 Q-8.45 -86.25 -11.3 -89.65 M-54.6 -40.85 L-53.3 -41.5 Q-57.65 -56.2 -41.9 -79.65 L-40.95 -80.7 -41.9 -79.65 Q-57.65 -56.2 -53.3 -41.5 L-54.6 -40.85 M-16.95 43.15 Q-16.4 43.25 -15.9 43.5 L-15.2 44.0 Q-24.35 59.35 -44.15 57.6 -52.05 56.9 -55.55 52.1 -45.3 53.6 -33.9 52.05 -23.7 50.65 -17.0 43.25 L-16.95 43.15 M-70.85 47.05 L-64.15 44.5 -64.1 44.45 Q-61.25 43.15 -59.5 41.9 -61.25 43.15 -64.1 44.45 L-64.15 44.5 -70.85 47.05" fill="#3572b4" fill-rule="evenodd" stroke="none"/>
    <path d="M28.6 -125.35 Q27.55 -103.25 36.45 -79.85 L36.45 -79.8 Q36.7 -69.4 37.3 -57.85 38.95 -25.7 43.4 15.1 L43.7 20.3 40.45 61.5 39.85 63.8 40.45 61.5 39.85 63.8 39.1 64.45 38.75 64.75 Q30.45 67.55 17.8 68.55 L2.75 69.05 9.2 66.3 8.0 62.65 Q20.75 61.3 33.1 57.4 37.7 21.75 35.55 -6.85 33.4 -35.45 30.3 -57.6 27.15 -79.75 19.6 -112.3 L19.1 -115.0 Q24.5 -117.05 27.4 -122.05 L27.5 -122.2 27.6 -122.4 27.65 -122.5 27.75 -122.7 27.85 -122.95 28.05 -123.4 28.1 -123.55 28.15 -123.65 28.2 -123.8 28.25 -124.0 28.3 -124.25 28.35 -124.4 28.45 -124.65 28.45 -124.8 28.6 -125.35 M-8.5 -106.5 L4.55 -103.7 Q13.45 -101.85 15.95 -102.65 18.4 -103.5 18.2 -99.55 5.15 -95.35 -7.55 -102.1 L-7.6 -102.35 -8.15 -105.0 -8.3 -105.65 -8.5 -106.5 M-3.35 -52.2 Q5.8 -26.05 15.75 -7.2 25.65 11.55 29.35 15.95 15.15 2.4 7.15 -11.35 -0.9 -25.1 -3.05 -41.7 L-3.35 -52.2 M3.8 48.2 Q11.55 52.9 20.1 53.25 28.6 53.55 30.85 53.05 L30.5 53.65 Q29.7 54.9 27.5 55.7 L27.45 55.7 27.5 55.7 20.8 56.65 Q12.75 56.95 5.15 53.2 L3.8 48.2" fill="#070a0e" fill-rule="evenodd" stroke="none"/>
    <path d="M65.1 72.2 L67.2 84.1 Q56.2 78.85 38.9 73.9 44.15 74.2 49.05 74.1 L61.3 72.95 65.1 72.2 M49.65 297.9 L49.65 297.95 49.7 301.5 49.7 301.8 Q42.65 301.65 33.8 299.6 L33.25 299.45 32.3 299.25 28.95 298.65 28.4 298.6 21.55 294.3 20.65 293.7 Q19.55 293.0 20.55 291.4 21.0 290.6 21.6 290.1 L21.55 294.3 21.6 290.1 Q22.8 289.0 24.5 288.95 37.3 293.2 49.65 297.9 M-42.1 330.45 Q-42.5 332.0 -42.55 333.45 -50.2 331.55 -51.65 313.3 -50.55 222.5 -63.7 141.4 -67.65 115.85 -69.1 97.35 L-69.55 91.2 -69.9 82.85 Q-64.8 82.7 -58.9 81.3 L-58.25 81.15 -55.9 80.7 -49.5 79.4 -49.35 79.4 -41.85 77.95 Q-31.15 75.95 -24.85 75.5 L-14.15 73.8 -13.4 73.65 -44.5 87.05 Q-48.3 94.55 -48.0 135.35 -47.7 176.15 -41.7 188.25 -35.7 200.3 -31.5 205.25 L-43.2 198.8 Q-42.0 249.45 -39.4 270.8 L-34.85 306.85 Q-18.3 302.55 -4.15 305.45 8.3 306.95 19.5 312.65 L18.6 315.9 18.55 316.05 18.5 316.3 18.35 316.7 16.35 323.35 16.3 323.5 15.8 321.35 Q14.5 313.4 9.65 311.85 L9.05 311.65 6.1 311.15 Q2.7 311.0 -0.4 311.3 L-2.65 311.35 -21.5 311.75 -23.5 312.4 -25.65 313.15 -25.85 313.25 Q-29.5 314.65 -33.0 316.65 L-37.5 321.75 Q-39.9 324.85 -41.1 327.7 L-41.25 328.0 -41.3 328.1 -41.35 328.2 -42.0 330.1 -42.05 330.3 -42.1 330.45 M17.8 68.55 Q30.45 67.55 38.75 64.75 L39.7 64.4 39.4 65.4 Q38.2 69.55 36.7 73.3 28.0 70.9 17.8 68.55 M15.1 84.6 L14.2 84.75 Q15.25 83.55 17.2 83.45 L17.8 84.0 18.1 83.9 22.05 82.65 Q17.95 84.4 24.05 132.65 30.15 180.85 36.35 194.0 31.85 190.3 26.2 186.3 16.45 214.95 17.45 224.35 18.45 233.8 17.75 228.55 17.0 223.25 14.3 219.95 16.65 219.8 14.75 211.65 12.8 203.5 11.5 195.05 L11.7 193.65 20.45 177.2 4.6 133.2 4.6 85.9 14.2 84.75 14.75 84.65 15.1 84.6 M17.8 84.0 L15.6 84.5 17.8 84.0" fill="#182538" fill-rule="evenodd" stroke="none"/>
    <path d="M-1.1 -179.9 Q5.75 -180.95 3.7 -176.0 3.15 -174.7 1.7 -174.6 -2.75 -174.25 -2.95 -177.75 -3.1 -179.7 -1.1 -179.9" fill="#fffce9" fill-rule="evenodd" stroke="none"/>
    <path d="M16.5 -213.7 L43.25 -206.95 66.2 -201.2 Q67.85 -199.15 68.6 -196.35 L68.9 -195.1 Q69.35 -192.45 69.15 -189.15 68.75 -183.4 66.2 -175.75 L65.0 -172.3 64.25 -170.45 63.95 -169.75 58.05 -159.3 57.0 -157.5 56.85 -157.3 56.55 -156.95 56.4 -156.75 56.2 -156.5 55.8 -156.0 55.65 -155.8 55.45 -155.6 55.3 -155.35 55.2 -155.3 55.1 -155.15 Q49.35 -148.45 41.6 -144.45 L42.7 -143.6 42.8 -143.5 45.65 -140.7 46.1 -140.15 Q48.3 -137.5 50.05 -134.1 L50.85 -132.5 51.5 -131.05 54.1 -128.8 64.8 -119.65 62.8 -118.35 63.65 -117.6 63.8 -117.45 63.95 -117.35 64.05 -117.25 Q76.0 -106.6 80.25 -98.05 L83.25 -91.3 Q95.0 -67.15 109.2 -55.15 L108.7 -50.95 108.45 -49.95 100.3 -37.55 99.85 -37.2 99.7 -37.1 99.55 -37.0 98.9 -36.5 99.15 -32.4 99.15 -31.8 Q98.7 -24.6 93.95 -16.65 L79.45 7.6 80.25 10.8 80.15 11.55 Q79.05 17.1 76.25 18.4 76.05 23.45 74.6 25.05 73.0 26.8 71.25 27.2 L71.65 28.1 71.75 28.25 Q76.4 37.15 82.3 43.15 L90.15 49.4 90.35 49.55 90.8 49.85 91.2 50.05 Q90.7 60.1 81.35 65.7 L81.35 65.75 Q74.35 70.05 65.1 72.2 L67.2 84.1 79.75 155.1 Q88.9 190.55 79.15 203.95 62.0 235.0 55.5 255.8 49.9 273.65 49.65 294.9 M49.65 294.95 L49.65 295.9 49.65 297.9 M49.65 297.95 L49.7 301.5 49.7 301.8 Q42.65 301.65 33.8 299.6 L37.7 308.7 M37.8 308.95 L38.05 309.45 43.7 322.8 Q44.65 327.05 43.9 330.35 42.65 335.6 37.05 338.5 24.95 339.45 16.75 334.75 L16.6 336.1 Q15.95 340.2 14.35 343.15 L-38.75 343.15 Q-41.1 340.45 -41.8 336.1 -42.25 333.55 -42.1 330.45 -42.5 332.0 -42.55 333.45 -50.2 331.55 -51.65 313.3 -50.55 222.5 -63.7 141.4 -67.65 115.85 -69.1 97.35 L-69.55 91.2 -69.9 82.85 -71.45 82.9 Q-76.0 82.85 -79.9 81.8 -82.95 80.95 -85.65 79.45 L-85.7 77.7 Q-85.85 72.5 -85.0 66.95 -83.0 53.35 -75.4 37.8 L-74.9 36.8 -71.55 30.4 Q-72.95 29.15 -73.75 27.55 L-74.4 25.9 -74.55 25.85 -75.05 25.7 -75.5 25.55 -76.7 25.05 -76.9 24.95 Q-79.45 23.7 -80.95 21.95 -82.5 20.15 -82.85 17.85 L-82.9 17.65 -82.9 17.5 -82.9 17.4 -82.9 17.3 -82.95 17.15 -82.95 17.05 -82.95 16.95 -82.95 16.85 -82.05 14.0 -81.0 11.8 -109.8 -18.9 Q-123.05 -34.0 -115.8 -44.65 L-115.7 -44.8 -115.35 -45.3 -114.9 -45.9 -117.65 -47.35 Q-116.55 -52.05 -106.15 -76.05 -102.85 -83.65 -98.35 -90.9 -88.6 -106.55 -73.15 -120.7 L-75.5 -119.8 -73.3 -122.45 Q-66.3 -130.4 -57.4 -133.7 L-55.0 -134.5 -52.15 -135.25 -49.15 -137.5 -45.8 -140.1 -41.35 -143.65 Q-37.9 -146.4 -34.9 -148.2 L-30.95 -150.3 -29.2 -150.95 -26.8 -151.6 -26.7 -151.6 -26.6 -151.65 -26.15 -151.75 M-26.1 -151.7 L-18.4 -152.9 -18.05 -155.5 -18.05 -169.0 -20.45 -172.7 -20.8 -173.25 M-20.8 -173.5 L-23.75 -180.0 -24.1 -180.8 -17.05 -202.7 M-16.95 -203.05 L-16.6 -204.1 16.45 -213.6 M6.55 -147.7 L7.05 -147.4 M7.65 -147.1 Q14.85 -143.45 23.3 -140.9 L25.1 -140.35 26.15 -140.05 26.55 -140.0 26.75 -139.95 27.45 -139.75 33.1 -141.05 Q37.6 -142.4 41.6 -144.45 M28.7 -127.15 L28.75 -128.25 29.2 -130.35 29.45 -131.3 Q29.5 -132.75 28.85 -134.5 27.95 -136.75 25.8 -139.5 L25.1 -140.35 M22.6 -132.4 L22.7 -132.05 23.3 -130.65 M28.7 -127.15 L28.6 -125.35 Q27.55 -103.25 36.45 -79.85 35.9 -81.8 37.4 -87.35 L38.15 -89.85 Q38.85 -92.35 39.9 -95.35 44.55 -108.75 52.75 -112.9 59.0 -116.1 62.8 -118.35 M19.1 -115.0 Q24.5 -117.05 27.4 -122.05 L27.5 -122.2 27.6 -122.4 27.65 -122.5 27.75 -122.7 27.85 -122.95 28.05 -123.4 28.1 -123.55 28.15 -123.65 28.2 -123.8 28.25 -124.0 28.3 -124.25 28.35 -124.4 28.45 -124.65 28.45 -124.8 28.6 -125.35 M33.7 -138.3 Q30.65 -135.05 29.45 -131.3 M23.3 -140.9 Q21.6 -136.35 22.5 -132.75 M28.7 -127.15 L17.7 -125.5 17.45 -124.7 16.35 -121.45 M13.4 -113.75 L16.8 -114.3 18.45 -114.75 19.1 -115.0 M8.0 62.65 L9.2 66.3 2.75 69.05 17.8 68.55 Q30.45 67.55 38.75 64.75 L39.7 64.4 39.85 63.8 40.45 61.5 43.7 20.3 43.4 15.1 Q38.95 -25.7 37.3 -57.85 36.7 -69.4 36.45 -79.8 L36.45 -79.85 M-7.55 -102.1 L-7.4 -101.15 Q-5.85 -92.35 -5.05 -81.35 L-5.05 -81.3 -4.95 -80.05 -4.9 -79.65 -3.7 -61.55 -3.6 -59.25 -3.55 -57.8 -3.35 -52.2 -3.05 -41.7 -3.0 -40.8 -2.95 -37.4 -2.8 -29.1 Q-5.65 10.9 3.8 48.2 L5.15 53.2 8.0 62.65 M-14.65 -123.9 Q-12.45 -121.25 -9.5 -119.3 L-5.9 -116.55 Q-2.4 -113.85 10.0 -113.6 L13.4 -113.75 M-17.3 -128.1 L0.8 -125.3 4.45 -121.05 M4.25 -148.95 L6.55 -147.7 M58.7 -96.7 L56.95 -92.15 56.6 -91.1 Q54.45 -84.6 53.35 -77.0 52.55 -46.25 57.05 -26.15 L63.4 -27.4 66.1 -28.3 Q70.85 -29.75 77.6 -30.95 L78.45 -31.1 90.25 -33.1 94.8 -34.0 98.9 -36.5 M53.35 -77.0 Q51.6 -65.7 52.2 -52.05 52.85 -41.0 54.15 -28.2 L54.6 -25.2 Q55.75 -17.75 57.5 -10.55 L63.0 -26.15 63.4 -27.4 M54.6 -25.2 L54.45 -25.1 54.15 -28.2 M57.5 -10.55 L59.15 -4.1 61.0 -4.1 62.75 -4.0 M64.65 -3.75 L63.75 -3.9 62.8 -4.0 M64.65 -3.75 Q75.65 -1.95 79.45 7.6 M65.5 10.1 Q68.3 14.15 68.85 17.45 69.1 18.8 68.95 20.1 L68.8 20.8 68.35 21.2 71.25 27.2 M62.3 6.05 L65.5 10.1 M65.3 14.15 L68.05 20.55 68.35 21.2 M62.3 6.05 L65.2 13.8 M39.7 64.4 L39.4 65.4 Q38.2 69.55 36.7 73.3 L36.5 73.75 38.9 73.9 Q44.15 74.2 49.05 74.1 L61.3 72.95 65.1 72.2 M17.8 84.0 L18.1 83.9 22.05 82.65 22.1 82.65 23.9 81.85 M14.75 84.65 L15.1 84.6 M14.2 84.75 L4.6 85.9 4.6 133.2 20.45 177.2 11.7 193.65 11.4 194.15 11.5 195.05 14.3 219.95 20.85 279.0 20.85 279.1 21.45 284.65 21.6 289.8 21.6 290.1 21.55 294.3 21.55 294.9 21.35 298.65 21.9 298.5 Q24.2 297.95 28.4 298.6 M15.6 84.5 L17.8 84.0 M4.6 85.9 L4.6 82.95 M11.4 194.15 L4.6 133.2 M28.95 298.65 L32.3 299.25 33.25 299.45 33.8 299.6 M21.3 299.55 L20.0 310.15 19.7 311.7 19.6 312.1 19.5 312.65 18.6 315.9 18.55 316.05 18.5 316.3 18.35 316.7 16.35 323.35 16.3 323.5 16.4 323.85 16.4 324.0 16.85 329.0 17.0 329.05 17.2 329.1 17.95 329.35 19.75 329.9 22.25 330.55 Q35.5 333.75 43.9 330.35 M21.3 299.55 L21.35 298.65 M-2.65 311.35 L-0.4 311.3 Q2.7 311.0 6.1 311.15 L9.05 311.65 9.65 311.85 Q14.5 313.4 15.8 321.35 L16.3 323.5 M16.75 334.75 Q17.0 332.1 16.85 329.0 M59.15 -4.1 Q60.55 1.0 62.3 6.05 M-10.75 -160.35 Q-7.25 -156.85 -3.2 -153.8 L-2.95 -153.6 4.0 -149.15 M-18.05 -169.0 L-17.85 -168.7 -17.65 -168.45 -17.5 -168.25 -17.35 -168.0 -17.2 -167.85 -17.05 -167.6 -16.9 -167.4 -16.75 -167.25 -16.6 -167.0 -16.4 -166.75 -16.2 -166.5 Q-13.65 -163.25 -10.75 -160.35 M-20.45 -172.7 L-20.8 -173.5 M-69.15 -121.45 Q-71.15 -121.35 -73.15 -120.7 M-11.3 -89.65 L-12.95 -91.55 Q-28.55 -109.4 -49.15 -116.05 -66.95 -121.8 -67.9 -121.45 L-69.15 -121.45 M-17.3 -128.1 Q-15.9 -126.2 -14.65 -123.9 -10.9 -117.0 -8.5 -106.5 M-8.3 -105.65 L-8.15 -105.0 -7.6 -102.35 M-24.75 -137.2 Q-22.6 -134.2 -19.15 -130.35 L-17.3 -128.1 M-19.4 -146.65 L-19.3 -146.9 -19.6 -146.75 -28.0 -142.85 -27.8 -142.4 Q-26.9 -140.2 -24.75 -137.2 M-25.15 -148.45 L-28.0 -146.95 Q-29.0 -145.55 -28.0 -142.85 M-19.4 -146.65 L-21.5 -141.9 M-19.3 -146.9 L-18.4 -152.9 M-109.45 -45.75 Q-97.5 -44.85 -85.05 -38.9 L-85.1 -38.95 -84.95 -38.85 Q-72.2 -34.3 -61.45 -37.35 L-61.4 -37.35 -61.15 -37.5 -55.8 -40.25 -54.6 -40.85 -53.3 -41.5 Q-57.65 -56.2 -41.9 -79.65 L-40.95 -80.7 M-61.45 -37.5 L-61.4 -37.35 -61.3 -36.85 Q-58.5 -20.9 -60.35 -6.3 L-62.2 -7.1 -62.35 -7.0 -64.05 -5.7 -85.05 -38.85 -85.05 -38.9 M-58.15 -5.05 Q-55.4 -3.25 -54.35 -0.95 L-54.3 -0.9 M-54.05 -0.2 Q-53.75 0.65 -53.7 1.55 -52.15 2.15 -50.9 2.8 L-50.4 3.1 Q-46.65 5.25 -45.8 8.15 -45.55 9.1 -45.6 10.15 L-46.35 12.1 -43.2 14.35 M-42.35 22.5 L-45.5 27.95 -45.75 28.3 -45.8 28.4 Q-48.4 31.85 -51.45 35.0 L-54.1 37.5 -54.25 37.7 -54.75 38.1 -59.5 41.9 Q-61.35 40.9 -62.8 36.9 L-62.85 36.75 -63.8 33.25 -63.9 32.8 -64.75 33.1 -66.05 33.45 -68.15 32.6 Q-70.15 31.65 -71.55 30.4 M-85.05 -38.85 L-84.95 -38.85 M-71.2 0.1 L-64.05 -5.7 M-110.35 -45.8 L-114.4 -45.9 -114.9 -45.9 M-109.45 -45.75 L-110.0 -45.75 M-5.05 -81.35 L-5.8 -82.45 Q-8.45 -86.25 -11.3 -89.65 M-58.15 -5.05 L-60.35 -6.3 M-39.4 17.1 L-39.8 17.95 -42.35 22.5 M-37.0 10.45 L-37.5 11.95 -39.4 17.1 -42.25 15.05 -42.75 14.65 M-63.9 32.8 Q-57.05 30.35 -51.9 22.9 L-48.1 16.2 -47.55 14.95 -46.35 12.1 M-78.05 7.3 Q-79.85 9.55 -81.0 11.8 M-71.2 0.1 L-73.15 1.9 -77.0 6.0 -78.05 7.3 M-59.5 41.9 Q-61.25 43.15 -64.1 44.45 L-64.15 44.5 -70.85 47.05 M-41.85 77.95 Q-31.15 75.95 -24.85 75.5 L-14.15 73.8 -13.4 73.65 Q-5.9 72.35 2.75 69.05 M-69.9 82.85 Q-64.8 82.7 -58.9 81.3 L-58.25 81.15 -55.9 80.7 -49.5 79.4 -49.35 79.4 -41.85 77.95 M-42.1 330.45 L-42.05 330.3 -42.0 330.1 -41.35 328.2 -41.3 328.1 -41.25 328.0 -41.1 327.7 Q-39.9 324.85 -37.5 321.75 L-33.0 316.65 Q-29.5 314.65 -25.85 313.25 L-25.65 313.15 -23.5 312.4 -21.5 311.75 -2.65 311.35 M-30.45 336.1 L16.6 336.1 M-41.8 336.1 L-30.45 336.1" fill="none" stroke="#1a5283" stroke-linecap="round" stroke-linejoin="round" stroke-width="2.0"/>
    <path d="M-49.85 -279.35 L-50.65 -278.5 -49.9 -279.4 -49.85 -279.35" fill="#cccccc" fill-rule="evenodd" stroke="none"/>
    <path d="M-52.5 -276.45 Q-53.25 -274.65 -51.9 -271.85 -44.6 -256.6 -29.6 -248.65 -9.2 -237.9 0.2 -217.4 1.1 -215.4 2.85 -215.35 13.1 -214.8 5.5 -223.9 13.9 -228.6 5.4 -236.9 -2.8 -244.85 -9.25 -254.15 -16.0 -263.85 -22.1 -257.25 -27.9 -260.35 -32.7 -265.0 -40.5 -272.55 -48.55 -278.8 L17.65 -249.0 Q20.9 -229.35 17.95 -211.75 6.5 -198.75 -6.9 -195.65 -9.05 -206.55 -9.6 -219.8 -9.05 -206.55 -6.9 -195.65 -4.25 -182.5 3.8 -172.15 -8.4 -174.65 -15.15 -182.2 -6.95 -155.55 3.55 -145.45 -38.65 -174.6 -32.15 -233.7 L-29.75 -238.4 -32.15 -233.7 Q-39.2 -219.55 -41.75 -206.95 -53.6 -198.2 -68.2 -192.3 -74.9 -189.65 -82.1 -189.65 -68.5 -198.55 -60.1 -210.2 -75.25 -203.35 -97.4 -207.1 -83.0 -214.8 -72.4 -229.65 -68.55 -235.05 -65.2 -241.45 L-65.7 -242.15 -71.05 -241.15 -71.95 -241.05 -71.05 -241.15 -71.8 -241.05 -72.15 -240.8 -71.95 -241.05 Q-83.8 -240.0 -95.5 -246.1 -77.35 -251.65 -59.05 -269.5 -56.15 -272.35 -52.5 -276.45 M-60.3 -243.9 L-64.7 -242.4 -65.7 -242.15 -64.7 -242.4 -60.3 -243.9 M-49.0 -279.0 Q-50.2 -278.65 -51.0 -278.1 L-50.65 -278.5 -49.85 -279.35 -49.0 -279.0 M-64.7 -242.4 L-65.2 -241.45 -64.7 -242.4 M-52.85 -213.55 L-60.1 -210.2 -52.85 -213.55 M-22.85 -199.75 Q-21.15 -188.95 -15.15 -182.2 -21.15 -188.95 -22.85 -199.75" fill="#132a4c" fill-rule="evenodd" stroke="none"/>
    <path d="M-48.55 -278.8 Q-40.5 -272.55 -32.7 -265.0 -27.9 -260.35 -22.1 -257.25 -16.0 -263.85 -9.25 -254.15 -2.8 -244.85 5.4 -236.9 13.9 -228.6 5.5 -223.9 13.1 -214.8 2.85 -215.35 1.1 -215.4 0.2 -217.4 -9.2 -237.9 -29.6 -248.65 -44.6 -256.6 -51.9 -271.85 -53.25 -274.65 -52.5 -276.45 L-51.0 -278.1 Q-50.2 -278.65 -49.0 -279.0 L-48.55 -278.8 M-71.05 -241.15 L-65.7 -242.15 -65.2 -241.45 Q-68.55 -235.05 -72.4 -229.65 -77.75 -225.15 -87.9 -228.3 -80.65 -230.75 -72.15 -240.8 L-71.8 -241.05 -71.05 -241.15 M74.8 -164.05 Q69.5 -150.15 53.1 -143.05 62.05 -155.3 67.7 -187.1 76.15 -188.4 83.65 -179.75 87.2 -159.0 82.75 -147.6 81.55 -149.55 74.8 -164.05 75.25 -168.15 75.0 -172.75 75.25 -168.15 74.8 -164.05 M-32.15 -233.7 Q-38.65 -174.6 3.55 -145.45 -18.5 -150.15 -28.8 -164.8 L-23.45 -151.6 Q-33.3 -160.2 -38.15 -170.25 -33.45 -160.1 -36.3 -150.95 -40.2 -161.25 -50.0 -173.9 -49.75 -177.9 -50.7 -182.25 -49.75 -177.9 -50.0 -173.9 -50.55 -165.4 -56.35 -158.35 -53.4 -172.45 -59.9 -187.3 L-60.0 -187.5 -62.05 -186.55 -63.75 -186.0 Q-72.3 -183.6 -87.25 -186.55 -84.6 -188.05 -82.1 -189.65 -74.9 -189.65 -68.2 -192.3 -53.6 -198.2 -41.75 -206.95 -39.2 -219.55 -32.15 -233.7 M-38.4 -171.55 L-38.3 -170.55 Q-43.65 -181.9 -43.2 -195.3 -43.0 -200.95 -41.75 -206.95 -43.0 -200.95 -43.2 -195.3 -43.65 -181.9 -38.3 -170.55 L-38.4 -171.55 M-37.55 -203.75 Q-39.0 -179.35 -28.8 -164.8 -39.0 -179.35 -37.55 -203.75 M-38.3 -170.55 L-38.15 -170.25 -38.3 -170.55 M-49.5 -195.45 Q-52.85 -191.45 -60.0 -187.5 -52.85 -191.45 -49.5 -195.45" fill="#091425" fill-rule="evenodd" stroke="none"/>
    <path d="M-52.5 -276.45 Q-56.15 -272.35 -59.05 -269.5 -77.35 -251.65 -95.5 -246.1 -83.8 -240.0 -71.95 -241.05 L-71.05 -241.15 -65.7 -242.15 -64.7 -242.4 -60.3 -243.9 M-6.9 -195.65 Q6.5 -198.75 17.95 -211.75 20.9 -229.35 17.65 -249.0 L-48.55 -278.8 -49.0 -279.0 -49.85 -279.35 -50.65 -278.5 -51.0 -278.1 -52.5 -276.45 M74.8 -164.05 Q81.55 -149.55 82.75 -147.6 87.2 -159.0 83.65 -179.75 76.15 -188.4 67.7 -187.1 62.05 -155.3 53.1 -143.05 69.5 -150.15 74.8 -164.05 75.25 -168.15 75.0 -172.75 M-49.85 -279.35 L-49.9 -279.4 -50.65 -278.5 M-65.2 -241.45 L-64.7 -242.4 M-72.15 -240.8 Q-80.65 -230.75 -87.9 -228.3 -77.75 -225.15 -72.4 -229.65 -68.55 -235.05 -65.2 -241.45 M-71.95 -241.05 L-72.15 -240.8 M-60.1 -210.2 L-52.85 -213.55 M-29.75 -238.4 L-32.15 -233.7 Q-39.2 -219.55 -41.75 -206.95 -43.0 -200.95 -43.2 -195.3 -43.65 -181.9 -38.3 -170.55 L-38.4 -171.55 M3.55 -145.45 Q-6.95 -155.55 -15.15 -182.2 -21.15 -188.95 -22.85 -199.75 M-72.4 -229.65 Q-83.0 -214.8 -97.4 -207.1 -75.25 -203.35 -60.1 -210.2 -68.5 -198.55 -82.1 -189.65 -84.6 -188.05 -87.25 -186.55 -72.3 -183.6 -63.75 -186.0 L-62.05 -186.55 -60.0 -187.5 Q-52.85 -191.45 -49.5 -195.45 M-38.15 -170.25 Q-33.3 -160.2 -23.45 -151.6 L-28.8 -164.8 Q-39.0 -179.35 -37.55 -203.75 M-50.0 -173.9 Q-40.2 -161.25 -36.3 -150.95 -33.45 -160.1 -38.15 -170.25 L-38.3 -170.55 M-50.0 -173.9 Q-49.75 -177.9 -50.7 -182.25 M-60.0 -187.5 L-59.9 -187.3 Q-53.4 -172.45 -56.35 -158.35 -50.55 -165.4 -50.0 -173.9 M-6.9 -195.65 Q-9.05 -206.55 -9.6 -219.8 M-28.8 -164.8 Q-18.5 -150.15 3.55 -145.45 M-15.15 -182.2 Q-8.4 -174.65 3.8 -172.15 -4.25 -182.5 -6.9 -195.65" fill="none" stroke="#1a5283" stroke-linecap="round" stroke-linejoin="round" stroke-width="2.0"/>
  </g>
</svg>
