<?xml version="1.0" encoding="UTF-8" standalone="no"?>
<svg xmlns:xlink="http://www.w3.org/1999/xlink" height="64.05px" width="122.85px" xmlns="http://www.w3.org/2000/svg">
  <g transform="matrix(1.0, 0.0, 0.0, 1.0, 60.6, 227.75)">
    <path d="M44.0 -206.0 Q35.2 -198.4 22.85 -199.45 18.85 -199.8 16.95 -202.55 L17.2 -206.35 Q26.0 -203.45 43.25 -210.1 L42.55 -207.6 44.0 -206.0" fill="#000000" fill-rule="evenodd" stroke="none"/>
    <path d="M24.25 -209.85 Q26.25 -211.55 32.05 -212.65 M44.0 -206.0 L42.55 -207.6 43.25 -210.1 Q26.0 -203.45 17.2 -206.35 L16.95 -202.55 Q18.85 -199.8 22.85 -199.45 35.2 -198.4 44.0 -206.0" fill="none" stroke="#1a5283" stroke-linecap="round" stroke-linejoin="round" stroke-width="2.0"/>
    <path d="M-56.65 -210.75 L-3.6 -216.05 Q-0.75 -215.2 0.6 -211.95 L11.45 -212.8 Q12.2 -215.8 15.4 -218.1 L61.25 -226.75 61.25 -218.55 58.45 -214.7 55.1 -202.85 Q53.5 -197.95 49.55 -196.7 L24.35 -191.7 Q19.9 -191.75 17.15 -195.8 L11.6 -207.25 Q4.75 -207.15 1.05 -206.1 L-3.05 -192.15 Q-4.15 -187.8 -8.75 -186.6 L-37.5 -183.5 Q-41.35 -183.15 -44.05 -186.75 L-47.7 -189.15 -52.95 -199.5 -59.6 -202.9 -59.6 -210.2 -56.65 -210.75 M15.3 -209.25 L20.65 -196.45 Q22.25 -194.35 26.6 -195.25 L47.25 -199.4 Q50.45 -200.3 51.4 -202.5 L54.5 -215.45 Q54.9 -220.7 53.55 -220.8 37.65 -219.0 18.4 -213.9 14.95 -212.8 15.3 -209.25 M-48.9 -202.75 L-40.95 -188.25 Q-39.9 -187.1 -36.55 -187.05 L-10.35 -190.05 Q-8.15 -190.55 -6.9 -193.7 L-3.2 -205.0 Q-2.85 -210.15 -6.4 -211.15 L-44.45 -207.3 Q-48.65 -205.8 -48.9 -202.75" fill="#000000" fill-rule="evenodd" stroke="none"/>
    <path d="M-56.65 -210.75 L-3.6 -216.05 Q-0.75 -215.2 0.6 -211.95 L11.45 -212.8 Q12.2 -215.8 15.4 -218.1 L61.25 -226.75 61.25 -218.55 58.45 -214.7 55.1 -202.85 Q53.5 -197.95 49.55 -196.7 L24.35 -191.7 Q19.9 -191.75 17.15 -195.8 L11.6 -207.25 Q4.75 -207.15 1.05 -206.1 L-3.05 -192.15 Q-4.15 -187.8 -8.75 -186.6 L-37.5 -183.5 Q-41.35 -183.15 -44.05 -186.75 L-47.7 -189.15 -52.95 -199.5 -59.6 -202.9 -59.6 -210.2 -56.65 -210.75 M15.3 -209.25 Q14.95 -212.8 18.4 -213.9 37.65 -219.0 53.55 -220.8 54.9 -220.7 54.5 -215.45 L51.4 -202.5 Q50.45 -200.3 47.25 -199.4 L26.6 -195.25 Q22.25 -194.35 20.65 -196.45 L15.3 -209.25 M8.4 -183.5 Q11.85 -184.15 11.5 -187.45 M-48.9 -202.75 L-40.95 -188.25 Q-39.9 -187.1 -36.55 -187.05 L-10.35 -190.05 Q-8.15 -190.55 -6.9 -193.7 L-3.2 -205.0 Q-2.85 -210.15 -6.4 -211.15 L-44.45 -207.3 Q-48.65 -205.8 -48.9 -202.75" fill="none" stroke="#1a5283" stroke-linecap="round" stroke-linejoin="round" stroke-width="2.0"/>
    <path d="M3.65 -164.7 Q6.3 -166.8 11.35 -167.1" fill="none" stroke="#1a5283" stroke-linecap="round" stroke-linejoin="round" stroke-width="2.0"/>
  </g>
</svg>
