<?xml version="1.0" encoding="UTF-8" standalone="no"?>
<svg xmlns:xlink="http://www.w3.org/1999/xlink" height="581.5px" width="257.65px" xmlns="http://www.w3.org/2000/svg">
  <g transform="matrix(1.0, 0.0, 0.0, 1.0, 155.25, 239.05)">
    <path d="M-92.25 -103.45 L-92.3 -103.45 -91.65 -104.4 -92.25 -103.45 M62.3 34.45 L60.85 28.4 59.95 24.05 Q62.25 33.4 64.5 41.1 L64.2 41.45 62.3 34.45 M-23.05 -83.3 L-23.0 -82.9 -23.1 -83.3 -23.05 -83.3" fill="#cccccc" fill-rule="evenodd" stroke="none"/>
    <path d="M-38.45 -153.4 L-38.3 -152.55 -38.0 -148.05 -37.95 -147.5 -37.95 -146.6 Q-42.3 -144.6 -41.45 -140.85 L-41.4 -140.65 -40.55 -138.7 -40.5 -138.6 -38.05 -134.6 -38.85 -134.35 Q-41.55 -133.3 -30.3 -105.85 -19.05 -78.45 -28.75 -86.7 L-32.65 -90.55 -34.25 -92.55 -34.45 -92.8 -35.1 -93.5 -35.5 -93.9 -68.75 -112.1 -69.45 -112.3 Q-62.95 -108.1 -57.3 -102.95 L-53.55 -99.6 Q-58.3 -98.2 -56.55 -93.1 -52.9 -82.25 -54.85 -71.2 -56.65 -60.75 -61.85 -51.45 L-61.8 -52.4 -61.9 -56.15 -62.0 -57.1 Q-89.7 -75.0 -95.65 -95.45 -95.0 -99.05 -92.25 -103.45 L-91.65 -104.4 -91.45 -104.75 -87.4 -110.15 -87.8 -109.65 -82.55 -108.25 Q-71.95 -104.5 -69.65 -112.4 L-79.9 -115.4 -82.75 -115.4 -85.55 -115.4 Q-82.15 -125.25 -68.5 -132.15 L-68.45 -132.15 -67.85 -132.45 Q-66.95 -128.0 -62.65 -129.8 -51.95 -134.3 -61.4 -138.55 L-61.6 -138.3 -58.7 -141.7 -54.85 -145.35 -54.15 -145.95 -50.8 -148.35 -50.3 -148.65 Q-45.15 -151.75 -38.45 -153.4 M8.15 -146.1 L7.85 -146.25 8.1 -146.35 8.15 -146.1 M29.6 -144.6 Q32.75 -136.85 32.8 -134.1 32.8 -131.4 34.8 -133.3 36.75 -135.2 37.25 -138.8 L36.75 -138.95 37.4 -138.8 Q49.0 -136.35 57.05 -128.5 57.7 -128.35 55.05 -125.8 L43.1 -115.45 Q30.7 -105.25 26.8 -92.5 26.05 -90.1 25.65 -87.6 22.3 -108.0 21.8 -124.1 21.25 -140.2 22.1 -142.8 23.25 -146.4 23.6 -149.65 26.2 -147.8 29.6 -144.6 M-40.15 61.05 L-39.0 65.05 -38.9 65.35 Q-37.6 68.8 -36.15 76.25 L-35.4 80.3 Q-39.6 78.45 -44.75 77.1 -57.2 73.8 -75.5 73.25 L-78.15 73.15 Q-82.2 72.25 -85.9 70.95 -95.0 67.75 -102.5 62.1 -107.05 58.65 -110.95 54.35 -117.2 47.55 -119.0 42.3 -119.6 40.6 -102.15 25.25 -84.7 9.9 -73.95 -4.15 -66.5 -13.9 -63.55 -33.3 -62.0 -34.5 -60.15 -37.25 L-54.2 -45.6 Q-41.7 -61.9 -44.2 -82.35 -45.2 -90.35 -49.2 -95.8 -36.85 -85.2 -23.8 -75.75 L-22.5 -75.0 -22.4 -67.8 -22.4 -66.5 Q-22.7 -42.15 -29.9 -15.15 L-30.9 -11.55 -31.5 -9.3 Q-41.25 26.8 -41.4 47.7 L-41.3 52.3 -41.25 52.65 Q-41.0 57.3 -40.15 61.05 M16.0 69.65 Q34.5 40.65 30.15 -35.9 L29.75 -43.4 29.45 -47.5 Q28.5 -61.25 26.45 -76.0 27.7 -77.6 28.9 -80.65 36.2 -98.8 48.8 -112.05 50.75 -104.6 50.0 -90.6 L49.4 -86.45 49.05 -83.95 Q49.0 -79.6 49.1 -75.3 48.7 -64.1 49.45 -54.0 49.7 -44.9 50.35 -36.15 L50.35 -35.2 Q50.4 -33.4 50.7 -31.7 52.2 -13.2 55.3 3.25 L55.4 3.8 55.5 4.3 55.6 5.05 55.75 5.8 56.0 6.95 56.2 8.0 56.25 7.9 57.3 7.95 Q66.0 8.45 71.7 11.15 75.95 13.15 77.4 16.9 78.05 18.5 78.15 20.4 L76.75 25.45 76.55 26.1 Q75.2 23.65 72.5 21.5 71.35 21.6 71.45 22.65 71.75 25.15 73.4 27.35 74.45 28.7 74.75 30.2 L72.2 34.15 71.3 35.2 70.55 35.95 Q70.0 30.4 67.85 25.25 64.75 17.95 57.8 15.3 L57.85 15.5 59.2 21.1 59.85 23.7 59.85 23.75 59.9 23.9 59.9 23.95 59.95 24.05 60.85 28.4 62.3 34.45 Q58.0 27.15 52.5 21.55 L51.7 21.75 Q50.65 22.1 54.3 28.85 57.9 35.55 61.0 40.65 64.05 45.75 64.6 45.4 L65.65 44.9 Q71.05 63.8 72.45 74.5 L63.3 77.75 Q52.6 83.15 40.0 81.3 L20.45 79.0 Q15.25 78.65 9.8 77.4 12.55 74.7 14.9 71.3 L16.0 69.65 M59.65 -29.5 Q57.45 -32.4 55.35 -40.9 50.95 -58.35 56.4 -106.8 58.05 -121.45 62.4 -119.55 66.7 -117.65 67.95 -116.7 L70.75 -113.15 Q77.8 -103.7 82.95 -89.9 88.05 -76.15 90.75 -70.65 93.4 -65.2 96.65 -59.7 99.9 -54.2 101.4 -45.0 L96.7 -41.2 Q89.4 -35.8 77.85 -32.45 66.25 -29.15 64.5 -29.5 L64.2 -29.55 62.05 -29.5 59.65 -29.5 M70.95 309.7 L88.65 321.05 Q92.15 324.75 92.45 329.7 54.7 332.85 31.8 331.85 L31.75 331.7 31.7 331.65 31.3 330.8 Q29.5 331.65 35.8 320.1 42.05 308.55 70.95 309.7 M-154.1 331.95 Q-153.85 330.2 -153.1 328.55 -148.7 320.85 -142.2 314.05 L-142.4 314.25 -134.45 313.15 Q-127.9 311.95 -116.95 316.7 -106.1 321.4 -106.05 333.0 -133.45 333.55 -154.1 331.95 M56.2 8.0 L57.8 15.3 56.2 8.0 M51.2 43.5 Q45.45 47.25 51.75 52.75 58.0 58.25 61.85 59.05 65.7 59.85 63.65 54.5 61.6 49.1 51.2 43.5 M-69.65 -112.4 L-68.75 -112.1 -69.65 -112.4 M-62.15 -58.05 L-62.0 -57.1 -62.15 -58.05 M-52.85 13.1 Q-57.0 17.0 -64.65 26.0 -72.3 34.95 -82.85 38.05 -93.4 41.1 -95.85 44.0 -98.3 46.85 -96.95 46.8 -79.4 46.4 -70.2 37.85 L-54.1 23.3 Q-47.25 17.3 -52.85 13.1 M-135.55 307.7 L-135.75 307.9 -135.85 308.0 -135.55 307.7" fill="#4c97d9" fill-rule="evenodd" stroke="none"/>
    <path d="M15.9 -126.7 L15.75 -126.9 15.8 -128.05 15.85 -127.35 15.9 -126.7 M5.75 -119.25 Q6.05 -117.5 14.5 -97.5 22.95 -77.55 24.35 -44.5 25.75 -11.45 24.65 13.0 23.75 32.85 14.7 58.6 L14.6 58.9 14.3 59.75 Q12.0 63.3 -4.15 65.35 -20.3 67.3 -29.0 64.6 L-40.15 61.05 Q-41.0 57.3 -41.25 52.65 L-39.45 53.1 -31.35 55.05 Q-16.0 58.9 0.15 57.45 7.45 56.8 10.95 52.85 17.15 50.55 6.95 52.9 -3.25 55.2 -19.2 52.4 -35.2 49.55 -41.4 47.7 -41.25 26.8 -31.5 -9.3 L-30.9 -11.55 -29.9 -15.15 Q-22.7 -42.15 -22.4 -66.5 -22.05 -62.4 -19.7 -50.15 -17.4 -37.9 -11.3 -18.5 -5.25 0.9 12.15 22.35 2.2 6.45 -7.05 -28.05 L-22.45 -85.7 Q-22.25 -87.75 -22.2 -89.9 -22.1 -97.4 -24.5 -105.85 L-24.95 -107.35 Q-9.9 -102.9 5.35 -107.6 L5.45 -108.0 5.55 -108.75 5.45 -109.55 5.5 -109.65 3.8 -109.5 -10.35 -111.0 Q-21.8 -112.7 -27.8 -115.25 L-27.65 -114.95 Q-30.05 -120.65 -33.45 -126.85 -22.95 -117.65 -12.0 -118.0 L1.45 -118.55 4.2 -118.9 5.7 -119.25 5.75 -119.25 M9.75 70.85 L10.1 70.75 10.35 70.05 10.1 70.8 9.75 70.85 M92.45 329.7 Q92.65 333.35 91.15 337.65 30.25 341.65 3.55 336.4 2.25 332.5 2.55 329.3 L19.7 330.9 30.9 331.6 31.7 331.65 31.75 331.7 31.45 331.75 Q30.35 331.8 31.8 331.85 54.7 332.85 92.45 329.7 M-79.65 331.95 L-80.25 339.9 Q-140.0 343.0 -153.1 339.9 -154.7 335.65 -154.1 331.95 -133.45 333.55 -106.05 333.0 L-104.9 332.95 -104.05 332.95 -99.3 332.8 -97.7 332.75 -79.65 331.95" fill="#1b2734" fill-rule="evenodd" stroke="none"/>
    <path d="M63.5 83.15 L67.65 139.1 Q73.9 188.05 67.25 243.75 L67.25 277.2 Q70.0 289.15 70.0 298.15 L69.95 300.5 Q40.45 298.65 13.1 308.2 13.1 306.9 10.65 298.05 8.2 289.2 8.75 275.0 9.2 260.7 10.35 250.1 11.25 244.5 11.2 239.8 11.1 225.2 13.55 210.85 14.15 207.0 22.4 198.55 14.85 190.25 11.05 168.8 7.2 147.3 7.15 113.6 7.1 86.1 2.05 84.5 L4.8 83.85 2.05 84.5 Q0.9 84.15 -0.5 85.1 L-0.55 85.1 -0.7 85.0 Q-2.4 85.1 -3.55 85.85 L-3.6 85.85 Q-4.7 86.55 -5.4 87.85 L-5.55 86.3 -15.85 88.75 -17.55 93.25 Q-18.85 91.6 -20.8 90.2 -22.6 90.25 -23.25 91.8 -30.55 108.45 -36.35 127.6 -42.2 146.7 -47.45 170.0 -52.75 193.3 -59.85 201.2 -63.55 205.3 -64.95 204.6 -61.2 214.75 -61.5 225.45 -61.8 236.15 -63.45 259.2 -65.1 282.25 -73.3 310.55 -75.7 309.95 -97.4 301.8 -119.15 293.65 -132.7 298.5 -142.9 302.15 -144.5 303.95 L-143.9 300.15 Q-141.25 286.1 -130.25 254.85 -114.95 211.25 -108.2 170.35 -98.75 113.0 -89.7 82.7 -86.3 83.15 -82.45 82.55 L-61.05 79.25 -44.75 77.1 Q-39.6 78.45 -35.4 80.3 L-36.15 76.25 6.45 75.4 Q6.25 76.4 3.95 80.65 1.65 84.9 29.05 85.4 56.45 85.85 59.7 84.6 L63.5 83.15 M-15.85 88.75 L-24.35 90.75 -15.85 88.75 M-3.6 85.85 L-5.55 86.3 -3.6 85.85" fill="#283e5d" fill-rule="evenodd" stroke="none"/>
    <path d="M45.65 -190.8 L44.15 -193.35 44.25 -193.7 45.05 -198.55 45.45 -201.4 48.55 -202.4 48.7 -202.45 Q47.6 -196.5 45.65 -190.8 M46.35 -221.2 Q18.55 -220.85 -6.7 -219.95 -5.85 -221.6 -6.5 -223.4 -7.55 -226.3 -10.75 -226.55 -16.4 -225.05 -22.25 -223.0 L-36.65 -218.0 Q-44.3 -215.35 -52.4 -215.1 -57.3 -214.95 -61.3 -213.65 L-59.7 -230.1 Q-12.95 -239.25 35.6 -237.85 42.85 -230.45 46.35 -221.2 M-63.1 -194.95 L-53.25 -195.8 Q-53.9 -194.35 -53.65 -192.8 -53.35 -190.8 -51.55 -190.7 -41.15 -190.05 -32.35 -187.9 -35.25 -185.5 -36.35 -181.55 -36.85 -179.7 -35.4 -179.3 -22.55 -175.9 -9.0 -182.9 10.4 -192.9 30.25 -190.95 L28.55 -190.85 27.75 -190.65 Q24.8 -189.35 26.9 -187.2 28.4 -185.65 30.75 -185.5 32.25 -185.4 32.95 -186.7 34.7 -190.05 32.0 -190.75 L34.1 -190.45 Q36.0 -182.9 28.6 -162.95 L22.5 -157.35 20.75 -156.0 16.8 -153.4 Q13.1 -151.25 9.35 -149.85 7.05 -150.8 -12.4 -155.3 -31.9 -159.8 -55.35 -183.0 -56.85 -182.3 -57.85 -181.5 L-59.5 -184.1 Q-62.9 -190.1 -63.1 -194.95 M-38.3 -152.55 Q-34.75 -150.25 -30.35 -143.3 -26.0 -136.35 4.5 -131.75 L4.55 -131.75 6.0 -131.55 Q6.0 -130.0 5.65 -128.45 4.6 -123.65 4.2 -118.9 L1.45 -118.55 -12.0 -118.0 Q-22.95 -117.65 -33.45 -126.85 L-37.1 -133.0 -38.05 -134.6 -40.5 -138.6 -40.55 -138.7 -41.4 -140.65 -41.45 -140.85 Q-42.3 -144.6 -37.95 -146.6 L-38.15 -142.9 -37.95 -146.6 -37.95 -147.5 -38.0 -148.05 -38.3 -152.55 M-0.9 -127.0 L1.95 -131.25 4.5 -131.75 1.95 -131.25 -0.9 -127.0 M57.3 7.95 Q53.0 4.3 67.2 -13.6 81.4 -31.5 89.35 -33.7 97.25 -35.95 98.25 -32.8 L98.05 -30.6 97.9 -29.5 96.65 -24.05 Q89.4 0.4 77.4 16.9 75.95 13.15 71.7 11.15 66.0 8.45 57.3 7.95 M-13.9 -126.85 L-17.65 -131.45 -37.1 -133.0 -17.65 -131.45 -13.9 -126.85" fill="#ffe8d7" fill-rule="evenodd" stroke="none"/>
    <path d="M66.65 38.45 L64.5 41.1 Q62.25 33.4 59.95 24.05 L59.9 23.95 59.9 23.9 59.85 23.75 59.85 23.7 Q67.8 29.9 66.65 38.45" fill="#233446" fill-rule="evenodd" stroke="none"/>
    <path d="M6.15 -149.75 L7.6 -149.7 8.65 -149.65 9.35 -149.85 Q13.1 -151.25 16.8 -153.4 L20.0 -151.95 Q21.9 -150.75 22.1 -150.65 L23.6 -149.65 Q23.25 -146.4 22.1 -142.8 21.25 -140.2 21.8 -124.1 22.3 -108.0 25.65 -87.6 26.05 -90.1 26.8 -92.5 30.7 -105.25 43.1 -115.45 L55.05 -125.8 67.35 -117.4 67.55 -117.15 67.95 -116.7 Q66.7 -117.65 62.4 -119.55 58.05 -121.45 56.4 -106.8 50.95 -58.35 55.35 -40.9 57.45 -32.4 59.65 -29.5 55.0 -29.55 51.55 -30.45 L50.75 -39.3 50.25 -45.5 Q49.5 -56.25 49.25 -67.35 L49.2 -69.1 49.1 -75.3 49.2 -69.1 49.2 -67.6 49.2 -67.15 49.4 -54.8 49.45 -53.75 49.45 -54.0 49.4 -54.8 49.45 -54.0 Q48.7 -64.1 49.1 -75.3 49.0 -79.6 49.05 -83.95 L49.4 -86.45 50.0 -90.6 Q50.75 -104.6 48.8 -112.05 36.2 -98.8 28.9 -80.65 27.7 -77.6 26.45 -76.0 L24.75 -87.15 Q18.05 -97.7 15.9 -126.7 L15.85 -127.35 15.8 -128.05 15.8 -128.1 15.8 -128.2 15.8 -128.4 15.4 -133.9 15.15 -139.25 Q13.75 -142.65 8.15 -146.1 L8.1 -146.35 7.85 -146.25 6.15 -147.25 6.15 -149.75 M36.75 -138.95 L37.25 -138.8 Q36.75 -135.2 34.8 -133.3 32.8 -131.4 32.8 -134.1 32.75 -136.85 29.6 -144.6 L30.45 -143.8 34.15 -140.0 34.35 -139.75 34.8 -139.3 35.15 -139.25 36.75 -138.95 M-33.45 -126.85 Q-30.05 -120.65 -27.65 -114.95 L-27.65 -114.9 -27.45 -114.35 -24.95 -107.35 -24.5 -105.85 Q-22.1 -97.4 -22.2 -89.9 -22.25 -87.75 -22.45 -85.7 L-22.65 -84.15 -22.65 -84.1 -22.85 -83.55 -23.05 -83.3 -23.1 -83.3 -23.0 -82.9 -22.5 -75.0 -23.8 -75.75 Q-36.85 -85.2 -49.2 -95.8 -45.2 -90.35 -44.2 -82.35 -41.7 -61.9 -54.2 -45.6 L-60.15 -37.25 Q-62.0 -34.5 -63.55 -33.3 -62.3 -41.55 -61.85 -51.45 -56.65 -60.75 -54.85 -71.2 -52.9 -82.25 -56.55 -93.1 -58.3 -98.2 -53.55 -99.6 L-57.3 -102.95 Q-62.95 -108.1 -69.45 -112.3 L-68.75 -112.1 -35.5 -93.9 -35.1 -93.5 -34.45 -92.8 -34.25 -92.55 -32.65 -90.55 -28.75 -86.7 Q-25.4 -83.6 -23.9 -83.25 L-23.45 -83.2 -23.1 -83.3 -23.45 -83.2 -23.9 -83.25 Q-25.4 -83.6 -28.75 -86.7 -19.05 -78.45 -30.3 -105.85 -41.55 -133.3 -38.85 -134.35 L-38.05 -134.6 -37.1 -133.0 -33.45 -126.85 M50.35 -36.15 L50.35 -36.55 50.7 -31.5 50.7 -31.7 Q50.4 -33.4 50.35 -35.2 L50.35 -36.15 50.7 -31.7 50.35 -36.15 M25.65 -87.6 L25.5 -86.9 25.4 -86.15 24.75 -87.15 25.4 -86.15 25.5 -86.9 25.65 -87.6 M50.0 -90.6 Q52.2 -105.5 54.4 -115.05 52.2 -105.5 50.0 -90.6 M76.55 26.1 L75.7 28.25 74.75 30.2 Q74.45 28.7 73.4 27.35 71.75 25.15 71.45 22.65 71.35 21.6 72.5 21.5 75.2 23.65 76.55 26.1 M70.55 35.95 L69.7 36.65 67.05 38.3 66.85 38.4 66.65 38.45 Q67.8 29.9 59.85 23.7 L59.2 21.1 57.85 15.5 57.8 15.3 Q64.75 17.95 67.85 25.25 70.0 30.4 70.55 35.95 L69.7 36.65 70.55 35.95 M64.5 41.1 L65.65 44.9 64.6 45.4 Q64.05 45.75 61.0 40.65 57.9 35.55 54.3 28.85 50.65 22.1 51.7 21.75 L52.5 21.55 Q58.0 27.15 62.3 34.45 L64.2 41.45 64.5 41.1 M66.35 306.75 L70.95 309.7 Q42.05 308.55 35.8 320.1 29.5 331.65 31.3 330.8 L31.7 331.65 30.9 331.6 19.7 330.9 2.55 329.3 Q2.8 326.6 4.2 324.4 13.2 322.6 23.1 316.4 24.3 315.7 25.55 315.05 L29.95 312.85 Q36.8 309.75 44.2 308.15 54.3 306.0 65.4 306.7 L66.35 306.75 M-142.2 314.05 L-142.15 313.95 -141.95 313.75 -141.3 313.05 -135.85 308.0 -135.75 307.9 -135.55 307.7 -133.65 307.6 Q-125.65 307.15 -118.5 307.5 -103.9 308.2 -93.05 312.1 -84.25 315.3 -78.6 318.45 L-79.65 331.95 -97.7 332.75 -99.3 332.8 -104.05 332.95 -104.9 332.95 -106.05 333.0 Q-106.1 321.4 -116.95 316.7 -127.9 311.95 -134.45 313.15 L-142.4 314.25 -142.2 314.05 M-87.4 -110.15 L-84.3 -113.65 -83.6 -114.45 -83.0 -115.1 -82.95 -115.15 -82.8 -115.35 -82.75 -115.4 -79.9 -115.4 -69.65 -112.4 Q-71.95 -104.5 -82.55 -108.25 L-87.8 -109.65 -87.4 -110.15 M-67.85 -132.45 L-67.6 -132.6 -64.8 -133.9 -64.4 -134.1 -63.75 -135.2 -63.5 -135.55 -63.25 -135.9 -61.6 -138.3 -61.4 -138.55 Q-51.95 -134.3 -62.65 -129.8 -66.95 -128.0 -67.85 -132.45 M51.2 43.5 Q61.6 49.1 63.65 54.5 65.7 59.85 61.85 59.05 58.0 58.25 51.75 52.75 45.45 47.25 51.2 43.5 M31.75 331.7 L31.8 331.85 Q30.35 331.8 31.45 331.75 L31.75 331.7 M-92.0 45.35 Q-68.95 38.3 -52.25 17.15 L-51.1 15.6 -52.25 17.15 Q-68.95 38.3 -92.0 45.35 M-52.85 13.1 Q-47.25 17.3 -54.1 23.3 L-70.2 37.85 Q-79.4 46.4 -96.95 46.8 -98.3 46.85 -95.85 44.0 -93.4 41.1 -82.85 38.05 -72.3 34.95 -64.65 26.0 -57.0 17.0 -52.85 13.1 M-97.7 332.75 L-99.3 332.8 -97.7 332.75" fill="#3572b4" fill-rule="evenodd" stroke="none"/>
    <path d="M48.7 -202.45 L48.55 -202.4 45.45 -201.4 45.05 -198.55 44.25 -193.7 44.15 -193.35 45.65 -190.8 45.45 -190.15 45.65 -190.8 45.65 -190.75 45.45 -190.15 41.75 -181.45 41.6 -181.15 39.45 -177.0 39.3 -176.8 Q34.15 -168.75 28.6 -162.95 36.0 -182.9 34.1 -190.45 L32.0 -190.75 30.25 -190.95 Q10.4 -192.9 -9.0 -182.9 -22.55 -175.9 -35.4 -179.3 -36.85 -179.7 -36.35 -181.55 -35.25 -185.5 -32.35 -187.9 -41.15 -190.05 -51.55 -190.7 -53.35 -190.8 -53.65 -192.8 -53.9 -194.35 -53.25 -195.8 L-63.1 -194.95 -63.05 -196.8 -63.0 -196.8 -61.35 -213.4 -61.3 -213.65 Q-57.3 -214.95 -52.4 -215.1 -44.3 -215.35 -36.65 -218.0 L-22.25 -223.0 Q-16.4 -225.05 -10.75 -226.55 -7.55 -226.3 -6.5 -223.4 -5.85 -221.6 -6.7 -219.95 18.55 -220.85 46.35 -221.2 48.8 -214.75 49.4 -207.35 L48.7 -202.45 M6.15 -149.75 L4.25 -149.9 3.8 -149.9 3.65 -149.9 2.75 -150.0 2.55 -150.0 0.95 -150.15 Q-20.05 -151.45 -25.4 -155.85 -34.55 -159.25 -41.75 -164.4 -34.55 -159.25 -25.4 -155.85 -20.05 -151.45 0.95 -150.15 L2.55 -150.0 2.75 -150.0 3.65 -149.9 3.8 -149.9 4.25 -149.9 6.15 -149.75 6.15 -147.25 7.85 -146.25 8.15 -146.1 Q13.75 -142.65 15.15 -139.25 L15.4 -133.9 4.55 -131.75 15.4 -133.9 15.8 -128.4 15.8 -128.2 15.8 -128.1 15.8 -128.05 15.75 -126.9 Q15.35 -124.7 13.15 -123.45 L5.75 -119.25 5.7 -119.25 4.2 -118.9 Q4.6 -123.65 5.65 -128.45 6.0 -130.0 6.0 -131.55 L4.55 -131.75 4.5 -131.75 Q-26.0 -136.35 -30.35 -143.3 -34.75 -150.25 -38.3 -152.55 L-38.45 -153.4 -39.95 -159.3 Q-40.85 -162.45 -41.75 -164.4 -50.9 -170.9 -57.0 -180.25 L-57.5 -180.95 -57.7 -181.3 -57.75 -181.35 -57.85 -181.5 Q-56.85 -182.3 -55.35 -183.0 -31.9 -159.8 -12.4 -155.3 7.05 -150.8 9.35 -149.85 L8.65 -149.65 7.6 -149.7 6.15 -149.75 M6.15 -141.9 L6.15 -147.25 6.15 -141.9 M62.05 -29.5 L64.2 -29.55 64.5 -29.5 Q66.25 -29.15 77.85 -32.45 89.4 -35.8 96.7 -41.2 98.45 -38.1 98.25 -32.8 97.25 -35.95 89.35 -33.7 81.4 -31.5 67.2 -13.6 53.0 4.3 57.3 7.95 L56.25 7.9 56.2 8.0 56.0 6.95 55.75 5.8 55.6 5.05 62.05 -29.5" fill="#e0bcaa" fill-rule="evenodd" stroke="none"/>
    <path d="M30.25 -190.95 L32.0 -190.75 Q34.7 -190.05 32.95 -186.7 32.25 -185.4 30.75 -185.5 28.4 -185.65 26.9 -187.2 24.8 -189.35 27.75 -190.65 L28.55 -190.85 30.25 -190.95" fill="#fffce9" fill-rule="evenodd" stroke="none"/>
    <path d="M15.75 -126.9 L15.9 -126.7 Q18.05 -97.7 24.75 -87.15 L26.45 -76.0 Q28.5 -61.25 29.45 -47.5 L29.75 -43.4 30.15 -35.9 Q34.5 40.65 16.0 69.65 L10.1 70.8 10.35 70.05 10.1 70.75 9.75 70.85 4.3 71.5 Q-4.4 72.4 -14.0 70.45 L-23.75 68.5 Q-29.75 66.85 -36.1 65.8 L-38.9 65.35 -39.0 65.05 -40.15 61.05 -29.0 64.6 Q-20.3 67.3 -4.15 65.35 12.0 63.3 14.3 59.75 L14.6 58.9 14.7 58.6 Q23.75 32.85 24.65 13.0 25.75 -11.45 24.35 -44.5 22.95 -77.55 14.5 -97.5 6.05 -117.5 5.75 -119.25 L13.15 -123.45 Q15.35 -124.7 15.75 -126.9 M-27.65 -114.95 L-27.8 -115.25 Q-21.8 -112.7 -10.35 -111.0 L3.8 -109.5 5.5 -109.65 5.45 -109.55 5.55 -108.75 5.45 -108.0 5.35 -107.6 Q-9.9 -102.9 -24.95 -107.35 L-27.45 -114.35 -27.65 -114.9 -27.65 -114.95 M-22.45 -85.7 L-7.05 -28.05 Q2.2 6.45 12.15 22.35 -5.25 0.9 -11.3 -18.5 -17.4 -37.9 -19.7 -50.15 -22.05 -62.4 -22.4 -66.5 L-22.4 -67.8 -22.5 -75.0 -23.0 -82.9 -23.05 -83.3 -22.85 -83.55 -22.65 -84.1 -22.65 -84.15 -22.45 -85.7 M-41.4 47.7 Q-35.2 49.55 -19.2 52.4 -3.25 55.2 6.95 52.9 17.15 50.55 10.95 52.85 7.45 56.8 0.15 57.45 -16.0 58.9 -31.35 55.05 L-39.45 53.1 -41.25 52.65 -41.3 52.3 -41.4 47.7" fill="#070a0e" fill-rule="evenodd" stroke="none"/>
    <path d="M-38.9 65.35 L-36.1 65.8 Q-29.75 66.85 -23.75 68.5 L-14.0 70.45 Q-4.4 72.4 4.3 71.5 L9.75 70.85 10.1 70.8 16.0 69.65 14.9 71.3 Q12.55 74.7 9.8 77.4 15.25 78.65 20.45 79.0 L40.0 81.3 Q52.6 83.15 63.3 77.75 L63.3 79.9 63.25 79.9 63.5 83.15 59.7 84.6 Q56.45 85.85 29.05 85.4 1.65 84.9 3.95 80.65 6.25 76.4 6.45 75.4 L-36.15 76.25 Q-37.6 68.8 -38.9 65.35 M69.95 300.5 Q69.8 304.0 69.2 307.0 L66.35 306.75 65.4 306.7 Q54.3 306.0 44.2 308.15 36.8 309.75 29.95 312.85 L25.55 315.05 Q24.3 315.7 23.1 316.4 13.2 322.6 4.2 324.4 L-3.5 325.1 -8.25 324.6 Q-14.75 301.1 -5.7 266.15 L-4.7 262.35 -4.55 261.75 5.55 191.95 -5.4 87.85 Q-4.7 86.55 -3.6 85.85 L-3.55 85.85 Q-2.4 85.1 -0.7 85.0 L-0.55 85.1 -3.6 85.85 -0.55 85.1 -0.5 85.1 Q0.9 84.15 2.05 84.5 7.1 86.1 7.15 113.6 7.2 147.3 11.05 168.8 14.85 190.25 22.4 198.55 14.15 207.0 13.55 210.85 11.1 225.2 11.2 239.8 11.25 244.5 10.35 250.1 9.2 260.7 8.75 275.0 8.2 289.2 10.65 298.05 13.1 306.9 13.1 308.2 40.45 298.65 69.95 300.5 M-17.55 93.25 Q-38.25 148.8 -53.55 233.1 -55.8 295.3 -69.55 326.15 -73.2 332.4 -79.65 331.95 L-78.6 318.45 Q-84.25 315.3 -93.05 312.1 -103.9 308.2 -118.5 307.5 -125.65 307.15 -133.65 307.6 L-135.55 307.7 -135.85 308.0 -141.3 313.05 -141.95 313.75 -142.15 313.95 Q-144.6 311.75 -144.7 308.5 -144.85 307.05 -144.6 305.0 -145.05 304.55 -144.5 303.95 -142.9 302.15 -132.7 298.5 -119.15 293.65 -97.4 301.8 -75.7 309.95 -73.3 310.55 -65.1 282.25 -63.45 259.2 -61.8 236.15 -61.5 225.45 -61.2 214.75 -64.95 204.6 -63.55 205.3 -59.85 201.2 -52.75 193.3 -47.45 170.0 -42.2 146.7 -36.35 127.6 -30.55 108.45 -23.25 91.8 -22.6 90.25 -20.8 90.2 -18.85 91.6 -17.55 93.25 M-89.7 82.7 L-88.85 79.85 -85.9 70.95 Q-82.2 72.25 -78.15 73.15 L-75.5 73.25 Q-57.2 73.8 -44.75 77.1 L-61.05 79.25 -82.45 82.55 Q-86.3 83.15 -89.7 82.7 M-0.5 85.1 L2.05 84.5 -0.5 85.1 M-144.5 303.95 L-144.6 305.0 -144.5 303.95 M-144.7 308.5 L-135.55 307.7 -144.7 308.5 M-78.6 318.45 Q-71.7 322.35 -69.55 326.15 -71.7 322.35 -78.6 318.45" fill="#182538" fill-rule="evenodd" stroke="none"/>
    <path d="M45.65 -190.8 Q47.6 -196.5 48.7 -202.45 L49.4 -207.35 Q48.8 -214.75 46.35 -221.2 42.85 -230.45 35.6 -237.85 -12.95 -239.25 -59.7 -230.1 L-61.3 -213.65 M-61.35 -213.4 L-63.0 -196.8 M28.6 -162.95 Q34.15 -168.75 39.3 -176.8 L39.45 -177.0 41.6 -181.15 41.75 -181.45 45.45 -190.15 45.65 -190.8 M-41.75 -164.4 Q-34.55 -159.25 -25.4 -155.85 -20.05 -151.45 0.95 -150.15 L2.55 -150.0 2.75 -150.0 3.65 -149.9 3.8 -149.9 4.25 -149.9 6.15 -149.75 7.6 -149.7 M-57.75 -181.35 L-57.7 -181.3 -57.5 -180.95 -57.0 -180.25 Q-50.9 -170.9 -41.75 -164.4 M-39.95 -159.3 L-38.45 -153.4 -38.3 -152.55 -38.0 -148.05 -37.95 -147.5 -37.95 -146.6 Q-42.3 -144.6 -41.45 -140.85 L-41.4 -140.65 -40.55 -138.7 -40.5 -138.6 -38.05 -134.6 -37.1 -133.0 -17.65 -131.45 -13.9 -126.85 M4.55 -131.75 L15.4 -133.9 15.15 -139.25 Q13.75 -142.65 8.15 -146.1 L7.85 -146.25 6.15 -147.25 6.15 -141.9 M23.6 -149.65 L22.1 -150.65 Q21.9 -150.75 20.0 -151.95 L16.8 -153.4 Q13.1 -151.25 9.35 -149.85 M16.8 -153.4 L20.75 -156.0 22.5 -157.35 28.6 -162.95 M29.6 -144.6 Q26.2 -147.8 23.6 -149.65 M25.65 -87.6 Q26.05 -90.1 26.8 -92.5 30.7 -105.25 43.1 -115.45 L55.05 -125.8 Q57.7 -128.35 57.05 -128.5 49.0 -136.35 37.4 -138.8 L36.75 -138.95 35.15 -139.25 34.8 -139.3 34.35 -139.75 34.15 -140.0 30.45 -143.8 29.6 -144.6 M4.5 -131.75 L1.95 -131.25 -0.9 -127.0 M15.9 -126.7 L15.85 -127.35 15.8 -128.05 15.75 -126.9 Q15.35 -124.7 13.15 -123.45 L5.75 -119.25 5.7 -119.25 M-40.15 61.05 L-39.0 65.05 -38.9 65.35 -36.1 65.8 Q-29.75 66.85 -23.75 68.5 L-14.0 70.45 Q-4.4 72.4 4.3 71.5 L9.75 70.85 10.1 70.8 16.0 69.65 Q34.5 40.65 30.15 -35.9 L29.75 -43.4 29.45 -47.5 Q28.5 -61.25 26.45 -76.0 L24.75 -87.15 Q18.05 -97.7 15.9 -126.7 M15.4 -133.9 L15.8 -128.4 15.8 -128.2 15.8 -128.1 15.8 -128.05 M4.2 -118.9 L1.45 -118.55 -12.0 -118.0 Q-22.95 -117.65 -33.45 -126.85 -30.05 -120.65 -27.65 -114.95 L-27.65 -114.9 -27.45 -114.35 -24.95 -107.35 -24.5 -105.85 Q-22.1 -97.4 -22.2 -89.9 -22.25 -87.75 -22.45 -85.7 L-22.65 -84.15 -22.65 -84.1 -22.85 -83.55 -23.05 -83.3 -23.0 -82.9 -22.5 -75.0 -22.4 -67.8 -22.4 -66.5 Q-22.7 -42.15 -29.9 -15.15 L-30.9 -11.55 -31.5 -9.3 Q-41.25 26.8 -41.4 47.7 L-41.3 52.3 -41.25 52.65 Q-41.0 57.3 -40.15 61.05 M59.65 -29.5 L62.05 -29.5 64.2 -29.55 64.5 -29.5 Q66.25 -29.15 77.85 -32.45 89.4 -35.8 96.7 -41.2 L101.4 -45.0 Q99.9 -54.2 96.65 -59.7 93.4 -65.2 90.75 -70.65 88.05 -76.15 82.95 -89.9 77.8 -103.7 70.75 -113.15 L67.95 -116.7 M67.55 -117.15 L67.35 -117.4 55.05 -125.8 M6.15 -149.75 L6.15 -147.25 M50.0 -90.6 L49.4 -86.45 49.05 -83.95 Q49.0 -79.6 49.1 -75.3 L49.2 -69.1 49.25 -67.35 Q49.5 -56.25 50.25 -45.5 L50.75 -39.3 51.55 -30.45 Q55.0 -29.55 59.65 -29.5 M49.45 -54.0 Q49.7 -44.9 50.35 -36.15 L50.7 -31.7 Q52.2 -13.2 55.3 3.25 L55.4 3.8 55.5 4.3 55.6 5.05 62.05 -29.5 M49.45 -54.0 L49.4 -54.8 49.2 -67.15 49.2 -67.6 49.2 -69.1 M24.75 -87.15 L25.4 -86.15 25.5 -86.9 25.65 -87.6 M57.3 7.95 Q66.0 8.45 71.7 11.15 75.95 13.15 77.4 16.9 89.4 0.4 96.65 -24.05 L97.9 -29.5 98.05 -30.6 98.25 -32.8 Q98.45 -38.1 96.7 -41.2 M54.4 -115.05 Q52.2 -105.5 50.0 -90.6 M77.4 16.9 Q78.05 18.5 78.15 20.4 L76.75 25.45 76.55 26.1 75.7 28.25 74.75 30.2 72.2 34.15 71.3 35.2 70.55 35.95 69.7 36.65 67.05 38.3 66.85 38.4 66.65 38.45 64.5 41.1 65.65 44.9 Q71.05 63.8 72.45 74.5 L63.3 77.75 63.3 79.9 63.25 79.9 63.5 83.15 67.65 139.1 Q73.9 188.05 67.25 243.75 L67.25 277.2 Q70.0 289.15 70.0 298.15 L69.95 300.5 Q69.8 304.0 69.2 307.0 L66.35 306.75 70.95 309.7 88.65 321.05 Q92.15 324.75 92.45 329.7 92.65 333.35 91.15 337.65 30.25 341.65 3.55 336.4 2.25 332.5 2.55 329.3 2.8 326.6 4.2 324.4 L-3.5 325.1 -8.25 324.6 Q-14.75 301.1 -5.7 266.15 L-4.7 262.35 -4.55 261.75 5.55 191.95 -5.4 87.85 -5.55 86.3 -15.85 88.75 -17.55 93.25 Q-38.25 148.8 -53.55 233.1 -55.8 295.3 -69.55 326.15 -73.2 332.4 -79.65 331.95 L-80.25 339.9 Q-140.0 343.0 -153.1 339.9 -154.7 335.65 -154.1 331.95 -153.85 330.2 -153.1 328.55 -148.7 320.85 -142.2 314.05 L-142.15 313.95 Q-144.6 311.75 -144.7 308.5 -144.85 307.05 -144.6 305.0 L-144.5 303.95 -143.9 300.15 Q-141.25 286.1 -130.25 254.85 -114.95 211.25 -108.2 170.35 -98.75 113.0 -89.7 82.7 L-88.85 79.85 -85.9 70.95 Q-95.0 67.75 -102.5 62.1 -107.05 58.65 -110.95 54.35 -117.2 47.55 -119.0 42.3 -119.6 40.6 -102.15 25.25 -84.7 9.9 -73.95 -4.15 -66.5 -13.9 -63.55 -33.3 -62.3 -41.55 -61.85 -51.45 L-61.8 -52.4 -61.9 -56.15 -62.0 -57.1 Q-89.7 -75.0 -95.65 -95.45 -95.0 -99.05 -92.25 -103.45 L-91.65 -104.4 -91.45 -104.75 -87.4 -110.15 -84.3 -113.65 -83.6 -114.45 -83.0 -115.1 -82.95 -115.15 -82.8 -115.35 -82.75 -115.4 -85.55 -115.4 Q-82.15 -125.25 -68.5 -132.15 L-68.45 -132.15 -67.85 -132.45 -67.6 -132.6 -64.8 -133.9 -64.4 -134.1 -63.75 -135.2 M-63.5 -135.55 L-63.25 -135.9 -61.6 -138.3 -58.7 -141.7 -54.85 -145.35 -54.15 -145.95 -50.8 -148.35 -50.3 -148.65 Q-45.15 -151.75 -38.45 -153.4 M55.6 5.05 L55.75 5.8 56.0 6.95 56.2 8.0 56.25 7.9 57.3 7.95 M59.85 23.7 L59.2 21.1 57.85 15.5 57.8 15.3 56.2 8.0 M62.3 34.45 L60.85 28.4 59.95 24.05 59.9 23.95 59.9 23.9 59.85 23.75 59.85 23.7 Q67.8 29.9 66.65 38.45 M64.5 41.1 L64.2 41.45 62.3 34.45 M64.5 41.1 Q62.25 33.4 59.95 24.05 M16.0 69.65 L14.9 71.3 Q12.55 74.7 9.8 77.4 15.25 78.65 20.45 79.0 L40.0 81.3 Q52.6 83.15 63.3 77.75 M2.05 84.5 L4.8 83.85 M-36.15 76.25 L-35.4 80.3 Q-39.6 78.45 -44.75 77.1 -57.2 73.8 -75.5 73.25 L-78.15 73.15 Q-82.2 72.25 -85.9 70.95 M4.2 324.4 Q13.2 322.6 23.1 316.4 24.3 315.7 25.55 315.05 L29.95 312.85 Q36.8 309.75 44.2 308.15 54.3 306.0 65.4 306.7 L66.35 306.75 M2.55 329.3 L19.7 330.9 30.9 331.6 31.7 331.65 31.75 331.7 31.45 331.75 M31.8 331.85 Q54.7 332.85 92.45 329.7 M-63.1 -194.95 Q-62.9 -190.1 -59.5 -184.1 L-57.85 -181.5 M-68.75 -112.1 L-69.65 -112.4 -79.9 -115.4 -82.75 -115.4 M-37.1 -133.0 L-33.45 -126.85 M-37.95 -146.6 L-38.15 -142.9 M-28.75 -86.7 L-32.65 -90.55 -34.25 -92.55 -34.45 -92.8 -35.1 -93.5 -35.5 -93.9 -68.75 -112.1 M-23.05 -83.3 L-23.1 -83.3 -23.0 -82.9 M-23.1 -83.3 L-23.45 -83.2 -23.9 -83.25 Q-25.4 -83.6 -28.75 -86.7 M-62.0 -57.1 L-62.15 -58.05 M-51.1 15.6 L-52.25 17.15 Q-68.95 38.3 -92.0 45.35 M-3.6 85.85 L-0.55 85.1 M2.05 84.5 L-0.5 85.1 M-5.55 86.3 L-3.6 85.85 M-24.35 90.75 L-15.85 88.75 M-36.15 76.25 Q-37.6 68.8 -38.9 65.35 M-106.05 333.0 L-104.9 332.95 -104.05 332.95 -99.3 332.8 -97.7 332.75 -79.65 331.95 -78.6 318.45 Q-84.25 315.3 -93.05 312.1 -103.9 308.2 -118.5 307.5 -125.65 307.15 -133.65 307.6 L-135.55 307.7 -135.75 307.9 -135.85 308.0 -141.3 313.05 -141.95 313.75 -142.15 313.95 M-135.85 308.0 L-135.55 307.7 -144.7 308.5 M-154.1 331.95 Q-133.45 333.55 -106.05 333.0 M-69.55 326.15 Q-71.7 322.35 -78.6 318.45" fill="none" stroke="#1a5283" stroke-linecap="round" stroke-linejoin="round" stroke-width="2.0"/>
    <path d="M-47.8 -235.45 L53.95 -236.95 54.1 -236.85 Q64.8 -228.55 70.25 -221.05 75.75 -213.6 74.85 -206.75 67.55 -210.2 60.2 -212.45 L60.55 -209.5 60.6 -209.3 55.5 -208.15 Q56.7 -217.5 53.2 -227.6 L51.25 -232.5 53.2 -227.6 Q56.7 -217.5 55.5 -208.15 L52.85 -207.6 47.95 -206.9 46.6 -196.55 46.15 -193.4 Q45.05 -184.5 42.5 -174.65 41.0 -169.05 38.95 -163.85 33.8 -159.25 27.45 -154.75 L31.8 -164.6 33.45 -168.35 34.45 -169.95 Q37.65 -175.85 37.2 -177.0 L37.3 -177.15 37.3 -177.2 39.5 -181.15 33.85 -179.1 33.25 -178.95 34.15 -180.15 Q38.2 -186.05 41.05 -194.25 42.65 -198.9 43.85 -204.25 L43.75 -206.1 43.75 -206.6 33.7 -230.7 -36.1 -224.2 Q-38.85 -218.7 -42.35 -214.1 L-45.05 -210.8 -45.75 -210.05 -40.85 -161.95 -44.45 -164.3 Q-43.7 -162.4 -42.9 -159.3 L-45.15 -155.4 -58.35 -171.45 -60.55 -180.3 Q-65.2 -188.2 -64.5 -196.8 L-64.55 -196.8 -66.75 -222.95 -57.0 -235.35 -47.85 -235.45 -47.8 -235.45 M-60.55 -180.3 Q-55.55 -171.85 -44.45 -164.3 L-44.5 -164.4 Q-53.4 -170.9 -59.15 -180.25 L-59.6 -180.95 -61.5 -184.1 -60.55 -180.3 -61.5 -184.1 -59.6 -180.95 -59.15 -180.25 Q-53.4 -170.9 -44.5 -164.4 L-44.45 -164.3 Q-55.55 -171.85 -60.55 -180.3 M-45.75 -210.05 L-45.8 -210.05 -46.6 -209.15 -47.5 -208.25 -62.7 -197.6 -63.2 -197.4 -64.5 -196.8 -63.2 -197.4 -62.7 -197.6 -47.5 -208.25 -46.6 -209.15 -45.8 -210.05 -45.75 -210.05 M46.6 -196.55 Q45.65 -200.9 43.75 -206.6 45.65 -200.9 46.6 -196.55 M42.7 -183.25 L39.5 -181.15 42.7 -183.25" fill="#091425" fill-rule="evenodd" stroke="none"/>
    <path d="M60.6 -209.3 Q62.6 -185.1 38.95 -163.85 41.0 -169.05 42.5 -174.65 45.05 -184.5 46.15 -193.4 L46.6 -196.55 47.95 -206.9 52.85 -207.6 55.5 -208.15 Q54.15 -198.1 47.3 -188.85 47.5 -191.9 46.6 -196.55 47.5 -191.9 47.3 -188.85 54.15 -198.1 55.5 -208.15 L60.6 -209.3 M31.8 -164.6 Q27.95 -156.55 18.45 -150.85 L15.75 -149.9 20.75 -156.0 Q29.85 -163.05 33.45 -168.35 L31.8 -164.6 M37.2 -177.0 L37.3 -177.2 37.3 -177.15 37.2 -177.0" fill="#132a4c" fill-rule="evenodd" stroke="none"/>
    <path d="M-47.8 -235.45 L53.95 -236.95 54.1 -236.85 Q64.8 -228.55 70.25 -221.05 75.75 -213.6 74.85 -206.75 67.55 -210.2 60.2 -212.45 L60.55 -209.5 M60.6 -209.3 Q62.6 -185.1 38.95 -163.85 33.8 -159.25 27.45 -154.75 L31.8 -164.6 Q27.95 -156.55 18.45 -150.85 L15.75 -149.9 20.75 -156.0 Q29.85 -163.05 33.45 -168.35 L37.2 -177.0 37.3 -177.2 39.5 -181.15 33.85 -179.1 33.25 -178.95 34.15 -180.15 Q38.2 -186.05 41.05 -194.25 42.65 -198.9 43.85 -204.25 L43.75 -206.1 43.75 -206.6 33.7 -230.7 -36.1 -224.2 Q-38.85 -218.7 -42.35 -214.1 L-45.05 -210.8 -45.75 -210.05 -40.85 -161.95 -44.45 -164.3 Q-43.7 -162.4 -42.9 -159.3 L-45.15 -155.4 -58.35 -171.45 -60.55 -180.3 Q-65.2 -188.2 -64.5 -196.8 L-64.55 -196.8 -66.75 -222.95 -57.0 -235.35 -47.85 -235.45 M55.5 -208.15 Q56.7 -217.5 53.2 -227.6 L51.25 -232.5 M46.6 -196.55 Q47.5 -191.9 47.3 -188.85 54.15 -198.1 55.5 -208.15 M37.2 -177.0 L37.3 -177.15 37.3 -177.2 M33.45 -168.35 L34.45 -169.95 Q37.65 -175.85 37.2 -177.0 M31.8 -164.6 L33.45 -168.35 M39.5 -181.15 L42.7 -183.25 M43.75 -206.6 Q45.65 -200.9 46.6 -196.55 M-64.5 -196.8 L-63.2 -197.4 -62.7 -197.6 -47.5 -208.25 -46.6 -209.15 -45.8 -210.05 -45.75 -210.05 M-60.55 -180.3 L-61.5 -184.1 -59.6 -180.95 -59.15 -180.25 Q-53.4 -170.9 -44.5 -164.4 L-44.45 -164.3 Q-55.55 -171.85 -60.55 -180.3" fill="none" stroke="#1a5283" stroke-linecap="round" stroke-linejoin="round" stroke-width="2.0"/>
  </g>
</svg>
