<?xml version="1.0" encoding="UTF-8" standalone="no"?>
<svg xmlns:xlink="http://www.w3.org/1999/xlink" height="581.5px" width="254.5px" xmlns="http://www.w3.org/2000/svg">
  <g transform="matrix(1.0, 0.0, 0.0, 1.0, 155.25, 239.05)">
    <path d="M-92.25 -103.45 L-92.3 -103.45 -91.65 -104.4 -92.25 -103.45 M-23.05 -83.3 L-23.05 -83.15 -23.0 -82.9 -23.05 -83.05 -23.1 -83.3 -23.05 -83.3 M-22.8 -84.1 L-22.7 -83.85 -23.0 -82.9 -22.9 -83.5 -22.8 -84.1" fill="#cccccc" fill-rule="evenodd" stroke="none"/>
    <path d="M27.0 -93.1 Q18.95 -116.0 20.9 -140.5 21.2 -144.3 22.25 -147.9 L22.8 -150.2 22.3 -150.55 Q25.4 -148.6 29.8 -144.45 30.0 -143.45 32.3 -139.25 34.55 -135.1 34.6 -132.65 34.6 -130.2 35.85 -133.35 L38.2 -138.6 Q49.3 -136.1 57.05 -128.5 57.7 -128.35 55.05 -125.8 L43.1 -115.45 Q31.0 -105.5 27.0 -93.1 M7.9 68.35 Q22.0 48.7 27.55 12.6 33.6 -27.15 26.05 -78.6 34.85 -99.9 49.4 -111.1 L48.95 -108.35 Q44.2 -72.35 50.3 -37.1 52.25 -8.45 57.85 15.5 L61.0 29.3 Q56.75 23.65 51.75 18.9 L51.3 19.0 Q50.4 19.15 51.7 22.4 53.0 25.65 57.15 30.85 61.3 36.0 62.4 39.95 63.5 43.9 64.3 44.9 68.25 64.5 68.7 73.65 L62.7 73.95 Q51.05 74.8 33.75 78.25 L20.45 79.0 Q11.7 78.45 2.15 75.25 5.15 72.1 7.9 68.35 M-22.5 -62.1 Q-23.7 -30.05 -36.65 6.45 -44.8 29.4 -48.8 45.95 L-48.95 46.45 -49.75 49.95 Q-51.5 57.8 -52.2 64.05 L-52.3 64.85 -52.35 65.4 -52.4 65.85 -52.4 66.15 -52.45 66.6 -52.65 73.8 -52.6 74.85 Q-59.2 75.3 -65.25 74.95 L-74.05 73.95 -75.75 73.65 -77.1 73.4 Q-81.7 72.45 -85.9 70.95 -95.0 67.75 -102.5 62.1 -107.05 58.65 -110.95 54.35 -117.2 47.55 -121.95 38.5 -120.45 32.7 -90.2 11.25 -60.05 -16.8 -61.9 -56.15 L-62.0 -57.1 Q-89.7 -75.0 -95.65 -95.45 -95.0 -99.05 -92.25 -103.45 L-91.65 -104.4 -91.45 -104.75 -88.4 -108.95 Q-77.6 -109.1 -67.0 -107.1 -54.65 -104.8 -46.0 -95.3 -37.4 -85.8 -30.65 -79.75 -23.95 -73.75 -22.4 -70.0 L-22.4 -69.4 -22.45 -62.65 -22.5 -62.1 M60.05 -122.4 L60.25 -122.25 60.4 -122.15 60.55 -122.05 61.65 -121.3 Q62.6 -119.85 63.1 -120.3 L67.35 -117.4 70.75 -113.15 Q77.8 -103.7 82.85 -90.0 87.9 -76.3 90.5 -70.3 93.05 -64.35 95.15 -57.65 97.2 -51.0 97.65 -41.2 L96.7 -41.2 Q89.9 -37.0 78.7 -34.6 67.45 -32.25 65.15 -31.05 L62.05 -29.5 61.8 -29.35 Q50.35 -51.95 54.75 -88.9 58.25 -118.55 60.05 -122.4 M77.4 16.9 Q78.05 18.5 78.15 20.4 L76.75 25.45 76.25 26.9 Q75.45 23.0 71.05 19.9 69.9 20.0 70.05 21.1 70.4 23.7 72.3 25.9 74.45 28.4 73.1 31.55 72.7 32.5 72.8 33.4 L72.2 34.15 71.3 35.2 70.5 36.0 Q70.1 32.85 69.0 29.75 65.9 20.9 58.7 17.7 L58.15 14.75 57.05 7.95 Q65.65 8.3 71.7 11.15 75.95 13.15 77.4 16.9 M70.55 309.45 L88.65 321.05 Q92.15 324.75 92.45 329.7 52.35 333.05 29.0 331.7 L28.0 331.65 28.8 331.7 Q35.45 309.7 51.8 309.95 68.1 310.2 70.55 309.45 M2.55 329.3 L2.7 328.2 Q3.95 326.85 4.9 324.25 L4.95 324.25 Q4.45 326.85 4.2 329.55 L2.55 329.3 M-154.1 331.95 Q-153.85 330.2 -153.1 328.55 -148.85 321.05 -142.55 314.4 L-142.25 314.1 -142.15 313.95 -141.95 313.75 -141.85 313.65 Q-139.65 312.65 -123.55 312.45 -107.4 312.25 -106.65 333.0 -133.65 333.55 -154.1 331.95 M-82.75 -115.4 L-85.55 -115.4 Q-82.15 -125.25 -68.5 -132.15 -65.4 -129.95 -61.8 -128.8 -60.25 -128.3 -60.2 -129.8 -60.0 -134.05 -62.95 -136.45 -61.2 -139.1 -58.7 -141.7 L-56.05 -144.25 Q-54.95 -141.35 -52.8 -138.7 L-42.75 -126.35 Q-30.4 -111.45 -28.5 -92.9 -28.0 -88.05 -25.7 -84.15 -28.2 -85.85 -32.65 -90.55 -44.05 -105.85 -79.9 -115.4 L-82.75 -115.4 M-46.3 -150.7 Q-42.7 -152.35 -38.45 -153.4 -38.05 -150.85 -38.0 -148.2 -40.35 -146.25 -41.15 -144.25 L-41.45 -143.3 -41.3 -143.85 -46.3 -150.7 M48.3 39.4 Q46.35 39.6 46.7 41.4 47.5 45.0 48.9 48.6 51.9 56.25 59.8 57.65 60.85 57.85 60.9 56.9 61.25 52.85 57.9 49.05 L54.2 44.45 Q51.65 41.0 48.3 39.4 M16.45 330.8 L17.1 329.4 17.2 329.55 17.05 330.85 16.45 330.8 M-62.15 -58.05 L-62.0 -57.1 -62.15 -58.05 M-55.6 11.35 L-63.45 19.05 Q-77.25 31.95 -94.8 38.7 -96.85 39.5 -97.25 41.45 -98.1 45.15 -94.05 43.6 -72.15 35.3 -55.55 18.7 -52.35 15.5 -53.7 13.15 -54.3 12.15 -55.6 11.35" fill="#4c97d9" fill-rule="evenodd" stroke="none"/>
    <path d="M7.9 -120.45 L8.8 -117.2 Q15.9 -96.05 19.6 -74.05 22.25 -58.15 24.3 -42.1 30.75 8.35 10.35 53.3 7.9 58.65 2.55 60.1 -16.2 65.15 -35.95 65.8 L-36.1 65.8 Q-43.9 64.45 -52.2 64.05 -51.5 57.8 -49.75 49.95 -26.4 62.15 1.3 58.35 4.0 58.0 5.55 56.5 L-0.55 56.2 Q-10.45 55.35 -24.05 53.0 -37.7 50.65 -48.8 45.95 -44.8 29.4 -36.65 6.45 -23.7 -30.05 -22.5 -62.1 -20.2 -46.75 -13.3 -26.8 -7.35 -9.6 6.7 9.55 -1.75 -3.2 -10.05 -36.05 -19.7 -73.9 -22.7 -84.55 -22.25 -87.55 -22.2 -89.9 -22.1 -97.4 -24.5 -105.85 L-25.85 -110.1 Q-22.45 -107.35 -14.4 -105.65 -6.4 -104.0 7.65 -109.1 -2.0 -109.15 -10.45 -109.5 -18.9 -109.85 -27.7 -115.1 -30.1 -120.75 -33.45 -126.85 -23.7 -117.5 -13.55 -117.8 L2.9 -118.95 2.95 -118.95 5.7 -119.25 7.9 -120.45 M92.45 329.7 Q92.65 333.35 91.15 337.65 30.25 341.65 3.55 336.4 2.25 332.5 2.55 329.3 L4.2 329.55 16.45 330.8 17.05 330.85 28.0 331.65 29.0 331.7 Q52.35 333.05 92.45 329.7 M-79.65 331.95 L-80.25 339.9 Q-140.0 343.0 -153.1 339.9 -154.7 335.65 -154.1 331.95 -133.65 333.55 -106.65 333.0 L-104.9 332.95 -79.65 331.95 M-23.05 -83.35 L-23.05 -83.15 -23.05 -83.3 -23.05 -83.35" fill="#1b2734" fill-rule="evenodd" stroke="none"/>
    <path d="M63.5 83.2 L67.65 139.1 Q73.9 188.05 67.25 243.75 L67.25 277.2 Q70.0 289.15 70.0 298.15 L69.8 302.9 Q39.35 300.4 8.95 306.35 5.2 290.7 6.7 274.5 8.25 258.25 9.7 236.25 11.15 214.2 15.8 203.15 17.45 199.25 18.65 197.1 17.65 196.3 16.6 193.75 12.75 182.9 9.25 156.6 5.75 130.25 5.35 107.4 5.0 84.55 1.85 84.6 L1.05 84.75 -0.7 83.35 Q-4.1 83.55 -5.4 86.3 L-5.5 86.5 -5.5 86.8 -5.55 86.3 -15.85 88.75 -17.8 94.0 Q-19.1 91.9 -21.0 90.0 L-21.95 89.1 Q-28.95 90.7 -29.55 98.3 -30.55 110.55 -39.85 138.5 -49.2 166.45 -53.7 181.55 -58.25 196.65 -67.25 204.25 -62.5 215.75 -63.45 231.6 -64.4 247.45 -74.65 312.95 -99.2 297.0 -118.3 297.5 -137.45 297.95 -144.3 302.4 L-143.9 300.15 Q-141.25 286.1 -130.25 254.85 -114.95 211.25 -108.2 170.35 -98.3 110.25 -88.85 79.85 L-88.2 77.85 -88.35 78.35 Q-76.45 76.3 -64.55 75.0 L-65.25 74.95 Q-59.2 75.3 -52.6 74.85 L-52.65 73.8 Q-25.8 71.45 0.55 72.55 -6.65 82.95 8.4 81.9 L34.05 79.4 Q59.05 79.9 63.5 83.2 M-68.95 324.85 L-69.55 326.15 -70.5 324.75 -69.7 324.85 -68.95 324.85 M4.8 83.85 L1.85 84.6 4.8 83.85 M-15.85 88.75 L-21.0 90.0 -15.85 88.75 M-5.4 86.3 L-5.55 86.3 -5.4 86.3" fill="#283e5d" fill-rule="evenodd" stroke="none"/>
    <path d="M47.4 -218.05 L34.3 -218.65 Q17.9 -216.95 1.45 -213.85 -6.95 -212.25 -15.4 -212.15 -30.3 -212.05 -32.45 -201.6 -39.6 -200.05 -46.9 -199.45 -56.15 -198.75 -60.05 -192.35 -61.1 -190.55 -59.25 -190.2 -47.85 -187.95 -37.45 -188.5 -37.55 -187.25 -37.2 -186.1 -36.7 -184.55 -35.45 -184.7 L15.5 -190.6 Q24.35 -191.75 29.5 -190.9 L28.55 -190.85 27.75 -190.65 Q24.8 -189.35 26.9 -187.2 28.4 -185.65 30.75 -185.5 32.25 -185.4 32.95 -186.7 34.0 -188.7 33.45 -189.75 36.25 -188.35 36.55 -185.6 37.45 -178.05 31.25 -168.75 25.0 -159.5 23.45 -158.1 L23.95 -158.5 22.5 -157.35 20.75 -156.0 16.8 -153.4 16.0 -152.9 15.75 -152.75 Q12.25 -150.85 8.65 -149.65 L6.75 -149.7 -13.85 -156.5 Q-23.05 -159.6 -29.55 -168.1 -36.1 -176.65 -49.3 -183.45 -55.15 -182.25 -52.25 -177.25 -48.9 -171.4 -44.6 -166.55 -51.9 -172.4 -57.0 -180.25 L-57.5 -180.95 -59.5 -184.1 Q-63.55 -191.25 -63.05 -196.8 L-63.0 -196.8 -59.7 -230.1 Q-12.95 -239.25 35.6 -237.85 44.05 -229.15 47.4 -218.05 M43.85 -185.95 L43.95 -186.25 41.35 -194.2 Q43.5 -196.0 46.35 -196.2 L47.3 -196.25 Q45.9 -191.0 43.85 -185.95 M3.5 -131.55 L6.25 -131.3 Q6.4 -124.35 2.9 -118.95 L-13.55 -117.8 Q-23.7 -117.5 -33.45 -126.85 L-37.1 -133.0 -40.5 -138.6 -40.55 -138.7 -41.4 -140.65 -41.45 -140.85 -41.45 -141.0 -41.45 -143.3 -41.15 -144.25 -38.1 -143.3 -27.4 -140.35 Q-15.15 -137.05 3.5 -131.55 L1.95 -131.25 -0.9 -127.0 1.95 -131.25 3.5 -131.55 M-38.15 -142.9 L-38.1 -143.3 -38.15 -142.9 M98.25 -34.15 L98.05 -30.6 97.9 -29.5 97.9 -29.45 97.85 -29.1 Q97.45 -26.7 96.65 -24.05 89.4 0.4 77.4 16.9 75.95 13.15 71.7 11.15 65.65 8.3 57.05 7.95 L56.55 5.3 56.15 3.1 56.3 3.85 Q65.25 -12.05 74.6 -23.1 83.95 -34.2 92.55 -35.25 97.0 -35.8 98.25 -34.15 M-38.9 -155.3 L-39.95 -159.3 Q-40.85 -162.45 -41.75 -164.4 -34.85 -159.5 -26.2 -156.15 L-38.9 -155.3 M-13.9 -126.85 L-17.65 -131.45 -37.1 -133.0 -17.65 -131.45 -13.9 -126.85" fill="#ffe8d7" fill-rule="evenodd" stroke="none"/>
    <path d="M66.65 38.45 L64.2 41.45 Q62.35 35.05 60.85 28.4 L59.85 23.7 Q67.8 29.9 66.65 38.45" fill="#233446" fill-rule="evenodd" stroke="none"/>
    <path d="M29.5 -190.9 Q24.35 -191.75 15.5 -190.6 L-35.45 -184.7 Q-36.7 -184.55 -37.2 -186.1 -37.55 -187.25 -37.45 -188.5 -47.85 -187.95 -59.25 -190.2 -61.1 -190.55 -60.05 -192.35 -56.15 -198.75 -46.9 -199.45 -39.6 -200.05 -32.45 -201.6 -30.3 -212.05 -15.4 -212.15 -6.95 -212.25 1.45 -213.85 17.9 -216.95 34.3 -218.65 L47.4 -218.05 Q48.9 -213.05 49.4 -207.55 L49.4 -207.35 Q48.75 -201.7 47.3 -196.25 L46.35 -196.2 Q43.5 -196.0 41.35 -194.2 L43.95 -186.25 43.85 -185.95 41.8 -181.45 41.6 -181.15 39.45 -177.0 39.3 -176.8 38.6 -175.7 23.95 -158.5 23.45 -158.1 Q25.0 -159.5 31.25 -168.75 37.45 -178.05 36.55 -185.6 36.25 -188.35 33.45 -189.75 32.75 -191.1 29.5 -190.9 M-44.6 -166.55 Q-48.9 -171.4 -52.25 -177.25 -55.15 -182.25 -49.3 -183.45 -36.1 -176.65 -29.55 -168.1 -23.05 -159.6 -13.85 -156.5 L6.75 -149.7 6.15 -149.75 6.15 -147.25 Q11.7 -144.25 14.0 -141.2 L15.15 -139.25 15.4 -133.9 15.85 -127.35 15.8 -127.2 15.65 -126.85 15.6 -126.75 15.45 -126.45 15.2 -125.95 15.05 -125.7 14.85 -125.35 14.75 -125.25 14.6 -125.0 14.45 -124.8 14.35 -124.65 14.1 -124.3 13.9 -124.1 13.8 -124.0 13.65 -123.8 9.25 -121.25 7.9 -120.5 7.9 -120.45 5.7 -119.25 2.95 -118.95 2.9 -118.95 Q6.4 -124.35 6.25 -131.3 L3.5 -131.55 15.4 -133.9 3.5 -131.55 Q-15.15 -137.05 -27.4 -140.35 L-38.1 -143.3 -37.95 -147.5 -38.0 -148.05 -38.0 -148.2 -38.0 -148.05 -37.95 -147.5 -38.1 -143.3 -41.15 -144.25 Q-40.35 -146.25 -38.0 -148.2 -38.05 -150.85 -38.45 -153.4 L-38.9 -155.3 -26.2 -156.15 Q-34.85 -159.5 -41.75 -164.4 L-44.6 -166.55 M6.15 -149.75 L4.25 -149.9 3.8 -149.9 3.65 -149.9 2.75 -150.0 2.55 -150.0 0.95 -150.15 Q-20.05 -151.45 -25.4 -155.85 L-26.2 -156.15 -25.4 -155.85 Q-20.05 -151.45 0.95 -150.15 L2.55 -150.0 2.75 -150.0 3.65 -149.9 3.8 -149.9 4.25 -149.9 6.15 -149.75 M6.15 -141.9 L6.15 -147.25 6.15 -141.9 M96.7 -41.2 Q98.2 -38.5 98.25 -34.15 97.0 -35.8 92.55 -35.25 83.95 -34.2 74.6 -23.1 65.25 -12.05 56.3 3.85 L56.15 3.1 56.1 2.65 56.0 2.1 62.05 -29.5 65.15 -31.05 Q67.45 -32.25 78.7 -34.6 89.9 -37.0 96.7 -41.2" fill="#e0bcaa" fill-rule="evenodd" stroke="none"/>
    <path d="M33.45 -189.75 Q34.0 -188.7 32.95 -186.7 32.25 -185.4 30.75 -185.5 28.4 -185.65 26.9 -187.2 24.8 -189.35 27.75 -190.65 L28.55 -190.85 29.5 -190.9 Q32.75 -191.1 33.45 -189.75" fill="#fffce9" fill-rule="evenodd" stroke="none"/>
    <path d="M6.75 -149.7 L8.65 -149.65 Q12.25 -150.85 15.75 -152.75 L16.0 -152.9 16.8 -153.4 20.0 -151.95 Q21.9 -150.75 22.1 -150.65 L22.3 -150.55 22.8 -150.2 22.25 -147.9 Q21.2 -144.3 20.9 -140.5 18.95 -116.0 27.0 -93.1 31.0 -105.5 43.1 -115.45 L55.05 -125.8 60.05 -122.4 Q58.25 -118.55 54.75 -88.9 50.35 -51.95 61.8 -29.35 53.5 -25.5 51.55 -30.45 L50.75 -39.3 50.25 -45.5 Q49.5 -56.25 49.25 -67.35 L49.2 -69.1 Q49.2 -52.45 50.3 -37.1 44.2 -72.35 48.95 -108.35 L49.4 -111.1 Q34.85 -99.9 26.05 -78.6 L24.75 -87.15 Q18.0 -97.8 15.85 -127.35 L15.4 -133.9 15.15 -139.25 14.0 -141.2 Q11.7 -144.25 6.15 -147.25 L6.15 -149.75 6.75 -149.7 M38.2 -138.6 L35.85 -133.35 Q34.6 -130.2 34.6 -132.65 34.55 -135.1 32.3 -139.25 30.0 -143.45 29.8 -144.45 L30.45 -143.8 34.15 -140.0 34.35 -139.75 34.8 -139.3 37.4 -138.8 38.2 -138.6 M27.0 -93.1 L26.9 -92.8 26.8 -92.5 Q25.95 -89.75 25.5 -86.9 L25.4 -86.15 24.75 -87.15 25.4 -86.15 25.5 -86.9 Q25.95 -89.75 26.8 -92.5 L26.9 -92.8 27.0 -93.1 M-33.45 -126.85 Q-30.1 -120.75 -27.7 -115.1 L-27.65 -114.9 -27.45 -114.35 -25.85 -110.1 -24.5 -105.85 Q-22.1 -97.4 -22.2 -89.9 -22.25 -87.55 -22.7 -84.55 L-22.8 -84.1 -22.9 -83.5 -23.05 -83.35 -23.05 -83.3 -23.1 -83.3 -23.05 -83.05 -23.0 -82.9 -22.65 -77.75 -22.4 -70.0 Q-23.95 -73.75 -30.65 -79.75 -37.4 -85.8 -46.0 -95.3 -54.65 -104.8 -67.0 -107.1 -77.6 -109.1 -88.4 -108.95 L-83.6 -114.45 -83.0 -115.1 -82.95 -115.15 -82.8 -115.35 -82.75 -115.4 -79.9 -115.4 Q-44.05 -105.85 -32.65 -90.55 -28.2 -85.85 -25.7 -84.15 -28.0 -88.05 -28.5 -92.9 -30.4 -111.45 -42.75 -126.35 L-52.8 -138.7 Q-54.95 -141.35 -56.05 -144.25 L-54.85 -145.35 -54.15 -145.95 -50.8 -148.35 -50.3 -148.65 -46.3 -150.7 -41.3 -143.85 -41.45 -143.3 -41.45 -141.0 -41.45 -140.85 -41.4 -140.65 -40.55 -138.7 -40.5 -138.6 -37.1 -133.0 -33.45 -126.85 M61.65 -121.3 L63.1 -120.3 Q62.6 -119.85 61.65 -121.3 M76.25 26.9 Q74.75 30.7 72.8 33.4 72.7 32.5 73.1 31.55 74.45 28.4 72.3 25.9 70.4 23.7 70.05 21.1 69.9 20.0 71.05 19.9 75.45 23.0 76.25 26.9 M70.5 36.0 Q68.7 37.55 66.65 38.45 67.8 29.9 59.85 23.7 L58.7 17.7 Q65.9 20.9 69.0 29.75 70.1 32.85 70.5 36.0 M61.0 29.3 L64.3 44.9 Q63.5 43.9 62.4 39.95 61.3 36.0 57.15 30.85 53.0 25.65 51.7 22.4 50.4 19.15 51.3 19.0 L51.75 18.9 Q56.75 23.65 61.0 29.3 M66.35 306.75 L70.55 309.45 Q68.1 310.2 51.8 309.95 35.45 309.7 28.8 331.7 L28.0 331.65 17.05 330.85 17.2 329.55 17.1 329.4 16.45 330.8 4.2 329.55 Q4.45 326.85 4.95 324.25 13.5 322.35 22.9 316.55 L22.95 316.55 Q23.0 316.45 23.1 316.45 L23.1 316.4 Q24.3 315.7 25.55 315.05 L29.95 312.85 Q46.2 305.45 65.4 306.7 L66.35 306.75 M2.7 328.2 Q3.1 326.15 4.2 324.4 L4.9 324.25 Q3.95 326.85 2.7 328.2 M-142.55 314.4 L-142.6 314.4 -142.55 314.4 -142.25 314.1 -142.55 314.4 M-68.5 -132.15 L-68.45 -132.15 -67.6 -132.6 -64.8 -133.9 -64.4 -134.1 -63.75 -135.2 -63.5 -135.55 -62.95 -136.45 Q-60.0 -134.05 -60.2 -129.8 -60.25 -128.3 -61.8 -128.8 -65.4 -129.95 -68.5 -132.15 M49.2 -69.1 Q49.0 -76.45 49.05 -83.95 L49.4 -86.45 Q51.9 -104.2 51.95 -113.2 51.9 -104.2 49.4 -86.45 L49.05 -83.95 Q49.0 -76.45 49.2 -69.1 M48.3 39.4 Q51.65 41.0 54.2 44.45 L57.9 49.05 Q61.25 52.85 60.9 56.9 60.85 57.85 59.8 57.65 51.9 56.25 48.9 48.6 47.5 45.0 46.7 41.4 46.35 39.6 48.3 39.4 M-25.7 -84.15 Q-23.85 -82.85 -23.1 -83.3 -23.85 -82.85 -25.7 -84.15 M-55.6 11.35 Q-54.3 12.15 -53.7 13.15 -52.35 15.5 -55.55 18.7 -72.15 35.3 -94.05 43.6 -98.1 45.15 -97.25 41.45 -96.85 39.5 -94.8 38.7 -77.25 31.95 -63.45 19.05 L-55.6 11.35 M-94.65 42.9 Q-71.6 35.85 -54.9 14.7 L-53.7 13.15 -54.9 14.7 Q-71.6 35.85 -94.65 42.9 M-104.9 332.95 L-106.65 333.0 Q-107.4 312.25 -123.55 312.45 -139.65 312.65 -141.85 313.65 L-141.3 313.05 -136.25 308.3 -135.75 307.9 -135.55 307.7 Q-109.8 306.05 -93.05 312.1 -84.25 315.3 -78.6 318.45 L-79.65 331.95 -104.9 332.95" fill="#3572b4" fill-rule="evenodd" stroke="none"/>
    <path d="M15.85 -127.35 Q18.0 -97.8 24.75 -87.15 L26.05 -78.6 Q33.6 -27.15 27.55 12.6 22.0 48.7 7.9 68.35 L7.1 68.5 Q-8.9 72.0 -23.6 68.55 L-23.75 68.5 Q-29.7 66.85 -35.95 65.8 -16.2 65.15 2.55 60.1 7.9 58.65 10.35 53.3 30.75 8.35 24.3 -42.1 22.25 -58.15 19.6 -74.05 15.9 -96.05 8.8 -117.2 L7.9 -120.45 7.9 -120.5 9.25 -121.25 7.9 -120.45 9.25 -121.25 13.65 -123.8 13.8 -124.0 13.9 -124.1 14.1 -124.3 14.35 -124.65 14.45 -124.8 14.6 -125.0 14.75 -125.25 14.85 -125.35 15.05 -125.7 15.2 -125.95 15.45 -126.45 15.6 -126.75 15.65 -126.85 15.8 -127.2 15.85 -127.35 M-27.7 -115.1 Q-18.9 -109.85 -10.45 -109.5 -2.0 -109.15 7.65 -109.1 -6.4 -104.0 -14.4 -105.65 -22.45 -107.35 -25.85 -110.1 L-27.45 -114.35 -27.65 -114.9 -27.7 -115.1 M-22.7 -84.55 Q-19.7 -73.9 -10.05 -36.05 -1.75 -3.2 6.7 9.55 -7.35 -9.6 -13.3 -26.8 -20.2 -46.75 -22.5 -62.1 L-22.45 -62.65 -22.4 -69.4 -22.4 -70.0 -22.65 -77.75 -23.0 -82.9 -23.05 -83.15 -23.05 -83.35 -22.9 -83.5 -23.0 -82.9 -22.7 -83.85 -22.8 -84.1 -22.7 -84.55 M-48.8 45.95 Q-37.7 50.65 -24.05 53.0 -10.45 55.35 -0.55 56.2 L5.55 56.5 Q4.0 58.0 1.3 58.35 -26.4 62.15 -49.75 49.95 L-48.95 46.45 -48.8 45.95" fill="#070a0e" fill-rule="evenodd" stroke="none"/>
    <path d="M-35.95 65.8 Q-29.7 66.85 -23.75 68.5 L-23.6 68.55 Q-8.9 72.0 7.1 68.5 L7.9 68.35 Q5.15 72.1 2.15 75.25 11.7 78.45 20.45 79.0 L33.75 78.25 Q51.05 74.8 62.7 73.95 L63.3 79.9 63.25 79.9 63.5 83.2 Q59.05 79.9 34.05 79.4 L8.4 81.9 Q-6.65 82.95 0.55 72.55 -25.8 71.45 -52.65 73.8 L-52.45 66.6 -52.4 66.15 -52.4 65.85 -52.35 65.4 -52.3 64.85 -52.2 64.05 Q-43.9 64.45 -36.1 65.8 L-35.95 65.8 M69.8 302.9 L69.6 304.7 69.3 306.45 69.2 307.0 66.35 306.75 65.4 306.7 Q46.2 305.45 29.95 312.85 L25.55 315.05 Q24.3 315.7 23.1 316.4 L23.1 316.45 Q23.0 316.45 22.95 316.55 L22.9 316.55 Q13.5 322.35 4.95 324.25 L4.9 324.25 4.2 324.4 Q-2.25 325.65 -8.25 324.6 -15.15 299.65 -4.55 261.75 L5.55 191.95 -5.45 87.3 -5.45 87.1 -5.5 86.8 -5.5 86.5 -5.4 86.3 Q-4.1 83.55 -0.7 83.35 L1.05 84.75 1.85 84.6 Q5.0 84.55 5.35 107.4 5.75 130.25 9.25 156.6 12.75 182.9 16.6 193.75 17.65 196.3 18.65 197.1 17.45 199.25 15.8 203.15 11.15 214.2 9.7 236.25 8.25 258.25 6.7 274.5 5.2 290.7 8.95 306.35 39.35 300.4 69.8 302.9 L69.6 304.7 69.8 302.9 M-17.8 94.0 L-19.7 99.2 Q-28.65 124.1 -36.55 154.55 -45.75 190.1 -53.55 233.1 L-53.7 237.65 Q-56.25 295.15 -68.95 324.85 L-69.7 324.85 -70.5 324.75 Q-72.95 321.65 -78.6 318.45 -84.25 315.3 -93.05 312.1 -109.8 306.05 -135.55 307.7 L-135.75 307.9 -136.25 308.3 -141.3 313.05 -141.85 313.65 -141.95 313.75 -142.15 313.95 -142.25 313.85 Q-144.6 311.65 -144.7 308.5 L-144.7 308.45 -144.7 308.25 Q-144.85 306.05 -144.3 302.4 -137.45 297.95 -118.3 297.5 -99.2 297.0 -74.65 312.95 -64.4 247.45 -63.45 231.6 -62.5 215.75 -67.25 204.25 -58.25 196.65 -53.7 181.55 -49.2 166.45 -39.85 138.5 -30.55 110.55 -29.55 98.3 -28.95 90.7 -21.95 89.1 L-21.0 90.0 -24.35 90.75 -21.0 90.0 Q-19.1 91.9 -17.8 94.0 M-69.55 326.15 Q-73.2 332.4 -79.65 331.95 L-78.6 318.45 Q-72.95 321.65 -70.5 324.75 L-69.55 326.15 M-88.2 77.85 L-86.55 72.85 -86.0 71.25 -85.9 70.95 Q-81.7 72.45 -77.1 73.4 L-75.75 73.65 -74.05 73.95 -65.25 74.95 -64.55 75.0 Q-76.45 76.3 -88.35 78.35 L-88.2 77.85 M23.1 316.45 L22.9 316.55 23.1 316.45 M-5.4 86.3 L1.05 84.75 -5.4 86.3 M-144.7 308.5 L-135.55 307.7 -144.7 308.5" fill="#182538" fill-rule="evenodd" stroke="none"/>
    <path d="M47.4 -218.05 Q44.05 -229.15 35.6 -237.85 -12.95 -239.25 -59.7 -230.1 L-63.0 -196.8 M-63.05 -196.8 Q-63.55 -191.25 -59.5 -184.1 L-57.5 -180.95 -57.0 -180.25 Q-51.9 -172.4 -44.6 -166.55 L-41.75 -164.4 Q-40.85 -162.45 -39.95 -159.3 L-38.9 -155.3 -38.45 -153.4 Q-42.7 -152.35 -46.3 -150.7 L-50.3 -148.65 -50.8 -148.35 -54.15 -145.95 -54.85 -145.35 -56.05 -144.25 -58.7 -141.7 Q-61.2 -139.1 -62.95 -136.45 M6.75 -149.7 L8.65 -149.65 Q12.25 -150.85 15.75 -152.75 M16.0 -152.9 L16.8 -153.4 20.75 -156.0 22.5 -157.35 23.95 -158.5 38.6 -175.7 39.3 -176.8 39.45 -177.0 41.6 -181.15 41.8 -181.45 43.85 -185.95 Q45.9 -191.0 47.3 -196.25 48.75 -201.7 49.4 -207.35 L49.4 -207.55 Q48.9 -213.05 47.4 -218.05 M-26.2 -156.15 L-25.4 -155.85 Q-20.05 -151.45 0.95 -150.15 L2.55 -150.0 2.75 -150.0 3.65 -149.9 3.8 -149.9 4.25 -149.9 6.15 -149.75 6.75 -149.7 M22.3 -150.55 L22.1 -150.65 Q21.9 -150.75 20.0 -151.95 L16.8 -153.4 M27.0 -93.1 Q31.0 -105.5 43.1 -115.45 L55.05 -125.8 Q57.7 -128.35 57.05 -128.5 49.3 -136.1 38.2 -138.6 L37.4 -138.8 34.8 -139.3 34.35 -139.75 34.15 -140.0 30.45 -143.8 29.8 -144.45 Q25.4 -148.6 22.3 -150.55 M6.15 -149.75 L6.15 -147.25 Q11.7 -144.25 14.0 -141.2 L15.15 -139.25 15.4 -133.9 15.85 -127.35 Q18.0 -97.8 24.75 -87.15 L25.4 -86.15 25.5 -86.9 Q25.95 -89.75 26.8 -92.5 L26.9 -92.8 27.0 -93.1 M6.15 -147.25 L6.15 -141.9 M3.5 -131.55 L1.95 -131.25 -0.9 -127.0 M9.25 -121.25 L13.65 -123.8 13.8 -124.0 13.9 -124.1 14.1 -124.3 14.35 -124.65 14.45 -124.8 14.6 -125.0 14.75 -125.25 14.85 -125.35 15.05 -125.7 15.2 -125.95 15.45 -126.45 15.6 -126.75 15.65 -126.85 15.8 -127.2 15.85 -127.35 M15.4 -133.9 L3.5 -131.55 M-38.1 -143.3 L-38.15 -142.9 M-35.95 65.8 Q-29.7 66.85 -23.75 68.5 L-23.6 68.55 Q-8.9 72.0 7.1 68.5 L7.9 68.35 Q22.0 48.7 27.55 12.6 33.6 -27.15 26.05 -78.6 L24.75 -87.15 M7.9 -120.45 L9.25 -121.25 M2.95 -118.95 L5.7 -119.25 7.9 -120.45 M2.9 -118.95 L-13.55 -117.8 Q-23.7 -117.5 -33.45 -126.85 -30.1 -120.75 -27.7 -115.1 M-25.85 -110.1 L-24.5 -105.85 Q-22.1 -97.4 -22.2 -89.9 -22.25 -87.55 -22.7 -84.55 L-22.8 -84.1 -22.9 -83.5 -23.05 -83.35 -23.05 -83.3 -23.05 -83.15 -23.0 -82.9 -22.65 -77.75 -22.4 -70.0 -22.4 -69.4 -22.45 -62.65 M-22.5 -62.1 Q-23.7 -30.05 -36.65 6.45 -44.8 29.4 -48.8 45.95 M-49.75 49.95 Q-51.5 57.8 -52.2 64.05 -43.9 64.45 -36.1 65.8 L-35.95 65.8 M60.05 -122.4 L60.25 -122.25 60.4 -122.15 60.55 -122.05 61.65 -121.3 63.1 -120.3 67.35 -117.4 70.75 -113.15 Q77.8 -103.7 82.85 -90.0 87.9 -76.3 90.5 -70.3 93.05 -64.35 95.15 -57.65 97.2 -51.0 97.65 -41.2 L96.7 -41.2 Q98.2 -38.5 98.25 -34.15 L98.05 -30.6 97.9 -29.5 97.9 -29.45 97.85 -29.1 Q97.45 -26.7 96.65 -24.05 89.4 0.4 77.4 16.9 78.05 18.5 78.15 20.4 L76.75 25.45 76.25 26.9 Q74.75 30.7 72.8 33.4 L72.2 34.15 71.3 35.2 70.5 36.0 Q68.7 37.55 66.65 38.45 L64.2 41.45 Q62.35 35.05 60.85 28.4 L59.85 23.7 58.7 17.7 58.15 14.75 57.05 7.95 56.55 5.3 56.15 3.1 56.1 2.65 56.0 2.1 62.05 -29.5 61.8 -29.35 Q53.5 -25.5 51.55 -30.45 L50.75 -39.3 50.25 -45.5 Q49.5 -56.25 49.25 -67.35 L49.2 -69.1 Q49.2 -52.45 50.3 -37.1 52.25 -8.45 57.85 15.5 L61.0 29.3 64.3 44.9 Q68.25 64.5 68.7 73.65 L62.7 73.95 63.3 79.9 63.25 79.9 63.5 83.2 67.65 139.1 Q73.9 188.05 67.25 243.75 L67.25 277.2 Q70.0 289.15 70.0 298.15 L69.8 302.9 69.6 304.7 69.3 306.45 69.2 307.0 66.35 306.75 70.55 309.45 88.65 321.05 Q92.15 324.75 92.45 329.7 92.65 333.35 91.15 337.65 30.25 341.65 3.55 336.4 2.25 332.5 2.55 329.3 L2.7 328.2 Q3.1 326.15 4.2 324.4 -2.25 325.65 -8.25 324.6 -15.15 299.65 -4.55 261.75 L5.55 191.95 -5.45 87.3 -5.45 87.1 -5.5 86.8 -5.55 86.3 -15.85 88.75 -17.8 94.0 -19.7 99.2 Q-28.65 124.1 -36.55 154.55 -45.75 190.1 -53.55 233.1 L-53.7 237.65 Q-56.25 295.15 -68.95 324.85 L-69.55 326.15 Q-73.2 332.4 -79.65 331.95 L-80.25 339.9 Q-140.0 343.0 -153.1 339.9 -154.7 335.65 -154.1 331.95 -153.85 330.2 -153.1 328.55 -148.85 321.05 -142.55 314.4 L-142.25 314.1 -142.15 313.95 -142.25 313.85 Q-144.6 311.65 -144.7 308.5 L-144.7 308.45 -144.7 308.25 Q-144.85 306.05 -144.3 302.4 L-143.9 300.15 Q-141.25 286.1 -130.25 254.85 -114.95 211.25 -108.2 170.35 -98.3 110.25 -88.85 79.85 L-88.2 77.85 -86.55 72.85 -86.0 71.25 -85.9 70.95 Q-95.0 67.75 -102.5 62.1 -107.05 58.65 -110.95 54.35 -117.2 47.55 -121.95 38.5 -120.45 32.7 -90.2 11.25 -60.05 -16.8 -61.9 -56.15 L-62.0 -57.1 Q-89.7 -75.0 -95.65 -95.45 -95.0 -99.05 -92.25 -103.45 L-91.65 -104.4 -91.45 -104.75 -88.4 -108.95 -83.6 -114.45 -83.0 -115.1 -82.95 -115.15 -82.8 -115.35 -82.75 -115.4 -85.55 -115.4 Q-82.15 -125.25 -68.5 -132.15 L-68.45 -132.15 -67.6 -132.6 -64.8 -133.9 -64.4 -134.1 -63.75 -135.2 M55.05 -125.8 L60.05 -122.4 M51.95 -113.2 Q51.9 -104.2 49.4 -86.45 L49.05 -83.95 Q49.0 -76.45 49.2 -69.1 M96.7 -41.2 Q89.9 -37.0 78.7 -34.6 67.45 -32.25 65.15 -31.05 L62.05 -29.5 M57.05 7.95 Q65.65 8.3 71.7 11.15 75.95 13.15 77.4 16.9 M66.65 38.45 Q67.8 29.9 59.85 23.7 M1.05 84.75 L1.85 84.6 4.8 83.85 M7.9 68.35 Q5.15 72.1 2.15 75.25 11.7 78.45 20.45 79.0 L33.75 78.25 Q51.05 74.8 62.7 73.95 M-52.65 73.8 L-52.6 74.85 Q-59.2 75.3 -65.25 74.95 L-74.05 73.95 -75.75 73.65 -77.1 73.4 Q-81.7 72.45 -85.9 70.95 M23.1 316.45 L23.1 316.4 Q24.3 315.7 25.55 315.05 L29.95 312.85 Q46.2 305.45 65.4 306.7 L66.35 306.75 M28.0 331.65 L29.0 331.7 Q52.35 333.05 92.45 329.7 M22.9 316.55 Q13.5 322.35 4.95 324.25 L4.9 324.25 4.2 324.4 M4.2 329.55 L16.45 330.8 17.05 330.85 28.0 331.65 M22.9 316.55 L23.1 316.45 M2.55 329.3 L4.2 329.55 M-26.2 -156.15 Q-34.85 -159.5 -41.75 -164.4 M-41.45 -143.3 L-41.15 -144.25 Q-40.35 -146.25 -38.0 -148.2 -38.05 -150.85 -38.45 -153.4 M-41.45 -143.3 L-41.45 -141.0 -41.45 -140.85 -41.4 -140.65 -40.55 -138.7 -40.5 -138.6 -37.1 -133.0 -17.65 -131.45 -13.9 -126.85 M-38.0 -148.2 L-38.0 -148.05 -37.95 -147.5 -38.1 -143.3 M-37.1 -133.0 L-33.45 -126.85 M-27.65 -114.9 L-27.45 -114.35 -25.85 -110.1 M-23.05 -83.3 L-23.1 -83.3 -23.05 -83.05 -23.0 -82.9 -22.7 -83.85 -22.8 -84.1 M-22.9 -83.5 L-23.0 -82.9 M-23.1 -83.3 Q-23.85 -82.85 -25.7 -84.15 -28.2 -85.85 -32.65 -90.55 -44.05 -105.85 -79.9 -115.4 L-82.75 -115.4 M-62.0 -57.1 L-62.15 -58.05 M-53.7 13.15 L-54.9 14.7 Q-71.6 35.85 -94.65 42.9 M-52.65 73.8 L-52.45 66.6 -52.4 66.15 -52.4 65.85 -52.35 65.4 -52.3 64.85 -52.2 64.05 M-21.0 90.0 L-15.85 88.75 M-24.35 90.75 L-21.0 90.0 M-5.55 86.3 L-5.4 86.3 1.05 84.75 M-49.75 49.95 L-48.95 46.45 M-106.65 333.0 Q-133.65 333.55 -154.1 331.95 M-141.85 313.65 L-141.3 313.05 -136.25 308.3 -135.75 307.9 -135.55 307.7 -144.7 308.5 M-142.15 313.95 L-141.95 313.75 -141.85 313.65 M-79.65 331.95 L-78.6 318.45 Q-84.25 315.3 -93.05 312.1 -109.8 306.05 -135.55 307.7 M-70.5 324.75 Q-72.95 321.65 -78.6 318.45 M-69.55 326.15 L-70.5 324.75 M-104.9 332.95 L-79.65 331.95" fill="none" stroke="#1a5283" stroke-linecap="round" stroke-linejoin="round" stroke-width="2.0"/>
    <path d="M51.75 -232.5 L53.4 -227.6 Q56.3 -217.5 54.6 -208.15 56.3 -217.5 53.4 -227.6 L51.75 -232.5 M-47.15 -235.45 L54.7 -236.95 Q71.9 -218.65 63.8 -197.15 60.55 -212.3 59.55 -212.45 L59.7 -209.5 59.75 -209.3 54.6 -208.15 51.9 -207.6 46.95 -206.9 45.0 -196.55 44.4 -193.4 Q42.75 -184.5 39.65 -174.65 37.8 -169.05 35.45 -163.85 30.05 -159.25 23.45 -154.75 32.45 -165.35 36.35 -175.3 L38.6 -182.15 Q36.2 -180.0 37.0 -181.15 L31.25 -179.1 30.65 -178.95 31.6 -180.15 Q36.0 -186.05 39.35 -194.25 41.2 -198.9 42.7 -204.25 L42.7 -206.1 42.75 -206.6 34.1 -230.7 -36.1 -224.2 Q-39.15 -218.7 -42.9 -214.1 L-45.8 -210.8 -46.55 -210.05 -44.45 -161.95 -47.9 -164.3 Q-47.25 -162.4 -46.65 -159.3 L-49.15 -155.4 -61.4 -171.45 -63.1 -180.3 Q-67.3 -188.2 -66.1 -196.8 L-66.15 -196.8 -66.8 -222.95 -56.35 -235.35 -47.2 -235.45 -47.15 -235.45 M42.75 -206.6 Q44.3 -200.9 45.0 -196.55 44.3 -200.9 42.75 -206.6 M38.6 -182.15 L38.65 -182.15 38.65 -182.2 38.6 -182.15 37.0 -181.15 38.6 -182.15 M-63.1 -180.3 Q-58.6 -171.85 -47.9 -164.3 L-47.95 -164.4 Q-56.5 -170.9 -61.7 -180.25 L-62.1 -180.95 -63.8 -184.1 -63.1 -180.3 -63.8 -184.1 -62.1 -180.95 -61.7 -180.25 Q-56.5 -170.9 -47.95 -164.4 L-47.9 -164.3 Q-58.6 -171.85 -63.1 -180.3 M-46.55 -210.05 L-46.6 -210.05 -47.45 -209.15 -48.4 -208.25 -64.25 -197.6 -64.75 -197.4 -66.1 -196.8 -64.75 -197.4 -64.25 -197.6 -48.4 -208.25 -47.45 -209.15 -46.6 -210.05 -46.55 -210.05 M40.35 -183.25 L38.65 -182.15 40.35 -183.25" fill="#091425" fill-rule="evenodd" stroke="none"/>
    <path d="M59.75 -209.3 Q60.35 -185.1 35.45 -163.85 37.8 -169.05 39.65 -174.65 42.75 -184.5 44.4 -193.4 L45.0 -196.55 Q45.65 -191.9 45.25 -188.85 52.65 -198.1 54.6 -208.15 52.65 -198.1 45.25 -188.85 45.65 -191.9 45.0 -196.55 L46.95 -206.9 51.9 -207.6 54.6 -208.15 59.75 -209.3 M38.6 -182.15 L38.65 -182.2 38.65 -182.15 38.6 -182.15" fill="#132a4c" fill-rule="evenodd" stroke="none"/>
    <path d="M54.6 -208.15 Q56.3 -217.5 53.4 -227.6 L51.75 -232.5 M-47.15 -235.45 L54.7 -236.95 Q71.9 -218.65 63.8 -197.15 60.55 -212.3 59.55 -212.45 L59.7 -209.5 M59.75 -209.3 Q60.35 -185.1 35.45 -163.85 30.05 -159.25 23.45 -154.75 32.45 -165.35 36.35 -175.3 L38.6 -182.15 Q36.2 -180.0 37.0 -181.15 L31.25 -179.1 30.65 -178.95 31.6 -180.15 Q36.0 -186.05 39.35 -194.25 41.2 -198.9 42.7 -204.25 L42.7 -206.1 42.75 -206.6 34.1 -230.7 -36.1 -224.2 Q-39.15 -218.7 -42.9 -214.1 L-45.8 -210.8 -46.55 -210.05 -44.45 -161.95 -47.9 -164.3 Q-47.25 -162.4 -46.65 -159.3 L-49.15 -155.4 -61.4 -171.45 -63.1 -180.3 Q-67.3 -188.2 -66.1 -196.8 L-66.15 -196.8 -66.8 -222.95 -56.35 -235.35 -47.2 -235.45 M54.6 -208.15 Q52.65 -198.1 45.25 -188.85 45.65 -191.9 45.0 -196.55 44.3 -200.9 42.75 -206.6 M38.6 -182.15 L38.65 -182.15 38.65 -182.2 38.6 -182.15 37.0 -181.15 M38.65 -182.15 L40.35 -183.25 M-66.1 -196.8 L-64.75 -197.4 -64.25 -197.6 -48.4 -208.25 -47.45 -209.15 -46.6 -210.05 -46.55 -210.05 M-63.1 -180.3 L-63.8 -184.1 -62.1 -180.95 -61.7 -180.25 Q-56.5 -170.9 -47.95 -164.4 L-47.9 -164.3 Q-58.6 -171.85 -63.1 -180.3" fill="none" stroke="#1a5283" stroke-linecap="round" stroke-linejoin="round" stroke-width="2.0"/>
  </g>
</svg>
