<?xml version="1.0" encoding="UTF-8" standalone="no"?>
<svg xmlns:xlink="http://www.w3.org/1999/xlink" height="195.3px" width="206.45px" xmlns="http://www.w3.org/2000/svg">
  <g transform="matrix(1.0, 0.0, 0.0, 1.0, 79.0, 350.55)">
    <path d="M112.6 -235.55 L112.75 -236.15 112.75 -236.1 112.6 -235.55 M-64.75 -278.05 L-64.4 -278.45 -64.75 -278.05" fill="#cccccc" fill-rule="evenodd" stroke="none"/>
    <path d="M55.0 -297.55 Q52.5 -298.8 52.25 -297.3 50.0 -285.25 62.45 -284.75 64.5 -284.65 64.2 -290.15 63.85 -295.7 55.0 -297.55 M15.2 -303.3 Q8.6 -300.7 7.1 -296.55 5.55 -292.4 7.7 -290.6 9.85 -288.8 13.25 -289.65 16.65 -290.55 17.95 -293.05 19.2 -295.6 20.2 -299.95 21.2 -304.35 15.2 -303.3 M48.0 -261.5 Q48.65 -270.85 45.35 -277.95 40.35 -270.9 37.15 -261.4 L35.8 -261.4 20.85 -261.0 Q21.65 -263.35 19.3 -276.8 15.9 -276.0 13.0 -273.9 -10.2 -257.5 -15.9 -232.7 -17.3 -239.0 -16.4 -245.45 -15.25 -254.15 -10.6 -260.95 L-10.45 -261.05 Q-6.9 -263.0 -4.4 -266.65 L-2.75 -269.35 Q0.65 -276.2 -3.8 -280.95 L-6.9 -278.3 -8.5 -277.0 -10.4 -275.45 -10.45 -275.4 -10.55 -275.35 Q-15.7 -272.05 -20.7 -269.85 -35.2 -263.45 -49.05 -265.95 L-54.1 -267.15 -58.0 -268.55 -56.35 -268.8 Q-46.7 -270.55 -37.3 -276.65 -33.75 -276.6 -30.4 -280.75 L-28.5 -283.45 Q-25.6 -288.85 -31.9 -290.95 -34.45 -288.6 -44.75 -284.25 -55.1 -279.95 -74.65 -281.55 -76.35 -282.25 -78.0 -283.05 L-69.85 -283.65 Q-61.4 -284.6 -53.8 -286.9 -62.15 -287.05 -68.8 -291.55 -73.65 -294.85 -77.65 -300.5 -66.05 -297.65 -48.45 -299.0 L-45.25 -299.25 Q-57.4 -306.0 -59.45 -317.9 -59.85 -320.45 -59.85 -323.25 -44.2 -313.0 -14.9 -320.25 L-13.9 -320.5 Q23.85 -330.45 59.25 -316.85 84.2 -306.55 102.0 -287.7 L106.55 -283.15 107.0 -282.75 108.25 -281.5 Q117.2 -272.35 119.8 -264.65 122.05 -257.8 119.25 -252.05 117.5 -258.7 110.6 -266.45 L108.25 -269.05 Q112.65 -256.15 108.25 -245.4 107.2 -242.9 105.7 -240.5 106.0 -244.5 105.45 -248.65 103.4 -264.5 94.65 -276.7 92.85 -276.65 92.65 -274.85 91.55 -266.9 92.25 -258.9 L84.6 -259.9 82.0 -260.15 70.9 -271.55 Q70.7 -270.95 70.9 -270.05 71.8 -265.45 72.25 -260.85 L72.6 -260.8 Q61.65 -261.5 48.0 -261.5 M105.3 -275.95 Q107.05 -272.45 108.25 -269.05 107.05 -272.45 105.3 -275.95 M16.75 -260.9 L18.8 -260.95 17.25 -260.9 16.75 -260.9 M-9.1 -231.5 Q-5.55 -227.3 -4.05 -224.65 0.4 -216.8 -2.45 -209.4 -6.15 -199.7 -10.65 -191.25 L-17.2 -182.2 Q-22.3 -208.2 -9.1 -231.5 M-37.6 -295.9 Q-41.85 -297.4 -45.25 -299.25 -41.85 -297.4 -37.6 -295.9 M82.2 -300.15 Q80.95 -300.1 80.75 -298.95 79.3 -288.65 85.6 -288.3 91.9 -287.95 91.9 -291.65 91.9 -295.35 82.2 -300.15 M96.75 -188.5 Q96.85 -178.95 85.95 -171.85 82.2 -169.45 77.15 -167.3 81.25 -171.75 83.7 -176.7 86.05 -181.5 86.95 -186.75 L96.75 -188.5 M86.5 -186.65 Q82.9 -177.6 75.7 -172.1 L72.05 -169.7 73.65 -180.45 Q70.95 -168.05 63.35 -161.25 59.85 -158.2 55.4 -156.25 57.65 -159.85 58.45 -165.5 59.05 -170.4 58.6 -176.8 57.5 -173.3 55.35 -170.55 51.45 -165.6 43.95 -162.95 48.7 -169.6 48.3 -180.35 L59.4 -180.95 73.95 -182.05 73.65 -180.45 73.95 -182.05 74.5 -185.6 86.5 -186.65 M58.6 -176.8 L59.4 -180.95 58.6 -176.8 M-43.25 -291.05 Q-46.2 -289.65 -49.3 -288.45 L-52.5 -287.3 -53.65 -286.95 -53.8 -286.9 -53.65 -286.95 -52.5 -287.3 -49.3 -288.45 Q-46.2 -289.65 -43.25 -291.05 M-10.65 -314.05 Q-19.45 -313.05 -27.05 -309.1 -30.9 -307.05 -27.35 -305.8 -23.85 -304.6 -20.45 -304.95 -17.1 -305.3 -12.55 -308.4 -8.0 -311.5 -10.65 -314.05 M7.8 -275.95 Q1.8 -273.05 -2.75 -269.35 1.8 -273.05 7.8 -275.95 M-57.2 -277.6 L-55.75 -277.55 Q-48.65 -278.25 -41.65 -279.8 L-41.75 -279.15 Q-49.6 -277.25 -57.2 -277.6 M-28.5 -283.45 L-26.85 -284.95 -26.55 -285.25 -26.85 -284.95 -28.5 -283.45 M-19.35 -269.1 L-20.7 -269.85 Q-15.7 -272.05 -10.55 -275.35 -14.8 -272.1 -19.35 -269.1 M-12.8 -265.95 L-13.65 -266.3 -12.95 -266.0 -12.65 -266.3 -12.8 -265.95" fill="#132a4c" fill-rule="evenodd" stroke="none"/>
    <path d="M10.85 -235.25 Q10.35 -235.95 7.6 -237.0 4.8 -238.05 3.55 -244.55 2.25 -251.05 2.45 -254.0 L2.45 -254.45 Q6.95 -256.0 20.5 -255.9 34.0 -255.85 54.9 -256.35 75.8 -256.85 100.75 -252.65 102.3 -242.4 99.7 -233.2 102.3 -235.75 104.3 -238.4 L103.4 -233.35 Q99.75 -229.2 75.25 -229.25 L73.85 -229.3 70.8 -229.4 69.65 -229.4 68.9 -229.45 68.3 -229.45 25.0 -232.75 24.5 -232.8 20.95 -233.35 19.1 -233.65 15.5 -234.3 10.85 -235.25 M1.95 -256.9 L0.9 -255.7 Q2.5 -258.45 5.4 -260.55 L2.65 -257.65 1.95 -256.9 M-1.05 -239.35 L0.35 -238.8 -0.35 -239.05 -1.05 -239.35 -0.35 -239.05 -1.05 -239.35 M47.2 -190.65 Q41.95 -192.05 35.35 -195.45 20.8 -203.05 17.15 -226.85 24.3 -226.35 27.05 -226.9 57.25 -224.75 90.5 -225.0 96.3 -225.05 101.8 -226.35 104.55 -227.05 107.15 -228.1 L115.55 -215.55 Q124.0 -202.7 126.15 -196.2 128.6 -188.7 110.1 -192.2 L97.95 -193.5 96.0 -193.55 89.7 -193.55 85.1 -193.35 74.85 -192.45 58.85 -190.25 58.0 -190.2 49.1 -190.45 49.0 -190.45 48.9 -190.5 48.7 -190.5 47.2 -190.65" fill="#4c97d9" fill-rule="evenodd" stroke="none"/>
    <path d="M37.15 -261.4 Q40.35 -270.9 45.35 -277.95 48.65 -270.85 48.0 -261.5 L47.0 -261.5 37.15 -261.4 M72.6 -260.8 L72.25 -260.85 Q71.8 -265.45 70.9 -270.05 70.7 -270.95 70.9 -271.55 L82.0 -260.15 73.0 -260.8 72.6 -260.8 M92.25 -258.9 Q91.55 -266.9 92.65 -274.85 92.85 -276.65 94.65 -276.7 103.4 -264.5 105.45 -248.65 106.0 -244.5 105.7 -240.5 L104.55 -238.75 104.3 -238.4 Q102.3 -235.75 99.7 -233.2 102.3 -242.4 100.75 -252.65 L100.65 -253.25 99.8 -257.5 96.15 -258.25 95.6 -258.35 94.1 -258.6 92.25 -258.9 M-15.9 -232.7 Q-10.2 -257.5 13.0 -273.9 15.9 -276.0 19.3 -276.8 21.65 -263.35 20.85 -261.0 L18.8 -260.95 20.85 -261.0 Q20.65 -260.45 20.2 -260.55 L18.8 -260.95 16.75 -260.9 12.45 -260.75 12.45 -260.7 5.45 -260.6 5.5 -260.65 5.4 -260.55 Q2.5 -258.45 0.9 -255.7 L-5.35 -248.15 -9.3 -242.55 Q-14.0 -235.3 -15.35 -230.4 L-15.45 -230.8 -15.9 -232.7 M16.6 -271.3 Q10.5 -265.85 5.5 -260.65 10.5 -265.85 16.6 -271.3 M1.5 -229.75 L1.75 -228.75 4.6 -221.7 9.0 -214.15 9.35 -213.65 Q-3.05 -201.75 -10.65 -191.25 -6.15 -199.7 -2.45 -209.4 0.4 -216.8 -4.05 -224.65 -5.55 -227.3 -9.1 -231.5 L-5.15 -237.1 -3.4 -238.95 Q-2.5 -239.9 -1.85 -239.5 -1.25 -239.1 -1.05 -239.35 L1.5 -229.75 M46.95 -190.65 L47.2 -190.65 48.7 -190.5 48.9 -190.5 49.0 -190.45 49.1 -190.45 58.0 -190.2 58.85 -190.25 74.85 -192.45 85.1 -193.35 89.7 -193.55 96.0 -193.55 Q96.75 -190.95 96.75 -188.5 L86.95 -186.75 87.2 -188.65 86.5 -186.65 74.5 -185.6 74.95 -190.5 75.0 -190.85 74.95 -191.1 74.85 -192.45 74.95 -191.1 75.0 -190.85 74.95 -190.5 74.5 -185.6 73.95 -182.05 59.4 -180.95 59.55 -184.05 59.4 -180.95 48.3 -180.35 Q48.15 -185.1 46.95 -190.65 M95.3 -270.35 Q98.25 -263.75 99.8 -257.5 98.25 -263.75 95.3 -270.35 M88.2 -192.1 L87.2 -188.65 88.2 -192.1 M-10.55 -275.35 L-10.45 -275.4 -10.4 -275.45 -8.5 -277.0 -6.9 -278.3 -3.8 -280.95 Q0.65 -276.2 -2.75 -269.35 L-4.4 -266.65 Q-6.9 -263.0 -10.45 -261.05 L-10.6 -260.95 -10.05 -261.75 -10.6 -260.95 -10.05 -261.75 -8.25 -264.05 Q-5.85 -266.9 -2.75 -269.35 -5.85 -266.9 -8.25 -264.05 L-12.8 -265.95 -12.65 -266.3 -12.95 -266.0 -13.65 -266.3 -15.7 -267.15 -19.35 -269.1 Q-14.8 -272.1 -10.55 -275.35 M-36.75 -277.0 Q-32.65 -279.8 -28.5 -283.45 -32.65 -279.8 -36.75 -277.0 L-41.5 -279.1 -40.15 -279.55 -41.75 -279.15 -41.65 -279.8 Q-48.65 -278.25 -55.75 -277.55 L-57.2 -277.6 -57.65 -277.6 -57.9 -277.65 -64.4 -278.45 Q-69.6 -279.45 -74.65 -281.55 -55.1 -279.95 -44.75 -284.25 -34.45 -288.6 -31.9 -290.95 -25.6 -288.85 -28.5 -283.45 L-30.4 -280.75 Q-33.75 -276.6 -37.3 -276.65 L-36.75 -277.0 M-10.4 -275.45 L-9.35 -276.15 -8.8 -276.7 -8.5 -277.0 -8.8 -276.7 -9.35 -276.15 -10.4 -275.45 M-33.8 -281.7 L-40.15 -279.55 -33.8 -281.7" fill="#091425" fill-rule="evenodd" stroke="none"/>
    <path d="M5.4 -260.55 L5.5 -260.65 5.45 -260.6 5.4 -260.55 M2.45 -254.45 L2.45 -254.0 Q2.25 -251.05 3.55 -244.55 4.8 -238.05 7.6 -237.0 10.35 -235.95 10.85 -235.25 L15.5 -234.3 19.1 -233.65 20.95 -233.35 24.5 -232.8 25.0 -232.75 68.3 -229.45 68.9 -229.45 69.65 -229.4 70.8 -229.4 73.85 -229.3 75.25 -229.25 Q99.75 -229.2 103.4 -233.35 L105.4 -230.6 107.15 -228.1 Q104.55 -227.05 101.8 -226.35 96.3 -225.05 90.5 -225.0 57.25 -224.75 27.05 -226.9 24.3 -226.35 17.15 -226.85 20.8 -203.05 35.35 -195.45 41.95 -192.05 47.2 -190.65 L46.95 -190.65 44.85 -190.95 33.8 -193.55 33.05 -193.8 33.8 -193.55 33.1 -193.75 33.05 -193.8 Q25.1 -196.65 18.9 -201.8 L17.55 -203.3 10.3 -212.3 9.65 -213.2 9.0 -214.15 4.6 -221.7 1.75 -228.75 1.5 -229.75 0.35 -238.75 0.35 -238.8 -1.05 -239.35 Q-3.15 -249.05 0.9 -255.7 -3.15 -249.05 -1.05 -239.35 L-4.2 -240.7 -4.25 -240.75 -9.3 -242.55 -5.35 -248.15 0.9 -255.7 1.95 -256.9 2.65 -257.65 1.95 -256.9 2.65 -257.65 2.45 -254.45 M10.85 -235.25 L9.45 -235.55 5.85 -236.45 5.85 -236.4 0.35 -238.75 5.85 -236.4 5.85 -236.45 9.45 -235.55 10.85 -235.25 M-0.35 -239.05 L0.35 -238.8 -0.35 -239.05 M-36.75 -277.0 L-37.3 -276.65 Q-46.7 -270.55 -56.35 -268.8 -58.15 -270.15 -58.85 -272.35 -59.95 -275.85 -57.9 -277.65 L-57.65 -277.6 -57.2 -277.6 Q-49.6 -277.25 -41.75 -279.15 L-40.15 -279.55 -41.5 -279.1 -36.75 -277.0 M-8.25 -264.05 L-10.05 -261.75 -10.6 -260.95 Q-15.25 -254.15 -16.4 -245.45 -32.8 -252.55 -49.4 -263.9 L-49.5 -263.9 -51.15 -265.1 -54.1 -267.15 -49.05 -265.95 Q-35.2 -263.45 -20.7 -269.85 L-19.35 -269.1 -15.7 -267.15 -13.65 -266.3 -12.8 -265.95 -8.25 -264.05" fill="#3572b4" fill-rule="evenodd" stroke="none"/>
    <path d="M37.15 -261.4 L47.0 -261.5 48.0 -261.5 Q61.65 -261.5 72.6 -260.8 L73.0 -260.8 82.0 -260.15 84.6 -259.9 92.25 -258.9 94.1 -258.6 95.6 -258.35 96.15 -258.25 99.8 -257.5 100.65 -253.25 100.75 -252.65 Q75.8 -256.85 54.9 -256.35 34.0 -255.85 20.5 -255.9 6.95 -256.0 2.45 -254.45 L2.65 -257.65 5.4 -260.55 5.45 -260.6 12.45 -260.7 12.45 -260.75 16.75 -260.9 17.25 -260.9 18.8 -260.95 20.2 -260.55 Q20.65 -260.45 20.85 -261.0 L35.8 -261.4 37.15 -261.4" fill="#79c7ff" fill-rule="evenodd" stroke="none"/>
    <path d="M15.2 -303.3 Q21.2 -304.35 20.2 -299.95 19.2 -295.6 17.95 -293.05 16.65 -290.55 13.25 -289.65 9.85 -288.8 7.7 -290.6 5.55 -292.4 7.1 -296.55 8.6 -300.7 15.2 -303.3 M55.0 -297.55 Q63.85 -295.7 64.2 -290.15 64.5 -284.65 62.45 -284.75 50.0 -285.25 52.25 -297.3 52.5 -298.8 55.0 -297.55 M82.2 -300.15 Q91.9 -295.35 91.9 -291.65 91.9 -287.95 85.6 -288.3 79.3 -288.65 80.75 -298.95 80.95 -300.1 82.2 -300.15 M-10.65 -314.05 Q-8.0 -311.5 -12.55 -308.4 -17.1 -305.3 -20.45 -304.95 -23.85 -304.6 -27.35 -305.8 -30.9 -307.05 -27.05 -309.1 -19.45 -313.05 -10.65 -314.05" fill="#245091" fill-rule="evenodd" stroke="none"/>
    <path d="M37.15 -261.4 L47.0 -261.5 M48.0 -261.5 Q61.65 -261.5 72.6 -260.8 L73.0 -260.8 82.0 -260.15 84.6 -259.9 92.25 -258.9 M105.7 -240.5 Q107.2 -242.9 108.25 -245.4 112.65 -256.15 108.25 -269.05 107.05 -272.45 105.3 -275.95 M20.85 -261.0 L35.8 -261.4 37.15 -261.4 M16.75 -260.9 L17.25 -260.9 18.8 -260.95 20.85 -261.0 M5.45 -260.6 L12.45 -260.7 12.45 -260.75 16.75 -260.9 M5.45 -260.6 L5.5 -260.65 5.4 -260.55 5.45 -260.6 M10.85 -235.25 L15.5 -234.3 19.1 -233.65 20.95 -233.35 24.5 -232.8 M25.0 -232.75 L68.3 -229.45 68.9 -229.45 69.65 -229.4 70.8 -229.4 73.85 -229.3 75.25 -229.25 Q99.75 -229.2 103.4 -233.35 L104.3 -238.4 Q102.3 -235.75 99.7 -233.2 102.3 -242.4 100.75 -252.65 M2.65 -257.65 L1.95 -256.9 0.9 -255.7 Q-3.15 -249.05 -1.05 -239.35 L-0.35 -239.05 0.35 -238.8 0.35 -238.75 5.85 -236.4 5.85 -236.45 9.45 -235.55 10.85 -235.25 M2.65 -257.65 L5.4 -260.55 Q2.5 -258.45 0.9 -255.7 L-5.35 -248.15 -9.3 -242.55 -4.25 -240.75 -4.2 -240.7 -1.05 -239.35 Q-1.25 -239.1 -1.85 -239.5 -2.5 -239.9 -3.4 -238.95 L-5.15 -237.1 -9.1 -231.5 Q-22.3 -208.2 -17.2 -182.2 L-10.65 -191.25 Q-3.05 -201.75 9.35 -213.65 L9.0 -214.15 9.65 -213.2 10.3 -212.3 17.55 -203.3 18.9 -201.8 Q25.1 -196.65 33.05 -193.8 L33.8 -193.55 44.85 -190.95 46.95 -190.65 47.2 -190.65 48.7 -190.5 48.9 -190.5 49.0 -190.45 49.1 -190.45 58.0 -190.2 58.85 -190.25 74.85 -192.45 74.95 -191.1 75.0 -190.85 74.95 -190.5 74.5 -185.6 73.95 -182.05 73.65 -180.45 Q70.95 -168.05 63.35 -161.25 59.85 -158.2 55.4 -156.25 57.65 -159.85 58.45 -165.5 59.05 -170.4 58.6 -176.8 57.5 -173.3 55.35 -170.55 51.45 -165.6 43.95 -162.95 48.7 -169.6 48.3 -180.35 48.15 -185.1 46.95 -190.65 M5.5 -260.65 Q10.5 -265.85 16.6 -271.3 M1.5 -229.75 L1.75 -228.75 4.6 -221.7 9.0 -214.15 M107.15 -228.1 L105.4 -230.6 103.4 -233.35 M0.35 -238.75 L1.5 -229.75 -1.05 -239.35 -0.35 -239.05 0.35 -238.8 M108.25 -269.05 L110.6 -266.45 Q117.5 -258.7 119.25 -252.05 122.05 -257.8 119.8 -264.65 117.2 -272.35 108.25 -281.5 L107.0 -282.75 106.55 -283.15 102.0 -287.7 Q84.2 -306.55 59.25 -316.85 23.85 -330.45 -13.9 -320.5 L-14.9 -320.25 Q-44.2 -313.0 -59.85 -323.25 -59.85 -320.45 -59.45 -317.9 -57.4 -306.0 -45.25 -299.25 -41.85 -297.4 -37.6 -295.9 M94.1 -258.6 L95.6 -258.35 96.15 -258.25 99.8 -257.5 Q98.25 -263.75 95.3 -270.35 M99.8 -257.5 L100.65 -253.25 M104.3 -238.4 L104.55 -238.75 105.7 -240.5 M107.15 -228.1 L115.55 -215.55 Q124.0 -202.7 126.15 -196.2 128.6 -188.7 110.1 -192.2 L97.95 -193.5 96.0 -193.55 Q96.75 -190.95 96.75 -188.5 96.85 -178.95 85.95 -171.85 82.2 -169.45 77.15 -167.3 81.25 -171.75 83.7 -176.7 86.05 -181.5 86.95 -186.75 L87.2 -188.65 86.5 -186.65 Q82.9 -177.6 75.7 -172.1 L72.05 -169.7 73.65 -180.45 M96.0 -193.55 L89.7 -193.55 85.1 -193.35 74.85 -192.45 M87.2 -188.65 L88.2 -192.1 M59.4 -180.95 L58.6 -176.8 M59.4 -180.95 L59.55 -184.05 M-45.25 -299.25 L-48.45 -299.0 Q-66.05 -297.65 -77.65 -300.5 -73.65 -294.85 -68.8 -291.55 -62.15 -287.05 -53.8 -286.9 L-53.65 -286.95 -52.5 -287.3 -49.3 -288.45 Q-46.2 -289.65 -43.25 -291.05 M-10.45 -275.4 L-10.4 -275.45 -9.35 -276.15 -8.8 -276.7 -8.5 -277.0 -6.9 -278.3 M-2.75 -269.35 Q1.8 -273.05 7.8 -275.95 M-28.5 -283.45 Q-32.65 -279.8 -36.75 -277.0 L-37.3 -276.65 Q-46.7 -270.55 -56.35 -268.8 -58.15 -270.15 -58.85 -272.35 -59.95 -275.85 -57.9 -277.65 L-64.4 -278.45 Q-69.6 -279.45 -74.65 -281.55 -76.35 -282.25 -78.0 -283.05 L-69.85 -283.65 Q-61.4 -284.6 -53.8 -286.9 M-57.65 -277.6 L-57.2 -277.6 Q-49.6 -277.25 -41.75 -279.15 L-40.15 -279.55 -33.8 -281.7 M-26.55 -285.25 L-26.85 -284.95 -28.5 -283.45 M-2.75 -269.35 Q-5.85 -266.9 -8.25 -264.05 L-10.05 -261.75 -10.6 -260.95 Q-15.25 -254.15 -16.4 -245.45 -17.3 -239.0 -15.9 -232.7 L-15.45 -230.8 -15.35 -230.4 Q-14.0 -235.3 -9.3 -242.55 M-13.65 -266.3 L-15.7 -267.15 -19.35 -269.1 -20.7 -269.85 Q-35.2 -263.45 -49.05 -265.95 L-54.1 -267.15 -51.15 -265.1 -49.5 -263.9 -49.4 -263.9 Q-32.8 -252.55 -16.4 -245.45 M-12.8 -265.95 L-13.65 -266.3 M-12.8 -265.95 L-8.25 -264.05 M-10.55 -275.35 Q-15.7 -272.05 -20.7 -269.85 M-64.75 -278.05 L-64.4 -278.45 M-56.35 -268.8 L-58.0 -268.55 -54.1 -267.15 M-36.75 -277.0 L-41.5 -279.1 -40.15 -279.55 M0.35 -238.75 L-1.05 -239.35" fill="none" stroke="#1a5283" stroke-linecap="round" stroke-linejoin="round" stroke-width="2.0"/>
    <path d="M40.05 -315.7 Q28.25 -331.85 1.1 -336.6 42.85 -347.05 43.2 -318.5 49.5 -331.55 35.1 -349.55 71.45 -342.6 46.05 -317.25 L40.05 -315.7" fill="#132a4c" fill-rule="evenodd" stroke="none"/>
    <path d="M40.05 -315.7 Q28.25 -331.85 1.1 -336.6 42.85 -347.05 43.2 -318.5 49.5 -331.55 35.1 -349.55 71.45 -342.6 46.05 -317.25" fill="none" stroke="#1a5283" stroke-linecap="round" stroke-linejoin="round" stroke-width="2.0"/>
  </g>
</svg>
