<?xml version="1.0" encoding="UTF-8" standalone="no"?>
<svg xmlns:xlink="http://www.w3.org/1999/xlink" height="322.75px" width="221.85px" xmlns="http://www.w3.org/2000/svg">
  <g transform="matrix(1.0, 0.0, 0.0, 1.0, 131.65, 361.1)">
    <path d="M39.45 -287.45 Q33.05 -294.85 25.9 -300.55 L23.35 -300.8 28.9 -286.35 Q8.75 -284.15 -10.25 -281.2 -11.25 -285.45 -11.8 -296.5 -19.35 -290.95 -20.35 -280.15 L-20.4 -279.5 -43.2 -275.25 Q-37.05 -304.25 -40.3 -295.05 -48.8 -286.55 -51.5 -282.45 -67.25 -258.6 -68.35 -232.45 -71.3 -240.45 -72.3 -248.15 -73.75 -258.95 -71.45 -269.0 L-72.55 -269.1 -71.05 -270.5 Q-63.9 -278.0 -71.25 -283.55 -72.5 -283.5 -73.25 -282.5 -78.05 -276.1 -84.95 -272.45 -100.9 -264.05 -119.1 -262.95 L-120.4 -263.3 Q-112.05 -263.85 -105.5 -268.55 -100.7 -282.6 -95.05 -288.3 -115.35 -286.45 -126.6 -301.8 -128.8 -304.8 -130.65 -308.4 -107.3 -295.8 -71.9 -315.65 -43.65 -331.45 -9.7 -329.0 20.0 -326.45 44.85 -311.1 L55.65 -302.25 56.15 -301.8 59.8 -298.9 60.05 -298.7 Q65.3 -295.2 70.75 -294.85 74.35 -294.65 78.1 -295.85 75.65 -291.6 72.65 -289.05 L70.75 -289.3 55.05 -291.3 Q48.2 -292.25 47.3 -293.8 47.2 -292.85 47.45 -291.65 47.85 -289.7 48.9 -288.35 L49.6 -288.4 39.45 -287.45 M-92.2 -288.65 L-95.05 -288.3 -92.2 -288.65 M22.4 -210.05 Q18.45 -203.4 16.45 -198.7 14.45 -194.05 12.5 -185.35 8.3 -193.6 8.9 -205.25 L8.9 -205.3 Q9.0 -206.8 14.75 -207.9 20.55 -209.05 22.4 -210.05 M8.85 -207.0 L7.8 -201.25 Q5.85 -191.2 4.45 -181.3 -5.45 -190.6 -7.1 -201.75 0.85 -204.55 8.85 -207.0 M-58.25 -204.35 Q-55.2 -200.95 -51.55 -191.55 -47.9 -182.2 -42.05 -171.65 -48.05 -173.1 -52.9 -175.3 -46.1 -158.7 -36.65 -146.1 -42.2 -147.9 -47.15 -150.05 -76.65 -182.0 -88.8 -215.35 L-89.3 -211.4 Q-98.35 -191.75 -122.05 -189.45 -104.75 -197.7 -95.25 -218.7 L-95.6 -218.55 -94.6 -220.15 -95.25 -218.7 -94.6 -220.15 -94.55 -220.25 -94.45 -220.55 Q-93.9 -221.9 -93.8 -223.55 -93.65 -225.6 -95.35 -225.15 -108.8 -221.65 -121.85 -225.35 -112.0 -227.0 -103.25 -232.35 -99.1 -234.9 -95.15 -238.25 L-92.45 -240.8 -95.15 -238.25 Q-113.7 -237.4 -124.6 -244.15 -106.15 -241.4 -98.05 -252.45 -94.35 -251.15 -89.55 -250.2 -71.4 -243.8 -66.8 -225.0 -64.5 -215.55 -60.2 -206.95 -59.15 -204.9 -58.1 -203.6 L-58.25 -204.35 M-99.75 -257.6 Q-100.55 -247.6 -115.0 -247.15 -110.85 -248.9 -106.8 -261.1 L-98.95 -261.4 Q-99.65 -259.5 -99.75 -257.6 M51.35 -297.65 Q48.7 -297.15 47.8 -295.5 48.8 -296.5 51.35 -297.65 M-93.25 -280.7 Q-98.65 -273.5 -105.5 -268.55 -98.65 -273.5 -93.25 -280.7 M-71.45 -269.0 L-71.05 -270.5 -71.45 -269.0 M-92.75 -224.85 L-94.45 -220.55 -92.75 -224.85 M-88.35 -217.85 L-88.8 -215.35 -88.35 -217.85 M-69.5 -190.75 Q-64.55 -180.75 -52.9 -175.3 -64.55 -180.75 -69.5 -190.75" fill="#132a4c" fill-rule="evenodd" stroke="none"/>
    <path d="M60.4 -221.45 L60.35 -221.45 Q57.15 -221.25 53.25 -221.4 40.7 -221.9 27.85 -220.15 19.05 -218.95 10.05 -216.7 -0.15 -214.2 -6.9 -212.15 L-9.05 -211.5 -13.45 -210.2 Q-13.75 -210.75 -14.9 -210.8 -27.75 -211.55 -38.9 -217.35 -52.4 -224.35 -54.8 -238.7 L-54.95 -238.7 -41.25 -239.75 Q-30.85 -240.65 8.2 -246.9 44.05 -252.65 58.6 -260.0 59.0 -258.9 64.1 -251.0 69.15 -243.15 70.1 -236.3 71.05 -229.5 65.95 -225.5 L60.4 -221.45 M56.1 -280.9 Q59.95 -271.35 58.95 -265.2 50.0 -254.25 -0.9 -248.85 -34.85 -243.85 -51.2 -243.75 -56.4 -244.6 -57.05 -249.85 -57.7 -255.1 -57.75 -261.0 L-55.2 -266.3 Q-36.95 -270.35 -1.9 -276.65 33.1 -283.0 56.1 -280.9 M-64.05 -245.2 L-62.15 -244.6 -64.45 -244.1 -64.05 -245.2" fill="#4c97d9" fill-rule="evenodd" stroke="none"/>
    <path d="M39.45 -287.45 L49.6 -288.4 52.5 -288.65 53.1 -287.45 53.95 -285.7 56.1 -280.9 Q33.1 -283.0 -1.9 -276.65 -36.95 -270.35 -55.2 -266.3 L-51.45 -273.5 -43.2 -275.25 -20.4 -279.5 -10.4 -281.15 -10.25 -281.2 Q8.75 -284.15 28.9 -286.35 L29.75 -286.45 37.6 -287.25 39.45 -287.45" fill="#79c7ff" fill-rule="evenodd" stroke="none"/>
    <path d="M57.15 -287.1 Q62.5 -278.45 61.5 -269.45 L58.95 -265.2 66.0 -251.85 67.25 -249.5 76.3 -232.35 Q76.25 -228.0 73.1 -225.35 L70.75 -223.8 Q66.9 -221.9 60.4 -221.45 L65.95 -225.5 Q71.05 -229.5 70.1 -236.3 69.15 -243.15 64.1 -251.0 59.0 -258.9 58.6 -260.0 44.05 -252.65 8.2 -246.9 -30.85 -240.65 -41.25 -239.75 L-54.95 -238.7 -54.8 -238.7 Q-52.4 -224.35 -38.9 -217.35 -27.75 -211.55 -14.9 -210.8 -13.75 -210.75 -13.45 -210.2 L-18.35 -208.8 Q-20.85 -208.1 -23.25 -207.75 -35.05 -206.05 -44.35 -212.45 L-48.15 -215.5 Q-54.45 -221.45 -58.4 -227.2 -62.6 -233.35 -64.1 -239.2 L-64.7 -242.55 -64.75 -242.8 -64.75 -243.05 -64.45 -244.1 -62.15 -244.6 -64.05 -245.2 -63.3 -247.45 -62.9 -248.5 -58.1 -260.25 -57.75 -261.05 -57.75 -261.0 -58.1 -260.25 -57.75 -261.0 Q-57.7 -255.1 -57.05 -249.85 -56.4 -244.6 -51.2 -243.75 -34.85 -243.85 -0.9 -248.85 50.0 -254.25 58.95 -265.2 59.95 -271.35 56.1 -280.9 L53.95 -285.7 57.15 -287.1 M-98.05 -252.45 L-98.95 -252.75 Q-99.85 -255.15 -99.75 -257.6 -99.65 -259.5 -98.95 -261.4 -87.75 -262.75 -79.45 -269.9 L-72.55 -269.1 -71.45 -269.0 Q-73.75 -258.95 -72.3 -248.15 -82.2 -248.8 -89.55 -250.2 -94.35 -251.15 -98.05 -252.45 M-51.2 -243.75 Q-58.35 -243.7 -62.1 -244.6 L-62.15 -244.6 -62.1 -244.6 Q-58.35 -243.7 -51.2 -243.75" fill="#3572b4" fill-rule="evenodd" stroke="none"/>
    <path d="M28.9 -286.35 L23.35 -300.8 25.9 -300.55 Q33.05 -294.85 39.45 -287.45 L37.6 -287.25 29.75 -286.45 28.9 -286.35 M49.6 -288.4 L48.9 -288.35 Q47.85 -289.7 47.45 -291.65 47.2 -292.85 47.3 -293.8 48.2 -292.25 55.05 -291.3 L70.75 -289.3 72.65 -289.05 70.75 -287.65 Q67.05 -285.3 62.6 -285.3 57.55 -286.75 55.75 -289.35 L57.15 -287.1 53.95 -285.7 53.1 -287.45 52.5 -288.65 49.6 -288.4 M61.5 -269.45 Q66.55 -265.75 70.75 -263.9 77.15 -261.2 81.65 -262.75 78.4 -256.2 70.75 -253.25 68.55 -252.4 66.0 -251.85 L58.95 -265.2 61.5 -269.45 M67.25 -249.5 L70.75 -245.45 Q79.5 -235.85 89.2 -230.2 83.8 -223.35 73.1 -225.35 76.25 -228.0 76.3 -232.35 L67.25 -249.5 M27.85 -220.15 L22.4 -210.05 Q20.55 -209.05 14.75 -207.9 9.0 -206.8 8.9 -205.3 L9.3 -209.85 8.95 -207.55 8.85 -207.0 Q0.85 -204.55 -7.1 -201.75 -7.85 -206.75 -6.9 -212.15 -0.15 -214.2 10.05 -216.7 19.05 -218.95 27.85 -220.15 M-9.05 -211.5 Q-5.5 -196.15 -24.45 -183.4 L-23.25 -207.75 Q-20.85 -208.1 -18.35 -208.8 L-13.45 -210.2 -9.05 -211.5 M-58.4 -227.2 L-58.75 -222.95 Q-59.6 -212.1 -58.25 -204.35 L-58.1 -203.6 Q-59.15 -204.9 -60.2 -206.95 -64.5 -215.55 -66.8 -225.0 -71.4 -243.8 -89.55 -250.2 -82.2 -248.8 -72.3 -248.15 -71.3 -240.45 -68.35 -232.45 L-68.2 -231.95 -67.9 -231.2 Q-66.65 -237.05 -64.75 -243.05 -66.65 -237.05 -67.9 -231.2 L-68.2 -231.95 -68.35 -232.45 Q-67.25 -258.6 -51.5 -282.45 -48.8 -286.55 -40.3 -295.05 -37.05 -304.25 -43.2 -275.25 L-51.45 -273.5 -55.2 -266.3 -57.75 -261.0 -57.75 -261.05 -58.1 -260.25 -62.9 -248.5 -63.3 -247.45 -64.05 -245.2 -64.45 -244.1 -64.75 -243.05 -64.75 -242.8 -64.7 -242.55 -64.1 -239.2 Q-62.6 -233.35 -58.4 -227.2 M-47.15 -150.05 Q-59.4 -155.4 -68.0 -163.0 L-61.2 -152.2 Q-82.45 -168.55 -87.85 -189.55 -105.3 -183.4 -122.05 -189.45 -98.35 -191.75 -89.3 -211.4 L-88.8 -215.35 Q-76.65 -182.0 -47.15 -150.05 M-95.6 -218.55 Q-106.05 -213.9 -123.35 -225.15 L-121.85 -225.35 Q-108.8 -221.65 -95.35 -225.15 -93.65 -225.6 -93.8 -223.55 -93.9 -221.9 -94.45 -220.55 L-94.55 -220.25 -94.6 -220.15 -95.6 -218.55 M-103.25 -232.35 Q-116.2 -229.65 -124.6 -244.15 -113.7 -237.4 -95.15 -238.25 -99.1 -234.9 -103.25 -232.35 M-106.8 -261.1 Q-111.9 -261.2 -119.1 -262.95 -100.9 -264.05 -84.95 -272.45 -78.05 -276.1 -73.25 -282.5 -72.5 -283.5 -71.25 -283.55 -63.9 -278.0 -71.05 -270.5 L-72.55 -269.1 -79.45 -269.9 Q-87.75 -262.75 -98.95 -261.4 L-106.8 -261.1 M10.05 -216.7 L9.6 -212.15 9.3 -209.85 9.6 -212.15 10.05 -216.7 M51.35 -297.65 Q48.8 -296.5 47.8 -295.5 48.7 -297.15 51.35 -297.65 M-10.25 -281.2 L-10.4 -281.15 -20.4 -279.5 -20.35 -280.15 Q-19.35 -290.95 -11.8 -296.5 -11.25 -285.45 -10.25 -281.2 M-46.8 -281.5 L-51.45 -273.5 -46.8 -281.5 M-79.45 -269.9 Q-77.0 -272.0 -74.8 -274.6 -77.0 -272.0 -79.45 -269.9 M-71.05 -270.5 Q-70.1 -274.4 -68.65 -278.05 -70.1 -274.4 -71.05 -270.5 M-85.4 -189.8 Q-80.5 -174.05 -68.05 -163.05 L-68.0 -163.0 -68.05 -163.05 Q-80.5 -174.05 -85.4 -189.8 M-89.3 -211.4 Q-90.5 -199.95 -87.85 -189.55 -90.5 -199.95 -89.3 -211.4" fill="#091425" fill-rule="evenodd" stroke="none"/>
    <path d="M39.45 -287.45 L49.6 -288.4 52.5 -288.65 53.1 -287.45 53.95 -285.7 57.15 -287.1 Q62.5 -278.45 61.5 -269.45 66.55 -265.75 70.75 -263.9 77.15 -261.2 81.65 -262.75 78.4 -256.2 70.75 -253.25 68.55 -252.4 66.0 -251.85 L67.25 -249.5 70.75 -245.45 Q79.5 -235.85 89.2 -230.2 83.8 -223.35 73.1 -225.35 L70.75 -223.8 Q66.9 -221.9 60.4 -221.45 L60.35 -221.45 Q57.15 -221.25 53.25 -221.4 40.7 -221.9 27.85 -220.15 L22.4 -210.05 Q18.45 -203.4 16.45 -198.7 14.45 -194.05 12.5 -185.35 8.3 -193.6 8.9 -205.25 L8.9 -205.3 9.3 -209.85 8.95 -207.55 8.85 -207.0 7.8 -201.25 Q5.85 -191.2 4.45 -181.3 -5.45 -190.6 -7.1 -201.75 -7.85 -206.75 -6.9 -212.15 L-9.05 -211.5 Q-5.5 -196.15 -24.45 -183.4 L-23.25 -207.75 Q-35.05 -206.05 -44.35 -212.45 L-48.15 -215.5 Q-54.45 -221.45 -58.4 -227.2 L-58.75 -222.95 Q-59.6 -212.1 -58.25 -204.35 -55.2 -200.95 -51.55 -191.55 -47.9 -182.2 -42.05 -171.65 -48.05 -173.1 -52.9 -175.3 -46.1 -158.7 -36.65 -146.1 -42.2 -147.9 -47.15 -150.05 -59.4 -155.4 -68.0 -163.0 L-61.2 -152.2 Q-82.45 -168.55 -87.85 -189.55 -105.3 -183.4 -122.05 -189.45 -104.75 -197.7 -95.25 -218.7 L-95.6 -218.55 Q-106.05 -213.9 -123.35 -225.15 L-121.85 -225.35 Q-112.0 -227.0 -103.25 -232.35 -116.2 -229.65 -124.6 -244.15 -106.15 -241.4 -98.05 -252.45 L-98.95 -252.75 Q-99.85 -255.15 -99.75 -257.6 -100.55 -247.6 -115.0 -247.15 -110.85 -248.9 -106.8 -261.1 -111.9 -261.2 -119.1 -262.95 L-120.4 -263.3 Q-112.05 -263.85 -105.5 -268.55 -100.7 -282.6 -95.05 -288.3 L-92.2 -288.65 M72.65 -289.05 Q75.65 -291.6 78.1 -295.85 74.35 -294.65 70.75 -294.85 65.3 -295.2 60.05 -298.7 L59.8 -298.9 56.15 -301.8 55.65 -302.25 44.85 -311.1 Q20.0 -326.45 -9.7 -329.0 -43.65 -331.45 -71.9 -315.65 -107.3 -295.8 -130.65 -308.4 -128.8 -304.8 -126.6 -301.8 -115.35 -286.45 -95.05 -288.3 M72.65 -289.05 L70.75 -287.65 Q67.05 -285.3 62.6 -285.3 57.55 -286.75 55.75 -289.35 L57.15 -287.1 M53.95 -285.7 L56.1 -280.9 Q59.95 -271.35 58.95 -265.2 L61.5 -269.45 M58.95 -265.2 L66.0 -251.85 M-13.45 -210.2 L-9.05 -211.5 M28.9 -286.35 L29.75 -286.45 37.6 -287.25 39.45 -287.45 M9.3 -209.85 L9.6 -212.15 10.05 -216.7 Q-0.15 -214.2 -6.9 -212.15 M27.85 -220.15 Q19.05 -218.95 10.05 -216.7 M67.25 -249.5 L76.3 -232.35 Q76.25 -228.0 73.1 -225.35 M-98.95 -261.4 Q-99.65 -259.5 -99.75 -257.6 M-98.05 -252.45 Q-94.35 -251.15 -89.55 -250.2 -82.2 -248.8 -72.3 -248.15 -73.75 -258.95 -71.45 -269.0 L-72.55 -269.1 -79.45 -269.9 Q-87.75 -262.75 -98.95 -261.4 L-106.8 -261.1 M-105.5 -268.55 Q-98.65 -273.5 -93.25 -280.7 M-71.05 -270.5 L-71.45 -269.0 M-94.45 -220.55 L-92.75 -224.85 M-92.45 -240.8 L-95.15 -238.25 Q-99.1 -234.9 -103.25 -232.35 M-94.6 -220.15 L-95.25 -218.7 M-94.45 -220.55 L-94.55 -220.25 -94.6 -220.15 M-89.3 -211.4 L-88.8 -215.35 -88.35 -217.85 M-10.4 -281.15 L-20.4 -279.5 -43.2 -275.25 -51.45 -273.5 -55.2 -266.3 -57.75 -261.0 -58.1 -260.25 -62.9 -248.5 -63.3 -247.45 -64.05 -245.2 -64.45 -244.1 -64.75 -243.05 Q-66.65 -237.05 -67.9 -231.2 L-68.2 -231.95 -68.35 -232.45 Q-71.3 -240.45 -72.3 -248.15 M-10.25 -281.2 Q8.75 -284.15 28.9 -286.35 M-51.45 -273.5 L-46.8 -281.5 M-51.2 -243.75 Q-34.85 -243.85 -0.9 -248.85 50.0 -254.25 58.95 -265.2 M-74.8 -274.6 Q-77.0 -272.0 -79.45 -269.9 M-68.65 -278.05 Q-70.1 -274.4 -71.05 -270.5 M-58.4 -227.2 Q-62.6 -233.35 -64.1 -239.2 L-64.7 -242.55 -64.75 -242.8 -64.75 -243.05 M-62.15 -244.6 L-64.05 -245.2 M-62.15 -244.6 L-62.1 -244.6 Q-58.35 -243.7 -51.2 -243.75 M-13.45 -210.2 L-18.35 -208.8 Q-20.85 -208.1 -23.25 -207.75 M-52.9 -175.3 Q-64.55 -180.75 -69.5 -190.75 M-68.0 -163.0 L-68.05 -163.05 Q-80.5 -174.05 -85.4 -189.8 M-87.85 -189.55 Q-90.5 -199.95 -89.3 -211.4" fill="none" stroke="#1a5283" stroke-linecap="round" stroke-linejoin="round" stroke-width="2.0"/>
    <path d="M-0.65 -315.6 Q9.95 -312.85 6.15 -304.2 5.65 -303.0 4.0 -303.5 -6.7 -306.85 -1.45 -315.1 L-0.65 -315.6 M25.45 -319.15 Q31.75 -317.3 35.45 -312.65 36.45 -311.4 34.95 -310.55 31.2 -308.3 26.75 -310.35 18.45 -314.2 25.45 -319.15 M-65.9 -309.8 Q-59.6 -306.1 -64.25 -301.8 L-65.4 -300.85 Q-71.95 -296.0 -76.75 -298.2 -79.75 -299.6 -78.75 -301.8 -78.15 -303.15 -76.0 -304.8 -71.4 -308.4 -65.9 -309.8 M-31.3 -313.6 Q-24.3 -311.15 -28.55 -303.5 L-29.65 -301.8 Q-32.6 -298.25 -36.45 -301.8 L-37.35 -302.7 Q-38.3 -303.75 -38.1 -305.4 -37.5 -311.75 -31.3 -313.6" fill="#245091" fill-rule="evenodd" stroke="none"/>
    <path d="M-24.4 -327.8 L-29.8 -324.75 Q-42.3 -337.8 -70.95 -344.45 -35.2 -355.75 -27.5 -328.25 -24.8 -342.5 -37.1 -360.1 -6.45 -358.85 -24.4 -327.8" fill="#132a4c" fill-rule="evenodd" stroke="none"/>
    <path d="M-24.4 -327.8 Q-6.45 -358.85 -37.1 -360.1 -24.8 -342.5 -27.5 -328.25 -35.2 -355.75 -70.95 -344.45 -42.3 -337.8 -29.8 -324.75" fill="none" stroke="#1a5283" stroke-linecap="round" stroke-linejoin="round" stroke-width="2.0"/>
    <path d="M-24.4 -144.95 L-26.1 -143.65 Q-41.0 -141.15 -48.65 -153.1 -49.05 -155.4 -48.65 -157.15 -46.15 -155.6 -43.65 -155.1 -41.15 -154.6 -41.65 -156.4 L-45.3 -166.35 Q-44.65 -168.15 -43.5 -169.0 -41.85 -170.25 -41.05 -170.0 L-40.6 -169.65 -39.7 -168.55 Q-35.55 -163.95 -30.15 -161.95 -26.9 -160.75 -23.15 -160.5 L-22.3 -160.45 Q-25.95 -153.25 -32.75 -152.2 -27.1 -149.95 -25.7 -148.45 L-25.4 -144.1 -24.4 -144.95 M-44.25 -98.15 Q-41.25 -87.75 -41.65 -79.1 L-49.8 -72.45 Q-47.25 -81.4 -46.9 -93.25 L-44.25 -98.15 M-102.35 -82.15 Q-101.3 -93.6 -93.05 -101.75 -79.5 -115.25 -73.1 -114.7 L-77.15 -109.35 Q-90.25 -98.6 -95.15 -84.95 -97.5 -78.5 -97.65 -71.9 L-97.75 -72.4 Q-98.95 -78.4 -102.35 -82.15" fill="#4c97d9" fill-rule="evenodd" stroke="none"/>
    <path d="M-45.85 -198.2 Q-43.55 -199.0 -39.8 -199.4 L-39.8 -203.9 -39.7 -204.4 -32.0 -204.3 -31.55 -204.3 -31.55 -203.7 Q-27.25 -204.45 -23.95 -202.15 L-23.95 -201.7 Q-19.4 -201.65 -16.45 -198.9 -13.65 -198.5 -11.4 -196.0 -11.55 -186.85 -14.45 -176.2 -17.4 -165.55 -23.15 -160.5 -26.9 -160.75 -30.15 -161.95 -40.6 -175.35 -43.35 -185.65 -46.1 -195.95 -45.85 -198.2 M-32.05 -203.8 L-32.0 -204.3 -32.05 -203.8 M-15.65 -192.2 L-16.45 -193.55 -16.45 -198.9 -16.45 -193.55 -15.65 -192.2 M-23.3 -193.85 L-23.95 -195.35 -23.95 -201.7 -23.95 -195.35 -23.3 -193.85 M-30.9 -195.15 L-31.55 -196.7 -31.55 -203.7 -31.55 -196.7 -30.9 -195.15 M-39.2 -190.35 Q-39.75 -193.95 -39.8 -199.4 -39.75 -193.95 -39.2 -190.35" fill="#233446" fill-rule="evenodd" stroke="none"/>
    <path d="M-47.35 -197.6 Q-47.4 -200.5 -44.85 -204.3 L-40.8 -210.35 -38.95 -209.55 -38.75 -211.15 -33.25 -219.45 Q-29.4 -221.95 -29.2 -216.1 -29.4 -213.3 -31.5 -209.7 L-32.0 -204.3 Q-28.35 -209.65 -23.7 -204.15 L-19.8 -204.35 Q-16.9 -203.95 -16.55 -201.75 -15.7 -202.4 -12.8 -200.3 -9.9 -198.35 -9.5 -193.35 L-9.6 -193.5 Q-10.45 -194.95 -11.4 -196.0 -13.65 -198.5 -16.45 -198.9 -19.4 -201.65 -23.95 -201.7 L-23.95 -202.15 Q-27.25 -204.45 -31.55 -203.7 L-31.55 -204.3 -32.0 -204.3 -39.7 -204.4 -39.8 -204.4 -39.8 -203.9 -39.8 -199.4 Q-43.55 -199.0 -45.85 -198.2 L-47.35 -197.6 M-26.1 -143.65 L-27.9 -138.3 -33.45 -121.0 -33.65 -120.5 Q-39.4 -106.6 -43.65 -99.2 -60.1 -85.2 -71.95 -90.6 -78.25 -95.3 -74.6 -105.1 -70.95 -115.0 -70.1 -118.75 L-66.6 -123.75 Q-60.4 -132.0 -56.75 -138.3 -52.5 -145.55 -48.65 -153.1 -41.0 -141.15 -26.1 -143.65 M-38.95 -209.55 L-39.7 -204.4 -38.95 -209.55 M-23.7 -204.15 L-23.95 -201.7 -23.7 -204.15 M-16.45 -198.9 L-16.55 -201.75 -16.45 -198.9" fill="#ffe8d7" fill-rule="evenodd" stroke="none"/>
    <path d="M-43.65 -99.2 L-44.25 -98.15 -46.9 -93.25 -48.6 -90.15 Q-61.6 -71.5 -77.15 -77.95 -90.35 -87.65 -77.15 -109.35 L-73.1 -114.7 -70.1 -118.75 Q-70.95 -115.0 -74.6 -105.1 -78.25 -95.3 -71.95 -90.6 -60.1 -85.2 -43.65 -99.2" fill="#e0bcaa" fill-rule="evenodd" stroke="none"/>
    <path d="M-18.85 -160.5 Q-18.75 -154.7 -21.8 -151.8 L-21.85 -151.1 -22.0 -149.95 -22.0 -149.8 -22.05 -149.55 -22.15 -149.1 -22.25 -148.7 -22.3 -148.6 -22.3 -148.5 -24.4 -144.95 -25.4 -144.1 -25.7 -148.45 Q-27.1 -149.95 -32.75 -152.2 -25.95 -153.25 -22.3 -160.45 L-20.05 -160.45 -18.85 -160.5 M-41.65 -79.1 L-41.7 -78.7 Q-41.8 -66.35 -51.7 -55.95 L-51.8 -55.85 -52.1 -55.6 -52.3 -55.4 -52.6 -55.1 -52.8 -54.9 -53.1 -54.65 -53.3 -54.5 Q-57.4 -49.0 -61.85 -45.5 -70.55 -38.65 -80.55 -39.45 -90.0 -40.2 -95.1 -45.5 -98.2 -48.7 -99.7 -53.5 -100.95 -58.7 -100.7 -65.85 -102.1 -71.05 -102.4 -75.75 L-102.5 -78.2 -102.35 -82.15 Q-98.95 -78.4 -97.75 -72.4 L-97.65 -71.9 Q-97.5 -78.5 -95.15 -84.95 -90.25 -98.6 -77.15 -109.35 -90.35 -87.65 -77.15 -77.95 -61.6 -71.5 -48.6 -90.15 L-46.9 -93.25 Q-47.25 -81.4 -49.8 -72.45 L-41.65 -79.1 M-48.65 -157.15 Q-48.15 -159.5 -46.25 -160.95 -46.1 -164.3 -45.3 -166.35 L-41.65 -156.4 Q-41.15 -154.6 -43.65 -155.1 -46.15 -155.6 -48.65 -157.15 M-49.8 -72.45 Q-51.05 -68.05 -52.85 -64.3 -58.25 -53.1 -69.95 -45.5 -79.55 -39.3 -88.0 -45.5 L-91.7 -48.85 Q-97.9 -60.55 -97.65 -71.9 -97.9 -60.55 -91.7 -48.85 L-88.0 -45.5 Q-79.55 -39.3 -69.95 -45.5 -58.25 -53.1 -52.85 -64.3 -51.05 -68.05 -49.8 -72.45" fill="#3572b4" fill-rule="evenodd" stroke="none"/>
    <path d="M-9.5 -193.35 Q-9.5 -186.05 -11.25 -177.25 -11.65 -175.75 -13.6 -170.35 -15.6 -164.95 -18.85 -160.5 L-20.05 -160.45 -22.3 -160.45 -23.15 -160.5 Q-17.4 -165.55 -14.45 -176.2 -11.55 -186.85 -11.4 -196.0 -10.45 -194.95 -9.6 -193.5 L-9.5 -193.35 M-41.05 -170.0 L-44.25 -178.0 Q-47.1 -183.55 -47.8 -189.85 -48.6 -196.2 -47.35 -197.6 L-45.85 -198.2 Q-46.1 -195.95 -43.35 -185.65 -40.6 -175.35 -30.15 -161.95 -35.55 -163.95 -39.7 -168.55 L-40.6 -169.65 -41.05 -170.0" fill="#121b25" fill-rule="evenodd" stroke="none"/>
    <path d="M-47.35 -197.6 Q-47.4 -200.5 -44.85 -204.3 L-40.8 -210.35 -38.95 -209.55 -38.75 -211.15 -33.25 -219.45 Q-29.4 -221.95 -29.2 -216.1 -29.4 -213.3 -31.5 -209.7 L-32.0 -204.3 Q-28.35 -209.65 -23.7 -204.15 L-19.8 -204.35 Q-16.9 -203.95 -16.55 -201.75 -15.7 -202.4 -12.8 -200.3 -9.9 -198.35 -9.5 -193.35 -9.5 -186.05 -11.25 -177.25 -11.65 -175.75 -13.6 -170.35 -15.6 -164.95 -18.85 -160.5 -18.75 -154.7 -21.8 -151.8 L-21.85 -151.1 -22.0 -149.95 -22.0 -149.8 -22.05 -149.55 -22.15 -149.1 -22.25 -148.7 -22.3 -148.6 -22.3 -148.5 -24.4 -144.95 -26.1 -143.65 -27.9 -138.3 -33.45 -121.0 -33.65 -120.5 Q-39.4 -106.6 -43.65 -99.2 L-44.25 -98.15 Q-41.25 -87.75 -41.65 -79.1 M-41.7 -78.7 Q-41.8 -66.35 -51.7 -55.95 L-51.8 -55.85 -52.1 -55.6 -52.3 -55.4 -52.6 -55.1 -52.8 -54.9 -53.1 -54.65 -53.3 -54.5 Q-57.4 -49.0 -61.85 -45.5 -70.55 -38.65 -80.55 -39.45 -90.0 -40.2 -95.1 -45.5 -98.2 -48.7 -99.7 -53.5 -100.95 -58.7 -100.7 -65.85 -102.1 -71.05 -102.4 -75.75 L-102.5 -78.2 -102.35 -82.15 Q-101.3 -93.6 -93.05 -101.75 -79.5 -115.25 -73.1 -114.7 L-70.1 -118.75 -66.6 -123.75 Q-60.4 -132.0 -56.75 -138.3 -52.5 -145.55 -48.65 -153.1 -49.05 -155.4 -48.65 -157.15 -48.15 -159.5 -46.25 -160.95 -46.1 -164.3 -45.3 -166.35 -44.65 -168.15 -43.5 -169.0 -41.85 -170.25 -41.05 -170.0 L-44.25 -178.0 Q-47.1 -183.55 -47.8 -189.85 -48.6 -196.2 -47.35 -197.6 L-45.85 -198.2 Q-43.55 -199.0 -39.8 -199.4 L-39.8 -203.9 -39.8 -204.4 -39.7 -204.4 -38.95 -209.55 M-32.0 -204.3 L-31.55 -204.3 -31.55 -203.7 Q-27.25 -204.45 -23.95 -202.15 L-23.95 -201.7 -23.7 -204.15 M-32.0 -204.3 L-32.05 -203.8 M-32.0 -204.3 L-39.7 -204.4 -39.8 -203.9 M-16.55 -201.75 L-16.45 -198.9 Q-13.65 -198.5 -11.4 -196.0 -10.45 -194.95 -9.6 -193.5 L-9.5 -193.35 M-23.95 -201.7 Q-19.4 -201.65 -16.45 -198.9 L-16.45 -193.55 -15.65 -192.2 M-31.55 -203.7 L-31.55 -196.7 -30.9 -195.15 M-23.95 -201.7 L-23.95 -195.35 -23.3 -193.85 M-22.3 -160.45 L-23.15 -160.5 Q-26.9 -160.75 -30.15 -161.95 -35.55 -163.95 -39.7 -168.55 L-40.6 -169.65 -41.05 -170.0 M-22.3 -160.45 L-20.05 -160.45 -18.85 -160.5 M-73.1 -114.7 L-77.15 -109.35 Q-90.35 -87.65 -77.15 -77.95 -61.6 -71.5 -48.6 -90.15 L-46.9 -93.25 -44.25 -98.15 M-26.1 -143.65 Q-41.0 -141.15 -48.65 -153.1 M-77.15 -109.35 Q-90.25 -98.6 -95.15 -84.95 -97.5 -78.5 -97.65 -71.9 -97.9 -60.55 -91.7 -48.85 L-88.0 -45.5 Q-79.55 -39.3 -69.95 -45.5 -58.25 -53.1 -52.85 -64.3 -51.05 -68.05 -49.8 -72.45 -47.25 -81.4 -46.9 -93.25 M-39.8 -199.4 Q-39.75 -193.95 -39.2 -190.35" fill="none" stroke="#1a5283" stroke-linecap="round" stroke-linejoin="round" stroke-width="2.0"/>
  </g>
</svg>
