<?xml version="1.0" encoding="UTF-8" standalone="no"?>
<svg xmlns:xlink="http://www.w3.org/1999/xlink" height="315.45px" width="206.5px" xmlns="http://www.w3.org/2000/svg">
  <g transform="matrix(1.0, 0.0, 0.0, 1.0, 127.35, 353.8)">
    <path d="M66.65 -251.75 L66.0 -251.85 65.75 -252.3 65.55 -252.75 66.65 -251.75 M53.7 -286.25 L54.3 -285.85 53.95 -285.7 53.7 -286.25 M-98.35 -262.55 L-98.3 -262.6 -97.85 -263.15 -98.35 -262.55 M-98.9 -252.75 L-98.85 -252.7 -99.6 -252.2 -98.9 -252.75 M-95.4 -220.0 L-95.2 -220.35 -94.8 -220.2 -95.4 -220.0" fill="#cccccc" fill-rule="evenodd" stroke="none"/>
    <path d="M70.3 -243.7 L70.55 -243.25 70.8 -242.75 70.3 -243.7 M61.3 -221.5 L60.4 -221.45 60.35 -221.45 Q57.15 -221.25 53.25 -221.4 40.7 -221.9 27.85 -220.15 L25.1 -219.75 23.65 -219.5 Q16.9 -218.4 10.1 -216.7 L10.05 -216.7 8.8 -216.4 1.0 -214.4 -5.0 -213.5 Q-18.15 -212.2 -31.1 -212.95 -40.15 -216.25 -46.85 -224.1 -52.15 -230.3 -53.75 -237.95 L-44.15 -239.1 -0.05 -244.8 Q33.75 -249.35 47.4 -255.0 L59.35 -260.0 67.6 -245.35 Q74.85 -232.3 61.3 -221.5 M55.6 -282.1 L56.1 -280.9 Q59.95 -271.35 58.95 -265.2 50.0 -254.25 -0.9 -248.85 -34.85 -243.85 -51.2 -243.75 L-51.55 -243.75 Q-53.95 -244.2 -54.7 -244.8 -55.45 -245.45 -56.8 -250.5 -58.2 -255.6 -59.05 -262.8 L-57.55 -263.3 Q-46.5 -267.4 -35.2 -270.35 -21.2 -274.0 -6.95 -276.3 7.3 -278.6 25.8 -280.55 44.3 -282.5 49.8 -282.25 L55.6 -282.1 M74.75 -235.3 L76.3 -232.35 76.1 -230.35 Q75.75 -232.1 74.75 -233.75 L74.75 -235.3 M-65.0 -248.4 L-64.95 -248.15 -64.45 -247.1 -63.25 -244.9 -64.05 -245.25 -64.85 -245.6 -64.05 -245.25 -64.8 -245.05 -64.8 -245.2 -64.85 -245.6 -64.8 -245.6 -65.0 -248.4 M-61.4 -261.5 L-60.7 -263.85 -54.75 -271.85 -54.6 -271.95 Q-57.65 -266.6 -60.55 -262.65 L-61.4 -261.5 M-63.8 -238.15 L-63.7 -237.8 -63.7 -237.7 -63.8 -238.15" fill="#4c97d9" fill-rule="evenodd" stroke="none"/>
    <path d="M-121.4 -276.45 L-121.85 -276.8 Q-113.45 -275.35 -105.65 -277.0 -102.5 -284.55 -96.0 -289.95 L-95.05 -290.75 Q-112.1 -293.45 -120.7 -308.25 -123.65 -313.25 -125.6 -319.65 -110.15 -299.9 -76.15 -313.75 L-72.55 -315.35 Q-71.9 -315.7 -71.2 -316.0 L-70.35 -316.5 Q-42.75 -331.4 -9.7 -329.0 17.1 -326.7 40.0 -313.95 L40.25 -313.8 Q58.25 -299.5 64.4 -283.5 L65.9 -279.1 Q55.45 -289.6 41.05 -296.5 40.6 -296.4 40.6 -295.05 40.6 -293.7 41.95 -291.55 43.25 -289.4 43.75 -287.85 L39.45 -287.45 38.95 -287.4 39.4 -287.45 Q32.55 -295.25 23.6 -301.35 22.95 -301.3 21.45 -301.8 19.95 -302.3 21.65 -301.35 23.4 -300.5 29.15 -286.35 L28.9 -286.35 Q8.75 -284.15 -10.25 -281.2 L-14.35 -280.5 Q-9.45 -281.85 -18.8 -294.85 -19.35 -294.75 -19.45 -288.3 -19.6 -281.9 -25.4 -278.65 L-24.15 -278.85 -43.2 -275.25 -47.15 -274.4 Q-43.25 -283.15 -43.0 -293.6 -49.85 -288.15 -55.5 -279.8 L-68.45 -260.5 Q-75.75 -249.5 -82.4 -246.0 -89.05 -242.55 -90.35 -237.35 L-92.05 -236.7 Q-87.95 -241.55 -84.7 -247.3 -87.95 -241.55 -92.05 -236.7 L-90.35 -237.35 Q-84.55 -239.7 -79.3 -243.65 -71.4 -238.6 -67.7 -230.2 -62.8 -219.1 -59.0 -207.55 -58.3 -189.0 -52.55 -172.65 L-49.55 -165.0 -52.55 -167.1 Q-54.15 -168.25 -55.55 -169.35 -52.9 -156.7 -48.8 -147.3 -46.95 -143.05 -44.8 -139.5 L-46.1 -140.15 Q-74.2 -170.45 -85.3 -204.0 -85.25 -205.2 -85.95 -206.1 L-89.0 -217.35 -88.3 -220.05 -89.0 -217.35 Q-90.5 -211.2 -91.1 -205.2 L-91.0 -206.1 Q-103.15 -193.95 -121.7 -199.2 -122.8 -200.85 -123.6 -202.8 -106.95 -199.9 -96.05 -218.9 -95.3 -219.45 -94.8 -220.2 -94.15 -221.15 -93.8 -222.45 L-93.7 -223.3 Q-93.85 -223.8 -94.4 -223.85 -109.5 -225.25 -124.35 -229.65 L-123.95 -229.15 -125.85 -231.55 Q-112.7 -229.85 -103.8 -233.75 -97.2 -234.1 -95.8 -239.25 L-95.75 -239.35 Q-94.95 -242.45 -98.25 -241.75 -107.15 -239.85 -114.9 -243.45 -119.65 -245.6 -124.15 -248.05 L-124.75 -249.8 Q-112.6 -243.0 -99.6 -252.2 L-98.85 -252.7 -98.05 -252.45 Q-94.35 -251.15 -89.55 -250.2 L-87.65 -249.85 -84.7 -247.3 -83.65 -249.25 Q-81.7 -252.95 -80.1 -256.95 L-74.65 -269.35 -72.35 -273.95 -74.65 -269.35 -79.0 -269.85 -76.5 -271.15 Q-73.85 -272.6 -72.35 -273.95 -70.45 -275.8 -70.5 -277.45 -70.6 -279.6 -74.0 -281.55 -75.25 -281.45 -76.45 -280.65 -78.7 -279.25 -80.95 -278.35 -100.35 -270.45 -121.4 -276.45 M20.1 -209.7 Q14.85 -198.15 5.9 -190.35 2.75 -187.65 -0.8 -185.4 L-0.85 -185.35 4.45 -198.75 Q0.0 -191.75 -7.25 -188.05 -14.55 -184.35 -20.9 -185.75 -11.4 -191.7 -9.35 -204.9 L7.4 -206.9 7.55 -207.55 20.1 -209.7 M-12.6 -210.45 Q-15.3 -193.9 -30.3 -190.8 L-41.35 -190.2 Q-32.95 -192.1 -28.5 -207.4 L-25.1 -207.5 -23.25 -207.75 Q-20.85 -208.1 -18.35 -208.8 L-13.45 -210.2 -12.6 -210.45 M7.4 -206.9 L6.75 -204.7 Q5.8 -201.6 4.45 -198.75 5.8 -201.6 6.75 -204.7 L7.4 -206.9 M-105.65 -277.0 L-103.8 -277.45 Q-98.05 -278.95 -92.6 -282.15 -98.05 -278.95 -103.8 -277.45 L-105.65 -277.0 M-91.6 -290.35 L-95.05 -290.75 -91.6 -290.35 M-70.1 -278.3 L-70.45 -277.55 -70.5 -277.45 -70.45 -277.55 -70.1 -278.3 M-108.45 -269.7 Q-103.2 -268.35 -95.15 -269.05 L-91.1 -269.65 -91.05 -269.65 Q-93.85 -269.05 -96.7 -264.85 L-97.0 -264.35 -97.85 -263.15 -98.3 -262.6 -98.35 -262.55 Q-106.7 -256.15 -113.75 -257.3 -120.85 -258.45 -125.85 -260.0 -121.2 -260.0 -115.5 -263.35 -109.85 -266.75 -108.45 -269.7 M-93.4 -242.15 L-95.75 -239.35 -93.4 -242.15 M-92.4 -226.2 L-92.95 -224.95 -93.7 -223.3 -92.95 -224.95 -92.4 -226.2 M-64.8 -245.6 L-64.85 -245.6 -64.8 -245.2 -65.3 -245.75 -64.8 -245.6 M-55.55 -169.35 Q-69.8 -180.75 -71.3 -193.9 -69.8 -180.75 -55.55 -169.35" fill="#132a4c" fill-rule="evenodd" stroke="none"/>
    <path d="M60.0 -281.35 Q62.15 -275.5 61.5 -269.45 L58.95 -265.2 Q59.95 -271.35 56.1 -280.9 L55.6 -282.1 53.95 -285.7 54.3 -285.85 Q57.5 -283.65 60.0 -281.35 M66.0 -251.85 L70.3 -243.7 70.8 -242.75 74.55 -235.75 74.75 -235.3 74.55 -235.75 74.75 -235.3 74.75 -233.75 Q75.75 -232.1 76.1 -230.35 L76.1 -230.3 Q75.5 -227.35 73.1 -225.35 L70.75 -223.8 69.7 -223.3 Q68.05 -222.65 66.05 -222.2 L61.3 -221.5 Q74.85 -232.3 67.6 -245.35 L59.35 -260.0 47.4 -255.0 Q33.75 -249.35 -0.05 -244.8 L-44.15 -239.1 -53.75 -237.95 Q-52.15 -230.3 -46.85 -224.1 -40.15 -216.25 -31.1 -212.95 -18.15 -212.2 -5.0 -213.5 L1.0 -214.4 -6.85 -212.15 -6.9 -212.15 -8.8 -211.55 -9.05 -211.5 -10.2 -211.15 -12.0 -210.6 -12.35 -210.5 -12.6 -210.45 -13.45 -210.2 -18.35 -208.8 Q-20.85 -208.1 -23.25 -207.75 L-25.1 -207.5 -28.5 -207.4 Q-37.15 -207.5 -44.35 -212.45 L-48.15 -215.5 Q-54.4 -221.4 -58.35 -227.1 L-58.4 -227.2 Q-62.05 -232.55 -63.65 -237.65 L-63.7 -237.7 -63.7 -237.8 -63.8 -238.15 -64.0 -238.85 -64.1 -239.2 -64.7 -242.55 -64.75 -242.8 -64.8 -243.45 -64.8 -244.75 -64.8 -245.05 -64.05 -245.25 -63.25 -244.9 -64.45 -247.1 -64.95 -248.15 -65.0 -248.4 -64.8 -245.6 -65.3 -245.75 -74.3 -247.95 Q-71.15 -250.55 -64.2 -258.15 L-61.4 -261.5 Q-65.5 -254.65 -65.15 -250.15 L-65.1 -249.85 -65.1 -249.55 -65.0 -248.4 -65.1 -249.55 -65.1 -249.85 -65.15 -250.15 Q-65.5 -254.65 -61.4 -261.5 L-60.55 -262.65 -60.4 -262.65 -59.35 -262.75 -59.05 -262.8 Q-58.2 -255.6 -56.8 -250.5 -55.45 -245.45 -54.7 -244.8 -53.95 -244.2 -51.55 -243.75 L-51.2 -243.75 Q-34.85 -243.85 -0.9 -248.85 50.0 -254.25 58.95 -265.2 L65.3 -253.15 65.55 -252.75 65.75 -252.3 65.5 -252.75 65.55 -252.75 65.5 -252.75 65.75 -252.3 66.0 -251.85 M65.5 -252.75 L65.3 -253.15 65.5 -252.75 M-97.85 -263.15 L-97.0 -264.35 -96.7 -264.85 Q-93.85 -269.05 -91.05 -269.65 L-82.6 -270.65 -82.55 -270.65 -79.45 -269.9 -79.4 -269.9 -79.0 -269.85 -74.65 -269.35 -80.1 -256.95 Q-81.7 -252.95 -83.65 -249.25 L-87.15 -249.75 -87.65 -249.85 -89.55 -250.2 Q-94.35 -251.15 -98.05 -252.45 L-98.85 -252.7 -98.9 -252.75 -98.95 -252.75 Q-99.85 -255.15 -99.75 -257.6 -99.65 -259.5 -98.95 -261.4 L-98.9 -261.4 -98.35 -262.55 -97.85 -263.15 M-51.55 -243.75 Q-58.45 -243.7 -62.1 -244.6 -58.45 -243.7 -51.55 -243.75" fill="#3572b4" fill-rule="evenodd" stroke="none"/>
    <path d="M29.15 -286.35 L29.75 -286.45 37.6 -287.25 38.95 -287.4 39.45 -287.45 43.75 -287.85 44.2 -287.9 50.3 -288.45 53.7 -286.25 53.95 -285.7 55.6 -282.1 49.8 -282.25 Q44.3 -282.5 25.8 -280.55 7.3 -278.6 -6.95 -276.3 -21.2 -274.0 -35.2 -270.35 -46.5 -267.4 -57.55 -263.3 L-59.05 -262.8 -59.35 -262.75 -60.4 -262.65 -60.55 -262.65 Q-57.65 -266.6 -54.6 -271.95 L-51.45 -273.45 -51.45 -273.5 -47.15 -274.4 -43.2 -275.25 -24.15 -278.85 -20.4 -279.5 -16.2 -280.2 Q-16.6 -278.1 -15.3 -280.0 L-15.15 -280.35 -14.35 -280.5 -10.25 -281.2 Q8.75 -284.15 28.9 -286.35 L29.15 -286.35" fill="#79c7ff" fill-rule="evenodd" stroke="none"/>
    <path d="M65.9 -279.1 Q66.9 -275.5 67.3 -271.8 65.1 -276.7 60.0 -281.35 57.5 -283.65 54.3 -285.85 L53.7 -286.25 50.3 -288.45 44.2 -287.9 43.75 -287.85 Q43.25 -289.4 41.95 -291.55 40.6 -293.7 40.6 -295.05 40.6 -296.4 41.05 -296.5 55.45 -289.6 65.9 -279.1 M61.5 -269.45 L61.55 -269.4 66.65 -264.3 Q71.6 -259.25 73.35 -252.45 75.1 -245.7 74.0 -240.65 L66.65 -251.75 65.55 -252.75 65.3 -253.15 58.95 -265.2 61.5 -269.45 M70.55 -243.25 Q79.1 -232.55 78.05 -226.8 77.0 -221.1 74.25 -217.15 71.55 -213.2 65.1 -208.5 69.2 -214.45 66.05 -222.2 68.05 -222.65 69.7 -223.3 L70.75 -223.8 73.1 -225.35 Q75.5 -227.35 76.1 -230.3 L76.1 -230.35 76.3 -232.35 74.75 -235.3 74.55 -235.75 70.8 -242.75 70.55 -243.25 M23.65 -219.5 Q22.15 -214.3 20.1 -209.7 L7.55 -207.55 Q8.35 -211.05 8.7 -214.85 L8.8 -216.4 10.05 -216.7 10.1 -216.7 Q16.9 -218.4 23.65 -219.5 M-9.35 -204.9 Q-8.85 -208.05 -8.8 -211.55 L-6.9 -212.15 -6.85 -212.15 1.0 -214.4 8.8 -216.4 8.7 -214.85 Q8.35 -211.05 7.55 -207.55 L7.4 -206.9 -9.35 -204.9 M-58.75 -222.4 Q-59.25 -214.8 -59.0 -207.55 -62.8 -219.1 -67.7 -230.2 -71.4 -238.6 -79.3 -243.65 -84.55 -239.7 -90.35 -237.35 -89.05 -242.55 -82.4 -246.0 -75.75 -249.5 -68.45 -260.5 L-55.5 -279.8 Q-49.85 -288.15 -43.0 -293.6 -43.25 -283.15 -47.15 -274.4 L-51.45 -273.5 -51.45 -273.45 -54.6 -271.95 -54.75 -271.85 -60.7 -263.85 -61.4 -261.5 -64.2 -258.15 Q-71.15 -250.55 -74.3 -247.95 L-65.3 -245.75 -64.8 -245.2 -64.8 -245.05 -64.8 -244.75 -64.8 -243.45 -64.75 -242.8 -64.7 -242.55 -64.1 -239.2 -64.0 -238.85 -63.8 -238.15 -63.7 -237.7 -63.65 -237.65 Q-62.05 -232.55 -58.4 -227.2 L-58.7 -223.3 -58.75 -222.95 -58.75 -222.4 M29.15 -286.35 Q23.4 -300.5 21.65 -301.35 19.95 -302.3 21.45 -301.8 22.95 -301.3 23.6 -301.35 32.55 -295.25 39.4 -287.45 L38.95 -287.4 37.6 -287.25 29.75 -286.45 29.15 -286.35 M45.65 -291.1 L50.3 -288.45 45.65 -291.1 M-120.6 -275.75 L-121.45 -276.45 -121.4 -276.45 Q-100.35 -270.45 -80.95 -278.35 -78.7 -279.25 -76.45 -280.65 -75.25 -281.45 -74.0 -281.55 -70.6 -279.6 -70.5 -277.45 L-72.35 -273.95 -70.5 -277.45 Q-70.45 -275.8 -72.35 -273.95 -73.85 -272.6 -76.5 -271.15 L-79.0 -269.85 -79.4 -269.9 -79.45 -269.9 -82.55 -270.65 -82.6 -270.65 -91.05 -269.65 -91.1 -269.65 -95.15 -269.05 Q-103.2 -268.35 -108.45 -269.7 L-109.15 -269.85 -110.25 -270.2 -111.1 -270.45 -111.55 -270.6 -112.75 -271.1 -113.4 -271.35 -114.1 -271.7 -114.4 -271.85 -120.6 -275.75 -121.4 -276.45 -120.6 -275.75 M-78.0 -274.35 Q-85.5 -270.85 -91.1 -269.65 -85.5 -270.85 -78.0 -274.35 M-83.65 -249.25 L-84.7 -247.3 -87.65 -249.85 -87.15 -249.75 -83.65 -249.25 M-24.15 -278.85 L-25.4 -278.65 Q-19.6 -281.9 -19.45 -288.3 -19.35 -294.75 -18.8 -294.85 -9.45 -281.85 -14.35 -280.5 L-15.15 -280.35 -15.3 -280.0 Q-16.6 -278.1 -16.2 -280.2 L-20.4 -279.5 -24.15 -278.85 M-124.15 -248.05 Q-119.65 -245.6 -114.9 -243.45 -107.15 -239.85 -98.25 -241.75 -94.95 -242.45 -95.75 -239.35 L-95.8 -239.25 Q-97.2 -234.1 -103.8 -233.75 L-103.65 -233.8 -101.5 -234.9 Q-98.3 -236.7 -95.75 -239.35 -98.3 -236.7 -101.5 -234.9 -117.65 -234.0 -123.3 -246.05 L-124.15 -248.05 M-95.2 -220.35 Q-112.5 -216.6 -123.2 -228.3 L-123.95 -229.15 -124.35 -229.65 Q-109.5 -225.25 -94.4 -223.85 -93.85 -223.8 -93.7 -223.3 L-95.2 -220.35 -93.7 -223.3 -93.8 -222.45 Q-94.15 -221.15 -94.8 -220.2 L-95.2 -220.35 M-121.0 -198.25 L-121.7 -199.2 -121.0 -198.25 -121.7 -199.2 Q-103.15 -193.95 -91.0 -206.1 L-91.1 -205.2 Q-90.5 -211.2 -89.0 -217.35 L-85.95 -206.1 Q-85.25 -205.2 -85.3 -204.0 -74.2 -170.45 -46.1 -140.15 -62.0 -148.55 -72.0 -159.9 -75.85 -164.3 -78.8 -169.05 L-76.1 -149.4 Q-88.9 -168.85 -91.05 -190.25 L-91.1 -190.65 Q-109.7 -188.55 -118.2 -195.4 L-118.45 -195.65 -121.0 -198.25 M-96.05 -218.9 L-95.4 -220.0 -94.8 -220.2 Q-95.3 -219.45 -96.05 -218.9 M-15.15 -280.35 L-16.2 -280.2 -15.15 -280.35 M-49.55 -281.6 Q-52.1 -276.3 -54.6 -271.95 -52.1 -276.3 -49.55 -281.6 M-74.3 -247.95 L-78.35 -244.4 -79.3 -243.65 -78.35 -244.4 -74.3 -247.95 M-78.8 -169.05 Q-85.75 -180.3 -87.95 -193.9 -85.75 -180.3 -78.8 -169.05 M-91.1 -190.65 L-91.15 -191.1 -91.2 -191.4 -91.2 -191.7 -91.25 -192.1 -91.1 -205.2 -91.25 -192.1 -91.2 -191.7 -91.2 -191.4 -91.15 -191.1 -91.1 -190.65" fill="#091425" fill-rule="evenodd" stroke="none"/>
    <path d="M-121.4 -276.45 L-121.85 -276.8 Q-113.45 -275.35 -105.65 -277.0 -102.5 -284.55 -96.0 -289.95 L-95.05 -290.75 Q-112.1 -293.45 -120.7 -308.25 -123.65 -313.25 -125.6 -319.65 -110.15 -299.9 -76.15 -313.75 L-72.55 -315.35 Q-71.9 -315.7 -71.2 -316.0 L-70.35 -316.5 Q-42.75 -331.4 -9.7 -329.0 17.1 -326.7 40.0 -313.95 L40.25 -313.8 Q58.25 -299.5 64.4 -283.5 L65.9 -279.1 Q66.9 -275.5 67.3 -271.8 65.1 -276.7 60.0 -281.35 62.15 -275.5 61.5 -269.45 L61.55 -269.4 66.65 -264.3 Q71.6 -259.25 73.35 -252.45 75.1 -245.7 74.0 -240.65 L66.65 -251.75 66.0 -251.85 70.3 -243.7 70.55 -243.25 Q79.1 -232.55 78.05 -226.8 77.0 -221.1 74.25 -217.15 71.55 -213.2 65.1 -208.5 69.2 -214.45 66.05 -222.2 L61.3 -221.5 60.4 -221.45 60.35 -221.45 Q57.15 -221.25 53.25 -221.4 40.7 -221.9 27.85 -220.15 L25.1 -219.75 23.65 -219.5 Q22.15 -214.3 20.1 -209.7 14.85 -198.15 5.9 -190.35 2.75 -187.65 -0.8 -185.4 L-0.85 -185.35 4.45 -198.75 Q0.0 -191.75 -7.25 -188.05 -14.55 -184.35 -20.9 -185.75 -11.4 -191.7 -9.35 -204.9 -8.85 -208.05 -8.8 -211.55 L-9.05 -211.5 -10.2 -211.15 -12.0 -210.6 M-12.35 -210.5 L-12.6 -210.45 Q-15.3 -193.9 -30.3 -190.8 L-41.35 -190.2 Q-32.95 -192.1 -28.5 -207.4 -37.15 -207.5 -44.35 -212.45 L-48.15 -215.5 Q-54.4 -221.4 -58.35 -227.1 L-58.55 -225.15 -58.75 -222.4 Q-59.25 -214.8 -59.0 -207.55 -58.3 -189.0 -52.55 -172.65 L-49.55 -165.0 -52.55 -167.1 Q-54.15 -168.25 -55.55 -169.35 -52.9 -156.7 -48.8 -147.3 -46.95 -143.05 -44.8 -139.5 L-46.1 -140.15 -41.4 -135.25 M29.15 -286.35 L29.75 -286.45 37.6 -287.25 38.95 -287.4 39.45 -287.45 43.75 -287.85 M54.3 -285.85 L53.7 -286.25 53.95 -285.7 54.3 -285.85 Q57.5 -283.65 60.0 -281.35 M50.3 -288.45 L45.65 -291.1 M44.2 -287.9 L50.3 -288.45 53.7 -286.25 M55.6 -282.1 L56.1 -280.9 Q59.95 -271.35 58.95 -265.2 L61.5 -269.45 M-51.55 -243.75 L-51.2 -243.75 Q-34.85 -243.85 -0.9 -248.85 50.0 -254.25 58.95 -265.2 L65.3 -253.15 65.5 -252.75 65.75 -252.3 66.0 -251.85 M65.55 -252.75 L66.65 -251.75 M53.95 -285.7 L55.6 -282.1 M1.0 -214.4 L8.8 -216.4 10.05 -216.7 10.1 -216.7 Q16.9 -218.4 23.65 -219.5 M65.55 -252.75 L65.5 -252.75 M-14.35 -280.5 L-10.25 -281.2 Q8.75 -284.15 28.9 -286.35 L29.15 -286.35 M7.55 -207.55 Q8.35 -211.05 8.7 -214.85 L8.8 -216.4 M7.4 -206.9 L7.55 -207.55 M4.45 -198.75 Q5.8 -201.6 6.75 -204.7 L7.4 -206.9 M74.55 -235.75 L74.75 -235.3 76.3 -232.35 76.1 -230.35 M76.1 -230.3 Q75.5 -227.35 73.1 -225.35 L70.75 -223.8 69.7 -223.3 Q68.05 -222.65 66.05 -222.2 M70.55 -243.25 L70.8 -242.75 74.55 -235.75 M-95.05 -290.75 L-91.6 -290.35 M-92.6 -282.15 Q-98.05 -278.95 -103.8 -277.45 L-105.65 -277.0 M-70.5 -277.45 L-70.45 -277.55 -70.1 -278.3 M-121.4 -276.45 L-120.6 -275.75 -114.4 -271.85 -114.1 -271.7 -113.4 -271.35 -112.75 -271.1 -111.55 -270.6 -111.1 -270.45 -110.25 -270.2 -109.15 -269.85 -108.45 -269.7 Q-103.2 -268.35 -95.15 -269.05 L-91.1 -269.65 Q-85.5 -270.85 -78.0 -274.35 M-108.45 -269.7 Q-109.85 -266.75 -115.5 -263.35 -121.2 -260.0 -125.85 -260.0 -120.85 -258.45 -113.75 -257.3 -106.7 -256.15 -98.35 -262.55 L-98.3 -262.6 -97.85 -263.15 -97.0 -264.35 -96.7 -264.85 Q-93.85 -269.05 -91.05 -269.65 L-91.1 -269.65 M-91.05 -269.65 L-82.6 -270.65 -82.55 -270.65 -79.45 -269.9 -79.4 -269.9 M-72.35 -273.95 L-70.5 -277.45 M-72.35 -273.95 L-74.65 -269.35 -80.1 -256.95 Q-81.7 -252.95 -83.65 -249.25 L-84.7 -247.3 Q-87.95 -241.55 -92.05 -236.7 L-90.35 -237.35 Q-84.55 -239.7 -79.3 -243.65 L-78.35 -244.4 -74.3 -247.95 -65.3 -245.75 -64.8 -245.6 -64.85 -245.6 -64.05 -245.25 -63.25 -244.9 M-47.15 -274.4 L-43.2 -275.25 -24.15 -278.85 -20.4 -279.5 -16.2 -280.2 -15.15 -280.35 -14.35 -280.5 M-98.35 -262.55 L-98.9 -261.4 -98.95 -261.4 Q-99.65 -259.5 -99.75 -257.6 -99.85 -255.15 -98.95 -252.75 L-98.9 -252.75 -98.85 -252.7 -98.05 -252.45 Q-94.35 -251.15 -89.55 -250.2 L-87.65 -249.85 M-87.15 -249.75 L-83.65 -249.25 M-98.35 -262.55 L-97.85 -263.15 M-98.85 -252.7 L-99.6 -252.2 Q-112.6 -243.0 -124.75 -249.8 L-124.15 -248.05 -123.3 -246.05 Q-117.65 -234.0 -101.5 -234.9 L-103.65 -233.8 -103.8 -233.75 Q-112.7 -229.85 -125.85 -231.55 L-126.35 -231.65 M-95.75 -239.35 L-93.4 -242.15 M-98.9 -252.75 L-99.6 -252.2 M-123.95 -229.15 L-123.2 -228.3 Q-112.5 -216.6 -95.2 -220.35 L-93.7 -223.3 -92.95 -224.95 -92.4 -226.2 M-123.95 -229.15 L-125.85 -231.55 M-121.7 -199.2 Q-122.8 -200.85 -123.6 -202.8 -106.95 -199.9 -96.05 -218.9 L-95.4 -220.0 -95.2 -220.35 -94.8 -220.2 -95.4 -220.0 M-88.3 -220.05 L-89.0 -217.35 Q-90.5 -211.2 -91.1 -205.2 L-91.25 -192.1 -91.2 -191.7 -91.2 -191.4 -91.15 -191.1 -91.1 -190.65 Q-109.7 -188.55 -118.2 -195.4 L-118.45 -195.65 -121.0 -198.25 -121.7 -199.2 M-46.1 -140.15 Q-62.0 -148.55 -72.0 -159.9 -75.85 -164.3 -78.8 -169.05 L-76.1 -149.4 Q-88.9 -168.85 -91.05 -190.25 L-91.1 -190.65 M-95.75 -239.35 Q-98.3 -236.7 -101.5 -234.9 M-54.6 -271.95 L-51.45 -273.45 -51.45 -273.5 -47.15 -274.4 M-79.0 -269.85 L-74.65 -269.35 M-65.0 -248.4 L-64.8 -245.6 M-65.0 -248.4 L-65.1 -249.55 -65.1 -249.85 -65.15 -250.15 Q-65.5 -254.65 -61.4 -261.5 L-64.2 -258.15 Q-71.15 -250.55 -74.3 -247.95 M-54.6 -271.95 Q-52.1 -276.3 -49.55 -281.6 M-60.55 -262.65 Q-57.65 -266.6 -54.6 -271.95 M-60.55 -262.65 L-61.4 -261.5 M-58.35 -227.1 L-58.4 -227.2 -58.7 -223.3 -58.55 -225.15 M-58.7 -223.3 L-58.75 -222.95 -58.75 -222.4 M-64.8 -245.2 L-64.85 -245.6 M-64.8 -245.05 L-64.8 -245.2 M-63.8 -238.15 L-64.0 -238.85 -64.1 -239.2 -64.7 -242.55 -64.75 -242.8 -64.8 -243.45 -64.8 -244.75 -64.8 -245.05 M-63.7 -237.7 L-63.65 -237.65 Q-62.05 -232.55 -58.4 -227.2 M-63.7 -237.7 L-63.8 -238.15 M-62.1 -244.6 Q-58.45 -243.7 -51.55 -243.75 M-12.6 -210.45 L-13.45 -210.2 -18.35 -208.8 Q-20.85 -208.1 -23.25 -207.75 L-25.1 -207.5 -28.5 -207.4 M1.0 -214.4 L-6.85 -212.15 -6.9 -212.15 -8.8 -211.55 M-71.3 -193.9 Q-69.8 -180.75 -55.55 -169.35 M-87.95 -193.9 Q-85.75 -180.3 -78.8 -169.05" fill="none" stroke="#1a5283" stroke-linecap="round" stroke-linejoin="round" stroke-width="2.0"/>
    <path d="M25.45 -319.15 Q31.75 -317.3 33.3 -313.45 34.85 -309.6 32.55 -308.4 30.2 -307.2 24.35 -310.7 18.45 -314.2 25.45 -319.15 M-65.9 -309.8 Q-60.55 -306.35 -63.7 -304.15 L-70.45 -299.35 Q-73.95 -296.75 -76.85 -298.15 -79.75 -299.6 -78.75 -301.8 -78.15 -303.15 -76.0 -304.8 -71.4 -308.4 -65.9 -309.8 M-31.3 -313.6 Q-26.75 -309.75 -28.3 -305.9 -29.85 -302.1 -31.2 -300.15 -32.6 -298.25 -36.45 -301.8 L-37.35 -302.7 Q-38.3 -303.75 -38.1 -305.4 -37.5 -311.75 -31.3 -313.6 M-0.65 -315.6 Q7.35 -311.7 5.25 -306.25 3.15 -300.85 -1.75 -303.85 -6.7 -306.85 -1.45 -315.1 L-0.65 -315.6" fill="#245091" fill-rule="evenodd" stroke="none"/>
    <path d="M-24.4 -327.8 L-29.8 -324.75 Q-42.3 -337.8 -74.75 -330.8 -35.2 -355.75 -27.5 -328.25 -24.8 -342.5 -47.5 -351.35 -6.45 -358.85 -24.4 -327.8" fill="#132a4c" fill-rule="evenodd" stroke="none"/>
    <path d="M-24.4 -327.8 Q-6.45 -358.85 -47.5 -351.35 -24.8 -342.5 -27.5 -328.25 -35.2 -355.75 -74.75 -330.8 -42.3 -337.8 -29.8 -324.75" fill="none" stroke="#1a5283" stroke-linecap="round" stroke-linejoin="round" stroke-width="2.0"/>
    <path d="M-47.35 -197.6 Q-47.4 -200.5 -44.85 -204.3 L-40.8 -210.35 -38.95 -209.55 -38.75 -211.15 -33.25 -219.45 Q-29.4 -221.95 -29.2 -216.1 -29.4 -213.3 -31.5 -209.7 L-32.0 -204.3 Q-28.55 -209.15 -23.7 -204.15 L-19.8 -204.35 Q-16.9 -203.95 -16.55 -201.75 -15.7 -202.4 -12.8 -200.3 -9.9 -198.35 -9.5 -193.35 L-9.6 -193.5 Q-10.45 -194.95 -11.4 -196.0 -13.65 -198.5 -16.45 -198.9 -19.4 -201.65 -23.95 -201.7 L-23.95 -202.15 Q-27.25 -204.45 -31.55 -203.7 L-31.55 -204.3 -32.0 -204.3 -39.7 -204.4 -39.8 -204.4 -39.8 -203.9 -39.8 -199.4 Q-43.55 -199.0 -45.85 -198.2 L-47.35 -197.6 M-26.1 -143.65 L-27.9 -138.3 -33.45 -121.0 -33.65 -120.5 Q-39.4 -106.6 -43.65 -99.2 -60.1 -85.2 -71.95 -90.6 -78.25 -95.3 -74.6 -105.1 -70.95 -115.0 -70.1 -118.75 L-66.6 -123.75 Q-60.4 -132.0 -56.75 -138.3 -52.5 -145.55 -48.65 -153.1 -41.0 -141.15 -26.1 -143.65 M-38.95 -209.55 L-39.7 -204.4 -38.95 -209.55 M-23.7 -204.15 L-23.95 -201.7 -23.7 -204.15 M-16.45 -198.9 L-16.55 -201.75 -16.45 -198.9" fill="#ffe8d7" fill-rule="evenodd" stroke="none"/>
    <path d="M-45.85 -198.2 Q-43.55 -199.0 -39.8 -199.4 L-39.8 -203.9 -39.7 -204.4 -32.0 -204.3 -31.55 -204.3 -31.55 -203.7 Q-27.25 -204.45 -23.95 -202.15 L-23.95 -201.7 Q-19.4 -201.65 -16.45 -198.9 -13.65 -198.5 -11.4 -196.0 -11.55 -186.85 -14.45 -176.2 -17.4 -165.55 -23.15 -160.5 -26.9 -160.75 -30.15 -161.95 -40.6 -175.35 -43.35 -185.65 -46.1 -195.95 -45.85 -198.2 M-32.05 -203.8 L-32.0 -204.3 -32.05 -203.8 M-15.65 -192.2 L-16.45 -193.55 -16.45 -198.9 -16.45 -193.55 -15.65 -192.2 M-23.3 -193.85 L-23.95 -195.35 -23.95 -201.7 -23.95 -195.35 -23.3 -193.85 M-30.9 -195.15 L-31.55 -196.7 -31.55 -203.7 -31.55 -196.7 -30.9 -195.15 M-39.2 -190.35 Q-39.75 -193.95 -39.8 -199.4 -39.75 -193.95 -39.2 -190.35" fill="#233446" fill-rule="evenodd" stroke="none"/>
    <path d="M-9.5 -193.35 Q-9.5 -186.05 -11.25 -177.25 -11.65 -175.75 -13.6 -170.35 -15.6 -164.95 -18.85 -160.5 L-20.05 -160.45 -22.3 -160.45 -23.15 -160.5 Q-17.4 -165.55 -14.45 -176.2 -11.55 -186.85 -11.4 -196.0 -10.45 -194.95 -9.6 -193.5 L-9.5 -193.35 M-41.05 -170.0 L-44.25 -178.0 Q-47.1 -183.55 -47.8 -189.85 -48.6 -196.2 -47.35 -197.6 L-45.85 -198.2 Q-46.1 -195.95 -43.35 -185.65 -40.6 -175.35 -30.15 -161.95 -35.55 -163.95 -39.7 -168.55 L-40.6 -169.65 -41.05 -170.0" fill="#121b25" fill-rule="evenodd" stroke="none"/>
    <path d="M-24.4 -144.95 L-26.1 -143.65 Q-41.0 -141.15 -48.65 -153.1 -49.05 -155.4 -48.65 -157.15 -46.15 -155.6 -43.65 -155.1 -41.15 -154.6 -41.65 -156.4 L-45.3 -166.35 Q-44.65 -168.15 -43.5 -169.0 -41.85 -170.25 -41.05 -170.0 L-40.6 -169.65 -39.7 -168.55 Q-35.55 -163.95 -30.15 -161.95 -26.9 -160.75 -23.15 -160.5 L-22.3 -160.45 Q-25.95 -153.25 -32.75 -152.2 -27.1 -149.95 -25.7 -148.45 L-25.4 -144.1 -24.4 -144.95 M-44.25 -98.15 L-43.45 -95.55 Q-43.25 -85.85 -45.85 -76.65 L-46.25 -75.35 -48.6 -73.4 -48.65 -73.4 -50.0 -72.45 -49.6 -73.4 -49.55 -73.4 -47.5 -88.75 -46.9 -93.25 -44.25 -98.15 M-102.35 -82.0 L-102.35 -82.05 -102.3 -82.1 -102.35 -82.15 -102.05 -82.95 Q-100.85 -97.0 -89.45 -106.6 -78.1 -116.2 -73.1 -114.7 L-77.15 -109.35 Q-91.0 -97.7 -93.8 -89.3 -96.6 -80.95 -96.75 -79.0 L-97.0 -76.65 -97.55 -73.4 -97.6 -73.4 Q-97.8 -72.65 -98.0 -73.4 L-97.95 -73.4 Q-98.55 -74.0 -102.45 -72.25 -105.25 -71.0 -103.95 -76.65 L-102.35 -82.0 -102.35 -82.05 -102.35 -82.0 M-102.05 -82.95 L-102.3 -82.1 -102.05 -82.95" fill="#4c97d9" fill-rule="evenodd" stroke="none"/>
    <path d="M-18.85 -160.5 Q-18.75 -154.7 -21.8 -151.8 L-21.85 -151.1 -22.0 -149.95 -22.0 -149.8 -22.05 -149.55 -22.15 -149.1 -22.25 -148.7 -22.3 -148.6 -22.3 -148.5 -24.4 -144.95 -25.4 -144.1 -25.7 -148.45 Q-27.1 -149.95 -32.75 -152.2 -25.95 -153.25 -22.3 -160.45 L-20.05 -160.45 -18.85 -160.5 M-46.25 -75.35 Q-49.2 -65.75 -55.25 -56.75 L-56.25 -55.95 -56.45 -55.85 Q-56.6 -55.75 -56.85 -55.6 L-57.05 -55.4 -57.45 -55.1 -57.75 -54.9 -58.1 -54.65 -58.35 -54.5 Q-64.2 -49.0 -69.75 -45.5 -80.7 -38.65 -90.4 -39.45 -99.65 -40.2 -103.0 -45.5 -105.1 -48.7 -107.15 -53.1 L-107.2 -53.4 -107.25 -53.7 Q-109.6 -67.75 -105.65 -76.65 -104.35 -79.6 -102.35 -82.0 L-103.95 -76.65 Q-105.25 -71.0 -102.45 -72.25 -98.55 -74.0 -97.95 -73.4 L-98.0 -73.4 Q-97.8 -72.65 -97.6 -73.4 L-97.55 -73.4 -97.0 -76.65 -96.75 -79.0 Q-96.6 -80.95 -93.8 -89.3 -91.0 -97.7 -77.15 -109.35 -90.35 -87.65 -77.15 -77.95 -75.0 -77.05 -72.9 -76.65 -69.3 -75.95 -65.8 -76.65 -56.7 -78.5 -48.6 -90.15 L-46.9 -93.25 -47.5 -88.75 Q-49.0 -82.35 -51.25 -76.65 -56.7 -62.85 -66.6 -53.1 -71.15 -50.7 -77.75 -48.25 -91.7 -43.1 -94.55 -44.95 -97.4 -46.85 -100.7 -52.65 -102.8 -57.3 -101.85 -65.55 -100.55 -70.25 -98.0 -73.4 -100.55 -70.25 -101.85 -65.55 -102.8 -57.3 -100.7 -52.65 -97.4 -46.85 -94.55 -44.95 -91.7 -43.1 -77.75 -48.25 -71.15 -50.7 -66.6 -53.1 -56.7 -62.85 -51.25 -76.65 -49.0 -82.35 -47.5 -88.75 L-49.55 -73.4 -49.6 -73.4 -50.0 -72.45 -48.65 -73.4 -48.6 -73.4 -46.25 -75.35 M-102.35 -82.05 L-102.35 -82.15 -102.3 -82.1 -102.35 -82.05 M-48.65 -157.15 Q-48.15 -159.5 -46.25 -160.95 -46.1 -164.3 -45.3 -166.35 L-41.65 -156.4 Q-41.15 -154.6 -43.65 -155.1 -46.15 -155.6 -48.65 -157.15" fill="#3572b4" fill-rule="evenodd" stroke="none"/>
    <path d="M-43.65 -99.2 L-44.25 -98.15 -46.9 -93.25 -48.6 -90.15 Q-56.7 -78.5 -65.8 -76.65 -69.3 -75.95 -72.9 -76.65 -75.0 -77.05 -77.15 -77.95 -90.35 -87.65 -77.15 -109.35 L-73.1 -114.7 -70.1 -118.75 Q-70.95 -115.0 -74.6 -105.1 -78.25 -95.3 -71.95 -90.6 -60.1 -85.2 -43.65 -99.2" fill="#e0bcaa" fill-rule="evenodd" stroke="none"/>
    <path d="M-47.35 -197.6 Q-47.4 -200.5 -44.85 -204.3 L-40.8 -210.35 -38.95 -209.55 -38.75 -211.15 -33.25 -219.45 Q-29.4 -221.95 -29.2 -216.1 -29.4 -213.3 -31.5 -209.7 L-32.0 -204.3 Q-28.55 -209.15 -23.7 -204.15 L-19.8 -204.35 Q-16.9 -203.95 -16.55 -201.75 -15.7 -202.4 -12.8 -200.3 -9.9 -198.35 -9.5 -193.35 -9.5 -186.05 -11.25 -177.25 -11.65 -175.75 -13.6 -170.35 -15.6 -164.95 -18.85 -160.5 -18.75 -154.7 -21.8 -151.8 L-21.85 -151.1 -22.0 -149.95 -22.0 -149.8 -22.05 -149.55 -22.15 -149.1 -22.25 -148.7 -22.3 -148.6 -22.3 -148.5 -24.4 -144.95 -26.1 -143.65 -27.9 -138.3 -33.45 -121.0 -33.65 -120.5 Q-39.4 -106.6 -43.65 -99.2 L-44.25 -98.15 -43.45 -95.55 Q-43.25 -85.85 -45.85 -76.65 L-46.25 -75.35 Q-49.2 -65.75 -55.25 -56.75 L-56.25 -55.95 -56.45 -55.85 Q-56.6 -55.75 -56.85 -55.6 L-57.05 -55.4 -57.45 -55.1 -57.75 -54.9 -58.1 -54.65 -58.35 -54.5 Q-64.2 -49.0 -69.75 -45.5 -80.7 -38.65 -90.4 -39.45 -99.65 -40.2 -103.0 -45.5 -105.1 -48.7 -107.15 -53.1 L-107.2 -53.4 -107.25 -53.7 Q-109.6 -67.75 -105.65 -76.65 -104.35 -79.6 -102.35 -82.0 L-102.35 -82.05 -102.35 -82.15 -102.05 -82.95 Q-100.85 -97.0 -89.45 -106.6 -78.1 -116.2 -73.1 -114.7 L-70.1 -118.75 -66.6 -123.75 Q-60.4 -132.0 -56.75 -138.3 -52.5 -145.55 -48.65 -153.1 -49.05 -155.4 -48.65 -157.15 -48.15 -159.5 -46.25 -160.95 -46.1 -164.3 -45.3 -166.35 -44.65 -168.15 -43.5 -169.0 -41.85 -170.25 -41.05 -170.0 L-44.25 -178.0 Q-47.1 -183.55 -47.8 -189.85 -48.6 -196.2 -47.35 -197.6 L-45.85 -198.2 Q-43.55 -199.0 -39.8 -199.4 L-39.8 -203.9 -39.8 -204.4 -39.7 -204.4 -38.95 -209.55 M-32.0 -204.3 L-31.55 -204.3 -31.55 -203.7 Q-27.25 -204.45 -23.95 -202.15 L-23.95 -201.7 -23.7 -204.15 M-32.0 -204.3 L-39.7 -204.4 -39.8 -203.9 M-32.0 -204.3 L-32.05 -203.8 M-16.55 -201.75 L-16.45 -198.9 Q-13.65 -198.5 -11.4 -196.0 -10.45 -194.95 -9.6 -193.5 L-9.5 -193.35 M-23.95 -201.7 Q-19.4 -201.65 -16.45 -198.9 L-16.45 -193.55 -15.65 -192.2 M-31.55 -203.7 L-31.55 -196.7 -30.9 -195.15 M-23.95 -201.7 L-23.95 -195.35 -23.3 -193.85 M-22.3 -160.45 L-23.15 -160.5 Q-26.9 -160.75 -30.15 -161.95 -35.55 -163.95 -39.7 -168.55 L-40.6 -169.65 -41.05 -170.0 M-22.3 -160.45 L-20.05 -160.45 -18.85 -160.5 M-73.1 -114.7 L-77.15 -109.35 Q-90.35 -87.65 -77.15 -77.95 -75.0 -77.05 -72.9 -76.65 -69.3 -75.95 -65.8 -76.65 -56.7 -78.5 -48.6 -90.15 L-46.9 -93.25 -44.25 -98.15 M-26.1 -143.65 Q-41.0 -141.15 -48.65 -153.1 M-77.15 -109.35 Q-91.0 -97.7 -93.8 -89.3 -96.6 -80.95 -96.75 -79.0 L-97.0 -76.65 -97.55 -73.4 M-97.6 -73.4 Q-97.8 -72.65 -98.0 -73.4 -100.55 -70.25 -101.85 -65.55 -102.8 -57.3 -100.7 -52.65 -97.4 -46.85 -94.55 -44.95 -91.7 -43.1 -77.75 -48.25 -71.15 -50.7 -66.6 -53.1 -56.7 -62.85 -51.25 -76.65 -49.0 -82.35 -47.5 -88.75 L-46.9 -93.25 M-102.3 -82.1 L-102.05 -82.95 M-102.3 -82.1 L-102.35 -82.05 M-39.8 -199.4 Q-39.75 -193.95 -39.2 -190.35" fill="none" stroke="#1a5283" stroke-linecap="round" stroke-linejoin="round" stroke-width="2.0"/>
  </g>
</svg>
