<?xml version="1.0" encoding="UTF-8" standalone="no"?>
<svg xmlns:xlink="http://www.w3.org/1999/xlink" height="581.5px" width="261.1px" xmlns="http://www.w3.org/2000/svg">
  <g transform="matrix(1.0, 0.0, 0.0, 1.0, 155.25, 239.05)">
    <path d="M36.7 -224.55 L36.9 -224.1 36.7 -224.5 36.7 -224.55 M-44.8 -210.05 L-44.1 -210.8 -44.75 -210.05 -44.8 -210.05" fill="#091425" fill-rule="evenodd" stroke="none"/>
    <path d="M9.75 -150.0 L10.35 -150.25 Q12.4 -151.45 8.7 -151.35 4.95 -151.3 -2.45 -152.75 -9.9 -154.2 -15.25 -156.85 -21.8 -163.15 -20.85 -183.75 -8.2 -184.8 4.2 -187.1 L3.95 -187.05 Q4.2 -186.1 4.75 -185.05 6.15 -182.35 7.3 -184.9 7.75 -185.9 7.75 -186.95 L7.7 -187.8 32.85 -192.55 32.35 -192.45 Q38.1 -192.95 36.65 -182.25 L36.05 -179.1 Q34.05 -170.5 28.15 -164.25 21.2 -156.95 20.75 -156.0 L16.8 -153.4 Q13.3 -151.35 9.75 -150.0 M98.05 -30.6 L97.9 -29.5 96.65 -24.05 Q89.4 0.4 77.4 16.9 75.95 13.15 71.7 11.15 65.65 8.3 57.05 7.95 L56.55 5.3 56.7 6.05 Q61.9 -8.9 73.3 -22.55 75.75 -26.55 87.6 -32.35 98.6 -37.75 98.05 -30.6 M28.55 -190.85 L27.75 -190.65 Q24.8 -189.35 26.9 -187.2 28.4 -185.65 30.75 -185.5 32.25 -185.4 32.95 -186.7 35.5 -191.55 28.55 -190.85 M36.05 -179.1 Q35.85 -179.55 35.45 -178.95 L36.05 -179.1 M-0.9 -127.0 L1.95 -131.25 3.8 -131.6 1.95 -131.25 -0.9 -127.0 M-37.95 -147.5 Q-20.0 -131.55 3.6 -133.0 L3.8 -131.6 Q4.7 -125.2 4.0 -118.8 L-1.85 -118.05 Q-22.3 -116.45 -33.45 -126.85 L-37.1 -133.0 -40.5 -138.6 -40.55 -138.7 -41.4 -140.65 -41.45 -140.85 Q-42.3 -144.6 -38.25 -147.85 L-38.3 -147.8 -37.95 -147.5 -38.15 -142.9 -37.95 -147.5 M-13.9 -126.85 L-17.65 -131.45 -37.1 -133.0 -17.65 -131.45 -13.9 -126.85" fill="#ffe8d7" fill-rule="evenodd" stroke="none"/>
    <path d="M36.7 -224.55 L36.7 -224.5 36.9 -224.1 36.7 -224.55 M-63.0 -196.8 L-59.7 -230.1 Q-12.95 -239.25 35.6 -237.85 47.95 -225.2 49.4 -207.35 47.75 -193.55 41.6 -181.15 L39.45 -177.0 39.3 -176.8 Q31.4 -164.45 22.5 -157.35 L20.75 -156.0 Q21.2 -156.95 28.15 -164.25 34.05 -170.5 36.05 -179.1 L36.65 -182.25 Q38.1 -192.95 32.35 -192.45 L32.85 -192.55 7.7 -187.8 7.75 -186.95 Q7.75 -185.9 7.3 -184.9 6.15 -182.35 4.75 -185.05 4.2 -186.1 3.95 -187.05 L4.2 -187.1 Q-8.2 -184.8 -20.85 -183.75 -21.8 -163.15 -15.25 -156.85 -9.9 -154.2 -2.45 -152.75 4.95 -151.3 8.7 -151.35 12.4 -151.45 10.35 -150.25 L9.75 -150.0 8.65 -149.65 6.15 -149.75 4.25 -149.9 3.8 -149.9 3.65 -149.9 2.75 -150.0 2.55 -150.0 0.95 -150.15 Q-20.05 -151.45 -25.4 -155.85 -34.55 -159.25 -41.75 -164.4 -34.55 -159.25 -25.4 -155.85 -20.05 -151.45 0.95 -150.15 L2.55 -150.0 2.75 -150.0 3.65 -149.9 3.8 -149.9 4.25 -149.9 6.15 -149.75 6.15 -147.25 Q13.5 -143.25 15.15 -139.25 L15.4 -133.9 15.85 -127.35 15.8 -127.2 15.65 -126.85 15.6 -126.75 15.45 -126.45 15.2 -125.95 15.05 -125.7 14.85 -125.35 14.75 -125.25 14.6 -125.0 14.45 -124.8 14.35 -124.65 14.1 -124.3 13.9 -124.1 13.8 -124.0 13.65 -123.8 13.5 -123.6 13.35 -123.45 Q10.55 -120.6 5.7 -119.25 L4.0 -118.8 Q4.7 -125.2 3.8 -131.6 L3.6 -133.0 Q-20.0 -131.55 -37.95 -147.5 L-38.3 -147.8 -38.25 -147.85 -38.15 -147.95 -38.0 -148.05 Q-38.05 -150.8 -38.45 -153.4 L-39.95 -159.3 Q-40.85 -162.45 -41.75 -164.4 -50.9 -170.9 -57.0 -180.25 L-57.5 -180.95 -59.5 -184.1 Q-63.55 -191.25 -63.05 -196.8 L-63.0 -196.8 M96.3 -42.55 Q98.8 -37.45 98.05 -30.6 98.6 -37.75 87.6 -32.35 75.75 -26.55 73.3 -22.55 61.9 -8.9 56.7 6.05 L56.55 5.3 56.15 3.1 56.1 2.65 56.0 2.1 62.2 -29.75 62.45 -29.8 70.4 -30.9 Q88.65 -33.3 96.3 -42.55 M36.05 -179.1 L35.45 -178.95 Q35.85 -179.55 36.05 -179.1 M6.15 -141.9 L6.15 -147.25 6.15 -141.9 M3.8 -131.6 L15.4 -133.9 3.8 -131.6 M-44.8 -210.05 L-44.75 -210.05 -44.1 -210.8 -44.8 -210.05 M-37.95 -147.5 L-38.0 -148.05 -37.95 -147.5" fill="#e0bcaa" fill-rule="evenodd" stroke="none"/>
    <path d="M28.55 -190.85 Q35.5 -191.55 32.95 -186.7 32.25 -185.4 30.75 -185.5 28.4 -185.65 26.9 -187.2 24.8 -189.35 27.75 -190.65 L28.55 -190.85" fill="#fffce9" fill-rule="evenodd" stroke="none"/>
    <path d="M6.15 -149.75 L8.65 -149.65 9.75 -150.0 Q13.3 -151.35 16.8 -153.4 L20.0 -151.95 Q21.9 -150.75 22.1 -150.65 22.7 -147.65 22.2 -143.8 18.75 -118.2 26.5 -93.5 L26.8 -92.5 Q30.7 -105.25 43.1 -115.45 L55.05 -125.8 61.55 -121.35 57.95 -117.85 56.2 -116.15 57.15 -116.3 57.2 -116.3 Q57.9 -118.55 54.65 -96.15 51.4 -73.8 55.35 -53.85 59.25 -33.95 62.45 -29.8 L62.2 -29.75 Q55.9 -29.35 51.55 -30.45 L50.75 -39.3 51.55 -30.45 51.55 -30.4 52.75 -19.65 Q44.45 -44.15 47.85 -77.05 50.95 -107.35 53.1 -113.1 52.6 -116.9 43.0 -106.1 33.4 -95.35 30.45 -87.25 27.5 -79.2 27.25 -74.05 L25.5 -85.7 25.4 -86.15 Q18.1 -96.35 15.85 -127.35 L15.4 -133.9 15.15 -139.25 Q13.5 -143.25 6.15 -147.25 L6.15 -149.75 M30.45 -143.8 L34.15 -140.0 34.35 -139.75 34.8 -139.3 37.4 -138.8 Q36.35 -136.9 36.2 -134.2 36.05 -131.55 35.9 -132.0 L29.25 -144.9 30.45 -143.8 M76.75 25.45 Q74.95 30.8 72.2 34.15 L72.5 22.05 Q75.2 23.7 76.75 25.45 M71.3 35.2 Q69.2 37.35 66.65 38.45 67.8 29.9 59.85 23.7 L58.15 14.75 Q61.8 17.8 63.95 22.45 66.1 27.05 68.3 29.5 70.45 31.9 71.3 35.2 M64.2 41.45 L65.55 46.1 66.05 47.6 Q56.25 30.25 51.2 22.25 L53.3 22.45 60.85 28.4 Q62.35 35.05 64.2 41.45 M2.55 329.3 Q2.8 326.6 4.2 324.4 13.2 322.6 23.1 316.4 24.3 315.7 25.55 315.05 L29.95 312.85 Q46.2 305.45 65.4 306.7 59.05 307.05 45.55 310.05 32.0 313.0 29.0 331.7 L2.55 329.3 M-64.05 -25.45 L-63.8 -26.45 -61.45 -42.3 -61.45 -42.45 -61.45 -42.7 -61.4 -43.2 -61.4 -43.75 -61.4 -43.9 -61.4 -44.15 -61.35 -45.5 Q-61.35 -48.15 -61.5 -50.8 L-58.15 -56.4 Q-51.6 -67.65 -50.45 -80.8 -50.2 -83.4 -47.45 -83.5 -38.8 -76.35 -42.8 -62.95 -49.4 -40.8 -64.05 -25.45 M-92.25 -103.45 L-92.3 -103.45 -91.65 -104.4 -91.45 -104.75 Q-88.55 -109.2 -83.6 -114.45 L-83.0 -115.1 -82.95 -115.15 -82.8 -115.35 -82.75 -115.4 -79.9 -115.4 Q-44.05 -105.85 -32.65 -90.55 -24.8 -82.3 -23.1 -83.3 L-22.9 -82.3 Q-21.8 -76.9 -21.05 -71.25 L-20.85 -69.6 Q-45.0 -92.9 -73.4 -109.75 L-75.15 -109.0 Q-83.6 -105.55 -92.25 -103.45 L-91.65 -104.4 -92.25 -103.45 M-68.5 -132.15 L-68.45 -132.15 -67.6 -132.6 -64.8 -133.9 -64.4 -134.1 -63.75 -135.2 -63.5 -135.55 Q-59.45 -133.7 -56.0 -131.05 -55.15 -130.45 -56.05 -129.8 -59.85 -127.2 -64.6 -129.6 L-68.5 -132.15 M-58.7 -141.7 L-54.85 -145.35 -54.15 -145.95 -50.8 -148.35 -50.3 -148.65 Q-45.65 -145.1 -41.5 -141.05 L-41.45 -140.85 -41.4 -140.65 -40.55 -138.7 -40.5 -138.6 -37.1 -133.0 -33.45 -126.85 Q-30.05 -120.65 -27.65 -114.9 L-27.45 -114.35 Q-25.7 -110.0 -24.5 -105.85 -22.1 -97.4 -22.2 -89.9 -22.25 -86.95 -22.65 -84.15 L-22.65 -84.1 -22.7 -83.85 -22.7 -83.8 -22.85 -83.55 Q-30.7 -105.85 -41.5 -125.6 -44.9 -131.8 -51.2 -135.65 -55.6 -138.35 -58.7 -141.7 M49.25 -67.35 Q49.0 -75.55 49.05 -83.95 52.05 -105.9 57.15 -116.3 52.05 -105.9 49.05 -83.95 49.0 -75.55 49.25 -67.35 49.5 -56.25 50.25 -45.5 L50.75 -39.3 Q51.35 -42.25 51.55 -45.5 52.1 -55.0 49.25 -67.35 M25.4 -86.15 L25.5 -86.9 Q25.95 -89.75 26.8 -92.5 25.95 -89.75 25.5 -86.9 L25.4 -86.15 M48.75 43.9 Q59.25 48.9 64.2 58.55 64.95 60.05 63.05 60.15 57.85 60.4 52.95 57.15 46.35 52.8 46.35 46.3 46.35 43.95 48.75 43.9 M-43.4 14.7 Q-44.75 19.65 -54.85 28.7 -65.0 37.75 -74.95 42.35 -84.95 46.9 -88.75 45.9 -92.55 44.85 -78.95 38.75 -65.55 32.75 -42.8 11.15 -44.35 12.85 -43.4 14.7 -60.1 35.85 -83.15 42.9 -60.1 35.85 -43.4 14.7 M-141.95 313.75 L-141.3 313.05 -136.45 308.45 -136.25 308.3 -135.75 307.9 -135.55 307.7 Q-109.8 306.05 -93.05 312.1 -84.25 315.3 -78.6 318.45 L-79.65 331.95 -104.9 332.95 Q-108.35 310.0 -135.85 313.55 L-141.95 313.75" fill="#3572b4" fill-rule="evenodd" stroke="none"/>
    <path d="M22.1 -150.65 Q25.5 -148.55 30.45 -143.8 L29.25 -144.9 35.9 -132.0 Q36.05 -131.55 36.2 -134.2 36.35 -136.9 37.4 -138.8 49.0 -136.35 57.05 -128.5 57.7 -128.35 55.05 -125.8 L43.1 -115.45 Q30.7 -105.25 26.8 -92.5 L26.5 -93.5 Q18.75 -118.2 22.2 -143.8 22.7 -147.65 22.1 -150.65 M61.55 -121.35 L67.35 -117.4 70.75 -113.15 Q77.8 -103.7 82.4 -91.3 88.0 -76.0 90.15 -72.8 L95.5 -64.55 Q98.7 -59.5 104.85 -54.15 L96.3 -42.55 Q88.65 -33.3 70.4 -30.9 L62.45 -29.8 Q59.25 -33.95 55.35 -53.85 51.4 -73.8 54.65 -96.15 57.9 -118.55 57.2 -116.3 L57.15 -116.3 56.2 -116.15 57.95 -117.85 57.15 -116.3 57.95 -117.85 61.55 -121.35 M77.4 16.9 Q78.05 18.5 78.15 20.4 L76.75 25.45 Q75.2 23.7 72.5 22.05 L72.2 34.15 71.3 35.2 Q70.45 31.9 68.3 29.5 66.1 27.05 63.95 22.45 61.8 17.8 58.15 14.75 L59.85 23.7 60.85 28.4 53.3 22.45 51.2 22.25 Q56.25 30.25 66.05 47.6 L74.05 73.45 Q70.35 77.8 63.25 79.9 47.95 84.4 16.95 78.35 L19.25 72.1 21.35 65.1 21.7 63.85 Q28.65 38.05 32.1 -5.05 32.5 -23.9 30.6 -45.5 29.4 -59.25 27.25 -74.05 27.5 -79.2 30.45 -87.25 33.4 -95.35 43.0 -106.1 52.6 -116.9 53.1 -113.1 50.95 -107.35 47.85 -77.05 44.45 -44.15 52.75 -19.65 54.1 -8.6 56.0 2.1 L56.1 2.65 56.15 3.1 56.55 5.3 57.05 7.95 Q65.65 8.3 71.7 11.15 75.95 13.15 77.4 16.9 M66.35 306.75 L88.65 321.05 Q92.15 324.75 92.45 329.7 52.35 333.05 29.0 331.7 32.0 313.0 45.55 310.05 59.05 307.05 65.4 306.7 L66.35 306.75 M-154.1 331.95 Q-153.85 330.2 -153.1 328.55 -148.7 320.8 -142.15 313.95 L-141.95 313.75 -135.85 313.55 Q-108.35 310.0 -104.9 332.95 -133.0 333.6 -154.1 331.95 M-85.4 69.6 Q-99.2 63.35 -112.75 57.8 -104.75 41.75 -90.5 22.5 -76.25 3.2 -67.7 -15.45 -65.5 -20.3 -64.05 -25.45 -49.4 -40.8 -42.8 -62.95 -38.8 -76.35 -47.45 -83.5 -50.2 -83.4 -50.45 -80.8 -51.6 -67.65 -58.15 -56.4 L-61.5 -50.8 -62.0 -57.1 Q-89.7 -75.0 -95.65 -95.45 -95.0 -99.05 -92.25 -103.45 -83.6 -105.55 -75.15 -109.0 L-73.4 -109.75 Q-45.0 -92.9 -20.85 -69.6 L-20.8 -69.2 -20.6 -67.2 -20.45 -65.85 Q-19.5 -55.95 -19.7 -45.5 -20.15 -19.45 -27.6 10.1 -33.7 34.25 -35.5 50.1 L-35.95 55.1 Q-36.5 62.0 -36.0 67.0 -35.5 72.4 -33.8 75.6 L-35.6 76.85 Q-46.9 84.0 -61.5 79.9 -65.85 78.7 -70.4 76.55 -77.95 72.95 -85.4 69.6 M-82.75 -115.4 L-85.55 -115.4 Q-82.15 -125.25 -68.5 -132.15 L-64.6 -129.6 Q-59.85 -127.2 -56.05 -129.8 -55.15 -130.45 -56.0 -131.05 -59.45 -133.7 -63.5 -135.55 -61.65 -138.65 -58.7 -141.7 -55.6 -138.35 -51.2 -135.65 -44.9 -131.8 -41.5 -125.6 -30.7 -105.85 -22.85 -83.55 L-23.1 -83.3 Q-24.8 -82.3 -32.65 -90.55 -44.05 -105.85 -79.9 -115.4 L-82.75 -115.4 M-50.3 -148.65 Q-45.15 -151.75 -38.45 -153.4 -38.05 -150.8 -38.0 -148.05 L-38.15 -147.95 -38.25 -147.85 Q-42.3 -144.6 -41.45 -140.85 L-41.5 -141.05 Q-45.65 -145.1 -50.3 -148.65 M57.05 7.95 L58.15 14.75 57.05 7.95 M48.75 43.9 Q46.35 43.95 46.35 46.3 46.35 52.8 52.95 57.15 57.85 60.4 63.05 60.15 64.95 60.05 64.2 58.55 59.25 48.9 48.75 43.9 M-62.15 -58.05 L-62.0 -57.1 -62.15 -58.05 M-43.4 14.7 Q-44.35 12.85 -42.8 11.15 -65.55 32.75 -78.95 38.75 -92.55 44.85 -88.75 45.9 -84.95 46.9 -74.95 42.35 -65.0 37.75 -54.85 28.7 -44.75 19.65 -43.4 14.7 L-42.25 13.15 -43.4 14.7" fill="#4c97d9" fill-rule="evenodd" stroke="none"/>
    <path d="M5.7 -119.25 Q10.55 -120.6 13.35 -123.45 L13.5 -123.6 13.65 -123.8 13.8 -124.0 13.9 -124.1 14.1 -124.3 14.35 -124.65 14.45 -124.8 14.6 -125.0 14.75 -125.25 14.85 -125.35 15.05 -125.7 15.2 -125.95 15.45 -126.45 15.6 -126.75 15.65 -126.85 15.8 -127.2 15.85 -127.35 Q18.1 -96.35 25.4 -86.15 L25.5 -85.7 27.25 -74.05 Q29.4 -59.25 30.6 -45.5 32.5 -23.9 32.1 -5.05 28.65 38.05 21.7 63.85 5.7 73.0 -35.25 67.1 -9.35 65.05 14.85 56.65 19.1 55.15 19.9 50.3 28.0 1.35 26.1 -49.25 24.85 -83.45 8.5 -113.25 6.9 -116.15 5.7 -119.25 M-27.65 -114.9 Q-23.1 -112.3 -12.7 -110.05 -2.35 -107.85 7.4 -110.0 L7.85 -109.9 Q4.05 -102.85 -24.5 -105.85 -25.7 -110.0 -27.45 -114.35 L-27.65 -114.9 M-22.2 -89.9 Q-15.15 -63.8 -8.05 -36.4 -0.95 -9.05 5.25 5.2 11.4 19.45 10.75 19.65 -1.65 5.5 -9.8 -18.4 -17.45 -40.9 -20.45 -65.85 L-20.6 -67.2 -20.8 -69.2 -20.85 -69.6 -21.05 -71.25 Q-21.8 -76.9 -22.9 -82.3 L-23.1 -83.3 -22.85 -83.55 -22.7 -83.8 -22.7 -83.85 -22.65 -84.1 -22.65 -84.15 Q-22.25 -86.95 -22.2 -89.9 M-35.5 50.1 Q-30.0 52.9 -17.8 54.1 -5.65 55.25 18.55 49.45 L18.9 50.25 19.05 50.65 19.15 51.05 19.1 51.45 18.95 52.25 Q-2.5 61.3 -27.4 56.8 L-35.95 55.1 -35.5 50.1" fill="#070a0e" fill-rule="evenodd" stroke="none"/>
    <path d="M92.45 329.7 Q92.65 333.35 91.15 337.65 30.25 341.65 3.55 336.4 2.25 332.5 2.55 329.3 L29.0 331.7 Q52.35 333.05 92.45 329.7 M-79.65 331.95 L-80.25 339.9 Q-140.0 343.0 -153.1 339.9 -154.7 335.65 -154.1 331.95 -133.0 333.6 -104.9 332.95 L-79.65 331.95 M4.0 -118.8 L5.7 -119.25 Q6.9 -116.15 8.5 -113.25 24.85 -83.45 26.1 -49.25 28.0 1.35 19.9 50.3 19.1 55.15 14.85 56.65 -9.35 65.05 -35.25 67.1 L-36.0 67.0 Q-36.5 62.0 -35.95 55.1 L-27.4 56.8 Q-2.5 61.3 18.95 52.25 L19.1 51.45 19.15 51.05 19.05 50.65 18.9 50.25 18.55 49.45 Q-5.65 55.25 -17.8 54.1 -30.0 52.9 -35.5 50.1 -33.7 34.25 -27.6 10.1 -20.15 -19.45 -19.7 -45.5 -19.5 -55.95 -20.45 -65.85 -17.45 -40.9 -9.8 -18.4 -1.65 5.5 10.75 19.65 11.4 19.45 5.25 5.2 -0.95 -9.05 -8.05 -36.4 -15.15 -63.8 -22.2 -89.9 -22.1 -97.4 -24.5 -105.85 4.05 -102.85 7.85 -109.9 L7.4 -110.0 Q-2.35 -107.85 -12.7 -110.05 -23.1 -112.3 -27.65 -114.9 -30.05 -120.65 -33.45 -126.85 -22.3 -116.45 -1.85 -118.05 L4.0 -118.8" fill="#1b2734" fill-rule="evenodd" stroke="none"/>
    <path d="M66.65 38.45 L64.2 41.45 Q62.35 35.05 60.85 28.4 L59.85 23.7 Q67.8 29.9 66.65 38.45" fill="#121b25" fill-rule="evenodd" stroke="none"/>
    <path d="M63.25 79.9 L63.6 84.5 Q36.85 85.85 11.45 80.1 9.1 79.55 9.4 76.85 9.55 75.15 10.25 74.05 L10.8 73.95 -21.4 77.8 Q-26.2 78.4 -31.25 77.7 L-35.6 76.85 -33.8 75.6 Q-35.5 72.4 -36.0 67.0 L-35.25 67.1 Q5.7 73.0 21.7 63.85 L21.35 65.1 19.25 72.1 16.95 78.35 Q47.95 84.4 63.25 79.9 M70.0 298.15 Q70.0 303.0 69.2 307.0 L66.35 306.75 65.4 306.7 Q46.2 305.45 29.95 312.85 L25.55 315.05 Q24.3 315.7 23.1 316.4 13.2 322.6 4.2 324.4 -2.25 325.65 -8.25 324.6 -15.15 299.65 -4.55 261.75 L5.55 191.95 -5.55 86.3 2.25 84.45 Q6.3 160.15 15.05 189.35 L23.1 195.6 Q6.7 217.5 13.15 311.75 30.3 298.55 70.0 298.15 M-15.85 88.75 Q-37.65 145.35 -53.55 233.1 -55.8 295.3 -69.55 326.15 -73.2 332.4 -79.65 331.95 L-78.6 318.45 Q-84.25 315.3 -93.05 312.1 -109.8 306.05 -135.55 307.7 L-135.75 307.9 -136.25 308.3 -136.45 308.45 -141.3 313.05 -141.95 313.75 -142.15 313.95 Q-144.6 311.75 -144.7 308.5 -144.95 305.65 -143.9 300.15 -107.45 288.25 -73.75 312.35 -57.8 262.15 -61.35 207.45 -42.85 161.95 -24.35 90.75 L-15.85 88.75 M-88.85 79.85 L-85.4 69.6 Q-77.95 72.95 -70.4 76.55 -65.85 78.7 -61.5 79.9 -75.2 81.6 -88.85 79.85 M-144.7 308.5 L-135.55 307.7 -144.7 308.5 M-78.6 318.45 Q-71.7 322.35 -69.55 326.15 -71.7 322.35 -78.6 318.45" fill="#182538" fill-rule="evenodd" stroke="none"/>
    <path d="M63.6 84.5 L67.65 139.1 Q73.9 188.05 67.25 243.75 L67.25 277.2 Q70.0 289.15 70.0 298.15 30.3 298.55 13.15 311.75 6.7 217.5 23.1 195.6 L15.05 189.35 Q6.3 160.15 2.25 84.45 L4.8 83.85 2.25 84.45 -5.55 86.3 -15.85 88.75 -24.35 90.75 Q-42.85 161.95 -61.35 207.45 -57.8 262.15 -73.75 312.35 -107.45 288.25 -143.9 300.15 -141.25 286.1 -130.25 254.85 -114.95 211.25 -108.2 170.35 -98.3 110.25 -88.85 79.85 -75.2 81.6 -61.5 79.9 -46.9 84.0 -35.6 76.85 L-31.25 77.7 Q-26.2 78.4 -21.4 77.8 L10.8 73.95 10.25 74.05 Q9.55 75.15 9.4 76.85 9.1 79.55 11.45 80.1 36.85 85.85 63.6 84.5" fill="#283e5d" fill-rule="evenodd" stroke="none"/>
    <path d="M20.75 -156.0 L22.5 -157.35 Q31.4 -164.45 39.3 -176.8 L39.45 -177.0 41.6 -181.15 Q47.75 -193.55 49.4 -207.35 47.95 -225.2 35.6 -237.85 -12.95 -239.25 -59.7 -230.1 L-63.0 -196.8 M-63.05 -196.8 Q-63.55 -191.25 -59.5 -184.1 L-57.5 -180.95 -57.0 -180.25 Q-50.9 -170.9 -41.75 -164.4 -34.55 -159.25 -25.4 -155.85 -20.05 -151.45 0.95 -150.15 L2.55 -150.0 2.75 -150.0 3.65 -149.9 3.8 -149.9 4.25 -149.9 6.15 -149.75 8.65 -149.65 9.75 -150.0 Q13.3 -151.35 16.8 -153.4 L20.0 -151.95 Q21.9 -150.75 22.1 -150.65 25.5 -148.55 30.45 -143.8 L34.15 -140.0 34.35 -139.75 34.8 -139.3 37.4 -138.8 Q49.0 -136.35 57.05 -128.5 57.7 -128.35 55.05 -125.8 L61.55 -121.35 67.35 -117.4 70.75 -113.15 Q77.8 -103.7 82.4 -91.3 88.0 -76.0 90.15 -72.8 L95.5 -64.55 Q98.7 -59.5 104.85 -54.15 L96.3 -42.55 Q98.8 -37.45 98.05 -30.6 L97.9 -29.5 96.65 -24.05 Q89.4 0.4 77.4 16.9 78.05 18.5 78.15 20.4 L76.75 25.45 Q74.95 30.8 72.2 34.15 L71.3 35.2 Q69.2 37.35 66.65 38.45 L64.2 41.45 65.55 46.1 66.05 47.6 74.05 73.45 Q70.35 77.8 63.25 79.9 L63.6 84.5 67.65 139.1 Q73.9 188.05 67.25 243.75 L67.25 277.2 Q70.0 289.15 70.0 298.15 70.0 303.0 69.2 307.0 L66.35 306.75 88.65 321.05 Q92.15 324.75 92.45 329.7 92.65 333.35 91.15 337.65 30.25 341.65 3.55 336.4 2.25 332.5 2.55 329.3 2.8 326.6 4.2 324.4 -2.25 325.65 -8.25 324.6 -15.15 299.65 -4.55 261.75 L5.55 191.95 -5.55 86.3 -15.85 88.75 Q-37.65 145.35 -53.55 233.1 -55.8 295.3 -69.55 326.15 -73.2 332.4 -79.65 331.95 L-80.25 339.9 Q-140.0 343.0 -153.1 339.9 -154.7 335.65 -154.1 331.95 -153.85 330.2 -153.1 328.55 -148.7 320.8 -142.15 313.95 -144.6 311.75 -144.7 308.5 -144.95 305.65 -143.9 300.15 -141.25 286.1 -130.25 254.85 -114.95 211.25 -108.2 170.35 -98.3 110.25 -88.85 79.85 L-85.4 69.6 Q-99.2 63.35 -112.75 57.8 -104.75 41.75 -90.5 22.5 -76.25 3.2 -67.7 -15.45 -65.5 -20.3 -64.05 -25.45 L-63.8 -26.45 -61.45 -42.3 -61.45 -42.45 -61.45 -42.7 -61.4 -43.2 -61.4 -43.75 -61.4 -43.9 -61.4 -44.15 -61.35 -45.5 Q-61.35 -48.15 -61.5 -50.8 L-62.0 -57.1 Q-89.7 -75.0 -95.65 -95.45 -95.0 -99.05 -92.25 -103.45 L-91.65 -104.4 -91.45 -104.75 Q-88.55 -109.2 -83.6 -114.45 L-83.0 -115.1 -82.95 -115.15 -82.8 -115.35 -82.75 -115.4 -85.55 -115.4 Q-82.15 -125.25 -68.5 -132.15 L-68.45 -132.15 -67.6 -132.6 -64.8 -133.9 -64.4 -134.1 -63.75 -135.2 M20.75 -156.0 L16.8 -153.4 M-63.5 -135.55 Q-61.65 -138.65 -58.7 -141.7 L-54.85 -145.35 -54.15 -145.95 -50.8 -148.35 -50.3 -148.65 Q-45.15 -151.75 -38.45 -153.4 L-39.95 -159.3 Q-40.85 -162.45 -41.75 -164.4 M6.15 -147.25 L6.15 -141.9 M3.8 -131.6 L1.95 -131.25 -0.9 -127.0 M-37.95 -147.5 L-38.15 -142.9 M5.7 -119.25 Q10.55 -120.6 13.35 -123.45 L13.5 -123.6 13.65 -123.8 13.8 -124.0 13.9 -124.1 14.1 -124.3 14.35 -124.65 14.45 -124.8 14.6 -125.0 14.75 -125.25 14.85 -125.35 15.05 -125.7 15.2 -125.95 15.45 -126.45 15.6 -126.75 15.65 -126.85 15.8 -127.2 15.85 -127.35 15.4 -133.9 3.8 -131.6 M4.0 -118.8 L5.7 -119.25 M-35.25 67.1 Q5.7 73.0 21.7 63.85 28.65 38.05 32.1 -5.05 32.5 -23.9 30.6 -45.5 29.4 -59.25 27.25 -74.05 L25.5 -85.7 25.4 -86.15 Q18.1 -96.35 15.85 -127.35 M6.15 -149.75 L6.15 -147.25 Q13.5 -143.25 15.15 -139.25 L15.4 -133.9 M-24.5 -105.85 Q-22.1 -97.4 -22.2 -89.9 -22.25 -86.95 -22.65 -84.15 L-22.65 -84.1 -22.7 -83.85 -22.7 -83.8 M-20.45 -65.85 Q-19.5 -55.95 -19.7 -45.5 -20.15 -19.45 -27.6 10.1 -33.7 34.25 -35.5 50.1 L-35.95 55.1 Q-36.5 62.0 -36.0 67.0 L-35.25 67.1 M57.95 -117.85 L57.15 -116.3 Q52.05 -105.9 49.05 -83.95 49.0 -75.55 49.25 -67.35 52.1 -55.0 51.55 -45.5 51.35 -42.25 50.75 -39.3 L51.55 -30.45 Q55.9 -29.35 62.2 -29.75 L62.45 -29.8 70.4 -30.9 Q88.65 -33.3 96.3 -42.55 M26.8 -92.5 Q30.7 -105.25 43.1 -115.45 L55.05 -125.8 M26.8 -92.5 Q25.95 -89.75 25.5 -86.9 L25.4 -86.15 M51.55 -30.45 L51.55 -30.4 52.75 -19.65 Q54.1 -8.6 56.0 2.1 L62.2 -29.75 M49.25 -67.35 Q49.5 -56.25 50.25 -45.5 L50.75 -39.3 M56.55 5.3 L57.05 7.95 Q65.65 8.3 71.7 11.15 75.95 13.15 77.4 16.9 M60.85 28.4 L59.85 23.7 58.15 14.75 57.05 7.95 M56.0 2.1 L56.1 2.65 56.15 3.1 56.55 5.3 M64.2 41.45 Q62.35 35.05 60.85 28.4 M66.65 38.45 Q67.8 29.9 59.85 23.7 M21.7 63.85 L21.35 65.1 19.25 72.1 16.95 78.35 Q47.95 84.4 63.25 79.9 M-35.6 76.85 Q-46.9 84.0 -61.5 79.9 -65.85 78.7 -70.4 76.55 -77.95 72.95 -85.4 69.6 M2.25 84.45 L4.8 83.85 M29.0 331.7 Q52.35 333.05 92.45 329.7 M65.4 306.7 L66.35 306.75 M2.55 329.3 L29.0 331.7 M4.2 324.4 Q13.2 322.6 23.1 316.4 24.3 315.7 25.55 315.05 L29.95 312.85 Q46.2 305.45 65.4 306.7 M-41.45 -140.85 Q-42.3 -144.6 -38.25 -147.85 L-38.15 -147.95 M-38.0 -148.05 Q-38.05 -150.8 -38.45 -153.4 M-41.45 -140.85 L-41.4 -140.65 -40.55 -138.7 -40.5 -138.6 -37.1 -133.0 -17.65 -131.45 -13.9 -126.85 M-37.1 -133.0 L-33.45 -126.85 Q-22.3 -116.45 -1.85 -118.05 L4.0 -118.8 M-38.0 -148.05 L-37.95 -147.5 M-27.65 -114.9 L-27.45 -114.35 Q-25.7 -110.0 -24.5 -105.85 M-33.45 -126.85 Q-30.05 -120.65 -27.65 -114.9 M-22.85 -83.55 L-23.1 -83.3 -22.9 -82.3 Q-21.8 -76.9 -21.05 -71.25 L-20.85 -69.6 -20.8 -69.2 -20.6 -67.2 -20.45 -65.85 M-23.1 -83.3 Q-24.8 -82.3 -32.65 -90.55 -44.05 -105.85 -79.9 -115.4 L-82.75 -115.4 M-62.0 -57.1 L-62.15 -58.05 M-43.4 14.7 L-42.25 13.15 M-36.0 67.0 Q-35.5 72.4 -33.8 75.6 L-35.6 76.85 M-24.35 90.75 L-15.85 88.75 M-43.4 14.7 Q-60.1 35.85 -83.15 42.9 M-141.95 313.75 L-141.3 313.05 -136.45 308.45 M-136.25 308.3 L-135.75 307.9 -135.55 307.7 -144.7 308.5 M-142.15 313.95 L-141.95 313.75 M-104.9 332.95 L-79.65 331.95 -78.6 318.45 Q-84.25 315.3 -93.05 312.1 -109.8 306.05 -135.55 307.7 M-154.1 331.95 Q-133.0 333.6 -104.9 332.95 M-69.55 326.15 Q-71.7 322.35 -78.6 318.45 M-5.55 86.3 L2.25 84.45" fill="none" stroke="#1a5283" stroke-linecap="round" stroke-linejoin="round" stroke-width="2.0"/>
    <path d="M51.35 -232.5 L53.5 -227.6 Q57.4 -217.5 56.55 -208.15 57.4 -217.5 53.5 -227.6 L51.35 -232.5 M41.75 -163.85 Q36.75 -159.25 30.6 -154.75 L34.55 -164.6 Q31.0 -156.55 21.75 -150.85 L19.05 -149.9 22.5 -157.35 Q31.4 -164.45 39.3 -176.8 L39.45 -177.0 41.6 -181.15 Q39.35 -180.2 36.05 -179.1 L35.45 -178.95 36.3 -180.15 Q40.1 -186.05 42.65 -194.25 44.05 -198.9 45.05 -204.25 L44.9 -206.1 44.85 -206.6 33.9 -230.7 -35.65 -224.2 Q-38.2 -218.7 -41.5 -214.1 L-44.1 -210.8 -44.75 -210.05 -38.0 -161.95 -41.7 -164.3 Q-40.85 -162.4 -39.95 -159.3 L-42.05 -155.4 -55.85 -171.45 -58.4 -180.3 Q-63.35 -188.2 -63.0 -196.8 L-63.05 -196.8 -66.25 -222.95 -57.0 -235.35 -47.85 -235.45 -47.8 -235.45 53.9 -236.95 81.95 -218.8 Q76.8 -214.3 70.75 -212.85 L61.1 -212.45 61.55 -209.5 61.6 -209.3 56.55 -208.15 53.95 -207.6 49.05 -206.9 48.1 -196.55 47.8 -193.4 Q47.05 -184.5 44.85 -174.65 43.6 -169.05 41.75 -163.85 M44.85 -206.6 Q47.0 -200.9 48.1 -196.55 47.0 -200.9 44.85 -206.6 M-58.4 -180.3 Q-53.1 -171.85 -41.7 -164.3 L-41.75 -164.4 Q-50.9 -170.9 -57.0 -180.25 L-57.5 -180.95 -59.5 -184.1 -58.4 -180.3 -59.5 -184.1 -57.5 -180.95 -57.0 -180.25 Q-50.9 -170.9 -41.75 -164.4 L-41.7 -164.3 Q-53.1 -171.85 -58.4 -180.3 M-44.75 -210.05 L-44.8 -210.05 -45.6 -209.15 -46.45 -208.25 -61.25 -197.6 -61.7 -197.4 -63.0 -196.8 -61.7 -197.4 -61.25 -197.6 -46.45 -208.25 -45.6 -209.15 -44.8 -210.05 -44.75 -210.05 M39.45 -177.0 L39.55 -177.2 34.55 -164.6 39.55 -177.2 39.45 -177.0 M44.75 -183.25 L41.6 -181.15 44.75 -183.25" fill="#091425" fill-rule="evenodd" stroke="none"/>
    <path d="M61.6 -209.3 Q64.55 -185.1 41.75 -163.85 43.6 -169.05 44.85 -174.65 47.05 -184.5 47.8 -193.4 L48.1 -196.55 49.05 -206.9 53.95 -207.6 56.55 -208.15 Q55.6 -198.1 49.1 -188.85 49.2 -191.9 48.1 -196.55 49.2 -191.9 49.1 -188.85 55.6 -198.1 56.55 -208.15 L61.6 -209.3" fill="#132a4c" fill-rule="evenodd" stroke="none"/>
    <path d="M56.55 -208.15 Q57.4 -217.5 53.5 -227.6 L51.35 -232.5 M41.75 -163.85 Q36.75 -159.25 30.6 -154.75 L34.55 -164.6 Q31.0 -156.55 21.75 -150.85 L19.05 -149.9 22.5 -157.35 Q31.4 -164.45 39.3 -176.8 L39.45 -177.0 41.6 -181.15 Q39.35 -180.2 36.05 -179.1 L35.45 -178.95 36.3 -180.15 Q40.1 -186.05 42.65 -194.25 44.05 -198.9 45.05 -204.25 L44.9 -206.1 44.85 -206.6 33.9 -230.7 -35.65 -224.2 Q-38.2 -218.7 -41.5 -214.1 L-44.1 -210.8 -44.75 -210.05 -38.0 -161.95 -41.7 -164.3 Q-40.85 -162.4 -39.95 -159.3 L-42.05 -155.4 -55.85 -171.45 -58.4 -180.3 Q-63.35 -188.2 -63.0 -196.8 L-63.05 -196.8 -66.25 -222.95 -57.0 -235.35 -47.85 -235.45 M-47.8 -235.45 L53.9 -236.95 81.95 -218.8 Q76.8 -214.3 70.75 -212.85 L61.1 -212.45 61.55 -209.5 M61.6 -209.3 Q64.55 -185.1 41.75 -163.85 M48.1 -196.55 Q47.0 -200.9 44.85 -206.6 M48.1 -196.55 Q49.2 -191.9 49.1 -188.85 55.6 -198.1 56.55 -208.15 M41.6 -181.15 L44.75 -183.25 M34.55 -164.6 L39.55 -177.2 39.45 -177.0 M-63.0 -196.8 L-61.7 -197.4 -61.25 -197.6 -46.45 -208.25 -45.6 -209.15 -44.8 -210.05 -44.75 -210.05 M-58.4 -180.3 L-59.5 -184.1 -57.5 -180.95 -57.0 -180.25 Q-50.9 -170.9 -41.75 -164.4 L-41.7 -164.3 Q-53.1 -171.85 -58.4 -180.3" fill="none" stroke="#1a5283" stroke-linecap="round" stroke-linejoin="round" stroke-width="2.0"/>
  </g>
</svg>
