<?xml version="1.0" encoding="UTF-8" standalone="no"?>
<svg xmlns:xlink="http://www.w3.org/1999/xlink" height="581.5px" width="264.0px" xmlns="http://www.w3.org/2000/svg">
  <g transform="matrix(1.0, 0.0, 0.0, 1.0, 155.25, 239.05)">
    <path d="M36.85 -173.1 Q30.0 -163.35 22.5 -157.35 L20.75 -156.0 16.8 -153.4 Q13.9 -151.7 10.95 -150.5 4.65 -150.15 -8.35 -154.9 -21.4 -159.65 -37.7 -175.9 -39.3 -175.9 -40.7 -174.75 -42.05 -173.65 -41.35 -172.55 -35.15 -163.1 -26.75 -156.35 -35.0 -159.6 -41.55 -164.25 L-41.7 -164.3 -41.75 -164.4 Q-50.9 -170.9 -57.0 -180.25 L-57.5 -180.95 -59.5 -184.1 Q-63.55 -191.25 -63.05 -196.8 L-63.0 -196.8 -59.7 -230.1 Q-12.95 -239.25 35.6 -237.85 42.15 -231.15 45.65 -222.95 L15.9 -220.4 -41.35 -215.95 Q-49.6 -215.4 -53.95 -209.75 -56.2 -206.85 -52.7 -205.6 -41.6 -201.5 -34.1 -203.25 -37.1 -202.45 -38.15 -199.65 -38.6 -198.55 -38.5 -197.3 L-57.35 -194.1 Q-62.05 -193.25 -61.25 -188.95 -59.7 -180.35 -48.1 -183.95 -47.55 -181.85 -45.35 -181.55 -38.95 -180.6 -20.6 -185.55 -4.7 -189.9 27.1 -190.3 25.05 -189.1 26.9 -187.2 28.4 -185.65 30.75 -185.5 32.25 -185.4 32.95 -186.7 34.35 -189.35 32.9 -190.35 L37.15 -190.35 Q40.0 -179.55 38.2 -177.75 36.4 -175.95 36.85 -173.1 M98.3 -35.9 L98.05 -30.6 97.9 -29.5 97.8 -28.8 97.65 -28.1 97.0 -25.25 96.65 -24.05 Q89.4 0.4 77.4 16.9 75.95 13.15 71.7 11.15 66.25 8.6 58.75 8.05 L57.75 3.9 Q68.2 -22.05 84.65 -32.35 95.15 -36.8 98.3 -35.9 M7.25 -132.3 L7.25 -132.25 Q5.4 -124.65 0.45 -118.25 L-1.85 -118.05 Q-22.3 -116.45 -33.45 -126.85 L-36.2 -131.6 -37.1 -133.0 -40.5 -138.6 -40.55 -138.7 -41.4 -140.65 -41.45 -140.85 Q-42.3 -144.6 -38.0 -147.85 L-38.0 -148.05 Q-38.05 -150.7 -38.4 -153.25 L-34.8 -152.25 Q-35.0 -150.25 -34.15 -148.3 -33.2 -146.2 -26.2 -140.8 -19.2 -135.4 7.4 -133.1 L7.25 -132.3 1.95 -131.25 -0.9 -127.0 1.95 -131.25 7.25 -132.3 M-38.15 -142.9 L-37.95 -147.5 -38.0 -147.85 -37.95 -147.5 -38.15 -142.9 M-41.55 -164.25 L-41.75 -164.4 -41.55 -164.25 M-13.9 -126.85 L-17.65 -131.45 -37.1 -133.0 -17.65 -131.45 -13.9 -126.85" fill="#ffe8d7" fill-rule="evenodd" stroke="none"/>
    <path d="M18.9 -152.5 L20.0 -151.95 Q21.9 -150.75 22.1 -150.65 25.5 -148.55 30.45 -143.8 L32.7 -141.5 Q32.75 -140.7 34.0 -137.0 L35.5 -132.85 Q35.75 -132.4 36.65 -134.15 37.55 -135.95 38.0 -138.65 49.2 -136.15 57.05 -128.5 57.7 -128.35 55.05 -125.8 L43.1 -115.45 Q30.7 -105.25 26.8 -92.5 L26.25 -90.4 Q26.3 -92.8 24.35 -103.35 22.4 -113.9 22.5 -129.5 22.55 -145.1 19.35 -152.3 L18.9 -152.5 M64.95 -119.05 L65.8 -118.45 65.9 -118.35 66.2 -118.15 67.35 -117.4 70.75 -113.15 Q77.8 -103.7 82.4 -91.3 L83.5 -88.4 Q93.55 -66.1 107.75 -54.9 106.05 -43.65 97.4 -40.6 85.0 -37.7 69.2 -31.2 66.1 -30.1 62.45 -29.8 L62.2 -29.75 60.95 -29.65 61.7 -29.7 Q58.65 -40.95 56.0 -70.65 53.35 -100.3 58.8 -111.0 62.8 -118.9 64.95 -119.05 M77.4 16.9 Q78.05 18.5 78.15 20.4 L76.75 25.45 75.5 28.75 Q74.7 25.15 71.7 22.6 71.05 22.6 70.95 23.15 70.5 25.65 72.05 28.4 73.3 30.65 72.7 32.85 70.8 33.0 68.7 30.85 69.65 20.7 60.65 15.65 L58.75 8.05 60.65 15.65 63.25 25.25 64.25 26.55 63.95 27.8 63.95 27.85 64.2 28.6 Q59.7 24.35 55.0 20.65 54.3 20.7 53.65 21.2 52.95 21.7 53.3 22.25 58.65 31.45 67.05 38.3 72.4 55.6 77.75 67.2 L73.85 72.8 Q70.35 77.8 63.25 79.9 L63.25 79.95 Q43.9 84.6 25.0 80.85 L26.8 73.4 27.45 70.45 28.3 66.3 Q33.9 31.2 32.15 -15.1 32.0 -29.55 30.6 -45.5 29.45 -58.9 27.35 -73.3 30.9 -80.5 33.45 -88.8 39.4 -107.95 57.25 -118.95 47.95 -100.8 46.8 -78.75 46.0 -62.8 49.0 -47.5 L50.8 -38.55 51.5 -32.0 51.85 -27.8 Q51.85 -26.15 52.4 -21.75 L53.4 -14.75 Q54.5 -6.2 56.0 2.1 L56.6 -0.9 56.7 -0.4 57.15 1.5 57.75 3.9 58.75 8.05 Q66.25 8.6 71.7 11.15 75.95 13.15 77.4 16.9 M67.95 307.8 L88.65 321.05 Q92.15 324.75 92.45 329.7 54.15 332.9 31.15 331.8 31.35 328.9 32.4 323.35 33.45 317.75 43.0 312.55 52.55 307.35 67.95 307.8 M-154.1 331.95 Q-153.85 330.2 -153.1 328.55 -148.7 320.8 -142.15 313.95 L-142.05 313.85 -141.95 313.75 -141.3 313.05 -140.7 312.55 Q-138.5 310.85 -123.0 312.5 -106.65 314.15 -107.9 333.0 -135.25 333.4 -154.1 331.95 M-83.9 65.45 Q-94.95 62.0 -104.65 61.15 -98.85 41.65 -87.95 25.15 -76.55 7.95 -68.7 -13.3 L-67.7 -15.45 Q-65.5 -20.3 -64.05 -25.45 L-63.8 -26.45 -61.45 -42.3 -61.45 -42.45 -61.45 -42.7 -61.4 -43.2 -61.4 -43.75 -61.4 -43.9 -61.4 -44.15 -61.35 -45.5 Q-61.35 -48.15 -61.5 -50.8 L-62.0 -57.1 Q-89.7 -75.0 -95.65 -95.45 -95.0 -99.05 -92.25 -103.45 L-91.65 -104.4 -91.45 -104.75 -86.95 -110.65 -72.15 -106.15 -56.75 -101.4 Q-45.65 -98.1 -38.8 -89.0 -31.5 -79.25 -21.3 -73.1 L-21.05 -71.25 -20.85 -69.6 -20.8 -69.2 -20.6 -67.2 -20.45 -65.85 Q-19.5 -55.95 -19.7 -45.5 -19.8 -38.55 -20.4 -31.35 L-20.55 -30.05 Q-22.8 -16.0 -24.45 -3.75 -29.55 33.55 -29.6 53.55 -31.15 54.7 -29.6 56.05 -29.5 62.85 -28.7 67.4 L-28.6 68.0 Q-27.5 74.3 -24.95 76.0 -32.15 79.6 -40.75 79.45 -49.55 79.3 -59.8 75.25 -71.4 69.5 -81.85 66.1 L-83.9 65.45 M-82.75 -115.4 L-85.55 -115.4 Q-82.15 -125.25 -68.5 -132.15 L-68.45 -132.15 -67.6 -132.6 -64.8 -133.9 -64.4 -134.1 -63.75 -135.2 -63.5 -135.55 Q-61.65 -138.65 -58.7 -141.7 L-56.85 -143.55 Q-56.35 -142.15 -54.9 -142.35 -45.5 -143.5 -50.95 -148.2 L-51.4 -147.9 -50.8 -148.35 -50.3 -148.65 Q-45.15 -151.75 -38.45 -153.4 L-38.4 -153.25 Q-38.05 -150.7 -38.0 -148.05 L-38.0 -147.85 Q-42.3 -144.6 -41.45 -140.85 L-41.4 -140.65 -40.55 -138.7 -40.5 -138.6 -37.1 -133.0 -36.2 -131.6 Q-38.95 -131.35 -39.25 -128.6 -39.9 -122.2 -36.85 -116.1 -29.05 -100.4 -24.6 -83.5 -27.05 -84.7 -32.65 -90.55 -44.05 -105.85 -79.9 -115.4 L-82.75 -115.4 M53.45 42.05 L53.0 42.15 Q52.0 42.35 52.1 43.2 52.6 49.0 57.0 53.95 60.75 58.15 65.9 60.05 67.95 60.85 68.0 58.75 68.05 55.75 66.4 52.9 61.75 44.95 53.45 42.05 M63.95 27.85 L63.25 25.25 63.95 27.85 M-62.15 -58.05 L-62.0 -57.1 -62.15 -58.05 M-37.2 12.9 Q-53.5 24.95 -71.0 35.8 L-80.55 41.0 Q-83.95 42.6 -83.65 45.7 -83.55 47.15 -82.2 46.7 -76.8 44.95 -71.55 42.85 -66.85 40.95 -62.5 38.45 -53.65 33.25 -48.45 27.9 -43.25 22.5 -40.2 17.85 L-37.2 12.9 M-135.55 307.7 L-135.75 307.9 -135.85 308.0 -135.55 307.7" fill="#4c97d9" fill-rule="evenodd" stroke="none"/>
    <path d="M92.45 329.7 Q92.65 333.35 91.15 337.65 30.25 341.65 3.55 336.4 2.25 332.5 2.55 329.3 L20.35 331.1 29.0 331.7 30.7 331.8 31.15 331.8 Q54.15 332.9 92.45 329.7 M-79.65 331.95 L-80.25 339.9 Q-140.0 343.0 -153.1 339.9 -154.7 335.65 -154.1 331.95 -135.25 333.4 -107.9 333.0 L-104.9 332.95 -104.6 332.95 -79.65 331.95 M15.8 -127.25 L15.85 -127.35 15.95 -126.3 15.85 -127.2 15.8 -127.25 M0.45 -118.25 L4.0 -118.8 5.7 -119.25 Q7.55 -119.75 9.1 -120.5 22.5 -80.15 25.25 -37.1 28.1 8.2 24.6 53.25 L24.3 56.7 Q6.2 65.9 -10.35 66.6 L-28.7 67.4 Q-29.5 62.85 -29.6 56.05 -28.1 57.35 -22.5 59.25 -19.85 60.15 -10.9 58.95 12.35 57.7 19.5 53.8 L19.35 53.65 Q2.1 54.7 -16.6 54.25 -23.85 54.1 -29.55 50.8 L-29.6 53.55 Q-29.55 33.55 -24.45 -3.75 -21.7 -17.3 -20.55 -30.05 L-20.4 -31.35 Q-19.8 -38.55 -19.7 -45.5 -19.5 -55.95 -20.45 -65.85 L-20.6 -67.2 -20.8 -69.2 -20.85 -69.6 -21.05 -71.25 -21.3 -73.1 -22.9 -82.3 -23.1 -83.3 -22.85 -83.55 -22.8 -83.85 Q-22.25 -87.1 -22.2 -89.9 -22.1 -97.4 -24.5 -105.85 L-26.25 -111.2 -25.95 -110.4 Q-11.85 -102.1 7.65 -109.35 L7.65 -109.4 7.65 -110.1 7.55 -110.45 7.45 -110.8 0.1 -110.25 Q-7.0 -109.4 -15.35 -111.5 -23.75 -113.65 -29.15 -118.3 -31.05 -122.5 -33.45 -126.85 -22.3 -116.45 -1.85 -118.05 L0.45 -118.25 M21.65 67.85 L22.45 67.55 22.6 66.9 22.4 67.7 21.65 67.85 M-22.15 -91.05 L-18.6 -61.65 Q-16.0 -41.95 -5.85 -16.95 3.1 5.05 12.6 12.5 6.35 6.15 -1.8 -20.9 -13.05 -58.45 -22.15 -91.05" fill="#1b2734" fill-rule="evenodd" stroke="none"/>
    <path d="M63.45 82.15 L67.65 139.1 Q73.9 188.05 67.25 243.75 L67.25 277.2 Q70.0 289.15 70.0 298.15 L69.95 300.95 Q34.3 299.3 6.95 306.25 5.5 291.15 7.8 261.75 10.05 232.35 12.75 217.35 15.45 202.3 21.45 202.85 27.45 203.35 21.85 198.85 16.2 194.35 13.55 180.8 10.85 167.2 8.7 147.3 6.5 127.4 5.15 109.3 4.25 97.55 4.8 83.85 -0.25 88.15 -2.4 86.5 -4.45 86.5 -4.85 88.3 L-5.2 89.7 -5.55 86.3 -15.85 88.75 -17.15 92.2 -19.7 89.7 -20.9 88.85 Q-21.6 88.95 -22.0 89.55 L-22.5 90.35 -24.35 90.75 -22.5 90.35 Q-29.5 100.65 -34.1 117.4 -38.8 134.15 -44.55 161.2 -50.35 188.25 -55.9 196.5 -61.4 204.75 -66.55 208.65 -61.6 206.2 -61.4 209.75 -58.0 262.4 -74.2 313.25 -90.15 303.25 -110.25 299.4 -130.4 295.55 -137.15 299.15 -143.95 302.75 -144.35 302.8 L-143.9 300.15 Q-141.25 286.1 -130.25 254.85 -114.95 211.25 -108.2 170.35 -98.3 110.25 -88.85 79.85 L-87.95 77.0 -85.35 77.25 -49.1 79.45 Q-13.15 81.7 20.45 72.5 19.1 79.5 16.95 86.35 L40.05 88.2 Q52.2 88.6 63.45 82.15 M-84.05 65.9 L-83.9 65.45 -81.85 66.1 -84.05 65.9 M-15.85 88.75 L-19.7 89.7 -15.85 88.75 M-5.55 86.3 L4.8 83.85 -5.55 86.3" fill="#283e5d" fill-rule="evenodd" stroke="none"/>
    <path d="M-92.25 -103.45 L-92.3 -103.45 -91.65 -104.4 -92.25 -103.45 M-20.55 -30.05 Q-21.7 -17.3 -24.45 -3.75 -22.8 -16.0 -20.55 -30.05" fill="#cccccc" fill-rule="evenodd" stroke="none"/>
    <path d="M45.65 -222.95 L46.35 -221.2 49.35 -208.1 49.35 -207.85 49.4 -207.35 48.95 -203.85 Q47.85 -197.15 45.65 -190.8 43.95 -185.85 41.6 -181.15 L39.45 -177.0 39.3 -176.8 36.85 -173.1 Q36.4 -175.95 38.2 -177.75 40.0 -179.55 37.15 -190.35 L32.9 -190.35 Q31.7 -191.15 28.55 -190.85 L27.75 -190.65 27.1 -190.3 Q-4.7 -189.9 -20.6 -185.55 -38.95 -180.6 -45.35 -181.55 -47.55 -181.85 -48.1 -183.95 -59.7 -180.35 -61.25 -188.95 -62.05 -193.25 -57.35 -194.1 L-38.5 -197.3 Q-38.6 -198.55 -38.15 -199.65 -37.1 -202.45 -34.1 -203.25 -41.6 -201.5 -52.7 -205.6 -56.2 -206.85 -53.95 -209.75 -49.6 -215.4 -41.35 -215.95 L15.9 -220.4 45.65 -222.95 46.35 -221.2 45.65 -222.95 M97.4 -40.6 Q98.2 -38.85 98.3 -35.9 95.15 -36.8 84.65 -32.35 68.2 -22.05 57.75 3.9 L57.15 1.5 56.7 -0.4 56.6 -0.9 62.2 -29.75 62.45 -29.8 Q66.1 -30.1 69.2 -31.2 85.0 -37.7 97.4 -40.6 M-38.45 -153.4 L-39.95 -159.3 Q-40.85 -162.35 -41.7 -164.3 L-41.55 -164.25 Q-35.0 -159.6 -26.75 -156.35 L-25.4 -155.85 Q-20.05 -151.45 0.95 -150.15 L2.55 -150.0 2.75 -150.0 3.65 -149.9 3.8 -149.9 4.25 -149.9 6.15 -149.75 4.25 -149.9 3.8 -149.9 3.65 -149.9 2.75 -150.0 2.55 -150.0 0.95 -150.15 Q-20.05 -151.45 -25.4 -155.85 L-26.75 -156.35 Q-35.15 -163.1 -41.35 -172.55 -42.05 -173.65 -40.7 -174.75 -39.3 -175.9 -37.7 -175.9 -21.4 -159.65 -8.35 -154.9 4.65 -150.15 10.95 -150.5 L8.65 -149.65 6.15 -149.75 6.15 -147.25 Q13.5 -143.25 15.15 -139.25 L15.4 -133.9 15.85 -127.35 15.8 -127.25 15.8 -127.2 15.65 -126.85 15.6 -126.75 15.45 -126.45 15.2 -125.95 15.05 -125.7 14.85 -125.35 14.75 -125.25 14.6 -125.0 14.45 -124.8 14.35 -124.65 14.1 -124.3 13.9 -124.1 13.8 -124.0 13.65 -123.8 13.5 -123.6 13.35 -123.45 Q11.6 -121.7 9.1 -120.5 7.55 -119.75 5.7 -119.25 L4.0 -118.8 0.45 -118.25 Q5.4 -124.65 7.25 -132.25 L7.25 -132.3 7.4 -133.1 Q-19.2 -135.4 -26.2 -140.8 -33.2 -146.2 -34.15 -148.3 -35.0 -150.25 -34.8 -152.25 L-38.4 -153.25 -38.45 -153.4 M6.15 -141.9 L6.15 -147.25 6.15 -141.9 M7.25 -132.3 L15.4 -133.9 7.25 -132.3" fill="#e0bcaa" fill-rule="evenodd" stroke="none"/>
    <path d="M32.9 -190.35 Q34.35 -189.35 32.95 -186.7 32.25 -185.4 30.75 -185.5 28.4 -185.65 26.9 -187.2 25.05 -189.1 27.1 -190.3 L27.75 -190.65 28.55 -190.85 Q31.7 -191.15 32.9 -190.35" fill="#fffce9" fill-rule="evenodd" stroke="none"/>
    <path d="M63.25 79.95 L63.45 82.15 Q52.2 88.6 40.05 88.2 L16.95 86.35 Q19.1 79.5 20.45 72.5 -13.15 81.7 -49.1 79.45 L-85.35 77.25 -87.95 77.0 -87.35 75.1 -85.45 69.85 -85.4 69.6 -85.35 69.65 -84.05 65.9 -81.85 66.1 Q-71.4 69.5 -59.8 75.25 -49.55 79.3 -40.75 79.45 -32.15 79.6 -24.95 76.0 -27.5 74.3 -28.6 68.0 1.7 71.6 21.65 67.85 L22.4 67.7 27.6 66.5 28.3 66.3 27.45 70.45 26.8 73.4 25.0 80.85 Q43.9 84.6 63.25 79.95 M69.95 300.95 Q69.75 304.15 69.2 307.0 L66.35 306.75 65.4 306.7 Q46.2 305.45 29.95 312.85 27.9 313.75 25.9 314.85 L25.55 315.05 24.1 315.85 23.1 316.4 Q13.2 322.6 4.2 324.4 -2.25 325.65 -8.25 324.6 -13.15 306.95 -9.25 282.8 -7.65 272.85 -4.55 261.75 L5.55 191.95 -5.2 89.7 -4.85 88.3 Q-4.45 86.5 -2.4 86.5 -0.25 88.15 4.8 83.85 4.25 97.55 5.15 109.3 6.5 127.4 8.7 147.3 10.85 167.2 13.55 180.8 16.2 194.35 21.85 198.85 27.45 203.35 21.45 202.85 15.45 202.3 12.75 217.35 10.05 232.35 7.8 261.75 5.5 291.15 6.95 306.25 34.3 299.3 69.95 300.95 M-17.15 92.2 Q-38.15 148.0 -53.55 233.1 -55.8 295.3 -69.55 326.15 -73.2 332.4 -79.65 331.95 L-78.6 318.45 Q-84.25 315.3 -93.05 312.1 -109.8 306.05 -135.55 307.7 L-135.85 308.0 -140.7 312.55 -141.3 313.05 -141.95 313.75 -142.05 313.85 -142.15 313.95 Q-144.6 311.75 -144.7 308.5 -144.9 306.4 -144.35 302.8 -143.95 302.75 -137.15 299.15 -130.4 295.55 -110.25 299.4 -90.15 303.25 -74.2 313.25 -58.0 262.4 -61.4 209.75 -61.6 206.2 -66.55 208.65 -61.4 204.75 -55.9 196.5 -50.35 188.25 -44.55 161.2 -38.8 134.15 -34.1 117.4 -29.5 100.65 -22.5 90.35 L-22.0 89.55 Q-21.6 88.95 -20.9 88.85 L-19.7 89.7 -22.5 90.35 -19.7 89.7 -17.15 92.2 M-87.35 75.1 L-87.95 77.0 -87.35 75.1 M-78.6 318.45 Q-71.7 322.35 -69.55 326.15 -71.7 322.35 -78.6 318.45 M-144.7 308.5 L-135.55 307.7 -144.7 308.5" fill="#182538" fill-rule="evenodd" stroke="none"/>
    <path d="M16.8 -153.4 L17.05 -153.3 17.2 -153.25 18.9 -152.5 19.35 -152.3 Q22.55 -145.1 22.5 -129.5 22.4 -113.9 24.35 -103.35 26.3 -92.8 26.25 -90.4 L26.8 -92.5 Q30.7 -105.25 43.1 -115.45 L55.05 -125.8 64.95 -119.05 Q62.8 -118.9 58.8 -111.0 53.35 -100.3 56.0 -70.65 58.65 -40.95 61.7 -29.7 L60.95 -29.65 56.2 -29.7 55.9 -29.75 55.2 -29.8 54.95 -29.85 54.45 -34.8 Q52.1 -55.0 49.25 -67.35 49.0 -75.55 49.05 -83.95 52.55 -104.05 55.3 -109.65 58.05 -115.25 59.8 -116.6 58.05 -115.25 55.3 -109.65 52.55 -104.05 49.05 -83.95 49.0 -75.55 49.25 -67.35 49.5 -56.25 50.25 -45.5 L50.75 -39.3 50.8 -39.1 50.85 -38.45 50.8 -38.55 49.0 -47.5 Q46.0 -62.8 46.8 -78.75 47.95 -100.8 57.25 -118.95 39.4 -107.95 33.45 -88.8 30.9 -80.5 27.35 -73.3 L27.25 -74.05 25.5 -85.7 25.4 -86.15 25.05 -86.65 24.7 -87.2 15.95 -126.3 15.85 -127.35 15.4 -133.9 15.15 -139.25 Q13.5 -143.25 6.15 -147.25 L6.15 -149.75 8.65 -149.65 10.95 -150.5 Q13.9 -151.7 16.8 -153.4 M32.7 -141.5 L32.95 -141.25 34.15 -140.0 34.35 -139.75 34.8 -139.3 37.4 -138.8 38.0 -138.65 Q37.55 -135.95 36.65 -134.15 35.75 -132.4 35.5 -132.85 L34.0 -137.0 Q32.75 -140.7 32.7 -141.5 M75.5 28.75 L73.55 32.35 73.25 32.75 72.2 34.15 71.3 35.2 Q69.35 37.2 67.05 38.3 L66.75 37.35 64.2 28.6 66.75 37.35 67.05 38.3 Q58.65 31.45 53.3 22.25 52.95 21.7 53.65 21.2 54.3 20.7 55.0 20.65 59.7 24.35 64.2 28.6 L63.95 27.85 63.95 27.8 64.25 26.55 63.25 25.25 60.65 15.65 Q69.65 20.7 68.7 30.85 70.8 33.0 72.7 32.85 73.3 30.65 72.05 28.4 70.5 25.65 70.95 23.15 71.05 22.6 71.7 22.6 74.7 25.15 75.5 28.75 M66.35 306.75 L67.35 307.4 68.0 307.8 67.95 307.8 67.35 307.4 67.95 307.8 Q52.55 307.35 43.0 312.55 33.45 317.75 32.4 323.35 31.35 328.9 31.15 331.8 L30.7 331.8 29.0 331.7 20.35 331.1 2.55 329.3 Q2.8 326.6 4.2 324.4 13.2 322.6 23.1 316.4 L24.1 315.85 25.55 315.05 25.9 314.85 Q27.9 313.75 29.95 312.85 46.2 305.45 65.4 306.7 L66.35 306.75 M-86.95 -110.65 L-87.0 -110.65 -86.2 -111.6 -83.6 -114.45 -83.0 -115.1 -82.95 -115.15 -82.8 -115.35 -82.75 -115.4 -79.9 -115.4 Q-44.05 -105.85 -32.65 -90.55 -27.05 -84.7 -24.6 -83.5 -29.05 -100.4 -36.85 -116.1 -39.9 -122.2 -39.25 -128.6 -38.95 -131.35 -36.2 -131.6 L-33.45 -126.85 Q-31.05 -122.5 -29.15 -118.3 L-27.65 -114.9 -27.45 -114.35 -27.3 -114.0 -26.55 -112.0 -26.25 -111.2 -24.5 -105.85 Q-22.1 -97.4 -22.2 -89.9 -22.25 -87.1 -22.8 -83.85 L-22.85 -83.55 -23.1 -83.3 -22.9 -82.3 -21.3 -73.1 Q-31.5 -79.25 -38.8 -89.0 -45.65 -98.1 -56.75 -101.4 L-72.15 -106.15 -86.95 -110.65 -86.2 -111.6 -86.95 -110.65 M-56.85 -143.55 L-54.85 -145.35 -54.15 -145.95 -51.4 -147.9 -50.95 -148.2 Q-45.5 -143.5 -54.9 -142.35 -56.35 -142.15 -56.85 -143.55 M26.25 -90.4 L26.15 -90.0 25.6 -87.4 25.5 -86.9 25.4 -86.15 25.5 -86.9 25.6 -87.4 26.15 -90.0 26.25 -90.4 M50.8 -39.1 L50.8 -38.55 50.8 -39.1 M53.45 42.05 Q61.75 44.95 66.4 52.9 68.05 55.75 68.0 58.75 67.95 60.85 65.9 60.05 60.75 58.15 57.0 53.95 52.6 49.0 52.1 43.2 52.0 42.35 53.0 42.15 L53.45 42.05 M-24.6 -83.5 L-23.1 -83.3 -24.6 -83.5 M-37.2 12.9 L-40.2 17.85 Q-43.25 22.5 -48.45 27.9 -53.65 33.25 -62.5 38.45 -66.85 40.95 -71.55 42.85 -76.8 44.95 -82.2 46.7 -83.55 47.15 -83.65 45.7 -83.95 42.6 -80.55 41.0 L-71.0 35.8 Q-53.5 24.95 -37.2 12.9 M-80.65 44.9 Q-57.6 37.85 -40.9 16.7 L-39.75 15.15 -40.9 16.7 Q-57.6 37.85 -80.65 44.9 M-79.65 331.95 L-104.6 332.95 -104.9 332.95 -107.9 333.0 Q-106.65 314.15 -123.0 312.5 -138.5 310.85 -140.7 312.55 L-135.85 308.0 -135.75 307.9 -135.55 307.7 Q-109.8 306.05 -93.05 312.1 -84.25 315.3 -78.6 318.45 L-79.65 331.95" fill="#3572b4" fill-rule="evenodd" stroke="none"/>
    <path d="M9.1 -120.5 Q11.6 -121.7 13.35 -123.45 L13.5 -123.6 13.65 -123.8 13.8 -124.0 13.9 -124.1 14.1 -124.3 14.35 -124.65 14.45 -124.8 14.6 -125.0 14.75 -125.25 14.85 -125.35 15.05 -125.7 15.2 -125.95 15.45 -126.45 15.6 -126.75 15.65 -126.85 15.8 -127.2 15.8 -127.25 15.85 -127.2 15.95 -126.3 24.7 -87.2 25.05 -86.65 25.4 -86.15 25.5 -85.7 27.25 -74.05 27.35 -73.3 Q29.45 -58.9 30.6 -45.5 32.0 -29.55 32.15 -15.1 33.9 31.2 28.3 66.3 L27.6 66.5 22.4 67.7 22.6 66.9 22.45 67.55 21.65 67.85 Q1.7 71.6 -28.6 68.0 L-28.7 67.4 -10.35 66.6 Q6.2 65.9 24.3 56.7 L24.6 53.25 Q28.1 8.2 25.25 -37.1 22.5 -80.15 9.1 -120.5 M32.1 -5.05 L32.15 -15.1 32.1 -5.05 M-29.15 -118.3 Q-23.75 -113.65 -15.35 -111.5 -7.0 -109.4 0.1 -110.25 L7.45 -110.8 7.55 -110.45 7.65 -110.1 7.65 -109.4 7.65 -109.35 Q-11.85 -102.1 -25.95 -110.4 L-26.25 -111.2 -26.55 -112.0 -27.3 -114.0 -27.45 -114.35 -27.65 -114.9 -29.15 -118.3 M-29.6 53.55 L-29.55 50.8 Q-23.85 54.1 -16.6 54.25 2.1 54.7 19.35 53.65 L19.5 53.8 Q12.35 57.7 -10.9 58.95 -19.85 60.15 -22.5 59.25 -28.1 57.35 -29.6 56.05 L-29.6 53.55 -29.6 56.05 Q-31.15 54.7 -29.6 53.55 M-22.15 -91.05 Q-13.05 -58.45 -1.8 -20.9 6.35 6.15 12.6 12.5 3.1 5.05 -5.85 -16.95 -16.0 -41.95 -18.6 -61.65 L-22.15 -91.05" fill="#070a0e" fill-rule="evenodd" stroke="none"/>
    <path d="M46.35 -221.2 L49.35 -208.1 49.35 -207.85 49.4 -207.35 48.95 -203.85 Q47.85 -197.15 45.65 -190.8 43.95 -185.85 41.6 -181.15 L39.45 -177.0 39.3 -176.8 36.85 -173.1 Q30.0 -163.35 22.5 -157.35 L20.75 -156.0 16.8 -153.4 17.05 -153.3 17.2 -153.25 18.9 -152.5 20.0 -151.95 Q21.9 -150.75 22.1 -150.65 25.5 -148.55 30.45 -143.8 L32.7 -141.5 M32.95 -141.25 L34.15 -140.0 34.35 -139.75 34.8 -139.3 37.4 -138.8 38.0 -138.65 Q49.2 -136.15 57.05 -128.5 57.7 -128.35 55.05 -125.8 L64.95 -119.05 65.8 -118.45 65.9 -118.35 M66.2 -118.15 L67.35 -117.4 70.75 -113.15 Q77.8 -103.7 82.4 -91.3 L83.5 -88.4 Q93.55 -66.1 107.75 -54.9 106.05 -43.65 97.4 -40.6 98.2 -38.85 98.3 -35.9 L98.05 -30.6 97.9 -29.5 97.8 -28.8 97.65 -28.1 97.0 -25.25 96.65 -24.05 Q89.4 0.4 77.4 16.9 78.05 18.5 78.15 20.4 L76.75 25.45 75.5 28.75 73.55 32.35 73.25 32.75 72.2 34.15 71.3 35.2 Q69.35 37.2 67.05 38.3 72.4 55.6 77.75 67.2 L73.85 72.8 Q70.35 77.8 63.25 79.9 L63.25 79.95 63.45 82.15 67.65 139.1 Q73.9 188.05 67.25 243.75 L67.25 277.2 Q70.0 289.15 70.0 298.15 L69.95 300.95 Q69.75 304.15 69.2 307.0 L66.35 306.75 67.35 307.4 67.95 307.8 88.65 321.05 Q92.15 324.75 92.45 329.7 92.65 333.35 91.15 337.65 30.25 341.65 3.55 336.4 2.25 332.5 2.55 329.3 2.8 326.6 4.2 324.4 -2.25 325.65 -8.25 324.6 -13.15 306.95 -9.25 282.8 -7.65 272.85 -4.55 261.75 L5.55 191.95 -5.2 89.7 -5.55 86.3 -15.85 88.75 -17.15 92.2 Q-38.15 148.0 -53.55 233.1 -55.8 295.3 -69.55 326.15 -73.2 332.4 -79.65 331.95 L-80.25 339.9 Q-140.0 343.0 -153.1 339.9 -154.7 335.65 -154.1 331.95 -153.85 330.2 -153.1 328.55 -148.7 320.8 -142.15 313.95 -144.6 311.75 -144.7 308.5 -144.9 306.4 -144.35 302.8 L-143.9 300.15 Q-141.25 286.1 -130.25 254.85 -114.95 211.25 -108.2 170.35 -98.3 110.25 -88.85 79.85 L-87.95 77.0 -87.35 75.1 -85.45 69.85 -85.4 69.6 -85.35 69.65 -84.05 65.9 -83.9 65.45 Q-94.95 62.0 -104.65 61.15 -98.85 41.65 -87.95 25.15 -76.55 7.95 -68.7 -13.3 L-67.7 -15.45 Q-65.5 -20.3 -64.05 -25.45 L-63.8 -26.45 -61.45 -42.3 -61.45 -42.45 -61.45 -42.7 -61.4 -43.2 -61.4 -43.75 -61.4 -43.9 -61.4 -44.15 -61.35 -45.5 Q-61.35 -48.15 -61.5 -50.8 L-62.0 -57.1 Q-89.7 -75.0 -95.65 -95.45 -95.0 -99.05 -92.25 -103.45 L-91.65 -104.4 -91.45 -104.75 -86.95 -110.65 -86.2 -111.6 -83.6 -114.45 -83.0 -115.1 -82.95 -115.15 -82.8 -115.35 -82.75 -115.4 -85.55 -115.4 Q-82.15 -125.25 -68.5 -132.15 L-68.45 -132.15 -67.6 -132.6 -64.8 -133.9 -64.4 -134.1 -63.75 -135.2 M-63.5 -135.55 Q-61.65 -138.65 -58.7 -141.7 L-56.85 -143.55 -54.85 -145.35 -54.15 -145.95 -51.4 -147.9 -50.8 -148.35 -50.3 -148.65 Q-45.15 -151.75 -38.45 -153.4 L-39.95 -159.3 Q-40.85 -162.35 -41.7 -164.3 L-41.75 -164.4 Q-50.9 -170.9 -57.0 -180.25 L-57.5 -180.95 -59.5 -184.1 Q-63.55 -191.25 -63.05 -196.8 M-63.0 -196.8 L-59.7 -230.1 Q-12.95 -239.25 35.6 -237.85 42.15 -231.15 45.65 -222.95 L46.35 -221.2 M-26.75 -156.35 L-25.4 -155.85 Q-20.05 -151.45 0.95 -150.15 L2.55 -150.0 2.75 -150.0 3.65 -149.9 3.8 -149.9 4.25 -149.9 6.15 -149.75 8.65 -149.65 10.95 -150.5 Q13.9 -151.7 16.8 -153.4 M-26.75 -156.35 Q-35.0 -159.6 -41.55 -164.25 L-41.75 -164.4 M26.25 -90.4 L26.8 -92.5 Q30.7 -105.25 43.1 -115.45 L55.05 -125.8 M6.15 -147.25 L6.15 -141.9 M7.25 -132.3 L1.95 -131.25 -0.9 -127.0 M-38.4 -153.25 Q-38.05 -150.7 -38.0 -148.05 L-38.0 -147.85 -37.95 -147.5 -38.15 -142.9 M9.1 -120.5 Q11.6 -121.7 13.35 -123.45 L13.5 -123.6 13.65 -123.8 13.8 -124.0 13.9 -124.1 14.1 -124.3 14.35 -124.65 14.45 -124.8 14.6 -125.0 14.75 -125.25 14.85 -125.35 15.05 -125.7 15.2 -125.95 15.45 -126.45 15.6 -126.75 15.65 -126.85 15.8 -127.2 15.8 -127.25 15.85 -127.35 15.4 -133.9 7.25 -132.3 M15.95 -126.3 L15.85 -127.35 M6.15 -149.75 L6.15 -147.25 Q13.5 -143.25 15.15 -139.25 L15.4 -133.9 M0.45 -118.25 L4.0 -118.8 5.7 -119.25 Q7.55 -119.75 9.1 -120.5 M-28.7 67.4 L-28.6 68.0 Q1.7 71.6 21.65 67.85 L22.4 67.7 27.6 66.5 28.3 66.3 Q33.9 31.2 32.15 -15.1 L32.1 -5.05 M-26.25 -111.2 L-24.5 -105.85 Q-22.1 -97.4 -22.2 -89.9 -22.25 -87.1 -22.8 -83.85 L-22.85 -83.55 -23.1 -83.3 -22.9 -82.3 -21.3 -73.1 -21.05 -71.25 -20.85 -69.6 -20.8 -69.2 -20.6 -67.2 -20.45 -65.85 Q-19.5 -55.95 -19.7 -45.5 -19.8 -38.55 -20.4 -31.35 L-20.55 -30.05 Q-21.7 -17.3 -24.45 -3.75 -29.55 33.55 -29.6 53.55 L-29.6 56.05 Q-29.5 62.85 -28.7 67.4 M59.8 -116.6 Q58.05 -115.25 55.3 -109.65 52.55 -104.05 49.05 -83.95 49.0 -75.55 49.25 -67.35 52.1 -55.0 54.45 -34.8 L54.95 -29.85 55.2 -29.8 55.9 -29.75 56.2 -29.7 60.95 -29.65 62.2 -29.75 56.6 -0.9 56.7 -0.4 57.15 1.5 57.75 3.9 58.75 8.05 Q66.25 8.6 71.7 11.15 75.95 13.15 77.4 16.9 M15.95 -126.3 L24.7 -87.2 25.05 -86.65 25.4 -86.15 25.5 -86.9 25.6 -87.4 26.15 -90.0 26.25 -90.4 M25.4 -86.15 L25.5 -85.7 27.25 -74.05 M50.8 -38.55 L50.8 -39.1 50.75 -39.3 50.25 -45.5 Q49.5 -56.25 49.25 -67.35 M27.35 -73.3 Q29.45 -58.9 30.6 -45.5 32.0 -29.55 32.15 -15.1 M97.4 -40.6 Q85.0 -37.7 69.2 -31.2 66.1 -30.1 62.45 -29.8 L62.2 -29.75 M50.8 -38.55 L51.5 -32.0 51.85 -27.8 Q51.85 -26.15 52.4 -21.75 L53.4 -14.75 56.6 -0.9 M58.75 8.05 L60.65 15.65 63.25 25.25 63.95 27.85 64.2 28.6 66.75 37.35 67.05 38.3 M28.3 66.3 L27.45 70.45 26.8 73.4 25.0 80.85 Q43.9 84.6 63.25 79.95 M31.15 331.8 Q54.15 332.9 92.45 329.7 M4.2 324.4 Q13.2 322.6 23.1 316.4 L24.1 315.85 25.55 315.05 25.9 314.85 Q27.9 313.75 29.95 312.85 46.2 305.45 65.4 306.7 L66.35 306.75 M2.55 329.3 L20.35 331.1 29.0 331.7 30.7 331.8 M-38.45 -153.4 L-38.4 -153.25 M-38.0 -147.85 Q-42.3 -144.6 -41.45 -140.85 L-41.4 -140.65 -40.55 -138.7 -40.5 -138.6 -37.1 -133.0 -17.65 -131.45 -13.9 -126.85 M-36.2 -131.6 L-37.1 -133.0 M-36.2 -131.6 L-33.45 -126.85 Q-22.3 -116.45 -1.85 -118.05 L0.45 -118.25 M-29.15 -118.3 L-27.65 -114.9 -27.45 -114.35 -27.3 -114.0 -26.55 -112.0 -26.25 -111.2 M-33.45 -126.85 Q-31.05 -122.5 -29.15 -118.3 M-23.1 -83.3 L-24.6 -83.5 Q-27.05 -84.7 -32.65 -90.55 -44.05 -105.85 -79.9 -115.4 L-82.75 -115.4 M-62.0 -57.1 L-62.15 -58.05 M-24.45 -3.75 Q-22.8 -16.0 -20.55 -30.05 M-39.75 15.15 L-40.9 16.7 Q-57.6 37.85 -80.65 44.9 M-81.85 66.1 Q-71.4 69.5 -59.8 75.25 -49.55 79.3 -40.75 79.45 -32.15 79.6 -24.95 76.0 -27.5 74.3 -28.6 68.0 M-19.7 89.7 L-15.85 88.75 M-24.35 90.75 L-22.5 90.35 -19.7 89.7 M4.8 83.85 L-5.55 86.3 M-83.9 65.45 L-81.85 66.1 M-107.9 333.0 L-104.9 332.95 -104.6 332.95 -79.65 331.95 -78.6 318.45 Q-84.25 315.3 -93.05 312.1 -109.8 306.05 -135.55 307.7 L-135.75 307.9 -135.85 308.0 -140.7 312.55 -141.3 313.05 -141.95 313.75 -142.05 313.85 -142.15 313.95 M-107.9 333.0 Q-135.25 333.4 -154.1 331.95 M-135.85 308.0 L-135.55 307.7 -144.7 308.5 M-69.55 326.15 Q-71.7 322.35 -78.6 318.45" fill="none" stroke="#1a5283" stroke-linecap="round" stroke-linejoin="round" stroke-width="2.0"/>
    <path d="M51.4 -232.5 L53.8 -227.6 Q58.2 -217.5 57.8 -208.15 58.2 -217.5 53.8 -227.6 L51.4 -232.5 M45.1 -163.85 Q40.35 -159.25 34.4 -154.75 L37.85 -164.6 Q34.7 -156.55 25.75 -150.85 L23.05 -149.9 26.45 -160.7 Q36.65 -169.55 40.9 -179.85 L38.7 -179.1 38.1 -178.95 38.9 -180.15 Q42.4 -186.05 44.55 -194.25 45.75 -198.9 46.45 -204.25 L46.25 -206.1 46.15 -206.6 34.05 -230.7 -35.2 -224.2 Q-37.45 -218.7 -40.55 -214.1 L-43.0 -210.8 -43.6 -210.05 -34.55 -161.95 -38.35 -164.3 Q-37.4 -162.4 -36.4 -159.3 L-38.3 -155.4 -52.85 -171.45 -55.85 -180.3 Q-61.15 -188.2 -61.2 -196.8 L-61.25 -196.8 -65.7 -222.95 -57.05 -235.35 -47.9 -235.45 -47.85 -235.45 53.75 -236.95 84.2 -222.75 Q76.25 -211.45 62.2 -212.45 L62.15 -212.45 62.7 -209.5 62.8 -209.3 57.8 -208.15 55.2 -207.6 50.35 -206.9 49.9 -196.55 49.75 -193.4 Q49.4 -184.5 47.7 -174.65 46.7 -169.05 45.1 -163.85 M46.15 -206.6 Q48.6 -200.9 49.9 -196.55 48.6 -200.9 46.15 -206.6 M-55.85 -180.3 Q-50.15 -171.85 -38.35 -164.3 L-38.4 -164.4 Q-47.9 -170.9 -54.45 -180.25 L-54.95 -180.95 -57.1 -184.1 -55.85 -180.3 -57.1 -184.1 -54.95 -180.95 -54.45 -180.25 Q-47.9 -170.9 -38.4 -164.4 L-38.35 -164.3 Q-50.15 -171.85 -55.85 -180.3 M-43.6 -210.05 L-43.65 -210.05 -44.4 -209.15 -45.2 -208.25 -59.5 -197.6 -59.95 -197.4 -61.2 -196.8 -59.95 -197.4 -59.5 -197.6 -45.2 -208.25 -44.4 -209.15 -43.65 -210.05 -43.6 -210.05 M47.2 -183.25 L44.15 -181.15 42.2 -177.0 42.2 -177.05 42.15 -176.95 37.85 -164.6 42.15 -176.95 42.2 -177.05 42.2 -177.0 44.15 -181.15 40.9 -179.85 44.15 -181.15 47.2 -183.25 M42.2 -177.0 L42.15 -176.95 42.2 -177.0" fill="#091425" fill-rule="evenodd" stroke="none"/>
    <path d="M62.8 -209.3 Q66.9 -185.1 45.1 -163.85 46.7 -169.05 47.7 -174.65 49.4 -184.5 49.75 -193.4 L49.9 -196.55 50.35 -206.9 55.2 -207.6 57.8 -208.15 Q57.3 -198.1 51.25 -188.85 51.2 -191.9 49.9 -196.55 51.2 -191.9 51.25 -188.85 57.3 -198.1 57.8 -208.15 L62.8 -209.3" fill="#132a4c" fill-rule="evenodd" stroke="none"/>
    <path d="M57.8 -208.15 Q58.2 -217.5 53.8 -227.6 L51.4 -232.5 M45.1 -163.85 Q40.35 -159.25 34.4 -154.75 L37.85 -164.6 Q34.7 -156.55 25.75 -150.85 L23.05 -149.9 26.45 -160.7 Q36.65 -169.55 40.9 -179.85 L38.7 -179.1 38.1 -178.95 38.9 -180.15 Q42.4 -186.05 44.55 -194.25 45.75 -198.9 46.45 -204.25 L46.25 -206.1 46.15 -206.6 34.05 -230.7 -35.2 -224.2 Q-37.45 -218.7 -40.55 -214.1 L-43.0 -210.8 -43.6 -210.05 -34.55 -161.95 -38.35 -164.3 Q-37.4 -162.4 -36.4 -159.3 L-38.3 -155.4 -52.85 -171.45 -55.85 -180.3 Q-61.15 -188.2 -61.2 -196.8 L-61.25 -196.8 -65.7 -222.95 -57.05 -235.35 -47.9 -235.45 M-47.85 -235.45 L53.75 -236.95 84.2 -222.75 Q76.25 -211.45 62.2 -212.45 L62.15 -212.45 62.7 -209.5 M62.8 -209.3 Q66.9 -185.1 45.1 -163.85 M49.9 -196.55 Q48.6 -200.9 46.15 -206.6 M49.9 -196.55 Q51.2 -191.9 51.25 -188.85 57.3 -198.1 57.8 -208.15 M37.85 -164.6 L42.15 -176.95 42.2 -177.05 42.2 -177.0 44.15 -181.15 40.9 -179.85 M42.15 -176.95 L42.2 -177.0 M44.15 -181.15 L47.2 -183.25 M-61.2 -196.8 L-59.95 -197.4 -59.5 -197.6 -45.2 -208.25 -44.4 -209.15 -43.65 -210.05 -43.6 -210.05 M-55.85 -180.3 L-57.1 -184.1 -54.95 -180.95 -54.45 -180.25 Q-47.9 -170.9 -38.4 -164.4 L-38.35 -164.3 Q-50.15 -171.85 -55.85 -180.3" fill="none" stroke="#1a5283" stroke-linecap="round" stroke-linejoin="round" stroke-width="2.0"/>
  </g>
</svg>
