<?xml version="1.0" encoding="UTF-8" standalone="no"?>
<svg xmlns:xlink="http://www.w3.org/1999/xlink" height="204.7px" width="226.2px" xmlns="http://www.w3.org/2000/svg">
  <g transform="matrix(1.0, 0.0, 0.0, 1.0, 124.55, 338.7)">
    <path d="M32.45 -157.6 Q29.5 -157.65 26.2 -158.4 L12.0 -160.1 -0.1 -161.1 -2.1 -161.2 -16.5 -161.9 Q-28.9 -162.3 -42.65 -162.15 L-45.8 -162.7 -48.0 -163.2 Q-55.15 -165.55 -59.55 -178.95 -64.0 -192.35 -60.5 -210.5 -52.15 -207.85 -48.45 -207.45 -1.45 -202.1 46.25 -206.9 L52.95 -207.3 Q51.7 -181.75 44.9 -170.05 38.1 -158.4 33.45 -157.6 L32.45 -157.6 M-61.2 -234.65 Q-14.7 -226.65 16.75 -228.65 L54.1 -231.45 59.45 -232.2 56.2 -213.15 Q31.7 -207.4 -4.4 -208.9 -35.75 -210.7 -53.6 -214.85 -57.1 -216.15 -61.0 -218.7 -64.95 -221.3 -63.65 -225.5 -62.35 -229.75 -61.95 -233.65 L-61.2 -234.65" fill="#4c97d9" fill-rule="evenodd" stroke="none"/>
    <path d="M68.9 -228.6 Q63.95 -247.75 48.8 -258.95 47.65 -258.95 45.65 -260.5 48.75 -254.3 55.35 -237.85 44.25 -235.65 29.35 -234.9 L21.65 -251.05 Q20.3 -250.1 20.4 -247.95 20.85 -241.2 19.0 -234.55 10.05 -234.4 0.0 -234.65 L-17.15 -235.4 Q-18.45 -246.15 -17.9 -253.75 -23.25 -245.65 -27.9 -236.3 L-41.45 -237.95 Q-41.35 -242.6 -44.15 -264.15 -58.85 -251.4 -68.3 -233.25 -72.35 -225.45 -75.45 -217.2 -75.6 -222.5 -75.15 -226.4 -73.75 -239.25 -69.5 -248.05 L-72.45 -251.95 Q-68.55 -254.0 -64.85 -256.55 L-63.6 -257.4 -63.55 -257.45 Q-56.6 -262.75 -58.9 -267.05 -73.15 -261.6 -80.45 -259.85 -88.1 -258.1 -101.4 -257.9 -105.2 -260.75 -108.45 -265.35 -100.0 -261.25 -89.8 -265.95 L-93.55 -266.7 Q-87.3 -268.0 -81.5 -271.05 -85.8 -267.85 -89.8 -265.95 -85.8 -267.85 -81.5 -271.05 -79.3 -272.2 -77.2 -273.6 -71.7 -277.25 -71.0 -280.55 -70.4 -283.55 -73.7 -286.2 L-73.95 -286.3 -73.7 -286.25 -74.65 -286.95 -75.75 -286.7 Q-95.7 -292.1 -101.35 -315.1 -87.35 -301.25 -50.45 -308.55 -18.7 -316.75 5.65 -311.35 50.1 -302.95 68.85 -276.55 L69.35 -275.85 Q84.35 -252.1 98.05 -253.75 89.05 -242.85 78.75 -245.2 74.25 -246.3 69.5 -249.85 73.15 -242.25 73.35 -233.4 73.5 -226.9 71.85 -219.7 71.25 -222.85 69.85 -226.3 L68.9 -228.6 M61.75 -260.85 Q66.65 -255.75 69.5 -249.85 66.65 -255.75 61.75 -260.85 M-65.8 -285.2 L-73.7 -286.25 -65.8 -285.2 M80.2 -241.65 Q85.85 -229.25 97.35 -225.6 89.75 -218.5 82.15 -218.6 L79.95 -218.75 Q83.3 -209.1 87.85 -202.1 92.4 -195.0 98.2 -190.75 84.55 -188.8 75.9 -191.15 74.3 -191.6 72.9 -192.2 68.8 -193.9 66.1 -196.8 68.8 -193.9 72.9 -192.2 69.7 -176.15 60.35 -163.7 L59.9 -163.15 Q51.1 -151.75 37.0 -143.4 L40.9 -147.95 Q47.15 -155.55 51.95 -163.95 59.8 -177.75 64.75 -192.8 L66.1 -196.8 Q71.8 -213.75 78.5 -230.5 81.0 -236.8 80.2 -241.65 M-52.45 -164.7 Q-50.9 -156.9 -48.7 -151.05 -53.45 -158.75 -56.8 -166.95 -54.85 -165.7 -52.45 -164.7 M-45.15 -143.35 Q-43.65 -140.9 -42.0 -139.1 L-44.45 -139.85 -44.6 -140.65 Q-44.8 -142.05 -45.15 -143.35 M-120.4 -204.6 L-123.55 -206.75 Q-113.15 -209.15 -104.05 -215.1 -96.05 -220.35 -89.05 -228.4 L-91.55 -229.15 -87.7 -229.95 -89.05 -228.4 -87.7 -229.95 -84.0 -231.2 Q-76.7 -215.45 -72.15 -186.4 -70.8 -177.7 -69.7 -172.7 -83.65 -186.6 -83.15 -197.85 -80.9 -202.7 -80.0 -207.7 -87.75 -203.65 -91.6 -203.2 -106.75 -201.4 -120.4 -204.6 M-111.75 -246.45 Q-101.7 -244.2 -87.4 -253.2 -87.8 -248.35 -84.7 -241.65 -93.8 -235.2 -103.65 -239.55 -107.9 -241.45 -110.6 -245.05 L-111.75 -246.45 M76.05 -219.85 Q78.0 -219.1 79.95 -218.75 78.0 -219.1 76.05 -219.85 M-68.45 -283.3 L-71.0 -280.55 -68.45 -283.3 M-63.6 -257.4 Q-67.05 -253.1 -69.5 -248.05 -67.05 -253.1 -63.6 -257.4" fill="#132a4c" fill-rule="evenodd" stroke="none"/>
    <path d="M29.35 -234.9 Q44.25 -235.65 55.35 -237.85 L58.0 -238.4 58.9 -236.45 59.95 -233.8 60.25 -233.05 60.5 -232.3 59.45 -232.2 54.1 -231.45 16.75 -228.65 Q-14.7 -226.65 -61.2 -234.65 L-56.5 -240.35 -56.2 -240.7 -53.5 -240.1 -41.45 -237.95 -27.9 -236.3 -17.15 -235.4 0.0 -234.65 Q10.05 -234.4 19.0 -234.55 L29.35 -234.9" fill="#79c7ff" fill-rule="evenodd" stroke="none"/>
    <path d="M68.9 -228.6 L69.85 -226.3 61.35 -214.5 61.2 -209.6 Q60.2 -189.55 54.65 -174.1 47.6 -157.9 33.45 -157.6 38.1 -158.4 44.9 -170.05 51.7 -181.75 52.95 -207.3 L46.25 -206.9 Q-1.45 -202.1 -48.45 -207.45 -52.15 -207.85 -60.5 -210.5 -64.0 -192.35 -59.55 -178.95 -55.15 -165.55 -48.0 -163.2 L-52.45 -164.7 Q-54.85 -165.7 -56.8 -166.95 -63.3 -171.15 -65.8 -178.6 -70.65 -194.1 -71.85 -214.15 L-72.05 -218.1 -70.5 -220.9 Q-66.75 -227.45 -61.95 -233.65 -62.35 -229.75 -63.65 -225.5 -64.95 -221.3 -61.0 -218.7 -57.1 -216.15 -53.6 -214.85 -35.75 -210.7 -4.4 -208.9 31.7 -207.4 56.2 -213.15 L59.45 -232.2 60.5 -232.3 60.25 -233.05 59.95 -233.8 58.9 -236.45 62.0 -240.45 62.55 -239.7 62.75 -239.4 62.95 -239.1 68.3 -229.85 68.9 -228.55 68.9 -228.6 M73.35 -233.4 Q73.15 -242.25 69.5 -249.85 74.25 -246.3 78.75 -245.2 L73.35 -233.4 M61.35 -214.5 Q64.2 -221.95 60.25 -233.05 64.2 -221.95 61.35 -214.5 L56.2 -213.15 61.35 -214.5 M-84.7 -241.65 Q-87.8 -248.35 -87.4 -253.2 -81.8 -253.3 -75.4 -255.85 L-72.45 -251.95 -69.5 -248.05 Q-73.75 -239.25 -75.15 -226.4 L-79.9 -233.1 Q-82.95 -237.75 -84.7 -241.65 M-70.5 -220.9 Q-64.65 -217.45 -53.6 -214.85 -64.65 -217.45 -70.5 -220.9" fill="#3572b4" fill-rule="evenodd" stroke="none"/>
    <path d="M55.35 -237.85 Q48.75 -254.3 45.65 -260.5 47.65 -258.95 48.8 -258.95 63.95 -247.75 68.9 -228.6 L68.3 -229.85 68.9 -228.6 68.9 -228.55 68.3 -229.85 62.95 -239.1 62.75 -239.4 62.55 -239.7 62.0 -240.45 58.9 -236.45 58.0 -238.4 55.35 -237.85 M69.85 -226.3 Q71.25 -222.85 71.85 -219.7 73.5 -226.9 73.35 -233.4 L78.75 -245.2 Q79.4 -243.35 80.2 -241.65 81.0 -236.8 78.5 -230.5 71.8 -213.75 66.1 -196.8 L64.75 -192.8 Q59.8 -177.75 51.95 -163.95 47.15 -155.55 40.9 -147.95 L37.0 -143.4 Q29.1 -138.7 19.5 -135.0 26.0 -140.9 32.45 -157.6 L33.45 -157.6 Q47.6 -157.9 54.65 -174.1 60.2 -189.55 61.2 -209.6 L61.35 -214.5 69.85 -226.3 M-75.75 -286.7 L-74.65 -286.95 -73.7 -286.25 -73.95 -286.3 -73.7 -286.2 Q-70.4 -283.55 -71.0 -280.55 -71.7 -277.25 -77.2 -273.6 -79.3 -272.2 -81.5 -271.05 -87.3 -268.0 -93.55 -266.7 -96.0 -267.35 -98.0 -268.3 L-98.1 -268.35 Q-101.05 -269.75 -103.15 -271.85 L-103.3 -272.0 -103.4 -272.15 -103.55 -272.3 -103.65 -272.45 -105.45 -274.9 -105.5 -275.0 -105.55 -275.1 -105.6 -275.2 -105.65 -275.3 -105.75 -275.4 -105.9 -275.7 -105.95 -275.8 -106.0 -275.95 -106.05 -276.05 -106.1 -276.2 -106.15 -276.3 -106.2 -276.45 -106.35 -276.7 -106.4 -276.8 -106.45 -276.95 Q-94.75 -272.5 -75.35 -286.6 L-75.75 -286.7 M19.0 -234.55 Q20.85 -241.2 20.4 -247.95 20.3 -250.1 21.65 -251.05 L29.35 -234.9 19.0 -234.55 M52.35 -253.0 Q57.95 -246.35 62.0 -240.45 57.95 -246.35 52.35 -253.0 M82.15 -218.6 Q90.7 -210.9 100.65 -212.05 95.5 -203.9 87.85 -202.1 83.3 -209.1 79.95 -218.75 L82.15 -218.6 M75.9 -191.15 Q81.4 -163.3 46.9 -145.35 L59.9 -163.15 60.35 -163.7 Q69.7 -176.15 72.9 -192.2 74.3 -191.6 75.9 -191.15 M12.0 -160.1 Q10.4 -149.85 -2.65 -144.8 L-0.1 -161.1 12.0 -160.1 M-2.1 -161.2 Q-7.6 -151.6 -20.7 -148.1 -19.25 -149.75 -16.5 -161.9 L-2.1 -161.2 M-48.7 -151.05 L-48.7 -151.0 -48.55 -150.6 -45.45 -143.9 -45.3 -143.65 -45.3 -143.6 -45.15 -143.35 Q-44.8 -142.05 -44.6 -140.65 L-44.45 -139.85 -46.1 -140.4 -46.5 -140.55 -46.85 -140.7 -58.25 -146.25 -59.7 -147.2 Q-60.7 -147.35 -61.85 -148.75 -64.7 -150.95 -67.15 -153.45 L-64.5 -145.65 Q-87.05 -167.25 -90.1 -194.2 L-90.35 -196.8 Q-104.1 -194.0 -120.4 -204.6 -106.75 -201.4 -91.6 -203.2 -87.75 -203.65 -80.0 -207.7 -80.9 -202.7 -83.15 -197.85 -83.65 -186.6 -69.7 -172.7 -70.8 -177.7 -72.15 -186.4 -76.7 -215.45 -84.0 -231.2 L-87.7 -229.95 -91.55 -229.15 -92.25 -229.35 -91.55 -229.15 -89.05 -228.4 Q-96.05 -220.35 -104.05 -215.1 -111.9 -213.9 -120.3 -224.35 -108.6 -221.35 -92.25 -229.35 -108.5 -234.8 -113.3 -246.9 L-111.75 -246.45 -110.6 -245.05 Q-107.9 -241.45 -103.65 -239.55 -93.8 -235.2 -84.7 -241.65 -82.95 -237.75 -79.9 -233.1 L-75.15 -226.4 Q-75.6 -222.5 -75.45 -217.2 -72.35 -225.45 -68.3 -233.25 -58.85 -251.4 -44.15 -264.15 -41.35 -242.6 -41.45 -237.95 L-53.5 -240.1 -56.2 -240.7 -56.5 -240.35 -61.2 -234.65 -61.95 -233.65 Q-66.75 -227.45 -70.5 -220.9 L-72.05 -218.1 -75.15 -211.85 -75.45 -217.2 -75.15 -211.85 -72.05 -218.1 -71.85 -214.15 Q-70.65 -194.1 -65.8 -178.6 -63.3 -171.15 -56.8 -166.95 -53.45 -158.75 -48.7 -151.05 M-87.4 -253.2 Q-95.1 -253.15 -101.4 -257.9 -88.1 -258.1 -80.45 -259.85 -73.15 -261.6 -58.9 -267.05 -56.6 -262.75 -63.55 -257.45 L-63.6 -257.4 -64.85 -256.55 Q-68.55 -254.0 -72.45 -251.95 L-75.4 -255.85 Q-81.8 -253.3 -87.4 -253.2 M65.0 -198.1 L66.1 -196.8 65.0 -198.1 M-83.8 -235.0 L-87.7 -229.95 -83.8 -235.0 M-62.1 -263.5 Q-69.15 -258.45 -75.4 -255.85 -69.15 -258.45 -62.1 -263.5 M-73.95 -286.3 L-74.3 -286.35 -74.35 -286.35 -74.45 -286.4 -74.55 -286.4 -75.35 -286.6 -74.55 -286.4 -74.45 -286.4 -74.35 -286.35 -74.3 -286.35 -73.95 -286.3 M-71.0 -280.55 Q-76.45 -274.85 -81.5 -271.05 -76.45 -274.85 -71.0 -280.55 M-63.55 -257.45 L-60.95 -260.5 -63.55 -257.45 M-46.0 -251.15 Q-51.5 -246.05 -56.2 -240.7 -51.5 -246.05 -46.0 -251.15 M-17.15 -235.4 L-27.9 -236.3 Q-23.25 -245.65 -17.9 -253.75 -18.45 -246.15 -17.15 -235.4 M-80.95 -179.25 Q-77.05 -163.5 -67.15 -153.45 -77.05 -163.5 -80.95 -179.25 M-85.85 -198.1 Q-88.05 -197.25 -90.35 -196.8 -88.05 -197.25 -85.85 -198.1 M-61.85 -148.75 L-59.7 -147.2 -61.85 -148.75" fill="#091425" fill-rule="evenodd" stroke="none"/>
    <path d="M68.9 -228.6 L69.85 -226.3 Q71.25 -222.85 71.85 -219.7 73.5 -226.9 73.35 -233.4 73.15 -242.25 69.5 -249.85 66.65 -255.75 61.75 -260.85 M78.75 -245.2 Q89.05 -242.85 98.05 -253.75 84.35 -252.1 69.35 -275.85 L68.85 -276.55 Q50.1 -302.95 5.65 -311.35 -18.7 -316.75 -50.45 -308.55 -87.35 -301.25 -101.35 -315.1 -95.7 -292.1 -75.75 -286.7 L-75.35 -286.6 -74.55 -286.4 -74.45 -286.4 -74.35 -286.35 -74.3 -286.35 -73.95 -286.3 M-73.7 -286.25 L-65.8 -285.2 M29.35 -234.9 Q44.25 -235.65 55.35 -237.85 L58.0 -238.4 58.9 -236.45 62.0 -240.45 Q57.95 -246.35 52.35 -253.0 M19.0 -234.55 L29.35 -234.9 M-17.15 -235.4 L0.0 -234.65 Q10.05 -234.4 19.0 -234.55 M78.75 -245.2 Q79.4 -243.35 80.2 -241.65 85.85 -229.25 97.35 -225.6 89.75 -218.5 82.15 -218.6 90.7 -210.9 100.65 -212.05 95.5 -203.9 87.85 -202.1 92.4 -195.0 98.2 -190.75 84.55 -188.8 75.9 -191.15 81.4 -163.3 46.9 -145.35 L59.9 -163.15 Q51.1 -151.75 37.0 -143.4 29.1 -138.7 19.5 -135.0 26.0 -140.9 32.45 -157.6 29.5 -157.65 26.2 -158.4 L12.0 -160.1 Q10.4 -149.85 -2.65 -144.8 L-0.1 -161.1 -2.1 -161.2 Q-7.6 -151.6 -20.7 -148.1 -19.25 -149.75 -16.5 -161.9 -28.9 -162.3 -42.65 -162.15 L-45.8 -162.7 -48.0 -163.2 -52.45 -164.7 Q-50.9 -156.9 -48.7 -151.05 M-48.55 -150.6 L-45.45 -143.9 -45.3 -143.65 -45.3 -143.6 M-45.15 -143.35 Q-43.65 -140.9 -42.0 -139.1 L-44.45 -139.85 -46.1 -140.4 -46.5 -140.55 -46.85 -140.7 -58.25 -146.25 -59.7 -147.2 -61.85 -148.75 Q-64.7 -150.95 -67.15 -153.45 L-64.5 -145.65 Q-87.05 -167.25 -90.1 -194.2 L-90.35 -196.8 Q-104.1 -194.0 -120.4 -204.6 L-123.55 -206.75 Q-113.15 -209.15 -104.05 -215.1 -111.9 -213.9 -120.3 -224.35 -108.6 -221.35 -92.25 -229.35 -108.5 -234.8 -113.3 -246.9 L-111.75 -246.45 Q-101.7 -244.2 -87.4 -253.2 -95.1 -253.15 -101.4 -257.9 -105.2 -260.75 -108.45 -265.35 -100.0 -261.25 -89.8 -265.95 L-93.55 -266.7 Q-96.0 -267.35 -98.0 -268.3 L-98.1 -268.35 Q-101.05 -269.75 -103.15 -271.85 L-103.3 -272.0 -103.4 -272.15 -103.55 -272.3 -103.65 -272.45 -105.45 -274.9 -105.5 -275.0 -105.55 -275.1 -105.6 -275.2 -105.65 -275.3 -105.75 -275.4 -105.9 -275.7 -105.95 -275.8 -106.0 -275.95 -106.05 -276.05 -106.1 -276.2 -106.15 -276.3 -106.2 -276.45 -106.35 -276.7 -106.4 -276.8 -106.45 -276.95 Q-94.75 -272.5 -75.35 -286.6 M62.0 -240.45 L62.55 -239.7 62.75 -239.4 62.95 -239.1 68.3 -229.85 68.9 -228.6 M66.1 -196.8 Q68.8 -193.9 72.9 -192.2 74.3 -191.6 75.9 -191.15 M73.35 -233.4 L78.75 -245.2 Q74.25 -246.3 69.5 -249.85 M-61.2 -234.65 L-61.95 -233.65 Q-66.75 -227.45 -70.5 -220.9 L-72.05 -218.1 -75.15 -211.85 -75.45 -217.2 Q-75.6 -222.5 -75.15 -226.4 L-79.9 -233.1 Q-82.95 -237.75 -84.7 -241.65 -87.8 -248.35 -87.4 -253.2 -81.8 -253.3 -75.4 -255.85 -69.15 -258.45 -62.1 -263.5 M-53.6 -214.85 Q-35.75 -210.7 -4.4 -208.9 31.7 -207.4 56.2 -213.15 L61.35 -214.5 61.2 -209.6 Q60.2 -189.55 54.65 -174.1 47.6 -157.9 33.45 -157.6 L32.45 -157.6 M60.25 -233.05 L59.95 -233.8 58.9 -236.45 M69.85 -226.3 L61.35 -214.5 Q64.2 -221.95 60.25 -233.05 M79.95 -218.75 Q78.0 -219.1 76.05 -219.85 M82.15 -218.6 L79.95 -218.75 Q83.3 -209.1 87.85 -202.1 M72.9 -192.2 Q69.7 -176.15 60.35 -163.7 L59.9 -163.15 M66.1 -196.8 L65.0 -198.1 M-81.5 -271.05 Q-85.8 -267.85 -89.8 -265.95 M-92.25 -229.35 L-91.55 -229.15 -89.05 -228.4 -87.7 -229.95 -83.8 -235.0 M-89.05 -228.4 Q-96.05 -220.35 -104.05 -215.1 M-71.0 -280.55 L-68.45 -283.3 M-81.5 -271.05 Q-76.45 -274.85 -71.0 -280.55 M-72.45 -251.95 L-69.5 -248.05 Q-67.05 -253.1 -63.6 -257.4 L-63.55 -257.45 -60.95 -260.5 M-72.45 -251.95 L-75.4 -255.85 M-53.5 -240.1 L-41.45 -237.95 -27.9 -236.3 -17.15 -235.4 M-61.2 -234.65 L-56.5 -240.35 -56.2 -240.7 Q-51.5 -246.05 -46.0 -251.15 M-56.8 -166.95 Q-63.3 -171.15 -65.8 -178.6 -70.65 -194.1 -71.85 -214.15 L-72.05 -218.1 M-53.6 -214.85 Q-64.65 -217.45 -70.5 -220.9 M-69.5 -248.05 Q-73.75 -239.25 -75.15 -226.4 M-2.1 -161.2 L-16.5 -161.9 M-52.45 -164.7 Q-54.85 -165.7 -56.8 -166.95 M-67.15 -153.45 Q-77.05 -163.5 -80.95 -179.25 M-90.35 -196.8 Q-88.05 -197.25 -85.85 -198.1 M12.0 -160.1 L-0.1 -161.1" fill="none" stroke="#1a5283" stroke-linecap="round" stroke-linejoin="round" stroke-width="2.0"/>
    <path d="M48.65 -286.0 Q63.0 -283.7 56.8 -273.4 55.7 -271.6 53.45 -272.8 46.15 -276.8 45.85 -283.15 45.75 -285.9 48.65 -286.0 M16.95 -280.65 Q31.7 -276.85 26.9 -264.35 26.15 -262.4 23.75 -263.2 9.0 -268.45 15.85 -280.0 16.2 -280.6 16.95 -280.65 M-16.95 -280.65 Q-5.45 -274.25 -14.9 -264.4 -16.35 -262.9 -18.6 -263.75 -28.3 -267.45 -22.4 -276.85 -20.35 -280.05 -16.95 -280.65 M-41.05 -293.6 Q-30.6 -286.5 -45.5 -281.35 -50.25 -279.7 -54.8 -281.55 -59.9 -283.55 -55.8 -287.05 -49.35 -292.6 -41.05 -293.6" fill="#245091" fill-rule="evenodd" stroke="none"/>
    <path d="M-0.7 -302.15 Q-7.8 -318.8 -31.75 -335.5 5.6 -333.0 2.75 -304.6 10.5 -316.85 5.5 -337.7 33.55 -325.35 5.45 -303.0 L-0.7 -302.15" fill="#132a4c" fill-rule="evenodd" stroke="none"/>
    <path d="M-0.7 -302.15 Q-7.8 -318.8 -31.75 -335.5 5.6 -333.0 2.75 -304.6 10.5 -316.85 5.5 -337.7 33.55 -325.35 5.45 -303.0" fill="none" stroke="#1a5283" stroke-linecap="round" stroke-linejoin="round" stroke-width="2.0"/>
  </g>
</svg>
