<?xml version="1.0" encoding="UTF-8" standalone="no"?>
<svg xmlns:xlink="http://www.w3.org/1999/xlink" height="318.65px" width="213.9px" xmlns="http://www.w3.org/2000/svg">
  <g transform="matrix(1.0, 0.0, 0.0, 1.0, 131.05, 357.0)">
    <path d="M6.35 -193.4 L7.7 -202.45 8.75 -206.9 9.7 -212.75 9.6 -212.15 9.3 -209.85 8.95 -207.55 8.85 -207.0 8.85 -206.95 7.8 -201.25 6.35 -193.4 M10.05 -216.7 L10.1 -216.7 9.95 -215.05 10.05 -216.35 10.05 -216.7 M-95.25 -288.05 L-95.05 -288.3 -95.0 -288.3 -95.25 -288.05 M-94.8 -220.2 L-93.25 -223.5 -93.1 -223.85 -93.5 -222.9 -94.2 -221.15 -94.35 -220.75 -94.45 -220.55 -94.55 -220.25 -94.6 -220.15 -95.25 -218.7 -95.6 -218.55 -95.6 -218.5 -94.8 -220.2 -94.6 -220.15 -94.8 -220.2 M-104.05 -232.2 L-100.95 -234.0 -94.65 -238.7 -95.15 -238.25 -96.2 -237.35 -96.75 -236.95 -102.8 -232.6 -103.25 -232.35 -104.05 -232.2 M-88.95 -214.3 L-88.8 -215.35 -88.35 -217.85 -88.95 -214.3" fill="#cccccc" fill-rule="evenodd" stroke="none"/>
    <path d="M65.85 -222.15 L60.4 -221.45 60.35 -221.45 Q57.15 -221.25 53.25 -221.4 40.7 -221.9 27.85 -220.15 L25.1 -219.75 Q17.65 -218.6 10.1 -216.7 L10.05 -216.7 7.15 -215.95 -5.0 -212.7 Q-12.85 -211.15 -24.0 -212.3 -35.2 -213.5 -43.15 -220.9 -51.1 -228.3 -51.95 -232.85 -52.85 -237.4 -52.5 -239.5 -48.15 -238.8 -21.35 -241.9 5.45 -245.1 25.85 -249.35 46.25 -253.65 56.05 -258.55 61.55 -256.5 65.8 -248.1 70.0 -239.7 70.7 -234.8 71.4 -229.95 65.85 -222.15 M-32.85 -207.75 Q-39.0 -208.8 -44.35 -212.45 L-48.15 -215.5 -51.65 -219.0 -45.55 -214.3 Q-39.45 -210.3 -32.85 -207.75 M55.05 -283.4 L56.1 -280.9 Q59.95 -271.35 58.95 -265.2 50.0 -254.25 -0.9 -248.85 -34.85 -243.85 -51.2 -243.75 L-55.35 -243.8 Q-54.95 -246.6 -57.9 -254.05 -60.8 -261.5 -60.05 -264.1 -58.25 -263.7 -54.5 -265.3 -50.95 -266.8 -35.5 -270.3 -20.1 -273.8 7.1 -277.4 L55.05 -283.4" fill="#4c97d9" fill-rule="evenodd" stroke="none"/>
    <path d="M40.3 -287.5 Q34.2 -294.6 21.6 -301.45 L23.85 -297.15 Q27.55 -290.4 31.05 -286.6 L29.75 -286.45 28.9 -286.35 Q8.75 -284.15 -10.25 -281.2 L-12.65 -280.8 -11.95 -280.9 Q-14.35 -288.0 -14.2 -295.7 -19.15 -290.7 -20.65 -282.05 L-20.85 -279.4 -43.2 -275.25 -46.8 -274.5 -46.35 -274.8 -42.7 -278.15 Q-39.45 -281.35 -41.55 -295.3 -60.45 -280.15 -68.3 -262.25 L-77.95 -239.25 -78.2 -238.6 -77.65 -233.45 -77.6 -232.95 -74.35 -240.45 -71.95 -237.4 Q-66.95 -229.6 -63.2 -221.05 -61.2 -216.45 -58.55 -212.45 L-58.4 -205.3 -58.25 -204.35 -58.2 -204.25 Q-55.35 -185.6 -47.9 -173.35 -46.7 -171.3 -45.3 -169.4 L-51.55 -172.15 Q-53.65 -173.2 -55.5 -174.35 -50.0 -159.45 -41.8 -147.9 L-38.1 -143.0 -39.7 -143.55 Q-78.05 -177.1 -88.95 -214.3 L-89.75 -207.95 -90.15 -207.55 Q-93.2 -198.8 -101.5 -195.35 -103.55 -194.45 -105.6 -194.3 L-122.25 -193.15 -123.8 -194.85 Q-108.4 -194.25 -96.3 -217.2 -92.7 -217.8 -92.1 -221.6 -91.8 -223.45 -93.25 -223.5 L-93.5 -222.9 -93.1 -223.85 -93.25 -223.5 -93.3 -223.5 Q-106.65 -223.85 -119.0 -228.0 -111.7 -228.1 -104.05 -232.2 L-103.25 -232.35 -102.8 -232.6 -96.75 -236.95 -96.2 -237.35 Q-99.45 -234.75 -102.8 -232.6 -99.45 -234.75 -96.2 -237.35 L-93.5 -239.1 Q-93.3 -239.0 -93.3 -239.95 L-93.3 -240.0 Q-93.25 -243.0 -97.75 -241.2 -102.35 -239.4 -109.65 -239.25 -116.95 -239.1 -124.8 -245.0 L-125.85 -247.35 Q-114.4 -240.4 -99.8 -252.05 -93.3 -247.4 -85.45 -245.95 -81.45 -245.2 -78.35 -243.45 L-78.2 -248.6 Q-77.5 -259.05 -73.85 -269.25 L-75.15 -269.4 -74.15 -270.4 -73.0 -271.65 -72.65 -272.45 -72.95 -271.7 Q-70.15 -275.05 -70.3 -277.8 -70.5 -280.6 -73.55 -282.8 -74.85 -282.8 -77.7 -279.4 -80.55 -276.0 -92.35 -270.95 -104.15 -265.9 -117.75 -269.05 -112.0 -268.75 -106.95 -270.55 -102.85 -281.6 -95.25 -288.05 L-95.0 -288.3 -93.75 -290.1 Q-115.8 -288.25 -126.8 -306.6 -128.6 -309.5 -130.05 -312.9 -108.45 -298.05 -71.2 -316.0 L-70.35 -316.5 Q-42.75 -331.4 -9.7 -329.0 20.0 -326.45 44.85 -311.1 L45.05 -310.95 Q59.85 -293.8 70.85 -287.7 74.6 -285.6 77.95 -284.8 L74.0 -283.4 Q63.05 -288.1 52.65 -294.45 49.45 -294.15 49.8 -291.1 49.95 -289.7 50.45 -288.45 L49.6 -288.4 40.3 -287.5 M-91.6 -290.35 L-93.75 -290.1 -91.6 -290.35 M21.6 -302.45 Q20.8 -303.2 21.45 -301.8 22.55 -301.5 21.6 -302.45 M21.75 -210.1 Q17.1 -198.9 10.3 -191.0 L5.15 -185.8 6.35 -193.4 7.8 -201.25 8.85 -206.95 21.75 -210.1 M7.7 -202.45 Q5.05 -192.35 -0.1 -186.2 -4.3 -181.2 -10.1 -178.85 -8.15 -182.35 -7.2 -202.6 L-7.35 -203.9 8.75 -206.9 7.7 -202.45 M-10.2 -211.15 Q-12.65 -194.5 -24.15 -188.9 -28.05 -187.05 -32.9 -186.35 -28.45 -192.15 -25.1 -207.5 L-23.25 -207.75 Q-20.85 -208.1 -18.35 -208.8 L-13.45 -210.2 -10.2 -211.15 M7.15 -215.95 L10.05 -216.7 10.05 -216.35 7.15 -215.95 M-92.2 -288.65 L-95.0 -288.3 -92.2 -288.65 M-92.6 -282.2 Q-97.85 -274.95 -104.35 -271.65 L-106.95 -270.55 -104.35 -271.65 Q-97.85 -274.95 -92.6 -282.2 M-99.1 -260.9 L-105.9 -255.65 -106.7 -255.0 Q-108.35 -253.8 -110.1 -252.95 -115.95 -250.1 -122.55 -251.55 -116.1 -253.2 -111.25 -261.45 L-110.05 -263.55 Q-104.75 -262.15 -99.25 -263.05 L-98.0 -263.25 -98.9 -261.4 -98.95 -261.4 -99.1 -260.9 M-70.1 -278.3 L-70.3 -277.8 -70.1 -278.3 M-92.45 -240.8 L-93.3 -239.95 -92.45 -240.8 M-88.95 -214.3 L-88.35 -217.85 -88.8 -215.35 -88.95 -214.3 M-93.1 -223.85 L-92.75 -224.85 -93.1 -223.85 M-72.95 -271.7 L-73.85 -269.25 -72.95 -271.7 M-78.35 -243.45 L-78.2 -238.6 -78.35 -243.45 M-55.5 -174.35 Q-65.65 -180.8 -69.7 -190.65 L-70.4 -192.55 -69.7 -190.65 Q-65.65 -180.8 -55.5 -174.35" fill="#132a4c" fill-rule="evenodd" stroke="none"/>
    <path d="M31.05 -286.6 Q27.55 -290.4 23.85 -297.15 L21.6 -301.45 Q34.2 -294.6 40.3 -287.5 L39.45 -287.45 37.6 -287.25 31.05 -286.6 M50.45 -288.45 Q49.95 -289.7 49.8 -291.1 49.45 -294.15 52.65 -294.45 63.05 -288.1 74.0 -283.4 L68.05 -282.85 Q63.15 -283.2 58.55 -286.3 L58.4 -286.4 58.2 -286.55 58.05 -286.7 57.9 -286.8 57.7 -286.9 57.35 -287.15 57.15 -287.3 56.9 -287.5 57.15 -287.1 53.95 -285.7 53.1 -287.45 52.5 -288.65 50.45 -288.45 M21.6 -302.45 Q22.55 -301.5 21.45 -301.8 20.8 -303.2 21.6 -302.45 M61.5 -269.45 L61.55 -269.4 64.2 -267.55 Q72.1 -261.75 76.6 -256.5 80.65 -251.7 81.85 -247.3 78.1 -250.15 66.0 -251.85 L58.95 -265.2 61.5 -269.45 M69.15 -245.9 Q77.95 -236.8 79.9 -228.25 81.8 -219.75 78.55 -211.95 77.5 -216.35 69.7 -223.3 L70.75 -223.8 73.1 -225.35 Q76.25 -228.0 76.3 -232.35 L69.15 -245.9 M25.1 -219.75 Q23.6 -214.65 21.75 -210.1 L8.85 -206.95 8.85 -207.0 8.95 -207.55 9.3 -209.85 9.6 -212.15 9.7 -212.75 8.75 -206.9 -7.35 -203.9 Q-7.65 -207.9 -6.9 -212.15 L-6.85 -212.15 -6.7 -212.2 -5.25 -212.65 -4.95 -212.7 -5.0 -212.7 7.15 -215.95 10.05 -216.35 9.95 -215.05 10.1 -216.7 Q17.65 -218.6 25.1 -219.75 M-58.7 -223.3 L-58.75 -222.95 -58.55 -212.45 Q-61.2 -216.45 -63.2 -221.05 -66.95 -229.6 -71.95 -237.4 L-74.35 -240.45 -77.6 -232.95 -77.65 -233.45 -78.2 -238.6 -77.95 -239.25 -68.3 -262.25 Q-60.45 -280.15 -41.55 -295.3 -39.45 -281.35 -42.7 -278.15 L-46.35 -274.8 -46.8 -274.5 -51.45 -273.5 -51.45 -273.45 -54.75 -271.85 -60.1 -264.7 -60.2 -264.5 -60.2 -264.55 -60.5 -264.1 -60.7 -263.85 -63.9 -259.15 Q-67.9 -253.0 -71.15 -246.9 L-64.85 -245.6 -64.8 -244.75 -64.8 -243.45 -64.75 -242.8 -64.7 -242.55 -64.55 -241.65 -64.1 -239.2 Q-62.6 -233.35 -58.4 -227.2 L-58.7 -223.3 M52.9 -291.25 Q54.85 -289.1 56.9 -287.5 54.85 -289.1 52.9 -291.25 M9.95 -215.05 L9.7 -212.75 9.95 -215.05 M-98.0 -263.25 L-99.25 -263.05 Q-104.75 -262.15 -110.05 -263.55 -111.65 -264.0 -113.25 -264.6 -117.45 -266.35 -121.55 -269.5 L-117.75 -269.05 Q-104.15 -265.9 -92.35 -270.95 -80.55 -276.0 -77.7 -279.4 -74.85 -282.8 -73.55 -282.8 -70.5 -280.6 -70.3 -277.8 L-72.65 -272.45 -70.3 -277.8 Q-70.15 -275.05 -72.95 -271.7 L-72.65 -272.45 -73.0 -271.65 -74.15 -270.4 -75.15 -269.4 -79.4 -269.9 -79.45 -269.9 -82.6 -270.65 Q-90.5 -264.85 -98.0 -263.25 M-99.8 -252.05 L-98.9 -252.75 -98.05 -252.45 Q-94.35 -251.15 -89.55 -250.2 L-78.2 -248.6 -78.35 -243.45 Q-81.45 -245.2 -85.45 -245.95 -93.3 -247.4 -99.8 -252.05 M-77.95 -274.4 L-82.6 -270.65 -77.95 -274.4 M-94.8 -220.2 Q-109.25 -215.4 -121.7 -225.35 L-125.5 -228.75 -119.0 -228.0 Q-106.65 -223.85 -93.3 -223.5 L-93.25 -223.5 -94.8 -220.2 M-100.95 -234.0 Q-117.65 -232.25 -124.3 -244.1 L-124.8 -245.0 Q-116.95 -239.1 -109.65 -239.25 -102.35 -239.4 -97.75 -241.2 -93.25 -243.0 -93.3 -240.0 L-93.3 -239.95 Q-93.3 -239.0 -93.5 -239.1 L-96.2 -237.35 -95.15 -238.25 -94.65 -238.7 -100.95 -234.0 M-94.65 -238.7 L-93.55 -239.75 -93.3 -239.95 -93.55 -239.75 -94.65 -238.7 M-93.5 -222.9 L-93.25 -223.5 Q-91.8 -223.45 -92.1 -221.6 -92.7 -217.8 -96.3 -217.2 L-95.6 -218.5 -95.6 -218.55 -95.25 -218.7 -94.6 -220.15 -94.55 -220.25 -94.45 -220.55 -94.35 -220.75 -94.2 -221.15 -93.5 -222.9 M-122.25 -193.15 L-105.6 -194.3 Q-103.55 -194.45 -101.5 -195.35 -93.2 -198.8 -90.15 -207.55 L-89.75 -207.95 -88.95 -214.3 Q-78.05 -177.1 -39.7 -143.55 -54.0 -148.6 -64.25 -157.05 -70.8 -162.5 -75.7 -169.25 L-68.15 -150.15 Q-85.8 -167.0 -89.3 -189.05 L-89.55 -190.85 Q-104.85 -184.6 -118.85 -191.1 -120.95 -192.1 -122.25 -193.15 M-20.85 -279.4 L-20.65 -282.05 Q-19.15 -290.7 -14.2 -295.7 -14.35 -288.0 -11.95 -280.9 L-12.65 -280.8 -20.4 -279.5 -20.85 -279.4 M-46.9 -281.3 L-54.75 -271.85 -46.9 -281.3 M-71.15 -246.9 L-71.9 -245.5 -72.05 -245.15 -74.35 -240.45 -72.05 -245.15 -71.9 -245.5 -71.15 -246.9 M-89.55 -190.85 Q-90.6 -199.05 -89.75 -207.95 -90.6 -199.05 -89.55 -190.85 M-75.7 -169.25 L-75.85 -169.5 Q-83.15 -179.8 -86.7 -193.2 -83.15 -179.8 -75.85 -169.5 L-75.7 -169.25" fill="#091425" fill-rule="evenodd" stroke="none"/>
    <path d="M57.15 -287.1 Q62.5 -278.45 61.5 -269.45 L58.95 -265.2 Q59.95 -271.35 56.1 -280.9 L55.05 -283.4 53.95 -285.7 57.15 -287.1 M66.0 -251.85 L69.15 -245.9 76.3 -232.35 Q76.25 -228.0 73.1 -225.35 L70.75 -223.8 69.7 -223.3 Q68.0 -222.65 65.85 -222.15 71.4 -229.95 70.7 -234.8 70.0 -239.7 65.8 -248.1 61.55 -256.5 56.05 -258.55 46.25 -253.65 25.85 -249.35 5.45 -245.1 -21.35 -241.9 -48.15 -238.8 -52.5 -239.5 -52.85 -237.4 -51.95 -232.85 -51.1 -228.3 -43.15 -220.9 -35.2 -213.5 -24.0 -212.3 -12.85 -211.15 -5.0 -212.7 L-5.25 -212.65 -6.7 -212.2 -6.85 -212.15 -6.9 -212.15 -9.05 -211.5 -10.2 -211.15 -13.45 -210.2 -18.35 -208.8 Q-20.85 -208.1 -23.25 -207.75 L-25.1 -207.5 -32.85 -207.75 Q-39.45 -210.3 -45.55 -214.3 L-51.65 -219.0 -51.7 -219.0 -52.6 -220.0 -58.0 -226.65 -58.35 -227.1 -58.4 -227.2 Q-62.6 -233.35 -64.1 -239.2 L-64.55 -241.65 -64.7 -242.55 -64.75 -242.8 -64.8 -243.45 -64.8 -244.75 -64.85 -245.6 -64.8 -245.6 Q-65.15 -245.95 -65.5 -251.8 -65.75 -255.45 -63.9 -259.15 -65.75 -255.45 -65.5 -251.8 -65.15 -245.95 -64.8 -245.6 L-64.85 -245.6 -71.15 -246.9 Q-67.9 -253.0 -63.9 -259.15 L-60.7 -263.85 -60.5 -264.1 -60.2 -264.55 -60.2 -264.5 -60.5 -264.1 -60.2 -264.5 -60.4 -264.2 -60.05 -264.1 Q-60.8 -261.5 -57.9 -254.05 -54.95 -246.6 -55.35 -243.8 L-51.2 -243.75 Q-34.85 -243.85 -0.9 -248.85 50.0 -254.25 58.95 -265.2 L66.0 -251.85 M-99.1 -260.9 L-98.95 -261.4 -98.9 -261.4 -98.0 -263.25 Q-90.5 -264.85 -82.6 -270.65 L-79.45 -269.9 -79.4 -269.9 -75.15 -269.4 -73.85 -269.25 Q-77.5 -259.05 -78.2 -248.6 L-89.55 -250.2 Q-94.35 -251.15 -98.05 -252.45 L-98.9 -252.75 -98.95 -252.75 Q-99.85 -255.15 -99.75 -257.6 -99.65 -259.25 -99.1 -260.9 M-55.8 -243.85 L-59.5 -244.15 -61.35 -244.45 -61.95 -244.55 -62.1 -244.6 -62.15 -244.6 Q-63.25 -244.85 -64.85 -245.6 -63.25 -244.85 -62.15 -244.6 L-62.1 -244.6 -61.95 -244.55 -61.35 -244.45 -59.5 -244.15 -55.8 -243.85 M-52.6 -220.0 L-51.65 -219.0 -52.6 -220.0 M-5.25 -212.65 L-5.0 -212.7 -4.95 -212.7 -5.25 -212.65" fill="#3572b4" fill-rule="evenodd" stroke="none"/>
    <path d="M31.05 -286.6 L37.6 -287.25 39.45 -287.45 40.3 -287.5 49.6 -288.4 50.45 -288.45 52.5 -288.65 53.1 -287.45 53.95 -285.7 55.05 -283.4 7.1 -277.4 Q-20.1 -273.8 -35.5 -270.3 -50.95 -266.8 -54.5 -265.3 -58.25 -263.7 -60.05 -264.1 L-60.4 -264.2 -60.2 -264.5 -60.1 -264.7 -54.75 -271.85 -51.45 -273.45 -51.45 -273.5 -46.8 -274.5 -43.2 -275.25 -20.85 -279.4 -20.4 -279.5 -12.65 -280.8 -10.25 -281.2 Q8.75 -284.15 28.9 -286.35 L29.75 -286.45 31.05 -286.6" fill="#79c7ff" fill-rule="evenodd" stroke="none"/>
    <path d="M31.05 -286.6 L37.6 -287.25 39.45 -287.45 M40.3 -287.5 L49.6 -288.4 50.45 -288.45 52.5 -288.65 53.1 -287.45 53.95 -285.7 57.15 -287.1 Q62.5 -278.45 61.5 -269.45 L61.55 -269.4 64.2 -267.55 Q72.1 -261.75 76.6 -256.5 80.65 -251.7 81.85 -247.3 78.1 -250.15 66.0 -251.85 L69.15 -245.9 Q77.95 -236.8 79.9 -228.25 81.8 -219.75 78.55 -211.95 77.5 -216.35 69.7 -223.3 68.0 -222.65 65.85 -222.15 L60.4 -221.45 60.35 -221.45 Q57.15 -221.25 53.25 -221.4 40.7 -221.9 27.85 -220.15 L25.1 -219.75 Q23.6 -214.65 21.75 -210.1 17.1 -198.9 10.3 -191.0 L5.15 -185.8 6.35 -193.4 7.7 -202.45 Q5.05 -192.35 -0.1 -186.2 -4.3 -181.2 -10.1 -178.85 -8.15 -182.35 -7.2 -202.6 L-7.35 -203.9 Q-7.65 -207.9 -6.9 -212.15 L-9.05 -211.5 -10.2 -211.15 Q-12.65 -194.5 -24.15 -188.9 -28.05 -187.05 -32.9 -186.35 -28.45 -192.15 -25.1 -207.5 L-32.85 -207.75 Q-39.0 -208.8 -44.35 -212.45 L-48.15 -215.5 -51.65 -219.0 -52.6 -220.0 -58.0 -226.65 -58.35 -227.1 -58.7 -223.3 -58.75 -222.95 -58.55 -212.45 -58.4 -205.3 -58.2 -204.3 -58.2 -204.25 Q-55.35 -185.6 -47.9 -173.35 -46.7 -171.3 -45.3 -169.4 L-51.55 -172.15 Q-53.65 -173.2 -55.5 -174.35 -50.0 -159.45 -41.8 -147.9 L-38.1 -143.0 -39.7 -143.55 -36.8 -141.05 M74.0 -283.4 L77.95 -284.8 Q74.6 -285.6 70.85 -287.7 59.85 -293.8 45.05 -310.95 L44.85 -311.1 Q20.0 -326.45 -9.7 -329.0 -42.75 -331.4 -70.35 -316.5 L-71.2 -316.0 Q-108.45 -298.05 -130.05 -312.9 -128.6 -309.5 -126.8 -306.6 -115.8 -288.25 -93.75 -290.1 L-91.6 -290.35 M74.0 -283.4 L68.05 -282.85 Q63.15 -283.2 58.55 -286.3 L58.4 -286.4 58.2 -286.55 58.05 -286.7 57.9 -286.8 57.7 -286.9 57.35 -287.15 57.15 -287.3 56.9 -287.5 57.15 -287.1 M56.9 -287.5 Q54.85 -289.1 52.9 -291.25 M55.05 -283.4 L56.1 -280.9 Q59.95 -271.35 58.95 -265.2 L61.5 -269.45 M53.95 -285.7 L55.05 -283.4 M-55.35 -243.8 L-51.2 -243.75 Q-34.85 -243.85 -0.9 -248.85 50.0 -254.25 58.95 -265.2 L66.0 -251.85 M-5.0 -212.7 L7.15 -215.95 10.05 -216.7 10.1 -216.7 Q17.65 -218.6 25.1 -219.75 M-12.65 -280.8 L-10.25 -281.2 Q8.75 -284.15 28.9 -286.35 L29.75 -286.45 31.05 -286.6 M10.05 -216.35 L9.95 -215.05 10.1 -216.7 M8.85 -207.0 L8.95 -207.55 9.3 -209.85 9.6 -212.15 9.7 -212.75 8.75 -206.9 7.7 -202.45 M9.7 -212.75 L9.95 -215.05 M10.05 -216.35 L10.05 -216.7 M6.35 -193.4 L7.8 -201.25 8.85 -206.95 M69.15 -245.9 L76.3 -232.35 Q76.25 -228.0 73.1 -225.35 L70.75 -223.8 69.7 -223.3 M-95.25 -288.05 L-95.05 -288.3 -95.0 -288.3 -93.75 -290.1 M-95.0 -288.3 L-95.25 -288.05 Q-102.85 -281.6 -106.95 -270.55 L-104.35 -271.65 Q-97.85 -274.95 -92.6 -282.2 M-95.0 -288.3 L-92.2 -288.65 M-110.05 -263.55 L-111.25 -261.45 Q-116.1 -253.2 -122.55 -251.55 -115.95 -250.1 -110.1 -252.95 -108.35 -253.8 -106.7 -255.0 L-105.9 -255.65 -99.1 -260.9 -98.95 -261.4 -98.9 -261.4 -98.0 -263.25 -99.25 -263.05 Q-104.75 -262.15 -110.05 -263.55 -111.65 -264.0 -113.25 -264.6 -117.45 -266.35 -121.55 -269.5 L-117.75 -269.05 Q-112.0 -268.75 -106.95 -270.55 M-78.35 -243.45 L-78.2 -248.6 -89.55 -250.2 Q-94.35 -251.15 -98.05 -252.45 L-98.9 -252.75 -98.95 -252.75 Q-99.85 -255.15 -99.75 -257.6 -99.65 -259.25 -99.1 -260.9 M-98.0 -263.25 Q-90.5 -264.85 -82.6 -270.65 L-77.95 -274.4 M-70.3 -277.8 L-70.1 -278.3 M-119.0 -228.0 L-125.5 -228.75 -121.7 -225.35 Q-109.25 -215.4 -94.8 -220.2 L-93.25 -223.5 -93.1 -223.85 -93.5 -222.9 -94.2 -221.15 -94.35 -220.75 -94.45 -220.55 -94.55 -220.25 -94.6 -220.15 -95.25 -218.7 -95.6 -218.55 -95.6 -218.5 -96.3 -217.2 Q-108.4 -194.25 -123.8 -194.85 L-122.25 -193.15 Q-120.95 -192.1 -118.85 -191.1 -104.85 -184.6 -89.55 -190.85 L-89.3 -189.05 Q-85.8 -167.0 -68.15 -150.15 L-75.7 -169.25 Q-70.8 -162.5 -64.25 -157.05 -54.0 -148.6 -39.7 -143.55 M-119.0 -228.0 Q-111.7 -228.1 -104.05 -232.2 L-100.95 -234.0 Q-117.65 -232.25 -124.3 -244.1 L-124.8 -245.0 -125.85 -247.35 Q-114.4 -240.4 -99.8 -252.05 M-102.8 -232.6 Q-99.45 -234.75 -96.2 -237.35 L-95.15 -238.25 -94.65 -238.7 -100.95 -234.0 M-93.3 -239.95 L-93.55 -239.75 -94.65 -238.7 M-93.3 -239.95 L-92.45 -240.8 M-89.75 -207.95 L-88.95 -214.3 -88.8 -215.35 -88.35 -217.85 -88.95 -214.3 M-92.75 -224.85 L-93.1 -223.85 M-102.8 -232.6 L-103.25 -232.35 -104.05 -232.2 M-94.8 -220.2 L-94.6 -220.15 M-94.8 -220.2 L-95.6 -218.5 M-20.85 -279.4 L-20.4 -279.5 -12.65 -280.8 M-46.8 -274.5 L-43.2 -275.25 -20.85 -279.4 M-54.75 -271.85 L-51.45 -273.45 -51.45 -273.5 -46.8 -274.5 M-70.3 -277.8 L-72.65 -272.45 -72.95 -271.7 -73.85 -269.25 Q-77.5 -259.05 -78.2 -248.6 M-64.85 -245.6 L-64.8 -245.6 Q-65.15 -245.95 -65.5 -251.8 -65.75 -255.45 -63.9 -259.15 -67.9 -253.0 -71.15 -246.9 L-64.85 -245.6 Q-63.25 -244.85 -62.15 -244.6 L-62.1 -244.6 -61.95 -244.55 -61.35 -244.45 -59.5 -244.15 -55.8 -243.85 M-75.15 -269.4 L-73.85 -269.25 M-82.6 -270.65 L-79.45 -269.9 -79.4 -269.9 -75.15 -269.4 M-60.2 -264.5 L-60.1 -264.7 -54.75 -271.85 -46.9 -281.3 M-60.5 -264.1 L-60.2 -264.5 M-63.9 -259.15 L-60.7 -263.85 -60.5 -264.1 M-58.4 -227.2 L-58.7 -223.3 M-58.35 -227.1 L-58.4 -227.2 Q-62.6 -233.35 -64.1 -239.2 L-64.55 -241.65 M-64.7 -242.55 L-64.75 -242.8 -64.8 -243.45 -64.8 -244.75 -64.85 -245.6 M-74.35 -240.45 L-77.6 -232.95 -77.65 -233.45 -78.2 -238.6 -78.35 -243.45 M-74.35 -240.45 L-72.05 -245.15 -71.9 -245.5 -71.15 -246.9 M-58.4 -205.3 L-58.25 -204.35 -58.2 -204.25 M-10.2 -211.15 L-13.45 -210.2 -18.35 -208.8 Q-20.85 -208.1 -23.25 -207.75 L-25.1 -207.5 M-5.25 -212.65 L-6.7 -212.2 -6.85 -212.15 -6.9 -212.15 M-5.0 -212.7 L-5.25 -212.65 M-70.4 -192.55 L-69.7 -190.65 Q-65.65 -180.8 -55.5 -174.35 M-86.7 -193.2 Q-83.15 -179.8 -75.85 -169.5 L-75.7 -169.25 M-89.75 -207.95 Q-90.6 -199.05 -89.55 -190.85" fill="none" stroke="#1a5283" stroke-linecap="round" stroke-linejoin="round" stroke-width="2.0"/>
    <path d="M-0.65 -315.6 Q9.95 -312.85 7.85 -308.0 5.75 -303.2 2.05 -304.5 -1.7 -305.85 -1.45 -310.7 -1.2 -315.55 -0.65 -315.6 M25.45 -319.15 Q31.75 -317.3 35.45 -312.65 36.45 -311.4 34.6 -309.65 32.75 -307.95 27.25 -310.7 21.7 -313.45 25.45 -319.15 M-65.9 -309.8 Q-61.3 -308.95 -62.9 -305.35 -64.5 -301.8 -69.15 -299.05 -73.85 -296.3 -76.8 -297.95 -79.75 -299.6 -78.75 -301.8 -78.15 -303.15 -76.0 -304.8 -71.4 -308.4 -65.9 -309.8 M-31.3 -313.6 Q-24.3 -311.15 -28.55 -303.5 L-29.65 -301.8 Q-32.6 -298.25 -34.5 -300.35 L-36.9 -302.8 Q-37.4 -303.15 -37.55 -307.2 -37.75 -311.25 -31.3 -313.6" fill="#245091" fill-rule="evenodd" stroke="none"/>
    <path d="M-24.4 -327.8 L-29.8 -324.75 Q-42.3 -337.8 -74.2 -336.8 -35.2 -355.75 -27.5 -328.25 -24.8 -342.5 -48.05 -355.7 -6.45 -358.85 -24.4 -327.8" fill="#132a4c" fill-rule="evenodd" stroke="none"/>
    <path d="M-24.4 -327.8 Q-6.45 -358.85 -48.05 -355.7 -24.8 -342.5 -27.5 -328.25 -35.2 -355.75 -74.2 -336.8 -42.3 -337.8 -29.8 -324.75" fill="none" stroke="#1a5283" stroke-linecap="round" stroke-linejoin="round" stroke-width="2.0"/>
    <path d="M-47.35 -197.6 Q-47.4 -200.5 -44.85 -204.3 L-40.8 -210.35 -38.95 -209.55 -38.75 -211.15 -33.25 -219.45 Q-29.4 -221.95 -29.2 -216.1 -29.4 -213.3 -31.5 -209.7 L-32.0 -204.3 Q-28.55 -209.35 -23.7 -204.15 L-19.8 -204.35 Q-16.9 -203.95 -16.55 -201.75 -15.7 -202.4 -12.8 -200.3 -9.9 -198.35 -9.5 -193.35 L-9.6 -193.5 Q-10.45 -194.95 -11.4 -196.0 -13.65 -198.5 -16.45 -198.9 -19.4 -201.65 -23.95 -201.7 L-23.95 -202.15 Q-27.25 -204.45 -31.55 -203.7 L-31.55 -204.3 -32.0 -204.3 -39.7 -204.4 -39.8 -204.4 -39.8 -203.9 -39.8 -199.4 Q-43.55 -199.0 -45.85 -198.2 L-47.35 -197.6 M-26.1 -143.65 L-27.9 -138.3 -33.45 -121.0 -33.65 -120.5 Q-39.4 -106.6 -43.65 -99.2 -60.1 -85.2 -71.95 -90.6 -78.25 -95.3 -74.6 -105.1 -70.95 -115.0 -70.1 -118.75 L-66.6 -123.75 Q-60.4 -132.0 -56.75 -138.3 -52.5 -145.55 -48.65 -153.1 -41.0 -141.15 -26.1 -143.65 M-38.95 -209.55 L-39.7 -204.4 -38.95 -209.55 M-23.7 -204.15 L-23.95 -201.7 -23.7 -204.15 M-16.45 -198.9 L-16.55 -201.75 -16.45 -198.9" fill="#ffe8d7" fill-rule="evenodd" stroke="none"/>
    <path d="M-45.85 -198.2 Q-43.55 -199.0 -39.8 -199.4 L-39.8 -203.9 -39.7 -204.4 -32.0 -204.3 -31.55 -204.3 -31.55 -203.7 Q-27.25 -204.45 -23.95 -202.15 L-23.95 -201.7 Q-19.4 -201.65 -16.45 -198.9 -13.65 -198.5 -11.4 -196.0 -11.55 -186.85 -14.45 -176.2 -17.4 -165.55 -23.15 -160.5 -26.9 -160.75 -30.15 -161.95 -40.6 -175.35 -43.35 -185.65 -46.1 -195.95 -45.85 -198.2 M-32.05 -203.8 L-32.0 -204.3 -32.05 -203.8 M-15.65 -192.2 L-16.45 -193.55 -16.45 -198.9 -16.45 -193.55 -15.65 -192.2 M-23.3 -193.85 L-23.95 -195.35 -23.95 -201.7 -23.95 -195.35 -23.3 -193.85 M-30.9 -195.15 L-31.55 -196.7 -31.55 -203.7 -31.55 -196.7 -30.9 -195.15 M-39.2 -190.35 Q-39.75 -193.95 -39.8 -199.4 -39.75 -193.95 -39.2 -190.35" fill="#233446" fill-rule="evenodd" stroke="none"/>
    <path d="M-9.5 -193.35 Q-9.5 -186.05 -11.25 -177.25 -11.65 -175.75 -13.6 -170.35 -15.6 -164.95 -18.85 -160.5 L-20.05 -160.45 -22.3 -160.45 -23.15 -160.5 Q-17.4 -165.55 -14.45 -176.2 -11.55 -186.85 -11.4 -196.0 -10.45 -194.95 -9.6 -193.5 L-9.5 -193.35 M-41.05 -170.0 L-44.25 -178.0 Q-47.1 -183.55 -47.8 -189.85 -48.6 -196.2 -47.35 -197.6 L-45.85 -198.2 Q-46.1 -195.95 -43.35 -185.65 -40.6 -175.35 -30.15 -161.95 -35.55 -163.95 -39.7 -168.55 L-40.6 -169.65 -41.05 -170.0" fill="#121b25" fill-rule="evenodd" stroke="none"/>
    <path d="M-24.4 -144.95 L-26.1 -143.65 Q-41.0 -141.15 -48.65 -153.1 -49.05 -155.4 -48.65 -157.15 -46.15 -155.6 -43.65 -155.1 -41.15 -154.6 -41.65 -156.4 L-45.3 -166.35 Q-44.65 -168.15 -43.5 -169.0 -41.85 -170.25 -41.05 -170.0 L-40.6 -169.65 -39.7 -168.55 Q-35.55 -163.95 -30.15 -161.95 -26.9 -160.75 -23.15 -160.5 L-22.3 -160.45 Q-25.95 -153.25 -32.75 -152.2 -27.1 -149.95 -25.7 -148.45 L-25.4 -144.1 -24.4 -144.95 M-44.25 -98.15 L-42.85 -91.75 Q-42.95 -84.0 -45.0 -76.35 L-48.6 -73.4 -48.65 -73.4 -50.0 -72.45 -49.6 -73.4 -49.55 -73.4 Q-50.1 -76.75 -49.55 -81.4 -48.9 -86.5 -46.9 -93.25 L-44.25 -98.15 M-101.75 -84.15 Q-100.1 -98.2 -88.4 -107.55 -76.7 -116.9 -73.1 -114.7 L-77.15 -109.35 Q-91.35 -94.2 -94.7 -87.0 -98.05 -79.85 -97.55 -73.4 L-97.6 -73.4 -97.9 -71.9 -97.95 -72.4 -98.0 -73.4 Q-102.45 -73.15 -102.35 -82.15 L-101.75 -84.15" fill="#4c97d9" fill-rule="evenodd" stroke="none"/>
    <path d="M-18.85 -160.5 Q-18.75 -154.7 -21.8 -151.8 L-21.85 -151.1 -22.0 -149.95 -22.0 -149.8 -22.05 -149.55 -22.15 -149.1 -22.25 -148.7 -22.3 -148.6 -22.3 -148.5 -24.4 -144.95 -25.4 -144.1 -25.7 -148.45 Q-27.1 -149.95 -32.75 -152.2 -25.95 -153.25 -22.3 -160.45 L-20.05 -160.45 -18.85 -160.5 M-45.0 -76.35 Q-47.6 -66.55 -53.4 -56.9 L-54.45 -55.95 -54.6 -55.85 -54.95 -55.6 -55.15 -55.4 -55.5 -55.1 -55.75 -54.9 -56.05 -54.65 -56.3 -54.5 Q-61.25 -49.0 -66.25 -45.5 -76.05 -38.65 -85.9 -39.45 -95.25 -40.2 -99.5 -45.5 -102.1 -48.7 -102.85 -53.5 -108.15 -73.55 -101.75 -84.15 L-102.35 -82.15 Q-102.45 -73.15 -98.0 -73.4 L-97.95 -72.4 -97.9 -71.9 -97.6 -73.4 -97.55 -73.4 Q-98.05 -79.85 -94.7 -87.0 -91.35 -94.2 -77.15 -109.35 -90.35 -87.65 -77.15 -77.95 -61.6 -71.5 -48.6 -90.15 L-46.9 -93.25 Q-48.9 -86.5 -49.55 -81.4 -50.1 -76.75 -49.55 -73.4 L-49.6 -73.4 -50.0 -72.45 -48.65 -73.4 -48.6 -73.4 -45.0 -76.35 M-48.65 -157.15 Q-48.15 -159.5 -46.25 -160.95 -46.1 -164.3 -45.3 -166.35 L-41.65 -156.4 Q-41.15 -154.6 -43.65 -155.1 -46.15 -155.6 -48.65 -157.15 M-49.55 -81.4 Q-54.3 -63.4 -61.4 -54.4 -66.05 -50.25 -73.1 -46.15 -84.95 -39.3 -92.4 -45.5 -94.1 -46.85 -95.6 -48.85 -99.95 -60.55 -97.9 -71.9 -99.95 -60.55 -95.6 -48.85 -94.1 -46.85 -92.4 -45.5 -84.95 -39.3 -73.1 -46.15 -66.05 -50.25 -61.4 -54.4 -54.3 -63.4 -49.55 -81.4" fill="#3572b4" fill-rule="evenodd" stroke="none"/>
    <path d="M-43.65 -99.2 L-44.25 -98.15 -46.9 -93.25 -48.6 -90.15 Q-61.6 -71.5 -77.15 -77.95 -90.35 -87.65 -77.15 -109.35 L-73.1 -114.7 -70.1 -118.75 Q-70.95 -115.0 -74.6 -105.1 -78.25 -95.3 -71.95 -90.6 -60.1 -85.2 -43.65 -99.2" fill="#e0bcaa" fill-rule="evenodd" stroke="none"/>
    <path d="M-47.35 -197.6 Q-47.4 -200.5 -44.85 -204.3 L-40.8 -210.35 -38.95 -209.55 -38.75 -211.15 -33.25 -219.45 Q-29.4 -221.95 -29.2 -216.1 -29.4 -213.3 -31.5 -209.7 L-32.0 -204.3 Q-28.55 -209.35 -23.7 -204.15 L-19.8 -204.35 Q-16.9 -203.95 -16.55 -201.75 -15.7 -202.4 -12.8 -200.3 -9.9 -198.35 -9.5 -193.35 -9.5 -186.05 -11.25 -177.25 -11.65 -175.75 -13.6 -170.35 -15.6 -164.95 -18.85 -160.5 -18.75 -154.7 -21.8 -151.8 L-21.85 -151.1 -22.0 -149.95 -22.0 -149.8 -22.05 -149.55 -22.15 -149.1 -22.25 -148.7 -22.3 -148.6 -22.3 -148.5 -24.4 -144.95 -26.1 -143.65 -27.9 -138.3 -33.45 -121.0 -33.65 -120.5 Q-39.4 -106.6 -43.65 -99.2 L-44.25 -98.15 -42.85 -91.75 Q-42.95 -84.0 -45.0 -76.35 -47.6 -66.55 -53.4 -56.9 L-54.45 -55.95 -54.6 -55.85 -54.95 -55.6 -55.15 -55.4 -55.5 -55.1 -55.75 -54.9 -56.05 -54.65 -56.3 -54.5 Q-61.25 -49.0 -66.25 -45.5 -76.05 -38.65 -85.9 -39.45 -95.25 -40.2 -99.5 -45.5 -102.1 -48.7 -102.85 -53.5 -108.15 -73.55 -101.75 -84.15 -100.1 -98.2 -88.4 -107.55 -76.7 -116.9 -73.1 -114.7 L-70.1 -118.75 -66.6 -123.75 Q-60.4 -132.0 -56.75 -138.3 -52.5 -145.55 -48.65 -153.1 -49.05 -155.4 -48.65 -157.15 -48.15 -159.5 -46.25 -160.95 -46.1 -164.3 -45.3 -166.35 -44.65 -168.15 -43.5 -169.0 -41.85 -170.25 -41.05 -170.0 L-44.25 -178.0 Q-47.1 -183.55 -47.8 -189.85 -48.6 -196.2 -47.35 -197.6 L-45.85 -198.2 Q-43.55 -199.0 -39.8 -199.4 L-39.8 -203.9 -39.8 -204.4 -39.7 -204.4 -38.95 -209.55 M-32.0 -204.3 L-31.55 -204.3 -31.55 -203.7 Q-27.25 -204.45 -23.95 -202.15 L-23.95 -201.7 -23.7 -204.15 M-32.0 -204.3 L-32.05 -203.8 M-39.8 -203.9 L-39.7 -204.4 -32.0 -204.3 M-16.55 -201.75 L-16.45 -198.9 Q-13.65 -198.5 -11.4 -196.0 -10.45 -194.95 -9.6 -193.5 L-9.5 -193.35 M-23.95 -201.7 Q-19.4 -201.65 -16.45 -198.9 L-16.45 -193.55 -15.65 -192.2 M-31.55 -203.7 L-31.55 -196.7 -30.9 -195.15 M-23.95 -201.7 L-23.95 -195.35 -23.3 -193.85 M-22.3 -160.45 L-23.15 -160.5 Q-26.9 -160.75 -30.15 -161.95 -35.55 -163.95 -39.7 -168.55 L-40.6 -169.65 -41.05 -170.0 M-22.3 -160.45 L-20.05 -160.45 -18.85 -160.5 M-73.1 -114.7 L-77.15 -109.35 Q-90.35 -87.65 -77.15 -77.95 -61.6 -71.5 -48.6 -90.15 L-46.9 -93.25 -44.25 -98.15 M-26.1 -143.65 Q-41.0 -141.15 -48.65 -153.1 M-101.75 -84.15 L-102.35 -82.15 M-97.9 -71.9 L-97.6 -73.4 M-97.55 -73.4 Q-98.05 -79.85 -94.7 -87.0 -91.35 -94.2 -77.15 -109.35 M-97.9 -71.9 Q-99.95 -60.55 -95.6 -48.85 -94.1 -46.85 -92.4 -45.5 -84.95 -39.3 -73.1 -46.15 -66.05 -50.25 -61.4 -54.4 -54.3 -63.4 -49.55 -81.4 -48.9 -86.5 -46.9 -93.25 M-39.8 -199.4 Q-39.75 -193.95 -39.2 -190.35" fill="none" stroke="#1a5283" stroke-linecap="round" stroke-linejoin="round" stroke-width="2.0"/>
  </g>
</svg>
