<?xml version="1.0" encoding="UTF-8" standalone="no"?>
<svg xmlns:xlink="http://www.w3.org/1999/xlink" height="129.35px" width="74.8px" xmlns="http://www.w3.org/2000/svg">
  <g transform="matrix(1.0, 0.0, 0.0, 1.0, 104.95, 173.5)">
    <path d="M-38.8 -123.3 L-38.25 -122.6 -38.6 -122.15 -38.8 -123.3 M-68.05 -109.55 Q-68.5 -110.95 -68.5 -112.3 -67.95 -114.85 -66.75 -116.35 -65.6 -115.0 -63.75 -114.6 -62.45 -114.3 -62.4 -115.5 -62.3 -118.35 -63.05 -121.15 -61.4 -123.95 -58.9 -125.3 L-57.85 -121.35 Q-57.1 -117.85 -52.55 -115.6 -50.15 -114.45 -47.55 -113.75 L-42.65 -113.0 Q-40.95 -114.05 -39.9 -115.15 L-40.45 -114.55 -40.95 -110.1 Q-47.95 -107.25 -50.6 -106.85 -49.35 -105.2 -45.0 -103.7 -47.85 -101.1 -51.6 -99.8 -53.1 -99.3 -54.2 -98.5 -55.3 -99.05 -57.05 -99.1 -59.1 -99.95 -61.25 -101.2 -66.75 -105.4 -68.05 -109.55" fill="#4c97d9" fill-rule="evenodd" stroke="none"/>
    <path d="M-37.25 -154.85 Q-36.45 -153.25 -39.85 -151.85 -43.05 -150.55 -43.15 -153.65 L-43.1 -154.1 -37.5 -154.8 -37.25 -154.85 M-61.1 -156.35 L-62.15 -157.15 Q-63.0 -158.15 -62.95 -159.85 -61.4 -162.55 -59.05 -165.5 L-45.55 -172.5 Q-43.6 -169.1 -44.95 -166.55 L-44.7 -167.15 -46.5 -166.75 Q-50.25 -165.9 -53.6 -164.1 -59.1 -161.1 -61.1 -156.35 M-52.55 -158.0 L-53.45 -156.55 -53.4 -156.75 -52.55 -158.0 M-43.6 -144.5 L-43.65 -144.5 -44.15 -145.2 -44.35 -145.4 -46.0 -146.65 -46.3 -146.8 -44.85 -147.1 -35.85 -147.65 -34.65 -146.45 -33.9 -145.7 -33.95 -145.7 -34.65 -146.45 -33.95 -145.7 -39.3 -144.6 -43.6 -144.5 -44.15 -145.2 -43.6 -144.5 M-92.0 -79.3 Q-78.0 -93.4 -68.05 -109.55 -66.75 -105.4 -61.25 -101.2 -59.1 -99.95 -57.05 -99.1 -55.2 -98.35 -53.4 -97.95 -55.2 -98.35 -57.05 -99.1 -55.3 -99.05 -54.2 -98.5 L-53.65 -98.15 -53.5 -98.05 -53.4 -97.95 Q-51.05 -95.8 -55.65 -86.15 -60.25 -76.5 -69.45 -65.5 -78.65 -54.55 -88.05 -53.75 L-89.7 -53.7 -92.45 -56.15 Q-94.9 -60.3 -96.65 -64.1 -98.45 -67.9 -96.95 -71.5 -95.5 -75.1 -92.0 -79.3" fill="#ffe8d7" fill-rule="evenodd" stroke="none"/>
    <path d="M-47.25 -152.8 L-48.3 -152.45 Q-45.25 -149.75 -44.85 -147.1 L-46.3 -146.8 -46.0 -146.65 -44.35 -145.4 -44.15 -145.2 -43.65 -144.5 -43.6 -144.5 Q-43.0 -143.65 -42.7 -142.55 L-43.25 -143.05 Q-47.15 -141.35 -46.5 -136.35 -44.95 -124.75 -47.55 -113.75 -50.15 -114.45 -52.55 -115.6 -57.1 -117.85 -57.85 -121.35 L-58.9 -125.3 -61.2 -133.85 Q-66.95 -145.25 -65.65 -153.8 -64.9 -156.6 -62.95 -159.85 -63.0 -158.15 -62.15 -157.15 L-62.85 -155.7 Q-64.45 -151.85 -62.05 -148.75 -60.75 -147.1 -59.8 -148.0 L-59.65 -148.15 -59.15 -149.05 Q-57.85 -152.0 -55.8 -154.45 L-56.15 -154.25 -56.25 -154.2 -56.6 -154.0 -55.8 -154.5 -55.75 -154.55 -54.7 -155.95 -53.75 -156.1 -54.1 -155.5 -53.4 -155.9 Q-49.0 -156.7 -47.25 -152.8 M-48.3 -152.45 L-52.6 -150.95 Q-55.65 -147.55 -55.15 -143.4 -55.65 -147.55 -52.6 -150.95 L-48.3 -152.45 M-54.1 -155.5 L-56.15 -154.25 -54.1 -155.5 M-52.85 -137.1 Q-52.4 -142.95 -49.1 -146.05 L-46.3 -146.8 -49.1 -146.05 Q-52.4 -142.95 -52.85 -137.1" fill="#233446" fill-rule="evenodd" stroke="none"/>
    <path d="M-43.1 -154.1 L-43.15 -153.65 Q-43.05 -150.55 -39.85 -151.85 -36.45 -153.25 -37.25 -154.85 L-36.9 -154.9 -31.8 -151.35 Q-34.4 -148.25 -37.85 -149.25 L-44.85 -147.1 Q-45.25 -149.75 -48.3 -152.45 L-47.25 -152.8 -46.0 -153.25 -43.1 -154.1 -46.0 -153.25 -47.25 -152.8 Q-49.0 -156.7 -53.4 -155.9 L-50.1 -157.95 Q-46.55 -158.7 -41.75 -157.95 L-37.5 -154.8 -43.1 -154.1 M-54.7 -155.95 Q-59.05 -155.3 -61.1 -156.35 -59.1 -161.1 -53.6 -164.1 -50.25 -165.9 -46.5 -166.75 L-44.7 -167.15 -44.95 -166.55 -49.2 -162.9 -49.7 -162.7 -52.55 -158.0 -53.4 -156.75 -53.45 -156.55 -53.75 -156.1 -54.7 -155.95 M-42.7 -142.55 Q-43.0 -143.65 -43.6 -144.5 L-39.3 -144.6 -33.95 -145.7 -31.15 -142.9 Q-33.8 -140.15 -37.3 -142.05 L-42.5 -141.1 -42.7 -142.55 M-46.95 -97.7 Q-55.55 -83.75 -63.1 -69.3 -66.85 -58.0 -72.7 -51.55 -78.8 -43.65 -92.0 -45.5 -104.2 -50.15 -103.95 -60.5 L-103.8 -62.75 Q-100.85 -69.85 -94.4 -76.95 L-92.0 -79.3 Q-95.5 -75.1 -96.95 -71.5 -98.45 -67.9 -96.65 -64.1 -94.9 -60.3 -92.45 -56.15 L-89.7 -53.7 -88.05 -53.75 Q-78.65 -54.55 -69.45 -65.5 -60.25 -76.5 -55.65 -86.15 -51.05 -95.8 -53.4 -97.95 L-46.95 -97.7" fill="#e0bcaa" fill-rule="evenodd" stroke="none"/>
    <path d="M-38.25 -122.6 Q-35.55 -119.05 -35.45 -116.8 -35.15 -109.85 -41.05 -105.65 -40.6 -101.0 -44.7 -98.25 L-46.95 -97.7 -53.4 -97.95 -53.5 -98.05 -53.65 -98.15 -54.2 -98.5 Q-53.1 -99.3 -51.6 -99.8 -47.85 -101.1 -45.0 -103.7 -49.35 -105.2 -50.6 -106.85 -47.95 -107.25 -40.95 -110.1 L-40.45 -114.55 -39.9 -115.15 -38.45 -118.55 -38.45 -118.6 -38.45 -118.7 -38.45 -119.55 -38.6 -121.9 -38.6 -122.15 -38.25 -122.6 M-66.75 -116.35 Q-65.85 -117.6 -64.5 -118.15 L-63.05 -121.15 Q-62.3 -118.35 -62.4 -115.5 -62.45 -114.3 -63.75 -114.6 -65.6 -115.0 -66.75 -116.35" fill="#3572b4" fill-rule="evenodd" stroke="none"/>
    <path d="M-62.15 -157.15 L-61.1 -156.35 Q-59.05 -155.3 -54.7 -155.95 L-55.75 -154.55 -55.8 -154.5 -56.6 -154.0 -56.25 -154.2 -57.45 -153.5 Q-59.45 -150.1 -59.65 -148.15 -59.45 -150.1 -57.45 -153.5 L-56.25 -154.2 -56.15 -154.25 -55.8 -154.45 Q-57.85 -152.0 -59.15 -149.05 L-59.65 -148.15 -59.8 -148.0 Q-60.75 -147.1 -62.05 -148.75 -64.45 -151.85 -62.85 -155.7 L-62.15 -157.15 M-47.55 -113.75 Q-44.95 -124.75 -46.5 -136.35 -47.15 -141.35 -43.25 -143.05 L-42.7 -142.55 -42.5 -141.1 -44.0 -140.85 -45.9 -136.05 Q-39.8 -129.0 -38.8 -123.3 L-38.6 -122.15 -38.6 -121.9 -38.45 -119.55 -38.45 -118.7 -38.45 -118.6 -38.45 -118.55 -39.9 -115.15 Q-40.95 -114.05 -42.65 -113.0 L-47.55 -113.75" fill="#121b25" fill-rule="evenodd" stroke="none"/>
    <path d="M-43.1 -154.1 L-46.0 -153.25 -47.25 -152.8 -48.3 -152.45 Q-45.25 -149.75 -44.85 -147.1 L-37.85 -149.25 Q-34.4 -148.25 -31.8 -151.35 L-36.9 -154.9 -37.25 -154.85 -37.5 -154.8 -43.1 -154.1 M-61.1 -156.35 L-62.15 -157.15 Q-63.0 -158.15 -62.95 -159.85 -61.4 -162.55 -59.05 -165.5 L-45.55 -172.5 Q-43.6 -169.1 -44.95 -166.55 L-49.2 -162.9 -49.7 -162.7 -52.55 -158.0 -53.45 -156.55 -53.75 -156.1 -53.4 -155.9 -50.1 -157.95 Q-46.55 -158.7 -41.75 -157.95 L-37.5 -154.8 M-59.8 -148.0 L-59.65 -148.15 Q-59.45 -150.1 -57.45 -153.5 L-56.25 -154.2 -56.15 -154.25 -54.1 -155.5 -53.4 -155.9 Q-49.0 -156.7 -47.25 -152.8 M-54.7 -155.95 Q-59.05 -155.3 -61.1 -156.35 M-58.9 -125.3 L-61.2 -133.85 Q-66.95 -145.25 -65.65 -153.8 -64.9 -156.6 -62.95 -159.85 M-53.75 -156.1 L-54.7 -155.95 M-53.75 -156.1 L-54.1 -155.5 M-55.15 -143.4 Q-55.65 -147.55 -52.6 -150.95 L-48.3 -152.45 M-44.15 -145.2 L-44.35 -145.4 -46.0 -146.65 -46.3 -146.8 -49.1 -146.05 Q-52.4 -142.95 -52.85 -137.1 M-42.7 -142.55 Q-43.0 -143.65 -43.6 -144.5 L-44.15 -145.2 M-42.5 -141.1 L-44.0 -140.85 -45.9 -136.05 Q-39.8 -129.0 -38.8 -123.3 L-38.25 -122.6 Q-35.55 -119.05 -35.45 -116.8 -35.15 -109.85 -41.05 -105.65 -40.6 -101.0 -44.7 -98.25 L-46.95 -97.7 Q-55.55 -83.75 -63.1 -69.3 -66.85 -58.0 -72.7 -51.55 -78.8 -43.65 -92.0 -45.5 -104.2 -50.15 -103.95 -60.5 L-103.8 -62.75 Q-100.85 -69.85 -94.4 -76.95 L-92.0 -79.3 Q-78.0 -93.4 -68.05 -109.55 -68.5 -110.95 -68.5 -112.3 -67.95 -114.85 -66.75 -116.35 -65.85 -117.6 -64.5 -118.15 L-63.05 -121.15 Q-61.4 -123.95 -58.9 -125.3 L-57.85 -121.35 Q-57.1 -117.85 -52.55 -115.6 -50.15 -114.45 -47.55 -113.75 L-42.65 -113.0 Q-40.95 -114.05 -39.9 -115.15 L-38.45 -118.55 -38.45 -118.6 -38.45 -118.7 -38.45 -119.55 -38.6 -121.9 M-38.6 -122.15 L-38.8 -123.3 M-46.3 -146.8 L-44.85 -147.1 -35.85 -147.65 -34.65 -146.45 -33.95 -145.7 -31.15 -142.9 Q-33.8 -140.15 -37.3 -142.05 L-42.5 -141.1 -42.7 -142.55 M-57.05 -99.1 Q-59.1 -99.95 -61.25 -101.2 -66.75 -105.4 -68.05 -109.55 M-53.4 -97.95 Q-55.2 -98.35 -57.05 -99.1 M-53.4 -97.95 L-46.95 -97.7" fill="none" stroke="#1a5283" stroke-linecap="round" stroke-linejoin="round" stroke-width="2.0"/>
  </g>
</svg>
