<?xml version="1.0" encoding="UTF-8" standalone="no"?>
<svg xmlns:xlink="http://www.w3.org/1999/xlink" height="324.9px" width="222.9px" xmlns="http://www.w3.org/2000/svg">
  <g transform="matrix(1.0, 0.0, 0.0, 1.0, 130.35, 363.25)">
    <path d="M46.85 -309.45 L39.9 -314.0 44.85 -311.1 46.85 -309.45 M-98.35 -252.05 L-98.05 -252.45 -98.0 -252.4 -98.35 -252.05" fill="#cccccc" fill-rule="evenodd" stroke="none"/>
    <path d="M29.55 -286.4 L29.75 -286.45 37.6 -287.25 39.45 -287.45 40.15 -287.5 40.35 -287.55 49.6 -288.4 52.5 -288.65 52.65 -288.35 26.5 -286.05 25.5 -285.95 28.9 -286.35 29.55 -286.4 M55.85 -281.5 L56.1 -280.9 Q59.95 -271.35 58.95 -265.2 50.0 -254.25 -0.9 -248.85 -32.8 -244.15 -49.15 -243.75 -51.7 -245.95 -54.65 -256.6 -53.0 -264.85 -49.5 -273.9 L-48.75 -274.05 -43.85 -275.1 -43.7 -275.15 -43.85 -275.1 -49.7 -273.35 Q-51.3 -269.15 -52.5 -265.05 -28.05 -272.65 10.3 -278.45 48.6 -284.3 55.85 -281.5 M59.0 -221.35 L53.25 -221.4 Q40.7 -221.9 27.9 -220.15 L27.85 -220.15 Q19.05 -218.95 10.05 -216.7 L9.3 -216.5 4.1 -215.2 -4.5 -212.85 -14.45 -213.15 Q-19.85 -213.2 -27.2 -212.85 -34.55 -212.5 -42.55 -220.9 -50.65 -229.35 -55.05 -239.55 -43.0 -238.6 -27.4 -240.8 L14.9 -246.55 Q39.9 -249.85 58.9 -261.9 60.0 -259.15 67.55 -244.7 75.05 -230.25 59.0 -221.35" fill="#4c97d9" fill-rule="evenodd" stroke="none"/>
    <path d="M40.35 -287.55 Q29.1 -296.95 26.2 -300.45 25.95 -299.8 26.25 -298.75 28.15 -292.65 29.55 -286.4 L28.9 -286.35 25.5 -285.95 -4.5 -282.05 -5.5 -281.9 -9.75 -281.25 -13.8 -296.3 Q-19.05 -290.35 -20.75 -280.9 L-20.95 -279.4 -42.7 -275.35 -42.15 -275.85 Q-39.8 -278.3 -39.1 -294.85 -50.9 -285.5 -56.7 -268.05 -62.55 -250.65 -59.8 -241.55 L-56.95 -232.0 -56.65 -231.75 Q-61.2 -235.4 -64.2 -239.75 L-65.25 -241.35 Q-67.0 -244.25 -68.1 -247.45 -71.2 -256.1 -69.7 -266.95 L-69.4 -267.85 Q-68.4 -271.1 -68.35 -273.95 -68.2 -279.9 -71.9 -284.25 -84.7 -264.9 -107.45 -259.85 L-107.1 -260.15 -106.05 -261.1 -104.25 -262.85 Q-103.75 -267.0 -102.55 -270.85 -99.8 -279.6 -93.5 -286.9 L-96.8 -286.3 Q-115.75 -283.4 -129.35 -294.8 -124.8 -294.5 -120.05 -294.9 -99.2 -296.85 -75.55 -313.65 -73.75 -314.6 -71.9 -315.65 -43.65 -331.45 -9.7 -329.0 17.05 -326.7 39.9 -314.0 L46.85 -309.45 Q70.85 -294.4 78.0 -299.55 76.55 -297.0 74.75 -295.05 L72.9 -293.3 Q65.45 -291.85 57.35 -294.0 53.25 -295.1 49.65 -294.15 47.9 -293.7 49.15 -292.65 52.6 -289.75 56.5 -288.2 L57.15 -287.1 53.95 -285.7 53.1 -287.45 52.65 -288.35 52.5 -288.65 49.6 -288.4 40.35 -287.55 M-89.35 -287.95 L-93.5 -286.9 -89.35 -287.95 M26.25 -211.1 Q24.4 -197.5 27.9 -189.8 20.55 -192.8 16.25 -198.2 13.3 -201.85 11.8 -206.5 13.9 -210.05 26.25 -211.1 M8.25 -203.7 L8.2 -203.4 Q7.35 -190.05 11.95 -182.0 8.3 -184.45 5.35 -187.15 -1.15 -193.05 -4.15 -200.2 -0.1 -205.5 8.25 -203.7 M-9.4 -198.7 Q-10.45 -188.9 -8.25 -182.25 -13.65 -185.25 -17.1 -189.2 -20.15 -192.65 -21.65 -196.85 L-9.45 -198.05 -9.4 -198.7 M-55.05 -202.45 Q-50.15 -186.5 -37.85 -174.85 L-43.95 -175.15 Q-49.5 -175.8 -54.05 -177.9 L-52.55 -175.15 Q-43.75 -159.6 -31.85 -150.85 L-36.7 -151.8 Q-74.5 -180.15 -87.6 -215.8 -89.6 -202.5 -86.5 -190.85 L-87.75 -189.3 Q-90.3 -186.55 -94.05 -184.75 -90.8 -187.65 -88.0 -191.2 L-86.95 -192.65 Q-88.55 -199.6 -88.35 -207.1 -89.0 -206.9 -88.7 -204.9 -88.45 -202.9 -93.65 -196.45 -98.85 -190.05 -104.2 -188.15 -109.55 -186.3 -116.7 -181.65 L-113.7 -184.2 -110.9 -186.75 Q-99.2 -198.75 -94.2 -218.6 -91.35 -221.25 -92.75 -224.75 -93.3 -226.05 -94.35 -227.4 -104.2 -217.2 -120.1 -214.75 -116.35 -216.75 -112.65 -219.45 -106.2 -224.25 -99.95 -231.3 L-99.4 -231.95 -94.7 -237.0 Q-89.65 -242.45 -93.15 -239.8 L-94.35 -241.1 Q-103.5 -234.4 -115.7 -234.65 L-123.9 -234.1 -125.5 -235.65 Q-122.4 -236.0 -119.2 -237.05 -113.55 -239.0 -107.7 -243.45 -106.75 -244.45 -106.05 -245.85 -105.35 -247.4 -104.9 -249.4 -104.35 -252.1 -104.35 -255.7 L-99.85 -256.6 -99.75 -256.65 -97.45 -257.25 -98.0 -252.4 -98.05 -252.45 -98.35 -252.05 Q-100.0 -249.9 -102.05 -248.3 -104.9 -245.6 -107.7 -243.45 -104.9 -245.6 -102.05 -248.3 -100.0 -249.9 -98.35 -252.05 L-98.0 -252.4 Q-94.35 -251.15 -89.55 -250.2 L-82.8 -249.1 Q-79.75 -244.0 -73.7 -240.0 L-67.1 -235.3 Q-66.35 -221.65 -60.5 -209.2 -58.45 -204.9 -55.05 -202.45 M4.1 -215.2 Q-1.05 -213.35 -6.35 -212.3 L-5.2 -212.65 -4.5 -212.85 4.1 -215.2 M-67.1 -278.4 L-68.35 -273.95 -67.1 -278.4 M-85.85 -262.4 Q-90.4 -259.45 -96.35 -257.55 -91.05 -259.5 -85.95 -262.35 L-85.85 -262.4 M-93.2 -277.95 Q-98.5 -268.7 -104.25 -262.85 -98.5 -268.7 -93.2 -277.95 M-92.45 -240.8 L-93.15 -239.8 -92.45 -240.8 M-87.15 -218.5 L-87.6 -215.8 -87.15 -218.5 M-110.95 -212.0 Q-105.55 -213.5 -100.35 -215.3 -98.15 -216.05 -96.55 -216.95 -103.0 -211.9 -110.95 -212.0 M-68.6 -192.8 Q-63.5 -182.25 -54.05 -177.9 -63.5 -182.25 -68.6 -192.8" fill="#132a4c" fill-rule="evenodd" stroke="none"/>
    <path d="M53.95 -285.7 L57.15 -287.1 Q62.5 -278.45 61.5 -269.45 L58.95 -265.2 Q59.95 -271.35 56.1 -280.9 L55.85 -281.5 53.95 -285.7 M-54.65 -256.6 Q-51.7 -245.95 -49.15 -243.75 -32.8 -244.15 -0.9 -248.85 50.0 -254.25 58.95 -265.2 L66.0 -251.85 76.3 -232.35 Q76.25 -229.3 74.75 -227.1 L73.1 -225.35 70.75 -223.8 Q66.9 -221.9 60.4 -221.45 L60.35 -221.45 59.0 -221.35 Q75.05 -230.25 67.55 -244.7 60.0 -259.15 58.9 -261.9 39.9 -249.85 14.9 -246.55 L-27.4 -240.8 Q-43.0 -238.6 -55.05 -239.55 -50.65 -229.35 -42.55 -220.9 -34.55 -212.5 -27.2 -212.85 -19.85 -213.2 -14.45 -213.15 L-4.5 -212.85 -5.2 -212.65 -6.35 -212.3 -6.9 -212.15 -9.05 -211.5 -13.45 -210.2 -18.35 -208.8 -23.2 -207.75 -23.25 -207.75 Q-35.05 -206.05 -44.35 -212.45 L-48.15 -215.5 Q-54.4 -221.4 -58.35 -227.1 L-58.4 -227.2 -59.7 -229.2 -59.65 -229.15 -60.1 -229.85 -62.5 -234.55 -62.9 -235.55 -63.15 -236.25 -63.45 -237.0 -64.1 -239.2 -64.2 -239.75 Q-61.2 -235.4 -56.65 -231.75 L-55.3 -230.7 -55.05 -230.55 Q-56.0 -234.95 -56.2 -239.65 L-56.2 -243.85 Q-56.05 -249.95 -54.65 -256.6 M-98.0 -252.4 L-97.45 -257.25 -96.35 -257.55 Q-90.4 -259.45 -85.85 -262.4 L-81.55 -265.8 -81.45 -265.9 Q-80.15 -267.15 -79.0 -268.55 L-78.3 -269.45 -78.05 -269.75 -69.4 -268.8 -69.7 -266.95 Q-71.2 -256.1 -68.1 -247.45 L-69.0 -247.5 -82.8 -249.1 -89.55 -250.2 Q-94.35 -251.15 -98.0 -252.4 M-56.2 -243.85 L-51.2 -243.75 -49.15 -243.75 -51.2 -243.75 -56.2 -243.85" fill="#3572b4" fill-rule="evenodd" stroke="none"/>
    <path d="M52.65 -288.35 L53.1 -287.45 53.95 -285.7 55.85 -281.5 Q48.6 -284.3 10.3 -278.45 -28.05 -272.65 -52.5 -265.05 -51.3 -269.15 -49.7 -273.35 L-43.85 -275.1 -43.7 -275.15 -43.2 -275.25 -42.7 -275.35 -20.95 -279.4 -20.4 -279.5 -10.25 -281.2 -9.75 -281.25 -5.5 -281.9 -4.5 -282.05 25.5 -285.95 26.5 -286.05 52.65 -288.35" fill="#79c7ff" fill-rule="evenodd" stroke="none"/>
    <path d="M29.55 -286.4 Q28.15 -292.65 26.25 -298.75 25.95 -299.8 26.2 -300.45 29.1 -296.95 40.35 -287.55 L40.15 -287.5 39.45 -287.45 37.6 -287.25 29.75 -286.45 29.55 -286.4 M56.5 -288.2 Q52.6 -289.75 49.15 -292.65 47.9 -293.7 49.65 -294.15 53.25 -295.1 57.35 -294.0 65.45 -291.85 72.9 -293.3 L72.1 -292.7 Q66.0 -288.25 56.75 -289.2 L55.8 -289.3 55.75 -289.35 56.5 -288.2 M72.1 -292.7 L72.9 -293.3 72.1 -292.7 M58.95 -265.2 L61.5 -269.45 61.55 -269.4 Q71.6 -263.85 79.95 -267.75 79.4 -264.7 78.2 -262.15 74.75 -255.2 66.15 -251.85 L66.05 -251.85 Q76.45 -236.25 91.55 -237.0 89.7 -233.55 87.4 -231.3 82.15 -226.15 74.75 -227.1 76.25 -229.3 76.3 -232.35 L66.0 -251.85 58.95 -265.2 M-43.7 -275.15 L-43.85 -275.1 -48.75 -274.05 -49.5 -273.9 Q-53.0 -264.85 -54.65 -256.6 -56.05 -249.95 -56.2 -243.85 L-56.2 -239.65 Q-56.0 -234.95 -55.05 -230.55 L-55.3 -230.7 -56.65 -231.75 -56.95 -232.0 -59.8 -241.55 Q-62.55 -250.65 -56.7 -268.05 -50.9 -285.5 -39.1 -294.85 -39.8 -278.3 -42.15 -275.85 L-42.7 -275.35 -43.2 -275.25 -43.7 -275.15 M66.15 -251.85 L66.0 -251.85 66.15 -251.85 M27.9 -220.15 Q26.8 -215.35 26.25 -211.1 13.9 -210.05 11.8 -206.5 10.3 -211.1 10.1 -216.7 L10.05 -216.35 9.6 -212.15 9.3 -209.85 8.95 -207.55 8.85 -207.0 8.25 -203.7 Q-0.1 -205.5 -4.15 -200.2 -6.55 -205.8 -6.85 -212.15 L-7.0 -211.55 -7.2 -210.7 -8.55 -204.35 -9.4 -198.7 -9.45 -198.05 -21.65 -196.85 Q-23.45 -201.8 -23.2 -207.75 L-18.35 -208.8 -13.45 -210.2 -9.05 -211.5 -6.9 -212.15 -6.35 -212.3 Q-1.05 -213.35 4.1 -215.2 L9.3 -216.5 10.05 -216.7 10.05 -216.35 10.05 -216.7 Q19.05 -218.95 27.85 -220.15 L27.9 -220.15 M-58.35 -227.1 Q-58.55 -213.7 -55.05 -202.45 -58.45 -204.9 -60.5 -209.2 -66.35 -221.65 -67.1 -235.3 L-73.7 -240.0 Q-79.75 -244.0 -82.8 -249.1 L-69.0 -247.5 -68.1 -247.45 Q-67.0 -244.25 -65.25 -241.35 L-64.2 -239.75 -64.1 -239.2 -63.45 -237.0 -63.15 -236.25 -62.9 -235.55 -62.5 -234.55 -60.1 -229.85 -59.65 -229.15 -59.7 -229.2 -58.4 -227.2 -58.35 -227.1 M-7.0 -211.55 L-6.9 -212.15 -7.0 -211.55 M-104.35 -255.7 L-109.05 -255.05 -116.35 -254.55 -116.05 -254.65 -115.75 -254.75 -108.5 -259.05 -107.5 -259.85 -107.45 -259.85 Q-84.7 -264.9 -71.9 -284.25 -68.2 -279.9 -68.35 -273.95 -68.4 -271.1 -69.4 -267.85 L-69.7 -266.95 -69.4 -268.8 -78.05 -269.75 -78.3 -269.45 -79.0 -268.55 Q-80.15 -267.15 -81.45 -265.9 L-81.55 -265.8 -85.85 -262.4 -85.95 -262.35 Q-91.05 -259.5 -96.35 -257.55 L-97.45 -257.25 -99.75 -256.65 -99.75 -257.6 -99.85 -256.6 -104.35 -255.7 M-107.45 -259.85 L-108.5 -259.05 -107.45 -259.85 M-69.4 -268.8 L-68.35 -273.95 -69.4 -268.8 M-123.9 -234.1 L-115.7 -234.65 Q-103.5 -234.4 -94.35 -241.1 L-93.15 -239.8 Q-89.65 -242.45 -94.7 -237.0 L-99.4 -231.95 -99.95 -231.3 -99.4 -231.95 -98.45 -233.05 Q-95.75 -236.25 -93.15 -239.8 -95.75 -236.25 -98.45 -233.05 -104.3 -229.5 -109.6 -229.0 L-112.45 -228.95 -114.9 -229.3 -115.5 -229.45 -117.3 -230.0 -117.5 -230.1 -117.6 -230.15 -123.55 -233.8 -123.9 -234.1 M-120.1 -214.75 Q-104.2 -217.2 -94.35 -227.4 -93.3 -226.05 -92.75 -224.75 -91.35 -221.25 -94.2 -218.6 L-94.1 -219.0 -94.2 -218.6 -94.1 -219.0 -94.05 -219.15 -95.75 -217.6 -96.1 -217.25 -96.55 -216.95 -96.1 -217.25 -96.5 -216.95 -96.55 -216.95 Q-98.15 -216.05 -100.35 -215.3 -105.55 -213.5 -110.95 -212.0 L-112.3 -212.05 Q-115.65 -212.3 -119.2 -213.35 L-121.15 -214.05 -121.35 -214.1 -120.1 -214.75 M-116.7 -181.65 Q-109.55 -186.3 -104.2 -188.15 -98.85 -190.05 -93.65 -196.45 -88.45 -202.9 -88.7 -204.9 -89.0 -206.9 -88.35 -207.1 -88.55 -199.6 -86.95 -192.65 L-88.0 -191.2 Q-90.8 -187.65 -94.05 -184.75 L-95.1 -184.3 Q-103.1 -180.95 -116.2 -181.6 L-116.7 -181.65 M-86.5 -190.85 Q-89.6 -202.5 -87.6 -215.8 -74.5 -180.15 -36.7 -151.8 L-41.5 -153.1 Q-53.75 -156.9 -63.25 -164.45 L-55.05 -151.85 Q-61.2 -155.8 -66.15 -160.1 -81.9 -173.7 -86.5 -190.85 M-92.75 -224.75 L-94.05 -219.15 -92.75 -224.75 M-20.95 -279.4 L-20.75 -280.9 Q-19.05 -290.35 -13.8 -296.3 L-9.75 -281.25 -10.25 -281.2 -20.4 -279.5 -20.95 -279.4 M-78.05 -269.75 L-75.75 -273.5 -78.05 -269.75 M-45.9 -282.45 L-49.5 -273.9 -45.9 -282.45 M-60.1 -229.85 L-59.7 -229.2 -60.1 -229.85 M-82.95 -189.75 Q-75.25 -174.05 -63.25 -164.45 -75.25 -174.05 -82.95 -189.75 M-94.05 -184.75 L-95.1 -184.3 -94.05 -184.75" fill="#091425" fill-rule="evenodd" stroke="none"/>
    <path d="M29.55 -286.4 L29.75 -286.45 37.6 -287.25 39.45 -287.45 40.15 -287.5 M40.35 -287.55 L49.6 -288.4 52.5 -288.65 52.65 -288.35 53.1 -287.45 53.95 -285.7 57.15 -287.1 56.5 -288.2 55.75 -289.35 55.8 -289.3 56.75 -289.2 Q66.0 -288.25 72.1 -292.7 L72.9 -293.3 74.75 -295.05 Q76.55 -297.0 78.0 -299.55 70.85 -294.4 46.85 -309.45 L39.9 -314.0 Q17.05 -326.7 -9.7 -329.0 -43.65 -331.45 -71.9 -315.65 -73.75 -314.6 -75.55 -313.65 -99.2 -296.85 -120.05 -294.9 -124.8 -294.5 -129.35 -294.8 -115.75 -283.4 -96.8 -286.3 L-93.5 -286.9 -89.35 -287.95 M39.9 -314.0 L44.85 -311.1 46.85 -309.45 M55.85 -281.5 L56.1 -280.9 Q59.95 -271.35 58.95 -265.2 L61.5 -269.45 Q62.5 -278.45 57.15 -287.1 M53.95 -285.7 L55.85 -281.5 M-43.7 -275.15 L-43.85 -275.1 -48.75 -274.05 -49.5 -273.9 Q-53.0 -264.85 -54.65 -256.6 -56.05 -249.95 -56.2 -243.85 L-56.2 -239.65 Q-56.0 -234.95 -55.05 -230.55 L-55.3 -230.7 -56.65 -231.75 Q-61.2 -235.4 -64.2 -239.75 L-64.1 -239.2 -63.45 -237.0 -63.15 -236.25 -62.9 -235.55 -62.5 -234.55 -60.1 -229.85 -59.7 -229.2 -58.4 -227.2 -58.35 -227.1 Q-58.55 -213.7 -55.05 -202.45 -50.15 -186.5 -37.85 -174.85 L-43.95 -175.15 Q-49.5 -175.8 -54.05 -177.9 L-52.55 -175.15 Q-43.75 -159.6 -31.85 -150.85 L-36.7 -151.8 -31.0 -147.7 M-49.15 -243.75 Q-32.8 -244.15 -0.9 -248.85 50.0 -254.25 58.95 -265.2 L66.0 -251.85 66.15 -251.85 Q74.75 -255.2 78.2 -262.15 79.4 -264.7 79.95 -267.75 71.6 -263.85 61.55 -269.4 L61.5 -269.45 M66.15 -251.85 L66.05 -251.85 Q76.45 -236.25 91.55 -237.0 89.7 -233.55 87.4 -231.3 82.15 -226.15 74.75 -227.1 L73.1 -225.35 70.75 -223.8 Q66.9 -221.9 60.4 -221.45 L60.35 -221.45 59.0 -221.35 53.25 -221.4 Q40.7 -221.9 27.9 -220.15 26.8 -215.35 26.25 -211.1 24.4 -197.5 27.9 -189.8 20.55 -192.8 16.25 -198.2 13.3 -201.85 11.8 -206.5 10.3 -211.1 10.1 -216.7 L10.05 -216.35 9.6 -212.15 9.3 -209.85 8.95 -207.55 8.85 -207.0 8.25 -203.7 8.2 -203.4 Q7.35 -190.05 11.95 -182.0 8.3 -184.45 5.35 -187.15 -1.15 -193.05 -4.15 -200.2 -6.55 -205.8 -6.85 -212.15 L-7.0 -211.55 -7.2 -210.7 -8.55 -204.35 -9.4 -198.7 Q-10.45 -188.9 -8.25 -182.25 -13.65 -185.25 -17.1 -189.2 -20.15 -192.65 -21.65 -196.85 -23.45 -201.8 -23.2 -207.75 L-23.25 -207.75 Q-35.05 -206.05 -44.35 -212.45 L-48.15 -215.5 Q-54.4 -221.4 -58.35 -227.1 M25.5 -285.95 L28.9 -286.35 29.55 -286.4 M10.05 -216.7 L9.3 -216.5 4.1 -215.2 -4.5 -212.85 M-6.35 -212.3 L-6.9 -212.15 -7.0 -211.55 M10.05 -216.35 L10.05 -216.7 Q19.05 -218.95 27.85 -220.15 L27.9 -220.15 M66.0 -251.85 L76.3 -232.35 Q76.25 -229.3 74.75 -227.1 M-107.45 -259.85 L-107.1 -260.15 -106.05 -261.1 -104.25 -262.85 Q-103.75 -267.0 -102.55 -270.85 -99.8 -279.6 -93.5 -286.9 M-104.35 -255.7 L-109.05 -255.05 -116.35 -254.55 -116.05 -254.65 -115.75 -254.75 -108.5 -259.05 -107.45 -259.85 M-68.35 -273.95 L-67.1 -278.4 M-104.35 -255.7 Q-104.35 -252.1 -104.9 -249.4 -105.35 -247.4 -106.05 -245.85 -106.75 -244.45 -107.7 -243.45 -104.9 -245.6 -102.05 -248.3 -100.0 -249.9 -98.35 -252.05 L-98.05 -252.45 -98.0 -252.4 -97.45 -257.25 -99.75 -256.65 -99.85 -256.6 -104.35 -255.7 M-69.7 -266.95 L-69.4 -268.8 -78.05 -269.75 -78.3 -269.45 -79.0 -268.55 Q-80.15 -267.15 -81.45 -265.9 L-81.55 -265.8 -85.85 -262.4 Q-90.4 -259.45 -96.35 -257.55 L-97.45 -257.25 M-98.0 -252.4 L-98.35 -252.05 M-98.0 -252.4 Q-94.35 -251.15 -89.55 -250.2 L-82.8 -249.1 M-69.0 -247.5 L-68.1 -247.45 Q-71.2 -256.1 -69.7 -266.95 M-68.35 -273.95 L-69.4 -268.8 M-104.25 -262.85 Q-98.5 -268.7 -93.2 -277.95 M-107.7 -243.45 Q-113.55 -239.0 -119.2 -237.05 -122.4 -236.0 -125.5 -235.65 L-123.9 -234.1 M-93.15 -239.8 L-92.45 -240.8 M-99.4 -231.95 L-99.95 -231.3 Q-106.2 -224.25 -112.65 -219.45 -116.35 -216.75 -120.1 -214.75 L-121.35 -214.1 -121.15 -214.05 -119.2 -213.35 Q-115.65 -212.3 -112.3 -212.05 L-110.95 -212.0 Q-103.0 -211.9 -96.55 -216.95 L-96.1 -217.25 -95.75 -217.6 -94.05 -219.15 -92.75 -224.75 M-94.2 -218.6 Q-99.2 -198.75 -110.9 -186.75 L-113.7 -184.2 -116.7 -181.65 -116.2 -181.6 Q-103.1 -180.95 -95.1 -184.3 L-94.05 -184.75 Q-90.3 -186.55 -87.75 -189.3 L-86.5 -190.85 Q-89.6 -202.5 -87.6 -215.8 L-87.15 -218.5 M-98.45 -233.05 L-99.4 -231.95 M-93.15 -239.8 Q-95.75 -236.25 -98.45 -233.05 -104.3 -229.5 -109.6 -229.0 L-112.45 -228.95 -114.9 -229.3 -115.5 -229.45 -117.3 -230.0 -117.5 -230.1 -117.6 -230.15 -123.55 -233.8 M-94.1 -219.0 L-94.2 -218.6 M-94.1 -219.0 L-94.05 -219.15 M-9.75 -281.25 L-5.5 -281.9 -4.5 -282.05 25.5 -285.95 M-20.95 -279.4 L-20.4 -279.5 -10.25 -281.2 -9.75 -281.25 M-42.7 -275.35 L-20.95 -279.4 M-43.7 -275.15 L-43.2 -275.25 -42.7 -275.35 M-49.5 -273.9 L-45.9 -282.45 M-75.75 -273.5 L-78.05 -269.75 M-49.15 -243.75 L-51.2 -243.75 -56.2 -243.85 M-68.1 -247.45 Q-67.0 -244.25 -65.25 -241.35 L-64.2 -239.75 M-6.9 -212.15 L-9.05 -211.5 -13.45 -210.2 -18.35 -208.8 -23.2 -207.75 M-5.2 -212.65 L-6.35 -212.3 M-54.05 -177.9 Q-63.5 -182.25 -68.6 -192.8 M-36.7 -151.8 L-41.5 -153.1 Q-53.75 -156.9 -63.25 -164.45 L-55.05 -151.85 Q-61.2 -155.8 -66.15 -160.1 -81.9 -173.7 -86.5 -190.85 M-63.25 -164.45 Q-75.25 -174.05 -82.95 -189.75" fill="none" stroke="#1a5283" stroke-linecap="round" stroke-linejoin="round" stroke-width="2.0"/>
    <path d="M25.45 -319.15 Q31.75 -317.3 35.45 -312.65 36.45 -311.4 34.6 -309.85 32.75 -308.3 26.5 -311.25 20.2 -314.2 25.45 -319.15 M-0.65 -315.6 Q9.95 -312.85 8.1 -307.9 6.25 -302.95 2.4 -305.4 -1.5 -307.9 -1.35 -311.7 -1.2 -315.55 -0.65 -315.6 M-67.0 -309.6 Q-59.6 -306.1 -64.25 -301.8 L-65.4 -300.85 Q-71.95 -296.0 -76.75 -298.2 -79.75 -299.6 -77.7 -302.35 -75.65 -305.1 -73.1 -307.05 -70.55 -309.05 -67.0 -309.6 M-31.3 -313.6 Q-24.3 -311.15 -26.35 -306.8 -28.4 -302.5 -30.45 -300.35 -32.5 -298.25 -34.7 -300.2 L-36.8 -302.4 -36.95 -307.05 Q-37.15 -311.5 -31.3 -313.6" fill="#245091" fill-rule="evenodd" stroke="none"/>
    <path d="M-24.4 -327.8 L-29.8 -324.75 Q-36.55 -339.7 -62.2 -353.2 -29.15 -355.75 -27.5 -328.25 -24.8 -342.5 -28.9 -362.25 -6.45 -358.85 -24.4 -327.8" fill="#132a4c" fill-rule="evenodd" stroke="none"/>
    <path d="M-24.4 -327.8 Q-6.45 -358.85 -28.9 -362.25 -24.8 -342.5 -27.5 -328.25 -29.15 -355.75 -62.2 -353.2 -36.55 -339.7 -29.8 -324.75" fill="none" stroke="#1a5283" stroke-linecap="round" stroke-linejoin="round" stroke-width="2.0"/>
    <path d="M-24.4 -144.95 L-26.1 -143.65 Q-41.0 -141.15 -48.65 -153.1 -49.05 -155.4 -48.65 -157.15 -46.15 -155.6 -43.65 -155.1 -41.15 -154.6 -41.65 -156.4 L-45.3 -166.35 Q-44.65 -168.15 -43.5 -169.0 -41.85 -170.25 -41.05 -170.0 L-40.6 -169.65 -39.7 -168.55 Q-35.55 -163.95 -30.15 -161.95 -26.9 -160.75 -23.15 -160.5 L-22.3 -160.45 Q-25.95 -153.25 -32.75 -152.2 -27.1 -149.95 -25.7 -148.45 L-25.4 -144.1 -24.4 -144.95 M-44.25 -98.15 Q-41.25 -87.75 -41.65 -79.1 L-45.85 -75.65 -45.7 -75.65 -48.95 -72.45 -48.8 -75.65 -48.95 -75.65 Q-47.2 -83.45 -46.9 -93.25 L-44.25 -98.15 M-102.35 -82.15 Q-101.3 -93.6 -93.05 -101.75 -79.5 -115.25 -73.1 -114.7 L-77.15 -109.35 Q-87.2 -101.1 -92.4 -91.15 -94.0 -88.15 -95.15 -84.95 -96.65 -80.9 -97.2 -76.75 L-102.35 -82.15" fill="#4c97d9" fill-rule="evenodd" stroke="none"/>
    <path d="M-45.85 -198.2 Q-43.55 -199.0 -39.8 -199.4 L-39.8 -203.9 -39.7 -204.4 -32.0 -204.3 -31.55 -204.3 -31.55 -203.7 Q-27.25 -204.45 -23.95 -202.15 L-23.95 -201.7 Q-19.4 -201.65 -16.45 -198.9 -13.65 -198.5 -11.4 -196.0 -11.55 -186.85 -14.45 -176.2 -17.4 -165.55 -23.15 -160.5 -26.9 -160.75 -30.15 -161.95 -40.6 -175.35 -43.35 -185.65 -46.1 -195.95 -45.85 -198.2 M-32.05 -203.8 L-32.0 -204.3 -32.05 -203.8 M-15.65 -192.2 L-16.45 -193.55 -16.45 -198.9 -16.45 -193.55 -15.65 -192.2 M-23.3 -193.85 L-23.95 -195.35 -23.95 -201.7 -23.95 -195.35 -23.3 -193.85 M-30.9 -195.15 L-31.55 -196.7 -31.55 -203.7 -31.55 -196.7 -30.9 -195.15 M-39.2 -190.35 Q-39.75 -193.95 -39.8 -199.4 -39.75 -193.95 -39.2 -190.35" fill="#233446" fill-rule="evenodd" stroke="none"/>
    <path d="M-47.35 -197.6 Q-47.4 -200.5 -44.85 -204.3 L-40.8 -210.35 -38.95 -209.55 -38.75 -211.15 -33.25 -219.45 Q-29.4 -221.95 -29.2 -216.1 -29.4 -213.3 -31.5 -209.7 L-32.0 -204.3 Q-28.2 -209.1 -23.7 -204.15 L-19.8 -204.35 Q-16.9 -203.95 -16.55 -201.75 -15.7 -202.4 -12.8 -200.3 -9.9 -198.35 -9.5 -193.35 L-9.6 -193.5 Q-10.45 -194.95 -11.4 -196.0 -13.65 -198.5 -16.45 -198.9 -19.4 -201.65 -23.95 -201.7 L-23.95 -202.15 Q-27.25 -204.45 -31.55 -203.7 L-31.55 -204.3 -32.0 -204.3 -39.7 -204.4 -39.8 -204.4 -39.8 -203.9 -39.8 -199.4 Q-43.55 -199.0 -45.85 -198.2 L-47.35 -197.6 M-26.1 -143.65 L-27.9 -138.3 -33.45 -121.0 -33.65 -120.5 Q-39.4 -106.6 -43.65 -99.2 -60.1 -85.2 -71.95 -90.6 -78.25 -95.3 -74.6 -105.1 -70.95 -115.0 -70.1 -118.75 L-66.6 -123.75 Q-60.4 -132.0 -56.75 -138.3 -52.5 -145.55 -48.65 -153.1 -41.0 -141.15 -26.1 -143.65 M-38.95 -209.55 L-39.7 -204.4 -38.95 -209.55 M-23.7 -204.15 L-23.95 -201.7 -23.7 -204.15 M-16.45 -198.9 L-16.55 -201.75 -16.45 -198.9" fill="#ffe8d7" fill-rule="evenodd" stroke="none"/>
    <path d="M-43.65 -99.2 L-44.25 -98.15 -46.9 -93.25 -48.6 -90.15 Q-61.6 -71.5 -77.15 -77.95 -90.35 -87.65 -77.15 -109.35 L-73.1 -114.7 -70.1 -118.75 Q-70.95 -115.0 -74.6 -105.1 -78.25 -95.3 -71.95 -90.6 -60.1 -85.2 -43.65 -99.2" fill="#e0bcaa" fill-rule="evenodd" stroke="none"/>
    <path d="M-18.85 -160.5 Q-18.75 -154.7 -21.8 -151.8 L-21.85 -151.1 -22.0 -149.95 -22.0 -149.8 -22.05 -149.55 -22.15 -149.1 -22.25 -148.7 -22.3 -148.6 -22.3 -148.5 -24.4 -144.95 -25.4 -144.1 -25.7 -148.45 Q-27.1 -149.95 -32.75 -152.2 -25.95 -153.25 -22.3 -160.45 L-20.05 -160.45 -18.85 -160.5 M-41.65 -79.1 L-41.7 -78.7 Q-41.7 -77.15 -41.85 -75.65 L-41.7 -75.65 Q-40.65 -65.05 -47.35 -55.95 L-47.4 -55.85 -47.65 -55.6 -47.85 -55.4 -48.05 -55.1 -48.2 -54.9 -48.45 -54.65 -48.65 -54.5 Q-51.55 -49.0 -55.25 -45.5 -62.5 -38.65 -72.7 -39.45 -82.3 -40.2 -88.5 -45.5 -92.3 -48.7 -94.8 -53.5 -97.9 -58.0 -100.15 -63.75 -102.45 -69.5 -102.25 -75.65 L-102.4 -75.65 -102.4 -75.75 -102.5 -78.2 -102.35 -82.15 -97.2 -76.75 Q-96.65 -80.9 -95.15 -84.95 -94.0 -88.15 -92.4 -91.15 -100.45 -72.05 -92.2 -59.05 -89.65 -54.0 -85.85 -48.85 L-81.4 -45.5 Q-71.65 -39.3 -60.55 -47.5 -49.45 -55.7 -49.05 -62.05 -48.7 -68.45 -48.95 -72.45 -48.7 -68.45 -49.05 -62.05 -49.45 -55.7 -60.55 -47.5 -71.65 -39.3 -81.4 -45.5 L-85.85 -48.85 Q-89.65 -54.0 -92.2 -59.05 -100.45 -72.05 -92.4 -91.15 -87.2 -101.1 -77.15 -109.35 -90.35 -87.65 -77.15 -77.95 -61.6 -71.5 -48.6 -90.15 L-46.9 -93.25 Q-47.2 -83.45 -48.95 -75.65 L-48.8 -75.65 -48.95 -72.45 -45.7 -75.65 -45.85 -75.65 -41.65 -79.1 M-48.65 -157.15 Q-48.15 -159.5 -46.25 -160.95 -46.1 -164.3 -45.3 -166.35 L-41.65 -156.4 Q-41.15 -154.6 -43.65 -155.1 -46.15 -155.6 -48.65 -157.15" fill="#3572b4" fill-rule="evenodd" stroke="none"/>
    <path d="M-9.5 -193.35 Q-9.5 -186.05 -11.25 -177.25 -11.65 -175.75 -13.6 -170.35 -15.6 -164.95 -18.85 -160.5 L-20.05 -160.45 -22.3 -160.45 -23.15 -160.5 Q-17.4 -165.55 -14.45 -176.2 -11.55 -186.85 -11.4 -196.0 -10.45 -194.95 -9.6 -193.5 L-9.5 -193.35 M-41.05 -170.0 L-44.25 -178.0 Q-47.1 -183.55 -47.8 -189.85 -48.6 -196.2 -47.35 -197.6 L-45.85 -198.2 Q-46.1 -195.95 -43.35 -185.65 -40.6 -175.35 -30.15 -161.95 -35.55 -163.95 -39.7 -168.55 L-40.6 -169.65 -41.05 -170.0" fill="#121b25" fill-rule="evenodd" stroke="none"/>
    <path d="M-47.35 -197.6 Q-47.4 -200.5 -44.85 -204.3 L-40.8 -210.35 -38.95 -209.55 -38.75 -211.15 -33.25 -219.45 Q-29.4 -221.95 -29.2 -216.1 -29.4 -213.3 -31.5 -209.7 L-32.0 -204.3 Q-28.2 -209.1 -23.7 -204.15 L-19.8 -204.35 Q-16.9 -203.95 -16.55 -201.75 -15.7 -202.4 -12.8 -200.3 -9.9 -198.35 -9.5 -193.35 -9.5 -186.05 -11.25 -177.25 -11.65 -175.75 -13.6 -170.35 -15.6 -164.95 -18.85 -160.5 -18.75 -154.7 -21.8 -151.8 L-21.85 -151.1 -22.0 -149.95 -22.0 -149.8 -22.05 -149.55 -22.15 -149.1 -22.25 -148.7 -22.3 -148.6 -22.3 -148.5 -24.4 -144.95 -26.1 -143.65 -27.9 -138.3 -33.45 -121.0 -33.65 -120.5 Q-39.4 -106.6 -43.65 -99.2 L-44.25 -98.15 Q-41.25 -87.75 -41.65 -79.1 M-41.7 -78.7 Q-41.7 -77.15 -41.85 -75.65 M-41.7 -75.65 Q-40.65 -65.05 -47.35 -55.95 L-47.4 -55.85 -47.65 -55.6 -47.85 -55.4 -48.05 -55.1 -48.2 -54.9 -48.45 -54.65 -48.65 -54.5 Q-51.55 -49.0 -55.25 -45.5 -62.5 -38.65 -72.7 -39.45 -82.3 -40.2 -88.5 -45.5 -92.3 -48.7 -94.8 -53.5 -97.9 -58.0 -100.15 -63.75 -102.45 -69.5 -102.25 -75.65 M-102.4 -75.65 L-102.4 -75.75 -102.5 -78.2 -102.35 -82.15 Q-101.3 -93.6 -93.05 -101.75 -79.5 -115.25 -73.1 -114.7 L-70.1 -118.75 -66.6 -123.75 Q-60.4 -132.0 -56.75 -138.3 -52.5 -145.55 -48.65 -153.1 -49.05 -155.4 -48.65 -157.15 -48.15 -159.5 -46.25 -160.95 -46.1 -164.3 -45.3 -166.35 -44.65 -168.15 -43.5 -169.0 -41.85 -170.25 -41.05 -170.0 L-44.25 -178.0 Q-47.1 -183.55 -47.8 -189.85 -48.6 -196.2 -47.35 -197.6 L-45.85 -198.2 Q-43.55 -199.0 -39.8 -199.4 L-39.8 -203.9 -39.8 -204.4 -39.7 -204.4 -38.95 -209.55 M-32.0 -204.3 L-31.55 -204.3 -31.55 -203.7 Q-27.25 -204.45 -23.95 -202.15 L-23.95 -201.7 -23.7 -204.15 M-32.0 -204.3 L-32.05 -203.8 M-32.0 -204.3 L-39.7 -204.4 -39.8 -203.9 M-16.55 -201.75 L-16.45 -198.9 Q-13.65 -198.5 -11.4 -196.0 -10.45 -194.95 -9.6 -193.5 L-9.5 -193.35 M-23.95 -201.7 Q-19.4 -201.65 -16.45 -198.9 L-16.45 -193.55 -15.65 -192.2 M-31.55 -203.7 L-31.55 -196.7 -30.9 -195.15 M-23.95 -201.7 L-23.95 -195.35 -23.3 -193.85 M-22.3 -160.45 L-23.15 -160.5 Q-26.9 -160.75 -30.15 -161.95 -35.55 -163.95 -39.7 -168.55 L-40.6 -169.65 -41.05 -170.0 M-22.3 -160.45 L-20.05 -160.45 -18.85 -160.5 M-73.1 -114.7 L-77.15 -109.35 Q-90.35 -87.65 -77.15 -77.95 -61.6 -71.5 -48.6 -90.15 L-46.9 -93.25 -44.25 -98.15 M-26.1 -143.65 Q-41.0 -141.15 -48.65 -153.1 M-92.4 -91.15 Q-100.45 -72.05 -92.2 -59.05 -89.65 -54.0 -85.85 -48.85 L-81.4 -45.5 Q-71.65 -39.3 -60.55 -47.5 -49.45 -55.7 -49.05 -62.05 -48.7 -68.45 -48.95 -72.45 L-48.8 -75.65 M-48.95 -75.65 Q-47.2 -83.45 -46.9 -93.25 M-77.15 -109.35 Q-87.2 -101.1 -92.4 -91.15 M-39.8 -199.4 Q-39.75 -193.95 -39.2 -190.35" fill="none" stroke="#1a5283" stroke-linecap="round" stroke-linejoin="round" stroke-width="2.0"/>
  </g>
</svg>
