<?xml version="1.0" encoding="UTF-8" standalone="no"?>
<svg xmlns:xlink="http://www.w3.org/1999/xlink" height="515.7px" width="287.15px" xmlns="http://www.w3.org/2000/svg">
  <g transform="matrix(1.0, 0.0, 0.0, 1.0, 163.45, 174.1)">
    <path d="M3.45 -172.5 L41.7 -173.1 38.8 -161.35 38.75 -161.25 Q21.8 -167.9 3.2 -170.45 3.6 -171.55 3.45 -172.5 M106.95 -32.85 Q107.15 -25.8 103.35 -19.2 L76.25 19.5 74.6 18.95 74.3 18.85 Q67.05 16.35 61.75 12.8 L60.6 12.0 Q79.2 -25.85 106.95 -32.85 M-51.25 -149.9 L-51.3 -149.95 -50.95 -150.05 -51.25 -149.9 M-43.2 -142.4 Q-39.3 -149.65 -9.05 -151.4 10.9 -152.55 15.6 -146.1 20.0 -142.5 13.55 -138.65 L13.9 -138.85 10.45 -136.9 Q-0.8 -131.05 -12.65 -130.5 -26.25 -133.75 -35.5 -138.1 L-40.0 -140.4 -40.15 -140.5 -43.2 -142.4 M-2.55 -122.65 L-0.8 -122.85 -0.9 -122.65 Q-6.25 -117.35 -10.95 -111.6 L-10.3 -111.6 -18.65 -112.4 Q-29.6 -114.2 -35.0 -120.3 -35.7 -123.0 -36.75 -125.85 L-21.45 -124.15 -19.75 -121.6 -2.55 -122.65 -4.55 -119.7 -2.55 -122.65 M80.3 -32.6 L78.45 -31.45 79.0 -32.2 80.3 -32.6 M-18.0 -118.95 L-19.75 -121.6 -18.0 -118.95" fill="#ffe8d7" fill-rule="evenodd" stroke="none"/>
    <path d="M30.05 -148.9 L32.55 -147.15 34.8 -145.35 41.05 -139.45 Q37.85 -135.15 37.6 -130.15 37.3 -125.2 40.55 -128.55 43.75 -131.95 47.9 -134.1 L48.9 -133.75 Q61.6 -129.3 63.85 -127.05 54.3 -122.1 44.95 -116.7 41.15 -114.55 38.05 -111.6 37.05 -111.25 32.8 -108.25 L30.75 -106.25 30.45 -105.9 Q26.85 -101.4 22.05 -90.4 L22.0 -90.35 19.6 -85.8 Q15.3 -82.0 17.05 -101.55 19.05 -124.2 21.8 -132.9 24.55 -141.65 27.15 -145.0 L30.05 -148.9 M67.0 -120.7 L68.2 -119.7 68.4 -119.5 69.0 -118.85 Q82.05 -105.65 96.0 -81.8 109.95 -58.0 122.7 -59.5 113.75 -46.4 105.2 -41.45 99.35 -38.1 91.05 -35.75 L80.3 -32.6 79.0 -32.2 77.85 -31.8 75.25 -30.9 73.15 -30.1 65.85 -26.9 Q67.05 -28.0 59.65 -45.0 52.25 -62.0 52.4 -84.85 L52.3 -84.35 Q50.0 -71.8 49.55 -60.15 49.4 -55.5 49.55 -50.95 L49.65 -49.0 Q49.9 -42.25 50.9 -35.85 52.35 -26.45 53.15 -17.9 L57.8 0.85 54.65 6.65 55.05 7.1 Q57.4 9.75 60.6 12.0 L61.75 12.8 Q67.05 16.35 74.3 18.85 L74.6 18.95 Q73.7 19.95 73.5 21.6 73.05 25.05 71.65 28.25 68.45 26.8 65.2 27.45 64.2 27.65 64.55 28.4 L69.05 38.85 69.25 38.7 69.4 38.5 69.8 37.5 83.15 64.9 Q86.0 69.45 86.85 72.15 69.85 77.9 62.35 79.9 38.1 86.15 19.5 83.9 21.05 77.5 22.2 71.2 31.1 23.85 19.9 -17.2 16.5 -39.8 16.15 -58.85 18.55 -60.25 18.95 -66.9 19.3 -73.55 23.75 -83.35 28.2 -93.1 37.65 -104.65 47.05 -116.2 67.0 -120.7 M65.1 313.2 L65.7 313.65 Q75.85 320.9 77.55 330.1 42.8 331.05 21.85 330.65 L20.1 330.6 19.95 330.6 Q22.3 324.8 30.15 316.25 37.95 307.7 50.9 308.5 57.55 309.75 63.85 312.7 L65.05 313.25 65.1 313.2 M-162.3 330.2 Q-161.95 327.8 -160.4 325.45 L-145.6 312.85 -141.45 309.3 -139.4 308.8 Q-128.95 306.3 -119.1 307.6 L-118.65 307.65 -117.4 307.8 -114.6 308.4 -115.05 308.3 Q-101.75 321.1 -108.3 332.7 L-108.9 332.7 -112.5 332.65 -114.15 332.6 -162.3 330.2 M-87.9 79.95 Q-96.9 76.8 -104.15 71.7 -103.55 61.65 -96.0 47.05 -88.5 32.45 -79.25 17.45 L-78.1 15.9 -78.65 16.7 Q-75.35 15.5 -72.55 10.25 L-64.05 -5.2 Q-47.3 -35.1 -42.2 -70.95 -37.65 -67.25 -35.2 -66.0 -33.35 -65.05 -31.5 -64.5 L-30.6 -54.35 -30.25 -48.4 -30.2 -47.6 -29.95 -41.8 Q-29.4 -21.8 -31.5 -2.9 -33.35 7.75 -34.6 16.9 -37.5 38.0 -37.05 53.4 L-36.9 57.05 Q-36.5 63.75 -35.4 69.3 L-33.8 75.65 -33.55 76.4 Q-32.55 79.35 -31.2 81.85 L-30.2 83.65 -43.65 84.1 -48.75 84.45 -59.3 84.65 -59.8 84.65 -60.85 84.6 -61.4 84.6 -65.25 84.35 Q-77.7 83.45 -87.9 79.95 M-107.9 -83.8 L-105.55 -88.75 -103.5 -92.45 -103.3 -92.8 Q-99.15 -99.85 -94.9 -105.6 L-92.1 -105.2 -84.65 -104.45 Q-61.2 -102.9 -47.15 -85.05 L-47.65 -80.4 -47.15 -85.05 -46.9 -84.75 -46.65 -84.45 -46.85 -83.6 -46.85 -83.1 -47.65 -80.4 Q-48.75 -70.95 -50.35 -63.35 -55.5 -60.0 -55.85 -59.3 -57.6 -55.8 -59.75 -52.6 -60.2 -54.15 -61.2 -56.45 L-65.65 -67.35 Q-74.8 -81.9 -89.0 -82.75 -97.85 -81.4 -104.7 -74.75 -105.2 -79.25 -107.8 -82.55 L-107.9 -83.8 M-89.8 -112.2 L-94.15 -113.0 Q-91.0 -120.95 -76.8 -126.85 L-75.55 -127.35 Q-69.3 -125.15 -66.45 -122.95 -63.6 -120.8 -63.95 -124.4 -64.3 -128.05 -67.75 -132.8 L-67.8 -132.7 Q-61.5 -141.45 -55.2 -143.85 L-52.8 -145.0 Q-49.15 -138.65 -45.85 -132.05 -39.85 -120.0 -36.6 -98.8 -33.35 -77.6 -37.2 -79.1 L-39.4 -82.0 -41.55 -85.4 Q-46.7 -93.95 -59.3 -102.25 -75.25 -109.25 -89.8 -112.2 M22.0 -90.35 L22.85 -92.85 22.9 -93.05 28.95 -104.3 29.45 -104.9 30.45 -105.9 29.45 -104.9 28.95 -104.3 22.9 -93.05 22.85 -92.85 22.0 -90.35 M52.85 -87.25 L52.6 -86.0 52.45 -85.1 52.4 -84.85 52.45 -85.1 52.6 -86.0 52.85 -87.25 M54.65 6.65 L54.05 5.95 Q52.9 6.85 51.95 7.9 52.9 6.85 54.05 5.95 L54.65 6.65 M48.35 15.05 L48.25 15.1 Q49.15 17.15 50.2 19.0 51.2 20.75 51.95 19.1 52.7 17.4 52.4 13.65 L51.95 7.9 51.6 8.3 Q49.65 10.6 48.95 13.7 L48.7 14.85 48.35 15.05 M45.05 21.0 L44.65 19.85 Q45.3 17.75 46.45 16.5 L46.6 16.35 46.65 16.3 46.7 16.25 46.8 16.15 46.85 16.1 47.75 15.35 Q45.05 12.2 42.1 9.7 38.8 10.0 39.6 12.9 40.75 17.2 42.4 21.35 L42.45 21.5 42.55 21.7 43.45 23.8 43.7 23.4 43.4 23.9 Q45.65 29.35 49.1 34.15 L49.2 34.3 Q51.6 38.05 54.5 41.55 57.35 45.0 60.95 46.55 L60.5 46.2 60.6 46.25 60.95 46.55 61.4 46.7 Q64.0 47.7 66.95 47.7 70.0 47.7 68.95 44.9 68.0 42.45 66.55 40.2 L65.65 40.45 64.55 40.05 Q49.55 34.1 45.05 21.0 M48.25 15.1 L47.75 15.35 48.25 15.1 M69.05 38.85 L68.5 39.25 Q67.65 39.85 66.55 40.2 67.65 39.85 68.5 39.25 L69.05 38.85 M43.4 23.9 L42.55 21.7 43.4 23.9 M-52.0 -56.55 Q-52.85 -58.35 -50.35 -63.25 L-52.0 -56.55 M-59.65 33.6 Q-55.3 28.35 -53.4 22.8 -57.6 23.6 -64.5 30.7 -71.4 37.75 -77.35 41.05 L-88.55 47.4 Q-93.8 50.45 -87.3 51.35 -80.85 52.2 -72.45 45.55 -64.05 38.85 -59.65 33.6" fill="#4c97d9" fill-rule="evenodd" stroke="none"/>
    <path d="M77.55 330.1 Q78.2 333.75 77.55 337.7 L22.2 337.7 22.05 335.8 Q21.6 333.0 20.6 330.65 L20.1 330.6 21.85 330.65 Q42.8 331.05 77.55 330.1 M-117.7 340.5 L-119.85 340.45 Q-143.85 340.0 -160.65 337.9 -162.95 334.0 -162.3 330.2 L-114.15 332.6 -112.5 332.65 -108.9 332.7 -117.7 340.5 M-10.3 -111.6 L-9.9 -111.6 -9.75 -111.6 Q-5.0 -111.65 -1.6 -113.0 0.25 -113.75 2.3 -115.0 L4.7 -116.65 Q6.85 -96.3 7.75 -81.0 8.6 -65.75 9.7 -54.5 10.8 -43.3 14.4 -20.7 17.95 1.85 20.65 16.45 23.3 31.0 22.35 53.1 21.55 71.25 2.3 70.1 L-35.6 68.3 -35.4 69.3 Q-36.5 63.75 -36.9 57.05 -19.45 65.0 12.6 61.9 0.05 59.35 -14.1 57.65 -25.8 56.25 -37.05 53.4 -37.5 38.0 -34.6 16.9 -32.7 7.15 -31.5 -2.9 -29.4 -21.8 -29.95 -41.8 -28.55 -35.8 -26.7 -37.6 -13.7 -6.75 -4.2 6.6 5.3 19.9 11.25 24.2 2.1 16.5 -3.85 1.75 -9.85 -13.05 -30.6 -54.35 L-31.5 -64.5 -31.75 -66.85 -32.0 -69.2 -32.65 -74.35 -33.05 -77.4 -32.7 -78.3 Q-30.0 -88.25 -31.3 -101.3 L-31.35 -101.5 -31.4 -102.1 -31.7 -104.7 Q-31.05 -103.1 -19.95 -98.7 -8.9 -94.3 0.45 -101.8 -0.1 -103.2 -1.5 -102.75 -8.2 -100.4 -15.5 -102.8 L-32.35 -108.45 -33.5 -114.2 -34.85 -119.8 -35.0 -120.3 Q-29.6 -114.2 -18.65 -112.4 L-10.3 -111.6 M-30.6 -54.35 Q-29.1 -46.1 -30.25 -49.25 L-30.25 -48.4 -30.6 -54.35" fill="#1b2734" fill-rule="evenodd" stroke="none"/>
    <path d="M43.7 23.4 L43.85 23.1 45.05 21.0 Q49.55 34.1 64.55 40.05 63.45 42.35 58.65 44.65 L58.3 44.35 Q53.05 39.7 49.2 34.3 L49.1 34.15 Q45.65 29.35 43.4 23.9 L43.7 23.4" fill="#121b25" fill-rule="evenodd" stroke="none"/>
    <path d="M62.95 88.1 Q65.55 130.05 62.95 189.65 L62.4 200.65 62.4 207.65 Q62.45 237.1 65.85 265.3 69.25 293.75 65.85 309.95 31.05 297.35 -2.9 316.55 -3.75 297.85 3.4 257.4 7.65 233.1 13.95 209.9 8.5 191.2 7.15 174.1 3.75 131.25 3.35 107.6 2.9 84.0 -3.8 90.0 L-5.0 90.1 -8.45 90.4 -8.8 90.4 -16.5 90.1 -17.5 92.8 -17.65 93.25 Q-19.0 91.05 -21.05 89.2 L-22.1 88.35 -22.85 88.7 Q-28.9 91.6 -37.3 117.3 -45.75 142.95 -53.0 170.8 -60.3 198.65 -69.85 205.75 -66.05 232.3 -67.85 260.6 -69.65 288.85 -73.95 301.75 -78.25 314.55 -84.2 318.75 -86.4 313.55 -91.9 309.45 -108.5 297.2 -144.3 307.55 L-142.2 298.7 Q-128.35 267.7 -117.3 214.85 L-117.25 214.75 -117.1 213.85 -116.2 209.6 -112.65 190.9 -111.75 185.9 Q-102.15 134.85 -92.05 95.6 L-92.25 96.4 Q-89.8 96.05 -87.25 95.15 -67.3 88.2 -47.15 84.4 L-48.75 84.45 -43.65 84.1 -30.2 83.65 -31.2 81.85 Q-10.6 79.2 16.0 79.9 13.8 83.95 11.7 85.9 L17.45 86.05 46.2 87.6 62.95 88.1 M-8.25 97.25 L-8.7 91.8 -8.8 90.4 -8.45 90.4 -5.0 90.1 -3.8 90.0 -5.3 91.55 Q-6.5 91.6 -6.85 92.55 L-8.25 97.25 M-65.8 325.45 L-67.4 330.4 -71.75 330.6 Q-68.45 328.25 -65.8 325.45 M-16.5 90.1 L-20.2 89.4 -21.05 89.2 -20.2 89.4 -16.5 90.1 M-28.5 86.6 L-28.1 86.8 -25.55 87.8 -22.85 88.7 -25.55 87.8 -28.1 86.8 -28.5 86.6" fill="#283e5d" fill-rule="evenodd" stroke="none"/>
    <path d="M68.4 -119.5 L69.05 -118.85 69.0 -118.85 68.4 -119.5 M65.85 310.05 L65.8 310.35 65.85 310.05 M-50.35 -148.7 L-50.9 -149.4 -50.9 -149.45 -50.35 -148.7 M-31.5 -2.9 Q-32.7 7.15 -34.6 16.9 -33.35 7.75 -31.5 -2.9 M-59.45 -50.35 L-59.45 -46.8 -59.45 -50.15 -59.45 -50.35 M-65.25 -36.05 L-64.05 -37.6 -64.25 -37.25 -65.25 -36.05" fill="#cccccc" fill-rule="evenodd" stroke="none"/>
    <path d="M28.3 -149.95 L28.5 -149.8 28.8 -149.65 29.7 -149.1 30.05 -148.9 27.15 -145.0 Q24.55 -141.65 21.8 -132.9 19.05 -124.2 17.05 -101.55 15.3 -82.0 19.6 -85.8 L22.0 -90.35 22.05 -90.4 Q26.85 -101.4 30.45 -105.9 L30.75 -106.25 32.8 -108.25 Q37.05 -111.25 38.05 -111.6 41.15 -114.55 44.95 -116.7 54.3 -122.1 63.85 -127.05 64.45 -126.5 64.3 -126.05 L64.1 -125.8 62.05 -124.95 62.55 -124.55 67.0 -120.7 Q47.05 -116.2 37.65 -104.65 28.2 -93.1 23.75 -83.35 19.3 -73.55 18.95 -66.9 18.55 -60.25 16.15 -58.85 L16.1 -64.05 16.65 -79.6 16.7 -79.85 16.7 -80.15 16.75 -80.65 Q15.95 -80.55 15.25 -81.45 10.35 -105.2 12.4 -123.6 L12.8 -126.85 Q13.85 -133.9 15.95 -140.15 L18.15 -141.6 Q23.25 -145.2 28.3 -149.95 M41.05 -139.45 L41.35 -139.1 41.45 -139.0 44.9 -135.15 45.35 -135.0 47.9 -134.1 Q43.75 -131.95 40.55 -128.55 37.3 -125.2 37.6 -130.15 37.85 -135.15 41.05 -139.45 L41.35 -139.1 41.05 -139.45 M76.25 19.5 L77.45 19.85 Q76.5 29.25 71.3 32.1 L71.3 33.35 69.8 37.5 69.4 38.5 69.25 38.7 69.05 38.85 64.55 28.4 Q64.2 27.65 65.2 27.45 68.45 26.8 71.65 28.25 73.05 25.05 73.5 21.6 73.7 19.95 74.6 18.95 L76.25 19.5 M0.25 329.5 L0.25 324.9 Q10.2 314.05 20.15 311.2 L22.75 310.55 23.25 310.45 26.95 309.45 Q39.45 306.4 50.9 308.5 37.95 307.7 30.15 316.25 22.3 324.8 19.95 330.6 L18.85 330.55 18.6 330.55 17.2 330.5 9.65 330.2 7.45 330.1 0.25 329.5 M-78.1 329.4 L-78.0 332.6 Q-93.8 332.85 -108.3 332.7 -101.75 321.1 -115.05 308.3 L-114.6 308.4 -92.85 320.3 -92.65 320.45 -92.4 320.7 -92.1 320.95 Q-85.5 326.75 -79.0 329.1 L-78.1 329.4 M-75.15 10.5 Q-67.85 -6.15 -65.85 -32.0 L-61.3 -37.7 Q-75.85 -20.9 -93.0 -24.15 -96.15 -25.2 -100.95 -27.8 -105.8 -30.45 -109.85 -34.15 -124.2 -48.15 -107.9 -83.8 L-107.8 -82.55 Q-105.2 -79.25 -104.7 -74.75 -97.85 -81.4 -89.0 -82.75 -74.8 -81.9 -65.65 -67.35 L-61.2 -56.45 Q-60.2 -54.15 -59.75 -52.6 -57.6 -55.8 -55.85 -59.3 -55.5 -60.0 -50.35 -63.35 -48.75 -70.95 -47.65 -80.4 L-46.85 -83.1 -46.85 -83.6 -46.65 -84.45 -46.9 -84.75 -47.15 -85.05 Q-61.2 -102.9 -84.65 -104.45 L-92.1 -105.2 -94.9 -105.6 -93.45 -107.6 -93.25 -107.8 -89.8 -112.2 Q-75.25 -109.25 -59.3 -102.25 -46.7 -93.95 -41.55 -85.4 L-39.4 -82.0 -37.2 -79.1 Q-33.35 -77.6 -36.6 -98.8 -39.85 -120.0 -45.85 -132.05 -49.15 -138.65 -52.8 -145.0 L-48.75 -146.95 -47.0 -144.45 Q-40.1 -134.5 -36.75 -125.85 -35.7 -123.0 -35.0 -120.3 L-34.85 -119.8 -33.5 -114.2 -32.35 -108.45 -31.9 -105.8 -31.8 -105.2 -31.7 -104.7 -31.4 -102.1 -31.35 -101.5 -31.3 -101.3 Q-30.0 -88.25 -32.7 -78.3 L-33.05 -77.4 -32.65 -74.35 -32.0 -69.2 -31.75 -66.85 -31.5 -64.5 Q-33.35 -65.05 -35.2 -66.0 -37.65 -67.25 -42.2 -70.95 -47.3 -35.1 -64.05 -5.2 L-72.55 10.25 Q-75.35 15.5 -78.65 16.7 L-78.1 15.9 -77.1 14.55 -75.15 10.5 M-75.55 -127.35 L-75.3 -127.45 -70.45 -129.2 -70.2 -129.3 -68.05 -132.4 -67.8 -132.7 -67.75 -132.8 Q-64.3 -128.05 -63.95 -124.4 -63.6 -120.8 -66.45 -122.95 -69.3 -125.15 -75.55 -127.35 M30.75 -106.25 Q31.35 -106.85 32.05 -107.3 L32.2 -107.4 32.35 -107.55 38.05 -111.6 42.55 -114.75 Q51.1 -120.45 62.05 -124.95 51.1 -120.45 42.55 -114.75 L38.05 -111.6 32.35 -107.55 32.2 -107.4 32.05 -107.3 Q31.35 -106.85 30.75 -106.25 M49.65 -49.0 L49.55 -50.95 Q49.4 -55.5 49.55 -60.15 50.0 -71.8 52.3 -84.35 L52.4 -84.85 Q52.25 -62.0 59.65 -45.0 67.05 -28.0 65.85 -26.9 L63.35 -25.75 61.35 -24.8 Q61.7 -27.45 57.05 -33.75 52.35 -40.05 49.65 -49.0 M16.75 -80.65 L16.8 -80.65 Q17.65 -80.8 18.6 -82.15 19.75 -83.9 21.05 -87.5 L22.0 -90.35 21.05 -87.5 Q19.75 -83.9 18.6 -82.15 17.65 -80.8 16.8 -80.65 L16.75 -80.65 M51.6 8.3 L51.95 7.9 52.4 13.65 Q52.7 17.4 51.95 19.1 51.2 20.75 50.2 19.0 49.15 17.15 48.25 15.1 L48.35 15.05 48.7 14.85 48.95 13.7 Q49.65 10.6 51.6 8.3 M46.85 16.1 L46.8 16.15 46.7 16.25 46.65 16.3 46.6 16.35 46.45 16.5 Q45.3 17.75 44.65 19.85 L45.05 21.0 43.85 23.1 43.7 23.4 43.45 23.8 42.55 21.7 42.45 21.5 42.4 21.35 Q40.75 17.2 39.6 12.9 38.8 10.0 42.1 9.7 45.05 12.2 47.75 15.35 L46.85 16.1 M39.95 12.15 Q40.85 16.95 42.4 21.35 40.85 16.95 39.95 12.15 M64.55 40.05 L65.65 40.45 66.55 40.2 Q68.0 42.45 68.95 44.9 70.0 47.7 66.95 47.7 64.0 47.7 61.4 46.7 L60.6 46.25 61.4 46.7 60.95 46.55 60.6 46.25 60.5 46.2 58.65 44.65 60.5 46.2 60.95 46.55 Q57.35 45.0 54.5 41.55 51.6 38.05 49.2 34.3 53.05 39.7 58.3 44.35 L58.65 44.65 Q63.45 42.35 64.55 40.05 M9.65 330.2 L7.45 330.1 9.65 330.2 M-104.7 -74.75 L-105.25 -74.2 -106.15 -73.25 -106.35 -73.05 -106.65 -72.65 Q-117.25 -50.25 -106.75 -35.95 -103.85 -33.8 -100.0 -31.8 L-99.7 -31.65 Q-96.6 -30.35 -92.95 -29.35 L-91.15 -28.85 -88.0 -28.1 Q-85.8 -27.6 -77.0 -30.4 -68.3 -33.2 -65.25 -36.05 L-65.3 -36.0 Q-61.2 -39.95 -59.95 -43.4 -59.3 -45.15 -59.45 -46.8 -59.3 -45.15 -59.95 -43.4 -61.2 -39.95 -65.3 -36.0 L-65.25 -36.05 Q-68.3 -33.2 -77.0 -30.4 -85.8 -27.6 -88.0 -28.1 L-91.15 -28.85 -92.95 -29.35 Q-96.6 -30.35 -99.7 -31.65 L-100.0 -31.8 Q-103.85 -33.8 -106.75 -35.95 -117.25 -50.25 -106.65 -72.65 L-106.35 -73.05 -106.15 -73.25 -105.25 -74.2 -104.7 -74.75 M-46.75 -87.55 L-47.0 -86.1 -47.05 -85.75 -47.15 -85.05 -47.05 -85.75 -47.0 -86.1 -46.75 -87.55 M-33.05 -77.4 Q-34.15 -75.65 -36.8 -78.6 L-37.2 -79.1 -36.8 -78.6 Q-34.15 -75.65 -33.05 -77.4 M-59.45 -50.35 L-59.45 -50.15 -59.45 -46.8 -59.45 -50.35 -59.4 -50.6 Q-59.4 -51.35 -59.75 -52.6 -59.4 -51.35 -59.4 -50.6 L-59.45 -50.35 M-50.35 -63.25 Q-52.85 -58.35 -52.0 -56.55 L-50.35 -63.25 -50.35 -63.35 -50.35 -63.25 M-65.25 -36.05 L-64.25 -37.25 -64.05 -37.6 -65.25 -36.05 M-52.0 -56.55 Q-54.9 -46.1 -59.1 -40.3 -60.15 -38.85 -61.3 -37.7 -60.15 -38.85 -59.1 -40.3 -54.9 -46.1 -52.0 -56.55 M-64.35 -12.3 L-65.85 -32.0 -64.35 -12.3 M-86.9 49.8 L-85.3 49.35 Q-78.65 47.75 -72.35 43.35 L-72.05 43.15 -71.7 42.9 -71.6 42.85 Q-62.4 36.15 -53.95 23.6 L-53.4 22.8 -53.95 23.6 Q-62.4 36.15 -71.6 42.85 L-71.7 42.9 -72.05 43.15 -72.35 43.35 Q-78.65 47.75 -85.3 49.35 L-86.9 49.8 M-59.65 33.6 Q-64.05 38.85 -72.45 45.55 -80.85 52.2 -87.3 51.35 -93.8 50.45 -88.55 47.4 L-77.35 41.05 Q-71.4 37.75 -64.5 30.7 -57.6 23.6 -53.4 22.8 -55.3 28.35 -59.65 33.6" fill="#3572b4" fill-rule="evenodd" stroke="none"/>
    <path d="M62.35 79.9 L62.6 83.4 62.65 84.0 62.95 88.1 46.2 87.6 17.45 86.05 11.7 85.9 Q13.8 83.95 16.0 79.9 -10.6 79.2 -31.2 81.85 -32.55 79.35 -33.55 76.4 -34.45 73.0 -8.9 76.5 2.25 77.95 18.5 73.65 L22.2 71.2 Q21.05 77.5 19.5 83.9 38.1 86.15 62.35 79.9 M65.85 309.95 L65.85 310.05 65.8 310.35 65.7 310.65 65.1 313.2 63.85 312.7 Q57.55 309.75 50.9 308.5 39.45 306.4 26.95 309.45 L23.25 310.45 22.75 310.55 20.15 311.2 Q10.2 314.05 0.25 324.9 -6.35 327.25 -11.25 324.05 -15.1 307.9 0.0 207.35 L-5.0 140.75 -5.0 140.45 -7.3 109.95 -7.4 108.2 -8.25 97.25 -6.85 92.55 Q-6.5 91.6 -5.3 91.55 L-3.8 90.0 Q2.9 84.0 3.35 107.6 3.75 131.25 7.15 174.1 8.5 191.2 13.95 209.9 7.65 233.1 3.4 257.4 -3.75 297.85 -2.9 316.55 31.05 297.35 65.85 309.95 M-17.65 93.25 Q-36.85 144.25 -48.2 192.0 L-53.35 220.35 Q-56.55 292.95 -65.5 324.45 L-65.8 325.45 -65.5 324.45 -65.8 325.45 Q-68.45 328.25 -71.75 330.6 -74.95 330.4 -78.1 329.4 L-79.0 329.1 Q-85.5 326.75 -92.1 320.95 L-92.4 320.7 -92.65 320.45 -92.85 320.3 -114.6 308.4 -117.4 307.8 -118.65 307.65 -119.1 307.6 Q-128.95 306.3 -139.4 308.8 L-141.45 309.3 -144.35 310.15 -145.6 312.85 -144.3 307.55 Q-108.5 297.2 -91.9 309.45 -86.4 313.55 -84.2 318.75 -78.25 314.55 -73.95 301.75 -69.65 288.85 -67.85 260.6 -66.05 232.3 -69.85 205.75 -60.3 198.65 -53.0 170.8 -45.75 142.95 -37.3 117.3 -28.9 91.6 -22.85 88.7 L-22.1 88.35 -21.05 89.2 -22.85 88.7 -21.05 89.2 Q-19.0 91.05 -17.65 93.25 M-92.05 95.6 L-90.9 91.25 -90.7 90.4 -87.9 79.95 Q-77.7 83.45 -65.25 84.35 L-61.4 84.6 -60.85 84.6 -59.8 84.65 -59.3 84.65 -48.75 84.45 -47.15 84.4 Q-67.3 88.2 -87.25 95.15 -89.8 96.05 -92.25 96.4 L-92.05 95.6 M-3.8 90.0 L-3.35 89.95 -3.8 90.0" fill="#182538" fill-rule="evenodd" stroke="none"/>
    <path d="M38.75 -161.25 Q33.55 -154.95 28.3 -149.95 23.25 -145.2 18.15 -141.6 L15.95 -140.15 13.9 -138.85 15.95 -140.15 Q13.85 -133.9 12.8 -126.85 L12.4 -123.6 Q8.3 -119.4 4.7 -116.65 L2.3 -115.0 Q0.25 -113.75 -1.6 -113.0 -5.0 -111.65 -9.75 -111.6 L-9.9 -111.6 -10.3 -111.6 -10.95 -111.6 Q-6.25 -117.35 -0.9 -122.65 L-0.8 -122.85 -2.55 -122.65 -1.7 -123.95 12.8 -126.85 -1.7 -123.95 -2.55 -122.65 -19.75 -121.6 -21.45 -124.15 -36.75 -125.85 Q-40.1 -134.5 -47.0 -144.45 L-48.75 -146.95 -48.9 -147.1 -49.3 -147.5 -50.35 -148.7 -50.9 -149.45 -51.0 -149.55 -51.3 -149.9 -51.25 -149.9 -51.0 -149.55 -51.25 -149.9 -50.95 -150.05 -51.3 -149.95 -51.75 -150.6 -52.6 -152.0 -54.45 -156.5 -56.25 -171.65 3.45 -172.5 Q3.6 -171.55 3.2 -170.45 21.8 -167.9 38.75 -161.25 M105.2 -41.45 L105.4 -40.95 Q106.7 -37.0 106.9 -33.2 L106.95 -32.85 Q79.2 -25.85 60.6 12.0 57.4 9.75 55.05 7.1 L54.65 6.65 57.8 0.85 71.65 -24.85 73.15 -30.1 75.25 -30.9 77.85 -31.8 79.0 -32.2 78.45 -31.45 80.3 -32.6 91.05 -35.75 Q99.35 -38.1 105.2 -41.45 M13.9 -138.85 L13.55 -138.65 Q20.0 -142.5 15.6 -146.1 10.9 -152.55 -9.05 -151.4 -39.3 -149.65 -43.2 -142.4 L-40.15 -140.5 -40.0 -140.4 -35.5 -138.1 Q-26.25 -133.75 -12.65 -130.5 -0.8 -131.05 10.45 -136.9 L13.9 -138.85 M10.45 -136.9 L8.9 -131.5 10.45 -136.9 M-43.2 -142.4 L-45.5 -144.05 -45.85 -144.35 -48.75 -146.95 -45.85 -144.35 -45.5 -144.05 -43.2 -142.4 M-35.5 -138.1 L-35.0 -130.1 -35.5 -138.1" fill="#e0bcaa" fill-rule="evenodd" stroke="none"/>
    <path d="M22.2 337.7 L4.05 337.7 Q0.1 337.25 0.25 330.1 L0.25 329.5 7.45 330.1 9.65 330.2 17.2 330.5 18.6 330.55 18.85 330.55 19.95 330.6 20.1 330.6 20.6 330.65 Q21.6 333.0 22.05 335.8 L22.2 337.7 M-78.0 332.6 Q-78.1 338.6 -80.3 340.25 -100.75 340.75 -117.7 340.5 L-108.9 332.7 -108.3 332.7 Q-93.8 332.85 -78.0 332.6 M4.7 -116.65 Q8.3 -119.4 12.4 -123.6 10.35 -105.2 15.25 -81.45 15.95 -80.55 16.75 -80.65 L16.7 -80.15 16.7 -79.85 16.65 -79.6 16.1 -64.05 16.15 -58.85 Q16.5 -39.8 19.9 -17.2 31.1 23.85 22.2 71.2 L18.5 73.65 Q2.25 77.95 -8.9 76.5 -34.45 73.0 -33.55 76.4 L-33.8 75.65 -35.4 69.3 -35.6 68.3 2.3 70.1 Q21.55 71.25 22.35 53.1 23.3 31.0 20.65 16.45 17.95 1.85 14.4 -20.7 10.8 -43.3 9.7 -54.5 8.6 -65.75 7.75 -81.0 6.85 -96.3 4.7 -116.65 M-31.9 -105.8 L-32.35 -108.45 -15.5 -102.8 Q-8.2 -100.4 -1.5 -102.75 -0.1 -103.2 0.45 -101.8 -8.9 -94.3 -19.95 -98.7 -31.05 -103.1 -31.7 -104.7 L-31.8 -105.2 -31.9 -105.8 M-30.6 -54.35 Q-9.85 -13.05 -3.85 1.75 2.1 16.5 11.25 24.2 5.3 19.9 -4.2 6.6 -13.7 -6.75 -26.7 -37.6 -28.55 -35.8 -29.95 -41.8 L-30.2 -47.6 -30.25 -48.4 -30.25 -49.25 Q-29.1 -46.1 -30.6 -54.35 M-37.05 53.4 Q-25.8 56.25 -14.1 57.65 0.05 59.35 12.6 61.9 -19.45 65.0 -36.9 57.05 L-37.05 53.4" fill="#070a0e" fill-rule="evenodd" stroke="none"/>
    <path d="M3.45 -172.5 L41.7 -173.1 38.8 -161.35 38.75 -161.25 Q33.55 -154.95 28.3 -149.95 L28.5 -149.8 28.8 -149.65 29.7 -149.1 30.05 -148.9 32.55 -147.15 34.8 -145.35 41.05 -139.45 41.35 -139.1 41.45 -139.0 44.9 -135.15 45.35 -135.0 47.9 -134.1 48.9 -133.75 Q61.6 -129.3 63.85 -127.05 64.45 -126.5 64.3 -126.05 L64.1 -125.8 62.05 -124.95 62.55 -124.55 67.0 -120.7 68.2 -119.7 68.4 -119.5 69.0 -118.85 Q82.05 -105.65 96.0 -81.8 109.95 -58.0 122.7 -59.5 113.75 -46.4 105.2 -41.45 L105.4 -40.95 Q106.7 -37.0 106.9 -33.2 L106.95 -32.85 Q107.15 -25.8 103.35 -19.2 L76.25 19.5 77.45 19.85 Q76.5 29.25 71.3 32.1 L71.3 33.35 69.8 37.5 83.15 64.9 Q86.0 69.45 86.85 72.15 69.85 77.9 62.35 79.9 L62.6 83.4 M62.65 84.0 L62.95 88.1 Q65.55 130.05 62.95 189.65 L62.4 200.65 62.4 207.65 Q62.45 237.1 65.85 265.3 69.25 293.75 65.85 309.95 L65.85 310.05 65.8 310.35 65.7 310.65 65.1 313.2 65.7 313.65 Q75.85 320.9 77.55 330.1 78.2 333.75 77.55 337.7 L22.2 337.7 4.05 337.7 Q0.1 337.25 0.25 330.1 L0.25 329.5 0.25 324.9 Q-6.35 327.25 -11.25 324.05 -15.1 307.9 0.0 207.35 L-5.0 140.75 M-5.0 140.45 L-7.3 109.95 -7.4 108.2 -8.25 97.25 -8.7 91.8 -8.8 90.4 -16.5 90.1 -17.5 92.8 -17.65 93.25 Q-36.85 144.25 -48.2 192.0 L-53.35 220.35 Q-56.55 292.95 -65.5 324.45 L-65.8 325.45 -67.4 330.4 -71.75 330.6 Q-74.95 330.4 -78.1 329.4 L-78.0 332.6 Q-78.1 338.6 -80.3 340.25 -100.75 340.75 -117.7 340.5 L-119.85 340.45 Q-143.85 340.0 -160.65 337.9 -162.95 334.0 -162.3 330.2 -161.95 327.8 -160.4 325.45 L-145.6 312.85 -144.3 307.55 -142.2 298.7 Q-128.35 267.7 -117.3 214.85 M-117.25 214.75 L-117.1 213.85 -116.2 209.6 -112.65 190.9 -111.75 185.9 Q-102.15 134.85 -92.05 95.6 L-90.9 91.25 -90.7 90.4 -87.9 79.95 Q-96.9 76.8 -104.15 71.7 -103.55 61.65 -96.0 47.05 -88.5 32.45 -79.25 17.45 L-75.15 10.5 Q-67.85 -6.15 -65.85 -32.0 L-61.3 -37.7 Q-75.85 -20.9 -93.0 -24.15 -96.15 -25.2 -100.95 -27.8 -105.8 -30.45 -109.85 -34.15 -124.2 -48.15 -107.9 -83.8 L-105.55 -88.75 -103.5 -92.45 -103.3 -92.8 Q-99.15 -99.85 -94.9 -105.6 L-93.45 -107.6 M-93.25 -107.8 L-89.8 -112.2 -94.15 -113.0 Q-91.0 -120.95 -76.8 -126.85 L-75.55 -127.35 M-75.3 -127.45 L-70.45 -129.2 -70.2 -129.3 -68.05 -132.4 -67.8 -132.7 Q-61.5 -141.45 -55.2 -143.85 L-52.8 -145.0 -48.75 -146.95 -48.9 -147.1 -49.3 -147.5 -50.35 -148.7 -50.9 -149.45 -51.0 -149.55 -51.25 -149.9 -51.3 -149.95 -51.75 -150.6 -52.6 -152.0 -54.45 -156.5 -56.25 -171.65 3.45 -172.5 M-43.2 -142.4 L-40.15 -140.5 -40.0 -140.4 -35.5 -138.1 Q-26.25 -133.75 -12.65 -130.5 -0.8 -131.05 10.45 -136.9 L13.9 -138.85 15.95 -140.15 18.15 -141.6 Q23.25 -145.2 28.3 -149.95 M8.9 -131.5 L10.45 -136.9 M12.8 -126.85 Q13.85 -133.9 15.95 -140.15 M4.7 -116.65 Q8.3 -119.4 12.4 -123.6 L12.8 -126.85 -1.7 -123.95 -2.55 -122.65 -4.55 -119.7 M-10.3 -111.6 L-9.9 -111.6 -9.75 -111.6 Q-5.0 -111.65 -1.6 -113.0 0.25 -113.75 2.3 -115.0 L4.7 -116.65 M-35.4 69.3 L-33.8 75.65 -33.55 76.4 Q-34.45 73.0 -8.9 76.5 2.25 77.95 18.5 73.65 L22.2 71.2 Q31.1 23.85 19.9 -17.2 16.5 -39.8 16.15 -58.85 L16.1 -64.05 16.65 -79.6 16.7 -79.85 16.7 -80.15 16.75 -80.65 Q15.95 -80.55 15.25 -81.45 10.35 -105.2 12.4 -123.6 M30.45 -105.9 L29.45 -104.9 28.95 -104.3 22.9 -93.05 22.85 -92.85 22.0 -90.35 21.05 -87.5 Q19.75 -83.9 18.6 -82.15 17.65 -80.8 16.8 -80.65 L16.75 -80.65 M62.05 -124.95 Q51.1 -120.45 42.55 -114.75 L38.05 -111.6 32.35 -107.55 32.2 -107.4 32.05 -107.3 Q31.35 -106.85 30.75 -106.25 M52.4 -84.85 L52.3 -84.35 Q50.0 -71.8 49.55 -60.15 49.4 -55.5 49.55 -50.95 L49.65 -49.0 Q52.35 -40.05 57.05 -33.75 61.7 -27.45 61.35 -24.8 L63.35 -25.75 65.85 -26.9 73.15 -30.1 71.65 -24.85 57.8 0.85 54.65 6.65 55.05 7.1 Q57.4 9.75 60.6 12.0 L61.75 12.8 Q67.05 16.35 74.3 18.85 L74.6 18.95 M52.4 -84.85 L52.45 -85.1 52.6 -86.0 52.85 -87.25 M80.3 -32.6 L79.0 -32.2 77.85 -31.8 75.25 -30.9 73.15 -30.1 M49.65 -49.0 Q49.9 -42.25 50.9 -35.85 52.35 -26.45 53.15 -17.9 L57.8 0.85 M105.2 -41.45 Q99.35 -38.1 91.05 -35.75 L80.3 -32.6 M69.05 38.85 L69.25 38.7 69.4 38.5 69.8 37.5 M51.95 7.9 Q52.9 6.85 54.05 5.95 L54.65 6.65 M51.6 8.3 Q49.65 10.6 48.95 13.7 L48.7 14.85 48.35 15.05 M45.05 21.0 L44.65 19.85 Q45.3 17.75 46.45 16.5 L46.6 16.35 46.65 16.3 46.7 16.25 46.8 16.15 46.85 16.1 M42.4 21.35 Q40.85 16.95 39.95 12.15 M47.75 15.35 L48.25 15.1 M42.4 21.35 L42.45 21.5 42.55 21.7 43.4 23.9 Q45.65 29.35 49.1 34.15 M43.7 23.4 L43.85 23.1 45.05 21.0 Q49.55 34.1 64.55 40.05 L65.65 40.45 66.55 40.2 Q67.65 39.85 68.5 39.25 L69.05 38.85 M43.7 23.4 L43.4 23.9 M58.3 44.35 L58.65 44.65 Q63.45 42.35 64.55 40.05 M60.5 46.2 L60.6 46.25 61.4 46.7 M58.65 44.65 L60.5 46.2 M-31.2 81.85 L-30.2 83.65 -43.65 84.1 -48.75 84.45 -59.3 84.65 -59.8 84.65 -60.85 84.6 -61.4 84.6 -65.25 84.35 Q-77.7 83.45 -87.9 79.95 M62.35 79.9 Q38.1 86.15 19.5 83.9 21.05 77.5 22.2 71.2 M65.1 313.2 L63.85 312.7 65.05 313.25 65.1 313.2 M50.9 308.5 Q57.55 309.75 63.85 312.7 M0.25 324.9 Q10.2 314.05 20.15 311.2 L22.75 310.55 23.25 310.45 26.95 309.45 Q39.45 306.4 50.9 308.5 M19.95 330.6 L20.1 330.6 21.85 330.65 Q42.8 331.05 77.55 330.1 M9.65 330.2 L17.2 330.5 18.6 330.55 18.85 330.55 M7.45 330.1 L0.25 329.5 M7.45 330.1 L9.65 330.2 M-48.75 -146.95 L-45.85 -144.35 -45.5 -144.05 -43.2 -142.4 M-36.75 -125.85 Q-40.1 -134.5 -47.0 -144.45 L-48.75 -146.95 M-35.0 -130.1 L-35.5 -138.1 M-36.75 -125.85 L-21.45 -124.15 -19.75 -121.6 -18.0 -118.95 M-32.35 -108.45 L-33.5 -114.2 -34.85 -119.8 -35.0 -120.3 Q-35.7 -123.0 -36.75 -125.85 M-31.9 -105.8 L-32.35 -108.45 M-31.7 -104.7 L-31.4 -102.1 -31.35 -101.5 -31.3 -101.3 Q-30.0 -88.25 -32.7 -78.3 L-33.05 -77.4 -32.65 -74.35 -32.0 -69.2 -31.75 -66.85 -31.5 -64.5 -30.6 -54.35 -30.25 -48.4 -30.2 -47.6 -29.95 -41.8 Q-29.4 -21.8 -31.5 -2.9 -32.7 7.15 -34.6 16.9 -37.5 38.0 -37.05 53.4 L-36.9 57.05 Q-36.5 63.75 -35.4 69.3 M-31.7 -104.7 L-31.8 -105.2 M-35.0 -120.3 Q-29.6 -114.2 -18.65 -112.4 L-10.3 -111.6 M-104.7 -74.75 Q-97.85 -81.4 -89.0 -82.75 -74.8 -81.9 -65.65 -67.35 L-61.2 -56.45 Q-60.2 -54.15 -59.75 -52.6 -59.4 -51.35 -59.4 -50.6 L-59.45 -50.35 -59.45 -50.15 -59.45 -46.8 -59.45 -50.35 M-50.35 -63.35 Q-48.75 -70.95 -47.65 -80.4 L-47.15 -85.05 -47.05 -85.75 -47.0 -86.1 -46.75 -87.55 M-59.45 -46.8 Q-59.3 -45.15 -59.95 -43.4 -61.2 -39.95 -65.3 -36.0 L-65.25 -36.05 Q-68.3 -33.2 -77.0 -30.4 -85.8 -27.6 -88.0 -28.1 L-91.15 -28.85 -92.95 -29.35 Q-96.6 -30.35 -99.7 -31.65 L-100.0 -31.8 Q-103.85 -33.8 -106.75 -35.95 -117.25 -50.25 -106.65 -72.65 L-106.35 -73.05 -106.15 -73.25 -105.25 -74.2 -104.7 -74.75 M-89.8 -112.2 Q-75.25 -109.25 -59.3 -102.25 -46.7 -93.95 -41.55 -85.4 L-39.4 -82.0 -37.2 -79.1 -36.8 -78.6 Q-34.15 -75.65 -33.05 -77.4 M-52.0 -56.55 L-50.35 -63.25 -50.35 -63.35 M-65.25 -36.05 L-64.05 -37.6 -64.25 -37.25 -65.25 -36.05 M-65.85 -32.0 L-64.35 -12.3 M-61.3 -37.7 Q-60.15 -38.85 -59.1 -40.3 -54.9 -46.1 -52.0 -56.55 M-53.4 22.8 L-53.95 23.6 Q-62.4 36.15 -71.6 42.85 L-71.7 42.9 -72.05 43.15 -72.35 43.35 Q-78.65 47.75 -85.3 49.35 L-86.9 49.8 M-78.1 15.9 L-77.1 14.55 -75.15 10.5 M-79.25 17.45 L-78.1 15.9 M-33.55 76.4 Q-32.55 79.35 -31.2 81.85 M-21.05 89.2 L-20.2 89.4 -16.5 90.1 M-21.05 89.2 L-22.85 88.7 -25.55 87.8 -28.1 86.8 -28.5 86.6 M-3.8 90.0 L-5.0 90.1 -8.45 90.4 -8.8 90.4 M-3.35 89.95 L-3.8 90.0 M-114.6 308.4 L-92.85 320.3 -92.65 320.45 -92.4 320.7 -92.1 320.95 Q-85.5 326.75 -79.0 329.1 L-78.1 329.4 M-114.6 308.4 L-117.4 307.8 -118.65 307.65 -119.1 307.6 Q-128.95 306.3 -139.4 308.8 L-141.45 309.3 -145.6 312.85 M-144.35 310.15 L-141.45 309.3 M-108.9 332.7 L-108.3 332.7 Q-93.8 332.85 -78.0 332.6 M-162.3 330.2 L-114.15 332.6 -112.5 332.65 -108.9 332.7 M-31.5 -2.9 Q-33.35 7.75 -34.6 16.9" fill="none" stroke="#1a5283" stroke-linecap="round" stroke-linejoin="round" stroke-width="2.0"/>
  </g>
</svg>
