<?xml version="1.0" encoding="UTF-8" standalone="no"?>
<svg xmlns:xlink="http://www.w3.org/1999/xlink" height="120.5px" width="111.15px" xmlns="http://www.w3.org/2000/svg">
  <g transform="matrix(1.0, 0.0, 0.0, 1.0, 124.15, 52.75)">
    <path d="M-113.0 -22.05 Q-120.3 -13.85 -122.6 0.8 -123.55 10.8 -122.8 20.7 L-122.8 20.8 -122.4 25.05 -122.2 26.6 -121.5 31.3 Q-118.8 49.3 -110.25 66.75 L-110.5 65.75 Q-118.55 34.0 -114.8 2.3 -110.5 -15.25 -99.3 -22.75 -85.75 -32.15 -70.7 -40.2 -68.65 -41.6 -65.6 -40.5 -64.85 -40.2 -65.35 -39.45 -65.7 -39.05 -66.4 -38.5 -77.2 -30.85 -83.25 -21.3 -90.1 -5.25 -91.75 12.15 -92.9 41.45 -77.3 64.95 -85.65 42.4 -85.15 12.8 -82.55 -5.85 -76.85 -19.3 -70.2 -29.2 -62.75 -34.85 -60.5 -36.55 -60.2 -35.1 -60.1 -34.45 -60.45 -33.05 -66.0 -15.1 -65.35 6.95 -62.15 33.95 -44.9 53.65 L-43.55 55.2 Q-56.35 31.15 -59.2 5.4 -61.15 -5.25 -56.45 -31.85 -55.35 -34.05 -54.15 -31.05 -40.1 -0.55 -14.25 13.65 L-14.0 4.85 Q-37.55 -6.75 -52.0 -40.1 L-53.15 -44.6 Q-51.45 -47.9 -50.6 -51.75 -56.5 -49.7 -59.65 -47.35 -64.7 -50.05 -67.9 -49.25 -83.0 -43.2 -100.25 -31.35 -106.5 -27.1 -113.0 -22.05 Z" fill="none" stroke="#000000" stroke-linecap="round" stroke-linejoin="round" stroke-width="2.0"/>
  </g>
</svg>
