<?xml version="1.0" encoding="UTF-8" standalone="no"?>
<svg xmlns:xlink="http://www.w3.org/1999/xlink" height="515.7px" width="277.5px" xmlns="http://www.w3.org/2000/svg">
  <g transform="matrix(1.0, 0.0, 0.0, 1.0, 163.45, 174.1)">
    <path d="M65.85 310.05 L65.8 310.35 65.85 310.05 M-50.35 -148.7 L-50.9 -149.4 -50.9 -149.45 -50.35 -148.7 M68.4 -119.5 L69.05 -118.85 69.0 -118.85 68.4 -119.5" fill="#cccccc" fill-rule="evenodd" stroke="none"/>
    <path d="M31.2 -148.1 L32.55 -147.15 34.8 -145.35 39.95 -140.55 Q41.75 -133.65 38.4 -131.5 35.05 -129.35 39.85 -129.95 44.6 -130.55 51.0 -133.0 65.95 -127.6 64.1 -125.8 L62.05 -124.95 62.45 -124.65 Q60.5 -124.0 56.2 -121.75 L41.75 -114.2 42.55 -114.75 Q51.1 -120.45 62.05 -124.95 51.1 -120.45 42.55 -114.75 L41.75 -114.2 37.45 -111.85 Q22.65 -103.4 21.15 -87.7 20.9 -85.6 20.95 -83.35 L18.8 -82.45 18.7 -82.3 Q19.7 -83.85 20.8 -86.75 17.3 -83.4 17.6 -99.9 18.7 -119.75 22.05 -130.2 25.35 -140.6 31.2 -148.1 M69.45 -116.9 L70.05 -116.15 Q83.9 -99.05 93.45 -75.7 102.75 -52.95 113.05 -47.7 109.95 -44.2 105.2 -41.45 99.35 -38.1 91.05 -35.75 78.75 -32.4 73.15 -30.1 L63.75 -25.9 62.05 -30.9 Q60.35 -35.9 57.45 -53.85 L55.35 -66.7 Q54.7 -70.85 54.65 -76.95 L54.45 -84.7 Q52.8 -84.35 52.4 -82.5 L51.55 -77.55 49.65 -60.7 49.55 -59.2 49.55 -60.15 Q50.0 -71.8 52.3 -84.35 L52.4 -84.85 52.45 -85.1 52.6 -86.0 52.85 -87.25 52.6 -86.0 52.45 -85.1 52.4 -84.85 52.3 -84.35 Q50.0 -71.8 49.55 -60.15 L49.55 -59.2 Q48.25 -36.15 53.15 -13.4 53.35 -12.4 53.7 -11.45 54.25 -2.25 54.05 5.95 L54.65 6.65 55.0 7.05 55.3 7.4 60.6 12.0 61.75 12.8 Q66.65 16.05 73.2 18.45 72.45 19.4 72.3 20.85 71.95 24.35 70.65 27.6 67.75 27.6 64.75 26.45 L63.4 26.1 Q63.75 26.3 66.85 33.05 L67.1 37.85 67.1 40.0 65.65 40.45 64.55 40.05 Q49.55 34.1 45.05 21.0 L44.65 19.85 Q45.25 17.95 46.25 16.75 47.6 19.5 51.55 18.55 52.7 18.25 52.2 17.25 50.55 13.9 51.85 10.15 52.4 8.65 52.45 7.35 L54.05 5.95 52.45 7.35 51.6 8.3 Q50.25 9.85 49.55 11.85 47.0 10.7 38.45 11.15 39.55 11.45 40.1 12.05 40.9 12.85 40.4 14.35 L40.1 12.05 40.4 14.35 Q39.15 18.1 43.05 23.0 L43.4 23.9 Q48.25 35.5 58.2 44.25 59.8 48.1 64.65 51.0 66.35 52.0 67.95 51.6 L68.8 51.4 68.55 50.9 Q74.75 63.95 72.45 74.25 67.6 76.95 62.4 78.8 40.65 86.45 13.45 79.0 7.2 77.3 0.75 74.8 L0.65 74.75 4.55 70.7 14.35 50.65 14.8 48.9 15.0 47.95 15.25 46.9 16.1 42.4 16.9 36.1 Q19.8 11.4 17.5 -8.5 13.8 -41.1 14.6 -67.7 16.25 -67.7 19.9 -72.65 23.5 -77.65 28.6 -90.45 33.7 -103.25 49.3 -113.3 64.0 -122.8 69.45 -116.9 M65.1 313.2 L65.7 313.65 Q75.85 320.9 77.55 330.1 42.8 331.05 21.85 330.65 L18.6 330.55 17.5 330.55 Q22.65 317.55 34.4 309.6 L36.85 307.85 Q51.1 306.7 63.85 312.7 L65.05 313.25 65.1 313.2 M-162.3 330.2 Q-161.95 327.8 -160.4 325.45 L-145.6 312.85 -141.45 309.3 -139.4 308.8 Q-130.15 306.55 -121.35 307.35 -102.05 321.9 -118.25 332.55 L-162.3 330.2 M-87.85 78.4 Q-93.55 75.5 -98.2 71.6 -105.6 65.45 -110.65 61.6 -117.85 56.15 -120.35 55.45 -99.3 43.6 -83.45 15.6 -83.25 18.15 -84.0 19.4 L-81.2 15.2 Q-77.7 9.7 -69.75 1.8 -61.8 -6.1 -59.0 -25.25 -56.2 -44.4 -44.55 -73.8 -42.25 -71.6 -40.45 -69.25 -38.7 -67.1 -36.75 -65.3 -34.45 -63.25 -32.05 -62.65 L-31.85 -56.25 -31.8 -56.2 Q-30.7 -10.95 -41.55 28.35 -47.85 51.1 -48.7 67.5 L-48.75 68.1 -48.85 72.15 -48.85 72.3 -48.85 72.8 -48.8 76.1 -48.3 82.0 -48.2 82.7 -47.9 84.45 -47.4 86.95 -64.85 85.55 -70.15 84.55 -74.15 83.6 -75.65 83.15 -76.4 82.95 -79.3 82.0 Q-83.85 80.45 -87.85 78.4 M-109.45 -83.25 Q-102.3 -97.0 -92.65 -108.75 -85.85 -107.0 -79.4 -104.15 -61.55 -96.3 -48.2 -82.9 L-49.8 -78.55 -55.6 -63.6 -56.45 -61.35 -59.5 -56.1 Q-62.3 -55.7 -64.65 -54.45 -63.65 -62.05 -65.65 -67.35 -74.8 -81.9 -89.0 -82.75 -98.85 -81.25 -106.15 -73.25 L-106.35 -73.05 -106.7 -72.65 -111.6 -65.0 Q-111.6 -74.25 -109.45 -83.25 M-89.75 -112.2 L-89.8 -112.2 -94.15 -113.0 Q-91.0 -120.95 -76.8 -126.85 L-75.3 -127.45 -74.55 -127.7 Q-71.55 -124.15 -68.05 -123.4 -64.6 -122.7 -65.35 -126.6 -66.15 -130.55 -67.4 -133.25 -61.3 -141.5 -55.2 -143.85 L-53.95 -144.45 Q-53.3 -139.15 -51.75 -133.8 -46.65 -116.0 -35.9 -101.5 -34.1 -89.3 -34.3 -76.75 -35.3 -76.95 -36.8 -78.6 L-39.4 -82.0 -41.55 -85.4 Q-46.7 -93.95 -59.3 -102.25 -75.25 -109.25 -89.75 -112.2 M15.3 -81.4 L16.2 -80.7 15.2 -79.65 15.3 -81.4 M20.8 -86.75 L21.15 -87.7 20.8 -86.75 M-66.55 -40.5 L-66.55 -38.3 -66.95 -38.4 -67.5 -38.5 -66.55 -40.5 M-56.8 22.0 Q-57.25 21.15 -58.25 20.4 -69.2 30.3 -75.65 36.9 -82.1 43.5 -86.35 45.05 -90.6 46.6 -90.95 48.3 -91.35 49.95 -90.85 49.8 -85.45 48.15 -80.6 45.55 L-80.45 45.5 Q-77.95 44.15 -75.5 42.45 L-75.2 42.25 -74.85 42.0 -74.8 41.95 -73.4 40.95 Q-67.75 36.7 -63.05 30.9 -61.3 28.75 -59.15 27.05 -55.8 24.35 -56.75 22.15 L-56.8 22.0 M-74.85 42.0 L-74.75 41.95 -73.4 40.95 -74.75 41.95 -74.85 42.0" fill="#4c97d9" fill-rule="evenodd" stroke="none"/>
    <path d="M77.55 330.1 Q78.2 333.75 77.55 337.7 L13.8 337.7 Q21.75 334.45 17.35 330.55 L17.5 330.55 18.6 330.55 21.85 330.65 Q42.8 331.05 77.55 330.1 M-78.0 332.6 L-78.0 333.45 -88.25 332.75 -78.0 332.6 M-113.2 340.55 L-119.85 340.45 Q-143.85 340.0 -160.65 337.9 -162.95 334.0 -162.3 330.2 L-118.25 332.55 -116.45 332.55 -117.8 334.55 Q-119.25 337.5 -116.95 338.7 L-113.2 340.55 M-8.35 -113.35 L-6.35 -113.9 2.05 -116.55 3.6 -117.15 Q7.25 -95.25 8.65 -66.95 9.95 -38.65 12.4 -1.8 14.6 32.15 5.5 65.8 -25.75 74.55 -48.7 67.5 -47.85 51.1 -41.55 28.35 -30.7 -10.95 -31.8 -56.2 -30.0 -36.0 -17.15 -7.85 -4.35 20.3 6.7 18.85 -2.9 13.3 -12.2 -9.6 -21.5 -32.5 -32.15 -64.85 L-32.45 -69.95 -32.9 -76.35 -33.05 -77.4 -32.7 -78.3 Q-30.0 -88.25 -31.3 -101.3 L-31.35 -101.5 -31.4 -102.1 -31.6 -103.75 Q-29.45 -100.6 -17.55 -96.75 -5.6 -92.95 3.75 -105.05 3.55 -106.0 -3.25 -102.85 -10.05 -99.7 -18.75 -102.5 -27.45 -105.3 -32.35 -108.5 L-32.35 -108.45 -33.5 -114.2 -34.85 -119.8 -35.0 -120.3 Q-31.05 -113.9 -23.95 -112.45 -16.9 -111.0 -13.5 -111.9 L-8.35 -113.35 M-40.2 57.3 L-47.45 55.6 -48.05 60.1 -29.85 64.2 Q-9.85 68.6 3.6 59.0 L3.3 58.65 Q-18.15 62.45 -40.2 57.3" fill="#1b2734" fill-rule="evenodd" stroke="none"/>
    <path d="M106.85 -33.9 L106.9 -33.2 Q107.25 -25.95 103.35 -19.2 L76.25 19.5 74.3 18.85 73.2 18.45 Q66.65 16.05 61.75 12.8 L60.6 12.0 61.5 12.6 Q62.15 6.05 67.15 -1.85 72.15 -9.75 74.8 -13.05 85.3 -26.2 102.5 -32.05 104.85 -32.85 106.85 -33.9 M-52.8 -152.55 L-53.05 -153.05 -51.2 -153.55 -52.75 -152.6 -52.8 -152.55 M-55.75 -167.7 L-56.25 -171.65 -36.45 -171.95 -37.1 -171.9 -45.65 -169.7 Q-50.7 -168.35 -55.75 -167.7 M16.55 -172.7 L41.7 -173.1 38.95 -161.85 34.7 -164.55 Q25.8 -169.45 16.55 -172.7 M20.55 -143.35 Q20.6 -142.65 18.95 -142.15 L16.6 -141.7 Q7.65 -137.05 -4.55 -132.5 -9.15 -130.8 -13.55 -130.7 -21.15 -132.55 -27.35 -134.75 -31.8 -136.35 -35.5 -138.1 L-40.0 -140.4 -40.15 -140.5 Q-42.25 -141.7 -44.0 -142.95 -42.25 -141.7 -40.15 -140.5 L-40.0 -140.4 -35.5 -138.1 Q-31.8 -136.35 -27.35 -134.75 -21.15 -132.55 -13.55 -130.7 -20.75 -130.55 -27.35 -134.75 L-27.45 -134.8 Q-31.5 -135.75 -35.45 -137.35 -40.9 -139.65 -46.15 -143.2 L-47.0 -144.45 -48.75 -146.95 -45.85 -144.35 -45.5 -144.05 -44.0 -142.95 -28.6 -148.95 Q-14.2 -154.65 6.85 -148.9 20.3 -145.3 20.55 -143.35 L18.95 -142.15 20.55 -143.35 M12.9 -127.3 L12.8 -126.85 9.3 -126.15 12.9 -127.3 M-35.5 -138.1 L-35.45 -137.35 -35.5 -138.1 M-35.0 -120.3 Q-35.7 -123.0 -36.75 -125.85 L-37.4 -127.5 Q-33.9 -126.3 -30.25 -125.4 L-28.05 -124.9 -27.95 -124.85 -36.75 -125.85 -27.95 -124.85 -21.1 -123.65 Q-11.85 -122.5 -2.8 -123.6 -4.2 -121.15 -5.75 -118.8 -7.55 -116.05 -8.35 -113.35 L-13.5 -111.9 Q-16.9 -111.0 -23.95 -112.45 -31.05 -113.9 -35.0 -120.3 M-18.0 -118.95 L-21.1 -123.65 -18.0 -118.95" fill="#ffe8d7" fill-rule="evenodd" stroke="none"/>
    <path d="M62.8 86.2 Q65.65 128.65 62.95 189.65 L62.4 200.65 62.4 207.65 Q62.45 237.1 65.85 265.3 69.15 292.95 66.05 309.0 30.9 302.3 -6.0 316.25 -4.2 278.8 0.35 254.75 3.85 236.05 12.6 209.65 5.9 205.4 6.25 198.15 7.6 165.55 4.9 112.2 4.15 97.8 -4.9 90.1 L-3.35 89.95 -4.9 90.1 -5.35 89.75 -6.65 89.95 -7.75 90.35 -7.8 90.35 -8.75 91.15 -8.8 90.4 -16.5 90.1 -17.5 92.8 -18.7 96.05 Q-20.65 92.8 -24.25 90.4 -26.25 90.45 -31.25 104.25 -36.25 118.0 -46.3 152.55 -56.4 187.05 -59.35 194.2 -62.3 201.35 -69.35 209.1 -67.35 224.6 -67.6 235.1 L-68.1 262.95 Q-68.35 280.35 -71.05 292.8 -73.75 305.2 -76.25 311.45 -78.4 316.65 -79.65 318.2 -96.5 301.15 -125.2 304.05 -132.4 304.7 -139.55 307.1 -142.8 308.2 -144.85 309.85 L-142.2 298.7 Q-128.35 267.7 -117.3 214.85 L-117.25 214.75 -117.1 213.85 -116.2 209.6 -112.65 190.9 -111.75 185.9 Q-101.5 131.45 -90.7 90.4 L-89.85 87.15 -90.0 87.8 -64.85 85.55 -47.4 86.95 -47.9 84.45 -48.2 82.7 -48.3 82.0 Q-47.85 79.5 -35.15 79.7 L-24.7 81.8 Q18.9 89.4 62.8 86.2 M-28.5 86.6 L-28.1 86.8 -25.55 87.8 -20.2 89.4 -16.5 90.1 -20.2 89.4 -25.55 87.8 -28.1 86.8 -28.5 86.6 M-8.8 90.4 L-8.45 90.4 -7.75 90.35 -8.45 90.4 -8.8 90.4" fill="#283e5d" fill-rule="evenodd" stroke="none"/>
    <path d="M64.55 40.05 L63.35 41.65 Q61.8 43.15 58.65 44.65 L58.2 44.25 Q48.25 35.5 43.4 23.9 L43.05 23.0 43.5 23.55 43.6 23.65 44.05 22.8 45.05 21.0 Q49.55 34.1 64.55 40.05 M43.4 23.9 L43.6 23.65 43.4 23.9" fill="#121b25" fill-rule="evenodd" stroke="none"/>
    <path d="M105.2 -41.45 L105.4 -40.95 Q106.6 -37.4 106.85 -33.9 104.85 -32.85 102.5 -32.05 85.3 -26.2 74.8 -13.05 72.15 -9.75 67.15 -1.85 62.15 6.05 61.5 12.6 L60.6 12.0 55.3 7.4 55.0 7.05 54.65 6.65 71.65 -24.85 73.15 -30.1 Q78.75 -32.4 91.05 -35.75 99.35 -38.1 105.2 -41.45 M-48.75 -146.95 L-48.9 -147.1 -49.3 -147.5 -50.35 -148.7 -50.9 -149.45 -51.75 -150.6 -52.6 -152.0 -52.8 -152.55 -52.75 -152.6 -51.2 -153.55 -53.05 -153.05 -54.45 -156.5 -55.75 -167.7 Q-50.7 -168.35 -45.65 -169.7 L-37.1 -171.9 -36.45 -171.95 16.55 -172.7 Q25.8 -169.45 34.7 -164.55 L38.95 -161.85 38.8 -161.35 Q33.6 -155.0 28.3 -149.95 24.45 -146.3 20.55 -143.35 20.3 -145.3 6.85 -148.9 -14.2 -154.65 -28.6 -148.95 L-44.0 -142.95 -45.5 -144.05 -45.85 -144.35 -48.75 -146.95 M18.95 -142.15 L18.15 -141.6 16.75 -140.65 15.95 -140.15 15.85 -139.8 Q13.9 -133.95 12.9 -127.3 L9.3 -126.15 12.8 -126.85 12.65 -125.85 12.4 -123.6 11.85 -123.05 11.6 -122.8 11.4 -122.6 10.85 -122.15 10.7 -122.0 10.25 -121.6 10.1 -121.5 Q6.65 -118.55 3.6 -117.15 L2.05 -116.55 -6.35 -113.9 -8.35 -113.35 Q-7.55 -116.05 -5.75 -118.8 -4.2 -121.15 -2.8 -123.6 -11.85 -122.5 -21.1 -123.65 L-21.35 -124.05 -27.95 -124.85 -21.35 -124.05 -21.1 -123.65 -27.95 -124.85 -28.05 -124.9 -30.25 -125.4 Q-33.9 -126.3 -37.4 -127.5 L-45.8 -142.65 -46.15 -143.2 Q-40.9 -139.65 -35.45 -137.35 -31.5 -135.75 -27.45 -134.8 L-27.35 -134.75 Q-20.75 -130.55 -13.55 -130.7 -9.15 -130.8 -4.55 -132.5 7.65 -137.05 16.6 -141.7 L18.95 -142.15 M10.45 -136.9 L8.9 -131.5 10.45 -136.9 Q-0.8 -131.05 -12.65 -130.5 L-13.55 -130.7 -12.65 -130.5 Q-0.8 -131.05 10.45 -136.9 12.8 -138.15 15.1 -139.6 12.8 -138.15 10.45 -136.9 M15.95 -140.15 L15.6 -139.9 15.95 -140.15 M-4.55 -119.7 L-1.7 -123.95 9.3 -126.15 -1.7 -123.95 -4.55 -119.7 M-46.15 -143.2 L-45.8 -142.65 -46.15 -143.2 M-35.45 -137.35 L-35.0 -130.1 -35.45 -137.35" fill="#e0bcaa" fill-rule="evenodd" stroke="none"/>
    <path d="M28.3 -149.95 L28.5 -149.8 28.8 -149.65 29.7 -149.1 31.2 -148.1 Q25.35 -140.6 22.05 -130.2 18.7 -119.75 17.6 -99.9 17.3 -83.4 20.8 -86.75 19.7 -83.85 18.7 -82.3 L18.6 -82.15 Q17.65 -80.8 16.8 -80.65 L16.75 -80.65 16.2 -80.7 16.75 -80.65 16.8 -80.65 Q17.65 -80.8 18.6 -82.15 L18.7 -82.3 18.8 -82.45 20.95 -83.35 Q20.9 -85.6 21.15 -87.7 L22.0 -90.35 22.85 -92.85 22.9 -93.05 28.95 -104.3 29.45 -104.9 30.45 -105.9 29.45 -104.9 28.95 -104.3 22.9 -93.05 22.85 -92.85 22.0 -90.35 21.15 -87.7 Q22.65 -103.4 37.45 -111.85 L41.75 -114.2 32.35 -107.55 32.2 -107.4 32.05 -107.3 Q31.35 -106.85 30.75 -106.25 31.35 -106.85 32.05 -107.3 L32.2 -107.4 32.35 -107.55 41.75 -114.2 56.2 -121.75 Q60.5 -124.0 62.45 -124.65 L62.55 -124.55 62.6 -124.5 62.85 -124.3 63.35 -123.75 69.45 -116.9 Q64.0 -122.8 49.3 -113.3 33.7 -103.25 28.6 -90.45 23.5 -77.65 19.9 -72.65 16.25 -67.7 14.6 -67.7 L14.65 -69.7 Q14.8 -74.8 15.2 -79.65 L16.2 -80.7 15.3 -81.4 15.25 -81.45 Q10.35 -105.2 12.4 -123.6 L12.65 -125.85 12.8 -126.85 12.9 -127.3 Q13.9 -133.95 15.85 -139.8 L15.95 -140.15 16.75 -140.65 18.15 -141.6 18.95 -142.15 Q20.6 -142.65 20.55 -143.35 24.45 -146.3 28.3 -149.95 M39.95 -140.55 L41.45 -139.0 44.9 -135.15 45.35 -135.0 48.9 -133.75 51.0 -133.0 Q44.6 -130.55 39.85 -129.95 35.05 -129.35 38.4 -131.5 41.75 -133.65 39.95 -140.55 M76.25 19.5 L77.45 19.85 Q76.5 29.25 71.3 32.1 L71.3 33.35 69.4 38.5 69.25 38.7 68.5 39.25 67.1 40.0 67.1 37.85 66.85 33.05 Q63.75 26.3 63.4 26.1 L64.75 26.45 Q67.75 27.6 70.65 27.6 71.95 24.35 72.3 20.85 72.45 19.4 73.2 18.45 L74.3 18.85 76.25 19.5 M63.35 41.65 L64.25 43.05 Q66.75 47.05 68.55 50.9 L68.8 51.4 67.95 51.6 Q66.35 52.0 64.65 51.0 59.8 48.1 58.2 44.25 L58.65 44.65 Q61.8 43.15 63.35 41.65 M0.25 329.5 L0.25 324.9 Q11.8 312.35 23.25 310.45 L25.5 309.85 32.45 308.4 36.85 307.85 34.4 309.6 Q22.65 317.55 17.5 330.55 L17.35 330.55 0.25 329.5 M-78.1 329.4 L-78.0 332.6 -88.25 332.75 -112.5 332.65 -114.15 332.6 -116.45 332.55 -118.25 332.55 Q-102.05 321.9 -121.35 307.35 L-119.1 307.6 -118.65 307.65 -117.4 307.8 Q-104.55 309.95 -92.1 320.95 -89.35 323.4 -86.6 325.2 -82.8 327.75 -79.0 329.1 L-78.1 329.4 M-83.45 15.6 L-81.85 12.7 -74.45 -1.0 Q-68.05 -20.15 -67.7 -38.2 -76.15 -25.3 -94.55 -23.8 -105.9 -24.6 -113.8 -30.15 -121.75 -35.75 -121.65 -45.4 -121.65 -50.9 -120.4 -56.15 -119.5 -60.15 -117.9 -64.0 -114.2 -74.05 -109.45 -83.25 -111.6 -74.25 -111.6 -65.0 L-106.7 -72.65 -106.35 -73.05 -106.15 -73.25 Q-98.85 -81.25 -89.0 -82.75 -74.8 -81.9 -65.65 -67.35 -63.65 -62.05 -64.65 -54.45 -62.3 -55.7 -59.5 -56.1 L-56.45 -61.35 -55.6 -63.6 -49.8 -78.55 -48.2 -82.9 Q-61.55 -96.3 -79.4 -104.15 -85.85 -107.0 -92.65 -108.75 L-89.75 -112.2 Q-75.25 -109.25 -59.3 -102.25 -46.7 -93.95 -41.55 -85.4 L-39.4 -82.0 -36.8 -78.6 Q-35.3 -76.95 -34.3 -76.75 -34.1 -89.3 -35.9 -101.5 -46.65 -116.0 -51.75 -133.8 -53.3 -139.15 -53.95 -144.45 L-48.75 -146.95 -47.0 -144.45 -46.15 -143.2 -45.8 -142.65 -37.4 -127.5 -36.75 -125.85 Q-35.7 -123.0 -35.0 -120.3 L-34.85 -119.8 -33.5 -114.2 -32.35 -108.45 -31.6 -103.75 -31.4 -102.1 -31.35 -101.5 -31.3 -101.3 Q-30.0 -88.25 -32.7 -78.3 L-33.05 -77.4 -32.9 -76.35 -32.45 -69.95 -32.15 -64.85 -32.15 -64.9 -32.05 -62.65 Q-34.45 -63.25 -36.75 -65.3 -38.7 -67.1 -40.45 -69.25 -42.25 -71.6 -44.55 -73.8 -56.2 -44.4 -59.0 -25.25 -61.8 -6.1 -69.75 1.8 -77.7 9.7 -81.2 15.2 L-84.0 19.4 Q-83.25 18.15 -83.45 15.6 M-74.55 -127.7 L-70.45 -129.2 -70.2 -129.3 -68.05 -132.4 -67.4 -133.25 Q-66.15 -130.55 -65.35 -126.6 -64.6 -122.7 -68.05 -123.4 -71.55 -124.15 -74.55 -127.7 M49.55 -59.2 L49.65 -60.7 51.55 -77.55 52.4 -82.5 Q52.8 -84.35 54.45 -84.7 L54.65 -76.95 Q54.7 -70.85 55.35 -66.7 L57.45 -53.85 Q60.35 -35.9 62.05 -30.9 L63.75 -25.9 63.5 -25.8 63.35 -25.75 56.75 -22.45 56.5 -22.3 52.7 -22.7 53.7 -11.45 Q53.35 -12.4 53.15 -13.4 48.25 -36.15 49.55 -59.2 49.4 -55.05 49.55 -50.95 L49.65 -49.0 Q49.9 -42.25 50.9 -35.85 L52.7 -22.7 50.9 -35.85 Q49.9 -42.25 49.65 -49.0 L49.55 -50.95 Q49.4 -55.05 49.55 -59.2 M49.55 11.85 Q50.25 9.85 51.6 8.3 L52.45 7.35 Q52.4 8.65 51.85 10.15 50.55 13.9 52.2 17.25 52.7 18.25 51.55 18.55 47.6 19.5 46.25 16.75 45.25 17.95 44.65 19.85 L45.05 21.0 44.05 22.8 43.6 23.65 43.5 23.55 43.05 23.0 Q41.4 18.85 40.4 14.35 41.4 18.85 43.05 23.0 39.15 18.1 40.4 14.35 40.9 12.85 40.1 12.05 39.55 11.45 38.45 11.15 47.0 10.7 49.55 11.85 L48.95 13.7 48.7 14.85 Q47.4 15.35 46.45 16.5 L46.25 16.75 46.45 16.5 Q47.4 15.35 48.7 14.85 L48.95 13.7 49.55 11.85 M61.35 46.85 L58.65 44.65 61.35 46.85 M-111.6 -65.0 L-114.05 -61.15 -114.45 -60.1 -114.55 -59.9 Q-116.4 -54.9 -117.25 -50.75 -120.75 -34.0 -108.1 -30.8 -103.5 -29.3 -102.85 -29.35 L-99.4 -28.8 -94.05 -28.55 -91.1 -28.85 -90.9 -28.8 Q-79.2 -30.4 -72.9 -35.75 -68.5 -39.55 -66.75 -45.25 L-66.7 -45.5 -66.6 -45.85 -65.7 -49.2 -65.05 -52.05 -65.0 -52.2 -64.9 -52.85 -64.65 -54.45 -64.9 -52.85 -65.0 -52.2 -65.05 -52.05 -65.7 -49.2 -66.6 -45.85 -66.7 -45.5 -66.75 -45.25 Q-68.5 -39.55 -72.9 -35.75 -79.2 -30.4 -90.9 -28.8 L-91.1 -28.85 -94.05 -28.55 -99.4 -28.8 -102.85 -29.35 Q-103.5 -29.3 -108.1 -30.8 -120.75 -34.0 -117.25 -50.75 -116.4 -54.9 -114.55 -59.9 L-114.45 -60.1 -114.05 -61.15 -111.6 -65.0 M-33.05 -77.4 L-33.25 -77.15 Q-33.7 -76.65 -34.3 -76.75 -33.7 -76.65 -33.25 -77.15 L-33.05 -77.4 M-56.45 -61.35 L-62.15 -47.5 -63.7 -44.6 -64.55 -43.15 -66.55 -40.5 -64.55 -43.15 -63.7 -44.6 -62.15 -47.5 -56.45 -61.35 M-46.75 -87.55 Q-47.0 -86.3 -48.2 -82.9 -47.0 -86.3 -46.75 -87.55 M-66.55 -38.3 L-66.55 -40.5 -67.5 -38.5 -66.95 -38.4 -66.55 -38.3 -66.55 -19.15 -66.55 -38.3 M-67.5 -38.5 L-67.7 -38.2 -67.5 -38.5 M-80.6 45.55 Q-85.45 48.15 -90.85 49.8 -91.35 49.95 -90.95 48.3 -90.6 46.6 -86.35 45.05 -82.1 43.5 -75.65 36.9 -69.2 30.3 -58.25 20.4 -57.25 21.15 -56.8 22.0 L-56.75 22.15 Q-55.8 24.35 -59.15 27.05 -61.3 28.75 -63.05 30.9 -67.75 36.7 -73.4 40.95 -64.95 34.3 -57.1 22.7 L-56.75 22.15 -57.1 22.7 Q-64.95 34.3 -73.4 40.95 L-74.8 41.95 -74.85 42.0 -75.2 42.25 -75.5 42.45 Q-77.95 44.15 -80.45 45.5 L-80.6 45.55 Q-84.5 47.5 -88.45 48.45 L-90.05 48.9 -88.45 48.45 Q-84.5 47.5 -80.6 45.55" fill="#3572b4" fill-rule="evenodd" stroke="none"/>
    <path d="M13.8 337.7 L4.05 337.7 Q0.1 337.25 0.25 330.1 L0.25 329.5 17.35 330.55 Q21.75 334.45 13.8 337.7 M-78.0 333.45 Q-78.25 338.7 -80.3 340.25 -98.1 340.7 -113.2 340.55 L-116.95 338.7 Q-119.25 337.5 -117.8 334.55 L-116.45 332.55 -114.15 332.6 -112.5 332.65 -88.25 332.75 -78.0 333.45 M12.4 -123.6 Q10.35 -105.2 15.25 -81.45 L15.3 -81.4 15.2 -79.65 Q14.8 -74.8 14.65 -69.7 L14.6 -67.7 Q13.8 -41.1 17.5 -8.5 19.8 11.4 16.9 36.1 L16.1 42.4 15.25 46.9 15.0 47.95 14.8 48.9 14.35 50.65 4.55 70.7 0.65 74.75 0.75 74.8 Q-25.55 78.2 -37.5 75.75 -41.0 75.0 -43.25 73.8 -43.25 73.6 -48.85 72.15 L-48.75 68.1 -48.7 67.5 Q-25.75 74.55 5.5 65.8 14.6 32.15 12.4 -1.8 9.95 -38.65 8.65 -66.95 7.25 -95.25 3.6 -117.15 6.65 -118.55 10.1 -121.5 L10.25 -121.6 10.7 -122.0 10.85 -122.15 11.4 -122.6 11.6 -122.8 11.85 -123.05 12.4 -123.6 M-40.2 57.3 Q-18.15 62.45 3.3 58.65 L3.6 59.0 Q-9.85 68.6 -29.85 64.2 L-48.05 60.1 -47.45 55.6 -40.2 57.3 M-32.35 -108.45 L-32.35 -108.5 Q-27.45 -105.3 -18.75 -102.5 -10.05 -99.7 -3.25 -102.85 3.55 -106.0 3.75 -105.05 -5.6 -92.95 -17.55 -96.75 -29.45 -100.6 -31.6 -103.75 L-32.35 -108.45 M-32.15 -64.85 Q-21.5 -32.5 -12.2 -9.6 -2.9 13.3 6.7 18.85 -4.35 20.3 -17.15 -7.85 -30.0 -36.0 -31.8 -56.2 L-31.85 -56.25 -32.05 -62.65 -32.15 -64.9 -32.15 -64.85 -31.8 -56.2 -32.15 -64.85" fill="#070a0e" fill-rule="evenodd" stroke="none"/>
    <path d="M62.4 78.8 L62.5 79.9 62.35 79.9 62.6 83.4 62.65 84.0 62.7 84.35 62.7 84.4 62.7 84.75 62.8 86.2 Q18.9 89.4 -24.7 81.8 L-35.15 79.7 Q-47.85 79.5 -48.3 82.0 L-48.8 76.1 -48.85 72.8 -48.85 72.3 -48.85 72.15 Q-43.25 73.6 -43.25 73.8 -41.0 75.0 -37.5 75.75 -25.55 78.2 0.75 74.8 7.2 77.3 13.45 79.0 40.65 86.45 62.4 78.8 M66.05 309.0 L65.9 309.65 65.85 310.05 65.8 310.35 65.7 310.65 65.1 313.2 63.85 312.7 Q51.1 306.7 36.85 307.85 L32.45 308.4 25.5 309.85 23.25 310.45 Q11.8 312.35 0.25 324.9 -6.35 327.25 -11.25 324.05 -15.1 307.9 0.0 207.35 L-5.0 140.75 -5.0 140.45 -7.3 109.95 -8.7 91.8 -8.75 91.15 -7.8 90.35 -7.75 90.35 -5.0 90.1 -4.9 90.1 -5.0 90.1 -7.75 90.35 -6.65 89.95 -5.35 89.75 -4.9 90.1 Q4.15 97.8 4.9 112.2 7.6 165.55 6.25 198.15 5.9 205.4 12.6 209.65 3.85 236.05 0.35 254.75 -4.2 278.8 -6.0 316.25 30.9 302.3 66.05 309.0 L65.9 309.65 66.05 309.0 M-18.7 96.05 Q-37.15 145.55 -48.2 192.0 L-53.35 220.35 Q-56.9 300.3 -67.4 330.4 -72.75 331.1 -78.1 329.4 L-79.0 329.1 Q-82.8 327.75 -86.6 325.2 -89.35 323.4 -92.1 320.95 -104.55 309.95 -117.4 307.8 L-118.65 307.65 -119.1 307.6 -121.35 307.35 Q-130.15 306.55 -139.4 308.8 L-141.45 309.3 -144.35 310.15 -145.6 312.85 -144.85 309.85 Q-142.8 308.2 -139.55 307.1 -132.4 304.7 -125.2 304.05 -96.5 301.15 -79.65 318.2 -78.4 316.65 -76.25 311.45 -73.75 305.2 -71.05 292.8 -68.35 280.35 -68.1 262.95 L-67.6 235.1 Q-67.35 224.6 -69.35 209.1 -62.3 201.35 -59.35 194.2 -56.4 187.05 -46.3 152.55 -36.25 118.0 -31.25 104.25 -26.25 90.45 -24.25 90.4 -20.65 92.8 -18.7 96.05 M-89.85 87.15 L-87.95 78.8 -87.85 78.4 Q-83.85 80.45 -79.3 82.0 L-76.4 82.95 -75.65 83.15 -74.15 83.6 -70.15 84.55 -64.85 85.55 -90.0 87.8 -89.85 87.15" fill="#182538" fill-rule="evenodd" stroke="none"/>
    <path d="M28.3 -149.95 L28.5 -149.8 28.8 -149.65 29.7 -149.1 31.2 -148.1 32.55 -147.15 34.8 -145.35 39.95 -140.55 41.45 -139.0 44.9 -135.15 45.35 -135.0 48.9 -133.75 51.0 -133.0 Q65.95 -127.6 64.1 -125.8 L62.05 -124.95 62.45 -124.65 62.55 -124.55 62.6 -124.5 62.85 -124.3 63.35 -123.75 69.45 -116.9 70.05 -116.15 Q83.9 -99.05 93.45 -75.7 102.75 -52.95 113.05 -47.7 109.95 -44.2 105.2 -41.45 L105.4 -40.95 Q106.6 -37.4 106.85 -33.9 L106.9 -33.2 Q107.25 -25.95 103.35 -19.2 L76.25 19.5 77.45 19.85 Q76.5 29.25 71.3 32.1 L71.3 33.35 69.4 38.5 69.25 38.7 68.5 39.25 67.1 40.0 65.65 40.45 64.55 40.05 63.35 41.65 64.25 43.05 Q66.75 47.05 68.55 50.9 74.75 63.95 72.45 74.25 67.6 76.95 62.4 78.8 L62.5 79.9 62.7 84.35 62.7 84.4 62.7 84.75 62.8 86.2 Q65.65 128.65 62.95 189.65 L62.4 200.65 62.4 207.65 Q62.45 237.1 65.85 265.3 69.15 292.95 66.05 309.0 L65.9 309.65 65.85 310.05 65.8 310.35 65.7 310.65 65.1 313.2 65.7 313.65 Q75.85 320.9 77.55 330.1 78.2 333.75 77.55 337.7 L13.8 337.7 4.05 337.7 Q0.1 337.25 0.25 330.1 L0.25 329.5 0.25 324.9 Q-6.35 327.25 -11.25 324.05 -15.1 307.9 0.0 207.35 L-5.0 140.75 M-5.0 140.45 L-7.3 109.95 -8.7 91.8 -8.75 91.15 -8.8 90.4 -16.5 90.1 -17.5 92.8 -18.7 96.05 Q-37.15 145.55 -48.2 192.0 L-53.35 220.35 Q-56.9 300.3 -67.4 330.4 -72.75 331.1 -78.1 329.4 L-78.0 332.6 -78.0 333.45 Q-78.25 338.7 -80.3 340.25 -98.1 340.7 -113.2 340.55 L-119.85 340.45 Q-143.85 340.0 -160.65 337.9 -162.95 334.0 -162.3 330.2 -161.95 327.8 -160.4 325.45 L-145.6 312.85 -144.85 309.85 -142.2 298.7 Q-128.35 267.7 -117.3 214.85 M-117.25 214.75 L-117.1 213.85 -116.2 209.6 -112.65 190.9 -111.75 185.9 Q-101.5 131.45 -90.7 90.4 L-89.85 87.15 -87.95 78.8 -87.85 78.4 Q-93.55 75.5 -98.2 71.6 -105.6 65.45 -110.65 61.6 -117.85 56.15 -120.35 55.45 -99.3 43.6 -83.45 15.6 L-81.85 12.7 -74.45 -1.0 Q-68.05 -20.15 -67.7 -38.2 -76.15 -25.3 -94.55 -23.8 -105.9 -24.6 -113.8 -30.15 -121.75 -35.75 -121.65 -45.4 -121.65 -50.9 -120.4 -56.15 -119.5 -60.15 -117.9 -64.0 -114.2 -74.05 -109.45 -83.25 -102.3 -97.0 -92.65 -108.75 L-89.75 -112.2 -89.8 -112.2 -94.15 -113.0 Q-91.0 -120.95 -76.8 -126.85 L-75.3 -127.45 -74.55 -127.7 -70.45 -129.2 -70.2 -129.3 -68.05 -132.4 -67.4 -133.25 Q-61.3 -141.5 -55.2 -143.85 L-53.95 -144.45 -48.75 -146.95 -48.9 -147.1 -49.3 -147.5 -50.35 -148.7 -50.9 -149.45 -51.75 -150.6 -52.6 -152.0 -52.8 -152.55 -53.05 -153.05 -54.45 -156.5 -55.75 -167.7 -56.25 -171.65 -36.45 -171.95 16.55 -172.7 41.7 -173.1 38.95 -161.85 38.8 -161.35 Q33.6 -155.0 28.3 -149.95 24.45 -146.3 20.55 -143.35 L18.95 -142.15 18.15 -141.6 16.75 -140.65 15.95 -140.15 15.85 -139.8 Q13.9 -133.95 12.9 -127.3 L12.8 -126.85 12.65 -125.85 12.4 -123.6 Q10.35 -105.2 15.25 -81.45 L15.3 -81.4 16.2 -80.7 16.75 -80.65 16.8 -80.65 Q17.65 -80.8 18.6 -82.15 L18.7 -82.3 Q19.7 -83.85 20.8 -86.75 L21.15 -87.7 22.0 -90.35 22.85 -92.85 22.9 -93.05 28.95 -104.3 29.45 -104.9 30.45 -105.9 M-44.0 -142.95 Q-42.25 -141.7 -40.15 -140.5 L-40.0 -140.4 -35.5 -138.1 Q-31.8 -136.35 -27.35 -134.75 -21.15 -132.55 -13.55 -130.7 L-12.65 -130.5 Q-0.8 -131.05 10.45 -136.9 12.8 -138.15 15.1 -139.6 M15.6 -139.9 L15.95 -140.15 M8.9 -131.5 L10.45 -136.9 M12.8 -126.85 L9.3 -126.15 -1.7 -123.95 -4.55 -119.7 M3.6 -117.15 Q6.65 -118.55 10.1 -121.5 L10.25 -121.6 10.7 -122.0 10.85 -122.15 11.4 -122.6 11.6 -122.8 11.85 -123.05 12.4 -123.6 M-8.35 -113.35 L-6.35 -113.9 2.05 -116.55 3.6 -117.15 M-48.75 68.1 L-48.85 72.15 Q-43.25 73.6 -43.25 73.8 -41.0 75.0 -37.5 75.75 -25.55 78.2 0.75 74.8 L0.65 74.75 4.55 70.7 14.35 50.65 14.8 48.9 15.0 47.95 15.25 46.9 16.1 42.4 16.9 36.1 Q19.8 11.4 17.5 -8.5 13.8 -41.1 14.6 -67.7 L14.65 -69.7 Q14.8 -74.8 15.2 -79.65 L15.3 -81.4 M41.75 -114.2 L32.35 -107.55 32.2 -107.4 32.05 -107.3 Q31.35 -106.85 30.75 -106.25 M62.05 -124.95 Q51.1 -120.45 42.55 -114.75 L41.75 -114.2 M52.85 -87.25 L52.6 -86.0 52.45 -85.1 52.4 -84.85 52.3 -84.35 Q50.0 -71.8 49.55 -60.15 L49.55 -59.2 Q49.4 -55.05 49.55 -50.95 L49.65 -49.0 Q49.9 -42.25 50.9 -35.85 L52.7 -22.7 56.5 -22.3 56.75 -22.45 63.35 -25.75 63.5 -25.8 63.75 -25.9 73.15 -30.1 Q78.75 -32.4 91.05 -35.75 99.35 -38.1 105.2 -41.45 M54.65 6.65 L71.65 -24.85 73.15 -30.1 M52.7 -22.7 L53.7 -11.45 Q54.25 -2.25 54.05 5.95 L54.65 6.65 55.0 7.05 55.3 7.4 60.6 12.0 61.75 12.8 Q66.65 16.05 73.2 18.45 L74.3 18.85 76.25 19.5 M52.45 7.35 L54.05 5.95 M49.55 11.85 Q50.25 9.85 51.6 8.3 L52.45 7.35 M46.25 16.75 Q45.25 17.95 44.65 19.85 L45.05 21.0 Q49.55 34.1 64.55 40.05 M46.25 16.75 L46.45 16.5 Q47.4 15.35 48.7 14.85 L48.95 13.7 49.55 11.85 M40.4 14.35 Q41.4 18.85 43.05 23.0 L43.4 23.9 Q48.25 35.5 58.2 44.25 L58.65 44.65 Q61.8 43.15 63.35 41.65 M44.05 22.8 L45.05 21.0 M43.6 23.65 L43.4 23.9 M58.65 44.65 L61.35 46.85 M40.1 12.05 L40.4 14.35 M0.75 74.8 Q7.2 77.3 13.45 79.0 40.65 86.45 62.4 78.8 M62.7 84.35 L62.65 84.0 M-4.9 90.1 L-5.0 90.1 -7.75 90.35 -8.45 90.4 -8.8 90.4 M63.85 312.7 L65.05 313.25 65.1 313.2 63.85 312.7 Q51.1 306.7 36.85 307.85 L32.45 308.4 25.5 309.85 23.25 310.45 Q11.8 312.35 0.25 324.9 M17.5 330.55 L18.6 330.55 21.85 330.65 Q42.8 331.05 77.55 330.1 M17.35 330.55 L17.5 330.55 M0.25 329.5 L17.35 330.55 M-48.75 -146.95 L-45.85 -144.35 -45.5 -144.05 -44.0 -142.95 M-46.15 -143.2 L-47.0 -144.45 -48.75 -146.95 M-35.45 -137.35 L-35.5 -138.1 M-45.8 -142.65 L-46.15 -143.2 M-35.0 -120.3 Q-35.7 -123.0 -36.75 -125.85 L-37.4 -127.5 -45.8 -142.65 M-27.95 -124.85 L-21.35 -124.05 -21.1 -123.65 -18.0 -118.95 M-8.35 -113.35 L-13.5 -111.9 Q-16.9 -111.0 -23.95 -112.45 -31.05 -113.9 -35.0 -120.3 L-34.85 -119.8 -33.5 -114.2 -32.35 -108.45 -31.6 -103.75 -31.4 -102.1 -31.35 -101.5 -31.3 -101.3 Q-30.0 -88.25 -32.7 -78.3 L-33.05 -77.4 -32.9 -76.35 -32.45 -69.95 -32.15 -64.85 -31.8 -56.2 Q-30.7 -10.95 -41.55 28.35 -47.85 51.1 -48.7 67.5 M-35.0 -130.1 L-35.45 -137.35 M-36.75 -125.85 L-27.95 -124.85 M-64.65 -54.45 L-64.9 -52.85 -65.0 -52.2 -65.05 -52.05 -65.7 -49.2 -66.6 -45.85 -66.7 -45.5 -66.75 -45.25 Q-68.5 -39.55 -72.9 -35.75 -79.2 -30.4 -90.9 -28.8 L-91.1 -28.85 -94.05 -28.55 -99.4 -28.8 -102.85 -29.35 Q-103.5 -29.3 -108.1 -30.8 -120.75 -34.0 -117.25 -50.75 -116.4 -54.9 -114.55 -59.9 L-114.45 -60.1 -114.05 -61.15 -111.6 -65.0 -106.7 -72.65 -106.35 -73.05 -106.15 -73.25 Q-98.85 -81.25 -89.0 -82.75 -74.8 -81.9 -65.65 -67.35 -63.65 -62.05 -64.65 -54.45 M-56.45 -61.35 L-55.6 -63.6 -49.8 -78.55 -48.2 -82.9 Q-47.0 -86.3 -46.75 -87.55 M-89.75 -112.2 Q-75.25 -109.25 -59.3 -102.25 -46.7 -93.95 -41.55 -85.4 L-39.4 -82.0 -36.8 -78.6 Q-35.3 -76.95 -34.3 -76.75 -33.7 -76.65 -33.25 -77.15 L-33.05 -77.4 M-66.55 -40.5 L-64.55 -43.15 -63.7 -44.6 -62.15 -47.5 -56.45 -61.35 M-66.55 -40.5 L-66.55 -38.3 -66.55 -19.15 M-67.5 -38.5 L-66.55 -40.5 M-67.7 -38.2 L-67.5 -38.5 M-56.8 22.0 L-56.75 22.15 -57.1 22.7 Q-64.95 34.3 -73.4 40.95 L-74.75 41.95 -74.85 42.0 -75.2 42.25 -75.5 42.45 Q-77.95 44.15 -80.45 45.5 L-80.6 45.55 Q-84.5 47.5 -88.45 48.45 L-90.05 48.9 M-48.3 82.0 L-48.8 76.1 -48.85 72.8 -48.85 72.3 -48.85 72.15 M-87.85 78.4 Q-83.85 80.45 -79.3 82.0 L-76.4 82.95 -75.65 83.15 -74.15 83.6 -70.15 84.55 -64.85 85.55 -47.4 86.95 -47.9 84.45 -48.2 82.7 -48.3 82.0 M-16.5 90.1 L-20.2 89.4 -25.55 87.8 -28.1 86.8 -28.5 86.6 M-3.35 89.95 L-4.9 90.1 M-121.35 307.35 L-119.1 307.6 -118.65 307.65 -117.4 307.8 Q-104.55 309.95 -92.1 320.95 -89.35 323.4 -86.6 325.2 -82.8 327.75 -79.0 329.1 L-78.1 329.4 M-118.25 332.55 L-162.3 330.2 M-114.15 332.6 L-112.5 332.65 -88.25 332.75 -78.0 332.6 M-121.35 307.35 Q-130.15 306.55 -139.4 308.8 L-141.45 309.3 -145.6 312.85 M-144.35 310.15 L-141.45 309.3" fill="none" stroke="#1a5283" stroke-linecap="round" stroke-linejoin="round" stroke-width="2.0"/>
  </g>
</svg>
