<?xml version="1.0" encoding="UTF-8" standalone="no"?>
<svg xmlns:xlink="http://www.w3.org/1999/xlink" height="515.7px" width="275.15px" xmlns="http://www.w3.org/2000/svg">
  <g transform="matrix(1.0, 0.0, 0.0, 1.0, 163.45, 174.1)">
    <path d="M-50.9 -149.45 L-50.35 -148.7 -50.9 -149.4 -50.9 -149.45 M65.85 310.05 L65.8 310.35 65.85 310.05 M68.4 -119.5 L69.05 -118.85 69.0 -118.85 68.4 -119.5 M1.25 75.0 L0.75 74.8 0.65 74.75 0.7 74.7 1.25 75.0" fill="#cccccc" fill-rule="evenodd" stroke="none"/>
    <path d="M29.95 -148.95 L32.55 -147.15 34.8 -145.35 41.45 -139.0 42.1 -138.35 Q40.8 -136.2 38.85 -130.6 36.9 -125.1 42.8 -129.1 48.65 -133.15 49.9 -133.4 66.05 -127.65 64.1 -125.8 L62.05 -124.95 Q55.5 -122.25 49.85 -119.15 26.35 -109.2 20.4 -85.75 L19.1 -82.95 17.35 -87.55 Q15.9 -91.4 16.05 -105.85 16.2 -120.3 20.6 -131.15 24.95 -142.05 28.2 -146.4 L29.95 -148.95 M-53.0 63.55 L-54.25 70.1 -55.2 76.2 -55.75 80.6 -56.3 86.55 Q-63.85 85.95 -70.5 84.5 L-70.95 84.4 -76.4 82.95 -79.3 82.0 Q-83.85 80.45 -87.85 78.4 -93.55 75.5 -102.25 69.85 -111.0 64.2 -115.25 60.0 -119.55 55.8 -123.55 47.15 -105.25 42.15 -88.9 23.2 -76.55 12.75 -71.5 2.55 -66.45 -7.7 -62.15 -25.0 -57.85 -42.3 -42.1 -74.15 L-37.75 -67.7 Q-35.3 -63.85 -32.05 -62.9 L-32.0 -61.9 -31.85 -57.95 -31.7 -54.0 Q-30.75 -12.0 -40.3 17.45 -46.8 37.5 -50.65 53.1 L-51.65 57.3 -53.0 63.55 M-1.15 73.8 L-6.9 71.0 Q20.5 58.85 15.55 -28.75 L15.4 -31.55 15.15 -35.1 Q14.15 -52.15 14.6 -67.2 L17.7 -72.4 Q21.3 -78.7 26.9 -89.85 32.45 -101.05 51.7 -114.7 60.55 -121.0 64.6 -122.45 L67.6 -119.1 Q83.05 -101.1 93.45 -75.7 102.75 -52.95 110.7 -44.15 109.95 -44.2 105.2 -41.45 98.9 -37.05 88.25 -33.25 77.6 -29.45 73.15 -30.1 L63.35 -28.95 Q53.95 -55.65 53.45 -71.0 53.15 -81.35 53.65 -83.55 53.2 -83.3 53.1 -82.75 46.95 -55.1 52.9 -26.6 L53.05 -26.05 52.35 -25.7 52.7 -22.7 54.05 5.95 54.65 6.65 Q57.35 9.75 61.05 12.3 L61.75 12.8 63.0 13.6 Q67.55 16.4 73.4 18.55 L72.95 23.6 Q72.75 26.5 69.5 27.5 L64.4 27.35 68.05 33.35 67.9 38.1 Q67.8 38.9 67.85 39.65 66.9 40.15 65.65 40.45 L64.55 40.05 Q49.55 34.1 45.05 21.0 L44.65 19.85 Q45.3 17.75 46.45 16.5 L46.7 16.25 Q47.35 17.75 48.75 18.65 52.75 21.15 51.9 16.75 51.4 13.95 51.9 11.0 52.2 9.2 52.1 7.75 L54.05 5.95 52.1 7.75 51.6 8.3 Q49.65 10.6 48.95 13.7 L48.75 14.65 Q46.1 12.5 42.95 11.2 41.1 11.5 40.1 12.35 L40.0 12.4 Q38.35 13.85 39.05 16.9 39.7 19.55 41.0 21.75 43.5 26.0 46.35 29.9 51.05 38.05 58.65 44.65 L59.65 44.15 64.95 48.35 Q68.9 65.75 68.0 71.1 66.95 77.35 62.4 78.8 40.65 86.45 13.45 79.0 7.65 77.4 1.6 75.1 L1.25 75.0 0.7 74.7 -1.15 73.8 M-33.05 -77.4 L-33.0 -77.15 -33.1 -77.3 -33.05 -77.4 M65.1 313.2 L65.7 313.65 Q75.85 320.9 77.55 330.1 42.8 331.05 21.85 330.65 L18.6 330.55 16.75 330.5 15.7 330.5 16.25 330.5 Q23.05 315.6 37.9 307.75 L41.8 307.65 41.95 307.65 Q53.4 307.75 63.85 312.7 L65.05 313.25 65.1 313.2 M-162.3 330.2 Q-161.95 327.8 -160.4 325.45 L-145.6 312.85 -141.45 309.3 -139.4 308.8 -134.15 307.8 Q-127.85 307.2 -118.45 311.0 -109.1 314.8 -110.4 323.85 -111.7 332.4 -117.4 332.55 L-117.65 332.55 -162.3 330.2 M-72.55 -36.45 Q-76.6 -32.2 -80.65 -29.7 L-81.1 -29.45 -72.55 -36.45 M-106.4 -90.4 Q-100.85 -98.75 -94.55 -106.5 -90.2 -104.4 -83.75 -104.3 -72.1 -104.1 -63.2 -96.8 -55.2 -90.15 -48.45 -82.25 L-49.8 -78.55 -52.8 -70.8 Q-58.75 -65.6 -64.3 -60.0 -64.45 -64.1 -65.65 -67.35 -74.8 -81.9 -89.0 -82.75 -98.85 -81.25 -106.15 -73.25 L-106.35 -73.05 -106.7 -72.65 -112.65 -63.4 Q-111.2 -71.45 -108.0 -79.05 -105.3 -85.55 -106.4 -90.4 M-89.75 -112.2 L-89.8 -112.2 -94.15 -113.0 Q-91.0 -120.95 -76.8 -126.85 L-76.35 -127.0 -72.15 -123.2 Q-68.5 -119.8 -66.75 -119.3 -65.05 -118.85 -65.15 -120.95 -65.45 -127.35 -68.05 -132.35 L-68.05 -132.4 Q-61.6 -141.4 -55.2 -143.85 L-53.25 -144.75 Q-51.15 -137.45 -47.65 -130.25 -45.05 -124.95 -38.0 -101.2 -31.0 -77.45 -39.05 -81.5 L-39.4 -82.0 -41.55 -85.4 Q-46.7 -93.95 -59.3 -102.25 -75.25 -109.25 -89.75 -112.2 M52.35 -25.7 L50.9 -35.85 Q49.9 -42.25 49.65 -49.0 L49.55 -50.95 Q49.4 -55.5 49.55 -60.15 50.0 -71.8 52.3 -84.35 L52.4 -84.85 52.45 -85.1 52.6 -86.0 52.85 -87.25 52.6 -86.0 52.45 -85.1 52.4 -84.85 52.3 -84.35 Q50.0 -71.8 49.55 -60.15 49.4 -55.5 49.55 -50.95 L49.65 -49.0 Q49.9 -42.25 50.9 -35.85 L52.35 -25.7 M-61.45 -51.65 L-62.4 -50.05 -62.6 -49.25 -62.85 -49.35 -63.2 -48.8 -61.45 -51.65 M-60.0 22.45 L-60.2 22.05 -61.65 20.65 Q-62.3 20.7 -62.7 21.25 -64.4 23.75 -66.95 25.55 L-92.3 43.65 Q-93.25 44.35 -93.5 45.3 -94.15 48.25 -92.25 48.65 L-91.5 48.45 -90.2 48.1 Q-84.25 46.4 -78.55 42.45 L-78.25 42.25 -77.9 42.0 -77.8 41.95 Q-68.6 35.25 -60.15 22.7 L-60.0 22.45 -59.65 21.9 -60.0 22.45 M-93.1 48.9 L-92.25 48.65 -93.1 48.9 M61.35 46.85 L58.65 44.65 61.35 46.85" fill="#4c97d9" fill-rule="evenodd" stroke="none"/>
    <path d="M4.75 -116.7 Q4.8 -102.2 7.65 -79.6 10.5 -57.0 10.15 -36.8 9.75 -16.6 11.0 1.05 13.15 32.55 0.45 59.6 -0.65 61.9 -2.65 63.0 -11.75 67.9 -23.2 70.25 -26.6 71.0 -29.8 70.35 -41.55 68.0 -53.0 63.55 L-51.65 57.3 -50.9 57.5 Q-39.25 60.5 -27.4 62.5 -15.2 64.6 -6.6 60.35 -14.55 57.6 -24.95 57.1 -38.05 56.55 -50.65 53.1 -46.8 37.5 -40.3 17.45 -30.75 -12.0 -31.7 -54.0 -30.6 -48.4 -28.35 -31.25 -26.15 -14.1 -5.0 19.15 -3.35 18.9 -3.75 17.5 -6.15 9.35 -9.85 4.45 -13.55 -0.45 -18.15 -16.7 L-32.3 -67.5 -32.9 -76.35 -33.0 -77.15 -33.05 -77.4 -32.7 -78.3 Q-30.0 -88.25 -31.3 -101.3 L-31.35 -101.5 -31.4 -102.1 -31.5 -102.9 Q-21.55 -98.25 -11.9 -96.7 -2.3 -95.2 0.6 -103.85 0.45 -104.6 -3.55 -102.1 -7.55 -99.65 -16.95 -102.2 -26.35 -104.8 -32.2 -107.8 L-32.35 -108.45 -33.5 -114.2 -34.85 -119.8 -35.0 -120.3 Q-31.4 -114.1 -24.85 -112.65 -18.3 -111.25 -12.45 -111.25 L-3.95 -112.05 -3.35 -112.2 Q-0.1 -113.05 3.3 -115.55 L4.75 -116.7 M-1.85 74.35 L-1.15 73.8 0.7 74.7 -1.85 74.35 M15.25 -80.45 L15.15 -81.9 15.05 -82.55 15.25 -81.45 15.3 -81.4 15.25 -80.85 15.25 -80.45 M77.55 330.1 Q78.2 333.75 77.55 337.7 L16.3 337.7 16.6 336.25 Q17.15 333.05 16.75 330.5 L18.6 330.55 21.85 330.65 Q42.8 331.05 77.55 330.1 M-107.3 340.6 L-107.6 340.6 -106.75 339.75 -107.3 340.6 M-120.05 340.45 Q-143.9 340.0 -160.65 337.9 -162.95 334.0 -162.3 330.2 L-117.65 332.55 -117.4 332.55 -116.25 332.55 Q-117.8 332.9 -116.85 332.9 L-116.5 332.9 -118.9 336.7 -120.65 340.45 -120.05 340.45" fill="#1b2734" fill-rule="evenodd" stroke="none"/>
    <path d="M30.75 -152.35 L30.1 -156.15 Q26.4 -170.9 16.85 -156.05 10.5 -159.6 3.4 -161.45 L0.2 -162.35 Q-14.3 -166.6 -29.8 -166.7 -42.05 -167.2 -51.3 -159.45 L-54.4 -156.45 -54.45 -156.5 -56.25 -171.65 41.7 -173.1 38.8 -161.35 30.75 -152.35 M-42.6 -142.0 Q-38.4 -142.35 -33.85 -144.75 -14.4 -154.95 5.45 -149.6 22.4 -147.35 11.55 -139.35 L11.75 -137.6 10.45 -136.9 Q-0.8 -131.05 -12.65 -130.5 -26.25 -133.75 -35.5 -138.1 L-40.0 -140.4 -40.15 -140.5 -42.6 -142.0 M-2.35 -122.95 L-0.5 -123.1 Q-0.8 -117.1 -3.95 -112.05 L-12.45 -111.25 Q-18.3 -111.25 -24.85 -112.65 -31.4 -114.1 -35.0 -120.3 L-35.85 -123.2 -20.25 -122.35 -2.35 -122.95 -4.55 -119.7 -2.35 -122.95 M106.9 -33.6 L106.9 -33.2 Q107.25 -25.95 103.35 -19.2 L76.25 19.5 74.3 18.85 73.4 18.55 Q67.55 16.4 63.0 13.6 L61.75 12.8 61.05 12.3 Q61.75 10.8 63.15 8.4 68.75 -1.2 68.7 -2.45 82.95 -27.4 106.9 -33.6 M-18.0 -118.95 L-20.25 -122.35 -18.0 -118.95" fill="#ffe8d7" fill-rule="evenodd" stroke="none"/>
    <path d="M62.75 85.05 Q65.65 127.85 62.95 189.65 L62.4 200.65 62.4 207.65 Q62.45 237.1 65.85 265.3 69.25 293.85 65.85 310.05 L65.8 310.35 65.7 310.65 65.1 313.2 63.85 312.7 Q53.4 307.75 41.95 307.65 29.75 305.35 16.4 306.3 5.5 307.9 -3.3 312.3 -4.1 297.45 -1.25 281.95 5.85 243.75 11.7 205.0 7.3 181.7 5.65 158.25 4.0 135.1 3.45 111.9 3.25 102.25 4.5 91.25 -2.5 92.55 -5.2 90.15 L-5.0 90.1 -3.35 89.95 -5.0 90.1 -5.2 90.15 -5.9 89.5 Q-7.6 89.55 -8.3 90.4 L-8.7 91.5 -8.8 90.4 -16.5 90.1 -17.2 92.05 Q-18.85 90.0 -21.6 89.05 L-22.85 88.7 -23.0 88.7 -26.2 88.25 Q-27.8 88.25 -28.3 89.6 -35.8 111.05 -42.1 134.2 L-54.55 181.45 Q-56.35 188.55 -60.65 194.35 -65.7 201.15 -71.4 207.1 -69.1 215.3 -66.55 245.1 -64.05 274.9 -85.1 318.45 -103.7 295.6 -125.7 307.15 L-134.15 307.8 -139.4 308.8 -141.45 309.3 -144.35 310.15 -145.6 312.85 -142.2 298.7 Q-128.35 267.7 -117.3 214.85 L-117.25 214.75 -117.1 213.85 -116.2 209.6 -112.65 190.9 -111.75 185.9 Q-101.55 131.6 -90.75 90.65 -80.75 87.05 -70.5 84.5 -63.85 85.95 -56.3 86.55 L-55.75 80.6 -55.85 81.35 Q-39.85 78.5 -23.35 78.05 L-6.3 77.4 Q17.2 86.6 44.35 85.6 L62.75 85.05 M-50.95 207.1 L-52.25 214.45 -53.2 209.35 -50.95 207.1 M-63.0 314.25 Q-65.0 323.6 -67.4 330.4 L-68.95 330.55 Q-67.0 327.45 -65.5 322.65 L-63.2 315.2 -63.0 314.25 M-28.5 86.6 L-28.1 86.8 -25.55 87.8 -22.85 88.7 -25.55 87.8 -28.1 86.8 -28.5 86.6 M-21.6 89.05 L-20.2 89.4 -16.5 90.1 -20.2 89.4 -21.6 89.05 M-8.8 90.4 L-8.45 90.4 -8.3 90.4 -8.45 90.4 -8.8 90.4" fill="#283e5d" fill-rule="evenodd" stroke="none"/>
    <path d="M64.55 40.05 L63.35 41.65 Q62.05 42.9 59.65 44.15 L58.65 44.65 Q51.05 38.05 46.35 29.9 44.7 27.0 43.4 23.9 L44.05 22.8 45.05 21.0 Q49.55 34.1 64.55 40.05" fill="#121b25" fill-rule="evenodd" stroke="none"/>
    <path d="M15.95 -140.15 L18.15 -141.6 Q23.25 -145.2 28.3 -149.95 L28.5 -149.8 28.8 -149.65 29.7 -149.1 29.95 -148.95 28.2 -146.4 Q24.95 -142.05 20.6 -131.15 16.2 -120.3 16.05 -105.85 15.9 -91.4 17.35 -87.55 L19.1 -82.95 20.4 -85.75 Q26.35 -109.2 49.85 -119.15 55.5 -122.25 62.05 -124.95 L62.55 -124.55 62.6 -124.5 62.85 -124.3 64.6 -122.45 Q60.55 -121.0 51.7 -114.7 32.45 -101.05 26.9 -89.85 21.3 -78.7 17.7 -72.4 L14.6 -67.2 14.6 -67.4 Q14.75 -74.1 15.25 -80.4 L15.25 -80.45 15.25 -80.85 15.3 -81.4 15.25 -81.45 15.05 -82.55 12.0 -118.9 12.2 -121.45 12.4 -123.6 12.8 -126.85 Q13.85 -133.9 15.95 -140.15 M42.1 -138.35 L44.7 -135.4 44.9 -135.15 45.35 -135.0 48.9 -133.75 49.9 -133.4 Q48.65 -133.15 42.8 -129.1 36.9 -125.1 38.85 -130.6 40.8 -136.2 42.1 -138.35 M19.1 -82.95 L18.6 -82.15 Q17.65 -80.8 16.8 -80.65 L16.75 -80.65 Q16.0 -80.55 15.3 -81.4 16.0 -80.55 16.75 -80.65 L16.8 -80.65 Q17.65 -80.8 18.6 -82.15 L19.1 -82.95 M-35.0 -120.3 L-34.85 -119.8 -33.5 -114.2 -32.35 -108.45 -32.2 -107.8 -32.25 -107.8 -32.0 -106.55 -31.5 -102.9 -31.4 -102.1 -31.35 -101.5 -31.3 -101.3 Q-30.0 -88.25 -32.7 -78.3 L-33.05 -77.4 -33.1 -77.3 -33.0 -77.15 -32.9 -76.35 -32.3 -67.5 -32.05 -62.9 Q-35.3 -63.85 -37.75 -67.7 L-42.1 -74.15 Q-57.85 -42.3 -62.15 -25.0 -66.45 -7.7 -71.5 2.55 -76.55 12.75 -88.9 23.2 L-84.5 17.8 Q-78.0 8.4 -74.45 -1.0 -68.05 -20.15 -67.7 -38.2 L-67.65 -38.3 -67.6 -42.35 -72.55 -36.45 -81.1 -29.45 Q-92.6 -22.65 -103.25 -24.6 -112.45 -25.55 -120.1 -31.55 -127.75 -37.6 -126.35 -47.3 -125.0 -57.0 -120.25 -66.55 -114.05 -79.0 -106.4 -90.4 -105.3 -85.55 -108.0 -79.05 -111.2 -71.45 -112.65 -63.4 L-106.7 -72.65 -106.35 -73.05 -106.15 -73.25 Q-98.85 -81.25 -89.0 -82.75 -74.8 -81.9 -65.65 -67.35 -64.45 -64.1 -64.3 -60.0 -58.75 -65.6 -52.8 -70.8 L-49.8 -78.55 -48.45 -82.25 Q-55.2 -90.15 -63.2 -96.8 -72.1 -104.1 -83.75 -104.3 -90.2 -104.4 -94.55 -106.5 L-89.75 -112.2 Q-75.25 -109.25 -59.3 -102.25 -46.7 -93.95 -41.55 -85.4 L-39.4 -82.0 -39.05 -81.5 Q-31.0 -77.45 -38.0 -101.2 -45.05 -124.95 -47.65 -130.25 -51.15 -137.45 -53.25 -144.75 L-53.05 -144.85 -48.75 -146.95 -47.0 -144.45 Q-40.1 -134.5 -36.75 -125.85 L-35.85 -123.2 -35.0 -120.3 M76.25 19.5 L77.45 19.85 Q76.5 29.25 71.3 32.1 L71.3 33.35 69.4 38.5 69.25 38.7 68.5 39.25 67.85 39.65 Q67.8 38.9 67.9 38.1 L68.05 33.35 64.4 27.35 69.5 27.5 Q72.75 26.5 72.95 23.6 L73.4 18.55 74.3 18.85 76.25 19.5 M63.35 41.65 L63.5 42.3 64.95 48.35 59.65 44.15 Q62.05 42.9 63.35 41.65 M0.25 329.5 L0.25 324.9 Q11.8 312.35 23.25 310.45 L24.3 310.15 24.6 310.1 26.25 309.65 27.9 309.25 28.1 309.2 29.35 308.9 30.5 308.7 33.75 308.15 35.6 307.95 37.9 307.75 Q23.05 315.6 16.25 330.5 L15.7 330.5 0.25 329.5 M-78.1 329.4 L-78.0 332.6 -106.0 332.9 -108.25 332.9 -116.5 332.9 -116.85 332.9 Q-117.8 332.9 -116.25 332.55 L-117.4 332.55 Q-111.7 332.4 -110.4 323.85 -109.1 314.8 -118.45 311.0 -127.85 307.2 -134.15 307.8 L-125.7 307.15 -124.45 307.15 -120.05 307.45 -119.1 307.6 -118.65 307.65 -117.4 307.8 Q-104.55 309.95 -92.1 320.95 -85.5 326.75 -79.0 329.1 L-78.1 329.4 M-76.35 -127.0 L-75.3 -127.45 -70.45 -129.2 -70.2 -129.3 -68.05 -132.35 Q-65.45 -127.35 -65.15 -120.95 -65.05 -118.85 -66.75 -119.3 -68.5 -119.8 -72.15 -123.2 L-76.35 -127.0 M53.05 -26.05 L52.9 -26.6 Q46.95 -55.1 53.1 -82.75 53.2 -83.3 53.65 -83.55 53.15 -81.35 53.45 -71.0 53.95 -55.65 63.35 -28.95 57.25 -27.95 53.3 -26.15 L53.05 -26.05 M-36.45 -78.25 L-36.8 -78.6 -39.05 -81.5 -36.8 -78.6 -36.45 -78.25 M-112.65 -63.4 L-114.05 -61.15 Q-128.0 -46.65 -115.3 -35.65 -110.45 -32.95 -105.85 -31.5 L-103.55 -30.85 -103.4 -30.8 Q-91.85 -27.95 -82.0 -33.25 L-81.25 -33.65 Q-69.45 -40.3 -64.3 -59.05 L-64.3 -60.0 -64.3 -59.05 Q-69.45 -40.3 -81.25 -33.65 L-82.0 -33.25 Q-91.85 -27.95 -103.4 -30.8 L-103.55 -30.85 -105.85 -31.5 Q-110.45 -32.95 -115.3 -35.65 -128.0 -46.65 -114.05 -61.15 L-112.65 -63.4 M-46.75 -87.55 Q-47.0 -86.2 -48.45 -82.25 -47.0 -86.2 -46.75 -87.55 M-63.2 -48.8 L-62.85 -49.35 -62.6 -49.25 -62.4 -50.05 -61.45 -51.65 -63.2 -48.8 -67.6 -42.35 -63.2 -48.8 M-52.8 -70.8 L-55.6 -63.6 -57.45 -58.85 -57.55 -58.65 -57.9 -57.95 -58.45 -56.95 -58.65 -56.65 -61.45 -51.65 -58.65 -56.65 -58.45 -56.95 -57.9 -57.95 -57.55 -58.65 -57.45 -58.85 -55.6 -63.6 -52.8 -70.8 M-92.25 48.65 Q-94.15 48.25 -93.5 45.3 -93.25 44.35 -92.3 43.65 L-66.95 25.55 Q-64.4 23.75 -62.7 21.25 -62.3 20.7 -61.65 20.65 L-60.2 22.05 -60.0 22.45 -60.15 22.7 Q-68.6 35.25 -77.8 41.95 L-77.9 42.0 -78.25 42.25 -78.55 42.45 Q-84.25 46.4 -90.2 48.1 L-91.5 48.45 -92.25 48.65 M48.75 14.65 L48.95 13.7 Q49.65 10.6 51.6 8.3 L52.1 7.75 Q52.2 9.2 51.9 11.0 51.4 13.95 51.9 16.75 52.75 21.15 48.75 18.65 47.35 17.75 46.7 16.25 L46.45 16.5 Q45.3 17.75 44.65 19.85 L45.05 21.0 44.05 22.8 43.4 23.9 Q44.7 27.0 46.35 29.9 43.5 26.0 41.0 21.75 39.7 19.55 39.05 16.9 38.35 13.85 40.0 12.4 L40.1 12.35 Q41.1 11.5 42.95 11.2 46.1 12.5 48.75 14.65 47.55 15.3 46.7 16.25 47.55 15.3 48.75 14.65 M43.4 23.9 Q41.15 18.45 40.0 12.4 41.15 18.45 43.4 23.9" fill="#3572b4" fill-rule="evenodd" stroke="none"/>
    <path d="M-54.25 70.1 Q-44.4 78.15 -24.35 74.25 L-15.35 73.4 -1.85 74.35 0.7 74.7 0.65 74.75 0.75 74.8 1.25 75.0 1.6 75.1 Q7.65 77.4 13.45 79.0 40.65 86.45 62.4 78.8 L62.5 79.9 62.35 79.9 62.6 83.4 62.65 84.0 62.7 84.35 62.7 84.4 62.7 84.75 62.75 85.05 44.35 85.6 Q17.2 86.6 -6.3 77.4 L-23.35 78.05 Q-39.85 78.5 -55.85 81.35 L-55.75 80.6 -55.2 76.2 -54.25 70.1 M0.25 324.9 L-1.9 325.55 Q-7.15 326.7 -11.25 324.05 -15.1 307.9 0.0 207.35 L-5.0 140.75 -5.0 140.45 -7.3 109.95 -8.7 91.8 -8.7 91.5 -8.3 90.4 -5.2 90.15 -8.3 90.4 Q-7.6 89.55 -5.9 89.5 L-5.2 90.15 Q-2.5 92.55 4.5 91.25 3.25 102.25 3.45 111.9 4.0 135.1 5.65 158.25 7.3 181.7 11.7 205.0 5.85 243.75 -1.25 281.95 -4.1 297.45 -3.3 312.3 5.5 307.9 16.4 306.3 29.75 305.35 41.95 307.65 L41.8 307.65 37.9 307.75 35.6 307.95 33.75 308.15 30.5 308.7 29.35 308.9 28.1 309.2 27.9 309.25 26.25 309.65 24.6 310.1 24.3 310.15 23.25 310.45 Q11.8 312.35 0.25 324.9 M-17.2 92.05 L-17.5 92.8 Q-36.8 144.05 -48.2 192.0 L-50.85 206.5 -50.95 207.1 -53.2 209.35 -52.25 214.45 -53.35 220.35 -53.5 224.45 Q-56.3 283.25 -63.0 314.25 L-63.2 315.2 -65.5 322.65 Q-67.0 327.45 -68.95 330.55 -73.55 330.85 -78.1 329.4 L-79.0 329.1 Q-85.5 326.75 -92.1 320.95 -104.55 309.95 -117.4 307.8 L-118.65 307.65 -119.1 307.6 -120.05 307.45 -124.45 307.15 -125.7 307.15 Q-103.7 295.6 -85.1 318.45 -64.05 274.9 -66.55 245.1 -69.1 215.3 -71.4 207.1 -65.7 201.15 -60.65 194.35 -56.35 188.55 -54.55 181.45 L-42.1 134.2 Q-35.8 111.05 -28.3 89.6 -27.8 88.25 -26.2 88.25 L-23.0 88.7 -22.85 88.7 -21.6 89.05 Q-18.85 90.0 -17.2 92.05 M-90.75 90.65 L-90.7 90.45 -90.7 90.4 Q-89.55 86.1 -87.85 78.4 -83.85 80.45 -79.3 82.0 L-76.4 82.95 -70.95 84.4 -70.5 84.5 Q-80.75 87.05 -90.75 90.65" fill="#182538" fill-rule="evenodd" stroke="none"/>
    <path d="M-54.4 -156.45 L-51.3 -159.45 Q-42.05 -167.2 -29.8 -166.7 -14.3 -166.6 0.2 -162.35 L3.4 -161.45 Q10.5 -159.6 16.85 -156.05 26.4 -170.9 30.1 -156.15 L30.75 -152.35 28.6 -150.2 28.3 -149.95 Q23.25 -145.2 18.15 -141.6 L15.95 -140.15 11.75 -137.6 15.95 -140.15 Q13.85 -133.9 12.8 -126.85 L12.4 -123.6 4.75 -116.7 3.3 -115.55 Q-0.1 -113.05 -3.35 -112.2 L-3.95 -112.05 Q-0.8 -117.1 -0.5 -123.1 L-2.35 -122.95 -1.7 -123.95 12.8 -126.85 -1.7 -123.95 -2.35 -122.95 -20.25 -122.35 -21.45 -124.15 -36.75 -125.85 -21.45 -124.15 -20.25 -122.35 -35.85 -123.2 -36.75 -125.85 Q-40.1 -134.5 -47.0 -144.45 L-48.75 -146.95 -48.9 -147.1 -49.3 -147.5 -50.35 -148.7 -50.9 -149.45 -51.75 -150.6 -52.6 -152.0 -54.4 -156.45 M-42.6 -142.0 Q-44.15 -143.0 -45.5 -144.05 L-45.85 -144.35 -48.75 -146.95 -45.85 -144.35 -45.5 -144.05 Q-44.15 -143.0 -42.6 -142.0 L-40.15 -140.5 -40.0 -140.4 -35.5 -138.1 Q-26.25 -133.75 -12.65 -130.5 -0.8 -131.05 10.45 -136.9 L11.75 -137.6 11.55 -139.35 Q22.4 -147.35 5.45 -149.6 -14.4 -154.95 -33.85 -144.75 -38.4 -142.35 -42.6 -142.0 M10.45 -136.9 L8.9 -131.5 10.45 -136.9 M105.2 -41.45 L105.4 -40.95 Q106.65 -37.2 106.9 -33.6 82.95 -27.4 68.7 -2.45 68.75 -1.2 63.15 8.4 61.75 10.8 61.05 12.3 57.35 9.75 54.65 6.65 L71.65 -24.85 73.15 -30.1 Q77.6 -29.45 88.25 -33.25 98.9 -37.05 105.2 -41.45 M-35.5 -138.1 L-35.0 -130.1 -35.5 -138.1" fill="#e0bcaa" fill-rule="evenodd" stroke="none"/>
    <path d="M12.4 -123.6 L12.2 -121.45 12.0 -118.9 15.05 -82.55 15.15 -81.9 15.25 -80.45 15.25 -80.4 Q14.75 -74.1 14.6 -67.4 L14.6 -67.2 Q14.15 -52.15 15.15 -35.1 L15.4 -31.55 15.55 -28.75 Q20.5 58.85 -6.9 71.0 L-1.15 73.8 -1.85 74.35 -15.35 73.4 -24.35 74.25 Q-44.4 78.15 -54.25 70.1 L-53.0 63.55 Q-41.55 68.0 -29.8 70.35 -26.6 71.0 -23.2 70.25 -11.75 67.9 -2.65 63.0 -0.65 61.9 0.45 59.6 13.15 32.55 11.0 1.05 9.75 -16.6 10.15 -36.8 10.5 -57.0 7.65 -79.6 4.8 -102.2 4.75 -116.7 L12.4 -123.6 M-32.2 -107.8 Q-26.35 -104.8 -16.95 -102.2 -7.55 -99.65 -3.55 -102.1 0.45 -104.6 0.6 -103.85 -2.3 -95.2 -11.9 -96.7 -21.55 -98.25 -31.5 -102.9 L-32.0 -106.55 -32.25 -107.8 -32.2 -107.8 -32.0 -106.55 -32.2 -107.8 M-32.3 -67.5 L-18.15 -16.7 Q-13.55 -0.45 -9.85 4.45 -6.15 9.35 -3.75 17.5 -3.35 18.9 -5.0 19.15 -26.15 -14.1 -28.35 -31.25 -30.6 -48.4 -31.7 -54.0 L-31.85 -57.95 -32.0 -61.9 -32.05 -62.9 -32.3 -67.5 M-50.65 53.1 Q-38.05 56.55 -24.95 57.1 -14.55 57.6 -6.6 60.35 -15.2 64.6 -27.4 62.5 -39.25 60.5 -50.9 57.5 L-51.65 57.3 -50.65 53.1 M16.3 337.7 L4.05 337.7 Q0.1 337.25 0.25 330.1 L0.25 329.5 15.7 330.5 16.75 330.5 Q17.15 333.05 16.6 336.25 L16.3 337.7 M-78.0 332.6 Q-78.1 338.6 -80.3 340.25 L-107.3 340.6 -106.75 339.75 -107.6 340.6 -119.4 340.45 -119.85 340.45 -120.05 340.45 -120.65 340.45 -118.9 336.7 -116.5 332.9 -108.25 332.9 -106.0 332.9 -78.0 332.6" fill="#070a0e" fill-rule="evenodd" stroke="none"/>
    <path d="M30.75 -152.35 L38.8 -161.35 41.7 -173.1 -56.25 -171.65 -54.45 -156.5 -54.4 -156.45 -52.6 -152.0 -51.75 -150.6 -50.9 -149.45 -50.35 -148.7 -49.3 -147.5 -48.9 -147.1 -48.75 -146.95 -45.85 -144.35 -45.5 -144.05 Q-44.15 -143.0 -42.6 -142.0 L-40.15 -140.5 -40.0 -140.4 -35.5 -138.1 Q-26.25 -133.75 -12.65 -130.5 -0.8 -131.05 10.45 -136.9 L11.75 -137.6 15.95 -140.15 18.15 -141.6 Q23.25 -145.2 28.3 -149.95 L28.6 -150.2 30.75 -152.35 M28.3 -149.95 L28.5 -149.8 28.8 -149.65 29.7 -149.1 29.95 -148.95 32.55 -147.15 34.8 -145.35 41.45 -139.0 42.1 -138.35 44.7 -135.4 44.9 -135.15 45.35 -135.0 48.9 -133.75 49.9 -133.4 Q66.05 -127.65 64.1 -125.8 L62.05 -124.95 62.55 -124.55 62.6 -124.5 62.85 -124.3 64.9 -122.55 M19.1 -82.95 L20.4 -85.75 Q26.35 -109.2 49.85 -119.15 55.5 -122.25 62.05 -124.95 M12.8 -126.85 Q13.85 -133.9 15.95 -140.15 M8.9 -131.5 L10.45 -136.9 M15.05 -82.55 L12.0 -118.9 12.2 -121.45 12.4 -123.6 4.75 -116.7 3.3 -115.55 Q-0.1 -113.05 -3.35 -112.2 L-3.95 -112.05 -12.45 -111.25 Q-18.3 -111.25 -24.85 -112.65 -31.4 -114.1 -35.0 -120.3 L-34.85 -119.8 -33.5 -114.2 -32.35 -108.45 -32.2 -107.8 -32.0 -106.55 -31.5 -102.9 -31.4 -102.1 -31.35 -101.5 -31.3 -101.3 Q-30.0 -88.25 -32.7 -78.3 L-33.05 -77.4 -33.0 -77.15 -32.9 -76.35 -32.3 -67.5 -32.05 -62.9 -32.0 -61.9 -31.85 -57.95 -31.7 -54.0 Q-30.75 -12.0 -40.3 17.45 -46.8 37.5 -50.65 53.1 L-51.65 57.3 -53.0 63.55 -54.25 70.1 Q-44.4 78.15 -24.35 74.25 L-15.35 73.4 -1.85 74.35 0.7 74.7 0.65 74.75 0.75 74.8 1.25 75.0 0.7 74.7 -1.15 73.8 -6.9 71.0 Q20.5 58.85 15.55 -28.75 L15.4 -31.55 15.15 -35.1 Q14.15 -52.15 14.6 -67.2 L14.6 -67.4 Q14.75 -74.1 15.25 -80.4 L15.25 -80.45 15.25 -80.85 15.3 -81.4 Q16.0 -80.55 16.75 -80.65 L16.8 -80.65 Q17.65 -80.8 18.6 -82.15 L19.1 -82.95 M15.05 -82.55 L15.25 -81.45 15.3 -81.4 M12.4 -123.6 L12.8 -126.85 -1.7 -123.95 -2.35 -122.95 -4.55 -119.7 M64.6 -122.45 L67.6 -119.1 Q83.05 -101.1 93.45 -75.7 102.75 -52.95 110.7 -44.15 109.95 -44.2 105.2 -41.45 L105.4 -40.95 Q106.65 -37.2 106.9 -33.6 L106.9 -33.2 Q107.25 -25.95 103.35 -19.2 L76.25 19.5 77.45 19.85 Q76.5 29.25 71.3 32.1 L71.3 33.35 69.4 38.5 69.25 38.7 68.5 39.25 67.85 39.65 Q66.9 40.15 65.65 40.45 L64.55 40.05 63.35 41.65 63.5 42.3 64.95 48.35 Q68.9 65.75 68.0 71.1 66.95 77.35 62.4 78.8 L62.5 79.9 62.7 84.35 62.7 84.4 62.7 84.75 62.75 85.05 Q65.65 127.85 62.95 189.65 L62.4 200.65 62.4 207.65 Q62.45 237.1 65.85 265.3 69.25 293.85 65.85 310.05 L65.8 310.35 65.7 310.65 65.1 313.2 65.7 313.65 Q75.85 320.9 77.55 330.1 78.2 333.75 77.55 337.7 L16.3 337.7 4.05 337.7 Q0.1 337.25 0.25 330.1 L0.25 329.5 0.25 324.9 -1.9 325.55 Q-7.15 326.7 -11.25 324.05 -15.1 307.9 0.0 207.35 L-5.0 140.75 M-5.0 140.45 L-7.3 109.95 -8.7 91.8 -8.7 91.5 -8.8 90.4 -16.5 90.1 -17.2 92.05 -17.5 92.8 Q-36.8 144.05 -48.2 192.0 L-50.85 206.5 M-50.95 207.1 L-52.25 214.45 -53.35 220.35 -53.5 224.45 Q-56.3 283.25 -63.0 314.25 -65.0 323.6 -67.4 330.4 L-68.95 330.55 Q-73.55 330.85 -78.1 329.4 L-78.0 332.6 Q-78.1 338.6 -80.3 340.25 L-107.3 340.6 -107.6 340.6 -119.4 340.45 -119.85 340.45 -120.05 340.45 Q-143.9 340.0 -160.65 337.9 -162.95 334.0 -162.3 330.2 -161.95 327.8 -160.4 325.45 L-145.6 312.85 -142.2 298.7 Q-128.35 267.7 -117.3 214.85 M-117.25 214.75 L-117.1 213.85 -116.2 209.6 -112.65 190.9 -111.75 185.9 Q-101.55 131.6 -90.75 90.65 M-90.7 90.45 L-90.7 90.4 Q-89.55 86.1 -87.85 78.4 -93.55 75.5 -102.25 69.85 -111.0 64.2 -115.25 60.0 -119.55 55.8 -123.55 47.15 -105.25 42.15 -88.9 23.2 L-84.5 17.8 Q-78.0 8.4 -74.45 -1.0 -68.05 -20.15 -67.7 -38.2 L-67.65 -38.3 -67.6 -42.35 -72.55 -36.45 Q-76.6 -32.2 -80.65 -29.7 L-81.1 -29.45 Q-92.6 -22.65 -103.25 -24.6 -112.45 -25.55 -120.1 -31.55 -127.75 -37.6 -126.35 -47.3 -125.0 -57.0 -120.25 -66.55 -114.05 -79.0 -106.4 -90.4 -100.85 -98.75 -94.55 -106.5 L-89.75 -112.2 -89.8 -112.2 -94.15 -113.0 Q-91.0 -120.95 -76.8 -126.85 L-76.35 -127.0 -75.3 -127.45 -70.45 -129.2 -70.2 -129.3 -68.05 -132.35 -68.05 -132.4 Q-61.6 -141.4 -55.2 -143.85 L-53.25 -144.75 M-53.05 -144.85 L-48.75 -146.95 -47.0 -144.45 Q-40.1 -134.5 -36.75 -125.85 L-21.45 -124.15 -20.25 -122.35 -18.0 -118.95 M62.85 -124.3 L64.6 -122.45 M52.85 -87.25 L52.6 -86.0 52.45 -85.1 52.4 -84.85 52.3 -84.35 Q50.0 -71.8 49.55 -60.15 49.4 -55.5 49.55 -50.95 L49.65 -49.0 Q49.9 -42.25 50.9 -35.85 L52.35 -25.7 53.05 -26.05 M63.35 -28.95 L73.15 -30.1 Q77.6 -29.45 88.25 -33.25 98.9 -37.05 105.2 -41.45 M54.65 6.65 L71.65 -24.85 73.15 -30.1 M63.35 -28.95 Q57.25 -27.95 53.3 -26.15 M52.35 -25.7 L52.7 -22.7 54.05 5.95 54.65 6.65 Q57.35 9.75 61.05 12.3 L61.75 12.8 63.0 13.6 Q67.55 16.4 73.4 18.55 L74.3 18.85 76.25 19.5 M-39.05 -81.5 L-36.8 -78.6 -36.45 -78.25 M-35.0 -130.1 L-35.5 -138.1 M-35.0 -120.3 L-35.85 -123.2 -36.75 -125.85 M-112.65 -63.4 L-106.7 -72.65 -106.35 -73.05 -106.15 -73.25 Q-98.85 -81.25 -89.0 -82.75 -74.8 -81.9 -65.65 -67.35 -64.45 -64.1 -64.3 -60.0 L-64.3 -59.05 Q-69.45 -40.3 -81.25 -33.65 L-82.0 -33.25 Q-91.85 -27.95 -103.4 -30.8 L-103.55 -30.85 -105.85 -31.5 Q-110.45 -32.95 -115.3 -35.65 -128.0 -46.65 -114.05 -61.15 L-112.65 -63.4 M-52.8 -70.8 L-49.8 -78.55 -48.45 -82.25 Q-47.0 -86.2 -46.75 -87.55 M-89.75 -112.2 Q-75.25 -109.25 -59.3 -102.25 -46.7 -93.95 -41.55 -85.4 L-39.4 -82.0 -39.05 -81.5 M-33.1 -77.3 L-33.05 -77.4 M-61.45 -51.65 L-63.2 -48.8 -67.6 -42.35 M-61.45 -51.65 L-58.65 -56.65 -58.45 -56.95 -57.9 -57.95 -57.55 -58.65 -57.45 -58.85 -55.6 -63.6 -52.8 -70.8 M-60.0 22.45 L-59.65 21.9 M-60.0 22.45 L-60.15 22.7 Q-68.6 35.25 -77.8 41.95 L-77.9 42.0 -78.25 42.25 -78.55 42.45 Q-84.25 46.4 -90.2 48.1 L-91.5 48.45 -92.25 48.65 -93.1 48.9 M-70.95 84.4 L-76.4 82.95 -79.3 82.0 Q-83.85 80.45 -87.85 78.4 M-55.75 80.6 L-55.2 76.2 -54.25 70.1 M-70.5 84.5 Q-63.85 85.95 -56.3 86.55 L-55.75 80.6 M-22.85 88.7 L-25.55 87.8 -28.1 86.8 -28.5 86.6 M-21.6 89.05 L-22.85 88.7 M-125.7 307.15 L-124.45 307.15 -120.05 307.45 -119.1 307.6 -118.65 307.65 -117.4 307.8 Q-104.55 309.95 -92.1 320.95 -85.5 326.75 -79.0 329.1 L-78.1 329.4 M-16.5 90.1 L-20.2 89.4 -21.6 89.05 M-3.35 89.95 L-5.0 90.1 -5.2 90.15 -8.3 90.4 -8.45 90.4 -8.8 90.4 M41.95 307.65 Q53.4 307.75 63.85 312.7 L65.1 313.2 65.05 313.25 63.85 312.7 M-116.5 332.9 L-108.25 332.9 -106.0 332.9 -78.0 332.6 M-117.4 332.55 L-116.25 332.55 M-116.85 332.9 L-116.5 332.9 M-162.3 330.2 L-117.65 332.55 -117.4 332.55 M-134.15 307.8 L-139.4 308.8 -141.45 309.3 -145.6 312.85 M-144.35 310.15 L-141.45 309.3 M-134.15 307.8 L-125.7 307.15 M52.1 7.75 L54.05 5.95 M48.75 14.65 L48.95 13.7 Q49.65 10.6 51.6 8.3 L52.1 7.75 M46.7 16.25 L46.45 16.5 Q45.3 17.75 44.65 19.85 L45.05 21.0 Q49.55 34.1 64.55 40.05 M45.05 21.0 L44.05 22.8 43.4 23.9 Q44.7 27.0 46.35 29.9 51.05 38.05 58.65 44.65 L59.65 44.15 Q62.05 42.9 63.35 41.65 M46.7 16.25 Q47.55 15.3 48.75 14.65 M40.1 12.35 L40.0 12.4 Q41.15 18.45 43.4 23.9 M58.65 44.65 L61.35 46.85 M1.25 75.0 L1.6 75.1 Q7.65 77.4 13.45 79.0 40.65 86.45 62.4 78.8 M62.7 84.35 L62.65 84.0 M41.8 307.65 L37.9 307.75 M15.7 330.5 L16.75 330.5 18.6 330.55 21.85 330.65 Q42.8 331.05 77.55 330.1 M0.25 324.9 Q11.8 312.35 23.25 310.45 L24.3 310.15 24.6 310.1 26.25 309.65 27.9 309.25 28.1 309.2 29.35 308.9 30.5 308.7 33.75 308.15 35.6 307.95 M0.25 329.5 L15.7 330.5" fill="none" stroke="#1a5283" stroke-linecap="round" stroke-linejoin="round" stroke-width="2.0"/>
  </g>
</svg>
