<?xml version="1.0" encoding="UTF-8" standalone="no"?>
<svg xmlns:xlink="http://www.w3.org/1999/xlink" height="202.85px" width="227.5px" xmlns="http://www.w3.org/2000/svg">
  <g transform="matrix(1.0, 0.0, 0.0, 1.0, 125.75, 336.5)">
    <path d="M-50.4 -308.55 L-50.65 -308.5 -50.45 -308.55 -50.4 -308.55" fill="#cccccc" fill-rule="evenodd" stroke="none"/>
    <path d="M68.85 -219.55 L65.4 -234.6 Q61.8 -249.85 51.0 -259.45 50.1 -259.45 49.85 -258.65 47.25 -250.55 52.25 -241.4 L54.4 -237.65 55.15 -237.8 Q44.1 -235.65 29.35 -234.9 L27.55 -234.8 Q28.3 -245.75 22.05 -252.2 21.2 -252.15 21.6 -245.85 22.0 -239.6 19.15 -234.55 L19.0 -234.55 Q10.05 -234.4 0.0 -234.65 L-17.15 -235.4 -18.65 -235.5 Q-18.55 -236.2 -19.0 -237.55 -20.1 -241.05 -19.1 -252.65 -27.8 -238.3 -26.05 -236.35 L-29.1 -236.4 -41.45 -237.95 -47.1 -238.85 Q-43.55 -238.85 -42.6 -245.6 -41.65 -252.35 -41.5 -262.05 -71.6 -243.0 -86.7 -218.45 -85.45 -224.75 -82.9 -230.75 -85.45 -224.75 -86.7 -218.45 L-87.25 -215.55 -82.05 -222.4 Q-78.0 -197.45 -67.4 -174.6 -77.65 -181.0 -80.25 -189.75 -82.9 -198.5 -81.85 -203.7 L-81.3 -206.05 -88.2 -204.55 Q-92.65 -203.65 -101.8 -205.95 -111.0 -208.25 -118.35 -212.45 -113.2 -213.1 -108.3 -215.3 L-103.8 -217.65 Q-110.75 -219.2 -115.7 -223.6 -118.4 -226.05 -120.5 -229.3 -107.4 -226.45 -94.1 -230.0 L-92.1 -230.55 -92.3 -230.6 -91.0 -231.0 -88.3 -231.9 Q-86.0 -232.7 -83.75 -233.6 L-82.85 -233.95 -83.5 -233.65 -83.15 -230.2 -82.9 -230.75 -81.0 -234.85 Q-77.1 -242.65 -71.0 -250.0 L-68.95 -252.35 -71.0 -250.0 -71.75 -251.05 -68.95 -252.35 Q-63.85 -255.0 -62.05 -258.7 L-61.45 -260.0 Q-60.15 -263.05 -59.45 -265.9 -58.6 -269.4 -64.05 -267.4 -69.5 -265.45 -73.25 -264.7 -88.45 -261.85 -103.3 -264.05 -106.9 -266.85 -110.15 -270.8 -104.65 -268.85 -99.05 -268.8 -94.0 -268.8 -88.9 -270.4 L-89.55 -270.55 -85.7 -271.55 -88.9 -270.4 -85.7 -271.55 Q-81.7 -273.2 -77.65 -275.85 L-77.45 -276.0 Q-74.25 -278.3 -72.15 -281.5 -67.45 -288.65 -75.95 -286.9 L-77.15 -287.5 -75.25 -288.7 Q-91.05 -293.75 -99.4 -313.35 L-101.25 -318.15 Q-86.6 -302.7 -50.65 -308.5 L-50.4 -308.55 Q-18.7 -316.75 5.65 -311.35 50.1 -302.95 68.85 -276.55 L68.9 -276.5 69.1 -276.2 Q80.05 -254.15 92.45 -248.35 94.35 -247.45 96.3 -246.95 87.95 -241.3 80.05 -242.55 L79.6 -243.0 79.75 -242.6 77.8 -243.05 Q74.35 -244.05 71.0 -246.25 L67.9 -248.65 Q72.3 -236.75 70.25 -225.25 69.75 -222.4 68.85 -219.55 M61.9 -260.7 Q65.7 -254.6 67.9 -248.65 65.7 -254.6 61.9 -260.7 M-64.3 -287.0 Q-70.15 -287.1 -75.25 -288.7 -70.15 -287.1 -64.3 -287.0 M81.05 -239.7 Q85.45 -228.15 92.9 -222.05 95.45 -219.95 98.35 -218.5 91.1 -215.55 85.15 -216.2 L82.8 -216.6 Q81.6 -216.9 80.45 -217.35 L80.25 -217.45 Q81.8 -208.8 84.15 -202.05 86.7 -194.9 90.15 -189.95 L93.05 -186.35 Q83.05 -186.35 76.3 -188.95 L75.65 -189.2 72.6 -190.7 71.85 -191.15 Q66.1 -176.55 58.05 -165.45 43.8 -145.85 22.4 -137.2 32.6 -144.15 45.0 -157.35 57.35 -170.6 59.9 -180.7 62.45 -190.8 66.75 -195.65 68.75 -205.45 71.35 -214.1 75.1 -226.75 81.05 -239.7 M-112.4 -245.7 L-112.9 -246.75 -114.2 -250.95 Q-105.1 -245.1 -87.35 -253.2 -87.8 -248.4 -84.75 -241.75 L-84.9 -242.1 Q-90.05 -235.95 -102.5 -241.2 L-106.0 -243.0 -112.75 -246.5 -112.4 -245.7 M76.15 -219.8 Q78.1 -218.35 80.25 -217.45 78.1 -218.35 76.15 -219.8 M71.85 -191.15 Q68.85 -193.0 66.75 -195.65 68.85 -193.0 71.85 -191.15 M-103.8 -217.65 Q-97.05 -221.75 -90.75 -228.9 L-89.8 -230.0 -88.3 -231.9 -89.8 -230.0 -90.75 -228.9 Q-97.05 -221.75 -103.8 -217.65 M-92.1 -230.55 L-89.8 -230.0 -92.1 -230.55 M-61.45 -260.0 L-60.95 -260.5 -61.45 -260.0 M-68.45 -283.3 L-69.2 -282.4 -69.55 -282.05 Q-73.6 -278.5 -77.65 -275.85 -73.6 -278.5 -69.55 -282.05 L-69.2 -282.4 -68.45 -283.3 M-73.6 -216.7 Q-73.05 -215.85 -72.95 -214.15 -72.8 -212.45 -73.0 -211.0 L-73.7 -213.2 Q-74.5 -215.25 -73.6 -216.7" fill="#132a4c" fill-rule="evenodd" stroke="none"/>
    <path d="M-65.25 -238.8 Q-63.75 -236.0 -57.65 -234.6 -44.4 -231.55 -30.7 -230.45 8.95 -227.3 48.95 -230.55 54.85 -231.05 60.55 -232.2 L61.35 -229.55 Q59.35 -214.7 52.95 -212.4 29.3 -207.5 -4.4 -208.9 -35.75 -210.7 -53.6 -214.85 L-61.25 -216.95 Q-62.1 -219.3 -63.55 -221.6 -67.4 -227.6 -65.95 -234.55 -65.5 -236.7 -65.4 -238.65 L-65.25 -238.8 M30.85 -157.65 L30.0 -157.75 26.2 -158.4 12.0 -160.1 9.05 -160.4 -0.1 -161.1 -2.05 -161.2 -2.1 -161.2 -5.7 -161.4 -16.5 -161.9 -21.0 -162.0 Q-31.35 -162.25 -42.65 -162.15 L-45.8 -162.7 -48.0 -163.2 -52.45 -164.7 -54.7 -165.75 -55.05 -165.9 -58.5 -175.4 Q-61.75 -184.4 -61.2 -196.35 -60.65 -208.3 -60.75 -210.05 L-48.95 -207.55 Q-40.9 -205.9 -12.3 -204.0 16.25 -202.15 32.05 -204.2 47.85 -206.3 55.1 -208.35 L54.1 -208.05 Q53.45 -199.95 49.45 -183.9 45.4 -167.9 41.0 -163.05 36.55 -158.2 35.05 -157.65 L33.45 -157.6 32.45 -157.6 30.85 -157.65 M-71.7 -222.35 L-72.1 -222.5 -72.25 -222.55 -72.3 -223.05 -72.25 -223.0 -71.7 -222.35" fill="#4c97d9" fill-rule="evenodd" stroke="none"/>
    <path d="M55.15 -237.8 L54.4 -237.65 52.25 -241.4 Q47.25 -250.55 49.85 -258.65 50.1 -259.45 51.0 -259.45 61.8 -249.85 65.4 -234.6 L68.85 -219.55 Q69.75 -222.4 70.25 -225.25 L70.3 -225.2 73.35 -233.25 73.35 -233.4 77.8 -243.05 79.75 -242.6 80.2 -241.65 80.75 -240.5 80.9 -240.1 81.05 -239.7 Q75.1 -226.75 71.35 -214.1 68.75 -205.45 66.75 -195.65 65.9 -196.7 65.2 -197.85 L65.05 -198.05 65.2 -197.85 Q65.9 -196.7 66.75 -195.65 62.45 -190.8 59.9 -180.7 57.35 -170.6 45.0 -157.35 32.6 -144.15 22.4 -137.2 L21.2 -136.7 Q18.3 -135.6 15.3 -134.65 26.8 -144.35 30.65 -156.85 L30.85 -157.65 32.45 -157.6 33.45 -157.6 35.05 -157.65 Q48.0 -158.8 54.65 -174.1 60.2 -189.55 61.2 -209.6 L61.25 -210.3 61.35 -214.5 65.75 -220.6 65.7 -220.9 65.0 -223.8 Q63.2 -230.65 60.05 -237.95 L58.9 -236.45 58.0 -238.4 55.35 -237.85 55.15 -237.8 M27.55 -234.8 L27.1 -234.8 19.15 -234.55 Q22.0 -239.6 21.6 -245.85 21.2 -252.15 22.05 -252.2 28.3 -245.75 27.55 -234.8 M-18.65 -235.5 Q-18.9 -234.15 -21.45 -235.7 L-27.9 -236.3 -29.1 -236.4 -26.05 -236.35 Q-27.8 -238.3 -19.1 -252.65 -20.1 -241.05 -19.0 -237.55 -18.55 -236.2 -18.65 -235.5 L-21.45 -235.7 -18.65 -235.5 M-47.1 -238.85 L-56.4 -240.45 -61.15 -242.05 -65.25 -238.8 -65.4 -238.65 -70.4 -234.35 -74.6 -230.4 -76.65 -228.35 -75.15 -226.4 -72.25 -223.05 -72.25 -223.0 -72.3 -223.05 -72.25 -222.55 -72.0 -218.15 -72.05 -218.1 -71.85 -214.15 -71.75 -212.8 -71.75 -212.75 Q-71.35 -206.5 -70.55 -200.7 -68.95 -188.7 -65.8 -178.6 -63.3 -171.15 -56.8 -166.95 L-55.05 -165.9 -54.7 -165.75 -54.65 -164.15 Q-54.5 -160.05 -54.0 -156.3 -53.05 -148.6 -50.7 -142.55 -49.55 -139.55 -48.0 -136.95 -58.4 -142.1 -65.65 -149.05 -68.55 -151.85 -70.95 -154.95 L-71.3 -152.8 Q-72.2 -146.5 -70.95 -143.3 -89.95 -170.95 -90.85 -196.7 L-90.85 -197.65 -90.9 -198.95 Q-106.8 -198.1 -119.6 -207.8 -122.25 -209.8 -124.75 -212.25 L-118.35 -212.45 Q-111.0 -208.25 -101.8 -205.95 -92.65 -203.65 -88.2 -204.55 L-81.3 -206.05 -81.85 -203.7 Q-82.9 -198.5 -80.25 -189.75 -77.65 -181.0 -67.4 -174.6 -78.0 -197.45 -82.05 -222.4 L-87.25 -215.55 -86.7 -218.45 Q-71.6 -243.0 -41.5 -262.05 -41.65 -252.35 -42.6 -245.6 -43.55 -238.85 -47.1 -238.85 M82.8 -216.6 Q90.1 -209.7 95.95 -206.35 98.5 -204.9 100.75 -204.1 94.7 -199.5 89.05 -200.3 86.55 -200.7 84.15 -202.05 81.8 -208.8 80.25 -217.45 L80.45 -217.35 Q81.6 -216.9 82.8 -216.6 M75.65 -189.2 Q74.15 -161.15 48.55 -147.55 44.65 -145.5 40.25 -143.8 44.95 -147.05 49.15 -151.95 53.95 -157.65 58.05 -165.45 66.1 -176.55 71.85 -191.15 L72.6 -190.7 75.65 -189.2 M9.05 -160.4 Q5.75 -152.85 -2.0 -149.05 -6.55 -146.9 -12.6 -145.95 -6.55 -151.1 -2.05 -161.2 L-0.1 -161.1 9.05 -160.4 M-5.7 -161.4 Q-11.35 -153.15 -19.65 -150.15 -23.95 -148.6 -28.95 -148.4 -24.35 -153.1 -21.0 -162.0 L-16.5 -161.9 -5.7 -161.4 M-92.3 -230.6 L-92.75 -230.75 Q-99.3 -232.6 -103.9 -235.75 -109.65 -239.7 -112.4 -245.7 L-112.75 -246.5 -106.0 -243.0 -102.5 -241.2 Q-90.05 -235.95 -84.9 -242.1 L-84.75 -241.75 -84.7 -241.65 Q-83.3 -238.5 -81.05 -234.9 L-81.0 -234.85 -82.9 -230.75 -83.15 -230.2 -83.5 -233.65 -82.85 -233.95 -83.75 -233.6 Q-86.0 -232.7 -88.3 -231.9 L-91.0 -231.0 -92.3 -230.6 -92.75 -230.75 -92.3 -230.6 M-86.8 -257.65 Q-95.5 -258.35 -102.65 -263.6 L-102.9 -263.75 -103.3 -264.05 -102.9 -263.75 -103.3 -264.05 Q-88.45 -261.85 -73.25 -264.7 -69.5 -265.45 -64.05 -267.4 -58.6 -269.4 -59.45 -265.9 -60.15 -263.05 -61.45 -260.0 L-62.05 -258.7 Q-63.85 -255.0 -68.95 -252.35 L-71.75 -251.05 -72.0 -251.35 -75.4 -255.85 -75.35 -255.85 Q-75.65 -257.0 -75.15 -258.65 -69.0 -260.1 -62.2 -263.4 -69.0 -260.1 -75.15 -258.65 -81.3 -257.25 -86.8 -257.65 M-89.55 -270.55 Q-98.65 -272.4 -103.75 -276.2 -107.55 -279.0 -109.2 -282.95 -92.9 -277.95 -77.55 -287.2 L-77.15 -287.5 -75.95 -286.9 Q-67.45 -288.65 -72.15 -281.5 -74.25 -278.3 -77.45 -276.0 L-77.65 -275.85 Q-81.7 -273.2 -85.7 -271.55 L-89.55 -270.55 M52.5 -252.8 Q56.95 -245.2 60.05 -237.95 56.95 -245.2 52.5 -252.8 M68.65 -218.95 L67.15 -215.05 66.85 -214.4 65.75 -220.6 66.85 -214.4 67.15 -215.05 68.65 -218.95 M81.05 -239.7 L80.9 -240.1 81.05 -239.7 M-85.9 -235.1 L-88.3 -231.9 -85.9 -235.1 M-85.45 -199.55 L-90.9 -198.95 -85.45 -199.55 M-61.45 -260.0 Q-65.55 -256.25 -68.95 -252.35 -65.55 -256.25 -61.45 -260.0 M-82.05 -222.4 L-76.65 -228.35 -82.05 -222.4 M-73.6 -216.7 Q-74.5 -215.25 -73.7 -213.2 L-73.0 -211.0 Q-72.8 -212.45 -72.95 -214.15 -73.05 -215.85 -73.6 -216.7 M-46.75 -252.35 Q-54.55 -247.2 -61.15 -242.05 -54.55 -247.2 -46.75 -252.35 M-81.85 -182.5 L-81.6 -180.55 Q-79.5 -165.95 -70.95 -154.95 -79.5 -165.95 -81.6 -180.55 L-81.85 -182.5" fill="#091425" fill-rule="evenodd" stroke="none"/>
    <path d="M70.25 -225.25 Q72.3 -236.75 67.9 -248.65 L71.0 -246.25 Q74.35 -244.05 77.8 -243.05 L73.35 -233.4 73.35 -233.25 70.3 -225.2 70.25 -225.25 M60.55 -232.2 L60.25 -233.05 59.95 -233.8 58.9 -236.45 60.05 -237.95 Q63.2 -230.65 65.0 -223.8 L65.7 -220.9 65.75 -220.6 61.35 -214.5 56.2 -213.15 52.95 -212.4 56.2 -213.15 61.35 -214.5 61.25 -210.3 61.2 -209.6 Q60.2 -189.55 54.65 -174.1 48.0 -158.8 35.05 -157.65 36.55 -158.2 41.0 -163.05 45.4 -167.9 49.45 -183.9 53.45 -199.95 54.1 -208.05 L55.1 -208.35 Q47.85 -206.3 32.05 -204.2 16.25 -202.15 -12.3 -204.0 -40.9 -205.9 -48.95 -207.55 L-60.75 -210.05 Q-60.65 -208.3 -61.2 -196.35 -61.75 -184.4 -58.5 -175.4 L-55.05 -165.9 -56.8 -166.95 Q-63.3 -171.15 -65.8 -178.6 -68.95 -188.7 -70.55 -200.7 -71.35 -206.5 -71.75 -212.75 L-71.75 -212.8 -71.85 -214.15 -72.05 -218.1 -72.0 -218.15 -72.25 -222.55 -72.1 -222.5 -71.7 -222.35 -70.45 -220.9 -70.5 -220.9 Q-66.85 -218.75 -61.25 -216.95 -66.85 -218.75 -70.5 -220.9 L-70.45 -220.9 -71.7 -222.35 -72.25 -223.0 -72.25 -223.05 -75.15 -226.4 -76.65 -228.35 -74.6 -230.4 -70.4 -234.35 -65.4 -238.65 Q-65.5 -236.7 -65.95 -234.55 -67.4 -227.6 -63.55 -221.6 -62.1 -219.3 -61.25 -216.95 L-53.6 -214.85 Q-35.75 -210.7 -4.4 -208.9 29.3 -207.5 52.95 -212.4 59.35 -214.7 61.35 -229.55 L60.55 -232.2 M-87.35 -253.2 Q-87.35 -255.55 -86.8 -257.65 -81.3 -257.25 -75.15 -258.65 -75.65 -257.0 -75.35 -255.85 L-75.4 -255.85 -72.0 -251.35 -71.75 -251.05 -71.0 -250.0 Q-77.1 -242.65 -81.0 -234.85 L-81.05 -234.9 Q-83.3 -238.5 -84.7 -241.65 L-84.75 -241.75 Q-87.8 -248.4 -87.35 -253.2 M62.5 -223.05 Q62.3 -226.1 61.35 -229.55 62.3 -226.1 62.5 -223.05 M62.55 -222.7 L62.45 -219.05 62.3 -218.05 62.25 -217.65 Q61.9 -216.0 61.35 -214.5 61.9 -216.0 62.25 -217.65 L62.3 -218.05 62.45 -219.05 62.55 -222.7 M-70.4 -234.35 Q-72.6 -230.25 -72.25 -223.05 -72.6 -230.25 -70.4 -234.35" fill="#3572b4" fill-rule="evenodd" stroke="none"/>
    <path d="M27.1 -234.8 L27.55 -234.8 29.35 -234.9 Q44.1 -235.65 55.15 -237.8 L55.35 -237.85 58.0 -238.4 58.9 -236.45 59.95 -233.8 60.25 -233.05 60.55 -232.2 Q54.85 -231.05 48.95 -230.55 8.95 -227.3 -30.7 -230.45 -44.4 -231.55 -57.65 -234.6 -63.75 -236.0 -65.25 -238.8 L-61.15 -242.05 -56.4 -240.45 -47.1 -238.85 -41.45 -237.95 -29.1 -236.4 -27.9 -236.3 -21.45 -235.7 Q-18.9 -234.15 -18.65 -235.5 L-17.15 -235.4 0.0 -234.65 Q10.05 -234.4 19.0 -234.55 L19.15 -234.55 27.1 -234.8" fill="#79c7ff" fill-rule="evenodd" stroke="none"/>
    <path d="M68.85 -219.55 Q69.75 -222.4 70.25 -225.25 72.3 -236.75 67.9 -248.65 65.7 -254.6 61.9 -260.7 M79.75 -242.6 L79.6 -243.0 80.05 -242.55 Q87.95 -241.3 96.3 -246.95 94.35 -247.45 92.45 -248.35 80.05 -254.15 69.1 -276.2 L68.9 -276.5 68.85 -276.55 Q50.1 -302.95 5.65 -311.35 -18.7 -316.75 -50.4 -308.55 L-50.65 -308.5 Q-86.6 -302.7 -101.25 -318.15 L-99.4 -313.35 Q-91.05 -293.75 -75.25 -288.7 -70.15 -287.1 -64.3 -287.0 M27.1 -234.8 L19.15 -234.55 19.0 -234.55 Q10.05 -234.4 0.0 -234.65 L-17.15 -235.4 -18.65 -235.5 -21.45 -235.7 -27.9 -236.3 -29.1 -236.4 -41.45 -237.95 -47.1 -238.85 -56.4 -240.45 -61.15 -242.05 -65.25 -238.8 -65.4 -238.65 -70.4 -234.35 -74.6 -230.4 -76.65 -228.35 -82.05 -222.4 -87.25 -215.55 -86.7 -218.45 Q-85.45 -224.75 -82.9 -230.75 L-81.0 -234.85 -81.05 -234.9 Q-83.3 -238.5 -84.7 -241.65 L-84.75 -241.75 Q-87.8 -248.4 -87.35 -253.2 -87.35 -255.55 -86.8 -257.65 -95.5 -258.35 -102.65 -263.6 L-102.9 -263.75 -103.3 -264.05 Q-106.9 -266.85 -110.15 -270.8 -104.65 -268.85 -99.05 -268.8 -94.0 -268.8 -88.9 -270.4 L-89.55 -270.55 Q-98.65 -272.4 -103.75 -276.2 -107.55 -279.0 -109.2 -282.95 -92.9 -277.95 -77.55 -287.2 M60.55 -232.2 L60.25 -233.05 59.95 -233.8 58.9 -236.45 58.0 -238.4 55.35 -237.85 55.15 -237.8 Q44.1 -235.65 29.35 -234.9 L27.55 -234.8 M77.8 -243.05 L79.75 -242.6 80.05 -242.55 80.75 -240.5 80.9 -240.1 81.05 -239.7 Q85.45 -228.15 92.9 -222.05 95.45 -219.95 98.35 -218.5 91.1 -215.55 85.15 -216.2 L82.8 -216.6 Q90.1 -209.7 95.95 -206.35 98.5 -204.9 100.75 -204.1 94.7 -199.5 89.05 -200.3 86.55 -200.7 84.15 -202.05 86.7 -194.9 90.15 -189.95 L93.05 -186.35 Q83.05 -186.35 76.3 -188.95 L75.65 -189.2 Q74.15 -161.15 48.55 -147.55 44.65 -145.5 40.25 -143.8 44.95 -147.05 49.15 -151.95 53.95 -157.65 58.05 -165.45 43.8 -145.85 22.4 -137.2 L21.2 -136.7 Q18.3 -135.6 15.3 -134.65 26.8 -144.35 30.65 -156.85 L30.85 -157.65 30.0 -157.75 26.2 -158.4 12.0 -160.1 9.05 -160.4 Q5.75 -152.85 -2.0 -149.05 -6.55 -146.9 -12.6 -145.95 -6.55 -151.1 -2.05 -161.2 L-2.1 -161.2 -5.7 -161.4 Q-11.35 -153.15 -19.65 -150.15 -23.95 -148.6 -28.95 -148.4 -24.35 -153.1 -21.0 -162.0 -31.35 -162.25 -42.65 -162.15 L-45.8 -162.7 -48.0 -163.2 -52.45 -164.7 -54.7 -165.75 -54.65 -164.15 Q-54.5 -160.05 -54.0 -156.3 -53.05 -148.6 -50.7 -142.55 -49.55 -139.55 -48.0 -136.95 -58.4 -142.1 -65.65 -149.05 -68.55 -151.85 -70.95 -154.95 L-71.3 -152.8 Q-72.2 -146.5 -70.95 -143.3 -89.95 -170.95 -90.85 -196.7 L-90.85 -197.65 -90.9 -198.95 Q-106.8 -198.1 -119.6 -207.8 -122.25 -209.8 -124.75 -212.25 L-118.35 -212.45 Q-113.2 -213.1 -108.3 -215.3 L-103.8 -217.65 Q-110.75 -219.2 -115.7 -223.6 -118.4 -226.05 -120.5 -229.3 -107.4 -226.45 -94.1 -230.0 L-92.1 -230.55 -92.3 -230.6 -92.75 -230.75 Q-99.3 -232.6 -103.9 -235.75 -109.65 -239.7 -112.4 -245.7 L-112.9 -246.75 -114.2 -250.95 Q-105.1 -245.1 -87.35 -253.2 M-77.15 -287.5 L-75.25 -288.7 M79.75 -242.6 L80.2 -241.65 80.75 -240.5 M67.9 -248.65 L71.0 -246.25 Q74.35 -244.05 77.8 -243.05 L73.35 -233.4 73.35 -233.25 70.3 -225.2 70.25 -225.25 M61.35 -229.55 Q62.3 -226.1 62.5 -223.05 M58.9 -236.45 L60.05 -237.95 Q56.95 -245.2 52.5 -252.8 M61.35 -214.5 L56.2 -213.15 52.95 -212.4 Q29.3 -207.5 -4.4 -208.9 -35.75 -210.7 -53.6 -214.85 L-61.25 -216.95 Q-66.85 -218.75 -70.5 -220.9 L-70.45 -220.9 -71.7 -222.35 -72.25 -223.0 -72.25 -223.05 -75.15 -226.4 -76.65 -228.35 M-72.0 -218.15 L-72.05 -218.1 -71.85 -214.15 M-71.75 -212.8 L-71.75 -212.75 Q-71.35 -206.5 -70.55 -200.7 -68.95 -188.7 -65.8 -178.6 -63.3 -171.15 -56.8 -166.95 M35.05 -157.65 Q48.0 -158.8 54.65 -174.1 60.2 -189.55 61.2 -209.6 L61.25 -210.3 61.35 -214.5 Q61.9 -216.0 62.25 -217.65 L62.3 -218.05 62.45 -219.05 62.55 -222.7 M82.8 -216.6 Q81.6 -216.9 80.45 -217.35 L80.25 -217.45 Q81.8 -208.8 84.15 -202.05 M80.25 -217.45 Q78.1 -218.35 76.15 -219.8 M60.05 -237.95 Q63.2 -230.65 65.0 -223.8 L65.7 -220.9 65.75 -220.6 66.85 -214.4 67.15 -215.05 68.65 -218.95 M61.35 -214.5 L65.75 -220.6 M61.35 -229.55 L60.55 -232.2 M66.75 -195.65 Q68.85 -193.0 71.85 -191.15 L72.6 -190.7 75.65 -189.2 M66.75 -195.65 Q65.9 -196.7 65.2 -197.85 L65.05 -198.05 M58.05 -165.45 Q66.1 -176.55 71.85 -191.15 M35.05 -157.65 L33.45 -157.6 32.45 -157.6 30.85 -157.65 M-50.4 -308.55 L-50.45 -308.55 -50.65 -308.5 M-85.7 -271.55 L-88.9 -270.4 M-88.3 -231.9 L-85.9 -235.1 M-88.3 -231.9 L-89.8 -230.0 -90.75 -228.9 Q-97.05 -221.75 -103.8 -217.65 M-89.8 -230.0 L-92.1 -230.55 M-90.9 -198.95 L-85.45 -199.55 M-77.65 -275.85 Q-73.6 -278.5 -69.55 -282.05 L-69.2 -282.4 -68.45 -283.3 M-60.95 -260.5 L-61.45 -260.0 Q-65.55 -256.25 -68.95 -252.35 L-71.0 -250.0 Q-77.1 -242.65 -81.0 -234.85 M-75.15 -258.65 Q-75.65 -257.0 -75.35 -255.85 L-75.4 -255.85 -72.0 -251.35 M-71.75 -251.05 L-71.0 -250.0 M-75.15 -258.65 Q-69.0 -260.1 -62.2 -263.4 M-72.25 -222.55 L-72.3 -223.05 -72.25 -223.0 M-72.25 -223.05 Q-72.6 -230.25 -70.4 -234.35 M-61.15 -242.05 Q-54.55 -247.2 -46.75 -252.35 M-86.8 -257.65 Q-81.3 -257.25 -75.15 -258.65 M-77.65 -275.85 Q-81.7 -273.2 -85.7 -271.55 M9.05 -160.4 L-0.1 -161.1 -2.05 -161.2 M-5.7 -161.4 L-16.5 -161.9 -21.0 -162.0 M-54.7 -165.75 L-55.05 -165.9 M-70.95 -154.95 Q-79.5 -165.95 -81.6 -180.55 L-81.85 -182.5" fill="none" stroke="#1a5283" stroke-linecap="round" stroke-linejoin="round" stroke-width="2.0"/>
    <path d="M48.65 -286.0 Q60.45 -283.05 57.45 -277.1 54.45 -271.2 51.25 -273.75 48.05 -276.35 46.9 -281.1 45.75 -285.9 48.65 -286.0 M16.95 -280.65 Q31.0 -274.5 28.65 -267.85 26.25 -261.2 20.85 -264.6 15.5 -268.0 15.85 -274.3 16.2 -280.6 16.95 -280.65 M-16.95 -280.65 Q-5.45 -274.25 -14.9 -264.4 -16.35 -262.9 -20.65 -264.7 -24.95 -266.55 -22.6 -273.3 -20.3 -280.05 -16.95 -280.65 M-41.05 -293.6 Q-34.0 -287.8 -42.85 -284.05 -51.75 -280.3 -55.8 -281.9 -59.9 -283.55 -55.8 -287.05 -49.35 -292.6 -41.05 -293.6" fill="#245091" fill-rule="evenodd" stroke="none"/>
    <path d="M-0.7 -302.15 Q-7.8 -318.8 -37.2 -327.3 5.6 -333.0 2.75 -304.6 10.5 -316.85 -2.7 -335.5 33.55 -325.35 5.45 -303.0 L-0.7 -302.15" fill="#132a4c" fill-rule="evenodd" stroke="none"/>
    <path d="M-0.7 -302.15 Q-7.8 -318.8 -37.2 -327.3 5.6 -333.0 2.75 -304.6 10.5 -316.85 -2.7 -335.5 33.55 -325.35 5.45 -303.0" fill="none" stroke="#1a5283" stroke-linecap="round" stroke-linejoin="round" stroke-width="2.0"/>
  </g>
</svg>
