<?xml version="1.0" encoding="UTF-8" standalone="no"?>
<svg xmlns:xlink="http://www.w3.org/1999/xlink" height="515.7px" width="281.35px" xmlns="http://www.w3.org/2000/svg">
  <g transform="matrix(1.0, 0.0, 0.0, 1.0, 163.45, 174.1)">
    <path d="M62.65 84.0 Q65.7 127.1 62.95 189.65 L62.4 200.65 62.4 207.65 Q62.45 237.1 65.85 265.3 69.25 293.85 65.85 310.05 32.4 300.85 -2.7 315.45 L-2.25 308.0 Q-1.9 296.8 -0.05 285.95 7.15 244.05 11.15 211.0 6.4 194.15 5.75 184.35 2.5 135.05 3.5 115.4 4.45 95.75 5.35 88.35 -1.9 92.7 -5.0 90.1 L-3.35 89.95 -5.0 90.1 -5.65 89.6 Q-7.4 89.75 -8.45 90.4 L-8.75 90.6 -8.75 91.2 -8.8 90.4 -16.5 90.1 -17.5 92.8 -20.2 89.4 -16.5 90.1 -20.2 89.4 Q-21.45 88.0 -25.55 87.8 L-28.1 86.8 -28.6 87.8 Q-30.0 90.85 -32.85 107.05 -35.8 123.35 -46.65 151.45 -57.5 179.5 -61.55 193.65 -64.6 204.3 -71.9 209.85 -71.55 217.55 -71.55 231.15 -70.25 257.5 -71.25 279.45 -72.3 301.35 -74.9 308.15 -76.5 312.15 -77.6 318.75 L-83.25 313.95 Q-98.75 300.5 -119.25 301.3 -128.95 302.55 -139.4 308.8 L-141.45 309.3 -144.35 310.15 -145.6 312.85 -142.2 298.7 Q-128.35 267.7 -117.3 214.85 L-117.25 214.75 -117.1 213.85 -116.2 209.6 -112.65 190.9 -111.75 185.9 Q-101.5 131.45 -90.7 90.4 -78.15 86.8 -65.25 84.35 -55.2 85.1 -43.65 84.1 L-43.6 81.0 Q-22.0 78.35 -0.75 78.75 11.2 86.55 11.35 87.0 L27.45 86.8 Q44.35 86.65 62.65 84.0 M-5.05 139.75 L-7.3 109.95 Q-5.35 124.35 -5.05 139.45 L-5.05 139.75 M-28.5 86.6 L-28.1 86.8 -28.5 86.6 M-8.8 90.4 L-8.45 90.4 -8.8 90.4" fill="#283e5d" fill-rule="evenodd" stroke="none"/>
    <path d="M77.55 330.1 Q78.2 333.75 77.55 337.7 L22.4 337.7 Q22.4 334.75 22.0 331.7 L21.85 330.65 Q42.8 331.05 77.55 330.1 M-119.85 340.45 Q-143.85 340.0 -160.65 337.9 -162.95 334.0 -162.3 330.2 L-114.15 332.6 -119.85 340.45 M-9.75 -111.6 Q-5.0 -111.65 -1.6 -113.0 0.25 -113.75 2.3 -115.0 2.15 -109.35 3.95 -103.75 10.3 -84.05 10.85 -62.75 12.1 -13.0 17.75 36.55 19.45 51.15 14.05 63.25 -6.25 75.6 -42.7 67.45 L-42.7 67.55 -41.5 56.7 Q-36.8 58.55 -31.75 59.9 -10.15 65.5 11.45 61.65 L11.6 61.45 Q-1.35 58.0 -12.25 57.65 -27.0 57.2 -40.95 52.6 -38.8 37.3 -34.95 18.6 -28.5 -12.8 -30.2 -47.6 -20.15 -14.85 -4.45 15.45 0.2 24.4 6.85 25.95 -3.5 6.05 -13.7 -15.25 -21.85 -32.3 -26.55 -50.75 L-32.65 -74.35 -33.05 -77.4 -32.7 -78.3 Q-30.0 -88.25 -31.3 -101.3 L-31.35 -101.5 -31.4 -102.1 Q-27.35 -100.2 -22.85 -98.9 -7.05 -94.3 1.8 -102.6 1.6 -103.4 -2.45 -101.95 -6.5 -100.5 -15.55 -102.65 -24.65 -104.85 -32.35 -108.45 L-33.5 -114.2 -34.85 -119.8 -35.0 -120.3 Q-29.6 -114.2 -18.65 -112.4 L-9.75 -111.6" fill="#1b2734" fill-rule="evenodd" stroke="none"/>
    <path d="M34.8 -145.35 L41.45 -139.0 37.65 -133.25 Q35.55 -129.95 37.95 -130.2 40.4 -130.45 49.95 -133.35 L48.9 -133.75 Q66.1 -127.7 64.1 -125.8 L62.05 -124.95 Q51.1 -120.45 42.55 -114.75 L32.35 -107.55 32.2 -107.4 32.05 -107.3 Q31.35 -106.85 30.75 -106.25 L30.45 -105.9 30.3 -105.8 29.95 -105.45 29.45 -104.9 28.95 -104.3 22.9 -93.05 22.85 -92.85 22.0 -90.35 Q20.15 -84.5 18.6 -82.15 10.55 -119.7 34.8 -145.35 M69.0 -118.85 Q82.8 -104.9 96.95 -75.1 112.1 -55.75 116.9 -53.65 113.75 -46.4 105.2 -41.45 99.35 -38.1 91.05 -35.75 78.75 -32.4 73.15 -30.1 L63.35 -25.75 Q54.6 -50.4 52.95 -70.55 51.85 -83.9 53.55 -87.7 L52.65 -86.05 52.45 -85.1 52.6 -86.0 Q50.05 -81.1 49.7 -75.05 49.3 -67.6 49.55 -60.15 50.05 -45.5 53.2 -31.1 50.25 -40.25 49.65 -49.0 49.9 -42.25 50.9 -35.85 54.55 -12.35 54.05 5.95 L54.65 6.65 Q57.6 10.05 61.75 12.8 67.05 16.35 74.3 18.85 73.55 31.3 63.85 26.1 67.15 33.55 68.5 39.25 67.3 40.05 65.65 40.45 L64.55 40.05 Q77.15 61.55 77.9 75.15 69.85 77.9 62.35 79.9 33.35 87.4 12.45 82.65 L15.0 72.65 Q24.5 31.1 19.9 -17.2 16.05 -42.9 16.1 -64.05 23.3 -85.65 30.4 -94.75 37.5 -103.9 46.95 -111.3 56.35 -118.75 69.0 -118.85 M65.7 313.65 Q75.85 320.9 77.55 330.1 42.8 331.05 21.85 330.65 L18.6 330.55 Q22.15 322.6 29.4 317.2 44.15 306.2 64.55 313.25 L65.7 313.65 M-162.3 330.2 Q-161.95 327.8 -160.4 325.45 L-145.6 312.85 -141.45 309.3 -139.4 308.8 Q-128.95 306.3 -119.1 307.6 L-112.8 312.0 Q-109.65 314.15 -107.8 320.2 -106.0 326.2 -112.5 332.65 L-114.15 332.6 -162.3 330.2 M-87.9 79.95 Q-100.7 75.5 -109.95 67.0 -109.05 60.7 -105.35 53.35 -99.6 41.8 -86.95 27.7 L-82.35 22.7 Q-57.3 -3.65 -52.75 -32.8 -48.2 -61.95 -43.45 -75.95 L-44.0 -76.85 Q-39.85 -69.95 -31.75 -66.85 -30.65 -57.1 -30.2 -47.6 -28.5 -12.8 -34.95 18.6 -38.8 37.3 -40.95 52.6 L-41.5 56.7 -42.7 67.55 -42.75 67.95 -43.2 73.4 -43.25 73.8 -43.6 81.0 -43.65 84.1 Q-55.2 85.1 -65.25 84.35 -77.7 83.45 -87.9 79.95 M-103.3 -92.8 Q-98.4 -101.1 -93.45 -107.6 -83.75 -104.7 -74.2 -101.2 L-65.95 -98.35 Q-53.35 -94.25 -47.45 -83.8 -49.35 -74.4 -52.25 -66.45 L-55.55 -62.6 -65.05 -52.05 Q-63.35 -61.2 -65.65 -67.35 -74.8 -81.9 -89.0 -82.75 -98.85 -81.25 -106.15 -73.25 L-103.95 -84.65 Q-102.95 -89.1 -103.3 -92.8 M-89.8 -112.2 L-94.15 -113.0 Q-91.0 -120.95 -76.8 -126.85 -71.55 -126.4 -68.95 -123.75 -66.4 -121.15 -65.8 -124.1 -65.25 -127.1 -68.05 -132.4 -61.6 -141.4 -55.2 -143.85 -54.5 -144.15 -53.85 -144.5 -50.65 -138.4 -42.4 -116.3 -34.2 -94.3 -34.3 -83.9 -34.35 -76.65 -36.8 -78.6 L-39.4 -82.0 -41.55 -85.4 Q-46.7 -93.95 -59.3 -102.25 -75.25 -109.25 -89.8 -112.2 M52.85 -87.25 L52.6 -86.0 52.85 -87.25 M49.65 -49.0 L49.55 -50.95 Q49.4 -55.5 49.55 -60.15 49.4 -55.5 49.55 -50.95 L49.65 -49.0 M54.05 5.95 Q52.65 7.0 51.6 8.3 52.65 7.0 54.05 5.95 M48.95 13.7 Q46.85 11.65 40.5 11.5 41.15 17.6 43.7 23.4 L43.4 23.9 Q48.35 35.75 58.65 44.65 63.45 42.35 64.55 40.05 49.55 34.1 45.05 21.0 L44.65 19.85 Q45.3 17.75 46.45 16.5 L48.75 18.7 Q50.4 20.25 51.1 18.4 53.25 12.75 51.6 8.3 49.65 10.6 48.95 13.7 M61.35 46.85 L58.65 44.65 61.35 46.85 M43.4 23.9 Q41.1 18.35 39.95 12.15 41.1 18.35 43.4 23.9 M-92.95 -29.35 Q-96.1 -29.65 -99.2 -31.45 L-99.7 -31.65 Q-96.6 -30.35 -92.95 -29.35 M-53.95 23.6 L-53.45 22.8 -53.95 23.6 Q-54.5 22.65 -55.4 21.8 -57.15 23.1 -69.6 34.95 -82.05 46.8 -89.85 50.1 -97.7 53.3 -93.5 51.7 -89.35 50.05 -86.9 49.8 L-85.45 49.4 -85.3 49.35 Q-78.65 47.75 -72.35 43.35 -78.65 47.75 -85.3 49.35 -78.65 46.85 -72.45 43.4 L-71.7 42.9 -72.05 43.15 -72.35 43.35 Q-66.65 39.8 -61.55 33.75 -56.5 27.65 -53.95 23.6 M-86.95 27.7 Q-98.9 43.8 -105.35 53.35 -98.9 43.8 -86.95 27.7" fill="#4c97d9" fill-rule="evenodd" stroke="none"/>
    <path d="M39.45 -163.85 L29.3 -165.25 23.75 -165.6 Q-6.55 -165.65 -35.45 -168.95 L-55.75 -167.45 -56.25 -171.65 41.7 -173.1 39.45 -163.85 M-51.75 -150.6 L-50.5 -150.8 -50.9 -149.45 -51.75 -150.6 M-48.75 -146.95 L-45.85 -144.35 -47.0 -144.45 -48.75 -146.95 M-40.0 -140.4 Q-39.75 -145.85 -35.75 -149.8 L-11.8 -150.8 -11.9 -150.3 Q-11.75 -146.05 -6.45 -148.85 L-4.45 -150.25 2.85 -149.2 Q20.4 -146.0 19.15 -144.4 17.9 -142.85 18.15 -141.6 L15.95 -140.15 10.45 -136.9 Q-0.8 -131.05 -12.65 -130.5 -26.25 -133.75 -35.5 -138.1 L-40.0 -140.4 M106.9 -33.2 Q107.25 -25.95 103.35 -19.2 L76.25 19.5 74.3 18.85 Q67.05 16.35 61.75 12.8 65.0 4.1 74.05 -11.6 83.1 -27.3 94.65 -30.05 106.2 -32.8 106.9 -33.2 M-2.7 -122.45 L-2.65 -122.45 -1.3 -122.4 -9.75 -111.6 -18.65 -112.4 Q-29.6 -114.2 -35.0 -120.3 -35.7 -123.0 -36.75 -125.85 L-21.45 -124.15 -20.95 -123.4 -2.7 -122.45 -4.55 -119.7 -2.7 -122.45 M-18.0 -118.95 L-20.95 -123.4 -18.0 -118.95" fill="#ffe8d7" fill-rule="evenodd" stroke="none"/>
    <path d="M39.45 -163.85 L38.8 -161.35 Q33.6 -155.0 28.3 -149.95 23.25 -145.2 18.15 -141.6 17.9 -142.85 19.15 -144.4 20.4 -146.0 2.85 -149.2 L-4.45 -150.25 -6.45 -148.85 Q-11.75 -146.05 -11.9 -150.3 L-11.8 -150.8 -35.75 -149.8 Q-39.75 -145.85 -40.0 -140.4 L-40.15 -140.5 Q-43.15 -142.2 -45.5 -144.05 L-45.85 -144.35 -45.5 -144.05 Q-43.15 -142.2 -40.15 -140.5 L-40.0 -140.4 -35.5 -138.1 Q-26.25 -133.75 -12.65 -130.5 -0.8 -131.05 10.45 -136.9 L15.95 -140.15 Q13.85 -133.9 12.8 -126.85 L12.4 -123.6 Q6.9 -117.95 2.3 -115.0 0.25 -113.75 -1.6 -113.0 -5.0 -111.65 -9.75 -111.6 L-1.3 -122.4 -2.65 -122.45 -2.7 -122.45 -1.7 -123.95 12.8 -126.85 -1.7 -123.95 -2.7 -122.45 -20.95 -123.4 -21.45 -124.15 -36.75 -125.85 Q-40.1 -134.5 -47.0 -144.45 L-45.85 -144.35 -48.75 -146.95 -48.9 -147.1 -49.3 -147.5 -50.35 -148.7 -50.9 -149.45 -50.35 -148.7 -50.9 -149.4 -50.9 -149.45 -50.5 -150.8 -51.75 -150.6 -52.6 -152.0 -54.45 -156.5 -55.75 -167.45 -35.45 -168.95 Q-6.55 -165.65 23.75 -165.6 L29.3 -165.25 39.45 -163.85 M105.2 -41.45 L105.4 -40.95 Q106.7 -37.0 106.9 -33.2 106.2 -32.8 94.65 -30.05 83.1 -27.3 74.05 -11.6 65.0 4.1 61.75 12.8 57.6 10.05 54.65 6.65 L71.65 -24.85 73.15 -30.1 Q78.75 -32.4 91.05 -35.75 99.35 -38.1 105.2 -41.45 M10.45 -136.9 L8.9 -131.5 10.45 -136.9 M-35.5 -138.1 L-35.0 -130.1 -35.5 -138.1" fill="#e0bcaa" fill-rule="evenodd" stroke="none"/>
    <path d="M18.15 -141.6 Q23.25 -145.2 28.3 -149.95 L28.5 -149.8 28.8 -149.65 29.7 -149.1 32.55 -147.15 34.8 -145.35 Q10.55 -119.7 18.6 -82.15 20.15 -84.5 22.0 -90.35 L22.85 -92.85 22.9 -93.05 28.95 -104.3 29.45 -104.9 29.95 -105.45 30.3 -105.8 30.45 -105.9 30.75 -106.25 Q31.35 -106.85 32.05 -107.3 L32.2 -107.4 32.35 -107.55 42.55 -114.75 Q51.1 -120.45 62.05 -124.95 L62.55 -124.55 68.2 -119.7 68.4 -119.5 69.05 -118.85 69.0 -118.85 68.4 -119.5 69.0 -118.85 Q56.35 -118.75 46.95 -111.3 37.5 -103.9 30.4 -94.75 23.3 -85.65 16.1 -64.05 L16.65 -79.6 16.7 -79.85 16.7 -80.15 16.75 -80.65 Q15.95 -80.55 15.25 -81.45 10.35 -105.2 12.4 -123.6 L12.8 -126.85 Q13.85 -133.9 15.95 -140.15 L18.15 -141.6 M41.45 -139.0 L44.9 -135.15 45.35 -135.0 48.9 -133.75 49.95 -133.35 Q40.4 -130.45 37.95 -130.2 35.55 -129.95 37.65 -133.25 L41.45 -139.0 M76.25 19.5 L77.45 19.85 Q76.5 29.25 71.3 32.1 L71.3 33.35 69.4 38.5 69.25 38.7 68.5 39.25 Q67.15 33.55 63.85 26.1 73.55 31.3 74.3 18.85 L76.25 19.5 M65.1 313.2 L65.7 313.65 64.55 313.25 Q44.15 306.2 29.4 317.2 22.15 322.6 18.6 330.55 L0.25 329.5 0.25 324.9 Q11.8 312.35 23.25 310.45 45.2 303.9 63.85 312.7 L65.05 313.25 65.1 313.2 M-78.1 329.4 L-78.0 332.6 Q-96.1 332.9 -112.5 332.65 -106.0 326.2 -107.8 320.2 -109.65 314.15 -112.8 312.0 L-119.1 307.6 -119.15 307.55 -118.65 307.65 -117.4 307.8 Q-104.55 309.95 -92.1 320.95 -85.5 326.75 -79.0 329.1 L-78.1 329.4 M-109.95 67.0 L-110.2 66.75 -112.3 64.7 Q-110.75 61.3 -105.35 53.35 -109.05 60.7 -109.95 67.0 M-86.95 27.7 L-77.1 14.55 Q-68.1 -2.9 -65.85 -32.0 L-66.55 -40.5 Q-74.2 -23.8 -91.65 -26.4 -96.35 -27.65 -100.25 -29.15 -117.15 -35.8 -119.15 -47.9 -120.6 -60.1 -110.35 -79.95 L-109.7 -81.3 -103.5 -92.45 -103.3 -92.8 Q-102.95 -89.1 -103.95 -84.65 L-106.15 -73.25 Q-98.85 -81.25 -89.0 -82.75 -74.8 -81.9 -65.65 -67.35 -63.35 -61.2 -65.05 -52.05 L-55.55 -62.6 -52.25 -66.45 Q-49.35 -74.4 -47.45 -83.8 -53.35 -94.25 -65.95 -98.35 L-74.2 -101.2 Q-83.75 -104.7 -93.45 -107.6 L-93.25 -107.8 -89.8 -112.2 Q-75.25 -109.25 -59.3 -102.25 -46.7 -93.95 -41.55 -85.4 L-39.4 -82.0 -36.8 -78.6 Q-34.35 -76.65 -34.3 -83.9 -34.2 -94.3 -42.4 -116.3 -50.65 -138.4 -53.85 -144.5 L-48.75 -146.95 -47.0 -144.45 Q-40.1 -134.5 -36.75 -125.85 -35.7 -123.0 -35.0 -120.3 L-34.85 -119.8 -33.5 -114.2 -32.35 -108.45 -31.4 -102.1 -31.35 -101.5 -31.3 -101.3 Q-30.0 -88.25 -32.7 -78.3 L-33.05 -77.4 -32.65 -74.35 -31.75 -66.85 Q-39.85 -69.95 -44.0 -76.85 L-43.45 -75.95 Q-48.2 -61.95 -52.75 -32.8 -57.3 -3.65 -82.35 22.7 L-86.95 27.7 M-76.8 -126.85 L-75.3 -127.45 -70.45 -129.2 -70.2 -129.3 -68.05 -132.4 Q-65.25 -127.1 -65.8 -124.1 -66.4 -121.15 -68.95 -123.75 -71.55 -126.4 -76.8 -126.85 M16.75 -80.65 L16.8 -80.65 Q17.65 -80.8 18.6 -82.15 17.65 -80.8 16.8 -80.65 L16.75 -80.65 M29.45 -104.9 L30.45 -105.9 29.45 -104.9 M52.45 -85.1 L52.65 -86.05 53.55 -87.7 Q51.85 -83.9 52.95 -70.55 54.6 -50.4 63.35 -25.75 L56.75 -22.45 56.5 -22.3 Q54.55 -26.75 53.2 -31.1 50.05 -45.5 49.55 -60.15 49.3 -67.6 49.7 -75.05 50.05 -81.1 52.6 -86.0 L52.45 -85.1 52.4 -84.85 52.3 -84.35 Q50.0 -71.8 49.55 -60.15 50.0 -71.8 52.3 -84.35 L52.4 -84.85 52.45 -85.1 M48.95 13.7 L48.7 14.85 Q47.4 15.35 46.45 16.5 47.4 15.35 48.7 14.85 L48.95 13.7 Q49.65 10.6 51.6 8.3 53.25 12.75 51.1 18.4 50.4 20.25 48.75 18.7 L46.45 16.5 Q45.3 17.75 44.65 19.85 L45.05 21.0 44.05 22.8 43.85 23.1 43.7 23.4 Q41.15 17.6 40.5 11.5 46.85 11.65 48.95 13.7 M-106.15 -73.25 L-106.35 -73.05 -106.7 -72.65 -114.1 -61.15 -114.2 -60.9 -116.3 -56.15 Q-116.4 -53.8 -116.15 -51.6 L-115.55 -48.4 -115.45 -47.95 -115.25 -47.35 -115.2 -47.15 Q-113.05 -38.55 -100.0 -31.8 L-99.7 -31.65 -100.0 -31.8 Q-113.05 -38.55 -115.2 -47.15 L-115.25 -47.35 -115.45 -47.95 -115.55 -48.4 -116.15 -51.6 Q-116.4 -53.8 -116.3 -56.15 L-114.2 -60.9 -114.1 -61.15 -106.7 -72.65 -106.35 -73.05 -106.15 -73.25 M-99.7 -31.65 L-99.2 -31.45 Q-96.1 -29.65 -92.95 -29.35 -96.6 -30.35 -99.7 -31.65 M-33.05 -77.4 Q-34.15 -75.65 -36.8 -78.6 -34.15 -75.65 -33.05 -77.4 M-92.95 -29.35 L-91.25 -28.9 -91.1 -28.85 -90.9 -28.8 Q-71.0 -31.5 -66.75 -45.25 L-66.7 -45.5 -66.6 -45.85 -65.7 -49.2 -65.05 -52.05 -65.7 -49.2 -66.6 -45.85 -66.7 -45.5 -66.75 -45.25 Q-71.0 -31.5 -90.9 -28.8 L-91.1 -28.85 -91.25 -28.9 -92.95 -29.35 M-46.75 -87.55 L-47.45 -83.8 -46.75 -87.55 M-52.25 -66.45 Q-56.25 -55.65 -62.15 -47.5 L-63.7 -44.6 Q-64.55 -43.0 -66.55 -40.5 -64.55 -43.0 -63.7 -44.6 L-62.15 -47.5 Q-56.25 -55.65 -52.25 -66.45 M-64.35 -12.3 L-65.85 -32.0 -64.35 -12.3 M-53.95 23.6 Q-56.5 27.65 -61.55 33.75 -66.65 39.8 -72.35 43.35 L-72.05 43.15 -71.7 42.9 -72.45 43.4 Q-78.65 46.85 -85.3 49.35 L-85.45 49.4 -86.9 49.8 Q-89.35 50.05 -93.5 51.7 -97.7 53.3 -89.85 50.1 -82.05 46.8 -69.6 34.95 -57.15 23.1 -55.4 21.8 -54.5 22.65 -53.95 23.6 -62.4 36.15 -71.6 42.85 L-71.7 42.9 -71.6 42.85 Q-62.4 36.15 -53.95 23.6 M-86.9 49.8 L-85.3 49.35 -86.9 49.8 M-118.65 307.65 L-119.1 307.6 -118.65 307.65" fill="#3572b4" fill-rule="evenodd" stroke="none"/>
    <path d="M22.4 337.7 L4.05 337.7 Q0.1 337.25 0.25 330.1 L0.25 329.5 18.6 330.55 21.85 330.65 22.0 331.7 Q22.4 334.75 22.4 337.7 M-78.0 332.6 Q-78.1 338.6 -80.3 340.25 -102.05 340.8 -119.85 340.45 L-114.15 332.6 -112.5 332.65 Q-96.1 332.9 -78.0 332.6 M2.3 -115.0 Q6.9 -117.95 12.4 -123.6 10.35 -105.2 15.25 -81.45 15.95 -80.55 16.75 -80.65 L16.7 -80.15 16.7 -79.85 16.65 -79.6 16.1 -64.05 Q16.05 -42.9 19.9 -17.2 24.5 31.1 15.0 72.65 -22.5 78.85 -37.5 75.75 -41.0 75.0 -43.25 73.8 L-43.2 73.4 -42.75 67.95 -42.7 67.55 -42.7 67.45 Q-6.25 75.6 14.05 63.25 19.45 51.15 17.75 36.55 12.1 -13.0 10.85 -62.75 10.3 -84.05 3.95 -103.75 2.15 -109.35 2.3 -115.0 M-40.95 52.6 Q-27.0 57.2 -12.25 57.65 -1.35 58.0 11.6 61.45 L11.45 61.65 Q-10.15 65.5 -31.75 59.9 -36.8 58.55 -41.5 56.7 L-40.95 52.6 M-31.4 -102.1 L-32.35 -108.45 Q-24.65 -104.85 -15.55 -102.65 -6.5 -100.5 -2.45 -101.95 1.6 -103.4 1.8 -102.6 -7.05 -94.3 -22.85 -98.9 -27.35 -100.2 -31.4 -102.1 M-32.65 -74.35 L-26.55 -50.75 Q-21.85 -32.3 -13.7 -15.25 -3.5 6.05 6.85 25.95 0.2 24.4 -4.45 15.45 -20.15 -14.85 -30.2 -47.6 -30.65 -57.1 -31.75 -66.85 L-32.65 -74.35" fill="#070a0e" fill-rule="evenodd" stroke="none"/>
    <path d="M62.35 79.9 L62.6 83.4 62.65 84.0 Q44.35 86.65 27.45 86.8 L11.35 87.0 Q11.2 86.55 -0.75 78.75 -22.0 78.35 -43.6 81.0 L-43.25 73.8 Q-41.0 75.0 -37.5 75.75 -22.5 78.85 15.0 72.65 L12.45 82.65 Q33.35 87.4 62.35 79.9 M65.85 310.05 L65.8 310.35 65.7 310.65 65.1 313.2 63.85 312.7 Q45.2 303.9 23.25 310.45 11.8 312.35 0.25 324.9 -6.35 327.25 -11.25 324.05 -15.1 307.9 0.0 207.35 L-5.0 140.75 -5.0 140.45 -5.05 139.75 -5.05 139.45 Q-5.35 124.35 -7.3 109.95 L-8.7 91.8 -8.75 91.2 -8.75 90.6 -8.45 90.4 -5.0 90.1 -8.45 90.4 Q-7.4 89.75 -5.65 89.6 L-5.0 90.1 Q-1.9 92.7 5.35 88.35 4.45 95.75 3.5 115.4 2.5 135.05 5.75 184.35 6.4 194.15 11.15 211.0 7.15 244.05 -0.05 285.95 -1.9 296.8 -2.25 308.0 L-2.7 315.45 Q32.4 300.85 65.85 310.05 L65.8 310.35 65.85 310.05 M-17.5 92.8 Q-36.8 144.05 -48.2 192.0 L-53.35 220.35 Q-56.9 300.3 -67.4 330.4 -72.75 331.1 -78.1 329.4 L-79.0 329.1 Q-85.5 326.75 -92.1 320.95 -104.55 309.95 -117.4 307.8 L-118.65 307.65 -119.15 307.55 -119.1 307.6 Q-128.95 306.3 -139.4 308.8 -128.95 302.55 -119.25 301.3 -98.75 300.5 -83.25 313.95 L-77.6 318.75 Q-76.5 312.15 -74.9 308.15 -72.3 301.35 -71.25 279.45 -70.25 257.5 -71.55 231.15 -71.55 217.55 -71.9 209.85 -64.6 204.3 -61.55 193.65 -57.5 179.5 -46.65 151.45 -35.8 123.35 -32.85 107.05 -30.0 90.85 -28.6 87.8 L-28.1 86.8 -25.55 87.8 Q-21.45 88.0 -20.2 89.4 L-17.5 92.8 M-90.7 90.4 L-87.9 79.95 Q-77.7 83.45 -65.25 84.35 -78.15 86.8 -90.7 90.4 M-25.55 87.8 L-20.2 89.4 -25.55 87.8" fill="#182538" fill-rule="evenodd" stroke="none"/>
    <path d="M43.7 23.4 L43.85 23.1 44.05 22.8 45.05 21.0 Q49.55 34.1 64.55 40.05 63.45 42.35 58.65 44.65 48.35 35.75 43.4 23.9 L43.7 23.4" fill="#121b25" fill-rule="evenodd" stroke="none"/>
    <path d="M28.3 -149.95 Q33.6 -155.0 38.8 -161.35 L39.45 -163.85 41.7 -173.1 -56.25 -171.65 -55.75 -167.45 -54.45 -156.5 -52.6 -152.0 -51.75 -150.6 -50.9 -149.45 -50.35 -148.7 -49.3 -147.5 -48.9 -147.1 -48.75 -146.95 -45.85 -144.35 -45.5 -144.05 Q-43.15 -142.2 -40.15 -140.5 L-40.0 -140.4 -35.5 -138.1 Q-26.25 -133.75 -12.65 -130.5 -0.8 -131.05 10.45 -136.9 L15.95 -140.15 18.15 -141.6 Q23.25 -145.2 28.3 -149.95 L28.5 -149.8 28.8 -149.65 29.7 -149.1 32.55 -147.15 34.8 -145.35 41.45 -139.0 44.9 -135.15 45.35 -135.0 48.9 -133.75 Q66.1 -127.7 64.1 -125.8 L62.05 -124.95 62.55 -124.55 68.2 -119.7 68.4 -119.5 69.0 -118.85 Q82.8 -104.9 96.95 -75.1 112.1 -55.75 116.9 -53.65 113.75 -46.4 105.2 -41.45 L105.4 -40.95 Q106.7 -37.0 106.9 -33.2 107.25 -25.95 103.35 -19.2 L76.25 19.5 77.45 19.85 Q76.5 29.25 71.3 32.1 L71.3 33.35 69.4 38.5 69.25 38.7 68.5 39.25 Q67.3 40.05 65.65 40.45 L64.55 40.05 Q77.15 61.55 77.9 75.15 69.85 77.9 62.35 79.9 L62.6 83.4 M62.65 84.0 Q65.7 127.1 62.95 189.65 L62.4 200.65 62.4 207.65 Q62.45 237.1 65.85 265.3 69.25 293.85 65.85 310.05 L65.8 310.35 65.7 310.65 65.1 313.2 65.7 313.65 Q75.85 320.9 77.55 330.1 78.2 333.75 77.55 337.7 L22.4 337.7 4.05 337.7 Q0.1 337.25 0.25 330.1 L0.25 329.5 0.25 324.9 Q-6.35 327.25 -11.25 324.05 -15.1 307.9 0.0 207.35 L-5.0 140.75 M-5.0 140.45 L-5.05 139.75 -7.3 109.95 -8.7 91.8 -8.75 91.2 -8.8 90.4 -16.5 90.1 -17.5 92.8 Q-36.8 144.05 -48.2 192.0 L-53.35 220.35 Q-56.9 300.3 -67.4 330.4 -72.75 331.1 -78.1 329.4 L-78.0 332.6 Q-78.1 338.6 -80.3 340.25 -102.05 340.8 -119.85 340.45 -143.85 340.0 -160.65 337.9 -162.95 334.0 -162.3 330.2 -161.95 327.8 -160.4 325.45 L-145.6 312.85 -142.2 298.7 Q-128.35 267.7 -117.3 214.85 M-117.25 214.75 L-117.1 213.85 -116.2 209.6 -112.65 190.9 -111.75 185.9 Q-101.5 131.45 -90.7 90.4 L-87.9 79.95 Q-100.7 75.5 -109.95 67.0 M-110.2 66.75 L-112.3 64.7 Q-110.75 61.3 -105.35 53.35 -98.9 43.8 -86.95 27.7 L-77.1 14.55 Q-68.1 -2.9 -65.85 -32.0 L-66.55 -40.5 Q-74.2 -23.8 -91.65 -26.4 -96.35 -27.65 -100.25 -29.15 -117.15 -35.8 -119.15 -47.9 -120.6 -60.1 -110.35 -79.95 L-109.7 -81.3 -103.5 -92.45 -103.3 -92.8 Q-98.4 -101.1 -93.45 -107.6 M-93.25 -107.8 L-89.8 -112.2 -94.15 -113.0 Q-91.0 -120.95 -76.8 -126.85 L-75.3 -127.45 -70.45 -129.2 -70.2 -129.3 -68.05 -132.4 Q-61.6 -141.4 -55.2 -143.85 -54.5 -144.15 -53.85 -144.5 L-48.75 -146.95 -47.0 -144.45 Q-40.1 -134.5 -36.75 -125.85 L-21.45 -124.15 -20.95 -123.4 -18.0 -118.95 M12.8 -126.85 Q13.85 -133.9 15.95 -140.15 M8.9 -131.5 L10.45 -136.9 M2.3 -115.0 Q6.9 -117.95 12.4 -123.6 L12.8 -126.85 -1.7 -123.95 -2.7 -122.45 -4.55 -119.7 M-9.75 -111.6 Q-5.0 -111.65 -1.6 -113.0 0.25 -113.75 2.3 -115.0 M-42.7 67.55 L-42.75 67.95 -43.2 73.4 -43.25 73.8 Q-41.0 75.0 -37.5 75.75 -22.5 78.85 15.0 72.65 24.5 31.1 19.9 -17.2 16.05 -42.9 16.1 -64.05 L16.65 -79.6 16.7 -79.85 16.7 -80.15 16.75 -80.65 Q15.95 -80.55 15.25 -81.45 10.35 -105.2 12.4 -123.6 M29.45 -104.9 L28.95 -104.3 22.9 -93.05 22.85 -92.85 22.0 -90.35 Q20.15 -84.5 18.6 -82.15 17.65 -80.8 16.8 -80.65 L16.75 -80.65 M30.75 -106.25 Q31.35 -106.85 32.05 -107.3 L32.2 -107.4 32.35 -107.55 42.55 -114.75 Q51.1 -120.45 62.05 -124.95 M30.45 -105.9 L29.45 -104.9 M63.35 -25.75 L73.15 -30.1 Q78.75 -32.4 91.05 -35.75 99.35 -38.1 105.2 -41.45 M52.6 -86.0 L52.85 -87.25 M52.6 -86.0 L52.45 -85.1 52.4 -84.85 52.3 -84.35 Q50.0 -71.8 49.55 -60.15 49.4 -55.5 49.55 -50.95 L49.65 -49.0 Q50.25 -40.25 53.2 -31.1 54.55 -26.75 56.5 -22.3 L56.75 -22.45 63.35 -25.75 M54.65 6.65 L71.65 -24.85 73.15 -30.1 M49.65 -49.0 Q49.9 -42.25 50.9 -35.85 54.55 -12.35 54.05 5.95 L54.65 6.65 Q57.6 10.05 61.75 12.8 67.05 16.35 74.3 18.85 L76.25 19.5 M51.6 8.3 Q52.65 7.0 54.05 5.95 M46.45 16.5 Q47.4 15.35 48.7 14.85 L48.95 13.7 Q49.65 10.6 51.6 8.3 M43.85 23.1 L44.05 22.8 45.05 21.0 44.65 19.85 Q45.3 17.75 46.45 16.5 M43.7 23.4 L43.4 23.9 Q48.35 35.75 58.65 44.65 63.45 42.35 64.55 40.05 49.55 34.1 45.05 21.0 M58.65 44.65 L61.35 46.85 M62.35 79.9 Q33.35 87.4 12.45 82.65 L15.0 72.65 M-41.5 56.7 L-42.7 67.55 M39.95 12.15 Q41.1 18.35 43.4 23.9 M-5.0 90.1 L-8.45 90.4 -8.8 90.4 M63.85 312.7 L65.05 313.25 65.1 313.2 63.85 312.7 Q45.2 303.9 23.25 310.45 11.8 312.35 0.25 324.9 M18.6 330.55 L21.85 330.65 Q42.8 331.05 77.55 330.1 M0.25 329.5 L18.6 330.55 M-35.0 -130.1 L-35.5 -138.1 M-32.35 -108.45 L-33.5 -114.2 -34.85 -119.8 -35.0 -120.3 Q-35.7 -123.0 -36.75 -125.85 M-31.4 -102.1 L-32.35 -108.45 M-31.4 -102.1 L-31.35 -101.5 -31.3 -101.3 Q-30.0 -88.25 -32.7 -78.3 L-33.05 -77.4 -32.65 -74.35 -31.75 -66.85 Q-30.65 -57.1 -30.2 -47.6 -28.5 -12.8 -34.95 18.6 -38.8 37.3 -40.95 52.6 L-41.5 56.7 M-35.0 -120.3 Q-29.6 -114.2 -18.65 -112.4 L-9.75 -111.6 M-106.15 -73.25 Q-98.85 -81.25 -89.0 -82.75 -74.8 -81.9 -65.65 -67.35 -63.35 -61.2 -65.05 -52.05 L-65.7 -49.2 -66.6 -45.85 -66.7 -45.5 -66.75 -45.25 Q-71.0 -31.5 -90.9 -28.8 L-91.1 -28.85 -91.25 -28.9 -92.95 -29.35 Q-96.6 -30.35 -99.7 -31.65 L-100.0 -31.8 Q-113.05 -38.55 -115.2 -47.15 L-115.25 -47.35 -115.45 -47.95 -115.55 -48.4 -116.15 -51.6 Q-116.4 -53.8 -116.3 -56.15 L-114.2 -60.9 -114.1 -61.15 -106.7 -72.65 -106.35 -73.05 -106.15 -73.25 M-52.25 -66.45 Q-49.35 -74.4 -47.45 -83.8 L-46.75 -87.55 M-36.8 -78.6 Q-34.15 -75.65 -33.05 -77.4 M-89.8 -112.2 Q-75.25 -109.25 -59.3 -102.25 -46.7 -93.95 -41.55 -85.4 L-39.4 -82.0 -36.8 -78.6 M-65.85 -32.0 L-64.35 -12.3 M-66.55 -40.5 Q-64.55 -43.0 -63.7 -44.6 L-62.15 -47.5 Q-56.25 -55.65 -52.25 -66.45 M-53.45 22.8 L-53.95 23.6 Q-62.4 36.15 -71.6 42.85 L-71.7 42.9 -72.05 43.15 -72.35 43.35 Q-78.65 47.75 -85.3 49.35 L-86.9 49.8 M-43.6 81.0 L-43.65 84.1 Q-55.2 85.1 -65.25 84.35 -77.7 83.45 -87.9 79.95 M-25.55 87.8 L-28.1 86.8 -28.5 86.6 M-139.4 308.8 Q-128.95 306.3 -119.1 307.6 L-118.65 307.65 -117.4 307.8 Q-104.55 309.95 -92.1 320.95 -85.5 326.75 -79.0 329.1 L-78.1 329.4 M-16.5 90.1 L-20.2 89.4 -25.55 87.8 M-3.35 89.95 L-5.0 90.1 M-112.5 332.65 Q-96.1 332.9 -78.0 332.6 M-114.15 332.6 L-112.5 332.65 M-114.15 332.6 L-162.3 330.2 M-144.35 310.15 L-141.45 309.3 -139.4 308.8 M-141.45 309.3 L-145.6 312.85" fill="none" stroke="#1a5283" stroke-linecap="round" stroke-linejoin="round" stroke-width="2.0"/>
  </g>
</svg>
