<?xml version="1.0" encoding="UTF-8" standalone="no"?>
<svg xmlns:xlink="http://www.w3.org/1999/xlink" height="201.2px" width="224.0px" xmlns="http://www.w3.org/2000/svg">
  <g transform="matrix(1.0, 0.0, 0.0, 1.0, 126.55, 335.95)">
    <path d="M-50.4 -308.55 L-50.65 -308.5 -50.45 -308.55 -50.4 -308.55 M62.5 -219.9 Q62.3 -217.0 61.35 -214.5 L59.5 -213.95 58.1 -211.8 57.3 -210.65 57.45 -211.6 57.7 -213.5 59.5 -213.95 60.1 -215.0 60.65 -216.0 60.65 -216.05 62.5 -219.9 M75.4 -185.8 L75.25 -185.9 75.45 -186.25 75.4 -185.8 M71.5 -189.2 Q68.85 -183.35 65.9 -178.1 68.75 -183.5 71.2 -189.5 L71.5 -189.2 M-73.7 -253.95 L-73.7 -253.65 -73.85 -253.85 -73.7 -253.95 M-87.35 -253.2 L-87.35 -253.1 -88.0 -252.9 -87.35 -253.2 M-93.15 -228.55 L-93.1 -228.55 -93.15 -228.55 M-90.85 -198.95 L-90.9 -198.6 -90.9 -198.95 -90.85 -198.95" fill="#cccccc" fill-rule="evenodd" stroke="none"/>
    <path d="M-50.4 -308.55 Q-18.7 -316.75 5.65 -311.35 50.1 -302.95 68.85 -276.55 L68.9 -276.5 69.05 -276.25 69.1 -276.2 Q77.8 -257.55 88.2 -243.05 L93.5 -236.05 Q86.15 -236.55 81.7 -238.15 L81.65 -238.15 76.45 -240.15 Q72.55 -241.95 69.35 -244.15 L68.55 -244.75 Q66.2 -246.45 64.3 -248.45 65.35 -244.45 65.7 -240.55 66.4 -232.9 64.5 -225.65 63.7 -222.75 62.5 -219.9 L60.65 -216.05 Q63.05 -228.9 60.2 -242.7 58.15 -252.45 48.5 -259.2 49.55 -257.55 49.3 -249.0 49.05 -240.4 48.55 -239.0 48.05 -237.65 48.2 -236.6 L29.35 -234.9 26.1 -234.75 Q27.3 -235.95 25.0 -243.5 L23.45 -248.65 23.35 -247.25 Q22.75 -241.85 16.5 -234.5 L0.0 -234.65 -17.15 -235.4 -24.05 -235.95 -19.05 -235.75 Q-16.8 -235.75 -19.35 -251.35 -24.2 -240.55 -26.8 -238.6 -29.4 -236.65 -31.5 -236.65 L-33.0 -236.85 -33.3 -236.85 -41.45 -237.95 -49.1 -239.15 -47.7 -241.35 Q-43.3 -254.65 -44.45 -261.8 -69.85 -250.1 -89.05 -237.45 L-88.9 -237.65 Q-87.3 -240.4 -85.25 -242.95 -87.3 -240.4 -88.9 -237.65 -100.75 -238.75 -109.3 -247.75 L-114.65 -253.35 -115.1 -255.0 Q-104.65 -247.15 -88.0 -252.9 L-87.35 -253.1 Q-87.75 -248.8 -85.25 -242.95 -80.65 -248.85 -73.85 -253.85 L-73.7 -253.65 -73.7 -253.95 -70.55 -256.15 -73.7 -253.95 -74.3 -255.05 -70.55 -256.15 Q-64.0 -258.6 -58.4 -264.05 L-55.05 -267.45 Q-53.4 -269.3 -65.0 -266.5 -76.6 -263.7 -88.8 -266.45 -101.05 -269.25 -109.65 -276.4 L-110.7 -278.65 Q-103.85 -273.4 -96.75 -272.5 -93.7 -272.2 -90.6 -272.6 L-93.05 -273.4 -87.7 -273.2 -84.15 -274.4 -81.65 -275.55 Q-77.85 -277.35 -73.6 -280.25 -65.9 -285.6 -68.65 -288.35 L-68.65 -288.4 Q-69.05 -289.9 -69.95 -289.1 L-70.15 -288.9 -73.0 -290.0 Q-94.05 -298.5 -96.3 -313.95 -97.2 -320.35 -94.9 -327.9 -93.75 -304.55 -51.85 -308.3 L-50.65 -308.5 -50.4 -308.55 M-64.3 -287.0 L-68.65 -288.35 -64.3 -287.0 M60.55 -258.8 Q63.0 -253.55 64.3 -248.45 63.0 -253.55 60.55 -258.8 M61.35 -214.5 L63.35 -216.2 Q61.8 -210.6 61.15 -204.8 L60.45 -200.1 61.2 -209.6 61.3 -212.85 61.35 -214.5 M74.15 -223.15 L74.15 -223.2 Q77.1 -229.15 81.2 -234.6 L82.15 -235.95 Q84.7 -224.45 90.0 -216.25 92.8 -211.8 96.45 -208.3 93.75 -208.7 91.25 -209.45 88.5 -210.3 86.0 -211.65 83.1 -213.2 80.6 -215.4 80.25 -209.75 80.35 -204.8 80.55 -194.55 82.55 -187.2 83.8 -182.8 85.65 -179.45 79.7 -182.45 75.4 -185.8 L75.45 -186.25 75.25 -185.9 71.5 -189.2 71.2 -189.5 Q68.75 -183.5 65.9 -178.1 61.4 -170.35 56.15 -164.05 44.6 -150.2 29.15 -143.15 35.85 -150.55 41.25 -159.15 46.5 -161.35 50.4 -166.6 53.3 -167.75 56.1 -171.9 63.6 -183.05 66.3 -196.3 L66.95 -200.2 Q68.75 -212.45 74.15 -223.15 L77.0 -219.2 Q78.7 -217.1 80.6 -215.4 78.7 -217.1 77.0 -219.2 L76.15 -219.8 77.0 -219.2 74.15 -223.15 M80.45 -216.2 L80.6 -215.5 80.6 -215.4 80.6 -215.5 80.45 -216.2 M66.3 -196.3 L66.35 -196.15 Q68.1 -192.7 71.2 -189.5 68.1 -192.7 66.35 -196.15 L66.3 -196.3 M-90.6 -272.6 L-87.7 -273.2 -90.6 -272.6 M-93.1 -228.55 L-91.35 -230.4 -87.2 -234.25 -85.95 -231.35 Q-83.75 -226.3 -79.75 -224.05 L-79.7 -223.7 Q-76.85 -208.35 -74.65 -193.05 -73.0 -181.65 -68.35 -172.75 -73.0 -178.0 -76.55 -184.45 -78.4 -187.75 -85.45 -205.5 L-86.0 -206.9 -86.1 -207.15 -86.2 -207.15 Q-88.5 -206.45 -89.9 -206.6 -95.45 -207.3 -104.2 -209.4 -112.95 -211.55 -123.55 -217.5 -114.55 -214.35 -106.05 -218.25 -105.0 -218.75 -103.9 -219.35 -98.4 -222.5 -93.15 -228.55 L-93.1 -228.55" fill="#132a4c" fill-rule="evenodd" stroke="none"/>
    <path d="M55.95 -230.15 Q55.75 -222.5 54.3 -218.35 52.8 -214.25 49.75 -211.8 27.1 -207.6 -4.4 -208.9 -35.75 -210.7 -53.6 -214.85 -60.85 -216.55 -65.85 -218.6 -67.2 -227.15 -66.7 -236.65 -66.6 -238.5 -66.75 -240.15 -54.45 -233.45 -33.9 -230.65 -12.2 -227.7 8.45 -227.35 28.65 -227.0 55.95 -230.15 M-56.0 -166.45 Q-57.25 -168.75 -59.05 -175.45 -60.9 -182.15 -61.75 -193.05 -62.6 -204.0 -60.65 -209.95 -51.35 -207.15 -44.05 -206.1 -29.7 -204.05 -4.8 -203.35 20.1 -202.65 35.9 -205.0 L53.6 -207.85 Q52.8 -198.65 48.2 -178.65 43.55 -158.7 26.65 -158.3 L26.2 -158.4 12.0 -160.1 9.05 -160.4 7.2 -160.55 -0.1 -161.1 -2.05 -161.2 -2.1 -161.2 -6.0 -161.4 Q-4.85 -161.35 -5.7 -161.4 L-8.05 -161.55 -16.5 -161.9 -21.0 -162.0 -23.15 -162.05 -42.65 -162.15 -45.8 -162.7 -48.0 -163.2 -52.45 -164.7 -53.85 -165.3 -54.7 -165.75 -56.0 -166.45" fill="#4c97d9" fill-rule="evenodd" stroke="none"/>
    <path d="M-73.0 -290.0 L-70.15 -288.9 -69.95 -289.1 Q-69.05 -289.9 -68.65 -288.4 L-68.65 -288.35 Q-65.9 -285.6 -73.6 -280.25 -77.85 -277.35 -81.65 -275.55 L-84.15 -274.4 -87.7 -273.2 -93.05 -273.4 -94.0 -273.75 -93.05 -273.4 -93.1 -273.4 -94.0 -273.75 Q-100.65 -276.4 -104.45 -281.2 L-105.0 -281.9 Q-108.2 -286.25 -109.15 -292.25 L-108.85 -292.0 -107.75 -291.35 -106.65 -290.7 -106.6 -290.65 Q-92.25 -282.55 -75.7 -288.85 L-73.0 -290.0 M48.2 -236.6 Q48.05 -237.65 48.55 -239.0 49.05 -240.4 49.3 -249.0 49.55 -257.55 48.5 -259.2 58.15 -252.45 60.2 -242.7 63.05 -228.9 60.65 -216.05 L60.1 -215.0 60.65 -216.05 60.65 -216.0 60.1 -215.0 59.5 -213.95 57.7 -213.5 Q58.5 -221.35 57.05 -230.3 L56.15 -234.95 55.55 -237.4 55.45 -237.85 55.35 -237.85 53.1 -237.4 50.05 -236.9 48.2 -236.6 M50.6 -252.4 Q53.65 -244.85 55.45 -237.85 53.65 -244.85 50.6 -252.4 M26.1 -234.75 L22.75 -234.6 26.1 -234.75 Q25.8 -234.5 25.4 -234.5 L22.75 -234.6 22.65 -234.6 22.45 -234.6 19.0 -234.55 16.5 -234.5 Q22.75 -241.85 23.35 -247.25 L23.45 -248.65 25.0 -243.5 Q27.3 -235.95 26.1 -234.75 M76.45 -240.15 L81.65 -238.15 81.75 -237.95 82.15 -235.95 81.2 -234.6 Q77.1 -229.15 74.15 -223.2 L74.15 -223.15 73.95 -223.5 74.15 -223.15 Q68.75 -212.45 66.95 -200.2 L66.3 -196.3 Q63.6 -183.05 56.1 -171.9 53.3 -167.75 50.4 -166.6 L51.0 -167.4 Q53.0 -170.35 54.65 -174.1 58.85 -185.8 60.45 -200.1 L61.15 -204.8 Q61.8 -210.6 63.35 -216.2 68.05 -221.0 73.35 -233.25 L73.35 -233.4 76.45 -240.15 M68.55 -244.75 L65.7 -240.55 Q65.35 -244.45 64.3 -248.45 66.2 -246.45 68.55 -244.75 M80.35 -204.8 Q80.25 -209.75 80.6 -215.4 83.1 -213.2 86.0 -211.65 88.55 -204.75 91.0 -200.2 93.3 -195.9 95.5 -193.75 89.9 -194.4 86.05 -197.3 82.4 -200.05 80.35 -204.8 M-23.15 -162.05 L-21.0 -162.0 -16.5 -161.9 -8.05 -161.55 Q-15.05 -152.4 -26.1 -151.85 -30.2 -151.65 -34.85 -152.6 -29.45 -154.4 -23.15 -162.05 M-6.0 -161.4 L-2.1 -161.2 -2.05 -161.2 -0.1 -161.1 7.2 -160.55 Q3.05 -152.45 -8.05 -150.8 -12.65 -150.15 -18.45 -150.55 -11.25 -153.5 -6.0 -161.4 M30.85 -157.65 L32.45 -157.6 33.45 -157.6 Q37.65 -157.7 41.25 -159.15 35.85 -150.55 29.15 -143.15 25.05 -141.3 20.75 -139.9 16.6 -138.6 12.15 -137.7 22.85 -144.55 30.8 -157.45 L30.85 -157.65 M75.25 -185.9 Q68.9 -160.45 45.85 -148.4 41.2 -146.0 35.85 -144.1 46.05 -148.45 53.55 -159.8 L56.15 -164.05 Q61.4 -170.35 65.9 -178.1 68.85 -183.35 71.5 -189.2 L75.25 -185.9 M51.0 -167.4 L50.4 -166.6 51.0 -167.4 M64.35 -201.9 Q64.9 -199.0 66.3 -196.3 64.9 -199.0 64.35 -201.9 M-70.5 -283.6 Q-76.15 -278.35 -81.65 -275.55 -76.15 -278.35 -70.5 -283.6 M-109.65 -276.4 Q-101.05 -269.25 -88.8 -266.45 -76.6 -263.7 -65.0 -266.5 -53.4 -269.3 -55.05 -267.45 L-58.4 -264.05 Q-64.0 -258.6 -70.55 -256.15 L-74.3 -255.05 Q-75.15 -256.9 -75.15 -258.65 L-75.1 -258.65 -74.95 -260.15 -85.95 -259.8 Q-97.95 -261.0 -105.1 -269.4 -107.2 -271.85 -108.9 -274.95 L-109.65 -276.4 -108.9 -274.95 -109.65 -276.4 M-88.9 -237.65 L-89.05 -237.45 Q-69.85 -250.1 -44.45 -261.8 -43.3 -254.65 -47.7 -241.35 L-49.1 -239.15 -56.4 -240.45 -61.15 -242.05 -66.6 -243.2 -67.5 -242.05 -69.35 -245.85 Q-73.45 -243.9 -77.2 -241.55 L-82.75 -237.8 -82.3 -237.0 -82.15 -236.75 -81.0 -234.85 -76.6 -228.4 -76.65 -228.35 -75.15 -226.4 -72.25 -223.05 -72.25 -223.0 -72.3 -223.05 -72.0 -218.15 -72.05 -218.1 -71.95 -216.15 -71.85 -214.15 Q-71.05 -200.45 -68.5 -188.9 L-68.45 -188.75 -68.1 -187.05 -66.15 -179.85 -65.8 -178.6 Q-63.3 -171.15 -56.8 -166.95 L-56.0 -166.45 -57.2 -158.55 Q-58.5 -149.25 -58.8 -143.35 -59.05 -138.2 -58.5 -135.75 -66.4 -143.1 -71.55 -150.7 -73.65 -153.8 -75.25 -156.9 L-76.45 -151.9 Q-78.15 -143.6 -77.2 -140.6 -94.75 -169.15 -91.05 -197.25 L-90.95 -198.1 -91.05 -197.25 -91.1 -197.25 -90.95 -198.1 -90.9 -198.6 -90.85 -198.95 -86.9 -199.3 Q-109.3 -198.8 -121.15 -212.2 -123.6 -214.95 -125.55 -218.25 L-123.55 -217.5 Q-112.95 -211.55 -104.2 -209.4 -95.45 -207.3 -89.9 -206.6 -88.5 -206.45 -86.2 -207.15 L-86.1 -207.15 -86.0 -206.9 -85.45 -205.5 Q-78.4 -187.75 -76.55 -184.45 -73.0 -178.0 -68.35 -172.75 -73.0 -181.65 -74.65 -193.05 -76.85 -208.35 -79.7 -223.7 L-79.75 -224.05 Q-83.75 -226.3 -85.95 -231.35 L-87.2 -234.25 -91.35 -230.4 -93.1 -228.55 -93.15 -228.55 -92.45 -230.45 -93.15 -228.55 Q-98.4 -222.5 -103.9 -219.35 -112.15 -221.45 -116.5 -228.55 -118.4 -231.7 -119.55 -235.75 -106.8 -228.0 -94.35 -231.2 L-91.8 -232.0 Q-108.4 -237.85 -113.65 -250.6 L-114.65 -253.35 -109.3 -247.75 Q-100.75 -238.75 -88.9 -237.65 M-31.5 -236.65 Q-29.4 -236.65 -26.8 -238.6 -24.2 -240.55 -19.35 -251.35 -16.8 -235.75 -19.05 -235.75 L-24.05 -235.95 -24.4 -235.95 -27.9 -236.3 -31.5 -236.65 M-107.75 -291.35 L-106.6 -290.65 -107.75 -291.35 M-62.2 -263.4 L-63.8 -262.65 -64.2 -262.45 Q-69.9 -260.85 -74.95 -260.15 -69.9 -260.85 -64.2 -262.45 L-63.8 -262.65 -62.2 -263.4 M-89.2 -237.15 L-91.6 -232.5 -91.8 -232.0 -91.6 -232.5 -89.2 -237.15 M-85.45 -199.55 L-86.3 -199.4 -86.9 -199.3 -86.3 -199.4 -85.45 -199.55 M-86.9 -234.5 L-86.0 -235.25 -82.75 -237.8 -86.0 -235.25 -86.9 -234.5 M-92.35 -230.65 L-91.8 -232.0 -92.35 -230.65 -92.45 -230.45 -92.1 -230.55 -92.35 -230.65 M-81.85 -182.5 L-81.1 -177.7 -81.05 -176.45 Q-80.25 -166.5 -75.25 -156.9 -80.25 -166.5 -81.05 -176.45 L-81.1 -177.7 -81.85 -182.5 M-68.65 -288.35 L-70.15 -288.9 -68.65 -288.35 M-62.6 -260.85 L-70.55 -256.15 -62.6 -260.85 M-48.6 -253.25 Q-59.9 -250.45 -69.35 -245.85 -59.9 -250.45 -48.6 -253.25 M-80.7 -187.05 Q-81.35 -182.35 -81.1 -177.7 -81.35 -182.35 -80.7 -187.05" fill="#091425" fill-rule="evenodd" stroke="none"/>
    <path d="M68.55 -244.75 L69.35 -244.15 Q72.55 -241.95 76.45 -240.15 L73.35 -233.4 73.35 -233.25 Q68.05 -221.0 63.35 -216.2 L61.35 -214.5 Q62.3 -217.0 62.5 -219.9 63.7 -222.75 64.5 -225.65 66.4 -232.9 65.7 -240.55 L68.55 -244.75 M57.05 -230.3 Q58.5 -221.35 57.7 -213.5 L56.2 -213.15 49.75 -211.8 56.2 -213.15 57.7 -213.5 57.45 -211.6 57.3 -210.65 58.1 -211.8 59.5 -213.95 61.35 -214.5 61.3 -212.85 61.2 -209.6 60.45 -200.1 Q58.85 -185.8 54.65 -174.1 53.0 -170.35 51.0 -167.4 L50.4 -166.6 Q46.5 -161.35 41.25 -159.15 37.65 -157.7 33.45 -157.6 L32.45 -157.6 30.85 -157.65 26.65 -158.3 Q43.55 -158.7 48.2 -178.65 52.8 -198.65 53.6 -207.85 L35.9 -205.0 Q20.1 -202.65 -4.8 -203.35 -29.7 -204.05 -44.05 -206.1 -51.35 -207.15 -60.65 -209.95 -62.6 -204.0 -61.75 -193.05 -60.9 -182.15 -59.05 -175.45 -57.25 -168.75 -56.0 -166.45 L-56.8 -166.95 Q-63.3 -171.15 -65.8 -178.6 L-66.15 -179.85 -68.1 -187.05 -68.45 -188.75 -68.5 -188.9 Q-71.05 -200.45 -71.85 -214.15 L-71.95 -216.15 -72.05 -218.1 -72.0 -218.15 -72.3 -223.05 -72.25 -223.0 -72.25 -223.05 -75.15 -226.4 -76.65 -228.35 -76.6 -228.4 -81.0 -234.85 -82.15 -236.75 -82.3 -237.0 -82.75 -237.8 -77.2 -241.55 Q-73.45 -243.9 -69.35 -245.85 L-67.5 -242.05 -68.2 -240.95 -67.15 -240.35 -66.75 -240.15 Q-66.6 -238.5 -66.7 -236.65 -67.2 -227.15 -65.85 -218.6 -60.85 -216.55 -53.6 -214.85 -35.75 -210.7 -4.4 -208.9 27.1 -207.6 49.75 -211.8 52.8 -214.25 54.3 -218.35 55.75 -222.5 55.95 -230.15 L57.05 -230.3 M-73.85 -253.85 Q-80.65 -248.85 -85.25 -242.95 -87.75 -248.8 -87.35 -253.1 L-87.35 -253.2 Q-87.35 -255.55 -86.8 -257.65 L-86.75 -257.65 -85.95 -259.8 -74.95 -260.15 -75.1 -258.65 -75.15 -258.65 Q-75.15 -256.9 -74.3 -255.05 L-73.7 -253.95 -73.85 -253.85 M-72.25 -223.05 Q-72.6 -230.25 -70.5 -236.15 -69.55 -238.85 -68.2 -240.95 -69.55 -238.85 -70.5 -236.15 -72.6 -230.25 -72.25 -223.05 M-72.25 -223.0 L-70.45 -220.9 -70.5 -220.9 Q-68.5 -219.7 -65.85 -218.6 -68.5 -219.7 -70.5 -220.9 L-70.45 -220.9 -72.25 -223.0" fill="#3572b4" fill-rule="evenodd" stroke="none"/>
    <path d="M48.2 -236.6 L50.05 -236.9 53.1 -237.4 55.35 -237.85 55.45 -237.85 55.55 -237.4 56.15 -234.95 57.05 -230.3 55.95 -230.15 Q28.65 -227.0 8.45 -227.35 -12.2 -227.7 -33.9 -230.65 -54.45 -233.45 -66.75 -240.15 L-67.15 -240.35 -68.2 -240.95 -67.5 -242.05 -66.6 -243.2 -61.15 -242.05 -56.4 -240.45 -49.1 -239.15 -41.45 -237.95 -33.3 -236.85 -33.0 -236.85 -31.5 -236.65 -27.9 -236.3 -24.4 -235.95 -24.05 -235.95 -17.15 -235.4 0.0 -234.65 16.5 -234.5 19.0 -234.55 22.45 -234.6 22.65 -234.6 22.75 -234.6 25.4 -234.5 Q25.8 -234.5 26.1 -234.75 L29.35 -234.9 48.2 -236.6" fill="#79c7ff" fill-rule="evenodd" stroke="none"/>
    <path d="M81.65 -238.15 L81.7 -238.15 Q86.15 -236.55 93.5 -236.05 L88.2 -243.05 Q77.8 -257.55 69.1 -276.2 L69.05 -276.25 68.9 -276.5 68.85 -276.55 Q50.1 -302.95 5.65 -311.35 -18.7 -316.75 -50.4 -308.55 L-50.65 -308.5 -51.85 -308.3 Q-93.75 -304.55 -94.9 -327.9 -97.2 -320.35 -96.3 -313.95 -94.05 -298.5 -73.0 -290.0 L-70.15 -288.9 -68.65 -288.35 -64.3 -287.0 M48.2 -236.6 L50.05 -236.9 53.1 -237.4 55.35 -237.85 55.45 -237.85 Q53.65 -244.85 50.6 -252.4 M64.3 -248.45 Q63.0 -253.55 60.55 -258.8 M26.1 -234.75 L29.35 -234.9 48.2 -236.6 M22.75 -234.6 L26.1 -234.75 M16.5 -234.5 L19.0 -234.55 22.45 -234.6 22.65 -234.6 22.75 -234.6 M-24.05 -235.95 L-17.15 -235.4 0.0 -234.65 16.5 -234.5 M68.55 -244.75 L69.35 -244.15 Q72.55 -241.95 76.45 -240.15 L81.65 -238.15 81.75 -237.95 81.7 -238.15 M65.7 -240.55 L68.55 -244.75 Q66.2 -246.45 64.3 -248.45 65.35 -244.45 65.7 -240.55 66.4 -232.9 64.5 -225.65 63.7 -222.75 62.5 -219.9 62.3 -217.0 61.35 -214.5 L63.35 -216.2 Q68.05 -221.0 73.35 -233.25 L73.35 -233.4 76.45 -240.15 M82.15 -235.95 L81.75 -237.95 M74.15 -223.15 L73.95 -223.5 M55.45 -237.85 L55.55 -237.4 56.15 -234.95 57.05 -230.3 Q58.5 -221.35 57.7 -213.5 L59.5 -213.95 60.1 -215.0 60.65 -216.05 62.5 -219.9 M49.75 -211.8 L56.2 -213.15 57.7 -213.5 57.45 -211.6 57.3 -210.65 58.1 -211.8 59.5 -213.95 61.35 -214.5 61.3 -212.85 61.2 -209.6 60.45 -200.1 Q58.85 -185.8 54.65 -174.1 53.0 -170.35 51.0 -167.4 L50.4 -166.6 Q46.5 -161.35 41.25 -159.15 37.65 -157.7 33.45 -157.6 L32.45 -157.6 30.85 -157.65 26.65 -158.3 26.2 -158.4 12.0 -160.1 9.05 -160.4 7.2 -160.55 -0.1 -161.1 -2.05 -161.2 -2.1 -161.2 -6.0 -161.4 Q-11.25 -153.5 -18.45 -150.55 -12.65 -150.15 -8.05 -150.8 3.05 -152.45 7.2 -160.55 M80.6 -215.4 Q78.7 -217.1 77.0 -219.2 L76.15 -219.8 M80.6 -215.4 L80.6 -215.5 80.45 -216.2 M86.0 -211.65 Q83.1 -213.2 80.6 -215.4 80.25 -209.75 80.35 -204.8 82.4 -200.05 86.05 -197.3 89.9 -194.4 95.5 -193.75 93.3 -195.9 91.0 -200.2 88.55 -204.75 86.0 -211.65 88.5 -210.3 91.25 -209.45 93.75 -208.7 96.45 -208.3 92.8 -211.8 90.0 -216.25 84.7 -224.45 82.15 -235.95 M74.15 -223.15 L77.0 -219.2 M-56.0 -166.45 L-54.7 -165.75 -53.85 -165.3 -52.45 -164.7 -48.0 -163.2 -45.8 -162.7 -42.65 -162.15 -23.15 -162.05 -21.0 -162.0 -16.5 -161.9 -8.05 -161.55 -5.7 -161.4 Q-4.85 -161.35 -6.0 -161.4 M-65.85 -218.6 Q-60.85 -216.55 -53.6 -214.85 -35.75 -210.7 -4.4 -208.9 27.1 -207.6 49.75 -211.8 M80.35 -204.8 Q80.55 -194.55 82.55 -187.2 83.8 -182.8 85.65 -179.45 79.7 -182.45 75.4 -185.8 L75.25 -185.9 Q68.9 -160.45 45.85 -148.4 41.2 -146.0 35.85 -144.1 46.05 -148.45 53.55 -159.8 L56.15 -164.05 Q44.6 -150.2 29.15 -143.15 25.05 -141.3 20.75 -139.9 16.6 -138.6 12.15 -137.7 22.85 -144.55 30.8 -157.45 L30.85 -157.65 M75.25 -185.9 L75.45 -186.25 75.4 -185.8 M75.25 -185.9 L71.5 -189.2 Q68.85 -183.35 65.9 -178.1 61.4 -170.35 56.15 -164.05 M71.5 -189.2 L71.2 -189.5 Q68.75 -183.5 65.9 -178.1 M71.2 -189.5 Q68.1 -192.7 66.35 -196.15 L66.3 -196.3 Q64.9 -199.0 64.35 -201.9 M-50.4 -308.55 L-50.45 -308.55 -50.65 -308.5 M-94.0 -273.75 L-93.05 -273.4 -90.6 -272.6 Q-93.7 -272.2 -96.75 -272.5 -103.85 -273.4 -110.7 -278.65 L-109.65 -276.4 -108.9 -274.95 Q-107.2 -271.85 -105.1 -269.4 -97.95 -261.0 -85.95 -259.8 L-74.95 -260.15 Q-69.9 -260.85 -64.2 -262.45 L-63.8 -262.65 -62.2 -263.4 M-87.7 -273.2 L-84.15 -274.4 -81.65 -275.55 Q-76.15 -278.35 -70.5 -283.6 M-94.0 -273.75 Q-100.65 -276.4 -104.45 -281.2 L-105.0 -281.9 Q-108.2 -286.25 -109.15 -292.25 L-108.85 -292.0 -107.75 -291.35 -106.6 -290.65 Q-92.25 -282.55 -75.7 -288.85 L-73.0 -290.0 M-87.7 -273.2 L-90.6 -272.6 M-70.55 -256.15 L-73.7 -253.95 -73.7 -253.65 -73.85 -253.85 Q-80.65 -248.85 -85.25 -242.95 -87.3 -240.4 -88.9 -237.65 M-49.1 -239.15 L-41.45 -237.95 -33.3 -236.85 -33.0 -236.85 -31.5 -236.65 -27.9 -236.3 -24.4 -235.95 -24.05 -235.95 M-114.65 -253.35 L-113.65 -250.6 Q-108.4 -237.85 -91.8 -232.0 L-91.6 -232.5 -89.2 -237.15 M-88.0 -252.9 Q-104.65 -247.15 -115.1 -255.0 L-114.65 -253.35 M-87.35 -253.2 Q-87.35 -255.55 -86.8 -257.65 L-86.75 -257.65 -85.95 -259.8 M-87.35 -253.1 L-87.35 -253.2 -88.0 -252.9 -87.35 -253.1 Q-87.75 -248.8 -85.25 -242.95 M-123.55 -217.5 L-125.55 -218.25 Q-123.6 -214.95 -121.15 -212.2 -109.3 -198.8 -86.9 -199.3 L-86.3 -199.4 -85.45 -199.55 M-82.3 -237.0 L-82.75 -237.8 -86.0 -235.25 -86.9 -234.5 M-91.8 -232.0 L-92.35 -230.65 -92.1 -230.55 -92.45 -230.45 -93.15 -228.55 -93.1 -228.55 -91.35 -230.4 -87.2 -234.25 M-123.55 -217.5 Q-114.55 -214.35 -106.05 -218.25 -105.0 -218.75 -103.9 -219.35 -112.15 -221.45 -116.5 -228.55 -118.4 -231.7 -119.55 -235.75 -106.8 -228.0 -94.35 -231.2 L-91.8 -232.0 M-92.35 -230.65 L-92.45 -230.45 M-93.15 -228.55 L-93.1 -228.55 M-68.5 -188.9 Q-71.05 -200.45 -71.85 -214.15 L-71.95 -216.15 -72.05 -218.1 -72.0 -218.15 -72.3 -223.05 -72.25 -223.0 -72.25 -223.05 -75.15 -226.4 -76.65 -228.35 -76.6 -228.4 -81.0 -234.85 -82.15 -236.75 M-90.9 -198.6 L-90.95 -198.1 -91.05 -197.25 Q-94.75 -169.15 -77.2 -140.6 -78.15 -143.6 -76.45 -151.9 L-75.25 -156.9 Q-80.25 -166.5 -81.05 -176.45 L-81.1 -177.7 -81.85 -182.5 M-90.85 -198.95 L-90.9 -198.6 -90.9 -198.95 -90.85 -198.95 -86.9 -199.3 M-93.15 -228.55 Q-98.4 -222.5 -103.9 -219.35 M-74.3 -255.05 Q-75.15 -256.9 -75.15 -258.65 L-75.1 -258.65 -74.95 -260.15 M-73.7 -253.95 L-73.85 -253.85 M-73.7 -253.95 L-74.3 -255.05 M-70.55 -256.15 L-62.6 -260.85 M-67.5 -242.05 L-66.6 -243.2 -61.15 -242.05 -56.4 -240.45 -49.1 -239.15 M-68.2 -240.95 Q-69.55 -238.85 -70.5 -236.15 -72.6 -230.25 -72.25 -223.05 M-68.2 -240.95 L-67.5 -242.05 -69.35 -245.85 Q-73.45 -243.9 -77.2 -241.55 L-82.75 -237.8 M-65.85 -218.6 Q-68.5 -219.7 -70.5 -220.9 L-70.45 -220.9 -72.25 -223.0 M-69.35 -245.85 Q-59.9 -250.45 -48.6 -253.25 M-23.15 -162.05 Q-29.45 -154.4 -34.85 -152.6 -30.2 -151.65 -26.1 -151.85 -15.05 -152.4 -8.05 -161.55 M-56.0 -166.45 L-56.8 -166.95 Q-63.3 -171.15 -65.8 -178.6 L-66.15 -179.85 -68.1 -187.05 -68.45 -188.75 M-56.0 -166.45 L-57.2 -158.55 Q-58.5 -149.25 -58.8 -143.35 -59.05 -138.2 -58.5 -135.75 -66.4 -143.1 -71.55 -150.7 -73.65 -153.8 -75.25 -156.9 M-81.1 -177.7 Q-81.35 -182.35 -80.7 -187.05" fill="none" stroke="#1a5283" stroke-linecap="round" stroke-linejoin="round" stroke-width="2.0"/>
    <path d="M48.65 -286.0 Q58.2 -282.8 56.6 -277.15 55.0 -271.5 50.6 -274.15 46.15 -276.8 45.85 -283.15 45.75 -285.9 48.65 -286.0 M17.95 -278.4 Q31.7 -276.85 26.9 -264.35 26.15 -262.4 20.15 -266.2 14.15 -270.05 15.6 -275.45 17.05 -280.9 17.95 -278.4 M-16.7 -277.45 Q-9.55 -273.55 -14.35 -267.85 -19.15 -262.15 -22.8 -265.2 -26.45 -268.25 -23.35 -274.15 -20.3 -280.1 -16.7 -277.45 M-41.05 -293.6 Q-30.6 -286.5 -40.15 -283.1 -49.7 -279.7 -53.8 -281.6 -57.95 -283.55 -53.65 -288.05 -49.35 -292.6 -41.05 -293.6" fill="#245091" fill-rule="evenodd" stroke="none"/>
    <path d="M-0.7 -302.15 Q-7.8 -318.8 -41.6 -322.4 5.6 -333.0 2.75 -304.6 10.5 -316.85 -7.05 -334.95 33.55 -325.35 5.45 -303.0 L-0.7 -302.15" fill="#132a4c" fill-rule="evenodd" stroke="none"/>
    <path d="M-0.7 -302.15 Q-7.8 -318.8 -41.6 -322.4 5.6 -333.0 2.75 -304.6 10.5 -316.85 -7.05 -334.95 33.55 -325.35 5.45 -303.0" fill="none" stroke="#1a5283" stroke-linecap="round" stroke-linejoin="round" stroke-width="2.0"/>
  </g>
</svg>
