<?xml version="1.0" encoding="UTF-8" standalone="no"?>
<svg xmlns:xlink="http://www.w3.org/1999/xlink" height="211.45px" width="225.85px" xmlns="http://www.w3.org/2000/svg">
  <g transform="matrix(1.0, 0.0, 0.0, 1.0, 123.75, 342.5)">
    <path d="M-76.25 -284.4 L-78.25 -284.55 Q-94.45 -285.95 -106.0 -299.6 L-94.2 -299.05 Q-77.0 -299.85 -50.4 -308.55 -18.7 -316.75 5.65 -311.35 43.85 -304.15 63.1 -283.6 L68.0 -277.7 Q87.9 -255.1 98.55 -259.5 97.45 -256.05 95.5 -253.65 89.85 -246.75 77.15 -248.65 71.65 -255.75 61.8 -260.8 71.65 -255.75 77.15 -248.65 L79.55 -245.05 Q81.2 -242.1 82.25 -238.85 L82.85 -236.8 Q83.6 -233.7 83.8 -230.3 L80.75 -233.6 83.8 -230.3 Q83.6 -233.7 82.85 -236.8 L82.25 -238.85 Q92.35 -231.85 98.1 -234.15 96.45 -229.9 93.9 -226.95 89.3 -221.75 81.9 -220.9 L79.7 -220.75 75.5 -220.95 79.7 -220.75 80.5 -218.65 Q83.7 -211.05 88.15 -205.95 L90.95 -203.1 Q95.25 -199.2 100.6 -197.3 97.15 -195.6 93.85 -194.5 85.05 -191.6 77.45 -193.25 75.65 -193.65 73.95 -194.25 L73.55 -191.9 Q71.0 -177.75 65.05 -166.45 59.95 -156.85 51.8 -148.05 48.0 -144.0 43.6 -140.15 L44.2 -140.7 Q49.2 -149.7 52.45 -159.35 59.05 -179.15 66.5 -198.5 70.85 -209.8 75.5 -220.95 L79.85 -231.25 80.75 -233.6 75.8 -238.05 75.6 -238.25 72.6 -240.65 67.65 -244.15 65.6 -245.5 67.65 -244.15 66.7 -242.55 67.15 -243.25 65.6 -245.45 65.6 -245.5 Q59.75 -253.5 50.1 -258.65 54.3 -244.9 55.4 -239.4 L55.65 -237.9 55.35 -237.85 53.55 -237.5 Q43.05 -235.6 29.35 -234.9 L28.2 -234.85 Q29.2 -245.7 22.55 -252.35 22.8 -247.6 21.45 -239.85 20.75 -235.85 20.15 -234.55 19.6 -233.35 19.15 -234.55 L19.0 -234.55 Q10.05 -234.4 0.0 -234.65 L-17.15 -235.4 -17.3 -235.4 Q-17.7 -235.55 -17.5 -238.7 -17.3 -241.9 -19.15 -251.9 L-19.85 -251.45 Q-24.05 -244.55 -25.75 -236.1 L-26.4 -236.15 -27.05 -236.2 -27.15 -236.2 -27.9 -236.3 -39.05 -237.6 -39.0 -238.4 Q-38.0 -250.55 -42.15 -261.7 -61.1 -242.2 -64.3 -219.1 -64.85 -214.95 -63.9 -211.4 -66.4 -215.55 -67.95 -219.55 L-68.05 -219.8 -69.15 -223.15 Q-72.5 -234.65 -68.15 -245.6 -67.0 -248.55 -65.3 -251.45 -67.0 -248.55 -68.15 -245.6 L-68.7 -246.2 -65.3 -251.45 -61.25 -256.65 Q-55.05 -263.95 -60.45 -268.35 L-63.25 -265.95 Q-70.6 -259.85 -74.0 -257.95 -89.05 -249.4 -107.85 -250.45 L-108.25 -250.45 Q-102.45 -251.45 -96.45 -255.0 -92.2 -257.5 -87.8 -261.3 -85.9 -262.55 -84.05 -264.4 L-74.0 -273.75 Q-68.65 -278.35 -69.8 -281.8 -70.3 -283.25 -71.95 -284.45 L-73.15 -285.25 Q-74.45 -285.2 -75.45 -284.4 L-76.25 -284.4 -75.45 -284.4 -76.2 -283.75 Q-79.5 -280.15 -83.65 -278.0 L-83.8 -278.2 Q-80.05 -281.05 -76.25 -284.4 M-65.8 -285.2 L-71.95 -284.45 -65.8 -285.2 M58.9 -236.4 L58.9 -236.45 58.55 -237.15 61.25 -237.8 58.9 -236.4 M20.15 -234.55 L19.15 -234.55 20.15 -234.55 M36.95 -157.9 L37.05 -157.95 37.0 -157.65 36.95 -157.9 M66.5 -198.5 Q70.05 -195.75 73.95 -194.25 70.05 -195.75 66.5 -198.5 M-69.9 -281.7 L-69.8 -281.8 -69.9 -281.7 M-68.45 -283.3 L-69.8 -281.8 -68.45 -283.3 M-96.6 -247.25 L-94.45 -247.05 Q-94.2 -246.0 -93.45 -244.7 -90.3 -239.5 -86.25 -234.8 L-87.1 -234.75 Q-89.65 -235.7 -92.35 -235.95 -100.4 -236.8 -108.25 -238.75 L-113.45 -239.0 -114.05 -239.8 Q-112.0 -240.1 -109.8 -240.75 -103.7 -242.55 -96.6 -247.25 M-91.9 -218.0 Q-89.2 -222.15 -86.45 -226.9 L-80.5 -227.15 -78.3 -221.95 Q-76.75 -218.65 -76.4 -215.1 -74.25 -194.0 -68.3 -174.3 -79.5 -181.75 -79.55 -194.5 -79.55 -196.7 -80.45 -198.3 -78.0 -202.45 -79.15 -209.8 -90.1 -198.4 -99.6 -193.55 -104.25 -191.15 -109.35 -190.75 L-119.45 -190.05 -120.7 -190.45 Q-114.45 -193.2 -108.35 -198.45 -100.0 -205.8 -91.9 -218.0" fill="#132a4c" fill-rule="evenodd" stroke="none"/>
    <path d="M-27.15 -236.2 L-33.35 -236.6 Q-37.3 -236.85 -40.95 -237.85 L-39.05 -237.6 -27.9 -236.3 -27.15 -236.2 M-56.35 -233.3 Q-49.65 -232.05 -23.35 -229.5 2.9 -227.0 27.4 -228.4 51.9 -229.8 60.2 -233.25 L60.25 -233.05 Q64.2 -221.95 61.35 -214.5 L56.2 -213.15 53.4 -212.5 Q34.75 -208.45 8.8 -208.6 2.4 -208.6 -4.4 -208.9 -35.75 -210.7 -53.6 -214.85 -57.7 -215.8 -61.1 -216.9 -60.15 -225.2 -56.35 -233.3 M-61.45 -210.45 Q-56.4 -207.65 -43.2 -205.75 -30.0 -203.95 -7.65 -203.65 14.75 -203.4 35.2 -204.9 47.6 -206.6 51.0 -207.6 52.8 -183.65 45.55 -171.4 38.25 -159.2 31.2 -157.65 L26.2 -158.4 12.05 -160.1 12.0 -160.1 1.85 -160.95 -0.1 -161.1 -2.1 -161.2 -14.35 -161.8 -16.5 -161.9 Q-27.0 -162.25 -38.45 -162.2 -39.35 -162.45 -42.95 -162.2 L-45.8 -162.7 -48.0 -163.2 -50.55 -163.95 -52.1 -164.55 Q-55.05 -167.65 -57.55 -174.35 -62.35 -187.35 -61.45 -207.7 L-61.35 -207.5 -61.45 -210.45 M45.45 -161.55 Q51.45 -168.45 55.55 -176.7 L54.65 -174.1 Q51.0 -165.7 45.45 -161.55 M-68.15 -245.6 Q-72.5 -234.65 -69.15 -223.15 L-68.05 -219.8 Q-70.3 -220.9 -72.3 -222.9 -73.85 -239.95 -68.25 -245.5 L-68.7 -246.2 -68.15 -245.6 M-63.8 -211.2 L-62.3 -208.9 Q-63.9 -209.35 -63.8 -211.2" fill="#4c97d9" fill-rule="evenodd" stroke="none"/>
    <path d="M-75.45 -284.4 Q-74.45 -285.2 -73.15 -285.25 L-71.95 -284.45 -75.45 -284.4 -71.95 -284.45 Q-70.3 -283.25 -69.8 -281.8 L-69.9 -281.7 -69.8 -281.8 Q-68.65 -278.35 -74.0 -273.75 L-84.05 -264.4 Q-85.9 -262.55 -87.8 -261.3 L-84.95 -263.95 Q-97.5 -258.5 -108.0 -265.15 L-108.35 -265.35 Q-103.75 -266.75 -99.15 -268.9 -91.5 -272.45 -83.8 -278.2 L-83.65 -278.0 Q-79.5 -280.15 -76.2 -283.75 L-75.45 -284.4 M55.65 -237.9 L55.4 -239.4 Q54.3 -244.9 50.1 -258.65 59.75 -253.5 65.6 -245.5 L65.6 -245.45 67.15 -243.25 66.7 -242.55 Q65.0 -240.25 61.85 -238.15 L61.25 -237.8 58.55 -237.15 58.0 -238.4 55.65 -237.9 M75.8 -238.05 L80.75 -233.6 79.85 -231.25 75.5 -220.95 Q70.85 -209.8 66.5 -198.5 L66.05 -198.85 66.5 -198.5 Q59.05 -179.15 52.45 -159.35 49.2 -149.7 44.2 -140.7 L43.6 -140.15 Q38.95 -136.1 33.65 -132.25 L33.3 -132.05 Q35.65 -137.05 36.6 -143.15 37.6 -149.75 37.0 -157.65 L37.05 -157.95 Q41.65 -158.8 45.45 -161.55 51.0 -165.7 54.65 -174.1 L55.55 -176.7 55.6 -176.75 55.8 -177.4 61.05 -207.1 61.05 -207.15 61.1 -207.75 61.2 -209.6 61.35 -214.45 Q73.55 -224.0 75.8 -238.05 M28.2 -234.85 L20.15 -234.55 Q20.75 -235.85 21.45 -239.85 22.8 -247.6 22.55 -252.35 29.2 -245.7 28.2 -234.85 M-17.3 -235.4 L-25.75 -236.1 Q-24.05 -244.55 -19.85 -251.45 L-19.15 -251.9 Q-17.3 -241.9 -17.5 -238.7 -17.7 -235.55 -17.3 -235.4 M-40.95 -237.85 L-41.45 -237.95 -52.7 -240.05 Q-54.8 -236.7 -56.35 -233.3 -60.15 -225.2 -61.1 -216.9 L-61.15 -216.55 Q-61.5 -213.5 -61.45 -210.45 L-61.35 -207.5 -61.45 -207.7 -61.45 -208.8 -62.3 -208.9 -63.8 -211.2 -63.9 -211.4 Q-64.85 -214.95 -64.3 -219.1 -61.1 -242.2 -42.15 -261.7 -38.0 -250.55 -39.0 -238.4 L-39.05 -237.6 -40.95 -237.85 M52.35 -253.0 L65.6 -245.5 52.35 -253.0 M79.7 -220.75 L81.9 -220.9 Q84.7 -219.95 87.25 -219.35 95.4 -217.45 101.1 -219.4 100.2 -214.9 98.5 -211.9 95.0 -205.9 88.15 -205.95 83.7 -211.05 80.5 -218.65 L79.7 -220.75 M-52.1 -164.55 L-50.55 -163.95 -50.15 -162.95 Q-44.3 -147.25 -36.8 -138.25 -45.5 -138.9 -53.4 -143.85 -58.1 -146.85 -62.5 -151.35 L-58.55 -144.0 Q-62.35 -146.45 -65.75 -149.3 -83.7 -164.5 -88.75 -191.0 L-88.8 -191.0 -88.95 -192.0 -89.15 -193.0 -89.9 -192.5 Q-102.35 -184.6 -119.45 -190.05 L-109.35 -190.75 Q-104.25 -191.15 -99.6 -193.55 -90.1 -198.4 -79.15 -209.8 -78.0 -202.45 -80.45 -198.3 -79.55 -196.7 -79.55 -194.5 -79.5 -181.75 -68.3 -174.3 -74.25 -194.0 -76.4 -215.1 -76.75 -218.65 -78.3 -221.95 L-80.5 -227.15 -86.45 -226.9 Q-89.2 -222.15 -91.9 -218.0 -97.85 -212.9 -107.3 -213.1 -114.1 -213.25 -122.75 -216.1 -118.35 -216.8 -114.05 -218.15 -104.15 -221.3 -95.15 -227.95 L-94.75 -228.15 -92.45 -229.2 -92.2 -229.35 -92.45 -229.2 -94.9 -228.15 -96.05 -228.35 -96.4 -228.45 Q-104.25 -230.15 -109.55 -234.75 L-109.75 -234.9 -109.9 -235.05 -110.1 -235.2 -112.9 -238.25 -113.2 -238.6 -113.45 -239.0 -108.25 -238.75 Q-100.4 -236.8 -92.35 -235.95 -89.65 -235.7 -87.1 -234.75 L-86.25 -234.8 Q-90.3 -239.5 -93.45 -244.7 -94.2 -246.0 -94.45 -247.05 L-96.6 -247.25 -98.75 -247.55 Q-103.75 -248.4 -109.1 -250.35 L-108.25 -250.45 -107.85 -250.45 Q-89.05 -249.4 -74.0 -257.95 -70.6 -259.85 -63.25 -265.95 L-60.45 -268.35 Q-55.05 -263.95 -61.25 -256.65 L-65.3 -251.45 Q-63.05 -255.25 -59.85 -259.0 -63.05 -255.25 -65.3 -251.45 L-68.7 -246.2 -72.9 -252.55 Q-79.25 -248.3 -86.75 -247.3 L-94.45 -247.05 -86.75 -247.3 Q-86.1 -244.65 -84.7 -241.65 -82.95 -237.75 -79.9 -233.1 L-76.7 -228.45 -75.15 -226.4 -72.35 -222.95 -72.05 -218.1 -71.85 -214.15 Q-70.65 -194.1 -65.8 -178.6 -64.2 -173.8 -60.95 -170.35 -59.15 -168.45 -56.8 -166.95 -54.85 -165.7 -52.45 -164.7 L-52.1 -164.55 M-14.35 -161.8 L-2.1 -161.2 Q-2.05 -152.9 -12.65 -144.5 -11.9 -146.85 -12.35 -151.35 -12.8 -155.6 -14.35 -161.8 M1.85 -160.95 L12.0 -160.1 12.05 -160.1 Q15.5 -151.35 9.45 -144.3 L6.45 -150.1 Q3.5 -156.1 1.85 -160.95 M77.45 -193.25 L77.9 -190.65 Q81.7 -165.9 58.95 -142.95 61.2 -147.9 63.1 -156.15 L65.05 -166.45 Q71.0 -177.75 73.55 -191.9 L73.95 -194.25 Q75.65 -193.65 77.45 -193.25 M-62.1 -263.5 Q-66.95 -256.6 -72.9 -252.55 -66.95 -256.6 -62.1 -263.5 M-69.9 -281.7 Q-77.55 -271.05 -84.95 -263.95 -77.55 -271.05 -69.9 -281.7 M-82.95 -233.35 L-86.15 -227.45 -86.45 -226.9 -86.15 -227.45 -82.95 -233.35 M-44.85 -250.65 Q-49.4 -245.4 -52.7 -240.05 -49.4 -245.4 -44.85 -250.65 M-80.95 -179.25 L-76.2 -170.1 Q-69.7 -158.7 -62.5 -151.35 -69.7 -158.7 -76.2 -170.1 L-80.95 -179.25 M-82.95 -198.35 Q-85.9 -195.2 -89.15 -193.0 -85.9 -195.2 -82.95 -198.35 M-88.75 -191.0 L-88.95 -192.0 -88.75 -191.0" fill="#091425" fill-rule="evenodd" stroke="none"/>
    <path d="M67.65 -244.15 L72.6 -240.65 75.6 -238.25 75.8 -238.05 Q73.55 -224.0 61.35 -214.45 L61.35 -214.5 61.35 -214.45 61.2 -209.6 61.1 -207.75 61.05 -207.15 61.05 -207.1 55.8 -177.4 55.55 -176.7 55.8 -177.4 55.6 -176.75 55.55 -176.7 Q51.45 -168.45 45.45 -161.55 41.65 -158.8 37.05 -157.95 L36.95 -157.9 33.45 -157.6 32.45 -157.6 31.2 -157.65 Q38.25 -159.2 45.55 -171.4 52.8 -183.65 51.0 -207.6 47.6 -206.6 35.2 -204.9 14.75 -203.4 -7.65 -203.65 -30.0 -203.95 -43.2 -205.75 -56.4 -207.65 -61.45 -210.45 -61.5 -213.5 -61.15 -216.55 L-61.1 -216.9 Q-57.7 -215.8 -53.6 -214.85 -35.75 -210.7 -4.4 -208.9 2.4 -208.6 8.8 -208.6 34.75 -208.45 53.4 -212.5 L56.2 -213.15 61.35 -214.5 Q64.2 -221.95 60.25 -233.05 L60.2 -233.25 59.95 -233.8 58.9 -236.4 61.25 -237.8 61.85 -238.15 Q65.0 -240.25 66.7 -242.55 L67.65 -244.15 M-61.45 -207.7 Q-62.35 -187.35 -57.55 -174.35 -55.05 -167.65 -52.1 -164.55 L-52.45 -164.7 Q-54.85 -165.7 -56.8 -166.95 -59.15 -168.45 -60.95 -170.35 -64.2 -173.8 -65.8 -178.6 -70.65 -194.1 -71.85 -214.15 L-72.05 -218.1 -72.35 -222.95 -75.15 -226.4 -76.7 -228.45 -79.9 -233.1 Q-82.95 -237.75 -84.7 -241.65 -86.1 -244.65 -86.75 -247.3 -79.25 -248.3 -72.9 -252.55 L-68.7 -246.2 -68.25 -245.5 Q-73.85 -239.95 -72.3 -222.9 L-72.35 -222.95 -72.3 -222.9 Q-70.3 -220.9 -68.05 -219.8 L-67.95 -219.55 Q-66.4 -215.55 -63.9 -211.4 L-63.8 -211.2 Q-63.9 -209.35 -62.3 -208.9 L-61.45 -208.8 -61.45 -207.7 -62.3 -208.9 -61.45 -207.7 M-42.95 -162.2 Q-39.35 -162.45 -38.45 -162.2 L-38.4 -162.15 -39.55 -162.15 -38.45 -162.2 -39.55 -162.15 -40.7 -162.15 -42.35 -162.15 -42.65 -162.15 -42.95 -162.2" fill="#3572b4" fill-rule="evenodd" stroke="none"/>
    <path d="M28.2 -234.85 L29.35 -234.9 Q43.05 -235.6 53.55 -237.5 L55.35 -237.85 55.65 -237.9 58.0 -238.4 58.55 -237.15 58.9 -236.45 58.9 -236.4 59.95 -233.8 60.2 -233.25 Q51.9 -229.8 27.4 -228.4 2.9 -227.0 -23.35 -229.5 -49.65 -232.05 -56.35 -233.3 -54.8 -236.7 -52.7 -240.05 L-41.45 -237.95 -40.95 -237.85 Q-37.3 -236.85 -33.35 -236.6 L-27.15 -236.2 -27.05 -236.2 -26.4 -236.15 -25.75 -236.1 -17.3 -235.4 -17.15 -235.4 0.0 -234.65 Q10.05 -234.4 19.0 -234.55 L19.15 -234.55 Q19.6 -233.35 20.15 -234.55 L28.2 -234.85 M-27.15 -236.2 L-26.4 -236.15 -27.15 -236.2" fill="#79c7ff" fill-rule="evenodd" stroke="none"/>
    <path d="M77.15 -248.65 Q89.85 -246.75 95.5 -253.65 97.45 -256.05 98.55 -259.5 87.9 -255.1 68.0 -277.7 L63.1 -283.6 Q43.85 -304.15 5.65 -311.35 -18.7 -316.75 -50.4 -308.55 -77.0 -299.85 -94.2 -299.05 L-106.0 -299.6 Q-94.45 -285.95 -78.25 -284.55 L-76.25 -284.4 -75.45 -284.4 -71.95 -284.45 -65.8 -285.2 M77.15 -248.65 Q71.65 -255.75 61.8 -260.8 M28.2 -234.85 L29.35 -234.9 Q43.05 -235.6 53.55 -237.5 L55.35 -237.85 55.65 -237.9 58.0 -238.4 58.55 -237.15 58.9 -236.45 58.9 -236.4 61.25 -237.8 61.85 -238.15 Q65.0 -240.25 66.7 -242.55 L67.65 -244.15 72.6 -240.65 75.6 -238.25 75.8 -238.05 80.75 -233.6 83.8 -230.3 Q83.6 -233.7 82.85 -236.8 L82.25 -238.85 Q81.2 -242.1 79.55 -245.05 L77.15 -248.65 M65.6 -245.5 L67.65 -244.15 M20.15 -234.55 L28.2 -234.85 M19.15 -234.55 L19.0 -234.55 Q10.05 -234.4 0.0 -234.65 L-17.15 -235.4 -17.3 -235.4 -25.75 -236.1 -26.4 -236.15 -27.15 -236.2 -27.9 -236.3 -39.05 -237.6 -40.95 -237.85 -41.45 -237.95 -52.7 -240.05 Q-54.8 -236.7 -56.35 -233.3 -60.15 -225.2 -61.1 -216.9 L-61.15 -216.55 Q-61.5 -213.5 -61.45 -210.45 L-61.35 -207.5 -61.45 -207.7 -62.3 -208.9 -63.8 -211.2 -63.9 -211.4 Q-66.4 -215.55 -67.95 -219.55 L-68.05 -219.8 Q-70.3 -220.9 -72.3 -222.9 -73.85 -239.95 -68.25 -245.5 L-68.7 -246.2 -72.9 -252.55 Q-66.95 -256.6 -62.1 -263.5 M60.2 -233.25 L59.95 -233.8 58.9 -236.4 M19.15 -234.55 L20.15 -234.55 M65.6 -245.5 L52.35 -253.0 M75.5 -220.95 L79.7 -220.75 81.9 -220.9 Q89.3 -221.75 93.9 -226.95 96.45 -229.9 98.1 -234.15 92.35 -231.85 82.25 -238.85 M60.2 -233.25 L60.25 -233.05 Q64.2 -221.95 61.35 -214.5 L61.35 -214.45 Q73.55 -224.0 75.8 -238.05 M-52.1 -164.55 L-50.55 -163.95 -48.0 -163.2 -45.8 -162.7 -42.95 -162.2 -42.65 -162.15 -42.35 -162.15 -40.7 -162.15 -39.55 -162.15 -38.45 -162.2 Q-27.0 -162.25 -16.5 -161.9 L-14.35 -161.8 -2.1 -161.2 -0.1 -161.1 1.85 -160.95 12.0 -160.1 12.05 -160.1 26.2 -158.4 31.2 -157.65 32.45 -157.6 33.45 -157.6 36.95 -157.9 37.05 -157.95 Q41.65 -158.8 45.45 -161.55 51.0 -165.7 54.65 -174.1 L55.55 -176.7 55.8 -177.4 61.05 -207.1 61.05 -207.15 61.1 -207.75 61.2 -209.6 61.35 -214.45 M61.35 -214.5 L56.2 -213.15 53.4 -212.5 Q34.75 -208.45 8.8 -208.6 2.4 -208.6 -4.4 -208.9 -35.75 -210.7 -53.6 -214.85 -57.7 -215.8 -61.1 -216.9 M88.15 -205.95 Q83.7 -211.05 80.5 -218.65 L79.7 -220.75 M66.05 -198.85 L66.5 -198.5 Q70.05 -195.75 73.95 -194.25 75.65 -193.65 77.45 -193.25 L77.9 -190.65 Q81.7 -165.9 58.95 -142.95 61.2 -147.9 63.1 -156.15 L65.05 -166.45 Q59.95 -156.85 51.8 -148.05 48.0 -144.0 43.6 -140.15 38.95 -136.1 33.65 -132.25 L33.3 -132.05 Q35.65 -137.05 36.6 -143.15 37.6 -149.75 37.0 -157.65 L36.95 -157.9 M81.9 -220.9 Q84.7 -219.95 87.25 -219.35 95.4 -217.45 101.1 -219.4 100.2 -214.9 98.5 -211.9 95.0 -205.9 88.15 -205.95 L90.95 -203.1 Q95.25 -199.2 100.6 -197.3 97.15 -195.6 93.85 -194.5 85.05 -191.6 77.45 -193.25 M65.05 -166.45 Q71.0 -177.75 73.55 -191.9 L73.95 -194.25 M1.85 -160.95 Q3.5 -156.1 6.45 -150.1 L9.45 -144.3 Q15.5 -151.35 12.05 -160.1 M-69.9 -281.7 L-69.8 -281.8 -68.45 -283.3 M-65.3 -251.45 Q-67.0 -248.55 -68.15 -245.6 -72.5 -234.65 -69.15 -223.15 L-68.05 -219.8 M-108.25 -250.45 L-109.1 -250.35 Q-103.75 -248.4 -98.75 -247.55 L-96.6 -247.25 -94.45 -247.05 -86.75 -247.3 Q-79.25 -248.3 -72.9 -252.55 M-83.8 -278.2 Q-91.5 -272.45 -99.15 -268.9 -103.75 -266.75 -108.35 -265.35 L-108.0 -265.15 Q-97.5 -258.5 -84.95 -263.95 -77.55 -271.05 -69.9 -281.7 M-87.8 -261.3 Q-92.2 -257.5 -96.45 -255.0 -102.45 -251.45 -108.25 -250.45 M-84.95 -263.95 L-87.8 -261.3 M-52.1 -164.55 L-52.45 -164.7 Q-54.85 -165.7 -56.8 -166.95 -59.15 -168.45 -60.95 -170.35 -64.2 -173.8 -65.8 -178.6 -70.65 -194.1 -71.85 -214.15 L-72.05 -218.1 -72.35 -222.95 -75.15 -226.4 -76.7 -228.45 -79.9 -233.1 Q-82.95 -237.75 -84.7 -241.65 -86.1 -244.65 -86.75 -247.3 M-92.2 -229.35 L-92.45 -229.2 -94.75 -228.15 -95.15 -227.95 Q-104.15 -221.3 -114.05 -218.15 -118.35 -216.8 -122.75 -216.1 -114.1 -213.25 -107.3 -213.1 -97.85 -212.9 -91.9 -218.0 -89.2 -222.15 -86.45 -226.9 L-86.15 -227.45 -82.95 -233.35 M-113.45 -239.0 L-113.2 -238.6 -112.9 -238.25 -110.1 -235.2 -109.9 -235.05 -109.75 -234.9 -109.55 -234.75 Q-104.25 -230.15 -96.4 -228.45 L-96.05 -228.35 -94.9 -228.15 -92.45 -229.2 M-94.9 -228.15 L-94.75 -228.15 M-94.9 -228.15 L-95.15 -227.95 M-96.6 -247.25 Q-103.7 -242.55 -109.8 -240.75 -112.0 -240.1 -114.05 -239.8 L-113.45 -239.0 M-91.9 -218.0 Q-100.0 -205.8 -108.35 -198.45 -114.45 -193.2 -120.7 -190.45 L-119.45 -190.05 Q-102.35 -184.6 -89.9 -192.5 L-89.15 -193.0 Q-85.9 -195.2 -82.95 -198.35 M-59.85 -259.0 Q-63.05 -255.25 -65.3 -251.45 M-68.7 -246.2 L-68.15 -245.6 M-72.3 -222.9 L-72.35 -222.95 M-52.7 -240.05 Q-49.4 -245.4 -44.85 -250.65 M-76.25 -284.4 Q-80.05 -281.05 -83.8 -278.2 M-14.35 -161.8 Q-12.8 -155.6 -12.35 -151.35 -11.9 -146.85 -12.65 -144.5 -2.05 -152.9 -2.1 -161.2 M-62.5 -151.35 Q-69.7 -158.7 -76.2 -170.1 L-80.95 -179.25 M-50.55 -163.95 L-50.15 -162.95 Q-44.3 -147.25 -36.8 -138.25 -45.5 -138.9 -53.4 -143.85 -58.1 -146.85 -62.5 -151.35 L-58.55 -144.0 Q-62.35 -146.45 -65.75 -149.3 -83.7 -164.5 -88.75 -191.0 L-88.95 -192.0 -89.15 -193.0" fill="none" stroke="#1a5283" stroke-linecap="round" stroke-linejoin="round" stroke-width="2.0"/>
    <path d="M48.65 -286.0 Q63.0 -283.7 56.8 -273.4 55.7 -271.6 52.5 -274.35 49.3 -277.1 48.4 -281.6 47.5 -286.1 48.65 -286.0 M16.95 -280.65 Q29.55 -277.2 27.5 -269.9 25.45 -262.65 18.45 -267.0 11.45 -271.35 13.85 -275.95 16.2 -280.6 16.95 -280.65 M-16.95 -280.65 Q-5.45 -274.25 -14.9 -264.4 -16.35 -262.9 -21.1 -266.6 -25.85 -270.35 -23.05 -275.25 -20.3 -280.15 -16.95 -280.65 M-41.05 -293.6 Q-33.15 -286.15 -42.15 -282.85 -51.2 -279.55 -55.35 -281.5 -59.5 -283.45 -52.65 -287.55 -45.85 -291.7 -41.05 -293.6" fill="#245091" fill-rule="evenodd" stroke="none"/>
    <path d="M-0.7 -302.15 Q-7.8 -318.8 -20.25 -341.5 5.6 -333.0 2.75 -304.6 10.5 -316.85 12.05 -337.15 33.55 -325.35 5.45 -303.0 L-0.7 -302.15" fill="#132a4c" fill-rule="evenodd" stroke="none"/>
    <path d="M-0.7 -302.15 Q-7.8 -318.8 -20.25 -341.5 5.6 -333.0 2.75 -304.6 10.5 -316.85 12.05 -337.15 33.55 -325.35 5.45 -303.0" fill="none" stroke="#1a5283" stroke-linecap="round" stroke-linejoin="round" stroke-width="2.0"/>
  </g>
</svg>
