<?xml version="1.0" encoding="UTF-8" standalone="no"?>
<svg xmlns:xlink="http://www.w3.org/1999/xlink" height="182.3px" width="100.6px" xmlns="http://www.w3.org/2000/svg">
  <g transform="matrix(1.0, 0.0, 0.0, 1.0, 107.55, 94.45)">
    <path d="M-26.55 0.7 Q-63.0 -34.05 -91.6 -63.7 -95.55 -21.75 -74.8 25.3 -43.95 18.15 -25.6 1.75 L-26.5 0.75 -26.55 0.7 M-34.3 40.2 Q-42.85 44.7 -51.2 50.15 L-51.35 50.2 -51.2 50.4 Q-43.15 64.85 -34.3 73.15 -30.55 76.6 -26.65 79.0 -16.6 65.6 -13.25 38.9 -12.8 35.4 -12.5 31.65 L-12.4 30.25 -16.0 31.65 Q-24.05 34.95 -31.85 38.9 L-34.3 40.2 M-16.1 36.05 L-44.55 51.75 Q-39.35 61.05 -33.8 68.05 -31.05 71.3 -28.55 73.55 -21.9 63.15 -16.9 40.1 L-16.1 36.05 M-18.6 1.6 Q-54.85 -31.95 -95.95 -74.05 -104.3 -21.85 -76.4 32.85 -39.95 23.75 -18.6 1.6" fill="none" stroke="#000000" stroke-linecap="round" stroke-linejoin="round" stroke-width="1.5"/>
    <path d="M-34.3 35.6 L-40.75 38.9 -51.2 44.5 -57.65 48.0 Q-54.85 54.0 -51.2 59.8 -47.9 65.0 -43.9 70.1 -39.35 75.7 -34.3 80.15 -30.05 83.95 -25.3 86.85 -20.15 81.35 -13.4 63.75 -9.0 52.4 -8.15 38.9 L-7.95 31.65 Q-8.0 27.55 -8.3 23.2 -16.95 27.0 -26.45 31.65 L-34.3 35.6 M-9.2 1.7 Q-48.65 -34.45 -101.85 -93.45 -117.8 -16.55 -79.5 41.65 -32.45 31.95 -9.2 1.7" fill="none" stroke="#000000" stroke-linecap="round" stroke-linejoin="round" stroke-width="2.0"/>
  </g>
</svg>
