<?xml version="1.0" encoding="UTF-8" standalone="no"?>
<svg xmlns:xlink="http://www.w3.org/1999/xlink" height="172.35px" width="135.95px" xmlns="http://www.w3.org/2000/svg">
  <g transform="matrix(1.0, 0.0, 0.0, 1.0, 133.7, 91.0)">
    <path d="M-98.15 -57.7 L-103.5 -58.75 Q-113.3 -60.35 -118.05 -67.15 -122.7 -73.9 -121.5 -90.1 -128.65 -82.75 -130.7 -73.95 -136.65 -49.05 -125.55 -26.35 -114.45 -3.55 -98.45 5.25 L-98.25 5.4 -97.8 5.65 Q-97.7 5.75 -97.55 5.8 L-97.3 5.95 -96.85 6.2 Q-83.3 13.25 -67.2 15.35 L-62.75 15.8 -63.95 15.65 -67.65 14.95 Q-71.25 14.0 -73.1 12.5 L-73.2 12.4 Q-74.75 11.15 -75.2 9.5 -75.7 5.35 -68.5 5.0 L-71.45 4.65 Q-80.95 3.45 -82.65 -1.5 -81.75 -7.25 -71.95 -6.6 L-77.95 -7.45 Q-89.45 -8.9 -89.4 -16.6 -88.7 -21.65 -77.7 -21.7 L-80.85 -22.3 Q-94.5 -22.65 -98.15 -31.7 -99.85 -42.15 -86.25 -39.8 L-91.4 -41.35 Q-105.8 -43.05 -106.0 -51.05 -106.65 -57.9 -98.15 -57.7 -84.35 -54.75 -70.65 -47.45 -34.5 -28.05 -1.5 -3.65 L-0.35 -1.75 Q0.8 0.65 1.2 2.8 1.6 5.4 0.8 7.8 0.0 10.1 -2.05 12.1 L-2.8 12.75 Q-4.25 14.15 -6.1 15.05 L-5.7 15.5 Q-4.95 16.45 -4.5 17.8 -2.6 23.55 -8.3 34.0 -15.05 46.1 -32.25 59.25 -38.75 64.1 -45.4 68.05 L-46.4 68.55 Q-56.9 74.75 -67.9 78.5 -81.45 83.35 -85.35 76.25 -82.3 74.9 -78.3 67.75 L-74.3 54.7 Q-72.6 47.35 -56.75 41.2 L-56.45 41.05 -56.25 40.9 Q-33.9 28.95 -16.25 16.95 L-28.75 17.1 -30.85 17.1 -62.75 15.8 -65.1 15.6 -67.2 15.35 M0.8 7.8 L-3.0 7.7 -3.4 7.65 Q-15.4 7.0 -29.0 3.9 L-32.85 2.95 -34.1 2.65 -35.5 2.3 -45.3 -0.6 Q-55.3 -3.5 -65.1 -5.4 L-71.95 -6.6 M-77.7 -21.7 L-69.35 -19.6 -68.05 -19.25 -67.75 -19.15 -66.75 -18.85 -61.2 -16.95 -57.8 -15.65 -54.3 -14.15 -49.9 -12.1 Q-41.15 -7.75 -32.05 -4.5 L-29.35 -3.55 -24.9 -2.15 Q-16.35 0.4 -7.6 2.05 L1.2 2.8 M-0.35 -1.75 Q-1.85 1.0 -12.9 -3.45 -19.45 -6.1 -29.45 -11.25 L-37.95 -15.8 -51.95 -23.65 Q-68.2 -34.2 -86.25 -39.8 M-6.1 15.05 Q-8.4 16.2 -11.35 16.7 L-14.9 19.95 -15.3 20.2 -23.15 26.7 -23.8 27.2 Q-36.65 37.05 -51.4 44.8 -62.8 52.5 -60.7 54.75 -59.15 57.3 -55.05 56.0 L-53.8 55.55 Q-22.25 38.3 -5.7 15.5 M-16.25 16.95 L-12.25 16.8 -11.35 16.7 M-68.5 5.0 L-18.25 11.15 -2.05 12.1 M-51.4 44.8 L-52.8 45.5 Q-56.6 47.5 -58.55 45.95 -59.75 43.5 -56.45 41.05 M-4.5 17.8 Q-15.3 42.8 -51.7 64.15 -57.15 67.8 -56.4 70.5 -53.2 72.4 -46.4 68.55 M-55.05 56.0 Q-60.85 61.6 -61.35 65.75 -60.15 68.85 -54.7 66.0 L-51.7 64.15" fill="none" stroke="#000000" stroke-linecap="round" stroke-linejoin="round" stroke-width="1.8"/>
  </g>
</svg>
