<?xml version="1.0" encoding="UTF-8" standalone="no"?>
<svg xmlns:xlink="http://www.w3.org/1999/xlink" height="134.15px" width="176.95px" xmlns="http://www.w3.org/2000/svg">
  <g transform="matrix(1.0, 0.0, 0.0, 1.0, 187.75, 67.95)">
    <path d="M-73.55 -56.95 L-78.05 -51.75 Q-117.2 -5.9 -139.6 30.25 L-144.8 48.35 -134.35 40.5 Q-109.65 -2.8 -72.85 -52.4 L-90.9 47.7 -87.95 65.3 -82.65 50.0 Q-78.4 10.85 -69.65 -50.5 -67.3 -11.5 -62.95 13.5 L-61.6 20.5 -56.1 29.5 -54.3 15.15 Q-61.95 -11.05 -66.0 -43.9 L-66.6 -49.05 Q-67.85 -53.1 -67.8 -58.9 L-73.55 -56.95 Q-147.7 -28.1 -173.15 12.9 L-167.3 12.45 Q-145.55 11.25 -140.7 20.85 -138.85 24.7 -139.6 30.25 M-66.6 -49.05 Q-57.4 -16.9 -33.15 1.9 L-29.8 4.45 -13.1 7.55 -11.7 4.15 -25.15 1.45 Q-34.2 -1.1 -48.8 -19.9 -63.35 -38.65 -63.95 -58.8 L-49.5 -65.7 Q-56.45 -67.85 -61.5 -66.55 L-70.65 -64.25 Q-145.1 -41.9 -186.85 19.4 L-173.15 12.9 M-54.3 15.15 L-52.75 12.5 Q-46.45 2.8 -37.9 1.8 L-33.15 1.9 M-82.65 50.0 L-78.15 39.15 Q-70.35 21.55 -64.55 20.15 -63.05 19.75 -61.6 20.5 M-134.35 40.5 Q-129.9 38.75 -125.7 37.7 -107.8 33.45 -94.6 44.25 L-90.9 47.7" fill="none" stroke="#000000" stroke-linecap="round" stroke-linejoin="round" stroke-width="1.8"/>
  </g>
</svg>
