<?xml version="1.0" encoding="UTF-8" standalone="no"?>
<svg xmlns:xlink="http://www.w3.org/1999/xlink" height="66.0px" width="80.8px" xmlns="http://www.w3.org/2000/svg">
  <g transform="matrix(1.0, 0.0, 0.0, 1.0, 41.35, 33.7)">
    <path d="M-29.1 -33.2 L27.2 -33.2 Q38.95 -33.2 38.95 -21.45 L38.95 20.05 Q38.95 31.8 27.2 31.8 L-29.1 31.8 Q-40.85 31.8 -40.85 20.05 L-40.85 -21.45 Q-40.85 -33.2 -29.1 -33.2" fill="url(#gradient0)" fill-rule="evenodd" stroke="none"/>
    <path d="M-29.1 -33.2 L27.2 -33.2 Q38.95 -33.2 38.95 -21.45 L38.95 20.05 Q38.95 31.8 27.2 31.8 L-29.1 31.8 Q-40.85 31.8 -40.85 20.05 L-40.85 -21.45 Q-40.85 -33.2 -29.1 -33.2 Z" fill="none" stroke="#000000" stroke-linecap="round" stroke-linejoin="round" stroke-width="1.0"/>
  </g>
  <defs>
    <linearGradient gradientTransform="matrix(0.0, -0.0373, 0.0487, 0.0, -0.95, -1.65)" gradientUnits="userSpaceOnUse" id="gradient0" spreadMethod="pad" x1="-819.2" x2="819.2">
      <stop offset="0.0" stop-color="#acbfe2"/>
      <stop offset="0.9882352941176471" stop-color="#a3ade5"/>
    </linearGradient>
  </defs>
</svg>
