<?xml version="1.0" encoding="UTF-8" standalone="no"?>
<svg xmlns:xlink="http://www.w3.org/1999/xlink" height="58.55px" width="105.1px" xmlns="http://www.w3.org/2000/svg">
  <g transform="matrix(1.0, 0.0, 0.0, 1.0, 52.5, 29.75)">
    <path d="M6.95 -29.25 L7.15 -29.25 41.8 -29.25 Q52.1 -29.25 52.1 -18.95 L52.1 18.05 Q52.1 28.3 41.8 28.3 L-41.75 28.3 Q-52.0 28.3 -52.0 18.05 L-52.0 -18.95 Q-52.0 -29.25 -41.75 -29.25 L6.95 -29.25" fill="url(#gradient0)" fill-rule="evenodd" stroke="none"/>
    <path d="M7.15 -29.25 L41.8 -29.25 Q52.1 -29.25 52.1 -18.95 L52.1 18.05 Q52.1 28.3 41.8 28.3 L-41.75 28.3 Q-52.0 28.3 -52.0 18.05 L-52.0 -18.95 Q-52.0 -29.25 -41.75 -29.25 L6.95 -29.25" fill="none" stroke="#272d41" stroke-linecap="round" stroke-linejoin="round" stroke-opacity="0.627451" stroke-width="1.0"/>
    <path d="M10.55 -8.1 Q10.55 -3.2 7.1 0.2 3.65 3.65 -1.2 3.65 -6.1 3.65 -9.55 0.2 -12.9 -3.2 -12.95 -8.0 L-8.6 -8.0 Q-8.6 -5.0 -6.45 -2.85 -4.3 -0.7 -1.15 -0.7 1.9 -0.7 4.1 -2.85 6.25 -5.05 6.25 -8.1 6.25 -11.2 4.1 -13.4 1.9 -15.55 -1.15 -15.55 L-1.65 -15.5 -1.65 -12.6 -8.85 -17.55 -1.65 -22.5 -1.65 -19.85 -1.2 -19.85 Q3.65 -19.85 7.1 -16.4 10.55 -13.0 10.55 -8.1" fill="#252d43" fill-opacity="0.8" fill-rule="evenodd" stroke="none"/>
  </g>
  <defs>
    <linearGradient gradientTransform="matrix(0.0, 0.034, -0.0635, 0.0, 0.05, 0.85)" gradientUnits="userSpaceOnUse" id="gradient0" spreadMethod="pad" x1="-819.2" x2="819.2">
      <stop offset="0.0" stop-color="#d9dfff"/>
      <stop offset="1.0" stop-color="#ece9ff"/>
    </linearGradient>
  </defs>
</svg>
