<?xml version="1.0" encoding="UTF-8" standalone="no"?>
<svg xmlns:xlink="http://www.w3.org/1999/xlink" height="61.6px" width="333.5px" xmlns="http://www.w3.org/2000/svg">
  <g transform="matrix(1.0, 0.0, 0.0, 1.0, 686.75, 432.35)">
    <path d="M-617.55 -431.85 L-486.65 -431.85 -486.65 -371.25 -617.55 -371.25 -617.55 -388.85 -617.55 -431.85" fill="url(#gradient0)" fill-rule="evenodd" stroke="none"/>
    <path d="M-486.65 -431.85 L-485.85 -431.85 -363.9 -431.85 Q-353.75 -431.85 -353.75 -421.7 L-353.75 -381.45 Q-353.75 -371.25 -363.9 -371.25 L-485.85 -371.25 -486.65 -371.25 -486.65 -431.85 M-485.85 -431.85 L-485.85 -371.25 -485.85 -431.85" fill="url(#gradient1)" fill-rule="evenodd" stroke="none"/>
    <path d="M-617.55 -371.25 L-676.15 -371.25 Q-686.25 -371.25 -686.25 -381.45 L-686.25 -388.85 -617.55 -388.85 -617.55 -371.25" fill="url(#gradient2)" fill-rule="evenodd" stroke="none"/>
    <path d="M-686.25 -388.85 L-686.25 -421.7 Q-686.25 -431.85 -676.15 -431.85 L-617.55 -431.85 -617.55 -388.85 -686.25 -388.85" fill="url(#gradient3)" fill-rule="evenodd" stroke="none"/>
    <path d="M-617.55 -431.85 L-486.65 -431.85 -485.85 -431.85 -363.9 -431.85 Q-353.75 -431.85 -353.75 -421.7 L-353.75 -381.45 Q-353.75 -371.25 -363.9 -371.25 L-485.85 -371.25 -486.65 -371.25 -617.55 -371.25 -676.15 -371.25 Q-686.25 -371.25 -686.25 -381.45 L-686.25 -388.85 -686.25 -421.7 Q-686.25 -431.85 -676.15 -431.85 L-617.55 -431.85 -617.55 -388.85 -617.55 -371.25 M-485.85 -371.25 L-485.85 -431.85 M-617.55 -388.85 L-686.25 -388.85" fill="none" stroke="#272d41" stroke-linecap="round" stroke-linejoin="round" stroke-opacity="0.627451" stroke-width="1.0"/>
  </g>
  <defs>
    <linearGradient gradientTransform="matrix(0.0, 0.037, -0.0799, 0.0, -552.1, -401.55)" gradientUnits="userSpaceOnUse" id="gradient0" spreadMethod="pad" x1="-819.2" x2="819.2">
      <stop offset="0.0" stop-color="#d9dfff"/>
      <stop offset="1.0" stop-color="#ece9ff"/>
    </linearGradient>
    <linearGradient gradientTransform="matrix(0.0, 0.0342, -0.2089, 0.0, -524.85, -400.85)" gradientUnits="userSpaceOnUse" id="gradient1" spreadMethod="pad" x1="-819.2" x2="819.2">
      <stop offset="0.0" stop-color="#d9dfff"/>
      <stop offset="1.0" stop-color="#ece9ff"/>
    </linearGradient>
    <linearGradient gradientTransform="matrix(0.0, -0.0359, 0.0435, 0.0, -650.6, -401.65)" gradientUnits="userSpaceOnUse" id="gradient2" spreadMethod="pad" x1="-819.2" x2="819.2">
      <stop offset="0.0" stop-color="#d2dbff"/>
      <stop offset="0.9882352941176471" stop-color="#b5c0ff"/>
    </linearGradient>
    <linearGradient gradientTransform="matrix(0.0, -0.0359, 0.0435, 0.0, -650.6, -401.65)" gradientUnits="userSpaceOnUse" id="gradient3" spreadMethod="pad" x1="-819.2" x2="819.2">
      <stop offset="0.0" stop-color="#acbfe2"/>
      <stop offset="0.9882352941176471" stop-color="#a3ade5"/>
    </linearGradient>
  </defs>
</svg>
