<?xml version="1.0" encoding="UTF-8" standalone="no"?>
<svg xmlns:xlink="http://www.w3.org/1999/xlink" height="66.1px" width="82.4px" xmlns="http://www.w3.org/2000/svg">
  <g transform="matrix(1.0, 0.0, 0.0, 1.0, 41.2, 33.05)">
    <path d="M-40.7 -32.55 L40.7 -32.55 40.7 32.55 -40.7 32.55 -40.7 -32.55" fill="#a1bcd0" fill-opacity="0.28627452" fill-rule="evenodd" stroke="none"/>
    <path d="M-40.7 -32.55 L40.7 -32.55 40.7 32.55 -40.7 32.55 -40.7 -32.55 Z" fill="none" stroke="#000000" stroke-linecap="round" stroke-linejoin="round" stroke-opacity="0.6" stroke-width="1.0"/>
    <path d="M-23.2 -23.05 Q-23.2 -19.85 -25.45 -17.6 -27.7 -15.35 -30.95 -15.35 -34.15 -15.35 -36.4 -17.6 -38.65 -19.85 -38.65 -23.1 -38.65 -26.3 -36.4 -28.55 -34.15 -30.8 -30.95 -30.8 -27.7 -30.8 -25.45 -28.55 -23.2 -26.3 -23.2 -23.05 M-31.1 -26.1 Q-31.1 -27.3 -31.95 -28.1 -32.75 -28.95 -33.95 -28.95 -35.1 -28.95 -35.95 -28.1 -36.75 -27.3 -36.75 -26.1 -36.75 -24.9 -35.95 -24.1 -35.1 -23.3 -33.95 -23.3 -32.75 -23.3 -31.95 -24.1 -31.1 -24.9 -31.1 -26.1" fill="#62ff5f" fill-opacity="0.84705883" fill-rule="evenodd" stroke="none"/>
    <path d="M-31.1 -26.1 Q-31.1 -24.9 -31.95 -24.1 -32.75 -23.3 -33.95 -23.3 -35.1 -23.3 -35.95 -24.1 -36.75 -24.9 -36.75 -26.1 -36.75 -27.3 -35.95 -28.1 -35.1 -28.95 -33.95 -28.95 -32.75 -28.95 -31.95 -28.1 -31.1 -27.3 -31.1 -26.1" fill="#c9ffdc" fill-opacity="0.84705883" fill-rule="evenodd" stroke="none"/>
    <path d="M-23.2 -23.05 Q-23.2 -19.85 -25.45 -17.6 -27.7 -15.35 -30.95 -15.35 -34.15 -15.35 -36.4 -17.6 -38.65 -19.85 -38.65 -23.1 -38.65 -26.3 -36.4 -28.55 -34.15 -30.8 -30.95 -30.8 -27.7 -30.8 -25.45 -28.55 -23.2 -26.3 -23.2 -23.05 Z" fill="none" stroke="#193c20" stroke-linecap="round" stroke-linejoin="round" stroke-width="2.0"/>
  </g>
</svg>
