<?xml version="1.0" encoding="UTF-8" standalone="no"?>
<svg xmlns:xlink="http://www.w3.org/1999/xlink" height="58.55px" width="105.1px" xmlns="http://www.w3.org/2000/svg">
  <g transform="matrix(1.0, 0.0, 0.0, 1.0, 52.8, 29.2)">
    <path d="M6.65 -28.7 L6.85 -28.7 41.5 -28.7 Q51.8 -28.7 51.8 -18.4 L51.8 18.6 Q51.8 28.85 41.5 28.85 L-42.05 28.85 Q-52.3 28.85 -52.3 18.6 L-52.3 -18.4 Q-52.3 -28.7 -42.05 -28.7 L6.65 -28.7" fill="url(#gradient0)" fill-rule="evenodd" stroke="none"/>
    <path d="M6.85 -28.7 L41.5 -28.7 Q51.8 -28.7 51.8 -18.4 L51.8 18.6 Q51.8 28.85 41.5 28.85 L-42.05 28.85 Q-52.3 28.85 -52.3 18.6 L-52.3 -18.4 Q-52.3 -28.7 -42.05 -28.7 L6.65 -28.7" fill="none" stroke="#272d41" stroke-linecap="round" stroke-linejoin="round" stroke-opacity="0.627451" stroke-width="1.0"/>
    <path d="M-8.7 0.35 L-2.25 -9.8 -8.5 -19.7 -4.3 -19.7 -0.1 -13.2 3.9 -19.7 8.4 -19.7 2.1 -9.8 8.6 0.35 4.2 0.35 -0.1 -6.4 -4.5 0.35 -8.7 0.35" fill="#252d43" fill-opacity="0.8" fill-rule="evenodd" stroke="none"/>
  </g>
  <defs>
    <linearGradient gradientTransform="matrix(0.0, 0.034, -0.0635, 0.0, -0.25, 1.4)" gradientUnits="userSpaceOnUse" id="gradient0" spreadMethod="pad" x1="-819.2" x2="819.2">
      <stop offset="0.0" stop-color="#d9dfff"/>
      <stop offset="1.0" stop-color="#ece9ff"/>
    </linearGradient>
  </defs>
</svg>
