<?xml version="1.0" encoding="UTF-8" standalone="no"?>
<svg xmlns:xlink="http://www.w3.org/1999/xlink" height="441.9px" width="327.45px" xmlns="http://www.w3.org/2000/svg">
  <g transform="matrix(1.0, 0.0, 0.0, 1.0, 272.25, 413.0)">
    <path d="M5.8 -140.3 L46.55 -140.3 Q54.7 -140.3 54.7 -132.2 L54.7 -95.3 Q54.7 -87.2 46.55 -87.2 L5.8 -87.2 Q-2.25 -87.2 -2.25 -95.3 L-2.25 -132.2 Q-2.25 -140.3 5.8 -140.3" fill="url(#gradient0)" fill-rule="evenodd" stroke="none"/>
    <path d="M5.8 -84.65 L46.55 -84.65 Q54.7 -84.65 54.7 -76.55 L54.7 -39.65 Q54.7 -31.55 46.55 -31.55 L5.8 -31.55 Q-2.25 -31.55 -2.25 -39.65 L-2.25 -76.55 Q-2.25 -84.65 5.8 -84.65" fill="url(#gradient1)" fill-rule="evenodd" stroke="none"/>
    <path d="M-19.8 -29.15 L44.25 -29.15 Q54.5 -29.15 54.5 -18.85 L54.5 18.15 Q54.5 28.4 44.25 28.4 L-19.8 28.4 -19.8 -29.15 -19.8 28.4 -93.05 28.4 -156.95 28.4 Q-167.2 28.4 -167.2 18.15 L-167.2 -18.85 Q-167.2 -29.15 -156.95 -29.15 L-93.05 -29.15 -19.8 -29.15 M-93.05 -29.15 L-93.05 28.4 -93.05 -29.15" fill="url(#gradient2)" fill-rule="evenodd" stroke="none"/>
    <path d="M5.8 -140.3 L46.55 -140.3 Q54.7 -140.3 54.7 -132.2 L54.7 -95.3 Q54.7 -87.2 46.55 -87.2 L5.8 -87.2 Q-2.25 -87.2 -2.25 -95.3 L-2.25 -132.2 Q-2.25 -140.3 5.8 -140.3 M5.8 -84.65 L46.55 -84.65 Q54.7 -84.65 54.7 -76.55 L54.7 -39.65 Q54.7 -31.55 46.55 -31.55 L5.8 -31.55 Q-2.25 -31.55 -2.25 -39.65 L-2.25 -76.55 Q-2.25 -84.65 5.8 -84.65 M-19.8 28.4 L44.25 28.4 Q54.5 28.4 54.5 18.15 L54.5 -18.85 Q54.5 -29.15 44.25 -29.15 L-19.8 -29.15 -19.8 28.4 -93.05 28.4 -156.95 28.4 Q-167.2 28.4 -167.2 18.15 L-167.2 -18.85 Q-167.2 -29.15 -156.95 -29.15 L-93.05 -29.15 -19.8 -29.15 M-93.05 28.4 L-93.05 -29.15" fill="none" stroke="#272d41" stroke-linecap="round" stroke-linejoin="round" stroke-opacity="0.627451" stroke-width="1.0"/>
    <path d="M-272.25 -399.9 L-272.25 -403.95 -253.05 -403.95 -253.05 -399.9 -272.25 -399.9 M-178.9 -390.8 L-178.9 -400.05 -186.45 -400.05 -186.45 -404.1 -178.9 -404.1 -178.9 -413.0 -174.75 -413.0 -174.75 -404.1 -167.25 -404.1 -167.25 -400.05 -174.75 -400.05 -174.75 -390.8 -178.9 -390.8 M-140.45 -399.9 L-140.45 -403.95 -121.25 -403.95 -121.25 -399.9 -140.45 -399.9 M-48.8 -390.8 L-48.8 -400.05 -56.3 -400.05 -56.3 -404.1 -48.8 -404.1 -48.8 -413.0 -44.65 -413.0 -44.65 -404.1 -37.1 -404.1 -37.1 -400.05 -44.65 -400.05 -44.65 -390.8 -48.8 -390.8" fill="#515362" fill-rule="evenodd" stroke="none"/>
  </g>
  <defs>
    <linearGradient gradientTransform="matrix(0.0, 0.0302, -0.0347, 0.0, 26.25, -113.9)" gradientUnits="userSpaceOnUse" id="gradient0" spreadMethod="pad" x1="-819.2" x2="819.2">
      <stop offset="0.0" stop-color="#e7b4b4"/>
      <stop offset="1.0" stop-color="#ffc2c2"/>
    </linearGradient>
    <linearGradient gradientTransform="matrix(0.0, 0.0302, -0.0347, 0.0, 26.25, -57.25)" gradientUnits="userSpaceOnUse" id="gradient1" spreadMethod="pad" x1="-819.2" x2="819.2">
      <stop offset="0.0" stop-color="#aeb2c2"/>
      <stop offset="1.0" stop-color="#cac8db"/>
    </linearGradient>
    <linearGradient gradientTransform="matrix(0.0, 0.0328, -0.1353, 0.0, -56.35, -0.7)" gradientUnits="userSpaceOnUse" id="gradient2" spreadMethod="pad" x1="-819.2" x2="819.2">
      <stop offset="0.0" stop-color="#d9dfff"/>
      <stop offset="1.0" stop-color="#ece9ff"/>
    </linearGradient>
  </defs>
</svg>
