<?xml version="1.0" encoding="UTF-8" standalone="no"?>
<svg xmlns:xlink="http://www.w3.org/1999/xlink" height="71.25px" width="73.15px" xmlns="http://www.w3.org/2000/svg">
  <g transform="matrix(1.0, 0.0, 0.0, 1.0, 36.4, 41.8)">
    <path d="M-9.85 -29.55 L25.5 -29.55 Q36.05 -29.55 36.05 -19.0 L36.05 18.2 Q36.05 28.75 25.5 28.75 L-25.15 28.75 Q-35.7 28.75 -35.7 18.2 L-35.7 -19.0 Q-35.7 -29.55 -25.15 -29.55 L-10.05 -29.55 -9.85 -29.55" fill="#ffffff" fill-opacity="0.11764706" fill-rule="evenodd" stroke="none"/>
    <path d="M-9.85 -29.55 L25.5 -29.55 Q36.05 -29.55 36.05 -19.0 L36.05 18.2 Q36.05 28.75 25.5 28.75 L-25.15 28.75 Q-35.7 28.75 -35.7 18.2 L-35.7 -19.0 Q-35.7 -29.55 -25.15 -29.55 L-10.05 -29.55" fill="none" stroke="#ffffff" stroke-linecap="round" stroke-linejoin="round" stroke-opacity="0.7882353" stroke-width="1.4000000000000001"/>
    <path d="M-11.6 -41.05 L11.85 -41.05 -0.15 -30.4 -11.6 -41.05" fill="#ffffff" fill-opacity="0.5882353" fill-rule="evenodd" stroke="none"/>
    <path d="M-11.6 -41.05 L11.85 -41.05 -0.15 -30.4 -11.6 -41.05 Z" fill="none" stroke="#323f51" stroke-linecap="round" stroke-linejoin="round" stroke-opacity="0.6392157" stroke-width="1.5"/>
  </g>
</svg>
