<?xml version="1.0" encoding="UTF-8" standalone="no"?>
<svg xmlns:xlink="http://www.w3.org/1999/xlink" height="135.15px" width="107.5px" xmlns="http://www.w3.org/2000/svg">
  <g transform="matrix(1.0, 0.0, 0.0, 1.0, 73.05, 129.0)">
    <path d="M34.05 -110.2 L34.3 -109.25 Q34.3 -108.65 33.95 -108.3 33.65 -107.9 33.0 -107.9 32.4 -107.9 32.0 -108.4 L26.1 -116.5 19.85 -108.3 Q19.45 -107.9 18.95 -107.9 18.3 -107.9 18.0 -108.25 17.65 -108.6 17.65 -109.2 17.65 -109.7 17.95 -110.2 L24.25 -118.55 18.3 -126.8 Q18.05 -127.15 18.05 -127.65 18.05 -128.2 18.4 -128.6 18.7 -129.0 19.35 -129.0 20.0 -129.0 20.35 -128.6 L26.15 -120.55 32.2 -128.6 Q32.6 -129.0 33.25 -129.0 L34.1 -128.65 Q34.45 -128.3 34.45 -127.7 L34.15 -126.8 28.0 -118.55 34.05 -110.2" fill="#694959" fill-rule="evenodd" stroke="none"/>
    <path d="M16.15 -64.05 Q15.9 -64.2 15.75 -64.7 L15.75 -64.8 15.75 -65.4 15.75 -65.45 16.05 -66.0 16.1 -66.1 26.6 -75.7 27.65 -76.05 Q28.35 -76.05 28.65 -75.65 L28.7 -75.65 29.05 -74.65 Q29.05 -74.0 28.55 -73.6 L19.2 -65.05 28.6 -55.85 Q29.05 -55.45 29.05 -54.85 29.05 -54.25 28.6 -53.9 28.3 -53.45 27.6 -53.45 27.05 -53.45 26.6 -53.85 L16.15 -64.05 M30.0 -62.95 Q29.15 -63.75 29.15 -64.8 29.15 -65.85 30.0 -66.65 30.7 -67.3 31.8 -67.3 32.85 -67.3 33.6 -66.65 34.35 -65.85 34.35 -64.8 34.35 -63.75 33.6 -62.95 L33.55 -62.95 Q32.85 -62.3 31.8 -62.3 30.7 -62.3 30.0 -62.95" fill="#4a4d58" fill-rule="evenodd" stroke="none"/>
    <path d="M17.25 -24.25 L22.9 -17.55 20.25 -17.55 20.0 -17.4 19.85 -17.05 19.85 -12.0 20.0 -11.7 Q20.05 -11.6 20.25 -11.6 L25.4 -11.6 25.7 -11.7 25.85 -12.0 25.85 -14.6 32.6 -8.95 25.85 -3.5 25.85 -6.05 25.7 -6.3 25.4 -6.45 20.25 -6.45 20.0 -6.3 19.85 -6.05 19.85 -1.0 20.0 -0.75 Q20.05 -0.6 20.25 -0.6 L22.9 -0.6 17.25 6.15 11.75 -0.6 14.25 -0.6 Q14.45 -0.6 14.6 -0.75 L14.7 -1.0 14.7 -6.05 14.6 -6.3 14.25 -6.45 9.3 -6.45 9.0 -6.3 8.9 -6.05 8.9 -3.5 2.15 -8.95 8.9 -14.6 8.9 -12.0 9.0 -11.7 9.3 -11.6 14.25 -11.6 14.6 -11.7 14.7 -12.0 14.7 -17.05 14.6 -17.4 14.25 -17.55 11.75 -17.55 17.25 -24.25 M-63.0 -12.85 L-48.4 -12.85 -48.4 -17.45 -38.35 -8.9 -48.4 -0.7 -48.4 -5.2 -63.0 -5.2 -63.0 -0.7 -73.05 -8.9 -63.0 -17.45 -63.0 -12.85" fill="#252d43" fill-opacity="0.8" fill-rule="evenodd" stroke="none"/>
  </g>
</svg>
