<?xml version="1.0" encoding="UTF-8" standalone="no"?>
<svg xmlns:xlink="http://www.w3.org/1999/xlink" height="173.6px" width="109.15px" xmlns="http://www.w3.org/2000/svg">
  <g transform="matrix(1.0, 0.0, 0.0, 1.0, 106.0, 45.9)">
    <path d="M-77.85 -25.4 Q-79.95 -24.4 -81.75 -24.15 -85.65 -23.9 -87.85 -27.5 -86.95 -33.85 -82.65 -40.9 L-80.85 -43.8 -79.95 -44.9 -80.35 -43.7 Q-83.45 -32.85 -77.85 -25.4" fill="#ffffff" fill-rule="evenodd" stroke="none"/>
    <path d="M-77.85 -25.4 Q-79.95 -24.4 -81.75 -24.15 -85.65 -23.9 -87.85 -27.5 L-89.75 -26.9 -94.5 -11.6 Q-124.25 41.0 -69.6 112.45 L-57.8 126.7 Q-75.0 97.85 -86.2 70.2 L-86.75 68.9 -87.8 66.1 Q-97.2 21.15 -78.2 -4.1 -75.75 -7.35 -75.2 -9.3 -74.25 -11.5 -74.35 -15.55 L-74.2 -17.9 M-77.85 -25.4 Q-83.45 -32.85 -80.35 -43.7 L-79.95 -44.9 -80.85 -43.8 -82.65 -40.9 Q-86.95 -33.85 -87.85 -27.5 M-1.8 -3.15 Q-7.75 3.55 -16.2 8.75 -56.85 5.55 -73.75 -21.05 L-75.0 -23.15 Q-75.75 -24.5 -75.7 -24.85 L-77.85 -25.4 M-75.2 -9.3 L-73.05 -7.45 Q-68.05 -3.45 -62.95 -0.15 -54.5 5.75 -45.7 9.05 -30.65 14.95 -15.0 13.9 L-12.7 13.75 Q-4.0 9.4 2.15 3.9 M-45.7 9.05 Q-36.8 22.45 -28.45 32.35 L-28.45 28.8 -27.6 24.9 -27.3 24.2 Q-26.4 22.05 -25.0 20.25 -23.4 18.5 -21.4 17.1 -18.75 15.15 -15.0 13.9 M-73.05 -7.45 Q-70.9 20.95 -62.35 45.85 L-62.0 46.6 -58.75 55.3 -57.8 52.2 -56.4 47.75 Q-51.6 36.0 -41.55 34.75 L-38.85 34.55 Q-34.2 34.55 -28.5 36.6 -48.7 20.6 -62.95 -0.15 M-28.5 36.6 Q-21.65 41.9 -14.1 46.8 -21.25 40.8 -28.45 32.35 M-78.2 -4.1 Q-78.05 3.95 -77.05 11.7 L-77.1 11.85 -77.05 12.55 -74.35 26.0 Q-70.1 42.25 -60.95 56.35 -57.55 61.7 -53.35 66.65 -56.3 61.1 -58.75 55.3 M-87.8 66.1 L-87.2 63.55 -86.95 63.05 -86.95 62.65 -86.3 61.25 Q-85.65 59.2 -84.35 57.8 L-84.4 57.65 -84.35 57.55 -84.15 57.45 -84.15 57.35 -84.05 57.25 -83.65 56.9 -83.5 56.8 Q-80.3 53.9 -76.2 53.45 L-69.9 53.75 -68.95 53.85 -67.1 54.3 -65.9 54.65 -65.7 54.7 -65.2 54.9 -60.95 56.35" fill="none" stroke="#000000" stroke-linecap="round" stroke-linejoin="round" stroke-width="2.0"/>
  </g>
</svg>
