<?xml version="1.0" encoding="UTF-8" standalone="no"?>
<svg xmlns:xlink="http://www.w3.org/1999/xlink" height="62.25px" width="73.6px" xmlns="http://www.w3.org/2000/svg">
  <g transform="matrix(1.0, 0.0, 0.0, 1.0, 37.0, 31.25)">
    <path d="M-25.25 -29.25 L24.85 -29.25 Q34.6 -29.25 34.6 -19.5 L34.6 19.25 Q34.6 29.0 24.85 29.0 L-25.25 29.0 Q-35.0 29.0 -35.0 19.25 L-35.0 -19.5 Q-35.0 -29.25 -25.25 -29.25 Z" fill="none" stroke="#e7e8ff" stroke-linecap="round" stroke-linejoin="round" stroke-opacity="0.54901963" stroke-width="4.0"/>
    <path d="M-35.0 9.95 L-35.0 -19.5 Q-35.0 -29.25 -25.25 -29.25 L24.85 -29.25 Q34.6 -29.25 34.6 -19.5 L34.6 9.95 -35.0 9.95" fill="url(#gradient0)" fill-rule="evenodd" stroke="none"/>
    <path d="M34.6 9.95 L34.6 19.25 Q34.6 29.0 24.85 29.0 L-25.25 29.0 Q-35.0 29.0 -35.0 19.25 L-35.0 9.95 34.6 9.95" fill="#65658a" fill-rule="evenodd" stroke="none"/>
    <path d="M-35.0 9.95 L-35.0 -19.5 Q-35.0 -29.25 -25.25 -29.25 L24.85 -29.25 Q34.6 -29.25 34.6 -19.5 L34.6 9.95 34.6 19.25 Q34.6 29.0 24.85 29.0 L-25.25 29.0 Q-35.0 29.0 -35.0 19.25 L-35.0 9.95 34.6 9.95" fill="none" stroke="#272d41" stroke-linecap="round" stroke-linejoin="round" stroke-opacity="0.627451" stroke-width="1.0"/>
  </g>
  <defs>
    <linearGradient gradientTransform="matrix(0.0, 0.0334, -0.0425, 0.0, -0.2, -1.2)" gradientUnits="userSpaceOnUse" id="gradient0" spreadMethod="pad" x1="-819.2" x2="819.2">
      <stop offset="0.0" stop-color="#d9dfff"/>
      <stop offset="1.0" stop-color="#ece9ff"/>
    </linearGradient>
  </defs>
</svg>
