<?xml version="1.0" encoding="UTF-8" standalone="no"?>
<svg xmlns:xlink="http://www.w3.org/1999/xlink" height="26.6px" width="719.8px" xmlns="http://www.w3.org/2000/svg">
  <g transform="matrix(1.0, 0.0, 0.0, 1.0, 324.9, 9.1)">
    <path d="M372.95 2.35 Q372.1 3.3 372.1 4.4 372.1 5.85 372.95 6.65 373.95 7.45 375.15 7.45 376.3 7.45 377.25 6.65 378.15 5.85 378.15 4.4 378.15 3.3 377.25 2.35 376.3 1.5 375.15 1.5 373.95 1.5 372.95 2.35 M370.95 0.25 Q372.65 -1.3 375.15 -1.3 377.65 -1.3 379.3 0.25 381.05 2.05 381.05 4.4 381.05 6.95 379.3 8.6 377.65 10.35 375.15 10.35 372.65 10.35 370.95 8.6 369.25 6.95 369.25 4.4 369.25 2.05 370.95 0.25 M390.5 4.4 Q383.95 -1.65 375.15 -2.2 366.35 -1.3 359.95 4.4 366.35 10.55 375.6 11.05 382.9 11.05 390.5 4.4 M355.5 4.4 Q364.3 -4.35 374.75 -5.05 385.55 -5.15 394.9 4.4 386.6 13.4 375.15 14.1 363.2 13.1 355.5 4.4" fill="#3c465d" fill-opacity="0.80784315" fill-rule="evenodd" stroke="none"/>
    <path d="M-301.55 -2.9 Q-300.5 -3.95 -299.0 -3.95 -297.5 -3.95 -296.4 -2.9 -295.35 -1.8 -295.35 -0.3 -295.35 1.2 -296.4 2.3 -297.5 3.4 -299.0 3.4 -300.5 3.4 -301.55 2.3 -302.65 1.2 -302.65 -0.3 -302.65 -1.8 -301.55 -2.9 M-322.75 -6.0 L-322.75 15.1 -291.75 15.1 -291.75 -6.0 -322.75 -6.0 M-324.9 -8.55 L-289.65 -8.55 -289.65 17.5 -324.9 17.5 -324.9 -8.55 M-226.7 -9.1 L-223.2 0.55 -213.1 0.75 -221.2 6.95 -218.1 16.7 -226.7 11.0 -235.0 16.7 -232.05 6.95 -240.15 0.75 -229.95 0.55 -226.7 -9.1 M-321.45 6.4 Q-313.2 2.95 -305.85 5.8 -299.2 8.55 -293.3 6.4 L-293.3 13.95 -321.45 13.95 -321.45 6.4" fill="#606294" fill-rule="evenodd" stroke="none"/>
  </g>
</svg>
