<?xml version="1.0" encoding="UTF-8" standalone="no"?>
<svg xmlns:xlink="http://www.w3.org/1999/xlink" height="20.9px" width="25.4px" xmlns="http://www.w3.org/2000/svg">
  <g transform="matrix(1.0, 0.0, 0.0, 1.0, 77.3, 5.35)">
    <path d="M-62.6 -0.45 Q-63.45 0.45 -64.65 0.45 -65.85 0.45 -66.75 -0.45 L-66.7 -0.45 Q-67.5 -1.25 -67.5 -2.5 -67.5 -3.65 -66.75 -4.5 L-66.7 -4.5 Q-65.85 -5.35 -64.65 -5.35 -63.45 -5.35 -62.6 -4.5 L-62.6 -4.45 Q-61.8 -3.65 -61.8 -2.5 -61.8 -1.25 -62.6 -0.45 M-63.8 15.05 L-64.55 15.55 -64.6 15.55 -65.3 15.55 -65.4 15.55 -66.05 15.15 -66.1 15.1 -76.9 3.35 -76.9 3.3 Q-77.3 2.75 -77.3 2.15 -77.3 1.4 -76.85 1.05 L-76.8 1.0 -75.7 0.6 Q-74.95 0.6 -74.55 1.15 L-64.9 11.65 -54.6 1.1 Q-54.15 0.6 -53.5 0.6 -52.85 0.6 -52.4 1.1 -51.9 1.45 -51.9 2.2 -51.9 2.85 -52.35 3.35 L-63.8 15.05" fill="#606294" fill-rule="evenodd" stroke="none"/>
  </g>
</svg>
