<?xml version="1.0" encoding="UTF-8" standalone="no"?>
<svg xmlns:xlink="http://www.w3.org/1999/xlink" height="50.7px" width="120.3px" xmlns="http://www.w3.org/2000/svg">
  <g transform="matrix(1.0, 0.0, 0.0, 1.0, 69.4, 25.35)">
    <path d="M40.85 -22.9 L-64.9 -22.9 Q-65.75 -22.9 -66.35 -22.25 -66.95 -21.7 -66.95 -20.85 L-66.95 20.85 Q-66.95 21.7 -66.35 22.3 -65.75 22.9 -64.9 22.9 L40.85 22.9 Q48.45 22.9 48.45 15.35 L48.45 -15.35 Q48.45 -22.9 40.85 -22.9 M-68.15 -24.85 L40.85 -24.85 Q50.4 -24.85 50.4 -15.35 L50.4 15.35 Q50.4 24.85 40.85 24.85 L-68.15 24.85 -68.9 24.85 -68.9 -24.8 -68.15 -24.85" fill="#6f76b6" fill-rule="evenodd" stroke="none"/>
    <path d="M40.85 -22.9 Q48.45 -22.9 48.45 -15.35 L48.45 15.35 Q48.45 22.9 40.85 22.9 L-64.9 22.9 Q-65.75 22.9 -66.35 22.3 -66.95 21.7 -66.95 20.85 L-66.95 -20.85 Q-66.95 -21.7 -66.35 -22.25 -65.75 -22.9 -64.9 -22.9 L40.85 -22.9" fill="url(#gradient0)" fill-rule="evenodd" stroke="none"/>
    <path d="M-68.15 -24.85 L40.85 -24.85 Q50.4 -24.85 50.4 -15.35 L50.4 15.35 Q50.4 24.85 40.85 24.85 L-68.15 24.85 -68.9 24.85 -68.9 -24.8 -68.15 -24.85 Z" fill="none" stroke="#311d05" stroke-linecap="round" stroke-linejoin="round" stroke-width="1.0"/>
    <path d="M13.95 10.05 L13.95 -10.15 17.85 -10.15 17.85 10.05 13.95 10.05 M20.8 9.6 L20.8 -9.85 34.45 -0.1 20.8 9.6" fill="#45415b" fill-rule="evenodd" stroke="none"/>
  </g>
  <defs>
    <linearGradient gradientTransform="matrix(0.0, 0.0269, -0.0704, 0.0, -9.25, -0.2)" gradientUnits="userSpaceOnUse" id="gradient0" spreadMethod="pad" x1="-819.2" x2="819.2">
      <stop offset="0.0" stop-color="#c3c5f5"/>
      <stop offset="1.0" stop-color="#bdbfff"/>
    </linearGradient>
  </defs>
</svg>
