<?xml version="1.0" encoding="UTF-8" standalone="no"?>
<svg xmlns:xlink="http://www.w3.org/1999/xlink" height="210.05px" width="856.95px" xmlns="http://www.w3.org/2000/svg">
  <g transform="matrix(1.0, 0.0, 0.0, 1.0, 1094.7, -68.25)">
    <path d="M-1082.85 68.75 L-249.6 68.75 Q-238.25 68.75 -238.25 80.1 L-238.25 266.45 Q-238.25 277.8 -249.6 277.8 L-1082.85 277.8 Q-1094.2 277.8 -1094.2 266.45 L-1094.2 80.1 Q-1094.2 68.75 -1082.85 68.75" fill="#302c4d" fill-opacity="0.85882354" fill-rule="evenodd" stroke="none"/>
    <path d="M-1082.85 68.75 L-249.6 68.75 Q-238.25 68.75 -238.25 80.1 L-238.25 266.45 Q-238.25 277.8 -249.6 277.8 L-1082.85 277.8 Q-1094.2 277.8 -1094.2 266.45 L-1094.2 80.1 Q-1094.2 68.75 -1082.85 68.75 Z" fill="none" stroke="#bfefff" stroke-linecap="round" stroke-linejoin="round" stroke-opacity="0.7294118" stroke-width="1.0"/>
    <path d="M-693.7 221.3 L-627.1 221.3 Q-620.6 221.3 -620.6 227.8 L-620.6 257.9 Q-620.6 264.4 -627.1 264.4 L-693.7 264.4 Q-700.2 264.4 -700.2 257.9 L-700.2 227.8 Q-700.2 221.3 -693.7 221.3 M-400.3 224.55 L-343.4 224.55 Q-336.9 224.55 -336.9 231.05 L-336.9 263.35 Q-336.9 269.85 -343.4 269.85 L-400.3 269.85 Q-406.8 269.85 -406.8 263.35 L-406.8 231.05 Q-406.8 224.55 -400.3 224.55" fill="#1a142a" fill-opacity="0.627451" fill-rule="evenodd" stroke="none"/>
  </g>
</svg>
