<?xml version="1.0" encoding="UTF-8" standalone="no"?>
<svg xmlns:xlink="http://www.w3.org/1999/xlink" height="49.9px" width="87.9px" xmlns="http://www.w3.org/2000/svg">
  <g transform="matrix(1.0, 0.0, 0.0, 1.0, 2.4, 31.65)">
    <path d="M85.0 17.75 L6.4 17.75 Q-1.3 16.4 -1.9 9.25 L-1.9 -10.1 14.6 -31.15 76.9 -31.15 Q85.25 -31.25 85.0 -22.0 L85.0 17.75" fill="url(#gradient0)" fill-rule="evenodd" stroke="none"/>
    <path d="M85.0 17.75 L6.4 17.75 Q-1.3 16.4 -1.9 9.25 L-1.9 -10.1 14.6 -31.15 76.9 -31.15 Q85.25 -31.25 85.0 -22.0 L85.0 17.75 Z" fill="none" stroke="#000000" stroke-linecap="round" stroke-linejoin="round" stroke-opacity="0.60784316" stroke-width="1.0"/>
    <path d="M17.95 -11.15 L26.0 -11.15 26.0 -15.35 36.3 -6.55 26.0 1.7 26.0 -2.2 17.95 -2.2 17.95 1.7 7.7 -6.55 17.95 -15.35 17.95 -11.15" fill="#353746" fill-rule="evenodd" stroke="none"/>
  </g>
  <defs>
    <linearGradient gradientTransform="matrix(0.0, 0.0263, -0.053, 0.0, 41.55, -6.9)" gradientUnits="userSpaceOnUse" id="gradient0" spreadMethod="pad" x1="-819.2" x2="819.2">
      <stop offset="0.0" stop-color="#c3c5f5"/>
      <stop offset="1.0" stop-color="#bdbfff"/>
    </linearGradient>
  </defs>
</svg>
