<?xml version="1.0" encoding="UTF-8" standalone="no"?>
<svg xmlns:xlink="http://www.w3.org/1999/xlink" height="158.05px" width="125.0px" xmlns="http://www.w3.org/2000/svg">
  <g transform="matrix(1.0, 0.0, 0.0, 1.0, 124.25, 88.2)">
    <path d="M0.0 3.9 Q-1.1 0.2 -2.5 -3.15 -10.45 -21.65 -29.25 -31.0 -47.05 -39.2 -63.15 -43.75 -79.3 -48.3 -95.1 -58.2 -111.0 -68.1 -122.3 -87.45 -128.15 -49.35 -105.3 -21.95 -82.45 5.35 -47.3 5.35 -32.4 1.55 -16.3 2.2 L-14.45 2.25 -14.35 2.25 -14.05 2.3 -13.5 2.35 -13.15 2.35 0.0 3.9 -0.45 8.1 Q0.8 34.55 -38.05 53.95 -80.0 74.85 -117.2 66.95 -109.15 64.15 -89.75 39.45 -74.55 17.85 -59.6 9.85 -54.45 7.1 -47.3 5.35" fill="none" stroke="#000000" stroke-linecap="round" stroke-linejoin="round" stroke-opacity="0.5568628" stroke-width="1.5"/>
  </g>
</svg>
