<?xml version="1.0" encoding="UTF-8" standalone="no"?>
<svg xmlns:xlink="http://www.w3.org/1999/xlink" height="147.3px" width="108.85px" xmlns="http://www.w3.org/2000/svg">
  <g transform="matrix(1.0, 0.0, 0.0, 1.0, 112.45, 52.45)">
    <path d="M-63.4 -51.4 L-63.35 -51.45 -63.4 -51.2 -63.4 -51.4" fill="#1c663b" fill-rule="evenodd" stroke="none"/>
    <path d="M-65.2 -25.8 Q-52.55 -14.75 -40.65 -10.7 -25.45 -5.45 -8.3 -7.85 -4.4 -8.7 -4.6 -3.95 -4.25 0.95 -9.0 11.95 -13.75 23.0 -25.2 27.55 L-24.15 17.95 Q-30.15 28.45 -40.4 35.55 L-39.0 28.25 Q-43.25 32.9 -48.55 35.55 L-48.55 29.85 -57.05 40.7 Q-61.55 30.15 -65.1 -21.2 L-65.2 -25.8 M-55.9 8.9 L-56.8 12.75 -59.25 6.25 -56.8 12.75 -55.9 8.9 M-47.0 9.6 L-49.1 12.75 -49.8 6.95 -49.1 12.75 -47.0 9.6 M-41.25 19.5 L-42.85 22.85 -44.6 17.95 -42.85 22.85 -41.25 19.5 M-50.65 16.25 L-52.6 19.15 -53.65 13.8 -52.6 19.15 -50.65 16.25 M-54.15 1.0 L-55.9 3.3 -57.5 -1.9 -55.9 3.3 -54.15 1.0 M-43.0 3.3 L-44.7 5.05 -46.35 2.05 -44.7 5.05 -43.0 3.3 M-29.25 12.05 L-31.3 14.65 -32.0 8.55 -31.3 14.65 -29.25 12.05 M-38.3 13.1 L-39.85 15.3 -41.1 8.7 -39.85 15.3 -38.3 13.1 M-32.85 19.15 L-34.6 21.1 -36.2 17.3 -34.6 21.1 -32.85 19.15 M-31.8 3.8 L-34.25 6.1 -36.0 1.6 -34.25 6.1 -31.8 3.8 M-21.2 9.95 L-22.4 11.35 -23.3 7.85 -22.4 11.35 -21.2 9.95 M-23.1 2.05 L-25.9 4.85 -27.3 0.3 -25.9 4.85 -23.1 2.05 M-14.7 8.7 L-16.3 11.5 -18.2 7.5 -16.3 11.5 -14.7 8.7 M-15.75 1.95 L-17.7 3.45 -18.9 -0.75 -17.7 3.45 -15.75 1.95" fill="#000000" fill-opacity="0.24705882" fill-rule="evenodd" stroke="none"/>
    <path d="M-88.2 -16.45 L-94.5 -5.4 -85.35 -10.25 M-63.4 -51.4 L-63.35 -51.45 M-63.4 -51.2 Q-65.5 -40.95 -65.2 -25.8 -52.55 -14.75 -40.65 -10.7 -25.45 -5.45 -8.3 -7.85 -4.4 -8.7 -4.6 -3.95 -4.25 0.95 -9.0 11.95 -13.75 23.0 -25.2 27.55 L-24.15 17.95 Q-30.15 28.45 -40.4 35.55 L-39.0 28.25 Q-43.25 32.9 -48.55 35.55 L-48.55 29.85 -57.05 40.7 Q-47.15 63.75 -29.15 80.35 M-63.4 -51.4 L-63.4 -51.2 M-65.2 -25.8 L-65.1 -21.2 Q-61.55 30.15 -57.05 40.7 M-74.05 -28.3 L-80.5 -17.6 -71.25 -22.05 M-28.65 80.8 L-23.1 85.6 Q-37.9 83.85 -53.1 68.35 L-47.15 93.85 Q-63.35 80.0 -70.2 64.5 L-67.4 87.9 Q-82.4 73.85 -87.85 48.7 L-92.75 73.95 Q-106.3 52.3 -106.15 29.5 L-111.35 41.85 Q-111.9 25.7 -109.35 12.45 -105.85 -5.35 -96.7 -18.05 -81.95 -40.0 -63.4 -51.4 M-18.9 -0.75 L-17.7 3.45 -15.75 1.95 M-18.2 7.5 L-16.3 11.5 -14.7 8.7 M-27.3 0.3 L-25.9 4.85 -23.1 2.05 M-23.3 7.85 L-22.4 11.35 -21.2 9.95 M-36.0 1.6 L-34.25 6.1 -31.8 3.8 M-36.2 17.3 L-34.6 21.1 -32.85 19.15 M-41.1 8.7 L-39.85 15.3 -38.3 13.1 M-32.0 8.55 L-31.3 14.65 -29.25 12.05 M-46.35 2.05 L-44.7 5.05 -43.0 3.3 M-57.5 -1.9 L-55.9 3.3 -54.15 1.0 M-53.65 13.8 L-52.6 19.15 -50.65 16.25 M-44.6 17.95 L-42.85 22.85 -41.25 19.5 M-49.8 6.95 L-49.1 12.75 -47.0 9.6 M-59.25 6.25 L-56.8 12.75 -55.9 8.9 M-67.25 38.35 L-63.05 47.05 -63.05 42.55 M-82.05 28.6 L-79.45 38.7 -78.75 32.3 M-74.95 19.7 L-71.45 28.45 -70.9 23.7 M-91.8 10.8 L-91.8 22.65 -88.7 14.85 M-102.05 1.0 L-105.2 10.45 -97.3 4.35 M-78.55 -4.7 L-80.65 4.0 -75.65 -0.55" fill="none" stroke="#000000" stroke-linecap="round" stroke-linejoin="round" stroke-width="2.0"/>
  </g>
</svg>
