<?xml version="1.0" encoding="UTF-8" standalone="no"?>
<svg xmlns:xlink="http://www.w3.org/1999/xlink" height="117.75px" width="155.05px" xmlns="http://www.w3.org/2000/svg">
  <g transform="matrix(1.0, 0.0, 0.0, 1.0, 150.8, 67.6)">
    <path d="M-96.6 -11.25 Q-95.9 -13.3 -95.65 -15.2 -95.3 -19.6 -98.8 -18.75 L-100.45 -18.45 -100.8 -18.35 -100.85 -18.3 Q-103.15 -17.3 -105.9 -15.15 L-116.95 -4.2 -116.35 -7.2 Q-115.15 -13.7 -112.75 -19.25 -108.4 -30.65 -102.4 -34.6 L-102.1 -34.8 -100.85 -35.9 -100.75 -35.95 Q-99.85 -37.15 -100.0 -38.2 -100.45 -43.05 -106.95 -46.35 -119.9 -52.9 -149.9 -45.05 L-146.45 -47.6 Q-142.0 -50.65 -137.05 -53.45 -121.35 -62.5 -107.15 -65.4 L-103.65 -65.9 -94.9 -66.65 Q-80.65 -67.15 -71.1 -63.25 -63.1 -60.05 -54.1 -50.4 L-46.3 -41.55 Q-42.75 -36.7 -43.1 -30.15 -44.15 -33.9 -46.55 -36.1 L-48.95 -36.35 Q-51.75 -36.25 -52.6 -33.6 L-54.15 -28.25 Q-55.0 -24.55 -54.6 -21.05 -53.35 -11.2 -42.25 0.05 -31.5 11.0 -23.15 4.4 -18.95 1.05 -16.3 -3.6 -6.15 -10.15 3.0 -7.1 L3.35 1.95 Q2.1 1.8 0.15 2.0 -7.95 2.85 -12.7 7.5 -17.5 12.15 -20.9 16.3 L-23.05 19.3 Q-27.7 25.1 -24.25 37.75 -22.5 44.15 -19.8 49.25 -22.55 49.2 -33.4 40.15 L-43.65 31.2 Q-47.35 31.0 -51.5 35.25 -55.3 39.1 -57.9 44.4 -56.65 40.8 -55.65 37.0 -54.6 31.55 -54.5 24.8 L-54.85 15.3 -54.9 15.25 -55.15 14.9 -56.0 13.95 -56.2 13.75 Q-64.6 10.8 -73.95 21.25 -78.6 26.55 -81.6 32.3 L-80.45 26.8 -80.35 26.0 -80.15 24.75 -80.0 23.85 -80.05 23.75 Q-78.1 15.15 -80.3 6.3 -81.1 3.2 -82.3 0.4 L-83.2 -1.35 Q-86.05 -2.85 -90.15 -1.85 L-91.25 -1.55 -91.95 -1.25 Q-96.3 0.55 -100.65 4.8 L-102.2 6.6 -108.4 14.25 M-109.4 15.5 L-108.85 14.55 -107.2 11.55 -104.55 6.75 -100.4 -1.6 -98.2 -6.6 Q-77.85 -34.35 -55.3 -40.4 M-100.75 -35.95 Q-78.4 -48.25 -54.05 -44.7 M-53.7 1.1 Q-55.2 4.65 -54.9 15.25 M-43.65 31.2 Q-40.65 15.6 -29.05 12.0 M-80.35 26.0 Q-72.4 -8.35 -58.15 -27.0" fill="none" stroke="#000000" stroke-linecap="round" stroke-linejoin="round" stroke-width="1.8"/>
  </g>
</svg>
