<?xml version="1.0" encoding="UTF-8" standalone="no"?>
<svg xmlns:xlink="http://www.w3.org/1999/xlink" height="50.25px" width="156.85px" xmlns="http://www.w3.org/2000/svg">
  <g transform="matrix(1.0, 0.0, 0.0, 1.0, 77.95, 18.7)">
    <path d="M24.65 -18.2 L78.4 -18.2 78.4 31.05 24.65 31.05 24.65 -18.2 M-26.95 31.05 L-77.45 31.05 -77.45 -18.2 -26.95 -18.2 -26.95 31.05" fill="url(#gradient0)" fill-rule="evenodd" stroke="none"/>
    <path d="M24.65 31.05 L-26.95 31.05 -26.95 -18.2 24.65 -18.2 24.65 31.05" fill="#292435" fill-rule="evenodd" stroke="none"/>
    <path d="M24.65 -18.2 L78.4 -18.2 78.4 31.05 24.65 31.05 -26.95 31.05 -77.45 31.05 -77.45 -18.2 -26.95 -18.2 24.65 -18.2 24.65 31.05 M-26.95 -18.2 L-26.95 31.05" fill="none" stroke="#000000" stroke-linecap="round" stroke-linejoin="round" stroke-opacity="0.60784316" stroke-width="1.0"/>
  </g>
  <defs>
    <linearGradient gradientTransform="matrix(0.0, 0.0271, -0.0951, 0.0, 0.5, 6.25)" gradientUnits="userSpaceOnUse" id="gradient0" spreadMethod="pad" x1="-819.2" x2="819.2">
      <stop offset="0.0" stop-color="#c3c5f5"/>
      <stop offset="1.0" stop-color="#bdbfff"/>
    </linearGradient>
  </defs>
</svg>
