<?xml version="1.0" encoding="UTF-8" standalone="no"?>
<svg xmlns:xlink="http://www.w3.org/1999/xlink" height="94.75px" width="68.45px" xmlns="http://www.w3.org/2000/svg">
  <g transform="matrix(1.0, 0.0, 0.0, 1.0, 68.9, 35.55)">
    <path d="M-53.55 -33.9 Q-61.4 -35.7 -66.2 -32.35 -73.6 -26.05 -48.65 14.25 -42.7 12.2 -36.9 10.8 -60.2 -20.85 -53.55 -33.9 -35.6 -29.7 -1.45 1.5 L-2.65 8.35 Q-14.75 24.45 -21.95 43.65 L-22.45 44.85 Q-23.5 50.1 -28.6 50.6 -32.55 51.85 -33.7 56.3 -43.75 47.5 -57.0 58.2 -52.25 47.65 -53.5 38.85 -56.2 25.6 -48.65 14.25 M-21.95 43.65 Q-43.05 34.95 -36.9 10.8 -18.9 6.25 -2.65 8.35" fill="none" stroke="#000000" stroke-linecap="round" stroke-linejoin="round" stroke-width="2.0"/>
  </g>
</svg>
