<?xml version="1.0" encoding="UTF-8" standalone="no"?>
<svg xmlns:xlink="http://www.w3.org/1999/xlink" height="73.15px" width="79.4px" xmlns="http://www.w3.org/2000/svg">
  <g transform="matrix(1.0, 0.0, 0.0, 1.0, 39.7, 36.6)">
    <path d="M-36.6 -33.8 L-36.6 33.65 36.6 33.65 36.6 -33.8 -36.6 -33.8 M-39.2 -36.1 L39.2 -36.1 39.2 36.05 -39.2 36.05 -39.2 -36.1" fill="#191820" fill-rule="evenodd" stroke="none"/>
    <path d="M-36.6 -33.8 L36.6 -33.8 36.6 33.65 -36.6 33.65 -36.6 -33.8" fill="#2c2a38" fill-opacity="0.7882353" fill-rule="evenodd" stroke="none"/>
    <path d="M-39.2 -36.1 L39.2 -36.1 39.2 36.05 -39.2 36.05 -39.2 -36.1" fill="none" stroke="#000000" stroke-linecap="round" stroke-linejoin="round" stroke-width="1.0"/>
    <path d="M-36.6 -33.8 L36.6 -33.8 36.6 33.65 -36.6 33.65 -36.6 -33.8" fill="none" stroke="#000000" stroke-linecap="round" stroke-linejoin="round" stroke-opacity="0.5882353" stroke-width="1.0"/>
    <path d="M8.05 -6.85 Q10.5 -6.85 10.5 -4.45 L10.5 11.35 Q10.5 13.8 8.05 13.8 L-8.55 13.8 Q-11.05 13.8 -11.05 11.35 L-11.05 -4.45 Q-11.05 -6.8 -8.65 -6.85 L-8.65 -14.15 Q-8.65 -16.55 -6.25 -16.55 L5.5 -16.55 Q7.95 -16.55 7.95 -14.15 L7.95 -6.85 8.05 -6.85 M3.45 1.6 Q3.45 0.2 2.35 -0.9 1.35 -2.0 -0.1 -2.0 -1.6 -2.0 -2.65 -0.9 -3.7 0.2 -3.7 1.6 -3.7 3.05 -2.65 4.15 L-1.75 4.85 -1.75 7.05 Q-1.75 7.7 -1.3 8.05 -0.8 8.55 -0.2 8.55 0.45 8.55 0.8 8.05 1.35 7.7 1.35 7.05 L1.35 4.85 2.35 4.15 Q3.45 3.05 3.45 1.6 M-3.85 -13.15 Q-5.2 -13.15 -5.2 -11.7 L-5.2 -6.85 4.4 -6.85 4.4 -11.7 Q4.4 -13.15 3.0 -13.15 L-3.85 -13.15" fill="#000000" fill-opacity="0.9490196" fill-rule="evenodd" stroke="none"/>
  </g>
</svg>
