<?xml version="1.0" encoding="UTF-8" standalone="no"?>
<svg xmlns:xlink="http://www.w3.org/1999/xlink" height="210.55px" width="209.6px" xmlns="http://www.w3.org/2000/svg">
  <g transform="matrix(1.0, 0.0, 0.0, 1.0, 104.95, 105.75)">
    <path d="M-88.9 -105.0 L88.6 -105.0 Q103.9 -105.0 103.9 -89.7 L103.9 88.75 Q103.9 104.05 88.6 104.05 L-88.9 104.05 Q-104.2 104.05 -104.2 88.75 L-104.2 -89.7 Q-104.2 -105.0 -88.9 -105.0" fill="url(#gradient0)" fill-rule="evenodd" stroke="none"/>
    <path d="M-88.9 -105.0 L88.6 -105.0 Q103.9 -105.0 103.9 -89.7 L103.9 88.75 Q103.9 104.05 88.6 104.05 L-88.9 104.05 Q-104.2 104.05 -104.2 88.75 L-104.2 -89.7 Q-104.2 -105.0 -88.9 -105.0 Z" fill="none" stroke="#000000" stroke-linecap="round" stroke-linejoin="round" stroke-width="1.5"/>
    <path d="M43.8 35.0 L88.8 35.0 Q100.1 35.0 100.1 46.3 L100.1 88.0 Q100.1 99.3 88.8 99.3 L43.8 99.3 Q32.5 99.3 32.5 88.0 L32.5 46.3 Q32.5 35.0 43.8 35.0 M-88.55 35.0 L-43.55 35.0 Q-32.25 35.0 -32.25 46.3 L-32.25 88.0 Q-32.25 99.3 -43.55 99.3 L-88.55 99.3 Q-99.85 99.3 -99.85 88.0 L-99.85 46.3 Q-99.85 35.0 -88.55 35.0" fill="#bec6e9" fill-opacity="0.9098039" fill-rule="evenodd" stroke="none"/>
  </g>
  <defs>
    <linearGradient gradientTransform="matrix(0.0, -0.122, 0.127, 0.0, -0.15, -1.05)" gradientUnits="userSpaceOnUse" id="gradient0" spreadMethod="pad" x1="-819.2" x2="819.2">
      <stop offset="0.0" stop-color="#7683a1"/>
      <stop offset="0.9882352941176471" stop-color="#636f9f"/>
    </linearGradient>
  </defs>
</svg>
