<?xml version="1.0" encoding="UTF-8" standalone="no"?>
<svg xmlns:xlink="http://www.w3.org/1999/xlink" height="586.35px" width="998.45px" xmlns="http://www.w3.org/2000/svg">
  <g transform="matrix(1.0, 0.0, 0.0, 1.0, 498.4, 77.3)">
    <path d="M-498.4 -66.3 L500.05 -66.3 500.05 509.05 -498.4 509.05 -498.4 -66.3" fill="#000000" fill-opacity="0.5882353" fill-rule="evenodd" stroke="none"/>
    <path d="M500.05 90.8 L-498.4 90.8 -498.4 -77.3 499.15 -77.3 500.05 90.8" fill="#000000" fill-opacity="0.4862745" fill-rule="evenodd" stroke="none"/>
    <path d="M-270.9 -0.15 L244.45 -0.15 Q251.45 -0.15 251.45 7.95 L251.45 76.85 Q251.45 84.95 244.45 84.95 L-270.9 84.95 Q-277.9 84.95 -277.9 76.85 L-277.9 7.95 Q-277.9 -0.15 -270.9 -0.15" fill="#f5f5f5" fill-rule="evenodd" stroke="none"/>
    <path d="M-270.9 -0.15 L244.45 -0.15 Q251.45 -0.15 251.45 7.95 L251.45 76.85 Q251.45 84.95 244.45 84.95 L-270.9 84.95 Q-277.9 84.95 -277.9 76.85 L-277.9 7.95 Q-277.9 -0.15 -270.9 -0.15 Z" fill="none" stroke="#000000" stroke-linecap="round" stroke-linejoin="round" stroke-width="1.5"/>
    <path d="M340.55 11.8 L413.55 11.8 Q418.8 11.8 418.8 17.2 L418.8 70.05 Q418.8 75.45 413.55 75.45 L340.55 75.45 Q337.35 75.45 336.1 73.45 335.3 72.15 335.3 70.05 L335.3 17.2 Q335.3 15.05 336.1 13.85 337.35 11.8 340.55 11.8 M338.3 16.3 L338.3 69.15 Q338.3 71.45 340.55 71.45 L413.55 71.45 Q415.8 71.45 415.8 69.15 L415.8 16.3 Q415.8 13.95 413.55 13.95 L340.55 13.95 Q338.3 13.95 338.3 16.3" fill="#2c4d33" fill-rule="evenodd" stroke="none"/>
    <path d="M338.3 16.3 Q338.3 13.95 340.55 13.95 L413.55 13.95 Q415.8 13.95 415.8 16.3 L415.8 69.15 Q415.8 71.45 413.55 71.45 L340.55 71.45 Q338.3 71.45 338.3 69.15 L338.3 16.3" fill="#467951" fill-rule="evenodd" stroke="none"/>
    <path d="M340.55 11.8 L413.55 11.8 Q418.8 11.8 418.8 17.2 L418.8 70.05 Q418.8 75.45 413.55 75.45 L340.55 75.45 Q337.35 75.45 336.1 73.45 335.3 72.15 335.3 70.05 L335.3 17.2 Q335.3 15.05 336.1 13.85 337.35 11.8 340.55 11.8" fill="none" stroke="#000000" stroke-linecap="round" stroke-linejoin="round" stroke-width="1.0"/>
    <path d="M-344.7 84.1 L-344.7 41.85 -344.7 -2.4 M-344.7 41.85 L-288.25 41.85" fill="none" stroke="#a9b3cb" stroke-linecap="round" stroke-linejoin="round" stroke-opacity="0.3764706" stroke-width="1.0"/>
  </g>
</svg>
