<?xml version="1.0" encoding="UTF-8" standalone="no"?>
<svg xmlns:xlink="http://www.w3.org/1999/xlink" height="53.2px" width="82.2px" xmlns="http://www.w3.org/2000/svg">
  <g transform="matrix(1.0, 0.0, 0.0, 1.0, 41.1, 26.6)">
    <path d="M-33.15 -26.1 L33.15 -26.1 Q40.6 -26.1 40.6 -18.65 L40.6 9.65 Q40.6 17.1 33.15 17.1 L5.7 17.1 -0.45 26.1 -6.4 17.1 -33.15 17.1 Q-40.6 17.1 -40.6 9.65 L-40.6 -18.65 Q-40.6 -26.1 -33.15 -26.1" fill="#0e0e0e" fill-rule="evenodd" stroke="none"/>
    <path d="M-33.15 -26.1 L33.15 -26.1 Q40.6 -26.1 40.6 -18.65 L40.6 9.65 Q40.6 17.1 33.15 17.1 L5.7 17.1 -0.45 26.1 -6.4 17.1 -33.15 17.1 Q-40.6 17.1 -40.6 9.65 L-40.6 -18.65 Q-40.6 -26.1 -33.15 -26.1 Z" fill="none" stroke="#000000" stroke-linecap="round" stroke-linejoin="round" stroke-width="1.0"/>
  </g>
</svg>
