<?xml version="1.0" encoding="UTF-8" standalone="no"?>
<svg xmlns:xlink="http://www.w3.org/1999/xlink" height="58.85px" width="83.6px" xmlns="http://www.w3.org/2000/svg">
  <g transform="matrix(1.0, 0.0, 0.0, 1.0, 41.8, 29.4)">
    <path d="M41.3 -4.6 Q41.3 5.45 29.2 12.55 17.1 19.7 0.0 19.7 -17.1 19.7 -29.2 12.55 -41.3 5.45 -41.3 -4.6 -41.3 -14.65 -29.2 -21.8 -17.1 -28.9 0.0 -28.9 17.1 -28.9 29.2 -21.8 41.3 -14.65 41.3 -4.6 M2.5 26.45 Q2.5 27.5 1.75 28.2 1.05 28.95 0.0 28.95 -1.05 28.95 -1.8 28.2 -2.5 27.5 -2.5 26.45 -2.5 25.4 -1.8 24.65 -1.05 23.95 0.0 23.95 1.05 23.95 1.75 24.65 2.5 25.4 2.5 26.45 M-3.55 23.6 Q-3.55 24.95 -4.55 25.9 -5.5 26.9 -6.85 26.9 -8.2 26.9 -9.2 25.9 -10.15 24.95 -10.15 23.6 -10.15 22.25 -9.2 21.25 -8.2 20.3 -6.85 20.3 -5.5 20.3 -4.55 21.25 -3.55 22.25 -3.55 23.6" fill="#482510" fill-rule="evenodd" stroke="none"/>
    <path d="M41.3 -4.6 Q41.3 5.45 29.2 12.55 17.1 19.7 0.0 19.7 -17.1 19.7 -29.2 12.55 -41.3 5.45 -41.3 -4.6 -41.3 -14.65 -29.2 -21.8 -17.1 -28.9 0.0 -28.9 17.1 -28.9 29.2 -21.8 41.3 -14.65 41.3 -4.6 M2.5 26.45 Q2.5 27.5 1.75 28.2 1.05 28.95 0.0 28.95 -1.05 28.95 -1.8 28.2 -2.5 27.5 -2.5 26.45 -2.5 25.4 -1.8 24.65 -1.05 23.95 0.0 23.95 1.05 23.95 1.75 24.65 2.5 25.4 2.5 26.45 M-3.55 23.6 Q-3.55 24.95 -4.55 25.9 -5.5 26.9 -6.85 26.9 -8.2 26.9 -9.2 25.9 -10.15 24.95 -10.15 23.6 -10.15 22.25 -9.2 21.25 -8.2 20.3 -6.85 20.3 -5.5 20.3 -4.55 21.25 -3.55 22.25 -3.55 23.6" fill="none" stroke="#000000" stroke-linecap="round" stroke-linejoin="round" stroke-width="1.0"/>
  </g>
</svg>
