<?xml version="1.0" encoding="UTF-8" standalone="no"?>
<svg xmlns:xlink="http://www.w3.org/1999/xlink" height="106.55px" width="87.05px" xmlns="http://www.w3.org/2000/svg">
  <g transform="matrix(1.0, 0.0, 0.0, 1.0, 106.7, 43.8)">
    <path d="M-32.95 -5.7 L-24.1 -0.25 -26.0 4.2 -35.75 -0.7 -32.95 -5.7 M-37.75 20.45 L-37.45 14.8 -27.1 15.7 -26.95 20.55 -37.75 20.45 M-30.35 35.8 L-38.95 40.6 -41.4 36.0 -32.75 32.0 -30.35 35.8" fill="#343434" fill-rule="evenodd" stroke="none"/>
    <path d="M-37.55 -5.7 L-55.7 -18.35 -55.75 -18.35 -90.8 -42.95 M-24.1 -0.25 L-20.9 -0.25 -20.15 5.3 -24.6 6.7 -26.0 4.2 M-27.1 15.7 L-24.25 14.35 -21.1 19.0 -24.5 22.15 -26.95 20.55 M-32.75 32.0 L-31.1 29.55 Q-28.8 30.7 -26.55 31.8 L-27.7 35.95 -29.4 35.85 -30.35 35.8 M-105.85 7.0 L-63.45 13.5 -63.45 13.45 -41.6 16.8 M-43.8 39.45 L-62.6 46.85 -62.6 46.9 -67.7 48.8 -67.75 48.85 -99.2 61.05" fill="none" stroke="#000000" stroke-linecap="round" stroke-linejoin="round" stroke-width="1.0"/>
    <path d="M-90.8 -42.95 L-80.5 -25.9 -39.9 -1.25 -38.7 -3.45 -37.55 -5.7 -36.4 -7.9 -35.25 -10.2 -71.8 -40.45 -90.8 -42.95 M-35.25 -10.2 L-34.25 -12.35 -30.15 -10.6 -32.95 -5.7 -24.1 -0.25 -26.0 4.2 -35.75 -0.7 -38.85 4.95 -41.9 2.75 -39.9 -1.25 M-32.95 -5.7 L-35.75 -0.7 M-37.75 20.45 L-37.45 14.8 -37.1 9.15 -41.6 9.4 -41.6 11.75 -41.6 16.8 -41.65 21.85 -41.7 26.3 -38.0 26.9 -37.75 20.45 -26.95 20.55 -27.1 15.7 -37.45 14.8 M-30.35 35.8 L-38.95 40.6 -36.35 45.85 -39.5 47.05 -41.5 43.45 -80.95 61.9 -99.2 61.05 -87.7 47.8 -74.6 43.9 -59.95 39.65 -46.0 35.45 -47.1 33.6 -43.65 31.35 -41.4 36.0 -32.75 32.0 -30.35 35.8 M-46.0 35.45 L-44.3 38.5 -43.8 39.45 -41.5 43.45 M-41.4 36.0 L-38.95 40.6 M-41.65 21.85 L-89.0 17.7 -105.85 7.0 -87.7 0.75 -41.6 11.75" fill="none" stroke="#000000" stroke-linecap="round" stroke-linejoin="round" stroke-width="1.7000000000000002"/>
  </g>
</svg>
