<?xml version="1.0" encoding="UTF-8" standalone="no"?>
<svg xmlns:xlink="http://www.w3.org/1999/xlink" height="62.95px" width="104.85px" xmlns="http://www.w3.org/2000/svg">
  <g transform="matrix(1.0, 0.0, 0.0, 1.0, 26.8, 86.25)">
    <path d="M43.9 -60.75 L44.45 -61.15 46.3 -62.5 Q50.6 -65.35 53.55 -64.85 M21.55 -58.7 Q13.1 -62.8 8.3 -62.15" fill="none" stroke="#000000" stroke-linecap="round" stroke-linejoin="round" stroke-width="1.4000000000000001"/>
    <path d="M43.9 -60.75 L44.25 -59.3 Q45.25 -56.05 44.75 -53.35 56.7 -39.85 74.3 -42.75 80.45 -53.25 72.8 -64.65 75.95 -79.15 67.0 -85.25 52.85 -82.95 40.15 -70.0 L38.45 -68.25 39.3 -67.8 Q42.15 -66.0 43.7 -61.5 L43.9 -60.75 M38.45 -68.25 L37.15 -68.7 Q35.3 -69.2 30.7 -68.8 L26.05 -68.25 Q22.05 -68.55 17.55 -66.55 16.55 -66.4 18.95 -64.2 L19.15 -64.0 Q20.95 -62.35 21.55 -58.7 L21.85 -55.2 21.85 -54.3 Q21.85 -49.35 21.1 -47.8 L20.9 -47.45 M44.75 -53.35 Q43.7 -49.1 35.3 -47.35 21.85 -44.7 20.15 -47.0 1.15 -24.55 -16.05 -24.3 -20.85 -30.35 -20.55 -39.1 -20.4 -43.75 -18.8 -49.15 L-19.8 -50.45 Q-23.45 -55.5 -24.85 -60.3 -26.45 -65.55 -25.35 -70.5 L-24.9 -72.3 Q-22.95 -73.1 -20.45 -73.5 L-2.85 -72.9 Q12.05 -70.55 17.55 -66.55" fill="none" stroke="#000000" stroke-linecap="round" stroke-linejoin="round" stroke-width="2.0"/>
  </g>
</svg>
