<?xml version="1.0" encoding="UTF-8" standalone="no"?>
<svg xmlns:xlink="http://www.w3.org/1999/xlink" height="57.2px" width="91.65px" xmlns="http://www.w3.org/2000/svg">
  <g transform="matrix(1.0, 0.0, 0.0, 1.0, 45.85, 28.6)">
    <path d="M-6.95 19.1 L-14.8 23.3 -17.75 18.95 -23.85 23.3 -29.45 18.6 -33.65 23.45 -37.55 16.3 -42.55 17.85 -39.9 10.05 -45.35 5.85 -39.9 0.25 -44.4 -5.85 -39.75 -11.3 -44.85 -17.05 -38.5 -20.35 -38.8 -26.4 -29.6 -23.15 -26.0 -28.1 -18.4 -23.45 -11.25 -27.8 -5.75 -22.5 0.3 -27.8 5.9 -22.5 11.85 -26.7 17.45 -21.9 23.5 -27.35 28.5 -22.05 35.2 -27.65 36.9 -20.5 43.0 -17.85 38.6 -12.05 43.3 -5.55 39.25 0.25 45.3 8.5 39.55 11.9 42.65 17.05 36.15 18.15 36.3 23.15 26.3 18.95 23.5 23.9 16.35 18.45 10.6 23.3 5.15 19.1 -1.0 28.1 -6.95 19.1" fill="#8b72de" fill-rule="evenodd" stroke="none"/>
    <path d="M-6.95 19.1 L-1.0 28.1 5.15 19.1 10.6 23.3 16.35 18.45 23.5 23.9 26.3 18.95 36.3 23.15 36.15 18.15 42.65 17.05 39.55 11.9 45.3 8.5 39.25 0.25 43.3 -5.55 38.6 -12.05 43.0 -17.85 36.9 -20.5 35.2 -27.65 28.5 -22.05 23.5 -27.35 17.45 -21.9 11.85 -26.7 5.9 -22.5 0.3 -27.8 -5.75 -22.5 -11.25 -27.8 -18.4 -23.45 -26.0 -28.1 -29.6 -23.15 -38.8 -26.4 -38.5 -20.35 -44.85 -17.05 -39.75 -11.3 -44.4 -5.85 -39.9 0.25 -45.35 5.85 -39.9 10.05 -42.55 17.85 -37.55 16.3 -33.65 23.45 -29.45 18.6 -23.85 23.3 -17.75 18.95 -14.8 23.3 -6.95 19.1 Z" fill="none" stroke="#000000" stroke-linecap="round" stroke-linejoin="round" stroke-width="1.0"/>
  </g>
</svg>
