<?xml version="1.0" encoding="UTF-8" standalone="no"?>
<svg xmlns:xlink="http://www.w3.org/1999/xlink" height="83.75px" width="109.6px" xmlns="http://www.w3.org/2000/svg">
  <g transform="matrix(1.0, 0.0, 0.0, 1.0, 55.7, 41.8)">
    <path d="M-51.3 -35.5 Q-51.3 -38.5 -48.35 -38.5 L46.55 -38.5 Q49.5 -38.5 49.5 -35.5 L49.5 33.25 Q49.5 36.25 46.55 36.25 L-48.35 36.25 Q-51.3 36.25 -51.3 33.25 L-51.3 -35.5" fill="#914f4f" fill-rule="evenodd" stroke="none"/>
    <path d="M-51.3 -35.5 L-51.3 33.25 Q-51.3 36.25 -48.35 36.25 L46.55 36.25 Q49.5 36.25 49.5 33.25 L49.5 -35.5 Q49.5 -38.5 46.55 -38.5 L-48.35 -38.5 Q-51.3 -38.5 -51.3 -35.5 M-48.35 -41.3 L46.55 -41.3 Q53.4 -41.3 53.4 -34.3 L53.4 34.45 Q53.4 41.45 46.55 41.45 L-48.35 41.45 Q-55.2 41.45 -55.2 34.45 L-55.2 -34.3 Q-55.2 -41.3 -48.35 -41.3" fill="#4d1e1e" fill-rule="evenodd" stroke="none"/>
    <path d="M-48.35 -41.3 L46.55 -41.3 Q53.4 -41.3 53.4 -34.3 L53.4 34.45 Q53.4 41.45 46.55 41.45 L-48.35 41.45 Q-55.2 41.45 -55.2 34.45 L-55.2 -34.3 Q-55.2 -41.3 -48.35 -41.3 Z" fill="none" stroke="#000000" stroke-linecap="round" stroke-linejoin="round" stroke-width="1.0"/>
    <path d="M-12.4 0.85 L-5.3 -9.55 -11.25 -18.8 -12.55 -21.1 -13.0 -23.0 Q-13.0 -23.95 -12.1 -24.6 -11.35 -25.4 -10.15 -25.4 -8.8 -25.4 -8.0 -24.55 L-5.95 -21.6 -1.2 -13.95 3.85 -21.6 4.95 -23.25 5.85 -24.45 6.75 -25.15 7.95 -25.4 Q9.15 -25.4 9.95 -24.6 10.7 -23.95 10.7 -22.9 10.7 -21.45 9.0 -18.95 L2.75 -9.55 9.5 0.85 Q10.45 2.2 10.8 3.1 11.2 4.0 11.2 4.8 L10.85 6.15 Q10.55 6.85 9.85 7.2 L8.3 7.5 6.75 7.2 5.75 6.25 4.3 4.0 -1.35 -4.8 -7.25 4.3 -8.3 5.8 -8.95 6.65 Q-9.4 7.1 -9.9 7.35 L-11.25 7.5 Q-12.45 7.5 -13.15 6.85 -14.0 6.15 -14.0 4.8 -14.0 3.15 -12.4 0.85" fill="#d79797" fill-rule="evenodd" stroke="none"/>
    <path d="M-44.3 -36.3 L42.5 -36.3 Q47.5 -36.3 47.5 -31.3 L47.5 29.3 Q47.5 34.3 42.5 34.3 L-44.3 34.3 Q-49.3 34.3 -49.3 29.3 L-49.3 -31.3 Q-49.3 -36.3 -44.3 -36.3 Z" fill="none" stroke="#ffbdbd" stroke-linecap="round" stroke-linejoin="round" stroke-opacity="0.21960784" stroke-width="1.0"/>
  </g>
</svg>
