<?xml version="1.0" encoding="UTF-8" standalone="no"?>
<svg xmlns:xlink="http://www.w3.org/1999/xlink" height="55.25px" width="75.45px" xmlns="http://www.w3.org/2000/svg">
  <g transform="matrix(1.0, 0.0, 0.0, 1.0, 239.0, 121.3)">
    <path d="M-205.75 -86.05 Q-199.5 -99.1 -191.8 -109.8 L-183.95 -100.6 Q-196.6 -92.2 -205.85 -76.75 -213.25 -83.45 -216.15 -90.05 L-211.9 -94.3 Q-210.35 -90.2 -206.3 -85.95 L-206.1 -85.9 -205.9 -85.9 -205.75 -86.05" fill="#85e79a" fill-rule="evenodd" stroke="none"/>
    <path d="M-234.7 -120.8 L-167.95 -120.8 Q-164.05 -120.8 -164.05 -117.0 L-164.05 -70.4 Q-164.05 -66.55 -167.95 -66.55 L-234.7 -66.55 Q-238.5 -66.55 -238.5 -70.4 L-238.5 -117.0 Q-238.5 -120.8 -234.7 -120.8 Z" fill="none" stroke="#66ff66" stroke-linecap="round" stroke-linejoin="round" stroke-opacity="0.21960784" stroke-width="1.0"/>
  </g>
</svg>
