<?xml version="1.0" encoding="UTF-8" standalone="no"?>
<svg xmlns:xlink="http://www.w3.org/1999/xlink" height="7.7px" width="7.7px" xmlns="http://www.w3.org/2000/svg">
  <g transform="matrix(1.0, 0.0, 0.0, 1.0, 3.95, 3.75)">
    <path d="M3.25 0.1 Q3.25 1.5 2.25 2.45 1.3 3.45 -0.1 3.45 -1.5 3.45 -2.5 2.45 -3.45 1.5 -3.45 0.1 -3.45 -1.3 -2.5 -2.3 -1.5 -3.25 -0.1 -3.25 1.3 -3.25 2.25 -2.3 3.25 -1.3 3.25 0.1" fill="#ffffff" fill-opacity="0.3372549" fill-rule="evenodd" stroke="none"/>
    <path d="M3.25 0.1 Q3.25 1.5 2.25 2.45 1.3 3.45 -0.1 3.45 -1.5 3.45 -2.5 2.45 -3.45 1.5 -3.45 0.1 -3.45 -1.3 -2.5 -2.3 -1.5 -3.25 -0.1 -3.25 1.3 -3.25 2.25 -2.3 3.25 -1.3 3.25 0.1 Z" fill="none" stroke="#000000" stroke-linecap="round" stroke-linejoin="round" stroke-opacity="0.47843137" stroke-width="1.0"/>
  </g>
</svg>
