<?xml version="1.0" encoding="UTF-8" standalone="no"?>
<svg xmlns:xlink="http://www.w3.org/1999/xlink" height="28.85px" width="51.9px" xmlns="http://www.w3.org/2000/svg">
  <g transform="matrix(1.0, 0.0, 0.0, 1.0, 26.1, 14.5)">
    <path d="M-16.6 -14.0 L16.3 -14.0 Q25.3 -14.0 25.3 -5.0 L25.3 4.85 Q25.3 13.85 16.3 13.85 L-16.6 13.85 Q-25.6 13.85 -25.6 4.85 L-25.6 -5.0 Q-25.6 -14.0 -16.6 -14.0" fill="#cdcdcd" fill-rule="evenodd" stroke="none"/>
    <path d="M-16.6 -14.0 L16.3 -14.0 Q25.3 -14.0 25.3 -5.0 L25.3 4.85 Q25.3 13.85 16.3 13.85 L-16.6 13.85 Q-25.6 13.85 -25.6 4.85 L-25.6 -5.0 Q-25.6 -14.0 -16.6 -14.0 Z" fill="none" stroke="#000000" stroke-linecap="round" stroke-linejoin="round" stroke-opacity="0.3764706" stroke-width="1.0"/>
  </g>
</svg>
