<?xml version="1.0" encoding="UTF-8" standalone="no"?>
<svg xmlns:xlink="http://www.w3.org/1999/xlink" height="567.65px" width="988.65px" xmlns="http://www.w3.org/2000/svg">
  <g transform="matrix(1.0, 0.0, 0.0, 1.0, 1212.65, 274.9)">
    <path d="M-1212.65 -274.9 L-224.0 -274.9 -224.0 292.75 -1212.65 292.75 -1212.65 -274.9" fill="#14142e" fill-opacity="0.54901963" fill-rule="evenodd" stroke="none"/>
    <path d="M-950.65 -49.85 L-950.65 -92.65 Q-950.65 -102.1 -943.95 -108.8 -937.25 -115.5 -927.8 -115.5 L-509.45 -115.5 Q-500.0 -115.5 -493.25 -108.8 -486.55 -102.1 -486.55 -92.65 L-486.55 -49.85 -950.65 -49.85" fill="url(#gradient0)" fill-rule="evenodd" stroke="none"/>
    <path d="M-486.55 -49.85 L-486.55 111.2 Q-486.55 120.65 -493.25 127.35 -500.0 134.1 -509.45 134.1 L-927.8 134.1 Q-937.25 134.1 -943.95 127.35 -950.65 120.65 -950.65 111.2 L-950.65 -49.85 -486.55 -49.85" fill="url(#gradient1)" fill-rule="evenodd" stroke="none"/>
    <path d="M-950.65 -49.85 L-950.65 -92.65 Q-950.65 -102.1 -943.95 -108.8 -937.25 -115.5 -927.8 -115.5 L-509.45 -115.5 Q-500.0 -115.5 -493.25 -108.8 -486.55 -102.1 -486.55 -92.65 L-486.55 -49.85 -486.55 111.2 Q-486.55 120.65 -493.25 127.35 -500.0 134.1 -509.45 134.1 L-927.8 134.1 Q-937.25 134.1 -943.95 127.35 -950.65 120.65 -950.65 111.2 L-950.65 -49.85 -486.55 -49.85" fill="none" stroke="#101979" stroke-linecap="round" stroke-linejoin="round" stroke-opacity="0.7764706" stroke-width="1.4000000000000001"/>
    <path d="M-497.75 39.85 L-497.75 124.1 -718.65 124.1 -939.6 124.1 -939.6 39.85 -939.6 -44.4 -718.65 -44.4 -497.75 -44.4 -497.75 39.85 -718.65 39.85 -718.65 124.1 -718.65 39.85 -497.75 39.85 M-718.65 -44.4 L-718.65 39.85 -939.6 39.85 -718.65 39.85 -718.65 -44.4" fill="#d2ddff" fill-opacity="0.14901961" fill-rule="evenodd" stroke="none"/>
    <path d="M-497.75 39.85 L-497.75 124.1 -718.65 124.1 -939.6 124.1 -939.6 39.85 -939.6 -44.4 -718.65 -44.4 -497.75 -44.4 -497.75 39.85 -718.65 39.85 -718.65 124.1 M-939.6 39.85 L-718.65 39.85 -718.65 -44.4" fill="none" stroke="#283866" stroke-linecap="round" stroke-linejoin="round" stroke-opacity="0.6862745" stroke-width="1.0"/>
    <path d="M-644.4 -44.4 L-644.4 124.1 M-571.4 -44.4 L-571.4 124.1 M-792.4 -44.4 L-792.4 124.1 M-865.4 -44.4 L-865.4 124.1" fill="none" stroke="#283866" stroke-linecap="round" stroke-linejoin="round" stroke-opacity="0.6862745" stroke-width="1.0"/>
    <path d="M-919.15 -107.0 L-627.85 -107.0 Q-617.2 -107.0 -609.65 -99.45 -602.1 -91.9 -602.1 -81.2 -602.1 -70.55 -609.65 -63.0 -617.2 -55.45 -627.85 -55.45 L-919.15 -55.45 Q-929.8 -55.45 -937.4 -63.0 -944.9 -70.55 -944.9 -81.2 -944.9 -91.9 -937.4 -99.45 -929.8 -107.0 -919.15 -107.0" fill="#3954b2" fill-opacity="0.14901961" fill-rule="evenodd" stroke="none"/>
  </g>
  <defs>
    <linearGradient gradientTransform="matrix(0.0, 0.0401, -0.2832, 0.0, -718.6, -82.75)" gradientUnits="userSpaceOnUse" id="gradient0" spreadMethod="pad" x1="-819.2" x2="819.2">
      <stop offset="0.0" stop-color="#bfc1f0" stop-opacity="0.8980392"/>
      <stop offset="1.0" stop-color="#d9dfff" stop-opacity="0.8980392"/>
    </linearGradient>
    <linearGradient gradientTransform="matrix(0.0, 0.1107, -0.2832, 0.0, -718.6, 45.4)" gradientUnits="userSpaceOnUse" id="gradient1" spreadMethod="pad" x1="-819.2" x2="819.2">
      <stop offset="0.0" stop-color="#b7c2f3" stop-opacity="0.8980392"/>
      <stop offset="1.0" stop-color="#9fa2e5" stop-opacity="0.8980392"/>
    </linearGradient>
  </defs>
</svg>
