<?xml version="1.0" encoding="UTF-8" standalone="no"?>
<svg xmlns:xlink="http://www.w3.org/1999/xlink" height="41.6px" width="68.8px" xmlns="http://www.w3.org/2000/svg">
  <g transform="matrix(1.0, 0.0, 0.0, 1.0, 74.0, 34.7)">
    <path d="M-45.75 -3.9 L-46.8 -3.65 -48.35 -3.3 -50.0 -2.55 Q-52.35 -1.45 -52.85 -0.5 -51.6 2.1 -47.15 2.4 L-42.05 2.15 -37.05 1.0 -38.35 2.15 Q-40.0 3.75 -39.3 4.6 L-32.05 5.0 Q-29.75 4.65 -27.4 3.85 L-25.45 3.15 -25.95 3.45 -27.5 4.7 Q-27.95 5.3 -27.85 5.75 L-20.25 5.35 -17.1 4.35 Q-13.5 2.9 -9.4 -0.55 L-6.95 -2.9 Q-5.5 -4.6 -6.9 -5.6 -32.8 -10.25 -58.65 -24.85 L-63.25 -27.7 -65.9 -29.55 Q-68.45 -31.5 -70.4 -33.7 -71.35 -33.75 -71.85 -33.0 L-72.4 -31.35 -72.45 -30.7 Q-74.65 -23.85 -68.15 -15.9 -67.55 -15.0 -66.5 -14.45 -64.3 -12.75 -60.45 -11.1 L-60.2 -11.0 -60.2 -10.95 -59.7 -10.8 M-60.45 -11.1 Q-63.85 -11.55 -65.5 -11.1 -66.75 -7.95 -60.9 -4.65 -56.7 -2.4 -50.85 -2.9 L-48.35 -3.3" fill="none" stroke="#000000" stroke-linecap="round" stroke-linejoin="round" stroke-width="2.0"/>
  </g>
</svg>
