<?xml version="1.0" encoding="UTF-8" standalone="no"?>
<svg xmlns:xlink="http://www.w3.org/1999/xlink" height="111.5px" width="550.3px" xmlns="http://www.w3.org/2000/svg">
  <g transform="matrix(1.0, 0.0, 0.0, 1.0, 949.0, 310.35)">
    <path d="M-925.0 -310.35 L-513.75 -310.35 Q-503.8 -310.35 -496.8 -303.35 -489.75 -296.3 -489.75 -286.35 -489.75 -276.4 -496.8 -269.4 -503.8 -262.35 -513.75 -262.35 L-925.0 -262.35 Q-934.95 -262.35 -942.0 -269.4 -949.0 -276.4 -949.0 -286.35 -949.0 -296.3 -942.0 -303.35 -934.95 -310.35 -925.0 -310.35" fill="#3954b2" fill-opacity="0.14901961" fill-rule="evenodd" stroke="none"/>
    <path d="M-702.2 -242.25 L-420.4 -242.25 Q-411.4 -242.25 -405.1 -235.95 -398.7 -229.55 -398.7 -220.6 L-398.7 -220.55 Q-398.7 -211.6 -405.1 -205.25 -411.4 -198.85 -420.4 -198.85 L-702.2 -198.85 Q-711.15 -198.85 -717.5 -205.25 -723.85 -211.6 -723.85 -220.55 L-723.85 -220.6 Q-723.85 -229.55 -717.5 -235.95 -711.15 -242.25 -702.2 -242.25" fill="#303d70" fill-opacity="0.6" fill-rule="evenodd" stroke="none"/>
  </g>
</svg>
