<?xml version="1.0" encoding="UTF-8" standalone="no"?>
<svg xmlns:xlink="http://www.w3.org/1999/xlink" height="431.9px" width="378.9px" xmlns="http://www.w3.org/2000/svg">
  <g transform="matrix(1.0, 0.0, 0.0, 1.0, 623.25, 419.95)">
    <path d="M-622.25 -363.7 L-245.35 -363.7 -245.35 10.95 -622.25 10.95 -622.25 -363.7" fill="#767eb1" fill-opacity="0.9372549" fill-rule="evenodd" stroke="none"/>
    <path d="M-245.35 -363.7 L-622.25 -363.7 -622.25 -418.95 -245.35 -418.95 -245.35 -363.7" fill="#c1c4e5" fill-opacity="0.9372549" fill-rule="evenodd" stroke="none"/>
    <path d="M-245.35 -363.7 L-245.35 -418.95 -622.25 -418.95 -622.25 -363.7 -622.25 10.95 -245.35 10.95 -245.35 -363.7" fill="none" stroke="#142558" stroke-linecap="round" stroke-linejoin="round" stroke-opacity="0.44705883" stroke-width="2.0"/>
    <path d="M-622.25 -363.7 L-245.35 -363.7 Z" fill="none" stroke="#142558" stroke-linecap="round" stroke-linejoin="round" stroke-opacity="0.44705883" stroke-width="1.5"/>
    <path d="M-508.85 -52.55 L-467.1 -52.55 Q-456.85 -52.55 -456.85 -42.25 L-456.85 -7.85 Q-456.85 2.4 -467.1 2.4 L-508.85 2.4 Q-519.15 2.4 -519.15 -7.85 L-519.15 -42.25 Q-519.15 -52.55 -508.85 -52.55" fill="#d1d0ff" fill-opacity="0.70980394" fill-rule="evenodd" stroke="none"/>
    <path d="M-353.0 -55.85 L-353.0 6.25" fill="none" stroke="#f3f8ff" stroke-linecap="round" stroke-linejoin="round" stroke-opacity="0.70980394" stroke-width="1.5"/>
  </g>
</svg>
