<?xml version="1.0" encoding="UTF-8" standalone="no"?>
<svg xmlns:xlink="http://www.w3.org/1999/xlink" height="75.6px" width="105.8px" xmlns="http://www.w3.org/2000/svg">
  <g transform="matrix(1.0, 0.0, 0.0, 1.0, 52.9, 37.8)">
    <path d="M40.3 -35.5 Q49.7 -35.5 49.7 -26.1 L49.7 24.3 Q49.7 33.7 40.3 33.7 L-40.3 33.7 Q-49.7 33.7 -49.7 24.3 L-49.7 -26.1 Q-49.7 -35.5 -40.3 -35.5 L40.3 -35.5" fill="url(#gradient0)" fill-rule="evenodd" stroke="none"/>
    <path d="M40.3 -35.5 L-40.3 -35.5 Q-49.7 -35.5 -49.7 -26.1 L-49.7 24.3 Q-49.7 33.7 -40.3 33.7 L40.3 33.7 Q49.7 33.7 49.7 24.3 L49.7 -26.1 Q49.7 -35.5 40.3 -35.5 M-40.3 -37.1 L40.3 -37.1 Q52.2 -37.1 52.2 -25.2 L52.2 25.2 Q52.2 37.1 40.3 37.1 L-40.3 37.1 Q-52.2 37.1 -52.2 25.2 L-52.2 -25.2 Q-52.2 -37.1 -40.3 -37.1" fill="url(#gradient1)" fill-rule="evenodd" stroke="none"/>
    <path d="M-40.3 -37.1 L40.3 -37.1 Q52.2 -37.1 52.2 -25.2 L52.2 25.2 Q52.2 37.1 40.3 37.1 L-40.3 37.1 Q-52.2 37.1 -52.2 25.2 L-52.2 -25.2 Q-52.2 -37.1 -40.3 -37.1 Z" fill="none" stroke="#101979" stroke-linecap="round" stroke-linejoin="round" stroke-opacity="0.7764706" stroke-width="1.4000000000000001"/>
    <path d="M-0.1 16.6 Q-17.5 8.25 -19.05 -3.75 -20.65 -15.75 -10.5 -17.4 -3.3 -18.0 -0.1 -9.55 3.1 -18.0 10.25 -17.4 20.4 -15.75 18.8 -3.75 17.25 8.25 -0.1 16.6" fill="#e5ebff" fill-opacity="0.7490196" fill-rule="evenodd" stroke="none"/>
  </g>
  <defs>
    <linearGradient gradientTransform="matrix(0.0, -0.0414, 0.0637, 0.0, 0.0, -1.1)" gradientUnits="userSpaceOnUse" id="gradient0" spreadMethod="pad" x1="-819.2" x2="819.2">
      <stop offset="0.0" stop-color="#aab5e2" stop-opacity="0.8980392"/>
      <stop offset="1.0" stop-color="#9fa2e5" stop-opacity="0.8980392"/>
    </linearGradient>
    <linearGradient gradientTransform="matrix(0.0, -0.0414, 0.0637, 0.0, 0.0, -0.2)" gradientUnits="userSpaceOnUse" id="gradient1" spreadMethod="pad" x1="-819.2" x2="819.2">
      <stop offset="0.0" stop-color="#6977af" stop-opacity="0.8980392"/>
      <stop offset="1.0" stop-color="#5f62a6" stop-opacity="0.8980392"/>
    </linearGradient>
  </defs>
</svg>
