<?xml version="1.0" encoding="UTF-8" standalone="no"?>
<svg xmlns:xlink="http://www.w3.org/1999/xlink" height="484.8px" width="573.6px" xmlns="http://www.w3.org/2000/svg">
  <g transform="matrix(1.0, 0.0, 0.0, 1.0, 960.15, 318.1)">
    <path d="M-959.45 -256.25 L-959.45 -296.1 Q-959.45 -304.9 -953.2 -311.15 -946.95 -317.4 -938.15 -317.4 L-408.55 -317.4 Q-399.75 -317.4 -393.5 -311.15 -387.25 -304.9 -387.25 -296.1 L-387.25 -256.25 -959.45 -256.25" fill="url(#gradient0)" fill-rule="evenodd" stroke="none"/>
    <path d="M-387.25 -256.25 L-387.25 144.7 Q-387.25 153.5 -393.5 159.75 -399.75 166.0 -408.55 166.0 L-938.15 166.0 Q-946.95 166.0 -953.2 159.75 -959.45 153.5 -959.45 144.7 L-959.45 -256.25 -387.25 -256.25" fill="url(#gradient1)" fill-rule="evenodd" stroke="none"/>
    <path d="M-959.45 -256.25 L-959.45 -296.1 Q-959.45 -304.9 -953.2 -311.15 -946.95 -317.4 -938.15 -317.4 L-408.55 -317.4 Q-399.75 -317.4 -393.5 -311.15 -387.25 -304.9 -387.25 -296.1 L-387.25 -256.25 -387.25 144.7 Q-387.25 153.5 -393.5 159.75 -399.75 166.0 -408.55 166.0 L-938.15 166.0 Q-946.95 166.0 -953.2 159.75 -959.45 153.5 -959.45 144.7 L-959.45 -256.25 -387.25 -256.25" fill="none" stroke="#101979" stroke-linecap="round" stroke-linejoin="round" stroke-opacity="0.7764706" stroke-width="1.4000000000000001"/>
  </g>
  <defs>
    <linearGradient gradientTransform="matrix(0.0, 0.0318, -0.3492, 0.0, -673.35, -286.05)" gradientUnits="userSpaceOnUse" id="gradient0" spreadMethod="pad" x1="-819.2" x2="819.2">
      <stop offset="0.0" stop-color="#bfc1f0" stop-opacity="0.8980392"/>
      <stop offset="1.0" stop-color="#d9dfff" stop-opacity="0.8980392"/>
    </linearGradient>
    <linearGradient gradientTransform="matrix(0.0, 0.2577, -0.3492, 0.0, -673.35, -45.15)" gradientUnits="userSpaceOnUse" id="gradient1" spreadMethod="pad" x1="-819.2" x2="819.2">
      <stop offset="0.0" stop-color="#aab5e2" stop-opacity="0.8980392"/>
      <stop offset="1.0" stop-color="#9fa2e5" stop-opacity="0.8980392"/>
    </linearGradient>
  </defs>
</svg>
