<?xml version="1.0" encoding="UTF-8" standalone="no"?>
<svg xmlns:xlink="http://www.w3.org/1999/xlink" height="55.45px" width="220.9px" xmlns="http://www.w3.org/2000/svg">
  <g transform="matrix(1.0, 0.0, 0.0, 1.0, 0.7, 27.75)">
    <path d="M109.35 -27.05 L192.45 -27.05 Q203.65 -27.05 211.5 -19.15 219.5 -11.2 219.5 -0.1 L219.5 0.0 Q219.5 11.1 211.5 19.05 203.65 27.0 192.45 27.0 L109.35 27.0 109.35 -27.05" fill="#384783" fill-opacity="0.6" fill-rule="evenodd" stroke="none"/>
    <path d="M109.35 27.0 L26.95 27.0 Q15.8 27.0 7.9 19.05 0.0 11.1 0.0 0.0 L0.0 -0.1 Q0.0 -11.2 7.9 -19.15 15.8 -27.05 26.95 -27.05 L109.35 -27.05 109.35 27.0" fill="#252e56" fill-opacity="0.6" fill-rule="evenodd" stroke="none"/>
    <path d="M109.35 27.0 L26.95 27.0 Q15.8 27.0 7.9 19.05 0.0 11.1 0.0 0.0 L0.0 -0.1 Q0.0 -11.2 7.9 -19.15 15.8 -27.05 26.95 -27.05 L109.35 -27.05 192.45 -27.05 Q203.65 -27.05 211.5 -19.15 219.5 -11.2 219.5 -0.1 L219.5 0.0 Q219.5 11.1 211.5 19.05 203.65 27.0 192.45 27.0 L109.35 27.0 109.35 -27.05" fill="none" stroke="#e2eaff" stroke-linecap="round" stroke-linejoin="round" stroke-opacity="0.7764706" stroke-width="1.4000000000000001"/>
  </g>
</svg>
