<?xml version="1.0" encoding="UTF-8" standalone="no"?>
<svg xmlns:xlink="http://www.w3.org/1999/xlink" height="100.7px" width="179.5px" xmlns="http://www.w3.org/2000/svg">
  <g transform="matrix(1.0, 0.0, 0.0, 1.0, 89.05, 50.65)">
    <path d="M-72.9 -49.9 L74.3 -49.9 Q89.7 -49.9 89.7 -34.45 L89.7 33.9 Q89.7 49.3 74.3 49.3 L-72.9 49.3 Q-88.3 49.3 -88.3 33.9 L-88.3 -34.45 Q-88.3 -49.9 -72.9 -49.9 M74.3 -47.25 L-72.9 -47.25 Q-85.65 -47.25 -85.65 -34.45 L-85.65 33.9 Q-85.65 46.7 -72.9 46.7 L74.3 46.7 Q87.05 46.7 87.05 33.9 L87.05 -34.45 Q87.05 -47.25 74.3 -47.25" fill="#ffffff" fill-opacity="0.26666668" fill-rule="evenodd" stroke="none"/>
    <path d="M-72.9 -49.9 L74.3 -49.9 Q89.7 -49.9 89.7 -34.45 L89.7 33.9 Q89.7 49.3 74.3 49.3 L-72.9 49.3 Q-88.3 49.3 -88.3 33.9 L-88.3 -34.45 Q-88.3 -49.9 -72.9 -49.9 Z" fill="none" stroke="#0f1e48" stroke-linecap="round" stroke-linejoin="round" stroke-opacity="0.81960785" stroke-width="1.5"/>
  </g>
</svg>
