<?xml version="1.0" encoding="UTF-8" standalone="no"?>
<svg xmlns:xlink="http://www.w3.org/1999/xlink" height="43.65px" width="17.75px" xmlns="http://www.w3.org/2000/svg">
  <g transform="matrix(1.0, 0.0, 0.0, 1.0, 22.55, 7.9)">
    <path d="M-7.3 -1.85 Q-7.3 0.65 -9.1 2.4 -10.85 4.2 -13.35 4.2 -15.85 4.2 -17.65 2.4 -19.4 0.65 -19.4 -1.85 -19.4 -4.35 -17.65 -6.15 -15.85 -7.9 -13.35 -7.9 -10.85 -7.9 -9.1 -6.15 -7.3 -4.35 -7.3 -1.85 M-8.45 -1.9 Q-8.45 -3.95 -9.9 -5.4 -11.35 -6.85 -13.4 -6.85 -15.45 -6.85 -16.9 -5.4 -18.35 -3.95 -18.35 -1.9 -18.35 0.15 -16.9 1.6 -15.45 3.05 -13.4 3.05 -11.35 3.05 -9.9 1.6 -8.45 0.15 -8.45 -1.9" fill="#2a2a2a" fill-rule="evenodd" stroke="none"/>
    <path d="M-14.45 4.6 L-12.55 4.6 Q-11.0 4.6 -9.85 5.4 -8.75 6.15 -8.75 7.2 -8.75 8.3 -9.85 9.05 -11.0 9.8 -12.55 9.8 L-14.45 9.8 Q-16.0 9.8 -17.15 9.05 -18.25 8.3 -18.25 7.2 -18.25 6.15 -17.15 5.4 -16.0 4.6 -14.45 4.6" fill="#170f2a" fill-rule="evenodd" stroke="none"/>
    <path d="M-13.45 18.2 Q-12.0 20.6 -10.65 23.65 -7.3 23.75 -5.3 24.9 -6.85 27.55 -9.15 29.05 -8.1 31.9 -8.05 34.95 -11.15 33.85 -13.2 32.65 -15.25 34.1 -18.35 35.25 -18.25 32.05 -17.45 28.75 -20.1 26.85 -22.05 24.55 -19.5 23.8 -16.05 23.6 -14.75 20.2 -13.45 18.2 Z" fill="none" stroke="#000000" stroke-linecap="round" stroke-linejoin="round" stroke-opacity="0.8" stroke-width="1.0"/>
  </g>
</svg>
