<?xml version="1.0" encoding="UTF-8" standalone="no"?>
<svg xmlns:xlink="http://www.w3.org/1999/xlink" height="106.7px" width="547.45px" xmlns="http://www.w3.org/2000/svg">
  <g transform="matrix(1.0, 0.0, 0.0, 1.0, 949.0, 310.35)">
    <path d="M-922.55 -247.05 L-423.25 -247.05 Q-414.25 -247.05 -407.95 -240.75 -401.55 -234.35 -401.55 -225.4 L-401.55 -225.35 Q-401.55 -216.4 -407.95 -210.05 -414.25 -203.65 -423.25 -203.65 L-922.55 -203.65 Q-931.5 -203.65 -937.85 -210.05 -944.2 -216.4 -944.2 -225.35 L-944.2 -225.4 Q-944.2 -234.35 -937.85 -240.75 -931.5 -247.05 -922.55 -247.05" fill="#303d70" fill-opacity="0.6" fill-rule="evenodd" stroke="none"/>
    <path d="M-925.0 -310.35 L-513.75 -310.35 Q-503.8 -310.35 -496.8 -303.35 -489.75 -296.3 -489.75 -286.35 -489.75 -276.4 -496.8 -269.4 -503.8 -262.35 -513.75 -262.35 L-925.0 -262.35 Q-934.95 -262.35 -942.0 -269.4 -949.0 -276.4 -949.0 -286.35 -949.0 -296.3 -942.0 -303.35 -934.95 -310.35 -925.0 -310.35" fill="#3954b2" fill-opacity="0.14901961" fill-rule="evenodd" stroke="none"/>
  </g>
</svg>
