<?xml version="1.0" encoding="UTF-8" standalone="no"?>
<svg xmlns:xlink="http://www.w3.org/1999/xlink" height="567.65px" width="988.65px" xmlns="http://www.w3.org/2000/svg">
  <g transform="matrix(1.0, 0.0, 0.0, 1.0, 1101.95, 379.45)">
    <path d="M-1101.95 -379.45 L-113.3 -379.45 -113.3 188.2 -1101.95 188.2 -1101.95 -379.45" fill="#0b0b19" fill-opacity="0.54901963" fill-rule="evenodd" stroke="none"/>
    <path d="M-833.45 -148.25 L-833.45 -188.1 Q-833.45 -196.9 -827.2 -203.15 -820.95 -209.4 -812.15 -209.4 L-422.55 -209.4 Q-413.75 -209.4 -407.5 -203.15 -401.25 -196.9 -401.25 -188.1 L-401.25 -148.25 -833.45 -148.25" fill="url(#gradient0)" fill-rule="evenodd" stroke="none"/>
    <path d="M-401.25 -148.25 L-401.25 1.75 Q-401.25 10.55 -407.5 16.8 -413.75 23.05 -422.55 23.05 L-812.15 23.05 Q-820.95 23.05 -827.2 16.8 -833.45 10.55 -833.45 1.75 L-833.45 -148.25 -401.25 -148.25" fill="url(#gradient1)" fill-rule="evenodd" stroke="none"/>
    <path d="M-833.45 -148.25 L-833.45 -188.1 Q-833.45 -196.9 -827.2 -203.15 -820.95 -209.4 -812.15 -209.4 L-422.55 -209.4 Q-413.75 -209.4 -407.5 -203.15 -401.25 -196.9 -401.25 -188.1 L-401.25 -148.25 -401.25 1.75 Q-401.25 10.55 -407.5 16.8 -413.75 23.05 -422.55 23.05 L-812.15 23.05 Q-820.95 23.05 -827.2 16.8 -833.45 10.55 -833.45 1.75 L-833.45 -148.25 -401.25 -148.25" fill="none" stroke="#101979" stroke-linecap="round" stroke-linejoin="round" stroke-opacity="0.7764706" stroke-width="1.4000000000000001"/>
    <path d="M-755.25 -201.45 L-484.0 -201.45 Q-474.05 -201.45 -467.05 -194.45 -460.0 -187.4 -460.0 -177.45 -460.0 -167.5 -467.05 -160.5 -474.05 -153.45 -484.0 -153.45 L-755.25 -153.45 Q-765.2 -153.45 -772.25 -160.5 -779.25 -167.5 -779.25 -177.45 -779.25 -187.4 -772.25 -194.45 -765.2 -201.45 -755.25 -201.45" fill="#3954b2" fill-opacity="0.14901961" fill-rule="evenodd" stroke="none"/>
  </g>
  <defs>
    <linearGradient gradientTransform="matrix(0.0, 0.0373, -0.2638, 0.0, -617.35, -178.85)" gradientUnits="userSpaceOnUse" id="gradient0" spreadMethod="pad" x1="-819.2" x2="819.2">
      <stop offset="0.0" stop-color="#bfc1f0" stop-opacity="0.8980392"/>
      <stop offset="1.0" stop-color="#d9dfff" stop-opacity="0.8980392"/>
    </linearGradient>
    <linearGradient gradientTransform="matrix(0.0, 0.1031, -0.2638, 0.0, -617.35, -59.5)" gradientUnits="userSpaceOnUse" id="gradient1" spreadMethod="pad" x1="-819.2" x2="819.2">
      <stop offset="0.0" stop-color="#b7c2f3" stop-opacity="0.8980392"/>
      <stop offset="1.0" stop-color="#9fa2e5" stop-opacity="0.8980392"/>
    </linearGradient>
  </defs>
</svg>
