<?xml version="1.0" encoding="UTF-8" standalone="no"?>
<svg xmlns:xlink="http://www.w3.org/1999/xlink" height="19.65px" width="209.15px" xmlns="http://www.w3.org/2000/svg">
  <g transform="matrix(1.0, 0.0, 0.0, 1.0, 778.0, 42.85)">
    <path d="M-579.85 -23.2 Q-589.9 -28.05 -590.8 -34.95 -591.7 -41.9 -585.85 -42.85 -581.7 -43.2 -579.85 -38.3 -578.0 -43.2 -573.9 -42.85 -568.05 -41.9 -568.95 -34.95 -569.85 -28.05 -579.85 -23.2 M-766.95 -23.2 Q-777.0 -28.05 -777.9 -34.95 -778.8 -41.9 -772.95 -42.85 -768.8 -43.2 -766.95 -38.3 -765.1 -43.2 -761.0 -42.85 -755.15 -41.9 -756.05 -34.95 -756.95 -28.05 -766.95 -23.2" fill="#5c6699" fill-opacity="0.4862745" fill-rule="evenodd" stroke="none"/>
  </g>
</svg>
