<?xml version="1.0" encoding="UTF-8" standalone="no"?>
<svg xmlns:xlink="http://www.w3.org/1999/xlink" height="56.4px" width="311.7px" xmlns="http://www.w3.org/2000/svg">
  <g transform="matrix(1.0, 0.0, 0.0, 1.0, 668.5, 415.55)">
    <path d="M-463.65 -415.05 L-357.3 -415.05 -357.3 -359.65 -463.65 -359.65 -463.65 -415.05 M-568.35 -415.05 L-471.3 -415.05 -471.3 -359.65 -568.35 -359.65 -568.35 -415.05 M-668.0 -415.05 L-570.95 -415.05 -570.95 -359.65 -668.0 -359.65 -668.0 -415.05" fill="#c7d7fa" fill-opacity="0.8862745" fill-rule="evenodd" stroke="none"/>
    <path d="M-463.65 -415.05 L-357.3 -415.05 -357.3 -359.65 -463.65 -359.65 -463.65 -415.05 M-568.35 -415.05 L-471.3 -415.05 -471.3 -359.65 -568.35 -359.65 -568.35 -415.05 M-668.0 -415.05 L-570.95 -415.05 -570.95 -359.65 -668.0 -359.65 -668.0 -415.05" fill="none" stroke="#000000" stroke-linecap="round" stroke-linejoin="round" stroke-width="1.0"/>
    <path d="M-620.4 -392.95 Q-621.5 -392.95 -622.35 -393.8 -623.15 -394.6 -623.15 -395.8 -623.15 -396.9 -622.35 -397.75 -621.5 -398.55 -620.4 -398.55 -619.2 -398.55 -618.35 -397.75 -617.6 -396.9 -617.6 -395.8 -617.6 -394.6 -618.35 -393.8 -619.2 -392.95 -620.4 -392.95 M-521.3 -398.15 L-520.65 -398.5 -520.0 -398.5 -519.4 -398.15 -507.35 -385.0 Q-506.95 -384.5 -506.95 -383.95 -506.95 -383.3 -507.35 -383.0 -507.8 -382.65 -508.3 -382.65 -508.9 -382.65 -509.25 -383.1 L-520.4 -395.2 -532.2 -383.1 Q-532.6 -382.65 -533.15 -382.65 -533.75 -382.65 -534.15 -383.1 -534.55 -383.4 -534.55 -384.0 L-534.15 -385.0 -521.3 -398.15 M-520.65 -381.6 Q-519.55 -381.6 -518.7 -380.75 -517.9 -379.95 -517.9 -378.75 -517.9 -377.65 -518.7 -376.8 -519.55 -376.0 -520.65 -376.0 -521.85 -376.0 -522.7 -376.8 -523.45 -377.65 -523.45 -378.75 -523.45 -379.95 -522.7 -380.75 -521.85 -381.6 -520.65 -381.6 M-619.75 -376.4 L-620.4 -376.05 -621.05 -376.05 -621.65 -376.4 -633.7 -389.55 Q-634.1 -390.05 -634.1 -390.6 -634.1 -391.2 -633.7 -391.5 -633.25 -391.9 -632.75 -391.9 -632.15 -391.9 -631.8 -391.45 L-620.65 -379.35 -608.85 -391.45 Q-608.45 -391.9 -607.9 -391.9 -607.3 -391.9 -606.9 -391.45 -606.5 -391.15 -606.5 -390.5 -606.5 -390.0 -606.9 -389.55 L-619.75 -376.4" fill="#28344a" fill-rule="evenodd" stroke="none"/>
    <path d="M-438.65 -390.8 L-423.65 -390.8 -423.65 -395.55 -413.25 -386.75 -423.65 -378.3 -423.65 -382.95 -438.65 -382.95 -438.65 -378.3 -449.05 -386.75 -438.65 -395.55 -438.65 -390.8" fill="#252d43" fill-opacity="0.8" fill-rule="evenodd" stroke="none"/>
  </g>
</svg>
