<?xml version="1.0" encoding="UTF-8" standalone="no"?>
<svg xmlns:xlink="http://www.w3.org/1999/xlink" height="565.65px" width="984.4px" xmlns="http://www.w3.org/2000/svg">
  <g transform="matrix(1.0, 0.0, 0.0, 1.0, 1212.85, 110.8)">
    <path d="M-1212.85 -21.85 L-1212.85 -110.8 -228.45 -110.8 -228.45 -21.85 -1212.85 -21.85 M-228.45 351.95 L-228.45 454.85 -1212.85 454.85 -1212.85 351.95 -228.45 351.95" fill="#d0d1ff" fill-opacity="0.6666667" fill-rule="evenodd" stroke="none"/>
    <path d="M-228.45 -21.85 L-228.45 351.95 -1212.85 351.95 -1212.85 -21.85 -228.45 -21.85" fill="#6b6f98" fill-opacity="0.6666667" fill-rule="evenodd" stroke="none"/>
    <path d="M-902.7 -73.35 L-536.7 -73.35 Q-526.6 -73.35 -519.5 -66.2 -512.35 -59.1 -512.35 -49.0 -512.35 -38.9 -519.5 -31.8 -526.6 -24.65 -536.7 -24.65 L-902.7 -24.65 Q-912.8 -24.65 -919.9 -31.8 -927.0 -38.9 -927.0 -49.0 -927.0 -59.1 -919.9 -66.2 -912.8 -73.35 -902.7 -73.35" fill="#282956" fill-opacity="0.65882355" fill-rule="evenodd" stroke="none"/>
    <path d="M-902.7 -73.35 L-536.7 -73.35 Q-526.6 -73.35 -519.5 -66.2 -512.35 -59.1 -512.35 -49.0 -512.35 -38.9 -519.5 -31.8 -526.6 -24.65 -536.7 -24.65 L-902.7 -24.65 Q-912.8 -24.65 -919.9 -31.8 -927.0 -38.9 -927.0 -49.0 -927.0 -59.1 -919.9 -66.2 -912.8 -73.35 -902.7 -73.35 Z" fill="none" stroke="#3c4069" stroke-linecap="round" stroke-linejoin="round" stroke-opacity="0.7490196" stroke-width="1.5"/>
  </g>
</svg>
