<?xml version="1.0" encoding="UTF-8" standalone="no"?>
<svg xmlns:xlink="http://www.w3.org/1999/xlink" height="49.0px" width="103.25px" xmlns="http://www.w3.org/2000/svg">
  <g transform="matrix(1.0, 0.0, 0.0, 1.0, 50.75, 24.6)">
    <path d="M-39.35 -23.85 L41.1 -23.85 Q51.75 -23.85 51.75 -13.2 L51.75 13.0 Q51.75 23.65 41.1 23.65 L-39.35 23.65 Q-50.0 23.65 -50.0 13.0 L-50.0 -13.2 Q-50.0 -23.85 -39.35 -23.85" fill="url(#gradient0)" fill-rule="evenodd" stroke="none"/>
    <path d="M-39.35 -23.85 L41.1 -23.85 Q51.75 -23.85 51.75 -13.2 L51.75 13.0 Q51.75 23.65 41.1 23.65 L-39.35 23.65 Q-50.0 23.65 -50.0 13.0 L-50.0 -13.2 Q-50.0 -23.85 -39.35 -23.85 Z" fill="none" stroke="#3c4069" stroke-linecap="round" stroke-linejoin="round" stroke-opacity="0.7490196" stroke-width="1.5"/>
  </g>
  <defs>
    <linearGradient gradientTransform="matrix(0.0, -0.0245, 0.0621, 0.0, 0.85, 0.9)" gradientUnits="userSpaceOnUse" id="gradient0" spreadMethod="pad" x1="-819.2" x2="819.2">
      <stop offset="0.0" stop-color="#c8bbf3"/>
      <stop offset="1.0" stop-color="#b4abee"/>
    </linearGradient>
  </defs>
</svg>
