<?xml version="1.0" encoding="UTF-8" standalone="no"?>
<svg xmlns:xlink="http://www.w3.org/1999/xlink" height="72.2px" width="753.55px" xmlns="http://www.w3.org/2000/svg">
  <g transform="matrix(1.0, 0.0, 0.0, 1.0, 376.7, 35.1)">
    <path d="M138.65 -35.05 L138.65 -11.1 138.65 35.05 -200.35 35.05 -200.35 -10.0 -200.35 -35.05 138.65 -35.05 M-376.7 35.05 L-376.7 -10.0 -309.0 -10.0 -309.0 35.05 -376.7 35.05" fill="#868ead" fill-rule="evenodd" stroke="none"/>
    <path d="M-376.7 -10.0 L-376.7 -35.05 -309.0 -35.05 -309.0 -10.0 -376.7 -10.0" fill="#a1aad0" fill-rule="evenodd" stroke="none"/>
    <path d="M-200.35 -10.0 L-200.35 35.05 -254.2 35.05 -309.0 35.05 -309.0 -10.0 -254.2 -10.0 -254.2 35.05 -254.2 -10.0 -200.35 -10.0 M138.65 35.05 L138.65 -11.1 209.15 -11.1 251.5 -11.1 293.9 -11.1 293.9 35.05 251.5 35.05 209.15 35.05 138.65 35.05 M251.5 35.05 L251.5 -11.1 251.5 35.05 M209.15 -11.1 L209.15 35.05 209.15 -11.1" fill="#66708e" fill-rule="evenodd" stroke="none"/>
    <path d="M138.65 -11.1 L138.65 -35.05 209.15 -35.05 209.15 -11.1 209.15 -35.05 293.9 -35.05 293.9 -21.85 293.9 -35.05 376.85 -35.05 376.85 -21.85 335.35 -21.85 293.9 -21.85 293.9 -11.1 251.5 -11.1 209.15 -11.1 138.65 -11.1 M-200.35 -35.05 L-200.35 -10.0 -254.2 -10.0 -254.2 -35.05 -200.35 -35.05 M-309.0 -35.05 L-254.2 -35.05 -254.2 -10.0 -309.0 -10.0 -309.0 -35.05" fill="#bac4f0" fill-rule="evenodd" stroke="none"/>
    <path d="M-200.35 35.05 L138.65 35.05 209.15 35.05 251.5 35.05 293.9 35.05 335.35 35.05 376.85 35.05 376.85 37.1 -376.7 37.1 -376.7 35.05 -309.0 35.05 -254.2 35.05 -200.35 35.05" fill="#080715" fill-opacity="0.5294118" fill-rule="evenodd" stroke="none"/>
    <path d="M293.9 -11.1 L293.9 -21.85 335.35 -21.85 376.85 -21.85 376.85 35.05 335.35 35.05 293.9 35.05 293.9 -11.1 M335.35 -21.85 L335.35 35.05 335.35 -21.85" fill="#43495d" fill-rule="evenodd" stroke="none"/>
    <path d="M138.65 -11.1 L138.65 -35.05 M-200.35 -35.05 L-200.35 -10.0 -200.35 35.05 M138.65 35.05 L138.65 -11.1 209.15 -11.1 251.5 -11.1 293.9 -11.1 293.9 35.05 M293.9 -11.1 L293.9 -21.85 335.35 -21.85 376.85 -21.85 M335.35 35.05 L335.35 -21.85 M209.15 35.05 L209.15 -11.1 M251.5 -11.1 L251.5 35.05 M-309.0 -10.0 L-309.0 -35.05 M-254.2 -10.0 L-309.0 -10.0 -309.0 35.05 M-254.2 35.05 L-254.2 -10.0 -200.35 -10.0 M-309.0 -10.0 L-376.7 -10.0" fill="none" stroke="#d4f2ff" stroke-linecap="round" stroke-linejoin="round" stroke-opacity="0.54901963" stroke-width="0.05"/>
    <path d="M-200.35 35.05 L138.65 35.05 209.15 35.05 251.5 35.05 293.9 35.05 335.35 35.05 376.85 35.05 376.85 -21.85 376.85 -35.05 376.85 -35.1 -376.7 -35.1 -376.7 -35.05 -376.7 -10.0 -376.7 35.05 M-309.0 35.05 L-254.2 35.05 -200.35 35.05" fill="none" stroke="#1d2043" stroke-linecap="round" stroke-linejoin="round" stroke-opacity="0.6862745" stroke-width="0.05"/>
    <path d="M209.15 -11.1 L209.15 -35.05 M293.9 -21.85 L293.9 -35.05 M-254.2 -10.0 L-254.2 -35.05" fill="none" stroke="#475562" stroke-linecap="round" stroke-linejoin="round" stroke-opacity="0.54901963" stroke-width="0.05"/>
  </g>
</svg>
