<?xml version="1.0" encoding="UTF-8" standalone="no"?>
<svg xmlns:xlink="http://www.w3.org/1999/xlink" height="30.1px" width="84.85px" xmlns="http://www.w3.org/2000/svg">
  <g transform="matrix(1.0, 0.0, 0.0, 1.0, 296.8, 2.25)">
    <path d="M-230.75 20.75 L-231.45 20.45 -231.75 19.75 -231.45 19.0 -225.8 12.35 Q-224.55 10.95 -224.55 9.85 -224.55 8.55 -225.2 7.8 -225.85 7.0 -227.05 7.0 -227.75 7.0 -228.4 7.4 L-229.35 8.45 Q-229.7 9.1 -229.7 9.85 L-230.0 10.55 Q-230.3 10.85 -230.75 10.85 L-231.45 10.55 -231.75 9.85 Q-231.75 8.55 -231.15 7.45 -230.5 6.35 -229.45 5.75 -228.35 5.15 -227.05 5.15 -225.7 5.15 -224.7 5.7 -223.65 6.3 -223.1 7.35 -222.55 8.45 -222.55 9.85 -222.55 10.75 -223.1 11.7 L-224.35 13.5 -228.95 18.7 -223.35 18.7 Q-222.9 18.7 -222.6 19.0 -222.3 19.3 -222.3 19.75 -222.3 20.15 -222.6 20.45 -222.9 20.75 -223.35 20.75 L-230.75 20.75 M-211.95 12.8 Q-211.95 19.05 -216.35 23.45 -220.75 27.85 -227.0 27.85 -233.2 27.85 -237.6 23.45 -242.0 19.05 -242.0 12.8 -242.0 6.55 -237.6 2.15 -233.2 -2.25 -227.0 -2.25 -220.75 -2.25 -216.35 2.15 -211.95 6.55 -211.95 12.8 M-213.95 12.85 Q-213.95 7.4 -217.75 3.55 -221.6 -0.25 -227.05 -0.25 -232.45 -0.25 -236.25 3.55 -240.1 7.4 -240.1 12.85 -240.1 18.25 -236.25 22.15 -232.45 25.95 -227.05 25.95 -221.6 25.95 -217.75 22.15 -213.95 18.25 -213.95 12.85 M-281.2 21.0 L-281.9 20.7 -282.2 20.0 -282.2 7.8 -283.65 8.4 -284.3 8.55 -285.0 8.25 -285.3 7.55 -285.15 6.95 -284.65 6.6 -281.5 5.45 -281.15 5.4 Q-280.7 5.4 -280.4 5.65 -280.15 5.95 -280.15 6.4 L-280.15 20.0 Q-280.15 20.4 -280.45 20.7 -280.75 21.0 -281.2 21.0 M-266.75 12.8 Q-266.75 19.05 -271.15 23.45 -275.55 27.85 -281.8 27.85 -288.0 27.85 -292.4 23.45 -296.8 19.05 -296.8 12.8 -296.8 6.55 -292.4 2.15 -288.0 -2.25 -281.8 -2.25 -275.55 -2.25 -271.15 2.15 -266.75 6.55 -266.75 12.8 M-268.75 12.85 Q-268.75 7.4 -272.55 3.55 -276.4 -0.25 -281.85 -0.25 -287.25 -0.25 -291.05 3.55 -294.9 7.4 -294.9 12.85 -294.9 18.25 -291.05 22.15 -287.25 25.95 -281.85 25.95 -276.4 25.95 -272.55 22.15 -268.75 18.25 -268.75 12.85" fill="#b9c6e9" fill-opacity="0.5294118" fill-rule="evenodd" stroke="none"/>
  </g>
</svg>
