<?xml version="1.0" encoding="UTF-8" standalone="no"?>
<svg xmlns:xlink="http://www.w3.org/1999/xlink" height="28.0px" width="206.95px" xmlns="http://www.w3.org/2000/svg">
  <g transform="matrix(1.0, 0.0, 0.0, 1.0, 811.85, -369.45)">
    <path d="M-605.4 382.6 Q-605.1 382.8 -604.9 383.45 L-604.9 383.5 -604.9 384.25 -604.9 384.4 -605.3 385.1 -605.35 385.15 -618.3 397.05 -618.35 397.05 Q-618.95 397.45 -619.65 397.45 -620.45 397.45 -620.85 397.0 L-620.9 396.95 -621.35 395.75 Q-621.35 394.95 -620.75 394.45 L-620.75 394.5 -609.15 383.8 -620.75 372.5 Q-621.35 371.95 -621.35 371.25 -621.35 370.55 -620.8 370.05 -620.4 369.45 -619.55 369.45 -618.9 369.45 -618.3 370.0 L-605.4 382.6 M-622.5 381.25 Q-621.5 382.2 -621.5 383.55 -621.5 384.85 -622.5 385.85 L-622.5 385.8 Q-623.4 386.7 -624.75 386.7 -626.05 386.7 -626.95 385.85 L-626.95 385.8 Q-627.9 384.85 -627.9 383.55 -627.9 382.2 -626.95 381.25 -626.05 380.4 -624.75 380.4 -623.4 380.4 -622.5 381.25 M-794.2 381.25 Q-793.3 380.4 -791.95 380.4 -790.65 380.4 -789.75 381.25 -788.8 382.2 -788.8 383.55 -788.8 384.85 -789.75 385.8 L-789.75 385.85 Q-790.65 386.7 -791.95 386.7 -793.3 386.7 -794.2 385.8 L-794.2 385.85 Q-795.2 384.85 -795.2 383.55 -795.2 382.2 -794.2 381.25 M-811.3 382.6 L-798.4 370.0 Q-797.8 369.45 -797.15 369.45 -796.3 369.45 -795.9 370.05 -795.35 370.55 -795.35 371.25 -795.35 371.95 -795.95 372.5 L-807.55 383.8 -795.95 394.5 -795.95 394.45 Q-795.35 394.95 -795.35 395.75 -795.35 396.4 -795.8 396.95 L-795.85 397.0 Q-796.25 397.45 -797.05 397.45 -797.75 397.45 -798.35 397.05 L-798.4 397.05 -811.35 385.15 -811.4 385.1 -811.8 384.4 -811.8 384.25 -811.8 383.5 -811.8 383.45 -811.3 382.6" fill="#4a4c82" fill-rule="evenodd" stroke="none"/>
  </g>
</svg>
