<?xml version="1.0" encoding="UTF-8" standalone="no"?>
<svg xmlns:xlink="http://www.w3.org/1999/xlink" height="71.75px" width="844.25px" xmlns="http://www.w3.org/2000/svg">
  <g transform="matrix(1.0, 0.0, 0.0, 1.0, 409.9, 35.55)">
    <path d="M209.45 -10.6 L293.45 -10.6 293.45 34.4 209.45 34.4 209.45 -10.6" fill="#4b5262" fill-opacity="0.1764706" fill-rule="evenodd" stroke="none"/>
    <path d="M380.05 25.8 L380.05 -25.15 Q380.05 -34.95 389.85 -34.95 L423.95 -34.95 Q433.75 -34.95 433.75 -25.15 L433.75 25.8 Q433.75 35.6 423.95 35.6 L389.85 35.6 Q380.05 35.6 380.05 25.8 M382.05 -25.65 L382.05 25.3 Q382.05 33.1 389.85 33.1 L423.95 33.1 Q431.75 33.1 431.75 25.3 L431.75 -25.65 Q431.75 -33.45 423.95 -33.45 L389.85 -33.45 Q382.05 -33.45 382.05 -25.65" fill="url(#gradient0)" fill-rule="evenodd" stroke="none"/>
    <path d="M382.05 -25.65 Q382.05 -33.45 389.85 -33.45 L423.95 -33.45 Q431.75 -33.45 431.75 -25.65 L431.75 25.3 Q431.75 33.1 423.95 33.1 L389.85 33.1 Q382.05 33.1 382.05 25.3 L382.05 -25.65" fill="url(#gradient1)" fill-rule="evenodd" stroke="none"/>
    <path d="M-409.5 26.2 L-409.5 9.85 Q-409.5 1.0 -399.7 1.0 L-389.6 1.0 Q-379.8 1.0 -379.8 9.85 L-379.8 26.2 Q-379.8 35.05 -389.6 35.05 L-399.7 35.05 Q-409.5 35.05 -409.5 26.2" fill="#c3c2e9" fill-rule="evenodd" stroke="none"/>
    <path d="M-409.5 -9.55 L-409.5 -25.9 Q-409.5 -34.75 -399.7 -34.75 L-389.6 -34.75 Q-379.8 -34.75 -379.8 -25.9 L-379.8 -9.55 Q-379.8 -0.7 -389.6 -0.7 L-399.7 -0.7 Q-409.5 -0.7 -409.5 -9.55" fill="#9493b1" fill-rule="evenodd" stroke="none"/>
    <path d="M380.05 25.8 L380.05 -25.15 Q380.05 -34.95 389.85 -34.95 L423.95 -34.95 Q433.75 -34.95 433.75 -25.15 L433.75 25.8 Q433.75 35.6 423.95 35.6 L389.85 35.6 Q380.05 35.6 380.05 25.8" fill="none" stroke="#212c41" stroke-linecap="round" stroke-linejoin="round" stroke-opacity="0.54901963" stroke-width="1.2000000000000002"/>
    <path d="M-409.5 26.2 L-409.5 9.85 Q-409.5 1.0 -399.7 1.0 L-389.6 1.0 Q-379.8 1.0 -379.8 9.85 L-379.8 26.2 Q-379.8 35.05 -389.6 35.05 L-399.7 35.05 Q-409.5 35.05 -409.5 26.2" fill="none" stroke="#212c41" stroke-linecap="round" stroke-linejoin="round" stroke-opacity="0.54901963" stroke-width="0.8"/>
    <path d="M-409.5 -9.55 L-409.5 -25.9 Q-409.5 -34.75 -399.7 -34.75 L-389.6 -34.75 Q-379.8 -34.75 -379.8 -25.9 L-379.8 -9.55 Q-379.8 -0.7 -389.6 -0.7 L-399.7 -0.7 Q-409.5 -0.7 -409.5 -9.55" fill="none" stroke="#411919" stroke-linecap="round" stroke-linejoin="round" stroke-opacity="0.54901963" stroke-width="0.8"/>
    <path d="M413.9 9.3 L407.2 21.6 400.3 9.3 413.9 9.3" fill="#78719c" fill-rule="evenodd" stroke="none"/>
    <path d="M-396.0 18.85 L-396.0 14.15 -399.85 14.15 -399.85 11.85 -396.0 11.85 -396.0 7.35 -393.7 7.35 -393.7 11.85 -389.9 11.85 -389.9 14.15 -393.7 14.15 -393.7 18.85 -396.0 18.85 M-389.15 23.45 L-394.7 30.1 -400.15 23.45 -389.15 23.45" fill="#3e476d" fill-rule="evenodd" stroke="none"/>
    <path d="M-388.4 -23.55 L-392.5 -17.25 -388.25 -10.7 -388.2 -10.35 -388.35 -10.05 -388.7 -9.95 -391.65 -9.95 -391.9 -10.0 -392.05 -10.15 -394.55 -14.05 -397.0 -10.15 -397.2 -10.0 -397.45 -9.95 -400.25 -9.95 -400.55 -10.05 -400.75 -10.35 -400.65 -10.7 -396.55 -17.25 -400.55 -23.55 -400.65 -23.9 -400.45 -24.2 -400.15 -24.35 -397.3 -24.35 -397.05 -24.25 -396.85 -24.1 -394.55 -20.45 -392.2 -24.1 -392.05 -24.25 -391.8 -24.35 -388.85 -24.35 -388.5 -24.2 -388.35 -23.9 -388.4 -23.55" fill="#431717" fill-opacity="0.8862745" fill-rule="evenodd" stroke="none"/>
    <path d="M-396.0 18.85 L-396.0 14.15 -399.85 14.15 -399.85 11.85 -396.0 11.85 -396.0 7.35 -393.7 7.35 -393.7 11.85 -389.9 11.85 -389.9 14.15 -393.7 14.15 -393.7 18.85 -396.0 18.85 M-389.15 23.45 L-394.7 30.1 -400.15 23.45 -389.15 23.45" fill="none" stroke="#e2ebff" stroke-linecap="round" stroke-linejoin="round" stroke-opacity="0.54901963" stroke-width="0.05"/>
    <path d="M-388.4 -23.55 L-392.5 -17.25 -388.25 -10.7 -388.2 -10.35 -388.35 -10.05 -388.7 -9.95 -391.65 -9.95 -391.9 -10.0 -392.05 -10.15 -394.55 -14.05 -397.0 -10.15 -397.2 -10.0 -397.45 -9.95 -400.25 -9.95 -400.55 -10.05 -400.75 -10.35 -400.65 -10.7 -396.55 -17.25 -400.55 -23.55 -400.65 -23.9 -400.45 -24.2 -400.15 -24.35 -397.3 -24.35 -397.05 -24.25 -396.85 -24.1 -394.55 -20.45 -392.2 -24.1 -392.05 -24.25 -391.8 -24.35 -388.85 -24.35 -388.5 -24.2 -388.35 -23.9 -388.4 -23.55" fill="none" stroke="#000000" stroke-linecap="round" stroke-linejoin="round" stroke-opacity="0.29803923" stroke-width="0.8"/>
  </g>
  <defs>
    <linearGradient gradientTransform="matrix(0.0, -0.0397, 0.0328, 0.0, 406.9, 1.35)" gradientUnits="userSpaceOnUse" id="gradient0" spreadMethod="pad" x1="-819.2" x2="819.2">
      <stop offset="0.0" stop-color="#8f88bd"/>
      <stop offset="1.0" stop-color="#746ab6"/>
    </linearGradient>
    <linearGradient gradientTransform="matrix(0.0, -0.0397, 0.0328, 0.0, 406.9, 0.85)" gradientUnits="userSpaceOnUse" id="gradient1" spreadMethod="pad" x1="-819.2" x2="819.2">
      <stop offset="0.0" stop-color="#e0d7ff"/>
      <stop offset="1.0" stop-color="#c0b7ff"/>
    </linearGradient>
  </defs>
</svg>
