<?xml version="1.0" encoding="UTF-8" standalone="no"?>
<svg xmlns:xlink="http://www.w3.org/1999/xlink" height="64.8px" width="166.85px" xmlns="http://www.w3.org/2000/svg">
  <g transform="matrix(1.0, 0.0, 0.0, 1.0, 83.4, 32.4)">
    <path d="M-73.1 -31.9 L73.1 -31.9 Q82.95 -31.9 82.95 -22.05 L82.95 22.05 Q82.95 31.9 73.1 31.9 L-73.1 31.9 Q-82.9 31.9 -82.9 22.05 L-82.9 -22.05 Q-82.9 -31.9 -73.1 -31.9" fill="#f53e3e" fill-rule="evenodd" stroke="none"/>
    <path d="M-73.1 -31.9 L73.1 -31.9 Q82.95 -31.9 82.95 -22.05 L82.95 22.05 Q82.95 31.9 73.1 31.9 L-73.1 31.9 Q-82.9 31.9 -82.9 22.05 L-82.9 -22.05 Q-82.9 -31.9 -73.1 -31.9 Z" fill="none" stroke="#000000" stroke-linecap="round" stroke-linejoin="round" stroke-width="1.0"/>
  </g>
</svg>
