<?xml version="1.0" encoding="UTF-8" standalone="no"?>
<svg xmlns:xlink="http://www.w3.org/1999/xlink" height="64.8px" width="166.85px" xmlns="http://www.w3.org/2000/svg">
  <g transform="matrix(1.0, 0.0, 0.0, 1.0, 83.4, 32.4)">
    <path d="M-73.1 -31.9 L73.1 -31.9 Q82.95 -31.9 82.95 -22.05 L82.95 22.05 Q82.95 31.9 73.1 31.9 L-73.1 31.9 Q-82.9 31.9 -82.9 22.05 L-82.9 -22.05 Q-82.9 -31.9 -73.1 -31.9" fill="url(#gradient0)" fill-rule="evenodd" stroke="none"/>
    <path d="M-73.1 -31.9 L73.1 -31.9 Q82.95 -31.9 82.95 -22.05 L82.95 22.05 Q82.95 31.9 73.1 31.9 L-73.1 31.9 Q-82.9 31.9 -82.9 22.05 L-82.9 -22.05 Q-82.9 -31.9 -73.1 -31.9 Z" fill="none" stroke="#000000" stroke-linecap="round" stroke-linejoin="round" stroke-width="1.0"/>
  </g>
  <defs>
    <linearGradient gradientTransform="matrix(0.0, 0.0341, -0.1012, 0.0, 0.05, -0.7)" gradientUnits="userSpaceOnUse" id="gradient0" spreadMethod="pad" x1="-819.2" x2="819.2">
      <stop offset="0.0" stop-color="#fffbcd"/>
      <stop offset="0.5372549019607843" stop-color="#d0f5ff"/>
      <stop offset="1.0" stop-color="#ffcbf6"/>
    </linearGradient>
  </defs>
</svg>
