<?xml version="1.0" encoding="UTF-8" standalone="no"?>
<svg xmlns:xlink="http://www.w3.org/1999/xlink" height="69.6px" width="162.5px" xmlns="http://www.w3.org/2000/svg">
  <g transform="matrix(1.0, 0.0, 0.0, 1.0, 81.25, 34.8)">
    <path d="M-77.15 26.95 Q-80.75 22.15 -80.75 13.8 L-80.75 -14.8 Q-80.75 -34.3 -61.25 -34.3 L61.25 -34.3 Q80.75 -34.3 80.75 -14.8 L80.75 13.8 Q80.75 33.3 61.25 33.3 L-61.25 33.3 Q-68.35 33.3 -72.85 30.75 -72.9 32.2 -73.95 33.2 -75.0 34.3 -76.55 34.3 -78.1 34.3 -79.2 33.2 -80.25 32.15 -80.25 30.6 -80.25 29.05 -79.2 27.95 -78.3 27.1 -77.15 26.95 L-76.55 26.9 Q-75.0 26.9 -73.95 27.95 -72.85 29.05 -72.85 30.6 L-72.85 30.75 -72.85 30.6 Q-72.85 29.05 -73.95 27.95 -75.0 26.9 -76.55 26.9 L-77.15 26.95 M-65.6 24.2 Q-65.6 22.3 -66.95 20.95 -68.25 19.65 -70.15 19.65 -72.05 19.65 -73.4 20.95 -74.7 22.3 -74.7 24.2 -74.7 26.1 -73.4 27.4 -72.05 28.75 -70.15 28.75 -68.25 28.75 -66.95 27.4 -65.6 26.1 -65.6 24.2 -65.6 26.1 -66.95 27.4 -68.25 28.75 -70.15 28.75 -72.05 28.75 -73.4 27.4 -74.7 26.1 -74.7 24.2 -74.7 22.3 -73.4 20.95 -72.05 19.65 -70.15 19.65 -68.25 19.65 -66.95 20.95 -65.6 22.3 -65.6 24.2" fill="#e99b6a" fill-rule="evenodd" stroke="none"/>
    <path d="M-77.15 26.95 Q-80.75 22.15 -80.75 13.8 L-80.75 -14.8 Q-80.75 -34.3 -61.25 -34.3 L61.25 -34.3 Q80.75 -34.3 80.75 -14.8 L80.75 13.8 Q80.75 33.3 61.25 33.3 L-61.25 33.3 Q-68.35 33.3 -72.85 30.75 -72.9 32.2 -73.95 33.2 -75.0 34.3 -76.55 34.3 -78.1 34.3 -79.2 33.2 -80.25 32.15 -80.25 30.6 -80.25 29.05 -79.2 27.95 -78.3 27.1 -77.15 26.95 L-76.55 26.9 Q-75.0 26.9 -73.95 27.95 -72.85 29.05 -72.85 30.6 L-72.85 30.75 M-65.6 24.2 Q-65.6 26.1 -66.95 27.4 -68.25 28.75 -70.15 28.75 -72.05 28.75 -73.4 27.4 -74.7 26.1 -74.7 24.2 -74.7 22.3 -73.4 20.95 -72.05 19.65 -70.15 19.65 -68.25 19.65 -66.95 20.95 -65.6 22.3 -65.6 24.2" fill="none" stroke="#000000" stroke-linecap="round" stroke-linejoin="round" stroke-width="1.0"/>
  </g>
</svg>
