<?xml version="1.0" encoding="UTF-8" standalone="no"?>
<svg xmlns:xlink="http://www.w3.org/1999/xlink" height="42.45px" width="29.35px" xmlns="http://www.w3.org/2000/svg">
  <g transform="matrix(1.0, 0.0, 0.0, 1.0, 11.9, 22.35)">
    <path d="M-3.55 -10.4 L-3.5 -10.35 Q1.05 -16.3 10.25 -11.45 13.05 -10.0 16.3 -7.55 17.35 -13.5 11.8 -18.2 6.2 -22.9 -0.6 -20.6 -7.15 -18.4 -4.5 -15.15 -6.7 -12.55 -3.55 -10.4 L-3.65 -9.55 Q-6.35 -4.35 -8.05 1.15 L-10.2 8.4 Q-12.5 16.2 -7.0 18.5 -1.55 20.8 1.5 13.95 3.6 9.95 5.0 6.55 8.35 -1.55 9.6 -8.8" fill="none" stroke="#000000" stroke-linecap="round" stroke-linejoin="round" stroke-width="2.0"/>
  </g>
</svg>
