<?xml version="1.0" encoding="UTF-8" standalone="no"?>
<svg xmlns:xlink="http://www.w3.org/1999/xlink" height="71.35px" width="171.65px" xmlns="http://www.w3.org/2000/svg">
  <g transform="matrix(1.0, 0.0, 0.0, 1.0, 85.8, 35.65)">
    <path d="M-82.5 -13.65 L-84.3 -24.25 -78.95 -27.3 -79.2 -32.1 -64.8 -31.1 -60.0 -34.4 -43.0 -31.6 -24.55 -35.15 -10.35 -31.35 6.1 -34.9 23.3 -30.6 36.75 -34.15 53.45 -30.6 65.6 -34.15 75.2 -29.35 82.05 -31.85 81.3 -25.05 85.35 -22.25 82.05 -16.15 84.8 -5.55 81.8 2.55 84.8 9.15 82.3 16.75 84.8 25.6 80.25 28.9 81.05 32.95 71.15 31.65 68.9 34.2 50.4 31.95 42.05 34.2 29.15 31.4 20.8 34.2 8.9 31.4 -4.8 34.45 -17.45 30.65 -31.65 35.2 -43.25 31.15 -53.65 34.2 -59.75 30.9 -69.1 33.95 -73.9 29.9 -77.95 32.7 -78.7 28.4 -84.55 28.65 -81.25 21.3 -85.3 12.45 -81.5 4.6 -85.3 -4.0 -82.5 -13.65" fill="#ffd0f1" fill-rule="evenodd" stroke="none"/>
    <path d="M-82.5 -13.65 L-84.3 -24.25 -78.95 -27.3 -79.2 -32.1 -64.8 -31.1 -60.0 -34.4 -43.0 -31.6 -24.55 -35.15 -10.35 -31.35 6.1 -34.9 23.3 -30.6 36.75 -34.15 53.45 -30.6 65.6 -34.15 75.2 -29.35 82.05 -31.85 81.3 -25.05 85.35 -22.25 82.05 -16.15 84.8 -5.55 81.8 2.55 84.8 9.15 82.3 16.75 84.8 25.6 80.25 28.9 81.05 32.95 71.15 31.65 68.9 34.2 50.4 31.95 42.05 34.2 29.15 31.4 20.8 34.2 8.9 31.4 -4.8 34.45 -17.45 30.65 -31.65 35.2 -43.25 31.15 -53.65 34.2 -59.75 30.9 -69.1 33.95 -73.9 29.9 -77.95 32.7 -78.7 28.4 -84.55 28.65 -81.25 21.3 -85.3 12.45 -81.5 4.6 -85.3 -4.0 -82.5 -13.65 Z" fill="none" stroke="#000000" stroke-linecap="round" stroke-linejoin="round" stroke-width="1.0"/>
  </g>
</svg>
