<?xml version="1.0" encoding="UTF-8" standalone="no"?>
<svg xmlns:xlink="http://www.w3.org/1999/xlink" height="23.85px" width="19.5px" xmlns="http://www.w3.org/2000/svg">
  <g transform="matrix(1.0, 0.0, 0.0, 1.0, 7.8, 18.55)">
    <path d="M7.0 0.4 L8.3 -1.3 Q10.75 -4.95 10.7 -7.8 10.6 -13.95 8.25 -17.55 0.75 -17.15 -3.15 -11.7 L-3.7 -9.55 Q-6.0 -8.55 -6.2 -7.05 L-5.6 -3.4 Q-7.15 -1.55 -6.7 -0.1 -6.3 1.3 -1.9 3.0 2.45 4.7 5.1 4.15 6.45 2.5 7.0 0.4" fill="none" stroke="#000000" stroke-linecap="round" stroke-linejoin="round" stroke-width="2.0"/>
    <path d="M-5.6 -3.4 Q-4.55 -2.4 -2.1 -1.4 0.35 -0.4 3.0 0.2 L7.0 0.4 Z" fill="none" stroke="#000000" stroke-linecap="round" stroke-linejoin="round" stroke-width="1.5"/>
  </g>
</svg>
