<?xml version="1.0" encoding="UTF-8" standalone="no"?>
<svg xmlns:xlink="http://www.w3.org/1999/xlink" height="130.8px" width="181.05px" xmlns="http://www.w3.org/2000/svg">
  <g transform="matrix(1.0, 0.0, 0.0, 1.0, 91.0, 50.2)">
    <path d="M74.55 -50.2 Q90.05 -50.2 90.05 -34.7 L90.05 65.1 Q90.05 80.6 74.55 80.6 L-75.5 80.6 Q-91.0 80.6 -91.0 65.1 L-91.0 -34.7 Q-91.0 -50.2 -75.5 -50.2 L74.55 -50.2" fill="#1d214a" fill-opacity="0.6862745" fill-rule="evenodd" stroke="none"/>
    <path d="M87.55 48.3 L87.55 63.85 Q87.55 76.85 74.55 76.85 L-75.5 76.85 Q-88.5 76.85 -88.5 63.85 L-88.5 48.3 87.55 48.3" fill="url(#gradient0)" fill-rule="evenodd" stroke="none"/>
    <path d="M-88.5 48.3 L-88.5 -35.95 Q-88.5 -48.95 -75.5 -48.95 L74.55 -48.95 Q87.55 -48.95 87.55 -35.95 L87.55 48.3 -88.5 48.3" fill="url(#gradient1)" fill-rule="evenodd" stroke="none"/>
    <path d="M-88.5 48.3 L-88.5 -35.95 Q-88.5 -48.95 -75.5 -48.95 L74.55 -48.95 Q87.55 -48.95 87.55 -35.95 L87.55 48.3 87.55 63.85 Q87.55 76.85 74.55 76.85 L-75.5 76.85 Q-88.5 76.85 -88.5 63.85 L-88.5 48.3 87.55 48.3" fill="none" stroke="#d1dfe5" stroke-linecap="round" stroke-linejoin="round" stroke-opacity="0.44705883" stroke-width="2.0"/>
  </g>
  <defs>
    <linearGradient gradientTransform="matrix(0.0, 0.0157, -0.1075, 0.0, -0.45, 62.4)" gradientUnits="userSpaceOnUse" id="gradient0" spreadMethod="pad" x1="-819.2" x2="819.2">
      <stop offset="0.0" stop-color="#414f66"/>
      <stop offset="0.9921568627450981" stop-color="#3f435b"/>
    </linearGradient>
    <linearGradient gradientTransform="matrix(0.0, -0.0581, 0.1075, 0.0, -0.5, 0.35)" gradientUnits="userSpaceOnUse" id="gradient1" spreadMethod="pad" x1="-819.2" x2="819.2">
      <stop offset="0.0" stop-color="#cbd5ff"/>
      <stop offset="0.9921568627450981" stop-color="#b1abd7"/>
    </linearGradient>
  </defs>
</svg>
