<?xml version="1.0" encoding="UTF-8" standalone="no"?>
<svg xmlns:xlink="http://www.w3.org/1999/xlink" height="576.35px" width="1020.1px" xmlns="http://www.w3.org/2000/svg">
  <g transform="matrix(1.0, 0.0, 0.0, 1.0, 1086.95, 163.15)">
    <path d="M-1076.85 -162.65 L-78.4 -162.65 -78.4 412.7 -1076.85 412.7 -1076.85 -162.65" fill="#1d2035" fill-opacity="0.5882353" fill-rule="evenodd" stroke="none"/>
    <path d="M-1076.85 -162.65 L-78.4 -162.65 -78.4 412.7 -1076.85 412.7 -1076.85 -162.65 Z" fill="none" stroke="#000000" stroke-linecap="round" stroke-linejoin="round" stroke-opacity="0.54901963" stroke-width="1.0"/>
    <path d="M-1085.95 -20.35 L-67.85 -20.35 -67.85 263.75 -1085.95 263.75 -1085.95 -20.35" fill="#bda8ff" fill-opacity="0.6" fill-rule="evenodd" stroke="none"/>
    <path d="M-1085.95 -20.35 L-67.85 -20.35 -67.85 263.75 -1085.95 263.75 -1085.95 -20.35 Z" fill="none" stroke="#d1dfe5" stroke-linecap="round" stroke-linejoin="round" stroke-opacity="0.44705883" stroke-width="2.0"/>
    <path d="M-654.45 284.0 L-509.3 284.0 Q-496.3 284.0 -496.3 297.0 L-496.3 322.65 Q-496.3 335.65 -509.3 335.65 L-654.45 335.65 Q-667.45 335.65 -667.45 322.65 L-667.45 297.0 Q-667.45 284.0 -654.45 284.0 M-499.8 297.0 Q-499.8 287.5 -509.3 287.5 L-654.45 287.5 Q-663.95 287.5 -663.95 297.0 L-663.95 322.65 Q-663.95 332.15 -654.45 332.15 L-509.3 332.15 Q-499.8 332.15 -499.8 322.65 L-499.8 297.0" fill="#512b2b" fill-opacity="0.92941177" fill-rule="evenodd" stroke="none"/>
    <path d="M-499.8 297.0 L-499.8 322.65 Q-499.8 332.15 -509.3 332.15 L-654.45 332.15 Q-663.95 332.15 -663.95 322.65 L-663.95 297.0 Q-663.95 287.5 -654.45 287.5 L-509.3 287.5 Q-499.8 287.5 -499.8 297.0" fill="#6b3939" fill-opacity="0.92941177" fill-rule="evenodd" stroke="none"/>
    <path d="M-654.45 284.0 L-509.3 284.0 Q-496.3 284.0 -496.3 297.0 L-496.3 322.65 Q-496.3 335.65 -509.3 335.65 L-654.45 335.65 Q-667.45 335.65 -667.45 322.65 L-667.45 297.0 Q-667.45 284.0 -654.45 284.0 Z" fill="none" stroke="#e5b6b6" stroke-linecap="round" stroke-linejoin="round" stroke-opacity="0.44705883" stroke-width="2.0"/>
  </g>
</svg>
