<?xml version="1.0" encoding="UTF-8" standalone="no"?>
<svg xmlns:xlink="http://www.w3.org/1999/xlink" height="96.75px" width="126.65px" xmlns="http://www.w3.org/2000/svg">
  <g transform="matrix(1.0, 0.0, 0.0, 1.0, 64.65, 48.35)">
    <path d="M-59.65 -41.1 L-59.65 38.45 Q-59.65 41.9 -56.25 41.9 L53.6 41.9 Q57.0 41.9 57.0 38.45 L57.0 -41.1 Q57.0 -44.6 53.6 -44.6 L-56.25 -44.6 Q-59.65 -44.6 -59.65 -41.1 M-56.25 -47.85 L53.6 -47.85 Q61.5 -47.85 61.5 -39.75 L61.5 39.8 Q61.5 47.9 53.6 47.9 L-56.25 47.9 Q-64.15 47.9 -64.15 39.8 L-64.15 -39.75 Q-64.15 -47.85 -56.25 -47.85" fill="#2c4d33" fill-rule="evenodd" stroke="none"/>
    <path d="M-51.45 -42.05 Q-57.2 -42.05 -57.2 -36.25 L-57.2 33.85 Q-57.2 39.65 -51.45 39.65 L49.0 39.65 Q54.8 39.65 54.8 33.85 L54.8 -36.25 Q54.8 -42.05 49.0 -42.05 L-51.45 -42.05 M-59.65 -41.1 Q-59.65 -44.6 -56.25 -44.6 L53.6 -44.6 Q57.0 -44.6 57.0 -41.1 L57.0 38.45 Q57.0 41.9 53.6 41.9 L-56.25 41.9 Q-59.65 41.9 -59.65 38.45 L-59.65 -41.1" fill="#467951" fill-rule="evenodd" stroke="none"/>
    <path d="M-51.45 -42.05 L49.0 -42.05 Q54.8 -42.05 54.8 -36.25 L54.8 33.85 Q54.8 39.65 49.0 39.65 L-51.45 39.65 Q-57.2 39.65 -57.2 33.85 L-57.2 -36.25 Q-57.2 -42.05 -51.45 -42.05" fill="#244839" fill-rule="evenodd" stroke="none"/>
    <path d="M-56.25 -47.85 L53.6 -47.85 Q61.5 -47.85 61.5 -39.75 L61.5 39.8 Q61.5 47.9 53.6 47.9 L-56.25 47.9 Q-64.15 47.9 -64.15 39.8 L-64.15 -39.75 Q-64.15 -47.85 -56.25 -47.85" fill="none" stroke="#000000" stroke-linecap="round" stroke-linejoin="round" stroke-width="1.0"/>
    <path d="M-51.45 -42.05 L49.0 -42.05 Q54.8 -42.05 54.8 -36.25 L54.8 33.85 Q54.8 39.65 49.0 39.65 L-51.45 39.65 Q-57.2 39.65 -57.2 33.85 L-57.2 -36.25 Q-57.2 -42.05 -51.45 -42.05" fill="none" stroke="#70ff94" stroke-linecap="round" stroke-linejoin="round" stroke-opacity="0.36862746" stroke-width="1.0"/>
    <path d="M26.0 5.25 Q32.0 -7.2 39.35 -17.45 L46.85 -8.65 Q34.7 -0.6 25.9 14.15 18.8 7.8 16.0 1.5 L20.05 -2.6 Q21.6 1.35 25.4 5.35 L25.65 5.45 25.85 5.45 26.0 5.25" fill="#6fc281" fill-rule="evenodd" stroke="none"/>
  </g>
</svg>
