<?xml version="1.0" encoding="UTF-8" standalone="no"?>
<svg xmlns:xlink="http://www.w3.org/1999/xlink" height="55.95px" width="632.4px" xmlns="http://www.w3.org/2000/svg">
  <g transform="matrix(1.0, 0.0, 0.0, 1.0, 315.95, 28.0)">
    <path d="M189.85 -27.0 L315.45 -27.0 315.45 26.95 189.85 26.95 189.85 -27.0" fill="#4a436b" fill-rule="evenodd" stroke="none"/>
    <path d="M189.85 26.95 L63.3 26.95 -63.35 26.95 -190.05 26.95 -315.45 26.95 -315.45 -27.0 -190.05 -27.0 -63.35 -27.0 63.3 -27.0 189.85 -27.0 189.85 26.95 M-190.05 -27.0 L-190.05 26.95 -190.05 -27.0 M-63.35 -27.0 L-63.35 26.95 -63.35 -27.0 M63.3 -27.0 L63.3 26.95 63.3 -27.0" fill="#332f4d" fill-rule="evenodd" stroke="none"/>
    <path d="M189.85 26.95 L63.3 26.95 -63.35 26.95 -190.05 26.95 -315.45 26.95 -315.45 -27.0 -190.05 -27.0 -63.35 -27.0 63.3 -27.0 189.85 -27.0 M63.3 26.95 L63.3 -27.0 M-63.35 26.95 L-63.35 -27.0 M-190.05 26.95 L-190.05 -27.0" fill="none" stroke="#000000" stroke-linecap="round" stroke-linejoin="round" stroke-width="1.0"/>
    <path d="M189.85 -27.0 L315.45 -27.0 315.45 26.95 189.85 26.95 189.85 -27.0" fill="none" stroke="#ffffff" stroke-linecap="round" stroke-linejoin="round" stroke-opacity="0.627451" stroke-width="2.0"/>
  </g>
</svg>
