<?xml version="1.0" encoding="UTF-8" standalone="no"?>
<svg xmlns:xlink="http://www.w3.org/1999/xlink" height="590.15px" width="998.45px" xmlns="http://www.w3.org/2000/svg">
  <g transform="matrix(1.0, 0.0, 0.0, 1.0, 1076.85, 222.6)">
    <path d="M-1076.85 -207.8 L-78.4 -207.8 -78.4 367.55 -1076.85 367.55 -1076.85 -207.8" fill="#21233a" fill-opacity="0.5882353" fill-rule="evenodd" stroke="none"/>
    <path d="M-78.4 -47.1 L-1076.85 -47.1 -1076.85 -222.6 -79.3 -222.6 -78.4 -47.1" fill="#15192a" fill-opacity="0.6784314" fill-rule="evenodd" stroke="none"/>
    <path d="M-849.35 -136.65 L-334.0 -136.65 Q-327.0 -136.65 -327.0 -128.55 L-327.0 -59.65 Q-327.0 -51.55 -334.0 -51.55 L-849.35 -51.55 Q-856.35 -51.55 -856.35 -59.65 L-856.35 -128.55 Q-856.35 -136.65 -849.35 -136.65" fill="#f5f5f5" fill-rule="evenodd" stroke="none"/>
    <path d="M-991.7 -46.6 L-929.6 -46.6 Q-916.3 -46.6 -916.3 -33.3 L-916.3 29.4 Q-916.3 42.7 -929.6 42.7 L-991.7 42.7 Q-1005.0 42.7 -1005.0 29.4 L-1005.0 -33.3 Q-1005.0 -46.6 -991.7 -46.6 M-898.45 -46.6 L-836.35 -46.6 Q-823.05 -46.6 -823.05 -33.3 L-823.05 29.4 Q-823.05 42.7 -836.35 42.7 L-898.45 42.7 Q-911.75 42.7 -911.75 29.4 L-911.75 -33.3 Q-911.75 -46.6 -898.45 -46.6 M-805.85 -46.6 L-743.75 -46.6 Q-730.45 -46.6 -730.45 -33.3 L-730.45 29.4 Q-730.45 42.7 -743.75 42.7 L-805.85 42.7 Q-819.15 42.7 -819.15 29.4 L-819.15 -33.3 Q-819.15 -46.6 -805.85 -46.6" fill="#171c23" fill-opacity="0.81960785" fill-rule="evenodd" stroke="none"/>
    <path d="M-849.35 -136.65 L-334.0 -136.65 Q-327.0 -136.65 -327.0 -128.55 L-327.0 -59.65 Q-327.0 -51.55 -334.0 -51.55 L-849.35 -51.55 Q-856.35 -51.55 -856.35 -59.65 L-856.35 -128.55 Q-856.35 -136.65 -849.35 -136.65" fill="none" stroke="#000000" stroke-linecap="round" stroke-linejoin="round" stroke-width="1.5"/>
    <path d="M-991.7 -46.6 L-929.6 -46.6 Q-916.3 -46.6 -916.3 -33.3 L-916.3 29.4 Q-916.3 42.7 -929.6 42.7 L-991.7 42.7 Q-1005.0 42.7 -1005.0 29.4 L-1005.0 -33.3 Q-1005.0 -46.6 -991.7 -46.6 M-898.45 -46.6 L-836.35 -46.6 Q-823.05 -46.6 -823.05 -33.3 L-823.05 29.4 Q-823.05 42.7 -836.35 42.7 L-898.45 42.7 Q-911.75 42.7 -911.75 29.4 L-911.75 -33.3 Q-911.75 -46.6 -898.45 -46.6 M-805.85 -46.6 L-743.75 -46.6 Q-730.45 -46.6 -730.45 -33.3 L-730.45 29.4 Q-730.45 42.7 -743.75 42.7 L-805.85 42.7 Q-819.15 42.7 -819.15 29.4 L-819.15 -33.3 Q-819.15 -46.6 -805.85 -46.6" fill="none" stroke="#cdd5ff" stroke-linecap="round" stroke-linejoin="round" stroke-opacity="0.5294118" stroke-width="1.0"/>
    <path d="M-240.15 -120.2 L-240.15 -67.35 Q-240.15 -65.05 -237.9 -65.05 L-164.9 -65.05 Q-162.65 -65.05 -162.65 -67.35 L-162.65 -120.2 Q-162.65 -122.55 -164.9 -122.55 L-237.9 -122.55 Q-240.15 -122.55 -240.15 -120.2 M-237.9 -124.7 L-164.9 -124.7 Q-159.65 -124.7 -159.65 -119.3 L-159.65 -66.45 Q-159.65 -61.05 -164.9 -61.05 L-237.9 -61.05 Q-241.1 -61.05 -242.35 -63.05 -243.15 -64.35 -243.15 -66.45 L-243.15 -119.3 Q-243.15 -121.45 -242.35 -122.65 -241.1 -124.7 -237.9 -124.7" fill="#2c4d33" fill-rule="evenodd" stroke="none"/>
    <path d="M-240.15 -120.2 Q-240.15 -122.55 -237.9 -122.55 L-164.9 -122.55 Q-162.65 -122.55 -162.65 -120.2 L-162.65 -67.35 Q-162.65 -65.05 -164.9 -65.05 L-237.9 -65.05 Q-240.15 -65.05 -240.15 -67.35 L-240.15 -120.2" fill="#467951" fill-rule="evenodd" stroke="none"/>
    <path d="M-237.9 -124.7 L-164.9 -124.7 Q-159.65 -124.7 -159.65 -119.3 L-159.65 -66.45 Q-159.65 -61.05 -164.9 -61.05 L-237.9 -61.05 Q-241.1 -61.05 -242.35 -63.05 -243.15 -64.35 -243.15 -66.45 L-243.15 -119.3 Q-243.15 -121.45 -242.35 -122.65 -241.1 -124.7 -237.9 -124.7 Z" fill="none" stroke="#000000" stroke-linecap="round" stroke-linejoin="round" stroke-width="1.0"/>
  </g>
</svg>
