<?xml version="1.0" encoding="UTF-8" standalone="no"?>
<svg xmlns:xlink="http://www.w3.org/1999/xlink" height="565.65px" width="992.4px" xmlns="http://www.w3.org/2000/svg">
  <g transform="matrix(1.0, 0.0, 0.0, 1.0, 1080.35, 249.45)">
    <path d="M-271.95 -249.45 L-87.95 -249.45 -87.95 27.05 -271.95 27.05 -271.95 -249.45 M-87.95 91.05 L-87.95 316.2 -271.95 316.2 -271.95 91.05 -87.95 91.05" fill="#5b678a" fill-opacity="0.9098039" fill-rule="evenodd" stroke="none"/>
    <path d="M-271.95 316.2 L-1080.35 316.2 -1080.35 -249.45 -271.95 -249.45 -271.95 27.05 -271.95 91.05 -271.95 316.2" fill="#262643" fill-opacity="0.9098039" fill-rule="evenodd" stroke="none"/>
    <path d="M-87.95 27.05 L-87.95 91.05 -271.95 91.05 -271.95 27.05 -87.95 27.05" fill="#c2c6ee" fill-opacity="0.9098039" fill-rule="evenodd" stroke="none"/>
    <path d="M-271.95 -249.45 L-87.95 -249.45 -87.95 27.05 -87.95 91.05 -87.95 316.2 -271.95 316.2 -271.95 91.05 -87.95 91.05 M-271.95 -249.45 L-271.95 27.05 -87.95 27.05 M-271.95 91.05 L-271.95 27.05" fill="none" stroke="#7ba0bb" stroke-linecap="round" stroke-linejoin="round" stroke-width="0.05"/>
  </g>
</svg>
