<?xml version="1.0" encoding="UTF-8" standalone="no"?>
<svg xmlns:xlink="http://www.w3.org/1999/xlink" height="203.25px" width="259.4px" xmlns="http://www.w3.org/2000/svg">
  <g transform="matrix(1.0, 0.0, 0.0, 1.0, 424.85, 63.7)">
    <path d="M-166.55 -32.9 L-166.25 -32.9 -166.25 34.95 -166.25 37.15 -166.25 66.75 -293.25 66.75 -293.25 2.4 -293.55 2.4 -293.55 -62.95 -166.55 -62.95 -166.55 -32.9 M-293.25 -32.9 L-293.25 2.4 -293.25 -32.9 M-423.85 29.2 L-423.85 -63.2 -296.85 -63.2 -296.85 29.2 -423.85 29.2" fill="#343648" fill-rule="evenodd" stroke="none"/>
    <path d="M-166.55 -32.9 L-166.55 -62.95 -293.55 -62.95 -293.55 2.4 -293.25 2.4 -293.25 -32.9 M-423.85 29.2 L-423.85 -63.2 -296.85 -63.2 -296.85 29.2 M-166.25 37.15 L-166.25 66.75 -293.25 66.75 -293.25 2.4 M-166.25 -32.9 L-166.25 34.95" fill="none" stroke="#000000" stroke-linecap="round" stroke-linejoin="round" stroke-width="1.0"/>
    <path d="M-165.95 92.65 L-165.95 139.05 -227.8 139.05 -227.8 92.65 -165.95 92.65 M-231.4 92.65 L-231.4 139.05 -293.2 139.05 -293.2 92.65 -231.4 92.65" fill="#4e516b" fill-rule="evenodd" stroke="none"/>
    <path d="M-227.8 92.65 L-227.8 73.0 -165.95 73.0 -165.95 92.65 -227.8 92.65 M-293.2 92.65 L-293.2 73.0 -231.4 73.0 -231.4 92.65 -293.2 92.65 M-424.35 73.0 L-296.55 73.0 -296.55 92.65 -424.35 92.65 -424.35 73.0" fill="#343648" fill-rule="evenodd" stroke="none"/>
    <path d="M-227.8 92.65 L-227.8 73.0 -165.95 73.0 -165.95 92.65 -165.95 139.05 -227.8 139.05 -227.8 92.65 -165.95 92.65 M-293.2 92.65 L-293.2 73.0 -231.4 73.0 -231.4 92.65 -231.4 139.05 -293.2 139.05 -293.2 92.65 -231.4 92.65 M-424.35 73.0 L-296.55 73.0 -296.55 92.65 -424.35 92.65 -424.35 73.0" fill="none" stroke="#000000" stroke-linecap="round" stroke-linejoin="round" stroke-width="1.0"/>
  </g>
</svg>
