<?xml version="1.0" encoding="UTF-8" standalone="no"?>
<svg xmlns:xlink="http://www.w3.org/1999/xlink" height="576.35px" width="999.45px" xmlns="http://www.w3.org/2000/svg">
  <g transform="matrix(1.0, 0.0, 0.0, 1.0, 1082.6, 301.75)">
    <path d="M-429.15 -301.25 L-83.65 -301.25 -83.65 -94.85 -428.75 -94.85 -428.75 142.7 -83.65 142.7 -83.65 274.1 -429.1 274.1 -429.15 -301.25" fill="#18152a" fill-opacity="0.81960785" fill-rule="evenodd" stroke="none"/>
    <path d="M-83.65 -94.85 L-83.65 142.7 -428.75 142.7 -428.75 -94.85 -83.65 -94.85" fill="#332e58" fill-opacity="0.81960785" fill-rule="evenodd" stroke="none"/>
    <path d="M-429.1 274.1 L-1082.1 274.1 -1082.1 -301.25 -429.15 -301.25 -429.1 274.1" fill="#242441" fill-opacity="0.80784315" fill-rule="evenodd" stroke="none"/>
    <path d="M-429.15 -301.25 L-83.65 -301.25 -83.65 -94.85 -83.65 142.7 -83.65 274.1 -429.1 274.1 -1082.1 274.1 -1082.1 -301.25 -429.15 -301.25 Z" fill="none" stroke="#000000" stroke-linecap="round" stroke-linejoin="round" stroke-opacity="0.54901963" stroke-width="1.0"/>
  </g>
</svg>
