<?xml version="1.0" encoding="UTF-8" standalone="no"?>
<svg xmlns:xlink="http://www.w3.org/1999/xlink" height="49.1px" width="134.6px" xmlns="http://www.w3.org/2000/svg">
  <g transform="matrix(1.0, 0.0, 0.0, 1.0, 67.3, 24.55)">
    <path d="M0.0 -24.05 L66.8 -24.05 66.8 24.05 0.0 24.05 -66.8 24.05 -66.8 -24.05 0.0 -24.05 0.0 24.05 0.0 -24.05" fill="#4e516b" fill-rule="evenodd" stroke="none"/>
    <path d="M0.0 -24.05 L66.8 -24.05 66.8 24.05 0.0 24.05 -66.8 24.05 -66.8 -24.05 0.0 -24.05 0.0 24.05" fill="none" stroke="#000000" stroke-linecap="round" stroke-linejoin="round" stroke-width="1.0"/>
    <path d="M26.9 -10.55 L42.25 -0.1 26.9 10.35 26.9 -10.55 M-26.5 -10.55 L-26.5 10.35 -41.85 -0.1 -26.5 -10.55" fill="#c3bfe0" fill-rule="evenodd" stroke="none"/>
    <path d="M26.9 -10.55 L26.9 10.35 42.25 -0.1 26.9 -10.55 M-26.5 -10.55 L-26.5 10.35 -41.85 -0.1 -26.5 -10.55" fill="none" stroke="#000000" stroke-linecap="round" stroke-linejoin="round" stroke-width="1.0"/>
  </g>
</svg>
