<?xml version="1.0" encoding="UTF-8" standalone="no"?>
<svg xmlns:xlink="http://www.w3.org/1999/xlink" height="577.2px" width="993.85px" xmlns="http://www.w3.org/2000/svg">
  <g transform="matrix(1.0, 0.0, 0.0, 1.0, 1079.35, 351.55)">
    <path d="M-86.5 -244.6 L-86.5 224.65 -604.85 224.65 -604.85 -244.6 -86.5 -244.6" fill="#767eb1" fill-opacity="0.9372549" fill-rule="evenodd" stroke="none"/>
    <path d="M-604.85 -345.25 L-604.85 -350.55 -86.5 -350.55 -86.5 -244.6 -604.85 -244.6 -604.85 -345.25" fill="#c1c4e5" fill-opacity="0.9372549" fill-rule="evenodd" stroke="none"/>
    <path d="M-604.85 224.65 L-1079.35 224.65 -1079.35 -346.45 -604.85 -345.25 -604.85 -244.6 -604.85 224.65" fill="#0b0b19" fill-opacity="0.007843138" fill-rule="evenodd" stroke="none"/>
    <path d="M-604.85 -345.25 L-604.85 -350.55 -86.5 -350.55 -86.5 -244.6 -86.5 224.65 -604.85 224.65 -604.85 -244.6 -604.85 -345.25" fill="none" stroke="#142558" stroke-linecap="round" stroke-linejoin="round" stroke-opacity="0.44705883" stroke-width="2.0"/>
    <path d="M-604.85 -244.6 L-86.5 -244.6" fill="none" stroke="#142558" stroke-linecap="round" stroke-linejoin="round" stroke-opacity="0.44705883" stroke-width="1.5"/>
    <path d="M-409.1 119.1 L-360.3 119.1 Q-348.3 119.1 -348.3 131.1 L-348.3 171.35 Q-348.3 183.35 -360.3 183.35 L-409.1 183.35 Q-421.1 183.35 -421.1 171.35 L-421.1 131.1 Q-421.1 119.1 -409.1 119.1" fill="#d1d0ff" fill-opacity="0.70980394" fill-rule="evenodd" stroke="none"/>
  </g>
</svg>
