<?xml version="1.0" encoding="UTF-8" standalone="no"?>
<svg xmlns:xlink="http://www.w3.org/1999/xlink" height="567.65px" width="988.65px" xmlns="http://www.w3.org/2000/svg">
  <g transform="matrix(1.0, 0.0, 0.0, 1.0, 1092.3, 448.6)">
    <path d="M-1092.3 -448.6 L-103.65 -448.6 -103.65 119.05 -1092.3 119.05 -1092.3 -448.6" fill="#14142e" fill-opacity="0.54901963" fill-rule="evenodd" stroke="none"/>
    <path d="M-814.35 -219.5 L-814.35 -259.35 Q-814.35 -268.15 -808.1 -274.4 -801.85 -280.65 -793.05 -280.65 L-403.45 -280.65 Q-394.65 -280.65 -388.4 -274.4 -382.15 -268.15 -382.15 -259.35 L-382.15 -219.5 -814.35 -219.5" fill="url(#gradient0)" fill-rule="evenodd" stroke="none"/>
    <path d="M-382.15 -219.5 L-382.15 -69.5 Q-382.15 -60.7 -388.4 -54.45 -394.65 -48.2 -403.45 -48.2 L-793.05 -48.2 Q-801.85 -48.2 -808.1 -54.45 -814.35 -60.7 -814.35 -69.5 L-814.35 -219.5 -382.15 -219.5" fill="url(#gradient1)" fill-rule="evenodd" stroke="none"/>
    <path d="M-814.35 -219.5 L-814.35 -259.35 Q-814.35 -268.15 -808.1 -274.4 -801.85 -280.65 -793.05 -280.65 L-403.45 -280.65 Q-394.65 -280.65 -388.4 -274.4 -382.15 -268.15 -382.15 -259.35 L-382.15 -219.5 -382.15 -69.5 Q-382.15 -60.7 -388.4 -54.45 -394.65 -48.2 -403.45 -48.2 L-793.05 -48.2 Q-801.85 -48.2 -808.1 -54.45 -814.35 -60.7 -814.35 -69.5 L-814.35 -219.5 -382.15 -219.5" fill="none" stroke="#101979" stroke-linecap="round" stroke-linejoin="round" stroke-opacity="0.7764706" stroke-width="1.4000000000000001"/>
    <path d="M-734.3 -272.7 L-463.05 -272.7 Q-453.1 -272.7 -446.1 -265.7 -439.05 -258.65 -439.05 -248.7 -439.05 -238.75 -446.1 -231.75 -453.1 -224.7 -463.05 -224.7 L-734.3 -224.7 Q-744.25 -224.7 -751.3 -231.75 -758.3 -238.75 -758.3 -248.7 -758.3 -258.65 -751.3 -265.7 -744.25 -272.7 -734.3 -272.7" fill="#3954b2" fill-opacity="0.14901961" fill-rule="evenodd" stroke="none"/>
  </g>
  <defs>
    <linearGradient gradientTransform="matrix(0.0, 0.0373, -0.2638, 0.0, -598.25, -250.1)" gradientUnits="userSpaceOnUse" id="gradient0" spreadMethod="pad" x1="-819.2" x2="819.2">
      <stop offset="0.0" stop-color="#bfc1f0" stop-opacity="0.8980392"/>
      <stop offset="1.0" stop-color="#d9dfff" stop-opacity="0.8980392"/>
    </linearGradient>
    <linearGradient gradientTransform="matrix(0.0, 0.1031, -0.2638, 0.0, -598.25, -130.75)" gradientUnits="userSpaceOnUse" id="gradient1" spreadMethod="pad" x1="-819.2" x2="819.2">
      <stop offset="0.0" stop-color="#b7c2f3" stop-opacity="0.8980392"/>
      <stop offset="1.0" stop-color="#9fa2e5" stop-opacity="0.8980392"/>
    </linearGradient>
  </defs>
</svg>
