<?xml version="1.0" encoding="UTF-8" standalone="no"?>
<svg xmlns:xlink="http://www.w3.org/1999/xlink" height="575.35px" width="998.45px" xmlns="http://www.w3.org/2000/svg">
  <g transform="matrix(1.0, 0.0, 0.0, 1.0, 1095.75, 510.55)">
    <path d="M-987.1 -266.7 L-987.1 -341.45 -987.1 -415.35 -915.45 -415.35 -915.45 -341.45 -915.45 -266.7 -915.45 -191.25 -915.45 -117.25 -915.45 -43.3 -987.1 -43.3 -987.1 -117.25 -987.1 -191.25 -987.1 -266.7 -915.45 -266.7 -987.1 -266.7 M-915.45 -117.25 L-987.1 -117.25 -915.45 -117.25 M-915.45 -191.25 L-987.1 -191.25 -915.45 -191.25 M-915.45 -341.45 L-987.1 -341.45 -915.45 -341.45" fill="#e9f3ff" fill-opacity="0.10980392" fill-rule="evenodd" stroke="none"/>
    <path d="M-1095.75 -510.55 L-97.3 -510.55 -97.3 64.8 -1095.75 64.8 -1095.75 -510.55 M-987.1 -266.7 L-987.1 -191.25 -987.1 -117.25 -987.1 -43.3 -915.45 -43.3 -915.45 -117.25 -915.45 -191.25 -915.45 -266.7 -915.45 -341.45 -915.45 -415.35 -987.1 -415.35 -987.1 -341.45 -987.1 -266.7" fill="#1c1b31" fill-opacity="0.64705884" fill-rule="evenodd" stroke="none"/>
    <path d="M-987.1 -266.7 L-987.1 -341.45 -987.1 -415.35 -915.45 -415.35 -915.45 -341.45 -915.45 -266.7 -915.45 -191.25 -915.45 -117.25 -915.45 -43.3 -987.1 -43.3 -987.1 -117.25 -987.1 -191.25 -987.1 -266.7 -915.45 -266.7 M-987.1 -341.45 L-915.45 -341.45 M-987.1 -191.25 L-915.45 -191.25 M-987.1 -117.25 L-915.45 -117.25" fill="none" stroke="#000000" stroke-linecap="round" stroke-linejoin="round" stroke-opacity="0.627451" stroke-width="2.0"/>
  </g>
</svg>
