<?xml version="1.0" encoding="UTF-8" standalone="no"?>
<svg xmlns:xlink="http://www.w3.org/1999/xlink" height="83.75px" width="837.6px" xmlns="http://www.w3.org/2000/svg">
  <g transform="matrix(1.0, 0.0, 0.0, 1.0, 1002.45, 164.2)">
    <path d="M-267.1 -163.7 L-172.2 -163.7 Q-165.35 -163.7 -165.35 -156.7 L-165.35 -87.95 Q-165.35 -80.95 -172.2 -80.95 L-267.1 -80.95 Q-273.95 -80.95 -273.95 -87.95 L-273.95 -156.7 Q-273.95 -163.7 -267.1 -163.7 M-270.05 -157.9 L-270.05 -89.15 Q-270.05 -86.15 -267.1 -86.15 L-172.2 -86.15 Q-169.25 -86.15 -169.25 -89.15 L-169.25 -157.9 Q-169.25 -160.9 -172.2 -160.9 L-267.1 -160.9 Q-270.05 -160.9 -270.05 -157.9" fill="#2c4d33" fill-rule="evenodd" stroke="none"/>
    <path d="M-270.05 -157.9 Q-270.05 -160.9 -267.1 -160.9 L-172.2 -160.9 Q-169.25 -160.9 -169.25 -157.9 L-169.25 -89.15 Q-169.25 -86.15 -172.2 -86.15 L-267.1 -86.15 Q-270.05 -86.15 -270.05 -89.15 L-270.05 -157.9" fill="#467951" fill-rule="evenodd" stroke="none"/>
    <path d="M-267.1 -163.7 L-172.2 -163.7 Q-165.35 -163.7 -165.35 -156.7 L-165.35 -87.95 Q-165.35 -80.95 -172.2 -80.95 L-267.1 -80.95 Q-273.95 -80.95 -273.95 -87.95 L-273.95 -156.7 Q-273.95 -163.7 -267.1 -163.7 M-995.1 -163.7 L-900.2 -163.7 Q-893.35 -163.7 -893.35 -156.7 L-893.35 -87.95 Q-893.35 -80.95 -900.2 -80.95 L-995.1 -80.95 Q-1001.95 -80.95 -1001.95 -87.95 L-1001.95 -156.7 Q-1001.95 -163.7 -995.1 -163.7" fill="none" stroke="#000000" stroke-linecap="round" stroke-linejoin="round" stroke-width="1.0"/>
    <path d="M-225.3 -113.5 Q-217.15 -130.45 -207.15 -144.35 L-197.0 -132.4 Q-213.45 -121.45 -225.45 -101.4 -235.1 -110.05 -238.85 -118.65 L-233.35 -124.2 Q-231.3 -118.85 -226.1 -113.4 L-225.8 -113.25 -225.5 -113.3 -225.3 -113.5" fill="#85e79a" fill-rule="evenodd" stroke="none"/>
    <path d="M-262.95 -158.7 L-176.15 -158.7 Q-171.15 -158.7 -171.15 -153.7 L-171.15 -93.1 Q-171.15 -88.1 -176.15 -88.1 L-262.95 -88.1 Q-267.95 -88.1 -267.95 -93.1 L-267.95 -153.7 Q-267.95 -158.7 -262.95 -158.7 Z" fill="none" stroke="#66ff66" stroke-linecap="round" stroke-linejoin="round" stroke-opacity="0.21960784" stroke-width="1.0"/>
  </g>
</svg>
