<?xml version="1.0" encoding="UTF-8" standalone="no"?>
<svg xmlns:xlink="http://www.w3.org/1999/xlink" height="595.35px" width="1001.75px" xmlns="http://www.w3.org/2000/svg">
  <g transform="matrix(1.0, 0.0, 0.0, 1.0, 1079.65, 227.3)">
    <path d="M-1076.85 -207.8 L-78.4 -207.8 -78.4 367.55 -1076.85 367.55 -1076.85 -207.8" fill="#000000" fill-opacity="0.5882353" fill-rule="evenodd" stroke="none"/>
    <path d="M-1076.85 -207.8 L-78.4 -207.8 -78.4 367.55 -1076.85 367.55 -1076.85 -207.8 Z" fill="none" stroke="#000000" stroke-linecap="round" stroke-linejoin="round" stroke-opacity="0.54901963" stroke-width="1.0"/>
    <path d="M-1079.65 -79.5 L-1079.65 -227.3 -79.3 -227.3 -79.3 -79.5 -1079.65 -79.5" fill="#000000" fill-opacity="0.69803923" fill-rule="evenodd" stroke="none"/>
    <path d="M-882.6 -152.05 L-283.95 -152.05 Q-276.95 -152.05 -276.95 -145.05 L-276.95 -103.7 Q-276.95 -96.7 -283.95 -96.7 L-882.6 -96.7 Q-889.6 -96.7 -889.6 -103.7 L-889.6 -145.05 Q-889.6 -152.05 -882.6 -152.05" fill="#f3f3f3" fill-rule="evenodd" stroke="none"/>
    <path d="M-882.6 -152.05 L-283.95 -152.05 Q-276.95 -152.05 -276.95 -145.05 L-276.95 -103.7 Q-276.95 -96.7 -283.95 -96.7 L-882.6 -96.7 Q-889.6 -96.7 -889.6 -103.7 L-889.6 -145.05 Q-889.6 -152.05 -882.6 -152.05 Z" fill="none" stroke="#000000" stroke-linecap="round" stroke-linejoin="round" stroke-opacity="0.3764706" stroke-width="1.0"/>
  </g>
</svg>
