<?xml version="1.0" encoding="UTF-8" standalone="no"?>
<svg xmlns:xlink="http://www.w3.org/1999/xlink" height="567.65px" width="988.65px" xmlns="http://www.w3.org/2000/svg">
  <g transform="matrix(1.0, 0.0, 0.0, 1.0, 1061.85, 400.9)">
    <path d="M-1061.85 -400.9 L-73.2 -400.9 -73.2 166.75 -1061.85 166.75 -1061.85 -400.9" fill="#14142e" fill-opacity="0.54901963" fill-rule="evenodd" stroke="none"/>
    <path d="M-411.35 -361.15 L-411.35 -300.0 -818.95 -300.0 -818.95 -361.15 -411.35 -361.15" fill="url(#gradient0)" fill-rule="evenodd" stroke="none"/>
    <path d="M-411.35 -300.0 L-411.35 -361.15 -252.75 -361.15 Q-243.95 -361.15 -237.7 -354.9 -231.45 -348.65 -231.45 -339.85 L-231.45 -300.0 -411.35 -300.0" fill="url(#gradient1)" fill-rule="evenodd" stroke="none"/>
    <path d="M-818.95 -361.15 L-818.95 -300.0 -896.25 -300.0 -896.25 -339.85 Q-896.25 -348.65 -890.0 -354.9 -883.75 -361.15 -874.95 -361.15 L-818.95 -361.15" fill="url(#gradient2)" fill-rule="evenodd" stroke="none"/>
    <path d="M-818.95 -300.0 L-411.35 -300.0 -231.45 -300.0 -231.45 -183.15 -231.45 -92.8 -231.45 24.85 -231.45 36.05 -231.45 102.45 Q-231.45 111.25 -237.7 117.5 -243.95 123.75 -252.75 123.75 L-874.95 123.75 Q-883.75 123.75 -890.0 117.5 -896.25 111.25 -896.25 102.45 L-896.25 -300.0 -818.95 -300.0" fill="url(#gradient3)" fill-rule="evenodd" stroke="none"/>
    <path d="M-411.35 -361.15 L-818.95 -361.15 -874.95 -361.15 Q-883.75 -361.15 -890.0 -354.9 -896.25 -348.65 -896.25 -339.85 L-896.25 -300.0 -818.95 -300.0 -411.35 -300.0 -231.45 -300.0 -231.45 -339.85 Q-231.45 -348.65 -237.7 -354.9 -243.95 -361.15 -252.75 -361.15 L-411.35 -361.15 M-231.45 -92.8 L-231.45 24.85 M-231.45 36.05 L-231.45 102.45 Q-231.45 111.25 -237.7 117.5 -243.95 123.75 -252.75 123.75 L-874.95 123.75 Q-883.75 123.75 -890.0 117.5 -896.25 111.25 -896.25 102.45 L-896.25 -300.0 M-231.45 -300.0 L-231.45 -183.15" fill="none" stroke="#101979" stroke-linecap="round" stroke-linejoin="round" stroke-opacity="0.7764706" stroke-width="1.4000000000000001"/>
    <path d="M-865.95 -353.2 L-362.1 -353.2 Q-352.15 -353.2 -345.15 -346.2 -338.1 -339.15 -338.1 -329.2 -338.1 -319.25 -345.15 -312.25 -352.15 -305.2 -362.1 -305.2 L-865.95 -305.2 Q-875.9 -305.2 -882.95 -312.25 -889.95 -319.25 -889.95 -329.2 -889.95 -339.15 -882.95 -346.2 -875.9 -353.2 -865.95 -353.2" fill="#3954b2" fill-opacity="0.14901961" fill-rule="evenodd" stroke="none"/>
  </g>
  <defs>
    <linearGradient gradientTransform="matrix(0.0, 0.0373, -4.7893, 0.0, -300.55, -330.6)" gradientUnits="userSpaceOnUse" id="gradient0" spreadMethod="pad" x1="-819.2" x2="819.2">
      <stop offset="0.0" stop-color="#bfc1f0" stop-opacity="0.8980392"/>
      <stop offset="1.0" stop-color="#d9dfff" stop-opacity="0.8980392"/>
    </linearGradient>
    <linearGradient gradientTransform="matrix(0.0, 0.0373, -0.2638, 0.0, -447.55, -330.6)" gradientUnits="userSpaceOnUse" id="gradient1" spreadMethod="pad" x1="-819.2" x2="819.2">
      <stop offset="0.0" stop-color="#bfc1f0" stop-opacity="0.8980392"/>
      <stop offset="1.0" stop-color="#d9dfff" stop-opacity="0.8980392"/>
    </linearGradient>
    <linearGradient gradientTransform="matrix(0.0, 0.0373, -0.2638, 0.0, -680.15, -330.6)" gradientUnits="userSpaceOnUse" id="gradient2" spreadMethod="pad" x1="-819.2" x2="819.2">
      <stop offset="0.0" stop-color="#bfc1f0" stop-opacity="0.8980392"/>
      <stop offset="1.0" stop-color="#d9dfff" stop-opacity="0.8980392"/>
    </linearGradient>
    <linearGradient gradientTransform="matrix(0.0, 0.2525, -0.4058, 0.0, -563.85, -83.95)" gradientUnits="userSpaceOnUse" id="gradient3" spreadMethod="pad" x1="-819.2" x2="819.2">
      <stop offset="0.0" stop-color="#b7c2f3" stop-opacity="0.8980392"/>
      <stop offset="1.0" stop-color="#9fa2e5" stop-opacity="0.8980392"/>
    </linearGradient>
  </defs>
</svg>
