<?xml version="1.0" encoding="UTF-8" standalone="no"?>
<svg xmlns:xlink="http://www.w3.org/1999/xlink" height="567.65px" width="988.65px" xmlns="http://www.w3.org/2000/svg">
  <g transform="matrix(1.0, 0.0, 0.0, 1.0, 1050.3, 27.15)">
    <path d="M-1050.3 -27.15 L-61.65 -27.15 -61.65 540.5 -1050.3 540.5 -1050.3 -27.15" fill="#14142e" fill-opacity="0.54901963" fill-rule="evenodd" stroke="none"/>
    <path d="M-772.35 201.95 L-772.35 162.1 Q-772.35 153.3 -766.1 147.05 -759.85 140.8 -751.05 140.8 L-361.45 140.8 Q-352.65 140.8 -346.4 147.05 -340.15 153.3 -340.15 162.1 L-340.15 201.95 -772.35 201.95" fill="url(#gradient0)" fill-rule="evenodd" stroke="none"/>
    <path d="M-340.15 201.95 L-340.15 351.95 Q-340.15 360.75 -346.4 367.0 -352.65 373.25 -361.45 373.25 L-751.05 373.25 Q-759.85 373.25 -766.1 367.0 -772.35 360.75 -772.35 351.95 L-772.35 201.95 -340.15 201.95" fill="url(#gradient1)" fill-rule="evenodd" stroke="none"/>
    <path d="M-772.35 201.95 L-772.35 162.1 Q-772.35 153.3 -766.1 147.05 -759.85 140.8 -751.05 140.8 L-361.45 140.8 Q-352.65 140.8 -346.4 147.05 -340.15 153.3 -340.15 162.1 L-340.15 201.95 -340.15 351.95 Q-340.15 360.75 -346.4 367.0 -352.65 373.25 -361.45 373.25 L-751.05 373.25 Q-759.85 373.25 -766.1 367.0 -772.35 360.75 -772.35 351.95 L-772.35 201.95 -340.15 201.95" fill="none" stroke="#101979" stroke-linecap="round" stroke-linejoin="round" stroke-opacity="0.7764706" stroke-width="1.4000000000000001"/>
    <path d="M-742.05 148.75 L-470.8 148.75 Q-460.85 148.75 -453.85 155.75 -446.8 162.8 -446.8 172.75 -446.8 182.7 -453.85 189.7 -460.85 196.75 -470.8 196.75 L-742.05 196.75 Q-752.0 196.75 -759.05 189.7 -766.05 182.7 -766.05 172.75 -766.05 162.8 -759.05 155.75 -752.0 148.75 -742.05 148.75" fill="#3954b2" fill-opacity="0.14901961" fill-rule="evenodd" stroke="none"/>
  </g>
  <defs>
    <linearGradient gradientTransform="matrix(0.0, 0.0373, -0.2638, 0.0, -556.25, 171.35)" gradientUnits="userSpaceOnUse" id="gradient0" spreadMethod="pad" x1="-819.2" x2="819.2">
      <stop offset="0.0" stop-color="#bfc1f0" stop-opacity="0.8980392"/>
      <stop offset="1.0" stop-color="#d9dfff" stop-opacity="0.8980392"/>
    </linearGradient>
    <linearGradient gradientTransform="matrix(0.0, 0.1031, -0.2638, 0.0, -556.25, 290.7)" gradientUnits="userSpaceOnUse" id="gradient1" spreadMethod="pad" x1="-819.2" x2="819.2">
      <stop offset="0.0" stop-color="#b7c2f3" stop-opacity="0.8980392"/>
      <stop offset="1.0" stop-color="#9fa2e5" stop-opacity="0.8980392"/>
    </linearGradient>
  </defs>
</svg>
