<?xml version="1.0" encoding="UTF-8" standalone="no"?>
<svg xmlns:xlink="http://www.w3.org/1999/xlink" height="73.5px" width="415.55px" xmlns="http://www.w3.org/2000/svg">
  <g transform="matrix(1.0, 0.0, 0.0, 1.0, 764.8, -289.9)">
    <path d="M-747.65 290.9 L-646.25 290.9 Q-630.1 290.9 -630.1 307.0 L-630.1 346.25 Q-630.1 362.4 -646.25 362.4 L-747.65 362.4 Q-763.8 362.4 -763.8 346.25 L-763.8 307.0 Q-763.8 290.9 -747.65 290.9 M-607.7 290.9 L-506.25 290.9 Q-490.15 290.9 -490.15 307.0 L-490.15 346.25 Q-490.15 362.4 -506.25 362.4 L-607.7 362.4 Q-623.8 362.4 -623.8 346.25 L-623.8 307.0 Q-623.8 290.9 -607.7 290.9 M-467.8 290.9 L-366.4 290.9 Q-350.25 290.9 -350.25 307.0 L-350.25 346.25 Q-350.25 362.4 -366.4 362.4 L-467.8 362.4 Q-483.95 362.4 -483.95 346.25 L-483.95 307.0 Q-483.95 290.9 -467.8 290.9" fill="#555185" fill-rule="evenodd" stroke="none"/>
    <path d="M-747.65 290.9 L-646.25 290.9 Q-630.1 290.9 -630.1 307.0 L-630.1 346.25 Q-630.1 362.4 -646.25 362.4 L-747.65 362.4 Q-763.8 362.4 -763.8 346.25 L-763.8 307.0 Q-763.8 290.9 -747.65 290.9 M-607.7 290.9 L-506.25 290.9 Q-490.15 290.9 -490.15 307.0 L-490.15 346.25 Q-490.15 362.4 -506.25 362.4 L-607.7 362.4 Q-623.8 362.4 -623.8 346.25 L-623.8 307.0 Q-623.8 290.9 -607.7 290.9 M-467.8 290.9 L-366.4 290.9 Q-350.25 290.9 -350.25 307.0 L-350.25 346.25 Q-350.25 362.4 -366.4 362.4 L-467.8 362.4 Q-483.95 362.4 -483.95 346.25 L-483.95 307.0 Q-483.95 290.9 -467.8 290.9" fill="none" stroke="#403d69" stroke-linecap="round" stroke-linejoin="round" stroke-width="2.0"/>
  </g>
</svg>
