<?xml version="1.0" encoding="UTF-8" standalone="no"?>
<svg xmlns:xlink="http://www.w3.org/1999/xlink" height="47.45px" width="322.6px" xmlns="http://www.w3.org/2000/svg">
  <g transform="matrix(1.0, 0.0, 0.0, 1.0, 161.2, 24.0)">
    <path d="M82.8 22.45 L-137.5 22.45 Q-146.9 22.45 -153.55 15.8 -160.2 9.15 -160.2 -0.25 L-160.2 -0.3 Q-160.2 -9.7 -153.55 -16.35 -146.9 -23.0 -137.5 -23.0 L95.0 -23.0 82.8 22.45" fill="#373a56" fill-opacity="0.65882355" fill-rule="evenodd" stroke="none"/>
    <path d="M95.0 -23.0 L137.7 -23.0 Q147.1 -23.0 153.75 -16.35 160.4 -9.7 160.4 -0.3 L160.4 -0.25 Q160.4 9.15 153.75 15.8 147.1 22.45 137.7 22.45 L82.8 22.45 95.0 -23.0" fill="#202233" fill-opacity="0.8" fill-rule="evenodd" stroke="none"/>
    <path d="M95.0 -23.0 L137.7 -23.0 Q147.1 -23.0 153.75 -16.35 160.4 -9.7 160.4 -0.3 L160.4 -0.25 Q160.4 9.15 153.75 15.8 147.1 22.45 137.7 22.45 L82.8 22.45 -137.5 22.45 Q-146.9 22.45 -153.55 15.8 -160.2 9.15 -160.2 -0.25 L-160.2 -0.3 Q-160.2 -9.7 -153.55 -16.35 -146.9 -23.0 -137.5 -23.0 L95.0 -23.0 82.8 22.45" fill="none" stroke="#181a33" stroke-linecap="round" stroke-linejoin="round" stroke-opacity="0.4862745" stroke-width="2.0"/>
    <path d="M115.75 9.25 L115.75 -10.05 130.65 -0.35 115.75 9.25" fill="#d7e3ff" fill-opacity="0.8862745" fill-rule="evenodd" stroke="none"/>
    <path d="M115.75 9.25 L115.75 -10.05 130.65 -0.35 115.75 9.25 Z" fill="none" stroke="#181a33" stroke-linecap="round" stroke-linejoin="round" stroke-opacity="0.64705884" stroke-width="1.0"/>
  </g>
</svg>
