<?xml version="1.0" encoding="UTF-8" standalone="no"?>
<svg xmlns:xlink="http://www.w3.org/1999/xlink" height="47.95px" width="323.1px" xmlns="http://www.w3.org/2000/svg">
  <g transform="matrix(1.0, 0.0, 0.0, 1.0, 161.75, 24.85)">
    <path d="M93.9 -23.6 L137.4 -23.6 Q146.8 -23.6 153.45 -16.95 160.1 -10.3 160.1 -0.9 L160.1 -0.85 Q160.1 8.55 153.45 15.2 146.8 21.85 137.4 21.85 L81.8 21.85 -137.8 21.85 Q-147.2 21.85 -153.85 15.2 -160.5 8.55 -160.5 -0.85 L-160.5 -0.9 Q-160.5 -10.3 -153.85 -16.95 -147.2 -23.6 -137.8 -23.6 L93.9 -23.6 81.8 21.85 93.9 -23.6" fill="#e9f3ff" fill-opacity="0.13725491" fill-rule="evenodd" stroke="none"/>
    <path d="M93.9 -23.6 L137.4 -23.6 Q146.8 -23.6 153.45 -16.95 160.1 -10.3 160.1 -0.9 L160.1 -0.85 Q160.1 8.55 153.45 15.2 146.8 21.85 137.4 21.85 L81.8 21.85 -137.8 21.85 Q-147.2 21.85 -153.85 15.2 -160.5 8.55 -160.5 -0.85 L-160.5 -0.9 Q-160.5 -10.3 -153.85 -16.95 -147.2 -23.6 -137.8 -23.6 L93.9 -23.6 81.8 21.85" fill="none" stroke="#ffffff" stroke-linecap="round" stroke-linejoin="round" stroke-opacity="0.8" stroke-width="2.5"/>
  </g>
</svg>
