<?xml version="1.0" encoding="UTF-8" standalone="no"?>
<svg xmlns:xlink="http://www.w3.org/1999/xlink" height="28.15px" width="20.75px" xmlns="http://www.w3.org/2000/svg">
  <g transform="matrix(1.0, 0.0, 0.0, 1.0, 9.6, 18.8)">
    <path d="M-3.45 -11.75 Q0.2 -10.75 3.7 -8.15 L2.5 -4.75 -5.3 -8.9 -3.45 -11.75 M-0.9 -15.65 Q3.55 -15.75 5.85 -12.5 L4.8 -9.45 Q1.5 -12.35 -3.2 -13.7 L-3.2 -14.3 -0.9 -15.65" fill="#ffffff" fill-opacity="0.24705882" fill-rule="evenodd" stroke="none"/>
    <path d="M-3.45 -11.75 Q0.2 -10.75 3.7 -8.15 L2.5 -4.75 -5.3 -8.9 -5.55 -9.05 M-3.2 -13.7 Q1.5 -12.35 4.8 -9.45 L5.85 -12.5 Q3.55 -15.75 -0.9 -15.65" fill="none" stroke="#000000" stroke-linecap="round" stroke-linejoin="round" stroke-width="1.0"/>
    <path d="M-5.3 -8.9 Q-7.2 -5.85 -8.25 -3.2 -7.9 -2.3 -6.75 -1.6 -6.3 -1.3 -5.65 -1.1 -2.4 -4.45 -1.25 -4.65 0.0 -2.55 -0.3 1.3 2.15 2.75 5.4 3.4 L6.75 3.6 Q9.05 -1.3 10.15 -8.35 M-0.9 -15.65 L-3.2 -14.3 -3.2 -13.7 -3.2 -12.15 -3.45 -11.75 -5.3 -8.9 M9.7 -16.3 L7.65 -17.8 Q2.75 -17.45 -0.9 -15.65 M-6.75 -1.6 L-8.5 2.55 Q-9.15 4.35 -4.2 6.55 0.75 8.7 4.1 8.25 4.9 7.0 5.4 3.4" fill="none" stroke="#000000" stroke-linecap="round" stroke-linejoin="round" stroke-width="2.0"/>
  </g>
</svg>
