<?xml version="1.0" encoding="UTF-8" standalone="no"?>
<svg xmlns:xlink="http://www.w3.org/1999/xlink" height="565.55px" width="986.7px" xmlns="http://www.w3.org/2000/svg">
  <g transform="matrix(1.0, 0.0, 0.0, 1.0, 1155.7, 76.3)">
    <path d="M-877.35 16.7 L-301.4 16.7 -301.4 88.45 -877.35 88.45 -877.35 16.7 M-988.4 15.8 L-879.75 15.8 -879.75 88.05 -988.4 88.05 -988.4 15.8 M-1057.75 15.05 L-991.05 15.05 -991.05 88.45 -1057.75 88.45 -1057.75 15.05" fill="#ffffff" fill-opacity="0.047058824" fill-rule="evenodd" stroke="none"/>
    <path d="M-169.0 406.2 L-169.0 448.15 -1155.7 448.15 -1155.7 406.2 -169.0 406.2" fill="#000000" fill-opacity="0.84705883" fill-rule="evenodd" stroke="none"/>
    <path d="M-1155.7 406.2 L-1155.7 -76.3 -169.0 -76.3 -169.0 406.2 -1155.7 406.2 M-169.0 448.15 L-169.0 489.25 -1155.7 489.25 -1155.7 448.15 -169.0 448.15 M-877.35 16.7 L-877.35 88.45 -301.4 88.45 -301.4 16.7 -877.35 16.7 M-988.4 15.8 L-988.4 88.05 -879.75 88.05 -879.75 15.8 -988.4 15.8 M-1057.75 15.05 L-1057.75 88.45 -991.05 88.45 -991.05 15.05 -1057.75 15.05" fill="#000000" fill-opacity="0.49803922" fill-rule="evenodd" stroke="none"/>
    <path d="M-988.4 15.8 L-879.75 15.8 -879.75 88.05 -988.4 88.05 -988.4 15.8" fill="none" stroke="#00ccff" stroke-linecap="round" stroke-linejoin="round" stroke-width="2.0"/>
    <path d="M-877.35 16.7 L-301.4 16.7 -301.4 88.45 -877.35 88.45 -877.35 16.7" fill="none" stroke="#ff3cbd" stroke-linecap="round" stroke-linejoin="round" stroke-width="2.0"/>
    <path d="M-1057.75 15.05 L-991.05 15.05 -991.05 88.45 -1057.75 88.45 -1057.75 15.05" fill="none" stroke="#4dff5d" stroke-linecap="round" stroke-linejoin="round" stroke-width="2.0"/>
    <path d="M-907.65 -1.35 Q-907.65 9.95 -915.65 17.9 -923.6 25.9 -934.9 25.9 -946.15 25.9 -954.15 17.9 -962.1 9.95 -962.1 -1.35 -962.1 -12.6 -954.15 -20.6 -946.15 -28.55 -934.9 -28.55 -923.6 -28.55 -915.65 -20.6 -907.65 -12.6 -907.65 -1.35" fill="#00466d" fill-rule="evenodd" stroke="none"/>
    <path d="M-683.65 -1.35 Q-683.65 9.95 -691.65 17.9 -699.6 25.9 -710.9 25.9 -722.15 25.9 -730.15 17.9 -738.1 9.95 -738.1 -1.35 -738.1 -12.6 -730.15 -20.6 -722.15 -28.55 -710.9 -28.55 -699.6 -28.55 -691.65 -20.6 -683.65 -12.6 -683.65 -1.35" fill="#69184e" fill-rule="evenodd" stroke="none"/>
    <path d="M-998.75 0.5 Q-998.75 11.8 -1006.75 19.75 -1014.7 27.75 -1026.0 27.75 -1037.25 27.75 -1045.25 19.75 -1053.2 11.8 -1053.2 0.5 -1053.2 -10.75 -1045.25 -18.75 -1037.25 -26.7 -1026.0 -26.7 -1014.7 -26.7 -1006.75 -18.75 -998.75 -10.75 -998.75 0.5" fill="#1c5d21" fill-rule="evenodd" stroke="none"/>
    <path d="M-907.65 -1.35 Q-907.65 9.95 -915.65 17.9 -923.6 25.9 -934.9 25.9 -946.15 25.9 -954.15 17.9 -962.1 9.95 -962.1 -1.35 -962.1 -12.6 -954.15 -20.6 -946.15 -28.55 -934.9 -28.55 -923.6 -28.55 -915.65 -20.6 -907.65 -12.6 -907.65 -1.35" fill="none" stroke="#00ccff" stroke-linecap="round" stroke-linejoin="round" stroke-width="2.0"/>
    <path d="M-683.65 -1.35 Q-683.65 9.95 -691.65 17.9 -699.6 25.9 -710.9 25.9 -722.15 25.9 -730.15 17.9 -738.1 9.95 -738.1 -1.35 -738.1 -12.6 -730.15 -20.6 -722.15 -28.55 -710.9 -28.55 -699.6 -28.55 -691.65 -20.6 -683.65 -12.6 -683.65 -1.35" fill="none" stroke="#ff3cbd" stroke-linecap="round" stroke-linejoin="round" stroke-width="2.0"/>
    <path d="M-998.75 0.5 Q-998.75 11.8 -1006.75 19.75 -1014.7 27.75 -1026.0 27.75 -1037.25 27.75 -1045.25 19.75 -1053.2 11.8 -1053.2 0.5 -1053.2 -10.75 -1045.25 -18.75 -1037.25 -26.7 -1026.0 -26.7 -1014.7 -26.7 -1006.75 -18.75 -998.75 -10.75 -998.75 0.5" fill="none" stroke="#4dff5d" stroke-linecap="round" stroke-linejoin="round" stroke-width="2.0"/>
  </g>
</svg>
