<?xml version="1.0" encoding="UTF-8" standalone="no"?>
<svg xmlns:xlink="http://www.w3.org/1999/xlink" height="357.75px" width="787.6px" xmlns="http://www.w3.org/2000/svg">
  <g transform="matrix(1.0, 0.0, 0.0, 1.0, 1068.7, 5.35)">
    <path d="M-1055.9 202.35 L-1055.9 182.3 -485.5 182.3 -485.5 264.15 -1055.9 264.15 -1055.9 202.35 -1043.3 202.35 -1055.9 202.35" fill="#153315" fill-rule="evenodd" stroke="none"/>
    <path d="M-935.2 96.35 L-485.5 96.35 -485.5 178.2 -1055.9 178.2 -1055.9 96.35 -935.2 96.35 -935.2 104.75 -935.2 96.35" fill="#1b233c" fill-rule="evenodd" stroke="none"/>
    <path d="M-485.5 292.25 L-485.5 351.4 -1055.9 351.4 -1055.9 269.55 -485.5 269.55 -485.5 292.25" fill="#291833" fill-rule="evenodd" stroke="none"/>
    <path d="M-935.2 96.35 L-485.5 96.35 -485.5 178.2 -1055.9 178.2 -1055.9 96.35 -935.2 96.35 -935.2 25.85 M-935.2 96.35 L-935.2 104.75" fill="none" stroke="#00ccff" stroke-linecap="round" stroke-linejoin="round" stroke-width="2.0"/>
    <path d="M-1055.9 202.35 L-1067.7 202.35 -1067.7 -0.7 -1053.2 -0.7 M-1055.9 202.35 L-1055.9 182.3 -485.5 182.3 -485.5 264.15 -1055.9 264.15 -1055.9 202.35 -1043.3 202.35" fill="none" stroke="#4dff5d" stroke-linecap="round" stroke-linejoin="round" stroke-width="2.0"/>
    <path d="M-738.0 -4.0 L-791.45 -4.0 -791.45 16.7 M-507.4 16.7 L-507.4 -4.2 -623.9 -4.3 -623.9 16.7 M-346.5 16.7 L-346.5 -4.1 -425.25 -4.15 -425.25 16.7 M-425.25 -4.15 L-507.4 -4.2 M-485.5 292.25 L-282.1 292.25 -282.1 -4.05 -346.5 -4.1 M-623.9 -4.3 L-683.85 -4.35 M-485.5 292.25 L-485.5 351.4 -1055.9 351.4 -1055.9 269.55 -485.5 269.55 -485.5 292.25" fill="none" stroke="#ff3cbd" stroke-linecap="round" stroke-linejoin="round" stroke-width="2.0"/>
  </g>
</svg>
