<?xml version="1.0" encoding="UTF-8" standalone="no"?>
<svg xmlns:xlink="http://www.w3.org/1999/xlink" height="139.3px" width="1044.6px" xmlns="http://www.w3.org/2000/svg">
  <g transform="matrix(1.0, 0.0, 0.0, 1.0, 521.0, 66.3)">
    <path d="M523.6 3.35 Q523.6 32.25 370.65 52.6 217.7 73.0 1.3 73.0 -215.15 73.0 -368.05 52.6 -521.0 32.25 -521.0 3.35 -521.0 -25.5 -368.05 -45.9 -215.15 -66.3 1.3 -66.3 217.7 -66.3 370.65 -45.9 523.6 -25.5 523.6 3.35" fill="url(#gradient0)" fill-rule="evenodd" stroke="none"/>
    <path d="M517.5 3.35 Q517.5 9.05 366.35 13.05 215.2 17.05 1.3 17.05 -212.55 17.05 -363.75 13.05 -514.9 9.05 -514.9 3.35 -514.9 -2.3 -363.75 -6.3 -212.55 -10.35 1.3 -10.35 215.2 -10.35 366.35 -6.3 517.5 -2.3 517.5 3.35" fill="url(#gradient1)" fill-rule="evenodd" stroke="none"/>
  </g>
  <defs>
    <radialGradient cx="0" cy="0" gradientTransform="matrix(0.6435, 0.0, 0.0, 0.0858, 1.25, 3.35)" gradientUnits="userSpaceOnUse" id="gradient0" r="819.2" spreadMethod="pad">
      <stop offset="0.4" stop-color="#e7f6ff"/>
      <stop offset="1.0" stop-color="#8dbdff" stop-opacity="0.0"/>
    </radialGradient>
    <radialGradient cx="0" cy="0" gradientTransform="matrix(0.636, 0.0, 0.0, 0.0169, 1.3, 3.35)" gradientUnits="userSpaceOnUse" id="gradient1" r="819.2" spreadMethod="pad">
      <stop offset="0.4" stop-color="#e7f6ff"/>
      <stop offset="1.0" stop-color="#e0f7ff" stop-opacity="0.0"/>
    </radialGradient>
  </defs>
</svg>
