<?xml version="1.0" encoding="UTF-8" standalone="no"?>
<svg xmlns:xlink="http://www.w3.org/1999/xlink" height="16.25px" width="109.9px" xmlns="http://www.w3.org/2000/svg">
  <g transform="matrix(1.0, 0.0, 0.0, 1.0, 54.95, 8.1)">
    <path d="M-53.95 -7.1 L53.95 -7.1 53.95 7.15 -53.95 7.15 -53.95 -7.1" fill="#c2a796" fill-rule="evenodd" stroke="none"/>
    <path d="M-53.95 -7.1 L53.95 -7.1 53.95 7.15 -53.95 7.15 -53.95 -7.1 Z" fill="none" stroke="#000000" stroke-linecap="round" stroke-linejoin="round" stroke-width="2.0"/>
    <path d="M6.45 -7.15 L6.45 -3.75 M1.95 -7.15 L1.95 -3.75 M10.8 -7.15 L10.8 -1.3 M19.55 -7.15 L19.55 -3.75 M15.05 -7.15 L15.05 -3.75 M27.95 -7.15 L27.95 -3.75 M32.45 -7.15 L32.45 -3.75 M36.8 -7.15 L36.8 -1.3 M23.9 -7.15 L23.9 -1.3 M45.55 -7.15 L45.55 -3.75 M41.05 -7.15 L41.05 -3.75 M49.9 -7.15 L49.9 -1.3 M-50.35 -7.15 L-50.35 -3.75 M-45.85 -7.15 L-45.85 -3.75 M-41.5 -7.15 L-41.5 -1.3 M-32.75 -7.15 L-32.75 -3.75 M-37.25 -7.15 L-37.25 -3.75 M-24.35 -7.15 L-24.35 -3.75 M-28.4 -7.15 L-28.4 -1.3 M-19.85 -7.15 L-19.85 -3.75 M-15.5 -7.15 L-15.5 -1.3 M-11.25 -7.15 L-11.25 -3.75 M-2.4 -7.15 L-2.4 -1.3 M-6.75 -7.15 L-6.75 -3.75" fill="none" stroke="#000000" stroke-linecap="round" stroke-linejoin="round" stroke-opacity="0.5764706" stroke-width="1.3"/>
    <path d="M45.5 6.6 L45.5 4.2 M50.0 6.6 L50.0 4.2 M41.1 6.6 L41.1 2.5 M23.9 6.6 L23.9 4.2 M36.85 6.6 L36.85 4.2 M32.35 6.6 L32.35 4.2 M28.0 6.6 L28.0 2.5 M15.05 6.6 L15.05 2.5 M19.4 6.6 L19.4 4.2 M10.8 6.6 L10.8 4.2 M6.25 6.6 L6.25 4.2 M1.9 6.6 L1.9 2.5 M-6.95 6.6 L-6.95 4.2 M-2.45 6.6 L-2.45 4.2 M-20.1 6.6 L-20.1 4.2 M-11.35 6.6 L-11.35 2.5 M-15.6 6.6 L-15.6 4.2 M-33.05 6.6 L-33.05 4.2 M-28.55 6.6 L-28.55 4.2 M-24.45 6.6 L-24.45 2.5 M-37.4 6.6 L-37.4 2.5 M-41.65 6.6 L-41.65 4.2 M-46.2 6.6 L-46.2 4.2 M-50.55 6.6 L-50.55 2.5" fill="none" stroke="#000000" stroke-linecap="round" stroke-linejoin="round" stroke-opacity="0.5764706" stroke-width="1.3"/>
  </g>
</svg>
