<?xml version="1.0" encoding="UTF-8" standalone="no"?>
<svg xmlns:xlink="http://www.w3.org/1999/xlink" height="26.35px" width="19.5px" xmlns="http://www.w3.org/2000/svg">
  <g transform="matrix(1.0, 0.0, 0.0, 1.0, 9.75, 13.15)">
    <path d="M-7.65 -0.55 Q-2.9 2.4 3.65 4.0 1.5 14.95 -5.65 12.9 -12.65 10.2 -7.65 -0.55 M8.75 -10.9 L9.1 -10.35 Q10.1 -8.8 9.55 -7.9 L8.8 -7.1 Q9.7 -5.25 9.45 -3.55 8.35 -1.95 5.3 -0.7 -0.85 -2.2 -6.0 -5.0 -7.65 -6.6 -7.35 -8.25 -6.75 -9.35 -5.75 -9.85 L-5.5 -11.5 -5.1 -11.5 Q-2.05 -11.55 2.55 -13.05 7.85 -13.65 8.75 -10.9" fill="#e2b97a" fill-rule="evenodd" stroke="none"/>
  </g>
</svg>
