<?xml version="1.0" encoding="UTF-8" standalone="no"?>
<svg xmlns:xlink="http://www.w3.org/1999/xlink" height="84.5px" width="317.4px" xmlns="http://www.w3.org/2000/svg">
  <g transform="matrix(1.0, 0.0, 0.0, 1.0, 158.7, 44.85)">
    <path d="M133.7 -39.85 Q142.0 -39.85 147.85 -34.0 153.7 -28.15 153.7 -19.85 L153.7 2.5 Q153.7 10.8 147.85 16.6 L147.8 16.65 Q142.0 22.5 133.7 22.5 L6.55 22.5 0.15 31.7 -6.1 22.5 -133.7 22.5 Q-142.0 22.5 -147.85 16.65 -153.7 10.8 -153.7 2.5 L-153.7 -19.85 Q-153.7 -28.15 -147.85 -34.0 -142.0 -39.85 -133.7 -39.85 L133.7 -39.85" fill="#f5eeff" fill-rule="evenodd" stroke="none"/>
    <path d="M-133.7 -43.85 L133.7 -43.85 Q143.65 -43.85 150.65 -36.85 157.7 -29.8 157.7 -19.85 L157.7 2.5 Q157.7 12.45 150.65 19.45 143.65 26.5 133.7 26.5 L9.1 26.5 0.0 38.65 -8.8 26.5 -133.7 26.5 Q-143.65 26.5 -150.7 19.45 -157.7 12.45 -157.7 2.5 L-157.7 -19.85 Q-157.7 -29.8 -150.7 -36.85 -143.65 -43.85 -133.7 -43.85 M133.7 -39.85 L-133.7 -39.85 Q-142.0 -39.85 -147.85 -34.0 -153.7 -28.15 -153.7 -19.85 L-153.7 2.5 Q-153.7 10.8 -147.85 16.65 -142.0 22.5 -133.7 22.5 L-6.1 22.5 0.15 31.7 6.55 22.5 133.7 22.5 Q142.0 22.5 147.8 16.65 L147.85 16.6 Q153.7 10.8 153.7 2.5 L153.7 -19.85 Q153.7 -28.15 147.85 -34.0 142.0 -39.85 133.7 -39.85" fill="#d2cde5" fill-rule="evenodd" stroke="none"/>
    <path d="M-133.7 -43.85 L133.7 -43.85 Q143.65 -43.85 150.65 -36.85 157.7 -29.8 157.7 -19.85 L157.7 2.5 Q157.7 12.45 150.65 19.45 143.65 26.5 133.7 26.5 L9.1 26.5 0.0 38.65 -8.8 26.5 -133.7 26.5 Q-143.65 26.5 -150.7 19.45 -157.7 12.45 -157.7 2.5 L-157.7 -19.85 Q-157.7 -29.8 -150.7 -36.85 -143.65 -43.85 -133.7 -43.85 Z" fill="none" stroke="#1f1e2e" stroke-linecap="round" stroke-linejoin="round" stroke-opacity="0.76862746" stroke-width="2.0"/>
  </g>
</svg>
