<?xml version="1.0" encoding="UTF-8" standalone="no"?>
<svg xmlns:xlink="http://www.w3.org/1999/xlink" height="86.85px" width="281.75px" xmlns="http://www.w3.org/2000/svg">
  <g transform="matrix(1.0, 0.0, 0.0, 1.0, 142.9, 42.55)">
    <path d="M128.35 -26.3 Q128.35 -32.05 122.6 -32.05 L-126.65 -32.05 Q-132.4 -32.05 -132.4 -26.3 L-132.4 28.05 Q-132.4 33.8 -126.65 33.8 L122.6 33.8 Q128.35 33.8 128.35 28.05 L128.35 -26.3 M122.6 -42.55 Q138.85 -42.55 138.85 -26.3 L138.85 28.05 Q138.85 44.3 122.6 44.3 L-126.65 44.3 Q-142.9 44.3 -142.9 28.05 L-142.9 -26.3 Q-142.9 -42.55 -126.65 -42.55 L122.6 -42.55" fill="#39345b" fill-opacity="0.5803922" fill-rule="evenodd" stroke="none"/>
    <path d="M130.35 -27.2 Q130.35 -34.95 122.6 -34.95 L-126.65 -34.95 Q-134.4 -34.95 -134.4 -27.2 L-134.4 27.15 Q-134.4 34.9 -126.65 34.9 L122.6 34.9 Q130.35 34.9 130.35 27.15 L130.35 -27.2 M122.6 -41.45 Q136.85 -41.45 136.85 -27.2 L136.85 27.15 Q136.85 41.4 122.6 41.4 L-126.65 41.4 Q-140.9 41.4 -140.9 27.15 L-140.9 -27.2 Q-140.9 -41.45 -126.65 -41.45 L122.6 -41.45" fill="#d4bdff" fill-opacity="0.7411765" fill-rule="evenodd" stroke="none"/>
    <path d="M89.7 36.0 L122.6 36.0 Q132.35 36.0 132.35 26.25 L132.35 -28.1 Q132.35 -37.85 122.6 -37.85 L89.7 -37.85 -110.3 -37.85 -126.65 -37.85 Q-136.4 -37.85 -136.4 -28.1 L-136.4 26.25 Q-136.4 36.0 -126.65 36.0 L-110.3 36.0 89.7 36.0 M-126.65 -40.35 L122.6 -40.35 Q134.85 -40.35 134.85 -28.1 L134.85 26.25 Q134.85 38.5 122.6 38.5 L-126.65 38.5 Q-138.9 38.5 -138.9 26.25 L-138.9 -28.1 Q-138.9 -40.35 -126.65 -40.35" fill="#715ca3" fill-rule="evenodd" stroke="none"/>
    <path d="M89.7 -37.85 L122.6 -37.85 Q132.35 -37.85 132.35 -28.1 L132.35 26.25 Q132.35 36.0 122.6 36.0 L89.7 36.0 89.7 -37.85" fill="url(#gradient0)" fill-rule="evenodd" stroke="none"/>
    <path d="M89.7 36.0 L-110.3 36.0 -110.3 -37.85 89.7 -37.85 89.7 36.0" fill="url(#gradient1)" fill-rule="evenodd" stroke="none"/>
    <path d="M-110.3 36.0 L-126.65 36.0 Q-136.4 36.0 -136.4 26.25 L-136.4 -28.1 Q-136.4 -37.85 -126.65 -37.85 L-110.3 -37.85 -110.3 36.0" fill="url(#gradient2)" fill-rule="evenodd" stroke="none"/>
  </g>
  <defs>
    <linearGradient gradientTransform="matrix(0.0, -0.0376, 0.0652, 0.0, 78.95, 0.9)" gradientUnits="userSpaceOnUse" id="gradient0" spreadMethod="pad" x1="-819.2" x2="819.2">
      <stop offset="0.0" stop-color="#d9d3e9"/>
      <stop offset="1.0" stop-color="#e4d2ff"/>
    </linearGradient>
    <linearGradient gradientTransform="matrix(0.0, -0.0376, 0.9308, 0.0, 79.7, 0.9)" gradientUnits="userSpaceOnUse" id="gradient1" spreadMethod="pad" x1="-819.2" x2="819.2">
      <stop offset="0.0" stop-color="#d9d3e9"/>
      <stop offset="1.0" stop-color="#e4d2ff"/>
    </linearGradient>
    <linearGradient gradientTransform="matrix(0.0, -0.0376, 0.0652, 0.0, -83.05, 0.9)" gradientUnits="userSpaceOnUse" id="gradient2" spreadMethod="pad" x1="-819.2" x2="819.2">
      <stop offset="0.0" stop-color="#d9d3e9"/>
      <stop offset="1.0" stop-color="#e4d2ff"/>
    </linearGradient>
  </defs>
</svg>
