<?xml version="1.0" encoding="UTF-8" standalone="no"?>
<svg xmlns:xlink="http://www.w3.org/1999/xlink" height="400.25px" width="317.45px" xmlns="http://www.w3.org/2000/svg">
  <g transform="matrix(1.0, 0.0, 0.0, 1.0, 158.3, 204.45)">
    <path d="M133.85 -203.45 Q143.9 -203.45 151.05 -195.95 158.15 -188.5 158.15 -177.9 L158.15 169.25 Q158.15 179.8 151.05 187.35 143.85 194.8 133.85 194.8 L-132.95 194.8 Q-143.0 194.8 -150.15 187.35 -157.3 179.85 -157.3 169.25 L-157.3 -177.9 Q-157.3 -188.5 -150.15 -195.95 -143.0 -203.45 -132.95 -203.45 L133.85 -203.45" fill="#2f2b43" fill-rule="evenodd" stroke="none"/>
    <path d="M133.85 -203.45 Q143.9 -203.45 151.05 -195.95 158.15 -188.5 158.15 -177.9 L158.15 169.25 Q158.15 179.8 151.05 187.35 143.85 194.8 133.85 194.8 L-132.95 194.8 Q-143.0 194.8 -150.15 187.35 -157.3 179.85 -157.3 169.25 L-157.3 -177.9 Q-157.3 -188.5 -150.15 -195.95 -143.0 -203.45 -132.95 -203.45 L133.85 -203.45 Z" fill="none" stroke="#000000" stroke-linecap="round" stroke-linejoin="round" stroke-opacity="0.44705883" stroke-width="2.0"/>
    <path d="M153.05 -176.85 Q152.9 -184.9 147.4 -190.65 141.75 -196.6 133.85 -196.6 L-132.95 -196.6 Q-140.85 -196.6 -146.55 -190.65 -152.05 -184.9 -152.2 -176.85 L-152.2 -180.25 Q-152.2 -188.6 -146.55 -194.45 -140.85 -200.4 -132.95 -200.4 L133.85 -200.4 Q141.75 -200.4 147.4 -194.45 153.05 -188.6 153.05 -180.25 L153.05 -176.85" fill="#8a8abd" fill-rule="evenodd" stroke="none"/>
    <path d="M-152.2 -176.85 Q-152.05 -184.9 -146.55 -190.65 -140.85 -196.6 -132.95 -196.6 L133.85 -196.6 Q141.75 -196.6 147.4 -190.65 152.9 -184.9 153.05 -176.85 L153.05 167.4 Q152.9 175.4 147.4 181.2 141.75 187.05 133.85 187.05 L-132.95 187.05 Q-140.85 187.05 -146.55 181.2 -152.05 175.4 -152.2 167.4 L-152.2 -176.85" fill="url(#gradient0)" fill-rule="evenodd" stroke="none"/>
  </g>
  <defs>
    <linearGradient gradientTransform="matrix(-0.1908, 0.2102, -0.2019, -0.2021, -7.95, 4.55)" gradientUnits="userSpaceOnUse" id="gradient0" spreadMethod="pad" x1="-819.2" x2="819.2">
      <stop offset="0.0" stop-color="#4f5774"/>
      <stop offset="1.0" stop-color="#534c74"/>
    </linearGradient>
  </defs>
</svg>
