<?xml version="1.0" encoding="UTF-8" standalone="no"?>
<svg xmlns:xlink="http://www.w3.org/1999/xlink" height="30.1px" width="21.05px" xmlns="http://www.w3.org/2000/svg">
  <g transform="matrix(1.0, 0.0, 0.0, 1.0, 10.5, 15.05)">
    <path d="M3.6 -14.7 L8.55 -13.25 8.65 -13.1 Q9.4 -11.15 9.25 -9.45 L10.55 -7.45 Q10.5 -5.05 9.7 -2.75 9.45 -0.25 7.7 0.1 6.8 -2.65 1.5 -2.05 -3.1 -0.55 -6.15 -0.5 L-6.55 -0.5 -7.9 -0.65 Q-9.35 -0.85 -10.4 -1.55 -11.2 -3.95 -6.55 -9.1 -5.55 -12.25 -2.2 -14.05 L-1.0 -14.8 3.6 -14.7 M2.6 15.0 Q-3.95 13.4 -8.7 10.45 L-9.05 10.15 Q-8.95 8.05 -7.05 6.0 -1.9 8.8 4.25 10.3 3.95 13.55 2.8 15.05 L2.6 15.0" fill="#677895" fill-rule="evenodd" stroke="none"/>
  </g>
</svg>
