<?xml version="1.0" encoding="UTF-8" standalone="no"?>
<svg xmlns:xlink="http://www.w3.org/1999/xlink" height="65.85px" width="586.15px" xmlns="http://www.w3.org/2000/svg">
  <g transform="matrix(1.0, 0.0, 0.0, 1.0, 293.35, 32.7)">
    <path d="M-276.3 -23.6 L-52.75 -23.6 -42.65 -31.7 42.25 -31.7 50.1 -23.6 275.75 -23.6 Q291.8 -23.6 291.8 -7.5 L291.8 16.1 Q291.8 32.15 275.75 32.15 L-276.3 32.15 Q-285.15 32.15 -289.15 27.25 -292.35 23.3 -292.35 16.1 L-292.35 -7.5 Q-292.35 -23.6 -276.3 -23.6" fill="url(#gradient0)" fill-rule="evenodd" stroke="none"/>
    <path d="M-276.3 -23.6 L-52.75 -23.6 -42.65 -31.7 42.25 -31.7 50.1 -23.6 275.75 -23.6 Q291.8 -23.6 291.8 -7.5 L291.8 16.1 Q291.8 32.15 275.75 32.15 L-276.3 32.15 Q-285.15 32.15 -289.15 27.25 -292.35 23.3 -292.35 16.1 L-292.35 -7.5 Q-292.35 -23.6 -276.3 -23.6 Z" fill="none" stroke="#e7edff" stroke-linecap="round" stroke-linejoin="round" stroke-opacity="0.49803922" stroke-width="2.0"/>
    <path d="M-56.4 -9.9 L58.7 -9.9 Q64.4 -9.9 68.55 -5.95 72.75 -2.0 72.75 3.55 L72.75 14.15 Q72.75 19.65 68.55 23.6 64.4 27.6 58.7 27.6 L-56.4 27.6 Q-62.15 27.6 -66.35 23.6 -70.45 19.65 -70.45 14.15 L-70.45 3.55 Q-70.45 -2.0 -66.35 -5.95 -62.15 -9.9 -56.4 -9.9 M89.3 -1.4 L152.55 -1.4 Q157.15 -1.4 160.55 1.6 163.95 4.65 163.95 8.95 L163.95 17.1 Q163.95 21.35 160.55 24.35 157.15 27.45 152.55 27.45 L89.3 27.45 Q84.65 27.45 81.2 24.35 77.85 21.35 77.85 17.1 L77.85 8.95 Q77.85 4.65 81.2 1.6 84.65 -1.4 89.3 -1.4 M180.3 -1.4 L274.05 -1.4 Q278.65 -1.4 282.05 1.6 285.45 4.65 285.45 8.95 L285.45 17.1 Q285.45 21.35 282.05 24.35 278.65 27.45 274.05 27.45 L180.3 27.45 Q175.65 27.45 172.2 24.35 168.85 21.35 168.85 17.1 L168.85 8.95 Q168.85 4.65 172.2 1.6 175.65 -1.4 180.3 -1.4 M-131.7 -1.4 L-87.55 -1.4 Q-82.95 -1.4 -79.55 1.6 -76.15 4.65 -76.15 8.95 L-76.15 17.1 Q-76.15 21.35 -79.55 24.35 -82.95 27.45 -87.55 27.45 L-131.7 27.45 Q-136.35 27.45 -139.8 24.35 -143.15 21.35 -143.15 17.1 L-143.15 8.95 Q-143.15 4.65 -139.8 1.6 -136.35 -1.4 -131.7 -1.4" fill="#171948" fill-opacity="0.40784314" fill-rule="evenodd" stroke="none"/>
  </g>
  <defs>
    <linearGradient gradientTransform="matrix(0.0, 0.039, -0.3565, 0.0, -0.25, 0.2)" gradientUnits="userSpaceOnUse" id="gradient0" spreadMethod="pad" x1="-819.2" x2="819.2">
      <stop offset="0.0" stop-color="#7c7ac2" stop-opacity="0.9490196"/>
      <stop offset="1.0" stop-color="#718abd" stop-opacity="0.9490196"/>
    </linearGradient>
  </defs>
</svg>
