<?xml version="1.0" encoding="UTF-8" standalone="no"?>
<svg xmlns:xlink="http://www.w3.org/1999/xlink" height="45.6px" width="170.05px" xmlns="http://www.w3.org/2000/svg">
  <g transform="matrix(1.0, 0.0, 0.0, 1.0, 287.7, 18.15)">
    <path d="M-272.3 -17.4 L-238.0 -17.4 Q-223.35 -17.4 -223.35 -3.8 L-223.35 13.15 Q-223.35 26.7 -238.0 26.7 L-272.3 26.7 Q-286.95 26.7 -286.95 13.15 L-286.95 -3.8 Q-286.95 -17.4 -272.3 -17.4 M-203.9 -17.4 L-163.2 -17.4 Q-148.55 -17.4 -148.55 -3.8 L-148.55 13.15 Q-148.55 26.7 -163.2 26.7 L-203.9 26.7 Q-218.55 26.7 -218.55 13.15 L-218.55 -3.8 Q-218.55 -17.4 -203.9 -17.4" fill="#171948" fill-opacity="0.40784314" fill-rule="evenodd" stroke="none"/>
    <path d="M-272.3 -17.4 L-238.0 -17.4 Q-223.35 -17.4 -223.35 -3.8 L-223.35 13.15 Q-223.35 26.7 -238.0 26.7 L-272.3 26.7 Q-286.95 26.7 -286.95 13.15 L-286.95 -3.8 Q-286.95 -17.4 -272.3 -17.4 M-203.9 -17.4 L-163.2 -17.4 Q-148.55 -17.4 -148.55 -3.8 L-148.55 13.15 Q-148.55 26.7 -163.2 26.7 L-203.9 26.7 Q-218.55 26.7 -218.55 13.15 L-218.55 -3.8 Q-218.55 -17.4 -203.9 -17.4" fill="none" stroke="#171b27" stroke-linecap="round" stroke-linejoin="round" stroke-opacity="0.49803922" stroke-width="1.5"/>
    <path d="M-125.8 11.5 L-127.45 12.9 -129.1 11.5 -132.1 8.8 -133.9 10.9 -127.45 17.9 -121.0 10.9 -122.8 8.8 -125.8 11.5 M-127.45 9.6 L-122.55 5.25 -117.65 10.95 -127.45 21.6 -137.25 10.95 -132.35 5.25 -127.45 9.6" fill="#c6d0ec" fill-rule="evenodd" stroke="none"/>
  </g>
</svg>
