<?xml version="1.0" encoding="UTF-8" standalone="no"?>
<svg xmlns:xlink="http://www.w3.org/1999/xlink" height="32.25px" width="174.95px" xmlns="http://www.w3.org/2000/svg">
  <g transform="matrix(1.0, 0.0, 0.0, 1.0, 81.15, 12.25)">
    <path d="M27.95 -2.55 Q30.6 -4.1 33.95 -4.1 38.5 -4.1 41.7 -1.05 41.95 -1.65 42.5 -2.1 43.25 -2.95 44.45 -3.15 L44.45 -5.65 Q44.45 -7.4 45.55 -8.55 L45.75 -8.75 Q46.9 -9.85 48.65 -9.85 50.5 -9.85 51.65 -8.65 52.85 -7.45 52.85 -5.65 L52.85 -3.25 53.25 -3.25 Q54.95 -3.25 56.05 -2.2 57.35 -1.15 57.35 0.75 57.35 2.45 56.05 3.65 54.95 4.65 53.25 4.65 L52.85 4.65 52.85 10.55 53.05 11.25 54.1 11.25 Q55.75 11.25 56.9 12.5 58.05 13.6 58.05 15.45 58.0 17.4 56.6 18.6 55.35 19.65 53.55 19.65 L52.95 19.65 Q50.5 19.65 48.6 18.45 L48.55 18.4 Q46.6 17.15 45.55 15.1 L45.55 15.05 Q44.45 13.0 44.45 10.55 L44.45 4.6 43.15 4.1 41.7 5.65 41.65 5.7 Q40.65 6.35 39.45 6.35 37.55 6.35 36.25 4.95 L36.2 4.85 35.35 4.25 33.95 4.0 Q32.45 4.0 31.5 4.95 30.6 6.1 30.6 7.85 30.6 9.05 31.1 10.0 31.5 10.8 32.25 11.25 L32.3 11.3 34.15 11.75 Q35.45 11.75 36.3 11.15 37.65 10.0 39.15 10.05 40.3 10.0 41.45 10.8 L41.75 11.0 Q43.2 12.35 43.15 14.1 43.2 15.6 42.05 16.8 L41.95 16.85 Q38.8 19.8 34.15 19.8 30.75 19.8 28.05 18.2 L28.1 18.25 Q25.3 16.7 23.8 13.95 22.9 12.35 22.55 10.55 L21.3 11.35 Q22.65 12.55 22.55 14.2 22.6 15.95 21.1 17.15 L21.0 17.25 Q19.55 18.4 17.45 19.05 L17.35 19.1 13.35 19.8 Q9.85 19.8 7.15 18.25 L7.2 18.3 Q4.35 16.8 2.75 14.0 1.15 11.3 1.15 7.85 1.15 5.6 1.85 3.7 0.95 4.25 -0.3 4.2 L-1.2 4.1 -3.05 3.9 Q-4.55 3.9 -5.5 4.55 -6.05 4.9 -6.0 5.55 L-6.0 15.45 Q-6.0 17.35 -7.0 18.35 L-7.1 18.5 Q-8.15 19.65 -10.2 19.65 -12.15 19.65 -13.2 18.5 -14.4 17.5 -14.4 15.45 L-14.4 3.5 Q-15.35 4.25 -16.8 4.2 L-17.7 4.1 -19.55 3.9 Q-21.05 3.9 -22.0 4.55 -22.55 4.9 -22.5 5.55 L-22.5 15.45 Q-22.5 17.35 -23.5 18.35 L-23.6 18.5 Q-24.65 19.65 -26.7 19.65 -28.65 19.65 -29.7 18.5 -30.9 17.5 -30.9 15.45 L-30.9 0.25 Q-30.9 -1.7 -29.7 -2.75 -28.65 -3.95 -26.7 -3.95 -24.85 -3.95 -23.8 -3.1 L-23.5 -3.25 -23.45 -3.3 Q-21.45 -4.15 -19.3 -4.15 -16.65 -4.15 -15.25 -3.3 L-13.75 -2.15 -13.2 -2.75 Q-12.15 -3.95 -10.2 -3.95 -8.35 -3.95 -7.3 -3.1 L-7.0 -3.25 -6.95 -3.3 Q-4.95 -4.15 -2.8 -4.15 -0.15 -4.15 1.25 -3.3 3.75 -1.9 3.55 0.25 L3.55 0.4 Q4.85 -1.4 6.85 -2.55 9.5 -4.1 12.85 -4.1 16.2 -4.1 18.65 -2.6 L18.7 -2.55 Q21.15 -1.0 22.55 1.65 L22.55 1.75 23.15 3.15 23.75 1.85 23.8 1.8 Q25.25 -0.95 27.95 -2.55 M86.6 -11.65 L92.9 -6.45 Q93.7 -5.8 93.8 -4.75 93.9 -3.75 93.2 -2.9 L75.45 18.1 Q74.95 18.65 74.25 18.85 73.55 19.05 72.85 18.85 72.1 18.65 71.65 18.05 L62.35 7.0 Q61.7 6.25 61.75 5.25 61.8 4.25 62.55 3.6 L66.45 -0.1 Q66.95 -0.6 67.7 -0.75 L69.05 -0.6 70.15 0.2 73.15 4.25 82.9 -11.1 83.95 -12.0 85.3 -12.2 Q86.05 -12.15 86.6 -11.65 M13.35 11.85 L14.8 11.6 14.9 11.55 11.6 11.55 13.35 11.85 M-69.0 -3.0 Q-70.7 -1.95 -71.7 -0.15 -72.7 1.7 -72.7 3.85 -72.7 6.05 -71.7 7.9 -70.7 9.65 -69.0 10.75 -67.4 11.75 -65.5 11.75 -63.05 11.7 -60.75 10.0 L-60.6 9.95 Q-59.3 9.05 -58.1 9.1 -56.3 9.1 -55.15 10.4 -54.15 11.4 -54.15 13.3 -54.1 15.0 -55.4 16.35 L-55.6 16.5 Q-59.95 20.0 -65.5 20.0 -69.85 20.0 -73.4 17.85 -77.0 15.7 -79.05 12.0 -81.15 8.3 -81.15 3.85 -81.15 -0.55 -79.05 -4.2 -77.0 -7.9 -73.4 -10.05 L-73.45 -10.0 Q-69.85 -12.25 -65.5 -12.25 -62.45 -12.25 -60.25 -11.4 L-60.15 -11.4 Q-57.9 -10.6 -55.6 -8.7 L-55.7 -8.8 Q-54.75 -8.1 -54.4 -7.3 L-54.25 -6.85 -54.05 -5.45 Q-54.05 -3.65 -55.2 -2.5 L-55.3 -2.45 Q-56.55 -1.35 -58.15 -1.35 -59.65 -1.35 -60.9 -2.35 L-60.95 -2.4 Q-62.0 -3.25 -62.9 -3.7 L-65.5 -4.05 Q-67.4 -4.05 -69.0 -3.05 L-69.0 -3.0 M-49.0 -2.55 Q-46.35 -4.1 -42.9 -4.1 -39.5 -4.1 -36.85 -2.55 -34.1 -0.95 -32.55 1.7 L-32.55 1.75 Q-31.05 4.4 -31.05 7.85 -31.05 11.3 -32.55 14.0 -34.15 16.75 -36.85 18.25 L-36.8 18.2 Q-39.5 19.8 -42.9 19.8 -46.35 19.8 -49.05 18.2 L-49.0 18.25 Q-51.7 16.75 -53.25 14.0 -54.8 11.3 -54.8 7.85 -54.8 4.4 -53.25 1.75 L-53.25 1.7 Q-51.75 -0.95 -49.05 -2.55 L-49.0 -2.55 M-39.85 5.7 Q-40.3 4.9 -41.05 4.5 L-41.05 4.45 Q-41.85 4.0 -42.9 4.0 -43.95 4.0 -44.7 4.45 L-44.75 4.5 Q-45.5 4.9 -45.9 5.7 L-45.95 5.75 Q-46.45 6.7 -46.45 7.85 -46.45 9.0 -45.95 9.95 L-45.9 10.0 Q-45.5 10.8 -44.75 11.25 L-44.65 11.3 -42.9 11.75 Q-41.9 11.75 -41.1 11.3 L-41.05 11.25 Q-40.3 10.8 -39.85 10.0 -39.4 9.05 -39.4 7.85 -39.4 6.65 -39.85 5.7" fill="#173a2b" fill-rule="evenodd" stroke="none"/>
    <path d="M34.15 17.3 Q31.45 17.3 29.3 16.05 27.15 14.85 25.95 12.7 24.75 10.55 24.75 7.85 24.75 5.15 25.95 3.0 27.1 0.85 29.2 -0.4 31.3 -1.6 33.95 -1.6 38.0 -1.6 40.65 1.5 41.0 1.85 41.0 2.35 41.0 3.1 40.25 3.6 L39.45 3.85 Q38.65 3.85 38.1 3.25 37.3 2.3 36.25 1.9 L33.95 1.5 Q31.35 1.5 29.7 3.2 28.1 5.0 28.1 7.85 28.1 9.7 28.85 11.15 29.6 12.6 31.0 13.4 32.4 14.25 34.15 14.25 36.45 14.25 37.9 13.05 38.5 12.55 39.15 12.55 39.6 12.55 40.05 12.85 40.65 13.4 40.65 14.1 40.65 14.6 40.25 15.0 37.8 17.3 34.15 17.3 M21.3 7.55 Q21.3 8.2 20.85 8.65 20.45 9.05 19.75 9.05 L6.8 9.05 Q7.2 11.45 8.95 12.9 10.75 14.35 13.35 14.35 L15.5 14.0 17.3 13.05 Q17.75 12.7 18.4 12.7 19.05 12.7 19.45 13.05 20.05 13.55 20.05 14.2 20.05 14.8 19.5 15.2 18.35 16.15 16.6 16.7 14.9 17.3 13.35 17.3 10.55 17.3 8.35 16.05 6.15 14.9 4.9 12.75 3.65 10.6 3.65 7.85 3.65 5.15 4.85 3.0 6.0 0.85 8.1 -0.4 10.2 -1.6 12.85 -1.6 15.45 -1.6 17.35 -0.45 19.25 0.75 20.3 2.8 21.3 4.9 21.3 7.55 M54.1 13.75 Q54.7 13.75 55.1 14.25 55.55 14.7 55.55 15.45 55.55 16.2 55.0 16.65 54.4 17.15 53.55 17.15 L52.95 17.15 Q51.25 17.15 49.9 16.3 48.5 15.4 47.75 13.9 46.95 12.4 46.95 10.55 L46.95 2.15 45.35 2.15 Q44.65 2.15 44.25 1.75 43.8 1.35 43.8 0.75 43.8 0.05 44.25 -0.35 44.65 -0.75 45.35 -0.75 L46.95 -0.75 46.95 -5.65 Q46.95 -6.4 47.4 -6.9 47.9 -7.35 48.65 -7.35 49.4 -7.35 49.85 -6.9 50.35 -6.4 50.35 -5.65 L50.35 -0.75 53.25 -0.75 Q53.95 -0.75 54.4 -0.35 54.85 0.05 54.85 0.75 54.85 1.35 54.4 1.75 53.95 2.15 53.25 2.15 L50.35 2.15 50.35 10.55 Q50.35 11.9 51.1 12.85 51.85 13.75 52.95 13.75 L54.1 13.75 M12.85 1.35 Q10.35 1.35 8.8 2.7 7.25 4.05 6.85 6.35 L18.15 6.35 Q17.85 4.05 16.45 2.7 15.1 1.35 12.85 1.35 M-2.8 -1.65 Q-0.95 -1.65 0.05 -1.1 1.05 -0.55 1.05 0.25 L1.05 0.6 Q0.7 1.7 -0.3 1.7 L-0.85 1.6 -3.05 1.4 Q-5.5 1.4 -7.0 2.5 -8.5 3.6 -8.5 5.55 L-8.5 15.45 Q-8.5 16.25 -8.9 16.7 -9.35 17.15 -10.2 17.15 -11.0 17.15 -11.45 16.7 -11.9 16.3 -11.9 15.45 L-11.9 0.25 Q-11.9 -0.55 -11.45 -1.0 -11.0 -1.45 -10.2 -1.45 -8.5 -1.45 -8.5 0.25 L-8.5 0.9 -5.95 -1.0 Q-4.45 -1.65 -2.8 -1.65 M-65.5 17.5 Q-69.15 17.5 -72.15 15.7 -75.15 13.9 -76.9 10.75 -78.65 7.65 -78.65 3.85 -78.65 0.1 -76.9 -3.0 -75.15 -6.1 -72.15 -7.9 -69.15 -9.75 -65.5 -9.75 -62.9 -9.75 -61.05 -9.05 -59.15 -8.4 -57.2 -6.8 L-56.65 -6.2 -56.55 -5.45 Q-56.55 -4.75 -57.0 -4.3 -57.5 -3.85 -58.15 -3.85 -58.8 -3.85 -59.35 -4.3 -60.75 -5.5 -62.05 -6.05 L-65.5 -6.55 Q-68.15 -6.55 -70.35 -5.15 -72.6 -3.75 -73.9 -1.35 -75.2 1.05 -75.2 3.85 -75.2 6.7 -73.9 9.1 -72.6 11.45 -70.35 12.85 -68.15 14.25 -65.5 14.25 -62.25 14.25 -59.25 12.0 -58.65 11.6 -58.1 11.6 -57.45 11.6 -57.05 12.05 -56.65 12.5 -56.65 13.3 -56.65 14.0 -57.2 14.55 -60.85 17.5 -65.5 17.5 M-42.9 17.3 Q-45.65 17.3 -47.8 16.05 -49.9 14.9 -51.1 12.75 -52.3 10.6 -52.3 7.85 -52.3 5.1 -51.1 2.95 -49.9 0.85 -47.8 -0.4 -45.65 -1.6 -42.9 -1.6 -40.2 -1.6 -38.1 -0.4 -35.95 0.85 -34.75 2.95 -33.55 5.1 -33.55 7.85 -33.55 10.6 -34.75 12.75 -35.95 14.9 -38.05 16.05 -40.2 17.3 -42.9 17.3 M-19.3 -1.65 Q-17.45 -1.65 -16.45 -1.1 -15.45 -0.55 -15.45 0.25 L-15.45 0.6 Q-15.8 1.7 -16.8 1.7 L-17.35 1.6 -19.55 1.4 Q-22.0 1.4 -23.5 2.5 -25.0 3.6 -25.0 5.55 L-25.0 15.45 Q-25.0 16.25 -25.4 16.7 -25.85 17.15 -26.7 17.15 -27.5 17.15 -27.95 16.7 -28.4 16.3 -28.4 15.45 L-28.4 0.25 Q-28.4 -0.55 -27.95 -1.0 -27.5 -1.45 -26.7 -1.45 -25.0 -1.45 -25.0 0.25 L-25.0 0.9 Q-23.95 -0.3 -22.45 -1.0 L-19.3 -1.65 M-42.9 14.25 Q-41.15 14.25 -39.8 13.4 -38.4 12.6 -37.65 11.15 -36.9 9.7 -36.9 7.85 -36.9 6.05 -37.65 4.55 -38.4 3.1 -39.8 2.3 -41.15 1.5 -42.9 1.5 -44.65 1.5 -46.0 2.3 -47.4 3.1 -48.15 4.55 -48.95 6.05 -48.95 7.85 -48.95 9.7 -48.15 11.15 -47.4 12.6 -46.0 13.4 -44.65 14.25 -42.9 14.25" fill="#87e7b0" fill-rule="evenodd" stroke="none"/>
    <path d="M64.25 5.4 L68.15 1.7 73.3 8.65 85.0 -9.75 91.3 -4.55 73.55 16.45 64.25 5.4" fill="#59d48c" fill-rule="evenodd" stroke="none"/>
  </g>
</svg>
