<?xml version="1.0" encoding="UTF-8" standalone="no"?>
<svg xmlns:xlink="http://www.w3.org/1999/xlink" height="38.15px" width="143.4px" xmlns="http://www.w3.org/2000/svg">
  <g transform="matrix(1.0, 0.0, 0.0, 1.0, 66.7, 12.8)">
    <path d="M27.25 -2.5 Q29.7 -3.95 32.9 -3.95 36.05 -3.95 38.55 -2.5 41.05 -1.1 42.6 1.5 L42.6 1.6 Q43.95 4.05 43.95 7.25 L43.95 13.95 Q43.95 17.1 42.65 19.6 L42.6 19.65 Q41.15 22.3 38.55 23.85 L38.6 23.8 Q36.1 25.35 32.85 25.35 30.05 25.35 27.6 24.25 25.1 23.05 23.45 20.95 22.5 19.7 22.55 18.5 22.45 16.6 24.3 15.35 L24.35 15.35 Q24.5 15.2 24.65 15.15 23.75 14.1 23.1 12.85 L22.35 11.1 22.35 14.2 Q22.35 16.05 21.1 17.15 L21.05 17.2 Q19.9 18.3 18.3 18.3 16.6 18.3 15.5 17.2 14.2 16.1 14.2 14.2 L14.2 6.5 Q14.2 5.25 13.65 4.55 L13.65 4.5 Q12.85 3.9 11.7 3.9 L10.5 4.2 10.4 4.25 9.75 4.75 9.55 5.4 9.55 14.2 Q9.55 16.05 8.3 17.15 L8.25 17.2 Q7.15 18.3 5.45 18.3 3.75 18.3 2.65 17.2 1.35 16.1 1.35 14.2 L1.35 9.85 Q1.0 11.45 0.25 12.9 L0.25 12.95 Q-1.2 15.5 -3.75 16.95 -6.25 18.35 -9.45 18.35 -12.65 18.35 -15.1 16.95 -17.75 15.5 -19.1 12.95 L-19.15 12.9 Q-20.55 10.4 -20.55 7.25 -20.55 5.4 -20.05 3.75 L-21.75 4.05 -22.6 4.0 -22.7 3.95 -24.2 3.75 Q-25.5 3.75 -26.3 4.3 -26.7 4.6 -26.7 5.1 L-26.7 14.2 Q-26.7 16.15 -27.8 17.15 -28.8 18.25 -30.8 18.25 -32.5 18.25 -33.6 17.25 L-33.7 17.15 Q-34.85 16.15 -34.85 14.2 L-34.85 0.25 -34.8 -0.4 -39.5 15.2 -39.6 15.4 Q-40.1 16.6 -40.9 17.3 L-41.0 17.4 Q-42.15 18.25 -43.55 18.25 -44.95 18.25 -46.05 17.4 -47.2 16.55 -47.55 15.05 L-47.55 15.1 -49.8 6.4 -52.1 15.1 -52.15 15.25 Q-52.6 16.55 -53.5 17.3 L-53.6 17.4 Q-54.75 18.25 -56.15 18.25 -57.55 18.25 -58.65 17.4 -59.7 16.6 -60.15 15.25 L-60.2 15.2 -66.4 -5.55 -66.45 -5.6 -66.7 -7.2 Q-66.7 -8.95 -65.55 -10.0 -64.65 -11.1 -62.8 -11.1 -61.4 -11.1 -60.35 -10.3 -59.25 -9.55 -58.85 -8.1 L-56.2 1.05 -53.8 -7.85 -53.85 -7.7 Q-53.55 -9.2 -52.2 -10.05 -51.15 -10.8 -49.85 -10.8 -48.55 -10.8 -47.55 -10.15 L-47.5 -10.1 Q-46.3 -9.3 -45.9 -7.95 L-45.85 -7.9 -43.45 1.15 -40.75 -8.15 -40.75 -8.25 Q-40.3 -9.95 -39.05 -10.5 -38.2 -11.1 -36.75 -11.1 -34.85 -11.1 -33.95 -9.9 L-33.95 -9.85 Q-33.0 -8.85 -33.0 -7.25 -33.0 -6.45 -33.25 -5.6 L-34.4 -1.8 -33.7 -2.65 -33.6 -2.75 Q-32.5 -3.8 -30.8 -3.8 -29.1 -3.8 -28.1 -3.1 L-27.95 -3.15 -27.9 -3.15 Q-26.1 -4.0 -24.0 -4.0 -21.55 -4.0 -20.2 -3.2 L-20.15 -3.15 Q-18.0 -2.0 -17.9 -0.25 -16.75 -1.65 -15.1 -2.55 L-15.1 -2.5 Q-12.65 -3.95 -9.45 -3.95 -6.3 -3.95 -3.8 -2.5 -1.3 -1.1 0.25 1.5 L0.25 1.6 Q1.0 3.0 1.35 4.65 L1.35 0.25 Q1.35 -1.55 2.55 -2.65 L2.65 -2.75 Q3.75 -3.8 5.45 -3.8 6.9 -3.8 7.95 -3.05 L8.45 -3.25 8.55 -3.3 12.35 -3.95 Q15.15 -3.95 17.4 -2.75 19.8 -1.45 21.1 1.05 21.85 2.45 22.15 4.2 22.5 2.8 23.2 1.6 24.6 -1.05 27.25 -2.55 L27.25 -2.5 M76.7 -8.55 Q76.7 -7.2 75.9 -5.9 L75.8 -5.8 68.45 4.0 75.7 14.0 75.75 14.1 Q76.55 15.35 76.55 16.7 76.55 18.4 75.4 19.7 74.3 21.05 72.3 21.05 70.1 21.0 68.85 19.4 L68.8 19.35 62.7 10.95 56.25 19.5 56.05 19.8 Q54.75 21.05 52.95 21.05 51.05 21.05 49.9 19.85 L49.75 19.65 Q48.7 18.4 48.7 16.8 48.7 15.2 49.65 13.95 L57.15 3.95 50.3 -5.65 Q49.25 -6.75 49.25 -8.45 49.25 -10.1 50.35 -11.4 L50.4 -11.45 Q51.5 -12.8 53.5 -12.8 55.95 -12.8 56.85 -11.35 L56.95 -11.25 62.9 -2.95 69.1 -11.3 69.45 -11.65 Q70.6 -12.8 72.5 -12.8 74.3 -12.8 75.55 -11.55 L75.6 -11.45 Q76.7 -10.3 76.7 -8.55 M34.5 4.25 L32.9 3.85 Q32.0 3.85 31.35 4.25 30.65 4.65 30.25 5.45 L30.3 5.35 Q29.85 6.2 29.85 7.25 29.85 8.2 30.25 9.0 30.65 9.75 31.35 10.15 32.0 10.55 32.9 10.55 33.8 10.55 34.5 10.15 L35.5 9.1 35.55 9.05 Q35.95 8.25 35.95 7.25 35.95 6.25 35.55 5.45 L35.5 5.35 Q35.1 4.65 34.5 4.25 M-7.85 4.25 L-9.45 3.85 Q-10.35 3.85 -11.0 4.25 L-12.1 5.45 -12.05 5.35 -12.5 7.25 Q-12.5 8.2 -12.1 9.0 L-11.0 10.15 Q-10.35 10.55 -9.45 10.55 L-7.85 10.15 -6.85 9.1 -6.8 9.05 Q-6.4 8.25 -6.4 7.25 -6.4 6.25 -6.8 5.45 L-6.85 5.35 Q-7.25 4.65 -7.85 4.25" fill="#312222" fill-rule="evenodd" stroke="none"/>
    <path d="M12.35 -1.45 Q14.5 -1.45 16.2 -0.55 17.95 0.4 18.9 2.2 19.85 4.0 19.85 6.5 L19.85 14.2 Q19.85 14.9 19.4 15.3 18.95 15.8 18.3 15.8 17.6 15.8 17.15 15.3 16.7 14.9 16.7 14.2 L16.7 6.5 Q16.7 4.0 15.35 2.7 13.95 1.4 11.7 1.4 10.4 1.4 9.35 1.95 8.25 2.45 7.65 3.35 7.05 4.25 7.05 5.4 L7.05 14.2 Q7.05 14.9 6.6 15.3 6.15 15.8 5.45 15.8 4.75 15.8 4.3 15.3 3.85 14.9 3.85 14.2 L3.85 0.25 Q3.85 -0.45 4.3 -0.9 4.75 -1.3 5.45 -1.3 6.15 -1.3 6.6 -0.9 7.05 -0.45 7.05 0.25 L7.05 0.6 Q8.05 -0.4 9.4 -0.95 L12.35 -1.45 M32.9 -1.45 Q35.35 -1.45 37.3 -0.35 39.25 0.75 40.4 2.75 41.45 4.7 41.45 7.25 L41.45 13.95 Q41.45 16.45 40.4 18.45 39.3 20.5 37.3 21.65 35.35 22.85 32.85 22.85 30.6 22.85 28.65 21.95 26.7 21.05 25.4 19.4 25.05 18.95 25.05 18.5 25.05 17.85 25.7 17.4 26.15 17.1 26.6 17.1 27.4 17.1 27.9 17.8 28.7 18.85 30.0 19.45 31.3 20.05 32.9 20.05 34.45 20.05 35.7 19.3 36.9 18.55 37.7 17.15 38.45 15.7 38.45 13.75 L38.45 12.25 Q37.45 13.95 35.85 14.9 34.25 15.85 32.25 15.85 29.95 15.85 28.15 14.75 26.3 13.65 25.3 11.7 24.3 9.75 24.3 7.25 24.3 4.7 25.4 2.75 26.45 0.75 28.45 -0.35 30.4 -1.45 32.9 -1.45 M32.9 13.05 Q34.5 13.05 35.75 12.3 37.0 11.55 37.7 10.25 38.45 8.9 38.45 7.25 38.45 5.55 37.7 4.2 37.0 2.85 35.75 2.1 34.5 1.35 32.9 1.35 31.3 1.35 30.05 2.1 28.8 2.85 28.05 4.2 27.35 5.55 27.35 7.25 27.35 8.9 28.05 10.25 28.8 11.55 30.05 12.3 31.3 13.05 32.9 13.05 M-36.75 -8.6 Q-36.15 -8.6 -35.85 -8.25 -35.5 -7.85 -35.5 -7.25 L-35.65 -6.35 -41.9 14.45 -42.55 15.4 Q-43.0 15.75 -43.55 15.75 L-44.55 15.4 -45.15 14.45 -49.8 -3.5 -54.55 14.45 -55.15 15.4 Q-55.6 15.75 -56.15 15.75 -56.7 15.75 -57.15 15.4 L-57.8 14.45 -64.05 -6.35 -64.2 -7.2 Q-64.2 -7.85 -63.8 -8.25 L-62.8 -8.6 Q-62.25 -8.6 -61.85 -8.3 L-61.25 -7.4 -56.1 10.4 -51.4 -7.2 Q-51.3 -7.7 -50.85 -8.0 L-49.85 -8.3 -48.9 -8.05 Q-48.45 -7.75 -48.3 -7.25 L-43.55 10.5 -38.35 -7.55 -37.8 -8.35 -36.75 -8.6 M-24.0 -1.5 L-21.4 -1.0 Q-20.45 -0.5 -20.45 0.25 L-20.5 0.55 Q-20.75 1.55 -21.75 1.55 L-22.2 1.5 -24.2 1.25 Q-26.5 1.25 -27.85 2.3 -29.2 3.35 -29.2 5.1 L-29.2 14.2 Q-29.2 14.95 -29.6 15.35 -30.0 15.75 -30.8 15.75 -31.5 15.75 -31.95 15.35 -32.35 14.95 -32.35 14.2 L-32.35 0.25 Q-32.35 -0.5 -31.95 -0.9 -31.5 -1.3 -30.8 -1.3 -29.2 -1.3 -29.2 0.25 L-29.2 0.85 Q-28.3 -0.25 -26.9 -0.9 -25.55 -1.5 -24.0 -1.5 M-9.45 15.85 Q-11.95 15.85 -13.9 14.75 -15.9 13.65 -16.95 11.7 -18.05 9.75 -18.05 7.25 -18.05 4.7 -16.95 2.75 -15.9 0.75 -13.9 -0.35 -11.95 -1.45 -9.45 -1.45 -7.0 -1.45 -5.05 -0.35 -3.1 0.75 -1.95 2.75 -0.9 4.7 -0.9 7.25 -0.9 9.75 -1.95 11.7 -3.05 13.65 -5.0 14.75 -6.95 15.85 -9.45 15.85 M-9.45 13.05 Q-7.85 13.05 -6.6 12.3 -5.35 11.55 -4.65 10.25 -3.9 8.9 -3.9 7.25 -3.9 5.55 -4.65 4.2 -5.35 2.85 -6.6 2.1 -7.85 1.35 -9.45 1.35 -11.05 1.35 -12.3 2.1 -13.55 2.85 -14.3 4.2 -15.0 5.55 -15.0 7.25 -15.0 8.9 -14.3 10.25 -13.55 11.55 -12.3 12.3 -11.05 13.05 -9.45 13.05" fill="#ffb1b1" fill-rule="evenodd" stroke="none"/>
    <path d="M73.65 15.45 Q74.05 16.05 74.05 16.7 74.05 17.45 73.55 18.0 73.1 18.55 72.3 18.55 71.35 18.55 70.8 17.85 L62.75 6.7 54.25 18.0 Q53.7 18.55 52.95 18.55 52.15 18.55 51.65 18.05 51.2 17.5 51.2 16.8 51.2 16.05 51.65 15.45 L60.25 4.0 52.15 -7.3 Q51.75 -7.75 51.75 -8.45 51.75 -9.2 52.25 -9.8 52.7 -10.3 53.5 -10.3 54.5 -10.3 54.9 -9.8 L62.85 1.25 71.1 -9.8 Q71.65 -10.3 72.5 -10.3 73.25 -10.3 73.75 -9.8 74.2 -9.3 74.2 -8.55 74.2 -7.9 73.8 -7.3 L65.35 3.95 73.65 15.45" fill="#ff6666" fill-rule="evenodd" stroke="none"/>
  </g>
</svg>
