<?xml version="1.0" encoding="UTF-8" standalone="no"?>
<svg xmlns:xlink="http://www.w3.org/1999/xlink" height="40.75px" width="22.85px" xmlns="http://www.w3.org/2000/svg">
  <g transform="matrix(1.0, 0.0, 0.0, 1.0, 11.0, 21.55)">
    <path d="M4.15 -20.45 L9.1 -19.0 9.2 -18.85 Q9.95 -16.9 9.8 -15.2 L11.1 -13.2 Q11.05 -10.8 10.25 -8.5 10.0 -6.0 8.25 -5.65 L8.6 -5.1 Q9.6 -3.55 9.05 -2.65 L8.3 -1.85 Q9.2 0.0 8.95 1.7 7.85 3.3 4.8 4.55 4.5 7.8 3.35 9.3 L3.15 9.25 Q1.0 20.2 -6.15 18.15 -13.15 15.45 -8.15 4.7 L-8.5 4.4 Q-8.4 2.3 -6.5 0.25 -8.15 -1.35 -7.85 -3.0 -7.25 -4.1 -6.25 -4.6 L-6.0 -6.25 -7.35 -6.4 Q-8.8 -6.6 -9.85 -7.3 -10.65 -9.7 -6.0 -14.85 -5.0 -18.0 -1.65 -19.8 L-0.45 -20.55 4.15 -20.45 Q6.1 -19.8 7.7 -18.25 L7.75 -17.95 7.7 -17.1 Q5.55 -13.25 -0.15 -11.55 L-4.3 -11.2 -5.55 -11.55 Q-6.05 -11.7 -6.35 -12.05 -6.5 -13.6 -6.0 -14.85 M9.8 -15.2 Q9.6 -11.65 5.75 -9.15 L5.35 -8.95 Q3.6 -8.25 2.05 -7.8 7.35 -8.4 8.25 -5.65 M2.05 -7.8 Q-2.55 -6.3 -5.6 -6.25 L-6.0 -6.25 M4.8 4.55 Q-1.35 3.05 -6.5 0.25 M-8.15 4.7 Q-3.4 7.65 3.15 9.25 M8.3 -1.85 L6.4 0.1" fill="none" stroke="#000000" stroke-linecap="round" stroke-linejoin="round" stroke-width="1.5"/>
  </g>
</svg>
