<?xml version="1.0" encoding="UTF-8" standalone="no"?>
<svg xmlns:xlink="http://www.w3.org/1999/xlink" height="421.3px" width="582.3px" xmlns="http://www.w3.org/2000/svg">
  <g transform="matrix(1.0, 0.0, 0.0, 1.0, 293.4, 196.05)">
    <path d="M178.1 140.1 Q200.4 140.1 200.4 160.8 L200.4 204.5 Q200.4 214.95 194.75 220.2 191.75 222.9 187.3 224.15 183.3 225.25 178.1 225.25 L93.6 225.25 Q71.2 225.25 71.2 204.5 L71.2 160.8 Q71.2 140.1 93.6 140.1 L178.1 140.1 M39.95 140.1 Q62.35 140.1 62.35 160.8 L62.35 204.5 Q62.35 225.25 39.95 225.25 L-44.5 225.25 Q-66.9 225.25 -66.9 204.5 L-66.9 160.8 Q-66.9 140.1 -44.5 140.1 L39.95 140.1 M-99.4 140.1 Q-77.0 140.1 -77.0 160.8 L-77.0 204.5 Q-77.0 225.25 -99.4 225.25 L-183.95 225.25 Q-206.35 225.25 -206.35 204.5 L-206.35 160.8 Q-206.35 140.1 -183.95 140.1 L-99.4 140.1" fill="#3c3262" fill-opacity="0.76862746" fill-rule="evenodd" stroke="none"/>
    <path d="M-292.4 -195.05 L287.9 -195.05 M-292.4 39.95 L287.9 39.95" fill="none" stroke="#29195b" stroke-linecap="round" stroke-linejoin="round" stroke-opacity="0.40784314" stroke-width="2.0"/>
  </g>
</svg>
