<?xml version="1.0" encoding="UTF-8" standalone="no"?>
<svg xmlns:xlink="http://www.w3.org/1999/xlink" height="126.25px" width="204.4px" xmlns="http://www.w3.org/2000/svg">
  <g transform="matrix(1.0, 0.0, 0.0, 1.0, 101.7, 66.05)">
    <path d="M86.45 -60.8 L-85.45 -60.8 Q-96.45 -60.8 -96.45 -49.75 L-96.45 43.9 Q-96.45 54.95 -85.45 54.95 L86.45 54.95 Q97.45 54.95 97.45 43.9 L97.45 -49.75 Q97.45 -60.8 86.45 -60.8 M-85.45 -65.3 L86.45 -65.3 Q101.95 -65.3 101.95 -49.75 L101.95 43.9 Q101.95 59.45 86.45 59.45 L-85.45 59.45 Q-100.95 59.45 -100.95 43.9 L-100.95 -49.75 Q-100.95 -65.3 -85.45 -65.3" fill="#ffffff" fill-opacity="0.4392157" fill-rule="evenodd" stroke="none"/>
    <path d="M-85.45 -65.3 L86.45 -65.3 Q101.95 -65.3 101.95 -49.75 L101.95 43.9 Q101.95 59.45 86.45 59.45 L-85.45 59.45 Q-100.95 59.45 -100.95 43.9 L-100.95 -49.75 Q-100.95 -65.3 -85.45 -65.3 Z" fill="none" stroke="#000000" stroke-linecap="round" stroke-linejoin="round" stroke-width="1.5"/>
    <path d="M-85.45 -65.3 L86.45 -65.3 Q101.95 -65.3 101.95 -49.75 L101.95 43.9 Q101.95 59.45 86.45 59.45 L-85.45 59.45 Q-100.95 59.45 -100.95 43.9 L-100.95 -49.75 Q-100.95 -65.3 -85.45 -65.3 Z" fill="none" stroke="#000000" stroke-linecap="round" stroke-linejoin="round" stroke-width="1.5"/>
  </g>
</svg>
