<?xml version="1.0" encoding="UTF-8" standalone="no"?>
<svg xmlns:xlink="http://www.w3.org/1999/xlink" height="10.1px" width="42.0px" xmlns="http://www.w3.org/2000/svg">
  <g transform="matrix(1.0, 0.0, 0.0, 1.0, 21.0, 5.05)">
    <path d="M12.75 0.0 Q12.75 -1.25 9.0 -2.15 L0.0 -3.05 Q-5.3 -3.05 -9.05 -2.15 -12.75 -1.25 -12.75 0.0 -12.75 1.3 -9.05 2.2 -5.3 3.1 0.0 3.1 L9.0 2.2 Q12.75 1.3 12.75 0.0 M21.0 0.0 Q21.0 2.1 14.85 3.6 8.7 5.05 0.0 5.05 -8.7 5.05 -14.85 3.6 -21.0 2.1 -21.0 0.0 -21.0 -2.1 -14.85 -3.55 -8.7 -5.05 0.0 -5.05 8.7 -5.05 14.85 -3.55 21.0 -2.1 21.0 0.0" fill="#ffffff" fill-opacity="0.78039217" fill-rule="evenodd" stroke="none"/>
  </g>
</svg>
