<?xml version="1.0" encoding="UTF-8" standalone="no"?>
<svg xmlns:xlink="http://www.w3.org/1999/xlink" height="31.65px" width="25.75px" xmlns="http://www.w3.org/2000/svg">
  <g transform="matrix(1.0, 0.0, 0.0, 1.0, 13.9, 21.55)">
    <path d="M-6.0 -14.85 Q-6.5 -13.6 -6.35 -12.05 -6.05 -11.7 -5.55 -11.55 L-4.3 -11.2 -0.15 -11.55 Q5.55 -13.25 7.7 -17.1 L7.75 -17.95 7.7 -18.25 Q6.1 -19.8 4.15 -20.45 L-0.45 -20.55 -1.65 -19.8 Q-5.0 -18.0 -6.0 -14.85 -10.65 -9.7 -9.85 -7.3 -8.8 -6.6 -7.35 -6.4 L-5.9 -6.25 -5.6 -6.25 Q-2.55 -6.3 2.05 -7.8 3.6 -8.25 5.35 -8.95 L5.75 -9.15 Q9.6 -11.65 9.8 -15.2 9.95 -16.9 9.2 -18.85 L9.1 -19.0 4.15 -20.45 M7.55 -4.4 Q5.75 -6.45 2.05 -7.8 M9.8 -15.2 L11.1 -13.2 Q10.85 -10.3 9.6 -8.35 9.4 -5.5 8.2 -3.6 L7.55 -4.4" fill="none" stroke="#000000" stroke-linecap="round" stroke-linejoin="round" stroke-width="1.5"/>
    <path d="M7.55 -4.4 Q7.1 3.15 5.9 9.1 2.45 6.7 -3.6 6.45 -9.65 6.2 -12.9 3.9 -9.8 1.0 -8.2 -1.95 L-5.9 -6.25" fill="none" stroke="#000000" stroke-linecap="round" stroke-linejoin="round" stroke-width="2.0"/>
  </g>
</svg>
