<?xml version="1.0" encoding="UTF-8" standalone="no"?>
<svg xmlns:xlink="http://www.w3.org/1999/xlink" height="32.25px" width="45.75px" xmlns="http://www.w3.org/2000/svg">
  <g transform="matrix(1.0, 0.0, 0.0, 1.0, 23.3, 16.5)">
    <path d="M7.55 -13.75 Q5.15 -13.3 5.9 -10.9 6.4 -9.5 7.65 -10.15 11.25 -12.0 7.55 -13.75 M9.65 -5.45 Q7.25 -5.05 8.0 -2.7 8.5 -1.25 9.75 -1.95 13.35 -3.75 9.65 -5.45 M1.4 -4.75 Q-1.0 -4.3 -0.2 -1.95 0.3 -0.5 1.55 -1.15 5.15 -3.05 1.4 -4.75 M-0.15 -9.75 L-4.35 -9.7 Q-7.25 -9.7 -9.0 -7.8 -9.55 -7.25 -9.05 -6.9 -3.15 -3.05 4.45 -5.75 6.4 -6.45 5.5 -8.2 4.05 -11.25 -0.15 -9.75 M14.65 -10.25 Q12.25 -9.8 13.05 -7.45 13.5 -6.0 14.85 -6.65 18.35 -8.55 14.65 -10.25 M19.05 -7.6 L19.8 -5.25 Q20.2 -3.65 18.7 -2.45 0.0 12.0 -20.8 0.2 -21.25 0.0 -21.5 -0.3 -22.9 -1.6 -21.9 -3.8 -19.4 -9.45 -13.85 -11.9 L-13.7 -10.75 Q-13.2 -9.25 -11.85 -9.95 -8.9 -11.55 -11.05 -12.95 L-9.4 -13.35 0.75 -15.05 Q14.95 -17.35 19.05 -7.6 M-17.2 -5.05 Q-19.6 -4.65 -18.8 -2.3 -18.3 -0.85 -17.05 -1.55 -13.45 -3.35 -17.2 -5.05 M-11.75 -4.8 Q-9.3 -6.45 -12.65 -8.0 -15.05 -7.55 -14.3 -5.25 L-14.2 -4.95 Q-15.05 -4.25 -14.5 -2.7 -14.05 -1.25 -12.75 -1.95 -9.8 -3.4 -11.75 -4.8 M-0.65 -0.65 Q-3.05 -0.2 -2.25 2.15 -1.75 3.6 -0.5 2.9 3.1 1.05 -0.65 -0.65 M-2.8 -14.05 Q-5.25 -13.6 -4.45 -11.3 -3.95 -9.8 -2.7 -10.55 0.9 -12.35 -2.8 -14.05 M-6.9 -1.25 Q-9.3 -0.85 -8.55 1.55 -8.05 3.0 -6.8 2.3 -3.2 0.45 -6.9 -1.25 M7.4 -1.6 Q4.95 -1.15 5.75 1.15 6.25 2.65 7.55 1.95 11.1 0.1 7.4 -1.6" fill="#e062ca" fill-rule="evenodd" stroke="none"/>
    <path d="M-21.5 -0.3 Q-21.25 0.0 -20.8 0.2 0.0 12.0 18.7 -2.45 20.2 -3.65 19.8 -5.25 L19.05 -7.6 Q23.7 -4.75 19.35 3.05 15.75 9.3 8.5 11.55 L2.9 13.3 Q-13.75 18.55 -20.2 5.05 -21.7 1.95 -21.5 -0.3" fill="#e0c49a" fill-rule="evenodd" stroke="none"/>
    <path d="M-0.15 -9.75 Q4.05 -11.25 5.5 -8.2 6.4 -6.45 4.45 -5.75 -3.15 -3.05 -9.05 -6.9 -9.55 -7.25 -9.0 -7.8 -7.25 -9.7 -4.35 -9.7 L-0.15 -9.75" fill="#9f458f" fill-rule="evenodd" stroke="none"/>
    <path d="M1.4 -4.75 Q5.15 -3.05 1.55 -1.15 0.3 -0.5 -0.2 -1.95 -1.0 -4.3 1.4 -4.75 M9.65 -5.45 Q13.35 -3.75 9.75 -1.95 8.5 -1.25 8.0 -2.7 7.25 -5.05 9.65 -5.45 M-17.2 -5.05 Q-13.45 -3.35 -17.05 -1.55 -18.3 -0.85 -18.8 -2.3 -19.6 -4.65 -17.2 -5.05 M-6.9 -1.25 Q-3.2 0.45 -6.8 2.3 -8.05 3.0 -8.55 1.55 -9.3 -0.85 -6.9 -1.25" fill="#8eff8c" fill-rule="evenodd" stroke="none"/>
    <path d="M7.55 -13.75 Q11.25 -12.0 7.65 -10.15 6.4 -9.5 5.9 -10.9 5.15 -13.3 7.55 -13.75 M14.65 -10.25 Q18.35 -8.55 14.85 -6.65 13.5 -6.0 13.05 -7.45 12.25 -9.8 14.65 -10.25 M-14.2 -4.95 L-14.3 -5.25 Q-15.05 -7.55 -12.65 -8.0 -9.3 -6.45 -11.75 -4.8 L-12.45 -4.4 Q-13.7 -3.8 -14.2 -4.95 M-2.8 -14.05 Q0.9 -12.35 -2.7 -10.55 -3.95 -9.8 -4.45 -11.3 -5.25 -13.6 -2.8 -14.05 M-0.65 -0.65 Q3.1 1.05 -0.5 2.9 -1.75 3.6 -2.25 2.15 -3.05 -0.2 -0.65 -0.65" fill="#74cdff" fill-rule="evenodd" stroke="none"/>
    <path d="M-11.05 -12.95 Q-8.9 -11.55 -11.85 -9.95 -13.2 -9.25 -13.7 -10.75 L-13.85 -11.9 -13.6 -12.0 -12.25 -12.6 -11.05 -12.95 M-11.75 -4.8 Q-9.8 -3.4 -12.75 -1.95 -14.05 -1.25 -14.5 -2.7 -15.05 -4.25 -14.2 -4.95 -13.7 -3.8 -12.45 -4.4 L-11.75 -4.8 M7.4 -1.6 Q11.1 0.1 7.55 1.95 6.25 2.65 5.75 1.15 4.95 -1.15 7.4 -1.6" fill="#fff898" fill-rule="evenodd" stroke="none"/>
    <path d="M19.05 -7.6 L19.8 -5.25 Q20.2 -3.65 18.7 -2.45 0.0 12.0 -20.8 0.2 -21.25 0.0 -21.5 -0.3 -21.7 1.95 -20.2 5.05 -13.75 18.55 2.9 13.3 L8.5 11.55 Q15.75 9.3 19.35 3.05 23.7 -4.75 19.05 -7.6 14.95 -17.35 0.75 -15.05 L-9.4 -13.35 -11.05 -12.95 -12.25 -12.6 -13.6 -12.0 M-13.85 -11.9 Q-19.4 -9.45 -21.9 -3.8 -22.9 -1.6 -21.5 -0.3" fill="none" stroke="#000000" stroke-linecap="round" stroke-linejoin="round" stroke-opacity="0.5764706" stroke-width="2.0"/>
  </g>
</svg>
