<?xml version="1.0" encoding="UTF-8" standalone="no"?>
<svg xmlns:xlink="http://www.w3.org/1999/xlink" height="571.6px" width="987.9px" xmlns="http://www.w3.org/2000/svg">
  <g transform="matrix(1.0, 0.0, 0.0, 1.0, 493.95, 285.8)">
    <path d="M-493.95 -285.8 L493.95 -285.8 493.95 285.8 -493.95 285.8 -493.95 -285.8" fill="url(#gradient0)" fill-rule="evenodd" stroke="none"/>
    <path d="M-412.8 -173.6 L126.5 -173.6 Q136.4 -173.6 136.4 -163.7 L136.4 240.55 Q136.4 250.45 126.5 250.45 L-412.8 250.45 Q-422.75 250.45 -422.75 240.55 L-422.75 -163.7 Q-422.75 -173.6 -412.8 -173.6" fill="#19112c" fill-opacity="0.627451" fill-rule="evenodd" stroke="none"/>
    <path d="M-412.8 -173.6 L126.5 -173.6 Q136.4 -173.6 136.4 -163.7 L136.4 240.55 Q136.4 250.45 126.5 250.45 L-412.8 250.45 Q-422.75 250.45 -422.75 240.55 L-422.75 -163.7 Q-422.75 -173.6 -412.8 -173.6 Z" fill="none" stroke="#eddbff" stroke-linecap="round" stroke-linejoin="round" stroke-opacity="0.31764707" stroke-width="0.05"/>
  </g>
  <defs>
    <linearGradient gradientTransform="matrix(0.0, -0.323, 0.603, 0.0, 0.0, 4.25)" gradientUnits="userSpaceOnUse" id="gradient0" spreadMethod="pad" x1="-819.2" x2="819.2">
      <stop offset="0.054901960784313725" stop-color="#8e80bb"/>
      <stop offset="0.5529411764705883" stop-color="#483d66"/>
      <stop offset="1.0" stop-color="#1f172c"/>
    </linearGradient>
  </defs>
</svg>
