<?xml version="1.0" encoding="UTF-8" standalone="no"?>
<svg xmlns:xlink="http://www.w3.org/1999/xlink" height="79.95px" width="51.75px" xmlns="http://www.w3.org/2000/svg">
  <g transform="matrix(1.0, 0.0, 0.0, 1.0, 25.85, 40.0)">
    <path d="M0.0 -31.25 Q1.65 -31.25 2.85 -30.0 4.0 -28.65 4.0 -26.85 L4.0 26.6 Q4.0 28.45 2.85 29.7 1.65 31.05 0.0 31.05 -1.65 31.05 -2.85 29.7 -4.0 28.45 -4.0 26.6 L-4.0 -26.85 Q-4.0 -28.65 -2.85 -30.0 -1.65 -31.25 0.0 -31.25" fill="#e0b8ff" fill-opacity="0.8392157" fill-rule="evenodd" stroke="none"/>
    <path d="M0.0 -31.25 Q-1.65 -31.25 -2.85 -30.0 -4.0 -28.65 -4.0 -26.85 L-4.0 26.6 Q-4.0 28.45 -2.85 29.7 -1.65 31.05 0.0 31.05 1.65 31.05 2.85 29.7 4.0 28.45 4.0 26.6 L4.0 -26.85 Q4.0 -28.65 2.85 -30.0 1.65 -31.25 0.0 -31.25 M25.9 -40.0 L25.9 39.95 -25.85 39.95 -25.85 -40.0 25.9 -40.0" fill="url(#gradient0)" fill-rule="evenodd" stroke="none"/>
    <path d="M0.0 -31.25 Q1.65 -31.25 2.85 -30.0 4.0 -28.65 4.0 -26.85 L4.0 26.6 Q4.0 28.45 2.85 29.7 1.65 31.05 0.0 31.05 -1.65 31.05 -2.85 29.7 -4.0 28.45 -4.0 26.6 L-4.0 -26.85 Q-4.0 -28.65 -2.85 -30.0 -1.65 -31.25 0.0 -31.25" fill="none" stroke="#766395" stroke-linecap="round" stroke-linejoin="round" stroke-opacity="0.6392157" stroke-width="0.05"/>
    <path d="M25.9 39.95 L-25.85 39.95 M-25.85 -40.0 L25.9 -40.0" fill="none" stroke="#eddbff" stroke-linecap="round" stroke-linejoin="round" stroke-opacity="0.31764707" stroke-width="0.05"/>
  </g>
  <defs>
    <linearGradient gradientTransform="matrix(0.0307, 0.0, 0.0, 0.0488, 0.15, -0.05)" gradientUnits="userSpaceOnUse" id="gradient0" spreadMethod="pad" x1="-819.2" x2="819.2">
      <stop offset="0.0" stop-color="#d9b1ff" stop-opacity="0.0"/>
      <stop offset="0.21176470588235294" stop-color="#d9b1ff" stop-opacity="0.4"/>
      <stop offset="0.807843137254902" stop-color="#d9b1ff" stop-opacity="0.4"/>
      <stop offset="1.0" stop-color="#d9b1ff" stop-opacity="0.0"/>
    </linearGradient>
  </defs>
</svg>
