<?xml version="1.0" encoding="UTF-8" standalone="no"?>
<svg xmlns:xlink="http://www.w3.org/1999/xlink" height="19.05px" width="94.45px" xmlns="http://www.w3.org/2000/svg">
  <g transform="matrix(1.0, 0.0, 0.0, 1.0, 46.45, 7.35)">
    <path d="M-46.45 -4.55 Q-46.45 -5.6 -45.7 -6.4 L-45.55 -6.5 Q-44.85 -7.15 -43.85 -7.15 L-39.85 -7.15 Q-38.0 -7.15 -36.45 -6.3 L-36.4 -6.3 Q-35.0 -5.45 -34.15 -3.95 L-34.15 -4.55 Q-34.15 -5.6 -33.35 -6.4 L-33.25 -6.5 Q-32.5 -7.15 -31.5 -7.15 L-22.5 -7.15 Q-21.3 -7.15 -20.65 -6.4 L-20.05 -5.5 -19.45 -6.4 -19.35 -6.5 Q-18.6 -7.15 -17.6 -7.15 L-14.05 -7.15 Q-12.15 -7.15 -10.65 -6.4 L-10.6 -6.35 -8.85 -5.0 Q-8.75 -5.75 -8.1 -6.4 -7.4 -7.15 -6.3 -7.15 L2.65 -7.15 Q3.85 -7.15 4.5 -6.4 L5.0 -5.75 5.45 -6.4 5.55 -6.5 Q6.3 -7.15 7.3 -7.15 L16.25 -7.15 Q17.5 -7.15 18.1 -6.4 18.85 -5.7 18.85 -4.6 18.85 -3.5 18.1 -2.8 17.5 -2.05 16.25 -2.05 L9.9 -2.05 9.9 -0.4 14.05 -0.4 Q15.05 -0.4 15.75 0.2 16.65 0.95 16.65 2.15 16.7 3.1 15.85 3.95 L15.75 4.1 Q15.1 4.6 14.05 4.6 L9.9 4.6 9.9 6.4 16.25 6.4 Q17.5 6.4 18.1 7.15 18.85 7.85 18.85 8.95 18.85 10.05 18.1 10.75 17.5 11.5 16.25 11.5 L7.3 11.5 Q6.3 11.5 5.55 10.8 4.65 10.05 4.65 8.9 L4.65 -2.95 4.5 -2.8 Q3.85 -2.05 2.65 -2.05 L-3.65 -2.05 -3.65 -0.4 0.4 -0.4 Q1.45 -0.4 2.15 0.2 L2.3 0.3 Q3.0 1.0 3.0 2.15 3.0 3.05 2.4 3.8 L2.05 4.15 0.4 4.6 -3.65 4.6 -3.65 8.9 Q-3.65 10.05 -4.55 10.8 -5.3 11.5 -6.3 11.5 -7.15 11.5 -7.8 11.05 -8.35 11.5 -9.4 11.5 -10.8 11.5 -11.6 10.35 L-11.6 10.3 -15.0 4.85 -15.0 8.9 Q-15.0 10.0 -15.75 10.7 -16.55 11.5 -17.6 11.5 -18.6 11.5 -19.35 10.8 L-20.05 9.85 Q-20.25 10.4 -20.65 10.75 -21.3 11.5 -22.5 11.5 L-31.5 11.5 Q-32.5 11.5 -33.25 10.8 -34.15 10.05 -34.15 8.9 L-34.15 3.05 Q-35.0 4.5 -36.45 5.35 -38.0 6.15 -39.85 6.15 L-41.25 6.15 -41.25 8.9 Q-41.25 10.0 -41.95 10.7 -42.75 11.5 -43.85 11.5 -44.85 11.5 -45.55 10.8 -46.45 10.05 -46.45 8.9 L-46.45 -4.55 M25.1 -1.7 Q24.15 -1.15 23.65 -0.15 L23.6 -0.1 Q23.0 0.95 23.0 2.2 23.0 3.4 23.6 4.4 L23.65 4.45 Q24.15 5.5 25.1 6.1 26.0 6.65 27.1 6.65 28.5 6.65 29.85 5.7 L29.75 5.75 Q30.5 5.1 31.4 5.1 32.6 5.1 33.3 6.0 33.85 6.65 33.85 7.65 33.85 8.7 33.05 9.5 L32.95 9.6 Q30.4 11.7 27.1 11.7 24.55 11.7 22.4 10.45 20.3 9.1 19.1 7.0 17.85 4.8 17.85 2.2 17.85 -0.4 19.1 -2.6 20.3 -4.75 22.4 -6.05 24.55 -7.35 27.1 -7.35 L30.3 -6.85 30.25 -6.85 32.55 -5.6 33.05 -6.4 Q33.75 -7.15 34.85 -7.15 L45.45 -7.15 Q46.6 -7.15 47.25 -6.4 48.0 -5.7 48.0 -4.6 48.0 -3.5 47.25 -2.8 46.6 -2.05 45.45 -2.05 L42.75 -2.05 42.75 8.9 Q42.75 10.0 42.0 10.7 41.25 11.5 40.15 11.5 39.15 11.5 38.4 10.8 37.5 10.05 37.5 8.9 L37.5 -2.05 34.85 -2.05 33.75 -2.25 33.15 -1.5 33.05 -1.35 Q32.25 -0.75 31.35 -0.75 30.45 -0.75 29.7 -1.35 L28.5 -2.1 28.45 -2.1 27.1 -2.35 Q26.0 -2.35 25.15 -1.75 L25.1 -1.7 M-38.75 -1.65 Q-39.15 -2.05 -39.85 -2.05 L-41.25 -2.05 -41.25 1.05 -39.85 1.05 Q-39.15 1.05 -38.75 0.65 -38.35 0.2 -38.35 -0.4 -38.35 -1.15 -38.8 -1.65 L-38.75 -1.65 M-20.65 7.15 L-20.25 7.7 -20.25 -3.35 -20.65 -2.8 Q-21.3 -2.05 -22.5 -2.05 L-28.9 -2.05 -28.9 -0.4 -24.75 -0.4 Q-23.75 -0.4 -23.05 0.2 -22.15 0.95 -22.15 2.15 -22.1 3.1 -22.95 3.95 L-23.05 4.1 Q-23.7 4.6 -24.75 4.6 L-28.9 4.6 -28.9 6.4 -22.5 6.4 Q-21.3 6.4 -20.65 7.15 M-12.55 -0.7 Q-12.55 -1.25 -12.9 -1.7 -13.35 -2.05 -14.05 -2.05 L-15.0 -2.05 -15.0 0.45 -14.05 0.45 Q-13.3 0.45 -12.9 0.1 -12.55 -0.2 -12.55 -0.7 M-9.45 3.95 L-8.9 4.8 -8.9 3.4 -9.45 3.95" fill="#352315" fill-opacity="0.8784314" fill-rule="evenodd" stroke="none"/>
    <path d="M-43.85 9.9 L-44.55 9.6 Q-44.9 9.35 -44.9 8.9 L-44.9 -4.55 Q-44.9 -5.0 -44.55 -5.3 L-43.85 -5.55 -39.85 -5.55 Q-38.4 -5.55 -37.25 -4.9 -36.1 -4.25 -35.45 -3.05 -34.8 -1.9 -34.8 -0.4 -34.8 1.0 -35.45 2.15 -36.1 3.3 -37.25 3.95 -38.4 4.55 -39.85 4.55 L-42.8 4.55 -42.8 8.9 Q-42.8 9.35 -43.1 9.6 -43.4 9.9 -43.85 9.9 M-39.85 2.65 Q-38.55 2.65 -37.65 1.75 -36.8 0.9 -36.8 -0.4 -36.8 -1.85 -37.65 -2.75 -38.55 -3.65 -39.85 -3.65 L-42.8 -3.65 -42.8 2.65 -39.85 2.65 M-31.5 9.9 L-32.2 9.6 Q-32.55 9.35 -32.55 8.9 L-32.55 -4.55 -32.2 -5.3 -31.5 -5.55 -22.5 -5.55 -21.8 -5.3 Q-21.5 -5.05 -21.5 -4.6 -21.5 -4.2 -21.8 -3.9 -22.05 -3.65 -22.5 -3.65 L-30.45 -3.65 -30.45 1.15 -24.75 1.15 Q-24.3 1.15 -24.05 1.45 -23.75 1.7 -23.75 2.15 -23.75 2.5 -24.05 2.8 L-24.75 3.05 -30.45 3.05 -30.45 8.0 -22.5 8.0 Q-22.05 8.0 -21.8 8.25 -21.5 8.55 -21.5 8.95 -21.5 9.4 -21.8 9.65 L-22.5 9.9 -31.5 9.9 M-14.05 2.0 Q-12.65 2.0 -11.8 1.3 -10.95 0.55 -10.95 -0.7 -10.95 -2.0 -11.8 -2.85 -12.65 -3.65 -14.05 -3.65 L-16.6 -3.65 -16.6 2.0 -14.05 2.0 M-8.6 8.35 L-8.35 8.95 Q-8.35 9.4 -8.65 9.65 L-9.4 9.9 Q-9.95 9.9 -10.3 9.45 L-13.65 3.95 -16.6 3.95 -16.6 8.9 Q-16.6 9.35 -16.85 9.6 -17.15 9.9 -17.6 9.9 L-18.35 9.6 -18.65 8.9 -18.65 -4.55 -18.35 -5.3 -17.6 -5.55 -14.05 -5.55 Q-12.55 -5.55 -11.4 -5.0 -10.25 -4.35 -9.6 -3.25 -8.95 -2.1 -8.95 -0.7 -8.95 0.7 -9.7 1.8 -10.4 2.9 -11.6 3.45 L-8.6 8.35 M-6.3 9.9 L-7.0 9.6 -7.3 8.9 -7.3 -4.55 -7.0 -5.3 -6.3 -5.55 2.65 -5.55 3.4 -5.3 3.65 -4.6 3.4 -3.9 2.65 -3.65 -5.25 -3.65 -5.25 1.15 0.4 1.15 Q0.85 1.15 1.15 1.45 L1.45 2.15 1.15 2.8 0.4 3.05 -5.25 3.05 -5.25 8.9 Q-5.25 9.35 -5.55 9.6 L-6.3 9.9 M7.3 9.9 L6.55 9.6 Q6.25 9.35 6.25 8.9 L6.25 -4.55 Q6.25 -5.0 6.55 -5.3 L7.3 -5.55 16.25 -5.55 17.0 -5.3 17.3 -4.6 17.0 -3.9 Q16.75 -3.65 16.25 -3.65 L8.3 -3.65 8.3 1.15 14.05 1.15 Q14.45 1.15 14.75 1.45 L15.05 2.15 14.75 2.8 14.05 3.05 8.3 3.05 8.3 8.0 16.25 8.0 Q16.75 8.0 17.0 8.25 L17.3 8.95 17.0 9.65 16.25 9.9 7.3 9.9 M27.1 10.15 Q24.95 10.15 23.2 9.05 21.45 8.0 20.45 6.2 19.45 4.35 19.45 2.2 19.45 0.0 20.45 -1.85 21.45 -3.65 23.2 -4.7 24.95 -5.75 27.1 -5.75 L29.75 -5.35 31.95 -4.05 32.25 -3.7 32.35 -3.25 32.05 -2.6 Q31.75 -2.35 31.35 -2.35 31.0 -2.35 30.7 -2.6 29.9 -3.3 29.1 -3.6 L27.1 -3.9 Q25.55 -3.9 24.25 -3.05 22.95 -2.25 22.2 -0.9 21.4 0.55 21.4 2.2 21.4 3.8 22.2 5.2 22.95 6.65 24.25 7.45 25.55 8.2 27.1 8.2 29.0 8.2 30.75 6.95 31.05 6.7 31.4 6.7 31.8 6.7 32.0 6.95 L32.25 7.65 31.95 8.4 Q29.85 10.15 27.1 10.15 M45.45 -5.55 L46.15 -5.3 46.4 -4.6 46.15 -3.9 45.45 -3.65 41.2 -3.65 41.2 8.9 40.9 9.6 Q40.6 9.9 40.15 9.9 L39.45 9.6 Q39.1 9.35 39.1 8.9 L39.1 -3.65 34.85 -3.65 Q34.45 -3.65 34.2 -3.9 33.9 -4.2 33.9 -4.6 33.9 -5.05 34.2 -5.3 L34.85 -5.55 45.45 -5.55" fill="url(#gradient0)" fill-rule="evenodd" stroke="none"/>
  </g>
  <defs>
    <linearGradient gradientTransform="matrix(0.0, 0.0097, -0.0557, 0.0, 0.75, 2.8)" gradientUnits="userSpaceOnUse" id="gradient0" spreadMethod="pad" x1="-819.2" x2="819.2">
      <stop offset="0.0" stop-color="#e7c87d"/>
      <stop offset="0.3137254901960784" stop-color="#fffd8e"/>
      <stop offset="1.0" stop-color="#fffee9"/>
    </linearGradient>
  </defs>
</svg>
