<?xml version="1.0" encoding="UTF-8" standalone="no"?>
<svg xmlns:xlink="http://www.w3.org/1999/xlink" height="426.05px" width="561.15px" xmlns="http://www.w3.org/2000/svg">
  <g transform="matrix(1.0, 0.0, 0.0, 1.0, 280.55, 213.0)">
    <path d="M-269.6 -212.0 L269.7 -212.0 Q279.6 -212.0 279.6 -202.1 L279.6 202.15 Q279.6 212.05 269.7 212.05 L-269.6 212.05 Q-279.55 212.05 -279.55 202.15 L-279.55 -202.1 Q-279.55 -212.0 -269.6 -212.0" fill="#2b2743" fill-rule="evenodd" stroke="none"/>
    <path d="M-269.6 -212.0 L269.7 -212.0 Q279.6 -212.0 279.6 -202.1 L279.6 202.15 Q279.6 212.05 269.7 212.05 L-269.6 212.05 Q-279.55 212.05 -279.55 202.15 L-279.55 -202.1 Q-279.55 -212.0 -269.6 -212.0 Z" fill="none" stroke="#eddbff" stroke-linecap="round" stroke-linejoin="round" stroke-opacity="0.31764707" stroke-width="2.0"/>
  </g>
</svg>
