<?xml version="1.0" encoding="UTF-8" standalone="no"?>
<svg xmlns:xlink="http://www.w3.org/1999/xlink" height="21.05px" width="62.85px" xmlns="http://www.w3.org/2000/svg">
  <g transform="matrix(1.0, 0.0, 0.0, 1.0, 32.1, 9.3)">
    <path d="M1.25 -0.15 Q2.25 -1.9 4.05 -2.95 5.8 -3.95 8.0 -3.95 10.15 -3.95 11.95 -2.95 13.75 -1.9 14.75 -0.15 L14.8 -0.1 15.5 1.85 Q15.7 0.9 16.2 0.0 L16.25 -0.1 Q17.15 -1.9 18.9 -2.9 L18.85 -2.9 Q20.5 -3.95 22.55 -3.95 L25.25 -3.4 25.25 -6.3 Q25.25 -7.5 26.05 -8.25 26.8 -9.05 28.0 -9.05 29.25 -9.05 30.0 -8.25 L30.1 -8.15 Q30.75 -7.45 30.75 -6.3 L30.75 3.85 Q30.75 6.0 29.7 7.8 28.7 9.55 27.0 10.6 25.25 11.65 23.05 11.65 20.9 11.65 19.15 10.65 17.3 9.65 16.3 7.8 L16.3 7.75 15.5 5.8 14.8 7.8 Q13.8 9.6 12.0 10.65 10.25 11.65 8.0 11.65 5.8 11.65 4.05 10.65 2.25 9.6 1.25 7.85 L1.25 7.8 Q0.7 6.8 0.5 5.75 L-0.25 7.8 Q-1.3 9.6 -3.05 10.65 -4.85 11.65 -7.05 11.65 -9.25 11.65 -11.05 10.65 -12.8 9.6 -13.85 7.85 L-13.85 7.8 -14.45 6.45 -14.45 7.4 Q-14.45 8.75 -15.35 9.45 L-15.45 9.55 Q-18.2 11.75 -21.85 11.75 -24.65 11.75 -27.05 10.35 -29.35 8.95 -30.7 6.55 -32.1 4.1 -32.1 1.2 -32.1 -1.65 -30.7 -4.05 L-30.7 -4.0 Q-29.35 -6.5 -27.05 -7.85 L-27.05 -7.9 Q-24.65 -9.3 -21.85 -9.3 L-18.4 -8.75 Q-16.9 -8.25 -15.4 -7.0 L-14.6 -6.05 -14.5 -5.75 -14.4 -4.85 Q-14.4 -3.6 -15.3 -2.9 -16.05 -2.25 -17.1 -2.25 -17.95 -2.2 -18.75 -2.75 L-18.85 -2.9 -20.25 -3.75 -21.85 -3.95 Q-23.1 -3.95 -24.2 -3.25 -25.25 -2.6 -25.9 -1.35 -26.6 -0.2 -26.6 1.2 -26.6 2.65 -25.9 3.9 -25.25 5.1 -24.2 5.8 -23.1 6.45 -21.85 6.45 L-19.9 6.0 -19.9 4.6 -21.35 4.6 Q-22.5 4.6 -23.2 3.9 -24.15 3.15 -24.15 1.95 -24.15 0.7 -23.2 0.0 -22.5 -0.65 -21.35 -0.65 L-17.2 -0.65 Q-16.05 -0.65 -15.35 0.0 L-15.15 0.2 Q-14.65 0.75 -14.5 1.5 L-13.85 -0.1 -13.85 -0.15 Q-12.8 -1.9 -11.05 -2.95 -9.25 -3.95 -7.05 -3.95 -4.9 -3.95 -3.15 -2.95 -1.35 -1.9 -0.35 -0.15 L-0.25 -0.1 0.5 2.0 Q0.7 0.9 1.25 -0.1 L1.25 -0.15 M24.2 1.6 Q23.7 1.25 23.05 1.25 22.35 1.25 21.8 1.6 L21.0 2.5 Q20.7 3.1 20.7 3.85 20.7 4.55 21.0 5.15 L21.0 5.2 21.85 6.1 23.05 6.4 24.2 6.1 24.25 6.05 25.1 5.2 25.35 3.85 25.05 2.45 24.2 1.55 24.2 1.6 M9.25 1.6 L9.2 1.6 Q8.65 1.25 8.0 1.25 7.3 1.25 6.8 1.6 L6.05 2.45 5.95 2.5 Q5.65 3.1 5.65 3.85 5.65 4.6 5.95 5.25 L6.05 5.3 6.75 6.1 6.8 6.1 8.0 6.4 9.2 6.15 10.05 5.25 10.0 5.3 Q10.35 4.65 10.35 3.85 10.35 3.05 10.0 2.45 L10.05 2.5 Q9.75 1.9 9.25 1.6 M-7.05 1.25 Q-7.75 1.25 -8.3 1.6 L-9.05 2.45 -9.1 2.5 Q-9.45 3.1 -9.45 3.85 L-9.1 5.25 -9.05 5.3 -8.35 6.1 -8.3 6.1 -7.05 6.4 -5.85 6.15 -5.0 5.25 -5.05 5.3 Q-4.75 4.65 -4.75 3.85 -4.75 3.05 -5.05 2.45 L-5.0 2.5 -5.8 1.6 -5.85 1.6 Q-6.4 1.25 -7.05 1.25" fill="#254323" fill-rule="evenodd" stroke="none"/>
    <path d="M8.0 10.05 Q6.25 10.05 4.85 9.25 3.45 8.45 2.65 7.05 1.9 5.65 1.9 3.85 1.9 2.1 2.65 0.7 3.45 -0.7 4.85 -1.55 6.25 -2.35 8.0 -2.35 9.75 -2.35 11.15 -1.55 12.55 -0.7 13.35 0.7 14.1 2.1 14.1 3.85 14.1 5.65 13.35 7.05 12.6 8.45 11.2 9.25 9.8 10.05 8.0 10.05 M28.0 -7.45 L28.85 -7.15 29.15 -6.3 29.15 3.85 Q29.15 5.6 28.3 7.0 27.5 8.45 26.1 9.2 24.75 10.05 23.05 10.05 21.3 10.05 19.9 9.2 18.45 8.45 17.7 7.0 16.9 5.6 16.9 3.85 16.9 2.1 17.65 0.7 18.35 -0.7 19.7 -1.55 21.0 -2.35 22.55 -2.35 23.85 -2.35 25.0 -1.8 26.1 -1.25 26.85 -0.3 L26.85 -6.3 Q26.85 -6.8 27.2 -7.15 L28.0 -7.45 M23.05 8.0 Q24.2 8.0 25.05 7.45 25.95 6.9 26.5 5.95 27.0 5.05 27.0 3.85 27.0 2.65 26.5 1.7 25.95 0.8 25.05 0.2 24.2 -0.35 23.05 -0.35 21.9 -0.35 21.0 0.2 20.15 0.8 19.6 1.7 19.05 2.65 19.05 3.85 19.05 5.05 19.6 5.95 20.15 6.9 21.0 7.45 21.9 8.0 23.05 8.0 M8.0 8.0 Q9.15 8.0 10.05 7.5 10.95 7.0 11.45 6.0 11.95 5.05 11.95 3.85 11.95 2.65 11.45 1.7 10.95 0.75 10.05 0.2 9.15 -0.35 8.0 -0.35 6.9 -0.35 5.95 0.2 5.05 0.75 4.55 1.7 4.05 2.65 4.05 3.85 4.05 5.05 4.55 6.0 5.05 7.0 5.95 7.5 6.9 8.0 8.0 8.0 M-17.2 0.95 L-16.4 1.2 Q-16.05 1.6 -16.05 2.1 L-16.05 7.4 Q-16.05 7.95 -16.45 8.2 -18.75 10.15 -21.85 10.15 -24.25 10.15 -26.25 8.95 -28.15 7.8 -29.3 5.75 -30.5 3.7 -30.5 1.2 -30.5 -1.2 -29.3 -3.25 -28.15 -5.3 -26.25 -6.5 -24.25 -7.65 -21.85 -7.65 L-18.95 -7.25 Q-17.65 -6.8 -16.45 -5.8 L-16.05 -5.35 -16.0 -4.85 Q-16.0 -4.4 -16.3 -4.1 -16.65 -3.85 -17.1 -3.85 L-17.85 -4.1 Q-18.75 -4.85 -19.6 -5.25 L-21.85 -5.55 Q-23.6 -5.55 -25.05 -4.65 -26.5 -3.75 -27.35 -2.2 -28.2 -0.6 -28.2 1.2 -28.2 3.1 -27.35 4.65 -26.5 6.2 -25.05 7.15 -23.6 8.05 -21.85 8.05 -20.0 8.05 -18.25 6.9 L-18.25 3.0 -21.35 3.0 -22.2 2.65 -22.5 1.95 -22.2 1.2 -21.35 0.95 -17.2 0.95 M-7.05 10.05 Q-8.85 10.05 -10.25 9.25 -11.65 8.45 -12.45 7.05 -13.2 5.65 -13.2 3.85 -13.2 2.1 -12.45 0.7 -11.65 -0.7 -10.25 -1.55 -8.85 -2.35 -7.05 -2.35 -5.35 -2.35 -3.95 -1.55 -2.55 -0.7 -1.75 0.7 -0.95 2.1 -0.95 3.85 -0.95 5.65 -1.75 7.05 -2.5 8.45 -3.9 9.25 -5.3 10.05 -7.05 10.05 M-7.05 8.0 L-5.0 7.5 Q-4.15 7.0 -3.6 6.0 -3.15 5.05 -3.15 3.85 -3.15 2.65 -3.6 1.7 -4.15 0.75 -5.0 0.2 -5.95 -0.35 -7.05 -0.35 -8.2 -0.35 -9.1 0.2 -10.0 0.75 -10.5 1.7 -11.05 2.65 -11.05 3.85 -11.05 5.05 -10.5 6.0 -10.0 7.0 -9.1 7.5 -8.2 8.0 -7.05 8.0" fill="url(#gradient0)" fill-rule="evenodd" stroke="none"/>
  </g>
  <defs>
    <linearGradient gradientTransform="matrix(0.0, 0.0121, -0.0364, 0.0, -0.65, 2.6)" gradientUnits="userSpaceOnUse" id="gradient0" spreadMethod="pad" x1="-819.2" x2="819.2">
      <stop offset="0.0" stop-color="#7ae7ae"/>
      <stop offset="0.3137254901960784" stop-color="#91ffad"/>
      <stop offset="1.0" stop-color="#e2fff9"/>
    </linearGradient>
  </defs>
</svg>
