<?xml version="1.0" encoding="UTF-8" standalone="no"?>
<svg xmlns:xlink="http://www.w3.org/1999/xlink" height="21.05px" width="54.35px" xmlns="http://www.w3.org/2000/svg">
  <g transform="matrix(1.0, 0.0, 0.0, 1.0, 27.15, 8.9)">
    <path d="M0.25 -7.7 Q1.15 -6.8 1.15 -5.6 1.15 -4.35 0.25 -3.45 L0.2 -3.35 -0.25 -3.05 0.05 -2.75 Q0.8 -2.1 0.8 -0.85 L0.8 9.4 Q0.8 10.5 0.1 11.2 L0.05 11.25 0.0 11.3 -0.05 11.35 Q-0.75 12.05 -1.9 12.05 -3.05 12.05 -3.8 11.25 -4.55 10.55 -4.55 9.4 L-4.55 -0.85 Q-4.55 -2.0 -3.85 -2.65 L-3.75 -2.75 -3.7 -2.8 -3.65 -2.85 -3.45 -3.0 -3.95 -3.35 -4.0 -3.45 Q-4.9 -4.35 -4.9 -5.6 -4.9 -6.8 -4.0 -7.7 -3.1 -8.6 -1.9 -8.6 -0.65 -8.6 0.25 -7.7 M13.8 -1.25 Q14.45 -0.55 14.45 0.35 14.65 -0.7 15.4 -1.5 16.25 -2.6 17.8 -3.15 L17.85 -3.15 20.6 -3.6 23.8 -3.05 23.85 -3.0 Q25.4 -2.35 26.3 -1.25 27.0 -0.45 26.95 0.45 27.05 1.4 26.05 2.3 L26.0 2.35 24.85 2.85 25.65 3.4 Q27.2 4.75 27.2 6.85 27.2 8.45 26.35 9.7 25.55 10.85 24.0 11.55 L24.05 11.55 Q22.65 12.15 20.75 12.15 L17.3 11.6 Q15.55 10.95 14.6 9.95 L14.1 9.25 13.85 9.7 Q13.05 10.85 11.5 11.55 L11.55 11.55 Q10.15 12.15 8.25 12.15 L4.8 11.6 Q3.05 10.95 2.1 9.95 1.35 9.2 1.35 8.2 1.35 6.95 2.4 6.15 3.35 5.4 4.1 5.45 L4.4 5.45 Q1.7 4.05 1.85 1.35 1.85 -0.35 2.9 -1.5 3.75 -2.6 5.3 -3.15 L5.35 -3.15 8.1 -3.6 Q9.9 -3.6 11.3 -3.05 L11.35 -3.0 Q12.9 -2.35 13.8 -1.25 M21.4 1.7 L22.15 1.85 21.65 1.6 20.55 1.45 20.5 1.45 21.4 1.7 M20.05 6.5 L18.3 6.05 18.5 6.25 18.7 6.45 19.35 6.8 19.4 6.85 20.65 7.05 21.7 6.95 Q21.15 6.65 20.05 6.5 M13.5 2.35 L12.35 2.85 13.15 3.4 Q14.5 4.55 14.7 6.3 L14.9 6.15 Q15.85 5.4 16.6 5.45 L16.9 5.45 Q14.2 4.05 14.35 1.35 L14.35 1.2 13.55 2.3 13.5 2.35 M8.05 1.45 L8.0 1.45 8.9 1.7 9.65 1.85 9.15 1.6 8.05 1.45 M7.55 6.5 L5.8 6.05 6.0 6.25 6.2 6.45 6.85 6.8 6.9 6.85 8.15 7.05 9.2 6.95 Q8.65 6.65 7.55 6.5 M-27.15 -6.2 Q-27.15 -7.3 -26.35 -8.1 -25.55 -8.9 -24.45 -8.9 -22.85 -8.9 -22.05 -7.45 L-22.05 -7.4 -16.55 3.5 -11.25 -7.4 -11.2 -7.45 Q-10.45 -8.9 -8.85 -8.9 -7.75 -8.9 -6.95 -8.1 -6.15 -7.3 -6.15 -6.2 L-6.15 9.35 Q-6.15 10.45 -6.95 11.25 L-7.0 11.35 Q-7.85 12.1 -8.85 12.05 -9.95 12.05 -10.75 11.25 -11.55 10.45 -11.55 9.35 L-11.55 4.4 -14.25 9.9 -14.35 10.1 Q-15.2 11.4 -16.65 11.35 -18.3 11.35 -19.1 9.85 L-21.75 4.55 -21.75 9.35 Q-21.75 10.45 -22.55 11.25 -23.35 12.05 -24.45 12.05 -25.55 12.05 -26.35 11.25 -27.15 10.45 -27.15 9.35 L-27.15 -6.2" fill="#2c1212" fill-rule="evenodd" stroke="none"/>
    <path d="M8.25 10.65 L5.3 10.15 Q3.9 9.65 3.15 8.9 2.85 8.6 2.85 8.2 2.85 7.65 3.3 7.3 3.75 6.95 4.1 6.95 4.55 6.95 5.0 7.35 5.4 7.85 6.3 8.2 L8.15 8.55 10.2 8.15 Q10.9 7.7 10.9 6.95 10.9 6.25 10.2 5.8 9.5 5.3 7.8 5.0 3.35 4.15 3.35 1.35 3.35 0.2 4.05 -0.55 4.7 -1.35 5.8 -1.75 L8.1 -2.1 10.75 -1.65 12.65 -0.3 12.95 0.45 Q12.95 0.8 12.55 1.15 L11.9 1.35 10.8 0.9 9.6 0.15 8.05 -0.05 Q7.0 -0.05 6.3 0.3 5.6 0.65 5.6 1.3 5.6 1.75 5.85 2.05 6.1 2.35 6.75 2.6 L8.6 3.15 Q11.1 3.65 12.15 4.55 13.2 5.45 13.2 6.85 13.2 7.95 12.6 8.8 12.05 9.65 10.9 10.15 L8.25 10.65 M20.75 10.65 L17.8 10.15 Q16.4 9.65 15.65 8.9 15.35 8.6 15.35 8.2 15.35 7.65 15.8 7.3 16.25 6.95 16.6 6.95 17.05 6.95 17.5 7.35 L18.8 8.2 20.65 8.55 22.7 8.15 Q23.4 7.7 23.4 6.95 23.4 6.25 22.7 5.8 22.0 5.3 20.3 5.0 15.85 4.15 15.85 1.35 15.85 0.2 16.55 -0.55 17.2 -1.35 18.3 -1.75 L20.6 -2.1 23.25 -1.65 Q24.45 -1.15 25.15 -0.3 L25.45 0.45 25.05 1.15 24.4 1.35 Q23.8 1.35 23.3 0.9 L22.1 0.15 20.55 -0.05 Q19.5 -0.05 18.8 0.3 18.1 0.65 18.1 1.3 18.1 1.75 18.35 2.05 L19.25 2.6 21.1 3.15 Q23.6 3.65 24.65 4.55 25.7 5.45 25.7 6.85 25.7 7.95 25.1 8.8 24.55 9.65 23.4 10.15 L20.75 10.65 M-8.85 -7.4 Q-8.35 -7.4 -8.0 -7.05 -7.65 -6.7 -7.65 -6.2 L-7.65 9.35 Q-7.65 9.85 -8.0 10.2 -8.4 10.55 -8.85 10.55 L-9.7 10.2 -10.05 9.35 -10.05 -2.05 -15.6 9.25 Q-16.0 9.85 -16.65 9.85 -17.4 9.85 -17.75 9.15 L-23.25 -1.85 -23.25 9.35 Q-23.25 9.85 -23.6 10.2 -23.95 10.55 -24.45 10.55 -24.95 10.55 -25.3 10.2 -25.65 9.85 -25.65 9.35 L-25.65 -6.2 Q-25.65 -6.7 -25.3 -7.05 -24.95 -7.4 -24.45 -7.4 -23.75 -7.4 -23.4 -6.75 L-16.55 6.9 -9.9 -6.75 -8.85 -7.4 M-1.9 -4.1 Q-2.5 -4.1 -2.95 -4.5 -3.4 -4.95 -3.4 -5.6 L-2.95 -6.65 Q-2.5 -7.1 -1.9 -7.1 -1.25 -7.1 -0.8 -6.65 -0.35 -6.2 -0.35 -5.6 -0.35 -4.95 -0.8 -4.5 -1.25 -4.1 -1.9 -4.1 M-1.9 10.55 Q-2.4 10.55 -2.7 10.2 -3.05 9.9 -3.05 9.4 L-3.05 -0.85 Q-3.05 -1.4 -2.7 -1.7 -2.4 -2.05 -1.9 -2.05 -1.35 -2.05 -1.05 -1.7 -0.7 -1.4 -0.7 -0.85 L-0.7 9.4 Q-0.7 9.9 -1.05 10.2 -1.35 10.55 -1.9 10.55" fill="url(#gradient0)" fill-rule="evenodd" stroke="none"/>
  </g>
  <defs>
    <linearGradient gradientTransform="matrix(0.0, 0.0108, -0.0313, 0.0, 0.05, 2.35)" gradientUnits="userSpaceOnUse" id="gradient0" spreadMethod="pad" x1="-819.2" x2="819.2">
      <stop offset="0.0" stop-color="#ad4a4a"/>
      <stop offset="1.0" stop-color="#c68ba2"/>
    </linearGradient>
  </defs>
</svg>
