<?xml version="1.0" encoding="UTF-8" standalone="no"?>
<svg xmlns:xlink="http://www.w3.org/1999/xlink" height="20.8px" width="78.5px" xmlns="http://www.w3.org/2000/svg">
  <g transform="matrix(1.0, 0.0, 0.0, 1.0, 38.75, 7.9)">
    <path d="M-20.65 -5.0 Q-20.65 -6.25 -19.9 -6.9 L-19.8 -7.0 Q-19.05 -7.65 -18.0 -7.65 L-14.0 -7.65 Q-11.95 -7.65 -10.35 -6.85 L-10.35 -6.8 Q-8.7 -5.9 -7.75 -4.3 L-7.75 -4.25 Q-6.8 -2.7 -6.8 -0.7 -6.8 1.35 -7.85 2.95 L-9.2 4.45 -6.6 8.6 -6.6 8.65 -6.6 -5.0 Q-6.6 -6.25 -5.85 -6.9 L-5.75 -7.0 Q-5.0 -7.65 -3.95 -7.65 L6.1 -7.65 Q7.2 -7.65 7.85 -7.05 L8.05 -6.85 Q8.7 -6.1 8.7 -5.1 8.7 -3.8 7.85 -3.2 7.2 -2.55 6.1 -2.55 L-1.3 -2.55 -1.3 -0.15 3.6 -0.15 Q4.6 -0.15 5.4 0.5 L5.45 0.6 Q6.2 1.3 6.2 2.45 6.2 3.55 5.45 4.25 L5.4 4.35 Q4.6 5.0 3.6 5.0 L-1.3 5.0 -1.3 7.55 6.1 7.55 Q7.1 7.55 7.75 8.1 L13.65 -5.95 13.65 -6.0 Q14.4 -7.7 16.1 -7.65 17.9 -7.65 18.6 -5.95 L24.8 8.95 24.85 9.05 25.1 10.05 Q25.1 11.25 24.25 12.0 L24.3 11.9 Q23.5 12.7 22.45 12.7 L21.0 12.25 Q20.3 11.8 20.0 11.2 L19.95 11.05 19.1 8.9 13.15 8.9 12.25 11.05 12.2 11.2 11.25 12.25 9.8 12.7 Q8.65 12.7 7.95 11.95 7.25 12.7 6.1 12.7 L-3.95 12.7 Q-5.05 12.7 -5.85 11.9 L-6.35 11.2 -6.9 11.95 -6.95 12.05 Q-7.75 12.7 -8.8 12.7 -10.3 12.7 -11.05 11.45 L-14.45 6.0 -15.35 6.0 -15.35 10.05 Q-15.35 11.2 -16.15 11.95 -16.85 12.7 -18.0 12.7 -19.1 12.7 -19.9 11.9 -20.65 11.2 -20.65 10.05 L-20.65 -5.0 M23.6 -7.05 Q24.25 -7.65 25.3 -7.65 L37.2 -7.65 Q38.4 -7.65 39.0 -6.95 L39.1 -6.85 Q39.75 -6.1 39.75 -5.1 39.75 -4.1 39.1 -3.4 38.5 -2.55 37.2 -2.55 L33.9 -2.55 33.9 10.05 Q33.9 11.2 33.15 11.9 32.35 12.7 31.25 12.7 30.2 12.7 29.4 11.9 L29.5 12.0 Q28.6 11.25 28.6 10.05 L28.6 -2.55 25.3 -2.55 Q24.2 -2.55 23.5 -3.3 22.75 -4.0 22.75 -5.1 22.75 -6.1 23.4 -6.85 L23.6 -7.05 M-31.05 -2.1 Q-32.15 -1.45 -32.8 -0.2 L-32.8 -0.15 Q-33.5 1.05 -33.5 2.5 -33.5 3.95 -32.8 5.25 -32.15 6.45 -31.05 7.15 -29.95 7.8 -28.65 7.8 L-26.55 7.35 -26.55 5.75 -28.1 5.75 Q-29.35 5.75 -30.0 5.0 L-29.9 5.1 Q-30.8 4.35 -30.8 3.2 -30.8 1.95 -29.8 1.3 -29.2 0.7 -28.1 0.7 L-23.95 0.7 Q-22.8 0.7 -22.1 1.45 L-22.0 1.55 Q-21.35 2.3 -21.35 3.35 L-21.35 8.65 Q-21.35 9.95 -22.2 10.65 L-22.25 10.7 Q-25.0 12.9 -28.65 12.9 -31.4 12.9 -33.75 11.55 -36.05 10.1 -37.4 7.75 -38.75 5.35 -38.75 2.5 -38.75 -0.35 -37.4 -2.7 L-37.4 -2.75 Q-36.05 -5.1 -33.75 -6.45 -31.4 -7.9 -28.65 -7.9 L-25.2 -7.35 -22.25 -5.65 -21.5 -4.75 -21.45 -4.65 -21.25 -3.6 Q-21.25 -2.45 -22.1 -1.7 L-22.05 -1.8 Q-22.75 -1.05 -23.85 -1.05 -24.75 -1.0 -25.55 -1.7 L-25.5 -1.65 -26.95 -2.55 -28.65 -2.8 Q-29.95 -2.8 -31.05 -2.1 M-14.0 -2.55 L-15.35 -2.55 -15.35 0.85 -14.0 0.85 Q-13.1 0.85 -12.5 0.4 L-12.45 0.35 Q-12.05 -0.05 -12.05 -0.7 -12.05 -1.5 -12.55 -2.05 L-12.5 -2.0 Q-13.1 -2.55 -14.0 -2.55 M15.15 3.95 L17.1 3.95 16.15 1.55 15.15 3.95" fill="#151b3f" fill-rule="evenodd" stroke="none"/>
    <path d="M-23.95 2.2 Q-23.45 2.2 -23.15 2.5 -22.85 2.85 -22.85 3.35 L-22.85 8.65 Q-22.85 9.2 -23.2 9.5 -25.55 11.4 -28.65 11.4 -31.0 11.4 -33.0 10.25 -34.95 9.05 -36.1 7.0 -37.25 4.95 -37.25 2.5 -37.25 0.05 -36.1 -2.0 -34.95 -4.0 -33.0 -5.2 -31.0 -6.4 -28.65 -6.4 L-25.7 -5.95 Q-24.45 -5.5 -23.2 -4.5 L-22.85 -4.1 -22.75 -3.6 Q-22.75 -3.15 -23.1 -2.85 -23.4 -2.55 -23.85 -2.55 -24.25 -2.55 -24.6 -2.85 L-26.4 -3.95 -28.65 -4.3 Q-30.35 -4.3 -31.85 -3.4 -33.3 -2.5 -34.15 -0.9 -35.0 0.65 -35.0 2.5 -35.0 4.35 -34.15 5.95 -33.3 7.5 -31.85 8.4 -30.35 9.3 -28.65 9.3 -26.75 9.3 -25.05 8.2 L-25.05 4.25 -28.1 4.25 -28.95 3.95 -29.3 3.2 Q-29.3 2.75 -28.95 2.5 -28.65 2.2 -28.1 2.2 L-23.95 2.2 M-14.0 2.35 Q-12.5 2.35 -11.5 1.5 -10.55 0.65 -10.55 -0.7 -10.55 -2.15 -11.5 -3.1 -12.5 -4.05 -14.0 -4.05 L-16.85 -4.05 -16.85 2.35 -14.0 2.35 M-7.9 9.4 L-7.65 10.15 Q-7.65 10.6 -7.95 10.9 L-8.8 11.2 Q-9.45 11.2 -9.8 10.65 L-13.6 4.5 -16.85 4.5 -16.85 10.05 Q-16.85 10.55 -17.2 10.85 -17.5 11.2 -18.0 11.2 -18.5 11.2 -18.85 10.85 L-19.15 10.05 -19.15 -5.0 -18.85 -5.85 Q-18.5 -6.15 -18.0 -6.15 L-14.0 -6.15 Q-12.35 -6.15 -11.05 -5.5 -9.75 -4.8 -9.05 -3.55 -8.3 -2.3 -8.3 -0.7 -8.3 0.9 -9.1 2.1 -9.9 3.3 -11.3 3.95 L-7.9 9.4 M-3.95 11.2 L-4.8 10.85 -5.1 10.05 -5.1 -5.0 -4.8 -5.85 -3.95 -6.15 6.1 -6.15 6.9 -5.9 7.2 -5.1 6.9 -4.35 Q6.6 -4.05 6.1 -4.05 L-2.8 -4.05 -2.8 1.35 3.6 1.35 Q4.05 1.35 4.4 1.65 L4.7 2.45 4.4 3.2 3.6 3.5 -2.8 3.5 -2.8 9.05 6.1 9.05 Q6.6 9.05 6.9 9.35 L7.2 10.1 6.9 10.9 6.1 11.2 -3.95 11.2 M23.45 9.6 L23.6 10.05 23.25 10.85 Q22.9 11.2 22.45 11.2 L21.8 11.0 21.35 10.5 20.1 7.4 12.1 7.4 10.85 10.5 10.4 11.0 9.8 11.2 Q9.3 11.2 9.0 10.85 8.65 10.5 8.65 10.05 L8.75 9.55 15.0 -5.4 Q15.35 -6.15 16.1 -6.15 16.9 -6.15 17.2 -5.4 L23.45 9.6 M37.2 -6.15 L37.95 -5.9 38.25 -5.1 Q38.25 -4.65 37.95 -4.35 37.7 -4.05 37.2 -4.05 L32.4 -4.05 32.4 10.05 32.1 10.85 Q31.75 11.2 31.25 11.2 30.8 11.2 30.45 10.85 30.1 10.55 30.1 10.05 L30.1 -4.05 25.3 -4.05 Q24.85 -4.05 24.55 -4.35 24.25 -4.65 24.25 -5.1 24.25 -5.55 24.55 -5.9 L25.3 -6.15 37.2 -6.15 M12.9 5.45 L19.35 5.45 16.15 -2.45 12.9 5.45" fill="url(#gradient0)" fill-rule="evenodd" stroke="none"/>
  </g>
  <defs>
    <linearGradient gradientTransform="matrix(0.0, 0.0102, -0.0461, 0.0, 0.5, 2.6)" gradientUnits="userSpaceOnUse" id="gradient0" spreadMethod="pad" x1="-819.2" x2="819.2">
      <stop offset="0.0" stop-color="#83b2e7"/>
      <stop offset="0.3137254901960784" stop-color="#98daff"/>
      <stop offset="1.0" stop-color="#c4e0ff"/>
    </linearGradient>
  </defs>
</svg>
