<?xml version="1.0" encoding="UTF-8" standalone="no"?>
<svg xmlns:xlink="http://www.w3.org/1999/xlink" height="71.95px" width="71.95px" xmlns="http://www.w3.org/2000/svg">
  <g transform="matrix(1.0, 0.0, 0.0, 1.0, 36.05, 36.15)">
    <path d="M15.85 -11.35 Q13.75 -12.9 11.05 -12.85 7.6 -12.85 5.15 -10.3 L5.1 -10.25 Q2.6 -7.85 2.6 -4.35 2.6 -0.9 5.1 1.6 7.6 4.1 11.05 4.1 14.55 4.1 17.05 1.6 18.7 -0.05 19.35 -2.15 20.05 -5.3 22.7 -7.1 L22.8 -7.15 Q25.45 -8.95 28.5 -8.55 31.7 -8.2 33.85 -5.7 35.9 -3.3 35.9 -0.2 L35.9 -0.15 Q35.9 14.8 25.4 25.3 14.9 35.8 -0.1 35.8 -15.05 35.8 -25.55 25.3 -36.05 14.8 -36.05 -0.15 -36.05 -15.1 -25.55 -25.6 L-25.55 -25.55 Q-15.05 -36.15 -0.1 -36.15 14.8 -36.15 25.25 -25.7 L25.4 -25.55 26.95 -23.9 Q29.1 -21.6 29.15 -18.25 29.1 -14.8 26.75 -12.4 L26.9 -12.55 Q24.8 -10.2 21.7 -9.85 L21.65 -9.85 Q18.3 -9.55 15.9 -11.35 L15.85 -11.35 M16.55 -12.35 Q18.65 -10.8 21.5 -11.05 L21.55 -11.05 Q24.1 -11.35 25.9 -13.25 L25.95 -13.3 Q27.95 -15.3 27.95 -18.25 27.9 -20.95 26.3 -22.85 L24.55 -24.7 24.45 -24.85 Q14.3 -34.95 -0.1 -34.95 -14.55 -34.95 -24.7 -24.7 L-24.7 -24.75 Q-34.85 -14.6 -34.85 -0.15 -34.85 14.3 -24.7 24.45 -14.55 34.6 -0.1 34.6 14.4 34.6 24.55 24.45 34.7 14.3 34.7 -0.15 L34.7 -0.2 Q34.7 -2.85 32.95 -4.9 31.1 -7.1 28.35 -7.35 25.75 -7.7 23.45 -6.15 L23.4 -6.1 Q21.1 -4.55 20.5 -1.8 L20.5 -1.95 Q19.85 0.5 17.9 2.45 15.05 5.3 11.05 5.3 7.1 5.3 4.25 2.45 1.4 -0.4 1.4 -4.35 1.4 -8.35 4.25 -11.1 L4.3 -11.15 Q7.1 -14.05 11.05 -14.05 14.15 -14.05 16.55 -12.35" fill="#ffafe8" fill-opacity="0.19607843" fill-rule="evenodd" stroke="none"/>
    <path d="M17.95 -14.3 Q14.95 -16.45 11.05 -16.45 6.1 -16.45 2.55 -12.85 -1.0 -9.35 -1.0 -4.35 -1.0 0.6 2.55 4.15 6.1 7.7 11.05 7.7 16.05 7.7 19.6 4.15 22.0 1.75 22.8 -1.25 23.2 -3.15 24.8 -4.15 L24.75 -4.1 Q26.3 -5.2 28.1 -4.95 29.9 -4.8 31.15 -3.35 32.3 -1.95 32.3 -0.2 L32.3 -0.15 Q32.3 13.3 22.85 22.75 13.4 32.2 -0.1 32.2 -13.55 32.2 -23.0 22.75 -32.45 13.3 -32.45 -0.15 -32.45 -13.6 -23.0 -23.05 -13.55 -32.55 -0.1 -32.55 13.35 -32.55 22.8 -23.1 L22.85 -23.05 24.45 -21.35 24.35 -21.45 Q25.55 -20.15 25.55 -18.25 25.55 -16.4 24.35 -15.05 23.1 -13.65 21.3 -13.45 L21.25 -13.45 Q19.35 -13.25 17.95 -14.3 M18.65 -15.25 Q19.7 -14.5 21.15 -14.65 22.5 -14.8 23.4 -15.85 L23.35 -15.8 Q24.35 -16.8 24.35 -18.25 24.35 -19.7 23.45 -20.65 L23.5 -20.6 22.0 -22.2 Q12.9 -31.35 -0.1 -31.35 -13.05 -31.35 -22.15 -22.2 -31.25 -13.1 -31.25 -0.15 -31.25 12.8 -22.15 21.9 -13.05 31.0 -0.1 31.0 12.9 31.0 22.0 21.9 31.1 12.8 31.1 -0.15 L31.1 -0.2 Q31.1 -1.55 30.2 -2.55 29.3 -3.65 27.95 -3.8 26.6 -3.95 25.45 -3.15 24.3 -2.4 24.0 -1.0 L24.0 -1.05 Q23.1 2.35 20.45 5.0 16.55 8.9 11.05 8.9 5.6 8.9 1.7 5.0 -2.2 1.1 -2.2 -4.35 -2.2 -9.85 1.7 -13.7 5.6 -17.65 11.05 -17.65 15.35 -17.65 18.65 -15.25" fill="#ffafe8" fill-opacity="0.79607844" fill-rule="evenodd" stroke="none"/>
    <path d="M18.65 -15.25 Q15.35 -17.65 11.05 -17.65 5.6 -17.65 1.7 -13.7 -2.2 -9.85 -2.2 -4.35 -2.2 1.1 1.7 5.0 5.6 8.9 11.05 8.9 16.55 8.9 20.45 5.0 23.1 2.35 24.0 -1.05 L24.0 -1.0 Q24.3 -2.4 25.45 -3.15 26.6 -3.95 27.95 -3.8 29.3 -3.65 30.2 -2.55 31.1 -1.55 31.1 -0.2 L31.1 -0.15 Q31.1 12.8 22.0 21.9 12.9 31.0 -0.1 31.0 -13.05 31.0 -22.15 21.9 -31.25 12.8 -31.25 -0.15 -31.25 -13.1 -22.15 -22.2 -13.05 -31.35 -0.1 -31.35 12.9 -31.35 22.0 -22.2 L23.5 -20.6 23.45 -20.65 Q24.35 -19.7 24.35 -18.25 24.35 -16.8 23.35 -15.8 L23.4 -15.85 Q22.5 -14.8 21.15 -14.65 19.7 -14.5 18.65 -15.25" fill="#ffafe8" fill-rule="evenodd" stroke="none"/>
    <path d="M17.25 -13.3 Q14.55 -15.25 11.05 -15.25 6.6 -15.25 3.4 -12.0 0.2 -8.85 0.2 -4.35 0.2 0.1 3.4 3.3 6.6 6.5 11.05 6.5 15.55 6.5 18.75 3.3 20.95 1.1 21.7 -1.65 L21.65 -1.5 Q22.15 -3.85 24.1 -5.15 L24.05 -5.1 Q26.0 -6.45 28.2 -6.15 30.5 -5.95 32.05 -4.15 33.5 -2.4 33.5 -0.2 L33.5 -0.15 Q33.5 13.8 23.7 23.6 13.9 33.4 -0.1 33.4 -14.05 33.4 -23.85 23.6 -33.65 13.8 -33.65 -0.15 -33.65 -14.1 -23.85 -23.9 -14.05 -33.75 -0.1 -33.75 13.9 -33.75 23.7 -23.9 L23.6 -23.95 25.2 -22.3 25.35 -22.1 Q26.7 -20.5 26.75 -18.25 26.75 -15.8 25.05 -14.1 23.55 -12.5 21.4 -12.25 19.0 -12.0 17.25 -13.3 M17.95 -14.3 Q19.35 -13.25 21.25 -13.45 L21.3 -13.45 Q23.1 -13.65 24.35 -15.05 25.55 -16.4 25.55 -18.25 25.55 -20.15 24.35 -21.45 L24.45 -21.35 22.85 -23.05 22.8 -23.1 Q13.35 -32.55 -0.1 -32.55 -13.55 -32.55 -23.0 -23.05 -32.45 -13.6 -32.45 -0.15 -32.45 13.3 -23.0 22.75 -13.55 32.2 -0.1 32.2 13.4 32.2 22.85 22.75 32.3 13.3 32.3 -0.15 L32.3 -0.2 Q32.3 -1.95 31.15 -3.35 29.9 -4.8 28.1 -4.95 26.3 -5.2 24.75 -4.1 L24.8 -4.15 Q23.2 -3.15 22.8 -1.25 22.0 1.75 19.6 4.15 16.05 7.7 11.05 7.7 6.1 7.7 2.55 4.15 -1.0 0.6 -1.0 -4.35 -1.0 -9.35 2.55 -12.85 6.1 -16.45 11.05 -16.45 14.95 -16.45 17.95 -14.3" fill="#ffafe8" fill-opacity="0.59607846" fill-rule="evenodd" stroke="none"/>
    <path d="M17.25 -13.3 Q19.0 -12.0 21.4 -12.25 23.55 -12.5 25.05 -14.1 26.75 -15.8 26.75 -18.25 26.7 -20.5 25.35 -22.1 L25.2 -22.3 23.6 -23.95 23.7 -23.9 Q13.9 -33.75 -0.1 -33.75 -14.05 -33.75 -23.85 -23.9 -33.65 -14.1 -33.65 -0.15 -33.65 13.8 -23.85 23.6 -14.05 33.4 -0.1 33.4 13.9 33.4 23.7 23.6 33.5 13.8 33.5 -0.15 L33.5 -0.2 Q33.5 -2.4 32.05 -4.15 30.5 -5.95 28.2 -6.15 26.0 -6.45 24.05 -5.1 L24.1 -5.15 Q22.15 -3.85 21.65 -1.5 L21.7 -1.65 Q20.95 1.1 18.75 3.3 15.55 6.5 11.05 6.5 6.6 6.5 3.4 3.3 0.2 0.1 0.2 -4.35 0.2 -8.85 3.4 -12.0 6.6 -15.25 11.05 -15.25 14.55 -15.25 17.25 -13.3 M16.55 -12.35 Q14.15 -14.05 11.05 -14.05 7.1 -14.05 4.3 -11.15 L4.25 -11.1 Q1.4 -8.35 1.4 -4.35 1.4 -0.4 4.25 2.45 7.1 5.3 11.05 5.3 15.05 5.3 17.9 2.45 19.85 0.5 20.5 -1.95 L20.5 -1.8 Q21.1 -4.55 23.4 -6.1 L23.45 -6.15 Q25.75 -7.7 28.35 -7.35 31.1 -7.1 32.95 -4.9 34.7 -2.85 34.7 -0.2 L34.7 -0.15 Q34.7 14.3 24.55 24.45 14.4 34.6 -0.1 34.6 -14.55 34.6 -24.7 24.45 -34.85 14.3 -34.85 -0.15 -34.85 -14.6 -24.7 -24.75 L-24.7 -24.7 Q-14.55 -34.95 -0.1 -34.95 14.3 -34.95 24.45 -24.85 L24.55 -24.7 26.3 -22.85 Q27.9 -20.95 27.95 -18.25 27.95 -15.3 25.95 -13.3 L25.9 -13.25 Q24.1 -11.35 21.55 -11.05 L21.5 -11.05 Q18.65 -10.8 16.55 -12.35" fill="#ffafe8" fill-opacity="0.39607844" fill-rule="evenodd" stroke="none"/>
    <path d="M-21.3 -20.9 Q-12.55 -29.7 -0.1 -29.7 12.4 -29.7 21.15 -20.9 L22.55 -19.4 Q23.1 -18.8 23.15 -18.05 L23.15 -17.75 Q23.15 -16.85 22.5 -16.15 21.9 -15.45 21.0 -15.4 20.05 -15.25 19.35 -15.8 15.75 -18.35 11.05 -18.35 5.1 -18.35 0.85 -14.1 -3.25 -10.05 -3.4 -4.35 L-3.4 -3.85 Q-3.4 2.1 0.85 6.35 5.1 10.6 11.05 10.6 17.05 10.6 21.3 6.35 24.2 3.45 25.15 -0.3 25.35 -1.15 26.1 -1.7 26.9 -2.2 27.8 -2.1 28.7 -2.0 29.3 -1.35 29.9 -0.7 29.9 0.2 L29.9 0.3 29.9 0.35 29.35 6.2 Q27.8 14.9 21.15 21.55 12.4 30.3 -0.1 30.3 -12.55 30.3 -21.3 21.55 -27.9 14.9 -29.5 6.2 L-30.05 0.35 -30.05 -0.15 -29.5 -6.0 Q-27.75 -14.4 -21.3 -20.9 Z" fill="none" stroke="#17164a" stroke-linecap="round" stroke-linejoin="round" stroke-width="2.0"/>
    <path d="M-21.3 -21.35 Q-12.55 -30.15 -0.1 -30.15 12.4 -30.15 21.15 -21.35 L22.55 -19.85 Q23.15 -19.2 23.15 -18.25 23.15 -17.3 22.5 -16.65 21.9 -15.95 21.0 -15.85 20.05 -15.75 19.35 -16.25 15.75 -18.85 11.05 -18.85 5.1 -18.85 0.85 -14.55 -3.4 -10.35 -3.4 -4.35 -3.4 1.6 0.85 5.85 5.1 10.1 11.05 10.1 17.05 10.1 21.3 5.85 24.2 2.95 25.15 -0.75 25.35 -1.65 26.1 -2.15 26.9 -2.7 27.8 -2.6 28.7 -2.5 29.3 -1.8 29.9 -1.1 29.9 -0.2 L29.9 -0.15 Q29.9 12.3 21.15 21.05 12.4 29.8 -0.1 29.8 -12.55 29.8 -21.3 21.05 -30.05 12.3 -30.05 -0.15 -30.05 -12.6 -21.3 -21.35" fill="url(#gradient0)" fill-rule="evenodd" stroke="none"/>
    <path d="M27.5 -0.8 Q27.5 10.65 19.4 18.65 11.4 26.75 -0.1 26.75 -11.55 26.75 -19.6 18.65 -27.65 10.65 -27.65 -0.8 -27.65 -12.25 -19.6 -20.3 -11.55 -28.4 -0.1 -28.4 11.4 -28.4 19.4 -20.3 L20.75 -18.9 Q16.55 -21.95 11.05 -21.95 4.05 -21.95 -0.9 -16.95 -5.85 -12.05 -5.85 -5.0 -5.85 2.0 -0.9 6.9 4.05 11.9 11.05 11.9 18.1 11.9 23.0 6.9 26.45 3.5 27.5 -0.85 L27.5 -0.8" fill="url(#gradient1)" fill-rule="evenodd" stroke="none"/>
  </g>
  <defs>
    <linearGradient gradientTransform="matrix(0.0153, 0.0287, -0.0294, 0.0156, -0.1, 0.6)" gradientUnits="userSpaceOnUse" id="gradient0" spreadMethod="pad" x1="-819.2" x2="819.2">
      <stop offset="0.0" stop-color="#7451b4"/>
      <stop offset="0.5254901960784314" stop-color="#834269"/>
      <stop offset="1.0" stop-color="#7e3d9a"/>
    </linearGradient>
    <linearGradient gradientTransform="matrix(0.0143, 0.0324, -0.0302, 0.0133, 0.5, 2.15)" gradientUnits="userSpaceOnUse" id="gradient1" spreadMethod="pad" x1="-819.2" x2="819.2">
      <stop offset="0.0" stop-color="#a284ff"/>
      <stop offset="0.5019607843137255" stop-color="#e76da6"/>
      <stop offset="1.0" stop-color="#a473de"/>
    </linearGradient>
  </defs>
</svg>
