<?xml version="1.0" encoding="UTF-8" standalone="no"?>
<svg xmlns:xlink="http://www.w3.org/1999/xlink" height="33.35px" width="603.95px" xmlns="http://www.w3.org/2000/svg">
  <g transform="matrix(1.0, 0.0, 0.0, 1.0, 208.8, 9.8)">
    <path d="M-62.65 -9.8 L39.7 -9.8 Q44.75 -9.8 48.45 -6.3 52.2 -2.8 52.2 2.15 L52.2 11.6 Q52.2 16.45 48.45 20.0 44.75 23.55 39.7 23.55 L-62.65 23.55 Q-67.75 23.55 -71.5 20.0 -75.15 16.45 -75.15 11.6 L-75.15 2.15 Q-75.15 -2.8 -71.5 -6.3 -67.75 -9.8 -62.65 -9.8 M109.85 -6.9 L173.1 -6.9 Q177.7 -6.9 181.1 -3.9 184.5 -0.85 184.5 3.45 L184.5 11.6 Q184.5 15.85 181.1 18.85 177.7 21.95 173.1 21.95 L109.85 21.95 Q105.2 21.95 101.75 18.85 98.4 15.85 98.4 11.6 L98.4 3.45 Q98.4 -0.85 101.75 -3.9 105.2 -6.9 109.85 -6.9 M290.0 -7.65 L383.75 -7.65 Q388.35 -7.65 391.75 -4.65 395.15 -1.6 395.15 2.7 L395.15 10.85 Q395.15 15.1 391.75 18.1 388.35 21.2 383.75 21.2 L290.0 21.2 Q285.35 21.2 281.9 18.1 278.55 15.1 278.55 10.85 L278.55 2.7 Q278.55 -1.6 281.9 -4.65 285.35 -7.65 290.0 -7.65 M-197.35 -7.45 L-153.2 -7.45 Q-148.6 -7.45 -145.2 -4.45 -141.8 -1.4 -141.8 2.9 L-141.8 11.05 Q-141.8 15.3 -145.2 18.3 -148.6 21.4 -153.2 21.4 L-197.35 21.4 Q-202.0 21.4 -205.45 18.3 -208.8 15.3 -208.8 11.05 L-208.8 2.9 Q-208.8 -1.4 -205.45 -4.45 -202.0 -7.45 -197.35 -7.45" fill="#171948" fill-opacity="0.5294118" fill-rule="evenodd" stroke="none"/>
  </g>
</svg>
