<?xml version="1.0" encoding="UTF-8" standalone="no"?>
<svg xmlns:xlink="http://www.w3.org/1999/xlink" height="40.45px" width="774.1px" xmlns="http://www.w3.org/2000/svg">
  <g transform="matrix(1.0, 0.0, 0.0, 1.0, -38.95, -3.75)">
    <path d="M59.15 4.25 L792.85 4.25 Q801.0 4.25 806.75 10.0 812.55 15.8 812.55 23.95 L812.55 24.0 Q812.55 32.15 806.75 37.9 801.0 43.7 792.85 43.7 L59.15 43.7 Q51.0 43.7 45.2 37.9 39.45 32.15 39.45 24.0 L39.45 23.95 Q39.45 15.8 45.2 10.0 51.0 4.25 59.15 4.25" fill="#362543" fill-opacity="0.35686275" fill-rule="evenodd" stroke="none"/>
    <path d="M59.15 4.25 L792.85 4.25 Q801.0 4.25 806.75 10.0 812.55 15.8 812.55 23.95 L812.55 24.0 Q812.55 32.15 806.75 37.9 801.0 43.7 792.85 43.7 L59.15 43.7 Q51.0 43.7 45.2 37.9 39.45 32.15 39.45 24.0 L39.45 23.95 Q39.45 15.8 45.2 10.0 51.0 4.25 59.15 4.25 Z" fill="none" stroke="#f0deff" stroke-linecap="round" stroke-linejoin="round" stroke-opacity="0.25882354" stroke-width="1.0"/>
  </g>
</svg>
