<?xml version="1.0" encoding="UTF-8" standalone="no"?>
<svg xmlns:xlink="http://www.w3.org/1999/xlink" height="32.2px" width="180.05px" xmlns="http://www.w3.org/2000/svg">
  <g transform="matrix(1.0, 0.0, 0.0, 1.0, 363.35, 9.4)">
    <path d="M-352.4 -8.65 L-328.5 -8.65 Q-318.3 -8.65 -318.3 0.8 L-318.3 12.6 Q-318.3 22.05 -328.5 22.05 L-352.4 22.05 Q-362.6 22.05 -362.6 12.6 L-362.6 0.8 Q-362.6 -8.65 -352.4 -8.65 M-299.75 -8.65 L-271.4 -8.65 Q-261.2 -8.65 -261.2 0.8 L-261.2 12.6 Q-261.2 22.05 -271.4 22.05 L-299.75 22.05 Q-309.95 22.05 -309.95 12.6 L-309.95 0.8 Q-309.95 -8.65 -299.75 -8.65" fill="#171948" fill-opacity="0.5568628" fill-rule="evenodd" stroke="none"/>
    <path d="M-352.4 -8.65 L-328.5 -8.65 Q-318.3 -8.65 -318.3 0.8 L-318.3 12.6 Q-318.3 22.05 -328.5 22.05 L-352.4 22.05 Q-362.6 22.05 -362.6 12.6 L-362.6 0.8 Q-362.6 -8.65 -352.4 -8.65 M-299.75 -8.65 L-271.4 -8.65 Q-261.2 -8.65 -261.2 0.8 L-261.2 12.6 Q-261.2 22.05 -271.4 22.05 L-299.75 22.05 Q-309.95 22.05 -309.95 12.6 L-309.95 0.8 Q-309.95 -8.65 -299.75 -8.65" fill="none" stroke="#171b27" stroke-linecap="round" stroke-linejoin="round" stroke-opacity="0.49803922" stroke-width="1.5"/>
    <path d="M-193.1 3.55 L-188.2 -0.8 -183.3 4.9 -193.1 15.55 -202.9 4.9 -198.0 -0.8 -193.1 3.55 M-191.45 5.45 L-193.1 6.85 -194.75 5.45 -197.75 2.75 -199.55 4.85 -193.1 11.85 -186.65 4.85 -188.45 2.75 -191.45 5.45" fill="#c6d0ec" fill-rule="evenodd" stroke="none"/>
  </g>
</svg>
