<?xml version="1.0" encoding="UTF-8" standalone="no"?>
<svg xmlns:xlink="http://www.w3.org/1999/xlink" height="73.8px" width="76.8px" xmlns="http://www.w3.org/2000/svg">
  <g transform="matrix(1.0, 0.0, 0.0, 1.0, 38.45, 36.9)">
    <path d="M2.0 -32.45 Q2.75 -31.95 3.2 -30.95 L3.25 -30.85 10.25 -10.85 31.3 -10.4 Q32.35 -10.4 33.25 -9.65 L33.2 -9.7 Q34.15 -9.0 34.45 -7.95 L34.5 -7.85 Q34.7 -6.95 34.5 -6.0 L34.45 -5.9 Q34.15 -4.85 33.15 -4.2 L33.2 -4.25 16.55 8.5 22.55 28.8 Q22.85 29.8 22.55 30.85 L22.5 31.0 21.4 32.5 21.2 32.65 19.3 33.15 Q18.25 33.15 17.4 32.65 L17.3 32.6 -0.1 20.6 -17.4 32.6 -17.45 32.6 Q-18.35 33.15 -19.35 33.15 -20.55 33.15 -21.3 32.6 L-21.4 32.55 -22.55 30.9 Q-23.0 29.85 -22.65 28.8 L-16.7 8.5 -33.35 -4.25 -33.3 -4.25 Q-34.2 -4.85 -34.45 -5.85 -34.9 -6.9 -34.5 -8.0 -34.25 -9.0 -33.4 -9.65 L-33.35 -9.7 Q-32.4 -10.4 -31.3 -10.4 L-10.3 -10.85 -3.25 -30.85 -3.25 -30.9 Q-2.85 -31.95 -1.95 -32.5 -1.2 -33.15 -0.05 -33.15 1.05 -33.15 2.0 -32.45" fill="#fff8d9" fill-rule="evenodd" stroke="none"/>
    <path d="M2.0 -32.45 Q1.05 -33.15 -0.05 -33.15 -1.2 -33.15 -1.95 -32.5 -2.85 -31.95 -3.25 -30.9 L-3.25 -30.85 -10.3 -10.85 -31.3 -10.4 Q-32.4 -10.4 -33.35 -9.7 L-33.4 -9.65 Q-34.25 -9.0 -34.5 -8.0 -34.9 -6.9 -34.45 -5.85 -34.2 -4.85 -33.3 -4.25 L-33.35 -4.25 -16.7 8.5 -22.65 28.8 Q-23.0 29.85 -22.55 30.9 L-21.4 32.55 -21.3 32.6 Q-20.55 33.15 -19.35 33.15 -18.35 33.15 -17.45 32.6 L-17.4 32.6 -0.1 20.6 17.3 32.6 17.4 32.65 Q18.25 33.15 19.3 33.15 L21.2 32.65 21.4 32.5 22.5 31.0 22.55 30.85 Q22.85 29.8 22.55 28.8 L16.55 8.5 33.2 -4.25 33.15 -4.2 Q34.15 -4.85 34.45 -5.9 L34.5 -6.0 Q34.7 -6.95 34.5 -7.85 L34.45 -7.95 Q34.15 -9.0 33.2 -9.7 L33.25 -9.65 Q32.35 -10.4 31.3 -10.4 L10.25 -10.85 3.25 -30.85 3.2 -30.95 Q2.75 -31.95 2.0 -32.45 M2.7 -33.5 L2.75 -33.45 Q3.75 -32.75 4.35 -31.5 L4.4 -31.25 11.15 -12.1 31.3 -11.65 Q32.8 -11.65 34.05 -10.6 L33.95 -10.7 Q35.25 -9.75 35.65 -8.3 L35.7 -8.15 Q35.95 -6.95 35.7 -5.75 L35.65 -5.55 Q35.2 -4.15 34.0 -3.25 L18.0 8.95 23.75 28.45 Q24.2 29.8 23.75 31.2 L23.65 31.5 Q23.1 32.65 22.25 33.4 L21.8 33.7 Q20.6 34.4 19.3 34.4 17.95 34.4 16.75 33.7 L16.6 33.6 -0.15 22.1 -16.7 33.6 -16.8 33.65 Q-17.95 34.4 -19.35 34.4 -20.95 34.4 -22.0 33.6 L-22.15 33.5 Q-23.25 32.6 -23.7 31.35 -24.3 29.9 -23.85 28.45 L-18.1 8.95 -34.1 -3.25 -34.05 -3.2 Q-35.3 -4.1 -35.65 -5.5 -36.2 -6.95 -35.65 -8.4 -35.3 -9.7 -34.15 -10.6 L-34.1 -10.7 Q-32.85 -11.65 -31.35 -11.65 L-11.15 -12.1 -4.45 -31.25 -4.4 -31.35 Q-3.9 -32.7 -2.8 -33.45 -1.7 -34.4 -0.05 -34.4 1.4 -34.4 2.7 -33.5" fill="#fffad7" fill-opacity="0.7490196" fill-rule="evenodd" stroke="none"/>
    <path d="M3.4 -34.5 L3.5 -34.45 Q4.7 -33.6 5.45 -32.0 L5.6 -31.7 12.05 -13.35 31.25 -12.9 31.35 -12.9 Q33.15 -12.9 34.7 -11.7 L34.85 -11.6 Q36.35 -10.4 36.85 -8.7 L36.9 -8.45 Q37.25 -6.95 36.9 -5.45 L36.85 -5.2 Q36.25 -3.3 34.55 -2.1 L19.45 9.4 24.95 28.1 24.95 28.05 Q25.45 29.8 24.95 31.55 L24.75 32.05 Q24.1 33.4 23.05 34.35 L22.45 34.8 Q20.95 35.65 19.3 35.65 17.6 35.65 16.1 34.8 L15.9 34.65 -0.15 23.65 -16.0 34.65 -16.1 34.75 Q-17.6 35.65 -19.35 35.65 -21.4 35.65 -22.75 34.65 L-22.95 34.45 Q-24.3 33.35 -24.9 31.8 -25.6 29.95 -25.0 28.05 L-25.05 28.1 -19.55 9.4 -34.8 -2.2 -34.85 -2.25 Q-36.4 -3.4 -36.85 -5.15 -37.5 -6.95 -36.9 -8.7 -36.45 -10.4 -34.95 -11.6 L-34.85 -11.7 Q-33.25 -12.9 -31.35 -12.9 L-12.1 -13.35 -5.65 -31.7 -5.6 -31.8 Q-4.9 -33.65 -3.3 -34.6 -1.95 -35.65 -0.05 -35.65 1.8 -35.65 3.4 -34.5 M2.7 -33.5 Q1.4 -34.4 -0.05 -34.4 -1.7 -34.4 -2.8 -33.45 -3.9 -32.7 -4.4 -31.35 L-4.45 -31.25 -11.15 -12.1 -31.35 -11.65 Q-32.85 -11.65 -34.1 -10.7 L-34.15 -10.6 Q-35.3 -9.7 -35.65 -8.4 -36.2 -6.95 -35.65 -5.5 -35.3 -4.1 -34.05 -3.2 L-34.1 -3.25 -18.1 8.95 -23.85 28.45 Q-24.3 29.9 -23.7 31.35 -23.25 32.6 -22.15 33.5 L-22.0 33.6 Q-20.95 34.4 -19.35 34.4 -17.95 34.4 -16.8 33.65 L-16.7 33.6 -0.15 22.1 16.6 33.6 16.75 33.7 Q17.95 34.4 19.3 34.4 20.6 34.4 21.8 33.7 L22.25 33.4 Q23.1 32.65 23.65 31.5 L23.75 31.2 Q24.2 29.8 23.75 28.45 L18.0 8.95 34.0 -3.25 Q35.2 -4.15 35.65 -5.55 L35.7 -5.75 Q35.95 -6.95 35.7 -8.15 L35.65 -8.3 Q35.25 -9.75 33.95 -10.7 L34.05 -10.6 Q32.8 -11.65 31.3 -11.65 L11.15 -12.1 4.4 -31.25 4.35 -31.5 Q3.75 -32.75 2.75 -33.45 L2.7 -33.5" fill="#fff9aa" fill-opacity="0.49803922" fill-rule="evenodd" stroke="none"/>
    <path d="M3.4 -34.5 Q1.8 -35.65 -0.05 -35.65 -1.95 -35.65 -3.3 -34.6 -4.9 -33.65 -5.6 -31.8 L-5.65 -31.7 -12.1 -13.35 -31.35 -12.9 Q-33.25 -12.9 -34.85 -11.7 L-34.95 -11.6 Q-36.45 -10.4 -36.9 -8.7 -37.5 -6.95 -36.85 -5.15 -36.4 -3.4 -34.85 -2.25 L-34.8 -2.2 -19.55 9.4 -25.05 28.1 -25.0 28.05 Q-25.6 29.95 -24.9 31.8 -24.3 33.35 -22.95 34.45 L-22.75 34.65 Q-21.4 35.65 -19.35 35.65 -17.6 35.65 -16.1 34.75 L-16.0 34.65 -0.15 23.65 15.9 34.65 16.1 34.8 Q17.6 35.65 19.3 35.65 20.95 35.65 22.45 34.8 L23.05 34.35 Q24.1 33.4 24.75 32.05 L24.95 31.55 Q25.45 29.8 24.95 28.05 L24.95 28.1 19.45 9.4 34.55 -2.1 Q36.25 -3.3 36.85 -5.2 L36.9 -5.45 Q37.25 -6.95 36.9 -8.45 L36.85 -8.7 Q36.35 -10.4 34.85 -11.6 L34.7 -11.7 Q33.15 -12.9 31.35 -12.9 L31.25 -12.9 12.05 -13.35 5.6 -31.7 5.45 -32.0 Q4.7 -33.6 3.5 -34.45 L3.4 -34.5 M4.15 -35.55 Q5.7 -34.5 6.6 -32.55 L6.8 -32.1 12.95 -14.55 31.25 -14.15 31.4 -14.15 Q33.7 -14.15 35.65 -12.55 L35.45 -12.7 Q37.4 -11.25 38.05 -9.05 L38.15 -8.7 Q38.55 -6.95 38.15 -5.15 L38.05 -4.8 Q37.4 -2.65 35.5 -1.25 L20.9 9.9 26.15 27.75 26.15 27.7 Q26.8 29.8 26.15 31.95 L25.9 32.55 Q25.15 34.15 23.9 35.3 L23.1 35.9 Q21.25 36.95 19.3 36.9 17.25 36.9 15.5 35.9 L15.2 35.7 -0.15 25.15 -15.3 35.65 -15.45 35.8 Q-17.25 36.9 -19.35 36.9 -21.85 36.9 -23.45 35.65 L-23.75 35.45 Q-25.35 34.15 -26.05 32.25 -26.95 30.0 -26.25 27.75 L-21.0 9.9 -35.6 -1.25 -35.55 -1.2 Q-37.45 -2.6 -38.05 -4.75 -38.8 -6.85 -38.1 -8.95 L-38.05 -9.05 -37.95 -9.4 Q-37.4 -11.25 -35.75 -12.55 L-35.6 -12.7 Q-33.65 -14.15 -31.4 -14.15 L-12.95 -14.55 -6.8 -32.1 -6.75 -32.25 Q-6.0 -34.2 -4.45 -35.35 -2.7 -36.9 -0.05 -36.9 2.25 -36.95 4.25 -35.45 L4.15 -35.55" fill="#fff8a1" fill-opacity="0.24705882" fill-rule="evenodd" stroke="none"/>
    <path d="M2.05 -30.45 L9.35 -9.65 31.25 -9.15 Q31.9 -9.15 32.45 -8.7 33.05 -8.25 33.25 -7.6 L33.25 -6.3 Q33.05 -5.65 32.45 -5.25 L15.1 8.0 21.35 29.15 Q21.55 29.8 21.35 30.45 L20.55 31.55 19.3 31.9 Q18.6 31.9 18.0 31.55 L-0.15 19.05 -18.15 31.55 -19.35 31.9 -20.6 31.55 -21.4 30.45 -21.45 29.15 -15.25 8.0 -32.6 -5.25 Q-33.15 -5.65 -33.3 -6.3 -33.55 -6.95 -33.3 -7.6 -33.15 -8.25 -32.6 -8.7 L-31.3 -9.15 -9.4 -9.65 -2.1 -30.45 -1.3 -31.45 Q-0.8 -31.9 -0.05 -31.9 L1.25 -31.45 2.05 -30.45" fill="#4d494d" fill-rule="evenodd" stroke="none"/>
    <path d="M2.05 -30.45 L9.35 -9.65 31.25 -9.15 Q31.9 -9.15 32.45 -8.7 33.05 -8.25 33.25 -7.6 L33.25 -6.3 Q33.05 -5.65 32.45 -5.25 L15.1 8.0 21.35 29.15 Q21.55 29.8 21.35 30.45 L20.55 31.55 19.3 31.9 Q18.6 31.9 18.0 31.55 L-0.15 19.05 -18.15 31.55 -19.35 31.9 -20.6 31.55 -21.4 30.45 -21.45 29.15 -15.25 8.0 -32.6 -5.25 Q-33.15 -5.65 -33.3 -6.3 -33.55 -6.95 -33.3 -7.6 -33.15 -8.25 -32.6 -8.7 L-31.3 -9.15 -9.4 -9.65 -2.1 -30.45 -1.3 -31.45 Q-0.8 -31.9 -0.05 -31.9 L1.25 -31.45 2.05 -30.45 Z" fill="none" stroke="#774550" stroke-linecap="round" stroke-linejoin="round" stroke-width="2.0"/>
    <path d="M2.05 -30.45 L9.35 -9.65 31.25 -9.15 Q31.9 -9.15 32.45 -8.7 33.05 -8.25 33.25 -7.6 L33.25 -6.3 Q33.05 -5.65 32.45 -5.25 L15.1 8.0 21.35 29.15 Q21.55 29.8 21.35 30.45 L20.55 31.55 19.3 31.9 Q18.6 31.9 18.0 31.55 L-0.15 19.05 -18.15 31.55 -19.35 31.9 -20.6 31.55 -21.4 30.45 -21.45 29.15 -15.25 8.0 -32.6 -5.25 Q-33.15 -5.65 -33.3 -6.3 -33.55 -6.95 -33.3 -7.6 -33.15 -8.25 -32.6 -8.7 L-31.3 -9.15 -9.4 -9.65 -2.1 -30.45 -1.3 -31.45 Q-0.8 -31.9 -0.05 -31.9 L1.25 -31.45 2.05 -30.45" fill="url(#gradient0)" fill-rule="evenodd" stroke="none"/>
    <path d="M-0.05 -30.4 L7.75 -8.2 31.15 -7.6 12.6 6.55 19.25 29.1 -0.15 15.8 -19.35 29.1 -12.7 6.55 -31.3 -7.6 -7.85 -8.2 -0.05 -30.4" fill="url(#gradient1)" fill-rule="evenodd" stroke="none"/>
  </g>
  <defs>
    <linearGradient gradientTransform="matrix(0.0, 0.0355, -0.0407, 0.0, 0.0, -1.15)" gradientUnits="userSpaceOnUse" id="gradient0" spreadMethod="pad" x1="-819.2" x2="819.2">
      <stop offset="0.0" stop-color="#ffca64"/>
      <stop offset="0.49411764705882355" stop-color="#bda362"/>
      <stop offset="0.9686274509803922" stop-color="#c974c8"/>
    </linearGradient>
    <linearGradient gradientTransform="matrix(0.0, -0.0285, 0.0381, 0.0, -0.05, -1.5)" gradientUnits="userSpaceOnUse" id="gradient1" spreadMethod="pad" x1="-819.2" x2="819.2">
      <stop offset="0.0" stop-color="#e0acdf"/>
      <stop offset="0.4980392156862745" stop-color="#fff1b0"/>
      <stop offset="1.0" stop-color="#fffab1"/>
    </linearGradient>
  </defs>
</svg>
