<?xml version="1.0" encoding="UTF-8" standalone="no"?>
<svg xmlns:xlink="http://www.w3.org/1999/xlink" height="618.95px" width="1027.9px" xmlns="http://www.w3.org/2000/svg">
  <g transform="matrix(1.0, 0.0, 0.0, 1.0, 501.9, 280.75)">
    <path d="M-496.6 293.2 L-496.6 -280.75 487.35 -280.75 487.35 293.2 -496.6 293.2" fill="url(#gradient0)" fill-rule="evenodd" stroke="none"/>
    <path d="M107.75 9.5 Q101.35 22.45 78.65 19.05 55.9 15.65 37.2 -8.3 21.6 -0.65 14.6 -4.95 7.65 -9.25 11.05 -12.65 14.45 -16.15 25.5 -19.6 19.75 -23.95 20.25 -33.8 20.7 -43.5 30.45 -36.45 40.0 -29.4 39.55 -17.1 54.35 -23.65 69.05 -25.65 83.65 -27.7 97.9 -17.9 114.1 -3.5 107.75 9.5 M-76.4 -160.35 Q-55.1 -158.1 -42.35 -145.15 -29.65 -132.2 -31.15 -113.75 -32.65 -95.3 -48.85 -83.15 -65.05 -71.0 -87.6 -66.2 -110.15 -61.45 -127.7 -64.7 -145.3 -68.0 -154.7 -72.45 -164.1 -76.9 -171.95 -80.9 -179.85 -84.95 -182.7 -89.15 L-202.15 -92.3 Q-212.15 -94.2 -218.0 -100.65 -223.9 -107.1 -210.1 -105.7 -196.35 -104.3 -188.85 -106.0 -187.55 -117.85 -185.05 -129.55 -182.65 -141.3 -177.1 -130.7 -171.55 -120.15 -171.3 -106.5 -171.25 -102.8 -170.2 -102.0 -157.65 -92.3 -148.5 -112.95 -138.0 -136.6 -117.85 -149.6 -97.7 -162.6 -76.4 -160.35" fill="#ffffff" fill-opacity="0.5686275" fill-rule="evenodd" stroke="none"/>
    <path d="M119.55 -98.85 L117.6 -98.8 Q116.65 -99.2 116.2 -100.05 115.8 -101.1 116.2 -102.0 116.6 -103.0 117.5 -103.4 L134.5 -111.0 136.45 -111.05 Q137.35 -110.7 137.8 -109.7 138.2 -108.8 137.8 -107.85 137.45 -106.85 136.55 -106.45 L119.55 -98.85 M159.05 -175.75 Q158.55 -176.7 158.85 -177.65 159.1 -178.65 160.0 -179.15 L161.95 -179.4 Q162.95 -179.15 163.45 -178.25 L171.9 -163.15 Q172.35 -162.3 172.05 -161.25 171.8 -160.3 170.9 -159.8 170.0 -159.3 169.05 -159.55 168.05 -159.8 167.5 -160.75 L159.05 -175.75 M200.3 -175.85 Q209.3 -158.9 209.45 -138.7 226.6 -131.8 241.2 -119.5 226.45 -106.2 209.1 -102.65 211.95 -86.2 206.15 -63.85 188.45 -76.15 176.95 -90.6 159.4 -81.6 139.2 -81.8 143.15 -97.9 154.45 -117.5 140.55 -133.55 135.6 -151.1 154.45 -151.75 173.25 -147.65 184.35 -164.05 200.3 -175.85 M240.2 -154.05 L242.1 -154.15 Q243.05 -153.8 243.5 -152.85 243.95 -151.9 243.6 -150.95 243.2 -149.95 242.35 -149.55 L224.1 -141.05 222.2 -140.9 Q221.15 -141.3 220.75 -142.2 220.3 -143.2 220.65 -144.1 221.0 -145.1 222.0 -145.5 L240.2 -154.05 M207.75 -195.75 L205.55 -196.4 209.95 -195.2 207.75 -195.75 M325.75 20.25 Q303.05 14.05 296.25 10.55 295.05 9.55 294.85 8.45 294.65 7.15 295.6 5.75 317.3 -19.25 342.65 -41.85 345.1 -44.1 346.05 -40.8 355.35 -12.05 362.7 23.85 363.0 25.95 362.15 26.85 361.5 27.4 360.3 27.35 351.3 27.2 325.75 20.25 M233.8 -66.9 Q234.4 -66.1 234.3 -65.05 234.15 -64.0 233.35 -63.35 232.5 -62.8 231.5 -62.9 230.5 -63.05 229.85 -63.85 L221.05 -75.3 Q220.4 -76.15 220.6 -77.15 220.7 -78.2 221.5 -78.8 222.35 -79.45 223.35 -79.3 224.35 -79.15 225.05 -78.35 L233.8 -66.9 M228.45 31.8 Q235.2 23.9 249.45 33.15 263.6 42.3 260.2 50.15 L253.0 64.05 268.4 73.35 Q273.25 79.25 264.25 93.45 255.2 107.55 248.0 104.0 L234.25 96.75 Q229.0 105.35 224.5 111.45 216.9 118.2 202.65 109.3 188.0 99.9 193.05 93.3 196.3 86.8 201.2 77.9 L184.9 67.6 Q180.65 62.9 188.35 48.95 198.25 31.75 205.85 36.9 L220.35 45.0 228.45 31.8 M-296.8 -123.35 Q-289.85 -111.3 -293.5 -97.9 -296.8 -85.3 -307.65 -78.35 L-310.6 -76.7 Q-321.95 -70.75 -334.6 -74.15 -348.05 -77.7 -355.0 -89.75 -361.95 -101.8 -358.35 -115.25 -354.75 -128.65 -342.7 -135.6 -330.65 -142.6 -317.25 -139.0 -303.75 -135.4 -296.8 -123.35 M-331.25 35.2 Q-323.1 45.85 -312.4 45.55 -302.6 45.35 -296.65 39.75 -295.5 37.5 -296.3 34.45 -296.85 31.3 -301.75 27.7 -311.05 19.9 -311.85 8.8 -313.0 -2.0 -305.55 -9.95 -296.25 -17.4 -285.05 -17.45 -276.05 -17.1 -270.4 -11.5 L-264.0 -2.2 Q-259.65 0.3 -253.25 -1.15 L-247.9 -1.3 Q-246.65 0.4 -248.25 3.2 -257.4 15.65 -265.2 17.55 -267.6 28.0 -264.05 30.3 -256.2 35.05 -253.55 39.8 -248.85 48.85 -251.0 56.25 -252.4 63.8 -257.85 70.5 -262.05 76.0 -269.6 80.05 -286.55 86.25 -300.25 86.6 -314.6 85.85 -324.0 76.5 -332.5 67.6 -334.85 58.7 -337.4 44.6 -331.25 35.2 M-39.85 58.0 Q-35.4 90.55 -70.9 118.85 -114.6 111.95 -127.1 81.35 -137.65 53.95 -115.15 44.65 -101.25 39.9 -88.75 51.4 -81.95 34.85 -68.65 32.2 -44.35 28.95 -39.85 58.0" fill="#ffffff" fill-opacity="0.5686275" fill-rule="evenodd" stroke="none"/>
    <path d="M-501.9 233.5 L526.0 233.5 526.0 338.2 -501.9 338.2 -501.9 233.5" fill="url(#gradient1)" fill-rule="evenodd" stroke="none"/>
  </g>
  <defs>
    <linearGradient gradientTransform="matrix(0.0, -0.2645, 0.6005, 0.0, -4.65, 68.1)" gradientUnits="userSpaceOnUse" id="gradient0" spreadMethod="pad" x1="-819.2" x2="819.2">
      <stop offset="0.0" stop-color="#cdf5ff"/>
      <stop offset="1.0" stop-color="#8cd5ff"/>
    </linearGradient>
    <linearGradient gradientTransform="matrix(0.0, 0.0537, -0.6273, 0.0, 12.0, 286.8)" gradientUnits="userSpaceOnUse" id="gradient1" spreadMethod="pad" x1="-819.2" x2="819.2">
      <stop offset="0.09019607843137255" stop-color="#21b9ec"/>
      <stop offset="0.43137254901960786" stop-color="#44c7f4"/>
      <stop offset="1.0" stop-color="#2381d4"/>
    </linearGradient>
  </defs>
</svg>
