<?xml version="1.0" encoding="UTF-8" standalone="no"?>
<svg xmlns:xlink="http://www.w3.org/1999/xlink" height="40.5px" width="47.95px" xmlns="http://www.w3.org/2000/svg">
  <g transform="matrix(1.0, 0.0, 0.0, 1.0, -68.15, 63.05)">
    <path d="M76.35 -35.35 Q73.1 -43.35 69.85 -47.8 67.6 -51.3 68.3 -51.3 69.65 -52.4 73.15 -48.8 77.2 -43.8 77.7 -39.1 78.1 -31.15 76.35 -35.35 M86.4 -25.3 Q84.95 -37.4 79.95 -49.85 76.1 -57.4 78.8 -60.15 83.25 -64.0 87.65 -57.55 91.55 -50.55 92.6 -43.85 93.85 -62.8 99.15 -63.05 103.4 -63.2 104.35 -57.2 104.5 -50.3 100.85 -43.75 110.6 -44.4 114.75 -39.1 118.05 -34.0 113.4 -32.45 L100.0 -31.75 Q91.6 -31.55 88.1 -23.75 86.55 -20.75 86.4 -25.3" fill="#95c7ff" fill-rule="evenodd" stroke="none"/>
  </g>
</svg>
