<?xml version="1.0" encoding="UTF-8" standalone="no"?>
<svg xmlns:xlink="http://www.w3.org/1999/xlink" height="33.65px" width="30.6px" xmlns="http://www.w3.org/2000/svg">
  <g transform="matrix(1.0, 0.0, 0.0, 1.0, -70.9, 55.1)">
    <path d="M70.9 -44.55 Q74.95 -48.3 77.8 -41.7 80.95 -34.95 80.95 -28.85 76.9 -37.95 70.9 -44.55 M85.6 -21.7 Q84.6 -22.2 85.45 -25.65 86.3 -29.1 87.4 -30.2 87.4 -37.45 89.55 -43.25 92.65 -52.65 94.75 -54.05 98.8 -57.05 101.0 -51.55 103.05 -46.5 96.9 -35.15 100.8 -35.3 100.95 -33.7 101.85 -27.45 87.95 -24.1 86.3 -20.6 85.6 -21.7" fill="#95c7ff" fill-rule="evenodd" stroke="none"/>
  </g>
</svg>
