<?xml version="1.0" encoding="UTF-8" standalone="no"?>
<svg xmlns:xlink="http://www.w3.org/1999/xlink" height="417.3px" width="849.4px" xmlns="http://www.w3.org/2000/svg">
  <g transform="matrix(1.0, 0.0, 0.0, 1.0, 415.05, 223.75)">
    <path d="M421.3 -192.55 L421.35 -192.55 Q426.3 -192.55 429.8 -189.05 433.35 -185.5 433.35 -180.55 L433.35 180.55 Q433.35 185.5 429.8 189.0 426.3 192.55 421.35 192.55 L421.3 192.55 Q416.35 192.55 412.8 189.0 409.3 185.5 409.3 180.55 L409.3 -180.55 Q409.3 -185.5 412.8 -189.05 416.35 -192.55 421.3 -192.55" fill="url(#gradient0)" fill-rule="evenodd" stroke="none"/>
    <path d="M-402.05 -192.55 L-402.0 -192.55 Q-397.05 -192.55 -393.55 -189.05 -390.0 -185.5 -390.0 -180.55 L-390.0 180.55 Q-390.0 185.5 -393.55 189.0 -397.05 192.55 -402.0 192.55 L-402.05 192.55 Q-407.0 192.55 -410.55 189.0 -414.05 185.5 -414.05 180.55 L-414.05 -180.55 Q-414.05 -185.5 -410.55 -189.05 -407.0 -192.55 -402.05 -192.55" fill="url(#gradient1)" fill-rule="evenodd" stroke="none"/>
    <path d="M421.3 -192.55 L421.35 -192.55 Q426.3 -192.55 429.8 -189.05 433.35 -185.5 433.35 -180.55 L433.35 180.55 Q433.35 185.5 429.8 189.0 426.3 192.55 421.35 192.55 L421.3 192.55 Q416.35 192.55 412.8 189.0 409.3 185.5 409.3 180.55 L409.3 -180.55 Q409.3 -185.5 412.8 -189.05 416.35 -192.55 421.3 -192.55 M-402.05 -192.55 L-402.0 -192.55 Q-397.05 -192.55 -393.55 -189.05 -390.0 -185.5 -390.0 -180.55 L-390.0 180.55 Q-390.0 185.5 -393.55 189.0 -397.05 192.55 -402.0 192.55 L-402.05 192.55 Q-407.0 192.55 -410.55 189.0 -414.05 185.5 -414.05 180.55 L-414.05 -180.55 Q-414.05 -185.5 -410.55 -189.05 -407.0 -192.55 -402.05 -192.55" fill="none" stroke="#442f64" stroke-linecap="round" stroke-linejoin="round" stroke-width="2.0"/>
    <path d="M-372.5 -222.75 L391.95 -222.75 Q399.5 -222.75 404.85 -217.5 410.2 -212.2 410.2 -204.75 L410.2 -202.75 Q410.2 -195.3 404.85 -190.05 399.5 -184.75 391.95 -184.75 L-372.5 -184.75 Q-380.05 -184.75 -385.4 -190.05 -390.75 -195.3 -390.75 -202.75 L-390.75 -204.75 Q-390.75 -212.2 -385.4 -217.5 -380.05 -222.75 -372.5 -222.75" fill="url(#gradient2)" fill-rule="evenodd" stroke="none"/>
    <path d="M-372.5 -222.75 L391.95 -222.75 Q399.5 -222.75 404.85 -217.5 410.2 -212.2 410.2 -204.75 L410.2 -202.75 Q410.2 -195.3 404.85 -190.05 399.5 -184.75 391.95 -184.75 L-372.5 -184.75 Q-380.05 -184.75 -385.4 -190.05 -390.75 -195.3 -390.75 -202.75 L-390.75 -204.75 Q-390.75 -212.2 -385.4 -217.5 -380.05 -222.75 -372.5 -222.75 Z" fill="none" stroke="#442f64" stroke-linecap="round" stroke-linejoin="round" stroke-width="2.0"/>
    <path d="M417.75 -178.25 L413.4 -181.5 418.95 -181.7 419.25 -181.8 419.5 -182.05 421.35 -187.35 423.15 -182.15 423.3 -181.8 423.7 -181.7 429.25 -181.5 424.85 -178.25 424.7 -177.9 424.7 -177.55 426.25 -172.25 421.65 -175.4 421.3 -175.5 420.95 -175.4 416.4 -172.25 418.0 -177.55 418.0 -177.9 417.75 -178.25 M417.75 -118.75 L413.4 -122.0 418.95 -122.2 419.25 -122.3 419.5 -122.55 421.35 -127.85 423.15 -122.65 423.3 -122.3 423.7 -122.2 429.25 -122.0 424.85 -118.75 424.7 -118.4 424.7 -118.05 426.25 -112.75 421.65 -115.9 421.3 -116.0 420.95 -115.9 416.4 -112.75 418.0 -118.05 418.0 -118.4 417.75 -118.75 M417.75 -59.25 L413.4 -62.5 418.95 -62.7 419.25 -62.8 419.5 -63.05 421.35 -68.35 423.15 -63.15 423.3 -62.8 423.7 -62.7 429.25 -62.5 424.85 -59.25 424.7 -58.9 424.7 -58.55 426.25 -53.25 421.65 -56.4 421.3 -56.5 420.95 -56.4 416.4 -53.25 418.0 -58.55 418.0 -58.9 417.75 -59.25 M417.75 0.25 L413.4 -3.0 418.95 -3.2 419.25 -3.3 419.5 -3.55 421.35 -8.85 423.15 -3.65 423.3 -3.3 423.7 -3.2 429.25 -3.0 424.85 0.25 424.7 0.6 424.7 0.95 426.25 6.25 421.65 3.1 421.3 3.0 420.95 3.1 416.4 6.25 418.0 0.95 418.0 0.6 417.75 0.25 M417.75 59.75 L413.4 56.5 418.95 56.3 419.25 56.2 419.5 55.95 421.35 50.65 423.15 55.85 423.3 56.2 423.7 56.3 429.25 56.5 424.85 59.75 424.7 60.1 424.7 60.45 426.25 65.75 421.65 62.6 421.3 62.5 420.95 62.6 416.4 65.75 418.0 60.45 418.0 60.1 417.75 59.75 M417.75 119.25 L413.4 116.0 418.95 115.8 419.25 115.7 419.5 115.45 421.35 110.15 423.15 115.35 423.3 115.7 423.7 115.8 429.25 116.0 424.85 119.25 424.7 119.6 424.7 119.95 426.25 125.25 421.65 122.1 421.3 122.0 420.95 122.1 416.4 125.25 418.0 119.95 418.0 119.6 417.75 119.25 M417.75 178.75 L413.4 175.5 418.95 175.3 419.25 175.2 419.5 174.95 421.35 169.65 423.15 174.85 423.3 175.2 423.7 175.3 429.25 175.5 424.85 178.75 424.7 179.1 424.7 179.45 426.25 184.75 421.65 181.6 421.3 181.5 420.95 181.6 416.4 184.75 418.0 179.45 418.0 179.1 417.75 178.75 M-405.5 -178.25 L-409.85 -181.5 -404.3 -181.7 -404.0 -181.8 -403.75 -182.05 -401.9 -187.35 -400.1 -182.15 -399.95 -181.8 -399.55 -181.7 -394.0 -181.5 -398.4 -178.25 -398.55 -177.9 -398.55 -177.55 -397.0 -172.25 -401.6 -175.4 -401.95 -175.5 -402.3 -175.4 -406.85 -172.25 -405.25 -177.55 -405.25 -177.9 -405.5 -178.25 M-405.5 -118.75 L-409.85 -122.0 -404.3 -122.2 -404.0 -122.3 -403.75 -122.55 -401.9 -127.85 -400.1 -122.65 -399.95 -122.3 -399.55 -122.2 -394.0 -122.0 -398.4 -118.75 -398.55 -118.4 -398.55 -118.05 -397.0 -112.75 -401.6 -115.9 -401.95 -116.0 -402.3 -115.9 -406.85 -112.75 -405.25 -118.05 -405.25 -118.4 -405.5 -118.75 M-405.5 -59.25 L-409.85 -62.5 -404.3 -62.7 -404.0 -62.8 -403.75 -63.05 -401.9 -68.35 -400.1 -63.15 -399.95 -62.8 -399.55 -62.7 -394.0 -62.5 -398.4 -59.25 -398.55 -58.9 -398.55 -58.55 -397.0 -53.25 -401.6 -56.4 -401.95 -56.5 -402.3 -56.4 -406.85 -53.25 -405.25 -58.55 -405.25 -58.9 -405.5 -59.25 M-405.5 0.25 L-409.85 -3.0 -404.3 -3.2 -404.0 -3.3 -403.75 -3.55 -401.9 -8.85 -400.1 -3.65 -399.95 -3.3 -399.55 -3.2 -394.0 -3.0 -398.4 0.25 -398.55 0.6 -398.55 0.95 -397.0 6.25 -401.6 3.1 -401.95 3.0 -402.3 3.1 -406.85 6.25 -405.25 0.95 -405.25 0.6 -405.5 0.25 M-405.5 59.75 L-409.85 56.5 -404.3 56.3 -404.0 56.2 -403.75 55.95 -401.9 50.65 -400.1 55.85 -399.95 56.2 -399.55 56.3 -394.0 56.5 -398.4 59.75 -398.55 60.1 -398.55 60.45 -397.0 65.75 -401.6 62.6 -401.95 62.5 -402.3 62.6 -406.85 65.75 -405.25 60.45 -405.25 60.1 -405.5 59.75 M-405.5 119.25 L-409.85 116.0 -404.3 115.8 -404.0 115.7 -403.75 115.45 -401.9 110.15 -400.1 115.35 -399.95 115.7 -399.55 115.8 -394.0 116.0 -398.4 119.25 -398.55 119.6 -398.55 119.95 -397.0 125.25 -401.6 122.1 -401.95 122.0 -402.3 122.1 -406.85 125.25 -405.25 119.95 -405.25 119.6 -405.5 119.25 M-405.5 178.75 L-409.85 175.5 -404.3 175.3 -404.0 175.2 -403.75 174.95 -401.9 169.65 -400.1 174.85 -399.95 175.2 -399.55 175.3 -394.0 175.5 -398.4 178.75 -398.55 179.1 -398.55 179.45 -397.0 184.75 -401.6 181.6 -401.95 181.5 -402.3 181.6 -406.85 184.75 -405.25 179.45 -405.25 179.1 -405.5 178.75" fill="#68489a" fill-opacity="0.7176471" fill-rule="evenodd" stroke="none"/>
  </g>
  <defs>
    <linearGradient gradientTransform="matrix(0.0, -0.2269, 0.0147, 0.0, 421.3, 0.05)" gradientUnits="userSpaceOnUse" id="gradient0" spreadMethod="pad" x1="-819.2" x2="819.2">
      <stop offset="0.0" stop-color="#ffedb1"/>
      <stop offset="0.5372549019607843" stop-color="#a6d5ff"/>
      <stop offset="1.0" stop-color="#ffafec"/>
    </linearGradient>
    <linearGradient gradientTransform="matrix(0.0, -0.2275, 0.0147, 0.0, -402.05, -0.45)" gradientUnits="userSpaceOnUse" id="gradient1" spreadMethod="pad" x1="-819.2" x2="819.2">
      <stop offset="0.0" stop-color="#ffedb1"/>
      <stop offset="0.5372549019607843" stop-color="#a6d5ff"/>
      <stop offset="1.0" stop-color="#ffafec"/>
    </linearGradient>
    <linearGradient gradientTransform="matrix(0.4724, 0.0, 0.0, 0.0232, 11.7, -203.75)" gradientUnits="userSpaceOnUse" id="gradient2" spreadMethod="pad" x1="-819.2" x2="819.2">
      <stop offset="0.0" stop-color="#ffedb1"/>
      <stop offset="0.5372549019607843" stop-color="#a6d5ff"/>
      <stop offset="1.0" stop-color="#ffafec"/>
    </linearGradient>
  </defs>
</svg>
