<?xml version="1.0" encoding="UTF-8" standalone="no"?>
<svg xmlns:xlink="http://www.w3.org/1999/xlink" height="45.1px" width="45.1px" xmlns="http://www.w3.org/2000/svg">
  <g transform="matrix(1.0, 0.0, 0.0, 1.0, 22.55, 22.55)">
    <path d="M21.55 0.0 Q21.55 8.9 15.2 15.2 8.9 21.55 0.0 21.55 -8.9 21.55 -15.25 15.2 -21.55 8.9 -21.55 0.0 -16.4 7.45 0.65 7.85 17.6 8.25 21.55 0.0" fill="#db8cb3" fill-rule="evenodd" stroke="none"/>
    <path d="M-21.55 0.0 Q-21.55 -8.9 -15.25 -15.25 -8.9 -21.55 0.0 -21.55 8.9 -21.55 15.2 -15.25 21.55 -8.9 21.55 0.0 17.6 8.25 0.65 7.85 -16.4 7.45 -21.55 0.0" fill="#ffe7f4" fill-rule="evenodd" stroke="none"/>
    <path d="M-21.55 0.0 Q-21.55 -8.9 -15.25 -15.25 -8.9 -21.55 0.0 -21.55 8.9 -21.55 15.2 -15.25 21.55 -8.9 21.55 0.0 21.55 8.9 15.2 15.2 8.9 21.55 0.0 21.55 -8.9 21.55 -15.25 15.2 -21.55 8.9 -21.55 0.0 -16.4 7.45 0.65 7.85 17.6 8.25 21.55 0.0" fill="none" stroke="#4d223c" stroke-linecap="round" stroke-linejoin="round" stroke-width="2.0"/>
    <path d="M-4.25 -2.35 L-8.85 -6.45 -2.5 -6.15 -2.15 -6.3 -1.85 -6.5 0.75 -12.35 2.35 -6.3 2.45 -5.9 2.9 -5.75 9.2 -4.95 3.9 -1.7 3.7 -1.3 3.65 -0.9 4.9 5.25 0.0 1.25 -0.4 1.15 -0.8 1.2 -6.3 4.3 -4.0 -1.55 -3.95 -1.95 -4.25 -2.35" fill="#bd6490" fill-opacity="0.7176471" fill-rule="evenodd" stroke="none"/>
  </g>
</svg>
