<?xml version="1.0" encoding="UTF-8" standalone="no"?>
<svg xmlns:xlink="http://www.w3.org/1999/xlink" height="45.1px" width="45.1px" xmlns="http://www.w3.org/2000/svg">
  <g transform="matrix(1.0, 0.0, 0.0, 1.0, 22.55, 22.55)">
    <path d="M-21.55 0.0 Q-21.55 -8.9 -15.25 -15.25 -8.9 -21.55 0.0 -21.55 8.9 -21.55 15.2 -15.25 21.55 -8.9 21.55 0.0 17.6 8.25 0.65 7.85 -16.4 7.45 -21.55 0.0" fill="url(#gradient0)" fill-rule="evenodd" stroke="none"/>
    <path d="M21.55 0.0 Q21.55 8.9 15.2 15.2 8.9 21.55 0.0 21.55 -8.9 21.55 -15.25 15.2 -21.55 8.9 -21.55 0.0 -16.4 7.45 0.65 7.85 17.6 8.25 21.55 0.0" fill="url(#gradient1)" fill-rule="evenodd" stroke="none"/>
    <path d="M-21.55 0.0 Q-21.55 -8.9 -15.25 -15.25 -8.9 -21.55 0.0 -21.55 8.9 -21.55 15.2 -15.25 21.55 -8.9 21.55 0.0 21.55 8.9 15.2 15.2 8.9 21.55 0.0 21.55 -8.9 21.55 -15.25 15.2 -21.55 8.9 -21.55 0.0 -16.4 7.45 0.65 7.85 17.6 8.25 21.55 0.0" fill="none" stroke="#39254d" stroke-linecap="round" stroke-linejoin="round" stroke-width="2.0"/>
    <path d="M-4.25 -2.35 L-8.85 -6.45 -2.5 -6.15 -2.15 -6.3 -1.85 -6.5 0.75 -12.35 2.35 -6.3 2.45 -5.9 2.9 -5.75 9.2 -4.95 3.9 -1.7 3.7 -1.3 3.65 -0.9 4.9 5.25 0.0 1.25 -0.4 1.15 -0.8 1.2 -6.3 4.3 -4.0 -1.55 -3.95 -1.95 -4.25 -2.35" fill="#9186e2" fill-opacity="0.7176471" fill-rule="evenodd" stroke="none"/>
  </g>
  <defs>
    <linearGradient gradientTransform="matrix(0.0115, 0.0184, -0.0206, 0.0129, 0.8, -1.75)" gradientUnits="userSpaceOnUse" id="gradient0" spreadMethod="pad" x1="-819.2" x2="819.2">
      <stop offset="0.0" stop-color="#fff0e2"/>
      <stop offset="0.5294117647058824" stop-color="#d7f2ff"/>
      <stop offset="1.0" stop-color="#ffd9ea"/>
    </linearGradient>
    <linearGradient gradientTransform="matrix(0.0219, 0.0136, -0.0106, 0.0171, 2.45, 7.5)" gradientUnits="userSpaceOnUse" id="gradient1" spreadMethod="pad" x1="-819.2" x2="819.2">
      <stop offset="0.0" stop-color="#f0e6a0"/>
      <stop offset="0.4980392156862745" stop-color="#a5c4e5"/>
      <stop offset="1.0" stop-color="#e792c5"/>
    </linearGradient>
  </defs>
</svg>
