<?xml version="1.0" encoding="UTF-8" standalone="no"?>
<svg xmlns:xlink="http://www.w3.org/1999/xlink" height="575.8px" width="606.05px" xmlns="http://www.w3.org/2000/svg">
  <g transform="matrix(1.0, 0.0, 0.0, 1.0, -112.7, 38.6)">
    <path d="M417.65 -38.1 L718.25 -38.1 718.25 536.7 417.65 536.7 417.65 -38.1 M413.15 536.7 L113.2 536.7 113.2 -38.1 413.15 -38.1 413.15 536.7" fill="#29273c" fill-rule="evenodd" stroke="none"/>
    <path d="M413.15 -38.1 L417.65 -38.1 417.65 536.7 413.15 536.7 413.15 -38.1" fill="url(#gradient0)" fill-rule="evenodd" stroke="none"/>
    <path d="M413.15 -38.1 L417.65 -38.1 718.25 -38.1 718.25 536.7 417.65 536.7 413.15 536.7 113.2 536.7 113.2 -38.1 413.15 -38.1 Z" fill="none" stroke="#000000" stroke-linecap="round" stroke-linejoin="round" stroke-width="1.0"/>
    <path d="M215.4 -34.2 L309.85 -34.2 309.85 533.75 215.4 533.75 215.4 -34.2" fill="url(#gradient1)" fill-rule="evenodd" stroke="none"/>
    <path d="M116.95 -34.2 L211.4 -34.2 211.4 533.75 116.95 533.75 116.95 -34.2" fill="url(#gradient2)" fill-rule="evenodd" stroke="none"/>
    <path d="M521.2 -34.2 L615.65 -34.2 615.65 533.75 521.2 533.75 521.2 -34.2" fill="url(#gradient3)" fill-rule="evenodd" stroke="none"/>
    <path d="M422.75 -34.2 L517.2 -34.2 517.2 533.75 422.75 533.75 422.75 -34.2" fill="url(#gradient4)" fill-rule="evenodd" stroke="none"/>
    <path d="M314.0 -34.2 L408.45 -34.2 408.45 533.75 314.0 533.75 314.0 -34.2" fill="url(#gradient5)" fill-rule="evenodd" stroke="none"/>
    <path d="M619.8 -34.2 L714.25 -34.2 714.25 533.75 619.8 533.75 619.8 -34.2" fill="url(#gradient6)" fill-rule="evenodd" stroke="none"/>
  </g>
  <defs>
    <linearGradient gradientTransform="matrix(0.0, 0.3489, -0.0027, 0.0, 415.4, 253.35)" gradientUnits="userSpaceOnUse" id="gradient0" spreadMethod="pad" x1="-819.2" x2="819.2">
      <stop offset="0.0" stop-color="#6b628a"/>
      <stop offset="1.0" stop-color="#433b6b"/>
    </linearGradient>
    <linearGradient gradientTransform="matrix(0.0, 0.35, -0.3646, 0.0, 415.6, 260.55)" gradientUnits="userSpaceOnUse" id="gradient1" spreadMethod="pad" x1="-819.2" x2="819.2">
      <stop offset="0.0" stop-color="#513142"/>
      <stop offset="1.0" stop-color="#937289"/>
    </linearGradient>
    <linearGradient gradientTransform="matrix(0.0, 0.35, -0.3646, 0.0, 415.6, 260.55)" gradientUnits="userSpaceOnUse" id="gradient2" spreadMethod="pad" x1="-819.2" x2="819.2">
      <stop offset="0.0" stop-color="#34513d"/>
      <stop offset="0.0" stop-color="#2d5140"/>
      <stop offset="1.0" stop-color="#719093"/>
    </linearGradient>
    <linearGradient gradientTransform="matrix(0.0, 0.35, -0.3646, 0.0, 415.6, 260.55)" gradientUnits="userSpaceOnUse" id="gradient3" spreadMethod="pad" x1="-819.2" x2="819.2">
      <stop offset="0.0" stop-color="#314451"/>
      <stop offset="1.0" stop-color="#617e93"/>
    </linearGradient>
    <linearGradient gradientTransform="matrix(0.0, 0.35, -0.3646, 0.0, 415.6, 260.55)" gradientUnits="userSpaceOnUse" id="gradient4" spreadMethod="pad" x1="-819.2" x2="819.2">
      <stop offset="0.011764705882352941" stop-color="#513b48"/>
      <stop offset="1.0" stop-color="#938092"/>
    </linearGradient>
    <linearGradient gradientTransform="matrix(0.0, 0.35, -0.3646, 0.0, 415.6, 260.55)" gradientUnits="userSpaceOnUse" id="gradient5" spreadMethod="pad" x1="-819.2" x2="819.2">
      <stop offset="0.0" stop-color="#403f51"/>
      <stop offset="1.0" stop-color="#7d8193"/>
    </linearGradient>
    <linearGradient gradientTransform="matrix(0.0, 0.35, -0.3646, 0.0, 415.6, 260.55)" gradientUnits="userSpaceOnUse" id="gradient6" spreadMethod="pad" x1="-819.2" x2="819.2">
      <stop offset="0.011764705882352941" stop-color="#514d3b"/>
      <stop offset="1.0" stop-color="#938b79"/>
    </linearGradient>
  </defs>
</svg>
