<?xml version="1.0" encoding="UTF-8" standalone="no"?>
<svg xmlns:xlink="http://www.w3.org/1999/xlink" height="585.85px" width="1007.9px" xmlns="http://www.w3.org/2000/svg">
  <g transform="matrix(1.0, 0.0, 0.0, 1.0, 84.95, 40.95)">
    <path d="M919.95 104.05 L919.95 542.9 -82.95 542.9 -82.95 102.25 -72.95 102.25 -72.95 104.05 Q21.8 71.1 208.2 104.25 275.55 115.0 348.0 104.75 467.95 80.65 570.0 104.35 639.1 119.0 735.05 104.3 831.75 90.05 919.95 104.05" fill="#68e5aa" fill-rule="evenodd" stroke="none"/>
    <path d="M-72.95 102.25 L-72.95 -38.95 920.95 -38.95 920.95 104.05 919.95 104.05 Q831.75 90.05 735.05 104.3 639.1 119.0 570.0 104.35 467.95 80.65 348.0 104.75 275.55 115.0 208.2 104.25 21.8 71.1 -72.95 104.05 L-72.95 102.25" fill="#d4efff" fill-rule="evenodd" stroke="none"/>
    <path d="M-72.95 102.25 L-72.95 -38.95 920.95 -38.95 920.95 104.05 919.95 104.05 919.95 542.9 -82.95 542.9 -82.95 102.25 -72.95 102.25 -72.95 104.05 Q21.8 71.1 208.2 104.25 275.55 115.0 348.0 104.75 467.95 80.65 570.0 104.35 639.1 119.0 735.05 104.3 831.75 90.05 919.95 104.05" fill="none" stroke="#195254" stroke-linecap="round" stroke-linejoin="round" stroke-width="4.0"/>
  </g>
</svg>
