<?xml version="1.0" encoding="UTF-8" standalone="no"?>
<svg xmlns:xlink="http://www.w3.org/1999/xlink" height="48.7px" width="93.15px" xmlns="http://www.w3.org/2000/svg">
  <g transform="matrix(1.0, 0.0, 0.0, 1.0, 46.65, 24.35)">
    <path d="M-35.2 -21.85 L35.05 -21.85 Q44.0 -21.85 44.0 -12.9 L44.0 12.9 Q44.0 21.85 35.05 21.85 L-35.2 21.85 Q-44.15 21.85 -44.15 12.9 L-44.15 -12.9 Q-44.15 -21.85 -35.2 -21.85 Z" fill="none" stroke="#e0e4f7" stroke-linecap="round" stroke-linejoin="round" stroke-opacity="0.3372549" stroke-width="5.0"/>
    <path d="M9.9 -2.0 L44.0 -2.0 44.0 1.75 9.95 1.75 10.1 0.0 9.9 -2.0 M-10.35 -2.0 L-10.55 0.0 -10.4 1.75 -44.15 1.75 -44.15 -2.0 -10.35 -2.0" fill="#e9f5ff" fill-rule="evenodd" stroke="none"/>
    <path d="M44.0 -2.95 L9.65 -3.1 Q8.9 -5.4 7.0 -7.3 4.05 -10.4 -0.3 -10.4 -4.55 -10.4 -7.6 -7.3 -9.4 -5.45 -10.05 -3.15 L-44.15 -2.95 -44.15 -12.9 Q-44.15 -21.85 -35.2 -21.85 L35.05 -21.85 Q44.0 -21.85 44.0 -12.9 L44.0 -2.95 M-10.2 2.75 Q-9.55 5.25 -7.6 7.3 -4.55 10.4 -0.3 10.4 4.05 10.4 7.0 7.3 9.05 5.25 9.75 2.75 L44.0 2.75 44.0 12.9 Q44.0 21.85 35.05 21.85 L-35.2 21.85 Q-44.15 21.85 -44.15 12.9 L-44.15 2.75 -10.2 2.75" fill="url(#gradient0)" fill-rule="evenodd" stroke="none"/>
    <path d="M9.9 -2.0 L9.65 -3.1 44.0 -2.95 44.0 -2.0 9.9 -2.0 M-10.05 -3.15 L-10.35 -2.0 -44.15 -2.0 -44.15 -2.95 -10.05 -3.15 M-10.4 1.75 L-10.2 2.75 -44.15 2.75 -44.15 1.75 -10.4 1.75 M9.75 2.75 L9.95 1.75 44.0 1.75 44.0 2.75 9.75 2.75" fill="#a7acc9" fill-rule="evenodd" stroke="none"/>
    <path d="M9.55 0.0 Q9.55 -4.0 6.65 -6.9 3.85 -9.85 -0.3 -9.85 -4.3 -9.85 -7.2 -6.9 -10.0 -4.0 -10.0 0.0 -10.0 4.0 -7.2 6.9 -4.3 9.85 -0.3 9.85 3.85 9.85 6.65 6.9 9.55 4.0 9.55 0.0 M13.3 0.0 Q13.3 5.55 9.3 9.5 5.4 13.45 -0.15 13.45 -5.7 13.45 -9.7 9.5 -13.65 5.55 -13.65 0.0 -13.65 -5.55 -9.7 -9.55 -5.7 -13.45 -0.15 -13.45 5.4 -13.45 9.3 -9.55 13.3 -5.55 13.3 0.0" fill="#e9f5ff" fill-rule="evenodd" stroke="none"/>
    <path d="M9.55 0.0 Q9.55 4.0 6.65 6.9 3.85 9.85 -0.3 9.85 -4.3 9.85 -7.2 6.9 -10.0 4.0 -10.0 0.0 -10.0 -4.0 -7.2 -6.9 -4.3 -9.85 -0.3 -9.85 3.85 -9.85 6.65 -6.9 9.55 -4.0 9.55 0.0" fill="#b7c1e0" fill-opacity="0.827451" fill-rule="evenodd" stroke="none"/>
    <path d="M13.3 0.0 Q13.3 5.55 9.3 9.5 5.4 13.45 -0.15 13.45 -5.7 13.45 -9.7 9.5 -13.65 5.55 -13.65 0.0 -13.65 -5.55 -9.7 -9.55 -5.7 -13.45 -0.15 -13.45 5.4 -13.45 9.3 -9.55 13.3 -5.55 13.3 0.0" fill="none" stroke="#a7acc9" stroke-linecap="round" stroke-linejoin="round" stroke-opacity="0.3372549" stroke-width="2.0"/>
    <path d="M9.55 0.0 Q9.55 4.0 6.65 6.9 3.85 9.85 -0.3 9.85 -4.3 9.85 -7.2 6.9 -10.0 4.0 -10.0 0.0 -10.0 -4.0 -7.2 -6.9 -4.3 -9.85 -0.3 -9.85 3.85 -9.85 6.65 -6.9 9.55 -4.0 9.55 0.0" fill="none" stroke="#a7acc9" stroke-linecap="round" stroke-linejoin="round" stroke-opacity="0.3372549" stroke-width="1.0"/>
    <path d="M-0.2 -7.65 L1.7 -2.2 7.5 -2.05 2.9 1.45 4.55 7.0 -0.2 3.7 -5.0 7.0 -3.35 1.45 -7.95 -2.05 -2.15 -2.2 -0.2 -7.65" fill="#e5edff" fill-opacity="0.827451" fill-rule="evenodd" stroke="none"/>
    <path d="M35.05 -19.45 L-35.2 -19.45 Q-41.75 -19.45 -41.75 -12.9 L-41.75 12.9 Q-41.75 19.45 -35.2 19.45 L35.05 19.45 Q41.6 19.45 41.6 12.9 L41.6 -12.9 Q41.6 -19.45 35.05 -19.45 M-35.2 -21.85 L35.05 -21.85 Q44.0 -21.85 44.0 -12.9 L44.0 12.9 Q44.0 21.85 35.05 21.85 L-35.2 21.85 Q-44.15 21.85 -44.15 12.9 L-44.15 -12.9 Q-44.15 -21.85 -35.2 -21.85" fill="#4b4e5b" fill-opacity="0.35686275" fill-rule="evenodd" stroke="none"/>
    <path d="M-35.2 -21.85 L35.05 -21.85 Q44.0 -21.85 44.0 -12.9 L44.0 12.9 Q44.0 21.85 35.05 21.85 L-35.2 21.85 Q-44.15 21.85 -44.15 12.9 L-44.15 -12.9 Q-44.15 -21.85 -35.2 -21.85 Z" fill="none" stroke="#424056" stroke-linecap="round" stroke-linejoin="round" stroke-opacity="0.8392157" stroke-width="1.0"/>
  </g>
  <defs>
    <linearGradient gradientTransform="matrix(0.0, 0.0213, -0.0538, 0.0, -0.05, -0.25)" gradientUnits="userSpaceOnUse" id="gradient0" spreadMethod="pad" x1="-819.2" x2="819.2">
      <stop offset="0.0" stop-color="#a7aec4"/>
      <stop offset="0.9215686274509803" stop-color="#c1c8d7"/>
    </linearGradient>
  </defs>
</svg>
