<?xml version="1.0" encoding="UTF-8" standalone="no"?>
<svg xmlns:xlink="http://www.w3.org/1999/xlink" height="33.2px" width="144.2px" xmlns="http://www.w3.org/2000/svg">
  <g transform="matrix(1.0, 0.0, 0.0, 1.0, 73.55, 17.85)">
    <path d="M65.95 4.2 Q61.1 7.85 48.1 10.8 27.55 15.35 -1.5 15.35 -30.5 15.35 -51.0 10.8 -64.15 7.85 -68.85 4.2 -64.15 0.5 -51.0 -2.4 -30.5 -6.95 -1.5 -6.95 27.55 -6.95 48.1 -2.4 61.1 0.5 65.95 4.2" fill="#704c3b" fill-rule="evenodd" stroke="none"/>
    <path d="M-68.85 4.2 Q-71.55 2.1 -71.55 -0.25 -71.55 -6.7 -51.0 -11.3 -30.5 -15.85 -1.5 -15.85 27.55 -15.85 48.1 -11.3 68.65 -6.7 68.65 -0.25 68.65 2.1 65.95 4.2 61.1 0.5 48.1 -2.4 27.55 -6.95 -1.5 -6.95 -30.5 -6.95 -51.0 -2.4 -64.15 0.5 -68.85 4.2" fill="#a36f56" fill-rule="evenodd" stroke="none"/>
    <path d="M-68.85 4.2 Q-71.55 2.1 -71.55 -0.25 -71.55 -6.7 -51.0 -11.3 -30.5 -15.85 -1.5 -15.85 27.55 -15.85 48.1 -11.3 68.65 -6.7 68.65 -0.25 68.65 2.1 65.95 4.2" fill="none" stroke="#46281c" stroke-linecap="round" stroke-linejoin="round" stroke-width="4.0"/>
  </g>
</svg>
