<?xml version="1.0" encoding="UTF-8" standalone="no"?>
<svg xmlns:xlink="http://www.w3.org/1999/xlink" height="171.25px" width="196.45px" xmlns="http://www.w3.org/2000/svg">
  <g transform="matrix(1.0, 0.0, 0.0, 1.0, 99.75, 20.95)">
    <path d="M68.95 -0.7 L96.7 -0.7 96.7 150.3 -99.75 150.3 -99.75 -0.7 -74.6 -0.7 -68.85 4.2 Q-64.15 7.85 -51.0 10.8 -30.5 15.35 -1.5 15.35 27.55 15.35 48.1 10.8 61.1 7.85 65.95 4.2 L68.95 -0.7" fill="#68e5aa" fill-rule="evenodd" stroke="none"/>
    <path d="M-74.6 -0.7 L-68.85 4.2 Q-64.15 7.85 -51.0 10.8 -30.5 15.35 -1.5 15.35 27.55 15.35 48.1 10.8 61.1 7.85 65.95 4.2 L68.95 -0.7" fill="none" stroke="#46281c" stroke-linecap="round" stroke-linejoin="round" stroke-width="4.0"/>
    <path d="M-82.95 4.95 Q-83.45 0.5 -92.45 -13.2 -82.2 -9.6 -78.2 -1.85 -75.5 -10.25 -66.75 -15.4 -72.4 -4.35 -68.7 9.0 L-82.95 4.95 M80.15 6.5 L59.35 12.95 Q60.25 9.05 61.85 -4.3 L68.1 2.2 Q73.4 -1.45 75.45 -18.95 81.45 -6.2 80.15 6.5" fill="#68e5aa" fill-rule="evenodd" stroke="none"/>
    <path d="M-82.95 4.95 Q-83.45 0.5 -92.45 -13.2 -82.2 -9.6 -78.2 -1.85 -75.5 -10.25 -66.75 -15.4 -72.4 -4.35 -68.7 9.0 M80.15 6.5 Q81.45 -6.2 75.45 -18.95 73.4 -1.45 68.1 2.2 L61.85 -4.3 Q60.25 9.05 59.35 12.95" fill="none" stroke="#246260" stroke-linecap="round" stroke-linejoin="round" stroke-width="4.0"/>
  </g>
</svg>
