<?xml version="1.0" encoding="UTF-8" standalone="no"?>
<svg xmlns:xlink="http://www.w3.org/1999/xlink" height="42.0px" width="24.2px" xmlns="http://www.w3.org/2000/svg">
  <g transform="matrix(1.0, 0.0, 0.0, 1.0, 11.75, 22.1)">
    <path d="M10.45 -11.9 L11.45 -10.95 Q10.65 -6.45 8.3 -3.85 L8.25 -3.9 3.65 -7.05 Q6.4 -8.25 7.65 -9.0 L9.25 -10.1 10.45 -11.9" fill="#000000" fill-opacity="0.32941177" fill-rule="evenodd" stroke="none"/>
    <path d="M8.25 -3.9 L6.05 2.55 1.85 14.0 Q-1.55 20.8 -6.45 18.2 -9.85 16.4 -10.75 12.4 -8.85 4.55 -4.4 -5.9 L-8.2 -6.05 -6.8 -10.5 -5.55 -11.3 Q-5.15 -16.55 0.45 -20.8 2.95 -21.4 5.75 -20.8 L10.25 -21.1 Q11.65 -17.25 11.2 -14.25 L10.45 -11.9 11.45 -10.95 Q10.65 -6.45 8.3 -3.85 L8.25 -3.9 3.65 -7.05 Q0.15 -5.95 -4.4 -5.9 M-6.8 -10.5 Q-4.55 -10.25 -2.35 -10.55 0.7 -10.95 3.75 -12.45 7.5 -15.05 7.85 -18.25 L7.75 -20.2 5.75 -20.8 M10.45 -11.9 L9.25 -10.1 7.65 -9.0 Q6.4 -8.25 3.65 -7.05" fill="none" stroke="#000000" stroke-linecap="round" stroke-linejoin="round" stroke-width="2.0"/>
  </g>
</svg>
