<?xml version="1.0" encoding="UTF-8" standalone="no"?>
<svg xmlns:xlink="http://www.w3.org/1999/xlink" height="54.25px" width="219.75px" xmlns="http://www.w3.org/2000/svg">
  <g transform="matrix(1.0, 0.0, 0.0, 1.0, 116.05, 25.15)">
    <path d="M-105.85 -24.65 L93.6 -24.65 Q103.2 -24.65 103.2 -15.0 L103.2 -2.1 Q103.2 7.55 93.6 7.55 L-105.85 7.55 Q-115.55 7.55 -115.55 -2.1 L-115.55 -15.0 Q-115.55 -24.65 -105.85 -24.65" fill="url(#gradient0)" fill-rule="evenodd" stroke="none"/>
    <path d="M94.55 7.8 L94.55 19.9 Q93.5 27.95 85.15 28.6 L27.95 28.6 Q19.55 27.95 18.55 19.9 L18.55 7.8 94.55 7.8" fill="url(#gradient1)" fill-rule="evenodd" stroke="none"/>
    <path d="M18.55 7.8 L18.55 19.9 Q19.55 27.95 27.95 28.6 L85.15 28.6 Q93.5 27.95 94.55 19.9 L94.55 7.8" fill="none" stroke="#000000" stroke-linecap="round" stroke-linejoin="round" stroke-opacity="0.24705882" stroke-width="1.0"/>
    <path d="M-105.85 -24.65 L93.6 -24.65 Q103.2 -24.65 103.2 -15.0 L103.2 -2.1 Q103.2 7.55 93.6 7.55 L-105.85 7.55 Q-115.55 7.55 -115.55 -2.1 L-115.55 -15.0 Q-115.55 -24.65 -105.85 -24.65" fill="none" stroke="#1a2954" stroke-linecap="round" stroke-linejoin="round" stroke-opacity="0.44705883" stroke-width="1.0"/>
    <path d="M80.2 15.0 L85.55 18.55 80.2 22.55 80.2 15.0" fill="#d6e1fe" fill-opacity="0.69803923" fill-rule="evenodd" stroke="none"/>
  </g>
  <defs>
    <linearGradient gradientTransform="matrix(0.0, 0.018, -0.1335, 0.0, -6.0, -6.35)" gradientUnits="userSpaceOnUse" id="gradient0" spreadMethod="pad" x1="-819.2" x2="819.2">
      <stop offset="0.0" stop-color="#cdd2ff" stop-opacity="0.9490196"/>
      <stop offset="1.0" stop-color="#d4e6ff" stop-opacity="0.9490196"/>
    </linearGradient>
    <linearGradient gradientTransform="matrix(0.0, 0.0122, -0.0463, 0.0, 56.4, 18.65)" gradientUnits="userSpaceOnUse" id="gradient1" spreadMethod="pad" x1="-819.2" x2="819.2">
      <stop offset="0.0" stop-color="#59588c" stop-opacity="0.9490196"/>
      <stop offset="1.0" stop-color="#616ea1" stop-opacity="0.9490196"/>
    </linearGradient>
  </defs>
</svg>
