<?xml version="1.0" encoding="UTF-8" standalone="no"?>
<svg xmlns:xlink="http://www.w3.org/1999/xlink" height="83.75px" width="336.0px" xmlns="http://www.w3.org/2000/svg">
  <g transform="matrix(1.0, 0.0, 0.0, 1.0, 167.75, 50.55)">
    <path d="M-152.3 -50.05 L152.8 -50.05 Q167.75 -50.05 167.75 -35.1 L167.75 17.75 Q167.75 32.7 152.8 32.7 L-152.3 32.7 Q-160.55 32.7 -164.25 28.15 -167.25 24.45 -167.25 17.75 L-167.25 -35.1 Q-167.25 -50.05 -152.3 -50.05" fill="url(#gradient0)" fill-rule="evenodd" stroke="none"/>
    <path d="M-152.3 -50.05 L152.8 -50.05 Q167.75 -50.05 167.75 -35.1 L167.75 17.75 Q167.75 32.7 152.8 32.7 L-152.3 32.7 Q-160.55 32.7 -164.25 28.15 -167.25 24.45 -167.25 17.75 L-167.25 -35.1 Q-167.25 -50.05 -152.3 -50.05 Z" fill="none" stroke="#ffffff" stroke-linecap="round" stroke-linejoin="round" stroke-opacity="0.7490196" stroke-width="1.0"/>
    <path d="M-63.8 -5.7 L27.85 -5.7 Q32.8 -5.7 36.3 -2.2 39.85 1.35 39.85 6.3 L39.85 15.8 Q39.85 20.75 36.3 24.25 32.8 27.8 27.85 27.8 L-63.8 27.8 Q-68.75 27.8 -72.3 24.25 -75.8 20.75 -75.8 15.8 L-75.8 6.3 Q-75.8 1.35 -72.3 -2.2 -68.75 -5.7 -63.8 -5.7 M53.6 -5.7 L152.15 -5.7 Q157.1 -5.7 160.6 -2.2 164.15 1.35 164.15 6.3 L164.15 15.8 Q164.15 20.75 160.6 24.25 157.1 27.8 152.15 27.8 L53.6 27.8 Q48.65 27.8 45.1 24.25 41.6 20.75 41.6 15.8 L41.6 6.3 Q41.6 1.35 45.1 -2.2 48.65 -5.7 53.6 -5.7 M-150.4 -5.7 L-89.65 -5.7 Q-84.7 -5.7 -81.2 -2.2 -77.65 1.35 -77.65 6.3 L-77.65 15.8 Q-77.65 20.75 -81.2 24.25 -84.7 27.8 -89.65 27.8 L-150.4 27.8 Q-155.35 27.8 -158.9 24.25 -162.4 20.75 -162.4 15.8 L-162.4 6.3 Q-162.4 1.35 -158.9 -2.2 -155.35 -5.7 -150.4 -5.7" fill="#171948" fill-opacity="0.40784314" fill-rule="evenodd" stroke="none"/>
  </g>
  <defs>
    <linearGradient gradientTransform="matrix(0.0, 0.0505, -0.2045, 0.0, 0.25, -8.7)" gradientUnits="userSpaceOnUse" id="gradient0" spreadMethod="pad" x1="-819.2" x2="819.2">
      <stop offset="0.0" stop-color="#7c7ac2" stop-opacity="0.9490196"/>
      <stop offset="1.0" stop-color="#718abd" stop-opacity="0.9490196"/>
    </linearGradient>
  </defs>
</svg>
