<?xml version="1.0" encoding="UTF-8" standalone="no"?>
<svg xmlns:xlink="http://www.w3.org/1999/xlink" height="53.05px" width="105.85px" xmlns="http://www.w3.org/2000/svg">
  <g transform="matrix(1.0, 0.0, 0.0, 1.0, 47.9, 36.05)">
    <path d="M-34.95 -35.45 L44.9 -35.45 Q57.35 -35.45 57.35 -23.05 L57.35 3.95 Q57.35 16.4 44.9 16.4 L-34.95 16.4 Q-47.3 16.4 -47.3 3.95 L-47.3 -23.05 Q-47.3 -35.45 -34.95 -35.45 M46.1 -33.2 L-36.2 -33.2 Q-44.9 -33.2 -44.9 -24.55 L-44.9 3.75 Q-44.9 12.3 -36.2 12.3 L46.1 12.3 Q54.85 12.3 54.85 3.75 L54.85 -24.55 Q54.85 -33.2 46.1 -33.2" fill="#9b9adb" fill-rule="evenodd" stroke="none"/>
    <path d="M46.1 -33.2 Q54.85 -33.2 54.85 -24.55 L54.85 3.75 Q54.85 12.3 46.1 12.3 L-36.2 12.3 Q-44.9 12.3 -44.9 3.75 L-44.9 -24.55 Q-44.9 -33.2 -36.2 -33.2 L46.1 -33.2" fill="#d4d6ff" fill-rule="evenodd" stroke="none"/>
    <path d="M-34.95 -35.45 L44.9 -35.45 Q57.35 -35.45 57.35 -23.05 L57.35 3.95 Q57.35 16.4 44.9 16.4 L-34.95 16.4 Q-47.3 16.4 -47.3 3.95 L-47.3 -23.05 Q-47.3 -35.45 -34.95 -35.45 Z" fill="none" stroke="#323958" stroke-linecap="round" stroke-linejoin="round" stroke-width="1.2000000000000002"/>
  </g>
</svg>
