<?xml version="1.0" encoding="UTF-8" standalone="no"?>
<svg xmlns:xlink="http://www.w3.org/1999/xlink" height="18.85px" width="15.5px" xmlns="http://www.w3.org/2000/svg">
  <g transform="matrix(1.0, 0.0, 0.0, 1.0, 91.25, -2.55)">
    <path d="M-79.35 10.55 Q-78.7 9.9 -77.85 9.9 -76.95 9.9 -76.35 10.55 -75.75 11.2 -75.75 12.0 -75.75 12.95 -76.35 13.6 -76.95 14.2 -77.85 14.2 -78.7 14.2 -79.35 13.6 -79.95 12.95 -79.95 12.0 -79.95 11.2 -79.35 10.55 M-90.85 11.4 L-82.1 2.85 Q-81.8 2.55 -81.3 2.55 -80.75 2.55 -80.5 2.85 -80.1 3.3 -80.1 3.8 -80.1 4.2 -80.5 4.6 L-88.35 12.25 -80.5 19.4 Q-80.1 19.8 -80.1 20.25 -80.1 20.75 -80.4 21.1 L-80.5 21.1 Q-80.65 21.4 -81.3 21.4 L-82.05 21.15 -82.1 21.15 -90.85 13.1 -90.9 13.1 -91.2 12.65 -91.2 12.55 -91.2 12.0 -90.85 11.4" fill="#5a5c8e" fill-rule="evenodd" stroke="none"/>
  </g>
</svg>
