<?xml version="1.0" encoding="UTF-8" standalone="no"?>
<svg xmlns:xlink="http://www.w3.org/1999/xlink" height="175.8px" width="464.3px" xmlns="http://www.w3.org/2000/svg">
  <g transform="matrix(1.0, 0.0, 0.0, 1.0, 261.05, 70.2)">
    <path d="M59.55 -68.95 L59.55 -35.25 -241.2 -35.25 -241.2 -47.55 Q-241.2 -56.4 -234.95 -62.7 -228.65 -68.95 -219.8 -68.95 L59.55 -68.95" fill="url(#gradient0)" fill-rule="evenodd" stroke="none"/>
    <path d="M-241.2 -35.25 L59.55 -35.25 59.55 68.45 -219.8 68.45 Q-228.65 68.45 -234.95 62.15 -241.0 56.1 -241.2 47.6 L-241.2 46.2 -259.8 46.2 -241.2 23.45 -241.2 -35.25" fill="url(#gradient1)" fill-rule="evenodd" stroke="none"/>
    <path d="M59.55 -35.25 L59.55 -68.95 180.6 -68.95 Q189.45 -68.95 195.7 -62.7 202.0 -56.4 202.0 -47.55 L202.0 -35.25 59.55 -35.25" fill="url(#gradient2)" fill-rule="evenodd" stroke="none"/>
    <path d="M59.55 -35.25 L202.0 -35.25 202.0 47.6 Q201.8 56.1 195.7 62.15 189.45 68.45 180.6 68.45 L59.55 68.45 59.55 -35.25" fill="url(#gradient3)" fill-rule="evenodd" stroke="none"/>
    <path d="M202.0 47.6 L202.0 82.9 Q202.0 91.8 195.7 98.05 189.45 104.35 180.6 104.35 L-219.8 104.35 Q-228.65 104.35 -234.95 98.05 -241.2 91.8 -241.2 82.9 L-241.2 47.6 Q-241.0 56.1 -234.95 62.15 -228.65 68.45 -219.8 68.45 L59.55 68.45 180.6 68.45 Q189.45 68.45 195.7 62.15 201.8 56.1 202.0 47.6" fill="url(#gradient4)" fill-rule="evenodd" stroke="none"/>
    <path d="M59.55 -68.95 L-219.8 -68.95 Q-228.65 -68.95 -234.95 -62.7 -241.2 -56.4 -241.2 -47.55 L-241.2 -35.25 59.55 -35.25 202.0 -35.25 202.0 -47.55 Q202.0 -56.4 195.7 -62.7 189.45 -68.95 180.6 -68.95 L59.55 -68.95 M202.0 47.6 L202.0 82.9 Q202.0 91.8 195.7 98.05 189.45 104.35 180.6 104.35 L-219.8 104.35 Q-228.65 104.35 -234.95 98.05 -241.2 91.8 -241.2 82.9 L-241.2 47.6 -241.2 46.2 -259.8 46.2 -241.2 23.45 -241.2 -35.25 M202.0 47.6 Q201.8 56.1 195.7 62.15 189.45 68.45 180.6 68.45 L59.55 68.45 -219.8 68.45 Q-228.65 68.45 -234.95 62.15 -241.0 56.1 -241.2 47.6 M202.0 -35.25 L202.0 47.6" fill="none" stroke="#332b48" stroke-linecap="round" stroke-linejoin="round" stroke-width="2.5"/>
    <path d="M-220.0 71.65 L-73.4 71.65 Q-67.25 71.65 -62.9 76.0 -58.5 80.4 -58.5 86.55 -58.5 92.7 -62.9 97.05 -67.25 101.45 -73.4 101.45 L-220.0 101.45 Q-226.15 101.45 -230.55 97.05 -234.9 92.7 -234.9 86.55 -234.9 80.4 -230.55 76.0 -226.15 71.65 -220.0 71.65" fill="#1d1233" fill-opacity="0.4862745" fill-rule="evenodd" stroke="none"/>
    <path d="M-42.2 75.95 L182.2 75.95 Q187.0 75.95 190.45 79.05 193.95 82.2 193.95 86.6 193.95 91.0 190.45 94.1 187.0 97.25 182.2 97.25 L-42.2 97.25 Q-47.15 97.25 -50.6 94.1 -54.05 91.0 -54.05 86.6 -54.05 82.2 -50.6 79.05 -47.15 75.95 -42.2 75.95" fill="#23162c" fill-opacity="0.84705883" fill-rule="evenodd" stroke="none"/>
  </g>
  <defs>
    <linearGradient gradientTransform="matrix(0.2864, 0.0, 0.0, 0.0206, -2.8, -52.1)" gradientUnits="userSpaceOnUse" id="gradient0" spreadMethod="pad" x1="-819.2" x2="819.2">
      <stop offset="0.0" stop-color="#545d7e"/>
      <stop offset="1.0" stop-color="#5b507e"/>
    </linearGradient>
    <linearGradient gradientTransform="matrix(0.0, 0.0576, -0.2943, 0.0, -0.05, 15.4)" gradientUnits="userSpaceOnUse" id="gradient1" spreadMethod="pad" x1="-819.2" x2="819.2">
      <stop offset="0.0" stop-color="#e7ebff"/>
      <stop offset="1.0" stop-color="#e4dbff"/>
    </linearGradient>
    <linearGradient gradientTransform="matrix(0.2864, 0.0, 0.0, 0.0206, -41.85, -52.1)" gradientUnits="userSpaceOnUse" id="gradient2" spreadMethod="pad" x1="-819.2" x2="819.2">
      <stop offset="0.0" stop-color="#545d7e"/>
      <stop offset="1.0" stop-color="#5b507e"/>
    </linearGradient>
    <linearGradient gradientTransform="matrix(0.0, 0.0576, -0.2943, 0.0, -39.1, 15.4)" gradientUnits="userSpaceOnUse" id="gradient3" spreadMethod="pad" x1="-819.2" x2="819.2">
      <stop offset="0.0" stop-color="#e7ebff"/>
      <stop offset="1.0" stop-color="#e4dbff"/>
    </linearGradient>
    <linearGradient gradientTransform="matrix(-0.2705, 0.0, 0.0, -0.0346, -19.6, 76.0)" gradientUnits="userSpaceOnUse" id="gradient4" spreadMethod="pad" x1="-819.2" x2="819.2">
      <stop offset="0.0" stop-color="#736098"/>
      <stop offset="1.0" stop-color="#986f95"/>
    </linearGradient>
  </defs>
</svg>
