<?xml version="1.0" encoding="UTF-8" standalone="no"?>
<svg xmlns:xlink="http://www.w3.org/1999/xlink" height="22.8px" width="249.5px" xmlns="http://www.w3.org/2000/svg">
  <g transform="matrix(1.0, 0.0, 0.0, 1.0, 54.8, -75.2)">
    <path d="M169.1 75.95 L169.1 96.85 M94.55 96.85 L94.55 75.95 M119.4 75.95 L119.4 96.85 M144.25 96.85 L144.25 75.95 M20.0 75.95 L20.0 96.85 M44.85 96.85 L44.85 75.95 M69.7 75.95 L69.7 96.85 M-4.8 96.85 L-4.8 75.95 M-29.7 75.95 L-29.7 96.85" fill="none" stroke="#ffe9fb" stroke-linecap="round" stroke-linejoin="round" stroke-opacity="0.84705883" stroke-width="0.05"/>
    <path d="M-42.2 75.95 L182.2 75.95 Q187.0 75.95 190.45 79.05 193.95 82.2 193.95 86.6 193.95 91.0 190.45 94.1 187.0 97.25 182.2 97.25 L-42.2 97.25 Q-47.15 97.25 -50.6 94.1 -54.05 91.0 -54.05 86.6 -54.05 82.2 -50.6 79.05 -47.15 75.95 -42.2 75.95 Z" fill="none" stroke="#ffe9fb" stroke-linecap="round" stroke-linejoin="round" stroke-opacity="0.3764706" stroke-width="1.5"/>
  </g>
</svg>
