<?xml version="1.0" encoding="UTF-8" standalone="no"?>
<svg xmlns:xlink="http://www.w3.org/1999/xlink" height="16.9px" width="24.3px" xmlns="http://www.w3.org/2000/svg">
  <g transform="matrix(1.0, 0.0, 0.0, 1.0, 12.15, 8.45)">
    <path d="M3.25 -6.8 Q3.25 -7.45 3.75 -7.95 4.2 -8.45 4.9 -8.45 5.6 -8.45 6.1 -7.95 6.6 -7.45 6.6 -6.8 6.6 -6.1 6.1 -5.6 5.6 -5.15 4.9 -5.15 4.2 -5.15 3.75 -5.6 3.25 -6.1 3.25 -6.8 M-12.15 4.6 L-11.8 3.7 Q-11.45 3.35 -10.9 3.35 L-10.3 3.5 Q-7.75 4.75 -5.15 5.4 L0.0 6.05 Q5.15 6.05 10.3 3.55 10.5 3.4 10.9 3.35 11.45 3.35 11.8 3.7 L12.15 4.6 11.95 5.25 11.35 5.75 Q5.8 8.45 0.0 8.45 -5.65 8.45 -11.35 5.75 L-12.0 5.25 -12.15 4.6 M-6.95 -6.55 Q-6.95 -7.2 -6.45 -7.7 -5.95 -8.2 -5.25 -8.2 -4.6 -8.2 -4.1 -7.7 -3.6 -7.2 -3.6 -6.55 -3.6 -5.85 -4.1 -5.35 -4.6 -4.85 -5.25 -4.85 -5.95 -4.85 -6.45 -5.35 -6.95 -5.85 -6.95 -6.55" fill="#f1c8f3" fill-rule="evenodd" stroke="none"/>
  </g>
</svg>
