<?xml version="1.0" encoding="UTF-8" standalone="no"?>
<svg xmlns:xlink="http://www.w3.org/1999/xlink" height="71.0px" width="234.35px" xmlns="http://www.w3.org/2000/svg">
  <g transform="matrix(1.0, 0.0, 0.0, 1.0, 117.2, 35.5)">
    <path d="M95.3 -31.5 L-95.35 -31.5 Q-113.2 -31.5 -113.2 -13.65 L-113.2 13.65 Q-113.2 31.5 -95.35 31.5 L95.3 31.5 Q113.15 31.5 113.15 13.65 L113.15 -13.65 Q113.15 -31.5 95.3 -31.5 M-95.35 -35.0 L95.3 -35.0 Q116.65 -35.0 116.65 -13.65 L116.65 13.65 Q116.65 35.0 95.3 35.0 L-95.35 35.0 Q-116.7 35.0 -116.7 13.65 L-116.7 -13.65 Q-116.7 -35.0 -95.35 -35.0" fill="#ccb5ee" fill-rule="evenodd" stroke="none"/>
    <path d="M95.3 -31.5 Q113.15 -31.5 113.15 -13.65 L113.15 13.65 Q113.15 31.5 95.3 31.5 L-95.35 31.5 Q-113.2 31.5 -113.2 13.65 L-113.2 -13.65 Q-113.2 -31.5 -95.35 -31.5 L95.3 -31.5" fill="#e9e7ff" fill-rule="evenodd" stroke="none"/>
    <path d="M-95.35 -35.0 L95.3 -35.0 Q116.65 -35.0 116.65 -13.65 L116.65 13.65 Q116.65 35.0 95.3 35.0 L-95.35 35.0 Q-116.7 35.0 -116.7 13.65 L-116.7 -13.65 Q-116.7 -35.0 -95.35 -35.0 Z" fill="none" stroke="#181227" stroke-linecap="round" stroke-linejoin="round" stroke-opacity="0.6392157" stroke-width="1.0"/>
  </g>
</svg>
