<?xml version="1.0" encoding="UTF-8" standalone="no"?>
<svg xmlns:xlink="http://www.w3.org/1999/xlink" height="71.85px" width="234.35px" xmlns="http://www.w3.org/2000/svg">
  <g transform="matrix(1.0, 0.0, 0.0, 1.0, 117.2, 36.35)">
    <path d="M-95.35 -35.0 L95.3 -35.0 Q116.65 -35.0 116.65 -13.65 L116.65 13.65 Q116.65 35.0 95.3 35.0 L-95.35 35.0 Q-116.7 35.0 -116.7 13.65 L-116.7 -13.65 Q-116.7 -35.0 -95.35 -35.0 M95.3 -31.5 L-95.35 -31.5 Q-113.2 -31.5 -113.2 -13.65 L-113.2 13.65 Q-113.2 31.5 -95.35 31.5 L95.3 31.5 Q113.15 31.5 113.15 13.65 L113.15 -13.65 Q113.15 -31.5 95.3 -31.5" fill="#a1eeac" fill-rule="evenodd" stroke="none"/>
    <path d="M95.3 -31.5 Q113.15 -31.5 113.15 -13.65 L113.15 13.65 Q113.15 31.5 95.3 31.5 L-95.35 31.5 Q-113.2 31.5 -113.2 13.65 L-113.2 -13.65 Q-113.2 -31.5 -95.35 -31.5 L95.3 -31.5" fill="#e9fff7" fill-rule="evenodd" stroke="none"/>
    <path d="M-95.35 -35.0 L95.3 -35.0 Q116.65 -35.0 116.65 -13.65 L116.65 13.65 Q116.65 35.0 95.3 35.0 L-95.35 35.0 Q-116.7 35.0 -116.7 13.65 L-116.7 -13.65 Q-116.7 -35.0 -95.35 -35.0 Z" fill="none" stroke="#245f4a" stroke-linecap="round" stroke-linejoin="round" stroke-opacity="0.7490196" stroke-width="1.0"/>
    <path d="M-97.85 -25.15 Q-97.85 -27.65 -99.6 -29.4 -101.4 -31.15 -103.85 -31.15 -106.35 -31.15 -108.1 -29.4 -109.9 -27.65 -109.9 -25.15 -109.9 -22.65 -108.1 -20.9 -106.35 -19.1 -103.85 -19.1 -101.4 -19.1 -99.6 -20.9 -97.85 -22.65 -97.85 -25.15 M-93.1 -25.1 Q-93.1 -20.65 -96.25 -17.5 -99.4 -14.35 -103.85 -14.35 -108.3 -14.35 -111.45 -17.5 -114.6 -20.65 -114.6 -25.1 -114.6 -29.55 -111.45 -32.7 -108.3 -35.85 -103.85 -35.85 -99.4 -35.85 -96.25 -32.7 -93.1 -29.55 -93.1 -25.1" fill="#90ee83" fill-rule="evenodd" stroke="none"/>
    <path d="M-97.85 -25.15 Q-97.85 -22.65 -99.6 -20.9 -101.4 -19.1 -103.85 -19.1 -106.35 -19.1 -108.1 -20.9 -109.9 -22.65 -109.9 -25.15 -109.9 -27.65 -108.1 -29.4 -106.35 -31.15 -103.85 -31.15 -101.4 -31.15 -99.6 -29.4 -97.85 -27.65 -97.85 -25.15 M-93.1 -25.1 Q-93.1 -20.65 -96.25 -17.5 -99.4 -14.35 -103.85 -14.35 -108.3 -14.35 -111.45 -17.5 -114.6 -20.65 -114.6 -25.1 -114.6 -29.55 -111.45 -32.7 -108.3 -35.85 -103.85 -35.85 -99.4 -35.85 -96.25 -32.7 -93.1 -29.55 -93.1 -25.1" fill="none" stroke="#173f1f" stroke-linecap="round" stroke-linejoin="round" stroke-opacity="0.85882354" stroke-width="1.0"/>
  </g>
</svg>
