<?xml version="1.0" encoding="UTF-8" standalone="no"?>
<svg xmlns:xlink="http://www.w3.org/1999/xlink" height="71.45px" width="234.35px" xmlns="http://www.w3.org/2000/svg">
  <g transform="matrix(1.0, 0.0, 0.0, 1.0, 117.2, 35.95)">
    <path d="M95.3 -31.5 Q113.15 -31.5 113.15 -13.65 L113.15 13.65 Q113.15 31.5 95.3 31.5 L-95.35 31.5 Q-113.2 31.5 -113.2 13.65 L-113.2 -13.65 Q-113.2 -31.5 -95.35 -31.5 L95.3 -31.5" fill="#ffe2e2" fill-rule="evenodd" stroke="none"/>
    <path d="M95.3 -31.5 L-95.35 -31.5 Q-113.2 -31.5 -113.2 -13.65 L-113.2 13.65 Q-113.2 31.5 -95.35 31.5 L95.3 31.5 Q113.15 31.5 113.15 13.65 L113.15 -13.65 Q113.15 -31.5 95.3 -31.5 M-95.35 -35.0 L95.3 -35.0 Q116.65 -35.0 116.65 -13.65 L116.65 13.65 Q116.65 35.0 95.3 35.0 L-95.35 35.0 Q-116.7 35.0 -116.7 13.65 L-116.7 -13.65 Q-116.7 -35.0 -95.35 -35.0" fill="#ee8585" fill-rule="evenodd" stroke="none"/>
    <path d="M-95.35 -35.0 L95.3 -35.0 Q116.65 -35.0 116.65 -13.65 L116.65 13.65 Q116.65 35.0 95.3 35.0 L-95.35 35.0 Q-116.7 35.0 -116.7 13.65 L-116.7 -13.65 Q-116.7 -35.0 -95.35 -35.0 Z" fill="none" stroke="#3f1616" stroke-linecap="round" stroke-linejoin="round" stroke-opacity="0.85882354" stroke-width="1.0"/>
    <path d="M-95.15 -33.35 Q-95.15 -32.45 -95.8 -31.65 L-100.55 -25.35 -95.5 -19.3 Q-94.9 -18.55 -94.9 -17.7 -94.9 -16.85 -95.5 -16.3 L-95.55 -16.2 Q-96.1 -15.65 -97.05 -15.65 -98.25 -15.65 -98.7 -16.45 L-103.55 -22.3 -108.3 -16.4 Q-109.05 -15.65 -109.95 -15.65 -110.95 -15.65 -111.45 -16.2 L-111.55 -16.3 Q-112.15 -16.85 -112.15 -17.7 -112.15 -18.55 -111.55 -19.4 L-106.55 -25.5 -111.75 -31.75 Q-112.45 -32.5 -112.45 -33.45 -112.45 -34.3 -111.85 -34.85 L-111.85 -34.9 Q-111.35 -35.45 -110.35 -35.45 -109.2 -35.45 -108.55 -34.65 L-103.5 -28.65 -99.0 -34.65 Q-98.35 -35.45 -97.2 -35.45 -96.35 -35.45 -95.7 -34.9 L-95.65 -34.85 Q-95.15 -34.3 -95.15 -33.35" fill="#ff4a4a" fill-rule="evenodd" stroke="none"/>
    <path d="M-95.15 -33.35 Q-95.15 -32.45 -95.8 -31.65 L-100.55 -25.35 -95.5 -19.3 Q-94.9 -18.55 -94.9 -17.7 -94.9 -16.85 -95.5 -16.3 L-95.55 -16.2 Q-96.1 -15.65 -97.05 -15.65 -98.25 -15.65 -98.7 -16.45 L-103.55 -22.3 -108.3 -16.4 Q-109.05 -15.65 -109.95 -15.65 -110.95 -15.65 -111.45 -16.2 L-111.55 -16.3 Q-112.15 -16.85 -112.15 -17.7 -112.15 -18.55 -111.55 -19.4 L-106.55 -25.5 -111.75 -31.75 Q-112.45 -32.5 -112.45 -33.45 -112.45 -34.3 -111.85 -34.85 L-111.85 -34.9 Q-111.35 -35.45 -110.35 -35.45 -109.2 -35.45 -108.55 -34.65 L-103.5 -28.65 -99.0 -34.65 Q-98.35 -35.45 -97.2 -35.45 -96.35 -35.45 -95.7 -34.9 L-95.65 -34.85 Q-95.15 -34.3 -95.15 -33.35 Z" fill="none" stroke="#3f1313" stroke-linecap="round" stroke-linejoin="round" stroke-opacity="0.85882354" stroke-width="1.0"/>
  </g>
</svg>
