<?xml version="1.0" encoding="UTF-8" standalone="no"?>
<svg xmlns:xlink="http://www.w3.org/1999/xlink" height="101.7px" width="74.25px" xmlns="http://www.w3.org/2000/svg">
  <g transform="matrix(1.0, 0.0, 0.0, 1.0, 37.1, 49.9)">
    <path d="M28.65 -49.9 Q37.15 -49.9 37.15 -41.25 L37.15 43.15 Q37.15 51.8 28.65 51.8 L-28.6 51.8 Q-37.1 51.8 -37.1 43.15 L-37.1 -41.25 Q-37.1 -49.9 -28.6 -49.9 L28.65 -49.9" fill="#111217" fill-opacity="0.6" fill-rule="evenodd" stroke="none"/>
    <path d="M29.1 -46.5 L-29.05 -46.5 Q-33.2 -46.5 -33.2 -42.35 L-33.2 42.05 Q-33.2 46.2 -29.05 46.2 L29.1 46.2 Q33.25 46.2 33.25 42.05 L33.25 -42.35 Q33.25 -46.5 29.1 -46.5 M-29.05 -49.0 L29.1 -49.0 Q35.75 -49.0 35.75 -42.35 L35.75 42.05 Q35.75 48.7 29.1 48.7 L-29.05 48.7 Q-35.7 48.7 -35.7 42.05 L-35.7 -42.35 Q-35.7 -49.0 -29.05 -49.0" fill="#cfd2f5" fill-rule="evenodd" stroke="none"/>
    <path d="M29.1 -46.5 Q33.25 -46.5 33.25 -42.35 L33.25 42.05 Q33.25 46.2 29.1 46.2 L-29.05 46.2 Q-33.2 46.2 -33.2 42.05 L-33.2 -42.35 Q-33.2 -46.5 -29.05 -46.5 L29.1 -46.5" fill="#bfbee2" fill-rule="evenodd" stroke="none"/>
  </g>
</svg>
