<?xml version="1.0" encoding="UTF-8" standalone="no"?>
<svg xmlns:xlink="http://www.w3.org/1999/xlink" height="211.95px" width="842.95px" xmlns="http://www.w3.org/2000/svg">
  <g transform="matrix(1.0, 0.0, 0.0, 1.0, 375.65, 79.9)">
    <path d="M458.7 -75.75 Q461.8 -75.75 461.8 -72.65 L461.8 122.1 Q461.8 125.2 458.7 125.2 L373.55 125.2 373.55 -75.75 458.7 -75.75" fill="#d4d6ff" fill-rule="evenodd" stroke="none"/>
    <path d="M458.7 -75.75 L373.55 -75.75 373.55 125.2 458.7 125.2 Q461.8 125.2 461.8 122.1 L461.8 -72.65 Q461.8 -75.75 458.7 -75.75 M368.55 -79.4 L458.7 -79.4 Q466.8 -79.4 466.8 -71.3 L466.8 123.45 Q466.8 131.55 458.7 131.55 L368.55 131.55 368.55 -79.4" fill="#9b9adb" fill-rule="evenodd" stroke="none"/>
    <path d="M368.55 131.55 L-367.05 131.55 Q-375.15 131.55 -375.15 123.45 L-375.15 -71.3 Q-375.15 -79.4 -367.05 -79.4 L368.55 -79.4 368.55 131.55" fill="#4d466b" fill-opacity="0.69803923" fill-rule="evenodd" stroke="none"/>
    <path d="M368.55 -79.4 L458.7 -79.4 Q466.8 -79.4 466.8 -71.3 L466.8 123.45 Q466.8 131.55 458.7 131.55 L368.55 131.55 -367.05 131.55 Q-375.15 131.55 -375.15 123.45 L-375.15 -71.3 Q-375.15 -79.4 -367.05 -79.4 L368.55 -79.4 368.55 131.55" fill="none" stroke="#fffff8" stroke-linecap="round" stroke-linejoin="round" stroke-opacity="0.64705884" stroke-width="1.0"/>
    <path d="M423.5 -35.1 Q424.7 -36.2 426.3 -36.2 427.9 -36.2 429.1 -35.1 430.15 -33.9 430.15 -32.3 430.15 -30.6 429.1 -29.5 L429.1 -29.45 Q427.9 -28.4 426.3 -28.4 424.7 -28.4 423.5 -29.5 422.4 -30.6 422.4 -32.3 422.4 -33.9 423.5 -35.1 M402.8 -33.4 L418.5 -48.8 Q419.2 -49.45 420.1 -49.45 421.1 -49.45 421.55 -48.7 422.15 -48.15 422.15 -47.2 422.15 -46.35 421.55 -45.65 L407.4 -31.9 421.45 -19.0 421.4 -19.0 Q422.15 -18.5 422.15 -17.5 422.15 -16.55 421.65 -15.95 L421.55 -15.9 Q421.1 -15.25 420.1 -15.25 419.3 -15.25 418.55 -15.75 L418.5 -15.75 402.7 -30.3 402.7 -30.35 402.1 -31.25 402.1 -31.4 402.1 -32.35 402.1 -32.4 Q402.3 -33.2 402.8 -33.4 M430.0 73.35 Q430.5 73.55 430.65 74.4 L430.65 75.35 430.65 75.5 430.05 76.4 430.05 76.45 414.3 91.0 414.25 91.0 412.7 91.5 Q411.7 91.5 411.2 90.85 L411.1 90.8 Q410.65 90.2 410.65 89.25 410.65 88.25 411.4 87.75 L411.35 87.75 425.4 74.85 411.2 61.1 Q410.65 60.4 410.65 59.55 410.65 58.65 411.2 58.05 411.7 57.3 412.7 57.3 413.6 57.3 414.3 58.0 L430.0 73.35 M409.25 71.65 Q410.4 72.85 410.4 74.45 410.4 76.15 409.25 77.3 408.1 78.35 406.5 78.35 404.9 78.35 403.7 77.3 402.6 76.15 402.6 74.45 402.6 72.85 403.7 71.65 404.9 70.55 406.5 70.55 408.1 70.55 409.25 71.65" fill="#3a3d74" fill-opacity="0.8392157" fill-rule="evenodd" stroke="none"/>
    <path d="M375.2 24.05 L459.5 24.05" fill="none" stroke="#9b9adb" stroke-linecap="round" stroke-linejoin="round" stroke-opacity="0.76862746" stroke-width="2.0"/>
  </g>
</svg>
