<?xml version="1.0" encoding="UTF-8" standalone="no"?>
<svg xmlns:xlink="http://www.w3.org/1999/xlink" height="35.5px" width="335.45px" xmlns="http://www.w3.org/2000/svg">
  <g transform="matrix(1.0, 0.0, 0.0, 1.0, 167.75, 17.75)">
    <path d="M-159.15 -17.25 L159.1 -17.25 Q167.2 -17.25 167.2 -9.15 L167.2 9.15 Q167.2 17.25 159.1 17.25 L-159.15 17.25 Q-167.25 17.25 -167.25 9.15 L-167.25 -9.15 Q-167.25 -17.25 -159.15 -17.25" fill="#302d46" fill-opacity="0.8" fill-rule="evenodd" stroke="none"/>
    <path d="M-159.15 -17.25 L159.1 -17.25 Q167.2 -17.25 167.2 -9.15 L167.2 9.15 Q167.2 17.25 159.1 17.25 L-159.15 17.25 Q-167.25 17.25 -167.25 9.15 L-167.25 -9.15 Q-167.25 -17.25 -159.15 -17.25 Z" fill="none" stroke="#4f4e79" stroke-linecap="round" stroke-linejoin="round" stroke-opacity="0.5882353" stroke-width="1.0"/>
  </g>
</svg>
