<?xml version="1.0" encoding="UTF-8" standalone="no"?>
<svg xmlns:xlink="http://www.w3.org/1999/xlink" height="46.9px" width="121.3px" xmlns="http://www.w3.org/2000/svg">
  <g transform="matrix(1.0, 0.0, 0.0, 1.0, 60.9, 24.15)">
    <path d="M-20.8 -23.65 L52.85 -23.65 Q59.9 -23.65 59.9 -16.6 L59.9 15.2 Q59.9 22.25 52.85 22.25 L-20.8 22.25 -20.8 -23.65" fill="url(#gradient0)" fill-rule="evenodd" stroke="none"/>
    <path d="M-20.8 22.25 L-53.4 22.25 Q-60.4 22.25 -60.4 15.2 L-60.4 -16.6 Q-60.4 -23.65 -53.4 -23.65 L-20.8 -23.65 -20.8 22.25" fill="url(#gradient1)" fill-rule="evenodd" stroke="none"/>
    <path d="M-20.8 -23.65 L52.85 -23.65 Q59.9 -23.65 59.9 -16.6 L59.9 15.2 Q59.9 22.25 52.85 22.25 L-20.8 22.25 -53.4 22.25 Q-60.4 22.25 -60.4 15.2 L-60.4 -16.6 Q-60.4 -23.65 -53.4 -23.65 L-20.8 -23.65 Z" fill="none" stroke="#0a104f" stroke-linecap="round" stroke-linejoin="round" stroke-opacity="0.7764706" stroke-width="1.0"/>
  </g>
  <defs>
    <linearGradient gradientTransform="matrix(0.0, 0.0261, -0.0734, 0.0, -0.25, 0.9)" gradientUnits="userSpaceOnUse" id="gradient0" spreadMethod="pad" x1="-819.2" x2="819.2">
      <stop offset="0.0" stop-color="#898ab4"/>
      <stop offset="0.9725490196078431" stop-color="#b4add2"/>
    </linearGradient>
    <linearGradient gradientTransform="matrix(0.0, 0.0261, -0.0734, 0.0, -0.25, 0.9)" gradientUnits="userSpaceOnUse" id="gradient1" spreadMethod="pad" x1="-819.2" x2="819.2">
      <stop offset="0.0" stop-color="#1f1f2a"/>
      <stop offset="1.0" stop-color="#383641"/>
    </linearGradient>
  </defs>
</svg>
