<?xml version="1.0" encoding="UTF-8" standalone="no"?>
<svg xmlns:xlink="http://www.w3.org/1999/xlink" height="111.95px" width="111.95px" xmlns="http://www.w3.org/2000/svg">
  <g transform="matrix(1.0, 0.0, 0.0, 1.0, 56.0, 56.0)">
    <path d="M-19.35 -37.85 L-14.65 -37.85 Q-13.7 -37.85 -13.7 -36.85 L-13.7 -33.55 -20.3 -33.55 -20.3 -36.85 Q-20.3 -37.85 -19.35 -37.85 M-14.35 -27.75 Q-14.35 -26.75 -15.1 -26.0 -15.4 -25.7 -15.8 -25.5 L-15.8 -24.0 Q-15.8 -23.55 -16.15 -23.3 -16.4 -22.95 -16.85 -22.95 -17.25 -22.95 -17.6 -23.3 L-17.9 -24.0 -17.9 -25.5 -18.55 -26.0 Q-19.25 -26.75 -19.25 -27.75 -19.25 -28.7 -18.55 -29.45 -17.8 -30.2 -16.8 -30.2 -15.8 -30.2 -15.1 -29.45 -14.35 -28.7 -14.35 -27.75" fill="#343d51" fill-opacity="0.7372549" fill-rule="evenodd" stroke="none"/>
    <path d="M-11.2 -33.55 Q-9.5 -33.55 -9.5 -31.9 L-9.5 -21.05 Q-9.5 -19.35 -11.2 -19.35 L-22.6 -19.35 Q-24.3 -19.35 -24.3 -21.05 L-24.3 -31.9 Q-24.3 -33.5 -22.65 -33.55 L-22.65 -38.55 Q-22.65 -40.2 -21.0 -40.2 L-12.95 -40.2 Q-11.25 -40.2 -11.25 -38.55 L-11.25 -33.55 -11.2 -33.55 M-14.35 -27.75 Q-14.35 -28.7 -15.1 -29.45 -15.8 -30.2 -16.8 -30.2 -17.8 -30.2 -18.55 -29.45 -19.25 -28.7 -19.25 -27.75 -19.25 -26.75 -18.55 -26.0 L-17.9 -25.5 -17.9 -24.0 -17.6 -23.3 Q-17.25 -22.95 -16.85 -22.95 -16.4 -22.95 -16.15 -23.3 -15.8 -23.55 -15.8 -24.0 L-15.8 -25.5 Q-15.4 -25.7 -15.1 -26.0 -14.35 -26.75 -14.35 -27.75 M-19.35 -37.85 Q-20.3 -37.85 -20.3 -36.85 L-20.3 -33.55 -13.7 -33.55 -13.7 -36.85 Q-13.7 -37.85 -14.65 -37.85 L-19.35 -37.85" fill="#000000" fill-opacity="0.9490196" fill-rule="evenodd" stroke="none"/>
    <path d="M55.45 0.0 Q55.45 22.95 39.2 39.2 23.0 55.45 0.0 55.45 -23.0 55.45 -39.25 39.2 -55.5 22.95 -55.5 0.0 -55.5 -23.0 -39.25 -39.25 -23.0 -55.5 0.0 -55.5 23.0 -55.5 39.2 -39.25 55.45 -23.0 55.45 0.0 M-11.2 -33.55 L-11.25 -33.55 -11.25 -38.55 Q-11.25 -40.2 -12.95 -40.2 L-21.0 -40.2 Q-22.65 -40.2 -22.65 -38.55 L-22.65 -33.55 Q-24.3 -33.5 -24.3 -31.9 L-24.3 -21.05 Q-24.3 -19.35 -22.6 -19.35 L-11.2 -19.35 Q-9.5 -19.35 -9.5 -21.05 L-9.5 -31.9 Q-9.5 -33.55 -11.2 -33.55" fill="#343d51" fill-opacity="0.28627452" fill-rule="evenodd" stroke="none"/>
    <path d="M55.45 0.0 Q55.45 22.95 39.2 39.2 23.0 55.45 0.0 55.45 -23.0 55.45 -39.25 39.2 -55.5 22.95 -55.5 0.0 -55.5 -23.0 -39.25 -39.25 -23.0 -55.5 0.0 -55.5 23.0 -55.5 39.2 -39.25 55.45 -23.0 55.45 0.0 Z" fill="none" stroke="#000000" stroke-linecap="round" stroke-linejoin="round" stroke-width="1.0"/>
  </g>
</svg>
