<?xml version="1.0" encoding="UTF-8" standalone="no"?>
<svg xmlns:xlink="http://www.w3.org/1999/xlink" height="56.3px" width="88.7px" xmlns="http://www.w3.org/2000/svg">
  <g transform="matrix(1.0, 0.0, 0.0, 1.0, 42.95, 25.85)">
    <path d="M11.1 -23.0 Q11.1 -24.25 11.95 -25.05 L12.0 -25.1 Q12.8 -25.85 13.95 -25.85 L25.7 -25.85 Q26.95 -25.85 27.7 -25.05 28.5 -24.3 28.5 -23.1 28.5 -21.9 27.7 -21.15 26.95 -20.35 25.7 -20.35 L16.8 -20.35 16.8 -17.05 22.75 -17.05 Q24.0 -17.05 24.75 -16.25 L24.7 -16.3 Q25.6 -15.55 25.6 -14.3 25.6 -13.05 24.7 -12.25 L24.75 -12.35 Q24.0 -11.55 22.75 -11.55 L16.8 -11.55 16.8 -8.05 25.7 -8.05 Q26.95 -8.05 27.7 -7.25 28.5 -6.5 28.5 -5.3 28.5 -4.1 27.7 -3.35 26.95 -2.55 25.7 -2.55 L13.95 -2.55 Q12.8 -2.55 11.95 -3.4 L12.0 -3.3 Q11.1 -4.1 11.1 -5.4 L11.1 -23.0 M30.15 -25.0 Q31.0 -25.85 32.1 -25.85 33.35 -25.85 34.15 -25.0 L34.1 -25.05 Q35.0 -24.3 35.0 -23.0 L35.0 -8.25 42.9 -8.25 Q44.05 -8.25 44.9 -7.4 L44.85 -7.45 Q45.75 -6.7 45.75 -5.4 45.75 -4.1 44.85 -3.3 L44.9 -3.4 Q44.05 -2.55 42.9 -2.55 L32.1 -2.55 Q30.95 -2.55 30.1 -3.4 29.3 -4.15 29.3 -5.4 L29.3 -23.0 Q29.3 -24.3 30.2 -25.05 L30.15 -25.0 M5.7 -24.15 L6.6 -25.35 6.85 -25.55 8.25 -25.85 Q9.55 -25.85 10.2 -25.1 L10.15 -25.2 Q11.0 -24.45 11.0 -23.25 L10.75 -22.0 10.75 -21.95 3.05 -4.3 Q2.3 -2.55 0.4 -2.55 -1.3 -2.5 -2.15 -4.25 L-2.15 -4.3 -9.6 -21.2 -9.65 -21.15 Q-10.4 -20.35 -11.65 -20.35 L-20.55 -20.35 -20.55 -17.05 -14.6 -17.05 Q-13.35 -17.05 -12.6 -16.25 L-12.65 -16.3 Q-11.75 -15.55 -11.75 -14.3 -11.75 -13.05 -12.65 -12.25 L-12.6 -12.35 Q-13.35 -11.55 -14.6 -11.55 L-20.55 -11.55 -20.55 -8.05 -11.65 -8.05 Q-10.4 -8.05 -9.65 -7.25 -8.85 -6.5 -8.85 -5.3 -8.85 -4.1 -9.65 -3.35 -10.4 -2.55 -11.65 -2.55 L-23.4 -2.55 Q-24.55 -2.55 -25.4 -3.4 L-25.35 -3.3 Q-26.25 -4.1 -26.25 -5.4 L-26.25 -23.0 Q-26.25 -24.25 -25.4 -25.05 L-25.35 -25.1 Q-24.55 -25.85 -23.4 -25.85 L-11.65 -25.85 Q-10.4 -25.85 -9.65 -25.05 L-9.55 -24.95 -9.25 -25.2 -9.35 -25.1 Q-8.7 -25.85 -7.4 -25.85 -5.5 -25.85 -4.75 -24.15 L-4.75 -24.1 0.4 -11.7 5.7 -24.1 5.7 -24.15 M23.9 9.6 L23.9 22.4 Q23.9 23.45 23.2 24.25 L23.35 24.35 23.4 24.4 Q24.4 25.4 24.4 26.75 24.4 28.1 23.4 29.1 L23.35 29.15 Q22.35 30.05 21.1 30.05 19.7 30.05 18.8 29.1 17.8 28.1 17.8 26.75 17.8 25.4 18.8 24.4 L18.95 24.25 Q18.25 23.45 18.25 22.4 L18.25 9.6 Q18.25 8.3 19.15 7.55 L19.1 7.6 Q19.95 6.75 21.1 6.75 22.25 6.75 23.1 7.6 23.9 8.35 23.9 9.6 M12.9 7.8 Q14.75 8.85 15.85 10.8 L15.8 10.75 Q16.85 12.55 16.85 15.0 16.85 17.25 15.8 19.1 14.75 21.0 12.85 22.0 L12.9 22.0 Q11.0 23.0 8.7 23.0 L6.35 23.0 6.35 27.2 Q6.35 28.45 5.55 29.2 4.75 30.05 3.5 30.05 2.35 30.05 1.5 29.2 L1.55 29.3 Q0.65 28.5 0.65 27.2 L0.65 9.6 Q0.65 8.35 1.5 7.55 L1.55 7.5 Q2.35 6.75 3.5 6.75 L8.7 6.75 Q11.0 6.75 12.9 7.8 M8.7 12.25 L6.35 12.25 6.35 17.5 8.7 17.5 Q9.8 17.5 10.55 16.8 L10.6 16.8 Q11.25 16.1 11.25 15.0 11.25 13.8 10.55 13.0 9.8 12.25 8.7 12.25 M-42.95 -23.0 Q-42.95 -24.3 -42.05 -25.05 L-42.1 -25.0 Q-41.25 -25.85 -40.15 -25.85 -38.9 -25.85 -38.1 -25.0 L-38.15 -25.05 Q-37.25 -24.3 -37.25 -23.0 L-37.25 -8.25 -29.35 -8.25 Q-28.2 -8.25 -27.35 -7.4 L-27.4 -7.45 Q-26.5 -6.7 -26.5 -5.4 -26.5 -4.1 -27.4 -3.3 L-27.35 -3.4 Q-28.2 -2.55 -29.35 -2.55 L-40.15 -2.55 Q-41.3 -2.55 -42.15 -3.4 -42.95 -4.15 -42.95 -5.4 L-42.95 -23.0 M-7.2 9.6 Q-7.2 8.35 -6.35 7.55 -5.6 6.75 -4.35 6.75 -3.2 6.75 -2.4 7.5 L-2.25 7.6 Q-1.55 8.4 -1.55 9.6 L-1.55 21.75 Q-1.55 24.25 -2.8 26.25 -4.1 28.25 -6.35 29.4 L-6.4 29.4 Q-8.55 30.45 -11.3 30.45 -14.1 30.45 -16.3 29.4 L-16.35 29.4 Q-18.7 28.25 -19.95 26.35 -21.3 24.3 -21.3 21.75 L-21.3 9.6 Q-21.3 8.35 -20.45 7.55 L-20.4 7.5 Q-19.6 6.75 -18.45 6.75 -17.25 6.75 -16.45 7.5 L-16.3 7.6 Q-15.6 8.4 -15.6 9.6 L-15.6 21.75 Q-15.6 22.65 -15.1 23.35 L-13.65 24.55 -11.3 25.0 -9.0 24.55 -9.05 24.55 Q-8.2 24.15 -7.7 23.4 L-7.7 23.35 Q-7.2 22.65 -7.2 21.75 L-7.2 9.6" fill="#1f1b2e" fill-rule="evenodd" stroke="none"/>
    <path d="M13.95 -4.05 Q13.4 -4.05 13.0 -4.45 12.6 -4.8 12.6 -5.4 L12.6 -23.0 Q12.6 -23.6 13.0 -24.0 13.4 -24.35 13.95 -24.35 L25.7 -24.35 Q26.3 -24.35 26.65 -24.0 27.0 -23.65 27.0 -23.1 27.0 -22.55 26.65 -22.2 26.3 -21.85 25.7 -21.85 L15.3 -21.85 15.3 -15.55 22.75 -15.55 23.7 -15.2 Q24.1 -14.85 24.1 -14.3 24.1 -13.75 23.7 -13.4 23.35 -13.05 22.75 -13.05 L15.3 -13.05 15.3 -6.55 25.7 -6.55 Q26.3 -6.55 26.65 -6.2 27.0 -5.85 27.0 -5.3 27.0 -4.75 26.65 -4.4 26.3 -4.05 25.7 -4.05 L13.95 -4.05 M8.25 -24.35 L9.15 -24.05 Q9.5 -23.75 9.5 -23.25 L9.35 -22.55 1.65 -4.9 Q1.3 -4.05 0.4 -4.05 -0.4 -4.05 -0.8 -4.9 L-8.45 -22.35 -8.65 -23.25 Q-8.65 -23.75 -8.3 -24.05 L-7.4 -24.35 Q-6.5 -24.35 -6.15 -23.55 L0.4 -7.85 7.05 -23.55 7.5 -24.2 8.25 -24.35 M32.1 -4.05 Q31.55 -4.05 31.15 -4.45 30.8 -4.8 30.8 -5.4 L30.8 -23.0 Q30.8 -23.6 31.2 -23.95 31.6 -24.35 32.1 -24.35 32.7 -24.35 33.1 -23.95 33.5 -23.6 33.5 -23.0 L33.5 -6.75 42.9 -6.75 Q43.45 -6.75 43.85 -6.35 44.25 -6.0 44.25 -5.4 44.25 -4.8 43.85 -4.45 43.45 -4.05 42.9 -4.05 L32.1 -4.05 M-40.15 -4.05 Q-40.7 -4.05 -41.1 -4.45 -41.45 -4.8 -41.45 -5.4 L-41.45 -23.0 Q-41.45 -23.6 -41.05 -23.95 -40.65 -24.35 -40.15 -24.35 -39.55 -24.35 -39.15 -23.95 -38.75 -23.6 -38.75 -23.0 L-38.75 -6.75 -29.35 -6.75 Q-28.8 -6.75 -28.4 -6.35 -28.0 -6.0 -28.0 -5.4 -28.0 -4.8 -28.4 -4.45 -28.8 -4.05 -29.35 -4.05 L-40.15 -4.05 M-23.4 -4.05 Q-23.95 -4.05 -24.35 -4.45 -24.75 -4.8 -24.75 -5.4 L-24.75 -23.0 Q-24.75 -23.6 -24.35 -24.0 -23.95 -24.35 -23.4 -24.35 L-11.65 -24.35 Q-11.05 -24.35 -10.7 -24.0 -10.35 -23.65 -10.35 -23.1 -10.35 -22.55 -10.7 -22.2 -11.05 -21.85 -11.65 -21.85 L-22.05 -21.85 -22.05 -15.55 -14.6 -15.55 Q-14.0 -15.55 -13.65 -15.2 -13.25 -14.85 -13.25 -14.3 -13.25 -13.75 -13.65 -13.4 -14.0 -13.05 -14.6 -13.05 L-22.05 -13.05 -22.05 -6.55 -11.65 -6.55 Q-11.05 -6.55 -10.7 -6.2 -10.35 -5.85 -10.35 -5.3 -10.35 -4.75 -10.7 -4.4 -11.05 -4.05 -11.65 -4.05 L-23.4 -4.05" fill="url(#gradient0)" fill-rule="evenodd" stroke="none"/>
    <path d="M21.1 23.75 Q20.55 23.75 20.15 23.35 19.75 22.95 19.75 22.4 L19.75 9.6 Q19.75 9.0 20.15 8.65 20.55 8.25 21.1 8.25 21.65 8.25 22.05 8.65 22.4 9.0 22.4 9.6 L22.4 22.4 Q22.4 22.95 22.0 23.35 L21.1 23.75 M3.5 28.55 Q2.95 28.55 2.55 28.15 2.15 27.8 2.15 27.2 L2.15 9.6 Q2.15 9.0 2.55 8.6 2.95 8.25 3.5 8.25 L8.7 8.25 Q10.6 8.25 12.15 9.1 13.65 9.95 14.5 11.5 15.35 13.0 15.35 15.0 15.35 16.85 14.5 18.35 13.65 19.85 12.15 20.65 10.6 21.5 8.7 21.5 L4.85 21.5 4.85 27.2 Q4.85 27.8 4.5 28.15 4.1 28.55 3.5 28.55 M8.7 19.0 Q10.45 19.0 11.6 17.85 12.75 16.75 12.75 15.0 12.75 13.15 11.6 11.95 10.45 10.75 8.7 10.75 L4.85 10.75 4.85 19.0 8.7 19.0 M21.1 28.55 Q20.35 28.55 19.85 28.05 19.3 27.5 19.3 26.75 19.3 26.0 19.85 25.45 20.35 24.95 21.1 24.95 21.8 24.95 22.35 25.45 22.9 26.0 22.9 26.75 22.9 27.5 22.35 28.05 21.8 28.55 21.1 28.55 M-11.3 28.95 Q-13.75 28.95 -15.7 28.05 -17.65 27.1 -18.7 25.5 -19.8 23.85 -19.8 21.75 L-19.8 9.6 Q-19.8 9.0 -19.4 8.6 -19.0 8.25 -18.45 8.25 -17.85 8.25 -17.45 8.6 -17.1 9.0 -17.1 9.6 L-17.1 21.75 Q-17.1 23.1 -16.35 24.2 -15.6 25.3 -14.3 25.9 -13.0 26.5 -11.3 26.5 -9.7 26.5 -8.4 25.9 -7.15 25.3 -6.45 24.2 -5.7 23.1 -5.7 21.75 L-5.7 9.6 Q-5.7 9.0 -5.3 8.6 -4.95 8.25 -4.35 8.25 -3.8 8.25 -3.4 8.6 -3.05 9.0 -3.05 9.6 L-3.05 21.75 Q-3.05 23.8 -4.1 25.45 -5.15 27.1 -7.05 28.05 -8.9 28.95 -11.3 28.95" fill="url(#gradient1)" fill-rule="evenodd" stroke="none"/>
  </g>
  <defs>
    <linearGradient gradientTransform="matrix(0.0, 0.0127, -0.0523, 0.0, 1.4, -13.6)" gradientUnits="userSpaceOnUse" id="gradient0" spreadMethod="pad" x1="-819.2" x2="819.2">
      <stop offset="0.0" stop-color="#eddbff"/>
      <stop offset="1.0" stop-color="#ffffff"/>
    </linearGradient>
    <linearGradient gradientTransform="matrix(0.0, 0.013, -0.0261, 0.0, 1.55, 19.4)" gradientUnits="userSpaceOnUse" id="gradient1" spreadMethod="pad" x1="-819.2" x2="819.2">
      <stop offset="0.0" stop-color="#eddbff"/>
      <stop offset="1.0" stop-color="#ffffff"/>
    </linearGradient>
  </defs>
</svg>
