<?xml version="1.0" encoding="UTF-8" standalone="no"?>
<svg xmlns:xlink="http://www.w3.org/1999/xlink" height="41.15px" width="26.7px" xmlns="http://www.w3.org/2000/svg">
  <g transform="matrix(1.0, 0.0, 0.0, 1.0, 12.85, 20.9)">
    <path d="M10.5 -7.05 L9.5 -8.4 9.35 -7.9 Q8.35 -1.55 6.25 5.0 4.1 11.55 1.3 16.35 -1.55 21.15 -7.3 17.95 -13.1 14.7 -11.5 9.45 -9.95 4.15 -7.9 0.05 L-3.75 -8.6 Q-1.65 -13.1 0.25 -15.45 L0.95 -15.85 Q0.65 -16.0 0.4 -16.1 2.3 -18.3 8.35 -19.9 11.2 -17.45 12.85 -15.05 M9.5 -8.4 Q5.35 -13.8 0.95 -15.85" fill="none" stroke="#000000" stroke-linecap="round" stroke-linejoin="round" stroke-width="2.0"/>
  </g>
</svg>
