<?xml version="1.0" encoding="UTF-8" standalone="no"?>
<svg xmlns:xlink="http://www.w3.org/1999/xlink" height="32.25px" width="81.5px" xmlns="http://www.w3.org/2000/svg">
  <g transform="matrix(1.0, 0.0, 0.0, 1.0, -19.9, 15.25)">
    <path d="M36.0 -14.5 L85.3 -14.5 Q91.65 -14.5 96.15 -10.0 100.65 -5.5 100.65 0.85 L100.65 0.9 Q100.65 7.25 96.15 11.75 91.65 16.25 85.3 16.25 L36.0 16.25 Q29.65 16.25 25.15 11.75 20.65 7.25 20.65 0.9 L20.65 0.85 Q20.65 -5.5 25.15 -10.0 29.65 -14.5 36.0 -14.5" fill="#eee2ff" fill-opacity="0.9098039" fill-rule="evenodd" stroke="none"/>
    <path d="M36.0 -14.5 L85.3 -14.5 Q91.65 -14.5 96.15 -10.0 100.65 -5.5 100.65 0.85 L100.65 0.9 Q100.65 7.25 96.15 11.75 91.65 16.25 85.3 16.25 L36.0 16.25 Q29.65 16.25 25.15 11.75 20.65 7.25 20.65 0.9 L20.65 0.85 Q20.65 -5.5 25.15 -10.0 29.65 -14.5 36.0 -14.5 Z" fill="none" stroke="#242438" stroke-linecap="round" stroke-linejoin="round" stroke-opacity="0.69803923" stroke-width="1.5"/>
  </g>
</svg>
