<?xml version="1.0" encoding="UTF-8" standalone="no"?>
<svg xmlns:xlink="http://www.w3.org/1999/xlink" height="48.8px" width="48.75px" xmlns="http://www.w3.org/2000/svg">
  <g transform="matrix(1.0, 0.0, 0.0, 1.0, 24.35, 24.4)">
    <path d="M11.65 -11.5 Q6.85 -16.4 0.0 -16.4 -6.75 -16.4 -11.55 -11.75 L-11.65 -11.5 Q-16.35 -6.85 -16.35 0.0 L-16.15 2.15 -16.1 2.8 Q-14.55 6.05 -7.1 5.95 L-6.95 5.95 Q0.55 5.6 6.3 2.15 8.05 1.2 9.55 -0.15 13.85 -3.8 14.3 -8.2 L11.65 -11.5 M18.6 0.0 L18.5 2.15 Q17.8 8.6 13.15 13.15 7.65 18.65 0.0 18.65 -7.75 18.65 -13.3 13.15 -15.65 10.8 -16.9 7.85 -17.35 6.7 -16.4 7.3 -14.05 9.05 -8.7 9.7 L-6.65 9.7 Q4.35 9.35 11.9 3.25 L12.95 2.15 Q16.3 -0.95 17.3 -4.35 L17.7 -5.2 18.25 -4.0 Q18.6 -2.15 18.6 0.0 M-18.6 0.0 Q-18.6 -7.75 -13.3 -13.1 -7.75 -18.6 0.0 -18.6 7.65 -18.6 13.15 -13.1 15.25 -11.15 16.45 -8.75 16.4 -3.2 10.9 1.55 L10.25 2.15 Q3.15 7.7 -6.95 8.15 -16.7 8.35 -18.25 3.3 L-18.4 2.15 -18.6 0.0 M24.4 0.0 L24.25 2.15 Q23.65 10.95 17.3 17.25 10.15 24.4 0.0 24.4 -10.15 24.4 -17.35 17.25 -23.65 10.95 -24.3 2.15 L-24.35 0.0 Q-24.35 -10.05 -17.35 -17.3 -10.15 -24.4 0.0 -24.4 10.15 -24.4 17.3 -17.3 24.4 -10.05 24.4 0.0 M21.5 0.0 Q21.5 -8.95 15.25 -15.15 8.95 -21.5 0.0 -21.5 -8.9 -21.5 -15.25 -15.15 -21.45 -8.95 -21.45 0.0 L-21.35 2.15 Q-20.7 9.8 -15.25 15.2 -8.9 21.55 0.0 21.55 8.95 21.55 15.25 15.2 20.7 9.8 21.4 2.15 L21.5 0.0" fill="#def1f3" fill-rule="evenodd" stroke="none"/>
  </g>
</svg>
