<?xml version="1.0" encoding="UTF-8" standalone="no"?>
<svg xmlns:xlink="http://www.w3.org/1999/xlink" height="50.25px" width="109.6px" xmlns="http://www.w3.org/2000/svg">
  <g transform="matrix(1.0, 0.0, 0.0, 1.0, 459.35, 165.7)">
    <path d="M-375.0 -164.7 L-361.4 -164.7 Q-350.75 -164.7 -350.75 -154.05 L-350.75 -127.1 Q-350.75 -116.45 -361.4 -116.45 L-375.0 -116.45 -375.0 -164.7" fill="url(#gradient0)" fill-rule="evenodd" stroke="none"/>
    <path d="M-375.0 -116.45 L-429.8 -116.45 -429.8 -164.7 -375.0 -164.7 -375.0 -116.45" fill="url(#gradient1)" fill-rule="evenodd" stroke="none"/>
    <path d="M-429.8 -116.45 L-447.7 -116.45 Q-458.35 -116.45 -458.35 -127.1 L-458.35 -154.05 Q-458.35 -164.7 -447.7 -164.7 L-429.8 -164.7 -429.8 -116.45" fill="url(#gradient2)" fill-rule="evenodd" stroke="none"/>
    <path d="M-375.0 -164.7 L-361.4 -164.7 Q-350.75 -164.7 -350.75 -154.05 L-350.75 -127.1 Q-350.75 -116.45 -361.4 -116.45 L-375.0 -116.45 -429.8 -116.45 -447.7 -116.45 Q-458.35 -116.45 -458.35 -127.1 L-458.35 -154.05 Q-458.35 -164.7 -447.7 -164.7 L-429.8 -164.7 -375.0 -164.7 Z" fill="none" stroke="#29195b" stroke-linecap="round" stroke-linejoin="round" stroke-opacity="0.40784314" stroke-width="2.0"/>
  </g>
  <defs>
    <linearGradient gradientTransform="matrix(0.0, 0.0264, -0.0521, 0.0, -393.45, -140.45)" gradientUnits="userSpaceOnUse" id="gradient0" spreadMethod="pad" x1="-819.2" x2="819.2">
      <stop offset="0.0" stop-color="#a6a2dc"/>
      <stop offset="1.0" stop-color="#a7b3f7"/>
    </linearGradient>
    <linearGradient gradientTransform="matrix(0.0, 0.0264, -0.199, 0.0, -420.6, -140.45)" gradientUnits="userSpaceOnUse" id="gradient1" spreadMethod="pad" x1="-819.2" x2="819.2">
      <stop offset="0.0" stop-color="#a6a2dc"/>
      <stop offset="1.0" stop-color="#a7b3f7"/>
    </linearGradient>
    <linearGradient gradientTransform="matrix(0.0, 0.0264, -0.0521, 0.0, -415.65, -140.45)" gradientUnits="userSpaceOnUse" id="gradient2" spreadMethod="pad" x1="-819.2" x2="819.2">
      <stop offset="0.0" stop-color="#a6a2dc"/>
      <stop offset="1.0" stop-color="#a7b3f7"/>
    </linearGradient>
  </defs>
</svg>
