<?xml version="1.0" encoding="UTF-8" standalone="no"?>
<svg xmlns:xlink="http://www.w3.org/1999/xlink" height="567.65px" width="988.65px" xmlns="http://www.w3.org/2000/svg">
  <g transform="matrix(1.0, 0.0, 0.0, 1.0, 1158.95, 206.55)">
    <path d="M-1158.95 -206.55 L-170.3 -206.55 -170.3 361.1 -1158.95 361.1 -1158.95 -206.55" fill="#14142e" fill-opacity="0.54901963" fill-rule="evenodd" stroke="none"/>
    <path d="M-815.5 -171.75 L-815.5 -110.6 -1090.45 -110.6 -1090.45 -150.45 Q-1090.45 -159.25 -1084.2 -165.5 -1077.95 -171.75 -1069.15 -171.75 L-815.5 -171.75" fill="url(#gradient0)" fill-rule="evenodd" stroke="none"/>
    <path d="M-382.95 -110.6 L-382.95 -171.75 -268.5 -171.75 Q-259.7 -171.75 -253.45 -165.5 -247.2 -159.25 -247.2 -150.45 L-247.2 -110.6 -382.95 -110.6" fill="url(#gradient1)" fill-rule="evenodd" stroke="none"/>
    <path d="M-382.95 -171.75 L-382.95 -110.6 -815.5 -110.6 -815.5 -171.75 -382.95 -171.75" fill="url(#gradient2)" fill-rule="evenodd" stroke="none"/>
    <path d="M-382.95 -110.6 L-247.2 -110.6 -247.2 300.85 Q-247.2 309.65 -253.45 315.9 -259.7 322.15 -268.5 322.15 L-1069.15 322.15 Q-1077.95 322.15 -1084.2 315.9 -1090.45 309.65 -1090.45 300.85 L-1090.45 -110.6 -815.5 -110.6 -382.95 -110.6" fill="url(#gradient3)" fill-rule="evenodd" stroke="none"/>
    <path d="M-382.95 -110.6 L-247.2 -110.6 -247.2 -150.45 Q-247.2 -159.25 -253.45 -165.5 -259.7 -171.75 -268.5 -171.75 L-382.95 -171.75 -815.5 -171.75 -1069.15 -171.75 Q-1077.95 -171.75 -1084.2 -165.5 -1090.45 -159.25 -1090.45 -150.45 L-1090.45 -110.6 -815.5 -110.6 -382.95 -110.6 M-247.2 -110.6 L-247.2 300.85 Q-247.2 309.65 -253.45 315.9 -259.7 322.15 -268.5 322.15 L-1069.15 322.15 Q-1077.95 322.15 -1084.2 315.9 -1090.45 309.65 -1090.45 300.85 L-1090.45 -110.6" fill="none" stroke="#101979" stroke-linecap="round" stroke-linejoin="round" stroke-opacity="0.7764706" stroke-width="1.4000000000000001"/>
    <path d="M-1049.0 -163.8 L-497.9 -163.8 Q-487.95 -163.8 -480.95 -156.8 -473.9 -149.75 -473.9 -139.8 -473.9 -129.85 -480.95 -122.85 -487.95 -115.8 -497.9 -115.8 L-1049.0 -115.8 Q-1058.95 -115.8 -1066.0 -122.85 -1073.0 -129.85 -1073.0 -139.8 -1073.0 -149.75 -1066.0 -156.8 -1058.95 -163.8 -1049.0 -163.8" fill="#3954b2" fill-opacity="0.14901961" fill-rule="evenodd" stroke="none"/>
  </g>
  <defs>
    <linearGradient gradientTransform="matrix(0.0, 0.0373, -0.2638, 0.0, -874.35, -141.2)" gradientUnits="userSpaceOnUse" id="gradient0" spreadMethod="pad" x1="-819.2" x2="819.2">
      <stop offset="0.0" stop-color="#bfc1f0" stop-opacity="0.8980392"/>
      <stop offset="1.0" stop-color="#d9dfff" stop-opacity="0.8980392"/>
    </linearGradient>
    <linearGradient gradientTransform="matrix(0.0, 0.0373, -0.2638, 0.0, -463.3, -141.2)" gradientUnits="userSpaceOnUse" id="gradient1" spreadMethod="pad" x1="-819.2" x2="819.2">
      <stop offset="0.0" stop-color="#bfc1f0" stop-opacity="0.8980392"/>
      <stop offset="1.0" stop-color="#d9dfff" stop-opacity="0.8980392"/>
    </linearGradient>
    <linearGradient gradientTransform="matrix(0.0, 0.0373, -11.824, 0.0, -3713.3, -141.2)" gradientUnits="userSpaceOnUse" id="gradient2" spreadMethod="pad" x1="-819.2" x2="819.2">
      <stop offset="0.0" stop-color="#bfc1f0" stop-opacity="0.8980392"/>
      <stop offset="1.0" stop-color="#d9dfff" stop-opacity="0.8980392"/>
    </linearGradient>
    <linearGradient gradientTransform="matrix(0.0, 0.2641, -0.5147, 0.0, -668.8, 105.75)" gradientUnits="userSpaceOnUse" id="gradient3" spreadMethod="pad" x1="-819.2" x2="819.2">
      <stop offset="0.0" stop-color="#b7c2f3" stop-opacity="0.8980392"/>
      <stop offset="1.0" stop-color="#9fa2e5" stop-opacity="0.8980392"/>
    </linearGradient>
  </defs>
</svg>
