<?xml version="1.0" encoding="UTF-8" standalone="no"?>
<svg xmlns:xlink="http://www.w3.org/1999/xlink" height="197.35px" width="145.5px" xmlns="http://www.w3.org/2000/svg">
  <g transform="matrix(1.0, 0.0, 0.0, 1.0, 72.65, 102.65)">
    <path d="M58.0 -102.65 Q72.85 -102.65 72.85 -87.65 L72.85 79.7 Q72.85 94.7 58.0 94.7 L-57.8 94.7 Q-72.65 94.7 -72.65 79.7 L-72.65 -87.65 Q-72.65 -102.65 -57.8 -102.65 L58.0 -102.65" fill="#10112a" fill-opacity="0.4" fill-rule="evenodd" stroke="none"/>
    <path d="M71.65 -71.75 L71.65 47.5 -71.55 47.5 -71.55 -71.75 71.65 -71.75" fill="#858dbf" fill-rule="evenodd" stroke="none"/>
    <path d="M-71.55 -71.75 L-71.55 -88.3 Q-71.55 -101.3 -58.55 -101.3 L58.65 -101.3 Q71.65 -101.3 71.65 -88.3 L71.65 -71.75 -71.55 -71.75" fill="#dee1ff" fill-rule="evenodd" stroke="none"/>
    <path d="M71.65 47.5 L71.65 74.4 -71.55 74.4 -71.55 47.5 71.65 47.5" fill="#4a4c82" fill-rule="evenodd" stroke="none"/>
    <path d="M71.65 74.4 L71.65 79.05 Q71.65 92.05 58.65 92.05 L-58.55 92.05 Q-71.55 92.05 -71.55 79.05 L-71.55 74.4 71.65 74.4" fill="#2a213c" fill-rule="evenodd" stroke="none"/>
  </g>
</svg>
