<?xml version="1.0" encoding="UTF-8" standalone="no"?>
<svg xmlns:xlink="http://www.w3.org/1999/xlink" height="29.95px" width="23.0px" xmlns="http://www.w3.org/2000/svg">
  <g transform="matrix(1.0, 0.0, 0.0, 1.0, 12.25, 10.25)">
    <path d="M8.2 -3.65 Q9.55 -6.25 9.75 -9.2 8.2 -9.45 3.9 -8.25 -0.4 -7.05 -3.9 -8.3 -5.95 -6.35 -6.25 -3.8 -8.8 1.65 -11.15 8.95 -11.9 16.65 -5.2 18.65 0.2 19.15 3.7 12.4 L8.2 -3.65" fill="none" stroke="#000000" stroke-linecap="round" stroke-linejoin="round" stroke-width="2.0"/>
    <path d="M-6.25 -3.8 Q-4.4 -3.25 -2.25 -3.15 -2.15 -4.85 -0.85 -7.05 M-2.25 -3.15 Q0.4 -2.9 3.5 -3.1 4.05 -4.7 4.25 -7.5 M8.2 -3.65 L4.5 -3.2 3.5 -3.1 M8.75 -3.65 L8.2 -3.65 Z" fill="none" stroke="#000000" stroke-linecap="round" stroke-linejoin="round" stroke-width="1.2000000000000002"/>
  </g>
</svg>
