<?xml version="1.0" encoding="UTF-8" standalone="no"?>
<svg xmlns:xlink="http://www.w3.org/1999/xlink" height="194.35px" width="144.2px" xmlns="http://www.w3.org/2000/svg">
  <g transform="matrix(1.0, 0.0, 0.0, 1.0, 72.05, 101.8)">
    <path d="M71.65 47.5 L71.65 74.4 -71.55 74.4 -71.55 47.5 71.65 47.5" fill="#2f3154" fill-opacity="0.8" fill-rule="evenodd" stroke="none"/>
    <path d="M-71.55 47.5 L-71.55 -71.75 -71.55 -88.3 Q-71.55 -101.3 -58.55 -101.3 L58.65 -101.3 Q71.65 -101.3 71.65 -88.3 L71.65 -71.75 71.65 47.5 71.65 74.4 71.65 74.8 M-71.55 74.8 L-71.55 74.4 -71.55 47.5 71.65 47.5 M-71.55 74.4 L71.65 74.4" fill="none" stroke="#c7bfec" stroke-linecap="round" stroke-linejoin="round" stroke-opacity="0.40784314" stroke-width="1.0"/>
    <path d="M71.65 74.8 L71.65 79.05 Q71.65 92.05 58.65 92.05 L-58.55 92.05 Q-71.55 92.05 -71.55 79.05 L-71.55 74.8" fill="none" stroke="#d3cafa" stroke-linecap="round" stroke-linejoin="round" stroke-opacity="0.5764706" stroke-width="1.0"/>
    <path d="M-71.55 -71.75 L71.65 -71.75" fill="none" stroke="#0b0b0e" stroke-linecap="round" stroke-linejoin="round" stroke-opacity="0.40784314" stroke-width="1.0"/>
  </g>
</svg>
