<?xml version="1.0" encoding="UTF-8" standalone="no"?>
<svg xmlns:xlink="http://www.w3.org/1999/xlink" height="24.65px" width="97.15px" xmlns="http://www.w3.org/2000/svg">
  <g transform="matrix(1.0, 0.0, 0.0, 1.0, 58.05, 13.6)">
    <path d="M38.6 -13.1 L38.6 10.55 -57.55 10.55 -46.35 -13.1 38.6 -13.1" fill="#373446" fill-opacity="0.8" fill-rule="evenodd" stroke="none"/>
    <path d="M-57.55 10.55 L-46.35 -13.1 38.6 -13.1" fill="none" stroke="#efe2ff" stroke-linecap="round" stroke-linejoin="round" stroke-opacity="0.32941177" stroke-width="1.0"/>
    <path d="M23.95 -0.8 Q24.45 -0.3 24.45 0.3 24.45 0.9 23.95 1.4 23.5 1.85 22.9 1.85 22.2 1.85 21.8 1.4 21.3 0.9 21.3 0.3 21.3 -0.3 21.8 -0.8 22.2 -1.15 22.9 -1.15 L23.95 -0.8 M32.3 -0.2 L32.45 0.25 32.45 0.3 32.45 0.65 32.45 0.7 32.35 1.1 32.3 1.15 25.95 6.85 25.35 7.1 24.75 6.85 24.75 6.8 24.5 6.25 Q24.5 5.8 24.75 5.65 L30.35 0.45 24.75 -5.05 24.5 -5.65 24.75 -6.2 Q25.0 -6.55 25.35 -6.55 L25.95 -6.25 32.3 -0.2" fill="#161517" fill-rule="evenodd" stroke="none"/>
  </g>
</svg>
