<?xml version="1.0" encoding="UTF-8" standalone="no"?>
<svg xmlns:xlink="http://www.w3.org/1999/xlink" height="176.45px" width="78.9px" xmlns="http://www.w3.org/2000/svg">
  <g transform="matrix(1.0, 0.0, 0.0, 1.0, 35.5, 32.8)">
    <path d="M31.0 -29.1 L-23.15 -29.1 Q-31.0 -29.1 -31.0 -21.25 L-31.0 130.55 Q-31.0 133.65 -29.75 135.5 -27.9 138.35 -23.15 138.35 L31.0 138.35 Q35.75 138.35 37.65 135.5 38.85 133.65 38.85 130.55 L38.85 -21.25 Q38.85 -29.1 31.0 -29.1 M-23.15 -32.05 L31.0 -32.05 Q42.65 -32.05 42.65 -20.45 L42.65 131.25 Q42.65 133.6 42.2 135.5 40.3 142.9 31.0 142.9 L-23.15 142.9 Q-32.4 142.9 -34.25 135.5 -34.75 133.6 -34.75 131.25 L-34.75 -20.45 Q-34.75 -32.05 -23.15 -32.05" fill="#9b9adb" fill-rule="evenodd" stroke="none"/>
    <path d="M31.0 -29.1 Q38.85 -29.1 38.85 -21.25 L38.85 130.55 Q38.85 133.65 37.65 135.5 35.75 138.35 31.0 138.35 L-23.15 138.35 Q-27.9 138.35 -29.75 135.5 -31.0 133.65 -31.0 130.55 L-31.0 -21.25 Q-31.0 -29.1 -23.15 -29.1 L31.0 -29.1" fill="#d4d6ff" fill-rule="evenodd" stroke="none"/>
    <path d="M-23.15 -32.05 L31.0 -32.05 Q42.65 -32.05 42.65 -20.45 L42.65 131.25 Q42.65 133.6 42.2 135.5 40.3 142.9 31.0 142.9 L-23.15 142.9 Q-32.4 142.9 -34.25 135.5 -34.75 133.6 -34.75 131.25 L-34.75 -20.45 Q-34.75 -32.05 -23.15 -32.05 Z" fill="none" stroke="#323958" stroke-linecap="round" stroke-linejoin="round" stroke-width="1.5"/>
    <path d="M16.15 50.6 L16.65 51.45 16.65 51.5 16.65 52.25 16.65 52.4 16.25 53.1 16.2 53.15 3.15 65.1 3.1 65.1 1.8 65.55 Q1.0 65.55 0.6 65.1 L0.55 65.05 Q0.1 64.45 0.1 63.8 0.1 63.0 0.7 62.5 L0.7 62.55 12.4 51.8 0.7 40.4 Q0.1 39.9 0.1 39.15 0.1 38.45 0.65 37.95 1.05 37.4 1.9 37.4 2.6 37.4 3.15 37.9 L16.15 50.6 M-1.05 49.25 Q-0.05 50.2 -0.05 51.55 -0.05 52.4 -0.5 53.15 L-1.05 53.85 -1.05 53.8 Q-1.95 54.7 -3.3 54.7 -4.6 54.7 -5.55 53.85 L-5.55 53.8 -6.0 53.15 Q-6.45 52.45 -6.45 51.55 -6.45 50.2 -5.55 49.25 L-5.5 49.25 Q-4.6 48.4 -3.3 48.4 -1.95 48.4 -1.05 49.25" fill="#4a4c82" fill-rule="evenodd" stroke="none"/>
  </g>
</svg>
