<?xml version="1.0" encoding="UTF-8" standalone="no"?>
<svg xmlns:xlink="http://www.w3.org/1999/xlink" height="13.65px" width="11.15px" xmlns="http://www.w3.org/2000/svg">
  <g transform="matrix(1.0, 0.0, 0.0, 1.0, -20.15, 7.7)">
    <path d="M22.8 -1.95 Q23.3 -1.45 23.3 -0.85 23.3 -0.25 22.8 0.25 22.35 0.7 21.75 0.7 21.05 0.7 20.65 0.25 20.15 -0.25 20.15 -0.85 20.15 -1.45 20.65 -1.95 L21.75 -2.3 22.8 -1.95 M31.15 -1.35 L31.3 -0.9 31.3 -0.85 31.3 -0.5 31.3 -0.45 31.2 -0.05 31.15 0.0 24.8 5.7 24.2 5.95 Q23.8 5.95 23.6 5.7 L23.6 5.65 23.35 5.1 Q23.35 4.65 23.6 4.5 L29.2 -0.75 23.6 -6.2 23.35 -6.8 23.6 -7.35 24.2 -7.7 24.8 -7.4 31.15 -1.35" fill="#f0ecff" fill-rule="evenodd" stroke="none"/>
  </g>
</svg>
