<?xml version="1.0" encoding="UTF-8" standalone="no"?>
<svg xmlns:xlink="http://www.w3.org/1999/xlink" height="567.65px" width="988.65px" xmlns="http://www.w3.org/2000/svg">
  <g transform="matrix(1.0, 0.0, 0.0, 1.0, 1151.75, 137.85)">
    <path d="M-1151.75 -137.85 L-163.1 -137.85 -163.1 429.8 -1151.75 429.8 -1151.75 -137.85" fill="#14142e" fill-opacity="0.54901963" fill-rule="evenodd" stroke="none"/>
    <path d="M-375.75 -41.9 L-375.75 -103.05 -261.3 -103.05 Q-252.5 -103.05 -246.25 -96.8 -240.0 -90.55 -240.0 -81.75 L-240.0 -41.9 -375.75 -41.9" fill="url(#gradient0)" fill-rule="evenodd" stroke="none"/>
    <path d="M-375.75 -103.05 L-375.75 -41.9 -808.3 -41.9 -808.3 -103.05 -375.75 -103.05" fill="url(#gradient1)" fill-rule="evenodd" stroke="none"/>
    <path d="M-375.75 -41.9 L-240.0 -41.9 -240.0 369.55 Q-240.0 378.35 -246.25 384.6 -252.5 390.85 -261.3 390.85 L-1061.95 390.85 Q-1070.75 390.85 -1077.0 384.6 -1083.25 378.35 -1083.25 369.55 L-1083.25 -41.9 -808.3 -41.9 -375.75 -41.9" fill="url(#gradient2)" fill-rule="evenodd" stroke="none"/>
    <path d="M-808.3 -103.05 L-808.3 -41.9 -1083.25 -41.9 -1083.25 -81.75 Q-1083.25 -90.55 -1077.0 -96.8 -1070.75 -103.05 -1061.95 -103.05 L-808.3 -103.05" fill="url(#gradient3)" fill-rule="evenodd" stroke="none"/>
    <path d="M-375.75 -41.9 L-240.0 -41.9 -240.0 -81.75 Q-240.0 -90.55 -246.25 -96.8 -252.5 -103.05 -261.3 -103.05 L-375.75 -103.05 -808.3 -103.05 -1061.95 -103.05 Q-1070.75 -103.05 -1077.0 -96.8 -1083.25 -90.55 -1083.25 -81.75 L-1083.25 -41.9 -808.3 -41.9 -375.75 -41.9 M-240.0 -41.9 L-240.0 369.55 Q-240.0 378.35 -246.25 384.6 -252.5 390.85 -261.3 390.85 L-1061.95 390.85 Q-1070.75 390.85 -1077.0 384.6 -1083.25 378.35 -1083.25 369.55 L-1083.25 -41.9" fill="none" stroke="#101979" stroke-linecap="round" stroke-linejoin="round" stroke-opacity="0.7764706" stroke-width="1.4000000000000001"/>
    <path d="M-1041.8 -95.1 L-365.3 -95.1 Q-355.35 -95.1 -348.35 -88.1 -341.3 -81.05 -341.3 -71.1 -341.3 -61.15 -348.35 -54.15 -355.35 -47.1 -365.3 -47.1 L-1041.8 -47.1 Q-1051.75 -47.1 -1058.8 -54.15 -1065.8 -61.15 -1065.8 -71.1 -1065.8 -81.05 -1058.8 -88.1 -1051.75 -95.1 -1041.8 -95.1" fill="#3954b2" fill-opacity="0.14901961" fill-rule="evenodd" stroke="none"/>
    <path d="M-812.25 31.95 L-812.25 163.25 -510.75 163.25 -510.75 31.95 M-510.75 163.25 L-356.45 163.25 M-959.4 163.25 L-812.25 163.25 M-859.55 313.05 L-466.1 313.05" fill="none" stroke="#29255b" stroke-linecap="round" stroke-linejoin="round" stroke-opacity="0.44705883" stroke-width="2.0"/>
  </g>
  <defs>
    <linearGradient gradientTransform="matrix(0.0, 0.0373, -0.2638, 0.0, -456.1, -72.5)" gradientUnits="userSpaceOnUse" id="gradient0" spreadMethod="pad" x1="-819.2" x2="819.2">
      <stop offset="0.0" stop-color="#bfc1f0" stop-opacity="0.8980392"/>
      <stop offset="1.0" stop-color="#d9dfff" stop-opacity="0.8980392"/>
    </linearGradient>
    <linearGradient gradientTransform="matrix(0.0, 0.0373, -11.824, 0.0, -3706.1, -72.5)" gradientUnits="userSpaceOnUse" id="gradient1" spreadMethod="pad" x1="-819.2" x2="819.2">
      <stop offset="0.0" stop-color="#bfc1f0" stop-opacity="0.8980392"/>
      <stop offset="1.0" stop-color="#d9dfff" stop-opacity="0.8980392"/>
    </linearGradient>
    <linearGradient gradientTransform="matrix(0.0, 0.2641, -0.5147, 0.0, -661.6, 174.45)" gradientUnits="userSpaceOnUse" id="gradient2" spreadMethod="pad" x1="-819.2" x2="819.2">
      <stop offset="0.0" stop-color="#b7c2f3" stop-opacity="0.8980392"/>
      <stop offset="1.0" stop-color="#9fa2e5" stop-opacity="0.8980392"/>
    </linearGradient>
    <linearGradient gradientTransform="matrix(0.0, 0.0373, -0.2638, 0.0, -867.15, -72.5)" gradientUnits="userSpaceOnUse" id="gradient3" spreadMethod="pad" x1="-819.2" x2="819.2">
      <stop offset="0.0" stop-color="#bfc1f0" stop-opacity="0.8980392"/>
      <stop offset="1.0" stop-color="#d9dfff" stop-opacity="0.8980392"/>
    </linearGradient>
  </defs>
</svg>
