<?xml version="1.0" encoding="UTF-8" standalone="no"?>
<svg xmlns:xlink="http://www.w3.org/1999/xlink" height="26.75px" width="22.6px" xmlns="http://www.w3.org/2000/svg">
  <g transform="matrix(1.0, 0.0, 0.0, 1.0, 11.25, 19.55)">
    <path d="M7.45 0.25 Q9.15 -2.35 10.4 -7.1 11.4 -17.65 7.1 -18.8 -1.9 -15.9 -5.3 -10.6 -6.0 -9.5 -6.15 -8.4 L-6.0 -6.5 Q-5.5 -4.75 -3.5 -3.1 L-3.15 -2.8 -0.7 -1.0 2.65 0.8 5.9 2.0 5.95 2.0 7.45 0.25 Q9.2 2.8 9.0 4.25 7.35 5.9 5.4 4.95 4.6 6.4 2.5 6.45 1.05 5.1 1.4 3.8 L-0.45 4.25 Q-2.5 3.35 -2.7 2.1 L-5.45 2.3 Q-7.0 1.25 -6.9 -0.1 -9.5 -1.45 -10.5 -3.3 L-8.65 -5.0 Q-9.9 -7.1 -9.05 -8.85 L-6.15 -8.4 M9.1 -12.5 Q7.9 -7.25 3.85 -3.95 M5.4 4.95 Q6.0 3.85 5.9 2.0 M1.4 3.8 L1.45 3.75 Q2.4 3.0 2.65 0.8 M-6.9 -0.1 L-6.8 -0.05 Q-5.1 -0.25 -3.15 -2.8 M-6.0 -6.5 L-8.65 -5.0 M-2.7 2.1 L-2.25 1.95 Q-1.45 0.9 -0.7 -1.0 M7.35 -15.95 Q2.2 -12.75 -0.5 -8.65" fill="none" stroke="#000000" stroke-linecap="round" stroke-linejoin="round" stroke-width="1.5"/>
  </g>
</svg>
