<?xml version="1.0" encoding="UTF-8" standalone="no"?>
<svg xmlns:xlink="http://www.w3.org/1999/xlink" height="35.65px" width="21.85px" xmlns="http://www.w3.org/2000/svg">
  <g transform="matrix(1.0, 0.0, 0.0, 1.0, 11.0, 16.3)">
    <path d="M-2.35 -10.2 Q0.1 -8.55 4.95 -7.65 L8.75 -7.15 6.45 -0.2 Q-3.5 -1.85 -4.5 -5.15 L-2.35 -10.2" fill="#eeeff0" fill-rule="evenodd" stroke="none"/>
    <path d="M5.15 -11.85 L5.45 -14.2 5.3 -14.25 0.85 -15.45 Q-1.2 -15.9 -3.0 -13.65 -4.15 -12.05 -3.1 -10.8 L-2.35 -10.2 Q0.1 -8.55 4.95 -7.65 L5.1 -9.55 M9.95 -13.35 Q7.75 -13.5 5.45 -14.2 M8.75 -7.15 L9.4 -7.1 M4.95 -7.65 L8.75 -7.15 M9.8 -8.75 Q10.15 -10.65 10.1 -11.85 M-0.55 -9.85 Q-0.35 -12.1 0.65 -14.4" fill="none" stroke="#000000" stroke-linecap="round" stroke-linejoin="round" stroke-width="1.5"/>
    <path d="M8.75 -7.15 L6.45 -0.2 2.0 12.95 Q-0.8 19.15 -5.75 18.2 -10.45 16.75 -9.95 11.4 L-8.3 5.4 Q-6.75 0.3 -4.5 -5.15 L-2.35 -10.2" fill="none" stroke="#000000" stroke-linecap="round" stroke-linejoin="round" stroke-width="2.0"/>
  </g>
</svg>
