<?xml version="1.0" encoding="UTF-8" standalone="no"?>
<svg xmlns:xlink="http://www.w3.org/1999/xlink" height="18.5px" width="20.9px" xmlns="http://www.w3.org/2000/svg">
  <g transform="matrix(1.0, 0.0, 0.0, 1.0, 11.5, 8.15)">
    <path d="M7.1 -1.6 Q8.85 -2.6 8.55 -4.2 L5.4 -4.05 Q5.2 -6.6 1.45 -5.0 -0.4 -7.9 -3.15 -5.9 -4.8 -7.7 -5.75 -7.35 -7.45 -6.35 -7.2 -4.35 -9.1 -3.25 -9.95 -1.25 -10.65 1.15 -8.6 3.3 -10.45 4.0 -10.75 5.5 L-8.25 5.35 Q-8.75 6.6 -7.3 7.45 -5.05 7.8 -3.75 7.05 -3.1 8.35 -1.5 9.25 1.1 9.4 1.8 7.9 2.5 9.3 4.6 9.6 5.0 8.35 4.55 6.75 L5.3 6.95 Q6.6 6.85 7.9 4.55 L7.9 4.4 8.15 4.25 Q9.0 2.4 8.35 0.8 8.0 -0.45 7.1 -1.6" fill="none" stroke="#000000" stroke-linecap="round" stroke-linejoin="round" stroke-width="1.5"/>
    <path d="M-7.2 -4.35 L-5.8 -4.75 Q-4.55 -4.2 -3.15 -2.3 -1.3 -3.85 0.85 -3.9 2.1 -3.6 3.1 -1.65 4.7 -2.95 5.8 -2.8 L7.1 -1.6 M3.1 -1.65 L3.35 -1.25 M-3.15 -2.3 L-4.35 -0.75 M4.55 6.75 Q3.65 6.35 3.2 5.7 1.8 6.35 -0.45 6.35 -2.5 5.6 -3.1 4.4 L-3.15 4.3 Q-5.65 4.65 -8.25 3.6 L-8.6 3.3 M-3.1 4.4 L-3.1 4.25 -3.15 4.3 -3.75 3.3 M4.75 4.75 Q4.1 5.4 3.2 5.7" fill="none" stroke="#000000" stroke-linecap="round" stroke-linejoin="round" stroke-width="1.1"/>
  </g>
</svg>
