<?xml version="1.0" encoding="UTF-8" standalone="no"?>
<svg xmlns:xlink="http://www.w3.org/1999/xlink" height="26.55px" width="23.15px" xmlns="http://www.w3.org/2000/svg">
  <g transform="matrix(1.0, 0.0, 0.0, 1.0, 11.85, 20.45)">
    <path d="M8.7 -3.8 Q8.65 -6.55 7.05 -10.95 6.25 -14.0 5.55 -15.3 L5.1 -16.0 Q4.05 -17.1 4.35 -17.25 4.05 -17.1 5.1 -16.0 L5.55 -15.3 Q6.25 -14.0 7.05 -10.95 8.65 -6.55 8.7 -3.8 5.5 -3.65 4.75 -7.7 3.2 -8.15 1.65 -9.0 0.1 -9.9 1.05 -11.0 L-1.1 -13.25 Q-1.9 -14.35 0.1 -15.5 L-0.7 -16.1 Q-3.0 -18.1 -1.5 -19.7 -0.1 -18.9 1.95 -18.5 3.6 -18.25 4.35 -17.25 5.8 -18.45 9.3 -18.5 11.0 -13.45 10.35 -7.7 L9.2 -3.45 Q8.95 -3.0 8.8 -3.25 L8.7 -3.55 8.7 -3.8 M4.7 -10.55 L7.05 -10.95 4.7 -10.55 M2.2 -16.45 Q3.55 -15.35 5.55 -15.3 3.55 -15.35 2.2 -16.45" fill="#ffffff" fill-rule="evenodd" stroke="none"/>
    <path d="M4.35 -17.25 Q4.05 -17.1 5.1 -16.0 L5.55 -15.3 Q6.25 -14.0 7.05 -10.95 8.65 -6.55 8.7 -3.8 L8.7 -3.55 8.8 -3.25 Q8.95 -3.0 9.2 -3.45 L10.35 -7.7 Q11.0 -13.45 9.3 -18.5 5.8 -18.45 4.35 -17.25 3.6 -18.25 1.95 -18.5 -0.1 -18.9 -1.5 -19.7 -3.0 -18.1 -0.7 -16.1 L0.1 -15.5 Q-1.9 -14.35 -1.1 -13.25 L1.05 -11.0 Q0.1 -9.9 1.65 -9.0 3.2 -8.15 4.75 -7.7 5.5 -3.65 8.7 -3.8 M5.55 -15.3 Q3.55 -15.35 2.2 -16.45 M7.05 -10.95 L4.7 -10.55 M-0.45 -0.65 Q-6.0 -1.1 -6.95 -3.4 -9.05 -3.35 -9.9 -2.65 L-11.05 -1.6 Q-11.55 0.5 -7.15 0.7 L-5.7 2.9 -0.15 2.75 Q-0.05 4.15 1.8 5.05 3.7 5.95 5.35 4.3 6.6 5.15 9.3 5.05 9.65 3.0 7.75 1.1 L6.7 1.65 Q3.1 1.65 -0.45 -0.65 M7.75 1.1 Q9.75 -0.3 8.8 -3.25 M-0.7 -16.1 Q-5.6 -13.45 -6.7 -9.35 -7.8 -5.3 -6.95 -3.4 M-0.85 -1.1 L1.2 -2.15" fill="none" stroke="#000000" stroke-linecap="round" stroke-linejoin="round" stroke-width="1.5"/>
  </g>
</svg>
