<?xml version="1.0" encoding="UTF-8" standalone="no"?>
<svg xmlns:xlink="http://www.w3.org/1999/xlink" height="232.9px" width="195.1px" xmlns="http://www.w3.org/2000/svg">
  <g transform="matrix(1.0, 0.0, 0.0, 1.0, 97.55, 116.45)">
    <path d="M-4.65 -104.3 Q-10.05 -116.3 -20.9 -115.4 -34.65 -115.45 -46.1 -102.0 -56.0 -90.3 -64.9 -96.35 -54.5 -86.15 -43.2 -92.65 L-43.05 -92.75 -42.55 -93.05 -39.1 -95.55 M-43.2 -92.65 Q-70.15 -76.1 -70.8 -35.35 -68.25 -47.05 -61.1 -58.7 L-59.3 -61.5 M-64.45 -5.7 Q-66.35 10.25 -75.0 21.55 L-79.05 32.05 Q-95.75 79.95 -70.8 108.8 -85.55 78.8 -63.3 34.75 L-62.2 33.0 Q-45.05 4.35 -40.35 -16.5 L-40.25 -16.95 Q-39.05 -22.45 -38.7 -27.45 M-61.1 -58.7 Q-66.15 -47.65 -69.05 -17.15 -71.95 13.4 -96.55 38.3 -82.95 31.85 -75.0 21.55 M-40.35 -16.5 Q-42.95 -3.75 -28.8 11.8 -40.2 -9.0 -28.8 -43.3 -17.65 -66.45 -16.95 -77.75 M82.55 29.2 L83.5 30.95 84.85 33.75 85.45 35.15 Q87.8 39.15 96.55 39.95 87.35 34.95 79.85 22.0 M67.35 38.6 L66.85 43.1 Q69.8 57.65 72.7 61.05 L69.25 57.55 71.15 68.2 71.35 69.35 Q75.0 89.45 92.7 115.45 85.3 102.8 83.75 63.05 L83.6 59.6 83.35 51.05 M83.6 59.6 Q86.6 76.3 85.75 83.3 93.9 55.5 85.45 35.15 M60.6 27.3 Q58.15 45.05 69.25 57.55" fill="none" stroke="#000000" stroke-linecap="round" stroke-linejoin="round" stroke-width="2.0"/>
    <path d="M-22.2 -87.3 Q-27.4 -84.4 -36.4 -89.1 M-34.45 -73.8 Q-37.45 -38.85 -50.3 -10.4 -46.45 -24.7 -48.3 -48.05 M73.95 25.45 Q80.95 37.6 80.5 44.1" fill="none" stroke="#000000" stroke-linecap="round" stroke-linejoin="round" stroke-width="1.4000000000000001"/>
  </g>
</svg>
