<?xml version="1.0" encoding="UTF-8" standalone="no"?>
<svg xmlns:xlink="http://www.w3.org/1999/xlink" height="37.85px" width="22.55px" xmlns="http://www.w3.org/2000/svg">
  <g transform="matrix(1.0, 0.0, 0.0, 1.0, 11.15, 18.4)">
    <path d="M10.65 -17.3 Q9.1 -18.0 6.6 -17.35 4.1 -16.7 2.6 -15.75 L-0.1 -14.25 Q1.85 -12.85 4.2 -9.5 M9.4 -8.15 L9.35 -7.8 9.15 -7.05 Q6.25 3.15 4.0 7.35 L4.45 8.0 4.9 9.35 Q4.6 10.5 3.15 10.95 L2.1 13.5 Q-1.2 19.95 -6.25 18.4 -11.65 16.55 -10.05 8.15 -10.9 5.05 -8.2 4.6 L-8.25 4.55 Q-9.4 2.9 -7.25 2.1 L-7.25 1.8 -7.5 0.8 Q-7.8 -0.35 -7.05 -1.2 L-5.65 -2.05 -3.3 -7.05 -0.1 -14.25 M-0.25 -2.75 Q-3.4 -3.15 -5.65 -2.05 M0.55 3.3 Q0.6 1.55 -7.25 2.1 M0.15 6.85 Q-4.25 5.05 -8.2 4.6 M4.0 7.35 Q2.75 5.85 -0.35 4.15" fill="none" stroke="#000000" stroke-linecap="round" stroke-linejoin="round" stroke-width="1.5"/>
  </g>
</svg>
