<?xml version="1.0" encoding="UTF-8" standalone="no"?>
<svg xmlns:xlink="http://www.w3.org/1999/xlink" height="13.85px" width="18.95px" xmlns="http://www.w3.org/2000/svg">
  <g transform="matrix(1.0, 0.0, 0.0, 1.0, 9.05, 8.15)">
    <path d="M5.75 -6.15 L2.9 -5.95 Q1.9 -7.35 0.15 -7.4 -1.6 -7.5 -2.55 -6.45 -5.0 -7.95 -5.75 -4.85 -8.35 -4.0 -7.4 -1.55 -8.0 -1.0 -8.25 0.2 -8.55 1.5 -6.7 2.4 -5.3 2.85 -3.65 2.1 -2.95 3.4 -0.9 3.95 0.7 4.2 2.1 3.3 3.3 4.75 4.9 4.95 7.1 4.5 6.85 2.9 8.3 2.9 8.75 1.4 9.05 0.2 8.35 -0.65 10.1 -3.05 7.95 -4.05 7.25 -5.85 5.75 -6.15 Z" fill="none" stroke="#000000" stroke-linecap="round" stroke-linejoin="round" stroke-width="1.5"/>
  </g>
</svg>
