<?xml version="1.0" encoding="UTF-8" standalone="no"?>
<svg xmlns:xlink="http://www.w3.org/1999/xlink" height="36.95px" width="21.2px" xmlns="http://www.w3.org/2000/svg">
  <g transform="matrix(1.0, 0.0, 0.0, 1.0, 10.6, 18.45)">
    <path d="M9.85 -9.1 L9.1 -6.7 8.85 -5.8 9.55 -5.25 Q10.35 -4.25 8.6 -3.9 L8.65 -3.9 8.55 -3.5 7.75 -0.95 6.9 1.7 5.85 4.2 Q6.75 5.05 6.55 5.8 L4.8 5.95 3.75 8.75 2.85 11.3 Q-4.7 10.4 -9.15 6.95 L-8.2 4.1 -7.8 2.85 Q-8.65 2.65 -8.8 1.9 -9.1 0.75 -7.35 0.3 L-7.4 0.3 -6.45 -2.4 -5.4 -5.0 -4.2 -7.65 -4.0 -7.55 Q-5.1 -8.45 -4.05 -9.5 L-2.85 -9.25 Q-1.85 -11.35 -0.85 -12.7 1.85 -10.5 9.85 -9.1" fill="#fefcff" fill-rule="evenodd" stroke="none"/>
    <path d="M9.85 -9.1 Q1.85 -10.5 -0.85 -12.7 2.85 -17.2 8.4 -18.45 9.3 -18.15 10.55 -16.65 10.7 -16.0 10.05 -16.1 11.0 -12.6 9.85 -9.1 M-9.15 6.95 Q-4.7 10.4 2.85 11.3 L2.0 13.6 Q-1.4 20.4 -6.3 17.8 -9.7 16.0 -10.6 12.0 L-9.15 6.95" fill="#f7f5ff" fill-rule="evenodd" stroke="none"/>
  </g>
</svg>
