<?xml version="1.0" encoding="UTF-8" standalone="no"?>
<svg xmlns:xlink="http://www.w3.org/1999/xlink" height="24.0px" width="19.0px" xmlns="http://www.w3.org/2000/svg">
  <g transform="matrix(1.0, 0.0, 0.0, 1.0, 9.5, 12.0)">
    <path d="M8.5 -5.1 L7.1 -5.0 Q6.3 -5.9 4.0 -5.5 2.9 -7.7 0.6 -6.2 -0.15 -8.55 -2.4 -7.5 L-3.2 -8.55 -1.2 -12.0 Q1.5 -9.8 9.5 -8.4 L8.75 -6.0 8.5 -5.1 M-8.15 3.55 L-6.95 3.5 Q-6.95 5.55 -3.65 5.15 -3.7 5.7 -2.4 6.45 -1.15 7.1 0.55 6.15 2.55 8.0 3.95 6.35 L4.45 6.65 3.4 9.45 2.5 12.0 Q-5.05 11.1 -9.5 7.65 L-8.55 4.8 -8.15 3.55" fill="#e68cff" fill-rule="evenodd" stroke="none"/>
  </g>
</svg>
