<?xml version="1.0" encoding="UTF-8" standalone="no"?>
<svg xmlns:xlink="http://www.w3.org/1999/xlink" height="38.95px" width="23.15px" xmlns="http://www.w3.org/2000/svg">
  <g transform="matrix(1.0, 0.0, 0.0, 1.0, 11.75, 19.05)">
    <path d="M8.7 -5.4 L8.95 -6.3 9.7 -8.7 M4.65 6.35 L3.6 9.15 2.7 11.7 1.85 14.0 Q-1.55 20.8 -6.45 18.2 -9.85 16.4 -10.75 12.4 L-9.3 7.35 -8.35 4.5 -7.95 3.25 M-3.0 -8.85 L-1.0 -12.3 Q2.7 -16.8 8.25 -18.05 9.15 -17.75 10.4 -16.25" fill="none" stroke="#000000" stroke-linecap="round" stroke-linejoin="round" stroke-width="2.0"/>
    <path d="M0.55 -1.85 L1.25 -0.25 3.05 -1.3 M-0.2 -2.05 L-2.0 -1.2 -1.15 0.65 M-0.7 0.75 L1.25 -0.25 2.1 1.35 M3.3 1.6 L5.0 0.5 4.1 -1.1 M6.75 -0.65 L5.0 0.5 5.95 2.0 M-4.65 -0.55 L-4.75 -2.45 -6.2 -1.95 M-4.05 -0.3 L-2.0 -1.2 -2.65 -2.85 M-4.95 -4.05 L-4.75 -2.45 -3.1 -3.05" fill="none" stroke="#000000" stroke-linecap="round" stroke-linejoin="round" stroke-width="0.8"/>
    <path d="M1.5 -2.0 L4.3 -3.95 M0.55 -5.15 L-2.7 -3.15 M5.65 -0.85 L8.4 -3.1 M3.85 -1.5 L6.6 -3.45 M1.75 1.65 L2.15 4.1 M3.4 2.05 L3.75 4.2 M0.05 0.95 L0.3 4.15 M5.25 4.6 L4.85 2.25 M-0.9 -2.25 L2.25 -4.45 M-4.85 -5.05 L-3.0 -6.15 M-4.25 -3.95 L-1.35 -5.8 M-3.7 0.15 L-3.35 3.2 M-1.55 3.75 L-1.85 0.45 M-6.2 1.8 L-6.45 -1.25 M-4.95 2.55 L-5.35 -0.45" fill="none" stroke="#000000" stroke-linecap="round" stroke-linejoin="round" stroke-opacity="0.4" stroke-width="0.30000000000000004"/>
    <path d="M3.05 -1.3 L0.55 -1.85 -0.2 -2.05 -0.9 -2.25 -2.65 -2.85 -3.1 -3.05 -4.95 -4.05 -5.05 -4.15 -5.55 -4.6 -4.35 -7.25 -4.15 -7.15 Q-5.25 -8.05 -4.2 -9.1 L-3.0 -8.85 Q-2.55 -8.55 -2.2 -7.8 0.05 -8.85 0.8 -6.5 3.1 -8.0 4.2 -5.8 6.5 -6.2 7.3 -5.3 L8.7 -5.4 9.4 -4.85 Q10.2 -3.85 8.45 -3.5 L8.5 -3.5 8.4 -3.1 7.6 -0.55 6.75 2.1 5.7 4.6 Q6.6 5.45 6.4 6.2 L4.65 6.35 4.15 6.05 Q2.75 7.7 0.75 5.85 -0.95 6.8 -2.2 6.15 -3.5 5.4 -3.45 4.85 -6.75 5.25 -6.75 3.2 L-7.95 3.25 Q-8.8 3.05 -8.95 2.3 -9.25 1.15 -7.5 0.7 L-7.55 0.7 -6.6 -2.0 -5.55 -4.6 M-1.15 0.65 L-0.7 0.75 0.05 0.95 2.1 1.35 3.3 1.6 5.95 2.0 6.25 2.05 6.75 2.1 M4.1 -1.1 L3.05 -1.3 M8.45 -3.5 L8.15 -3.55 0.55 -5.15 -1.35 -5.8 Q-2.85 -6.35 -3.85 -6.95 L-4.15 -7.15 M5.65 -0.85 L6.75 -0.65 7.15 -0.6 7.6 -0.55 M4.1 -1.1 L5.65 -0.85 M5.25 4.6 L5.3 4.6 5.7 4.6 M0.3 4.15 L5.25 4.6 M-6.6 -2.0 L-6.15 -1.5 Q-5.6 -1.05 -4.65 -0.55 L-4.05 -0.3 -1.85 0.45 -1.15 0.65 M-3.35 3.2 L-1.55 3.75 -0.9 3.9 0.3 4.15 M-4.95 2.55 L-3.35 3.2 M-7.5 0.7 L-7.15 1.05 -6.2 1.8 -4.95 2.55" fill="none" stroke="#000000" stroke-linecap="round" stroke-linejoin="round" stroke-width="1.0"/>
  </g>
</svg>
