<?xml version="1.0" encoding="UTF-8" standalone="no"?>
<svg xmlns:xlink="http://www.w3.org/1999/xlink" height="39.15px" width="23.9px" xmlns="http://www.w3.org/2000/svg">
  <g transform="matrix(1.0, 0.0, 0.0, 1.0, 11.75, 19.25)">
    <path d="M11.2 -12.65 Q5.45 -14.1 4.4 -17.25 M-2.55 -10.05 Q2.25 -7.5 8.95 -6.3 M4.0 9.3 L3.6 9.15 Q-4.45 7.75 -8.35 4.5 M6.7 0.75 Q-1.2 0.35 -5.55 -3.15" fill="none" stroke="#000000" stroke-linecap="round" stroke-linejoin="round" stroke-width="1.0"/>
    <path d="M4.4 -17.25 Q2.75 -16.6 1.45 -15.75 -1.0 -13.6 -2.15 -11.0 L-2.55 -10.05 -5.55 -3.15 -8.35 4.5 Q-9.85 8.85 -10.75 12.4 -9.85 16.4 -6.45 18.2 -1.55 20.8 1.85 14.0 L3.6 9.15 6.05 2.55 6.7 0.75 8.95 -6.3 9.4 -8.1 M11.15 -16.85 Q9.8 -18.25 7.55 -18.25 5.85 -17.85 4.4 -17.25" fill="none" stroke="#000000" stroke-linecap="round" stroke-linejoin="round" stroke-width="2.0"/>
  </g>
</svg>
