<?xml version="1.0" encoding="UTF-8" standalone="no"?>
<svg xmlns:xlink="http://www.w3.org/1999/xlink" height="27.75px" width="21.9px" xmlns="http://www.w3.org/2000/svg">
  <g transform="matrix(1.0, 0.0, 0.0, 1.0, 10.9, 19.25)">
    <path d="M10.0 -12.85 Q6.05 -14.6 4.15 -16.5 M-1.55 -10.65 Q1.85 -7.5 9.15 -5.6 M7.4 2.3 Q-1.35 0.1 -5.85 -4.35" fill="none" stroke="#000000" stroke-linecap="round" stroke-linejoin="round" stroke-width="1.0"/>
    <path d="M9.15 -5.6 L9.3 -6.9 10.0 -12.85 M4.15 -16.5 Q0.65 -14.7 -1.55 -10.7 L-1.55 -10.65 Q-3.55 -7.1 -5.15 -5.25 L-5.85 -4.35 -9.9 0.75 Q-7.25 3.55 -2.9 5.55 1.4 7.55 6.65 7.5 L7.4 2.3 8.0 -0.25 9.15 -5.6 M8.75 -18.25 Q5.95 -17.45 4.15 -16.5" fill="none" stroke="#000000" stroke-linecap="round" stroke-linejoin="round" stroke-width="2.0"/>
  </g>
</svg>
