<?xml version="1.0" encoding="UTF-8" standalone="no"?>
<svg xmlns:xlink="http://www.w3.org/1999/xlink" height="133.8px" width="104.65px" xmlns="http://www.w3.org/2000/svg">
  <g transform="matrix(1.0, 0.0, 0.0, 1.0, 6.25, 59.65)">
    <path d="M12.45 -58.65 Q-2.15 -55.75 -5.0 -45.55 -5.4 -43.6 -5.1 -41.65 -4.5 -36.85 0.15 -32.1 15.3 -33.55 21.95 -50.75 20.3 -58.5 12.45 -58.65 M96.95 67.65 L97.35 66.4 Q97.85 61.75 93.8 56.5 82.0 56.4 75.2 61.25 73.85 66.25 75.95 71.95 76.4 72.7 77.7 72.95 80.75 73.65 88.75 71.7 L91.05 71.1 Q95.8 69.75 96.95 67.65" fill="none" stroke="#000000" stroke-linecap="round" stroke-linejoin="round" stroke-width="2.0"/>
  </g>
</svg>
