<?xml version="1.0" encoding="UTF-8" standalone="no"?>
<svg xmlns:xlink="http://www.w3.org/1999/xlink" height="17.65px" width="18.9px" xmlns="http://www.w3.org/2000/svg">
  <g transform="matrix(1.0, 0.0, 0.0, 1.0, 10.3, 12.5)">
    <path d="M3.75 -7.85 Q3.7 -10.15 1.9 -11.5 -2.3 -7.75 -9.3 -8.25 -9.0 -6.4 -8.55 -5.65 L-7.7 -4.3 Q-7.1 -1.5 -6.9 1.3 -6.8 2.75 -6.05 4.05 -0.85 4.55 1.75 2.55 1.15 1.1 1.2 -1.3 3.3 -2.85 6.9 -2.6 L6.7 -3.05 M3.75 -7.85 L6.55 -4.45 Q7.45 -3.3 7.6 -2.55 L7.1 -2.05 6.9 -2.6 7.6 -2.55" fill="none" stroke="#000000" stroke-linecap="round" stroke-linejoin="round" stroke-width="2.0"/>
    <path d="M-7.7 -4.3 Q-0.05 -4.65 3.75 -7.85 Z" fill="none" stroke="#000000" stroke-linecap="round" stroke-linejoin="round" stroke-width="1.0"/>
  </g>
</svg>
