<?xml version="1.0" encoding="UTF-8" standalone="no"?>
<svg xmlns:xlink="http://www.w3.org/1999/xlink" height="29.0px" width="23.6px" xmlns="http://www.w3.org/2000/svg">
  <g transform="matrix(1.0, 0.0, 0.0, 1.0, 13.5, 19.3)">
    <path d="M-10.15 -9.55 L-9.8 -8.95 -7.7 -4.3 Q-7.1 -1.5 -6.9 1.3 -6.7 5.1 -2.0 7.7 2.6 10.25 7.05 6.25 11.45 2.15 6.35 -4.35 L3.75 -7.85 1.35 -13.5 Q0.9 -16.7 -0.85 -18.3 -7.3 -14.85 -12.25 -14.9 -13.2 -13.1 -10.2 -9.55 M1.2 -1.3 Q2.85 4.2 5.75 2.65 8.6 1.05 6.7 -3.05" fill="none" stroke="#000000" stroke-linecap="round" stroke-linejoin="round" stroke-width="2.0"/>
    <path d="M1.35 -13.5 Q-1.0 -10.75 -4.9 -9.95 L-10.15 -9.55 -10.2 -9.55" fill="none" stroke="#000000" stroke-linecap="round" stroke-linejoin="round" stroke-width="1.0"/>
  </g>
</svg>
