<?xml version="1.0" encoding="UTF-8" standalone="no"?>
<svg xmlns:xlink="http://www.w3.org/1999/xlink" height="24.45px" width="22.15px" xmlns="http://www.w3.org/2000/svg">
  <g transform="matrix(1.0, 0.0, 0.0, 1.0, 13.5, 19.3)">
    <path d="M-10.15 -9.55 L-9.8 -8.95 -7.7 -4.3 Q-7.1 -1.5 -6.9 1.3 -6.8 2.75 -6.05 4.05 -0.85 4.55 1.75 2.55 1.15 1.1 1.2 -1.3 3.25 -2.85 7.65 -2.5 6.8 -2.85 6.7 -3.05 M7.65 -2.5 L6.35 -4.35 3.75 -7.85 1.35 -13.5 Q0.9 -16.7 -0.85 -18.3 -7.3 -14.85 -12.25 -14.9 -13.2 -13.1 -10.2 -9.55" fill="none" stroke="#000000" stroke-linecap="round" stroke-linejoin="round" stroke-width="2.0"/>
    <path d="M1.35 -13.5 Q-1.0 -10.75 -4.9 -9.95 L-10.15 -9.55 -10.2 -9.55" fill="none" stroke="#000000" stroke-linecap="round" stroke-linejoin="round" stroke-width="1.0"/>
  </g>
</svg>
