<?xml version="1.0" encoding="UTF-8" standalone="no"?>
<svg xmlns:xlink="http://www.w3.org/1999/xlink" height="31.65px" width="24.55px" xmlns="http://www.w3.org/2000/svg">
  <g transform="matrix(1.0, 0.0, 0.0, 1.0, 15.9, 26.5)">
    <path d="M-13.6 -18.25 Q-11.9 -13.6 -9.2 -7.9 L-7.7 -4.3 Q-7.1 -1.5 -6.9 1.3 -6.8 2.75 -6.05 4.05 -0.85 4.55 1.75 2.55 1.15 1.1 1.2 -1.3 3.1 -2.75 6.95 -2.55 L6.7 -3.05 M6.95 -2.55 L7.65 -2.5 6.35 -4.35 3.75 -7.85 -0.05 -16.25 -2.05 -21.9 -3.5 -25.5 Q-3.9 -24.4 -8.05 -22.75 -12.25 -21.15 -14.9 -22.05 L-14.9 -22.0 -13.6 -18.25" fill="none" stroke="#000000" stroke-linecap="round" stroke-linejoin="round" stroke-width="2.0"/>
    <path d="M-2.05 -21.9 Q-2.55 -20.3 -6.7 -19.05 -12.1 -17.65 -13.6 -18.25 Z" fill="none" stroke="#000000" stroke-linecap="round" stroke-linejoin="round" stroke-width="1.0"/>
  </g>
</svg>
