<?xml version="1.0" encoding="UTF-8" standalone="no"?>
<svg xmlns:xlink="http://www.w3.org/1999/xlink" height="24.6px" width="21.9px" xmlns="http://www.w3.org/2000/svg">
  <g transform="matrix(1.0, 0.0, 0.0, 1.0, 12.7, 18.75)">
    <path d="M1.2 -1.3 L1.45 -0.5 Q3.95 -3.15 7.2 -1.8 L6.7 -3.05 M8.2 -1.5 L6.35 -4.35 5.6 -5.3 3.75 -7.85 -0.65 -17.75 Q-3.45 -14.35 -11.55 -13.7 L-10.15 -10.25 -8.55 -5.65 -8.55 -5.6 -8.1 -4.0 -7.3 -0.75 -7.05 0.25 -6.9 1.3 Q-6.8 3.25 -5.5 4.85 0.1 4.8 3.25 2.5 2.2 1.65 1.45 -0.5 M8.2 -1.5 Q7.3 -1.45 7.2 -1.8 M-11.7 -13.95 L-11.55 -13.7" fill="none" stroke="#000000" stroke-linecap="round" stroke-linejoin="round" stroke-width="2.0"/>
    <path d="M6.9 -0.85 L8.2 -1.5 M-7.7 -0.85 L-7.3 -0.75" fill="none" stroke="#000000" stroke-linecap="round" stroke-linejoin="round" stroke-width="1.0"/>
  </g>
</svg>
