<?xml version="1.0" encoding="UTF-8" standalone="no"?>
<svg xmlns:xlink="http://www.w3.org/1999/xlink" height="33.5px" width="25.8px" xmlns="http://www.w3.org/2000/svg">
  <g transform="matrix(1.0, 0.0, 0.0, 1.0, 16.6, 27.65)">
    <path d="M1.2 -1.3 L1.45 -0.5 Q3.95 -3.15 7.2 -1.8 L6.7 -3.05 M8.2 -1.5 L6.35 -4.35 5.6 -5.3 3.75 -7.85 -0.65 -17.75 -0.65 -17.7 -4.2 -26.65 Q-5.1 -24.75 -9.85 -23.55 -14.6 -22.4 -15.6 -24.0 L-11.55 -13.7 -10.15 -10.25 -8.55 -5.65 -8.55 -5.6 -8.1 -4.0 -7.3 -0.75 -7.05 0.25 -6.9 1.3 Q-6.8 3.25 -5.5 4.85 0.1 4.8 3.25 2.5 2.2 1.65 1.45 -0.5 M7.4 -1.1 L7.2 -1.8" fill="none" stroke="#000000" stroke-linecap="round" stroke-linejoin="round" stroke-width="2.0"/>
    <path d="M6.9 -0.85 L7.4 -1.1 8.2 -1.5 M-7.7 -0.85 L-7.3 -0.75" fill="none" stroke="#000000" stroke-linecap="round" stroke-linejoin="round" stroke-width="1.0"/>
  </g>
</svg>
