<?xml version="1.0" encoding="UTF-8" standalone="no"?>
<svg xmlns:xlink="http://www.w3.org/1999/xlink" height="24.75px" width="21.95px" xmlns="http://www.w3.org/2000/svg">
  <g transform="matrix(1.0, 0.0, 0.0, 1.0, 15.9, 26.5)">
    <path d="M-8.55 -5.9 L-8.1 -4.5 -7.8 -2.75 Q-3.5 -6.95 5.05 -6.1 L3.75 -7.85 3.35 -8.75 -0.05 -16.25 -2.05 -21.9 -3.5 -25.5 Q-3.9 -24.4 -8.05 -22.75 -12.25 -21.15 -14.9 -22.05 L-14.9 -22.0 -13.6 -18.25 -10.05 -9.4 -8.55 -5.9" fill="none" stroke="#000000" stroke-linecap="round" stroke-linejoin="round" stroke-width="2.0"/>
    <path d="M3.35 -8.75 L-3.65 -9.0 Q-7.0 -7.8 -8.55 -5.9 M-13.6 -18.25 Q-12.1 -17.65 -6.7 -19.05 -2.55 -20.3 -2.05 -21.9" fill="none" stroke="#000000" stroke-linecap="round" stroke-linejoin="round" stroke-width="1.0"/>
  </g>
</svg>
