<?xml version="1.0" encoding="UTF-8" standalone="no"?>
<svg xmlns:xlink="http://www.w3.org/1999/xlink" height="20.8px" width="20.45px" xmlns="http://www.w3.org/2000/svg">
  <g transform="matrix(1.0, 0.0, 0.0, 1.0, 11.85, 15.65)">
    <path d="M-8.6 -6.1 L-9.3 -6.45 Q-10.85 -9.1 -10.85 -10.95 -8.6 -11.05 -4.5 -12.1 -0.4 -13.15 0.95 -14.65 2.75 -12.75 2.85 -10.85 L2.5 -9.1 2.9 -9.35 6.55 -4.45 Q7.45 -3.3 7.6 -2.55 L7.1 -2.05 6.9 -2.6 Q3.3 -2.85 1.2 -1.3 1.15 1.1 1.75 2.55 -0.85 4.55 -6.05 4.05 -6.8 2.75 -6.9 1.3 -7.1 -1.5 -8.6 -6.1 L-8.65 -6.15 Q-2.35 -6.1 2.5 -9.1 M6.7 -3.05 L6.9 -2.6 7.6 -2.55" fill="none" stroke="#000000" stroke-linecap="round" stroke-linejoin="round" stroke-width="2.0"/>
  </g>
</svg>
