<?xml version="1.0" encoding="UTF-8" standalone="no"?>
<svg xmlns:xlink="http://www.w3.org/1999/xlink" height="44.95px" width="29.85px" xmlns="http://www.w3.org/2000/svg">
  <g transform="matrix(1.0, 0.0, 0.0, 1.0, 11.85, 15.65)">
    <path d="M9.65 3.25 L17.25 28.55 10.65 24.5 6.0 7.3 8.4 3.85 9.65 3.25" fill="url(#gradient0)" fill-rule="evenodd" stroke="none"/>
    <path d="M8.4 3.85 Q8.75 1.45 7.5 -2.45 L7.1 -2.05 6.9 -2.6 Q3.3 -2.85 1.2 -1.3 1.15 1.1 1.75 2.55 -0.85 4.55 -6.05 4.05 -6.8 2.75 -6.9 1.3 -7.1 -1.5 -8.6 -6.1 L-9.3 -6.45 Q-10.85 -9.1 -10.85 -10.95 -8.6 -11.05 -4.5 -12.1 -0.4 -13.15 0.95 -14.65 2.75 -12.75 2.85 -10.85 L2.5 -9.1 2.9 -9.35 6.2 -4.9 8.85 -4.5 Q11.2 -1.95 10.65 2.85 L9.65 3.25 8.4 3.85 M6.7 -3.05 L6.9 -2.6 7.5 -2.55 7.4 -3.15 6.55 -4.45 6.2 -4.9 M7.5 -2.45 L7.5 -2.55 7.6 -2.55 7.4 -3.15 M7.5 -2.45 L7.6 -2.55 M2.5 -9.1 Q-2.35 -6.1 -8.65 -6.15 L-8.6 -6.1" fill="none" stroke="#000000" stroke-linecap="round" stroke-linejoin="round" stroke-width="2.0"/>
    <path d="M9.65 3.25 L17.25 28.55 10.65 24.5 6.0 7.3 8.4 3.85 Z" fill="none" stroke="#000000" stroke-linecap="round" stroke-linejoin="round" stroke-width="1.5"/>
  </g>
  <defs>
    <linearGradient gradientTransform="matrix(0.0041, 0.0135, -0.0037, 0.0011, 11.9, 16.25)" gradientUnits="userSpaceOnUse" id="gradient0" spreadMethod="pad" x1="-819.2" x2="819.2">
      <stop offset="0.0" stop-color="#b4b4b4"/>
      <stop offset="0.984313725490196" stop-color="#f0f0f0"/>
    </linearGradient>
  </defs>
</svg>
