<?xml version="1.0" encoding="UTF-8" standalone="no"?>
<svg xmlns:xlink="http://www.w3.org/1999/xlink" height="181.6px" width="35.9px" xmlns="http://www.w3.org/2000/svg">
  <g transform="matrix(1.0, 0.0, 0.0, 1.0, 17.95, 90.8)">
    <path d="M3.35 -14.0 Q3.5 -27.05 0.85 -42.15" fill="none" stroke="#000000" stroke-linecap="round" stroke-linejoin="round" stroke-width="1.4000000000000001"/>
    <path d="M-16.95 -48.65 Q-12.0 -29.3 -10.65 20.1 L-10.6 23.45 Q-8.3 63.45 1.65 89.8 -1.3 74.2 1.4 46.45 3.75 21.95 3.55 4.05 L3.45 -0.55 Q3.2 -4.75 3.1 -9.15 M13.05 -37.5 L13.05 -17.6 Q18.95 -43.05 15.9 -60.3 12.85 -77.6 -1.5 -88.6 -10.05 -91.6 -13.75 -86.95 M13.05 -17.6 Q13.0 7.95 11.1 40.05 4.7 22.5 3.45 -0.55" fill="none" stroke="#000000" stroke-linecap="round" stroke-linejoin="round" stroke-width="2.0"/>
  </g>
</svg>
