<?xml version="1.0" encoding="UTF-8" standalone="no"?>
<svg xmlns:xlink="http://www.w3.org/1999/xlink" height="18.35px" width="21.55px" xmlns="http://www.w3.org/2000/svg">
  <g transform="matrix(1.0, 0.0, 0.0, 1.0, 12.95, 15.75)">
    <path d="M2.15 -5.8 Q6.95 -5.25 7.85 -2.45 3.1 -2.85 1.8 1.85 -3.9 0.6 -7.75 -1.25 L-8.0 -3.4 Q-8.45 -5.55 -9.55 -8.1 -6.55 -9.35 -4.15 -10.9 -8.6 -10.55 -10.7 -11.4 -10.95 -13.0 -12.2 -14.8 L0.25 -14.35 0.9 -15.0 1.6 -13.05 Q2.55 -10.85 4.7 -8.25 L2.15 -5.8 1.4 -5.25 Q-2.5 -2.45 -7.75 -1.25" fill="none" stroke="#000000" stroke-linecap="round" stroke-linejoin="round" stroke-width="1.5"/>
    <path d="M1.4 -5.25 Q-1.1 -2.05 1.8 1.85 M-8.0 -3.4 Q-1.65 -7.5 1.6 -13.05 M-4.15 -10.9 Q-1.65 -12.5 0.25 -14.35" fill="none" stroke="#000000" stroke-linecap="round" stroke-linejoin="round" stroke-width="1.0"/>
  </g>
</svg>
