<?xml version="1.0" encoding="UTF-8" standalone="no"?>
<svg xmlns:xlink="http://www.w3.org/1999/xlink" height="29.15px" width="20.95px" xmlns="http://www.w3.org/2000/svg">
  <g transform="matrix(1.0, 0.0, 0.0, 1.0, 10.45, 14.55)">
    <path d="M-1.0 -6.0 L-1.75 -7.1 -4.15 -12.55 -0.95 -12.55 1.3 -14.55 3.4 -9.85 4.75 -12.0 10.5 1.3 6.85 12.55 6.4 3.4 3.95 -6.6 Q4.2 -1.35 3.75 3.9 2.65 0.05 0.05 -4.35 L3.95 5.6 -0.15 14.6 -0.15 6.25 -5.55 -5.45 -2.45 -4.9 -1.0 -6.0 M-3.45 4.2 L-8.5 13.1 -7.9 5.2 -10.45 -7.8 -7.2 -6.6 -3.45 4.2" fill="#d7d7d7" fill-rule="evenodd" stroke="none"/>
  </g>
</svg>
