<?xml version="1.0" encoding="UTF-8" standalone="no"?>
<svg xmlns:xlink="http://www.w3.org/1999/xlink" height="87.55px" width="57.95px" xmlns="http://www.w3.org/2000/svg">
  <g transform="matrix(1.0, 0.0, 0.0, 1.0, -91.05, 68.55)">
    <path d="M102.8 -11.05 Q101.2 -11.6 100.0 -12.3 96.65 -14.2 95.8 -17.5 90.05 -30.75 93.1 -41.4 98.95 -54.75 120.85 -67.55 118.9 -61.3 120.85 -51.25 121.6 -38.25 119.0 -29.85 116.85 -22.85 112.4 -19.1 L114.45 -19.95 Q128.5 -19.45 141.1 0.4 146.85 9.5 148.0 18.0 140.1 16.65 133.6 14.95 122.85 12.15 115.8 8.45 L112.45 6.45 Q101.1 -1.0 100.95 -5.85 100.6 -8.8 102.8 -11.05 L105.0 -12.75 Q105.25 -13.05 107.05 -14.25 107.9 -16.9 112.4 -19.1" fill="none" stroke="#000000" stroke-linecap="round" stroke-linejoin="round" stroke-width="2.0"/>
    <path d="M100.0 -12.3 Q97.45 -38.0 111.1 -46.8 M107.05 -14.25 Q118.7 -9.55 125.25 -0.2" fill="none" stroke="#000000" stroke-linecap="round" stroke-linejoin="round" stroke-width="1.4000000000000001"/>
  </g>
</svg>
