<?xml version="1.0" encoding="UTF-8" standalone="no"?>
<svg xmlns:xlink="http://www.w3.org/1999/xlink" height="23.65px" width="19.0px" xmlns="http://www.w3.org/2000/svg">
  <g transform="matrix(1.0, 0.0, 0.0, 1.0, 9.5, 11.8)">
    <path d="M5.1 -0.6 L6.8 0.45 8.35 -4.1 9.5 -1.45 5.85 9.8 5.4 0.65 5.1 -0.6 M2.75 -11.8 L2.95 -9.35 Q3.2 -4.1 2.75 1.15 1.65 -2.7 -0.95 -7.1 L-1.0 -7.15 -1.55 -8.0 1.4 -7.05 2.75 -11.8 M2.05 0.55 L2.95 2.85 -1.15 11.85 -1.15 3.5 -2.25 1.15 0.55 3.3 2.05 0.55 M-9.2 0.9 L-7.25 2.7 -5.0 -0.1 -4.45 1.45 -9.5 10.35 -8.9 2.45 -9.2 0.9" fill="#f03d3d" fill-rule="evenodd" stroke="none"/>
  </g>
</svg>
