<?xml version="1.0" encoding="UTF-8" standalone="no"?>
<svg xmlns:xlink="http://www.w3.org/1999/xlink" height="30.15px" width="21.95px" xmlns="http://www.w3.org/2000/svg">
  <g transform="matrix(1.0, 0.0, 0.0, 1.0, 6.0, 3.35)">
    <path d="M9.35 -0.95 L9.7 -0.3 15.45 13.0 11.8 24.25 11.35 15.1 8.9 5.1 Q9.15 10.35 8.7 15.6 7.6 11.75 5.0 7.35 L8.9 17.3 4.8 26.3 4.8 17.95 -0.6 6.25 2.5 6.8 3.95 5.7 3.2 4.6 0.8 -0.85 4.0 -0.85 6.25 -2.85 8.35 1.85 9.7 -0.3 M5.0 7.35 L4.95 7.3 4.4 6.45 3.95 5.7 M8.35 1.85 L8.7 2.6 8.7 2.65 8.9 5.1 M1.5 15.9 L-3.55 24.8 -2.95 16.9 -5.5 3.9 -2.25 5.1 1.5 15.9" fill="none" stroke="#000000" stroke-linecap="round" stroke-linejoin="round" stroke-width="1.0"/>
  </g>
</svg>
