<?xml version="1.0" encoding="UTF-8" standalone="no"?>
<svg xmlns:xlink="http://www.w3.org/1999/xlink" height="24.0px" width="21.65px" xmlns="http://www.w3.org/2000/svg">
  <g transform="matrix(1.0, 0.0, 0.0, 1.0, 11.4, 14.2)">
    <path d="M-10.55 -8.45 Q-5.55 -8.85 -2.1 -11.15 0.8 -13.6 2.55 -13.3 L4.4 -7.85 Q10.35 -1.05 9.2 3.5 7.35 8.6 0.75 8.95 -4.5 7.1 -6.1 4.35 -7.7 1.6 -8.0 -3.7 -8.15 -4.65 -8.9 -5.8 L-10.55 -8.45 M1.2 -1.1 Q1.9 2.7 5.1 2.8 8.75 2.0 6.25 -2.7" fill="none" stroke="#000000" stroke-linecap="round" stroke-linejoin="round" stroke-width="1.7000000000000002"/>
    <path d="M-6.35 -5.05 Q-3.4 -5.35 1.3 -8.7 0.0 -5.5 -0.8 -5.2" fill="none" stroke="#000000" stroke-linecap="round" stroke-linejoin="round" stroke-opacity="0.29803923" stroke-width="1.0"/>
  </g>
</svg>
