<?xml version="1.0" encoding="UTF-8" standalone="no"?>
<svg xmlns:xlink="http://www.w3.org/1999/xlink" height="61.35px" width="69.05px" xmlns="http://www.w3.org/2000/svg">
  <g transform="matrix(1.0, 0.0, 0.0, 1.0, 36.8, 19.45)">
    <path d="M15.7 -1.3 L14.4 -2.7 Q8.85 1.55 4.6 1.5 2.5 3.9 -0.75 6.25 11.85 10.6 19.55 2.85 L16.95 0.1 15.7 -1.3 Q18.5 -6.45 23.2 -12.1 L15.1 -17.85 Q10.95 -17.2 6.85 -11.55 L8.35 -10.55 Q10.0 -4.4 4.6 1.5 M16.95 0.1 L24.65 -2.0 31.25 4.65 Q26.35 5.7 19.6 8.7 L30.6 17.1 26.4 22.25 12.15 12.65 21.2 23.9 16.35 27.45 20.7 34.45 14.2 38.95 9.0 31.25 10.7 37.55 2.25 39.85 0.05 31.75 -5.25 32.5 -6.2 40.9 -14.7 40.85 -14.6 36.15 -21.2 34.75 -17.8 24.7 Q-25.95 25.5 -31.4 20.35 L-27.9 14.55 Q-32.9 12.45 -35.8 6.6 L-27.95 2.75 Q-31.45 0.7 -33.25 -5.2 L-25.0 -7.45 Q-23.6 -3.75 -18.85 -2.7 -21.5 -6.35 -22.3 -10.5 L-13.4 -12.8 -14.25 -15.9 -4.95 -18.45 -1.15 -4.55 Q0.55 -9.05 1.3 -15.1 L6.85 -11.55 M19.6 8.7 Q17.0 9.9 14.05 11.4 L11.55 12.25 12.15 12.65 M11.55 12.25 Q7.45 13.05 3.3 10.05 L4.9 16.0 15.65 28.05 16.35 27.45 M0.05 31.75 L1.65 31.55 -0.05 11.0 Q-2.75 17.35 -7.4 19.35 L-7.45 19.45 -6.3 32.65 -5.25 32.5 M4.9 16.0 L9.0 31.25 M-27.95 2.75 L-25.8 1.7 Q-20.2 9.35 -13.55 7.45 -17.45 5.3 -20.4 0.0 L-17.7 -0.65 -18.85 -2.7 M-17.7 -0.65 L-8.8 -2.7 Q-11.65 -7.3 -13.4 -12.8 M-1.15 -4.55 Q-2.65 -0.5 -4.9 2.4 L-2.9 4.4 -0.75 6.25 -0.45 6.7 3.3 10.05 M-0.45 6.7 L-0.05 11.0 M-13.55 7.45 L-12.45 7.9 -12.3 8.0 -4.5 8.2 Q-3.3 6.6 -2.9 4.4 M-17.8 24.7 L-16.1 19.8 -20.25 18.35 -19.95 15.2 Q-24.75 15.85 -27.0 13.05 L-27.9 14.55 M-7.4 19.35 Q-11.1 21.0 -16.1 19.8 M-19.95 15.2 L-19.6 12.05 Q-8.15 13.3 -4.5 8.2 M-7.45 19.45 L-12.95 36.55 -14.6 36.15 M-4.9 2.4 Q-7.05 0.0 -8.8 -2.7" fill="none" stroke="#000000" stroke-linecap="round" stroke-linejoin="round" stroke-width="2.0"/>
  </g>
</svg>
