<?xml version="1.0" encoding="UTF-8" standalone="no"?>
<svg xmlns:xlink="http://www.w3.org/1999/xlink" height="24.75px" width="20.55px" xmlns="http://www.w3.org/2000/svg">
  <g transform="matrix(1.0, 0.0, 0.0, 1.0, 11.95, 17.0)">
    <path d="M2.85 -9.65 Q3.05 -11.35 1.45 -12.75 1.6 -14.5 0.25 -16.0 -4.75 -12.7 -10.95 -12.05 -10.45 -9.45 -9.35 -8.65 -8.8 -6.5 -8.3 -6.3 L-7.8 -6.1 Q-3.35 -6.0 2.85 -9.65 L3.0 -9.45 6.55 -4.45 Q7.45 -3.3 7.6 -2.55 L7.1 -2.05 6.9 -2.6 Q3.3 -2.85 1.2 -1.3 1.15 1.1 4.15 3.05 -0.85 4.55 -3.7 6.75 -6.35 5.2 -6.7 1.85 L-7.8 -6.1" fill="none" stroke="#000000" stroke-linecap="round" stroke-linejoin="round" stroke-width="2.0"/>
  </g>
</svg>
