<?xml version="1.0" encoding="UTF-8" standalone="no"?>
<svg xmlns:xlink="http://www.w3.org/1999/xlink" height="38.75px" width="36.15px" xmlns="http://www.w3.org/2000/svg">
  <g transform="matrix(1.0, 0.0, 0.0, 1.0, 12.9, 11.65)">
    <path d="M16.85 18.5 L15.85 19.55 Q14.9 20.25 13.2 20.65 L13.45 17.25 13.45 16.1 Q16.1 15.4 17.15 17.4 L16.85 18.5 M9.1 12.15 Q9.8 13.3 10.0 14.35 8.1 16.65 6.0 14.9 L6.6 12.35 7.2 9.75 9.1 12.15 M1.8 13.3 L2.25 15.75 Q-0.15 17.2 -1.65 15.55 L-0.65 13.15 -0.1 11.95 0.8 10.25 1.65 12.75 1.8 13.3 M-7.25 11.85 L-5.25 9.7 -5.1 12.15 -4.9 15.45 Q-7.8 16.45 -8.8 14.0 L-7.25 11.85" fill="#ffffff" fill-rule="evenodd" stroke="none"/>
    <path d="M15.85 19.55 Q15.45 23.85 11.55 24.6 8.5 25.2 6.55 23.05 5.1 25.95 2.25 26.35 -2.45 25.8 -3.8 23.05 -5.3 25.2 -8.0 24.65 -13.4 22.35 -11.8 16.5 -10.75 13.9 -9.15 12.75 -10.75 8.05 -8.35 -0.7 L-8.35 -0.75 -9.15 -5.25 Q-1.8 -5.95 3.0 -10.9 7.55 -6.15 10.05 -1.95 L10.1 -1.9 Q17.2 3.15 20.4 7.8 24.8 13.55 20.05 17.5 18.55 18.7 16.85 18.5 L15.85 19.55 Q14.9 20.25 13.2 20.65 L13.45 17.25 Q11.45 15.85 11.1 13.45 10.1 12.45 9.1 12.15 9.8 13.3 10.0 14.35 8.1 16.65 6.0 14.9 L6.6 12.35 5.45 13.15 Q4.3 14.2 4.05 15.75 3.75 17.8 5.0 20.55 5.6 22.05 6.55 23.05 M6.6 12.35 L7.2 9.75 9.1 12.15 M4.05 15.75 Q3.55 13.85 1.8 13.3 L2.25 15.75 Q-0.15 17.2 -1.65 15.55 L-0.65 13.15 Q-2.45 13.45 -3.45 15.4 -4.1 16.9 -4.3 19.45 -4.55 21.5 -3.8 23.05 M-0.65 13.15 L-0.1 11.95 0.8 10.25 1.65 12.75 1.8 13.3 M16.85 18.5 L17.15 17.4 Q16.1 15.4 13.45 16.1 L13.45 17.25 M11.35 9.15 Q10.8 11.55 11.1 13.45 M-7.25 11.85 L-5.25 9.7 -5.1 12.15 Q-3.65 12.9 -3.45 15.4 M-5.1 12.15 L-4.9 15.45 Q-7.8 16.45 -8.8 14.0 L-7.25 11.85 Q-8.3 12.05 -9.15 12.75" fill="none" stroke="#000000" stroke-linecap="round" stroke-linejoin="round" stroke-width="1.5"/>
    <path d="M10.1 -1.9 Q7.45 -2.2 5.8 -1.4 M-8.35 -0.7 L-5.95 -0.9 M2.5 -1.1 L-2.7 -0.85" fill="none" stroke="#000000" stroke-linecap="round" stroke-linejoin="round" stroke-width="1.0"/>
  </g>
</svg>
