<?xml version="1.0" encoding="UTF-8" standalone="no"?>
<svg xmlns:xlink="http://www.w3.org/1999/xlink" height="12.25px" width="23.7px" xmlns="http://www.w3.org/2000/svg">
  <g transform="matrix(1.0, 0.0, 0.0, 1.0, 14.25, 13.6)">
    <path d="M5.2 -10.3 L3.45 -7.8 Q1.45 -7.0 0.85 -8.6 0.35 -10.2 1.85 -10.85 L5.1 -10.55 5.4 -10.55 5.2 -10.3 M-10.3 -5.1 L-7.6 -7.5 Q-5.75 -7.65 -5.45 -6.1 -5.25 -4.35 -7.25 -4.25 L-10.25 -4.9 -10.45 -5.0 -10.3 -5.1 M4.35 -11.7 L9.1 -12.35 5.85 -8.8 M-10.6 -6.4 L-13.9 -3.55 -9.6 -3.35 M-1.35 -9.15 L-2.4 -9.35 Q-3.2 -9.3 -3.7 -8.7 L-4.05 -8.2 -4.2 -7.25 Q-4.15 -6.45 -3.5 -6.0 -3.25 -5.75 -3.0 -5.65 L-2.1 -5.5 Q-1.3 -5.6 -0.75 -6.25 L-0.4 -6.7 -0.3 -7.6 Q-0.35 -8.4 -0.95 -8.95 L-1.35 -9.15" fill="none" stroke="#000000" stroke-linecap="round" stroke-linejoin="round" stroke-width="0.7000000000000001"/>
    <path d="M-4.05 -8.2 L-2.35 -7.8 -1.35 -9.15 M-0.4 -6.7 L-2.35 -7.8 -3.0 -5.65" fill="none" stroke="#000000" stroke-linecap="round" stroke-linejoin="round" stroke-opacity="0.4392157" stroke-width="0.5"/>
    <path d="M-10.25 -4.9 L-9.6 -3.35 -8.95 -2.2 Q-6.95 -1.7 -0.65 -3.85 5.7 -5.95 6.25 -7.25 L5.85 -8.8 5.2 -10.3 M5.1 -10.55 L4.35 -11.7 3.15 -12.85 -3.0 -10.9 Q-7.9 -9.15 -10.8 -7.6 L-10.6 -6.4 -10.3 -5.1" fill="none" stroke="#000000" stroke-linecap="round" stroke-linejoin="round" stroke-width="1.5"/>
  </g>
</svg>
