<?xml version="1.0" encoding="UTF-8" standalone="no"?>
<svg xmlns:xlink="http://www.w3.org/1999/xlink" height="25.55px" width="23.25px" xmlns="http://www.w3.org/2000/svg">
  <g transform="matrix(1.0, 0.0, 0.0, 1.0, 11.6, 12.8)">
    <path d="M11.15 7.95 Q7.2 12.9 -3.5 12.75 L-5.35 11.9 -6.95 10.65 -6.95 10.55 -7.85 4.5 Q-8.05 2.9 -8.5 1.55 L-8.55 1.4 -8.6 1.35 -8.7 1.0 -8.65 1.0 -8.2 1.2 -3.9 1.35 Q-1.15 0.75 1.55 -0.6 4.05 -1.85 5.0 -3.0 L5.2 -3.25 5.3 -3.15 Q7.35 -1.4 8.1 0.8 L9.1 3.55 Q11.45 5.5 11.6 6.6 11.85 7.45 11.15 7.95 M-11.6 -10.05 Q-10.45 -11.25 -7.15 -12.05 L-0.4 -12.5 3.3 -6.45 Q1.4 -4.8 -3.05 -3.35 -7.05 -1.85 -9.3 -2.0 -11.6 -6.2 -11.6 -10.05" fill="#e2b97a" fill-rule="evenodd" stroke="none"/>
  </g>
</svg>
