<?xml version="1.0" encoding="UTF-8" standalone="no"?>
<svg xmlns:xlink="http://www.w3.org/1999/xlink" height="23.75px" width="22.85px" xmlns="http://www.w3.org/2000/svg">
  <g transform="matrix(1.0, 0.0, 0.0, 1.0, 11.4, 11.85)">
    <path d="M3.5 -8.15 L3.4 -8.25 3.2 -8.0 Q2.25 -6.85 -0.25 -5.6 -2.95 -4.25 -5.7 -3.65 L-10.0 -3.8 -10.45 -4.0 -10.5 -4.05 -10.5 -4.0 -11.4 -7.05 -11.1 -7.0 Q-8.85 -6.85 -4.85 -8.35 -0.4 -9.8 1.5 -11.45 L1.85 -11.85 3.5 -8.15 M9.35 2.95 L11.45 7.2 Q10.6 8.65 8.2 9.75 5.8 10.85 1.45 11.5 L-6.65 11.75 Q-7.3 9.55 -7.15 6.9 L-5.3 7.75 Q5.4 7.9 9.35 2.95" fill="#677895" fill-rule="evenodd" stroke="none"/>
  </g>
</svg>
