<?xml version="1.0" encoding="UTF-8" standalone="no"?>
<svg xmlns:xlink="http://www.w3.org/1999/xlink" height="30.9px" width="26.35px" xmlns="http://www.w3.org/2000/svg">
  <g transform="matrix(1.0, 0.0, 0.0, 1.0, 12.2, 16.0)">
    <path d="M11.3 5.2 Q12.0 4.7 11.75 3.85 11.6 2.75 9.25 0.8 L8.25 -1.95 Q7.5 -4.15 5.45 -5.9 L5.35 -6.0 5.15 -5.75 Q4.2 -4.6 1.7 -3.35 -1.0 -2.0 -3.75 -1.4 L-8.05 -1.55 -8.5 -1.75 -8.45 -1.45 -8.45 -1.4 -8.4 -1.35 -8.35 -1.2 Q-7.9 0.15 -7.7 1.75 L-6.8 7.8 -6.8 7.9 -5.2 9.15 -3.35 10.0 Q7.35 10.15 11.3 5.2 L13.4 9.45 Q12.55 10.9 10.15 12.0 7.75 13.1 3.4 13.75 L-4.7 14.0 Q-5.35 11.8 -5.2 9.15 M5.45 -5.9 L3.8 -9.6 3.45 -9.2 Q1.55 -7.55 -2.9 -6.1 -6.9 -4.6 -9.15 -4.75 L-9.45 -4.8 -8.55 -1.75 -8.55 -1.8 -8.5 -1.75 -8.55 -1.75 -8.45 -1.45 M-9.15 -4.75 Q-11.45 -8.95 -11.45 -12.8 M-0.25 -15.25 L3.45 -9.2" fill="none" stroke="#000000" stroke-linecap="round" stroke-linejoin="round" stroke-width="1.5"/>
  </g>
</svg>
