<?xml version="1.0" encoding="UTF-8" standalone="no"?>
<svg xmlns:xlink="http://www.w3.org/1999/xlink" height="31.55px" width="25.85px" xmlns="http://www.w3.org/2000/svg">
  <g transform="matrix(1.0, 0.0, 0.0, 1.0, 12.9, 15.75)">
    <path d="M-3.85 -15.65 L-3.7 -15.7 -3.9 -15.7 -1.75 -15.65 2.0 -8.1 Q4.9 -2.35 7.1 1.25 L8.0 2.7 9.6 5.1 12.95 9.05 Q12.25 10.7 10.0 12.05 L8.75 12.7 Q6.1 13.95 1.95 14.85 L1.55 14.95 Q-7.0 16.55 -10.45 15.05 -9.95 12.4 -9.85 9.85 -9.75 7.15 -10.8 1.65 -11.85 -3.85 -12.9 -13.55 L-9.8 -14.4 -6.7 -15.05 -6.6 -15.05 -3.85 -15.65" fill="#bd3a3a" fill-rule="evenodd" stroke="none"/>
  </g>
</svg>
