<?xml version="1.0" encoding="UTF-8" standalone="no"?>
<svg xmlns:xlink="http://www.w3.org/1999/xlink" height="34.1px" width="27.5px" xmlns="http://www.w3.org/2000/svg">
  <g transform="matrix(1.0, 0.0, 0.0, 1.0, 12.9, 17.45)">
    <path d="M-3.9 6.75 Q-4.05 10.05 -2.55 13.2 M7.35 2.45 Q10.25 6.05 10.05 10.2 M3.85 3.6 Q5.45 7.15 5.55 10.85 M1.1 12.1 Q-0.45 8.3 -0.55 4.45" fill="none" stroke="#000000" stroke-linecap="round" stroke-linejoin="round" stroke-opacity="0.69803923" stroke-width="1.0"/>
    <path d="M-0.45 -16.45 L7.25 -2.6 Q9.0 0.25 8.8 2.25 11.35 2.85 11.6 5.9 14.7 9.05 12.95 11.45 4.85 12.05 -5.05 15.65 -6.15 15.05 -6.0 11.75 -7.4 9.85 -6.75 8.1 -7.65 7.65 -8.8 2.8 -10.05 -2.45 -11.9 -12.75 M-0.55 4.45 L-1.7 4.9 Q-5.9 6.85 -6.75 8.1 M8.8 2.25 L7.35 2.45 Q2.85 3.1 -0.55 4.45" fill="none" stroke="#000000" stroke-linecap="round" stroke-linejoin="round" stroke-width="2.0"/>
  </g>
</svg>
