<?xml version="1.0" encoding="UTF-8" standalone="no"?>
<svg xmlns:xlink="http://www.w3.org/1999/xlink" height="17.65px" width="24.75px" xmlns="http://www.w3.org/2000/svg">
  <g transform="matrix(1.0, 0.0, 0.0, 1.0, 12.35, 8.8)">
    <path d="M5.95 -6.6 L10.5 -0.8 Q13.6 4.55 11.7 7.9 10.6 4.75 7.75 2.25 L7.5 7.05 2.95 2.3 2.75 -0.1 Q0.95 -1.6 -1.55 -1.45 L-0.35 7.95 Q-3.3 6.05 -5.2 3.05 L-5.0 0.45 Q-6.9 1.15 -8.3 2.85 L-9.95 8.85 -12.05 1.2 -12.35 -0.7 Q-10.8 -2.75 -7.55 -4.65 L-6.3 -8.8 -3.5 -5.55 Q-2.1 -4.9 -1.3 -7.6 L2.25 -5.55 2.15 -7.85 5.95 -6.6" fill="#e8c2ff" fill-rule="evenodd" stroke="none"/>
  </g>
</svg>
