<?xml version="1.0" encoding="UTF-8" standalone="no"?>
<svg xmlns:xlink="http://www.w3.org/1999/xlink" height="37.05px" width="31.6px" xmlns="http://www.w3.org/2000/svg">
  <g transform="matrix(1.0, 0.0, 0.0, 1.0, 12.8, 16.5)">
    <path d="M11.35 4.1 L7.55 2.85 7.65 5.15 4.1 3.1 Q3.3 5.8 1.9 5.15 L-0.9 1.9 -2.15 6.05 Q-5.4 7.95 -6.95 10.0" fill="none" stroke="#000000" stroke-linecap="round" stroke-linejoin="round" stroke-width="1.0"/>
    <path d="M-6.95 10.0 L-6.65 11.9 -4.55 19.55 -2.9 13.55 Q-1.5 11.85 0.4 11.15 L0.2 13.75 Q2.1 16.75 5.05 18.65 L3.85 9.25 Q6.35 9.1 8.15 10.6 L8.35 13.0 12.9 17.75 13.15 12.95 Q16.0 15.45 17.1 18.6 19.0 15.25 15.9 9.9 L11.35 4.1 9.6 1.85 -0.2 -15.5 M-6.95 10.0 L-8.2 1.55 Q-10.45 -5.85 -11.8 -12.95" fill="none" stroke="#000000" stroke-linecap="round" stroke-linejoin="round" stroke-width="2.0"/>
  </g>
</svg>
