<?xml version="1.0" encoding="UTF-8" standalone="no"?>
<svg xmlns:xlink="http://www.w3.org/1999/xlink" height="47.8px" width="34.35px" xmlns="http://www.w3.org/2000/svg">
  <g transform="matrix(1.0, 0.0, 0.0, 1.0, 17.15, 23.9)">
    <path d="M-14.9 11.0 Q-14.25 -4.4 -17.15 -19.35 L-17.15 -19.85 Q-15.55 -21.95 -11.95 -23.25 L-5.05 -23.7 2.8 -5.8 6.25 -0.1 Q10.6 6.05 14.0 9.6 L14.9 10.45 17.2 12.25 Q15.65 18.65 6.2 22.0 2.35 23.3 -0.9 23.65 -6.25 24.2 -10.9 23.6 -13.0 23.35 -14.25 21.55 L-14.3 20.7 -14.5 19.0 Q-14.45 18.55 -14.55 18.15 L-14.6 16.75 -14.7 14.35 -14.75 14.1 -14.75 11.35 -14.9 11.0" fill="#bd3a3a" fill-rule="evenodd" stroke="none"/>
  </g>
</svg>
