<?xml version="1.0" encoding="UTF-8" standalone="no"?>
<svg xmlns:xlink="http://www.w3.org/1999/xlink" height="49.6px" width="36.35px" xmlns="http://www.w3.org/2000/svg">
  <g transform="matrix(1.0, 0.0, 0.0, 1.0, 13.6, 17.25)">
    <path d="M-0.5 -16.25 L7.35 1.65 10.8 7.35 Q15.15 13.5 18.55 17.05 L19.45 17.9 21.75 19.7 Q20.2 26.1 10.75 29.45 6.9 30.75 3.65 31.1 -1.7 31.65 -6.35 31.05 -8.45 30.8 -9.7 29.0 L-9.75 28.15 -9.95 26.45 Q-9.9 26.0 -10.0 25.6 L-10.05 24.2 -10.15 21.8 -10.2 21.55 -10.2 20.2 -10.35 18.45 Q-9.7 3.05 -12.6 -11.9 L-12.6 -12.4 M-10.35 18.45 L-10.2 18.8 -10.2 20.2" fill="none" stroke="#000000" stroke-linecap="round" stroke-linejoin="round" stroke-width="2.0"/>
  </g>
</svg>
