<?xml version="1.0" encoding="UTF-8" standalone="no"?>
<svg xmlns:xlink="http://www.w3.org/1999/xlink" height="31.2px" width="24.1px" xmlns="http://www.w3.org/2000/svg">
  <g transform="matrix(1.0, 0.0, 0.0, 1.0, 12.05, 15.6)">
    <path d="M-12.05 -12.35 Q-11.0 -13.85 -6.6 -14.9 -0.85 -16.1 -1.15 -15.25 2.05 -10.65 4.2 -6.15 -4.75 -4.5 -8.7 -0.6 L-9.95 -3.55 Q-12.1 -8.35 -12.05 -12.35 M-5.85 8.35 L-6.85 4.55 -7.25 3.35 Q-1.7 -0.25 6.2 -1.8 8.25 0.6 8.05 2.4 10.35 3.0 10.6 6.0 13.35 9.15 10.9 10.95 4.55 12.2 -2.9 15.6 -5.3 15.3 -5.15 12.0 -6.4 10.1 -5.85 8.35" fill="#797979" fill-rule="evenodd" stroke="none"/>
  </g>
</svg>
