<?xml version="1.0" encoding="UTF-8" standalone="no"?>
<svg xmlns:xlink="http://www.w3.org/1999/xlink" height="32.85px" width="26.1px" xmlns="http://www.w3.org/2000/svg">
  <g transform="matrix(1.0, 0.0, 0.0, 1.0, 12.65, 16.45)">
    <path d="M-0.75 -15.45 Q2.45 -10.85 4.6 -6.35 L4.95 -6.45 Q6.85 -3.85 6.95 -2.1 L6.6 -2.0 Q8.65 0.4 8.45 2.2 10.75 2.8 11.0 5.8 13.75 8.95 11.3 10.75 4.95 12.0 -2.5 15.4 -4.9 15.1 -4.75 11.8 -6.0 9.9 -5.45 8.15 L-6.45 4.35 -6.85 3.15 -7.25 3.4 Q-8.85 1.45 -8.65 -0.5 L-8.3 -0.8 -9.55 -3.75 Q-11.7 -8.55 -11.65 -12.55 M8.45 2.2 L7.15 2.4 Q3.15 3.1 0.1 4.45 L-0.9 4.9 Q-4.7 6.9 -5.45 8.15 M6.6 -2.0 Q-1.3 -0.45 -6.85 3.15 M-8.3 -0.8 Q-4.35 -4.7 4.6 -6.35" fill="none" stroke="#000000" stroke-linecap="round" stroke-linejoin="round" stroke-width="2.0"/>
  </g>
</svg>
