<?xml version="1.0" encoding="UTF-8" standalone="no"?>
<svg xmlns:xlink="http://www.w3.org/1999/xlink" height="28.55px" width="23.2px" xmlns="http://www.w3.org/2000/svg">
  <g transform="matrix(1.0, 0.0, 0.0, 1.0, 12.0, 15.4)">
    <path d="M-5.55 8.65 Q-6.85 7.5 -8.25 4.4 -9.65 1.3 -9.65 -0.65 -12.3 -5.9 -11.95 -12.75 -6.95 -15.0 -1.0 -15.4 1.1 -12.9 3.65 -6.1 7.05 -2.7 8.4 -0.6 9.7 1.45 9.55 2.15 9.4 2.8 8.35 3.5 3.65 7.1 -5.55 8.65 M10.05 5.7 L11.2 7.8 Q10.55 8.9 4.2 11.25 -1.8 13.35 -5.25 13.15 L-5.6 11.05 Q-3.25 11.05 1.75 9.55 8.0 7.25 10.05 5.7" fill="#f5b1d2" fill-rule="evenodd" stroke="none"/>
  </g>
</svg>
