<?xml version="1.0" encoding="UTF-8" standalone="no"?>
<svg xmlns:xlink="http://www.w3.org/1999/xlink" height="32.8px" width="26.05px" xmlns="http://www.w3.org/2000/svg">
  <g transform="matrix(1.0, 0.0, 0.0, 1.0, 12.45, 17.15)">
    <path d="M-0.45 -16.15 Q1.65 -13.65 4.2 -6.85 7.6 -3.45 8.95 -1.35 10.25 0.7 10.1 1.4 9.95 2.05 8.9 2.75 L10.6 4.95 11.75 7.05 12.6 10.0 Q8.8 13.0 -3.6 14.65 L-4.7 12.4 -5.05 10.3 -5.0 7.9 Q-6.3 6.75 -7.7 3.65 -9.1 0.55 -9.1 -1.4 -11.75 -6.65 -11.4 -13.5 M-5.0 7.9 Q4.2 6.35 8.9 2.75" fill="none" stroke="#000000" stroke-linecap="round" stroke-linejoin="round" stroke-width="2.0"/>
  </g>
</svg>
