<?xml version="1.0" encoding="UTF-8" standalone="no"?>
<svg xmlns:xlink="http://www.w3.org/1999/xlink" height="187.9px" width="166.9px" xmlns="http://www.w3.org/2000/svg">
  <g transform="matrix(1.0, 0.0, 0.0, 1.0, 83.45, 93.95)">
    <path d="M33.2 -92.95 Q7.1 -89.6 -12.3 -62.75 -44.85 -17.25 -66.35 -10.95 -52.85 -13.4 -41.95 -19.7 -71.45 3.55 -80.3 35.8 -81.6 40.55 -82.45 45.55 L-68.15 62.15 Q-68.15 57.05 -67.25 51.6 -63.6 28.8 -44.5 -0.05 -57.05 28.25 -60.2 61.1 L-60.8 68.55 Q-58.3 78.5 -43.85 92.95 -44.3 87.25 -43.85 79.7 -42.8 63.2 -37.25 37.9 -39.55 54.0 -39.2 70.55 L-38.75 81.0 Q-31.65 83.55 -24.5 92.45 -24.9 86.15 -24.9 80.05 -24.85 43.65 -9.8 15.25 15.9 -34.8 56.35 -51.85 62.5 -52.95 67.2 -54.4 M82.3 -66.3 Q83.0 -70.55 79.8 -75.75 71.35 -89.6 52.7 -92.65 M-30.5 7.9 Q-35.05 22.7 -37.25 37.9" fill="none" stroke="#000000" stroke-linecap="round" stroke-linejoin="round" stroke-width="2.0"/>
    <path d="M-41.95 -19.7 Q-26.45 -28.7 -16.25 -45.4 M-44.5 -0.05 Q-39.05 -12.35 -31.85 -23.8 M37.9 -68.2 Q1.15 -51.55 -14.45 -13.85" fill="none" stroke="#000000" stroke-linecap="round" stroke-linejoin="round" stroke-width="1.5"/>
  </g>
</svg>
