<?xml version="1.0" encoding="UTF-8" standalone="no"?>
<svg xmlns:xlink="http://www.w3.org/1999/xlink" height="74.25px" width="39.55px" xmlns="http://www.w3.org/2000/svg">
  <g transform="matrix(1.0, 0.0, 0.0, 1.0, 19.75, 37.1)">
    <path d="M-7.15 -36.9 Q0.0 -22.7 5.55 -12.7 11.1 -2.7 15.8 7.6 20.45 17.9 19.7 22.65 18.9 27.35 17.45 28.7 18.3 33.95 15.65 36.75 L14.75 36.6 9.55 36.15 Q7.05 36.0 2.95 36.25 L-2.9 36.7 -6.8 37.15 Q-8.25 35.45 -7.25 31.25 L-7.7 30.25 Q-10.3 28.55 -12.7 22.25 -15.1 15.95 -16.4 0.5 -17.7 -14.95 -19.75 -32.95 -13.6 -38.05 -7.15 -36.9" fill="#853434" fill-rule="evenodd" stroke="none"/>
  </g>
</svg>
