<?xml version="1.0" encoding="UTF-8" standalone="no"?>
<svg xmlns:xlink="http://www.w3.org/1999/xlink" height="76.05px" width="41.55px" xmlns="http://www.w3.org/2000/svg">
  <g transform="matrix(1.0, 0.0, 0.0, 1.0, 13.9, 16.65)">
    <path d="M-12.9 -11.7 Q-10.85 6.3 -9.55 21.75 -8.25 37.2 -5.85 43.5 -3.45 49.8 -0.85 51.5 L-0.85 51.45 -0.45 51.4 -0.35 51.35 -0.35 51.4 Q15.25 49.2 24.3 49.95 25.75 48.6 26.55 43.9 27.3 39.15 22.65 28.85 17.95 18.55 12.4 8.55 6.85 -1.45 -0.3 -15.65 M-0.35 51.4 L-0.45 51.4 -0.85 51.5 -0.4 52.5 -0.35 51.4 M16.4 51.4 Q17.15 56.3 16.4 57.4 L21.6 57.85 Q22.7 55.2 21.45 51.35 M24.3 49.95 Q25.15 55.2 22.5 58.0 L21.6 57.85 M-0.4 52.5 Q-1.4 56.7 0.05 58.4 L3.95 57.95 Q2.2 57.1 3.95 52.1 M16.4 57.4 Q13.9 57.25 9.8 57.5 L3.95 57.95 M9.8 57.5 L9.95 51.8" fill="none" stroke="#000000" stroke-linecap="round" stroke-linejoin="round" stroke-width="2.0"/>
  </g>
</svg>
