<?xml version="1.0" encoding="UTF-8" standalone="no"?>
<svg xmlns:xlink="http://www.w3.org/1999/xlink" height="33.8px" width="27.3px" xmlns="http://www.w3.org/2000/svg">
  <g transform="matrix(1.0, 0.0, 0.0, 1.0, 14.3, 18.5)">
    <path d="M0.5 -17.5 Q2.8 -14.4 5.0 -10.4 L8.55 -3.8 Q9.9 -1.2 9.75 0.3 9.65 1.6 8.35 2.95 9.2 3.35 10.15 4.45 11.2 5.55 11.65 6.85 12.15 8.05 11.95 9.45 8.2 12.5 -4.2 14.3 L-5.3 12.05 -5.75 10.0 Q-5.8 8.85 -5.5 8.45 -8.55 7.7 -9.45 4.65 L-11.45 -2.6 Q-12.6 -6.85 -13.3 -12.0 M-5.5 8.45 L1.65 6.15 6.8 3.85 8.35 2.95" fill="none" stroke="#000000" stroke-linecap="round" stroke-linejoin="round" stroke-width="2.0"/>
    <path d="M1.65 6.15 Q3.4 9.55 3.6 11.75 M6.8 3.85 Q9.8 7.95 9.25 10.15 M-3.3 8.3 Q-3.2 11.7 -2.15 12.95" fill="none" stroke="#000000" stroke-linecap="round" stroke-linejoin="round" stroke-width="1.5"/>
  </g>
</svg>
