<?xml version="1.0" encoding="UTF-8" standalone="no"?>
<svg xmlns:xlink="http://www.w3.org/1999/xlink" height="53.9px" width="33.05px" xmlns="http://www.w3.org/2000/svg">
  <g transform="matrix(1.0, 0.0, 0.0, 1.0, 13.4, 16.85)">
    <path d="M0.95 -15.85 L16.65 19.5 Q19.15 25.0 18.3 26.9 19.1 30.9 18.15 32.45 16.9 34.55 9.65 35.8 L8.4 36.0 Q5.45 36.15 3.0 35.95 -4.35 35.35 -6.8 31.75 -6.35 29.75 -6.5 26.1 -7.45 23.95 -7.5 15.8 L-12.4 -10.7 M18.3 26.9 Q11.05 29.8 3.45 29.4 -4.05 28.95 -6.5 26.1" fill="none" stroke="#000000" stroke-linecap="round" stroke-linejoin="round" stroke-width="2.0"/>
    <path d="M14.8 34.2 Q15.75 32.15 14.95 29.1 M3.0 35.95 Q3.75 33.8 3.2 30.15 M9.65 35.8 Q10.65 33.95 10.2 30.25 M-2.55 29.8 Q-3.1 32.45 -2.8 34.05" fill="none" stroke="#000000" stroke-linecap="round" stroke-linejoin="round" stroke-width="1.5"/>
  </g>
</svg>
