<?xml version="1.0" encoding="UTF-8" standalone="no"?>
<svg xmlns:xlink="http://www.w3.org/1999/xlink" height="31.15px" width="24.25px" xmlns="http://www.w3.org/2000/svg">
  <g transform="matrix(1.0, 0.0, 0.0, 1.0, 11.9, 16.65)">
    <path d="M3.0 9.1 Q3.85 11.45 3.6 12.8 L5.15 12.45 8.6 11.45 Q8.9 9.4 7.75 7.3 M-0.75 -15.65 L8.0 0.15 Q9.65 3.05 9.55 5.0 11.2 7.25 11.35 9.1 11.5 10.35 8.6 11.45 M3.6 12.8 L-1.15 13.5 -4.55 13.3 Q-5.55 10.8 -4.75 8.9 L-4.5 8.9 Q-6.25 7.75 -6.6 4.35 -9.65 -5.7 -10.9 -12.7 M-1.15 13.5 Q-2.0 12.65 -2.3 10.05 M9.55 5.0 Q3.85 8.0 -4.5 8.9" fill="none" stroke="#000000" stroke-linecap="round" stroke-linejoin="round" stroke-width="2.0"/>
  </g>
</svg>
