<?xml version="1.0" encoding="UTF-8" standalone="no"?>
<svg xmlns:xlink="http://www.w3.org/1999/xlink" height="32.95px" width="30.8px" xmlns="http://www.w3.org/2000/svg">
  <g transform="matrix(1.0, 0.0, 0.0, 1.0, 14.9, 16.95)">
    <path d="M-14.15 -11.75 Q-13.45 -4.3 -11.85 0.65 -8.3 1.25 -1.1 -0.55 5.6 -2.85 8.35 -4.9 3.7 -12.45 2.0 -16.2 M-11.85 0.65 L-13.15 0.3 -12.45 4.3 Q-8.35 5.75 -0.25 3.5 8.35 0.65 11.0 -1.6 L9.0 -5.5 8.35 -4.9 M-12.45 4.3 Q-10.8 10.95 -9.1 14.45 -5.15 16.05 3.55 14.4 14.4 11.6 15.15 8.95 13.7 3.8 11.0 -1.6" fill="none" stroke="#000000" stroke-linecap="round" stroke-linejoin="round" stroke-width="1.5"/>
  </g>
</svg>
