<?xml version="1.0" encoding="UTF-8" standalone="no"?>
<svg xmlns:xlink="http://www.w3.org/1999/xlink" height="54.2px" width="33.55px" xmlns="http://www.w3.org/2000/svg">
  <g transform="matrix(1.0, 0.0, 0.0, 1.0, 16.75, 27.1)">
    <path d="M-16.75 -22.45 Q-16.35 -25.2 -9.45 -26.65 -4.45 -27.55 -2.15 -26.55 L5.2 -9.85 Q8.25 -5.2 9.2 -1.3 L13.2 4.15 Q14.65 6.95 12.3 11.5 L14.2 12.1 Q15.5 14.65 14.9 16.9 16.2 18.2 16.8 20.3 16.75 22.95 14.45 24.25 10.85 25.25 6.1 25.3 1.4 25.35 -2.5 27.1 -5.6 26.35 -6.3 23.25 L-5.2 20.95 Q-6.65 19.7 -6.75 18.25 -6.25 16.4 -4.8 14.8 -8.6 12.25 -9.85 8.65 L-9.9 0.65 -16.75 -22.45 M13.5 19.8 Q13.45 19.1 13.0 18.7 12.6 18.25 12.15 18.25 11.7 18.25 11.4 18.7 11.2 19.1 11.3 19.8 L11.75 20.85 Q12.2 21.3 12.65 21.3 13.1 21.3 13.35 20.85 L13.5 19.8 M12.5 15.2 Q12.4 14.5 12.0 14.1 11.6 13.65 11.1 13.65 10.65 13.65 10.4 14.1 10.2 14.5 10.25 15.2 L10.7 16.25 Q11.15 16.7 11.6 16.7 L12.3 16.25 Q12.6 15.8 12.5 15.2" fill="#4d4d4d" fill-rule="evenodd" stroke="none"/>
  </g>
</svg>
