<?xml version="1.0" encoding="UTF-8" standalone="no"?>
<svg xmlns:xlink="http://www.w3.org/1999/xlink" height="7.65px" width="3.3px" xmlns="http://www.w3.org/2000/svg">
  <g transform="matrix(1.0, 0.0, 0.0, 1.0, 1.65, 3.8)">
    <path d="M0.6 -2.25 Q0.7 -1.65 0.4 -1.2 0.15 -0.75 -0.3 -0.75 -0.75 -0.75 -1.2 -1.2 L-1.65 -2.25 -1.5 -3.35 -0.8 -3.8 Q-0.3 -3.8 0.1 -3.35 L0.6 -2.25 M1.6 2.35 L1.45 3.4 Q1.2 3.85 0.75 3.85 0.3 3.85 -0.15 3.4 L-0.6 2.35 -0.5 1.25 Q-0.2 0.8 0.25 0.8 0.7 0.8 1.1 1.25 1.55 1.65 1.6 2.35" fill="#fff087" fill-rule="evenodd" stroke="none"/>
  </g>
</svg>
