<?xml version="1.0" encoding="UTF-8" standalone="no"?>
<svg xmlns:xlink="http://www.w3.org/1999/xlink" height="55.65px" width="35.55px" xmlns="http://www.w3.org/2000/svg">
  <g transform="matrix(1.0, 0.0, 0.0, 1.0, 14.45, 16.45)">
    <path d="M-13.45 -11.35 L-6.6 11.75 -6.55 19.75 Q-5.3 23.35 -1.5 25.9 4.4 21.75 15.6 22.6 17.95 18.05 16.5 15.25 14.25 12.45 12.5 9.8 L6.95 5.2 M1.15 -15.45 L8.5 1.25 Q11.55 5.9 12.5 9.8 M15.6 22.6 L17.5 23.2 Q18.8 25.75 18.2 28.0 19.5 29.3 20.1 31.4 20.05 34.05 17.75 35.35 14.15 36.35 9.4 36.4 4.7 36.45 0.8 38.2 -2.3 37.45 -3.0 34.35 L-1.9 32.05 Q-3.35 30.8 -3.45 29.35 -2.95 27.5 -1.5 25.9" fill="none" stroke="#000000" stroke-linecap="round" stroke-linejoin="round" stroke-width="2.0"/>
    <path d="M16.8 30.9 Q16.95 31.5 16.65 31.95 16.4 32.4 15.95 32.4 15.5 32.4 15.05 31.95 L14.6 30.9 Q14.5 30.2 14.7 29.8 15.0 29.35 15.45 29.35 15.9 29.35 16.3 29.8 16.75 30.2 16.8 30.9 M15.8 26.3 Q15.9 26.9 15.6 27.35 15.35 27.8 14.9 27.8 14.45 27.8 14.0 27.35 L13.55 26.3 Q13.5 25.6 13.7 25.2 13.95 24.75 14.4 24.75 14.9 24.75 15.3 25.2 15.7 25.6 15.8 26.3" fill="none" stroke="#000000" stroke-linecap="round" stroke-linejoin="round" stroke-width="1.0"/>
  </g>
</svg>
