<?xml version="1.0" encoding="UTF-8" standalone="no"?>
<svg xmlns:xlink="http://www.w3.org/1999/xlink" height="29.3px" width="26.85px" xmlns="http://www.w3.org/2000/svg">
  <g transform="matrix(1.0, 0.0, 0.0, 1.0, 13.4, 14.65)">
    <path d="M11.0 0.5 L13.45 3.15 11.4 10.7 1.45 7.45 -4.95 14.65 -12.25 11.55 -12.0 7.95 Q-11.85 5.15 -12.0 0.95 L-12.15 -0.5 -9.85 -4.65 -12.9 -8.05 -13.4 -11.55 -12.45 -12.15 Q-6.55 -15.4 1.25 -14.45 L3.0 -11.1 4.0 -9.7 3.95 -7.05 6.95 -5.15 8.35 -3.1 11.0 0.5 M-1.2 -1.35 L0.05 -5.9 -4.1 -10.5 -5.3 -5.1 -1.2 -1.35" fill="#e7b19b" fill-rule="evenodd" stroke="none"/>
  </g>
</svg>
