<?xml version="1.0" encoding="UTF-8" standalone="no"?>
<svg xmlns:xlink="http://www.w3.org/1999/xlink" height="32.2px" width="25.45px" xmlns="http://www.w3.org/2000/svg">
  <g transform="matrix(1.0, 0.0, 0.0, 1.0, 12.7, 16.1)">
    <path d="M-0.55 -16.05 L4.65 -5.3 8.25 1.65 8.5 1.75 Q11.35 2.6 11.7 4.3 11.2 5.5 10.25 6.55 12.65 8.5 12.75 10.15 11.65 11.9 10.1 12.95 8.9 13.7 7.0 14.4 L3.25 15.55 2.95 15.65 -0.5 16.1 -4.05 15.8 -5.85 15.15 Q-6.15 14.1 -5.85 11.75 L-5.95 11.8 Q-7.6 11.3 -6.65 7.6 -7.65 3.2 -9.45 -0.95 -11.2 -5.15 -12.7 -12.8 -6.75 -16.4 -0.55 -16.05" fill="#f9dfc3" fill-rule="evenodd" stroke="none"/>
  </g>
</svg>
