<?xml version="1.0" encoding="UTF-8" standalone="no"?>
<svg xmlns:xlink="http://www.w3.org/1999/xlink" height="33.65px" width="26.95px" xmlns="http://www.w3.org/2000/svg">
  <g transform="matrix(1.0, 0.0, 0.0, 1.0, 13.35, 16.8)">
    <path d="M-0.45 -16.05 L4.75 -5.3 8.35 1.65 8.6 1.75 Q11.45 2.6 11.8 4.3 L10.35 6.55 Q12.75 8.5 12.85 10.15 11.75 11.9 10.2 12.95 9.0 13.7 7.1 14.4 L3.35 15.55 3.05 15.65 -0.4 16.1 -3.95 15.8 -5.75 15.15 Q-6.05 14.1 -5.75 11.75 L-5.85 11.8 Q-7.5 11.3 -6.55 7.6 -7.55 3.2 -9.35 -0.95 -11.1 -5.15 -12.6 -12.8 M-0.6 11.7 Q-0.9 15.05 -0.4 16.1 M-3.3 12.1 Q-4.1 14.7 -3.95 15.8 M10.35 6.55 Q8.45 8.55 4.8 9.7 -0.65 11.8 -5.7 11.65 L-5.75 11.75 M8.6 1.75 L7.35 1.85 M7.1 14.4 Q6.8 12.25 5.65 9.85 M2.5 11.05 Q3.45 14.0 3.35 15.55 M10.2 12.95 Q10.35 11.4 8.85 8.35 M-6.55 7.6 Q-4.8 8.4 0.0 5.45" fill="none" stroke="#000000" stroke-linecap="round" stroke-linejoin="round" stroke-width="1.5"/>
  </g>
</svg>
