<?xml version="1.0" encoding="UTF-8" standalone="no"?>
<svg xmlns:xlink="http://www.w3.org/1999/xlink" height="14.95px" width="27.75px" xmlns="http://www.w3.org/2000/svg">
  <g transform="matrix(1.0, 0.0, 0.0, 1.0, 24.55, 19.5)">
    <path d="M-12.0 -12.7 L-12.55 -12.45 -13.15 -13.0 -12.6 -12.9 -12.0 -12.7" fill="#fbfaff" fill-rule="evenodd" stroke="none"/>
    <path d="M-12.55 -12.45 L-13.15 -13.0 -14.45 -12.7 Q-15.3 -12.15 -15.6 -11.2 -15.9 -10.25 -15.45 -9.5 L-14.6 -8.6 -14.0 -8.45 Q-13.05 -8.2 -12.15 -8.75 L-11.95 -8.85 M-14.6 -8.6 Q-20.05 -6.45 -23.85 -9.15 -22.45 -9.5 -20.55 -11.3 -19.25 -12.45 -17.9 -12.35 -19.6 -14.2 -19.25 -18.8 -17.05 -16.2 -15.1 -15.55 -13.15 -14.85 -13.15 -13.0 L-12.6 -12.9 -12.0 -12.7 M-17.9 -12.35 Q-17.3 -11.6 -16.3 -11.15" fill="none" stroke="#000000" stroke-linecap="round" stroke-linejoin="round" stroke-width="1.4000000000000001"/>
    <path d="M-12.55 -12.45 L-13.4 -11.8 Q-14.0 -10.3 -11.95 -8.85 L-11.75 -8.65 Q-12.4 -6.95 -11.05 -5.55 -9.45 -5.55 -6.95 -6.35 L-2.95 -8.05 Q-1.0 -9.1 0.9 -10.25 L2.0 -10.85 Q2.65 -13.2 1.2 -13.8 L1.3 -14.15 Q1.7 -16.3 0.7 -17.1 L-0.75 -16.45 -3.7 -15.3 -8.0 -13.8 -10.2 -13.4 Q-11.55 -13.1 -11.9 -12.8 L-12.0 -12.7 -12.55 -12.45 Z" fill="none" stroke="#000000" stroke-linecap="round" stroke-linejoin="round" stroke-width="2.0"/>
  </g>
</svg>
