<?xml version="1.0" encoding="UTF-8" standalone="no"?>
<svg xmlns:xlink="http://www.w3.org/1999/xlink" height="30.4px" width="25.15px" xmlns="http://www.w3.org/2000/svg">
  <g transform="matrix(1.0, 0.0, 0.0, 1.0, 12.4, 16.7)">
    <path d="M-0.45 -15.7 L-0.1 -15.15 2.65 -8.65 Q4.55 -4.65 6.65 -1.0 L8.15 1.6 11.75 7.55 Q9.85 9.6 4.25 11.8 0.3 12.95 -5.75 12.65 -5.85 8.95 -7.15 3.8 L-8.15 0.5 -9.6 -4.5 Q-10.85 -8.85 -11.4 -12.55" fill="none" stroke="#000000" stroke-linecap="round" stroke-linejoin="round" stroke-width="2.0"/>
    <path d="M-9.6 -4.5 Q-5.2 -4.2 -1.4 -5.35 2.4 -6.55 2.65 -8.65 M-7.15 3.8 Q-1.9 4.15 1.8 2.8 5.45 1.4 6.65 -1.0" fill="none" stroke="#000000" stroke-linecap="round" stroke-linejoin="round" stroke-width="1.0"/>
  </g>
</svg>
