<?xml version="1.0" encoding="UTF-8" standalone="no"?>
<svg xmlns:xlink="http://www.w3.org/1999/xlink" height="50.7px" width="32.05px" xmlns="http://www.w3.org/2000/svg">
  <g transform="matrix(1.0, 0.0, 0.0, 1.0, 13.1, 16.5)">
    <path d="M-0.35 -15.5 L2.95 -8.9 6.5 -1.95 7.15 -0.75 13.1 10.6 14.85 14.05 Q16.2 17.05 17.2 21.7 L17.65 23.7 Q18.3 27.4 17.6 30.1 14.9 31.9 7.2 33.2 -2.5 33.2 -6.3 28.3 -5.85 26.15 -6.05 22.4 L-6.1 21.15 -6.6 12.75 -6.75 12.4 Q-7.45 7.8 -8.8 2.7 L-10.9 -6.75 -12.1 -12.65" fill="none" stroke="#000000" stroke-linecap="round" stroke-linejoin="round" stroke-width="2.0"/>
    <path d="M13.1 10.6 L13.55 10.55 M-12.1 -12.65 Q-6.9 -14.85 -0.35 -15.5 M-6.75 12.4 Q-1.15 11.25 5.35 11.55 11.9 11.75 13.1 10.6 M-6.1 21.15 Q0.05 23.7 7.05 23.45 14.15 23.15 17.2 21.7 M-10.9 -6.75 Q0.55 -6.8 2.95 -8.9 M-8.8 2.7 L0.8 1.45 Q5.95 1.0 7.15 -0.75" fill="none" stroke="#000000" stroke-linecap="round" stroke-linejoin="round" stroke-width="1.0"/>
  </g>
</svg>
