<?xml version="1.0" encoding="UTF-8" standalone="no"?>
<svg xmlns:xlink="http://www.w3.org/1999/xlink" height="75.3px" width="42.1px" xmlns="http://www.w3.org/2000/svg">
  <g transform="matrix(1.0, 0.0, 0.0, 1.0, 15.55, 39.1)">
    <path d="M2.95 -11.2 Q2.65 -11.05 2.2 -11.35 L1.15 -11.85 Q0.45 -12.0 0.05 -11.25 -0.45 -10.5 -0.6 -11.0 -0.75 -11.5 -0.15 -12.25 0.4 -13.05 1.85 -12.9 2.4 -12.8 2.75 -12.3 3.15 -11.8 2.95 -11.2 M1.9 -8.95 Q1.6 -7.7 0.95 -8.55 0.3 -9.3 0.55 -9.5 L0.0 -9.85 Q-0.8 -10.05 -0.45 -10.45 L1.0 -10.5 Q2.15 -10.2 1.9 -8.95 M3.5 -4.75 Q4.75 -4.7 4.2 -3.95 3.65 -3.25 3.35 -3.45 3.05 -3.7 3.2 -2.9 3.25 -2.05 2.8 -2.35 2.3 -2.7 2.3 -3.7 2.25 -4.75 3.5 -4.75 M1.1 -5.4 L1.15 -4.65 Q1.0 -4.3 1.0 -3.6 1.1 -2.95 1.85 -2.65 2.7 -2.35 2.3 -2.15 1.9 -1.9 1.0 -2.35 0.1 -2.7 -0.15 -4.05 -0.25 -4.6 0.1 -5.0 0.5 -5.45 1.1 -5.4 M2.7 -1.65 Q2.8 -1.0 1.65 -0.8 0.45 -0.6 0.1 -1.05 -0.35 -1.65 0.0 -2.1 0.3 -2.7 0.55 -2.2 0.6 -1.75 1.0 -1.45 L2.0 -1.4 2.7 -1.65 M11.9 12.7 L11.2 12.35 Q10.7 12.0 10.25 12.15 9.8 12.4 9.65 12.85 9.5 13.35 9.2 12.65 8.85 12.05 9.3 11.6 9.8 11.15 10.95 11.6 12.05 12.05 11.9 12.7 M12.85 12.2 Q12.5 12.5 11.85 11.3 11.25 10.25 11.65 9.9 12.15 9.75 12.7 10.85 13.35 12.05 12.85 12.2 M19.3 21.15 Q19.5 21.1 20.0 21.5 L21.0 21.7 21.8 21.0 Q22.1 20.5 22.3 21.2 22.6 21.8 22.05 22.3 21.45 22.75 20.2 22.3 19.05 21.8 19.3 21.15 M21.85 17.35 Q22.5 17.4 22.85 18.0 23.1 18.55 22.95 19.05 22.35 20.5 21.3 20.75 L19.85 20.65 Q19.45 20.35 20.35 20.15 21.35 20.05 21.55 19.35 L21.6 18.15 Q21.55 17.6 21.85 17.35 M7.35 -1.9 Q7.7 -0.7 6.65 -0.45 L5.15 -0.55 Q4.75 -0.95 5.55 -1.1 6.35 -1.2 6.1 -1.45 5.85 -1.6 6.4 -2.3 6.95 -3.05 7.35 -1.9 M3.6 -0.95 Q4.05 -0.7 3.3 0.25 2.7 1.2 2.2 0.95 1.85 0.55 2.5 -0.35 3.25 -1.3 3.6 -0.95 M5.75 -3.8 Q6.45 -2.55 5.2 -1.95 L4.15 -1.1 3.7 -1.1 3.6 -1.5 4.15 -2.7 Q4.35 -4.1 5.75 -3.8 M13.85 11.65 Q13.25 11.45 13.45 10.25 13.75 9.0 14.3 8.9 14.95 8.8 15.3 9.4 15.75 10.0 15.15 9.9 L14.3 10.0 Q13.9 10.25 13.9 10.9 L13.85 11.65 M17.95 12.1 Q17.65 12.2 17.25 11.75 16.95 11.4 16.3 11.1 15.65 10.8 15.1 11.45 14.5 12.05 14.45 11.6 14.4 11.05 15.15 10.4 L17.15 10.25 Q17.65 10.45 17.95 10.95 18.25 11.6 17.95 12.1 M4.55 -0.25 L4.55 0.5 Q4.5 1.1 4.85 1.4 L5.75 1.7 Q6.2 1.7 5.75 2.2 5.4 2.65 4.8 2.5 4.2 2.2 4.0 1.0 3.9 -0.15 4.55 -0.25 M8.6 0.2 Q8.85 0.75 8.55 1.3 L7.75 1.8 Q6.35 1.95 5.7 1.2 5.1 0.55 5.15 0.0 5.25 -0.45 5.75 0.25 6.3 0.95 6.9 0.8 L7.9 0.4 Q8.3 0.05 8.6 0.2 M-1.55 12.55 L-0.05 12.65 Q1.05 13.45 1.0 14.15 0.85 14.9 0.2 15.0 -0.5 15.25 -0.25 14.7 0.0 14.25 -0.1 13.7 -0.2 13.15 -0.85 12.85 L-1.55 12.55 M1.3 23.15 Q2.75 23.0 2.25 23.95 1.8 24.8 1.45 24.6 1.1 24.45 1.3 25.35 1.55 26.15 1.0 26.0 0.45 25.7 0.2 24.55 0.0 23.35 1.3 23.15 M9.95 16.4 Q9.4 16.35 9.05 15.7 8.75 15.2 8.85 14.75 9.2 13.3 10.15 13.1 L11.45 13.2 Q11.8 13.5 11.0 13.65 10.15 13.75 10.05 14.45 10.0 15.15 10.1 15.6 10.25 16.15 9.95 16.4 M16.5 14.05 Q16.0 15.2 15.5 14.3 15.0 13.4 15.3 13.25 15.6 13.1 14.8 12.8 14.05 12.45 14.45 12.15 14.95 11.9 15.9 12.4 16.9 12.9 16.5 14.05 M12.45 16.2 Q11.15 16.0 11.3 14.9 11.45 13.75 11.95 13.5 12.45 13.3 12.3 14.15 12.1 14.95 12.4 14.8 12.7 14.65 13.2 15.55 13.7 16.45 12.45 16.2 M14.75 15.75 Q13.35 15.75 13.25 14.3 L12.8 12.8 13.0 12.45 13.4 12.5 14.35 13.7 Q15.55 14.55 14.75 15.75 M19.05 17.55 Q20.45 17.8 20.2 18.95 19.9 20.1 19.3 20.35 18.7 20.5 18.95 19.65 19.3 18.85 18.95 19.0 18.6 19.15 18.15 18.25 17.7 17.3 19.05 17.55 M12.4 21.8 Q12.8 21.75 13.1 22.15 L14.1 22.85 Q14.8 23.15 15.5 22.45 16.25 21.85 16.25 22.35 16.25 22.9 15.4 23.55 L13.05 23.75 Q12.55 23.55 12.3 23.0 12.0 22.35 12.4 21.8 M14.25 19.8 Q14.95 18.6 15.4 19.55 15.85 20.45 15.5 20.6 15.15 20.8 16.0 21.05 16.8 21.4 16.35 21.75 L14.7 21.55 Q13.65 21.0 14.25 19.8 M16.4 18.05 Q18.0 18.05 17.95 19.55 L18.3 21.1 18.0 21.45 17.6 21.4 16.65 20.15 Q15.35 19.3 16.4 18.05 M16.95 22.25 Q17.65 22.5 17.25 23.7 16.75 24.95 16.15 25.1 15.35 25.2 15.05 24.6 14.65 24.0 15.25 24.1 L16.2 23.95 Q16.7 23.65 16.8 23.0 16.75 22.4 16.95 22.25 M3.95 23.85 Q4.95 25.05 3.75 25.95 L2.7 27.15 2.2 27.15 2.05 26.8 2.45 25.25 Q2.4 23.7 3.95 23.85 M6.0 25.65 Q6.7 26.85 5.55 27.35 L3.9 27.5 Q3.4 27.15 4.2 26.85 L4.8 26.4 Q4.5 26.2 4.95 25.35 5.45 24.4 6.0 25.65 M7.8 27.8 Q8.2 28.3 7.9 28.95 L7.15 29.65 Q5.6 30.05 4.8 29.35 4.0 28.7 4.0 28.15 4.0 27.65 4.7 28.3 5.4 29.0 6.05 28.7 L7.05 28.05 Q7.45 27.65 7.8 27.8 M9.1 34.45 Q8.9 33.05 10.1 32.95 L11.75 33.25 Q12.05 33.8 11.2 33.8 10.25 33.8 10.55 34.1 10.8 34.35 10.1 35.05 9.35 35.8 9.1 34.45 M8.05 31.9 Q7.85 31.3 8.3 30.75 8.75 30.3 9.25 30.3 10.8 30.35 11.4 31.25 11.95 32.1 11.85 32.7 11.6 33.15 11.2 32.35 10.7 31.45 10.0 31.55 L8.85 31.8 8.05 31.9 M13.4 33.95 Q12.9 33.65 13.85 32.7 14.7 31.75 15.2 32.15 15.55 32.6 14.65 33.5 13.7 34.45 13.4 33.95 M12.45 33.0 Q12.3 32.85 12.55 32.2 12.75 31.6 12.35 31.2 L11.45 30.7 Q10.9 30.65 11.5 30.15 L12.6 30.05 Q13.25 30.4 13.25 31.75 13.2 33.05 12.45 33.0 M18.1 21.7 Q18.55 21.35 19.1 22.55 19.7 23.7 19.2 24.05 18.65 24.2 18.1 23.05 17.55 21.85 18.1 21.7 M0.95 26.8 Q1.2 27.45 0.0 27.9 L-1.8 27.85 Q-2.4 27.3 -2.1 26.75 -1.8 26.0 -1.55 26.5 L-0.85 27.25 0.25 27.15 Q0.8 26.7 0.95 26.8 M3.25 28.0 Q3.5 28.1 3.4 28.8 3.4 29.4 3.85 29.75 L4.9 29.9 Q5.45 29.8 5.0 30.45 4.7 31.0 4.0 30.9 3.3 30.7 2.9 29.4 2.55 28.15 3.25 28.0 M2.1 27.4 Q2.65 27.55 2.0 28.75 1.5 29.9 0.9 29.7 0.45 29.3 1.05 28.25 1.7 27.05 2.1 27.4 M-3.1 -26.3 L-3.05 -26.0 -2.6 -24.55 -2.8 -24.15 -3.25 -24.15 -4.3 -25.3 Q-5.65 -26.05 -4.75 -27.35 L-3.55 -27.1 -3.1 -26.3 M-6.7 -25.45 Q-6.1 -26.75 -5.55 -25.85 -5.05 -25.0 -5.4 -24.8 -5.75 -24.55 -4.9 -24.3 -4.0 -24.05 -4.5 -23.7 L-6.1 -23.75 Q-7.25 -24.2 -6.7 -25.45 M-2.7 -23.9 Q-2.3 -24.25 -1.6 -23.1 -0.95 -22.05 -1.4 -21.7 -2.0 -21.45 -2.55 -22.55 -3.25 -23.7 -2.7 -23.9 M-3.85 -23.25 Q-3.1 -23.1 -3.4 -21.8 -3.75 -20.5 -4.35 -20.35 -5.15 -20.15 -5.45 -20.7 -5.95 -21.3 -5.3 -21.25 -4.8 -21.2 -4.35 -21.5 -3.95 -21.85 -3.85 -22.45 L-3.85 -23.25 M-8.35 -23.25 Q-8.05 -23.4 -7.6 -23.0 -7.3 -22.7 -6.6 -22.4 -5.85 -22.15 -5.25 -22.85 -4.55 -23.6 -4.5 -23.1 -4.45 -22.5 -5.25 -21.85 -6.0 -21.1 -7.55 -21.45 -8.1 -21.55 -8.4 -22.05 -8.7 -22.7 -8.35 -23.25 M-1.15 -10.75 Q-1.85 -10.85 -1.85 -12.1 -1.8 -13.4 -1.25 -13.6 -0.6 -13.85 -0.2 -13.35 0.35 -12.85 -0.2 -12.8 L-1.0 -12.5 Q-1.4 -12.15 -1.3 -11.55 -1.05 -10.95 -1.15 -10.75 M-1.75 11.25 Q-1.9 10.75 -0.6 10.55 0.65 10.3 0.85 10.85 0.85 11.5 -0.4 11.65 -1.7 11.85 -1.75 11.25 M-5.7 11.9 Q-5.25 10.35 -3.8 10.85 L-2.25 10.95 -1.95 11.3 -2.15 11.7 -3.6 12.3 Q-4.8 13.2 -5.7 11.9 M-5.45 9.15 Q-4.85 7.9 -3.75 8.5 -2.75 9.1 -2.65 9.75 -2.65 10.35 -3.4 9.85 -4.15 9.3 -4.1 9.7 -4.05 10.05 -5.05 10.2 -6.1 10.35 -5.45 9.15 M-1.95 9.95 L-1.35 9.35 Q-0.85 9.0 -0.9 8.45 L-1.35 7.55 Q-1.75 7.15 -1.0 7.1 -0.35 7.0 0.0 7.7 0.25 8.3 -0.55 9.4 -1.35 10.4 -1.95 9.95 M-4.8 6.4 Q-4.6 5.85 -3.9 5.65 L-2.85 5.85 Q-1.65 6.85 -1.75 7.95 -1.8 8.95 -2.2 9.3 -2.6 9.55 -2.5 8.65 -2.35 7.7 -2.95 7.3 -3.65 6.95 -4.1 6.9 L-4.8 6.4 M-4.15 -5.35 Q-4.7 -5.3 -5.2 -5.75 L-5.6 -6.75 Q-5.5 -8.2 -4.6 -8.6 L-3.3 -8.75 Q-2.85 -8.55 -3.6 -8.25 -4.45 -7.95 -4.4 -7.25 L-4.15 -6.1 Q-3.9 -5.65 -4.15 -5.35 M-1.75 -6.0 Q-3.0 -5.95 -3.1 -7.15 -3.15 -8.25 -2.7 -8.6 -2.25 -8.85 -2.25 -8.0 -2.3 -7.15 -2.0 -7.4 L-1.15 -6.8 Q-0.5 -5.95 -1.75 -6.0 M-2.9 -9.3 Q-3.15 -9.2 -3.7 -9.6 L-4.65 -9.55 -5.1 -8.75 Q-5.2 -8.25 -5.65 -8.85 -6.05 -9.35 -5.7 -9.95 -5.35 -10.5 -4.1 -10.25 -2.9 -10.0 -2.9 -9.3 M-2.0 -10.05 Q-2.35 -9.7 -3.2 -10.75 -4.05 -11.65 -3.65 -12.1 -3.2 -12.3 -2.45 -11.35 -1.6 -10.3 -2.0 -10.05 M0.5 -7.0 Q-0.9 -6.7 -1.3 -8.1 L-2.0 -9.45 -1.85 -9.9 -1.5 -9.9 -0.3 -8.95 Q1.05 -8.3 0.5 -7.0 M-3.2 16.75 Q-3.2 16.4 -2.7 16.2 L-1.7 15.4 Q-1.25 14.85 -1.7 14.0 -2.1 13.05 -1.6 13.2 -1.1 13.4 -0.75 14.4 -0.35 15.4 -1.15 16.7 -1.5 17.15 -2.1 17.2 -2.8 17.3 -3.2 16.75 M-4.65 14.4 Q-5.6 13.35 -4.55 13.2 -3.55 13.05 -3.5 13.45 -3.45 13.85 -2.9 13.1 -2.35 12.45 -2.15 13.0 -2.05 13.65 -2.85 14.45 L-4.65 14.4 M-1.45 22.95 Q-1.15 23.15 -1.25 23.65 L-1.2 24.9 Q-1.05 25.6 -0.1 25.8 0.85 26.0 0.5 26.3 0.0 26.65 -1.0 26.3 -2.05 26.05 -2.55 24.55 -2.7 24.05 -2.45 23.55 -2.05 22.9 -1.45 22.95" fill="#000000" fill-opacity="0.54901963" fill-rule="evenodd" stroke="none"/>
    <path d="M-3.55 -27.1 Q-7.6 -34.25 -11.4 -38.35 -16.75 -35.1 -13.65 -16.95 L-10.2 -4.8 Q-4.35 17.0 -6.1 29.0 -5.05 35.6 9.15 35.45 23.3 35.25 25.6 25.55 27.2 20.55 17.35 6.65 L7.0 -4.8 Q1.8 -17.65 -3.1 -26.3 L-3.55 -27.1 Z" fill="none" stroke="#000000" stroke-linecap="round" stroke-linejoin="round" stroke-width="1.5"/>
  </g>
</svg>
