<?xml version="1.0" encoding="UTF-8" standalone="no"?>
<svg xmlns:xlink="http://www.w3.org/1999/xlink" height="155.35px" width="49.75px" xmlns="http://www.w3.org/2000/svg">
  <g transform="matrix(1.0, 0.0, 0.0, 1.0, 24.75, 124.55)">
    <path d="M-3.75 15.6 Q-3.35 7.1 -3.5 -7.5 L-3.55 -9.55 -3.15 -9.45 -0.7 -9.45 -0.05 -9.35 0.05 -9.35 0.2 -9.35 0.9 -9.45 3.35 -9.5 3.7 -9.55 3.7 -7.55 Q3.55 7.1 4.0 15.6 L4.1 17.5 Q3.45 19.65 0.2 19.8 L-0.05 19.8 Q-3.35 19.7 -3.95 17.5 L-3.85 15.6 -3.75 15.6" fill="#333333" fill-rule="evenodd" stroke="none"/>
    <path d="M0.3 -123.8 L11.4 -105.4 11.4 -23.8 9.3 -24.65 9.1 -27.95 Q7.9 -30.2 5.65 -32.2 3.6 -34.1 0.3 -34.4 L0.3 -123.8 0.3 -34.4 Q-3.15 -34.1 -5.45 -32.4 -7.75 -30.05 -8.8 -27.9 L-9.25 -24.6 -11.15 -23.95 -11.15 -105.4 0.3 -123.8" fill="url(#gradient0)" fill-rule="evenodd" stroke="none"/>
    <path d="M-13.95 -17.25 L-13.8 -17.25 -10.9 -17.65 -10.6 -17.7 -5.7 -17.9 -6.05 -19.25 Q-6.4 -20.45 -6.4 -21.85 L-6.2 -23.75 Q-5.85 -26.25 -4.55 -28.15 -2.6 -30.55 0.1 -30.5 2.85 -30.5 4.6 -28.05 6.25 -25.85 6.55 -22.85 L6.6 -21.85 Q6.65 -19.65 5.85 -17.85 L10.8 -17.7 11.05 -17.6 14.05 -17.2 M0.3 -28.2 Q2.05 -28.15 3.15 -26.45 4.25 -24.85 4.45 -22.6 L4.45 -22.3 4.45 -21.7 Q4.35 -19.7 3.1 -18.35 L2.95 -18.05 2.15 -17.25 Q1.35 -16.6 0.2 -16.55 L0.1 -16.55 Q-1.1 -16.55 -1.95 -17.2 L-2.75 -18.1 -3.0 -18.35 -3.55 -19.35 Q-4.2 -20.65 -4.25 -22.3 L-4.25 -22.6 Q-4.1 -24.8 -2.95 -26.45 -1.8 -28.2 0.1 -28.2 L0.3 -28.2 M5.85 -17.85 L5.2 -16.75 4.55 -15.85 Q2.9 -13.35 0.3 -13.3 L0.1 -13.3 Q-2.55 -13.35 -4.55 -15.85 L-5.1 -16.8 -5.7 -17.9" fill="none" stroke="#000000" stroke-linecap="round" stroke-linejoin="round" stroke-width="1.0"/>
    <path d="M0.3 -34.4 Q3.6 -34.1 5.65 -32.2 7.9 -30.2 9.1 -27.95 L9.3 -24.65 11.4 -23.8 11.4 -105.4 0.3 -123.8 -11.15 -105.4 -11.15 -23.95 -13.15 -23.35 -13.95 -17.25 Q-16.95 -18.05 -18.85 -19.7 -19.75 -21.8 -21.0 -22.1 L-21.2 -21.9 -22.5 -21.15 Q-24.4 -19.6 -23.9 -16.1 -23.35 -14.0 -21.2 -14.7 -15.8 -12.15 -10.9 -11.0 L-4.1 -9.75 -3.55 -9.55 -3.5 -7.5 Q-3.35 7.1 -3.75 15.6 M0.3 -34.4 Q-3.15 -34.1 -5.45 -32.4 -7.75 -30.05 -8.8 -27.9 L-9.25 -24.6 -11.15 -23.95 M14.05 -17.2 L13.45 -23.0 11.4 -23.8 M3.7 -9.55 L4.2 -9.7 11.05 -10.95 Q16.1 -12.15 21.35 -14.7 23.6 -14.0 24.1 -16.05 24.75 -19.45 22.65 -21.15 L21.35 -21.95 21.15 -22.1 Q19.9 -21.75 19.15 -19.6 17.1 -17.95 14.05 -17.2 M-3.85 15.6 L-3.95 17.5 Q-3.35 19.7 -0.05 19.8 L0.2 19.8 Q3.45 19.65 4.1 17.5 L4.0 15.6 Q3.55 7.1 3.7 -7.55 L3.7 -9.55 3.35 -9.5 0.9 -9.45 0.2 -9.35 0.05 -9.35 -0.05 -9.35 -0.7 -9.45 -3.15 -9.45 -3.55 -9.55 M-5.35 19.8 L-3.95 17.5 M4.1 17.5 L5.45 19.8" fill="none" stroke="#000000" stroke-linecap="round" stroke-linejoin="round" stroke-width="1.5"/>
    <path d="M0.3 -123.8 L0.3 -34.4" fill="none" stroke="#000000" stroke-linecap="round" stroke-linejoin="round" stroke-opacity="0.44705883" stroke-width="1.0"/>
    <path d="M5.45 19.8 L6.7 22.05 Q5.05 28.45 -0.05 30.05 -4.95 28.45 -6.6 22.0 L-5.35 19.8" fill="none" stroke="#191919" stroke-linecap="round" stroke-linejoin="round" stroke-width="1.5"/>
  </g>
  <defs>
    <linearGradient gradientTransform="matrix(0.0, -0.0488, 0.0137, 0.0, 0.05, -75.85)" gradientUnits="userSpaceOnUse" id="gradient0" spreadMethod="pad" x1="-819.2" x2="819.2">
      <stop offset="0.0" stop-color="#d4d4d4"/>
      <stop offset="1.0" stop-color="#ffffff"/>
    </linearGradient>
  </defs>
</svg>
