<?xml version="1.0" encoding="UTF-8" standalone="no"?>
<svg xmlns:xlink="http://www.w3.org/1999/xlink" height="141.05px" width="44.95px" xmlns="http://www.w3.org/2000/svg">
  <g transform="matrix(1.0, 0.0, 0.0, 1.0, 22.55, 118.75)">
    <path d="M5.25 -11.75 L5.25 -9.85 4.1 -9.25 0.35 -8.55 -4.05 -9.25 -5.35 -9.8 -5.35 -11.75 -0.05 -10.6 0.0 -10.6 5.25 -11.75" fill="#2e2e2e" fill-rule="evenodd" stroke="none"/>
    <path d="M4.1 -9.25 L4.1 16.7 Q3.9 19.7 2.7 20.85 1.45 21.45 0.05 21.55 L0.0 21.55 Q-1.4 21.45 -2.6 20.85 -3.8 19.7 -4.05 16.7 L-4.05 -9.25 0.35 -8.55 4.1 -9.25" fill="#4a4a4a" fill-rule="evenodd" stroke="none"/>
    <path d="M-0.1 -22.45 L-9.0 -22.45 -9.0 -99.2 -0.05 -117.85 -0.05 -117.9 0.0 -118.0 0.0 -117.85 0.2 -117.4 0.15 -116.35 0.2 -117.4 8.8 -99.2 8.8 -22.45 -0.1 -22.45 0.15 -115.45 -0.1 -22.45 M0.15 -116.35 L0.05 -115.2 0.15 -115.45 0.2 -115.6 0.2 -116.0 0.15 -116.35" fill="url(#gradient0)" fill-rule="evenodd" stroke="none"/>
    <path d="M0.2 -117.4 L0.0 -117.85 0.0 -118.0 -0.05 -117.9 -0.05 -117.85 -9.0 -99.2 -9.0 -22.45 -0.1 -22.45 8.8 -22.45 Q17.2 -20.4 21.5 -17.65 21.8 -16.15 21.55 -14.8 21.25 -13.5 20.5 -12.35 16.95 -13.85 8.35 -12.35 L5.25 -11.75 5.25 -9.85 M0.15 -116.35 L0.2 -117.4 8.8 -99.2 8.8 -22.45 M4.1 -9.25 L4.1 16.7 Q3.9 19.7 2.7 20.85 1.45 21.45 0.05 21.55 L0.0 21.55 Q-1.4 21.45 -2.6 20.85 -3.8 19.7 -4.05 16.7 L-4.05 -9.25 0.35 -8.55 4.1 -9.25 M-5.35 -9.8 L-5.35 -11.75 -8.5 -12.35 Q-17.05 -13.85 -20.7 -12.35 -21.4 -13.5 -21.7 -14.8 -21.95 -16.15 -21.6 -17.65 -17.35 -20.4 -9.0 -22.45 M0.15 -115.45 L0.15 -116.35 M-5.35 -11.75 L-0.05 -10.6 0.0 -10.6 5.25 -11.75 M4.1 -19.45 L0.0 -20.2 -0.05 -20.2 -4.3 -19.45 -5.85 -14.65 0.0 -12.85 5.75 -14.65 4.1 -19.45" fill="none" stroke="#000000" stroke-linecap="round" stroke-linejoin="round" stroke-width="1.5"/>
    <path d="M-0.1 -22.45 L0.15 -115.45" fill="none" stroke="#000000" stroke-linecap="round" stroke-linejoin="round" stroke-opacity="0.49803922" stroke-width="1.5"/>
  </g>
  <defs>
    <linearGradient gradientTransform="matrix(0.0, -0.0507, 0.0109, 0.0, -0.1, -66.85)" gradientUnits="userSpaceOnUse" id="gradient0" spreadMethod="pad" x1="-819.2" x2="819.2">
      <stop offset="0.0" stop-color="#bdcbd1"/>
      <stop offset="1.0" stop-color="#d7eaed"/>
    </linearGradient>
  </defs>
</svg>
