<?xml version="1.0" encoding="UTF-8" standalone="no"?>
<svg xmlns:xlink="http://www.w3.org/1999/xlink" height="154.2px" width="42.85px" xmlns="http://www.w3.org/2000/svg">
  <g transform="matrix(1.0, 0.0, 0.0, 1.0, 21.25, 122.8)">
    <path d="M-9.45 -18.2 L-9.45 -106.0 0.0 -122.15 8.8 -106.0 8.8 -18.2 -0.3 -18.2 -9.45 -18.2 M0.0 -122.15 L-0.3 -18.2 0.0 -122.15" fill="#c4c4c4" fill-rule="evenodd" stroke="none"/>
    <path d="M4.2 -7.95 L4.2 18.85 Q2.55 17.45 0.4 17.35 L-0.05 17.35 Q-2.5 17.35 -4.3 18.85 L-4.3 -7.95 4.2 -7.95" fill="#382921" fill-rule="evenodd" stroke="none"/>
    <path d="M-9.45 -18.2 L-9.45 -106.0 0.0 -122.15 8.8 -106.0 8.8 -18.2 M-4.3 -7.95 L-11.65 -7.95 -11.65 -10.85 -17.25 -10.85 -20.6 -15.75 -11.4 -15.8 -11.4 -18.1 10.75 -18.1 10.75 -15.8 20.95 -15.75 17.35 -10.85 12.35 -10.85 12.35 -7.95 4.2 -7.95 4.2 18.85 4.7 19.3 Q6.1 20.7 6.45 22.5 L6.65 24.05 Q6.65 26.85 4.7 28.8 2.75 30.75 -0.05 30.75 -2.85 30.75 -4.8 28.8 -6.75 26.85 -6.75 24.05 -6.75 21.25 -4.8 19.3 L-4.75 19.25 -4.3 18.85 -4.3 -7.95 4.2 -7.95 M-0.05 21.15 Q1.0 21.15 1.75 21.85 L1.95 22.0 Q2.8 22.85 2.8 24.05 2.8 25.25 1.95 26.05 1.1 26.9 -0.05 26.9 -1.3 26.9 -2.1 26.05 -2.95 25.25 -2.95 24.05 -2.95 22.85 -2.1 22.0 L-1.9 21.85 Q-1.1 21.15 -0.05 21.15 M4.2 18.85 Q2.55 17.45 0.4 17.35 L-0.05 17.35 Q-2.5 17.35 -4.3 18.85 M10.75 -15.8 L-11.4 -15.8 M-11.65 -10.85 L12.35 -10.85" fill="none" stroke="#000000" stroke-linecap="round" stroke-linejoin="round" stroke-width="1.3"/>
    <path d="M-0.3 -18.2 L0.0 -122.15" fill="none" stroke="#000000" stroke-linecap="round" stroke-linejoin="round" stroke-opacity="0.49803922" stroke-width="1.3"/>
  </g>
</svg>
