<?xml version="1.0" encoding="UTF-8" standalone="no"?>
<svg xmlns:xlink="http://www.w3.org/1999/xlink" height="195.95px" width="93.0px" xmlns="http://www.w3.org/2000/svg">
  <g transform="matrix(1.0, 0.0, 0.0, 1.0, 46.5, 97.95)">
    <path d="M45.5 -74.3 Q45.35 -77.3 42.5 -83.15 34.25 -94.65 18.0 -96.95 L13.55 -95.9 Q9.8 -94.95 6.45 -93.65 -9.6 -87.45 -17.7 -73.45 -28.65 -54.8 -32.05 -30.2 -37.65 2.6 -33.35 38.05 -29.05 73.45 -45.5 97.0 L-39.9 93.95 Q-27.7 86.6 -20.4 76.75 -6.85 58.55 -10.1 31.75 L-10.4 29.25 M2.25 -68.5 Q3.45 -62.65 8.3 -59.75 L8.6 -59.6 M-10.1 31.75 Q-7.8 -14.95 10.3 -49.4" fill="none" stroke="#000000" stroke-linecap="round" stroke-linejoin="round" stroke-width="2.0"/>
  </g>
</svg>
