<?xml version="1.0" encoding="UTF-8" standalone="no"?>
<svg xmlns:xlink="http://www.w3.org/1999/xlink" height="58.3px" width="57.2px" xmlns="http://www.w3.org/2000/svg">
  <g transform="matrix(1.0, 0.0, 0.0, 1.0, 21.6, 41.25)">
    <path d="M34.75 -31.5 L34.95 -33.7 34.7 -34.2 34.25 -36.4 32.25 -40.0 31.0 -40.4 29.45 -39.95 31.35 -36.7 34.25 -31.25 34.75 -31.5 34.85 -30.9 25.1 -25.95 24.3 -24.3 14.75 -19.4 Q13.65 -16.95 14.2 -15.1 14.7 -11.9 11.7 -10.0 L8.05 -8.15 Q5.4 -6.9 4.15 -5.8 L3.8 -5.5 3.7 -5.4 3.55 -5.45 3.4 -5.25 6.55 6.5 7.25 9.1 7.0 11.45 -2.75 16.4 -4.0 15.85 -4.9 11.9 -7.6 0.25 Q-9.55 -4.9 -10.05 -5.7 M29.45 -39.95 L29.0 -40.6 27.05 -39.95 26.85 -38.3 13.0 -31.25 13.7 -27.75 13.65 -27.65 31.35 -36.7 M9.0 -16.6 L7.1 -15.65 Q6.8 -14.25 7.85 -12.6 8.8 -11.75 9.85 -11.4 L11.3 -12.1 Q12.25 -13.35 11.8 -15.2 11.3 -17.1 9.0 -16.6 L14.75 -19.4 M4.6 -14.35 L2.45 -13.3 Q1.4 -12.05 3.1 -10.25 4.1 -9.2 6.2 -9.55 L7.25 -10.05 Q6.15 -10.4 5.25 -11.85 4.7 -12.85 4.6 -13.75 L4.6 -14.35 7.1 -15.65 M9.85 -11.4 L10.05 -11.3 Q9.6 -10.9 8.75 -10.45 L7.65 -9.95 7.25 -10.05 M-19.2 -12.4 L-20.7 -10.9 Q-21.2 -9.65 -20.65 -8.4 L-20.6 -8.25 -19.15 -8.0 -16.85 -9.2 -17.15 -9.65 Q-16.35 -10.05 -17.2 -11.5 L-18.05 -11.75 Q-18.6 -12.0 -19.2 -12.4 L-20.1 -13.05 -17.45 -14.4 -17.65 -17.05 -16.6 -17.25 -13.5 -17.95 -12.85 -18.1 -10.15 -19.45 -5.15 -22.0 13.0 -31.25 M-10.15 -19.45 L-6.7 -17.3 -2.1 -19.65 -5.15 -22.0 M-6.7 -17.3 L-10.0 -15.6 -12.55 -14.3 -15.15 -13.0 -17.45 -14.4 M-12.55 -14.3 L-16.6 -17.25 M-16.85 -9.2 L-15.6 -7.4 -15.5 -6.55 -10.7 -6.35 -10.6 -6.4 -0.6 -11.75 2.45 -13.3 M-10.6 -6.4 L-10.5 -6.35 -10.7 -6.35 M-13.5 -17.95 L-10.0 -15.6 M-4.9 11.9 L6.55 6.5 M13.7 -27.75 L-2.1 -19.65 M3.4 -5.25 L-0.6 -11.75" fill="none" stroke="#000000" stroke-linecap="round" stroke-linejoin="round" stroke-width="1.3"/>
  </g>
</svg>
