<?xml version="1.0" encoding="UTF-8" standalone="no"?>
<svg xmlns:xlink="http://www.w3.org/1999/xlink" height="59.3px" width="63.9px" xmlns="http://www.w3.org/2000/svg">
  <g transform="matrix(1.0, 0.0, 0.0, 1.0, 16.65, 48.25)">
    <path d="M-15.8 -8.1 L44.35 -41.55 44.85 -40.75 44.4 -38.55 40.9 -36.6 14.0 -21.65 -2.7 -12.4 -3.3 -11.0 Q-2.6 -8.35 -0.1 -6.9 -1.85 -6.15 -3.8 -7.4 L-6.95 -7.55 -9.8 -5.95 -14.45 -5.7 -15.8 -8.1" fill="#2f2f32" fill-rule="evenodd" stroke="none"/>
    <path d="M29.4 -39.85 L29.25 -39.2 29.25 -39.0 28.2 -35.75 42.75 -43.8 43.35 -45.8 42.9 -46.6 41.95 -47.45 40.95 -47.6 29.9 -41.45 29.4 -39.85 -12.55 -16.5 -16.0 -8.5 -15.8 -8.1 44.35 -41.55 43.2 -43.65 43.05 -43.5 42.7 -43.2 28.85 -35.5 28.2 -35.75 M-0.1 -6.9 L1.25 -6.2 1.8 -6.05 Q4.3 -5.6 7.5 -7.0 10.65 -8.95 10.7 -12.2 10.6 -15.45 11.0 -15.75 L17.9 -19.55 14.0 -21.65 -2.7 -12.4 -3.3 -11.0 Q-2.6 -8.35 -0.1 -6.9 -1.85 -6.15 -3.8 -7.4 L-6.95 -7.55 -9.8 -5.95 Q-8.95 -5.25 -7.8 -4.75 -6.8 -4.3 -6.6 -3.8 -6.7 2.5 -4.05 8.05 -2.75 10.7 -1.45 10.35 L4.5 7.05 4.7 6.85 Q4.8 6.15 3.85 4.7 L3.65 4.5 3.4 3.9 2.55 1.25 Q2.1 -0.35 1.9 -2.05 L1.75 -4.5 1.8 -5.1 1.8 -6.05 M17.9 -19.55 L18.5 -19.25 42.85 -32.8 43.15 -33.0 Q44.05 -33.75 43.75 -35.15 L43.55 -35.55 Q42.55 -37.0 40.9 -36.6 L14.0 -21.65 M2.5 -12.8 L4.75 -14.15 Q5.95 -14.95 7.25 -15.3 8.1 -14.75 8.5 -13.0 8.95 -9.95 6.6 -8.65 2.65 -6.85 1.2 -9.45 0.55 -10.7 0.55 -11.45 L2.5 -12.8 2.8 -11.9 Q3.65 -9.7 6.25 -9.75 L6.15 -10.1 6.0 -10.95 Q4.9 -11.65 4.75 -12.95 4.6 -13.5 4.75 -14.15 M43.35 -45.8 L43.75 -45.0 43.2 -43.65 M40.9 -36.6 L44.4 -38.55 44.85 -40.75 44.35 -41.55 M44.4 -38.55 Q45.4 -38.45 46.25 -37.0 L46.45 -36.65 Q46.85 -35.4 46.1 -34.65 L43.15 -33.0 M-15.8 -8.1 L-14.45 -5.7 -9.8 -5.95" fill="none" stroke="#000000" stroke-linecap="round" stroke-linejoin="round" stroke-width="1.3"/>
  </g>
</svg>
