<?xml version="1.0" encoding="UTF-8" standalone="no"?>
<svg xmlns:xlink="http://www.w3.org/1999/xlink" height="58.2px" width="57.1px" xmlns="http://www.w3.org/2000/svg">
  <g transform="matrix(1.0, 0.0, 0.0, 1.0, 20.45, 42.15)">
    <path d="M35.85 -32.45 L35.95 -31.85 26.2 -26.9 25.4 -25.25 15.85 -20.35 10.1 -17.55 8.2 -16.6 5.7 -15.3 3.55 -14.25 0.5 -12.7 -7.65 -8.2 -9.8 -7.3 -14.4 -7.5 -14.5 -8.35 -15.75 -10.15 -16.05 -10.6 Q-15.25 -11.0 -16.1 -12.45 L-16.95 -12.7 -18.1 -13.35 Q-18.55 -13.6 -19.0 -14.0 -17.65 -14.65 -16.35 -15.35 L-14.05 -13.95 -11.45 -15.25 -8.9 -16.55 -5.6 -18.25 -3.3 -19.4 -3.35 -19.35 1.2 -19.1 3.6 -22.45 7.4 -22.3 9.85 -25.7 9.1 -25.75 5.5 -26.0 2.95 -22.6 2.85 -22.55 -0.75 -22.8 -1.9 -21.3 -4.05 -22.95 14.1 -32.2 14.75 -29.1 11.85 -29.3 9.25 -25.85 9.1 -25.75 9.25 -25.85 13.75 -25.65 16.2 -29.0 15.6 -29.05 32.45 -37.65 35.35 -32.2 35.85 -32.45" fill="#000000" fill-opacity="0.25882354" fill-rule="evenodd" stroke="none"/>
    <path d="M15.85 -20.35 Q14.75 -17.9 15.3 -16.05 15.8 -12.85 12.8 -10.95 L9.15 -9.1 Q6.5 -7.85 5.25 -6.75 L4.9 -6.45 4.8 -6.35 4.65 -6.4 4.5 -6.2 7.65 5.55 -3.8 10.95 -6.5 -0.7 -9.0 -6.75 Q-8.85 -7.1 -9.4 -7.3 L-9.5 -7.35 -7.65 -8.2 0.5 -12.7 3.55 -14.25 Q2.5 -13.0 4.2 -11.2 5.2 -10.15 7.3 -10.5 L8.75 -10.9 9.85 -11.4 11.15 -12.25 12.4 -13.05 Q13.35 -14.3 12.9 -16.15 12.4 -18.05 10.1 -17.55 L15.85 -20.35 M4.5 -6.2 L0.5 -12.7 4.5 -6.2" fill="#000000" fill-opacity="0.5882353" fill-rule="evenodd" stroke="none"/>
    <path d="M14.1 -32.2 L27.95 -39.25 28.15 -40.9 30.1 -41.55 30.55 -40.9 32.1 -41.35 33.35 -40.95 35.35 -37.35 35.8 -35.15 36.05 -34.65 35.85 -32.45 35.95 -31.85 26.2 -26.9 25.4 -25.25 15.85 -20.35 Q14.75 -17.9 15.3 -16.05 15.8 -12.85 12.8 -10.95 L9.15 -9.1 Q6.5 -7.85 5.25 -6.75 L4.9 -6.45 4.8 -6.35 4.65 -6.4 4.5 -6.2 7.65 5.55 8.35 8.15 8.1 10.5 -1.65 15.45 -2.9 14.9 -3.8 10.95 -6.5 -0.7 -9.0 -6.75 Q-8.85 -7.1 -9.4 -7.3 L-9.5 -7.35 -7.65 -8.2 -9.8 -7.3 -14.4 -7.5 -14.5 -8.35 -15.75 -10.15 Q-16.75 -9.75 -18.05 -8.95 L-19.5 -9.2 -19.55 -9.35 Q-20.1 -10.6 -19.6 -11.85 L-18.1 -13.35 Q-18.55 -13.6 -19.0 -14.0 -17.65 -14.65 -16.35 -15.35 L-16.55 -18.0 -15.5 -18.2 -12.4 -18.9 -11.75 -19.05 -9.05 -20.4 -4.05 -22.95 14.1 -32.2 14.75 -29.1 15.6 -29.05 32.45 -37.65 30.55 -40.9 M35.85 -32.45 L35.35 -32.2 32.45 -37.65 M-4.05 -22.95 L-1.9 -21.3 -0.75 -22.8 2.85 -22.55 2.95 -22.6 5.5 -26.0 9.1 -25.75 9.25 -25.85 11.85 -29.3 14.75 -29.1 M9.1 -25.75 L9.85 -25.7 7.4 -22.3 3.6 -22.45 1.2 -19.1 -3.35 -19.35 -3.3 -19.4 -5.6 -18.25 -8.9 -16.55 -11.45 -15.25 -14.05 -13.95 -16.35 -15.35 M15.6 -29.05 L16.2 -29.0 13.75 -25.65 9.25 -25.85 M10.1 -17.55 Q12.4 -18.05 12.9 -16.15 13.35 -14.3 12.4 -13.05 L11.15 -12.25 9.85 -11.4 8.75 -10.9 7.3 -10.5 Q5.2 -10.15 4.2 -11.2 2.5 -13.0 3.55 -14.25 L0.5 -12.7 4.5 -6.2 M2.95 -22.6 L2.9 -22.55 3.25 -22.5 3.3 -22.5 3.6 -22.5 3.6 -22.45 3.3 -22.5 M2.85 -22.55 L2.9 -22.55 M10.1 -17.55 L8.2 -16.6 Q7.9 -15.2 8.95 -13.55 9.9 -12.7 11.15 -12.25 M8.2 -16.6 L5.7 -15.3 5.7 -14.7 Q5.8 -13.8 6.35 -12.8 7.25 -11.35 8.75 -10.9 M5.7 -15.3 L3.55 -14.25 M15.85 -20.35 L10.1 -17.55 M-3.3 -19.4 L-1.9 -21.3 M-9.05 -20.4 L-5.6 -18.25 M-15.75 -10.15 L-16.05 -10.6 Q-15.25 -11.0 -16.1 -12.45 L-16.95 -12.7 -18.1 -13.35 M-11.45 -15.25 L-15.5 -18.2 M-8.9 -16.55 L-12.4 -18.9 M-3.8 10.95 L7.65 5.55 M0.5 -12.7 L-7.65 -8.2" fill="none" stroke="#000000" stroke-linecap="round" stroke-linejoin="round" stroke-width="1.2000000000000002"/>
  </g>
</svg>
