<?xml version="1.0" encoding="UTF-8" standalone="no"?>
<svg xmlns:xlink="http://www.w3.org/1999/xlink" height="154.1px" width="37.15px" xmlns="http://www.w3.org/2000/svg">
  <g transform="matrix(1.0, 0.0, 0.0, 1.0, 16.9, 121.75)">
    <path d="M-4.75 18.0 L-4.8 17.5 Q-10.05 3.55 -4.65 -13.3 0.1 -12.35 4.75 -13.3 L3.7 -7.2 Q-1.45 9.0 4.8 18.25 L4.6 18.25 4.55 18.25 4.05 17.9 3.95 17.85 Q1.75 16.3 -1.45 16.85 L-4.75 18.0" fill="#332616" fill-rule="evenodd" stroke="none"/>
    <path d="M-4.65 -13.3 L-7.4 -14.1 Q-10.1 -15.25 -14.95 -16.3 L-16.0 -18.6 -16.05 -18.7 Q-16.3 -19.7 -15.95 -20.3 -9.65 -18.35 -6.3 -20.25 -2.3 -50.05 -14.65 -90.75 -5.75 -103.15 -6.2 -121.0 L-5.4 -120.0 Q5.9 -105.85 6.6 -83.95 7.25 -62.05 5.35 -37.15 3.9 -23.25 6.05 -20.35 9.8 -17.05 13.15 -17.6 18.85 -12.2 19.5 -2.6 20.05 14.75 7.2 25.4 6.85 27.3 5.5 28.9 3.55 31.25 0.4 31.55 -2.8 31.8 -5.1 29.85 -7.35 27.8 -7.6 24.65 L-7.7 23.65 Q-7.65 21.15 -6.0 19.2 -5.45 18.5 -4.75 18.0 L-4.8 17.5 Q-10.05 3.55 -4.65 -13.3 0.1 -12.35 4.75 -13.3 L6.95 -13.9 Q14.85 -13.7 14.85 -1.7 L14.35 4.25 Q12.65 13.9 5.05 18.7 L4.6 18.25 4.55 18.25 4.05 17.9 3.95 17.85 Q1.75 16.3 -1.45 16.85 L-4.75 18.0 M6.05 -20.35 L3.2 -17.75 Q1.45 -16.7 -0.3 -16.5 -5.35 -17.9 -6.3 -20.25 M4.6 18.25 L4.8 18.25 Q-1.45 9.0 3.7 -7.2 L4.75 -13.3 M4.8 18.25 L5.05 18.7" fill="none" stroke="#000000" stroke-linecap="round" stroke-linejoin="round" stroke-width="1.5"/>
    <path d="M-0.3 -16.5 Q3.45 -49.25 1.9 -76.0 1.85 -90.4 -1.6 -106.4" fill="none" stroke="#000000" stroke-linecap="round" stroke-linejoin="round" stroke-opacity="0.44705883" stroke-width="1.2000000000000002"/>
  </g>
</svg>
