<?xml version="1.0" encoding="UTF-8" standalone="no"?>
<svg xmlns:xlink="http://www.w3.org/1999/xlink" height="90.1px" width="28.8px" xmlns="http://www.w3.org/2000/svg">
  <g transform="matrix(1.0, 0.0, 0.0, 1.0, 10.25, 72.15)">
    <path d="M-2.15 1.4 Q-2.9 1.4 -3.45 0.9 -4.0 0.4 -4.0 -0.25 -4.0 -0.95 -3.45 -1.45 -2.9 -1.85 -2.15 -1.85 -1.4 -1.85 -0.95 -1.45 -0.45 -0.95 -0.45 -0.25 -0.45 0.4 -0.95 0.9 -1.4 1.4 -2.15 1.4 M-1.35 -8.85 Q-0.85 -8.35 -0.85 -7.7 -0.85 -6.95 -1.35 -6.45 -1.95 -5.95 -2.7 -5.95 -3.45 -5.95 -4.05 -6.45 -4.6 -6.95 -4.6 -7.7 -4.6 -8.35 -4.05 -8.85 -3.45 -9.35 -2.7 -9.35 -1.95 -9.35 -1.35 -8.85" fill="#646464" fill-rule="evenodd" stroke="none"/>
    <path d="M3.2 -11.8 Q2.35 -9.15 2.25 -4.9 L1.8 5.65 Q0.85 11.65 3.7 15.6 -2.65 18.95 -3.35 15.3 -5.25 4.7 -5.65 -11.8 L3.2 -11.8 M-1.35 -8.85 Q-1.95 -9.35 -2.7 -9.35 -3.45 -9.35 -4.05 -8.85 -4.6 -8.35 -4.6 -7.7 -4.6 -6.95 -4.05 -6.45 -3.45 -5.95 -2.7 -5.95 -1.95 -5.95 -1.35 -6.45 -0.85 -6.95 -0.85 -7.7 -0.85 -8.35 -1.35 -8.85 M-2.15 1.4 Q-1.4 1.4 -0.95 0.9 -0.45 0.4 -0.45 -0.25 -0.45 -0.95 -0.95 -1.45 -1.4 -1.85 -2.15 -1.85 -2.9 -1.85 -3.45 -1.45 -4.0 -0.95 -4.0 -0.25 -4.0 0.4 -3.45 0.9 -2.9 1.4 -2.15 1.4" fill="#101010" fill-rule="evenodd" stroke="none"/>
    <path d="M-5.65 -11.8 L-5.6 -14.55 Q-5.25 -47.35 -8.25 -61.9 -9.1 -66.1 -9.5 -67.5 L-2.3 -68.3 8.7 -70.25 Q11.85 -70.7 14.1 -71.4 17.05 -62.2 17.8 -21.35 L12.7 -20.4 Q4.3 -18.45 3.2 -14.55 2.75 -13.3 3.2 -11.8 2.35 -9.15 2.25 -4.9 L1.8 5.65 Q0.85 11.65 3.7 15.6 -2.65 18.95 -3.35 15.3 -5.25 4.7 -5.65 -11.8 L3.2 -11.8" fill="none" stroke="#000000" stroke-linecap="round" stroke-linejoin="round" stroke-width="1.5"/>
  </g>
</svg>
