<?xml version="1.0" encoding="UTF-8" standalone="no"?>
<svg xmlns:xlink="http://www.w3.org/1999/xlink" height="98.5px" width="21.65px" xmlns="http://www.w3.org/2000/svg">
  <g transform="matrix(1.0, 0.0, 0.0, 1.0, 8.05, 79.15)">
    <path d="M-7.1 -12.4 L4.35 -12.75 Q5.05 -12.6 5.4 -10.7 L5.4 -10.65 Q2.35 -1.0 3.75 15.7 L3.7 17.25 Q3.5 18.2 0.1 18.5 L-1.2 18.6 Q-4.85 18.45 -5.6 17.75 L-5.85 15.6 Q-6.8 1.6 -6.25 -8.8 L-6.45 -10.65 Q-7.15 -11.85 -7.1 -12.4" fill="#222225" fill-rule="evenodd" stroke="none"/>
    <path d="M-7.1 -12.4 Q-7.15 -11.85 -6.45 -10.65 L-6.25 -8.8 Q-6.8 1.6 -5.85 15.6 L-5.6 17.75 Q-4.85 18.45 -1.2 18.6 L0.1 18.5 Q3.5 18.2 3.7 17.25 L3.75 15.7 Q2.35 -1.0 5.4 -10.65 L5.4 -10.7 Q5.05 -12.6 4.35 -12.75 L-7.1 -12.4 -7.3 -78.4 Q4.8 -70.7 9.0 -60.2 13.75 -43.4 12.65 -11.8 L9.6 -12.35 4.35 -12.75" fill="none" stroke="#000000" stroke-linecap="round" stroke-linejoin="round" stroke-width="1.5"/>
  </g>
</svg>
