<?xml version="1.0" encoding="UTF-8" standalone="no"?>
<svg xmlns:xlink="http://www.w3.org/1999/xlink" height="90.1px" width="15.3px" xmlns="http://www.w3.org/2000/svg">
  <g transform="matrix(1.0, 0.0, 0.0, 1.0, 10.2, 69.45)">
    <path d="M-2.75 -1.5 Q-1.0 -1.1 0.2 -1.5 1.35 -1.85 2.0 -2.6 3.05 -3.7 2.95 -5.65 L2.9 -6.1 Q2.7 -7.25 2.05 -8.0 1.05 -9.35 -0.8 -9.95 L-3.3 -9.8 Q-5.4 -9.35 -7.05 -7.7 L-7.2 -7.45 -7.2 -15.7 -6.95 -16.05 -1.45 -16.05 0.9 -14.8 2.1 -13.45 3.3 -11.6 3.65 -9.35 3.2 -5.95 3.2 7.25 1.65 4.85 -0.1 2.85 Q-1.75 1.0 -2.7 -0.85 L-2.75 -1.5" fill="#53585b" fill-rule="evenodd" stroke="none"/>
    <path d="M0.0 19.6 Q1.2 19.15 2.15 18.05 L3.1 16.8 3.05 17.9 Q3.2 19.2 0.0 19.6 M-7.3 8.75 L-7.25 5.05 -4.9 7.5 Q-5.85 7.5 -6.8 8.2 L-7.3 8.75" fill="#7c8487" fill-rule="evenodd" stroke="none"/>
    <path d="M-2.7 -0.85 Q-1.75 1.0 -0.1 2.85 L1.65 4.85 3.2 7.25 3.2 -5.95 3.65 -9.35 3.3 -11.6 2.1 -13.45 0.9 -14.8 -1.45 -16.05 -6.95 -16.05 -7.2 -15.7 -7.2 -7.45 -7.05 -7.7 Q-5.4 -9.35 -3.3 -9.8 L-0.8 -9.95 Q1.05 -9.35 2.05 -8.0 2.7 -7.25 2.9 -6.1 L2.95 -5.65 Q3.05 -3.7 2.0 -2.6 1.35 -1.85 0.2 -1.5 -1.0 -1.1 -2.75 -1.5 L-2.95 -1.65 Q-3.55 -3.1 -3.65 -4.6 L-3.05 -6.0 -1.75 -6.95 Q-0.55 -6.85 -0.25 -5.9 -0.3 -4.1 -1.75 -4.75 M-2.7 -0.85 L-2.95 -1.65 M-6.95 -16.05 L-6.8 -68.8 Q0.05 -62.0 3.45 -52.95 L3.3 -11.6 M3.1 16.8 L3.95 15.2 Q5.0 12.4 3.95 9.4 3.75 8.3 3.2 7.25 M0.0 19.6 Q1.2 19.15 2.15 18.05 L3.1 16.8 3.05 17.9 Q3.2 19.2 0.0 19.6 L-0.8 19.85 -2.65 20.0 -4.3 19.85 Q-5.5 19.65 -6.5 18.95 L-6.65 18.9 Q-8.5 17.65 -9.45 14.7 -10.0 11.45 -7.3 8.75 L-7.25 5.05 Q-8.75 2.9 -9.2 0.2 -9.7 -4.4 -7.2 -7.45 M-4.9 7.5 Q-3.3 7.2 -2.0 8.75 L-1.6 9.25 Q-0.45 10.8 -1.4 13.25 L-1.65 13.95 Q-2.7 15.8 -5.0 15.0 L-5.6 14.3 Q-6.05 13.35 -5.4 12.3 -4.15 10.95 -3.4 11.1 -2.1 11.85 -3.75 13.1 M-7.3 8.75 L-6.8 8.2 Q-5.85 7.5 -4.9 7.5 L-7.25 5.05" fill="none" stroke="#000000" stroke-linecap="round" stroke-linejoin="round" stroke-width="1.3"/>
  </g>
</svg>
