<?xml version="1.0" encoding="UTF-8" standalone="no"?>
<svg xmlns:xlink="http://www.w3.org/1999/xlink" height="191.55px" width="48.6px" xmlns="http://www.w3.org/2000/svg">
  <g transform="matrix(1.0, 0.0, 0.0, 1.0, 26.05, 116.15)">
    <path d="M3.45 -65.8 L5.75 -65.85 3.45 -72.85 -0.3 -72.5 Q-7.7 -72.5 -12.95 -77.75 -18.2 -83.0 -18.2 -90.4 -18.2 -97.9 -12.95 -103.1 -7.7 -108.35 -0.3 -108.35 7.15 -108.35 12.4 -103.1 L13.6 -101.8 Q20.3 -93.8 20.8 -96.3 23.75 -101.15 15.05 -109.85 8.5 -115.15 -0.3 -115.15 -10.55 -115.15 -17.75 -107.95 -25.05 -100.7 -25.05 -90.4 -25.05 -80.2 -17.75 -72.95 -13.45 -68.65 -8.0 -66.9 L-4.55 -66.1 -4.45 -58.95 Q-4.3 -55.05 -4.4 1.2 -4.55 57.4 -2.6 69.15 L-1.2 74.4 0.35 69.0 Q2.9 12.85 3.5 -65.5 M14.35 -90.45 Q14.35 -96.6 10.1 -100.9 5.8 -105.2 -0.35 -105.2 -6.4 -105.2 -10.75 -100.9 -15.1 -96.6 -15.1 -90.45 -15.1 -84.35 -10.75 -80.05 -6.4 -75.7 -0.35 -75.7 5.8 -75.7 10.1 -80.05 14.35 -84.35 14.35 -90.45" fill="none" stroke="#000000" stroke-linecap="round" stroke-linejoin="round" stroke-width="2.0"/>
  </g>
</svg>
