<?xml version="1.0" encoding="UTF-8" standalone="no"?>
<svg xmlns:xlink="http://www.w3.org/1999/xlink" height="167.9px" width="54.7px" xmlns="http://www.w3.org/2000/svg">
  <g transform="matrix(1.0, 0.0, 0.0, 1.0, 26.2, 108.0)">
    <path d="M16.85 -101.95 L14.0 -98.0 Q8.45 -102.35 1.2 -102.35 -6.1 -102.35 -11.6 -98.15 L-14.55 -101.95 Q-7.75 -107.25 1.25 -107.25 10.05 -107.25 16.85 -101.95 M20.2 -98.9 Q27.75 -91.0 27.75 -80.15 27.75 -75.85 26.65 -72.05 25.1 -67.25 21.95 -63.2 L18.2 -66.3 Q20.8 -69.55 22.05 -73.55 22.9 -76.65 22.9 -80.15 22.9 -89.0 16.85 -95.4 L20.2 -98.9 M13.6 -76.25 Q12.65 -73.15 10.35 -70.85 6.5 -66.9 1.25 -66.9 -4.15 -66.9 -7.9 -70.85 L-9.9 -73.15 -11.25 -76.25 Q-11.75 -78.1 -11.75 -80.2 L-11.75 -80.3 -11.75 -80.45 -11.75 -80.55 -11.75 -80.9 -11.75 -81.0 -11.75 -81.1 Q-11.5 -83.7 -10.5 -85.9 L-9.7 -87.3 -7.9 -89.5 Q-4.15 -93.45 1.25 -93.45 6.5 -93.45 10.35 -89.5 14.15 -85.65 14.15 -80.2 14.15 -78.1 13.6 -76.25 M18.45 -80.1 Q18.45 -77.3 17.75 -74.85 16.45 -70.75 13.35 -67.6 8.25 -62.35 1.2 -62.35 -6.0 -62.35 -11.05 -67.6 -12.65 -69.1 -13.7 -70.8 -14.9 -72.7 -15.45 -74.85 -16.15 -77.3 -16.15 -80.1 -16.15 -83.8 -14.8 -86.95 -13.55 -90.0 -11.05 -92.55 -6.0 -97.75 1.2 -97.75 8.25 -97.75 13.35 -92.55 18.45 -87.35 18.45 -80.1 M-1.85 34.9 L4.45 34.9 4.0 57.3 Q2.7 59.0 1.15 59.15 L-0.3 58.8 Q-1.25 58.35 -2.25 57.35 L-2.3 57.3 -2.7 34.9 -1.85 34.9 -2.85 -25.7 -3.45 -25.7 -3.6 -34.85 -3.95 -50.85 -3.25 -50.6 -2.55 -50.4 -0.65 -50.0 -0.95 -52.95 Q-10.05 -53.65 -16.75 -60.1 L-13.65 -63.85 Q-8.4 -58.65 -1.35 -57.9 L-1.4 -58.55 3.3 -58.5 3.3 -57.85 Q10.5 -58.5 15.95 -63.85 L19.1 -60.1 Q12.2 -53.55 3.05 -52.95 L2.95 -50.0 Q4.4 -50.25 5.9 -50.85 L5.6 -34.85 5.4 -25.7 4.85 -25.7 3.65 34.65 M3.05 -52.95 L3.3 -57.85 M2.95 -50.0 L2.85 -48.5 -0.55 -48.65 -0.6 -48.65 -0.65 -49.4 M-14.55 -95.45 Q-20.65 -89.0 -20.65 -80.15 -20.65 -76.65 -19.8 -73.55 -18.7 -69.5 -15.95 -66.25 L-19.65 -63.15 Q-23.05 -67.2 -24.35 -72.05 -25.45 -75.85 -25.45 -80.15 -25.45 -91.0 -17.9 -98.9 L-14.55 -95.45 M-0.95 -52.95 L-1.35 -57.9 M-0.65 -49.65 L-0.65 -50.0 M-3.6 -34.85 L-3.25 -34.85 M5.6 -34.85 L-2.3 -34.85 M4.85 -25.7 L-2.85 -25.7" fill="none" stroke="#000000" stroke-linecap="round" stroke-linejoin="round" stroke-width="1.5"/>
  </g>
</svg>
