<?xml version="1.0" encoding="UTF-8" standalone="no"?>
<svg xmlns:xlink="http://www.w3.org/1999/xlink" height="205.75px" width="55.2px" xmlns="http://www.w3.org/2000/svg">
  <g transform="matrix(1.0, 0.0, 0.0, 1.0, 32.2, 125.1)">
    <path d="M5.95 -122.55 Q4.8 -123.45 3.1 -123.45 1.5 -123.45 0.35 -122.55 -0.8 -121.6 -0.8 -120.3 -0.8 -119.0 0.35 -118.1 1.5 -117.1 3.1 -117.1 4.8 -117.1 5.95 -118.1 7.1 -119.0 7.1 -120.35 7.1 -121.6 5.95 -122.55 M15.55 -110.65 Q20.75 -109.6 22.1 -106.55 23.35 -103.45 14.2 -101.15 L14.95 -103.25 Q15.85 -107.55 11.25 -111.15 L15.55 -110.65 M0.65 -113.2 Q-3.9 -113.2 -7.15 -110.1 -10.35 -106.85 -10.25 -102.7 -10.1 -98.5 -6.8 -95.6 -3.45 -92.7 0.9 -92.15 5.2 -91.55 8.45 -94.75 11.65 -97.9 11.65 -102.4 11.65 -106.85 8.45 -110.1 5.2 -113.2 0.65 -113.2 M14.45 -95.5 Q18.5 -92.9 16.3 -88.9 13.25 -86.2 5.1 -89.0 L6.5 -89.45 Q14.6 -92.35 12.65 -96.45 L14.45 -95.5 M5.5 -81.2 Q3.95 -84.1 0.25 -86.55 L5.5 -86.95 Q6.8 -86.65 8.05 -85.85 11.25 -81.8 6.35 -78.95 L5.5 -81.2 M4.3 -69.55 Q8.95 -80.6 -7.7 -89.25 -22.6 -95.0 -22.05 -105.9 -21.7 -111.7 -17.2 -116.95 -14.8 -119.85 -4.95 -123.5 L-7.1 -123.95 -11.85 -124.35 Q-20.95 -124.2 -27.7 -116.3 -34.5 -108.45 -29.05 -99.3 -24.1 -91.4 -12.5 -81.0 -5.65 -73.45 -4.1 -65.85 L-4.1 78.3 Q-3.9 79.85 -0.85 79.9 L0.3 79.85 Q2.55 79.5 2.65 78.3 L2.65 -65.85 4.3 -69.55 M-7.15 -115.15 Q-17.8 -103.2 -15.3 -95.35 L-16.7 -96.85 Q-20.2 -101.15 -19.7 -107.55 -16.2 -113.25 -9.8 -114.7 L-7.15 -115.15" fill="none" stroke="#000000" stroke-linecap="round" stroke-linejoin="round" stroke-width="1.5"/>
  </g>
</svg>
