<?xml version="1.0" encoding="UTF-8" standalone="no"?>
<svg xmlns:xlink="http://www.w3.org/1999/xlink" height="163.0px" width="46.15px" xmlns="http://www.w3.org/2000/svg">
  <g transform="matrix(1.0, 0.0, 0.0, 1.0, 21.35, 138.3)">
    <path d="M-4.55 -10.7 L-1.25 -10.55 3.05 -10.55 3.05 15.05 3.05 16.75 1.75 17.2 1.05 17.3 0.4 17.45 -0.1 17.45 -0.35 17.45 -0.4 17.45 Q-1.65 17.35 -2.7 16.75 L-2.8 15.5 -4.55 -10.7 M-2.2 20.25 L0.2 20.4 3.45 20.3 Q3.05 23.55 0.8 23.95 L0.6 23.95 Q-1.5 24.0 -2.2 20.25" fill="#3f2b0d" fill-rule="evenodd" stroke="none"/>
    <path d="M-18.0 -130.9 Q-4.35 -124.4 5.55 -102.45 8.65 -71.95 4.5 -39.1 1.6 -34.05 2.2 -23.1 L-2.65 -22.8 -4.45 -22.5 -4.5 -26.2 Q-5.3 -54.15 -6.45 -72.95 -8.45 -104.8 -18.0 -130.9" fill="url(#gradient0)" fill-rule="evenodd" stroke="none"/>
    <path d="M2.2 -23.1 L4.55 -23.05 4.6 -25.05 4.7 -26.55 Q4.75 -33.7 7.4 -38.65 12.45 -82.8 9.6 -102.85 -0.6 -129.35 -20.6 -137.55 L-18.0 -130.9 Q-8.45 -104.8 -6.45 -72.95 -5.3 -54.15 -4.5 -26.2 L-7.4 -25.6 -8.7 -25.2 Q-16.25 -22.85 -17.35 -13.65 L-13.5 -12.4 Q-9.0 -11.15 -4.55 -10.7 L-1.25 -10.55 3.05 -10.55 7.7 -11.05 9.45 -11.4 10.6 -11.6 Q11.7 -11.1 12.6 -10.45 16.3 -7.75 17.35 -1.85 15.85 11.5 3.05 15.05 L3.05 16.75 1.75 17.2 1.05 17.3 0.4 17.45 -0.1 17.45 -0.35 17.45 -0.4 17.45 Q-1.65 17.35 -2.7 16.75 L-2.8 15.5 -6.1 15.55 Q-7.95 15.85 -7.55 17.55 L-7.45 17.7 Q-7.2 19.15 -6.1 19.4 L-4.75 19.8 -2.2 20.25 0.2 20.4 3.45 20.3 9.45 19.4 Q23.3 9.3 24.0 -1.9 24.75 -11.75 14.7 -21.6 L12.15 -23.9 Q10.45 -25.1 8.1 -25.85 L6.6 -26.2 5.55 -26.45 4.7 -26.55 M2.2 -23.1 L-2.65 -22.8 -4.45 -22.5 -4.5 -26.2 M3.45 20.3 Q3.05 23.55 0.8 23.95 L0.6 23.95 Q-1.5 24.0 -2.2 20.25 M-2.8 15.5 L-4.55 -10.7 M3.05 15.05 L3.05 -10.55" fill="none" stroke="#000000" stroke-linecap="round" stroke-linejoin="round" stroke-width="1.5"/>
  </g>
  <defs>
    <linearGradient gradientTransform="matrix(0.003, 0.061, -0.0137, 7.0E-4, -3.75, -72.05)" gradientUnits="userSpaceOnUse" id="gradient0" spreadMethod="pad" x1="-819.2" x2="819.2">
      <stop offset="0.0" stop-color="#d4d4d4"/>
      <stop offset="1.0" stop-color="#afafaf"/>
    </linearGradient>
  </defs>
</svg>
