<?xml version="1.0" encoding="UTF-8" standalone="no"?>
<svg xmlns:xlink="http://www.w3.org/1999/xlink" height="161.5px" width="25.6px" xmlns="http://www.w3.org/2000/svg">
  <g transform="matrix(1.0, 0.0, 0.0, 1.0, 14.65, 112.15)">
    <path d="M-3.25 -106.8 Q-3.2 -106.15 -3.45 -105.7 L-4.25 -104.9 Q-5.25 -104.1 -6.85 -104.0 L-7.05 -103.95 Q-8.5 -103.9 -9.65 -104.6 -10.75 -105.3 -10.8 -106.35 -10.85 -107.4 -9.8 -108.25 L-8.55 -108.95 -7.15 -109.15 -5.35 -108.95 -4.45 -108.6 Q-3.25 -107.9 -3.25 -106.8" fill="#000000" fill-opacity="0.4392157" fill-rule="evenodd" stroke="none"/>
    <path d="M-13.75 -105.15 Q-13.4 -103.6 -11.7 -102.45 -10.05 -101.35 -7.95 -101.1 L-7.6 -101.1 -6.6 -101.05 -5.85 -101.05 Q-3.4 -101.35 -1.7 -102.65 L-1.55 -102.6 Q-0.15 -103.75 0.25 -105.1 L0.25 -105.2 0.25 -105.25 0.4 -106.4 Q0.35 -108.5 -1.75 -109.95 -3.55 -111.25 -5.95 -111.35 L-6.85 -111.4 Q-9.8 -111.3 -11.85 -109.7 -13.3 -108.65 -13.7 -107.3 L-13.85 -106.2 -13.75 -105.15 -13.9 -106.05 -13.85 -106.2 M-13.75 -105.15 L-3.4 46.25 Q-1.85 47.6 -0.15 48.15 2.3 49.05 5.1 48.2 7.55 47.45 10.2 45.35 L0.25 -105.2" fill="none" stroke="#000000" stroke-linecap="round" stroke-linejoin="round" stroke-width="1.5"/>
    <path d="M-3.25 -106.8 Q-3.2 -106.15 -3.45 -105.7 L-4.25 -104.9 Q-5.25 -104.1 -6.85 -104.0 L-7.05 -103.95 Q-8.5 -103.9 -9.65 -104.6 -10.75 -105.3 -10.8 -106.35 -10.85 -107.4 -9.8 -108.25 L-8.55 -108.95 -7.15 -109.15 -5.35 -108.95 -4.45 -108.6 Q-3.25 -107.9 -3.25 -106.8" fill="none" stroke="#000000" stroke-linecap="round" stroke-linejoin="round" stroke-width="1.0"/>
  </g>
</svg>
