<?xml version="1.0" encoding="UTF-8" standalone="no"?>
<svg xmlns:xlink="http://www.w3.org/1999/xlink" height="195.25px" width="43.5px" xmlns="http://www.w3.org/2000/svg">
  <g transform="matrix(1.0, 0.0, 0.0, 1.0, 21.35, 130.85)">
    <path d="M0.4 -101.2 L0.4 -124.75 M2.35 -96.4 L5.0 -72.95 Q10.0 -78.15 21.4 -77.55 20.25 -87.6 20.15 -100.9 19.7 -110.25 14.5 -117.4 9.7 -125.25 0.4 -130.1 -4.15 -127.75 -7.65 -124.7 -11.3 -121.4 -13.75 -117.4 -18.9 -110.25 -19.4 -100.9 L-19.45 -95.4 Q-19.7 -85.45 -20.6 -77.55 -9.2 -78.15 -4.25 -72.95 L-4.25 -73.05 -1.6 -96.4 M-4.25 -72.95 L-4.25 -57.9 -3.25 -57.9 -2.9 -57.9 Q-3.15 -58.85 0.4 -58.95 L1.3 -58.95 1.55 -58.95 2.4 -58.85 Q3.7 -58.7 3.85 -58.2 L3.85 -57.9 5.05 -57.9 5.0 -72.95 M9.05 63.65 L12.3 63.65 Q16.1 63.3 16.3 60.35 16.85 42.3 5.05 34.6 L5.05 27.7 4.35 27.25 3.85 27.1 2.4 26.85 1.85 26.75 1.55 26.75 1.3 26.75 0.4 26.7 -3.25 27.15 -3.6 27.25 -4.3 27.7 -4.3 34.6 -6.65 36.4 Q-16.0 44.25 -15.5 60.35 L-15.25 61.4 Q-14.55 63.35 -11.5 63.65 L-8.25 63.65 -8.25 57.6 Q-9.1 45.9 0.4 39.0 9.9 45.9 9.05 57.6 L9.05 63.65 -8.25 63.65 M3.85 27.1 L3.85 -57.9 M-3.25 27.15 L-3.25 -57.9 M-8.25 57.6 L9.05 57.6" fill="none" stroke="#000000" stroke-linecap="round" stroke-linejoin="round" stroke-width="1.5"/>
  </g>
</svg>
