<?xml version="1.0" encoding="UTF-8" standalone="no"?>
<svg xmlns:xlink="http://www.w3.org/1999/xlink" height="60.35px" width="60.35px" xmlns="http://www.w3.org/2000/svg">
  <g transform="matrix(1.0, 0.0, 0.0, 1.0, 28.25, 43.2)">
    <path d="M18.15 -37.5 Q7.7 -40.35 -1.2 -33.65 -0.05 -32.85 0.2 -31.45 L0.2 -30.05 Q22.1 -23.55 28.65 -0.85 M-3.35 -41.95 Q-5.45 -40.55 -5.3 -34.75 -3.6 -34.9 -2.2 -34.25 L-1.2 -33.65 M-5.3 -34.75 L-6.8 -34.4 Q-9.45 -33.65 -11.05 -31.75 L-11.55 -31.1 Q-12.6 -29.6 -12.3 -27.95 -12.15 -26.9 -11.55 -26.2 L-9.95 -25.05 Q-8.65 -24.5 -7.15 -24.65 L-5.3 -24.9 Q-2.7 -25.65 -1.1 -27.5 -0.05 -28.8 0.2 -30.05 M-24.4 -26.0 Q-17.55 -32.25 -11.55 -31.1 M-7.15 -24.65 Q-9.3 -13.4 -6.1 -3.25 -3.6 5.95 4.7 16.25 M-23.0 2.7 Q-24.9 -14.7 -11.55 -26.2" fill="none" stroke="#000000" stroke-linecap="round" stroke-linejoin="round" stroke-opacity="0.5019608" stroke-width="1.5"/>
    <path d="M28.65 -0.85 Q32.4 -8.7 30.9 -17.7 28.95 -29.75 19.05 -36.8 L18.15 -37.5 Q8.65 -43.9 -2.8 -42.0 L-3.35 -41.95 Q-14.9 -39.8 -21.95 -30.1 L-24.4 -26.0 Q-28.65 -17.8 -27.05 -8.25 -26.05 -2.15 -23.0 2.7 -20.05 7.35 -15.25 10.85 -6.1 17.35 4.7 16.25 L6.65 16.0 Q18.65 14.0 25.7 4.15 27.45 1.75 28.65 -0.85" fill="none" stroke="#000000" stroke-linecap="round" stroke-linejoin="round" stroke-width="1.5"/>
  </g>
</svg>
