<?xml version="1.0" encoding="UTF-8" standalone="no"?>
<svg xmlns:xlink="http://www.w3.org/1999/xlink" height="195.2px" width="51.7px" xmlns="http://www.w3.org/2000/svg">
  <g transform="matrix(1.0, 0.0, 0.0, 1.0, 36.9, 136.45)">
    <path d="M-1.25 -29.25 L7.05 22.7 -1.15 23.8 -1.25 23.75 -8.85 -28.25 -4.45 -28.7 -3.6 -28.85 -1.25 -29.25" fill="#dfdfdf" fill-rule="evenodd" stroke="none"/>
    <path d="M-1.25 -29.25 L-0.55 -29.5 Q-0.5 -30.3 -1.1 -30.85 -1.35 -31.1 -1.85 -31.35 L-2.05 -35.0 Q2.2 -49.25 4.3 -71.9 3.4 -130.45 -10.4 -135.35 -17.45 -136.4 -25.65 -134.35 -30.4 -133.55 -32.9 -130.0 -37.5 -123.8 -35.55 -109.25 L-34.45 -102.85 Q-27.85 -56.8 -9.4 -34.4 L-8.9 -30.1 Q-9.8 -30.0 -9.7 -29.25 L-9.4 -28.25 -8.85 -28.25 -1.25 -29.25 7.05 22.7 Q8.2 22.65 8.25 23.35 L11.5 42.7 12.7 45.25 14.05 56.15 Q12.5 57.0 10.75 57.45 L8.0 57.85 2.0 57.65 0.1 47.25 0.95 45.8 -2.2 25.35 Q-2.55 24.3 -1.25 23.75 L-8.85 -28.25 M-1.15 23.8 L7.05 22.7" fill="none" stroke="#000000" stroke-linecap="round" stroke-linejoin="round" stroke-width="1.5"/>
    <path d="M-6.7 -37.85 L-17.6 -116.35" fill="none" stroke="#000000" stroke-linecap="round" stroke-linejoin="round" stroke-opacity="0.5019608" stroke-width="1.5"/>
  </g>
</svg>
