<?xml version="1.0" encoding="UTF-8" standalone="no"?>
<svg xmlns:xlink="http://www.w3.org/1999/xlink" height="140.7px" width="130.95px" xmlns="http://www.w3.org/2000/svg">
  <g transform="matrix(1.0, 0.0, 0.0, 1.0, 68.6, 109.95)">
    <path d="M6.05 -57.0 L8.25 -55.5 Q12.45 -63.75 21.1 -64.4 31.1 -47.7 30.85 -38.8 31.1 -47.7 21.1 -64.4 28.5 -65.0 39.2 -59.9 L39.85 -59.55 Q46.9 -65.7 61.6 -55.6 44.3 -52.5 30.85 -38.8 16.4 -44.5 7.5 -36.75 L6.05 -57.0 7.5 -36.75 Q-0.9 -43.1 -5.55 -40.85 L-8.9 -60.15 Q-2.75 -62.55 6.05 -57.0 M-11.0 -39.2 Q-16.65 -37.6 -20.55 -31.6 -32.85 -40.25 -42.3 -32.25 -55.75 -40.5 -67.85 -35.95 -61.5 -48.05 -48.65 -43.9 -45.6 -47.5 -42.3 -49.55 -34.15 -54.7 -24.45 -50.45 -23.2 -49.9 -21.9 -49.2 -19.4 -54.5 -14.4 -58.05 L-11.0 -39.2 M-42.3 -49.55 L-42.3 -32.25 -42.3 -49.55 M-20.55 -31.6 L-24.45 -50.45 -20.55 -31.6" fill="#000000" fill-opacity="0.32941177" fill-rule="evenodd" stroke="none"/>
    <path d="M21.1 -64.4 Q12.45 -63.75 8.25 -55.5 L6.05 -57.0 7.5 -36.75 Q16.4 -44.5 30.85 -38.8 31.1 -47.7 21.1 -64.4 28.5 -65.0 39.2 -59.9 18.95 -88.9 -18.25 -98.4 L-20.3 -97.5 Q-3.9 -85.8 8.25 -55.5 M30.85 -38.8 Q44.3 -52.5 61.6 -55.6 46.9 -65.7 39.85 -59.55 L39.2 -59.9 M-2.1 11.0 L-1.0 17.9 Q0.55 26.5 2.45 28.3 5.35 31.6 10.35 28.55 13.35 26.95 13.15 21.65 12.1 14.65 10.1 14.95 6.85 14.95 7.5 19.15 8.5 23.45 6.5 24.2 4.75 24.4 4.25 20.75 L3.1 11.0 -2.1 11.0 -11.0 -39.2 Q-16.65 -37.6 -20.55 -31.6 -32.85 -40.25 -42.3 -32.25 -55.75 -40.5 -67.85 -35.95 -57.65 -80.0 -21.15 -97.15 -26.6 -102.2 -21.3 -109.2 -16.45 -104.9 -18.25 -98.4 25.2 -97.35 61.6 -55.6 M-48.65 -43.9 Q-47.0 -63.2 -20.3 -97.5 L-21.15 -97.15 M-14.4 -58.05 L-8.9 -60.15 Q-2.75 -62.55 6.05 -57.0 M-67.85 -35.95 Q-61.5 -48.05 -48.65 -43.9 -45.6 -47.5 -42.3 -49.55 -34.15 -54.7 -24.45 -50.45 -23.2 -49.9 -21.9 -49.2 -28.15 -77.0 -20.3 -97.5 M-8.9 -60.15 L-5.55 -40.85 Q-0.9 -43.1 7.5 -36.75 M-11.0 -39.2 L-14.4 -58.05 Q-19.4 -54.5 -21.9 -49.2 M-24.45 -50.45 L-20.55 -31.6 M-42.3 -32.25 L-42.3 -49.55 M-5.55 -40.85 L3.1 11.0" fill="none" stroke="#000000" stroke-linecap="round" stroke-linejoin="round" stroke-width="1.5"/>
  </g>
</svg>
