<?xml version="1.0" encoding="UTF-8" standalone="no"?>
<svg xmlns:xlink="http://www.w3.org/1999/xlink" height="125.15px" width="83.4px" xmlns="http://www.w3.org/2000/svg">
  <g transform="matrix(1.0, 0.0, 0.0, 1.0, 49.15, 95.15)">
    <path d="M4.15 -92.05 Q5.25 -82.85 5.7 -72.15 L11.25 -78.45 Q15.4 -82.95 19.7 -86.5 19.4 -78.9 17.25 -67.35 L24.35 -73.65 33.4 -81.7 Q21.6 -66.5 5.65 -13.5 L4.55 -10.7 3.3 -9.1 2.25 -9.15 2.15 -9.2 0.8 -9.35 0.25 -9.35 0.35 -9.85 Q0.75 -26.85 -3.45 -52.25 -5.65 -63.45 -7.3 -73.7 -5.65 -63.45 -3.45 -52.25 0.75 -26.85 0.35 -9.85 L0.25 -9.35 -1.0 -9.5 -2.35 -9.65 -2.4 -9.8 Q-18.3 -51.4 -48.4 -75.55 -47.4 -89.8 -45.5 -90.85 -44.85 -81.0 -42.95 -76.75 L-38.9 -85.2 Q-35.65 -91.65 -34.2 -92.95 -32.3 -87.55 -32.4 -75.25 L-28.15 -84.4 -23.9 -93.4 Q-22.3 -84.9 -20.05 -76.5 L-16.75 -82.35 -10.0 -94.4 Q-8.95 -84.5 -7.3 -73.7 L-3.65 -79.45 Q0.8 -88.5 4.15 -92.05 M5.7 -72.15 Q6.25 -56.6 5.55 -38.05 3.45 -21.2 0.8 -9.35 3.45 -21.2 5.55 -38.05 6.25 -56.6 5.7 -72.15 M-1.65 17.3 L-1.9 18.65 Q-3.15 22.3 -4.65 24.7 -6.1 26.85 -7.7 27.95 L-9.05 28.7 -11.55 29.25 -9.1 22.45 -8.1 19.15 -7.05 15.7 -0.95 13.25 -1.65 17.3 M17.25 -67.35 Q14.4 -52.05 8.4 -29.65 L2.25 -9.15 8.4 -29.65 Q14.4 -52.05 17.25 -67.35 M-20.05 -76.5 Q-16.3 -63.1 -10.85 -50.3 -3.55 -29.05 0.35 -9.85 -14.1 -48.0 -32.4 -75.25 -14.1 -48.0 0.35 -9.85 -3.55 -29.05 -10.85 -50.3 -16.3 -63.1 -20.05 -76.5 M-1.0 -9.5 L-1.0 -9.6 Q-15.0 -49.7 -42.95 -76.75 -15.0 -49.7 -1.0 -9.6 L-1.0 -9.5" fill="#ffffff" fill-opacity="0.41960785" fill-rule="evenodd" stroke="none"/>
    <path d="M4.15 -92.05 Q5.25 -82.85 5.7 -72.15 L11.25 -78.45 M-3.65 -79.45 L-7.3 -73.7 Q-5.65 -63.45 -3.45 -52.25 0.75 -26.85 0.35 -9.85 L0.25 -9.35 0.8 -9.35 Q3.45 -21.2 5.55 -38.05 6.25 -56.6 5.7 -72.15 M19.7 -86.5 Q19.4 -78.9 17.25 -67.35 L24.35 -73.65 M2.25 -9.15 L3.3 -9.1 M0.8 -9.35 L2.15 -9.2 2.25 -9.15 8.4 -29.65 Q14.4 -52.05 17.25 -67.35 M33.4 -81.7 Q21.6 -66.5 5.65 -13.5 M-23.9 -93.4 Q-22.3 -84.9 -20.05 -76.5 L-16.75 -82.35 M-34.2 -92.95 Q-32.3 -87.55 -32.4 -75.25 L-28.15 -84.4 M-32.4 -75.25 Q-14.1 -48.0 0.35 -9.85 -3.55 -29.05 -10.85 -50.3 -16.3 -63.1 -20.05 -76.5 M-7.3 -73.7 Q-8.95 -84.5 -10.0 -94.4 M-45.5 -90.85 Q-44.85 -81.0 -42.95 -76.75 L-38.9 -85.2 M0.25 -9.35 L-1.0 -9.5 -2.35 -9.65 -2.4 -9.65 M-2.35 -9.65 L-2.4 -9.8 M-42.95 -76.75 Q-15.0 -49.7 -1.0 -9.6 L-1.0 -9.5 M-0.95 13.25 L-0.2 13.0 M-1.65 17.3 L-0.95 13.25 -7.05 15.7 -8.1 19.15 M-7.05 15.7 L-7.15 15.7" fill="none" stroke="#000000" stroke-linecap="round" stroke-linejoin="round" stroke-opacity="0.5411765" stroke-width="1.5"/>
    <path d="M11.25 -78.45 Q8.55 -87.65 4.15 -92.05 0.8 -88.5 -3.65 -79.45 -4.3 -86.95 -10.0 -94.4 L-16.75 -82.35 Q-19.05 -89.65 -23.9 -93.4 L-28.15 -84.4 Q-29.45 -89.5 -34.2 -92.95 -35.65 -91.65 -38.9 -85.2 -38.7 -87.35 -45.5 -90.85 -47.4 -89.8 -48.4 -75.55 -18.3 -51.4 -2.4 -9.8 L-2.4 -9.65 -2.9 -9.7 Q-3.8 -1.5 -7.55 15.8 L-7.15 15.7 -8.1 19.15 -9.1 22.45 -11.55 29.25 -9.05 28.7 -7.7 27.95 Q-6.1 26.85 -4.65 24.7 -3.15 22.3 -1.9 18.65 L-1.65 17.3 -0.85 13.25 -0.2 13.0 3.3 -9.1 4.55 -10.7 5.65 -13.5 Q10.2 -23.55 18.3 -38.2 34.85 -73.8 33.4 -81.7 L24.35 -73.65 Q24.45 -82.95 19.7 -86.5 15.4 -82.95 11.25 -78.45" fill="none" stroke="#000000" stroke-linecap="round" stroke-linejoin="round" stroke-width="1.5"/>
  </g>
</svg>
