<?xml version="1.0" encoding="UTF-8" standalone="no"?>
<svg xmlns:xlink="http://www.w3.org/1999/xlink" height="277.8px" width="109.2px" xmlns="http://www.w3.org/2000/svg">
  <g transform="matrix(1.0, 0.0, 0.0, 1.0, 54.6, 138.9)">
    <path d="M21.3 -105.6 Q19.0 -107.05 17.8 -111.85 M53.55 -112.0 Q54.95 -141.25 21.55 -137.45 2.4 -131.15 -14.7 -100.85 -31.75 -70.65 -30.55 -33.25 -29.5 -1.45 -18.65 28.75 L-13.6 41.4 Q3.75 83.75 -13.6 93.2 -34.2 106.55 -49.0 88.75 -38.55 111.4 -15.1 111.15 -0.4 110.25 5.75 99.15 10.15 88.05 9.85 71.3 M27.55 -86.05 Q7.45 -56.3 16.65 -10.45 L16.95 -9.1 Q17.95 -4.35 19.25 0.6 30.75 35.7 24.75 68.35 L13.25 103.65 Q4.85 123.5 -9.55 133.05 -21.8 141.25 -36.0 135.55 -58.05 127.45 -52.45 99.2 -51.6 122.8 -35.55 128.35 -23.35 132.45 -13.05 125.7 -4.2 119.6 2.75 105.65 L3.8 103.55 5.1 100.6 5.75 99.15" fill="none" stroke="#000000" stroke-linecap="round" stroke-linejoin="round" stroke-width="2.0"/>
    <path d="M9.85 71.3 Q9.05 100.85 -18.35 103.75 M-11.1 -23.5 Q-21.95 -69.8 0.55 -105.35 M9.85 71.3 Q11.65 50.6 -0.15 19.2" fill="none" stroke="#000000" stroke-linecap="round" stroke-linejoin="round" stroke-width="1.5"/>
  </g>
</svg>
