<?xml version="1.0" encoding="UTF-8" standalone="no"?>
<svg xmlns:xlink="http://www.w3.org/1999/xlink" height="59.55px" width="62.2px" xmlns="http://www.w3.org/2000/svg">
  <g transform="matrix(1.0, 0.0, 0.0, 1.0, 17.75, 45.1)">
    <path d="M24.7 -34.35 Q25.95 -33.4 25.7 -32.1 L25.25 -30.9 14.4 -13.6 13.95 -13.0 6.65 -1.25 Q5.5 0.65 3.8 0.55 L2.35 -0.1 1.85 -0.4 6.75 5.8 7.8 6.85 Q9.4 7.7 11.2 6.45 L13.8 4.5 14.15 4.3 39.6 -13.95 39.7 -14.0 40.45 -14.9 Q41.35 -16.25 40.05 -17.95 L27.4 -33.15 26.55 -33.95 Q25.65 -34.5 24.7 -34.35 L24.1 -34.75 6.6 -43.95 5.4 -44.3 Q3.55 -44.7 2.45 -42.9 L-16.25 -13.95 -17.0 -12.5 Q-17.15 -10.9 -15.3 -9.95 L1.2 -0.75 1.85 -0.4 M39.7 -14.0 L39.95 -13.55 40.3 -12.45 43.65 7.0 Q43.95 9.2 42.5 9.95 L41.25 10.3 6.5 13.65 Q4.25 13.9 3.35 12.35 3.0 11.7 2.95 10.95 L1.2 -0.75" fill="none" stroke="#000000" stroke-linecap="round" stroke-linejoin="round" stroke-width="1.5"/>
  </g>
</svg>
