<?xml version="1.0" encoding="UTF-8" standalone="no"?>
<svg xmlns:xlink="http://www.w3.org/1999/xlink" height="50.15px" width="18.3px" xmlns="http://www.w3.org/2000/svg">
  <g transform="matrix(1.0, 0.0, 0.0, 1.0, 11.75, 32.6)">
    <path d="M3.2 -14.15 L3.9 15.7 Q1.3 17.5 -1.45 16.3 L-1.65 16.15 -6.65 -13.3 Q-1.35 -12.95 3.2 -14.15" fill="#313131" fill-rule="evenodd" stroke="none"/>
    <path d="M5.5 -24.9 Q4.95 -27.85 2.65 -29.85 0.9 -31.35 -1.1 -31.75 L-3.4 -31.8 Q-6.8 -31.45 -9.0 -28.75 -11.0 -26.3 -10.8 -23.0 L-11.0 -23.0 -10.5 -20.85 -10.35 -20.6 Q-9.7 -18.55 -7.9 -17.0 L-7.25 -16.45 -8.2 -16.45 -6.95 -15.1 -6.65 -13.3 -1.65 16.15 -1.45 16.3 Q1.3 17.5 3.9 15.7 L3.2 -14.15 3.15 -16.0 4.1 -17.55 3.1 -17.4 0.9 -17.05 -7.25 -16.45 M5.55 -24.55 L5.6 -24.55 5.8 -22.2 5.6 -22.15 Q5.25 -19.9 3.75 -18.1 L3.1 -17.4" fill="none" stroke="#000000" stroke-linecap="round" stroke-linejoin="round" stroke-width="1.5"/>
    <path d="M-10.8 -23.0 L-7.7 -23.0 -5.0 -23.15 -0.45 -23.65 4.05 -24.55 5.5 -24.9 5.55 -24.55 M5.6 -22.15 Q4.25 -21.4 3.0 -21.1 L-0.05 -20.45 -4.1 -19.95 -7.85 -19.9 Q-9.3 -20.0 -10.35 -20.6 M3.2 -14.15 Q-1.35 -12.95 -6.65 -13.3" fill="none" stroke="#000000" stroke-linecap="round" stroke-linejoin="round" stroke-width="1.0"/>
  </g>
</svg>
