<?xml version="1.0" encoding="UTF-8" standalone="no"?>
<svg xmlns:xlink="http://www.w3.org/1999/xlink" height="94.95px" width="38.45px" xmlns="http://www.w3.org/2000/svg">
  <g transform="matrix(1.0, 0.0, 0.0, 1.0, 31.85, 73.25)">
    <path d="M-12.45 -29.5 Q-16.3 -29.0 -19.8 -31.75 -24.1 -35.0 -24.95 -42.15 -29.8 -51.85 -31.05 -61.5 -31.45 -65.1 -28.25 -66.8 L-28.15 -66.95 -27.55 -67.25 Q-24.05 -66.8 -21.2 -57.85 L-19.1 -50.8 Q-14.35 -54.35 -9.65 -52.7 -11.1 -63.6 -9.7 -67.9 -8.4 -72.1 -6.5 -72.2 L-5.85 -72.5 Q-2.95 -72.15 -1.75 -63.45 -0.65 -55.75 -0.95 -49.35 0.8 -44.2 0.0 -38.25 L-0.3 -37.1 Q-1.65 -33.5 -6.2 -31.35 L-6.35 -31.25 Q-6.85 -31.0 -6.55 -31.0 L5.85 18.95 Q5.65 20.1 3.85 20.75 2.0 21.4 0.0 20.0 L-12.45 -29.5 -9.45 -30.2 -8.4 -30.4 -6.55 -31.0 M-12.85 -39.55 Q-11.6 -36.8 -9.9 -39.1 -7.6 -37.8 -7.9 -40.85 M-7.3 -44.15 L-6.5 -45.8 -7.95 -46.9 M-5.65 -47.5 L-6.5 -45.8 -5.05 -44.75 M-16.6 -45.1 L-17.45 -43.0 -15.9 -41.85 M-18.3 -41.05 L-17.45 -43.0 -19.1 -44.2" fill="none" stroke="#000000" stroke-linecap="round" stroke-linejoin="round" stroke-width="1.5"/>
  </g>
</svg>
