<?xml version="1.0" encoding="UTF-8" standalone="no"?>
<svg xmlns:xlink="http://www.w3.org/1999/xlink" height="152.1px" width="100.7px" xmlns="http://www.w3.org/2000/svg">
  <g transform="matrix(1.0, 0.0, 0.0, 1.0, 52.85, 105.35)">
    <path d="M-0.4 -96.3 Q7.25 -96.0 13.9 -93.6 22.8 -90.35 30.1 -83.4 43.55 -70.5 43.55 -52.2 L43.55 -51.8 Q44.25 -49.7 45.3 -48.5 L47.1 -46.45 Q45.95 -44.85 42.05 -44.9 L36.8 -45.5 36.25 -45.6 Q29.25 -47.3 26.65 -46.25 L25.65 -45.8 Q22.45 -44.4 17.35 -45.1 L15.8 -45.45 Q11.2 -46.5 7.7 -46.25 5.95 -45.6 2.75 -45.4 L-0.4 -45.35 -0.4 22.45 Q-0.35 26.0 -2.6 28.85 -4.1 30.65 -4.85 32.65 L-5.0 32.9 -5.15 33.3 -5.55 34.7 Q-6.15 41.5 -1.05 41.95 2.65 41.95 2.95 36.85 L3.15 36.5 Q3.7 35.2 4.95 35.45 6.8 35.6 6.75 37.5 5.9 46.4 -1.6 46.0 L-2.1 45.85 Q-7.15 44.75 -8.85 40.85 -10.0 38.3 -9.7 34.5 -9.55 32.15 -8.5 30.15 L-7.9 29.1 -5.2 25.2 Q-4.15 23.55 -4.15 20.9 L-4.15 -45.35 -7.8 -45.4 Q-11.05 -45.6 -12.8 -46.25 -16.25 -46.5 -20.85 -45.45 L-22.4 -45.1 Q-27.5 -44.4 -30.75 -45.8 L-31.7 -46.25 Q-34.35 -47.3 -41.35 -45.6 L-41.9 -45.5 Q-50.3 -43.95 -52.1 -46.45 L-50.35 -48.5 Q-49.3 -49.7 -48.65 -51.8 L-48.65 -52.2 Q-48.65 -70.5 -35.15 -83.4 -22.2 -95.75 -4.15 -96.3 L-4.15 -100.5 -2.35 -104.6 -0.4 -100.5 -0.4 -96.3 -1.85 -96.3 -2.5 -96.3 -4.15 -96.3 M43.55 -51.8 Q42.3 -53.2 38.15 -52.75 L35.2 -52.25 31.95 -51.5 30.7 -51.3 26.3 -51.15 21.4 -51.4 20.55 -51.5 19.8 -51.6 15.6 -51.9 10.05 -51.45 9.7 -51.4 7.8 -51.3 2.6 -51.8 1.95 -51.9 -0.4 -52.1 -0.5 -52.1 -1.85 -52.0 -1.95 -52.0 -2.3 -52.05 -4.15 -52.05 -5.7 -52.0 -7.0 -51.9 -7.65 -51.8 -12.85 -51.3 -14.75 -51.4 -15.1 -51.45 -20.65 -51.9 -24.9 -51.6 -25.6 -51.5 -26.5 -51.4 -31.35 -51.15 -35.75 -51.3 -37.0 -51.5 -40.25 -52.25 Q-46.95 -53.6 -48.65 -51.8 M32.45 -53.8 Q29.2 -82.45 0.35 -94.3 M-2.3 -52.05 L-1.5 -52.1 -1.95 -52.0 M-4.65 -94.55 Q-23.9 -87.3 -35.45 -55.45 M-3.25 -94.25 Q-11.6 -78.25 -11.95 -55.7 M-4.15 -45.35 L-2.5 -45.4 -1.85 -45.35 -0.4 -45.35 M-1.6 -93.85 Q11.75 -72.75 10.15 -54.4" fill="none" stroke="#000000" stroke-linecap="round" stroke-linejoin="round" stroke-width="1.5"/>
  </g>
</svg>
