<?xml version="1.0" encoding="UTF-8" standalone="no"?>
<svg xmlns:xlink="http://www.w3.org/1999/xlink" height="49.95px" width="35.55px" xmlns="http://www.w3.org/2000/svg">
  <g transform="matrix(1.0, 0.0, 0.0, 1.0, 5.2, 26.95)">
    <path d="M5.25 -11.4 L3.45 11.45 3.45 13.75 3.45 16.6 3.5 16.6 11.6 16.6 Q16.55 4.3 17.4 -10.45 L17.4 -10.5 17.45 -11.45 17.45 -11.55 5.25 -11.55 5.25 -11.4 M27.0 -14.35 L5.55 -14.35 2.35 -19.95 22.9 -19.95 20.6 -22.85 16.45 -22.85 16.4 -22.9 14.55 -26.2 -4.45 -26.2 -4.45 -22.8 -4.45 17.3 -4.45 20.1 -4.45 22.25 -2.9 21.15 15.5 21.35 Q22.55 7.15 23.55 -11.45 L23.55 -11.55 29.6 -11.55 22.9 -19.95" fill="none" stroke="#000000" stroke-linecap="round" stroke-linejoin="round" stroke-width="1.5"/>
    <path d="M16.4 -22.9 L-4.45 -22.8 M-4.45 17.3 L3.45 13.75 M17.45 -11.45 L23.55 -11.45 M11.6 16.6 L15.5 21.35 M-4.45 20.1 L3.5 16.6" fill="none" stroke="#000000" stroke-linecap="round" stroke-linejoin="round" stroke-opacity="0.49803922" stroke-width="1.5"/>
  </g>
</svg>
