<?xml version="1.0" encoding="UTF-8" standalone="no"?>
<svg xmlns:xlink="http://www.w3.org/1999/xlink" height="178.8px" width="29.9px" xmlns="http://www.w3.org/2000/svg">
  <g transform="matrix(1.0, 0.0, 0.0, 1.0, 9.2, 141.65)">
    <path d="M-2.35 -6.5 L3.2 -6.5 3.2 17.65 2.4 17.85 3.2 17.95 3.2 22.75 2.9 22.55 -2.35 18.7 -2.35 -6.5" fill="#272626" fill-rule="evenodd" stroke="none"/>
    <path d="M8.25 -17.3 L4.65 -12.25 0.8 -12.25 0.8 -12.3 0.8 -22.85 0.8 -81.6 -3.05 -87.25 -3.05 -89.55 -3.05 -87.25 -4.75 -89.55 -3.05 -89.55 -3.05 -140.9 8.25 -119.6 8.25 -17.3" fill="#d0d0d0" fill-rule="evenodd" stroke="none"/>
    <path d="M8.25 -17.3 L4.65 -12.25 0.8 -12.25 0.8 -12.3 -6.0 -11.8 -6.6 -11.7 -8.45 -11.4 -7.9 -6.5 -2.35 -6.5 3.2 -6.5 9.9 -6.5 10.0 -6.6 11.7 -8.8 18.35 -17.3 8.25 -17.3 8.25 -119.6 -3.05 -140.9 -3.05 -89.55 -3.05 -87.25 0.8 -81.6 0.8 -22.85 0.8 -12.3 M3.2 17.95 L4.05 18.15 5.5 18.2 Q10.9 18.2 15.2 14.2 L15.35 14.05 17.55 11.45 Q19.4 8.7 19.8 5.3 L19.9 4.6 19.95 2.45 Q19.9 -0.35 18.95 -2.55 L17.65 -4.65 16.95 -5.6 Q14.75 -8.05 11.7 -8.8 M10.0 -6.6 L11.45 -5.05 Q14.8 -1.05 14.05 4.6 13.35 10.25 9.0 14.2 6.25 16.65 3.2 17.65 L3.2 -6.5 M3.2 17.95 L3.2 22.75 2.9 22.55 5.4 24.5 5.4 36.4 -5.95 22.95 -2.65 19.0 -2.35 18.7 -2.35 -6.5 M-4.75 -89.55 L-3.05 -89.55 M-4.75 -89.55 L-3.05 -87.25 M-4.75 -59.35 L-4.75 -52.45 -4.75 -47.65 -4.75 -40.8 -4.75 -27.55 -0.1 -23.6 0.0 -23.5 0.8 -22.85 M-4.75 -59.35 L-4.75 -64.1 -4.75 -70.95 -4.75 -89.55 M-6.6 -11.7 L-6.6 -29.15 -4.75 -27.55 M-2.35 18.7 L2.9 22.55" fill="none" stroke="#000000" stroke-linecap="round" stroke-linejoin="round" stroke-width="1.5"/>
    <path d="M-4.75 -52.45 L-1.4 -48.1 -1.4 -55.1 -4.75 -59.35 M-4.75 -64.1 L-1.4 -59.7 -1.4 -66.8 -4.75 -70.95 M-4.75 -40.8 L-1.4 -36.45 -1.4 -43.5 -4.75 -47.65" fill="none" stroke="#000000" stroke-linecap="round" stroke-linejoin="round" stroke-width="1.0"/>
  </g>
</svg>
