<?xml version="1.0" encoding="UTF-8" standalone="no"?>
<svg xmlns:xlink="http://www.w3.org/1999/xlink" height="88.75px" width="37.65px" xmlns="http://www.w3.org/2000/svg">
  <g transform="matrix(1.0, 0.0, 0.0, 1.0, 31.9, 76.5)">
    <path d="M3.15 -28.4 L3.05 -25.5 2.55 -24.4 -0.35 -26.15 1.5 -29.25 3.15 -28.4 1.5 -29.25 -0.35 -26.15 2.55 -24.4 3.1 -24.05 3.05 -20.55 2.9 -17.2 2.95 -13.65 2.85 -11.45 2.85 -9.05 2.8 -5.6 2.8 -5.5 2.8 -2.5 2.65 1.35 2.65 5.2 2.6 8.7 0.45 5.0 -0.7 3.25 -1.65 1.75 -3.35 -1.2 -4.35 -2.95 -7.45 -8.1 -9.25 -11.05 -10.7 -13.55 -10.9 -13.9 -12.85 -16.85 -14.2 -19.25 -14.9 -20.45 -16.7 -23.55 -17.35 -24.5 -16.7 -24.95 -16.05 -25.3 -15.45 -25.6 Q-14.55 -25.85 -13.65 -25.3 L-13.4 -25.1 -12.2 -24.8 -11.3 -24.8 -10.1 -24.8 -8.65 -23.95 -10.2 -21.3 -13.35 -23.05 -12.2 -24.8 -13.35 -23.05 -10.2 -21.3 -8.65 -23.95 -10.1 -24.8 -7.9 -25.15 Q-6.6 -25.45 -5.55 -25.95 -4.75 -26.25 -4.1 -26.75 L-3.95 -26.85 -2.75 -27.65 Q-0.75 -28.9 1.05 -29.45 L1.15 -29.35 1.5 -29.25 1.65 -29.6 1.75 -29.7 Q2.55 -29.8 3.2 -30.05 L3.15 -28.4 M2.55 -24.4 L1.0 -21.9 -1.85 -23.6 -0.35 -26.15 -2.75 -27.65 -0.35 -26.15 -1.85 -23.6 1.0 -21.9 2.55 -24.4 M0.45 5.0 L0.8 4.2 2.65 5.2 0.8 4.2 0.45 5.0 M2.45 1.2 L0.8 4.2 -0.7 3.25 0.8 4.2 2.45 1.2 -0.3 -0.45 1.4 -3.25 2.8 -2.5 1.4 -3.25 -0.3 -0.45 2.45 1.2 2.65 1.35 2.45 1.2 M2.8 -5.5 L1.4 -3.25 -1.2 -4.65 0.2 -7.05 -2.5 -8.75 -0.95 -11.3 1.85 -9.65 0.2 -7.05 1.85 -9.65 -0.95 -11.3 -2.5 -8.75 0.2 -7.05 2.8 -5.6 0.2 -7.05 -1.2 -4.65 1.4 -3.25 2.8 -5.5 M2.85 -9.05 L1.85 -9.65 2.85 -11.45 1.85 -9.65 2.85 -9.05 M2.95 -13.65 L1.05 -14.75 2.65 -17.45 2.9 -17.2 2.65 -17.45 1.05 -14.75 2.95 -13.65 M3.05 -20.55 L1.0 -21.9 -0.65 -19.3 -3.45 -20.9 -1.85 -23.6 -4.25 -25.15 -2.75 -27.65 -4.25 -25.15 -1.85 -23.6 -3.45 -20.9 -0.65 -19.3 1.0 -21.9 3.05 -20.55 M-4.05 -6.15 L-7.45 -8.1 -5.8 -10.65 -2.5 -8.75 -4.05 -6.15 -1.2 -4.65 -2.9 -1.95 -0.3 -0.45 -1.65 1.75 -0.3 -0.45 -2.9 -1.95 -1.2 -4.65 -4.05 -6.15 -2.5 -8.75 -5.8 -10.65 -7.45 -8.1 -4.05 -6.15 -4.95 -4.55 -4.05 -6.15 M-4.35 -2.95 L-2.9 -1.95 -3.35 -1.2 -2.9 -1.95 -4.35 -2.95 M-8.5 -12.25 L-9.25 -11.05 -8.5 -12.25 -10.7 -13.55 -8.5 -12.25 -6.95 -15.0 -9.5 -16.45 -10.9 -13.9 -9.5 -16.45 -6.95 -15.0 -8.5 -12.25 -5.8 -10.65 -4.2 -13.35 -6.95 -15.0 -4.2 -13.35 -5.8 -10.65 -8.5 -12.25 M-14.2 -19.25 L-12.05 -18.05 -10.2 -21.3 -7.55 -19.7 -5.9 -22.45 -3.45 -20.9 -5.05 -18.25 -7.55 -19.7 -5.05 -18.25 -3.45 -20.9 -5.9 -22.45 -8.65 -23.95 -7.9 -25.15 -8.65 -23.95 -5.9 -22.45 -4.25 -25.15 -5.55 -25.95 -4.25 -25.15 -5.9 -22.45 -7.55 -19.7 -9.5 -16.45 -12.05 -18.05 -12.85 -16.85 -12.05 -18.05 -9.5 -16.45 -7.55 -19.7 -10.2 -21.3 -12.05 -18.05 -14.2 -19.25 M-16.7 -23.55 L-16.0 -24.65 -13.35 -23.05 -14.9 -20.45 -13.35 -23.05 -16.0 -24.65 -16.7 -23.55 M-5.05 -18.25 L-6.95 -15.0 -5.05 -18.25 -2.2 -16.7 -0.65 -19.3 2.65 -17.45 -0.65 -19.3 -2.2 -16.7 -5.05 -18.25 M-2.2 -16.7 L1.05 -14.75 -0.95 -11.3 -4.2 -13.35 -2.2 -16.7 -4.2 -13.35 -0.95 -11.3 1.05 -14.75 -2.2 -16.7 M-15.45 -25.6 L-16.0 -24.65 -16.7 -24.95 -16.0 -24.65 -15.45 -25.6" fill="#f4dda9" fill-rule="evenodd" stroke="none"/>
    <path d="M-17.35 -24.5 L-17.5 -24.3 -17.9 -24.0 Q-16.85 -25.45 -16.05 -25.3 L-16.7 -24.95 -17.35 -24.5 M-13.4 -25.1 Q-8.9 -25.05 -3.95 -26.85 L-4.1 -26.75 Q-4.75 -26.25 -5.55 -25.95 -6.6 -25.45 -7.9 -25.15 L-10.1 -24.8 -11.3 -24.8 -12.2 -24.8 -13.4 -25.1" fill="#ffb8f6" fill-rule="evenodd" stroke="none"/>
    <path d="M2.55 -24.4 L3.05 -25.5 3.15 -28.4 1.5 -29.25 -0.35 -26.15 2.55 -24.4 3.1 -24.05 3.05 -25.5 M3.15 -28.4 L3.2 -30.05 M1.65 -29.6 L1.5 -29.25 1.15 -29.35 1.05 -29.45 M-2.75 -27.65 L-0.35 -26.15 -1.85 -23.6 1.0 -21.9 2.55 -24.4 M3.1 -24.05 L3.05 -20.55 2.9 -17.2 2.95 -13.65 2.85 -11.45 2.85 -9.05 2.8 -5.6 2.8 -5.5 2.8 -2.5 2.65 1.35 2.65 5.2 2.6 8.7 0.45 5.0 -0.7 3.25 -1.65 1.75 -3.35 -1.2 -4.35 -2.95 -7.45 -8.1 -9.25 -11.05 -10.7 -13.55 -10.9 -13.9 -12.85 -16.85 -14.2 -19.25 -14.9 -20.45 -16.7 -23.55 -17.35 -24.5 M-2.75 -27.65 L-4.25 -25.15 -1.85 -23.6 -3.45 -20.9 -0.65 -19.3 1.0 -21.9 3.05 -20.55 M2.9 -17.2 L2.65 -17.45 1.05 -14.75 2.95 -13.65 M2.85 -11.45 L1.85 -9.65 2.85 -9.05 M0.2 -7.05 L1.85 -9.65 -0.95 -11.3 -2.5 -8.75 0.2 -7.05 2.8 -5.6 M0.2 -7.05 L-1.2 -4.65 1.4 -3.25 2.8 -5.5 M2.8 -2.5 L1.4 -3.25 -0.3 -0.45 2.45 1.2 2.65 1.35 M-0.7 3.25 L0.8 4.2 2.45 1.2 M2.65 5.2 L0.8 4.2 0.45 5.0 M-12.2 -24.8 L-13.35 -23.05 -10.2 -21.3 -8.65 -23.95 -10.1 -24.8 M-16.7 -24.95 L-16.0 -24.65 -15.45 -25.6 M-7.9 -25.15 L-8.65 -23.95 -5.9 -22.45 -4.25 -25.15 -5.55 -25.95 M-5.9 -22.45 L-7.55 -19.7 -5.05 -18.25 -3.45 -20.9 -5.9 -22.45 M-10.7 -13.55 L-8.5 -12.25 -6.95 -15.0 -9.5 -16.45 -10.9 -13.9 M-5.05 -18.25 L-2.2 -16.7 -0.65 -19.3 2.65 -17.45 M-2.2 -16.7 L-4.2 -13.35 -0.95 -11.3 1.05 -14.75 -2.2 -16.7 M-6.95 -15.0 L-5.05 -18.25 M-8.5 -12.25 L-5.8 -10.65 -4.2 -13.35 -6.95 -15.0 M-7.55 -19.7 L-9.5 -16.45 -12.05 -18.05 -12.85 -16.85 M-14.9 -20.45 L-13.35 -23.05 -16.0 -24.65 -16.7 -23.55 M-7.55 -19.7 L-10.2 -21.3 -12.05 -18.05 -14.2 -19.25 M-9.25 -11.05 L-8.5 -12.25 M-7.45 -8.1 L-5.8 -10.65 -2.5 -8.75 -4.05 -6.15 -1.2 -4.65 -2.9 -1.95 -0.3 -0.45 -1.65 1.75 M-3.35 -1.2 L-2.9 -1.95 -4.35 -2.95 M-4.05 -6.15 L-4.95 -4.55 M-7.45 -8.1 L-4.05 -6.15" fill="none" stroke="#c1a872" stroke-linecap="round" stroke-linejoin="round" stroke-width="1.5"/>
    <path d="M-1.8 -51.65 Q0.95 -49.4 3.0 -45.45 4.85 -40.3 3.05 -34.85 L3.1 -34.85 Q6.5 -32.2 3.85 -30.6 L3.7 -30.5 Q4.35 -3.6 3.15 11.5 L-17.9 -24.0 Q-19.35 -23.1 -21.85 -24.5 -23.3 -25.05 -20.9 -26.9 L-19.25 -28.0 Q-26.4 -33.5 -25.4 -42.4 L-24.75 -44.65 Q-25.85 -44.6 -27.5 -45.5 -28.95 -46.15 -26.6 -47.95 L-24.95 -49.0 Q-32.05 -54.55 -31.05 -63.4 -28.85 -73.15 -19.85 -75.4 -8.3 -77.55 -2.65 -66.55 -0.85 -61.3 -2.55 -55.85 0.85 -53.2 -1.8 -51.65 -2.55 -50.9 -3.9 -50.7 -6.55 -50.05 -9.7 -47.85 -12.3 -46.05 -16.9 -45.9 -18.95 -45.7 -19.35 -46.35 -20.95 -47.35 -23.15 -45.3 -23.8 -44.7 -24.75 -44.65 M3.7 -30.5 L3.2 -30.05 M2.95 -30.35 L1.75 -29.7 1.65 -29.6 Q1.5 -29.45 1.15 -29.35 -0.65 -28.3 -2.5 -27.5 -2.75 -27.35 -2.95 -27.3 L-3.95 -26.85 Q-8.9 -25.05 -13.4 -25.1 L-15.6 -25.3 -16.05 -25.3 Q-16.65 -25.4 -17.4 -24.55 L-17.5 -24.3 -17.9 -24.0 -17.4 -24.55" fill="none" stroke="#000000" stroke-linecap="round" stroke-linejoin="round" stroke-width="1.5"/>
  </g>
</svg>
