<?xml version="1.0" encoding="UTF-8" standalone="no"?>
<svg xmlns:xlink="http://www.w3.org/1999/xlink" height="155.9px" width="26.65px" xmlns="http://www.w3.org/2000/svg">
  <g transform="matrix(1.0, 0.0, 0.0, 1.0, 13.5, 116.25)">
    <path d="M-12.75 -83.5 L-11.2 -84.85 Q-10.5 -85.45 -9.65 -85.75 L-7.4 -86.25 -4.25 -85.75 Q-2.95 -85.35 -1.5 -84.4 L-0.25 -83.5 0.25 -83.2 Q1.8 -82.1 3.25 -81.55 L5.4 -81.1 Q7.15 -80.85 8.8 -81.45 L10.4 -82.3 12.4 -84.0 Q12.7 -75.8 5.7 -71.65 L3.3 -71.25 -1.4 -71.05 -4.15 -71.35 -6.3 -71.75 Q-12.55 -76.6 -12.75 -83.5" fill="#202020" fill-rule="evenodd" stroke="none"/>
    <path d="M-6.3 -71.75 L-4.15 -71.35 -1.4 -71.05 3.3 -71.25 5.7 -71.65 5.9 -71.75 5.9 -50.65 4.85 -49.3 4.85 -46.2 2.85 -45.85 1.15 -45.7 -3.4 -45.85 -5.35 -46.2 -5.35 -49.3 -6.3 -50.9 -6.3 -71.75 M2.85 32.55 L2.85 38.25 Q-0.55 39.55 -3.4 38.25 L-3.4 32.55 2.85 32.55 M-5.35 -49.3 L4.85 -49.3 -5.35 -49.3" fill="#cdd1d2" fill-rule="evenodd" stroke="none"/>
    <path d="M-12.75 -83.5 L-11.2 -84.85 Q-10.5 -85.45 -9.65 -85.75 L-7.4 -86.25 -4.25 -85.75 Q-2.95 -85.35 -1.5 -84.4 L-0.25 -83.5 0.25 -83.2 Q1.8 -82.1 3.25 -81.55 L5.4 -81.1 Q7.15 -80.85 8.8 -81.45 L10.4 -82.3 12.4 -84.0 Q12.3 -87.7 10.65 -92.25 6.8 -103.1 -2.85 -110.55 -6.4 -113.25 -10.65 -115.5 -7.95 -112.3 -7.4 -107.65 -6.65 -100.55 -11.3 -90.05 -12.9 -86.35 -12.75 -83.5 -12.55 -76.6 -6.3 -71.75 M5.7 -71.65 Q12.7 -75.8 12.4 -84.0" fill="none" stroke="#333333" stroke-linecap="round" stroke-linejoin="round" stroke-width="1.5"/>
    <path d="M-6.3 -71.75 L-4.15 -71.35 -1.4 -71.05 3.3 -71.25 5.7 -71.65 5.9 -71.75 5.9 -50.65 4.85 -49.3 4.85 -46.2 2.85 -45.85 2.85 32.55 2.85 38.25 Q-0.55 39.55 -3.4 38.25 L-3.4 32.55 -3.4 -45.85 -5.35 -46.2 -5.35 -49.3 -6.3 -50.9 -6.3 -71.75 M-3.4 -45.85 L1.15 -45.7 2.85 -45.85 M4.85 -49.3 L-5.35 -49.3 M-3.4 32.55 L2.85 32.55" fill="none" stroke="#000000" stroke-linecap="round" stroke-linejoin="round" stroke-width="1.5"/>
  </g>
</svg>
