<?xml version="1.0" encoding="UTF-8" standalone="no"?>
<svg xmlns:xlink="http://www.w3.org/1999/xlink" height="98.75px" width="42.1px" xmlns="http://www.w3.org/2000/svg">
  <g transform="matrix(1.0, 0.0, 0.0, 1.0, 15.0, 59.25)">
    <path d="M-6.0 -57.95 L-5.2 -51.7 Q-6.3 -48.9 -3.7 -47.75 -0.55 -46.65 2.3 -48.3 4.9 -49.9 4.2 -51.8 3.55 -53.85 0.6 -53.6 -2.15 -53.3 -2.65 -51.55 -2.85 -50.15 -1.5 -49.6 -0.55 -49.4 0.65 -49.9 L0.25 -50.85 Q-1.5 -50.15 -1.35 -51.35 -1.15 -52.15 0.45 -52.45 2.35 -52.65 2.65 -51.45 3.1 -49.95 0.85 -48.95 -1.9 -48.0 -3.35 -49.0 -4.5 -50.0 -4.1 -51.95 -3.4 -54.4 0.8 -55.05 5.4 -55.7 6.95 -53.8 L8.05 -51.8 Q8.65 -50.05 6.55 -48.25 0.45 -43.9 -6.55 -45.7 -10.95 -46.95 -12.4 -50.45 -13.7 -53.4 -10.3 -56.3" fill="none" stroke="#000000" stroke-linecap="round" stroke-linejoin="round" stroke-width="1.0"/>
    <path d="M-10.3 -56.3 Q-13.2 -54.65 -14.05 -51.7 -14.25 -47.0 -9.35 -44.85 -9.2 -44.7 -8.95 -44.7 -1.65 -42.55 4.7 -45.65 L6.05 -46.4 Q9.55 -48.6 9.55 -51.3 9.55 -52.25 9.15 -53.25 7.2 -57.25 1.2 -58.25 L-6.0 -57.95 Q-7.9 -57.45 -9.7 -56.6 L-10.3 -56.3 M26.35 -3.35 Q20.2 -8.3 11.9 -9.45 L12.3 -5.2 Q12.35 -3.7 12.55 -2.2 17.15 -1.9 25.25 2.9 L21.75 -2.8 26.35 -3.35 M-14.05 -51.7 L-14.2 -51.05 -14.2 -50.0 -14.0 -48.95 -8.25 -19.4 Q-7.0 -13.65 -6.1 -6.6 0.7 -1.3 9.0 -3.95 L12.3 -5.2 M9.55 -51.3 L10.65 -29.2 Q11.1 -19.65 11.9 -9.45 M12.55 -2.2 L12.75 0.65 Q14.55 15.05 17.6 28.75 18.45 31.95 16.85 34.4 L15.75 35.7 Q12.9 38.35 7.4 38.75 2.2 38.9 -0.8 36.7 -3.75 34.25 -3.8 29.0 L-4.55 9.05 -5.2 1.1 -6.1 -6.6 M-5.2 1.1 Q2.8 5.5 9.95 2.3 L12.75 0.65" fill="none" stroke="#000000" stroke-linecap="round" stroke-linejoin="round" stroke-width="1.5"/>
  </g>
</svg>
