<?xml version="1.0" encoding="UTF-8" standalone="no"?>
<svg xmlns:xlink="http://www.w3.org/1999/xlink" height="140.6px" width="60.25px" xmlns="http://www.w3.org/2000/svg">
  <g transform="matrix(1.0, 0.0, 0.0, 1.0, 28.95, 108.25)">
    <path d="M3.8 -53.75 L3.8 29.85 Q3.55 31.4 1.1 31.6 L0.4 31.6 Q-2.25 31.6 -2.65 29.85 L-2.65 -53.9 1.1 -53.65 1.25 -53.65 3.8 -53.75" fill="#ececec" fill-rule="evenodd" stroke="none"/>
    <path d="M27.8 -85.25 Q26.45 -93.45 20.25 -99.65 12.4 -107.5 1.25 -107.5 -9.9 -107.5 -17.8 -99.65 -23.95 -93.45 -25.3 -85.25 L-25.2 -85.25 Q1.45 -81.55 27.65 -85.25 L27.8 -85.25 Q29.15 -85.35 29.95 -84.65 31.8 -77.1 27.85 -70.95 L26.35 -70.65 Q24.4 -65.65 20.25 -61.55 13.3 -54.55 3.8 -53.75 L3.8 29.85 Q3.55 31.4 1.1 31.6 L0.4 31.6 Q-2.25 31.6 -2.65 29.85 L-2.65 -53.9 Q-11.35 -55.1 -17.8 -61.55 -21.95 -65.7 -23.85 -70.65 L-25.65 -71.0 Q-29.8 -77.4 -27.25 -84.65 L-25.3 -85.25 M3.8 -53.75 L1.25 -53.65 1.1 -53.65 -2.65 -53.9 M-23.85 -70.65 Q1.65 -66.05 26.35 -70.65" fill="none" stroke="#000000" stroke-linecap="round" stroke-linejoin="round" stroke-width="1.5"/>
  </g>
</svg>
