<?xml version="1.0" encoding="UTF-8" standalone="no"?>
<svg xmlns:xlink="http://www.w3.org/1999/xlink" height="158.7px" width="43.3px" xmlns="http://www.w3.org/2000/svg">
  <g transform="matrix(1.0, 0.0, 0.0, 1.0, 21.85, 130.95)">
    <path d="M-5.8 -19.95 L-6.9 -22.1 -7.45 -23.0 -7.55 -23.0 -9.4 -25.2 -6.9 -115.25 -0.2 -130.2 6.5 -115.25 9.0 -25.2 Q8.0 -24.2 7.15 -23.0 L7.1 -23.0 6.5 -22.1 5.4 -19.9 4.35 -20.6 4.0 -20.9 2.8 -22.35 2.75 -22.75 2.85 -23.0 2.9 -23.0 2.95 -23.1 4.2 -26.4 Q2.45 -42.9 2.45 -63.3 L-0.2 -69.3 -0.2 -69.2 -2.85 -63.3 Q-2.85 -42.9 -4.6 -26.4 L-3.1 -22.75 -3.1 -22.45 -4.45 -20.9 -4.8 -20.6 -5.8 -19.95 M-0.2 -125.95 L-0.2 -69.3 -0.2 -125.95" fill="url(#gradient0)" fill-rule="evenodd" stroke="none"/>
    <path d="M5.4 -19.9 L9.7 -19.75 12.8 -22.75 Q15.8 -21.65 20.15 -18.1 L20.65 -17.7 20.7 -17.7 Q19.1 -15.35 16.65 -13.75 14.25 -12.15 13.1 -11.75 11.4 -12.6 10.25 -13.7 L9.05 -14.65 5.8 -15.05 3.05 -11.65 3.6 -10.3 2.95 -8.95 2.95 14.65 5.5 20.2 5.4 20.25 -0.2 27.0 -5.85 20.25 -5.9 20.2 -3.4 14.65 -3.4 -8.95 -4.0 -10.3 -3.5 -11.65 -6.25 -15.05 -9.5 -14.65 -10.7 -13.7 Q-11.85 -12.6 -13.5 -11.75 -14.7 -12.15 -17.05 -13.75 -19.55 -15.35 -21.1 -17.7 L-20.6 -18.1 Q-16.25 -21.65 -13.2 -22.75 L-10.15 -19.75 -5.8 -19.95 -6.9 -22.1 -7.45 -23.0 M-7.55 -23.0 L-9.4 -25.2 -6.9 -115.25 -0.2 -130.2 6.5 -115.25 9.0 -25.2 Q8.0 -24.2 7.15 -23.0 M7.1 -23.0 L6.5 -22.1 5.4 -19.9 4.35 -20.6 4.0 -20.9 2.8 -22.35 -0.2 -26.0 -3.1 -22.45 -4.45 -20.9 -4.8 -20.6 -5.8 -19.95 M2.9 -23.0 L2.95 -23.1 4.2 -26.4 Q2.45 -42.9 2.45 -63.3 L-0.2 -69.3 M-0.2 -69.2 L-2.85 -63.3 Q-2.85 -42.9 -4.6 -26.4 L-3.1 -22.75 -3.1 -22.45 M2.8 -22.35 L2.75 -22.75 2.85 -23.0 M-3.4 14.65 L-3.25 14.3 -0.2 16.25 2.8 14.3 2.95 14.65 M-3.4 -8.95 L-0.2 -8.45 2.95 -8.95 M-3.5 -11.65 L-0.2 -11.1 3.05 -11.65" fill="none" stroke="#000000" stroke-linecap="round" stroke-linejoin="round" stroke-width="1.5"/>
    <path d="M-0.2 -26.0 L-0.2 -63.25 M-0.2 -69.3 L-0.2 -125.95" fill="none" stroke="#000000" stroke-linecap="round" stroke-linejoin="round" stroke-opacity="0.40784314" stroke-width="1.0"/>
  </g>
  <defs>
    <linearGradient gradientTransform="matrix(0.0, -0.062, 0.0112, 0.0, -0.2, -76.35)" gradientUnits="userSpaceOnUse" id="gradient0" spreadMethod="pad" x1="-819.2" x2="819.2">
      <stop offset="0.0" stop-color="#bdbdbd"/>
      <stop offset="1.0" stop-color="#f5f5f5"/>
    </linearGradient>
  </defs>
</svg>
