<?xml version="1.0" encoding="UTF-8" standalone="no"?>
<svg xmlns:xlink="http://www.w3.org/1999/xlink" height="134.25px" width="18.7px" xmlns="http://www.w3.org/2000/svg">
  <g transform="matrix(1.0, 0.0, 0.0, 1.0, 13.15, 49.6)">
    <path d="M4.65 -13.25 L4.5 -16.5 -0.05 -16.15 Q-3.6 -16.0 -7.55 -16.2 L-7.3 -12.7 -6.1 -12.6 Q-2.6 -12.4 0.15 -12.65 L2.8 -12.95 4.65 -13.25 M-7.55 -16.2 L-7.7 -19.65 -5.4 -20.15 -6.65 -28.8 -6.85 -29.4 -7.7 -36.2 -8.75 -43.55 -9.15 -47.0 Q-8.5 -48.15 -5.65 -48.8 L-4.35 -48.85 Q-2.05 -48.85 -1.45 -47.75 L0.0 -36.65 2.25 -20.05 4.2 -19.65 4.5 -16.5 M4.6 -10.85 L2.9 -10.75 3.05 -8.85 0.4 -8.5 -5.35 -8.65 -5.7 -10.65 -7.4 -10.7 -7.25 -6.8 Q-6.15 5.3 -6.65 18.75 -7.3 54.65 -12.4 83.9 -7.75 81.65 -4.75 78.1 -2.75 75.65 -1.5 72.65 4.45 49.75 4.8 19.65 L4.6 -10.85 M2.8 -12.95 L2.9 -10.75 M-8.75 -43.55 L-4.4 -43.4 -3.5 -38.35 -3.15 -37.0 0.0 -36.65 M-5.4 -20.15 L-2.0 -19.75 -2.15 -20.2 -3.6 -27.75 -6.65 -28.8 M-3.5 -38.35 Q-5.85 -37.75 -7.7 -36.2 M2.25 -20.05 L-0.35 -19.7 -2.0 -19.75 M-5.7 -10.65 L-6.1 -12.6" fill="none" stroke="#000000" stroke-linecap="round" stroke-linejoin="round" stroke-width="1.5"/>
  </g>
</svg>
