<?xml version="1.0" encoding="UTF-8" standalone="no"?>
<svg xmlns:xlink="http://www.w3.org/1999/xlink" height="201.7px" width="60.25px" xmlns="http://www.w3.org/2000/svg">
  <g transform="matrix(1.0, 0.0, 0.0, 1.0, 31.85, 164.35)">
    <path d="M3.05 25.45 L5.7 29.65 5.6 29.9 Q3.1 31.25 -1.1 31.35 L-1.2 31.35 -1.2 31.4 Q-5.4 31.3 -7.9 29.95 L-8.0 29.7 -5.35 25.5 Q-4.1 27.3 -1.2 28.25 L-1.2 28.2 -1.1 28.2 Q1.8 27.25 3.05 25.45" fill="#9aacb1" fill-rule="evenodd" stroke="none"/>
    <path d="M5.55 -36.05 L3.55 -96.65 2.9 -95.5 2.9 -110.4 -1.15 -118.55 -1.2 -118.7 -1.2 -118.45 -5.2 -110.35 -5.2 -95.45 -5.85 -96.6 -7.85 -36.0 -7.9 -35.85 -14.25 -27.4 -14.3 -27.4 -18.55 -24.6 -18.55 -24.7 -11.65 -131.85 -1.2 -163.25 -1.2 -163.6 9.35 -131.9 16.25 -24.65 12.0 -27.45 11.95 -27.45 5.6 -35.9 5.55 -36.05 M-1.2 -157.65 L-1.2 -118.7 -1.2 -157.65" fill="url(#gradient0)" fill-rule="evenodd" stroke="none"/>
    <path d="M5.55 -36.05 L3.55 -96.65 2.9 -95.5 -1.1 -87.8 -1.1 -87.75 -5.2 -95.45 -5.85 -96.6 -7.85 -36.0 -4.5 -30.25 -1.35 -34.7 -1.25 -34.8 2.1 -30.1 3.25 -32.1 M3.4 -32.35 L5.55 -36.05 5.6 -35.9 11.95 -27.45 12.0 -27.45 16.25 -24.65 9.35 -131.9 -1.2 -163.6 -11.75 -131.9 -18.65 -24.65 -18.55 -24.7 -18.55 -24.6 -14.3 -27.4 -14.25 -27.4 -7.9 -35.85 -7.85 -36.0 M-1.2 -163.25 L-11.65 -131.85 -18.55 -24.7 M11.95 -27.45 L11.9 -27.35 12.0 -27.45 M-4.5 -30.25 L-6.95 -26.8 -1.35 -20.1 -1.25 -20.05 4.4 -26.9 2.1 -30.1 M6.5 -17.4 L3.55 -11.85 3.65 -11.55 16.25 -11.55 27.65 -17.4 27.65 -22.25 9.1 -22.25 11.9 -27.35 M6.5 -17.4 L9.1 -22.25 M3.65 -11.55 L3.4 -11.55 Q2.15 -10.45 2.2 -7.75 1.3 5.4 2.15 23.15 L3.05 25.45 5.7 29.65 5.6 29.9 4.5 32.45 Q3.6 34.2 2.3 35.6 0.1 36.65 -1.1 36.6 L-3.0 36.3 -4.6 35.65 -4.7 35.6 Q-6.0 34.2 -6.9 32.45 L-8.0 29.9 -8.1 29.65 -5.45 25.45 -4.55 23.15 Q-3.7 5.4 -4.6 -7.75 -4.55 -10.4 -5.75 -11.5 L-5.95 -11.5 -18.55 -11.5 -31.0 -17.4 -31.1 -17.45 -31.1 -22.25 -11.6 -22.25 -14.2 -27.3 -14.3 -27.4 M3.55 -11.85 L3.4 -11.55 -1.1 -9.85 -1.2 -9.85 -5.7 -11.5 Q-4.45 -10.4 -4.5 -7.7 -3.6 5.45 -4.45 23.2 L-5.35 25.5 Q-4.1 27.3 -1.2 28.25 M-1.2 28.2 L-1.1 28.2 Q1.8 27.25 3.05 25.45 M2.9 -95.5 L2.9 -110.4 -1.15 -118.55 -1.2 -118.7 M-1.2 -118.45 L-5.2 -110.35 -5.2 -95.45 M-14.25 -27.4 L-14.2 -27.3 M-5.95 -11.5 L-5.9 -11.55 -5.85 -11.8 -8.85 -17.4 -11.6 -22.25 M-5.7 -11.5 L-5.75 -11.5 M-5.85 -11.8 L-5.7 -11.5 M-7.9 29.95 L-8.0 29.7 -5.35 25.5 M-7.9 29.95 L-6.8 32.5 Q-5.9 34.25 -4.6 35.65" fill="none" stroke="#000000" stroke-linecap="round" stroke-linejoin="round" stroke-width="1.5"/>
    <path d="M27.65 -17.4 L6.5 -17.4 M-8.85 -17.4 L-31.0 -17.4" fill="none" stroke="#000000" stroke-linecap="round" stroke-linejoin="round" stroke-opacity="0.49803922" stroke-width="1.0"/>
    <path d="M-1.2 -118.7 L-1.2 -157.65 M-1.1 -87.8 L-1.1 -109.6" fill="none" stroke="#000000" stroke-linecap="round" stroke-linejoin="round" stroke-opacity="0.32941177" stroke-width="1.5"/>
    <path d="M-1.2 31.4 Q-5.4 31.3 -7.9 29.95 M5.6 29.9 Q3.1 31.25 -1.1 31.35 L-1.2 31.35" fill="none" stroke="#000000" stroke-linecap="round" stroke-linejoin="round" stroke-width="1.0"/>
  </g>
  <defs>
    <linearGradient gradientTransform="matrix(0.0, -0.076, 0.0212, 0.0, -1.15, -96.35)" gradientUnits="userSpaceOnUse" id="gradient0" spreadMethod="pad" x1="-819.2" x2="819.2">
      <stop offset="0.0" stop-color="#bdbdbd"/>
      <stop offset="1.0" stop-color="#f5f5f5"/>
    </linearGradient>
  </defs>
</svg>
