<?xml version="1.0" encoding="UTF-8" standalone="no"?>
<svg xmlns:xlink="http://www.w3.org/1999/xlink" height="63.2px" width="82.1px" xmlns="http://www.w3.org/2000/svg">
  <g transform="matrix(1.0, 0.0, 0.0, 1.0, 47.8, 13.9)">
    <path d="M28.9 -7.2 L24.75 -4.45 26.35 -2.75 27.15 -1.65 28.3 0.35 Q28.85 1.25 28.9 1.9 L28.9 1.95 33.1 -0.8 Q34.25 -1.75 32.3 -5.0 30.3 -7.85 28.9 -7.2 M28.9 1.95 L28.8 2.7 28.6 3.0 17.85 10.0 17.9 9.75 17.9 9.15 11.75 13.15 -1.55 21.8 -15.85 31.1 -29.45 39.95 -42.35 48.35 Q-44.0 49.2 -45.9 46.3 -47.85 43.25 -46.55 41.95 L-33.65 33.55 -20.05 24.7 -5.75 15.4 1.95 10.4 -8.45 -5.55 Q-11.1 -6.6 -10.85 -9.15 -9.45 -11.4 -7.6 -12.3 L-6.5 -12.75 -4.9 -13.15 Q-2.5 -12.0 -2.4 -9.2 L7.85 6.55 13.75 2.7 Q13.2 2.35 12.85 2.45 L23.9 -4.8 24.75 -4.45 M17.9 9.15 L17.5 7.95 16.15 5.55 15.35 4.4 13.75 2.7 M7.85 6.55 L8.3 7.25 9.3 8.35 10.35 9.75 Q11.8 12.25 11.75 13.15 M1.95 10.4 L2.45 11.2 M-2.4 -9.2 L-2.8 -9.1 -4.5 -8.3 -4.8 -8.15 -5.45 -7.8 -8.45 -5.55 M-5.75 15.4 L-4.35 17.25 Q-2.5 19.75 -1.55 21.8 M-29.45 39.95 Q-30.95 38.35 -32.55 35.6 L-33.65 33.55 M-15.85 31.1 L-20.05 24.7" fill="none" stroke="#000000" stroke-linecap="round" stroke-linejoin="round" stroke-width="1.5"/>
  </g>
</svg>
