<?xml version="1.0" encoding="UTF-8" standalone="no"?>
<svg xmlns:xlink="http://www.w3.org/1999/xlink" height="76.65px" width="22.15px" xmlns="http://www.w3.org/2000/svg">
  <g transform="matrix(1.0, 0.0, 0.0, 1.0, 9.05, 69.15)">
    <path d="M1.9 -66.7 Q3.95 -70.2 5.65 -66.5 L5.0 -56.2 4.8 -53.3 Q2.35 -51.2 1.2 -53.65 L1.3 -56.4 1.9 -66.7 M1.95 -8.75 L0.65 5.65 Q-1.85 8.0 -3.25 5.25 L-2.35 -9.1 1.95 -8.75" fill="#d4a08b" fill-rule="evenodd" stroke="none"/>
    <path d="M1.9 -66.7 L1.3 -56.4 1.2 -53.65 Q2.35 -51.2 4.8 -53.3 L5.0 -56.2 5.65 -66.5 Q3.95 -70.2 1.9 -66.7 M-2.35 -9.1 L-2.6 -9.35 -5.05 -11.0 Q-6.9 -12.55 -7.7 -14.9 L-7.95 -15.65 Q-8.95 -19.4 -7.0 -22.7 -6.0 -24.45 -4.55 -25.55 -6.5 -27.35 -7.25 -30.05 -8.25 -33.8 -6.3 -37.15 -5.35 -38.75 -4.0 -39.85 -5.95 -41.55 -6.65 -44.3 -7.7 -48.15 -5.7 -51.65 -3.7 -55.1 0.15 -56.1 L1.3 -56.4 M5.0 -56.2 L7.45 -55.2 Q10.95 -53.15 12.0 -49.3 13.0 -45.4 11.0 -42.0 10.0 -40.2 8.4 -39.1 10.1 -37.4 10.75 -34.9 11.75 -31.15 9.85 -27.8 8.9 -26.15 7.35 -25.0 9.35 -23.25 10.1 -20.45 11.1 -16.7 9.25 -13.35 7.25 -10.05 3.5 -9.05 L1.95 -8.75 0.65 5.65 Q-1.85 8.0 -3.25 5.25 L-2.35 -9.1 1.95 -8.75 M8.4 -39.1 Q7.05 -38.0 5.15 -37.5 L3.8 -37.25 0.3 -37.45 Q-0.95 -37.75 -2.15 -38.45 L-4.0 -39.85 M7.35 -25.0 Q5.95 -23.95 4.15 -23.5 L2.95 -23.2 -0.45 -23.4 Q-1.75 -23.75 -2.9 -24.4 L-4.55 -25.55" fill="none" stroke="#000000" stroke-linecap="round" stroke-linejoin="round" stroke-width="1.5"/>
  </g>
</svg>
