<?xml version="1.0" encoding="UTF-8" standalone="no"?>
<svg xmlns:xlink="http://www.w3.org/1999/xlink" height="221.2px" width="62.55px" xmlns="http://www.w3.org/2000/svg">
  <g transform="matrix(1.0, 0.0, 0.0, 1.0, 31.35, 173.7)">
    <path d="M8.6 -53.25 L12.05 -49.75 15.15 -46.6 15.15 -43.4 17.45 -41.1 17.45 -32.45 Q10.05 -26.0 -0.1 -26.0 -10.2 -26.0 -17.55 -32.45 L-17.55 -41.1 -15.35 -43.4 -15.35 -46.6 -12.2 -49.75 -8.7 -53.3 -0.1 -62.0 -0.05 -61.95 8.6 -53.25 M1.35 -50.45 L1.25 -50.45 1.2 -50.45 0.75 -50.45 Q-3.8 -50.45 -6.95 -47.3 -10.15 -44.15 -10.15 -39.65 -10.15 -35.05 -6.95 -31.9 -4.15 -29.1 -0.25 -28.8 L0.75 -28.75 4.25 -29.2 Q1.8 -30.0 -0.05 -31.9 -3.25 -35.05 -3.25 -39.65 -3.25 -44.15 -0.05 -47.3 1.8 -49.15 4.25 -49.9 L1.35 -50.45 M3.95 -9.2 L3.95 28.35 -0.1 31.85 -0.25 31.75 -4.15 28.35 -4.15 -9.2 -0.1 -9.0 3.95 -9.2 M3.45 -44.2 L3.35 -44.2 Q1.55 -44.2 0.2 -42.9 -1.0 -41.6 -1.0 -39.75 -1.0 -38.0 0.2 -36.65 1.55 -35.45 3.35 -35.45 L3.7 -35.45 Q5.25 -35.55 6.45 -36.65 7.8 -38.0 7.8 -39.75 7.8 -41.6 6.45 -42.9 5.2 -44.15 3.45 -44.2" fill="#2a2a2a" fill-rule="evenodd" stroke="none"/>
    <path d="M-8.7 -53.3 L-8.7 -151.55 0.0 -166.5 8.6 -151.55 8.6 -53.25 -0.05 -61.95 -0.1 -62.0 -8.7 -53.3 M-0.05 -162.45 L-0.05 -61.95 -0.05 -162.45" fill="url(#gradient0)" fill-rule="evenodd" stroke="none"/>
    <path d="M8.6 -53.25 L12.05 -49.75 12.05 -152.75 -0.1 -172.95 -12.2 -152.75 -12.2 -49.75 -8.7 -53.3 -0.1 -62.0 -0.05 -61.95 8.6 -53.25 M17.45 -32.45 L18.8 -33.75 Q22.45 -37.5 24.35 -41.8 25.65 -44.6 26.2 -47.55 26.6 -45.15 26.6 -42.45 L26.6 -41.8 Q26.4 -33.9 22.2 -27.7 28.4 -33.4 29.85 -40.8 30.45 -38.3 30.45 -35.7 30.45 -24.55 21.5 -16.8 14.5 -10.65 5.4 -9.35 L3.95 -9.2 3.95 28.35 5.4 27.05 7.5 32.2 4.0 35.0 4.0 41.15 -0.1 46.75 -4.25 41.15 -4.25 35.0 -7.4 32.45 -7.65 32.2 -5.55 27.05 -4.15 28.35 -4.15 -9.2 -5.55 -9.35 Q-14.75 -10.65 -21.65 -16.8 -30.6 -24.55 -30.6 -35.7 -30.6 -38.3 -30.1 -40.8 -28.55 -33.4 -22.4 -27.7 -26.65 -33.9 -26.8 -41.8 L-26.8 -42.45 Q-26.8 -45.15 -26.35 -47.55 -25.8 -44.6 -24.55 -41.8 -22.7 -37.5 -18.95 -33.75 L-17.55 -32.45 -17.55 -41.1 -15.35 -43.4 -15.35 -46.6 -12.2 -49.75 M-22.4 -27.7 L-21.65 -27.0 -20.05 -25.65 Q-11.65 -19.15 -0.1 -19.15 11.45 -19.15 19.9 -25.65 L21.5 -27.0 22.2 -27.7 M-17.55 -32.45 Q-10.2 -26.0 -0.1 -26.0 10.05 -26.0 17.45 -32.45 L17.45 -41.1 15.15 -43.4 15.15 -46.6 12.05 -49.75 M3.95 -9.2 L-0.1 -9.0 -4.15 -9.2 M-4.15 28.35 L-0.25 31.75 -0.1 31.85 3.95 28.35" fill="none" stroke="#000000" stroke-linecap="round" stroke-linejoin="round" stroke-width="1.5"/>
    <path d="M-0.05 -61.95 L-0.05 -162.45 M-0.1 33.65 L1.9 34.65 1.9 40.3 -0.1 42.4 -2.1 40.3 -2.1 34.65 -0.1 33.65" fill="none" stroke="#000000" stroke-linecap="round" stroke-linejoin="round" stroke-opacity="0.49803922" stroke-width="1.0"/>
  </g>
  <defs>
    <linearGradient gradientTransform="matrix(0.0, -0.0629, 0.0106, 0.0, -0.05, -115.35)" gradientUnits="userSpaceOnUse" id="gradient0" spreadMethod="pad" x1="-819.2" x2="819.2">
      <stop offset="0.0" stop-color="#bdbdbd"/>
      <stop offset="1.0" stop-color="#f5f5f5"/>
    </linearGradient>
  </defs>
</svg>
