<?xml version="1.0" encoding="UTF-8" standalone="no"?>
<svg xmlns:xlink="http://www.w3.org/1999/xlink" height="222.15px" width="165.3px" xmlns="http://www.w3.org/2000/svg">
  <g transform="matrix(1.0, 0.0, 0.0, 1.0, 56.5, 136.05)">
    <path d="M3.6 -110.0 Q37.95 -107.85 68.4 -83.15 103.65 -53.45 107.95 -18.1 L108.05 -17.2 Q77.35 -76.2 3.6 -84.85 L3.6 -110.0 M-5.65 -85.45 L-12.7 -85.8 Q-12.0 -87.75 -11.95 -89.5 -11.85 -93.75 -16.1 -96.45 -18.15 -97.7 -21.1 -98.65 -23.8 -99.5 -27.1 -99.75 L-35.45 -99.5 Q-44.2 -98.55 -55.75 -94.65 -40.3 -111.95 -6.9 -110.65 L-6.9 -110.6 -5.65 -110.6 -5.65 -85.45" fill="url(#gradient0)" fill-rule="evenodd" stroke="none"/>
    <path d="M-6.9 -110.65 L-6.9 -115.5 -5.95 -115.5 -5.95 -120.75 -6.9 -120.75 -6.9 -125.7 -5.2 -125.7 -1.3 -135.3 2.45 -125.7 4.45 -125.7 4.45 -120.75 3.55 -120.75 3.55 -115.5 4.45 -115.5 4.45 -110.6 3.6 -110.6 3.6 -110.0 Q37.95 -107.85 68.4 -83.15 103.65 -53.45 107.95 -18.1 L108.05 -17.2 Q77.35 -76.2 3.6 -84.85 L3.6 -73.75 2.05 -73.75 2.05 -11.3 2.1 -11.3 2.1 64.1 4.35 64.1 4.35 68.3 M3.6 -110.0 L3.6 -84.85 M4.7 68.3 L4.7 70.8 5.8 70.8 5.8 75.75 3.85 75.75 -0.6 85.35 -4.85 75.75 -7.15 75.75 -7.15 70.8 -6.15 70.8 -6.15 68.3 -6.15 64.1 -3.95 64.1 -4.0 -73.75 -5.65 -73.75 -5.65 -85.45 -12.7 -85.8 Q-12.0 -87.75 -11.95 -89.5 -11.85 -93.75 -16.1 -96.45 -18.15 -97.7 -21.1 -98.65 -23.8 -99.5 -27.1 -99.75 L-35.45 -99.5 Q-44.2 -98.55 -55.75 -94.65 -40.3 -111.95 -6.9 -110.65 L-6.9 -110.6 -5.65 -110.6 3.6 -110.6 M-35.45 -99.5 L-27.1 -99.75 M-5.65 -85.45 L-5.65 -110.6 M4.7 70.8 L-6.1 70.8 -6.15 70.8 M-6.1 70.8 L-6.15 68.3 M-5.2 -125.7 L2.45 -125.7 M-5.95 -120.75 L3.55 -120.75 M2.05 -73.75 L-3.65 -73.75 M2.1 64.1 L-3.95 64.1 M3.85 75.75 L-4.85 75.75 M-5.95 -115.5 L3.55 -115.5" fill="none" stroke="#000000" stroke-linecap="round" stroke-linejoin="round" stroke-width="1.5"/>
  </g>
  <defs>
    <linearGradient gradientTransform="matrix(0.0791, 0.0477, -0.0175, 0.0291, 42.9, -67.6)" gradientUnits="userSpaceOnUse" id="gradient0" spreadMethod="pad" x1="-819.2" x2="819.2">
      <stop offset="0.0" stop-color="#bdbdbd"/>
      <stop offset="1.0" stop-color="#f5f5f5"/>
    </linearGradient>
  </defs>
</svg>
