<?xml version="1.0" encoding="UTF-8" standalone="no"?>
<svg xmlns:xlink="http://www.w3.org/1999/xlink" height="168.2px" width="26.9px" xmlns="http://www.w3.org/2000/svg">
  <g transform="matrix(1.0, 0.0, 0.0, 1.0, 15.3, 137.55)">
    <path d="M1.6 -9.6 L1.6 24.8 -4.6 24.8 -4.6 -9.6 1.6 -9.6" fill="#2c2c2c" fill-rule="evenodd" stroke="none"/>
    <path d="M-7.45 -20.55 L-7.45 -136.8 Q2.55 -126.75 4.85 -115.6 L4.85 -20.55 -7.45 -20.55" fill="url(#gradient0)" fill-rule="evenodd" stroke="none"/>
    <path d="M4.85 -20.55 L5.7 -20.55 5.7 -16.25 7.55 -16.25 10.85 -15.15 9.15 -11.7 3.85 -11.7 3.85 -9.6 1.6 -9.6 1.6 24.8 2.2 24.8 2.2 29.9 -5.55 29.9 -5.55 24.8 -4.6 24.8 -4.6 -9.6 -6.7 -9.6 -6.7 -11.7 -12.2 -11.7 -14.55 -15.1 -11.45 -16.25 -8.55 -16.25 -8.55 -20.55 -7.45 -20.55 -7.45 -136.8 Q2.55 -126.75 4.85 -115.6 L4.85 -20.55 -7.45 -20.55 M1.6 -9.6 L-4.6 -9.6 M1.6 24.8 L-4.6 24.8" fill="none" stroke="#000000" stroke-linecap="round" stroke-linejoin="round" stroke-width="1.5"/>
    <path d="M3.85 -11.7 L-6.7 -11.7 M-8.55 -16.25 L5.7 -16.25" fill="none" stroke="#000000" stroke-linecap="round" stroke-linejoin="round" stroke-width="1.0"/>
  </g>
  <defs>
    <linearGradient gradientTransform="matrix(0.0, -0.0646, 0.0075, 0.0, -1.3, -75.95)" gradientUnits="userSpaceOnUse" id="gradient0" spreadMethod="pad" x1="-819.2" x2="819.2">
      <stop offset="0.043137254901960784" stop-color="#000000" stop-opacity="0.24705882"/>
      <stop offset="1.0" stop-color="#000000" stop-opacity="0.0"/>
    </linearGradient>
  </defs>
</svg>
