<?xml version="1.0" encoding="UTF-8" standalone="no"?>
<svg xmlns:xlink="http://www.w3.org/1999/xlink" height="175.9px" width="43.35px" xmlns="http://www.w3.org/2000/svg">
  <g transform="matrix(1.0, 0.0, 0.0, 1.0, 23.1, 148.55)">
    <path d="M3.45 -14.0 L3.45 22.0 -2.7 22.35 -5.3 22.0 -5.3 -10.9 -2.8 -11.6 2.3 -14.2 3.45 -14.0 M-0.85 -4.0 L1.8 -7.9 -0.85 -11.55 -3.55 -7.65 -0.85 -4.0 M-0.85 12.45 L1.8 8.6 -0.85 4.95 -3.55 8.8 -0.85 12.45 M-3.55 17.0 L-0.85 20.55 1.8 16.75 -0.85 12.95 -3.55 17.0 M-3.55 0.45 L-0.85 4.05 1.8 0.2 -0.85 -3.5 -3.55 0.45" fill="#333333" fill-rule="evenodd" stroke="none"/>
    <path d="M-5.8 -22.45 L-5.8 -147.8 Q7.9 -133.9 8.25 -115.15 5.45 -124.0 3.65 -121.85 2.75 -118.3 2.8 -110.45 3.35 -100.4 6.1 -99.95 7.9 -101.45 8.75 -106.85 13.6 -90.45 11.8 -76.35 8.0 -87.05 4.75 -85.2 2.75 -75.9 14.55 -63.8 8.3 -63.95 4.6 -68.9 L4.6 -52.75 Q4.85 -49.25 6.8 -50.7 9.1 -52.3 8.3 -60.0 14.3 -52.45 12.25 -44.1 8.0 -36.4 16.8 -29.45 7.25 -30.1 4.45 -36.25 L4.45 -25.3 3.2 -24.5 1.95 -23.6 -0.15 -21.5 -0.3 -21.35 -1.2 -21.35 -1.5 -21.35 -4.6 -22.05 -5.8 -22.45" fill="url(#gradient0)" fill-rule="evenodd" stroke="none"/>
    <path d="M-5.8 -22.45 L-5.8 -147.8 Q7.9 -133.9 8.25 -115.15 5.45 -124.0 3.65 -121.85 2.75 -118.3 2.8 -110.45 3.35 -100.4 6.1 -99.95 7.9 -101.45 8.75 -106.85 13.6 -90.45 11.8 -76.35 8.0 -87.05 4.75 -85.2 2.75 -75.9 14.55 -63.8 8.3 -63.95 4.6 -68.9 L4.6 -52.75 Q4.85 -49.25 6.8 -50.7 9.1 -52.3 8.3 -60.0 14.3 -52.45 12.25 -44.1 8.0 -36.4 16.8 -29.45 7.25 -30.1 4.45 -36.25 L4.45 -25.3 Q11.8 -29.75 19.5 -25.85 12.7 -26.2 6.25 -19.0 13.55 -16.8 18.05 -8.1 L18.65 -6.9 Q11.8 -12.2 3.45 -14.0 L3.45 22.0 3.45 24.95 Q2.6 26.35 -1.0 26.6 -4.7 26.6 -5.3 25.15 L-5.3 22.0 -5.3 -10.9 -6.0 -10.75 Q-18.9 -8.5 -22.35 -19.5 -15.75 -15.05 -9.0 -16.2 L-8.6 -16.3 Q-10.45 -16.75 -13.5 -20.6 -17.2 -25.65 -16.25 -34.1 -13.8 -27.55 -8.8 -23.9 L-5.8 -22.45 -4.6 -22.05 -1.5 -21.35 -1.2 -21.35 -0.3 -21.35 -0.15 -21.5 1.95 -23.6 3.2 -24.5 4.45 -25.3 M2.3 -14.2 L3.4 -15.65 3.45 -15.7 5.5 -18.25 6.25 -19.0 M3.45 -14.0 L2.3 -14.2 -2.8 -11.6 -5.3 -10.9 M-0.3 -21.35 L-1.2 -20.35 -1.9 -19.7 -1.95 -19.65 -2.35 -19.3 -3.6 -18.45 Q-5.9 -16.95 -8.6 -16.3 M-0.85 -4.0 L1.8 -7.9 -0.85 -11.55 -3.55 -7.65 -0.85 -4.0 M3.45 22.0 L-2.7 22.35 -5.3 22.0 M-0.85 12.45 L1.8 8.6 -0.85 4.95 -3.55 8.8 -0.85 12.45 M-3.55 0.45 L-0.85 -3.5 1.8 0.2 -0.85 4.05 -3.55 0.45 M-3.55 17.0 L-0.85 12.95 1.8 16.75 -0.85 20.55 -3.55 17.0" fill="none" stroke="#000000" stroke-linecap="round" stroke-linejoin="round" stroke-width="1.5"/>
  </g>
  <defs>
    <linearGradient gradientTransform="matrix(0.0, -0.0579, 0.0138, 0.0, 5.45, -75.05)" gradientUnits="userSpaceOnUse" id="gradient0" spreadMethod="pad" x1="-819.2" x2="819.2">
      <stop offset="0.043137254901960784" stop-color="#000000" stop-opacity="0.24705882"/>
      <stop offset="1.0" stop-color="#000000" stop-opacity="0.0"/>
    </linearGradient>
  </defs>
</svg>
