<?xml version="1.0" encoding="UTF-8" standalone="no"?>
<svg xmlns:xlink="http://www.w3.org/1999/xlink" height="96.65px" width="92.05px" xmlns="http://www.w3.org/2000/svg">
  <g transform="matrix(1.0, 0.0, 0.0, 1.0, 17.8, 54.15)">
    <path d="M29.95 -35.45 Q41.55 -35.45 49.75 -27.25 57.95 -19.05 57.95 -7.45 57.95 4.15 49.75 12.35 41.55 20.55 29.95 20.55 18.35 20.55 10.15 12.35 1.95 4.15 1.95 -7.45 1.95 -19.05 10.15 -27.25 18.35 -35.45 29.95 -35.45 M15.7 -40.25 Q16.85 -46.85 13.95 -53.4 11.75 -41.9 3.4 -31.25 -1.8 -25.55 -4.05 -18.65 -9.95 -23.0 -17.05 -23.8 -10.3 -17.9 -5.75 -9.15 L-5.8 -7.35 Q-5.8 5.6 2.3 15.3 -5.1 16.1 -10.7 20.6 1.0 19.8 13.1 24.3 16.55 26.15 20.4 27.2 L21.8 27.5 30.0 28.4 Q35.15 28.4 39.75 27.15 36.25 34.65 37.35 41.75 42.4 31.3 55.35 17.95 L55.6 17.65 Q59.4 13.75 61.8 9.3 66.9 16.2 73.5 18.8 67.35 9.7 65.55 -2.65 L65.8 -7.35 Q65.8 -20.8 57.15 -30.7 63.65 -31.35 69.2 -35.8 57.5 -35.0 45.15 -39.9 38.25 -43.15 30.0 -43.15 22.25 -43.15 15.7 -40.25" fill="none" stroke="#000000" stroke-linecap="round" stroke-linejoin="round" stroke-width="1.5"/>
  </g>
</svg>
