<?xml version="1.0" encoding="UTF-8" standalone="no"?>
<svg xmlns:xlink="http://www.w3.org/1999/xlink" height="80.4px" width="61.05px" xmlns="http://www.w3.org/2000/svg">
  <g transform="matrix(1.0, 0.0, 0.0, 1.0, 11.0, 39.15)">
    <path d="M29.65 25.9 Q35.75 19.15 34.0 10.8 28.85 -3.1 29.4 -13.85 28.55 -25.55 18.2 -30.7 L15.0 -30.55 Q1.15 -29.45 -6.7 -31.15 L-9.4 -31.8 Q1.25 -37.15 19.35 -37.75 35.55 -40.0 41.15 -34.35 40.4 -34.0 41.55 -34.0 38.55 -18.55 40.8 -9.8 43.0 -1.05 46.75 6.25 50.4 13.7 48.8 17.0 45.35 17.65 41.0 19.6 36.6 21.55 31.6 24.65 L29.65 25.9 31.6 24.65 Q36.6 21.55 41.0 19.6 45.35 17.65 48.8 17.0 L48.3 17.4 44.95 19.85 47.6 18.25 Q41.35 24.95 31.15 30.55 18.95 38.65 11.5 40.5 L11.3 40.1 12.1 39.4 18.3 33.95 Q23.15 30.25 29.65 25.9 M40.75 -33.65 L41.55 -34.0 40.75 -33.65 Q31.6 -31.35 18.2 -30.7 31.6 -31.35 40.75 -33.65 32.8 -37.4 22.45 -36.0 5.0 -35.3 -6.7 -31.15 5.0 -35.3 22.45 -36.0 32.8 -37.4 40.75 -33.65 M44.95 19.85 L31.25 28.35 30.9 28.5 Q18.8 36.0 12.1 39.4 18.8 36.0 30.9 28.5 L31.25 28.35 44.95 19.85" fill="#000000" fill-opacity="0.24705882" fill-rule="evenodd" stroke="none"/>
    <path d="M-9.4 -31.8 Q-13.4 -32.25 1.5 8.0 7.3 23.6 11.3 40.1 L11.5 40.5 Q18.95 38.65 31.15 30.55 41.35 24.95 47.6 18.25 L48.3 17.4 48.8 17.0 Q50.4 13.7 46.75 6.25 43.0 -1.05 40.8 -9.8 38.55 -18.55 41.55 -34.0 L40.75 -33.65 M41.15 -34.35 Q40.4 -34.0 41.55 -34.0 L41.15 -34.35 Q35.55 -40.0 19.35 -37.75 1.25 -37.15 -9.4 -31.8" fill="none" stroke="#000000" stroke-linecap="round" stroke-linejoin="round" stroke-width="1.5"/>
    <path d="M18.2 -30.7 L15.0 -30.55 Q1.15 -29.45 -6.7 -31.15 L-9.4 -31.8 M11.3 40.1 L12.1 39.4 18.3 33.95 Q23.15 30.25 29.65 25.9 L31.6 24.65 Q36.6 21.55 41.0 19.6 45.35 17.65 48.8 17.0 M40.75 -33.65 Q31.6 -31.35 18.2 -30.7 M40.75 -33.65 Q32.8 -37.4 22.45 -36.0 5.0 -35.3 -6.7 -31.15 M44.95 19.85 L47.6 18.25 M12.1 39.4 Q18.8 36.0 30.9 28.5 L31.25 28.35 44.95 19.85" fill="none" stroke="#000000" stroke-linecap="round" stroke-linejoin="round" stroke-opacity="0.5294118" stroke-width="1.0"/>
  </g>
</svg>
