<?xml version="1.0" encoding="UTF-8" standalone="no"?>
<svg xmlns:xlink="http://www.w3.org/1999/xlink" height="84.9px" width="12.75px" xmlns="http://www.w3.org/2000/svg">
  <g transform="matrix(1.0, 0.0, 0.0, 1.0, 7.8, 57.4)">
    <path d="M3.3 -13.2 L3.3 -6.25 3.2 -0.05 3.25 4.5 3.25 10.4 -4.85 17.9 -4.85 11.55 -4.9 7.1 -4.85 0.6 -4.9 -7.5 3.3 -13.2 M-4.85 11.55 L3.25 4.5 -4.85 11.55 M-4.9 7.1 L3.2 -0.05 -4.9 7.1 M3.3 -6.25 L-4.85 0.6 3.3 -6.25" fill="#4d4d4d" fill-rule="evenodd" stroke="none"/>
    <path d="M3.3 -13.2 L3.3 -6.25 3.2 -0.05 3.25 4.5 3.25 10.4 3.25 17.6 -6.15 26.75 -5.75 18.95 -4.85 17.9 -4.85 11.55 -4.9 7.1 -4.85 0.6 -4.9 -7.5 -5.65 -6.95 -5.65 -9.85 -6.8 -11.55 -7.0 -11.5 -6.9 -12.25 -6.9 -12.4 -6.9 -12.55 -6.9 -49.9 -7.05 -54.0 -7.05 -56.65 -7.0 -56.65 -0.15 -50.45 -0.1 -20.3 4.1 -23.6 4.15 -22.4 4.15 -19.55 4.2 -16.75 4.2 -13.85 3.3 -13.2 -4.9 -7.5 M-6.8 -11.55 L4.15 -19.55 M3.2 -0.05 L-4.9 7.1 M3.25 4.5 L-4.85 11.55 M-4.85 0.6 L3.3 -6.25 M3.25 10.4 L-4.85 17.9" fill="none" stroke="#000000" stroke-linecap="round" stroke-linejoin="round" stroke-width="1.5"/>
    <path d="M-6.9 -49.9 L-3.15 -46.15 -3.15 -14.7 M4.2 -16.75 L-4.45 -10.75" fill="none" stroke="#000000" stroke-linecap="round" stroke-linejoin="round" stroke-opacity="0.5294118" stroke-width="1.0"/>
  </g>
</svg>
