<?xml version="1.0" encoding="UTF-8" standalone="no"?>
<svg xmlns:xlink="http://www.w3.org/1999/xlink" height="185.1px" width="92.95px" xmlns="http://www.w3.org/2000/svg">
  <g transform="matrix(1.0, 0.0, 0.0, 1.0, 46.8, 119.05)">
    <path d="M10.8 -83.5 L18.9 -90.9 Q21.2 -92.75 24.95 -91.5 L25.5 -91.25 Q32.2 -88.45 39.85 -88.35 L40.5 -88.2 Q44.75 -88.05 45.4 -87.1 42.9 -83.45 33.65 -83.5 36.3 -82.05 38.6 -81.2 L37.9 -81.0 Q32.8 -79.65 26.95 -81.95 29.0 -79.25 30.05 -76.55 25.3 -74.95 20.2 -78.6 20.95 -76.05 20.85 -73.7 L20.5 -73.75 Q17.35 -74.1 14.05 -77.7 13.15 -75.15 12.1 -74.15 L9.15 -78.2 9.4 -79.6 Q9.9 -79.15 10.7 -79.15 L10.75 -79.2 Q11.75 -79.15 12.4 -79.7 13.05 -80.35 13.05 -81.3 13.1 -82.2 12.4 -82.8 11.75 -83.5 10.8 -83.5 M-9.7 -78.25 L-12.65 -74.1 Q-13.75 -75.15 -14.65 -77.7 -17.9 -74.1 -21.15 -73.75 L-21.4 -73.75 Q-21.55 -76.05 -20.75 -78.65 -25.9 -74.95 -30.7 -76.45 -29.7 -79.15 -27.6 -81.85 -33.5 -79.6 -38.5 -81.0 L-39.2 -81.2 Q-36.85 -82.05 -34.3 -83.45 -43.55 -83.45 -46.05 -87.05 -45.45 -87.95 -41.1 -88.25 L-40.55 -88.35 Q-32.85 -88.4 -26.1 -91.25 L-25.65 -91.5 Q-21.8 -92.75 -19.5 -90.85 L-11.45 -83.45 Q-12.35 -83.45 -13.05 -82.8 -13.6 -82.25 -13.65 -81.25 -13.65 -80.35 -13.0 -79.7 -12.4 -79.1 -11.45 -79.1 L-11.35 -79.1 Q-10.55 -79.15 -9.95 -79.7 L-9.9 -79.75 Q-10.0 -78.85 -9.7 -78.25 M29.55 -85.85 L30.95 -85.0 Q32.35 -84.15 33.65 -83.5 32.35 -84.15 30.95 -85.0 L29.55 -85.85 M24.7 -84.3 L25.4 -83.65 26.95 -81.95 25.4 -83.65 24.7 -84.3 M19.55 -80.35 L20.2 -78.6 19.55 -80.35 M14.45 -78.75 L14.05 -77.7 14.45 -78.75 M-15.1 -78.8 L-14.65 -77.7 -15.1 -78.8 M-25.4 -84.35 L-26.05 -83.65 -27.6 -81.85 -26.05 -83.65 -25.4 -84.35 M-30.15 -85.8 L-31.55 -84.95 -34.3 -83.45 -31.55 -84.95 -30.15 -85.8 M-20.15 -80.4 L-20.75 -78.65 -20.15 -80.4" fill="#fcfcfc" fill-rule="evenodd" stroke="none"/>
    <path d="M17.65 -100.55 Q17.7 -93.2 12.4 -88.0 7.65 -83.15 0.95 -82.85 L-0.8 -82.85 Q-7.7 -83.1 -12.6 -87.95 -17.75 -93.2 -17.8 -100.5 -17.8 -107.85 -12.6 -112.95 -7.4 -118.2 -0.1 -118.3 7.3 -118.25 12.4 -113.05 17.65 -107.9 17.65 -100.55" fill="url(#gradient0)" fill-rule="evenodd" stroke="none"/>
    <path d="M17.65 -100.55 Q17.7 -93.2 12.4 -88.0 7.65 -83.15 0.95 -82.85 L-0.8 -82.85 Q-7.7 -83.1 -12.6 -87.95 -17.75 -93.2 -17.8 -100.5 -17.8 -107.85 -12.6 -112.95 -7.4 -118.2 -0.1 -118.3 7.3 -118.25 12.4 -113.05 17.65 -107.9 17.65 -100.55 M9.15 -78.2 Q8.95 -77.65 7.95 -77.5 6.3 -73.85 7.0 -68.7 8.65 -68.6 8.5 -67.7 8.1 -65.25 4.5 -66.2 5.4 -64.85 3.65 -63.35 4.5 -61.3 3.45 -60.0 L3.5 47.3 Q4.5 49.05 2.9 50.15 L2.9 51.7 Q5.55 52.3 5.7 54.55 5.85 61.3 -0.25 65.3 -2.55 64.15 -4.4 61.35 -6.25 58.5 -6.35 54.45 -6.15 52.3 -3.5 51.6 L-3.5 50.0 Q-5.05 49.05 -4.0 47.3 L-4.05 -60.0 Q-5.05 -61.45 -4.35 -63.3 -6.0 -64.85 -5.2 -66.25 -8.65 -65.25 -9.15 -67.7 -9.3 -68.55 -7.6 -68.7 -6.9 -73.85 -8.55 -77.4 -9.5 -77.6 -9.7 -78.25 -10.0 -78.85 -9.9 -79.75 L-9.95 -79.7 Q-10.55 -79.15 -11.35 -79.1 L-11.45 -79.1 Q-12.4 -79.1 -13.0 -79.7 -13.65 -80.35 -13.65 -81.25 -13.6 -82.25 -13.05 -82.8 -12.35 -83.45 -11.45 -83.45 -10.6 -83.45 -9.95 -82.8 -9.3 -82.15 -9.3 -81.3 L-9.3 -80.8 Q-8.95 -81.0 -8.15 -80.8 -6.8 -80.3 -5.35 -81.65 L-3.6 -82.25 -2.45 -82.5 -1.7 -82.5 -0.7 -82.5 -0.25 -82.4 Q2.2 -82.9 4.75 -81.6 6.15 -80.35 7.8 -81.0 L8.75 -81.15 8.7 -81.3 Q8.75 -82.2 9.4 -82.8 9.9 -83.5 10.8 -83.5 11.75 -83.5 12.4 -82.8 13.1 -82.2 13.05 -81.3 13.05 -80.35 12.4 -79.7 11.75 -79.15 10.75 -79.2 L10.7 -79.15 Q9.9 -79.15 9.4 -79.6 L9.15 -78.2 M-8.55 -77.4 L-7.8 -77.4 Q-5.9 -77.45 -4.0 -78.75 L-3.65 -78.9 Q-1.95 -80.0 -0.35 -80.05 1.35 -80.0 2.95 -78.95 L3.4 -78.8 Q5.3 -77.5 7.25 -77.4 L7.95 -77.5 M9.4 -79.6 L9.3 -79.65 Q8.75 -80.35 8.75 -81.15 M7.0 -68.7 L5.65 -68.7 Q4.7 -68.45 3.3 -70.1 1.25 -71.0 -0.3 -70.55 -1.9 -71.1 -3.95 -70.0 -5.35 -68.45 -6.3 -68.65 L-7.6 -68.7 M-9.9 -79.75 L-9.85 -80.0 Q-9.75 -80.65 -9.3 -80.8 L-9.9 -79.75 M3.65 -63.35 Q1.9 -64.85 -0.3 -64.65 L-2.4 -64.45 -4.35 -63.3 M4.5 -66.2 Q2.85 -67.8 -0.35 -67.85 L-3.2 -67.35 Q-4.3 -66.95 -5.2 -66.25 M-4.05 -60.0 Q-3.05 -60.75 -2.1 -61.0 L-0.35 -61.1 Q1.6 -61.35 3.45 -60.0 M-3.5 51.6 Q-3.3 53.05 -2.45 54.55 -1.65 56.0 -0.4 56.9 2.1 55.65 2.9 51.7 M2.9 50.15 Q1.9 50.95 -0.3 50.75 L-2.05 50.65 Q-2.95 50.55 -3.5 50.0" fill="none" stroke="#000000" stroke-linecap="round" stroke-linejoin="round" stroke-width="1.5"/>
    <path d="M10.8 -83.5 L18.9 -90.9 Q21.2 -92.75 24.95 -91.5 L25.5 -91.25 Q32.2 -88.45 39.85 -88.35 L40.5 -88.2 Q44.75 -88.05 45.4 -87.1 42.9 -83.45 33.65 -83.5 36.3 -82.05 38.6 -81.2 L37.9 -81.0 Q32.8 -79.65 26.95 -81.95 29.0 -79.25 30.05 -76.55 25.3 -74.95 20.2 -78.6 20.95 -76.05 20.85 -73.7 L20.5 -73.75 Q17.35 -74.1 14.05 -77.7 13.15 -75.15 12.1 -74.15 L9.15 -78.2 M-9.7 -78.25 L-12.65 -74.1 Q-13.75 -75.15 -14.65 -77.7 -17.9 -74.1 -21.15 -73.75 L-21.4 -73.75 Q-21.55 -76.05 -20.75 -78.65 -25.9 -74.95 -30.7 -76.45 -29.7 -79.15 -27.6 -81.85 -33.5 -79.6 -38.5 -81.0 L-39.2 -81.2 Q-36.85 -82.05 -34.3 -83.45 -43.55 -83.45 -46.05 -87.05 -45.45 -87.95 -41.1 -88.25 L-40.55 -88.35 Q-32.85 -88.4 -26.1 -91.25 L-25.65 -91.5 Q-21.8 -92.75 -19.5 -90.85 L-11.45 -83.45 M26.95 -81.95 L25.4 -83.65 24.7 -84.3 M33.65 -83.5 Q32.35 -84.15 30.95 -85.0 L29.55 -85.85 M14.05 -77.7 L14.45 -78.75 M20.2 -78.6 L19.55 -80.35 M-14.65 -77.7 L-15.1 -78.8 M-34.3 -83.45 L-31.55 -84.95 -30.15 -85.8 M-27.6 -81.85 L-26.05 -83.65 -25.4 -84.35 M-20.75 -78.65 L-20.15 -80.4" fill="none" stroke="#858585" stroke-linecap="round" stroke-linejoin="round" stroke-width="1.5"/>
  </g>
  <defs>
    <radialGradient cx="0" cy="0" gradientTransform="matrix(0.0374, 0.0, 0.0, 0.0374, -6.4, -111.0)" gradientUnits="userSpaceOnUse" id="gradient0" r="819.2" spreadMethod="pad">
      <stop offset="0.10980392156862745" stop-color="#ffffff" stop-opacity="0.4392157"/>
      <stop offset="1.0" stop-color="#ffffff" stop-opacity="0.0"/>
    </radialGradient>
  </defs>
</svg>
