<?xml version="1.0" encoding="UTF-8" standalone="no"?>
<svg xmlns:xlink="http://www.w3.org/1999/xlink" height="239.95px" width="30.65px" xmlns="http://www.w3.org/2000/svg">
  <g transform="matrix(1.0, 0.0, 0.0, 1.0, 17.4, 159.5)">
    <path d="M0.7 -87.75 L0.0 -87.75 -1.55 -87.6 -3.4 -87.35 Q-8.6 -123.85 -16.2 -155.5 0.6 -143.2 5.75 -123.8 5.15 -103.65 0.7 -87.75" fill="url(#gradient0)" fill-rule="evenodd" stroke="none"/>
    <path d="M3.1 -87.8 L3.05 -87.8 0.7 -87.75 Q5.15 -103.65 5.75 -123.8 0.6 -143.2 -16.2 -155.5 L-16.4 -156.2 Q-17.4 -160.25 -14.5 -157.85 5.05 -144.55 8.85 -124.45 9.25 -112.45 3.1 -87.8" fill="#ffffff" fill-rule="evenodd" stroke="none"/>
    <path d="M0.7 -87.75 L0.0 -87.75 -1.55 -87.6 -3.4 -87.35 -3.5 -87.35 -4.6 -86.4 Q-5.65 -84.95 -3.95 -83.0 -3.4 -82.3 -2.65 -82.05 L-2.15 -81.95 Q-0.75 -81.7 1.1 -82.7 L1.3 -82.8 Q2.65 -7.85 0.3 68.75 L1.95 68.75 Q5.7 71.15 1.4 73.5 L1.15 73.2 Q0.05 72.0 -1.65 71.85 -3.25 71.8 -4.45 72.8 L-4.9 73.4 Q-5.75 74.25 -5.85 75.5 -5.85 77.2 -4.75 78.4 -3.65 79.65 -2.1 79.7 -0.45 79.85 0.75 78.7 2.0 77.7 2.0 76.05 2.15 74.75 1.4 73.5 M3.1 -87.8 L3.05 -87.8 0.7 -87.75 M-16.2 -155.5 Q-8.6 -123.85 -3.4 -87.35 M-16.2 -155.5 L-16.4 -156.2 Q-17.4 -160.25 -14.5 -157.85 5.05 -144.55 8.85 -124.45 9.25 -112.45 3.1 -87.8 M-4.9 73.4 Q-9.5 71.55 -5.45 68.75 L-3.55 68.75 Q-0.25 -5.8 -2.65 -82.05 M-3.55 68.75 L0.3 68.75" fill="none" stroke="#000000" stroke-linecap="round" stroke-linejoin="round" stroke-width="1.5"/>
    <path d="M1.3 -82.8 L2.35 -83.4 Q1.9 -78.6 6.7 -75.45 L4.7 -80.85 7.45 -77.65 8.8 -79.3 5.65 -82.5 M3.1 -87.8 Q4.75 -87.8 6.95 -86.5 9.75 -84.45 12.75 -84.4 L10.75 -81.85 8.8 -79.3 M10.75 -81.85 L6.85 -83.95" fill="none" stroke="#000000" stroke-linecap="round" stroke-linejoin="round" stroke-width="1.0"/>
  </g>
  <defs>
    <linearGradient gradientTransform="matrix(-0.0231, -0.0523, 0.0135, -0.006, -12.6, -137.15)" gradientUnits="userSpaceOnUse" id="gradient0" spreadMethod="pad" x1="-819.2" x2="819.2">
      <stop offset="0.0" stop-color="#abb2b6"/>
      <stop offset="1.0" stop-color="#e3e6ec"/>
    </linearGradient>
  </defs>
</svg>
