<?xml version="1.0" encoding="UTF-8" standalone="no"?>
<svg xmlns:xlink="http://www.w3.org/1999/xlink" height="168.9px" width="74.4px" xmlns="http://www.w3.org/2000/svg">
  <g transform="matrix(1.0, 0.0, 0.0, 1.0, 37.55, 125.25)">
    <path d="M2.6 -46.35 L2.55 41.5 Q2.4 42.5 -0.05 42.85 L-1.4 42.9 Q-4.45 42.65 -4.9 41.45 L-4.75 -46.25 -3.65 -45.95 -3.6 -45.95 -3.45 -45.9 -3.05 -45.9 -2.6 -45.95 -2.65 -45.9 -1.75 -46.15 -1.3 -46.1 -1.2 -46.05 0.8 -45.85 Q1.75 -45.9 2.4 -46.25 L2.6 -46.35" fill="#f3f8ff" fill-rule="evenodd" stroke="none"/>
    <path d="M6.2 -99.85 Q8.7 -104.3 7.2 -109.8 L5.85 -113.1 M23.05 -116.1 Q23.3 -113.85 22.95 -111.8 22.45 -108.3 19.8 -105.65 M24.4 -93.35 Q29.05 -94.05 31.65 -97.2 32.95 -98.8 33.8 -100.85 M24.25 -94.6 Q22.9 -93.45 21.45 -92.75 17.0 -90.55 11.35 -92.7 M23.7 -84.9 Q28.15 -82.1 32.65 -81.65 L35.35 -81.6 M18.3 -75.5 Q17.0 -75.9 15.75 -76.6 8.9 -80.0 8.6 -86.25 M10.65 -60.3 Q11.95 -58.9 14.1 -58.4 M16.4 -74.15 Q17.8 -69.15 21.35 -66.25 M-5.6 -124.2 L-2.2 -123.1 Q4.75 -120.2 8.05 -112.5 M-30.15 -109.2 Q-21.45 -113.5 -11.4 -111.25 M-0.95 -71.9 Q-3.4 -66.1 -0.25 -61.15 L0.85 -59.7 M-7.6 -97.0 L-7.9 -97.3 M-10.2 -57.15 Q-12.5 -60.3 -13.75 -64.65 M-11.65 -85.65 Q-20.9 -80.0 -19.6 -70.4 M-24.25 -81.35 Q-28.05 -71.75 -25.5 -61.95 M-21.5 -100.75 Q-32.45 -95.0 -36.6 -86.0 M-8.2 -97.55 Q-14.4 -102.45 -23.1 -97.15" fill="none" stroke="#ffffff" stroke-linecap="round" stroke-linejoin="round" stroke-width="1.5"/>
    <path d="M-22.9 -59.65 Q-17.5 -59.4 -12.2 -57.8 L-10.2 -57.15 Q-6.65 -55.85 -5.1 -54.15 L-4.85 -54.0 -4.35 -54.35 -2.2 -54.9 -2.05 -54.9 -1.05 -55.0 -0.2 -55.0 -0.1 -54.9 -0.05 -54.9 0.15 -54.9 0.45 -54.8 Q1.85 -54.6 2.95 -53.65 L3.6 -53.0 Q7.25 -56.5 13.7 -57.85 L14.1 -58.4 17.75 -62.05 21.3 -66.25 21.35 -66.25 21.7 -66.8 Q24.65 -70.8 26.5 -74.95 26.55 -72.85 27.15 -71.35 27.85 -69.75 29.1 -68.75 L29.95 -68.15 Q31.55 -67.35 33.9 -67.25 28.45 -62.95 22.0 -58.8 L21.65 -58.6 21.1 -58.15 21.2 -58.15 23.7 -57.8 Q25.95 -57.15 26.6 -55.65 27.05 -54.7 26.75 -53.3 26.5 -52.2 25.7 -50.65 L25.3 -49.9 25.7 -50.65 Q26.5 -52.2 26.75 -53.3 27.05 -54.7 26.6 -55.65 25.95 -57.15 23.7 -57.8 L35.3 -63.1 Q30.5 -54.55 36.1 -54.25 30.7 -51.75 25.3 -49.9 L25.15 -49.7 25.65 -48.15 Q26.2 -46.1 26.1 -44.6 L26.1 -44.15 Q25.85 -42.9 25.1 -42.1 23.95 -40.85 21.6 -40.8 L21.5 -40.8 21.35 -40.8 21.25 -40.85 21.05 -40.8 Q13.45 -40.45 6.85 -44.9 L4.35 -46.95 Q3.9 -47.2 3.6 -47.55 L3.75 -47.75 4.25 -48.95 4.35 -49.7 4.35 -50.55 4.35 -51.15 4.3 -51.55 4.35 -51.15 4.35 -50.55 4.35 -49.7 4.25 -48.95 3.75 -47.75 3.6 -47.55 3.3 -46.95 2.6 -46.35 2.4 -46.25 Q1.75 -45.9 0.8 -45.85 L-1.2 -46.05 -1.3 -46.1 -1.75 -46.15 -1.8 -46.25 -1.75 -46.35 -1.8 -46.6 -1.8 -46.8 -1.7 -47.65 -1.6 -48.2 -1.4 -49.1 -1.2 -49.95 -1.4 -49.1 -1.6 -48.2 -1.7 -47.65 -1.8 -46.8 -1.8 -46.6 -1.75 -46.35 -1.8 -46.25 -1.75 -46.15 -1.3 -46.1 -1.2 -46.05 0.8 -45.85 Q1.75 -45.9 2.4 -46.25 L2.6 -46.35 2.55 41.5 Q2.4 42.5 -0.05 42.85 L-1.4 42.9 Q-4.45 42.65 -4.9 41.45 L-4.75 -46.25 -5.0 -46.35 -5.05 -46.35 -5.85 -46.95 Q-10.45 -43.25 -19.45 -40.8 -26.2 -39.15 -28.9 -41.95 -29.7 -42.9 -30.2 -44.15 -30.35 -47.35 -29.0 -49.45 L-28.2 -50.55 -29.25 -52.05 Q-30.35 -54.25 -29.7 -57.2 -28.5 -60.0 -23.0 -59.7 L-22.9 -59.65 M3.6 -53.0 L3.85 -52.75 4.3 -51.55 5.85 -51.6 10.4 -52.05 11.2 -52.1 Q20.45 -53.25 21.7 -55.45 L19.65 -56.0 17.6 -56.05 16.8 -56.0 10.05 -54.85 3.6 -53.0 M13.7 -57.85 L18.4 -58.15 20.7 -58.15 21.1 -58.15 20.7 -58.15 18.4 -58.15 13.7 -57.85 M1.55 -49.05 L1.7 -49.35 1.35 -52.0 Q0.9 -54.05 -0.05 -54.9 0.9 -54.05 1.35 -52.0 L1.7 -49.35 1.55 -49.05 M-5.4 -53.3 L-5.65 -53.35 -6.85 -53.85 -7.2 -54.0 Q-14.4 -56.65 -18.5 -56.65 -21.05 -56.65 -22.45 -55.6 -21.95 -52.95 -7.25 -52.3 L-6.0 -52.2 -5.85 -52.25 -5.65 -52.85 -5.4 -53.3 -5.35 -53.25 -5.2 -53.55 -4.85 -54.0 -5.2 -53.55 -5.35 -53.25 -5.4 -53.3 M-6.45 -49.35 L-6.55 -49.65 -6.6 -50.15 -6.0 -52.2 -6.6 -50.15 -6.55 -49.65 -6.45 -49.35 M-2.3 -46.0 L-2.6 -45.95 -2.55 -45.95 -2.3 -46.0 -1.75 -46.15 -2.3 -46.0 M-6.55 -48.85 L-6.05 -47.25 -6.05 -47.15 -6.0 -47.15 -5.9 -47.05 -5.9 -47.0 -5.85 -46.95 -5.9 -47.0 -5.9 -47.05 -6.0 -47.15 -6.05 -47.15 -6.05 -47.25 -6.55 -48.85 M-4.75 -46.25 L-3.65 -45.95 -4.75 -46.25" fill="#ffffff" fill-opacity="0.28627452" fill-rule="evenodd" stroke="none"/>
    <path d="M29.1 -68.75 Q31.1 -70.65 32.65 -72.95 34.5 -77.1 35.35 -81.6 35.9 -84.8 36.0 -88.3 35.9 -95.0 33.8 -100.85 31.15 -108.15 25.25 -113.85 L23.05 -116.1 Q13.0 -124.55 -0.4 -124.5 L-5.6 -124.2 -10.9 -123.1 Q-19.35 -120.65 -26.1 -113.95 L-30.15 -109.2 -30.4 -108.7 -30.45 -108.65 -31.6 -106.95 Q-36.5 -99.15 -36.7 -89.35 L-36.8 -88.95 -36.7 -88.3 -36.6 -86.0 Q-35.9 -72.45 -26.1 -62.65 L-25.5 -61.95 -22.9 -59.65 M17.75 -62.05 L14.45 -61.15 10.65 -60.3 9.15 -60.05 5.25 -59.7 5.2 -59.7 5.05 -59.7 3.7 -59.6 2.4 -59.7 0.85 -59.7 Q-2.95 -59.95 -6.1 -61.1 -10.6 -62.7 -13.75 -64.65 -16.25 -66.1 -17.75 -67.95 L-19.6 -70.4 Q-23.2 -75.6 -24.25 -81.35 -25.15 -85.25 -24.65 -89.45 -24.4 -93.7 -23.1 -97.15 L-21.5 -100.75 Q-19.2 -104.75 -15.6 -107.65 -13.1 -109.6 -10.25 -110.9 -4.15 -113.8 3.75 -113.5 L5.85 -113.1 8.05 -112.5 Q14.25 -110.75 18.1 -107.45 L19.8 -105.65 Q23.6 -101.25 24.25 -94.6 L24.4 -93.35 24.35 -92.75 24.35 -92.55 24.4 -92.2 24.35 -91.05 Q24.35 -88.0 23.7 -85.35 L23.7 -84.95 23.7 -84.9 Q22.35 -78.85 18.3 -75.5 L16.4 -74.15 14.75 -73.35 Q12.5 -72.35 9.8 -71.85 4.25 -70.95 -0.95 -71.9 -6.35 -72.8 -9.85 -78.95 -11.65 -82.05 -11.65 -85.65 -11.7 -89.05 -10.15 -92.85 -9.1 -95.4 -7.6 -97.0 L-6.65 -97.75 -5.7 -98.45 Q-2.95 -100.35 0.95 -99.95 L5.7 -99.05 7.3 -98.4 Q9.5 -97.05 10.25 -94.85 L10.35 -93.95 10.55 -93.05 Q10.65 -90.3 9.2 -87.3 L9.0 -86.85 8.6 -86.25 7.65 -84.8 M29.95 -68.15 Q31.5 -70.5 32.65 -72.95 M2.6 -46.35 L2.55 41.5 Q2.4 42.5 -0.05 42.85 L-1.4 42.9 Q-4.45 42.65 -4.9 41.45 L-4.75 -46.25" fill="none" stroke="#000000" stroke-linecap="round" stroke-linejoin="round" stroke-width="1.5"/>
    <path d="M-22.9 -59.65 Q-17.5 -59.4 -12.2 -57.8 L-10.2 -57.15 Q-6.65 -55.85 -5.1 -54.15 L-4.85 -54.0 -4.35 -54.35 -2.2 -54.9 -2.05 -54.9 -1.05 -55.0 -0.2 -55.0 -0.05 -54.9 0.15 -54.9 0.45 -54.8 Q1.85 -54.6 2.95 -53.65 L3.6 -53.0 Q7.25 -56.5 13.7 -57.85 L14.1 -58.4 17.75 -62.05 21.3 -66.25 21.35 -66.25 21.7 -66.8 Q24.65 -70.8 26.5 -74.95 26.55 -72.85 27.15 -71.35 27.85 -69.75 29.1 -68.75 L29.95 -68.15 Q31.55 -67.35 33.9 -67.25 28.45 -62.95 22.0 -58.8 L21.65 -58.6 21.1 -58.15 20.7 -58.15 18.4 -58.15 13.7 -57.85 M3.6 -53.0 L3.85 -52.75 4.3 -51.55 5.85 -51.6 10.4 -52.05 11.2 -52.1 Q20.45 -53.25 21.7 -55.45 L19.65 -56.0 17.6 -56.05 16.8 -56.0 10.05 -54.85 3.6 -53.0 M4.3 -51.55 L4.35 -51.15 4.35 -50.55 4.35 -49.7 4.25 -48.95 3.75 -47.75 3.6 -47.55 Q3.9 -47.2 4.35 -46.95 L6.85 -44.9 Q13.45 -40.45 21.05 -40.8 L21.25 -40.85 21.35 -40.8 21.5 -40.8 21.6 -40.8 Q23.95 -40.85 25.1 -42.1 25.85 -42.9 26.1 -44.15 L26.1 -44.6 Q26.2 -46.1 25.65 -48.15 L25.15 -49.7 25.3 -49.9 25.7 -50.65 Q26.5 -52.2 26.75 -53.3 27.05 -54.7 26.6 -55.65 25.95 -57.15 23.7 -57.8 L21.2 -58.15 21.1 -58.15 M25.3 -49.9 Q30.7 -51.75 36.1 -54.25 30.5 -54.55 35.3 -63.1 L23.7 -57.8 M2.6 -46.35 L3.3 -46.95 3.6 -47.55 M-1.2 -49.95 L-1.4 -49.1 -1.6 -48.2 -1.7 -47.65 -1.8 -46.8 -1.8 -46.6 -1.75 -46.35 -1.8 -46.25 -1.75 -46.15 -1.3 -46.1 -1.2 -46.05 0.8 -45.85 Q1.75 -45.9 2.4 -46.25 L2.6 -46.35 M-4.75 -46.25 L-5.0 -46.35 -5.05 -46.35 -5.85 -46.95 Q-10.45 -43.25 -19.45 -40.8 -26.2 -39.15 -28.9 -41.95 -29.7 -42.9 -30.2 -44.15 -30.35 -47.35 -29.0 -49.45 L-28.2 -50.55 -29.25 -52.05 Q-30.35 -54.25 -29.7 -57.2 -28.5 -60.0 -23.0 -59.7 L-22.9 -59.65 M-0.05 -54.9 Q0.9 -54.05 1.35 -52.0 L1.7 -49.35 1.55 -49.05 M-5.4 -53.3 L-5.65 -53.35 -6.85 -53.85 -7.2 -54.0 Q-14.4 -56.65 -18.5 -56.65 -21.05 -56.65 -22.45 -55.6 -21.95 -52.95 -7.25 -52.3 L-6.0 -52.2 -5.85 -52.25 -5.65 -52.85 -5.4 -53.3 -5.35 -53.25 -5.2 -53.55 -4.85 -54.0 M-6.0 -52.2 L-6.6 -50.15 -6.55 -49.65 -6.45 -49.35 M-0.05 -54.9 L-0.1 -54.9 -0.2 -55.0 M-2.3 -46.0 L-2.55 -45.95 -2.6 -45.95 -2.3 -46.0 -1.75 -46.15 M-3.65 -45.95 L-4.75 -46.25 M-5.85 -46.95 L-5.9 -47.0 -5.9 -47.05 -6.0 -47.15 -6.05 -47.15 -6.05 -47.25 -6.55 -48.85" fill="none" stroke="#062714" stroke-linecap="round" stroke-linejoin="round" stroke-width="1.5"/>
  </g>
</svg>
