<?xml version="1.0" encoding="UTF-8" standalone="no"?>
<svg xmlns:xlink="http://www.w3.org/1999/xlink" height="111.8px" width="22.9px" xmlns="http://www.w3.org/2000/svg">
  <g transform="matrix(1.0, 0.0, 0.0, 1.0, 9.85, 97.0)">
    <path d="M-3.5 -32.7 Q-5.4 -33.15 -7.0 -41.9 -8.65 -51.15 -9.0 -64.35 -9.4 -77.55 -8.2 -86.85 -7.0 -96.1 -5.0 -96.2 L-4.25 -95.9 Q-3.2 -94.95 -2.2 -91.0 L-1.35 -87.05 Q0.3 -77.8 0.6 -64.55 L0.7 -54.2 0.55 -50.4 -0.15 -42.15 -0.5 -40.05 -0.45 -40.0 -3.5 -32.7" fill="#000000" fill-opacity="0.4392157" fill-rule="evenodd" stroke="none"/>
    <path d="M-4.25 -95.9 L-4.3 -96.25 -1.25 -95.1 Q2.55 -93.1 6.3 -89.15 7.85 -87.4 8.95 -84.45 10.2 -81.6 11.0 -77.35 11.95 -72.05 12.25 -65.85 L12.3 -63.9 Q12.35 -57.75 11.65 -52.35 10.55 -43.9 7.65 -40.45 5.05 -37.35 2.55 -35.4 L2.55 -34.85 2.5 -34.7 2.7 -12.95 3.1 -12.55 3.45 -12.3 3.7 -11.95 4.25 -10.8 Q4.75 -9.85 4.75 -8.2 L4.6 10.85 4.4 11.15 4.25 11.5 4.1 11.8 3.25 13.05 2.25 13.65 -0.3 14.05 -0.85 14.05 Q-4.25 13.4 -4.45 9.7 L-5.2 -6.3 Q-5.3 -10.35 -3.3 -12.6 L-3.8 -32.7 -3.55 -32.65 -3.5 -32.7 Q-5.4 -33.15 -7.0 -41.9 -8.65 -51.15 -9.0 -64.35 -9.4 -77.55 -8.2 -86.85 -7.0 -96.1 -5.0 -96.2 L-4.25 -95.9 Q-3.2 -94.95 -2.2 -91.0 L-1.35 -87.05 Q0.3 -77.8 0.6 -64.55 L0.7 -54.2 0.55 -50.4 -0.15 -42.15 -0.5 -40.05 -0.45 -40.0 2.5 -39.05 2.55 -35.4 M2.7 -12.95 L2.2 -13.35 1.6 -13.65 1.5 -13.75 0.5 -14.15 -0.4 -14.2 -1.3 -14.1 -1.5 -14.05 -1.9 -13.75 -3.3 -12.6 M-3.5 -32.7 L-0.45 -40.0" fill="none" stroke="#000000" stroke-linecap="round" stroke-linejoin="round" stroke-width="1.5"/>
  </g>
</svg>
