<?xml version="1.0" encoding="UTF-8" standalone="no"?>
<svg xmlns:xlink="http://www.w3.org/1999/xlink" height="228.8px" width="43.95px" xmlns="http://www.w3.org/2000/svg">
  <g transform="matrix(1.0, 0.0, 0.0, 1.0, 22.85, 142.95)">
    <path d="M-22.05 -114.0 L-9.25 -115.95 0.1 -142.2 8.6 -115.95 20.35 -114.8 M17.25 -82.6 L7.7 -85.6 3.6 -77.9 M7.7 -85.6 L8.6 -115.95 -9.25 -115.95 -9.25 -85.6 7.7 -85.6 M-18.5 -82.9 L-9.25 -85.6 -5.55 -77.7" fill="none" stroke="#ffffff" stroke-linecap="round" stroke-linejoin="round" stroke-opacity="0.5764706" stroke-width="1.5"/>
    <path d="M-12.8 -71.6 L-18.55 -82.95 -22.1 -114.05 0.05 -142.2 20.35 -114.8 17.2 -82.6 11.05 -71.6 11.55 -70.45 5.25 -50.5 3.8 -49.9 3.0 -38.05 2.0 -37.35 1.75 -37.2 1.75 58.05 7.35 61.9 5.2 63.4 5.2 71.55 -1.1 85.1 -7.85 71.55 -7.85 63.7 -9.9 62.25 -3.8 58.05 -3.8 -37.35 -4.65 -38.05 -5.35 -49.65 -6.75 -50.05 -13.3 -70.3 -12.8 -71.6 -10.0 -72.45 -9.2 -72.5 -8.65 -74.1 -8.35 -74.65 Q-7.85 -75.65 -6.95 -76.5 -4.4 -79.05 -0.75 -79.05 2.85 -79.05 5.35 -76.5 L6.4 -75.35 7.4 -73.55 7.75 -72.5 8.25 -72.45 11.05 -71.6 M7.75 -72.5 L7.95 -70.25 Q7.95 -66.65 5.35 -64.15 2.85 -61.55 -0.7 -61.55 L-0.75 -61.55 Q-4.4 -61.55 -6.95 -64.15 -9.5 -66.65 -9.5 -70.25 L-9.5 -70.5 -9.4 -71.7 -9.2 -72.5 M4.25 -72.15 L4.45 -70.65 Q4.45 -68.5 2.9 -66.95 1.45 -65.4 -0.7 -65.4 -2.9 -65.4 -4.4 -66.95 -5.9 -68.5 -5.9 -70.65 L-5.9 -70.85 -5.85 -71.15 -5.65 -72.15 Q-5.35 -73.35 -4.4 -74.3 -2.9 -75.8 -0.7 -75.8 1.45 -75.8 2.9 -74.3 3.85 -73.35 4.25 -72.15 M-3.8 -37.35 Q-3.0 -36.85 -2.0 -36.5 L-0.9 -36.25 -0.7 -36.25 1.35 -36.95 2.0 -37.35 M3.8 -49.9 L-0.7 -48.4 -5.35 -49.65 M-7.85 63.7 L-7.8 63.7 -1.05 67.95 5.2 63.4 M1.75 58.05 L-1.15 59.85 -3.8 58.05" fill="none" stroke="#000000" stroke-linecap="round" stroke-linejoin="round" stroke-width="1.5"/>
  </g>
</svg>
