<?xml version="1.0" encoding="UTF-8" standalone="no"?>
<svg xmlns:xlink="http://www.w3.org/1999/xlink" height="115.25px" width="41.1px" xmlns="http://www.w3.org/2000/svg">
  <g transform="matrix(1.0, 0.0, 0.0, 1.0, 22.55, 82.15)">
    <path d="M1.6 -55.5 L2.6 -55.65 Q3.65 -55.95 3.7 -56.85 3.9 -62.0 4.3 -63.3 4.35 -64.05 5.05 -64.7 L7.45 -65.6 11.05 -66.6 Q13.2 -67.4 14.45 -69.0 15.7 -70.85 16.0 -73.2 L15.9 -75.3 16.5 -75.4 Q17.1 -75.4 17.4 -75.75 17.8 -76.2 17.8 -77.05 17.75 -78.05 17.25 -78.4 L12.8 -80.15 Q7.75 -81.45 -1.05 -81.4 -10.75 -81.4 -16.95 -79.95 -19.4 -79.25 -20.65 -78.45 -21.9 -77.7 -21.8 -77.1 -21.7 -76.15 -20.95 -75.5 L-20.2 -75.05 -20.05 -73.5 Q-19.65 -71.65 -18.4 -69.85 -17.35 -68.1 -14.25 -66.7 L-10.0 -65.25 Q-8.65 -64.7 -8.05 -64.0 -7.5 -63.4 -7.3 -62.2 L-7.05 -59.25 Q-7.15 -56.95 -6.8 -56.4 -6.55 -55.75 -5.65 -55.55 L-4.8 -55.3 -4.8 -55.1 -1.5 -55.85 -0.85 -55.8 0.55 -55.65 1.6 -55.5 1.65 30.65 1.3 31.15 Q0.8 32.0 -0.25 32.25 L-1.35 32.35 Q-3.25 32.3 -4.15 31.3 L-4.8 -55.1" fill="none" stroke="#000000" stroke-linecap="round" stroke-linejoin="round" stroke-width="1.5"/>
    <path d="M-17.4 -75.75 Q-0.4 -78.9 12.85 -75.75" fill="none" stroke="#000000" stroke-linecap="round" stroke-linejoin="round" stroke-width="1.0"/>
  </g>
</svg>
