<?xml version="1.0" encoding="UTF-8" standalone="no"?>
<svg xmlns:xlink="http://www.w3.org/1999/xlink" height="208.4px" width="193.65px" xmlns="http://www.w3.org/2000/svg">
  <g transform="matrix(1.0, 0.0, 0.0, 1.0, 96.8, 104.2)">
    <path d="M71.5 -64.45 L71.8 -63.3 M55.8 -84.1 Q59.2 -92.75 69.85 -97.0 83.25 -87.9 85.05 -54.05 86.8 -39.75 82.45 -31.5 79.75 -25.85 82.0 -17.85 86.05 -3.55 91.15 10.45 96.25 24.4 95.8 34.05 94.7 68.65 69.4 88.15 73.7 82.6 77.25 71.6 L75.0 76.6 Q67.35 93.25 51.4 99.65 48.0 101.0 44.25 101.9 60.8 89.1 64.6 63.4 67.25 45.7 65.3 36.8 66.5 51.05 50.95 59.7 63.05 47.35 54.65 15.8 L39.3 -17.5 Q28.75 -49.7 44.25 -70.55 M62.6 30.55 Q64.4 32.8 65.3 36.8 M77.25 71.6 L78.2 69.15 78.6 68.15 Q83.8 54.2 81.95 46.7 M-24.7 -89.25 Q-29.75 -95.65 -39.7 -100.1 -49.6 -104.55 -58.85 -102.6 -68.9 -87.95 -69.35 -60.2 -71.45 -42.75 -70.65 -30.5 -86.2 -13.65 -94.2 14.7 -95.75 24.9 -95.8 33.8 -96.05 59.2 -84.15 73.95 -89.5 64.1 -86.3 42.35 L-85.9 39.4 M-47.5 -67.65 L-47.2 -69.4 M-49.05 101.5 Q-65.75 88.45 -61.9 52.5 -58.0 34.05 -47.0 11.0 -32.65 -21.65 -31.1 -62.55 M-86.3 42.35 Q-88.6 63.25 -77.3 79.1 -67.3 93.15 -46.6 103.2" fill="none" stroke="#000000" stroke-linecap="round" stroke-linejoin="round" stroke-width="2.0"/>
    <path d="M71.5 -64.45 Q76.55 -68.6 74.75 -74.55 M-69.35 -60.2 Q-69.6 -43.25 -66.3 -21.35 M-47.2 -69.4 Q-51.65 -73.5 -51.9 -79.9" fill="none" stroke="#000000" stroke-linecap="round" stroke-linejoin="round" stroke-width="1.5"/>
  </g>
</svg>
