<?xml version="1.0" encoding="UTF-8" standalone="no"?>
<svg xmlns:xlink="http://www.w3.org/1999/xlink" height="75.9px" width="44.9px" xmlns="http://www.w3.org/2000/svg">
  <g transform="matrix(1.0, 0.0, 0.0, 1.0, 7.55, 67.2)">
    <path d="M11.4 -49.0 L14.3 -66.45 15.1 -66.3 Q18.15 -65.45 18.25 -62.95 L18.1 -55.2 18.15 -55.15 18.0 -50.0 Q17.75 -41.25 17.3 -36.25 L16.8 -33.1 11.4 -49.0 M3.55 -53.85 L2.25 -61.4 Q1.95 -63.95 4.85 -65.25 L5.55 -65.55 11.3 -48.35 16.7 -32.4 20.3 -21.45 Q19.4 -21.65 18.05 -20.95 L16.55 -19.65 Q14.8 -22.05 13.15 -22.85 L12.1 -23.2 Q11.35 -23.35 10.95 -24.25 L8.5 -31.75 10.95 -24.25 Q11.35 -23.35 12.1 -23.2 L13.15 -22.85 Q11.85 -21.8 10.65 -19.45 10.15 -20.1 8.9 -20.5 L6.6 -20.6 8.5 -31.75 7.4 -35.2 Q6.15 -40.05 4.5 -48.65 L3.55 -53.75 3.55 -53.85 M14.7 -32.1 Q13.85 -32.8 12.7 -32.7 11.65 -32.65 10.95 -31.8 10.2 -30.95 10.3 -29.9 L10.3 -29.7 Q10.5 -28.7 11.25 -28.05 12.05 -27.35 13.15 -27.45 14.3 -27.55 14.95 -28.35 15.65 -29.2 15.55 -30.3 L15.45 -31.05 14.7 -32.1" fill="#cbd0e4" fill-rule="evenodd" stroke="none"/>
    <path d="M18.1 -55.2 L18.25 -62.95 Q18.15 -65.45 15.1 -66.3 L14.3 -66.45 11.4 -49.0 11.3 -48.35 5.55 -65.55 4.85 -65.25 Q1.95 -63.95 2.25 -61.4 L3.55 -53.85 M16.8 -33.1 L17.3 -36.25 Q17.75 -41.25 18.0 -50.0 L18.15 -55.15 M13.15 -22.85 Q14.8 -22.05 16.55 -19.65 L18.05 -20.95 Q19.4 -21.65 20.3 -21.45 L16.7 -32.4 11.3 -48.35 M3.55 -53.75 L4.5 -48.65 Q6.15 -40.05 7.4 -35.2 L8.5 -31.75 10.95 -24.25 Q11.35 -23.35 12.1 -23.2 L13.15 -22.85 Q11.85 -21.8 10.65 -19.45 11.25 -18.65 10.9 -17.55 9.55 -14.45 9.8 -10.85 L10.3 -9.4 11.2 -8.35 Q12.35 -7.25 12.9 -5.65 13.5 -3.9 13.45 -1.7 13.3 2.6 9.65 5.6 4.85 9.3 -0.85 7.15 -3.65 5.85 -5.25 3.2 L-6.05 1.65 Q-7.55 -2.25 -6.0 -5.7 -4.45 -9.0 -2.4 -10.45 -0.85 -11.5 0.8 -11.75 1.9 -12.05 3.05 -13.6 4.9 -15.9 5.45 -19.05 5.65 -19.9 6.15 -20.35 L6.6 -20.6 8.5 -31.75 M16.7 -32.4 L16.8 -33.1 M14.7 -32.1 L15.45 -31.05 15.55 -30.3 Q15.65 -29.2 14.95 -28.35 14.3 -27.55 13.15 -27.45 12.05 -27.35 11.25 -28.05 10.5 -28.7 10.3 -29.7 L10.3 -29.9 Q10.2 -30.95 10.95 -31.8 11.65 -32.65 12.7 -32.7 13.85 -32.8 14.7 -32.1 M20.3 -21.45 L20.85 -21.25 21.75 -20.1 Q22.8 -17.05 25.0 -15.05 26.4 -13.75 27.5 -13.6 29.1 -13.6 30.85 -12.75 33.1 -11.7 35.15 -8.7 37.2 -5.55 36.35 -1.4 L35.8 0.25 Q34.6 3.15 32.15 4.8 26.8 7.85 21.5 4.9 17.4 2.5 16.55 -1.7 16.15 -3.9 16.5 -5.65 16.8 -7.3 17.75 -8.6 L18.45 -9.8 18.75 -11.25 Q18.4 -14.85 16.65 -17.75 16.05 -18.75 16.55 -19.65 M6.6 -20.6 L8.9 -20.5 Q10.15 -20.1 10.65 -19.45 M8.75 -2.5 Q8.9 -0.2 7.4 1.55 5.9 3.3 3.6 3.45 1.3 3.6 -0.5 2.15 -2.2 0.7 -2.4 -1.6 L-2.3 -3.45 Q-1.95 -4.6 -1.1 -5.6 0.4 -7.35 2.7 -7.5 5.05 -7.7 6.8 -6.2 L7.3 -5.75 Q8.55 -4.4 8.75 -2.5 M30.3 -7.8 Q31.3 -6.95 31.8 -5.85 L32.2 -4.05 Q32.4 -1.85 30.9 -0.1 29.4 1.65 27.1 1.8 24.85 2.0 23.1 0.5 21.35 -0.9 21.15 -3.2 21.05 -5.1 22.05 -6.65 L22.5 -7.2 Q24.0 -8.85 26.25 -9.05 28.55 -9.25 30.3 -7.8" fill="none" stroke="#000000" stroke-linecap="round" stroke-linejoin="round" stroke-width="1.5"/>
  </g>
</svg>
