<?xml version="1.0" encoding="UTF-8" standalone="no"?>
<svg xmlns:xlink="http://www.w3.org/1999/xlink" height="50.75px" width="22.9px" xmlns="http://www.w3.org/2000/svg">
  <g transform="matrix(1.0, 0.0, 0.0, 1.0, 9.9, 42.15)">
    <path d="M6.55 -10.2 Q12.45 -31.1 4.75 -40.4 M6.15 -9.15 L5.9 -8.3 Q6.9 4.05 -1.15 7.6" fill="none" stroke="#000000" stroke-linecap="round" stroke-linejoin="round" stroke-width="1.0"/>
    <path d="M4.75 -40.4 L3.25 -41.0 Q-6.0 -43.75 -6.55 -26.85 -4.35 -32.05 0.25 -35.7 L6.55 -10.2 6.15 -9.15 4.7 -7.1 Q0.25 -19.05 -1.65 -29.95 -4.2 -26.35 -5.2 -21.5 -4.55 -17.4 -5.0 -10.25 -6.5 -15.1 -5.2 -21.5 M-1.15 7.6 L3.15 6.9 Q6.8 5.3 8.7 -4.6 10.55 -14.5 12.05 -25.6 13.4 -36.65 4.75 -40.4 M-6.55 -26.85 Q-9.9 -19.55 -8.9 -13.5 -8.3 -9.9 -6.2 -7.2 L-5.0 -5.75 -3.75 -7.6 -5.0 -10.15 -5.0 -10.25 M-1.15 7.6 Q-8.05 9.25 -7.05 0.35 L-6.2 -7.2" fill="none" stroke="#000000" stroke-linecap="round" stroke-linejoin="round" stroke-width="1.5"/>
  </g>
</svg>
