<?xml version="1.0" encoding="UTF-8" standalone="no"?>
<svg xmlns:xlink="http://www.w3.org/1999/xlink" height="181.0px" width="79.3px" xmlns="http://www.w3.org/2000/svg">
  <g transform="matrix(1.0, 0.0, 0.0, 1.0, 63.35, 85.7)">
    <path d="M1.4 -9.45 L3.25 -4.4 4.15 -1.25 Q1.25 1.45 -2.7 1.6 L-3.6 -1.6 -4.15 -4.6 -4.65 -7.3 Q-1.15 -7.55 1.4 -9.45 M1.65 -7.15 Q0.1 -4.85 -4.15 -4.6 0.1 -4.85 1.65 -7.15 M3.25 -4.4 Q0.8 -1.8 -3.6 -1.6 0.8 -1.8 3.25 -4.4" fill="#ffffff" fill-rule="evenodd" stroke="none"/>
    <path d="M4.15 -1.25 L4.9 2.1 5.55 6.15 Q5.6 8.7 5.25 11.15 L-1.55 12.9 -3.35 8.65 -4.85 4.55 -5.8 1.4 -6.6 -1.75 -7.25 -4.75 -7.45 -7.3 -7.25 -10.25 -4.95 -10.1 -4.15 -10.15 Q-1.55 -10.45 0.2 -12.25 L0.5 -11.55 1.4 -9.45 Q-1.15 -7.55 -4.65 -7.3 L-4.15 -4.6 -3.6 -1.6 -6.6 -1.75 -3.6 -1.6 -2.7 1.6 -5.8 1.4 -2.7 1.6 Q1.25 1.45 4.15 -1.25 M-2.8 67.4 Q-3.15 70.05 -3.0 72.7 L-7.3 72.0 -6.2 74.65 -4.55 78.9 -4.35 79.9 -5.9 78.9 -14.85 72.95 -15.4 72.65 -13.3 70.5 -12.2 69.0 Q-10.75 67.05 -9.75 64.55 L-4.0 66.95 -2.8 67.4 M-35.9 -50.0 L-36.45 -50.5 -37.9 -51.35 -38.6 -51.85 Q-41.0 -53.25 -43.45 -54.3 L-44.85 -54.75 -48.35 -55.6 -43.6 -67.2 -43.2 -66.1 Q-44.15 -61.6 -43.75 -57.0 L-43.45 -54.3 -43.75 -57.0 Q-44.15 -61.6 -43.2 -66.1 L-38.5 -53.05 Q-37.55 -55.55 -35.15 -56.55 L-35.1 -56.55 -34.15 -55.3 -31.55 -53.75 -30.85 -53.25 -33.8 -51.3 -35.9 -50.0 M-37.9 -51.35 L-38.5 -53.05 -37.9 -51.35 M-7.45 -7.3 L-4.65 -7.3 -7.45 -7.3 M-7.25 -4.75 L-4.15 -4.6 -7.25 -4.75 M-4.85 4.55 L-1.7 4.95 Q2.3 4.9 4.9 2.1 2.3 4.9 -1.7 4.95 L-4.85 4.55 M-3.35 8.65 L-0.4 8.55 Q3.35 8.15 5.55 6.15 3.35 8.15 -0.4 8.55 L-3.35 8.65 M-12.2 69.0 L-5.9 78.9 -12.2 69.0 M-9.75 64.55 L-7.3 72.0 -9.75 64.55" fill="#fff7ff" fill-rule="evenodd" stroke="none"/>
    <path d="M1.4 -9.45 L3.25 -4.4 4.15 -1.25 4.9 2.1 5.55 6.15 Q5.6 8.7 5.25 11.15 10.55 36.8 0.05 60.75 L-2.8 67.4 Q-3.15 70.05 -3.0 72.7 -2.05 85.15 15.2 87.6 2.4 91.15 -3.8 80.25 L-4.35 79.9 Q-2.8 89.55 -8.45 93.5 L-10.3 94.55 Q-7.8 84.65 -11.4 78.8 -20.75 85.6 -26.25 79.05 L-27.35 77.5 Q-20.1 76.7 -15.4 72.65 L-13.3 70.5 -12.2 69.0 Q-10.75 67.05 -9.75 64.55 L-9.6 64.2 Q0.65 38.4 -1.55 12.9 L-3.35 8.65 -4.85 4.55 -5.8 1.4 -6.6 -1.75 -7.25 -4.75 -7.45 -7.3 -7.25 -10.25 Q-8.35 -16.95 -11.25 -21.45 -23.9 -41.7 -35.9 -50.0 L-36.45 -50.5 -37.9 -51.35 -38.6 -51.85 Q-41.0 -53.25 -43.45 -54.3 L-44.85 -54.75 -48.35 -55.6 Q-55.45 -56.95 -62.6 -53.9 L-62.4 -55.4 Q-60.95 -64.3 -49.15 -62.65 -48.8 -69.6 -55.75 -77.0 L-52.7 -76.9 Q-46.6 -75.7 -43.6 -67.2 L-43.2 -66.1 Q-43.75 -80.0 -31.55 -84.95 -45.6 -71.0 -35.1 -56.55 L-34.15 -55.3 -31.55 -53.75 -30.85 -53.25 Q-16.7 -44.6 -6.25 -28.35 -1.15 -20.8 0.2 -12.25 L0.5 -11.55 1.4 -9.45 M-38.5 -53.05 L-37.9 -51.35 M-43.2 -66.1 L-38.5 -53.05 M0.2 -12.25 Q-1.55 -10.45 -4.15 -10.15 L-4.95 -10.1 -7.25 -10.25 M-7.3 72.0 L-6.2 74.65 -4.55 78.9 -3.8 80.25 M-4.35 79.9 L-4.55 78.9 M5.25 11.15 L-1.55 12.9" fill="none" stroke="#000000" stroke-linecap="round" stroke-linejoin="round" stroke-width="1.5"/>
    <path d="M1.4 -9.45 Q-1.15 -7.55 -4.65 -7.3 L-7.45 -7.3 M-4.15 -4.6 Q0.1 -4.85 1.65 -7.15 M-35.1 -56.55 L-35.15 -56.55 Q-37.55 -55.55 -38.5 -53.05 M-35.9 -50.0 L-33.8 -51.3 -30.85 -53.25 M-43.6 -67.2 L-48.35 -55.6 M-43.45 -54.3 L-43.75 -57.0 Q-44.15 -61.6 -43.2 -66.1 M-4.15 -4.6 L-7.25 -4.75 M-3.6 -1.6 L-6.6 -1.75 M-5.8 1.4 L-2.7 1.6 Q1.25 1.45 4.15 -1.25 M-3.6 -1.6 Q0.8 -1.8 3.25 -4.4 M5.55 6.15 Q3.35 8.15 -0.4 8.55 L-3.35 8.65 M4.9 2.1 Q2.3 4.9 -1.7 4.95 L-4.85 4.55 M-15.4 72.65 L-14.85 72.95 -5.9 78.9 -12.2 69.0 M-9.75 64.55 L-4.0 66.95 -2.8 67.4 M-3.0 72.7 L-7.3 72.0 -9.75 64.55 M-4.35 79.9 L-5.9 78.9" fill="none" stroke="#000000" stroke-linecap="round" stroke-linejoin="round" stroke-width="1.0"/>
  </g>
</svg>
