<?xml version="1.0" encoding="UTF-8" standalone="no"?>
<svg xmlns:xlink="http://www.w3.org/1999/xlink" height="34.6px" width="34.6px" xmlns="http://www.w3.org/2000/svg">
  <g transform="matrix(1.0, 0.0, 0.0, 1.0, 4.2, 21.0)">
    <path d="M10.3 -18.65 L10.55 -18.55 10.55 -18.5 Q10.9 -17.55 10.7 -16.8 L10.55 -16.2 10.2 -16.0 10.15 -16.0 9.95 -16.3 9.95 -16.45 10.15 -16.95 9.95 -18.3 10.05 -18.5 10.2 -18.65 10.3 -18.65 M14.7 -17.4 L14.55 -17.45 14.55 -17.65 14.7 -17.8 16.0 -18.05 16.75 -17.9 17.1 -17.8 17.2 -17.65 17.1 -17.4 Q17.1 -17.3 16.9 -17.3 L16.75 -17.4 16.0 -17.55 14.9 -17.3 14.8 -17.3 14.7 -17.4 14.9 -17.4 16.0 -17.65 16.85 -17.4 16.9 -17.4 17.1 -17.55 17.1 -17.65 17.0 -17.7 16.75 -17.8 16.0 -17.9 14.8 -17.7 14.7 -17.7 14.7 -17.55 14.7 -17.4 M10.2 -18.55 L10.15 -18.5 10.15 -18.3 10.3 -16.85 10.15 -16.35 10.15 -16.2 10.2 -16.1 Q10.4 -16.1 10.4 -16.2 L10.65 -16.85 10.45 -18.5 10.4 -18.5 10.3 -18.55 10.2 -18.55 M11.9 -13.2 L11.75 -13.2 11.55 -13.15 11.55 -13.05 11.65 -12.95 12.0 -12.7 13.1 -12.55 13.85 -12.6 14.05 -12.8 13.85 -12.95 13.8 -12.95 13.1 -12.9 12.15 -12.95 11.9 -13.2 12.25 -13.05 13.1 -12.95 13.8 -13.05 13.85 -13.05 14.05 -12.95 14.1 -12.8 14.05 -12.6 13.95 -12.55 13.85 -12.55 13.1 -12.35 Q12.4 -12.35 12.0 -12.6 L11.55 -12.8 11.5 -13.05 11.55 -13.2 11.75 -13.4 11.9 -13.2 M17.5 -12.6 L17.7 -12.7 17.85 -12.55 17.95 -12.55 Q18.35 -11.6 18.35 -10.85 L18.2 -10.15 17.95 -10.0 17.85 -10.05 17.75 -10.15 17.75 -10.4 17.75 -10.9 17.45 -12.3 17.45 -12.45 17.5 -12.6 M17.6 -12.55 L17.5 -12.35 17.5 -12.3 17.95 -10.9 17.85 -10.4 17.85 -10.25 17.95 -10.05 18.1 -10.25 18.2 -10.85 Q18.3 -11.6 17.75 -12.45 L17.7 -12.55 17.6 -12.55 M19.4 -14.85 L19.3 -14.65 19.05 -14.85 18.95 -15.0 19.05 -15.15 19.05 -15.25 20.3 -15.95 20.5 -16.0 21.15 -16.2 21.45 -16.0 21.45 -15.85 21.35 -15.6 21.15 -15.6 21.0 -15.6 20.5 -15.5 19.4 -14.85 20.4 -15.6 21.0 -15.7 21.15 -15.7 21.25 -15.75 21.35 -15.85 21.25 -15.95 21.15 -16.0 21.1 -16.0 20.3 -15.95 19.15 -15.1 19.15 -15.0 19.15 -14.9 19.3 -14.85 19.4 -14.85 M6.2 -15.6 L6.05 -15.6 5.95 -15.5 5.7 -15.0 Q5.45 -14.25 5.6 -13.4 L5.6 -13.3 5.8 -13.2 5.95 -13.3 5.95 -13.4 Q5.8 -14.15 5.95 -14.85 L6.2 -15.35 6.2 -15.6 6.4 -15.5 6.3 -15.25 6.05 -14.85 6.05 -13.45 6.05 -13.2 5.8 -13.05 5.55 -13.2 5.55 -13.3 Q5.3 -14.3 5.55 -15.0 L5.9 -15.6 6.05 -15.75 6.2 -15.6 M9.55 -11.1 L9.6 -10.9 9.55 -10.65 9.3 -10.6 9.2 -10.65 8.85 -10.9 7.85 -11.1 7.3 -11.0 7.15 -11.1 7.0 -11.25 7.0 -11.45 7.15 -11.5 7.25 -11.6 7.85 -11.6 9.1 -11.35 9.55 -11.1 M9.0 -11.25 L7.85 -11.5 7.25 -11.45 Q7.05 -11.45 7.15 -11.25 L7.15 -11.2 7.3 -11.1 7.85 -11.2 8.95 -10.9 9.2 -10.75 9.35 -10.75 9.45 -10.75 9.55 -10.9 9.45 -11.0 9.0 -11.25 M5.8 -7.95 L5.95 -7.7 5.8 -7.5 5.6 -7.45 5.35 -7.5 5.05 -7.85 3.65 -8.2 3.5 -8.3 3.4 -8.45 3.4 -8.65 3.6 -8.8 3.65 -8.8 5.3 -8.35 5.8 -7.95 M5.3 -8.2 L3.65 -8.65 3.5 -8.45 3.5 -8.35 3.65 -8.3 5.05 -7.95 5.55 -7.7 5.6 -7.5 5.7 -7.6 5.8 -7.7 5.8 -7.85 5.3 -8.2 M9.2 -8.55 L8.35 -8.05 Q7.65 -7.7 7.4 -7.0 L7.15 -5.65 7.0 -4.7 6.65 -3.6 Q6.3 -2.95 6.65 -2.15 L7.65 -0.75 8.35 0.3 8.95 1.3 Q9.2 2.0 9.7 2.15 L10.65 2.4 11.15 2.4 11.65 2.4 13.1 2.65 13.8 2.85 14.8 2.5 15.9 1.75 16.9 0.95 Q17.25 0.7 17.7 0.55 L17.85 0.4 18.05 0.3 Q18.8 -0.05 18.95 -0.55 L19.05 -1.65 19.05 -2.7 19.45 -3.8 Q19.9 -4.4 19.75 -4.9 L19.15 -5.75 18.45 -6.6 Q18.05 -7.2 17.95 -7.85 17.85 -8.7 17.0 -9.15 L15.05 -9.55 14.05 -9.8 13.0 -10.05 12.25 -10.25 11.05 -9.9 9.95 -9.05 9.2 -8.55 M9.0 -8.7 L9.8 -9.3 11.0 -10.05 12.25 -10.5 13.1 -10.35 Q13.5 -10.05 14.05 -10.0 L15.15 -9.8 17.1 -9.3 Q18.05 -8.8 18.2 -7.85 L18.6 -6.75 19.3 -5.9 20.0 -4.9 Q20.15 -4.3 19.65 -3.6 19.3 -3.2 19.3 -2.6 L19.3 -1.65 19.15 -0.4 18.1 0.55 17.0 1.15 16.05 1.9 14.9 2.65 13.8 3.1 13.0 2.85 11.65 2.6 11.15 2.6 10.65 2.65 9.6 2.4 Q9.0 2.15 8.75 1.4 L8.15 0.4 7.5 -0.55 6.45 -2.15 Q6.05 -3.0 6.45 -3.8 L6.8 -4.7 7.0 -5.75 Q7.05 -6.75 7.25 -7.2 7.5 -7.85 8.25 -8.2 L9.0 -8.7 M1.35 -12.2 L1.2 -11.6 Q1.1 -10.85 1.35 -10.0 1.45 -9.8 1.65 -9.9 L1.65 -10.0 1.7 -10.05 Q1.35 -10.85 1.45 -11.5 L1.65 -12.05 1.7 -12.1 1.65 -12.3 1.55 -12.3 1.35 -12.2 M1.55 -12.35 L1.65 -12.35 1.8 -12.2 1.8 -12.05 1.65 -11.45 Q1.55 -10.9 1.8 -10.05 L1.8 -9.9 1.65 -9.8 1.55 -9.75 Q1.35 -9.75 1.3 -9.9 L1.2 -10.0 Q0.95 -10.85 1.1 -11.6 L1.3 -12.3 1.55 -12.35 M3.9 -3.55 Q4.6 -2.85 4.75 -2.0 L4.75 -1.3 4.7 -1.25 4.45 -1.15 4.25 -1.25 4.2 -1.5 4.2 -2.0 3.5 -3.3 3.5 -3.45 3.6 -3.6 3.75 -3.6 3.9 -3.6 3.9 -3.55 3.65 -3.55 3.6 -3.35 3.65 -3.3 Q4.2 -2.7 4.25 -2.0 L4.35 -1.5 4.35 -1.3 Q4.35 -1.25 4.45 -1.25 L4.6 -1.3 4.6 -1.4 4.6 -2.0 3.9 -3.55 M1.65 -5.3 L1.45 -5.4 1.35 -5.4 0.6 -5.25 -0.5 -4.45 -0.6 -4.45 -0.5 -4.3 -0.4 -4.2 -0.35 -4.2 0.7 -4.95 1.35 -5.05 1.45 -5.05 Q1.55 -5.05 1.65 -5.15 L1.65 -5.3 M1.8 -5.25 L1.65 -4.95 1.45 -4.95 1.35 -4.95 0.8 -4.9 Q0.25 -4.65 -0.25 -4.2 L-0.4 -4.05 -0.65 -4.2 -0.65 -4.3 -0.65 -4.55 0.85 -5.4 1.45 -5.55 1.7 -5.4 1.8 -5.25 M1.8 -1.3 Q1.95 -0.4 1.65 0.4 L1.35 0.95 1.1 1.05 0.95 0.95 0.85 0.8 0.95 0.55 1.2 0.1 1.3 -1.25 1.35 -1.5 1.45 -1.6 1.7 -1.5 1.8 -1.4 1.8 -1.3 M1.35 -1.25 L1.3 0.1 1.05 0.65 0.95 0.8 1.1 0.95 1.2 0.9 1.55 0.3 Q1.9 -0.4 1.7 -1.3 L1.55 -1.5 1.45 -1.4 1.35 -1.25 M24.0 -10.05 L23.8 -10.15 23.8 -10.4 23.9 -10.9 23.45 -12.3 23.45 -12.45 23.65 -12.6 23.8 -12.7 24.0 -12.55 Q24.4 -11.6 24.4 -10.85 L24.3 -10.15 24.05 -10.0 24.0 -10.05 24.05 -10.05 24.25 -10.25 24.3 -10.85 Q24.3 -11.6 23.9 -12.45 L23.7 -12.55 23.55 -12.35 23.55 -12.3 Q24.0 -11.6 24.0 -10.9 L23.9 -10.4 23.9 -10.25 24.0 -10.05 M27.55 -8.65 L27.1 -8.8 Q26.45 -8.8 25.75 -8.35 L25.6 -8.3 25.35 -8.45 25.35 -8.65 25.35 -8.8 25.5 -8.8 Q26.25 -9.3 27.1 -9.3 L27.55 -9.2 27.8 -9.15 27.9 -9.05 27.9 -8.9 27.65 -8.65 27.55 -8.65 M27.8 -9.05 L27.7 -9.05 27.1 -9.15 25.5 -8.7 25.4 -8.45 25.6 -8.35 25.7 -8.45 27.1 -8.9 27.65 -8.8 27.7 -8.8 27.8 -8.9 27.8 -9.05 M21.95 -8.3 L21.95 -8.35 21.75 -8.45 21.7 -8.45 21.15 -8.1 Q20.65 -7.5 20.5 -6.6 L20.6 -6.4 20.75 -6.4 20.75 -6.5 21.45 -7.85 21.85 -8.2 21.95 -8.3 M22.0 -8.45 L22.0 -8.2 21.85 -8.1 21.5 -7.7 20.9 -6.5 20.75 -6.35 20.5 -6.35 20.4 -6.4 20.3 -6.6 21.15 -8.2 21.7 -8.65 21.75 -8.65 22.0 -8.45 M23.55 -4.45 L23.8 -4.3 23.9 -4.1 23.7 -3.95 Q22.8 -3.45 22.0 -3.45 L21.6 -3.45 21.45 -3.55 21.25 -3.6 21.25 -3.85 Q21.25 -4.05 21.5 -4.05 L21.7 -4.05 22.0 -3.95 Q22.7 -3.95 23.45 -4.45 L23.55 -4.45 M23.45 -4.3 Q22.7 -3.85 22.0 -3.85 L21.6 -3.95 21.5 -3.95 21.35 -3.8 21.35 -3.7 21.45 -3.6 21.6 -3.55 22.0 -3.55 Q22.8 -3.55 23.65 -4.05 L23.7 -4.05 23.7 -4.3 23.55 -4.3 23.45 -4.3 M21.95 -0.4 L21.45 -0.05 Q20.9 0.55 20.65 1.5 L20.75 1.65 20.9 1.55 21.0 1.5 Q21.15 0.7 21.6 0.3 L22.0 -0.15 22.1 -0.2 22.1 -0.3 21.95 -0.4 M22.3 -0.15 L22.1 -0.05 21.7 0.3 Q21.25 0.8 21.1 1.55 L21.0 1.75 20.85 1.75 20.75 1.75 20.6 1.65 20.5 1.5 20.5 1.4 Q20.75 0.45 21.35 -0.15 L21.85 -0.55 21.95 -0.55 22.3 -0.4 22.3 -0.15 M27.2 -2.85 L27.4 -2.85 27.45 -2.85 27.55 -2.95 27.55 -3.6 26.85 -5.05 26.8 -5.15 26.6 -5.15 26.55 -4.95 26.6 -4.9 27.2 -3.55 27.2 -3.0 27.2 -2.85 27.1 -3.0 27.1 -3.55 26.55 -4.8 26.45 -4.95 26.55 -5.15 26.7 -5.25 26.85 -5.15 26.95 -5.15 Q27.55 -4.4 27.65 -3.6 L27.65 -2.95 27.65 -2.75 27.4 -2.7 27.2 -2.85 M27.65 -0.3 L27.7 -0.15 27.7 0.05 27.65 0.1 26.45 1.3 25.85 1.55 25.75 1.55 25.6 1.5 25.5 1.3 25.6 1.05 Q25.6 0.95 25.75 0.95 L26.25 0.8 27.2 -0.15 27.45 -0.3 27.65 -0.3 M27.45 -0.15 L27.45 -0.2 27.3 -0.15 26.25 0.9 25.75 1.05 25.7 1.15 25.6 1.3 25.7 1.4 25.85 1.5 26.45 1.25 27.65 0.05 27.65 -0.05 27.45 -0.15 M23.2 2.65 L23.55 4.05 23.55 4.65 23.55 4.7 23.55 4.8 23.7 4.8 23.9 4.7 23.9 4.1 23.45 2.6 23.45 2.5 23.3 2.4 23.2 2.5 23.2 2.6 23.2 2.65 M23.3 2.35 L23.45 2.4 23.55 2.5 24.0 4.1 24.0 4.8 23.7 4.95 23.55 4.95 23.45 4.8 23.45 4.55 23.45 4.05 Q23.45 3.45 23.05 2.75 L23.05 2.6 Q23.05 2.4 23.2 2.4 L23.3 2.35 M21.0 6.15 L21.0 6.35 Q20.85 7.25 20.25 7.95 L19.75 8.35 19.65 8.35 Q19.4 8.35 19.4 8.2 L19.4 7.95 19.55 7.75 19.9 7.45 20.5 6.25 20.65 6.05 20.85 6.05 21.0 6.15 M20.75 6.15 L20.65 6.25 20.0 7.5 19.55 7.95 19.45 8.05 19.45 8.1 19.65 8.2 20.25 7.75 Q20.75 7.25 20.9 6.35 L20.85 6.15 20.75 6.15 M17.35 3.85 L18.35 4.7 18.45 4.95 18.45 5.15 18.2 5.3 18.2 5.2 18.05 5.2 Q17.25 4.8 16.85 4.1 L16.6 3.5 16.6 3.25 16.85 3.1 17.0 3.2 17.1 3.35 17.35 3.85 M16.75 3.45 L16.9 4.05 Q17.35 4.7 18.2 5.15 L18.3 5.15 18.35 5.15 18.35 4.95 18.35 4.8 17.25 3.85 17.0 3.35 17.0 3.25 16.85 3.25 16.75 3.35 16.75 3.45 M11.85 5.4 L11.75 5.5 11.85 5.65 11.9 5.65 12.5 5.5 Q13.2 5.15 13.8 4.45 L13.8 4.35 13.8 4.2 13.6 4.2 13.5 4.2 12.4 5.15 11.9 5.3 11.85 5.4 M11.9 5.2 L12.4 5.05 13.45 4.2 13.6 4.05 13.8 4.1 13.85 4.2 13.85 4.45 12.6 5.65 11.9 5.8 11.75 5.75 11.65 5.5 11.75 5.3 Q11.85 5.2 11.9 5.2 M12.15 9.15 L12.1 9.3 11.9 9.4 11.85 9.4 11.25 9.45 Q10.7 9.75 10.2 10.15 L9.95 10.25 9.85 10.15 9.7 10.0 9.8 9.8 9.85 9.75 Q10.55 9.15 11.3 8.9 L12.0 8.8 12.15 8.9 12.15 9.15 M11.05 9.05 L9.85 9.8 9.85 10.05 10.15 10.05 Q10.65 9.55 11.25 9.4 L11.85 9.3 11.9 9.3 12.0 9.2 12.1 9.15 12.1 9.05 12.0 8.9 11.85 8.9 11.05 9.05 M15.9 7.25 L15.65 7.25 15.55 7.45 15.65 7.5 16.35 8.7 16.4 9.3 16.4 9.4 16.5 9.55 16.65 9.45 16.75 9.4 16.65 8.7 15.9 7.25 Q16.6 7.95 16.75 8.7 L16.85 9.4 16.75 9.55 16.6 9.65 16.5 9.65 16.35 9.55 16.25 9.3 16.25 8.8 15.5 7.6 15.5 7.45 15.55 7.2 15.75 7.1 15.9 7.2 15.9 7.25 M7.85 2.0 L7.85 1.8 7.65 1.75 7.6 1.9 6.45 2.65 5.9 2.85 5.7 2.85 5.7 2.95 5.7 3.1 5.9 3.1 6.55 2.95 7.85 2.1 7.85 2.0 M7.9 2.15 L6.65 3.1 5.9 3.25 5.8 3.2 5.6 3.2 5.55 2.95 5.7 2.75 Q5.7 2.65 5.9 2.65 L6.4 2.6 7.5 1.75 7.65 1.65 7.85 1.75 8.0 1.9 8.0 2.1 7.9 2.15 M8.0 4.95 L8.25 4.9 8.35 4.9 Q9.2 5.4 9.55 6.15 L9.8 6.75 9.7 7.0 9.55 7.1 9.45 7.1 9.3 7.0 9.2 6.85 9.0 6.35 8.1 5.4 7.9 5.2 8.0 4.95 M8.0 5.2 L8.1 5.3 9.1 6.35 9.3 6.85 9.35 6.9 9.55 7.0 9.6 6.9 9.6 6.75 9.45 6.15 8.25 4.95 Q8.1 4.95 8.1 5.05 L8.0 5.2 M1.9 4.2 Q2.4 3.35 3.05 2.95 L3.75 2.75 Q3.85 2.65 3.9 2.85 4.1 2.85 4.1 2.95 L4.0 3.2 3.75 3.25 3.35 3.5 Q2.75 3.8 2.3 4.45 L2.05 4.55 1.95 4.55 1.8 4.35 1.8 4.2 1.9 4.2 2.05 4.45 2.2 4.35 3.25 3.35 3.75 3.2 3.9 3.1 3.9 2.95 3.75 2.85 3.05 3.1 1.95 4.2 1.9 4.2 M2.55 6.15 L2.55 6.25 2.9 6.75 4.35 7.5 4.5 7.5 4.6 7.45 4.6 7.25 4.45 7.25 Q3.65 7.0 3.15 6.6 L2.8 6.15 2.75 6.05 2.55 6.05 2.55 6.15 M2.75 5.9 L3.0 6.05 3.25 6.5 Q3.75 6.9 4.45 7.1 4.6 7.1 4.7 7.25 L4.7 7.45 4.6 7.6 4.45 7.7 4.35 7.7 Q3.4 7.45 2.8 6.85 L2.5 6.35 2.5 6.05 2.55 5.9 2.75 5.9" fill="#1d1d1b" fill-rule="evenodd" stroke="none"/>
    <path d="M14.7 -17.4 L14.7 -17.55 14.7 -17.7 14.8 -17.7 16.0 -17.9 16.75 -17.8 17.0 -17.7 17.1 -17.65 17.1 -17.55 16.9 -17.4 16.85 -17.4 16.0 -17.65 14.9 -17.4 14.7 -17.4 M17.6 -12.55 L17.7 -12.55 17.75 -12.45 Q18.3 -11.6 18.2 -10.85 L18.1 -10.25 17.95 -10.05 17.85 -10.25 17.85 -10.4 17.95 -10.9 17.5 -12.3 17.5 -12.35 17.6 -12.55 M9.0 -11.25 L9.45 -11.0 9.55 -10.9 9.45 -10.75 9.35 -10.75 9.2 -10.75 8.95 -10.9 7.85 -11.2 7.3 -11.1 7.15 -11.2 7.15 -11.25 Q7.05 -11.45 7.25 -11.45 L7.85 -11.5 9.0 -11.25 M1.35 -12.2 L1.55 -12.3 1.65 -12.3 1.7 -12.1 1.65 -12.05 1.45 -11.5 Q1.35 -10.85 1.7 -10.05 L1.65 -10.0 1.65 -9.9 Q1.45 -9.8 1.35 -10.0 1.1 -10.85 1.2 -11.6 L1.35 -12.2 M3.9 -3.55 L4.6 -2.0 4.6 -1.4 4.6 -1.3 4.45 -1.25 Q4.35 -1.25 4.35 -1.3 L4.35 -1.5 4.25 -2.0 Q4.2 -2.7 3.65 -3.3 L3.6 -3.35 3.65 -3.55 3.9 -3.55 M27.8 -9.05 L27.8 -8.9 27.7 -8.8 27.65 -8.8 27.1 -8.9 25.7 -8.45 25.6 -8.35 25.4 -8.45 25.5 -8.7 27.1 -9.15 27.7 -9.05 27.8 -9.05 M23.45 -4.3 L23.55 -4.3 23.7 -4.3 23.7 -4.05 23.65 -4.05 Q22.8 -3.55 22.0 -3.55 L21.6 -3.55 21.45 -3.6 21.35 -3.7 21.35 -3.8 21.5 -3.95 21.6 -3.95 22.0 -3.85 Q22.7 -3.85 23.45 -4.3 M27.45 -0.15 L27.65 -0.05 27.65 0.05 26.45 1.25 25.85 1.5 25.7 1.4 25.6 1.3 25.7 1.15 25.75 1.05 26.25 0.9 27.3 -0.15 27.45 -0.2 27.45 -0.15 M16.75 3.45 L16.75 3.35 16.85 3.25 17.0 3.25 17.0 3.35 17.25 3.85 18.35 4.8 18.35 4.95 18.35 5.15 18.3 5.15 18.2 5.15 Q17.35 4.7 16.9 4.05 L16.75 3.45 M11.05 9.05 L11.85 8.9 12.0 8.9 12.1 9.05 12.1 9.15 12.0 9.2 11.9 9.3 11.85 9.3 11.25 9.4 Q10.65 9.55 10.15 10.05 L9.85 10.05 9.85 9.8 11.05 9.05 M1.9 4.2 L1.95 4.2 3.05 3.1 3.75 2.85 3.9 2.95 3.9 3.1 3.75 3.2 3.25 3.35 2.2 4.35 2.05 4.45 1.9 4.2" fill="#78ccdc" fill-rule="evenodd" stroke="none"/>
    <path d="M10.2 -18.55 L10.3 -18.55 10.4 -18.5 10.45 -18.5 10.65 -16.85 10.4 -16.2 Q10.4 -16.1 10.2 -16.1 L10.15 -16.2 10.15 -16.35 10.3 -16.85 10.15 -18.3 10.15 -18.5 10.2 -18.55 M5.3 -8.2 L5.8 -7.85 5.8 -7.7 5.7 -7.6 5.6 -7.5 5.55 -7.7 5.05 -7.95 3.65 -8.3 3.5 -8.35 3.5 -8.45 3.65 -8.65 5.3 -8.2 M21.95 -8.3 L21.85 -8.2 21.45 -7.85 20.75 -6.5 20.75 -6.4 20.6 -6.4 20.5 -6.6 Q20.65 -7.5 21.15 -8.1 L21.7 -8.45 21.75 -8.45 21.95 -8.35 21.95 -8.3 M20.75 6.15 L20.85 6.15 20.9 6.35 Q20.75 7.25 20.25 7.75 L19.65 8.2 19.45 8.1 19.45 8.05 19.55 7.95 20.0 7.5 20.65 6.25 20.75 6.15 M7.85 2.0 L7.85 2.1 6.55 2.95 5.9 3.1 5.7 3.1 5.7 2.95 5.7 2.85 5.9 2.85 6.45 2.65 7.6 1.9 7.65 1.75 7.85 1.8 7.85 2.0" fill="#f25194" fill-rule="evenodd" stroke="none"/>
    <path d="M11.9 -13.2 L12.15 -12.95 13.1 -12.9 13.8 -12.95 13.85 -12.95 14.05 -12.8 13.85 -12.6 13.1 -12.55 12.0 -12.7 11.65 -12.95 11.55 -13.05 11.55 -13.15 11.75 -13.2 11.9 -13.2 M19.4 -14.85 L19.3 -14.85 19.15 -14.9 19.15 -15.0 19.15 -15.1 20.3 -15.95 21.1 -16.0 21.15 -16.0 21.25 -15.95 21.35 -15.85 21.25 -15.75 21.15 -15.7 21.0 -15.7 20.4 -15.6 19.4 -14.85 M1.65 -5.3 L1.65 -5.15 Q1.55 -5.05 1.45 -5.05 L1.35 -5.05 0.7 -4.95 -0.35 -4.2 -0.4 -4.2 -0.5 -4.3 -0.6 -4.45 -0.5 -4.45 0.6 -5.25 1.35 -5.4 1.45 -5.4 1.65 -5.3 M21.95 -0.4 L22.1 -0.3 22.1 -0.2 22.0 -0.15 21.6 0.3 Q21.15 0.7 21.0 1.5 L20.9 1.55 20.75 1.65 20.65 1.5 Q20.9 0.55 21.45 -0.05 L21.95 -0.4 M27.2 -2.85 L27.2 -3.0 27.2 -3.55 26.6 -4.9 26.55 -4.95 26.6 -5.15 26.8 -5.15 26.85 -5.05 27.55 -3.6 27.55 -2.95 27.45 -2.85 27.4 -2.85 27.2 -2.85 M15.9 7.25 L16.65 8.7 16.75 9.4 16.65 9.45 16.5 9.55 16.4 9.4 16.4 9.3 16.35 8.7 15.65 7.5 15.55 7.45 15.65 7.25 15.9 7.25 M8.0 5.2 L8.1 5.05 Q8.1 4.95 8.25 4.95 L9.45 6.15 9.6 6.75 9.6 6.9 9.55 7.0 9.35 6.9 9.3 6.85 9.1 6.35 8.1 5.3 8.0 5.2" fill="#fbbc43" fill-rule="evenodd" stroke="none"/>
    <path d="M6.2 -15.6 L6.2 -15.35 5.95 -14.85 Q5.8 -14.15 5.95 -13.4 L5.95 -13.3 5.8 -13.2 5.6 -13.3 5.6 -13.4 Q5.45 -14.25 5.7 -15.0 L5.95 -15.5 6.05 -15.6 6.2 -15.6 M1.35 -1.25 L1.45 -1.4 1.55 -1.5 1.7 -1.3 Q1.9 -0.4 1.55 0.3 L1.2 0.9 1.1 0.95 0.95 0.8 1.05 0.65 1.3 0.1 1.35 -1.25 M24.0 -10.05 L23.9 -10.25 23.9 -10.4 24.0 -10.9 Q24.0 -11.6 23.55 -12.3 L23.55 -12.35 23.7 -12.55 23.9 -12.45 Q24.3 -11.6 24.3 -10.85 L24.25 -10.25 24.05 -10.05 24.0 -10.05 M23.2 2.65 L23.2 2.6 23.2 2.5 23.3 2.4 23.45 2.5 23.45 2.6 23.9 4.1 23.9 4.7 23.7 4.8 23.55 4.8 23.55 4.7 23.55 4.65 23.55 4.05 23.2 2.65 M11.85 5.4 L11.9 5.3 12.4 5.15 13.5 4.2 13.6 4.2 13.8 4.2 13.8 4.35 13.8 4.45 Q13.2 5.15 12.5 5.5 L11.9 5.65 11.85 5.65 11.75 5.5 11.85 5.4 M2.55 6.15 L2.55 6.05 2.75 6.05 2.8 6.15 3.15 6.6 Q3.65 7.0 4.45 7.25 L4.6 7.25 4.6 7.45 4.5 7.5 4.35 7.5 2.9 6.75 2.55 6.25 2.55 6.15" fill="#ffffff" fill-rule="evenodd" stroke="none"/>
    <path d="M25.85 -14.05 L25.4 -14.4 25.35 -14.65 25.85 -14.05" fill="#d3a166" fill-rule="evenodd" stroke="none"/>
    <path d="M16.75 -20.1 L13.1 -20.5 9.7 -20.2 8.75 -20.1 8.0 -19.75 Q6.05 -19.15 4.35 -18.15 L1.2 -15.6 Q-1.2 -13.2 -2.55 -10.15 -3.7 -7.1 -3.7 -3.7 -3.7 -0.8 -2.8 1.9 -1.85 4.55 -0.15 6.75 L0.1 7.6 Q0.25 8.2 0.85 8.55 L2.05 9.05 Q4.35 11.0 7.15 12.1 9.95 13.1 13.1 13.1 16.05 13.1 18.95 12.1 L19.8 12.3 20.3 12.2 Q20.9 12.1 21.25 11.6 L21.95 10.6 24.9 8.2 26.45 6.5 26.95 5.9 27.3 5.3 28.3 4.9 Q29.5 4.2 29.6 2.6 L29.5 0.05 Q29.9 -1.75 29.9 -3.7 29.9 -5.9 29.35 -8.05 L29.4 -8.35 Q29.85 -9.55 29.0 -10.9 28.3 -12.1 26.85 -13.4 L25.15 -15.45 24.4 -16.1 20.65 -18.75 19.75 -19.85 18.45 -20.5 18.2 -20.5 16.75 -20.1 M9.3 -7.5 Q10.8 -9.15 13.1 -9.15 15.3 -9.15 16.85 -7.5 18.45 -5.9 18.45 -3.7 18.45 -1.5 16.85 0.1 15.3 1.75 13.1 1.75 10.8 1.75 9.3 0.1 7.65 -1.5 7.65 -3.7 7.65 -5.9 9.3 -7.5" fill="none" stroke="#000000" stroke-linecap="round" stroke-linejoin="round" stroke-width="1.0"/>
    <path d="M18.35 -20.25 Q19.2 -20.1 19.8 -19.4 L20.9 -18.0 22.1 -16.35 Q22.85 -15.5 23.9 -15.0 L26.1 -13.65 27.9 -12.05 29.1 -10.4 Q29.5 -9.3 29.25 -8.35 28.8 -7.35 28.9 -5.25 L29.1 -1.4 29.35 0.8 29.35 2.6 Q29.25 4.05 28.15 4.7 L25.6 5.5 24.55 5.65 Q23.7 5.9 23.2 6.85 L22.35 8.9 21.6 10.9 Q21.0 11.85 20.3 11.95 L19.8 12.0 19.05 11.85 18.35 11.45 17.5 10.9 16.4 10.75 Q15.55 10.75 14.35 11.35 12.5 12.35 11.25 12.35 10.05 12.35 9.0 11.7 L7.6 10.25 Q7.0 9.75 5.95 9.4 L3.85 9.05 1.65 8.6 Q0.5 8.3 0.25 7.5 L0.1 6.25 0.2 5.15 0.25 3.8 Q0.0 2.95 -0.75 2.15 -2.3 0.95 -2.55 -0.65 -2.7 -2.15 -1.7 -3.6 -1.0 -4.65 -0.85 -5.9 L-0.75 -8.65 -0.85 -10.65 Q-0.85 -12.3 0.35 -13.4 L3.25 -15.25 4.35 -15.75 5.8 -16.85 6.65 -18.05 7.4 -19.15 8.85 -19.85 9.7 -19.95 10.55 -19.85 11.25 -19.6 12.15 -19.25 13.35 -19.0 13.5 -19.0 14.95 -19.25 16.35 -19.75 17.35 -20.1 18.2 -20.25 18.35 -20.25" fill="none" stroke="#000000" stroke-linecap="round" stroke-linejoin="round" stroke-width="0.05"/>
  </g>
</svg>
