<?xml version="1.0" encoding="UTF-8" standalone="no"?>
<svg xmlns:xlink="http://www.w3.org/1999/xlink" height="38.45px" width="121.3px" xmlns="http://www.w3.org/2000/svg">
  <g transform="matrix(1.0, 0.0, 0.0, 1.0, 14.25, 65.45)">
    <path d="M-12.95 -43.7 Q-10.55 -54.7 3.75 -61.2 7.0 -62.8 9.55 -63.55 19.8 -66.85 19.95 -58.15 L24.8 -46.35 Q14.6 -43.55 3.15 -36.85 -2.5 -33.5 -5.15 -37.8 -13.1 -39.05 -13.25 -41.95 M106.05 -37.6 Q105.9 -34.55 105.0 -32.45 103.85 -29.4 101.25 -28.0 95.05 -34.05 90.5 -37.55 83.5 -42.9 78.5 -44.85 L76.75 -45.45 Q80.1 -55.65 87.05 -59.2 88.15 -59.55 90.05 -58.4 92.85 -56.7 97.35 -51.6 104.1 -44.15 105.75 -38.75" fill="none" stroke="#000000" stroke-linecap="round" stroke-linejoin="round" stroke-width="2.0"/>
  </g>
</svg>
