<?xml version="1.0" encoding="UTF-8" standalone="no"?>
<svg xmlns:xlink="http://www.w3.org/1999/xlink" height="49.05px" width="52.0px" xmlns="http://www.w3.org/2000/svg">
  <g transform="matrix(1.0, 0.0, 0.0, 1.0, 20.35, 26.15)">
    <path d="M17.6 -16.2 Q17.9 -17.6 19.1 -18.45 20.3 -19.3 21.75 -19.05 23.15 -18.75 24.0 -17.55 24.8 -16.3 24.6 -14.9 24.3 -13.45 23.05 -12.65 21.85 -11.8 20.45 -12.05 19.0 -12.3 18.2 -13.55 17.3 -14.8 17.6 -16.2 M18.4 -16.15 Q18.15 -15.0 18.85 -14.0 19.5 -13.0 20.65 -12.8 21.85 -12.55 22.8 -13.25 23.75 -13.95 24.0 -15.1 24.2 -16.25 23.55 -17.25 22.9 -18.2 21.75 -18.45 20.55 -18.65 19.6 -18.0 18.55 -17.3 18.4 -16.15 M6.1 10.0 Q5.15 10.65 4.9 11.8 4.65 12.95 5.35 14.0 6.0 14.95 7.2 15.15 8.35 15.35 9.35 14.75 10.3 14.05 10.55 12.85 10.75 11.75 10.1 10.7 9.4 9.75 8.3 9.55 7.1 9.35 6.1 10.0 M5.6 9.5 Q6.85 8.7 8.3 8.95 9.7 9.2 10.55 10.4 11.35 11.65 11.1 13.1 10.85 14.5 9.6 15.35 8.45 16.15 6.95 15.9 5.5 15.65 4.7 14.4 3.85 13.15 4.15 11.75 4.45 10.35 5.6 9.5 M-9.25 -16.15 Q-10.45 -16.35 -11.4 -15.7 -12.4 -15.05 -12.6 -13.85 -12.85 -12.7 -12.15 -11.7 -11.5 -10.75 -10.3 -10.5 -9.2 -10.3 -8.15 -11.0 -7.2 -11.65 -6.95 -12.8 -6.8 -13.95 -7.45 -14.95 -8.15 -15.9 -9.25 -16.15 M-9.2 -16.75 Q-7.8 -16.5 -6.95 -15.25 -6.1 -14.05 -6.4 -12.6 -6.7 -11.2 -7.95 -10.35 -9.1 -9.55 -10.55 -9.8 -11.95 -10.05 -12.8 -11.25 -13.65 -12.55 -13.35 -13.95 -13.1 -15.35 -11.9 -16.2 -10.65 -17.0 -9.2 -16.75" fill="#e1e9e6" fill-rule="evenodd" stroke="none"/>
    <path d="M17.6 -16.2 Q17.3 -14.8 18.2 -13.55 19.0 -12.3 20.45 -12.05 21.85 -11.8 23.05 -12.65 24.3 -13.45 24.6 -14.9 24.8 -16.3 24.0 -17.55 23.15 -18.75 21.75 -19.05 20.3 -19.3 19.1 -18.45 17.9 -17.6 17.6 -16.2 M15.0 -16.8 Q15.45 -19.35 17.6 -20.8 19.7 -22.25 22.3 -21.8 24.85 -21.3 26.3 -19.15 27.8 -17.05 27.3 -14.5 26.85 -11.95 24.7 -10.5 22.5 -9.0 19.95 -9.5 17.45 -10.0 15.95 -12.1 14.5 -14.25 15.0 -16.8 M1.55 11.2 Q2.0 8.6 4.15 7.15 6.3 5.75 8.8 6.2 11.35 6.65 12.85 8.8 14.3 10.95 13.85 13.5 13.3 16.05 11.2 17.5 9.05 19.0 6.55 18.5 4.0 18.0 2.55 15.9 1.05 13.7 1.55 11.2 M5.6 9.5 Q4.45 10.35 4.15 11.75 3.85 13.15 4.7 14.4 5.5 15.65 6.95 15.9 8.45 16.15 9.6 15.35 10.85 14.5 11.1 13.1 11.35 11.65 10.55 10.4 9.7 9.2 8.3 8.95 6.85 8.7 5.6 9.5 M-9.2 -16.75 Q-10.65 -17.0 -11.9 -16.2 -13.1 -15.35 -13.35 -13.95 -13.65 -12.55 -12.8 -11.25 -11.95 -10.05 -10.55 -9.8 -9.1 -9.55 -7.95 -10.35 -6.7 -11.2 -6.4 -12.6 -6.1 -14.05 -6.95 -15.25 -7.8 -16.5 -9.2 -16.75 M-8.7 -19.45 Q-6.15 -19.05 -4.7 -16.85 -3.2 -14.75 -3.7 -12.2 -4.15 -9.65 -6.35 -8.15 -8.5 -6.7 -11.0 -7.2 -13.55 -7.7 -15.0 -9.8 -16.45 -11.95 -15.95 -14.5 -15.5 -17.05 -13.35 -18.5 -11.25 -20.0 -8.7 -19.45" fill="#2f3130" fill-rule="evenodd" stroke="none"/>
    <path d="M18.4 -16.15 Q18.55 -17.3 19.6 -18.0 20.55 -18.65 21.75 -18.45 22.9 -18.2 23.55 -17.25 24.2 -16.25 24.0 -15.1 23.75 -13.95 22.8 -13.25 21.85 -12.55 20.65 -12.8 19.5 -13.0 18.85 -14.0 18.15 -15.0 18.4 -16.15 M19.05 -14.2 Q19.7 -13.35 20.65 -13.15 21.7 -13.0 22.55 -13.55 23.4 -14.15 23.6 -15.15 23.85 -16.2 23.25 -17.05 22.6 -17.9 21.6 -18.1 20.65 -18.25 19.7 -17.7 18.9 -17.1 18.7 -16.1 18.45 -15.1 19.05 -14.2 M6.1 10.0 Q7.1 9.35 8.3 9.55 9.4 9.75 10.1 10.7 10.75 11.75 10.55 12.85 10.3 14.05 9.35 14.75 8.35 15.35 7.2 15.15 6.0 14.95 5.35 14.0 4.65 12.95 4.9 11.8 5.15 10.65 6.1 10.0 M6.25 10.25 Q5.45 10.85 5.2 11.9 5.0 12.85 5.6 13.7 6.2 14.6 7.2 14.8 8.25 14.95 9.1 14.4 9.95 13.8 10.15 12.85 10.35 11.8 9.75 10.95 9.15 10.05 8.1 9.9 7.15 9.7 6.25 10.25 M-9.4 -15.8 L-11.25 -15.4 Q-12.05 -14.8 -12.3 -13.85 -12.5 -12.85 -11.9 -11.95 -11.3 -11.1 -10.3 -10.85 -9.25 -10.75 -8.4 -11.3 -7.55 -11.85 -7.4 -12.9 -7.15 -13.9 -7.8 -14.75 -8.4 -15.6 -9.4 -15.8 M-9.25 -16.15 Q-8.15 -15.9 -7.45 -14.95 -6.8 -13.95 -6.95 -12.8 -7.2 -11.65 -8.15 -11.0 -9.2 -10.3 -10.3 -10.5 -11.5 -10.75 -12.15 -11.7 -12.85 -12.7 -12.6 -13.85 -12.4 -15.05 -11.4 -15.7 -10.45 -16.35 -9.25 -16.15" fill="#bbc2bf" fill-rule="evenodd" stroke="none"/>
    <path d="M15.0 -16.8 Q14.5 -14.25 15.95 -12.1 17.45 -10.0 19.95 -9.5 22.5 -9.0 24.7 -10.5 26.85 -11.95 27.3 -14.5 27.8 -17.05 26.3 -19.15 24.85 -21.3 22.3 -21.8 19.7 -22.25 17.6 -20.8 15.45 -19.35 15.0 -16.8 M19.05 -14.2 Q19.7 -13.35 20.65 -13.15 21.7 -13.0 22.55 -13.55 23.4 -14.15 23.6 -15.15 23.85 -16.2 23.25 -17.05 22.6 -17.9 21.6 -18.1 20.65 -18.25 19.7 -17.7 18.9 -17.1 18.7 -16.1 18.45 -15.1 19.05 -14.2 M12.9 -10.05 Q11.05 -12.75 7.85 -13.35 4.65 -13.95 1.95 -12.05 -0.8 -10.25 -1.4 -7.05 -2.0 -3.85 -0.2 -1.1 1.7 1.6 4.9 2.25 8.15 2.8 10.85 1.0 13.55 -0.85 14.15 -4.05 14.75 -7.3 12.9 -10.05 M1.55 11.2 Q1.05 13.7 2.55 15.9 4.0 18.0 6.55 18.5 9.05 19.0 11.2 17.5 13.3 16.05 13.85 13.5 14.3 10.95 12.85 8.8 11.35 6.65 8.8 6.2 6.3 5.75 4.15 7.15 2.0 8.6 1.55 11.2 M6.25 10.25 Q5.45 10.85 5.2 11.9 5.0 12.85 5.6 13.7 6.2 14.6 7.2 14.8 8.25 14.95 9.1 14.4 9.95 13.8 10.15 12.85 10.35 11.8 9.75 10.95 9.15 10.05 8.1 9.9 7.15 9.7 6.25 10.25 M-9.4 -15.8 L-11.25 -15.4 Q-12.05 -14.8 -12.3 -13.85 -12.5 -12.85 -11.9 -11.95 -11.3 -11.1 -10.3 -10.85 -9.25 -10.75 -8.4 -11.3 -7.55 -11.85 -7.4 -12.9 -7.15 -13.9 -7.8 -14.75 -8.4 -15.6 -9.4 -15.8 M-8.7 -19.45 Q-11.25 -20.0 -13.35 -18.5 -15.5 -17.05 -15.95 -14.5 -16.45 -11.95 -15.0 -9.8 -13.55 -7.7 -11.0 -7.2 -8.5 -6.7 -6.35 -8.15 -4.15 -9.65 -3.7 -12.2 -3.2 -14.75 -4.7 -16.85 -6.15 -19.05 -8.7 -19.45" fill="none" stroke="#000000" stroke-linecap="round" stroke-linejoin="round" stroke-width="1.0"/>
    <path d="M15.65 -23.65 Q19.0 -25.95 22.9 -25.2 26.9 -24.45 29.2 -21.1 31.45 -17.8 30.7 -13.85 29.95 -9.85 26.6 -7.6 23.9 -5.75 20.85 -5.9 18.55 -5.05 16.65 -3.35 14.15 -0.8 14.4 2.65 14.4 4.5 15.2 6.3 L15.7 6.9 Q18.0 10.25 17.25 14.25 16.5 18.2 13.15 20.45 9.8 22.75 5.85 21.95 1.9 21.25 -0.4 17.9 -2.65 14.6 -1.9 10.6 L-1.05 8.0 Q-0.1 5.5 -0.55 3.0 -1.4 -0.25 -4.0 -2.15 -6.25 -3.7 -8.95 -3.55 L-11.7 -3.75 Q-15.65 -4.45 -17.95 -7.8 -20.15 -11.15 -19.4 -15.15 -18.7 -19.05 -15.35 -21.35 -12.05 -23.6 -8.05 -22.9 -4.1 -22.15 -1.8 -18.8 L-1.65 -18.55 -1.6 -18.45 Q-0.45 -16.8 2.55 -15.7 5.5 -14.9 8.45 -16.1 10.9 -17.25 12.0 -19.3 13.1 -22.0 15.65 -23.65" fill="none" stroke="#000000" stroke-linecap="round" stroke-linejoin="round" stroke-width="1.5"/>
  </g>
</svg>
