<?xml version="1.0" encoding="UTF-8" standalone="no"?>
<svg xmlns:xlink="http://www.w3.org/1999/xlink" height="52.95px" width="37.2px" xmlns="http://www.w3.org/2000/svg">
  <g transform="matrix(1.0, 0.0, 0.0, 1.0, 20.0, 12.2)">
    <path d="M-19.1 39.6 L-11.15 32.85 -19.25 40.0 -19.1 39.6" fill="#3cff8e" fill-rule="evenodd" stroke="none"/>
    <path d="M-19.15 39.6 L-18.75 38.3 -19.1 39.6 -19.15 39.6" fill="#00561f" fill-rule="evenodd" stroke="none"/>
    <path d="M-5.15 -9.25 L-9.9 -5.2 M12.95 11.9 L16.45 2.0 4.95 -11.45 -5.15 -9.25 M-19.1 39.6 L-18.75 38.3 M-11.15 32.85 L12.95 11.9 M-19.1 39.6 L-19.25 40.0 -11.15 32.85" fill="none" stroke="#000000" stroke-linecap="round" stroke-linejoin="round" stroke-opacity="0.56078434" stroke-width="1.5"/>
    <path d="M-9.9 -5.2 L4.5 11.6 5.5 12.75 12.95 11.9 10.7 9.3 -3.2 -7.0 -5.15 -9.25 M10.7 9.3 L12.75 2.9 3.2 -8.3 -3.2 -7.0 M-18.75 38.3 L-19.15 39.6 M-18.75 38.3 L-16.55 30.15 4.5 11.6" fill="none" stroke="#000000" stroke-linecap="round" stroke-linejoin="round" stroke-width="1.5"/>
  </g>
</svg>
