<?xml version="1.0" encoding="UTF-8" standalone="no"?>
<svg xmlns:xlink="http://www.w3.org/1999/xlink" height="209.85px" width="142.9px" xmlns="http://www.w3.org/2000/svg">
  <g transform="matrix(1.0, 0.0, 0.0, 1.0, 117.6, 74.65)">
    <path d="M20.5 13.25 L20.55 13.25 20.4 13.35 20.5 13.25" fill="url(#gradient0)" fill-rule="evenodd" stroke="none"/>
    <path d="M-0.7 101.05 Q-14.6 120.05 -34.75 133.9 -29.6 129.8 -24.9 124.55 -13.4 115.0 -4.4 103.45 L-0.7 101.05" fill="#58f677" fill-rule="evenodd" stroke="none"/>
    <path d="M-34.75 133.9 L-35.6 134.45 Q-17.3 115.65 -9.75 95.75 L-9.75 95.7 Q-3.4 76.35 -2.4 61.2 2.2 67.3 5.25 66.55 5.8 63.45 -2.0 57.25 L-5.1 54.8 Q-8.05 52.15 -9.3 49.65 -9.25 45.95 -5.8 41.05 -3.65 38.0 -0.2 34.5 2.85 30.65 -2.2 33.05 3.3 18.2 -2.05 2.0 -9.15 -13.6 -23.35 -20.65 -18.0 -22.35 -22.85 -23.1 L-30.65 -23.9 Q-37.15 -25.15 -39.85 -27.95 -40.75 -31.0 -40.15 -35.6 L-39.65 -38.55 Q-38.15 -48.35 -40.7 -50.25 -43.45 -48.7 -42.65 -41.1 -53.75 -51.55 -71.5 -61.4 -75.25 -63.25 -79.3 -64.8 -95.8 -71.1 -116.85 -72.15 L-115.8 -72.3 Q-97.3 -75.05 -79.4 -73.05 -69.05 -71.95 -58.9 -69.2 -64.0 -68.55 -63.75 -65.85 -61.6 -62.7 -53.0 -58.4 -44.6 -54.1 -42.55 -56.3 -40.0 -60.1 -49.2 -66.2 L-48.8 -66.05 Q-42.85 -64.4 -36.9 -61.1 L-34.1 -59.45 Q-28.7 -55.5 -29.05 -53.55 -30.4 -44.6 -28.3 -40.35 -26.0 -35.4 -16.15 -31.9 L-6.25 -28.6 Q6.0 -24.2 14.6 -19.15 4.3 -20.85 -5.8 -20.25 L-11.5 -19.75 Q-2.2 -12.15 3.4 -0.15 7.45 12.45 5.85 24.35 L11.05 20.3 Q18.45 13.95 24.55 6.05 21.5 16.25 14.95 28.8 L10.7 36.4 Q5.85 45.7 7.55 50.85 8.95 55.4 16.0 61.05 17.55 62.2 16.35 68.75 L14.8 73.7 Q12.85 79.1 10.05 83.65 L9.85 84.0 Q11.45 77.35 10.35 74.4 9.7 72.6 8.0 72.2 5.05 72.0 1.75 80.9 -1.55 89.9 -1.0 93.65 0.65 95.85 4.85 92.8 L-0.7 101.05 Q-14.6 120.05 -34.75 133.9" fill="none" stroke="#000000" stroke-linecap="round" stroke-linejoin="round" stroke-width="1.5"/>
    <path d="M-4.4 103.45 L-10.8 106.85 -9.75 95.75 M-42.55 -56.3 L-32.25 -50.05 -36.9 -61.1 M-79.3 -64.8 L-69.15 -65.7 -79.4 -73.05 M-6.25 -28.6 L-16.0 -25.1 -5.8 -20.25 M-30.65 -23.9 L-30.2 -34.95 -40.15 -35.6 M11.05 20.3 L2.3 37.05 14.95 28.8 M14.8 73.7 L10.25 61.3 10.35 74.4 M-0.7 101.05 L-4.4 103.45 M-5.1 54.8 L1.1 47.15 -5.8 41.05" fill="none" stroke="#000000" stroke-linecap="round" stroke-linejoin="round" stroke-opacity="0.56078434" stroke-width="1.5"/>
  </g>
  <defs>
    <linearGradient gradientTransform="matrix(0.0151, 0.0037, 0.0183, -0.0756, 2.1, 65.55)" gradientUnits="userSpaceOnUse" id="gradient0" spreadMethod="pad" x1="-819.2" x2="819.2">
      <stop offset="0.0" stop-color="#01512b"/>
      <stop offset="1.0" stop-color="#019c64"/>
    </linearGradient>
  </defs>
</svg>
