<?xml version="1.0" encoding="UTF-8" standalone="no"?>
<svg xmlns:xlink="http://www.w3.org/1999/xlink" height="183.75px" width="61.9px" xmlns="http://www.w3.org/2000/svg">
  <g transform="matrix(1.0, 0.0, 0.0, 1.0, 32.35, 154.25)">
    <path d="M-7.15 -18.2 L-7.05 -17.6 -6.8 -18.2 -5.35 -22.15 -3.7 -22.85 -3.7 -18.2 -3.7 -17.5 -1.5 -16.05 -1.25 -16.0 -1.45 -16.05 0.95 -17.5 0.95 -18.2 0.95 -22.8 1.3 -22.65 1.35 -22.65 2.55 -22.15 4.0 -18.2 4.15 -17.6 4.35 -18.2 9.45 -18.2 6.4 -12.25 2.45 -10.8 1.9 12.75 4.5 17.45 1.45 27.9 -1.5 28.75 -4.25 27.9 -7.4 17.45 -4.7 12.75 -5.25 -10.8 -9.2 -12.25 -12.4 -18.2 -7.15 -18.2 M0.95 -18.2 L4.0 -18.2 0.95 -18.2 M0.25 24.65 L1.35 20.25 -4.1 20.25 -2.95 24.65 -1.45 25.65 0.25 24.65 M5.15 -14.3 L6.55 -16.15 1.15 -16.15 -1.5 -14.35 -3.95 -16.15 -9.35 -16.15 -8.0 -14.3 -5.2 -14.3 -1.5 -12.25 2.3 -14.3 5.15 -14.3 M2.45 -10.8 L-5.25 -10.8 2.45 -10.8 M1.9 12.75 L-4.7 12.75 1.9 12.75 M-6.8 -18.2 L-3.7 -18.2 -6.8 -18.2" fill="#313331" fill-rule="evenodd" stroke="none"/>
    <path d="M4.35 -18.2 L6.45 -27.35 28.8 -19.8 16.55 -42.05 6.75 -38.25 6.75 -43.25 16.35 -48.85 10.55 -88.95 7.2 -80.7 7.2 -115.2 9.7 -125.8 -1.45 -153.5 -12.55 -125.8 -10.0 -115.2 -10.0 -80.7 -13.3 -88.95 -19.2 -48.85 -9.45 -43.25 -9.45 -38.25 -19.4 -42.05 -31.6 -19.8 -9.25 -27.35 -7.15 -18.2 -12.4 -18.2 -9.2 -12.25 -5.25 -10.8 2.45 -10.8 1.9 12.75 4.5 17.45 1.45 27.9 -1.5 28.75 -4.25 27.9 -7.4 17.45 -4.7 12.75 -5.25 -10.8 M-6.8 -18.2 L-5.35 -22.15 -3.7 -22.85 -1.5 -23.7 -1.45 -23.75 0.6 -22.9 0.95 -22.8 1.3 -22.65 1.35 -22.65 2.55 -22.15 4.0 -18.2 0.95 -18.2 0.95 -22.8 M4.35 -18.2 L9.45 -18.2 6.4 -12.25 2.45 -10.8 M-1.45 -16.05 L0.95 -17.5 0.95 -18.2 M-3.7 -22.85 L-3.7 -18.2 -3.7 -17.5 -1.5 -16.05 -1.45 -16.05 -1.25 -16.0 -1.5 -16.05 M-3.7 -18.2 L-6.8 -18.2 M-4.7 12.75 L1.9 12.75" fill="none" stroke="#000000" stroke-linecap="round" stroke-linejoin="round" stroke-width="1.5"/>
  </g>
</svg>
