<?xml version="1.0" encoding="UTF-8" standalone="no"?>
<svg xmlns:xlink="http://www.w3.org/1999/xlink" height="86.45px" width="84.9px" xmlns="http://www.w3.org/2000/svg">
  <g transform="matrix(1.0, 0.0, 0.0, 1.0, 8.0, 83.25)">
    <path d="M13.75 -25.4 Q12.4 -26.85 11.35 -28.4 9.6 -30.95 8.55 -33.85 2.75 -35.7 -4.2 -38.7 L-4.25 -38.7 Q1.0 -43.2 7.1 -47.15 8.0 -53.85 12.15 -59.35 11.3 -63.55 10.75 -67.85 L10.65 -68.3 10.65 -68.35 Q15.05 -67.8 19.65 -66.4 23.55 -68.8 28.05 -69.75 30.9 -75.85 35.1 -81.85 L35.5 -82.45 35.5 -82.5 Q39.55 -75.4 41.7 -69.3 47.55 -67.6 52.4 -63.05 55.8 -59.85 57.9 -56.0 L58.05 -56.15 Q66.15 -54.4 76.15 -49.65 68.6 -43.45 60.7 -39.4 60.2 -35.85 58.85 -32.7 62.35 -25.65 63.65 -18.85 L63.6 -18.9 63.15 -18.95 Q55.7 -19.35 48.7 -20.65 44.85 -18.05 40.25 -17.0 35.85 -8.35 30.35 -1.0 L30.15 -1.35 30.1 -1.55 Q25.25 -11.0 22.6 -18.6 L22.6 -18.7 Q19.95 -20.0 17.55 -21.85 L15.6 -23.5 M60.7 -39.4 L60.1 -39.05 Q58.6 -39.25 57.25 -40.2 55.8 -41.35 54.8 -43.25 L54.65 -43.6 Q54.05 -44.75 53.6 -46.3 L53.65 -47.15 53.95 -49.45 Q54.5 -51.8 55.65 -53.7 56.6 -55.0 57.9 -56.0 M19.65 -66.4 Q17.85 -65.25 16.15 -63.75 L14.85 -62.45 14.15 -61.75 13.55 -61.05 12.15 -59.35 M41.7 -69.3 L35.5 -70.3 33.0 -70.3 31.25 -70.15 29.65 -70.0 28.05 -69.75 M7.1 -47.15 L6.9 -43.75 6.9 -42.4 6.95 -41.75 Q7.05 -39.7 7.4 -37.75 7.85 -35.75 8.55 -33.85 M22.6 -18.7 Q23.1 -20.45 24.6 -21.6 L25.0 -21.95 Q26.1 -22.65 27.7 -23.15 L30.75 -23.85 33.45 -23.15 Q35.5 -22.4 37.1 -21.0 39.0 -19.45 40.3 -17.1 L40.25 -17.0 M48.7 -20.65 L51.6 -22.85 52.95 -24.15 53.65 -24.9 55.75 -27.4 Q57.65 -29.9 58.85 -32.7" fill="none" stroke="#000000" stroke-linecap="round" stroke-linejoin="round" stroke-width="1.5"/>
    <path d="M15.6 -23.5 L14.9 -22.7 Q15.75 -21.55 15.85 -19.95 15.9 -17.75 14.35 -16.2 12.9 -14.7 10.8 -14.65 9.35 -14.55 8.3 -15.2 L5.35 -12.1 Q5.85 -11.2 5.95 -10.1 6.2 -8.0 4.8 -6.3 3.9 -5.15 2.65 -4.75 L2.8 -4.3 9.1 -4.9 Q9.65 -4.95 10.05 -4.6 L10.5 -3.75 Q10.55 -3.2 10.2 -2.8 9.9 -2.4 9.35 -2.35 L3.1 -1.85 Q2.95 -0.3 1.95 0.85 0.6 2.45 -1.6 2.7 -3.7 2.9 -5.3 1.5 L-6.25 0.5 -7.0 0.25 -7.5 -0.6 Q-7.55 -1.1 -7.2 -1.5 L-7.1 -1.55 -7.2 -2.0 Q-7.35 -4.1 -5.95 -5.8 -5.05 -6.85 -3.8 -7.25 L-4.3 -9.1 Q-4.6 -11.2 -3.15 -12.9 -1.85 -14.55 0.25 -14.75 2.15 -14.95 3.7 -13.95 L6.35 -16.85 Q5.45 -18.05 5.45 -19.65 5.4 -21.75 6.9 -23.3 8.35 -24.85 10.55 -24.95 11.8 -25.0 12.9 -24.45 L13.75 -25.4 13.8 -25.5 14.7 -25.85 15.7 -25.5 Q16.1 -25.1 16.1 -24.6 16.1 -24.05 15.75 -23.65 L15.6 -23.5 M10.55 -51.2 L9.95 -50.65 20.05 -48.2 Q20.3 -50.7 17.1 -53.55 13.0 -53.75 10.55 -51.2 M29.75 -58.8 L32.35 -58.45 34.8 -57.3 35.65 -56.55 Q37.7 -54.65 38.1 -52.0 L38.25 -50.85 Q38.4 -47.45 36.0 -44.9 34.45 -43.2 32.3 -42.6 L30.3 -42.25 29.1 -42.4 27.45 -42.7 Q25.8 -43.2 24.45 -44.55 L23.35 -45.65 Q22.55 -46.8 22.1 -48.1 L21.8 -50.2 21.8 -51.35 21.9 -52.1 Q22.35 -54.35 24.0 -56.15 25.65 -57.9 27.75 -58.45 L29.75 -58.8 M37.05 -24.85 L31.1 -37.85 Q33.9 -37.85 38.05 -33.85 39.5 -28.6 37.05 -24.85 M12.9 -24.45 L14.15 -23.55 14.9 -22.7 M11.3 -22.7 Q11.15 -22.4 11.15 -22.0 11.15 -21.5 11.6 -21.05 12.0 -20.7 12.55 -20.7 L13.35 -21.05 12.7 -21.95 Q12.05 -22.55 11.3 -22.7 L10.6 -22.75 Q9.3 -22.7 8.5 -21.8 7.65 -20.9 7.7 -19.7 7.7 -19.05 7.95 -18.5 L8.3 -18.85 Q8.65 -19.2 9.1 -19.25 L10.05 -18.95 Q10.4 -18.6 10.4 -18.05 L10.1 -17.15 9.9 -16.95 10.75 -16.8 Q12.0 -16.8 12.8 -17.7 13.65 -18.6 13.6 -19.85 L13.35 -21.05 M7.95 -18.5 L6.35 -16.85 M9.9 -16.95 L8.3 -15.2 M3.7 -13.95 L2.1 -12.3 Q1.75 -11.9 1.75 -11.35 1.8 -10.9 2.15 -10.55 2.55 -10.15 3.05 -10.15 L3.75 -10.45 3.9 -10.65 5.35 -12.1 M3.75 -10.45 L3.75 -9.95 Q3.9 -8.7 3.1 -7.7 2.3 -6.75 1.1 -6.7 L1.0 -6.65 0.25 -6.7 -1.2 -4.85 Q-0.6 -4.6 0.15 -4.5 L1.35 -4.5 2.65 -4.75 M0.25 -6.7 L0.45 -6.95 0.55 -6.95 0.75 -7.85 Q0.7 -8.35 0.25 -8.7 L-0.7 -8.95 Q-1.15 -8.9 -1.45 -8.55 L-1.8 -8.1 -3.2 -6.4 -7.1 -1.55 M1.0 -6.65 L0.55 -6.95 M2.8 -4.3 L0.4 -4.1 0.1 -4.1 -0.7 -3.65 Q-1.05 -3.2 -1.0 -2.7 -0.95 -2.15 -0.55 -1.85 -0.15 -1.55 0.35 -1.6 L0.9 -1.65 3.1 -1.85 M0.15 -4.5 L0.4 -4.1 M-1.2 -4.85 L-4.55 -0.8 -3.9 -0.15 Q-3.0 0.65 -1.75 0.5 -0.55 0.4 0.25 -0.6 L0.9 -1.65 M2.1 -12.3 L0.55 -12.6 Q-0.7 -12.45 -1.55 -11.5 -2.25 -10.55 -2.1 -9.3 L-1.8 -8.1 M-3.2 -6.4 L-3.8 -7.25 M-6.25 0.5 L-6.05 0.5 Q-5.6 0.45 -5.25 0.1 L-4.55 -0.8" fill="none" stroke="#000000" stroke-linecap="round" stroke-linejoin="round" stroke-width="1.0"/>
    <path d="M22.65 -51.65 L25.9 -53.8 26.1 -57.05 M25.9 -53.8 L36.25 -54.0 M28.9 -43.7 L25.9 -53.8" fill="none" stroke="#000000" stroke-linecap="round" stroke-linejoin="round" stroke-opacity="0.49803922" stroke-width="1.0"/>
  </g>
</svg>
