<?xml version="1.0" encoding="UTF-8" standalone="no"?>
<svg xmlns:xlink="http://www.w3.org/1999/xlink" height="174.15px" width="15.65px" xmlns="http://www.w3.org/2000/svg">
  <g transform="matrix(1.0, 0.0, 0.0, 1.0, 10.45, 147.25)">
    <path d="M-9.7 -15.15 L-9.7 -22.0 -9.7 -24.65 -8.5 -23.85 -8.5 -75.65 -8.5 -146.5 3.15 -126.65 3.15 -16.25 4.45 -15.45 4.45 -12.15 1.95 -12.15 1.95 -11.6 1.95 -7.5 1.95 2.9 1.95 7.5 1.95 17.55 1.95 23.4 1.0 23.4 0.6 26.15 -6.1 26.15 -6.1 25.95 -6.4 23.45 M-3.35 -12.15 L-7.15 -12.15 -7.15 23.4 M1.95 -12.15 L1.3 -12.15 1.95 -11.6 M-8.5 -23.85 L-2.7 -20.05 -2.7 -69.0 -8.5 -75.65 M-7.15 -12.15 L-9.7 -12.15 -9.7 -14.85 M3.15 -16.25 L-2.7 -20.05 M1.3 -12.15 L-3.35 -12.15" fill="none" stroke="#000000" stroke-linecap="round" stroke-linejoin="round" stroke-width="1.5"/>
    <path d="M-6.4 23.45 L-3.35 23.4 -3.35 -12.15 M-9.7 -14.85 L-1.6 -14.85 -1.85 -17.3 -9.7 -22.0 M1.95 2.9 L-1.15 -0.4 -1.15 -10.45 1.95 -7.5 M1.95 17.55 L-1.15 14.2 -1.15 4.25 1.95 7.5 M1.0 23.4 L-3.35 23.4" fill="none" stroke="#000000" stroke-linecap="round" stroke-linejoin="round" stroke-width="1.0"/>
  </g>
</svg>
