<?xml version="1.0" encoding="UTF-8" standalone="no"?>
<svg xmlns:xlink="http://www.w3.org/1999/xlink" height="89.15px" width="76.9px" xmlns="http://www.w3.org/2000/svg">
  <g transform="matrix(1.0, 0.0, 0.0, 1.0, 11.8, 75.0)">
    <path d="M45.65 -10.05 Q50.9 -13.8 54.5 -19.8 61.45 -31.3 58.2 -44.35 56.9 -49.75 54.15 -54.15 L52.0 -57.2 51.8 -57.45 Q49.1 -60.65 45.5 -63.2 L45.25 -63.35 43.5 -64.45 Q37.55 -68.0 31.15 -68.85 36.3 -67.7 41.15 -64.75 53.15 -57.55 56.5 -43.95 59.85 -30.4 52.65 -18.4 49.7 -13.5 45.65 -10.05 40.75 -6.55 34.45 -5.0 21.4 -1.8 9.85 -8.75 3.15 -12.75 -0.75 -18.95 L-1.05 -19.5 -1.4 -20.35 -0.85 -18.0 -0.75 -18.0 -0.25 -18.15 0.25 -16.2 1.7 -10.3 1.8 -9.85 2.3 -7.85 Q4.6 -6.0 7.25 -4.4 20.55 3.65 35.7 -0.05 50.85 -3.8 58.9 -17.15 66.9 -30.45 63.15 -45.6 59.4 -60.75 46.15 -68.8 32.8 -76.8 17.65 -73.05 2.5 -69.35 -5.5 -56.05 -13.6 -42.7 -9.85 -27.55 -8.8 -23.35 -7.0 -19.7 L-1.7 -21.0 -4.45 -27.25 -4.9 -28.8 Q-8.15 -41.9 -1.15 -53.4 5.8 -64.9 18.85 -68.1 25.2 -69.65 31.15 -68.85 M38.35 -60.05 Q48.4 -54.05 51.2 -42.65 54.0 -31.3 47.95 -21.3 41.9 -11.3 30.5 -8.5 19.15 -5.7 9.15 -11.7 -0.9 -17.7 -3.7 -29.05 -6.5 -40.45 -0.45 -50.45 5.6 -60.55 16.95 -63.35 28.35 -66.15 38.35 -60.05 M3.4 -3.4 L3.35 -3.75 -1.55 -5.75 -1.6 -5.8 -5.0 -1.75 -4.9 -1.35 0.0 0.7 3.4 -3.4 4.95 2.7 5.05 3.1 6.55 9.15 7.05 11.3 6.5 11.65 5.9 11.95 5.4 12.2 Q3.8 12.95 2.05 13.25 L-1.25 13.35 -1.8 11.15 -3.25 5.15 -3.4 4.7 -4.9 -1.35 M3.35 -3.75 L2.3 -7.85 M4.95 2.7 L0.0 0.7 -3.4 4.7 M6.55 9.15 L1.6 7.2 -1.8 11.15 M-3.25 5.15 L1.6 7.2 5.05 3.1 M-1.7 -21.0 L-1.6 -21.05 -1.4 -20.35 M-7.0 -19.7 L-8.65 -19.3 -7.9 -16.25 -5.5 -16.85 -5.4 -16.85 -0.85 -18.0 M-7.9 -16.25 L-8.55 -16.1 -8.1 -14.25 -3.2 -12.25 0.25 -16.2 M1.7 -10.3 L-3.2 -12.25 -6.6 -8.25 -6.5 -7.8 -1.6 -5.8 -1.55 -5.85 1.8 -9.85 M-6.5 -7.8 L-5.0 -1.75 M-6.6 -8.25 L-8.1 -14.25" fill="none" stroke="#000000" stroke-linecap="round" stroke-linejoin="round" stroke-width="1.5"/>
  </g>
</svg>
