<?xml version="1.0" encoding="UTF-8" standalone="no"?>
<svg xmlns:xlink="http://www.w3.org/1999/xlink" height="59.85px" width="47.7px" xmlns="http://www.w3.org/2000/svg">
  <g transform="matrix(1.0, 0.0, 0.0, 1.0, 33.5, 40.2)">
    <path d="M-5.85 16.6 L-2.95 16.4 Q-1.5 16.7 -0.35 18.3 L-1.15 18.65 Q-3.95 19.45 -5.95 17.45 L-5.85 16.6" fill="#62524d" fill-rule="evenodd" stroke="none"/>
    <path d="M-0.65 -30.6 Q0.3 -32.8 2.2 -33.55 9.6 -32.1 7.6 -23.65 L4.95 -27.0 4.25 -27.7 Q4.55 -29.45 3.15 -30.55 1.7 -31.5 -0.65 -30.6 M-8.45 -15.05 Q-8.15 -17.9 -5.45 -17.4 L-3.95 -16.9 Q1.35 -14.6 7.5 -6.05 L9.35 -3.55 Q9.05 13.5 -0.35 18.3 -1.5 16.7 -2.95 16.4 L-5.85 16.6 Q-5.55 15.05 -5.8 14.05 -6.45 10.95 -6.25 8.4 -5.35 1.1 -6.1 -4.5 -7.5 -12.45 -10.95 -14.25 -15.2 -16.55 -18.05 -13.7 -22.55 -8.6 -19.1 -0.05 -20.5 -0.75 -21.65 -2.35 -25.35 -7.85 -21.95 -14.1 -19.9 -18.35 -16.35 -18.55 -12.9 -18.8 -8.45 -15.05 M-4.4 -14.6 Q-2.15 -9.4 -1.1 -2.75 -2.15 -9.4 -4.4 -14.6 M-1.1 -0.1 Q-1.15 6.45 -2.6 13.85 -1.15 6.45 -1.1 -0.1" fill="#43230a" fill-opacity="0.20784314" fill-rule="evenodd" stroke="none"/>
    <path d="M-0.65 -30.6 Q1.7 -31.5 3.15 -30.55 4.55 -29.45 4.25 -27.7 L4.95 -27.0 7.6 -23.65 Q9.6 -32.1 2.2 -33.55 0.3 -32.8 -0.65 -30.6 -1.45 -28.85 -1.6 -26.1 1.7 -29.7 4.25 -27.7 M-8.45 -15.05 Q-8.15 -17.9 -5.45 -17.4 L-3.95 -16.9 Q1.35 -14.6 7.5 -6.05 L9.35 -3.55 9.7 -2.7 Q10.55 -0.65 12.0 -1.1 13.95 -1.45 13.25 -9.9 12.7 -16.75 7.7 -23.55 L7.6 -23.65 M-8.45 -15.05 Q-15.45 -25.2 -25.75 -30.3 -32.95 -33.45 -32.75 -35.75 -32.05 -38.75 -26.45 -39.45 -21.5 -39.7 -14.9 -36.75 -9.95 -34.45 -5.55 -30.4 -2.55 -34.3 2.2 -33.55 M-1.6 -26.1 L-2.0 -25.65 Q-4.15 -22.45 -7.15 -19.7 -9.15 -18.5 -8.45 -15.05 -12.9 -18.8 -16.35 -18.55 -19.9 -18.35 -21.95 -14.1 -25.35 -7.85 -21.65 -2.35 -20.5 -0.75 -19.1 -0.05 -22.55 -8.6 -18.05 -13.7 -15.2 -16.55 -10.95 -14.25 -7.5 -12.45 -6.1 -4.5 -5.35 1.1 -6.25 8.4 -6.45 10.95 -5.8 14.05 -5.55 15.05 -5.85 16.6 L-5.95 17.45 Q-3.95 19.45 -1.15 18.65 L-0.35 18.3 Q9.05 13.5 9.35 -3.55 M-5.55 -30.4 L-1.6 -26.1" fill="none" stroke="#000000" stroke-linecap="round" stroke-linejoin="round" stroke-width="1.5"/>
    <path d="M-1.1 -2.75 Q-2.15 -9.4 -4.4 -14.6 M-2.6 13.85 Q-1.15 6.45 -1.1 -0.1" fill="none" stroke="#000000" stroke-linecap="round" stroke-linejoin="round" stroke-opacity="0.5568628" stroke-width="1.0"/>
  </g>
</svg>
