<?xml version="1.0" encoding="UTF-8" standalone="no"?>
<svg xmlns:xlink="http://www.w3.org/1999/xlink" height="36.9px" width="36.95px" xmlns="http://www.w3.org/2000/svg">
  <g transform="matrix(1.0, 0.0, 0.0, 1.0, 10.15, 23.95)">
    <path d="M25.95 -9.85 L18.75 -2.65 Q16.6 -0.9 14.65 -2.95 L5.75 -11.85 Q3.7 -13.8 5.45 -15.95 L12.65 -23.15 Q10.9 -23.3 9.1 -23.1 -3.2 -21.2 -8.9 -11.3 -10.65 -7.15 -6.25 -3.95 -1.75 -0.75 0.85 1.95 3.6 4.6 6.7 9.0 9.95 13.45 14.1 11.7 24.0 6.0 25.95 -6.25 26.15 -8.05 25.95 -9.85 25.45 -14.75 21.65 -18.85 17.55 -22.65 12.65 -23.15" fill="none" stroke="#000000" stroke-linecap="round" stroke-linejoin="round" stroke-width="1.5"/>
  </g>
</svg>
