<?xml version="1.0" encoding="UTF-8" standalone="no"?>
<svg xmlns:xlink="http://www.w3.org/1999/xlink" height="61.4px" width="33.4px" xmlns="http://www.w3.org/2000/svg">
  <g transform="matrix(1.0, 0.0, 0.0, 1.0, 14.5, 57.2)">
    <path d="M8.1 -50.75 Q12.2 -49.1 9.65 -43.9 17.15 -41.7 14.85 -33.75 17.1 -31.65 16.55 -26.05 17.9 -25.7 18.15 -24.25 18.3 -22.0 16.0 -21.8 16.4 -15.5 11.05 -12.1 13.4 -11.95 13.2 -9.65 13.1 -7.75 11.15 -7.85 11.05 2.4 7.85 3.45 L-3.3 3.45 Q-6.6 1.85 -6.3 -7.85 -8.65 -8.35 -8.3 -10.65 -8.15 -11.6 -7.3 -11.95 -11.6 -15.25 -12.0 -21.8 -13.75 -22.35 -13.75 -24.05 -13.7 -25.7 -12.25 -26.05 -14.75 -35.6 -7.7 -39.3 -10.35 -43.6 -4.35 -49.0 -3.25 -54.5 3.05 -56.45 4.1 -52.4 8.1 -50.75" fill="none" stroke="#000000" stroke-linecap="round" stroke-linejoin="round" stroke-width="1.5"/>
    <path d="M-4.35 -49.0 Q-1.85 -45.05 9.05 -44.1 L9.65 -43.9 M14.85 -33.75 Q13.0 -35.4 9.45 -34.95 4.0 -33.9 -1.1 -34.85 M16.55 -26.05 L16.25 -26.15 -11.95 -26.15 -12.25 -26.05 M-7.7 -39.3 Q-6.75 -37.55 -4.35 -36.05 M11.05 -12.1 L-6.85 -12.1 -7.3 -11.95 M16.0 -21.8 L-12.0 -21.8 M11.15 -7.85 L-6.3 -7.85" fill="none" stroke="#000000" stroke-linecap="round" stroke-linejoin="round" stroke-width="1.0"/>
  </g>
</svg>
