<?xml version="1.0" encoding="UTF-8" standalone="no"?>
<svg xmlns:xlink="http://www.w3.org/1999/xlink" height="53.25px" width="31.05px" xmlns="http://www.w3.org/2000/svg">
  <g transform="matrix(1.0, 0.0, 0.0, 1.0, 14.7, 44.5)">
    <path d="M-4.9 -40.5 L-4.05 -41.85 Q-0.65 -45.4 2.35 -42.3 15.65 -29.6 15.6 -6.35 15.45 3.85 10.55 4.8 L6.8 4.4 Q6.1 8.05 3.45 8.0 0.35 7.5 -0.15 5.5 -5.55 4.7 -4.85 -2.3 -4.45 -18.3 -12.25 -29.8 -15.9 -34.7 -11.75 -38.15 -12.15 -40.1 -10.35 -41.3 -7.95 -42.85 -4.9 -40.5 -7.45 -35.9 -2.7 -30.45 4.9 -20.95 4.15 -3.75 3.25 2.9 6.8 4.4 M-0.15 5.5 L-0.2 4.4 Q0.2 2.2 0.05 -0.55 -1.0 -20.25 -10.8 -36.2 -11.55 -37.3 -11.75 -38.15" fill="none" stroke="#000000" stroke-linecap="round" stroke-linejoin="round" stroke-width="1.5"/>
  </g>
</svg>
