<?xml version="1.0" encoding="UTF-8" standalone="no"?>
<svg xmlns:xlink="http://www.w3.org/1999/xlink" height="46.5px" width="38.7px" xmlns="http://www.w3.org/2000/svg">
  <g transform="matrix(1.0, 0.0, 0.0, 1.0, 9.55, 36.6)">
    <path d="M23.0 -27.2 Q23.6 -28.25 24.2 -28.25 L24.45 -28.1 27.4 -27.55 Q28.55 -26.9 28.35 -25.7 L26.35 -13.3 Q27.8 -12.4 26.85 -9.6 L23.0 4.75 22.45 6.9 Q21.65 8.8 17.9 9.15 L1.75 9.15 Q-2.05 8.8 -2.85 6.9 L-3.4 4.75 -7.25 -9.6 Q-8.2 -12.4 -6.7 -13.3 L-8.75 -25.7 Q-8.95 -26.9 -7.8 -27.55 L-4.9 -28.1 -4.6 -28.25 Q-4.05 -28.25 -3.4 -27.2 L-3.4 -28.65 Q-3.4 -30.5 -1.45 -30.45 L0.55 -30.45 Q1.4 -30.25 1.8 -29.65 L1.8 -30.3 Q1.75 -32.5 3.05 -32.75 L5.9 -32.75 Q6.7 -32.95 7.25 -31.95 L7.25 -32.4 Q6.95 -35.85 8.05 -35.85 L11.8 -35.85 Q12.7 -35.65 12.35 -32.4 L12.35 -31.95 Q12.9 -32.95 13.65 -32.75 L16.45 -32.75 Q17.9 -32.5 17.8 -30.3 L17.8 -29.65 Q18.25 -30.25 19.05 -30.45 L21.05 -30.45 Q23.05 -30.5 23.0 -28.65 L23.0 -27.2 22.95 -15.2 26.35 -13.3 M22.95 -15.2 L19.25 -17.35 Q18.45 -17.95 17.8 -17.85 16.9 -17.7 16.45 -16.15 15.35 -13.2 12.35 -12.4 L9.8 -12.2 7.25 -12.4 Q4.25 -13.2 3.05 -16.15 2.7 -17.7 1.8 -17.85 1.2 -17.95 0.3 -17.35 L-3.35 -15.2 -6.7 -13.3 M1.8 -29.65 L1.8 -17.85 M12.35 -12.4 L12.35 -31.95 M17.8 -17.85 L17.8 -29.65 M7.25 -12.4 L7.25 -31.95 M-3.4 -27.2 L-3.35 -15.2 M23.0 4.75 L-3.4 4.75" fill="none" stroke="#000000" stroke-linecap="round" stroke-linejoin="round" stroke-width="1.5"/>
  </g>
</svg>
