<?xml version="1.0" encoding="UTF-8" standalone="no"?>
<svg xmlns:xlink="http://www.w3.org/1999/xlink" height="52.9px" width="29.6px" xmlns="http://www.w3.org/2000/svg">
  <g transform="matrix(1.0, 0.0, 0.0, 1.0, 10.45, 44.9)">
    <path d="M15.95 -19.85 L13.9 -40.55 Q13.35 -44.35 9.55 -44.15 L-2.6 -43.05 Q-8.7 -42.8 -9.7 -38.45 L-7.15 -17.15 -6.2 -17.95 -3.75 -18.1 -4.6 -26.55 2.25 -27.25 3.3 -18.95 6.65 -19.3 5.75 -27.65 12.3 -28.25 13.15 -20.0 13.95 -20.15 15.95 -19.85 Q16.65 -19.4 16.85 -18.3 L17.45 -14.1 Q17.85 -11.35 17.05 -10.9 L18.2 -1.1 Q19.25 4.65 15.35 5.85 L2.05 7.15 Q-3.4 7.8 -4.5 3.4 L-5.65 -8.75 Q-6.6 -8.8 -6.95 -10.1 L-7.5 -14.15 Q-7.75 -16.3 -7.15 -17.15 M1.95 -30.3 L-4.8 -29.5 -5.6 -38.5 Q-5.9 -40.5 0.8 -40.6 L1.95 -30.3 M5.4 -30.75 L4.35 -40.55 Q10.9 -41.9 10.85 -40.55 L12.05 -31.5 5.4 -30.75 M-5.65 -8.75 Q-4.75 -8.55 -3.45 -9.45 -1.8 -10.1 0.45 -8.6 1.95 -7.8 4.15 -9.75 6.0 -11.05 8.85 -9.0 11.1 -8.25 13.1 -10.8 14.45 -12.0 15.8 -11.1 16.45 -10.7 17.05 -10.9 M13.15 -20.0 L6.65 -19.3 M3.3 -18.95 L-3.75 -18.1" fill="none" stroke="#000000" stroke-linecap="round" stroke-linejoin="round" stroke-width="1.5"/>
  </g>
</svg>
