<?xml version="1.0" encoding="UTF-8" standalone="no"?>
<svg xmlns:xlink="http://www.w3.org/1999/xlink" height="46.4px" width="25.6px" xmlns="http://www.w3.org/2000/svg">
  <g transform="matrix(1.0, 0.0, 0.0, 1.0, 10.05, 22.3)">
    <path d="M2.6 -18.65 L3.05 -19.25 Q4.0 -20.3 5.35 -20.9 L10.3 -21.1 Q12.8 -20.05 13.9 -17.7 15.0 -15.2 14.1 -12.65 13.05 -10.25 10.65 -9.15 9.85 -8.7 9.0 -8.6 10.0 0.15 8.85 10.45 11.2 10.6 12.85 12.25 14.8 14.15 14.8 16.9 14.8 19.55 12.85 21.5 11.0 23.35 8.35 23.35 5.6 23.35 3.7 21.45 L2.8 20.35 Q1.5 22.2 -0.75 22.7 -3.35 23.4 -5.65 22.1 -7.95 20.75 -8.7 18.25 -9.4 15.6 -8.0 13.3 -6.7 10.95 -4.15 10.25 L-3.25 10.1 Q-3.9 0.8 -3.3 -8.55 -5.65 -8.75 -7.35 -10.45 -9.25 -12.3 -9.3 -15.0 -9.3 -17.65 -7.35 -19.55 -5.45 -21.45 -2.8 -21.55 -0.1 -21.5 1.75 -19.65 L2.6 -18.65 Z" fill="none" stroke="#000000" stroke-linecap="round" stroke-linejoin="round" stroke-width="1.5"/>
  </g>
</svg>
