<?xml version="1.0" encoding="UTF-8" standalone="no"?>
<svg xmlns:xlink="http://www.w3.org/1999/xlink" height="285.3px" width="64.2px" xmlns="http://www.w3.org/2000/svg">
  <g transform="matrix(1.0, 0.0, 0.0, 1.0, 32.1, 142.65)">
    <path d="M31.1 -128.0 Q28.3 -139.65 11.6 -141.65 -1.2 -139.1 -6.3 -128.9 M2.5 59.9 Q1.85 74.45 4.8 83.8 5.5 62.85 8.45 40.05 11.35 17.25 11.0 4.0 10.1 -32.5 16.8 -56.2 26.15 -83.45 26.7 -99.7 M-15.55 -91.55 Q-22.5 -74.25 -20.45 -41.35 -18.4 -8.4 -26.2 29.05 -29.7 43.35 -30.7 56.65 -33.65 95.15 -15.6 124.6 -21.95 110.05 -23.2 75.25 L-23.4 68.8 Q-21.65 111.15 -4.1 141.65 -10.2 117.1 -3.75 90.3 1.35 69.25 2.5 59.9" fill="none" stroke="#000000" stroke-linecap="round" stroke-linejoin="round" stroke-width="2.0"/>
    <path d="M2.5 59.9 Q5.35 37.15 2.65 20.6 L1.15 13.5 M-23.4 68.8 L-23.5 63.35 -23.15 56.75 -23.15 43.4" fill="none" stroke="#000000" stroke-linecap="round" stroke-linejoin="round" stroke-width="1.5"/>
  </g>
</svg>
