<?xml version="1.0" encoding="UTF-8" standalone="no"?>
<svg xmlns:xlink="http://www.w3.org/1999/xlink" height="105.95px" width="29.65px" xmlns="http://www.w3.org/2000/svg">
  <g transform="matrix(1.0, 0.0, 0.0, 1.0, 16.0, 90.9)">
    <path d="M5.45 -20.0 L5.45 -15.9 11.3 -15.9 Q12.65 -15.4 12.8 -14.3 L12.9 -11.65 Q12.9 -10.1 10.95 -9.35 L3.05 -9.35 2.65 12.3 Q2.15 14.7 -1.3 14.25 -4.8 13.85 -5.15 10.5 L-5.35 -9.35 -12.65 -9.35 Q-15.15 -9.75 -15.15 -12.0 L-15.25 -13.1 Q-15.25 -15.5 -13.1 -15.9 L-7.35 -15.9 -7.35 -20.0 -8.0 -90.15 Q5.8 -82.75 6.05 -66.6 L5.45 -20.0 -7.35 -20.0 M-7.35 -15.9 L5.45 -15.9 M3.05 -9.35 L-5.35 -9.35" fill="none" stroke="#000000" stroke-linecap="round" stroke-linejoin="round" stroke-width="1.5"/>
  </g>
</svg>
