<?xml version="1.0" encoding="UTF-8" standalone="no"?>
<svg xmlns:xlink="http://www.w3.org/1999/xlink" height="62.45px" width="29.7px" xmlns="http://www.w3.org/2000/svg">
  <g transform="matrix(1.0, 0.0, 0.0, 1.0, 22.0, 58.25)">
    <path d="M-5.55 -17.1 Q-6.55 -16.0 -6.4 -13.9 L-3.05 0.65 Q-2.45 4.05 2.85 3.3 7.9 1.3 6.75 -2.0 L2.3 -16.25 Q1.45 -18.15 0.0 -18.55 L-3.15 -18.4 Q-4.6 -18.1 -5.55 -17.1 L-9.05 -30.2 Q-19.65 -31.7 -21.1 -40.75 -22.45 -54.0 -13.35 -57.3 -3.85 -58.95 1.7 -46.9 4.95 -38.3 -3.5 -31.65 L0.0 -18.55" fill="none" stroke="#000000" stroke-linecap="round" stroke-linejoin="round" stroke-width="1.5"/>
    <path d="M-12.4 -34.85 Q-6.5 -32.4 -3.6 -37.6" fill="none" stroke="#000000" stroke-linecap="round" stroke-linejoin="round" stroke-width="1.0"/>
  </g>
</svg>
