<?xml version="1.0" encoding="UTF-8" standalone="no"?>
<svg xmlns:xlink="http://www.w3.org/1999/xlink" height="66.8px" width="27.35px" xmlns="http://www.w3.org/2000/svg">
  <g transform="matrix(1.0, 0.0, 0.0, 1.0, 21.15, 61.75)">
    <path d="M1.0 -17.85 Q2.25 -17.4 2.85 -15.3 L5.45 -0.8 Q5.5 3.75 1.75 4.15 -1.75 5.0 -3.4 0.8 L-5.95 -13.7 Q-6.15 -15.85 -5.1 -16.8 L-7.2 -31.2 Q-16.6 -32.5 -18.3 -43.4 L-20.35 -54.75 Q-20.65 -57.35 -18.4 -57.7 -16.25 -57.95 -15.75 -55.1 L-14.0 -45.35 Q-13.35 -43.25 -11.3 -43.3 -9.55 -43.8 -9.55 -45.85 L-11.35 -56.0 Q-11.9 -58.85 -9.65 -59.45 -7.4 -59.65 -6.8 -56.8 L-4.95 -46.65 Q-4.3 -44.7 -2.4 -44.85 -0.45 -45.5 -0.7 -47.75 L-2.45 -57.55 Q-2.95 -60.35 -0.8 -60.9 1.45 -61.4 2.05 -58.8 L4.15 -47.45 Q6.3 -36.6 -2.0 -32.1 L1.0 -17.85 -2.15 -18.0 Q-4.2 -17.85 -5.1 -16.8" fill="none" stroke="#000000" stroke-linecap="round" stroke-linejoin="round" stroke-width="1.5"/>
  </g>
</svg>
