<?xml version="1.0" encoding="UTF-8" standalone="no"?>
<svg xmlns:xlink="http://www.w3.org/1999/xlink" height="62.6px" width="61.7px" xmlns="http://www.w3.org/2000/svg">
  <g transform="matrix(1.0, 0.0, 0.0, 1.0, 9.95, 48.3)">
    <path d="M18.05 -37.85 Q21.8 -40.9 24.3 -37.65 L42.05 -13.85 Q44.4 -10.55 40.35 -7.75 L24.0 4.4 Q20.6 6.45 17.45 1.1 L2.95 -18.4 Q-1.15 -22.8 1.55 -25.55 L18.05 -37.85 M17.85 -17.75 L12.85 -14.0 16.15 -9.55 21.15 -13.35 24.95 -8.25 29.35 -11.55 25.75 -16.5 30.65 -20.2 27.15 -24.85 22.2 -21.15 18.55 -26.1 14.1 -22.8 17.85 -17.75" fill="#ffffff" fill-rule="evenodd" stroke="none"/>
    <path d="M8.8 -0.5 L11.1 2.65 6.5 6.05 Q2.75 8.6 -0.25 4.4 L-5.3 -2.35 Q-8.45 -6.4 -4.95 -9.25 L-0.35 -12.65 1.95 -9.6 -1.85 -6.9 Q-3.1 -5.45 -1.3 -3.5 L2.1 1.05 Q3.35 3.25 5.0 2.3 L8.8 -0.5" fill="#3b484a" fill-rule="evenodd" stroke="none"/>
    <path d="M18.05 -37.85 Q21.8 -40.9 24.3 -37.65 L42.05 -13.85 Q44.4 -10.55 40.35 -7.75 L24.0 4.4 Q20.6 6.45 17.45 1.1 L2.95 -18.4 Q-1.15 -22.8 1.55 -25.55 L18.05 -37.85 M1.95 -9.6 L8.8 -0.5 11.1 2.65 12.95 5.2 16.8 10.4 17.6 11.45 Q20.55 15.05 23.8 12.5 L48.25 -5.7 Q52.9 -8.75 49.75 -13.3 L26.05 -45.15 Q22.5 -49.45 18.3 -46.0 L-6.15 -27.8 Q-9.4 -25.35 -6.95 -21.5 L-6.1 -20.45 -2.2 -15.2 -0.35 -12.65 1.95 -9.6 -1.85 -6.9 Q-3.1 -5.45 -1.3 -3.5 L2.1 1.05 Q3.35 3.25 5.0 2.3 L8.8 -0.5 M17.85 -17.75 L12.85 -14.0 16.15 -9.55 21.15 -13.35 24.95 -8.25 29.35 -11.55 25.75 -16.5 30.65 -20.2 27.15 -24.85 22.2 -21.15 18.55 -26.1 14.1 -22.8 17.85 -17.75 M12.95 5.2 L11.55 6.2 Q10.25 7.25 10.9 8.65 L12.9 11.3 Q14.2 13.65 16.05 12.55 L17.6 11.45 M11.1 2.65 L6.5 6.05 Q2.75 8.6 -0.25 4.4 L-5.3 -2.35 Q-8.45 -6.4 -4.95 -9.25 L-0.35 -12.65 M-2.2 -15.2 L-3.65 -14.25 Q-5.05 -13.2 -6.2 -14.25 L-8.25 -16.9 Q-10.0 -18.85 -8.5 -20.4 L-6.95 -21.5" fill="none" stroke="#000000" stroke-linecap="round" stroke-linejoin="round" stroke-width="1.5"/>
  </g>
</svg>
