<?xml version="1.0" encoding="UTF-8" standalone="no"?>
<svg xmlns:xlink="http://www.w3.org/1999/xlink" height="60.65px" width="62.25px" xmlns="http://www.w3.org/2000/svg">
  <g transform="matrix(1.0, 0.0, 0.0, 1.0, 11.7, 45.65)">
    <path d="M17.25 -22.85 L25.05 -21.8 Q26.65 -21.6 27.05 -20.8 27.75 -20.1 27.55 -18.55 L26.3 -10.8 25.95 -8.0 12.45 -9.8 14.45 -23.25 17.25 -22.85" fill="#ffffff" fill-rule="evenodd" stroke="none"/>
    <path d="M23.95 5.45 L25.8 7.9 Q21.5 11.5 19.3 12.5 9.1 17.45 1.95 8.3 2.55 8.2 3.45 7.6 L6.55 5.3 Q12.5 12.85 22.65 3.8 L23.95 5.45 M-0.95 -27.55 L1.0 -25.0 2.25 -23.3 Q-9.3 -16.05 -3.6 -8.2 L-6.75 -5.85 -7.75 -4.6 Q-14.5 -13.95 -7.05 -22.35 -5.45 -24.3 -0.95 -27.55" fill="#596675" fill-rule="evenodd" stroke="none"/>
    <path d="M26.3 -10.8 L37.75 4.35 40.15 2.55 Q58.15 -12.95 42.6 -32.55 28.05 -52.85 8.25 -39.75 L5.8 -38.0 17.25 -22.85 25.05 -21.8 Q26.65 -21.6 27.05 -20.8 27.75 -20.1 27.55 -18.55 L26.3 -10.8 25.95 -8.0 23.95 5.45 25.8 7.9 28.85 12.0 Q31.25 15.7 36.25 11.7 40.65 8.85 38.3 5.05 L37.75 4.35 M5.8 -38.0 L5.3 -38.65 Q2.4 -41.95 -1.65 -38.55 -6.85 -34.85 -4.0 -31.55 L-0.95 -27.55 1.0 -25.0 14.45 -23.25 17.25 -22.85 M14.45 -23.25 L12.45 -9.8 25.95 -8.0 M22.65 3.8 L12.45 -9.8 2.25 -23.3 Q-9.3 -16.05 -3.6 -8.2 L-3.45 -8.3 Q-1.9 -9.0 -0.8 -7.2 L6.4 2.3 Q7.75 3.8 6.75 5.15 L6.55 5.3 Q12.5 12.85 22.65 3.8 L23.95 5.45 M2.25 -23.3 L1.0 -25.0 M1.95 8.3 Q1.05 8.5 0.45 7.6 L-7.55 -3.0 Q-8.2 -3.7 -7.75 -4.6 -14.5 -13.95 -7.05 -22.35 -5.45 -24.3 -0.95 -27.55 M6.55 5.3 L3.45 7.6 Q2.55 8.2 1.95 8.3 9.1 17.45 19.3 12.5 21.5 11.5 25.8 7.9 M-3.6 -8.2 L-6.75 -5.85 -7.75 -4.6" fill="none" stroke="#000000" stroke-linecap="round" stroke-linejoin="round" stroke-width="1.5"/>
  </g>
</svg>
