<?xml version="1.0" encoding="UTF-8" standalone="no"?>
<svg xmlns:xlink="http://www.w3.org/1999/xlink" height="58.7px" width="42.85px" xmlns="http://www.w3.org/2000/svg">
  <g transform="matrix(1.0, 0.0, 0.0, 1.0, 24.1, 56.35)">
    <path d="M0.75 -23.9 L0.75 -0.9 Q0.8 0.85 -1.0 1.6 L-4.4 1.6 Q-6.25 1.15 -6.35 -0.6 L-6.35 -16.1 -4.8 -14.9 Q-2.85 -13.35 -2.75 -16.0 L-2.75 -23.9 0.75 -23.9" fill="#c27c59" fill-rule="evenodd" stroke="none"/>
    <path d="M-2.75 -31.65 L-2.85 -31.65 Q-4.25 -31.65 -5.3 -32.65 -6.3 -33.6 -6.3 -35.05 L-6.3 -35.1 Q-6.25 -36.45 -5.3 -37.45 -4.25 -38.4 -2.85 -38.4 L-2.65 -38.4 Q-1.35 -38.4 -0.5 -37.45 0.5 -36.45 0.5 -35.05 0.5 -33.55 -0.5 -32.65 -1.45 -31.7 -2.75 -31.65" fill="#ffffff" fill-rule="evenodd" stroke="none"/>
    <path d="M-6.35 -16.1 Q-14.25 -23.0 -13.95 -26.4 L-13.95 -35.1 -21.65 -35.1 Q-24.85 -34.85 -21.95 -37.75 -13.8 -46.25 -11.85 -46.1 L-2.65 -46.1 -2.65 -53.85 Q-2.8 -56.85 -0.1 -54.75 8.2 -47.3 8.2 -44.15 L8.2 -35.05 15.75 -35.05 Q18.65 -35.15 17.8 -33.3 10.2 -23.8 6.7 -23.9 L0.75 -23.9 0.75 -0.9 Q0.8 0.85 -1.0 1.6 L-4.4 1.6 Q-6.25 1.15 -6.35 -0.6 L-6.35 -16.1 -4.8 -14.9 Q-2.85 -13.35 -2.75 -16.0 L-2.75 -23.9 -2.75 -31.65 -2.85 -31.65 Q-4.25 -31.65 -5.3 -32.65 -6.3 -33.6 -6.3 -35.05 L-6.3 -35.1 -13.95 -35.1 M0.5 -35.05 L8.2 -35.05 M-2.65 -38.4 Q-1.35 -38.4 -0.5 -37.45 0.5 -36.45 0.5 -35.05 0.5 -33.55 -0.5 -32.65 -1.45 -31.7 -2.75 -31.65 M-2.65 -46.1 L-2.65 -38.4 -2.85 -38.4 Q-4.25 -38.4 -5.3 -37.45 -6.25 -36.45 -6.3 -35.1 M-2.75 -23.9 L0.75 -23.9" fill="none" stroke="#000000" stroke-linecap="round" stroke-linejoin="round" stroke-width="1.5"/>
  </g>
</svg>
