<?xml version="1.0" encoding="UTF-8" standalone="no"?>
<svg xmlns:xlink="http://www.w3.org/1999/xlink" height="46.05px" width="36.85px" xmlns="http://www.w3.org/2000/svg">
  <g transform="matrix(1.0, 0.0, 0.0, 1.0, 16.15, 40.15)">
    <path d="M15.15 -1.3 Q16.3 -0.65 16.3 1.0 L16.3 3.8 Q16.1 5.35 14.05 5.1 -1.65 3.75 -14.55 -9.65 -16.1 -11.3 -14.8 -12.25 L-13.25 -13.5 Q-11.7 -14.85 -10.35 -13.85 -10.25 -13.75 -10.15 -13.75 -0.45 -2.2 13.9 -1.5 L15.15 -1.3" fill="#fa8d4a" fill-rule="evenodd" stroke="none"/>
    <path d="M11.85 -28.4 Q10.85 -28.95 10.5 -30.05 10.05 -31.15 10.6 -32.25 11.1 -33.25 12.3 -33.65 L14.35 -33.55 Q15.35 -32.95 15.75 -31.85 16.2 -30.65 15.7 -29.7 15.15 -28.6 14.05 -28.3 L11.85 -28.4 M0.45 -16.45 Q-0.75 -17.0 -1.15 -18.2 -1.55 -19.4 -0.95 -20.55 -0.4 -21.75 0.8 -22.15 L3.3 -22.0 Q4.4 -21.35 4.8 -20.15 5.2 -18.95 4.65 -17.85 4.05 -16.6 2.8 -16.2 1.6 -15.8 0.45 -16.45 M2.9 -12.9 Q3.8 -12.4 4.15 -11.4 4.5 -10.4 4.05 -9.5 3.5 -8.65 2.55 -8.3 L0.65 -8.4 Q-0.3 -8.85 -0.65 -9.75 -1.0 -10.8 -0.5 -11.7 0.0 -12.65 0.95 -13.0 L2.9 -12.9 M8.2 -12.3 Q8.85 -13.4 10.05 -13.8 L12.4 -13.7 Q13.55 -13.1 13.95 -11.9 14.35 -10.7 13.7 -9.55 13.15 -8.4 11.95 -8.0 L9.6 -8.15 Q8.5 -8.75 8.1 -9.95 7.7 -11.15 8.2 -12.3 M15.15 -1.3 L13.9 -1.5 Q-0.45 -2.2 -10.15 -13.75 -10.25 -13.75 -10.35 -13.85 -11.7 -14.85 -13.25 -13.5 L-14.8 -12.25 Q-16.1 -11.3 -14.55 -9.65 -1.65 3.75 14.05 5.1 16.1 5.35 16.3 3.8 L16.3 1.0 Q16.3 -0.65 15.15 -1.3 22.9 -36.4 18.1 -39.4 10.55 -39.8 -10.35 -13.85" fill="none" stroke="#000000" stroke-linecap="round" stroke-linejoin="round" stroke-width="1.5"/>
    <path d="M5.75 -26.0 Q7.65 -22.8 12.7 -22.55" fill="none" stroke="#000000" stroke-linecap="round" stroke-linejoin="round" stroke-opacity="0.5294118" stroke-width="1.0"/>
  </g>
</svg>
