<?xml version="1.0" encoding="UTF-8" standalone="no"?>
<svg xmlns:xlink="http://www.w3.org/1999/xlink" height="127.7px" width="110.35px" xmlns="http://www.w3.org/2000/svg">
  <g transform="matrix(1.0, 0.0, 0.0, 1.0, 57.05, 94.45)">
    <path d="M-0.05 -86.45 L0.7 -87.1 Q1.7 -88.35 1.75 -89.8 1.75 -91.45 0.7 -92.55 -0.6 -93.7 -2.25 -93.7 -3.85 -93.7 -5.0 -92.6 -6.15 -91.3 -6.2 -89.75 -6.15 -88.25 -4.95 -87.15 L-4.3 -86.5 Q-3.35 -85.9 -2.1 -85.95 -1.05 -85.95 -0.05 -86.45 L0.5 -86.45 Q35.95 -84.35 51.1 -48.0 53.9 -40.55 51.2 -35.45 49.1 -48.7 36.05 -50.8 17.85 -49.65 15.9 -34.45 13.25 -49.5 1.85 -50.35 L2.15 20.15 Q2.9 21.4 3.8 22.4 6.75 25.25 10.85 25.3 14.95 25.2 16.55 22.75 18.05 20.15 18.3 18.8 L18.6 16.95 Q18.6 15.6 19.55 14.55 L20.55 13.85 21.85 13.55 Q23.0 13.65 24.1 14.55 24.95 15.55 24.95 16.9 26.35 18.7 22.2 26.6 15.2 35.8 2.5 30.7 -7.05 25.6 -5.65 12.85 L-6.0 -50.35 Q-19.05 -48.7 -19.5 -33.85 L-19.5 -33.4 Q-21.45 -49.05 -39.9 -50.0 -53.0 -47.85 -54.8 -34.55 -57.75 -39.55 -54.9 -47.15 -40.25 -83.6 -6.1 -86.5 L-4.3 -86.5 M0.5 -86.45 Q15.05 -66.35 15.9 -34.45 M-6.0 -50.35 L-0.8 -50.7 1.85 -50.35 M-6.1 -86.5 Q-19.45 -67.15 -19.5 -33.85" fill="none" stroke="#000000" stroke-linecap="round" stroke-linejoin="round" stroke-width="1.5"/>
  </g>
</svg>
