<?xml version="1.0" encoding="UTF-8" standalone="no"?>
<svg xmlns:xlink="http://www.w3.org/1999/xlink" height="100.9px" width="90.65px" xmlns="http://www.w3.org/2000/svg">
  <g transform="matrix(1.0, 0.0, 0.0, 1.0, 54.35, 73.15)">
    <path d="M28.55 -68.2 Q22.1 -70.45 13.4 -64.1 L14.25 -59.7 Q17.05 -63.7 23.05 -63.35 28.4 -63.0 29.0 -57.25 30.5 -33.5 14.55 -28.4 13.75 -24.8 11.4 -21.3 17.25 -20.25 22.85 -24.4 38.6 -36.7 34.8 -57.75 34.45 -64.35 28.55 -68.2 M11.4 -21.3 Q5.0 -11.65 7.45 -9.4 15.8 -6.3 7.6 -0.5 L9.3 5.85 17.55 3.65 19.25 10.0 26.85 7.95 29.15 16.55 -9.85 27.0 -12.15 18.4 -4.4 16.35 -6.1 10.0 1.05 8.05 -0.65 1.7 Q-9.55 -0.25 -3.9 -6.35 -3.55 -9.25 -9.5 -11.85 -10.85 -12.45 -12.2 -13.2 -20.6 -8.9 -29.45 -11.9 -47.95 -17.45 -53.6 -40.65 -53.75 -52.3 -37.1 -51.25 L-37.85 -53.65 -39.45 -58.75 11.5 -72.4 12.75 -67.3 13.4 -64.1 M14.55 -28.4 Q17.4 -41.2 14.25 -59.7 M-12.2 -13.2 Q-15.7 -15.25 -18.9 -18.35 -38.6 -15.25 -47.9 -39.4 -49.1 -42.5 -45.75 -44.7 -39.75 -47.95 -34.95 -45.3 L-37.1 -51.25 M-34.95 -45.3 Q-28.1 -27.25 -18.9 -18.35 M1.05 8.05 L9.3 5.85 M-37.85 -53.65 L12.75 -67.3 M-3.9 -6.35 L7.45 -9.4 M7.6 -0.5 L-0.65 1.7 M-4.4 16.35 L19.25 10.0" fill="none" stroke="#000000" stroke-linecap="round" stroke-linejoin="round" stroke-width="1.5"/>
  </g>
</svg>
