<?xml version="1.0" encoding="UTF-8" standalone="no"?>
<svg xmlns:xlink="http://www.w3.org/1999/xlink" height="74.5px" width="25.65px" xmlns="http://www.w3.org/2000/svg">
  <g transform="matrix(1.0, 0.0, 0.0, 1.0, 21.45, 55.4)">
    <path d="M-1.9 -51.0 L-1.95 -46.1 -2.0 -41.25 -2.1 -36.45 -2.2 -31.6 -8.8 -31.45 -8.55 -36.3 -7.8 -50.7 -1.9 -51.0 M-8.0 -41.3 L-2.0 -41.25 -8.0 -41.3 M-7.65 -46.05 L-1.95 -46.1 -7.65 -46.05 M-2.1 -36.45 L-8.55 -36.3 -2.1 -36.45" fill="#ffffff" fill-rule="evenodd" stroke="none"/>
    <path d="M-2.2 -31.6 L-2.85 14.9 -2.95 15.65 Q-3.0 16.75 -2.2 17.55 -1.45 18.35 -0.3 18.35 0.85 18.4 1.65 17.55 2.4 16.8 2.4 15.75 L2.4 15.3 3.4 -50.25 3.45 -50.9 Q3.5 -52.05 2.7 -52.8 1.9 -53.6 0.75 -53.6 -0.25 -53.7 -1.1 -52.9 -1.8 -52.15 -1.85 -51.25 L-1.9 -51.0 -1.95 -46.1 -2.0 -41.25 -2.1 -36.45 -2.2 -31.6 -8.8 -31.45 Q-6.1 -30.7 -6.2 -28.75 -9.25 -22.8 -14.8 -26.95 -17.25 -28.7 -17.35 -32.45 L-16.85 -48.4 Q-21.9 -51.05 -20.35 -52.45 -12.4 -57.6 -7.8 -50.7 L-1.9 -51.0 M-1.95 -46.1 L-7.65 -46.05 M-2.0 -41.25 L-8.0 -41.3 M-8.8 -31.45 L-8.55 -36.3 -7.8 -50.7 M-8.55 -36.3 L-2.1 -36.45" fill="none" stroke="#000000" stroke-linecap="round" stroke-linejoin="round" stroke-width="1.5"/>
  </g>
</svg>
