<?xml version="1.0" encoding="UTF-8" standalone="no"?>
<svg xmlns:xlink="http://www.w3.org/1999/xlink" height="99.1px" width="67.35px" xmlns="http://www.w3.org/2000/svg">
  <g transform="matrix(1.0, 0.0, 0.0, 1.0, 33.9, 62.35)">
    <path d="M6.25 -23.15 L6.8 15.3 -6.65 15.65 -6.15 -23.3 6.25 -23.15 M-5.25 -56.3 L-5.0 -61.55 5.25 -61.6 5.45 -56.25 -5.25 -56.3" fill="#4f3424" fill-rule="evenodd" stroke="none"/>
    <path d="M5.45 -56.25 L12.55 -56.2 26.6 -56.7 32.7 -55.1 32.7 -25.5 26.95 -23.35 12.85 -23.2 6.25 -23.15 6.8 15.3 7.0 33.2 4.4 35.85 -3.85 36.0 -6.6 33.25 -6.65 15.65 -6.15 -23.3 -14.35 -23.45 -27.3 -23.7 Q-30.2 -23.35 -33.05 -25.25 L-33.15 -53.8 -27.8 -55.9 -13.95 -56.1 -5.25 -56.3 -5.0 -61.55 5.25 -61.6 5.45 -56.25 -5.25 -56.3 M26.95 -23.35 L26.6 -56.7 M12.85 -23.2 L-0.8 -40.0 -14.35 -23.45 M-13.95 -56.1 L-0.8 -40.0 12.55 -56.2 M-27.3 -23.7 L-27.8 -55.9 M-6.15 -23.3 L6.25 -23.15 M-6.65 15.65 L6.8 15.3" fill="none" stroke="#000000" stroke-linecap="round" stroke-linejoin="round" stroke-width="1.5"/>
  </g>
</svg>
