<?xml version="1.0" encoding="UTF-8" standalone="no"?>
<svg xmlns:xlink="http://www.w3.org/1999/xlink" height="87.75px" width="26.2px" xmlns="http://www.w3.org/2000/svg">
  <g transform="matrix(1.0, 0.0, 0.0, 1.0, 13.6, 68.75)">
    <path d="M0.3 -60.0 L8.05 -52.1 8.05 -49.4 8.05 -43.2 8.05 -37.5 8.05 -32.1 7.95 -26.0 3.6 -26.15 -3.75 -26.5 -7.8 -26.6 -7.55 -52.4 0.3 -60.0 M5.2 -32.05 L8.05 -32.1 5.2 -32.05 M5.25 -43.25 L8.05 -43.2 5.25 -43.25 M5.35 -37.55 L8.05 -37.5 5.35 -37.55 M5.35 -49.35 L8.05 -49.4 5.35 -49.35" fill="#939393" fill-opacity="0.64705884" fill-rule="evenodd" stroke="none"/>
    <path d="M0.3 -60.0 L8.05 -52.1 8.05 -49.4 8.05 -43.2 8.05 -37.5 8.05 -32.1 7.95 -26.0 7.9 -9.65 11.85 -9.55 M0.55 -68.0 L0.3 -60.0 -7.55 -52.4 -7.8 -26.6 -3.75 -26.5 3.6 -26.15 7.95 -26.0 M8.05 -49.4 L5.35 -49.35 M8.05 -37.5 L5.35 -37.55 M8.05 -43.2 L5.25 -43.25 M8.05 -32.1 L5.2 -32.05 M3.6 -26.15 L3.3 -9.8 7.9 -9.65 M-8.05 12.35 L8.7 12.95 Q11.15 14.15 10.25 18.0 L-9.5 17.4 Q-11.2 14.4 -8.05 12.35 M3.3 -9.8 L3.15 12.65 -3.65 12.4 -3.75 -10.0 -7.7 -10.15 -12.85 -10.05 M-3.75 -26.5 L-3.75 -10.0 3.3 -9.8 M-7.7 -10.15 L-7.8 -26.6" fill="none" stroke="#000000" stroke-linecap="round" stroke-linejoin="round" stroke-width="1.5"/>
  </g>
</svg>
