<?xml version="1.0" encoding="UTF-8" standalone="no"?>
<svg xmlns:xlink="http://www.w3.org/1999/xlink" height="120.4px" width="32.8px" xmlns="http://www.w3.org/2000/svg">
  <g transform="matrix(1.0, 0.0, 0.0, 1.0, 16.2, 98.0)">
    <path d="M5.4 -8.4 L5.25 10.5 5.25 14.75 Q0.15 16.75 -5.5 14.9 L-5.45 11.0 -5.1 -8.55 5.4 -8.4" fill="#000000" fill-opacity="0.30980393" fill-rule="evenodd" stroke="none"/>
    <path d="M-5.1 -8.55 L-15.45 -8.6 -15.25 -15.5 -7.65 -15.6 -7.45 -88.3 0.55 -97.25 8.5 -87.5 8.3 -15.45 9.85 -15.4 15.85 -15.35 15.8 -8.35 5.4 -8.4 5.25 10.5 Q10.05 12.2 10.05 16.6 10.1 21.8 -1.55 21.65 -11.2 21.1 -10.0 15.5 -9.3 11.85 -5.45 11.0 L-5.1 -8.55 5.4 -8.4 M8.3 -15.45 L7.65 -15.45 0.3 -15.5 -7.65 -15.6 M-5.45 11.0 L-5.5 14.9 Q0.15 16.75 5.25 14.75 L5.25 10.5" fill="none" stroke="#000000" stroke-linecap="round" stroke-linejoin="round" stroke-width="1.5"/>
    <path d="M0.3 -15.5 L0.5 -87.2" fill="none" stroke="#000000" stroke-linecap="round" stroke-linejoin="round" stroke-opacity="0.60784316" stroke-width="1.0"/>
  </g>
</svg>
