<?xml version="1.0" encoding="UTF-8" standalone="no"?>
<svg xmlns:xlink="http://www.w3.org/1999/xlink" height="99.5px" width="30.0px" xmlns="http://www.w3.org/2000/svg">
  <g transform="matrix(1.0, 0.0, 0.0, 1.0, 13.95, 86.6)">
    <path d="M7.25 -7.75 L6.8 3.85 -4.7 3.85 -5.15 -7.75 1.05 -7.75 7.25 -7.75" fill="#000000" fill-opacity="0.30980393" fill-rule="evenodd" stroke="none"/>
    <path d="M-5.15 -7.75 Q-13.4 -12.35 -12.95 -19.6 L-9.3 -19.65 -13.2 -66.75 1.0 -85.85 1.1 -85.85 15.3 -66.75 11.4 -19.65 15.05 -19.6 Q15.5 -12.35 7.25 -7.75 L6.8 3.85 6.5 8.4 Q4.75 12.15 1.6 12.15 L1.05 12.15 0.5 12.15 Q-2.65 12.15 -4.4 8.4 L-4.7 3.85 -5.15 -7.75 1.05 -7.75 7.25 -7.75 M11.4 -19.65 L1.1 -19.65 -9.3 -19.65 M-4.7 3.85 L6.8 3.85" fill="none" stroke="#000000" stroke-linecap="round" stroke-linejoin="round" stroke-width="1.5"/>
    <path d="M1.1 -19.65 L1.1 -71.25" fill="none" stroke="#000000" stroke-linecap="round" stroke-linejoin="round" stroke-opacity="0.60784316" stroke-width="1.0"/>
  </g>
</svg>
