<?xml version="1.0" encoding="UTF-8" standalone="no"?>
<svg xmlns:xlink="http://www.w3.org/1999/xlink" height="101.6px" width="37.65px" xmlns="http://www.w3.org/2000/svg">
  <g transform="matrix(1.0, 0.0, 0.0, 1.0, 19.35, 73.05)">
    <path d="M6.0 -57.5 Q6.6 -54.65 -0.2 -54.45 -7.05 -54.25 -8.0 -57.7 L-8.5 -71.95 Q-29.05 -54.75 -7.85 -37.6 L-9.7 18.65 Q-8.8 26.4 -0.2 27.8 9.35 27.9 10.7 17.7 L6.45 -37.95 Q16.55 -43.95 17.5 -53.9 18.25 -65.8 6.3 -72.3 L6.0 -57.5 M-0.15 14.0 Q1.3 14.0 2.45 15.1 3.55 16.2 3.6 17.65 3.6 19.2 2.55 20.25 1.45 21.35 0.0 21.35 -1.55 21.45 -2.6 20.35 -3.7 19.25 -3.75 17.75 -3.8 16.3 -2.75 15.2 -1.65 14.1 -0.15 14.0" fill="none" stroke="#000000" stroke-linecap="round" stroke-linejoin="round" stroke-width="1.5"/>
  </g>
</svg>
