<?xml version="1.0" encoding="UTF-8" standalone="no"?>
<svg xmlns:xlink="http://www.w3.org/1999/xlink" height="93.5px" width="19.6px" xmlns="http://www.w3.org/2000/svg">
  <g transform="matrix(1.0, 0.0, 0.0, 1.0, 10.3, 73.6)">
    <path d="M-3.35 -66.65 L-5.1 -72.75 3.55 -72.85 2.25 -66.65 2.8 -30.9 5.3 -31.0 Q9.05 -30.2 8.45 -24.4 -0.7 -16.2 8.25 -10.15 L8.0 12.35 Q6.95 18.85 -0.35 19.15 -7.9 18.55 -9.45 11.95 L-9.05 -10.05 Q-0.75 -17.45 -9.55 -24.75 L-9.2 -28.2 Q-8.4 -30.9 -4.1 -30.85 L-3.35 -66.65 2.25 -66.65 M2.75 9.8 L2.85 -7.25 M-3.15 9.5 L-2.85 -7.9 M2.8 -30.9 L-4.1 -30.85" fill="none" stroke="#000000" stroke-linecap="round" stroke-linejoin="round" stroke-width="1.5"/>
  </g>
</svg>
