<?xml version="1.0" encoding="UTF-8" standalone="no"?>
<svg xmlns:xlink="http://www.w3.org/1999/xlink" height="99.45px" width="69.4px" xmlns="http://www.w3.org/2000/svg">
  <g transform="matrix(1.0, 0.0, 0.0, 1.0, 34.25, 64.85)">
    <path d="M9.15 -50.55 L9.2 -62.45 9.15 -64.05 -8.4 -64.1 -8.4 -62.45 -8.4 -50.55 -8.4 -47.5 -4.05 -47.45 -4.05 -47.5 4.8 -47.5 4.8 -47.45 9.15 -47.45 9.15 -50.55 Q23.8 -50.0 34.4 -37.85 34.15 -59.5 9.2 -62.45 M4.8 -47.45 L4.85 27.9 Q4.9 33.8 0.45 33.85 -4.05 33.95 -4.1 27.9 L-4.05 -47.45 M-8.4 -62.45 Q-33.35 -59.5 -33.5 -37.8 -22.95 -50.05 -8.4 -50.55" fill="none" stroke="#000000" stroke-linecap="round" stroke-linejoin="round" stroke-width="1.5"/>
  </g>
</svg>
