<?xml version="1.0" encoding="UTF-8" standalone="no"?>
<svg xmlns:xlink="http://www.w3.org/1999/xlink" height="56.8px" width="52.7px" xmlns="http://www.w3.org/2000/svg">
  <g transform="matrix(1.0, 0.0, 0.0, 1.0, 8.75, 52.55)">
    <path d="M16.15 -23.75 L31.85 -51.8 Q36.9 -47.9 34.2 -42.7 L20.35 -18.85 20.3 -18.9 Q20.0 -19.85 19.2 -20.45 L18.8 -20.75 18.6 -20.95 16.15 -23.75 18.6 -20.95 16.5 -21.3 Q15.25 -21.2 14.4 -20.45 L14.2 -20.3 14.05 -20.1 13.7 -19.75 Q13.05 -19.05 12.9 -18.2 L-5.3 -39.1 Q-8.9 -43.7 -4.7 -48.45 L16.15 -23.75 M17.1 -19.15 L17.95 -18.9 18.35 -18.15 Q18.4 -17.65 18.1 -17.3 L17.3 -16.85 Q16.8 -16.8 16.45 -17.15 16.05 -17.4 16.05 -17.9 15.95 -18.4 16.3 -18.75 16.6 -19.05 17.1 -19.15" fill="#b8b8b8" fill-rule="evenodd" stroke="none"/>
    <path d="M18.6 -20.95 L18.8 -20.75 19.2 -20.45 Q20.0 -19.85 20.3 -18.9 L20.35 -18.85 34.2 -42.7 Q36.9 -47.9 31.85 -51.8 L16.15 -23.75 18.6 -20.95 16.5 -21.3 Q15.25 -21.2 14.4 -20.45 L14.2 -20.3 14.05 -20.1 13.7 -19.75 Q13.05 -19.05 12.9 -18.2 L17.15 -13.3 25.0 -4.15 Q25.75 -2.95 27.0 -2.0 30.15 0.65 34.25 0.25 38.3 -0.15 40.9 -3.3 43.55 -6.5 43.15 -10.6 42.75 -14.65 39.6 -17.25 36.45 -19.85 32.35 -19.45 29.7 -19.25 27.7 -17.85 22.9 -15.35 20.45 -18.8 L20.35 -18.85 M12.9 -18.2 L12.85 -17.95 12.85 -17.85 Q11.0 -14.05 5.8 -15.5 3.55 -16.5 0.95 -16.25 -3.15 -15.85 -5.75 -12.75 -8.35 -9.55 -7.95 -5.5 -7.55 -1.4 -4.4 1.2 -1.25 3.85 2.8 3.45 6.9 3.0 9.55 -0.15 10.5 -1.3 11.05 -2.6 L17.15 -13.3 M6.75 -6.75 Q6.55 -8.85 4.95 -10.15 3.35 -11.5 1.25 -11.3 -0.85 -11.05 -2.2 -9.5 -3.5 -7.85 -3.35 -5.8 -3.15 -3.7 -1.5 -2.4 0.15 -1.05 2.2 -1.2 4.3 -1.45 5.65 -3.05 6.95 -4.65 6.75 -6.75 M36.75 -13.5 Q38.45 -12.1 38.6 -10.0 38.85 -7.9 37.45 -6.25 36.1 -4.6 34.0 -4.4 31.85 -4.2 30.2 -5.55 28.6 -6.9 28.4 -9.0 28.2 -11.15 29.55 -12.8 30.9 -14.45 33.05 -14.65 35.15 -14.85 36.75 -13.5 M12.9 -18.2 L-5.3 -39.1 Q-8.9 -43.7 -4.7 -48.45 L16.15 -23.75" fill="none" stroke="#000000" stroke-linecap="round" stroke-linejoin="round" stroke-width="1.5"/>
    <path d="M17.1 -19.15 L17.95 -18.9 18.35 -18.15 Q18.4 -17.65 18.1 -17.3 L17.3 -16.85 Q16.8 -16.8 16.45 -17.15 16.05 -17.4 16.05 -17.9 15.95 -18.4 16.3 -18.75 16.6 -19.05 17.1 -19.15" fill="none" stroke="#000000" stroke-linecap="round" stroke-linejoin="round" stroke-width="1.0"/>
  </g>
</svg>
