<?xml version="1.0" encoding="UTF-8" standalone="no"?>
<svg xmlns:xlink="http://www.w3.org/1999/xlink" height="63.65px" width="37.9px" xmlns="http://www.w3.org/2000/svg">
  <g transform="matrix(1.0, 0.0, 0.0, 1.0, 9.3, 51.5)">
    <path d="M5.95 -34.4 Q7.6 -41.4 -4.3 -44.95 0.85 -49.35 7.8 -46.05 L9.55 -45.15 Q18.5 -54.85 27.75 -47.7 20.0 -47.6 14.3 -37.1 21.55 -43.7 27.45 -36.25 20.35 -33.85 17.7 -29.4 23.05 -28.3 25.55 -23.35 27.75 -19.15 27.85 -12.1 L27.85 -11.9 Q27.85 -7.5 26.85 -3.8 26.0 -0.9 24.6 1.55 23.1 4.2 20.75 6.55 16.1 11.25 9.6 11.4 3.1 11.25 -1.5 6.55 -3.85 4.2 -5.4 1.55 -6.85 -0.95 -7.65 -3.95 -8.55 -7.45 -8.55 -11.6 L-8.55 -12.1 Q-8.5 -18.7 -6.6 -22.85 -3.8 -28.75 2.8 -29.65 L3.8 -29.8 Q1.95 -32.95 -2.65 -34.3 1.05 -38.15 5.95 -34.4 L7.15 -33.35 10.5 -30.25 14.3 -37.1 Q13.3 -42.7 9.55 -45.15 M13.9 -24.9 L16.75 -27.95 19.45 -25.05 M10.5 -30.25 L16.45 -29.65 17.7 -29.4 M3.8 -29.8 L10.5 -30.25 M13.9 -15.85 L16.75 -18.95 19.45 -16.0 M6.25 -20.15 L9.05 -23.2 11.8 -20.3 M-1.15 -15.85 L1.7 -18.95 4.4 -16.0 M-1.55 -6.4 L1.25 -9.5 4.0 -6.55 M6.25 -2.45 L9.05 -5.55 11.8 -2.6 M13.9 -7.05 L16.75 -10.15 19.45 -7.2 M6.25 -11.1 L9.05 -14.2 11.8 -11.3 M23.25 -3.45 L25.0 -5.35 26.85 -3.8 M25.55 -23.35 L23.1 -20.9 M24.05 -12.05 L26.0 -13.95 27.85 -11.9 M-1.55 -24.5 L1.25 -27.6 4.0 -24.7 M-4.5 -12.1 L-6.35 -13.85 -8.55 -11.6 M-6.6 -22.85 L-4.0 -20.55 M-7.65 -3.95 L-6.1 -5.3 -4.35 -3.1 M6.25 7.65 L9.05 4.55 11.8 7.5 M13.9 2.0 L16.75 -1.05 19.45 1.85 M-1.55 2.0 L1.25 -1.05 4.0 1.85" fill="none" stroke="#000000" stroke-linecap="round" stroke-linejoin="round" stroke-width="1.5"/>
  </g>
</svg>
