<?xml version="1.0" encoding="UTF-8" standalone="no"?>
<svg xmlns:xlink="http://www.w3.org/1999/xlink" height="80.05px" width="26.4px" xmlns="http://www.w3.org/2000/svg">
  <g transform="matrix(1.0, 0.0, 0.0, 1.0, 15.1, 70.45)">
    <path d="M-4.25 -19.65 L2.45 -21.05 3.55 -16.2 Q2.35 -12.4 -0.75 -9.05 L2.2 5.15 Q1.8 10.45 -2.95 8.2 L-6.75 -10.0 -3.5 -16.1 -4.25 -19.65" fill="#464646" fill-rule="evenodd" stroke="none"/>
    <path d="M2.45 -21.05 Q10.75 -22.7 10.55 -31.1 L3.75 -63.35 Q0.85 -70.3 -5.2 -69.65 L-14.35 -67.7 -4.25 -19.65 2.45 -21.05 3.55 -16.2 Q2.35 -12.4 -0.75 -9.05 L2.2 5.15 Q1.8 10.45 -2.95 8.2 L-6.75 -10.0 -3.5 -16.1 -4.25 -19.65" fill="none" stroke="#000000" stroke-linecap="round" stroke-linejoin="round" stroke-width="1.5"/>
  </g>
</svg>
