<?xml version="1.0" encoding="UTF-8" standalone="no"?>
<svg xmlns:xlink="http://www.w3.org/1999/xlink" height="72.4px" width="34.45px" xmlns="http://www.w3.org/2000/svg">
  <g transform="matrix(1.0, 0.0, 0.0, 1.0, 18.35, 67.65)">
    <path d="M2.9 -15.5 L2.9 2.1 Q2.3 4.3 -0.9 3.95 -4.7 4.0 -5.15 2.1 L-5.15 -15.4 2.9 -15.5" fill="#f0cfa7" fill-rule="evenodd" stroke="none"/>
    <path d="M-5.15 -15.4 L-13.45 -15.7 Q-17.65 -17.2 -17.6 -22.5 L-17.0 -52.2 -16.95 -52.9 -17.0 -53.1 Q-15.35 -62.9 -6.4 -66.2 3.25 -68.55 9.55 -62.75 14.5 -58.25 15.35 -49.4 L14.1 -17.6 Q13.75 -15.55 9.6 -15.7 L2.9 -15.5 2.9 2.1 Q2.3 4.3 -0.9 3.95 -4.7 4.0 -5.15 2.1 L-5.15 -15.4 2.9 -15.5" fill="none" stroke="#000000" stroke-linecap="round" stroke-linejoin="round" stroke-width="1.5"/>
    <path d="M-12.45 -50.55 Q-11.55 -61.85 -0.45 -62.4" fill="none" stroke="#000000" stroke-linecap="round" stroke-linejoin="round" stroke-opacity="0.61960787" stroke-width="1.0"/>
  </g>
</svg>
