<?xml version="1.0" encoding="UTF-8" standalone="no"?>
<svg xmlns:xlink="http://www.w3.org/1999/xlink" height="75.2px" width="44.15px" xmlns="http://www.w3.org/2000/svg">
  <g transform="matrix(1.0, 0.0, 0.0, 1.0, 22.5, 60.75)">
    <path d="M-17.6 -50.5 Q-21.45 -51.25 -21.7 -54.5 L-21.75 -58.4 Q-21.8 -59.45 -20.1 -59.5 L19.15 -60.0 Q21.1 -59.8 20.85 -58.3 L20.2 -54.15 Q19.9 -51.45 16.55 -50.65 16.5 -42.25 6.2 -34.1 L5.85 -27.85 Q5.65 -25.25 4.15 -24.75 L3.9 9.8 Q3.6 12.9 0.05 13.7 -3.15 12.9 -3.3 10.45 L-4.55 -24.45 Q-6.95 -25.7 -6.65 -27.95 L-6.5 -34.2 Q-17.15 -41.6 -17.6 -50.5 L16.55 -50.65 M4.15 -24.75 L-4.55 -24.45 M6.2 -34.1 L-6.5 -34.2" fill="none" stroke="#000000" stroke-linecap="round" stroke-linejoin="round" stroke-width="1.5"/>
  </g>
</svg>
