<?xml version="1.0" encoding="UTF-8" standalone="no"?>
<svg xmlns:xlink="http://www.w3.org/1999/xlink" height="71.3px" width="12.8px" xmlns="http://www.w3.org/2000/svg">
  <g transform="matrix(1.0, 0.0, 0.0, 1.0, 6.4, 56.8)">
    <path d="M-0.1 -38.55 Q1.75 -33.55 2.9 -28.6 L4.1 -22.05 Q6.5 -5.2 1.6 12.75 0.2 15.55 -1.2 10.4 -6.3 -7.6 -4.8 -21.75 -4.4 -25.25 -3.65 -28.5 -2.4 -33.8 -0.1 -38.55 -4.65 -39.1 -5.6 -43.35 -6.5 -54.9 3.5 -56.05 1.25 -52.8 4.35 -48.35 8.4 -42.6 -0.1 -38.55" fill="none" stroke="#000000" stroke-linecap="round" stroke-linejoin="round" stroke-width="1.5"/>
    <path d="M4.1 -22.05 L-4.8 -21.75 M-3.65 -28.5 L2.9 -28.6" fill="none" stroke="#000000" stroke-linecap="round" stroke-linejoin="round" stroke-width="1.0"/>
  </g>
</svg>
