<?xml version="1.0" encoding="UTF-8" standalone="no"?>
<svg xmlns:xlink="http://www.w3.org/1999/xlink" height="73.25px" width="57.25px" xmlns="http://www.w3.org/2000/svg">
  <g transform="matrix(1.0, 0.0, 0.0, 1.0, 10.65, 56.1)">
    <path d="M13.45 -52.45 L9.45 -50.6 Q10.85 -49.2 15.05 -48.3 19.2 -47.4 20.1 -48.8 L17.2 -51.75 M-6.25 -22.85 L-1.7 -23.8 4.15 5.0 5.85 13.3 Q5.85 15.25 2.7 16.2 -1.45 17.0 -2.35 14.95 L-4.05 6.65 -9.9 -22.15 -6.25 -22.85 -5.5 -26.8 Q-8.35 -28.0 -8.0 -30.7 L-6.1 -36.75 Q-5.0 -38.9 -2.05 -38.5 L-0.9 -40.55 Q-2.55 -42.1 -2.45 -44.1 L2.7 -50.55 Q5.1 -51.85 6.75 -49.3 L9.45 -50.6 10.05 -53.5 Q10.85 -55.75 13.95 -55.3 L20.4 -53.4 Q22.0 -52.25 20.1 -48.8 L23.0 -45.85 M4.0 -48.05 L6.75 -49.3 Q7.7 -47.65 6.4 -45.55 L2.15 -40.45 -0.9 -40.55 0.85 -43.85 M35.55 -18.45 L19.8 -43.0 25.65 -46.8 41.3 -22.35 45.75 -15.4 Q46.2 -13.7 44.3 -11.9 41.35 -10.6 39.9 -11.55 L35.55 -18.45 Q39.55 -19.25 41.3 -22.35 M-4.75 -30.7 L-5.5 -26.8 Q-3.75 -26.85 -2.95 -27.9 L-0.6 -35.1 Q-0.35 -37.75 -2.05 -38.5 L-4.05 -34.9 M4.15 5.0 Q0.35 7.2 -4.05 6.65" fill="none" stroke="#000000" stroke-linecap="round" stroke-linejoin="round" stroke-width="1.5"/>
  </g>
</svg>
