<?xml version="1.0" encoding="UTF-8" standalone="no"?>
<svg xmlns:xlink="http://www.w3.org/1999/xlink" height="103.85px" width="46.2px" xmlns="http://www.w3.org/2000/svg">
  <g transform="matrix(1.0, 0.0, 0.0, 1.0, 35.45, 83.85)">
    <path d="M-21.3 -71.2 L-15.75 -70.95 -15.4 -78.15 -15.4 -78.55 -15.3 -79.1 Q-15.15 -80.7 -13.95 -81.8 -12.55 -83.15 -10.6 -83.1 -8.65 -83.0 -7.35 -81.55 -6.1 -80.25 -6.1 -78.5 L-6.5 -53.7 Q-2.25 -51.75 -0.65 -47.35 L-1.2 -22.8 Q3.25 -24.15 5.75 -20.75 L5.55 -8.35 Q4.7 -6.25 1.45 -7.75 L10.0 19.25 -2.3 18.15 -9.95 17.4 Q-8.8 4.8 -8.05 -7.6 -9.55 -1.95 -14.55 -1.6 -19.25 -2.35 -18.75 -8.0 L-17.85 -26.55 -24.6 -26.5 -24.3 -24.75 -22.95 -16.0 -34.7 -16.35 -31.75 -24.2 -30.65 -50.75 -33.25 -56.9 -20.75 -56.3 -23.35 -50.2 -23.6 -46.9 -16.85 -46.85 -15.75 -70.95 M-15.4 -78.15 L-15.3 -79.1 M-23.35 -50.2 L-30.65 -50.75 M-17.85 -26.55 L-16.85 -46.85 M-24.6 -26.5 L-23.6 -46.9 M-24.3 -24.75 L-31.75 -24.2 M1.45 -7.75 L-1.4 -16.55 -1.2 -22.8 M-8.05 -7.6 Q-6.65 -31.05 -6.5 -53.7 M-3.7 6.35 Q-4.45 6.3 -5.0 5.75 -5.45 5.25 -5.45 4.4 -5.45 3.75 -4.9 3.25 -4.35 2.75 -3.55 2.7 -2.85 2.75 -2.35 3.35 -1.85 3.9 -1.8 4.6 -1.85 5.35 -2.4 5.9 -2.95 6.4 -3.7 6.35 M-2.3 18.15 L-2.8 9.1" fill="none" stroke="#000000" stroke-linecap="round" stroke-linejoin="round" stroke-width="1.5"/>
  </g>
</svg>
