<?xml version="1.0" encoding="UTF-8" standalone="no"?>
<svg xmlns:xlink="http://www.w3.org/1999/xlink" height="67.65px" width="43.5px" xmlns="http://www.w3.org/2000/svg">
  <g transform="matrix(1.0, 0.0, 0.0, 1.0, 21.55, 53.4)">
    <path d="M16.25 -13.25 Q13.7 -9.55 9.6 -7.8 L9.1 -7.5 Q3.9 -4.95 4.45 0.7 L6.5 9.35 Q7.3 12.65 3.55 13.5 L-2.35 13.3 Q-6.35 13.35 -5.9 9.85 L-4.25 3.6 Q-2.0 -3.65 -8.35 -7.4 -13.95 -9.7 -17.5 -14.05 -18.95 -16.0 -19.6 -18.45 -22.15 -27.7 -19.3 -36.4 -14.1 -51.45 -0.5 -52.65 16.75 -52.65 21.0 -30.95 22.15 -22.05 16.25 -13.25 L-17.5 -14.05" fill="none" stroke="#000000" stroke-linecap="round" stroke-linejoin="round" stroke-width="1.5"/>
  </g>
</svg>
