<?xml version="1.0" encoding="UTF-8" standalone="no"?>
<svg xmlns:xlink="http://www.w3.org/1999/xlink" height="89.2px" width="40.2px" xmlns="http://www.w3.org/2000/svg">
  <g transform="matrix(1.0, 0.0, 0.0, 1.0, 20.3, 75.4)">
    <path d="M-17.55 -13.7 Q-18.55 -21.15 -14.4 -22.2 L-14.8 -26.65 -16.35 -26.95 Q-17.7 -27.45 -18.3 -28.75 -18.85 -30.1 -18.3 -31.45 -17.75 -32.8 -16.4 -33.35 L-15.55 -33.6 -17.4 -52.35 -19.55 -73.75 -12.9 -74.35 -9.3 -74.65 -6.75 -49.45 Q-3.0 -47.85 -2.85 -42.1 -2.75 -33.55 -2.15 -26.85 6.15 -24.95 6.05 -19.25 5.95 -13.55 0.3 -11.75 L1.15 -9.4 Q3.25 -4.5 7.1 -3.25 10.75 -2.05 16.05 -4.2 19.9 -5.65 19.0 4.55 17.95 13.1 14.35 13.05 8.6 11.9 4.2 9.4 -7.3 2.95 -10.5 -12.25 -13.2 -12.35 -13.8 -16.15 L-14.4 -22.2 -12.55 -23.1 M7.1 -3.25 L4.2 9.4 M-10.5 -12.25 Q-7.3 -14.2 -7.35 -18.0 L-10.55 -50.1 -11.3 -58.45 -17.4 -52.35 M-12.9 -74.35 L-11.3 -58.45 M-15.55 -33.6 L-13.7 -33.35 Q-12.4 -32.8 -11.85 -31.5 -11.3 -30.15 -11.85 -28.8 -12.4 -27.45 -13.75 -26.9 L-14.8 -26.65 M-2.15 -26.85 Q-1.8 -21.85 -1.1 -17.9 L2.8 -18.6 M-10.55 -50.1 Q-8.3 -50.15 -6.75 -49.45 M-1.1 -17.9 L0.3 -11.75" fill="none" stroke="#000000" stroke-linecap="round" stroke-linejoin="round" stroke-width="1.5"/>
  </g>
</svg>
