<?xml version="1.0" encoding="UTF-8" standalone="no"?>
<svg xmlns:xlink="http://www.w3.org/1999/xlink" height="62.05px" width="25.35px" xmlns="http://www.w3.org/2000/svg">
  <g transform="matrix(1.0, 0.0, 0.0, 1.0, 15.55, 42.85)">
    <path d="M-12.05 -22.9 L-13.45 -25.1 Q-15.7 -29.35 -14.25 -33.95 -12.8 -38.55 -8.55 -40.75 -4.25 -42.95 0.3 -41.55 4.85 -40.1 7.15 -35.8 9.35 -31.55 7.9 -26.95 L7.3 -25.55 -12.05 -22.9" fill="#9a9a9a" fill-rule="evenodd" stroke="none"/>
    <path d="M7.3 -25.55 Q9.2 -23.85 9.05 -21.1 8.95 -18.45 6.35 -18.05 L4.35 -17.75 6.7 4.3 7.8 14.45 Q6.9 17.45 3.0 18.35 -1.6 19.0 -2.8 16.2 L-4.4 5.75 -7.75 -16.4 Q-12.25 -15.85 -13.3 -19.0 -13.95 -21.35 -12.05 -22.9 L-13.45 -25.1 Q-15.7 -29.35 -14.25 -33.95 -12.8 -38.55 -8.55 -40.75 -4.25 -42.95 0.3 -41.55 4.85 -40.1 7.15 -35.8 9.35 -31.55 7.9 -26.95 L7.3 -25.55 -12.05 -22.9 M4.35 -17.75 L-7.75 -16.4 M6.7 4.3 L-4.4 5.75" fill="none" stroke="#000000" stroke-linecap="round" stroke-linejoin="round" stroke-width="1.5"/>
  </g>
</svg>
