<?xml version="1.0" encoding="UTF-8" standalone="no"?>
<svg xmlns:xlink="http://www.w3.org/1999/xlink" height="67.7px" width="56.65px" xmlns="http://www.w3.org/2000/svg">
  <g transform="matrix(1.0, 0.0, 0.0, 1.0, 23.55, 56.35)">
    <path d="M4.95 -48.55 L3.75 -50.55 Q2.4 -52.75 4.95 -55.05 8.0 -56.4 9.9 -54.55 L17.8 -41.6 24.75 -43.1 28.8 -36.55 24.25 -31.1 32.2 -18.2 Q32.95 -15.65 30.45 -13.55 27.15 -12.25 25.85 -14.45 L24.55 -16.45 -3.4 -11.55 -3.45 -11.5 Q-0.45 -6.5 4.6 0.85 L6.3 3.1 Q10.0 4.9 8.55 6.4 L1.0 10.6 -10.3 -7.3 -10.45 -7.2 Q-17.35 -4.1 -21.2 -10.4 -25.15 -16.75 -19.2 -21.45 L-12.05 -25.8 4.95 -48.55 24.55 -16.45 M17.8 -41.6 L24.25 -31.1 M-3.45 -11.5 L-10.3 -7.3 M-11.65 -17.05 L-13.7 -20.6 M-15.4 -14.55 L-17.65 -18.2 M-12.05 -25.8 L-3.4 -11.55" fill="none" stroke="#000000" stroke-linecap="round" stroke-linejoin="round" stroke-width="1.5"/>
  </g>
</svg>
