<?xml version="1.0" encoding="UTF-8" standalone="no"?>
<svg xmlns:xlink="http://www.w3.org/1999/xlink" height="66.25px" width="69.6px" xmlns="http://www.w3.org/2000/svg">
  <g transform="matrix(1.0, 0.0, 0.0, 1.0, 7.95, 56.2)">
    <path d="M37.05 -24.85 L35.6 -23.7 31.05 -29.5 32.5 -30.65 Q31.7 -33.95 25.95 -37.9 20.15 -41.8 13.1 -35.4 L2.8 -24.3 4.2 -22.45 Q12.35 -27.15 18.3 -21.0 L24.4 -13.3 Q28.95 -6.1 22.55 0.75 L24.0 2.55 37.15 -4.9 Q45.0 -10.3 42.55 -16.85 40.05 -23.35 37.05 -24.85 L38.95 -26.4 Q41.05 -28.45 38.85 -31.0 36.9 -33.7 34.4 -32.2 L32.5 -30.65 M24.0 2.55 L25.4 4.4 Q26.85 5.95 29.85 4.75 L55.25 -9.75 Q65.15 -16.2 57.65 -28.9 L41.2 -49.7 Q30.6 -60.0 22.05 -51.85 L2.0 -30.55 Q0.15 -27.85 1.35 -26.1 L2.8 -24.3 M1.35 -26.1 Q-2.9 -23.2 -4.9 -18.85 -10.2 -7.75 -3.35 2.3 4.85 11.3 16.85 8.75 21.55 7.8 25.4 4.4 M22.55 0.75 Q10.8 9.4 0.8 -0.95 -6.95 -13.1 4.2 -22.45" fill="none" stroke="#000000" stroke-linecap="round" stroke-linejoin="round" stroke-width="1.5"/>
  </g>
</svg>
