<?xml version="1.0" encoding="UTF-8" standalone="no"?>
<svg xmlns:xlink="http://www.w3.org/1999/xlink" height="64.6px" width="48.55px" xmlns="http://www.w3.org/2000/svg">
  <g transform="matrix(1.0, 0.0, 0.0, 1.0, 24.9, 55.0)">
    <path d="M15.5 -52.3 L16.6 -53.35 20.6 -49.4 22.9 -47.1 13.05 -37.25 13.75 -36.25 8.6 -31.1 Q14.85 -23.25 8.6 -17.95 L8.3 -17.75 6.35 -15.85 Q3.15 -12.25 5.15 -9.4 L12.2 1.5 6.05 7.65 Q3.4 10.05 1.3 7.65 L-6.75 -3.95 Q-9.9 -8.55 -17.05 -5.8 -18.9 -7.75 -19.65 -9.75 -24.5 -9.65 -24.15 -14.15 -22.85 -18.7 -18.1 -18.15 L-16.6 -19.9 15.5 -52.3 13.45 -54.25 M8.6 -31.1 L6.75 -29.25 2.2 -24.8 1.1 -23.75 Q-0.85 -19.65 1.2 -16.6 L1.5 -16.3 Q3.3 -14.8 6.35 -15.85 M20.6 -49.4 L15.3 -44.05 Q11.3 -40.5 13.05 -37.25 M3.15 5.4 L7.9 0.7 M1.0 1.85 L5.85 -2.65 M-19.65 -9.75 Q-21.25 -13.95 -18.1 -18.15 M-8.65 -22.1 L-5.35 -25.3 M-1.4 -1.55 L3.45 -6.05 M1.1 -23.75 L-17.05 -5.8" fill="none" stroke="#000000" stroke-linecap="round" stroke-linejoin="round" stroke-width="1.5"/>
    <path d="M6.75 -29.25 Q11.9 -24.35 6.55 -19.4 L6.3 -19.15 6.0 -18.95 5.95 -18.95 Q3.8 -17.2 1.5 -16.3 M2.2 -24.8 Q3.75 -20.5 5.95 -18.95 L6.3 -19.15" fill="none" stroke="#000000" stroke-linecap="round" stroke-linejoin="round" stroke-width="1.0"/>
  </g>
</svg>
