<?xml version="1.0" encoding="UTF-8" standalone="no"?>
<svg xmlns:xlink="http://www.w3.org/1999/xlink" height="129.45px" width="69.75px" xmlns="http://www.w3.org/2000/svg">
  <g transform="matrix(1.0, 0.0, 0.0, 1.0, 31.35, 87.75)">
    <path d="M3.0 -32.65 L5.95 -24.6 1.7 -23.3 -2.65 -22.05 -6.55 -20.85 -8.6 -29.05 Q-23.85 -21.3 -15.6 -7.25 -10.0 -0.1 -12.85 9.8 -16.5 30.35 -0.7 39.4 7.65 42.6 18.7 39.25 29.7 35.85 34.8 28.6 42.8 12.25 28.3 -2.75 20.5 -9.3 21.05 -18.5 20.15 -34.7 3.0 -32.65 L-10.0 -69.4 -12.6 -68.55 1.7 -23.3 M4.4 -16.1 Q6.8 -16.2 9.05 -15.05 12.5 -13.15 13.75 -9.25 14.85 -5.4 13.1 -2.0 12.0 0.05 10.2 1.2 9.1 2.15 7.55 2.65 L5.15 3.05 Q2.7 3.05 0.3 1.9 -3.1 0.1 -4.3 -3.75 -5.45 -7.7 -3.7 -11.15 -2.4 -13.45 -0.35 -14.7 0.75 -15.35 1.9 -15.8 L4.4 -16.1 10.2 1.2 M21.25 26.3 L27.4 24.4 24.9 16.4 18.65 18.35 21.25 26.3 15.3 28.1 8.85 30.0 3.1 31.85 0.65 23.8 6.55 22.0 18.65 18.35 M15.3 28.1 L12.85 20.45 M8.85 30.0 L6.55 22.0 M-30.6 -76.05 L-25.15 -77.7 -27.35 -81.95 -11.0 -87.0 -10.35 -82.25 -5.1 -83.85 M-8.6 -29.05 L-18.3 -66.85 -19.5 -66.45 -20.8 -69.2 -26.25 -67.5 M-10.0 -69.4 L-8.8 -69.8 -9.25 -72.75 -10.35 -82.25 M-18.3 -66.85 L-15.25 -67.75 -12.6 -68.55 M-3.75 -74.4 L-9.25 -72.75 M-20.8 -69.2 L-25.15 -77.7 M-15.25 -67.75 L-2.65 -22.05 M-0.35 -14.7 L5.15 3.05" fill="none" stroke="#000000" stroke-linecap="round" stroke-linejoin="round" stroke-width="1.5"/>
  </g>
</svg>
