<?xml version="1.0" encoding="UTF-8" standalone="no"?>
<svg xmlns:xlink="http://www.w3.org/1999/xlink" height="46.1px" width="42.25px" xmlns="http://www.w3.org/2000/svg">
  <g transform="matrix(1.0, 0.0, 0.0, 1.0, 22.6, 42.95)">
    <path d="M15.4 -23.9 Q13.15 -27.45 9.85 -29.8 7.35 -24.1 1.25 -21.7 L5.6 -11.85 Q13.75 -14.65 15.4 -23.9 L17.05 -20.75 Q20.0 -13.9 18.3 -7.45 16.65 -1.05 11.45 1.3 L11.25 1.4 Q5.9 3.75 0.0 0.55 -5.9 -2.65 -8.85 -9.5 L-9.5 -11.1 Q-11.2 -15.85 -10.6 -20.45 L-10.15 -22.75 Q-9.5 -25.25 -8.3 -27.1 L-10.7 -32.55 Q-14.0 -30.45 -17.15 -26.5 -19.9 -22.9 -20.2 -17.75 -25.85 -23.2 -12.1 -35.8 L-12.65 -37.05 -0.8 -42.2 3.45 -32.4 Q5.75 -32.05 8.15 -30.75 L9.85 -29.8 M11.45 1.3 L5.6 -11.85 Q-1.75 -8.15 -9.5 -11.1 M-8.3 -27.1 Q-6.4 -30.1 -3.15 -31.55 L-3.1 -31.55 Q0.1 -32.95 3.45 -32.4 M-10.7 -32.55 L-12.1 -35.8 M1.25 -21.7 Q-4.0 -19.5 -10.6 -20.45 M-3.15 -31.55 L1.25 -21.7" fill="none" stroke="#000000" stroke-linecap="round" stroke-linejoin="round" stroke-width="1.5"/>
  </g>
</svg>
