<?xml version="1.0" encoding="UTF-8" standalone="no"?>
<svg xmlns:xlink="http://www.w3.org/1999/xlink" height="128.05px" width="102.85px" xmlns="http://www.w3.org/2000/svg">
  <g transform="matrix(1.0, 0.0, 0.0, 1.0, 91.0, 124.55)">
    <path d="M-10.4 -31.35 L-7.75 -35.75 -7.9 -36.35 Q-8.2 -38.2 -7.1 -39.6 -6.0 -41.15 -4.2 -41.4 -2.35 -41.7 -0.9 -40.55 0.6 -39.55 0.9 -37.7 1.2 -35.85 0.1 -34.35 -0.95 -32.9 -2.8 -32.6 L-3.1 -32.55 -6.25 -28.25 -8.55 -25.05 Q-10.65 -22.8 -12.25 -23.4 -14.5 -25.3 -12.9 -27.5 L-10.4 -31.35 M-15.9 -13.1 Q-18.55 -10.15 -22.0 -11.9 -24.05 -14.45 -22.0 -17.85 -20.85 -19.6 -18.5 -21.7 -17.8 -20.1 -16.3 -19.0 -14.8 -17.95 -13.2 -17.75 -14.4 -14.75 -15.9 -13.1 M-7.75 -35.75 Q-7.4 -34.3 -6.1 -33.4 -4.75 -32.4 -3.1 -32.55 -4.75 -32.4 -6.1 -33.4 -7.4 -34.3 -7.75 -35.75" fill="#89888e" fill-rule="evenodd" stroke="none"/>
    <path d="M-10.4 -31.35 L-7.75 -35.75 -7.9 -36.35 Q-8.2 -38.2 -7.1 -39.6 -6.0 -41.15 -4.2 -41.4 -2.35 -41.7 -0.9 -40.55 0.6 -39.55 0.9 -37.7 1.2 -35.85 0.1 -34.35 -0.95 -32.9 -2.8 -32.6 L-3.1 -32.55 -6.25 -28.25 Q-5.55 -27.05 -5.35 -25.65 -4.9 -22.8 -6.6 -20.5 -8.0 -18.55 -10.3 -18.0 L-1.9 -12.7 6.4 -7.3 7.6 -6.55 Q12.8 -3.55 10.3 0.15 7.2 4.7 2.95 1.3 L1.25 -0.05 -6.35 -5.85 -15.9 -13.1 Q-18.55 -10.15 -22.0 -11.9 -24.05 -14.45 -22.0 -17.85 L-43.35 -34.2 -66.0 -51.45 -84.7 -65.8 -85.8 -65.45 Q-87.35 -65.2 -88.65 -66.1 -89.95 -67.05 -90.2 -68.65 -90.45 -70.25 -89.5 -71.5 -88.5 -72.75 -86.95 -73.0 -85.35 -73.25 -84.1 -72.35 -83.15 -71.55 -82.75 -70.45 -74.75 -79.55 -59.25 -90.85 -48.2 -99.65 -37.2 -108.5 -38.25 -112.2 -35.65 -114.05 L-34.75 -114.7 -33.2 -116.05 Q-29.85 -118.9 -27.7 -115.9 L-26.0 -117.3 Q-27.55 -120.5 -25.25 -122.6 -22.4 -125.3 -19.5 -122.0 M1.25 -0.05 L6.4 -7.3 M-34.75 -114.7 L-30.75 -109.75 -27.6 -112.35 Q-26.35 -114.25 -27.7 -115.9 M-37.2 -108.5 Q-33.9 -106.35 -30.75 -109.75 M-82.75 -70.45 L-82.65 -69.8 -82.6 -69.5 -62.8 -55.45 Q-57.2 -65.8 -82.75 -70.45 M-82.6 -69.5 Q-82.45 -68.1 -83.25 -66.95 -83.85 -66.1 -84.7 -65.8 M-66.0 -51.45 L-62.8 -55.45 Q-45.9 -57.1 -40.3 -50.8 -37.65 -45.25 -39.7 -39.0 -28.5 -39.95 -15.65 -30.65 -14.6 -31.25 -13.25 -31.45 L-10.4 -31.35 -12.9 -27.5 Q-14.5 -25.3 -12.25 -23.4 -10.65 -22.8 -8.55 -25.05 L-6.25 -28.25 M-15.65 -30.65 Q-16.85 -29.95 -17.8 -28.65 -19.25 -26.7 -19.1 -24.25 L-19.05 -23.55 -18.5 -21.7 Q-17.8 -20.1 -16.3 -19.0 -14.8 -17.95 -13.2 -17.75 -12.2 -17.6 -11.15 -17.75 L-10.3 -18.0 M-3.1 -32.55 Q-4.75 -32.4 -6.1 -33.4 -7.4 -34.3 -7.75 -35.75 M-15.9 -13.1 Q-14.4 -14.75 -13.2 -17.75 M-1.9 -12.7 L-6.35 -5.85 M-19.1 -24.25 L-39.7 -39.0 -43.35 -34.2 M-18.5 -21.7 Q-20.85 -19.6 -22.0 -17.85 M-39.7 -39.0 L-62.8 -55.45" fill="none" stroke="#000000" stroke-linecap="round" stroke-linejoin="round" stroke-width="1.5"/>
  </g>
</svg>
