<?xml version="1.0" encoding="UTF-8" standalone="no"?>
<svg xmlns:xlink="http://www.w3.org/1999/xlink" height="75.5px" width="75.3px" xmlns="http://www.w3.org/2000/svg">
  <g transform="matrix(1.0, 0.0, 0.0, 1.0, 33.4, 42.7)">
    <path d="M18.35 -36.2 L19.4 -41.95 3.75 -30.25 1.95 -23.5 0.1 -16.7 -7.15 -14.15 -27.65 -17.7 -32.65 -18.6 -20.8 -2.8 -15.3 -1.65 -7.7 -0.1 -4.35 9.5 -8.3 26.2 -9.7 32.05 6.4 21.8 7.4 16.65 8.9 8.9 16.2 6.35 34.65 9.45 41.15 10.5 29.85 -4.95 23.25 -6.4 16.65 -7.85 14.25 -14.7 18.35 -36.2 M9.35 -5.25 Q10.05 -3.3 9.15 -1.35 8.3 0.55 6.3 1.25 L2.45 1.0 Q0.55 0.05 -0.15 -1.9 -0.8 -3.85 0.1 -5.75 1.0 -7.65 2.95 -8.3 L6.8 -8.1 Q8.7 -7.2 9.35 -5.25" fill="none" stroke="#000000" stroke-linecap="round" stroke-linejoin="round" stroke-width="1.5"/>
    <path d="M1.95 -23.5 L18.35 -36.2 M8.45 -11.45 Q11.7 -9.9 12.85 -6.5 14.05 -3.1 12.5 0.25 11.05 3.55 7.55 4.75 4.2 5.9 0.9 4.35 -2.4 2.7 -3.6 -0.7 -4.75 -4.05 -3.2 -7.35 -1.6 -10.65 1.75 -11.8 5.25 -13.0 8.45 -11.45 M34.65 9.45 L23.25 -6.4 M-27.65 -17.7 L-15.3 -1.65 M-8.3 26.2 L7.4 16.65" fill="none" stroke="#000000" stroke-linecap="round" stroke-linejoin="round" stroke-width="1.0"/>
  </g>
</svg>
