<?xml version="1.0" encoding="UTF-8" standalone="no"?>
<svg xmlns:xlink="http://www.w3.org/1999/xlink" height="54.1px" width="30.85px" xmlns="http://www.w3.org/2000/svg">
  <g transform="matrix(1.0, 0.0, 0.0, 1.0, 10.65, 39.95)">
    <path d="M-8.5 -22.25 L-7.2 -29.15 -7.85 -31.55 2.9 -34.45 3.55 -32.05 7.65 -27.25 6.05 -24.6 Q4.55 -22.1 2.3 -23.6 -0.2 -25.25 -2.45 -22.2 -3.9 -20.75 -5.7 -21.3 -6.65 -22.05 -8.5 -22.25" fill="#dbdbdb" fill-rule="evenodd" stroke="none"/>
    <path d="M7.65 -27.25 L3.55 -32.05 2.9 -34.45 -7.85 -31.55 -7.2 -29.15 -8.5 -22.25 -8.95 -20.1 Q-9.95 -16.85 -9.05 -14.1 L-2.9 8.8 -2.4 10.75 Q-1.2 13.85 1.0 13.35 L17.65 8.9 Q19.85 8.2 19.35 4.95 L18.85 3.0 12.7 -19.9 Q12.05 -22.75 9.55 -25.05 L7.65 -27.25 M2.9 -34.45 L3.75 -34.65 2.55 -39.2 -9.9 -35.85 -8.7 -31.3 -7.85 -31.55" fill="none" stroke="#000000" stroke-linecap="round" stroke-linejoin="round" stroke-width="1.5"/>
    <path d="M-8.5 -22.25 Q-6.65 -22.05 -5.7 -21.3 -3.9 -20.75 -2.45 -22.2 -0.2 -25.25 2.3 -23.6 4.55 -22.1 6.05 -24.6 L7.65 -27.25 M-5.8 -18.05 Q-6.3 -17.9 -5.95 -16.25 L-0.7 3.35 M-0.05 5.75 L0.95 9.45" fill="none" stroke="#000000" stroke-linecap="round" stroke-linejoin="round" stroke-opacity="0.31764707" stroke-width="1.0"/>
  </g>
</svg>
