<?xml version="1.0" encoding="UTF-8" standalone="no"?>
<svg xmlns:xlink="http://www.w3.org/1999/xlink" height="68.55px" width="71.75px" xmlns="http://www.w3.org/2000/svg">
  <g transform="matrix(1.0, 0.0, 0.0, 1.0, 8.4, 55.25)">
    <path d="M30.45 -17.4 L29.85 -17.25 Q29.55 -17.3 29.35 -17.55 L29.2 -18.1 29.5 -18.6 30.05 -18.75 30.55 -18.45 30.7 -17.9 30.45 -17.4 M27.3 -22.9 L27.45 -22.35 27.2 -21.85 26.6 -21.7 26.1 -22.0 Q25.95 -22.25 25.95 -22.55 L26.25 -23.05 26.8 -23.2 27.3 -22.9 M25.55 -20.95 L25.3 -20.45 24.7 -20.3 24.2 -20.6 Q24.05 -20.85 24.05 -21.15 L24.35 -21.65 24.9 -21.8 Q25.25 -21.75 25.4 -21.5 L25.55 -20.95 M28.65 -17.05 L28.8 -16.5 28.55 -16.0 27.95 -15.85 27.45 -16.15 Q27.3 -16.4 27.3 -16.7 L27.6 -17.2 28.15 -17.35 28.65 -17.05" fill="#000000" fill-rule="evenodd" stroke="none"/>
    <path d="M5.9 -24.25 L-1.55 -34.4 0.8 -36.2 Q14.8 -47.25 30.85 -54.1 33.85 -55.35 36.2 -52.65 L61.7 -17.95 Q63.6 -14.95 61.45 -12.45 50.1 0.85 35.45 10.95 L32.9 12.55 25.45 2.4 18.35 7.65 Q6.6 15.8 -3.9 3.4 -12.55 -10.25 -1.3 -19.05 L5.9 -24.25 8.3 -26.0 10.45 -23.05 13.6 -25.4 19.2 -29.45 17.05 -32.45 11.5 -28.35 8.3 -26.0 M13.6 -25.4 L11.5 -28.35 M8.0 -21.3 L0.5 -15.85 Q-6.8 -8.3 -0.9 1.3 6.45 9.75 15.75 4.95 L20.15 1.8 20.4 1.65 23.3 -0.5 8.0 -21.3 10.45 -23.05 M25.65 -2.2 L28.9 -4.6 34.5 -8.7 36.65 -5.75 31.05 -1.65 27.9 0.65 Q26.7 1.55 25.45 2.4 M23.3 -0.5 L25.65 -2.2 27.9 0.65 M28.9 -4.6 L31.05 -1.65" fill="none" stroke="#000000" stroke-linecap="round" stroke-linejoin="round" stroke-width="1.5"/>
    <path d="M8.3 -26.0 L0.8 -36.2 M10.45 -23.05 L25.65 -2.2 M27.9 0.65 L35.45 10.95 M27.6 -13.1 L33.55 -17.45 27.25 -26.0 21.3 -21.6 27.6 -13.1" fill="none" stroke="#000000" stroke-linecap="round" stroke-linejoin="round" stroke-width="1.0"/>
  </g>
</svg>
