<?xml version="1.0" encoding="UTF-8" standalone="no"?>
<svg xmlns:xlink="http://www.w3.org/1999/xlink" height="75.75px" width="49.3px" xmlns="http://www.w3.org/2000/svg">
  <g transform="matrix(1.0, 0.0, 0.0, 1.0, 24.0, 62.6)">
    <path d="M16.15 -37.7 Q18.75 -27.65 14.8 -16.45 22.65 -16.3 24.4 -20.6 25.75 -26.45 16.15 -37.7 L16.1 -37.9 Q15.2 -41.25 13.55 -44.5 8.9 -53.65 -1.75 -61.85 L-4.65 -56.9 -8.55 -59.8 Q-18.15 -46.1 -18.2 -33.45 -18.3 -22.45 -11.05 -12.35 -7.35 -7.05 -1.6 -1.95 -8.15 3.75 -8.05 12.4 3.0 3.05 18.65 9.85 17.65 2.35 8.45 -3.8 12.6 -10.3 14.8 -16.45 M-11.05 -12.35 Q-19.75 -9.75 -22.9 -13.15 -24.65 -27.45 -18.2 -33.45" fill="none" stroke="#000000" stroke-linecap="round" stroke-linejoin="round" stroke-width="1.5"/>
    <path d="M13.55 -44.5 Q1.75 -33.45 -11.95 -37.25 M-6.25 -47.1 Q-6.25 -46.35 -6.7 -45.75 -7.15 -45.05 -7.8 -45.0 -8.55 -44.9 -9.25 -45.35 -9.85 -45.8 -10.0 -46.55 -10.15 -47.3 -9.7 -48.0 -9.25 -48.6 -8.4 -48.65 -7.65 -48.75 -7.05 -48.3 -6.4 -47.85 -6.25 -47.1" fill="none" stroke="#000000" stroke-linecap="round" stroke-linejoin="round" stroke-width="1.0"/>
  </g>
</svg>
