<?xml version="1.0" encoding="UTF-8" standalone="no"?>
<svg xmlns:xlink="http://www.w3.org/1999/xlink" height="59.25px" width="64.65px" xmlns="http://www.w3.org/2000/svg">
  <g transform="matrix(1.0, 0.0, 0.0, 1.0, 25.8, 44.95)">
    <path d="M25.35 -33.8 Q28.95 -30.5 32.35 -25.35 34.15 -22.5 35.85 -17.85 L36.9 -14.85 Q37.85 -12.7 37.65 -4.8 38.65 -4.8 37.4 4.75 36.5 9.05 34.7 13.55 L8.35 2.8 -3.25 -2.35 -9.95 -12.8 -25.05 -36.6 Q-21.7 -39.05 -17.7 -40.7 L-15.05 -41.8 -9.7 -43.35 -1.6 -44.2 Q3.0 -44.25 7.45 -43.15 11.4 -42.15 15.35 -40.3 L16.45 -39.75 Q21.45 -37.3 25.35 -33.8 L9.35 -13.75 Q10.5 -12.4 11.25 -10.55 L32.35 -25.35 M36.9 -14.85 L12.05 -7.5 Q12.3 -6.35 12.0 -4.0 L37.65 -4.8 M8.35 2.8 L9.8 1.4 10.9 -0.5 12.0 -4.0 M11.25 -10.55 L11.4 -10.05 12.05 -7.5 M9.35 -13.75 Q8.0 -15.4 6.0 -16.45 L5.2 -16.9 2.95 -17.7 -0.6 -18.1 -4.0 -17.35 -4.1 -17.3 -7.45 -15.45 Q-8.65 -14.65 -9.95 -12.8 M6.0 -16.45 L16.45 -39.75 M7.45 -43.15 L2.95 -17.7 M37.4 4.75 L10.9 -0.5 M-7.45 -15.45 L-17.7 -40.7 M-0.6 -18.1 L-1.6 -44.2 M-9.7 -43.35 L-4.1 -17.3" fill="none" stroke="#000000" stroke-linecap="round" stroke-linejoin="round" stroke-width="1.5"/>
  </g>
</svg>
