<?xml version="1.0" encoding="UTF-8" standalone="no"?>
<svg xmlns:xlink="http://www.w3.org/1999/xlink" height="209.15px" width="219.9px" xmlns="http://www.w3.org/2000/svg">
  <g transform="matrix(1.0, 0.0, 0.0, 1.0, 109.95, 104.55)">
    <path d="M58.45 -103.55 Q53.25 -93.2 62.55 -77.55 80.95 -51.4 76.3 -20.05 71.1 9.45 78.75 29.5 95.5 69.25 78.75 97.45 92.05 83.0 94.85 65.75 92.65 87.0 84.2 96.75 101.05 83.85 106.45 67.9 112.35 50.45 104.45 29.35 96.1 7.65 94.45 -9.25 L93.95 -1.4 M84.05 -80.95 Q96.25 -48.2 94.45 -9.25 M-70.4 -97.1 Q-81.0 -87.15 -81.55 -59.0 -81.05 -38.5 -88.7 -22.6 -108.6 11.7 -108.95 35.75 -109.05 53.9 -99.25 71.45 -94.4 80.1 -87.1 88.65 -91.35 79.75 -91.8 66.15 -92.05 60.0 -91.5 52.85 L-91.5 52.6 -91.5 46.25 M-50.5 -97.35 Q-54.9 -79.1 -55.75 -49.05 -56.75 -15.4 -69.65 7.05 -81.25 27.45 -81.9 50.55 -79.3 83.35 -58.55 103.6 -85.6 85.55 -90.5 61.05 -91.3 57.05 -91.5 52.85" fill="none" stroke="#000000" stroke-linecap="round" stroke-linejoin="round" stroke-width="2.0"/>
    <path d="M94.85 65.75 Q95.75 60.2 95.55 54.4 L95.55 54.2 Q95.15 43.8 91.4 32.4 84.85 10.1 83.45 -5.25 M-72.3 -17.6 Q-67.35 -31.0 -69.4 -56.0 M-90.4 42.5 Q-88.55 12.7 -74.1 -8.25" fill="none" stroke="#000000" stroke-linecap="round" stroke-linejoin="round" stroke-width="1.5"/>
  </g>
</svg>
