<?xml version="1.0" encoding="UTF-8" standalone="no"?>
<svg xmlns:xlink="http://www.w3.org/1999/xlink" height="123.85px" width="54.8px" xmlns="http://www.w3.org/2000/svg">
  <g transform="matrix(1.0, 0.0, 0.0, 1.0, 28.2, 85.75)">
    <path d="M1.2 -21.35 L2.7 -13.95 5.55 -21.0 Q6.95 -25.95 11.4 -25.05 16.75 -22.7 14.65 -12.45 12.35 -3.9 20.5 5.0 30.5 15.85 21.75 28.5 9.1 42.45 -6.75 34.4 -18.55 28.1 -15.75 16.35 -10.6 1.85 -16.35 -5.75 -20.75 -10.5 -18.7 -13.0 L-17.9 -13.5 Q-14.4 -15.0 -7.05 -7.25 L-9.4 -19.3 -11.25 -29.2 -13.25 -39.1 -16.75 -56.95 Q-20.15 -59.35 -19.15 -65.7 -17.8 -70.95 -26.25 -79.1 -29.45 -83.05 -24.05 -84.7 -18.6 -86.4 -14.2 -78.8 L-13.05 -79.35 Q-11.5 -79.8 -10.2 -79.0 -8.8 -78.25 -8.45 -76.75 -8.0 -75.2 -8.8 -73.85 -9.1 -73.25 -9.7 -72.75 L-7.65 -69.55 -6.5 -70.1 Q-5.1 -70.5 -3.7 -69.65 -2.4 -68.9 -1.95 -67.4 -1.55 -66.0 -2.3 -64.65 -3.1 -63.25 -4.6 -62.8 L-5.25 -62.75 Q-5.4 -60.15 -6.45 -58.6 L-2.8 -41.2 -0.8 -31.2 1.2 -21.35 -9.4 -19.3 M5.3 16.3 L0.75 17.55 -3.8 18.7 -2.55 25.3 16.85 20.6 15.15 13.9 11.0 14.9 5.3 16.3 0.25 -3.9 M11.0 14.9 L4.15 -6.95 M-9.7 -72.75 Q-10.3 -72.3 -11.1 -72.15 -12.55 -71.65 -13.95 -72.5 -15.3 -73.25 -15.7 -74.8 -16.1 -76.25 -15.3 -77.6 L-14.2 -78.8 M-5.25 -62.75 Q-6.4 -62.65 -7.45 -63.25 -8.8 -64.05 -9.15 -65.45 -9.55 -66.95 -8.8 -68.35 L-7.65 -69.55 M-16.75 -56.95 Q-15.4 -56.05 -13.7 -55.65 -8.35 -55.45 -6.45 -58.6 M-11.25 -29.2 L-0.8 -31.2 M-13.25 -39.1 L-2.8 -41.2 M0.75 17.55 L-5.0 -2.8 M-7.05 -7.25 Q0.35 -7.4 2.7 -13.95" fill="none" stroke="#000000" stroke-linecap="round" stroke-linejoin="round" stroke-width="1.5"/>
  </g>
</svg>
