<?xml version="1.0" encoding="UTF-8" standalone="no"?>
<svg xmlns:xlink="http://www.w3.org/1999/xlink" height="80.1px" width="38.3px" xmlns="http://www.w3.org/2000/svg">
  <g transform="matrix(1.0, 0.0, 0.0, 1.0, 21.35, 62.85)">
    <path d="M14.2 -0.3 L15.2 2.7 15.65 3.7 15.8 4.1 -2.5 10.0 -3.75 6.1 14.2 -0.3" fill="#afafaf" fill-rule="evenodd" stroke="none"/>
    <path d="M-17.9 -55.2 L-16.3 -62.1 -11.2 -57.8 -14.05 -55.2 -17.9 -55.2" fill="#000000" fill-rule="evenodd" stroke="none"/>
    <path d="M-20.6 -43.65 L-17.9 -55.2 -14.05 -55.2 -11.2 -57.8 -3.85 -51.65 -3.95 -51.25 -5.85 -43.85 -11.85 -46.75 -14.75 -40.8 -20.6 -43.65" fill="#fff0d9" fill-rule="evenodd" stroke="none"/>
    <path d="M-3.95 -51.25 L12.65 -4.55 14.2 -0.3 15.2 2.7 15.65 3.7 15.8 4.1 Q16.8 7.7 15.15 11.05 13.4 14.65 9.7 15.9 5.95 17.25 2.35 15.5 -1.2 13.75 -2.5 10.0 L-3.75 6.1 -5.25 1.7 -20.6 -43.65 -17.9 -55.2 -16.3 -62.1 -11.2 -57.8 -3.85 -51.65 -3.95 -51.25 -5.85 -43.85 6.55 -8.2 M-14.75 -40.8 L-2.35 -5.8 M-20.6 -43.65 L-14.75 -40.8 -11.85 -46.75 -5.85 -43.85 M-5.25 1.7 L12.65 -4.55 M14.2 -0.3 L-3.75 6.1 M15.8 4.1 L-2.5 10.0" fill="none" stroke="#000000" stroke-linecap="round" stroke-linejoin="round" stroke-width="1.5"/>
  </g>
</svg>
