<?xml version="1.0" encoding="UTF-8" standalone="no"?>
<svg xmlns:xlink="http://www.w3.org/1999/xlink" height="43.7px" width="35.35px" xmlns="http://www.w3.org/2000/svg">
  <g transform="matrix(1.0, 0.0, 0.0, 1.0, 14.9, 44.85)">
    <path d="M11.95 -18.5 Q14.1 -19.8 17.1 -18.0 18.55 -17.1 19.05 -16.15 21.7 -26.5 13.75 -32.05 5.15 -37.75 8.75 -44.1 L7.85 -43.85 Q4.6 -42.95 1.95 -39.6 L1.7 -39.3 Q-1.85 -36.95 -4.45 -33.3 -9.7 -32.85 -13.4 -24.05 -14.75 -19.8 -12.75 -17.9 -14.85 -16.85 -13.8 -13.9 L-7.85 -1.9 -3.2 -1.9 2.5 -1.9 8.85 -1.9 12.85 -1.9 19.0 -14.2 Q19.55 -15.2 19.05 -16.15 M11.95 -18.5 L10.6 -17.35 10.65 -17.6 Q9.6 -19.6 7.6 -20.0 L7.65 -20.0 7.6 -20.0 7.55 -20.0 7.6 -20.0 M-5.75 -17.35 Q-5.25 -19.95 -2.15 -20.3 1.25 -20.1 2.3 -17.8 4.45 -20.55 7.0 -20.1 L7.55 -20.0 M-5.75 -17.35 Q-9.1 -19.9 -12.45 -18.05 L-12.75 -17.9 M-4.45 -33.3 L-4.55 -33.15 -4.45 -33.2 -4.4 -33.25 -4.4 -33.3 -4.45 -33.3" fill="none" stroke="#000000" stroke-linecap="round" stroke-linejoin="round" stroke-width="1.5"/>
    <path d="M7.85 -43.85 Q2.4 -37.3 2.5 -32.8 3.0 -28.6 8.35 -25.3 11.55 -23.0 11.95 -18.5 M10.6 -17.35 L8.85 -1.9 M1.7 -39.3 Q-2.3 -33.65 1.25 -27.2 2.8 -23.85 7.6 -20.0 M2.5 -1.9 L2.3 -17.8 M-4.45 -33.2 L-6.15 -30.65 Q-9.45 -23.9 -5.75 -17.35 L-3.2 -1.9" fill="none" stroke="#000000" stroke-linecap="round" stroke-linejoin="round" stroke-width="1.0"/>
  </g>
</svg>
