<?xml version="1.0" encoding="UTF-8" standalone="no"?>
<svg xmlns:xlink="http://www.w3.org/1999/xlink" height="68.3px" width="206.0px" xmlns="http://www.w3.org/2000/svg">
  <g transform="matrix(1.0, 0.0, 0.0, 1.0, 58.9, 78.3)">
    <path d="M106.95 -35.5 Q112.25 -40.85 111.6 -47.5 110.9 -54.15 108.0 -62.2 105.05 -70.4 104.55 -77.3 99.15 -72.35 97.2 -64.25 95.25 -56.1 90.8 -49.1 88.5 -39.55 95.25 -33.65 L98.6 -31.3 Q100.1 -33.2 103.95 -35.2 L106.95 -35.5 Q109.2 -35.55 110.3 -34.75 114.0 -36.55 119.25 -38.25 133.4 -42.85 146.1 -45.2 136.85 -35.25 133.5 -22.05 130.35 -11.7 120.85 -11.05 119.45 -10.9 118.0 -11.05 108.45 -10.7 103.0 -25.55 99.95 -25.1 97.95 -27.65 97.1 -29.45 98.6 -31.3 M103.0 -25.55 L102.2 -27.75 Q104.0 -31.45 110.3 -34.75 M-6.85 -37.0 Q-2.05 -39.75 -2.55 -48.9 -1.55 -60.7 -13.05 -69.2 -21.35 -74.65 -30.45 -72.95 -21.2 -65.45 -21.1 -58.4 -21.45 -47.25 -16.05 -42.3 -14.6 -43.1 -13.0 -42.75 -10.6 -42.25 -8.75 -40.05 -7.5 -38.55 -6.85 -37.0 L-6.4 -35.45 Q-5.9 -33.05 -7.9 -31.25 -9.65 -29.55 -12.1 -29.6 L-13.7 -27.45 Q-18.45 -21.7 -25.35 -21.8 -29.8 -23.0 -33.6 -27.2 -37.15 -31.05 -40.05 -37.6 -44.45 -41.55 -51.35 -47.05 -58.2 -52.55 -57.9 -59.65 -52.1 -55.85 -35.6 -52.85 -20.85 -47.6 -17.95 -40.75 L-17.35 -41.4 -16.05 -42.3 M-17.95 -40.75 Q-17.85 -39.75 -13.45 -37.45 -9.0 -35.1 -12.1 -29.6" fill="none" stroke="#000000" stroke-linecap="round" stroke-linejoin="round" stroke-width="2.0"/>
  </g>
</svg>
