<?xml version="1.0" encoding="UTF-8" standalone="no"?>
<svg xmlns:xlink="http://www.w3.org/1999/xlink" height="97.85px" width="64.45px" xmlns="http://www.w3.org/2000/svg">
  <g transform="matrix(1.0, 0.0, 0.0, 1.0, 55.95, 36.45)">
    <path d="M-43.75 -22.8 L-40.85 -15.95 Q-17.6 -19.25 -8.3 -5.6 L-0.7 -8.8 Q-18.4 -30.7 -43.75 -22.8 -47.15 -20.5 -48.5 -24.35 -49.95 -27.75 -45.2 -28.05 -40.55 -30.25 -41.25 -33.0 -41.9 -35.55 -45.9 -35.7 -57.1 -32.65 -54.8 -22.95 -51.9 -13.55 -40.85 -15.95 L-16.7 40.85 Q1.85 26.4 -1.55 10.35 L-3.3 11.1 -10.05 -4.85 -8.3 -5.6 M-13.8 47.75 L-16.7 40.85 Q-26.05 47.25 -21.3 55.8 -15.95 64.1 -6.0 58.15 -3.3 55.2 -4.65 53.15 -6.2 50.7 -11.05 52.5 -14.5 55.7 -15.95 52.3 -17.8 48.6 -13.8 47.75 9.5 35.0 6.05 7.15 L-1.55 10.35 M-0.7 -8.8 L0.95 -9.5 7.75 6.45 6.05 7.15" fill="none" stroke="#000000" stroke-linecap="round" stroke-linejoin="round" stroke-width="1.5"/>
  </g>
</svg>
