<?xml version="1.0" encoding="UTF-8" standalone="no"?>
<svg xmlns:xlink="http://www.w3.org/1999/xlink" height="54.45px" width="44.05px" xmlns="http://www.w3.org/2000/svg">
  <g transform="matrix(1.0, 0.0, 0.0, 1.0, 22.0, 27.25)">
    <path d="M1.45 -15.9 L1.9 -22.5 Q1.65 -24.3 2.8 -25.6 3.9 -27.05 5.7 -27.2 7.4 -27.45 8.9 -26.3 10.05 -25.3 10.4 -23.9 L11.35 -15.05 1.45 -15.9 M10.7 1.15 L14.45 -2.3 Q15.6 -3.75 17.25 -3.95 19.05 -4.15 20.55 -3.0 21.8 -1.95 22.05 -0.1 22.2 1.65 21.2 3.1 L19.2 4.85 10.4 11.15 11.75 12.1 Q15.65 15.2 16.65 20.0 9.55 21.6 6.45 27.2 -0.6 18.55 -11.5 24.35 -11.85 18.7 -8.25 14.25 L-7.25 13.1 -18.15 8.25 -20.4 6.95 Q-21.8 5.7 -21.95 3.9 -22.15 2.2 -21.05 0.75 -19.9 -0.6 -18.2 -0.8 -16.45 -1.0 -14.95 0.15 L-10.95 2.6 -7.25 13.1 Q-5.9 11.65 -4.2 10.65 L-4.25 10.35 Q-4.4 8.6 -3.0 7.25 -1.45 5.75 0.7 5.6 3.0 5.35 4.6 6.45 6.3 7.5 6.4 9.2 L6.45 9.3 Q8.0 9.85 9.4 10.55 L10.7 1.15 M-13.8 -12.6 L-14.85 -19.75 -14.85 -20.0 -14.9 -20.7 -14.95 -20.9 -14.95 -21.25 Q-15.0 -22.75 -13.95 -23.85 -12.95 -25.3 -11.15 -25.5 -9.4 -25.7 -7.95 -24.45 -6.55 -23.45 -6.3 -21.7 L-5.0 -15.3 Q-9.45 -14.4 -13.8 -12.6 M-3.2 17.15 Q-3.95 16.7 -4.7 16.75 -5.6 16.85 -6.2 17.5 -6.6 18.15 -6.5 18.9 -6.4 19.8 -5.75 20.35 L-4.3 20.7 Q-3.55 20.6 -3.05 20.05 -2.5 19.45 -2.55 18.5 -2.65 17.65 -3.2 17.15 M7.0 16.25 Q6.3 16.8 6.4 17.8 6.5 18.65 7.25 19.05 7.8 19.65 8.75 19.5 9.5 19.4 10.15 18.8 10.55 18.05 10.4 17.25 10.4 16.3 9.75 15.9 9.05 15.3 8.25 15.4 7.4 15.55 7.0 16.25" fill="#e9dac8" fill-rule="evenodd" stroke="none"/>
    <path d="M11.35 -15.05 L12.7 -14.75 10.7 1.15 9.4 10.55 Q8.0 9.85 6.45 9.3 L6.4 9.2 Q6.3 7.5 4.6 6.45 3.0 5.35 0.7 5.6 -1.45 5.75 -3.0 7.25 -4.4 8.6 -4.25 10.35 L-4.2 10.65 Q-5.9 11.65 -7.25 13.1 L-10.95 2.6 -15.8 -11.75 -13.8 -12.6 Q-9.45 -14.4 -5.0 -15.3 L1.45 -15.9 11.35 -15.05 M7.0 16.25 Q7.4 15.55 8.25 15.4 9.05 15.3 9.75 15.9 10.4 16.3 10.4 17.25 10.55 18.05 10.15 18.8 9.5 19.4 8.75 19.5 7.8 19.65 7.25 19.05 6.5 18.65 6.4 17.8 6.3 16.8 7.0 16.25 M-3.2 17.15 Q-2.65 17.65 -2.55 18.5 -2.5 19.45 -3.05 20.05 -3.55 20.6 -4.3 20.7 L-5.75 20.35 Q-6.4 19.8 -6.5 18.9 -6.6 18.15 -6.2 17.5 -5.6 16.85 -4.7 16.75 -3.95 16.7 -3.2 17.15" fill="#66e9c1" fill-rule="evenodd" stroke="none"/>
  </g>
</svg>
