<?xml version="1.0" encoding="UTF-8" standalone="no"?>
<svg xmlns:xlink="http://www.w3.org/1999/xlink" height="66.15px" width="52.2px" xmlns="http://www.w3.org/2000/svg">
  <g transform="matrix(1.0, 0.0, 0.0, 1.0, 4.6, 29.65)">
    <path d="M19.75 -17.55 L20.2 -24.15 Q19.95 -25.95 21.1 -27.25 22.2 -28.7 24.0 -28.85 25.7 -29.1 27.2 -27.95 28.35 -26.95 28.7 -25.55 L29.65 -16.7 31.0 -16.4 29.0 -0.5 32.75 -3.95 Q33.9 -5.4 35.55 -5.6 37.35 -5.8 38.85 -4.65 40.1 -3.6 40.35 -1.75 40.5 0.0 39.5 1.45 L37.5 3.2 28.7 9.5 30.05 10.45 Q33.95 13.55 34.95 18.35 L35.25 20.05 Q35.6 22.9 34.75 25.45 L46.85 22.4 41.05 30.55 Q36.3 34.75 32.05 30.6 30.85 32.15 29.3 33.15 26.45 35.3 22.55 35.65 16.8 36.3 12.35 32.7 9.05 37.65 3.45 34.6 L-3.85 27.75 8.4 28.3 Q7.2 25.95 6.85 23.05 L6.8 22.7 Q6.45 17.05 10.05 12.6 L11.05 11.45 0.15 6.6 -2.1 5.3 Q-3.5 4.05 -3.65 2.25 -3.85 0.55 -2.75 -0.9 -1.6 -2.25 0.1 -2.45 1.85 -2.65 3.35 -1.5 3.4 -1.35 7.35 0.95 L2.5 -13.4 4.5 -14.25 3.45 -21.4 3.45 -21.65 3.35 -22.55 3.35 -22.9 Q3.3 -24.4 4.35 -25.5 5.35 -26.95 7.15 -27.15 8.9 -27.35 10.35 -26.1 11.75 -25.1 12.0 -23.35 L13.3 -16.95 19.75 -17.55 29.65 -16.7 M3.45 -21.65 L3.4 -22.35 3.35 -22.55 M4.5 -14.25 Q8.85 -16.05 13.3 -16.95 M24.75 7.65 L24.7 7.55 Q24.6 5.85 22.9 4.8 21.3 3.7 19.0 3.95 16.85 4.1 15.3 5.6 13.9 6.95 14.05 8.7 L14.1 9.0 Q16.5 7.7 19.55 7.4 L24.75 7.65 Q26.3 8.2 27.7 8.9 L29.0 -0.5 M28.7 9.5 L27.7 8.9 M14.1 9.0 Q12.4 10.0 11.05 11.45 L7.35 0.95 M8.4 28.3 Q9.8 30.75 12.15 32.65 L12.35 32.7 M32.05 30.6 L32.2 30.5 Q34.1 28.1 34.75 25.45 M34.95 18.35 Q27.85 19.95 24.75 25.55 27.35 28.5 29.3 33.15 M6.8 22.7 Q17.7 16.9 24.75 25.55" fill="none" stroke="#000000" stroke-linecap="round" stroke-linejoin="round" stroke-width="1.5"/>
    <path d="M28.45 17.15 Q27.8 17.75 27.05 17.85 26.1 18.0 25.55 17.4 24.8 17.0 24.7 16.15 24.6 15.15 25.3 14.6 25.7 13.9 26.55 13.75 27.35 13.65 28.05 14.25 28.7 14.65 28.7 15.6 28.85 16.4 28.45 17.15 M15.75 16.85 Q15.8 17.8 15.25 18.4 L14.0 19.05 Q13.05 19.2 12.55 18.7 11.9 18.15 11.8 17.25 11.7 16.5 12.1 15.85 12.7 15.2 13.6 15.1 14.35 15.05 15.1 15.5 15.65 16.0 15.75 16.85" fill="none" stroke="#000000" stroke-linecap="round" stroke-linejoin="round" stroke-width="1.0"/>
  </g>
</svg>
