<?xml version="1.0" encoding="UTF-8" standalone="no"?>
<svg xmlns:xlink="http://www.w3.org/1999/xlink" height="62.6px" width="67.25px" xmlns="http://www.w3.org/2000/svg">
  <g transform="matrix(1.0, 0.0, 0.0, 1.0, 33.5, 31.4)">
    <path d="M7.35 -17.0 L14.6 -20.9 13.15 -12.95 M-3.8 -17.95 L-9.9 -22.95 -10.2 -14.9 M-16.8 -5.9 L-24.05 -2.95 -17.55 1.05 M-12.95 11.5 L-14.5 19.65 -7.15 15.55 M4.75 17.7 L11.1 23.05 11.1 14.7 M17.15 4.45 L24.85 2.2 17.85 -2.55 M7.1 -3.7 Q8.35 -0.95 7.25 1.95 6.1 4.8 3.4 6.1 L-2.25 6.25 Q-5.15 5.1 -6.4 2.4 -7.6 -0.4 -6.55 -3.25 -5.45 -6.2 -2.6 -7.4 L2.95 -7.55 Q5.9 -6.45 7.1 -3.7" fill="none" stroke="#000000" stroke-linecap="round" stroke-linejoin="round" stroke-width="1.0"/>
    <path d="M13.15 -12.95 L17.0 -13.1 19.35 -27.6 6.4 -20.3 7.35 -17.0 7.35 -16.95 4.8 -13.3 Q1.35 -14.5 -2.0 -13.9 L-3.85 -17.9 -3.8 -17.95 -2.1 -21.35 -13.45 -30.65 -13.65 -15.8 -10.2 -14.9 -8.45 -10.95 Q-11.1 -8.9 -12.45 -5.5 L-16.8 -5.9 -16.9 -5.9 -18.95 -9.2 -32.75 -4.1 -19.95 3.6 -17.55 1.05 -13.45 1.5 -13.45 1.55 Q-13.15 3.4 -12.3 5.35 L-10.6 8.2 -12.95 11.5 -16.8 11.75 -19.25 26.25 -6.3 18.95 -7.2 15.55 -7.15 15.55 -4.95 12.45 -4.6 12.6 Q-0.9 14.0 2.75 13.25 L4.75 17.65 4.75 17.7 2.95 21.1 14.3 30.45 14.5 15.55 11.1 14.7 9.15 10.35 9.4 10.1 9.55 9.95 Q11.9 7.8 13.15 4.6 L13.35 4.05 17.15 4.45 19.15 7.75 33.0 2.9 Q26.7 -1.0 20.35 -4.95 L17.85 -2.55 17.8 -2.55 13.85 -2.95 12.8 -5.95 Q11.95 -7.9 10.65 -9.35 L13.1 -12.95 13.15 -12.95 M5.05 -2.75 Q5.9 -0.85 5.15 1.2 4.35 3.2 2.45 4.1 L-1.5 4.2 Q-3.55 3.4 -4.4 1.5 -5.25 -0.45 -4.5 -2.45 -3.75 -4.5 -1.75 -5.35 L2.15 -5.45 Q4.2 -4.7 5.05 -2.75" fill="none" stroke="#000000" stroke-linecap="round" stroke-linejoin="round" stroke-width="1.5"/>
  </g>
</svg>
