<?xml version="1.0" encoding="UTF-8" standalone="no"?>
<svg xmlns:xlink="http://www.w3.org/1999/xlink" height="71.2px" width="68.7px" xmlns="http://www.w3.org/2000/svg">
  <g transform="matrix(1.0, 0.0, 0.0, 1.0, 37.3, 37.4)">
    <path d="M7.7 -1.6 Q7.7 -4.95 5.85 -7.55 L4.75 -8.8 Q1.75 -11.8 -2.5 -11.8 -6.75 -11.8 -9.7 -8.8 -11.2 -7.3 -11.9 -5.6 L-12.55 -3.55 Q-12.85 -1.65 -12.3 1.3 -11.6 3.75 -9.7 5.65 -6.75 8.65 -2.5 8.65 L-2.3 8.65 Q1.8 8.6 4.75 5.65 L5.0 5.4 Q7.7 2.45 7.7 -1.6 M2.45 -1.3 Q2.45 0.65 1.05 2.05 -0.35 3.5 -2.3 3.5 -4.3 3.5 -5.7 2.05 -7.1 0.65 -7.1 -1.3 -7.1 -3.25 -5.7 -4.7 -4.3 -6.1 -2.3 -6.1 -0.35 -6.1 1.05 -4.7 2.45 -3.25 2.45 -1.3 M2.0 -31.8 L-0.05 -32.0 Q12.3 -21.05 13.45 -7.3 L5.85 -7.55 M24.5 9.05 Q27.75 10.35 30.3 12.0 32.8 -19.95 16.25 -27.55 9.6 -30.85 2.0 -31.8 M24.5 9.05 Q16.7 5.95 5.0 5.4 M-2.3 8.65 L-7.8 15.8 Q5.2 22.9 21.35 15.9 14.95 25.9 8.5 29.7 -6.8 39.55 -32.35 20.25 -29.55 19.05 -26.8 17.0 -19.5 11.75 -12.3 1.3 M-11.35 -30.3 Q-12.15 -33.65 -12.3 -36.65 -39.65 -20.05 -36.15 -2.15 -34.9 5.2 -30.25 13.7 -28.6 -2.75 -18.1 -11.7 L-12.55 -3.55 M-11.35 -30.3 Q-9.15 -21.9 -2.5 -11.8" fill="none" stroke="#000000" stroke-linecap="round" stroke-linejoin="round" stroke-width="1.5"/>
    <path d="M2.0 -31.8 Q16.35 -25.35 21.9 -14.15 24.5 -9.05 24.5 3.6 L24.5 9.05 M-30.25 13.7 Q-34.45 -3.55 -28.6 -14.55 -24.75 -21.25 -15.75 -27.15 L-11.35 -30.3 M-26.8 17.0 L-19.6 21.95 Q-13.4 26.15 -5.8 27.25 6.65 28.65 21.35 15.9" fill="none" stroke="#000000" stroke-linecap="round" stroke-linejoin="round" stroke-width="1.0"/>
  </g>
</svg>
