<?xml version="1.0" encoding="UTF-8" standalone="no"?>
<svg xmlns:xlink="http://www.w3.org/1999/xlink" height="45.15px" width="45.15px" xmlns="http://www.w3.org/2000/svg">
  <g transform="matrix(1.0, 0.0, 0.0, 1.0, 18.65, 27.05)">
    <path d="M6.6 -7.15 Q7.4 -5.9 7.15 -4.45 6.9 -3.0 5.75 -2.2 4.55 -1.3 3.1 -1.55 1.6 -1.8 0.75 -3.0 -0.15 -4.2 0.1 -5.65 0.35 -7.1 1.6 -7.95 2.75 -8.8 4.25 -8.55 5.7 -8.3 6.6 -7.15 M25.75 -0.6 L10.15 3.45 -0.15 17.35 -4.5 1.45 -17.9 -8.8 -2.45 -14.35 7.35 -26.3 12.85 -10.75 25.75 -0.6" fill="none" stroke="#000000" stroke-linecap="round" stroke-linejoin="round" stroke-width="1.5"/>
  </g>
</svg>
