<?xml version="1.0" encoding="UTF-8" standalone="no"?>
<svg xmlns:xlink="http://www.w3.org/1999/xlink" height="112.75px" width="46.05px" xmlns="http://www.w3.org/2000/svg">
  <g transform="matrix(1.0, 0.0, 0.0, 1.0, 23.2, 70.85)">
    <path d="M7.0 -22.85 L7.05 -25.85 Q7.1 -34.65 1.9 -40.55 -5.2 -38.5 -5.55 -26.05 L-5.55 -22.5 -5.15 13.3 6.25 13.5 7.0 -22.85 21.3 -28.15 Q26.35 -54.25 0.25 -70.1 -24.7 -57.7 -22.2 -26.6 -13.5 -23.0 -5.55 -22.5 M6.25 13.5 L12.2 19.25 12.2 28.95 Q17.95 28.9 18.4 35.5 16.95 40.1 11.7 41.05 L-11.05 41.15 Q-15.25 40.55 -15.8 36.5 -16.8 30.35 -10.55 28.95 L-10.0 18.25 -5.15 13.3 M12.2 28.95 L-10.55 28.95" fill="none" stroke="#000000" stroke-linecap="round" stroke-linejoin="round" stroke-width="1.5"/>
  </g>
</svg>
