<?xml version="1.0" encoding="UTF-8" standalone="no"?>
<svg xmlns:xlink="http://www.w3.org/1999/xlink" height="112.0px" width="29.6px" xmlns="http://www.w3.org/2000/svg">
  <g transform="matrix(1.0, 0.0, 0.0, 1.0, 15.3, 88.8)">
    <path d="M9.1 -53.0 L13.55 -53.05 8.95 -41.0 11.25 -41.0 11.25 -35.35 8.7 -35.35 3.65 13.25 Q9.5 17.35 -0.45 22.45 -10.4 17.4 -4.5 13.3 L-9.6 -35.35 -12.2 -35.4 -12.2 -41.0 -9.85 -41.0 -14.55 -53.05 -9.3 -52.95 Q-18.55 -64.0 -10.15 -71.55 0.0 -79.85 -1.75 -88.05 20.55 -70.6 9.1 -53.0 L-9.3 -52.95 M8.95 -41.0 L-9.85 -41.0 M-9.6 -35.35 L8.7 -35.35" fill="none" stroke="#000000" stroke-linecap="round" stroke-linejoin="round" stroke-width="1.5"/>
  </g>
</svg>
