<?xml version="1.0" encoding="UTF-8" standalone="no"?>
<svg xmlns:xlink="http://www.w3.org/1999/xlink" height="91.15px" width="41.75px" xmlns="http://www.w3.org/2000/svg">
  <g transform="matrix(1.0, 0.0, 0.0, 1.0, 17.9, 84.55)">
    <path d="M-14.9 -16.65 L-14.9 -83.8 0.75 -83.8 -2.1 -79.05 2.4 -74.95 -0.25 -69.2 4.25 -66.9 1.4 -61.15 6.55 -56.6 4.05 -52.3 8.6 -48.4 5.9 -44.45 10.65 -40.35 7.55 -35.8 12.3 -31.7 9.85 -27.15 13.55 -24.1 10.45 -18.75 15.8 -14.35 13.75 -11.9 Q25.25 -3.3 22.6 5.85 L-17.15 5.85 -17.15 -12.5 Q-17.25 -15.8 -14.9 -16.65 0.45 -19.35 13.75 -11.9 M-10.35 -2.4 L11.7 -2.4 Q4.95 -10.3 -10.35 -8.6 L-10.35 -2.4" fill="none" stroke="#000000" stroke-linecap="round" stroke-linejoin="round" stroke-width="1.5"/>
  </g>
</svg>
