<?xml version="1.0" encoding="UTF-8" standalone="no"?>
<svg xmlns:xlink="http://www.w3.org/1999/xlink" height="53.75px" width="53.75px" xmlns="http://www.w3.org/2000/svg">
  <g transform="matrix(1.0, 0.0, 0.0, 1.0, 26.35, 40.1)">
    <path d="M0.35 -19.75 Q13.25 -26.75 24.2 -24.35 21.4 -30.45 15.6 -34.55 9.95 -38.5 3.6 -39.2 0.55 -31.85 -6.3 -26.75 -2.6 -23.4 0.35 -19.75 3.85 -15.25 6.15 -10.3 18.95 -13.5 25.4 -5.1 27.4 -11.0 26.25 -17.65 25.6 -21.25 24.2 -24.35 M25.4 -5.1 Q24.2 -1.5 21.85 1.85 17.4 8.1 10.85 10.85 8.1 11.95 4.95 12.5 -1.1 13.55 -6.6 11.95 -10.7 10.8 -14.5 8.1 -18.35 5.4 -20.9 1.9 -24.15 -2.75 -25.2 -8.8 -26.15 -14.3 -24.95 -19.35 -23.8 -24.0 -20.8 -28.25 -18.6 -31.45 -15.8 -33.7 -10.75 -37.8 -3.9 -38.95 L3.6 -39.2 M10.85 10.85 Q10.65 -0.75 6.15 -10.3 -6.3 -5.4 -6.6 11.95 M-24.95 -19.35 Q-14.1 -20.05 -6.3 -26.75 -10.55 -30.45 -15.8 -33.7 M-20.9 1.9 Q-18.5 -9.35 0.35 -19.75 Z" fill="none" stroke="#000000" stroke-linecap="round" stroke-linejoin="round" stroke-width="1.5"/>
  </g>
</svg>
