<?xml version="1.0" encoding="UTF-8" standalone="no"?>
<svg xmlns:xlink="http://www.w3.org/1999/xlink" height="48.95px" width="48.5px" xmlns="http://www.w3.org/2000/svg">
  <g transform="matrix(1.0, 0.0, 0.0, 1.0, 22.0, 39.25)">
    <path d="M11.65 -36.5 Q7.35 -38.4 2.25 -38.5 -2.8 -38.4 -7.1 -36.5 L-2.4 -33.05 6.9 -33.05 11.65 -36.5 Q15.55 -34.75 18.8 -31.5 L20.65 -29.4 Q25.75 -23.15 25.75 -14.75 L25.7 -13.3 Q25.35 -7.35 22.35 -2.5 20.95 -0.1 18.8 2.05 14.0 6.85 7.75 8.3 L2.25 8.95 -3.3 8.3 Q-9.5 6.85 -14.25 2.05 -16.4 -0.1 -17.85 -2.5 -20.85 -7.35 -21.2 -13.3 L-21.25 -14.75 Q-21.25 -23.15 -16.15 -29.4 L-14.25 -31.5 Q-11.05 -34.75 -7.1 -36.5 M14.2 -10.85 L9.65 -11.95 2.25 -7.05 2.25 -1.95 9.55 2.95 16.6 -2.5 14.2 -10.85 21.5 -16.3 18.8 -24.1 9.95 -24.1 6.85 -20.6 9.65 -11.95 M6.85 -20.6 L6.7 -20.4 -2.2 -20.4 -2.35 -20.6 -5.1 -11.95 2.25 -7.05 M25.7 -13.3 L21.5 -16.3 M9.95 -24.1 L6.9 -33.05 M20.65 -29.4 L18.8 -24.1 M16.6 -2.5 L22.35 -2.5 M7.75 8.3 L9.55 2.95 M-2.4 -33.05 L-5.5 -24.1 -2.35 -20.6 M-21.2 -13.3 L-16.95 -16.3 -14.25 -24.1 -16.15 -29.4 M-17.85 -2.5 L-12.1 -2.5 -9.7 -10.85 -16.95 -16.3 M-9.7 -10.85 L-5.1 -11.95 M-14.25 -24.1 L-5.5 -24.1 M-3.3 8.3 L-5.05 2.95 -12.1 -2.5 M2.25 -1.95 L-5.05 2.95" fill="none" stroke="#000000" stroke-linecap="round" stroke-linejoin="round" stroke-width="1.5"/>
  </g>
</svg>
