<?xml version="1.0" encoding="UTF-8" standalone="no"?>
<svg xmlns:xlink="http://www.w3.org/1999/xlink" height="47.0px" width="24.95px" xmlns="http://www.w3.org/2000/svg">
  <g transform="matrix(1.0, 0.0, 0.0, 1.0, 21.05, 41.6)">
    <path d="M-4.3 -21.8 L2.3 2.7 2.35 2.75 2.35 2.85 Q2.5 3.5 2.15 4.05 1.8 4.7 1.15 4.85 L-0.1 4.7 -0.85 3.85 -0.95 3.5 -1.25 2.3 -1.35 1.9 -7.75 -20.85 -6.0 -21.15 -4.3 -21.8" fill="#ffffff" fill-rule="evenodd" stroke="none"/>
    <path d="M-18.7 -30.05 L0.35 -35.25 0.5 -35.35 Q-0.95 -38.2 -3.85 -39.75 -6.7 -41.35 -8.9 -41.05 L-11.25 -40.7 Q-15.3 -39.65 -17.4 -36.0 -19.05 -33.15 -18.7 -30.05 L-18.85 -30.0 -19.0 -30.0 Q-19.85 -29.75 -20.25 -29.0 -20.7 -28.25 -20.5 -27.4 -20.25 -26.55 -19.5 -26.1 L-17.9 -25.85 -17.45 -26.0 -17.25 -26.1 1.5 -31.2 1.8 -31.3 1.8 -31.25 Q2.7 -31.55 3.15 -32.3 3.55 -33.0 3.3 -33.9 3.05 -34.75 2.3 -35.2 L0.7 -35.4 0.5 -35.35 M1.5 -31.2 Q1.65 -28.45 0.15 -25.9 -1.45 -23.1 -4.3 -21.8 L2.3 2.7 2.35 2.75 2.35 2.85 Q2.5 3.5 2.15 4.05 1.8 4.7 1.15 4.85 L-0.1 4.7 -0.85 3.85 -0.95 3.65 -0.95 3.5 -1.25 2.3 -1.35 1.9 -7.75 -20.85 Q-10.85 -20.6 -13.7 -22.2 -16.2 -23.65 -17.45 -26.0 M-4.3 -21.8 L-6.0 -21.15 -7.75 -20.85 M-0.95 3.5 L-0.85 3.85" fill="none" stroke="#000000" stroke-linecap="round" stroke-linejoin="round" stroke-width="1.0"/>
  </g>
</svg>
