<?xml version="1.0" encoding="UTF-8" standalone="no"?>
<svg xmlns:xlink="http://www.w3.org/1999/xlink" height="238.85px" width="155.75px" xmlns="http://www.w3.org/2000/svg">
  <g transform="matrix(1.0, 0.0, 0.0, 1.0, 77.9, 119.4)">
    <path d="M7.9 -117.5 L8.65 -118.4 M-46.0 3.5 Q-57.6 4.8 -59.95 -12.3 -60.45 -28.25 -50.05 -37.45 -37.7 -48.4 -22.6 -52.5 L-22.3 -61.95 Q-39.85 -60.25 -59.4 -46.9 -80.45 -31.75 -76.15 -12.3 -72.25 8.85 -49.35 17.9 -20.6 22.5 -10.75 5.0 7.05 -18.45 5.1 -51.8 L4.55 -58.55 4.05 -62.4 3.55 -65.45 M4.05 -62.4 Q37.25 -59.25 54.05 -39.65 80.0 -17.0 76.4 13.45 66.6 49.0 16.8 55.45 -10.35 58.8 -28.05 67.6 -33.35 69.95 -37.7 72.65 -49.6 80.05 -54.25 90.05 -64.5 112.1 -44.25 118.45 -65.4 113.95 -62.6 92.2 -61.35 82.6 -56.65 74.35 -51.3 65.0 -41.5 57.55 -16.45 35.9 17.6 28.05 45.0 23.5 51.55 17.15 61.1 8.2 54.05 -11.75 41.6 -42.05 5.1 -51.8 M-22.6 -52.5 Q-22.75 -43.0 -22.5 -32.4 -25.5 -5.3 -39.4 1.5 L-39.65 1.65 -42.6 2.8 -42.85 2.9 -43.15 2.95 -46.0 3.5 M-16.85 -101.05 Q-21.45 -84.6 -22.3 -61.95 M-39.65 1.65 L-42.6 2.8" fill="none" stroke="#000000" stroke-linecap="round" stroke-linejoin="round" stroke-width="2.0"/>
    <path d="M4.55 -58.55 Q22.15 -57.25 36.45 -48.6 M65.8 19.3 Q49.45 45.55 20.65 48.65 -1.25 51.15 -20.5 58.65 -27.9 61.65 -33.85 65.05 -57.45 78.45 -59.05 97.8 M-46.0 3.5 Q-63.2 6.6 -66.9 -10.6 -68.95 -29.45 -53.8 -43.85 -43.05 -53.0 -26.15 -56.7 M-3.75 -67.1 Q-0.4 -47.3 -5.75 -18.2" fill="none" stroke="#000000" stroke-linecap="round" stroke-linejoin="round" stroke-width="1.4000000000000001"/>
  </g>
</svg>
