<?xml version="1.0" encoding="UTF-8" standalone="no"?>
<svg xmlns:xlink="http://www.w3.org/1999/xlink" height="69.1px" width="29.7px" xmlns="http://www.w3.org/2000/svg">
  <g transform="matrix(1.0, 0.0, 0.0, 1.0, 21.65, 60.35)">
    <path d="M-17.55 -29.55 Q-22.1 -31.45 -19.1 -35.3 -21.95 -42.7 -15.85 -49.0 -9.8 -55.2 -10.0 -59.6 -0.75 -54.45 -1.9 -47.65 L-0.55 -48.6 Q3.85 -47.9 2.5 -42.05 6.35 -39.35 4.35 -35.05 L5.65 -35.4 Q8.95 -32.7 5.7 -29.55 L5.25 -2.2 5.2 1.5 Q5.25 7.45 1.7 8.0 L-0.65 3.9 -3.0 -0.15 -5.55 -4.45 -8.65 -9.75 -11.05 -13.8 -13.9 -18.65 -16.75 -23.55 Q-22.7 -24.2 -20.1 -28.85 L-17.55 -29.55 -15.05 -30.25 4.35 -35.05 M5.7 -29.55 L-16.75 -23.55" fill="none" stroke="#000000" stroke-linecap="round" stroke-linejoin="round" stroke-width="1.5"/>
    <path d="M-15.05 -30.25 L2.5 -42.05 M-1.9 -47.65 L-19.1 -35.3 M-5.55 -4.45 L-0.6 -10.8 M-13.9 -18.65 L-8.6 -24.1 M-8.65 -9.75 L-3.4 -15.35 M-11.05 -13.8 L-5.8 -19.95 M5.25 -2.2 L-0.65 3.9 M-3.0 -0.15 L2.4 -6.2" fill="none" stroke="#000000" stroke-linecap="round" stroke-linejoin="round" stroke-width="1.0"/>
  </g>
</svg>
