<?xml version="1.0" encoding="UTF-8" standalone="no"?>
<svg xmlns:xlink="http://www.w3.org/1999/xlink" height="55.85px" width="44.75px" xmlns="http://www.w3.org/2000/svg">
  <g transform="matrix(1.0, 0.0, 0.0, 1.0, 25.55, 53.1)">
    <path d="M4.0 -30.25 L2.5 -25.55 Q2.0 -24.15 1.8 -22.75 0.8 -16.2 5.4 -10.85 9.2 -5.95 6.35 -0.4 2.65 3.8 -4.85 0.6 -22.6 -6.85 -24.65 -17.15 -25.35 -21.45 -22.3 -26.0 -18.75 -31.4 -18.4 -32.4 L-18.35 -32.65 Q-18.15 -34.0 -18.45 -39.0 -18.8 -44.7 -14.35 -49.3 -9.8 -53.95 9.3 -51.5 17.35 -50.5 18.45 -45.0 18.15 -38.85 12.45 -36.45 5.25 -34.0 4.0 -30.25" fill="none" stroke="#000000" stroke-linecap="round" stroke-linejoin="round" stroke-width="1.5"/>
    <path d="M2.35 -38.25 Q2.15 -37.45 1.35 -37.0 0.65 -36.55 -0.2 -36.8 -1.0 -37.0 -1.45 -37.75 -1.85 -38.5 -1.65 -39.3 -1.45 -40.1 -0.65 -40.55 L0.9 -40.8 Q1.75 -40.55 2.15 -39.8 2.55 -39.05 2.35 -38.25 M-1.35 -45.5 Q-0.9 -44.8 -1.1 -43.95 -1.35 -43.15 -2.1 -42.7 L-3.65 -42.5 Q-4.5 -42.7 -4.95 -43.45 -5.35 -44.2 -5.1 -45.0 -4.9 -45.85 -4.2 -46.25 L-2.6 -46.5 Q-1.8 -46.25 -1.35 -45.5 M-7.1 -40.8 Q-7.3 -40.0 -8.1 -39.55 L-9.65 -39.3 Q-10.5 -39.55 -10.9 -40.3 -11.3 -41.05 -11.1 -41.85 -10.9 -42.65 -10.1 -43.1 L-8.55 -43.3 Q-7.75 -43.1 -7.3 -42.35 -6.9 -41.6 -7.1 -40.8 M-4.95 -37.6 Q-4.15 -37.35 -3.7 -36.6 -3.25 -35.9 -3.5 -35.05 -3.7 -34.25 -4.45 -33.8 L-6.0 -33.65 Q-6.85 -33.85 -7.3 -34.55 -7.7 -35.3 -7.5 -36.1 -7.25 -36.95 -6.55 -37.35 L-4.95 -37.6 M-6.85 -18.6 L-6.6 -18.5 Q-5.35 -18.2 -4.7 -17.1 -4.1 -16.05 -4.4 -14.85 -4.75 -13.6 -5.8 -12.95 -6.9 -12.35 -8.15 -12.65 L-8.5 -12.8 -8.6 -12.15 Q-8.95 -10.95 -10.0 -10.3 -11.1 -9.7 -12.35 -10.05 -13.5 -10.35 -14.15 -11.45 -14.8 -12.5 -14.45 -13.7 L-14.2 -14.35 -14.85 -14.45 Q-16.05 -14.8 -16.65 -15.85 -17.3 -16.95 -16.95 -18.2 -16.65 -19.4 -15.55 -20.0 -14.5 -20.65 -13.3 -20.3 L-12.65 -20.1 -12.55 -20.55 Q-12.2 -21.75 -11.15 -22.35 -10.05 -23.05 -8.85 -22.7 -7.6 -22.4 -7.05 -21.25 -6.35 -20.15 -6.7 -18.95 L-6.85 -18.6" fill="none" stroke="#000000" stroke-linecap="round" stroke-linejoin="round" stroke-width="1.0"/>
  </g>
</svg>
