<?xml version="1.0" encoding="UTF-8" standalone="no"?>
<svg xmlns:xlink="http://www.w3.org/1999/xlink" height="84.55px" width="49.7px" xmlns="http://www.w3.org/2000/svg">
  <g transform="matrix(1.0, 0.0, 0.0, 1.0, 17.3, 47.4)">
    <path d="M-3.75 13.4 Q-6.25 6.4 -6.75 -3.95 -7.1 -11.75 -6.4 -21.35 -5.55 -32.75 -3.15 -46.65 0.5 -41.1 3.7 -34.85 8.2 -26.15 11.65 -16.2 14.1 -9.35 16.05 -1.9 L18.3 7.4 Q17.6 10.6 15.9 11.1 19.2 12.95 27.3 12.65 35.4 12.3 28.45 18.3 27.7 28.25 16.4 25.7 18.5 33.1 9.8 36.35 1.5 36.95 2.75 27.55 -5.75 35.2 -11.8 27.7 -15.7 27.0 -16.55 22.1 -16.25 18.0 -12.85 16.9 -6.75 16.5 -3.75 13.4 1.3 13.65 5.6 8.65 L7.3 9.7 Q11.3 11.7 15.9 11.1" fill="none" stroke="#000000" stroke-linecap="round" stroke-linejoin="round" stroke-width="1.5"/>
    <path d="M16.05 -1.9 Q11.65 -3.55 8.0 -2.85 M11.65 -16.2 Q8.35 -18.15 5.1 -17.25 M-6.4 -21.35 Q-4.4 -25.1 -0.3 -25.4 M5.6 8.65 L9.85 18.75 10.0 19.1 Q11.05 21.3 16.2 25.1 L16.4 25.7 M-11.8 27.7 Q2.75 24.15 5.25 10.95 L5.6 8.65 M28.45 18.3 Q16.75 25.15 10.5 16.8 L9.4 15.25 Q8.0 12.95 7.3 9.7 M2.75 27.55 L5.25 10.95 M3.7 -34.85 L-0.25 -33.15 M-6.75 -3.95 Q-3.65 -7.5 1.15 -7.55 M5.7 6.25 Q1.1 6.45 -2.6 9.7" fill="none" stroke="#000000" stroke-linecap="round" stroke-linejoin="round" stroke-width="1.0"/>
  </g>
</svg>
