<?xml version="1.0" encoding="UTF-8" standalone="no"?>
<svg xmlns:xlink="http://www.w3.org/1999/xlink" height="111.0px" width="66.35px" xmlns="http://www.w3.org/2000/svg">
  <g transform="matrix(1.0, 0.0, 0.0, 1.0, 41.25, 89.3)">
    <path d="M13.1 -54.35 L16.9 -52.75 Q21.15 -54.0 21.85 -56.1 26.35 -66.8 21.85 -77.5 15.75 -86.35 9.9 -87.95 L9.25 -88.05 Q2.75 -88.9 -2.9 -86.95 -5.9 -85.9 -6.5 -83.2 -6.4 -80.2 -8.9 -78.75 -13.7 -76.25 -10.4 -71.6 -3.55 -62.85 3.6 -57.7 8.6 -56.2 13.1 -54.35 M17.1 -49.75 Q18.4 -51.5 16.9 -52.75 M17.1 -49.75 Q18.7 -48.6 17.1 -45.35 13.0 -40.05 9.5 -32.4 4.15 -20.6 0.25 -3.3 L-2.3 17.3 Q-2.95 21.45 -6.9 20.55 -10.9 20.2 -14.2 18.9 -18.35 17.25 -21.45 14.05 -24.7 8.6 -22.65 3.2 -16.7 -14.65 -5.05 -28.25 L-2.55 -31.5 -16.85 -21.25 Q-23.65 -16.2 -27.3 -15.05 L-30.05 -14.85 Q-34.2 -15.65 -33.5 -27.1 -33.2 -29.3 -34.25 -32.4 L-35.35 -34.95 Q-39.0 -41.55 -39.95 -49.95 -41.3 -59.85 -36.5 -61.3 -25.8 -64.0 -10.4 -61.1 -2.95 -59.65 3.6 -57.7 M-1.8 -32.4 Q7.4 -43.85 17.1 -49.75" fill="none" stroke="#000000" stroke-linecap="round" stroke-linejoin="round" stroke-width="2.0"/>
    <path d="M13.1 -54.35 Q11.6 -61.95 3.05 -74.65 M13.1 -73.2 Q15.7 -62.05 13.1 -54.35 M17.1 -49.75 Q-1.45 -48.75 -20.95 -40.55 M-22.05 -49.75 Q-2.85 -53.05 17.1 -49.75" fill="none" stroke="#000000" stroke-linecap="round" stroke-linejoin="round" stroke-width="1.4000000000000001"/>
  </g>
</svg>
