<?xml version="1.0" encoding="UTF-8" standalone="no"?>
<svg xmlns:xlink="http://www.w3.org/1999/xlink" height="64.9px" width="31.75px" xmlns="http://www.w3.org/2000/svg">
  <g transform="matrix(1.0, 0.0, 0.0, 1.0, 17.05, 55.9)">
    <path d="M0.9 -41.1 L1.1 -40.65 1.7 -39.15 2.3 -38.05 Q10.4 -40.85 11.55 -48.65 6.45 -55.2 -2.45 -55.15 L-6.45 -54.5 Q4.0 -47.1 0.9 -41.1 0.05 -42.4 -1.2 -42.2 L-1.45 -42.15 Q-3.3 -41.45 -2.95 -39.5 L-0.35 -29.85 1.85 -21.65 4.0 -13.6 6.1 -5.9 7.75 0.15 Q8.25 6.2 3.25 7.95 -3.15 9.35 -5.2 4.2 L-5.35 3.6 -7.25 -4.0 -9.4 -12.25 -11.45 -20.4 -14.2 -31.3 -16.2 -39.2 Q-16.6 -42.7 -15.65 -45.75 L-14.2 -48.75 Q-11.8 -53.1 -6.45 -54.5 M2.3 -38.05 Q5.4 -33.2 11.6 -36.8 15.8 -40.15 12.55 -47.25 L11.55 -48.65 M-15.65 -45.75 Q-4.2 -46.75 -1.2 -42.2 M-14.2 -31.3 Q-8.9 -39.5 -2.95 -39.5 M-11.45 -20.4 Q-7.35 -27.2 -0.35 -29.85 M1.85 -21.65 Q-5.25 -20.0 -9.4 -12.25 M-5.2 4.2 Q-1.2 -3.55 6.1 -5.9 M4.0 -13.6 Q-3.3 -12.0 -7.25 -4.0" fill="none" stroke="#000000" stroke-linecap="round" stroke-linejoin="round" stroke-width="1.5"/>
  </g>
</svg>
