<?xml version="1.0" encoding="UTF-8" standalone="no"?>
<svg xmlns:xlink="http://www.w3.org/1999/xlink" height="74.75px" width="41.45px" xmlns="http://www.w3.org/2000/svg">
  <g transform="matrix(1.0, 0.0, 0.0, 1.0, 19.25, 62.05)">
    <path d="M10.5 -57.65 Q7.55 -56.15 4.9 -54.5 L10.05 -47.1 14.7 -51.4 10.5 -57.65 Q13.65 -59.35 17.2 -61.05 19.8 -61.9 20.9 -59.85 22.0 -58.3 20.8 -56.45 L14.7 -51.4 M10.05 -47.1 Q-0.5 -36.85 -3.0 -28.7 -4.4 -19.3 0.5 -5.75 L3.1 0.8 6.55 8.15 Q6.85 10.4 5.25 11.35 3.4 12.75 1.4 10.85 L-3.9 4.15 -7.9 -1.4 Q-19.25 -18.4 -18.45 -30.75 -13.7 -43.35 4.9 -54.5 M3.1 0.8 L-3.9 4.15 M-7.9 -1.4 L0.5 -5.75" fill="none" stroke="#000000" stroke-linecap="round" stroke-linejoin="round" stroke-width="1.5"/>
  </g>
</svg>
