<?xml version="1.0" encoding="UTF-8" standalone="no"?>
<svg xmlns:xlink="http://www.w3.org/1999/xlink" height="55.05px" width="55.45px" xmlns="http://www.w3.org/2000/svg">
  <g transform="matrix(1.0, 0.0, 0.0, 1.0, 18.95, 41.1)">
    <path d="M-18.2 -40.35 Q-17.1 -35.3 -11.25 -38.5 -4.8 -43.1 -2.5 -36.15 L3.4 -39.55 Q5.2 -40.7 6.05 -38.8 L8.0 -35.6 9.85 -32.35 Q14.0 -32.8 18.35 -31.6 23.45 -30.25 27.2 -27.05 30.15 -24.55 32.15 -21.0 34.05 -17.7 35.05 -14.7 36.6 -9.55 34.75 -2.65 32.85 4.35 23.85 10.1 15.65 14.8 6.55 12.4 1.25 10.95 -2.55 7.65 -5.3 5.2 -7.3 1.75 -9.35 -1.75 -9.95 -5.4 -10.95 -10.25 -9.55 -15.5 -8.25 -20.25 -5.45 -23.8 L-7.3 -27.0 -9.1 -30.2 Q-9.75 -31.35 -8.4 -32.85 L-2.5 -36.15 M-5.45 -23.8 Q-2.85 -27.05 1.0 -29.35 5.35 -31.85 9.85 -32.35 M8.0 -35.6 L-7.3 -27.0 M27.2 -27.05 L-9.95 -5.4 M-2.55 7.65 L35.05 -14.7" fill="none" stroke="#000000" stroke-linecap="round" stroke-linejoin="round" stroke-width="1.5"/>
  </g>
</svg>
