<?xml version="1.0" encoding="UTF-8" standalone="no"?>
<svg xmlns:xlink="http://www.w3.org/1999/xlink" height="68.9px" width="53.35px" xmlns="http://www.w3.org/2000/svg">
  <g transform="matrix(1.0, 0.0, 0.0, 1.0, 27.95, 56.65)">
    <path d="M17.9 -31.85 Q15.1 -25.95 9.6 -20.55 L6.85 -17.95 1.9 -14.05 Q3.4 -11.25 4.2 -8.75 9.25 6.05 -3.3 11.5 L-7.65 -2.55 Q-4.95 -6.3 -4.1 -10.5 -3.45 -17.8 -6.05 -23.3 L10.25 -37.6 13.15 -34.3 13.5 -33.95 17.9 -31.85 M-20.75 -32.5 Q-17.65 -36.75 -13.1 -40.7 -5.5 -47.35 2.25 -49.85 L3.6 -45.25 7.0 -41.25 -9.35 -26.9 -11.95 -29.45 -2.6 -37.7 -11.95 -29.45 Q-15.35 -31.95 -20.75 -32.5 M2.45 -24.9 L13.15 -34.3 2.45 -24.9 M0.9 -39.75 L1.65 -40.0 2.0 -40.65 1.75 -41.4 1.0 -41.65 0.3 -41.45 -0.05 -40.75 0.2 -40.05 Q0.45 -39.8 0.9 -39.75 0.45 -39.8 0.2 -40.05 L-0.05 -40.75 0.3 -41.45 1.0 -41.65 1.75 -41.4 2.0 -40.65 1.65 -40.0 0.9 -39.75 M-0.05 -22.25 Q0.0 -22.6 -0.35 -22.95 L-0.95 -23.35 -1.75 -23.05 -2.05 -22.45 Q-2.1 -22.05 -1.8 -21.7 -1.5 -21.35 -1.15 -21.35 -0.65 -21.4 -0.4 -21.6 -0.05 -21.85 -0.05 -22.25 -0.05 -21.85 -0.4 -21.6 -0.65 -21.4 -1.15 -21.35 -1.5 -21.35 -1.8 -21.7 -2.1 -22.05 -2.05 -22.45 L-1.75 -23.05 -0.95 -23.35 -0.35 -22.95 Q0.0 -22.6 -0.05 -22.25 M-4.1 -10.5 Q-1.05 -11.95 1.9 -14.05 -1.05 -11.95 -4.1 -10.5" fill="#b3bbc2" fill-rule="evenodd" stroke="none"/>
    <path d="M2.25 -49.85 L1.3 -53.05 8.6 -49.85 7.1 -55.9 12.7 -53.1 15.05 -50.45 Q15.35 -51.75 16.35 -52.65 17.75 -53.85 19.5 -53.8 21.35 -53.7 22.5 -52.3 23.7 -50.95 23.55 -49.2 23.4 -47.4 22.05 -46.2 21.0 -45.25 19.65 -45.1 L22.4 -41.95 24.65 -34.95 18.3 -38.7 21.35 -30.25 17.9 -31.85 Q15.1 -25.95 9.6 -20.55 12.8 -14.3 4.2 -8.75 9.25 6.05 -3.3 11.5 L-7.65 -2.55 -9.5 -8.5 -11.15 -8.05 Q-18.45 -6.3 -22.6 -9.0 -24.65 -6.65 -26.3 -8.45 -28.35 -10.75 -25.75 -12.5 -27.95 -16.95 -25.3 -24.15 -23.7 -28.45 -20.75 -32.5 -17.65 -36.75 -13.1 -40.7 -5.5 -47.35 2.25 -49.85 L3.6 -45.25 7.0 -41.25 10.25 -37.6 13.15 -34.3 13.5 -33.95 17.9 -31.85 M9.6 -20.55 L6.85 -17.95 1.9 -14.05 Q3.4 -11.25 4.2 -8.75 M19.65 -45.1 L15.05 -50.45 M18.3 -38.7 L8.6 -49.85 M-11.95 -29.45 L-9.35 -26.9 7.0 -41.25 M-6.05 -23.3 L-22.4 -9.0 -22.6 -9.0 M-7.65 -2.55 Q-4.95 -6.3 -4.1 -10.5 -3.45 -17.8 -6.05 -23.3 L10.25 -37.6 M-25.75 -12.5 L-9.35 -26.9 M-20.75 -32.5 Q-15.35 -31.95 -11.95 -29.45 M1.9 -14.05 Q-1.05 -11.95 -4.1 -10.5" fill="none" stroke="#000000" stroke-linecap="round" stroke-linejoin="round" stroke-width="1.5"/>
    <path d="M0.9 -39.75 Q0.45 -39.8 0.2 -40.05 L-0.05 -40.75 0.3 -41.45 1.0 -41.65 1.75 -41.4 2.0 -40.65 1.65 -40.0 0.9 -39.75 M13.15 -34.3 L2.45 -24.9 M-11.95 -29.45 L-2.6 -37.7 M-0.05 -22.25 Q-0.05 -21.85 -0.4 -21.6 -0.65 -21.4 -1.15 -21.35 -1.5 -21.35 -1.8 -21.7 -2.1 -22.05 -2.05 -22.45 L-1.75 -23.05 -0.95 -23.35 -0.35 -22.95 Q0.0 -22.6 -0.05 -22.25" fill="none" stroke="#000000" stroke-linecap="round" stroke-linejoin="round" stroke-width="1.0"/>
  </g>
</svg>
