<?xml version="1.0" encoding="UTF-8" standalone="no"?>
<svg xmlns:xlink="http://www.w3.org/1999/xlink" height="66.8px" width="46.6px" xmlns="http://www.w3.org/2000/svg">
  <g transform="matrix(1.0, 0.0, 0.0, 1.0, 23.4, 50.4)">
    <path d="M2.85 -18.45 Q-0.55 -12.35 4.55 -4.35 7.0 -0.5 11.45 3.85 L7.6 7.3 Q-1.6 -7.3 -10.05 -5.35 -12.1 -4.9 -14.0 -3.55 -11.6 -6.1 -12.65 -8.45 -6.1 -17.15 -11.95 -24.15 -9.4 -27.05 -8.1 -30.5 L2.85 -18.45 -8.1 -30.5 -10.8 -33.55 -3.15 -40.45 -0.4 -37.4 9.8 -26.15 12.65 -23.0 8.65 -19.4 4.95 -16.05 2.85 -18.45 M-1.45 -30.6 L8.65 -19.4 -1.45 -30.6 M-4.35 -32.2 L-3.7 -31.9 Q-3.25 -31.95 -3.0 -32.25 -2.65 -32.45 -2.6 -32.9 -2.55 -33.25 -2.85 -33.55 L-3.55 -33.9 -4.2 -33.65 -4.6 -32.95 -4.35 -32.2 -4.6 -32.95 -4.2 -33.65 -3.55 -33.9 -2.85 -33.55 Q-2.55 -33.25 -2.6 -32.9 -2.65 -32.45 -3.0 -32.25 -3.25 -31.95 -3.7 -31.9 L-4.35 -32.2 M-15.5 -11.9 Q-19.0 -7.8 -21.45 -10.25 -23.65 -12.3 -21.8 -14.85 L-17.25 -18.85 Q-19.3 -16.1 -17.05 -13.65 L-15.5 -11.9 M-3.4 7.85 L-3.6 7.15 Q-3.6 6.7 -3.25 6.45 -3.0 6.2 -2.6 6.2 -2.15 6.2 -1.9 6.5 L-1.65 7.25 -1.95 7.95 -2.7 8.1 Q-3.1 8.2 -3.4 7.85" fill="#b3bbc2" fill-rule="evenodd" stroke="none"/>
    <path d="M-0.4 -37.4 Q-1.5 -45.15 4.7 -49.65 L13.55 -39.75 15.4 -41.4 15.15 -41.7 Q14.05 -42.95 14.15 -44.65 14.2 -46.45 15.45 -47.55 16.7 -48.7 18.5 -48.6 20.2 -48.5 21.35 -47.25 22.45 -46.0 22.4 -44.25 22.35 -42.5 21.0 -41.3 19.75 -40.2 18.0 -40.3 16.5 -40.35 15.4 -41.4 M-8.1 -30.5 Q-9.4 -27.05 -11.95 -24.15 -6.1 -17.15 -12.65 -8.45 -11.6 -6.1 -14.0 -3.55 -12.1 -4.9 -10.05 -5.35 -1.6 -7.3 7.6 7.3 L11.45 3.85 Q7.0 -0.5 4.55 -4.35 -0.55 -12.35 2.85 -18.45 L-8.1 -30.5 -10.8 -33.55 -3.15 -40.45 -0.4 -37.4 9.8 -26.15 Q16.55 -24.25 22.45 -29.85 L13.55 -39.75 M2.85 -18.45 L4.95 -16.05 8.65 -19.4 -1.45 -30.6 M4.95 -16.05 L6.55 -14.25 Q11.2 -9.95 4.55 -4.35 M9.8 -26.15 L12.65 -23.0 8.65 -19.4 M-15.5 -11.9 Q-19.0 -7.8 -21.45 -10.25 -23.65 -12.3 -21.8 -14.85 L-17.25 -18.85 -15.6 -20.65 Q-13.55 -22.3 -11.95 -24.15 M-15.5 -11.9 L-17.05 -13.65 Q-19.3 -16.1 -17.25 -18.85 M-12.65 -8.45 L-13.85 -10.15 -15.5 -11.9 M-10.05 -5.35 L-4.15 4.55 M7.6 7.3 L-1.65 15.65 -14.0 -3.55" fill="none" stroke="#000000" stroke-linecap="round" stroke-linejoin="round" stroke-width="1.5"/>
    <path d="M-4.35 -32.2 L-4.6 -32.95 -4.2 -33.65 -3.55 -33.9 -2.85 -33.55 Q-2.55 -33.25 -2.6 -32.9 -2.65 -32.45 -3.0 -32.25 -3.25 -31.95 -3.7 -31.9 L-4.35 -32.2 M-3.4 7.85 L-3.6 7.15 Q-3.6 6.7 -3.25 6.45 -3.0 6.2 -2.6 6.2 -2.15 6.2 -1.9 6.5 L-1.65 7.25 -1.95 7.95 -2.7 8.1 Q-3.1 8.2 -3.4 7.85" fill="none" stroke="#000000" stroke-linecap="round" stroke-linejoin="round" stroke-width="1.0"/>
  </g>
</svg>
