<?xml version="1.0" encoding="UTF-8" standalone="no"?>
<svg xmlns:xlink="http://www.w3.org/1999/xlink" height="56.6px" width="36.2px" xmlns="http://www.w3.org/2000/svg">
  <g transform="matrix(1.0, 0.0, 0.0, 1.0, 11.85, 36.05)">
    <path d="M3.55 -26.45 L2.5 -35.3 -6.5 -32.9 -2.95 -24.7 3.55 -26.45 10.15 -28.2 11.0 -25.0 13.95 -25.8 17.55 -12.25 19.85 -3.8 23.6 10.25 20.95 10.95 21.85 14.35 1.6 19.8 0.7 16.4 -1.45 17.0 -5.2 3.05 -7.45 -5.4 -11.1 -19.05 -8.45 -19.8 -9.3 -23.0 -2.95 -24.7 M-5.2 3.05 L1.0 1.35 2.25 2.25 Q5.1 3.9 8.25 3.05 11.35 2.25 13.0 -0.6 L13.7 -2.1 19.85 -3.8 M-7.45 -5.4 L-1.15 -7.15 -0.6 -8.45 Q1.05 -11.25 4.2 -12.1 7.3 -12.9 10.15 -11.3 L11.25 -10.55 17.55 -12.25 M20.95 10.95 L0.7 16.4 M11.0 -25.0 L-8.45 -19.8" fill="none" stroke="#000000" stroke-linecap="round" stroke-linejoin="round" stroke-width="1.5"/>
    <path d="M0.55 -29.45 Q0.3 -28.95 -0.25 -28.8 L-1.4 -28.9 -2.0 -29.75 Q-2.15 -30.3 -1.9 -30.8 -1.6 -31.35 -1.0 -31.5 L0.05 -31.35 0.7 -30.5 Q0.85 -29.95 0.55 -29.45" fill="none" stroke="#000000" stroke-linecap="round" stroke-linejoin="round" stroke-width="1.0"/>
  </g>
</svg>
