<?xml version="1.0" encoding="UTF-8" standalone="no"?>
<svg xmlns:xlink="http://www.w3.org/1999/xlink" height="51.9px" width="40.8px" xmlns="http://www.w3.org/2000/svg">
  <g transform="matrix(1.0, 0.0, 0.0, 1.0, 12.35, 16.5)">
    <path d="M1.85 22.95 L0.75 22.9 Q0.15 22.65 -0.05 22.05 -0.25 21.5 -0.05 20.9 0.2 20.35 0.75 20.15 1.3 19.9 1.8 20.15 L2.6 21.05 Q2.8 21.65 2.6 22.15 2.4 22.7 1.85 22.95 M18.5 17.8 Q18.75 18.45 18.55 19.05 18.3 19.7 17.65 19.95 L16.45 19.85 Q15.85 19.55 15.6 18.9 15.35 18.25 15.55 17.6 15.85 16.95 16.45 16.75 L17.65 16.8 Q18.25 17.15 18.5 17.8 M12.45 23.8 Q12.7 24.5 12.4 25.2 12.15 25.9 11.5 26.15 L10.2 26.1 Q9.5 25.7 9.25 25.0 8.95 24.3 9.3 23.7 9.55 23.0 10.2 22.75 L11.5 22.8 Q12.15 23.1 12.45 23.8" fill="#000000" fill-opacity="0.4862745" fill-rule="evenodd" stroke="none"/>
    <path d="M4.8 -8.9 L6.35 -4.85 8.4 0.45 18.6 9.15 22.1 12.15 Q27.7 16.25 27.7 20.35 27.65 23.95 24.2 25.5 L1.25 34.35 Q-2.3 35.45 -4.75 32.8 -7.5 29.75 -6.1 23.0 L-5.4 17.85 -3.75 5.1 -7.35 -4.25 Q-10.5 -4.2 -11.4 -7.1 -12.3 -10.0 -9.45 -11.2 L1.75 -15.5 Q4.65 -16.5 5.95 -13.75 7.25 -11.0 4.8 -8.9 L-7.35 -4.25 M1.5 -3.0 L6.35 -4.85 M8.4 0.45 L3.55 2.3 M-5.4 17.85 Q-0.6 10.05 6.25 13.35 13.45 16.75 18.6 9.15" fill="none" stroke="#000000" stroke-linecap="round" stroke-linejoin="round" stroke-width="1.5"/>
  </g>
</svg>
