<?xml version="1.0" encoding="UTF-8" standalone="no"?>
<svg xmlns:xlink="http://www.w3.org/1999/xlink" height="96.1px" width="76.8px" xmlns="http://www.w3.org/2000/svg">
  <g transform="matrix(1.0, 0.0, 0.0, 1.0, 39.75, 74.1)">
    <path d="M23.25 -68.8 L28.05 -73.35 Q44.15 -52.8 28.8 -27.2 L23.65 -31.95 Q33.5 -52.2 23.25 -68.8 M-25.6 -30.4 L-29.25 -26.4 Q-47.6 -44.65 -31.4 -72.7 L-27.0 -68.4 Q-37.6 -46.45 -25.6 -30.4" fill="#ececec" fill-opacity="0.76862746" fill-rule="evenodd" stroke="none"/>
    <path d="M3.7 -55.5 L3.75 -60.95 3.8 -63.2 -6.35 -62.7 -6.3 -59.85 -6.0 -40.1 -5.95 -37.05 4.5 -37.05 4.4 -39.65 4.2 -48.3 M23.25 -68.8 L28.05 -73.35 Q44.15 -52.8 28.8 -27.2 L23.65 -31.95 Q15.05 -39.2 4.4 -39.65 M3.75 -60.95 Q13.75 -60.9 23.25 -68.8 33.5 -52.2 23.65 -31.95 M-6.35 -62.7 L-6.4 -64.95 Q-5.8 -67.7 -3.05 -68.35 L1.45 -68.35 Q3.45 -68.1 3.75 -66.1 L3.8 -63.2 M-25.6 -30.4 L-29.25 -26.4 Q-47.6 -44.65 -31.4 -72.7 L-27.0 -68.4 Q-19.0 -61.35 -6.3 -59.85 M-6.0 -40.1 Q-17.75 -37.65 -25.6 -30.4 -37.6 -46.45 -27.0 -68.4 M4.5 -37.05 L5.35 14.85 Q5.7 21.8 -0.8 21.2 -3.8 20.9 -4.75 17.5 L-5.95 -37.05" fill="none" stroke="#000000" stroke-linecap="round" stroke-linejoin="round" stroke-width="1.5"/>
  </g>
</svg>
