<?xml version="1.0" encoding="UTF-8" standalone="no"?>
<svg xmlns:xlink="http://www.w3.org/1999/xlink" height="93.2px" width="48.9px" xmlns="http://www.w3.org/2000/svg">
  <g transform="matrix(1.0, 0.0, 0.0, 1.0, 18.0, 76.4)">
    <path d="M21.2 -45.95 Q23.45 -60.05 17.7 -73.2 L23.1 -75.65 Q33.0 -60.35 29.0 -44.0 L21.2 -45.95 29.0 -44.0 Q28.35 -40.9 27.05 -37.75 L19.8 -39.95 Q20.75 -43.05 21.2 -45.95" fill="#d8d7d9" fill-rule="evenodd" stroke="none"/>
    <path d="M29.0 -44.0 Q33.0 -60.35 23.1 -75.65 L17.7 -73.2 Q23.45 -60.05 21.2 -45.95 L29.0 -44.0 Q28.35 -40.9 27.05 -37.75 L19.8 -39.95 0.8 -45.8 1.3 -40.95 -2.65 -40.5 7.1 8.15 Q7.25 11.3 4.4 14.2 0.3 17.35 -4.25 15.1 L-10.0 -39.75 -14.4 -39.25 -17.25 -66.4 -0.95 -68.15 -0.6 -65.0 17.7 -73.2 M19.8 -39.95 Q20.75 -43.05 21.2 -45.95 L7.35 -49.5 M-10.0 -39.75 L-2.65 -40.5 M-0.85 -59.85 L0.1 -51.1" fill="none" stroke="#000000" stroke-linecap="round" stroke-linejoin="round" stroke-width="1.5"/>
  </g>
</svg>
