<?xml version="1.0" encoding="UTF-8" standalone="no"?>
<svg xmlns:xlink="http://www.w3.org/1999/xlink" height="48.05px" width="48.4px" xmlns="http://www.w3.org/2000/svg">
  <g transform="matrix(1.0, 0.0, 0.0, 1.0, 16.1, 36.1)">
    <path d="M10.15 -19.75 Q16.75 -24.45 23.75 -23.4 33.75 -21.3 30.9 -1.0 29.0 10.4 17.05 8.05 12.65 14.05 3.5 8.6 -5.75 3.15 -6.0 -12.05 -5.0 -17.2 -0.05 -18.6 4.5 -19.85 10.15 -19.75 8.6 -23.45 8.3 -27.1 L5.05 -28.75 Q2.85 -22.1 -4.85 -24.65 -11.8 -27.3 -15.35 -31.25 -9.3 -36.3 -0.8 -35.15 4.45 -33.8 5.05 -28.75 M8.3 -27.1 Q7.9 -31.0 8.75 -34.85" fill="none" stroke="#000000" stroke-linecap="round" stroke-linejoin="round" stroke-width="1.5"/>
    <path d="M5.05 -28.75 Q-4.0 -32.65 -15.35 -31.25 M1.1 -15.4 Q-3.45 -12.55 -1.9 -6.1" fill="none" stroke="#000000" stroke-linecap="round" stroke-linejoin="round" stroke-width="1.0"/>
  </g>
</svg>
