<?xml version="1.0" encoding="UTF-8" standalone="no"?>
<svg xmlns:xlink="http://www.w3.org/1999/xlink" height="37.1px" width="38.4px" xmlns="http://www.w3.org/2000/svg">
  <g transform="matrix(1.0, 0.0, 0.0, 1.0, 6.95, 28.15)">
    <path d="M4.05 -18.65 L4.35 -19.05 Q5.05 -18.0 6.65 -16.9 8.3 -15.75 11.3 -16.6 14.3 -17.45 14.3 -21.25 16.25 -20.05 17.85 -20.55 19.35 -21.05 19.8 -22.45 20.25 -23.8 19.85 -25.25 19.4 -26.65 18.75 -27.4 L21.4 -26.15 Q28.0 -22.3 30.0 -14.95 32.0 -7.6 28.15 -1.0 24.35 5.6 17.0 7.55 9.6 9.5 3.05 5.7 -3.55 1.9 -5.5 -5.45 -7.5 -12.8 -3.65 -19.4 L-2.55 -21.05 Q-2.1 -19.85 -1.05 -19.05 L-0.4 -18.6 Q1.35 -17.6 3.3 -18.1 3.7 -18.2 4.05 -18.65 L4.55 -17.5 Q4.95 -16.1 4.25 -14.9 3.55 -13.65 2.15 -13.3 0.85 -12.9 -0.4 -13.65 -1.6 -14.3 -2.0 -15.75 -2.35 -17.05 -1.65 -18.3 L-1.05 -19.05 M7.2 -3.6 Q6.55 -2.5 5.3 -2.15 4.0 -1.8 2.85 -2.45 1.75 -3.1 1.45 -4.35 1.1 -5.65 1.75 -6.8 2.4 -7.9 3.7 -8.2 4.9 -8.6 6.05 -7.9 7.15 -7.25 7.55 -6.0 7.85 -4.75 7.2 -3.6 M17.95 -12.1 Q18.9 -13.7 20.65 -14.2 22.45 -14.65 24.0 -13.7 25.55 -12.85 26.05 -11.1 26.5 -9.35 25.6 -7.75 24.65 -6.2 22.9 -5.7 21.15 -5.25 19.6 -6.15 18.0 -7.05 17.55 -8.8 17.05 -10.55 17.95 -12.1 M18.9 -0.2 Q19.2 0.95 18.6 2.05 17.95 3.15 16.75 3.45 L14.55 3.2 Q13.45 2.6 13.1 1.35 12.85 0.15 13.45 -0.9 14.05 -2.0 15.25 -2.3 L17.55 -2.0 Q18.6 -1.4 18.9 -0.2" fill="none" stroke="#000000" stroke-linecap="round" stroke-linejoin="round" stroke-width="1.5"/>
  </g>
</svg>
