<?xml version="1.0" encoding="UTF-8" standalone="no"?>
<svg xmlns:xlink="http://www.w3.org/1999/xlink" height="157.45px" width="57.15px" xmlns="http://www.w3.org/2000/svg">
  <g transform="matrix(1.0, 0.0, 0.0, 1.0, 30.0, 127.6)">
    <path d="M2.45 -28.85 L2.5 -22.6 -6.2 -22.6 -6.3 -28.75 2.45 -28.85 M2.7 15.6 L-1.45 16.1 -5.65 15.7 -4.65 -13.85 1.15 -13.95 2.7 15.6" fill="#000000" fill-opacity="0.24705882" fill-rule="evenodd" stroke="none"/>
    <path d="M-6.3 -28.75 L-7.25 -126.5 1.45 -126.6 1.5 -125.15 20.6 -123.2 19.95 -118.55 7.45 -119.6 16.95 -114.0 7.4 -110.5 16.9 -106.65 7.8 -101.75 19.9 -102.9 19.95 -97.65 1.8 -96.1 2.45 -28.85 2.5 -22.6 14.35 -20.1 Q13.25 -15.45 20.05 -14.45 L21.45 15.05 Q23.1 15.45 24.3 16.7 26.1 18.35 26.15 20.9 26.15 23.35 24.45 25.15 22.7 26.9 20.25 26.9 17.8 26.9 15.95 25.2 14.25 23.4 14.25 20.95 L14.2 20.8 2.35 23.05 2.45 28.85 -5.1 28.85 -5.15 23.1 -17.05 21.1 -17.0 21.3 Q-17.0 23.75 -18.8 25.55 -20.5 27.3 -23.0 27.35 -25.45 27.35 -27.2 25.65 -29.0 23.9 -29.0 21.4 -29.05 18.9 -27.3 17.15 -26.1 15.95 -24.4 15.5 L-23.6 -14.0 Q-16.8 -15.1 -18.05 -19.85 L-6.2 -22.6 -6.3 -28.75 2.45 -28.85 M1.15 -13.95 L11.35 -14.15 14.85 15.45 2.7 15.6 -1.45 16.1 -5.65 15.7 -17.85 15.8 -14.9 -13.9 -4.65 -13.85 1.15 -13.95 2.7 15.6 M1.8 -96.1 L1.5 -125.15 M-25.3 21.35 Q-25.3 20.45 -24.65 19.85 -24.0 19.15 -23.15 19.15 -22.2 19.15 -21.5 19.85 -20.9 20.4 -20.85 21.3 -20.9 22.25 -21.5 22.9 -22.15 23.6 -23.1 23.6 -24.0 23.6 -24.65 22.9 -25.3 22.3 -25.3 21.35 M18.7 22.5 Q19.3 23.15 20.25 23.15 21.15 23.15 21.85 22.45 22.45 21.85 22.45 20.85 22.45 20.0 21.85 19.35 21.1 18.75 20.2 18.75 19.3 18.75 18.7 19.4 18.1 20.0 18.1 20.9 18.1 21.9 18.7 22.5 M2.35 23.05 L-5.15 23.1 M2.5 -22.6 L-6.2 -22.6 M-4.65 -13.85 L-5.65 15.7" fill="none" stroke="#000000" stroke-linecap="round" stroke-linejoin="round" stroke-width="2.0"/>
  </g>
</svg>
