<?xml version="1.0" encoding="UTF-8" standalone="no"?>
<svg xmlns:xlink="http://www.w3.org/1999/xlink" height="92.95px" width="81.4px" xmlns="http://www.w3.org/2000/svg">
  <g transform="matrix(1.0, 0.0, 0.0, 1.0, 41.95, 62.6)">
    <path d="M4.35 -53.15 L6.25 -51.4 Q26.6 -50.3 38.45 -36.0 16.5 -43.0 6.3 -42.5 L5.05 -39.8 5.5 19.65 Q5.75 29.9 -0.75 29.3 -7.25 30.0 -7.15 19.75 L-7.6 -39.7 -8.9 -42.4 Q-19.15 -42.7 -40.95 -35.4 -29.3 -49.85 -8.95 -51.3 L-7.15 -53.05 Q-7.4 -61.5 -1.45 -61.6 4.45 -61.6 4.35 -53.15 L-7.15 -53.05 M6.25 -51.4 L6.3 -42.5 M-8.9 -42.4 L-8.95 -51.3 M5.05 -39.8 L-7.6 -39.7" fill="none" stroke="#000000" stroke-linecap="round" stroke-linejoin="round" stroke-width="2.0"/>
  </g>
</svg>
