<?xml version="1.0" encoding="UTF-8" standalone="no"?>
<svg xmlns:xlink="http://www.w3.org/1999/xlink" height="151.55px" width="18.85px" xmlns="http://www.w3.org/2000/svg">
  <g transform="matrix(1.0, 0.0, 0.0, 1.0, 9.45, 125.1)">
    <path d="M4.2 -13.45 L3.05 20.45 Q2.6 25.5 -0.4 25.6 L-3.95 25.5 Q-6.45 24.95 -6.55 20.65 L-5.35 -13.8 4.2 -13.45 M-1.7 23.1 L1.4 21.5 -1.7 19.7 -4.6 21.3 -1.7 23.1 M-1.5 14.35 L-4.45 15.95 -1.55 17.75 1.6 16.15 -1.5 14.35 M-1.2 7.3 L1.95 5.7 -1.15 3.9 -4.05 5.5 -1.2 7.3 M-1.35 12.5 L1.75 10.9 -1.35 9.1 -4.25 10.7 -1.35 12.5 M2.1 0.45 L-1.0 -1.35 -3.9 0.25 -1.0 2.1 2.1 0.45 M-3.55 -10.25 L-0.65 -8.45 2.45 -10.1 -0.6 -11.9 -3.55 -10.25 M2.3 -4.85 L-0.8 -6.65 -3.7 -5.05 -0.8 -3.2 2.3 -4.85" fill="#353535" fill-rule="evenodd" stroke="none"/>
    <path d="M-5.35 -13.8 Q-9.05 -13.6 -8.55 -16.35 -7.7 -18.25 -5.2 -17.9 -3.15 -67.35 -5.05 -124.25 0.9 -114.3 3.05 -96.85 5.2 -79.35 4.05 -17.6 L4.9 -17.55 Q8.35 -17.45 8.55 -15.35 8.35 -13.2 4.2 -13.45 L3.05 20.45 Q2.6 25.5 -0.4 25.6 L-3.95 25.5 Q-6.45 24.95 -6.55 20.65 L-5.35 -13.8 4.2 -13.45 M-5.2 -17.9 L4.05 -17.6" fill="none" stroke="#000000" stroke-linecap="round" stroke-linejoin="round" stroke-width="1.7000000000000002"/>
    <path d="M2.3 -4.85 L-0.8 -3.2 -3.7 -5.05 -0.8 -6.65 2.3 -4.85 M-3.55 -10.25 L-0.6 -11.9 2.45 -10.1 -0.65 -8.45 -3.55 -10.25 M2.1 0.45 L-1.0 2.1 -3.9 0.25 -1.0 -1.35 2.1 0.45 M-1.35 12.5 L-4.25 10.7 -1.35 9.1 1.75 10.9 -1.35 12.5 M-1.2 7.3 L-4.05 5.5 -1.15 3.9 1.95 5.7 -1.2 7.3 M-1.5 14.35 L1.6 16.15 -1.55 17.75 -4.45 15.95 -1.5 14.35 M-1.7 23.1 L-4.6 21.3 -1.7 19.7 1.4 21.5 -1.7 23.1" fill="none" stroke="#000000" stroke-linecap="round" stroke-linejoin="round" stroke-width="1.0"/>
  </g>
</svg>
