<?xml version="1.0" encoding="UTF-8" standalone="no"?>
<svg xmlns:xlink="http://www.w3.org/1999/xlink" height="70.75px" width="74.05px" xmlns="http://www.w3.org/2000/svg">
  <g transform="matrix(1.0, 0.0, 0.0, 1.0, 6.4, 64.9)">
    <path d="M29.95 -3.6 L29.7 -4.25 Q27.45 -9.05 29.6 -10.8 L35.25 -13.2 35.4 -14.65 Q36.45 -21.15 41.75 -24.9 47.0 -28.65 53.4 -27.5 59.8 -26.4 63.65 -21.05 67.45 -15.65 66.4 -9.25 65.45 -2.8 60.2 0.95 54.9 4.7 48.4 3.6 43.65 2.7 40.3 -0.55 L34.85 1.4 Q31.7 2.25 29.95 -3.6 L26.7 -2.4 Q26.95 -1.45 26.35 -0.45 25.7 0.65 24.45 1.15 L21.95 1.25 Q20.75 0.8 20.3 -0.35 L16.8 0.8 Q17.15 1.9 16.5 2.95 15.85 4.05 14.6 4.55 L12.1 4.65 Q10.85 4.2 10.45 3.05 L10.3 2.4 7.1 1.7 Q6.65 2.6 5.5 2.85 L3.0 2.65 Q1.75 2.1 1.25 0.95 0.7 -0.2 1.15 -1.3 L1.6 -2.0 -0.45 -4.7 Q-1.4 -4.0 -2.65 -4.35 -3.85 -4.7 -4.65 -5.8 -5.5 -6.9 -5.4 -8.25 -5.25 -9.5 -4.3 -10.15 -3.75 -10.55 -3.0 -10.65 L-2.6 -14.15 -2.9 -14.25 Q-3.95 -14.7 -4.35 -15.95 -4.65 -17.15 -4.05 -18.4 -3.55 -19.7 -2.4 -20.25 L-0.15 -20.3 0.35 -20.05 2.9 -22.95 2.85 -23.05 Q2.45 -24.05 3.1 -25.15 3.65 -26.3 5.0 -26.85 6.3 -27.3 7.5 -26.85 8.45 -26.45 9.0 -25.75 L12.25 -27.7 Q7.25 -29.55 7.5 -32.35 L9.8 -38.0 8.8 -39.15 Q5.05 -44.45 6.1 -50.9 7.2 -57.2 12.45 -60.9 17.8 -64.75 24.35 -63.65 30.85 -62.55 34.65 -57.25 38.45 -52.0 37.4 -45.65 36.35 -39.25 31.0 -35.5 26.95 -32.7 22.25 -32.6 L19.8 -27.4 Q18.15 -24.5 12.25 -27.7 M15.8 -56.45 Q19.1 -58.8 23.2 -58.1 27.3 -57.45 29.7 -54.1 32.1 -50.85 31.5 -46.85 30.8 -42.85 27.4 -40.45 24.05 -38.15 20.0 -38.85 15.9 -39.5 13.5 -42.8 11.1 -46.1 11.8 -50.15 12.5 -54.15 15.8 -56.45 M13.85 -30.65 L15.25 -34.05 Q12.2 -35.3 9.95 -37.8 L9.8 -38.0 M9.0 -25.75 L9.1 -25.35 Q9.55 -24.2 8.9 -23.1 8.25 -22.0 7.0 -21.55 L4.5 -21.45 Q3.35 -21.9 2.9 -22.95 M22.25 -32.6 L19.15 -32.85 Q17.05 -33.2 15.25 -34.05 M0.35 -20.05 Q1.05 -19.5 1.25 -18.55 1.6 -17.35 1.05 -16.1 0.5 -14.8 -0.65 -14.25 L-2.6 -14.15 M1.6 -2.0 Q2.1 -2.5 2.9 -2.7 L5.4 -2.45 Q6.5 -1.9 7.15 -0.75 7.7 0.45 7.2 1.5 L7.1 1.7 M10.3 2.4 Q10.25 1.7 10.7 0.9 11.3 -0.25 12.65 -0.75 13.9 -1.2 15.1 -0.75 16.35 -0.3 16.7 0.7 L16.8 0.8 M32.95 -5.1 L36.3 -6.55 Q35.1 -9.55 35.25 -12.95 L35.25 -13.2 M20.3 -0.35 Q19.95 -1.4 20.55 -2.55 21.15 -3.65 22.45 -4.15 L24.95 -4.2 Q26.2 -3.7 26.6 -2.65 L26.7 -2.4 M40.3 -0.55 Q39.2 -1.6 38.25 -2.95 37.0 -4.65 36.3 -6.55 M45.2 -20.3 Q48.5 -22.65 52.55 -22.0 56.6 -21.3 59.0 -17.9 61.4 -14.55 60.75 -10.55 60.1 -6.45 56.8 -4.1 53.5 -1.75 49.4 -2.45 45.45 -3.2 43.05 -6.55 40.65 -9.95 41.2 -13.9 41.9 -17.95 45.2 -20.3 M-3.0 -10.65 L-2.1 -10.5 Q-0.85 -10.2 -0.05 -9.05 0.7 -7.95 0.6 -6.65 0.5 -5.35 -0.45 -4.7" fill="none" stroke="#000000" stroke-linecap="round" stroke-linejoin="round" stroke-width="2.0"/>
  </g>
</svg>
