<?xml version="1.0" encoding="UTF-8" standalone="no"?>
<svg xmlns:xlink="http://www.w3.org/1999/xlink" height="48.05px" width="26.95px" xmlns="http://www.w3.org/2000/svg">
  <g transform="matrix(1.0, 0.0, 0.0, 1.0, 9.95, 40.55)">
    <path d="M0.0 -16.8 L0.3 -22.65 -1.05 -24.4 0.9 -26.05 -0.95 -28.45 1.0 -30.2 -0.75 -32.15 1.3 -33.8 1.4 -35.8 5.55 -39.55 9.1 -35.25 8.05 -16.45 Q10.75 -15.45 12.85 -13.25 16.3 -9.6 16.0 -4.65 15.75 0.25 11.9 3.5 8.05 6.75 2.85 6.45 -2.3 6.15 -5.75 2.5 -9.2 -1.15 -8.95 -6.05 -8.65 -11.0 -4.8 -14.25 -2.65 -16.1 0.0 -16.8 L3.9 -17.2 4.2 -17.2 Q6.3 -17.1 8.05 -16.45" fill="none" stroke="#000000" stroke-linecap="round" stroke-linejoin="round" stroke-width="2.0"/>
    <path d="M3.9 -17.2 L4.8 -33.9 M6.05 -0.35 Q6.0 0.8 5.1 1.6 4.25 2.35 3.05 2.3 1.9 2.25 1.1 1.4 0.35 0.5 0.4 -0.65 0.45 -1.85 1.3 -2.6 2.2 -3.4 3.35 -3.35 4.55 -3.3 5.3 -2.4 6.1 -1.55 6.05 -0.35" fill="none" stroke="#000000" stroke-linecap="round" stroke-linejoin="round" stroke-width="1.4000000000000001"/>
  </g>
</svg>
