<?xml version="1.0" encoding="UTF-8" standalone="no"?>
<svg xmlns:xlink="http://www.w3.org/1999/xlink" height="88.8px" width="94.95px" xmlns="http://www.w3.org/2000/svg">
  <g transform="matrix(1.0, 0.0, 0.0, 1.0, 13.95, 70.75)">
    <path d="M69.1 -14.85 Q64.4 -7.95 58.8 -2.25 68.8 -4.9 80.0 -3.75 70.15 -53.9 29.05 -69.75 28.45 -52.6 3.2 -34.15 L7.15 -12.6 8.2 -12.9 Q10.85 -36.7 19.25 -34.75 27.4 -31.35 9.05 -12.7 12.85 -11.2 13.65 -6.7 33.65 -13.45 39.8 -7.7 39.3 -1.75 18.8 -3.95 29.25 0.9 42.25 3.85 M8.2 -12.9 L9.05 -12.7 M13.65 -6.7 L13.8 -6.0 13.15 -4.55 18.8 -3.95 M7.15 -12.6 Q-0.3 -11.0 -10.6 -24.45 -17.8 -10.05 -3.0 -5.1 L-9.3 -0.4 0.25 4.4 3.5 17.05 12.5 -3.25 13.15 -4.55 M58.8 -2.25 Q48.8 8.0 36.1 14.15 29.3 6.1 22.65 1.95 17.3 1.3 12.5 -3.25" fill="none" stroke="#000000" stroke-linecap="round" stroke-linejoin="round" stroke-width="2.0"/>
    <path d="M47.25 -12.0 L59.15 -17.6 M27.8 -40.3 L49.9 -43.95" fill="none" stroke="#000000" stroke-linecap="round" stroke-linejoin="round" stroke-width="1.5"/>
  </g>
</svg>
