<?xml version="1.0" encoding="UTF-8" standalone="no"?>
<svg xmlns:xlink="http://www.w3.org/1999/xlink" height="85.5px" width="84.55px" xmlns="http://www.w3.org/2000/svg">
  <g transform="matrix(1.0, 0.0, 0.0, 1.0, 16.0, 65.45)">
    <path d="M12.95 14.35 Q12.1 14.4 11.5 13.85 10.9 13.35 10.8 12.5 10.75 11.65 11.3 11.0 11.85 10.4 12.65 10.35 L16.15 10.1 10.25 1.85 Q9.25 1.0 7.9 1.45 L10.3 4.9 Q10.8 5.6 10.7 6.4 10.55 7.2 9.9 7.7 L8.4 8.0 Q7.55 7.95 7.05 7.25 L4.7 3.85 Q4.15 4.75 4.6 5.75 L11.7 15.8 11.85 15.9 11.95 16.05 Q12.95 15.75 14.45 14.6 L14.65 14.4 15.0 14.2 12.95 14.35 M38.6 2.2 Q37.85 2.05 36.95 2.45 L26.95 9.4 31.35 9.25 Q32.2 9.2 32.75 9.75 33.4 10.25 33.45 11.15 33.45 11.95 32.95 12.55 32.4 13.15 31.55 13.2 L29.0 13.35 Q29.85 14.65 30.6 15.15 L30.75 15.15 30.8 15.1 40.9 8.05 Q41.8 7.2 41.55 6.25 L38.2 8.6 36.65 8.95 Q35.85 8.85 35.35 8.15 34.85 7.5 35.0 6.7 35.15 5.85 35.8 5.35 L39.4 2.85 38.6 2.2 M64.35 -8.45 L64.4 -8.5 64.55 -8.7 Q64.3 -9.7 63.05 -11.2 L62.9 -11.45 Q61.7 -13.35 60.7 -14.05 L60.5 -14.1 60.45 -14.05 50.35 -7.05 Q49.5 -5.95 49.95 -4.6 L53.45 -7.05 Q54.1 -7.5 54.95 -7.35 55.75 -7.25 56.25 -6.6 56.7 -5.85 56.55 -5.05 56.4 -4.25 55.75 -3.8 L52.45 -1.45 54.25 -1.4 64.35 -8.45 M-4.8 -7.6 Q-3.9 -6.75 -2.9 -7.0 L-5.3 -10.4 Q-5.7 -11.05 -5.65 -11.9 -5.45 -12.65 -4.8 -13.2 L-3.35 -13.5 Q-2.5 -13.3 -2.0 -12.65 L0.45 -9.1 1.05 -9.95 Q1.3 -10.65 0.9 -11.55 L-4.95 -19.8 -5.85 -16.95 Q-6.15 -16.15 -6.85 -15.75 L-8.4 -15.6 Q-9.15 -15.85 -9.55 -16.6 -9.9 -17.3 -9.7 -18.15 L-9.0 -20.25 -9.45 -19.9 -9.65 -19.7 -11.9 -17.85 -11.9 -17.8 -11.9 -17.7 -4.8 -7.65 -4.8 -7.6 M8.85 -39.25 Q9.7 -40.0 9.55 -41.0 L6.15 -38.65 Q5.5 -38.2 4.65 -38.35 3.85 -38.45 3.4 -39.2 2.9 -39.85 3.05 -40.65 3.2 -41.5 3.85 -41.9 L7.35 -44.35 Q6.25 -45.25 4.9 -44.8 L-5.05 -37.75 -5.15 -37.7 -5.15 -37.5 -4.05 -35.4 -3.8 -36.15 Q-3.55 -36.9 -2.8 -37.35 L-1.25 -37.4 Q-0.5 -37.15 -0.1 -36.45 0.25 -35.65 -0.05 -34.9 L-0.8 -32.4 8.85 -39.25 M21.45 -54.25 Q22.1 -54.75 23.0 -54.6 23.75 -54.45 24.25 -53.8 24.7 -53.1 24.6 -52.3 24.45 -51.5 23.8 -51.0 L20.45 -48.65 Q21.3 -48.15 22.35 -48.65 L22.2 -48.6 32.45 -55.75 32.55 -55.95 Q32.3 -56.95 31.1 -58.4 L30.85 -58.7 Q29.7 -60.65 28.7 -61.35 L28.5 -61.4 28.5 -61.35 18.35 -54.25 Q17.5 -53.15 18.0 -51.8 L21.45 -54.25 M20.65 9.6 L20.7 9.65 20.8 9.8 22.7 9.7 Q22.45 7.4 24.55 6.2 L34.8 -0.9 35.0 -1.05 Q37.75 -2.5 40.1 -1.5 41.5 -0.95 42.7 0.5 L44.45 -0.75 44.6 -0.8 44.9 -1.05 46.6 -2.2 Q43.95 -6.75 47.7 -10.05 L47.9 -10.2 58.1 -17.3 58.0 -17.25 Q60.2 -19.1 62.75 -17.5 64.4 -16.55 66.15 -13.7 68.25 -11.15 68.45 -9.4 68.95 -6.65 66.6 -5.15 L56.4 1.95 56.3 2.05 Q52.2 4.55 49.0 0.95 L47.15 2.25 47.05 2.25 46.75 2.6 45.0 3.85 Q47.2 7.95 43.45 11.15 L43.3 11.3 33.15 18.3 33.05 18.4 Q30.95 19.95 28.65 18.6 27.05 17.85 25.45 15.15 L24.3 13.6 21.15 13.85 Q20.15 15.75 16.7 17.8 14.3 19.85 12.55 20.0 9.9 20.4 8.45 18.15 L1.3 7.95 1.2 7.8 Q-1.25 3.7 2.3 0.45 L1.05 -1.3 0.8 -1.65 0.75 -1.75 -0.5 -3.55 Q-4.7 -1.2 -7.85 -5.1 L-7.95 -5.2 -15.15 -15.35 -15.1 -15.3 Q-16.75 -17.45 -15.4 -19.85 -14.55 -21.4 -11.8 -23.15 -9.15 -25.3 -7.2 -25.7 L-5.55 -30.65 -6.55 -32.1 -6.55 -32.15 -6.65 -32.2 -6.65 -32.25 Q-8.7 -34.85 -9.05 -36.65 -9.7 -39.6 -7.4 -41.0 L2.8 -48.2 3.0 -48.4 Q7.4 -50.7 10.75 -46.75 L12.4 -48.0 12.75 -48.15 12.95 -48.3 14.6 -49.45 Q11.95 -54.0 15.75 -57.3 L15.95 -57.45 26.15 -64.6 26.05 -64.5 Q28.3 -66.3 30.8 -64.7 32.4 -63.8 34.15 -61.0 36.3 -58.4 36.5 -56.65 36.9 -53.9 34.65 -52.4 L24.45 -45.25 24.3 -45.2 Q20.2 -42.7 17.0 -46.25 L15.2 -45.05 14.95 -44.85 14.8 -44.7 13.0 -43.45 Q15.3 -39.2 11.4 -36.1 L11.35 -36.05 1.15 -28.85 Q-0.55 -27.5 -2.2 -28.05 L-3.4 -24.5 -3.0 -23.9 4.2 -13.75 4.4 -13.5 Q5.75 -10.75 4.75 -8.4 4.25 -7.0 2.75 -5.8 L4.0 -4.05 4.2 -3.7 4.3 -3.6 5.5 -1.9 Q10.05 -4.5 13.3 -0.75 L13.45 -0.6 20.65 9.6" fill="#000000" fill-rule="evenodd" stroke="none"/>
  </g>
</svg>
