<?xml version="1.0" encoding="UTF-8" standalone="no"?>
<svg xmlns:xlink="http://www.w3.org/1999/xlink" height="40.5px" width="31.0px" xmlns="http://www.w3.org/2000/svg">
  <g transform="matrix(1.0, 0.0, 0.0, 1.0, 7.7, 31.4)">
    <path d="M17.25 -5.4 L17.75 -5.2 17.95 -4.7 17.75 -4.2 Q17.55 -4.0 17.2 -4.0 16.95 -4.0 16.75 -4.2 16.55 -4.4 16.5 -4.7 L16.75 -5.2 17.25 -5.4 M11.7 -0.45 L12.2 -0.25 12.4 0.25 12.2 0.75 11.65 1.0 Q11.35 1.0 11.15 0.8 L10.95 0.3 Q11.0 -0.05 11.2 -0.25 11.4 -0.45 11.7 -0.45 M11.05 -8.1 Q10.75 -8.1 10.55 -8.3 10.35 -8.5 10.3 -8.8 L10.55 -9.35 Q10.8 -9.55 11.0 -9.55 L11.6 -9.35 11.75 -8.85 11.55 -8.35 Q11.35 -8.15 11.05 -8.1 M4.1 -3.9 L4.3 -3.35 4.15 -2.9 Q3.95 -2.65 3.55 -2.65 3.25 -2.65 3.05 -2.85 L2.85 -3.4 3.1 -3.95 3.6 -4.1 4.1 -3.9 M0.5 -10.1 L0.75 -10.65 1.25 -10.85 1.8 -10.65 2.0 -10.15 1.8 -9.65 Q1.6 -9.45 1.25 -9.4 0.95 -9.4 0.75 -9.6 0.55 -9.8 0.5 -10.1 M8.9 -16.3 L9.45 -16.15 9.65 -15.6 9.45 -15.1 8.95 -14.9 Q8.65 -14.9 8.45 -15.1 8.25 -15.3 8.2 -15.6 L8.4 -16.1 8.9 -16.3 M2.1 -15.8 L2.65 -15.6 2.85 -15.1 2.65 -14.55 2.15 -14.4 Q1.85 -14.4 1.65 -14.6 1.45 -14.8 1.4 -15.1 L1.65 -15.6 2.1 -15.8 M6.15 1.9 Q6.5 1.9 6.7 2.15 L6.9 2.6 6.7 3.15 6.2 3.35 Q5.9 3.35 5.7 3.15 L5.45 2.65 5.65 2.1 6.15 1.9 M18.65 3.4 L18.1 3.65 Q17.8 3.65 17.6 3.45 L17.4 2.9 17.65 2.4 18.1 2.15 18.65 2.4 18.8 2.9 18.65 3.4" fill="#4d3a2f" fill-rule="evenodd" stroke="none"/>
    <path d="M9.35 -24.9 L10.6 -25.35 9.45 -27.75 Q4.2 -34.4 -3.35 -25.75 -10.9 -17.1 -2.7 -2.95 -3.9 -6.65 -2.85 -10.45 -5.6 -11.15 -3.4 -16.1 -5.25 -19.05 -2.2 -20.4 -2.8 -23.7 0.65 -24.9 2.05 -29.15 5.35 -25.5 6.95 -28.0 9.35 -24.9 6.3 -23.6 2.55 -19.7 -1.65 -14.95 -2.85 -10.45 M-2.7 -2.95 Q-2.25 -1.1 -1.25 0.5 4.7 10.65 17.55 7.65 24.0 5.2 22.1 -0.05 L10.6 -25.35" fill="none" stroke="#000000" stroke-linecap="round" stroke-linejoin="round" stroke-width="1.5"/>
  </g>
</svg>
