<?xml version="1.0" encoding="UTF-8" standalone="no"?>
<svg xmlns:xlink="http://www.w3.org/1999/xlink" height="81.15px" width="17.5px" xmlns="http://www.w3.org/2000/svg">
  <g transform="matrix(1.0, 0.0, 0.0, 1.0, 8.7, 59.1)">
    <path d="M-4.75 -15.45 Q-4.75 -33.5 -0.9 -47.9 2.15 -35.85 5.1 -15.5 L-4.75 -15.45 5.1 -15.5 -4.75 -15.45 M4.55 -10.25 Q2.5 -5.5 3.3 8.35 L0.75 8.05 Q-0.65 8.05 -1.8 8.65 -2.05 -4.2 -4.45 -9.85 L4.55 -10.25" fill="#c2c4c3" fill-rule="evenodd" stroke="none"/>
    <path d="M5.1 -15.5 L7.75 -15.55 Q5.3 -40.8 -1.25 -58.25 -6.6 -39.35 -7.7 -15.45 L-4.75 -15.45 5.1 -15.5 M7.75 -15.55 Q8.8 -10.75 4.55 -10.25 2.5 -5.5 3.3 8.35 L5.45 9.75 Q7.45 11.6 7.55 14.4 7.65 17.1 5.8 19.05 3.95 21.05 1.2 21.2 -1.55 21.25 -3.55 19.4 -5.5 17.55 -5.6 14.85 -5.7 12.05 -3.85 10.05 L-1.8 8.65 Q-2.05 -4.2 -4.45 -9.85 -8.55 -9.55 -7.7 -15.45 M-1.8 8.65 Q-0.65 8.05 0.75 8.05 L3.3 8.35 M3.25 12.35 Q4.2 13.2 4.2 14.55 4.25 15.9 3.35 16.8 2.5 17.75 1.15 17.8 -0.15 17.85 -1.1 17.0 -2.05 16.1 -2.1 14.75 -2.15 13.4 -1.3 12.45 -0.4 11.55 0.95 11.5 2.3 11.45 3.25 12.35 M4.55 -10.25 L-4.45 -9.85" fill="none" stroke="#000000" stroke-linecap="round" stroke-linejoin="round" stroke-width="1.7000000000000002"/>
  </g>
</svg>
