<?xml version="1.0" encoding="UTF-8" standalone="no"?>
<svg xmlns:xlink="http://www.w3.org/1999/xlink" height="41.35px" width="27.65px" xmlns="http://www.w3.org/2000/svg">
  <g transform="matrix(1.0, 0.0, 0.0, 1.0, 5.4, 40.05)">
    <path d="M8.15 -4.25 Q8.05 -3.5 7.3 -3.0 6.75 -2.5 5.95 -2.6 5.15 -2.75 4.6 -3.4 4.2 -4.0 4.3 -4.85 4.45 -5.7 5.0 -6.1 5.7 -6.6 6.55 -6.5 7.35 -6.4 7.7 -5.7 8.3 -5.15 8.15 -4.25" fill="#000000" fill-rule="evenodd" stroke="none"/>
    <path d="M21.35 -33.0 L17.05 -2.4 Q16.5 0.8 13.45 0.55 L-2.0 -1.6 Q-4.9 -2.25 -4.6 -5.45 L-0.3 -36.0 Q0.0 -39.8 3.1 -39.25 L18.95 -37.0 Q22.15 -36.65 21.35 -33.0 M18.4 -31.75 L2.25 -34.0 -1.25 -9.3 14.9 -7.05 18.4 -31.75" fill="none" stroke="#000000" stroke-linecap="round" stroke-linejoin="round" stroke-width="1.5"/>
  </g>
</svg>
