<?xml version="1.0" encoding="UTF-8" standalone="no"?>
<svg xmlns:xlink="http://www.w3.org/1999/xlink" height="55.5px" width="60.05px" xmlns="http://www.w3.org/2000/svg">
  <g transform="matrix(1.0, 0.0, 0.0, 1.0, 5.5, 46.0)">
    <path d="M5.0 -32.65 L5.25 -32.9 5.45 -33.05 Q6.1 -33.55 7.15 -33.45 L35.35 -44.95 Q40.3 -45.55 47.9 -35.35 55.5 -25.25 52.85 -19.2 L33.75 3.8 33.05 4.85 32.6 5.05 32.55 5.05 32.5 5.1 Q11.05 13.75 0.15 0.25 -11.1 -17.4 5.0 -32.65 L7.15 -33.45 Q9.3 -33.3 13.2 -30.25 18.8 -25.85 24.55 -18.0 30.2 -10.15 32.7 -3.45 34.6 1.65 33.75 3.8 M5.0 -32.65 Q3.6 -30.6 5.75 -24.85 8.2 -18.2 14.0 -10.35 19.7 -2.45 25.3 1.95 30.25 5.9 32.5 5.1" fill="none" stroke="#000000" stroke-linecap="round" stroke-linejoin="round" stroke-width="2.0"/>
  </g>
</svg>
