<?xml version="1.0" encoding="UTF-8" standalone="no"?>
<svg xmlns:xlink="http://www.w3.org/1999/xlink" height="106.3px" width="82.8px" xmlns="http://www.w3.org/2000/svg">
  <g transform="matrix(1.0, 0.0, 0.0, 1.0, 68.15, 80.15)">
    <path d="M6.45 -50.9 Q-11.45 -40.25 -31.0 -48.05 -41.85 -52.4 -56.15 -62.05 L-67.15 -69.05 Q-39.0 -82.95 -15.65 -77.7 6.25 -70.6 13.65 -55.95 L10.55 -53.55 Q13.7 -10.7 -11.65 25.15 -13.5 24.35 -15.4 23.5 9.35 -11.35 6.45 -50.9 8.55 -52.1 10.55 -53.55" fill="none" stroke="#000000" stroke-linecap="round" stroke-linejoin="round" stroke-width="2.0"/>
    <path d="M-45.35 -73.05 Q-36.65 -74.35 -31.7 -69.15 -17.95 -67.9 -6.6 -64.2 L-4.15 -63.35 Q-9.5 -71.75 -31.1 -76.1 M-29.9 -61.35 Q-21.25 -63.6 -6.6 -64.2 M-55.9 -69.5 Q-43.7 -70.15 -32.9 -69.25 L-31.7 -69.15 M-44.9 -63.2 L-32.9 -69.25 M-4.15 -63.35 Q-0.15 -61.95 3.55 -60.15" fill="none" stroke="#000000" stroke-linecap="round" stroke-linejoin="round" stroke-opacity="0.4392157" stroke-width="1.5"/>
  </g>
</svg>
