<?xml version="1.0" encoding="UTF-8" standalone="no"?>
<svg xmlns:xlink="http://www.w3.org/1999/xlink" height="57.95px" width="46.35px" xmlns="http://www.w3.org/2000/svg">
  <g transform="matrix(1.0, 0.0, 0.0, 1.0, 7.85, 38.3)">
    <path d="M14.1 -6.2 Q13.95 -7.2 14.55 -8.0 15.2 -8.85 16.2 -9.0 L16.35 -9.0 Q17.3 -9.1 18.05 -8.55 18.9 -7.95 19.05 -6.9 19.2 -5.85 18.55 -5.05 18.0 -4.2 16.95 -4.05 15.95 -3.9 15.05 -4.5 14.25 -5.1 14.1 -6.15 L14.1 -6.2" fill="#000000" fill-rule="evenodd" stroke="none"/>
    <path d="M27.45 -36.6 Q35.0 -33.45 34.0 -24.8 L15.0 -32.15 Q20.25 -39.15 27.45 -36.6 M16.35 -9.0 L14.85 -18.55 M14.1 -6.2 L7.2 -5.15 M25.7 -19.2 Q30.95 -15.35 31.95 -8.95 32.95 -2.5 29.1 2.75 25.25 8.0 18.8 9.0 12.4 9.95 7.15 6.1 1.9 2.25 0.9 -4.2 -0.1 -10.6 3.75 -15.85 7.6 -21.1 14.0 -22.05 20.45 -23.05 25.7 -19.2 M5.65 11.3 L3.95 10.2 Q-2.95 5.05 -4.25 -3.45 -5.55 -11.95 -0.5 -18.9 4.6 -25.9 13.1 -27.2 21.65 -28.5 28.6 -23.4 35.6 -18.25 36.9 -9.75 38.2 -1.25 33.05 5.7 L32.1 7.0 36.45 9.75 Q38.3 11.3 36.9 13.15 35.85 14.45 33.95 13.3 L28.9 10.1 Q24.85 13.15 19.45 14.0 14.3 14.8 9.65 13.2 L6.2 17.6 Q4.65 19.25 3.35 18.3 1.4 17.0 2.65 14.95 L5.65 11.3 Q7.6 12.5 9.65 13.2 M32.1 7.0 L28.9 10.1 M-5.6 -18.7 L10.3 -31.45 Q3.25 -36.55 -2.85 -31.95 -9.1 -26.65 -5.6 -18.7" fill="none" stroke="#000000" stroke-linecap="round" stroke-linejoin="round" stroke-width="2.0"/>
    <path d="M14.1 -6.2 Q13.95 -7.2 14.55 -8.0 15.2 -8.85 16.2 -9.0 L16.35 -9.0 Q17.3 -9.1 18.05 -8.55 18.9 -7.95 19.05 -6.9 19.2 -5.85 18.55 -5.05 18.0 -4.2 16.95 -4.05 15.95 -3.9 15.05 -4.5 14.25 -5.1 14.1 -6.15 L14.1 -6.2" fill="none" stroke="#000000" stroke-linecap="round" stroke-linejoin="round" stroke-width="0.05"/>
  </g>
</svg>
