<?xml version="1.0" encoding="UTF-8" standalone="no"?>
<svg xmlns:xlink="http://www.w3.org/1999/xlink" height="63.1px" width="60.8px" xmlns="http://www.w3.org/2000/svg">
  <g transform="matrix(1.0, 0.0, 0.0, 1.0, 14.3, 42.75)">
    <path d="M20.55 18.45 L43.4 6.15 Q47.05 3.9 44.4 -0.35 L23.15 -33.7 Q20.65 -37.2 16.6 -35.25 L-4.45 -22.25 -5.7 -21.4 Q-8.25 -19.85 -10.75 -21.35 -12.0 -22.1 -13.3 -23.65 -13.6 -27.45 -9.2 -29.65 L11.15 -41.6 Q14.0 -42.75 16.6 -35.25 M20.55 18.45 Q13.8 21.55 9.45 13.95 L-12.75 -21.2 -13.3 -23.65" fill="none" stroke="#000000" stroke-linecap="round" stroke-linejoin="round" stroke-width="2.0"/>
    <path d="M-4.45 -22.25 L20.55 18.45 M16.6 -35.25 L12.5 -38.95 -13.3 -23.65 M-10.75 -21.35 L3.45 -29.55" fill="none" stroke="#000000" stroke-linecap="round" stroke-linejoin="round" stroke-width="1.0"/>
  </g>
</svg>
