<?xml version="1.0" encoding="UTF-8" standalone="no"?>
<svg xmlns:xlink="http://www.w3.org/1999/xlink" height="143.45px" width="39.9px" xmlns="http://www.w3.org/2000/svg">
  <g transform="matrix(1.0, 0.0, 0.0, 1.0, 20.3, 108.1)">
    <path d="M-15.15 -76.4 L-19.3 -106.3 -15.75 -106.3 -12.65 -91.7 -13.8 -106.7 -10.5 -106.7 -8.8 -95.9 -8.0 -106.8 -4.85 -106.8 -3.95 -99.35 -2.45 -107.1 2.15 -107.1 3.25 -99.35 4.1 -106.8 7.3 -106.8 8.05 -95.9 9.8 -106.7 13.1 -106.7 11.9 -91.7 15.05 -106.3 18.6 -106.3 14.45 -76.4 13.75 -71.6 13.2 -67.45 12.85 -65.65 Q11.4 -57.3 6.25 -54.5 6.75 -49.3 4.25 -47.8 L3.65 -47.55 3.65 31.35 Q3.75 34.35 -0.1 34.35 -3.95 34.35 -4.35 31.35 L-4.35 -47.55 -4.95 -47.8 Q-7.45 -49.3 -6.95 -54.5 -12.1 -57.3 -13.6 -65.65 L-13.9 -67.45 -14.45 -71.6 -15.15 -76.4 14.45 -76.4 M12.85 -65.65 L-13.6 -65.65 M4.25 -47.8 Q-0.35 -46.2 -4.95 -47.8" fill="none" stroke="#000000" stroke-linecap="round" stroke-linejoin="round" stroke-width="2.0"/>
    <path d="M-14.45 -71.6 L13.75 -71.6" fill="none" stroke="#000000" stroke-linecap="round" stroke-linejoin="round" stroke-width="1.5"/>
  </g>
</svg>
