<?xml version="1.0" encoding="UTF-8" standalone="no"?>
<svg xmlns:xlink="http://www.w3.org/1999/xlink" height="87.0px" width="16.9px" xmlns="http://www.w3.org/2000/svg">
  <g transform="matrix(1.0, 0.0, 0.0, 1.0, 4.15, 73.2)">
    <path d="M-3.1 -53.05 L-3.1 -59.55 -3.15 -72.2 11.75 -72.2 11.7 12.75 -3.15 12.8 -3.15 -15.6 -3.1 -22.0 -3.15 -28.2 -3.05 -40.65 -3.15 -46.9 -3.1 -53.05 1.35 -53.05 M2.15 -65.3 L-2.3 -65.3 M1.35 -59.55 L-3.1 -59.55 M2.05 -34.25 L-2.4 -34.25 M1.4 -28.2 L-3.15 -28.2 M1.3 -40.7 L-3.05 -40.65 M1.35 -22.0 L-3.1 -22.0 M1.4 -15.6 L-3.15 -15.6 M-3.15 -46.9 L1.4 -46.9" fill="none" stroke="#000000" stroke-linecap="round" stroke-linejoin="round" stroke-width="2.0"/>
  </g>
</svg>
