<?xml version="1.0" encoding="UTF-8" standalone="no"?>
<svg xmlns:xlink="http://www.w3.org/1999/xlink" height="63.8px" width="17.65px" xmlns="http://www.w3.org/2000/svg">
  <g transform="matrix(1.0, 0.0, 0.0, 1.0, 4.25, 34.05)">
    <path d="M6.85 -24.45 L1.4 -33.05 -3.25 -24.6 6.85 -24.45 8.3 16.55 Q12.65 16.35 12.4 11.65 L11.8 1.75 M0.1 20.95 L-0.15 20.95 -0.1 26.25 Q0.55 28.95 2.85 28.75 5.75 28.65 5.75 25.55 L5.8 21.1 0.1 20.95 M5.8 21.1 L6.15 21.1 Q8.75 19.9 8.3 16.55 L-2.5 16.65 Q-2.3 20.6 -0.15 20.95 M-2.5 16.65 L-3.25 -24.6" fill="none" stroke="#000000" stroke-linecap="round" stroke-linejoin="round" stroke-width="2.0"/>
  </g>
</svg>
