<?xml version="1.0" encoding="UTF-8" standalone="no"?>
<svg xmlns:xlink="http://www.w3.org/1999/xlink" height="43.1px" width="23.2px" xmlns="http://www.w3.org/2000/svg">
  <g transform="matrix(1.0, 0.0, 0.0, 1.0, 10.9, 31.8)">
    <path d="M9.55 -25.25 L9.6 -28.55 M7.25 -25.35 L7.4 -28.9 M0.75 -29.1 L0.6 -25.8 M2.9 -25.6 L2.95 -29.15 M5.2 -29.0 L5.2 -25.4 M-1.65 -25.75 L-1.5 -29.45 M-5.95 -29.7 L-6.05 -26.15 M-8.4 -26.15 L-8.25 -29.55 M-4.05 -29.7 L-4.15 -26.1" fill="none" stroke="#000000" stroke-linecap="round" stroke-linejoin="round" stroke-width="1.0"/>
    <path d="M11.2 -23.35 L6.75 -18.6 6.45 9.25 4.9 10.55 -4.4 10.0 -5.4 8.35 -5.3 -7.45 -7.4 -7.55 -7.15 -10.8 -8.6 -13.25 -5.15 -15.1 -5.15 -18.95 -10.15 -24.7 -9.85 -29.6 Q-9.5 -30.75 -8.05 -31.0 L-7.55 -31.05 10.45 -30.0 Q11.6 -29.6 11.55 -28.4 L11.2 -23.35 -10.15 -24.7 M-5.15 -15.1 L-5.3 -7.45 M6.75 -18.6 L-5.15 -18.95" fill="none" stroke="#000000" stroke-linecap="round" stroke-linejoin="round" stroke-width="1.5"/>
  </g>
</svg>
