<?xml version="1.0" encoding="UTF-8" standalone="no"?>
<svg xmlns:xlink="http://www.w3.org/1999/xlink" height="81.8px" width="64.25px" xmlns="http://www.w3.org/2000/svg">
  <g transform="matrix(1.0, 0.0, 0.0, 1.0, 30.25, 63.7)">
    <path d="M6.0 -50.3 Q5.9 -52.1 7.1 -53.45 8.3 -54.8 10.1 -54.95 11.95 -55.05 13.3 -53.85 14.65 -52.65 14.75 -50.85 14.9 -49.0 13.7 -47.65 12.5 -46.3 10.65 -46.2 8.85 -46.05 7.5 -47.25 6.15 -48.45 6.0 -50.3 M-0.8 -51.7 Q0.15 -52.35 2.65 -52.6 -0.45 -55.75 2.1 -58.35 4.6 -61.0 7.55 -58.4 7.7 -63.05 11.35 -62.65 14.8 -62.35 15.1 -58.0 18.7 -60.05 21.15 -56.1 21.65 -52.85 18.8 -51.45 24.2 -49.7 20.65 -43.85 L22.05 -43.95 Q25.5 -43.65 25.75 -39.25 29.4 -41.35 31.8 -37.45 32.35 -34.2 29.45 -32.8 33.75 -31.35 32.85 -27.65 31.35 -24.35 27.45 -25.6 28.7 -21.25 25.9 -19.85 22.95 -18.5 21.0 -22.55 18.95 -19.7 16.35 -20.6 15.95 -20.75 15.65 -21.0 L7.9 -0.6 22.9 3.5 15.75 5.5 18.35 10.45 5.2 6.45 11.45 16.4 -5.1 17.1 -0.1 6.85 -3.1 0.45 -11.95 -18.3 Q-12.45 -17.65 -13.25 -17.25 -16.15 -15.85 -18.15 -19.95 -20.25 -17.05 -22.8 -17.95 -25.9 -19.25 -24.35 -23.75 -28.9 -23.2 -29.2 -26.7 -29.55 -30.1 -25.85 -31.25 -28.9 -34.4 -26.4 -37.05 -23.85 -39.7 -20.9 -37.1 -20.85 -40.75 -18.45 -41.25 -18.4 -42.35 -17.95 -43.75 -22.45 -43.2 -22.75 -46.7 -23.15 -50.05 -19.45 -51.2 -22.5 -54.4 -19.95 -57.0 -17.45 -59.65 -14.5 -57.05 -14.4 -61.65 -10.7 -61.3 -7.25 -61.0 -7.0 -56.6 -3.35 -58.7 -0.95 -54.75 -0.65 -53.0 -0.8 -51.7 -1.35 -51.3 -1.35 -50.65 L-1.35 -49.9 -1.0 -48.25 -0.5 -46.9 0.15 -47.1 1.4 -47.1 Q4.85 -46.8 5.1 -42.45 8.75 -44.5 11.15 -40.55 L11.25 -39.7 12.1 -38.85 12.75 -39.7 Q14.75 -41.75 17.05 -40.65 L18.3 -39.7 Q18.35 -43.3 20.65 -43.85 M20.85 -36.2 Q22.65 -36.35 24.0 -35.15 25.35 -33.95 25.45 -32.1 25.55 -30.3 24.35 -28.95 23.2 -27.6 21.3 -27.5 19.5 -27.35 18.15 -28.55 16.8 -29.75 16.7 -31.6 16.6 -33.45 17.75 -34.8 18.95 -36.15 20.85 -36.2 M-0.5 -46.9 Q-2.35 -46.15 -2.4 -42.85 -5.35 -45.45 -7.85 -42.8 -10.45 -40.2 -7.4 -37.0 L-7.7 -36.95 -8.7 -36.5 Q-10.95 -35.2 -10.7 -32.5 -10.55 -30.9 -9.55 -30.2 L-9.3 -30.0 Q-9.0 -29.75 -8.45 -29.65 L-5.85 -29.55 -6.35 -27.4 -6.2 -25.7 Q-5.75 -24.4 -4.3 -23.75 -1.75 -22.85 0.35 -25.7 2.3 -21.65 5.2 -23.0 8.0 -24.4 6.75 -28.7 8.75 -28.1 10.1 -28.65 11.45 -29.15 12.2 -30.8 12.55 -32.3 12.15 -33.4 L12.0 -33.7 Q11.15 -35.2 8.85 -35.95 11.3 -37.15 11.25 -39.7 L10.3 -41.25 M-3.95 -34.75 Q-4.1 -36.6 -2.9 -37.95 -1.7 -39.3 0.15 -39.4 1.95 -39.5 3.3 -38.3 4.65 -37.1 4.8 -35.3 4.9 -33.45 3.7 -32.1 2.5 -30.75 0.7 -30.65 -1.15 -30.5 -2.5 -31.7 -3.85 -32.9 -3.95 -34.75 M12.0 -33.7 Q10.6 -36.6 12.1 -38.85 M15.65 -21.0 Q13.4 -22.5 14.8 -26.4 10.8 -25.95 10.1 -28.65 M-0.1 6.85 L5.2 6.45 7.9 -0.6 -3.1 0.45 M-7.25 -49.45 Q-7.2 -47.65 -8.4 -46.3 -9.55 -44.95 -11.4 -44.85 -13.25 -44.7 -14.6 -45.9 -15.95 -47.1 -16.05 -48.95 -16.15 -50.75 -15.0 -52.1 -13.8 -53.45 -11.9 -53.55 -10.1 -53.7 -8.75 -52.5 -7.4 -51.3 -7.25 -49.45 M-18.45 -41.25 L-17.15 -41.35 Q-14.35 -41.1 -13.6 -38.15 L-13.4 -36.6 -8.7 -36.5 M-18.35 -33.6 Q-16.5 -33.75 -15.15 -32.55 -13.8 -31.35 -13.7 -29.5 -13.55 -27.65 -14.75 -26.3 -15.95 -24.95 -17.8 -24.85 -19.65 -24.75 -21.0 -25.95 -22.35 -27.15 -22.45 -28.95 -22.55 -30.8 -21.35 -32.15 -20.15 -33.5 -18.35 -33.6 M-9.55 -30.2 L-9.65 -30.1 -9.3 -30.0 M-6.2 -25.7 Q-6.2 -25.4 -6.35 -25.0 -7.75 -21.7 -11.7 -22.9 -10.8 -19.85 -11.95 -18.3" fill="none" stroke="#000000" stroke-linecap="round" stroke-linejoin="round" stroke-width="2.0"/>
  </g>
</svg>
