<?xml version="1.0" encoding="UTF-8" standalone="no"?>
<svg xmlns:xlink="http://www.w3.org/1999/xlink" height="77.85px" width="73.95px" xmlns="http://www.w3.org/2000/svg">
  <g transform="matrix(1.0, 0.0, 0.0, 1.0, 29.1, 60.25)">
    <path d="M11.4 -37.8 Q11.75 -37.35 12.3 -37.25 L13.2 -37.45 Q13.7 -37.7 13.8 -38.25 13.9 -38.8 13.6 -39.25 L12.8 -39.8 11.8 -39.6 Q11.35 -39.3 11.25 -38.75 11.15 -38.2 11.4 -37.8 M9.8 -38.4 Q10.0 -39.5 10.85 -40.1 11.8 -40.7 12.9 -40.45 13.95 -40.25 14.55 -39.35 15.2 -38.45 15.0 -37.35 14.75 -36.3 13.8 -35.65 12.9 -35.1 11.85 -35.3 10.75 -35.55 10.1 -36.4 9.55 -37.35 9.8 -38.4 M7.0 -32.95 Q8.1 -32.65 8.35 -31.8 8.65 -31.05 7.9 -30.25 7.25 -29.45 6.15 -29.05 L3.95 -28.95 Q3.05 -29.2 2.75 -29.95 L2.65 -30.65 Q2.7 -31.15 3.1 -31.7 3.75 -32.45 4.9 -32.85 L7.0 -32.95 M-9.95 -29.75 Q-9.7 -30.9 -8.75 -31.55 -7.85 -32.15 -6.7 -31.9 -5.6 -31.7 -4.95 -30.8 -4.3 -29.8 -4.55 -28.65 -4.8 -27.55 -5.75 -26.95 -6.7 -26.35 -7.8 -26.55 -8.95 -26.8 -9.55 -27.7 -10.2 -28.65 -9.95 -29.75 M-7.95 -29.6 Q-8.05 -29.15 -7.8 -28.75 L-7.05 -28.3 -6.2 -28.45 Q-5.8 -28.7 -5.7 -29.15 -5.6 -29.65 -5.9 -30.05 L-6.55 -30.55 -7.5 -30.35 -7.95 -29.6" fill="#000000" fill-rule="evenodd" stroke="none"/>
    <path d="M11.4 -37.8 Q11.15 -38.2 11.25 -38.75 11.35 -39.3 11.8 -39.6 L12.8 -39.8 13.6 -39.25 Q13.9 -38.8 13.8 -38.25 13.7 -37.7 13.2 -37.45 L12.3 -37.25 Q11.75 -37.35 11.4 -37.8 M-7.95 -29.6 L-7.5 -30.35 -6.55 -30.55 -5.9 -30.05 Q-5.6 -29.65 -5.7 -29.15 -5.8 -28.7 -6.2 -28.45 L-7.05 -28.3 -7.8 -28.75 Q-8.05 -29.15 -7.95 -29.6" fill="#ffffff" fill-rule="evenodd" stroke="none"/>
    <path d="M-11.5 -17.85 Q-23.05 -21.5 -22.35 -34.75 -30.85 -38.1 -26.8 -43.85 -22.55 -49.3 -16.6 -43.4 -6.95 -53.15 5.95 -52.05 5.55 -60.5 12.85 -59.05 19.0 -58.1 14.85 -49.95 23.75 -46.0 21.45 -36.05 26.05 -41.75 29.85 -38.5 34.75 -33.2 26.2 -20.6 33.05 -14.9 32.85 -8.3 43.0 -10.45 43.85 -1.4 44.0 7.35 37.45 8.65 32.45 8.8 30.65 5.0 L26.55 7.05 Q27.85 11.55 24.2 14.95 18.75 18.55 13.6 14.25 L12.85 13.75 Q1.0 5.7 -2.9 -7.4 -18.95 -4.35 -21.25 -11.15 -22.6 -17.35 -11.5 -17.85 L0.1 -17.15 Q11.85 -18.25 18.0 -28.05 19.5 -30.55 20.65 -33.6 L21.45 -36.05 M32.85 -8.3 Q28.1 -6.15 29.8 2.2 30.05 3.8 30.65 5.0 M26.55 7.05 L26.05 5.75 Q21.35 -1.95 14.25 1.85 8.6 6.3 12.85 13.75" fill="none" stroke="#000000" stroke-linecap="round" stroke-linejoin="round" stroke-width="2.0"/>
    <path d="M2.95 -24.95 Q6.4 -23.0 8.1 -27.1 11.25 -26.45 11.55 -29.6" fill="none" stroke="#000000" stroke-linecap="round" stroke-linejoin="round" stroke-width="1.0"/>
  </g>
</svg>
