<?xml version="1.0" encoding="UTF-8" standalone="no"?>
<svg xmlns:xlink="http://www.w3.org/1999/xlink" height="55.4px" width="17.05px" xmlns="http://www.w3.org/2000/svg">
  <g transform="matrix(1.0, 0.0, 0.0, 1.0, 5.9, 30.85)">
    <path d="M-4.65 -15.25 L6.0 -15.0 5.95 -7.7 9.85 -7.6 10.15 0.05 5.95 -0.05 5.95 -7.7 -4.7 -7.65 -4.65 -15.25 M4.65 18.8 L4.6 23.5 -3.0 23.55 -3.2 19.1 4.65 18.8" fill="#ffffff" fill-opacity="0.21960784" fill-rule="evenodd" stroke="none"/>
    <path d="M-4.65 -15.25 L-4.6 -19.25 -2.9 -20.9 Q-2.5 -20.45 -1.85 -20.45 -1.25 -20.45 -0.8 -20.85 L4.45 -26.05 4.9 -27.15 4.9 -28.6 6.15 -29.85 6.0 -15.0 -4.65 -15.25 M5.95 -0.05 L5.95 18.75 4.65 18.8 -3.2 19.1 -4.9 19.15 -4.7 -7.65 5.95 -7.7 5.95 -0.05" fill="#000000" fill-opacity="0.32941177" fill-rule="evenodd" stroke="none"/>
    <path d="M6.0 -15.0 L6.15 -29.85 4.9 -28.6 4.9 -27.15 4.45 -26.05 -0.8 -20.85 Q-1.25 -20.45 -1.85 -20.45 -2.5 -20.45 -2.9 -20.9 L-4.6 -19.25 -4.65 -15.25 6.0 -15.0 5.95 -7.7 9.85 -7.6 10.15 0.05 5.95 -0.05 5.95 18.75 4.65 18.8 4.6 23.5 -3.0 23.55 -3.2 19.1 -4.9 19.15 -4.7 -7.65 -4.65 -15.25 M5.95 -7.7 L5.95 -0.05 M4.65 18.8 L-3.2 19.1 M5.95 -7.7 L-4.7 -7.65" fill="none" stroke="#000000" stroke-linecap="round" stroke-linejoin="round" stroke-width="2.0"/>
  </g>
</svg>
