<?xml version="1.0" encoding="UTF-8" standalone="no"?>
<svg xmlns:xlink="http://www.w3.org/1999/xlink" height="149.45px" width="62.75px" xmlns="http://www.w3.org/2000/svg">
  <g transform="matrix(1.0, 0.0, 0.0, 1.0, 31.45, 125.95)">
    <path d="M1.95 -25.05 L4.65 -31.85 Q-1.7 -81.7 -10.35 -125.2 -12.35 -80.7 -8.7 -31.55 L-6.0 -24.35 Q-4.05 -25.15 -1.6 -25.4 L1.95 -25.05 Q12.05 -23.4 15.0 -12.45 L16.35 -12.55 20.6 -12.85 Q20.5 -14.75 21.75 -16.25 23.05 -17.8 25.15 -18.0 27.15 -18.15 28.75 -16.85 30.3 -15.55 30.55 -13.5 30.7 -11.4 29.4 -9.85 28.1 -8.25 26.05 -8.1 23.95 -7.9 22.4 -9.2 20.8 -10.5 20.65 -12.6 L20.6 -12.85 M4.65 -11.6 L5.35 -4.4 6.1 4.55 6.95 13.4 7.5 14.25 Q19.45 7.35 16.85 -1.15 L16.25 -2.4 Q13.7 -7.6 7.1 -11.85 L4.65 -11.6 -5.25 -10.85 -4.5 -3.25 5.35 -4.4 M15.0 -12.45 L7.1 -11.85 M6.95 13.4 L6.0 12.45 Q4.2 10.95 1.75 11.2 -0.65 11.4 -2.15 13.25 L-2.8 14.25 Q-3.6 15.7 -3.45 17.5 -3.2 19.9 -1.4 21.4 0.45 22.95 2.85 22.75 5.3 22.5 6.8 20.7 L7.7 19.15 Q8.2 17.95 8.05 16.45 7.95 15.25 7.5 14.25 M7.7 19.15 Q21.55 14.9 23.25 3.25 24.7 -5.45 16.35 -12.55 M-21.0 -9.65 Q-21.35 -11.05 -22.5 -12.0 -24.1 -13.3 -26.15 -13.1 -28.25 -12.9 -29.55 -11.35 -30.85 -9.8 -30.65 -7.7 -30.5 -5.6 -28.9 -4.3 -27.35 -3.0 -25.25 -3.2 -23.15 -3.4 -21.85 -4.95 -20.55 -6.5 -20.75 -8.6 L-21.0 -9.65 -15.15 -10.1 Q-13.7 -21.3 -6.0 -24.35 M-5.25 -10.85 L-15.15 -10.1 M-2.8 14.25 L-3.75 5.55 -4.5 -3.25 M-3.75 5.55 L6.1 4.55" fill="none" stroke="#000000" stroke-linecap="round" stroke-linejoin="round" stroke-width="1.5"/>
  </g>
</svg>
