<?xml version="1.0" encoding="UTF-8" standalone="no"?>
<svg xmlns:xlink="http://www.w3.org/1999/xlink" height="262.9px" width="306.95px" xmlns="http://www.w3.org/2000/svg">
  <g transform="matrix(1.0, 0.0, 0.0, 1.0, 153.45, 131.45)">
    <path d="M116.5 -105.5 L116.7 -105.05 114.3 -109.0 116.5 -105.5" fill="#70c4ff" fill-rule="evenodd" stroke="none"/>
    <path d="M116.5 -105.5 L114.3 -109.0 116.7 -105.05 116.5 -105.5 M116.7 -105.05 L116.75 -105.0 116.85 -104.85 117.0 -104.6 Q164.05 -48.45 148.7 24.8 L148.25 22.9 Q147.05 -44.05 122.1 -93.4 133.4 -64.25 142.55 -0.6 147.05 34.85 143.65 64.05 138.35 90.8 141.1 111.75 141.7 116.7 142.4 119.9 132.05 114.25 132.55 101.3 131.7 114.65 125.85 119.1 123.65 111.05 119.35 103.65 115.0 96.2 114.4 92.45 113.3 105.3 115.85 114.75 117.95 122.65 122.5 128.2 112.3 122.2 100.7 110.1 94.8 103.9 93.9 91.7 93.95 106.35 81.35 120.3 86.15 107.8 81.55 87.75 79.95 80.7 80.05 68.8 77.2 84.45 65.7 85.65 73.1 72.35 78.65 52.0 L80.25 45.9 Q71.0 20.7 78.6 -16.7 M97.5 -120.8 Q107.2 -119.3 114.3 -109.0 M71.5 -108.1 L71.45 -108.6 M80.25 45.9 Q81.9 50.35 84.2 54.45 82.3 47.95 81.4 41.05 78.6 19.2 85.3 -5.95 L85.95 -10.9 M117.0 -104.6 Q119.6 -99.85 122.1 -93.4 M85.3 -5.95 Q85.7 13.0 84.35 27.1 L84.35 27.4 81.4 41.05 M93.9 91.7 Q93.9 78.95 95.9 64.15 M114.4 92.45 Q115.55 78.85 120.7 61.5 M117.1 7.65 Q128.45 46.25 89.45 62.5 105.3 41.45 104.85 14.1 M81.35 58.2 L80.05 68.8 M132.55 101.3 Q133.0 75.9 128.5 60.05 M109.25 -71.9 Q113.4 -25.7 135.3 3.9 127.9 -17.25 123.9 -51.45 M-43.1 -74.6 L-41.7 -76.85 M-63.6 -13.95 L-62.8 -5.95 Q-56.95 19.2 -60.55 41.05 -61.7 47.95 -63.75 54.45 -61.35 50.35 -59.55 45.9 -48.25 17.85 -57.4 -25.3 -57.3 -34.8 -55.25 -44.15 M-59.75 -130.45 Q-87.7 -127.15 -103.05 -101.75 -131.55 -53.6 -132.2 10.0 -132.9 24.35 -132.55 45.4 -131.95 80.2 -152.45 92.6 -133.85 90.5 -128.35 78.3 L-124.9 70.45 Q-122.3 63.0 -121.5 53.05 M-61.75 -116.05 Q-73.1 -116.95 -86.5 -101.3 -112.95 -72.5 -108.0 -13.5 M-62.8 -5.95 Q-63.85 13.0 -63.0 27.1 L-63.0 27.4 -60.55 41.05 M-61.0 58.2 L-60.1 68.8 Q-57.8 84.45 -46.3 85.65 -53.25 72.35 -58.15 52.0 L-59.55 45.9 M-83.15 76.3 Q-81.7 94.95 -86.2 109.15 -76.05 103.9 -74.75 91.7 -74.3 78.95 -75.8 64.15 M-60.1 68.8 Q-60.4 80.7 -63.6 89.5 -68.05 104.65 -78.4 118.3 -75.3 106.35 -74.75 91.7 M-128.35 78.3 Q-130.1 109.75 -101.95 124.25 -112.3 109.65 -110.65 85.25 -110.2 77.9 -108.65 69.75 -113.35 75.05 -118.9 79.8 -107.2 60.05 -108.2 22.5 M-82.05 4.15 Q-85.35 43.45 -108.65 69.75 M-86.2 109.15 Q-90.15 121.55 -98.65 130.45 -98.8 126.05 -104.6 113.5 -110.4 100.95 -110.65 85.25" fill="none" stroke="#000000" stroke-linecap="round" stroke-linejoin="round" stroke-width="2.0"/>
  </g>
</svg>
