<?xml version="1.0" encoding="UTF-8" standalone="no"?>
<svg xmlns:xlink="http://www.w3.org/1999/xlink" height="51.65px" width="17.2px" xmlns="http://www.w3.org/2000/svg">
  <g transform="matrix(1.0, 0.0, 0.0, 1.0, 9.45, 32.45)">
    <path d="M1.0 -20.2 Q5.1 -20.55 4.95 -16.25 L6.75 10.65 Q6.85 17.2 2.1 18.1 -2.8 18.9 -3.7 13.4 -3.9 -2.85 -6.3 -15.85 -6.95 -18.95 -3.8 -19.4 -4.8 -19.65 -5.8 -20.35 -7.85 -21.8 -8.35 -24.25 -8.8 -26.75 -7.35 -28.85 -5.9 -30.9 -3.35 -31.4 -0.85 -31.75 1.2 -30.35 3.25 -28.9 3.65 -26.45 4.1 -23.95 2.7 -21.8 1.95 -20.8 1.0 -20.2 0.05 -19.6 -1.3 -19.35 L-3.8 -19.4" fill="none" stroke="#000000" stroke-linecap="round" stroke-linejoin="round" stroke-width="2.0"/>
  </g>
</svg>
