<?xml version="1.0" encoding="UTF-8" standalone="no"?>
<svg xmlns:xlink="http://www.w3.org/1999/xlink" height="38.1px" width="41.4px" xmlns="http://www.w3.org/2000/svg">
  <g transform="matrix(1.0, 0.0, 0.0, 1.0, 4.9, 32.3)">
    <path d="M13.2 -18.7 L9.35 -19.05 8.85 -19.1 Q1.55 -19.95 0.75 -12.0 L3.1 -12.25 12.8 -11.4 M8.85 -19.1 Q9.65 -26.3 15.85 -26.4 22.05 -26.5 23.05 -31.3 28.4 -29.4 28.3 -23.4 27.85 -18.75 23.55 -17.75 L26.25 -17.5 Q34.4 -16.7 32.4 -8.9 35.85 -7.05 35.45 -2.0 34.4 5.15 27.15 4.8 L4.6 2.75 Q-3.35 1.8 -3.9 -4.4 -3.8 -10.75 0.75 -12.0 M32.4 -8.9 Q31.0 -9.7 28.95 -9.9 L22.55 -10.5 M23.55 -17.75 L17.5 -18.3" fill="none" stroke="#000000" stroke-linecap="round" stroke-linejoin="round" stroke-width="2.0"/>
  </g>
</svg>
