<?xml version="1.0" encoding="UTF-8" standalone="no"?>
<svg xmlns:xlink="http://www.w3.org/1999/xlink" height="42.3px" width="30.95px" xmlns="http://www.w3.org/2000/svg">
  <g transform="matrix(1.0, 0.0, 0.0, 1.0, 7.3, 31.4)">
    <path d="M5.65 -24.6 L5.0 -25.05 Q4.85 -25.55 5.0 -25.9 L5.5 -26.5 Q5.9 -26.7 6.35 -26.5 L6.9 -26.0 6.95 -25.25 6.4 -24.65 5.65 -24.6 M15.8 -14.65 L16.35 -14.15 16.4 -13.4 15.85 -12.8 15.1 -12.75 Q14.7 -12.85 14.5 -13.2 14.35 -13.6 14.5 -14.0 14.6 -14.45 14.95 -14.6 L15.8 -14.65 M5.1 -18.95 L5.9 -19.0 6.5 -18.5 6.6 -17.7 6.0 -17.1 5.2 -17.0 4.6 -17.55 Q4.45 -17.95 4.65 -18.35 L5.1 -18.95 M1.8 -9.5 L1.85 -8.8 Q1.75 -8.35 1.3 -8.2 L0.55 -8.1 -0.1 -8.65 -0.1 -9.45 0.4 -10.05 1.2 -10.05 1.8 -9.5 M10.55 -3.3 L10.6 -2.5 10.05 -1.9 9.3 -1.9 Q8.9 -2.0 8.65 -2.4 8.5 -2.8 8.65 -3.2 L9.1 -3.75 9.95 -3.85 10.55 -3.3 M11.85 4.65 Q11.65 4.2 11.75 3.8 11.9 3.4 12.3 3.25 L13.1 3.2 13.65 3.7 Q13.9 4.05 13.7 4.45 L13.2 5.05 12.4 5.1 11.85 4.65 M-3.3 -23.7 L-3.4 -24.45 -2.9 -25.05 -2.1 -25.1 -1.5 -24.6 Q-1.3 -24.2 -1.45 -23.8 L-1.95 -23.2 Q-2.3 -23.05 -2.75 -23.2 L-3.3 -23.7" fill="#000000" fill-opacity="0.4392157" fill-rule="evenodd" stroke="none"/>
    <path d="M20.8 -3.1 L21.25 -5.25 Q23.25 -13.25 18.1 -19.05 14.9 -23.05 10.5 -27.15 6.1 -31.2 0.6 -30.2 -4.9 -29.3 -5.95 -22.9 -7.0 -16.55 -4.85 -15.15 L-4.85 -18.0 M-4.85 -15.15 L-4.7 -12.35 -4.75 -12.3 Q-4.3 -6.45 -0.25 -1.95 L5.1 4.85 Q9.65 11.85 17.25 9.15 25.35 4.7 21.25 -5.25" fill="none" stroke="#000000" stroke-linecap="round" stroke-linejoin="round" stroke-width="2.0"/>
  </g>
</svg>
