<?xml version="1.0" encoding="UTF-8" standalone="no"?>
<svg xmlns:xlink="http://www.w3.org/1999/xlink" height="39.25px" width="41.0px" xmlns="http://www.w3.org/2000/svg">
  <g transform="matrix(1.0, 0.0, 0.0, 1.0, 23.45, 38.8)">
    <path d="M-14.75 -26.85 Q-15.15 -26.45 -15.75 -26.4 -16.4 -26.35 -16.85 -26.7 -17.3 -27.1 -17.35 -27.7 L-17.0 -28.8 Q-16.65 -29.3 -16.0 -29.35 -15.4 -29.4 -14.9 -28.95 -14.45 -28.6 -14.4 -27.95 -14.35 -27.35 -14.75 -26.85" fill="#000000" fill-rule="evenodd" stroke="none"/>
    <path d="M-7.8 -30.65 Q-5.65 -29.0 -3.15 -29.65 -1.55 -30.45 0.45 -32.5 4.4 -35.65 10.8 -31.45 15.0 -28.85 16.45 -19.75 17.8 -10.6 12.35 -4.25 4.35 3.15 -5.85 -3.75 0.25 -8.75 -0.2 -13.35 -0.85 -17.6 -2.85 -17.45 -4.85 -17.3 -7.55 -14.55 -12.55 -10.25 -18.9 -14.55 -22.85 -17.95 -22.6 -23.3 -21.75 -29.5 -15.0 -32.25 L-14.55 -32.85 Q-13.95 -34.0 -14.2 -36.65 -13.75 -39.6 -10.25 -35.9 -8.25 -33.6 -7.8 -30.65 Z" fill="none" stroke="#000000" stroke-linecap="round" stroke-linejoin="round" stroke-width="1.7000000000000002"/>
  </g>
</svg>
