<?xml version="1.0" encoding="UTF-8" standalone="no"?>
<svg xmlns:xlink="http://www.w3.org/1999/xlink" height="141.6px" width="183.35px" xmlns="http://www.w3.org/2000/svg">
  <g transform="matrix(1.0, 0.0, 0.0, 1.0, 50.2, 83.7)">
    <path d="M-7.65 -43.45 L-1.75 -42.9 1.7 -43.3 3.35 -43.6 Q7.9 -44.65 10.35 -46.9 9.2 -59.65 -2.8 -71.5 -14.95 -83.35 -20.7 -82.65 -24.75 -74.25 -32.0 -68.2 L-34.65 -65.55 Q-38.9 -60.5 -38.6 -53.5 -38.0 -52.25 -36.65 -51.15 -33.6 -48.65 -26.55 -46.75 -19.25 -44.8 -7.65 -43.45 -36.2 -40.05 -44.05 -29.7 -45.9 -24.55 -40.55 -16.6 -35.25 -8.7 -34.2 -3.8 -24.1 -6.9 -16.6 -11.95 L-14.6 -13.35 -10.7 -16.6 Q-4.5 -22.4 -0.85 -30.1 L-0.6 -30.6 -0.35 -31.15 Q2.2 -36.85 3.35 -43.6 M84.9 -43.6 Q80.8 -44.65 78.6 -46.9 79.65 -59.65 90.4 -71.5 101.35 -83.35 106.5 -82.65 110.15 -74.25 116.65 -68.2 122.1 -63.25 122.6 -55.9 L122.6 -53.5 Q119.8 -46.85 96.55 -43.7 L94.8 -43.45 96.6 -43.2 Q120.7 -39.65 127.5 -29.7 129.15 -24.55 124.35 -16.6 119.6 -8.7 118.65 -3.8 108.3 -7.35 101.05 -13.35 109.15 -3.2 120.85 8.2 132.6 19.6 132.15 28.05 L122.2 40.2 Q117.5 21.05 108.25 11.25 L105.65 8.1 Q115.2 31.15 112.9 56.9 L111.05 54.0 Q107.8 49.7 103.7 48.2 L100.3 47.5 Q101.8 30.8 100.15 8.8 95.4 -13.25 88.65 -30.1 L88.45 -30.6 88.2 -31.15 Q85.9 -36.85 84.9 -43.6 L89.45 -42.9 94.8 -43.45 M105.65 8.1 Q100.25 0.7 98.35 -10.4 L98.15 -11.5 Q97.75 -14.0 97.5 -16.6 91.95 -22.4 88.65 -30.1 M101.05 -13.35 L97.95 -16.2 97.5 -16.6 M-14.6 -13.35 L-18.0 -9.7 Q-26.0 -1.2 -36.65 8.2 -49.7 19.6 -49.2 28.05 L-38.15 40.2 Q-35.05 28.8 -30.15 20.75 -26.85 15.2 -22.65 11.25 L-19.75 8.1 Q-13.75 0.7 -11.6 -10.4 -11.0 -13.4 -10.7 -16.6 M-19.75 8.1 Q-30.35 31.15 -27.8 56.9 -22.25 48.1 -13.8 47.5 -15.45 30.8 -13.65 8.8 -8.35 -13.25 -0.85 -30.1" fill="none" stroke="#000000" stroke-linecap="round" stroke-linejoin="round" stroke-width="2.0"/>
  </g>
</svg>
