<?xml version="1.0" encoding="UTF-8" standalone="no"?>
<svg xmlns:xlink="http://www.w3.org/1999/xlink" height="49.3px" width="139.0px" xmlns="http://www.w3.org/2000/svg">
  <g transform="matrix(1.0, 0.0, 0.0, 1.0, 49.7, 38.25)">
    <path d="M71.95 -26.25 L71.6 -30.05 87.45 -32.35 88.3 -24.9 72.4 -22.35 71.95 -26.25 33.1 -20.7 33.45 -15.7 6.75 -12.0 3.1 1.95 -6.95 3.55 -3.45 -10.65 -12.75 -9.25 -41.25 8.9 Q-45.8 11.9 -47.05 7.2 L-48.6 -5.2 Q-49.7 -10.8 -40.05 -12.1 L-14.1 -15.75 -4.0 -17.15 -4.25 -19.7 1.55 -20.6 0.7 -25.25 -10.2 -23.25 -11.7 -31.4 23.5 -37.25 24.0 -29.65 14.8 -27.9 15.35 -22.85 32.15 -25.9 33.1 -20.7 M14.8 -27.9 L0.7 -25.25 M1.55 -20.6 L15.35 -22.85 M-3.45 -10.65 L-4.0 -17.15 M-12.75 -9.25 L-14.1 -15.75 M6.75 -12.0 L-3.45 -10.65" fill="none" stroke="#000000" stroke-linecap="round" stroke-linejoin="round" stroke-width="2.0"/>
  </g>
</svg>
