<?xml version="1.0" encoding="UTF-8" standalone="no"?>
<svg xmlns:xlink="http://www.w3.org/1999/xlink" height="53.75px" width="26.5px" xmlns="http://www.w3.org/2000/svg">
  <g transform="matrix(1.0, 0.0, 0.0, 1.0, 14.4, 25.1)">
    <path d="M11.1 -13.4 L10.9 -6.4 Q-4.25 -6.2 -11.85 -9.85 -11.1 -19.15 -8.35 -24.1 M-12.05 21.45 Q-11.35 24.15 -8.35 25.75 -6.2 26.85 -2.95 27.45 L-1.35 27.65 3.15 27.1 Q7.65 25.6 8.65 20.3 L8.9 18.95 10.1 9.8 10.5 5.95 5.4 5.9 -0.7 5.4 -7.1 4.15 -12.65 2.4 -13.05 3.1 -13.1 5.15 -13.25 6.75 Q-13.6 12.9 -13.0 16.8 L-12.05 21.45" fill="none" stroke="#000000" stroke-linecap="round" stroke-linejoin="round" stroke-width="2.0"/>
  </g>
</svg>
