<?xml version="1.0" encoding="UTF-8" standalone="no"?>
<svg xmlns:xlink="http://www.w3.org/1999/xlink" height="52.05px" width="24.5px" xmlns="http://www.w3.org/2000/svg">
  <g transform="matrix(1.0, 0.0, 0.0, 1.0, 12.25, 26.0)">
    <path d="M11.65 -8.55 Q-3.3 -7.85 -10.2 -11.5 L-10.05 -15.15 Q-9.6 -21.8 -7.4 -25.75 -4.05 -26.85 4.65 -22.6 10.65 -18.95 12.05 -15.05 12.35 -13.55 12.25 -11.95 12.15 -10.3 11.65 -8.55 M-11.05 19.5 L-11.95 14.55 Q-12.7 9.3 -11.5 0.15 L-11.45 -0.7 -7.5 0.85 -4.35 1.55 Q3.15 3.5 11.4 2.1 10.8 11.2 9.9 16.8 L9.65 18.25 Q8.15 26.3 -0.4 26.05 -4.05 25.55 -6.45 24.5 -8.45 23.6 -9.55 22.25 -10.65 21.05 -11.05 19.5" fill="#3b4246" fill-rule="evenodd" stroke="none"/>
  </g>
</svg>
