<?xml version="1.0" encoding="UTF-8" standalone="no"?>
<svg xmlns:xlink="http://www.w3.org/1999/xlink" height="53.8px" width="26.5px" xmlns="http://www.w3.org/2000/svg">
  <g transform="matrix(1.0, 0.0, 0.0, 1.0, 14.2, 25.1)">
    <path d="M11.1 -13.4 Q11.4 -11.9 11.3 -10.3 11.2 -8.65 10.7 -6.9 -4.25 -6.2 -11.15 -9.85 L-11.0 -13.5 Q-10.55 -20.15 -8.35 -24.1 M-12.0 21.15 Q-11.6 22.7 -10.5 23.9 -9.4 25.25 -7.4 26.15 -5.0 27.2 -1.35 27.7 7.2 27.95 8.7 19.9 L8.95 18.45 Q9.85 12.85 10.45 3.75 2.2 5.15 -5.3 3.2 L-8.45 2.5 -12.4 0.95 -12.45 1.8 Q-13.65 10.95 -12.9 16.2 L-12.0 21.15" fill="none" stroke="#000000" stroke-linecap="round" stroke-linejoin="round" stroke-width="2.0"/>
  </g>
</svg>
