<?xml version="1.0" encoding="UTF-8" standalone="no"?>
<svg xmlns:xlink="http://www.w3.org/1999/xlink" height="53.5px" width="35.9px" xmlns="http://www.w3.org/2000/svg">
  <g transform="matrix(1.0, 0.0, 0.0, 1.0, 24.05, 25.1)">
    <path d="M-12.65 2.7 L-12.65 3.2 -12.75 4.1 -12.95 5.8 -12.85 4.95 -13.0 6.45 -13.15 7.95 -13.3 11.5 -13.3 11.8 -15.3 18.1 Q-17.35 16.35 -20.0 15.6 -22.7 14.85 -23.3 13.5 L-16.65 8.9 Q-17.65 9.15 -21.15 8.0 -21.55 5.4 -20.45 3.0 L-18.15 -2.1 Q-13.65 -0.95 -12.65 2.7" fill="url(#gradient0)" fill-rule="evenodd" stroke="none"/>
    <path d="M-15.05 1.4 Q-13.95 2.3 -15.35 2.25 -15.65 2.25 -15.6 1.9 L-15.05 1.4 M-18.05 5.55 L-17.8 5.7 -17.7 5.95 Q-17.9 6.45 -18.35 6.1 L-18.4 5.9 -18.35 5.75 -18.05 5.55 M-18.55 3.0 Q-18.4 3.0 -18.3 3.15 L-18.2 3.4 Q-18.4 3.9 -18.85 3.55 L-18.9 3.35 -18.85 3.2 Q-18.75 3.0 -18.55 3.0 M-15.8 3.9 L-15.55 4.05 -15.45 4.3 Q-15.65 4.8 -16.05 4.45 L-16.15 4.25 -16.1 4.1 -15.8 3.9 M-15.25 10.3 Q-15.1 10.3 -15.0 10.45 -14.9 10.55 -14.95 10.7 -15.1 11.2 -15.55 10.85 L-15.65 10.65 -15.55 10.5 Q-15.45 10.3 -15.25 10.3 M-16.75 13.65 Q-16.6 13.65 -16.5 13.8 L-16.4 14.05 Q-16.6 14.55 -17.0 14.2 L-17.1 14.0 -17.05 13.85 Q-16.95 13.65 -16.75 13.65 M-18.75 12.5 Q-18.6 12.5 -18.5 12.65 L-18.4 12.9 Q-18.6 13.4 -19.05 13.05 L-19.1 12.85 -19.05 12.7 -18.75 12.5" fill="#ffffff" fill-opacity="0.69803923" fill-rule="evenodd" stroke="none"/>
    <path d="M-17.4 0.55 Q-17.25 0.55 -17.15 0.7 -17.05 0.8 -17.1 0.95 -17.25 1.45 -17.7 1.1 L-17.8 0.9 -17.7 0.75 -17.4 0.55 M-16.45 5.55 Q-15.35 6.5 -16.8 6.3 -17.05 6.25 -16.95 5.95 -16.85 5.6 -16.45 5.55 M-16.9 11.15 Q-15.75 12.25 -17.3 11.9 L-17.4 11.55 Q-17.3 11.2 -16.9 11.15 M-16.05 15.05 Q-14.95 16.0 -16.4 15.8 -16.65 15.75 -16.55 15.45 -16.45 15.1 -16.05 15.05" fill="#ffffff" fill-opacity="0.29803923" fill-rule="evenodd" stroke="none"/>
    <path d="M10.9 -6.4 Q-4.25 -6.2 -11.85 -9.85 -11.1 -19.15 -8.35 -24.1 -4.15 -25.05 2.25 -22.25 8.95 -18.95 11.1 -13.35 L10.9 -6.4 M-12.65 2.7 L-12.65 3.2 -12.75 4.1 -12.95 5.8 -12.85 4.95 -13.0 6.45 -13.15 7.95 -13.3 11.5 -13.3 11.8 Q-13.35 14.65 -13.0 16.8 L-12.05 21.45 Q-10.75 26.5 -1.35 27.65 7.2 27.9 8.65 20.3 L8.9 18.95 10.2 10.45 10.7 7.7 10.85 4.45 Q-1.25 6.5 -12.65 2.4 L-12.65 2.7 Q-13.65 -0.95 -18.15 -2.1 L-20.45 3.0 Q-21.55 5.4 -21.15 8.0 -17.65 9.15 -16.65 8.9 L-12.95 5.8 M-16.65 8.9 L-23.3 13.5 Q-22.7 14.85 -20.0 15.6 -17.35 16.35 -15.3 18.1 L-13.3 11.8" fill="none" stroke="#000000" stroke-linecap="round" stroke-linejoin="round" stroke-width="1.5"/>
  </g>
  <defs>
    <linearGradient gradientTransform="matrix(-0.005, -0.0011, 0.0025, -0.0114, -17.25, 7.85)" gradientUnits="userSpaceOnUse" id="gradient0" spreadMethod="pad" x1="-819.2" x2="819.2">
      <stop offset="0.0" stop-color="#8574d0"/>
      <stop offset="0.5137254901960784" stop-color="#6a85d6"/>
      <stop offset="1.0" stop-color="#7dc0f0"/>
    </linearGradient>
  </defs>
</svg>
