<?xml version="1.0" encoding="UTF-8" standalone="no"?>
<svg xmlns:xlink="http://www.w3.org/1999/xlink" height="52.05px" width="24.85px" xmlns="http://www.w3.org/2000/svg">
  <g transform="matrix(1.0, 0.0, 0.0, 1.0, 12.45, 26.0)">
    <path d="M-10.75 19.85 L-11.7 15.2 Q-12.5 10.2 -12.45 7.8 L-12.15 5.6 Q-9.45 7.3 -4.25 8.05 L-0.75 2.6 1.55 8.55 3.85 8.6 5.2 8.55 7.6 2.85 9.65 7.95 11.35 7.25 Q11.05 12.05 10.2 17.35 L9.95 18.7 Q8.5 26.3 -0.05 26.05 -9.45 24.9 -10.75 19.85" fill="#3b4246" fill-rule="evenodd" stroke="none"/>
    <path d="M12.4 -15.0 L12.2 -8.0 Q-2.95 -7.8 -10.55 -11.45 -9.8 -20.75 -7.05 -25.7 -2.75 -26.65 3.0 -24.6 9.5 -21.05 12.4 -15.0" fill="#3f3f3f" fill-rule="evenodd" stroke="none"/>
  </g>
</svg>
