<?xml version="1.0" encoding="UTF-8" standalone="no"?>
<svg xmlns:xlink="http://www.w3.org/1999/xlink" height="54.05px" width="26.85px" xmlns="http://www.w3.org/2000/svg">
  <g transform="matrix(1.0, 0.0, 0.0, 1.0, 14.75, 25.4)">
    <path d="M11.1 -13.4 L10.9 -6.4 Q-4.25 -6.2 -11.85 -9.85 -11.1 -19.15 -8.35 -24.1 -4.05 -25.05 1.7 -23.0 8.2 -19.45 11.1 -13.4 M-12.05 21.45 Q-10.75 26.5 -1.35 27.65 7.2 27.9 8.65 20.3 L8.9 18.95 Q9.75 13.65 10.05 8.85 L8.35 9.55 6.3 4.45 3.9 10.15 2.55 10.2 0.25 10.15 -2.05 4.2 -5.55 9.65 Q-10.75 8.9 -13.45 7.2 L-13.75 9.4 Q-13.8 11.8 -13.0 16.8 L-12.05 21.45" fill="none" stroke="#000000" stroke-linecap="round" stroke-linejoin="round" stroke-width="2.0"/>
  </g>
</svg>
