<?xml version="1.0" encoding="UTF-8" standalone="no"?>
<svg xmlns:xlink="http://www.w3.org/1999/xlink" height="53.85px" width="25.75px" xmlns="http://www.w3.org/2000/svg">
  <g transform="matrix(1.0, 0.0, 0.0, 1.0, 13.85, 25.1)">
    <path d="M10.9 -14.6 L10.9 -6.4 Q-4.25 -6.2 -11.85 -9.85 -11.1 -19.15 -8.35 -24.1 M8.1 21.75 Q7.25 27.6 -0.95 27.75 -12.8 26.65 -12.85 19.5 L-12.8 11.25 -12.55 4.65 -12.35 -2.55 Q-8.2 0.1 1.7 0.85 8.45 1.0 10.65 -0.35 L9.8 7.25 9.2 13.6 8.1 21.75" fill="none" stroke="#000000" stroke-linecap="round" stroke-linejoin="round" stroke-width="2.0"/>
    <path d="M-12.8 11.25 Q-8.95 13.85 -1.25 14.2 L9.2 13.6 M-12.55 4.65 Q-1.45 8.9 9.8 7.25" fill="none" stroke="#000000" stroke-linecap="round" stroke-linejoin="round" stroke-width="1.0"/>
  </g>
</svg>
