<?xml version="1.0" encoding="UTF-8" standalone="no"?>
<svg xmlns:xlink="http://www.w3.org/1999/xlink" height="53.75px" width="26.5px" xmlns="http://www.w3.org/2000/svg">
  <g transform="matrix(1.0, 0.0, 0.0, 1.0, 14.4, 25.1)">
    <path d="M10.3 8.15 L10.1 10.05 8.9 18.95 8.8 19.55 8.9 18.95 10.1 9.8 10.3 8.15 M-12.75 0.45 L-12.8 0.4 -12.75 0.4 -12.75 0.45" fill="#3b4246" fill-rule="evenodd" stroke="none"/>
    <path d="M11.1 -13.4 L10.9 -6.4 10.5 5.95 10.5 6.0 10.3 8.15 10.1 9.8 8.9 18.95 8.8 19.55 8.75 19.7 8.65 20.3 Q7.2 27.9 -1.35 27.65 -10.75 26.5 -12.05 21.45 L-13.0 16.8 -13.25 14.7 Q-13.55 11.35 -13.25 6.75 L-13.1 5.15 -12.9 1.85 -12.9 1.5 -12.75 0.45 -12.75 0.4 Q-12.05 -6.3 -11.2 -9.55 L-11.85 -9.85 Q-11.5 -13.95 -10.8 -17.15 -10.1 -20.3 -9.1 -22.6 L-8.35 -24.1 M-12.8 0.4 L-12.75 0.4 M10.9 -6.4 Q-3.6 -6.2 -11.2 -9.55" fill="none" stroke="#000000" stroke-linecap="round" stroke-linejoin="round" stroke-width="2.0"/>
  </g>
</svg>
