<?xml version="1.0" encoding="UTF-8" standalone="no"?>
<svg xmlns:xlink="http://www.w3.org/1999/xlink" height="52.4px" width="24.25px" xmlns="http://www.w3.org/2000/svg">
  <g transform="matrix(1.0, 0.0, 0.0, 1.0, 12.15, 26.2)">
    <path d="M12.1 -15.2 L11.9 -8.2 Q-3.25 -8.0 -10.85 -11.65 -10.1 -20.95 -7.35 -25.9 -1.9 -27.25 5.3 -22.3 10.55 -18.65 12.1 -15.2 M-12.05 4.25 Q-11.9 7.55 -8.6 8.3 -5.35 9.05 -3.1 5.75 -2.5 8.6 1.35 8.85 5.2 9.05 6.75 5.9 7.95 8.15 11.65 9.15 11.05 15.4 9.35 21.0 6.6 26.55 -1.6 26.2 -8.75 25.65 -11.15 19.9 -12.4 12.45 -12.05 4.25" fill="#2d2d3a" fill-rule="evenodd" stroke="none"/>
  </g>
</svg>
