<?xml version="1.0" encoding="UTF-8" standalone="no"?>
<svg xmlns:xlink="http://www.w3.org/1999/xlink" height="54.1px" width="26.25px" xmlns="http://www.w3.org/2000/svg">
  <g transform="matrix(1.0, 0.0, 0.0, 1.0, 14.15, 25.1)">
    <path d="M1.5 3.75 Q-0.3 3.3 -0.95 2.65 -2.05 1.45 -1.5 -0.2 L2.95 -0.05 Q2.4 -1.05 2.85 -2.35 3.4 -3.3 5.1 -2.95 L7.1 -1.8 5.4 -0.85 Q8.65 0.4 6.7 2.8 L5.5 3.6 2.85 4.0 1.5 3.75" fill="#fff18a" fill-rule="evenodd" stroke="none"/>
    <path d="M1.5 3.75 L2.85 4.0 5.5 3.6 Q9.8 3.3 11.0 2.45 L10.95 6.55 10.65 10.95 Q10.05 17.2 8.35 22.8 5.6 28.35 -2.6 28.0 -9.75 27.45 -12.15 21.7 -13.4 14.25 -13.05 6.05 L-12.75 2.05 Q-8.0 3.8 0.65 3.75 L1.5 3.75 M11.1 -13.4 L10.9 -6.4 Q-4.25 -6.2 -11.85 -9.85 -11.1 -19.15 -8.35 -24.1" fill="none" stroke="#000000" stroke-linecap="round" stroke-linejoin="round" stroke-width="2.0"/>
    <path d="M5.5 3.6 L6.7 2.8 Q8.65 0.4 5.4 -0.85 L7.1 -1.8 5.1 -2.95 Q3.4 -3.3 2.85 -2.35 2.4 -1.05 2.95 -0.05 L-1.5 -0.2 Q-2.05 1.45 -0.95 2.65 -0.3 3.3 1.5 3.75" fill="none" stroke="#000000" stroke-linecap="round" stroke-linejoin="round" stroke-width="1.0"/>
    <path d="M-13.05 6.05 Q-12.9 9.35 -9.6 10.1 -6.35 10.85 -4.1 7.55 -3.5 10.4 0.35 10.65 4.2 10.85 5.75 7.7 6.95 9.95 10.65 10.95" fill="none" stroke="#000000" stroke-linecap="round" stroke-linejoin="round" stroke-width="1.5"/>
  </g>
</svg>
