<?xml version="1.0" encoding="UTF-8" standalone="no"?>
<svg xmlns:xlink="http://www.w3.org/1999/xlink" height="31.8px" width="30.15px" xmlns="http://www.w3.org/2000/svg">
  <g transform="matrix(1.0, 0.0, 0.0, 1.0, 16.1, 25.25)">
    <path d="M-8.5 -24.25 Q-11.1 -21.0 -11.85 -14.05 L-14.8 -9.85 -13.25 -5.9 -9.9 -6.45 Q-6.7 -6.95 1.25 -6.45 9.15 -5.95 12.25 -4.65 13.0 -5.3 13.05 -7.3 L12.2 -9.9 12.35 -8.15 M12.25 -4.65 L12.65 -4.5 Q13.25 -0.5 12.0 0.35 13.95 3.15 11.45 5.55 7.6 3.8 -0.85 3.7 L-14.1 4.5 Q-15.6 2.85 -14.9 1.05 L-14.0 -0.05 -14.8 -2.6 Q-15.05 -5.1 -13.25 -5.9 M11.7 -14.55 Q12.6 -11.95 12.2 -9.9" fill="none" stroke="#000000" stroke-linecap="round" stroke-linejoin="round" stroke-width="2.0"/>
  </g>
</svg>
