<?xml version="1.0" encoding="UTF-8" standalone="no"?>
<svg xmlns:xlink="http://www.w3.org/1999/xlink" height="22.65px" width="23.5px" xmlns="http://www.w3.org/2000/svg">
  <g transform="matrix(1.0, 0.0, 0.0, 1.0, 11.75, 11.35)">
    <path d="M-10.95 -8.9 L-10.2 -8.65 Q-9.75 -9.7 -8.9 -10.55 -8.2 -11.55 -7.8 -11.3 -7.25 -10.75 -7.15 -8.9 L-7.1 -7.95 Q-5.9 -7.65 -4.85 -7.0 -3.75 -6.4 -4.9 -5.5 -5.8 -4.7 -7.0 -4.15 -6.9 -2.8 -7.25 -1.2 -7.65 -0.1 -8.45 -0.8 L-10.15 -2.75 Q-10.95 -2.3 -11.75 -2.05 L-10.95 -8.9 M0.75 3.45 Q1.0 2.25 1.7 1.1 2.25 -0.1 2.85 0.05 3.65 0.45 4.4 2.35 L4.8 3.35 7.75 3.65 Q9.3 4.0 8.2 5.3 L6.15 7.25 Q6.65 8.65 6.8 10.35 6.65 11.65 5.5 11.15 L5.45 11.15 Q4.1 10.6 2.75 9.6 L1.4 10.5 0.05 11.2 Q-0.95 11.65 -1.2 10.4 -1.1 8.95 -0.6 7.15 -1.95 6.55 -2.75 5.3 L-3.2 4.5 Q-3.3 4.0 -2.85 3.9 -1.55 3.4 -0.3 3.4 L0.75 3.45 M11.75 -9.6 L11.5 -2.25 10.9 -2.7 8.9 -1.4 Q8.15 -1.0 7.95 -2.05 8.05 -3.2 8.45 -4.7 7.4 -5.2 6.85 -6.2 6.15 -7.15 6.75 -7.35 L9.45 -7.7 Q9.6 -8.7 10.15 -9.6 10.55 -10.6 11.0 -10.5 L11.75 -9.6" fill="#ffffff" fill-rule="evenodd" stroke="none"/>
  </g>
</svg>
