<?xml version="1.0" encoding="UTF-8" standalone="no"?>
<svg xmlns:xlink="http://www.w3.org/1999/xlink" height="54.55px" width="26.05px" xmlns="http://www.w3.org/2000/svg">
  <g transform="matrix(1.0, 0.0, 0.0, 1.0, 13.8, 25.6)">
    <path d="M10.3 -5.3 L11.25 -5.2 11.1 -13.35 Q10.25 -17.25 3.8 -21.15 -4.1 -25.45 -7.6 -24.4 0.1 -17.15 3.1 -10.8 7.3 -8.05 10.3 -5.3 -0.1 -6.5 -6.7 -8.45 -4.9 -4.45 -0.95 -0.2 L5.25 0.45 11.0 0.7 11.25 -5.2 M11.0 0.7 L10.4 6.9 9.75 11.35 Q9.5 16.5 8.8 20.2 L8.25 22.35 Q5.6 28.7 -1.85 27.85 -9.75 27.55 -11.5 22.1 -12.1 20.65 -12.4 18.8 -13.05 14.95 -12.45 9.25 L-12.55 9.2 -12.55 8.75 -12.8 3.9 -12.6 -3.05 -11.8 -9.85 -11.85 -9.85 -11.8 -10.4 Q-11.4 -14.8 -10.55 -18.2 -9.7 -21.7 -8.35 -24.1 L-7.6 -24.4 M3.1 -10.8 Q-1.15 -13.55 -6.6 -16.3 L-8.3 -9.0 -6.7 -8.45 M-10.55 -18.2 L-6.6 -16.3 M-11.8 -10.4 Q-10.25 -9.65 -8.3 -9.0 M-12.6 -3.05 Q-7.55 -1.15 -0.95 -0.2 M10.4 6.9 Q4.15 7.2 -0.85 6.75 L-4.05 6.4 -0.65 11.55 Q5.1 11.8 9.75 11.35 M-0.65 11.55 L-2.85 11.4 Q-9.8 10.95 -12.45 9.25 L-12.55 8.75 M-12.8 3.9 Q-9.15 5.6 -4.05 6.4 M8.8 20.2 Q-1.65 22.8 -12.4 18.8 M5.25 0.45 L-0.85 6.75" fill="none" stroke="#000000" stroke-linecap="round" stroke-linejoin="round" stroke-width="2.0"/>
  </g>
</svg>
