<?xml version="1.0" encoding="UTF-8" standalone="no"?>
<svg xmlns:xlink="http://www.w3.org/1999/xlink" height="55.0px" width="29.7px" xmlns="http://www.w3.org/2000/svg">
  <g transform="matrix(1.0, 0.0, 0.0, 1.0, 15.9, 25.8)">
    <path d="M-14.1 -9.0 Q-13.15 -6.9 -1.15 -6.6 10.85 -6.35 12.7 -7.45 13.1 -3.85 11.4 -3.1 L-2.15 -2.6 Q-13.95 -2.85 -14.65 -4.9 -15.4 -7.0 -14.1 -9.0 M10.15 10.05 Q7.0 11.65 -1.9 10.95 -10.85 10.2 -12.95 8.55 L-12.7 5.1 Q-10.9 6.9 0.1 7.75 7.7 8.25 10.45 6.85 L10.15 10.05" fill="#ffffff" fill-rule="evenodd" stroke="none"/>
    <path d="M12.7 -7.45 L12.1 -13.2 M-14.1 -9.0 Q-15.4 -7.0 -14.65 -4.9 -13.95 -2.85 -2.15 -2.6 L11.4 -3.1 Q13.1 -3.85 12.7 -7.45 10.85 -6.35 -1.15 -6.6 -13.15 -6.9 -14.1 -9.0 L-14.4 -9.4 Q-12.9 -18.7 -8.8 -24.8 M10.15 10.05 L10.45 6.85 10.55 4.85 Q5.65 6.85 -1.75 6.05 -9.2 5.2 -12.5 2.9 L-12.7 5.1 -12.95 8.55 Q-13.45 17.95 -11.85 22.4 -9.15 27.2 -1.45 28.15 5.55 28.55 7.7 22.75 9.3 18.25 10.15 10.05" fill="none" stroke="#000000" stroke-linecap="round" stroke-linejoin="round" stroke-width="2.0"/>
  </g>
</svg>
