<?xml version="1.0" encoding="UTF-8" standalone="no"?>
<svg xmlns:xlink="http://www.w3.org/1999/xlink" height="54.1px" width="26.55px" xmlns="http://www.w3.org/2000/svg">
  <g transform="matrix(1.0, 0.0, 0.0, 1.0, 14.45, 25.4)">
    <path d="M11.1 -13.4 L10.65 -9.25 Q-6.65 -8.55 -11.4 -11.35 -10.7 -22.35 -8.35 -24.1 -4.05 -25.05 1.7 -23.0 8.2 -19.45 11.1 -13.4 M-12.05 22.1 Q-10.75 26.7 -1.35 27.7 7.2 27.95 8.65 21.1 L8.9 19.85 9.45 16.4 10.35 7.1 9.65 7.3 8.2 4.45 5.8 7.0 2.7 7.2 -1.65 6.55 -4.4 3.25 -7.3 6.1 Q-11.4 5.55 -13.0 4.15 L-13.35 7.2 -13.45 11.55 -13.3 16.1 -13.1 17.6 -12.8 19.15 -12.05 22.1" fill="none" stroke="#000000" stroke-linecap="round" stroke-linejoin="round" stroke-width="2.0"/>
  </g>
</svg>
