<?xml version="1.0" encoding="UTF-8" standalone="no"?>
<svg xmlns:xlink="http://www.w3.org/1999/xlink" height="49.35px" width="24.15px" xmlns="http://www.w3.org/2000/svg">
  <g transform="matrix(1.0, 0.0, 0.0, 1.0, 12.4, 24.45)">
    <path d="M-4.35 21.25 Q-5.85 22.05 -6.75 23.35 L-7.65 24.9 -8.75 23.95 -9.2 23.4 -10.35 21.3 Q-11.6 18.4 -11.95 13.75 L-12.0 13.3 Q-12.4 8.45 -12.4 4.15 L-12.4 3.95 Q-12.5 -1.35 -12.05 -5.95 L-11.8 -9.35 -11.45 -14.7 -11.1 -19.45 -10.35 -24.45 -8.4 -24.1 -5.55 -23.45 1.0 -22.7 Q9.05 -22.15 11.75 -22.8 11.85 -19.65 11.0 -14.7 L10.95 -14.45 10.85 -14.0 10.15 -10.5 9.0 -4.65 8.0 1.6 7.55 5.05 7.4 6.15 Q6.95 11.7 6.95 14.0 L6.95 14.25 7.15 17.45 7.25 18.55 7.3 18.8 7.55 20.2 7.6 20.45 -0.95 20.2 Q-2.9 20.5 -4.35 21.25" fill="#434343" fill-rule="evenodd" stroke="none"/>
  </g>
</svg>
