<?xml version="1.0" encoding="UTF-8" standalone="no"?>
<svg xmlns:xlink="http://www.w3.org/1999/xlink" height="53.7px" width="26.05px" xmlns="http://www.w3.org/2000/svg">
  <g transform="matrix(1.0, 0.0, 0.0, 1.0, 12.65, 12.75)">
    <path d="M-9.25 -11.75 Q-10.2 -8.65 -10.35 -6.7 L-10.7 -1.95 -11.05 3.4 -11.3 6.8 Q-11.75 11.4 -11.65 16.7 L-11.65 16.9 Q-11.65 21.2 -11.25 26.05 L-11.2 26.5 Q-10.85 31.15 -9.6 34.05 L-8.45 36.15 -8.0 36.7 -6.9 37.65 -6.0 36.1 Q-5.1 34.8 -3.6 34.0 -2.15 33.25 -0.2 32.95 L8.35 33.2 8.3 32.95 8.05 31.55 8.0 31.3 7.9 30.2 7.7 27.0 7.7 26.75 Q7.7 24.45 8.15 18.9 L8.3 17.8 8.75 14.35 Q9.0 12.1 9.75 8.1 L10.9 2.25 11.6 -1.25 11.7 -1.7 11.75 -1.95 Q12.6 -6.9 12.3 -9.8 M-6.9 37.65 L-5.5 38.45 Q-3.25 39.45 0.3 39.8 L2.25 39.95 Q9.9 40.2 9.2 37.2 L8.8 35.35 8.35 33.2" fill="none" stroke="#000000" stroke-linecap="round" stroke-linejoin="round" stroke-width="2.0"/>
  </g>
</svg>
