<?xml version="1.0" encoding="UTF-8" standalone="no"?>
<svg xmlns:xlink="http://www.w3.org/1999/xlink" height="61.4px" width="91.2px" xmlns="http://www.w3.org/2000/svg">
  <g transform="matrix(1.0, 0.0, 0.0, 1.0, 37.15, 79.55)">
    <path d="M13.35 -52.3 Q15.4 -60.2 24.45 -69.55 33.5 -79.0 40.75 -78.55 L42.8 -76.7 Q54.2 -60.75 52.95 -44.85 46.55 -36.75 31.2 -37.5 25.3 -38.55 18.25 -41.75 14.4 -38.05 11.65 -39.9 9.6 -32.9 5.75 -28.25 -1.45 -19.55 -14.95 -19.15 L-16.7 -19.65 Q-35.6 -25.55 -36.15 -55.15 L-31.3 -56.5 Q-12.0 -60.95 6.3 -48.6 7.15 -50.75 13.35 -52.3 19.8 -47.45 18.25 -41.75 M6.3 -48.6 Q7.7 -40.65 11.65 -39.9" fill="none" stroke="#000000" stroke-linecap="round" stroke-linejoin="round" stroke-width="2.0"/>
  </g>
</svg>
