<?xml version="1.0" encoding="UTF-8" standalone="no"?>
<svg xmlns:xlink="http://www.w3.org/1999/xlink" height="50.8px" width="19.35px" xmlns="http://www.w3.org/2000/svg">
  <g transform="matrix(1.0, 0.0, 0.0, 1.0, 9.65, 25.4)">
    <path d="M-3.9 25.15 Q-6.15 23.1 -7.7 18.05 -9.4 12.05 -9.65 4.5 -8.95 -12.35 -7.25 -25.05 L-1.7 -24.55 -1.15 -24.5 Q-5.7 6.8 -3.35 15.1 -1.1 23.4 -0.2 25.4 L-1.2 25.35 -3.15 25.2 -3.9 25.15 M3.05 25.15 Q3.4 21.9 1.5 16.75 0.25 9.55 2.35 -6.8 L4.75 -24.45 Q7.9 -24.65 9.7 -25.4 L8.3 -16.55 8.25 -16.3 8.15 -15.85 7.45 -12.35 6.3 -6.5 5.3 -0.25 4.85 3.2 4.7 4.3 Q4.25 9.85 4.25 12.15 L4.25 12.4 4.45 15.6 4.55 16.7 4.6 16.95 4.85 18.35 5.35 20.75 5.75 22.6 Q6.2 24.6 3.05 25.15" fill="#8ee772" fill-rule="evenodd" stroke="none"/>
  </g>
</svg>
