<?xml version="1.0" encoding="UTF-8" standalone="no"?>
<svg xmlns:xlink="http://www.w3.org/1999/xlink" height="51.75px" width="23.9px" xmlns="http://www.w3.org/2000/svg">
  <g transform="matrix(1.0, 0.0, 0.0, 1.0, 11.95, 25.85)">
    <path d="M1.25 25.85 L-3.0 25.3 Q-6.65 24.5 -8.35 22.65 -10.95 19.65 -11.45 12.55 L-11.9 2.75 Q-12.05 -3.45 -11.4 -8.7 L-10.0 -20.85 Q-10.15 -22.35 -9.15 -24.9 L-6.55 -25.4 -2.95 -25.75 Q-0.4 -25.95 2.5 -25.8 9.45 -25.0 11.8 -23.1 12.25 -21.2 11.45 -17.5 8.7 -3.45 7.85 2.75 L7.6 4.95 Q7.15 10.45 7.15 12.75 7.1 14.95 7.5 17.55 7.85 20.1 8.65 23.1 9.25 25.95 2.6 25.9 L1.8 25.85 1.25 25.85" fill="#3b4246" fill-rule="evenodd" stroke="none"/>
  </g>
</svg>
