<?xml version="1.0" encoding="UTF-8" standalone="no"?>
<svg xmlns:xlink="http://www.w3.org/1999/xlink" height="52.8px" width="25.9px" xmlns="http://www.w3.org/2000/svg">
  <g transform="matrix(1.0, 0.0, 0.0, 1.0, 12.55, 11.85)">
    <path d="M-8.75 -10.85 Q-9.75 -8.3 -9.6 -6.8 L-11.0 5.35 Q-11.65 10.6 -11.5 16.8 L-11.05 26.6 Q-10.55 33.7 -7.95 36.7 -6.25 38.55 -2.6 39.35 L1.65 39.9 2.2 39.9 3.0 39.95 Q9.65 40.0 9.05 37.15 8.25 34.15 7.9 31.6 7.5 29.0 7.55 26.8 7.55 24.5 8.0 19.0 L8.25 16.8 Q9.1 10.6 11.85 -3.45 12.65 -7.15 12.2 -9.05" fill="none" stroke="#000000" stroke-linecap="round" stroke-linejoin="round" stroke-width="2.0"/>
  </g>
</svg>
