<?xml version="1.0" encoding="UTF-8" standalone="no"?>
<svg xmlns:xlink="http://www.w3.org/1999/xlink" height="23.95px" width="27.1px" xmlns="http://www.w3.org/2000/svg">
  <g transform="matrix(1.0, 0.0, 0.0, 1.0, 13.55, 12.0)">
    <path d="M-10.35 -2.05 Q-10.9 -6.55 -10.05 -11.05 -5.2 -12.5 2.15 -11.7 10.05 -11.1 13.3 -9.25 12.9 -3.4 11.75 -0.5 L12.15 -0.6 Q13.25 0.25 13.55 2.45 13.3 4.85 11.75 5.1 L12.95 7.7 Q12.1 10.45 9.55 10.7 -2.6 13.85 -11.15 9.2 -13.4 7.95 -13.55 6.5 -13.75 4.8 -12.15 3.05 L-12.75 0.65 Q-12.6 -1.0 -11.5 -2.45 L-10.35 -2.05" fill="#434343" fill-rule="evenodd" stroke="none"/>
  </g>
</svg>
