<?xml version="1.0" encoding="UTF-8" standalone="no"?>
<svg xmlns:xlink="http://www.w3.org/1999/xlink" height="52.8px" width="29.1px" xmlns="http://www.w3.org/2000/svg">
  <g transform="matrix(1.0, 0.0, 0.0, 1.0, 14.55, 12.05)">
    <path d="M-10.05 -11.05 Q-10.9 -6.55 -10.35 -2.05 0.55 1.3 11.75 -0.5 12.9 -3.4 13.3 -9.25 M-10.35 -2.05 L-11.5 -2.45 Q-12.6 -1.0 -12.75 0.65 L-12.15 3.05 Q-13.75 4.8 -13.55 6.5 -13.4 7.95 -11.15 9.2 -2.6 13.85 9.55 10.7 12.1 10.45 12.95 7.7 L11.75 5.1 Q13.3 4.85 13.55 2.45 13.25 0.25 12.15 -0.6 L11.75 -0.5 M-11.55 14.9 L-10.9 26.35 Q-10.4 33.55 -7.8 36.5 -5.2 39.4 2.2 39.7 9.65 40.0 9.0 37.0 8.25 34.0 7.85 31.4 7.45 28.8 7.5 26.55 7.5 24.3 7.95 18.75 L8.25 16.55 Q6.4 18.25 -1.0 18.05 -8.4 17.85 -11.55 14.9" fill="none" stroke="#000000" stroke-linecap="round" stroke-linejoin="round" stroke-width="2.0"/>
  </g>
</svg>
