<?xml version="1.0" encoding="UTF-8" standalone="no"?>
<svg xmlns:xlink="http://www.w3.org/1999/xlink" height="25.0px" width="29.1px" xmlns="http://www.w3.org/2000/svg">
  <g transform="matrix(1.0, 0.0, 0.0, 1.0, 14.55, 12.05)">
    <path d="M-10.05 -11.05 Q-10.9 -6.55 -10.35 -2.05 0.55 1.3 11.75 -0.5 12.9 -3.4 13.3 -9.25 M-10.35 -2.05 L-11.5 -2.45 Q-12.6 -1.0 -12.75 0.65 L-12.15 3.05 Q-13.75 4.8 -13.55 6.5 -13.4 7.95 -11.15 9.2 -2.6 13.85 9.55 10.7 12.1 10.45 12.95 7.7 L11.75 5.1 Q13.3 4.85 13.55 2.45 13.25 0.25 12.15 -0.6 L11.75 -0.5" fill="none" stroke="#000000" stroke-linecap="round" stroke-linejoin="round" stroke-width="2.0"/>
  </g>
</svg>
