<?xml version="1.0" encoding="UTF-8" standalone="no"?>
<svg xmlns:xlink="http://www.w3.org/1999/xlink" height="55.7px" width="29.1px" xmlns="http://www.w3.org/2000/svg">
  <g transform="matrix(1.0, 0.0, 0.0, 1.0, 13.45, 14.95)">
    <path d="M11.85 -3.05 Q13.4 -3.65 14.05 -5.35 L12.85 -7.55 Q14.4 -7.8 14.65 -9.8 14.35 -11.65 13.25 -12.35 L12.85 -12.3 Q1.65 -10.75 -9.25 -13.6 L-10.4 -13.95 Q-11.5 -12.7 -11.65 -11.25 L-11.05 -9.25 Q-12.65 -7.8 -12.45 -6.35 -12.3 -5.15 -10.2 -4.15 L-10.2 -4.2 Q-1.4 -0.2 10.65 -2.8 L11.85 -3.05 8.15 17.5 7.95 18.75 Q7.5 24.3 7.5 26.55 7.45 28.8 7.85 31.4 8.25 34.0 9.0 37.0 9.65 40.0 2.2 39.7 -5.2 39.4 -7.8 36.5 -10.4 33.55 -10.9 26.35 L-11.55 14.9 Q-11.3 4.7 -10.2 -4.15 L-10.05 -4.1 -10.2 -4.2" fill="none" stroke="#000000" stroke-linecap="round" stroke-linejoin="round" stroke-width="2.0"/>
  </g>
</svg>
