<?xml version="1.0" encoding="UTF-8" standalone="no"?>
<svg xmlns:xlink="http://www.w3.org/1999/xlink" height="33.9px" width="33.7px" xmlns="http://www.w3.org/2000/svg">
  <g transform="matrix(1.0, 0.0, 0.0, 1.0, 16.85, 11.45)">
    <path d="M10.75 6.15 Q14.25 3.85 15.85 1.55 15.35 -2.1 13.35 -5.35 L13.45 -8.7 M-11.55 4.7 Q-12.4 6.5 -11.55 8.85 -7.2 10.4 0.95 11.45 6.55 11.6 9.45 10.65 L10.05 10.4 Q11.3 8.45 10.75 6.15 M1.35 19.0 L8.15 20.85 8.6 14.45 8.75 14.3 9.25 13.7 9.45 10.65 M-10.05 -10.45 L-11.2 -7.5 Q-14.95 -3.55 -15.85 -0.2 -14.75 2.45 -11.55 4.7 M-11.8 15.55 L-11.65 19.3 Q-11.4 20.6 -9.15 21.45 L-3.1 20.35 1.35 19.0 M-11.55 8.85 L-11.8 15.55" fill="none" stroke="#000000" stroke-linecap="round" stroke-linejoin="round" stroke-width="2.0"/>
    <path d="M10.75 6.15 Q8.95 7.2 5.65 7.45 M-11.55 4.7 Q-8.75 5.8 -2.2 6.9" fill="none" stroke="#000000" stroke-linecap="round" stroke-linejoin="round" stroke-width="1.4000000000000001"/>
    <path d="M8.6 14.45 Q6.45 16.7 3.0 18.3 L1.35 19.0 M0.95 11.45 Q-3.1 13.75 -8.1 14.9 L-11.8 15.55" fill="none" stroke="#000000" stroke-linecap="round" stroke-linejoin="round" stroke-width="1.0"/>
  </g>
</svg>
