<?xml version="1.0" encoding="UTF-8" standalone="no"?>
<svg xmlns:xlink="http://www.w3.org/1999/xlink" height="50.5px" width="29.45px" xmlns="http://www.w3.org/2000/svg">
  <g transform="matrix(1.0, 0.0, 0.0, 1.0, 14.6, 12.05)">
    <path d="M6.6 3.4 Q5.2 5.45 -0.75 5.85 L9.6 7.35 Q12.35 6.3 13.3 2.5 13.25 1.15 12.0 -2.15 13.6 -4.15 13.85 -6.2 14.05 -8.3 12.55 -10.05 M-0.75 5.85 L-10.95 6.4 Q-12.25 17.25 -10.55 31.35 -9.25 36.4 -7.0 37.45 -5.15 33.2 2.05 32.25 7.5 32.0 8.25 33.7 7.45 31.15 7.55 25.3 7.65 19.45 9.6 7.35 M-10.05 -11.05 Q-12.0 -7.75 -12.45 -5.75 -12.6 -4.0 -11.7 -2.6 -13.15 -0.65 -13.6 1.3 -13.25 3.35 -10.95 6.4" fill="none" stroke="#000000" stroke-linecap="round" stroke-linejoin="round" stroke-width="2.0"/>
  </g>
</svg>
