<?xml version="1.0" encoding="UTF-8" standalone="no"?>
<svg xmlns:xlink="http://www.w3.org/1999/xlink" height="44.0px" width="41.3px" xmlns="http://www.w3.org/2000/svg">
  <g transform="matrix(1.0, 0.0, 0.0, 1.0, 27.6, 10.7)">
    <path d="M7.95 21.2 L7.65 22.45 7.95 21.2" fill="#ffff33" fill-rule="evenodd" stroke="none"/>
    <path d="M7.95 21.2 L8.35 16.9 Q11.65 2.7 12.65 -5.85 12.8 -7.4 12.1 -8.6 M-9.65 -9.7 Q-11.25 1.4 -12.1 15.45 L-12.2 18.9 -12.2 19.3 Q-16.0 14.45 -21.85 9.65 -20.7 18.35 -18.3 21.2 L-26.6 21.45 Q-21.2 26.95 -10.4 30.05 L-10.35 30.1 Q-2.35 33.2 6.85 31.9 L7.1 29.45 Q10.55 23.95 11.45 18.8 L7.95 21.2" fill="none" stroke="#000000" stroke-linecap="round" stroke-linejoin="round" stroke-width="2.0"/>
    <path d="M-12.2 19.3 L-12.3 21.15 Q-12.3 23.6 -11.85 25.6 L-14.1 23.15 M7.95 21.2 L7.65 22.45 6.85 25.55 M-12.2 18.9 L-12.2 19.3" fill="none" stroke="#000000" stroke-linecap="round" stroke-linejoin="round" stroke-width="1.0"/>
  </g>
</svg>
