<?xml version="1.0" encoding="UTF-8" standalone="no"?>
<svg xmlns:xlink="http://www.w3.org/1999/xlink" height="51.7px" width="29.15px" xmlns="http://www.w3.org/2000/svg">
  <g transform="matrix(1.0, 0.0, 0.0, 1.0, 15.45, 10.7)">
    <path d="M-9.65 -9.7 L-9.7 -9.25 Q-10.7 -2.2 -11.4 6.1 L-11.5 7.4 Q-11.85 15.0 -12.1 16.2 -12.7 18.75 -13.65 21.0 -12.8 22.7 -13.15 25.4 -14.4 28.8 -14.45 30.1 -11.45 30.5 -10.7 31.55 L-10.35 31.55 Q-0.65 34.45 6.85 31.9 L8.1 31.5 10.6 30.65 9.6 25.75 11.05 23.1 Q9.0 19.85 8.35 16.9 11.65 2.7 12.65 -5.85 12.8 -7.4 12.6 -8.8 M8.1 31.5 Q10.65 35.95 9.4 37.95 6.6 40.35 1.25 39.95 -4.1 39.55 -7.4 37.6 -10.7 35.65 -10.35 31.55" fill="none" stroke="#000000" stroke-linecap="round" stroke-linejoin="round" stroke-width="2.0"/>
  </g>
</svg>
