<?xml version="1.0" encoding="UTF-8" standalone="no"?>
<svg xmlns:xlink="http://www.w3.org/1999/xlink" height="52.25px" width="37.05px" xmlns="http://www.w3.org/2000/svg">
  <g transform="matrix(1.0, 0.0, 0.0, 1.0, 20.4, 11.45)">
    <path d="M-9.9 -10.45 L-14.85 8.95 Q-15.1 11.45 -14.75 13.25 -18.5 21.7 -19.2 25.9 L-19.4 28.45 Q-19.4 30.7 -18.65 33.15 L-18.0 34.95 Q-17.3 36.65 -12.85 37.65 -9.95 38.25 -7.45 36.7 -6.15 35.9 -5.0 34.45 -1.6 30.25 7.05 31.8 9.0 33.65 9.75 36.25 L9.9 36.8 Q14.0 38.2 15.6 35.2 L15.65 30.8 15.35 26.7 Q14.8 21.2 13.15 15.25 13.95 14.0 13.85 10.65 12.9 7.5 12.95 5.6 L13.05 -8.95 M9.75 36.25 Q9.65 39.1 6.1 39.75 -4.9 40.3 -7.45 36.7" fill="none" stroke="#000000" stroke-linecap="round" stroke-linejoin="round" stroke-width="2.0"/>
  </g>
</svg>
