<?xml version="1.0" encoding="UTF-8" standalone="no"?>
<svg xmlns:xlink="http://www.w3.org/1999/xlink" height="43.5px" width="22.7px" xmlns="http://www.w3.org/2000/svg">
  <g transform="matrix(1.0, 0.0, 0.0, 1.0, 11.35, 21.75)">
    <path d="M-10.4 -20.15 L-10.3 -21.7 Q-7.9 -21.5 -4.3 -21.75 -3.9 -20.3 -3.05 -19.2 0.1 -16.0 6.15 -11.9 9.4 -14.1 11.35 -16.55 L11.2 -15.95 10.05 -10.1 9.05 -3.85 8.6 -0.4 8.45 0.7 Q8.0 6.25 8.0 8.55 L8.0 8.8 8.2 12.0 8.3 13.1 8.35 13.35 8.6 14.75 8.65 15.0 9.1 17.15 9.5 19.0 Q10.2 22.0 2.55 21.75 L0.6 21.6 Q-2.95 21.25 -5.2 20.25 L-6.6 19.45 -7.7 18.5 -8.15 17.95 -9.3 15.85 Q-10.55 12.95 -10.9 8.3 L-10.95 7.85 Q-11.35 3.0 -11.35 -1.3 L-11.35 -1.5 Q-11.45 -6.8 -11.0 -11.4 L-10.75 -14.8 -10.4 -20.15" fill="#7e7e7e" fill-rule="evenodd" stroke="none"/>
  </g>
</svg>
