<?xml version="1.0" encoding="UTF-8" standalone="no"?>
<svg xmlns:xlink="http://www.w3.org/1999/xlink" height="60.8px" width="27.9px" xmlns="http://www.w3.org/2000/svg">
  <g transform="matrix(1.0, 0.0, 0.0, 1.0, 12.85, 19.85)">
    <path d="M-10.1 -10.15 L-10.05 -10.8 Q-8.45 -12.0 -4.55 -12.2 L-4.75 -11.0 -10.1 -10.15" fill="#7e7e7e" fill-rule="evenodd" stroke="none"/>
    <path d="M-10.6 -3.5 L-11.7 -3.65 Q-12.25 -7.35 -11.0 -10.05 L-10.1 -10.15 -4.75 -11.0 -5.0 -9.5 Q-5.35 -6.0 -4.6 -3.55 -8.2 -3.3 -10.6 -3.5" fill="#000000" fill-opacity="0.32941177" fill-rule="evenodd" stroke="none"/>
    <path d="M-4.55 -12.2 Q-3.7 -15.9 0.55 -17.8 5.45 -20.05 9.7 -17.55 13.8 -14.1 14.05 -8.85 13.9 -4.5 12.45 -0.6 L11.05 1.65 10.9 2.25 9.75 8.1 Q9.0 12.1 8.75 14.35 L8.3 17.8 8.15 18.9 Q7.7 24.45 7.7 26.75 L7.7 27.0 7.9 30.2 8.0 31.3 8.05 31.55 8.3 32.95 8.35 33.2 8.8 35.35 9.2 37.2 Q9.9 40.2 2.25 39.95 L0.3 39.8 Q-3.25 39.45 -5.5 38.45 L-6.9 37.65 -8.0 36.7 -8.45 36.15 -9.6 34.05 Q-10.85 31.15 -11.2 26.5 L-11.25 26.05 Q-11.65 21.2 -11.65 16.9 L-11.65 16.7 Q-11.75 11.4 -11.3 6.8 L-11.05 3.4 -10.7 -1.95 -10.6 -3.5 -11.7 -3.65 Q-12.25 -7.35 -11.0 -10.05 L-10.1 -10.15 -10.05 -10.8 M-4.55 -12.2 L-4.75 -11.0 -5.0 -9.5 Q-5.35 -6.0 -4.6 -3.55 -4.2 -2.1 -3.35 -1.0 -0.2 2.2 5.85 6.3 9.1 4.1 11.05 1.65 M6.2 -0.45 Q1.1 -2.35 -0.15 -7.8 0.0 -10.35 1.15 -12.0 2.65 -14.2 5.8 -14.85 9.25 -13.7 10.6 -10.05 L11.15 -7.75 Q9.9 -2.35 6.2 -0.45 M-4.75 -11.0 L-10.1 -10.15 M-10.6 -3.5 Q-8.2 -3.3 -4.6 -3.55" fill="none" stroke="#000000" stroke-linecap="round" stroke-linejoin="round" stroke-width="2.0"/>
  </g>
</svg>
