<?xml version="1.0" encoding="UTF-8" standalone="no"?>
<svg xmlns:xlink="http://www.w3.org/1999/xlink" height="51.8px" width="28.75px" xmlns="http://www.w3.org/2000/svg">
  <g transform="matrix(1.0, 0.0, 0.0, 1.0, 14.75, 10.8)">
    <path d="M8.5 14.3 L9.9 13.7 Q11.05 13.05 11.6 12.1 11.9 7.35 11.35 2.6 L11.9 0.25 12.8 -4.45 Q13.15 -6.9 12.9 -8.9 M9.9 13.7 Q10.7 14.55 10.75 15.35 10.05 17.35 7.9 19.3 L7.7 30.0 Q10.65 35.95 9.4 37.95 6.6 40.35 1.25 39.95 -4.1 39.55 -7.4 37.6 -10.7 35.65 -11.2 29.85 L-11.2 17.8 Q-13.95 15.85 -13.75 14.65 L-11.75 10.75 -11.75 10.7 Q-13.7 8.35 -13.55 6.35 L-10.85 0.15 -9.9 -9.8 M-11.75 10.75 L-11.0 12.6 M-11.2 17.8 Q-3.5 20.2 7.9 19.3" fill="none" stroke="#000000" stroke-linecap="round" stroke-linejoin="round" stroke-width="2.0"/>
  </g>
</svg>
