<?xml version="1.0" encoding="UTF-8" standalone="no"?>
<svg xmlns:xlink="http://www.w3.org/1999/xlink" height="44.9px" width="23.8px" xmlns="http://www.w3.org/2000/svg">
  <g transform="matrix(1.0, 0.0, 0.0, 1.0, 11.9, 22.45)">
    <path d="M-10.9 14.35 Q0.5 17.1 7.6 13.8 L7.6 13.85 7.7 14.95 7.75 15.2 8.0 16.6 8.45 18.9 Q3.65 16.25 -4.85 22.45 L-5.8 22.1 Q-7.35 21.35 -8.3 20.35 L-8.75 19.8 -9.9 17.7 Q-10.5 16.25 -10.9 14.35 M-11.9 2.05 Q-1.45 5.2 7.85 2.55 L7.5 7.85 Q-2.75 11.55 -11.7 7.75 L-11.9 2.05 M-10.3 -22.45 Q3.2 -20.05 11.9 -21.0 L11.45 -18.3 11.4 -18.05 11.3 -17.6 10.9 -15.65 Q-0.35 -13.85 -10.8 -17.05 L-10.6 -19.1 -10.35 -22.15 -10.3 -22.45 M-11.5 -10.55 Q-1.45 -7.7 9.7 -9.4 L9.45 -8.25 8.65 -3.5 Q-0.25 -1.1 -11.9 -4.0 L-11.6 -9.55 -11.5 -10.55" fill="#2a2020" fill-rule="evenodd" stroke="none"/>
  </g>
</svg>
