<?xml version="1.0" encoding="UTF-8" standalone="no"?>
<svg xmlns:xlink="http://www.w3.org/1999/xlink" height="51.2px" width="24.4px" xmlns="http://www.w3.org/2000/svg">
  <g transform="matrix(1.0, 0.0, 0.0, 1.0, 12.2, 25.6)">
    <path d="M-5.1 24.45 Q3.4 18.25 8.2 20.9 L8.25 21.0 8.65 22.85 Q9.35 25.85 1.7 25.6 L-0.25 25.45 Q-3.1 25.15 -5.1 24.45 M-11.95 9.75 Q-3.0 13.55 7.25 9.85 L7.15 12.4 7.15 12.65 7.35 15.8 Q0.25 19.1 -11.15 16.35 L-11.75 12.15 -11.8 11.7 -11.95 9.75 M-12.15 -2.0 Q-0.5 0.9 8.4 -1.5 L8.2 0.0 7.75 3.45 7.6 4.55 Q-1.7 7.2 -12.15 4.05 L-12.2 2.55 -12.2 2.35 -12.15 -2.0 M-11.05 -15.05 Q-0.6 -11.85 10.65 -13.65 L10.35 -12.1 9.45 -7.4 Q-1.7 -5.7 -11.75 -8.55 L-11.7 -9.25 -11.05 -15.05 M-9.9 -25.6 Q3.05 -23.0 12.2 -24.7 12.1 -21.75 11.65 -19.0 2.95 -18.05 -10.55 -20.45 -10.4 -23.2 -9.9 -25.6" fill="#9f7b7b" fill-rule="evenodd" stroke="none"/>
  </g>
</svg>
