<?xml version="1.0" encoding="UTF-8" standalone="no"?>
<svg xmlns:xlink="http://www.w3.org/1999/xlink" height="272.75px" width="158.5px" xmlns="http://www.w3.org/2000/svg">
  <g transform="matrix(1.0, 0.0, 0.0, 1.0, 79.25, 136.35)">
    <path d="M-11.1 -93.5 L-10.45 -94.1 -10.25 -93.7 -11.1 -93.5" fill="#467ca1" fill-rule="evenodd" stroke="none"/>
    <path d="M54.15 -101.6 Q51.05 -103.75 47.3 -105.65 29.9 -112.7 15.65 -111.55 L15.15 -111.5 9.4 -110.65 Q-27.45 -100.85 -51.2 -74.75 -33.85 -87.05 -11.1 -93.5 L-10.45 -94.1 M-10.25 -93.7 L-11.1 -93.5 Q-31.0 -84.4 -40.2 -71.45 -51.9 -57.0 -78.25 -52.35 -54.0 -46.25 -35.8 -58.25 -33.2 -59.95 -30.75 -62.05 M62.05 -115.35 Q51.3 -126.3 29.9 -135.35 46.15 -120.45 49.25 -109.1 L52.3 -107.55 M77.55 -80.1 Q82.6 -59.1 52.05 -49.95 37.95 -26.55 35.3 36.5 35.4 53.55 28.4 71.5 21.4 89.45 16.0 105.65 12.0 84.6 15.2 60.6 L14.55 64.2 Q8.2 97.8 12.15 111.8 0.4 96.15 0.05 72.9 -0.3 108.05 8.7 135.4 -17.25 97.0 -19.05 62.05 -18.9 85.85 -9.5 105.3 -44.7 68.05 -37.9 23.95 -43.1 37.4 -52.75 43.45 -47.85 28.65 -45.9 0.15 -47.25 -18.0 -39.4 -33.85 -54.1 -14.8 -63.25 2.9 -56.9 -38.55 -35.8 -58.25 M15.2 60.6 L15.25 60.35 Q17.3 48.7 18.05 39.65 19.15 25.0 16.8 17.2 M0.05 72.9 L0.05 71.4 0.05 71.3 Q0.15 65.05 0.55 58.5 M-8.35 -27.65 Q-12.25 4.05 9.05 38.05 5.7 7.4 14.05 -35.0 M-39.4 -33.85 L-33.9 -40.8 M-8.35 -78.25 Q-28.8 -54.55 -30.9 -30.25 -33.05 -5.95 -18.4 16.4 -25.05 -14.2 -6.75 -44.6 M-37.9 23.95 Q-36.45 20.1 -35.35 15.65 M-19.05 62.05 Q-19.2 47.9 -16.05 32.25 M-7.55 -94.45 Q5.65 -97.9 20.65 -99.45 M15.15 -111.5 L-6.2 -111.5 Q29.45 -125.4 49.25 -109.1" fill="none" stroke="#000000" stroke-linecap="round" stroke-linejoin="round" stroke-width="2.0"/>
  </g>
</svg>
