<?xml version="1.0" encoding="UTF-8" standalone="no"?>
<svg xmlns:xlink="http://www.w3.org/1999/xlink" height="53.2px" width="26.4px" xmlns="http://www.w3.org/2000/svg">
  <g transform="matrix(1.0, 0.0, 0.0, 1.0, 12.65, 12.25)">
    <path d="M12.2 -4.65 Q12.65 -7.4 12.75 -10.35 M11.2 0.7 L11.6 -1.25 11.7 -1.7 11.75 -1.95 12.2 -4.65 M-10.0 -6.1 L-10.05 -5.8 -10.3 -2.75 -10.5 -0.7 -11.15 5.1 -11.2 5.8 -11.3 6.8 -11.6 12.35 -11.65 16.7 -11.65 16.9 -11.6 18.4 -11.4 24.1 -11.25 26.05 -11.2 26.5 -10.6 30.7 -9.6 34.05 -8.45 36.15 -8.0 36.7 -5.5 38.45 -4.55 38.8 Q-2.55 39.5 0.3 39.8 L2.25 39.95 Q9.9 40.2 9.2 37.2 L8.8 35.35 8.75 35.25 8.3 32.95 8.05 31.55 8.0 31.3 7.9 30.2 7.9 30.15 7.7 27.0 7.7 26.75 7.8 24.2 8.15 18.9 8.3 17.8 8.75 14.35 8.95 12.85 9.75 8.1 10.0 6.95 10.9 2.25 11.2 0.7 M-9.35 -11.25 Q-9.85 -8.85 -10.0 -6.1" fill="none" stroke="#000000" stroke-linecap="round" stroke-linejoin="round" stroke-width="2.0"/>
    <path d="M12.2 -4.65 Q3.5 -3.7 -10.0 -6.1 M-10.5 -0.7 Q-0.05 2.5 11.2 0.7 M-11.2 5.8 Q-1.15 8.65 10.0 6.95 M-4.55 38.8 Q3.95 32.6 8.75 35.25 M-10.6 30.7 Q0.8 33.45 7.9 30.15 M-11.4 24.1 Q-2.45 27.9 7.8 24.2 M-11.6 18.4 Q-1.15 21.55 8.15 18.9 M-11.6 12.35 Q0.05 15.25 8.95 12.85" fill="none" stroke="#000000" stroke-linecap="round" stroke-linejoin="round" stroke-width="1.0"/>
  </g>
</svg>
