<?xml version="1.0" encoding="UTF-8" standalone="no"?>
<svg xmlns:xlink="http://www.w3.org/1999/xlink" height="33.0px" width="21.6px" xmlns="http://www.w3.org/2000/svg">
  <g transform="matrix(1.0, 0.0, 0.0, 1.0, 10.8, 16.5)">
    <path d="M-10.8 -3.9 Q-0.35 -0.75 8.95 -3.4 L8.6 1.9 Q-1.65 5.6 -10.6 1.8 L-10.8 -3.9 M-9.8 8.4 Q1.6 11.15 8.7 7.85 L8.7 7.9 8.8 9.0 8.85 9.25 9.1 10.65 9.55 12.95 Q4.75 10.3 -3.75 16.5 L-4.7 16.15 -7.2 14.4 -7.65 13.85 -8.8 11.75 -9.8 8.4 M-10.4 -16.5 Q-0.35 -13.65 10.8 -15.35 L10.55 -14.2 9.75 -9.45 Q0.85 -7.05 -10.8 -9.95 L-10.5 -15.5 -10.4 -16.5" fill="#2a2020" fill-rule="evenodd" stroke="none"/>
  </g>
</svg>
