<?xml version="1.0" encoding="UTF-8" standalone="no"?>
<svg xmlns:xlink="http://www.w3.org/1999/xlink" height="40.65px" width="22.85px" xmlns="http://www.w3.org/2000/svg">
  <g transform="matrix(1.0, 0.0, 0.0, 1.0, 11.45, 20.3)">
    <path d="M-4.35 19.2 Q4.15 13.0 8.95 15.65 L9.0 15.75 9.4 17.6 Q10.1 20.6 2.45 20.35 L0.5 20.2 -4.35 19.2 M-11.2 4.5 Q-2.25 8.3 8.0 4.6 L7.9 7.15 7.9 7.4 8.1 10.55 Q1.0 13.85 -10.4 11.1 L-11.0 6.9 -11.05 6.45 -11.2 4.5 M-11.4 -7.25 Q0.25 -4.35 9.15 -6.75 L8.95 -5.25 8.5 -1.8 8.35 -0.7 Q-0.95 1.95 -11.4 -1.2 L-11.45 -2.7 -11.45 -2.9 -11.4 -7.25 M-10.95 -14.5 L-10.3 -20.3 Q0.15 -17.1 11.4 -18.9 L11.1 -17.35 10.2 -12.65 Q-0.95 -10.95 -11.0 -13.8 L-10.95 -14.5" fill="#9f7b7b" fill-rule="evenodd" stroke="none"/>
  </g>
</svg>
