<?xml version="1.0" encoding="UTF-8" standalone="no"?>
<svg xmlns:xlink="http://www.w3.org/1999/xlink" height="41.5px" width="23.1px" xmlns="http://www.w3.org/2000/svg">
  <g transform="matrix(1.0, 0.0, 0.0, 1.0, 11.55, 20.75)">
    <path d="M10.5 -14.35 L10.1 -12.25 9.85 -11.1 9.05 -6.35 8.85 -4.85 8.4 -1.4 8.25 -0.3 7.9 5.0 8.15 12.3 8.15 12.35 8.4 13.75 8.85 16.05 8.9 16.15 9.3 18.0 Q10.0 21.0 2.35 20.75 L0.4 20.6 Q-2.45 20.3 -4.45 19.6 L-5.4 19.25 -7.9 17.5 -8.35 16.95 -9.5 14.85 -10.5 11.5 -11.1 7.3 -11.15 6.85 -11.3 4.9 -11.5 -0.8 -11.55 -2.3 -11.55 -2.5 -11.5 -6.85 -11.2 -12.4 -11.1 -13.4 -11.05 -14.1 -10.8 -15.85 -9.85 -20.75 Q3.35 -17.45 11.55 -19.75 L11.0 -16.95 10.5 -14.35" fill="#ffffff" fill-rule="evenodd" stroke="none"/>
  </g>
</svg>
