<?xml version="1.0" encoding="UTF-8" standalone="no"?>
<svg xmlns:xlink="http://www.w3.org/1999/xlink" height="43.5px" width="25.1px" xmlns="http://www.w3.org/2000/svg">
  <g transform="matrix(1.0, 0.0, 0.0, 1.0, 12.65, 2.55)">
    <path d="M-11.15 5.1 L-11.2 5.8 -11.3 6.8 -11.6 12.35 -11.65 16.7 -11.65 16.9 -11.6 18.4 -11.4 24.1 -11.25 26.05 -11.2 26.5 -10.6 30.7 -9.6 34.05 -8.45 36.15 -8.0 36.7 -5.5 38.45 -4.55 38.8 Q-2.55 39.5 0.3 39.8 L2.25 39.95 Q9.9 40.2 9.2 37.2 L8.8 35.35 8.75 35.25 8.3 32.95 8.05 31.55 8.05 31.5 7.8 24.2 8.15 18.9 8.3 17.8 8.75 14.35 8.95 12.85 9.75 8.1 10.0 6.95 10.4 4.85 10.9 2.25 11.45 -0.55 Q3.25 1.75 -9.95 -1.55 L-10.9 3.35 -11.15 5.1 Z" fill="none" stroke="#000000" stroke-linecap="round" stroke-linejoin="round" stroke-width="2.0"/>
  </g>
</svg>
