<?xml version="1.0" encoding="UTF-8" standalone="no"?>
<svg xmlns:xlink="http://www.w3.org/1999/xlink" height="43.65px" width="15.8px" xmlns="http://www.w3.org/2000/svg">
  <g transform="matrix(1.0, 0.0, 0.0, 1.0, 7.9, 21.8)">
    <path d="M-3.5 -21.5 Q-6.55 2.15 -5.65 8.45 L-5.3 10.4 -5.3 10.45 Q-4.45 15.05 -3.1 17.05 -1.55 19.45 -1.1 21.85 L-2.05 21.75 -3.4 21.6 Q-3.05 20.25 -5.05 17.35 -6.5 15.25 -7.3 10.45 L-7.3 10.4 -7.8 6.2 Q-8.4 -2.35 -5.55 -21.75 L-5.5 -21.75 -4.45 -21.6 -3.5 -21.5 M7.9 -21.8 Q4.5 -3.25 4.2 5.2 L4.15 10.4 4.15 10.45 Q4.25 14.35 4.95 16.0 6.0 18.55 5.5 21.35 L3.75 21.75 Q4.15 19.05 3.15 16.55 2.45 14.8 2.35 10.45 L2.35 10.4 2.35 5.75 Q2.7 -2.7 6.25 -21.55 L7.9 -21.8" fill="#f6e0ff" fill-rule="evenodd" stroke="none"/>
  </g>
</svg>
