<?xml version="1.0" encoding="UTF-8" standalone="no"?>
<svg xmlns:xlink="http://www.w3.org/1999/xlink" height="51.8px" width="25.85px" xmlns="http://www.w3.org/2000/svg">
  <g transform="matrix(1.0, 0.0, 0.0, 1.0, 12.55, 10.85)">
    <path d="M6.75 -3.35 L8.6 -3.5 10.25 -3.75 Q11.85 -4.15 12.3 -4.85 L11.95 -3.05 11.9 -2.8 11.8 -2.35 11.1 1.3 9.9 7.35 Q9.1 11.5 8.85 13.85 L8.35 17.45 8.2 18.6 Q7.7 24.35 7.7 26.75 L7.7 27.0 7.75 28.5 Q7.75 29.35 7.9 30.2 L8.0 31.3 8.05 31.55 8.3 32.95 8.8 35.35 9.2 37.2 Q9.55 38.7 7.85 39.4 L6.1 39.8 2.25 39.95 1.25 39.9 0.3 39.8 -1.05 39.65 -2.0 39.5 -5.5 38.45 -8.0 36.7 -8.45 36.15 -9.6 34.05 Q-10.55 31.8 -11.0 28.5 L-11.2 26.45 -11.25 26.0 Q-11.6 20.95 -11.55 16.5 L-11.55 16.3 Q-11.65 10.8 -11.15 6.0 L-11.0 4.25 -10.1 -3.9 -9.9 -5.6 Q-7.75 -4.4 -4.15 -3.85 L-3.2 -3.7 -3.15 -3.7 -2.1 -3.55 -1.15 -3.45 2.15 -3.3 2.7 -3.3 Q5.0 -3.25 6.75 -3.35" fill="none" stroke="#000000" stroke-linecap="round" stroke-linejoin="round" stroke-width="2.0"/>
    <path d="M2.15 -3.3 Q2.85 -5.95 3.05 -10.1 M7.5 -9.65 Q7.6 -5.95 6.75 -3.35 Z" fill="none" stroke="#000000" stroke-linecap="round" stroke-linejoin="round" stroke-width="1.5"/>
    <path d="M3.65 -5.15 L3.6 -2.55 3.65 -5.15 Q4.85 -5.75 6.35 -5.15 8.85 -7.15 10.15 -6.45 11.3 -3.5 10.0 -1.1 7.8 -1.2 6.5 -2.8 4.95 -1.8 3.6 -2.55 -0.05 -0.05 -0.85 -1.15 -1.65 -2.3 -1.4 -4.55 -1.2 -6.8 0.65 -6.75 2.9 -5.95 3.65 -5.15 M6.35 -5.15 L6.5 -2.8 6.35 -5.15" fill="#ffffff" fill-rule="evenodd" stroke="none"/>
    <path d="M3.6 -2.55 L3.65 -5.15 Q2.9 -5.95 0.65 -6.75 -1.2 -6.8 -1.4 -4.55 -1.65 -2.3 -0.85 -1.15 -0.05 -0.05 3.6 -2.55 4.95 -1.8 6.5 -2.8 L6.35 -5.15 Q4.85 -5.75 3.65 -5.15 M6.35 -5.15 Q8.85 -7.15 10.15 -6.45 11.3 -3.5 10.0 -1.1 7.8 -1.2 6.5 -2.8" fill="none" stroke="#000000" stroke-linecap="round" stroke-linejoin="round" stroke-width="1.0"/>
  </g>
</svg>
