<?xml version="1.0" encoding="UTF-8" standalone="no"?>
<svg xmlns:xlink="http://www.w3.org/1999/xlink" height="65.6px" width="94.2px" xmlns="http://www.w3.org/2000/svg">
  <g transform="matrix(1.0, 0.0, 0.0, 1.0, 44.2, 107.75)">
    <path d="M13.8 -62.5 Q15.3 -64.65 19.3 -64.5 26.2 -52.4 23.2 -44.1 15.15 -49.3 13.8 -62.5" fill="#333333" fill-rule="evenodd" stroke="none"/>
    <path d="M13.8 -62.5 Q15.3 -64.65 19.3 -64.5 18.4 -74.65 21.4 -83.35 23.95 -90.8 29.3 -97.1 33.7 -102.3 39.95 -106.75 55.2 -79.6 44.8 -61.85 38.55 -51.3 23.2 -44.1 -23.7 -37.55 -43.0 -75.45 L-43.2 -75.85 -40.3 -76.2 Q-6.5 -79.95 13.8 -62.5 15.15 -49.3 23.2 -44.1 26.2 -52.4 19.3 -64.5 M23.65 -57.0 Q24.25 -66.6 29.85 -75.7 L33.55 -81.0 M14.3 -54.45 Q6.8 -61.5 -11.7 -60.95" fill="none" stroke="#000000" stroke-linecap="round" stroke-linejoin="round" stroke-width="2.0"/>
  </g>
</svg>
