<?xml version="1.0" encoding="UTF-8" standalone="no"?>
<svg xmlns:xlink="http://www.w3.org/1999/xlink" height="52.1px" width="28.4px" xmlns="http://www.w3.org/2000/svg">
  <g transform="matrix(1.0, 0.0, 0.0, 1.0, 14.7, 10.75)">
    <path d="M9.5 26.55 L10.35 26.0 9.45 16.45 Q11.65 2.7 12.65 -5.85 12.8 -7.4 12.1 -8.6 M9.5 26.55 Q10.45 29.2 9.0 30.25 L9.4 31.45 9.6 31.9 Q11.15 36.25 10.05 38.0 7.05 40.6 1.2 40.35 -4.7 40.1 -7.8 38.0 -10.45 36.2 -11.05 31.35 -13.75 30.4 -13.7 28.75 -13.65 27.1 -12.1 24.8 L-12.9 21.85 Q-12.35 19.2 -12.1 15.45 -11.25 1.35 -9.65 -9.75 M-11.05 31.35 L-11.2 29.6 Q-0.7 32.55 9.0 30.25" fill="none" stroke="#000000" stroke-linecap="round" stroke-linejoin="round" stroke-width="2.0"/>
    <path d="M0.75 27.9 Q6.15 28.45 9.5 26.55 M-12.1 24.8 L1.1 25.4 M-5.15 19.45 Q-0.5 21.2 6.4 21.3" fill="none" stroke="#000000" stroke-linecap="round" stroke-linejoin="round" stroke-opacity="0.6" stroke-width="1.5"/>
  </g>
</svg>
