<?xml version="1.0" encoding="UTF-8" standalone="no"?>
<svg xmlns:xlink="http://www.w3.org/1999/xlink" height="46.3px" width="23.9px" xmlns="http://www.w3.org/2000/svg">
  <g transform="matrix(1.0, 0.0, 0.0, 1.0, 11.95, 23.15)">
    <path d="M-9.8 -23.15 Q-6.45 -22.1 -3.1 -22.2 3.4 -22.75 7.15 -22.2 L11.95 -21.65 11.1 -17.1 10.6 -14.55 10.2 -12.55 10.1 -11.9 9.45 -8.7 8.45 -2.45 8.0 1.0 7.85 2.1 Q7.4 7.65 7.4 9.95 L7.4 10.2 7.6 13.4 7.7 14.5 7.75 14.75 8.0 16.15 8.5 18.55 8.9 20.4 Q9.6 23.4 1.95 23.15 L0.0 23.0 Q-3.55 22.65 -5.8 21.65 -7.35 20.9 -8.3 19.9 L-8.75 19.35 -9.9 17.25 Q-11.15 14.35 -11.5 9.7 L-11.55 9.25 Q-11.95 4.4 -11.95 0.1 L-11.95 -0.1 Q-12.05 -5.4 -11.6 -10.0 L-11.45 -11.7 -11.15 -14.4 -11.1 -14.6 -10.5 -19.05 -9.8 -23.15" fill="#4d3f3c" fill-rule="evenodd" stroke="none"/>
  </g>
</svg>
