<?xml version="1.0" encoding="UTF-8" standalone="no"?>
<svg xmlns:xlink="http://www.w3.org/1999/xlink" height="53.5px" width="24.45px" xmlns="http://www.w3.org/2000/svg">
  <g transform="matrix(1.0, 0.0, 0.0, 1.0, 12.2, 26.75)">
    <path d="M-10.0 -25.35 Q-6.9 -27.65 5.15 -26.2 12.3 -25.2 12.25 -24.0 12.05 -20.1 11.2 -15.15 L11.15 -14.9 11.05 -14.45 10.35 -10.95 10.25 -10.45 9.2 -5.1 8.8 -2.85 8.2 1.15 7.75 4.6 7.6 5.7 7.45 7.8 7.35 9.6 7.15 13.55 7.15 13.8 7.35 17.0 7.45 18.1 7.5 18.35 7.75 19.75 8.2 21.95 8.25 22.15 8.65 24.0 Q9.35 27.0 1.7 26.75 L0.5 26.7 -0.25 26.6 Q-3.8 26.25 -6.05 25.25 -7.6 24.5 -8.55 23.5 L-8.85 23.15 -9.0 22.95 -10.15 20.85 -11.15 17.65 -11.75 13.3 -11.8 12.85 Q-12.2 8.0 -12.2 3.7 L-12.2 3.5 -12.2 2.9 -12.2 0.6 -12.15 -1.0 -12.0 -4.55 -11.85 -6.4 -11.7 -8.1 -10.85 -15.95 -10.6 -19.0 -10.0 -25.35" fill="#9fccff" fill-rule="evenodd" stroke="none"/>
  </g>
</svg>
