<?xml version="1.0" encoding="UTF-8" standalone="no"?>
<svg xmlns:xlink="http://www.w3.org/1999/xlink" height="54.1px" width="26.45px" xmlns="http://www.w3.org/2000/svg">
  <g transform="matrix(1.0, 0.0, 0.0, 1.0, 12.65, 13.15)">
    <path d="M-9.45 -12.15 L-10.05 -5.8 -10.3 -2.75 -11.15 5.1 -11.3 6.8 -11.45 8.65 -11.6 12.2 -11.65 13.8 -11.65 16.1 -11.65 16.7 -11.65 16.9 Q-11.65 21.2 -11.25 26.05 L-11.2 26.5 -10.6 30.85 Q-10.2 32.65 -9.6 34.05 L-8.45 36.15 -8.3 36.35 -8.0 36.7 -5.5 38.45 Q-3.25 39.45 0.3 39.8 L1.05 39.9 2.25 39.95 Q9.9 40.2 9.2 37.2 L8.8 35.35 8.75 35.15 8.3 32.95 8.05 31.55 8.0 31.3 7.9 30.2 7.7 27.0 7.7 26.75 7.9 22.8 8.0 21.0 8.15 18.9 8.3 17.8 8.75 14.35 9.35 10.35 9.75 8.1 10.8 2.75 10.9 2.25 11.6 -1.25 11.7 -1.7 11.75 -1.95 Q12.6 -6.9 12.8 -10.8" fill="none" stroke="#000000" stroke-linecap="round" stroke-linejoin="round" stroke-width="2.0"/>
  </g>
</svg>
