<?xml version="1.0" encoding="UTF-8" standalone="no"?>
<svg xmlns:xlink="http://www.w3.org/1999/xlink" height="38.7px" width="25.25px" xmlns="http://www.w3.org/2000/svg">
  <g transform="matrix(1.0, 0.0, 0.0, 1.0, 13.75, -2.05)">
    <path d="M10.15 7.75 L10.5 8.1 Q10.9 8.65 10.65 9.15 L10.5 10.1 Q10.0 12.6 9.25 14.05 L10.0 16.85 Q10.4 18.35 10.25 19.9 L10.1 20.85 Q9.7 22.75 8.3 25.75 8.8 27.95 7.6 29.1 L7.9 30.1 8.8 35.2 Q10.05 39.55 5.75 39.95 -2.25 40.3 -6.3 37.6 -8.85 35.15 -9.35 32.75 L-9.85 30.0 -9.9 30.05 -11.75 27.65 Q-12.5 26.65 -12.4 25.7 L-12.25 24.85 -11.9 23.75 Q-12.55 21.85 -12.2 19.75 -12.9 18.6 -12.7 17.3 -12.6 15.4 -11.5 13.95 L-11.5 13.9 Q-11.65 12.3 -12.7 9.5 -13.2 8.05 -12.85 6.55 L-12.8 6.4 -12.6 5.8 Q-11.55 2.5 -8.7 2.85 L-1.1 3.95 Q3.2 4.65 8.15 4.0 11.3 4.3 10.15 7.75 L8.95 7.25 M9.0 13.0 L9.25 14.05 M7.6 29.1 L7.6 28.5 Q5.8 27.3 0.6 27.5 L-6.6 28.35 Q-8.4 28.75 -9.2 29.25 L-9.8 29.8 -9.85 30.0 M8.05 24.8 L8.3 25.75 M-9.35 11.5 Q-10.75 12.6 -11.5 13.9" fill="none" stroke="#000000" stroke-linecap="round" stroke-linejoin="round" stroke-width="1.5"/>
    <path d="M3.15 22.05 Q6.95 21.85 8.05 24.8 M-8.85 11.15 L-9.35 11.5 M-6.25 20.6 L-7.7 20.9 Q-9.8 21.7 -11.9 23.75 M-7.35 10.55 Q0.7 11.3 7.65 9.4" fill="none" stroke="#000000" stroke-linecap="round" stroke-linejoin="round" stroke-width="1.0"/>
  </g>
</svg>
