<?xml version="1.0" encoding="UTF-8" standalone="no"?>
<svg xmlns:xlink="http://www.w3.org/1999/xlink" height="51.1px" width="24.5px" xmlns="http://www.w3.org/2000/svg">
  <g transform="matrix(1.0, 0.0, 0.0, 1.0, 12.25, 25.55)">
    <path d="M-0.55 -19.35 L-1.1 -15.5 8.4 -15.25 9.0 -19.05 -0.55 -19.35 M-1.7 -12.6 L-2.25 -8.7 7.2 -8.45 7.75 -12.2 -1.7 -12.6 M-10.55 -24.65 Q-4.35 -25.95 2.4 -25.35 8.85 -24.85 12.25 -23.1 L11.15 -16.35 11.1 -16.1 11.0 -15.65 10.3 -12.15 9.15 -6.3 8.15 -0.05 7.7 3.4 7.55 4.5 Q7.1 10.05 7.1 12.35 L7.1 12.6 7.3 15.8 7.4 16.9 7.45 17.15 7.7 18.55 8.2 20.95 8.6 22.8 Q9.3 25.8 1.65 25.55 L-0.3 25.4 Q-3.85 25.05 -6.1 24.05 -7.65 23.3 -8.6 22.3 L-9.05 21.75 -10.2 19.65 Q-11.45 16.75 -11.8 12.1 L-11.85 11.65 Q-12.25 6.8 -12.25 2.5 L-12.25 2.3 Q-12.35 -3.0 -11.9 -7.6 L-11.75 -9.3 -10.9 -17.15 -10.65 -20.2 -10.55 -24.65" fill="#242a6b" fill-rule="evenodd" stroke="none"/>
  </g>
</svg>
