<?xml version="1.0" encoding="UTF-8" standalone="no"?>
<svg xmlns:xlink="http://www.w3.org/1999/xlink" height="21.95px" width="26.2px" xmlns="http://www.w3.org/2000/svg">
  <g transform="matrix(1.0, 0.0, 0.0, 1.0, 13.8, 11.45)">
    <path d="M3.75 -7.6 L3.75 -7.65 Q-4.7 -8.05 -10.95 -10.45 -13.2 -7.95 -12.75 -4.65 L-10.85 -3.0 Q-7.5 -0.7 -1.05 1.3 L0.2 -1.95 1.6 -4.55 Q2.5 -6.15 3.75 -7.6 L3.8 -7.6 3.75 -7.65 Q8.4 -8.75 9.3 -10.1 11.0 -7.4 11.4 -4.55 11.05 -1.15 9.75 0.95 L10.6 4.2 Q11.6 6.85 9.05 8.55 3.5 10.45 -3.45 8.55 -8.3 7.3 -9.65 4.7 -10.6 1.2 -10.85 -3.0 M6.2 -4.7 L3.8 -7.6 M0.2 -1.95 L0.55 1.4 Q2.15 4.0 6.5 4.75 7.65 3.4 8.25 1.05 L8.65 -0.45 6.2 -4.7 M9.75 0.95 L9.45 1.35 8.65 -0.45" fill="none" stroke="#000000" stroke-linecap="round" stroke-linejoin="round" stroke-width="2.0"/>
    <path d="M1.6 -4.55 L4.05 -3.3 6.2 -4.7 M1.1 -1.85 L1.5 -1.65 4.05 -3.3 6.95 -1.85 M1.5 -1.65 L4.75 -0.2 7.5 -1.7 M4.75 -0.2 L7.2 0.85 M1.2 1.65 L4.75 -0.2" fill="none" stroke="#000000" stroke-linecap="round" stroke-linejoin="round" stroke-width="1.0"/>
  </g>
</svg>
