<?xml version="1.0" encoding="UTF-8" standalone="no"?>
<svg xmlns:xlink="http://www.w3.org/1999/xlink" height="36.95px" width="29.55px" xmlns="http://www.w3.org/2000/svg">
  <g transform="matrix(1.0, 0.0, 0.0, 1.0, 14.25, 26.35)">
    <path d="M9.35 -10.75 L9.65 -10.5 9.35 -10.25 6.05 -8.1 8.8 -6.05 9.15 -5.8 M9.7 -16.7 L6.1 -13.6 9.35 -10.75 M2.0 -16.55 L6.1 -13.6 1.85 -10.6 6.05 -8.1 1.85 -5.8 5.7 -3.5 8.8 -6.05 M5.7 -3.5 L9.45 -1.0 6.4 0.25 9.65 1.3 9.7 1.3 M5.7 -3.5 L2.0 -1.6 6.4 0.25 2.0 2.25" fill="none" stroke="#000000" stroke-linecap="round" stroke-linejoin="round" stroke-width="1.0"/>
    <path d="M5.6 -22.1 L5.6 -22.15 Q-4.0 -22.6 -11.1 -25.35 -13.7 -22.5 -13.15 -18.75 L-11.3 -17.05 -11.0 -16.85 Q-7.2 -14.25 0.15 -11.95 L1.15 -14.75 1.55 -15.65 2.0 -16.55 3.15 -18.65 Q4.2 -20.45 5.6 -22.1 L5.65 -22.1 5.6 -22.15 Q10.9 -23.4 11.9 -24.95 13.85 -21.85 14.3 -18.65 13.9 -14.75 12.45 -12.35 L12.1 -11.9 11.15 -13.95 9.85 -16.4 9.35 -10.75 9.35 -10.25 9.15 -5.8 9.2 -3.25 9.45 -1.0 9.65 1.15 9.7 1.25 9.7 1.3 Q10.7 4.05 10.95 5.75 L10.85 6.95 Q10.35 8.75 8.55 9.3 L0.8 9.5 Q-5.15 9.15 -8.25 6.6 -9.55 5.1 -10.15 3.15 -11.0 0.4 -10.6 -3.25 L-10.55 -3.2 -11.1 -8.6 Q-11.45 -13.7 -11.3 -17.05 M9.7 -16.7 L8.4 -18.8 5.65 -22.1 M9.85 -16.4 L9.7 -16.7 M9.65 1.3 L9.7 1.25 M2.0 2.25 Q4.15 4.45 7.75 4.3 L9.65 1.3 M1.15 -14.75 Q0.75 -6.4 1.65 1.85 L2.0 2.25" fill="none" stroke="#000000" stroke-linecap="round" stroke-linejoin="round" stroke-width="2.0"/>
  </g>
</svg>
