<?xml version="1.0" encoding="UTF-8" standalone="no"?>
<svg xmlns:xlink="http://www.w3.org/1999/xlink" height="48.1px" width="29.7px" xmlns="http://www.w3.org/2000/svg">
  <g transform="matrix(1.0, 0.0, 0.0, 1.0, 13.35, 37.5)">
    <path d="M2.1 -25.65 L2.35 -26.2 3.75 -28.75 4.15 -29.4 Q5.3 -31.3 6.75 -33.05 L6.75 -33.1 Q-2.9 -33.55 -9.95 -36.5 -12.65 -33.45 -12.3 -29.5 L-10.9 -28.0 -10.55 -27.7 -10.25 -27.5 Q-6.5 -24.75 0.75 -22.3 L1.9 -25.25 2.1 -25.65 Q0.75 -6.4 1.65 1.85 L2.0 2.25 Q4.15 4.45 7.75 4.3 L9.65 1.3 9.7 1.25 9.7 1.3 Q10.7 4.05 10.95 5.75 L10.85 6.95 Q10.35 8.75 8.55 9.3 L0.8 9.5 Q-5.15 9.15 -8.25 6.6 -9.55 5.1 -10.15 3.15 -11.0 0.4 -10.6 -3.25 L-10.55 -3.2 -11.1 -8.6 -11.45 -14.75 -11.5 -19.3 Q-11.5 -22.8 -10.9 -28.0 M10.15 -28.3 L9.4 -29.55 Q8.1 -31.65 6.8 -33.05 L6.75 -33.1 Q12.15 -34.4 13.25 -36.05 15.05 -32.8 15.35 -29.4 14.75 -25.25 13.2 -22.7 L12.8 -22.25 11.95 -24.4 11.4 -25.75 Q10.05 -16.55 9.55 -10.6 L9.55 -10.4 9.2 -5.8 9.2 -3.25 9.45 -1.0 9.65 1.15 9.7 1.25 M11.4 -25.75 L10.8 -27.0 10.15 -28.3" fill="none" stroke="#000000" stroke-linecap="round" stroke-linejoin="round" stroke-width="2.0"/>
    <path d="M2.0 2.25 L6.4 0.25 2.0 -1.6 5.7 -3.5 1.85 -5.8 6.05 -8.1 1.85 -10.6 6.1 -13.6 2.1 -16.5 6.6 -19.7 2.55 -22.65 7.3 -25.95 3.75 -28.75 M9.55 -10.6 L9.65 -10.5 9.55 -10.4 6.05 -8.1 8.8 -6.05 9.2 -5.8 M10.15 -28.3 L7.3 -25.95 10.4 -22.9 6.6 -19.7 9.8 -16.8 6.1 -13.6 9.55 -10.6 M8.8 -6.05 L5.7 -3.5 9.45 -1.0 6.4 0.25 9.65 1.3 9.7 1.3" fill="none" stroke="#000000" stroke-linecap="round" stroke-linejoin="round" stroke-width="1.0"/>
  </g>
</svg>
