<?xml version="1.0" encoding="UTF-8" standalone="no"?>
<svg xmlns:xlink="http://www.w3.org/1999/xlink" height="10.95px" width="22.2px" xmlns="http://www.w3.org/2000/svg">
  <g transform="matrix(1.0, 0.0, 0.0, 1.0, 10.8, 0.85)">
    <path d="M9.15 1.45 L9.2 1.55 9.45 2.0 9.0 2.05 9.15 1.45" fill="#434343" fill-rule="evenodd" stroke="none"/>
    <path d="M9.15 1.45 L9.0 2.05 9.45 2.0 9.2 1.55 9.15 1.45 M9.45 2.0 Q11.45 6.5 9.25 8.25 L8.0 8.8 0.85 9.0 Q-4.65 8.7 -7.1 6.15 -8.65 4.9 -9.1 3.5 L-9.8 0.9 Q-7.5 1.7 -2.95 3.9 1.55 6.05 7.2 4.95 8.45 3.65 9.0 2.05 4.6 -2.45 -2.4 3.6" fill="none" stroke="#000000" stroke-linecap="round" stroke-linejoin="round" stroke-width="2.0"/>
  </g>
</svg>
