<?xml version="1.0" encoding="UTF-8" standalone="no"?>
<svg xmlns:xlink="http://www.w3.org/1999/xlink" height="42.25px" width="25.55px" xmlns="http://www.w3.org/2000/svg">
  <g transform="matrix(1.0, 0.0, 0.0, 1.0, 12.1, 31.65)">
    <path d="M13.45 -31.65 L13.45 -31.6 13.4 -31.6 13.45 -31.65" fill="#434343" fill-rule="evenodd" stroke="none"/>
    <path d="M9.1 1.0 Q10.35 3.35 10.65 4.35 L10.95 5.75 10.85 6.95 Q10.35 8.75 8.55 9.3 L0.8 9.5 Q-5.15 9.15 -8.25 6.6 -9.55 5.1 -10.15 3.15 L-10.5 1.6 Q-10.8 -0.15 -10.7 -2.15 L-10.65 -2.45 Q-11.7 -16.25 -10.35 -29.5 -7.8 -28.0 3.05 -26.85 10.55 -26.65 12.3 -28.35 9.3 -15.65 8.7 -1.05 L9.1 1.0" fill="none" stroke="#000000" stroke-linecap="round" stroke-linejoin="round" stroke-width="2.0"/>
    <path d="M-10.5 1.6 Q-9.35 2.95 -4.6 4.6 6.15 7.0 10.65 4.35" fill="none" stroke="#000000" stroke-linecap="round" stroke-linejoin="round" stroke-width="1.0"/>
  </g>
</svg>
