<?xml version="1.0" encoding="UTF-8" standalone="no"?>
<svg xmlns:xlink="http://www.w3.org/1999/xlink" height="43.95px" width="26.6px" xmlns="http://www.w3.org/2000/svg">
  <g transform="matrix(1.0, 0.0, 0.0, 1.0, 12.85, 33.35)">
    <path d="M13.45 -31.65 L13.45 -31.6 13.4 -31.6 13.45 -31.65" fill="#434343" fill-rule="evenodd" stroke="none"/>
    <path d="M-10.65 -25.95 L-10.1 -32.35 Q-8.4 -29.85 0.35 -28.4 9.05 -26.95 12.75 -31.2 L11.35 -24.1 11.55 -24.45 Q11.85 -21.55 11.05 -18.4 L10.3 -17.75 9.85 -14.6 10.3 -15.2 Q10.6 -12.3 9.9 -9.15 9.85 -8.8 9.2 -8.5 L8.7 -1.05 9.1 1.0 Q10.35 3.35 10.65 4.35 L10.95 5.75 10.85 6.95 Q10.35 8.75 8.55 9.3 L0.8 9.5 Q-5.15 9.15 -8.25 6.6 -9.55 5.1 -10.15 3.15 L-10.5 1.6 Q-10.8 -0.15 -10.7 -2.15 L-10.65 -2.45 -11.05 -10.4 -11.25 -10.55 Q-12.05 -13.55 -11.25 -17.2 L-11.05 -17.05 -10.95 -19.55 -11.4 -19.8 Q-12.25 -22.8 -11.4 -26.45 L-10.65 -25.95 Q-6.9 -23.65 -0.15 -22.95 L-0.15 -23.8 Q4.25 -23.5 7.95 -23.8 L7.95 -22.9 Q10.55 -23.35 11.35 -24.1 M10.3 -17.75 L7.95 -17.2 7.95 -16.45 Q4.35 -15.8 -0.15 -16.45 L-0.15 -17.1 Q-7.3 -17.65 -10.95 -19.55 M-11.05 -17.05 Q-7.45 -14.45 -0.6 -13.7 L-0.6 -14.4 Q3.8 -14.1 7.5 -14.4 L7.5 -13.75 Q9.15 -14.1 9.85 -14.6 M7.95 -22.9 L7.95 -17.2 M9.2 -8.5 L7.5 -8.05 7.5 -7.05 Q3.9 -6.4 -0.6 -7.05 L-0.6 -7.85 Q-7.6 -8.4 -11.05 -10.4 M7.5 -13.75 L7.5 -8.05 M-0.15 -17.1 L-0.15 -22.95 M-0.6 -7.85 L-0.6 -13.7" fill="none" stroke="#000000" stroke-linecap="round" stroke-linejoin="round" stroke-width="2.0"/>
    <path d="M5.2 -20.75 L5.25 -19.2 2.9 -19.15 2.9 -20.75 5.2 -20.75 M4.85 -11.25 L4.9 -9.7 2.55 -9.65 2.55 -11.25 4.85 -11.25 M-10.5 1.6 Q-9.35 2.95 -4.6 4.6 6.15 7.0 10.65 4.35" fill="none" stroke="#000000" stroke-linecap="round" stroke-linejoin="round" stroke-width="1.0"/>
  </g>
</svg>
