<?xml version="1.0" encoding="UTF-8" standalone="no"?>
<svg xmlns:xlink="http://www.w3.org/1999/xlink" height="20.35px" width="24.1px" xmlns="http://www.w3.org/2000/svg">
  <g transform="matrix(1.0, 0.0, 0.0, 1.0, 12.15, 9.75)">
    <path d="M9.6 1.9 L10.5 3.85 10.65 4.35 10.95 5.75 10.85 6.95 Q10.35 8.75 8.55 9.3 L0.8 9.5 Q-5.15 9.15 -8.25 6.6 -9.5 5.15 -10.1 3.35 L-10.15 3.15 -10.5 1.6 Q-10.8 -0.15 -10.7 -2.15 L-10.65 -2.45 -11.15 -8.75 Q-7.1 -6.9 -0.05 -6.3 L4.4 -6.05 Q8.35 -6.4 9.3 -8.45 L8.7 -1.05 9.1 1.0 9.6 1.9" fill="none" stroke="#000000" stroke-linecap="round" stroke-linejoin="round" stroke-width="2.0"/>
    <path d="M9.6 1.9 L10.2 2.0 M-0.05 -6.3 Q-0.15 -0.85 0.75 2.65 2.25 1.15 4.85 0.6 8.45 -0.15 9.6 1.9 M0.75 2.65 Q-0.4 3.75 -0.85 5.35 L6.55 5.75 Q10.7 5.45 10.5 3.85 M-10.1 3.35 Q-6.0 4.9 -0.85 5.35" fill="none" stroke="#000000" stroke-linecap="round" stroke-linejoin="round" stroke-width="1.0"/>
  </g>
</svg>
