<?xml version="1.0" encoding="UTF-8" standalone="no"?>
<svg xmlns:xlink="http://www.w3.org/1999/xlink" height="20.7px" width="24.45px" xmlns="http://www.w3.org/2000/svg">
  <g transform="matrix(1.0, 0.0, 0.0, 1.0, 12.5, 10.1)">
    <path d="M-10.65 0.25 L-10.7 -4.5 -10.65 -4.75 Q-11.75 -6.7 -11.45 -8.85 -9.5 -9.7 -3.0 -7.65 5.3 -6.2 9.35 -8.2 9.65 -5.7 8.7 -4.5 L9.05 0.65 9.1 1.0 Q10.35 3.35 10.65 4.35 L10.8 4.85 10.95 5.75 10.85 6.95 Q10.35 8.75 8.55 9.3 L0.8 9.5 Q-5.15 9.15 -8.25 6.6 -9.5 5.2 -10.05 3.35 L-10.15 3.15 -10.5 1.6 -10.65 0.65 -10.65 0.25" fill="none" stroke="#000000" stroke-linecap="round" stroke-linejoin="round" stroke-width="2.0"/>
    <path d="M-10.05 3.35 Q-6.15 5.35 1.5 5.85 9.15 6.3 10.8 4.85" fill="none" stroke="#000000" stroke-linecap="round" stroke-linejoin="round" stroke-width="1.0"/>
  </g>
</svg>
