<?xml version="1.0" encoding="UTF-8" standalone="no"?>
<svg xmlns:xlink="http://www.w3.org/1999/xlink" height="26.95px" width="24.4px" xmlns="http://www.w3.org/2000/svg">
  <g transform="matrix(1.0, 0.0, 0.0, 1.0, 12.45, 16.35)">
    <path d="M9.1 1.0 Q10.35 3.35 10.65 4.35 L10.95 5.75 10.85 6.95 Q10.35 8.75 8.55 9.3 L0.8 9.5 Q-5.15 9.15 -8.25 6.6 -9.55 5.1 -10.15 3.15 L-10.5 1.6 Q-10.8 -0.15 -10.7 -2.15 L-10.65 -2.45 Q-11.65 -6.7 -11.4 -9.8 -9.05 -8.35 -4.05 -7.95 -3.3 -11.5 -2.35 -12.95 -0.25 -15.35 4.15 -15.35 8.5 -15.4 9.95 -12.9 L8.7 -1.05 9.1 1.0" fill="none" stroke="#000000" stroke-linecap="round" stroke-linejoin="round" stroke-width="2.0"/>
    <path d="M-0.4 -6.55 Q-0.35 -9.05 0.8 -11.15 4.35 -12.15 7.2 -11.05 7.55 -8.0 7.2 -6.15 L-0.4 -6.55 M-10.5 1.6 Q-9.35 2.95 -4.6 4.6 6.15 7.0 10.65 4.35" fill="none" stroke="#000000" stroke-linecap="round" stroke-linejoin="round" stroke-width="1.0"/>
  </g>
</svg>
