<?xml version="1.0" encoding="UTF-8" standalone="no"?>
<svg xmlns:xlink="http://www.w3.org/1999/xlink" height="15.15px" width="22.85px" xmlns="http://www.w3.org/2000/svg">
  <g transform="matrix(1.0, 0.0, 0.0, 1.0, 11.45, 5.05)">
    <path d="M8.0 8.8 L0.85 9.0 Q-4.65 8.7 -7.1 6.15 -8.65 4.9 -9.1 3.5 L-9.7 1.45 -9.9 0.95 -10.4 -0.3 Q-10.75 -1.35 -8.95 -1.6 L-6.4 -1.95 -4.55 -2.1 Q4.0 -6.1 9.15 -1.85 L9.35 1.65 9.35 1.85 Q11.5 6.5 9.25 8.25 L8.0 8.8" fill="none" stroke="#000000" stroke-linecap="round" stroke-linejoin="round" stroke-width="2.0"/>
    <path d="M-9.7 1.45 Q-7.95 2.8 -4.0 4.35 -0.1 5.9 6.6 5.45 10.1 4.4 9.3 2.75 L9.35 1.65" fill="none" stroke="#000000" stroke-linecap="round" stroke-linejoin="round" stroke-width="1.0"/>
    <path d="M7.75 0.85 Q8.0 1.85 6.35 3.5 1.05 3.6 -0.75 1.05 2.95 -0.95 7.75 0.85" fill="none" stroke="#070707" stroke-linecap="round" stroke-linejoin="round" stroke-width="1.0"/>
  </g>
</svg>
