<?xml version="1.0" encoding="UTF-8" standalone="no"?>
<svg xmlns:xlink="http://www.w3.org/1999/xlink" height="29.7px" width="26.7px" xmlns="http://www.w3.org/2000/svg">
  <g transform="matrix(1.0, 0.0, 0.0, 1.0, 12.05, 19.25)">
    <path d="M8.9 -3.45 L8.8 -2.45 Q7.15 -3.75 5.55 -6.1 L5.8 -5.9 8.55 -3.65 8.8 -3.5 8.9 -3.45 M2.4 -7.4 L1.7 -6.6 1.6 -6.45 0.95 -5.85 2.35 -7.4 2.4 -7.4" fill="#434343" fill-rule="evenodd" stroke="none"/>
    <path d="M-10.5 1.6 Q-9.35 2.95 -4.6 4.6 6.15 7.0 10.65 4.35" fill="none" stroke="#000000" stroke-linecap="round" stroke-linejoin="round" stroke-width="1.0"/>
    <path d="M8.8 -2.45 Q10.1 -1.45 11.45 -1.05 10.5 0.3 9.1 1.0 10.35 3.35 10.65 4.35 L10.95 5.75 10.85 6.95 Q10.35 8.75 8.55 9.3 L0.8 9.5 Q-5.15 9.15 -8.25 6.6 -9.55 5.1 -10.15 3.15 L-10.5 1.6 Q-10.8 -0.15 -10.7 -2.15 L-10.65 -2.45 -11.2 -10.4 -9.45 -9.7 Q-10.4 -11.55 -10.8 -13.1 -11.3 -14.7 -11.2 -15.95 -11.05 -18.7 -6.95 -17.5 -3.8 -16.35 -1.2 -14.55 0.6 -13.35 2.2 -11.8 2.75 -12.2 3.4 -12.2 L4.35 -11.95 5.95 -13.85 6.85 -14.7 10.5 -17.65 11.3 -18.1 Q13.1 -18.95 13.8 -17.5 L13.5 -14.9 Q13.1 -12.7 12.05 -10.2 13.45 -6.8 13.6 -5.0 L13.65 -4.25 Q13.8 -1.55 8.9 -3.45 L8.8 -2.45 Q7.15 -3.75 5.55 -6.1 L5.8 -5.9 4.65 -7.35 4.55 -7.45 4.45 -7.35 3.5 -7.1 Q4.4 -0.9 6.0 1.75 7.75 1.7 9.1 1.0 M4.35 -11.95 Q4.7 -11.8 4.95 -11.45 5.6 -10.7 5.6 -9.65 5.6 -8.6 4.95 -7.85 L4.55 -7.45 M2.35 -7.4 L2.25 -7.5 1.85 -7.85 Q1.25 -8.6 1.25 -9.65 1.25 -10.7 1.85 -11.45 L2.2 -11.8 M2.4 -7.4 L1.7 -6.6 1.6 -6.45 Q-1.7 -2.7 -3.7 1.45 0.65 1.2 4.1 2.75 2.85 -1.55 3.35 -7.1 2.8 -7.1 2.4 -7.4 L2.35 -7.4 0.95 -5.85 1.6 -6.45 M3.5 -7.1 L3.4 -7.1 3.35 -7.1 M8.9 -3.45 L8.8 -3.5 8.55 -3.65 5.8 -5.9 M-9.45 -9.7 L-8.85 -8.55 Q-10.65 -5.05 -10.55 -2.6 -10.45 -0.6 -7.3 -1.3 L-4.7 -2.1 -2.3 -3.2 Q-1.1 -3.8 0.95 -5.85" fill="none" stroke="#000000" stroke-linecap="round" stroke-linejoin="round" stroke-width="1.7000000000000002"/>
  </g>
</svg>
