<?xml version="1.0" encoding="UTF-8" standalone="no"?>
<svg xmlns:xlink="http://www.w3.org/1999/xlink" height="37.85px" width="26.25px" xmlns="http://www.w3.org/2000/svg">
  <g transform="matrix(1.0, 0.0, 0.0, 1.0, 13.3, 27.35)">
    <path d="M10.4 -16.2 Q10.75 -18.5 11.95 -20.75 10.25 -24.75 5.8 -26.35 0.95 -26.05 -3.65 -22.85 -8.45 -20.0 -12.3 -21.65 L-11.65 -17.0 Q-11.65 -11.75 -11.25 -4.35 -10.9 -0.85 -10.15 1.8 L-8.7 5.55 Q-7.1 7.95 -2.0 9.05 6.3 9.95 9.65 8.95 11.5 7.35 10.75 4.9 L10.65 4.45 9.35 -0.45 Q9.1 -8.15 10.4 -16.2" fill="none" stroke="#000000" stroke-linecap="round" stroke-linejoin="round" stroke-width="2.0"/>
    <path d="M-11.65 -17.0 Q-9.35 -14.85 -5.7 -15.85 -0.7 -19.45 5.1 -20.3 9.25 -18.6 10.4 -16.2 M-10.15 1.8 Q-7.8 3.8 -0.85 4.9 L10.65 4.45" fill="none" stroke="#000000" stroke-linecap="round" stroke-linejoin="round" stroke-width="1.0"/>
  </g>
</svg>
