<?xml version="1.0" encoding="UTF-8" standalone="no"?>
<svg xmlns:xlink="http://www.w3.org/1999/xlink" height="32.55px" width="27.9px" xmlns="http://www.w3.org/2000/svg">
  <g transform="matrix(1.0, 0.0, 0.0, 1.0, 13.95, 16.3)">
    <path d="M13.9 -7.25 Q13.65 -4.4 12.75 -0.6 L12.7 -0.6 12.15 2.0 12.2 2.05 Q13.7 7.0 13.15 10.75 L10.8 8.95 11.7 11.0 12.0 12.4 11.9 13.6 Q11.4 15.4 9.6 15.95 L1.85 16.15 Q-4.1 15.8 -7.2 13.25 L-8.3 11.65 -8.65 11.0 -9.1 11.55 Q-13.7 10.7 -13.95 6.4 -13.5 4.6 -12.0 2.35 L-11.35 1.35 -11.9 -0.6 -11.95 -0.6 Q-12.45 -2.9 -12.45 -7.4 L-12.45 -7.95 Q-12.45 -14.45 -9.55 -16.3 -5.7 -13.15 2.55 -12.75 10.8 -12.4 12.5 -13.7 13.7 -14.35 13.95 -10.15 L13.9 -7.25" fill="#434343" fill-rule="evenodd" stroke="none"/>
  </g>
</svg>
