<?xml version="1.0" encoding="UTF-8" standalone="no"?>
<svg xmlns:xlink="http://www.w3.org/1999/xlink" height="34.55px" width="29.9px" xmlns="http://www.w3.org/2000/svg">
  <g transform="matrix(1.0, 0.0, 0.0, 1.0, 16.0, 23.95)">
    <path d="M10.7 -5.9 L11.1 -4.65 11.65 -7.25 Q12.6 -11.05 12.85 -13.9 L12.9 -16.8 Q12.65 -21.0 11.45 -20.35 9.75 -19.05 1.5 -19.4 -6.75 -19.8 -10.6 -22.95 -13.5 -21.1 -13.5 -14.6 L-13.5 -14.05 Q-13.5 -9.55 -12.95 -7.25 L-12.4 -5.3 -13.05 -4.3 Q-14.55 -2.05 -15.0 -0.25 -14.75 4.05 -10.15 4.9 L-9.7 4.35 -8.5 3.0 Q-6.6 0.9 -4.6 0.15 -1.3 -1.15 3.15 -0.95 7.15 -0.85 9.05 0.7 L9.1 1.0 9.75 2.3 12.1 4.1 Q12.65 0.35 11.15 -4.6 L11.1 -4.65 M9.75 2.3 L10.65 4.35 10.95 5.75 10.85 6.95 Q10.35 8.75 8.55 9.3 L0.8 9.5 Q-5.15 9.15 -8.25 6.6 L-9.35 5.0 -10.15 4.9 M-9.35 5.0 L-9.7 4.35" fill="none" stroke="#000000" stroke-linecap="round" stroke-linejoin="round" stroke-width="2.0"/>
  </g>
</svg>
