<?xml version="1.0" encoding="UTF-8" standalone="no"?>
<svg xmlns:xlink="http://www.w3.org/1999/xlink" height="49.4px" width="30.2px" xmlns="http://www.w3.org/2000/svg">
  <g transform="matrix(1.0, 0.0, 0.0, 1.0, 15.1, 24.7)">
    <path d="M14.05 -22.55 Q15.3 -20.95 15.05 -14.95 L14.3 -7.0 13.65 -2.75 13.35 1.35 Q12.9 5.65 12.25 7.25 L11.25 9.7 11.0 10.45 11.05 10.5 Q13.05 14.25 12.0 19.2 L9.65 17.4 10.55 19.45 10.85 20.85 10.75 22.05 Q10.25 23.85 8.45 24.4 L0.7 24.6 Q-5.25 24.25 -8.35 21.7 L-9.45 20.1 -10.25 20.0 Q-14.85 19.15 -15.1 14.85 -15.05 12.6 -14.2 10.65 L-12.9 8.45 Q-14.25 5.65 -14.05 0.45 L-13.9 -1.85 -13.45 -8.35 Q-13.3 -12.15 -13.3 -16.0 L-13.3 -16.6 Q-13.2 -23.3 -9.85 -24.7 -5.95 -21.8 2.9 -21.3 11.8 -20.85 13.65 -22.45 L14.05 -22.55" fill="#434343" fill-rule="evenodd" stroke="none"/>
  </g>
</svg>
