<?xml version="1.0" encoding="UTF-8" standalone="no"?>
<svg xmlns:xlink="http://www.w3.org/1999/xlink" height="51.4px" width="32.2px" xmlns="http://www.w3.org/2000/svg">
  <g transform="matrix(1.0, 0.0, 0.0, 1.0, 16.0, 40.8)">
    <path d="M10.7 -5.9 L11.1 -4.65 11.35 -5.4 12.35 -7.85 Q13.0 -9.45 13.45 -13.75 L13.75 -17.85 14.4 -22.1 15.15 -30.05 Q15.4 -36.05 14.15 -37.65 L13.75 -37.55 Q11.9 -35.95 3.0 -36.4 -5.85 -36.9 -9.75 -39.8 -13.1 -38.4 -13.2 -31.7 L-13.2 -31.1 Q-13.2 -27.25 -13.35 -23.45 L-13.8 -16.95 -13.95 -14.65 Q-14.15 -9.45 -12.8 -6.65 L-14.1 -4.45 Q-14.95 -2.5 -15.0 -0.25 -14.75 4.05 -10.15 4.9 L-9.7 4.35 -8.5 3.0 Q-6.6 0.9 -4.6 0.15 -1.3 -1.15 3.15 -0.95 7.15 -0.85 9.05 0.7 L9.1 1.0 9.75 2.3 12.1 4.1 Q13.15 -0.85 11.15 -4.6 L11.1 -4.65 M14.15 -37.95 L14.15 -37.65 M9.75 2.3 L10.65 4.35 10.95 5.75 10.85 6.95 Q10.35 8.75 8.55 9.3 L0.8 9.5 Q-5.15 9.15 -8.25 6.6 L-9.35 5.0 -10.15 4.9 M-9.35 5.0 L-9.7 4.35" fill="none" stroke="#000000" stroke-linecap="round" stroke-linejoin="round" stroke-width="2.0"/>
  </g>
</svg>
