<?xml version="1.0" encoding="UTF-8" standalone="no"?>
<svg xmlns:xlink="http://www.w3.org/1999/xlink" height="61.1px" width="32.25px" xmlns="http://www.w3.org/2000/svg">
  <g transform="matrix(1.0, 0.0, 0.0, 1.0, 15.9, 50.6)">
    <path d="M13.85 -36.05 Q13.75 -33.6 12.15 -31.8 10.6 -30.0 8.5 -30.0 6.45 -30.0 5.0 -31.8 3.65 -33.6 3.75 -36.05 3.9 -38.55 5.4 -40.4 7.0 -42.15 9.05 -42.15 11.15 -42.15 12.55 -40.4 14.0 -38.55 13.85 -36.05 M4.5 0.8 L9.3 -18.6 11.95 -21.0 M7.4 -24.25 L5.8 -7.35 M-7.75 1.55 Q-4.55 5.5 5.45 5.65 9.65 5.5 11.15 3.6 M-13.85 -24.2 L2.85 -18.8 4.4 0.85" fill="none" stroke="#000000" stroke-linecap="round" stroke-linejoin="round" stroke-width="1.0"/>
    <path d="M-0.75 -37.1 L-0.35 -42.2 9.1 -49.6 15.35 -40.4 14.15 -28.8 13.15 -28.1 11.95 -21.0 9.65 -7.35 11.5 -3.05 8.75 -1.55 Q10.45 1.45 11.1 3.45 L11.15 3.6 Q12.1 6.8 10.45 8.15 7.8 10.2 0.25 9.15 -7.8 8.25 -8.8 3.2 L-9.8 4.75 -14.6 -3.55 -11.65 -11.25 -13.85 -24.2 -14.9 -30.45 -14.9 -30.5 -10.45 -38.95 Q-7.25 -36.75 -0.75 -37.1 L-1.25 -30.35 7.4 -24.25 13.15 -28.1 M8.75 -1.55 L4.5 0.8 4.4 0.85 4.35 0.85 -5.15 -2.5 -7.75 1.55 -8.8 3.2 M-14.9 -30.45 L7.4 -24.25" fill="none" stroke="#000000" stroke-linecap="round" stroke-linejoin="round" stroke-width="2.0"/>
  </g>
</svg>
