<?xml version="1.0" encoding="UTF-8" standalone="no"?>
<svg xmlns:xlink="http://www.w3.org/1999/xlink" height="27.05px" width="26.8px" xmlns="http://www.w3.org/2000/svg">
  <g transform="matrix(1.0, 0.0, 0.0, 1.0, 14.85, 15.95)">
    <path d="M-6.15 -9.5 Q-9.3 -7.65 -10.7 -10.65 L-11.35 -10.8 -11.25 -10.4 Q-12.7 -11.55 -12.65 -12.7 -12.65 -14.6 -11.4 -15.15 -9.3 -15.55 -7.9 -13.55 -5.05 -14.75 -2.65 -13.05 0.75 -14.55 3.0 -12.6 L7.55 -12.75 Q10.35 -14.9 11.05 -12.4 11.7 -9.95 9.5 -8.85 7.5 -7.35 5.35 -8.6 2.65 -6.6 -0.25 -8.85 L-0.55 -8.65 Q-1.6 -8.05 -2.7 -8.35 L-6.15 -9.5" fill="#ffffff" fill-rule="evenodd" stroke="none"/>
    <path d="M-2.7 -8.35 Q-1.6 -8.05 -0.55 -8.65 L-0.25 -8.85 Q2.65 -6.6 5.35 -8.6 7.5 -7.35 9.5 -8.85 11.7 -9.95 11.05 -12.4 10.35 -14.9 7.55 -12.75 L3.0 -12.6 Q0.75 -14.55 -2.65 -13.05 -5.05 -14.75 -7.9 -13.55 -9.3 -15.55 -11.4 -15.15 -12.65 -14.6 -12.65 -12.7 -12.7 -11.55 -11.25 -10.4 L-11.35 -10.8 -10.7 -10.65 Q-9.3 -7.65 -6.15 -9.5" fill="none" stroke="#000000" stroke-linecap="round" stroke-linejoin="round" stroke-width="1.5"/>
    <path d="M-10.7 -10.65 Q-11.05 -10.25 -11.25 -10.4 M9.5 -8.85 Q8.4 -5.35 9.25 0.75 L10.3 3.75 Q11.85 7.6 9.45 9.55 4.25 10.9 -3.05 9.0 -6.15 7.1 -7.7 3.75 L-7.3 7.15 Q-11.5 6.0 -11.5 2.5 -11.5 0.05 -11.2 -0.65 M-7.7 3.75 L-7.95 1.95" fill="none" stroke="#000000" stroke-linecap="round" stroke-linejoin="round" stroke-width="2.0"/>
    <path d="M-9.2 -5.7 Q-9.9 -8.55 -12.65 -10.05 -15.25 -7.7 -13.9 -3.6 -12.55 -3.25 -11.5 -3.6 -10.1 -4.1 -9.2 -5.7 -6.6 -9.45 -3.75 -9.0 -2.65 -4.85 -4.75 -1.4 -7.05 -1.45 -8.15 -2.95 L-8.35 -0.25 -10.25 -1.85 -12.9 -1.05 -11.5 -3.6 M-10.25 -1.85 L-9.15 -5.55 -9.2 -5.7 M-8.15 -2.95 L-8.35 -3.2 Q-8.95 -4.15 -9.15 -5.55" fill="none" stroke="#000000" stroke-linecap="round" stroke-linejoin="round" stroke-width="1.0"/>
  </g>
</svg>
