<?xml version="1.0" encoding="UTF-8" standalone="no"?>
<svg xmlns:xlink="http://www.w3.org/1999/xlink" height="34.55px" width="24.05px" xmlns="http://www.w3.org/2000/svg">
  <g transform="matrix(1.0, 0.0, 0.0, 1.0, 12.1, 23.95)">
    <path d="M3.25 -2.95 L0.5 -1.35 1.1 1.15 4.15 2.25 5.65 1.45 5.55 -0.85" fill="none" stroke="#000000" stroke-linecap="round" stroke-linejoin="round" stroke-width="1.0"/>
    <path d="M9.95 -15.4 Q9.0 -8.45 8.7 -1.05 L9.1 1.0 Q10.35 3.35 10.65 4.35 L10.95 5.75 10.85 6.95 Q10.35 8.75 8.55 9.3 L0.8 9.5 Q-4.8 9.15 -7.85 6.9 L-8.25 6.6 Q-9.55 5.1 -10.15 3.15 L-10.5 1.6 Q-10.8 -0.15 -10.7 -2.15 L-10.65 -2.45 Q-11.2 -9.7 -11.1 -16.8 L-10.85 -22.95 Q-9.3 -20.3 2.25 -19.15 9.35 -18.95 10.85 -21.3 L9.95 -15.4 Q9.45 -13.55 2.9 -13.55 -9.05 -14.5 -11.1 -16.8 M-7.85 6.9 Q-6.85 2.65 -2.35 0.45 L-2.85 -1.95 3.35 -6.25 7.8 -1.55 8.2 3.6 4.25 5.35 -1.8 3.2 -2.35 0.45" fill="none" stroke="#000000" stroke-linecap="round" stroke-linejoin="round" stroke-width="2.0"/>
  </g>
</svg>
