<?xml version="1.0" encoding="UTF-8" standalone="no"?>
<svg xmlns:xlink="http://www.w3.org/1999/xlink" height="30.9px" width="24.85px" xmlns="http://www.w3.org/2000/svg">
  <g transform="matrix(1.0, 0.0, 0.0, 1.0, 12.9, 19.95)">
    <path d="M-1.25 -16.4 Q-0.9 -18.2 2.6 -18.65 6.1 -19.1 7.3 -16.45 9.95 -16.75 10.9 -17.45 11.0 -14.65 9.6 -9.65 8.45 -5.7 8.65 -1.1 L9.1 1.0 Q10.7 4.0 10.95 5.75 L10.95 6.45 10.85 6.95 Q10.35 8.75 8.3 9.5 L0.5 9.8 Q-5.3 9.3 -8.25 6.6 -9.55 5.1 -10.15 3.15 L-10.35 2.35 Q-10.9 0.15 -10.65 -2.65 L-10.65 -9.6 Q-12.2 -15.4 -11.85 -18.95 -7.6 -16.7 -1.25 -16.4 -1.7 -7.5 -0.7 0.35 0.95 4.25 6.7 4.1 8.7 3.35 6.25 0.05 6.5 -8.35 7.3 -16.45" fill="none" stroke="#000000" stroke-linecap="round" stroke-linejoin="round" stroke-width="2.0"/>
    <path d="M10.95 6.45 Q8.8 7.2 4.35 7.2 -6.65 6.7 -10.35 2.35" fill="none" stroke="#000000" stroke-linecap="round" stroke-linejoin="round" stroke-width="1.0"/>
    <path d="M6.85 -14.8 L3.35 -11.95 6.2 -9.75 M6.85 -8.35 L3.35 -5.8 6.2 -3.8 3.3 -1.1 5.8 0.35 4.85 1.7 7.0 2.05 M0.7 1.0 L4.85 1.7 3.95 2.95 M-1.35 -14.9 L3.35 -11.95 -0.9 -9.55 M3.35 -5.8 L-0.9 -3.6 M-1.35 -8.45 L3.35 -5.8 M-0.75 -3.1 L3.3 -1.1 -0.4 1.05" fill="none" stroke="#000000" stroke-linecap="round" stroke-linejoin="round" stroke-width="1.0"/>
  </g>
</svg>
