<?xml version="1.0" encoding="UTF-8" standalone="no"?>
<svg xmlns:xlink="http://www.w3.org/1999/xlink" height="36.1px" width="24.45px" xmlns="http://www.w3.org/2000/svg">
  <g transform="matrix(1.0, 0.0, 0.0, 1.0, 12.5, 25.0)">
    <path d="M10.5 -20.2 L9.85 -20.0 5.1 -17.5 9.7 -15.0 M9.65 -14.0 L4.45 -11.25 9.05 -8.75 M8.95 -7.65 L4.05 -4.9 8.4 -2.4 M8.15 -2.25 L4.45 -1.15 7.95 -0.5 M-0.9 -20.7 L-0.5 -20.5 9.85 -20.0 M5.1 -17.5 Q2.0 -16.05 -1.1 -15.05 M4.45 -11.25 Q1.35 -9.8 -1.75 -8.8 M-1.55 -14.45 L4.45 -11.25 M4.05 -4.9 Q1.15 -3.45 -1.8 -2.45 M-1.6 -8.1 L4.05 -4.9 M-1.55 -2.25 L4.45 -1.15 -1.1 0.5 M-0.5 -20.5 L5.1 -17.5" fill="none" stroke="#000000" stroke-linecap="round" stroke-linejoin="round" stroke-width="1.0"/>
    <path d="M-1.65 -19.95 Q-1.4 -21.9 -0.5 -23.15 3.85 -24.75 9.7 -23.4 10.65 -21.95 10.5 -20.2 L10.5 -19.9 10.85 -20.25 8.65 -1.1 9.1 1.0 9.85 2.45 Q10.75 4.45 10.95 5.75 L10.95 6.3 10.7 7.6 Q10.35 8.75 8.8 9.55 L1.25 10.0 Q-4.8 9.6 -8.85 7.3 -10.1 6.0 -10.55 3.2 -11.0 0.4 -10.6 -3.25 L-10.6 -4.0 -11.5 -21.95 Q-7.8 -20.65 -1.65 -19.95 L-2.05 -17.0 -2.55 -0.2 -1.0 2.65 Q0.55 1.05 3.8 0.15 7.05 -0.8 9.85 2.45 M-10.55 3.2 L-5.8 4.95 Q-5.45 -1.6 -10.6 -4.0 M-5.8 4.95 L-2.75 6.05 Q-2.4 3.9 -1.0 2.65 M-2.75 6.05 Q5.05 6.9 10.95 6.3" fill="none" stroke="#000000" stroke-linecap="round" stroke-linejoin="round" stroke-width="2.0"/>
    <path d="M6.1 -8.7 L5.65 -15.65 Q5.35 -17.2 5.6 -19.6 L5.05 -16.35 3.6 -8.5 M5.65 -15.65 Q6.1 -12.85 8.35 -13.1 10.4 -15.25 6.1 -20.05 M5.3 -20.35 Q-1.05 -14.5 2.75 -13.0 4.2 -12.6 5.05 -16.35" fill="none" stroke="#000000" stroke-linecap="round" stroke-linejoin="round" stroke-width="1.0"/>
  </g>
</svg>
