<?xml version="1.0" encoding="UTF-8" standalone="no"?>
<svg xmlns:xlink="http://www.w3.org/1999/xlink" height="50.85px" width="40.5px" xmlns="http://www.w3.org/2000/svg">
  <g transform="matrix(1.0, 0.0, 0.0, 1.0, 27.05, 40.25)">
    <path d="M-11.45 -9.2 Q-11.3 -16.25 -10.6 -24.0 L-10.65 -24.5 -9.9 -31.65 Q-8.75 -39.9 -5.45 -39.2 -2.25 -38.55 -2.3 -31.6 -1.05 -38.35 2.8 -38.65 6.55 -39.0 7.3 -31.5 8.95 -38.75 11.35 -37.9 12.4 -37.55 12.45 -35.15 12.5 -32.55 11.25 -27.2 L10.75 -24.5 10.7 -24.45 10.65 -24.4 10.6 -24.0 Q8.75 -11.5 9.3 -2.0 L9.85 0.2 10.95 2.3 Q7.9 -0.7 3.4 -0.15 -4.95 2.15 -7.85 7.25 L-9.2 6.25 Q-10.65 4.6 -11.2 2.5 L-11.3 2.15 -9.75 2.45 Q-7.9 2.45 -6.65 0.7 -5.5 -1.1 -5.65 -3.5 -5.85 -5.95 -7.25 -7.6 -8.65 -9.35 -10.45 -9.3 L-11.45 -9.2 M-12.65 1.15 Q-17.05 4.15 -24.05 1.9 -22.95 0.3 -17.0 -1.0 -25.1 -0.85 -26.05 -3.05 -24.65 -4.15 -17.2 -5.2 -23.85 -7.9 -23.35 -11.45 -15.7 -11.05 -13.3 -7.9 L-13.5 -7.6 Q-14.5 -6.25 -14.55 -4.3 L-14.6 -3.5 Q-14.55 -2.35 -14.1 -1.25 L-17.0 -1.0 -14.1 -1.25 Q-13.75 -0.25 -13.0 0.7 L-12.65 1.15 M-17.2 -5.2 L-14.55 -4.3 -17.2 -5.2" fill="#ffffff" fill-rule="evenodd" stroke="none"/>
    <path d="M-11.45 -9.2 Q-11.3 -16.25 -10.6 -24.0 L-10.65 -24.5 -9.9 -31.65 Q-8.75 -39.9 -5.45 -39.2 -2.25 -38.55 -2.3 -31.6 -1.05 -38.35 2.8 -38.65 6.55 -39.0 7.3 -31.5 8.95 -38.75 11.35 -37.9 12.4 -37.55 12.45 -35.15 12.5 -32.55 11.25 -27.2 L10.75 -24.5 10.7 -24.45 10.65 -24.4 10.6 -24.0 Q8.75 -11.5 9.3 -2.0 L9.85 0.2 10.95 2.3 12.0 5.35 11.95 6.65 Q11.35 8.6 9.4 9.25 L0.8 9.5 Q-4.7 9.15 -7.85 7.25 L-9.2 6.25 Q-10.65 4.6 -11.2 2.5 L-11.3 2.15 -12.65 1.15 Q-17.05 4.15 -24.05 1.9 -22.95 0.3 -17.0 -1.0 -25.1 -0.85 -26.05 -3.05 -24.65 -4.15 -17.2 -5.2 -23.85 -7.9 -23.35 -11.45 -15.7 -11.05 -13.3 -7.9 -12.55 -8.9 -11.45 -9.2 L-10.45 -9.3 Q-8.65 -9.35 -7.25 -7.6 -5.85 -5.95 -5.65 -3.5 -5.5 -1.1 -6.65 0.7 -7.9 2.45 -9.75 2.45 L-11.3 2.15 M-14.1 -1.25 Q-14.55 -2.35 -14.6 -3.5 L-14.55 -4.3 -17.2 -5.2 M-17.0 -1.0 L-14.1 -1.25 Q-13.75 -0.25 -13.0 0.7 L-12.65 1.15 M-14.55 -4.3 Q-14.5 -6.25 -13.5 -7.6 L-13.3 -7.9 M-7.85 7.25 Q-4.95 2.15 3.4 -0.15 7.9 -0.7 10.95 2.3" fill="none" stroke="#000000" stroke-linecap="round" stroke-linejoin="round" stroke-width="2.0"/>
  </g>
</svg>
