<?xml version="1.0" encoding="UTF-8" standalone="no"?>
<svg xmlns:xlink="http://www.w3.org/1999/xlink" height="25.05px" width="25.75px" xmlns="http://www.w3.org/2000/svg">
  <g transform="matrix(1.0, 0.0, 0.0, 1.0, 12.35, 14.05)">
    <path d="M-10.95 2.05 Q-11.6 -1.9 -11.2 -5.9 L-10.65 -13.05 Q-7.0 -11.45 -0.1 -11.25 L1.85 -11.2 Q9.05 -11.85 9.6 -12.55 L8.85 -3.65 9.55 -2.85 11.25 -0.55 Q12.05 0.7 12.3 2.15 12.55 3.55 12.2 4.3 L12.3 5.55 12.25 6.8 Q11.75 8.7 9.95 9.4 L9.45 9.5 0.95 10.0 Q-5.45 9.85 -8.7 7.3 -10.1 5.7 -10.65 3.65 L-10.95 2.35 -11.0 2.0 M-10.95 2.35 L-10.95 2.05" fill="none" stroke="#000000" stroke-linecap="round" stroke-linejoin="round" stroke-width="2.0"/>
    <path d="M-11.0 2.0 L-10.95 2.05 Q-9.7 3.45 -4.7 4.95 L-1.4 5.8 Q-1.35 1.6 0.85 -0.6 -0.55 -4.45 -0.1 -11.25 M9.55 -2.85 Q3.35 -3.1 0.85 -0.6 M-1.4 5.8 Q4.9 7.1 9.45 5.8 11.0 5.3 12.2 4.3" fill="none" stroke="#000000" stroke-linecap="round" stroke-linejoin="round" stroke-width="1.5"/>
  </g>
</svg>
