<?xml version="1.0" encoding="UTF-8" standalone="no"?>
<svg xmlns:xlink="http://www.w3.org/1999/xlink" height="26.9px" width="24.8px" xmlns="http://www.w3.org/2000/svg">
  <g transform="matrix(1.0, 0.0, 0.0, 1.0, 12.85, 15.55)">
    <path d="M-5.8 -8.5 Q-5.8 -7.85 -6.2 -7.4 -6.55 -6.95 -7.1 -6.95 -7.65 -6.95 -8.05 -7.4 -8.4 -7.85 -8.4 -8.5 -8.4 -9.1 -8.05 -9.55 -7.65 -10.0 -7.1 -10.0 -6.55 -10.0 -6.2 -9.55 -5.8 -9.1 -5.8 -8.5" fill="#b98c60" fill-rule="evenodd" stroke="none"/>
    <path d="M-3.15 -11.45 L0.1 -11.15 Q8.45 -10.7 9.2 -12.7 8.55 -6.65 9.6 1.75 10.7 4.05 10.95 5.75 L10.75 7.7 Q10.45 8.9 9.0 9.85 7.5 10.75 1.2 9.95 -3.7 9.35 -5.45 8.35 L-7.45 3.95 -8.0 7.45 Q-10.7 6.9 -11.8 4.25 -11.4 1.15 -11.6 -1.7 L-11.8 -6.3 Q-12.0 -9.95 -11.6 -14.55 -9.0 -12.2 -3.15 -11.45 -3.15 -7.85 -3.95 -5.6 -6.7 -4.15 -11.8 -6.3" fill="none" stroke="#000000" stroke-linecap="round" stroke-linejoin="round" stroke-width="2.0"/>
    <path d="M-5.8 -8.5 Q-5.8 -7.85 -6.2 -7.4 -6.55 -6.95 -7.1 -6.95 -7.65 -6.95 -8.05 -7.4 -8.4 -7.85 -8.4 -8.5 -8.4 -9.1 -8.05 -9.55 -7.65 -10.0 -7.1 -10.0 -6.55 -10.0 -6.2 -9.55 -5.8 -9.1 -5.8 -8.5 M-7.8 0.35 Q-4.2 1.2 -3.1 3.2 -2.2 4.85 1.85 4.95 L5.8 4.4 9.45 4.6" fill="none" stroke="#000000" stroke-linecap="round" stroke-linejoin="round" stroke-width="1.0"/>
  </g>
</svg>
