<?xml version="1.0" encoding="UTF-8" standalone="no"?>
<svg xmlns:xlink="http://www.w3.org/1999/xlink" height="17.25px" width="23.95px" xmlns="http://www.w3.org/2000/svg">
  <g transform="matrix(1.0, 0.0, 0.0, 1.0, 11.85, 6.9)">
    <path d="M-3.0 -1.25 Q-3.9 -2.95 -3.4 -4.65 2.75 -7.5 8.35 -4.85 9.3 -2.5 9.1 -0.6 L9.1 0.6 9.1 1.0 Q11.0 2.7 11.25 4.4 L11.35 5.3 11.2 7.25 Q10.85 8.4 8.8 9.1 L0.8 9.5 Q-5.15 9.15 -8.9 6.75 -10.75 4.45 -10.9 2.4 L-10.9 2.35 -11.1 -5.1 Q-8.4 -2.1 -3.0 -1.25 -2.0 0.45 -0.7 0.9 L9.1 0.6 M-10.9 2.35 Q-8.0 4.55 -4.55 5.5 3.9 7.35 11.35 5.3" fill="none" stroke="#000000" stroke-linecap="round" stroke-linejoin="round" stroke-width="1.5"/>
  </g>
</svg>
