<?xml version="1.0" encoding="UTF-8" standalone="no"?>
<svg xmlns:xlink="http://www.w3.org/1999/xlink" height="13.2px" width="23.1px" xmlns="http://www.w3.org/2000/svg">
  <g transform="matrix(1.0, 0.0, 0.0, 1.0, 11.5, 2.2)">
    <path d="M2.5 10.2 L2.45 10.2 M2.8 2.1 L5.2 2.8 6.75 2.0 M7.4 3.9 L5.35 5.15 7.5 6.25 7.7 6.15 7.55 3.95 7.4 3.9 5.2 2.8 2.25 3.95 5.35 5.15 2.55 6.8 5.4 7.6 7.5 6.25 M7.5 3.15 L7.6 3.95 7.7 6.15 7.7 6.9 7.7 7.0 7.7 8.2 9.2 7.15 8.4 7.1 8.35 7.05 Q7.95 6.7 7.9 6.15 7.8 5.4 8.1 4.85 L8.15 4.75 Q8.45 4.25 8.9 4.1 9.35 3.95 9.7 4.3 L10.1 5.3 10.25 4.15 M8.15 4.75 L9.05 5.6 9.7 4.3 M7.45 3.05 L7.55 3.95 7.6 3.95 M-2.3 6.0 L-3.35 7.15 -1.2 7.85 -1.3 7.75 Q-1.7 7.3 -1.7 6.65 -1.7 5.95 -1.2 5.45 L-1.1 5.35 Q-0.65 5.0 0.0 5.0 0.7 5.0 1.2 5.45 1.7 5.95 1.7 6.65 1.7 7.4 1.2 7.85 L0.65 8.25 2.45 8.5 2.05 3.1 2.25 3.95 2.55 6.8 2.55 8.5 2.5 9.55 5.4 7.6 7.7 8.2 7.65 9.75 M0.65 8.25 L0.0 8.35 -0.45 8.3 -0.65 8.65 M1.2 5.45 L0.0 6.55 1.2 7.85 M2.5 9.55 L2.5 10.2 M2.55 8.5 L2.45 8.5 2.4 10.2 M10.05 6.7 L9.95 6.45 9.9 6.45 9.25 7.1 9.2 7.15 M7.7 8.2 L7.55 9.8 M9.05 5.6 L9.9 6.45 M8.35 7.05 L9.05 5.6 M7.7 6.15 L7.7 6.9 M10.1 5.3 L9.95 6.45 M-10.7 0.1 Q-9.9 1.95 -8.75 3.4 L-7.9 2.65 M-8.95 3.55 L-8.75 3.4 -7.3 4.85 -6.3 4.05 M-7.9 5.25 L-7.3 4.85 -5.5 6.15 -4.55 5.45 M-0.45 8.3 L-1.2 7.85 M-3.95 7.8 L-3.35 7.15 -5.5 6.15 -6.2 6.6 M-1.3 7.75 L0.0 6.55 -1.1 5.35" fill="none" stroke="#000000" stroke-linecap="round" stroke-linejoin="round" stroke-width="0.5"/>
    <path d="M2.45 10.2 L2.4 10.2 Q-2.65 9.85 -6.3 7.6 -11.15 4.45 -10.7 0.1 L-10.4 -1.45 Q-5.95 3.2 1.6 3.65 L2.05 3.1 2.8 2.1 4.55 -0.25 Q5.7 0.65 6.75 2.0 L7.45 3.05 7.5 3.15 7.65 3.35 Q8.5 3.35 9.15 1.6 11.4 4.8 10.7 7.1 9.85 8.95 7.65 9.75 L7.55 9.8 4.75 10.25 2.5 10.2 Z" fill="none" stroke="#000000" stroke-linecap="round" stroke-linejoin="round" stroke-width="1.5"/>
  </g>
</svg>
