<?xml version="1.0" encoding="UTF-8" standalone="no"?>
<svg xmlns:xlink="http://www.w3.org/1999/xlink" height="21.75px" width="26.45px" xmlns="http://www.w3.org/2000/svg">
  <g transform="matrix(1.0, 0.0, 0.0, 1.0, 14.15, 11.1)">
    <path d="M10.0 -1.5 Q9.35 -2.85 9.25 -4.1 L7.75 -4.15 Q5.9 -1.7 1.85 -3.5 -3.25 -1.55 -5.3 -4.35 L-5.7 -4.25 Q-9.4 -3.35 -10.15 -5.8 L-10.75 -5.65 Q-12.8 -6.6 -13.15 -7.45 -12.9 -9.15 -10.7 -10.1 -8.8 -7.3 -0.7 -7.05 7.4 -6.85 9.4 -8.8 11.95 -6.35 10.55 -4.65 10.0 -4.25 9.25 -4.1 M10.0 -1.5 Q9.95 -1.25 10.15 -1.1 L11.3 1.95 10.65 1.7 Q11.7 4.9 10.7 7.45 9.65 10.05 2.05 9.55 -5.6 9.0 -8.25 5.55 -10.95 2.05 -10.75 -5.65" fill="none" stroke="#000000" stroke-linecap="round" stroke-linejoin="round" stroke-width="2.0"/>
    <path d="M-3.45 0.7 Q-0.8 -1.2 4.0 -2.15 7.8 -2.5 10.0 -1.5 M-3.45 0.7 L-3.85 1.0 -3.65 1.0 -3.05 1.1 Q-2.65 1.2 -2.3 1.5 L-1.85 2.15 -1.75 2.8 Q-1.75 3.5 -2.2 4.0 L-0.55 3.0 Q4.85 0.05 9.9 1.5 L10.65 1.7 M-2.2 4.0 L-2.3 4.05 Q-2.85 4.55 -3.65 4.55 -4.45 4.55 -5.0 4.05 -5.55 3.55 -5.55 2.8 -5.55 2.05 -5.0 1.5 -4.65 1.15 -4.15 1.05 L-3.85 1.0" fill="none" stroke="#000000" stroke-linecap="round" stroke-linejoin="round" stroke-width="1.0"/>
    <path d="M-5.7 -4.25 Q-5.3 -1.4 -3.45 0.7 M-0.55 3.0 Q2.25 4.6 5.4 4.35 8.65 4.05 9.9 1.5" fill="none" stroke="#000000" stroke-linecap="round" stroke-linejoin="round" stroke-width="1.5"/>
  </g>
</svg>
