<?xml version="1.0" encoding="UTF-8" standalone="no"?>
<svg xmlns:xlink="http://www.w3.org/1999/xlink" height="22.7px" width="25.2px" xmlns="http://www.w3.org/2000/svg">
  <g transform="matrix(1.0, 0.0, 0.0, 1.0, 13.0, 11.8)">
    <path d="M10.65 1.7 L9.95 -1.5 M-10.95 -6.85 L-5.1 -5.95 Q3.5 -5.0 9.2 -6.75 L9.65 -10.5 Q1.4 -8.3 -11.25 -10.8 L-10.95 -6.85 Q-12.15 -4.35 -11.95 -0.35 -11.35 2.85 -11.4 5.85 L-7.5 7.6 -7.4 7.7 Q-8.05 3.4 -8.85 1.5 M-7.4 7.7 Q-5.25 9.75 2.1 9.9 9.65 10.05 10.7 7.45 11.7 4.9 10.65 1.7" fill="none" stroke="#000000" stroke-linecap="round" stroke-linejoin="round" stroke-width="2.0"/>
    <path d="M9.95 -1.5 Q7.75 -2.5 4.0 -2.15 -0.7 -1.2 -3.45 0.7 M-0.65 3.05 L-0.55 3.0 Q4.85 0.05 9.9 1.5 L10.65 1.7" fill="none" stroke="#000000" stroke-linecap="round" stroke-linejoin="round" stroke-width="1.0"/>
    <path d="M-3.45 0.7 Q-2.55 2.25 -0.65 3.05 L-0.1 3.35 Q2.4 4.6 5.4 4.35 8.65 4.05 9.9 1.5 M-0.55 3.0 L-0.1 3.35 M-3.45 0.7 Q-4.95 -2.3 -5.1 -5.95" fill="none" stroke="#000000" stroke-linecap="round" stroke-linejoin="round" stroke-width="1.5"/>
  </g>
</svg>
