<?xml version="1.0" encoding="UTF-8" standalone="no"?>
<svg xmlns:xlink="http://www.w3.org/1999/xlink" height="43.9px" width="25.1px" xmlns="http://www.w3.org/2000/svg">
  <g transform="matrix(1.0, 0.0, 0.0, 1.0, 11.85, 33.5)">
    <path d="M8.65 -3.05 L8.65 0.75 Q4.9 0.1 1.4 0.85 L-3.45 1.7 -5.85 -1.7 Q2.25 -4.3 8.65 -3.05" fill="#ffff33" fill-rule="evenodd" stroke="none"/>
    <path d="M-10.7 -9.55 L-10.6 -9.55 Q-7.05 -7.65 -0.25 -7.4 6.65 -7.2 8.65 -8.5 L8.65 -3.05 Q2.25 -4.3 -5.85 -1.7 -9.1 -5.65 -10.7 -9.55" fill="#eab1ff" fill-rule="evenodd" stroke="none"/>
    <path d="M-3.45 1.7 Q-8.25 0.8 -10.55 -0.75 L-10.6 -0.5 Q-10.15 -3.2 -10.7 -9.55 -9.1 -5.65 -5.85 -1.7 L-3.45 1.7" fill="#a3ffca" fill-rule="evenodd" stroke="none"/>
    <path d="M11.2 -26.1 L11.7 -28.7 12.25 -31.5 Q4.05 -29.2 -9.15 -32.5 L-10.1 -27.6 -10.35 -25.85 -10.4 -25.15 -10.5 -24.15 -10.8 -18.6 -10.85 -14.25 -10.85 -14.05 -10.7 -9.6 -10.7 -9.55 Q-10.15 -3.2 -10.6 -0.5 L-10.55 -0.75 M11.2 -26.1 L10.8 -24.0 10.55 -22.85 9.75 -18.1 9.55 -16.6 8.65 -8.5 8.65 -3.05 8.65 0.75 9.1 1.55 Q10.35 3.75 10.8 5.2 L10.95 5.9 10.85 7.0 Q10.35 8.65 8.55 9.15 6.7 9.6 0.8 9.3 -5.15 9.0 -8.25 6.65 -9.55 5.3 -10.15 3.5 L-10.25 3.2 Q-10.75 1.05 -10.6 -0.5" fill="none" stroke="#000000" stroke-linecap="round" stroke-linejoin="round" stroke-width="2.0"/>
    <path d="M-10.1 -27.6 Q2.25 -24.1 11.2 -26.1 M8.65 -8.5 Q6.65 -7.2 -0.25 -7.4 -7.05 -7.65 -10.6 -9.55 L-10.7 -9.6 M-10.55 -0.75 Q-8.25 0.8 -3.45 1.7 L-5.85 -1.7 Q-9.1 -5.65 -10.7 -9.55 M-10.25 3.2 Q-6.8 4.85 -0.25 5.65 L10.8 5.2 M-3.45 1.7 L1.4 0.85 Q4.9 0.1 8.65 0.75 M-5.85 -1.7 Q2.25 -4.3 8.65 -3.05" fill="none" stroke="#000000" stroke-linecap="round" stroke-linejoin="round" stroke-width="1.0"/>
  </g>
</svg>
