<?xml version="1.0" encoding="UTF-8" standalone="no"?>
<svg xmlns:xlink="http://www.w3.org/1999/xlink" height="30.85px" width="24.05px" xmlns="http://www.w3.org/2000/svg">
  <g transform="matrix(1.0, 0.0, 0.0, 1.0, 12.1, 20.25)">
    <path d="M5.95 -11.1 Q7.35 -9.95 9.2 -9.35 L9.1 -8.0 5.95 -11.1" fill="#bfe8ff" fill-rule="evenodd" stroke="none"/>
    <path d="M9.2 -9.35 L9.7 -9.2 Q11.0 -9.8 11.2 -12.85 11.5 -16.2 10.4 -16.65 L9.85 -16.5 Q7.95 -15.9 5.8 -13.95 L6.1 -12.55 8.15 -12.6 M9.0 -6.45 L7.15 -5.0 4.95 -10.8 4.6 -4.6 1.15 -4.8 3.5 -10.8 Q1.15 -9.0 -1.1 -8.2 -2.35 -8.25 -3.0 -9.7 -3.35 -11.85 -2.9 -14.15 -2.65 -16.5 -0.2 -15.9 2.55 -15.15 3.95 -13.85 L3.9 -14.15 5.7 -14.15 5.8 -13.95 M1.7 -12.35 L4.05 -12.45 3.95 -13.85 M5.95 -11.1 Q7.35 -9.95 9.2 -9.35 M9.1 -8.0 L9.9 -7.2 9.0 -6.45 M9.1 -8.0 L5.95 -11.1 Q5.45 -10.8 4.95 -10.8 L3.8 -11.1 3.5 -10.8 M6.1 -12.55 L5.95 -11.1 M3.8 -11.1 L4.05 -12.45" fill="none" stroke="#000000" stroke-linecap="round" stroke-linejoin="round" stroke-width="1.3"/>
    <path d="M9.0 -6.45 L8.7 -1.05 9.1 1.0 Q10.35 3.35 10.65 4.35 L10.95 5.75 10.85 6.95 Q10.35 8.75 8.55 9.3 L0.8 9.5 Q-5.15 9.15 -8.25 6.6 -9.55 5.1 -10.15 3.15 L-10.5 1.6 Q-10.8 -0.15 -10.7 -2.15 L-10.65 -2.45 Q-11.15 -8.65 -11.1 -19.25 -9.4 -16.8 -1.25 -16.25 6.85 -15.7 10.05 -18.35 L9.85 -16.5 M9.2 -9.35 L9.1 -8.0" fill="none" stroke="#000000" stroke-linecap="round" stroke-linejoin="round" stroke-width="2.0"/>
    <path d="M-10.5 1.6 Q-9.35 2.95 -4.6 4.6 6.15 7.0 10.65 4.35" fill="none" stroke="#000000" stroke-linecap="round" stroke-linejoin="round" stroke-width="1.0"/>
  </g>
</svg>
