<?xml version="1.0" encoding="UTF-8" standalone="no"?>
<svg xmlns:xlink="http://www.w3.org/1999/xlink" height="23.35px" width="23.3px" xmlns="http://www.w3.org/2000/svg">
  <g transform="matrix(1.0, 0.0, 0.0, 1.0, 11.6, 12.5)">
    <path d="M6.7 -7.2 Q6.6 -1.7 7.6 1.05 8.75 1.5 9.85 2.45 L9.1 1.0 8.8 -0.75 9.0 -7.05 6.7 -7.2 0.2 -7.05 -0.2 -7.05 -0.2 -7.0 Q-0.3 -1.95 1.4 1.5 L3.75 0.8 7.6 1.05 M9.85 2.45 Q10.75 4.45 10.95 5.75 L10.95 6.3 10.7 7.6 Q10.35 8.75 8.8 9.55 L1.25 10.0 Q-4.8 9.6 -8.85 7.3 -10.1 6.0 -10.55 3.2 -11.0 0.4 -10.6 -3.25 L-10.85 -9.15 Q-7.55 -6.75 -0.2 -7.05 -0.4 -10.15 0.4 -11.2 3.2 -12.3 6.75 -11.2 7.3 -10.1 6.7 -7.2 M-10.55 3.2 Q-8.0 5.05 -2.75 6.05 -2.4 3.9 -0.9 2.75 -0.05 2.05 1.4 1.5 M-2.75 6.05 Q5.05 6.9 10.95 6.3" fill="none" stroke="#000000" stroke-linecap="round" stroke-linejoin="round" stroke-width="1.5"/>
    <path d="M1.05 -2.45 L4.1 -1.1 6.15 -2.6 M1.05 -3.0 L3.65 -4.75 0.7 -6.2 M4.1 -1.1 L6.6 -0.05 M3.65 -4.75 L6.0 -6.4 M3.65 -4.75 L6.15 -3.55 M1.75 0.45 L4.1 -1.1 M-6.15 -0.45 Q-6.15 0.4 -6.65 0.9 -7.15 1.4 -7.9 1.35 -8.6 1.25 -9.1 0.6 -9.65 0.0 -9.65 -0.85 -9.65 -1.7 -9.1 -2.25 -8.6 -2.75 -7.9 -2.65 -7.15 -2.6 -6.65 -1.95 -6.15 -1.3 -6.15 -0.45" fill="none" stroke="#000000" stroke-linecap="round" stroke-linejoin="round" stroke-width="1.0"/>
  </g>
</svg>
