<?xml version="1.0" encoding="UTF-8" standalone="no"?>
<svg xmlns:xlink="http://www.w3.org/1999/xlink" height="33.95px" width="30.9px" xmlns="http://www.w3.org/2000/svg">
  <g transform="matrix(1.0, 0.0, 0.0, 1.0, 13.6, 22.4)">
    <path d="M6.45 -20.6 Q5.05 -19.95 4.8 -19.25 3.65 -16.85 3.75 -13.45 8.9 -15.15 11.6 -14.65 12.95 -19.35 13.0 -21.05 11.0 -21.95 6.45 -20.6 M11.6 -14.65 L11.05 -13.0 Q9.45 -7.85 8.95 -1.15 L8.8 1.0 Q10.15 3.75 10.5 6.35 L10.55 6.8 Q10.7 9.65 6.65 10.3 2.25 11.05 -1.85 9.45 -5.95 7.95 -6.6 5.65 L-6.2 7.3 -8.65 4.8 -9.4 -0.3 -11.0 -9.05 Q-12.55 -16.35 -12.6 -21.1 -7.5 -19.0 4.8 -19.25 M3.75 -13.45 Q2.75 -6.95 2.85 -0.3 6.25 1.1 8.95 -1.15" fill="none" stroke="#000000" stroke-linecap="round" stroke-linejoin="round" stroke-width="2.0"/>
    <path d="M-9.4 -0.3 Q-8.0 1.8 -6.1 2.35 L-4.45 4.8 Q-2.85 7.15 1.4 7.5 6.8 7.9 10.55 6.8" fill="none" stroke="#000000" stroke-linecap="round" stroke-linejoin="round" stroke-width="1.0"/>
    <path d="M10.0 -14.55 Q6.65 -13.55 5.2 -12.2 L7.4 -10.05 7.7 -10.15 8.35 -10.7 Q9.55 -11.8 10.65 -14.0 L10.9 -13.4 Q12.45 -10.35 16.25 -10.75 17.8 -12.75 11.6 -14.65 M10.9 -13.4 L10.85 -13.35 Q11.2 -10.45 12.3 -6.85 M7.4 -10.05 L7.4 -10.0 7.7 -10.15 M10.85 -13.35 L10.25 -12.2 8.6 -8.8 9.35 -8.05 M7.4 -10.0 L8.6 -8.8 7.15 -6.0 M9.25 -6.6 L6.3 -3.85 8.55 -1.75 M3.8 -7.3 L7.4 -10.0 M5.2 -12.2 Q4.0 -11.15 4.1 -9.9 L7.4 -10.05 M3.65 -1.35 L6.3 -3.85 3.45 -6.55 M8.35 -10.7 L10.25 -12.2 M4.3 -13.15 L5.2 -12.2" fill="none" stroke="#000000" stroke-linecap="round" stroke-linejoin="round" stroke-width="1.5"/>
  </g>
</svg>
