<?xml version="1.0" encoding="UTF-8" standalone="no"?>
<svg xmlns:xlink="http://www.w3.org/1999/xlink" height="37.8px" width="28.1px" xmlns="http://www.w3.org/2000/svg">
  <g transform="matrix(1.0, 0.0, 0.0, 1.0, 14.95, 26.1)">
    <path d="M9.45 -11.8 Q10.05 -12.4 9.9 -13.45 11.3 -12.8 12.25 -15.1 12.45 -16.8 11.1 -18.05 12.6 -18.35 12.35 -20.65 11.05 -22.4 9.05 -21.7 8.35 -23.5 6.2 -23.6 4.15 -23.1 3.55 -21.4 3.6 -24.25 0.5 -25.15 -2.75 -26.0 -3.95 -23.05 -5.45 -25.05 -7.75 -24.9 -9.45 -24.9 -10.85 -22.7 -13.8 -22.85 -14.15 -20.5 -14.45 -18.15 -12.5 -17.95 -13.75 -16.8 -13.65 -15.6 -13.1 -13.85 -11.4 -13.85 L-11.15 -13.9 Q-8.85 -14.0 -8.5 -16.25 -8.4 -13.85 -6.35 -13.9 L-5.0 -14.15 Q-4.35 -14.5 -4.35 -15.1 -4.25 -12.95 -1.85 -12.65 0.5 -12.3 0.7 -14.3 1.25 -12.25 3.1 -12.15 5.15 -12.1 5.25 -14.1 6.1 -11.25 8.75 -11.35 9.2 -11.55 9.45 -11.8 L9.25 -10.05 9.2 -9.55 Q8.9 -6.85 9.0 -4.55 L9.05 -3.2 9.15 -2.2 9.35 -0.9 Q11.1 1.0 11.3 5.0 L11.3 8.45 Q9.65 11.4 3.4 10.85 -3.7 10.1 -7.0 7.1 -11.35 6.5 -11.2 4.45 L-10.8 -0.7 -10.7 -2.25 -11.4 -13.85 M-3.0 -0.1 L-1.65 1.65 Q0.75 -1.95 6.1 -2.65 8.1 -2.3 9.35 -0.9 M11.3 5.0 Q10.0 6.6 5.0 7.0 0.25 7.15 -3.3 5.75 L-5.6 4.55 Q-9.5 1.95 -10.8 -0.7 M-6.6 -11.3 Q-6.6 -10.75 -7.0 -10.4 -7.35 -10.05 -7.9 -10.05 -8.4 -10.05 -8.8 -10.4 -9.15 -10.75 -9.15 -11.3 L-8.8 -12.25 Q-8.4 -12.6 -7.9 -12.6 -7.35 -12.6 -7.0 -12.25 -6.6 -11.85 -6.6 -11.3 M-6.2 -4.6 Q-6.2 -4.05 -6.6 -3.7 -6.95 -3.35 -7.5 -3.35 -8.0 -3.35 -8.4 -3.7 -8.75 -4.05 -8.75 -4.6 L-8.4 -5.55 Q-8.0 -5.9 -7.5 -5.9 -6.95 -5.9 -6.6 -5.55 -6.2 -5.15 -6.2 -4.6 M-3.0 -0.1 Q-5.95 -4.95 -5.0 -14.15 M-3.65 1.6 Q-3.65 2.15 -4.05 2.5 -4.4 2.85 -4.95 2.85 -5.45 2.85 -5.85 2.5 -6.2 2.15 -6.2 1.6 -6.2 1.05 -5.85 0.65 -5.45 0.3 -4.95 0.3 -4.4 0.3 -4.05 0.65 -3.65 1.05 -3.65 1.6 M-3.3 5.75 Q-2.8 3.35 -1.65 1.65" fill="none" stroke="#000000" stroke-linecap="round" stroke-linejoin="round" stroke-width="1.5"/>
    <path d="M-3.0 -0.1 Q-0.5 -3.25 3.7 -4.65 L-4.75 -4.9 Q-0.95 -7.05 3.9 -8.6 -0.4 -10.65 -5.2 -11.7 2.95 -12.1 8.45 -9.85 L9.25 -10.05 M8.45 -9.85 L9.2 -9.55 M3.9 -8.6 L8.45 -9.85 M3.7 -4.65 Q6.05 -5.45 8.95 -5.7 6.5 -7.35 3.9 -8.6 M9.15 -2.2 Q8.05 -4.05 3.7 -4.65" fill="none" stroke="#000000" stroke-linecap="round" stroke-linejoin="round" stroke-width="1.0"/>
  </g>
</svg>
