<?xml version="1.0" encoding="UTF-8" standalone="no"?>
<svg xmlns:xlink="http://www.w3.org/1999/xlink" height="45.5px" width="26.4px" xmlns="http://www.w3.org/2000/svg">
  <g transform="matrix(1.0, 0.0, 0.0, 1.0, 12.2, 34.9)">
    <path d="M-2.35 -11.35 L-2.1 -16.75 -1.6 -22.9 -0.95 -28.35 -0.6 -31.05 M-10.7 -3.3 L-8.35 -1.0 Q-8.7 3.95 -8.05 6.75 M-5.5 8.25 Q-6.15 2.7 -4.05 -0.3 L-2.6 0.05 -2.55 -5.7 -2.35 -11.3 -2.35 -11.35 M10.0 -31.1 L10.05 -31.5 M7.15 -0.4 Q6.6 -11.25 10.0 -31.1 M-2.55 0.05 Q4.15 1.4 7.15 0.1 L7.15 -0.4 M-2.6 0.05 L-2.55 0.05 M7.15 0.1 L8.7 -1.0" fill="none" stroke="#000000" stroke-linecap="round" stroke-linejoin="round" stroke-width="1.5"/>
    <path d="M-0.6 -31.05 Q-8.75 -32.05 -10.1 -33.9 L-10.35 -27.9 Q-11.5 -14.75 -10.7 -3.3 L-10.65 -2.45 -10.9 -0.95 -11.2 2.1 -9.9 4.4 -8.25 6.6 -8.05 6.75 Q-6.95 7.6 -5.5 8.25 -2.9 9.3 0.8 9.5 L8.55 9.3 Q10.35 8.75 10.85 6.95 L10.95 5.75 10.65 4.35 Q10.35 3.35 9.1 1.0 L8.7 -1.0 8.7 -1.05 Q9.3 -15.65 13.2 -32.85 12.2 -31.65 10.0 -31.1 6.8 -30.35 1.05 -30.9 L-0.6 -31.05" fill="none" stroke="#000000" stroke-linecap="round" stroke-linejoin="round" stroke-width="2.0"/>
    <path d="M-2.35 -11.3 L-2.4 -11.35 -2.35 -11.35 Q0.7 -12.4 3.05 -13.65 L-2.1 -16.75 Q1.25 -17.9 3.85 -19.3 L-1.6 -22.9 Q2.1 -23.85 4.6 -24.9 L-0.95 -28.35 M4.6 -24.9 Q7.85 -26.35 9.05 -28.05 M4.6 -24.9 L8.6 -22.45 Q6.6 -20.75 3.85 -19.3 L7.5 -16.9 Q5.8 -15.1 3.05 -13.65 L7.35 -11.05 Q5.85 -9.25 3.05 -7.8 L6.6 -5.55 Q5.5 -3.85 3.3 -2.5 L7.15 -0.4 M3.05 -7.8 Q0.7 -6.65 -2.55 -5.7 L3.3 -2.5 Q1.0 -1.05 -2.55 0.05 M3.05 -7.8 L-2.35 -11.3" fill="none" stroke="#000000" stroke-linecap="round" stroke-linejoin="round" stroke-width="1.0"/>
  </g>
</svg>
