<?xml version="1.0" encoding="UTF-8" standalone="no"?>
<svg xmlns:xlink="http://www.w3.org/1999/xlink" height="24.2px" width="25.15px" xmlns="http://www.w3.org/2000/svg">
  <g transform="matrix(1.0, 0.0, 0.0, 1.0, 12.1, 13.45)">
    <path d="M5.0 -1.4 L5.2 -1.4 5.7 -1.5 6.6 -1.55 Q9.5 0.35 11.1 0.25 L11.2 0.35 12.1 2.05 Q12.4 2.9 12.2 4.3 L12.3 5.55 12.25 6.8 Q11.75 8.7 9.95 9.4 L9.45 9.5 0.95 10.0 Q-5.45 9.85 -8.7 7.3 -10.1 5.7 -10.65 3.65 L-10.95 2.35 -10.95 2.05 Q-9.7 3.45 -4.7 4.95 L-1.4 5.8 Q-1.35 2.65 0.0 1.05 2.15 0.65 4.3 -1.25 L5.0 -1.4" fill="#ffffff" fill-rule="evenodd" stroke="none"/>
    <path d="M-0.25 -6.3 Q-1.25 -7.4 -1.05 -9.2 -2.95 -10.25 -1.35 -12.0 0.3 -13.15 1.6 -11.6 3.7 -12.2 6.4 -11.55 7.0 -13.15 8.75 -12.55 10.75 -11.45 9.45 -9.5 9.8 -7.8 9.45 -6.85 L8.7 -5.95 Q7.7 -4.95 6.25 -4.7 L6.05 -4.65 4.4 -4.65 4.3 -4.65 3.05 -4.8 2.9 -4.8 Q0.7 -5.2 -0.25 -6.3" fill="#9c807a" fill-rule="evenodd" stroke="none"/>
    <path d="M-0.25 -6.3 Q-1.25 -7.4 -1.05 -9.2 -2.95 -10.25 -1.35 -12.0 0.3 -13.15 1.6 -11.6 3.7 -12.2 6.4 -11.55 7.0 -13.15 8.75 -12.55 10.75 -11.45 9.45 -9.5 9.8 -7.8 9.45 -6.85 L10.8 -7.0 Q12.65 -3.0 11.85 0.0 L11.1 0.25 11.2 0.35 12.1 2.05 Q12.4 2.9 12.2 4.3 L12.3 5.55 12.25 6.8 Q11.75 8.7 9.95 9.4 L9.45 9.5 0.95 10.0 Q-5.45 9.85 -8.7 7.3 -10.1 5.7 -10.65 3.65 L-10.95 2.35 -11.0 2.0 -10.95 2.05 Q-11.6 -1.9 -11.2 -5.9 L-11.15 -6.4 Q-8.35 -5.45 -3.1 -5.05 -2.95 -6.0 -2.45 -6.55 L-0.25 -6.3 Q0.7 -5.2 2.9 -4.8 L3.05 -4.8 4.3 -4.65 4.4 -4.65 6.05 -4.65 6.25 -4.7 Q7.7 -4.95 8.7 -5.95 L9.45 -6.85 M2.9 -4.8 L2.95 -4.8 3.05 -4.8 M2.95 -4.8 L3.8 -4.2 3.9 -4.3 4.4 -4.65 M-3.1 -5.05 Q-3.35 -4.05 -3.2 -2.6 -3.0 0.25 -1.85 1.1 L0.0 1.05 Q2.15 0.65 4.3 -1.25 L4.55 -1.5 4.15 -1.85 Q3.75 -2.3 3.65 -3.1 3.5 -3.75 3.8 -4.2 M4.3 -1.25 L5.0 -1.4 4.55 -1.5 M6.25 -4.7 L6.1 -4.6 Q6.45 -4.2 6.6 -3.3 6.75 -2.45 6.35 -1.95 L6.2 -1.8 6.6 -1.55 Q9.5 0.35 11.1 0.25 M6.05 -4.65 L6.1 -4.6 M6.6 -1.55 L5.7 -1.5 5.2 -1.4 5.0 -1.4 M6.2 -1.8 L5.7 -1.5 M-10.95 2.35 L-10.95 2.05 Q-9.7 3.45 -4.7 4.95 L-1.4 5.8 Q-1.35 2.65 0.0 1.05 M-1.4 5.8 Q4.9 7.1 9.45 5.8 11.0 5.3 12.2 4.3" fill="none" stroke="#000000" stroke-linecap="round" stroke-linejoin="round" stroke-width="1.5"/>
  </g>
</svg>
