<?xml version="1.0" encoding="UTF-8" standalone="no"?>
<svg xmlns:xlink="http://www.w3.org/1999/xlink" height="14.0px" width="23.4px" xmlns="http://www.w3.org/2000/svg">
  <g transform="matrix(1.0, 0.0, 0.0, 1.0, 11.65, 1.0)">
    <path d="M10.85 5.9 L10.95 9.0 Q10.95 10.95 8.8 11.7 L0.7 12.0 Q-5.2 11.45 -9.65 9.05 -10.95 7.15 -10.85 4.75 L-10.8 1.05 Q-8.0 3.6 -1.0 4.55 L6.6 5.05 Q9.85 4.95 9.65 2.65 10.75 4.65 10.85 5.9 Z" fill="none" stroke="#000000" stroke-linecap="round" stroke-linejoin="round" stroke-width="1.6"/>
    <path d="M-1.4 5.85 Q-0.95 3.2 1.95 2.05 3.85 1.3 6.15 3.05 7.2 1.2 8.35 0.75 9.65 1.3 9.6 4.25" fill="none" stroke="#000000" stroke-linecap="round" stroke-linejoin="round" stroke-width="3.5"/>
  </g>
</svg>
