<?xml version="1.0" encoding="UTF-8" standalone="no"?>
<svg xmlns:xlink="http://www.w3.org/1999/xlink" height="15.7px" width="23.1px" xmlns="http://www.w3.org/2000/svg">
  <g transform="matrix(1.0, 0.0, 0.0, 1.0, 11.4, 4.65)">
    <path d="M-9.95 0.55 Q-5.75 -1.35 1.0 -1.75 7.4 -2.1 9.6 -0.3 M-9.95 2.15 Q-7.25 5.5 -2.7 7.0 1.85 8.45 5.9 8.15 9.95 7.85 10.75 6.15" fill="none" stroke="#000000" stroke-linecap="round" stroke-linejoin="round" stroke-width="1.0"/>
    <path d="M9.6 -0.3 L9.6 -2.6 Q8.1 -3.85 4.0 -3.9 -4.5 -3.95 -10.6 -1.9 -10.8 -1.25 -9.95 0.55 L-10.5 0.75 -9.95 2.15 Q-10.45 4.1 -9.5 5.3 -7.4 7.95 -3.0 9.4 4.45 11.3 10.3 9.25 11.2 8.65 10.75 6.15 L10.85 5.9 Q11.25 3.1 10.05 0.1 L9.6 -0.3" fill="none" stroke="#000000" stroke-linecap="round" stroke-linejoin="round" stroke-width="1.5"/>
  </g>
</svg>
