<?xml version="1.0" encoding="UTF-8" standalone="no"?>
<svg xmlns:xlink="http://www.w3.org/1999/xlink" height="34.05px" width="33.5px" xmlns="http://www.w3.org/2000/svg">
  <g transform="matrix(1.0, 0.0, 0.0, 1.0, 15.05, 21.55)">
    <path d="M4.5 8.8 Q3.85 6.25 6.3 5.8 8.2 6.7 8.25 8.55 L4.5 8.8 M12.45 7.9 Q11.8 5.4 14.2 4.9 16.05 5.8 16.1 7.7 L12.45 7.9 M-5.75 9.3 Q-6.4 6.75 -3.95 6.3 -2.1 7.2 -2.05 9.1 L-5.75 9.3" fill="#fafdff" fill-rule="evenodd" stroke="none"/>
    <path d="M2.8 -11.1 L-1.5 -13.1 -1.3 -8.6 2.8 -11.1 6.5 -13.7 6.25 -9.45 2.8 -11.1 M12.45 7.9 Q11.8 5.4 14.2 4.9 16.05 5.8 16.1 7.7 L12.45 7.9 M4.5 8.8 Q3.85 6.25 6.3 5.8 8.2 6.7 8.25 8.55 L4.5 8.8 M-5.75 9.3 Q-6.4 6.75 -3.95 6.3 -2.1 7.2 -2.05 9.1 L-5.75 9.3" fill="none" stroke="#000000" stroke-linecap="round" stroke-linejoin="round" stroke-width="1.0"/>
    <path d="M-1.45 10.2 L-2.45 10.9 -10.4 10.7 Q-13.95 8.9 -13.7 4.55 -14.85 -4.4 -13.85 -16.55 -13.55 -20.3 -10.8 -20.8 -10.55 -18.05 0.95 -17.4 8.65 -17.3 10.95 -20.15 12.8 -20.1 13.2 -16.1 13.5 -12.15 12.5 -5.2 17.6 -2.6 17.7 3.1 17.75 8.8 15.25 10.3 12.7 11.75 9.15 10.0 8.8 10.45 7.55 11.1 2.9 12.75 -1.45 10.2 0.7 8.2 -0.85 3.75 M9.15 10.0 Q11.1 7.6 10.3 4.15" fill="none" stroke="#000000" stroke-linecap="round" stroke-linejoin="round" stroke-width="1.5"/>
  </g>
</svg>
