<?xml version="1.0" encoding="UTF-8" standalone="no"?>
<svg xmlns:xlink="http://www.w3.org/1999/xlink" height="17.55px" width="22.7px" xmlns="http://www.w3.org/2000/svg">
  <g transform="matrix(1.0, 0.0, 0.0, 1.0, 11.2, 5.55)">
    <path d="M-5.8 8.35 L-7.2 8.7 -7.2 5.8 Q-6.75 7.25 -5.8 8.35" fill="#bf9577" fill-rule="evenodd" stroke="none"/>
    <path d="M-7.2 8.7 Q-9.5 8.0 -10.15 4.6 -10.85 1.2 -9.9 -0.65 L-9.85 -0.6 -10.25 -4.8 Q-8.25 -3.05 -7.15 -1.1 -3.0 -4.8 2.95 -4.6 6.9 -4.3 8.95 -2.4 L8.95 -0.7 Q6.4 -2.45 2.5 -2.2 -3.65 -1.35 -6.15 1.3 -5.8 2.65 -5.8 4.1 L-4.05 5.25 Q-1.5 1.5 3.6 1.35 8.65 1.15 9.4 2.6 L10.35 4.7 Q10.9 7.85 10.65 9.05 10.15 10.65 7.05 11.2 1.15 11.55 -3.7 10.05 L-5.8 8.35 -7.2 8.7 -7.2 5.8 Q-6.75 7.25 -5.8 8.35 M10.35 4.7 Q9.6 7.0 5.2 6.95 0.3 6.9 -2.4 6.0 L-3.95 5.3 -4.05 5.25 M-7.15 -1.1 Q-6.5 0.05 -6.15 1.3 M-5.8 4.1 Q-8.95 1.9 -9.85 -0.6 M-2.4 6.0 Q5.75 2.8 10.35 4.7" fill="none" stroke="#000000" stroke-linecap="round" stroke-linejoin="round" stroke-width="1.5"/>
  </g>
</svg>
