<?xml version="1.0" encoding="UTF-8" standalone="no"?>
<svg xmlns:xlink="http://www.w3.org/1999/xlink" height="52.65px" width="43.05px" xmlns="http://www.w3.org/2000/svg">
  <g transform="matrix(1.0, 0.0, 0.0, 1.0, 20.55, 25.2)">
    <path d="M-2.35 -13.0 Q2.05 -7.65 4.25 -7.2 6.25 -11.05 5.25 -23.2 6.65 -22.6 7.9 -21.65 L9.05 -20.7 Q11.2 -18.75 12.75 -15.75 15.35 -7.15 16.1 2.9 18.5 13.35 21.5 21.2 17.8 24.95 4.0 26.45 -14.4 26.3 -19.55 21.4 L-15.7 10.0 Q-14.55 4.65 -16.65 -3.15 -20.45 -16.7 -12.05 -22.65 L-11.9 -22.75 -9.45 -24.2 Q-6.8 -18.4 -2.35 -13.0 Z" fill="none" stroke="#000000" stroke-linecap="round" stroke-linejoin="round" stroke-width="2.0"/>
  </g>
</svg>
