<?xml version="1.0" encoding="UTF-8" standalone="no"?>
<svg xmlns:xlink="http://www.w3.org/1999/xlink" height="52.65px" width="43.05px" xmlns="http://www.w3.org/2000/svg">
  <g transform="matrix(1.0, 0.0, 0.0, 1.0, 20.55, 25.2)">
    <path d="M15.75 -0.9 L17.2 -3.35 Q18.95 -7.55 15.9 -12.3 L5.3 -22.7 Q8.25 -11.5 6.35 -8.75 4.5 -9.95 -0.55 -13.65 -5.65 -17.4 -9.45 -24.2 L-11.9 -22.75 -12.05 -22.65 Q-20.45 -16.7 -16.65 -3.15 -14.55 4.65 -15.7 11.2 L-19.55 21.4 Q-14.4 26.3 4.0 26.45 17.8 24.95 21.5 21.2 18.5 13.35 16.1 2.9 L15.75 -0.9 15.4 -0.45" fill="none" stroke="#000000" stroke-linecap="round" stroke-linejoin="round" stroke-width="2.0"/>
    <path d="M-4.4 0.55 L1.5 0.4 Q4.05 -0.4 5.05 -2.05" fill="none" stroke="#000000" stroke-linecap="round" stroke-linejoin="round" stroke-width="1.0"/>
  </g>
</svg>
