<?xml version="1.0" encoding="UTF-8" standalone="no"?>
<svg xmlns:xlink="http://www.w3.org/1999/xlink" height="53.95px" width="42.2px" xmlns="http://www.w3.org/2000/svg">
  <g transform="matrix(1.0, 0.0, 0.0, 1.0, 20.65, 23.2)">
    <path d="M16.85 -10.6 Q12.65 -15.15 8.0 -6.7 -0.35 -15.15 -6.25 -10.7 -9.2 -7.3 -6.1 -2.2 0.0 6.55 10.15 13.1 L15.4 -0.45" fill="none" stroke="#19182c" stroke-linecap="round" stroke-linejoin="round" stroke-width="1.0"/>
    <path d="M2.7 -1.05 Q4.3 -2.35 4.9 -3.35" fill="none" stroke="#262733" stroke-linecap="round" stroke-linejoin="round" stroke-width="1.0"/>
    <path d="M15.4 -0.45 Q19.4 -5.6 17.05 -10.2 L16.85 -10.6 16.6 -11.0 Q15.45 -13.3 13.8 -14.95 L7.8 -20.6 Q8.85 -16.9 6.4 -15.55 2.7 -13.3 -4.9 -16.6 -9.75 -22.25 -11.8 -22.2 L-14.45 -20.0 Q-13.8 -20.15 -11.55 -15.65 -10.7 -13.7 -10.7 -9.9 -10.75 -6.1 -13.25 -2.35 L-15.25 1.3 Q-15.05 6.15 -15.7 10.55 L-19.65 25.15 Q-18.35 26.55 -15.05 28.15 -11.75 29.75 3.25 29.75 14.55 29.7 20.55 23.2 L15.4 -0.45" fill="none" stroke="#000000" stroke-linecap="round" stroke-linejoin="round" stroke-width="2.0"/>
  </g>
</svg>
