<?xml version="1.0" encoding="UTF-8" standalone="no"?>
<svg xmlns:xlink="http://www.w3.org/1999/xlink" height="29.75px" width="36.25px" xmlns="http://www.w3.org/2000/svg">
  <g transform="matrix(1.0, 0.0, 0.0, 1.0, 17.6, 25.1)">
    <path d="M-4.4 0.55 L1.5 0.4 3.45 -0.45 Q4.5 -1.1 5.05 -2.05" fill="none" stroke="#000000" stroke-linecap="round" stroke-linejoin="round" stroke-width="1.0"/>
    <path d="M15.75 -0.9 L15.95 0.15 16.1 2.75 -0.25 3.45 Q-11.25 4.6 -15.2 2.9 L-15.85 0.05 -16.85 -3.5 Q-14.5 -4.2 -12.3 -6.4 -10.1 -8.6 -8.9 -12.1 -8.7 -17.25 -10.85 -23.4 L-8.9 -24.35 Q-6.15 -18.55 -4.75 -13.6 -1.45 -11.1 3.8 -11.3 6.2 -11.5 7.3 -14.25 7.65 -16.8 5.15 -23.1 L8.0 -21.05 10.8 -15.0 Q15.8 -12.25 17.0 -10.55 18.7 -6.9 17.2 -3.35 L15.75 -0.9" fill="none" stroke="#000000" stroke-linecap="round" stroke-linejoin="round" stroke-width="1.5"/>
  </g>
</svg>
