<?xml version="1.0" encoding="UTF-8" standalone="no"?>
<svg xmlns:xlink="http://www.w3.org/1999/xlink" height="40.0px" width="38.45px" xmlns="http://www.w3.org/2000/svg">
  <g transform="matrix(1.0, 0.0, 0.0, 1.0, 18.85, 25.2)">
    <path d="M15.4 -0.45 L11.4 -0.55 M-4.4 0.55 L1.5 0.4 Q4.05 -0.4 5.05 -2.05" fill="none" stroke="#000000" stroke-linecap="round" stroke-linejoin="round" stroke-width="1.0"/>
    <path d="M15.75 -0.9 L16.35 3.3 17.45 8.1 18.6 12.25 Q10.0 10.75 2.7 12.55 -11.45 15.35 -15.95 11.9 L-15.7 11.2 Q-15.45 9.85 -15.35 8.4 -15.0 3.0 -16.65 -3.15 -20.45 -16.7 -12.05 -22.65 L-11.9 -22.75 -9.45 -24.2 Q-5.65 -17.4 -0.55 -13.65 4.5 -9.95 6.35 -8.75 8.25 -11.5 5.3 -22.7 L15.9 -12.3 Q18.95 -7.55 17.2 -3.35 L15.75 -0.9 15.4 -0.45 Z" fill="none" stroke="#000000" stroke-linecap="round" stroke-linejoin="round" stroke-width="2.0"/>
  </g>
</svg>
