<?xml version="1.0" encoding="UTF-8" standalone="no"?>
<svg xmlns:xlink="http://www.w3.org/1999/xlink" height="51.3px" width="41.55px" xmlns="http://www.w3.org/2000/svg">
  <g transform="matrix(1.0, 0.0, 0.0, 1.0, 20.75, 25.65)">
    <path d="M16.75 -4.1 L16.7 -3.95 16.05 -2.8 15.6 -2.1 15.6 -2.05 Q15.35 1.1 16.7 6.45 19.35 13.55 20.8 22.2 20.7 25.5 6.95 25.65 L6.35 25.65 Q-15.4 25.85 -20.75 21.95 L-18.4 17.1 -18.2 16.75 Q-15.6 11.05 -15.8 4.65 L-18.05 -6.1 Q-20.4 -17.8 -12.75 -23.15 L-9.2 -25.65 -8.7 -23.75 -6.6 -18.7 Q-5.25 -16.05 -3.2 -13.2 L-3.15 -13.15 Q1.65 -6.45 2.55 -0.95 2.45 0.7 2.6 2.35 3.05 8.9 6.7 14.8 8.9 8.65 9.3 1.9 9.75 -7.55 6.6 -18.2 L4.8 -23.4 4.9 -23.4 7.6 -21.65 9.2 -20.0 15.45 -13.05 16.25 -11.7 Q17.75 -8.65 17.3 -5.85 L16.75 -4.1" fill="#bd3a3a" fill-rule="evenodd" stroke="none"/>
  </g>
</svg>
