<?xml version="1.0" encoding="UTF-8" standalone="no"?>
<svg xmlns:xlink="http://www.w3.org/1999/xlink" height="53.3px" width="43.55px" xmlns="http://www.w3.org/2000/svg">
  <g transform="matrix(1.0, 0.0, 0.0, 1.0, 21.3, 25.9)">
    <path d="M16.7 -10.95 L17.0 -10.55 Q18.25 -7.8 17.75 -5.1 18.2 -7.9 16.7 -10.95 M16.5 -2.05 L16.05 -1.3 16.05 -1.35 16.5 -2.05 M5.35 -22.65 L5.15 -23.1 8.0 -21.05 8.05 -20.9 Q6.8 -22.05 5.35 -22.65" fill="#5dd2ae" fill-rule="evenodd" stroke="none"/>
    <path d="M8.05 -20.9 L9.65 -19.25 15.9 -12.3 16.7 -10.95 Q18.2 -7.9 17.75 -5.1 L17.2 -3.35 17.15 -3.2 16.5 -2.05 16.05 -1.35 16.05 -1.3 Q15.8 1.85 17.15 7.2 19.8 14.3 21.25 22.95 21.15 26.25 7.4 26.4 L6.8 26.4 Q-14.95 26.6 -20.3 22.7 L-17.95 17.85 -17.75 17.5 Q-15.15 11.8 -15.35 5.4 L-17.6 -5.35 Q-19.95 -17.05 -12.3 -22.4 L-8.75 -24.9 -8.25 -23.0 -6.15 -17.95 Q-4.8 -15.3 -2.75 -12.45 L-2.7 -12.4 Q2.1 -5.7 3.0 -0.2 2.9 1.45 3.05 3.1 3.5 9.65 7.15 15.55 9.35 9.4 9.75 2.65 10.2 -6.8 7.05 -17.45 L5.25 -22.65 5.35 -22.65 Q6.8 -22.05 8.05 -20.9 M16.05 -1.35 L15.9 -1.05 15.75 -0.9 15.4 -0.45" fill="none" stroke="#000000" stroke-linecap="round" stroke-linejoin="round" stroke-width="2.0"/>
    <path d="M3.0 -0.2 Q4.4 -0.9 5.05 -2.05 M15.4 -0.45 L11.4 -0.55 M7.15 15.55 L7.4 26.4 M-4.4 0.55 L1.5 0.4 3.0 -0.2" fill="none" stroke="#000000" stroke-linecap="round" stroke-linejoin="round" stroke-width="1.0"/>
    <path d="M16.7 -10.95 L17.0 -10.55 Q18.25 -7.8 17.75 -5.1 M16.5 -2.05 L16.05 -1.3 M-2.7 -12.4 Q0.05 -11.15 3.8 -11.3 6.2 -11.5 7.3 -14.25 7.45 -15.45 7.05 -17.45 M5.35 -22.65 L5.15 -23.1 8.0 -21.05 8.05 -20.9 M9.75 2.65 L3.05 3.1" fill="none" stroke="#000000" stroke-linecap="round" stroke-linejoin="round" stroke-width="1.5"/>
  </g>
</svg>
