<?xml version="1.0" encoding="UTF-8" standalone="no"?>
<svg xmlns:xlink="http://www.w3.org/1999/xlink" height="53.4px" width="43.55px" xmlns="http://www.w3.org/2000/svg">
  <g transform="matrix(1.0, 0.0, 0.0, 1.0, 21.3, 25.9)">
    <path d="M5.35 -22.65 L5.15 -23.1 7.95 -21.1 Q6.65 -22.35 5.35 -22.65 M16.7 -10.95 L17.0 -10.55 Q18.25 -7.8 17.75 -5.1 18.2 -7.9 16.7 -10.95 M16.5 -2.05 L16.05 -1.3 16.05 -1.35 16.5 -2.05" fill="#5dd2ae" fill-rule="evenodd" stroke="none"/>
    <path d="M6.15 -20.4 L5.3 -22.15 5.25 -22.65 5.35 -22.65 Q6.65 -22.35 7.95 -21.1 L8.0 -21.05 9.7 -19.0 15.9 -12.3 16.7 -10.95 Q18.2 -7.9 17.75 -5.1 L17.2 -3.35 17.15 -3.2 16.5 -2.05 16.05 -1.35 16.05 -1.3 Q15.8 1.85 17.15 7.2 19.8 14.3 21.25 22.95 21.2 25.4 14.75 25.4 13.45 12.35 11.9 2.6 L11.4 -0.6 Q9.05 -13.9 6.15 -20.4 M-4.1 3.8 Q-4.3 15.2 -3.9 21.75 -3.75 24.5 -5.0 26.5 -17.05 25.1 -20.3 22.7 L-17.95 17.85 -17.75 17.5 Q-15.15 11.8 -15.35 5.4 L-17.6 -5.35 Q-19.95 -17.05 -12.3 -22.4 L-8.75 -24.9 Q-7.5 -22.1 -6.55 -18.9 -4.15 -10.55 -4.05 0.6 L-4.1 2.8 -4.1 3.8 M16.05 -1.35 L15.9 -1.05 15.75 -0.9 15.4 -0.45" fill="none" stroke="#000000" stroke-linecap="round" stroke-linejoin="round" stroke-width="2.0"/>
    <path d="M11.4 -0.6 L15.0 -0.45 M8.95 -1.95 Q10.0 -0.95 11.4 -0.6 M-4.05 0.6 L1.5 0.4 Q4.05 -0.4 5.05 -2.05 M-4.4 0.55 Q-6.9 -0.2 -8.25 -1.55" fill="none" stroke="#000000" stroke-linecap="round" stroke-linejoin="round" stroke-width="1.0"/>
    <path d="M5.35 -22.65 L5.15 -23.1 7.95 -21.1 M16.7 -10.95 L17.0 -10.55 Q18.25 -7.8 17.75 -5.1 M16.5 -2.05 L16.05 -1.3 M11.9 2.6 L-0.25 3.45 -4.1 3.8 M-6.55 -18.9 Q-5.45 -16.15 -4.75 -13.6 -1.45 -11.1 3.8 -11.3 6.2 -11.5 7.3 -14.25 7.6 -16.25 6.15 -20.4 Z" fill="none" stroke="#000000" stroke-linecap="round" stroke-linejoin="round" stroke-width="1.5"/>
  </g>
</svg>
