<?xml version="1.0" encoding="UTF-8" standalone="no"?>
<svg xmlns:xlink="http://www.w3.org/1999/xlink" height="51.3px" width="41.55px" xmlns="http://www.w3.org/2000/svg">
  <g transform="matrix(1.0, 0.0, 0.0, 1.0, 20.75, 25.65)">
    <path d="M16.75 -4.1 L16.7 -3.95 16.05 -2.8 15.6 -2.1 15.6 -2.05 15.6 0.05 16.15 3.95 16.7 6.45 Q19.35 13.55 20.8 22.2 20.7 25.5 6.95 25.65 L6.35 25.65 Q-15.4 25.85 -20.75 21.95 L-18.4 17.1 -18.2 16.75 Q-15.6 11.05 -15.8 4.65 L-18.05 -6.1 Q-20.4 -17.8 -12.75 -23.15 L-9.2 -25.65 -8.75 -23.8 -6.1 -17.75 -5.4 -16.5 -3.2 -13.2 Q1.65 -6.5 2.55 -0.95 2.1 7.4 6.7 14.8 9.55 6.85 9.35 -2.05 9.1 -9.9 6.5 -18.5 L4.8 -23.4 4.9 -23.4 7.6 -21.65 9.2 -20.0 15.45 -13.05 16.25 -11.7 Q17.75 -8.65 17.3 -5.85 L16.75 -4.1" fill="#bd3a3a" fill-rule="evenodd" stroke="none"/>
  </g>
</svg>
