<?xml version="1.0" encoding="UTF-8" standalone="no"?>
<svg xmlns:xlink="http://www.w3.org/1999/xlink" height="53.3px" width="43.55px" xmlns="http://www.w3.org/2000/svg">
  <g transform="matrix(1.0, 0.0, 0.0, 1.0, 21.3, 25.9)">
    <path d="M5.35 -22.65 L5.15 -23.1 8.0 -21.05 8.05 -20.9 Q6.8 -22.05 5.35 -22.65 M16.7 -10.95 L17.0 -10.55 Q18.25 -7.8 17.75 -5.1 18.2 -7.9 16.7 -10.95 M16.5 -2.05 L16.05 -1.3 16.05 -1.35 16.5 -2.05" fill="#5dd2ae" fill-rule="evenodd" stroke="none"/>
    <path d="M8.05 -20.9 L9.65 -19.25 15.9 -12.3 16.7 -10.95 Q18.2 -7.9 17.75 -5.1 L17.2 -3.35 17.15 -3.2 16.5 -2.05 16.05 -1.35 16.05 -1.3 16.05 0.8 16.6 4.7 17.15 7.2 Q19.8 14.3 21.25 22.95 21.15 26.25 7.4 26.4 L6.8 26.4 Q-14.95 26.6 -20.3 22.7 L-17.95 17.85 -17.75 17.5 Q-15.15 11.8 -15.35 5.4 L-17.6 -5.35 Q-19.95 -17.05 -12.3 -22.4 L-8.75 -24.9 -8.3 -23.05 -5.65 -17.0 -4.95 -15.75 -2.75 -12.45 Q2.1 -5.75 3.0 -0.2 2.55 8.15 7.15 15.55 10.0 7.6 9.8 -1.3 9.55 -9.15 6.95 -17.75 L5.25 -22.65 5.35 -22.65 Q6.8 -22.05 8.05 -20.9 M16.05 -1.35 L15.9 -1.05 15.75 -0.9 15.4 -0.45" fill="none" stroke="#000000" stroke-linecap="round" stroke-linejoin="round" stroke-width="2.0"/>
    <path d="M8.95 -1.95 L9.8 -1.3 Q10.5 -0.85 11.4 -0.6 L15.0 -0.45 M3.0 -0.2 Q4.4 -0.9 5.05 -2.05 M7.15 15.55 L7.4 26.4 M-4.4 0.55 L1.5 0.4 3.0 -0.2" fill="none" stroke="#000000" stroke-linecap="round" stroke-linejoin="round" stroke-width="1.0"/>
    <path d="M5.35 -22.65 L5.15 -23.1 8.0 -21.05 8.05 -20.9 M16.7 -10.95 L17.0 -10.55 Q18.25 -7.8 17.75 -5.1 M16.5 -2.05 L16.05 -1.3 M-4.95 -15.75 Q-2.3 -13.65 1.6 -13.5 5.8 -13.4 6.85 -15.9 7.2 -16.3 6.95 -17.75" fill="none" stroke="#000000" stroke-linecap="round" stroke-linejoin="round" stroke-width="1.5"/>
  </g>
</svg>
