<?xml version="1.0" encoding="UTF-8" standalone="no"?>
<svg xmlns:xlink="http://www.w3.org/1999/xlink" height="51.4px" width="41.55px" xmlns="http://www.w3.org/2000/svg">
  <g transform="matrix(1.0, 0.0, 0.0, 1.0, 20.75, 25.7)">
    <path d="M16.75 -4.15 L16.7 -4.0 16.05 -2.85 15.6 -2.15 15.6 -2.1 15.6 0.0 16.15 3.9 16.7 6.4 Q19.35 13.5 20.8 22.15 20.75 24.6 14.3 24.6 L14.25 23.95 Q12.75 9.15 10.95 -1.4 8.6 -14.6 5.75 -21.15 L4.85 -22.95 4.8 -23.45 4.9 -23.45 Q6.2 -23.15 7.5 -21.9 L7.55 -21.85 9.25 -19.8 15.45 -13.1 16.25 -11.75 Q17.75 -8.7 17.3 -5.9 L16.75 -4.15 M-20.75 21.9 L-18.4 17.05 -18.2 16.7 Q-15.6 11.0 -15.8 4.6 L-18.05 -6.15 Q-20.4 -17.85 -12.75 -23.2 L-9.2 -25.7 Q-8.1 -23.3 -7.25 -20.55 -4.6 -11.9 -4.5 -0.2 L-4.55 2.0 Q-4.75 14.15 -4.35 20.95 -4.25 22.75 -4.75 24.25 L-5.45 25.7 Q-17.5 24.3 -20.75 21.9" fill="#bd3a3a" fill-rule="evenodd" stroke="none"/>
  </g>
</svg>
