<?xml version="1.0" encoding="UTF-8" standalone="no"?>
<svg xmlns:xlink="http://www.w3.org/1999/xlink" height="53.15px" width="41.0px" xmlns="http://www.w3.org/2000/svg">
  <g transform="matrix(1.0, 0.0, 0.0, 1.0, 20.5, 26.55)">
    <path d="M12.2 24.6 L12.15 23.75 Q10.9 4.05 6.3 -16.3 L6.5 -14.5 Q5.15 -17.8 4.55 -20.6 L4.4 -21.35 Q3.8 -24.5 2.65 -26.35 6.55 -26.55 10.3 -22.5 9.1 -22.2 8.25 -21.6 10.25 -19.8 11.9 -17.05 14.25 -6.85 15.65 1.35 19.25 13.2 20.5 21.1 15.95 23.95 12.2 24.6 M-3.75 14.95 L-4.25 26.6 Q-14.5 25.45 -20.5 21.9 L-16.65 7.35 Q-15.85 2.25 -18.3 -6.4 -20.7 -17.6 -14.0 -23.2 L-16.5 -23.15 Q-14.3 -27.0 -10.1 -26.5 -6.7 -22.75 -5.25 -18.75 -4.35 -16.2 -4.3 -13.5 -3.0 -2.0 -3.75 14.95" fill="#272727" fill-rule="evenodd" stroke="none"/>
  </g>
</svg>
