<?xml version="1.0" encoding="UTF-8" standalone="no"?>
<svg xmlns:xlink="http://www.w3.org/1999/xlink" height="55.15px" width="43.0px" xmlns="http://www.w3.org/2000/svg">
  <g transform="matrix(1.0, 0.0, 0.0, 1.0, 20.45, 26.5)">
    <path d="M5.6 -19.55 L5.45 -20.3 Q4.85 -23.45 3.7 -25.3 7.6 -25.5 11.35 -21.45 10.15 -21.15 9.3 -20.55 11.3 -18.75 12.95 -16.0 15.3 -5.8 16.7 2.4 20.3 14.25 21.55 22.15 17.0 25.0 13.25 25.65 L13.2 24.8 Q9.4 25.8 3.85 26.45 L-3.1 26.15 -3.2 27.65 Q-13.45 26.5 -19.45 22.95 L-15.6 8.4 Q-14.8 3.3 -17.25 -5.35 -19.65 -16.55 -12.95 -22.15 L-15.45 -22.1 Q-13.25 -25.95 -9.05 -25.45 -5.65 -21.7 -4.2 -17.7 -1.55 -16.5 2.25 -15.75 4.95 -17.25 5.6 -19.55 6.2 -16.75 7.55 -13.45 L7.35 -15.25 Q7.1 -18.95 9.3 -20.55 M7.35 -15.25 Q11.95 5.1 13.2 24.8 M-12.95 -22.15 Q-6.7 -21.5 -3.25 -12.35 L-3.25 -12.45 Q-3.3 -15.15 -4.2 -17.7 M-3.25 -12.45 Q-1.95 -0.95 -2.7 16.0 L-3.1 26.15" fill="none" stroke="#000000" stroke-linecap="round" stroke-linejoin="round" stroke-width="2.0"/>
  </g>
</svg>
