<?xml version="1.0" encoding="UTF-8" standalone="no"?>
<svg xmlns:xlink="http://www.w3.org/1999/xlink" height="50.9px" width="17.55px" xmlns="http://www.w3.org/2000/svg">
  <g transform="matrix(1.0, 0.0, 0.0, 1.0, 8.8, 25.45)">
    <path d="M-8.8 -22.7 L-7.55 -25.45 Q-4.8 -23.3 2.5 -21.15 4.6 -23.2 5.05 -25.45 L5.9 -22.4 7.0 -16.7 7.0 -16.6 7.0 -16.5 Q6.95 -11.2 6.3 -7.45 L6.2 -6.55 5.0 -12.55 Q5.65 -13.7 5.2 -16.75 L4.5 -17.8 1.15 -17.7 0.3 -16.2 Q0.55 -13.95 1.6 -12.85 L1.7 -4.95 -0.25 -8.15 -5.85 -17.55 -8.8 -22.7 M3.0 25.45 L5.75 17.8 8.75 25.25 3.0 25.45" fill="#ffffff" fill-rule="evenodd" stroke="none"/>
  </g>
</svg>
