<?xml version="1.0" encoding="UTF-8" standalone="no"?>
<svg xmlns:xlink="http://www.w3.org/1999/xlink" height="58.7px" width="43.45px" xmlns="http://www.w3.org/2000/svg">
  <g transform="matrix(1.0, 0.0, 0.0, 1.0, 21.3, 27.35)">
    <path d="M-10.35 -23.6 L-7.4 -18.45 Q-5.3 -16.3 -2.1 -15.3 L-1.25 -17.1 -0.4 -18.6 1.05 -20.75 2.95 -18.7 3.65 -17.65 4.6 -15.8 Q5.4 -15.9 5.45 -17.4 L5.45 -17.5 5.45 -17.6 4.35 -23.3 7.05 -21.15 Q9.6 -18.85 11.05 -16.0 L8.0 -13.95 11.15 -13.3 Q11.8 -8.4 9.95 -3.85 7.55 2.55 3.75 5.0 -6.95 -1.85 -11.75 -12.35 L-8.8 -13.6 -13.0 -14.7 Q-12.2 -19.1 -10.35 -23.6 M4.65 -7.45 L4.75 -8.35 Q5.4 -12.1 5.45 -17.4 M4.65 -7.45 L3.5 0.95 Q2.1 -2.45 0.15 -5.85 L-1.8 -9.05 -7.4 -18.45 M4.2 16.9 Q3.3 12.65 2.0 9.2 2.65 6.85 3.75 5.0 M3.6 9.1 L5.25 9.1" fill="none" stroke="#000000" stroke-linecap="round" stroke-linejoin="round" stroke-width="1.5"/>
    <path d="M-1.25 -17.1 Q-1.0 -14.85 0.05 -13.75 0.9 -12.8 2.35 -12.8 3.05 -12.8 3.45 -13.45 4.1 -14.6 3.65 -17.65 M3.45 -13.45 L4.65 -7.45 M0.05 -13.75 L0.15 -5.85 M-0.4 -18.6 L2.95 -18.7" fill="none" stroke="#000000" stroke-linecap="round" stroke-linejoin="round" stroke-width="1.0"/>
    <path d="M4.35 -23.3 L3.5 -26.35 Q3.05 -24.1 0.95 -22.05 -6.35 -24.2 -9.1 -26.35 L-10.35 -23.6 Q-12.15 -22.85 -13.95 -21.1 -20.6 -15.2 -16.4 0.05 -15.55 6.7 -16.35 13.7 -19.85 20.45 -20.3 24.35 -12.05 28.45 -0.7 30.35 L1.45 24.55 4.2 16.9 7.2 24.35 7.85 26.0 9.9 29.9 21.1 24.45 Q21.35 22.15 19.9 16.6 17.7 9.45 16.1 1.3 L13.95 -11.4 Q12.85 -18.05 7.05 -21.15 M1.45 24.55 L7.2 24.35" fill="none" stroke="#000000" stroke-linecap="round" stroke-linejoin="round" stroke-width="2.0"/>
  </g>
</svg>
