<?xml version="1.0" encoding="UTF-8" standalone="no"?>
<svg xmlns:xlink="http://www.w3.org/1999/xlink" height="46.45px" width="41.05px" xmlns="http://www.w3.org/2000/svg">
  <g transform="matrix(1.0, 0.0, 0.0, 1.0, 20.5, 23.2)">
    <path d="M20.55 18.0 Q16.85 21.75 3.05 23.25 -15.35 23.1 -20.5 18.2 L-18.2 11.5 Q-16.65 12.6 -13.4 13.15 -6.1 14.35 -3.45 11.1 -2.45 4.4 -2.85 -8.4 -3.15 -15.15 -4.05 -19.75 L-4.4 -20.35 Q-2.1 -19.4 0.75 -19.3 L1.1 -19.3 Q3.9 -20.25 4.4 -23.2 L5.0 -19.55 Q7.35 -8.45 7.4 -1.4 7.75 7.55 10.15 11.85 12.15 13.3 16.8 11.9 17.65 11.65 18.2 11.15 19.3 14.8 20.55 18.0" fill="#bd3a3a" fill-rule="evenodd" stroke="none"/>
  </g>
</svg>
