<?xml version="1.0" encoding="UTF-8" standalone="no"?>
<svg xmlns:xlink="http://www.w3.org/1999/xlink" height="52.35px" width="43.05px" xmlns="http://www.w3.org/2000/svg">
  <g transform="matrix(1.0, 0.0, 0.0, 1.0, 20.55, 24.9)">
    <path d="M5.35 -20.0 Q5.55 -21.4 5.25 -23.2 10.25 -22.85 13.55 -15.65 16.3 -8.1 16.85 0.7 19.0 6.4 19.95 11.6 20.05 13.4 19.15 14.35 20.25 18.0 21.5 21.2 17.8 24.95 4.0 26.45 -14.4 26.3 -19.55 21.4 L-17.25 14.7 Q-19.25 13.3 -18.55 11.05 -17.35 6.95 -17.5 -0.9 -18.5 -9.35 -18.15 -16.8 -16.55 -22.25 -10.4 -23.6 L-9.8 -23.9 -9.75 -23.8 -9.65 -23.5 Q-6.5 -22.7 -3.45 -17.15 -1.15 -16.2 1.7 -16.1 L2.05 -16.1 Q4.85 -17.05 5.35 -20.0 5.5 -18.5 5.95 -16.35 8.3 -5.25 8.35 1.8 8.7 10.75 11.1 15.05 13.1 16.5 17.75 15.1 L19.15 14.35 M-17.25 14.7 Q-15.7 15.8 -12.45 16.35 -5.15 17.55 -2.5 14.3 -1.5 7.6 -1.9 -5.2 -2.2 -11.95 -3.1 -16.55 L-3.45 -17.15 M-9.65 -23.5 L-10.25 -23.65 -10.4 -23.6" fill="none" stroke="#000000" stroke-linecap="round" stroke-linejoin="round" stroke-width="2.0"/>
  </g>
</svg>
