<?xml version="1.0" encoding="UTF-8" standalone="no"?>
<svg xmlns:xlink="http://www.w3.org/1999/xlink" height="61.8px" width="46.3px" xmlns="http://www.w3.org/2000/svg">
  <g transform="matrix(1.0, 0.0, 0.0, 1.0, 23.15, 30.9)">
    <path d="M4.0 -29.0 L4.1 -28.95 4.05 -29.45 Q8.0 -29.3 10.2 -26.05 L10.1 -25.1 Q12.25 -22.8 12.7 -19.75 15.0 -11.15 15.65 -2.25 L20.15 12.4 Q22.9 19.8 23.1 24.3 23.35 28.3 21.2 28.8 15.9 28.15 14.8 24.8 L13.3 19.7 Q11.4 12.4 9.75 1.35 9.1 -8.05 7.0 -19.0 L6.9 -19.5 5.5 -22.8 Q4.25 -26.1 4.1 -28.9 L4.0 -29.0 M-4.45 -19.65 Q-2.6 -10.95 -2.75 8.6 -2.45 15.65 -3.3 21.0 -4.25 27.0 -6.6 30.9 -16.7 29.95 -23.15 22.85 -22.4 16.35 -18.55 8.9 -16.4 0.7 -18.75 -8.85 -21.1 -18.4 -18.6 -24.65 L-17.7 -26.0 -18.75 -26.35 Q-16.9 -29.85 -11.45 -30.9 -6.9 -27.85 -4.4 -22.65 L-3.1 -19.25 -4.55 -20.0 -4.45 -19.65" fill="#4173aa" fill-rule="evenodd" stroke="none"/>
  </g>
</svg>
