<?xml version="1.0" encoding="UTF-8" standalone="no"?>
<svg xmlns:xlink="http://www.w3.org/1999/xlink" height="63.8px" width="48.3px" xmlns="http://www.w3.org/2000/svg">
  <g transform="matrix(1.0, 0.0, 0.0, 1.0, 23.15, 25.45)">
    <path d="M14.3 26.15 L15.8 31.25 Q16.9 34.6 22.2 35.25 24.35 34.75 24.1 30.75 23.9 26.25 21.15 18.85 L16.65 4.2 Q16.0 -4.7 13.7 -13.3 13.25 -16.35 11.1 -18.65 10.5 -15.8 7.9 -13.05 L8.0 -12.55 Q10.1 -1.6 10.75 7.8 12.4 18.85 14.3 26.15 7.95 28.55 -2.3 27.45 -3.25 33.45 -5.6 37.35 -15.7 36.4 -22.15 29.3 -21.4 22.8 -17.55 15.35 -15.4 7.15 -17.75 -2.4 -20.1 -11.95 -17.6 -18.2 L-16.7 -19.55 -17.75 -19.9 Q-15.9 -23.4 -10.45 -24.45 -5.9 -21.4 -3.4 -16.2 1.8 -13.2 6.5 -16.35 5.25 -19.65 5.1 -22.45 L5.0 -22.55 5.1 -22.5 5.05 -23.0 Q9.0 -22.85 11.2 -19.6 L11.1 -18.65 M5.1 -22.5 L5.1 -22.45 M6.5 -16.35 L7.9 -13.05 M-16.7 -19.55 Q-10.8 -17.45 -3.55 -13.55 L-2.1 -12.8 -3.4 -16.2 M-3.55 -13.55 L-3.45 -13.2 Q-1.6 -4.5 -1.75 15.05 -1.45 22.1 -2.3 27.45" fill="none" stroke="#000000" stroke-linecap="round" stroke-linejoin="round" stroke-width="2.0"/>
  </g>
</svg>
