<?xml version="1.0" encoding="UTF-8" standalone="no"?>
<svg xmlns:xlink="http://www.w3.org/1999/xlink" height="38.6px" width="20.75px" xmlns="http://www.w3.org/2000/svg">
  <g transform="matrix(1.0, 0.0, 0.0, 1.0, 10.4, 19.3)">
    <path d="M4.8 -17.95 L7.65 -15.95 Q8.8 -7.0 3.1 -2.65 -5.35 -5.35 -9.05 -11.15 L-9.3 -11.6 -9.4 -11.7 -9.8 -12.8 Q-10.85 -15.95 -10.0 -18.55 L-8.6 -19.3 Q-8.15 -14.95 -5.1 -11.35 -2.05 -7.75 2.3 -6.3 3.9 -7.6 4.65 -11.0 5.4 -14.4 4.8 -17.95 M1.7 10.0 Q0.45 9.5 -0.2 8.55 -0.9 7.7 -1.0 6.6 -1.1 4.7 0.15 3.4 1.35 2.1 3.75 1.95 6.15 1.85 7.6 3.05 9.05 4.2 9.15 6.1 9.25 7.3 8.7 8.25 8.2 9.2 7.15 9.75 8.6 10.2 9.35 11.25 10.2 12.35 10.3 13.75 10.5 16.1 9.15 17.65 7.75 19.15 5.25 19.3 3.0 19.4 1.4 18.25 -0.55 16.9 -0.7 14.4 -0.9 13.0 -0.25 11.85 0.35 10.7 1.7 10.0 M2.15 6.65 Q2.2 7.6 2.8 8.2 3.35 8.65 4.25 8.6 5.2 8.6 5.7 8.05 6.25 7.45 6.15 6.5 6.05 5.6 5.5 5.0 4.9 4.55 4.0 4.55 3.1 4.6 2.55 5.15 2.05 5.75 2.15 6.65 M2.4 13.9 Q2.5 15.25 3.25 16.0 4.0 16.7 5.0 16.65 6.0 16.65 6.6 15.9 7.25 15.1 7.15 13.75 7.0 12.55 6.3 11.9 5.6 11.2 4.55 11.2 3.35 11.25 2.85 12.1 2.35 12.95 2.4 13.9" fill="#cdfcff" fill-rule="evenodd" stroke="none"/>
  </g>
</svg>
