<?xml version="1.0" encoding="UTF-8" standalone="no"?>
<svg xmlns:xlink="http://www.w3.org/1999/xlink" height="52.75px" width="42.65px" xmlns="http://www.w3.org/2000/svg">
  <g transform="matrix(1.0, 0.0, 0.0, 1.0, 20.15, 25.3)">
    <path d="M1.45 5.0 Q0.2 4.5 -0.45 3.55 -1.15 2.7 -1.25 1.6 -1.35 -0.3 -0.1 -1.6 1.1 -2.9 3.5 -3.05 5.9 -3.15 7.35 -1.95 8.8 -0.8 8.9 1.1 9.0 2.3 8.45 3.25 7.95 4.2 6.9 4.75 8.35 5.2 9.1 6.25 9.95 7.35 10.05 8.75 10.25 11.1 8.9 12.65 7.5 14.15 5.0 14.3 2.75 14.4 1.15 13.25 -0.8 11.9 -0.95 9.4 -1.15 8.0 -0.5 6.85 0.1 5.7 1.45 5.0 M1.9 1.65 Q1.95 2.6 2.55 3.2 3.1 3.65 4.0 3.6 4.95 3.6 5.45 3.05 6.0 2.45 5.9 1.5 5.8 0.6 5.25 0.0 L3.75 -0.45 Q2.85 -0.4 2.3 0.15 1.8 0.75 1.9 1.65 M2.15 8.9 Q2.25 10.25 3.0 11.0 3.75 11.7 4.75 11.65 5.75 11.65 6.35 10.9 7.0 10.1 6.9 8.75 6.75 7.55 6.05 6.9 5.35 6.2 4.3 6.2 3.1 6.25 2.6 7.1 2.1 7.95 2.15 8.9" fill="none" stroke="#000000" stroke-linecap="round" stroke-linejoin="round" stroke-width="0.05"/>
    <path d="M-10.05 -17.8 L-9.65 -16.7 -9.55 -16.6 -9.3 -16.15 Q-5.6 -10.35 2.85 -7.65 8.55 -12.0 7.4 -20.95" fill="none" stroke="#000000" stroke-linecap="round" stroke-linejoin="round" stroke-width="1.0"/>
    <path d="M4.55 -22.95 L7.4 -20.95 Q12.1 -12.6 14.9 -3.6 15.85 -0.45 16.1 2.9 L18.1 11.85 Q19.75 14.75 19.85 15.95 L19.8 17.1 Q21.2 18.85 21.5 21.2 17.8 24.95 4.0 26.45 -14.4 26.3 -19.05 21.45 -19.45 18.65 -17.95 17.4 L-17.95 17.25 Q-17.95 13.55 -15.7 10.0 -15.0 6.75 -15.5 2.6 -15.65 1.15 -16.1 0.35 -8.8 1.7 -10.05 -17.8 -11.1 -20.95 -10.25 -23.55 L-8.85 -24.3 Q-8.4 -19.95 -5.35 -16.35 -2.3 -12.75 2.05 -11.3 3.65 -12.6 4.4 -16.0 5.15 -19.4 4.55 -22.95" fill="none" stroke="#000000" stroke-linecap="round" stroke-linejoin="round" stroke-width="2.0"/>
  </g>
</svg>
