<?xml version="1.0" encoding="UTF-8" standalone="no"?>
<svg xmlns:xlink="http://www.w3.org/1999/xlink" height="53.9px" width="29.4px" xmlns="http://www.w3.org/2000/svg">
  <g transform="matrix(1.0, 0.0, 0.0, 1.0, 14.7, 26.95)">
    <path d="M11.5 -19.4 Q10.85 -16.6 8.3 -13.9 L8.3 -13.85 Q5.3 -20.2 4.85 -26.7 9.3 -23.95 11.5 -19.4 M8.65 -12.25 Q10.55 -1.95 11.15 6.95 12.8 18.0 14.7 25.3 8.35 27.7 -1.9 26.6 -1.05 21.25 -1.35 14.2 -1.3 6.15 -1.55 0.0 -1.9 -7.6 -2.75 -12.45 6.2 -6.95 8.65 -12.25 M-14.7 -21.65 Q-13.55 -24.9 -9.15 -26.95 -1.35 -23.55 -3.1 -14.35 L-3.15 -14.4 Q-8.45 -22.2 -14.7 -21.65" fill="#2ea1b4" fill-rule="evenodd" stroke="none"/>
  </g>
</svg>
