<?xml version="1.0" encoding="UTF-8" standalone="no"?>
<svg xmlns:xlink="http://www.w3.org/1999/xlink" height="65.45px" width="48.3px" xmlns="http://www.w3.org/2000/svg">
  <g transform="matrix(1.0, 0.0, 0.0, 1.0, 23.15, 27.1)">
    <path d="M11.1 -18.55 L11.1 -18.65 11.4 -18.3 11.1 -18.55" fill="#3a3b48" fill-rule="evenodd" stroke="none"/>
    <path d="M11.1 -18.55 L11.1 -18.65 11.4 -18.3 Q12.8 -16.7 13.4 -14.75 L13.45 -14.7 15.9 -12.3 Q18.95 -7.55 17.2 -3.35 L16.1 -1.35 16.65 4.2 21.15 18.85 Q23.9 26.25 24.1 30.75 24.35 34.75 22.2 35.25 16.9 34.6 15.8 31.25 L14.3 26.15 Q7.95 28.55 -2.3 27.45 -3.25 33.45 -5.6 37.35 -15.7 36.4 -22.15 29.3 -21.4 22.8 -17.55 15.35 -15.4 7.15 -17.75 -2.4 -20.1 -11.95 -17.6 -18.2 L-16.7 -19.55 -15.65 -20.45 -15.4 -20.65 -15.1 -20.8 Q-13.95 -24.05 -9.55 -26.1 -1.75 -22.7 -3.5 -13.5 L-3.45 -13.2 -3.15 -11.6 Q5.8 -6.1 8.25 -11.4 L8.0 -12.55 7.9 -13.0 Q4.9 -19.35 4.45 -25.85 8.9 -23.1 11.1 -18.55 L11.4 -18.3 M11.1 -18.55 Q10.45 -15.75 7.9 -13.05 L7.9 -13.0 M8.25 -11.4 Q10.15 -1.1 10.75 7.8 12.4 18.85 14.3 26.15 M-15.1 -20.8 Q-8.85 -21.35 -3.55 -13.55 L-3.5 -13.5 M-1.95 0.85 Q-1.7 7.0 -1.75 15.05 -1.45 22.1 -2.3 27.45 M-3.15 -11.6 Q-2.3 -6.75 -1.95 0.85" fill="none" stroke="#000000" stroke-linecap="round" stroke-linejoin="round" stroke-width="2.0"/>
    <path d="M16.1 -1.35 L15.1 -0.6 Q14.3 -0.05 11.9 -0.55 M-1.95 0.85 L1.15 0.6 Q2.65 0.2 3.55 -0.6 M-1.95 0.85 Q-5.05 1.0 -7.5 -0.4" fill="none" stroke="#000000" stroke-linecap="round" stroke-linejoin="round" stroke-width="1.2000000000000002"/>
  </g>
</svg>
