<?xml version="1.0" encoding="UTF-8" standalone="no"?>
<svg xmlns:xlink="http://www.w3.org/1999/xlink" height="57.9px" width="53.7px" xmlns="http://www.w3.org/2000/svg">
  <g transform="matrix(1.0, 0.0, 0.0, 1.0, 31.15, 30.05)">
    <path d="M-18.2 -11.1 L-18.2 -11.15 -18.15 -11.15 -18.2 -11.1" fill="#ff5177" fill-rule="evenodd" stroke="none"/>
    <path d="M6.65 -6.85 Q8.05 -11.45 7.65 -18.05 L7.4 -20.6 4.55 -23.45 3.0 -29.05 Q6.9 -27.55 9.4 -25.3 11.05 -23.2 11.65 -20.75 12.35 -18.15 12.1 -15.65 L13.45 -14.7 15.9 -12.3 Q18.95 -7.55 17.2 -3.35 L15.75 -0.9 Q15.9 4.6 18.4 11.35 20.85 18.05 21.55 23.05 19.45 26.65 9.95 26.8 -14.9 27.25 -20.6 23.85 -17.4 17.6 -15.65 12.05 -13.95 6.5 -16.6 -0.9 -23.6 0.45 -29.15 -7.65 -29.65 -11.3 -27.35 -15.0 -29.75 -17.05 -30.1 -18.7 -30.65 -21.35 -25.4 -25.95 -17.3 -29.2 -8.5 -28.55 L-8.5 -23.5 Q-4.05 -20.1 -0.8 -16.7 4.0 -11.7 6.2 -6.75 L6.65 -6.85 6.7 -6.85 7.05 -7.1 Q9.65 -8.85 10.75 -11.15 L10.95 -11.65 Q11.85 -13.6 12.1 -15.65 M-18.15 -11.15 Q-18.0 -16.2 -15.5 -19.5 -12.4 -23.4 -9.5 -19.65 L-4.7 -13.45 Q-2.8 -10.95 0.55 -8.7 3.9 -6.5 6.2 -6.75 M15.75 -0.9 L15.4 -0.45 M-27.35 -15.0 Q-25.9 -13.75 -23.75 -12.4 M-16.6 -0.9 L-17.35 -4.0 Q-18.25 -6.6 -18.2 -11.1 M-8.5 -23.5 Q-12.95 -25.4 -17.65 -24.6" fill="none" stroke="#000000" stroke-linecap="round" stroke-linejoin="round" stroke-width="2.0"/>
    <path d="M7.4 -20.6 L6.9 -24.25 M-4.4 0.55 L1.5 0.4 Q4.05 -0.4 5.05 -2.05 M-18.2 -11.1 L-18.2 -11.15 -18.15 -11.15 -18.2 -11.1" fill="none" stroke="#000000" stroke-linecap="round" stroke-linejoin="round" stroke-width="1.2000000000000002"/>
    <path d="M7.05 -7.1 Q9.1 -3.25 8.9 7.95 8.65 19.1 9.95 26.8" fill="none" stroke="#000000" stroke-linecap="round" stroke-linejoin="round" stroke-width="1.0"/>
  </g>
</svg>
