<?xml version="1.0" encoding="UTF-8" standalone="no"?>
<svg xmlns:xlink="http://www.w3.org/1999/xlink" height="47.4px" width="52.1px" xmlns="http://www.w3.org/2000/svg">
  <g transform="matrix(1.0, 0.0, 0.0, 1.0, 31.15, 30.05)">
    <path d="M-18.2 -11.1 L-18.2 -11.15 -18.15 -11.15 -18.2 -11.1" fill="#ff5177" fill-rule="evenodd" stroke="none"/>
    <path d="M7.65 -18.05 L7.4 -20.6 4.55 -23.45 3.0 -29.05 Q6.9 -27.55 9.4 -25.3 11.05 -23.2 11.65 -20.75 12.35 -18.15 12.1 -15.65 L13.45 -14.7 15.9 -12.3 Q18.95 -7.55 17.2 -3.35 L15.75 -0.9 Q16.75 1.75 16.35 3.45 17.5 5.5 16.9 6.9 16.4 8.9 9.8 9.05 -12.8 9.6 -15.0 7.2 L-15.2 6.9 Q-16.05 5.7 -15.15 4.3 -16.5 3.05 -16.5 0.85 L-16.6 -0.9 Q-23.6 0.45 -29.15 -7.65 -29.65 -11.3 -27.35 -15.0 -29.75 -17.05 -30.1 -18.7 -30.65 -21.35 -25.4 -25.95 -17.3 -29.2 -8.5 -28.55 L-8.5 -23.5 Q-4.05 -20.1 -0.8 -16.7 4.0 -11.7 6.2 -6.75 L6.65 -6.85 6.7 -6.85 Q9.6 -8.7 10.75 -11.15 L10.95 -11.65 Q11.85 -13.6 12.1 -15.65 M7.65 -18.05 Q8.05 -11.45 6.65 -6.85 M-18.15 -11.15 Q-18.0 -16.2 -15.5 -19.5 -12.4 -23.4 -9.5 -19.65 L-4.7 -13.45 Q-2.8 -10.95 0.55 -8.7 3.9 -6.5 6.2 -6.75 M15.75 -0.9 L15.4 -0.45 M-27.35 -15.0 Q-25.9 -13.75 -23.75 -12.4 M-16.6 -0.9 L-17.35 -4.0 Q-18.25 -6.6 -18.2 -11.1 M-8.5 -23.5 Q-12.95 -25.4 -17.65 -24.6" fill="none" stroke="#000000" stroke-linecap="round" stroke-linejoin="round" stroke-width="2.0"/>
    <path d="M7.4 -20.6 L6.9 -24.25 M-4.4 0.55 L1.5 0.4 Q4.05 -0.4 5.05 -2.05 M-18.2 -11.1 L-18.2 -11.15 -18.15 -11.15 -18.2 -11.1" fill="none" stroke="#000000" stroke-linecap="round" stroke-linejoin="round" stroke-width="1.2000000000000002"/>
    <path d="M16.9 6.9 Q19.75 10.9 20.35 12.95 20.9 14.95 18.15 13.9 18.6 15.7 17.05 16.4 14.4 16.3 12.05 14.7 11.25 16.45 9.45 16.85 6.85 16.5 4.4 14.65 3.6 16.45 0.75 16.85 -1.9 16.65 -3.85 14.15 -5.75 15.75 -8.1 16.1 -10.15 15.75 -12.45 13.5 -16.1 14.95 -17.9 14.0 -17.6 11.15 -15.0 7.2 M-0.8 -16.7 Q4.75 -15.05 7.65 -18.05 Z" fill="none" stroke="#000000" stroke-linecap="round" stroke-linejoin="round" stroke-opacity="0.49803922" stroke-width="1.0"/>
  </g>
</svg>
