<?xml version="1.0" encoding="UTF-8" standalone="no"?>
<svg xmlns:xlink="http://www.w3.org/1999/xlink" height="57.8px" width="43.05px" xmlns="http://www.w3.org/2000/svg">
  <g transform="matrix(1.0, 0.0, 0.0, 1.0, 20.55, 30.35)">
    <path d="M9.9 -19.9 Q11.5 -18.15 12.75 -15.75 15.35 -7.15 16.1 2.9 18.5 13.35 21.5 21.2 17.8 24.95 4.0 26.45 -14.4 26.3 -19.55 21.4 L-15.7 10.0 Q-14.55 4.65 -16.65 -3.15 -20.55 -17.0 -12.15 -22.55 L-13.3 -25.0 Q-13.95 -27.2 -13.45 -29.35 -9.4 -27.15 -1.05 -26.8 -2.3 -24.9 -2.65 -22.85 -2.95 -21.15 -2.55 -19.35 L3.5 -14.55 Q6.45 -17.35 5.0 -23.1 4.35 -24.15 4.05 -25.4 3.6 -27.05 3.8 -29.0 9.15 -28.95 15.2 -25.0 L11.75 -22.65 9.4 -20.4 9.9 -19.9 M9.4 -20.4 L8.3 -18.55 Q7.2 -15.7 4.0 -14.65 3.5 -14.3 2.9 -14.65 1.5 -14.6 0.2 -15.3 -5.75 -17.0 -9.9 -20.25 M4.0 -14.65 L3.5 -14.55 0.2 -15.3 M-10.25 -20.5 L-11.75 -21.9 -12.15 -22.55" fill="none" stroke="#000000" stroke-linecap="round" stroke-linejoin="round" stroke-width="2.0"/>
    <path d="M9.9 -19.9 L10.2 -20.6 M-9.9 -20.25 Q-5.55 -13.4 0.65 -12.2 L0.75 -12.3 Q3.5 -14.25 6.45 -12.6 9.25 -15.65 9.9 -19.9 M6.45 -12.6 L6.75 -12.45 Q7.65 -9.25 6.6 -7.45 L6.6 -7.4 8.85 10.4 Q9.3 13.55 5.45 17.4 3.0 14.8 2.3 11.35 L2.3 -7.0 2.25 -7.0 Q0.5 -9.05 0.6 -12.2 L0.65 -12.2 M6.6 -7.4 Q4.7 -6.1 2.3 -7.0 M4.05 -25.4 Q8.7 -24.3 11.75 -22.65 M-9.9 -20.25 L-10.25 -20.5 M-2.65 -22.85 L-9.55 -23.55 -10.15 -23.7 Q-12.0 -24.25 -13.3 -25.0" fill="none" stroke="#000000" stroke-linecap="round" stroke-linejoin="round" stroke-width="1.0"/>
  </g>
</svg>
