<?xml version="1.0" encoding="UTF-8" standalone="no"?>
<svg xmlns:xlink="http://www.w3.org/1999/xlink" height="51.9px" width="43.05px" xmlns="http://www.w3.org/2000/svg">
  <g transform="matrix(1.0, 0.0, 0.0, 1.0, 20.55, 24.45)">
    <path d="M10.45 -12.15 Q10.45 -16.85 7.9 -21.35 L5.5 -23.05 Q7.85 -17.15 8.05 -11.35 M-8.55 -12.05 Q-8.95 -19.05 -11.45 -22.95 L-9.65 -23.95 Q-5.9 -18.85 -4.8 -11.65 M-4.4 0.55 L1.5 0.4 Q4.05 -0.4 5.05 -2.05 M-8.55 -12.05 L-7.5 -11.7" fill="none" stroke="#000000" stroke-linecap="round" stroke-linejoin="round" stroke-width="1.0"/>
    <path d="M8.05 -11.35 L10.45 -12.15 Q12.3 -13.1 13.45 -14.7 L15.9 -12.3 Q18.95 -7.55 17.2 -3.35 L15.75 -0.9 16.1 2.9 Q18.5 13.35 21.5 21.2 17.8 24.95 4.0 26.45 -14.4 26.3 -19.55 21.4 L-15.7 11.2 Q-14.55 4.65 -16.65 -3.15 -17.5 -6.2 -17.75 -8.9 -16.05 -12.55 -8.55 -12.05 L-6.25 -11.95 -4.8 -11.65 Q3.95 -10.05 8.05 -11.35 M15.75 -0.9 L15.4 -0.45" fill="none" stroke="#000000" stroke-linecap="round" stroke-linejoin="round" stroke-width="2.0"/>
  </g>
</svg>
