<?xml version="1.0" encoding="UTF-8" standalone="no"?>
<svg xmlns:xlink="http://www.w3.org/1999/xlink" height="55.05px" width="43.85px" xmlns="http://www.w3.org/2000/svg">
  <g transform="matrix(1.0, 0.0, 0.0, 1.0, 21.45, 26.2)">
    <path d="M-7.9 4.9 L-8.3 5.35 -8.45 5.0 -8.5 4.9 -7.9 4.9 M-11.95 4.85 L-12.0 4.9 -12.3 5.5 -12.4 4.85 -11.95 4.85" fill="#f3bae0" fill-rule="evenodd" stroke="none"/>
    <path d="M5.2 -23.15 Q9.2 -21.35 12.4 -16.95 16.8 -8.45 17.1 -5.2 17.25 -1.5 15.95 0.5 L17.05 4.45 17.65 6.9 18.1 9.1 18.75 13.55 Q20.95 19.9 21.4 23.75 17.05 27.8 3.05 27.85 -13.2 27.05 -20.45 24.2 -19.5 19.1 -16.25 13.55 L-16.5 13.55 -16.5 13.45 -18.55 13.5 Q-20.05 11.05 -18.0 6.7 -19.85 2.7 -18.1 -0.5 -16.65 -0.15 -15.55 0.5 -21.05 -12.75 -14.25 -21.4 -12.8 -23.8 -9.2 -25.2 L1.45 -12.1 Q4.2 -18.2 5.2 -23.15 M18.75 13.55 L0.35 14.55 0.1 15.1 -4.25 14.45 -16.25 13.55 M0.4 4.9 Q0.35 6.15 -0.2 7.4 L-0.65 8.3 0.2 9.95 Q1.1 12.25 0.35 14.55 M12.4 -16.95 Q11.0 -7.2 5.25 0.65 L15.95 0.5 M-14.25 -21.4 Q-6.6 -13.15 -2.15 -6.0 M-8.5 4.9 L-8.45 5.0 -8.3 5.35 -7.9 4.9 Q-5.8 2.3 -3.3 0.8 L-1.3 -0.2 -0.7 0.75 5.25 0.65 M-8.5 4.9 Q-9.15 3.9 -10.3 3.9 -11.35 3.9 -11.95 4.85 L-12.0 4.9 -12.3 5.5 -12.6 7.1 -12.6 7.45 Q-12.6 8.85 -12.0 9.65 L-11.95 9.7 -11.85 9.8 Q-11.15 10.55 -9.95 10.55 -9.15 10.55 -8.7 10.2 L-8.45 9.9 -8.4 9.8 Q-8.05 9.05 -7.95 7.65 L-7.9 7.25 Q-7.9 6.15 -8.3 5.35 M1.45 -12.1 Q-1.2 -6.2 -5.45 0.85 L-3.3 0.8 M-12.4 4.85 L-12.3 5.5 M-12.4 4.85 Q-12.95 2.3 -15.0 0.85 L-15.55 0.5 M-16.5 13.45 Q-13.95 12.9 -11.95 9.7 M-15.0 0.85 L-5.45 0.85 M-4.25 14.45 Q-7.3 13.3 -8.7 10.2 M-0.7 0.75 Q0.5 2.85 0.4 4.9" fill="none" stroke="#000000" stroke-linecap="round" stroke-linejoin="round" stroke-width="2.0"/>
    <path d="M17.05 4.45 Q12.2 4.85 0.4 4.9 M-0.2 7.4 Q11.6 7.55 17.65 6.9 M18.1 9.1 L0.2 9.95 M-7.9 4.9 L-8.5 4.9 M-11.95 4.85 L-12.4 4.85" fill="none" stroke="#000000" stroke-linecap="round" stroke-linejoin="round" stroke-width="1.0"/>
  </g>
</svg>
