<?xml version="1.0" encoding="UTF-8" standalone="no"?>
<svg xmlns:xlink="http://www.w3.org/1999/xlink" height="45.75px" width="45.0px" xmlns="http://www.w3.org/2000/svg">
  <g transform="matrix(1.0, 0.0, 0.0, 1.0, 21.8, 15.3)">
    <path d="M15.75 -0.9 L16.1 2.9 16.55 4.7 22.0 24.35 22.2 27.5 Q18.5 29.15 1.4 29.45 -12.85 28.8 -20.8 27.25 L-20.5 23.7 Q-19.15 19.75 -17.0 14.75 -14.85 9.7 -15.35 4.7 -15.45 2.35 -15.95 -0.15 L-16.65 -3.15 -16.85 -3.95 Q-15.25 -4.7 -12.4 -7.85 -9.6 -11.05 -5.3 -13.4 0.25 -12.8 6.35 -8.75 6.65 -10.8 10.55 -14.3 14.05 -13.75 15.95 -12.25 17.0 -10.6 17.5 -9.0 18.35 -6.05 17.2 -3.35 L15.75 -0.9 15.4 -0.45" fill="none" stroke="#000000" stroke-linecap="round" stroke-linejoin="round" stroke-width="2.0"/>
    <path d="M-4.4 0.55 L1.5 0.4 Q4.05 -0.4 5.05 -2.05" fill="none" stroke="#000000" stroke-linecap="round" stroke-linejoin="round" stroke-width="1.0"/>
  </g>
</svg>
