<?xml version="1.0" encoding="UTF-8" standalone="no"?>
<svg xmlns:xlink="http://www.w3.org/1999/xlink" height="32.7px" width="37.65px" xmlns="http://www.w3.org/2000/svg">
  <g transform="matrix(1.0, 0.0, 0.0, 1.0, 17.85, 15.3)">
    <path d="M15.75 -0.9 L17.2 -3.35 Q18.35 -6.05 17.5 -9.0 17.0 -10.6 15.95 -12.25 14.05 -13.75 10.55 -14.3 6.65 -10.8 6.35 -8.75 0.25 -12.8 -5.3 -13.4 -9.6 -11.05 -12.4 -7.85 -15.25 -4.7 -16.85 -3.95 L-16.65 -3.15 -15.95 -0.15 Q-14.85 5.45 -15.55 10.35 L-15.7 11.2 -16.6 13.65 Q-8.95 15.95 2.8 16.4 4.45 12.45 6.9 9.6 9.75 12.65 10.9 15.85 16.85 15.75 18.8 13.25 L18.25 11.3 Q17.1 7.35 16.1 2.9 L15.75 -0.9 15.4 -0.45" fill="none" stroke="#000000" stroke-linecap="round" stroke-linejoin="round" stroke-width="2.0"/>
    <path d="M-4.4 0.55 L1.5 0.4 Q4.05 -0.4 5.05 -2.05" fill="none" stroke="#000000" stroke-linecap="round" stroke-linejoin="round" stroke-width="1.0"/>
  </g>
</svg>
