<?xml version="1.0" encoding="UTF-8" standalone="no"?>
<svg xmlns:xlink="http://www.w3.org/1999/xlink" height="55.25px" width="41.45px" xmlns="http://www.w3.org/2000/svg">
  <g transform="matrix(1.0, 0.0, 0.0, 1.0, 19.9, 28.05)">
    <path d="M16.9 -1.85 Q19.4 -0.45 19.7 1.25 17.9 2.4 17.2 1.4 17.3 2.2 16.1 2.45 16.05 4.3 17.7 9.6 19.3 14.85 20.8 21.5 17.8 24.95 4.0 26.45 -14.4 26.3 -19.15 21.4 L-15.45 10.1 Q-14.45 7.3 -15.35 3.85 -17.15 4.8 -19.15 4.45 L-18.6 1.6 Q-17.65 0.6 -15.9 0.0 -13.25 -0.85 -8.75 -0.75 -1.25 -0.6 -0.45 -3.35 0.55 -7.2 1.7 -9.85 2.7 -9.15 4.15 -8.65 4.4 -6.65 3.1 -6.45 4.85 -5.0 4.25 -3.05 3.75 -1.3 2.2 -1.5 2.55 0.6 1.05 1.9 -1.85 2.8 -3.75 1.1 -4.7 3.1 -7.6 3.65 -11.45 3.5 -13.0 1.9 -14.15 3.2 -15.35 3.85 -14.15 3.2 -13.0 1.9 -11.45 3.5 -7.6 3.65 -4.7 3.1 -3.75 1.1 -1.85 2.8 1.05 1.9 2.55 0.6 2.2 -1.5 3.75 -1.3 4.25 -3.05 4.85 -5.0 3.1 -6.45 4.4 -6.65 4.15 -8.65 L4.25 -8.65 5.95 -10.2 Q7.85 -7.3 8.85 -4.25 10.6 -1.5 15.75 -1.0 L17.0 -0.9 16.9 -1.85 M16.1 2.45 L15.55 2.5 Q13.7 2.35 13.25 0.45 11.4 1.9 9.55 0.7 8.25 -0.5 8.4 -1.5 6.85 -1.4 5.65 -3.0 5.4 -4.95 6.1 -6.3 4.75 -6.85 4.15 -8.65 4.75 -6.85 6.1 -6.3 5.4 -4.95 5.65 -3.0 6.85 -1.4 8.4 -1.5 8.25 -0.5 9.55 0.7 11.4 1.9 13.25 0.45 13.7 2.35 15.55 2.5 L16.1 2.45" fill="#ffffff" fill-rule="evenodd" stroke="none"/>
    <path d="M-18.6 1.6 Q-19.5 -0.55 -18.65 -10.7 -18.6 -18.95 -10.7 -23.25 -11.25 -25.5 -10.25 -27.3 -0.55 -25.1 5.2 -27.05 5.85 -24.9 5.4 -22.85 L9.75 -19.85 Q15.1 -14.15 15.15 -5.85 16.55 -3.8 16.9 -1.85 M16.1 2.45 Q16.05 4.3 17.7 9.6 19.3 14.85 20.8 21.5 17.8 24.95 4.0 26.45 -14.4 26.3 -19.15 21.4 L-15.45 10.1 Q-14.45 7.3 -15.35 3.85 M5.4 -22.85 L3.35 -21.45 M-2.95 -21.1 Q-9.5 -21.45 -10.55 -22.7 L-10.7 -23.25" fill="none" stroke="#000000" stroke-linecap="round" stroke-linejoin="round" stroke-width="1.5"/>
    <path d="M16.9 -1.85 Q19.4 -0.45 19.7 1.25 17.9 2.4 17.2 1.4 17.3 2.2 16.1 2.45 L15.55 2.5 Q13.7 2.35 13.25 0.45 11.4 1.9 9.55 0.7 8.25 -0.5 8.4 -1.5 6.85 -1.4 5.65 -3.0 5.4 -4.95 6.1 -6.3 4.75 -6.85 4.15 -8.65 2.7 -9.15 1.7 -9.85 0.1 -10.95 -0.6 -12.55 -1.8 -15.25 0.35 -15.9 2.0 -16.2 3.55 -14.05 4.15 -16.3 5.9 -16.35 7.85 -15.95 7.4 -13.25 7.1 -11.6 5.95 -10.2 7.85 -7.3 8.85 -4.25 10.6 -1.5 15.75 -1.0 L17.0 -0.9 16.9 -1.85 M-15.35 3.85 Q-17.15 4.8 -19.15 4.45 L-18.6 1.6 Q-17.65 0.6 -15.9 0.0 -13.25 -0.85 -8.75 -0.75 -1.25 -0.6 -0.45 -3.35 0.55 -7.2 1.7 -9.85 M5.95 -10.2 L4.25 -8.65 4.15 -8.65 Q4.4 -6.65 3.1 -6.45 4.85 -5.0 4.25 -3.05 3.75 -1.3 2.2 -1.5 2.55 0.6 1.05 1.9 -1.85 2.8 -3.75 1.1 -4.7 3.1 -7.6 3.65 -11.45 3.5 -13.0 1.9 -14.15 3.2 -15.35 3.85" fill="none" stroke="#000000" stroke-linecap="round" stroke-linejoin="round" stroke-width="1.0"/>
  </g>
</svg>
