<?xml version="1.0" encoding="UTF-8" standalone="no"?>
<svg xmlns:xlink="http://www.w3.org/1999/xlink" height="263.1px" width="74.8px" xmlns="http://www.w3.org/2000/svg">
  <g transform="matrix(1.0, 0.0, 0.0, 1.0, 37.4, 131.55)">
    <path d="M20.9 -129.1 Q15.45 -130.65 8.2 -130.55 3.8 -129.2 -0.1 -126.65 M11.1 -98.55 L9.15 -96.2 M36.4 -100.75 Q34.85 -46.8 25.5 -7.45 32.15 51.8 8.25 100.1 18.9 68.75 19.65 13.4 L16.85 21.4 Q-1.9 71.8 5.4 130.55 -6.65 119.75 -13.05 102.75 L-13.65 101.1 Q-13.4 106.2 -22.35 117.0 -19.75 104.5 -23.8 85.1 -27.9 65.7 -27.3 54.55 L-25.6 26.8 Q-24.7 13.75 -26.4 -5.0 M25.5 -7.45 Q22.9 3.55 19.65 13.4 M-0.35 -24.9 Q-2.25 -13.15 -4.3 -2.8 M-26.5 -36.7 Q-23.35 -59.8 -18.0 -80.55 M-8.75 16.8 Q-13.8 36.25 -19.75 49.0 5.15 17.1 11.8 -31.0 M-13.05 102.75 Q-21.45 76.15 -18.75 55.85 M-26.9 -78.45 Q-45.25 -16.75 -28.15 40.0 -31.75 16.8 -29.75 -8.25" fill="none" stroke="#101010" stroke-linecap="round" stroke-linejoin="round" stroke-width="2.0"/>
  </g>
</svg>
