<?xml version="1.0" encoding="UTF-8" standalone="no"?>
<svg xmlns:xlink="http://www.w3.org/1999/xlink" height="52.35px" width="43.05px" xmlns="http://www.w3.org/2000/svg">
  <g transform="matrix(1.0, 0.0, 0.0, 1.0, 20.55, 24.9)">
    <path d="M0.85 -16.35 L1.5 -15.9 Q6.1 -18.05 5.25 -23.2 9.95 -21.1 12.75 -15.75 15.35 -7.15 16.1 2.9 L17.2 6.55 Q21.6 16.55 20.9 19.9 L21.5 21.2 Q17.8 24.95 4.0 26.45 -14.4 26.3 -19.55 21.4 L-15.7 10.0 Q-14.55 4.65 -16.65 -3.15 -20.35 -16.25 -13.85 -21.3 -11.65 -23.05 -9.8 -23.9 -4.7 -21.1 0.85 -16.35 12.25 -3.65 17.2 6.55 M-13.85 -21.3 Q4.75 -4.15 18.6 21.9 20.35 21.75 20.9 19.9" fill="none" stroke="#000000" stroke-linecap="round" stroke-linejoin="round" stroke-width="2.0"/>
  </g>
</svg>
