<?xml version="1.0" encoding="UTF-8" standalone="no"?>
<svg xmlns:xlink="http://www.w3.org/1999/xlink" height="54.9px" width="43.05px" xmlns="http://www.w3.org/2000/svg">
  <g transform="matrix(1.0, 0.0, 0.0, 1.0, 20.6, 27.5)">
    <path d="M-9.85 -23.95 L-9.85 -26.5 0.75 -25.7 5.2 -26.15 5.2 -23.25 Q6.75 -22.55 8.1 -21.5 10.85 -19.4 12.7 -15.8 14.05 -11.35 14.9 -6.45 15.7 -2.0 16.05 2.85 18.45 13.3 21.45 21.15 17.75 24.9 3.95 26.4 -14.45 26.25 -19.6 21.35 L-15.75 9.95 Q-14.7 5.15 -16.3 -1.6 L-16.7 -3.2 Q-20.55 -16.9 -12.4 -22.5 L-9.85 -23.95 Q-9.95 -21.55 -6.15 -16.85 -4.2 -15.7 3.1 -13.45 5.5 -14.9 6.25 -17.4 6.1 -20.05 5.2 -23.25 M8.1 -21.5 L9.4 -16.45 14.9 -6.45 M-12.4 -22.5 Q-10.0 -16.9 -9.5 -13.35 -10.4 -2.9 -16.3 -1.6" fill="none" stroke="#000000" stroke-linecap="round" stroke-linejoin="round" stroke-width="2.0"/>
    <path d="M2.3 -24.15 L2.75 -21.95 M-2.05 -24.15 L-2.05 -21.9 M-6.8 -24.45 L-7.0 -22.15" fill="none" stroke="#000000" stroke-linecap="round" stroke-linejoin="round" stroke-width="1.0"/>
  </g>
</svg>
