<?xml version="1.0" encoding="UTF-8" standalone="no"?>
<svg xmlns:xlink="http://www.w3.org/1999/xlink" height="51.9px" width="41.4px" xmlns="http://www.w3.org/2000/svg">
  <g transform="matrix(1.0, 0.0, 0.0, 1.0, 20.0, 24.7)">
    <path d="M-15.25 1.35 L-15.25 1.3 -14.9 0.75 -15.25 1.35" fill="#a1d4e9" fill-rule="evenodd" stroke="none"/>
    <path d="M-14.9 0.75 Q-12.6 -1.8 -10.25 -8.25 L-10.2 -8.5 -9.9 -9.7 Q-8.65 -14.75 -12.6 -22.0 L-9.8 -23.7 -4.2 -13.8 Q3.3 -12.6 6.75 -14.4 7.0 -18.0 5.3 -22.5 L9.9 -19.2 Q10.4 -17.5 11.25 -16.05 L15.8 -11.8 Q17.5 -9.9 17.8 -8.15 18.5 -4.45 15.4 -0.45 L20.4 22.5 Q16.3 25.65 0.5 26.15 -15.3 26.6 -19.0 22.8 L-15.7 10.55 Q-15.05 6.15 -15.25 1.35 L-15.25 1.3 -14.9 0.75 -15.25 1.35" fill="none" stroke="#000000" stroke-linecap="round" stroke-linejoin="round" stroke-width="2.0"/>
    <path d="M-4.4 0.55 L1.5 0.4 Q4.05 -0.4 5.05 -2.05" fill="none" stroke="#000000" stroke-linecap="round" stroke-linejoin="round" stroke-width="1.0"/>
  </g>
</svg>
