<?xml version="1.0" encoding="UTF-8" standalone="no"?>
<svg xmlns:xlink="http://www.w3.org/1999/xlink" height="52.55px" width="43.05px" xmlns="http://www.w3.org/2000/svg">
  <g transform="matrix(1.0, 0.0, 0.0, 1.0, 20.55, 25.1)">
    <path d="M-1.0 -20.25 Q4.6 -20.05 4.55 -23.45 L6.95 -22.25 7.9 -21.65 Q10.8 -19.5 12.75 -15.75 15.35 -7.15 16.1 2.9 18.5 13.35 21.5 21.2 17.8 24.95 4.0 26.45 -14.4 26.3 -19.55 21.4 L-15.7 10.0 Q-14.55 4.65 -16.65 -3.15 -20.45 -16.7 -12.05 -22.65 L-10.6 -23.45 -9.15 -24.1 Q-6.6 -20.5 -1.0 -20.25" fill="none" stroke="#000000" stroke-linecap="round" stroke-linejoin="round" stroke-width="2.0"/>
    <path d="M-10.6 -23.45 Q-9.45 -18.25 -1.5 -17.15 6.45 -16.1 6.95 -22.25" fill="none" stroke="#000000" stroke-linecap="round" stroke-linejoin="round" stroke-width="1.5"/>
  </g>
</svg>
