<?xml version="1.0" encoding="UTF-8" standalone="no"?>
<svg xmlns:xlink="http://www.w3.org/1999/xlink" height="179.5px" width="129.25px" xmlns="http://www.w3.org/2000/svg">
  <g transform="matrix(1.0, 0.0, 0.0, 1.0, 60.35, 103.55)">
    <path d="M21.15 -69.85 Q30.9 -89.8 48.1 -94.2 61.75 -79.35 61.6 -50.7 46.6 -48.0 31.6 -49.05 23.05 -49.65 14.5 -51.45 17.25 -61.9 21.15 -69.85 29.5 -65.45 31.7 -55.45 L31.6 -49.05 M11.55 -49.65 Q11.9 -61.6 15.95 -71.9 18.25 -77.65 21.65 -82.9 31.2 -97.6 50.6 -102.55 62.85 -95.15 66.0 -73.15 69.15 -51.2 67.1 -44.5 46.4 -41.6 31.45 -43.55 19.75 -45.1 11.55 -49.65 10.05 -46.25 7.55 -43.0 L6.15 -41.35 Q-0.2 -34.15 -11.7 -28.15 -17.55 -25.1 -22.95 -23.35 -27.55 -21.85 -31.85 -21.25 -38.05 -20.45 -43.6 -21.5 -52.85 -29.85 -57.05 -45.25 -62.15 -72.7 -56.05 -82.85 -37.9 -85.4 -20.8 -79.2 -12.75 -76.25 -5.05 -69.45 3.5 -61.95 11.55 -49.65 M-9.85 -10.0 L-4.0 -23.0 Q-0.2 -31.0 4.2 -39.0 -20.45 -9.25 -31.45 20.5 -35.55 31.6 -37.75 42.75 -37.3 45.85 -34.7 48.95 L-31.35 52.2 -27.8 54.85 Q-23.4 22.2 -9.85 -10.0 -24.0 33.45 -18.35 74.95 L-13.7 74.0 Q-8.55 72.3 -6.65 68.0 -8.25 61.35 -9.25 54.4 -14.25 19.75 -4.0 -23.0 M-29.45 -28.9 Q-34.2 -27.85 -39.2 -27.35 -55.0 -45.95 -50.55 -77.0 -29.65 -77.15 -10.6 -65.05 -0.95 -58.9 8.25 -49.65 -8.25 -33.65 -29.45 -28.9 L-26.0 -38.7 -25.0 -41.4 -23.85 -44.35 Q-18.35 -57.55 -10.6 -65.05" fill="none" stroke="#101010" stroke-linecap="round" stroke-linejoin="round" stroke-width="2.0"/>
  </g>
</svg>
