<?xml version="1.0" encoding="UTF-8" standalone="no"?>
<svg xmlns:xlink="http://www.w3.org/1999/xlink" height="57.6px" width="44.45px" xmlns="http://www.w3.org/2000/svg">
  <g transform="matrix(1.0, 0.0, 0.0, 1.0, 22.1, 27.35)">
    <path d="M4.35 -23.3 L5.45 -17.6 5.45 -17.5 5.45 -17.4 Q5.4 -12.1 4.75 -8.35 L4.65 -7.45 3.45 -13.45 Q4.1 -14.6 3.65 -17.65 L2.95 -18.7 1.05 -20.75 -0.4 -18.6 1.05 -20.75 2.95 -18.7 -0.4 -18.6 -1.25 -17.1 -2.1 -15.3 Q-5.3 -16.3 -7.4 -18.45 -5.3 -16.3 -2.1 -15.3 L-1.25 -17.1 Q-1.0 -14.85 0.05 -13.75 L0.15 -5.85 -1.8 -9.05 -7.4 -18.45 -10.35 -23.6 -9.1 -26.35 Q-6.35 -24.2 0.95 -22.05 3.05 -24.1 3.5 -26.35 L4.35 -23.3 M5.45 -17.4 Q5.4 -15.9 4.6 -15.8 L3.65 -17.65 4.6 -15.8 Q5.4 -15.9 5.45 -17.4" fill="#f5f5f5" fill-rule="evenodd" stroke="none"/>
    <path d="M4.65 -7.45 L4.1 1.05 0.15 -5.85 0.05 -13.75 Q0.9 -12.8 2.35 -12.8 3.05 -12.8 3.45 -13.45 3.05 -12.8 2.35 -12.8 0.9 -12.8 0.05 -13.75 -1.0 -14.85 -1.25 -17.1 L-0.4 -18.6 2.95 -18.7 3.65 -17.65 Q4.1 -14.6 3.45 -13.45 L4.65 -7.45" fill="#2a2a2a" fill-rule="evenodd" stroke="none"/>
    <path d="M7.05 -21.15 L4.35 -23.3 5.45 -17.6 5.45 -17.5 5.45 -17.4 Q5.4 -12.1 4.75 -8.35 L4.65 -7.45 4.1 1.05 0.15 -5.85 -1.8 -9.05 -7.4 -18.45 -10.35 -23.6 M-12.7 -22.2 Q-5.9 -8.7 5.05 6.7 8.7 -6.1 7.6 -20.85 M-0.4 -18.6 L1.05 -20.75 2.95 -18.7 3.65 -17.65 4.6 -15.8 Q5.4 -15.9 5.45 -17.4 M5.05 6.7 L6.4 9.8 6.8 29.2 M-1.25 -17.1 L-0.4 -18.6 M-7.4 -18.45 Q-5.3 -16.3 -2.1 -15.3 L-1.25 -17.1" fill="none" stroke="#000000" stroke-linecap="round" stroke-linejoin="round" stroke-width="1.5"/>
    <path d="M0.05 -13.75 Q0.9 -12.8 2.35 -12.8 3.05 -12.8 3.45 -13.45 4.1 -14.6 3.65 -17.65 M3.45 -13.45 L4.65 -7.45 M0.05 -13.75 L0.15 -5.85 M5.1 10.9 Q5.1 11.65 4.5 12.15 4.0 12.75 3.25 12.75 2.5 12.75 1.95 12.15 1.45 11.65 1.45 10.9 1.45 10.15 1.95 9.6 2.5 9.05 3.25 9.05 4.0 9.05 4.5 9.6 5.1 10.15 5.1 10.9 M4.95 17.15 Q4.95 17.9 4.35 18.4 3.85 19.0 3.1 19.0 2.35 19.0 1.8 18.4 1.3 17.9 1.3 17.15 1.3 16.4 1.8 15.85 2.35 15.3 3.1 15.3 3.85 15.3 4.35 15.85 4.95 16.4 4.95 17.15 M4.7 23.15 Q4.7 23.9 4.1 24.4 3.6 25.0 2.85 25.0 2.1 25.0 1.55 24.4 1.05 23.9 1.05 23.15 1.05 22.4 1.55 21.85 2.1 21.3 2.85 21.3 3.6 21.3 4.1 21.85 4.7 22.4 4.7 23.15 M-0.4 -18.6 L2.95 -18.7 M-1.25 -17.1 Q-1.0 -14.85 0.05 -13.75" fill="none" stroke="#000000" stroke-linecap="round" stroke-linejoin="round" stroke-width="1.0"/>
    <path d="M7.6 -20.85 L7.05 -21.15 M-10.35 -23.6 Q-11.55 -23.1 -12.7 -22.2 L-13.95 -21.1 Q-20.6 -15.2 -16.4 0.05 -15.55 6.7 -16.35 13.7 -19.85 20.45 -21.1 27.2 -16.95 29.6 6.8 29.2 L11.6 29.2 Q19.6 28.7 21.35 26.2 21.35 22.15 19.9 16.6 17.7 9.45 16.1 1.3 L13.95 -11.4 Q12.9 -17.75 7.6 -20.85 M4.35 -23.3 L3.5 -26.35 Q3.05 -24.1 0.95 -22.05 -6.35 -24.2 -9.1 -26.35 L-10.35 -23.6" fill="none" stroke="#000000" stroke-linecap="round" stroke-linejoin="round" stroke-width="2.0"/>
    <path d="M12.9 -4.55 L8.8 -4.3 Q9.25 0.1 12.2 0.95 15.7 0.9 13.55 -7.85 L8.8 -7.6 Q8.65 -5.75 8.8 -4.3" fill="none" stroke="#000000" stroke-linecap="round" stroke-linejoin="round" stroke-width="1.2000000000000002"/>
  </g>
</svg>
