<?xml version="1.0" encoding="UTF-8" standalone="no"?>
<svg xmlns:xlink="http://www.w3.org/1999/xlink" height="56.7px" width="43.65px" xmlns="http://www.w3.org/2000/svg">
  <g transform="matrix(1.0, 0.0, 0.0, 1.0, 21.2, 28.8)">
    <path d="M4.55 -4.45 L4.7 -2.0 5.7 -2.0 6.4 -2.0 M3.45 -2.0 L4.7 -2.0 M8.55 3.7 L8.35 1.35 M1.7 1.05 L4.4 1.0 5.05 1.0 8.15 0.95 M4.5 3.05 L4.4 1.0 M0.05 4.3 L5.05 4.3 9.75 4.3 M4.5 4.0 L4.5 3.05 M-1.55 7.65 L0.6 7.65 2.55 7.6 2.65 4.7 M0.6 7.65 L0.5 10.6 M2.55 7.6 L4.4 7.6 7.0 7.55 6.7 4.9 M4.4 7.6 L4.5 10.5 M8.95 7.85 L9.05 10.7 M7.0 7.55 L11.8 7.5 M5.9 0.55 L5.7 -2.0 M2.55 0.75 L2.55 -1.2" fill="none" stroke="#000000" stroke-linecap="round" stroke-linejoin="round" stroke-width="1.0"/>
    <path d="M5.8 -13.9 Q-12.85 -13.9 -17.2 -17.75 -18.35 -7.9 -15.75 3.65 -16.05 10.8 -17.5 15.0 L-20.2 23.6 Q-12.4 26.85 6.25 26.9 16.4 26.95 21.45 23.4 L16.8 3.85 Q15.7 -8.15 12.9 -15.55 L12.0 -14.7 M-17.2 -17.75 Q-21.0 -20.85 -19.05 -27.3 -18.4 -27.9 -16.25 -27.8 L-13.3 -27.4 -10.95 -26.95 -7.45 -26.15 -2.25 -25.15 Q5.15 -24.3 12.4 -26.35 14.45 -23.95 14.75 -22.7 15.2 -18.15 12.9 -15.55 M7.4 -25.0 Q9.0 -21.15 8.35 -15.6 M5.05 1.0 L5.0 -0.2 M4.5 3.05 L5.05 3.05 5.05 1.0 M2.95 3.05 L4.5 3.05 M5.05 4.3 L5.05 6.15 M5.05 4.3 L5.05 3.05 7.0 3.05 M4.55 -7.2 Q-0.1 1.65 -4.1 11.35 L14.45 11.05 Q9.75 1.15 4.55 -7.2 M-13.3 -27.4 Q-14.6 -23.85 -12.7 -17.3 M-2.25 -25.15 L-1.85 -15.9" fill="none" stroke="#000000" stroke-linecap="round" stroke-linejoin="round" stroke-width="2.0"/>
  </g>
</svg>
