<?xml version="1.0" encoding="UTF-8" standalone="no"?>
<svg xmlns:xlink="http://www.w3.org/1999/xlink" height="52.35px" width="43.05px" xmlns="http://www.w3.org/2000/svg">
  <g transform="matrix(1.0, 0.0, 0.0, 1.0, 20.55, 24.9)">
    <path d="M9.25 -20.5 Q11.25 -18.6 12.75 -15.75 15.35 -7.15 16.1 2.9 18.5 13.35 21.5 21.2 19.25 23.45 13.35 24.9 L8.55 25.85 4.0 26.45 -3.1 26.45 -8.35 25.7 Q-16.1 24.65 -19.55 21.4 L-15.7 10.0 Q-14.55 4.65 -16.65 -3.15 -20.45 -16.7 -12.05 -22.65 L-11.45 -23.05 -9.8 -23.9 Q-8.1 -21.5 -4.8 -20.5 L-0.7 -19.85 Q3.35 -19.65 4.65 -21.05 5.45 -21.85 5.25 -23.2 6.65 -22.6 7.9 -21.65 L9.25 -20.5 Q13.55 -4.65 13.35 24.9 M4.65 -21.05 Q8.25 -14.2 8.55 25.85 M-3.1 26.45 Q-0.7 -11.45 -4.8 -20.5 M-11.45 -23.05 Q-5.1 -11.0 -8.35 25.7" fill="none" stroke="#000000" stroke-linecap="round" stroke-linejoin="round" stroke-width="2.0"/>
  </g>
</svg>
