<?xml version="1.0" encoding="UTF-8" standalone="no"?>
<svg xmlns:xlink="http://www.w3.org/1999/xlink" height="36.7px" width="38.6px" xmlns="http://www.w3.org/2000/svg">
  <g transform="matrix(1.0, 0.0, 0.0, 1.0, 19.0, 24.9)">
    <path d="M0.95 -19.75 Q4.8 -20.7 5.25 -23.2 6.65 -22.6 7.9 -21.65 10.8 -19.5 12.75 -15.75 15.35 -7.15 16.1 2.9 L17.4 6.15 18.6 9.45 11.65 6.3 7.0 10.8 -1.05 6.5 -6.5 10.25 -9.85 6.35 Q-13.9 9.65 -18.0 10.6 -14.55 4.65 -16.65 -3.15 -20.45 -16.7 -12.05 -22.65 L-9.8 -23.9 Q-8.25 -21.05 -5.55 -20.65 L-2.9 -21.15 Q-0.1 -19.8 0.95 -19.75 Z" fill="none" stroke="#000000" stroke-linecap="round" stroke-linejoin="round" stroke-width="2.0"/>
  </g>
</svg>
