<?xml version="1.0" encoding="UTF-8" standalone="no"?>
<svg xmlns:xlink="http://www.w3.org/1999/xlink" height="54.9px" width="43.05px" xmlns="http://www.w3.org/2000/svg">
  <g transform="matrix(1.0, 0.0, 0.0, 1.0, 20.55, 27.8)">
    <path d="M5.25 -20.3 L5.25 -20.1 5.8 -16.85 Q2.45 -14.65 -2.95 -16.35 L-4.8 -20.5 Q2.3 -18.3 5.25 -20.3" fill="#f3f6ff" fill-rule="evenodd" stroke="none"/>
    <path d="M10.6 -19.0 Q11.55 -18.0 12.75 -15.75 15.35 -7.15 16.1 2.9 18.5 13.35 21.5 21.2 19.5 23.25 14.05 24.65 L9.2 25.6 Q4.05 26.65 0.75 25.55 L0.75 26.1 -5.75 25.65 Q-16.25 24.5 -19.55 21.4 L-15.7 10.0 Q-14.55 4.65 -16.65 -3.15 -20.0 -15.05 -13.95 -21.05 L-14.5 -23.25 Q-15.3 -26.45 -10.0 -26.8 L-8.2 -25.35 Q-6.25 -23.25 -4.8 -20.5 2.3 -18.3 5.25 -20.3 L4.2 -23.0 Q3.35 -25.3 3.65 -26.05 6.5 -25.8 8.4 -23.8 10.2 -21.8 10.6 -19.0 13.4 1.1 14.05 24.65 M5.25 -20.3 L5.25 -20.1 5.8 -16.85 Q8.3 -0.9 9.2 25.6 M5.8 -16.85 Q2.45 -14.65 -2.95 -16.35 -1.55 -12.35 -0.9 -7.4 0.4 3.9 0.75 25.55 M-13.95 -21.05 L-12.05 -22.65 Q-5.2 -11.95 -5.75 25.65 M-4.8 -20.5 L-2.95 -16.35" fill="none" stroke="#000000" stroke-linecap="round" stroke-linejoin="round" stroke-width="2.0"/>
  </g>
</svg>
