<?xml version="1.0" encoding="UTF-8" standalone="no"?>
<svg xmlns:xlink="http://www.w3.org/1999/xlink" height="56.1px" width="43.05px" xmlns="http://www.w3.org/2000/svg">
  <g transform="matrix(1.0, 0.0, 0.0, 1.0, 20.55, 28.65)">
    <path d="M2.45 -26.8 L3.2 -22.5 M-6.8 -27.05 L-7.0 -22.7 M-1.45 -26.7 L-1.45 -22.2" fill="none" stroke="#000000" stroke-linecap="round" stroke-linejoin="round" stroke-width="1.5"/>
    <path d="M-10.5 -23.3 Q-10.85 -25.55 -10.05 -27.65 L-6.8 -27.05 -1.45 -26.7 2.45 -26.8 4.5 -27.0 Q5.35 -25.15 5.2 -22.9 L5.25 -22.9 Q9.95 -21.1 12.75 -15.75 15.35 -7.15 16.1 2.9 18.5 13.35 21.5 21.2 17.8 24.95 4.0 26.45 -14.4 26.3 -19.55 21.4 L-15.7 10.0 Q-14.55 4.65 -16.65 -3.15 -20.95 -18.5 -10.5 -23.3 -7.95 -20.3 0.25 -20.85 4.95 -21.4 5.25 -22.9" fill="none" stroke="#000000" stroke-linecap="round" stroke-linejoin="round" stroke-width="2.0"/>
  </g>
</svg>
