<?xml version="1.0" encoding="UTF-8" standalone="no"?>
<svg xmlns:xlink="http://www.w3.org/1999/xlink" height="54.1px" width="41.05px" xmlns="http://www.w3.org/2000/svg">
  <g transform="matrix(1.0, 0.0, 0.0, 1.0, 20.5, 27.05)">
    <path d="M4.3 -22.3 L5.45 -21.75 Q4.05 -15.6 1.4 -8.45 -4.15 -15.4 -10.85 -22.1 L-11.45 -22.7 Q-11.8 -24.95 -11.0 -27.05 L-7.75 -26.45 -2.4 -26.1 1.5 -26.2 3.55 -26.4 Q4.4 -24.55 4.25 -22.3 L4.3 -22.3 M11.8 -15.15 Q14.4 -6.55 15.15 3.5 17.55 13.95 20.55 21.8 L19.7 22.55 Q14.8 10.25 6.65 -1.45 9.8 -10.6 10.4 -17.4 L11.8 -15.15 M3.05 27.05 L-6.2 26.6 Q-0.65 16.3 3.1 7.65 9.35 17.0 13.3 25.3 9.15 26.4 3.05 27.05 M-20.5 22.0 L-16.65 10.6 Q-15.5 5.25 -17.6 -2.55 -20.45 -12.7 -16.85 -18.2 -8.55 -8.55 -2.1 0.2 -7.15 11.55 -14.9 24.95 L-14.9 25.0 Q-18.6 23.8 -20.5 22.0" fill="#434343" fill-rule="evenodd" stroke="none"/>
  </g>
</svg>
