<?xml version="1.0" encoding="UTF-8" standalone="no"?>
<svg xmlns:xlink="http://www.w3.org/1999/xlink" height="50.25px" width="37.25px" xmlns="http://www.w3.org/2000/svg">
  <g transform="matrix(1.0, 0.0, 0.0, 1.0, 18.6, 25.1)">
    <path d="M-12.8 -25.1 L-12.2 -24.5 Q-5.5 -17.8 0.05 -10.85 2.7 -18.0 4.1 -24.15 L4.2 -24.65 Q7.0 -23.15 9.15 -21.05 L9.05 -19.8 Q8.45 -13.0 5.3 -3.85 13.45 7.85 18.35 20.15 L18.65 21.0 Q14.5 23.25 12.1 23.25 L11.95 22.9 Q8.0 14.6 1.75 5.25 -2.0 13.9 -7.55 24.2 L-8.1 25.15 Q-16.0 24.05 -16.25 22.6 L-16.25 22.55 Q-8.5 9.15 -3.45 -2.2 -9.9 -10.95 -18.2 -20.6 L-18.6 -21.05 Q-16.0 -24.9 -12.8 -25.1" fill="#c9c9c9" fill-rule="evenodd" stroke="none"/>
  </g>
</svg>
