<?xml version="1.0" encoding="UTF-8" standalone="no"?>
<svg xmlns:xlink="http://www.w3.org/1999/xlink" height="56.35px" width="43.05px" xmlns="http://www.w3.org/2000/svg">
  <g transform="matrix(1.0, 0.0, 0.0, 1.0, 20.55, 28.65)">
    <path d="M6.4 -22.35 L6.5 -22.85 Q9.3 -21.35 11.45 -19.25 L11.35 -18.0 Q10.75 -11.2 7.6 -2.05 15.75 9.65 20.65 21.95 L20.95 22.8 Q16.8 25.05 14.4 25.05 L14.25 24.7 Q10.3 16.4 4.05 7.05 0.3 15.7 -5.25 26.0 L-5.8 26.95 Q-13.7 25.85 -13.95 24.4 L-13.95 24.35 Q-6.2 10.95 -1.15 -0.4 -7.6 -9.15 -15.9 -18.8 L-16.3 -19.25 Q-13.7 -23.1 -10.5 -23.3 L-9.9 -22.7 Q-3.2 -16.0 2.35 -9.05 L7.6 -2.05 M6.4 -22.35 Q5.0 -16.2 2.35 -9.05 M2.45 -26.8 L3.2 -22.5 M-1.45 -26.7 L-1.45 -22.2 M-6.8 -27.05 L-7.0 -22.7 M4.05 7.05 L-1.15 -0.4" fill="none" stroke="#000000" stroke-linecap="round" stroke-linejoin="round" stroke-width="1.5"/>
    <path d="M-10.5 -23.3 Q-10.85 -25.55 -10.05 -27.65 L-6.8 -27.05 -1.45 -26.7 2.45 -26.8 4.5 -27.0 Q5.35 -25.15 5.2 -22.9 L5.25 -22.9 6.4 -22.35 M11.35 -18.0 L12.75 -15.75 Q15.35 -7.15 16.1 2.9 18.5 13.35 21.5 21.2 L20.65 21.95 M14.25 24.7 L4.0 26.45 -5.25 26.0 M-13.95 24.4 Q-17.65 23.2 -19.55 21.4 L-15.7 10.0 Q-14.55 4.65 -16.65 -3.15 -19.5 -13.3 -15.9 -18.8 M-9.9 -22.7 Q-7.1 -20.35 0.25 -20.85 4.95 -21.4 5.25 -22.9" fill="none" stroke="#000000" stroke-linecap="round" stroke-linejoin="round" stroke-width="2.0"/>
  </g>
</svg>
