<?xml version="1.0" encoding="UTF-8" standalone="no"?>
<svg xmlns:xlink="http://www.w3.org/1999/xlink" height="47.05px" width="43.05px" xmlns="http://www.w3.org/2000/svg">
  <g transform="matrix(1.0, 0.0, 0.0, 1.0, 20.55, 19.6)">
    <path d="M12.7 -15.0 L10.1 -18.0 9.5 -18.6 Q7.25 -13.75 -17.95 -13.55 -18.35 -11.55 -17.8 -8.1 L-16.65 -3.15 Q-14.55 4.65 -15.7 11.2 L-19.55 21.4 Q-14.4 26.3 4.0 26.45 17.8 24.95 21.5 21.2 18.5 13.35 16.1 2.9 L15.75 -0.9 15.6 -0.65 15.4 -0.45 M12.7 -15.0 Q15.5 -11.35 16.25 -7.7 16.7 -3.85 15.6 -0.65" fill="none" stroke="#000000" stroke-linecap="round" stroke-linejoin="round" stroke-width="2.0"/>
    <path d="M-17.8 -8.1 Q-15.2 -7.95 -12.1 -8.1 -12.7 -10.0 -12.1 -12.7 M-0.6 -14.0 Q0.2 -11.3 -0.2 -9.55 L3.9 -10.35 5.85 -10.75 5.9 -10.95 5.95 -11.5 4.6 -14.7 M5.9 -10.95 L5.95 -10.9 Q12.5 -12.85 12.7 -15.0 M4.3 -3.6 Q4.5 -5.35 5.75 -7.2 7.3 -5.8 7.7 -4.3 L10.7 -4.35 Q10.15 -2.45 9.45 -1.75 L10.2 1.75 Q7.95 1.5 6.55 0.45 4.85 2.25 3.15 3.0 3.05 1.45 3.4 -0.5 1.45 -1.25 1.0 -2.45 2.45 -3.3 4.3 -3.6 M10.75 -13.1 Q10.4 -14.6 9.05 -16.25 M-6.8 -5.35 Q-6.6 -7.05 -5.35 -8.75 -3.8 -7.2 -3.4 -5.65 L-0.4 -5.3 Q-0.95 -3.5 -1.65 -2.85 -1.05 -0.95 -0.9 0.7 -3.15 0.2 -4.55 -1.0 -6.25 0.6 -7.95 1.15 L-7.7 -2.35 Q-9.65 -3.35 -10.1 -4.6 -8.65 -5.25 -6.8 -5.35 M-5.95 -9.0 Q-6.5 -10.3 -6.1 -13.3 M-12.1 -8.1 L-0.2 -9.55" fill="none" stroke="#000000" stroke-linecap="round" stroke-linejoin="round" stroke-width="1.2000000000000002"/>
  </g>
</svg>
