<?xml version="1.0" encoding="UTF-8" standalone="no"?>
<svg xmlns:xlink="http://www.w3.org/1999/xlink" height="50.35px" width="41.05px" xmlns="http://www.w3.org/2000/svg">
  <g transform="matrix(1.0, 0.0, 0.0, 1.0, 20.5, 25.15)">
    <path d="M9.2 -20.8 Q10.65 -19.15 11.8 -17.0 14.4 -8.4 15.15 1.65 17.55 12.1 20.55 19.95 16.85 23.7 3.05 25.2 -15.35 25.05 -20.5 20.15 L-16.65 8.75 Q-15.5 3.4 -17.6 -4.4 -20.6 -15.05 -16.35 -20.8 -16.2 -23.1 -14.15 -23.0 -13.5 -25.4 -10.75 -25.15 -8.15 -16.95 1.25 -15.35 6.1 -19.05 4.3 -24.45 6.45 -24.75 7.45 -22.8 8.7 -22.55 9.2 -20.8" fill="#bd3a3a" fill-rule="evenodd" stroke="none"/>
  </g>
</svg>
