<?xml version="1.0" encoding="UTF-8" standalone="no"?>
<svg xmlns:xlink="http://www.w3.org/1999/xlink" height="52.35px" width="43.05px" xmlns="http://www.w3.org/2000/svg">
  <g transform="matrix(1.0, 0.0, 0.0, 1.0, 20.55, 24.9)">
    <path d="M1.4 -16.0 L2.35 -15.75 3.65 -16.75 Q5.95 -19.05 5.25 -23.2 9.95 -21.1 12.75 -15.75 15.35 -7.15 16.1 2.9 18.5 13.35 21.5 21.2 19.65 23.1 15.25 24.4 10.85 25.7 4.0 26.45 L-8.75 25.55 Q-16.5 24.3 -19.55 21.4 L-15.7 10.0 Q-14.55 4.65 -16.65 -3.15 -21.05 -18.8 -9.8 -23.9 -5.55 -18.05 1.4 -16.0 -0.45 13.65 -8.75 25.55 M3.65 -16.75 Q7.25 6.2 15.25 24.4" fill="none" stroke="#000000" stroke-linecap="round" stroke-linejoin="round" stroke-width="2.0"/>
  </g>
</svg>
