<?xml version="1.0" encoding="UTF-8" standalone="no"?>
<svg xmlns:xlink="http://www.w3.org/1999/xlink" height="53.4px" width="45.0px" xmlns="http://www.w3.org/2000/svg">
  <g transform="matrix(1.0, 0.0, 0.0, 1.0, 21.55, 26.4)">
    <path d="M15.6 -4.85 L15.75 -4.7 Q16.05 -4.2 15.9 -3.55 L15.85 -3.45 Q15.6 -3.1 14.2 -2.4 L11.8 -1.3 11.35 -1.15 8.85 -0.35 8.05 -0.2 5.6 0.1 1.65 0.1 0.1 -0.05 -1.85 -0.3 -6.25 -0.95 -7.1 -1.25 -7.7 -2.3 Q-8.0 -3.0 -7.75 -3.4 L-2.95 -3.2 -0.2 -2.85 1.2 -2.7 5.6 -2.6 8.95 -3.1 Q9.9 -3.35 10.65 -3.7 L11.75 -4.25 14.15 -5.25 14.75 -5.35 14.8 -5.35 Q15.3 -5.25 15.6 -4.85" fill="#000000" fill-rule="evenodd" stroke="none"/>
    <path d="M-16.3 10.6 L-16.6 10.3 Q-19.05 12.45 -20.4 12.0 -21.05 10.95 -20.4 9.0 -20.2 7.25 -19.1 6.15 -17.9 6.15 -16.1 8.5 L-15.75 8.3 Q-15.35 8.05 -14.85 8.7 -12.1 5.6 -8.85 5.45 -7.8 6.4 -9.25 9.55 -9.6 12.75 -11.0 13.55 -14.2 13.55 -15.25 10.65 L-16.3 10.6 M2.95 -24.7 L2.15 -25.6 1.05 -24.45 -0.4 -23.05 -1.2 -23.9 -1.85 -24.7 -2.85 -25.8 -4.15 -24.65 -5.2 -23.8 -6.3 -24.45 -7.45 -25.2 -8.55 -25.9 M2.95 -24.7 L4.1 -23.4 M0.35 -19.1 L0.15 -16.7 3.0 -16.5 5.25 -16.3 7.35 -16.0 4.1 -20.7 M4.3 -12.7 L6.5 -13.75 5.25 -16.3 3.1 -20.0 M9.9 -15.55 L10.05 -15.55 10.0 -15.5 8.25 -14.6 Q10.6 -10.6 11.3 -7.55 L11.65 -5.45 14.65 -5.75 14.15 -5.25 M7.35 -16.0 L9.9 -15.55 M8.25 -14.6 L6.5 -13.75 Q8.4 -9.35 8.85 -5.35 L11.65 -5.45 11.75 -4.25 M7.35 -16.0 L8.25 -14.6 M5.45 -5.4 L0.55 -5.7 0.75 -4.9 1.2 -2.7 M4.3 -12.7 L0.0 -10.7 Q0.1 -8.0 0.55 -5.7 L-3.35 -6.1 -2.95 -3.2 M8.85 -5.35 L8.95 -3.1 M5.45 -5.4 L8.85 -5.35 M13.05 8.6 L10.85 10.3 Q10.95 15.95 12.85 20.9 L16.05 21.05 M13.05 8.45 L13.25 8.4 13.05 8.6 M11.8 -1.3 Q11.65 2.45 10.85 7.45 L10.8 8.6 13.05 8.45 M10.8 8.6 L10.85 10.3 8.5 11.9 8.65 14.75 Q8.75 17.55 9.45 20.5 L12.85 20.9 Q13.7 23.15 14.95 25.25 M5.6 1.3 L8.05 -0.2 M5.4 8.15 L8.4 8.55 Q8.4 4.25 8.85 -0.35 M1.65 0.1 L2.05 2.95 5.6 1.3 M5.4 8.15 L2.45 7.4 2.55 8.3 2.5 15.0 5.35 13.7 8.5 11.9 8.4 8.55 10.8 8.6 M0.25 6.5 L2.45 7.4 2.05 2.95 -0.25 3.6 0.25 6.5 Q-1.9 5.5 -3.9 4.05 L-3.95 4.0 -3.9 4.0 -0.25 3.6 -1.15 1.05 -1.85 -0.3 M-3.15 16.4 L-0.5 15.95 Q0.7 10.7 0.25 6.5 M5.55 19.7 L9.45 20.5 Q10.1 23.05 11.2 25.75 M2.5 15.0 L2.15 18.7 5.55 19.7 M2.15 18.7 L0.85 26.25 M-3.95 -16.85 L-1.95 -16.8 -1.35 -19.35 M0.0 -10.7 L-3.2 -9.35 -3.35 -7.35 -3.35 -6.1 -9.2 -6.9 -9.25 -6.9 -9.2 -6.9 -3.2 -9.35 -1.95 -16.8 0.15 -16.7 0.0 -10.7 M-18.15 7.85 Q-16.9 8.55 -16.55 9.1 L-16.1 8.5 M-16.6 10.3 L-16.65 9.4 Q-18.3 10.1 -18.8 9.85 M-16.65 9.4 L-16.55 9.1 M-15.25 10.65 Q-14.7 10.05 -14.65 9.55 L-14.6 9.55 Q-14.6 9.1 -14.85 8.7 M-12.2 8.35 Q-14.05 8.85 -14.6 9.55 -14.05 10.45 -12.5 11.1 M-3.25 16.65 L-0.9 17.6 -0.5 15.95 2.5 15.0 M-3.15 16.4 L-3.55 16.45 -3.25 16.65 M2.15 18.7 L-0.9 17.6 Q-2.0 21.6 -4.0 26.2" fill="none" stroke="#000000" stroke-linecap="round" stroke-linejoin="round" stroke-width="1.0"/>
    <path d="M1.05 -24.45 L1.5 -23.6 M2.5 -23.9 L2.95 -24.7 3.4 -25.7 M1.05 -24.45 L0.55 -25.25 M-7.45 -25.2 L-6.85 -26.0 M-6.3 -24.45 L-5.55 -25.45 M-1.2 -23.9 L-0.3 -24.95 M-2.0 -23.05 L-1.2 -23.9 M-4.15 -24.65 L-3.5 -23.6 M-2.8 -23.8 L-1.85 -24.7 -1.15 -25.6 M-4.15 -24.65 L-4.55 -25.35 M-6.85 -23.7 L-6.3 -24.45 M-8.3 -24.0 L-7.45 -25.2" fill="none" stroke="#000000" stroke-linecap="round" stroke-linejoin="round" stroke-width="0.5"/>
    <path d="M-15.75 8.3 Q-15.0 1.7 -17.7 -5.65 -20.2 -19.0 -10.6 -24.25 -9.2 -21.4 -4.05 -19.95 L-1.35 -19.35 0.35 -19.1 1.4 -19.35 Q2.35 -19.6 3.1 -20.0 L4.1 -20.7 4.45 -21.1 Q5.15 -21.9 5.5 -22.95 12.35 -18.65 14.1 -12.8 L15.1 -7.45 15.15 -7.25 15.6 -4.85 M15.85 -3.45 L17.25 4.05 18.95 8.55 M19.5 10.3 Q21.4 16.55 22.0 23.1 20.5 23.9 18.25 24.5 L14.95 25.25 11.2 25.75 6.25 26.15 5.3 26.2 0.85 26.25 -4.0 26.2 -8.0 26.0 Q-16.45 25.4 -20.8 23.6 -19.65 17.65 -16.3 10.6 M3.0 -16.5 L1.4 -19.35 M3.0 -16.5 Q3.75 -14.8 4.3 -12.7 5.1 -9.5 5.45 -5.4 L5.6 -2.6 M10.0 -15.5 Q13.4 -11.45 15.1 -7.45 M9.9 -15.55 L10.0 -15.5 M14.75 -5.35 L15.15 -7.25 M9.9 -15.55 Q7.55 -18.35 4.45 -21.1 M13.05 8.6 Q13.0 15.1 18.25 24.5 M13.05 8.45 L13.05 8.15 Q13.2 3.4 14.2 -2.4 M13.05 8.45 L13.05 8.6 M5.6 0.1 L5.6 1.3 5.55 2.95 5.4 8.15 5.35 13.7 5.55 19.7 Q5.8 23.45 6.25 26.15 M-3.9 4.05 L-2.8 7.6 Q-1.8 11.7 -3.15 16.4 L-3.25 16.65 Q-4.6 21.05 -8.0 26.0 M-9.2 -6.9 L-9.75 -6.2 -7.75 -3.4 M-9.2 -6.9 Q-4.35 -13.45 -4.05 -19.95 M-3.9 4.0 L-3.9 4.05 M-3.9 4.0 Q-4.85 1.5 -6.25 -0.95" fill="none" stroke="#000000" stroke-linecap="round" stroke-linejoin="round" stroke-width="1.5"/>
    <path d="M18.95 8.55 Q19.15 7.75 19.65 8.15 20.4 5.85 21.15 5.55 22.05 6.2 22.5 7.65 23.25 9.05 23.0 10.1 22.25 10.7 20.3 9.45 20.1 10.2 19.5 10.1 L19.5 10.3 Q19.25 12.65 17.25 13.35 16.2 13.0 15.5 10.5 14.0 8.2 14.5 7.25 16.65 6.7 18.95 8.55 18.8 8.95 18.9 9.3 18.75 10.15 17.8 11.0 M20.3 9.45 L20.15 8.7 20.05 8.55 19.65 8.15 M19.5 10.1 L19.4 10.0 18.9 9.3 Q18.4 8.9 17.15 8.85 M20.15 8.7 Q21.3 9.0 21.6 8.7 M20.05 8.55 Q20.2 8.0 20.8 7.2" fill="none" stroke="#000000" stroke-linecap="round" stroke-linejoin="round" stroke-width="0.8"/>
  </g>
</svg>
