<?xml version="1.0" encoding="UTF-8" standalone="no"?>
<svg xmlns:xlink="http://www.w3.org/1999/xlink" height="52.35px" width="43.05px" xmlns="http://www.w3.org/2000/svg">
  <g transform="matrix(1.0, 0.0, 0.0, 1.0, 20.55, 24.9)">
    <path d="M-17.85 -10.75 L-17.7 -13.5 Q-17.1 -18.35 -13.75 -21.35 -12.15 -22.85 -9.8 -23.9 L-7.9 -21.25 Q-5.95 -18.55 -3.85 -17.25 -2.05 -18.8 0.7 -19.75 2.65 -19.7 5.0 -17.1 L5.5 -21.6 5.25 -23.2 7.95 -21.6 Q10.8 -19.45 12.75 -15.75 L13.45 -13.4 14.05 -10.95 14.95 -6.0 15.8 0.5 16.1 2.9 16.5 4.5 18.0 10.4 18.25 11.3 18.55 12.35 18.75 13.05 Q20.05 17.45 21.5 21.2 17.8 24.95 4.0 26.45 -14.4 26.3 -19.55 21.4 L-16.55 12.55 -15.7 10.0 Q-15.3 8.05 -15.3 5.8 L-15.45 2.75 Q-15.8 0.0 -16.65 -3.15 L-16.65 -3.25 Q-17.8 -7.35 -17.85 -10.75" fill="none" stroke="#000000" stroke-linecap="round" stroke-linejoin="round" stroke-width="2.0"/>
    <path d="M-17.85 -10.75 Q4.4 -8.85 14.05 -10.95 M-16.55 12.55 Q-9.1 14.15 -0.8 14.2 13.4 13.7 18.0 10.4 M-15.45 2.75 Q3.55 4.2 15.8 0.5" fill="none" stroke="#000000" stroke-linecap="round" stroke-linejoin="round" stroke-width="1.0"/>
  </g>
</svg>
