<?xml version="1.0" encoding="UTF-8" standalone="no"?>
<svg xmlns:xlink="http://www.w3.org/1999/xlink" height="46.25px" width="43.05px" xmlns="http://www.w3.org/2000/svg">
  <g transform="matrix(1.0, 0.0, 0.0, 1.0, 20.55, 18.8)">
    <path d="M-17.55 -14.05 Q-14.5 -10.8 1.0 -11.7 11.0 -11.95 13.55 -13.95 L13.85 -14.3 15.9 -12.3 Q17.7 -9.55 17.85 -6.95 17.3 -4.9 12.65 -5.55 L-2.75 -4.9 Q-11.6 -4.05 -17.3 -5.85 -18.2 -10.45 -17.55 -14.05" fill="#eeeff0" fill-rule="evenodd" stroke="none"/>
    <path d="M-2.5 -13.1 L-2.85 -14.75 -2.75 -17.6 -7.1 -17.9 Q-12.2 -18.2 -15.2 -17.95 L-15.4 -17.9 Q-18.55 -16.95 -17.75 -14.25 L-17.65 -14.15 -17.55 -14.05 Q-14.5 -10.8 1.0 -11.7 11.0 -11.95 13.55 -13.95 L13.85 -14.3 14.05 -14.55 Q14.4 -18.0 10.55 -17.95 L9.95 -17.8 10.75 -16.55 11.55 -14.65 M4.8 -12.8 Q5.25 -13.2 4.85 -15.15 L4.75 -15.5 M9.95 -17.8 L9.9 -17.7 7.5 -17.45 Q5.0 -17.25 1.05 -17.3 L-2.75 -17.6 M-11.05 -12.2 Q-11.5 -13.6 -11.3 -15.05 L-11.05 -16.2" fill="none" stroke="#000000" stroke-linecap="round" stroke-linejoin="round" stroke-width="1.5"/>
    <path d="M13.85 -14.3 L15.9 -12.3 Q17.7 -9.55 17.85 -6.95 17.95 -5.1 17.2 -3.35 L15.75 -0.9 16.1 2.9 16.7 5.45 Q18.85 14.35 21.5 21.2 17.8 24.95 4.0 26.45 -14.4 26.3 -19.55 21.4 L-15.7 11.2 Q-15.25 8.75 -15.3 6.1 -15.35 1.7 -16.65 -3.15 L-17.3 -5.85 Q-18.2 -10.45 -17.55 -14.05 M15.75 -0.9 L15.4 -0.45" fill="none" stroke="#000000" stroke-linecap="round" stroke-linejoin="round" stroke-width="2.0"/>
    <path d="M-4.4 0.55 L1.5 0.4 Q4.05 -0.4 5.05 -2.05" fill="none" stroke="#000000" stroke-linecap="round" stroke-linejoin="round" stroke-width="1.0"/>
  </g>
</svg>
