<?xml version="1.0" encoding="UTF-8" standalone="no"?>
<svg xmlns:xlink="http://www.w3.org/1999/xlink" height="32.1px" width="36.4px" xmlns="http://www.w3.org/2000/svg">
  <g transform="matrix(1.0, 0.0, 0.0, 1.0, 17.55, 25.2)">
    <path d="M16.65 -11.05 L15.9 -12.3 5.3 -22.7 5.3 -22.65 Q6.8 -17.55 3.0 -16.3 -7.05 -16.65 -9.4 -24.1 L-9.45 -24.2 -11.7 -22.85 Q-9.65 -14.0 -11.05 -9.1 -12.5 -4.25 -16.55 -2.9 L-16.25 -1.7 Q-15.6 1.25 -15.35 4.0 -9.1 6.4 5.7 5.8 15.4 4.85 16.05 2.25 L15.75 -0.9 15.4 -0.45 M16.65 -11.05 Q18.75 -7.0 17.2 -3.35 L15.75 -0.9 M5.3 -22.65 L5.3 -22.7" fill="none" stroke="#000000" stroke-linecap="round" stroke-linejoin="round" stroke-width="2.0"/>
    <path d="M-16.25 -1.7 Q-8.95 -9.2 -3.5 -10.05 1.95 -10.9 7.65 -7.5 12.55 -11.55 16.65 -11.05" fill="none" stroke="#000000" stroke-linecap="round" stroke-linejoin="round" stroke-width="1.5"/>
    <path d="M-4.4 0.55 L1.5 0.4 Q4.05 -0.4 5.05 -2.05" fill="none" stroke="#000000" stroke-linecap="round" stroke-linejoin="round" stroke-width="1.0"/>
  </g>
</svg>
