<?xml version="1.0" encoding="UTF-8" standalone="no"?>
<svg xmlns:xlink="http://www.w3.org/1999/xlink" height="117.6px" width="82.7px" xmlns="http://www.w3.org/2000/svg">
  <g transform="matrix(1.0, 0.0, 0.0, 1.0, 41.35, 58.8)">
    <path d="M-18.6 57.0 L-18.3 57.8 Q-19.0 57.35 -18.6 57.0" fill="#7ea7d4" fill-rule="evenodd" stroke="none"/>
    <path d="M-18.6 57.0 Q-46.1 47.75 -38.85 14.9 -31.65 -17.95 -34.85 -20.75 -24.45 -14.5 -22.25 -4.25 -22.1 -30.85 -8.0 -57.8 -2.15 -36.2 5.75 -24.95 L17.0 -9.25 Q12.25 -18.1 20.0 -32.05 21.9 -23.55 36.15 -1.05 43.05 9.95 38.65 18.2 M17.0 -9.25 Q24.4 0.9 26.8 10.6 M-18.6 57.0 Q-19.0 57.35 -18.3 57.8 M-15.55 20.25 Q-22.15 12.5 -22.25 -4.25" fill="none" stroke="#101010" stroke-linecap="round" stroke-linejoin="round" stroke-width="2.0"/>
  </g>
</svg>
