<?xml version="1.0" encoding="UTF-8" standalone="no"?>
<svg xmlns:xlink="http://www.w3.org/1999/xlink" height="54.05px" width="43.05px" xmlns="http://www.w3.org/2000/svg">
  <g transform="matrix(1.0, 0.0, 0.0, 1.0, 20.55, 26.6)">
    <path d="M15.75 -0.9 L16.1 2.9 Q18.5 13.35 21.5 21.2 17.8 24.95 4.0 26.45 -14.4 26.3 -19.55 21.4 L-15.7 11.2 Q-14.55 4.65 -16.65 -3.15 -19.05 -11.75 -16.55 -17.25 -14.25 -21.3 -9.95 -23.15 L-8.9 -23.75 -8.9 -25.6 -1.95 -24.95 1.3 -25.0 3.9 -25.6 Q4.3 -24.25 4.65 -23.65 L5.0 -23.05 5.1 -22.9 5.25 -22.65 5.9 -22.1 6.1 -21.9 15.9 -12.3 Q18.95 -7.55 17.2 -3.35 L15.75 -0.9 15.4 -0.45" fill="none" stroke="#000000" stroke-linecap="round" stroke-linejoin="round" stroke-width="2.0"/>
    <path d="M1.3 -25.0 Q1.35 -22.6 2.7 -19.7 4.0 -16.8 6.6 -13.7 9.1 -10.6 9.25 -8.05 L8.75 -7.45 Q12.1 -10.05 9.8 -14.6 7.1 -20.0 5.95 -21.5 L5.25 -22.65 M-1.95 -24.95 L-1.05 -19.4 Q-0.45 -16.95 2.15 -14.1 4.65 -11.3 6.7 -7.3 L8.2 -7.3 9.25 -8.05 M-4.4 0.55 L1.5 0.4 Q4.05 -0.4 5.05 -2.05 M-8.9 -23.75 Q-8.65 -19.9 -7.0 -16.6 -5.35 -13.3 -1.1 -10.2 2.85 -7.3 6.7 -7.3" fill="none" stroke="#000000" stroke-linecap="round" stroke-linejoin="round" stroke-width="1.5"/>
  </g>
</svg>
