<?xml version="1.0" encoding="UTF-8" standalone="no"?>
<svg xmlns:xlink="http://www.w3.org/1999/xlink" height="52.65px" width="43.05px" xmlns="http://www.w3.org/2000/svg">
  <g transform="matrix(1.0, 0.0, 0.0, 1.0, 20.55, 25.2)">
    <path d="M5.3 -22.65 L5.3 -22.7 13.65 -13.9 Q16.8 -10.55 17.1 -7.35 17.4 -4.2 15.7 -1.0 L16.1 2.9 Q18.5 13.35 21.5 21.2 17.8 24.95 4.0 26.45 -14.4 26.3 -19.55 21.4 L-15.7 11.2 Q-14.55 4.65 -16.65 -3.15 -20.45 -16.7 -12.05 -22.65 L-11.9 -22.75 -9.45 -24.2 -9.4 -24.1 Q-7.5 -18.0 -0.8 -15.4 L-0.6 -15.35 -0.4 -15.25 Q0.9 -14.8 2.4 -14.45 L4.0 -15.85 4.15 -15.95 4.35 -16.25 Q6.4 -18.9 5.3 -22.65 L5.3 -22.7" fill="none" stroke="#000000" stroke-linecap="round" stroke-linejoin="round" stroke-width="2.0"/>
    <path d="M4.15 -15.95 Q10.35 -11.95 10.8 -5.85 11.15 0.25 5.4 1.0 -2.8 0.8 -4.15 -7.05 -4.4 -13.5 -0.6 -15.35" fill="none" stroke="#000000" stroke-linecap="round" stroke-linejoin="round" stroke-width="1.5"/>
    <path d="M5.3 -15.2 Q7.75 -7.55 9.0 -0.45 M7.25 -13.5 Q9.45 -7.3 10.15 -2.6 M0.75 -15.1 Q2.85 -8.0 3.95 0.95 M3.75 -14.8 Q6.05 -6.95 7.35 0.5 M-2.85 -13.35 Q-0.9 -6.25 -0.8 -0.85 M-1.2 -14.35 Q0.9 -8.45 1.55 0.05" fill="none" stroke="#000000" stroke-linecap="round" stroke-linejoin="round" stroke-width="0.7000000000000001"/>
    <path d="M3.7 -12.35 L3.55 -11.8 Q3.4 -11.6 3.15 -11.6 L2.65 -11.8 2.4 -12.35 2.5 -12.95 Q2.65 -13.15 2.9 -13.15 L3.4 -12.95 3.7 -12.35 M4.9 -6.7 Q4.9 -6.35 4.7 -6.15 L4.25 -6.0 3.85 -6.25 3.65 -6.8 Q3.65 -7.2 3.8 -7.4 L4.25 -7.55 4.65 -7.3 4.9 -6.7 M5.8 -1.75 L5.5 -1.3 5.05 -1.2 4.65 -1.5 4.55 -2.1 4.8 -2.65 5.25 -2.75 5.65 -2.45 5.8 -1.75" fill="#000000" fill-rule="evenodd" stroke="none"/>
  </g>
</svg>
