<?xml version="1.0" encoding="UTF-8" standalone="no"?>
<svg xmlns:xlink="http://www.w3.org/1999/xlink" height="42.05px" width="42.55px" xmlns="http://www.w3.org/2000/svg">
  <g transform="matrix(1.0, 0.0, 0.0, 1.0, 20.7, 16.45)">
    <path d="M15.5 7.3 Q15.55 8.05 15.1 8.5 L14.05 9.05 Q13.45 9.05 12.9 8.5 12.4 8.05 12.35 7.3 12.3 6.55 12.7 6.0 13.15 5.5 13.75 5.5 14.4 5.5 14.9 6.0 15.45 6.55 15.5 7.3 M16.2 12.4 Q16.25 13.15 15.8 13.65 15.4 14.2 14.75 14.2 14.15 14.2 13.6 13.65 13.1 13.15 13.05 12.4 13.0 11.65 13.4 11.1 13.85 10.6 14.45 10.6 15.1 10.6 15.6 11.1 16.15 11.65 16.2 12.4" fill="#000000" fill-opacity="0.65882355" fill-rule="evenodd" stroke="none"/>
    <path d="M15.6 -0.3 Q16.45 1.8 16.65 3.4 L16.3 3.1 16.3 2.75 Q14.2 2.1 13.4 2.2 L12.95 0.95 M-15.95 7.7 Q-17.0 7.55 -17.85 7.0 -15.95 4.65 -15.7 2.05 L-14.15 2.3 Q2.45 -2.3 14.65 -0.25 L15.6 -0.3 M9.25 0.55 L10.2 2.25 9.1 4.45 14.1 4.35 13.15 2.25 13.4 2.2 M15.5 7.3 Q15.55 8.05 15.1 8.5 L14.05 9.05 Q13.45 9.05 12.9 8.5 12.4 8.05 12.35 7.3 12.3 6.55 12.7 6.0 13.15 5.5 13.75 5.5 14.4 5.5 14.9 6.0 15.45 6.55 15.5 7.3 M16.2 12.4 Q16.25 13.15 15.8 13.65 15.4 14.2 14.75 14.2 14.15 14.2 13.6 13.65 13.1 13.15 13.05 12.4 13.0 11.65 13.4 11.1 13.85 10.6 14.45 10.6 15.1 10.6 15.6 11.1 16.15 11.65 16.2 12.4 M2.2 2.65 L2.3 2.95 2.2 2.55 2.2 2.65 1.5 0.8 M2.2 2.65 L2.15 2.9 2.3 2.95 M2.15 2.9 L1.7 4.7 6.2 4.15 5.0 2.3 5.05 2.3 5.2 0.4 M5.05 2.3 Q7.45 1.45 10.2 2.25 M-8.0 2.6 L-7.7 4.3 -8.4 6.25 -2.45 5.3 -3.5 3.9 -3.3 1.45 M-15.95 7.7 L-12.5 7.35 -13.7 5.8 -12.9 3.7 M-13.7 5.8 Q-11.4 4.35 -7.7 4.3 M-3.5 3.9 Q-1.05 2.5 2.15 2.9" fill="none" stroke="#000000" stroke-linecap="round" stroke-linejoin="round" stroke-width="1.0"/>
    <path d="M-15.7 2.05 Q-17.3 -2.7 -17.7 -7.2 -14.65 -12.55 -8.2 -14.2 -1.7 -14.9 5.0 -11.0 7.2 -14.65 11.9 -15.7 15.05 -14.15 16.25 -9.45 16.4 -4.45 15.6 -0.3 M16.3 3.1 L21.1 22.8 Q19.65 23.9 3.3 24.7 -13.1 25.5 -19.95 22.45 -16.1 12.0 -15.95 7.7" fill="none" stroke="#000000" stroke-linecap="round" stroke-linejoin="round" stroke-width="1.5"/>
  </g>
</svg>
