<?xml version="1.0" encoding="UTF-8" standalone="no"?>
<svg xmlns:xlink="http://www.w3.org/1999/xlink" height="50.75px" width="41.85px" xmlns="http://www.w3.org/2000/svg">
  <g transform="matrix(1.0, 0.0, 0.0, 1.0, 20.3, 25.15)">
    <path d="M-1.3 -13.85 Q0.35 -14.9 2.1 -13.6 3.85 -15.4 5.55 -14.05 6.95 -15.25 8.6 -14.45 7.7 -13.3 7.3 -12.1 L1.7 -11.55 Q0.4 -12.95 -1.3 -13.85 M5.65 -5.55 L5.9 -5.9 5.7 -5.45 5.65 -5.55" fill="#fff39c" fill-rule="evenodd" stroke="none"/>
    <path d="M-1.3 -13.85 Q0.35 -14.9 2.1 -13.6 3.85 -15.4 5.55 -14.05 6.95 -15.25 8.6 -14.45 7.7 -13.3 7.3 -12.1 L6.95 -10.7 6.9 -10.15 6.7 -8.55 5.95 -5.9 5.9 -5.9 Q10.2 -4.0 9.1 -2.15 5.75 -1.95 6.1 -4.85 L5.7 -3.25 5.7 -3.15 7.65 2.0 M1.7 -11.55 L2.75 -10.2 4.15 -7.95 5.65 -5.55 5.7 -5.45 5.9 -5.9 5.65 -5.55 Q1.15 -4.2 2.2 -1.9 4.8 -1.9 5.7 -3.15 L4.7 2.2 M-1.3 -13.85 Q0.4 -12.95 1.7 -11.55 L7.3 -12.1" fill="none" stroke="#000000" stroke-linecap="round" stroke-linejoin="round" stroke-width="1.0"/>
    <path d="M8.6 -14.45 L8.85 -14.8 Q7.95 -19.45 5.75 -22.85 7.55 -22.55 9.25 -20.35 11.25 -17.75 11.9 -14.5 13.85 -13.2 14.9 -9.3 15.5 -5.35 14.9 -2.25 15.15 2.5 16.5 8.0 L20.85 22.5 Q5.15 26.75 -19.6 23.5 L-14.65 10.6 Q-14.2 1.55 -16.7 -3.3 -13.75 -6.05 -11.4 -9.25 L-10.95 -9.8 Q-10.1 -11.15 -8.55 -12.05 -8.85 -17.8 -11.5 -23.0 -9.95 -23.95 -9.5 -24.45 -6.3 -21.2 -5.1 -13.5 L-2.0 -14.2 -1.3 -13.85 M8.85 -14.8 L9.15 -15.1 Q10.75 -15.35 11.9 -14.5 M-8.55 -12.05 L-7.9 -12.45 -7.1 -12.8 -5.1 -13.5" fill="none" stroke="#000000" stroke-linecap="round" stroke-linejoin="round" stroke-width="1.4000000000000001"/>
    <path d="M2.75 -10.2 L5.3 -9.15 6.95 -10.7 M5.3 -9.15 L6.7 -8.55 M4.15 -7.95 L5.3 -9.15" fill="none" stroke="#000000" stroke-linecap="round" stroke-linejoin="round" stroke-width="0.5"/>
  </g>
</svg>
