<?xml version="1.0" encoding="UTF-8" standalone="no"?>
<svg xmlns:xlink="http://www.w3.org/1999/xlink" height="53.35px" width="42.8px" xmlns="http://www.w3.org/2000/svg">
  <g transform="matrix(1.0, 0.0, 0.0, 1.0, 20.35, 24.8)">
    <path d="M11.45 23.6 L11.35 27.05 Q19.55 26.0 21.55 22.15 20.3 14.25 16.7 2.4 15.3 -5.8 12.95 -16.0 11.45 -18.55 6.15 -22.55 5.75 -22.85 5.1 -23.3 L6.3 -19.5 Q7.7 -14.8 8.45 -10.3 L9.9 -0.75 11.05 13.9 11.45 23.6 Q6.9 24.55 -0.4 23.9 L-0.4 27.65 -3.2 27.65 Q-13.45 26.5 -19.45 22.95 L-15.6 8.4 Q-14.8 3.3 -17.25 -5.35 -20.1 -18.7 -10.0 -23.9 -9.0 -21.6 -6.9 -19.0 -3.3 -15.9 2.95 -16.0 5.3 -16.5 6.3 -19.5 M-6.9 -19.0 L-6.25 -18.15 -6.0 -17.85 Q-3.55 -14.85 -1.55 -10.05 -0.95 -6.7 -0.4 -1.65 0.1 3.35 -0.4 16.25 L-0.4 23.9" fill="none" stroke="#000000" stroke-linecap="round" stroke-linejoin="round" stroke-width="1.8"/>
  </g>
</svg>
