<?xml version="1.0" encoding="UTF-8" standalone="no"?>
<svg xmlns:xlink="http://www.w3.org/1999/xlink" height="56.25px" width="42.8px" xmlns="http://www.w3.org/2000/svg">
  <g transform="matrix(1.0, 0.0, 0.0, 1.0, 20.35, 24.8)">
    <path d="M6.15 -20.7 L7.1 -18.6 Q8.4 -15.85 9.15 -11.85 L10.45 -3.2 12.0 9.75 Q13.05 18.05 13.65 21.95 14.05 25.0 15.15 28.05 L11.45 29.45 10.85 29.6 Q9.0 20.8 7.75 4.1 6.5 -12.6 4.45 -18.0 5.5 -18.9 6.15 -20.7 M-8.35 -20.95 Q-4.85 -18.25 -0.8 -17.5 1.6 -7.9 1.7 7.8 1.75 23.45 2.35 30.05 L-0.4 29.8 -4.3 29.2 -2.6 15.65 Q-1.4 3.5 -1.7 -1.8 -2.0 -7.15 -2.75 -11.0 -3.55 -14.85 -6.0 -17.85 L-6.25 -18.15 -6.9 -19.0 -8.35 -20.95" fill="#000000" fill-opacity="0.46666667" fill-rule="evenodd" stroke="none"/>
    <path d="M6.15 -20.7 L7.1 -18.6 Q8.4 -15.85 9.15 -11.85 L10.45 -3.2 12.0 9.75 Q13.05 18.05 13.65 21.95 14.05 25.0 15.15 28.05 L15.75 29.7 Q19.55 26.0 21.55 22.15 20.3 14.25 16.7 2.4 15.3 -5.8 12.95 -16.0 11.45 -18.55 6.15 -22.55 5.75 -22.85 5.1 -23.3 L6.15 -20.7 Q5.5 -18.9 4.45 -18.0 3.8 -17.4 2.95 -17.2 L-0.8 -17.5 Q-4.85 -18.25 -8.35 -20.95 L-6.9 -19.0 -6.25 -18.15 -6.0 -17.85 Q-3.55 -14.85 -2.75 -11.0 -2.0 -7.15 -1.7 -1.8 -1.4 3.5 -2.6 15.65 L-4.3 29.2 -0.4 29.8 2.35 30.05 6.1 30.1 10.85 29.6 11.45 29.45 15.15 28.05 M-4.3 29.2 L-4.5 30.55 Q-13.45 26.5 -19.45 22.95 L-15.6 8.4 Q-14.8 3.3 -17.25 -5.35 -20.1 -18.7 -10.0 -23.9 L-8.35 -20.95" fill="none" stroke="#000000" stroke-linecap="round" stroke-linejoin="round" stroke-width="1.8"/>
    <path d="M4.45 -18.0 Q6.5 -12.6 7.75 4.1 9.0 20.8 10.85 29.6 M-0.8 -17.5 Q1.6 -7.9 1.7 7.8 1.75 23.45 2.35 30.05" fill="none" stroke="#000000" stroke-linecap="round" stroke-linejoin="round" stroke-width="1.0"/>
  </g>
</svg>
