<?xml version="1.0" encoding="UTF-8" standalone="no"?>
<svg xmlns:xlink="http://www.w3.org/1999/xlink" height="54.35px" width="42.55px" xmlns="http://www.w3.org/2000/svg">
  <g transform="matrix(1.0, 0.0, 0.0, 1.0, 20.3, 27.15)">
    <path d="M2.0 -19.85 L2.25 -25.1 5.0 -26.3 5.25 -23.2 Q6.65 -22.6 8.15 -20.95 L12.8 -15.45 Q15.85 -11.6 16.2 -8.1 16.5 -4.6 16.1 2.9 18.5 13.35 21.5 21.2 18.1 24.65 6.25 26.2 L4.0 26.45 Q-14.4 26.3 -19.55 21.4 L-15.7 10.0 Q-14.55 4.65 -16.65 -3.15 -20.45 -16.7 -12.05 -22.65 L-10.3 -23.65 -10.25 -23.6 -10.05 -26.4 -0.8 -25.0 1.05 -19.85 2.0 -19.85 Q7.65 -8.85 7.35 5.8 7.0 20.4 6.25 26.2" fill="none" stroke="#000000" stroke-linecap="round" stroke-linejoin="round" stroke-width="1.5"/>
    <path d="M10.35 -6.75 Q10.4 -6.05 10.1 -5.6 9.7 -5.15 9.15 -5.15 8.65 -5.15 8.2 -5.6 7.75 -6.05 7.7 -6.75 7.65 -7.4 8.0 -7.9 8.4 -8.35 8.9 -8.35 9.45 -8.35 9.9 -7.9 L10.35 -6.75 M11.15 3.2 Q11.15 3.9 10.8 4.35 10.4 4.8 9.85 4.8 9.35 4.8 8.9 4.35 8.5 3.9 8.5 3.2 8.5 2.55 8.9 2.05 9.35 1.6 9.85 1.6 10.4 1.6 10.8 2.05 11.15 2.55 11.15 3.2 M10.95 14.15 L10.6 15.3 Q10.2 15.75 9.65 15.75 L8.7 15.3 Q8.3 14.85 8.3 14.15 8.3 13.5 8.7 13.0 9.15 12.55 9.65 12.55 10.2 12.55 10.6 13.0 10.95 13.5 10.95 14.15" fill="none" stroke="#000000" stroke-linecap="round" stroke-linejoin="round" stroke-width="1.0"/>
  </g>
</svg>
