<?xml version="1.0" encoding="UTF-8" standalone="no"?>
<svg xmlns:xlink="http://www.w3.org/1999/xlink" height="53.2px" width="41.05px" xmlns="http://www.w3.org/2000/svg">
  <g transform="matrix(1.0, 0.0, 0.0, 1.0, 20.5, 26.6)">
    <path d="M0.0 26.6 Q-15.8 26.1 -20.5 21.6 L-16.65 10.2 Q-15.5 4.85 -17.6 -2.95 -22.0 -18.6 -10.75 -23.7 L-10.7 -23.65 -10.3 -26.2 -1.95 -26.0 -0.15 -21.0 0.0 -26.3 3.75 -26.6 4.35 -22.95 Q9.0 -20.85 11.8 -15.55 14.4 -6.95 15.15 3.1 17.55 13.55 20.55 21.4 19.1 22.85 16.2 24.0 16.25 23.05 15.8 22.15 L14.7 20.5 Q14.9 19.55 14.7 18.65 L14.2 16.95 Q14.0 16.25 13.35 15.85 L13.9 15.3 Q14.85 14.3 14.15 13.05 L12.75 10.75 13.65 9.5 Q14.05 8.65 13.7 7.35 13.35 6.05 12.8 5.3 13.2 4.95 13.25 4.25 L12.85 2.3 Q12.35 1.05 11.7 0.45 L12.35 -1.8 12.4 -3.25 Q12.35 -4.1 11.4 -5.65 11.8 -7.45 11.5 -8.75 L11.45 -8.75 Q10.6 -11.05 9.05 -12.2 9.25 -13.25 8.3 -15.05 5.95 -18.15 3.5 -15.2 L3.45 -15.25 2.15 -16.05 -0.25 -16.0 -0.6 -15.65 Q-1.9 -14.0 -1.25 -12.3 -3.5 -11.05 -2.9 -8.55 L-2.95 -8.55 -2.95 -8.5 -2.65 -7.95 -1.7 -6.95 -2.35 -5.8 Q-2.65 -4.25 -2.1 -2.85 L-1.3 -1.55 -1.95 -0.65 Q-2.55 1.0 -1.75 2.55 L-0.85 3.9 -1.55 4.75 Q-2.1 6.2 -1.5 7.75 -1.25 8.6 -0.6 9.25 L-1.15 10.15 Q-1.8 11.55 -1.45 13.15 -1.25 14.1 -0.55 14.65 L-0.85 15.9 Q-0.9 16.55 -0.4 17.65 0.1 18.7 -0.1 19.4 L-0.4 20.3 -0.75 21.15 Q-1.05 21.8 -0.6 23.2 L0.25 24.3 0.55 24.45 0.5 24.55 0.5 24.65 0.45 24.7 0.4 24.75 0.4 24.85 0.35 24.9 0.35 24.95 0.3 25.05 0.3 25.1 0.1 26.05 0.0 26.6" fill="#e7b19b" fill-rule="evenodd" stroke="none"/>
    <path d="M0.1 26.05 L0.1 26.6 0.0 26.6 0.1 26.05" fill="#cb9e8d" fill-rule="evenodd" stroke="none"/>
  </g>
</svg>
