<?xml version="1.0" encoding="UTF-8" standalone="no"?>
<svg xmlns:xlink="http://www.w3.org/1999/xlink" height="43.3px" width="19.25px" xmlns="http://www.w3.org/2000/svg">
  <g transform="matrix(1.0, 0.0, 0.0, 1.0, 9.6, 21.65)">
    <path d="M-9.45 -13.55 Q-10.05 -16.05 -7.8 -17.3 -8.45 -19.0 -7.15 -20.65 L-6.8 -21.0 -4.4 -21.05 -3.1 -20.25 -3.05 -20.2 Q-0.6 -23.15 1.75 -20.05 2.7 -18.25 2.5 -17.2 4.05 -16.05 4.9 -13.75 L4.95 -13.75 Q5.25 -12.45 4.85 -10.65 5.8 -9.1 5.85 -8.25 L5.8 -6.8 5.15 -4.55 Q5.8 -3.95 6.3 -2.7 L6.7 -0.75 Q6.65 -0.05 6.25 0.3 6.8 1.05 7.15 2.35 7.5 3.65 7.1 4.5 L6.2 5.75 7.6 8.05 Q8.3 9.3 7.35 10.3 L6.8 10.85 Q7.45 11.25 7.65 11.95 L8.15 13.65 Q8.35 14.55 8.15 15.5 L9.25 17.15 Q9.7 18.05 9.65 19.0 L5.55 20.2 Q5.6 19.4 5.1 18.35 4.55 17.3 4.85 14.7 3.55 14.45 3.1 13.65 2.6 12.85 2.85 11.7 L3.25 10.3 Q2.3 9.5 2.2 8.35 2.05 7.1 2.4 6.0 2.5 5.6 2.95 5.35 2.15 4.5 1.9 3.4 1.55 2.1 2.1 0.9 L2.6 0.1 Q1.55 -0.35 1.55 -1.6 1.55 -2.65 1.8 -3.75 L2.15 -4.5 Q1.45 -5.2 0.85 -6.5 0.2 -7.85 0.7 -9.4 L1.45 -11.35 Q0.55 -12.1 -0.05 -13.05 L-0.2 -13.6 Q-0.5 -15.05 -2.85 -16.15 -4.7 -15.15 -4.75 -13.6 -4.7 -12.45 -5.2 -11.8 -3.9 -10.1 -3.65 -9.15 -3.45 -7.8 -4.55 -6.35 -3.05 -4.1 -3.75 -1.2 -2.7 0.55 -2.85 2.0 L-3.55 4.3 -2.75 5.45 Q-2.25 6.2 -2.25 7.8 -2.25 9.3 -2.7 10.1 -2.2 10.6 -2.0 11.35 -1.8 12.1 -2.15 12.9 L-2.95 15.0 Q-2.15 16.25 -2.05 17.15 L-2.0 18.45 Q-2.05 18.85 -2.6 19.45 L-1.65 21.1 -1.5 21.45 -3.5 21.65 -6.45 21.6 -6.45 21.05 -6.25 20.1 -6.25 20.05 -6.2 19.95 -6.2 19.9 -6.15 19.85 -6.15 19.75 -6.1 19.7 -6.05 19.65 -6.05 19.55 -6.0 19.45 -6.3 19.3 -7.15 18.2 Q-7.6 16.8 -7.3 16.15 L-6.95 15.3 -6.65 14.4 Q-6.45 13.7 -6.95 12.65 -7.45 11.55 -7.4 10.9 L-7.1 9.65 Q-7.8 9.1 -8.0 8.15 -8.35 6.55 -7.7 5.15 L-7.15 4.25 Q-7.8 3.6 -8.05 2.75 -8.65 1.2 -8.1 -0.25 L-7.4 -1.1 -8.3 -2.45 Q-9.1 -4.0 -8.5 -5.65 L-7.85 -6.55 -8.65 -7.85 Q-9.2 -9.25 -8.9 -10.8 L-8.25 -11.95 -9.2 -12.95 -9.5 -13.5 -9.5 -13.55 -9.45 -13.55" fill="#f9e0c7" fill-rule="evenodd" stroke="none"/>
  </g>
</svg>
