<?xml version="1.0" encoding="UTF-8" standalone="no"?>
<svg xmlns:xlink="http://www.w3.org/1999/xlink" height="54.75px" width="42.55px" xmlns="http://www.w3.org/2000/svg">
  <g transform="matrix(1.0, 0.0, 0.0, 1.0, 20.3, 27.55)">
    <path d="M13.05 25.0 L6.0 26.25 5.85 25.9 4.9 24.25 5.5 23.25 5.45 21.95 Q5.35 21.05 4.55 19.8 L5.35 17.7 Q5.7 16.9 5.5 16.15 5.3 15.4 4.8 14.9 5.25 14.1 5.25 12.6 5.25 11.0 4.75 10.25 L3.95 9.1 4.65 6.8 Q4.8 5.35 3.75 3.6 4.45 0.7 2.95 -1.55 4.05 -3.0 3.85 -4.35 L2.3 -7.0 Q2.8 -7.65 2.75 -8.8 2.8 -10.35 4.65 -11.35 7.0 -10.25 7.3 -8.8 L7.45 -8.25 Q8.05 -7.3 8.95 -6.55 L8.2 -4.6 Q7.7 -3.05 8.35 -1.7 8.95 -0.4 9.65 0.3 9.4 0.65 9.3 1.05 9.05 2.15 9.05 3.2 9.05 4.45 10.1 4.9 L9.6 5.7 Q9.05 6.9 9.4 8.2 9.65 9.3 10.45 10.15 10.0 10.4 9.9 10.8 9.55 11.9 9.7 13.15 9.8 14.3 10.75 15.1 L10.35 16.5 Q10.1 17.65 10.6 18.45 11.05 19.25 12.35 19.5 12.05 22.1 12.6 23.15 13.1 24.2 13.05 25.0" fill="#fef0fd" fill-rule="evenodd" stroke="none"/>
    <path d="M6.0 26.25 L4.0 26.45 1.05 26.4 0.95 26.4 Q-14.85 25.9 -19.55 21.4 L-15.7 10.0 Q-14.55 4.65 -16.65 -3.15 -21.05 -18.8 -9.8 -23.9 L-9.75 -23.85 -9.35 -26.4 -1.0 -26.2 0.8 -21.2 0.95 -26.5 4.7 -26.8 5.3 -23.15 Q9.95 -21.05 12.75 -15.75 15.35 -7.15 16.1 2.9 18.5 13.35 21.5 21.2 20.05 22.65 17.15 23.8 L13.05 25.0 6.0 26.25 5.85 25.9 4.9 24.25 5.5 23.25 5.45 21.95 Q5.35 21.05 4.55 19.8 L5.35 17.7 Q5.7 16.9 5.5 16.15 5.3 15.4 4.8 14.9 5.25 14.1 5.25 12.6 5.25 11.0 4.75 10.25 L3.95 9.1 4.65 6.8 Q4.8 5.35 3.75 3.6 4.45 0.7 2.95 -1.55 4.05 -3.0 3.85 -4.35 L2.3 -7.0 Q2.8 -7.65 2.75 -8.8 2.8 -10.35 4.65 -11.35 7.0 -10.25 7.3 -8.8 L7.45 -8.25 Q8.05 -7.3 8.95 -6.55 L8.2 -4.6 Q7.7 -3.05 8.35 -1.7 8.95 -0.4 9.65 0.3 9.4 0.65 9.3 1.05 9.05 2.15 9.05 3.2 9.05 4.45 10.1 4.9 L9.6 5.7 Q9.05 6.9 9.4 8.2 9.65 9.3 10.45 10.15 10.0 10.4 9.9 10.8 9.55 11.9 9.7 13.15 9.8 14.3 10.75 15.1 L10.35 16.5 Q10.1 17.65 10.6 18.45 11.05 19.25 12.35 19.5 12.05 22.1 12.6 23.15 13.1 24.2 13.05 25.0 M0.95 26.4 L1.25 24.9 1.25 24.85 1.3 24.75 1.3 24.7 1.35 24.65 1.35 24.55 1.4 24.5 1.45 24.45 1.45 24.35 1.5 24.25 1.2 24.1 Q0.6 23.7 0.35 23.0 -0.1 21.6 0.2 20.95 L0.55 20.1 0.85 19.2 Q1.05 18.5 0.55 17.45 0.05 16.35 0.1 15.7 0.1 15.05 0.4 14.45 -0.3 13.9 -0.5 12.95 -0.85 11.35 -0.2 9.95 L0.35 9.05 Q-0.3 8.4 -0.55 7.55 -1.15 6.0 -0.6 4.55 L0.1 3.7 -0.8 2.35 Q-1.6 0.8 -1.0 -0.85 L-0.35 -1.75 -1.15 -3.05 Q-1.7 -4.45 -1.4 -6.0 L-0.75 -7.15 -1.7 -8.15 -2.0 -8.7 -1.95 -8.75 Q-2.55 -11.25 -0.3 -12.5 -0.95 -14.2 0.35 -15.85 L0.7 -16.2 3.1 -16.25 4.4 -15.45 Q0.9 -18.6 0.8 -21.2 M4.4 -15.45 L4.45 -15.4 Q6.9 -18.35 9.25 -15.25 10.2 -13.45 10.0 -12.4 11.55 -11.25 12.45 -8.95 12.75 -7.65 12.35 -5.85 13.3 -4.3 13.35 -3.45 L13.3 -2.0 12.65 0.25 Q13.3 0.85 13.8 2.1 L14.2 4.05 Q14.15 4.75 13.75 5.1 14.3 5.85 14.65 7.15 15.0 8.45 14.6 9.3 L13.7 10.55 15.1 12.85 Q15.8 14.1 14.85 15.1 L14.3 15.65 Q14.95 16.05 15.15 16.75 L15.65 18.45 Q15.85 19.35 15.65 20.3 L16.75 21.95 Q17.2 22.85 17.15 23.8" fill="none" stroke="#000000" stroke-linecap="round" stroke-linejoin="round" stroke-width="1.5"/>
  </g>
</svg>
