<?xml version="1.0" encoding="UTF-8" standalone="no"?>
<svg xmlns:xlink="http://www.w3.org/1999/xlink" height="54.75px" width="42.55px" xmlns="http://www.w3.org/2000/svg">
  <g transform="matrix(1.0, 0.0, 0.0, 1.0, 20.3, 27.55)">
    <path d="M15.9 0.45 L16.1 2.9 Q18.5 13.35 21.5 21.2 17.8 24.95 4.0 26.45 -14.4 26.3 -19.55 21.4 L-15.7 11.2 Q-14.55 4.65 -16.65 -3.15 -20.45 -16.7 -12.05 -22.65 L-11.9 -22.75 -9.45 -24.2 -9.4 -24.1 Q-7.05 -16.65 5.2 -13.85 8.3 -15.35 5.3 -22.65 L5.3 -22.7 Q8.4 -19.15 12.4 -15.45 15.25 -13.15 17.0 -11.25 18.75 -9.4 19.05 -7.05 19.3 -4.75 18.7 -2.9 18.1 -1.05 15.95 0.45 L15.9 0.45 15.95 0.45 M5.3 -22.7 L5.3 -22.65 M7.85 -2.7 Q2.15 -4.7 0.65 -7.15 -1.6 -10.75 2.05 -11.95 4.2 -12.4 6.7 -10.2 7.35 -12.45 9.55 -12.65 12.35 -12.65 12.35 -8.8 11.95 -5.0 7.85 -2.7 M-9.25 -24.65 Q-6.35 -23.0 -1.9 -22.75 2.55 -22.5 4.15 -23.7 L3.65 -26.7 Q2.6 -25.25 -1.55 -25.55 -5.7 -25.8 -9.25 -26.8 L-9.25 -24.65 M15.9 0.45 Q14.0 1.25 12.4 1.05 M-6.65 0.8 Q-2.6 2.2 0.65 1.25 3.85 0.3 4.85 -1.35" fill="none" stroke="#000000" stroke-linecap="round" stroke-linejoin="round" stroke-width="1.5"/>
  </g>
</svg>
