<?xml version="1.0" encoding="UTF-8" standalone="no"?>
<svg xmlns:xlink="http://www.w3.org/1999/xlink" height="49.45px" width="39.85px" xmlns="http://www.w3.org/2000/svg">
  <g transform="matrix(1.0, 0.0, 0.0, 1.0, 19.85, 23.75)">
    <path d="M-15.95 -18.1 L-16.8 -18.0 Q-15.75 -19.75 -14.3 -20.95 -13.8 -21.95 -12.3 -22.7 -10.8 -23.45 -7.7 -22.2 -2.3 -19.4 2.7 -14.5 5.1 -17.8 5.8 -22.4 6.85 -22.2 7.65 -21.15 10.1 -19.9 11.75 -17.05 11.6 -10.6 8.9 -6.7 6.15 -10.9 4.45 -12.7 6.15 -10.9 8.9 -6.7 11.25 -3.1 13.4 2.7 18.6 16.65 19.2 20.95 L19.2 22.45 17.8 23.6 Q15.85 24.7 13.0 24.65 L12.5 24.6 Q13.9 20.55 7.05 5.95 0.2 -8.7 -6.35 -13.55 -12.95 -18.4 -15.95 -18.1 M7.65 -21.15 Q7.4 -15.3 4.45 -12.7 7.4 -15.3 7.65 -21.15 M4.45 -12.7 L2.7 -14.5 4.45 -12.7 M17.8 23.6 Q12.65 0.3 1.6 -12.2 -5.7 -21.2 -14.3 -20.95 -5.7 -21.2 1.6 -12.2 12.65 0.3 17.8 23.6" fill="#ffffff" fill-opacity="0.21960784" fill-rule="evenodd" stroke="none"/>
    <path d="M-15.95 -18.1 L-16.8 -18.0 Q-15.75 -19.75 -14.3 -20.95 -13.8 -21.95 -12.3 -22.7 -10.8 -23.45 -7.7 -22.2 -2.3 -19.4 2.7 -14.5 5.1 -17.8 5.8 -22.4 6.85 -22.2 7.65 -21.15 10.1 -19.9 11.75 -17.05 14.4 -14.0 14.9 -4.8 L15.85 3.4 Q18.75 13.5 19.2 20.95 L19.2 22.45 17.8 23.6 Q15.85 24.7 13.0 24.65 L12.5 24.6 Q-16.25 25.85 -19.1 22.3 L-15.55 13.45 Q-13.95 6.6 -16.05 -1.7 -19.7 -12.8 -15.95 -18.1 -12.95 -18.4 -6.35 -13.55 0.2 -8.7 7.05 5.95 13.9 20.55 12.5 24.6 M4.45 -12.7 Q6.15 -10.9 8.9 -6.7 11.6 -10.6 11.75 -17.05 M2.7 -14.5 L4.45 -12.7 M8.9 -6.7 Q11.25 -3.1 13.4 2.7 18.6 16.65 19.2 20.95" fill="none" stroke="#000000" stroke-linecap="round" stroke-linejoin="round" stroke-width="1.5"/>
    <path d="M4.45 -12.7 Q7.4 -15.3 7.65 -21.15 M-14.3 -20.95 Q-5.7 -21.2 1.6 -12.2 12.65 0.3 17.8 23.6" fill="none" stroke="#000000" stroke-linecap="round" stroke-linejoin="round" stroke-opacity="0.84705883" stroke-width="1.0"/>
  </g>
</svg>
