<?xml version="1.0" encoding="UTF-8" standalone="no"?>
<svg xmlns:xlink="http://www.w3.org/1999/xlink" height="40.05px" width="23.25px" xmlns="http://www.w3.org/2000/svg">
  <g transform="matrix(1.0, 0.0, 0.0, 1.0, 11.6, 20.05)">
    <path d="M3.3 0.55 L-7.6 0.45 Q-8.0 -4.6 -8.8 -8.8 L-0.9 -8.4 6.9 -8.85 8.75 0.1 3.3 0.55 M-11.6 -18.95 L-11.25 -19.1 -11.2 -19.05 -10.55 -20.05 Q-6.7 -17.25 -0.05 -17.2 1.9 -17.7 2.1 -20.05 L3.9 -18.35 Q4.65 -15.45 0.5 -14.15 -7.1 -13.55 -11.6 -18.95 M1.95 10.0 L10.2 9.35 11.65 19.35 6.7 19.9 Q-1.75 20.15 -7.45 19.9 -7.3 15.4 -7.3 9.9 -2.85 10.2 1.95 10.0" fill="#4e4d99" fill-rule="evenodd" stroke="none"/>
  </g>
</svg>
