<?xml version="1.0" encoding="UTF-8" standalone="no"?>
<svg xmlns:xlink="http://www.w3.org/1999/xlink" height="54.45px" width="44.9px" xmlns="http://www.w3.org/2000/svg">
  <g transform="matrix(1.0, 0.0, 0.0, 1.0, 21.8, 25.6)">
    <path d="M5.95 -22.9 L8.35 -13.65 0.55 -13.2 -7.35 -13.6 Q-8.45 -19.4 -10.45 -23.6 L-10.15 -23.75 Q-5.65 -18.35 1.95 -18.95 6.1 -20.25 5.35 -23.15 L5.95 -22.9 M10.2 -4.7 L11.65 4.55 3.4 5.2 Q-1.4 5.4 -5.85 5.1 L-5.85 2.65 -6.15 -4.35 Q-1.45 -4.15 4.75 -4.25 L10.2 -4.7 M13.1 14.55 L14.85 24.5 Q10.6 25.75 4.0 26.45 L-6.9 25.8 Q-6.25 21.55 -6.0 15.1 -0.3 15.35 8.15 15.1 L13.1 14.55" fill="#151515" fill-rule="evenodd" stroke="none"/>
    <path d="M5.95 -22.9 L8.35 -13.65 10.2 -4.7 11.65 4.55 13.1 14.55 14.85 24.5 15.1 25.7 22.35 22.6 Q20.3 12.4 17.1 3.5 16.0 -6.45 13.3 -16.55 10.15 -21.25 5.6 -23.95 L5.95 -22.9 5.35 -23.15 Q6.1 -20.25 1.95 -18.95 -5.65 -18.35 -10.15 -23.75 L-10.45 -23.6 Q-8.45 -19.4 -7.35 -13.6 L0.55 -13.2 8.35 -13.65 M-10.15 -23.75 L-9.8 -23.9 -9.75 -23.85 -9.1 -24.85 Q-5.25 -22.05 1.4 -22.0 3.35 -22.5 3.55 -24.85 L5.3 -23.2 5.35 -23.15 M-6.15 -4.35 Q-1.45 -4.15 4.75 -4.25 L10.2 -4.7 M-7.35 -13.6 Q-6.55 -9.4 -6.15 -4.35 L-5.85 2.65 -5.85 5.1 Q-1.4 5.4 3.4 5.2 L11.65 4.55 M-6.9 25.8 L-7.3 28.1 -21.05 21.8 -17.0 9.9 Q-16.05 3.4 -18.4 -7.1 -20.3 -19.65 -10.8 -24.35 L-10.45 -23.6 M-5.85 5.1 Q-5.85 10.6 -6.0 15.1 -0.3 15.35 8.15 15.1 L13.1 14.55 M-6.0 15.1 Q-6.25 21.55 -6.9 25.8 L4.0 26.45 Q10.6 25.75 14.85 24.5" fill="none" stroke="#000000" stroke-linecap="round" stroke-linejoin="round" stroke-width="1.5"/>
  </g>
</svg>
