<?xml version="1.0" encoding="UTF-8" standalone="no"?>
<svg xmlns:xlink="http://www.w3.org/1999/xlink" height="56.0px" width="43.75px" xmlns="http://www.w3.org/2000/svg">
  <g transform="matrix(1.0, 0.0, 0.0, 1.0, 21.55, 27.8)">
    <path d="M1.4 -22.8 L1.15 -23.1 Q2.85 -24.55 3.1 -26.05 5.75 -25.1 6.5 -22.9 L6.35 -22.75 7.15 -22.15 Q7.2 -16.25 5.25 -10.95 4.6 -13.0 3.15 -15.35 3.6 -16.5 3.2 -18.45 2.85 -19.3 2.35 -19.4 2.75 -19.35 2.85 -20.6 L1.4 -22.8 M-11.35 -22.9 L-11.4 -22.9 Q-10.95 -25.2 -8.9 -27.05 -6.55 -26.6 -4.35 -25.1 -2.2 -23.65 -0.5 -23.0 L-1.0 -22.65 Q-1.6 -22.1 -2.05 -20.95 L0.15 -19.2 Q-0.35 -18.95 -0.35 -18.35 -0.25 -16.75 1.05 -15.25 0.5 -12.7 0.55 -10.95 L-2.4 -13.2 Q-5.95 -16.1 -6.5 -20.75 -7.3 -21.25 -8.55 -21.8 L-11.35 -22.9 M6.35 -22.75 Q4.8 -21.35 3.5 -18.55 L2.85 -20.6 3.5 -18.55 Q4.8 -21.35 6.35 -22.75 M-6.5 -20.75 Q-4.6 -19.7 -2.8 -18.2 L-2.05 -20.95 -2.8 -18.2 Q-4.6 -19.7 -6.5 -20.75" fill="#e9f7f9" fill-rule="evenodd" stroke="none"/>
    <path d="M1.4 -22.8 L1.15 -23.1 Q2.85 -24.55 3.1 -26.05 5.75 -25.1 6.5 -22.9 L6.35 -22.75 7.15 -22.15 Q12.6 -17.6 13.85 -10.85 15.1 -1.25 16.7 6.7 21.25 17.55 21.45 27.45 L10.05 27.45 7.0 27.45 -20.8 27.45 Q-20.6 22.65 -17.6 15.6 -14.65 8.55 -15.5 4.95 -17.7 -4.35 -17.8 -11.35 -17.4 -19.65 -11.35 -22.9 L-11.4 -22.9 Q-10.95 -25.2 -8.9 -27.05 -6.55 -26.6 -4.35 -25.1 -2.2 -23.65 -0.5 -23.0 L-1.0 -22.65 1.2 -19.7 Q1.1 -22.25 1.4 -22.8 L2.85 -20.6 3.5 -18.55 Q4.8 -21.35 6.35 -22.75 M2.35 -19.4 Q2.75 -19.35 2.85 -20.6 M0.15 -19.2 L2.35 -19.4 Q2.85 -19.3 3.2 -18.45 3.6 -16.5 3.15 -15.35 4.6 -13.0 5.25 -10.95 7.2 -16.25 7.15 -22.15 M3.15 -15.35 L1.05 -15.25 Q0.5 -12.7 0.55 -10.95 L4.0 -8.0 5.25 -10.95 M-8.55 -21.8 L-11.35 -22.9 M-2.05 -20.95 L-2.8 -18.2 Q-4.6 -19.7 -6.5 -20.75 -5.95 -16.1 -2.4 -13.2 L0.55 -10.95 M-1.0 -22.65 Q-1.6 -22.1 -2.05 -20.95 L0.15 -19.2 Q-0.35 -18.95 -0.35 -18.35 -0.25 -16.75 1.05 -15.25 M-6.5 -20.75 Q-7.3 -21.25 -8.55 -21.8" fill="none" stroke="#000000" stroke-linecap="round" stroke-linejoin="round" stroke-width="1.5"/>
    <path d="M4.0 -6.85 Q4.1 -6.3 3.8 -5.95 3.6 -5.6 3.2 -5.6 2.8 -5.6 2.45 -5.95 2.1 -6.3 2.0 -6.85 1.95 -7.3 2.2 -7.7 2.45 -8.05 2.85 -8.05 L3.55 -7.7 4.0 -6.85 M8.0 3.05 L7.65 3.9 6.95 4.15 Q6.55 4.05 6.3 3.65 6.0 3.25 6.0 2.7 L6.35 1.9 7.05 1.7 Q7.45 1.75 7.7 2.15 8.05 2.6 8.0 3.05 M8.7 14.7 L8.35 15.55 7.65 15.8 7.0 15.3 Q6.7 14.9 6.7 14.35 L7.05 13.55 7.75 13.35 8.4 13.8 Q8.75 14.25 8.7 14.7 M7.0 27.45 Q6.55 22.3 6.4 17.25 L6.05 7.0 Q5.8 1.8 4.3 -2.15 2.75 -6.15 -3.95 -11.05 -9.3 -16.05 -8.55 -21.8 M4.0 -8.0 Q8.75 -2.55 9.35 15.2 L10.05 27.45" fill="none" stroke="#000000" stroke-linecap="round" stroke-linejoin="round" stroke-width="1.0"/>
  </g>
</svg>
