<?xml version="1.0" encoding="UTF-8" standalone="no"?>
<svg xmlns:xlink="http://www.w3.org/1999/xlink" height="51.45px" width="42.45px" xmlns="http://www.w3.org/2000/svg">
  <g transform="matrix(1.0, 0.0, 0.0, 1.0, 21.0, 25.85)">
    <path d="M-12.7 -21.7 Q-12.2 -21.65 -13.05 -22.2 -12.1 -23.45 -8.85 -25.1 -5.95 -21.75 2.2 -18.65 5.4 -21.8 4.9 -24.15 L8.7 -20.95 8.5 -20.3 Q12.25 -16.95 13.6 -12.5 14.9 -8.1 15.45 0.0 16.2 5.75 18.2 9.7 19.15 10.85 18.0 12.0 21.05 17.45 20.65 22.85 L5.9 24.75 Q-11.05 25.4 -20.25 22.5 L-16.4 13.85 -17.3 12.75 -15.25 5.8 Q-15.1 2.85 -16.25 -0.8 -17.85 -7.35 -17.4 -12.9 -17.0 -18.75 -12.7 -21.7 -8.95 -18.75 0.2 -15.55 L2.2 -17.85 2.25 -17.8 4.45 -15.6 Q7.65 -18.35 8.5 -20.3 M2.25 -17.8 Q5.35 -9.6 4.8 -1.05 4.35 5.7 1.95 15.15 1.75 20.65 5.9 24.75 M18.0 12.0 Q16.55 13.35 11.85 14.65 M-16.4 13.85 Q-15.65 14.45 -14.35 14.9" fill="none" stroke="#000000" stroke-linecap="round" stroke-linejoin="round" stroke-width="1.5"/>
    <path d="M1.7 -15.45 L2.05 -14.2 M3.2 -7.3 L3.45 -5.55 M3.1 2.15 L2.95 3.6" fill="none" stroke="#000000" stroke-linecap="round" stroke-linejoin="round" stroke-width="1.0"/>
  </g>
</svg>
