<?xml version="1.0" encoding="UTF-8" standalone="no"?>
<svg xmlns:xlink="http://www.w3.org/1999/xlink" height="20.95px" width="34.95px" xmlns="http://www.w3.org/2000/svg">
  <g transform="matrix(1.0, 0.0, 0.0, 1.0, 18.9, 18.65)">
    <path d="M-8.35 -12.7 Q-7.7 -16.05 -5.95 -17.9 -3.2 -16.95 -1.4 -13.95 0.35 -15.4 3.95 -14.15 6.8 -15.6 8.05 -14.15 8.95 -16.75 10.4 -17.75 12.1 -16.25 12.7 -13.4 14.25 -12.6 14.75 -10.95 15.45 -8.2 14.9 -6.15 15.55 -3.35 15.15 -1.15 13.6 -0.45 10.25 -1.7 8.4 -0.15 4.85 -1.2 1.35 1.0 -2.15 -0.55 -5.05 1.15 -8.6 0.3 -10.65 0.35 -12.25 1.15 L-15.85 1.35 Q-17.1 -1.5 -16.85 -3.95 -18.05 -6.2 -18.15 -8.05 -17.0 -10.1 -15.2 -9.3 -14.0 -10.75 -11.55 -10.55 -10.5 -12.2 -8.35 -12.7 M0.2 -10.4 L0.25 -9.75 M7.35 -10.8 L7.4 -10.25" fill="none" stroke="#000000" stroke-linecap="round" stroke-linejoin="round" stroke-width="1.5"/>
    <path d="M2.3 -6.9 Q3.85 -6.6 4.65 -7.65 5.35 -6.95 6.75 -7.1" fill="none" stroke="#000000" stroke-linecap="round" stroke-linejoin="round" stroke-width="1.0"/>
  </g>
</svg>
