<?xml version="1.0" encoding="UTF-8" standalone="no"?>
<svg xmlns:xlink="http://www.w3.org/1999/xlink" height="51.1px" width="42.8px" xmlns="http://www.w3.org/2000/svg">
  <g transform="matrix(1.0, 0.0, 0.0, 1.0, 20.7, 23.65)">
    <path d="M-15.8 0.65 L-16.65 -3.15 -17.5 -6.7 Q-18.35 -11.05 -17.9 -14.3 -17.05 -20.35 -11.15 -22.65 -6.25 -15.55 2.85 -14.15 7.5 -17.1 7.8 -20.75 10.5 -19.7 13.2 -15.35 L13.45 -14.95 Q16.25 -10.25 16.7 -7.95 L16.75 -7.6 Q17.0 -5.45 16.15 -0.6 L15.9 0.55 17.2 6.55 17.25 6.7 18.95 13.3 21.1 17.65 Q20.5 18.9 20.3 22.65 19.05 24.1 17.45 25.0 15.8 25.9 4.0 26.45 -14.4 26.3 -18.45 22.0 L-19.65 18.45 Q-19.95 17.05 -16.85 13.7 L-15.7 10.0 -15.35 7.95 M-15.35 7.65 Q-15.1 4.5 -15.8 0.65" fill="none" stroke="#000000" stroke-linecap="round" stroke-linejoin="round" stroke-width="2.0"/>
    <path d="M17.2 6.55 L17.25 6.7 M-15.35 7.95 L-15.35 7.85 -15.35 7.65 M-15.8 0.65 L-16.25 0.55" fill="none" stroke="#000000" stroke-linecap="round" stroke-linejoin="round" stroke-width="1.0"/>
    <path d="M-14.15 17.2 Q-10.3 22.0 -0.2 25.25" fill="none" stroke="#000000" stroke-linecap="round" stroke-linejoin="round" stroke-opacity="0.49803922" stroke-width="1.0"/>
  </g>
</svg>
