<?xml version="1.0" encoding="UTF-8" standalone="no"?>
<svg xmlns:xlink="http://www.w3.org/1999/xlink" height="50.75px" width="42.15px" xmlns="http://www.w3.org/2000/svg">
  <g transform="matrix(1.0, 0.0, 0.0, 1.0, 20.3, 25.15)">
    <path d="M16.1 2.95 Q17.6 5.7 17.05 6.75 L16.6 7.15 Q14.65 8.15 5.3 8.65 -9.65 8.6 -14.75 7.15 L-15.3 6.95 Q-16.35 6.2 -15.45 2.95 -8.5 4.7 5.9 4.7 13.6 4.6 16.1 2.95 M-11.0 -23.25 L-8.95 -24.15 Q-3.85 -19.95 0.4 -19.7 4.6 -19.5 4.35 -23.35 L6.35 -22.55 Q7.85 -19.4 4.2 -17.45 0.6 -16.2 -4.0 -17.9 -8.6 -19.65 -11.0 -23.25" fill="#000000" fill-opacity="0.4392157" fill-rule="evenodd" stroke="none"/>
    <path d="M6.35 -22.55 Q7.85 -19.4 4.2 -17.45 0.6 -16.2 -4.0 -17.9 -8.6 -19.65 -11.0 -23.25 M-15.45 2.95 Q-8.5 4.7 5.9 4.7 13.6 4.6 16.1 2.95" fill="none" stroke="#000000" stroke-linecap="round" stroke-linejoin="round" stroke-width="1.5"/>
    <path d="M6.35 -22.55 L7.9 -21.65 Q10.8 -19.5 12.75 -15.75 15.35 -7.15 16.1 2.9 L16.1 2.95 Q17.6 5.7 17.05 6.75 L16.6 7.15 Q20.3 16.8 20.85 22.9 16.6 24.35 5.15 24.6 -13.95 24.25 -19.3 22.6 -18.2 18.4 -16.6 14.4 -15.05 10.4 -14.75 7.15 L-15.3 6.95 Q-16.35 6.2 -15.45 2.95 -15.65 0.5 -16.65 -3.15 -20.45 -16.7 -12.05 -22.65 L-11.0 -23.25 -8.95 -24.15 Q-3.85 -19.95 0.4 -19.7 4.6 -19.5 4.35 -23.35 L6.35 -22.55 M-14.75 7.15 Q-9.65 8.6 5.3 8.65 14.65 8.15 16.6 7.15" fill="none" stroke="#000000" stroke-linecap="round" stroke-linejoin="round" stroke-width="2.0"/>
  </g>
</svg>
