<?xml version="1.0" encoding="UTF-8" standalone="no"?>
<svg xmlns:xlink="http://www.w3.org/1999/xlink" height="50.75px" width="42.15px" xmlns="http://www.w3.org/2000/svg">
  <g transform="matrix(1.0, 0.0, 0.0, 1.0, 20.3, 25.15)">
    <path d="M16.1 2.95 Q17.6 5.7 17.05 6.75 L16.6 7.15 Q14.65 8.15 5.3 8.65 -9.65 8.6 -14.75 7.15 L-15.3 6.95 Q-16.35 6.2 -15.45 2.95 -8.5 4.7 5.9 4.7 13.6 4.6 16.1 2.95 M-11.0 -23.25 L-8.95 -24.15 Q-5.8 -20.75 -2.6 -18.85 0.55 -16.95 3.25 -16.7 5.25 -18.7 4.35 -23.35 L6.35 -22.55 Q7.9 -18.55 6.65 -16.25 5.35 -13.95 3.7 -13.15 0.35 -13.75 -3.2 -15.55 -8.85 -18.45 -11.0 -23.25" fill="#000000" fill-opacity="0.4392157" fill-rule="evenodd" stroke="none"/>
    <path d="M6.35 -22.55 L7.9 -21.65 Q10.65 -19.6 12.6 -16.0 L12.75 -15.75 12.8 -15.55 15.8 -12.3 Q18.85 -7.55 17.1 -3.35 L15.75 -1.0 16.1 2.9 16.1 2.95 Q17.6 5.7 17.05 6.75 L16.6 7.15 Q20.3 16.8 20.85 22.9 16.6 24.35 5.15 24.6 -13.95 24.25 -19.3 22.6 -18.2 18.4 -16.6 14.4 -15.05 10.4 -14.75 7.15 L-15.3 6.95 Q-16.35 6.2 -15.45 2.95 -15.65 0.5 -16.65 -3.15 -20.45 -16.7 -12.05 -22.65 L-11.0 -23.25 -8.95 -24.15 Q-5.8 -20.75 -2.6 -18.85 0.55 -16.95 3.25 -16.7 5.25 -18.7 4.35 -23.35 L6.35 -22.55 M12.6 -16.0 L12.8 -15.55 M-14.75 7.15 Q-9.65 8.6 5.3 8.65 14.65 8.15 16.6 7.15" fill="none" stroke="#000000" stroke-linecap="round" stroke-linejoin="round" stroke-width="2.0"/>
    <path d="M6.35 -22.55 Q7.9 -18.55 6.65 -16.25 5.35 -13.95 3.7 -13.15 0.35 -13.75 -3.2 -15.55 -8.85 -18.45 -11.0 -23.25 M-15.45 2.95 Q-8.5 4.7 5.9 4.7 13.6 4.6 16.1 2.95" fill="none" stroke="#000000" stroke-linecap="round" stroke-linejoin="round" stroke-width="1.5"/>
    <path d="M-4.5 0.55 L1.4 0.4 Q3.95 -0.4 4.95 -2.05" fill="none" stroke="#000000" stroke-linecap="round" stroke-linejoin="round" stroke-width="1.0"/>
  </g>
</svg>
