<?xml version="1.0" encoding="UTF-8" standalone="no"?>
<svg xmlns:xlink="http://www.w3.org/1999/xlink" height="53.4px" width="43.05px" xmlns="http://www.w3.org/2000/svg">
  <g transform="matrix(1.0, 0.0, 0.0, 1.0, 20.55, 25.95)">
    <path d="M8.8 -19.25 L5.3 -22.7 5.3 -22.65 Q5.55 -19.55 4.95 -16.6 L4.1 -13.6 Q1.05 -15.15 -1.5 -17.05 L-4.05 -19.15 Q-7.55 -22.35 -9.2 -24.95 L-11.9 -22.75 -12.05 -22.65 -14.15 -21.0 Q-17.45 -17.3 -17.65 -13.35 -18.25 -9.0 -16.65 -3.25 L-16.65 -3.15 Q-15.4 1.55 -15.3 5.8 -15.25 8.6 -15.7 11.2 L-16.8 14.15 -19.55 21.4 Q-14.4 26.3 4.0 26.45 17.8 24.95 21.5 21.2 20.05 17.45 18.75 13.05 17.55 9.05 16.5 4.5 L16.1 2.9 15.75 -0.9 15.4 -0.45 M8.8 -19.25 L13.85 -14.3 15.9 -12.3 Q17.8 -9.4 17.85 -6.7 17.85 -5.0 17.2 -3.35 L15.75 -0.9 M5.3 -22.65 L5.3 -22.7" fill="none" stroke="#000000" stroke-linecap="round" stroke-linejoin="round" stroke-width="2.0"/>
    <path d="M4.95 -16.6 Q7.9 -17.55 8.8 -19.25 M-16.8 14.15 L-17.05 14.1 M-16.65 -3.25 L-7.75 -2.7 Q-3.25 -1.65 -0.4 -1.95 2.4 -2.25 4.7 -3.35 6.95 -4.45 9.35 -3.85 15.45 -2.4 17.85 -6.7 M-17.65 -13.35 Q-16.55 -10.85 -7.1 -10.05 2.3 -9.25 7.55 -10.45 12.75 -11.7 13.85 -14.3 M-16.8 14.15 Q-7.85 15.8 3.65 15.45 14.4 15.0 18.75 13.05 M-15.3 5.8 Q-10.0 7.15 2.35 6.95 12.95 6.05 16.5 4.5 M-4.4 0.55 L1.5 0.4 Q4.05 -0.4 5.05 -2.05 M-1.5 -17.05 Q-13.55 -16.8 -14.15 -21.0" fill="none" stroke="#000000" stroke-linecap="round" stroke-linejoin="round" stroke-width="1.0"/>
  </g>
</svg>
