<?xml version="1.0" encoding="UTF-8" standalone="no"?>
<svg xmlns:xlink="http://www.w3.org/1999/xlink" height="52.35px" width="43.05px" xmlns="http://www.w3.org/2000/svg">
  <g transform="matrix(1.0, 0.0, 0.0, 1.0, 20.55, 24.9)">
    <path d="M3.0 -16.3 Q6.35 -17.4 5.25 -23.2 L7.95 -21.6 Q10.8 -19.45 12.75 -15.75 L13.45 -13.4 Q14.5 -9.35 15.2 -4.95 L16.1 2.9 16.5 4.5 Q17.3 8.05 18.25 11.3 L18.75 13.05 Q20.05 17.45 21.5 21.2 17.8 24.95 4.0 26.45 -14.4 26.3 -19.55 21.4 L-17.05 14.1 -15.7 10.0 Q-15.3 8.05 -15.3 5.8 -15.3 1.8 -16.65 -3.15 L-16.65 -3.25 Q-18.3 -9.1 -17.7 -13.5 -17.1 -18.35 -13.75 -21.35 -12.15 -22.85 -9.8 -23.9 -5.55 -17.3 -0.65 -16.25 L0.9 -16.05 3.0 -16.3" fill="none" stroke="#000000" stroke-linecap="round" stroke-linejoin="round" stroke-width="2.0"/>
    <path d="M-0.65 -16.25 L1.35 -16.15 3.0 -16.3 Q9.35 -17.1 7.95 -21.6 M-16.65 -3.25 Q-5.25 -1.4 2.15 -2.1 12.65 -2.75 15.2 -4.95 M-15.3 5.8 Q-10.0 7.15 2.35 6.95 12.95 6.05 16.5 4.5 M-17.05 14.1 Q-8.0 15.8 3.65 15.45 14.4 15.0 18.75 13.05 M-17.7 -13.5 Q-16.75 -9.4 -2.55 -9.45 11.65 -9.5 13.45 -13.4 M-13.75 -21.35 Q-11.9 -17.0 -0.65 -16.25" fill="none" stroke="#000000" stroke-linecap="round" stroke-linejoin="round" stroke-width="1.0"/>
  </g>
</svg>
