<?xml version="1.0" encoding="UTF-8" standalone="no"?>
<svg xmlns:xlink="http://www.w3.org/1999/xlink" height="10.25px" width="45.6px" xmlns="http://www.w3.org/2000/svg">
  <g transform="matrix(1.0, 0.0, 0.0, 1.0, 23.0, 5.1)">
    <path d="M0.4 -2.8 L0.65 -3.25 Q3.7 -3.6 9.5 -3.2 L9.8 -2.8 11.7 -2.9 Q17.05 -3.2 21.0 -4.1 22.15 -0.6 21.7 1.7 L16.05 2.85 15.75 2.9 10.05 3.25 Q10.05 4.15 9.85 4.1 5.65 4.6 0.6 4.2 L0.4 3.7 -0.05 3.7 -17.0 2.6 -17.7 2.5 -21.95 1.7 -22.15 1.6 Q-22.6 -0.8 -20.65 -4.35 L-2.5 -2.8 0.4 -2.8 0.4 3.7 M9.8 -2.8 Q10.1 -0.4 10.05 3.25" fill="none" stroke="#000000" stroke-linecap="round" stroke-linejoin="round" stroke-width="1.5"/>
  </g>
</svg>
