<?xml version="1.0" encoding="UTF-8" standalone="no"?>
<svg xmlns:xlink="http://www.w3.org/1999/xlink" height="35.05px" width="81.3px" xmlns="http://www.w3.org/2000/svg">
  <g transform="matrix(1.0, 0.0, 0.0, 1.0, 38.6, 9.9)">
    <path d="M35.7 11.45 Q37.5 11.35 38.55 9.65 38.75 6.4 34.2 2.3 L31.95 0.45 Q25.15 -4.8 21.35 -5.55 22.0 -4.5 22.15 -3.25 L23.05 -2.25 M21.35 -5.55 Q20.95 -6.25 20.35 -6.15 13.4 -3.55 6.5 -3.9 -9.55 -4.65 -19.25 -8.65 L-19.5 -8.9 -20.55 -6.75 -21.3 -5.3 -19.4 -4.2 -14.55 -2.0 -10.2 -0.45 Q-1.75 1.55 7.8 1.3 17.25 1.05 20.5 -0.85 21.75 -1.9 22.15 -3.25 M-12.5 20.2 L-14.2 21.8 Q-9.4 25.3 -2.05 23.55 L-5.0 21.05 Q1.25 19.55 7.95 21.35 L6.4 23.5 Q14.9 25.25 18.8 21.9 L16.5 20.35 Q18.75 17.15 25.25 17.25 L24.2 20.2 Q30.5 19.65 34.1 16.6 L33.6 15.9 33.1 15.15 33.15 15.15 Q36.1 15.5 37.35 13.15 L35.7 11.45 M-34.0 11.9 Q-35.7 7.9 -33.2 3.8 L-37.6 6.05 Q-36.85 10.95 -34.0 11.9 L-33.25 12.9 -30.75 14.9 Q-27.85 19.3 -21.4 21.3 L-22.2 18.65 Q-17.65 17.1 -12.5 20.2 M-33.25 12.9 L-33.9 12.15 -34.0 11.9 M38.55 9.65 Q41.25 9.25 41.7 5.05 L34.2 2.3 M-33.2 3.8 Q-30.15 -1.4 -20.55 -6.75" fill="none" stroke="#000000" stroke-linecap="round" stroke-linejoin="round" stroke-width="2.0"/>
    <path d="M16.5 20.35 Q14.7 19.35 12.95 4.85 M-12.5 20.2 Q-10.4 20.45 -7.8 5.0 M-5.15 20.45 Q-7.5 21.1 -2.15 4.8 M-22.2 18.65 Q-24.35 17.5 -18.65 10.6 M33.15 15.15 L33.6 15.9 M25.25 17.25 L25.25 16.55 Q24.6 12.9 18.0 3.8 M33.15 15.15 L24.6 4.05 M8.2 22.05 Q10.55 20.5 6.1 6.4 M-28.6 9.35 Q-26.55 6.0 -20.4 -0.3" fill="none" stroke="#000000" stroke-linecap="round" stroke-linejoin="round" stroke-width="1.0"/>
    <path d="M23.05 -2.25 Q28.1 -0.05 32.05 3.85 L34.15 5.95 Q33.65 9.75 23.05 -2.25 M-30.75 14.9 Q-25.6 17.55 -18.65 10.6 -14.7 6.6 -10.2 -0.45 M20.5 -0.85 L24.6 4.05 28.55 8.2 Q33.0 11.65 35.7 11.45 M-14.55 -2.0 Q-26.2 13.95 -30.5 8.75 -32.6 4.65 -19.4 -4.2" fill="none" stroke="#000000" stroke-linecap="round" stroke-linejoin="round" stroke-width="1.5"/>
  </g>
</svg>
