<?xml version="1.0" encoding="UTF-8" standalone="no"?>
<svg xmlns:xlink="http://www.w3.org/1999/xlink" height="40.8px" width="73.65px" xmlns="http://www.w3.org/2000/svg">
  <g transform="matrix(1.0, 0.0, 0.0, 1.0, 36.8, 8.95)">
    <path d="M32.2 11.55 L32.7 11.6 29.85 6.15 Q25.45 -1.5 19.65 -7.95 14.6 -3.35 0.15 -4.05 -13.45 -4.65 -19.3 -7.7 -24.5 -2.3 -28.05 3.95 L-30.55 8.5 Q-30.1 10.2 -29.25 11.55 L-32.75 16.25 -35.8 20.4 Q-33.8 26.7 -26.55 28.1 M32.2 11.55 L29.7 13.85 32.65 18.05 35.85 23.5 35.25 23.45 31.75 26.25 M25.6 28.8 Q18.0 30.7 11.0 29.4 M2.4 29.55 Q-7.5 32.45 -17.2 28.8 L-17.4 28.7 -17.15 28.5" fill="none" stroke="#000000" stroke-linecap="round" stroke-linejoin="round" stroke-width="2.0"/>
    <path d="M-29.25 11.55 Q-27.75 14.0 -25.15 15.3 L-22.4 16.15 Q-23.15 14.7 -24.05 13.65 L-25.55 12.35 -25.45 12.35 -24.05 9.1 -23.1 7.1 -21.9 4.75 -17.35 -2.85 M15.75 -2.1 L18.5 5.5 19.75 9.2 20.35 11.15 21.1 14.05 23.1 12.9 Q25.4 11.7 27.2 11.5 L27.8 11.4 32.2 11.55 M31.75 26.25 L29.6 23.4 Q27.6 23.65 24.95 24.8 L25.4 27.15 25.5 28.15 25.6 28.8 M11.0 29.4 L9.55 25.55 Q5.6 24.8 1.75 25.6 L2.4 29.55 Q-0.6 28.3 -3.7 26.65 L-3.25 24.15 -2.8 21.85 -2.2 18.8 3.2 17.65 2.6 13.65 Q6.0 12.9 9.55 13.6 L9.85 13.7 Q11.85 14.1 15.05 15.2 L10.8 17.45 12.2 17.75 Q15.95 18.3 19.95 17.7 L23.65 16.9 23.55 16.2 21.1 14.05 M-17.15 28.5 L-16.6 25.05 Q-20.2 23.35 -23.25 23.15 L-26.55 28.1 Q-28.05 25.55 -30.15 24.25 L-30.05 24.25 -28.45 21.0 -27.35 19.0 -25.15 15.3 M-32.75 16.25 L-32.95 15.85 M29.7 13.85 L29.15 14.3 27.2 11.5 M8.6 -0.4 L12.55 7.3 13.5 9.25 14.8 12.3 Q16.3 15.95 15.05 15.2 M23.55 16.2 L23.1 12.9 M25.5 28.15 L22.75 25.95 21.85 23.1 21.2 21.1 19.95 17.7 M29.6 23.4 Q33.35 22.85 35.25 23.45 M0.55 -0.95 L-1.1 7.9 -1.25 8.95 -1.8 12.25 -2.25 14.75 -1.3 14.55 2.6 13.65 M-2.25 14.75 L-1.45 15.2 Q0.85 16.6 3.2 17.65 M9.55 25.55 Q11.9 25.9 15.85 27.1 17.25 27.85 15.6 24.2 L14.1 21.2 12.2 17.75 M10.8 17.45 L9.55 13.6 M15.85 27.1 L11.0 29.4 M22.75 25.95 L24.95 24.8 M-25.45 12.35 L-22.6 11.45 -19.5 11.25 Q-16.8 11.45 -13.6 13.15 L-12.1 13.8 -8.15 14.95 -8.55 12.25 -8.95 9.05 -9.15 7.3 -9.85 -1.15 M-14.15 16.85 L-14.1 16.6 -14.3 16.8 -14.15 16.85 -11.7 17.8 Q-6.95 19.3 -2.2 18.8 M-8.15 14.95 L-11.95 15.6 Q-13.7 16.1 -14.1 16.6 L-13.6 13.15 M-16.6 25.05 L-10.45 26.9 -10.85 24.15 -11.3 20.95 -11.7 17.8 M-30.05 24.25 Q-26.7 22.95 -23.25 23.15 M-17.2 28.8 L-17.15 28.5 Q-16.3 27.55 -10.45 26.9 M-22.4 16.15 L-19.5 11.25 M-3.7 26.65 L1.75 25.6" fill="none" stroke="#000000" stroke-linecap="round" stroke-linejoin="round" stroke-width="1.3"/>
  </g>
</svg>
