<?xml version="1.0" encoding="UTF-8" standalone="no"?>
<svg xmlns:xlink="http://www.w3.org/1999/xlink" height="28.9px" width="65.25px" xmlns="http://www.w3.org/2000/svg">
  <g transform="matrix(1.0, 0.0, 0.0, 1.0, 31.5, 8.95)">
    <path d="M32.25 11.55 L32.75 11.6 29.9 6.2 Q25.55 -1.45 19.75 -7.95 14.6 -3.35 0.2 -4.0 -13.4 -4.6 -19.2 -7.75 -22.45 -4.05 -25.3 0.2 L-27.9 4.35 -30.5 8.5 Q-28.75 14.8 -22.35 16.15 M32.25 11.55 L29.15 14.3 M10.85 17.5 Q17.0 18.8 23.75 16.95 M-14.05 16.65 L-14.25 16.8 -14.1 16.9 Q-5.45 20.55 3.25 17.7" fill="none" stroke="#000000" stroke-linecap="round" stroke-linejoin="round" stroke-width="2.0"/>
    <path d="M-22.35 16.15 Q-23.65 13.65 -25.55 12.35 L-25.45 12.35 -24.05 9.05 -23.05 7.1 Q-20.3 1.5 -17.35 -2.9 M15.75 -2.1 L19.85 9.15 20.4 11.2 21.15 14.05 23.15 12.9 Q25.5 11.75 27.3 11.5 30.6 10.95 32.25 11.55 M29.15 14.3 L27.3 11.5 M23.75 16.95 L23.65 16.2 21.15 14.05 M23.65 16.2 L23.15 12.9 M0.55 -0.9 L-1.2 8.95 -1.75 12.25 -2.25 14.75 2.65 13.7 Q6.05 12.9 9.6 13.65 11.65 14.0 15.1 15.2 16.35 15.95 14.85 12.3 L13.55 9.3 8.65 -0.4 M-2.25 14.75 Q0.55 16.4 3.25 17.7 L2.65 13.7 M10.85 17.5 L9.6 13.65 M15.1 15.2 L10.85 17.5 M-25.45 12.35 Q-22.5 11.05 -19.45 11.3 -16.8 11.45 -13.55 13.15 -12.25 13.85 -8.15 14.95 L-8.5 12.25 -8.9 9.05 Q-9.65 3.1 -9.85 -1.15 M-14.1 16.9 L-14.05 16.65 -13.55 13.15 M-8.15 14.95 Q-13.3 15.6 -14.05 16.65 M-27.9 4.35 L-28.05 3.95 M-19.45 11.3 L-22.35 16.15" fill="none" stroke="#000000" stroke-linecap="round" stroke-linejoin="round" stroke-width="1.3"/>
  </g>
</svg>
