<?xml version="1.0" encoding="UTF-8" standalone="no"?>
<svg xmlns:xlink="http://www.w3.org/1999/xlink" height="45.4px" width="117.6px" xmlns="http://www.w3.org/2000/svg">
  <g transform="matrix(1.0, 0.0, 0.0, 1.0, 56.05, 9.0)">
    <path d="M33.3 26.2 L33.3 25.95 32.9 26.3 Q29.8 28.8 26.15 26.7 L23.7 21.7 Q15.35 21.2 8.7 24.85 L10.2 30.6 Q-7.75 40.3 -20.35 30.35 L-24.85 25.85 -22.8 22.9 -26.6 19.25 Q-30.4 16.95 -33.5 15.8 L-41.0 18.75 Q-52.45 16.5 -55.05 5.8 -49.7 3.05 -43.95 1.05 -33.65 -2.8 -22.3 -4.35 L-18.9 -8.0 Q1.0 -0.85 20.05 -6.85 L24.4 -2.35 Q40.0 0.25 49.45 3.55 56.9 6.0 60.55 8.95 47.95 8.5 43.8 13.45 L45.2 14.65 Q56.75 18.9 33.75 25.8 L33.3 25.95 Q33.3 23.15 29.3 22.5 L23.7 21.7 M-22.3 -4.35 Q-15.6 -1.15 -9.25 0.6 -4.6 1.85 -0.15 2.2 6.9 2.85 13.5 1.45 16.9 0.75 20.25 -0.5 L24.4 -2.35 M3.0 29.4 L4.95 27.5 Q6.65 25.95 8.7 24.85 M-43.9 14.5 L-43.35 15.25 Q-39.8 13.3 -33.5 15.8 M-22.8 22.9 Q-20.0 26.15 -19.65 28.85 M-41.0 18.75 L-43.35 15.25 M10.2 30.6 Q5.8 30.65 3.0 29.4" fill="none" stroke="#000000" stroke-linecap="round" stroke-linejoin="round" stroke-width="2.0"/>
    <path d="M33.75 25.8 L33.3 26.2 M33.75 25.8 Q35.85 23.55 30.1 19.15 L28.25 16.25 26.6 13.95 Q12.05 9.8 -0.7 19.2 L-0.85 23.05 -0.95 25.75 Q0.25 28.2 3.0 29.4 M-0.15 2.2 L-0.7 19.2 M-19.4 29.95 Q-17.35 30.3 -14.45 21.35 L-13.15 17.05 Q-20.6 7.2 -33.15 6.0 -34.6 6.7 -35.8 7.5 -44.25 12.25 -43.9 14.5 M-13.15 17.05 Q-11.35 10.45 -9.25 0.6 M-14.45 21.35 Q-8.55 26.9 -0.85 23.05 M-43.95 1.05 Q-40.75 7.65 -35.8 7.5 M49.45 3.55 Q37.75 3.95 37.25 8.55 L41.15 11.3 43.8 13.45 M26.6 13.95 Q21.55 7.6 13.5 1.45 M28.25 16.25 Q36.45 18.05 41.15 11.3 M-33.15 6.0 Q-27.05 2.75 -17.65 -1.45 M20.25 -0.5 Q29.8 3.55 37.25 8.55" fill="none" stroke="#000000" stroke-linecap="round" stroke-linejoin="round" stroke-width="1.0"/>
  </g>
</svg>
