<?xml version="1.0" encoding="UTF-8" standalone="no"?>
<svg xmlns:xlink="http://www.w3.org/1999/xlink" height="83.95px" width="176.8px" xmlns="http://www.w3.org/2000/svg">
  <g transform="matrix(1.0, 0.0, 0.0, 1.0, 87.55, 9.05)">
    <path d="M20.1 -0.6 L20.5 -0.4 Q26.85 2.2 32.25 5.4 34.7 6.75 37.0 8.3 37.15 6.9 38.25 6.0 40.9 3.65 49.15 3.35 M13.3 1.3 L13.7 1.6 Q19.2 5.8 23.35 10.15 L26.35 13.7 28.0 15.95 Q33.85 17.15 37.95 14.15 39.55 12.85 40.85 11.0 L37.0 8.3 M-17.65 -1.55 L-23.95 1.3 -33.05 5.8 Q-22.95 6.75 -16.15 13.4 -14.6 14.8 -13.2 16.7 L-12.45 14.1 -9.95 3.6 -9.3 0.45 M-19.4 29.4 Q-17.35 29.7 -14.5 20.9 L-13.2 16.7 M-14.5 20.9 Q-9.7 25.35 -3.8 23.7 L-0.9 22.65 -0.75 18.8 -0.25 2.05 M-43.85 0.95 Q-42.3 4.1 -40.35 5.7 -38.3 7.35 -35.7 7.25 -35.2 6.9 -34.75 6.7 L-33.05 5.8 M2.95 28.85 Q0.15 27.65 -1.0 25.25 L-0.9 22.65 M-3.55 34.65 L-3.25 45.0 Q15.2 27.35 37.4 33.6 34.7 30.0 31.65 26.55 M-43.45 17.75 Q-49.1 21.2 -53.45 24.3 -34.3 25.35 -22.25 42.1 L-20.2 29.8 M-68.85 40.0 Q-69.7 36.0 -57.3 27.0 -64.8 27.65 -70.25 16.4 M-57.3 27.0 L-53.45 24.3 M-3.25 45.0 L-3.15 51.7 -3.05 56.4 Q-0.95 60.65 3.25 62.55 M-30.55 65.2 Q-30.3 68.0 -27.1 59.2 L-23.85 49.75 -22.25 42.1 M-23.85 49.75 L-22.35 51.05 Q-13.5 58.5 -3.15 51.7 M-43.8 14.2 Q-44.15 11.95 -35.7 7.25 M47.45 19.5 L53.0 23.25 Q53.35 15.1 70.95 13.55 M49.3 53.85 L48.75 54.55 M40.85 11.0 L43.45 13.15 M53.0 23.25 L59.2 27.8 63.25 31.35 M33.5 25.3 Q35.5 23.1 29.85 18.75 L28.0 15.95 M-0.75 18.8 Q2.7 16.3 6.3 14.8 11.7 12.45 17.35 12.4 21.75 12.35 26.35 13.7 M33.05 25.7 L33.5 25.3 M49.3 53.85 Q50.25 52.55 50.05 51.05 49.45 47.55 43.25 42.45 L40.15 37.45 37.4 33.6 M40.15 37.45 Q52.7 40.0 59.2 27.8" fill="none" stroke="#000000" stroke-linecap="round" stroke-linejoin="round" stroke-width="1.0"/>
    <path d="M49.15 3.35 Q40.25 0.3 26.0 -2.15 L25.3 -2.25 24.2 -2.4 20.1 -0.6 Q16.75 0.6 13.3 1.3 6.75 2.65 -0.25 2.05 -4.7 1.7 -9.3 0.45 -15.65 -1.25 -22.3 -4.45 L-18.9 -8.05 Q0.9 -1.0 19.9 -6.9 L24.2 -2.4 M25.3 -2.25 L25.7 -2.4 26.0 -2.15 M48.75 54.55 L48.7 54.15 48.1 54.8 Q43.55 59.4 38.0 56.05 L33.75 47.45 Q24.3 47.25 16.45 51.05 13.85 52.35 11.4 54.05 L14.25 64.1 Q-11.9 82.65 -31.95 66.1 L-39.1 58.45 -36.35 53.1 -38.15 51.05 Q-40.0 49.1 -42.35 47.05 -48.3 43.25 -53.05 41.4 L-64.15 47.3 Q-73.85 45.55 -79.6 39.05 -84.35 33.85 -86.55 25.55 -83.15 23.3 -79.6 21.3 -75.05 18.6 -70.25 16.4 -62.1 12.4 -53.55 9.45 -54.4 7.75 -54.9 5.65 -49.55 2.9 -43.85 0.95 -33.6 -2.85 -22.3 -4.45 M-43.8 14.2 L-43.25 14.9 Q-41.05 13.75 -37.8 14.25 -35.8 14.5 -33.45 15.45 -30.35 16.6 -26.55 18.85 -24.35 20.7 -22.8 22.5 -20.5 25.1 -19.9 27.3 L-19.7 28.35 M-22.8 22.5 L-24.8 25.35 -20.3 29.75 -20.2 29.8 Q-12.85 35.6 -3.55 34.65 2.85 33.95 10.0 30.05 5.65 30.15 2.95 28.85 L4.85 27.0 Q6.5 25.45 8.6 24.4 L10.0 30.05 M31.65 26.55 Q28.9 27.85 25.95 26.25 L23.5 21.25 Q15.2 20.75 8.6 24.4 M-53.55 9.45 Q-50.55 15.5 -43.45 17.75 L-40.9 18.35 -43.25 14.9 M-64.15 47.3 L-67.95 41.35 -68.85 40.0 M-67.95 41.35 Q-62.85 37.55 -53.05 41.4 M3.25 62.55 L6.0 59.1 Q8.4 56.2 11.4 54.05 M-36.35 53.1 Q-31.8 58.65 -30.9 65.25 M-33.45 15.45 L-40.9 18.35 M70.95 13.55 Q63.65 10.9 53.95 8.85 46.5 9.6 43.45 13.15 L44.85 14.35 Q50.95 16.6 47.45 19.5 44.2 22.15 33.5 25.3 L33.05 25.45 33.05 25.7 M70.95 13.55 Q82.45 17.3 88.25 22.2 69.05 22.4 63.25 31.35 64.5 32.3 65.6 33.4 L66.35 33.7 Q68.8 34.8 70.25 35.85 76.5 41.65 55.8 51.05 L49.3 53.85 Q48.95 53.95 48.7 54.15 48.6 52.3 47.7 51.05 46.1 48.9 42.3 48.35 L33.75 47.45 M49.15 3.35 Q56.5 5.8 60.15 8.7 L53.95 8.85 M23.5 21.25 L26.95 21.8 29.05 22.1 Q33.05 22.75 33.05 25.45 L32.7 25.8 31.65 26.55 M14.25 64.1 Q7.55 64.55 3.25 62.55" fill="none" stroke="#000000" stroke-linecap="round" stroke-linejoin="round" stroke-width="2.0"/>
  </g>
</svg>
