<?xml version="1.0" encoding="UTF-8" standalone="no"?>
<svg xmlns:xlink="http://www.w3.org/1999/xlink" height="59.8px" width="138.2px" xmlns="http://www.w3.org/2000/svg">
  <g transform="matrix(1.0, 0.0, 0.0, 1.0, 68.15, 9.45)">
    <path d="M-53.5 7.7 L-54.25 5.2 Q-48.95 2.5 -43.3 0.5 -33.1 -3.3 -21.9 -4.85 L-18.6 -8.45 Q1.1 -1.4 19.85 -7.3 L24.15 -2.85 Q39.55 -0.3 48.9 2.95 56.2 5.4 59.8 8.3 L53.05 8.55 Q51.0 8.75 49.3 9.25 45.3 10.35 43.3 12.75 L44.7 13.95 Q54.8 17.65 38.1 23.45 L34.8 24.5 33.4 24.9 32.95 25.05 32.95 25.3 M-53.5 7.7 L-52.95 8.9 -51.3 11.7 Q-48.2 15.8 -42.5 17.5 L-40.35 18.0 -42.7 14.55 -43.25 13.8 M-21.9 -4.85 Q-15.35 -1.65 -9.05 0.05 -4.45 1.3 -0.05 1.65 6.9 2.3 13.45 0.9 16.8 0.2 20.05 -1.05 L24.15 -2.85 M-34.8 15.8 L-40.35 18.0 M-19.6 29.7 L-19.95 29.4 -24.4 24.95 -22.4 22.1 Q-23.95 20.35 -26.15 18.5 -29.9 16.2 -32.95 15.05 L-34.8 15.8 M-33.75 14.75 Q-39.45 12.75 -42.7 14.55 M-33.75 14.75 L-32.95 15.05 M-19.6 29.7 Q-12.45 35.15 -3.6 34.3 0.4 33.85 4.75 32.2 7.4 31.15 10.15 29.65 5.8 29.7 3.05 28.45 L5.0 26.6 Q6.65 25.05 8.7 23.95 10.4 23.05 12.2 22.4 17.4 20.55 23.45 20.9 L29.0 21.7 Q32.95 22.35 32.95 25.05 L32.55 25.4 Q29.5 27.85 25.9 25.8 L23.45 20.9 M-22.4 22.1 Q-19.65 25.25 -19.35 27.9 M10.15 29.65 L8.7 23.95" fill="none" stroke="#000000" stroke-linecap="round" stroke-linejoin="round" stroke-width="2.0"/>
    <path d="M-43.25 13.8 Q-43.6 11.55 -35.25 6.85 -40.15 7.0 -43.3 0.5 M-9.05 0.05 Q-11.15 9.8 -12.9 16.3 L-14.2 20.55 Q-8.35 26.0 -0.75 22.25 L-0.6 18.45 -0.05 1.65 M-35.25 6.85 L-32.6 5.4 Q-26.6 2.2 -17.35 -1.95 M-34.8 15.8 L-33.75 14.75 M3.05 28.45 Q0.35 27.3 -0.85 24.85 L-0.75 22.25 M-32.6 5.4 Q-20.2 6.6 -12.9 16.3 M-19.1 29.0 Q-17.05 29.35 -14.2 20.55 M48.9 2.95 Q37.35 3.35 36.85 7.9 L40.7 10.65 43.3 12.75 M33.4 24.9 Q35.45 22.75 29.8 18.4 L27.95 15.5 26.3 13.25 Q12.0 9.15 -0.6 18.45 M32.95 25.3 L33.4 24.9 M26.3 13.25 Q21.35 6.95 13.45 0.9 M27.95 15.5 Q36.05 17.3 40.7 10.65 M20.05 -1.05 Q29.5 2.95 36.85 7.9" fill="none" stroke="#000000" stroke-linecap="round" stroke-linejoin="round" stroke-width="1.0"/>
    <path d="M49.3 9.25 L69.55 15.85 Q63.8 17.35 61.6 19.7 L66.85 20.95 Q63.5 25.35 58.75 28.5 57.0 29.6 53.35 30.05 54.9 28.9 54.6 26.6 47.6 28.45 45.85 32.65 L51.0 32.55 Q45.8 38.0 38.7 39.3 L38.75 39.25 34.55 35.45 Q31.0 35.8 27.2 36.85 L29.45 39.8 30.4 41.05 31.05 41.25 30.8 41.5 28.9 42.9 Q23.7 46.45 17.2 48.05 18.9 45.3 18.35 42.55 L11.65 42.15 13.65 49.4 Q2.35 50.9 -9.05 47.45 L-8.7 47.4 -9.3 42.4 Q-14.55 41.25 -19.2 40.9 L-21.2 46.1 -20.6 46.35 -21.35 46.4 -23.05 46.45 Q-35.05 46.4 -40.3 41.4 L-39.6 41.15 -38.4 36.05 Q-41.45 34.5 -44.5 33.4 L-48.35 36.5 Q-58.5 34.6 -61.15 26.8 L-57.35 23.35 Q-58.1 21.55 -59.3 20.05 L-64.2 20.55 -67.65 11.45 -53.5 7.7 M-34.8 15.8 Q-54.0 30.0 -50.6 31.55 -47.55 32.25 -44.5 33.4 M-24.65 20.3 Q-31.6 42.95 -33.45 38.8 L-39.6 41.15 M-21.35 46.4 L-21.2 46.1 -23.0 44.9 Q-24.75 43.45 -26.45 40.85 -29.8 40.15 -19.6 29.7 M-38.4 36.05 Q-35.9 37.3 -33.45 38.8 M-9.3 42.4 L-2.05 44.2 Q-3.9 46.6 -8.7 47.4 M-1.65 43.9 Q1.7 44.5 -3.6 34.3 M-26.45 40.85 Q-23.0 40.6 -19.2 40.9 M-64.2 20.55 L-63.05 16.6 -62.75 16.85 Q-64.4 14.4 -51.3 11.7 M-48.35 36.5 L-50.6 31.55 M-42.5 17.5 Q-55.25 33.45 -56.3 28.25 L-56.3 28.3 -61.15 26.8 M-57.35 23.35 Q-56.5 25.5 -56.3 28.05 L-56.3 28.15 -56.3 28.25 M-62.75 16.85 Q-60.75 18.3 -59.3 20.05 M38.1 23.45 Q43.05 34.15 45.0 32.6 M54.6 26.6 Q58.0 25.75 46.15 20.55 M60.8 19.55 Q59.05 21.25 45.75 13.8 M34.8 24.5 Q43.65 35.55 40.45 34.45 M13.65 49.4 Q9.0 48.95 5.25 45.25 L4.6 44.5 Q3.25 43.55 4.75 32.2 M5.25 45.25 Q9.05 42.5 11.65 42.15 M34.55 35.45 L40.35 35.3 38.75 39.25 M30.8 41.5 L30.4 41.05 22.2 38.55 Q24.75 37.55 27.2 36.85 M21.6 38.8 Q21.2 40.0 15.65 22.0 M19.0 42.55 Q21.1 43.75 12.2 22.4" fill="none" stroke="#000000" stroke-linecap="round" stroke-linejoin="round" stroke-opacity="0.6" stroke-width="1.0"/>
  </g>
</svg>
