<?xml version="1.0" encoding="UTF-8" standalone="no"?>
<svg xmlns:xlink="http://www.w3.org/1999/xlink" height="30.15px" width="52.85px" xmlns="http://www.w3.org/2000/svg">
  <g transform="matrix(1.0, 0.0, 0.0, 1.0, 26.65, 9.05)">
    <path d="M7.1 0.2 L6.65 1.2 Q6.2 1.65 5.55 1.65 L4.4 1.2 Q3.95 0.75 3.95 0.15 3.95 -0.4 4.4 -0.8 L5.55 -1.25 Q6.2 -1.25 6.65 -0.8 L7.1 0.2 M19.9 1.0 Q21.15 5.15 24.2 4.95 M17.5 1.9 Q21.1 8.6 24.55 7.1 M-24.0 5.75 Q-16.3 8.1 -13.1 2.6 M-24.7 8.15 Q-16.55 11.5 -9.7 3.3" fill="none" stroke="#000000" stroke-linecap="round" stroke-linejoin="round" stroke-width="1.0"/>
    <path d="M20.25 -8.05 L20.3 -7.8 22.45 -1.2 Q23.55 1.65 24.2 4.95 L24.55 7.1 Q25.15 11.1 25.2 15.8 -0.65 24.9 -25.1 14.85 -26.35 13.55 -24.7 8.15 L-24.0 5.75 -21.9 -1.1 -20.15 -6.7 Q-8.55 -0.95 13.05 -4.2 20.3 -6.1 20.3 -7.8 M-21.9 -1.1 Q-18.9 1.15 -13.1 2.6 L-9.7 3.3 -8.95 3.45 Q9.75 4.35 17.5 1.9 L19.9 1.0 Q21.7 0.05 22.45 -1.2" fill="none" stroke="#000000" stroke-linecap="round" stroke-linejoin="round" stroke-width="2.0"/>
  </g>
</svg>
