<?xml version="1.0" encoding="UTF-8" standalone="no"?>
<svg xmlns:xlink="http://www.w3.org/1999/xlink" height="83.95px" width="170.05px" xmlns="http://www.w3.org/2000/svg">
  <g transform="matrix(1.0, 0.0, 0.0, 1.0, 86.85, 10.15)">
    <path d="M21.45 -3.0 Q24.25 -3.6 28.0 -3.0 M6.6 1.2 Q6.6 2.0 6.05 2.55 5.5 3.15 4.75 3.15 4.05 3.15 3.5 2.55 2.95 2.0 2.95 1.2 2.95 0.4 3.5 -0.2 4.05 -0.75 4.75 -0.75 5.5 -0.75 6.05 -0.2 6.6 0.4 6.6 1.2 M21.5 9.45 Q44.2 22.55 53.45 31.15 L55.4 33.0 Q66.4 24.75 70.8 14.3 L67.9 12.35 Q51.4 1.8 31.55 -2.1 M67.9 12.35 Q72.3 9.9 71.65 5.8 M75.15 15.75 Q73.1 15.85 70.8 14.3 M55.4 33.0 Q58.45 36.2 61.4 37.3 64.4 38.45 64.9 38.25 M-1.15 14.75 Q-5.85 40.9 -9.9 51.35 5.9 46.05 23.85 53.05 L22.5 47.4 Q17.8 28.55 8.5 10.5 M6.05 6.0 L7.05 8.1 M10.75 5.1 Q15.2 5.65 19.25 8.1 M23.85 53.05 L25.65 62.65 26.65 62.9 M25.8 63.8 L25.65 62.65 M22.5 47.4 Q50.55 45.5 53.45 31.15 M7.8 4.85 Q12.3 0.85 7.9 -3.2 M-5.6 3.75 Q-8.8 5.9 -11.25 8.8 M-14.75 0.55 Q-19.05 1.95 -23.0 5.2 M-26.75 7.6 Q-48.75 19.9 -60.7 30.85 -50.0 28.35 -35.0 52.2 L-33.1 48.65 -27.35 37.3 Q-18.75 17.6 -14.0 12.45 M-71.65 41.65 Q-70.65 37.65 -67.6 38.0 L-63.4 33.4 Q-71.9 30.5 -76.4 18.55 L-78.55 20.4 M-24.15 -4.75 Q-48.1 -0.95 -66.85 11.45 -71.85 14.7 -76.4 18.55 M-68.5 7.85 Q-69.65 12.05 -66.85 11.45 M-63.4 33.4 L-60.7 30.85 M-11.9 65.25 Q-15.4 65.8 -11.15 57.3 L-10.6 54.65 Q-14.1 58.5 -33.1 48.65 M-10.6 54.65 L-9.9 51.35 M-41.1 61.85 Q-38.65 58.8 -35.0 52.2" fill="none" stroke="#000000" stroke-linecap="round" stroke-linejoin="round" stroke-width="1.0"/>
    <path d="M-22.65 -4.95 L-23.4 -5.45 -18.4 -8.55 Q7.6 2.2 18.2 -9.15 L23.8 -6.25 23.45 -5.75 Q32.35 -6.45 46.15 -2.65 61.0 0.15 71.65 5.8 75.8 7.2 80.55 8.05 85.2 8.9 75.15 15.75 80.0 16.35 82.05 18.3 83.9 31.15 64.9 38.25 69.55 39.5 67.85 42.25 L65.7 45.4 64.65 46.9 Q64.05 47.95 57.9 53.0 51.75 58.05 36.35 59.6 L40.7 65.05 40.25 65.7 Q33.6 74.1 13.35 64.25 L12.3 64.05 Q4.6 61.7 -3.35 62.95 -4.35 67.6 -2.25 70.7 L-11.8 72.8 Q-16.45 73.0 -22.8 68.85 -30.9 62.65 -41.1 61.85 -44.1 65.55 -45.25 63.95 -51.9 49.3 -60.2 44.25 L-67.45 50.3 Q-86.5 38.0 -85.85 23.85 L-81.2 22.8 -78.55 20.4 Q-83.2 16.35 -81.4 12.3 L-75.85 12.35 -68.5 7.85 Q-58.3 2.05 -45.65 -2.5 -25.15 -5.7 -24.15 -4.75 L-22.65 -4.95 Q-13.25 1.2 -5.6 3.75 2.75 6.5 8.95 5.05 18.25 0.95 23.45 -5.75 M26.65 62.9 Q29.1 60.35 36.35 59.6 M25.8 63.8 Q27.0 63.1 26.65 62.9 M40.25 65.7 Q33.95 67.25 25.8 63.8 M-71.65 41.65 Q-65.6 40.95 -60.2 44.25 M-11.9 65.25 Q-7.6 63.6 -3.35 62.95 M-2.25 70.7 Q-8.65 69.45 -11.9 65.25 M-67.45 50.3 Q-70.6 46.5 -71.65 41.65" fill="none" stroke="#000000" stroke-linecap="round" stroke-linejoin="round" stroke-width="2.0"/>
  </g>
</svg>
