<?xml version="1.0" encoding="UTF-8" standalone="no"?>
<svg xmlns:xlink="http://www.w3.org/1999/xlink" height="25.65px" width="64.75px" xmlns="http://www.w3.org/2000/svg">
  <g transform="matrix(1.0, 0.0, 0.0, 1.0, 31.8, 7.3)">
    <path d="M-21.1 0.3 Q-27.8 4.05 -30.8 10.55 -24.45 16.35 -19.0 15.65 L-21.3 12.8 Q-14.75 12.25 -10.45 14.5 L-12.7 16.55 -1.6 16.85 -4.35 14.7 6.35 14.35 4.2 16.25 Q10.65 17.85 16.8 15.0 L13.9 13.75 Q19.35 10.9 24.1 12.05 L21.8 14.85 Q30.3 14.95 31.95 10.3 28.65 5.05 22.25 -0.75 22.3 -3.0 20.95 -6.3 16.65 -2.95 8.3 -2.2 L7.1 -2.1 Q-9.7 -0.65 -19.7 -6.2 -22.75 -3.35 -22.0 -0.05" fill="none" stroke="#000000" stroke-linecap="round" stroke-linejoin="round" stroke-width="2.0"/>
    <path d="M22.25 -0.75 L22.2 -0.05 Q20.65 1.9 8.7 3.9 L7.65 4.4 Q-4.9 6.2 -21.1 0.3 L-22.0 -0.05 M-21.3 12.8 Q-23.05 13.65 -17.4 4.0 M-4.35 14.7 Q-5.85 14.25 -3.5 6.75 M-10.45 14.5 Q-9.0 16.1 -10.15 6.0 M13.2 13.65 L11.8 6.15 M6.35 14.35 Q8.15 15.9 5.15 7.15 M7.1 -2.1 Q9.65 -1.05 10.25 0.9 10.4 2.85 8.7 3.9 M24.1 12.05 Q25.1 10.5 19.5 3.65" fill="none" stroke="#000000" stroke-linecap="round" stroke-linejoin="round" stroke-width="1.0"/>
  </g>
</svg>
