<?xml version="1.0" encoding="UTF-8" standalone="no"?>
<svg xmlns:xlink="http://www.w3.org/1999/xlink" height="40.4px" width="90.4px" xmlns="http://www.w3.org/2000/svg">
  <g transform="matrix(1.0, 0.0, 0.0, 1.0, 44.95, 9.45)">
    <path d="M-11.25 -5.6 L-12.7 -4.75 -12.3 -5.95 -11.25 -5.6" fill="#c94fa6" fill-rule="evenodd" stroke="none"/>
    <path d="M17.65 -4.85 L13.55 -3.6 15.65 0.3 30.05 21.1 32.7 26.25 Q51.3 11.7 40.45 7.7 31.7 0.15 21.0 -6.0 L17.65 -4.85 M-11.25 -5.6 Q-6.5 -4.0 -3.1 -3.5 L-1.8 -3.35 Q-2.05 -2.55 4.0 -2.3 7.5 -2.2 13.55 -3.6 M30.05 21.1 Q28.0 24.8 21.35 23.55 14.5 30.05 7.45 24.55 -1.05 30.25 -8.95 24.0 -16.85 28.15 -20.0 24.05 L-24.2 29.95 Q-33.7 25.55 -38.05 20.6 -42.4 15.65 -43.75 11.45 -45.1 7.2 -38.2 3.6 -32.9 1.2 -29.4 -1.75 -25.9 -4.7 -18.75 -8.45 L-12.3 -5.95 -11.25 -5.6 M-20.0 24.05 L-4.8 1.2 -4.75 1.2 Q-2.7 -0.65 -3.1 -3.5 M-4.75 1.2 Q5.85 3.8 15.65 0.3" fill="none" stroke="#000000" stroke-linecap="round" stroke-linejoin="round" stroke-width="2.0"/>
    <path d="M21.9 -2.25 L17.65 -4.85 19.4 -0.7 M-11.25 -5.6 L-12.7 -4.75 -13.4 -2.5 M-12.3 -5.95 L-12.7 -4.75 -16.55 -2.5 M-8.95 24.0 L-7.2 20.25 M-1.9 2.75 L-3.2 5.65 M12.5 2.3 L14.95 4.1 M7.1 5.65 L6.15 3.1 5.3 6.3 M7.45 24.55 L7.4 20.85 M21.35 23.55 L19.6 19.95" fill="none" stroke="#000000" stroke-linecap="round" stroke-linejoin="round" stroke-width="1.0"/>
  </g>
</svg>
