<?xml version="1.0" encoding="UTF-8" standalone="no"?>
<svg xmlns:xlink="http://www.w3.org/1999/xlink" height="50.7px" width="95.7px" xmlns="http://www.w3.org/2000/svg">
  <g transform="matrix(1.0, 0.0, 0.0, 1.0, 47.9, 9.35)">
    <path d="M-11.25 -5.5 L-12.7 -4.65 -12.3 -5.85 -11.25 -5.5" fill="#c94fa6" fill-rule="evenodd" stroke="none"/>
    <path d="M21.9 -2.15 L17.65 -4.75 19.4 -0.6 M-8.95 24.1 L-7.2 20.35 M12.5 2.4 L14.95 4.2 M7.1 5.75 L6.15 3.2 5.3 6.4 M7.45 24.65 L7.4 20.95 M5.7 35.1 L6.05 31.7 M23.4 34.4 L21.6 30.85 M21.35 23.65 L19.6 20.05 M-12.3 -5.85 L-12.7 -4.65 -11.25 -5.5 M-12.7 -4.65 L-13.4 -2.4 M-12.7 -4.65 L-16.55 -2.4 M-1.9 2.85 L-3.2 5.75 M-10.55 35.0 L-9.95 32.25" fill="none" stroke="#000000" stroke-linecap="round" stroke-linejoin="round" stroke-width="1.0"/>
    <path d="M-11.25 -5.5 Q-6.5 -3.9 -3.1 -3.4 L-1.8 -3.25 Q-2.05 -2.45 4.0 -2.2 7.5 -2.1 13.55 -3.5 L17.65 -4.75 21.0 -5.9 Q31.7 0.25 40.45 7.8 53.15 18.15 40.45 35.75 L35.35 28.6 Q37.9 32.35 32.8 34.5 27.5 36.7 23.4 34.4 L22.8 33.8 Q21.75 36.95 15.85 37.8 9.95 38.65 5.85 34.85 L5.7 35.1 Q-2.95 41.9 -9.75 34.85 M21.35 23.65 Q28.0 24.9 30.05 21.2 L15.65 0.4 Q5.85 3.9 -4.75 1.3 L-4.8 1.3 -20.0 24.15 Q-16.85 28.25 -8.95 24.1 -1.05 30.35 7.45 24.65 14.5 30.15 21.35 23.65 M30.05 21.2 L35.35 28.6 M15.65 0.4 L13.55 -3.5 M-11.25 -5.5 L-12.3 -5.85 -18.75 -8.35 Q-25.9 -4.6 -29.4 -1.65 -32.9 1.3 -38.2 3.7 -45.1 7.3 -46.5 13.3 -47.95 19.3 -44.45 24.8 -40.95 30.3 -28.4 40.35 L-24.6 33.1 -20.0 24.15 M-24.6 33.1 Q-25.8 35.85 -20.4 37.0 -15.0 38.1 -10.85 34.45 M-4.75 1.3 Q-2.7 -0.55 -3.1 -3.4" fill="none" stroke="#000000" stroke-linecap="round" stroke-linejoin="round" stroke-width="2.0"/>
  </g>
</svg>
