<?xml version="1.0" encoding="UTF-8" standalone="no"?>
<svg xmlns:xlink="http://www.w3.org/1999/xlink" height="47.05px" width="88.75px" xmlns="http://www.w3.org/2000/svg">
  <g transform="matrix(1.0, 0.0, 0.0, 1.0, 42.75, 16.15)">
    <path d="M0.6 -0.55 Q0.6 0.25 0.0 0.8 -0.6 1.4 -1.45 1.4 -2.3 1.4 -2.9 0.8 -3.45 0.25 -3.45 -0.55 -3.45 -1.4 -2.9 -2.0 -2.3 -2.6 -1.45 -2.6 -0.6 -2.6 0.0 -2.0 0.6 -1.4 0.6 -0.55 M13.15 -7.75 Q13.4 -6.95 12.95 -6.2 12.5 -5.5 11.7 -5.3 10.9 -5.05 10.15 -5.5 9.5 -5.9 9.25 -6.65 9.05 -7.55 9.45 -8.25 9.9 -8.9 10.7 -9.15 L12.25 -8.95 Q12.9 -8.55 13.15 -7.75 M0.7 -6.85 Q0.7 -6.0 0.15 -5.45 -0.45 -4.85 -1.3 -4.85 -2.1 -4.85 -2.75 -5.45 -3.3 -6.0 -3.3 -6.85 -3.3 -7.7 -2.75 -8.3 -2.1 -8.85 -1.3 -8.85 -0.45 -8.85 0.15 -8.3 0.7 -7.7 0.7 -6.85 M14.65 -1.6 Q14.9 -0.85 14.45 -0.15 14.0 0.6 13.2 0.8 L11.65 0.6 Q11.0 0.15 10.75 -0.6 10.55 -1.4 10.9 -2.2 11.35 -2.85 12.2 -3.1 L13.7 -2.9 Q14.45 -2.45 14.65 -1.6 M-34.1 18.55 L-31.8 16.05 -28.85 13.1 -28.6 12.8 -18.25 1.7 M35.5 22.3 L32.25 18.35 31.3 17.35 29.7 15.65 29.0 14.95 18.0 3.9 M18.6 27.05 L18.6 27.0 10.85 7.9 M-25.45 25.15 L-25.4 24.55 -25.25 24.65 -25.2 24.7 Q-24.25 25.0 -22.15 22.2 L-20.9 20.45 -20.3 19.45 -19.45 18.05 Q-16.7 13.2 -12.5 3.9 M23.0 26.8 L22.85 26.45 22.85 26.4 12.4 7.5 M3.85 28.5 L1.15 6.8 M-18.55 26.9 L-19.5 25.7 Q-19.7 25.6 -18.6 23.0 L-17.95 21.5 -17.35 20.05 -16.7 18.45 -11.1 4.35 M-3.3 28.2 L-2.5 28.05 -0.6 6.65" fill="none" stroke="#000000" stroke-linecap="round" stroke-linejoin="round" stroke-width="1.0"/>
    <path d="M-21.45 -1.85 L-21.7 -1.6 Q8.15 11.65 22.85 -2.2 L22.85 -2.25 22.65 -2.8 17.75 -14.95 Q4.0 -7.0 -16.2 -15.15 L-22.05 -1.8 -21.7 -1.6 -41.75 13.2 Q-35.6 15.5 -34.1 18.55 L-35.9 20.45 Q-30.9 21.7 -25.4 24.55 M22.65 -2.8 Q32.8 6.35 36.45 8.75 L37.6 9.5 Q40.85 11.65 45.0 14.95 L39.15 19.75 41.25 21.05 Q38.3 24.25 35.15 24.0 L35.15 22.7 Q28.95 23.7 22.85 26.45 L25.4 27.25 Q21.9 29.7 17.45 28.35 L18.6 27.05 18.65 27.0 18.6 27.0 Q11.1 26.05 4.0 28.2 L4.95 28.85 Q0.45 31.0 -4.75 28.8 L-3.7 28.0 Q-10.35 25.7 -18.25 26.35 L-17.95 28.1 Q-22.85 28.45 -26.1 25.8 L-25.45 25.15 -25.15 24.75 -25.2 24.7" fill="none" stroke="#000000" stroke-linecap="round" stroke-linejoin="round" stroke-width="2.0"/>
  </g>
</svg>
