<?xml version="1.0" encoding="UTF-8" standalone="no"?>
<svg xmlns:xlink="http://www.w3.org/1999/xlink" height="57.6px" width="97.75px" xmlns="http://www.w3.org/2000/svg">
  <g transform="matrix(1.0, 0.0, 0.0, 1.0, 46.95, 16.1)">
    <path d="M13.1 -7.6 Q13.3 -6.8 12.9 -6.1 12.4 -5.4 11.6 -5.2 L10.1 -5.4 Q9.4 -5.8 9.15 -6.6 8.95 -7.45 9.35 -8.15 L10.65 -9.05 12.15 -8.9 Q12.85 -8.45 13.1 -7.6 M0.65 -6.75 Q0.65 -5.9 0.05 -5.35 -0.6 -4.75 -1.45 -4.75 -2.2 -4.75 -2.85 -5.35 -3.4 -5.9 -3.4 -6.75 -3.4 -7.55 -2.85 -8.2 -2.2 -8.75 -1.45 -8.75 -0.6 -8.75 0.05 -8.2 0.65 -7.55 0.65 -6.75 M14.6 -1.55 Q14.85 -0.75 14.35 -0.05 13.95 0.7 13.15 0.9 L11.6 0.7 Q10.95 0.3 10.75 -0.5 10.5 -1.3 10.85 -2.05 11.3 -2.7 12.1 -2.95 L13.65 -2.75 Q14.35 -2.35 14.6 -1.55 M-32.7 32.35 L-32.55 32.45 M-32.35 32.6 Q-31.2 32.9 -28.6 28.75 L-27.1 26.0 Q-23.3 19.0 -17.25 4.35 M22.4 36.15 L22.4 36.05 12.7 6.8 M43.2 21.45 L43.55 20.9 M43.5 28.9 L39.45 22.85 38.3 21.25 Q32.5 13.65 22.15 2.25 M27.9 35.7 L27.7 35.15 27.65 35.1 14.65 6.2 M3.95 38.4 L1.05 8.0 M0.5 -0.45 Q0.5 0.4 -0.1 0.9 -0.7 1.5 -1.55 1.5 -2.35 1.5 -3.0 0.9 -3.55 0.4 -3.55 -0.45 -3.55 -1.3 -3.0 -1.9 -2.35 -2.5 -1.55 -2.5 -0.7 -2.5 -0.1 -1.9 0.5 -1.3 0.5 -0.45 M-24.1 35.85 L-25.3 34.05 Q-25.55 33.9 -24.15 29.9 L-23.35 27.55 Q-20.8 20.25 -14.85 4.7 M-33.05 33.05 L-32.7 32.35 M-5.0 37.9 L-3.95 37.65 -1.9 7.45 M-41.15 19.05 L-40.65 19.3" fill="none" stroke="#000000" stroke-linecap="round" stroke-linejoin="round" stroke-width="1.0"/>
    <path d="M-21.95 -2.3 L-22.2 -1.75 Q7.95 11.9 22.85 -2.1 L22.85 -2.15 17.65 -14.9 Q3.9 -6.85 -16.35 -15.1 L-21.95 -2.3 Q-32.25 8.7 -40.65 19.3 L-45.8 26.0 Q-39.55 27.9 -32.7 32.35 M-32.55 32.45 L-32.45 32.55 -32.35 32.6 -33.55 34.25 Q-29.45 38.3 -23.35 37.75 L-23.75 35.0 Q-13.9 34.1 -5.5 37.55 L-6.8 38.8 Q-0.35 42.1 5.25 38.9 L4.1 37.9 Q13.05 34.7 22.4 36.05 L22.45 36.05 22.4 36.15 20.9 38.15 Q26.55 40.2 30.9 36.45 L27.75 35.15 27.65 35.1 M43.2 21.45 L46.6 25.85 49.8 29.1 Q47.0 31.8 43.2 31.45 L43.2 29.45 Q35.35 30.95 27.75 35.15 L27.7 35.15 M22.85 -2.15 Q36.25 12.8 43.2 21.45 M-45.8 26.0 L-45.95 26.2" fill="none" stroke="#000000" stroke-linecap="round" stroke-linejoin="round" stroke-width="2.0"/>
  </g>
</svg>
