<?xml version="1.0" encoding="UTF-8" standalone="no"?>
<svg xmlns:xlink="http://www.w3.org/1999/xlink" height="86.6px" width="139.25px" xmlns="http://www.w3.org/2000/svg">
  <g transform="matrix(1.0, 0.0, 0.0, 1.0, 66.95, 16.1)">
    <path d="M22.7 -2.0 Q22.6 -2.15 22.65 -2.35 L22.8 -2.1 22.8 -2.05 22.7 -2.0" fill="#c94fa6" fill-rule="evenodd" stroke="none"/>
    <path d="M13.05 -7.6 Q13.3 -6.8 12.85 -6.1 12.4 -5.35 11.6 -5.2 L10.05 -5.35 Q9.35 -5.8 9.15 -6.6 8.9 -7.4 9.35 -8.1 9.8 -8.8 10.6 -9.05 L12.1 -8.85 Q12.8 -8.45 13.05 -7.6 M0.6 -6.7 Q0.6 -5.9 0.0 -5.3 -0.6 -4.7 -1.45 -4.7 -2.3 -4.7 -2.9 -5.3 -3.45 -5.9 -3.45 -6.7 -3.45 -7.55 -2.9 -8.15 -2.3 -8.7 -1.45 -8.7 -0.6 -8.7 0.0 -8.15 0.6 -7.55 0.6 -6.7 M14.6 -1.5 Q14.8 -0.7 14.35 0.0 L13.1 0.95 11.55 0.7 Q10.9 0.3 10.7 -0.5 10.45 -1.3 10.8 -2.0 L12.05 -2.95 13.6 -2.75 Q14.35 -2.3 14.6 -1.5 M59.75 54.55 L59.45 54.9 M59.75 54.55 Q62.95 53.65 60.05 51.6 L53.1 43.0 51.3 40.8 Q39.25 38.3 30.15 47.35 L30.55 48.25 Q37.8 66.0 38.5 62.15 M53.1 43.0 Q57.2 42.65 59.1 39.4 M0.55 8.3 L4.35 49.7 Q12.75 43.5 26.45 48.2 L13.25 6.95 M30.15 47.35 Q24.65 33.8 15.65 8.45 M31.25 63.4 L26.85 49.5 26.45 48.2 M-1.85 7.75 Q-2.3 35.1 -3.5 49.55 L-3.75 52.3 Q0.35 54.35 4.5 52.6 L4.35 49.7 M5.95 66.65 L4.5 52.6 M51.3 40.8 L22.1 4.7 M26.85 49.5 Q29.3 50.7 30.55 48.25 M0.45 -0.45 Q0.45 0.4 -0.15 0.95 -0.75 1.55 -1.6 1.55 -2.45 1.55 -3.05 0.95 -3.6 0.4 -3.6 -0.45 -3.6 -1.3 -3.05 -1.9 -2.45 -2.45 -1.6 -2.45 -0.75 -2.45 -0.15 -1.9 0.45 -1.3 0.45 -0.45 M-17.55 4.7 Q-29.35 34.85 -34.05 44.75 L-35.25 47.05 Q-32.9 50.4 -30.5 49.15 L-29.9 47.5 -25.1 34.5 Q-22.8 28.25 -15.5 4.6 M-56.65 33.65 L-54.1 32.75 Q-49.65 31.45 -34.05 44.75 M-43.95 58.6 Q-42.35 59.25 -38.7 53.4 L-36.6 49.65 -35.25 47.05 M-31.55 61.95 Q-34.4 61.4 -33.2 57.5 L-31.45 51.8 -30.5 49.15 M-7.1 65.55 Q-5.05 65.3 -3.75 52.3 M-31.1 62.2 Q-31.35 62.1 -31.55 61.95 M-29.9 47.5 Q-17.55 41.65 -3.5 49.55" fill="none" stroke="#000000" stroke-linecap="round" stroke-linejoin="round" stroke-width="1.0"/>
    <path d="M22.7 -2.0 L22.8 -2.05 22.8 -2.1 22.65 -2.35 Q22.6 -2.15 22.7 -2.0 51.8 32.55 56.75 37.2 L59.1 39.4 Q62.95 42.8 66.9 45.75 69.95 48.15 71.3 47.8 65.05 57.65 59.75 57.15 L59.75 54.55 59.75 54.35 Q49.05 56.45 38.6 62.2 L38.5 62.15 M-54.1 32.75 Q-46.3 26.5 -22.2 -1.65 L-22.3 -1.7 -16.45 -15.1 Q3.85 -6.85 17.65 -14.9 L22.65 -2.35 M31.25 63.4 L31.35 63.4 29.25 66.3 Q36.95 69.15 42.95 64.0 L38.6 62.2 M-7.1 65.55 L-8.8 67.15 Q0.1 71.75 7.8 67.35 L6.1 65.95 Q18.4 61.6 31.25 63.4 M-54.1 32.75 L-56.8 34.45 Q-66.45 41.3 -65.95 43.85 -63.5 40.8 -53.75 49.7 L-43.95 58.6 -43.85 58.7 -45.5 61.0 Q-39.85 66.5 -31.45 65.75 L-32.05 62.0 -31.55 61.95 Q-18.3 60.9 -7.1 65.55 M-22.2 -1.65 Q7.9 11.9 22.7 -2.0" fill="none" stroke="#000000" stroke-linecap="round" stroke-linejoin="round" stroke-width="2.0"/>
  </g>
</svg>
