<?xml version="1.0" encoding="UTF-8" standalone="no"?>
<svg xmlns:xlink="http://www.w3.org/1999/xlink" height="99.8px" width="215.55px" xmlns="http://www.w3.org/2000/svg">
  <g transform="matrix(1.0, 0.0, 0.0, 1.0, 107.75, 49.9)">
    <path d="M84.4 -3.3 Q85.9 -1.65 87.6 -0.35 95.55 5.6 106.8 1.9 99.2 -2.05 93.1 -11.2 87.05 -20.25 79.85 -23.05 L77.75 -22.65 M79.85 -23.05 Q89.2 -25.2 90.15 -35.8 83.5 -32.8 75.95 -33.5 68.4 -34.2 63.2 -31.65 L59.15 -28.85 M40.25 -32.95 Q41.95 -36.0 42.5 -41.75 47.35 -39.25 47.05 -35.55 47.6 -36.9 52.3 -37.15 63.65 -37.7 68.85 -44.0 68.65 -35.8 63.2 -31.65 M87.6 -0.35 Q98.1 14.45 87.7 31.05 87.75 23.45 84.8 14.1 88.9 29.85 79.95 48.0 80.35 33.55 70.0 13.0 77.3 28.45 72.45 37.9 65.8 22.55 54.7 11.45 45.1 1.85 40.05 -5.65 M70.0 13.0 L69.5 11.95 66.4 6.05 M84.8 14.1 Q83.1 8.55 80.25 2.3 M-50.25 -29.1 Q-52.9 -30.55 -55.05 -31.95 -61.2 -34.55 -70.15 -33.85 -79.1 -33.15 -87.0 -36.2 -85.85 -25.4 -74.8 -23.25 L-72.3 -22.8 M-25.45 -32.45 Q-26.65 -34.45 -28.35 -35.2 L-28.65 -35.3 Q-33.2 -37.15 -42.15 -37.55 -55.6 -38.1 -61.75 -44.5 -61.55 -36.2 -55.05 -31.95 M-21.05 -30.75 Q-21.85 -39.1 -30.8 -48.9 -28.4 -41.05 -28.35 -35.2 M-74.8 -23.25 Q-83.3 -20.4 -90.5 -11.2 -97.75 -1.9 -106.75 2.1 -93.4 5.85 -83.95 -0.2 -82.0 -1.5 -80.15 -3.15 M-58.85 6.3 L-62.55 12.3 -63.1 13.4 Q-71.8 29.05 -66.05 38.65 -58.15 23.1 -43.3 11.6 -36.25 6.15 -32.6 1.05 M-75.25 2.5 Q-78.65 8.85 -80.65 14.5 -85.5 30.5 -74.9 48.9 -75.4 34.25 -63.1 13.4 M-83.95 -0.2 Q-96.4 14.85 -84.1 31.7 -84.15 24.0 -80.65 14.5" fill="none" stroke="#101010" stroke-linecap="round" stroke-linejoin="round" stroke-width="2.0"/>
  </g>
</svg>
