<?xml version="1.0" encoding="UTF-8" standalone="no"?>
<svg xmlns:xlink="http://www.w3.org/1999/xlink" height="48.75px" width="94.95px" xmlns="http://www.w3.org/2000/svg">
  <g transform="matrix(1.0, 0.0, 0.0, 1.0, 47.45, 10.8)">
    <path d="M21.95 0.4 Q23.25 -0.3 23.55 -1.15 L23.35 -1.75 Q22.15 -5.5 20.7 -8.0 L20.0 -9.05 Q19.65 -8.5 18.5 -8.0 15.45 -6.75 6.7 -6.05 -8.0 -5.0 -15.4 -8.0 L-18.75 -9.8 -20.0 -8.0 Q-21.9 -5.15 -22.4 -3.85 L-22.45 -2.7 Q-21.85 -0.8 -17.3 1.0 L-16.2 1.35 -12.6 2.3 6.5 3.0 Q18.25 2.4 21.95 0.4 24.45 4.25 25.05 7.25 25.65 10.25 24.4 12.4 22.9 16.6 20.15 19.25 16.45 22.8 10.35 23.5 L4.7 23.6 Q-3.75 23.1 -9.85 16.35 L-11.4 14.5 Q-14.75 8.9 -12.6 2.3 M24.35 -1.2 L23.4 -1.75 Q26.1 -0.1 26.2 3.25 28.25 4.1 29.0 5.85 29.2 8.4 27.35 9.05 L27.75 9.45 Q29.15 9.95 29.4 11.05 30.05 12.45 29.1 13.45 L26.95 14.6 Q28.65 15.9 28.5 17.2 27.75 21.0 23.8 19.75 26.4 23.3 23.65 25.05 L21.85 25.65 Q19.6 26.1 17.75 24.3 18.6 27.3 15.5 28.35 11.4 29.75 10.15 26.1 9.2 29.2 5.6 29.4 L5.5 29.4 Q1.8 28.9 1.0 25.75 -1.0 28.1 -4.15 27.7 -7.65 26.5 -7.15 22.6 L-10.2 22.45 -10.8 22.45 Q-13.85 21.15 -13.05 18.3 -15.25 19.6 -16.5 17.6 -18.1 14.75 -16.2 11.5 -18.3 11.55 -18.8 8.95 -19.15 6.9 -16.25 4.75 -18.5 3.45 -17.3 1.0 M23.4 -1.75 L23.35 -1.75 M43.9 17.3 Q46.2 16.25 46.5 12.4 L24.35 -1.2 M43.9 17.3 L44.4 17.7 44.45 17.95 Q44.75 23.8 37.75 24.25 36.25 33.4 23.85 31.95 L23.35 31.95 Q15.7 39.8 5.95 34.15 -4.25 39.65 -11.65 34.4 -19.4 38.4 -30.5 31.75 L-30.55 31.7 Q-42.65 31.0 -42.9 23.35 L-43.45 23.0 M-42.9 23.35 L-42.45 22.45 Q-47.4 20.8 -46.25 14.85 L-22.4 -3.85" fill="none" stroke="#000000" stroke-linecap="round" stroke-linejoin="round" stroke-width="2.0"/>
    <path d="M29.1 13.45 L37.35 23.75 M24.35 -1.2 L43.9 17.3 M29.1 13.45 L28.9 13.15 M5.95 34.15 L5.5 29.4 M23.85 31.95 L21.85 25.65 M-30.5 31.75 L-19.15 3.0 M-11.65 34.4 L-10.2 22.45 M-22.45 -2.7 Q-40.65 21.95 -42.45 22.45" fill="none" stroke="#000000" stroke-linecap="round" stroke-linejoin="round" stroke-width="1.0"/>
  </g>
</svg>
