<?xml version="1.0" encoding="UTF-8" standalone="no"?>
<svg xmlns:xlink="http://www.w3.org/1999/xlink" height="44.9px" width="94.95px" xmlns="http://www.w3.org/2000/svg">
  <g transform="matrix(1.0, 0.0, 0.0, 1.0, 46.45, 6.8)">
    <path d="M44.9 17.4 Q47.2 16.4 47.5 12.55 L40.75 8.4 Q29.9 3.05 23.1 -3.35 L22.45 -4.0 Q21.6 -4.75 21.0 -5.4 5.0 -0.55 -20.0 -5.8 L-21.75 -3.35 -45.25 15.0 Q-46.35 20.95 -41.45 22.6 L-41.85 23.5 Q-41.65 31.15 -29.55 31.85 L-29.5 31.9 Q-18.4 38.5 -10.65 34.55 -3.25 39.8 6.95 34.3 16.7 39.9 24.35 32.1 L24.8 32.1 Q37.25 33.55 38.75 24.4 45.75 23.95 45.4 18.1 L45.35 17.85 44.9 17.4 M-42.45 23.15 L-41.85 23.5" fill="none" stroke="#000000" stroke-linecap="round" stroke-linejoin="round" stroke-width="2.0"/>
    <path d="M-41.45 22.6 Q-40.65 22.4 -36.7 17.45 L-35.45 15.95 -23.75 0.4 -20.7 -3.75 M44.9 17.4 L27.7 1.2 M38.3 23.85 L30.1 13.55 Q24.15 6.75 20.45 0.4 L19.1 -1.9 M24.8 32.1 L22.85 25.85 22.15 22.85 21.85 21.8 Q19.3 12.9 13.2 0.4 L12.45 -1.1 M6.95 34.3 L5.55 25.6 5.3 24.05 Q3.6 11.85 3.45 0.4 L3.4 -0.8 M-29.5 31.9 L-16.6 1.05 -16.55 1.0 -15.05 -2.5 M-10.65 34.55 L-6.1 -1.1" fill="none" stroke="#000000" stroke-linecap="round" stroke-linejoin="round" stroke-width="1.0"/>
  </g>
</svg>
