<?xml version="1.0" encoding="UTF-8" standalone="no"?>
<svg xmlns:xlink="http://www.w3.org/1999/xlink" height="33.45px" width="73.45px" xmlns="http://www.w3.org/2000/svg">
  <g transform="matrix(1.0, 0.0, 0.0, 1.0, 35.75, 7.1)">
    <path d="M34.7 13.15 Q36.4 12.5 36.7 10.1 L31.5 7.55 Q26.4 4.4 21.1 -5.75 L19.65 -5.05 Q4.7 -0.1 -20.2 -6.1 -24.15 5.05 -30.65 9.15 L-34.6 11.65 Q-35.45 15.3 -31.65 16.35 L-32.0 16.9 Q-31.85 21.65 -22.5 22.1 L-22.45 22.1 Q-13.95 26.25 -8.0 23.75 -2.3 27.0 5.55 23.6 13.0 27.1 18.95 22.25 L19.25 22.25 Q28.8 23.1 29.95 17.4 35.35 17.2 35.1 13.55 L35.05 13.35 34.7 13.15 M-32.4 16.65 L-32.0 16.9" fill="none" stroke="#000000" stroke-linecap="round" stroke-linejoin="round" stroke-width="2.0"/>
    <path d="M-31.65 16.35 Q-31.05 16.2 -28.05 13.15 L-27.05 12.2 Q-24.1 10.0 -17.95 0.05 M34.7 13.15 L29.8 9.4 Q23.1 4.1 19.7 -1.15 M29.65 17.15 L23.3 10.75 Q21.35 8.9 15.6 -0.1 M19.25 22.25 L17.8 18.35 17.2 16.5 16.95 15.8 Q15.65 12.0 10.6 0.75 M5.55 23.6 L4.45 18.2 4.25 17.25 Q3.4 12.05 2.65 2.2 M-22.45 22.1 L-19.75 16.75 -19.3 16.0 Q-15.1 9.4 -13.05 -0.8 M-8.0 23.75 L-7.0 17.8 -7.0 17.55 -5.2 0.25" fill="none" stroke="#000000" stroke-linecap="round" stroke-linejoin="round" stroke-width="1.0"/>
  </g>
</svg>
