<?xml version="1.0" encoding="UTF-8" standalone="no"?>
<svg xmlns:xlink="http://www.w3.org/1999/xlink" height="26.25px" width="72.95px" xmlns="http://www.w3.org/2000/svg">
  <g transform="matrix(1.0, 0.0, 0.0, 1.0, 35.0, 8.0)">
    <path d="M28.4 9.65 L23.85 13.0 Q33.75 10.9 36.05 6.85 L36.95 4.7 22.05 -6.35 Q15.4 -1.8 2.85 -2.85 -6.35 -3.65 -20.0 -7.0 L-21.8 -4.5 Q-28.05 -2.95 -34.0 1.45 L-33.55 4.1 Q-32.1 9.6 -24.75 10.9 L-27.75 7.05 Q-24.1 6.55 -20.85 6.95 -16.45 7.45 -12.7 9.6 -10.5 10.85 -8.55 12.6 L-14.0 15.25 Q0.5 18.9 13.3 15.85 L7.55 13.15 Q9.45 11.9 11.9 11.05 16.25 9.55 22.3 9.45 L28.4 9.65" fill="none" stroke="#000000" stroke-linecap="round" stroke-linejoin="round" stroke-width="2.0"/>
    <path d="M-8.55 12.6 Q-6.75 11.4 -7.0 2.75 M28.4 9.65 Q26.4 3.25 17.8 0.7 M23.85 13.0 L22.3 9.45 M13.3 15.85 L11.9 11.05 M7.55 13.15 L8.3 3.2 M-14.0 15.25 L-12.7 9.6 M-24.75 10.9 L-20.85 6.95 M-27.4 6.4 Q-26.75 3.3 -18.7 -1.0" fill="none" stroke="#000000" stroke-linecap="round" stroke-linejoin="round" stroke-width="1.0"/>
  </g>
</svg>
