<?xml version="1.0" encoding="UTF-8" standalone="no"?>
<svg xmlns:xlink="http://www.w3.org/1999/xlink" height="42.85px" width="87.6px" xmlns="http://www.w3.org/2000/svg">
  <g transform="matrix(1.0, 0.0, 0.0, 1.0, 42.65, 7.8)">
    <path d="M23.4 -4.15 L23.4 -3.95 22.8 -4.6 23.4 -4.15" fill="#c94fa6" fill-rule="evenodd" stroke="none"/>
    <path d="M23.4 -4.15 L22.8 -4.6 23.4 -3.95 43.95 17.0 Q43.6 18.65 42.95 19.9 40.3 25.15 29.3 28.05 L28.2 28.3 33.65 23.75 29.3 23.55 26.35 23.55 Q18.95 23.65 13.85 25.65 10.85 26.8 8.55 28.55 L15.45 32.2 Q0.0 36.35 -17.5 31.3 L-10.95 27.8 Q-13.25 25.35 -15.95 23.7 -20.25 20.9 -25.25 20.1 L-25.75 20.05 Q-29.7 19.55 -34.1 20.15 L-30.5 25.5 Q-39.35 23.7 -41.1 16.15 -41.55 14.5 -41.65 12.6 L-37.4 9.4 Q-32.3 5.95 -23.25 -2.9 L-21.65 -4.45 -19.95 -6.8 Q-6.7 -3.55 2.15 -2.75 14.3 -1.75 20.75 -6.15 L22.7 -4.7 22.8 -4.6" fill="none" stroke="#000000" stroke-linecap="round" stroke-linejoin="round" stroke-width="2.0"/>
    <path d="M28.2 28.3 L26.35 23.55 M13.85 25.65 L15.45 32.2 M-17.5 31.3 L-15.95 23.7 M-25.75 20.05 L-30.5 25.5 M33.65 23.75 Q32.5 19.45 29.3 16.35 26.1 13.35 18.3 2.3 M8.55 28.55 Q5.4 29.25 6.45 4.55 M-33.6 19.3 Q-36.85 21.65 -31.15 14.45 -25.55 7.25 -18.45 0.4 M-10.95 27.8 Q-8.75 26.15 -9.45 2.05" fill="none" stroke="#000000" stroke-linecap="round" stroke-linejoin="round" stroke-width="1.0"/>
  </g>
</svg>
