<?xml version="1.0" encoding="UTF-8" standalone="no"?>
<svg xmlns:xlink="http://www.w3.org/1999/xlink" height="41.5px" width="140.45px" xmlns="http://www.w3.org/2000/svg">
  <g transform="matrix(1.0, 0.0, 0.0, 1.0, 26.1, 73.3)">
    <path d="M80.25 -39.95 Q78.3 -40.5 76.65 -41.2 61.65 -48.05 73.15 -72.3 L76.85 -68.5 Q82.05 -62.75 84.15 -57.45 86.95 -50.45 83.5 -43.9 95.05 -55.05 113.35 -48.5 109.4 -36.85 98.95 -33.55 85.4 -31.15 80.25 -39.95 82.3 -41.6 83.5 -43.9 M10.5 -39.7 Q33.1 -45.15 22.15 -72.05 18.4 -69.15 15.55 -66.3 10.75 -61.6 8.3 -57.2 4.35 -50.2 7.35 -43.65 L7.65 -43.05 Q8.65 -41.15 10.5 -39.7 7.85 -36.25 4.0 -34.5 -2.0 -31.85 -10.95 -33.3 -22.1 -36.6 -25.1 -48.25 -4.1 -54.8 7.35 -43.65" fill="none" stroke="#101010" stroke-linecap="round" stroke-linejoin="round" stroke-width="2.0"/>
  </g>
</svg>
