<?xml version="1.0" encoding="UTF-8" standalone="no"?>
<svg xmlns:xlink="http://www.w3.org/1999/xlink" height="40.15px" width="93.9px" xmlns="http://www.w3.org/2000/svg">
  <g transform="matrix(1.0, 0.0, 0.0, 1.0, 47.1, 6.85)">
    <path d="M28.25 10.9 L23.65 14.25 Q33.65 12.15 35.95 8.1 L36.85 5.9 21.85 -5.15 Q11.25 -2.0 0.8 -2.75 -9.65 -3.55 -20.4 -5.85 L-22.2 -3.35 Q-28.45 -1.8 -34.45 2.7 L-34.0 5.3 Q-32.55 10.85 -25.2 12.2 L-28.2 8.3 Q-24.5 7.8 -21.25 8.2 -16.8 8.7 -13.05 10.85 -10.85 12.1 -8.9 13.85 L-14.35 16.5 Q0.2 20.2 13.05 17.1 L7.3 14.45 Q9.2 13.15 11.7 12.3 16.0 10.8 22.1 10.7 L28.25 10.9" fill="none" stroke="#000000" stroke-linecap="round" stroke-linejoin="round" stroke-width="2.0"/>
    <path d="M23.65 14.25 L31.3 22.75 Q32.0 22.55 33.8 23.85 33.5 21.2 34.15 19.4 L39.2 20.1 Q38.55 17.1 39.1 15.25 41.2 15.45 46.2 13.3 39.35 11.25 35.95 8.1 M-14.35 16.5 L-14.35 29.15 Q-13.05 29.5 -11.15 31.5 -9.45 29.6 -7.1 27.85 -4.8 29.45 -2.55 31.5 L2.05 27.55 6.65 31.05 Q8.55 28.35 10.2 26.9 L14.95 30.4 16.5 27.7 13.05 17.15 13.05 17.1 M16.5 27.7 L17.45 30.1 Q19.05 30.0 19.95 26.4 21.95 28.05 24.65 29.1 25.15 27.05 26.15 24.9 L32.45 26.5 31.3 22.75 M-34.0 5.3 Q-37.7 8.6 -46.5 11.3 -44.25 13.85 -40.55 14.15 -40.5 16.05 -41.45 18.3 -38.3 18.05 -36.3 18.3 -36.1 21.2 -34.95 22.8 L-25.2 12.2 M-34.95 22.8 L-36.65 24.85 Q-34.45 25.7 -29.75 23.75 -28.2 26.85 -26.1 29.1 -23.15 28.6 -19.9 27.7 -18.1 31.6 -14.35 32.7 L-14.35 29.15" fill="none" stroke="#000000" stroke-linecap="round" stroke-linejoin="round" stroke-opacity="0.6" stroke-width="1.2000000000000002"/>
    <path d="M-8.9 13.85 Q-7.1 12.65 -7.3 3.95 M28.25 10.9 Q26.25 4.45 17.6 1.9 M23.65 14.25 L22.1 10.7 M-14.35 16.5 L-13.05 10.85 M7.3 14.45 L8.05 4.4 M13.05 17.1 L11.7 12.3 M-25.2 12.2 L-21.25 8.2 M-27.8 7.6 Q-27.2 4.5 -19.1 0.2" fill="none" stroke="#000000" stroke-linecap="round" stroke-linejoin="round" stroke-width="1.0"/>
  </g>
</svg>
