<?xml version="1.0" encoding="UTF-8" standalone="no"?>
<svg xmlns:xlink="http://www.w3.org/1999/xlink" height="63.15px" width="115.3px" xmlns="http://www.w3.org/2000/svg">
  <g transform="matrix(1.0, 0.0, 0.0, 1.0, 58.0, 6.9)">
    <path d="M24.05 -3.2 L24.05 -3.0 23.45 -3.65 24.05 -3.2" fill="#c94fa6" fill-rule="evenodd" stroke="none"/>
    <path d="M24.05 -3.2 L23.45 -3.65 24.05 -3.0 45.15 18.5 44.1 21.5 Q41.4 26.85 30.1 29.8 L28.95 30.05 34.55 25.4 30.1 25.2 27.05 25.2 Q19.5 25.25 14.2 27.35 11.15 28.55 8.8 30.35 L15.9 34.05 Q0.05 38.3 -17.9 33.15 L-11.15 29.55 Q-13.5 27.05 -16.25 25.35 -20.7 22.5 -25.85 21.7 L-26.35 21.65 Q-30.4 21.1 -34.9 21.75 L-31.2 27.2 Q-40.3 25.35 -42.1 17.65 L-42.6 14.0 -38.35 10.75 Q-33.1 7.15 -23.8 -1.9 L-22.1 -3.55 -20.4 -5.9 Q-6.85 -2.55 2.25 -1.75 14.7 -0.75 21.3 -5.25 L23.35 -3.75 23.45 -3.65" fill="none" stroke="#000000" stroke-linecap="round" stroke-linejoin="round" stroke-width="2.0"/>
    <path d="M44.1 21.5 Q48.3 25.85 56.7 28.75 50.55 31.75 47.95 31.4 47.35 34.05 48.1 38.25 44.4 37.15 41.85 37.25 41.05 39.7 41.4 43.4 39.2 41.6 38.3 41.85 L39.8 47.1 32.05 44.85 Q30.75 47.8 30.2 50.7 L30.1 50.7 Q26.8 49.2 24.4 46.95 23.25 51.95 21.3 52.1 L20.15 48.75 18.25 52.5 12.4 47.6 Q10.3 49.65 8.0 53.4 5.2 50.7 2.3 48.55 L-3.35 54.05 Q-6.15 51.15 -8.9 48.9 -11.8 51.4 -13.95 54.05 -16.25 51.2 -17.9 50.75 L-17.9 55.65 Q-22.45 54.15 -24.7 48.75 L-25.85 49.05 -32.4 50.7 Q-34.9 47.55 -36.85 43.25 -42.6 46.0 -45.35 44.75 L-43.25 41.95 Q-44.65 39.7 -44.9 35.7 -47.35 35.35 -51.25 35.7 -50.1 32.5 -50.15 29.9 -54.75 29.55 -57.4 25.9 -46.6 22.2 -42.1 17.65 M20.15 48.75 L15.9 34.1 15.9 34.05 M-17.9 33.15 L-17.9 50.75 M38.3 41.85 L28.95 30.05 M-16.25 25.35 L-17.9 33.15 M-31.2 27.2 L-26.35 21.65 M-43.25 41.95 L-31.2 27.2" fill="none" stroke="#000000" stroke-linecap="round" stroke-linejoin="round" stroke-opacity="0.6" stroke-width="1.2000000000000002"/>
    <path d="M8.8 30.35 Q5.55 31.1 6.7 5.7 M34.55 25.4 Q33.35 21.0 30.1 17.85 26.8 14.75 18.8 3.4 M15.9 34.05 L14.2 27.35 M28.95 30.05 L27.05 25.2 M-11.15 29.55 Q-8.9 27.85 -9.6 3.15 M-34.45 20.85 Q-37.7 23.25 -31.9 15.9 -26.15 8.5 -18.85 1.45" fill="none" stroke="#000000" stroke-linecap="round" stroke-linejoin="round" stroke-width="1.0"/>
  </g>
</svg>
