<?xml version="1.0" encoding="UTF-8" standalone="no"?>
<svg xmlns:xlink="http://www.w3.org/1999/xlink" height="46.3px" width="80.0px" xmlns="http://www.w3.org/2000/svg">
  <g transform="matrix(1.0, 0.0, 0.0, 1.0, 40.5, 13.9)">
    <path d="M29.45 3.6 L29.35 3.65 29.3 3.65 29.45 3.6" fill="#f7e9fe" fill-rule="evenodd" stroke="none"/>
    <path d="M31.75 -0.85 L29.3 -3.1 Q25.9 -6.45 23.75 -9.6 22.0 -10.5 20.85 -10.5 19.2 -10.5 18.5 -8.9 L18.05 -7.8 18.1 -7.8 18.15 -7.8 19.0 -6.7 Q21.25 -3.5 23.15 1.45 L24.75 6.2 25.5 8.65 Q28.55 14.8 34.5 18.0 40.5 21.15 37.25 22.9 34.0 24.6 32.9 25.85 31.7 27.05 28.55 26.7 L26.85 26.35 26.65 26.25 Q24.1 25.7 19.45 27.65 18.0 28.25 16.3 29.1 L16.25 29.15 15.5 29.7 Q14.0 30.7 12.25 31.15 10.1 31.6 7.6 31.2 L4.4 30.45 1.55 29.45 -2.95 28.85 -3.45 28.85 -7.4 29.0 -8.3 29.05 -8.7 29.1 Q-11.35 30.4 -14.0 30.75 -17.1 31.05 -19.95 30.0 L-22.3 28.95 Q-23.5 27.35 -25.65 26.65 L-25.85 26.55 -29.4 25.95 -31.4 25.95 Q-37.3 25.2 -39.05 24.25 -40.8 23.3 -35.6 19.4 -30.6 15.65 -27.9 7.85 L-29.8 7.95 -27.25 4.45 Q-29.3 4.7 -31.15 3.35 L-33.9 1.45 Q-33.7 0.5 -31.85 -1.2 -29.85 -3.55 -27.05 -5.9 L-21.5 -9.9 Q-18.7 -11.55 -17.95 -9.25 L-16.2 -9.45 Q-13.9 -8.55 -13.1 -6.75 L-3.95 -5.15 Q0.05 -4.3 4.2 -4.4 L12.85 -5.2 18.05 -7.75 18.05 -7.8 M31.75 -0.85 L32.3 -0.4 Q33.55 -1.05 34.35 -2.95 36.1 -6.8 38.5 -7.4 L33.3 -8.6 Q27.35 -10.25 24.4 -12.9 21.3 -12.85 20.85 -10.5 M29.3 3.65 Q26.25 4.45 24.75 6.2 M18.05 -7.75 L18.1 -7.8 M32.3 -0.4 L35.25 1.95 33.75 3.0 29.65 3.6 29.55 3.6 29.45 3.6 29.3 3.65 M-17.95 -9.25 Q-19.5 -8.65 -20.6 -7.55 L-23.05 -3.35 -25.9 2.2 -26.0 2.35 -26.75 3.65 -27.25 4.45 M-14.35 6.75 Q-14.35 0.6 -12.7 -4.5 L-12.7 -5.0 -12.8 -5.6 -13.1 -6.75 M-27.9 7.85 L-25.1 7.8 -25.0 7.8 -24.35 7.85 -23.6 7.95 -23.5 7.95 -21.4 8.25 -19.4 8.85 Q-18.5 9.15 -17.7 9.55 L-17.65 9.6 Q-16.6 10.15 -15.65 11.0 L-15.6 11.0 Q-15.15 10.9 -14.9 10.6 L-14.6 10.15 Q-14.4 9.75 -14.35 9.05 L-14.35 6.75" fill="none" stroke="#000000" stroke-linecap="round" stroke-linejoin="round" stroke-width="2.0"/>
    <path d="M23.15 1.45 L25.4 0.85 25.65 0.8 25.95 0.8 26.05 0.8 26.35 0.75 27.5 0.65 Q31.95 0.2 31.75 -0.85 M33.3 -8.6 Q32.4 -4.55 29.3 -3.1 M12.85 -5.2 Q12.75 -4.4 12.95 -3.55 L12.95 -3.4 12.95 -3.25 Q13.05 2.15 16.9 11.05 18.0 14.25 18.85 15.85 M-26.75 3.65 L-26.5 3.6 -24.0 3.45 -23.0 3.55 -22.6 3.6 -22.25 3.65 Q-20.4 4.0 -19.15 4.45 -18.8 4.5 -18.45 4.7 -17.75 4.9 -17.1 5.3 L-14.35 6.75 M-3.95 -5.15 Q-4.05 -4.05 -5.55 0.9 -6.8 4.9 -10.1 12.05 L-11.75 15.6 M-25.9 2.2 Q-30.3 1.0 -31.85 -1.2" fill="none" stroke="#000000" stroke-linecap="round" stroke-linejoin="round" stroke-width="1.0"/>
  </g>
</svg>
