<?xml version="1.0" encoding="UTF-8" standalone="no"?>
<svg xmlns:xlink="http://www.w3.org/1999/xlink" height="23.55px" width="58.2px" xmlns="http://www.w3.org/2000/svg">
  <g transform="matrix(1.0, 0.0, 0.0, 1.0, 29.45, 6.45)">
    <path d="M24.5 -0.15 L25.35 -0.2 Q24.2 -3.6 20.85 -5.7 4.9 -0.35 -20.6 -5.25 -23.8 -3.05 -25.5 0.75 L-23.75 0.6 -22.9 0.85 Q-21.85 1.35 -21.0 2.6 L-20.9 2.75 -20.8 2.85 -20.75 2.95 -20.6 3.1 -20.55 3.2 -20.35 3.45 -20.3 3.55 -20.2 3.65 -20.05 3.8 -20.0 3.9 -19.9 3.95 -19.85 4.05 -19.75 4.1 -19.7 4.2 -19.6 4.25 -19.55 4.35 -19.45 4.4 -19.4 4.5 -19.35 4.55 -19.25 4.6 -19.25 4.65 Q-17.4 6.15 -15.5 5.7 L-14.15 5.15 Q-12.25 4.05 -10.75 4.85 L-10.7 4.9 -9.6 5.8 -9.55 5.9 -9.2 6.35 Q-7.25 9.2 -2.1 6.45 L-0.6 5.8 0.85 5.9 Q2.6 6.3 3.8 7.75 8.2 9.0 10.65 6.55 L11.05 6.05 12.0 4.65 Q14.05 2.4 16.55 4.4 18.85 5.45 20.65 4.7 L21.55 4.15 22.1 3.45 22.15 3.0 Q23.35 0.35 24.5 -0.15 26.95 3.55 28.0 7.2 27.4 6.45 26.25 7.85 25.7 8.5 25.3 9.35 L25.2 9.6 Q23.75 12.2 22.1 12.85 20.4 13.5 18.2 12.55 L17.9 12.55 16.2 12.5 Q14.2 12.75 13.0 14.25 10.5 16.25 8.0 15.65 L6.5 15.0 6.4 14.95 6.0 14.75 Q1.7 12.6 -0.65 15.15 -1.5 15.9 -2.4 16.2 L-3.15 16.35 -3.8 16.35 -3.9 16.35 Q-5.45 16.2 -7.1 14.95 -10.3 11.45 -13.6 13.4 L-13.75 13.45 -13.9 13.55 -15.15 13.9 -15.85 14.0 -18.95 13.75 Q-20.9 13.05 -22.1 11.0 -25.65 6.5 -28.7 8.8 -28.6 4.45 -24.1 1.0 L-23.75 0.6 M-22.9 0.85 L-24.1 1.0" fill="none" stroke="#000000" stroke-linecap="round" stroke-linejoin="round" stroke-width="1.5"/>
  </g>
</svg>
