<?xml version="1.0" encoding="UTF-8" standalone="no"?>
<svg xmlns:xlink="http://www.w3.org/1999/xlink" height="76.6px" width="100.05px" xmlns="http://www.w3.org/2000/svg">
  <g transform="matrix(1.0, 0.0, 0.0, 1.0, 57.45, 7.9)">
    <path d="M17.05 2.2 Q21.1 14.45 23.5 24.25 L24.45 28.05 Q30.5 54.05 24.55 61.55 27.05 60.45 29.05 59.15 39.65 52.2 36.95 43.9 32.5 38.7 28.8 13.8 25.6 -1.15 20.85 -6.9 L14.6 -4.9 14.9 -4.05 16.5 0.6 17.05 2.2 14.6 2.7 14.1 2.8 11.35 3.15 11.0 3.2 -1.4 3.4 -5.3 3.25 -5.4 3.25 -6.6 6.5 Q-9.4 14.1 -12.0 24.65 L-12.8 28.05 -14.6 35.8 Q-17.05 49.3 -17.4 59.15 L-17.5 61.4 -18.35 61.2 -18.55 61.15 -18.85 61.1 -18.9 61.1 Q-25.9 59.45 -31.9 56.4 -38.1 53.25 -43.35 48.5 -46.15 46.05 -48.6 43.2 L-42.45 38.75 Q-31.8 27.2 -26.65 7.85 -24.75 0.2 -22.25 -3.9 L-20.3 -6.6 -20.05 -6.9 -1.6 -4.75 -2.1 -3.85 Q8.85 -3.25 14.9 -4.05 M-2.1 -3.85 L-4.55 1.35 -5.4 3.25" fill="none" stroke="#000000" stroke-linecap="round" stroke-linejoin="round" stroke-width="2.0"/>
    <path d="M-12.8 28.05 L-11.25 27.6 -9.85 26.95 -8.45 25.95 -8.35 25.9 -7.35 24.95 -6.45 26.15 Q-3.9 29.55 -1.8 29.35 L3.3 26.0 5.7 24.65 7.1 26.1 Q10.2 29.15 11.85 29.05 14.25 26.25 16.25 24.85 L17.9 23.85 17.95 23.8 18.25 23.65 Q19.55 25.3 20.95 26.35 22.35 27.4 23.85 27.85 L24.45 28.05 M24.55 61.55 Q22.45 63.6 21.9 66.05 26.2 65.2 27.8 63.9 L28.45 63.05 Q28.9 63.7 31.3 64.8 L31.95 65.05 Q33.65 63.0 34.4 60.65 L34.85 58.75 38.05 59.0 39.6 58.75 Q39.85 56.45 39.25 53.95 L38.95 52.75 Q41.85 52.7 42.1 52.1 L42.05 51.65 Q41.55 49.5 39.25 46.95 42.2 46.65 42.1 45.85 L36.95 43.9 M-17.5 61.4 Q-15.65 64.9 -15.7 68.2 -18.5 67.15 -20.25 66.1 L-20.7 65.8 -21.7 65.05 -21.8 64.95 -22.2 65.35 Q-23.15 66.15 -25.15 66.65 L-27.9 67.0 Q-29.35 65.3 -29.9 63.5 L-30.35 61.5 Q-32.2 62.3 -35.55 62.5 L-37.95 62.55 Q-39.85 60.5 -40.7 58.35 L-41.15 56.75 -45.15 57.1 -48.95 56.55 Q-50.1 54.1 -49.9 51.9 L-49.7 50.45 -56.95 47.25 Q-54.35 45.25 -48.6 43.2" fill="none" stroke="#000000" stroke-linecap="round" stroke-linejoin="round" stroke-opacity="0.70980394" stroke-width="1.0"/>
  </g>
</svg>
