<?xml version="1.0" encoding="UTF-8" standalone="no"?>
<svg xmlns:xlink="http://www.w3.org/1999/xlink" height="33.3px" width="66.45px" xmlns="http://www.w3.org/2000/svg">
  <g transform="matrix(1.0, 0.0, 0.0, 1.0, 34.4, 8.95)">
    <path d="M20.85 -4.75 Q20.65 -6.6 19.0 -7.95 15.75 -6.6 5.0 -6.3 -12.5 -6.35 -19.1 -7.8 -20.6 -6.65 -20.9 -5.65 L-21.2 -4.7 -25.35 3.3 Q-28.55 9.4 -31.6 14.3 L-33.4 17.05 -31.45 18.9 -30.05 19.55 -29.1 19.9 -23.15 21.4 -22.8 20.2 -19.0 20.85 -11.1 21.35 -11.35 22.4 Q-10.45 23.55 -6.55 23.3 L1.6 22.8 1.6 21.2 1.7 18.7 1.75 17.95 2.35 0.35 M20.85 -4.75 L26.2 4.95 Q29.0 9.85 30.25 13.25 L31.05 15.65 Q31.2 17.85 30.1 18.85 L26.65 20.15 27.05 20.7 Q22.5 23.1 19.1 23.1 L15.5 22.65 14.9 21.7 7.8 21.95 Q3.6 22.7 1.6 21.2 M26.65 20.15 L24.95 16.75 24.55 15.85 16.75 0.15 16.55 -0.35 M14.2 18.45 L14.9 21.7 M14.05 17.5 L10.25 0.2 M-10.45 18.65 L-11.1 21.35 M14.2 18.45 L14.05 17.5 M-10.1 17.05 L-6.6 1.35 M-10.45 18.65 L-10.1 17.05 M-21.45 16.05 L-21.8 16.85 -22.8 20.2 M-21.45 16.05 L-14.85 0.7" fill="none" stroke="#000000" stroke-linecap="round" stroke-linejoin="round" stroke-width="2.0"/>
    <path d="M-21.2 -4.7 Q-20.2 -2.15 4.35 -2.55 20.65 -2.8 20.85 -4.75 M24.55 15.85 L27.3 15.0 Q29.2 14.25 30.25 13.25 M24.95 16.75 Q21.45 18.15 17.3 18.35 L14.2 18.45 M1.75 17.95 L6.65 17.65 Q9.65 17.45 14.05 17.5 M1.7 18.7 L-6.6 18.95 -10.45 18.65 M-10.1 17.05 L-18.2 16.75 -21.45 16.05 M-31.6 14.3 L-28.4 15.55 Q-25.85 16.4 -21.8 16.85" fill="none" stroke="#000000" stroke-linecap="round" stroke-linejoin="round" stroke-width="1.0"/>
  </g>
</svg>
