<?xml version="1.0" encoding="UTF-8" standalone="no"?>
<svg xmlns:xlink="http://www.w3.org/1999/xlink" height="35.35px" width="56.9px" xmlns="http://www.w3.org/2000/svg">
  <g transform="matrix(1.0, 0.0, 0.0, 1.0, 29.45, 10.4)">
    <path d="M-20.65 -5.45 L-14.25 -4.75 Q15.25 -1.75 21.05 -5.95 M-27.15 12.3 Q-26.55 14.6 -18.3 15.9 L-9.25 16.9 -7.75 17.05 -0.2 17.55 1.15 17.6 4.85 17.75 9.7 17.55 11.5 17.35 18.9 16.4 20.5 15.95 Q24.2 14.9 25.25 13.25" fill="none" stroke="#000000" stroke-linecap="round" stroke-linejoin="round" stroke-width="1.0"/>
    <path d="M21.05 -5.95 L21.25 -6.15 21.15 -6.85 Q20.75 -7.95 19.6 -9.1 11.4 -6.0 -13.7 -8.75 L-18.95 -9.4 Q-20.85 -7.65 -20.8 -5.5 L-20.65 -5.45 -27.15 12.3 Q-28.1 14.75 -28.45 16.75 -28.0 21.1 -23.1 20.3 -21.65 22.35 -19.45 22.6 -17.2 22.75 -15.8 22.0 -13.55 23.5 -11.65 23.35 -9.7 23.25 -8.65 22.25 -8.5 22.8 -6.85 23.7 -5.2 24.6 -2.3 22.3 L-1.1 23.4 0.8 23.85 Q2.05 24.05 3.8 22.65 6.65 25.05 9.75 22.25 10.9 22.9 12.55 23.3 14.2 23.65 15.35 21.75 16.95 22.75 18.3 22.45 19.55 22.2 20.75 20.5 21.5 21.25 23.75 20.95 26.05 20.7 26.45 18.05 L26.1 16.95 Q25.5 14.95 25.25 13.25 L24.85 10.65 Q24.4 6.8 22.75 -0.15 L21.05 -5.95" fill="none" stroke="#000000" stroke-linecap="round" stroke-linejoin="round" stroke-width="2.0"/>
  </g>
</svg>
