<?xml version="1.0" encoding="UTF-8" standalone="no"?>
<svg xmlns:xlink="http://www.w3.org/1999/xlink" height="35.75px" width="65.3px" xmlns="http://www.w3.org/2000/svg">
  <g transform="matrix(1.0, 0.0, 0.0, 1.0, 34.45, 12.5)">
    <path d="M-26.9 8.75 L-29.5 7.75 -26.35 4.4 Q-24.45 2.05 -23.0 -1.65 -23.1 -4.35 -21.05 -6.35 L-20.6 -6.25 -21.35 -11.75 Q-18.15 -11.35 -13.45 -9.6 L-8.25 -7.5 1.25 -5.25 Q2.0 -6.3 3.65 -6.75 4.75 -6.65 5.7 -6.0 L7.1 -4.65 Q7.65 -6.25 9.6 -6.6 L9.85 -6.65 Q11.0 -6.4 11.65 -5.8 18.6 -8.5 22.75 -9.6 L21.7 -6.1 Q23.0 -3.85 22.35 -1.55 L22.3 -1.45 22.45 -0.9 Q23.75 3.0 25.0 4.3 25.8 6.25 26.45 6.9 L26.65 7.15 25.7 8.3 Q23.65 10.55 21.9 11.25 21.45 10.3 21.1 7.75 L22.75 6.8 23.9 5.9 25.0 4.3 M0.85 -4.4 L0.5 -4.3 Q-3.9 -3.0 -5.85 -1.4 L-6.25 -0.3 -6.3 0.1 -6.35 0.2 -6.4 1.1 Q-6.3 2.0 -5.6 2.55 L-4.5 3.1 -2.6 3.35 4.6 2.05 2.95 0.7 2.6 0.3 1.65 -0.85 0.7 -2.55 Q0.6 -3.5 0.8 -4.3 L0.85 -4.4 1.25 -5.25 M20.05 -6.05 L20.1 -5.6 21.7 -6.1 M11.65 -5.8 Q12.3 -5.25 12.4 -4.35 L17.45 -5.0 17.35 -5.7 M12.4 -4.35 Q12.5 -3.5 12.1 -2.3 L11.8 -1.55 10.45 0.8 10.7 0.8 17.9 0.25 18.1 0.25 17.45 -5.0 M22.3 -1.45 L22.3 -1.4 22.15 -1.3 20.85 -0.55 20.75 -0.5 20.8 0.25 M20.1 -5.6 L20.75 -0.5 M-26.35 4.4 Q-20.6 6.8 -12.25 8.25 -11.15 5.05 -8.05 1.3 -6.05 6.3 -6.1 9.55 L2.3 10.15 Q9.4 10.35 18.45 8.5 18.05 4.95 18.8 1.95 20.8 5.8 21.1 7.75 M18.2 1.05 L18.1 0.25 M-6.1 9.55 Q-6.1 11.95 -6.4 13.55 8.75 15.3 18.85 12.35 L18.45 8.5 M10.45 0.8 Q9.15 2.65 7.35 3.45 L7.15 3.5 4.6 2.05 M-21.7 -0.5 L-21.3 -1.45 -23.0 -1.65 M-9.5 0.1 L-9.5 -0.25 -11.65 -0.45 -14.3 -0.65 -14.4 -0.65 -14.6 -0.7 -14.7 -0.7 -15.25 -0.75 -15.65 -0.8 -18.45 -1.15 -18.7 -0.5 M-18.45 -1.15 L-16.85 -5.8 -16.55 -6.75 M-16.85 -5.8 L-13.75 -5.45 -8.8 -4.9 -8.7 -5.75 M-19.1 -7.0 L-19.45 -6.1 -21.3 -1.45 M-6.85 0.45 L-6.8 0.05 -6.15 -4.7 -6.1 -5.05 M-8.8 -4.9 L-9.5 -0.25 M-6.15 -4.7 L-3.25 -4.5 0.5 -4.3 M-20.6 -6.25 L-19.45 -6.1 M-6.3 0.1 L-6.7 0.05 -6.8 0.05 M-26.9 8.75 Q-19.4 11.45 -13.75 12.45 L-13.4 11.05 -12.75 9.6 -12.25 8.25" fill="none" stroke="#000000" stroke-linecap="round" stroke-linejoin="round" stroke-width="1.5"/>
    <path d="M25.7 8.3 L26.0 9.1 26.65 10.75 Q28.3 14.65 30.35 17.4 29.45 19.65 26.25 20.3 L24.65 20.45 M-26.9 8.75 Q-29.0 13.9 -33.95 16.45 -33.2 20.1 -24.8 20.45 L-24.2 20.45 Q-16.6 19.05 -10.05 21.4 L-9.65 21.55 -8.9 21.9 Q-4.95 23.5 3.7 22.15 L4.65 22.0 5.6 21.8 14.2 20.6 16.15 20.6 16.65 20.6 Q20.55 20.85 24.2 20.5" fill="none" stroke="#000000" stroke-linecap="round" stroke-linejoin="round" stroke-opacity="0.6784314" stroke-width="1.0"/>
  </g>
</svg>
