<?xml version="1.0" encoding="UTF-8" standalone="no"?>
<svg xmlns:xlink="http://www.w3.org/1999/xlink" height="84.5px" width="56.25px" xmlns="http://www.w3.org/2000/svg">
  <g transform="matrix(1.0, 0.0, 0.0, 1.0, 22.0, 12.3)">
    <path d="M2.9 -0.7 Q2.9 0.6 2.2 1.55 1.5 2.55 0.45 2.55 -0.55 2.55 -1.25 1.55 -1.95 0.6 -1.95 -0.75 -1.95 -2.05 -1.25 -3.0 -0.55 -3.95 0.45 -3.95 1.5 -3.95 2.2 -3.0 2.9 -2.05 2.9 -0.7 M8.45 5.65 L7.35 3.8 Q6.9 2.55 6.9 1.1 L7.0 0.0 7.25 -1.2 Q7.65 -2.5 8.55 -3.55 9.35 -4.45 10.3 -4.9 0.0 -5.25 -12.75 -9.25 -16.05 -10.25 -19.55 -11.55 -21.75 -6.0 -21.1 -3.2 -14.7 0.1 -7.7 2.25 L-5.85 2.8 Q1.0 4.7 8.45 5.65 L8.55 5.75 9.3 6.5 Q10.75 7.65 12.6 7.65 13.95 7.65 15.1 7.05 L15.8 6.5 16.1 6.25 16.5 5.85 16.6 5.75 17.2 4.95 17.45 4.55 Q18.3 3.0 18.3 1.1 18.3 -1.6 16.6 -3.55 L14.85 -4.95 12.6 -5.45 10.3 -4.9 M16.25 1.05 Q16.25 2.7 15.3 3.85 14.35 5.0 13.0 5.0 11.7 5.0 10.75 3.85 9.8 2.7 9.8 1.05 9.8 -0.6 10.75 -1.75 11.7 -2.9 13.0 -2.9 14.35 -2.9 15.3 -1.75 16.25 -0.6 16.25 1.05 M14.85 -4.95 L21.45 -5.8 Q22.15 -5.05 22.55 -3.75 L22.7 -3.8 22.75 -3.8 Q23.65 -3.8 24.25 -2.7 24.9 -1.65 24.9 -0.05 24.9 1.45 24.25 2.55 23.75 3.5 23.0 3.7 L22.95 3.7 22.3 5.9 21.9 6.1 Q24.5 17.55 25.35 31.55 27.0 44.4 32.3 54.2 L33.5 56.4 Q28.2 63.75 20.15 66.05 L19.25 71.45 Q19.3 70.4 18.65 69.55 16.3 66.55 4.65 66.85 L-3.45 67.2 Q-1.1 48.2 -3.45 31.6 L-7.7 2.25 M22.95 3.7 L22.75 3.7 Q21.85 3.7 21.2 2.55 20.6 1.45 20.6 -0.1 20.6 -1.65 21.2 -2.7 21.8 -3.65 22.55 -3.75 M21.9 6.1 L18.55 6.35 16.1 6.25 M15.8 6.5 L15.9 7.1 Q17.9 12.5 20.15 32.6 22.25 51.5 20.15 66.05 M-5.05 -2.95 Q-5.1 -1.7 -5.85 -0.8 -6.6 0.15 -7.6 0.15 -8.6 0.15 -9.25 -0.8 -9.85 -1.7 -9.8 -3.0 -9.75 -4.25 -9.05 -5.15 -8.3 -6.05 -7.3 -6.05 -6.3 -6.05 -5.65 -5.15 -5.0 -4.25 -5.05 -2.95" fill="none" stroke="#000000" stroke-linecap="round" stroke-linejoin="round" stroke-width="1.5"/>
  </g>
</svg>
