<?xml version="1.0" encoding="UTF-8" standalone="no"?>
<svg xmlns:xlink="http://www.w3.org/1999/xlink" height="34.7px" width="66.25px" xmlns="http://www.w3.org/2000/svg">
  <g transform="matrix(1.0, 0.0, 0.0, 1.0, 34.55, 6.6)">
    <path d="M-22.8 2.0 L-21.9 -1.35 -20.6 -4.7 Q-8.3 -4.3 0.45 -4.3 L0.45 -5.5 1.5 -5.8 3.55 -5.8 5.85 -5.8 9.15 -5.85 9.35 -5.85 9.65 -5.85 10.7 -5.85 11.3 -5.85 11.35 -4.45 Q19.6 -4.8 21.25 -5.85 L22.4 1.05 22.15 1.15 20.4 1.7 18.7 2.0 15.25 2.4 14.75 2.45 11.45 2.7 11.45 3.9 1.6 3.9 0.45 3.15 0.45 2.85 0.45 -4.3 M-22.8 2.0 L-22.8 2.05 -21.05 2.15 -11.45 2.6 -4.0 2.8 0.45 2.85 M11.35 -4.45 L11.45 2.7" fill="none" stroke="#000000" stroke-linecap="round" stroke-linejoin="round" stroke-width="1.5"/>
    <path d="M22.15 1.15 Q31.4 11.55 31.2 18.35 31.0 19.95 30.15 20.65 28.95 21.65 26.55 21.05 21.2 15.95 15.25 2.4 M-32.85 21.75 L-33.5 21.6 -33.55 21.45 Q-36.4 17.25 -22.8 2.0 M8.4 0.9 L4.5 0.95 4.5 -3.1 8.4 -3.1 8.4 0.9 M31.2 18.35 Q29.7 17.3 28.05 15.15 24.7 10.8 20.75 2.0 M-11.45 2.6 Q-21.15 19.25 -29.15 21.6 L-32.85 21.7 -33.5 21.6 M-29.15 21.6 Q-33.25 19.9 -21.05 2.15 M-32.85 21.75 L-30.2 22.35 Q-15.5 25.35 -4.0 2.8" fill="none" stroke="#000000" stroke-linecap="round" stroke-linejoin="round" stroke-width="1.0"/>
    <path d="M30.15 20.65 L30.9 22.9 Q20.8 27.65 -0.35 27.6 -35.8 26.3 -33.0 22.45 L-32.85 21.75" fill="none" stroke="#000000" stroke-linecap="round" stroke-linejoin="round" stroke-opacity="0.5882353" stroke-width="1.0"/>
  </g>
</svg>
