<?xml version="1.0" encoding="UTF-8" standalone="no"?>
<svg xmlns:xlink="http://www.w3.org/1999/xlink" height="13.75px" width="47.9px" xmlns="http://www.w3.org/2000/svg">
  <g transform="matrix(1.0, 0.0, 0.0, 1.0, 24.1, 7.7)">
    <path d="M14.5 -4.8 L14.85 -0.35 19.2 -1.15 18.65 -5.7 M10.0 -4.3 L10.3 0.2 14.85 -0.35 15.15 4.0 M19.7 3.1 L19.2 -1.15 22.9 -2.35 M4.8 -1.8 L2.75 -1.7 2.8 0.65 4.9 0.6 4.8 -1.8 6.85 -1.9 7.05 0.45 7.1 1.5 7.1 1.55 7.1 1.65 7.15 2.1 5.05 2.25 2.85 2.35 2.8 0.65 M10.3 0.2 L10.55 4.6 M7.05 0.45 L4.9 0.6 5.05 2.25 M-19.1 -4.8 L-19.2 -0.05 -14.8 0.15 -14.8 -4.4 M-23.3 -0.75 L-19.2 -0.05 -19.35 3.75 M-0.3 4.85 L-0.45 0.6 -5.4 0.55 -5.3 2.35 -5.25 2.9 -5.25 3.25 -5.15 4.4 -5.15 4.7 M-5.4 0.55 L-10.15 0.4 -10.15 4.4 M-14.8 0.15 L-10.15 0.4 -10.25 -4.15 M-14.8 0.15 L-14.85 4.1 M-5.55 -4.1 L-5.4 0.55 M-0.45 0.6 L-0.65 -4.05" fill="none" stroke="#000000" stroke-linecap="round" stroke-linejoin="round" stroke-width="0.7000000000000001"/>
    <path d="M18.65 -5.7 L14.5 -4.8 10.0 -4.3 9.95 -4.75 -0.65 -4.3 -0.65 -4.05 -5.55 -4.1 -10.25 -4.15 -14.8 -4.4 -16.6 -4.5 -19.1 -4.8 -21.9 -5.25 Q-23.15 -2.9 -23.3 -0.75 -23.55 1.4 -22.75 3.4 L-19.35 3.75 -14.85 4.1 -10.15 4.4 -8.75 4.5 -5.15 4.7 -2.8 4.8 -0.3 4.85 -0.3 5.3 10.55 4.65 10.55 4.6 11.9 4.45 11.95 4.45 15.15 4.0 19.7 3.1 20.95 2.7 22.9 1.8 23.05 0.0 22.9 -2.35 Q22.65 -4.65 21.55 -6.95 20.55 -6.25 18.65 -5.7" fill="none" stroke="#000000" stroke-linecap="round" stroke-linejoin="round" stroke-width="1.5"/>
  </g>
</svg>
