<?xml version="1.0" encoding="UTF-8" standalone="no"?>
<svg xmlns:xlink="http://www.w3.org/1999/xlink" height="11.5px" width="45.6px" xmlns="http://www.w3.org/2000/svg">
  <g transform="matrix(1.0, 0.0, 0.0, 1.0, 23.0, 5.95)">
    <path d="M0.4 -2.8 L0.65 -3.25 Q3.7 -3.6 9.5 -3.2 L9.8 -2.8 11.7 -2.9 14.35 -3.1 14.25 -4.05 17.8 -4.45 17.9 -3.5 21.0 -4.1 Q22.15 -0.6 21.7 1.7 L18.6 2.45 18.75 3.8 15.1 4.1 15.0 3.0 10.05 3.25 Q10.05 4.15 9.85 4.1 5.65 4.6 0.6 4.2 L0.4 3.7 -0.05 3.7 -4.85 3.6 -4.9 4.8 -8.55 4.55 -8.5 3.4 -15.45 2.8 -15.6 4.0 -19.2 3.5 -19.0 2.35 -21.95 1.7 -22.15 1.6 Q-22.6 -0.8 -20.65 -4.35 L-18.1 -4.0 -17.95 -5.2 -14.45 -4.75 -14.6 -3.65 -8.2 -3.15 -8.15 -4.15 -4.6 -3.95 -4.6 -2.9 -2.5 -2.8 0.4 -2.8 0.4 3.7 M17.9 -3.5 L18.6 2.45 M15.0 3.0 L14.35 -3.1 M9.8 -2.8 Q10.1 -0.4 10.05 3.25 M-14.6 -3.65 L-15.45 2.8 M-19.0 2.35 L-18.1 -4.0 M-4.6 -2.9 L-4.85 3.6 M-8.5 3.4 L-8.2 -3.15" fill="none" stroke="#000000" stroke-linecap="round" stroke-linejoin="round" stroke-width="1.5"/>
  </g>
</svg>
