<?xml version="1.0" encoding="UTF-8" standalone="no"?>
<svg xmlns:xlink="http://www.w3.org/1999/xlink" height="17.5px" width="55.6px" xmlns="http://www.w3.org/2000/svg">
  <g transform="matrix(1.0, 0.0, 0.0, 1.0, 27.1, 7.6)">
    <path d="M0.4 -2.8 L0.65 -3.25 Q3.7 -3.6 9.5 -3.2 L9.8 -2.8 11.7 -2.9 Q16.95 -3.2 20.85 -4.05 L21.25 -6.6 Q22.85 -7.25 25.05 -6.3 27.5 -3.05 27.75 -0.25 27.8 1.2 27.3 2.5 L26.35 2.45 Q27.9 7.85 25.15 8.7 20.9 8.25 21.3 1.8 L16.05 2.85 15.75 2.9 10.05 3.25 Q10.05 4.15 9.85 4.1 5.65 4.6 0.6 4.2 L0.4 3.7 -0.05 3.7 -11.8 3.15 -12.3 4.7 Q-14.9 10.1 -21.7 8.95 -26.05 7.9 -26.35 4.5 -26.5 2.55 -25.75 1.35 L-26.25 0.05 -25.7 -3.75 Q-24.95 -5.65 -22.85 -6.6 -18.05 -6.9 -13.5 -5.65 -12.15 -4.55 -11.6 -3.4 L-2.5 -2.8 0.4 -2.8 0.4 3.7 M27.75 -0.25 L26.35 -0.3 M20.85 -4.05 L21.0 -4.1 Q22.15 -0.6 21.7 1.7 L21.3 1.8 M9.8 -2.8 Q10.1 -0.4 10.05 3.25 M26.35 2.45 Q23.0 1.95 22.25 -2.5 M-25.75 1.35 Q-24.55 3.5 -21.2 4.05 -18.1 4.1 -16.2 2.7 L-14.85 1.25 Q-14.25 -0.2 -14.25 -3.6 L-14.3 -5.1 M-11.8 3.15 L-11.75 2.95 Q-12.7 0.3 -11.55 -3.25 L-11.6 -3.4 M-21.5 1.05 L-19.85 1.15" fill="none" stroke="#000000" stroke-linecap="round" stroke-linejoin="round" stroke-width="1.5"/>
  </g>
</svg>
