<?xml version="1.0" encoding="UTF-8" standalone="no"?>
<svg xmlns:xlink="http://www.w3.org/1999/xlink" height="16.65px" width="45.6px" xmlns="http://www.w3.org/2000/svg">
  <g transform="matrix(1.0, 0.0, 0.0, 1.0, 23.0, 5.1)">
    <path d="M0.65 -3.25 L0.4 -2.8 0.4 -2.5 0.4 3.7 0.6 4.2 Q5.65 4.6 9.85 4.1 10.05 4.15 10.05 3.25 10.1 -0.4 9.8 -2.8 L9.5 -3.2 Q3.7 -3.6 0.65 -3.25 M9.8 -2.8 L11.7 -2.9 11.75 -2.9 11.7 -3.7 14.25 -3.7 14.3 -3.05 21.0 -4.1 Q22.15 -0.6 21.7 1.7 L16.05 2.85 15.75 2.9 14.75 3.0 14.8 3.95 12.25 3.95 12.2 3.15 10.05 3.25 M14.3 -3.05 L14.75 3.0 M12.2 3.15 L11.75 -2.9 M0.4 3.7 Q-2.1 7.75 -2.85 10.3 -4.4 11.3 -7.3 10.25 -9.7 9.55 -9.6 7.5 -8.5 5.35 -6.95 3.5 L-17.0 2.6 -17.7 2.5 -21.95 1.7 -22.15 1.6 Q-22.6 -0.8 -20.65 -4.35 L-2.5 -2.8 0.4 -2.8 M0.4 -2.5 Q-4.1 0.05 -6.95 3.5" fill="none" stroke="#000000" stroke-linecap="round" stroke-linejoin="round" stroke-width="1.5"/>
  </g>
</svg>
