<?xml version="1.0" encoding="UTF-8" standalone="no"?>
<svg xmlns:xlink="http://www.w3.org/1999/xlink" height="41.7px" width="79.05px" xmlns="http://www.w3.org/2000/svg">
  <g transform="matrix(1.0, 0.0, 0.0, 1.0, 39.8, 10.45)">
    <path d="M-28.4 5.1 L-29.3 6.65 -26.7 5.4 -28.6 8.7 -26.7 5.4 -25.65 5.3 Q-21.0 4.95 -15.3 7.05 L-14.85 7.25 Q-8.75 9.65 -2.25 7.9 L-2.3 10.45 -2.25 7.9 -1.7 7.7 Q4.75 5.55 11.5 7.35 L11.7 7.4 Q17.65 8.95 21.45 6.9 L22.8 6.05 25.4 8.45 22.8 6.05 Q24.0 5.5 25.1 5.25 27.5 4.7 29.5 5.8 32.05 7.65 30.0 8.35 L28.8 8.65 25.4 8.45 23.6 10.2 18.6 10.35 Q16.25 12.45 12.0 9.95 8.85 11.85 5.1 9.65 1.8 12.6 -2.3 10.45 L-2.65 10.75 Q-5.8 13.35 -9.6 11.15 L-15.25 10.95 -16.4 10.2 Q-21.2 11.2 -23.0 9.3 -24.65 9.95 -25.8 10.0 -27.8 10.1 -28.6 8.7 L-29.15 8.8 Q-31.8 8.95 -30.9 7.25 L-28.4 5.1 M-16.4 9.75 L-15.3 7.05 -16.4 9.75 M12.2 9.65 L11.7 7.4 12.2 9.65 M-18.25 15.55 Q-19.5 17.2 -19.95 18.95 -19.5 17.2 -18.25 15.55 L-16.75 16.0 Q-9.95 18.65 -2.65 16.65 L-2.05 16.45 Q5.2 14.0 12.85 16.05 L13.05 16.1 Q19.7 17.85 24.0 15.55 25.15 14.7 26.3 14.15 L28.4 17.3 26.3 14.15 Q27.35 13.65 28.45 13.5 30.8 13.1 33.05 14.3 35.85 16.4 33.55 17.2 L32.75 17.45 28.4 17.3 27.15 18.7 Q24.8 20.65 20.8 19.45 18.15 21.75 13.4 19.0 L13.15 19.15 Q9.7 21.05 5.6 18.65 1.95 21.9 -2.7 19.55 L-2.95 19.85 Q-6.6 22.85 -10.85 20.35 -14.9 22.1 -19.55 19.15 -23.95 20.4 -25.9 18.3 -28.85 19.35 -30.5 18.9 -31.65 18.55 -32.25 17.55 L-29.25 13.9 -32.25 17.55 -33.2 17.65 Q-35.75 17.75 -34.8 16.0 L-32.0 13.55 -33.05 15.25 Q-31.5 14.4 -29.65 14.0 L-29.25 13.9 Q-24.4 13.1 -18.25 15.55 M-2.65 16.65 L-2.7 19.55 -2.65 16.65 M-35.8 22.15 L-37.0 24.0 Q-35.1 22.95 -33.7 22.6 -27.35 21.7 -18.5 24.9 L-18.45 24.95 Q-11.0 27.65 -2.95 25.5 L-3.0 28.65 -2.95 25.5 -2.3 25.3 Q5.85 22.7 14.35 24.9 L14.55 24.95 Q22.05 26.8 26.85 24.35 28.15 23.4 30.15 22.55 33.3 21.1 36.95 22.95 40.15 25.25 37.6 26.15 34.3 27.15 31.8 26.25 29.05 30.25 23.3 28.55 20.3 31.05 15.0 28.05 11.0 30.4 6.3 27.7 2.2 31.2 -3.0 28.65 -7.2 32.35 -12.15 29.55 -16.65 31.4 -20.7 28.35 -26.8 29.6 -29.0 27.3 -34.55 29.2 -36.1 26.5 -40.25 27.1 -39.0 24.8 L-35.8 22.15 M-20.75 27.8 L-18.5 24.9 -20.75 27.8 M-33.7 22.6 L-36.1 26.5 -33.7 22.6 M13.6 18.65 L13.05 16.1 13.6 18.65 M14.55 24.95 L15.25 27.7 14.55 24.95 M30.15 22.55 L31.8 26.25 30.15 22.55" fill="#ffffff" fill-rule="evenodd" stroke="none"/>
    <path d="M29.5 5.8 Q26.7 0.85 20.6 -3.75 L20.6 -3.7 Q18.4 -1.35 3.2 -1.1 -18.1 -1.05 -20.85 -2.95 L-20.95 -3.55 Q-26.5 0.15 -28.4 5.1 M-20.95 -3.55 Q-21.2 -6.65 -19.35 -9.15 -17.1 -7.05 4.45 -7.3 17.85 -7.6 19.4 -9.7 21.2 -6.7 20.6 -3.75 M-29.15 8.8 Q-31.05 11.0 -32.0 13.55 M-33.2 17.65 Q-34.85 19.8 -35.8 22.15 M36.95 22.95 Q35.35 20.15 32.75 17.45 M33.05 14.3 Q31.4 11.45 28.8 8.65" fill="none" stroke="#000000" stroke-linecap="round" stroke-linejoin="round" stroke-width="1.5"/>
    <path d="M-28.4 5.1 L-29.3 6.65 -26.7 5.4 Q-24.8 2.1 -21.55 -0.05 M-2.3 10.45 L-2.25 7.9 Q-8.75 9.65 -14.85 7.25 L-15.3 7.05 -16.4 9.75 M-28.6 8.7 Q-27.8 10.1 -25.8 10.0 -24.65 9.95 -23.0 9.3 -21.2 11.2 -16.4 10.2 L-15.25 10.95 -9.6 11.15 Q-5.8 13.35 -2.65 10.75 L-2.3 10.45 Q1.8 12.6 5.1 9.65 8.85 11.85 12.0 9.95 16.25 12.45 18.6 10.35 L23.6 10.2 25.4 8.45 22.8 6.05 21.45 6.9 Q17.65 8.95 11.7 7.4 L12.2 9.65 M-2.25 7.9 L-2.25 2.3 M-2.25 7.9 L-1.7 7.7 Q4.75 5.55 11.5 7.35 L11.7 7.4 10.55 2.4 M-18.25 15.55 Q-16.25 13.6 -15.3 11.2 L-15.25 10.95 M-15.3 7.05 Q-14.25 5.4 -13.6 3.4 L-13.15 1.7 M-19.95 18.95 Q-19.5 17.2 -18.25 15.55 -24.4 13.1 -29.25 13.9 L-32.25 17.55 Q-31.65 18.55 -30.5 18.9 -28.85 19.35 -25.9 18.3 -23.95 20.4 -19.55 19.15 -14.9 22.1 -10.85 20.35 -6.6 22.85 -2.95 19.85 L-2.7 19.55 -2.65 16.65 Q-9.95 18.65 -16.75 16.0 L-18.25 15.55 M-2.65 16.65 L-2.05 16.45 Q5.2 14.0 12.85 16.05 L13.05 16.1 11.75 10.5 M-2.65 16.65 L-2.65 10.75 M-28.6 8.7 L-26.7 5.4 -25.65 5.3 Q-21.0 4.95 -15.3 7.05 M-28.6 8.7 L-29.15 8.8 Q-31.8 8.95 -30.9 7.25 L-28.4 5.1 M-32.0 13.55 L-33.05 15.25 Q-31.5 14.4 -29.65 14.0 L-29.25 13.9 -27.75 12.5 Q-26.55 11.25 -25.8 10.0 M-32.25 17.55 L-33.2 17.65 Q-35.75 17.75 -34.8 16.0 L-32.0 13.55 M-35.8 22.15 L-37.0 24.0 Q-35.1 22.95 -33.7 22.6 -32.5 20.5 -30.5 18.9 M-36.1 26.5 Q-34.55 29.2 -29.0 27.3 -26.8 29.6 -20.7 28.35 -16.65 31.4 -12.15 29.55 -7.2 32.35 -3.0 28.65 L-2.95 25.5 Q-11.0 27.65 -18.45 24.95 L-18.5 24.9 -20.75 27.8 M-36.1 26.5 Q-40.25 27.1 -39.0 24.8 L-35.8 22.15 M-2.95 25.5 L-2.3 25.3 Q5.85 22.7 14.35 24.9 L14.55 24.95 13.15 19.15 Q9.7 21.05 5.6 18.65 1.95 21.9 -2.7 19.55 M-33.7 22.6 Q-27.35 21.7 -18.5 24.9 M-18.45 24.95 Q-17.35 23.45 -16.9 21.35 M-2.95 25.5 L-2.95 19.85 M-36.1 26.5 L-33.7 22.6 M25.4 8.45 L28.8 8.65 30.0 8.35 Q32.05 7.65 29.5 5.8 27.5 4.7 25.1 5.25 24.0 5.5 22.8 6.05 20.9 4.1 19.95 2.45 L19.25 0.9 M30.15 22.55 Q29.05 20.7 27.15 18.7 24.8 20.65 20.8 19.45 18.15 21.75 13.4 19.0 L13.15 19.15 M14.55 24.95 Q22.05 26.8 26.85 24.35 28.15 23.4 30.15 22.55 33.3 21.1 36.95 22.95 40.15 25.25 37.6 26.15 34.3 27.15 31.8 26.25 L30.15 22.55 M32.75 17.45 L28.4 17.3 27.15 18.7 M28.4 17.3 L26.3 14.15 Q25.15 14.7 24.0 15.55 19.7 17.85 13.05 16.1 L13.6 18.65 M32.75 17.45 L33.55 17.2 Q35.85 16.4 33.05 14.3 30.8 13.1 28.45 13.5 27.35 13.65 26.3 14.15 L23.6 10.2 M-3.0 28.65 Q2.2 31.2 6.3 27.7 11.0 30.4 15.0 28.05 20.3 31.05 23.3 28.55 29.05 30.25 31.8 26.25 M15.25 27.7 L14.55 24.95" fill="none" stroke="#000000" stroke-linecap="round" stroke-linejoin="round" stroke-width="1.0"/>
  </g>
</svg>
