<?xml version="1.0" encoding="UTF-8" standalone="no"?>
<svg xmlns:xlink="http://www.w3.org/1999/xlink" height="70.75px" width="87.6px" xmlns="http://www.w3.org/2000/svg">
  <g transform="matrix(1.0, 0.0, 0.0, 1.0, 47.9, 10.45)">
    <path d="M9.8 -2.8 L11.7 -2.9 18.85 -3.65 20.1 2.15 16.05 2.85 15.75 2.9 10.05 3.25 10.05 1.75 10.0 -1.0 9.8 -2.8 M-9.2 -3.2 L-2.5 -2.8 0.4 -2.8 0.4 3.7 -0.05 3.7 -10.05 3.3 -9.2 -3.2 M7.7 -1.0 L7.8 1.75 3.6 1.75 3.6 -1.0 7.7 -1.0" fill="#000000" fill-opacity="0.32941177" fill-rule="evenodd" stroke="none"/>
    <path d="M10.0 -1.0 L7.7 -1.0 7.8 1.75 10.05 1.75 M7.7 -1.0 L3.6 -1.0 3.6 1.75 7.8 1.75 M23.45 -4.25 L21.5 -4.65 23.85 7.2 26.85 10.0 M-21.95 -6.2 L-13.3 -5.45 -13.7 -3.55 Q-14.3 -0.45 -14.55 2.9 L-14.75 9.3 Q-22.7 12.65 -28.4 16.35" fill="none" stroke="#000000" stroke-linecap="round" stroke-linejoin="round" stroke-width="1.0"/>
    <path d="M0.4 -2.8 L0.65 -3.25 Q3.7 -3.6 9.5 -3.2 L9.8 -2.8 11.7 -2.9 18.85 -3.65 17.5 -8.65 Q21.45 -9.15 22.65 -6.85 L23.45 -4.25 Q25.75 3.65 26.85 10.0 27.6 14.2 27.75 17.7 L25.95 14.85 Q29.45 27.3 37.3 45.65 39.55 51.35 38.75 56.45 37.2 52.25 30.1 47.35 30.55 51.4 27.75 55.4 28.7 49.6 23.9 42.85 22.9 45.55 19.25 50.8 19.5 35.45 15.5 23.35 11.5 11.25 10.05 3.25 10.05 4.15 9.85 4.1 5.65 4.6 0.6 4.2 -0.45 16.6 -5.55 29.3 -10.7 42.0 -7.35 51.25 -13.25 47.8 -12.45 42.8 -15.45 51.65 -20.25 56.45 L-20.45 47.35 Q-24.0 55.35 -32.85 59.55 -30.9 57.8 -30.6 50.85 -35.75 53.75 -38.0 56.6 -39.05 54.4 -36.45 52.15 -41.6 52.75 -44.4 56.45 -47.35 50.45 -47.15 44.45 L-43.0 49.4 Q-39.6 48.1 -36.2 43.45 L-26.75 20.0 -28.5 21.1 -28.4 16.35 Q-27.75 4.55 -21.95 -6.2 L-19.95 -9.65 Q-14.6 -9.95 -8.15 -7.95 -8.75 -6.1 -9.2 -3.2 L-2.5 -2.8 0.4 -2.8 0.4 3.7 0.6 4.2 M9.8 -2.8 L10.0 -1.0 10.05 1.75 10.05 3.25 15.75 2.9 16.05 2.85 20.1 2.15 18.85 -3.65 M20.1 2.15 Q20.8 6.05 20.75 8.95 23.9 12.0 25.95 14.85 M23.9 42.85 L24.1 42.2 M-10.05 3.3 L-10.75 12.1 Q-20.05 15.85 -26.75 20.0 M0.4 3.7 L-0.05 3.7 -10.05 3.3 -9.2 -3.2 M-12.15 41.8 L-12.45 42.8 M-36.2 43.45 L-39.65 49.85" fill="none" stroke="#000000" stroke-linecap="round" stroke-linejoin="round" stroke-width="1.5"/>
  </g>
</svg>
