<?xml version="1.0" encoding="UTF-8" standalone="no"?>
<svg xmlns:xlink="http://www.w3.org/1999/xlink" height="31.35px" width="69.65px" xmlns="http://www.w3.org/2000/svg">
  <g transform="matrix(1.0, 0.0, 0.0, 1.0, 36.45, 9.25)">
    <path d="M15.0 -6.05 Q9.3 -4.4 2.4 -4.15 L2.9 20.45 2.9 21.05 Q15.95 21.5 22.55 15.9 L23.1 16.75 15.0 -6.05 19.35 -8.25 32.2 8.75 Q31.2 13.9 23.1 16.75 M-12.3 -5.2 L-20.4 -7.25 -35.45 11.5 Q-30.05 16.7 -19.35 17.35 L-12.3 -5.2 Q-5.8 -3.95 2.4 -4.15 M-19.35 17.35 L-19.8 18.8 Q-14.15 20.7 -7.45 20.85 L2.9 20.45" fill="none" stroke="#000000" stroke-linecap="round" stroke-linejoin="round" stroke-width="2.0"/>
  </g>
</svg>
