<?xml version="1.0" encoding="UTF-8" standalone="no"?>
<svg xmlns:xlink="http://www.w3.org/1999/xlink" height="33.25px" width="64.45px" xmlns="http://www.w3.org/2000/svg">
  <g transform="matrix(1.0, 0.0, 0.0, 1.0, 33.65, 11.6)">
    <path d="M21.8 17.35 L22.3 18.65 19.75 17.15 21.8 17.35 M6.4 19.25 L6.5 19.8 6.5 19.85 6.65 20.85 6.6 20.85 3.9 18.8 6.4 19.25 M-7.9 19.6 L-8.8 20.8 -9.0 20.8 -11.25 18.05 Q-9.85 19.15 -7.9 19.6 M-22.6 16.35 L-22.55 18.65 Q-24.4 16.6 -24.15 15.45 L-22.6 16.35 M6.5 19.8 L6.45 19.8 6.5 19.85 6.45 19.8 6.5 19.8" fill="#3f3f3f" fill-rule="evenodd" stroke="none"/>
    <path d="M-22.55 18.65 Q-30.3 16.3 -32.9 13.65 -30.8 8.3 -28.0 3.5 -24.7 -2.25 -20.55 -6.85 L-20.6 -6.9 Q-20.4 -8.65 -19.15 -9.9 -15.65 -6.5 3.15 -6.75 17.15 -7.65 18.1 -10.85 19.35 -9.6 19.65 -7.8 L19.65 -7.75 Q23.45 -2.95 26.85 4.55 28.9 9.05 30.05 13.7 L26.0 16.1 Q23.75 17.35 21.8 17.35 L22.3 18.65 12.75 20.05 12.4 20.1 11.85 20.15 6.4 19.2 6.4 19.25 6.5 19.8 6.5 19.85 6.65 20.85 6.6 20.85 0.45 20.9 -1.8 20.85 -7.9 19.6 -8.8 20.8 -9.0 20.8 Q-16.45 19.75 -22.6 16.35 L-22.55 18.65 Q-24.4 16.6 -24.15 15.45 L-17.35 -0.3 M-20.55 -6.85 Q-17.35 -3.6 3.1 -3.55 18.15 -4.4 19.65 -7.75 M-6.6 -0.3 L-11.3 17.95 -11.25 18.05 Q-9.85 19.15 -7.9 19.6 M-11.25 18.05 L-9.0 20.8 M-22.6 16.35 L-24.15 15.45 M6.5 19.85 L6.45 19.8 6.5 19.8 M6.4 19.25 L3.9 18.8 6.6 20.85 M15.5 -2.3 L19.65 17.1 19.75 17.15 21.8 17.35 M19.75 17.15 L22.3 18.65 M5.7 -1.05 L3.9 18.8" fill="none" stroke="#000000" stroke-linecap="round" stroke-linejoin="round" stroke-width="1.5"/>
  </g>
</svg>
