<?xml version="1.0" encoding="UTF-8" standalone="no"?>
<svg xmlns:xlink="http://www.w3.org/1999/xlink" height="37.35px" width="74.55px" xmlns="http://www.w3.org/2000/svg">
  <g transform="matrix(1.0, 0.0, 0.0, 1.0, 38.4, 13.5)">
    <path d="M-20.5 -7.25 Q-7.7 -4.85 11.25 -6.55 17.55 -7.1 20.5 -8.75 L18.6 -12.5 Q17.5 -10.8 6.8 -10.35 -12.85 -9.85 -18.6 -11.45 L-20.5 -7.25 Q-26.25 -3.5 -30.05 0.65 -32.6 4.0 -32.6 6.65 -32.3 10.9 -26.35 11.05 -20.5 10.95 -12.75 6.1 L-11.75 5.45 -9.45 3.9 -8.0 8.1 Q-3.8 17.65 7.7 17.15 16.75 15.3 18.65 7.05 19.2 4.75 19.2 2.1 21.25 4.0 23.5 5.0 27.65 6.9 32.4 5.7 28.3 -2.25 20.5 -8.75 M-8.0 8.1 L-10.35 20.2 -10.8 22.55 Q-5.1 22.9 1.7 22.85 13.7 22.35 21.7 20.1 L21.05 17.35 18.65 7.05 M-12.75 6.1 L-17.9 19.6 -10.35 20.2 M-10.8 22.55 L-10.85 22.8 M-17.9 19.6 L-18.7 21.75 Q-33.65 19.65 -37.4 13.85 -35.85 6.9 -30.05 0.65 M32.4 5.7 Q34.05 8.9 35.15 12.35 32.7 15.5 28.1 17.75 L26.95 14.7 21.05 17.35 M23.5 5.0 L26.95 14.7" fill="none" stroke="#000000" stroke-linecap="round" stroke-linejoin="round" stroke-width="2.0"/>
  </g>
</svg>
