<?xml version="1.0" encoding="UTF-8" standalone="no"?>
<svg xmlns:xlink="http://www.w3.org/1999/xlink" height="27.55px" width="65.05px" xmlns="http://www.w3.org/2000/svg">
  <g transform="matrix(1.0, 0.0, 0.0, 1.0, 33.45, 5.1)">
    <path d="M18.7 6.35 L25.1 12.65 26.9 14.3 Q29.15 12.8 30.6 11.15 L21.45 3.9 Q18.6 -0.1 17.15 -4.1 1.5 0.9 -18.5 -3.55 L-23.1 5.1 -32.45 13.3 Q-28.45 15.9 -24.1 17.7 L-21.9 15.5 -15.7 8.7 M15.15 7.2 L22.85 14.6 25.1 12.65 M8.75 8.95 L13.8 17.0 15.25 19.3 Q20.45 17.75 24.15 15.85 L22.85 14.6 M6.2 9.2 L9.75 18.1 13.8 17.0 M-0.6 9.85 L-1.35 18.95 -1.6 21.45 10.6 20.3 9.75 18.1 M-4.45 9.95 L-5.4 18.95 -1.35 18.95 M-5.4 18.95 L-5.7 21.4 Q-12.35 21.25 -18.4 19.6 L-17.4 17.45 -21.9 15.5 M-17.4 17.45 L-13.5 9.1" fill="none" stroke="#000000" stroke-linecap="round" stroke-linejoin="round" stroke-width="2.0"/>
  </g>
</svg>
