<?xml version="1.0" encoding="UTF-8" standalone="no"?>
<svg xmlns:xlink="http://www.w3.org/1999/xlink" height="44.95px" width="81.05px" xmlns="http://www.w3.org/2000/svg">
  <g transform="matrix(1.0, 0.0, 0.0, 1.0, 40.8, 8.0)">
    <path d="M36.75 22.7 Q39.5 25.6 39.2 27.6 37.1 29.9 34.35 28.85 31.35 33.15 26.5 30.55 22.3 36.35 17.0 32.7 12.45 36.95 6.7 33.85 5.3 35.6 2.15 35.9 -1.0 36.2 -3.7 33.9 -9.3 37.7 -13.7 33.2 -19.2 36.85 -23.3 31.85 -29.9 35.2 -32.5 29.8 -37.4 31.35 -39.55 29.0 -40.5 27.2 -37.75 23.75 -31.9 7.7 -19.5 -6.45 3.0 -4.25 18.05 -7.0 30.85 8.0 36.75 22.7 25.55 29.1 2.3 29.2 -25.05 29.0 -37.75 23.75" fill="none" stroke="#000000" stroke-linecap="round" stroke-linejoin="round" stroke-width="2.0"/>
  </g>
</svg>
