<?xml version="1.0" encoding="UTF-8" standalone="no"?>
<svg xmlns:xlink="http://www.w3.org/1999/xlink" height="75.25px" width="67.55px" xmlns="http://www.w3.org/2000/svg">
  <g transform="matrix(1.0, 0.0, 0.0, 1.0, 34.35, 50.25)">
    <path d="M18.9 -12.95 L19.7 -12.75 Q20.6 -12.4 20.95 -11.3 21.3 -10.35 21.0 -9.3 L20.7 -8.8 19.65 -8.1 18.05 -8.25 Q17.5 -7.2 16.6 -6.95 L14.7 -7.05 Q13.6 -7.55 13.3 -8.55 L13.2 -8.85 Q13.0 -9.7 13.45 -10.6 L14.25 -11.5 14.85 -11.9 16.75 -11.85 Q17.1 -12.55 17.9 -12.8 L18.9 -12.95 M-11.65 -8.2 Q-11.55 -9.05 -10.85 -9.7 L-9.4 -10.45 -8.85 -10.5 Q-7.75 -10.5 -6.85 -9.75 -6.2 -10.35 -5.25 -10.35 -4.3 -10.35 -3.5 -9.7 L-3.4 -9.6 Q-2.65 -8.85 -2.65 -7.8 L-2.65 -7.45 Q-2.8 -6.6 -3.4 -6.0 -4.2 -5.25 -5.25 -5.25 -6.2 -5.25 -6.9 -5.85 -7.8 -5.2 -8.85 -5.2 -9.95 -5.2 -10.85 -6.0 -11.7 -6.7 -11.7 -7.85 L-11.65 -8.2" fill="#ffffff" fill-rule="evenodd" stroke="none"/>
    <path d="M14.25 -11.5 Q11.6 -31.7 4.25 -49.2 3.55 -50.15 6.85 -47.55 15.85 -35.3 18.9 -12.95 L19.7 -12.75 Q20.6 -12.4 20.95 -11.3 21.3 -10.35 21.0 -9.3 L20.7 -8.8 19.65 -8.1 18.05 -8.25 Q17.5 -7.2 16.6 -6.95 L14.7 -7.05 Q13.6 -7.55 13.3 -8.55 L13.2 -8.85 Q13.0 -9.7 13.45 -10.6 L14.25 -11.5 14.85 -11.9 16.75 -11.85 Q17.1 -12.55 17.9 -12.8 L18.9 -12.95 M30.3 5.75 Q33.7 9.65 31.75 12.55 30.0 14.05 28.3 13.65 25.65 19.25 19.9 18.3 17.45 22.95 11.35 21.35 6.7 26.3 1.0 22.4 -4.2 26.5 -9.4 21.55 -16.25 24.45 -18.55 19.9 -24.45 22.6 -26.8 18.25 -36.0 20.25 -32.75 11.75 L-32.7 11.7 M-11.65 -8.2 Q-11.55 -9.05 -10.85 -9.7 L-9.4 -10.45 Q-7.6 -31.1 -14.55 -47.2 -14.05 -49.5 -11.25 -49.5 -2.25 -36.0 -3.5 -9.7 L-3.4 -9.6 Q-2.65 -8.85 -2.65 -7.8 L-2.65 -7.45 Q-2.8 -6.6 -3.4 -6.0 -4.2 -5.25 -5.25 -5.25 -6.2 -5.25 -6.9 -5.85 -7.8 -5.2 -8.85 -5.2 -9.95 -5.2 -10.85 -6.0 -11.7 -6.7 -11.7 -7.85 L-11.65 -8.2 M24.0 -3.75 L19.35 -1.5 21.0 2.3 25.75 -0.3 M-9.4 -10.45 L-8.85 -10.5 Q-7.75 -10.5 -6.85 -9.75 -6.2 -10.35 -5.25 -10.35 -4.3 -10.35 -3.5 -9.7 M-17.95 0.3 L-10.2 1.0 -10.4 5.5 -19.15 4.25 -17.95 0.3" fill="none" stroke="#000000" stroke-linecap="round" stroke-linejoin="round" stroke-width="1.5"/>
    <path d="M20.7 -8.8 L24.0 -3.75 30.3 5.75 Q25.3 16.15 5.95 17.55 -23.45 19.05 -32.75 11.75 M-32.7 11.7 Q-28.4 1.5 -20.25 -9.85 L-11.65 -8.2 M-2.65 -7.45 Q5.7 -7.2 13.2 -8.85" fill="none" stroke="#000000" stroke-linecap="round" stroke-linejoin="round" stroke-width="2.0"/>
  </g>
</svg>
