<?xml version="1.0" encoding="UTF-8" standalone="no"?>
<svg xmlns:xlink="http://www.w3.org/1999/xlink" height="41.3px" width="78.85px" xmlns="http://www.w3.org/2000/svg">
  <g transform="matrix(1.0, 0.0, 0.0, 1.0, 40.7, 18.25)">
    <path d="M-18.25 -13.25 Q-18.45 -15.1 -17.35 -16.95 -11.65 -14.75 1.8 -14.7 11.9 -15.15 15.75 -17.25 17.15 -15.25 17.25 -13.25 31.25 -2.0 35.5 5.5 36.8 7.8 37.15 9.8 26.6 22.55 -2.25 22.05 -31.1 21.5 -39.7 10.65 -38.85 8.35 -37.25 5.8 -31.9 -2.55 -18.25 -13.25 -11.05 -10.2 4.35 -10.7 15.55 -11.8 16.9 -13.6 L17.25 -13.25" fill="none" stroke="#000000" stroke-linecap="round" stroke-linejoin="round" stroke-width="2.0"/>
  </g>
</svg>
