<?xml version="1.0" encoding="UTF-8" standalone="no"?>
<svg xmlns:xlink="http://www.w3.org/1999/xlink" height="48.9px" width="86.5px" xmlns="http://www.w3.org/2000/svg">
  <g transform="matrix(1.0, 0.0, 0.0, 1.0, 43.1, 20.5)">
    <path d="M12.3 -17.9 L12.65 -13.25 Q8.75 -11.25 -4.8 -12.25 -4.45 -13.65 -4.65 -17.1 L-4.65 -17.25 12.3 -17.9 M14.95 -13.4 L14.9 -13.8 14.6 -18.15 14.55 -18.6 Q15.75 -19.2 15.75 -19.6 16.95 -17.35 16.75 -15.75 L16.75 -15.7 16.75 -15.6 Q16.55 -14.0 14.95 -13.4 M-17.6 -14.4 L-17.65 -14.4 Q-17.9 -17.0 -16.85 -18.8 -13.2 -17.8 -8.0 -17.35 L-8.3 -12.6 Q-14.25 -13.3 -17.6 -14.4" fill="#ffffff" fill-rule="evenodd" stroke="none"/>
    <path d="M39.55 4.15 Q42.55 4.5 42.65 7.3 42.2 10.6 38.95 10.8 39.95 14.1 38.15 15.5 35.45 16.95 33.45 15.85 31.35 20.1 27.8 17.55 24.9 17.6 25.5 14.6 24.3 14.9 22.5 14.2 21.9 16.1 19.95 16.5 L18.4 16.75 Q19.95 20.55 15.65 21.2 16.0 25.85 10.9 24.8 8.55 28.3 3.65 26.1 -1.2 29.5 -4.8 25.4 -9.5 26.3 -9.35 21.75 -12.4 20.55 -11.05 18.4 -14.3 19.2 -14.8 15.35 -16.4 16.9 -18.4 16.3 -18.25 20.6 -21.95 20.35 -22.5 22.5 -24.95 22.65 -27.7 22.55 -28.9 20.45 -30.9 21.65 -33.1 20.7 -35.75 19.5 -35.85 17.5 -39.4 17.85 -40.85 14.35 -41.05 13.1 -40.55 12.2 -43.35 10.0 -41.75 8.3 -40.85 7.3 -38.9 7.1 -39.05 9.9 -38.5 10.45 L-36.55 13.6 Q-33.3 17.75 -25.5 18.2 -22.5 17.85 -21.55 14.65 -20.8 10.65 -16.75 11.05 -12.3 11.6 -9.6 18.0 -9.1 20.2 -5.05 21.25 2.15 23.9 10.4 22.1 15.9 20.15 14.4 15.55 14.55 11.1 23.75 10.3 29.6 10.3 26.85 14.0 29.45 15.45 34.8 11.15 38.15 8.6 39.55 4.15 M26.2 14.3 L25.5 14.6 26.2 14.3 M18.4 16.75 Q16.7 16.75 16.0 15.75 16.7 16.75 18.4 16.75 M-10.8 18.3 L-11.05 18.4 -10.8 18.3 M-18.4 16.3 Q-19.4 16.0 -20.45 15.3 -19.4 16.0 -18.4 16.3" fill="#e4f5fe" fill-rule="evenodd" stroke="none"/>
    <path d="M14.55 -18.6 Q14.35 -19.4 13.55 -19.75 12.7 -19.8 12.25 -18.15 L12.3 -17.9 12.65 -13.25 Q13.0 -11.95 14.2 -12.05 14.9 -12.35 14.95 -13.4 L14.9 -13.8 14.6 -18.15 14.55 -18.6 Q15.75 -19.2 15.75 -19.6 16.95 -17.35 16.75 -15.75 L16.75 -15.7 18.65 -11.95 Q28.45 -3.7 37.3 1.95 L39.7 3.5 39.55 4.15 Q42.55 4.5 42.65 7.3 42.2 10.6 38.95 10.8 39.95 14.1 38.15 15.5 35.45 16.95 33.45 15.85 31.35 20.1 27.8 17.55 24.9 17.6 25.5 14.6 24.3 14.9 22.5 14.2 21.9 16.1 19.95 16.5 L18.4 16.75 Q19.95 20.55 15.65 21.2 16.0 25.85 10.9 24.8 8.55 28.3 3.65 26.1 -1.2 29.5 -4.8 25.4 -9.5 26.3 -9.35 21.75 -12.4 20.55 -11.05 18.4 -14.3 19.2 -14.8 15.35 -16.4 16.9 -18.4 16.3 -18.25 20.6 -21.95 20.35 -22.5 22.5 -24.95 22.65 -27.7 22.55 -28.9 20.45 -30.9 21.65 -33.1 20.7 -35.75 19.5 -35.85 17.5 -39.4 17.85 -40.85 14.35 -41.05 13.1 -40.55 12.2 -43.35 10.0 -41.75 8.3 -40.85 7.3 -38.9 7.1 L-38.9 7.05 -36.55 5.55 Q-30.65 -1.3 -20.05 -10.7 L-17.6 -14.4 -17.65 -14.4 Q-17.9 -17.0 -16.85 -18.8 -13.2 -17.8 -8.0 -17.35 L-8.0 -17.4 Q-7.8 -19.35 -6.35 -19.4 -4.9 -19.4 -4.65 -17.25 L12.3 -17.9 M16.75 -15.7 L16.75 -15.6 Q16.55 -14.0 14.95 -13.4 M27.7 8.5 Q28.65 10.35 28.3 11.9 34.6 8.5 37.3 1.95 M25.5 14.6 L26.2 14.3 M28.3 11.9 Q27.95 13.05 26.85 14.0 M16.0 15.75 Q16.7 16.75 18.4 16.75 M11.35 14.45 Q12.0 9.6 18.4 8.05 25.1 6.35 27.7 8.5 M-6.65 16.45 Q-5.35 18.15 -3.8 19.1 -1.15 20.65 6.25 20.4 10.95 20.0 11.3 14.85 L11.35 14.45 M-4.8 -12.25 Q-4.45 -13.65 -4.65 -17.1 L-4.65 -17.25 M-17.6 -14.4 Q-14.25 -13.3 -8.3 -12.6 L-8.0 -17.35 M-4.8 -12.25 Q-5.65 -11.05 -6.65 -11.15 -7.9 -11.35 -8.3 -12.6 M-11.05 18.4 L-10.8 18.3 M-22.75 11.7 Q-21.1 7.65 -15.6 8.65 -10.35 9.15 -8.45 13.4 L-6.65 16.45 M-36.55 5.55 Q-34.55 13.65 -26.55 15.4 -23.2 14.9 -22.75 11.7 M-20.45 15.3 Q-19.4 16.0 -18.4 16.3 M12.65 -13.25 Q8.75 -11.25 -4.8 -12.25" fill="none" stroke="#000000" stroke-linecap="round" stroke-linejoin="round" stroke-width="1.5"/>
    <path d="M39.55 4.15 Q38.15 8.6 34.8 11.15 29.45 15.45 26.85 14.0 29.6 10.3 23.75 10.3 14.55 11.1 14.4 15.55 15.9 20.15 10.4 22.1 2.15 23.9 -5.05 21.25 -9.1 20.2 -9.6 18.0 -12.3 11.6 -16.75 11.05 -20.8 10.65 -21.55 14.65 -22.5 17.85 -25.5 18.2 -33.3 17.75 -36.55 13.6 L-38.5 10.45 Q-39.05 9.9 -38.9 7.1 M13.45 -8.4 Q17.75 -1.05 26.3 6.4 L27.7 8.5 M11.35 14.45 L10.2 5.35 M-6.65 16.45 Q-9.05 11.95 -4.1 -7.4 M-22.75 11.7 Q-21.3 0.9 -17.3 -9.95" fill="none" stroke="#000000" stroke-linecap="round" stroke-linejoin="round" stroke-width="1.0"/>
  </g>
</svg>
