<?xml version="1.0" encoding="UTF-8" standalone="no"?>
<svg xmlns:xlink="http://www.w3.org/1999/xlink" height="59.95px" width="78.15px" xmlns="http://www.w3.org/2000/svg">
  <g transform="matrix(1.0, 0.0, 0.0, 1.0, 43.65, 20.75)">
    <path d="M-10.55 -7.15 Q11.35 -7.3 17.7 -10.55 18.7 -8.95 18.1 -7.35 22.65 -1.95 22.0 0.75 23.95 10.65 28.2 23.9 34.85 29.65 33.5 30.95 26.6 37.75 23.2 37.6 22.6 35.9 24.8 34.0 27.0 32.05 26.35 30.0 24.05 27.9 2.9 35.35 L2.85 34.55 Q2.1 32.95 -3.85 33.8 -9.6 36.65 -12.65 35.7 L-10.5 32.05 Q-13.5 32.35 -19.7 36.4 -19.2 36.0 -18.85 34.7 -24.3 38.35 -27.9 37.7 L-26.75 35.8 Q-27.25 34.35 -30.35 35.35 L-30.4 38.45 Q-34.75 35.25 -37.45 38.05 L-37.25 37.05 Q-43.3 35.25 -42.85 30.95 -39.9 24.8 -34.75 18.2 L-30.8 9.8 -30.1 5.2 Q-34.05 4.7 -36.0 1.25 -36.5 -1.65 -34.2 -4.8 -35.4 -7.05 -34.5 -10.3 -33.2 -12.75 -29.55 -12.35 -30.4 -15.7 -27.2 -17.95 -24.15 -18.55 -22.25 -17.6 -19.7 -21.25 -17.3 -19.35 -16.0 -18.15 -15.4 -15.65 -14.9 -13.1 -14.3 -11.9 -11.25 -10.2 -10.55 -7.15 L-10.6 -7.15 Q-10.25 -5.15 -10.5 -3.8 10.6 -3.55 18.1 -7.35 M-25.8 -7.4 L-25.75 -8.9 Q-25.6 -11.4 -24.8 -12.9 -19.8 -14.1 -17.4 -6.85 -14.9 -0.6 -18.9 0.5 M-29.55 -12.35 L-27.6 -11.95 M-25.75 -8.9 Q-22.45 -10.4 -22.2 -5.4 M-27.75 -2.85 Q-25.15 2.25 -23.4 -2.5 M-26.05 -3.8 Q-23.6 -6.35 -22.3 -2.95 M-26.6 1.7 Q-30.7 0.1 -30.45 -3.1 -29.5 -6.95 -26.55 -5.7 M-10.5 -3.8 Q-10.75 -2.65 -11.4 -1.55 -8.95 1.4 -10.05 5.25 -11.1 6.3 -12.5 6.3 -9.2 10.6 -11.9 12.5 L-12.4 12.7 Q-7.9 21.35 -3.85 33.8 M-15.75 8.1 Q-16.9 9.9 -18.8 11.15 L-16.35 12.55 -12.4 12.7 M-30.1 5.2 L-28.6 5.25 -28.45 6.7 Q-28.15 8.25 -27.05 9.5 -25.9 10.9 -23.8 11.8 L-23.35 11.95 -20.8 12.05 -19.0 11.35 -18.8 11.15 M-12.5 6.3 Q-14.95 6.3 -17.85 4.65 M-30.35 35.35 Q-30.0 28.9 -26.95 22.45 -24.3 16.15 -24.55 14.05 M-27.05 9.5 Q-31.35 13.9 -34.75 18.2 M-10.3 31.65 L-10.5 32.05 -10.35 32.0 -10.3 31.65 Q-9.25 25.95 -12.55 17.25 M-28.85 18.3 Q-35.7 29.15 -37.25 37.05 M-22.2 16.35 Q-23.05 28.8 -26.75 35.8 M-18.15 19.15 Q-17.8 30.9 -18.85 34.7 M22.0 0.75 L21.7 1.55 M28.2 23.9 L29.65 28.5 M0.4 6.8 Q0.65 24.8 2.85 34.55 M26.35 30.0 Q20.1 17.95 17.2 6.35 M-21.3 -3.7 Q-17.4 4.55 -24.05 3.9" fill="none" stroke="#000000" stroke-linecap="round" stroke-linejoin="round" stroke-width="1.5"/>
  </g>
</svg>
