<?xml version="1.0" encoding="UTF-8" standalone="no"?>
<svg xmlns:xlink="http://www.w3.org/1999/xlink" height="46.6px" width="84.3px" xmlns="http://www.w3.org/2000/svg">
  <g transform="matrix(1.0, 0.0, 0.0, 1.0, 43.6, 21.55)">
    <path d="M31.5 1.15 L34.8 4.1 34.45 4.45 Q31.05 7.5 26.0 7.2 22.8 6.5 19.05 9.5 12.95 14.55 4.1 10.8 0.7 9.05 -4.8 11.85 -12.9 14.45 -16.65 11.85 -20.45 9.2 -25.15 10.55 L-33.05 10.35 Q-35.8 8.95 -37.5 8.9 L-38.05 8.9 -36.4 6.55 Q-34.05 6.5 -31.3 8.45 -30.65 4.85 -34.5 4.15 L-32.65 2.05 Q-29.05 2.75 -28.9 5.55 -27.0 2.7 -22.85 2.95 -20.4 3.45 -18.85 6.0 -17.05 3.45 -14.6 3.8 -10.9 4.6 -9.9 7.65 -9.4 4.75 -5.8 4.2 -3.35 4.1 -2.05 6.3 -0.85 3.05 2.55 3.3 6.6 4.0 7.35 7.2 8.55 4.1 11.5 3.85 14.4 3.9 15.7 5.8 16.0 2.05 19.5 1.5 22.6 0.95 24.4 3.25 24.15 0.6 26.05 -0.1 29.2 -0.75 31.5 1.15 M27.45 4.5 Q29.5 4.35 31.2 3.45 29.8 1.35 27.8 1.95 26.85 2.95 27.45 4.5 M18.55 6.4 Q20.5 5.25 22.5 4.85 21.45 3.15 19.6 3.8 18.0 4.2 18.55 6.4 M9.4 9.45 Q12.3 9.7 14.6 8.75 13.4 6.6 11.8 6.55 9.3 7.15 9.4 9.45 M0.3 7.55 Q2.55 7.55 4.8 8.3 4.35 6.15 2.6 5.55 1.0 5.55 0.3 7.55 M-6.5 9.2 Q-5.15 8.5 -3.8 8.2 -4.3 6.95 -6.05 6.8 -8.05 7.55 -8.05 9.85 -7.3 9.6 -6.5 9.2 M-16.5 8.65 Q-14.45 10.2 -12.1 10.45 -12.3 7.9 -14.35 6.75 -16.05 6.15 -16.9 8.35 L-16.5 8.65 M-27.05 8.2 Q-24.05 6.75 -21.4 6.95 -21.95 5.35 -23.75 5.15 -26.6 5.55 -27.15 8.3 L-27.05 8.2" fill="#faff9f" fill-rule="evenodd" stroke="none"/>
    <path d="M13.15 -17.45 Q13.3 -16.95 12.95 -16.55 12.65 -16.2 12.1 -16.05 11.6 -16.05 11.15 -16.4 10.8 -16.65 10.65 -17.15 10.6 -17.65 10.9 -18.05 11.2 -18.45 11.7 -18.45 L12.65 -18.3 Q13.1 -17.95 13.15 -17.45 M13.9 -14.1 Q14.0 -13.6 13.65 -13.25 13.4 -12.8 12.85 -12.75 12.35 -12.7 11.9 -13.0 11.5 -13.35 11.4 -13.9 11.35 -14.4 11.6 -14.8 L12.45 -15.25 13.4 -14.95 Q13.85 -14.7 13.9 -14.1 M-2.15 -16.0 Q-2.15 -15.5 -2.55 -15.15 -2.9 -14.8 -3.45 -14.8 -3.95 -14.85 -4.35 -15.25 L-4.65 -16.15 -4.35 -17.0 -3.45 -17.25 Q-2.9 -17.25 -2.55 -16.9 -2.15 -16.55 -2.15 -16.0 M-1.95 -12.65 Q-1.95 -12.15 -2.35 -11.85 -2.65 -11.45 -3.25 -11.5 -3.75 -11.5 -4.1 -11.95 -4.45 -12.25 -4.45 -12.8 L-4.1 -13.65 -3.25 -13.95 Q-2.65 -13.9 -2.35 -13.55 -1.95 -13.2 -1.95 -12.65" fill="#ffffff" fill-opacity="0.4392157" fill-rule="evenodd" stroke="none"/>
    <path d="M13.15 -17.45 Q13.3 -16.95 12.95 -16.55 12.65 -16.2 12.1 -16.05 11.6 -16.05 11.15 -16.4 10.8 -16.65 10.65 -17.15 10.6 -17.65 10.9 -18.05 11.2 -18.45 11.7 -18.45 L12.65 -18.3 Q13.1 -17.95 13.15 -17.45 M13.9 -14.1 Q14.0 -13.6 13.65 -13.25 13.4 -12.8 12.85 -12.75 12.35 -12.7 11.9 -13.0 11.5 -13.35 11.4 -13.9 11.35 -14.4 11.6 -14.8 L12.45 -15.25 13.4 -14.95 Q13.85 -14.7 13.9 -14.1 M-2.15 -16.0 Q-2.15 -15.5 -2.55 -15.15 -2.9 -14.8 -3.45 -14.8 -3.95 -14.85 -4.35 -15.25 L-4.65 -16.15 -4.35 -17.0 -3.45 -17.25 Q-2.9 -17.25 -2.55 -16.9 -2.15 -16.55 -2.15 -16.0 M-1.95 -12.65 Q-1.95 -12.15 -2.35 -11.85 -2.65 -11.45 -3.25 -11.5 -3.75 -11.5 -4.1 -11.95 -4.45 -12.25 -4.45 -12.8 L-4.1 -13.65 -3.25 -13.95 Q-2.65 -13.9 -2.35 -13.55 -1.95 -13.2 -1.95 -12.65" fill="none" stroke="#000000" stroke-linecap="round" stroke-linejoin="round" stroke-width="1.0"/>
    <path d="M-32.65 2.05 Q-26.4 -5.5 -17.85 -12.6 L-17.9 -12.6 Q-17.55 -15.95 -16.3 -19.3 -11.05 -18.05 2.6 -18.8 12.15 -19.3 14.0 -20.8 16.1 -14.85 16.1 -12.65 L31.5 1.15 34.8 4.1 34.45 4.45 Q39.4 7.5 39.95 9.85 40.15 11.15 37.85 11.35 40.35 13.35 38.6 14.8 36.85 16.1 35.0 14.85 36.1 17.5 34.1 18.3 30.45 19.25 28.1 17.35 28.45 19.9 25.7 21.0 21.5 21.3 19.5 19.5 19.05 20.0 18.4 20.35 18.95 22.95 17.1 23.1 13.45 23.0 11.65 21.15 L11.15 21.2 10.0 20.85 Q9.1 24.25 6.6 24.3 3.55 24.0 2.1 21.7 1.0 24.6 -1.6 23.95 -5.0 23.35 -6.0 20.9 L-7.55 21.25 Q-9.25 24.65 -11.35 24.05 -13.95 23.0 -14.4 21.25 -17.0 23.85 -19.0 23.5 -22.25 22.5 -23.15 19.65 -26.5 22.95 -29.0 22.25 -31.75 21.05 -31.45 17.8 -34.55 19.9 -37.5 18.8 -39.95 17.0 -39.35 14.7 -42.0 15.55 -42.85 13.2 -42.0 11.0 -38.05 8.9 L-36.4 6.55 -34.5 4.15 -32.65 2.05 M16.1 -12.65 Q13.4 -11.05 1.95 -10.45 -12.35 -9.85 -17.85 -12.6 M19.5 19.5 Q20.7 17.9 19.95 14.05 23.7 17.55 27.6 16.95 30.05 15.8 28.1 11.0 30.55 13.9 34.5 14.2 39.0 13.45 33.8 7.75 M34.45 4.45 Q31.05 7.5 26.0 7.2 22.8 6.5 19.05 9.5 12.95 14.55 4.1 10.8 0.7 9.05 -4.8 11.85 -12.9 14.45 -16.65 11.85 -20.45 9.2 -25.15 10.55 L-33.05 10.35 Q-35.8 8.95 -37.5 8.9 -39.6 13.95 -37.0 15.8 -32.75 16.0 -30.5 13.05 -31.85 16.45 -30.1 18.2 -26.65 18.45 -24.4 14.3 -25.05 18.45 -23.15 19.65 -19.5 19.6 -16.5 15.15 -17.25 19.9 -14.4 21.25 -11.35 21.0 -9.55 15.8 -9.5 20.4 -6.65 20.85 L-6.0 20.9 Q-2.85 20.55 -0.4 15.75 0.0 20.8 3.95 21.7 7.05 21.7 7.55 16.25 7.9 19.7 10.0 20.85 M11.65 21.15 Q14.2 20.5 13.2 16.0 15.35 21.05 18.4 20.35 M-37.5 8.9 L-38.05 8.9" fill="none" stroke="#000000" stroke-linecap="round" stroke-linejoin="round" stroke-width="1.5"/>
  </g>
</svg>
