<?xml version="1.0" encoding="UTF-8" standalone="no"?>
<svg xmlns:xlink="http://www.w3.org/1999/xlink" height="52.85px" width="92.1px" xmlns="http://www.w3.org/2000/svg">
  <g transform="matrix(1.0, 0.0, 0.0, 1.0, 49.1, 9.65)">
    <path d="M8.55 0.0 L8.2 0.85 7.4 1.2 Q6.95 1.2 6.6 0.85 6.25 0.5 6.25 0.0 6.25 -0.45 6.6 -0.8 6.95 -1.15 7.4 -1.15 L8.2 -0.8 8.55 0.0 M12.8 -1.3 L12.95 0.2 13.0 0.7 12.35 0.9 Q11.95 0.9 11.6 0.55 11.25 0.2 11.25 -0.25 11.25 -0.7 11.6 -1.05 11.95 -1.4 12.35 -1.4 L12.8 -1.3" fill="#333333" fill-rule="evenodd" stroke="none"/>
    <path d="M2.55 -3.55 L2.7 1.25 Q1.05 2.2 -2.1 2.15 L-5.25 1.9 -4.55 -3.55 2.55 -3.55" fill="#eec9b3" fill-rule="evenodd" stroke="none"/>
    <path d="M2.5 4.05 L-5.55 3.95 -5.4 2.95 -5.25 1.9 -2.1 2.15 Q1.05 2.2 2.7 1.25 L2.5 4.05" fill="#ad887a" fill-rule="evenodd" stroke="none"/>
    <path d="M12.95 0.2 L13.15 1.65 13.0 0.7 12.95 0.2" fill="#6593c6" fill-rule="evenodd" stroke="none"/>
    <path d="M2.55 -3.55 L7.4 -3.7 12.5 -4.05 12.35 -5.55 M12.5 -4.05 L12.8 -1.3 12.95 0.2 13.15 1.65 13.35 3.45 7.6 3.9 2.5 4.05 -5.55 3.95 -5.8 5.35 -7.75 14.7 -8.2 16.25 -8.65 17.95 -9.25 19.9 Q-12.8 31.35 -16.35 35.8 -17.45 41.65 -22.15 42.3 -25.9 42.35 -27.9 39.1 -30.95 41.6 -34.7 41.2 -38.05 40.95 -38.35 36.5 -42.65 38.05 -44.95 36.8 -47.85 35.35 -45.9 31.3 -49.6 28.85 -47.3 26.25 -45.2 23.6 -42.15 23.55 L-42.15 23.5 Q-34.0 15.4 -19.5 -7.35 M25.95 6.05 Q24.8 7.6 21.75 8.3 20.55 7.75 20.15 4.75 M19.5 -8.75 Q25.3 4.55 30.0 12.9 34.7 21.05 37.9 24.05 L37.9 24.1 Q44.95 27.1 40.1 29.4 41.0 32.55 39.6 33.6 37.85 34.55 36.2 33.95 36.6 36.05 35.15 37.1 32.65 38.55 30.1 36.9 28.65 39.6 25.8 39.55 22.85 39.5 21.75 34.25 L21.6 33.9 20.55 31.7 20.5 31.5 13.45 3.95 M21.75 34.25 Q26.85 33.3 31.8 30.5 36.7 27.7 37.9 24.1 M-5.25 1.9 L-5.4 2.95 -5.55 3.95 M-4.45 -4.8 L-4.55 -3.55 2.55 -3.55 M-24.9 4.75 Q-27.05 7.2 -26.7 8.1 -24.75 9.95 -18.05 11.05 -16.75 10.9 -15.65 7.4 M-42.15 23.55 Q-41.25 29.2 -33.55 32.3 -25.85 35.4 -16.35 35.8 M-4.55 -3.55 L-5.25 1.9" fill="none" stroke="#000000" stroke-linecap="round" stroke-linejoin="round" stroke-width="1.8"/>
    <path d="M8.55 0.0 L8.2 0.85 7.4 1.2 Q6.95 1.2 6.6 0.85 6.25 0.5 6.25 0.0 6.25 -0.45 6.6 -0.8 6.95 -1.15 7.4 -1.15 L8.2 -0.8 8.55 0.0 M13.0 0.7 L12.35 0.9 Q11.95 0.9 11.6 0.55 11.25 0.2 11.25 -0.25 11.25 -0.7 11.6 -1.05 11.95 -1.4 12.35 -1.4 L12.8 -1.3 M2.7 1.25 L2.5 4.05 M2.55 -3.55 L2.7 1.25" fill="none" stroke="#000000" stroke-linecap="round" stroke-linejoin="round" stroke-width="1.0"/>
  </g>
</svg>
