<?xml version="1.0" encoding="UTF-8" standalone="no"?>
<svg xmlns:xlink="http://www.w3.org/1999/xlink" height="46.25px" width="85.1px" xmlns="http://www.w3.org/2000/svg">
  <g transform="matrix(1.0, 0.0, 0.0, 1.0, 44.55, 22.55)">
    <path d="M12.4 -13.9 L14.15 -14.55 13.95 -16.1 15.35 -16.65 14.9 -18.6 13.4 -18.15 13.05 -19.65 11.25 -19.1 11.6 -17.5 10.05 -16.9 10.5 -15.25 12.0 -15.7 12.4 -13.9 M16.9 -14.15 L16.9 -14.1 Q14.15 -11.75 3.95 -11.2 -5.4 -10.7 -16.15 -13.0 L-18.2 -13.45 -16.15 -13.0 Q-5.4 -10.7 3.95 -11.2 14.15 -11.75 16.9 -14.1 L16.9 -14.15 20.35 -11.65 Q22.0 -9.2 20.95 -6.75 24.65 -3.55 21.3 -0.9 23.3 1.9 22.6 3.2 21.85 4.5 19.6 5.35 21.75 11.3 14.4 9.65 12.35 15.15 6.6 10.55 1.85 15.2 -1.1 9.3 -8.35 12.15 -8.6 5.9 -12.45 5.95 -13.65 4.5 -14.85 2.95 -13.75 -0.5 -19.6 -2.1 -16.95 -7.0 -22.55 -9.5 -18.2 -13.45 -18.85 -15.35 -17.05 -21.45 -9.8 -20.2 -0.25 -20.0 9.25 -19.85 14.75 -21.8 16.95 -17.3 16.9 -14.15 M-40.1 7.05 Q-35.55 7.3 -30.65 11.25 -25.45 15.4 -18.15 16.5 -20.0 13.55 -19.2 11.25 L-19.15 11.25 Q-5.65 17.65 7.35 17.35 20.4 17.05 27.25 10.5 L27.95 10.7 Q28.7 11.25 28.25 13.7 29.15 14.6 33.05 11.05 L37.45 7.15 37.95 7.4 39.6 9.8 Q40.8 11.9 34.55 13.65 33.2 17.2 31.0 17.4 28.75 17.55 26.6 16.1 25.15 19.4 21.8 18.4 17.95 22.1 14.85 19.9 13.5 22.9 11.05 22.8 8.6 22.65 7.0 21.25 3.2 24.7 -0.4 21.05 -2.0 24.5 -7.8 20.0 -12.45 23.5 -14.55 17.95 -15.45 20.45 -18.0 21.2 -20.6 21.9 -22.95 18.55 -29.8 23.1 -30.9 15.65 -37.65 19.05 -38.4 12.95 -43.15 11.7 -43.8 9.55 L-40.1 7.05 M16.9 -14.1 Q22.65 5.65 8.6 7.95 -11.3 8.0 -16.15 -13.0 -11.3 8.0 8.6 7.95 22.65 5.65 16.9 -14.1 M-11.0 -13.75 L-8.75 -13.35 -8.5 -14.9 -6.65 -14.65 -6.45 -16.6 -8.25 -16.85 -8.0 -18.55 -10.25 -18.8 -10.5 -17.15 -12.5 -17.45 -12.8 -15.5 -10.75 -15.2 -11.0 -13.75" fill="#ffffff" fill-rule="evenodd" stroke="none"/>
    <path d="M-18.2 -13.45 L-16.15 -13.0 Q-5.4 -10.7 3.95 -11.2 14.15 -11.75 16.9 -14.1 L16.9 -14.15 Q16.95 -17.3 14.75 -21.8 9.25 -19.85 -0.25 -20.0 -9.8 -20.2 -17.05 -21.45 -18.85 -15.35 -18.2 -13.45 -22.55 -9.5 -16.95 -7.0 -19.6 -2.1 -13.75 -0.5 -14.85 2.95 -13.65 4.5 -12.45 5.95 -8.6 5.9 -8.35 12.15 -1.1 9.3 1.85 15.2 6.6 10.55 12.35 15.15 14.4 9.65 21.75 11.3 19.6 5.35 21.85 4.5 22.6 3.2 23.3 1.9 21.3 -0.9 24.65 -3.55 20.95 -6.75 22.0 -9.2 20.35 -11.65 L16.9 -14.15 M-40.1 7.05 L-43.8 9.55 Q-43.15 11.7 -38.4 12.95 -37.65 19.05 -30.9 15.65 -29.8 23.1 -22.95 18.55 -20.6 21.9 -18.0 21.2 -15.45 20.45 -14.55 17.95 -12.45 23.5 -7.8 20.0 -2.0 24.5 -0.4 21.05 3.2 24.7 7.0 21.25 8.6 22.65 11.05 22.8 13.5 22.9 14.85 19.9 17.95 22.1 21.8 18.4 25.15 19.4 26.6 16.1 28.75 17.55 31.0 17.4 33.2 17.2 34.55 13.65 40.8 11.9 39.6 9.8 L37.95 7.4 37.45 7.15 33.05 11.05 Q29.15 14.6 28.25 13.7 28.7 11.25 27.95 10.7 L27.25 10.5 Q20.4 17.05 7.35 17.35 -5.65 17.65 -19.15 11.25 L-19.2 11.25 Q-20.0 13.55 -18.15 16.5 -25.45 15.4 -30.65 11.25 -35.55 7.3 -40.1 7.05 -32.05 -5.7 -18.2 -13.45 M-16.15 -13.0 Q-11.3 8.0 8.6 7.95 22.65 5.65 16.9 -14.1 M20.35 -11.65 Q32.65 -2.4 37.45 7.15" fill="none" stroke="#000000" stroke-linecap="round" stroke-linejoin="round" stroke-width="1.5"/>
    <path d="M12.4 -13.9 L14.15 -14.55 13.95 -16.1 15.35 -16.65 14.9 -18.6 13.4 -18.15 13.05 -19.65 11.25 -19.1 11.6 -17.5 10.05 -16.9 10.5 -15.25 12.0 -15.7 12.4 -13.9 M-11.0 -13.75 L-10.75 -15.2 -12.8 -15.5 -12.5 -17.45 -10.5 -17.15 -10.25 -18.8 -8.0 -18.55 -8.25 -16.85 -6.45 -16.6 -6.65 -14.65 -8.5 -14.9 -8.75 -13.35 -11.0 -13.75" fill="none" stroke="#000000" stroke-linecap="round" stroke-linejoin="round" stroke-width="1.0"/>
  </g>
</svg>
