<?xml version="1.0" encoding="UTF-8" standalone="no"?>
<svg xmlns:xlink="http://www.w3.org/1999/xlink" height="33.25px" width="72.95px" xmlns="http://www.w3.org/2000/svg">
  <g transform="matrix(1.0, 0.0, 0.0, 1.0, 37.75, 8.9)">
    <path d="M-21.05 -4.65 Q-13.0 -3.05 0.95 -2.7 14.85 -2.4 20.2 -5.3" fill="none" stroke="#000000" stroke-linecap="round" stroke-linejoin="round" stroke-opacity="0.49803922" stroke-width="1.0"/>
    <path d="M20.2 -5.3 Q20.15 -7.2 19.05 -8.15 7.3 -3.95 -20.2 -7.9 -21.4 -6.35 -21.05 -4.65 -28.05 3.1 -31.25 9.7 L-31.1 9.7 Q-28.7 10.0 -27.9 11.85 -24.6 11.45 -23.05 13.4 -21.65 12.05 -18.65 12.25 -15.6 12.5 -13.05 14.3 -8.15 12.6 -5.1 14.75 -1.45 12.9 2.15 15.65 2.2 13.65 5.75 13.15 8.4 13.2 10.9 14.65 11.4 12.8 15.05 12.6 17.7 12.6 18.65 14.0 19.75 11.95 22.25 11.45 24.7 10.55 26.65 12.05 26.55 10.85 27.85 10.25 28.35 9.95 29.15 9.8 31.9 10.25 32.05 12.05 34.8 12.6 34.4 14.8 33.9 16.95 31.8 16.75 32.2 18.0 30.2 19.0 28.25 19.5 26.75 18.95 25.75 22.4 21.6 20.15 21.3 22.3 18.4 22.8 15.55 23.05 13.45 21.6 9.55 25.25 4.3 21.7 3.25 23.25 0.3 23.6 -3.9 23.75 -5.8 21.5 -6.7 23.05 -9.55 23.15 -13.2 23.15 -14.2 20.85 -16.75 22.65 -19.5 22.15 -22.7 21.35 -23.25 19.6 -26.1 21.1 -28.05 20.75 -29.95 20.3 -30.55 18.4 -33.7 19.5 -35.3 18.7 -36.85 17.8 -36.0 16.1 -37.3 15.4 -36.9 13.6 -36.5 11.7 -34.25 11.9 -33.55 9.4 -31.25 9.7 M20.2 -5.3 Q25.35 3.3 27.85 10.25" fill="none" stroke="#000000" stroke-linecap="round" stroke-linejoin="round" stroke-width="1.5"/>
  </g>
</svg>
