<?xml version="1.0" encoding="UTF-8" standalone="no"?>
<svg xmlns:xlink="http://www.w3.org/1999/xlink" height="18.4px" width="45.55px" xmlns="http://www.w3.org/2000/svg">
  <g transform="matrix(1.0, 0.0, 0.0, 1.0, 23.55, 11.5)">
    <path d="M-6.1 5.25 Q-4.55 6.3 -1.85 6.15 7.75 5.25 21.25 0.25 21.0 -3.3 18.55 -9.65 7.15 -6.05 -1.05 -4.75 L-2.95 -4.25 Q-7.65 -2.65 -8.0 1.65 -7.7 4.1 -6.1 5.25 L-9.85 3.75 Q-20.7 -0.2 -22.8 -3.25 -21.7 -6.55 -19.25 -10.75 -14.6 -7.2 -2.95 -4.25 M0.65 1.1 L-1.05 1.45 M1.3 -3.8 L2.7 4.85 M7.8 -5.0 L9.7 3.35 M15.25 1.25 L13.5 -6.4" fill="none" stroke="#000000" stroke-linecap="round" stroke-linejoin="round" stroke-width="1.5"/>
  </g>
</svg>
