<?xml version="1.0" encoding="UTF-8" standalone="no"?>
<svg xmlns:xlink="http://www.w3.org/1999/xlink" height="39.2px" width="56.7px" xmlns="http://www.w3.org/2000/svg">
  <g transform="matrix(1.0, 0.0, 0.0, 1.0, 30.45, 9.45)">
    <path d="M13.6 6.05 Q16.65 13.4 17.7 20.4 L17.75 20.9 17.95 22.9 18.0 23.45 18.1 25.15 Q22.3 25.2 25.5 22.75 L25.35 20.3 25.1 17.9 Q23.75 7.4 17.75 -5.15 12.4 -3.7 2.7 -3.4 -10.25 -3.2 -19.1 -5.15 L-28.75 17.75 -29.4 19.8 -29.7 21.7 Q-28.3 23.25 -24.6 23.8 L-24.45 22.95 -24.3 22.15 -23.95 20.8 -23.75 20.0 Q-22.1 13.4 -17.95 3.6 M-19.1 -5.15 Q-19.05 -7.8 -18.0 -8.65 -11.05 -6.8 3.3 -6.7 11.9 -7.2 16.4 -8.7 18.0 -7.1 17.75 -5.15 M-2.25 8.0 Q-2.45 18.3 -3.35 24.25 L-3.8 26.4 -4.3 28.4 4.4 28.9 Q7.45 28.5 8.35 27.45 L8.25 26.95 8.05 25.25 8.0 24.75 7.7 22.9 7.65 22.55 Q6.75 16.75 5.8 7.85 M-11.5 6.05 Q-14.95 15.85 -16.3 22.45 L-16.65 24.4 -16.95 26.4 Q-10.8 29.85 -4.3 28.4 M-24.6 23.8 L-24.75 24.65 Q-21.85 27.3 -16.95 26.4 M8.25 26.95 Q13.45 28.1 18.15 25.65 L18.1 25.15" fill="none" stroke="#000000" stroke-linecap="round" stroke-linejoin="round" stroke-width="1.5"/>
  </g>
</svg>
