<?xml version="1.0" encoding="UTF-8" standalone="no"?>
<svg xmlns:xlink="http://www.w3.org/1999/xlink" height="45.1px" width="60.85px" xmlns="http://www.w3.org/2000/svg">
  <g transform="matrix(1.0, 0.0, 0.0, 1.0, 32.0, 10.05)">
    <path d="M18.7 -5.05 L18.9 -4.35 Q23.85 5.9 26.75 15.9 L27.25 17.75 28.1 21.1 Q27.65 22.9 25.3 24.3 L25.65 27.65 Q22.2 31.95 15.15 30.7 L14.85 32.95 Q10.0 35.55 2.85 31.95 L2.6 32.9 Q-3.7 35.8 -8.35 32.65 L-8.45 33.15 Q-17.95 34.85 -19.75 30.1 L-19.8 29.9 -19.75 29.8 Q-25.3 30.15 -27.25 26.9 -29.25 23.65 -29.35 22.0 L-29.25 21.7 Q-31.15 19.5 -31.25 17.3 L-30.1 14.05 -29.4 12.15 Q-25.5 1.75 -20.05 -7.3 L-20.05 -7.35 -20.0 -7.4 -20.05 -7.45 -18.8 -9.3 Q-3.8 -6.4 4.7 -6.8 L17.25 -8.05 Q18.35 -7.55 18.55 -6.25 L18.4 -6.15 18.7 -5.05 M-20.0 -7.4 Q-12.45 -4.15 3.7 -4.0 14.95 -4.45 18.4 -6.15 M25.3 24.3 L25.1 23.1 24.6 20.25 24.15 17.9 Q22.1 7.3 18.9 -4.35 M15.15 30.7 L15.5 26.8 15.55 26.2 15.65 24.25 15.65 23.75 Q16.2 11.05 14.6 -4.4 M2.85 31.95 L3.45 27.5 3.75 24.95 Q5.5 10.65 6.65 -2.1 M-19.75 29.8 L-18.85 25.0 -18.75 24.4 -18.4 22.5 -18.25 21.95 Q-15.7 9.45 -11.75 -3.65 M-29.25 21.7 L-28.25 18.65 -27.95 17.7 -27.6 16.6 -27.35 15.9 Q-23.55 4.55 -19.0 -5.65 M-19.75 30.1 L-19.75 29.8 M-8.35 32.65 L-7.4 26.85 -6.95 24.25 -2.1 -2.65" fill="none" stroke="#000000" stroke-linecap="round" stroke-linejoin="round" stroke-width="1.5"/>
  </g>
</svg>
