<?xml version="1.0" encoding="UTF-8" standalone="no"?>
<svg xmlns:xlink="http://www.w3.org/1999/xlink" height="37.35px" width="74.15px" xmlns="http://www.w3.org/2000/svg">
  <g transform="matrix(1.0, 0.0, 0.0, 1.0, 37.1, 18.65)">
    <path d="M12.05 -12.2 L11.7 -12.95 11.0 -13.25 Q10.6 -13.25 10.35 -12.95 10.1 -12.65 10.1 -12.2 10.1 -11.8 10.35 -11.55 10.6 -11.3 11.0 -11.3 L11.7 -11.55 12.05 -12.2 M-1.35 8.7 L-1.8 8.8 -5.8 8.8 -7.0 6.25 -10.45 -1.85 -11.8 -3.3 Q-11.7 -2.9 -12.35 -2.8 -13.0 -3.2 -13.45 -4.0 L-15.4 -4.05 -15.4 -4.45 -19.5 -3.25 -21.35 -2.9 Q-25.3 0.05 -27.65 2.6 -29.85 0.7 -30.35 -1.4 L-26.6 -4.7 -26.65 -4.05 -15.4 -5.25 -14.95 -7.25 -14.0 -9.75 -14.0 -9.8 Q-15.95 -11.75 -18.5 -13.65 -20.85 -15.45 -23.75 -17.15 L-22.95 -18.65 Q-20.05 -16.95 -16.75 -13.8 -13.45 -13.4 -5.2 -13.85 8.15 -15.15 15.85 -14.45 L19.25 -14.2 Q20.45 -12.35 20.9 -9.1 26.0 -5.2 30.15 -0.55 27.25 -0.25 23.7 3.5 L24.6 5.35 Q28.0 1.75 31.3 0.75 L33.6 3.45 Q30.25 3.8 26.0 8.0 L26.95 9.65 Q31.15 5.8 34.55 4.7 L37.05 8.05 37.0 8.05 Q33.1 7.35 28.9 12.55 29.1 13.35 29.65 13.75 L21.35 17.15 Q21.45 16.3 20.5 15.1 6.5 12.65 -2.15 16.05 -2.95 17.75 -1.3 18.7 L-10.85 18.5 Q-9.4 17.9 -9.8 15.7 -18.9 10.5 -30.1 11.95 -31.35 12.85 -31.6 13.65 -36.3 9.2 -37.1 6.1 L-36.8 5.65 -35.2 3.75 Q-33.8 7.75 -29.0 10.15 L-28.1 8.7 Q-25.05 8.45 -21.9 8.7 L-23.35 6.8 -26.9 6.8 -27.85 8.35 Q-32.75 5.8 -33.95 2.35 L-31.7 0.0 Q-30.9 2.3 -29.0 4.05 L-30.6 6.45 -28.85 6.35 -27.75 5.05 -26.4 3.55 Q-23.85 0.8 -21.1 -1.25 L-18.65 -2.95 -23.1 2.75 -24.35 4.65 -25.2 6.0 -23.9 5.8 -23.45 6.7 -22.0 4.6 -20.7 2.8 -15.8 -2.9 -21.2 9.65 -20.0 11.0 -19.3 9.0 -14.7 9.85 -14.5 13.15 -13.25 12.15 -13.45 10.2 -13.55 8.15 -13.6 5.75 -13.55 3.85 -13.15 -0.85 -12.35 4.2 -11.9 6.2 -11.3 8.8 -10.75 10.65 -11.15 10.9 -8.5 11.8 -8.15 10.6 -8.8 10.3 -9.05 9.55 -9.9 6.85 -10.45 4.85 Q-11.1 2.1 -11.35 -0.6 L-6.3 11.25 -4.3 11.8 -4.85 10.7 -1.7 10.8 -1.35 8.7 Q7.9 6.7 18.85 7.95 L19.25 9.45 Q23.9 8.9 25.35 6.8 L24.6 5.35 24.55 5.35 24.15 5.6 Q21.3 7.1 18.85 7.95 L18.3 6.1 Q7.85 4.6 -1.0 6.8 L-1.35 8.7 M4.7 -9.05 L4.4 -9.75 3.75 -10.0 3.05 -9.75 Q2.8 -9.5 2.8 -9.05 2.8 -8.65 3.05 -8.35 3.35 -8.05 3.75 -8.05 4.15 -8.05 4.4 -8.35 L4.7 -9.05 M4.55 -12.1 L4.25 -12.8 3.55 -13.05 2.85 -12.8 Q2.6 -12.55 2.6 -12.1 2.6 -11.7 2.85 -11.4 L3.55 -11.1 Q3.95 -11.1 4.25 -11.4 L4.55 -12.1 M-10.5 -8.6 L-10.8 -6.8 -11.6 -3.8 Q-9.0 -1.75 -5.65 0.1 L-1.1 2.35 -0.05 0.35 Q-6.5 -2.15 -10.6 -5.1 -5.75 -3.6 1.0 -2.5 L1.5 -4.6 Q-5.8 -5.5 -9.8 -6.65 L-9.45 -6.75 Q-3.95 -8.3 1.9 -7.7 L1.95 -9.85 Q-4.1 -10.35 -10.5 -8.6 M-18.65 7.15 L-17.75 4.9 -14.7 5.5 -14.7 7.85 -18.65 7.15 M-24.45 -15.55 L-19.85 -12.3 -15.15 -8.7 -20.65 -10.35 -25.8 -11.5 -24.45 -15.55 M-26.2 -9.6 L-21.55 -8.5 -16.05 -7.0 -25.1 -5.9 -26.6 -5.9 -26.2 -9.6 M12.15 -9.45 L11.85 -10.1 11.15 -10.4 Q10.75 -10.4 10.5 -10.1 10.2 -9.85 10.2 -9.45 10.2 -9.0 10.5 -8.7 10.75 -8.45 11.15 -8.45 L11.85 -8.7 Q12.15 -9.0 12.15 -9.45 M-14.0 -2.85 L-14.6 3.6 -17.0 3.15 -14.0 -2.85 M-1.95 12.85 L-8.7 12.4 -9.1 13.75 Q-7.3 15.0 -2.15 14.4 L-1.95 12.85 Q8.55 10.75 19.8 11.9 L19.85 11.9 20.15 13.25 Q26.5 12.9 27.55 10.75 L26.95 9.65 26.55 9.75 Q23.7 11.15 19.85 11.9 L19.5 10.35 Q8.65 8.65 -1.75 11.15 L-1.95 12.85" fill="#f09963" fill-rule="evenodd" stroke="none"/>
  </g>
</svg>
