<?xml version="1.0" encoding="UTF-8" standalone="no"?>
<svg xmlns:xlink="http://www.w3.org/1999/xlink" height="31.75px" width="69.75px" xmlns="http://www.w3.org/2000/svg">
  <g transform="matrix(1.0, 0.0, 0.0, 1.0, 34.9, 15.9)">
    <path d="M4.85 -10.85 L4.55 -10.15 Q4.25 -9.85 3.85 -9.85 3.5 -9.85 3.15 -10.15 L2.9 -10.85 3.15 -11.55 3.85 -11.8 4.55 -11.55 4.85 -10.85 M-10.2 -7.35 Q-3.8 -9.1 2.25 -8.6 L2.2 -6.45 Q-3.65 -7.05 -9.15 -5.5 L-9.5 -5.4 Q-5.5 -4.25 1.8 -3.35 L1.3 -1.25 Q-5.45 -2.35 -10.3 -3.85 -6.2 -0.9 0.25 1.6 L-0.8 3.6 -5.35 1.35 Q-8.7 -0.5 -11.3 -2.55 L-10.5 -5.55 -10.2 -7.35 M5.0 -7.8 L4.7 -7.1 Q4.45 -6.8 4.05 -6.8 3.65 -6.8 3.35 -7.1 3.1 -7.4 3.1 -7.8 3.1 -8.25 3.35 -8.5 L4.05 -8.75 4.7 -8.5 5.0 -7.8 M12.35 -10.95 Q12.35 -10.55 12.0 -10.3 11.7 -10.05 11.3 -10.05 10.9 -10.05 10.65 -10.3 10.4 -10.55 10.4 -10.95 10.4 -11.4 10.65 -11.7 L11.3 -12.0 12.0 -11.7 Q12.35 -11.4 12.35 -10.95 M12.45 -8.2 L12.15 -7.45 11.45 -7.2 Q11.05 -7.2 10.8 -7.45 10.5 -7.75 10.5 -8.2 10.5 -8.6 10.8 -8.85 11.05 -9.15 11.45 -9.15 L12.15 -8.85 12.45 -8.2 M24.9 6.6 L24.0 4.75 Q27.55 1.0 30.45 0.7 L31.6 2.0 Q28.3 3.0 24.9 6.6 L25.65 8.05 Q24.2 10.15 19.55 10.7 L19.15 9.2 Q8.2 7.95 -1.05 9.95 L-1.4 12.05 -4.55 11.95 -4.0 13.05 -6.0 12.5 -11.05 0.65 Q-10.8 3.35 -10.15 6.1 L-9.6 8.1 -8.75 10.8 -8.5 11.55 -7.85 11.85 -8.2 13.05 -10.85 12.15 -10.45 11.9 -11.0 10.05 -11.6 7.45 -12.05 5.45 -12.85 0.4 -13.25 5.1 -13.3 7.0 -13.25 9.4 -13.15 11.45 -12.95 13.4 -14.2 14.4 -14.4 11.1 -19.0 10.25 -19.7 12.25 -20.9 10.9 -15.5 -1.65 Q-18.0 0.85 -20.4 4.05 L-21.7 5.85 -23.15 7.95 -23.6 7.05 -24.9 7.25 -24.05 5.9 -22.8 4.0 Q-20.8 1.1 -18.35 -1.7 L-20.8 0.0 Q-23.55 2.05 -26.1 4.8 L-27.45 6.3 -28.55 7.6 -30.3 7.7 -28.7 5.3 Q-30.6 3.55 -31.4 1.25 L-30.05 -0.15 Q-29.55 1.95 -27.35 3.85 -25.0 1.3 -21.05 -1.65 L-19.2 -2.0 -15.1 -3.2 -15.1 -2.8 -13.15 -2.75 -12.05 -1.55 Q-11.4 -1.65 -11.5 -2.05 L-10.15 -0.6 -6.7 7.5 -5.5 10.05 -1.5 10.05 -1.05 9.95 -0.7 8.05 Q8.15 5.85 18.6 7.35 L19.15 9.2 24.45 6.85 24.85 6.6 24.9 6.6 M27.25 10.9 L26.3 9.25 Q30.55 5.05 33.9 4.7 L34.85 5.95 Q31.45 7.05 27.25 10.9 L27.85 12.0 Q26.8 14.15 20.45 14.5 L20.15 13.15 20.1 13.15 Q8.85 12.0 -1.65 14.1 L-1.85 15.65 Q-7.0 16.25 -8.8 15.0 L-8.4 13.65 -1.65 14.1 -1.45 12.4 Q8.95 9.9 19.8 11.6 L20.15 13.15 Q24.0 12.4 26.85 11.0 L27.25 10.9 M-23.45 -15.9 Q-20.55 -14.2 -18.2 -12.4 -15.65 -10.5 -13.7 -8.55 L-13.7 -8.5 -14.65 -6.0 -15.1 -4.0 -26.35 -2.8 -26.3 -3.45 -26.3 -4.65 -24.8 -4.65 -15.75 -5.75 -21.25 -7.25 -25.9 -8.35 -25.5 -10.25 -20.35 -9.1 -14.85 -7.45 -19.55 -11.05 -24.15 -14.3 -23.45 -15.9 M-18.35 8.4 L-14.4 9.1 -14.4 6.75 -17.45 6.15 -18.35 8.4 M-33.65 3.6 Q-32.45 7.05 -27.55 9.6 L-26.6 8.05 -23.05 8.05 -21.6 9.95 Q-24.75 9.7 -27.8 9.95 L-28.7 11.4 Q-33.5 9.0 -34.9 5.0 L-33.65 3.6 M-13.7 -1.6 L-16.7 4.4 -14.3 4.85 -13.7 -1.6" fill="#1e1e1e" fill-rule="evenodd" stroke="none"/>
  </g>
</svg>
