<?xml version="1.0" encoding="UTF-8" standalone="no"?>
<svg xmlns:xlink="http://www.w3.org/1999/xlink" height="42.0px" width="79.3px" xmlns="http://www.w3.org/2000/svg">
  <g transform="matrix(1.0, 0.0, 0.0, 1.0, 42.15, 18.25)">
    <path d="M35.0 9.2 Q36.55 10.45 36.4 11.35 34.95 12.05 33.8 11.15 34.45 12.2 33.5 13.05 31.55 13.85 30.85 13.5 L31.1 14.75 Q31.45 15.75 30.75 16.6 28.6 17.55 27.35 16.85 28.2 18.1 27.0 18.65 24.2 19.65 23.45 18.3 23.25 20.0 21.7 20.35 19.7 20.5 19.35 19.45 19.0 20.8 17.25 20.8 15.25 20.75 14.7 19.6 L14.1 19.65 Q11.8 19.6 11.25 18.05 10.6 19.35 8.85 19.7 6.5 19.65 5.9 18.0 5.0 19.95 3.1 19.9 1.55 19.75 0.85 19.1 1.4 21.5 -0.45 22.0 -2.65 22.2 -3.35 21.0 -4.25 22.35 -6.05 23.0 -8.45 22.9 -8.9 21.45 -10.0 22.65 -11.4 22.4 -13.85 22.05 -13.6 20.6 -14.9 21.65 -16.05 21.1 -18.35 20.4 -16.85 18.7 -19.65 19.75 -20.3 17.45 -21.7 18.5 -23.25 18.25 -24.85 17.95 -24.9 16.55 -25.75 17.85 -27.55 17.75 L-28.65 17.35 Q-28.8 19.4 -30.25 19.6 -31.8 19.2 -31.6 17.85 L-34.9 18.0 Q-36.3 17.05 -35.9 15.3 -37.45 15.75 -38.9 14.75 -39.8 13.6 -38.9 12.2 -41.15 12.4 -41.4 10.15 -41.2 8.7 -39.1 7.25 -38.3 10.35 -33.6 14.8 -33.35 14.0 -32.1 13.1 -20.9 11.65 -11.8 16.85 -11.4 19.05 -12.85 19.65 L-3.3 19.85 Q-4.95 18.9 -4.15 17.2 4.5 13.8 18.5 16.25 19.45 17.45 19.35 18.3 L27.65 14.9 Q27.1 14.5 26.9 13.7 31.1 8.5 35.0 9.2 M0.85 19.1 L0.3 18.3 Q-1.7 20.1 -2.95 20.05 L-3.3 19.85 -2.95 20.05 Q-1.7 20.1 0.3 18.3 L0.85 19.1 M-12.85 19.65 Q-15.15 19.9 -16.0 18.3 L-16.85 18.7 -16.0 18.3 Q-15.15 19.9 -12.85 19.65 M-28.65 17.35 Q-29.4 16.95 -29.5 15.95 -32.25 17.2 -33.35 16.0 -33.85 15.45 -33.6 14.8 -33.85 15.45 -33.35 16.0 -32.25 17.2 -29.5 15.95 -29.4 16.95 -28.65 17.35 M30.85 13.5 L30.65 13.35 30.55 13.2 Q30.95 14.3 29.65 15.1 L27.65 14.9 29.65 15.1 Q30.95 14.3 30.55 13.2 L30.65 13.35 30.85 13.5 M14.7 19.6 Q15.95 19.35 15.75 18.05 16.8 19.15 18.75 19.0 19.3 18.75 19.35 18.3 19.3 18.75 18.75 19.0 16.8 19.15 15.75 18.05 15.95 19.35 14.7 19.6" fill="#ffffff" fill-rule="evenodd" stroke="none"/>
    <path d="M-39.1 7.25 L-39.1 7.1 -38.8 6.8 -37.2 4.9 -35.95 3.5 -33.7 1.15 -32.35 -0.25 -28.6 -3.55 -28.6 -4.75 -28.2 -8.45 -27.8 -10.35 -26.45 -14.4 -25.75 -16.0 -24.95 -17.5 Q-22.05 -15.8 -18.75 -12.65 -15.45 -12.25 -7.2 -12.7 6.15 -14.0 13.85 -13.3 L17.25 -13.05 Q18.45 -11.2 18.9 -7.95 24.0 -4.05 28.15 0.6 L29.3 1.9 31.6 4.6 32.55 5.85 35.05 9.2 35.0 9.2 Q36.55 10.45 36.4 11.35 34.95 12.05 33.8 11.15 34.45 12.2 33.5 13.05 31.55 13.85 30.85 13.5 L31.1 14.75 Q31.45 15.75 30.75 16.6 28.6 17.55 27.35 16.85 28.2 18.1 27.0 18.65 24.2 19.65 23.45 18.3 23.25 20.0 21.7 20.35 19.7 20.5 19.35 19.45 19.0 20.8 17.25 20.8 15.25 20.75 14.7 19.6 L14.1 19.65 Q11.8 19.6 11.25 18.05 10.6 19.35 8.85 19.7 6.5 19.65 5.9 18.0 5.0 19.95 3.1 19.9 1.55 19.75 0.85 19.1 1.4 21.5 -0.45 22.0 -2.65 22.2 -3.35 21.0 -4.25 22.35 -6.05 23.0 -8.45 22.9 -8.9 21.45 -10.0 22.65 -11.4 22.4 -13.85 22.05 -13.6 20.6 -14.9 21.65 -16.05 21.1 -18.35 20.4 -16.85 18.7 -19.65 19.75 -20.3 17.45 -21.7 18.5 -23.25 18.25 -24.85 17.95 -24.9 16.55 -25.75 17.85 -27.55 17.75 L-28.65 17.35 Q-28.8 19.4 -30.25 19.6 -31.8 19.2 -31.6 17.85 L-34.9 18.0 Q-36.3 17.05 -35.9 15.3 -37.45 15.75 -38.9 14.75 -39.8 13.6 -38.9 12.2 -41.15 12.4 -41.4 10.15 -41.2 8.7 -39.1 7.25 L-38.8 6.8 M-28.6 -3.55 L-28.65 -2.9 -28.65 -1.45 -23.35 -1.75 -21.5 -2.1 Q-19.6 -2.55 -17.4 -3.3 L-17.4 -4.1 -16.95 -6.1 -16.0 -8.6 -16.0 -8.65 -15.65 -9.4 -18.75 -12.65 M-15.65 -9.4 L-15.6 -9.4 Q-13.9 -9.35 -12.45 -8.2 L-12.4 -8.15 Q-6.35 -10.6 -0.05 -10.35 L-0.05 -8.7 -0.1 -6.55 -0.2 -5.4 Q14.8 -5.75 18.9 -7.95 M-12.4 -8.15 L-12.5 -7.45 -12.8 -5.65 -13.6 -2.65 -13.8 -2.15 -12.45 -0.7 Q-10.55 1.3 -8.0 3.1 L-4.5 5.3 -3.1 3.5 -2.05 1.5 -1.0 -1.35 -0.5 -3.45 -0.2 -5.4 M-23.35 -1.75 Q-27.3 1.2 -29.65 3.75 L-31.0 5.2 Q-32.0 6.45 -32.6 7.6 L-28.4 7.3 -25.9 6.95 -25.45 7.85 -25.35 7.95 -23.9 9.85 -23.45 10.4 -23.4 10.6 -23.2 10.8 -22.0 12.15 -21.3 10.15 -20.65 8.3 -19.75 6.05 -19.0 4.3 -16.0 -1.7 -15.45 -2.85 -17.4 -2.9 -17.4 -3.3 M-13.8 -2.15 Q-13.7 -1.75 -14.35 -1.65 -15.0 -2.05 -15.45 -2.85 M-16.0 -1.7 L-16.6 4.75 -16.7 6.65 -16.7 9.0 -16.7 11.0 -16.5 14.3 -15.25 13.3 -13.15 12.05 -12.75 11.8 -11.65 11.15 -10.8 11.45 -10.15 11.75 -8.3 12.4 -6.3 12.95 -6.85 11.85 -7.8 9.95 -9.0 7.4 -12.45 -0.7 M-1.0 -0.35 Q-2.25 3.8 -3.0 7.95 L-3.35 9.85 -3.7 11.95 -3.75 12.3 -3.95 14.0 -4.15 15.55 -4.3 17.2 -4.15 17.2 Q4.5 13.8 18.5 16.25 L18.15 14.4 17.85 13.05 17.5 11.5 17.25 10.6 16.85 9.1 16.3 7.25 13.35 -1.4 M-8.0 3.1 L-9.0 7.4 M-10.15 11.75 L-10.5 12.95 -10.7 13.55 -11.1 14.9 -11.7 16.55 -11.8 16.85 Q-11.4 19.05 -12.85 19.65 L-3.3 19.85 Q-4.95 18.9 -4.15 17.2 M-16.85 18.7 L-16.0 18.3 Q-15.15 19.9 -12.85 19.65 M-3.3 19.85 L-2.95 20.05 Q-1.7 20.1 0.3 18.3 L0.85 19.1 M-28.4 7.3 L-28.9 7.95 -29.85 9.5 -30.1 9.85 -31.0 11.3 -32.1 13.1 Q-20.9 11.65 -11.8 16.85 M-33.6 14.8 Q-33.85 15.45 -33.35 16.0 -32.25 17.2 -29.5 15.95 -29.4 16.95 -28.65 17.35 M-32.1 13.1 Q-33.35 14.0 -33.6 14.8 -38.3 10.35 -39.1 7.25 M18.65 -3.0 Q19.85 0.75 21.7 4.65 L22.6 6.5 23.35 7.95 24.0 9.15 24.95 10.8 25.55 11.9 26.75 13.85 26.9 13.7 Q31.1 8.5 35.0 9.2 M27.65 14.9 L29.65 15.1 Q30.95 14.3 30.55 13.2 L30.65 13.35 30.85 13.5 M26.9 13.7 Q27.1 14.5 27.65 14.9 L19.35 18.3 Q19.3 18.75 18.75 19.0 16.8 19.15 15.75 18.05 15.95 19.35 14.7 19.6 M19.35 18.3 Q19.45 17.45 18.5 16.25" fill="none" stroke="#000000" stroke-linecap="round" stroke-linejoin="round" stroke-width="1.5"/>
  </g>
</svg>
