<?xml version="1.0" encoding="UTF-8" standalone="no"?>
<svg xmlns:xlink="http://www.w3.org/1999/xlink" height="11.55px" width="45.95px" xmlns="http://www.w3.org/2000/svg">
  <g transform="matrix(1.0, 0.0, 0.0, 1.0, 22.75, 7.8)">
    <path d="M21.45 -6.45 L21.55 -6.6 Q22.85 -3.55 22.35 -0.9 L21.95 -0.6 Q22.5 -3.55 21.45 -6.45" fill="#dba990" fill-rule="evenodd" stroke="none"/>
    <path d="M1.45 -4.05 L1.45 -4.9 3.9 -4.95 10.7 -5.15 Q11.9 -5.6 13.15 -5.15 L13.15 -4.25 13.15 1.25 13.15 2.7 10.7 2.75 3.9 2.9 1.45 2.95 1.45 1.65 1.45 -4.05 M10.7 -5.15 L10.7 -3.15 10.7 -5.15 M3.9 -4.95 L3.9 -3.0 3.9 -4.95 M10.7 0.75 L10.7 -3.15 3.9 -3.0 3.9 0.85 10.7 0.75 10.7 2.75 10.7 0.75 M3.9 2.9 L3.9 0.85 3.9 2.9" fill="#ccd3db" fill-rule="evenodd" stroke="none"/>
    <path d="M1.45 -4.05 L1.45 -4.9 3.9 -4.95 10.7 -5.15 Q11.9 -5.6 13.15 -5.15 L13.15 -4.25 13.15 1.25 13.15 2.7 10.7 2.75 3.9 2.9 1.45 2.95 1.45 1.65 1.45 -4.05 M18.85 -5.15 L18.7 -5.95 21.1 -7.3 21.45 -6.45 Q22.5 -3.55 21.95 -0.6 L21.75 0.35 18.7 1.6 18.9 0.5 Q19.3 -2.5 18.85 -5.15 M-12.25 1.3 L-12.3 2.5 Q-15.4 2.85 -17.0 2.0 L-17.05 0.75 Q-17.2 -2.6 -16.35 -5.2 L-16.15 -5.8 -11.75 -5.65 -11.85 -4.7 -12.25 1.3 M3.9 -3.0 L3.9 -4.95 M10.7 -3.15 L10.7 -5.15 M16.95 -1.9 L16.7 -1.35 Q16.5 -1.1 16.15 -1.1 15.85 -1.1 15.6 -1.35 L15.4 -1.9 15.6 -2.45 16.15 -2.65 16.7 -2.45 16.95 -1.9 M3.9 -3.0 L10.7 -3.15 10.7 0.75 10.7 2.75 M3.9 0.85 L3.9 2.9 M10.7 0.75 L3.9 0.85 3.9 -3.0 M-6.7 -1.45 Q-6.7 -1.1 -6.95 -0.9 -7.15 -0.65 -7.5 -0.65 -7.8 -0.65 -8.05 -0.9 L-8.25 -1.45 -8.05 -2.0 -7.5 -2.2 Q-7.15 -2.2 -6.95 -2.0 L-6.7 -1.45 M-1.35 -1.2 Q-1.35 -0.85 -1.6 -0.65 -1.8 -0.4 -2.15 -0.4 L-2.7 -0.65 -2.9 -1.2 -2.7 -1.75 -2.15 -1.95 Q-1.8 -1.95 -1.6 -1.75 L-1.35 -1.2" fill="none" stroke="#000000" stroke-linecap="round" stroke-linejoin="round" stroke-width="1.0"/>
    <path d="M13.15 -4.25 L18.85 -5.15 M21.45 -6.45 L21.55 -6.6 Q22.85 -3.55 22.35 -0.9 L21.95 -0.6 M18.9 0.5 L13.15 1.25 M1.45 1.65 Q-6.8 1.7 -12.25 1.3 M-17.05 0.75 Q-20.6 0.1 -21.95 -0.9 -22.45 -4.25 -20.1 -6.6 -19.9 -5.8 -16.35 -5.2 M-11.85 -4.7 L1.45 -4.05 Z" fill="none" stroke="#000000" stroke-linecap="round" stroke-linejoin="round" stroke-width="1.4000000000000001"/>
  </g>
</svg>
