<?xml version="1.0" encoding="UTF-8" standalone="no"?>
<svg xmlns:xlink="http://www.w3.org/1999/xlink" height="35.9px" width="73.3px" xmlns="http://www.w3.org/2000/svg">
  <g transform="matrix(1.0, 0.0, 0.0, 1.0, 38.2, 11.1)">
    <path d="M-23.4 -4.85 Q-20.7 -3.6 -16.55 -2.65 -11.55 -1.55 -4.5 -0.95 L2.85 -0.5 3.6 -0.5 Q5.1 0.45 7.35 1.15 L8.25 0.9 Q10.15 0.25 11.35 -1.2 15.35 -2.05 18.1 -3.2 19.85 -4.0 20.75 -5.25 22.8 -3.35 23.95 -1.1 28.05 6.05 34.35 11.5 33.7 13.4 31.2 14.75 L31.7 15.25 Q29.4 16.85 26.75 18.1 L26.55 18.2 Q18.75 21.2 15.25 20.95 L15.85 22.05 5.7 23.75 Q-2.0 24.6 -6.9 23.0 L-6.9 23.85 -16.3 23.0 Q-23.3 22.15 -25.45 19.85 L-25.75 21.15 Q-34.25 18.85 -37.45 13.5 -33.55 4.1 -23.4 -4.85 M-16.55 -2.65 Q-22.7 8.25 -25.45 19.85 -22.7 8.25 -16.55 -2.65 M15.25 20.95 Q11.45 14.5 8.25 0.9 11.45 14.5 15.25 20.95 M-6.9 23.0 Q-7.2 12.15 -4.5 -0.95 -7.2 12.15 -6.9 23.0 M31.2 14.75 Q24.25 8.25 18.1 -3.2 24.25 8.25 31.2 14.75" fill="url(#gradient0)" fill-rule="evenodd" stroke="none"/>
    <path d="M-23.4 -4.85 Q-20.7 -3.6 -16.55 -2.65 -11.55 -1.55 -4.5 -0.95 L2.85 -0.5 3.6 -0.5 Q0.4 -2.5 0.35 -5.6 L0.6 -6.6 Q-8.75 -6.65 -19.75 -10.0 -22.95 -7.3 -23.45 -4.85 L-23.4 -4.85 Q-33.55 4.1 -37.45 13.5 -34.25 18.85 -25.75 21.15 L-25.45 19.85 Q-22.7 8.25 -16.55 -2.65 M0.6 -6.6 Q1.1 -8.0 2.75 -8.65 5.1 -9.15 6.9 -7.0 8.45 -9.2 11.0 -8.7 L12.2 -8.0 Q15.55 -8.9 18.65 -10.35 21.0 -7.5 20.75 -5.25 22.8 -3.35 23.95 -1.1 28.05 6.05 34.35 11.5 33.7 13.4 31.2 14.75 L31.7 15.25 Q29.4 16.85 26.75 18.1 L26.55 18.2 Q18.75 21.2 15.25 20.95 L15.85 22.05 5.7 23.75 Q-2.0 24.6 -6.9 23.0 L-6.9 23.85 -16.3 23.0 Q-23.3 22.15 -25.45 19.85 M11.35 -1.2 Q15.35 -2.05 18.1 -3.2 19.85 -4.0 20.75 -5.25 M12.2 -8.0 Q13.55 -6.65 12.65 -3.7 12.15 -2.25 11.35 -1.2 10.15 0.25 8.25 0.9 11.45 14.5 15.25 20.95 M8.25 0.9 L7.35 1.15 Q5.1 0.45 3.6 -0.5 M18.1 -3.2 Q24.25 8.25 31.2 14.75 M-4.5 -0.95 Q-7.2 12.15 -6.9 23.0" fill="none" stroke="#000000" stroke-linecap="round" stroke-linejoin="round" stroke-width="1.5"/>
  </g>
  <defs>
    <linearGradient gradientTransform="matrix(1.0E-4, -0.0095, 0.0438, 4.0E-4, -1.45, 3.9)" gradientUnits="userSpaceOnUse" id="gradient0" spreadMethod="pad" x1="-819.2" x2="819.2">
      <stop offset="0.0" stop-color="#ffebf8"/>
      <stop offset="1.0" stop-color="#cecdff"/>
    </linearGradient>
  </defs>
</svg>
