<?xml version="1.0" encoding="UTF-8" standalone="no"?>
<svg xmlns:xlink="http://www.w3.org/1999/xlink" height="61.35px" width="73.15px" xmlns="http://www.w3.org/2000/svg">
  <g transform="matrix(1.0, 0.0, 0.0, 1.0, 39.3, 8.55)">
    <path d="M0.85 -0.25 Q5.65 1.95 9.95 10.9 11.35 14.8 11.25 17.65 M29.7 21.25 Q29.45 24.45 27.35 29.7 M16.45 0.0 Q19.15 1.0 21.4 3.45 M-9.1 3.9 L-12.0 6.3 Q-18.65 12.3 -22.95 11.25 M-24.95 14.0 Q-26.6 27.75 -22.65 36.7 M-1.15 1.5 Q-0.3 10.65 1.4 14.55" fill="none" stroke="#000000" stroke-linecap="round" stroke-linejoin="round" stroke-width="1.0"/>
    <path d="M-3.45 -2.85 Q-2.55 -4.05 3.8 -5.7 10.15 -7.25 11.85 -3.95 17.15 -5.25 20.0 -7.65 21.65 -7.45 23.1 1.35 26.5 7.35 28.25 13.4 L28.35 13.8 29.45 18.3 29.65 20.0 29.75 20.65 29.7 21.25 Q29.5 26.8 31.0 32.15 31.75 34.85 32.95 37.45 31.45 46.75 25.7 50.55 L24.45 51.5 Q23.65 50.5 23.75 48.55 24.1 46.3 23.95 43.15 L23.7 40.3 Q22.95 32.8 23.85 25.95 L22.2 12.4 Q20.75 4.55 16.45 0.0 L13.1 -0.7 Q15.7 6.65 17.25 12.6 L19.45 21.7 Q19.75 23.1 20.0 23.35 21.15 25.9 22.4 27.15 23.65 28.2 22.15 29.45 20.6 30.65 18.85 31.2 15.45 32.5 10.7 31.3 8.65 30.1 7.65 27.05 2.5 27.65 -0.45 26.9 -2.3 26.35 -3.25 21.15 L-3.7 18.0 Q-4.65 7.3 -3.6 1.05 -6.1 1.65 -9.1 3.9 -10.25 10.95 -14.85 23.75 -17.1 30.6 -15.5 35.9 -14.45 39.3 -14.55 42.75 -14.65 44.65 -15.05 46.65 -16.2 52.05 -16.45 51.9 L-19.05 47.85 Q-21.3 44.1 -28.8 41.0 -36.25 37.85 -38.05 34.35 -39.2 31.7 -36.5 26.9 -34.9 21.4 -26.65 5.8 -23.65 -5.5 -19.75 -6.9 -16.3 -4.0 -3.45 -2.85 0.2 -2.15 0.65 -0.7 L0.85 -0.25 1.3 0.5 -3.6 1.05 M11.85 -3.95 L11.95 -3.7 13.1 -0.7 M7.65 27.05 L7.35 25.95 Q6.8 24.0 6.65 21.4 L6.55 19.4 Q6.2 10.1 1.3 0.5" fill="none" stroke="#000000" stroke-linecap="round" stroke-linejoin="round" stroke-width="1.8"/>
  </g>
</svg>
