<?xml version="1.0" encoding="UTF-8" standalone="no"?>
<svg xmlns:xlink="http://www.w3.org/1999/xlink" height="40.8px" width="54.6px" xmlns="http://www.w3.org/2000/svg">
  <g transform="matrix(1.0, 0.0, 0.0, 1.0, 29.2, 28.55)">
    <path d="M19.8 -6.6 L20.2 -5.9 20.05 -6.05 Q19.65 -6.4 19.8 -6.6 M21.8 -2.85 L22.65 -0.85 21.9 -1.45 Q20.85 -2.4 21.35 -2.75 L21.8 -2.85 M0.45 -3.5 Q1.65 -4.3 1.65 -3.25 1.65 -2.2 1.25 -2.2 0.8 -2.2 1.5 -1.55 2.1 -0.85 1.5 -0.8 0.8 -0.8 0.1 -1.75 -0.7 -2.7 0.45 -3.5 M-2.2 -2.45 L-1.65 -1.8 -1.05 -0.7 Q-0.55 -0.15 0.4 -0.45 1.35 -0.7 1.15 -0.25 L-0.2 0.5 Q-1.3 0.7 -2.45 -0.35 -2.85 -0.8 -2.85 -1.4 -2.8 -2.15 -2.2 -2.45 M18.3 -5.55 Q19.8 -6.15 20.3 -4.7 L21.2 -3.4 21.15 -2.9 20.65 -2.8 19.3 -3.6 Q17.75 -3.95 18.3 -5.55 M8.55 -2.45 Q9.2 -2.15 9.25 -1.4 9.25 -0.8 8.85 -0.35 7.7 0.7 6.6 0.5 5.5 0.25 5.25 -0.25 5.0 -0.7 5.95 -0.45 6.9 -0.15 7.4 -0.7 7.9 -1.3 8.0 -1.8 L8.55 -2.45 M3.2 -4.2 Q4.7 -3.5 3.95 -2.15 L3.6 -0.6 3.2 -0.3 2.8 -0.6 2.45 -2.15 Q1.7 -3.5 3.2 -4.2 M5.9 -3.5 Q7.1 -2.7 6.35 -1.75 5.55 -0.8 4.9 -0.8 4.3 -0.85 4.9 -1.55 5.55 -2.2 5.15 -2.2 4.75 -2.2 4.75 -3.25 4.75 -4.3 5.9 -3.5 M15.85 -0.4 L16.75 -0.35 17.95 -0.05 Q18.7 -0.05 19.15 -0.95 19.6 -1.8 19.8 -1.35 19.95 -0.85 19.45 0.15 18.85 1.1 17.25 1.2 16.7 1.2 16.25 0.8 15.7 0.25 15.85 -0.4 M16.9 -3.05 Q17.15 -4.45 17.95 -3.75 18.7 -3.05 18.4 -2.75 18.1 -2.45 19.1 -2.5 20.0 -2.45 19.65 -2.0 19.15 -1.5 18.0 -1.65 16.75 -1.7 16.9 -3.05 M-16.55 -5.75 Q-15.95 -6.0 -15.4 -5.75 -15.25 -5.4 -15.6 -4.9 L-15.95 -4.35 -16.55 -5.75 -15.95 -4.35 -16.15 -3.85 Q-16.35 -3.05 -15.6 -2.5 -14.8 -1.85 -15.3 -1.7 -15.9 -1.7 -16.7 -2.45 -17.45 -3.25 -17.25 -4.8 -17.15 -5.35 -16.65 -5.7 L-16.55 -5.75 M-14.8 -2.25 L-14.65 -3.5 Q-14.35 -4.65 -13.0 -4.15 -11.65 -3.65 -12.55 -3.05 -13.4 -2.45 -13.65 -2.8 -13.9 -3.15 -14.0 -2.2 -14.2 -1.55 -14.45 -1.6 L-14.65 -1.8 -14.8 -2.25 -14.45 -1.6 -14.8 -2.25 M-13.85 -0.75 L-13.0 -1.75 Q-12.3 -3.1 -10.9 -2.3 -10.6 -0.65 -12.15 -0.5 L-13.35 0.0 -13.6 0.1 -14.1 -0.1 -14.05 -0.55 -13.85 -0.75 -13.35 0.0 -13.85 -0.75 M-12.75 0.8 Q-12.8 0.5 -12.05 0.6 -11.2 0.75 -11.45 0.4 -11.65 0.1 -10.8 -0.5 -9.9 -1.1 -9.9 0.35 -9.9 1.75 -11.1 1.65 L-12.35 1.35 -12.7 1.0 -12.75 0.8 -12.35 1.35 -12.75 0.8 M-10.8 3.15 L-10.1 3.0 -9.3 3.05 Q-9.15 3.8 -9.75 4.25 L-10.8 4.5 Q-12.3 4.15 -12.8 3.15 -13.25 2.1 -12.95 1.65 -12.7 1.15 -12.4 2.05 -12.1 3.05 -11.35 3.1 L-10.8 3.15 -9.75 4.25 -10.8 3.15 M20.4 -1.75 Q21.2 -1.75 21.3 -0.45 21.35 0.9 20.7 1.35 L19.45 1.25 Q18.85 0.8 19.5 0.65 20.0 0.6 20.4 0.15 20.8 -0.3 20.6 -0.9 20.35 -1.5 20.4 -1.75 M-23.95 -1.6 Q-23.6 -2.25 -22.85 -2.2 -22.25 -2.15 -21.8 -1.7 -20.9 -0.45 -21.2 0.65 -21.55 1.65 -22.05 1.85 -22.55 2.05 -22.2 1.2 -21.8 0.25 -22.3 -0.3 -22.85 -0.85 -23.35 -1.0 L-23.95 -1.6 M-15.05 -1.05 Q-15.2 -0.3 -16.5 -0.5 -17.8 -0.7 -18.15 -1.45 -18.4 -2.15 -17.75 -2.6 -17.2 -3.1 -17.25 -2.45 L-16.9 -1.45 Q-16.55 -1.0 -15.95 -1.05 L-15.05 -1.05 M1.85 -0.05 Q2.4 0.5 1.5 1.45 0.55 2.4 -0.2 2.25 -0.95 2.05 -0.95 1.3 -1.05 0.55 -0.55 0.9 L0.45 1.25 1.35 0.65 Q1.65 0.05 1.85 -0.05 M-14.3 0.05 Q-13.9 0.45 -15.05 1.25 -16.1 2.0 -16.5 1.55 -16.8 1.0 -15.65 0.35 -14.5 -0.45 -14.3 0.05 M-13.5 1.15 L-13.85 1.95 Q-14.1 2.55 -13.8 3.05 L-13.0 3.65 Q-12.4 3.85 -13.0 4.2 L-14.25 4.15 Q-14.8 3.65 -14.55 2.3 -14.3 1.0 -13.5 1.15 M-25.25 0.95 Q-24.35 -0.2 -23.45 0.65 -22.6 1.55 -22.65 2.15 L-23.4 2.1 Q-24.0 1.4 -24.0 1.75 -24.05 2.15 -25.1 2.05 -26.15 1.95 -25.25 0.95 M-21.95 2.55 L-21.2 2.2 Q-20.6 1.9 -20.5 1.4 -20.45 0.8 -20.75 0.35 -21.05 -0.15 -20.3 -0.05 -19.55 0.05 -19.45 0.8 -19.35 1.55 -20.4 2.35 -21.45 3.2 -21.95 2.55 M-25.8 6.35 Q-26.45 5.05 -25.4 5.15 -24.35 5.25 -24.4 5.65 -24.45 6.1 -23.7 5.5 L-22.95 5.55 Q-23.05 6.25 -24.05 6.85 -25.1 7.55 -25.8 6.35 M-26.2 3.5 Q-25.35 2.1 -24.1 2.95 L-22.55 3.45 -22.3 3.9 -22.65 4.25 -24.25 4.45 Q-25.65 5.1 -26.2 3.5 M-22.2 5.25 Q-21.6 4.8 -20.7 5.75 -19.85 6.8 -20.1 7.55 -20.35 8.3 -21.1 8.2 -21.85 8.25 -21.45 7.75 -21.1 7.4 -21.05 6.8 -21.0 6.2 -21.55 5.85 L-22.2 5.25 M-22.05 3.9 Q-22.1 3.35 -20.7 3.5 -19.4 3.6 -19.4 4.2 -19.5 4.8 -20.8 4.6 -22.2 4.45 -22.05 3.9 M-25.0 9.1 L-24.3 8.6 Q-23.75 8.5 -23.1 8.1 -22.5 7.65 -22.75 6.7 -22.9 5.7 -22.45 5.95 -22.0 6.3 -21.85 7.4 -21.75 8.5 -22.9 9.55 -23.4 9.9 -24.0 9.85 L-25.0 9.1 M14.25 4.75 Q13.5 4.6 13.75 3.3 14.0 2.0 14.75 1.7 15.45 1.45 15.85 2.05 16.4 2.65 15.8 2.65 15.25 2.55 14.75 2.9 14.3 3.25 14.35 3.9 L14.25 4.75 M19.0 4.55 L18.15 4.3 Q17.75 3.95 17.05 3.7 16.35 3.5 15.75 4.3 15.05 5.05 14.95 4.5 14.95 3.95 15.7 3.2 16.5 2.4 18.05 2.65 18.6 2.8 18.95 3.3 19.3 3.95 19.0 4.55 M10.0 10.4 Q9.25 10.55 8.85 9.9 8.5 9.4 8.6 8.85 8.95 7.3 10.0 6.9 L11.5 6.75 Q12.0 7.05 11.1 7.35 10.1 7.55 10.0 8.35 9.9 9.1 10.05 9.55 L10.0 10.4 M12.8 9.85 Q11.35 9.85 11.45 8.6 11.55 7.4 12.1 7.0 12.65 6.75 12.55 7.65 12.35 8.6 12.7 8.35 13.05 8.15 13.6 9.0 14.2 9.9 12.8 9.85 M15.45 8.95 Q13.8 9.2 13.65 7.65 L13.1 6.15 13.3 5.7 13.75 5.7 14.9 6.85 Q16.3 7.55 15.45 8.95 M13.15 5.5 Q12.75 5.85 12.0 4.7 11.25 3.6 11.7 3.25 12.25 2.95 12.9 4.1 13.65 5.25 13.15 5.5 M12.0 6.25 L11.3 5.9 10.2 5.85 Q9.7 6.2 9.55 6.7 9.35 7.3 8.9 6.6 8.5 6.0 9.05 5.4 9.55 4.9 10.9 5.15 12.15 5.5 12.0 6.25 M17.35 6.9 Q16.8 8.2 16.2 7.3 15.65 6.45 15.95 6.2 16.35 6.0 15.4 5.8 14.5 5.55 14.95 5.15 L16.7 5.2 Q17.85 5.55 17.35 6.9 M3.2 -0.05 Q3.75 -0.15 3.75 1.25 3.8 2.55 3.2 2.6 2.6 2.55 2.65 1.25 2.65 -0.15 3.2 -0.05 M4.55 -0.05 L5.0 0.65 5.9 1.25 Q6.5 1.25 6.9 0.9 7.4 0.55 7.35 1.3 7.35 2.05 6.6 2.25 5.85 2.4 4.9 1.45 4.0 0.5 4.55 -0.05" fill="#000000" fill-opacity="0.54901963" fill-rule="evenodd" stroke="none"/>
    <path d="M17.2 -19.05 L17.0 -17.5 17.65 -16.25 Q0.4 -14.05 -19.75 -16.15 L-19.15 -17.75 -19.35 -19.05 Q-0.35 -17.25 17.2 -19.05" fill="#ffe983" fill-rule="evenodd" stroke="none"/>
    <path d="M-19.35 -19.05 L-19.55 -20.6 Q-19.9 -23.85 -19.8 -27.15 -17.15 -28.35 -12.2 -27.25 -1.2 -25.6 13.35 -27.4 17.25 -28.35 17.5 -25.05 L17.35 -20.05 17.2 -19.05 17.0 -17.5 17.65 -16.25 17.95 -15.55 Q18.6 -13.55 19.1 -10.35 19.5 -9.35 18.9 -8.55 L18.75 -8.35 19.8 -6.6 20.2 -5.9 21.8 -2.85 22.65 -0.85 23.8 2.5 Q25.2 7.6 24.25 10.05 13.5 12.0 1.55 10.45 -4.45 8.8 -7.1 6.65 -16.8 11.65 -27.6 11.5 -30.95 6.0 -21.25 -9.0 L-21.35 -9.65 Q-21.6 -11.6 -20.0 -15.5 L-19.75 -16.15 -19.15 -17.75 -19.35 -19.05 M18.75 -8.35 Q16.3 -6.1 4.1 -5.85 -8.4 -5.25 -17.1 -7.2 L-16.55 -5.75 -15.95 -4.35 -14.8 -2.25 -14.45 -1.6 -13.85 -0.75 -13.35 0.0 -12.75 0.8 -12.35 1.35 -10.8 3.15 -9.75 4.25 -7.1 6.65 M-17.1 -7.2 L-18.1 -7.45 -20.85 -8.2 -21.25 -9.0" fill="none" stroke="#000000" stroke-linecap="round" stroke-linejoin="round" stroke-width="1.5"/>
  </g>
</svg>
