<?xml version="1.0" encoding="UTF-8" standalone="no"?>
<svg xmlns:xlink="http://www.w3.org/1999/xlink" height="20.9px" width="49.05px" xmlns="http://www.w3.org/2000/svg">
  <g transform="matrix(1.0, 0.0, 0.0, 1.0, 24.2, 18.45)">
    <path d="M6.35 -4.5 Q7.9 -6.3 6.8 -16.4 M6.35 -4.5 Q6.0 0.2 6.65 1.3" fill="none" stroke="#000000" stroke-linecap="round" stroke-linejoin="round" stroke-width="1.0"/>
    <path d="M6.35 -4.5 Q22.9 -5.45 22.55 -8.4 M-21.55 -7.65 Q-20.85 -7.15 -19.65 -6.75 L-16.55 -5.95 Q-10.05 -4.65 4.2 -4.35 L4.3 -4.35 6.35 -4.5" fill="none" stroke="#000000" stroke-linecap="round" stroke-linejoin="round" stroke-width="1.5"/>
    <path d="M22.55 -8.4 L22.55 -8.45 Q22.35 -10.9 18.9 -17.2 M22.55 -8.45 Q24.65 -5.45 23.4 -1.9 21.75 0.6 6.65 1.3 L2.8 1.45 Q-23.75 1.0 -22.95 -2.3 -23.9 -5.0 -21.55 -7.65 -21.45 -10.55 -16.4 -17.45" fill="none" stroke="#000000" stroke-linecap="round" stroke-linejoin="round" stroke-width="2.0"/>
  </g>
</svg>
