<?xml version="1.0" encoding="UTF-8" standalone="no"?>
<svg xmlns:xlink="http://www.w3.org/1999/xlink" height="42.3px" width="58.0px" xmlns="http://www.w3.org/2000/svg">
  <g transform="matrix(1.0, 0.0, 0.0, 1.0, 29.4, 20.2)">
    <path d="M26.8 11.65 Q24.75 -0.7 19.3 -19.2 M15.4 15.25 Q14.4 18.45 15.95 21.0 25.25 20.15 27.5 16.5 27.9 14.55 26.8 11.65 M13.65 -17.7 Q16.0 5.85 15.4 15.25 M-4.0 -18.0 Q-3.5 -4.35 -3.75 5.3 -3.9 10.45 -3.5 14.65 -1.95 18.95 -4.65 21.1 -13.5 20.45 -20.55 18.55 -27.65 16.6 -28.35 12.9 -28.55 10.25 -27.5 8.3 -25.1 -2.6 -16.6 -18.8" fill="none" stroke="#000000" stroke-linecap="round" stroke-linejoin="round" stroke-width="2.0"/>
    <path d="M15.4 15.25 Q23.25 14.6 26.8 11.65 M-3.5 14.65 Q-8.0 15.2 -17.8 13.25 -26.5 10.8 -27.5 8.3" fill="none" stroke="#000000" stroke-linecap="round" stroke-linejoin="round" stroke-width="1.5"/>
  </g>
</svg>
