<?xml version="1.0" encoding="UTF-8" standalone="no"?>
<svg xmlns:xlink="http://www.w3.org/1999/xlink" height="21.15px" width="49.05px" xmlns="http://www.w3.org/2000/svg">
  <g transform="matrix(1.0, 0.0, 0.0, 1.0, 24.2, 18.85)">
    <path d="M22.55 -8.4 L22.55 -8.45 Q22.35 -10.9 19.3 -17.85 M22.55 -8.45 Q24.65 -5.45 23.4 -1.9 22.3 -0.2 15.0 0.65 14.1 -1.55 14.8 -5.25 L14.2 -15.7 M-3.6 -4.6 L-4.0 -15.8 M-3.6 -4.6 Q-2.65 -0.45 -3.5 1.3 -23.65 0.6 -22.95 -2.3 -23.9 -5.0 -21.55 -7.65 -21.3 -9.7 -17.3 -16.4" fill="none" stroke="#000000" stroke-linecap="round" stroke-linejoin="round" stroke-width="2.0"/>
    <path d="M14.8 -5.25 Q22.8 -6.35 22.55 -8.4 M-21.55 -7.65 Q-20.85 -7.15 -19.65 -6.75 L-16.55 -5.95 -3.6 -4.6" fill="none" stroke="#000000" stroke-linecap="round" stroke-linejoin="round" stroke-width="1.5"/>
  </g>
</svg>
