<?xml version="1.0" encoding="UTF-8" standalone="no"?>
<svg xmlns:xlink="http://www.w3.org/1999/xlink" height="86.9px" width="83.15px" xmlns="http://www.w3.org/2000/svg">
  <g transform="matrix(1.0, 0.0, 0.0, 1.0, 43.6, 20.9)">
    <path d="M13.85 -18.15 Q17.25 8.75 20.8 30.35 23.5 46.8 22.55 57.55 33.8 56.7 37.5 45.95 35.65 34.35 30.15 16.15 L19.0 -19.9 M22.55 57.55 Q22.0 63.6 23.65 64.5 34.55 64.0 38.15 54.7 39.2 51.85 37.5 45.95 M-4.45 -18.85 Q-3.65 -3.7 -8.4 25.65 -11.95 47.3 -12.55 57.7 -11.95 63.7 -13.35 65.0 -39.5 63.6 -42.55 51.1 -42.85 48.65 -41.6 44.95 -39.85 36.45 -33.75 22.45 -25.85 4.2 -16.15 -19.5 M-41.6 44.95 Q-33.9 56.7 -12.55 57.7" fill="none" stroke="#000000" stroke-linecap="round" stroke-linejoin="round" stroke-width="2.0"/>
  </g>
</svg>
