<?xml version="1.0" encoding="UTF-8" standalone="no"?>
<svg xmlns:xlink="http://www.w3.org/1999/xlink" height="49.9px" width="102.35px" xmlns="http://www.w3.org/2000/svg">
  <g transform="matrix(1.0, 0.0, 0.0, 1.0, 10.8, 56.75)">
    <path d="M80.25 -51.75 Q82.85 -49.55 84.4 -46.95 86.3 -43.6 88.45 -38.65 92.1 -30.3 89.35 -15.05 85.25 -9.35 80.35 -13.0 79.0 -34.0 69.6 -45.6 69.15 -52.55 78.3 -53.15 L80.25 -51.75 M0.3 -55.7 Q9.0 -56.2 14.5 -49.55 0.6 -37.6 -2.4 -7.95 -6.55 -7.45 -9.6 -8.95 L-9.8 -25.7 Q-10.05 -42.45 0.05 -54.4 L1.45 -55.2 0.3 -55.7" fill="none" stroke="#000000" stroke-linecap="round" stroke-linejoin="round" stroke-width="2.0"/>
  </g>
</svg>
