<?xml version="1.0" encoding="UTF-8" standalone="no"?>
<svg xmlns:xlink="http://www.w3.org/1999/xlink" height="51.0px" width="60.8px" xmlns="http://www.w3.org/2000/svg">
  <g transform="matrix(1.0, 0.0, 0.0, 1.0, 30.4, 25.5)">
    <path d="M-17.05 -25.5 Q-6.1 -23.2 4.15 -23.45 3.3 -21.55 2.85 -18.65 -4.2 2.05 -9.0 25.5 -28.35 13.8 -30.4 6.25 -22.9 -13.3 -17.05 -25.5 M20.3 -24.45 Q23.5 -17.2 26.15 -9.8 28.55 -3.0 30.4 8.55 28.25 14.55 19.3 25.5 17.8 13.95 12.15 -4.15 L12.0 -4.55 Q9.5 -12.7 6.8 -19.3 L4.95 -23.15 Q12.7 -23.2 20.3 -24.45" fill="#2c2c2c" fill-rule="evenodd" stroke="none"/>
  </g>
</svg>
