<?xml version="1.0" encoding="UTF-8" standalone="no"?>
<svg xmlns:xlink="http://www.w3.org/1999/xlink" height="25.35px" width="59.75px" xmlns="http://www.w3.org/2000/svg">
  <g transform="matrix(1.0, 0.0, 0.0, 1.0, 29.9, 12.65)">
    <path d="M21.55 -12.65 Q23.35 -8.0 26.4 -3.35 L27.95 -0.75 28.15 -0.55 28.3 0.2 Q30.5 3.55 29.55 6.45 26.45 10.3 19.9 10.1 17.45 8.45 17.8 3.7 15.05 -0.1 12.95 -12.1 L21.55 -12.65 M-24.6 -3.0 Q-23.85 -6.8 -19.2 -12.6 L-1.55 -12.35 Q-2.55 -0.3 -3.8 2.95 -5.1 6.15 -5.95 6.1 -5.8 12.65 -8.3 12.7 -24.85 12.95 -29.9 4.25 -28.55 0.3 -24.6 -3.0" fill="#4173aa" fill-rule="evenodd" stroke="none"/>
  </g>
</svg>
