<?xml version="1.0" encoding="UTF-8" standalone="no"?>
<svg xmlns:xlink="http://www.w3.org/1999/xlink" height="27.35px" width="61.75px" xmlns="http://www.w3.org/2000/svg">
  <g transform="matrix(1.0, 0.0, 0.0, 1.0, 30.9, 13.65)">
    <path d="M21.55 -12.65 Q23.35 -8.0 26.4 -3.35 L27.95 -0.75 28.15 -0.55 28.3 0.2 Q30.5 3.55 29.55 6.45 26.45 10.3 19.9 10.1 17.45 8.45 17.8 3.7 15.05 -0.1 12.95 -12.1 M28.3 0.2 Q28.2 1.3 25.5 2.75 22.8 4.2 18.5 4.5 L17.8 3.7 M-1.55 -12.35 Q-2.55 -0.3 -3.8 2.95 -5.1 6.15 -5.95 6.1 -5.8 12.65 -8.3 12.7 -24.85 12.95 -29.9 4.25 -28.55 0.3 -24.6 -3.0 -23.85 -6.8 -19.2 -12.6 M-5.95 6.1 L-11.15 6.2 Q-14.4 6.05 -19.6 4.15 -24.85 2.2 -25.55 -0.4 -24.9 -1.8 -24.6 -3.0" fill="none" stroke="#000000" stroke-linecap="round" stroke-linejoin="round" stroke-width="2.0"/>
  </g>
</svg>
