<?xml version="1.0" encoding="UTF-8" standalone="no"?>
<svg xmlns:xlink="http://www.w3.org/1999/xlink" height="26.95px" width="50.75px" xmlns="http://www.w3.org/2000/svg">
  <g transform="matrix(1.0, 0.0, 0.0, 1.0, 25.35, 15.65)">
    <path d="M14.2 4.85 Q21.8 3.35 24.35 -0.75 L25.4 4.5 Q21.45 9.35 14.0 9.95 L14.2 4.85 M12.0 -14.25 Q17.65 -14.2 19.75 -15.65 L22.95 -5.3 Q19.5 -1.65 13.9 -1.05 13.65 -4.1 12.0 -14.25 M-17.2 -15.25 L-1.1 -13.7 Q-2.0 -3.95 -1.85 -0.25 -15.0 -1.65 -22.2 -5.85 L-17.2 -15.25 M-1.5 5.8 L-0.55 11.3 Q-17.6 9.95 -25.35 3.45 L-24.3 -0.85 Q-15.55 4.7 -1.5 5.8" fill="#3a3b48" fill-rule="evenodd" stroke="none"/>
  </g>
</svg>
