<?xml version="1.0" encoding="UTF-8" standalone="no"?>
<svg xmlns:xlink="http://www.w3.org/1999/xlink" height="28.65px" width="52.75px" xmlns="http://www.w3.org/2000/svg">
  <g transform="matrix(1.0, 0.0, 0.0, 1.0, 26.05, 19.1)">
    <path d="M23.25 -8.05 L19.95 -17.9 M14.2 -3.8 L14.45 -0.1 14.5 2.1 14.3 7.2 Q21.75 6.6 25.7 1.75 L24.65 -3.5 23.25 -8.05 M12.55 -16.65 L13.45 -10.35 14.2 -3.8 M-21.9 -8.6 Q-23.2 -6.1 -24.0 -3.6 L-25.05 0.7 Q-17.3 7.2 -0.25 8.55 L-1.2 3.05 -1.4 0.35 -1.55 -3.0 -1.4 -15.95 M-21.9 -8.6 L-16.65 -18.1 M-1.4 0.35 L14.45 -0.1" fill="none" stroke="#000000" stroke-linecap="round" stroke-linejoin="round" stroke-width="2.0"/>
    <path d="M14.2 -3.8 Q19.8 -4.4 23.25 -8.05 M14.5 2.1 Q22.1 0.6 24.65 -3.5 M-1.55 -3.0 Q-14.7 -4.4 -21.9 -8.6 M-24.0 -3.6 Q-15.25 1.95 -1.2 3.05" fill="none" stroke="#000000" stroke-linecap="round" stroke-linejoin="round" stroke-width="1.0"/>
  </g>
</svg>
