<?xml version="1.0" encoding="UTF-8" standalone="no"?>
<svg xmlns:xlink="http://www.w3.org/1999/xlink" height="22.05px" width="49.05px" xmlns="http://www.w3.org/2000/svg">
  <g transform="matrix(1.0, 0.0, 0.0, 1.0, 24.2, 17.5)">
    <path d="M9.0 -14.6 Q9.9 -5.65 8.45 -3.5 L8.35 -3.35 Q8.0 1.85 8.6 3.25" fill="none" stroke="#000000" stroke-linecap="round" stroke-linejoin="round" stroke-width="1.0"/>
    <path d="M8.45 -3.5 Q22.9 -4.65 22.55 -7.85 M-21.55 -7.0 Q-20.85 -6.4 -19.65 -5.95 L-16.55 -5.05 Q-10.05 -3.55 4.2 -3.2 L4.3 -3.2 6.35 -3.35 8.45 -3.5" fill="none" stroke="#000000" stroke-linecap="round" stroke-linejoin="round" stroke-width="1.5"/>
    <path d="M22.55 -7.85 L22.55 -7.9 Q22.35 -10.75 19.95 -16.5 M8.6 3.25 Q21.85 2.35 23.4 -0.35 24.65 -4.45 22.55 -7.9 M8.6 3.25 L6.65 3.35 2.8 3.55 Q-23.75 3.0 -22.95 -0.8 -23.9 -3.95 -21.55 -7.0 -21.3 -9.35 -17.6 -15.35" fill="none" stroke="#000000" stroke-linecap="round" stroke-linejoin="round" stroke-width="2.0"/>
  </g>
</svg>
