<?xml version="1.0" encoding="UTF-8" standalone="no"?>
<svg xmlns:xlink="http://www.w3.org/1999/xlink" height="18.9px" width="50.6px" xmlns="http://www.w3.org/2000/svg">
  <g transform="matrix(1.0, 0.0, 0.0, 1.0, 25.05, 23.5)">
    <path d="M-21.35 -12.2 Q-24.25 -10.5 -24.3 -8.9 -22.8 -5.65 -17.35 -8.25 -15.95 -4.75 -9.35 -7.3 -6.0 -3.95 -0.55 -6.9 4.0 -3.8 8.65 -7.0 14.4 -4.5 17.55 -8.3 20.7 -6.6 24.65 -8.85 25.5 -10.6 21.9 -12.65" fill="none" stroke="#000000" stroke-linecap="round" stroke-linejoin="round" stroke-width="1.5"/>
    <path d="M17.65 -18.15 L18.05 -17.05 M18.7 -20.55 Q15.95 -20.9 15.8 -18.95 13.95 -17.8 14.2 -16.2 14.45 -14.6 16.9 -14.5 19.55 -13.9 20.85 -15.85 M-17.05 -19.85 Q-14.15 -21.3 -13.15 -18.7 -10.35 -18.0 -11.0 -15.65 -11.75 -13.3 -14.65 -14.35 -18.25 -13.0 -20.0 -15.3 M-15.0 -17.8 L-15.7 -16.4" fill="none" stroke="#000000" stroke-linecap="round" stroke-linejoin="round" stroke-width="1.2000000000000002"/>
    <path d="M21.9 -12.65 Q16.0 -9.7 0.95 -9.75 -14.0 -9.75 -21.35 -12.2 L-20.85 -13.45 -20.85 -13.5 -20.0 -15.3 Q-18.9 -17.5 -17.05 -19.85 L-17.05 -19.9 -15.05 -22.3 M20.85 -15.85 L18.7 -20.55 17.65 -22.5 M20.85 -15.85 L22.0 -12.75 21.9 -12.65" fill="none" stroke="#000000" stroke-linecap="round" stroke-linejoin="round" stroke-width="2.0"/>
  </g>
</svg>
