<?xml version="1.0" encoding="UTF-8" standalone="no"?>
<svg xmlns:xlink="http://www.w3.org/1999/xlink" height="25.1px" width="48.15px" xmlns="http://www.w3.org/2000/svg">
  <g transform="matrix(1.0, 0.0, 0.0, 1.0, 24.1, 18.6)">
    <path d="M6.75 -0.15 L6.45 -0.95 6.75 -1.9 6.75 -0.15" fill="#226228" fill-rule="evenodd" stroke="none"/>
    <path d="M6.75 -0.15 L6.75 -1.9 6.45 -0.95 6.75 -0.15 8.9 5.45 Q17.95 3.95 23.3 2.15 23.35 -6.95 19.15 -17.85 M6.75 -1.9 L6.75 -17.45 M-16.2 -17.85 Q-19.35 -13.1 -23.35 0.0 -11.5 5.4 4.15 5.75 L6.45 -0.95" fill="none" stroke="#000000" stroke-linecap="round" stroke-linejoin="round" stroke-width="1.5"/>
    <path d="M5.15 -15.15 Q5.15 -14.45 4.65 -13.9 4.1 -13.4 3.35 -13.4 2.65 -13.4 2.1 -13.9 1.55 -14.45 1.55 -15.15 1.55 -15.9 2.1 -16.45 2.65 -16.95 3.35 -16.95 4.1 -16.95 4.65 -16.45 5.15 -15.9 5.15 -15.15 M5.0 -9.15 Q5.0 -8.4 4.5 -7.9 3.95 -7.35 3.25 -7.35 2.55 -7.35 1.95 -7.9 1.45 -8.4 1.45 -9.15 1.45 -9.9 1.95 -10.4 2.55 -10.95 3.25 -10.95 3.95 -10.95 4.5 -10.4 5.0 -9.9 5.0 -9.15 M4.85 -3.65 Q4.85 -2.9 4.3 -2.4 3.8 -1.85 3.05 -1.85 2.35 -1.85 1.8 -2.4 1.25 -2.9 1.25 -3.65 1.25 -4.4 1.8 -4.9 2.35 -5.45 3.05 -5.45 3.8 -5.45 4.3 -4.9 4.85 -4.4 4.85 -3.65" fill="none" stroke="#000000" stroke-linecap="round" stroke-linejoin="round" stroke-width="1.0"/>
  </g>
</svg>
