<?xml version="1.0" encoding="UTF-8" standalone="no"?>
<svg xmlns:xlink="http://www.w3.org/1999/xlink" height="36.85px" width="57.9px" xmlns="http://www.w3.org/2000/svg">
  <g transform="matrix(1.0, 0.0, 0.0, 1.0, 27.9, 21.8)">
    <path d="M9.65 -3.6 L10.05 0.8 -0.3 1.6 0.2 -3.2 9.65 -3.6" fill="#f3f6ff" fill-rule="evenodd" stroke="none"/>
    <path d="M8.9 -20.8 L8.95 -19.65 Q9.15 -10.6 9.65 -3.6 L10.05 0.8 10.25 2.9 Q11.25 12.3 11.8 12.35 15.25 14.2 17.55 12.3 14.95 -1.0 13.65 -20.8 M0.55 -20.35 L0.6 -19.3 Q0.75 -10.7 0.2 -3.2 L9.65 -3.6 M22.55 -10.8 L18.35 -20.8 M17.55 12.3 L18.95 12.1 Q24.7 11.15 29.0 6.45 L27.8 2.75 M-19.6 -10.5 L-21.05 -7.2 M-16.1 -19.55 L-19.5 -10.75 M-26.05 4.85 Q-27.1 8.05 -26.85 9.55 -20.55 13.45 -9.1 13.55 -6.0 1.55 -5.7 -20.35 M-9.1 13.55 Q-5.85 14.65 -2.3 13.4 -0.9 7.6 -0.3 1.6 L0.2 -3.2 M-0.3 1.6 L10.05 0.8" fill="none" stroke="#000000" stroke-linecap="round" stroke-linejoin="round" stroke-width="2.0"/>
    <path d="M22.0 1.6 Q25.4 4.05 27.8 2.75 L28.15 2.5 Q28.75 -0.15 26.6 -5.75 L24.6 -5.7 18.5 -6.65 Q18.1 -9.1 18.15 -12.05 20.8 -11.15 22.55 -10.8 L25.95 -10.95 Q28.35 -8.25 26.6 -5.75 M21.7 -10.35 L21.6 -7.0 M24.85 -10.15 L24.75 -6.9 M-20.5 -6.8 Q-20.15 -4.5 -20.6 -3.7 M-15.3 -4.35 Q-14.75 -5.45 -15.0 -8.05 L-21.05 -7.2 -21.45 -7.15 Q-25.0 -6.95 -24.2 -9.3 L-24.2 -9.35 Q-25.65 -5.45 -24.95 -3.4 L-25.0 -3.15 -23.05 -2.7 Q-16.35 -1.6 -11.6 -5.15 -11.5 -7.25 -11.8 -9.5 -13.25 -9.0 -14.8 -8.1 L-15.0 -8.05 M-19.5 -10.75 L-19.6 -10.5 -21.45 -7.15 M-19.5 -10.75 Q-23.0 -10.65 -24.2 -9.3 M-25.0 -3.15 Q-26.25 0.9 -26.1 4.8 L-26.05 4.85 Q-22.65 8.2 -18.3 6.25 -14.55 4.55 -13.25 2.65" fill="none" stroke="#000000" stroke-linecap="round" stroke-linejoin="round" stroke-width="1.5"/>
  </g>
</svg>
