<?xml version="1.0" encoding="UTF-8" standalone="no"?>
<svg xmlns:xlink="http://www.w3.org/1999/xlink" height="23.5px" width="47.25px" xmlns="http://www.w3.org/2000/svg">
  <g transform="matrix(1.0, 0.0, 0.0, 1.0, 23.6, 11.75)">
    <path d="M-22.65 4.4 Q-23.8 1.45 -23.4 -0.5 -23.0 -2.45 -17.6 -9.95 L-8.55 -9.15 -17.75 5.1 Q-11.35 6.45 -7.55 6.25 -4.05 0.05 0.4 -9.0 L8.1 -9.55 Q12.35 -1.3 13.6 6.1 17.55 5.85 20.8 4.1 L20.8 3.95 Q19.85 -3.5 15.9 -11.1 L17.95 -11.75 Q22.3 -4.6 22.7 -2.3 23.1 0.0 22.7 2.7 24.25 5.35 23.25 7.05 19.2 11.0 1.65 11.65 -15.95 12.25 -23.55 8.6 -23.75 6.7 -22.65 4.4" fill="#434343" fill-rule="evenodd" stroke="none"/>
  </g>
</svg>
