<?xml version="1.0" encoding="UTF-8" standalone="no"?>
<svg xmlns:xlink="http://www.w3.org/1999/xlink" height="25.5px" width="49.25px" xmlns="http://www.w3.org/2000/svg">
  <g transform="matrix(1.0, 0.0, 0.0, 1.0, 24.2, 21.7)">
    <path d="M-8.0 -18.4 L-17.35 -3.85 Q-10.95 -2.5 -7.15 -2.7 -3.65 -8.9 0.8 -17.95 L1.0 -18.4 M8.5 -18.5 Q12.75 -10.25 14.0 -2.85 17.95 -3.1 21.2 -4.85 L21.2 -5.0 Q20.25 -12.45 16.3 -20.05" fill="none" stroke="#000000" stroke-linecap="round" stroke-linejoin="round" stroke-width="1.5"/>
    <path d="M-17.2 -18.9 Q-22.6 -11.4 -23.0 -9.45 -23.4 -7.5 -22.25 -4.55 -12.15 -1.85 2.9 -2.0 L14.0 -2.85 M-22.25 -4.55 Q-23.35 -2.25 -23.15 -0.35 -15.55 3.3 2.05 2.7 19.6 2.05 23.65 -1.9 24.65 -3.6 23.1 -6.25 L21.2 -5.0 M23.1 -6.25 Q23.5 -8.95 23.1 -11.25 22.7 -13.55 18.35 -20.7" fill="none" stroke="#000000" stroke-linecap="round" stroke-linejoin="round" stroke-width="2.0"/>
  </g>
</svg>
