<?xml version="1.0" encoding="UTF-8" standalone="no"?>
<svg xmlns:xlink="http://www.w3.org/1999/xlink" height="38.8px" width="54.4px" xmlns="http://www.w3.org/2000/svg">
  <g transform="matrix(1.0, 0.0, 0.0, 1.0, 26.8, 21.3)">
    <path d="M-15.7 -20.0 L-19.85 -9.75 Q-25.5 0.0 -25.25 2.85 -25.0 5.65 -24.8 5.4 -17.7 9.35 6.25 8.8 24.75 7.6 25.75 3.75 27.6 1.05 22.15 -9.2 L18.5 -20.3 M21.6 8.6 L21.85 14.55 Q24.65 13.8 25.65 12.85 27.5 8.45 25.75 3.75 M4.6 10.45 L4.8 16.35 13.95 15.8 13.65 9.45 M13.95 15.8 L21.85 14.55 M-12.35 9.55 L-12.25 16.25 -3.8 16.5 -4.15 10.55 M-3.8 16.5 L-0.7 16.45 4.8 16.35 M-19.6 8.6 L-19.35 15.25 -12.25 16.25 M-24.8 5.4 Q-26.8 9.45 -24.7 13.15 -23.0 14.45 -19.35 15.25" fill="none" stroke="#000000" stroke-linecap="round" stroke-linejoin="round" stroke-width="2.0"/>
  </g>
</svg>
