<?xml version="1.0" encoding="UTF-8" standalone="no"?>
<svg xmlns:xlink="http://www.w3.org/1999/xlink" height="27.7px" width="50.15px" xmlns="http://www.w3.org/2000/svg">
  <g transform="matrix(1.0, 0.0, 0.0, 1.0, 25.0, 24.35)">
    <path d="M12.75 -17.9 Q14.65 -11.55 17.2 -10.1 M-6.4 -17.35 Q-7.3 -11.45 -10.95 -9.15" fill="none" stroke="#000000" stroke-linecap="round" stroke-linejoin="round" stroke-width="1.5"/>
    <path d="M-22.9 -6.15 Q-24.6 -2.75 -23.65 -0.6 -18.15 2.45 -3.1 2.35 11.9 2.25 23.3 -1.25 24.95 -4.05 23.4 -7.05 15.45 -3.3 -0.1 -2.8 -15.65 -2.35 -22.9 -6.15 L-22.95 -6.15 Q-23.85 -9.35 -21.0 -13.8 L-17.85 -18.65 -15.65 -22.45 M17.9 -23.35 Q22.75 -14.45 23.7 -11.55 24.6 -8.65 23.4 -7.05" fill="none" stroke="#000000" stroke-linecap="round" stroke-linejoin="round" stroke-width="2.0"/>
  </g>
</svg>
