<?xml version="1.0" encoding="UTF-8" standalone="no"?>
<svg xmlns:xlink="http://www.w3.org/1999/xlink" height="28.35px" width="63.3px" xmlns="http://www.w3.org/2000/svg">
  <g transform="matrix(1.0, 0.0, 0.0, 1.0, 30.7, 20.5)">
    <path d="M11.05 -18.55 L11.25 -17.85 Q12.5 -12.6 13.95 -8.25 16.4 -0.75 19.25 4.35 29.5 1.6 31.6 -4.2 L22.9 -11.4 18.7 -19.5 M-5.4 -10.1 L-6.3 -7.6 Q-9.5 1.2 -14.35 6.85 -26.75 3.5 -29.7 -6.65 L-21.3 -11.9 -21.3 -11.95 -16.75 -18.8 M-21.3 -11.9 L-23.45 -8.65 M-3.3 -18.0 L-3.4 -17.5 -3.4 -17.45 -3.5 -17.1 -5.4 -10.1" fill="none" stroke="#000000" stroke-linecap="round" stroke-linejoin="round" stroke-width="2.0"/>
    <path d="M-5.4 -10.1 L-5.1 -10.1 Q-1.95 -11.25 4.7 -9.15 10.5 -11.25 12.95 -10.5" fill="none" stroke="#000000" stroke-linecap="round" stroke-linejoin="round" stroke-opacity="0.49803922" stroke-width="2.0"/>
  </g>
</svg>
