<?xml version="1.0" encoding="UTF-8" standalone="no"?>
<svg xmlns:xlink="http://www.w3.org/1999/xlink" height="58.4px" width="106.3px" xmlns="http://www.w3.org/2000/svg">
  <g transform="matrix(1.0, 0.0, 0.0, 1.0, 54.5, 15.4)">
    <path d="M22.55 15.15 L26.2 14.0 26.65 15.4 26.3 15.4 22.5 15.6 21.05 15.55 22.5 15.6 Q21.0 18.2 21.6 20.55 L20.05 20.8 14.95 21.45 10.75 21.85 7.95 22.05 Q2.35 22.3 -2.8 21.95 L-10.55 21.1 -11.75 20.9 Q-12.1 19.5 -13.0 17.95 L-16.6 18.3 -15.9 14.6 -12.65 15.4 -13.0 17.95 -12.65 15.4 -2.15 17.1 Q6.6 17.95 14.7 16.8 L21.05 15.55 22.55 15.15 22.5 15.6 Q17.45 19.1 10.75 21.85 17.45 19.1 22.5 15.6 L22.55 15.15 M8.55 33.1 Q16.05 32.5 23.95 30.45 L24.45 30.3 24.8 30.25 30.75 28.45 30.8 28.5 29.5 32.95 26.45 33.05 Q25.55 32.6 25.05 31.15 25.55 32.6 26.45 33.05 L25.65 35.55 Q16.55 38.35 4.1 38.65 -3.95 39.05 -9.45 38.6 L-14.75 37.85 -15.45 35.1 -16.15 33.0 -16.4 33.2 -17.6 33.45 -18.65 30.0 -15.9 30.85 -14.75 31.15 -6.6 32.7 Q0.8 33.65 8.55 33.1 M24.8 30.3 L24.8 30.25 24.8 30.3 24.85 30.3 25.05 31.15 24.85 30.3 24.8 30.3 24.45 30.3 24.8 30.3 25.05 31.15 24.8 30.3 M24.45 31.2 L23.95 30.45 24.45 31.2 M-2.55 20.4 L-2.8 21.95 -2.55 20.4 M-16.15 33.0 L-15.9 30.85 -16.15 33.0" fill="#000000" fill-rule="evenodd" stroke="none"/>
    <path d="M26.65 15.4 L30.7 14.85 33.05 14.05 Q35.55 12.9 35.9 11.35 37.8 13.8 41.35 15.65 L39.3 18.0 Q37.75 19.4 36.25 20.0 L33.3 20.2 Q31.6 21.35 30.0 21.95 L28.8 22.3 28.65 22.3 Q26.65 22.35 26.4 20.95 L23.7 21.85 22.1 21.85 21.6 20.55 Q21.0 18.2 22.5 15.6 L26.3 15.4 26.65 15.4 M42.55 28.1 Q46.15 28.4 47.15 30.3 46.15 28.4 42.55 28.1 L46.25 25.45 Q49.5 25.95 51.05 27.1 50.45 29.75 47.15 30.3 L47.2 30.55 Q44.95 35.15 41.3 35.05 41.2 32.75 39.2 29.9 41.2 32.75 41.3 35.05 37.4 38.45 33.05 38.4 L33.0 39.05 Q28.15 40.85 25.3 39.45 25.1 37.75 25.65 35.55 L26.45 33.05 29.5 32.95 31.7 32.65 Q35.35 31.9 39.2 29.9 L42.55 28.1 M26.3 15.4 L26.4 20.95 26.3 15.4 M33.05 14.05 Q31.95 18.2 33.3 20.2 31.95 18.2 33.05 14.05 M31.7 32.65 Q33.15 35.9 33.05 38.4 33.15 35.9 31.7 32.65 M-16.6 18.3 L-13.0 17.95 Q-12.1 19.5 -11.75 20.9 -11.45 22.1 -11.55 23.25 -13.1 24.35 -15.25 24.55 L-17.45 24.5 -17.75 24.6 Q-22.65 26.15 -24.45 24.45 L-25.0 23.7 Q-23.95 22.65 -23.6 19.1 -23.95 22.65 -25.0 23.7 -30.5 25.05 -32.3 22.35 L-33.95 22.35 Q-37.9 21.95 -38.15 18.5 -39.15 18.8 -40.9 18.05 L-41.5 17.75 Q-43.55 16.55 -42.75 14.4 L-37.05 11.4 -37.25 11.65 Q-33.4 16.7 -23.05 18.2 L-16.6 18.3 M-17.4 19.3 L-17.2 21.65 Q-17.15 23.4 -17.45 24.5 -17.15 23.4 -17.2 21.65 L-17.4 19.3 M-35.7 15.3 Q-37.55 17.15 -38.15 18.5 -37.55 17.15 -35.7 15.3 M-30.05 17.8 Q-30.8 20.85 -32.3 22.35 -30.8 20.85 -30.05 17.8 M-14.75 37.85 Q-14.55 39.15 -14.65 40.1 -16.85 41.1 -19.05 41.3 L-21.55 41.25 Q-24.3 42.2 -26.15 42.25 -28.05 42.2 -29.05 41.2 L-32.5 41.7 -35.75 41.3 Q-37.5 40.85 -37.75 39.0 -48.2 38.9 -47.8 34.95 -54.5 33.75 -53.65 29.15 -50.2 28.2 -47.8 26.1 -34.45 36.75 -17.6 33.45 L-16.4 33.2 -16.15 33.0 -15.45 35.1 -14.75 37.85 M-21.8 35.7 L-21.55 41.25 -21.8 35.7 M-35.9 35.05 L-37.75 39.0 -35.9 35.05 M-28.25 35.6 L-29.05 41.2 -28.25 35.6 M-44.45 31.25 L-47.8 34.95 -44.45 31.25" fill="#ffe9f2" fill-rule="evenodd" stroke="none"/>
    <path d="M6.65 0.25 L6.1 -5.95 5.85 -10.5 M7.65 8.85 L7.25 5.25 6.65 0.25 M15.9 -13.35 L16.9 -10.65 Q19.7 -2.6 21.15 3.5 22.85 10.65 22.55 15.15 L26.2 14.0 26.65 15.4 30.7 14.85 33.05 14.05 Q35.55 12.9 35.9 11.35 L35.9 10.35 Q32.3 5.45 28.9 -1.45 L27.3 -4.55 M26.15 -6.65 Q24.0 -10.35 21.7 -13.35 M46.25 25.45 L47.2 24.7 Q40.9 21.65 39.3 18.0 37.75 19.4 36.25 20.0 L33.3 20.2 Q31.95 18.2 33.05 14.05 M47.15 30.3 Q46.15 28.4 42.55 28.1 L39.2 29.9 Q41.2 32.75 41.3 35.05 44.95 35.15 47.2 30.55 L47.15 30.3 Q50.45 29.75 51.05 27.1 49.5 25.95 46.25 25.45 L42.55 28.1 M21.05 15.55 L22.55 15.15 22.5 15.6 26.3 15.4 26.65 15.4 M22.5 15.6 Q21.0 18.2 21.6 20.55 L22.1 21.85 23.7 21.85 26.4 20.95 26.3 15.4 M26.4 20.95 Q26.65 22.35 28.65 22.3 L28.8 22.3 30.0 21.95 Q31.6 21.35 33.3 20.2 M7.65 8.85 L8.0 15.0 7.95 16.95 M14.7 16.8 L21.05 15.55 M10.75 21.85 L7.95 22.05 Q2.35 22.3 -2.8 21.95 L-10.55 21.1 -11.75 20.9 Q-12.1 19.5 -13.0 17.95 L-12.65 15.4 -15.9 14.6 -16.6 18.3 -13.0 17.95 M14.95 21.45 L10.75 21.85 M14.95 21.45 L20.05 20.8 21.6 20.55 M8.55 33.1 Q16.05 32.5 23.95 30.45 L24.45 30.3 24.8 30.25 24.45 27.9 Q24.15 23.5 23.7 21.85 M29.5 32.95 L30.8 28.5 30.75 28.45 24.8 30.25 24.8 30.3 25.05 31.15 Q25.55 32.6 26.45 33.05 L29.5 32.95 31.7 32.65 Q35.35 31.9 39.2 29.9 M26.45 33.05 L25.65 35.55 Q25.1 37.75 25.3 39.45 28.15 40.85 33.0 39.05 L33.05 38.4 Q33.15 35.9 31.7 32.65 M30.75 28.45 L28.8 22.3 M-14.75 37.85 L-9.45 38.6 Q-3.95 39.05 4.1 38.65 16.55 38.35 25.65 35.55 M39.3 18.0 L41.35 15.65 Q37.8 13.8 35.9 11.35 M33.05 38.4 Q37.4 38.45 41.3 35.05 M-19.65 -14.65 L-23.25 -8.1 M-12.4 14.2 L-12.4 14.05 Q-11.45 9.65 -9.15 3.75 -5.75 -5.1 -3.8 -13.7 M-12.65 15.4 L-12.4 14.2 M-25.0 23.7 L-24.45 24.45 Q-22.65 26.15 -17.75 24.6 L-17.45 24.5 Q-17.15 23.4 -17.2 21.65 L-17.4 19.3 M-17.45 24.5 L-15.25 24.55 Q-13.1 24.35 -11.55 23.25 -11.45 22.1 -11.75 20.9 M14.7 16.8 Q6.6 17.95 -2.15 17.1 L-12.65 15.4 M-37.05 11.4 L-37.25 11.65 Q-33.4 16.7 -23.05 18.2 L-16.6 18.3 M-24.95 -5.1 Q-28.65 1.05 -30.95 3.6 -34.6 7.6 -37.05 11.4 L-42.75 14.4 Q-43.55 16.55 -41.5 17.75 L-40.9 18.05 Q-39.15 18.8 -38.15 18.5 -37.55 17.15 -35.7 15.3 M-38.15 18.5 Q-37.9 21.95 -33.95 22.35 L-32.3 22.35 Q-30.8 20.85 -30.05 17.8 M-25.0 23.7 Q-23.95 22.65 -23.6 19.1 M-32.3 22.35 Q-30.5 25.05 -25.0 23.7 M-14.75 37.85 Q-14.55 39.15 -14.65 40.1 -16.85 41.1 -19.05 41.3 L-21.55 41.25 Q-24.3 42.2 -26.15 42.25 -28.05 42.2 -29.05 41.2 L-32.5 41.7 -35.75 41.3 Q-37.5 40.85 -37.75 39.0 -48.2 38.9 -47.8 34.95 -54.5 33.75 -53.65 29.15 -50.2 28.2 -47.8 26.1 L-48.15 25.85 Q-48.45 25.45 -45.75 23.4 -43.15 21.3 -40.9 18.05 M-29.05 41.2 L-28.25 35.6 M-37.75 39.0 L-35.9 35.05 M-21.55 41.25 L-21.8 35.7 M-6.6 32.7 Q0.8 33.65 8.55 33.1 M-17.75 24.6 L-18.75 29.75 -18.65 30.0 -15.9 30.85 -15.25 24.55 M-16.15 33.0 L-15.45 35.1 -14.75 37.85 M-16.15 33.0 L-16.4 33.2 -17.6 33.45 Q-34.45 36.75 -47.8 26.1 M-14.75 31.15 L-6.6 32.7 M-18.65 30.0 L-17.6 33.45 M-15.9 30.85 L-14.75 31.15 M-15.9 30.85 L-16.15 33.0 M-47.8 34.95 L-44.45 31.25" fill="none" stroke="#000000" stroke-linecap="round" stroke-linejoin="round" stroke-width="1.5"/>
    <path d="M6.1 -5.95 L1.25 -4.5 1.0 -1.1 6.65 0.25 12.15 1.6 Q10.9 -2.7 10.35 -7.45 L6.1 -5.95 M1.55 -9.8 L1.25 -4.5 -3.8 -3.3 -4.05 -2.35 1.0 -1.1 Q0.4 6.7 -0.4 11.25 L7.65 8.85 13.6 6.7 Q14.55 11.15 14.7 15.3 L19.6 15.5 21.05 15.55 22.5 15.6 Q17.45 19.1 10.75 21.85 L7.85 22.95 Q7.45 27.65 7.8 30.45 L17.7 30.45 Q15.1 28.3 14.95 21.45 M12.15 1.6 L18.0 3.0 Q16.65 -2.65 14.3 -9.2 L10.35 -7.45 10.1 -10.2 M16.9 -10.65 L14.3 -9.2 13.7 -10.8 M24.45 -0.5 Q26.6 3.5 29.5 7.25 M21.1 -8.25 Q20.45 -10.25 19.95 -12.25 M36.25 20.0 Q36.5 22.75 40.2 25.55 M21.15 3.5 L20.6 3.65 18.35 4.7 Q19.6 10.65 19.6 15.5 M18.35 4.7 L13.6 6.7 12.6 3.0 12.15 1.6 M20.6 3.65 L18.0 3.0 18.35 4.7 M8.0 15.0 L14.7 15.3 14.7 16.8 M7.95 22.05 L7.85 22.95 Q2.5 24.9 -3.8 26.45 L-4.9 29.85 7.8 30.45 Q8.0 32.1 8.55 33.1 M-2.8 21.95 L-3.8 26.45 -13.65 28.45 -13.85 29.05 -4.9 29.85 Q-5.75 31.9 -6.6 32.7 M23.95 30.45 L23.9 30.35 17.7 30.45 M24.8 30.3 L24.85 30.3 25.05 31.15 M24.45 30.3 L23.9 30.35 Q20.8 25.55 20.05 20.8 M24.45 30.3 L24.8 30.3 M23.95 30.45 L24.45 31.2 M30.0 21.95 Q29.8 24.9 32.05 28.4 M-17.6 -9.65 L-16.85 -11.95 M-1.95 -11.35 L-3.8 -3.3 -6.1 -2.85 -4.05 -2.35 Q-6.55 6.9 -9.75 13.5 L-0.4 11.25 -1.1 14.65 8.0 15.0 M-21.9 -0.85 Q-24.75 3.65 -28.75 7.35 M-12.4 14.05 L-12.95 14.15 -12.4 14.2 -10.15 14.3 -9.75 13.5 -12.4 14.05 M-2.15 17.1 Q-1.6 16.4 -1.1 14.65 L-10.15 14.3 -10.55 15.0 M-2.8 21.95 L-2.55 20.4 M-13.65 28.45 L-15.65 28.8 -13.85 29.05 -14.75 31.15 M-10.55 21.1 L-13.65 28.45 M-33.95 22.35 Q-37.15 26.15 -39.4 26.75 M-24.45 24.45 Q-25.25 29.8 -27.6 31.45 M-12.2 -12.5 Q-13.7 -2.05 -19.3 7.95" fill="none" stroke="#000000" stroke-linecap="round" stroke-linejoin="round" stroke-width="1.0"/>
    <path d="M27.3 -4.55 L26.75 -4.5 Q26.55 -1.55 24.45 -0.5 L23.9 -0.3 Q22.55 -0.8 21.65 -4.0 19.75 -6.9 20.35 -8.15 L21.1 -8.25 Q23.5 -8.5 26.05 -6.45 L26.15 -6.65 Q26.4 -7.45 26.95 -7.0 27.95 -9.95 28.9 -10.3 30.05 -9.45 30.65 -7.65 31.6 -5.8 31.25 -4.5 30.3 -3.7 27.8 -5.3 27.65 -4.75 27.3 -4.55 M27.8 -5.3 L27.6 -6.25 27.5 -6.5 26.95 -7.0 M26.75 -4.5 Q26.2 -5.0 26.0 -5.5 25.85 -5.95 26.05 -6.45 M-22.85 -7.45 L-23.25 -8.1 -24.4 -8.15 -25.2 -7.5 -25.4 -7.2 -25.65 -6.0 Q-25.45 -5.35 -24.95 -5.1 L-24.0 -5.0 Q-23.15 -5.65 -22.85 -6.25 L-22.8 -6.3 Q-22.6 -6.85 -22.85 -7.45 -20.15 -9.2 -17.6 -9.65 -15.7 -10.0 -13.9 -9.6 -12.85 -8.05 -15.85 -4.4 -17.35 -0.35 -19.5 0.25 -20.9 -0.15 -21.9 -0.85 -23.75 -2.25 -24.0 -5.0 M-24.4 -8.15 Q-25.95 -11.85 -27.45 -12.3 -29.3 -11.25 -30.2 -9.0 -31.75 -6.7 -31.2 -5.05 -29.65 -4.0 -25.65 -6.0 M-25.4 -7.2 L-28.4 -7.3 M-19.25 -7.0 Q-21.85 -6.95 -22.8 -6.3 -22.45 -4.9 -20.6 -3.5 M-25.2 -7.5 Q-25.45 -8.4 -26.8 -9.7" fill="none" stroke="#000000" stroke-linecap="round" stroke-linejoin="round" stroke-width="1.1"/>
    <path d="M27.5 -6.5 Q27.65 -7.2 28.45 -8.2 M26.0 -5.5 Q25.8 -4.4 24.6 -3.3 M27.6 -6.25 L29.5 -6.3 M26.0 -5.5 Q25.4 -6.05 23.75 -6.1" fill="none" stroke="#000000" stroke-linecap="round" stroke-linejoin="round" stroke-width="0.8"/>
  </g>
</svg>
