<?xml version="1.0" encoding="UTF-8" standalone="no"?>
<svg xmlns:xlink="http://www.w3.org/1999/xlink" height="23.15px" width="47.5px" xmlns="http://www.w3.org/2000/svg">
  <g transform="matrix(1.0, 0.0, 0.0, 1.0, 23.1, 22.0)">
    <path d="M20.3 -2.3 Q21.3 -3.85 20.15 -7.0 L12.45 -5.8 Q13.2 -3.05 12.65 -1.8 M-15.45 -20.8 L-19.6 -12.55 Q-20.65 -9.75 -20.4 -7.65 -18.95 -7.0 -16.3 -6.5 L-7.7 -5.6 2.85 -5.3 4.0 -5.3 12.45 -5.8 M2.85 -5.3 Q2.2 -2.0 2.85 -0.8 M18.3 -21.0 Q19.95 -16.2 22.4 -11.45 22.9 -7.95 21.45 -7.35 L22.4 -7.95 Q23.9 -5.35 23.2 -2.8 23.0 -0.95 4.4 0.15 -19.85 0.15 -21.85 -2.65 -22.65 -5.0 -21.0 -7.95 L-20.4 -7.65 M20.15 -7.0 L21.45 -7.35 M-16.3 -6.5 Q-17.15 -2.8 -16.55 -1.8 M-7.7 -5.6 Q-8.8 -2.6 -7.8 -1.0" fill="none" stroke="#000000" stroke-linecap="round" stroke-linejoin="round" stroke-width="2.0"/>
  </g>
</svg>
