<?xml version="1.0" encoding="UTF-8" standalone="no"?>
<svg xmlns:xlink="http://www.w3.org/1999/xlink" height="26.35px" width="49.55px" xmlns="http://www.w3.org/2000/svg">
  <g transform="matrix(1.0, 0.0, 0.0, 1.0, 24.45, 20.15)">
    <path d="M20.95 -4.9 L22.45 -5.95 Q21.9 -12.25 18.9 -19.15 M-10.9 -1.2 L-5.05 -0.9 13.15 -2.5 Q18.35 -3.6 20.95 -4.9 M-10.9 -1.2 Q-19.55 -2.05 -21.95 -4.95 -23.65 -2.3 -23.4 0.0 -20.95 5.1 -7.7 5.2 L-0.25 4.9 17.35 2.4 Q23.8 1.3 24.05 -0.5 24.3 -2.35 22.45 -5.95 M-16.8 -18.2 Q-20.95 -10.4 -21.95 -4.95" fill="none" stroke="#000000" stroke-linecap="round" stroke-linejoin="round" stroke-width="2.0"/>
    <path d="M20.95 -4.9 Q21.0 -9.2 19.15 -13.1 15.85 -15.55 15.35 -18.3 7.3 -16.6 -2.75 -16.8 -3.8 -12.4 -9.4 -9.8 L-10.9 -1.2" fill="none" stroke="#000000" stroke-linecap="round" stroke-linejoin="round" stroke-width="1.4000000000000001"/>
  </g>
</svg>
