<?xml version="1.0" encoding="UTF-8" standalone="no"?>
<svg xmlns:xlink="http://www.w3.org/1999/xlink" height="23.95px" width="51.8px" xmlns="http://www.w3.org/2000/svg">
  <g transform="matrix(1.0, 0.0, 0.0, 1.0, 25.55, 17.4)">
    <path d="M20.45 -16.5 Q23.15 -10.2 24.5 -4.95 25.2 -1.95 25.35 0.3 20.9 3.9 11.5 4.55 L11.55 1.35 -0.2 1.95 -0.2 5.55 Q-15.0 6.25 -24.65 1.35 -22.85 -4.4 -20.75 -8.5 -18.65 -12.65 -17.85 -14.9 M18.3 -13.9 Q20.3 -9.7 24.5 -4.95 M11.5 -16.1 Q11.95 -6.15 11.55 1.35 M-9.8 -12.35 Q-12.5 -5.2 -16.7 -2.75 M-0.2 -15.6 L-0.2 1.95" fill="none" stroke="#000000" stroke-linecap="round" stroke-linejoin="round" stroke-width="1.8"/>
  </g>
</svg>
