<?xml version="1.0" encoding="UTF-8" standalone="no"?>
<svg xmlns:xlink="http://www.w3.org/1999/xlink" height="45.05px" width="93.65px" xmlns="http://www.w3.org/2000/svg">
  <g transform="matrix(1.0, 0.0, 0.0, 1.0, 46.8, 22.5)">
    <path d="M-5.7 -0.95 L-6.15 -0.8 Q-7.85 -0.25 -8.75 0.9 -9.55 2.0 -9.1 3.4 -10.6 3.95 -11.35 5.25 -11.95 6.4 -12.05 7.7 -13.9 7.6 -15.05 8.95 L-16.0 10.2 Q-16.6 11.1 -16.85 12.15 L-17.4 12.2 -19.5 12.7 Q-20.3 13.0 -20.65 13.45 -21.2 13.95 -21.1 14.75 -22.05 14.75 -23.25 15.3 -24.85 16.05 -25.75 17.25 -26.2 17.8 -27.1 17.8 -28.7 17.8 -29.7 18.9 -30.75 18.1 -31.95 18.4 L-32.45 18.5 Q-34.0 19.05 -34.75 20.55 L-35.65 20.35 -36.9 20.35 Q-39.1 20.6 -40.5 22.3 -40.45 21.4 -42.15 20.75 -43.9 20.05 -46.3 21.25 -46.15 20.25 -46.8 20.05 L-43.4 13.45 Q-37.0 0.15 -26.6 -13.3 -23.2 -17.65 -18.0 -22.25 L-14.15 -21.8 -0.1 -21.05 -0.05 -21.0 -0.05 -20.9 0.15 -20.25 0.9 -19.25 Q0.1 -18.45 -0.05 -17.55 -0.25 -16.65 0.05 -15.3 -1.5 -14.55 -1.4 -12.8 -1.35 -11.65 -0.85 -10.6 L-2.55 -8.75 Q-3.25 -7.6 -2.9 -5.65 -3.8 -6.0 -5.15 -4.2 L-5.4 -3.8 Q-6.35 -2.2 -5.7 -0.95 M16.05 -21.35 L21.1 -22.5 Q25.2 -18.45 29.3 -12.8 L28.55 -13.35 39.85 5.15 39.9 5.15 41.5 7.85 41.5 7.8 44.1 13.45 46.75 19.4 46.85 19.6 46.7 20.0 46.75 20.35 46.85 20.5 46.45 20.55 46.2 20.6 Q44.95 20.75 44.0 21.5 L42.75 22.55 Q42.15 21.95 41.35 21.45 L37.65 21.3 Q37.6 20.1 36.5 19.3 35.05 18.35 33.45 17.95 L33.35 17.9 33.2 17.85 Q33.45 16.4 32.7 15.3 L32.6 15.15 Q31.8 14.05 30.7 13.45 L29.1 12.75 Q29.25 11.1 28.4 9.75 27.0 7.65 25.15 6.85 26.7 5.4 25.5 3.65 24.6 2.4 23.35 1.4 L23.4 1.25 Q24.2 -0.25 23.5 -1.85 23.05 -2.95 21.65 -3.3 21.95 -4.7 21.5 -6.0 20.95 -7.4 19.9 -8.15 L18.95 -8.65 19.15 -8.9 19.5 -11.0 19.1 -11.9 17.5 -13.7 17.55 -13.8 Q18.0 -15.3 17.65 -16.85 17.35 -18.15 16.1 -18.4 L16.25 -19.95 16.05 -21.35" fill="#e7b19b" fill-rule="evenodd" stroke="none"/>
  </g>
</svg>
