<?xml version="1.0" encoding="UTF-8" standalone="no"?>
<svg xmlns:xlink="http://www.w3.org/1999/xlink" height="51.65px" width="103.85px" xmlns="http://www.w3.org/2000/svg">
  <g transform="matrix(1.0, 0.0, 0.0, 1.0, 51.6, 14.15)">
    <path d="M5.35 -9.15 L9.85 -8.7 12.15 -9.45 13.1 -8.05 13.05 -7.35 13.7 -4.85 13.75 -4.5 9.95 -4.75 9.45 -4.75 6.0 -4.9 Q6.4 -5.75 6.15 -6.8 L5.35 -9.15 M9.85 -8.7 L10.1 -7.2 10.1 -7.1 10.1 -7.0 9.95 -5.6 9.45 -4.75 9.95 -5.6 10.1 -7.0 10.1 -7.1 10.1 -7.2 9.85 -8.7 M5.95 -1.65 L8.5 -1.65 13.4 -1.65 13.7 -1.65 Q13.55 -0.65 14.25 0.1 L15.4 1.7 Q15.0 3.7 15.7 5.15 L15.9 5.6 14.15 6.4 15.9 5.6 Q16.55 6.65 17.5 7.2 17.55 8.55 17.9 9.25 L18.45 10.5 19.85 12.2 20.25 13.15 Q20.1 16.1 21.35 16.9 22.15 17.3 22.45 18.1 20.45 20.0 18.0 20.35 19.05 19.15 19.2 17.35 L19.2 17.3 19.15 17.35 18.1 17.25 18.1 17.2 18.05 17.2 17.95 17.15 17.85 17.1 17.25 16.65 14.85 16.2 14.55 16.25 Q13.3 16.25 11.85 17.1 L11.8 17.1 11.85 17.1 11.85 17.3 11.8 17.1 10.3 18.1 10.25 18.1 12.9 19.9 12.35 20.15 10.45 20.65 Q7.75 21.05 5.85 19.8 8.0 19.6 8.2 17.8 7.75 18.05 6.9 17.35 L6.85 17.35 Q6.3 16.8 5.35 16.5 L4.0 16.3 0.2 16.75 -1.65 17.65 -0.05 20.4 -0.55 20.7 -0.6 20.7 Q-3.6 21.95 -6.55 20.4 L-6.4 19.95 Q-4.95 19.5 -4.65 18.05 L-4.6 17.9 -4.75 16.9 Q-3.8 16.45 -3.55 15.25 L-3.35 13.55 Q-1.55 13.45 -0.65 11.65 -0.3 10.9 -0.3 10.15 L0.4 10.3 0.55 10.3 0.35 11.5 0.2 12.05 Q-0.25 14.15 -1.05 16.25 L-1.65 17.65 -1.05 16.25 Q-0.25 14.15 0.2 12.05 L0.35 11.5 0.55 10.3 1.25 10.2 1.75 10.1 2.35 9.95 3.3 9.55 3.2 6.05 2.8 6.3 2.55 5.25 Q4.5 4.9 4.95 3.1 5.15 1.9 4.7 0.75 6.35 0.0 5.95 -1.65 M9.6 6.6 L9.55 6.6 Q8.6 5.65 6.85 5.6 L3.2 6.05 6.85 5.6 Q8.6 5.65 9.55 6.6 L9.6 6.6 9.65 6.7 8.8 9.0 Q10.2 9.8 11.8 9.85 L11.7 11.7 11.7 11.75 Q11.45 14.25 10.65 16.75 L10.25 18.05 10.25 18.1 10.25 18.05 10.65 16.75 Q11.45 14.25 11.7 11.75 L11.7 11.7 11.8 9.85 Q10.2 9.8 8.8 9.0 10.9 8.8 10.9 7.05 10.5 7.25 9.6 6.6 M8.5 -1.65 Q8.55 -0.05 9.3 2.45 L9.95 4.4 10.95 6.85 10.9 7.05 10.95 6.85 9.95 4.4 9.3 2.45 Q8.55 -0.05 8.5 -1.65 M9.95 -4.75 L10.8 -4.75 13.7 -4.85 10.8 -4.75 9.95 -4.75 M13.4 -1.65 L13.55 2.35 13.35 4.5 13.05 6.05 12.8 7.3 13.05 6.05 13.35 4.5 13.55 2.35 13.4 -1.65 M14.15 6.4 L12.85 7.3 12.8 7.3 15.5 9.1 14.15 6.4 M17.15 8.7 Q17.1 9.85 17.45 11.45 L17.55 11.9 Q18.05 14.05 19.1 16.8 L19.2 17.15 19.2 17.3 19.2 17.15 19.1 16.8 Q18.05 14.05 17.55 11.9 L17.45 11.45 Q17.1 9.85 17.15 8.7 M11.8 9.85 L13.2 9.75 15.5 9.1 13.2 9.75 11.8 9.85 M6.6 8.6 Q6.45 9.8 6.8 11.65 L6.85 11.85 Q7.15 14.3 8.25 17.6 L8.2 17.8 8.25 17.6 Q7.15 14.3 6.85 11.85 L6.8 11.65 Q6.45 9.8 6.6 8.6" fill="#fef0fd" fill-rule="evenodd" stroke="none"/>
    <path d="M6.0 -4.9 L9.45 -4.75 9.95 -4.75 13.75 -4.5 13.8 -4.35 13.9 -4.3 14.15 -3.65 13.7 -1.65 13.4 -1.65 8.5 -1.65 5.95 -1.65 5.9 -1.95 5.3 -4.1 6.0 -4.9 M2.8 6.3 L3.2 6.05 3.3 9.55 2.3 7.85 3.3 9.55 2.35 9.95 1.75 10.1 1.25 10.2 0.55 10.3 0.4 10.3 -0.3 10.15 -0.35 9.55 -0.35 9.5 Q1.35 9.25 2.3 7.85 L2.4 7.5 2.8 6.3 M9.6 6.6 Q10.5 7.25 10.9 7.05 10.9 8.8 8.8 9.0 L9.65 6.7 9.6 6.6 M27.25 27.4 L26.45 27.7 26.15 27.75 24.8 27.95 24.5 25.15 24.4 25.0 Q23.8 24.6 22.9 24.35 L21.15 24.2 20.8 24.25 Q19.55 24.25 17.9 25.0 L19.35 27.65 Q14.9 29.15 11.85 27.55 L12.75 25.35 12.7 25.25 12.65 25.25 Q11.6 24.4 9.55 24.35 L5.5 24.7 5.5 28.05 Q1.9 29.7 -1.95 27.8 L-1.0 25.75 -1.05 25.75 Q-2.65 24.9 -3.8 24.55 -5.0 24.15 -5.8 24.1 L-7.8 24.15 -7.95 24.2 -7.9 24.2 -9.2 27.1 Q-11.65 27.15 -13.8 26.2 L-13.25 25.25 Q-10.9 25.75 -9.9 24.2 L-9.85 24.1 -9.75 24.05 -7.95 24.2 -9.75 24.05 -9.25 22.9 -9.2 22.8 -9.05 21.6 -8.65 21.65 -9.2 22.8 -8.65 21.65 Q-7.1 21.6 -6.55 20.4 -3.6 21.95 -0.6 20.7 L-0.55 20.7 -0.05 20.4 -1.65 17.65 0.2 16.75 4.0 16.3 5.35 16.5 Q6.3 16.8 6.85 17.35 L6.9 17.35 Q7.75 18.05 8.2 17.8 8.0 19.6 5.85 19.8 7.75 21.05 10.45 20.65 L12.35 20.15 12.9 19.9 10.25 18.1 10.3 18.1 11.8 17.1 11.85 17.3 11.85 17.1 Q13.3 16.25 14.55 16.25 L14.85 16.2 17.25 16.65 17.85 17.1 17.95 17.15 18.05 17.2 18.1 17.2 18.1 17.25 19.15 17.35 19.2 17.3 19.2 17.35 Q19.05 19.15 18.0 20.35 20.45 20.0 22.45 18.1 22.7 18.85 22.55 19.75 22.3 21.45 23.5 22.8 L24.0 23.25 24.2 23.35 24.7 23.7 24.95 23.85 25.4 24.1 25.95 24.4 Q26.1 25.85 26.55 26.65 L27.25 27.4 M14.15 6.4 L15.5 9.1 12.8 7.3 12.85 7.3 14.15 6.4 M-4.75 16.9 L-4.6 17.9 -4.65 18.05 Q-4.95 19.5 -6.4 19.95 L-6.3 19.65 -6.0 18.45 -5.75 17.1 -4.75 16.9 M18.0 20.35 L17.95 17.2 17.85 17.1 17.95 17.2 18.0 20.35 M17.25 16.65 L17.25 16.85 17.3 17.5 Q17.5 20.1 17.15 22.8 L16.4 25.9 16.35 25.95 16.35 26.0 19.35 27.65 16.35 26.0 16.35 25.95 16.4 25.9 17.15 22.8 Q17.5 20.1 17.3 17.5 L17.25 16.85 17.25 16.65 M5.35 16.5 L5.3 18.7 4.65 22.8 3.65 25.55 5.5 28.05 3.65 25.55 4.65 22.8 5.3 18.7 5.35 16.5 M5.85 19.8 L6.95 17.45 6.9 17.35 6.95 17.45 5.85 19.8 M11.85 17.3 L12.9 19.9 11.85 17.3 M12.35 20.15 L13.15 22.8 14.25 25.5 14.15 25.65 Q13.7 25.9 12.7 25.25 13.7 25.9 14.15 25.65 L14.25 25.5 13.15 22.8 12.35 20.15 M-0.55 20.7 L-0.55 20.75 -0.2 22.8 0.55 25.75 0.5 25.95 -1.0 25.75 0.5 25.95 0.55 25.75 -0.2 22.8 -0.55 20.75 -0.55 20.7 M14.15 25.65 Q14.05 27.3 11.85 27.55 14.05 27.3 14.15 25.65 M16.35 26.0 L17.9 25.0 16.35 26.0 M3.65 25.55 L5.5 24.7 3.65 25.55 M25.4 24.1 L25.85 25.05 25.85 25.2 Q25.85 26.35 25.45 27.15 L24.8 27.95 25.45 27.15 Q25.85 26.35 25.85 25.2 L24.4 25.0 25.85 25.2 25.85 25.05 25.4 24.1 M-4.65 18.05 Q-5.05 18.3 -6.0 18.45 -5.05 18.3 -4.65 18.05 M-9.2 27.1 L-9.9 24.2 -9.2 27.1 M0.5 25.95 Q0.15 27.55 -1.95 27.8 0.15 27.55 0.5 25.95 M0.2 16.75 L-0.05 20.4 0.2 16.75" fill="#c9a5c8" fill-rule="evenodd" stroke="none"/>
    <path d="M19.85 12.2 L20.25 12.65 20.25 13.15 19.85 12.2" fill="#b4796d" fill-rule="evenodd" stroke="none"/>
    <path d="M41.9 17.15 L41.9 17.2 40.3 14.5 30.45 8.75 30.05 -2.4 28.95 -4.0 29.7 -3.45 31.75 -0.45 31.15 -0.55 31.85 7.8 39.05 12.05 40.0 13.7 39.95 13.25 41.9 17.15 M-28.65 4.7 L-18.15 -3.05 -16.75 9.7 -28.65 18.15 -28.65 4.7 M-27.1 14.6 L-18.7 8.75 -19.45 -0.45 -27.1 5.45 -27.1 14.6" fill="#f9decb" fill-rule="evenodd" stroke="none"/>
    <path d="M31.75 -0.45 L34.55 3.9 39.95 13.25 40.0 13.7 39.05 12.05 31.85 7.8 31.15 -0.55 31.75 -0.45 M-27.1 14.6 L-27.1 5.45 -19.45 -0.45 -18.7 8.75 -27.1 14.6" fill="#9d5c51" fill-rule="evenodd" stroke="none"/>
    <path d="M35.7 33.35 L35.45 33.35 35.45 33.3 35.7 33.35" fill="#cb9e8d" fill-rule="evenodd" stroke="none"/>
    <path d="M5.35 -9.15 L9.85 -8.7 12.15 -9.45 M6.0 -4.9 L9.45 -4.75 9.95 -5.6 10.1 -7.0 10.1 -7.1 10.1 -7.2 9.85 -8.7 M9.95 -4.75 L9.45 -4.75 M2.8 6.3 L3.2 6.05 6.85 5.6 Q8.6 5.65 9.55 6.6 L9.6 6.6 Q10.5 7.25 10.9 7.05 L10.95 6.85 9.95 4.4 9.3 2.45 Q8.55 -0.05 8.5 -1.65 M13.7 -4.85 L10.8 -4.75 9.95 -4.75 M27.25 27.4 L26.45 27.7 M26.15 27.75 L24.8 27.95 24.5 25.15 24.4 25.0 Q23.8 24.6 22.9 24.35 L21.15 24.2 20.8 24.25 Q19.55 24.25 17.9 25.0 L19.35 27.65 Q14.9 29.15 11.85 27.55 L12.75 25.35 12.7 25.25 12.65 25.25 Q11.6 24.4 9.55 24.35 L5.5 24.7 5.5 28.05 Q1.9 29.7 -1.95 27.8 L-1.0 25.75 -1.05 25.75 Q-2.65 24.9 -3.8 24.55 -5.0 24.15 -5.8 24.1 L-7.8 24.15 M-7.95 24.2 L-7.9 24.2 -9.2 27.1 Q-11.65 27.15 -13.8 26.2 M12.8 7.3 L13.05 6.05 13.35 4.5 13.55 2.35 13.4 -1.65 M10.25 18.1 L10.25 18.05 10.65 16.75 Q11.45 14.25 11.7 11.75 L11.7 11.7 11.8 9.85 Q10.2 9.8 8.8 9.0 L9.65 6.7 9.6 6.6 M14.15 6.4 L12.85 7.3 12.8 7.3 15.5 9.1 14.15 6.4 15.9 5.6 M15.5 9.1 L13.2 9.75 11.8 9.85 M19.2 17.3 L19.2 17.15 19.1 16.8 Q18.05 14.05 17.55 11.9 L17.45 11.45 Q17.1 9.85 17.15 8.7 M2.3 7.85 L3.3 9.55 3.2 6.05 M0.55 10.3 L0.4 10.3 -0.3 10.15 M-4.75 16.9 L-4.6 17.9 -4.65 18.05 Q-4.95 19.5 -6.4 19.95 M-6.55 20.4 Q-3.6 21.95 -0.6 20.7 L-0.55 20.7 -0.05 20.4 -1.65 17.65 -1.05 16.25 Q-0.25 14.15 0.2 12.05 L0.35 11.5 0.55 10.3 1.25 10.2 1.75 10.1 2.35 9.95 3.3 9.55 M8.2 17.8 L8.25 17.6 Q7.15 14.3 6.85 11.85 L6.8 11.65 Q6.45 9.8 6.6 8.6 M-1.65 17.65 L0.2 16.75 4.0 16.3 5.35 16.5 Q6.3 16.8 6.85 17.35 L6.9 17.35 Q7.75 18.05 8.2 17.8 8.0 19.6 5.85 19.8 7.75 21.05 10.45 20.65 L12.35 20.15 12.9 19.9 10.25 18.1 10.3 18.1 11.8 17.1 11.85 17.1 Q13.3 16.25 14.55 16.25 L14.85 16.2 17.25 16.65 17.85 17.1 17.95 17.15 18.05 17.2 18.1 17.2 18.1 17.25 19.15 17.35 19.2 17.3 19.2 17.35 Q19.05 19.15 18.0 20.35 20.45 20.0 22.45 18.1 M6.9 17.35 L6.95 17.45 5.85 19.8 M5.5 28.05 L3.65 25.55 4.65 22.8 5.3 18.7 5.35 16.5 M19.35 27.65 L16.35 26.0 16.35 25.95 16.4 25.9 17.15 22.8 Q17.5 20.1 17.3 17.5 L17.25 16.85 17.25 16.65 M17.85 17.1 L17.95 17.2 18.0 20.35 M11.85 17.3 L11.8 17.1 M11.85 17.3 L11.85 17.1 M12.7 25.25 Q13.7 25.9 14.15 25.65 L14.25 25.5 13.15 22.8 12.35 20.15 M12.9 19.9 L11.85 17.3 M8.8 9.0 Q10.9 8.8 10.9 7.05 M17.9 25.0 L16.35 26.0 M11.85 27.55 Q14.05 27.3 14.15 25.65 M-1.0 25.75 L0.5 25.95 0.55 25.75 -0.2 22.8 -0.55 20.75 -0.55 20.7 M24.8 27.95 L25.45 27.15 Q25.85 26.35 25.85 25.2 L24.4 25.0 M25.85 25.2 L25.85 25.05 25.4 24.1 M5.5 24.7 L3.65 25.55 M-6.0 18.45 Q-5.05 18.3 -4.65 18.05 M-9.2 22.8 L-8.65 21.65 M-7.95 24.2 L-9.75 24.05 M-9.9 24.2 L-9.2 27.1 M-9.25 22.9 L-9.2 22.8 M-0.05 20.4 L0.2 16.75 M-1.95 27.8 Q0.15 27.55 0.5 25.95" fill="none" stroke="#5d4259" stroke-linecap="round" stroke-linejoin="round" stroke-width="1.5"/>
    <path d="M5.2 -12.75 L5.35 -11.85 5.45 -10.9 5.4 -10.55 5.1 -9.7 5.3 -9.3 5.35 -9.15 6.15 -6.8 Q6.4 -5.75 6.0 -4.9 L5.3 -4.1 5.9 -1.95 M12.15 -9.45 Q11.9 -10.1 12.0 -10.65 L12.55 -12.9 M-5.3 8.4 Q-5.95 7.15 -5.0 5.55 L-4.75 5.15 Q-3.4 3.35 -2.5 3.7 -2.85 1.75 -2.15 0.6 L-0.45 -1.25 Q-0.95 -2.3 -1.0 -3.45 -1.1 -5.2 0.45 -5.95 0.15 -7.3 0.35 -8.2 0.5 -9.1 1.3 -9.9 L0.55 -10.9 0.35 -11.55 0.35 -11.65 0.3 -11.7 0.3 -11.8 Q0.25 -12.5 0.75 -12.9 M13.7 -1.65 L14.15 -3.65 13.9 -4.3 13.8 -4.35 13.75 -4.5 13.7 -4.85 13.05 -7.35 13.1 -8.05 12.15 -9.45 M5.95 -1.65 Q6.35 0.0 4.7 0.75 5.15 1.9 4.95 3.1 4.5 4.9 2.55 5.25 L2.8 6.3 2.4 7.5 2.3 7.85 Q1.35 9.25 -0.35 9.5 L-0.35 9.55 -0.3 10.15 Q-0.3 10.9 -0.65 11.65 -1.55 13.45 -3.35 13.55 L-3.55 15.25 Q-3.8 16.45 -4.75 16.9 L-5.75 17.1 -6.0 18.45 -6.3 19.65 -6.4 19.95 -6.55 20.4 Q-7.1 21.6 -8.65 21.65 L-9.05 21.6 -9.2 22.8 M15.8 -13.4 L16.45 -12.0 16.65 -10.6 16.5 -9.05 Q17.75 -8.8 18.05 -7.5 18.4 -5.95 17.95 -4.45 L17.9 -4.35 19.5 -2.55 19.9 -1.65 19.55 0.45 19.35 0.7 20.3 1.2 Q21.35 1.95 21.9 3.35 22.35 4.65 22.05 6.05 23.45 6.4 23.9 7.5 24.6 9.1 23.8 10.6 L23.75 10.75 Q25.0 11.75 25.9 13.0 27.1 14.75 25.55 16.2 27.4 17.0 28.8 19.1 29.65 20.45 29.5 22.1 L31.1 22.8 Q32.2 23.4 33.0 24.5 L33.1 24.65 Q33.85 25.75 33.6 27.2 L33.75 27.25 33.85 27.3 Q35.45 27.7 36.9 28.65 38.0 29.45 38.05 30.65 L41.75 30.8 43.15 31.9 Q43.7 31.4 44.4 30.85 45.35 30.1 46.6 29.95 L46.85 29.9 47.25 29.85 47.15 29.7 47.1 29.35 47.25 28.95 47.15 28.75 44.5 22.8 41.9 17.15 39.95 13.25 34.55 3.9 31.75 -0.45 29.7 -3.45 Q25.6 -9.1 21.5 -13.15 M47.15 28.75 L47.25 28.85 47.3 28.8 47.65 28.5 49.05 28.6 Q51.25 29.0 51.5 31.6 51.6 32.8 51.15 33.45 L50.55 34.0 46.95 34.0 46.85 34.0 46.75 33.95 Q46.2 34.75 44.4 35.3 42.45 35.85 41.4 34.85 40.15 35.5 39.2 35.6 38.05 35.75 37.3 35.2 36.0 34.1 35.75 33.35 L35.7 33.35 35.45 33.3 Q33.25 33.05 32.25 32.15 L32.15 32.0 31.85 31.65 Q30.9 30.1 31.0 29.7 L30.9 29.55 29.7 28.6 29.1 28.3 28.55 28.0 28.5 28.0 Q27.7 27.75 27.25 27.4 L26.55 26.65 Q26.1 25.85 25.95 24.4 L25.4 24.1 24.95 23.85 24.7 23.7 24.2 23.35 24.0 23.25 23.5 22.8 Q22.3 21.45 22.55 19.75 22.7 18.85 22.45 18.1 22.15 17.3 21.35 16.9 20.1 16.1 20.25 13.15 L20.25 12.65 19.85 12.2 20.25 13.15 M-13.8 26.2 Q-14.85 27.5 -16.45 28.25 L-19.85 28.45 Q-19.7 29.75 -20.95 30.4 -22.55 31.25 -24.5 31.0 -25.0 32.5 -26.45 33.05 L-29.9 33.3 -31.0 34.65 Q-32.05 35.2 -33.55 34.95 L-35.4 34.65 -35.75 35.5 Q-36.0 35.95 -36.55 36.2 L-37.2 36.65 Q-40.0 37.15 -41.85 35.45 L-42.1 35.2 Q-45.0 36.95 -48.4 34.95 L-49.95 33.8 Q-51.9 32.0 -49.55 31.05 L-49.25 31.0 Q-49.55 30.15 -48.4 29.7 -47.0 29.15 -46.4 29.4 L-43.0 22.8 Q-36.6 9.5 -26.2 -3.95 -22.8 -8.3 -17.6 -12.9 M47.25 28.95 L47.25 28.85 M15.9 5.6 L15.7 5.15 Q15.0 3.7 15.4 1.7 L14.25 0.1 Q13.55 -0.65 13.7 -1.65 M15.9 5.6 Q16.55 6.65 17.5 7.2 17.55 8.55 17.9 9.25 L18.45 10.5 19.85 12.2 M-46.4 29.4 Q-45.75 29.6 -45.9 30.6 -43.5 29.4 -41.75 30.1 -40.05 30.75 -40.1 31.65 -38.7 29.95 -36.5 29.7 L-35.25 29.7 -34.35 29.9 Q-33.6 28.4 -32.05 27.85 L-31.55 27.75 Q-30.35 27.45 -29.3 28.25 -28.3 27.15 -26.7 27.15 -25.8 27.15 -25.35 26.6 -24.45 25.4 -22.85 24.65 -21.65 24.1 -20.7 24.1 -20.8 23.3 -20.25 22.8 -19.9 22.35 -19.1 22.05 L-17.0 21.55 -16.45 21.5 Q-16.2 20.45 -15.6 19.55 L-14.65 18.3 Q-13.5 16.95 -11.65 17.05 -11.55 15.75 -10.95 14.6 -10.2 13.3 -8.7 12.75 -9.15 11.35 -8.35 10.25 -7.45 9.1 -5.75 8.55 M-9.75 24.05 L-9.85 24.1 -9.9 24.2 Q-10.9 25.75 -13.25 25.25 L-13.8 26.2 M-9.25 22.9 L-9.75 24.05" fill="none" stroke="#000000" stroke-linecap="round" stroke-linejoin="round" stroke-width="1.5"/>
  </g>
</svg>
