<?xml version="1.0" encoding="UTF-8" standalone="no"?>
<svg xmlns:xlink="http://www.w3.org/1999/xlink" height="75.85px" width="55.9px" xmlns="http://www.w3.org/2000/svg">
  <g transform="matrix(1.0, 0.0, 0.0, 1.0, 35.45, 26.85)">
    <path d="M20.35 -13.8 L20.45 -13.45 20.35 -13.8" fill="#ffef79" fill-rule="evenodd" stroke="none"/>
    <path d="M-24.05 1.05 Q-23.35 -3.85 -21.45 -8.9 -22.95 -8.55 -23.7 -9.15 -24.5 -9.75 -24.55 -12.1 -24.65 -14.5 -22.0 -17.85 -23.2 -19.55 -23.25 -22.05 -23.35 -24.55 -22.5 -25.65 -21.65 -26.75 -20.35 -26.85 -18.15 -26.95 -17.1 -25.9 -16.25 -25.0 -16.0 -23.9 -16.05 -24.55 -15.7 -24.8 -13.3 -26.85 -11.8 -26.2 -10.1 -25.5 -9.45 -23.65 -8.8 -21.85 -9.95 -19.5 L-10.9 -17.8 -12.5 -15.75 Q-10.45 -12.0 -12.0 -9.65 -13.55 -7.35 -15.4 -8.2 L-15.5 -8.6 -14.55 -2.65 -13.75 1.2 Q-12.85 2.2 -12.35 4.25 -11.85 6.2 -12.05 8.2 -12.25 10.15 -14.85 10.8 -17.5 11.4 -19.05 10.5 L-20.8 9.25 -20.75 10.5 Q-20.7 12.05 -21.9 12.85 L-22.9 12.9 Q-23.95 12.35 -25.0 12.5 L-26.8 12.35 -27.6 12.05 Q-28.85 11.3 -28.4 9.4 L-27.8 7.25 Q-27.0 4.5 -24.65 2.7 L-24.55 2.65 -24.2 2.35 -24.2 2.25 -24.05 1.05 M-19.75 -1.85 Q-21.05 2.0 -20.95 4.6 L-20.85 6.5 Q-20.5 3.0 -17.7 0.45 -17.9 -2.75 -18.5 -5.9 L-19.75 -1.85" fill="#020202" fill-opacity="0.9764706" fill-rule="evenodd" stroke="none"/>
    <path d="M17.0 -16.5 Q14.85 -7.3 4.2 7.75 M-0.7 -15.25 L-6.05 -5.2 M-20.3 29.55 Q-15.3 27.45 -7.6 15.0 -8.35 19.85 -14.9 29.6 -7.75 23.85 -0.6 14.35 M-6.05 42.6 Q1.55 34.0 8.3 17.85" fill="none" stroke="#000000" stroke-linecap="round" stroke-linejoin="round" stroke-opacity="0.49803922" stroke-width="1.0"/>
    <path d="M-24.55 2.65 L-24.05 1.05" fill="none" stroke="#000000" stroke-linecap="round" stroke-linejoin="round" stroke-width="1.5"/>
    <path d="M-27.2 24.45 L-26.85 21.55 -28.35 21.4 M-26.5 18.85 L-26.85 21.55 -25.5 21.7 M-32.8 44.5 L-33.45 47.0 -32.4 47.0 M-33.45 47.0 L-33.85 48.5 M-34.95 47.0 L-33.45 47.0 M-15.45 35.85 L-16.45 39.2 -14.5 39.7 M-16.45 39.2 L-17.35 42.05 M-17.65 38.85 L-16.45 39.2" fill="none" stroke="#000000" stroke-linecap="round" stroke-linejoin="round" stroke-width="1.0"/>
  </g>
</svg>
