<?xml version="1.0" encoding="UTF-8" standalone="no"?>
<svg xmlns:xlink="http://www.w3.org/1999/xlink" height="83.95px" width="52.9px" xmlns="http://www.w3.org/2000/svg">
  <g transform="matrix(1.0, 0.0, 0.0, 1.0, 26.45, 41.95)">
    <path d="M24.85 -40.65 L25.2 -40.3 25.2 -39.8 24.9 -39.4 24.95 -39.45 24.4 -39.45 Q20.45 -40.85 9.85 -40.65 -0.95 -40.45 -7.05 -37.85 L-7.0 -37.85 -7.5 -37.85 -7.9 -38.2 -7.9 -38.15 -7.9 -38.65 -7.55 -39.05 Q-1.25 -41.75 9.8 -41.95 20.85 -42.15 24.85 -40.65 M-1.5 -32.5 L13.85 -33.65 Q25.4 -33.65 26.35 -31.9 L26.4 -31.9 26.45 -31.35 26.15 -30.95 25.7 -30.9 25.3 -31.2 Q24.35 -32.35 13.85 -32.35 L-1.85 -31.15 -1.5 -32.5 M-3.35 -36.45 Q4.5 -37.8 11.65 -37.8 21.0 -37.85 25.5 -36.7 L25.95 -36.4 26.0 -35.95 25.7 -35.5 25.2 -35.45 Q20.8 -36.55 11.65 -36.5 5.0 -36.5 -2.25 -35.3 L-3.35 -36.45" fill="#fff455" fill-rule="evenodd" stroke="none"/>
    <path d="M-10.65 -28.35 Q-10.1 -28.65 -10.05 -31.45 -10.55 -34.95 -12.15 -35.15 -13.55 -33.85 -12.65 -30.9 -12.35 -29.05 -10.65 -28.35 M-15.15 -0.7 L-15.35 0.3 -15.55 0.95 -15.6 1.05 -15.8 1.25 -16.15 1.3 -16.45 1.05 -16.5 0.85 -16.5 0.7 -16.3 -0.1 -15.85 -2.4 -16.45 -0.4 -16.6 -0.15 -16.7 -0.1 -17.1 -0.05 -17.35 -0.25 -17.4 -0.3 -17.4 -0.7 -15.9 -5.75 Q-17.35 -4.05 -17.55 0.0 L-17.55 0.05 -17.7 0.4 -18.05 0.5 -18.4 0.35 -18.55 0.0 -18.55 -0.15 Q-18.4 -2.65 -17.8 -4.35 -18.7 -2.7 -18.8 -0.05 L-18.8 0.0 -18.95 0.35 -19.3 0.45 -19.65 0.3 -19.8 -0.05 Q-19.65 -4.55 -17.5 -6.45 -16.7 -7.15 -15.6 -7.45 L-15.55 -7.5 -14.95 -10.55 Q-13.85 -16.25 -12.3 -21.5 -12.85 -21.05 -13.45 -20.8 L-14.75 -20.6 -15.25 -20.75 -15.5 -21.2 Q-16.5 -25.8 -13.2 -28.25 -14.1 -29.4 -14.45 -31.35 L-14.45 -31.4 Q-15.1 -36.0 -12.45 -36.7 L-12.15 -36.75 Q-9.3 -36.45 -8.75 -32.0 L-7.2 -34.4 Q-5.05 -37.05 -3.7 -35.05 -2.8 -33.85 -3.2 -30.95 L-3.25 -30.9 -4.0 -29.3 -4.1 -29.2 Q-5.4 -27.75 -6.95 -27.15 -3.4 -22.7 -6.45 -19.9 -6.7 -19.7 -7.0 -19.7 L-8.55 -20.0 -8.75 -20.1 -9.1 -20.35 -9.3 -20.5 Q-8.2 -15.05 -7.75 -10.5 L-7.75 -10.45 -7.7 -9.95 -7.7 -9.8 -7.3 -9.35 Q-4.7 -6.3 -5.7 -1.4 L-5.9 -1.05 -6.3 -1.0 -6.6 -1.2 -6.7 -1.6 -6.65 -1.9 -6.9 -1.85 Q-7.1 -1.85 -7.2 -2.0 L-7.35 -2.4 -7.3 -4.05 -8.0 -1.0 -8.25 -0.7 -8.65 -0.65 -8.95 -0.9 -8.95 -0.95 -8.95 -1.3 -8.75 -2.0 Q-8.05 -4.55 -8.15 -7.65 L-8.9 -3.5 -8.9 -3.45 -9.0 -1.65 -9.15 -1.3 -9.35 -1.15 -9.45 -1.15 -9.5 -1.15 -9.7 -1.2 -9.85 -1.3 -10.0 -1.65 Q-10.05 -3.85 -9.35 -6.8 -10.45 -4.45 -10.05 -1.25 L-10.05 -1.2 -10.15 -0.85 -10.5 -0.65 -10.85 -0.75 -11.05 -1.05 -11.05 -1.25 Q-11.5 -4.95 -10.1 -7.6 L-10.05 -7.65 -9.8 -8.05 -9.8 -8.1 -9.75 -8.2 Q-11.8 -6.55 -11.75 -2.35 L-11.9 -2.0 Q-12.05 -1.85 -12.25 -1.85 L-12.6 -2.0 -12.75 -2.35 Q-12.85 -8.55 -8.7 -9.9 L-8.75 -10.4 -8.75 -10.45 Q-9.15 -14.5 -10.1 -19.3 L-10.85 -22.85 Q-12.7 -16.9 -13.95 -10.35 L-14.55 -7.2 -14.55 -7.15 Q-13.45 -4.65 -14.25 1.15 L-14.45 1.45 -14.8 1.55 -15.15 1.35 -15.25 1.05 -15.25 1.0 -15.15 0.4 -15.15 0.2 -14.95 -1.85 -15.15 -0.7 M-8.9 -22.45 L-8.7 -22.05 Q-8.2 -21.3 -7.3 -21.2 L-7.15 -21.35 -7.0 -21.6 Q-5.9 -23.65 -8.55 -26.75 L-9.4 -26.65 Q-9.5 -23.9 -8.9 -22.45 M-5.05 -34.35 Q-5.95 -34.0 -7.2 -31.75 L-7.15 -31.75 -8.75 -28.7 -8.8 -28.5 -8.85 -28.25 -8.4 -28.3 -8.25 -28.3 Q-6.6 -28.7 -5.25 -30.1 L-4.95 -30.65 Q-4.3 -33.35 -5.05 -34.35 M-12.15 -27.45 Q-13.6 -26.35 -14.1 -24.65 -14.9 -23.05 -14.0 -22.25 -12.55 -22.4 -12.35 -23.2 L-11.45 -26.15 Q-10.95 -27.0 -12.15 -27.45" fill="#ffff66" fill-opacity="0.9764706" fill-rule="evenodd" stroke="none"/>
    <path d="M-15.15 -0.7 L-14.95 -1.85 -15.15 0.2 -15.15 -0.7" fill="#020202" fill-opacity="0.9764706" fill-rule="evenodd" stroke="none"/>
    <path d="M-25.6 19.2 L-22.05 19.3 Q-21.25 16.9 -19.05 15.05 -17.4 17.95 -17.2 19.95 -14.85 19.8 -12.5 21.95 -13.2 24.1 -16.35 25.05 -15.9 28.65 -16.0 29.95 -19.8 29.0 -21.15 27.2 -23.55 28.7 -26.45 28.8 -26.6 26.65 -24.9 23.8 L-26.35 21.7 -25.6 19.2 M-18.2 40.35 Q-19.2 38.35 -18.6 36.3 -16.9 36.5 -14.35 37.55 -12.95 35.05 -10.35 34.5 -8.85 35.9 -9.05 38.35 -6.7 37.95 -4.5 40.05 -5.85 42.15 -7.6 42.0 -13.5 40.8 -18.2 40.35" fill="#ffff66" fill-rule="evenodd" stroke="none"/>
  </g>
</svg>
