<?xml version="1.0" encoding="UTF-8" standalone="no"?>
<svg xmlns:xlink="http://www.w3.org/1999/xlink" height="90.35px" width="62.1px" xmlns="http://www.w3.org/2000/svg">
  <g transform="matrix(1.0, 0.0, 0.0, 1.0, 39.4, 34.6)">
    <path d="M18.45 -17.95 Q16.35 -19.25 8.75 -19.1 L-6.2 -18.3 -11.35 -17.8 Q-7.6 -24.0 -12.25 -25.75 -14.1 -26.15 -16.0 -23.9 -15.0 -28.85 -15.55 -30.25 -10.5 -33.8 1.4 -33.85 13.3 -33.95 15.95 -32.35 17.9 -27.3 18.45 -17.95" fill="#ffffff" fill-opacity="0.21960784" fill-rule="evenodd" stroke="none"/>
    <path d="M-27.6 12.05 L-30.45 21.05 -33.2 29.9 -33.95 32.4 -34.2 33.3 -34.95 35.8 -35.55 37.85 -38.4 47.5 Q-39.9 51.0 -31.9 50.8 L-25.8 51.05 -15.2 52.7 -11.15 53.6 Q1.65 56.6 8.0 53.25 15.25 46.75 18.85 27.7 22.4 8.6 21.9 -0.4 21.4 -9.4 20.45 -13.45 L20.35 -13.8 Q19.35 -17.55 18.45 -17.95 16.35 -19.25 8.75 -19.1 L-6.2 -18.3 -11.35 -17.8 M-16.0 -23.9 Q-15.0 -28.85 -15.55 -30.25 -10.5 -33.8 1.4 -33.85 13.3 -33.95 15.95 -32.35 17.9 -27.3 18.45 -17.95" fill="none" stroke="#000000" stroke-linecap="round" stroke-linejoin="round" stroke-width="1.5"/>
    <path d="M-11.35 -17.8 Q-7.6 -24.0 -12.25 -25.75 -14.1 -26.15 -16.0 -23.9" fill="none" stroke="#000000" stroke-linecap="round" stroke-linejoin="round" stroke-opacity="0.84705883" stroke-width="1.0"/>
  </g>
</svg>
