<?xml version="1.0" encoding="UTF-8" standalone="no"?>
<svg xmlns:xlink="http://www.w3.org/1999/xlink" height="44.85px" width="58.15px" xmlns="http://www.w3.org/2000/svg">
  <g transform="matrix(1.0, 0.0, 0.0, 1.0, 29.1, 22.4)">
    <path d="M-5.0 -20.6 L-5.0 -20.55 Q-5.6 -12.35 -7.25 -5.8 L-7.3 -5.7 -7.35 -5.35 -7.75 -3.15 Q-10.35 12.0 -9.75 22.45 -25.1 18.45 -29.1 10.7 -26.8 -2.35 -16.7 -22.4 L-5.0 -20.6 M20.6 -21.7 Q27.75 -1.9 29.05 15.5 25.7 21.7 15.55 22.0 L15.5 22.0 15.55 21.85 Q17.05 5.15 14.2 -20.35 L14.2 -20.45 14.15 -20.5 20.6 -21.7" fill="#4f4f4f" fill-rule="evenodd" stroke="none"/>
  </g>
</svg>
