<?xml version="1.0" encoding="UTF-8" standalone="no"?>
<svg xmlns:xlink="http://www.w3.org/1999/xlink" height="31.2px" width="52.65px" xmlns="http://www.w3.org/2000/svg">
  <g transform="matrix(1.0, 0.0, 0.0, 1.0, 26.2, 19.65)">
    <path d="M20.5 -13.85 L19.95 -16.1 19.95 -16.15 18.9 -18.9 M23.8 -3.55 Q24.25 -4.45 23.25 -7.1 L20.5 -13.85 M19.5 5.0 L20.8 7.15 22.5 6.55 24.75 5.1 24.85 4.95 23.4 3.1 M23.8 -3.55 Q24.4 -0.75 24.15 1.0 25.75 2.1 25.7 3.1 25.7 3.95 24.85 4.95 M24.15 1.0 L23.4 2.65 Q17.2 5.45 12.45 6.15 L10.95 6.0 Q10.75 8.3 11.8 8.15 L14.95 8.3 14.65 6.15 M10.95 6.0 L9.95 5.2 9.9 5.15 9.55 5.85 Q9.9 7.05 9.3 8.25 8.5 8.95 6.95 9.6 L5.85 9.9 -1.9 10.8 -10.95 10.2 -11.55 10.1 -19.45 8.25 -23.65 6.9 -22.95 5.85 -24.5 5.9 -25.45 5.35 -24.6 4.1 -23.6 3.2 Q-24.65 -1.35 -22.9 -6.65 -21.2 -11.85 -19.85 -13.85 L-19.75 -14.1 -19.65 -14.1 -17.3 -17.6 M6.95 9.6 L6.8 7.65 M9.55 5.85 L8.45 6.5 6.8 7.1 5.45 7.8 Q-8.75 9.55 -21.8 4.2 L-22.95 5.85 M14.95 8.3 Q17.75 8.15 20.8 7.15 M-19.85 -13.85 L-19.65 -14.1 M-1.9 10.8 L-1.55 8.6 M-11.55 10.1 L-11.0 8.05 M-19.45 8.25 L-18.25 5.95 M-21.8 4.2 Q-22.75 3.75 -23.6 3.45 L-23.6 3.2" fill="none" stroke="#000000" stroke-linecap="round" stroke-linejoin="round" stroke-width="1.5"/>
    <path d="M19.95 -16.15 L16.95 -15.5 17.15 -13.4 18.65 -13.45 20.5 -13.85 M9.6 -3.05 L9.2 -2.2 Q8.9 -1.9 8.5 -1.95 8.1 -2.05 7.85 -2.45 7.55 -2.85 7.6 -3.4 L7.95 -4.2 8.65 -4.4 9.3 -3.95 Q9.65 -3.5 9.6 -3.05 M-16.45 -3.2 Q-16.6 -6.75 -15.45 -11.0 -16.35 -11.35 -16.75 -11.65 -17.0 -13.45 -16.05 -13.85 -7.3 -12.0 1.35 -13.65 1.9 -12.85 1.25 -11.1 L-0.3 -10.75 Q0.15 -5.15 -1.7 -2.0 M22.4 -3.5 L23.8 -3.55 M18.65 -13.45 Q18.7 -9.0 20.9 -4.85 M9.95 5.2 Q10.35 -3.3 9.7 -15.4 M6.55 -15.0 Q7.55 0.55 6.8 7.1 M-15.9 -2.1 Q-14.9 -0.7 -9.35 -0.25 L-2.55 -0.7 M-0.3 -10.75 L-8.9 -10.45 -15.45 -11.0" fill="none" stroke="#000000" stroke-linecap="round" stroke-linejoin="round" stroke-width="1.0"/>
  </g>
</svg>
