<?xml version="1.0" encoding="UTF-8" standalone="no"?>
<svg xmlns:xlink="http://www.w3.org/1999/xlink" height="25.3px" width="48.4px" xmlns="http://www.w3.org/2000/svg">
  <g transform="matrix(1.0, 0.0, 0.0, 1.0, 25.95, 17.25)">
    <path d="M-16.9 -16.5 Q-24.15 -6.65 -25.2 -2.5 -15.6 6.6 -2.65 7.3 -3.0 3.15 1.15 -6.6 L3.2 -11.25 3.1 -11.2 M2.1 -16.45 Q1.35 -13.6 3.2 -11.25 L12.4 -12.0 Q17.3 -11.05 19.1 -12.05 L20.95 -13.0 19.8 -16.1 M20.95 -13.0 Q22.1 -10.4 21.5 -9.2 13.55 -6.9 1.15 -6.6" fill="none" stroke="#000000" stroke-linecap="round" stroke-linejoin="round" stroke-width="1.5"/>
    <path d="M3.1 -11.2 Q0.2 -10.25 -4.45 -10.55 M12.4 -12.0 L15.3 -13.2 M3.1 -11.2 Q-0.65 -12.2 -1.6 -13.25" fill="none" stroke="#000000" stroke-linecap="round" stroke-linejoin="round" stroke-width="1.0"/>
  </g>
</svg>
