<?xml version="1.0" encoding="UTF-8" standalone="no"?>
<svg xmlns:xlink="http://www.w3.org/1999/xlink" height="72.65px" width="58.9px" xmlns="http://www.w3.org/2000/svg">
  <g transform="matrix(1.0, 0.0, 0.0, 1.0, 28.7, 35.9)">
    <path d="M10.65 11.8 L10.65 11.85 4.8 7.0 -2.75 13.35 -1.0 3.2 -9.0 -2.45 0.05 -4.0 4.45 -14.5 8.35 -3.85 15.25 -2.6 9.7 3.25 10.65 11.8 M14.95 -14.85 Q9.65 -21.2 2.2 -21.2 -5.25 -21.2 -10.55 -14.85 -15.8 -8.45 -15.8 0.55 -15.8 9.6 -10.55 16.0 -5.25 22.4 2.2 22.4 9.65 22.4 14.95 16.0 20.25 9.6 20.25 0.55 20.25 -8.45 14.95 -14.85 M18.05 -19.45 Q24.95 -11.1 24.95 0.6 24.95 12.4 18.05 20.65 11.2 29.0 1.45 29.0 -8.2 29.0 -15.05 20.65 -21.95 12.4 -21.95 0.6 -21.95 -11.1 -15.05 -19.45 -8.2 -27.7 1.45 -27.7 11.2 -27.7 18.05 -19.45" fill="#ffffff" fill-rule="evenodd" stroke="none"/>
    <path d="M10.65 11.85 Q7.35 15.05 3.0 15.05 -0.15 15.05 -2.75 13.35 -4.3 12.35 -5.65 10.7 -9.2 6.35 -9.2 0.25 L-9.0 -2.45 Q-8.4 -6.9 -5.65 -10.25 -2.05 -14.55 3.0 -14.55 L4.45 -14.5 Q8.45 -14.05 11.65 -10.25 15.25 -5.9 15.25 -2.6 15.25 6.35 11.65 10.7 L10.65 11.8 10.65 11.85 M14.95 -14.85 Q20.25 -8.45 20.25 0.55 20.25 9.6 14.95 16.0 9.65 22.4 2.2 22.4 -5.25 22.4 -10.55 16.0 -15.8 9.6 -15.8 0.55 -15.8 -8.45 -10.55 -14.85 -5.25 -21.2 2.2 -21.2 9.65 -21.2 14.95 -14.85 M18.05 -19.45 Q24.95 -11.1 24.95 0.6 24.95 12.4 18.05 20.65 11.2 29.0 1.45 29.0 -8.2 29.0 -15.05 20.65 -21.95 12.4 -21.95 0.6 -21.95 -11.1 -15.05 -19.45 -8.2 -27.7 1.45 -27.7 11.2 -27.7 18.05 -19.45" fill="none" stroke="#000000" stroke-linecap="round" stroke-linejoin="round" stroke-width="1.5"/>
    <path d="M10.65 11.85 L4.8 7.0 -2.75 13.35 -1.0 3.2 -9.0 -2.45 0.05 -4.0 4.45 -14.5 8.35 -3.85 15.25 -2.6 9.7 3.25 10.65 11.8 M20.8 -24.6 Q29.2 -14.2 29.2 0.45 29.2 15.1 20.8 25.4 12.55 35.75 0.7 35.75 -11.05 35.75 -19.45 25.4 -27.7 15.1 -27.7 0.45 -27.7 -14.2 -19.45 -24.6 -11.05 -34.9 0.7 -34.9 12.55 -34.9 20.8 -24.6" fill="none" stroke="#000000" stroke-linecap="round" stroke-linejoin="round" stroke-width="2.0"/>
  </g>
</svg>
