<?xml version="1.0" encoding="UTF-8" standalone="no"?>
<svg xmlns:xlink="http://www.w3.org/1999/xlink" height="72.65px" width="58.9px" xmlns="http://www.w3.org/2000/svg">
  <g transform="matrix(1.0, 0.0, 0.0, 1.0, 28.25, 34.55)">
    <path d="M-2.9 -7.65 L-2.6 -7.95 Q0.15 -10.65 3.75 -10.65 8.0 -10.65 11.0 -7.0 14.05 -3.35 14.05 1.75 14.05 6.9 11.0 10.55 L10.75 10.9 18.75 21.75 Q25.4 13.55 25.4 1.95 L25.4 0.6 5.9 -25.95 1.9 -26.35 Q-6.2 -26.35 -12.35 -20.5 L-2.9 -7.65 -3.45 -7.0 Q-6.5 -3.35 -6.5 1.75 -6.5 6.9 -3.45 10.55 -0.45 14.2 3.75 14.2 7.8 14.2 10.75 10.9 M5.9 -25.95 L7.2 -25.65 Q13.6 -24.0 18.5 -18.1 24.05 -11.4 25.15 -2.5 L25.4 0.6 M18.75 21.75 L18.5 22.0 Q12.2 29.65 3.55 30.3 L1.9 30.35 Q-7.75 30.35 -14.6 22.0 -21.5 13.75 -21.5 1.95 -21.5 -0.75 -21.1 -3.3 -19.9 -11.7 -14.6 -18.1 L-12.35 -20.5 M-21.1 -3.3 L3.55 30.3" fill="none" stroke="#000000" stroke-linecap="round" stroke-linejoin="round" stroke-width="1.5"/>
    <path d="M21.25 -23.25 Q29.65 -12.85 29.65 1.8 L29.65 3.3 Q29.25 16.45 21.9 26.0 L21.25 26.75 Q15.45 34.05 7.85 36.2 4.65 37.1 1.15 37.1 -10.6 37.1 -19.0 26.75 -27.25 16.45 -27.25 1.8 -27.25 -4.3 -25.8 -9.65 -23.8 -17.2 -19.0 -23.25 L-16.45 -26.05 Q-8.85 -33.55 1.15 -33.55 13.0 -33.55 21.25 -23.25" fill="none" stroke="#000000" stroke-linecap="round" stroke-linejoin="round" stroke-width="2.0"/>
  </g>
</svg>
