<?xml version="1.0" encoding="UTF-8" standalone="no"?>
<svg xmlns:xlink="http://www.w3.org/1999/xlink" height="74.1px" width="63.15px" xmlns="http://www.w3.org/2000/svg">
  <g transform="matrix(1.0, 0.0, 0.0, 1.0, 31.3, 35.9)">
    <path d="M8.05 -20.25 Q8.05 -19.5 7.5 -18.95 6.95 -18.4 6.2 -18.4 5.45 -18.4 4.85 -18.95 4.3 -19.5 4.3 -20.25 4.3 -21.0 4.85 -21.55 5.45 -22.1 6.2 -22.1 6.95 -22.1 7.5 -21.55 8.05 -21.0 8.05 -20.25 M23.0 4.65 Q22.5 5.15 21.8 5.2 L21.7 5.2 Q20.95 5.2 20.35 4.65 19.8 4.1 19.8 3.35 19.8 2.6 20.35 2.05 20.95 1.5 21.7 1.5 L21.8 1.5 Q22.5 1.55 23.0 2.05 23.55 2.6 23.55 3.35 23.55 4.1 23.0 4.65 M2.6 23.65 Q3.35 23.65 3.9 24.2 4.45 24.75 4.45 25.5 4.45 26.25 3.9 26.8 3.35 27.35 2.6 27.35 1.85 27.35 1.25 26.8 0.7 26.25 0.7 25.5 0.7 24.75 1.25 24.2 1.85 23.65 2.6 23.65 M-14.85 1.55 Q-14.85 2.3 -15.4 2.85 -15.95 3.4 -16.7 3.4 -17.45 3.4 -18.05 2.85 -18.6 2.3 -18.6 1.55 -18.6 0.8 -18.05 0.25 -17.45 -0.3 -16.7 -0.3 -15.95 -0.3 -15.4 0.25 -14.85 0.8 -14.85 1.55" fill="#000000" fill-rule="evenodd" stroke="none"/>
    <path d="M18.3 -18.2 L21.05 -14.05 15.85 -7.45 14.15 -9.8 12.7 -11.4 18.3 -18.2 M18.85 20.2 L18.1 21.1 17.85 21.35 14.95 24.4 11.2 18.6 Q12.75 17.45 14.15 15.75 L15.15 14.45 18.85 20.2 M-10.65 25.8 Q-12.75 24.25 -14.65 22.05 L-8.1 14.05 -6.85 15.75 -4.5 18.1 -10.65 25.8 M-14.05 -20.05 L-13.0 -21.15 Q-11.3 -22.8 -9.4 -23.95 L-2.65 -13.4 -5.6 -11.15 -6.85 -9.8 -7.1 -9.45 -14.05 -20.05 M9.65 -8.25 L11.95 -6.05 13.25 -4.35 Q15.15 -1.05 15.15 3.1 15.15 7.35 13.2 10.7 L11.95 12.35 Q10.55 14.05 8.95 15.05 6.85 16.2 4.35 16.2 1.1 16.2 -1.45 14.1 L-3.2 12.35 -4.95 9.65 Q-6.4 6.75 -6.4 3.1 -6.4 -1.45 -4.05 -4.9 L-3.2 -6.05 -2.3 -7.05 Q-1.0 -8.35 0.6 -9.05 2.3 -9.9 4.35 -9.9 7.3 -9.9 9.65 -8.25" fill="#4a4a4a" fill-rule="evenodd" stroke="none"/>
    <path d="M0.35 -34.9 L3.25 -34.75 8.25 -33.7 Q15.9 -31.4 21.8 -24.4 30.85 -13.8 30.85 1.15 L30.85 2.7 Q30.45 16.15 22.55 25.85 L21.8 26.65 Q15.6 34.1 7.45 36.3 L5.25 36.8 3.15 37.05 0.35 37.2 0.2 37.2 -2.7 37.05 Q-13.45 35.95 -21.4 26.65 -30.3 16.15 -30.3 1.15 -30.3 -5.05 -28.7 -10.5 -26.55 -18.2 -21.4 -24.4 L-18.7 -27.25 Q-12.5 -33.1 -4.7 -34.4 L0.2 -34.9 0.35 -34.9 M-9.4 -23.95 Q-4.6 -27.0 1.25 -27.0 L5.25 -26.6 6.55 -26.3 Q12.95 -24.65 17.85 -18.75 L18.3 -18.2 21.05 -14.05 Q23.75 -9.1 24.5 -3.15 L24.75 -0.05 24.75 1.3 Q24.75 12.25 18.85 20.2 L18.1 21.1 17.85 21.35 14.95 24.4 Q9.65 29.15 2.9 29.65 L1.25 29.7 Q-5.35 29.7 -10.65 25.8 -12.75 24.25 -14.65 22.05 L-15.25 21.35 Q-22.15 13.1 -22.15 1.3 -22.15 -1.4 -21.75 -3.95 -20.55 -12.35 -15.25 -18.75 L-14.05 -20.05 -13.0 -21.15 Q-11.3 -22.8 -9.4 -23.95" fill="none" stroke="#000000" stroke-linecap="round" stroke-linejoin="round" stroke-width="2.0"/>
    <path d="M-9.4 -23.95 L-2.65 -13.4 Q0.2 -15.1 3.65 -15.1 8.8 -15.1 12.7 -11.4 L18.3 -18.2 M9.65 -8.25 L11.95 -6.05 13.25 -4.35 Q15.15 -1.05 15.15 3.1 15.15 7.35 13.2 10.7 L11.95 12.35 Q10.55 14.05 8.95 15.05 6.85 16.2 4.35 16.2 1.1 16.2 -1.45 14.1 L-3.2 12.35 -4.95 9.65 Q-6.4 6.75 -6.4 3.1 -6.4 -1.45 -4.05 -4.9 L-3.2 -6.05 -2.3 -7.05 Q-1.0 -8.35 0.6 -9.05 2.3 -9.9 4.35 -9.9 7.3 -9.9 9.65 -8.25 M12.7 -11.4 L14.15 -9.8 15.85 -7.45 21.05 -14.05 M18.85 20.2 L15.15 14.45 14.15 15.75 Q12.75 17.45 11.2 18.6 L14.95 24.4 M11.2 18.6 Q7.8 21.05 3.65 21.05 -0.95 21.05 -4.5 18.1 L-10.65 25.8 M15.85 -7.45 Q18.6 -2.95 18.6 2.95 18.6 9.55 15.15 14.45 M-14.05 -20.05 L-7.1 -9.45 -6.85 -9.8 -5.6 -11.15 -2.65 -13.4 M-4.5 18.1 L-6.85 15.75 -8.1 14.05 -14.65 22.05 M-8.1 14.05 Q-11.25 9.3 -11.25 2.95 -11.25 -4.25 -7.1 -9.45" fill="none" stroke="#000000" stroke-linecap="round" stroke-linejoin="round" stroke-width="1.5"/>
  </g>
</svg>
