<?xml version="1.0" encoding="UTF-8" standalone="no"?>
<svg xmlns:xlink="http://www.w3.org/1999/xlink" height="72.65px" width="58.9px" xmlns="http://www.w3.org/2000/svg">
  <g transform="matrix(1.0, 0.0, 0.0, 1.0, 29.55, 35.85)">
    <path d="M9.9 -6.45 L3.55 -24.5 -4.05 -6.6 -19.15 -4.15 -5.55 4.45 -9.2 22.05 3.5 10.15 15.0 20.85 12.8 3.65 21.75 -4.4 9.9 -6.45 M16.45 -18.2 Q22.9 -10.4 22.9 0.5 22.9 11.5 16.45 19.25 10.05 27.0 1.0 27.0 -8.05 27.0 -14.5 19.25 -20.85 11.5 -20.85 0.5 -20.85 -10.4 -14.5 -18.2 -8.05 -25.9 1.0 -25.9 10.05 -25.9 16.45 -18.2 M19.95 25.45 Q11.7 35.8 -0.15 35.8 -11.9 35.8 -20.3 25.45 -28.55 15.15 -28.55 0.5 -28.55 -14.15 -20.3 -24.55 -11.9 -34.85 -0.15 -34.85 11.7 -34.85 19.95 -24.55 28.35 -14.15 28.35 0.5 28.35 15.15 19.95 25.45" fill="none" stroke="#000000" stroke-linecap="round" stroke-linejoin="round" stroke-width="2.0"/>
  </g>
</svg>
