<?xml version="1.0" encoding="UTF-8" standalone="no"?>
<svg xmlns:xlink="http://www.w3.org/1999/xlink" height="72.65px" width="58.9px" xmlns="http://www.w3.org/2000/svg">
  <g transform="matrix(1.0, 0.0, 0.0, 1.0, 30.9, 36.25)">
    <path d="M17.6 -23.55 L17.6 -23.45 17.25 -22.75 Q16.9 -22.4 16.45 -22.4 15.95 -22.4 15.55 -22.75 15.2 -23.1 15.2 -23.55 15.2 -24.05 15.55 -24.4 L16.35 -24.75 16.45 -24.75 Q16.9 -24.75 17.25 -24.4 L17.6 -23.55 M23.9 -3.5 L24.7 -3.85 24.8 -3.85 Q25.25 -3.85 25.6 -3.5 25.95 -3.15 25.95 -2.65 L25.95 -2.55 25.6 -1.85 Q25.25 -1.5 24.8 -1.5 24.3 -1.5 23.9 -1.85 23.55 -2.2 23.55 -2.65 23.55 -3.15 23.9 -3.5 M20.5 20.15 Q20.15 20.5 19.7 20.5 L18.8 20.15 Q18.45 19.8 18.45 19.35 18.45 18.85 18.8 18.5 L19.6 18.15 19.7 18.15 Q20.15 18.15 20.5 18.5 20.85 18.85 20.85 19.35 L20.85 19.45 20.5 20.15 M6.0 31.8 Q6.0 32.35 5.6 32.75 5.15 33.2 4.6 33.2 4.0 33.2 3.55 32.75 3.15 32.35 3.15 31.8 3.15 31.2 3.55 30.8 4.0 30.4 4.6 30.4 5.15 30.4 5.6 30.8 6.0 31.2 6.0 31.8 M-2.35 -32.5 Q-1.95 -32.1 -1.95 -31.5 -1.95 -30.95 -2.35 -30.55 -2.65 -30.25 -3.0 -30.15 L-3.35 -30.1 Q-3.95 -30.1 -4.4 -30.55 -4.8 -30.95 -4.8 -31.5 -4.8 -32.1 -4.4 -32.5 L-3.35 -32.9 -3.0 -32.85 -2.35 -32.5 M-20.45 -21.45 L-19.8 -21.1 Q-19.4 -20.7 -19.4 -20.1 -19.4 -19.55 -19.8 -19.15 -20.1 -18.85 -20.45 -18.75 L-20.8 -18.7 Q-21.4 -18.7 -21.85 -19.15 -22.25 -19.55 -22.25 -20.1 -22.25 -20.7 -21.85 -21.1 -21.4 -21.5 -20.8 -21.5 L-20.45 -21.45 M-25.45 5.9 Q-25.45 6.45 -25.85 6.85 -26.3 7.3 -26.85 7.3 -27.45 7.3 -27.9 6.85 -28.3 6.45 -28.3 5.9 -28.3 5.3 -27.9 4.9 L-26.85 4.5 Q-26.3 4.5 -25.85 4.9 -25.45 5.3 -25.45 5.9 M-15.4 25.85 Q-15.4 26.4 -15.8 26.8 -16.25 27.25 -16.8 27.25 L-17.85 26.8 Q-18.25 26.4 -18.25 25.85 -18.25 25.25 -17.85 24.85 -17.4 24.45 -16.8 24.45 -16.25 24.45 -15.8 24.85 -15.4 25.25 -15.4 25.85" fill="#000000" fill-rule="evenodd" stroke="none"/>
    <path d="M-7.65 -0.15 Q-7.1 -3.65 -4.85 -6.3 L-4.0 -7.25 Q-1.25 -9.95 2.35 -9.95 6.6 -9.95 9.6 -6.3 10.85 -4.8 11.6 -3.1 12.65 -0.6 12.65 2.45 L12.65 3.1 Q12.45 7.85 9.6 11.25 6.6 14.9 2.35 14.9 -1.85 14.9 -4.85 11.25 -6.7 9.0 -7.45 6.25 -7.9 4.45 -7.9 2.45 L-7.65 -0.15" fill="#000000" fill-opacity="0.4392157" fill-rule="evenodd" stroke="none"/>
    <path d="M4.55 -27.35 Q10.75 -25.75 14.85 -20.95 L15.15 -20.65 15.85 -19.8 18.65 -15.75 18.85 -15.45 Q21.6 -10.6 22.45 -4.75 L22.5 -4.2 22.75 -1.1 22.75 0.25 22.75 1.55 Q22.5 8.7 19.65 14.5 L19.25 15.35 Q17.9 17.85 16.1 20.05 L15.85 20.3 15.15 21.15 Q9.05 28.0 0.9 28.6 L-0.75 28.65 Q-5.65 28.65 -9.85 26.5 L-12.5 24.85 -15.8 21.95 -16.95 20.65 -17.25 20.3 Q-21.55 15.15 -23.15 8.65 -23.9 5.65 -24.1 2.3 L-24.15 0.25 Q-24.15 -2.45 -23.75 -5.0 -23.35 -7.85 -22.6 -10.0 L-22.5 -10.35 Q-21.45 -13.35 -20.05 -15.75 L-19.7 -16.35 -17.25 -19.8 -15.0 -22.2 Q-8.85 -28.05 -0.75 -28.05 L3.25 -27.65 4.55 -27.35 M-7.65 -0.15 Q-7.1 -3.65 -4.85 -6.3 L-4.0 -7.25 Q-1.25 -9.95 2.35 -9.95 6.6 -9.95 9.6 -6.3 10.85 -4.8 11.6 -3.1 12.65 -0.6 12.65 2.45 L12.65 3.1 Q12.45 7.85 9.6 11.25 6.6 14.9 2.35 14.9 -1.85 14.9 -4.85 11.25 -6.7 9.0 -7.45 6.25 -7.9 4.45 -7.9 2.45 L-7.65 -0.15 M-1.5 -35.25 Q10.35 -35.25 18.6 -24.95 27.0 -14.55 27.0 0.1 L27.0 1.6 Q26.6 14.75 19.25 24.3 L18.6 25.05 Q12.8 32.35 5.2 34.5 2.0 35.4 -1.5 35.4 -13.25 35.4 -21.65 25.05 -29.9 14.75 -29.9 0.1 -29.9 -6.0 -28.45 -11.35 -26.45 -18.9 -21.65 -24.95 L-19.1 -27.75 Q-11.5 -35.25 -1.5 -35.25" fill="none" stroke="#000000" stroke-linecap="round" stroke-linejoin="round" stroke-width="2.0"/>
    <path d="M11.6 -3.1 L22.45 -4.75 M12.65 3.1 L22.75 1.55 M-7.45 6.25 L-23.15 8.65 M-7.65 -0.15 L-24.1 2.3 M-12.5 24.85 Q1.7 23.55 16.1 20.05 M-16.95 20.65 Q0.3 18.5 19.65 14.5 M-20.05 -15.75 L15.15 -20.65 M-22.6 -10.0 Q-0.55 -12.1 18.65 -15.75" fill="none" stroke="#000000" stroke-linecap="round" stroke-linejoin="round" stroke-width="1.4000000000000001"/>
  </g>
</svg>
