<?xml version="1.0" encoding="UTF-8" standalone="no"?>
<svg xmlns:xlink="http://www.w3.org/1999/xlink" height="78.5px" width="65.55px" xmlns="http://www.w3.org/2000/svg">
  <g transform="matrix(1.0, 0.0, 0.0, 1.0, 33.0, 37.35)">
    <path d="M-1.65 -33.75 L-1.8 -36.35 4.05 -36.35 4.05 -33.4 4.1 -31.0 -1.45 -30.85 -1.65 -33.75 M-28.65 5.1 L-26.2 4.75 -25.45 10.1 -27.95 10.5 -30.95 10.9 -32.0 5.5 -28.65 5.1 M2.7 36.7 L2.5 34.75 8.35 34.0 8.6 39.25 3.05 40.15 2.7 36.7 M28.05 -0.75 L31.1 -1.05 31.55 3.0 28.1 3.45 27.4 3.5 26.65 -0.6 28.05 -0.75" fill="#b3bfc6" fill-rule="evenodd" stroke="none"/>
    <path d="M-1.65 -33.75 L-1.45 -30.85 4.1 -31.0 4.05 -33.4 4.05 -36.35 -1.8 -36.35 -1.65 -33.75 Q-10.9 -33.35 -18.0 -26.3 L-20.55 -23.5 Q-25.35 -17.45 -27.35 -9.9 -28.8 -4.55 -28.8 1.55 L-28.65 5.1 -26.2 4.75 -25.45 10.1 -27.95 10.5 Q-26.15 19.5 -20.55 26.5 -12.15 36.85 -0.4 36.85 L2.7 36.7 2.5 34.75 8.35 34.0 8.6 39.25 3.05 40.15 2.7 36.7 M1.65 -26.55 L4.35 -26.2 5.65 -25.9 Q12.05 -24.25 16.95 -18.35 L17.4 -17.8 20.15 -13.65 Q22.85 -8.7 23.6 -2.75 L23.85 0.35 23.85 1.65 23.85 1.7 Q23.85 10.95 19.65 18.1 L17.95 20.6 17.2 21.5 16.95 21.75 14.05 24.8 Q10.05 28.4 5.25 29.55 L2.0 30.05 0.35 30.1 Q-6.25 30.1 -11.55 26.2 L-14.05 24.05 -15.55 22.45 -16.15 21.75 Q-21.5 15.35 -22.7 6.75 L-23.05 1.7 Q-23.05 -1.0 -22.65 -3.55 -21.65 -10.5 -17.8 -16.1 L-16.15 -18.35 -14.95 -19.65 -13.9 -20.75 Q-12.2 -22.4 -10.3 -23.55 -5.5 -26.6 0.35 -26.6 L1.65 -26.55 2.3 -16.5 2.5 -16.5 Q7.65 -16.5 11.55 -12.8 L11.85 -12.5 12.7 -11.55 17.4 -17.8 M-17.8 -16.1 L-9.7 -8.7 -9.1 -9.7 -8.25 -10.85 -8.0 -11.2 -6.75 -12.55 -3.8 -14.8 Q-1.1 -16.4 2.15 -16.5 L2.3 -16.5 M12.7 -11.55 L13.0 -11.2 14.7 -8.85 Q17.2 -4.75 17.45 0.55 L17.45 1.55 17.45 2.35 23.85 1.65 M28.05 -0.75 L26.65 -0.6 27.4 3.5 28.1 3.45 31.55 3.0 31.1 -1.05 28.05 -0.75 Q27.45 -13.9 19.7 -23.5 13.05 -31.8 4.05 -33.4 M-22.7 6.75 L-12.05 5.6 -12.3 3.8 -12.4 1.55 Q-12.4 -4.25 -9.7 -8.7 M5.25 29.55 L4.6 19.5 4.5 19.5 2.5 19.65 Q-2.1 19.65 -5.65 16.7 L-7.3 15.15 -14.05 24.05 M-7.3 15.15 L-8.0 14.35 -8.2 14.15 -9.25 12.65 Q-11.35 9.45 -12.05 5.6 M-27.95 10.5 L-30.95 10.9 -32.0 5.5 -28.65 5.1 M17.45 2.35 Q17.25 7.75 14.7 12.0 L14.05 13.0 19.65 18.1 M14.05 13.0 L14.0 13.05 13.0 14.35 Q11.6 16.05 10.05 17.2 7.5 19.0 4.6 19.5 M28.1 3.45 Q27.6 16.35 20.35 25.75 L19.7 26.5 Q14.85 32.6 8.8 35.1" fill="none" stroke="#000000" stroke-linecap="round" stroke-linejoin="round" stroke-width="2.0"/>
    <path d="M8.25 -8.75 L8.75 -8.35 9.7 -7.5 10.45 -6.65 11.65 -5.0 Q13.25 -2.35 13.45 1.0 L13.5 2.1 13.5 2.8 Q13.35 6.35 11.65 9.25 L11.6 9.3 11.0 10.2 10.45 10.9 7.55 13.45 Q6.0 14.25 4.3 14.5 L4.15 14.5 3.2 14.55 Q0.1 14.55 -2.35 12.55 L-4.0 10.9 -4.05 10.8 -4.85 9.75 -5.7 8.3 Q-6.45 6.75 -6.8 5.05 L-7.0 3.2 -7.05 2.1 Q-7.05 -1.7 -5.3 -4.7 L-4.8 -5.55 -4.7 -5.7 -4.0 -6.65 -3.15 -7.6 -0.4 -9.5 Q0.95 -10.15 2.55 -10.25 L2.7 -10.25 3.2 -10.3 Q6.0 -10.3 8.25 -8.75" fill="none" stroke="#000000" stroke-linecap="round" stroke-linejoin="round" stroke-width="1.5"/>
  </g>
</svg>
