<?xml version="1.0" encoding="UTF-8" standalone="no"?>
<svg xmlns:xlink="http://www.w3.org/1999/xlink" height="90.3px" width="59.75px" xmlns="http://www.w3.org/2000/svg">
  <g transform="matrix(1.0, 0.0, 0.0, 1.0, 29.65, 40.75)">
    <path d="M22.6 -14.75 Q7.0 -3.55 -11.6 -9.2 -15.25 -11.3 -15.25 -15.25 -15.25 -19.25 -9.3 -17.9 6.0 -15.15 20.5 -23.3 25.35 -26.2 25.55 -21.6 25.75 -17.05 22.6 -14.75 M19.0 -17.4 Q18.55 -19.0 15.55 -17.65 6.4 -13.9 -4.0 -13.9 -8.05 -14.0 -7.75 -12.6 -7.5 -11.2 -4.9 -10.75 7.9 -9.9 17.55 -14.8 19.45 -15.8 19.0 -17.4" fill="#b3bfc6" fill-rule="evenodd" stroke="none"/>
    <path d="M19.0 -17.4 Q19.45 -15.8 17.55 -14.8 7.9 -9.9 -4.9 -10.75 -7.5 -11.2 -7.75 -12.6 -8.05 -14.0 -4.0 -13.9 6.4 -13.9 15.55 -17.65 18.55 -19.0 19.0 -17.4" fill="#ffffff" fill-rule="evenodd" stroke="none"/>
    <path d="M22.6 -14.75 Q7.0 -3.55 -11.6 -9.2 -15.25 -11.3 -15.25 -15.25 -15.25 -19.25 -9.3 -17.9 6.0 -15.15 20.5 -23.3 25.35 -26.2 25.55 -21.6 25.75 -17.05 22.6 -14.75 M29.1 -35.1 L21.8 -39.75 -28.65 -33.3 -21.35 -28.2 -21.35 -28.3 29.1 -35.1 29.1 27.25 29.1 36.5 Q11.4 52.4 -21.35 47.35 L-28.65 41.5 -28.65 32.3 -28.65 -33.3 M-21.35 47.35 L-21.35 37.7 -28.65 32.3 M-21.35 -28.2 L-21.35 37.7 Q10.85 41.95 29.1 27.25" fill="none" stroke="#000000" stroke-linecap="round" stroke-linejoin="round" stroke-width="2.0"/>
  </g>
</svg>
