<?xml version="1.0" encoding="UTF-8" standalone="no"?>
<svg xmlns:xlink="http://www.w3.org/1999/xlink" height="35.2px" width="135.75px" xmlns="http://www.w3.org/2000/svg">
  <g transform="matrix(1.0, 0.0, 0.0, 1.0, 26.0, 44.4)">
    <path d="M8.15 -42.05 Q-9.95 -46.05 -24.6 -38.2 L-24.95 -34.4 Q-25.7 -21.75 -18.7 -12.7 L-17.15 -11.55 Q-10.95 -7.95 1.35 -14.1 7.75 -20.5 9.4 -23.25 13.6 -34.5 8.15 -42.05 M79.9 -42.05 Q95.9 -46.05 108.55 -38.2 L108.75 -34.4 Q109.1 -21.75 102.7 -12.7 L101.25 -11.55 Q95.7 -7.95 85.1 -14.1 79.65 -20.5 78.3 -23.25 74.9 -34.5 79.9 -42.05" fill="none" stroke="#000000" stroke-linecap="round" stroke-linejoin="round" stroke-width="2.0"/>
  </g>
</svg>
