<?xml version="1.0" encoding="UTF-8" standalone="no"?>
<svg xmlns:xlink="http://www.w3.org/1999/xlink" height="74.7px" width="50.25px" xmlns="http://www.w3.org/2000/svg">
  <g transform="matrix(1.0, 0.0, 0.0, 1.0, 28.6, 36.6)">
    <path d="M15.3 -15.6 L15.3 9.35 Q11.6 21.05 1.6 25.65 -8.9 20.35 -13.35 14.55 L-13.35 -12.6 Q-4.0 -12.45 1.35 -18.8 7.05 -13.4 15.3 -15.6 M0.2 36.5 Q-13.95 29.8 -22.15 19.9 L-22.15 -20.6 Q-8.15 -20.35 0.05 -30.05 6.85 -21.75 20.65 -25.05" fill="none" stroke="#000000" stroke-linecap="round" stroke-linejoin="round" stroke-width="1.5"/>
    <path d="M20.65 -25.05 L17.4 -30.3 Q4.85 -27.35 -1.4 -35.6 -10.15 -25.95 -27.6 -25.9 L-27.6 20.9 Q-7.5 40.2 0.2 36.5 L0.25 36.5 Q15.1 29.6 20.65 12.15 L20.65 -25.05" fill="none" stroke="#000000" stroke-linecap="round" stroke-linejoin="round" stroke-width="2.0"/>
  </g>
</svg>
