<?xml version="1.0" encoding="UTF-8" standalone="no"?>
<svg xmlns:xlink="http://www.w3.org/1999/xlink" height="74.2px" width="50.25px" xmlns="http://www.w3.org/2000/svg">
  <g transform="matrix(1.0, 0.0, 0.0, 1.0, 30.65, 37.2)">
    <path d="M-3.15 -30.6 Q4.8 -22.25 18.6 -25.55 L15.35 -30.8 Q2.85 -27.85 -5.1 -36.15 L-5.15 -36.2 Q-12.2 -26.45 -29.65 -26.4 L-29.65 0.85 -29.65 19.2 Q-15.6 35.9 -1.85 36.0 L-1.8 36.0 Q12.2 28.8 18.6 13.05 L18.6 0.9 18.6 -25.55 M-2.55 35.6 L-1.85 36.0 M-2.55 35.6 Q-15.7 29.0 -24.2 19.4 L-24.2 4.45 -24.2 -21.1 Q-10.2 -20.85 -3.15 -30.55" fill="none" stroke="#000000" stroke-linecap="round" stroke-linejoin="round" stroke-width="2.0"/>
    <path d="M-5.1 -36.15 L-3.15 -30.55 -3.15 -30.6 M18.6 0.9 L-0.65 2.3 Q-0.7 23.1 -2.55 35.6 M-24.2 4.45 L-29.65 0.85 M-24.2 4.45 L-0.65 2.3 Q-0.85 -16.3 -3.15 -30.55" fill="none" stroke="#000000" stroke-linecap="round" stroke-linejoin="round" stroke-width="1.5"/>
  </g>
</svg>
