<?xml version="1.0" encoding="UTF-8" standalone="no"?>
<svg xmlns:xlink="http://www.w3.org/1999/xlink" height="74.8px" width="50.25px" xmlns="http://www.w3.org/2000/svg">
  <g transform="matrix(1.0, 0.0, 0.0, 1.0, 31.05, 38.75)">
    <path d="M11.25 -6.45 L11.55 0.8 2.7 1.95 2.7 17.15 -4.9 18.45 -4.9 2.7 -15.05 3.65 -15.05 -3.55 -4.9 -4.75 -4.9 -15.5 2.7 -16.25 2.7 -5.65 11.25 -6.45 M-2.25 34.45 Q-13.5 27.75 -24.6 17.85 L-24.6 -22.65 Q-10.6 -22.4 -3.55 -32.15 4.4 -23.8 18.2 -27.1" fill="none" stroke="#000000" stroke-linecap="round" stroke-linejoin="round" stroke-width="1.5"/>
    <path d="M18.2 -27.1 L14.95 -32.35 Q2.4 -29.4 -5.55 -37.75 -12.6 -28.0 -30.05 -27.95 L-30.05 18.85 Q-9.95 38.15 -2.25 34.45 L-2.2 34.45 Q12.65 27.55 18.2 10.1 L18.2 -27.1" fill="none" stroke="#000000" stroke-linecap="round" stroke-linejoin="round" stroke-width="2.0"/>
  </g>
</svg>
