<?xml version="1.0" encoding="UTF-8" standalone="no"?>
<svg xmlns:xlink="http://www.w3.org/1999/xlink" height="67.8px" width="71.3px" xmlns="http://www.w3.org/2000/svg">
  <g transform="matrix(1.0, 0.0, 0.0, 1.0, 42.8, 30.7)">
    <path d="M14.55 -26.75 L3.4 -26.05 -7.5 -25.4 -11.75 -25.1 -16.25 -24.85 -23.7 -24.35 -35.95 -1.85 -4.1 36.1 Q-7.4 35.7 -11.8 32.2 L-41.8 -1.6 -27.15 -28.05 8.5 -29.7 14.55 -26.75 M-7.5 -25.4 L-11.75 -25.2 -16.25 -24.85 -11.75 -25.2 -7.5 -25.4 M-11.75 -25.2 L-11.75 -25.1 -11.75 -25.2" fill="#d4d4d4" fill-rule="evenodd" stroke="none"/>
    <path d="M3.4 -26.05 L8.1 -4.55 27.5 -5.75 M14.55 -26.75 L3.4 -26.05 -7.5 -25.4 -11.75 -25.2 -16.25 -24.85 -23.7 -24.35 -35.95 -1.85 -4.1 36.1 -16.3 -3.05 -35.95 -1.85 M-11.75 -25.1 L-16.3 -3.05 8.1 -4.55 -4.1 36.1 M-11.75 -25.1 L-11.75 -25.2" fill="none" stroke="#000000" stroke-linecap="round" stroke-linejoin="round" stroke-opacity="0.2" stroke-width="1.5"/>
    <path d="M27.5 -5.75 L14.65 -26.7 14.55 -26.75 8.5 -29.7 -27.15 -28.05 -41.8 -1.6 -11.8 32.2 Q-7.4 35.7 -4.1 36.1 L27.5 -5.75" fill="none" stroke="#000000" stroke-linecap="round" stroke-linejoin="round" stroke-width="2.0"/>
  </g>
</svg>
