<?xml version="1.0" encoding="UTF-8" standalone="no"?>
<svg xmlns:xlink="http://www.w3.org/1999/xlink" height="67.5px" width="66.4px" xmlns="http://www.w3.org/2000/svg">
  <g transform="matrix(1.0, 0.0, 0.0, 1.0, 41.35, 29.6)">
    <path d="M20.75 -19.35 Q17.35 -24.4 10.55 -24.8 2.35 -25.45 -3.75 -13.05 L-5.35 -15.8 -5.45 -15.95 Q-11.5 -24.35 -19.25 -22.7 -32.3 -20.25 -34.05 -4.9 -34.8 8.55 -24.35 18.05 L-4.35 36.3" fill="none" stroke="#000000" stroke-linecap="round" stroke-linejoin="round" stroke-opacity="0.2" stroke-width="1.5"/>
    <path d="M-5.25 -19.7 Q-0.85 -28.3 7.15 -28.6 15.15 -29.0 20.75 -19.35 23.35 -15.5 24.0 -8.95 24.7 4.4 15.95 14.75 L-3.75 36.9 -11.8 36.0 Q-20.5 29.5 -30.65 18.95 -40.85 8.3 -40.3 -3.3 -39.75 -14.95 -33.2 -21.8 -24.45 -29.5 -16.25 -27.3 -8.4 -25.2 -5.35 -19.95 L-5.25 -19.7" fill="none" stroke="#000000" stroke-linecap="round" stroke-linejoin="round" stroke-width="2.0"/>
  </g>
</svg>
