<?xml version="1.0" encoding="UTF-8" standalone="no"?>
<svg xmlns:xlink="http://www.w3.org/1999/xlink" height="81.6px" width="58.35px" xmlns="http://www.w3.org/2000/svg">
  <g transform="matrix(1.0, 0.0, 0.0, 1.0, 32.0, 39.8)">
    <path d="M25.35 -28.2 L-0.8 -35.0 -26.95 -21.85 -26.95 12.0 Q-24.8 25.0 -12.3 31.85 -4.1 36.05 -0.8 40.8 2.5 35.25 10.75 29.05 23.2 19.2 25.35 5.65 L25.35 -28.2 20.9 -33.25 -2.4 -38.8 -31.0 -25.0 -31.0 14.05 Q-27.25 27.75 -16.35 34.05 L-0.8 40.8 M-20.8 -16.0 L-20.8 9.85 Q-19.4 20.75 -10.25 25.05 -4.0 27.9 -0.8 31.85 2.4 27.1 8.65 22.75 17.8 16.25 19.2 5.0 L19.2 -20.85 -0.8 -26.65 Q-10.8 -21.3 -20.8 -16.0" fill="none" stroke="#000000" stroke-linecap="round" stroke-linejoin="round" stroke-width="2.0"/>
  </g>
</svg>
