<?xml version="1.0" encoding="UTF-8" standalone="no"?>
<svg xmlns:xlink="http://www.w3.org/1999/xlink" height="92.95px" width="58.35px" xmlns="http://www.w3.org/2000/svg">
  <g transform="matrix(1.0, 0.0, 0.0, 1.0, 33.95, 51.7)">
    <path d="M-22.75 -0.65 Q-11.15 -6.6 -1.8 -14.35 7.75 -6.95 17.25 -2.9 11.9 0.75 6.3 6.25 8.5 3.6 8.5 0.0 8.5 -4.2 5.55 -7.1 2.65 -10.05 -1.55 -10.05 -5.7 -10.05 -8.7 -7.1 -11.6 -4.2 -11.6 0.0 -11.6 4.15 -8.7 7.05 -5.7 10.0 -1.55 10.0 2.05 10.0 4.75 7.8 1.65 10.95 -1.5 14.65 -10.7 5.7 -22.75 -0.65" fill="#000000" fill-rule="evenodd" stroke="none"/>
    <path d="M23.4 -28.75 L15.0 -30.95 4.6 -33.65 -2.75 -35.55 -9.5 -32.15 -20.45 -26.65 -28.9 -22.4 -28.9 11.45 Q-27.15 22.15 -18.35 28.7 L-14.25 31.3 Q-11.05 32.95 -8.55 34.7 -4.75 37.35 -2.75 40.25 0.4 34.95 8.0 29.1 L8.8 28.5 Q12.05 25.95 14.6 23.15 21.8 15.15 23.4 5.1 L23.4 -28.75 18.95 -33.8 14.35 -34.9 15.0 -30.95 M14.35 -34.9 L11.8 -50.7 6.05 -36.85 4.6 -33.65 M17.25 -2.9 L17.25 -21.4 -2.75 -27.2 -22.75 -16.55 -22.75 -0.65 Q-11.15 -6.6 -1.8 -14.35 7.75 -6.95 17.25 -2.9 L17.25 4.45 Q16.6 9.55 14.4 13.7 11.7 18.65 6.7 22.2 0.45 26.55 -2.75 31.3 -5.95 27.35 -12.2 24.5 -18.1 21.75 -20.75 16.25 -22.25 13.2 -22.75 9.3 L-22.75 -0.65 Q-10.7 5.7 -1.5 14.65 1.65 10.95 4.75 7.8 2.05 10.0 -1.55 10.0 -5.7 10.0 -8.7 7.05 -11.6 4.15 -11.6 0.0 -11.6 -4.2 -8.7 -7.1 -5.7 -10.05 -1.55 -10.05 2.65 -10.05 5.55 -7.1 8.5 -4.2 8.5 0.0 8.5 3.6 6.3 6.25 11.9 0.75 17.25 -2.9 M6.3 6.25 L5.55 7.05 4.75 7.8 6.3 6.25 M6.05 -36.85 L-4.35 -39.35 -12.45 -35.45 -9.5 -32.15 M-20.45 -26.65 L-21.4 -31.1 -32.95 -25.55 -32.95 13.5 Q-29.2 27.2 -18.3 33.5 L-2.75 40.25 M-12.45 -35.45 L-22.85 -47.65 -23.15 -45.7 -21.4 -31.1 M-23.15 -45.7 L-23.45 -48.35 -22.85 -47.65" fill="none" stroke="#000000" stroke-linecap="round" stroke-linejoin="round" stroke-width="2.0"/>
  </g>
</svg>
