<?xml version="1.0" encoding="UTF-8" standalone="no"?>
<svg xmlns:xlink="http://www.w3.org/1999/xlink" height="81.6px" width="58.35px" xmlns="http://www.w3.org/2000/svg">
  <g transform="matrix(1.0, 0.0, 0.0, 1.0, 32.5, 42.6)">
    <path d="M24.85 -31.0 L-1.3 -37.8 -27.45 -24.65 -27.45 9.2 Q-25.3 22.2 -12.8 29.05 -4.6 33.25 -1.3 38.0 2.0 32.45 10.25 26.25 22.7 16.4 24.85 2.85 L24.85 -31.0 20.4 -36.05 -2.9 -41.6 -31.5 -27.8 -31.5 11.25 Q-27.75 24.95 -16.85 31.25 L-1.3 38.0 M-21.3 -18.8 L-21.3 7.05 Q-19.9 17.95 -10.75 22.25 -4.5 25.1 -1.3 29.05 1.9 24.3 8.15 19.95 17.3 13.45 18.7 2.2 L18.7 -23.65 -1.3 -29.45 -21.3 -18.8 M-15.0 -0.15 Q-16.05 13.95 -0.7 13.65 13.95 11.25 13.35 -3.85 L-15.0 -0.15" fill="none" stroke="#000000" stroke-linecap="round" stroke-linejoin="round" stroke-width="2.0"/>
  </g>
</svg>
