<?xml version="1.0" encoding="UTF-8" standalone="no"?>
<svg xmlns:xlink="http://www.w3.org/1999/xlink" height="81.6px" width="58.35px" xmlns="http://www.w3.org/2000/svg">
  <g transform="matrix(1.0, 0.0, 0.0, 1.0, 36.9, 42.6)">
    <path d="M20.45 -31.0 L-5.7 -37.8 -31.85 -24.65 -31.85 9.2 Q-29.7 22.2 -17.2 29.05 -9.0 33.25 -5.7 38.0 -2.4 32.45 5.85 26.25 18.3 16.4 20.45 2.85 L20.45 -31.0 16.0 -36.05 -7.3 -41.6 -35.9 -27.8 -35.9 11.25 Q-32.15 24.95 -21.25 31.25 L-5.7 38.0 M-25.7 -18.8 L-25.7 7.05 Q-24.3 17.95 -15.15 22.25 -8.9 25.1 -5.7 29.05 -2.5 24.3 3.75 19.95 12.9 13.45 14.3 2.2 L14.3 -23.65 -5.7 -29.45 -25.7 -18.8 M-0.35 -8.15 L11.95 -9.25 2.35 -0.25 6.15 11.75 -4.2 5.55 -14.2 14.05 -10.9 1.25 -20.95 -5.5 -8.6 -7.25 -4.75 -19.85 -0.35 -8.15" fill="none" stroke="#000000" stroke-linecap="round" stroke-linejoin="round" stroke-width="2.0"/>
  </g>
</svg>
