<?xml version="1.0" encoding="UTF-8" standalone="no"?>
<svg xmlns:xlink="http://www.w3.org/1999/xlink" height="81.6px" width="58.35px" xmlns="http://www.w3.org/2000/svg">
  <g transform="matrix(1.0, 0.0, 0.0, 1.0, 34.25, 39.95)">
    <path d="M-3.05 40.65 L-18.6 33.9 Q-29.5 27.6 -33.25 13.9 L-33.25 -25.15 -4.65 -38.95 18.65 -33.4 23.1 -28.35 23.1 5.5 Q20.95 19.05 8.5 28.9 0.25 35.1 -3.05 40.65 -6.35 35.9 -14.55 31.7 -27.05 24.85 -29.2 11.85 L-29.2 -22.0 -3.05 -35.15 23.1 -28.35 -3.05 -35.15 -29.2 -22.0 -29.2 11.85 Q-27.05 24.85 -14.55 31.7 -6.35 35.9 -3.05 40.65 M16.95 4.85 L16.95 -21.0 -3.05 -26.8 -23.05 -16.15 -23.05 9.7 Q-21.65 20.6 -12.5 24.9 -6.25 27.75 -3.05 31.7 0.15 26.95 6.4 22.6 15.55 16.1 16.95 4.85" fill="#000000" fill-opacity="0.32941177" fill-rule="evenodd" stroke="none"/>
    <path d="M-3.05 40.65 L-18.6 33.9 Q-29.5 27.6 -33.25 13.9 L-33.25 -25.15 -4.65 -38.95 18.65 -33.4 23.1 -28.35 23.1 5.5 Q20.95 19.05 8.5 28.9 0.25 35.1 -3.05 40.65 -6.35 35.9 -14.55 31.7 -27.05 24.85 -29.2 11.85 L-29.2 -22.0 -3.05 -35.15 23.1 -28.35 M2.25 -5.7 L11.55 -6.75 11.55 1.35 2.0 2.7 1.55 19.5 -6.15 20.5 -5.6 3.4 -16.9 4.45 -16.65 -3.6 -5.4 -4.85 -5.05 -16.7 2.6 -17.4 2.25 -5.7 M16.95 4.85 L16.95 -21.0 -3.05 -26.8 -23.05 -16.15 -23.05 9.7 Q-21.65 20.6 -12.5 24.9 -6.25 27.75 -3.05 31.7 0.15 26.95 6.4 22.6 15.55 16.1 16.95 4.85" fill="none" stroke="#000000" stroke-linecap="round" stroke-linejoin="round" stroke-width="2.0"/>
  </g>
</svg>
