<?xml version="1.0" encoding="UTF-8" standalone="no"?>
<svg xmlns:xlink="http://www.w3.org/1999/xlink" height="76.95px" width="58.8px" xmlns="http://www.w3.org/2000/svg">
  <g transform="matrix(1.0, 0.0, 0.0, 1.0, 35.1, 37.1)">
    <path d="M-2.5 38.5 Q-6.0 39.6 -11.95 37.3 -19.5 34.25 -24.4 26.7 -37.05 7.2 -33.2 -28.1 L-3.0 -36.1 17.6 -32.05 22.25 -28.15 Q26.15 24.8 -2.5 38.5 -35.5 26.5 -28.6 -25.2 L-2.3 -32.4 22.25 -28.15 M18.0 -22.05 L4.6 -23.4 Q3.0 -17.4 -2.35 -15.95 -7.7 -16.35 -9.3 -22.0 L-22.7 -18.25 -22.95 -3.3 Q-16.2 -4.55 -15.0 2.95 -14.4 7.95 -19.45 11.9 -14.3 20.6 -8.75 24.75 -5.65 27.1 -2.35 27.9 0.9 26.45 4.05 23.55 9.65 18.45 14.7 8.7 9.7 5.7 10.25 0.55 11.5 -7.1 18.2 -7.2 L18.0 -22.05" fill="none" stroke="#000000" stroke-linecap="round" stroke-linejoin="round" stroke-width="2.0"/>
  </g>
</svg>
