<?xml version="1.0" encoding="UTF-8" standalone="no"?>
<svg xmlns:xlink="http://www.w3.org/1999/xlink" height="77.45px" width="58.85px" xmlns="http://www.w3.org/2000/svg">
  <g transform="matrix(1.0, 0.0, 0.0, 1.0, 36.6, 36.5)">
    <path d="M20.75 -27.55 L16.1 -31.45 -4.5 -35.5 -34.7 -27.5 Q-38.55 7.8 -25.9 27.3 -21.0 34.85 -13.45 37.9 -7.5 40.2 -1.6 39.9 L-1.75 39.85 Q-37.25 28.85 -30.1 -24.6 L-3.8 -31.8 20.75 -27.55 Q24.65 25.4 -1.3 39.9 L-1.4 39.95 -1.45 39.95 -1.6 39.9 -1.4 39.95 M-0.55 -25.05 L15.1 -21.2 Q18.5 19.9 0.55 30.05 L0.55 21.6 Q10.95 14.6 9.2 -15.6 L-1.45 -16.8 -0.55 -25.05 M-4.85 -16.75 L-17.0 -13.4 Q-16.45 17.5 -4.1 21.9 L-3.4 30.45 Q-26.0 24.35 -23.25 -18.7 L-6.1 -24.9 -4.85 -16.75 M-1.3 39.9 L-1.75 39.85 M3.3 -6.95 Q2.9 4.7 -2.05 14.55 -7.1 5.9 -9.2 -5.5 L3.3 -6.95" fill="none" stroke="#000000" stroke-linecap="round" stroke-linejoin="round" stroke-width="2.0"/>
  </g>
</svg>
