<?xml version="1.0" encoding="UTF-8" standalone="no"?>
<svg xmlns:xlink="http://www.w3.org/1999/xlink" height="81.6px" width="58.35px" xmlns="http://www.w3.org/2000/svg">
  <g transform="matrix(1.0, 0.0, 0.0, 1.0, 30.4, 35.25)">
    <path d="M0.8 45.35 L-14.75 38.6 Q-25.65 32.3 -29.4 18.6 L-29.4 -21.55 -0.8 -34.25 22.5 -28.7 26.95 -23.65 26.95 10.2 Q24.8 23.75 12.35 33.6 4.1 39.8 0.8 45.35 -2.5 40.6 -10.7 36.4 -23.2 29.55 -25.35 16.55 L-25.35 -18.75 0.8 -30.45 26.95 -23.65 0.8 -30.45 -25.35 -18.75 -25.35 16.55 Q-23.2 29.55 -10.7 36.4 -2.5 40.6 0.8 45.35 M0.8 -22.1 L-19.2 -11.45 -19.2 14.4 Q-17.8 25.3 -8.65 29.6 -2.4 32.45 0.8 36.4 4.0 31.65 10.25 27.3 19.4 20.8 20.8 9.55 L20.8 -16.3 0.8 -22.1" fill="#b3bfc6" fill-rule="evenodd" stroke="none"/>
    <path d="M8.85 -5.55 L1.9 -15.7 -13.65 9.15 16.05 6.5 9.05 -5.25 8.9 -5.5 8.85 -5.55 8.9 -5.55 9.05 -5.25 M8.9 -5.5 L8.9 -5.55 M0.8 45.35 L-14.75 38.6 Q-25.65 32.3 -29.4 18.6 L-29.4 -21.55 -0.8 -34.25 22.5 -28.7 26.95 -23.65 26.95 10.2 Q24.8 23.75 12.35 33.6 4.1 39.8 0.8 45.35 -2.5 40.6 -10.7 36.4 -23.2 29.55 -25.35 16.55 L-25.35 -18.75 0.8 -30.45 26.95 -23.65 M0.8 -22.1 L-19.2 -11.45 -19.2 14.4 Q-17.8 25.3 -8.65 29.6 -2.4 32.45 0.8 36.4 4.0 31.65 10.25 27.3 19.4 20.8 20.8 9.55 L20.8 -16.3 0.8 -22.1 M1.6 27.75 L-8.6 15.8 11.9 13.9 1.6 27.75" fill="none" stroke="#000000" stroke-linecap="round" stroke-linejoin="round" stroke-width="2.0"/>
  </g>
</svg>
