<?xml version="1.0" encoding="UTF-8" standalone="no"?>
<svg xmlns:xlink="http://www.w3.org/1999/xlink" height="95.0px" width="49.1px" xmlns="http://www.w3.org/2000/svg">
  <g transform="matrix(1.0, 0.0, 0.0, 1.0, 30.55, 44.4)">
    <path d="M15.35 19.75 Q13.8 26.5 11.25 32.5 5.0 47.25 -3.85 49.1 L-6.2 49.35 Q-13.75 50.45 -17.6 46.75 -26.25 38.6 -29.0 18.9 -31.15 -7.15 -24.6 -23.75 -18.1 -40.35 -11.25 -43.15 L-2.55 -42.9 -1.3 -42.95 Q5.9 -42.7 11.25 -32.4 13.75 -27.5 15.3 -21.5 -3.5 -21.85 -23.1 -13.3 L-24.45 -5.7 Q-25.25 0.55 -25.2 7.5 -25.25 14.65 -24.35 20.9 L-23.2 26.95 Q-21.65 33.45 -19.0 38.7 -14.5 47.35 -7.0 49.2 -14.5 47.35 -19.0 38.7 -21.65 33.45 -23.2 26.95 -6.2 27.75 15.35 19.75 M-2.55 -42.9 L-3.85 -42.7 -6.2 -42.0 Q-13.55 -38.95 -19.0 -26.2 -21.6 -20.15 -23.1 -13.3 -21.6 -20.15 -19.0 -26.2 -13.55 -38.95 -6.2 -42.0 L-3.85 -42.7 -2.55 -42.9 M-6.35 -26.0 Q-5.45 -24.65 -4.1 -24.9 -2.8 -25.2 -1.9 -26.9 -1.0 -28.6 -0.95 -30.8 -1.0 -33.0 -1.9 -34.35 -2.8 -35.75 -4.1 -35.4 -5.45 -35.15 -6.35 -33.45 -7.25 -31.75 -7.25 -29.55 -7.25 -27.35 -6.35 -26.0 M-6.6 33.2 Q-7.55 34.9 -7.55 37.1 -7.55 39.3 -6.6 40.7 -5.7 42.0 -4.4 41.75 -3.1 41.5 -2.2 39.75 -1.25 38.0 -1.25 35.85 -1.25 33.6 -2.2 32.25 -3.1 30.95 -4.4 31.2 -5.7 31.45 -6.6 33.2 M-6.4 49.35 L-7.0 49.2 -6.7 49.3 -6.55 49.35 -6.35 49.35 -6.4 49.35 M-6.2 49.35 L-6.35 49.35 -6.2 49.35" fill="#816359" fill-rule="evenodd" stroke="none"/>
    <path d="M15.3 -21.5 Q16.2 -17.9 16.7 -13.85 17.55 -7.95 17.55 -1.15 17.5 6.1 16.65 12.8 L15.35 19.75 Q13.8 26.5 11.25 32.5 5.0 47.25 -3.85 49.1 L-6.2 49.35 Q-13.75 50.45 -17.6 46.75 -26.25 38.6 -29.0 18.9 -31.15 -7.15 -24.6 -23.75 -18.1 -40.35 -11.25 -43.15 L-2.55 -42.9 -1.3 -42.95 Q5.9 -42.7 11.25 -32.4 13.75 -27.5 15.3 -21.5 -3.5 -21.85 -23.1 -13.3 L-24.45 -5.7 -24.4 -5.7 Q-13.75 -10.1 -3.8 -12.1 6.85 -14.3 16.7 -13.85 L7.15 1.7 16.15 12.95 16.65 12.8 M-23.1 -13.3 Q-21.6 -20.15 -19.0 -26.2 -13.55 -38.95 -6.2 -42.0 L-3.85 -42.7 -2.55 -42.9 M-6.35 -26.0 Q-7.25 -27.35 -7.25 -29.55 -7.25 -31.75 -6.35 -33.45 -5.45 -35.15 -4.1 -35.4 -2.8 -35.75 -1.9 -34.35 -1.0 -33.0 -0.95 -30.8 -1.0 -28.6 -1.9 -26.9 -2.8 -25.2 -4.1 -24.9 -5.45 -24.65 -6.35 -26.0 M-3.1 18.45 L-14.7 5.35 -24.35 20.9 Q-13.5 20.55 -3.1 18.45 L7.15 1.7 -3.8 -12.1 -14.7 5.35 -24.4 -5.7 M-23.2 26.95 L-24.35 20.9 Q-25.25 14.65 -25.2 7.5 -25.25 0.55 -24.45 -5.7 M-6.6 33.2 Q-5.7 31.45 -4.4 31.2 -3.1 30.95 -2.2 32.25 -1.25 33.6 -1.25 35.85 -1.25 38.0 -2.2 39.75 -3.1 41.5 -4.4 41.75 -5.7 42.0 -6.6 40.7 -7.55 39.3 -7.55 37.1 -7.55 34.9 -6.6 33.2 M-6.4 49.35 L-7.0 49.2 -6.7 49.3 -6.55 49.35 -6.4 49.35 -6.35 49.35 -6.2 49.35 M-6.55 49.35 L-6.35 49.35 M-7.0 49.2 Q-14.5 47.35 -19.0 38.7 -21.65 33.45 -23.2 26.95 -6.2 27.75 15.35 19.75 M-3.1 18.45 Q6.7 16.45 16.15 12.95" fill="none" stroke="#000000" stroke-linecap="round" stroke-linejoin="round" stroke-width="2.0"/>
  </g>
</svg>
