<?xml version="1.0" encoding="UTF-8" standalone="no"?>
<svg xmlns:xlink="http://www.w3.org/1999/xlink" height="26.75px" width="33.8px" xmlns="http://www.w3.org/2000/svg">
  <g transform="matrix(1.0, 0.0, 0.0, 1.0, 9.3, 10.1)">
    <path d="M10.95 -0.6 Q12.6 -2.95 14.7 -3.0 16.8 -3.05 17.7 -2.35 L15.4 -8.05 Q17.85 -8.15 19.9 -7.1 L21.65 -5.85 23.45 -3.9 Q23.2 -1.05 21.95 1.1 23.25 5.1 19.3 7.15 21.55 8.45 22.85 10.15 24.15 11.85 23.55 13.55 20.45 13.7 19.05 12.15 17.6 10.6 17.7 8.75 L17.25 8.9 16.5 8.9 Q16.75 11.0 15.65 13.25 14.5 15.5 12.45 15.9 11.15 13.8 11.15 11.45 11.75 9.4 14.15 7.95 6.4 7.55 5.35 3.05 -3.5 0.05 -8.55 -4.8 -7.75 -5.9 -5.35 -6.9 L-4.4 -7.3 -3.5 -8.1 Q-1.55 -9.5 1.6 -9.3 3.65 -6.1 10.95 -0.6 L12.25 0.35 13.15 1.15 13.75 1.75 15.2 3.55 16.4 5.8 17.5 3.4 18.0 0.95 18.0 0.9 18.0 -0.8 17.7 -2.35 M5.35 3.05 Q9.95 4.6 15.6 5.65 L16.4 5.8 17.25 5.4 Q20.4 3.75 21.95 1.1 M15.6 5.65 Q14.4 6.55 14.8 7.85 L14.85 8.0 Q15.2 8.75 16.5 8.9 M14.85 8.0 L14.15 7.95 M17.7 8.75 Q18.55 8.4 18.75 7.45 L18.75 7.4 Q19.0 6.35 17.25 5.4 M18.75 7.4 L19.3 7.15" fill="none" stroke="#000000" stroke-linecap="round" stroke-linejoin="round" stroke-width="1.5"/>
  </g>
</svg>
