<?xml version="1.0" encoding="UTF-8" standalone="no"?>
<svg xmlns:xlink="http://www.w3.org/1999/xlink" height="41.25px" width="53.75px" xmlns="http://www.w3.org/2000/svg">
  <g transform="matrix(1.0, 0.0, 0.0, 1.0, 22.85, 15.5)">
    <path d="M7.5 -6.3 L7.6 -7.45 7.5 -8.1 Q4.25 -9.85 0.9 -9.9 L0.5 -9.9 -0.35 -9.85 -1.55 -10.85 Q-3.25 -11.95 -5.55 -11.95 -6.05 -11.95 -6.55 -11.2 L-6.8 -10.85 -7.95 -9.15 Q-9.0 -7.25 -9.65 -4.55 L-10.1 -2.4 -10.25 -1.35 Q-10.55 0.8 -10.45 2.5 L-10.15 4.0 -9.9 4.5 Q-9.35 5.35 -8.1 5.7 L-6.2 5.95 -5.4 6.35 -4.45 6.7 -3.65 6.95 -1.6 7.3 0.25 7.05 0.95 6.7 1.75 5.45 2.05 4.9 2.35 4.3 3.8 1.75 4.0 1.4 5.25 -0.75 7.2 -5.05 7.3 -5.45 7.5 -6.3 15.05 -5.7 18.35 -4.9 Q25.45 -3.25 25.4 -0.7 L25.2 0.3 Q24.85 2.3 23.95 3.45 L22.2 4.9 20.7 5.4 21.4 6.45 Q24.3 6.4 27.5 4.35 30.0 1.15 29.9 -2.35 L26.4 -4.8 Q28.25 -6.4 28.05 -8.7 27.4 -11.3 26.35 -11.2 4.85 -10.55 -8.45 -14.3 L-8.75 -14.35 -9.9 -14.5 -10.8 -14.25 -11.9 -13.55 -12.55 -12.95 -6.8 -10.85 M25.4 -0.7 L25.35 -0.6 25.2 0.3 M21.4 6.45 L21.65 7.5 21.65 7.55 Q20.25 12.2 17.95 12.75 14.3 12.4 11.6 11.55 8.85 10.65 7.15 9.3 L10.75 12.3 Q12.0 13.55 11.25 14.3 L7.95 18.85 4.25 22.85 3.3 23.65 2.1 24.55 Q0.65 25.15 0.05 23.7 -3.55 16.4 -4.45 6.7 M7.15 9.3 L4.45 6.7 2.35 4.3 M-5.4 6.35 Q-5.9 10.35 -7.15 16.35 L-8.75 23.5 Q-10.35 24.6 -14.1 21.55 L-14.65 21.1 Q-16.45 19.15 -17.6 16.3 L-17.7 16.1 Q-18.6 14.05 -19.2 11.4 -16.5 6.6 -10.45 2.5 -14.35 4.55 -18.15 4.2 -22.15 3.2 -21.85 -1.05 L-21.5 -2.6 -21.5 -2.65 -20.55 -4.75 -20.3 -5.3 -21.25 -8.05 -21.4 -8.45 -21.6 -9.75 Q-21.6 -11.25 -20.3 -12.3 -17.4 -13.65 -12.55 -12.95 M-8.75 -14.35 L-8.65 -14.35 -8.45 -14.3" fill="none" stroke="#000000" stroke-linecap="round" stroke-linejoin="round" stroke-width="2.0"/>
  </g>
</svg>
