<?xml version="1.0" encoding="UTF-8" standalone="no"?>
<svg xmlns:xlink="http://www.w3.org/1999/xlink" height="91.65px" width="124.45px" xmlns="http://www.w3.org/2000/svg">
  <g transform="matrix(1.0, 0.0, 0.0, 1.0, 82.8, 14.2)">
    <path d="M34.7 -1.55 L36.3 1.65 38.65 -1.7 Q42.95 -7.8 39.05 -12.3 34.85 -10.3 26.95 -9.55 3.0 -12.95 -7.95 -13.4 -18.95 -13.85 -23.35 -10.95 -27.75 -8.05 -29.3 -8.5 -27.2 -4.6 -21.2 -1.1 -14.6 -4.3 -5.75 -6.05 M-21.2 -1.1 L-26.75 3.3 Q-27.8 4.5 -23.95 3.55 L-22.85 3.2 -21.35 2.75 -17.35 1.7 -14.6 1.05 -14.0 0.9 -14.05 1.0 -10.95 0.7 Q-5.7 -0.5 -3.8 0.15 -1.95 0.8 11.6 8.15 25.15 15.5 38.65 6.3 L38.2 5.5 37.4 3.75 37.25 3.5 37.05 3.1 36.3 1.65 M8.55 -3.6 Q24.8 2.9 32.2 -1.3 M-22.85 3.2 Q-36.55 21.35 -53.85 34.65 -68.1 45.6 -79.7 57.9 -83.4 61.15 -81.3 65.25 -79.3 68.15 -79.2 70.35 -79.4 75.0 -78.5 74.25 L-77.9 73.25 Q-72.55 63.6 -66.0 58.2 -59.5 53.45 -54.9 48.45 L-47.95 39.95 -14.05 1.0 -14.6 1.05 M-10.95 0.7 Q-23.4 23.35 -39.9 51.0 -49.8 62.35 -54.15 70.05 -56.7 74.5 -58.0 76.0 -59.0 77.05 -59.3 76.5 -59.55 73.25 -61.5 72.95 -63.15 72.85 -70.45 70.95 -67.65 67.3 -64.6 64.9 L-56.1 58.35 Q-50.6 54.15 -47.05 48.1 -37.95 32.5 -27.45 17.8 L-14.05 1.0" fill="none" stroke="#000000" stroke-linecap="round" stroke-linejoin="round" stroke-width="1.5"/>
  </g>
</svg>
