<?xml version="1.0" encoding="UTF-8" standalone="no"?>
<svg xmlns:xlink="http://www.w3.org/1999/xlink" height="21.1px" width="33.2px" xmlns="http://www.w3.org/2000/svg">
  <g transform="matrix(1.0, 0.0, 0.0, 1.0, 4.85, 12.1)">
    <path d="M11.55 -1.5 Q10.95 -2.35 10.95 -3.4 10.95 -4.7 11.85 -5.65 L12.4 -6.05 Q8.05 -9.75 3.1 -10.85 -1.9 -12.05 -3.45 -10.75 -5.45 -7.2 -2.2 -3.85 -4.55 0.55 -2.65 2.7 1.85 3.0 5.5 1.9 8.9 0.8 11.55 -1.5 L11.85 -1.1 Q12.8 -0.15 14.1 -0.15 L14.55 -0.15 Q15.6 -0.3 16.35 -1.1 L16.85 -1.65 Q17.3 -2.4 17.3 -3.35 17.3 -4.7 16.35 -5.65 L15.65 -6.15 14.1 -6.55 Q13.15 -6.55 12.4 -6.05 M5.5 1.9 Q2.6 4.3 2.1 6.75 L7.9 5.85 10.55 8.35 Q13.65 5.5 14.55 -0.1 L14.55 -0.15 M15.65 -6.15 Q18.85 -9.15 21.75 -10.35 24.65 -11.5 26.4 -10.75 28.0 -6.45 25.75 -4.55 28.5 -1.5 27.4 1.1 L23.35 1.75 Q25.75 3.4 26.05 5.05 L21.0 4.25 19.4 7.15 Q16.2 5.1 14.55 -0.1 M23.35 1.75 Q19.55 1.6 16.85 -1.65" fill="none" stroke="#000000" stroke-linecap="round" stroke-linejoin="round" stroke-width="1.3"/>
  </g>
</svg>
