<?xml version="1.0" encoding="UTF-8" standalone="no"?>
<svg xmlns:xlink="http://www.w3.org/1999/xlink" height="55.75px" width="32.2px" xmlns="http://www.w3.org/2000/svg">
  <g transform="matrix(1.0, 0.0, 0.0, 1.0, 7.45, 10.15)">
    <path d="M13.15 9.2 Q16.25 11.2 18.15 11.35 22.0 8.6 23.45 2.65 L23.95 -0.05 Q23.65 -1.6 22.65 -3.1 20.85 -5.85 16.85 -8.55 18.1 -3.2 11.25 -2.85 L7.75 -3.75 Q5.65 -4.6 4.05 -6.0 L0.05 -9.35 Q-2.4 -9.3 -4.7 -8.0 L-5.5 -7.5 Q-6.95 -6.4 -6.6 -5.0 -5.25 -4.05 -3.65 -3.55 -0.65 -2.6 0.65 -1.45 L1.95 -0.3 2.55 0.3 4.15 1.8 9.95 6.9 13.0 9.1 13.15 9.2 13.8 11.9 Q14.35 14.05 15.35 15.7 L15.7 16.25 16.35 17.85 Q17.55 21.2 17.95 25.9 L17.95 26.2 Q18.15 29.35 18.0 33.05 L17.8 36.7 17.45 40.45 17.05 44.15 16.6 44.25 Q7.95 45.85 1.8 42.85 0.5 42.2 -0.65 41.35 L-0.8 41.3 1.55 38.85 1.6 38.8 2.65 37.4 3.4 36.15 4.55 33.95 4.95 33.0 5.95 29.25 6.25 25.9 5.8 21.05 5.65 19.95 5.05 15.7 4.9 14.5 Q4.65 11.85 4.15 1.8" fill="none" stroke="#000000" stroke-linecap="round" stroke-linejoin="round" stroke-width="1.6"/>
  </g>
</svg>
