<?xml version="1.0" encoding="UTF-8" standalone="no"?>
<svg xmlns:xlink="http://www.w3.org/1999/xlink" height="18.15px" width="21.45px" xmlns="http://www.w3.org/2000/svg">
  <g transform="matrix(1.0, 0.0, 0.0, 1.0, 0.3, 8.65)">
    <path d="M0.4 -7.7 Q1.75 -1.95 12.5 1.1 L12.9 1.05 Q13.05 -0.7 13.7 -1.95 L14.1 -2.6 14.45 -2.3 Q15.75 -0.85 16.35 0.85 L16.4 0.85 Q18.95 -2.15 16.3 -7.95 M16.4 0.85 Q18.3 0.3 20.45 0.9 L20.45 1.0 Q19.85 2.6 18.0 3.7 19.25 6.2 19.65 8.0 17.7 7.7 15.6 6.15 13.9 7.85 12.05 8.8 11.65 6.85 12.35 4.35 10.15 3.4 8.75 1.85 10.15 1.25 12.5 1.1" fill="none" stroke="#000000" stroke-linecap="round" stroke-linejoin="round" stroke-width="1.4000000000000001"/>
  </g>
</svg>
