<?xml version="1.0" encoding="UTF-8" standalone="no"?>
<svg xmlns:xlink="http://www.w3.org/1999/xlink" height="26.45px" width="38.6px" xmlns="http://www.w3.org/2000/svg">
  <g transform="matrix(1.0, 0.0, 0.0, 1.0, 9.25, 12.85)">
    <path d="M14.6 -4.75 L14.85 -10.3 Q22.0 -10.0 28.0 -6.9 29.95 -4.05 26.05 2.0 L25.3 2.5 Q26.7 7.05 25.1 8.65 23.6 11.25 19.95 12.35 L17.3 12.9 13.25 12.1 Q5.15 10.0 0.8 5.25 L-4.6 -0.6 Q-6.9 -1.75 -8.55 -3.2 -8.7 -7.45 -7.05 -11.15 -3.35 -12.45 2.65 -12.1 L1.75 -8.15 Q6.75 -5.5 13.15 -4.85 L14.6 -4.75 20.2 -4.4 22.15 -4.25 Q24.05 -4.0 21.7 -7.1 M25.3 2.5 Q23.8 3.35 21.95 3.8 L19.6 4.2 15.5 4.2 13.35 4.05 11.65 3.95 M-4.6 -0.6 Q-0.95 1.2 4.35 2.15 M-1.65 -10.3 Q-0.05 -9.1 1.75 -8.15" fill="none" stroke="#000000" stroke-linecap="round" stroke-linejoin="round" stroke-width="1.4000000000000001"/>
  </g>
</svg>
