<?xml version="1.0" encoding="UTF-8" standalone="no"?>
<svg xmlns:xlink="http://www.w3.org/1999/xlink" height="26.85px" width="32.7px" xmlns="http://www.w3.org/2000/svg">
  <g transform="matrix(1.0, 0.0, 0.0, 1.0, 7.5, 10.9)">
    <path d="M22.5 8.45 L22.6 8.2 Q23.3 6.65 22.5 3.8 24.15 1.3 24.4 -0.15 24.65 -1.65 24.3 -2.7 23.9 -3.75 22.75 -4.95 21.6 -6.15 20.1 -6.25 19.05 -8.25 15.9 -9.2 L16.5 -5.8 Q17.55 -2.95 17.0 -1.4 L16.1 0.05 16.0 0.15 Q8.55 -1.05 1.05 -10.15 -1.4 -10.4 -3.0 -8.65 L-5.55 -8.6 Q-8.65 -6.65 -4.15 -3.55 0.35 -0.45 4.3 4.35 10.75 12.2 21.25 15.25 21.4 11.55 22.4 8.7 M16.55 0.3 L18.65 0.7 20.15 0.4 M-1.0 -6.85 Q3.5 -0.35 11.15 4.0" fill="none" stroke="#000000" stroke-linecap="round" stroke-linejoin="round" stroke-width="1.4000000000000001"/>
  </g>
</svg>
