<?xml version="1.0" encoding="UTF-8" standalone="no"?>
<svg xmlns:xlink="http://www.w3.org/1999/xlink" height="11.4px" width="27.65px" xmlns="http://www.w3.org/2000/svg">
  <g transform="matrix(1.0, 0.0, 0.0, 1.0, 6.05, 12.15)">
    <path d="M9.75 -2.45 L9.35 -2.9 Q8.3 -4.15 8.2 -5.95 L8.2 -6.5 Q8.3 -7.9 9.1 -9.0 L9.45 -9.35 9.4 -9.45 Q8.65 -10.6 7.05 -10.55 L5.0 -10.1 4.95 -10.15 Q3.6 -11.0 2.6 -10.95 1.65 -10.85 1.05 -9.9 L1.0 -10.15 Q0.45 -11.55 -0.75 -11.45 L-1.4 -11.3 Q-2.8 -10.7 -2.75 -9.65 L-3.0 -9.75 -3.55 -9.85 Q-4.2 -9.8 -5.0 -9.2 -5.75 -7.6 -4.8 -6.55 -4.55 -6.25 -4.1 -6.0 L-4.1 -5.7 Q-4.4 -3.3 -2.45 -3.35 L-0.9 -3.7 -0.85 -3.65 Q-0.25 -2.55 1.2 -2.6 L2.4 -2.85 2.45 -2.8 Q3.15 -1.85 4.3 -1.95 5.2 -2.0 6.45 -2.8 L6.55 -2.65 Q7.35 -1.35 8.3 -1.45 9.0 -1.55 9.75 -2.45 L9.95 -2.3 Q10.8 -1.6 11.9 -1.6 L12.1 -1.6 Q13.25 -1.65 14.1 -2.6 L14.3 -2.9 Q15.3 -4.15 15.2 -5.95 L15.15 -6.5 Q14.95 -7.8 14.15 -8.85 L14.05 -9.0 Q13.0 -10.3 11.55 -10.3 L11.45 -10.3 Q10.3 -10.25 9.45 -9.35 M14.15 -8.85 Q14.7 -10.2 15.4 -10.3 15.9 -10.4 16.5 -9.8 L16.6 -9.7 Q17.45 -10.65 18.2 -10.75 18.95 -10.85 19.55 -10.05 20.75 -8.45 20.05 -7.55 21.05 -7.1 20.9 -6.15 L20.15 -4.8 Q20.85 -2.4 19.0 -2.3 L18.05 -2.35 17.8 -2.4 Q17.15 -1.75 16.4 -1.7 15.4 -1.6 14.25 -2.45 L14.1 -2.6" fill="none" stroke="#000000" stroke-linecap="round" stroke-linejoin="round" stroke-width="1.4000000000000001"/>
  </g>
</svg>
