<?xml version="1.0" encoding="UTF-8" standalone="no"?>
<svg xmlns:xlink="http://www.w3.org/1999/xlink" height="10.1px" width="20.3px" xmlns="http://www.w3.org/2000/svg">
  <g transform="matrix(1.0, 0.0, 0.0, 1.0, 1.3, 11.65)">
    <path d="M8.05 -8.65 Q8.55 -9.55 10.0 -9.95 11.65 -10.15 12.8 -7.8 13.35 -9.75 14.9 -9.9 L15.3 -10.7 18.05 -9.55 Q19.05 -7.05 17.35 -4.85 L15.3 -4.05 Q14.35 -2.9 13.05 -2.15 11.3 -2.9 10.05 -4.0 2.7 -4.7 -0.65 -7.5 -0.95 -9.45 1.4 -11.05 3.2 -8.8 8.05 -8.65 7.6 -7.75 8.05 -6.35 8.85 -5.05 10.05 -4.0 M14.9 -9.9 Q17.15 -9.65 16.7 -6.55 16.15 -5.15 15.3 -4.05" fill="none" stroke="#000000" stroke-linecap="round" stroke-linejoin="round" stroke-width="1.2000000000000002"/>
  </g>
</svg>
