<?xml version="1.0" encoding="UTF-8" standalone="no"?>
<svg xmlns:xlink="http://www.w3.org/1999/xlink" height="14.6px" width="22.05px" xmlns="http://www.w3.org/2000/svg">
  <g transform="matrix(1.0, 0.0, 0.0, 1.0, 2.15, 10.7)">
    <path d="M16.0 -3.1 L16.5 -1.25 Q16.7 0.6 15.8 1.95 14.9 3.3 13.35 3.3 11.85 3.3 10.65 1.95 9.45 0.6 9.25 -1.25 L9.25 -2.4 Q1.6 -4.95 -1.55 -7.05 -1.2 -8.65 1.5 -10.1 4.45 -7.5 10.6 -5.1 11.35 -5.75 12.4 -5.75 L13.55 -5.55 Q15.8 -7.05 15.85 -9.25 17.8 -8.45 19.3 -6.6 18.4 -4.7 16.0 -3.1 L15.1 -4.45 13.55 -5.55 M9.25 -2.4 Q9.35 -3.55 9.95 -4.45 L10.6 -5.1" fill="none" stroke="#000000" stroke-linecap="round" stroke-linejoin="round" stroke-width="1.2000000000000002"/>
  </g>
</svg>
