<?xml version="1.0" encoding="UTF-8" standalone="no"?>
<svg xmlns:xlink="http://www.w3.org/1999/xlink" height="30.55px" width="42.55px" xmlns="http://www.w3.org/2000/svg">
  <g transform="matrix(1.0, 0.0, 0.0, 1.0, 9.25, 12.0)">
    <path d="M15.45 -4.8 L14.45 -4.95 13.4 -4.8 12.0 -3.85 Q11.1 -2.75 11.2 -1.2 11.3 0.4 12.4 1.5 L12.75 1.8 Q13.75 2.55 14.95 2.6 L15.05 2.6 15.15 2.6 15.35 2.6 Q16.5 2.5 17.3 1.6 L17.4 1.5 Q18.35 0.4 18.25 -1.2 18.15 -2.75 17.0 -3.85 L15.45 -4.8 Q22.6 -10.75 27.5 -11.25 29.55 -11.4 30.6 -10.05 L30.85 -9.75 Q31.55 -8.55 31.75 -6.15 L31.75 -5.75 31.7 -3.85 31.6 -3.65 31.6 -3.6 31.55 -3.5 31.2 -1.7 32.05 1.15 Q32.5 2.8 32.55 4.0 L32.5 5.2 32.4 5.85 31.75 7.2 31.0 7.25 26.9 6.85 25.3 6.4 25.35 6.6 25.95 8.0 Q27.65 11.25 30.6 14.8 L26.2 14.4 23.85 14.65 22.3 15.15 Q20.85 15.75 19.7 16.8 L19.1 17.45 Q16.75 12.15 15.5 4.15 L15.35 2.7 15.15 2.6 M15.35 2.6 L15.35 2.7 M25.3 6.4 Q22.35 5.45 19.75 3.5 L17.3 1.6 M13.4 -4.8 Q3.85 -11.5 -4.2 -11.1 L-6.7 -10.95 -8.05 -9.4 Q-8.6 -8.4 -8.5 -7.05 L-7.95 -3.85 -7.7 -3.05 -6.4 0.1 Q-8.5 7.0 -4.9 9.0 -2.25 10.05 0.75 9.45 L3.25 8.9 3.35 8.85 3.65 8.75 4.1 8.65 4.35 8.55 4.85 8.35 5.15 8.25 5.3 8.15 5.75 7.95 7.1 7.2 8.9 5.85 10.25 4.7 10.35 4.6 12.75 1.8 M14.95 2.6 L14.8 3.9 14.35 9.45 14.25 10.75 Q13.9 15.4 11.95 17.8 L11.8 17.75 10.65 17.25 Q8.55 16.55 6.0 16.6 3.2 16.3 0.0 17.15 2.5 14.1 3.15 10.05 L3.25 8.9" fill="none" stroke="#000000" stroke-linecap="round" stroke-linejoin="round" stroke-width="1.5"/>
  </g>
</svg>
