<?xml version="1.0" encoding="UTF-8" standalone="no"?>
<svg xmlns:xlink="http://www.w3.org/1999/xlink" height="14.85px" width="27.55px" xmlns="http://www.w3.org/2000/svg">
  <g transform="matrix(1.0, 0.0, 0.0, 1.0, 4.4, 13.5)">
    <path d="M-1.3 -9.85 L-1.25 -10.2 0.1 -9.9 0.6 -9.8 2.25 -9.4 3.45 -9.2 4.75 -9.0 7.5 -8.6 7.95 -8.5 11.45 -8.2 12.7 -8.2 15.95 -8.6 16.45 -8.65 Q17.45 -9.0 18.3 -9.4 18.85 -9.8 19.75 -9.85 L19.45 -9.2 Q20.0 -9.4 20.45 -10.55 20.75 -11.15 20.45 -11.8 19.7 -13.6 18.1 -12.0 17.05 -12.2 16.3 -11.55 L15.8 -10.9 13.3 -10.95 12.35 -10.0 Q11.95 -11.15 10.75 -11.55 9.5 -11.95 8.2 -10.45 8.0 -10.55 7.9 -10.9 L6.75 -11.65 Q5.7 -12.05 5.1 -10.7 4.0 -12.3 2.9 -12.3 1.9 -12.3 1.45 -11.5 L0.0 -12.8 -1.4 -12.95 Q-2.0 -12.8 -2.05 -12.35 -2.35 -11.5 -1.6 -10.45 L-1.3 -9.85 -1.8 -6.45 -1.9 -5.95 -0.95 -5.3 Q-0.35 -4.85 0.4 -4.5 L1.4 -4.2 1.55 -4.1 Q2.85 -3.55 4.45 -3.35 L5.4 -3.15 8.0 -2.85 8.5 -2.85 9.8 -2.8 11.05 -2.7 11.7 -2.7 15.7 -3.15 Q15.8 -3.5 16.25 -3.35 17.8 -3.7 18.7 -4.45 L19.45 -5.15 19.8 -5.65 19.95 -5.85 19.45 -9.2 M19.95 -5.85 L19.95 -6.1 20.85 -6.05 22.2 -5.15 Q23.15 -4.55 22.2 -3.4 21.25 -2.25 20.6 -2.55 20.7 -0.85 19.15 -0.15 17.6 0.45 16.5 -0.55 15.05 1.65 12.45 0.25 L11.6 -0.15 Q10.5 1.35 8.5 0.6 L7.65 -0.1 Q5.85 0.8 4.8 -0.1 L3.05 -1.25 Q1.65 -0.1 0.8 -0.95 -0.1 -1.85 -0.15 -2.4 -3.2 -1.15 -3.85 -4.0 -4.0 -4.55 -3.55 -5.05 -2.8 -6.0 -1.8 -6.45" fill="none" stroke="#000000" stroke-linecap="round" stroke-linejoin="round" stroke-width="1.0"/>
  </g>
</svg>
