<?xml version="1.0" encoding="UTF-8" standalone="no"?>
<svg xmlns:xlink="http://www.w3.org/1999/xlink" height="22.95px" width="32.25px" xmlns="http://www.w3.org/2000/svg">
  <g transform="matrix(1.0, 0.0, 0.0, 1.0, 4.6, 10.45)">
    <path d="M9.25 -0.85 L9.45 -2.05 5.55 -5.0 10.05 -5.85 Q4.7 -9.15 0.05 -8.35 -6.05 -7.7 -3.05 -3.0 -1.7 -0.85 -3.25 1.2 0.5 2.05 5.6 -0.15 L9.25 -0.85 9.25 -0.8 8.45 3.15 13.25 -0.45 13.25 -0.55 18.2 2.2 17.3 -0.7 17.1 -1.3 16.55 -2.95 18.6 -5.85 15.9 -6.0 14.8 -6.05 12.2 -9.9 10.15 -5.9 10.05 -5.85 M17.1 -1.3 Q20.6 -1.55 26.15 -0.05 28.5 -2.1 24.95 -4.2 26.6 -7.7 23.6 -8.6 18.9 -8.55 15.9 -6.0 M-3.25 1.2 Q-2.9 4.9 2.65 5.05 6.5 3.95 8.35 0.95 L9.25 -0.8 M13.25 -0.45 Q16.55 5.5 16.9 9.85 19.05 10.6 19.9 9.4 22.25 11.0 23.2 10.5 21.9 5.5 18.25 0.2 L17.3 -0.7 M8.35 0.95 Q5.8 6.4 5.75 11.9 7.3 12.25 9.3 10.4 10.5 11.15 11.85 10.4 11.65 5.65 13.25 -0.45 M26.15 -0.05 Q22.3 3.75 18.25 0.2" fill="none" stroke="#000000" stroke-linecap="round" stroke-linejoin="round" stroke-width="1.1"/>
  </g>
</svg>
