<?xml version="1.0" encoding="UTF-8" standalone="no"?>
<svg xmlns:xlink="http://www.w3.org/1999/xlink" height="42.05px" width="34.5px" xmlns="http://www.w3.org/2000/svg">
  <g transform="matrix(1.0, 0.0, 0.0, 1.0, 5.3, 10.25)">
    <path d="M22.7 3.45 L20.0 3.9 19.95 3.9 Q17.75 4.05 15.2 3.0 12.65 1.9 8.55 0.75 2.3 -1.05 0.75 -8.7 L-2.4 -7.8 -4.55 -6.15 Q-2.85 3.5 2.55 5.4 L2.6 5.4 Q6.25 6.7 8.7 8.5 L10.75 10.3 Q14.3 15.7 18.8 16.05 20.55 15.85 21.85 14.8 24.1 12.95 25.1 8.6 L25.15 6.7 25.1 5.8 25.0 3.8 Q24.5 -1.05 22.5 -3.75 L15.75 -9.5 16.5 -6.15 Q21.6 2.55 20.0 3.9 M21.85 14.8 Q21.8 17.05 22.35 20.45 22.6 22.1 22.5 24.3 L21.85 29.25 Q26.3 30.15 28.45 28.75 L28.3 23.65 Q27.75 14.15 25.1 5.8 M2.55 5.4 Q2.3 10.1 1.2 16.75 0.5 20.75 1.05 24.85 1.4 27.55 2.3 30.35 5.45 31.8 10.5 30.35 9.45 27.55 9.0 25.2 8.1 21.1 8.85 18.35 10.05 14.0 8.7 8.5" fill="none" stroke="#000000" stroke-linecap="round" stroke-linejoin="round" stroke-width="1.5"/>
  </g>
</svg>
