<?xml version="1.0" encoding="UTF-8" standalone="no"?>
<svg xmlns:xlink="http://www.w3.org/1999/xlink" height="30.25px" width="28.6px" xmlns="http://www.w3.org/2000/svg">
  <g transform="matrix(1.0, 0.0, 0.0, 1.0, 1.8, 10.8)">
    <path d="M9.4 -4.4 Q4.35 -6.6 2.05 -10.05 -0.4 -9.1 -1.05 -7.2 1.8 -4.3 7.15 -3.0 8.15 -4.0 9.4 -4.4 L9.8 -4.55 Q12.35 -6.1 14.3 -4.5 L14.5 -4.55 Q16.1 -5.55 15.9 -9.2 18.0 -8.9 19.3 -7.1 19.25 -4.15 16.85 -4.3 L17.0 -4.25 17.85 -3.85 Q19.95 -2.5 22.35 0.95 25.15 7.2 25.9 11.75 L26.05 14.65 26.0 15.9 Q24.8 13.4 20.55 10.55 L18.55 9.05 Q15.1 5.0 14.35 -0.1 L14.35 -0.15 12.25 0.0 12.85 3.2 Q13.0 8.5 12.15 12.45 L11.8 14.15 11.25 15.95 10.05 18.7 Q10.0 16.0 6.85 12.2 L6.7 12.05 5.05 9.55 4.8 9.0 4.6 8.55 Q3.65 6.25 4.1 3.9 L4.15 3.85 Q4.95 -0.9 7.15 -3.0 M14.5 -4.55 L14.6 -4.6 15.15 -4.6 16.25 -4.45 16.85 -4.3 M14.3 -4.5 Q13.65 -3.35 14.35 -0.15 M9.8 -4.55 Q11.6 -4.3 12.25 0.0" fill="none" stroke="#000000" stroke-linecap="round" stroke-linejoin="round" stroke-width="1.5"/>
  </g>
</svg>
