<?xml version="1.0" encoding="UTF-8" standalone="no"?>
<svg xmlns:xlink="http://www.w3.org/1999/xlink" height="26.8px" width="39.55px" xmlns="http://www.w3.org/2000/svg">
  <g transform="matrix(1.0, 0.0, 0.0, 1.0, 8.75, 11.55)">
    <path d="M13.25 -0.15 Q12.15 0.2 9.6 -1.9 7.45 1.4 5.25 -3.1 1.05 1.1 0.9 -4.15 -3.15 -2.1 -2.05 -6.8 -3.5 -5.25 -4.5 -5.4 L-5.45 -5.8 Q-6.95 -4.9 -7.8 -1.55 -8.65 1.8 -7.2 6.45 L-2.85 -0.85 -1.45 -1.85 -1.5 -1.55 Q-4.3 7.75 0.95 14.6 1.75 4.3 5.1 0.0 7.75 9.25 12.95 14.1 11.15 5.25 13.25 -0.15 14.1 -0.4 14.0 -2.3 16.25 0.05 18.85 -0.95 19.3 -1.65 17.85 -3.55 L17.65 -3.75 M17.85 -3.55 Q19.45 -1.65 21.1 -1.7 21.4 -2.6 20.2 -4.6 L22.95 -3.1 Q23.6 -4.6 22.3 -6.6 L20.55 -8.25 Q17.4 -10.3 16.1 -9.05 L14.9 -7.95 Q9.05 -6.95 4.45 -8.9 -0.2 -10.9 -2.5 -10.9 -7.25 -9.4 -6.35 -6.4 L-5.45 -5.8 M13.25 -0.15 L14.3 1.25 Q15.0 3.75 18.0 7.55 L19.6 9.45 20.05 9.85 22.85 12.5 18.95 -0.65 18.85 -0.95 M22.95 -3.1 Q25.5 1.85 30.15 6.75 23.05 5.25 20.2 0.95 L18.95 -0.65" fill="none" stroke="#000000" stroke-linecap="round" stroke-linejoin="round" stroke-width="1.3"/>
  </g>
</svg>
