<?xml version="1.0" encoding="UTF-8" standalone="no"?>
<svg xmlns:xlink="http://www.w3.org/1999/xlink" height="21.1px" width="29.8px" xmlns="http://www.w3.org/2000/svg">
  <g transform="matrix(1.0, 0.0, 0.0, 1.0, 3.1, 11.4)">
    <path d="M10.25 -0.1 L11.7 1.05 Q12.25 2.35 10.95 2.35 8.7 2.25 7.7 0.6 7.4 -0.35 10.25 -0.1 M25.95 0.2 L25.95 1.55 25.0 3.3 Q24.65 6.15 21.15 6.6 L20.9 6.5 19.5 5.2 Q23.45 4.75 24.6 2.45 25.75 0.15 25.35 -0.3 24.95 -0.75 25.95 0.2 M8.95 4.75 Q12.05 6.85 10.1 6.85 7.6 7.1 6.65 4.9 6.65 3.1 8.95 4.75" fill="#ffffff" fill-opacity="0.7372549" fill-rule="evenodd" stroke="none"/>
    <path d="M19.5 5.2 L19.35 4.9 Q18.15 8.7 13.7 7.45 12.85 9.45 9.4 8.8 6.35 8.25 4.3 5.95 3.05 4.55 2.25 2.35 L1.9 1.45 Q-0.6 -0.55 -1.95 -3.35 -3.7 -8.45 2.05 -10.65 0.35 -4.85 3.65 -1.6 6.75 -2.15 9.7 -0.4 10.0 -0.2 10.25 -0.1 L11.7 1.05 Q13.85 3.0 14.0 5.5 14.05 6.65 13.7 7.45 M19.35 4.9 Q18.5 3.15 19.2 0.2 L15.05 -6.8 14.9 -10.55 Q19.15 -8.6 22.5 -3.3 L23.3 -3.4 Q24.2 -3.2 24.8 -2.65 25.75 -1.75 25.95 0.2 L25.95 1.55 25.85 2.45 Q25.4 7.7 21.35 6.7 L21.15 6.6 M20.9 6.5 L19.5 5.2 M22.5 -3.3 L21.25 -2.65 20.25 -1.6 19.2 0.2" fill="none" stroke="#000000" stroke-linecap="round" stroke-linejoin="round" stroke-width="1.5"/>
  </g>
</svg>
