<?xml version="1.0" encoding="UTF-8" standalone="no"?>
<svg xmlns:xlink="http://www.w3.org/1999/xlink" height="32.35px" width="31.25px" xmlns="http://www.w3.org/2000/svg">
  <g transform="matrix(1.0, 0.0, 0.0, 1.0, 5.5, 12.45)">
    <path d="M20.95 12.9 L20.95 14.25 Q21.0 16.45 21.3 18.25 L21.45 18.95 21.5 19.15 21.25 18.95 Q20.25 18.3 19.4 17.45 L19.2 17.3 18.5 16.7 16.55 14.9 11.65 9.45 10.1 7.5 9.55 6.8 Q7.75 4.5 5.2 3.2 L3.8 2.15 Q-0.9 -1.35 -4.1 -6.3 L-4.1 -6.35 Q-5.15 -8.9 -4.5 -11.2 -3.65 -12.2 2.1 -11.1 L1.2 -6.9 Q5.7 -5.0 11.6 -4.3 L12.7 -4.15 15.2 -3.95 15.9 -3.95 16.1 -3.9 14.85 -10.5 16.6 -10.25 19.3 -9.0 Q24.25 -6.4 25.0 -3.8 19.9 0.4 22.15 7.65 L21.05 12.2 20.95 12.9 20.95 12.6 21.05 12.2 M16.1 -3.9 L17.05 -3.9 18.1 -3.9 18.0 -4.25 M1.2 -6.9 L-2.05 -8.65" fill="none" stroke="#000000" stroke-linecap="round" stroke-linejoin="round" stroke-width="1.5"/>
  </g>
</svg>
