<?xml version="1.0" encoding="UTF-8" standalone="no"?>
<svg xmlns:xlink="http://www.w3.org/1999/xlink" height="30.25px" width="25.5px" xmlns="http://www.w3.org/2000/svg">
  <g transform="matrix(1.0, 0.0, 0.0, 1.0, 0.65, 11.4)">
    <path d="M12.15 -6.5 Q5.75 -7.95 1.95 -10.7 L0.05 -8.0 Q2.2 -5.2 8.75 -4.0 L9.2 -4.75 10.6 -6.05 11.3 -6.5 12.15 -6.5 12.2 -6.5 Q15.05 -7.85 16.05 -9.75 L18.8 -7.3 Q18.6 -5.7 16.1 -4.65 16.9 -3.7 17.4 -2.25 L23.95 11.0 Q24.9 18.75 21.7 16.8 L21.25 16.5 Q17.65 14.35 14.75 16.7 9.3 19.95 7.95 15.8 L7.3 14.75 Q5.65 12.65 2.4 13.35 L5.2 8.95 6.7 5.5 Q7.75 2.5 8.15 -0.65 L8.2 -0.75 8.3 -1.95 8.5 -3.35 8.75 -4.0 M12.2 -6.5 L14.35 -6.0 16.1 -4.65" fill="none" stroke="#000000" stroke-linecap="round" stroke-linejoin="round" stroke-width="1.4000000000000001"/>
    <path d="M7.3 14.75 Q10.2 9.65 10.3 3.9 M13.55 3.3 L13.25 -2.95 Q16.65 3.0 15.65 14.75" fill="none" stroke="#000000" stroke-linecap="round" stroke-linejoin="round" stroke-width="1.1"/>
  </g>
</svg>
