<?xml version="1.0" encoding="UTF-8" standalone="no"?>
<svg xmlns:xlink="http://www.w3.org/1999/xlink" height="36.15px" width="25.8px" xmlns="http://www.w3.org/2000/svg">
  <g transform="matrix(1.0, 0.0, 0.0, 1.0, 1.1, 11.2)">
    <path d="M15.5 -7.7 L15.45 -7.8 Q17.2 -8.95 19.1 -8.7 L19.05 -8.65 Q20.2 -8.55 22.4 -7.35 24.6 -6.15 23.8 0.75 22.95 7.6 21.4 9.95 19.85 12.25 18.4 17.2 17.25 20.95 16.9 24.25 L12.6 19.15 Q8.85 14.6 7.95 10.05 7.1 5.5 5.5 2.6 L3.25 -1.15 1.7 -2.95 Q0.45 -4.3 -0.1 -5.65 L-0.35 -6.35 -0.4 -8.1 Q0.15 -9.95 3.0 -10.4 4.75 -10.7 6.4 -10.0 L7.65 -9.35 8.15 -9.6 Q9.1 -10.05 10.25 -10.15 L10.45 -10.15 11.1 -10.15 11.15 -10.15 Q13.65 -10.0 15.4 -7.65 L15.5 -7.7 Q20.1 -1.25 17.15 8.05 M11.45 3.85 Q11.85 -3.4 7.65 -9.35" fill="none" stroke="#000000" stroke-linecap="round" stroke-linejoin="round" stroke-width="1.4000000000000001"/>
  </g>
</svg>
