<?xml version="1.0" encoding="UTF-8" standalone="no"?>
<svg xmlns:xlink="http://www.w3.org/1999/xlink" height="44.55px" width="78.65px" xmlns="http://www.w3.org/2000/svg">
  <g transform="matrix(1.0, 0.0, 0.0, 1.0, 31.25, 13.6)">
    <path d="M23.25 -1.7 Q23.2 -2.25 22.75 -2.6 L22.4 -2.9 Q22.1 -3.2 22.1 -3.45 L22.25 -4.25 23.25 -3.35 Q23.5 -2.75 23.25 -1.7" fill="#27331b" fill-rule="evenodd" stroke="none"/>
    <path d="M-21.9 1.7 Q-16.85 4.65 -9.5 2.15 M10.5 2.3 L14.65 -0.25 14.35 -0.45 Q13.35 -1.2 13.35 -2.25 13.35 -2.95 13.8 -3.5 L9.9 -4.75 M13.8 -3.5 L14.35 -4.05 Q15.4 -4.8 16.85 -4.8 18.35 -4.8 19.35 -4.05 L20.15 -3.25 20.7 -3.95 M21.5 -1.0 L20.15 -1.25 19.35 -0.45 Q18.35 0.35 16.85 0.35 15.6 0.35 14.65 -0.25 M40.6 14.75 Q35.4 20.25 27.0 22.45 M20.15 -3.25 L20.4 -2.25 20.15 -1.25 M-24.15 18.1 Q-18.55 20.8 -9.0 20.2 M-7.8 -8.1 L6.3 -5.55" fill="none" stroke="#000000" stroke-linecap="round" stroke-linejoin="round" stroke-width="1.0"/>
    <path d="M22.25 -4.25 L22.4 -4.7 22.55 -4.8 22.5 -4.85 Q22.7 -5.35 22.2 -6.0 L21.65 -6.6 18.6 -7.75 14.2 -8.7 8.4 -9.35 6.7 -9.6 4.45 -10.0 4.3 -10.05 Q0.2 -10.95 -3.0 -12.25 L-3.6 -12.7 -4.35 -12.8 -6.05 -12.45 Q-6.55 -12.1 -8.2 -11.55 L-10.4 -10.75 Q-11.0 -10.5 -10.1 -9.7 -9.1 -8.8 -9.15 -8.45 -9.2 -7.9 -10.55 -8.05 L-12.45 -8.2 Q-12.9 -8.0 -13.0 -7.0 L-13.2 -5.85 Q-13.4 -5.7 -14.3 -5.3 L-16.95 -4.35 Q-18.2 -3.95 -21.9 1.7 L-24.7 6.05 Q-30.85 15.95 -30.45 17.35 -29.5 19.3 -26.6 20.95 L-21.45 23.7 -18.65 24.75 Q-11.1 27.95 -2.5 30.15 -4.9 26.35 -5.35 23.05 -5.9 19.65 -0.15 16.45 L8.15 11.7 9.6 14.4 10.95 16.45 Q14.3 21.7 17.55 25.65 L20.2 28.55 Q29.45 28.7 38.4 24.4 43.05 22.15 46.6 19.2 L46.5 19.05 Q43.6 17.45 40.6 14.75 L38.45 12.7 Q34.2 8.5 33.15 4.85 32.0 1.2 31.45 0.0 30.25 -3.0 29.4 -3.65 L26.2 -5.6 26.6 -6.2 26.75 -7.45 Q26.7 -7.9 25.65 -8.35 L24.6 -8.8 25.0 -9.05 Q25.6 -9.45 25.55 -9.85 25.45 -10.35 23.65 -11.05 L22.1 -11.55 Q20.15 -9.8 10.9 -9.45 L8.4 -9.35 M23.25 -1.7 Q23.2 -2.25 22.75 -2.6 L22.4 -2.9 Q22.1 -3.2 22.1 -3.45 L22.25 -4.25 M23.25 -1.7 L23.05 -0.65 Q22.8 0.2 21.65 1.5 L17.7 5.1 8.15 11.7" fill="none" stroke="#000000" stroke-linecap="round" stroke-linejoin="round" stroke-width="1.6"/>
  </g>
</svg>
