<?xml version="1.0" encoding="UTF-8" standalone="no"?>
<svg xmlns:xlink="http://www.w3.org/1999/xlink" height="33.35px" width="33.95px" xmlns="http://www.w3.org/2000/svg">
  <g transform="matrix(1.0, 0.0, 0.0, 1.0, 9.4, 10.35)">
    <path d="M17.2 1.55 L17.55 2.7 Q23.5 1.1 23.55 -3.15 23.55 -5.1 21.0 -5.55 20.35 -7.9 16.2 -7.95 15.95 -1.0 13.15 1.0 L12.8 0.9 Q5.45 -1.85 1.15 -9.15 -3.7 -9.95 -4.35 -7.5 -8.25 -7.65 -8.4 -4.95 -2.45 1.8 8.3 3.05 L13.7 3.35 17.55 2.7 Q19.65 9.8 19.1 17.5 M7.95 1.55 L8.3 3.05 Q9.8 9.95 9.35 18.35" fill="none" stroke="#000000" stroke-linecap="round" stroke-linejoin="round" stroke-width="2.0"/>
    <path d="M12.8 0.9 L14.75 2.55 M19.1 17.5 Q19.55 17.6 19.85 17.95 20.35 18.45 20.35 19.15 20.35 19.85 19.85 20.3 19.4 20.8 18.7 20.8 18.0 20.8 17.5 20.3 17.0 19.85 17.0 19.15 17.0 18.45 17.5 17.95 18.0 17.45 18.7 17.45 L19.1 17.5 M9.35 18.35 Q10.05 18.4 10.55 18.9 11.15 19.5 11.15 20.3 11.15 21.1 10.55 21.65 10.0 22.25 9.2 22.25 8.4 22.25 7.8 21.65 7.25 21.1 7.25 20.3 7.25 19.5 7.8 18.9 8.4 18.35 9.2 18.35 L9.35 18.35" fill="none" stroke="#000000" stroke-linecap="round" stroke-linejoin="round" stroke-width="1.5"/>
  </g>
</svg>
