<?xml version="1.0" encoding="UTF-8" standalone="no"?>
<svg xmlns:xlink="http://www.w3.org/1999/xlink" height="30.65px" width="30.1px" xmlns="http://www.w3.org/2000/svg">
  <g transform="matrix(1.0, 0.0, 0.0, 1.0, 5.85, 11.25)">
    <path d="M21.25 -6.45 L22.45 -5.1 Q20.85 -0.65 18.15 2.25 L16.65 1.65 Q17.75 0.65 19.15 -1.7 20.95 -4.75 21.25 -6.45 M-3.75 -7.3 L-2.45 -8.15 Q0.85 -2.2 9.8 2.05 L8.15 3.05 Q-1.0 -1.95 -3.75 -7.3" fill="#ffffff" fill-rule="evenodd" stroke="none"/>
    <path d="M-2.45 -8.15 Q-0.35 -9.5 2.7 -10.5 L2.7 -8.75 Q5.45 -4.45 11.65 -2.35 L12.1 -3.15 13.3 -2.2 Q16.75 -3.95 15.6 -8.0 L15.15 -9.85 Q16.7 -9.4 18.5 -8.2 L21.25 -6.45 22.45 -5.1 23.5 -3.8 Q23.5 0.05 20.35 3.5 L22.3 5.1 19.1 8.25 Q21.5 11.6 22.05 14.8 20.8 16.9 18.55 18.2 17.15 11.0 13.65 4.05 L14.05 5.7 M16.65 1.65 L18.15 2.25 20.35 3.5 M-3.75 -7.3 L-2.45 -8.15 M9.8 2.05 L10.85 1.55 Q10.75 -0.6 11.65 -2.35 M13.65 4.05 Q12.6 11.8 13.65 18.65 10.8 18.1 9.15 15.95 9.0 12.45 9.9 8.85 L9.3 10.5 Q5.8 8.4 5.0 6.15 L6.4 4.5 Q-3.25 -0.9 -5.1 -6.1 L-3.75 -7.3 M8.15 3.05 L9.8 2.05 M16.65 1.65 L15.45 1.25 15.45 1.4 Q15.05 3.0 13.95 3.55 17.55 6.25 19.0 8.45 L19.1 8.25 M13.3 -2.2 Q14.65 -0.95 15.45 1.2 L15.45 1.25 M13.95 3.55 L13.55 3.7 13.65 4.05 M9.9 8.85 Q11.05 5.6 13.55 3.7 11.75 3.05 10.85 1.55 M8.15 3.05 L6.4 4.5" fill="none" stroke="#000000" stroke-linecap="round" stroke-linejoin="round" stroke-width="1.5"/>
    <path d="M14.85 3.9 Q16.25 3.4 18.05 4.75 M12.3 4.0 Q11.05 3.5 9.45 4.9" fill="none" stroke="#000000" stroke-linecap="round" stroke-linejoin="round" stroke-width="1.0"/>
  </g>
</svg>
