<?xml version="1.0" encoding="UTF-8" standalone="no"?>
<svg xmlns:xlink="http://www.w3.org/1999/xlink" height="25.4px" width="27.6px" xmlns="http://www.w3.org/2000/svg">
  <g transform="matrix(1.0, 0.0, 0.0, 1.0, 3.15, 11.25)">
    <path d="M15.75 -0.1 L15.55 -1.45 Q14.75 -3.3 12.65 -3.95 10.8 -2.75 11.5 -0.85 11.8 -0.05 12.6 0.7 L13.35 1.35 13.7 1.5 14.25 1.85 14.85 2.2 15.05 2.05 15.4 1.85 15.55 1.25 15.75 -0.1 Q24.25 6.85 23.9 12.5 21.25 12.45 18.9 10.85 17.35 9.75 16.15 6.1 L15.65 4.55 15.05 2.05 M13.35 1.35 Q10.05 6.9 11.9 9.95 14.25 8.95 13.7 1.5 M12.6 0.7 Q8.6 5.8 9.15 8.0 9.55 11.5 13.0 13.6 15.85 12.6 14.25 1.85 M15.4 1.85 Q19.2 10.1 20.65 9.05 21.8 6.85 15.55 1.25" fill="none" stroke="#000000" stroke-linecap="round" stroke-linejoin="round" stroke-width="1.1"/>
    <path d="M2.7 -10.5 Q5.75 -6.9 12.35 -4.4 9.3 -3.15 10.5 0.15 1.45 -2.7 -2.4 -7.6 -1.3 -10.0 2.7 -10.5 M14.55 -10.5 Q18.2 -9.6 20.6 -6.55 19.3 -2.55 17.0 -0.55 16.85 -3.6 12.9 -4.4 15.1 -6.35 14.55 -10.5" fill="none" stroke="#000000" stroke-linecap="round" stroke-linejoin="round" stroke-width="1.5"/>
  </g>
</svg>
