<?xml version="1.0" encoding="UTF-8" standalone="no"?>
<svg xmlns:xlink="http://www.w3.org/1999/xlink" height="38.9px" width="29.85px" xmlns="http://www.w3.org/2000/svg">
  <g transform="matrix(1.0, 0.0, 0.0, 1.0, 6.1, 9.9)">
    <path d="M14.95 3.75 Q0.05 -0.5 -5.4 -5.95 L-4.35 -7.0 -2.9 -7.9 Q-1.3 -8.8 1.1 -9.2 6.25 -4.0 10.15 -1.3 14.0 1.45 14.55 2.2 15.65 -1.05 16.4 -8.95 L19.0 -7.7 19.3 -7.5 20.6 -6.5 21.45 -5.2 Q19.15 0.5 16.05 3.2 L16.35 3.75 Q20.55 7.55 23.05 11.8 21.65 14.25 19.2 14.25 20.75 20.15 22.45 23.05 L19.6 24.0 16.0 11.15 15.95 13.5 Q17.75 21.0 17.5 27.8 L14.45 28.3 Q14.7 21.65 14.05 14.35 11.35 14.05 9.7 13.15 11.85 7.25 14.95 3.75 L15.15 3.8 15.25 3.8 15.3 3.65 15.3 3.5 15.15 2.85 15.1 2.85 15.1 2.8 14.55 2.2 M16.05 3.2 L15.25 3.8 M15.15 3.8 Q14.45 5.15 15.15 7.3 L15.55 7.4 16.55 7.25 17.0 7.0 Q17.1 5.2 16.35 3.75 M15.55 7.4 L16.0 11.15 M15.95 13.5 L15.7 14.45 14.05 14.35 M16.55 7.25 L19.2 14.25" fill="none" stroke="#000000" stroke-linecap="round" stroke-linejoin="round" stroke-width="1.4000000000000001"/>
  </g>
</svg>
