<?xml version="1.0" encoding="UTF-8" standalone="no"?>
<svg xmlns:xlink="http://www.w3.org/1999/xlink" height="6.75px" width="17.85px" xmlns="http://www.w3.org/2000/svg">
  <g transform="matrix(1.0, 0.0, 0.0, 1.0, 0.45, 11.0)">
    <path d="M3.75 -8.35 L3.9 -8.5 Q4.5 -9.0 5.25 -8.95 5.95 -8.95 6.5 -8.35 L7.0 -7.4 7.4 -7.95 Q8.05 -8.5 8.8 -8.45 9.5 -8.4 10.0 -7.85 L10.55 -6.8 Q10.6 -7.5 11.15 -8.05 11.8 -8.55 12.5 -8.5 13.25 -8.5 13.75 -7.9 L13.8 -7.9 13.7 -8.5 Q13.75 -9.1 14.25 -9.6 14.8 -10.05 15.4 -10.05 16.05 -10.0 16.45 -9.5 16.95 -8.95 16.9 -8.35 16.85 -7.7 16.35 -7.25 15.85 -6.8 15.2 -6.85 14.6 -6.85 14.2 -7.3 L14.25 -6.65 Q14.2 -5.85 13.65 -5.35 13.05 -4.8 12.3 -4.8 11.6 -4.85 11.05 -5.5 10.6 -5.9 10.55 -6.55 10.5 -5.75 9.9 -5.25 9.3 -4.7 8.6 -4.75 7.85 -4.8 7.3 -5.35 6.9 -5.8 6.85 -6.35 L6.35 -5.75 Q5.75 -5.25 5.05 -5.25 4.3 -5.3 3.75 -5.9 3.25 -6.45 3.25 -7.25 L3.35 -7.45 3.1 -7.35 Q2.55 -6.8 1.85 -6.8 1.1 -6.85 0.5 -7.5 0.0 -8.0 0.05 -8.8 0.05 -9.5 0.65 -10.05 1.25 -10.55 2.0 -10.5 2.7 -10.5 3.25 -9.9 3.8 -9.35 3.8 -8.65 L3.75 -8.35 3.35 -7.45 M6.85 -6.35 L6.8 -6.75 7.0 -7.4 M10.55 -6.55 L10.55 -6.8 M14.2 -7.3 L14.15 -7.35 13.8 -7.9" fill="none" stroke="#000000" stroke-linecap="round" stroke-linejoin="round" stroke-width="1.0"/>
  </g>
</svg>
