<?xml version="1.0" encoding="UTF-8" standalone="no"?>
<svg xmlns:xlink="http://www.w3.org/1999/xlink" height="24.6px" width="34.25px" xmlns="http://www.w3.org/2000/svg">
  <g transform="matrix(1.0, 0.0, 0.0, 1.0, 1.95, 10.2)">
    <path d="M1.4 -7.75 Q6.9 -8.15 12.75 -3.25 L12.95 -3.25 Q14.7 -4.35 17.0 -3.6 20.35 -8.8 28.55 -9.45 32.9 -6.2 30.9 4.35 L27.5 4.45 Q29.75 5.55 31.05 9.0 27.0 11.9 21.35 12.45 19.8 10.2 17.85 2.5 L17.8 2.5 13.4 2.65 13.35 2.65 Q14.1 6.6 11.9 13.65 5.75 13.8 2.75 12.9 -0.35 12.1 0.7 10.55 L3.75 6.35 1.3 5.9 Q-1.45 2.7 -1.2 -0.7 -1.2 -6.25 1.4 -7.75 M18.05 -1.4 Q18.25 -2.45 20.8 -3.5 M10.0 -2.25 Q12.75 -1.65 13.65 -0.55 13.4 -1.95 12.75 -3.25 M13.35 2.65 Q8.6 5.6 5.25 6.25 L3.75 6.35 M1.3 5.9 Q6.25 -0.2 13.35 2.65 14.0 1.7 13.65 -0.55 M30.9 4.35 Q28.8 -2.25 17.85 2.5 22.6 4.35 27.5 4.45 M17.0 -3.6 Q18.45 -0.65 17.8 2.5" fill="none" stroke="#000000" stroke-linecap="round" stroke-linejoin="round" stroke-width="1.5"/>
  </g>
</svg>
