<?xml version="1.0" encoding="UTF-8" standalone="no"?>
<svg xmlns:xlink="http://www.w3.org/1999/xlink" height="16.05px" width="21.2px" xmlns="http://www.w3.org/2000/svg">
  <g transform="matrix(1.0, 0.0, 0.0, 1.0, 0.2, 12.6)">
    <path d="M14.65 -6.75 L16.55 -6.95 M11.35 -6.85 Q10.55 -7.45 9.0 -7.1" fill="none" stroke="#000000" stroke-linecap="round" stroke-linejoin="round" stroke-width="1.0"/>
    <path d="M4.15 -10.15 L1.1 -10.8 Q0.3 -9.65 0.5 -8.25 1.05 -7.55 3.5 -7.4 L4.15 -10.15 4.15 -10.2 Q5.1 -12.45 6.65 -11.75 9.6 -10.05 11.7 -8.2 12.05 -9.25 13.1 -9.15 L13.7 -8.9 Q15.85 -11.25 19.35 -11.95 20.6 -11.45 20.3 -6.1 19.9 -1.8 18.75 -0.7 L19.6 0.4 Q17.6 1.45 16.1 2.45 13.65 -1.3 12.95 -4.75 L12.5 -4.85 Q12.1 -0.25 10.85 2.8 9.65 1.85 7.2 0.85 L8.7 -1.75 Q7.75 -0.95 6.8 -0.5 4.2 -0.35 3.55 -3.1 3.2 -5.25 3.5 -7.4 M11.35 -6.85 Q11.35 -7.45 11.65 -8.05 L11.7 -8.2 M13.7 -8.9 Q14.4 -8.45 14.65 -7.2 L14.65 -6.75 Q14.55 -5.4 13.7 -4.9 L13.1 -4.75 12.95 -4.75 M12.5 -4.85 Q11.9 -5.05 11.7 -5.35 10.25 -3.1 8.7 -1.75 M18.75 -0.7 L18.45 -0.45 Q15.4 -2.15 13.7 -4.9 M11.7 -5.35 L11.7 -5.4 Q11.35 -6.15 11.35 -6.85" fill="none" stroke="#000000" stroke-linecap="round" stroke-linejoin="round" stroke-width="1.3"/>
  </g>
</svg>
