<?xml version="1.0" encoding="UTF-8" standalone="no"?>
<svg xmlns:xlink="http://www.w3.org/1999/xlink" height="18.0px" width="35.25px" xmlns="http://www.w3.org/2000/svg">
  <g transform="matrix(1.0, 0.0, 0.0, 1.0, 9.0, 9.2)">
    <path d="M17.1 3.85 L15.3 7.2 Q17.1 6.9 19.85 4.0 22.55 1.1 24.25 -2.25 25.85 -1.35 25.55 -0.05 25.25 1.2 23.85 1.75 24.2 4.3 21.8 4.15 22.0 6.95 19.1 6.45 18.7 9.2 15.3 7.2 12.3 9.3 9.8 6.85 6.15 7.5 4.15 4.85 L0.0 4.65 Q-1.95 3.7 -2.9 1.45 -6.25 1.85 -7.7 0.35 -9.15 -1.2 -7.35 -3.2 0.45 1.45 9.15 5.35 13.1 7.05 15.05 7.3 L15.3 7.2 15.05 7.3 11.9 4.25 Q14.65 1.75 17.1 3.85" fill="#ffffff" fill-rule="evenodd" stroke="none"/>
    <path d="M15.3 7.2 Q17.1 6.9 19.85 4.0 22.55 1.1 24.25 -2.25 M11.9 4.25 Q14.65 1.75 17.1 3.85 M15.05 7.3 Q13.1 7.05 9.15 5.35 0.45 1.45 -7.35 -3.2" fill="none" stroke="#000000" stroke-linecap="round" stroke-linejoin="round" stroke-width="1.0"/>
    <path d="M24.25 -2.25 L24.25 -2.3 Q23.05 -4.2 19.8 -5.9 20.3 -2.8 17.8 2.65 L17.75 2.7 17.1 3.85 15.3 7.2 Q12.3 9.3 9.8 6.85 6.15 7.5 4.15 4.85 L0.0 4.65 Q-1.95 3.7 -2.9 1.45 -6.25 1.85 -7.7 0.35 -9.15 -1.2 -7.35 -3.2 L-7.45 -3.25 Q-6.2 -6.65 -1.4 -8.55 3.35 -3.25 10.75 3.15 11.9 1.25 13.9 0.6 15.8 0.35 17.8 2.65 M24.25 -2.25 Q25.85 -1.35 25.55 -0.05 25.25 1.2 23.85 1.75 24.2 4.3 21.8 4.15 22.0 6.95 19.1 6.45 18.7 9.2 15.3 7.2 L15.05 7.3 11.9 4.25 10.75 3.15" fill="none" stroke="#000000" stroke-linecap="round" stroke-linejoin="round" stroke-width="1.3"/>
  </g>
</svg>
