<?xml version="1.0" encoding="UTF-8" standalone="no"?>
<svg xmlns:xlink="http://www.w3.org/1999/xlink" height="11.8px" width="19.75px" xmlns="http://www.w3.org/2000/svg">
  <g transform="matrix(1.0, 0.0, 0.0, 1.0, 1.15, 11.25)">
    <path d="M1.45 -9.05 Q1.55 -9.9 2.15 -10.75 L14.85 -10.35 15.3 -8.9 15.35 -8.65 1.45 -9.05" fill="#000000" fill-opacity="0.32941177" fill-rule="evenodd" stroke="none"/>
    <path d="M15.35 -8.65 L15.4 -7.5 Q18.9 -5.3 17.9 -3.8 14.7 -3.35 13.15 -5.35 13.0 -2.8 9.4 -2.5 L9.45 -2.35 Q8.7 -1.55 7.5 -1.65 7.1 -0.35 6.2 0.05 5.2 -0.85 5.2 -1.75 3.35 -1.8 2.95 -2.2 L3.75 -3.2 3.75 -4.55 2.65 -4.2 1.55 -3.65 1.2 -2.85 0.45 -3.8 -0.65 -4.25 -0.3 -4.65 -0.55 -5.6 0.5 -5.7 Q-1.15 -7.3 1.55 -7.9 L1.45 -8.9 1.45 -9.05 Q1.55 -9.9 2.15 -10.75 L14.85 -10.35 15.3 -8.9 15.35 -8.65 M15.4 -7.5 L15.35 -7.35 Q14.2 -6.45 11.05 -6.2 3.6 -6.15 1.65 -7.5 L1.55 -7.9 M3.75 -4.55 L4.1 -4.75 3.75 -4.6 3.75 -4.55 M0.5 -5.7 L0.6 -5.75 2.05 -6.2 1.95 -4.8 2.65 -4.2 M9.4 -2.5 L7.85 -4.0 Q8.1 -4.85 7.45 -5.85 5.95 -5.6 5.4 -4.6 L4.1 -4.75" fill="none" stroke="#000000" stroke-linecap="round" stroke-linejoin="round" stroke-width="1.0"/>
  </g>
</svg>
