<?xml version="1.0" encoding="UTF-8" standalone="no"?>
<svg xmlns:xlink="http://www.w3.org/1999/xlink" height="17.9px" width="35.0px" xmlns="http://www.w3.org/2000/svg">
  <g transform="matrix(1.0, 0.0, 0.0, 1.0, 10.6, 11.1)">
    <path d="M9.65 5.3 Q9.35 1.5 5.8 -3.4 2.25 -8.3 2.15 -10.2 -0.45 -10.05 -2.15 -8.3 -1.35 -9.25 -4.4 -7.7 -7.5 -6.15 -9.7 -3.75 -6.95 -1.05 -3.6 0.55 -0.25 2.15 2.6 3.7 5.45 5.25 6.25 5.9 M19.8 5.7 L18.65 0.4 17.2 -4.3 Q16.45 -6.3 15.65 -9.1 17.75 -8.65 19.15 -7.35 L20.35 -6.15 20.75 -5.15 22.9 -3.05 Q23.65 -2.15 23.45 -0.65 L22.65 3.65" fill="none" stroke="#000000" stroke-linecap="round" stroke-linejoin="round" stroke-width="1.8"/>
  </g>
</svg>
