<?xml version="1.0" encoding="UTF-8" standalone="no"?>
<svg xmlns:xlink="http://www.w3.org/1999/xlink" height="30.8px" width="36.65px" xmlns="http://www.w3.org/2000/svg">
  <g transform="matrix(1.0, 0.0, 0.0, 1.0, 9.05, 11.1)">
    <path d="M12.45 4.7 Q9.35 1.5 5.8 -3.4 2.25 -8.3 2.15 -10.2 -0.45 -10.05 -2.15 -8.3 -1.35 -9.25 -4.4 -7.7 -7.5 -6.15 -8.15 -4.75 -5.55 -2.1 -1.95 0.0 L2.85 2.55 M16.2 4.6 Q17.15 1.75 17.25 -0.4 17.35 -2.7 16.9 -4.45 L15.65 -9.1 Q17.75 -8.65 19.15 -7.35 L20.35 -6.15 20.75 -5.15 22.45 -3.65 Q23.1 -2.8 22.15 0.55" fill="none" stroke="#000000" stroke-linecap="round" stroke-linejoin="round" stroke-width="1.8"/>
    <path d="M2.85 2.55 L2.85 2.0 Q8.65 2.95 11.9 4.85 L12.45 4.7 M22.15 0.55 L21.6 1.75 Q23.3 0.85 24.45 0.75 27.75 9.65 26.0 12.85 L23.4 12.5 26.15 15.25 Q21.95 15.7 18.4 18.6 L15.6 10.3 14.7 18.7 Q8.55 18.75 5.55 17.25 L8.85 13.15 Q7.35 14.0 5.95 14.3 2.55 9.75 2.85 2.55 M16.2 4.6 L16.35 4.9 17.05 4.7 Q19.7 2.7 21.6 1.75 M16.35 4.9 L16.45 5.15 17.05 4.7 M8.85 13.15 Q11.0 11.9 13.45 9.4 13.7 7.8 13.05 5.6 L11.9 4.85 M13.05 5.6 L12.8 4.8 16.2 4.6 M15.6 10.3 L15.6 10.25 13.35 9.85 13.45 9.4 M23.4 12.5 Q20.8 11.75 17.15 9.55 L17.05 9.85 Q16.45 10.25 15.6 10.25 M16.45 5.15 Q17.65 7.65 17.15 9.55" fill="none" stroke="#000000" stroke-linecap="round" stroke-linejoin="round" stroke-width="2.0"/>
  </g>
</svg>
