<?xml version="1.0" encoding="UTF-8" standalone="no"?>
<svg xmlns:xlink="http://www.w3.org/1999/xlink" height="37.2px" width="57.45px" xmlns="http://www.w3.org/2000/svg">
  <g transform="matrix(1.0, 0.0, 0.0, 1.0, 20.95, 18.7)">
    <path d="M6.25 -4.7 L7.25 -4.5 Q10.1 -4.15 10.5 -7.35 9.9 -12.85 5.7 -14.4 3.1 -15.35 1.35 -14.05 0.3 -13.35 -0.45 -11.95 M18.65 -7.95 Q18.3 -6.45 18.95 -5.1 19.75 -3.4 22.2 -1.9 L23.65 -1.4 24.75 -1.3 25.25 -1.4 26.2 -1.7 27.75 -2.85 M18.95 -5.1 Q16.3 -5.5 16.75 -8.6 17.0 -11.9 21.35 -12.35 22.7 -14.85 26.45 -14.45 30.65 -12.8 30.25 -10.2 34.95 -10.55 35.65 -6.55 36.25 -3.0 33.75 -3.35 34.4 0.35 31.25 0.8 L31.05 0.85 Q33.65 5.5 32.75 13.75 29.7 6.5 27.3 4.05 25.8 2.55 24.8 0.8 22.25 11.05 17.2 15.6 9.65 22.35 5.55 7.75 3.2 4.6 0.85 2.75 -5.7 7.1 -11.75 9.0 -17.0 11.7 -20.2 13.2 -20.1 4.4 -14.6 -3.95 -15.9 -5.85 -15.65 -7.95 -14.4 -11.15 -9.7 -11.35 -10.1 -13.05 -9.4 -14.7 -8.3 -17.45 -4.3 -17.95 0.35 -18.25 1.35 -14.05 M23.65 -1.4 L24.25 -0.1 24.75 -1.3 M30.25 -10.2 Q30.05 -9.2 29.2 -8.05 M31.55 -4.15 Q32.85 -3.5 33.75 -3.35 M24.8 0.8 L24.25 -0.1 Q22.0 5.0 18.65 8.15 12.7 13.45 8.7 8.25 6.05 4.85 1.3 2.45 L0.85 2.75 Q-0.75 1.55 -2.3 0.95 L-3.45 0.6 M7.25 -4.5 Q9.85 -1.15 6.9 0.9 L3.15 1.15 1.3 2.45 Q-0.4 1.65 -2.3 0.95 M-7.45 -2.55 L-8.65 -2.45 Q-5.25 1.7 0.1 -1.15 1.5 0.6 3.15 1.15 M26.2 -1.7 Q27.35 1.5 31.05 0.85 M24.8 0.8 L25.25 -1.4 M-14.6 -3.95 Q-13.5 -2.3 -8.65 -2.45 M-9.7 -11.35 L-8.85 -9.25 M-11.75 9.0 Q-14.4 9.85 -17.7 9.6" fill="none" stroke="#000000" stroke-linecap="round" stroke-linejoin="round" stroke-width="1.5"/>
  </g>
</svg>
