<?xml version="1.0" encoding="UTF-8" standalone="no"?>
<svg xmlns:xlink="http://www.w3.org/1999/xlink" height="37.35px" width="52.55px" xmlns="http://www.w3.org/2000/svg">
  <g transform="matrix(1.0, 0.0, 0.0, 1.0, 11.6, 9.5)">
    <path d="M7.9 3.0 Q10.65 3.95 13.7 3.05 L13.65 2.85 13.65 -1.0 13.65 -1.05 13.7 -1.1 Q7.3 -5.9 0.1 -7.25 L-8.4 -8.35 Q-9.55 -7.6 -10.1 -6.5 -10.7 -5.35 -10.6 -3.75 -10.45 -0.35 -8.05 4.9 L-8.15 6.25 Q-9.65 13.05 -6.45 16.75 -3.6 17.85 3.2 15.6 L3.35 15.6 Q9.75 13.35 14.3 8.3 L15.3 6.65 15.05 6.35 Q13.8 5.15 13.7 3.05 M13.7 -1.1 Q15.1 -2.65 18.55 -1.6 L19.5 -1.3 19.55 -1.25 Q27.2 -8.0 33.6 -8.5 34.8 -8.3 35.5 -7.4 L36.7 -5.35 Q37.2 -4.25 37.35 -1.4 L37.35 -0.9 37.25 1.35 37.25 1.6 37.25 1.7 37.2 1.8 36.7 3.95 37.1 5.1 Q39.65 12.8 37.3 14.55 L31.55 14.0 29.65 13.4 30.5 14.1 34.85 16.75 Q38.4 18.8 39.95 21.35 34.85 21.15 30.4 24.0 25.9 26.8 22.25 26.35 19.45 19.9 18.1 10.4 L17.8 8.25 17.65 7.1 17.55 7.1 17.6 12.4 Q17.65 14.6 17.0 18.9 L15.75 26.85 Q12.15 24.35 4.3 25.55 -1.75 26.35 -5.05 23.45 L-0.2 18.55 Q1.9 16.35 2.65 16.0 L3.35 15.6 M19.55 -1.25 L20.0 1.05 20.1 1.9 20.2 2.4 Q22.2 1.7 25.25 2.75 M20.2 2.4 L20.25 2.85 Q20.55 5.35 20.0 6.55 L19.85 6.65 Q24.25 11.55 29.65 13.4 M19.85 6.65 L17.8 7.1 17.65 7.1 M17.55 7.1 Q15.75 7.05 15.3 6.65" fill="none" stroke="#000000" stroke-linecap="round" stroke-linejoin="round" stroke-width="2.0"/>
  </g>
</svg>
