<?xml version="1.0" encoding="UTF-8" standalone="no"?>
<svg xmlns:xlink="http://www.w3.org/1999/xlink" height="35.9px" width="43.8px" xmlns="http://www.w3.org/2000/svg">
  <g transform="matrix(1.0, 0.0, 0.0, 1.0, 13.85, 9.85)">
    <path d="M25.45 -3.5 Q25.75 -2.8 25.4 -1.05 26.65 1.15 28.95 -0.25 30.2 -1.7 25.45 -3.5 L24.1 -4.65 Q22.85 -5.4 16.9 -6.9 17.85 0.85 16.85 5.7 L18.1 5.95 18.1 6.0 18.5 6.35 Q21.65 5.6 23.35 3.7 L23.7 3.25 24.7 1.25 25.2 -0.35 25.4 -1.05 M23.35 3.7 Q26.05 8.25 22.9 9.0 L21.1 9.05 Q22.8 11.35 23.2 13.85 22.15 15.05 21.15 15.2 22.45 19.75 21.8 23.0 19.9 22.55 18.0 23.8 18.5 17.6 16.55 9.65 L17.0 24.45 Q15.2 26.15 11.95 24.45 13.05 22.15 13.4 16.45 L10.3 16.15 Q10.65 13.3 12.65 9.5 11.5 10.1 9.9 9.9 6.15 9.35 7.25 5.7 L6.55 5.55 Q3.45 8.75 0.85 7.45 -1.8 6.1 -0.3 2.75 L-0.35 2.75 Q-4.3 5.5 -6.85 3.7 -9.45 1.85 -5.85 -0.45 L-5.9 -0.5 Q-11.0 1.35 -12.95 -0.6 -13.75 -2.85 -9.85 -3.75 -10.55 -3.7 -7.8 -5.5 -5.1 -7.35 1.2 -9.1 L8.05 -2.45 Q12.6 2.05 14.9 6.05 L16.85 5.7 M23.7 3.25 Q24.0 5.4 26.95 4.35 29.85 3.25 25.2 -0.35 M13.4 16.45 L14.6 16.15 15.3 9.8 Q14.7 9.0 14.65 6.95 L14.6 6.65 14.6 6.2 14.3 6.65 12.65 9.5 M15.3 9.8 Q15.3 10.35 15.55 9.8 L16.55 9.6 18.0 9.15 18.0 9.0 18.1 6.4 18.1 6.0 M16.55 9.65 L16.55 9.6 M14.9 6.05 L14.6 6.2 M6.55 5.55 L1.95 3.8 -0.3 2.75 M14.3 6.65 Q10.95 6.7 7.25 5.7 M18.0 9.0 L19.5 15.15 21.15 15.2 M21.1 9.05 Q20.0 7.65 18.5 6.35 M-5.9 -0.5 Q-8.05 -2.05 -9.85 -3.75 M-0.35 2.75 Q-3.35 1.25 -5.85 -0.45" fill="none" stroke="#000000" stroke-linecap="round" stroke-linejoin="round" stroke-width="1.5"/>
  </g>
</svg>
