<?xml version="1.0" encoding="UTF-8" standalone="no"?>
<svg xmlns:xlink="http://www.w3.org/1999/xlink" height="39.95px" width="27.85px" xmlns="http://www.w3.org/2000/svg">
  <g transform="matrix(1.0, 0.0, 0.0, 1.0, 1.5, 11.6)">
    <path d="M7.75 -3.15 Q7.55 -1.0 7.1 -0.65 1.5 -2.7 -0.75 -6.95 0.05 -8.3 1.1 -9.25 2.15 -10.2 2.6 -10.85 4.7 -9.2 9.7 -8.2 L13.7 -2.45 13.55 -8.05 13.55 -8.1 Q15.7 -9.45 16.0 -10.75 17.15 -10.45 17.8 -8.05 L19.2 -5.2 Q18.65 -3.45 16.8 -2.85 L16.6 -3.3 15.6 -5.4 Q14.55 -7.2 13.55 -8.05 M16.55 -1.65 Q17.5 -0.35 17.65 3.0 21.25 4.6 23.85 10.45 26.0 15.75 25.5 20.55 24.15 16.95 20.6 13.05 L20.6 13.7 Q20.25 24.95 22.2 27.6 14.4 24.25 13.45 19.3 13.2 16.05 14.55 11.5 15.25 7.6 15.05 4.6 11.75 1.55 11.45 -0.3 L11.6 -0.4 13.15 -1.15 14.65 -1.65 Q15.65 -1.85 16.55 -1.65 M7.75 -3.15 L7.75 -3.7 8.05 -5.55 Q8.45 -6.95 9.3 -7.9 M15.7 4.0 Q15.3 4.3 15.05 4.6 M17.65 3.0 L16.4 3.55 16.45 3.65 Q20.2 8.4 20.6 13.05 M16.4 3.55 L15.7 4.0" fill="none" stroke="#000000" stroke-linecap="round" stroke-linejoin="round" stroke-width="1.5"/>
    <path d="M16.6 -3.3 L16.55 -1.65 M11.6 -0.4 Q8.95 -1.85 7.75 -3.15 M14.65 -1.65 Q15.0 -4.4 15.6 -5.4 M13.15 -1.15 Q9.8 -3.6 8.05 -5.55 M17.25 9.25 Q16.75 6.75 15.7 4.0 M16.45 3.65 L18.15 5.2" fill="none" stroke="#000000" stroke-linecap="round" stroke-linejoin="round" stroke-width="1.0"/>
  </g>
</svg>
