<?xml version="1.0" encoding="UTF-8" standalone="no"?>
<svg xmlns:xlink="http://www.w3.org/1999/xlink" height="8.95px" width="18.8px" xmlns="http://www.w3.org/2000/svg">
  <g transform="matrix(1.0, 0.0, 0.0, 1.0, 9.4, 4.5)">
    <path d="M-8.2 -3.1 Q-8.0 -4.5 -6.85 -4.5 -4.2 -4.25 -3.8 -2.05 -2.6 -3.95 -0.65 -3.65 1.0 -3.8 1.85 -2.05 2.3 -3.1 4.15 -3.4 5.25 -3.5 6.15 -2.1 7.35 -3.45 8.9 -2.35 9.85 -0.75 8.7 0.4 10.15 1.4 8.65 3.15 7.1 3.7 6.15 2.35 5.85 4.45 4.05 4.45 2.35 4.25 1.6 3.55 0.15 4.55 -1.65 4.2 -3.9 3.7 -4.35 2.35 L-7.0 2.6 -7.6 2.35 Q-9.55 1.8 -9.0 -0.25 -10.05 -2.15 -8.2 -3.1" fill="#ffffff" fill-rule="evenodd" stroke="none"/>
  </g>
</svg>
