<?xml version="1.0" encoding="UTF-8" standalone="no"?>
<svg xmlns:xlink="http://www.w3.org/1999/xlink" height="281.9px" width="278.2px" xmlns="http://www.w3.org/2000/svg">
  <g transform="matrix(1.0, 0.0, 0.0, 1.0, 139.1, 140.95)">
    <path d="M117.2 15.4 Q118.85 19.85 120.9 23.55 122.6 26.55 124.6 29.1 131.75 34.35 138.1 26.05 124.75 28.7 112.8 2.8 L111.25 -1.6 110.25 -4.75 Q103.7 -25.85 102.7 -46.15 L102.5 -50.45 Q101.95 -60.9 101.05 -68.9 L100.8 -71.0 100.7 -71.55 Q99.25 -84.25 96.9 -90.15 L96.0 -92.05 Q85.7 -116.7 70.0 -119.45 64.0 -119.5 59.45 -112.65 57.0 -109.05 55.0 -103.6 L54.55 -102.3 Q55.7 -106.95 57.9 -112.65 62.4 -124.2 71.3 -139.95 60.45 -133.35 54.75 -121.15 L54.5 -120.3 Q53.4 -116.65 52.75 -112.65 L52.3 -109.65 M67.95 -103.0 Q71.7 -103.15 74.9 -101.1 83.95 -95.5 88.8 -72.9 M120.9 23.55 Q127.45 40.15 127.8 71.7 L128.1 78.8 Q124.2 71.95 123.8 64.4 L124.2 81.8 Q124.55 95.8 129.55 105.95 117.65 97.8 118.45 88.55 113.2 116.1 91.1 139.55 99.7 99.9 96.75 76.9 L95.35 65.85 Q96.15 91.6 87.6 116.05 91.2 86.35 87.45 55.9 84.95 36.0 84.05 21.5 85.5 57.65 87.35 72.5 75.35 41.25 77.75 -9.2 79.45 -31.25 79.2 -45.65 L78.7 -63.85 Q78.05 -71.85 76.5 -78.8 75.7 -82.85 74.9 -85.3 L74.1 -87.4 Q72.0 -91.75 70.35 -92.2 M84.7 -43.6 Q83.4 -16.35 93.05 -6.2 L91.25 -23.9 M101.05 -68.9 Q109.55 -27.1 122.75 -3.0 105.0 -18.45 102.5 -50.45 M83.15 -4.15 L83.35 2.9 83.55 7.65 84.05 21.5 M118.45 88.55 Q120.35 79.25 119.55 72.9 M91.85 42.6 L93.7 50.8 Q95.15 58.35 95.35 65.85 M123.7 58.7 L123.7 60.4 123.75 62.35 123.75 63.25 123.75 64.15 123.8 64.4 M110.6 18.75 Q121.65 51.2 109.4 77.5 113.35 59.35 105.0 33.3 M-24.7 -100.3 L-25.75 -100.9 -25.85 -100.95 -25.75 -101.35 -25.75 -101.4 -26.05 -102.3 -26.5 -103.6 Q-32.45 -119.55 -42.7 -119.45 -60.45 -116.7 -73.05 -92.05 L-74.1 -90.15 Q-76.95 -84.25 -79.15 -71.55 L-79.25 -71.0 Q-81.05 -60.75 -82.4 -46.15 -84.35 -25.85 -92.55 -4.75 L-93.8 -1.6 -95.75 2.8 Q-110.15 28.7 -138.1 38.2 -124.65 39.4 -113.5 32.4 -109.1 28.7 -105.65 23.55 -103.2 19.85 -101.2 15.4 M-26.05 -102.3 Q-27.9 -120.3 -51.25 -139.2 -31.4 -133.35 -25.5 -121.15 L-25.25 -120.3 Q-23.75 -115.3 -23.2 -109.65 M-79.25 -71.0 Q-82.25 -56.3 -83.9 -49.2 -85.55 -42.15 -87.45 -31.85 L-92.55 -4.75 M-93.8 -1.6 Q-96.75 -29.4 -88.35 -54.85 -79.95 -80.35 -74.1 -90.15 M-62.15 -4.15 L-62.65 2.9 -63.05 7.65 Q-66.75 54.95 -69.95 72.5 -55.15 41.25 -55.85 -9.2 -56.85 -31.25 -56.0 -45.65 -55.2 -60.1 -54.7 -63.85 -54.0 -71.45 -51.65 -78.8 -50.05 -84.85 -48.6 -87.4 -46.05 -91.75 -44.2 -92.2 M-62.3 -43.6 Q-61.9 -16.35 -73.15 -6.2 L-70.45 -23.9 M-47.25 -79.85 Q-50.4 -53.8 -46.95 -21.55 -56.65 -43.4 -54.7 -63.85 M-41.05 -103.0 Q-57.15 -103.5 -65.7 -72.9 M-63.05 7.65 Q-64.75 23.9 -67.7 36.35 -78.2 80.6 -66.45 116.5 -84.65 84.4 -76.2 50.8 L-77.8 56.25 Q-89.65 96.25 -68.55 139.95 -100.75 116.1 -105.5 88.55 -103.8 118.4 -96.3 129.45 -103.8 123.3 -108.35 111.25 -112.9 99.15 -111.7 81.8 L-110.55 64.4 Q-111.5 74.0 -118.8 82.45 -126.65 91.4 -133.4 91.7 -119.6 81.65 -116.2 58.05 -113.65 40.15 -105.65 23.55 M-76.2 50.8 L-73.75 42.6 M-110.2 58.7 L-110.3 60.4 -110.4 62.35 -110.45 63.25 -110.5 64.15 -110.55 64.4 M-105.5 88.55 Q-107.25 79.25 -106.1 72.9 M-93.85 18.75 Q-107.6 51.2 -94.9 77.5 -98.6 59.35 -88.15 33.3" fill="none" stroke="#000000" stroke-linecap="round" stroke-linejoin="round" stroke-width="2.0"/>
  </g>
</svg>
