<?xml version="1.0" encoding="UTF-8" standalone="no"?>
<svg xmlns:xlink="http://www.w3.org/1999/xlink" height="10.45px" width="20.3px" xmlns="http://www.w3.org/2000/svg">
  <g transform="matrix(1.0, 0.0, 0.0, 1.0, 1.05, 13.05)">
    <path d="M0.9 -10.9 Q1.1 -12.3 2.25 -12.3 4.9 -12.05 5.3 -9.85 6.5 -11.75 8.45 -11.45 10.1 -11.6 10.95 -9.85 11.4 -10.9 13.25 -11.2 14.35 -11.3 15.25 -9.9 16.45 -11.25 18.0 -10.15 18.95 -8.55 17.8 -7.4 19.25 -6.4 17.75 -4.65 16.2 -4.1 15.25 -5.45 14.95 -3.35 13.15 -3.35 11.45 -3.55 10.7 -4.25 9.25 -3.25 7.45 -3.6 5.2 -4.1 4.75 -5.45 L2.1 -5.2 1.5 -5.45 Q-0.45 -6.0 0.1 -8.05 -0.95 -9.95 0.9 -10.9 Z" fill="none" stroke="#000000" stroke-linecap="round" stroke-linejoin="round" stroke-width="1.5"/>
  </g>
</svg>
