<?xml version="1.0" encoding="UTF-8" standalone="no"?>
<svg xmlns:xlink="http://www.w3.org/1999/xlink" height="9.85px" width="10.35px" xmlns="http://www.w3.org/2000/svg">
  <g transform="matrix(1.0, 0.0, 0.0, 1.0, -8.15, 10.15)">
    <path d="M17.65 -6.45 L17.3 -7.3 Q17.9 -7.85 17.8 -9.3 16.45 -9.5 15.85 -8.9 L14.45 -9.55 13.75 -9.65 13.3 -9.65 12.9 -9.65 11.4 -9.25 9.3 -9.55 Q8.85 -8.8 9.4 -7.25 9.0 -6.6 8.9 -5.8 8.5 -4.95 8.8 -4.3 L9.1 -3.8 9.15 -3.55 Q9.45 -2.85 10.2 -2.1 11.5 -0.8 13.3 -0.8 L13.9 -0.8 14.45 -0.85 14.8 -1.0 16.45 -2.1 Q17.5 -3.1 17.75 -4.4 L18.0 -5.25 17.8 -6.15 17.65 -6.45" fill="none" stroke="#000000" stroke-linecap="round" stroke-linejoin="round" stroke-width="1.0"/>
    <path d="M8.9 -5.8 L9.0 -5.8 Q11.4 -6.65 14.6 -6.7 L17.65 -6.45 M17.3 -7.3 L16.45 -8.4 15.85 -8.9 M14.45 -9.55 L15.45 -8.3 15.8 -8.15 15.9 -7.75 15.8 -7.3 Q15.6 -7.15 15.4 -7.15 15.2 -7.15 15.05 -7.3 L14.9 -7.75 15.0 -8.05 Q14.55 -9.1 13.75 -9.65 M9.1 -3.8 Q11.7 -4.65 14.55 -4.8 17.3 -4.95 17.75 -4.4 M13.9 -0.8 Q14.7 -1.15 15.1 -2.6 L15.0 -2.65 14.8 -3.2 15.0 -3.65 15.45 -3.8 15.9 -3.65 16.15 -3.2 15.9 -2.65 15.6 -2.5 Q15.3 -1.45 14.8 -1.0" fill="none" stroke="#000000" stroke-linecap="round" stroke-linejoin="round" stroke-width="0.5"/>
  </g>
</svg>
