<?xml version="1.0" encoding="UTF-8" standalone="no"?>
<svg xmlns:xlink="http://www.w3.org/1999/xlink" height="32.5px" width="40.35px" xmlns="http://www.w3.org/2000/svg">
  <g transform="matrix(1.0, 0.0, 0.0, 1.0, 20.15, 16.25)">
    <path d="M10.8 -2.75 Q8.2 -4.1 8.4 -6.25 5.65 -6.9 5.25 -8.35 L5.2 -8.6 Q4.65 -8.8 4.25 -9.4 3.95 -7.3 2.15 -7.3 0.45 -7.5 -0.3 -8.2 -1.75 -7.2 -3.55 -7.55 -5.8 -8.05 -6.25 -9.4 L-7.35 -9.1 Q-6.65 -7.55 -7.4 -4.75 -5.55 -2.1 -6.55 0.1 -5.3 2.9 -6.8 4.9 -5.5 8.5 -7.45 10.1 -7.35 15.15 -10.75 14.6 -12.2 17.45 -15.05 15.45 -17.6 15.95 -18.1 12.85 -19.85 11.7 -18.9 8.55 -20.7 7.0 -19.05 3.9 -20.15 2.1 -20.15 0.75 -20.15 -0.6 -18.75 -2.15 -20.75 -5.45 -19.05 -7.15 -19.95 -10.15 -17.5 -11.1 -16.35 -14.45 -13.3 -12.8 -12.15 -14.05 -11.2 -13.8 -10.95 -14.4 -10.1 -14.85 -9.9 -16.25 -8.75 -16.25 -6.1 -16.0 -5.7 -13.8 -4.5 -15.7 -2.55 -15.4 -0.9 -15.55 -0.05 -13.8 0.4 -14.85 2.25 -15.15 3.35 -15.25 4.25 -13.85 5.45 -15.2 7.0 -14.1 7.85 -12.65 7.6 -11.65 8.9 -11.2 10.15 -10.0 11.95 -10.0 13.5 -8.75 15.0 -7.5 15.25 -5.7 17.75 -4.55 18.2 -2.5 18.7 -0.8 18.2 1.3 20.4 4.15 19.2 7.85 20.55 10.45 20.1 12.0 18.55 15.45 15.8 14.5 14.0 12.7 15.05 8.95 13.05 7.75 12.95 5.15 12.9 3.8 13.25 2.55 9.9 0.35 10.8 -2.75" fill="#ffffff" fill-rule="evenodd" stroke="none"/>
  </g>
</svg>
