<?xml version="1.0" encoding="UTF-8" standalone="no"?>
<svg xmlns:xlink="http://www.w3.org/1999/xlink" height="34.0px" width="41.85px" xmlns="http://www.w3.org/2000/svg">
  <g transform="matrix(1.0, 0.0, 0.0, 1.0, 9.9, 13.05)">
    <path d="M0.9 -10.9 L-0.2 -9.85 Q1.05 -9.55 1.95 -6.65 3.15 -6.2 3.65 -5.15 L4.75 -5.45 Q5.2 -4.1 7.45 -3.6 9.25 -3.25 10.7 -4.25 11.45 -3.55 13.15 -3.35 14.95 -3.35 15.25 -5.45 15.65 -4.85 16.2 -4.65 16.85 -4.35 17.75 -4.65 19.25 -6.4 18.5 -7.45 L18.6 -7.7 Q18.85 -8.7 18.0 -10.15 16.45 -11.25 15.25 -9.9 14.35 -11.3 13.25 -11.2 11.4 -10.9 10.95 -9.85 10.1 -11.6 8.45 -11.45 6.5 -11.75 5.3 -9.85 4.9 -12.05 2.25 -12.3 1.1 -12.3 0.9 -10.9 M3.65 -5.15 Q4.35 -3.6 3.6 -0.8 5.45 1.85 4.45 4.05 5.7 6.85 4.2 8.85 5.5 12.45 3.55 14.05 3.65 19.1 0.25 18.55 -1.2 21.4 -4.05 19.4 -6.6 19.9 -7.1 16.8 -8.85 15.65 -7.9 12.5 -9.7 10.95 -8.05 7.85 -9.15 6.05 -9.15 4.7 -9.15 3.35 -7.75 1.8 -9.75 -1.5 -8.05 -3.2 -8.95 -6.2 -6.5 -7.15 -5.35 -10.5 -2.3 -8.85 -1.15 -10.1 -0.2 -9.85 M16.2 -4.65 L16.25 -4.4 Q16.65 -2.95 19.4 -2.3 19.2 -0.15 21.8 1.2 20.9 4.3 24.25 6.5 23.9 7.75 23.95 9.1 24.05 11.7 26.05 12.9 25.0 16.65 26.8 18.45 29.55 19.4 31.1 15.95 31.55 14.4 30.2 11.8 31.4 8.1 29.2 5.25 29.7 3.15 29.2 1.45 28.75 -0.6 26.25 -1.75 26.0 -3.55 24.5 -4.8 22.95 -6.05 21.15 -6.05 19.9 -7.25 18.6 -7.7" fill="none" stroke="#000000" stroke-linecap="round" stroke-linejoin="round" stroke-width="1.5"/>
  </g>
</svg>
