<?xml version="1.0" encoding="UTF-8" standalone="no"?>
<svg xmlns:xlink="http://www.w3.org/1999/xlink" height="9.6px" width="15.1px" xmlns="http://www.w3.org/2000/svg">
  <g transform="matrix(1.0, 0.0, 0.0, 1.0, -1.4, 11.55)">
    <path d="M2.2 -11.05 Q5.15 -10.0 11.55 -10.05 14.35 -10.05 15.1 -10.6 15.55 -9.4 15.15 -8.5 14.5 -6.9 11.25 -6.8 4.65 -6.75 2.15 -8.85 1.65 -10.45 2.2 -11.05" fill="none" stroke="#000000" stroke-linecap="round" stroke-linejoin="round" stroke-width="1.0"/>
    <path d="M14.9 -4.85 Q13.3 -6.15 12.05 -6.3 10.8 -6.45 11.25 -5.45 L9.75 -5.4 Q9.3 -5.05 9.6 -4.4 7.2 -4.45 8.05 -2.95 8.75 -2.25 11.95 -2.4 15.2 -2.65 15.85 -3.2 16.6 -3.65 14.9 -4.85" fill="none" stroke="#000000" stroke-linecap="round" stroke-linejoin="round" stroke-width="0.8"/>
  </g>
</svg>
