<?xml version="1.0" encoding="UTF-8" standalone="no"?>
<svg xmlns:xlink="http://www.w3.org/1999/xlink" height="20.35px" width="45.05px" xmlns="http://www.w3.org/2000/svg">
  <g transform="matrix(1.0, 0.0, 0.0, 1.0, 12.5, 14.0)">
    <path d="M29.4 -4.25 Q26.45 -3.1 23.5 -3.25 M-6.3 -6.5 Q1.7 -2.5 15.65 -2.0" fill="none" stroke="#000000" stroke-linecap="round" stroke-linejoin="round" stroke-width="1.4000000000000001"/>
    <path d="M-11.5 -12.2 Q-8.7 -13.7 3.7 -12.4 22.25 -13.05 30.25 -10.35 31.4 -9.65 31.55 -7.85 31.7 -6.15 29.4 -4.25 L29.15 -4.05 Q30.25 -2.25 29.7 -0.8 24.95 5.0 15.1 5.35 -0.9 3.2 -10.0 -2.05 -10.5 -4.05 -8.35 -6.6 -11.7 -9.55 -11.5 -12.2" fill="none" stroke="#000000" stroke-linecap="round" stroke-linejoin="round" stroke-width="2.0"/>
  </g>
</svg>
