<?xml version="1.0" encoding="UTF-8" standalone="no"?>
<svg xmlns:xlink="http://www.w3.org/1999/xlink" height="10.2px" width="23.55px" xmlns="http://www.w3.org/2000/svg">
  <g transform="matrix(1.0, 0.0, 0.0, 1.0, 3.7, 12.45)">
    <path d="M7.5 -7.7 Q8.65 -7.15 7.55 -6.4 7.25 -6.1 7.05 -6.4 6.3 -7.35 7.5 -7.7 M3.15 -8.6 Q4.4 -8.05 3.3 -7.25 3.05 -7.05 2.85 -7.35 2.15 -8.15 3.15 -8.6 M14.9 -6.55 Q14.05 -7.35 15.0 -7.8 16.4 -7.3 15.3 -6.5 L14.9 -6.55" fill="#000000" fill-rule="evenodd" stroke="none"/>
    <path d="M9.4 -3.95 L9.45 -5.15 9.8 -5.15 9.8 -8.05 9.45 -8.05 9.45 -9.45 Q2.15 -10.15 -1.65 -11.85 -3.5 -9.65 -2.95 -6.95 0.85 -4.65 9.4 -3.95 L9.3 -2.85 14.15 -3.0 14.1 -3.8 13.85 -9.55 13.8 -10.05 9.45 -10.35 9.45 -9.45 M13.85 -9.55 L14.2 -9.65 Q16.55 -10.2 17.4 -11.2 19.75 -9.4 19.1 -6.4 18.45 -4.95 15.15 -4.2 14.7 -3.95 14.1 -3.8 M14.2 -9.65 Q17.4 -10.2 17.4 -7.6 17.4 -5.35 15.15 -4.2" fill="none" stroke="#000000" stroke-linecap="round" stroke-linejoin="round" stroke-width="1.2000000000000002"/>
    <path d="M9.8 -5.15 L12.15 -5.2 12.15 -8.05 9.8 -8.05" fill="none" stroke="#000000" stroke-linecap="round" stroke-linejoin="round" stroke-width="1.0"/>
  </g>
</svg>
