<?xml version="1.0" encoding="UTF-8" standalone="no"?>
<svg xmlns:xlink="http://www.w3.org/1999/xlink" height="53.85px" width="123.45px" xmlns="http://www.w3.org/2000/svg">
  <g transform="matrix(1.0, 0.0, 0.0, 1.0, 22.1, 61.7)">
    <path d="M80.2 -50.4 Q81.5 -54.15 80.5 -57.3 80.05 -58.65 79.2 -59.75 L75.3 -60.65 Q71.55 -61.35 66.8 -51.25 59.6 -45.75 63.85 -39.8 68.25 -33.9 78.0 -38.5 76.2 -41.1 75.9 -43.2 L76.0 -45.65 75.5 -46.55 78.65 -49.2 80.2 -50.4 81.15 -51.0 81.25 -51.05 81.2 -51.45 81.2 -51.5 81.45 -52.4 M7.3 -46.55 L3.9 -49.2 2.2 -50.4 Q0.9 -54.15 2.15 -57.3 2.7 -58.65 3.7 -59.75 L8.1 -60.65 Q12.35 -61.35 17.3 -51.25 25.2 -45.75 20.1 -39.8 14.95 -33.9 4.2 -38.5 L2.6 -37.35 Q1.8 -16.65 -4.45 -8.85 -10.65 -12.1 -20.6 -9.3 -16.9 -12.75 -13.8 -16.25 -18.5 -18.6 -18.85 -22.25 -12.05 -20.55 -3.8 -31.2 L-2.5 -34.1 Q-5.45 -32.4 -8.8 -31.1 L-10.2 -30.6 Q-18.05 -27.45 -20.35 -29.95 L-20.9 -30.85 -21.0 -31.6 -21.1 -32.15 M4.2 -38.5 Q6.3 -41.1 6.75 -43.2 L6.75 -45.65 3.6 -45.0 1.55 -44.65 0.85 -44.55 -0.85 -44.3 Q-5.6 -44.0 -9.05 -47.5 -9.45 -48.0 -9.9 -48.05 M-2.5 -34.1 Q-1.4 -34.65 -0.35 -35.3 L0.9 -36.0 2.6 -37.35 M83.75 -34.1 L81.9 -35.3 80.85 -36.0 79.45 -37.35 79.4 -37.35 Q79.35 -16.65 84.6 -8.85 90.3 -12.1 99.05 -9.3 95.85 -12.75 93.25 -16.25 87.95 -23.5 84.85 -31.2 L83.75 -34.1 Q86.35 -32.4 89.3 -31.1 89.85 -30.8 90.55 -30.6 97.4 -27.45 99.5 -29.95 L100.05 -30.85 100.2 -31.6 100.3 -32.15 100.35 -33.45 99.8 -35.85 99.3 -37.6 97.25 -42.3 96.3 -44.3 Q95.85 -49.05 94.85 -53.1 L93.6 -57.3 Q91.6 -59.6 85.75 -54.65 L81.25 -51.05 M79.4 -37.35 L78.0 -38.5 M76.0 -45.65 L78.75 -45.0 80.55 -44.65 81.2 -44.55 82.6 -44.35 82.7 -44.3 Q86.9 -44.0 90.1 -47.5 L90.85 -48.05 M7.4 -46.95 Q8.95 -49.2 5.75 -54.65 M75.45 -46.95 Q74.15 -49.2 77.2 -54.65 M84.85 -31.2 Q91.8 -20.55 97.9 -22.25 97.45 -18.6 93.25 -16.25 M1.05 -51.05 L-3.85 -54.65 Q-10.2 -59.6 -12.6 -57.3 L-14.15 -53.1 Q-15.45 -49.05 -16.1 -44.3 L-17.3 -42.3 -19.8 -37.6 -20.4 -35.85 -21.1 -33.45 M-3.8 -31.2 Q-7.6 -23.5 -13.8 -16.25" fill="none" stroke="#000000" stroke-linecap="round" stroke-linejoin="round" stroke-width="2.0"/>
  </g>
</svg>
