<?xml version="1.0" encoding="UTF-8" standalone="no"?>
<svg xmlns:xlink="http://www.w3.org/1999/xlink" height="14.35px" width="27.8px" xmlns="http://www.w3.org/2000/svg">
  <g transform="matrix(1.0, 0.0, 0.0, 1.0, 3.35, 11.15)">
    <path d="M9.1 -4.35 L9.1 -4.6 Q9.1 -5.7 9.9 -6.45 L10.3 -6.8 7.45 -8.8 Q5.05 -10.05 2.25 -10.1 L-0.55 -9.85 Q-3.1 -8.55 -2.0 -5.25 L-1.8 -4.9 -1.05 -3.55 Q-1.55 -1.95 -1.4 -1.05 -1.4 -0.2 -0.6 1.05 0.1 2.25 2.05 2.2 4.0 2.1 5.15 1.4 L7.1 0.15 10.15 -2.5 9.9 -2.7 Q9.2 -3.4 9.1 -4.35 7.65 -4.35 6.25 -5.1 M16.25 -5.1 Q15.9 -4.75 14.4 -4.55 L14.4 -4.5 Q14.35 -3.45 13.65 -2.65 L13.35 -2.4 Q16.15 0.0 17.8 0.65 L17.85 0.65 18.2 0.75 Q20.75 1.55 22.35 -0.1 23.45 -1.15 23.45 -2.15 L23.2 -3.1 22.45 -4.65 Q22.5 -5.4 22.7 -5.75 23.0 -6.65 22.8 -8.5 22.45 -10.3 19.5 -10.15 16.55 -10.05 12.95 -6.95 L13.6 -6.45 Q14.35 -5.7 14.4 -4.65 L14.4 -4.55 M10.3 -6.8 Q10.95 -7.35 11.7 -7.2 L12.95 -6.95 M13.35 -2.4 L11.9 -2.0 Q11.05 -2.0 10.15 -2.5 M17.85 0.65 L17.95 0.7 18.2 0.75" fill="none" stroke="#000000" stroke-linecap="round" stroke-linejoin="round" stroke-width="2.0"/>
  </g>
</svg>
