<?xml version="1.0" encoding="UTF-8" standalone="no"?>
<svg xmlns:xlink="http://www.w3.org/1999/xlink" height="32.7px" width="44.7px" xmlns="http://www.w3.org/2000/svg">
  <g transform="matrix(1.0, 0.0, 0.0, 1.0, 12.75, 13.65)">
    <path d="M10.25 -5.65 Q10.85 -6.45 12.05 -6.5 L12.1 -6.5 Q13.65 -6.55 14.0 -5.85 19.2 -11.35 25.9 -11.85 28.05 -11.9 29.15 -10.55 L29.35 -10.25 Q30.1 -8.95 30.3 -6.4 L30.3 -6.0 30.25 -4.0 30.2 -3.85 30.15 -3.75 30.1 -3.65 29.75 -1.8 29.8 -1.5 Q31.55 2.3 30.6 6.25 29.05 7.8 24.35 6.8 L23.55 6.5 23.65 6.75 24.3 8.2 Q25.95 11.7 29.15 15.4 21.25 13.45 17.05 17.9 14.65 12.25 13.35 3.85 L13.1 2.0 12.95 0.65 12.95 0.55 12.9 0.4 12.6 3.6 12.0 10.75 Q11.65 15.55 9.65 18.05 6.9 16.65 3.35 16.6 L-2.9 17.0 Q-0.25 13.85 0.4 9.7 L0.55 8.45 -4.4 9.25 Q-9.05 8.55 -9.55 3.2 -9.8 1.05 -9.55 -0.95 -11.65 -5.55 -11.75 -8.5 -11.85 -9.95 -11.3 -10.95 -10.85 -11.9 -9.85 -12.55 L-7.25 -12.65 Q2.35 -12.8 10.25 -5.65 L10.25 -5.6 Q9.65 -2.9 11.1 -0.2 11.5 0.3 12.9 0.4 L14.3 -0.05 Q15.1 -3.0 14.05 -5.8 L14.0 -5.85 M11.1 -0.2 L11.1 -0.15 11.1 -0.2 M29.75 -1.8 L29.7 -1.75 29.8 -1.5 M0.55 8.45 L0.7 8.4 0.95 8.35 1.4 8.25 1.7 8.15 2.25 7.95 3.15 7.55 3.75 7.25 4.5 6.85 7.85 4.3 Q10.9 1.75 11.1 -0.15 M14.3 -0.05 Q18.45 4.7 23.55 6.5" fill="none" stroke="#000000" stroke-linecap="round" stroke-linejoin="round" stroke-width="2.0"/>
  </g>
</svg>
