<?xml version="1.0" encoding="UTF-8" standalone="no"?>
<svg xmlns:xlink="http://www.w3.org/1999/xlink" height="39.85px" width="34.5px" xmlns="http://www.w3.org/2000/svg">
  <g transform="matrix(1.0, 0.0, 0.0, 1.0, 9.3, 10.75)">
    <path d="M19.9 -7.1 L20.35 -6.8 21.65 -5.85 Q22.0 -2.95 20.65 -0.45 19.65 1.45 17.6 3.15 L18.0 0.95 18.0 0.9 18.0 0.75 18.0 0.85 17.75 0.45 Q17.15 -0.4 15.65 -0.2 13.65 0.05 13.15 1.15 L12.25 0.35 Q12.95 -1.3 15.0 -1.45 17.05 -1.65 18.0 -0.8 L18.0 -0.1 18.0 0.7 18.0 0.75 18.0 0.85 18.0 0.9 18.75 0.15 Q20.75 -2.45 19.9 -7.1 M-4.95 -7.05 L-4.55 -7.2 -4.4 -7.3 -3.5 -8.1 Q0.45 -2.6 12.25 1.25 L13.75 1.75 14.5 2.65 15.2 3.55 5.55 0.35 Q-2.3 -3.1 -5.3 -6.9 L-4.95 -7.05" fill="#f3f4ff" fill-rule="evenodd" stroke="none"/>
    <path d="M-3.5 -8.1 Q-1.55 -9.5 2.25 -10.0 5.0 -6.3 11.2 -0.8 12.6 -2.95 14.7 -3.0 16.8 -3.05 17.7 -2.35 L15.4 -8.05 Q17.85 -8.15 19.9 -7.1 L20.35 -6.8 21.65 -5.85 23.45 -3.9 22.85 -0.85 Q23.8 5.45 19.0 7.7 L18.9 10.35 Q23.7 12.6 24.3 18.5 24.9 24.35 23.35 27.6 21.2 23.05 19.7 21.2 18.2 19.3 17.65 18.1 L16.8 20.8 Q15.95 22.65 14.55 28.35 10.7 24.2 10.85 19.4 11.0 14.6 15.3 10.6 L14.75 8.4 Q5.65 7.6 2.25 1.9 -4.45 -0.85 -8.55 -4.8 -7.75 -5.9 -5.35 -6.9 L-4.95 -7.05 -4.55 -7.2 -4.4 -7.3 -3.5 -8.1 M13.75 1.75 L13.2 1.2 13.15 1.15 12.25 0.35 Q11.65 -0.15 11.2 -0.8 M18.0 -0.1 L18.0 -0.8 17.7 -2.35 M18.0 -0.1 L18.0 0.7 M18.0 0.75 L18.0 0.85 M17.6 3.15 L17.5 3.4 16.4 5.8 17.25 5.4 Q20.4 3.75 21.95 1.1 L22.85 -0.85 M17.6 3.15 L18.0 0.95 18.0 0.9 M2.25 1.9 L5.35 3.05 Q9.95 4.6 15.6 5.65 L16.25 5.8 16.4 5.8 16.1 5.15 15.2 3.55 13.75 1.75 M15.3 10.6 L17.1 10.5 17.55 10.45 18.9 10.35 M17.25 7.55 L19.0 7.7 M16.65 7.65 L17.25 7.55 M14.75 8.4 Q15.4 7.85 16.65 7.65 M17.1 10.5 Q18.05 14.1 17.65 18.1" fill="none" stroke="#000000" stroke-linecap="round" stroke-linejoin="round" stroke-width="1.5"/>
    <path d="M17.25 7.55 L17.9 6.0 M16.65 7.65 L16.25 5.8 M15.8 7.55 L14.2 6.75 M16.25 11.1 Q16.15 13.7 14.65 15.7 M17.55 10.45 Q19.6 12.7 20.45 14.75" fill="none" stroke="#000000" stroke-linecap="round" stroke-linejoin="round" stroke-width="1.0"/>
  </g>
</svg>
