<?xml version="1.0" encoding="UTF-8" standalone="no"?>
<svg xmlns:xlink="http://www.w3.org/1999/xlink" height="31.35px" width="36.1px" xmlns="http://www.w3.org/2000/svg">
  <g transform="matrix(1.0, 0.0, 0.0, 1.0, 9.3, 10.75)">
    <path d="M19.9 -7.1 L20.35 -6.8 21.65 -5.85 Q22.25 -0.75 17.6 3.15 L18.0 0.95 18.0 0.9 18.0 0.75 18.0 0.85 Q17.5 -0.45 15.65 -0.2 13.65 0.05 13.15 1.15 L12.25 0.35 Q12.95 -1.3 15.0 -1.45 17.05 -1.65 18.0 -0.8 L18.0 -0.1 18.0 0.7 18.0 0.75 18.0 0.85 18.0 0.9 Q20.9 -1.75 19.9 -7.1 M-4.95 -7.05 L-4.55 -7.2 -4.4 -7.3 -3.5 -8.1 Q0.7 -2.25 13.75 1.75 L14.5 2.65 15.2 3.55 5.55 0.35 Q-2.3 -3.1 -5.3 -6.9 L-4.95 -7.05" fill="#f3f4ff" fill-rule="evenodd" stroke="none"/>
    <path d="M-3.5 -8.1 Q-1.55 -9.5 2.25 -10.0 5.0 -6.3 11.2 -0.8 12.6 -2.95 14.7 -3.0 16.8 -3.05 17.7 -2.35 L15.4 -8.05 Q17.85 -8.15 19.9 -7.1 L20.35 -6.8 21.65 -5.85 23.45 -3.9 Q23.2 -1.05 21.95 1.1 20.75 3.15 18.65 4.6 L18.75 4.6 18.85 4.9 Q23.25 4.35 26.05 6.8 26.15 10.35 23.4 11.2 L21.1 9.95 Q23.7 14.4 24.65 18.9 L22.5 17.9 21.0 19.35 Q20.35 13.85 18.3 8.4 16.9 9.15 15.3 8.85 13.75 14.8 14.35 19.55 L12.05 18.2 9.7 19.85 Q9.7 15.25 12.25 10.95 10.5 12.35 9.45 12.65 6.05 11.95 5.2 7.8 6.65 5.65 13.0 5.15 L5.35 3.05 Q-3.5 0.05 -8.55 -4.8 -7.75 -5.9 -5.35 -6.9 L-4.95 -7.05 -4.55 -7.2 -4.4 -7.3 -3.5 -8.1 M13.75 1.75 L13.15 1.15 12.25 0.35 Q11.65 -0.15 11.2 -0.8 M18.0 -0.1 L18.0 -0.8 17.7 -2.35 M18.0 -0.1 L18.0 0.7 M18.0 0.75 L18.0 0.85 M17.6 3.15 L18.0 0.95 18.0 0.9 M13.0 5.15 L14.0 5.35 15.6 5.65 16.4 5.8 15.9 4.7 15.2 3.55 13.75 1.75 M18.65 4.6 L17.25 5.4 16.4 5.8 17.05 4.55 17.5 3.4 17.6 3.15 M12.25 10.95 L12.45 10.8 14.6 8.65 14.55 8.65 Q13.45 7.35 14.0 5.35 M18.85 4.9 Q19.7 6.95 18.7 8.15 L18.3 8.4 M15.3 8.85 L14.6 8.65 M21.1 9.95 L19.0 8.25" fill="none" stroke="#000000" stroke-linecap="round" stroke-linejoin="round" stroke-width="1.5"/>
  </g>
</svg>
