<?xml version="1.0" encoding="UTF-8" standalone="no"?>
<svg xmlns:xlink="http://www.w3.org/1999/xlink" height="17.6px" width="35.7px" xmlns="http://www.w3.org/2000/svg">
  <g transform="matrix(1.0, 0.0, 0.0, 1.0, 7.1, 11.25)">
    <path d="M12.15 -0.7 L11.25 -0.9 Q10.65 -1.15 10.15 -1.65 L9.85 -1.95 9.7 -2.2 Q4.55 -0.3 2.65 2.65 0.65 5.55 1.25 5.65 L2.05 5.65 Q9.1 5.45 12.1 -0.6 L12.15 -0.7 12.6 -0.65 13.4 -0.75 Q14.3 -0.95 15.1 -1.65 L15.95 -2.9 16.15 -3.45 16.2 -4.1 Q16.2 -5.45 15.35 -6.4 L15.25 -6.5 15.0 -6.7 14.85 -6.85 Q13.95 -7.5 12.8 -7.5 11.45 -7.5 10.45 -6.65 L10.3 -6.5 Q9.25 -5.55 9.2 -4.1 9.15 -3.35 9.45 -2.65 L9.55 -2.5 9.7 -2.2 M13.4 -0.75 L13.6 -0.55 14.85 0.8 Q15.65 1.55 18.0 2.7 L18.5 2.95 18.6 2.95 Q20.85 3.85 24.7 3.55 24.3 2.0 23.35 0.85 21.15 -1.9 16.2 -2.85 L15.95 -2.9 M14.85 -6.85 Q17.8 -10.25 27.9 -10.55 L26.65 -7.95 Q24.5 -4.6 21.25 -3.9 17.75 -3.05 16.35 -3.4 L16.15 -3.45 M10.45 -6.65 Q5.2 -9.6 0.6 -9.6 -3.05 -9.6 -6.4 -7.8 -4.3 -5.55 -1.0 -4.3 3.25 -2.65 9.45 -2.65" fill="none" stroke="#000000" stroke-linecap="round" stroke-linejoin="round" stroke-width="1.4000000000000001"/>
  </g>
</svg>
