<?xml version="1.0" encoding="UTF-8" standalone="no"?>
<svg xmlns:xlink="http://www.w3.org/1999/xlink" height="44.2px" width="14.45px" xmlns="http://www.w3.org/2000/svg">
  <g transform="matrix(1.0, 0.0, 0.0, 1.0, 7.2, 22.1)">
    <path d="M-2.7 -16.2 L-7.2 -19.95 -5.3 -21.75 -0.4 -17.35 Q0.6 -17.55 1.65 -17.35 L2.7 -22.1 5.55 -19.55 3.25 -16.8 3.45 -16.7 Q4.45 -13.05 3.7 -10.3 7.25 5.85 7.25 13.95 5.9 18.05 3.1 22.1 -1.2 18.45 -3.1 14.8 -3.75 10.7 -2.3 4.1 -0.95 -2.2 -0.9 -10.0 L-1.15 -10.05 Q-3.55 -13.6 -3.0 -16.0 L-2.7 -16.2" fill="#21cd28" fill-rule="evenodd" stroke="none"/>
  </g>
</svg>
