<?xml version="1.0" encoding="UTF-8" standalone="no"?>
<svg xmlns:xlink="http://www.w3.org/1999/xlink" height="45.95px" width="16.2px" xmlns="http://www.w3.org/2000/svg">
  <g transform="matrix(1.0, 0.0, 0.0, 1.0, -5.2, 5.9)">
    <path d="M12.75 -0.4 Q13.75 -0.6 14.8 -0.4 L16.4 0.15 16.6 0.25 Q17.6 3.9 16.85 6.65 20.4 22.8 20.4 30.9 19.05 35.0 16.25 39.05 11.95 35.4 10.05 31.75 9.4 27.65 10.85 21.05 12.2 14.75 12.25 6.95 L12.0 6.9 Q9.6 3.35 10.15 0.95 L10.45 0.75 Q11.55 -0.15 12.75 -0.4 M16.85 6.65 Q15.25 7.7 12.25 6.95" fill="none" stroke="#000000" stroke-linecap="round" stroke-linejoin="round" stroke-width="2.0"/>
    <path d="M14.8 -0.4 L15.85 -5.15 18.7 -2.6 16.4 0.15 16.15 0.4 M10.45 0.75 L5.95 -3.0 7.85 -4.8 12.75 -0.4 Z" fill="none" stroke="#000000" stroke-linecap="round" stroke-linejoin="round" stroke-width="1.5"/>
  </g>
</svg>
