<?xml version="1.0" encoding="UTF-8" standalone="no"?>
<svg xmlns:xlink="http://www.w3.org/1999/xlink" height="55.05px" width="16.5px" xmlns="http://www.w3.org/2000/svg">
  <g transform="matrix(1.0, 0.0, 0.0, 1.0, 8.25, 27.5)">
    <path d="M-2.55 -18.0 L-8.25 -25.2 -7.55 -27.5 -0.05 -18.9 0.95 -18.85 2.6 -26.9 4.2 -25.0 2.85 -18.3 Q3.05 -18.2 3.3 -18.05 4.2 -14.25 3.55 -11.5 6.75 5.15 8.25 18.45 6.85 24.7 3.65 27.55 -0.6 24.4 -2.6 18.15 -2.35 11.85 -1.45 4.55 -0.5 -2.75 -0.65 -11.15 L-0.85 -11.2 Q-3.0 -14.9 -2.9 -17.8 L-2.55 -18.0" fill="#21cd28" fill-rule="evenodd" stroke="none"/>
  </g>
</svg>
