<?xml version="1.0" encoding="UTF-8" standalone="no"?>
<svg xmlns:xlink="http://www.w3.org/1999/xlink" height="56.8px" width="18.25px" xmlns="http://www.w3.org/2000/svg">
  <g transform="matrix(1.0, 0.0, 0.0, 1.0, -4.9, 5.35)">
    <path d="M14.85 4.05 L16.5 -4.0 18.1 -2.1 16.75 4.6 M11.35 4.9 L5.65 -2.3 6.35 -4.6 13.85 4.0" fill="none" stroke="#000000" stroke-linecap="round" stroke-linejoin="round" stroke-width="1.5"/>
    <path d="M16.75 4.6 L17.2 4.85 Q18.1 8.65 17.45 11.4 20.65 28.05 22.15 41.35 20.75 47.6 17.55 50.45 13.3 47.3 11.3 41.05 11.55 34.75 12.45 27.45 13.4 20.15 13.25 11.75 L13.05 11.7 Q10.9 8.0 11.0 5.1 L11.35 4.9 Q12.6 4.1 13.85 4.0 L14.85 4.05 Q15.8 4.15 16.75 4.6 M17.45 11.4 Q16.0 12.45 13.25 11.75" fill="none" stroke="#000000" stroke-linecap="round" stroke-linejoin="round" stroke-width="2.0"/>
  </g>
</svg>
