<?xml version="1.0" encoding="UTF-8" standalone="no"?>
<svg xmlns:xlink="http://www.w3.org/1999/xlink" height="37.7px" width="16.95px" xmlns="http://www.w3.org/2000/svg">
  <g transform="matrix(1.0, 0.0, 0.0, 1.0, -5.7, 6.45)">
    <path d="M12.2 -0.55 L13.2 -0.7 14.35 -0.65 Q15.4 -0.45 16.1 0.35 L16.45 0.9 16.9 3.25 Q17.1 5.65 16.1 6.65 L16.05 6.7 Q18.15 9.75 19.5 14.9 L21.65 21.65 Q21.7 27.5 20.05 30.25 16.15 28.55 13.2 23.7 L12.15 17.0 12.1 16.7 12.05 16.15 Q11.5 10.9 12.35 6.85 L12.3 6.85 Q10.55 6.1 9.75 3.0 9.55 1.9 9.7 0.8 L10.0 0.55 Q10.85 -0.3 12.2 -0.55 M12.35 6.85 L16.05 6.65 16.1 6.65 M16.05 6.65 L16.05 6.7" fill="none" stroke="#000000" stroke-linecap="round" stroke-linejoin="round" stroke-width="2.0"/>
    <path d="M14.35 -0.65 Q14.45 -2.9 15.85 -5.7 L17.65 -2.75 16.1 0.35 M10.0 0.55 L6.45 -3.2 7.6 -4.75 Q10.1 -3.4 12.2 -0.55 Z" fill="none" stroke="#000000" stroke-linecap="round" stroke-linejoin="round" stroke-width="1.5"/>
  </g>
</svg>
