<?xml version="1.0" encoding="UTF-8" standalone="no"?>
<svg xmlns:xlink="http://www.w3.org/1999/xlink" height="32.95px" width="14.0px" xmlns="http://www.w3.org/2000/svg">
  <g transform="matrix(1.0, 0.0, 0.0, 1.0, -8.55, 4.75)">
    <path d="M12.25 3.8 L12.2 3.8 Q10.45 3.05 9.65 -0.05 9.45 -1.15 9.6 -2.25 10.8 -3.65 13.1 -3.75 15.35 -3.9 16.35 -2.15 L16.8 0.2 Q17.0 2.6 16.0 3.6 L15.95 3.65 Q18.05 6.7 19.4 11.85 L21.55 18.6 Q21.6 24.45 19.95 27.2 16.05 25.5 13.1 20.65 L12.05 13.95 12.0 13.65 11.95 13.1 Q11.4 7.85 12.25 3.8 L15.95 3.6 16.0 3.6 M15.95 3.6 L15.95 3.65" fill="none" stroke="#000000" stroke-linecap="round" stroke-linejoin="round" stroke-width="2.0"/>
  </g>
</svg>
