<?xml version="1.0" encoding="UTF-8" standalone="no"?>
<svg xmlns:xlink="http://www.w3.org/1999/xlink" height="39.25px" width="24.4px" xmlns="http://www.w3.org/2000/svg">
  <g transform="matrix(1.0, 0.0, 0.0, 1.0, 12.2, 19.65)">
    <path d="M1.7 -19.15 L3.3 -19.6 Q4.5 -19.85 7.35 -18.8 10.1 -17.75 11.85 -16.05 L12.2 -15.7 Q10.5 -8.5 7.65 -1.8 L6.25 3.65 6.05 4.45 Q5.05 8.65 5.35 10.15 L5.85 13.95 Q6.05 16.2 3.55 16.7 1.05 17.2 0.7 14.0 0.5 16.3 -0.6 17.65 -1.75 18.95 -4.6 19.5 -7.55 20.0 -9.65 18.45 -11.85 16.85 -12.2 13.65 -12.5 10.8 -8.35 3.65 L-6.9 1.15 1.25 -18.35 1.7 -19.15" fill="#fff1e0" fill-rule="evenodd" stroke="none"/>
  </g>
</svg>
