<?xml version="1.0" encoding="UTF-8" standalone="no"?>
<svg xmlns:xlink="http://www.w3.org/1999/xlink" height="31.35px" width="23.9px" xmlns="http://www.w3.org/2000/svg">
  <g transform="matrix(1.0, 0.0, 0.0, 1.0, 10.4, 20.5)">
    <path d="M8.55 -2.8 Q8.2 -0.7 8.4 0.3 L8.9 4.15 Q9.1 6.4 6.6 6.9 4.05 7.4 3.7 4.2 3.5 6.5 2.4 7.85 1.25 9.2 -1.65 9.75 -4.6 10.25 -6.75 8.65 -8.95 7.05 -9.35 4.35 -9.75 1.6 -7.35 -3.0 L-5.65 -6.35 -2.3 -13.85 Q-2.4 -17.7 0.15 -19.5 4.05 -16.5 12.4 -14.45 12.95 -10.45 10.25 -8.4 L8.55 -2.8" fill="none" stroke="#000000" stroke-linecap="round" stroke-linejoin="round" stroke-width="2.0"/>
    <path d="M10.25 -8.4 Q0.2 -10.2 -2.3 -13.85" fill="none" stroke="#000000" stroke-linecap="round" stroke-linejoin="round" stroke-width="1.0"/>
  </g>
</svg>
