<?xml version="1.0" encoding="UTF-8" standalone="no"?>
<svg xmlns:xlink="http://www.w3.org/1999/xlink" height="37.65px" width="25.95px" xmlns="http://www.w3.org/2000/svg">
  <g transform="matrix(1.0, 0.0, 0.0, 1.0, 10.4, 26.8)">
    <path d="M14.55 -22.15 L13.35 -18.1 11.2 -12.1 8.55 -2.8 Q8.2 -0.7 8.4 0.3 L8.9 4.15 Q9.1 6.4 6.6 6.9 4.05 7.4 3.7 4.2 3.5 6.5 2.4 7.85 1.25 9.2 -1.65 9.75 -4.6 10.25 -6.75 8.65 -8.95 7.05 -9.35 4.35 -9.75 1.6 -7.35 -3.0 L-5.0 -7.0 1.45 -22.05 2.95 -25.8 Q3.6 -24.55 8.35 -23.05 13.1 -21.55 14.55 -22.15" fill="none" stroke="#000000" stroke-linecap="round" stroke-linejoin="round" stroke-width="2.0"/>
    <path d="M13.35 -18.1 Q5.0 -18.85 1.45 -22.05" fill="none" stroke="#000000" stroke-linecap="round" stroke-linejoin="round" stroke-width="1.0"/>
  </g>
</svg>
