<?xml version="1.0" encoding="UTF-8" standalone="no"?>
<svg xmlns:xlink="http://www.w3.org/1999/xlink" height="39.45px" width="26.35px" xmlns="http://www.w3.org/2000/svg">
  <g transform="matrix(1.0, 0.0, 0.0, 1.0, 10.4, 28.6)">
    <path d="M14.95 -24.55 Q14.25 -20.9 13.55 -18.75 L13.35 -18.1 11.75 -13.55 11.2 -12.1 8.55 -2.8 Q8.25 -1.1 8.35 -0.1 L8.4 0.3 8.65 1.65 8.9 4.15 Q9.1 6.4 6.6 6.9 4.05 7.4 3.7 4.2 L3.5 5.55 Q3.15 6.9 2.4 7.85 1.25 9.2 -1.65 9.75 -4.6 10.25 -6.75 8.65 -8.95 7.05 -9.35 4.35 -9.55 2.95 -9.0 1.1 -8.55 -0.75 -7.35 -3.0 L-7.0 -3.65 -5.0 -7.0 3.5 -27.6 Q3.9 -26.05 8.65 -24.6 13.4 -23.15 14.95 -24.55 Z" fill="none" stroke="#000000" stroke-linecap="round" stroke-linejoin="round" stroke-width="2.0"/>
  </g>
</svg>
