<?xml version="1.0" encoding="UTF-8" standalone="no"?>
<svg xmlns:xlink="http://www.w3.org/1999/xlink" height="37.05px" width="22.1px" xmlns="http://www.w3.org/2000/svg">
  <g transform="matrix(1.0, 0.0, 0.0, 1.0, 6.55, 26.8)">
    <path d="M14.55 -22.15 L13.35 -18.1 11.2 -12.1 Q9.8 -7.95 9.1 -5.2 8.35 -2.3 8.35 -0.95 6.05 -3.3 3.05 -0.65 -3.75 5.0 -5.45 9.25 -5.7 6.3 -5.15 0.65 -4.65 -5.05 -5.0 -7.0 L-3.35 -10.8 1.45 -22.05 2.95 -25.8 Q3.6 -24.55 8.35 -23.05 13.1 -21.55 14.55 -22.15" fill="none" stroke="#000000" stroke-linecap="round" stroke-linejoin="round" stroke-width="2.0"/>
    <path d="M13.35 -18.1 Q5.0 -18.85 1.45 -22.05 M-3.35 -10.8 Q-2.0 -6.35 -1.9 -0.95 3.65 -5.8 9.1 -5.2" fill="none" stroke="#000000" stroke-linecap="round" stroke-linejoin="round" stroke-width="1.0"/>
  </g>
</svg>
