<?xml version="1.0" encoding="UTF-8" standalone="no"?>
<svg xmlns:xlink="http://www.w3.org/1999/xlink" height="21.7px" width="21.1px" xmlns="http://www.w3.org/2000/svg">
  <g transform="matrix(1.0, 0.0, 0.0, 1.0, 9.6, 14.8)">
    <path d="M-2.4 -13.8 Q2.5 -10.55 10.45 -10.1 10.65 -8.5 10.15 -6.4 9.6 -4.3 8.8 -4.0 L8.8 -4.45 Q8.2 -0.7 8.4 0.3 L8.5 0.85 Q5.1 2.05 3.7 4.2 L3.4 5.9 Q-5.65 4.5 -8.6 -0.15 L-7.35 -3.0 -5.6 -6.4 -4.3 -9.1 -3.75 -11.1 -2.4 -13.8" fill="none" stroke="#000000" stroke-linecap="round" stroke-linejoin="round" stroke-width="2.0"/>
    <path d="M1.95 -1.6 Q1.95 -0.35 1.0 0.55 0.1 1.45 -1.2 1.45 -2.45 1.45 -3.35 0.55 -4.25 -0.35 -4.25 -1.65 -4.25 -2.9 -3.35 -3.8 -2.45 -4.7 -1.2 -4.7 0.1 -4.7 1.0 -3.8 1.95 -2.9 1.95 -1.6 M-4.3 -9.1 Q-0.25 -5.75 8.8 -4.45" fill="none" stroke="#000000" stroke-linecap="round" stroke-linejoin="round" stroke-width="1.5"/>
  </g>
</svg>
