<?xml version="1.0" encoding="UTF-8" standalone="no"?>
<svg xmlns:xlink="http://www.w3.org/1999/xlink" height="46.4px" width="28.6px" xmlns="http://www.w3.org/2000/svg">
  <g transform="matrix(1.0, 0.0, 0.0, 1.0, 17.1, 14.8)">
    <path d="M3.25 5.1 L-4.25 25.85 -13.9 30.9 -16.4 21.3 -8.25 0.4 Q-6.45 2.75 -2.85 4.0 -0.9 4.65 1.6 4.95 L3.25 5.1 M-10.2 22.0 L-2.85 4.0 -10.2 22.0" fill="url(#gradient0)" fill-rule="evenodd" stroke="none"/>
    <path d="M-8.25 0.4 L-8.6 -0.15 -7.35 -3.0 -6.4 -4.85 -5.6 -6.4 -4.3 -9.1 -3.75 -11.1 -2.4 -13.8 Q2.5 -10.55 10.45 -10.1 10.65 -8.5 10.15 -6.4 9.6 -4.3 8.8 -4.0 L8.8 -4.45 Q8.2 -0.7 8.4 0.3 L8.5 0.85 Q6.35 1.6 5.05 2.75 L5.05 4.95 3.25 5.1 1.6 4.95 Q-0.9 4.65 -2.85 4.0 -6.45 2.75 -8.25 0.4 M5.05 2.75 L5.05 2.65 5.05 2.7 5.05 2.75 M-6.4 -4.85 L5.3 -0.4 5.05 2.7" fill="none" stroke="#000000" stroke-linecap="round" stroke-linejoin="round" stroke-width="2.0"/>
    <path d="M-2.85 4.0 L-10.2 22.0" fill="none" stroke="#000000" stroke-linecap="round" stroke-linejoin="round" stroke-opacity="0.3764706" stroke-width="1.4000000000000001"/>
    <path d="M3.25 5.1 L-4.25 25.85 -13.9 30.9 -16.4 21.3 -8.25 0.4" fill="none" stroke="#000000" stroke-linecap="round" stroke-linejoin="round" stroke-width="1.4000000000000001"/>
    <path d="M-4.3 -9.1 Q-0.25 -5.75 8.8 -4.45" fill="none" stroke="#000000" stroke-linecap="round" stroke-linejoin="round" stroke-width="1.5"/>
  </g>
  <defs>
    <linearGradient gradientTransform="matrix(-0.0049, 0.0104, -0.0082, -0.0039, -6.75, 14.6)" gradientUnits="userSpaceOnUse" id="gradient0" spreadMethod="pad" x1="-819.2" x2="819.2">
      <stop offset="0.0" stop-color="#b4b4b4"/>
      <stop offset="0.984313725490196" stop-color="#f0f0f0"/>
    </linearGradient>
  </defs>
</svg>
