<?xml version="1.0" encoding="UTF-8" standalone="no"?>
<svg xmlns:xlink="http://www.w3.org/1999/xlink" height="10.3px" width="17.0px" xmlns="http://www.w3.org/2000/svg">
  <g transform="matrix(1.0, 0.0, 0.0, 1.0, 6.25, 13.1)">
    <path d="M5.1 -10.05 L6.8 -8.45 6.3 -6.2 3.5 -5.6" fill="none" stroke="#000000" stroke-linecap="round" stroke-linejoin="round" stroke-width="0.5"/>
    <path d="M3.5 -5.6 Q7.25 -4.6 9.25 -3.3 10.5 -4.75 10.15 -7.9 8.4 -9.4 5.1 -10.05 L5.05 -10.05 4.8 -10.1 4.95 -8.95 Q4.9 -7.2 3.7 -5.95 L3.6 -5.85 3.35 -5.6 3.5 -5.6 M3.35 -5.6 Q2.1 -4.7 0.65 -4.7 -1.0 -4.7 -2.05 -5.9 L-2.75 -7.0 -5.75 -7.25 Q-5.15 -9.45 -3.75 -11.45 L-1.7 -11.4 -1.2 -11.85 Q-0.2 -12.55 1.0 -12.6 2.65 -12.75 3.8 -11.7 4.45 -11.1 4.7 -10.3 L4.8 -10.1 M-2.75 -7.0 L-2.8 -7.25 -2.95 -8.65 Q-2.85 -10.2 -1.7 -11.4" fill="none" stroke="#000000" stroke-linecap="round" stroke-linejoin="round" stroke-width="1.0"/>
  </g>
</svg>
