<?xml version="1.0" encoding="UTF-8" standalone="no"?>
<svg xmlns:xlink="http://www.w3.org/1999/xlink" height="25.75px" width="20.15px" xmlns="http://www.w3.org/2000/svg">
  <g transform="matrix(1.0, 0.0, 0.0, 1.0, 8.45, 19.0)">
    <path d="M8.5 -2.55 L3.85 -4.05 M9.25 -5.95 Q7.85 -8.0 2.05 -8.45 -3.8 -8.9 -5.6 -7.4 M-7.75 -3.8 Q-4.65 -4.85 -1.1 -4.7 M4.9 -12.4 L-0.25 -12.05" fill="none" stroke="#000000" stroke-linecap="round" stroke-linejoin="round" stroke-width="1.0"/>
    <path d="M3.85 -4.05 Q2.75 -1.6 2.5 2.25 L3.9 3.9 3.9 3.95 Q6.2 -0.3 8.5 -2.55 L9.25 -5.95 Q10.05 -9.75 11.0 -10.95 L4.9 -12.4 4.45 -12.5 Q0.75 -16.0 -0.55 -18.3 L-2.9 -13.75 Q-2.1 -12.8 -0.25 -12.05 L-4.05 -10.9 -5.6 -7.4 -7.75 -3.8 Q-6.55 -0.2 4.0 6.05 L3.9 3.95 M-1.1 -4.7 L3.85 -4.05 M-1.1 -4.7 Q-0.2 -1.25 2.5 2.25" fill="none" stroke="#000000" stroke-linecap="round" stroke-linejoin="round" stroke-width="1.4000000000000001"/>
  </g>
</svg>
