<?xml version="1.0" encoding="UTF-8" standalone="no"?>
<svg xmlns:xlink="http://www.w3.org/1999/xlink" height="29.1px" width="26.4px" xmlns="http://www.w3.org/2000/svg">
  <g transform="matrix(1.0, 0.0, 0.0, 1.0, 15.2, 0.7)">
    <path d="M3.65 4.95 Q3.2 10.5 3.0 16.15 2.75 21.75 2.75 27.45 L-0.15 21.45 -0.55 16.7 Q-0.95 11.05 -0.85 5.75 L1.35 4.05 3.65 4.95 M8.75 -0.2 Q9.85 2.55 10.35 4.85 L10.7 7.9 Q9.3 13.65 6.55 17.5 L6.55 8.6 4.85 4.8 7.5 3.0 8.75 -0.2 M-1.9 5.7 L-4.2 2.95 -6.6 4.45 Q-7.95 10.15 -8.45 16.25 L-8.75 19.95 -7.2 27.9 -1.9 5.7 M-7.4 3.8 L-8.95 0.6 -10.65 3.1 Q-12.75 6.95 -13.75 11.3 L-14.7 15.3 -13.75 21.6 -11.05 13.25 -7.4 3.8" fill="none" stroke="#000000" stroke-linecap="round" stroke-linejoin="round" stroke-width="1.0"/>
  </g>
</svg>
