<?xml version="1.0" encoding="UTF-8" standalone="no"?>
<svg xmlns:xlink="http://www.w3.org/1999/xlink" height="34.85px" width="131.55px" xmlns="http://www.w3.org/2000/svg">
  <g transform="matrix(1.0, 0.0, 0.0, 1.0, 14.5, 35.9)">
    <path d="M-8.8 -32.55 Q-6.5 -21.8 -9.3 -12.85 -10.55 -8.6 -13.0 -4.8 L-13.5 -3.55 Q-3.65 -0.5 8.25 -3.55 11.6 -5.3 12.25 -18.0 12.9 -30.75 6.9 -33.5 -1.35 -36.25 -9.7 -33.5 M108.6 -4.35 Q116.05 -5.3 116.05 -13.7 116.0 -22.15 114.5 -25.9 113.0 -29.6 108.5 -32.45 99.6 -33.75 94.1 -31.0 90.55 -26.95 90.7 -17.4 90.85 -7.85 93.4 -6.1 100.15 -3.45 108.6 -4.35" fill="none" stroke="#000000" stroke-linecap="round" stroke-linejoin="round" stroke-width="2.0"/>
  </g>
</svg>
