<?xml version="1.0" encoding="UTF-8" standalone="no"?>
<svg xmlns:xlink="http://www.w3.org/1999/xlink" height="24.7px" width="23.25px" xmlns="http://www.w3.org/2000/svg">
  <g transform="matrix(1.0, 0.0, 0.0, 1.0, 10.45, 13.9)">
    <path d="M9.4 -3.35 L9.6 -5.0 Q11.25 -7.55 11.95 -9.25 10.15 -9.45 5.45 -11.35 0.7 -13.25 -4.65 -13.05 -5.1 -10.25 -4.95 -8.05 L-6.2 -6.7 -6.05 -5.55 -7.55 -2.85 -8.3 -1.5 Q-10.5 2.5 -8.95 6.25 -7.4 10.0 -2.05 9.95 3.3 9.9 4.0 4.4 4.4 8.3 7.2 7.05 9.7 6.2 9.05 1.75 8.7 -0.65 8.7 -2.65 L9.4 -3.35" fill="none" stroke="#000000" stroke-linecap="round" stroke-linejoin="round" stroke-width="1.7000000000000002"/>
    <path d="M-2.75 -7.8 L5.95 -5.75 Q2.3 -4.75 -3.2 -4.95" fill="none" stroke="#000000" stroke-linecap="round" stroke-linejoin="round" stroke-opacity="0.29803923" stroke-width="1.0"/>
  </g>
</svg>
