<?xml version="1.0" encoding="UTF-8" standalone="no"?>
<svg xmlns:xlink="http://www.w3.org/1999/xlink" height="25.6px" width="23.15px" xmlns="http://www.w3.org/2000/svg">
  <g transform="matrix(1.0, 0.0, 0.0, 1.0, 10.6, 14.65)">
    <path d="M-5.5 -6.9 Q-5.65 -11.8 -4.4 -13.6 L-2.5 -11.6 Q-1.0 -13.15 0.5 -13.65 1.65 -12.75 2.4 -10.7 4.0 -11.85 5.65 -11.85 6.7 -10.45 7.55 -8.1 L11.55 -8.85 Q10.6 -6.1 8.7 -3.6 9.2 0.65 8.95 3.65 8.9 6.8 6.55 7.35 4.35 7.85 4.0 5.05 3.55 8.15 1.45 9.25 -1.1 10.35 -4.45 9.75 -10.55 8.4 -9.45 1.75 -7.95 -2.95 -5.5 -6.9 Z" fill="none" stroke="#000000" stroke-linecap="round" stroke-linejoin="round" stroke-width="2.0"/>
  </g>
</svg>
