<?xml version="1.0" encoding="UTF-8" standalone="no"?>
<svg xmlns:xlink="http://www.w3.org/1999/xlink" height="24.2px" width="22.3px" xmlns="http://www.w3.org/2000/svg">
  <g transform="matrix(1.0, 0.0, 0.0, 1.0, 10.4, 15.3)">
    <path d="M-4.1 -10.45 Q-5.45 -8.55 -5.15 -7.5 -3.95 -5.8 0.95 -4.05 5.45 -2.85 8.75 -3.35 9.6 -3.4 9.85 -6.05 11.25 -8.25 10.75 -10.0 2.85 -10.5 -2.25 -14.3 -3.65 -12.95 -4.1 -10.45 M8.75 -3.35 Q8.2 -0.7 8.4 0.3 L8.7 2.0 Q5.1 2.05 3.7 4.2 3.6 6.1 2.3 7.9 -5.65 4.5 -9.4 3.55 -9.15 0.9 -7.7 -2.1 L-5.15 -7.5" fill="none" stroke="#000000" stroke-linecap="round" stroke-linejoin="round" stroke-width="2.0"/>
  </g>
</svg>
