<?xml version="1.0" encoding="UTF-8" standalone="no"?>
<svg xmlns:xlink="http://www.w3.org/1999/xlink" height="43.1px" width="39.75px" xmlns="http://www.w3.org/2000/svg">
  <g transform="matrix(1.0, 0.0, 0.0, 1.0, 19.3, 11.1)">
    <path d="M11.05 27.0 Q11.15 30.45 7.45 31.25 6.1 29.25 6.15 27.25 8.3 27.6 10.4 27.3 L11.05 27.0 M-0.2 26.05 Q-0.2 30.5 -1.3 30.65 -4.45 28.65 -5.8 26.05 -2.3 26.55 -0.2 26.05 M-10.7 22.85 Q-10.0 26.4 -11.15 27.85 -14.7 25.25 -15.15 22.6 -12.45 24.35 -10.7 22.85" fill="#f0f0f0" fill-rule="evenodd" stroke="none"/>
    <path d="M-15.15 22.6 L-16.25 21.8 Q-20.05 18.65 -17.55 10.4 -15.05 2.15 -8.7 -3.55 -6.9 -7.35 -3.8 -10.35 -0.85 -8.0 10.3 -7.85 10.95 -4.75 12.35 -1.5 25.5 14.8 15.15 17.2 15.6 24.5 11.05 27.0 11.15 30.45 7.45 31.25 6.1 29.25 6.15 27.25 3.6 26.8 2.6 24.0 1.95 25.55 -0.2 26.05 -0.2 30.5 -1.3 30.65 -4.45 28.65 -5.8 26.05 -8.95 25.3 -10.35 22.45 L-10.7 22.85 Q-10.0 26.4 -11.15 27.85 -14.7 25.25 -15.15 22.6 -12.45 24.35 -10.7 22.85 M2.6 24.0 Q3.65 21.6 3.65 18.6 M13.0 9.55 Q14.55 13.7 15.15 17.2 M11.05 27.0 L10.4 27.3 Q8.3 27.6 6.15 27.25 M-10.6 17.5 Q-10.85 19.45 -10.35 22.45 M-0.2 26.05 Q-2.3 26.55 -5.8 26.05" fill="none" stroke="#000000" stroke-linecap="round" stroke-linejoin="round" stroke-width="1.5"/>
    <path d="M-1.6 7.1 L3.35 4.35 2.9 10.2 -1.6 7.1 -7.1 9.2 -5.6 3.45 -1.6 7.1" fill="none" stroke="#000000" stroke-linecap="round" stroke-linejoin="round" stroke-width="1.0"/>
  </g>
</svg>
