<?xml version="1.0" encoding="UTF-8" standalone="no"?>
<svg xmlns:xlink="http://www.w3.org/1999/xlink" height="11.25px" width="24.4px" xmlns="http://www.w3.org/2000/svg">
  <g transform="matrix(1.0, 0.0, 0.0, 1.0, 10.0, 13.15)">
    <path d="M10.3 -5.65 L7.4 -4.75 Q5.35 -4.65 5.4 -6.4 5.55 -8.05 7.45 -8.05 L10.35 -5.85 10.5 -5.75 10.3 -5.65 M-5.45 -10.0 L-2.25 -10.55 Q-0.7 -10.05 -1.1 -8.4 -1.55 -6.75 -3.6 -7.4 L-5.55 -9.7 -5.75 -9.95 -5.45 -10.0 M4.05 -7.5 Q4.05 -6.7 3.45 -6.15 L3.0 -5.75 2.1 -5.55 Q1.3 -5.55 0.7 -6.15 L0.35 -6.6 0.15 -7.5 Q0.15 -8.3 0.7 -8.9 L1.05 -9.15 2.1 -9.45 Q2.9 -9.45 3.45 -8.9 L3.8 -8.45 4.05 -7.5 M10.55 -7.2 L14.05 -4.6 9.8 -4.05 M-4.8 -11.2 L-9.65 -11.4 -6.05 -8.2" fill="none" stroke="#000000" stroke-linecap="round" stroke-linejoin="round" stroke-width="0.7000000000000001"/>
    <path d="M1.05 -9.15 L2.15 -7.9 3.8 -8.45 M0.35 -6.6 L2.15 -7.9 3.0 -5.75" fill="none" stroke="#000000" stroke-linecap="round" stroke-linejoin="round" stroke-opacity="0.4392157" stroke-width="0.5"/>
    <path d="M10.35 -5.85 L10.55 -7.2 10.6 -8.4 Q7.6 -9.7 2.55 -11.0 L-3.75 -12.4 -4.8 -11.2 -5.45 -10.0 M-5.55 -9.7 L-6.05 -8.2 -6.3 -6.55 Q-5.65 -5.3 0.8 -3.75 7.3 -2.2 9.25 -2.85 L9.8 -4.05 10.3 -5.65 Z" fill="none" stroke="#000000" stroke-linecap="round" stroke-linejoin="round" stroke-width="1.5"/>
  </g>
</svg>
