<?xml version="1.0" encoding="UTF-8" standalone="no"?>
<svg xmlns:xlink="http://www.w3.org/1999/xlink" height="42.1px" width="31.35px" xmlns="http://www.w3.org/2000/svg">
  <g transform="matrix(1.0, 0.0, 0.0, 1.0, 12.2, 39.45)">
    <path d="M4.4 -28.7 L5.1 -28.65 6.15 -28.55 6.3 -28.5 Q9.15 -28.05 11.6 -26.25 L12.0 -25.95 12.25 -25.75 12.3 -25.75 Q14.55 -23.65 15.5 -21.05 16.1 -19.55 16.25 -17.9 16.6 -13.25 13.7 -9.55 L13.5 -9.3 Q11.25 -6.7 8.25 -5.7 L5.5 -5.1 Q0.8 -4.75 -2.8 -7.55 L-2.85 -7.55 -3.15 -7.8 -3.55 -8.15 Q-7.0 -11.2 -7.35 -15.8 -7.8 -20.75 -4.7 -24.4 L-4.7 -24.45 Q-1.9 -27.75 1.6 -28.4 L2.65 -28.6 3.65 -26.2 3.7 -26.1 5.8 -24.9 3.5 -24.95 2.2 -24.75 Q-0.35 -24.1 -2.1 -22.0 -4.3 -19.3 -4.1 -15.9 -3.85 -12.65 -1.55 -10.55 L-1.25 -10.3 -0.95 -10.0 Q1.7 -8.15 4.75 -8.5 8.25 -8.9 10.45 -11.5 12.6 -14.25 12.4 -17.6 12.25 -19.7 11.25 -21.3 12.25 -19.7 12.4 -17.6 12.6 -14.25 10.45 -11.5 8.25 -8.9 4.75 -8.5 1.7 -8.15 -0.95 -10.0 L-1.25 -10.3 -1.55 -10.55 Q-3.85 -12.65 -4.1 -15.9 -4.3 -19.3 -2.1 -22.0 -0.35 -24.1 2.2 -24.75 L3.5 -24.95 5.8 -24.9 Q7.65 -24.65 9.2 -23.4 L9.6 -23.2 9.8 -23.0 9.6 -22.75 9.7 -22.0 11.25 -21.3 12.8 -20.6 Q13.3 -19.3 13.45 -17.75 13.85 -13.95 11.5 -11.05 L11.4 -10.9 Q8.9 -7.9 5.0 -7.55 1.45 -7.2 -1.4 -9.35 L-1.55 -9.5 -1.85 -9.6 -2.1 -9.9 Q-4.9 -12.35 -5.2 -16.05 -5.55 -19.9 -3.1 -22.9 L-3.05 -22.95 Q-0.5 -25.85 3.3 -26.2 L3.65 -26.2 3.3 -26.2 Q-0.5 -25.85 -3.05 -22.95 L-3.1 -22.9 Q-5.55 -19.9 -5.2 -16.05 -4.9 -12.35 -2.1 -9.9 L-1.85 -9.6 -1.55 -9.5 -1.4 -9.35 Q1.45 -7.2 5.0 -7.55 8.9 -7.9 11.4 -10.9 L11.5 -11.05 Q13.85 -13.95 13.45 -17.75 13.3 -19.3 12.8 -20.6 L13.45 -20.3 14.6 -21.75 11.25 -24.65 10.3 -24.1 10.45 -24.15 10.35 -23.95 10.25 -24.05 9.85 -24.3 9.35 -24.65 5.0 -27.3 4.4 -28.7 M9.35 -24.65 L10.3 -24.1 9.35 -24.65 M8.85 -22.45 L8.55 -22.7 Q6.35 -24.35 3.55 -24.05 L3.0 -23.95 Q0.3 -23.45 -1.45 -21.35 -3.55 -18.9 -3.25 -15.85 -3.1 -13.0 -1.1 -11.1 L-0.8 -10.85 -0.4 -10.55 Q1.9 -8.95 4.55 -9.3 7.65 -9.6 9.7 -12.0 11.65 -14.5 11.45 -17.5 11.3 -20.2 9.25 -22.15 L8.85 -22.45 9.25 -22.15 Q11.3 -20.2 11.45 -17.5 11.65 -14.5 9.7 -12.0 7.65 -9.6 4.55 -9.3 1.9 -8.95 -0.4 -10.55 L-0.8 -10.85 -1.1 -11.1 Q-3.1 -13.0 -3.25 -15.85 -3.55 -18.9 -1.45 -21.35 0.3 -23.45 3.0 -23.95 L3.55 -24.05 Q6.35 -24.35 8.55 -22.7 L8.85 -22.45 M5.8 -24.9 L9.6 -22.8 9.6 -22.75 9.6 -22.8 5.8 -24.9 M8.1 -21.65 L7.9 -21.85 Q6.05 -23.2 3.7 -22.95 1.15 -22.7 -0.55 -20.65 -2.15 -18.6 -2.0 -16.1 -1.95 -13.7 -0.25 -12.15 L0.05 -11.85 0.5 -11.55 Q2.25 -10.35 4.5 -10.6 7.05 -10.85 8.8 -12.85 10.45 -15.0 10.35 -17.5 10.15 -19.7 8.6 -21.2 L8.1 -21.65 8.6 -21.2 Q10.15 -19.7 10.35 -17.5 10.45 -15.0 8.8 -12.85 7.05 -10.85 4.5 -10.6 2.25 -10.35 0.5 -11.55 L0.05 -11.85 -0.25 -12.15 Q-1.95 -13.7 -2.0 -16.1 -2.15 -18.6 -0.55 -20.65 1.15 -22.7 3.7 -22.95 6.05 -23.2 7.9 -21.85 L8.1 -21.65 M2.6 -20.85 Q0.9 -20.15 0.15 -18.5 -0.6 -16.8 0.2 -15.1 L0.1 -15.05 Q0.85 -13.45 2.45 -12.7 L5.85 -12.6 5.85 -12.65 Q7.6 -13.4 8.3 -15.05 8.95 -16.65 8.3 -18.35 7.6 -20.05 5.95 -20.85 4.25 -21.55 2.6 -20.9 L2.6 -20.85 M4.55 -16.0 L3.9 -15.95 Q3.55 -16.1 3.45 -16.45 3.3 -16.7 3.4 -17.05 L3.85 -17.5 4.55 -17.5 5.0 -17.05 5.0 -17.0 5.0 -16.4 4.55 -16.0" fill="url(#gradient0)" fill-rule="evenodd" stroke="none"/>
    <path d="M4.5 -31.2 Q7.55 -36.7 7.45 -38.3 L7.55 -38.5 Q-1.05 -40.35 -5.9 -34.25 L-5.15 -33.0 -4.6 -32.0 Q-3.8 -30.3 -3.75 -28.4 L-3.75 -28.3 -2.0 -29.35 -1.4 -29.65 1.75 -30.65 1.2 -31.95 0.5 -32.1 Q-0.25 -32.35 -0.65 -33.2 -1.05 -34.05 -0.8 -34.75 -0.55 -35.6 0.25 -36.1 L1.85 -36.25 3.1 -35.15 Q3.6 -34.35 3.35 -33.45 L2.75 -32.6 3.5 -30.85 3.9 -30.85 4.5 -31.2 4.35 -30.85 4.45 -30.9 8.8 -30.25 9.75 -29.8 Q10.7 -29.6 11.55 -28.95 13.25 -28.05 14.75 -26.6 L17.0 -23.25 Q19.7 -18.1 17.95 -12.5 16.25 -7.1 11.05 -4.4 L11.15 -4.4 9.4 -0.1 -1.55 2.15 -8.2 -5.65 -8.0 -6.45 Q-12.0 -11.8 -11.3 -18.35 L-11.7 -19.25 Q-11.85 -21.55 -10.95 -24.25 L-11.25 -27.25 Q-8.95 -30.4 -5.15 -33.0 M1.2 -31.95 L0.4 -33.9 Q0.65 -34.25 1.05 -34.45 L1.95 -34.4 2.75 -32.6 M3.5 -30.85 L4.4 -28.7 5.1 -28.65 6.15 -28.55 6.3 -28.5 Q9.15 -28.05 11.6 -26.25 L12.0 -25.95 12.25 -25.75 12.3 -25.75 Q14.55 -23.65 15.5 -21.05 16.1 -19.55 16.25 -17.9 16.6 -13.25 13.7 -9.55 L13.5 -9.3 Q11.25 -6.7 8.25 -5.7 L5.5 -5.1 Q0.8 -4.75 -2.8 -7.55 L-2.85 -7.55 -3.15 -7.8 -3.55 -8.15 Q-7.0 -11.2 -7.35 -15.8 -7.8 -20.75 -4.7 -24.4 L-4.7 -24.45 Q-1.9 -27.75 1.6 -28.4 L2.65 -28.6 1.75 -30.65 M4.35 -30.85 L3.9 -30.85 M5.8 -24.9 L3.7 -26.1 3.65 -26.2 2.65 -28.6 M12.8 -20.6 L11.25 -21.3 9.7 -22.0 9.6 -22.75 9.6 -22.8 5.8 -24.9 M9.8 -23.0 L10.35 -23.95 10.45 -24.15 10.3 -24.1 9.35 -24.65 5.0 -27.3 4.4 -28.7 M10.3 -24.1 L11.25 -24.65 14.6 -21.75 13.45 -20.3 12.8 -20.6 M9.6 -22.75 L9.8 -23.0 M2.6 -20.85 L2.6 -20.9 Q4.25 -21.55 5.95 -20.85 7.6 -20.05 8.3 -18.35 8.95 -16.65 8.3 -15.05 7.6 -13.4 5.85 -12.65 L5.85 -12.6 2.45 -12.7 Q0.85 -13.45 0.1 -15.05 L0.2 -15.1 Q-0.6 -16.8 0.15 -18.5 0.9 -20.15 2.6 -20.85 M4.55 -16.0 L3.9 -15.95 Q3.55 -16.1 3.45 -16.45 3.3 -16.7 3.4 -17.05 L3.85 -17.5 4.55 -17.5 5.0 -17.05 5.0 -17.0 5.0 -16.4 4.55 -16.0 M11.05 -4.4 L10.9 -4.3 Q9.85 -3.7 8.8 -3.4 5.4 -2.3 1.9 -2.95 L0.2 -3.35 0.15 -3.45 -0.15 -3.45 Q-3.9 -4.7 -6.35 -7.8 L-7.25 -9.0 -8.0 -6.45 M-10.95 -24.25 L-10.35 -22.7 Q-9.95 -21.7 -9.0 -20.7 L-8.85 -21.1 Q-7.45 -25.65 -3.75 -28.3 M-11.3 -18.35 L-9.95 -17.35 -9.75 -17.3 -9.55 -17.15 Q-9.55 -18.95 -9.0 -20.7 M-7.25 -9.0 L-8.05 -10.4 Q-9.6 -13.6 -9.6 -17.0 L-9.75 -17.3 M-9.55 -17.15 L-9.6 -17.0" fill="none" stroke="#000000" stroke-linecap="round" stroke-linejoin="round" stroke-width="1.0"/>
    <path d="M3.65 -26.2 L3.3 -26.2 Q-0.5 -25.85 -3.05 -22.95 L-3.1 -22.9 Q-5.55 -19.9 -5.2 -16.05 -4.9 -12.35 -2.1 -9.9 L-1.85 -9.6 -1.55 -9.5 -1.4 -9.35 Q1.45 -7.2 5.0 -7.55 8.9 -7.9 11.4 -10.9 L11.5 -11.05 Q13.85 -13.95 13.45 -17.75 13.3 -19.3 12.8 -20.6 M11.25 -21.3 Q12.25 -19.7 12.4 -17.6 12.6 -14.25 10.45 -11.5 8.25 -8.9 4.75 -8.5 1.7 -8.15 -0.95 -10.0 L-1.25 -10.3 -1.55 -10.55 Q-3.85 -12.65 -4.1 -15.9 -4.3 -19.3 -2.1 -22.0 -0.35 -24.1 2.2 -24.75 L3.5 -24.95 5.8 -24.9 Q7.65 -24.65 9.2 -23.4 M10.35 -23.95 L10.25 -24.05 9.85 -24.3 9.35 -24.65 M8.85 -22.45 L9.25 -22.15 Q11.3 -20.2 11.45 -17.5 11.65 -14.5 9.7 -12.0 7.65 -9.6 4.55 -9.3 1.9 -8.95 -0.4 -10.55 L-0.8 -10.85 -1.1 -11.1 Q-3.1 -13.0 -3.25 -15.85 -3.55 -18.9 -1.45 -21.35 0.3 -23.45 3.0 -23.95 L3.55 -24.05 Q6.35 -24.35 8.55 -22.7 L8.85 -22.45 M8.1 -21.65 L8.6 -21.2 Q10.15 -19.7 10.35 -17.5 10.45 -15.0 8.8 -12.85 7.05 -10.85 4.5 -10.6 2.25 -10.35 0.5 -11.55 L0.05 -11.85 -0.25 -12.15 Q-1.95 -13.7 -2.0 -16.1 -2.15 -18.6 -0.55 -20.65 1.15 -22.7 3.7 -22.95 6.05 -23.2 7.9 -21.85 L8.1 -21.65" fill="none" stroke="#000000" stroke-linecap="round" stroke-linejoin="round" stroke-opacity="0.49803922" stroke-width="0.05"/>
    <path d="M9.2 -23.4 L9.6 -23.2 9.8 -23.0" fill="none" stroke="#990000" stroke-linecap="round" stroke-linejoin="round" stroke-opacity="0.49803922" stroke-width="0.05"/>
    <path d="M-9.9 -27.05 Q-9.3 -28.1 -8.3 -29.0 L-7.35 -26.65 -9.3 -24.85 -9.9 -27.05 M-7.4 -29.95 L-5.8 -31.4 -4.9 -28.85 -6.65 -27.3 -7.3 -28.9 -7.4 -29.95" fill="none" stroke="#000000" stroke-linecap="round" stroke-linejoin="round" stroke-width="0.7000000000000001"/>
  </g>
  <defs>
    <linearGradient gradientTransform="matrix(0.0121, 0.0068, -0.007, 0.0125, 4.2, -16.85)" gradientUnits="userSpaceOnUse" id="gradient0" spreadMethod="pad" x1="-819.2" x2="819.2">
      <stop offset="0.1843137254901961" stop-color="#090909"/>
      <stop offset="0.49411764705882355" stop-color="#4a4a4a"/>
      <stop offset="0.8" stop-color="#090909"/>
    </linearGradient>
  </defs>
</svg>
