<?xml version="1.0" encoding="UTF-8" standalone="no"?>
<svg xmlns:xlink="http://www.w3.org/1999/xlink" height="33.85px" width="26.8px" xmlns="http://www.w3.org/2000/svg">
  <g transform="matrix(1.0, 0.0, 0.0, 1.0, 14.75, 14.95)">
    <path d="M-0.5 -14.2 L-3.75 -6.6 Q-1.85 -4.85 2.6 -3.4 6.65 -1.85 8.9 -2.15 L11.3 -9.95 M8.9 -2.15 L9.2 -2.2 8.35 1.15 8.35 1.1 8.25 1.5 8.2 1.6 8.15 1.75 7.55 4.95 6.75 11.5 6.75 11.6 5.2 12.95 5.7 17.5 -3.4 17.8 Q-7.9 16.95 -10.45 15.55 -13.05 14.1 -14.0 12.55 L-11.35 9.15 Q-12.1 8.6 -12.75 8.4 L-9.4 4.35 -7.4 -1.4 Q-7.2 -2.2 -5.75 -3.0 L-4.15 -7.0 -3.75 -6.6 M-5.75 -3.0 L-5.65 -3.1 -5.4 -2.8 Q-4.45 -1.6 -1.95 -0.3 0.8 1.1 3.55 1.65 L7.85 1.35 8.35 1.15 8.25 1.5 M5.2 12.95 Q2.7 14.55 -1.3 14.0 L-3.15 13.6 -5.4 12.3 -9.8 9.9 -10.7 9.45 -11.35 9.15" fill="none" stroke="#000000" stroke-linecap="round" stroke-linejoin="round" stroke-width="1.5"/>
  </g>
</svg>
