<?xml version="1.0" encoding="UTF-8" standalone="no"?>
<svg xmlns:xlink="http://www.w3.org/1999/xlink" height="33.65px" width="27.5px" xmlns="http://www.w3.org/2000/svg">
  <g transform="matrix(1.0, 0.0, 0.0, 1.0, 15.2, 15.2)">
    <path d="M-8.05 5.4 L-9.5 5.35 Q-12.05 6.15 -12.25 9.25 -15.3 12.65 -13.55 14.9 -5.45 14.75 4.5 17.45 5.6 16.75 5.4 13.45 6.75 11.45 6.1 9.75 5.25 8.6 1.0 7.05 L-0.15 6.7 Q-3.55 5.65 -8.05 5.4 M6.1 9.75 Q7.0 9.2 8.1 4.25 L11.3 -9.95 M-0.5 -14.2 L-8.0 0.35 Q-9.75 3.35 -9.5 5.35" fill="none" stroke="#000000" stroke-linecap="round" stroke-linejoin="round" stroke-width="2.0"/>
    <path d="M3.25 8.65 Q3.4 11.95 1.95 15.25 M-0.15 6.7 Q-0.2 10.55 -1.7 14.45 M-4.55 6.25 Q-6.1 9.95 -6.15 13.65 M-8.05 5.4 Q-10.9 9.25 -10.65 13.4" fill="none" stroke="#000000" stroke-linecap="round" stroke-linejoin="round" stroke-opacity="0.69803923" stroke-width="1.0"/>
  </g>
</svg>
