<?xml version="1.0" encoding="UTF-8" standalone="no"?>
<svg xmlns:xlink="http://www.w3.org/1999/xlink" height="152.95px" width="168.3px" xmlns="http://www.w3.org/2000/svg">
  <g transform="matrix(1.0, 0.0, 0.0, 1.0, 84.15, 76.45)">
    <path d="M62.75 -63.9 Q65.7 -58.6 67.0 -51.25 L67.45 -45.0 M47.0 -75.35 L50.45 -75.1 Q56.05 -72.7 59.9 -68.1 M36.4 -58.65 Q36.1 -64.6 38.1 -68.8 40.85 -72.6 43.7 -74.2 M68.1 -37.15 Q69.6 -20.35 71.95 -6.3 M73.1 0.4 Q77.1 22.15 83.15 36.6 80.95 34.3 79.05 31.0 75.45 24.65 72.85 14.4 75.8 37.95 67.85 55.45 68.95 48.3 67.65 31.9 69.0 60.45 50.85 75.5 52.85 66.7 52.35 60.8 L51.5 50.5 Q51.15 47.0 51.2 39.9 50.85 49.75 44.25 58.65 47.5 45.75 47.65 11.6 46.9 19.35 43.35 23.65 44.7 13.2 45.2 3.2 45.4 -22.15 39.95 -42.65 38.1 -47.85 37.2 -52.25 M51.2 39.9 L51.3 36.15 51.3 35.3 51.4 33.8 M-29.85 -59.3 Q-29.6 -64.85 -31.5 -68.8 -33.45 -71.4 -35.5 -72.95 M-57.1 -65.75 Q-61.45 -59.95 -63.35 -51.25 L-63.8 -46.55 M-39.0 -74.9 L-44.75 -75.1 Q-49.7 -73.15 -53.45 -69.8 M-64.7 -38.65 Q-66.85 -20.95 -69.85 -6.2 M-48.55 33.8 L-48.5 35.3 -48.5 36.15 -48.5 39.9 Q-48.35 49.75 -41.45 58.65 -44.6 45.75 -43.95 11.6 -43.3 19.35 -39.55 23.65 -40.75 13.2 -41.05 3.2 -40.65 -22.15 -34.15 -42.65 -31.65 -48.8 -30.55 -53.9 M-70.6 -2.55 Q-75.75 21.15 -83.15 36.6 -80.7 34.3 -78.55 31.0 -74.45 24.65 -71.35 14.4 -75.15 37.95 -66.95 55.45 -68.0 48.3 -66.15 31.9 -68.35 60.45 -49.05 75.5 -50.95 66.7 -50.3 60.8 L-49.1 50.5 Q-48.65 47.0 -48.5 39.9" fill="none" stroke="#000000" stroke-linecap="round" stroke-linejoin="round" stroke-width="2.0"/>
  </g>
</svg>
