<?xml version="1.0" encoding="UTF-8" standalone="no"?>
<svg xmlns:xlink="http://www.w3.org/1999/xlink" height="96.3px" width="162.25px" xmlns="http://www.w3.org/2000/svg">
  <g transform="matrix(1.0, 0.0, 0.0, 1.0, 38.15, 69.55)">
    <path d="M11.7 -61.05 Q18.5 -53.25 17.9 -39.5 15.1 -38.0 12.2 -37.65 7.8 -37.2 3.2 -39.35 4.65 -46.15 6.55 -51.3 8.8 -57.35 11.7 -61.05 M-0.65 -39.65 Q1.05 -47.45 3.05 -53.25 6.95 -64.75 12.15 -68.55 25.5 -60.1 22.85 -35.65 17.65 -31.9 11.5 -32.25 6.95 -32.55 1.85 -35.05 L0.95 -33.75 -0.1 -33.0 Q7.2 -8.15 -5.85 17.6 -7.6 21.25 -15.0 23.8 1.05 -8.05 -0.85 -32.75 L-1.45 -32.7 Q-3.25 -4.45 -19.65 23.8 -25.55 22.5 -28.55 19.1 L-29.7 17.55 -27.8 15.45 Q-10.4 -4.7 -3.05 -33.05 L-3.55 -33.3 Q-12.85 -20.05 -22.65 -17.0 -25.15 -16.25 -27.65 -16.15 -41.0 -30.0 -35.6 -58.45 -24.1 -60.15 -11.4 -48.15 -7.45 -44.4 -3.35 -39.35 L-1.55 -39.8 -0.65 -39.65 Q0.25 -39.45 0.95 -38.75 2.0 -37.7 2.0 -36.25 L1.85 -35.05 M78.45 -37.0 Q83.85 -34.15 89.6 -37.4 88.0 -46.5 85.75 -52.55 84.3 -56.45 82.6 -59.1 76.95 -51.35 77.45 -37.6 L78.45 -37.0 M92.8 -37.75 Q91.15 -47.2 89.05 -53.7 86.05 -63.25 82.2 -66.65 71.2 -58.2 73.3 -33.75 76.1 -31.3 79.25 -30.6 84.5 -29.45 90.75 -33.15 L90.65 -34.35 Q90.65 -35.8 91.5 -36.85 92.0 -37.55 92.8 -37.75 L93.55 -37.9 95.05 -37.4 Q98.55 -42.65 101.95 -46.45 112.35 -58.2 121.8 -56.5 126.3 -28.1 115.2 -14.25 112.65 -14.4 110.15 -15.5 102.5 -18.9 95.2 -31.4 L94.8 -31.15 Q100.65 -4.2 114.0 15.35 L116.9 19.45 115.15 22.05 Q112.7 24.65 108.55 25.75 94.95 -2.55 93.45 -30.8 L93.0 -30.85 Q91.4 -6.15 104.7 25.75 98.6 23.15 97.15 19.5 86.3 -6.25 92.3 -31.1 L91.5 -31.85 Q90.95 -32.4 90.75 -33.15 M116.7 -48.55 Q120.4 -36.8 112.8 -22.35 111.15 -22.65 109.5 -23.35 103.1 -26.05 97.5 -34.95 101.25 -39.3 104.8 -42.25 111.15 -47.6 116.7 -48.55 M95.2 -31.4 L95.6 -31.85 Q96.5 -32.85 96.5 -34.35 96.5 -35.8 95.6 -36.85 L95.05 -37.4 M93.45 -30.8 L93.55 -30.8 Q94.25 -30.8 94.8 -31.15 M92.3 -31.1 L93.0 -30.85 M-3.55 -33.3 L-4.05 -33.75 Q-5.1 -34.8 -5.1 -36.25 -5.1 -37.7 -4.05 -38.75 L-3.35 -39.35 M-0.1 -33.0 L-0.85 -32.75 M-1.45 -32.7 L-1.55 -32.7 Q-2.35 -32.7 -3.05 -33.05 M-15.05 -44.1 Q-22.75 -49.5 -29.45 -50.45 -33.95 -38.7 -24.75 -24.25 L-21.75 -24.9 Q-13.55 -27.4 -6.35 -36.85 -10.85 -41.15 -15.05 -44.1" fill="none" stroke="#000000" stroke-linecap="round" stroke-linejoin="round" stroke-width="2.0"/>
  </g>
</svg>
