<?xml version="1.0" encoding="UTF-8" standalone="no"?>
<svg xmlns:xlink="http://www.w3.org/1999/xlink" height="41.75px" width="32.5px" xmlns="http://www.w3.org/2000/svg">
  <g transform="matrix(1.0, 0.0, 0.0, 1.0, 20.2, 15.2)">
    <path d="M7.55 11.3 L8.4 2.85 11.3 -9.95 M-11.0 5.4 L-15.3 11.2 Q-18.1 16.55 -19.2 22.5 -16.6 17.55 -12.35 14.25 L-11.9 19.05 -7.55 14.3 -7.45 11.9 Q-5.75 10.4 -3.25 10.55 L-3.95 19.95 Q-1.15 18.05 0.65 15.05 L0.3 12.45 Q2.2 13.15 3.7 14.85 L4.5 25.55 7.35 13.2 7.55 11.3 M-0.5 -14.2 L-9.4 3.15 -11.0 5.4" fill="none" stroke="#000000" stroke-linecap="round" stroke-linejoin="round" stroke-width="2.0"/>
    <path d="M-11.0 5.4 L-7.25 4.15 -7.25 6.45 -3.8 4.4 Q-2.85 7.1 -1.5 6.45 L1.1 3.2 2.6 7.35 Q5.95 9.25 7.55 11.3 Z" fill="none" stroke="#000000" stroke-linecap="round" stroke-linejoin="round" stroke-width="1.0"/>
  </g>
</svg>
