<?xml version="1.0" encoding="UTF-8" standalone="no"?>
<svg xmlns:xlink="http://www.w3.org/1999/xlink" height="49.5px" width="38.65px" xmlns="http://www.w3.org/2000/svg">
  <g transform="matrix(1.0, 0.0, 0.0, 1.0, 26.35, 15.2)">
    <path d="M-0.5 -14.2 L-9.7 3.35 -13.55 8.9 Q-18.35 14.9 -22.0 18.3 L-22.95 19.1 -25.35 20.85 Q-24.3 27.25 -15.1 30.95 -11.35 32.4 -8.1 32.85 L1.9 33.15 Q4.0 33.0 5.4 31.25 L5.5 30.4 5.8 28.7 5.9 27.85 6.1 26.45 6.35 24.1 6.4 23.85 6.5 22.5 6.6 21.1 6.8 20.75 Q7.25 5.35 11.3 -9.45 L11.3 -9.95 M6.5 22.5 L6.8 20.75" fill="none" stroke="#000000" stroke-linecap="round" stroke-linejoin="round" stroke-width="2.0"/>
  </g>
</svg>
