<?xml version="1.0" encoding="UTF-8" standalone="no"?>
<svg xmlns:xlink="http://www.w3.org/1999/xlink" height="33.65px" width="27.5px" xmlns="http://www.w3.org/2000/svg">
  <g transform="matrix(1.0, 0.0, 0.0, 1.0, 15.2, 15.2)">
    <path d="M2.55 -1.15 Q6.65 -0.05 8.6 2.05 L8.85 2.35 Q8.85 5.6 7.85 6.85 L7.55 6.5 Q5.35 4.25 1.15 3.35 L2.55 -1.15" fill="#000000" fill-opacity="0.32941177" fill-rule="evenodd" stroke="none"/>
    <path d="M-0.5 -14.2 L-4.45 -6.45 3.75 -5.0 2.55 -1.15 Q6.65 -0.05 8.6 2.05 L11.3 -9.9 M7.55 6.5 Q6.75 9.3 6.1 9.75 6.75 11.45 5.4 13.45 5.6 16.75 4.5 17.45 -5.45 14.75 -13.55 14.9 -15.3 12.65 -12.25 9.25 -12.1 7.0 -10.7 5.95 L-11.0 5.1 -5.15 -6.6 -4.45 -6.45 M6.1 9.75 Q5.25 8.6 1.0 7.05 L0.1 6.75 -0.05 7.15 -8.4 12.85 -10.7 5.95 M8.6 2.05 L8.85 2.35 Q8.85 5.6 7.85 6.85 L7.55 6.5 Q5.35 4.25 1.15 3.35 L0.1 6.75 M2.55 -1.15 L1.15 3.35" fill="none" stroke="#000000" stroke-linecap="round" stroke-linejoin="round" stroke-width="2.0"/>
    <path d="M-8.55 4.7 L-7.2 8.0 -2.85 4.95 0.05 -2.9" fill="none" stroke="#000000" stroke-linecap="round" stroke-linejoin="round" stroke-width="1.0"/>
  </g>
</svg>
