<?xml version="1.0" encoding="UTF-8" standalone="no"?>
<svg xmlns:xlink="http://www.w3.org/1999/xlink" height="33.35px" width="26.05px" xmlns="http://www.w3.org/2000/svg">
  <g transform="matrix(1.0, 0.0, 0.0, 1.0, 13.3, 16.55)">
    <path d="M-0.75 -15.55 Q-2.85 -12.75 -4.85 -7.0 -7.95 -4.0 -9.05 -0.8 -10.15 2.35 -10.0 3.1 -9.8 3.85 -8.75 4.5 -3.95 7.9 5.25 9.0 6.65 8.45 7.95 5.05 9.25 1.6 9.15 -0.5 11.7 -5.85 11.75 -11.25 M-8.75 4.5 L-10.4 6.8 -11.5 8.95 Q-12.1 10.45 -12.3 11.9 -8.45 14.75 3.95 15.8 L5.05 13.5 5.35 11.4 5.25 9.0" fill="none" stroke="#000000" stroke-linecap="round" stroke-linejoin="round" stroke-width="2.0"/>
  </g>
</svg>
