<?xml version="1.0" encoding="UTF-8" standalone="no"?>
<svg xmlns:xlink="http://www.w3.org/1999/xlink" height="77.8px" width="38.75px" xmlns="http://www.w3.org/2000/svg">
  <g transform="matrix(1.0, 0.0, 0.0, 1.0, 25.65, 15.9)">
    <path d="M-0.7 -14.9 Q-7.2 -0.7 -11.2 9.85 -15.25 20.35 -20.25 30.1 -25.25 39.85 -24.55 43.45 -23.85 47.05 -22.2 50.7 -13.05 49.95 2.2 54.4 L2.75 54.3 Q6.05 53.45 9.1 44.4 10.05 38.9 10.5 23.2 10.9 7.05 12.1 -10.95 M-11.05 53.0 Q-11.7 56.45 -11.25 58.25 L-5.2 59.3 Q-4.6 57.2 -4.9 53.75 M-5.2 59.3 L-0.1 60.5 Q0.2 57.35 -0.1 55.4 M-17.05 52.4 Q-17.35 55.9 -16.95 57.6 L-11.25 58.25 M-22.2 50.7 Q-22.65 54.2 -21.7 57.5 L-16.95 57.6 M-0.1 60.5 L1.4 60.9 Q3.25 59.85 2.75 54.3" fill="none" stroke="#000000" stroke-linecap="round" stroke-linejoin="round" stroke-width="2.0"/>
  </g>
</svg>
