<?xml version="1.0" encoding="UTF-8" standalone="no"?>
<svg xmlns:xlink="http://www.w3.org/1999/xlink" height="33.45px" width="27.05px" xmlns="http://www.w3.org/2000/svg">
  <g transform="matrix(1.0, 0.0, 0.0, 1.0, 13.4, 16.65)">
    <path d="M-1.55 -15.65 Q-2.85 -12.75 -5.4 -8.45 -8.0 -4.2 -9.25 -1.45 -10.55 1.25 -10.4 2.6 -10.25 3.95 -8.95 5.2 L-7.35 6.0 Q-2.6 8.2 5.05 9.85 8.1 8.95 8.9 5.85 L10.7 -1.55 12.65 -11.1 M-8.95 5.2 Q-9.7 5.65 -10.65 6.85 -11.65 8.0 -12.1 9.25 -12.55 10.5 -12.3 11.9 -8.45 14.75 3.95 15.8 L5.05 13.5 5.35 11.4 Q5.4 10.25 5.05 9.85" fill="none" stroke="#000000" stroke-linecap="round" stroke-linejoin="round" stroke-width="2.0"/>
    <path d="M2.85 9.85 Q2.9 13.3 1.9 14.6 M-2.25 8.2 Q-3.75 11.45 -3.9 13.75 M-7.35 6.0 Q-10.2 10.25 -9.6 12.4" fill="none" stroke="#000000" stroke-linecap="round" stroke-linejoin="round" stroke-width="1.5"/>
  </g>
</svg>
