<?xml version="1.0" encoding="UTF-8" standalone="no"?>
<svg xmlns:xlink="http://www.w3.org/1999/xlink" height="55.4px" width="34.2px" xmlns="http://www.w3.org/2000/svg">
  <g transform="matrix(1.0, 0.0, 0.0, 1.0, 21.85, 14.95)">
    <path d="M-12.0 39.2 Q-12.95 37.3 -12.4 33.5 M0.35 33.0 Q0.85 35.75 0.5 37.4 M-5.35 39.35 Q-6.05 37.1 -5.4 33.35 M-17.1 37.55 Q-18.0 35.45 -17.1 32.3" fill="none" stroke="#000000" stroke-linecap="round" stroke-linejoin="round" stroke-width="1.5"/>
    <path d="M-5.35 39.35 Q2.0 38.7 4.55 35.0 4.15 32.95 4.4 29.2 1.9 32.15 -5.65 32.6 -13.25 33.0 -20.4 30.05 -21.3 34.15 -20.4 35.75 -19.2 37.9 -12.0 39.2 L-10.75 39.4 Q-7.8 39.55 -5.35 39.35 M4.4 29.2 Q5.4 27.0 5.7 18.6 L11.35 -8.65 M-1.85 -13.95 L-18.55 22.4 Q-21.2 28.05 -20.4 30.05" fill="none" stroke="#000000" stroke-linecap="round" stroke-linejoin="round" stroke-width="2.0"/>
  </g>
</svg>
