<?xml version="1.0" encoding="UTF-8" standalone="no"?>
<svg xmlns:xlink="http://www.w3.org/1999/xlink" height="31.55px" width="25.45px" xmlns="http://www.w3.org/2000/svg">
  <g transform="matrix(1.0, 0.0, 0.0, 1.0, 13.25, 14.8)">
    <path d="M-0.15 -13.8 Q-4.9 -4.1 -8.75 2.4 -10.45 5.3 -10.35 7.25 -4.35 10.25 4.45 11.15 6.3 10.0 6.65 6.6 L11.2 -10.05 M-3.45 11.35 Q-4.35 13.7 -4.1 15.05 L4.5 15.55 Q5.55 13.05 4.7 11.15 L4.45 11.15 M1.35 15.35 Q1.8 14.9 2.15 12.3 M-10.35 7.25 Q-12.1 9.5 -12.25 11.35 -12.4 12.6 -9.35 13.7 -9.7 11.65 -8.45 9.55 M-9.35 13.7 L-5.75 14.7 -4.1 15.05" fill="none" stroke="#000000" stroke-linecap="round" stroke-linejoin="round" stroke-width="2.0"/>
  </g>
</svg>
