<?xml version="1.0" encoding="UTF-8" standalone="no"?>
<svg xmlns:xlink="http://www.w3.org/1999/xlink" height="33.0px" width="31.6px" xmlns="http://www.w3.org/2000/svg">
  <g transform="matrix(1.0, 0.0, 0.0, 1.0, 17.15, 14.85)">
    <path d="M-12.15 0.55 L-10.15 -3.35 -9.45 -2.75 Q-6.7 -0.7 -0.05 1.6 7.15 3.4 10.7 2.8 L12.0 2.45 11.3 6.45 Q7.15 7.9 -0.9 5.65 -9.5 2.8 -12.15 0.55" fill="#fdfffd" fill-rule="evenodd" stroke="none"/>
    <path d="M-9.45 -2.75 Q-4.75 -10.3 -2.95 -14.1 M-12.15 0.55 L-10.15 -3.35 -9.45 -2.75 Q-6.7 -0.7 -0.05 1.6 7.15 3.4 10.7 2.8 12.3 -2.15 13.7 -9.8 M11.3 6.45 Q9.55 13.1 7.85 16.6 3.85 18.2 -4.8 16.55 -15.6 13.75 -16.4 11.1 -14.9 5.95 -12.15 0.55 -9.5 2.8 -0.9 5.65 7.15 7.9 11.3 6.45 L12.0 2.45 10.7 2.8" fill="none" stroke="#000000" stroke-linecap="round" stroke-linejoin="round" stroke-width="1.5"/>
  </g>
</svg>
