<?xml version="1.0" encoding="UTF-8" standalone="no"?>
<svg xmlns:xlink="http://www.w3.org/1999/xlink" height="17.55px" width="22.0px" xmlns="http://www.w3.org/2000/svg">
  <g transform="matrix(1.0, 0.0, 0.0, 1.0, 6.9, 19.45)">
    <path d="M12.0 -10.85 Q11.8 -10.2 11.4 -10.05 L10.5 -9.95 Q10.05 -10.15 9.8 -10.75 9.55 -11.2 9.7 -11.85 9.9 -12.45 10.45 -12.7 10.85 -13.1 11.4 -12.9 L12.05 -12.0 12.0 -10.85 M9.95 -6.65 Q9.7 -6.0 9.35 -5.9 L8.35 -5.8 Q7.95 -5.95 7.7 -6.55 7.5 -7.05 7.65 -7.65 7.8 -8.3 8.3 -8.5 8.8 -8.9 9.35 -8.7 L10.0 -7.8 Q10.15 -7.2 9.95 -6.65 M-3.85 -8.65 L-4.1 -8.9 M0.55 -7.9 L-3.85 -8.65" fill="none" stroke="#000000" stroke-linecap="round" stroke-linejoin="round" stroke-width="0.7000000000000001"/>
    <path d="M-4.1 -8.9 L-5.85 -10.25 Q-6.45 -11.25 -5.85 -12.25 -4.0 -14.1 -2.8 -16.35 -2.35 -17.85 -1.5 -18.7 4.3 -18.95 9.05 -15.95 13.8 -12.45 14.35 -9.6 14.2 -7.4 13.05 -6.8 11.95 -6.2 11.5 -5.45 12.3 -4.0 10.6 -2.7 8.95 -2.3 6.2 -4.05 1.45 -6.6 -3.85 -7.6 L-3.65 -8.5 -3.85 -8.65" fill="none" stroke="#000000" stroke-linecap="round" stroke-linejoin="round" stroke-width="1.5"/>
  </g>
</svg>
