<?xml version="1.0" encoding="UTF-8" standalone="no"?>
<svg xmlns:xlink="http://www.w3.org/1999/xlink" height="33.55px" width="26.35px" xmlns="http://www.w3.org/2000/svg">
  <g transform="matrix(1.0, 0.0, 0.0, 1.0, 13.85, 14.7)">
    <path d="M11.75 -10.7 L8.1 0.25 Q6.45 4.55 5.65 7.75 6.65 12.65 5.05 13.3 L4.95 13.3 Q5.3 15.6 5.05 16.65 L3.25 17.5 -0.25 18.1 -3.7 18.0 -4.0 17.95 -7.8 17.15 -10.95 16.0 Q-12.5 15.1 -13.05 14.05 -13.3 12.3 -11.3 9.6 L-12.8 7.45 Q-12.5 5.7 -9.55 4.6 L-6.1 -2.75 -0.7 -13.95 M-1.5 4.95 Q-6.65 3.55 -9.55 4.6 M-3.3 13.35 Q-4.15 16.4 -4.0 17.95 M-7.8 17.15 Q-7.55 14.95 -6.5 12.45 M-0.2 13.7 Q0.2 17.05 -0.25 18.1 M-10.95 16.0 Q-11.15 14.45 -9.75 11.3 M-11.3 9.6 Q-9.35 11.45 -5.65 12.25 -0.15 13.8 4.9 13.2 L4.95 13.3 M5.65 7.75 L5.45 6.75 M2.5 13.85 Q3.4 16.4 3.25 17.5" fill="none" stroke="#000000" stroke-linecap="round" stroke-linejoin="round" stroke-width="1.5"/>
  </g>
</svg>
