<?xml version="1.0" encoding="UTF-8" standalone="no"?>
<svg xmlns:xlink="http://www.w3.org/1999/xlink" height="20.75px" width="26.2px" xmlns="http://www.w3.org/2000/svg">
  <g transform="matrix(1.0, 0.0, 0.0, 1.0, 12.0, 25.7)">
    <path d="M0.35 -15.8 L-0.25 -15.9 -0.4 -16.7 0.0 -16.3 0.35 -15.8" fill="#fbfaff" fill-rule="evenodd" stroke="none"/>
    <path d="M-0.25 -15.9 L-0.4 -16.7 Q-0.9 -17.1 -1.6 -17.2 -2.6 -17.3 -3.4 -16.7 -4.25 -16.15 -4.35 -15.25 L-4.15 -14.05 -3.8 -13.55 Q-3.15 -12.8 -2.15 -12.7 L-1.95 -12.65 M-0.4 -16.7 L0.0 -16.3 0.35 -15.8 M-4.15 -14.05 Q-9.85 -15.6 -11.3 -20.0 L-7.35 -19.75 Q-5.6 -19.9 -4.6 -19.0 -4.85 -21.5 -1.8 -25.0 -1.6 -21.6 -0.45 -19.9 0.7 -18.2 -0.4 -16.7 M-4.6 -19.0 L-4.05 -17.1" fill="none" stroke="#000000" stroke-linecap="round" stroke-linejoin="round" stroke-width="1.4000000000000001"/>
    <path d="M-0.25 -15.9 L-1.3 -15.9 Q-2.7 -15.05 -1.95 -12.65 L-1.85 -12.35 Q-3.4 -11.4 -3.15 -9.45 -1.85 -8.5 0.6 -7.7 L4.8 -6.65 9.2 -6.1 10.45 -5.95 Q12.35 -7.4 11.6 -8.75 L11.9 -9.0 Q13.45 -10.45 13.15 -11.7 L11.6 -12.05 8.55 -12.9 4.2 -14.25 2.2 -15.25 0.5 -15.8 0.35 -15.8 -0.25 -15.9 Z" fill="none" stroke="#000000" stroke-linecap="round" stroke-linejoin="round" stroke-width="2.0"/>
  </g>
</svg>
