<?xml version="1.0" encoding="UTF-8" standalone="no"?>
<svg xmlns:xlink="http://www.w3.org/1999/xlink" height="50.2px" width="31.3px" xmlns="http://www.w3.org/2000/svg">
  <g transform="matrix(1.0, 0.0, 0.0, 1.0, 19.0, 15.2)">
    <path d="M10.2 -4.45 L11.3 -9.95 M-3.7 -7.9 L-7.1 -1.3 -7.75 -0.15 -13.5 10.65 -15.15 13.95 Q-16.45 16.85 -17.35 21.4 L-17.75 23.35 Q-18.35 27.0 -17.6 29.75 -14.85 31.85 -7.15 33.85 2.55 34.8 6.3 30.25 5.8 28.05 5.9 24.3 L5.95 23.05 6.3 14.7 6.4 14.35 Q7.05 9.8 8.3 4.85 L10.2 -4.45 M-3.7 -7.9 L-0.5 -14.2" fill="none" stroke="#000000" stroke-linecap="round" stroke-linejoin="round" stroke-width="2.0"/>
    <path d="M-7.75 -0.15 Q-6.5 1.75 -1.35 2.65 3.0 3.4 8.3 4.85 M10.2 -4.45 Q-1.25 -5.55 -3.7 -7.9 M5.95 23.05 Q-0.15 25.05 -7.2 24.1 -14.25 23.15 -17.35 21.4 M6.4 14.35 Q0.8 12.7 -5.7 12.35 -12.25 11.95 -13.5 10.65 L-13.9 10.55" fill="none" stroke="#000000" stroke-linecap="round" stroke-linejoin="round" stroke-width="1.0"/>
  </g>
</svg>
