<?xml version="1.0" encoding="UTF-8" standalone="no"?>
<svg xmlns:xlink="http://www.w3.org/1999/xlink" height="6.55px" width="17.85px" xmlns="http://www.w3.org/2000/svg">
  <g transform="matrix(1.0, 0.0, 0.0, 1.0, 9.1, 4.25)">
    <path d="M2.3 -1.7 L3.3 -1.45 4.7 -1.25 6.6 -1.55 4.65 1.7 2.3 -1.7 M-1.35 -1.8 L-4.15 1.8 -6.4 -1.45 -4.05 -1.15 -1.35 -1.8" fill="#ffffff" fill-rule="evenodd" stroke="none"/>
    <path d="M6.6 -1.55 L7.1 -1.85 7.1 -1.95 Q7.65 -2.35 8.0 -3.5 M2.3 -1.7 L3.3 -1.45 4.7 -1.25 6.6 -1.55 M2.3 -1.7 Q1.15 -2.05 0.1 -2.65 -0.6 -2.15 -1.35 -1.8 L-4.05 -1.15 -6.4 -1.45 Q-7.95 -2.0 -8.35 -3.2" fill="none" stroke="#000000" stroke-linecap="round" stroke-linejoin="round" stroke-width="1.5"/>
    <path d="M6.6 -1.55 L4.65 1.7 2.3 -1.7 M-1.35 -1.8 L-4.15 1.8 -6.4 -1.45" fill="none" stroke="#000000" stroke-linecap="round" stroke-linejoin="round" stroke-width="1.0"/>
  </g>
</svg>
