<?xml version="1.0" encoding="UTF-8" standalone="no"?>
<svg xmlns:xlink="http://www.w3.org/1999/xlink" height="6.95px" width="18.1px" xmlns="http://www.w3.org/2000/svg">
  <g transform="matrix(1.0, 0.0, 0.0, 1.0, 9.65, 5.3)">
    <path d="M6.2 1.05 Q-3.4 0.7 -9.15 1.15 -9.0 -2.45 -7.55 -4.8 -1.65 -4.85 5.7 -2.7 6.5 -0.65 6.2 1.05 M-6.3 -2.0 L-6.45 -2.0 -3.0 -1.45 5.5 -0.75 Q-2.0 -2.45 -4.5 -2.35 -7.1 -2.25 -6.3 -2.0" fill="#ffffff" fill-rule="evenodd" stroke="none"/>
    <path d="M5.7 -2.7 L7.6 -1.8 Q8.25 0.3 7.7 1.1 L6.2 1.05 Q6.5 -0.65 5.7 -2.7" fill="#4d1414" fill-rule="evenodd" stroke="none"/>
    <path d="M-6.3 -2.0 Q-7.1 -2.25 -4.5 -2.35 -2.0 -2.45 5.5 -0.75 L-3.0 -1.45 -6.45 -2.0 -6.3 -2.0" fill="#cccccc" fill-rule="evenodd" stroke="none"/>
    <path d="M5.7 -2.7 L7.6 -1.8 Q8.25 0.3 7.7 1.1 L6.2 1.05 Q-3.4 0.7 -9.15 1.15 -9.0 -2.45 -7.55 -4.8 -1.65 -4.85 5.7 -2.7 Z" fill="none" stroke="#000000" stroke-linecap="round" stroke-linejoin="round" stroke-width="1.0"/>
  </g>
</svg>
