<?xml version="1.0" encoding="UTF-8" standalone="no"?>
<svg xmlns:xlink="http://www.w3.org/1999/xlink" height="7.2px" width="18.35px" xmlns="http://www.w3.org/2000/svg">
  <g transform="matrix(1.0, 0.0, 0.0, 1.0, 9.4, 4.8)">
    <path d="M5.45 -3.5 L8.45 -3.8 Q7.4 -0.9 5.35 0.3 6.9 -1.65 5.45 -3.5" fill="#311212" fill-rule="evenodd" stroke="none"/>
    <path d="M5.45 -3.5 Q6.9 -1.65 5.35 0.3 2.25 2.1 -2.4 1.85 -6.65 1.1 -8.1 -1.75 L-3.8 -1.55 -8.55 -2.65 -8.9 -4.3 -2.45 -3.8 5.45 -3.5" fill="#ffffff" fill-rule="evenodd" stroke="none"/>
    <path d="M-8.1 -1.75 L-8.15 -1.75 -8.35 -2.3 -8.4 -2.4 -8.55 -2.65 -3.8 -1.55 -8.1 -1.75 -8.35 -2.3 -8.1 -1.75" fill="#bdbdbd" fill-rule="evenodd" stroke="none"/>
    <path d="M5.35 0.3 Q7.4 -0.9 8.45 -3.8 L5.45 -3.5 -2.45 -3.8 -8.9 -4.3 -8.55 -2.65 -8.4 -2.4 -8.35 -2.3 -8.1 -1.75 Q-6.65 1.1 -2.4 1.85 2.25 2.1 5.35 0.3 Z" fill="none" stroke="#000000" stroke-linecap="round" stroke-linejoin="round" stroke-width="1.0"/>
  </g>
</svg>
