<?xml version="1.0" encoding="UTF-8" standalone="no"?>
<svg xmlns:xlink="http://www.w3.org/1999/xlink" height="10.2px" width="23.6px" xmlns="http://www.w3.org/2000/svg">
  <g transform="matrix(1.0, 0.0, 0.0, 1.0, 12.75, 7.4)">
    <path d="M2.7 -6.3 Q3.95 -5.9 5.15 -5.15 8.75 -3.1 10.2 1.6 L7.35 1.55 Q2.35 1.35 -3.25 1.6 L-12.1 2.15 Q-10.5 -1.25 -7.95 -3.5 L-5.6 -5.15 Q-1.3 -7.55 2.7 -6.3 3.75 -2.95 3.65 0.85 3.75 -2.95 2.7 -6.3 M-3.75 -5.15 Q-2.95 -1.0 -3.25 1.6 -2.95 -1.0 -3.75 -5.15 M-7.5 1.4 Q-7.25 -1.45 -7.95 -3.5 -7.25 -1.45 -7.5 1.4 M7.35 -2.85 Q7.85 -0.5 7.35 1.55 7.85 -0.5 7.35 -2.85" fill="#ffffff" fill-rule="evenodd" stroke="none"/>
    <path d="M2.7 -6.3 Q3.95 -5.9 5.15 -5.15 8.75 -3.1 10.2 1.6 L7.35 1.55 Q2.35 1.35 -3.25 1.6 L-12.1 2.15 Q-10.5 -1.25 -7.95 -3.5 L-5.6 -5.15 Q-1.3 -7.55 2.7 -6.3 3.75 -2.95 3.65 0.85 M7.35 1.55 Q7.85 -0.5 7.35 -2.85 M-7.95 -3.5 Q-7.25 -1.45 -7.5 1.4 M-3.25 1.6 Q-2.95 -1.0 -3.75 -5.15" fill="none" stroke="#000000" stroke-linecap="round" stroke-linejoin="round" stroke-width="1.3"/>
  </g>
</svg>
