<?xml version="1.0" encoding="UTF-8" standalone="no"?>
<svg xmlns:xlink="http://www.w3.org/1999/xlink" height="14.8px" width="28.55px" xmlns="http://www.w3.org/2000/svg">
  <g transform="matrix(1.0, 0.0, 0.0, 1.0, 14.3, 7.4)">
    <path d="M-9.45 -4.3 L-8.3 -3.7 -4.55 -1.9 -3.75 -1.55 Q-0.3 -0.15 3.05 0.65 L3.45 0.75 8.65 1.6 Q11.25 1.85 13.75 1.7 11.95 4.05 9.6 5.35 7.5 6.45 4.95 6.8 L4.9 6.8 -0.85 6.5 -2.05 6.1 -2.1 6.1 -5.9 4.5 -7.75 3.5 Q-10.1 2.05 -11.5 0.35 -14.15 -2.8 -13.75 -6.9 L-9.45 -4.35 -9.45 -4.3 -7.75 3.5 -3.75 -1.55 -2.1 6.1 -3.75 -1.55 -7.75 3.5 -9.45 -4.3 M3.05 0.65 L-2.05 6.1 3.05 0.65 4.9 6.8 3.05 0.65 M-9.45 -4.35 L-11.5 0.35 -9.45 -4.35 M8.65 1.6 L4.95 6.8 8.65 1.6 9.6 5.35 8.65 1.6" fill="#d5d3e7" fill-rule="evenodd" stroke="none"/>
    <path d="M-9.45 -4.3 L-8.3 -3.7 -4.55 -1.9 -3.75 -1.55 Q-0.3 -0.15 3.05 0.65 L3.45 0.75 8.65 1.6 Q11.25 1.85 13.75 1.7 11.95 4.05 9.6 5.35 7.5 6.45 4.95 6.8 L4.9 6.8 -0.85 6.5 -2.05 6.1 -2.1 6.1 -5.9 4.5 -7.75 3.5 Q-10.1 2.05 -11.5 0.35 -14.15 -2.8 -13.75 -6.9 L-9.45 -4.35 -9.45 -4.3" fill="none" stroke="#000000" stroke-linecap="round" stroke-linejoin="round" stroke-width="1.0"/>
    <path d="M-9.45 -4.3 L-7.75 3.5 -3.75 -1.55 -2.1 6.1 M8.65 1.6 L9.6 5.35 M4.95 6.8 L8.65 1.6 M3.05 0.65 L4.9 6.8 M-11.5 0.35 L-9.45 -4.35 M-2.05 6.1 L3.05 0.65" fill="none" stroke="#000000" stroke-linecap="round" stroke-linejoin="round" stroke-width="0.05"/>
  </g>
</svg>
