<?xml version="1.0" encoding="UTF-8" standalone="no"?>
<svg xmlns:xlink="http://www.w3.org/1999/xlink" height="8.75px" width="14.0px" xmlns="http://www.w3.org/2000/svg">
  <g transform="matrix(1.0, 0.0, 0.0, 1.0, 8.05, 5.9)">
    <path d="M0.25 -2.55 L5.45 -1.6 Q5.15 0.3 2.8 1.45 L2.45 1.6 Q2.25 -1.6 0.25 -2.55" fill="#431515" fill-rule="evenodd" stroke="none"/>
    <path d="M0.25 -2.55 Q2.25 -1.6 2.45 1.6 0.35 2.5 -1.5 2.35 -7.6 2.2 -7.55 -5.4 -6.15 -4.0 0.25 -2.55" fill="#ec839a" fill-rule="evenodd" stroke="none"/>
    <path d="M2.45 1.6 L2.8 1.45 Q5.15 0.3 5.45 -1.6 L0.25 -2.55 Q-6.15 -4.0 -7.55 -5.4 -7.6 2.2 -1.5 2.35 0.35 2.5 2.45 1.6 Z" fill="none" stroke="#000000" stroke-linecap="round" stroke-linejoin="round" stroke-width="1.0"/>
  </g>
</svg>
