<?xml version="1.0" encoding="UTF-8" standalone="no"?>
<svg xmlns:xlink="http://www.w3.org/1999/xlink" height="9.7px" width="10.85px" xmlns="http://www.w3.org/2000/svg">
  <g transform="matrix(1.0, 0.0, 0.0, 1.0, 5.7, 6.05)">
    <path d="M-0.9 -3.45 L-0.3 -5.4 0.5 -5.45 Q4.05 -4.6 4.55 1.5 L3.9 2.05 Q2.9 -2.1 -0.9 -3.45" fill="#7b2a3c" fill-rule="evenodd" stroke="none"/>
    <path d="M-3.15 -3.55 Q-2.05 -5.2 -0.3 -5.4 L-0.9 -3.45 -1.45 -1.6 -3.15 -3.55" fill="#ffffff" fill-rule="evenodd" stroke="none"/>
    <path d="M-3.15 -3.55 L-1.45 -1.6 -0.9 -3.45 Q2.9 -2.1 3.9 2.05 2.85 2.65 0.15 3.0 -4.7 3.25 -5.1 1.85 -4.5 -1.75 -3.15 -3.55" fill="#ec839a" fill-rule="evenodd" stroke="none"/>
    <path d="M-3.15 -3.55 L-1.45 -1.6 -0.9 -3.45 -0.3 -5.4 M3.9 2.05 Q2.9 -2.1 -0.9 -3.45" fill="none" stroke="#000000" stroke-linecap="round" stroke-linejoin="round" stroke-width="0.5"/>
    <path d="M-0.3 -5.4 Q-2.05 -5.2 -3.15 -3.55 -4.5 -1.75 -5.1 1.85 -4.7 3.25 0.15 3.0 2.85 2.65 3.9 2.05 L4.55 1.5 Q4.05 -4.6 0.5 -5.45 L-0.3 -5.4" fill="none" stroke="#000000" stroke-linecap="round" stroke-linejoin="round" stroke-width="1.2000000000000002"/>
  </g>
</svg>
