<?xml version="1.0" encoding="UTF-8" standalone="no"?>
<svg xmlns:xlink="http://www.w3.org/1999/xlink" height="9.05px" width="22.15px" xmlns="http://www.w3.org/2000/svg">
  <g transform="matrix(1.0, 0.0, 0.0, 1.0, 12.05, 5.15)">
    <path d="M3.5 -4.5 L5.95 -4.4 Q9.65 -4.2 9.5 -3.75 9.45 -2.7 8.95 -1.7 L8.1 -0.3 Q7.15 -1.95 4.9 -3.0 5.45 -3.35 5.8 -4.05 L3.5 -4.5 M5.95 -4.4 L5.8 -4.05 5.95 -4.4" fill="#6d3335" fill-rule="evenodd" stroke="none"/>
    <path d="M-9.5 -4.25 L-0.5 -4.5 3.5 -4.5 5.8 -4.05 Q5.45 -3.35 4.9 -3.0 L-5.05 -2.7 Q-9.35 -3.5 -9.5 -4.25" fill="#ffffff" fill-rule="evenodd" stroke="none"/>
    <path d="M8.1 -0.3 Q5.8 2.9 0.15 3.3 -11.15 3.2 -11.45 -3.8 L-9.5 -4.25 Q-9.35 -3.5 -5.05 -2.7 L4.9 -3.0 Q7.15 -1.95 8.1 -0.3" fill="#ec839a" fill-rule="evenodd" stroke="none"/>
    <path d="M3.5 -4.5 L5.8 -4.05 5.95 -4.4 M4.9 -3.0 Q5.45 -3.35 5.8 -4.05 M4.9 -3.0 Q7.15 -1.95 8.1 -0.3 M-9.5 -4.25 Q-9.35 -3.5 -5.05 -2.7 L4.9 -3.0" fill="none" stroke="#000000" stroke-linecap="round" stroke-linejoin="round" stroke-width="0.30000000000000004"/>
    <path d="M3.5 -4.5 L5.95 -4.4 Q9.65 -4.2 9.5 -3.75 9.45 -2.7 8.95 -1.7 L8.1 -0.3 Q5.8 2.9 0.15 3.3 -11.15 3.2 -11.45 -3.8 L-9.5 -4.25 -0.5 -4.5 3.5 -4.5 Z" fill="none" stroke="#000000" stroke-linecap="round" stroke-linejoin="round" stroke-width="1.2000000000000002"/>
  </g>
</svg>
