<?xml version="1.0" encoding="UTF-8" standalone="no"?>
<svg xmlns:xlink="http://www.w3.org/1999/xlink" height="10.05px" width="12.4px" xmlns="http://www.w3.org/2000/svg">
  <g transform="matrix(1.0, 0.0, 0.0, 1.0, 6.25, 5.85)">
    <path d="M3.7 -3.4 Q2.5 -2.4 1.1 -2.25 -0.7 -2.05 -3.0 -3.0 -1.15 -5.05 1.2 -5.2 2.5 -5.15 3.7 -3.4" fill="#ffffff" fill-rule="evenodd" stroke="none"/>
    <path d="M1.1 -2.25 Q2.5 -2.4 3.7 -3.4 L5.5 0.65 Q5.25 1.85 3.85 2.6 3.5 -1.35 1.1 -2.25" fill="#622a2d" fill-rule="evenodd" stroke="none"/>
    <path d="M-3.0 -3.0 Q-0.7 -2.05 1.1 -2.25 3.5 -1.35 3.85 2.6 2.45 3.25 0.0 3.55 -5.65 3.2 -5.6 1.0 -4.4 -1.55 -3.0 -3.0" fill="#ec839a" fill-rule="evenodd" stroke="none"/>
    <path d="M1.1 -2.25 Q2.5 -2.4 3.7 -3.4 M-3.0 -3.0 Q-0.7 -2.05 1.1 -2.25 3.5 -1.35 3.85 2.6" fill="none" stroke="#000000" stroke-linecap="round" stroke-linejoin="round" stroke-width="0.30000000000000004"/>
    <path d="M3.7 -3.4 Q2.5 -5.15 1.2 -5.2 -1.15 -5.05 -3.0 -3.0 -4.4 -1.55 -5.6 1.0 -5.65 3.2 0.0 3.55 2.45 3.25 3.85 2.6 5.25 1.85 5.5 0.65 L3.7 -3.4" fill="none" stroke="#000000" stroke-linecap="round" stroke-linejoin="round" stroke-width="1.3"/>
  </g>
</svg>
