<?xml version="1.0" encoding="UTF-8" standalone="no"?>
<svg xmlns:xlink="http://www.w3.org/1999/xlink" height="8.7px" width="21.45px" xmlns="http://www.w3.org/2000/svg">
  <g transform="matrix(1.0, 0.0, 0.0, 1.0, 11.1, 5.45)">
    <path d="M-0.15 -4.1 L1.55 -4.4 Q7.4 -2.4 9.75 -4.8 9.0 -1.95 5.4 1.2 3.95 -2.25 -0.15 -4.1" fill="#4a2024" fill-rule="evenodd" stroke="none"/>
    <path d="M5.4 1.2 L2.45 2.25 -1.8 2.65 Q-6.25 2.7 -10.5 -4.85 -6.7 -2.95 -0.15 -4.1 3.95 -2.25 5.4 1.2" fill="#ec839a" fill-rule="evenodd" stroke="none"/>
    <path d="M-0.15 -4.1 L1.55 -4.4 Q7.4 -2.4 9.75 -4.8 9.0 -1.95 5.4 1.2 L2.45 2.25 -1.8 2.65 Q-6.25 2.7 -10.5 -4.85 -6.7 -2.95 -0.15 -4.1 Z" fill="none" stroke="#000000" stroke-linecap="round" stroke-linejoin="round" stroke-width="1.2000000000000002"/>
  </g>
</svg>
