<?xml version="1.0" encoding="UTF-8" standalone="no"?>
<svg xmlns:xlink="http://www.w3.org/1999/xlink" height="12.1px" width="18.5px" xmlns="http://www.w3.org/2000/svg">
  <g transform="matrix(1.0, 0.0, 0.0, 1.0, 9.9, 8.05)">
    <path d="M-1.0 -5.85 Q2.8 -5.8 6.35 -7.45 8.3 -6.2 7.95 -3.0 7.85 -0.7 6.7 0.8 4.75 -4.8 -1.0 -5.85" fill="#381c1f" fill-rule="evenodd" stroke="none"/>
    <path d="M6.7 0.8 Q4.8 3.15 0.2 3.45 -8.9 3.1 -9.3 -3.3 -9.15 -6.5 -7.3 -7.1 -4.05 -5.9 -1.0 -5.85 4.75 -4.8 6.7 0.8" fill="#ec839a" fill-rule="evenodd" stroke="none"/>
    <path d="M-1.0 -5.85 Q2.8 -5.8 6.35 -7.45 8.3 -6.2 7.95 -3.0 7.85 -0.7 6.7 0.8 4.8 3.15 0.2 3.45 -8.9 3.1 -9.3 -3.3 -9.15 -6.5 -7.3 -7.1 -4.05 -5.9 -1.0 -5.85 Z" fill="none" stroke="#000000" stroke-linecap="round" stroke-linejoin="round" stroke-width="1.2000000000000002"/>
  </g>
</svg>
