<?xml version="1.0" encoding="UTF-8" standalone="no"?>
<svg xmlns:xlink="http://www.w3.org/1999/xlink" height="13.4px" width="11.9px" xmlns="http://www.w3.org/2000/svg">
  <g transform="matrix(1.0, 0.0, 0.0, 1.0, 5.7, 8.65)">
    <path d="M-3.55 -5.55 Q-2.15 -7.4 -0.05 -8.15 L-0.4 -5.65 -1.35 -3.0 Q-3.1 -3.9 -3.55 -5.55" fill="#ffffff" fill-rule="evenodd" stroke="none"/>
    <path d="M-0.05 -8.15 L1.9 -8.05 Q5.4 -7.75 5.7 -3.5 3.2 -6.6 -0.4 -5.65 L-0.05 -8.15" fill="#4a0f26" fill-rule="evenodd" stroke="none"/>
    <path d="M5.7 -3.5 L5.55 -1.1 Q5.0 3.4 0.6 4.05 -6.05 5.35 -5.05 -2.75 L-3.55 -5.55 Q-3.1 -3.9 -1.35 -3.0 L-0.4 -5.65 Q3.2 -6.6 5.7 -3.5" fill="#ec839a" fill-rule="evenodd" stroke="none"/>
    <path d="M5.7 -3.5 L5.55 -1.1 Q5.0 3.4 0.6 4.05 -6.05 5.35 -5.05 -2.75 L-3.55 -5.55 Q-2.15 -7.4 -0.05 -8.15 L1.9 -8.05 Q5.4 -7.75 5.7 -3.5" fill="none" stroke="#000000" stroke-linecap="round" stroke-linejoin="round" stroke-width="1.0"/>
    <path d="M-0.4 -5.65 L-1.35 -3.0 Q-3.1 -3.9 -3.55 -5.55 M-0.4 -5.65 L-0.05 -8.15" fill="none" stroke="#000000" stroke-linecap="round" stroke-linejoin="round" stroke-width="0.5"/>
  </g>
</svg>
