<?xml version="1.0" encoding="UTF-8" standalone="no"?>
<svg xmlns:xlink="http://www.w3.org/1999/xlink" height="9.85px" width="17.85px" xmlns="http://www.w3.org/2000/svg">
  <g transform="matrix(1.0, 0.0, 0.0, 1.0, 9.25, 6.8)">
    <path d="M0.15 -4.2 L0.95 -4.3 8.1 -3.95 Q7.25 -1.45 5.55 0.15 3.55 -2.95 0.15 -4.2" fill="#541a1a" fill-rule="evenodd" stroke="none"/>
    <path d="M-8.7 -3.85 L-8.65 -6.3 -7.5 -5.25 Q-6.95 -4.85 -6.15 -4.55 L-4.65 -4.05 Q-4.9 -1.35 -5.8 -0.6 -7.85 -2.85 -8.15 -5.5 -8.8 -5.25 -8.7 -3.85" fill="#ffffff" fill-rule="evenodd" stroke="none"/>
    <path d="M5.55 0.15 Q3.8 1.8 0.9 2.4 -8.25 3.5 -8.7 -3.85 -8.8 -5.25 -8.15 -5.5 -7.85 -2.85 -5.8 -0.6 -4.9 -1.35 -4.65 -4.05 L0.15 -4.2 Q3.55 -2.95 5.55 0.15" fill="#ec839a" fill-rule="evenodd" stroke="none"/>
    <path d="M0.15 -4.2 L0.95 -4.3 8.1 -3.95 Q7.25 -1.45 5.55 0.15 3.8 1.8 0.9 2.4 -8.25 3.5 -8.7 -3.85 L-8.65 -6.3 -7.5 -5.25 Q-6.95 -4.85 -6.15 -4.55 L-4.65 -4.05 0.15 -4.2" fill="none" stroke="#000000" stroke-linecap="round" stroke-linejoin="round" stroke-width="1.0"/>
    <path d="M-8.7 -3.85 Q-8.8 -5.25 -8.15 -5.5 -7.85 -2.85 -5.8 -0.6 -4.9 -1.35 -4.65 -4.05" fill="none" stroke="#000000" stroke-linecap="round" stroke-linejoin="round" stroke-width="0.5"/>
  </g>
</svg>
