<?xml version="1.0" encoding="UTF-8" standalone="no"?>
<svg xmlns:xlink="http://www.w3.org/1999/xlink" height="15.65px" width="17.2px" xmlns="http://www.w3.org/2000/svg">
  <g transform="matrix(1.0, 0.0, 0.0, 1.0, 6.45, 7.0)">
    <path d="M6.0 -0.15 Q6.45 6.85 2.3 8.05 -1.95 8.35 -1.35 -0.15 1.35 -0.7 2.75 -2.6 L3.1 -3.2 3.5 -2.6 Q4.5 -0.8 6.0 -0.15" fill="#ec839a" fill-rule="evenodd" stroke="none"/>
    <path d="M6.0 -0.15 Q4.5 -0.8 3.5 -2.6 L3.1 -3.2 2.75 -2.6 Q1.35 -0.7 -1.35 -0.15 -1.95 8.35 2.3 8.05 6.45 6.85 6.0 -0.15 L8.0 0.2 Q9.9 -0.05 10.1 -2.05 10.35 -3.9 8.55 -6.4 M-1.35 -0.15 L-2.85 0.0 Q-7.1 0.35 -5.35 -6.25" fill="none" stroke="#000000" stroke-linecap="round" stroke-linejoin="round" stroke-width="1.2000000000000002"/>
  </g>
</svg>
