<?xml version="1.0" encoding="UTF-8" standalone="no"?>
<svg xmlns:xlink="http://www.w3.org/1999/xlink" height="21.5px" width="19.0px" xmlns="http://www.w3.org/2000/svg">
  <g transform="matrix(1.0, 0.0, 0.0, 1.0, 9.05, 6.15)">
    <path d="M-8.45 1.75 L-8.45 -2.75 Q-8.45 -5.6 -5.3 -5.55 L6.25 -5.4 Q9.35 -5.35 9.35 -2.5 L9.35 6.35 Q7.55 4.15 2.3 2.55 -3.0 0.9 -8.45 1.75" fill="#310c0c" fill-rule="evenodd" stroke="none"/>
    <path d="M9.35 6.35 L9.35 12.0 Q9.35 14.8 6.25 14.75 L-5.3 14.65 Q-8.45 14.6 -8.45 11.8 L-8.45 1.75 Q-3.0 0.9 2.3 2.55 7.55 4.15 9.35 6.35" fill="#ec839a" fill-rule="evenodd" stroke="none"/>
    <path d="M-8.45 1.75 L-8.45 -2.75 Q-8.45 -5.6 -5.3 -5.55 L6.25 -5.4 Q9.35 -5.35 9.35 -2.5 L9.35 6.35 9.35 12.0 Q9.35 14.8 6.25 14.75 L-5.3 14.65 Q-8.45 14.6 -8.45 11.8 L-8.45 1.75 Q-3.0 0.9 2.3 2.55 7.55 4.15 9.35 6.35" fill="none" stroke="#000000" stroke-linecap="round" stroke-linejoin="round" stroke-width="1.2000000000000002"/>
  </g>
</svg>
