<?xml version="1.0" encoding="UTF-8" standalone="no"?>
<svg xmlns:xlink="http://www.w3.org/1999/xlink" height="14.6px" width="16.95px" xmlns="http://www.w3.org/2000/svg">
  <g transform="matrix(1.0, 0.0, 0.0, 1.0, 8.15, 9.5)">
    <path d="M8.2 0.55 Q8.15 2.85 6.85 3.55 3.75 4.45 -1.05 4.5 -5.8 4.5 -7.55 3.6 L-7.1 1.05 Q-6.55 2.3 -0.85 2.5 L5.55 1.9 Q7.2 1.25 6.45 0.3 4.9 -0.8 3.1 -1.55 L4.3 -1.65 Q7.45 -1.0 8.2 0.55 M-2.4 -7.0 Q-0.7 -8.35 1.45 -8.85 3.3 -9.1 4.95 -8.05 L5.05 -7.1 Q4.2 -6.55 3.05 -6.35 -0.9 -6.15 -2.4 -7.0" fill="#ffffff" fill-rule="evenodd" stroke="none"/>
    <path d="M4.95 -8.05 Q6.2 -7.25 7.25 -5.6 8.2 -3.6 8.2 0.0 L8.2 0.55 Q7.45 -1.0 4.3 -1.65 L3.1 -1.55 -0.75 -2.8 -5.85 -2.5 Q-4.5 -5.4 -2.4 -7.0 -0.9 -6.15 3.05 -6.35 4.2 -6.55 5.05 -7.1 L4.95 -8.05" fill="#3c0a12" fill-rule="evenodd" stroke="none"/>
    <path d="M-7.1 1.05 L-5.85 -2.5 -0.75 -2.8 3.1 -1.55 Q4.9 -0.8 6.45 0.3 7.2 1.25 5.55 1.9 L-0.85 2.5 Q-6.55 2.3 -7.1 1.05" fill="#ec839a" fill-rule="evenodd" stroke="none"/>
    <path d="M4.95 -8.05 L5.05 -7.1 Q4.2 -6.55 3.05 -6.35 -0.9 -6.15 -2.4 -7.0 M3.1 -1.55 L4.3 -1.65 Q7.45 -1.0 8.2 0.55 M-7.1 1.05 Q-6.55 2.3 -0.85 2.5 L5.55 1.9 Q7.2 1.25 6.45 0.3 4.9 -0.8 3.1 -1.55 L-0.75 -2.8 -5.85 -2.5" fill="none" stroke="#000000" stroke-linecap="round" stroke-linejoin="round" stroke-width="0.5"/>
    <path d="M4.95 -8.05 Q6.2 -7.25 7.25 -5.6 8.2 -3.6 8.2 0.0 L8.2 0.55 Q8.15 2.85 6.85 3.55 3.75 4.45 -1.05 4.5 -5.8 4.5 -7.55 3.6 L-7.1 1.05 -5.85 -2.5 Q-4.5 -5.4 -2.4 -7.0 -0.7 -8.35 1.45 -8.85 3.3 -9.1 4.95 -8.05 Z" fill="none" stroke="#000000" stroke-linecap="round" stroke-linejoin="round" stroke-width="1.2000000000000002"/>
  </g>
</svg>
