<?xml version="1.0" encoding="UTF-8" standalone="no"?>
<svg xmlns:xlink="http://www.w3.org/1999/xlink" height="12.9px" width="12.9px" xmlns="http://www.w3.org/2000/svg">
  <g transform="matrix(1.0, 0.0, 0.0, 1.0, 6.1, 8.65)">
    <path d="M-5.45 -4.85 L-5.45 -8.0 6.15 -8.0 6.15 -4.85 -5.45 -4.85 M6.15 0.65 L6.15 3.6 -5.45 3.6 -5.45 0.65 6.15 0.65" fill="#ffffff" fill-rule="evenodd" stroke="none"/>
    <path d="M6.15 -4.85 L6.15 0.65 -5.45 0.65 -5.45 -4.85 6.15 -4.85" fill="#ec839a" fill-rule="evenodd" stroke="none"/>
    <path d="M-5.45 -4.85 L-5.45 -8.0 6.15 -8.0 6.15 -4.85 6.15 0.65 6.15 3.6 -5.45 3.6 -5.45 0.65 -5.45 -4.85 6.15 -4.85 M-5.45 0.65 L6.15 0.65" fill="none" stroke="#000000" stroke-linecap="round" stroke-linejoin="round" stroke-width="1.3"/>
  </g>
</svg>
