<?xml version="1.0" encoding="UTF-8" standalone="no"?>
<svg xmlns:xlink="http://www.w3.org/1999/xlink" height="12.95px" width="26.8px" xmlns="http://www.w3.org/2000/svg">
  <g transform="matrix(1.0, 0.0, 0.0, 1.0, 13.8, 8.45)">
    <path d="M-0.35 -5.75 Q1.45 -7.5 2.8 -7.75 4.05 -8.1 6.6 -6.65 L10.35 -6.45 Q12.6 -6.7 12.3 -3.5 11.65 -0.25 8.15 1.25 7.8 -0.8 6.0 -2.75 2.85 -5.6 -0.35 -5.75" fill="#310c0c" fill-rule="evenodd" stroke="none"/>
    <path d="M-0.35 -5.75 Q2.85 -5.6 6.0 -2.75 7.8 -0.8 8.15 1.25 L7.25 1.5 Q-1.95 4.4 -8.05 3.75 -12.75 3.2 -13.05 0.15 -13.6 -3.65 -10.45 -5.35 -8.75 -6.2 -6.15 -4.7 -3.25 -3.2 -1.15 -4.85 L-0.35 -5.75" fill="#ec839a" fill-rule="evenodd" stroke="none"/>
    <path d="M8.15 1.25 Q11.65 -0.25 12.3 -3.5 12.6 -6.7 10.35 -6.45 L6.6 -6.65 Q4.05 -8.1 2.8 -7.75 1.45 -7.5 -0.35 -5.75 L-1.15 -4.85 Q-3.25 -3.2 -6.15 -4.7 -8.75 -6.2 -10.45 -5.35 -13.6 -3.65 -13.05 0.15 -12.75 3.2 -8.05 3.75 -1.95 4.4 7.25 1.5 L8.15 1.25" fill="none" stroke="#000000" stroke-linecap="round" stroke-linejoin="round" stroke-width="1.3"/>
    <path d="M-0.35 -5.75 Q2.85 -5.6 6.0 -2.75 7.8 -0.8 8.15 1.25 Z" fill="none" stroke="#000000" stroke-linecap="round" stroke-linejoin="round" stroke-width="0.8"/>
  </g>
</svg>
