<?xml version="1.0" encoding="UTF-8" standalone="no"?>
<svg xmlns:xlink="http://www.w3.org/1999/xlink" height="13.75px" width="25.45px" xmlns="http://www.w3.org/2000/svg">
  <g transform="matrix(1.0, 0.0, 0.0, 1.0, 14.05, 7.25)">
    <path d="M9.7 -6.0 L7.75 -2.85 5.05 -6.65 2.55 -3.05 -0.45 -6.65 -3.65 -2.95 -6.6 -6.65 -9.4 -2.9 -12.25 -6.05 Q-11.4 -6.65 -9.95 -6.65 L-6.6 -6.65 -0.45 -6.65 5.05 -6.65 7.3 -6.65 Q8.8 -6.65 9.7 -6.0 M6.25 3.6 L7.4 2.0 9.9 5.05 Q9.15 5.75 7.85 5.9 L7.3 5.9 4.75 5.9 6.25 3.6 M4.5 5.9 L-1.25 5.9 -6.95 5.9 -9.95 5.9 Q-11.7 5.9 -12.6 5.05 L-9.8 2.15 -6.95 5.9 -4.05 2.05 -1.25 5.9 1.85 2.1 4.5 5.9" fill="#fafafa" fill-rule="evenodd" stroke="none"/>
    <path d="M9.7 -6.0 Q10.8 -5.15 10.8 -3.15 L10.8 2.45 Q10.8 4.2 9.9 5.05 L7.4 2.0 6.25 3.6 Q3.95 0.8 0.45 -0.5 -7.2 -3.15 -13.45 -1.6 L-13.45 -3.15 Q-13.45 -5.2 -12.25 -6.05 L-9.4 -2.9 -6.6 -6.65 -3.65 -2.95 -0.45 -6.65 2.55 -3.05 5.05 -6.65 7.75 -2.85 9.7 -6.0" fill="#460a14" fill-rule="evenodd" stroke="none"/>
    <path d="M-13.45 -1.6 Q-7.2 -3.15 0.45 -0.5 3.95 0.8 6.25 3.6 L4.75 5.9 4.5 5.9 1.85 2.1 -1.25 5.9 -4.05 2.05 -6.95 5.9 -9.8 2.15 -12.6 5.05 Q-13.45 4.15 -13.45 2.45 L-13.45 -1.6" fill="#ec839a" fill-rule="evenodd" stroke="none"/>
    <path d="M9.7 -6.0 L7.75 -2.85 5.05 -6.65 2.55 -3.05 -0.45 -6.65 -3.65 -2.95 -6.6 -6.65 -9.4 -2.9 -12.25 -6.05 M-13.45 -1.6 Q-7.2 -3.15 0.45 -0.5 3.95 0.8 6.25 3.6 L7.4 2.0 9.9 5.05 M-12.6 5.05 L-9.8 2.15 -6.95 5.9 -4.05 2.05 -1.25 5.9 1.85 2.1 4.5 5.9 M4.75 5.9 L6.25 3.6" fill="none" stroke="#000000" stroke-linecap="round" stroke-linejoin="round" stroke-width="0.4"/>
    <path d="M9.9 5.05 Q10.8 4.2 10.8 2.45 L10.8 -3.15 Q10.8 -5.15 9.7 -6.0 8.8 -6.65 7.3 -6.65 L5.05 -6.65 -0.45 -6.65 -6.6 -6.65 -9.95 -6.65 Q-11.4 -6.65 -12.25 -6.05 -13.45 -5.2 -13.45 -3.15 L-13.45 -1.6 -13.45 2.45 Q-13.45 4.15 -12.6 5.05 -11.7 5.9 -9.95 5.9 L-6.95 5.9 -1.25 5.9 4.5 5.9 4.75 5.9 7.3 5.9 7.85 5.9 Q9.15 5.75 9.9 5.05" fill="none" stroke="#000000" stroke-linecap="round" stroke-linejoin="round" stroke-width="1.2000000000000002"/>
  </g>
</svg>
