<?xml version="1.0" encoding="UTF-8" standalone="no"?>
<svg xmlns:xlink="http://www.w3.org/1999/xlink" height="15.15px" width="31.2px" xmlns="http://www.w3.org/2000/svg">
  <g transform="matrix(1.0, 0.0, 0.0, 1.0, 17.45, 10.25)">
    <path d="M-14.0 -7.5 Q-8.6 -5.7 1.4 -6.15 L3.0 -6.3 Q8.55 -3.15 9.3 1.9 7.25 3.6 0.85 4.3 -15.4 4.6 -16.85 -5.85 -16.2 -6.75 -14.0 -7.5" fill="#ec839a" fill-rule="evenodd" stroke="none"/>
    <path d="M3.0 -6.3 L5.45 -6.8 Q6.35 -7.6 6.05 -8.95 L9.0 -8.15 Q11.95 -7.2 13.15 -5.9 13.0 -3.15 11.7 -0.85 10.35 1.4 9.3 1.9 8.55 -3.15 3.0 -6.3" fill="#381c1f" fill-rule="evenodd" stroke="none"/>
    <path d="M6.05 -8.95 Q6.35 -7.6 5.45 -6.8 L3.0 -6.3 1.4 -6.15 Q-8.6 -5.7 -14.0 -7.5 -12.3 -8.4 -9.75 -8.9 L-9.55 -8.95 -2.15 -9.65 -0.1 -9.65 6.05 -8.95" fill="#ffffff" fill-rule="evenodd" stroke="none"/>
    <path d="M3.0 -6.3 L5.45 -6.8 Q6.35 -7.6 6.05 -8.95 L-0.1 -9.65 -2.15 -9.65 -9.55 -8.95 -9.75 -8.9 Q-12.3 -8.4 -14.0 -7.5 -8.6 -5.7 1.4 -6.15 L3.0 -6.3 M9.3 1.9 Q10.35 1.4 11.7 -0.85 13.0 -3.15 13.15 -5.9 11.95 -7.2 9.0 -8.15 L6.05 -8.95 M9.3 1.9 Q7.25 3.6 0.85 4.3 -15.4 4.6 -16.85 -5.85 -16.2 -6.75 -14.0 -7.5" fill="none" stroke="#000000" stroke-linecap="round" stroke-linejoin="round" stroke-width="1.2000000000000002"/>
  </g>
</svg>
