<?xml version="1.0" encoding="UTF-8" standalone="no"?>
<svg xmlns:xlink="http://www.w3.org/1999/xlink" height="21.85px" width="19.85px" xmlns="http://www.w3.org/2000/svg">
  <g transform="matrix(1.0, 0.0, 0.0, 1.0, 6.9, 12.1)">
    <path d="M10.15 -1.5 L7.45 -0.95 -3.05 -0.5 Q-5.15 -0.95 -6.5 -2.05 -5.15 -0.95 -3.05 -0.5 -1.3 3.5 5.45 6.8 L6.45 9.25 6.35 9.35 Q-3.65 7.3 -6.5 -2.05 -4.7 -9.6 3.05 -11.5 -1.65 -7.45 -1.05 -3.05 L12.55 -2.15 10.15 -1.5" fill="#bd9a43" fill-rule="evenodd" stroke="none"/>
    <path d="M7.45 -0.95 L10.15 -1.5 Q9.6 6.8 6.45 9.25 L5.45 6.8 5.5 6.8 Q7.7 4.4 7.45 -0.95 M12.55 -2.15 L-1.05 -3.05 Q-1.65 -7.45 3.05 -11.5 L3.7 -11.7 Q12.35 -7.45 12.55 -2.15" fill="#fcdf76" fill-rule="evenodd" stroke="none"/>
    <path d="M7.45 -0.95 Q7.7 4.4 5.5 6.8 L5.45 6.8 Q-1.3 3.5 -3.05 -0.5 L7.45 -0.95" fill="#ec839a" fill-rule="evenodd" stroke="none"/>
    <path d="M10.15 -1.5 L7.45 -0.95 Q7.7 4.4 5.5 6.8 L5.45 6.8 Q-1.3 3.5 -3.05 -0.5 L7.45 -0.95 M6.45 9.25 Q9.6 6.8 10.15 -1.5 L12.55 -2.15 Q12.35 -7.45 3.7 -11.7 L3.05 -11.5 Q-4.7 -9.6 -6.5 -2.05 -5.15 -0.95 -3.05 -0.5 M-6.5 -2.05 Q-3.65 7.3 6.35 9.35 L6.45 9.25" fill="none" stroke="#000000" stroke-linecap="round" stroke-linejoin="round" stroke-width="0.8"/>
  </g>
</svg>
