<?xml version="1.0" encoding="UTF-8" standalone="no"?>
<svg xmlns:xlink="http://www.w3.org/1999/xlink" height="16.6px" width="22.85px" xmlns="http://www.w3.org/2000/svg">
  <g transform="matrix(1.0, 0.0, 0.0, 1.0, 9.7, 13.7)">
    <path d="M5.8 -2.9 Q7.4 -2.6 7.1 -4.6 6.6 -7.85 6.15 -8.05 4.85 -3.55 5.8 -2.9 M6.95 0.7 L5.75 0.35 5.25 0.2 4.4 -0.05 3.0 -0.05 2.7 -0.05 0.7 0.35 -0.25 0.7 -1.3 0.85 -2.75 0.85 Q-5.55 0.3 -6.25 -3.8 -6.0 -8.85 -3.05 -11.05 -0.55 -13.05 2.05 -13.25 4.0 -13.55 6.15 -12.35 L6.8 -11.7 7.6 -10.9 Q10.55 -7.7 10.55 -3.7 10.4 -0.6 8.8 0.35 8.6 0.35 8.4 0.5 L8.05 0.6 6.95 0.7 M-0.4 -2.9 Q0.55 -3.55 -0.75 -8.05 -1.2 -7.85 -1.7 -4.6 -1.95 -2.6 -0.4 -2.9" fill="#ecb3ac" fill-rule="evenodd" stroke="none"/>
    <path d="M5.8 -2.9 Q4.85 -3.55 6.15 -8.05 6.6 -7.85 7.1 -4.6 7.4 -2.6 5.8 -2.9 M-0.4 -2.9 Q-1.95 -2.6 -1.7 -4.6 -1.2 -7.85 -0.75 -8.05 0.55 -3.55 -0.4 -2.9" fill="#ac8381" fill-rule="evenodd" stroke="none"/>
    <path d="M-1.3 0.85 L-0.25 0.7 0.7 0.35 2.7 -0.05 3.0 -0.05 4.4 -0.05 5.25 0.2 5.75 0.35 6.95 0.7 Q2.95 4.25 -1.3 0.85" fill="#c99794" fill-rule="evenodd" stroke="none"/>
    <path d="M6.95 0.7 L5.75 0.35 5.25 0.2 4.4 -0.05 3.0 -0.05 2.7 -0.05 0.7 0.35 -0.25 0.7 -1.3 0.85 Q2.95 4.25 6.95 0.7 L8.05 0.6 8.4 0.5 Q8.6 0.35 8.8 0.35 10.4 -0.6 10.55 -3.7 10.55 -7.7 7.6 -10.9 L6.8 -11.7 6.15 -12.35 Q4.0 -13.55 2.05 -13.25 -0.55 -13.05 -3.05 -11.05 -6.0 -8.85 -6.25 -3.8 -5.55 0.3 -2.75 0.85 L-1.3 0.85 M-2.75 0.85 Q-8.0 1.65 -9.3 -1.55 M8.8 0.35 Q12.2 0.05 12.75 -2.35" fill="none" stroke="#000000" stroke-linecap="round" stroke-linejoin="round" stroke-width="0.8"/>
  </g>
</svg>
