<?xml version="1.0" encoding="UTF-8" standalone="no"?>
<svg xmlns:xlink="http://www.w3.org/1999/xlink" height="22.4px" width="25.5px" xmlns="http://www.w3.org/2000/svg">
  <g transform="matrix(1.0, 0.0, 0.0, 1.0, 10.8, 13.15)">
    <path d="M3.95 -5.75 Q1.9 -6.6 0.55 -7.5 -0.65 -8.55 -0.65 -9.75 -0.65 -10.95 0.55 -11.8 1.9 -12.65 3.85 -12.65 5.65 -12.65 7.0 -11.8 8.3 -10.95 8.4 -9.55 8.45 -8.35 7.2 -7.25 6.0 -6.15 3.95 -5.75" fill="#3a1d0f" fill-rule="evenodd" stroke="none"/>
    <path d="M4.1 -1.65 Q5.15 -0.2 6.6 0.5 9.25 8.0 3.45 8.7 -2.25 9.45 0.35 0.4 2.15 -0.35 4.1 -1.65" fill="#f37388" fill-rule="evenodd" stroke="none"/>
    <path d="M3.95 -5.75 Q1.9 -6.6 0.55 -7.5 -0.65 -8.55 -0.65 -9.75 -0.65 -10.95 0.55 -11.8 1.9 -12.65 3.85 -12.65 5.65 -12.65 7.0 -11.8 8.3 -10.95 8.4 -9.55 8.45 -8.35 7.2 -7.25 6.0 -6.15 3.95 -5.75 L4.1 -1.65 Q5.15 -0.2 6.6 0.5 8.2 1.25 10.25 1.25 14.2 0.65 14.2 -1.4 M4.1 -1.65 Q2.15 -0.35 0.35 0.4 -2.25 9.45 3.45 8.7 9.25 8.0 6.6 0.5 M0.35 0.4 Q-3.2 1.8 -6.45 1.25 -9.7 0.9 -10.3 -1.4" fill="none" stroke="#000000" stroke-linecap="round" stroke-linejoin="round" stroke-width="1.0"/>
  </g>
</svg>
