<?xml version="1.0" encoding="UTF-8" standalone="no"?>
<svg xmlns:xlink="http://www.w3.org/1999/xlink" height="21.45px" width="49.5px" xmlns="http://www.w3.org/2000/svg">
  <g transform="matrix(1.0, 0.0, 0.0, 1.0, 13.25, 20.4)">
    <path d="M35.75 -13.35 Q33.95 -12.85 35.3 -11.95 36.7 -11.3 19.55 -6.8 L14.55 -5.75 Q0.3 -3.0 -9.85 -6.95 L-9.2 -7.5 Q-8.25 -8.2 -7.2 -8.6 L-5.15 -9.05 -4.85 -9.8 Q-3.25 -17.3 4.25 -19.65 7.3 -20.1 10.3 -19.65 13.65 -19.4 17.4 -17.85 19.55 -17.05 21.7 -15.85 26.8 -13.1 35.55 -13.8 L35.75 -13.35" fill="#faae64" fill-rule="evenodd" stroke="none"/>
    <path d="M-9.85 -6.95 Q0.3 -3.0 14.55 -5.75 L19.55 -6.8 Q36.7 -11.3 35.3 -11.95 33.95 -12.85 35.75 -13.35 36.2 -7.75 21.45 -1.9 L12.3 -0.6 Q-14.25 2.6 -12.65 -3.0 -11.4 -5.4 -9.85 -6.95" fill="#d9713d" fill-rule="evenodd" stroke="none"/>
    <path d="M35.75 -13.35 L35.55 -13.8 Q26.8 -13.1 21.7 -15.85 19.55 -17.05 17.4 -17.85 13.65 -19.4 10.3 -19.65 7.3 -20.1 4.25 -19.65 -3.25 -17.3 -4.85 -9.8 L-5.15 -9.05 -7.2 -8.6 Q-8.25 -8.2 -9.2 -7.5 L-9.85 -6.95 Q-11.4 -5.4 -12.65 -3.0 -14.25 2.6 12.3 -0.6 L21.45 -1.9 Q36.2 -7.75 35.75 -13.35 Z" fill="none" stroke="#000000" stroke-linecap="round" stroke-linejoin="round" stroke-width="1.0"/>
  </g>
</svg>
