<?xml version="1.0" encoding="UTF-8" standalone="no"?>
<svg xmlns:xlink="http://www.w3.org/1999/xlink" height="16.75px" width="37.55px" xmlns="http://www.w3.org/2000/svg">
  <g transform="matrix(1.0, 0.0, 0.0, 1.0, 7.75, 5.4)">
    <path d="M5.4 -4.3 L6.3 -4.35 9.25 -4.85 6.8 0.95 6.8 0.75 Q7.0 -2.4 5.4 -4.3 M-3.8 0.4 L-7.25 -4.9 -1.7 -4.2 Q-4.05 -3.1 -3.8 0.4" fill="#314a24" fill-rule="evenodd" stroke="none"/>
    <path d="M6.65 0.95 L6.8 0.95 7.3 1.2 Q10.1 2.25 14.4 3.2 20.35 4.45 29.3 5.4 27.9 6.8 21.65 7.15 26.35 9.15 26.85 10.85 L23.45 10.5 Q14.2 6.8 6.2 1.4 L6.65 0.95 M19.9 6.2 Q19.5 5.85 16.95 5.0 14.4 4.1 13.85 4.35 13.25 4.65 16.4 5.85 19.5 6.9 21.0 6.9 L19.9 6.2" fill="#ff3c3c" fill-rule="evenodd" stroke="none"/>
    <path d="M5.4 -4.3 Q7.0 -2.4 6.8 0.75 L6.65 0.95 6.2 1.4 Q14.2 6.8 23.45 10.5 16.85 9.35 10.75 6.25 7.7 4.7 4.85 2.75 L4.65 2.85 3.95 3.35 Q3.7 3.45 3.85 3.55 L1.45 3.7 Q-1.0 3.6 -3.8 0.4 -4.05 -3.1 -1.7 -4.2 1.8 -3.95 5.4 -4.3 M19.9 6.2 L21.0 6.9 Q19.5 6.9 16.4 5.85 13.25 4.65 13.85 4.35 14.4 4.1 16.95 5.0 19.5 5.85 19.9 6.2 M3.3 -1.2 Q4.5 -0.15 6.65 0.95 4.5 -0.15 3.3 -1.2 M1.15 -0.15 L4.85 2.75 1.15 -0.15" fill="#b82b2b" fill-rule="evenodd" stroke="none"/>
    <path d="M6.8 0.75 L6.8 0.95 9.25 -4.85 6.3 -4.35 5.4 -4.3 Q7.0 -2.4 6.8 0.75 M6.65 0.95 L6.8 0.95 7.3 1.2 Q10.1 2.25 14.4 3.2 20.35 4.45 29.3 5.4 27.9 6.8 21.65 7.15 26.35 9.15 26.85 10.85 L23.45 10.5 Q16.85 9.35 10.75 6.25 7.7 4.7 4.85 2.75 L4.65 2.85 3.95 3.35 M3.85 3.55 L1.45 3.7 Q-1.0 3.6 -3.8 0.4 L-7.25 -4.9 -1.7 -4.2 Q1.8 -3.95 5.4 -4.3 M4.85 2.75 L1.15 -0.15 M6.65 0.95 Q4.5 -0.15 3.3 -1.2 M-1.7 -4.2 Q-4.05 -3.1 -3.8 0.4" fill="none" stroke="#000000" stroke-linecap="round" stroke-linejoin="round" stroke-width="1.0"/>
  </g>
</svg>
