<?xml version="1.0" encoding="UTF-8" standalone="no"?>
<svg xmlns:xlink="http://www.w3.org/1999/xlink" height="9.2px" width="18.6px" xmlns="http://www.w3.org/2000/svg">
  <g transform="matrix(1.0, 0.0, 0.0, 1.0, 8.8, 5.05)">
    <path d="M7.75 -3.55 L3.3 1.65 2.35 -4.6 Q5.15 -4.5 7.75 -3.55 M-0.75 -4.6 L-1.75 1.65 -6.7 -3.4 Q-3.55 -4.4 -0.75 -4.6" fill="#ececec" fill-rule="evenodd" stroke="none"/>
    <path d="M7.75 -3.55 L9.4 -2.85 Q8.65 1.3 1.8 3.75 -5.7 3.2 -8.4 -2.85 L-6.7 -3.4 -1.75 1.65 -0.75 -4.6 2.35 -4.6 3.3 1.65 7.75 -3.55" fill="#460f0f" fill-rule="evenodd" stroke="none"/>
    <path d="M-6.7 -3.4 L-8.4 -2.85 Q-5.7 3.2 1.8 3.75 8.65 1.3 9.4 -2.85 L7.75 -3.55 3.3 1.65 2.35 -4.6 -0.75 -4.6 -1.75 1.65 -6.7 -3.4 Q-3.55 -4.4 -0.75 -4.6 M7.75 -3.55 Q5.15 -4.5 2.35 -4.6" fill="none" stroke="#000000" stroke-linecap="round" stroke-linejoin="round" stroke-width="0.8"/>
  </g>
</svg>
