<?xml version="1.0" encoding="UTF-8" standalone="no"?>
<svg xmlns:xlink="http://www.w3.org/1999/xlink" height="8.9px" width="17.25px" xmlns="http://www.w3.org/2000/svg">
  <g transform="matrix(1.0, 0.0, 0.0, 1.0, 8.25, 4.6)">
    <path d="M-6.3 -3.55 Q-3.95 -3.0 1.55 -3.5 L3.55 -3.3 8.2 -3.7 5.9 -0.25 4.5 -2.35 3.55 -2.15 -2.35 -2.4 -4.35 -0.1 -6.3 -3.55" fill="#fcf9f4" fill-rule="evenodd" stroke="none"/>
    <path d="M8.2 -3.7 L8.75 -3.95 Q7.5 1.85 3.55 3.45 2.15 4.05 0.35 4.05 -7.55 3.5 -8.0 -4.35 L-7.95 -4.35 Q-7.55 -3.8 -6.3 -3.55 L-4.35 -0.1 -2.35 -2.4 3.55 -2.15 4.5 -2.35 5.9 -0.25 8.2 -3.7" fill="#0a050b" fill-rule="evenodd" stroke="none"/>
    <path d="M8.2 -3.7 L8.75 -3.95 Q7.5 1.85 3.55 3.45 2.15 4.05 0.35 4.05 -7.55 3.5 -8.0 -4.35 L-7.95 -4.35 Q-7.55 -3.8 -6.3 -3.55 -3.95 -3.0 1.55 -3.5 L3.55 -3.3 8.2 -3.7 Z" fill="none" stroke="#000000" stroke-linecap="round" stroke-linejoin="round" stroke-width="0.5"/>
  </g>
</svg>
