<?xml version="1.0" encoding="UTF-8" standalone="no"?>
<svg xmlns:xlink="http://www.w3.org/1999/xlink" height="8.5px" width="16.45px" xmlns="http://www.w3.org/2000/svg">
  <g transform="matrix(1.0, 0.0, 0.0, 1.0, 7.9, 4.75)">
    <path d="M1.8 -4.15 L6.1 -4.3 Q8.95 -3.1 7.8 1.65 L5.85 1.5 Q4.05 -1.1 -0.85 -1.45 L2.2 -1.95 1.8 -4.15 M-4.6 -1.55 Q-3.25 -2.75 -1.3 -3.4 L-0.95 -1.45 -4.6 -1.55" fill="#27141a" fill-rule="evenodd" stroke="none"/>
    <path d="M-1.3 -3.4 L1.8 -4.15 2.2 -1.95 -0.85 -1.45 -0.95 -1.45 -1.3 -3.4" fill="#ffffff" fill-rule="evenodd" stroke="none"/>
    <path d="M5.85 1.5 Q0.45 1.15 -7.5 3.35 -6.75 0.25 -4.6 -1.55 L-0.95 -1.45 -0.85 -1.45 Q4.05 -1.1 5.85 1.5" fill="#ec839a" fill-rule="evenodd" stroke="none"/>
    <path d="M1.8 -4.15 L6.1 -4.3 Q8.95 -3.1 7.8 1.65 L5.85 1.5 Q0.45 1.15 -7.5 3.35 -6.75 0.25 -4.6 -1.55 -3.25 -2.75 -1.3 -3.4 L1.8 -4.15 Z" fill="none" stroke="#000000" stroke-linecap="round" stroke-linejoin="round" stroke-width="0.8"/>
  </g>
</svg>
