<?xml version="1.0" encoding="UTF-8" standalone="no"?>
<svg xmlns:xlink="http://www.w3.org/1999/xlink" height="11.75px" width="41.4px" xmlns="http://www.w3.org/2000/svg">
  <g transform="matrix(1.0, 0.0, 0.0, 1.0, 21.05, 8.35)">
    <path d="M20.35 -8.35 Q18.5 -1.8 8.6 3.05 L7.5 1.25 6.05 3.25 Q1.55 3.6 -2.1 3.25 L-3.05 0.45 -5.25 2.8 Q-19.5 -3.25 -21.05 -8.3 -15.15 -5.05 -7.7 -3.25 L-4.95 -0.5 -2.2 -3.0 Q3.05 -2.7 8.05 -3.15 L10.0 -1.15 12.45 -3.95 Q17.05 -5.7 20.35 -8.35" fill="#000000" fill-rule="evenodd" stroke="none"/>
    <path d="M20.35 -8.35 Q18.5 -1.8 8.6 3.05 L7.5 1.25 6.05 3.25 Q1.55 3.6 -2.1 3.25 L-3.05 0.45 -5.25 2.8 Q-19.5 -3.25 -21.05 -8.3 -15.15 -5.05 -7.7 -3.25 L-4.95 -0.5 -2.2 -3.0 Q3.05 -2.7 8.05 -3.15 L10.0 -1.15 12.45 -3.95 Q17.05 -5.7 20.35 -8.35 Z" fill="none" stroke="#000000" stroke-linecap="round" stroke-linejoin="round" stroke-width="0.05"/>
  </g>
</svg>
