<?xml version="1.0" encoding="UTF-8" standalone="no"?>
<svg xmlns:xlink="http://www.w3.org/1999/xlink" height="18.2px" width="27.55px" xmlns="http://www.w3.org/2000/svg">
  <g transform="matrix(1.0, 0.0, 0.0, 1.0, 14.15, 11.25)">
    <path d="M12.65 -5.3 L10.45 -4.4 Q-0.3 -9.65 -9.55 -5.15 -12.05 -6.45 -12.8 -6.45 -13.5 -7.55 -13.65 -8.4 L-4.2 -9.65 Q3.2 -10.95 12.9 -6.65 L12.65 -5.3 M7.75 2.35 Q8.6 2.15 9.3 2.75 L8.45 4.4 Q7.85 5.7 7.05 6.0 L2.95 6.45 Q-0.3 6.5 -1.1 5.95 L-3.35 4.45 -5.25 3.0 Q1.75 4.85 6.5 3.5 7.95 3.2 7.75 2.35" fill="#fbfdfc" fill-rule="evenodd" stroke="none"/>
    <path d="M-10.25 -2.35 Q-1.1 -4.5 4.9 -0.6 L6.25 0.3 Q7.6 1.5 7.75 2.35 7.95 3.2 6.5 3.5 1.75 4.85 -5.25 3.0 L-7.55 1.15 Q-8.85 -0.1 -9.4 -1.05 L-10.25 -2.35" fill="#ec839a" fill-rule="evenodd" stroke="none"/>
    <path d="M-12.8 -6.45 Q-12.05 -6.45 -9.55 -5.15 -0.3 -9.65 10.45 -4.4 L12.65 -5.3 Q11.6 -1.65 9.3 2.75 8.6 2.15 7.75 2.35 7.6 1.5 6.25 0.3 L4.9 -0.6 Q-1.1 -4.5 -10.25 -2.35 L-10.3 -2.45 -12.8 -6.45" fill="#381c1f" fill-rule="evenodd" stroke="none"/>
    <path d="M12.65 -5.3 L10.45 -4.4 Q-0.3 -9.65 -9.55 -5.15 -12.05 -6.45 -12.8 -6.45 L-10.3 -2.45 -10.25 -2.35 Q-1.1 -4.5 4.9 -0.6 L6.25 0.3 Q7.6 1.5 7.75 2.35 8.6 2.15 9.3 2.75 11.6 -1.65 12.65 -5.3 L12.9 -6.65 Q3.2 -10.95 -4.2 -9.65 L-13.65 -8.4 Q-13.5 -7.55 -12.8 -6.45 M11.45 -8.7 L12.9 -6.65 M7.75 2.35 Q7.95 3.2 6.5 3.5 1.75 4.85 -5.25 3.0 L-3.35 4.45 -1.1 5.95 Q-0.3 6.5 2.95 6.45 L7.05 6.0 Q7.85 5.7 8.45 4.4 L9.3 2.75 M-5.25 3.0 L-7.55 1.15 Q-8.85 -0.1 -9.4 -1.05 L-10.25 -2.35 M-13.65 -8.4 Q-13.5 -9.2 -11.35 -10.75" fill="none" stroke="#000000" stroke-linecap="round" stroke-linejoin="round" stroke-width="1.0"/>
  </g>
</svg>
