<?xml version="1.0" encoding="UTF-8" standalone="no"?>
<svg xmlns:xlink="http://www.w3.org/1999/xlink" height="7.85px" width="30.45px" xmlns="http://www.w3.org/2000/svg">
  <g transform="matrix(1.0, 0.0, 0.0, 1.0, 15.45, 4.1)">
    <path d="M-8.35 -1.65 Q-9.65 -0.95 -9.95 -2.2 -10.0 -3.25 -8.8 -3.6 -7.45 -3.6 -7.5 -2.75 -7.15 -1.7 -8.35 -1.65 M-14.95 -1.2 Q-15.05 -2.3 -13.75 -2.2 -12.9 -2.25 -12.85 -1.45 -12.75 -0.45 -13.35 -0.2 -14.85 -0.35 -14.95 -1.2 M-5.8 2.95 Q-7.25 3.65 -8.15 2.7 -9.25 1.25 -7.55 0.55 -6.3 -0.2 -5.4 0.9 -4.65 2.3 -5.8 2.95" fill="#a99f95" fill-rule="evenodd" stroke="none"/>
    <path d="M-8.35 -1.65 Q-9.65 -0.95 -9.95 -2.2 -10.0 -3.25 -8.8 -3.6 -7.45 -3.6 -7.5 -2.75 -7.15 -1.7 -8.35 -1.65 M-14.95 -1.2 Q-15.05 -2.3 -13.75 -2.2 -12.9 -2.25 -12.85 -1.45 -12.75 -0.45 -13.35 -0.2 -14.85 -0.35 -14.95 -1.2 M14.5 -1.8 Q7.25 -2.15 -2.7 0.55 -1.9 1.7 -1.25 3.15 M-5.8 2.95 Q-7.25 3.65 -8.15 2.7 -9.25 1.25 -7.55 0.55 -6.3 -0.2 -5.4 0.9 -4.65 2.3 -5.8 2.95 M-5.2 -2.0 L-2.7 0.55" fill="none" stroke="#000000" stroke-linecap="round" stroke-linejoin="round" stroke-width="1.0"/>
  </g>
</svg>
