<?xml version="1.0" encoding="UTF-8" standalone="no"?>
<svg xmlns:xlink="http://www.w3.org/1999/xlink" height="10.65px" width="20.85px" xmlns="http://www.w3.org/2000/svg">
  <g transform="matrix(1.0, 0.0, 0.0, 1.0, 8.85, 5.5)">
    <path d="M9.55 -4.5 Q8.1 -2.4 4.3 -2.25 0.8 -1.7 -1.2 -2.7 L-2.55 -3.75 Q-0.65 -3.85 0.9 -4.4 3.15 -5.25 6.95 -4.9 L9.55 -4.5" fill="#efeee9" fill-rule="evenodd" stroke="none"/>
    <path d="M-2.55 -3.75 L-1.2 -2.7 Q-0.35 -1.05 1.95 -0.85 4.5 -0.55 6.0 2.65 L3.4 2.75 -0.1 2.75 -4.85 2.9 -6.35 2.55 Q-8.4 1.75 -8.35 -0.35 -8.2 -3.4 -4.45 -3.75 L-2.55 -3.75" fill="#bc5767" fill-rule="evenodd" stroke="none"/>
    <path d="M-6.35 2.55 L-4.85 2.9 Q-4.0 3.75 -4.65 4.8 -5.65 5.45 -6.35 2.55" fill="#fffaf4" fill-rule="evenodd" stroke="none"/>
    <path d="M-1.2 -2.7 Q0.8 -1.7 4.3 -2.25 8.1 -2.4 9.55 -4.5 11.9 -3.8 11.4 -1.85 11.45 0.75 9.05 2.0 L6.0 2.65 Q4.5 -0.55 1.95 -0.85 -0.35 -1.05 -1.2 -2.7" fill="#381c1f" fill-rule="evenodd" stroke="none"/>
    <path d="M-1.2 -2.7 Q0.8 -1.7 4.3 -2.25 8.1 -2.4 9.55 -4.5 L6.95 -4.9 Q3.15 -5.25 0.9 -4.4 -0.65 -3.85 -2.55 -3.75 L-1.2 -2.7 M6.0 2.65 L9.05 2.0 Q11.45 0.75 11.4 -1.85 11.9 -3.8 9.55 -4.5 M-4.85 2.9 L-0.1 2.75 3.4 2.75 6.0 2.65 M-2.55 -3.75 L-4.45 -3.75 Q-8.2 -3.4 -8.35 -0.35 -8.4 1.75 -6.35 2.55 L-4.85 2.9" fill="none" stroke="#000000" stroke-linecap="round" stroke-linejoin="round" stroke-width="1.0"/>
    <path d="M-4.65 4.8 Q-5.65 5.45 -6.35 2.55" fill="none" stroke="#000000" stroke-linecap="round" stroke-linejoin="round" stroke-width="0.5"/>
  </g>
</svg>
