<?xml version="1.0" encoding="UTF-8" standalone="no"?>
<svg xmlns:xlink="http://www.w3.org/1999/xlink" height="6.9px" width="9.85px" xmlns="http://www.w3.org/2000/svg">
  <g transform="matrix(1.0, 0.0, 0.0, 1.0, 3.9, 3.65)">
    <path d="M2.2 -3.15 L2.2 -0.85 -0.3 -0.85 -0.3 -2.95 0.85 -3.1 2.2 -3.15" fill="#fcfcfc" fill-rule="evenodd" stroke="none"/>
    <path d="M-0.3 -2.95 L-0.3 -0.85 2.2 -0.85 2.2 -3.15 Q5.25 -3.1 5.45 -0.35 5.55 2.35 1.85 2.75 -2.4 2.8 -3.25 0.05 -4.05 -2.35 -0.3 -2.95" fill="#ec839a" fill-rule="evenodd" stroke="none"/>
    <path d="M-0.3 -2.95 L-0.3 -0.85 2.2 -0.85 2.2 -3.15 0.85 -3.1 -0.3 -2.95 Q-4.05 -2.35 -3.25 0.05 -2.4 2.8 1.85 2.75 5.55 2.35 5.45 -0.35 5.25 -3.1 2.2 -3.15" fill="none" stroke="#000000" stroke-linecap="round" stroke-linejoin="round" stroke-width="1.0"/>
  </g>
</svg>
