<?xml version="1.0" encoding="UTF-8" standalone="no"?>
<svg xmlns:xlink="http://www.w3.org/1999/xlink" height="7.85px" width="24.0px" xmlns="http://www.w3.org/2000/svg">
  <g transform="matrix(1.0, 0.0, 0.0, 1.0, 11.65, 5.2)">
    <path d="M-9.0 -2.2 Q-6.75 -2.5 -2.3 -4.05 2.1 -5.3 5.65 -4.1 7.85 -3.1 11.85 -2.65 L11.45 -2.05 Q9.9 0.1 7.6 1.15 L7.15 1.35 Q4.7 2.3 1.55 2.1 L-5.1 1.9 -5.7 1.85 -5.75 1.85 -6.5 1.7 Q-7.65 1.45 -8.6 0.75 -8.0 0.45 -7.15 0.3 L-6.4 0.15 -8.05 -1.45 -9.0 -2.2 M6.8 -0.5 L6.05 -0.05 2.3 0.4 Q-5.25 0.55 -4.15 -1.0 L-5.75 0.75 -6.4 0.15 -5.75 0.75 -4.15 -1.0 Q-5.25 0.55 2.3 0.4 L6.05 -0.05 6.8 -0.5 M6.05 -0.05 L7.6 1.15 6.05 -0.05" fill="#ffffff" fill-rule="evenodd" stroke="none"/>
    <path d="M-9.0 -2.2 L-8.05 -1.45 -6.4 0.15 -7.15 0.3 Q-8.0 0.45 -8.6 0.75 L-8.8 0.6 Q-10.15 -0.45 -11.15 -2.35 L-9.0 -2.2" fill="#000000" fill-rule="evenodd" stroke="none"/>
    <path d="M7.6 1.15 Q9.9 0.1 11.45 -2.05 L11.85 -2.65 Q7.85 -3.1 5.65 -4.1 2.1 -5.3 -2.3 -4.05 -6.75 -2.5 -9.0 -2.2 L-11.15 -2.35 Q-10.15 -0.45 -8.8 0.6 L-8.6 0.75 Q-7.65 1.45 -6.5 1.7 L-5.75 1.85 -5.7 1.85 -5.1 1.9 1.55 2.1 Q4.7 2.3 7.15 1.35 L7.6 1.15" fill="none" stroke="#000000" stroke-linecap="round" stroke-linejoin="round" stroke-width="1.0"/>
    <path d="M-9.0 -2.2 L-8.05 -1.45 -6.4 0.15 -5.75 0.75 -4.15 -1.0 Q-5.25 0.55 2.3 0.4 L6.05 -0.05 6.8 -0.5 M7.6 1.15 L6.05 -0.05" fill="none" stroke="#000000" stroke-linecap="round" stroke-linejoin="round" stroke-width="0.8"/>
  </g>
</svg>
