<?xml version="1.0" encoding="UTF-8" standalone="no"?>
<svg xmlns:xlink="http://www.w3.org/1999/xlink" height="12.0px" width="26.9px" xmlns="http://www.w3.org/2000/svg">
  <g transform="matrix(1.0, 0.0, 0.0, 1.0, 12.55, 7.75)">
    <path d="M13.85 -7.25 L12.55 0.65 Q4.35 3.4 -7.3 3.75 -9.2 1.0 -12.05 -0.35 L-9.35 -4.7 -7.0 -2.55 -3.7 -5.55 -0.7 -2.55 Q0.4 -4.95 2.25 -6.2 L5.05 -3.25 9.05 -6.55 10.2 -3.9 13.85 -7.25" fill="#ec839a" fill-rule="evenodd" stroke="none"/>
    <path d="M13.85 -7.25 L12.55 0.65 Q4.35 3.4 -7.3 3.75 -9.2 1.0 -12.05 -0.35 L-9.35 -4.7 -7.0 -2.55 -3.7 -5.55 -0.7 -2.55 Q0.4 -4.95 2.25 -6.2 L5.05 -3.25 9.05 -6.55 10.2 -3.9 13.85 -7.25 Z" fill="none" stroke="#000000" stroke-linecap="round" stroke-linejoin="round" stroke-width="1.0"/>
  </g>
</svg>
