<?xml version="1.0" encoding="UTF-8" standalone="no"?>
<svg xmlns:xlink="http://www.w3.org/1999/xlink" height="9.65px" width="20.85px" xmlns="http://www.w3.org/2000/svg">
  <g transform="matrix(1.0, 0.0, 0.0, 1.0, 10.0, 5.25)">
    <path d="M6.85 2.8 Q4.4 4.05 0.4 4.0 -4.3 4.1 -7.35 1.5 0.35 2.8 3.7 1.5 L-0.6 -2.5 Q-3.05 -2.8 -4.45 -3.95 -0.4 -5.15 4.45 -4.75 7.35 -4.25 8.9 -3.55 5.1 -2.6 2.25 -2.4 7.25 1.45 6.85 2.8 M2.25 -2.4 L-0.6 -2.5 2.25 -2.4" fill="#fcffff" fill-rule="evenodd" stroke="none"/>
    <path d="M-7.35 1.5 Q-8.9 0.85 -9.6 -1.75 -7.2 -3.2 -4.45 -3.95 -3.05 -2.8 -0.6 -2.5 L3.7 1.5 Q0.35 2.8 -7.35 1.5" fill="#ec839a" fill-rule="evenodd" stroke="none"/>
    <path d="M8.9 -3.55 Q10.25 -2.85 10.45 -2.0 9.7 1.3 6.85 2.8 7.25 1.45 2.25 -2.4 5.1 -2.6 8.9 -3.55" fill="#4f232a" fill-rule="evenodd" stroke="none"/>
    <path d="M8.9 -3.55 Q10.25 -2.85 10.45 -2.0 9.7 1.3 6.85 2.8 4.4 4.05 0.4 4.0 -4.3 4.1 -7.35 1.5 -8.9 0.85 -9.6 -1.75 -7.2 -3.2 -4.45 -3.95 -0.4 -5.15 4.45 -4.75 7.35 -4.25 8.9 -3.55 5.1 -2.6 2.25 -2.4 7.25 1.45 6.85 2.8 M-4.45 -3.95 Q-3.05 -2.8 -0.6 -2.5 L2.25 -2.4 M-0.6 -2.5 L3.7 1.5 Q0.35 2.8 -7.35 1.5" fill="none" stroke="#000000" stroke-linecap="round" stroke-linejoin="round" stroke-width="0.8"/>
  </g>
</svg>
