<?xml version="1.0" encoding="UTF-8" standalone="no"?>
<svg xmlns:xlink="http://www.w3.org/1999/xlink" height="9.45px" width="28.5px" xmlns="http://www.w3.org/2000/svg">
  <g transform="matrix(1.0, 0.0, 0.0, 1.0, 15.85, 5.6)">
    <path d="M11.9 -3.6 L9.4 -0.95 6.95 -5.05 12.15 -4.85 11.9 -3.6 M6.95 -5.05 L3.6 -1.05 3.3 -0.7 2.55 -1.5 -0.65 -4.85 6.0 -5.05 6.95 -5.05 M4.65 2.05 L6.65 -0.6 8.5 2.2 Q7.45 2.85 6.2 3.0 L3.8 3.2 4.65 2.05 M-2.6 -3.0 L-5.6 -0.2 -8.1 -3.6 Q-4.95 -3.7 -2.9 -4.5 L-0.65 -4.85 -2.6 -3.0 M-9.9 -3.6 L-11.85 -1.4 -13.0 -3.8 -9.9 -3.6 M-11.9 0.4 L-10.15 -1.35 -7.85 2.35 Q-10.3 1.65 -11.9 0.4 M-4.45 3.05 L-0.75 -0.9 2.25 3.3 -4.45 3.05" fill="#f2fef4" fill-rule="evenodd" stroke="none"/>
    <path d="M-0.65 -4.85 L2.55 -1.5 Q-0.05 -2.9 -2.6 -3.0 L-0.65 -4.85" fill="#30020c" fill-rule="evenodd" stroke="none"/>
    <path d="M3.6 -1.05 Q5.1 0.5 4.65 2.05 L3.8 3.2 2.25 3.3 -0.75 -0.9 -4.45 3.05 -7.85 2.35 -10.15 -1.35 -11.9 0.4 -13.05 -0.6 Q-14.8 -2.45 -15.35 -4.1 L-13.0 -3.8 -11.85 -1.4 -9.9 -3.6 -8.1 -3.6 -5.6 -0.2 -2.6 -3.0 Q-0.05 -2.9 2.55 -1.5 L3.3 -0.7 3.6 -1.05" fill="#c46d80" fill-rule="evenodd" stroke="none"/>
    <path d="M6.95 -5.05 L9.4 -0.95 11.9 -3.6 Q10.9 0.7 8.5 2.2 L6.65 -0.6 4.65 2.05 Q5.1 0.5 3.6 -1.05 L6.95 -5.05" fill="#381c1f" fill-rule="evenodd" stroke="none"/>
    <path d="M11.9 -3.6 L12.15 -4.85 6.95 -5.05 6.0 -5.05 -0.65 -4.85 -2.9 -4.5 Q-4.95 -3.7 -8.1 -3.6 L-9.9 -3.6 -13.0 -3.8 -15.35 -4.1 Q-14.8 -2.45 -13.05 -0.6 L-11.9 0.4 Q-10.3 1.65 -7.85 2.35 L-4.45 3.05 2.25 3.3 3.8 3.2 6.2 3.0 Q7.45 2.85 8.5 2.2 10.9 0.7 11.9 -3.6" fill="none" stroke="#000000" stroke-linecap="round" stroke-linejoin="round" stroke-width="1.0"/>
    <path d="M6.95 -5.05 L9.4 -0.95 11.9 -3.6 M6.95 -5.05 L3.6 -1.05 3.3 -0.7 2.55 -1.5 -0.65 -4.85 -2.6 -3.0 -5.6 -0.2 -8.1 -3.6 M4.65 2.05 L6.65 -0.6 8.5 2.2 M-9.9 -3.6 L-11.85 -1.4 -13.0 -3.8 M-11.9 0.4 L-10.15 -1.35 -7.85 2.35 M-4.45 3.05 L-0.75 -0.9 2.25 3.3 M3.8 3.2 L4.65 2.05" fill="none" stroke="#000000" stroke-linecap="round" stroke-linejoin="round" stroke-width="0.5"/>
  </g>
</svg>
