<?xml version="1.0" encoding="UTF-8" standalone="no"?>
<svg xmlns:xlink="http://www.w3.org/1999/xlink" height="11.05px" width="23.15px" xmlns="http://www.w3.org/2000/svg">
  <g transform="matrix(1.0, 0.0, 0.0, 1.0, 11.95, 4.65)">
    <path d="M-6.2 -1.45 L-3.4 -0.9 Q-3.85 6.85 -8.45 5.75 -13.05 4.65 -8.9 -2.2 L-6.2 -1.45 Q-7.45 -0.05 -7.4 1.35 -7.45 -0.05 -6.2 -1.45" fill="#ec839a" fill-rule="evenodd" stroke="none"/>
    <path d="M-6.2 -1.45 L-8.9 -2.2 Q-13.05 4.65 -8.45 5.75 -3.85 6.85 -3.4 -0.9 L-6.2 -1.45 Q-7.45 -0.05 -7.4 1.35 M-8.9 -2.2 Q-11.35 -3.35 -11.45 -4.15 M-3.4 -0.9 Q3.9 0.0 10.7 -3.5" fill="none" stroke="#000000" stroke-linecap="round" stroke-linejoin="round" stroke-width="1.0"/>
  </g>
</svg>
