<?xml version="1.0" encoding="UTF-8" standalone="no"?>
<svg xmlns:xlink="http://www.w3.org/1999/xlink" height="8.45px" width="14.45px" xmlns="http://www.w3.org/2000/svg">
  <g transform="matrix(1.0, 0.0, 0.0, 1.0, 5.85, 4.65)">
    <path d="M1.7 -3.8 L5.3 -3.95 5.3 -3.9 5.35 -3.05 Q5.25 0.0 1.7 -0.1 L1.35 -0.1 Q-2.1 0.25 -1.75 -3.8 L-1.3 -3.8 1.7 -3.8 1.7 -0.1 1.7 -3.8" fill="#fdfdfd" fill-rule="evenodd" stroke="none"/>
    <path d="M1.7 -0.1 Q5.25 0.0 5.35 -3.05 6.6 -1.75 6.55 1.45 5.0 3.3 2.1 3.3 -4.5 3.2 -5.3 -1.55 -5.75 -4.8 -3.2 -4.0 L-1.3 -3.8 -1.75 -3.8 Q-2.1 0.25 1.35 -0.1 L1.7 -0.1" fill="#ec839a" fill-rule="evenodd" stroke="none"/>
    <path d="M5.35 -3.05 L5.3 -3.9 5.8 -3.95 Q8.2 -4.6 8.1 -2.1 7.7 0.15 6.55 1.45 6.6 -1.75 5.35 -3.05" fill="#381c1f" fill-rule="evenodd" stroke="none"/>
    <path d="M1.7 -3.8 L1.7 -0.1 Q5.25 0.0 5.35 -3.05 L5.3 -3.9 5.3 -3.95 M-1.75 -3.8 Q-2.1 0.25 1.35 -0.1 L1.7 -0.1" fill="none" stroke="#000000" stroke-linecap="round" stroke-linejoin="round" stroke-width="0.8"/>
    <path d="M5.3 -3.95 L1.7 -3.8 -1.3 -3.8 -3.2 -4.0 Q-5.75 -4.8 -5.3 -1.55 -4.5 3.2 2.1 3.3 5.0 3.3 6.55 1.45 7.7 0.15 8.1 -2.1 8.2 -4.6 5.8 -3.95 L5.3 -3.9 M-1.3 -3.8 L-1.75 -3.8" fill="none" stroke="#000000" stroke-linecap="round" stroke-linejoin="round" stroke-width="1.0"/>
  </g>
</svg>
