<?xml version="1.0" encoding="UTF-8" standalone="no"?>
<svg xmlns:xlink="http://www.w3.org/1999/xlink" height="8.45px" width="24.1px" xmlns="http://www.w3.org/2000/svg">
  <g transform="matrix(1.0, 0.0, 0.0, 1.0, 12.3, 5.55)">
    <path d="M3.85 2.7 Q12.0 0.3 5.55 -0.65 9.7 -2.35 7.8 -3.4 1.35 -5.75 -8.95 -4.45 -9.15 -1.9 -7.0 -2.1 -5.45 -1.75 -4.45 -0.9 -2.0 -1.8 0.7 -0.85 -2.9 -1.25 -4.5 0.0 -7.3 -2.25 -8.8 -1.0 -9.75 -0.3 -4.85 2.2 -10.75 0.95 -12.25 -4.25 -0.1 -6.75 6.65 -4.25 13.4 -1.75 11.25 0.0 9.05 1.7 3.85 2.7" fill="#000000" fill-rule="evenodd" stroke="none"/>
    <path d="M-4.85 2.2 Q-9.75 -0.3 -8.8 -1.0 -7.3 -2.25 -4.5 0.0 -2.9 -1.25 0.7 -0.85 -2.0 -1.8 -4.45 -0.9 -5.45 -1.75 -7.0 -2.1 -9.15 -1.9 -8.95 -4.45 1.35 -5.75 7.8 -3.4 9.7 -2.35 5.55 -0.65 12.0 0.3 3.85 2.7 L-4.85 2.2" fill="#fdfdfd" fill-rule="evenodd" stroke="none"/>
    <path d="M-4.85 2.2 Q-9.75 -0.3 -8.8 -1.0 -7.3 -2.25 -4.5 0.0 -2.9 -1.25 0.7 -0.85 -2.0 -1.8 -4.45 -0.9 -5.45 -1.75 -7.0 -2.1 -9.15 -1.9 -8.95 -4.45 1.35 -5.75 7.8 -3.4 9.7 -2.35 5.55 -0.65 12.0 0.3 3.85 2.7 9.05 1.7 11.25 0.0 13.4 -1.75 6.65 -4.25 -0.1 -6.75 -12.25 -4.25 -10.75 0.95 -4.85 2.2 L3.85 2.7" fill="none" stroke="#000000" stroke-linecap="round" stroke-linejoin="round" stroke-width="0.1"/>
  </g>
</svg>
