<?xml version="1.0" encoding="UTF-8" standalone="no"?>
<svg xmlns:xlink="http://www.w3.org/1999/xlink" height="11.2px" width="20.1px" xmlns="http://www.w3.org/2000/svg">
  <g transform="matrix(1.0, 0.0, 0.0, 1.0, 10.6, 7.65)">
    <path d="M-4.4 3.0 Q-8.1 0.05 -9.35 -3.25 -10.15 -5.15 -10.1 -7.15 -5.15 -4.75 8.2 -1.85 11.65 -0.15 0.4 2.95 L-2.65 3.55 -3.8 3.25 -4.4 3.0 M3.1 -0.65 L-2.5 -1.35 -4.5 -0.35 -5.4 -2.05 -9.35 -3.25 -5.4 -2.05 -4.5 -0.35 -2.5 -1.35 3.1 -0.65" fill="#f0efed" fill-rule="evenodd" stroke="none"/>
    <path d="M-4.4 3.0 Q-8.1 0.05 -9.35 -3.25 -10.15 -5.15 -10.1 -7.15 -5.15 -4.75 8.2 -1.85 11.65 -0.15 0.4 2.95 M-9.35 -3.25 L-5.4 -2.05 -4.5 -0.35 -2.5 -1.35 3.1 -0.65" fill="none" stroke="#000000" stroke-linecap="round" stroke-linejoin="round" stroke-width="1.0"/>
    <path d="M-3.8 3.25 L-4.4 3.0 Z" fill="none" stroke="#000000" stroke-linecap="round" stroke-linejoin="round" stroke-width="0.05"/>
  </g>
</svg>
