<?xml version="1.0" encoding="UTF-8" standalone="no"?>
<svg xmlns:xlink="http://www.w3.org/1999/xlink" height="17.1px" width="19.55px" xmlns="http://www.w3.org/2000/svg">
  <g transform="matrix(1.0, 0.0, 0.0, 1.0, 7.15, 10.45)">
    <path d="M-6.65 1.45 L-6.55 0.95 Q-6.0 -2.5 -4.05 -6.2 1.85 -5.6 0.85 0.95 L-6.65 1.45" fill="#010005" fill-rule="evenodd" stroke="none"/>
    <path d="M6.9 4.45 L5.6 4.85 Q4.15 5.7 1.85 6.05 -0.95 6.35 -1.75 5.5 -3.2 4.05 -4.75 3.95 -6.7 3.9 -6.65 1.45 L0.85 0.95 Q4.6 1.6 6.9 4.45" fill="#ec839a" fill-rule="evenodd" stroke="none"/>
    <path d="M-4.05 -6.2 L-3.4 -7.35 Q-0.75 -11.55 2.6 -9.0 4.5 -7.35 7.35 -8.35 11.0 -9.4 9.85 -5.8 9.4 -3.0 11.35 0.2 12.35 2.3 11.55 4.1 10.8 5.9 8.5 5.05 7.75 4.45 6.9 4.45 4.6 1.6 0.85 0.95 1.85 -5.6 -4.05 -6.2" fill="#742f42" fill-rule="evenodd" stroke="none"/>
    <path d="M-4.05 -6.2 L-3.4 -7.35 Q-0.75 -11.55 2.6 -9.0 4.5 -7.35 7.35 -8.35 11.0 -9.4 9.85 -5.8 9.4 -3.0 11.35 0.2 12.35 2.3 11.55 4.1 10.8 5.9 8.5 5.05 7.75 4.45 6.9 4.45 L5.6 4.85 Q4.15 5.7 1.85 6.05 -0.95 6.35 -1.75 5.5 -3.2 4.05 -4.75 3.95 -6.7 3.9 -6.65 1.45 L-6.55 0.95 Q-6.0 -2.5 -4.05 -6.2" fill="none" stroke="#000000" stroke-linecap="round" stroke-linejoin="round" stroke-width="1.0"/>
    <path d="M0.85 0.95 Q4.6 1.6 6.9 4.45 M-6.65 1.45 L0.85 0.95" fill="none" stroke="#000000" stroke-linecap="round" stroke-linejoin="round" stroke-width="0.5"/>
  </g>
</svg>
