<?xml version="1.0" encoding="UTF-8" standalone="no"?>
<svg xmlns:xlink="http://www.w3.org/1999/xlink" height="9.5px" width="25.9px" xmlns="http://www.w3.org/2000/svg">
  <g transform="matrix(1.0, 0.0, 0.0, 1.0, 12.75, 6.45)">
    <path d="M-8.25 0.85 Q-13.2 -1.6 -12.05 -4.6 -11.0 -7.25 -4.2 -4.6 1.65 -3.0 7.45 -4.6 11.5 -6.8 12.45 -4.9 13.4 -2.15 10.2 0.1 L8.75 0.85 6.8 1.6 1.7 2.5 Q-3.25 2.75 -8.25 0.85 L-6.55 -0.55 -8.25 0.85 M6.8 1.6 L5.5 -0.3 6.8 1.6 M10.2 0.1 L8.75 -1.2 10.2 0.1 M1.7 2.5 L1.7 0.5 1.7 2.5 M-2.5 0.2 L-3.0 1.8 -2.5 0.2" fill="#fcfbff" fill-rule="evenodd" stroke="none"/>
    <path d="M-8.25 0.85 Q-13.2 -1.6 -12.05 -4.6 -11.0 -7.25 -4.2 -4.6 1.65 -3.0 7.45 -4.6 11.5 -6.8 12.45 -4.9 13.4 -2.15 10.2 0.1 L8.75 0.85 6.8 1.6 1.7 2.5 Q-3.25 2.75 -8.25 0.85 L-6.55 -0.55 M-3.0 1.8 L-2.5 0.2 M1.7 0.5 L1.7 2.5 M8.75 -1.2 L10.2 0.1 M5.5 -0.3 L6.8 1.6" fill="none" stroke="#000000" stroke-linecap="round" stroke-linejoin="round" stroke-width="1.0"/>
  </g>
</svg>
