<?xml version="1.0" encoding="UTF-8" standalone="no"?>
<svg xmlns:xlink="http://www.w3.org/1999/xlink" height="11.9px" width="25.5px" xmlns="http://www.w3.org/2000/svg">
  <g transform="matrix(1.0, 0.0, 0.0, 1.0, 12.35, 8.0)">
    <path d="M-11.6 -2.7 L-10.15 -0.85 -8.6 -2.55 -7.85 0.05 -5.8 -2.4 -5.25 -1.3 4.8 -0.9 6.3 0.05 6.6 -1.45 9.2 -1.45 6.6 -1.45 6.3 0.05 4.8 -0.9 -5.25 -1.3 -5.8 -2.4 -7.85 0.05 -8.6 -2.55 -10.15 -0.85 -11.6 -2.7 Q-12.6 -9.1 -9.6 -6.95 -2.25 -3.3 10.3 -4.85 9.55 -3.25 9.2 -1.45 L8.75 1.2 Q8.9 2.95 1.3 3.3 L-9.2 2.8 Q-11.3 1.85 -11.6 -2.7" fill="#fefefe" fill-rule="evenodd" stroke="none"/>
    <path d="M10.3 -4.85 L12.65 -5.25 M9.2 -1.45 L6.6 -1.45 6.3 0.05 4.8 -0.9 -5.25 -1.3 -5.8 -2.4 -7.85 0.05 -8.6 -2.55 -10.15 -0.85 -11.6 -2.7 Q-11.3 1.85 -9.2 2.8 L1.3 3.3 Q8.9 2.95 8.75 1.2 L9.2 -1.45 Q9.55 -3.25 10.3 -4.85 -2.25 -3.3 -9.6 -6.95 -12.6 -9.1 -11.6 -2.7" fill="none" stroke="#000000" stroke-linecap="round" stroke-linejoin="round" stroke-width="1.0"/>
  </g>
</svg>
