<?xml version="1.0" encoding="UTF-8" standalone="no"?>
<svg xmlns:xlink="http://www.w3.org/1999/xlink" height="14.65px" width="17.75px" xmlns="http://www.w3.org/2000/svg">
  <g transform="matrix(1.0, 0.0, 0.0, 1.0, 8.9, 5.4)">
    <path d="M7.05 2.45 L5.95 2.75 0.0 3.0 Q-2.3 2.75 -2.4 5.6 -2.3 9.0 -3.55 8.75 -4.75 8.55 -4.7 7.25 L-4.65 5.95 Q-4.65 2.8 -6.9 2.2 -2.2 1.45 7.05 2.45" fill="#f8f3ed" fill-rule="evenodd" stroke="none"/>
    <path d="M7.05 2.45 Q-2.2 1.45 -6.9 2.2 L-7.05 2.15 Q-10.75 0.3 -4.25 -3.15 2.45 -6.7 6.5 -2.95 9.9 1.25 7.05 2.45" fill="#ec839a" fill-rule="evenodd" stroke="none"/>
    <path d="M-6.9 2.2 Q-4.65 2.8 -4.65 5.95 L-4.7 7.25 Q-4.75 8.55 -3.55 8.75 -2.3 9.0 -2.4 5.6 -2.3 2.75 0.0 3.0 L5.95 2.75 7.05 2.45 Q9.9 1.25 6.5 -2.95 2.45 -6.7 -4.25 -3.15 -10.75 0.3 -7.05 2.15 L-6.9 2.2 Z" fill="none" stroke="#000000" stroke-linecap="round" stroke-linejoin="round" stroke-width="1.0"/>
  </g>
</svg>
