<?xml version="1.0" encoding="UTF-8" standalone="no"?>
<svg xmlns:xlink="http://www.w3.org/1999/xlink" height="4.75px" width="15.15px" xmlns="http://www.w3.org/2000/svg">
  <g transform="matrix(1.0, 0.0, 0.0, 1.0, 6.6, 2.1)">
    <path d="M2.6 0.3 L1.65 0.5 Q1.2 0.7 1.2 0.95 L1.65 1.35 2.8 1.55 3.85 1.35 4.35 0.95 3.85 0.5 2.95 0.3 6.6 0.25 Q5.7 2.3 1.95 2.4 -3.45 2.4 -4.05 0.65 L2.6 0.3" fill="#2f291d" fill-rule="evenodd" stroke="none"/>
    <path d="M2.95 0.3 L2.8 0.3 2.6 0.3 -4.05 0.65 Q-1.55 -2.9 1.85 -1.05 5.0 -3.15 6.6 0.25 L2.95 0.3" fill="#2a2522" fill-rule="evenodd" stroke="none"/>
    <path d="M2.8 0.3 L2.95 0.3 3.85 0.5 4.35 0.95 3.85 1.35 2.8 1.55 1.65 1.35 1.2 0.95 Q1.2 0.7 1.65 0.5 L2.6 0.3 2.8 0.3" fill="#f5ecf2" fill-rule="evenodd" stroke="none"/>
    <path d="M6.6 0.25 L8.3 0.2 M2.95 0.3 L2.8 0.3 M2.95 0.3 L6.6 0.25 Q5.0 -3.15 1.85 -1.05 -1.55 -2.9 -4.05 0.65 L2.6 0.3 M-4.05 0.65 Q-3.45 2.4 1.95 2.4 5.7 2.3 6.6 0.25 M-6.35 0.7 L-4.05 0.65" fill="none" stroke="#000000" stroke-linecap="round" stroke-linejoin="round" stroke-width="0.5"/>
    <path d="M2.8 0.3 L2.6 0.3" fill="none" stroke="#000000" stroke-linecap="round" stroke-linejoin="round" stroke-width="0.05"/>
  </g>
</svg>
