<?xml version="1.0" encoding="UTF-8" standalone="no"?>
<svg xmlns:xlink="http://www.w3.org/1999/xlink" height="9.4px" width="26.6px" xmlns="http://www.w3.org/2000/svg">
  <g transform="matrix(1.0, 0.0, 0.0, 1.0, 14.55, 6.4)">
    <path d="M-7.6 -3.05 Q-0.3 -1.6 6.85 -3.6 L7.55 -3.8 7.8 -3.75 9.45 -3.75 Q6.2 -2.05 0.3 -1.25 -5.85 -1.05 -10.55 -2.6 L-9.95 -2.6 -7.9 -3.0 -7.75 -3.0 -7.65 -3.05 -7.6 -3.05 -7.75 -3.0 -7.6 -3.05 M9.7 -3.75 L10.0 -3.75 10.2 -3.8 10.6 -3.8 Q7.75 1.1 0.7 2.4 -6.65 3.25 -13.05 -3.0 L-10.85 -2.6 Q-5.75 2.3 1.75 1.25 4.05 0.9 5.95 -0.35 8.15 -1.75 9.7 -3.75" fill="#91182c" fill-rule="evenodd" stroke="none"/>
    <path d="M7.55 -3.8 L6.85 -3.6 Q-0.3 -1.6 -7.6 -3.05 -5.3 -3.75 -3.3 -5.55 0.55 -4.5 3.15 -5.9 5.55 -4.3 7.55 -3.8 M-10.55 -2.6 Q-5.85 -1.05 0.3 -1.25 6.2 -2.05 9.45 -3.75 L9.7 -3.75 Q8.15 -1.75 5.95 -0.35 4.05 0.9 1.75 1.25 -5.75 2.3 -10.85 -2.6 L-10.55 -2.6 M-5.3 0.65 L-4.85 0.65 Q-3.1 -0.55 -5.45 -0.95 -7.05 -0.05 -5.3 0.65" fill="#bb203a" fill-rule="evenodd" stroke="none"/>
    <path d="M-5.3 0.65 Q-7.05 -0.05 -5.45 -0.95 -3.1 -0.55 -4.85 0.65 L-5.3 0.65" fill="#ffdede" fill-rule="evenodd" stroke="none"/>
    <path d="M-7.6 -3.05 L-7.75 -3.0 -7.9 -3.0 -9.95 -2.6 -10.55 -2.6 Q-5.85 -1.05 0.3 -1.25 6.2 -2.05 9.45 -3.75 L7.8 -3.75 7.55 -3.8 Q5.55 -4.3 3.15 -5.9 0.55 -4.5 -3.3 -5.55 -5.3 -3.75 -7.6 -3.05 M9.7 -3.75 L10.0 -3.75 10.2 -3.8 10.6 -3.8 10.65 -3.9 Q11.4 -3.95 11.55 -4.35 M9.45 -3.75 L9.7 -3.75 M-10.85 -2.6 L-13.05 -3.0 Q-6.65 3.25 0.7 2.4 7.75 1.1 10.6 -3.8 M-13.05 -3.0 Q-13.7 -3.05 -14.05 -3.35 M-10.55 -2.6 L-10.85 -2.6" fill="none" stroke="#000000" stroke-linecap="round" stroke-linejoin="round" stroke-width="1.0"/>
  </g>
</svg>
