<?xml version="1.0" encoding="UTF-8" standalone="no"?>
<svg xmlns:xlink="http://www.w3.org/1999/xlink" height="11.1px" width="14.8px" xmlns="http://www.w3.org/2000/svg">
  <g transform="matrix(1.0, 0.0, 0.0, 1.0, 6.7, 7.95)">
    <path d="M-3.35 -1.0 L-3.15 -0.85 -3.05 -0.85 -2.7 -0.55 -2.65 -0.5 -2.2 -0.3 -2.2 -0.25 -2.05 -0.2 -1.6 -0.05 -1.25 0.05 -0.5 0.3 2.15 1.2 5.15 0.95 Q6.7 0.6 7.45 -2.2 L7.5 -2.25 6.65 -2.8 Q5.25 -3.55 3.55 -4.0 L3.5 -3.9 3.2 -4.0 2.95 -3.95 1.15 -3.3 -0.05 -3.0 -3.0 -2.55 -5.6 -2.5 -3.8 -1.3 -3.8 -1.2 -3.5 -1.05 -3.35 -1.0 M-4.95 -3.3 L-0.75 -4.0 0.4 -4.3 Q2.0 -4.85 3.7 -5.0 5.7 -4.55 7.45 -3.1 7.7 -1.95 7.45 -2.2 8.15 -1.4 6.7 0.85 5.4 3.15 1.5 2.65 -4.2 1.25 -6.3 -2.5 L-4.95 -3.3 M-5.6 -2.5 L-6.3 -2.5 -5.6 -2.5" fill="#91182c" fill-rule="evenodd" stroke="none"/>
    <path d="M-3.35 -1.0 L-2.7 -1.1 -0.25 -0.75 Q0.8 -0.65 1.2 -1.45 L1.15 -1.6 -1.75 -2.45 -2.75 -2.5 -3.3 -2.45 -3.5 -2.25 -3.2 -2.25 -3.65 -2.15 -3.8 -2.0 -3.8 -1.3 -5.6 -2.5 -3.0 -2.55 -0.05 -3.0 3.75 -2.15 Q5.0 -2.8 6.65 -2.8 L7.5 -2.25 7.45 -2.2 Q6.7 0.6 5.15 0.95 L2.15 1.2 -0.5 0.3 -1.25 0.05 -1.6 -0.05 -2.05 -0.2 -2.2 -0.25 -2.2 -0.3 -2.65 -0.5 -2.7 -0.55 -3.05 -0.85 -3.15 -0.85 -3.35 -1.0 M1.15 -3.3 L2.95 -3.95 3.2 -4.0 3.5 -3.9 1.15 -3.3 M7.45 -3.1 Q5.7 -4.55 3.7 -5.0 2.0 -4.85 0.4 -4.3 L-0.75 -4.0 -4.95 -3.3 -1.1 -5.9 Q1.65 -7.7 3.3 -7.55 6.9 -6.0 7.25 -4.0 L7.45 -3.1 M6.25 -2.0 L5.4 -1.75 4.9 -1.35 Q4.2 -0.6 5.5 -0.75 7.2 -1.0 6.25 -2.0" fill="#bb203a" fill-rule="evenodd" stroke="none"/>
    <path d="M6.65 -2.8 Q5.0 -2.8 3.75 -2.15 L-0.05 -3.0 1.15 -3.3 3.5 -3.9 3.55 -4.0 Q5.25 -3.55 6.65 -2.8" fill="#691422" fill-rule="evenodd" stroke="none"/>
    <path d="M-3.8 -1.3 L-3.8 -2.0 -3.65 -2.15 -3.2 -2.25 -3.5 -2.25 -3.3 -2.45 -2.75 -2.5 -1.75 -2.45 1.15 -1.6 1.2 -1.45 Q0.8 -0.65 -0.25 -0.75 L-2.7 -1.1 -3.35 -1.0 -3.5 -1.05 -3.8 -1.2 -3.8 -1.3 M6.25 -2.0 Q7.2 -1.0 5.5 -0.75 4.2 -0.6 4.9 -1.35 L5.4 -1.75 6.25 -2.0 M-1.65 -2.15 L-2.05 -2.15 -2.5 -2.05 Q-3.05 -1.85 -2.5 -1.4 L-2.3 -1.2 Q-0.95 -1.0 -0.5 -1.2 L-0.4 -1.45 -0.45 -1.6 Q-0.75 -2.2 -1.65 -2.15" fill="#e92848" fill-rule="evenodd" stroke="none"/>
    <path d="M-1.65 -2.15 Q-0.75 -2.2 -0.45 -1.6 L-0.4 -1.45 -0.5 -1.2 Q-0.95 -1.0 -2.3 -1.2 L-2.5 -1.4 Q-3.05 -1.85 -2.5 -2.05 L-2.05 -2.15 -1.65 -2.15" fill="#ffdede" fill-rule="evenodd" stroke="none"/>
    <path d="M7.5 -2.25 L6.65 -2.8 Q5.0 -2.8 3.75 -2.15 L-0.05 -3.0 -3.0 -2.55 -5.6 -2.5 -6.3 -2.5 Q-4.2 1.25 1.5 2.65 5.4 3.15 6.7 0.85 8.15 -1.4 7.45 -2.2 7.7 -1.95 7.45 -3.1 L7.25 -4.0 Q6.9 -6.0 3.3 -7.55 1.65 -7.7 -1.1 -5.9 L-4.95 -3.3 -6.3 -2.5 M1.15 -3.3 L3.5 -3.9 3.55 -4.0 Q5.25 -3.55 6.65 -2.8 M-0.05 -3.0 L1.15 -3.3" fill="none" stroke="#350808" stroke-linecap="round" stroke-linejoin="round" stroke-width="0.8"/>
  </g>
</svg>
