<?xml version="1.0" encoding="UTF-8" standalone="no"?>
<svg xmlns:xlink="http://www.w3.org/1999/xlink" height="10.25px" width="20.6px" xmlns="http://www.w3.org/2000/svg">
  <g transform="matrix(1.0, 0.0, 0.0, 1.0, 9.8, 7.0)">
    <path d="M-4.65 -1.7 Q-2.0 -0.4 2.0 -0.45 5.4 -0.9 7.15 -2.45 L8.55 -2.2 9.5 -2.2 9.45 -2.55 9.2 -2.6 Q8.25 -3.0 7.4 -3.6 4.85 -5.3 1.75 -5.4 L-5.05 -2.85 -6.1 -2.7 Q-7.05 -2.8 -7.5 -2.1 L-7.65 -1.95 -7.55 -1.65 -8.4 -2.0 -9.55 -2.1 -9.8 -2.2 Q-7.35 -2.15 -5.25 -3.95 -2.35 -6.45 2.05 -7.0 5.0 -7.0 7.05 -4.7 9.05 -2.7 10.7 -2.45 L10.8 -2.45 9.5 -1.6 7.85 -0.65 6.6 0.3 Q2.95 3.05 -1.3 1.1 L-7.55 -1.65 -4.65 -1.7 M6.85 -0.05 Q7.7 -0.9 7.05 -1.55 L6.5 -1.05 Q5.55 -0.4 3.55 0.25 L0.05 0.7 Q-1.45 0.4 -1.3 0.7 L-0.9 0.95 1.15 1.55 Q3.4 1.95 5.45 0.85 L6.55 0.15 6.75 0.0 6.85 -0.05" fill="#bb203a" fill-rule="evenodd" stroke="none"/>
    <path d="M7.15 -2.45 L7.45 -2.75 7.3 -2.8 Q4.0 -4.55 2.15 -4.55 -1.1 -4.0 -5.3 -2.1 L-4.65 -1.7 -7.55 -1.65 -1.3 1.1 Q2.95 3.05 6.6 0.3 L7.85 -0.65 9.5 -1.6 9.15 -1.4 Q8.25 -0.75 7.45 0.3 L7.4 0.3 7.35 0.35 7.35 0.4 7.15 0.6 5.2 2.45 Q4.05 3.2 2.8 3.25 -1.0 3.25 -2.95 2.0 L-3.85 1.4 Q-5.35 0.35 -6.85 -0.5 L-7.0 -0.65 -7.3 -0.8 Q-8.6 -1.35 -9.35 -1.95 L-9.4 -2.0 -9.4 -2.05 -9.55 -2.1 -8.4 -2.0 -7.55 -1.65 -7.65 -1.95 -7.5 -2.1 Q-7.05 -2.8 -6.1 -2.7 L-5.05 -2.85 1.75 -5.4 Q4.85 -5.3 7.4 -3.6 8.25 -3.0 9.2 -2.6 L9.45 -2.55 9.5 -2.2 8.55 -2.2 7.15 -2.45 M7.45 -2.75 L9.2 -2.6 7.45 -2.75 M-5.3 -2.1 L-5.6 -2.0 -7.5 -2.1 -5.6 -2.0 -5.3 -2.1" fill="#91182c" fill-rule="evenodd" stroke="none"/>
    <path d="M-4.65 -1.7 L-5.3 -2.1 Q-1.1 -4.0 2.15 -4.55 4.0 -4.55 7.3 -2.8 L7.45 -2.75 7.15 -2.45 Q5.4 -0.9 2.0 -0.45 -2.0 -0.4 -4.65 -1.7" fill="#ffffff" fill-rule="evenodd" stroke="none"/>
    <path d="M6.85 -0.05 Q7.35 -0.75 6.65 -0.95 6.5 -0.95 6.5 -0.85 6.2 -0.35 6.65 -0.05 L6.75 0.0 6.55 0.15 5.45 0.85 Q3.4 1.95 1.15 1.55 L-0.9 0.95 -1.3 0.7 Q-1.45 0.4 0.05 0.7 L3.55 0.25 Q5.55 -0.4 6.5 -1.05 L7.05 -1.55 Q7.7 -0.9 6.85 -0.05 M5.45 0.55 Q5.95 0.3 5.9 -0.25 5.2 0.3 4.0 0.55 2.9 0.85 3.75 0.8 L4.7 0.8 5.45 0.55" fill="#e92848" fill-rule="evenodd" stroke="none"/>
    <path d="M6.75 0.0 L6.65 -0.05 Q6.2 -0.35 6.5 -0.85 6.5 -0.95 6.65 -0.95 7.35 -0.75 6.85 -0.05 L6.75 0.0 M5.45 0.55 L4.7 0.8 3.75 0.8 Q2.9 0.85 4.0 0.55 5.2 0.3 5.9 -0.25 5.95 0.3 5.45 0.55" fill="#ffdede" fill-rule="evenodd" stroke="none"/>
    <path d="M7.15 -2.45 L7.45 -2.75 7.3 -2.8 Q4.0 -4.55 2.15 -4.55 -1.1 -4.0 -5.3 -2.1 L-4.65 -1.7 Q-2.0 -0.4 2.0 -0.45 5.4 -0.9 7.15 -2.45 M9.2 -2.6 L7.45 -2.75 M-7.5 -2.1 L-5.6 -2.0 -5.3 -2.1" fill="none" stroke="#5b0f0f" stroke-linecap="round" stroke-linejoin="round" stroke-width="1.0"/>
  </g>
</svg>
