<?xml version="1.0" encoding="UTF-8" standalone="no"?>
<svg xmlns:xlink="http://www.w3.org/1999/xlink" height="16.4px" width="16.65px" xmlns="http://www.w3.org/2000/svg">
  <g transform="matrix(1.0, 0.0, 0.0, 1.0, 7.4, 9.4)">
    <path d="M3.6 -7.9 L3.6 -6.65 3.55 -6.55 3.6 -6.65 3.6 -7.9 Q8.2 -8.35 7.35 -4.5 6.75 -2.15 3.25 -1.55 L2.7 -2.6 Q4.2 -4.75 3.55 -6.55 3.2 -5.25 1.75 -3.05 L1.5 -3.1 1.35 -3.1 Q1.05 -5.7 -0.2 -6.8 -0.45 -5.15 0.55 -2.8 L0.2 -2.6 -0.1 -2.1 Q-3.0 -4.6 -3.05 -6.2 -3.0 -4.6 -0.1 -2.1 L-4.55 -3.25 Q-4.75 -1.9 -0.2 -1.6 L-0.3 -1.3 -0.3 -1.1 -2.15 -0.35 -0.3 -1.1 0.05 -0.25 Q-1.8 1.35 -1.15 3.8 L0.55 0.15 1.5 0.45 2.55 0.0 Q3.55 1.6 5.8 3.0 L3.2 -0.9 3.25 -1.3 3.25 -1.55 Q11.0 -1.6 8.0 3.5 5.15 7.6 2.5 2.65 2.25 8.45 -3.2 5.7 -9.0 2.65 -2.15 -0.35 -7.55 0.75 -6.95 -3.9 -6.25 -6.55 -3.05 -6.2 -3.2 -7.9 -0.35 -8.85 3.1 -9.4 3.6 -7.9 M2.5 2.65 L1.5 0.45 2.5 2.65" fill="#f8f6f7" fill-rule="evenodd" stroke="none"/>
    <path d="M-0.1 -2.1 L0.2 -2.6 0.55 -2.8 1.35 -3.1 1.5 -3.1 1.75 -3.05 2.7 -2.6 3.25 -1.55 3.25 -1.3 3.2 -0.9 Q3.05 -0.45 2.7 -0.1 L2.55 0.0 1.5 0.45 0.55 0.15 0.2 -0.1 0.05 -0.25 -0.3 -1.1 -0.3 -1.3 -0.2 -1.6 -0.1 -2.1" fill="#e5f58a" fill-rule="evenodd" stroke="none"/>
    <path d="M0.55 -2.8 Q-0.45 -5.15 -0.2 -6.8 1.05 -5.7 1.35 -3.1 L0.55 -2.8 M1.75 -3.05 Q3.2 -5.25 3.55 -6.55 4.2 -4.75 2.7 -2.6 L1.75 -3.05 M0.05 -0.25 L0.2 -0.1 0.55 0.15 -1.15 3.8 Q-1.8 1.35 0.05 -0.25 M2.55 0.0 L2.7 -0.1 Q3.05 -0.45 3.2 -0.9 L5.8 3.0 Q3.55 1.6 2.55 0.0 M-0.2 -1.6 Q-4.75 -1.9 -4.55 -3.25 L-0.1 -2.1 -0.2 -1.6" fill="#d29daf" fill-rule="evenodd" stroke="none"/>
    <path d="M3.55 -6.55 L3.6 -6.65 3.6 -7.9 Q3.1 -9.4 -0.35 -8.85 -3.2 -7.9 -3.05 -6.2 -3.0 -4.6 -0.1 -2.1 L0.2 -2.6 0.55 -2.8 1.35 -3.1 1.5 -3.1 1.75 -3.05 Q3.2 -5.25 3.55 -6.55 M2.7 -2.6 L3.25 -1.55 Q6.75 -2.15 7.35 -4.5 8.2 -8.35 3.6 -7.9 M0.55 0.15 L0.2 -0.1 0.05 -0.25 -0.3 -1.1 -0.3 -1.3 -0.2 -1.6 -0.1 -2.1 M0.55 0.15 L1.5 0.45 2.55 0.0 2.7 -0.1 Q3.05 -0.45 3.2 -0.9 L3.25 -1.3 3.25 -1.55 Q11.0 -1.6 8.0 3.5 5.15 7.6 2.5 2.65 2.25 8.45 -3.2 5.7 -9.0 2.65 -2.15 -0.35 -7.55 0.75 -6.95 -3.9 -6.25 -6.55 -3.05 -6.2 M1.75 -3.05 L2.7 -2.6 M1.5 0.45 L2.5 2.65 M-2.15 -0.35 L-0.3 -1.1" fill="none" stroke="#000000" stroke-linecap="round" stroke-linejoin="round" stroke-width="0.8"/>
  </g>
</svg>
