<?xml version="1.0" encoding="UTF-8" standalone="no"?>
<svg xmlns:xlink="http://www.w3.org/1999/xlink" height="15.85px" width="20.45px" xmlns="http://www.w3.org/2000/svg">
  <g transform="matrix(1.0, 0.0, 0.0, 1.0, 2.9, 0.5)">
    <path d="M2.8 1.7 L3.65 2.1 Q5.6 2.9 8.0 6.05 10.35 9.2 13.85 12.5 13.75 11.3 12.6 10.35 L10.1 8.1 12.0 8.4 13.65 8.3 Q12.95 7.75 11.9 7.7 L9.6 7.55 7.95 5.1 Q6.4 2.65 4.2 1.65 1.95 0.6 1.9 0.7 L1.7 0.9 1.7 0.95 1.75 1.05 0.7 0.55 2.25 0.15 Q6.6 2.35 9.55 6.6 14.55 7.2 17.3 9.15 L12.0 9.3 Q16.2 12.65 16.7 14.65 14.4 15.1 10.5 11.0 11.35 14.6 10.5 15.1 8.4 14.2 7.35 7.4 5.75 3.75 2.8 1.7 M8.9 7.7 Q8.7 8.65 8.9 9.75 9.1 11.35 10.05 12.45 10.1 11.5 9.75 10.35 L9.25 8.05 8.9 7.7" fill="#fff9aa" fill-rule="evenodd" stroke="none"/>
    <path d="M1.75 1.05 L1.7 0.95 1.7 0.9 1.9 0.7 Q1.95 0.6 4.2 1.65 6.4 2.65 7.95 5.1 L9.6 7.55 11.9 7.7 Q12.95 7.75 13.65 8.3 L12.0 8.4 10.1 8.1 12.6 10.35 Q13.75 11.3 13.85 12.5 10.35 9.2 8.0 6.05 5.6 2.9 3.65 2.1 L2.8 1.7 1.75 1.05 M8.9 7.7 L9.25 8.05 9.75 10.35 Q10.1 11.5 10.05 12.45 9.1 11.35 8.9 9.75 8.7 8.65 8.9 7.7" fill="#a68c59" fill-rule="evenodd" stroke="none"/>
    <path d="M-2.4 1.55 Q0.35 -0.35 3.8 0.05" fill="none" stroke="#000000" stroke-linecap="round" stroke-linejoin="round" stroke-width="1.0"/>
    <path d="M2.8 1.7 Q5.75 3.75 7.35 7.4 8.4 14.2 10.5 15.1 11.35 14.6 10.5 11.0 14.4 15.1 16.7 14.65 16.2 12.65 12.0 9.3 L17.3 9.15 Q14.55 7.2 9.55 6.6 6.6 2.35 2.25 0.15 L0.7 0.55 1.75 1.05 2.8 1.7" fill="none" stroke="#6d411f" stroke-linecap="round" stroke-linejoin="round" stroke-width="0.5"/>
  </g>
</svg>
