<?xml version="1.0" encoding="UTF-8" standalone="no"?>
<svg xmlns:xlink="http://www.w3.org/1999/xlink" height="13.9px" width="16.5px" xmlns="http://www.w3.org/2000/svg">
  <g transform="matrix(1.0, 0.0, 0.0, 1.0, 5.45, 3.0)">
    <path d="M0.75 -1.35 L3.5 -1.15 6.35 -0.4 7.15 0.25 Q6.6 0.7 6.8 1.2 L3.7 1.1 3.5 1.0 2.3 0.8 1.7 1.05 0.9 1.0 -0.65 1.1 -0.8 1.1 -0.8 1.2 Q-1.95 1.4 -1.55 3.25 -1.15 5.1 -1.9 7.4 -2.6 7.7 -2.45 8.95 L-3.15 8.75 Q-3.9 8.7 -4.3 7.75 -4.6 7.15 -4.7 6.05 L-4.65 5.25 -4.6 5.0 -4.6 4.6 -4.05 4.8 Q-2.65 5.15 -2.4 4.05 -2.2 2.8 -3.2 2.3 L-4.35 2.15 Q-4.3 0.5 -3.1 -0.35 L-2.5 -0.3 -1.55 -0.4 Q-1.45 0.2 -0.35 0.0 1.0 -0.35 0.7 -1.35 L0.75 -1.35 M10.65 7.2 L10.65 7.3 10.6 7.55 10.6 7.7 Q10.15 8.75 8.9 8.85 L7.25 9.5 6.9 9.75 6.65 10.0 Q7.1 9.0 6.4 8.45 L6.15 8.3 4.75 8.05 Q4.0 7.95 4.55 7.0 L5.5 5.2 6.0 4.3 6.95 4.5 Q8.5 4.7 8.9 5.05 L8.7 5.15 8.4 5.55 8.4 6.0 8.8 6.65 9.15 7.0 10.65 7.2 M4.45 10.45 L3.75 10.25 3.45 10.1 1.5 9.65 1.4 9.65 1.4 9.7 Q1.2 9.75 1.05 9.9 0.85 10.05 0.6 10.15 L-1.15 9.9 -1.75 9.5 Q0.2 9.95 0.05 8.95 L-0.05 8.55 3.45 9.3 Q3.55 9.85 4.45 10.45" fill="#7b4a2c" fill-rule="evenodd" stroke="none"/>
    <path d="M0.75 -1.35 L1.8 -2.6 Q2.2 -1.75 3.5 -1.15 L0.75 -1.35" fill="#000000" fill-rule="evenodd" stroke="none"/>
    <path d="M-1.9 7.4 Q-1.15 5.1 -1.55 3.25 -1.95 1.4 -0.8 1.2 L-0.8 1.1 -0.65 1.1 0.9 1.0 1.7 1.05 Q1.3 1.35 1.5 1.85 2.0 3.2 3.25 3.0 4.45 3.15 4.25 2.05 4.25 1.4 3.7 1.1 L6.8 1.2 Q7.0 1.85 8.4 2.55 L8.85 3.55 9.4 4.3 10.15 5.25 10.25 5.45 10.0 5.25 Q9.4 4.9 8.9 5.05 8.5 4.7 6.95 4.5 L6.0 4.3 5.5 5.2 4.55 7.0 Q4.0 7.95 4.75 8.05 L3.95 8.35 Q3.35 8.8 3.45 9.3 L-0.05 8.55 Q-0.4 7.5 -1.45 7.3 L-1.9 7.4 M0.15 6.05 Q1.55 7.0 2.0 5.85 L2.05 5.7 Q2.25 4.65 1.05 3.95 0.05 3.2 -0.45 4.25 -0.8 5.0 -0.35 5.65 L0.15 6.05" fill="#b8824d" fill-rule="evenodd" stroke="none"/>
    <path d="M0.7 -1.35 Q1.0 -0.35 -0.35 0.0 -1.45 0.2 -1.55 -0.4 L-0.5 -0.65 0.7 -1.35 M-4.35 2.15 L-3.2 2.3 Q-2.2 2.8 -2.4 4.05 -2.65 5.15 -4.05 4.8 L-4.6 4.6 Q-5.15 4.15 -5.05 3.15 L-5.05 3.05 Q-4.9 2.25 -4.35 2.15 M-2.45 8.95 Q-2.6 7.7 -1.9 7.4 L-1.45 7.3 Q-0.4 7.5 -0.05 8.55 L0.05 8.95 Q0.2 9.95 -1.75 9.5 -2.1 9.15 -2.45 8.95 M1.7 1.05 L2.3 0.8 3.5 1.0 3.7 1.1 Q4.25 1.4 4.25 2.05 4.45 3.15 3.25 3.0 2.0 3.2 1.5 1.85 1.3 1.35 1.7 1.05 M6.8 1.2 Q6.6 0.7 7.15 0.25 7.95 0.95 8.2 1.8 L8.25 1.9 8.25 2.0 8.4 2.55 Q7.0 1.85 6.8 1.2 M6.65 10.0 Q5.9 10.7 4.45 10.45 3.55 9.85 3.45 9.3 3.35 8.8 3.95 8.35 L4.75 8.05 6.15 8.3 6.4 8.45 Q7.1 9.0 6.65 10.0 M10.25 5.45 L10.5 5.9 10.65 7.0 10.65 7.2 9.15 7.0 8.8 6.65 8.4 6.0 8.4 5.55 8.7 5.15 8.9 5.05 Q9.4 4.9 10.0 5.25 L10.25 5.45 M0.15 6.05 L-0.35 5.65 Q-0.8 5.0 -0.45 4.25 0.05 3.2 1.05 3.95 2.25 4.65 2.05 5.7 L2.0 5.85 Q1.55 7.0 0.15 6.05" fill="#421009" fill-rule="evenodd" stroke="none"/>
    <path d="M3.5 -1.15 Q2.2 -1.75 1.8 -2.6 L0.75 -1.35 3.5 -1.15 6.35 -0.4 8.35 -0.65 M0.75 -1.35 L0.7 -1.35 Q1.0 -0.35 -0.35 0.0 -1.45 0.2 -1.55 -0.4 L-2.5 -0.3 -3.1 -0.35 Q-4.3 0.5 -4.35 2.15 L-3.2 2.3 Q-2.2 2.8 -2.4 4.05 -2.65 5.15 -4.05 4.8 L-4.6 4.6 -4.6 5.0 -4.65 5.25 -4.7 6.05 Q-4.6 7.15 -4.3 7.75 -3.9 8.7 -3.15 8.75 L-2.45 8.95 Q-2.6 7.7 -1.9 7.4 L-1.45 7.3 Q-0.4 7.5 -0.05 8.55 L0.05 8.95 Q0.2 9.95 -1.75 9.5 -2.1 9.15 -2.45 8.95 M1.7 1.05 L2.3 0.8 3.5 1.0 3.7 1.1 Q4.25 1.4 4.25 2.05 4.45 3.15 3.25 3.0 2.0 3.2 1.5 1.85 1.3 1.35 1.7 1.05 M6.8 1.2 Q6.6 0.7 7.15 0.25 L6.35 -0.4 M10.65 7.2 L10.65 7.3 10.6 7.55 10.6 7.7 Q10.15 8.75 8.9 8.85 L7.25 9.5 6.9 9.75 6.65 10.0 Q5.9 10.7 4.45 10.45 L3.75 10.25 3.45 10.1 1.5 9.65 1.4 9.65 1.4 9.7 Q1.2 9.75 1.05 9.9 0.85 10.05 0.6 10.15 L-1.15 9.9 -1.75 9.5 M10.65 7.2 L10.65 7.0 10.5 5.9 10.25 5.45 10.0 5.25 Q9.4 4.9 8.9 5.05 L8.7 5.15 8.4 5.55 8.4 6.0 8.8 6.65 9.15 7.0 10.65 7.2 M10.25 5.45 L10.15 5.25 9.4 4.3 8.85 3.55 8.4 2.55 Q7.0 1.85 6.8 1.2 M8.4 2.55 L8.25 2.0 8.25 1.9 8.2 1.8 Q7.95 0.95 7.15 0.25 M0.15 6.05 Q1.55 7.0 2.0 5.85 L2.05 5.7 Q2.25 4.65 1.05 3.95 0.05 3.2 -0.45 4.25 -0.8 5.0 -0.35 5.65 L0.15 6.05 M4.75 8.05 L3.95 8.35 Q3.35 8.8 3.45 9.3 3.55 9.85 4.45 10.45 M6.65 10.0 Q7.1 9.0 6.4 8.45 L6.15 8.3 4.75 8.05 M0.7 -1.35 L-0.5 -0.65 -1.55 -0.4 M-3.1 -0.35 L-3.25 -0.35 -3.35 -0.35 -4.55 -0.55 M-4.35 2.15 Q-4.9 2.25 -5.05 3.05 L-5.05 3.15 Q-5.15 4.15 -4.6 4.6" fill="none" stroke="#000000" stroke-linecap="round" stroke-linejoin="round" stroke-width="0.8"/>
  </g>
</svg>
