<?xml version="1.0" encoding="UTF-8" standalone="no"?>
<svg xmlns:xlink="http://www.w3.org/1999/xlink" height="22.15px" width="13.8px" xmlns="http://www.w3.org/2000/svg">
  <g transform="matrix(1.0, 0.0, 0.0, 1.0, 2.35, 4.9)">
    <path d="M3.65 -1.4 L4.05 -0.15 4.05 0.55 Q4.05 2.0 3.1 3.1 L2.95 3.2 Q2.2 4.05 1.05 4.3 L0.3 4.3 -1.5 3.85 -1.75 3.0 3.65 -1.4 M-0.1 -3.3 L0.3 -3.3 Q1.95 -3.3 2.95 -2.2 -0.1 -0.55 -1.9 2.0 -2.15 0.05 -1.3 -1.7 L-0.1 -3.3" fill="#e0b8f4" fill-rule="evenodd" stroke="none"/>
    <path d="M2.95 -2.2 L3.65 -1.4 -1.75 3.0 -1.9 2.0 Q-0.1 -0.55 2.95 -2.2" fill="#c7a3d9" fill-rule="evenodd" stroke="none"/>
    <path d="M1.05 4.3 Q2.2 4.05 2.95 3.2 L3.1 3.1 10.55 13.6 Q11.6 15.5 10.55 16.85 L1.05 4.3" fill="#fdfdfd" fill-rule="evenodd" stroke="none"/>
    <path d="M4.05 -0.15 L3.65 -1.4 2.95 -2.2 Q1.95 -3.3 0.3 -3.3 L-0.1 -3.3 Q2.4 -5.4 4.55 -3.8 6.65 -2.25 4.05 -0.15" fill="#ec839a" fill-rule="evenodd" stroke="none"/>
    <path d="M3.65 -1.4 L4.05 -0.15 Q6.65 -2.25 4.55 -3.8 2.4 -5.4 -0.1 -3.3 L0.3 -3.3 Q1.95 -3.3 2.95 -2.2 L3.65 -1.4 M-1.75 3.0 L-1.5 3.85 0.3 4.3 1.05 4.3 Q2.2 4.05 2.95 3.2 L3.1 3.1 Q4.05 2.0 4.05 0.55 L4.05 -0.15 M1.05 4.3 L10.55 16.85 Q11.6 15.5 10.55 13.6 L3.1 3.1 M-1.9 2.0 Q-2.15 0.05 -1.3 -1.7 L-0.1 -3.3 M-1.75 3.0 L-1.9 2.0" fill="none" stroke="#000000" stroke-linecap="round" stroke-linejoin="round" stroke-width="0.8"/>
  </g>
</svg>
