<?xml version="1.0" encoding="UTF-8" standalone="no"?>
<svg xmlns:xlink="http://www.w3.org/1999/xlink" height="17.2px" width="15.1px" xmlns="http://www.w3.org/2000/svg">
  <g transform="matrix(1.0, 0.0, 0.0, 1.0, 8.25, 1.0)">
    <path d="M0.95 8.65 Q-0.05 6.65 -2.25 7.95 L-5.75 0.4 -2.3 1.3 0.95 8.65" fill="#2c160b" fill-rule="evenodd" stroke="none"/>
    <path d="M0.95 8.65 L0.95 8.7 2.55 12.25 Q3.9 15.15 2.8 15.7 1.55 16.25 -0.05 12.8 L-2.25 7.95 Q-0.05 6.65 0.95 8.65" fill="#8d7c68" fill-rule="evenodd" stroke="none"/>
    <path d="M-2.25 7.95 L-0.05 12.8 Q1.55 16.25 2.8 15.7 3.9 15.15 2.55 12.25 L0.95 8.7 0.95 8.65 Q-0.05 6.65 -2.25 7.95 L-5.75 0.4 -7.85 -0.6 M-5.75 0.4 L-2.3 1.3 Q1.95 2.3 6.45 1.3 M0.95 8.65 L-2.3 1.3" fill="none" stroke="#000000" stroke-linecap="round" stroke-linejoin="round" stroke-width="0.8"/>
  </g>
</svg>
