<?xml version="1.0" encoding="UTF-8" standalone="no"?>
<svg xmlns:xlink="http://www.w3.org/1999/xlink" height="14.1px" width="32.6px" xmlns="http://www.w3.org/2000/svg">
  <g transform="matrix(1.0, 0.0, 0.0, 1.0, 0.7, 2.65)">
    <path d="M3.9 -0.55 L0.75 -1.65 Q-0.75 -0.85 -0.05 0.35 L3.65 1.55 3.0 2.1 1.75 2.25 Q1.0 2.2 0.45 1.75 -0.1 1.3 -0.25 0.15 -0.45 -1.0 0.4 -1.65 1.2 -2.35 1.95 -2.2 L3.25 -1.7 Q3.75 -1.35 3.9 -0.55" fill="#000000" fill-rule="evenodd" stroke="none"/>
    <path d="M20.45 7.5 L21.25 5.45 31.35 8.95 Q31.85 10.55 30.45 11.05 L20.45 7.5" fill="#fbee9f" fill-rule="evenodd" stroke="none"/>
    <path d="M3.65 1.55 L-0.05 0.35 Q-0.75 -0.85 0.75 -1.65 L3.9 -0.55 21.25 5.45 20.45 7.5 3.65 1.55" fill="#613c21" fill-rule="evenodd" stroke="none"/>
    <path d="M3.9 -0.55 L0.75 -1.65 Q-0.75 -0.85 -0.05 0.35 L3.65 1.55 20.45 7.5 21.25 5.45 3.9 -0.55 Q3.75 -1.35 3.25 -1.7 L1.95 -2.2 Q1.2 -2.35 0.4 -1.65 -0.45 -1.0 -0.25 0.15 -0.1 1.3 0.45 1.75 1.0 2.2 1.75 2.25 L3.0 2.1 3.65 1.55 M21.25 5.45 L31.35 8.95 Q31.85 10.55 30.45 11.05 L20.45 7.5" fill="none" stroke="#000000" stroke-linecap="round" stroke-linejoin="round" stroke-width="0.8"/>
  </g>
</svg>
