<?xml version="1.0" encoding="UTF-8" standalone="no"?>
<svg xmlns:xlink="http://www.w3.org/1999/xlink" height="16.05px" width="34.75px" xmlns="http://www.w3.org/2000/svg">
  <g transform="matrix(1.0, 0.0, 0.0, 1.0, 7.15, 7.0)">
    <path d="M-3.65 -1.85 Q-2.65 -2.6 -0.75 -2.85 2.6 -3.3 6.05 -2.75 8.5 -2.3 11.15 -1.3 15.75 0.45 16.75 1.3 14.6 1.1 12.75 2.0 11.85 2.5 11.4 3.55 7.05 1.25 -3.65 -1.85 7.05 1.25 11.4 3.55 11.85 2.5 12.75 2.0 14.6 1.1 16.75 1.3 L16.95 1.8 16.8 3.75 Q15.4 3.5 14.4 3.75 12.65 4.1 16.2 5.7 L10.8 6.15 Q6.9 6.2 -1.25 3.15 -5.3 1.4 -4.5 -0.5 L-3.65 -1.85 M11.4 3.55 Q10.95 4.65 10.8 6.15 10.95 4.65 11.4 3.55" fill="#ee0c4e" fill-rule="evenodd" stroke="none"/>
    <path d="M16.8 3.75 Q19.0 4.05 22.4 5.55 L27.1 7.45 24.9 8.55 Q18.95 6.8 16.2 5.7 12.65 4.1 14.4 3.75 15.4 3.5 16.8 3.75" fill="#f3c89e" fill-rule="evenodd" stroke="none"/>
    <path d="M16.75 1.3 Q15.75 0.45 11.15 -1.3 8.5 -2.3 6.05 -2.75 2.6 -3.3 -0.75 -2.85 -2.65 -2.6 -3.65 -1.85 7.05 1.25 11.4 3.55 11.85 2.5 12.75 2.0 14.6 1.1 16.75 1.3 L16.95 1.8 16.8 3.75 Q19.0 4.05 22.4 5.55 L27.1 7.45 24.9 8.55 Q18.95 6.8 16.2 5.7 L10.8 6.15 Q6.9 6.2 -1.25 3.15 -5.3 1.4 -4.5 -0.5 L-3.65 -1.85 M6.05 -2.75 Q5.9 -4.6 7.25 -6.35 M16.2 5.7 Q12.65 4.1 14.4 3.75 15.4 3.5 16.8 3.75 M10.8 6.15 Q10.95 4.65 11.4 3.55 M-6.65 -6.5 Q-2.55 -2.95 -6.05 2.55" fill="none" stroke="#000000" stroke-linecap="round" stroke-linejoin="round" stroke-width="1.0"/>
  </g>
</svg>
