<?xml version="1.0" encoding="UTF-8" standalone="no"?>
<svg xmlns:xlink="http://www.w3.org/1999/xlink" height="13.5px" width="19.2px" xmlns="http://www.w3.org/2000/svg">
  <g transform="matrix(1.0, 0.0, 0.0, 1.0, 8.75, 8.8)">
    <path d="M6.15 -7.5 Q7.7 -8.5 9.1 -6.8 10.5 -5.0 9.65 -3.15 L8.6 -1.0 Q5.6 1.5 4.95 -0.4 5.8 -0.65 6.55 -1.35 7.9 -2.5 7.9 -4.2 7.9 -5.85 6.55 -7.1 L6.15 -7.5 6.55 -7.1 Q7.9 -5.85 7.9 -4.2 7.9 -2.5 6.55 -1.35 5.8 -0.65 4.95 -0.4 L4.2 -0.2 Q3.35 -3.65 -0.65 -2.15 -1.2 -3.05 -1.2 -4.2 L-1.0 -5.4 Q-2.5 -3.25 -1.95 -0.9 -1.35 1.15 -7.45 -2.05 L-8.05 -4.05 Q-8.9 -5.75 -6.4 -7.5 -4.0 -9.2 0.4 -7.35 1.7 -8.3 3.4 -8.3 4.9 -8.3 6.15 -7.5 M3.5 -7.5 Q2.95 -7.5 2.55 -7.05 2.15 -6.6 2.15 -5.95 2.15 -5.25 2.55 -4.75 2.95 -4.35 3.5 -4.35 4.05 -4.35 4.5 -4.75 4.9 -5.25 4.9 -5.95 4.9 -6.6 4.5 -7.05 4.05 -7.5 3.5 -7.5 M0.4 -7.35 L0.15 -7.1 Q-0.7 -6.35 -1.0 -5.4 -0.7 -6.35 0.15 -7.1 L0.4 -7.35" fill="#ffb1e4" fill-rule="evenodd" stroke="none"/>
    <path d="M3.5 -7.5 Q4.05 -7.5 4.5 -7.05 4.9 -6.6 4.9 -5.95 4.9 -5.25 4.5 -4.75 4.05 -4.35 3.5 -4.35 2.95 -4.35 2.55 -4.75 2.15 -5.25 2.15 -5.95 2.15 -6.6 2.55 -7.05 2.95 -7.5 3.5 -7.5" fill="#ffffff" fill-rule="evenodd" stroke="none"/>
    <path d="M4.95 -0.4 Q5.6 1.5 8.6 -1.0 L8.7 -0.35 Q8.85 1.05 7.65 2.95 6.35 4.8 3.95 3.95 L-0.95 3.8 -5.3 3.65 Q-7.75 2.85 -7.2 0.45 -7.15 -0.9 -7.45 -2.05 -1.35 1.15 -1.95 -0.9 -2.5 -3.25 -1.0 -5.4 L-1.2 -4.2 Q-1.2 -3.05 -0.65 -2.15 L0.15 -1.35 Q1.5 -0.15 3.4 -0.15 L4.2 -0.2 3.4 -0.15 Q1.5 -0.15 0.15 -1.35 L-0.65 -2.15 Q3.35 -3.65 4.2 -0.2 L4.95 -0.4" fill="#d482c1" fill-rule="evenodd" stroke="none"/>
    <path d="M8.6 -1.0 L9.65 -3.15 Q10.5 -5.0 9.1 -6.8 7.7 -8.5 6.15 -7.5 L6.55 -7.1 Q7.9 -5.85 7.9 -4.2 7.9 -2.5 6.55 -1.35 5.8 -0.65 4.95 -0.4 L4.2 -0.2 3.4 -0.15 Q1.5 -0.15 0.15 -1.35 L-0.65 -2.15 Q-1.2 -3.05 -1.2 -4.2 L-1.0 -5.4 Q-0.7 -6.35 0.15 -7.1 L0.4 -7.35 Q1.7 -8.3 3.4 -8.3 4.9 -8.3 6.15 -7.5 M8.6 -1.0 L8.7 -0.35 Q8.85 1.05 7.65 2.95 6.35 4.8 3.95 3.95 L-0.95 3.8 -5.3 3.65 Q-7.75 2.85 -7.2 0.45 -7.15 -0.9 -7.45 -2.05 L-8.05 -4.05 Q-8.9 -5.75 -6.4 -7.5 -4.0 -9.2 0.4 -7.35" fill="none" stroke="#000000" stroke-linecap="round" stroke-linejoin="round" stroke-width="1.0"/>
  </g>
</svg>
