<?xml version="1.0" encoding="UTF-8" standalone="no"?>
<svg xmlns:xlink="http://www.w3.org/1999/xlink" height="20.9px" width="24.0px" xmlns="http://www.w3.org/2000/svg">
  <g transform="matrix(1.0, 0.0, 0.0, 1.0, 8.2, 3.6)">
    <path d="M-5.2 -1.8 L-2.35 -0.9 Q-0.3 -0.65 2.1 -1.8 3.4 -1.1 5.0 -1.2 5.85 -1.35 7.9 -2.75 L9.3 0.15 6.35 0.65 5.65 -0.45 5.6 -0.45 5.4 -0.35 5.85 0.75 0.8 1.45 0.1 0.15 -0.05 0.3 0.3 1.5 -0.9 1.6 Q-1.9 1.75 -2.4 2.45 L-2.4 2.65 0.5 2.3 1.3 5.55 1.05 4.7 0.05 4.75 -0.8 5.05 Q-2.3 5.8 -0.2 5.65 L1.3 5.55 2.3 9.45 1.55 9.5 Q0.5 9.65 -0.1 10.25 L-0.1 10.4 2.5 10.05 2.7 10.7 3.3 12.1 3.45 12.15 3.5 9.95 7.8 9.4 8.3 9.3 8.35 9.7 8.55 9.9 8.75 10.75 Q8.85 11.2 9.1 11.45 9.5 11.85 9.55 11.35 9.6 10.2 9.25 9.3 L9.25 9.2 13.35 8.75 13.4 8.75 15.3 12.6 -0.05 14.7 -5.2 -1.8 M11.45 4.7 L13.05 7.85 9.2 8.45 8.15 4.95 11.45 4.7 M11.1 3.85 L7.9 4.15 6.7 1.45 8.45 1.25 Q9.45 1.1 9.55 0.75 L11.1 3.85 M7.25 5.05 L8.1 8.6 3.4 9.25 3.2 8.6 2.1 5.45 7.25 5.05 M6.1 1.5 L6.95 4.25 1.85 4.65 1.35 2.95 1.15 2.25 2.7 2.0 6.1 1.5" fill="#3a1818" fill-rule="evenodd" stroke="none"/>
    <path d="M13.4 8.75 L13.35 8.75 9.25 9.2 9.25 9.3 Q9.6 10.2 9.55 11.35 9.5 11.85 9.1 11.45 8.85 11.2 8.75 10.75 L8.55 9.9 8.35 9.7 8.3 9.3 7.8 9.4 3.5 9.95 3.45 12.15 3.3 12.1 2.7 10.7 2.5 10.05 -0.1 10.4 -0.1 10.25 Q0.5 9.65 1.55 9.5 L2.3 9.45 1.3 5.55 -0.2 5.65 Q-2.3 5.8 -0.8 5.05 L0.05 4.75 1.05 4.7 1.3 5.55 0.5 2.3 -2.4 2.65 -2.4 2.45 Q-1.9 1.75 -0.9 1.6 L0.3 1.5 -0.05 0.3 0.1 0.15 0.8 1.45 5.85 0.75 5.4 -0.35 5.6 -0.45 5.65 -0.45 6.35 0.65 9.3 0.15 9.55 0.75 Q9.45 1.1 8.45 1.25 L6.7 1.45 7.9 4.15 11.1 3.85 11.45 4.7 8.15 4.95 9.2 8.45 13.05 7.85 13.4 8.75 M6.1 1.5 L2.7 2.0 1.15 2.25 1.35 2.95 1.85 4.65 6.95 4.25 6.1 1.5 M7.25 5.05 L2.1 5.45 3.2 8.6 3.4 9.25 8.1 8.6 7.25 5.05" fill="#5b2525" fill-rule="evenodd" stroke="none"/>
    <path d="M-5.7 -1.4 L-6.5 -2.3 -5.7 -1.4 M15.3 12.6 L14.9 15.3 -1.4 16.8 -6.4 -1.1 -6.5 -2.3 -5.2 -1.8 -0.05 14.7 15.3 12.6" fill="#190a0a" fill-rule="evenodd" stroke="none"/>
    <path d="M-6.5 -2.3 L-5.7 -1.4 M-6.5 -2.3 L-7.7 -2.9 M15.3 12.6 L14.9 15.3 -1.4 16.8 -6.4 -1.1 -6.5 -2.3 -5.2 -1.8 -2.35 -0.9 Q-0.3 -0.65 2.1 -1.8 3.4 -1.1 5.0 -1.2 5.85 -1.35 7.9 -2.75 L8.45 -3.1 M9.3 0.15 L7.9 -2.75 M13.05 7.85 L13.4 8.75 15.3 12.6 M11.45 4.7 L13.05 7.85 M11.45 4.7 L11.1 3.85 9.55 0.75 9.3 0.15" fill="none" stroke="#000000" stroke-linecap="round" stroke-linejoin="round" stroke-width="1.0"/>
  </g>
</svg>
