<?xml version="1.0" encoding="UTF-8" standalone="no"?>
<svg xmlns:xlink="http://www.w3.org/1999/xlink" height="13.4px" width="35.35px" xmlns="http://www.w3.org/2000/svg">
  <g transform="matrix(1.0, 0.0, 0.0, 1.0, 18.75, 9.95)">
    <path d="M-15.45 -9.0 L-14.25 -9.2 -8.95 -8.55 -5.15 -7.65 Q-2.05 -6.85 0.55 -6.95 2.75 -7.05 4.65 -7.75 L7.6 -8.75 Q10.6 -9.65 12.6 -9.4 L12.8 -9.4 Q15.7 -5.45 11.45 0.6 9.4 1.55 6.95 2.15 L0.45 2.95 -1.4 2.95 -7.2 2.5 Q-10.25 2.1 -12.7 1.2 -17.1 -4.9 -15.45 -9.0 M-8.95 -8.55 L-7.2 2.5 -8.95 -8.55 M6.95 2.15 L7.6 -8.75 6.95 2.15 M0.45 2.95 L0.55 -6.95 0.45 2.95" fill="#ffffff" fill-rule="evenodd" stroke="none"/>
    <path d="M12.8 -9.4 Q16.15 -9.6 16.1 -6.45 16.0 -3.35 14.55 -1.85 13.1 -0.35 11.45 0.6 15.7 -5.45 12.8 -9.4 M-12.7 1.2 Q-14.4 0.45 -16.35 -1.15 -18.3 -2.8 -18.25 -5.75 -18.15 -8.75 -15.45 -9.0 -17.1 -4.9 -12.7 1.2" fill="#512729" fill-rule="evenodd" stroke="none"/>
    <path d="M-15.45 -9.0 L-14.25 -9.2 -8.95 -8.55 -5.15 -7.65 Q-2.05 -6.85 0.55 -6.95 2.75 -7.05 4.65 -7.75 L7.6 -8.75 Q10.6 -9.65 12.6 -9.4 L12.8 -9.4 Q16.15 -9.6 16.1 -6.45 16.0 -3.35 14.55 -1.85 13.1 -0.35 11.45 0.6 9.4 1.55 6.95 2.15 L0.45 2.95 -1.4 2.95 -7.2 2.5 Q-10.25 2.1 -12.7 1.2 -14.4 0.45 -16.35 -1.15 -18.3 -2.8 -18.25 -5.75 -18.15 -8.75 -15.45 -9.0 -17.1 -4.9 -12.7 1.2 M12.8 -9.4 Q15.7 -5.45 11.45 0.6 M0.55 -6.95 L0.45 2.95 M7.6 -8.75 L6.95 2.15 M-7.2 2.5 L-8.95 -8.55" fill="none" stroke="#000000" stroke-linecap="round" stroke-linejoin="round" stroke-width="1.0"/>
  </g>
</svg>
