<?xml version="1.0" encoding="UTF-8" standalone="no"?>
<svg xmlns:xlink="http://www.w3.org/1999/xlink" height="118.1px" width="67.0px" xmlns="http://www.w3.org/2000/svg">
  <g transform="matrix(1.0, 0.0, 0.0, 1.0, 34.2, 7.2)">
    <path d="M14.8 -1.6 L14.8 -2.85 14.95 -2.2 14.8 -1.6" fill="#3a0b0b" fill-rule="evenodd" stroke="none"/>
    <path d="M9.3 -5.65 L7.8 -4.0 Q5.2 -3.85 0.8 -4.0 -7.9 -3.4 -13.45 -4.9 L-11.95 -5.4 Q-7.3 -6.7 -0.8 -6.7 5.0 -6.7 9.3 -5.65" fill="#ffffff" fill-rule="evenodd" stroke="none"/>
    <path d="M-13.45 -4.9 Q-7.9 -3.4 0.8 -4.0 5.2 -3.85 7.8 -4.0 L9.3 -5.65 9.65 -5.55 10.35 -5.4 Q14.05 -4.3 14.8 -2.85 L14.8 -1.6 Q14.15 -0.15 10.35 0.95 5.75 2.3 -0.8 2.3 -7.3 2.3 -11.95 0.95 -14.75 0.15 -15.85 -0.8 -15.6 -2.15 -16.05 -3.35 -15.3 -4.2 -13.45 -4.9" fill="#170404" fill-rule="evenodd" stroke="none"/>
    <path d="M-13.45 -4.9 Q-7.9 -3.4 0.8 -4.0 5.2 -3.85 7.8 -4.0 L9.3 -5.65" fill="none" stroke="#000000" stroke-linecap="round" stroke-linejoin="round" stroke-width="0.5"/>
    <path d="M9.3 -5.65 Q5.0 -6.7 -0.8 -6.7 -7.3 -6.7 -11.95 -5.4 L-13.45 -4.9 Q-15.3 -4.2 -16.05 -3.35 -15.6 -2.15 -15.85 -0.8 -14.75 0.15 -11.95 0.95 -7.3 2.3 -0.8 2.3 5.75 2.3 10.35 0.95 14.15 -0.15 14.8 -1.6 L14.8 -2.85 Q14.05 -4.3 10.35 -5.4 L9.65 -5.55 9.3 -5.65 M14.8 -2.85 L15.2 -5.1 M14.8 -1.6 L15.15 -0.3 M-17.6 -5.85 Q-16.6 -4.95 -16.05 -3.35 M-15.85 -0.8 Q-16.1 0.5 -16.45 1.2" fill="none" stroke="#000000" stroke-linecap="round" stroke-linejoin="round" stroke-width="1.0"/>
    <path d="M-12.35 105.5 Q-18.2 105.4 -19.85 104.15 L-19.0 95.95 Q-12.45 31.85 -14.9 1.25 L-15.25 0.1 Q-15.35 -0.3 -14.6 -1.35 -13.9 -2.45 -9.6 -1.95 -3.3 21.45 -11.4 95.95 L-12.35 105.5" fill="#ff3a3a" fill-opacity="0.8" fill-rule="evenodd" stroke="none"/>
    <path d="M-4.4 105.85 L-12.35 105.5 -11.4 95.95 Q-3.3 21.45 -9.6 -1.95 L-4.5 -2.3 Q3.15 22.2 -4.15 95.95 -4.55 99.95 -4.4 105.85" fill="#ff932a" fill-opacity="0.8" fill-rule="evenodd" stroke="none"/>
    <path d="M2.95 105.85 Q-0.1 106.9 -4.4 105.85 -4.55 99.95 -4.15 95.95 3.15 22.2 -4.5 -2.3 L-0.85 -2.5 1.45 -2.45 Q7.8 14.95 2.95 95.95 2.7 99.95 2.95 105.85" fill="#fffd31" fill-opacity="0.8" fill-rule="evenodd" stroke="none"/>
    <path d="M9.15 105.35 Q6.4 104.95 2.95 105.85 2.7 99.95 2.95 95.95 7.8 14.95 1.45 -2.45 3.6 -2.85 5.65 -2.4 13.85 20.8 8.6 95.95 8.3 99.95 9.15 105.35" fill="#3aff4c" fill-opacity="0.8" fill-rule="evenodd" stroke="none"/>
    <path d="M5.65 -2.4 L10.15 -2.2 Q17.3 31.7 15.0 95.95 14.85 100.0 15.2 104.75 12.7 105.6 9.15 105.35 8.3 99.95 8.6 95.95 13.85 20.8 5.65 -2.4" fill="#3fefff" fill-opacity="0.8" fill-rule="evenodd" stroke="none"/>
    <path d="M10.15 -2.2 L13.05 -1.9 13.85 -1.4 Q21.4 37.35 21.3 95.95 L21.25 104.15 Q19.05 103.9 15.2 104.75 14.85 100.0 15.0 95.95 17.3 31.7 10.15 -2.2" fill="#4b3cff" fill-opacity="0.8" fill-rule="evenodd" stroke="none"/>
    <path d="M5.65 -2.4 L10.15 -2.2 M-14.6 -1.35 Q-13.9 -2.45 -9.6 -1.95 L-4.5 -2.3 -0.85 -2.5 1.45 -2.45 Q3.6 -2.85 5.65 -2.4" fill="none" stroke="#000000" stroke-linecap="round" stroke-linejoin="round" stroke-width="0.7000000000000001"/>
    <path d="M13.05 -1.9 L13.85 -1.4 Q21.4 37.35 21.3 95.95 L21.25 104.15 Q19.05 103.9 15.2 104.75 12.7 105.6 9.15 105.35 6.4 104.95 2.95 105.85 -0.1 106.9 -4.4 105.85 L-12.35 105.5 Q-18.2 105.4 -19.85 104.15 L-19.0 95.95 Q-12.45 31.85 -14.9 1.25 L-15.25 0.1 Q-15.35 -0.3 -14.6 -1.35" fill="none" stroke="url(#gradient0)" stroke-linecap="round" stroke-linejoin="round" stroke-width="0.7000000000000001"/>
    <path d="M10.15 -2.2 L13.05 -1.9" fill="none" stroke="url(#gradient1)" stroke-linecap="round" stroke-linejoin="round" stroke-width="0.7000000000000001"/>
    <path d="M30.35 97.9 Q33.9 98.25 31.5 99.6 28.2 101.5 24.05 101.45 23.55 101.45 23.5 101.1 23.4 99.0 27.25 98.25 L30.35 97.9 M25.6 96.7 Q23.6 97.6 23.7 96.25 23.75 95.0 25.5 94.6 28.25 95.55 25.6 96.7" fill="#4b3cff" fill-rule="evenodd" stroke="none"/>
    <path d="M-33.8 98.65 Q-34.2 97.4 -32.45 97.05 -26.3 96.9 -23.0 99.55 -22.65 99.8 -23.15 100.05 L-26.25 100.3 -33.15 99.05 -33.8 98.65 M-21.8 97.1 Q-25.45 96.65 -24.55 94.8 -24.45 94.55 -24.0 94.55 -20.55 95.15 -21.0 96.8 -21.1 97.2 -21.8 97.1 M-23.75 102.65 Q-22.55 102.5 -22.05 103.1 -21.7 103.6 -22.3 103.95 -22.45 107.15 -28.5 106.5 -31.75 106.1 -30.8 104.25 -30.45 103.6 -29.3 103.5 L-23.75 102.65" fill="#ff3a3a" fill-rule="evenodd" stroke="none"/>
    <path d="M-15.1 105.35 Q-12.95 106.2 -13.9 107.85 -14.15 108.3 -14.9 108.4 L-19.8 108.05 Q-21.1 107.6 -19.95 107.1 L-17.65 106.05 -15.1 105.35" fill="#ff932a" fill-rule="evenodd" stroke="none"/>
    <path d="M-2.5 106.5 Q0.1 106.95 0.4 108.95 0.7 110.65 -2.8 110.55 -6.3 110.45 -5.25 108.3 -4.55 106.9 -2.5 106.5" fill="#fffd31" fill-rule="evenodd" stroke="none"/>
    <path d="M8.05 105.95 Q13.1 106.1 13.95 108.5 14.25 109.25 12.85 109.45 L9.75 109.1 Q6.75 107.85 7.5 106.2 7.6 105.95 8.05 105.95" fill="#3aff4c" fill-rule="evenodd" stroke="none"/>
    <path d="M22.25 103.6 Q25.8 104.6 26.65 106.6 26.75 106.8 26.3 106.85 21.7 107.15 19.95 104.85 19.5 104.35 20.45 104.0 L22.25 103.6" fill="#3fefff" fill-rule="evenodd" stroke="none"/>
    <path d="M-33.8 98.65 Q-34.2 97.4 -32.45 97.05 -26.3 96.9 -23.0 99.55 -22.65 99.8 -23.15 100.05 L-26.25 100.3 -33.15 99.05 -33.8 98.65 M-21.8 97.1 Q-25.45 96.65 -24.55 94.8 -24.45 94.55 -24.0 94.55 -20.55 95.15 -21.0 96.8 -21.1 97.2 -21.8 97.1 M-23.75 102.65 Q-22.55 102.5 -22.05 103.1 -21.7 103.6 -22.3 103.95 -22.45 107.15 -28.5 106.5 -31.75 106.1 -30.8 104.25 -30.45 103.6 -29.3 103.5 L-23.75 102.65" fill="none" stroke="#801e1c" stroke-linecap="round" stroke-linejoin="round" stroke-width="0.7000000000000001"/>
    <path d="M-15.1 105.35 Q-12.95 106.2 -13.9 107.85 -14.15 108.3 -14.9 108.4 L-19.8 108.05 Q-21.1 107.6 -19.95 107.1 L-17.65 106.05 -15.1 105.35" fill="none" stroke="#80460e" stroke-linecap="round" stroke-linejoin="round" stroke-width="0.7000000000000001"/>
    <path d="M-2.5 106.5 Q0.1 106.95 0.4 108.95 0.7 110.65 -2.8 110.55 -6.3 110.45 -5.25 108.3 -4.55 106.9 -2.5 106.5" fill="none" stroke="#806b09" stroke-linecap="round" stroke-linejoin="round" stroke-width="0.7000000000000001"/>
    <path d="M8.05 105.95 Q13.1 106.1 13.95 108.5 14.25 109.25 12.85 109.45 L9.75 109.1 Q6.75 107.85 7.5 106.2 7.6 105.95 8.05 105.95" fill="none" stroke="#0b801c" stroke-linecap="round" stroke-linejoin="round" stroke-width="0.7000000000000001"/>
    <path d="M22.25 103.6 Q25.8 104.6 26.65 106.6 26.75 106.8 26.3 106.85 21.7 107.15 19.95 104.85 19.5 104.35 20.45 104.0 L22.25 103.6" fill="none" stroke="#0b7680" stroke-linecap="round" stroke-linejoin="round" stroke-width="0.7000000000000001"/>
    <path d="M30.35 97.9 Q33.9 98.25 31.5 99.6 28.2 101.5 24.05 101.45 23.55 101.45 23.5 101.1 23.4 99.0 27.25 98.25 L30.35 97.9 M25.6 96.7 Q23.6 97.6 23.7 96.25 23.75 95.0 25.5 94.6 28.25 95.55 25.6 96.7" fill="none" stroke="#0a2280" stroke-linecap="round" stroke-linejoin="round" stroke-width="0.7000000000000001"/>
  </g>
  <defs>
    <linearGradient gradientTransform="matrix(0.0255, 0.0, 0.0, 0.0653, 0.7, 50.8)" gradientUnits="userSpaceOnUse" id="gradient0" spreadMethod="pad" x1="-819.2" x2="819.2">
      <stop offset="0.0" stop-color="#801d1d"/>
      <stop offset="0.24705882352941178" stop-color="#823b0f"/>
      <stop offset="0.5019607843137255" stop-color="#858419"/>
      <stop offset="0.7647058823529411" stop-color="#063c34"/>
      <stop offset="1.0" stop-color="#1c0e77"/>
    </linearGradient>
    <linearGradient gradientTransform="matrix(0.0255, 0.0, 0.0, 0.0669, 0.7, 51.75)" gradientUnits="userSpaceOnUse" id="gradient1" spreadMethod="pad" x1="-819.2" x2="819.2">
      <stop offset="0.0" stop-color="#801d1d"/>
      <stop offset="0.24705882352941178" stop-color="#823b0f"/>
      <stop offset="0.5019607843137255" stop-color="#858419"/>
      <stop offset="0.7647058823529411" stop-color="#063c34"/>
      <stop offset="1.0" stop-color="#1c0e77"/>
    </linearGradient>
  </defs>
</svg>
