<?xml version="1.0" encoding="UTF-8" standalone="no"?>
<svg xmlns:xlink="http://www.w3.org/1999/xlink" height="18.35px" width="23.45px" xmlns="http://www.w3.org/2000/svg">
  <g transform="matrix(1.0, 0.0, 0.0, 1.0, 0.3, 7.5)">
    <path d="M8.55 -2.85 Q7.95 -3.3 7.35 -2.5 6.95 -1.9 7.5 -1.55 7.9 -1.3 8.35 -1.75 9.1 -2.4 8.55 -2.85 M9.25 -4.3 Q8.35 -3.6 8.75 -3.25 9.25 -2.8 10.95 -4.0 12.75 -5.25 14.9 -5.35 17.0 -5.5 18.5 -4.4 20.45 -2.9 20.65 -3.15 20.7 -3.5 18.95 -4.75 17.15 -6.0 15.2 -6.05 11.4 -6.3 9.25 -4.3 M3.05 0.0 Q5.2 -0.05 6.15 -1.45 8.45 -5.1 11.6 -6.15 15.1 -7.2 18.45 -5.3 20.0 -4.5 21.65 -2.7 L21.85 -2.45 Q22.55 0.55 21.0 3.95 19.05 8.4 13.95 9.05 9.2 9.25 5.25 4.25 L5.2 3.85 5.05 3.45 Q4.3 0.95 3.05 0.0" fill="#ff7a99" fill-rule="evenodd" stroke="none"/>
    <path d="M9.25 -4.3 Q11.4 -6.3 15.2 -6.05 17.15 -6.0 18.95 -4.75 20.7 -3.5 20.65 -3.15 20.45 -2.9 18.5 -4.4 17.0 -5.5 14.9 -5.35 12.75 -5.25 10.95 -4.0 9.25 -2.8 8.75 -3.25 8.35 -3.6 9.25 -4.3 M8.55 -2.85 Q9.1 -2.4 8.35 -1.75 7.9 -1.3 7.5 -1.55 6.95 -1.9 7.35 -2.5 7.95 -3.3 8.55 -2.85" fill="#ffffff" fill-rule="evenodd" stroke="none"/>
    <path d="M3.05 0.0 L2.4 -0.25 Q4.95 -0.65 6.0 -2.55 7.1 -4.75 9.4 -6.05 12.6 -7.9 16.2 -6.9 19.8 -5.95 21.7 -2.8 L21.65 -2.7 Q20.0 -4.5 18.45 -5.3 15.1 -7.2 11.6 -6.15 8.45 -5.1 6.15 -1.45 5.2 -0.05 3.05 0.0" fill="#ff8fa8" fill-rule="evenodd" stroke="none"/>
    <path d="M21.85 -2.45 Q23.5 0.6 22.6 4.0 21.65 7.55 18.45 9.4 15.2 11.25 11.6 10.3 8.0 9.3 6.15 6.15 L5.25 4.25 Q9.2 9.25 13.95 9.05 19.05 8.4 21.0 3.95 22.55 0.55 21.85 -2.45" fill="#bf5b73" fill-rule="evenodd" stroke="none"/>
    <path d="M0.2 -3.35 Q2.55 -0.35 1.0 2.55" fill="none" stroke="#000000" stroke-linecap="round" stroke-linejoin="round" stroke-width="1.0"/>
    <path d="M21.65 -2.7 L21.7 -2.8 Q19.8 -5.95 16.2 -6.9 12.6 -7.9 9.4 -6.05 7.1 -4.75 6.0 -2.55 4.95 -0.65 2.4 -0.25 L3.05 0.0 Q4.3 0.95 5.05 3.45 L5.2 3.85 5.25 4.25 6.15 6.15 Q8.0 9.3 11.6 10.3 15.2 11.25 18.45 9.4 21.65 7.55 22.6 4.0 23.5 0.6 21.85 -2.45 L21.65 -2.7" fill="none" stroke="#f24f6e" stroke-linecap="round" stroke-linejoin="round" stroke-width="0.5"/>
  </g>
</svg>
