<?xml version="1.0" encoding="UTF-8" standalone="no"?>
<svg xmlns:xlink="http://www.w3.org/1999/xlink" height="26.15px" width="36.8px" xmlns="http://www.w3.org/2000/svg">
  <g transform="matrix(1.0, 0.0, 0.0, 1.0, 17.2, 12.9)">
    <path d="M-14.2 1.55 L-14.25 1.55 -14.65 1.75 -14.2 1.55" fill="#ec839a" fill-rule="evenodd" stroke="none"/>
    <path d="M-3.65 -11.85 Q0.35 -11.3 2.6 -8.15 4.85 -5.05 8.85 -6.9 L15.0 -9.5 Q15.55 -8.95 15.8 -7.8 16.6 -4.35 13.65 -2.55 L13.3 -2.6 Q12.7 -2.6 12.6 -2.05 12.55 -1.75 12.8 -1.7 16.6 -0.8 19.3 2.05 19.35 2.5 18.65 3.65 17.95 4.8 15.6 5.3 L11.25 4.95 Q9.45 5.1 8.4 6.6 L6.75 8.7 4.85 10.8 4.5 11.4 2.35 12.8 1.4 13.0 Q1.55 10.35 0.35 10.1 L-2.5 9.55 -5.5 8.85 Q-6.9 8.4 -8.25 7.45 -9.6 6.45 -11.2 7.1 L-13.55 7.75 -14.4 7.8 -15.25 7.3 -15.6 4.75 Q-15.65 3.85 -14.9 3.5 L-12.75 2.25 Q-11.0 0.95 -12.45 -0.15 L-12.55 -0.05 -12.65 -0.3 Q-16.1 -2.05 -16.4 -5.75 L-16.3 -6.9 -15.85 -6.8 -13.8 -7.3 Q-11.8 -7.7 -10.0 -6.75 -7.9 -5.7 -5.5 -5.95 L-5.25 -6.1 Q-4.75 -6.85 -5.05 -7.15 -4.65 -7.4 -4.7 -7.75 L-4.55 -10.1 Q-4.35 -11.15 -3.65 -11.85 M3.75 -0.3 Q2.55 -1.1 -0.6 0.15 2.55 -1.1 3.75 -0.3" fill="#ec839a" fill-opacity="0.8" fill-rule="evenodd" stroke="none"/>
    <path d="M-14.4 7.8 L-13.55 7.75 -11.2 7.1 Q-9.6 6.45 -8.25 7.45 -6.9 8.4 -5.5 8.85 L-2.5 9.55 0.35 10.1 Q1.55 10.35 1.4 13.0 0.8 12.95 0.4 12.25 -0.55 10.6 -2.45 10.45 -4.9 10.25 -7.1 9.35 -9.4 8.4 -12.2 8.2 L-14.4 7.8 M4.5 11.4 L4.85 10.8 6.75 8.7 8.4 6.6 Q9.45 5.1 11.25 4.95 L15.6 5.3 Q14.1 5.9 12.35 5.95 11.5 6.0 10.75 6.35 7.5 8.0 5.25 10.6 L4.5 11.4" fill="#bf5b73" fill-opacity="0.84705883" fill-rule="evenodd" stroke="none"/>
    <path d="M15.0 -9.5 L8.85 -6.9 Q4.85 -5.05 2.6 -8.15 0.35 -11.3 -3.65 -11.85 L-3.05 -12.3 -1.4 -12.65 Q2.55 -12.25 4.1 -10.3 5.65 -8.35 7.4 -8.25 9.05 -8.2 10.9 -9.15 12.75 -10.15 13.85 -10.05 14.5 -10.0 15.0 -9.5 M-5.05 -7.15 Q-4.75 -6.85 -5.25 -6.1 L-5.5 -5.95 Q-7.9 -5.7 -10.0 -6.75 -11.8 -7.7 -13.8 -7.3 L-15.85 -6.8 -16.3 -6.9 Q-15.95 -7.95 -14.75 -8.35 L-14.7 -8.4 -14.65 -8.4 -14.55 -8.45 -14.5 -8.45 -14.2 -8.55 -13.95 -8.6 Q-11.35 -9.1 -8.95 -7.7 -7.05 -6.6 -5.35 -7.05 L-5.05 -7.15 M-12.55 -0.05 L-12.45 -0.15 Q-11.0 0.95 -12.75 2.25 L-14.9 3.5 Q-15.65 3.85 -15.6 4.75 L-15.25 7.3 Q-16.5 6.45 -16.8 5.7 -17.15 4.9 -16.75 3.75 -16.35 2.55 -14.65 1.75 L-14.25 1.55 -14.2 1.55 Q-12.4 0.85 -12.55 -0.05 M19.3 2.05 Q16.6 -0.8 12.8 -1.7 12.55 -1.75 12.6 -2.05 12.7 -2.6 13.3 -2.6 L13.65 -2.55 13.4 -2.4 Q17.8 -1.95 18.7 -0.25 19.55 1.4 19.3 2.05" fill="#ff9cb2" fill-opacity="0.84705883" fill-rule="evenodd" stroke="none"/>
    <path d="M-0.6 0.15 Q2.55 -1.1 3.75 -0.3" fill="none" stroke="#000000" stroke-linecap="round" stroke-linejoin="round" stroke-opacity="0.31764707" stroke-width="1.0"/>
    <path d="M-3.65 -11.85 Q-4.35 -11.15 -4.55 -10.1 L-4.7 -7.75 Q-4.65 -7.4 -5.05 -7.15 L-5.35 -7.05 Q-7.05 -6.6 -8.95 -7.7 -11.35 -9.1 -13.95 -8.6 L-14.2 -8.55 -14.5 -8.45 -14.55 -8.45 -14.65 -8.4 -14.7 -8.4 -14.75 -8.35 Q-15.95 -7.95 -16.3 -6.9 L-16.4 -5.75 Q-16.1 -2.05 -12.65 -0.3 L-12.55 -0.05 Q-12.4 0.85 -14.2 1.55 L-14.65 1.75 Q-16.35 2.55 -16.75 3.75 -17.15 4.9 -16.8 5.7 -16.5 6.45 -15.25 7.3 L-14.4 7.8 -12.2 8.2 Q-9.4 8.4 -7.1 9.35 -4.9 10.25 -2.45 10.45 -0.55 10.6 0.4 12.25 0.8 12.95 1.4 13.0 L2.35 12.8 4.5 11.4 5.25 10.6 Q7.5 8.0 10.75 6.35 11.5 6.0 12.35 5.95 14.1 5.9 15.6 5.3 17.95 4.8 18.65 3.65 19.35 2.5 19.3 2.05 19.55 1.4 18.7 -0.25 17.8 -1.95 13.4 -2.4 L13.65 -2.55 Q16.6 -4.35 15.8 -7.8 15.55 -8.95 15.0 -9.5 14.5 -10.0 13.85 -10.05 12.75 -10.15 10.9 -9.15 9.05 -8.2 7.4 -8.25 5.65 -8.35 4.1 -10.3 2.55 -12.25 -1.4 -12.65 L-3.05 -12.3 -3.65 -11.85" fill="none" stroke="#f24f6e" stroke-linecap="round" stroke-linejoin="round" stroke-opacity="0.7490196" stroke-width="0.5"/>
  </g>
</svg>
