<?xml version="1.0" encoding="UTF-8" standalone="no"?>
<svg xmlns:xlink="http://www.w3.org/1999/xlink" height="8.4px" width="24.5px" xmlns="http://www.w3.org/2000/svg">
  <g transform="matrix(1.0, 0.0, 0.0, 1.0, 14.8, 4.8)">
    <path d="M-2.0 -0.15 L-2.3 -0.4 Q-3.1 -1.35 -2.5 -2.25 -1.55 -2.9 -0.65 -2.0 L1.2 -0.35 Q1.95 0.1 2.2 -1.2 L2.8 -1.95 Q4.05 -2.2 4.8 -1.1 5.75 -0.1 5.6 0.8 L5.6 0.95 Q2.3 -0.3 -2.0 -0.15 M5.85 -3.4 Q5.7 -4.35 6.5 -4.3 7.25 -4.25 7.85 -3.3 L8.65 -1.95 9.15 -1.05 Q9.35 -0.65 8.65 0.7 7.95 2.0 7.0 0.9 6.55 0.55 6.65 -0.75 6.8 -1.55 6.15 -2.7 L5.85 -3.4 M-12.8 1.25 Q-14.45 1.0 -14.3 -0.3 -13.95 -1.3 -12.35 -1.45 -11.1 -1.45 -9.8 -0.5 -9.1 0.0 -8.45 -0.85 L-6.35 -2.45 Q-5.3 -2.9 -4.6 -2.15 -4.05 -1.65 -4.55 -0.85 L-4.75 -0.25 Q-9.15 -0.3 -12.8 1.25" fill="#6d3335" fill-rule="evenodd" stroke="none"/>
    <path d="M5.6 0.95 Q5.3 2.85 4.05 2.6 3.45 2.5 3.15 2.1 3.05 1.45 2.0 1.6 L0.45 2.0 Q-1.3 2.6 -1.4 1.45 -1.5 0.45 -2.0 -0.15 2.3 -0.3 5.6 0.95 M-4.75 -0.25 L-4.75 0.55 Q-4.65 1.05 -3.9 1.25 -3.0 1.55 -3.45 2.15 -4.05 3.1 -5.7 3.1 -7.1 3.15 -8.05 1.85 -8.95 1.05 -11.3 1.25 L-12.8 1.25 Q-9.15 -0.3 -4.75 -0.25" fill="#c67885" fill-rule="evenodd" stroke="none"/>
    <path d="M-2.0 -0.15 L-2.3 -0.4 Q-3.1 -1.35 -2.5 -2.25 -1.55 -2.9 -0.65 -2.0 L1.2 -0.35 Q1.95 0.1 2.2 -1.2 L2.8 -1.95 Q4.05 -2.2 4.8 -1.1 5.75 -0.1 5.6 0.8 L5.6 0.95 Q5.3 2.85 4.05 2.6 3.45 2.5 3.15 2.1 3.05 1.45 2.0 1.6 L0.45 2.0 Q-1.3 2.6 -1.4 1.45 -1.5 0.45 -2.0 -0.15 2.3 -0.3 5.6 0.95 M5.85 -3.4 L6.15 -2.7 Q6.8 -1.55 6.65 -0.75 6.55 0.55 7.0 0.9 7.95 2.0 8.65 0.7 9.35 -0.65 9.15 -1.05 L8.65 -1.95 7.85 -3.3 Q7.25 -4.25 6.5 -4.3 5.7 -4.35 5.85 -3.4 M-12.8 1.25 Q-14.45 1.0 -14.3 -0.3 -13.95 -1.3 -12.35 -1.45 -11.1 -1.45 -9.8 -0.5 -9.1 0.0 -8.45 -0.85 L-6.35 -2.45 Q-5.3 -2.9 -4.6 -2.15 -4.05 -1.65 -4.55 -0.85 L-4.75 -0.25 -4.75 0.55 Q-4.65 1.05 -3.9 1.25 -3.0 1.55 -3.45 2.15 -4.05 3.1 -5.7 3.1 -7.1 3.15 -8.05 1.85 -8.95 1.05 -11.3 1.25 L-12.8 1.25 Q-9.15 -0.3 -4.75 -0.25" fill="none" stroke="#000000" stroke-linecap="round" stroke-linejoin="round" stroke-width="1.0"/>
  </g>
</svg>
