<?xml version="1.0" encoding="UTF-8" standalone="no"?>
<svg xmlns:xlink="http://www.w3.org/1999/xlink" height="10.05px" width="21.2px" xmlns="http://www.w3.org/2000/svg">
  <g transform="matrix(1.0, 0.0, 0.0, 1.0, 10.6, 6.45)">
    <path d="M2.4 2.75 Q-2.3 3.65 -6.25 1.3 -10.1 -1.45 -10.0 -5.85 L-8.35 -4.65 -7.45 -1.85 -5.05 -3.5 Q-4.55 -1.65 -3.75 -0.35 L-1.9 -1.9 Q1.15 -0.15 2.4 2.75" fill="#ec839a" fill-rule="evenodd" stroke="none"/>
    <path d="M-1.9 -1.9 L-1.1 -2.6 Q5.8 -2.15 10.0 -4.0 9.1 0.5 3.1 2.65 L2.4 2.75 Q1.15 -0.15 -1.9 -1.9" fill="#622a2d" fill-rule="evenodd" stroke="none"/>
    <path d="M-1.9 -1.9 L-1.1 -2.6 Q5.8 -2.15 10.0 -4.0 9.1 0.5 3.1 2.65 L2.4 2.75 Q-2.3 3.65 -6.25 1.3 -10.1 -1.45 -10.0 -5.85 L-8.35 -4.65 -7.45 -1.85 -5.05 -3.5 Q-4.55 -1.65 -3.75 -0.35 L-1.9 -1.9 Z" fill="none" stroke="#000000" stroke-linecap="round" stroke-linejoin="round" stroke-width="1.2000000000000002"/>
  </g>
</svg>
