<?xml version="1.0" encoding="UTF-8" standalone="no"?>
<svg xmlns:xlink="http://www.w3.org/1999/xlink" height="6.15px" width="23.4px" xmlns="http://www.w3.org/2000/svg">
  <g transform="matrix(1.0, 0.0, 0.0, 1.0, 12.6, 4.15)">
    <path d="M-10.05 -0.2 Q-7.35 -2.4 -2.85 -3.2 L0.05 -3.55 4.35 -3.3 5.65 -3.1 8.1 -2.25 Q9.4 -1.6 9.9 -0.55 10.7 1.25 9.2 1.35 L7.35 1.1 5.95 0.6 4.0 0.0 0.8 -0.45 -5.6 -0.7 -10.05 -0.2 M4.35 -3.3 L4.0 0.0 4.35 -3.3 M7.35 1.1 L8.1 -2.25 7.35 1.1 M0.05 -3.55 L0.2 -0.9 0.05 -3.55" fill="#ffffff" fill-rule="evenodd" stroke="none"/>
    <path d="M0.2 -0.9 L0.05 -3.55 M8.1 -2.25 L7.35 1.1 M4.0 0.0 L4.35 -3.3" fill="none" stroke="#000000" stroke-linecap="round" stroke-linejoin="round" stroke-width="0.8"/>
    <path d="M-10.05 -0.2 Q-7.35 -2.4 -2.85 -3.2 L0.05 -3.55 4.35 -3.3 5.65 -3.1 8.1 -2.25 Q9.4 -1.6 9.9 -0.55 10.7 1.25 9.2 1.35 L7.35 1.1 5.95 0.6 4.0 0.0 0.8 -0.45 -5.6 -0.7 -10.05 -0.2 -10.35 -0.1 -9.15 1.4 M-12.0 -1.55 L-10.35 -0.1" fill="none" stroke="#000000" stroke-linecap="round" stroke-linejoin="round" stroke-width="1.2000000000000002"/>
  </g>
</svg>
