<?xml version="1.0" encoding="UTF-8" standalone="no"?>
<svg xmlns:xlink="http://www.w3.org/1999/xlink" height="9.85px" width="23.25px" xmlns="http://www.w3.org/2000/svg">
  <g transform="matrix(1.0, 0.0, 0.0, 1.0, 11.4, 7.3)">
    <path d="M9.95 -2.85 Q7.25 -0.85 5.8 1.4 L5.6 1.45 Q-0.25 2.75 -3.5 0.75 -7.4 -1.6 -8.9 -3.55 -8.4 -4.4 -8.2 -5.3 -1.05 0.7 9.95 -2.85" fill="#ffffff" fill-rule="evenodd" stroke="none"/>
    <path d="M11.25 -3.85 L9.95 -2.85 Q7.25 -0.85 5.8 1.4 L5.6 1.45 Q-0.25 2.75 -3.5 0.75 -7.4 -1.6 -8.9 -3.55 -9.65 -2.55 -10.8 -1.65 M-8.0 -6.7 L-8.2 -5.3 Q-1.05 0.7 9.95 -2.85 M-8.2 -5.3 Q-8.4 -4.4 -8.9 -3.55" fill="none" stroke="#000000" stroke-linecap="round" stroke-linejoin="round" stroke-width="1.2000000000000002"/>
  </g>
</svg>
