<?xml version="1.0" encoding="UTF-8" standalone="no"?>
<svg xmlns:xlink="http://www.w3.org/1999/xlink" height="11.85px" width="22.0px" xmlns="http://www.w3.org/2000/svg">
  <g transform="matrix(1.0, 0.0, 0.0, 1.0, 10.35, 7.6)">
    <path d="M10.95 -3.9 Q8.7 -2.45 2.2 -2.45 -6.25 -3.1 -8.65 -4.8 -6.25 -3.1 2.2 -2.45 8.7 -2.45 10.95 -3.9 11.75 3.65 7.35 0.25 4.8 -1.9 1.6 -1.75 -1.7 -1.55 -4.1 1.0 -6.85 3.05 -8.9 1.05 -10.7 -1.7 -8.65 -4.8 L-8.45 -5.1 Q-6.25 -7.6 -1.45 -6.2 3.0 -5.05 5.85 -6.85 9.95 -7.65 10.8 -4.7 L10.95 -3.9" fill="#ffffff" fill-rule="evenodd" stroke="none"/>
    <path d="M10.95 -3.9 L10.8 -4.7 Q9.95 -7.65 5.85 -6.85 3.0 -5.05 -1.45 -6.2 -6.25 -7.6 -8.45 -5.1 L-8.65 -4.8 Q-10.7 -1.7 -8.9 1.05 -6.85 3.05 -4.1 1.0 -1.7 -1.55 1.6 -1.75 4.8 -1.9 7.35 0.25 11.75 3.65 10.95 -3.9 M5.15 1.2 L6.15 3.0 M2.35 1.4 L2.65 3.65" fill="none" stroke="#000000" stroke-linecap="round" stroke-linejoin="round" stroke-width="1.2000000000000002"/>
    <path d="M-8.65 -4.8 Q-6.25 -3.1 2.2 -2.45 8.7 -2.45 10.95 -3.9 Z" fill="none" stroke="#000000" stroke-linecap="round" stroke-linejoin="round" stroke-width="0.8"/>
  </g>
</svg>
