<?xml version="1.0" encoding="UTF-8" standalone="no"?>
<svg xmlns:xlink="http://www.w3.org/1999/xlink" height="11.25px" width="18.85px" xmlns="http://www.w3.org/2000/svg">
  <g transform="matrix(1.0, 0.0, 0.0, 1.0, 8.45, 7.2)">
    <path d="M9.6 -6.35 Q10.25 -3.6 8.95 -0.85 6.6 3.65 1.45 3.45 -3.4 3.0 -6.15 0.55 L-7.0 -0.6 Q-8.1 -2.55 -7.75 -5.05 -5.6 -6.0 -0.35 -6.25 8.85 -6.9 9.6 -6.35 M5.55 -2.4 L-1.4 -1.85 -2.55 0.2 -4.5 -2.05 -7.0 -0.6 -4.5 -2.05 -2.55 0.2 -1.4 -1.85 5.55 -2.4" fill="#ffffff" fill-rule="evenodd" stroke="none"/>
    <path d="M9.6 -6.35 Q10.25 -3.6 8.95 -0.85 6.6 3.65 1.45 3.45 -3.4 3.0 -6.15 0.55 L-7.0 -0.6 Q-8.1 -2.55 -7.75 -5.05 -5.6 -6.0 -0.35 -6.25 8.85 -6.9 9.6 -6.35" fill="none" stroke="#000000" stroke-linecap="round" stroke-linejoin="round" stroke-width="1.2000000000000002"/>
    <path d="M-7.0 -0.6 L-4.5 -2.05 -2.55 0.2 -1.4 -1.85 5.55 -2.4" fill="none" stroke="#000000" stroke-linecap="round" stroke-linejoin="round" stroke-width="0.8"/>
  </g>
</svg>
