<?xml version="1.0" encoding="UTF-8" standalone="no"?>
<svg xmlns:xlink="http://www.w3.org/1999/xlink" height="11.6px" width="10.4px" xmlns="http://www.w3.org/2000/svg">
  <g transform="matrix(1.0, 0.0, 0.0, 1.0, 4.3, 8.0)">
    <path d="M-1.75 -1.55 L0.15 -4.25 0.5 -4.6 Q2.1 -6.2 4.15 -6.95 3.65 -3.4 4.2 2.4 L-3.3 2.15 -1.75 -1.55 Q-0.85 -2.25 1.55 -2.05 -0.85 -2.25 -1.75 -1.55" fill="#ffffff" fill-rule="evenodd" stroke="none"/>
    <path d="M-1.75 -1.55 L-3.3 2.15 4.2 2.4 Q3.65 -3.4 4.15 -6.95 2.1 -6.2 0.5 -4.6 L0.15 -4.25 -1.75 -1.55 M5.5 -7.4 L4.15 -6.95 M4.2 2.4 Q4.85 2.65 5.3 3.0 M-3.7 2.2 L-3.3 2.15" fill="none" stroke="#000000" stroke-linecap="round" stroke-linejoin="round" stroke-width="1.2000000000000002"/>
    <path d="M-1.75 -1.55 Q-0.85 -2.25 1.55 -2.05" fill="none" stroke="#000000" stroke-linecap="round" stroke-linejoin="round" stroke-width="0.8"/>
  </g>
</svg>
