<?xml version="1.0" encoding="UTF-8" standalone="no"?>
<svg xmlns:xlink="http://www.w3.org/1999/xlink" height="11.25px" width="15.85px" xmlns="http://www.w3.org/2000/svg">
  <g transform="matrix(1.0, 0.0, 0.0, 1.0, 7.45, 7.3)">
    <path d="M0.8 3.2 Q-4.45 1.35 -6.25 -2.0 -7.6 -5.15 -4.7 -6.2 -2.3 -6.9 1.05 -4.75 3.5 -7.4 6.2 -6.15 8.9 -4.85 6.65 -1.15 4.55 1.9 0.8 3.2" fill="#ec839a" fill-rule="evenodd" stroke="none"/>
    <path d="M0.8 3.2 Q-4.45 1.35 -6.25 -2.0 -7.6 -5.15 -4.7 -6.2 -2.3 -6.9 1.05 -4.75 3.5 -7.4 6.2 -6.15 8.9 -4.85 6.65 -1.15 4.55 1.9 0.8 3.2 Z" fill="none" stroke="#000000" stroke-linecap="round" stroke-linejoin="round" stroke-width="1.5"/>
  </g>
</svg>
