<?xml version="1.0" encoding="UTF-8" standalone="no"?>
<svg xmlns:xlink="http://www.w3.org/1999/xlink" height="9.9px" width="6.9px" xmlns="http://www.w3.org/2000/svg">
  <g transform="matrix(1.0, 0.0, 0.0, 1.0, 3.05, 5.6)">
    <path d="M-2.0 -2.05 Q-1.2 -4.9 1.1 -5.0 3.4 -4.65 3.25 -0.4 L3.2 -0.15 Q0.9 -2.55 -2.0 -2.05" fill="#4f2628" fill-rule="evenodd" stroke="none"/>
    <path d="M3.2 -0.15 Q2.9 3.8 -0.05 3.7 -2.7 3.35 -2.4 -0.4 L-2.0 -2.05 Q0.9 -2.55 3.2 -0.15" fill="#ec839a" fill-rule="evenodd" stroke="none"/>
    <path d="M-2.0 -2.05 Q-1.2 -4.9 1.1 -5.0 3.4 -4.65 3.25 -0.4 L3.2 -0.15 Q2.9 3.8 -0.05 3.7 -2.7 3.35 -2.4 -0.4 L-2.0 -2.05 Z" fill="none" stroke="#000000" stroke-linecap="round" stroke-linejoin="round" stroke-width="1.2000000000000002"/>
  </g>
</svg>
