<?xml version="1.0" encoding="UTF-8" standalone="no"?>
<svg xmlns:xlink="http://www.w3.org/1999/xlink" height="6.9px" width="11.35px" xmlns="http://www.w3.org/2000/svg">
  <g transform="matrix(1.0, 0.0, 0.0, 1.0, 4.9, 4.5)">
    <path d="M-1.05 -3.05 Q1.1 -4.2 3.35 -3.75 4.95 -3.45 5.65 -1.0 6.15 0.65 5.45 1.35 5.4 0.2 3.55 -1.3 1.7 -2.8 -1.05 -3.05" fill="#4f2628" fill-rule="evenodd" stroke="none"/>
    <path d="M5.45 1.35 L4.9 1.7 -2.9 1.8 Q-4.5 1.75 -4.25 0.2 -3.5 -1.6 -2.05 -2.45 L-1.05 -3.05 Q1.7 -2.8 3.55 -1.3 5.4 0.2 5.45 1.35" fill="#ec839a" fill-rule="evenodd" stroke="none"/>
    <path d="M-1.05 -3.05 Q1.1 -4.2 3.35 -3.75 4.95 -3.45 5.65 -1.0 6.15 0.65 5.45 1.35 L4.9 1.7 -2.9 1.8 Q-4.5 1.75 -4.25 0.2 -3.5 -1.6 -2.05 -2.45 L-1.05 -3.05 Z" fill="none" stroke="#000000" stroke-linecap="round" stroke-linejoin="round" stroke-width="1.2000000000000002"/>
  </g>
</svg>
