<?xml version="1.0" encoding="UTF-8" standalone="no"?>
<svg xmlns:xlink="http://www.w3.org/1999/xlink" height="6.55px" width="5.35px" xmlns="http://www.w3.org/2000/svg">
  <g transform="matrix(1.0, 0.0, 0.0, 1.0, 2.4, 3.95)">
    <path d="M2.35 -0.3 Q2.25 0.55 1.7 1.2 1.1 2.0 0.2 2.0 -0.55 2.0 -1.2 1.2 -1.8 0.4 -1.8 -0.75 L-1.5 -2.05 Q1.0 -1.75 2.35 -0.3" fill="#ec839a" fill-rule="evenodd" stroke="none"/>
    <path d="M-1.5 -2.05 L-1.2 -2.65 Q-0.55 -3.35 0.2 -3.35 1.1 -3.35 1.7 -2.65 2.35 -1.85 2.35 -0.7 L2.35 -0.3 Q1.0 -1.75 -1.5 -2.05" fill="#4f2628" fill-rule="evenodd" stroke="none"/>
    <path d="M-1.5 -2.05 L-1.2 -2.65 Q-0.55 -3.35 0.2 -3.35 1.1 -3.35 1.7 -2.65 2.35 -1.85 2.35 -0.7 L2.35 -0.3 Q2.25 0.55 1.7 1.2 1.1 2.0 0.2 2.0 -0.55 2.0 -1.2 1.2 -1.8 0.4 -1.8 -0.75 L-1.5 -2.05 Z" fill="none" stroke="#000000" stroke-linecap="round" stroke-linejoin="round" stroke-width="1.2000000000000002"/>
  </g>
</svg>
