<?xml version="1.0" encoding="UTF-8" standalone="no"?>
<svg xmlns:xlink="http://www.w3.org/1999/xlink" height="4.6px" width="4.8px" xmlns="http://www.w3.org/2000/svg">
  <g transform="matrix(1.0, 0.0, 0.0, 1.0, 2.25, 2.35)">
    <path d="M1.95 -0.05 Q1.95 0.65 1.4 1.15 0.85 1.65 0.1 1.65 -0.55 1.65 -1.15 1.15 -1.65 0.65 -1.65 -0.1 -1.65 -0.8 -1.15 -1.3 L0.1 -1.75 Q0.85 -1.75 1.4 -1.3 1.95 -0.8 1.95 -0.05" fill="#ec839a" fill-rule="evenodd" stroke="none"/>
    <path d="M1.95 -0.05 Q1.95 0.65 1.4 1.15 0.85 1.65 0.1 1.65 -0.55 1.65 -1.15 1.15 -1.65 0.65 -1.65 -0.1 -1.65 -0.8 -1.15 -1.3 L0.1 -1.75 Q0.85 -1.75 1.4 -1.3 1.95 -0.8 1.95 -0.05 Z" fill="none" stroke="#000000" stroke-linecap="round" stroke-linejoin="round" stroke-width="1.2000000000000002"/>
  </g>
</svg>
