<?xml version="1.0" encoding="UTF-8" standalone="no"?>
<svg xmlns:xlink="http://www.w3.org/1999/xlink" height="9.3px" width="19.85px" xmlns="http://www.w3.org/2000/svg">
  <g transform="matrix(1.0, 0.0, 0.0, 1.0, 8.35, 5.9)">
    <path d="M5.8 -1.4 Q5.1 -3.1 3.25 -3.2 5.1 -3.1 5.8 -1.4 M-1.75 -1.65 L-1.35 -1.75 Q1.2 -2.75 3.25 -3.2 6.65 -4.0 8.75 -3.1 10.4 -0.35 8.7 1.65 7.0 3.65 3.35 2.1 -0.4 0.6 -1.75 -1.65" fill="#ec839a" fill-rule="evenodd" stroke="none"/>
    <path d="M-1.75 -1.65 L-1.35 -1.75 Q1.2 -2.75 3.25 -3.2 6.65 -4.0 8.75 -3.1 11.0 -3.45 10.9 -5.3 M8.75 -3.1 Q10.4 -0.35 8.7 1.65 7.0 3.65 3.35 2.1 -0.4 0.6 -1.75 -1.65 -5.35 -1.2 -7.75 -3.45" fill="none" stroke="#000000" stroke-linecap="round" stroke-linejoin="round" stroke-width="1.2000000000000002"/>
    <path d="M3.25 -3.2 Q5.1 -3.1 5.8 -1.4" fill="none" stroke="#000000" stroke-linecap="round" stroke-linejoin="round" stroke-opacity="0.49803922" stroke-width="0.8"/>
  </g>
</svg>
