<?xml version="1.0" encoding="UTF-8" standalone="no"?>
<svg xmlns:xlink="http://www.w3.org/1999/xlink" height="10.9px" width="14.6px" xmlns="http://www.w3.org/2000/svg">
  <g transform="matrix(1.0, 0.0, 0.0, 1.0, 7.5, 7.25)">
    <path d="M4.65 1.65 Q5.0 0.4 3.5 -1.95 2.0 -4.35 -1.7 -5.75 L0.3 -6.55 4.0 -6.4 Q6.45 -5.95 6.5 -2.85 6.55 -0.5 5.25 1.2 L4.65 1.65" fill="#4f2628" fill-rule="evenodd" stroke="none"/>
    <path d="M4.65 1.65 L2.3 2.8 -5.45 2.5 Q-7.65 1.75 -6.5 -0.3 -5.35 -2.35 -3.7 -4.05 -2.7 -5.1 -1.7 -5.75 2.0 -4.35 3.5 -1.95 5.0 0.4 4.65 1.65" fill="#ec839a" fill-rule="evenodd" stroke="none"/>
    <path d="M-1.7 -5.75 Q-2.7 -5.1 -3.7 -4.05 -5.35 -2.35 -6.5 -0.3 -7.65 1.75 -5.45 2.5 L2.3 2.8 4.65 1.65 5.25 1.2 Q6.55 -0.5 6.5 -2.85 6.45 -5.95 4.0 -6.4 L0.3 -6.55 -1.7 -5.75 Z" fill="none" stroke="#000000" stroke-linecap="round" stroke-linejoin="round" stroke-width="1.2000000000000002"/>
  </g>
</svg>
