<?xml version="1.0" encoding="UTF-8" standalone="no"?>
<svg xmlns:xlink="http://www.w3.org/1999/xlink" height="6.1px" width="13.0px" xmlns="http://www.w3.org/2000/svg">
  <g transform="matrix(1.0, 0.0, 0.0, 1.0, 5.95, 3.85)">
    <path d="M0.7 -2.3 L1.95 -2.55 Q3.6 -2.45 4.55 -3.05 5.85 -3.65 6.35 -2.5 6.7 -0.85 5.9 0.45 L5.6 1.0 Q5.3 -1.55 0.7 -2.3" fill="#4f2628" fill-rule="evenodd" stroke="none"/>
    <path d="M5.6 1.0 Q4.85 1.65 2.7 1.65 L-1.35 1.4 -4.85 1.25 Q-5.4 1.3 -5.35 0.1 -5.35 -1.2 -4.55 -1.1 -3.85 -1.05 -2.95 -1.9 L-1.05 -1.95 0.35 -2.05 0.7 -2.3 Q5.3 -1.55 5.6 1.0" fill="#ec839a" fill-rule="evenodd" stroke="none"/>
    <path d="M0.7 -2.3 L1.95 -2.55 Q3.6 -2.45 4.55 -3.05 5.85 -3.65 6.35 -2.5 6.7 -0.85 5.9 0.45 L5.6 1.0 Q4.85 1.65 2.7 1.65 L-1.35 1.4 -4.85 1.25 Q-5.4 1.3 -5.35 0.1 -5.35 -1.2 -4.55 -1.1 -3.85 -1.05 -2.95 -1.9 L-1.05 -1.95 0.35 -2.05 0.7 -2.3 Z" fill="none" stroke="#000000" stroke-linecap="round" stroke-linejoin="round" stroke-width="1.2000000000000002"/>
  </g>
</svg>
