<?xml version="1.0" encoding="UTF-8" standalone="no"?>
<svg xmlns:xlink="http://www.w3.org/1999/xlink" height="8.9px" width="12.3px" xmlns="http://www.w3.org/2000/svg">
  <g transform="matrix(1.0, 0.0, 0.0, 1.0, 5.75, 5.7)">
    <path d="M-5.15 1.15 Q-4.9 -1.15 -3.5 -2.75 -2.75 -3.8 -2.3 -3.25 -1.7 -2.35 -1.1 -2.6 L-0.95 -2.65 -0.45 -3.25 Q0.05 -3.95 0.55 -3.6 L1.0 -2.9 Q1.25 -2.3 1.95 -3.05 3.25 -4.9 4.05 -5.0 5.45 -5.5 5.75 -3.55 6.15 -0.85 5.75 0.8 L5.6 1.4 Q5.25 2.1 4.05 2.05 L-2.6 2.5 Q-5.15 3.0 -5.15 1.15" fill="#ec839a" fill-rule="evenodd" stroke="none"/>
    <path d="M-5.15 1.15 Q-4.9 -1.15 -3.5 -2.75 -2.75 -3.8 -2.3 -3.25 -1.7 -2.35 -1.1 -2.6 L-0.95 -2.65 -0.45 -3.25 Q0.05 -3.95 0.55 -3.6 L1.0 -2.9 Q1.25 -2.3 1.95 -3.05 3.25 -4.9 4.05 -5.0 5.45 -5.5 5.75 -3.55 6.15 -0.85 5.75 0.8 L5.6 1.4 Q5.25 2.1 4.05 2.05 L-2.6 2.5 Q-5.15 3.0 -5.15 1.15 Z" fill="none" stroke="#000000" stroke-linecap="round" stroke-linejoin="round" stroke-width="1.2000000000000002"/>
  </g>
</svg>
