<?xml version="1.0" encoding="UTF-8" standalone="no"?>
<svg xmlns:xlink="http://www.w3.org/1999/xlink" height="12.8px" width="22.4px" xmlns="http://www.w3.org/2000/svg">
  <g transform="matrix(1.0, 0.0, 0.0, 1.0, 11.95, 8.35)">
    <path d="M-6.7 -3.95 L-6.25 -4.55 Q-5.45 -5.8 -4.4 -5.7 -3.95 -5.7 -3.4 -5.2 -2.65 -4.45 -2.0 -5.65 L-0.65 -7.5 0.6 -7.45 1.55 -5.8 Q1.95 -4.9 2.55 -5.65 L3.75 -6.9 Q4.65 -7.65 5.15 -7.4 L5.8 -6.75 Q6.3 -5.9 6.95 -6.5 7.65 -7.0 7.9 -5.65 L8.85 -1.9 9.75 1.85 Q10.05 2.6 9.25 2.9 L8.6 3.1 Q8.2 0.05 5.8 0.05 4.35 0.45 3.3 -1.2 2.25 -2.9 -0.15 -2.65 -2.6 -2.45 -3.5 -3.6 -4.45 -4.8 -6.7 -3.95" fill="#4f2628" fill-rule="evenodd" stroke="none"/>
    <path d="M8.6 3.1 L5.65 3.4 -2.45 3.65 -7.2 3.85 Q-10.6 3.75 -11.3 3.1 -11.65 2.7 -9.05 -0.55 L-6.7 -3.95 Q-4.45 -4.8 -3.5 -3.6 -2.6 -2.45 -0.15 -2.65 2.25 -2.9 3.3 -1.2 4.35 0.45 5.8 0.05 8.2 0.05 8.6 3.1" fill="#ec839a" fill-rule="evenodd" stroke="none"/>
    <path d="M-6.7 -3.95 L-6.25 -4.55 Q-5.45 -5.8 -4.4 -5.7 -3.95 -5.7 -3.4 -5.2 -2.65 -4.45 -2.0 -5.65 L-0.65 -7.5 0.6 -7.45 1.55 -5.8 Q1.95 -4.9 2.55 -5.65 L3.75 -6.9 Q4.65 -7.65 5.15 -7.4 L5.8 -6.75 Q6.3 -5.9 6.95 -6.5 7.65 -7.0 7.9 -5.65 L8.85 -1.9 9.75 1.85 Q10.05 2.6 9.25 2.9 L8.6 3.1 5.65 3.4 -2.45 3.65 -7.2 3.85 Q-10.6 3.75 -11.3 3.1 -11.65 2.7 -9.05 -0.55 L-6.7 -3.95 Z" fill="none" stroke="#000000" stroke-linecap="round" stroke-linejoin="round" stroke-width="1.2000000000000002"/>
  </g>
</svg>
