<?xml version="1.0" encoding="UTF-8" standalone="no"?>
<svg xmlns:xlink="http://www.w3.org/1999/xlink" height="8.65px" width="9.15px" xmlns="http://www.w3.org/2000/svg">
  <g transform="matrix(1.0, 0.0, 0.0, 1.0, 4.45, 5.95)">
    <path d="M-0.85 -5.35 L2.85 -5.2 Q3.65 -5.05 3.85 -4.2 L4.1 -1.45 4.0 -0.5 Q3.65 0.65 2.3 1.5 0.9 2.35 -1.25 1.95 -3.4 1.5 -3.75 -0.35 -4.05 -1.85 -3.6 -4.15 L-3.55 -4.5 Q-3.15 -3.5 -1.75 -2.4 L-1.3 -3.45 Q-0.95 -4.4 -0.85 -5.35" fill="#ec839a" fill-rule="evenodd" stroke="none"/>
    <path d="M-3.55 -4.5 Q-3.3 -5.25 -2.25 -5.25 L-0.85 -5.35 Q-0.95 -4.4 -1.3 -3.45 L-1.75 -2.4 Q-3.15 -3.5 -3.55 -4.5" fill="#ffffff" fill-rule="evenodd" stroke="none"/>
    <path d="M-0.85 -5.35 L2.85 -5.2 Q3.65 -5.05 3.85 -4.2 L4.1 -1.45 4.0 -0.5 Q3.65 0.65 2.3 1.5 0.9 2.35 -1.25 1.95 -3.4 1.5 -3.75 -0.35 -4.05 -1.85 -3.6 -4.15 L-3.55 -4.5 Q-3.3 -5.25 -2.25 -5.25 L-0.85 -5.35" fill="none" stroke="#000000" stroke-linecap="round" stroke-linejoin="round" stroke-width="1.2000000000000002"/>
    <path d="M-0.85 -5.35 Q-0.95 -4.4 -1.3 -3.45 L-1.75 -2.4 Q-3.15 -3.5 -3.55 -4.5" fill="none" stroke="#000000" stroke-linecap="round" stroke-linejoin="round" stroke-width="0.8"/>
  </g>
</svg>
