<?xml version="1.0" encoding="UTF-8" standalone="no"?>
<svg xmlns:xlink="http://www.w3.org/1999/xlink" height="8.85px" width="10.6px" xmlns="http://www.w3.org/2000/svg">
  <g transform="matrix(1.0, 0.0, 0.0, 1.0, 4.85, 6.05)">
    <path d="M1.95 -5.4 Q2.1 -4.0 3.2 -2.5 4.4 -3.1 4.85 -4.9 L5.15 -3.6 Q5.3 -0.15 3.05 1.45 0.55 3.0 -2.25 1.45 L-3.45 0.4 Q-4.3 -0.75 -4.25 -2.35 L-3.65 -4.65 -3.45 -4.25 Q-2.95 -3.35 -1.9 -2.45 -0.8 -3.7 -0.6 -5.3 L1.95 -5.4" fill="#ec839a" fill-rule="evenodd" stroke="none"/>
    <path d="M4.85 -4.9 Q4.4 -3.1 3.2 -2.5 2.1 -4.0 1.95 -5.4 L4.1 -5.45 Q4.55 -5.4 4.85 -4.9 M-0.6 -5.3 Q-0.8 -3.7 -1.9 -2.45 -2.95 -3.35 -3.45 -4.25 L-3.65 -4.65 -3.45 -4.95 -3.15 -5.2 -0.6 -5.3" fill="#ffffff" fill-rule="evenodd" stroke="none"/>
    <path d="M4.85 -4.9 Q4.55 -5.4 4.1 -5.45 L1.95 -5.4 -0.6 -5.3 -3.15 -5.2 -3.45 -4.95 -3.65 -4.65 -4.25 -2.35 Q-4.3 -0.75 -3.45 0.4 L-2.25 1.45 Q0.55 3.0 3.05 1.45 5.3 -0.15 5.15 -3.6 L4.85 -4.9" fill="none" stroke="#000000" stroke-linecap="round" stroke-linejoin="round" stroke-width="1.2000000000000002"/>
    <path d="M1.95 -5.4 Q2.1 -4.0 3.2 -2.5 4.4 -3.1 4.85 -4.9 M-0.6 -5.3 Q-0.8 -3.7 -1.9 -2.45 -2.95 -3.35 -3.45 -4.25 L-3.65 -4.65" fill="none" stroke="#000000" stroke-linecap="round" stroke-linejoin="round" stroke-width="0.8"/>
  </g>
</svg>
