<?xml version="1.0" encoding="UTF-8" standalone="no"?>
<svg xmlns:xlink="http://www.w3.org/1999/xlink" height="11.95px" width="21.35px" xmlns="http://www.w3.org/2000/svg">
  <g transform="matrix(1.0, 0.0, 0.0, 1.0, 9.8, 6.75)">
    <path d="M3.55 -4.6 L5.5 -5.0 Q8.0 -6.65 9.6 -5.95 12.35 -3.8 9.6 -0.15 L9.1 0.4 Q9.75 -1.75 7.75 -3.15 5.75 -4.55 3.55 -4.6" fill="#4f2628" fill-rule="evenodd" stroke="none"/>
    <path d="M-6.0 1.3 L-6.05 1.3 Q-8.7 0.35 -9.15 -1.85 -9.65 -5.2 -5.8 -5.4 L-0.3 -4.8 3.55 -4.6 Q5.75 -4.55 7.75 -3.15 9.75 -1.75 9.1 0.4 7.4 2.0 4.05 2.5 -0.5 2.8 -2.45 1.7 L-2.45 1.75 Q-3.2 1.25 -4.15 1.3 L-6.0 1.3" fill="#ec839a" fill-rule="evenodd" stroke="none"/>
    <path d="M-2.45 1.75 Q-2.35 4.3 -4.1 4.6 -6.25 4.75 -6.0 1.3 L-4.15 1.3 Q-3.2 1.25 -2.45 1.75" fill="#ffffff" fill-rule="evenodd" stroke="none"/>
    <path d="M-6.0 1.3 L-6.05 1.3 Q-8.7 0.35 -9.15 -1.85 -9.65 -5.2 -5.8 -5.4 L-0.3 -4.8 3.55 -4.6 5.5 -5.0 Q8.0 -6.65 9.6 -5.95 12.35 -3.8 9.6 -0.15 L9.1 0.4 Q7.4 2.0 4.05 2.5 -0.5 2.8 -2.45 1.7 L-2.45 1.75 Q-2.35 4.3 -4.1 4.6 -6.25 4.75 -6.0 1.3 Z" fill="none" stroke="#000000" stroke-linecap="round" stroke-linejoin="round" stroke-width="1.2000000000000002"/>
  </g>
</svg>
