<?xml version="1.0" encoding="UTF-8" standalone="no"?>
<svg xmlns:xlink="http://www.w3.org/1999/xlink" height="12.15px" width="15.65px" xmlns="http://www.w3.org/2000/svg">
  <g transform="matrix(1.0, 0.0, 0.0, 1.0, 7.85, 6.6)">
    <path d="M-3.5 -3.45 L-2.4 -4.4 Q0.05 -6.5 3.0 -5.85 5.9 -5.2 6.8 -1.6 L7.2 1.35 Q3.4 -3.45 -3.5 -3.45" fill="#622a2d" fill-rule="evenodd" stroke="none"/>
    <path d="M7.2 1.35 Q7.25 3.1 6.75 4.65 4.2 1.0 -0.25 1.45 -3.55 2.05 -6.95 4.95 -7.75 4.55 -6.3 0.9 -4.85 -1.95 -3.5 -3.45 3.4 -3.45 7.2 1.35" fill="#ec839a" fill-rule="evenodd" stroke="none"/>
    <path d="M-3.5 -3.45 L-2.4 -4.4 Q0.05 -6.5 3.0 -5.85 5.9 -5.2 6.8 -1.6 L7.2 1.35 Q7.25 3.1 6.75 4.65 4.2 1.0 -0.25 1.45 -3.55 2.05 -6.95 4.95 -7.75 4.55 -6.3 0.9 -4.85 -1.95 -3.5 -3.45 Z" fill="none" stroke="#000000" stroke-linecap="round" stroke-linejoin="round" stroke-width="1.2000000000000002"/>
  </g>
</svg>
