<?xml version="1.0" encoding="UTF-8" standalone="no"?>
<svg xmlns:xlink="http://www.w3.org/1999/xlink" height="9.3px" width="27.75px" xmlns="http://www.w3.org/2000/svg">
  <g transform="matrix(1.0, 0.0, 0.0, 1.0, 14.0, 5.55)">
    <path d="M12.7 -0.45 Q10.05 -1.95 1.1 -2.95 -10.75 -3.9 -12.8 -2.2 -10.85 -5.45 -4.35 -4.0 -0.35 -3.1 4.15 -4.15 8.6 -5.25 10.15 -4.8 13.45 -4.4 13.1 -1.85 L12.7 -0.45" fill="#622a2d" fill-rule="evenodd" stroke="none"/>
    <path d="M-12.8 -2.2 Q-10.75 -3.9 1.1 -2.95 10.05 -1.95 12.7 -0.45 12.0 1.1 10.15 2.1 7.65 3.4 4.65 1.8 1.7 0.1 -1.4 2.1 -4.05 3.35 -6.35 3.1 -9.9 2.95 -11.65 1.85 -14.35 0.4 -12.9 -2.05 L-12.8 -2.2" fill="#ec839a" fill-rule="evenodd" stroke="none"/>
    <path d="M12.7 -0.45 L13.1 -1.85 Q13.45 -4.4 10.15 -4.8 8.6 -5.25 4.15 -4.15 -0.35 -3.1 -4.35 -4.0 -10.85 -5.45 -12.8 -2.2 L-12.9 -2.05 Q-14.35 0.4 -11.65 1.85 -9.9 2.95 -6.35 3.1 -4.05 3.35 -1.4 2.1 1.7 0.1 4.65 1.8 7.65 3.4 10.15 2.1 12.0 1.1 12.7 -0.45 Z" fill="none" stroke="#000000" stroke-linecap="round" stroke-linejoin="round" stroke-width="1.2000000000000002"/>
  </g>
</svg>
