<?xml version="1.0" encoding="UTF-8" standalone="no"?>
<svg xmlns:xlink="http://www.w3.org/1999/xlink" height="13.9px" width="31.7px" xmlns="http://www.w3.org/2000/svg">
  <g transform="matrix(1.0, 0.0, 0.0, 1.0, 15.35, 6.6)">
    <path d="M11.55 1.95 Q11.1 -0.5 8.95 -1.7 6.25 -2.8 2.2 -2.2 -1.95 -1.2 -4.55 2.1 -8.95 2.65 -11.7 1.3 -15.1 -0.45 -14.7 -3.15 -13.8 -5.85 -9.3 -6.0 L-1.75 -4.45 8.45 -4.85 Q15.15 -7.25 15.7 -3.6 16.05 0.0 11.55 1.95" fill="#622a2d" fill-rule="evenodd" stroke="none"/>
    <path d="M-4.55 2.1 Q-1.95 -1.2 2.2 -2.2 6.25 -2.8 8.95 -1.7 11.1 -0.5 11.55 1.95 L11.6 4.1 Q10.8 6.75 8.25 6.65 6.5 7.0 4.55 4.75 L1.7 2.2 Q-0.9 1.95 -4.55 2.1" fill="#ec839a" fill-rule="evenodd" stroke="none"/>
    <path d="M-4.55 2.1 Q-1.95 -1.2 2.2 -2.2 6.25 -2.8 8.95 -1.7 11.1 -0.5 11.55 1.95" fill="none" stroke="#000000" stroke-linecap="round" stroke-linejoin="round" stroke-width="0.8"/>
    <path d="M11.55 1.95 Q16.05 0.0 15.7 -3.6 15.15 -7.25 8.45 -4.85 L-1.75 -4.45 -9.3 -6.0 Q-13.8 -5.85 -14.7 -3.15 -15.1 -0.45 -11.7 1.3 -8.95 2.65 -4.55 2.1 -0.9 1.95 1.7 2.2 L4.55 4.75 Q6.5 7.0 8.25 6.65 10.8 6.75 11.6 4.1 L11.55 1.95" fill="none" stroke="#000000" stroke-linecap="round" stroke-linejoin="round" stroke-width="1.2000000000000002"/>
  </g>
</svg>
