<?xml version="1.0" encoding="UTF-8" standalone="no"?>
<svg xmlns:xlink="http://www.w3.org/1999/xlink" height="8.7px" width="9.5px" xmlns="http://www.w3.org/2000/svg">
  <g transform="matrix(1.0, 0.0, 0.0, 1.0, 2.75, 5.85)">
    <path d="M3.3 -3.5 Q4.0 -1.8 3.75 -0.95 3.65 0.85 1.8 1.9 -0.4 3.0 -1.8 0.85 -2.7 -0.75 -1.3 -2.05 0.05 -3.35 2.55 -3.4 L3.3 -3.5" fill="#ec839a" fill-rule="evenodd" stroke="none"/>
    <path d="M3.3 -3.5 L2.55 -3.4 Q0.05 -3.35 -1.3 -2.05 -2.7 -0.75 -1.8 0.85 -0.4 3.0 1.8 1.9 3.65 0.85 3.75 -0.95 4.0 -1.8 3.3 -3.5 5.15 -3.85 6.15 -5.25" fill="none" stroke="#000000" stroke-linecap="round" stroke-linejoin="round" stroke-width="1.2000000000000002"/>
  </g>
</svg>
