<?xml version="1.0" encoding="UTF-8" standalone="no"?>
<svg xmlns:xlink="http://www.w3.org/1999/xlink" height="10.55px" width="21.35px" xmlns="http://www.w3.org/2000/svg">
  <g transform="matrix(1.0, 0.0, 0.0, 1.0, 10.55, 7.15)">
    <path d="M9.2 -5.3 Q8.8 -3.6 7.25 -2.35 5.75 -3.85 5.3 -5.5 L7.45 -6.5 Q8.55 -6.75 9.2 -5.3 M-2.45 -5.95 L-2.9 -4.15 Q-3.45 -2.8 -4.4 -2.0 -6.55 -3.3 -7.15 -5.25 -5.95 -6.3 -4.3 -6.4 L-2.45 -5.95" fill="#ffffff" fill-rule="evenodd" stroke="none"/>
    <path d="M5.3 -5.5 Q5.75 -3.85 7.25 -2.35 8.8 -3.6 9.2 -5.3 L9.4 -4.85 Q10.15 -2.8 10.2 -1.0 10.25 0.85 9.25 1.25 L8.65 1.5 Q6.3 -2.8 -2.9 -4.15 L-2.45 -5.95 -1.45 -5.45 Q2.55 -3.95 4.4 -5.0 L5.3 -5.5" fill="#622a2d" fill-rule="evenodd" stroke="none"/>
    <path d="M-2.9 -4.15 Q6.3 -2.8 8.65 1.5 L2.55 2.65 -4.3 2.25 Q-6.6 1.5 -9.05 1.25 -10.2 0.95 -9.9 -0.25 -9.5 -2.0 -7.9 -4.4 L-7.15 -5.25 Q-6.55 -3.3 -4.4 -2.0 -3.45 -2.8 -2.9 -4.15" fill="#ec839a" fill-rule="evenodd" stroke="none"/>
    <path d="M9.2 -5.3 Q8.8 -3.6 7.25 -2.35 5.75 -3.85 5.3 -5.5 M-2.45 -5.95 L-2.9 -4.15 Q-3.45 -2.8 -4.4 -2.0 -6.55 -3.3 -7.15 -5.25" fill="none" stroke="#000000" stroke-linecap="round" stroke-linejoin="round" stroke-width="0.8"/>
    <path d="M5.3 -5.5 L4.4 -5.0 Q2.55 -3.95 -1.45 -5.45 L-2.45 -5.95 -4.3 -6.4 Q-5.95 -6.3 -7.15 -5.25 L-7.9 -4.4 Q-9.5 -2.0 -9.9 -0.25 -10.2 0.95 -9.05 1.25 -6.6 1.5 -4.3 2.25 L2.55 2.65 8.65 1.5 9.25 1.25 Q10.25 0.85 10.2 -1.0 10.15 -2.8 9.4 -4.85 L9.2 -5.3 Q8.55 -6.75 7.45 -6.5 L5.3 -5.5" fill="none" stroke="#000000" stroke-linecap="round" stroke-linejoin="round" stroke-width="1.2000000000000002"/>
  </g>
</svg>
