<?xml version="1.0" encoding="UTF-8" standalone="no"?>
<svg xmlns:xlink="http://www.w3.org/1999/xlink" height="11.6px" width="15.9px" xmlns="http://www.w3.org/2000/svg">
  <g transform="matrix(1.0, 0.0, 0.0, 1.0, 7.25, 7.0)">
    <path d="M4.45 -1.9 L3.55 -3.6 -1.85 -3.65 Q-2.3 -1.55 -3.0 -0.5 -5.45 -2.9 -6.5 -4.85 L-6.05 -5.55 0.9 -6.35 7.1 -5.8 Q6.8 -2.7 5.85 -1.1 L5.35 -0.4 4.45 -1.9 M5.45 2.6 L4.25 3.45 2.3 3.95 Q2.55 2.0 3.75 0.9 L5.45 2.6 M-0.45 4.0 L-3.0 3.7 -4.4 2.95 -2.8 0.85 Q-1.15 2.6 -0.45 4.0" fill="#ffffff" fill-rule="evenodd" stroke="none"/>
    <path d="M4.45 -1.9 L5.35 -0.4 5.85 -1.1 7.2 -0.2 Q6.55 1.55 5.45 2.6 L3.75 0.9 Q2.55 2.0 2.3 3.95 L-0.45 4.0 Q-1.15 2.6 -2.8 0.85 L-4.4 2.95 Q-5.8 1.9 -6.15 -0.25 -6.9 -3.45 -6.5 -4.85 -5.45 -2.9 -3.0 -0.5 -2.3 -1.55 -1.85 -3.65 1.6 -3.3 4.45 -1.9" fill="#ec839a" fill-rule="evenodd" stroke="none"/>
    <path d="M-1.85 -3.65 L3.55 -3.6 4.45 -1.9 Q1.6 -3.3 -1.85 -3.65 M5.85 -1.1 Q6.8 -2.7 7.1 -5.8 L7.5 -5.65 Q8.55 -3.95 7.55 -1.2 L7.2 -0.2 5.85 -1.1" fill="#622a2d" fill-rule="evenodd" stroke="none"/>
    <path d="M7.1 -5.8 L0.9 -6.35 -6.05 -5.55 -6.5 -4.85 Q-6.9 -3.45 -6.15 -0.25 -5.8 1.9 -4.4 2.95 L-3.0 3.7 -0.45 4.0 2.3 3.95 4.25 3.45 5.45 2.6 Q6.55 1.55 7.2 -0.2 L7.55 -1.2 Q8.55 -3.95 7.5 -5.65 L7.1 -5.8" fill="none" stroke="#000000" stroke-linecap="round" stroke-linejoin="round" stroke-width="1.2000000000000002"/>
    <path d="M-1.85 -3.65 L3.55 -3.6 4.45 -1.9 5.35 -0.4 5.85 -1.1 Q6.8 -2.7 7.1 -5.8 M-6.5 -4.85 Q-5.45 -2.9 -3.0 -0.5 -2.3 -1.55 -1.85 -3.65 M-4.4 2.95 L-2.8 0.85 Q-1.15 2.6 -0.45 4.0 M2.3 3.95 Q2.55 2.0 3.75 0.9 L5.45 2.6" fill="none" stroke="#000000" stroke-linecap="round" stroke-linejoin="round" stroke-width="0.8"/>
  </g>
</svg>
