<?xml version="1.0" encoding="UTF-8" standalone="no"?>
<svg xmlns:xlink="http://www.w3.org/1999/xlink" height="11.25px" width="17.7px" xmlns="http://www.w3.org/2000/svg">
  <g transform="matrix(1.0, 0.0, 0.0, 1.0, 7.9, 5.55)">
    <path d="M5.25 -2.8 Q7.35 -3.3 8.75 -4.55 9.8 0.8 6.9 4.95 6.55 1.3 5.25 -2.8 M-6.95 -4.2 Q-4.75 -2.95 -1.95 -2.6 -3.9 2.35 -4.35 5.1 -7.0 0.25 -6.95 -4.2" fill="#ffffff" fill-rule="evenodd" stroke="none"/>
    <path d="M-1.95 -2.6 L1.75 -2.4 5.25 -2.8 Q7.35 -3.3 8.75 -4.55 L9.2 -4.95 M5.25 -2.8 Q6.55 1.3 6.9 4.95 9.8 0.8 8.75 -4.55 M-7.3 -4.45 L-6.95 -4.2 Q-4.75 -2.95 -1.95 -2.6 -3.9 2.35 -4.35 5.1 -7.0 0.25 -6.95 -4.2" fill="none" stroke="#000000" stroke-linecap="round" stroke-linejoin="round" stroke-width="1.2000000000000002"/>
  </g>
</svg>
