<?xml version="1.0" encoding="UTF-8" standalone="no"?>
<svg xmlns:xlink="http://www.w3.org/1999/xlink" height="10.45px" width="23.15px" xmlns="http://www.w3.org/2000/svg">
  <g transform="matrix(1.0, 0.0, 0.0, 1.0, 10.55, 7.65)">
    <path d="M-2.55 -5.75 L-1.6 -5.8 Q0.65 -5.75 3.05 -6.9 4.75 -7.5 6.4 -5.95 L7.5 -4.65 Q7.85 -4.15 8.4 -4.1 11.45 -3.8 12.0 -1.45 11.7 0.45 8.25 0.35 7.65 -1.8 4.6 -3.75 1.55 -5.7 -2.55 -5.75" fill="#622a2d" fill-rule="evenodd" stroke="none"/>
    <path d="M8.25 0.35 Q6.65 1.7 3.45 1.8 L-0.65 2.1 Q-3.55 2.6 -5.6 1.1 -9.4 1.1 -9.95 -1.1 -10.2 -3.6 -7.5 -3.95 -6.4 -3.8 -5.25 -4.8 -4.2 -5.6 -2.55 -5.75 1.55 -5.7 4.6 -3.75 7.65 -1.8 8.25 0.35" fill="#ec839a" fill-rule="evenodd" stroke="none"/>
    <path d="M-2.55 -5.75 L-1.6 -5.8 Q0.65 -5.75 3.05 -6.9 4.75 -7.5 6.4 -5.95 L7.5 -4.65 Q7.85 -4.15 8.4 -4.1 11.45 -3.8 12.0 -1.45 11.7 0.45 8.25 0.35 6.65 1.7 3.45 1.8 L-0.65 2.1 Q-3.55 2.6 -5.6 1.1 -9.4 1.1 -9.95 -1.1 -10.2 -3.6 -7.5 -3.95 -6.4 -3.8 -5.25 -4.8 -4.2 -5.6 -2.55 -5.75 Z" fill="none" stroke="#000000" stroke-linecap="round" stroke-linejoin="round" stroke-width="1.2000000000000002"/>
  </g>
</svg>
