<?xml version="1.0" encoding="UTF-8" standalone="no"?>
<svg xmlns:xlink="http://www.w3.org/1999/xlink" height="19.25px" width="17.9px" xmlns="http://www.w3.org/2000/svg">
  <g transform="matrix(1.0, 0.0, 0.0, 1.0, 8.75, 10.8)">
    <path d="M-4.35 -4.5 L-3.1 -7.95 Q-2.65 -9.65 -0.8 -9.95 L3.75 -10.1 Q5.4 -9.8 5.8 -8.55 L8.4 3.3 Q4.9 -2.95 -4.35 -4.5" fill="#622a2d" fill-rule="evenodd" stroke="none"/>
    <path d="M-4.35 -4.5 Q4.9 -2.95 8.4 3.3 L8.45 3.8 Q8.95 7.05 7.05 7.55 0.25 8.1 -6.25 7.7 -8.35 7.4 -8.1 5.5 L-4.35 -4.5" fill="#ec839a" fill-rule="evenodd" stroke="none"/>
    <path d="M8.4 3.3 L5.8 -8.55 Q5.4 -9.8 3.75 -10.1 L-0.8 -9.95 Q-2.65 -9.65 -3.1 -7.95 L-4.35 -4.5 -8.1 5.5 Q-8.35 7.4 -6.25 7.7 0.25 8.1 7.05 7.55 8.95 7.05 8.45 3.8 L8.4 3.3 Z" fill="none" stroke="#000000" stroke-linecap="round" stroke-linejoin="round" stroke-width="1.2000000000000002"/>
  </g>
</svg>
