<?xml version="1.0" encoding="UTF-8" standalone="no"?>
<svg xmlns:xlink="http://www.w3.org/1999/xlink" height="13.9px" width="25.8px" xmlns="http://www.w3.org/2000/svg">
  <g transform="matrix(1.0, 0.0, 0.0, 1.0, 13.1, 9.25)">
    <path d="M6.05 2.7 Q5.8 1.5 5.35 0.65 4.15 -1.95 1.2 -1.9 L1.05 -1.9 -1.65 -1.55 Q-3.05 -1.15 -4.6 -2.5 -5.65 -3.1 -6.55 -3.3 -9.75 -3.9 -12.5 -2.45 -12.7 -5.35 -11.0 -7.5 -9.1 -9.5 -4.75 -7.95 1.1 -5.85 5.5 -4.8 9.45 -3.7 12.1 -3.85 L12.0 -2.65 Q11.35 0.4 8.25 1.85 L6.05 2.7" fill="#622a2d" fill-rule="evenodd" stroke="none"/>
    <path d="M-12.5 -2.45 Q-9.75 -3.9 -6.55 -3.3 -5.65 -3.1 -4.6 -2.5 -3.05 -1.15 -1.65 -1.55 L1.05 -1.9 1.2 -1.9 Q4.15 -1.95 5.35 0.65 5.8 1.5 6.05 2.7 L1.2 3.85 Q-3.4 4.45 -7.55 3.0 -12.0 1.2 -12.5 -2.35 L-12.5 -2.45" fill="#ec839a" fill-rule="evenodd" stroke="none"/>
    <path d="M6.05 2.7 L8.25 1.85 Q11.35 0.4 12.0 -2.65 L12.1 -3.85 Q9.45 -3.7 5.5 -4.8 1.1 -5.85 -4.75 -7.95 -9.1 -9.5 -11.0 -7.5 -12.7 -5.35 -12.5 -2.45 L-12.5 -2.35 Q-12.0 1.2 -7.55 3.0 -3.4 4.45 1.2 3.85 L6.05 2.7 Z" fill="none" stroke="#000000" stroke-linecap="round" stroke-linejoin="round" stroke-width="1.2000000000000002"/>
  </g>
</svg>
