<?xml version="1.0" encoding="UTF-8" standalone="no"?>
<svg xmlns:xlink="http://www.w3.org/1999/xlink" height="14.15px" width="14.3px" xmlns="http://www.w3.org/2000/svg">
  <g transform="matrix(1.0, 0.0, 0.0, 1.0, 6.8, 8.55)">
    <path d="M0.8 0.85 Q2.5 0.2 3.8 -2.3 4.5 -4.0 3.7 -4.85 2.1 -5.9 0.9 -4.2 -0.45 -5.9 -2.05 -5.3 -3.25 -4.6 -2.55 -2.55 -1.4 0.05 0.8 0.85 M-5.9 -5.1 Q-5.3 -7.65 -3.2 -7.75 1.1 -8.1 4.0 -7.8 6.9 -7.5 6.9 -3.3 6.85 0.85 5.4 2.85 2.9 5.5 -0.65 4.9 -4.1 4.25 -5.75 0.8 -6.6 -1.85 -5.9 -5.1" fill="#ec839a" fill-rule="evenodd" stroke="none"/>
    <path d="M0.8 0.85 Q-1.4 0.05 -2.55 -2.55 -3.25 -4.6 -2.05 -5.3 -0.45 -5.9 0.9 -4.2 2.1 -5.9 3.7 -4.85 4.5 -4.0 3.8 -2.3 2.5 0.2 0.8 0.85" fill="#ffb1c2" fill-rule="evenodd" stroke="none"/>
    <path d="M-5.9 -5.1 Q-5.3 -7.65 -3.2 -7.75 1.1 -8.1 4.0 -7.8 6.9 -7.5 6.9 -3.3 6.85 0.85 5.4 2.85 2.9 5.5 -0.65 4.9 -4.1 4.25 -5.75 0.8 -6.6 -1.85 -5.9 -5.1" fill="none" stroke="#000000" stroke-linecap="round" stroke-linejoin="round" stroke-width="1.2000000000000002"/>
    <path d="M0.8 0.85 Q-1.4 0.05 -2.55 -2.55 -3.25 -4.6 -2.05 -5.3 -0.45 -5.9 0.9 -4.2 2.1 -5.9 3.7 -4.85 4.5 -4.0 3.8 -2.3 2.5 0.2 0.8 0.85" fill="none" stroke="#7e2748" stroke-linecap="round" stroke-linejoin="round" stroke-width="1.2000000000000002"/>
  </g>
</svg>
