<?xml version="1.0" encoding="UTF-8" standalone="no"?>
<svg xmlns:xlink="http://www.w3.org/1999/xlink" height="10.75px" width="29.65px" xmlns="http://www.w3.org/2000/svg">
  <g transform="matrix(1.0, 0.0, 0.0, 1.0, 13.5, 7.4)">
    <path d="M1.35 -3.75 Q2.65 -4.35 3.75 -5.3 6.5 -3.65 10.8 -3.7 12.5 -3.75 13.7 -4.25 12.35 -1.2 9.85 0.6 8.35 -2.15 1.35 -3.75" fill="#622a2d" fill-rule="evenodd" stroke="none"/>
    <path d="M9.85 0.6 Q7.85 1.95 5.2 2.55 -1.05 3.25 -5.6 1.3 -9.25 -0.45 -11.6 -3.45 L-11.9 -4.65 Q-8.5 -2.75 -3.55 -2.65 -0.8 -2.7 1.35 -3.75 8.35 -2.15 9.85 0.6" fill="#ec839a" fill-rule="evenodd" stroke="none"/>
    <path d="M13.7 -4.25 Q14.9 -4.8 15.55 -5.8 M1.35 -3.75 Q2.65 -4.35 3.75 -5.3 6.5 -3.65 10.8 -3.7 12.5 -3.75 13.7 -4.25 12.35 -1.2 9.85 0.6 7.85 1.95 5.2 2.55 -1.05 3.25 -5.6 1.3 -9.25 -0.45 -11.6 -3.45 -11.4 -2.25 -11.55 -1.0 M1.35 -3.75 Q-0.8 -2.7 -3.55 -2.65 -8.5 -2.75 -11.9 -4.65 L-11.6 -3.45 M-12.9 -6.8 L-11.9 -4.65" fill="none" stroke="#000000" stroke-linecap="round" stroke-linejoin="round" stroke-width="1.2000000000000002"/>
  </g>
</svg>
