<?xml version="1.0" encoding="UTF-8" standalone="no"?>
<svg xmlns:xlink="http://www.w3.org/1999/xlink" height="15.1px" width="16.95px" xmlns="http://www.w3.org/2000/svg">
  <g transform="matrix(1.0, 0.0, 0.0, 1.0, 6.25, 3.8)">
    <path d="M-0.75 -0.65 L3.2 -0.9 6.45 -1.6 Q9.35 3.7 10.1 8.8 9.35 8.1 6.25 7.65 4.6 10.0 2.95 10.7 2.25 5.65 -0.75 -0.65 M5.0 1.55 Q4.3 0.15 3.6 -0.3 4.3 0.15 5.0 1.55" fill="#ec839a" fill-rule="evenodd" stroke="none"/>
    <path d="M6.45 -1.6 Q8.55 -2.25 9.4 -3.2 M-0.75 -0.65 L3.2 -0.9 6.45 -1.6 Q9.35 3.7 10.1 8.8 9.35 8.1 6.25 7.65 4.6 10.0 2.95 10.7 2.25 5.65 -0.75 -0.65 -3.35 -0.75 -5.65 -1.65" fill="none" stroke="#000000" stroke-linecap="round" stroke-linejoin="round" stroke-width="1.2000000000000002"/>
    <path d="M3.6 -0.3 Q4.3 0.15 5.0 1.55" fill="none" stroke="#7e2748" stroke-linecap="round" stroke-linejoin="round" stroke-width="1.2000000000000002"/>
  </g>
</svg>
