<?xml version="1.0" encoding="UTF-8" standalone="no"?>
<svg xmlns:xlink="http://www.w3.org/1999/xlink" height="15.7px" width="22.05px" xmlns="http://www.w3.org/2000/svg">
  <g transform="matrix(1.0, 0.0, 0.0, 1.0, 10.45, 9.7)">
    <path d="M-9.6 -5.5 Q-9.1 -7.3 -7.4 -8.5 -5.7 -9.45 -4.0 -8.95 -1.75 -8.05 -0.1 -5.7 3.0 -2.0 5.2 -2.65 L7.55 -3.25 Q9.85 -3.85 10.8 -1.95 11.2 -1.0 10.75 0.3 9.6 2.85 6.9 3.0 6.45 -0.2 2.8 -2.15 -3.95 -6.15 -9.6 -5.5" fill="#622a2d" fill-rule="evenodd" stroke="none"/>
    <path d="M-9.6 -5.5 Q-3.95 -6.15 2.8 -2.15 6.45 -0.2 6.9 3.0 L5.8 2.95 Q3.2 2.9 -1.25 5.05 -4.5 6.05 -6.9 4.35 -8.8 2.55 -9.7 -2.1 -10.05 -4.0 -9.6 -5.5" fill="#ec839a" fill-rule="evenodd" stroke="none"/>
    <path d="M6.9 3.0 Q9.6 2.85 10.75 0.3 11.2 -1.0 10.8 -1.95 9.85 -3.85 7.55 -3.25 L5.2 -2.65 Q3.0 -2.0 -0.1 -5.7 -1.75 -8.05 -4.0 -8.95 -5.7 -9.45 -7.4 -8.5 -9.1 -7.3 -9.6 -5.5 -10.05 -4.0 -9.7 -2.1 -8.8 2.55 -6.9 4.35 -4.5 6.05 -1.25 5.05 3.2 2.9 5.8 2.95 L6.9 3.0 Z" fill="none" stroke="#000000" stroke-linecap="round" stroke-linejoin="round" stroke-width="1.2000000000000002"/>
  </g>
</svg>
