<?xml version="1.0" encoding="UTF-8" standalone="no"?>
<svg xmlns:xlink="http://www.w3.org/1999/xlink" height="14.35px" width="17.25px" xmlns="http://www.w3.org/2000/svg">
  <g transform="matrix(1.0, 0.0, 0.0, 1.0, 6.9, 8.45)">
    <path d="M6.1 -4.25 Q6.5 -3.55 7.15 -3.25 7.7 2.3 5.25 4.25 2.0 6.65 -2.0 3.45 -4.25 1.65 -3.9 -3.4 -2.9 -3.45 -2.05 -4.3 L2.45 -3.9 6.1 -4.25" fill="#ec839a" fill-rule="evenodd" stroke="none"/>
    <path d="M6.1 -4.25 L2.45 -3.9 -2.05 -4.3 -1.7 -4.85 Q0.6 -8.3 2.35 -7.8 4.6 -8.0 5.9 -4.6 L6.1 -4.25" fill="#ffffff" fill-rule="evenodd" stroke="none"/>
    <path d="M6.1 -4.25 Q6.5 -3.55 7.15 -3.25 L7.8 -3.1 Q9.05 -2.95 9.75 -4.3 M-2.05 -4.3 L2.45 -3.9 6.1 -4.25 5.9 -4.6 Q4.6 -8.0 2.35 -7.8 0.6 -8.3 -1.7 -4.85 L-2.05 -4.3 Q-2.9 -3.45 -3.9 -3.4 -4.25 1.65 -2.0 3.45 2.0 6.65 5.25 4.25 7.7 2.3 7.15 -3.25 M-6.3 -4.35 Q-4.95 -3.3 -3.9 -3.4" fill="none" stroke="#000000" stroke-linecap="round" stroke-linejoin="round" stroke-width="1.2000000000000002"/>
  </g>
</svg>
