<?xml version="1.0" encoding="UTF-8" standalone="no"?>
<svg xmlns:xlink="http://www.w3.org/1999/xlink" height="11.8px" width="26.25px" xmlns="http://www.w3.org/2000/svg">
  <g transform="matrix(1.0, 0.0, 0.0, 1.0, 13.1, 5.95)">
    <path d="M-10.9 -1.75 L-9.7 -2.85 -8.7 -3.45 Q-5.7 -5.55 2.65 -5.35 L5.0 -5.05 7.9 -4.55 11.3 -3.8 Q12.65 -3.25 12.55 -2.6 12.45 -2.05 11.65 -1.45 9.9 -0.45 6.3 -0.5 L3.6 -0.5 Q-0.15 0.1 -3.0 2.9 -5.45 5.55 -8.7 5.2 -12.45 4.85 -12.5 2.3 -12.55 -0.05 -10.9 -1.75 L-7.95 -1.9 -7.25 -2.9 -6.25 -0.2 -4.95 -1.8 12.55 -2.6 -4.95 -1.8 -6.25 -0.2 -7.25 -2.9 -7.95 -1.9 -10.9 -1.75" fill="#ffffff" fill-rule="evenodd" stroke="none"/>
    <path d="M-10.9 -1.75 L-9.7 -2.85 -8.7 -3.45 Q-5.7 -5.55 2.65 -5.35 L5.0 -5.05 7.9 -4.55 11.3 -3.8 Q12.65 -3.25 12.55 -2.6 12.45 -2.05 11.65 -1.45 9.9 -0.45 6.3 -0.5 L3.6 -0.5 Q-0.15 0.1 -3.0 2.9 -5.45 5.55 -8.7 5.2 -12.45 4.85 -12.5 2.3 -12.55 -0.05 -10.9 -1.75 L-7.95 -1.9 -7.25 -2.9 -6.25 -0.2 -4.95 -1.8 12.55 -2.6" fill="none" stroke="#000000" stroke-linecap="round" stroke-linejoin="round" stroke-width="1.2000000000000002"/>
  </g>
</svg>
