<?xml version="1.0" encoding="UTF-8" standalone="no"?>
<svg xmlns:xlink="http://www.w3.org/1999/xlink" height="37.5px" width="62.45px" xmlns="http://www.w3.org/2000/svg">
  <g transform="matrix(1.0, 0.0, 0.0, 1.0, 19.1, 65.5)">
    <path d="M20.4 -59.65 L20.85 -60.4 Q21.75 -61.75 23.3 -62.7 L23.75 -63.0 Q25.65 -64.1 27.5 -64.35 L27.6 -64.4 34.25 -64.1 35.05 -63.95 Q39.1 -63.2 40.95 -59.75 42.95 -56.05 42.1 -53.95 39.1 -47.05 35.35 -43.65 31.6 -40.35 27.5 -37.75 23.35 -35.2 18.65 -33.85 L17.8 -33.6 8.35 -31.25 -2.75 -29.15 Q-8.25 -28.35 -14.0 -31.35 -19.8 -34.4 -17.35 -40.75 -15.9 -44.85 -13.2 -47.1 L-12.85 -47.4 -9.8 -49.15 Q-4.6 -51.15 -0.4 -49.65 -0.95 -52.95 4.3 -56.95 8.2 -59.95 12.65 -60.45 L15.75 -60.5 Q19.8 -60.2 20.4 -59.65 L19.95 -59.0 19.9 -58.9 Q18.55 -55.3 19.05 -51.75 M-0.4 -49.65 Q-0.1 -45.1 4.75 -44.7" fill="none" stroke="#000000" stroke-linecap="round" stroke-linejoin="round" stroke-width="2.0"/>
  </g>
</svg>
