<?xml version="1.0" encoding="UTF-8" standalone="no"?>
<svg xmlns:xlink="http://www.w3.org/1999/xlink" height="28.7px" width="26.95px" xmlns="http://www.w3.org/2000/svg">
  <g transform="matrix(1.0, 0.0, 0.0, 1.0, -46.85, 13.9)">
    <path d="M55.25 12.65 Q52.95 14.2 50.55 14.05 L48.25 9.8 Q46.35 5.25 49.85 2.25 60.45 -4.25 64.25 -8.6 68.0 -13.0 69.0 -13.15 72.7 -11.35 73.05 -5.95 73.2 -3.25 69.7 1.7 66.2 6.65 55.25 12.65 L54.25 11.55 Q53.0 10.05 52.45 7.9 52.1 5.35 54.95 3.85 62.5 -1.2 64.95 -3.4 L68.65 -6.85 Q69.9 -8.1 73.05 -5.95" fill="none" stroke="#000000" stroke-linecap="round" stroke-linejoin="round" stroke-width="1.5"/>
  </g>
</svg>
