<?xml version="1.0" encoding="UTF-8" standalone="no"?>
<svg xmlns:xlink="http://www.w3.org/1999/xlink" height="14.45px" width="81.5px" xmlns="http://www.w3.org/2000/svg">
  <g transform="matrix(1.0, 0.0, 0.0, 1.0, 11.2, 10.2)">
    <path d="M5.85 -2.0 Q6.8 -0.95 6.8 0.4 6.8 1.75 5.85 2.8 4.8 3.75 3.45 3.75 2.1 3.75 1.05 2.8 0.05 1.75 0.05 0.4 0.05 -0.95 1.05 -2.0 2.1 -2.95 3.45 -2.95 4.8 -2.95 5.85 -2.0 M17.6 -6.65 L17.95 -5.6 Q17.95 -5.05 17.6 -4.6 17.15 -4.15 16.55 -4.15 16.0 -4.15 15.55 -4.6 15.1 -5.05 15.1 -5.6 15.1 -6.2 15.55 -6.65 16.0 -7.1 16.55 -7.1 17.15 -7.1 17.6 -6.65 M13.9 -1.7 Q13.9 -0.95 13.3 -0.45 12.8 0.1 12.1 0.1 11.35 0.1 10.85 -0.45 10.35 -0.95 10.35 -1.7 10.35 -2.35 10.85 -2.95 11.35 -3.5 12.1 -3.5 12.8 -3.5 13.3 -2.95 13.9 -2.35 13.9 -1.7 M41.55 -6.45 Q40.95 -6.45 40.5 -6.85 40.05 -7.3 40.05 -7.95 40.05 -8.55 40.5 -9.0 40.95 -9.45 41.55 -9.45 42.25 -9.45 42.7 -9.0 43.05 -8.55 43.05 -7.95 43.05 -7.3 42.7 -6.85 42.25 -6.45 41.55 -6.45 M47.1 -1.55 Q46.35 -1.55 45.75 -2.05 45.25 -2.6 45.25 -3.3 45.25 -4.15 45.75 -4.75 46.35 -5.2 47.1 -5.2 47.95 -5.2 48.4 -4.75 49.0 -4.15 49.0 -3.3 49.0 -2.6 48.4 -2.05 47.95 -1.55 47.1 -1.55 M57.65 -3.25 Q58.65 -2.2 58.65 -0.85 58.65 0.5 57.65 1.55 56.6 2.5 55.25 2.5 53.9 2.5 52.95 1.55 51.9 0.5 51.9 -0.85 51.9 -2.2 52.95 -3.25 53.9 -4.2 55.25 -4.2 56.6 -4.2 57.65 -3.25 M69.4 -6.55 Q68.95 -6.1 68.35 -6.1 67.85 -6.1 67.4 -6.55 66.95 -6.9 66.95 -7.5 66.95 -8.1 67.4 -8.5 67.85 -8.95 68.35 -8.95 68.95 -8.95 69.4 -8.5 69.8 -8.1 69.8 -7.5 69.8 -6.9 69.4 -6.55 M62.45 -2.8 Q61.95 -3.25 61.95 -4.0 61.95 -4.75 62.45 -5.25 63.05 -5.8 63.75 -5.8 64.5 -5.8 64.95 -5.25 65.5 -4.75 65.5 -4.0 65.5 -3.25 64.95 -2.8 64.5 -2.2 63.75 -2.2 63.05 -2.2 62.45 -2.8 M-10.7 -8.2 Q-10.7 -8.8 -10.25 -9.25 -9.8 -9.7 -9.15 -9.7 -8.55 -9.7 -8.1 -9.25 -7.65 -8.8 -7.65 -8.2 -7.65 -7.55 -8.1 -7.15 -8.55 -6.7 -9.15 -6.7 -9.8 -6.7 -10.25 -7.15 -10.7 -7.55 -10.7 -8.2 M-6.35 -2.75 Q-6.35 -3.55 -5.85 -4.1 -5.3 -4.6 -4.5 -4.6 -3.75 -4.6 -3.2 -4.1 -2.6 -3.55 -2.6 -2.75 -2.6 -2.0 -3.2 -1.5 -3.75 -0.9 -4.5 -0.9 -5.3 -0.9 -5.85 -1.5 -6.35 -2.0 -6.35 -2.75" fill="none" stroke="#000000" stroke-linecap="round" stroke-linejoin="round" stroke-width="1.0"/>
  </g>
</svg>
