<?xml version="1.0" encoding="UTF-8" standalone="no"?>
<svg xmlns:xlink="http://www.w3.org/1999/xlink" height="16.35px" width="87.55px" xmlns="http://www.w3.org/2000/svg">
  <g transform="matrix(1.0, 0.0, 0.0, 1.0, 19.9, 6.05)">
    <path d="M67.15 -5.55 L66.0 -1.9 58.55 -0.8 51.25 -0.4 52.65 -3.6 67.15 -5.55 M48.1 3.7 L62.05 2.5 62.2 2.45 64.35 2.45 60.75 6.45 Q53.4 8.65 46.75 7.95 L48.1 3.7 M5.8 9.6 Q0.3 10.1 -8.6 9.45 L-15.9 5.3 3.5 5.3 5.8 9.6 M0.1 -2.05 L-19.4 -1.45 -16.55 2.5 -8.75 2.5 1.6 1.8 0.1 -2.05" fill="none" stroke="#000000" stroke-linecap="round" stroke-linejoin="round" stroke-width="1.0"/>
  </g>
</svg>
