<?xml version="1.0" encoding="UTF-8" standalone="no"?>
<svg xmlns:xlink="http://www.w3.org/1999/xlink" height="20.95px" width="39.0px" xmlns="http://www.w3.org/2000/svg">
  <g transform="matrix(1.0, 0.0, 0.0, 1.0, -13.15, 58.85)">
    <path d="M33.4 -51.1 L34.55 -51.0 35.25 -50.4 Q35.75 -49.5 35.75 -48.4 35.75 -47.15 35.25 -46.4 34.7 -45.6 34.05 -45.55 L33.9 -45.55 Q33.25 -45.6 32.7 -46.4 32.15 -47.15 32.15 -48.4 32.15 -49.5 32.7 -50.4 L33.4 -51.1" fill="#000000" fill-rule="evenodd" stroke="none"/>
    <path d="M33.85 -54.75 Q36.6 -54.75 38.55 -52.8 40.5 -50.85 40.5 -48.1 40.5 -45.35 38.55 -43.4 36.6 -41.45 33.85 -41.45 31.1 -41.45 29.15 -43.4 27.2 -45.35 27.2 -48.1 27.2 -50.85 29.15 -52.8 31.1 -54.75 33.85 -54.75" fill="none" stroke="#000000" stroke-linecap="round" stroke-linejoin="round" stroke-width="1.0"/>
    <path d="M34.25 -38.65 Q44.8 -39.6 51.4 -47.4 44.3 -56.2 33.8 -58.1 22.1 -57.45 13.9 -48.55 23.95 -38.65 34.25 -38.65" fill="none" stroke="#000000" stroke-linecap="round" stroke-linejoin="round" stroke-width="1.5"/>
  </g>
</svg>
