<?xml version="1.0" encoding="UTF-8" standalone="no"?>
<svg xmlns:xlink="http://www.w3.org/1999/xlink" height="17.15px" width="17.2px" xmlns="http://www.w3.org/2000/svg">
  <g transform="matrix(1.0, 0.0, 0.0, 1.0, 12.25, 5.8)">
    <path d="M-0.6 2.8 L-0.15 1.8 Q0.2 1.45 0.75 1.45 1.4 1.45 1.75 1.8 L2.2 2.8 Q2.2 3.35 1.75 3.75 1.4 4.1 0.75 4.1 0.2 4.1 -0.15 3.75 -0.6 3.35 -0.6 2.8 M-6.1 2.45 Q-5.55 2.45 -5.1 2.8 -4.7 3.3 -4.7 3.75 -4.7 4.35 -5.1 4.75 -5.55 5.1 -6.1 5.1 -6.6 5.1 -7.0 4.75 -7.45 4.35 -7.45 3.75 L-7.0 2.8 Q-6.6 2.45 -6.1 2.45 M-6.95 3.2 L-6.8 3.5 Q-5.45 3.5 -6.5 2.7 -6.95 2.8 -6.95 3.2 M0.15 2.5 Q1.4 2.55 0.4 1.8 -0.15 1.85 -0.15 2.3 L0.15 2.5" fill="#191919" fill-rule="evenodd" stroke="none"/>
    <path d="M-6.95 3.2 Q-6.95 2.8 -6.5 2.7 -5.45 3.5 -6.8 3.5 L-6.95 3.2 M0.15 2.5 L-0.15 2.3 Q-0.15 1.85 0.4 1.8 1.4 2.55 0.15 2.5" fill="#ffffff" fill-rule="evenodd" stroke="none"/>
    <path d="M-0.65 6.9 L-0.2 5.95 Q-0.2 5.35 0.15 5.9 0.4 6.4 0.2 7.1 -0.1 7.85 -0.8 7.65 L-2.05 7.25 Q-2.85 8.65 -3.75 7.95 -4.7 7.15 -4.55 6.65 -4.3 6.1 -4.25 6.45 L-3.5 7.25 Q-3.0 7.65 -2.55 7.1 L-2.05 6.6 -0.65 6.9" fill="#020202" fill-rule="evenodd" stroke="none"/>
    <path d="M-6.6 -0.75 L-6.85 -0.8 Q-9.35 -2.25 -11.75 -2.6 -11.6 0.65 -10.05 4.1 L-10.0 4.5 -9.9 5.75 Q-9.5 8.25 -7.15 9.8 -4.75 11.2 -1.8 10.7 1.1 10.2 2.95 8.15 L2.95 8.1 Q4.8 5.9 4.35 3.4 L4.1 2.3 4.0 2.0 Q4.3 -1.9 3.4 -5.3 0.6 -3.95 -0.15 -1.95 L-0.5 -1.6 -0.95 -1.55 -3.85 -1.6 Q-5.1 -1.4 -6.15 -0.8 L-6.5 -0.75 -6.6 -0.75 Z" fill="none" stroke="#000000" stroke-linecap="round" stroke-linejoin="round" stroke-width="1.0"/>
  </g>
</svg>
