<?xml version="1.0" encoding="UTF-8" standalone="no"?>
<svg xmlns:xlink="http://www.w3.org/1999/xlink" height="39.4px" width="115.3px" xmlns="http://www.w3.org/2000/svg">
  <g transform="matrix(1.0, 0.0, 0.0, 1.0, 41.3, 20.25)">
    <path d="M72.9 -13.4 L72.95 -13.4 73.0 -13.3 72.9 -13.4" fill="#9bf2c9" fill-rule="evenodd" stroke="none"/>
    <path d="M63.65 -5.4 L70.2 -6.75 Q70.9 -5.85 69.25 3.5 M28.15 -0.5 Q48.35 -1.75 58.35 -4.55 M-17.55 12.5 Q-11.7 4.85 -12.3 -3.2 M-7.3 -2.15 Q-2.45 -0.65 6.2 -1.0" fill="none" stroke="#000000" stroke-linecap="round" stroke-linejoin="round" stroke-width="1.0"/>
    <path d="M-40.55 -19.5 Q-35.85 -16.25 -17.65 -7.6 -11.45 -4.95 10.4 -3.95 32.25 -2.95 54.1 -6.85 71.15 -9.9 73.1 -12.0 L73.1 -11.8 Q73.65 -4.25 72.25 2.25 71.05 5.05 68.25 7.4 59.0 15.05 32.8 17.75 3.4 20.35 -17.55 12.5 -20.75 11.25 -21.5 9.55 -25.9 8.55 -32.0 0.9 M-21.5 9.55 Q-14.85 0.5 -17.65 -7.6" fill="none" stroke="#000000" stroke-linecap="round" stroke-linejoin="round" stroke-width="1.5"/>
  </g>
</svg>
