<?xml version="1.0" encoding="UTF-8" standalone="no"?>
<svg xmlns:xlink="http://www.w3.org/1999/xlink" height="11.65px" width="14.55px" xmlns="http://www.w3.org/2000/svg">
  <g transform="matrix(1.0, 0.0, 0.0, 1.0, -26.8, 9.7)">
    <path d="M31.75 -7.8 Q32.1 -7.25 31.65 -6.0 31.25 -4.8 31.6 -3.85 32.1 -3.65 32.2 -3.0 32.4 -2.15 31.95 -0.35 31.45 1.2 30.5 1.4 28.7 1.6 27.8 0.3 L27.45 -0.4 Q27.05 -1.45 27.6 -2.25 28.1 -2.95 28.0 -4.15 L27.75 -5.15 Q27.25 -5.8 27.3 -6.9 L27.65 -8.15 Q28.2 -9.35 29.65 -9.15 31.75 -9.3 31.75 -7.8 M39.55 -7.65 Q39.35 -6.4 40.1 -5.85 40.95 -5.15 40.85 -2.95 L40.8 -2.05 Q40.85 -0.35 39.5 0.3 37.9 0.7 37.75 -1.35 L37.7 -2.2 Q38.1 -3.3 37.3 -4.55 L37.15 -4.9 Q36.65 -6.0 36.8 -7.1 L36.95 -7.9 Q37.15 -8.75 38.1 -8.95 39.75 -9.5 39.55 -7.65" fill="none" stroke="#000000" stroke-linecap="round" stroke-linejoin="round" stroke-width="1.0"/>
  </g>
</svg>
