<?xml version="1.0" encoding="UTF-8" standalone="no"?>
<svg xmlns:xlink="http://www.w3.org/1999/xlink" height="41.5px" width="115.75px" xmlns="http://www.w3.org/2000/svg">
  <g transform="matrix(1.0, 0.0, 0.0, 1.0, 38.7, 15.85)">
    <path d="M15.65 -6.45 L12.45 -6.15 -17.55 -2.5 -29.5 -0.85 Q-30.85 -0.5 -32.7 1.8 -36.0 -1.95 -37.95 -15.1 -25.5 -8.2 -18.8 -7.35 -4.5 -5.4 15.65 -6.45 M74.8 -2.85 L56.95 -5.75 56.75 -5.85 Q69.4 -6.95 74.8 -13.5 76.3 -5.75 74.8 -2.85" fill="#000000" fill-rule="evenodd" stroke="none"/>
    <path d="M56.75 -5.85 Q40.2 -9.25 33.5 -8.65 L15.65 -6.45 12.45 -6.15 -17.55 -2.5 -29.5 -0.85 Q-30.85 -0.5 -32.7 1.8 L-32.0 3.05 -29.55 6.3 -28.4 6.3 Q-28.25 4.45 -27.0 2.25 L-24.1 6.95 -19.15 1.95 -14.4 7.7 -9.75 1.8 -4.95 7.7 0.5 1.05 6.85 7.45 12.15 0.25 19.0 7.35 24.3 -0.85 30.9 6.7 37.6 -1.35 44.9 6.5 50.0 -1.35 55.45 6.95 61.25 -0.4 67.0 8.0 70.95 0.85 74.8 6.55 Q77.45 2.55 75.35 -2.0 L74.8 -2.85 56.95 -5.75 56.75 -5.85 Q69.4 -6.95 74.8 -13.5 76.3 -5.75 74.8 -2.85 M-28.4 6.3 Q-27.55 9.15 -23.7 11.25 L-23.4 11.35 -20.3 6.95 -14.0 14.15 -10.65 11.0 -9.5 9.7 -3.9 15.3 0.35 10.25 8.3 17.35 13.0 11.15 22.65 19.6 30.0 10.35 38.65 19.9 45.35 10.15 54.05 18.25 60.3 10.15 65.35 15.05 Q67.1 14.1 68.55 13.0 L70.95 8.0 72.4 9.7 74.8 6.55 M72.4 9.7 L68.55 13.0 M65.35 15.05 L58.95 18.6 Q56.35 19.9 50.6 21.9 46.95 23.05 43.05 23.8 L34.45 24.8 33.9 24.8 Q24.0 25.3 13.8 23.35 3.55 21.35 -6.35 19.0 -16.3 16.6 -18.35 15.1 L-23.2 11.5 -23.7 11.25 M15.65 -6.45 Q-4.5 -5.4 -18.8 -7.35 -25.5 -8.2 -37.95 -15.1 -36.0 -1.95 -32.7 1.8 M-23.2 11.5 L-23.4 11.35" fill="none" stroke="#000000" stroke-linecap="round" stroke-linejoin="round" stroke-width="1.5"/>
  </g>
</svg>
