<?xml version="1.0" encoding="UTF-8" standalone="no"?>
<svg xmlns:xlink="http://www.w3.org/1999/xlink" height="44.5px" width="111.65px" xmlns="http://www.w3.org/2000/svg">
  <g transform="matrix(1.0, 0.0, 0.0, 1.0, 36.2, 19.8)">
    <path d="M34.5 -19.0 Q26.7 -18.55 20.45 -14.5 17.9 -13.35 14.95 -12.55 L13.75 -12.2 Q-0.45 -8.5 -23.35 -11.05 -34.5 -13.55 -35.4 -10.15 -35.55 -8.9 -35.15 -7.1 -34.4 -3.6 -31.7 1.8 L-31.35 2.65 Q-29.35 7.85 -13.1 13.65 L-6.75 15.75 Q2.75 18.75 15.2 21.35 L15.55 21.45 25.45 23.35 33.9 23.95 41.0 23.1 Q43.65 22.25 45.7 20.9 L46.65 20.2 64.1 9.2 Q68.05 6.95 71.45 3.05 73.0 1.1 74.1 -2.35 75.15 -5.8 74.35 -11.2 L62.6 -12.15 56.0 -12.75 Q46.75 -15.25 42.1 -17.75 38.45 -19.3 34.5 -19.0 Z" fill="none" stroke="#000000" stroke-linecap="round" stroke-linejoin="round" stroke-width="1.5"/>
  </g>
</svg>
