<?xml version="1.0" encoding="UTF-8" standalone="no"?>
<svg xmlns:xlink="http://www.w3.org/1999/xlink" height="59.75px" width="111.3px" xmlns="http://www.w3.org/2000/svg">
  <g transform="matrix(1.0, 0.0, 0.0, 1.0, 36.8, 10.5)">
    <path d="M-13.9 18.6 L-17.65 17.35 Q-23.65 13.2 -30.0 7.75 -30.3 4.25 -33.4 1.25 L-36.05 -1.9 -36.05 -4.0 Q-23.95 -8.3 -8.4 -9.4 7.15 -10.55 33.3 -7.85 L48.5 -5.95 59.55 -5.0 Q67.7 -5.1 73.75 -7.5 73.75 -0.5 69.75 4.4 65.7 9.2 64.05 12.6 L63.05 14.3 59.85 15.95 Q60.55 20.3 58.8 22.9 L54.1 25.75 Q53.25 27.55 51.1 29.05 L51.4 29.15 M33.15 33.15 L32.55 33.15 31.2 33.25 27.85 32.5 17.25 30.15 11.75 28.85 Q-2.65 25.0 -2.95 21.95 L-13.9 18.6 M51.1 29.05 L49.4 30.0 Q46.9 31.1 43.2 31.9 L40.5 32.35 33.15 33.15" fill="none" stroke="#000000" stroke-linecap="round" stroke-linejoin="round" stroke-width="1.5"/>
    <path d="M51.4 29.15 L61.9 36.45 49.25 32.3 58.2 43.95 44.5 33.25 44.75 33.75 52.0 47.45 39.2 34.4 39.55 35.2 42.8 48.75 33.15 33.15 M32.55 33.15 L31.4 47.0 25.3 33.0 21.0 46.8 18.85 30.6 17.4 33.75 M11.75 28.85 L12.8 43.45 17.25 34.1 M-13.9 18.6 L-26.65 23.9 -12.95 22.4 -23.0 32.0 -10.1 25.5 -15.2 36.6 -4.85 27.1 -7.45 39.65 -0.2 26.8 -0.2 42.15 6.35 28.05 6.35 45.35 10.25 33.0 M10.4 32.8 L11.75 28.85" fill="none" stroke="#000000" stroke-linecap="round" stroke-linejoin="round" stroke-width="1.0"/>
  </g>
</svg>
