<?xml version="1.0" encoding="UTF-8" standalone="no"?>
<svg xmlns:xlink="http://www.w3.org/1999/xlink" height="38.25px" width="109.3px" xmlns="http://www.w3.org/2000/svg">
  <g transform="matrix(1.0, 0.0, 0.0, 1.0, 34.75, 17.95)">
    <path d="M-26.05 8.65 Q-18.55 3.3 -8.7 2.55 L-6.65 2.4 Q-4.3 2.45 -3.9 3.6 -3.9 4.1 -5.05 4.65 -6.5 5.45 -9.9 6.35 -16.2 8.0 -21.7 12.05 -24.25 10.5 -26.05 8.65 M-17.05 14.45 Q-8.35 8.4 -6.0 9.7 -4.35 10.7 -13.1 15.8 L-17.05 14.45 M-5.85 17.6 Q-1.6 13.15 0.45 14.0 0.6 15.25 -2.75 18.15 L-5.85 17.6 M54.8 14.5 L53.85 13.6 Q51.15 10.7 51.8 9.8 52.75 8.75 56.9 13.55 L54.8 14.5 M60.35 11.6 Q56.5 8.0 56.35 6.55 57.5 5.4 62.25 10.3 L60.35 11.6 M66.3 6.85 Q58.3 2.15 57.7 0.6 58.15 -1.45 68.35 4.6 L66.3 6.85 M36.8 -6.75 Q34.95 -3.95 33.05 -3.15 L32.5 -3.15 Q30.8 -3.5 28.2 -6.8 27.55 -8.7 28.75 -9.35 29.9 -10.05 33.05 -9.85 38.7 -10.05 36.8 -6.75" fill="#333333" fill-rule="evenodd" stroke="none"/>
    <path d="M68.35 4.6 L70.7 1.55 67.7 -0.85 Q54.8 -11.0 37.75 -11.8 34.35 -12.0 30.8 -11.85 9.45 -13.0 -15.3 -1.95 -20.0 0.2 -24.9 2.8 -26.85 3.75 -28.8 4.9 -27.75 6.95 -26.05 8.65 -24.25 10.5 -21.7 12.05 -19.7 13.35 -17.05 14.45 L-13.1 15.8 Q-9.85 16.85 -5.85 17.6 L-2.75 18.15 Q9.55 20.05 27.1 19.4 L37.7 18.85 37.75 18.85 Q47.35 17.75 54.8 14.5 L56.9 13.55 60.35 11.6 62.25 10.3 Q64.35 8.75 66.3 6.85 L68.35 4.6 M67.7 -0.85 Q71.25 -6.35 71.7 -17.2 76.4 -7.4 70.7 1.55 M27.75 12.65 L31.95 9.45 35.6 12.7 M-28.8 4.9 L-34.0 0.0 -32.05 -12.1 Q-31.05 -0.7 -24.9 2.8" fill="none" stroke="#000000" stroke-linecap="round" stroke-linejoin="round" stroke-width="1.5"/>
  </g>
</svg>
