<?xml version="1.0" encoding="UTF-8" standalone="no"?>
<svg xmlns:xlink="http://www.w3.org/1999/xlink" height="69.25px" width="140.65px" xmlns="http://www.w3.org/2000/svg">
  <g transform="matrix(1.0, 0.0, 0.0, 1.0, 66.85, 16.55)">
    <path d="M-32.25 3.8 L-11.75 1.0 Q17.25 -1.2 36.1 -8.5 55.2 -4.6 68.95 4.55 M61.5 11.05 Q48.2 14.25 40.25 14.45 18.05 7.5 4.95 9.75 1.85 10.25 -0.7 11.25 M16.85 32.3 Q27.7 35.0 32.75 38.9 42.95 35.65 48.2 31.95 M-30.6 6.55 Q-26.4 8.05 -8.2 8.45" fill="none" stroke="#000000" stroke-linecap="round" stroke-linejoin="round" stroke-width="1.4000000000000001"/>
    <path d="M68.95 4.55 L72.8 -2.25 Q70.1 -2.7 69.35 -3.15 58.75 -9.4 36.15 -15.55 L16.05 -10.3 9.85 -8.95 -0.15 -7.2 -0.8 -7.1 -13.45 -6.4 Q-33.35 -5.55 -35.75 -0.35 L-33.6 2.15 -32.25 3.8 Q-30.85 5.65 -30.6 6.55 L-30.55 6.9 -30.1 9.95 -29.95 10.15 Q-30.05 16.85 -35.0 21.45 -45.75 26.15 -53.7 24.55 -47.6 17.45 -35.35 10.3 -40.05 12.75 -46.5 12.3 -56.5 7.8 -65.85 3.2 -47.7 -0.9 -33.6 2.15 M68.95 4.55 L68.0 6.4 Q66.85 8.55 61.5 11.05 L62.5 16.9 Q52.75 42.15 30.15 51.7 21.8 42.35 7.05 32.65 -2.1 26.55 -13.5 20.5 L-18.3 20.5 -24.5 18.4 -29.95 10.15 M-30.6 6.55 Q-32.7 8.9 -35.35 10.3" fill="none" stroke="#000000" stroke-linecap="round" stroke-linejoin="round" stroke-width="2.0"/>
  </g>
</svg>
