<?xml version="1.0" encoding="UTF-8" standalone="no"?>
<svg xmlns:xlink="http://www.w3.org/1999/xlink" height="83.3px" width="125.6px" xmlns="http://www.w3.org/2000/svg">
  <g transform="matrix(1.0, 0.0, 0.0, 1.0, 45.7, 23.65)">
    <path d="M-6.75 0.45 Q-8.55 -1.35 -9.85 -3.6 L-11.2 -6.6 -11.2 -6.75 -11.4 -7.15 -11.25 -7.4 Q-10.75 -9.05 -10.1 -9.65 -5.6 -2.1 -0.3 -2.75 4.95 -3.45 9.95 -5.15 15.75 -7.3 22.6 -8.0 L24.05 -8.15 Q27.95 -8.2 30.95 -6.0 32.4 -4.55 33.65 -4.4 L33.8 -4.3 Q34.65 -4.5 36.3 -6.0 38.6 -8.15 41.9 -8.15 L43.25 -8.0 Q49.05 -7.3 53.55 -5.85 58.1 -4.5 62.3 -3.65 66.45 -2.8 68.75 -9.05 L70.3 -7.4 70.45 -7.3 70.6 -6.8 70.6 -6.7 70.6 -6.6 70.6 -6.0 Q71.3 -6.6 72.25 -6.8 L72.85 -15.5 Q77.65 -9.75 78.7 -2.6 79.95 4.2 73.95 9.7 75.75 21.35 68.6 23.25 70.0 33.15 63.35 35.9 63.75 45.0 57.25 47.95 52.95 58.95 37.45 56.2 23.8 62.65 12.8 52.2 2.25 53.75 -4.45 42.4 -14.0 39.0 -15.9 27.55 -26.5 22.5 -27.3 13.8 -36.15 6.9 -35.1 -0.35 -29.45 -5.1 -44.7 -22.65 L-39.85 -21.75 Q-35.5 -20.95 -34.5 -20.45 L-24.15 -8.85 Q-18.8 -5.6 -16.2 0.0 L-13.5 -0.6 Q-9.7 -1.25 -7.7 0.0 L-6.75 0.45 Q-1.2 6.25 8.6 9.25 13.0 10.25 19.55 9.05 L16.1 11.1 Q27.7 9.2 30.45 6.9 L33.45 4.9 34.7 4.9 Q35.45 5.1 38.45 7.2 41.2 9.35 46.75 11.05 L45.45 9.05 49.05 9.65 Q52.55 9.45 56.5 8.45 66.1 4.35 69.8 -3.75 L70.55 -5.85 70.6 -6.0" fill="none" stroke="#000000" stroke-linecap="round" stroke-linejoin="round" stroke-width="2.0"/>
  </g>
</svg>
