<?xml version="1.0" encoding="UTF-8" standalone="no"?>
<svg xmlns:xlink="http://www.w3.org/1999/xlink" height="12.35px" width="28.7px" xmlns="http://www.w3.org/2000/svg">
  <g transform="matrix(1.0, 0.0, 0.0, 1.0, -18.6, 13.95)">
    <path d="M21.9 -7.85 Q22.85 -7.4 21.95 -6.9 21.5 -6.7 21.4 -7.25 21.35 -7.8 21.9 -7.85 M24.65 -9.35 Q25.6 -8.9 24.65 -8.45 24.2 -8.25 24.15 -8.8 24.1 -9.3 24.65 -9.35 M23.9 -7.0 Q24.85 -6.55 23.95 -6.1 23.5 -5.9 23.4 -6.4 23.35 -6.95 23.9 -7.0 M23.25 -5.15 Q24.2 -4.7 23.3 -4.25 22.85 -4.0 22.75 -4.5 22.75 -5.05 23.25 -5.15 M25.85 -6.45 Q26.8 -6.0 25.9 -5.55 25.4 -5.35 25.35 -5.9 25.3 -6.4 25.85 -6.45 M41.7 -8.5 Q42.4 -8.2 41.75 -7.85 41.35 -7.65 41.3 -8.05 41.3 -8.45 41.7 -8.5 M42.8 -6.9 Q43.55 -6.55 42.85 -6.2 42.5 -6.05 42.45 -6.45 42.4 -6.85 42.8 -6.9 M44.05 -7.55 Q44.75 -7.25 44.1 -6.9 43.75 -6.7 43.7 -7.1 43.65 -7.55 44.05 -7.55 M41.45 -6.1 Q42.2 -5.75 41.5 -5.45 41.15 -5.25 41.15 -5.6 41.1 -6.05 41.45 -6.1 M43.65 -5.15 Q44.35 -4.8 43.65 -4.45 43.3 -4.3 43.25 -4.7 43.25 -5.1 43.65 -5.15" fill="#000000" fill-opacity="0.3372549" fill-rule="evenodd" stroke="none"/>
    <path d="M28.2 -12.8 L31.4 -13.3 38.1 -12.9 39.1 -12.6 Q41.7 -11.35 44.45 -9.3 47.2 -7.2 46.75 -4.45 46.3 -1.75 44.25 -2.4 42.15 -3.15 39.4 -4.6 L37.35 -5.45 33.1 -5.9 30.15 -5.3 Q27.55 -4.5 24.25 -2.5 20.35 -1.2 19.3 -4.4 18.25 -7.6 22.25 -10.2 24.55 -11.75 28.2 -12.8 28.15 -11.45 28.5 -8.8 28.85 -6.2 30.15 -5.3 M37.35 -5.45 Q38.4 -5.45 38.65 -8.65 38.85 -11.85 38.1 -12.9" fill="none" stroke="#000000" stroke-linecap="round" stroke-linejoin="round" stroke-width="1.0"/>
  </g>
</svg>
