<?xml version="1.0" encoding="UTF-8" standalone="no"?>
<svg xmlns:xlink="http://www.w3.org/1999/xlink" height="293.0px" width="190.05px" xmlns="http://www.w3.org/2000/svg">
  <g transform="matrix(1.0, 0.0, 0.0, 1.0, 95.0, 146.5)">
    <path d="M80.95 115.8 L80.8 115.55 Q54.85 103.3 41.9 81.45 58.95 112.0 61.25 142.5 51.45 120.25 35.8 99.15 30.0 91.35 25.3 83.95 36.55 121.5 54.6 143.55 26.85 133.25 15.65 105.3 24.4 132.65 38.0 144.05 -13.9 120.45 -22.0 70.6 -16.95 129.6 -1.4 145.5 -44.15 106.5 -51.0 49.9 -46.0 110.1 -29.65 133.9 -68.6 103.4 -70.75 33.0 -71.5 82.6 -62.0 112.65 -89.85 77.0 -93.85 7.65 -95.55 -57.2 -75.0 -94.95 -54.45 -132.7 -29.2 -138.9 L-24.0 -138.3 -23.75 -138.25 Q-9.4 -149.6 3.65 -143.2 24.15 -149.15 26.2 -133.4 L26.4 -133.35 26.45 -133.3 26.2 -133.4 M3.65 -143.2 Q9.0 -140.55 14.15 -134.9 M25.3 83.95 L25.15 83.7 Q17.15 71.15 12.25 59.7 M41.9 81.45 L41.5 80.75 40.85 79.65 Q33.15 65.9 30.45 48.5 M29.45 17.65 Q35.9 38.4 46.5 55.5 L47.55 57.15 Q65.2 84.85 94.05 102.65 44.45 35.15 29.65 -120.95 M15.65 105.3 Q12.15 94.35 9.45 80.9 6.25 65.15 4.1 45.95 M47.55 57.15 Q63.25 101.1 80.8 115.55 M-8.5 -129.0 Q-14.7 -136.35 -23.75 -138.25 M-68.7 -1.55 Q-47.4 -119.2 -24.4 -114.55 M-22.0 70.6 Q-23.75 60.0 -23.5 48.25 L-24.15 31.8 M-52.35 30.3 L-51.35 45.95 -51.0 49.9 M-70.75 33.0 L-70.1 13.15 M-22.0 70.6 Q-22.95 60.1 -23.5 48.25 M-50.1 20.25 Q-50.3 -27.45 -31.5 -95.95 M-23.75 20.9 L-25.75 -47.1" fill="none" stroke="#000000" stroke-linecap="round" stroke-linejoin="round" stroke-width="2.0"/>
  </g>
</svg>
