<?xml version="1.0" encoding="UTF-8" standalone="no"?>
<svg xmlns:xlink="http://www.w3.org/1999/xlink" height="17.25px" width="16.0px" xmlns="http://www.w3.org/2000/svg">
  <g transform="matrix(1.0, 0.0, 0.0, 1.0, 49.05, 8.55)">
    <path d="M-37.65 -5.3 Q-38.95 -1.3 -42.85 -0.15 -49.55 0.8 -48.4 -4.25 -47.8 -5.7 -46.65 -5.45 -46.85 -3.8 -45.0 -3.45 -41.65 -2.75 -40.4 -6.05 -39.8 -8.05 -38.6 -8.05 -37.2 -7.9 -37.65 -5.3 M-34.7 -0.65 Q-33.25 0.4 -33.65 3.8 -34.85 7.3 -38.05 8.05 -41.35 8.85 -41.8 5.1 -41.55 2.8 -40.65 3.2 -39.25 6.35 -37.0 3.4 -36.1 2.35 -35.9 0.7 L-35.9 -1.15 -34.7 -0.65" fill="none" stroke="#000000" stroke-linecap="round" stroke-linejoin="round" stroke-width="1.0"/>
  </g>
</svg>
