<?xml version="1.0" encoding="UTF-8" standalone="no"?>
<svg xmlns:xlink="http://www.w3.org/1999/xlink" height="16.1px" width="11.6px" xmlns="http://www.w3.org/2000/svg">
  <g transform="matrix(1.0, 0.0, 0.0, 1.0, 23.1, 56.5)">
    <path d="M-18.1 -55.2 Q-17.3 -54.45 -17.3 -53.35 -17.3 -52.25 -18.1 -51.5 -18.85 -50.7 -19.95 -50.7 -21.05 -50.7 -21.8 -51.5 -22.6 -52.25 -22.6 -53.35 -22.6 -54.45 -21.8 -55.2 -21.05 -56.0 -19.95 -56.0 -18.85 -56.0 -18.1 -55.2 M-12.8 -41.7 Q-13.55 -40.9 -14.65 -40.9 -15.75 -40.9 -16.55 -41.7 -17.3 -42.45 -17.3 -43.55 -17.3 -44.65 -16.55 -45.4 -15.75 -46.2 -14.65 -46.2 -13.55 -46.2 -12.8 -45.4 -12.0 -44.65 -12.0 -43.55 -12.0 -42.45 -12.8 -41.7" fill="none" stroke="#000000" stroke-linecap="round" stroke-linejoin="round" stroke-width="1.0"/>
  </g>
</svg>
