<?xml version="1.0" encoding="UTF-8" standalone="no"?>
<svg xmlns:xlink="http://www.w3.org/1999/xlink" height="26.9px" width="41.1px" xmlns="http://www.w3.org/2000/svg">
  <g transform="matrix(1.0, 0.0, 0.0, 1.0, -10.15, 7.7)">
    <path d="M33.25 -6.35 Q26.2 -7.45 21.85 -6.45 13.35 -4.55 11.7 0.6 8.45 18.55 18.8 18.45 18.35 14.5 19.85 9.15 21.35 3.75 24.6 3.4 L32.65 1.9 Q36.85 3.05 39.8 3.2 43.3 3.8 44.3 10.05 45.3 16.25 44.7 17.55 47.8 17.55 49.5 13.8 51.35 9.7 49.85 3.1 48.35 -3.55 44.1 -5.6 39.45 -7.5 33.25 -6.35 Z" fill="none" stroke="#000000" stroke-linecap="round" stroke-linejoin="round" stroke-width="1.5"/>
  </g>
</svg>
