<?xml version="1.0" encoding="UTF-8" standalone="no"?>
<svg xmlns:xlink="http://www.w3.org/1999/xlink" height="27.3px" width="46.75px" xmlns="http://www.w3.org/2000/svg">
  <g transform="matrix(1.0, 0.0, 0.0, 1.0, -7.2, 6.25)">
    <path d="M35.05 -5.25 Q34.05 -2.65 35.4 2.05 37.95 3.75 43.1 4.6 L52.95 6.4 Q53.8 2.55 52.0 1.35 L39.25 -4.4 Q35.65 -6.05 35.05 -5.25 M23.8 -4.3 L10.55 -0.2 Q6.25 2.45 9.1 6.9 13.4 5.55 19.7 4.65 26.0 3.7 30.15 2.15 31.7 -1.8 30.7 -5.25 28.15 -5.95 23.8 -4.3 M29.7 9.2 Q28.6 13.4 26.45 17.35 L25.8 18.5 26.4 19.1 Q27.15 19.7 29.0 20.3 29.5 20.3 30.55 18.95 31.6 19.35 33.0 20.3 L34.55 18.9 Q35.65 19.0 36.0 20.0 37.45 19.25 37.75 18.35 37.9 16.35 36.95 13.95 35.95 11.5 35.65 9.2 32.0 9.8 29.7 9.2" fill="none" stroke="#000000" stroke-linecap="round" stroke-linejoin="round" stroke-width="1.5"/>
  </g>
</svg>
