<?xml version="1.0" encoding="UTF-8" standalone="no"?>
<svg xmlns:xlink="http://www.w3.org/1999/xlink" height="21.2px" width="48.25px" xmlns="http://www.w3.org/2000/svg">
  <g transform="matrix(1.0, 0.0, 0.0, 1.0, -29.9, 18.1)">
    <path d="M45.95 -14.7 Q48.6 -13.9 51.5 -12.65 L51.85 -12.45 51.95 -12.35 52.4 -12.05 52.5 -11.9 52.6 -11.8 52.7 -11.75 54.55 -10.35 76.85 -0.8 Q77.85 0.45 77.0 1.4 L75.25 2.35 Q70.05 2.1 63.35 0.55 55.65 0.4 49.5 -1.05 L34.4 -1.75 Q29.6 -3.8 30.95 -11.9 31.4 -13.5 32.4 -14.65 33.95 -16.7 36.9 -17.35 L44.85 -15.1 45.95 -14.7" fill="none" stroke="#000000" stroke-linecap="round" stroke-linejoin="round" stroke-width="1.5"/>
    <path d="M50.75 -12.0 Q46.8 -11.6 46.6 -7.6 M40.65 -1.95 Q38.55 -3.75 39.35 -6.65 M63.35 0.55 Q62.3 -1.7 63.35 -3.55" fill="none" stroke="#000000" stroke-linecap="round" stroke-linejoin="round" stroke-width="1.0"/>
  </g>
</svg>
