<?xml version="1.0" encoding="UTF-8" standalone="no"?>
<svg xmlns:xlink="http://www.w3.org/1999/xlink" height="51.65px" width="109.85px" xmlns="http://www.w3.org/2000/svg">
  <g transform="matrix(1.0, 0.0, 0.0, 1.0, 34.1, 18.2)">
    <path d="M68.85 -1.4 Q65.25 10.8 38.15 14.7 L32.35 11.4 25.55 14.95 Q-7.6 11.35 -20.05 1.4 -24.1 -1.3 -30.05 -17.45 L-33.35 -15.55 -32.3 -9.5 Q-31.4 -2.6 -32.8 0.2 -31.8 2.9 -26.75 7.35 -21.6 11.7 -6.5 18.2 L-9.0 14.05 Q0.85 21.6 15.55 24.05 L11.8 19.6 Q19.65 26.05 34.5 32.7 L41.0 26.25 Q45.35 22.25 49.0 18.15 L47.6 22.85 Q56.35 18.4 62.55 11.8 L61.95 14.3 62.85 13.7 Q69.85 8.45 73.8 2.7 75.75 0.5 74.5 -4.15 L71.6 -13.15 Q71.1 -6.25 68.85 -1.4 Z" fill="none" stroke="#000000" stroke-linecap="round" stroke-linejoin="round" stroke-width="1.5"/>
  </g>
</svg>
