<?xml version="1.0" encoding="UTF-8" standalone="no"?>
<svg xmlns:xlink="http://www.w3.org/1999/xlink" height="49.35px" width="114.1px" xmlns="http://www.w3.org/2000/svg">
  <g transform="matrix(1.0, 0.0, 0.0, 1.0, 36.85, 18.6)">
    <path d="M-36.1 -15.85 L-34.85 -10.25 Q-34.0 -3.6 -35.1 0.45 -34.35 1.7 -28.85 5.9 -23.45 10.1 -7.25 16.25 L-10.0 12.35 Q0.55 19.4 16.25 21.8 L12.25 17.55 Q20.65 23.75 36.45 30.0 38.8 27.7 43.45 23.95 48.1 20.15 52.0 16.2 L50.45 20.65 Q59.75 16.35 66.55 10.1 L65.75 12.55 66.8 12.0 Q74.25 7.0 75.8 3.2 77.15 -2.85 75.95 -5.8 L72.35 -13.5 71.65 -3.25 Q70.95 4.2 59.85 7.95 54.6 7.95 50.95 2.9 47.3 -2.2 38.15 -2.05 L33.95 -1.25 Q28.5 -3.5 20.95 -1.45 13.35 0.55 9.2 5.4 5.05 10.2 -4.05 8.0 -13.15 5.8 -18.45 1.9 -23.85 -2.05 -32.45 -17.85 L-36.1 -15.85 M16.65 8.05 Q24.8 7.05 32.95 2.8 40.15 6.45 47.75 7.25 48.1 10.8 40.65 13.5 L39.55 13.7 Q36.8 12.15 32.55 12.1 27.55 12.75 24.9 14.3 L20.4 13.05 Q16.35 11.8 16.65 8.05" fill="none" stroke="#000000" stroke-linecap="round" stroke-linejoin="round" stroke-width="1.5"/>
  </g>
</svg>
