<?xml version="1.0" encoding="UTF-8" standalone="no"?>
<svg xmlns:xlink="http://www.w3.org/1999/xlink" height="15.3px" width="61.05px" xmlns="http://www.w3.org/2000/svg">
  <g transform="matrix(1.0, 0.0, 0.0, 1.0, -0.6, 10.75)">
    <path d="M60.9 -8.85 L60.3 -6.8 Q57.6 -0.65 50.55 2.5 L45.2 3.4 Q40.75 3.4 37.0 1.2 35.3 -0.15 34.8 -0.2 L33.95 -0.2 Q33.55 -0.15 31.65 1.25 27.4 3.65 22.2 3.8 L15.75 3.05 Q6.4 0.0 2.45 -6.55 1.55 -8.15 1.45 -8.85 1.3 -9.0 1.45 -9.0 1.3 -9.3 1.6 -9.3 2.0 -9.8 2.8 -9.1 5.55 -5.45 9.1 -5.35 13.05 -5.15 16.8 -7.2 21.0 -9.3 25.95 -9.9 L27.05 -10.0 Q29.85 -10.05 32.0 -8.5 33.1 -7.4 34.0 -7.2 L34.1 -7.1 Q34.75 -7.2 35.9 -8.5 37.55 -10.0 40.0 -10.0 L41.0 -9.9 Q45.15 -9.3 48.8 -7.3 52.05 -5.35 55.25 -5.55 57.9 -5.7 59.8 -9.15 60.35 -9.85 60.7 -9.3 L60.85 -9.1 60.9 -8.85 Z" fill="none" stroke="#000000" stroke-linecap="round" stroke-linejoin="round" stroke-width="1.5"/>
  </g>
</svg>
