<?xml version="1.0" encoding="UTF-8" standalone="no"?>
<svg xmlns:xlink="http://www.w3.org/1999/xlink" height="21.85px" width="65.1px" xmlns="http://www.w3.org/2000/svg">
  <g transform="matrix(1.0, 0.0, 0.0, 1.0, 4.15, -2.75)">
    <path d="M27.15 8.95 L27.2 9.0 27.3 11.35 Q28.4 12.05 28.95 13.1 L28.8 13.15 Q28.05 13.0 27.3 12.35 L27.2 14.9 28.1 16.45 28.05 16.45 27.05 16.0 26.45 19.1 25.8 16.1 Q24.55 16.75 24.7 16.1 L24.8 16.0 Q25.4 15.45 25.6 14.25 L25.6 14.1 25.85 12.55 24.9 13.3 Q24.1 13.75 24.4 13.35 L25.05 12.55 25.6 11.5 26.1 9.15 27.15 8.95 26.1 9.15 26.1 9.1 27.15 8.95 M15.15 14.6 L14.9 15.1 13.75 16.35 Q13.15 16.9 11.95 17.05 12.2 18.1 11.1 19.7 L11.05 19.8 Q9.4 21.9 7.75 21.1 6.25 20.2 5.05 20.15 4.35 20.25 3.25 21.05 1.9 22.05 0.85 21.7 -0.8 21.2 -0.8 20.45 -0.95 19.3 -1.6 18.8 -2.7 18.4 -3.25 17.7 -4.25 16.25 -3.75 13.55 -3.9 11.1 -2.35 8.25 -1.4 6.85 1.7 6.5 -0.3 7.05 -0.8 7.75 L0.3 8.25 Q4.4 7.0 6.2 11.05 4.9 12.1 3.4 11.75 2.1 11.3 0.85 9.25 0.25 8.25 -1.5 8.45 -2.2 8.5 -3.0 11.0 -3.25 14.8 -1.2 16.8 -0.05 18.15 1.5 17.4 3.35 16.55 3.55 15.0 3.4 14.65 0.85 16.0 -0.8 16.6 -1.4 14.15 -1.65 10.95 -0.2 10.35 0.65 10.25 2.05 11.85 4.65 12.5 4.1 14.0 L4.05 14.2 6.55 14.3 Q7.1 13.25 6.9 12.0 7.4 13.1 7.05 15.05 7.75 14.95 7.85 14.2 8.9 11.2 7.45 9.55 5.65 9.05 5.1 7.7 4.25 5.5 5.6 5.0 7.1 4.55 7.95 5.75 8.85 7.85 7.75 9.2 8.85 10.6 8.55 13.0 9.65 12.7 10.15 12.2 11.9 9.9 8.95 8.45 12.3 9.35 10.4 12.25 L13.0 10.9 Q12.85 8.45 10.15 6.95 L10.15 6.85 Q11.5 7.05 12.5 7.75 13.9 9.15 14.15 10.0 13.85 11.1 13.1 12.0 L13.1 11.8 Q12.35 12.45 9.85 12.7 10.6 14.3 10.55 15.75 12.75 15.45 13.05 13.15 14.35 12.65 14.55 11.4 15.1 13.05 15.15 14.6 M2.0 20.35 Q4.1 20.35 5.25 18.95 6.6 20.4 7.8 20.15 9.5 19.45 9.0 17.55 9.05 15.35 8.45 13.3 8.4 14.45 7.65 15.35 6.7 15.7 6.9 17.45 5.4 19.0 0.85 19.1 1.25 20.05 2.0 20.35 M0.3 12.2 Q-1.8 13.45 -0.45 13.25 0.85 13.3 1.55 14.0 3.35 15.45 2.8 13.45 2.0 11.55 0.3 12.2 M6.7 15.05 L3.85 14.75 3.2 16.75 Q3.0 17.5 4.95 17.55 L5.05 17.6 Q6.75 17.75 6.7 15.05" fill="#000000" fill-opacity="0.32941177" fill-rule="evenodd" stroke="none"/>
    <path d="M27.15 8.95 Q39.7 8.45 47.85 10.8 53.45 11.95 57.2 14.95 L59.65 17.35 59.85 17.25 Q60.7 16.75 60.7 16.15 L60.65 15.9 Q56.9 11.1 48.15 8.95 39.4 6.8 32.85 7.1 L23.1 7.6 Q19.9 7.85 17.45 8.6 15.7 9.15 14.9 9.6 L14.95 9.75 15.0 9.8 15.1 10.15 M27.2 9.0 L27.15 8.95 26.1 9.15 25.65 9.2 Q20.5 9.7 15.45 11.0 L15.5 11.2 Q16.1 13.7 15.25 15.75 L15.0 16.3 15.15 14.6 14.9 15.1 13.75 16.35 Q13.15 16.9 11.95 17.05 12.2 18.1 11.1 19.7 L11.05 19.8 Q9.4 21.9 7.75 21.1 6.25 20.2 5.05 20.15 4.35 20.25 3.25 21.05 1.9 22.05 0.85 21.7 -0.8 21.2 -0.8 20.45 -0.95 19.3 -1.6 18.8 -2.7 18.4 -3.25 17.7 -4.25 16.25 -3.75 13.55 -3.9 11.1 -2.35 8.25 -1.4 6.85 1.7 6.5 L1.8 6.45 2.15 6.4 2.2 6.35 Q3.8 5.85 3.9 5.25 4.75 2.75 7.05 3.05 10.35 4.2 10.15 6.85 11.5 7.05 12.5 7.75 L10.55 5.95 12.4 6.75 12.55 6.85 Q14.0 7.7 14.7 9.1 L14.7 9.15 14.75 9.2 14.75 9.3 14.8 9.35 14.9 9.6 M27.2 9.0 L28.95 11.1 30.95 14.0 Q31.7 15.35 29.5 18.8 27.15 22.05 26.5 24.35 25.9 24.05 25.25 22.95 24.55 21.9 23.9 19.85 23.3 17.75 23.25 16.2 22.85 12.25 25.65 9.2 M1.7 6.5 L2.15 6.4 M13.1 12.0 Q13.85 11.1 14.15 10.0 13.9 9.15 12.5 7.75 M15.45 11.0 L15.35 10.7 M13.05 13.15 L11.45 13.5 13.1 12.0 M15.15 14.6 Q15.1 13.05 14.55 11.4 14.35 12.65 13.05 13.15" fill="none" stroke="#000000" stroke-linecap="round" stroke-linejoin="round" stroke-width="0.5"/>
  </g>
</svg>
