<?xml version="1.0" encoding="UTF-8" standalone="no"?>
<svg xmlns:xlink="http://www.w3.org/1999/xlink" height="28.8px" width="93.0px" xmlns="http://www.w3.org/2000/svg">
  <g transform="matrix(1.0, 0.0, 0.0, 1.0, 20.0, 38.05)">
    <path d="M39.05 -11.95 Q39.3 -10.55 36.6 -9.5 L34.3 -9.45 34.0 -9.6 Q31.45 -10.85 31.65 -11.65 32.35 -12.55 35.4 -12.55 38.3 -12.75 39.05 -11.95 M-9.95 -33.4 Q-1.45 -38.0 13.05 -36.9 35.55 -38.85 55.3 -37.45 75.0 -36.0 72.65 -24.0 74.25 -15.5 68.15 -13.75 62.05 -12.05 50.55 -14.0 39.05 -15.95 33.4 -15.4 L27.6 -14.8 20.55 -13.35 -13.1 -14.45 Q-28.3 -22.95 -9.95 -33.4" fill="#000000" fill-rule="evenodd" stroke="none"/>
  </g>
</svg>
