<?xml version="1.0" encoding="UTF-8" standalone="no"?>
<svg xmlns:xlink="http://www.w3.org/1999/xlink" height="28.95px" width="93.05px" xmlns="http://www.w3.org/2000/svg">
  <g transform="matrix(1.0, 0.0, 0.0, 1.0, 19.85, 34.15)">
    <path d="M39.05 -7.9 Q39.3 -6.5 36.6 -5.45 L34.3 -5.4 34.0 -5.55 Q31.45 -6.8 31.65 -7.6 32.35 -8.5 35.4 -8.5 38.3 -8.7 39.05 -7.9 M-9.35 -31.65 Q-0.2 -36.0 15.5 -32.85 46.7 -30.85 66.95 -32.35 75.0 -31.8 72.65 -21.5 74.3 -14.2 69.1 -11.85 63.85 -9.5 51.1 -12.75 40.2 -15.35 27.8 -13.75 L27.6 -13.65 20.55 -12.45 Q0.9 -8.95 -13.1 -13.4 -28.3 -20.65 -9.35 -31.65" fill="#000000" fill-rule="evenodd" stroke="none"/>
  </g>
</svg>
