<?xml version="1.0" encoding="UTF-8" standalone="no"?>
<svg xmlns:xlink="http://www.w3.org/1999/xlink" height="14.55px" width="92.55px" xmlns="http://www.w3.org/2000/svg">
  <g transform="matrix(1.0, 0.0, 0.0, 1.0, 21.7, 6.75)">
    <path d="M44.85 -3.95 L44.9 -4.3 45.75 -2.75 46.6 0.3 46.5 0.25 Q45.85 0.0 45.2 -1.55 44.65 -3.0 44.85 -3.95 M50.4 5.35 L49.3 1.0 47.85 -0.4 Q44.8 -4.4 46.0 -6.5 46.6 -5.3 47.35 -4.35 50.85 0.0 58.0 -1.25 65.8 -2.05 70.3 -6.05 L70.85 -6.3 Q70.55 -4.8 69.25 -3.35 L67.55 -1.9 66.3 -1.1 66.75 -0.6 67.3 -0.85 66.9 -0.45 Q67.85 0.7 68.1 1.9 L68.35 1.8 68.1 1.95 68.15 2.65 Q68.15 3.75 67.6 4.9 L67.3 3.45 66.95 2.6 Q61.55 5.35 57.3 5.0 L57.6 6.9 Q56.85 6.0 56.4 4.9 53.25 4.35 50.75 1.95 L50.55 5.45 50.5 5.7 50.4 5.35 M44.25 -6.35 L44.3 -6.3 44.45 -6.15 44.45 -6.05 44.3 -5.55 Q44.05 -5.1 43.75 -5.2 43.6 -5.4 43.7 -5.75 L44.25 -6.35 M57.5 -2.9 Q55.5 -0.95 51.25 -2.35 48.1 -3.65 46.8 -6.75 50.2 -1.9 57.5 -2.9 M53.0 1.55 Q54.35 2.2 55.8 2.6 L55.75 2.25 Q54.1 2.0 53.0 1.55 M59.05 2.55 L57.35 2.45 57.3 3.0 Q61.8 3.85 66.8 2.35 L65.7 0.4 Q62.95 2.1 59.05 2.55 M61.0 1.05 L65.3 -0.1 65.05 -0.45 61.0 1.05" fill="#000000" fill-rule="evenodd" stroke="none"/>
    <path d="M14.2 -6.7 Q16.65 -5.85 15.3 -3.15 10.3 7.3 -1.4 7.7 -10.85 8.05 -19.2 4.25 -20.3 3.75 -21.0 2.65 -22.85 -0.4 -19.85 -2.85 -18.05 -4.35 -16.05 -2.7 L-14.0 -1.35 Q-9.1 0.95 -3.75 0.85 L6.0 0.15 Q9.8 -0.25 11.45 -3.3 12.35 -4.95 13.55 -6.35 L14.2 -6.7 M44.85 -3.95 Q44.4 -6.0 45.85 -6.7 L46.3 -6.35 47.35 -4.35 Q46.6 -5.3 46.0 -6.5 44.8 -4.4 47.85 -0.4 L49.3 1.0 50.4 5.35 Q48.1 3.5 46.5 0.25 L46.6 0.3 45.75 -2.75 44.9 -4.3 44.85 -3.95 M69.25 -3.35 L69.95 -2.2 Q70.3 -1.2 69.35 0.35 68.3 1.9 68.15 2.65 L68.1 1.95 68.35 1.8 68.1 1.9 Q67.85 0.7 66.9 -0.45 L67.3 -0.85 66.75 -0.6 66.3 -1.1 67.55 -1.9 69.25 -3.35 M67.3 3.45 L64.8 5.8 Q62.65 8.0 57.95 7.8 53.25 7.55 50.55 5.45 L50.75 1.95 Q53.25 4.35 56.4 4.9 56.85 6.0 57.6 6.9 L57.3 5.0 Q61.55 5.35 66.95 2.6 L67.3 3.45 M61.0 1.05 L65.05 -0.45 65.3 -0.1 61.0 1.05 M59.05 2.55 Q62.95 2.1 65.7 0.4 L66.8 2.35 Q61.8 3.85 57.3 3.0 L57.35 2.45 59.05 2.55 M53.0 1.55 Q54.1 2.0 55.75 2.25 L55.8 2.6 Q54.35 2.2 53.0 1.55" fill="#483232" fill-opacity="0.32941177" fill-rule="evenodd" stroke="none"/>
    <path d="M57.5 -2.9 Q50.2 -1.9 46.8 -6.75 48.1 -3.65 51.25 -2.35 55.5 -0.95 57.5 -2.9 Z" fill="none" stroke="#000000" stroke-linecap="round" stroke-linejoin="round" stroke-width="0.05"/>
    <path d="M16.45 -6.35 L17.2 -5.75 Q17.4 -5.4 17.15 -5.2 16.7 -5.1 16.35 -5.55 16.2 -5.75 16.15 -6.05 L16.2 -6.15 16.35 -6.3 16.45 -6.35 M-16.25 -0.85 L-15.45 -0.6 -14.85 -1.1 -16.6 -1.9 Q-20.65 -4.0 -21.3 -6.3 L-20.5 -6.05 Q-14.1 -2.05 -3.05 -1.25 9.25 0.25 13.95 -6.5 15.65 -4.4 11.35 -0.4 L9.3 1.0 7.6 5.7 7.25 1.95 Q3.7 4.35 -0.8 4.9 -1.45 6.0 -2.45 6.9 L-2.05 5.0 Q-8.05 5.35 -15.75 2.6 -16.45 3.7 -16.65 4.9 -17.75 3.4 -17.35 1.95 L-17.75 1.8 -17.35 1.9 Q-17.05 0.7 -15.65 -0.45 L-16.25 -0.85 M15.5 -4.3 Q16.05 -3.25 15.1 -1.55 14.1 0.15 13.15 0.3 L14.35 -2.75 15.5 -4.3 M-2.35 -2.9 Q8.0 -1.9 12.8 -6.75 11.0 -3.65 6.55 -2.35 0.5 -0.95 -2.35 -2.9 M4.05 1.55 L0.15 2.25 0.1 2.6 4.05 1.55 M-7.3 1.05 L-13.05 -0.45 -13.4 -0.1 -7.3 1.05 M-4.55 2.55 Q-10.1 2.1 -13.95 0.4 L-15.55 2.35 Q-8.45 3.85 -2.05 3.0 L-2.1 2.45 -4.55 2.55" fill="#000000" fill-rule="evenodd" stroke="none"/>
    <path d="M-2.35 -2.9 Q8.0 -1.9 12.8 -6.75 11.0 -3.65 6.55 -2.35 0.5 -0.95 -2.35 -2.9 Z" fill="none" stroke="#000000" stroke-linecap="round" stroke-linejoin="round" stroke-width="0.05"/>
  </g>
</svg>
