<?xml version="1.0" encoding="UTF-8" standalone="no"?>
<svg xmlns:xlink="http://www.w3.org/1999/xlink" height="158.5px" width="92.0px" xmlns="http://www.w3.org/2000/svg">
  <g transform="matrix(1.0, 0.0, 0.0, 1.0, 46.0, 79.25)">
    <path d="M43.55 -61.5 Q42.05 -70.45 26.05 -76.15 10.05 -81.9 -12.55 -72.05 -41.1 -55.25 -34.15 -16.9 -29.6 -0.35 -17.35 16.15 -1.95 40.85 -14.95 53.1 -21.45 59.25 -28.3 53.65 -32.95 47.7 -27.45 41.75 -23.6 39.95 -19.05 43.05 -19.95 33.95 -31.8 36.0 -49.55 43.5 -43.45 61.1 -37.35 78.65 -12.95 78.25 13.7 75.55 23.65 47.9 34.95 22.35 34.8 -11.3 46.45 -31.0 44.8 -37.8 M10.35 -49.8 Q-1.75 -53.9 -6.35 -49.55" fill="none" stroke="#000000" stroke-linecap="round" stroke-linejoin="round" stroke-width="2.0"/>
  </g>
</svg>
