<?xml version="1.0" encoding="UTF-8" standalone="no"?>
<svg xmlns:xlink="http://www.w3.org/1999/xlink" height="60.45px" width="85.6px" xmlns="http://www.w3.org/2000/svg">
  <g transform="matrix(1.0, 0.0, 0.0, 1.0, 41.5, 76.05)">
    <path d="M0.8 -53.2 Q1.3 -54.0 2.25 -54.65 4.3 -56.1 7.2 -56.1 L8.75 -55.95 Q12.7 -62.8 17.9 -67.35 24.3 -72.95 32.55 -75.05 37.2 -70.0 37.0 -59.85 47.3 -50.95 40.2 -43.4 27.8 -40.85 19.15 -43.65 14.4 -45.2 10.75 -48.4 9.1 -46.9 6.85 -46.65 L5.4 -46.65 Q5.85 -41.25 -1.85 -29.15 -9.55 -17.05 -20.55 -16.6 -30.6 -22.15 -29.8 -33.85 -43.2 -41.5 -39.85 -49.05 -31.65 -54.7 -19.3 -55.5 L-15.3 -55.65 Q-5.75 -55.8 0.8 -53.2 0.2 -52.3 0.2 -51.25 0.2 -49.2 2.25 -47.8 3.7 -46.8 5.4 -46.65 M8.75 -55.95 Q10.3 -55.65 10.9 -54.65 L12.25 -51.8 Q12.75 -50.45 11.05 -48.65 L10.75 -48.4" fill="none" stroke="#000000" stroke-linecap="round" stroke-linejoin="round" stroke-width="2.0"/>
  </g>
</svg>
