<?xml version="1.0" encoding="UTF-8" standalone="no"?>
<svg xmlns:xlink="http://www.w3.org/1999/xlink" height="29.25px" width="40.7px" xmlns="http://www.w3.org/2000/svg">
  <g transform="matrix(1.0, 0.0, 0.0, 1.0, 22.8, 19.1)">
    <path d="M15.0 -13.1 Q16.5 -12.0 17.05 -8.6 -3.1 -17.9 -13.5 2.2 -14.2 -0.15 -14.5 -2.75 -11.55 -8.8 -6.25 -11.7 -0.95 -14.6 1.55 -14.9 10.0 -15.75 15.0 -13.1" fill="#000000" fill-opacity="0.1882353" fill-rule="evenodd" stroke="none"/>
    <path d="M-13.5 2.2 Q-12.25 6.6 -9.5 10.15 -19.2 6.05 -22.8 -3.15 -14.7 -13.85 -5.2 -17.55 4.25 -21.35 15.45 -15.8 17.85 -13.2 17.9 -11.6 L15.0 -13.1 Q10.0 -15.75 1.55 -14.9 -0.95 -14.6 -6.25 -11.7 -11.55 -8.8 -14.5 -2.75 -14.2 -0.15 -13.5 2.2" fill="#000000" fill-rule="evenodd" stroke="none"/>
  </g>
</svg>
