<?xml version="1.0" encoding="UTF-8" standalone="no"?>
<svg xmlns:xlink="http://www.w3.org/1999/xlink" height="22.95px" width="43.6px" xmlns="http://www.w3.org/2000/svg">
  <g transform="matrix(1.0, 0.0, 0.0, 1.0, 21.85, 13.75)">
    <path d="M17.55 -4.9 L17.1 -5.2 15.8 -5.95 13.65 -6.95 Q9.8 -8.4 4.95 -8.55 L3.25 -8.6 Q-6.35 -7.95 -13.55 -3.55 -13.55 -1.8 -13.2 -0.1 -12.25 4.9 -8.4 9.2 -20.1 2.6 -21.85 -4.15 -13.8 -13.2 3.2 -13.75 20.35 -11.9 21.75 -0.5 19.95 -3.1 17.55 -4.9" fill="#000000" fill-rule="evenodd" stroke="none"/>
    <path d="M-13.2 -0.1 Q-13.55 -1.8 -13.55 -3.55 -6.35 -7.95 3.25 -8.6 L4.95 -8.55 Q9.8 -8.4 13.65 -6.95 L15.8 -5.95 17.1 -5.2 17.55 -4.9 Q18.45 -2.95 18.65 -1.05 12.75 -3.55 5.25 -3.45 -7.15 -2.95 -13.2 -0.1" fill="#000000" fill-opacity="0.29803923" fill-rule="evenodd" stroke="none"/>
  </g>
</svg>
