<?xml version="1.0" encoding="UTF-8" standalone="no"?>
<svg xmlns:xlink="http://www.w3.org/1999/xlink" height="26.95px" width="51.85px" xmlns="http://www.w3.org/2000/svg">
  <g transform="matrix(1.0, 0.0, 0.0, 1.0, 29.0, 13.55)">
    <path d="M-18.6 0.5 L-17.7 3.2 -16.85 4.85 -17.55 4.35 Q-26.3 -0.95 -29.0 -6.1 -17.15 -14.35 -0.75 -13.45 14.9 -12.6 22.85 -3.15 L16.9 -5.75 16.75 -5.8 16.35 -5.95 Q9.55 -8.4 2.7 -8.5 -12.55 -8.85 -18.85 -4.4 -19.15 -1.9 -18.6 0.5 M12.85 10.8 Q2.35 16.25 -7.75 10.2 L-7.4 10.25 -5.8 10.55 10.95 11.05 11.35 11.0 12.85 10.8" fill="#000000" fill-rule="evenodd" stroke="none"/>
    <path d="M16.9 -5.75 Q17.8 -3.6 17.6 -1.95 -3.1 -5.7 -18.6 0.5 -19.15 -1.9 -18.85 -4.4 -12.55 -8.85 2.7 -8.5 9.55 -8.4 16.35 -5.95 L16.75 -5.8 16.9 -5.75" fill="#000000" fill-opacity="0.24705882" fill-rule="evenodd" stroke="none"/>
  </g>
</svg>
