<?xml version="1.0" encoding="UTF-8" standalone="no"?>
<svg xmlns:xlink="http://www.w3.org/1999/xlink" height="34.9px" width="58.35px" xmlns="http://www.w3.org/2000/svg">
  <g transform="matrix(1.0, 0.0, 0.0, 1.0, 29.25, 18.15)">
    <path d="M-9.7 -1.4 Q-7.75 4.45 -2.45 11.3 9.55 11.2 16.5 12.85 L17.15 13.0 16.45 12.85 20.3 14.0 Q20.8 14.25 20.55 14.45 L21.85 16.75 18.5 15.05 18.4 15.05 18.7 16.15 15.35 14.85 Q10.75 13.2 -2.1 13.65 L-4.8 14.25 -4.75 14.05 -10.6 16.75 -6.55 13.3 -12.0 12.15 -3.3 10.85 Q-12.95 3.95 -29.25 -17.15 -24.15 -13.0 -16.7 -10.85 -22.15 -13.75 -24.65 -18.05 -18.55 -13.0 -10.95 -11.5 -14.9 -14.7 -16.05 -18.15 -11.65 -14.4 -4.2 -11.9 L-1.25 -11.7 Q-5.35 -14.0 -6.5 -16.3 -2.75 -13.65 4.55 -11.2 12.45 -10.2 20.0 -7.65 26.1 -5.15 29.1 -3.45 L22.7 -3.95 Q26.4 -0.3 26.95 3.3 24.7 0.6 21.25 -1.95 L20.4 -2.55 19.75 -3.05 19.3 -3.4 18.6 -3.9 Q4.6 -9.8 -10.85 -6.45 -10.6 -4.05 -9.7 -1.4" fill="#000000" fill-rule="evenodd" stroke="none"/>
    <path d="M20.4 -2.55 Q21.1 0.5 20.85 2.35 17.7 -1.15 8.6 -2.3 -6.05 -3.25 -9.7 -1.4 -10.6 -4.05 -10.85 -6.45 4.6 -9.8 18.6 -3.9 L19.3 -3.4 19.75 -3.05 20.4 -2.55" fill="#000000" fill-opacity="0.21960784" fill-rule="evenodd" stroke="none"/>
  </g>
</svg>
