<?xml version="1.0" encoding="UTF-8" standalone="no"?>
<svg xmlns:xlink="http://www.w3.org/1999/xlink" height="32.2px" width="44.8px" xmlns="http://www.w3.org/2000/svg">
  <g transform="matrix(1.0, 0.0, 0.0, 1.0, 22.4, 16.2)">
    <path d="M18.5 -8.0 L18.45 -8.0 18.35 -8.1 18.1 -8.25 17.45 -8.55 17.1 -8.65 16.1 -9.0 Q11.5 -10.4 2.9 -10.55 -9.6 -10.5 -11.45 -8.7 -12.15 -5.7 -12.15 -2.95 L-12.15 -2.0 Q-12.0 2.4 -10.0 6.25 L-9.7 6.75 -8.5 8.65 Q-21.6 -0.4 -22.4 -13.75 -12.2 -16.95 -0.15 -16.0 11.8 -15.1 20.25 -11.2 22.85 -7.6 22.3 -4.65 21.55 -6.15 20.05 -7.15 L20.0 -7.2 18.5 -8.0 M6.5 16.0 Q2.1 16.25 -1.55 13.65 L-0.1 13.7 0.05 13.7 11.0 13.95 12.9 13.8 13.25 13.75 Q10.8 15.6 6.5 16.0" fill="#000000" fill-rule="evenodd" stroke="none"/>
    <path d="M-12.15 -2.0 L-12.15 -2.95 Q-12.15 -5.7 -11.45 -8.7 -9.6 -10.5 2.9 -10.55 11.5 -10.4 16.1 -9.0 L17.1 -8.65 17.45 -8.55 18.1 -8.25 18.35 -8.1 18.45 -8.0 18.5 -8.0 Q19.75 -7.4 19.4 -3.1 2.4 -7.75 -12.15 -2.0" fill="#000000" fill-opacity="0.1882353" fill-rule="evenodd" stroke="none"/>
  </g>
</svg>
