<?xml version="1.0" encoding="UTF-8" standalone="no"?>
<svg xmlns:xlink="http://www.w3.org/1999/xlink" height="25.9px" width="48.85px" xmlns="http://www.w3.org/2000/svg">
  <g transform="matrix(1.0, 0.0, 0.0, 1.0, 24.45, 18.8)">
    <path d="M16.15 -8.9 Q16.9 -7.75 16.75 -6.25 0.65 -11.3 -13.35 -8.6 L-14.55 -13.2 Q-8.4 -14.65 -2.0 -14.1 L-0.7 -13.95 4.1 -13.2 Q9.05 -12.1 13.2 -10.2 L15.75 -9.1 16.15 -8.9" fill="#000000" fill-opacity="0.25882354" fill-rule="evenodd" stroke="none"/>
    <path d="M-13.35 -8.6 L-12.65 -6.5 Q-11.8 -4.2 -10.55 -2.0 L-10.1 -1.25 -8.55 1.05 Q-17.25 -4.5 -21.0 -15.45 L-24.45 -18.0 Q10.75 -22.0 24.4 -5.85 21.05 -7.75 19.85 -8.6 L21.7 -5.7 Q18.6 -7.75 16.55 -8.7 L16.4 -8.75 16.15 -8.9 15.75 -9.1 13.2 -10.2 Q9.05 -12.1 4.1 -13.2 L-0.7 -13.95 -2.0 -14.1 Q-8.4 -14.65 -14.55 -13.2 L-13.35 -8.6 M0.05 6.15 Q-3.3 5.25 -6.15 3.45 L-4.35 3.9 Q3.9 5.85 11.65 4.85 L14.4 4.4 Q11.5 6.15 7.2 7.1 L0.05 6.15" fill="#000000" fill-rule="evenodd" stroke="none"/>
  </g>
</svg>
