<?xml version="1.0" encoding="UTF-8" standalone="no"?>
<svg xmlns:xlink="http://www.w3.org/1999/xlink" height="25.05px" width="55.85px" xmlns="http://www.w3.org/2000/svg">
  <g transform="matrix(1.0, 0.0, 0.0, 1.0, 27.85, 11.55)">
    <path d="M21.0 -1.2 Q19.75 -2.0 16.75 -3.45 L15.35 -4.15 Q10.3 -6.3 5.75 -6.8 -0.05 -7.75 -5.4 -6.0 L-6.6 -5.55 Q-11.15 -3.7 -14.25 -1.2 L-18.5 2.25 -17.6 4.8 Q-17.2 6.2 -16.15 7.65 L-14.45 9.65 Q-15.6 9.55 -16.75 8.9 L-18.6 7.8 -19.7 8.15 Q-22.25 8.6 -25.5 6.75 L-22.1 5.85 Q-27.15 3.9 -27.85 2.75 -24.55 1.85 -21.9 -0.2 -24.75 -1.45 -25.85 -2.95 -19.7 -2.6 -16.45 -5.35 -9.7 -11.0 -3.05 -11.45 3.95 -11.95 13.0 -9.45 22.05 -7.0 25.7 -10.4 24.25 -6.7 20.75 -5.35 L28.0 -4.85 Q26.0 -2.75 21.45 -2.8 24.4 -0.85 25.8 2.2 L25.1 1.7 21.0 -1.2 M13.95 10.75 Q16.0 11.3 17.35 12.15 18.35 12.75 19.05 13.5 L14.5 11.8 15.85 13.5 Q13.05 10.95 -11.0 12.4 -10.55 11.6 -7.05 10.6 L-4.6 10.15 -2.3 9.8 -0.75 9.7 12.0 10.35 13.05 10.55 13.95 10.75" fill="#000000" fill-rule="evenodd" stroke="none"/>
    <path d="M-17.6 4.8 L-18.5 2.25 -14.25 -1.2 Q-11.15 -3.7 -6.6 -5.55 L-5.4 -6.0 Q-0.05 -7.75 5.75 -6.8 10.3 -6.3 15.35 -4.15 L16.75 -3.45 Q19.75 -2.0 21.0 -1.2 21.7 0.0 21.55 1.15 -1.15 -6.95 -17.6 4.8" fill="#000000" fill-opacity="0.24705882" fill-rule="evenodd" stroke="none"/>
  </g>
</svg>
