<?xml version="1.0" encoding="UTF-8" standalone="no"?>
<svg xmlns:xlink="http://www.w3.org/1999/xlink" height="29.95px" width="48.7px" xmlns="http://www.w3.org/2000/svg">
  <g transform="matrix(1.0, 0.0, 0.0, 1.0, 24.35, 15.1)">
    <path d="M18.05 -8.15 L18.05 -8.2 Q16.4 -9.35 14.95 -9.85 L12.9 -10.1 12.9 -10.2 Q0.95 -11.8 -8.15 -10.2 L-8.15 -10.05 -10.2 -9.8 -14.15 -8.75 Q-16.75 -5.9 -18.85 -2.5 L-19.7 -1.1 -20.3 -0.25 Q-23.75 5.5 -24.35 4.75 -24.35 0.5 -22.5 -4.7 -20.35 -10.95 -16.8 -14.0 -2.7 -15.9 15.35 -14.55 21.55 -9.95 24.35 -3.25 24.0 -2.05 21.35 -5.1 L18.5 -7.85 18.05 -8.15 M-15.6 12.1 L-14.7 12.25 -9.7 12.8 -6.9 13.05 Q-0.9 13.45 6.8 12.9 L12.05 12.4 14.1 12.35 16.15 12.2 16.55 12.15 17.1 12.1 Q17.9 13.25 8.85 14.3 -0.25 15.3 -8.55 14.4 -16.85 13.4 -15.6 12.1" fill="#000000" fill-rule="evenodd" stroke="none"/>
    <path d="M-18.85 -2.5 Q-16.75 -5.9 -14.15 -8.75 L-10.2 -9.8 -8.15 -10.05 -8.15 -10.2 Q0.95 -11.8 12.9 -10.2 L12.9 -10.1 14.95 -9.85 Q16.4 -9.35 18.05 -8.2 L18.05 -8.15 18.95 -4.5 Q13.85 -6.95 1.15 -7.0 -11.35 -6.7 -18.85 -2.5" fill="#000000" fill-opacity="0.23921569" fill-rule="evenodd" stroke="none"/>
  </g>
</svg>
