<?xml version="1.0" encoding="UTF-8" standalone="no"?>
<svg xmlns:xlink="http://www.w3.org/1999/xlink" height="31.35px" width="46.4px" xmlns="http://www.w3.org/2000/svg">
  <g transform="matrix(1.0, 0.0, 0.0, 1.0, 22.75, 14.9)">
    <path d="M-10.85 4.65 L-9.55 6.8 -8.0 8.8 Q-15.05 4.9 -19.3 -0.4 -19.3 -3.05 -17.65 -7.1 L-22.75 -8.9 Q-16.45 -12.45 -5.7 -14.45 5.95 -16.6 20.0 -7.9 L23.65 -1.65 20.15 -4.15 18.05 -5.3 14.9 -7.1 Q0.6 -13.55 -13.25 -6.1 L-13.2 -2.25 Q-12.65 1.25 -10.85 4.65 M-1.2 13.55 L0.25 13.85 Q5.95 14.7 13.85 13.15 L15.15 12.75 Q6.6 19.75 -1.2 13.55" fill="#000000" fill-rule="evenodd" stroke="none"/>
    <path d="M18.05 -5.3 Q19.5 -3.05 18.8 1.95 15.25 0.1 6.7 -0.1 -9.6 -0.05 -10.85 4.65 -12.65 1.25 -13.2 -2.25 L-13.25 -6.1 Q0.6 -13.55 14.9 -7.1 L18.05 -5.3" fill="#000000" fill-opacity="0.36862746" fill-rule="evenodd" stroke="none"/>
  </g>
</svg>
