<?xml version="1.0" encoding="UTF-8" standalone="no"?>
<svg xmlns:xlink="http://www.w3.org/1999/xlink" height="28.5px" width="51.5px" xmlns="http://www.w3.org/2000/svg">
  <g transform="matrix(1.0, 0.0, 0.0, 1.0, 25.3, 14.15)">
    <path d="M3.15 2.5 Q5.05 4.95 9.4 5.35 13.55 5.2 15.0 2.9 13.7 7.7 9.85 8.5 4.3 8.25 3.15 2.5" fill="#ffffff" fill-opacity="0.35686275" fill-rule="evenodd" stroke="none"/>
    <path d="M20.75 -3.8 Q5.8 -11.6 -11.6 -6.2 L-11.0 -1.75 -9.85 2.0 -9.15 4.05 -9.1 4.25 -8.75 5.4 Q-14.65 0.9 -16.65 -6.35 -23.65 -6.7 -25.3 -12.3 -22.6 -10.55 -13.45 -12.55 -4.3 -14.55 2.6 -14.05 9.45 -13.55 15.45 -11.15 19.2 -9.35 26.0 -10.4 L26.2 -10.5 Q23.95 -7.8 21.85 -7.05 24.8 -4.0 24.4 -0.7 24.15 -1.85 20.75 -3.8 M15.8 11.5 L13.55 12.75 Q8.55 15.25 1.8 13.8 -0.35 13.3 -3.15 11.65 L-1.8 11.7 -1.25 11.85 2.5 12.45 Q6.55 13.15 10.5 12.6 L14.1 12.0 14.4 11.9 15.3 11.7 15.8 11.5" fill="#000000" fill-rule="evenodd" stroke="none"/>
    <path d="M-9.1 4.25 L-9.15 4.05 -9.85 2.0 -11.0 -1.75 -11.6 -6.2 Q5.8 -11.6 20.75 -3.8 21.3 -0.3 20.85 1.6 17.55 -3.1 6.35 -4.15 -9.35 -3.75 -9.1 4.25" fill="#000000" fill-opacity="0.35686275" fill-rule="evenodd" stroke="none"/>
  </g>
</svg>
