<?xml version="1.0" encoding="UTF-8" standalone="no"?>
<svg xmlns:xlink="http://www.w3.org/1999/xlink" height="32.45px" width="51.6px" xmlns="http://www.w3.org/2000/svg">
  <g transform="matrix(1.0, 0.0, 0.0, 1.0, 25.35, 16.4)">
    <path d="M19.45 -7.55 L19.9 -6.6 Q20.45 -5.25 20.4 -4.2 16.95 -7.0 7.5 -7.6 -10.9 -8.25 -10.9 -0.35 -11.95 -3.6 -12.2 -6.9 -7.0 -9.9 3.35 -10.65 13.5 -11.5 18.85 -7.95 L19.15 -7.75 19.45 -7.55" fill="#000000" fill-opacity="0.24705882" fill-rule="evenodd" stroke="none"/>
    <path d="M-10.9 -0.35 Q-9.4 4.2 -6.3 8.55 L-5.4 9.7 Q-16.05 6.2 -21.1 -7.35 L-17.6 -9.55 -25.35 -11.75 Q-11.0 -15.55 1.9 -16.1 7.8 -15.85 17.25 -13.4 22.8 -12.75 26.25 -16.4 24.35 -10.05 20.85 -10.8 22.35 -9.0 25.35 -1.5 L19.8 -7.3 19.45 -7.55 19.15 -7.75 18.85 -7.95 Q13.5 -11.5 3.35 -10.65 -7.0 -9.9 -12.2 -6.9 -11.95 -3.6 -10.9 -0.35 M-1.45 11.25 L-0.4 11.55 Q6.35 12.95 13.1 12.45 L14.05 12.35 15.75 12.2 16.6 12.05 16.6 14.1 14.7 13.4 Q6.6 14.65 2.3 13.1 0.4 14.0 0.35 15.45 -1.3 14.15 0.35 12.75 -3.15 14.0 -4.2 16.05 -5.4 13.75 -1.8 11.5 L-1.45 11.25" fill="#000000" fill-rule="evenodd" stroke="none"/>
  </g>
</svg>
