<?xml version="1.0" encoding="UTF-8" standalone="no"?>
<svg xmlns:xlink="http://www.w3.org/1999/xlink" height="31.55px" width="54.15px" xmlns="http://www.w3.org/2000/svg">
  <g transform="matrix(1.0, 0.0, 0.0, 1.0, 27.2, 15.9)">
    <path d="M21.1 4.4 L21.1 4.35 19.3 2.95 17.75 1.8 12.95 -0.9 Q-6.2 -8.8 -15.35 -8.2 -16.3 -7.3 -15.15 -2.55 -14.4 0.95 -12.3 4.25 L-10.8 6.3 Q-24.65 -3.1 -27.2 -15.9 2.3 -16.0 22.8 -1.75 L26.95 5.9 22.45 1.25 25.35 7.95 21.45 4.65 21.3 4.55 21.15 4.4 21.1 4.4 M-7.0 10.35 L-6.6 10.55 -4.05 11.15 4.9 12.85 13.8 13.8 16.15 13.55 16.65 13.4 18.0 12.95 Q12.1 16.15 7.6 15.55 L-0.9 15.0 -13.05 14.55 Q-6.8 11.85 -7.0 10.35" fill="#000000" fill-rule="evenodd" stroke="none"/>
  </g>
</svg>
