<?xml version="1.0" encoding="UTF-8" standalone="no"?>
<svg xmlns:xlink="http://www.w3.org/1999/xlink" height="27.25px" width="48.25px" xmlns="http://www.w3.org/2000/svg">
  <g transform="matrix(1.0, 0.0, 0.0, 1.0, 27.6, 15.25)">
    <path d="M12.55 -6.6 L12.5 -6.6 12.55 -6.55 12.55 -6.6 M17.55 -4.25 L17.15 -4.5 15.65 -5.3 14.6 -5.75 14.6 -5.7 12.6 -6.45 12.55 -6.5 Q4.75 -8.95 -4.4 -9.65 L-4.4 -9.6 -6.75 -9.7 -6.75 -9.75 -16.8 -9.45 -17.8 -9.4 Q-17.75 -6.45 -16.65 -3.65 L-16.55 -3.4 Q-15.05 0.25 -11.85 3.75 L-8.3 6.5 -6.4 7.45 -6.2 7.55 -6.0 7.65 -1.75 9.0 -0.8 9.25 -0.7 9.25 5.95 10.15 11.0 10.35 11.35 10.4 Q0.75 14.25 -9.35 8.75 -13.15 6.3 -14.65 4.65 -24.4 -6.1 -27.6 -15.25 L0.2 -14.1 Q9.9 -12.85 14.15 -9.6 18.3 -6.65 20.65 -2.2 L17.55 -4.25" fill="#000000" fill-rule="evenodd" stroke="none"/>
    <path d="M-16.65 -3.65 Q-17.75 -6.45 -17.8 -9.4 L-16.8 -9.45 -6.75 -9.75 -6.75 -9.7 -4.4 -9.6 -4.4 -9.65 Q4.75 -8.95 12.55 -6.5 L12.6 -6.45 14.6 -5.7 14.6 -5.75 15.65 -5.3 17.15 -4.5 17.55 -4.25 17.9 0.45 Q4.9 -6.1 -16.65 -3.65" fill="#000000" fill-opacity="0.3372549" fill-rule="evenodd" stroke="none"/>
  </g>
</svg>
