<?xml version="1.0" encoding="UTF-8" standalone="no"?>
<svg xmlns:xlink="http://www.w3.org/1999/xlink" height="174.9px" width="241.7px" xmlns="http://www.w3.org/2000/svg">
  <g transform="matrix(1.0, 0.0, 0.0, 1.0, 120.85, 87.45)">
    <path d="M47.35 -56.5 Q58.35 -64.2 71.8 -57.2 M41.85 -65.25 Q41.25 -72.05 48.35 -78.95 66.05 -92.15 89.15 -82.05 124.4 -64.4 119.2 -8.9 118.55 9.6 102.0 34.6 85.45 59.55 100.9 70.65 110.4 77.45 115.9 68.95 107.9 86.4 92.4 85.4 73.2 83.25 66.95 58.8 61.25 36.75 73.95 1.0 77.75 -9.7 78.15 -30.25 78.55 -50.85 57.05 -52.1 M-46.1 -51.8 Q-69.65 -41.95 -69.45 -19.05 -69.35 -9.05 -64.5 1.6 -48.35 37.05 -54.4 59.25 -61.05 83.85 -83.8 86.35 -102.15 87.7 -112.2 70.4 -105.45 78.8 -94.3 71.8 -76.3 60.4 -96.75 35.75 -117.2 11.1 -118.55 -7.4 -126.5 -62.8 -85.2 -81.15 -58.05 -91.7 -36.65 -78.9 -27.95 -72.1 -28.45 -65.3 M-34.7 -56.45 Q-48.05 -63.95 -63.8 -56.65" fill="none" stroke="#000000" stroke-linecap="round" stroke-linejoin="round" stroke-width="2.0"/>
  </g>
</svg>
