<?xml version="1.0" encoding="UTF-8" standalone="no"?>
<svg xmlns:xlink="http://www.w3.org/1999/xlink" height="21.3px" width="21.3px" xmlns="http://www.w3.org/2000/svg">
  <g transform="matrix(1.0, 0.0, 0.0, 1.0, 7.7, 13.0)">
    <path d="M12.6 -2.35 Q12.6 1.65 9.7 4.45 6.9 7.3 2.95 7.3 -1.05 7.3 -3.9 4.45 -6.7 1.65 -6.7 -2.35 -6.7 -6.35 -3.9 -9.2 -1.05 -12.0 2.95 -12.0 6.9 -12.0 9.7 -9.2 12.6 -6.35 12.6 -2.35" fill="#ffffff" fill-rule="evenodd" stroke="none"/>
    <path d="M12.6 -2.35 Q12.6 1.65 9.7 4.45 6.9 7.3 2.95 7.3 -1.05 7.3 -3.9 4.45 -6.7 1.65 -6.7 -2.35 -6.7 -6.35 -3.9 -9.2 -1.05 -12.0 2.95 -12.0 6.9 -12.0 9.7 -9.2 12.6 -6.35 12.6 -2.35 Z" fill="none" stroke="#000000" stroke-linecap="round" stroke-linejoin="round" stroke-width="2.0"/>
  </g>
</svg>
