<?xml version="1.0" encoding="UTF-8" standalone="no"?>
<svg xmlns:xlink="http://www.w3.org/1999/xlink" height="54.2px" width="28.8px" xmlns="http://www.w3.org/2000/svg">
  <g transform="matrix(1.0, 0.0, 0.0, 1.0, 14.4, 27.1)">
    <path d="M-11.65 -6.1 Q-14.4 -9.55 -14.4 -13.9 -14.4 -19.35 -10.15 -23.3 -5.95 -27.1 0.05 -27.1 5.9 -27.1 10.2 -23.3 14.4 -19.35 14.4 -13.9 14.4 -10.25 12.55 -7.3 L12.3 -7.1 12.2 -7.05 10.2 -4.55 8.0 -2.8 5.5 -1.6 Q2.85 -0.5 0.05 -0.65 -3.3 -0.75 -5.4 -1.6 -8.05 -2.6 -10.15 -4.55 L-10.7 -5.1 -11.65 -6.1" fill="#000000" fill-rule="evenodd" stroke="none"/>
    <path d="M-11.65 -6.1 L-10.7 -5.1 -10.15 -4.55 Q-8.05 -2.6 -5.4 -1.6 -3.3 -0.75 0.05 -0.65 2.85 -0.5 5.5 -1.6 L8.0 -2.8 10.25 -4.55 10.8 -5.1 Q10.6 0.3 7.85 5.6 3.95 13.55 2.65 20.45 1.75 25.65 1.6 27.0 -2.2 27.5 -8.2 25.25 -12.15 23.5 -12.5 21.2 L-12.6 20.9 Q-13.2 12.0 -11.4 3.2 -10.0 -2.5 -11.65 -6.1" fill="#9fd2ff" fill-rule="evenodd" stroke="none"/>
  </g>
</svg>
