<?xml version="1.0" encoding="UTF-8" standalone="no"?>
<svg xmlns:xlink="http://www.w3.org/1999/xlink" height="49.9px" width="24.35px" xmlns="http://www.w3.org/2000/svg">
  <g transform="matrix(1.0, 0.0, 0.0, 1.0, 12.15, 24.95)">
    <path d="M-7.35 -2.6 L-9.1 -4.2 Q-10.05 -5.25 -10.65 -6.5 L-10.75 -6.55 -10.95 -6.75 Q-12.35 -9.45 -12.1 -12.8 -11.8 -17.85 -8.05 -21.45 -4.2 -24.95 0.75 -24.95 5.8 -24.95 9.1 -21.45 12.5 -17.85 12.2 -12.8 11.95 -8.8 9.45 -5.65 L8.6 -4.7 8.05 -4.2 Q6.2 -2.4 3.9 -1.5 2.1 -0.7 -0.8 -0.6 -3.15 -0.45 -5.3 -1.5 L-7.35 -2.6" fill="#000000" fill-rule="evenodd" stroke="none"/>
    <path d="M9.45 -5.65 Q7.85 -2.3 8.65 2.95 9.7 11.05 8.7 19.25 L8.55 19.5 Q8.15 21.65 4.7 23.25 -0.5 25.3 -3.65 24.85 L-4.2 18.8 Q-4.9 12.45 -7.7 5.15 -9.75 0.25 -9.55 -4.7 L-9.15 -4.2 -7.35 -2.6 -5.3 -1.5 Q-3.15 -0.45 -0.8 -0.6 2.1 -0.7 3.9 -1.5 6.2 -2.4 8.05 -4.2 L8.6 -4.7 9.45 -5.65" fill="#9fd2ff" fill-rule="evenodd" stroke="none"/>
  </g>
</svg>
