<?xml version="1.0" encoding="UTF-8" standalone="no"?>
<svg xmlns:xlink="http://www.w3.org/1999/xlink" height="24.9px" width="41.9px" xmlns="http://www.w3.org/2000/svg">
  <g transform="matrix(1.0, 0.0, 0.0, 1.0, 20.95, 12.45)">
    <path d="M-18.65 -11.0 Q-18.65 -13.2 -11.7 -12.05 L16.4 -7.65 Q21.5 -6.75 20.9 -5.0 L20.85 -4.8 Q20.15 -3.35 16.4 -4.2 L4.85 -5.85 Q5.75 -3.05 5.75 0.9 5.75 4.95 4.7 7.7 L3.9 9.7 8.9 9.95 Q12.35 9.8 12.2 11.3 12.15 11.9 11.4 12.2 L8.9 12.45 -14.85 10.85 -17.7 10.2 Q-19.05 9.6 -18.8 8.75 -18.2 7.85 -15.2 7.95 L0.45 9.35 Q-0.05 8.6 -0.25 7.7 -1.2 4.95 -1.2 0.9 -1.2 -3.15 -0.25 -6.05 L-0.05 -6.5 -11.7 -8.25 Q-18.65 -9.2 -18.65 -11.0" fill="#000000" fill-rule="evenodd" stroke="none"/>
    <path d="M-18.65 -11.0 Q-18.65 -9.2 -11.7 -8.25 L-0.05 -6.5 -0.25 -6.05 Q-1.2 -3.15 -1.2 0.9 -1.2 4.95 -0.25 7.7 -0.05 8.6 0.45 9.35 L-15.2 7.95 Q-18.2 7.85 -18.8 8.75 -19.05 9.6 -17.7 10.2 -23.65 8.1 -18.65 -11.0 M11.4 12.2 Q12.15 11.9 12.2 11.3 12.35 9.8 8.9 9.95 L3.9 9.7 4.7 7.7 Q5.75 4.95 5.75 0.9 5.75 -3.05 4.85 -5.85 L16.4 -4.2 Q20.15 -3.35 20.85 -4.8 20.55 13.1 11.4 12.2" fill="#ffffff" fill-rule="evenodd" stroke="none"/>
  </g>
</svg>
