<?xml version="1.0" encoding="UTF-8" standalone="no"?>
<svg xmlns:xlink="http://www.w3.org/1999/xlink" height="23.5px" width="37.2px" xmlns="http://www.w3.org/2000/svg">
  <g transform="matrix(1.0, 0.0, 0.0, 1.0, 18.6, 11.75)">
    <path d="M3.5 -3.35 Q0.35 -5.0 1.65 -8.1 -10.65 -7.8 -13.75 3.85 0.65 0.8 14.0 5.75 12.9 0.35 8.8 -3.9 6.6 -1.85 3.5 -3.35 M18.6 11.75 Q0.4 -0.2 -18.6 9.35 -15.35 -10.6 0.0 -11.75 15.7 -10.4 18.6 11.75" fill="#000000" fill-rule="evenodd" stroke="none"/>
    <path d="M3.5 -3.35 Q6.6 -1.85 8.8 -3.9 12.9 0.35 14.0 5.75 0.65 0.8 -13.75 3.85 -10.65 -7.8 1.65 -8.1 0.35 -5.0 3.5 -3.35" fill="#ffffff" fill-rule="evenodd" stroke="none"/>
  </g>
</svg>
