<?xml version="1.0" encoding="UTF-8" standalone="no"?>
<svg xmlns:xlink="http://www.w3.org/1999/xlink" height="32.2px" width="32.2px" xmlns="http://www.w3.org/2000/svg">
  <g transform="matrix(1.0, 0.0, 0.0, 1.0, 16.1, 16.1)">
    <path d="M11.1 -7.45 Q7.85 -10.8 3.1 -10.8 -1.65 -10.8 -5.05 -7.45 -8.35 -4.1 -8.35 0.7 -8.35 5.45 -5.05 8.75 -1.65 12.15 3.1 12.15 7.85 12.15 11.1 8.75 L12.3 7.45 Q11.45 8.9 10.05 10.2 5.85 14.45 -0.1 14.45 -6.1 14.45 -10.4 10.2 -14.6 6.0 -14.6 0.0 -14.6 -6.0 -10.4 -10.3 -6.1 -14.45 -0.1 -14.45 5.85 -14.45 10.05 -10.3 13.6 -6.8 14.25 -2.25 13.45 -5.15 11.1 -7.45 M-3.35 -8.25 Q-2.65 -8.8 -1.65 -8.8 -0.7 -8.8 -0.1 -8.25 0.55 -7.55 0.55 -6.6 0.55 -5.6 -0.1 -5.05 -0.7 -4.35 -1.65 -4.35 -2.65 -4.35 -3.35 -5.05 -3.9 -5.6 -3.9 -6.6 -3.9 -7.55 -3.35 -8.25 M-7.5 -2.65 Q-6.9 -3.2 -6.05 -3.2 -5.15 -3.2 -4.55 -2.65 -4.0 -2.0 -4.0 -1.2 -4.0 -0.3 -4.55 0.25 -5.15 0.9 -6.05 0.9 -6.9 0.9 -7.5 0.25 -8.1 -0.3 -8.1 -1.2 -8.1 -2.0 -7.5 -2.65" fill="#ffffff" fill-rule="evenodd" stroke="none"/>
    <path d="M11.3 -11.4 Q16.1 -6.7 16.1 0.0 16.1 6.7 11.3 11.4 6.7 16.1 0.0 16.1 -6.7 16.1 -11.5 11.4 -16.1 6.7 -16.1 0.0 -16.1 -6.7 -11.5 -11.4 -6.7 -16.1 0.0 -16.1 6.7 -16.1 11.3 -11.4 M11.1 -7.45 Q13.45 -5.15 14.25 -2.25 13.6 -6.8 10.05 -10.3 5.85 -14.45 -0.1 -14.45 -6.1 -14.45 -10.4 -10.3 -14.6 -6.0 -14.6 0.0 -14.6 6.0 -10.4 10.2 -6.1 14.45 -0.1 14.45 5.85 14.45 10.05 10.2 11.45 8.9 12.3 7.45 L11.1 8.75 Q7.85 12.15 3.1 12.15 -1.65 12.15 -5.05 8.75 -8.35 5.45 -8.35 0.7 -8.35 -4.1 -5.05 -7.45 -1.65 -10.8 3.1 -10.8 7.85 -10.8 11.1 -7.45 M-7.5 -2.65 Q-8.1 -2.0 -8.1 -1.2 -8.1 -0.3 -7.5 0.25 -6.9 0.9 -6.05 0.9 -5.15 0.9 -4.55 0.25 -4.0 -0.3 -4.0 -1.2 -4.0 -2.0 -4.55 -2.65 -5.15 -3.2 -6.05 -3.2 -6.9 -3.2 -7.5 -2.65 M-3.35 -8.25 Q-3.9 -7.55 -3.9 -6.6 -3.9 -5.6 -3.35 -5.05 -2.65 -4.35 -1.65 -4.35 -0.7 -4.35 -0.1 -5.05 0.55 -5.6 0.55 -6.6 0.55 -7.55 -0.1 -8.25 -0.7 -8.8 -1.65 -8.8 -2.65 -8.8 -3.35 -8.25" fill="#020202" fill-rule="evenodd" stroke="none"/>
  </g>
</svg>
