<?xml version="1.0" encoding="UTF-8" standalone="no"?>
<svg xmlns:xlink="http://www.w3.org/1999/xlink" height="34.65px" width="33.2px" xmlns="http://www.w3.org/2000/svg">
  <g transform="matrix(1.0, 0.0, 0.0, 1.0, 16.6, 17.35)">
    <path d="M12.5 -6.8 Q7.75 -13.7 0.9 -14.75 -6.1 -15.55 -12.9 -8.45 -6.5 -6.85 -7.3 -2.3 -7.95 2.65 -13.95 2.7 -12.9 11.4 -7.75 14.35 -1.85 17.3 4.7 11.25 17.35 0.15 12.5 -6.8 M3.4 15.6 Q-1.1 17.8 -6.65 17.15 -13.55 15.4 -15.45 6.55 -17.6 -2.45 -15.65 -7.2 -10.8 -16.35 -0.85 -17.35 8.4 -17.2 13.15 -11.05 18.75 -3.75 15.25 2.65 11.35 9.55 3.4 15.6" fill="#000000" fill-rule="evenodd" stroke="none"/>
    <path d="M12.5 -6.8 Q17.35 0.15 4.7 11.25 -1.85 17.3 -7.75 14.35 -12.9 11.4 -13.95 2.7 -7.95 2.65 -7.3 -2.3 -6.5 -6.85 -12.9 -8.45 -6.1 -15.55 0.9 -14.75 7.75 -13.7 12.5 -6.8" fill="#ffffff" fill-rule="evenodd" stroke="none"/>
  </g>
</svg>
