<?xml version="1.0" encoding="UTF-8" standalone="no"?>
<svg xmlns:xlink="http://www.w3.org/1999/xlink" height="30.3px" width="42.05px" xmlns="http://www.w3.org/2000/svg">
  <g transform="matrix(1.0, 0.0, 0.0, 1.0, 21.05, 15.15)">
    <path d="M-0.05 -3.55 L19.9 2.15 20.0 2.15 20.0 2.2 Q18.45 5.35 16.6 7.65 11.8 13.55 4.8 14.15 -16.25 9.4 -20.05 -9.25 L-0.05 -3.55 M19.9 2.15 L20.0 2.2 19.9 2.15" fill="#f5f5f5" fill-rule="evenodd" stroke="none"/>
    <path d="M-0.05 -3.55 L-19.8 -14.15 14.1 -2.75 19.9 2.15 -0.05 -3.55" fill="#000000" fill-rule="evenodd" stroke="none"/>
    <path d="M19.9 2.15 L14.1 -2.75 -19.8 -14.15 -0.05 -3.55 19.9 2.15 20.0 2.15 20.0 2.2 Q18.45 5.35 16.6 7.65 11.8 13.55 4.8 14.15 -16.25 9.4 -20.05 -9.25 L-0.05 -3.55 M20.0 2.2 L19.9 2.15 Z" fill="none" stroke="#000000" stroke-linecap="round" stroke-linejoin="round" stroke-width="2.0"/>
  </g>
</svg>
