<?xml version="1.0" encoding="UTF-8" standalone="no"?>
<svg xmlns:xlink="http://www.w3.org/1999/xlink" height="33.25px" width="29.05px" xmlns="http://www.w3.org/2000/svg">
  <g transform="matrix(1.0, 0.0, 0.0, 1.0, 17.7, 16.65)">
    <path d="M11.35 0.0 Q11.35 6.85 8.0 11.7 4.7 16.6 0.0 16.6 -4.7 16.6 -8.05 11.7 -11.35 6.85 -11.35 -0.05 -11.35 -6.9 -8.05 -11.75 -4.7 -16.65 0.0 -16.65 4.7 -16.65 8.0 -11.75 11.35 -6.9 11.35 0.0" fill="#000000" fill-rule="evenodd" stroke="none"/>
    <path d="M-9.05 -4.65 Q-6.45 -0.85 -11.35 -1.25 -16.3 -1.65 -17.35 -4.15 -18.4 -6.7 -16.5 -5.55 -14.65 -4.4 -9.05 -4.65 M-8.8 1.35 Q-5.85 4.5 -10.9 4.75 -15.5 5.05 -17.0 1.7 -17.4 0.65 -16.25 0.9 L-8.8 1.35" fill="#000000" fill-rule="evenodd" stroke="none"/>
  </g>
</svg>
