<?xml version="1.0" encoding="UTF-8" standalone="no"?>
<svg xmlns:xlink="http://www.w3.org/1999/xlink" height="33.7px" width="53.3px" xmlns="http://www.w3.org/2000/svg">
  <g transform="matrix(1.0, 0.0, 0.0, 1.0, 27.05, 16.55)">
    <path d="M0.7 15.9 Q2.4 15.1 9.3 14.75 L16.8 14.55 Q9.95 18.95 0.7 15.9 M5.6 -16.4 Q12.25 -16.85 17.7 -14.5 23.15 -12.15 26.25 -12.0 24.55 -10.15 21.15 -9.8 24.55 -7.7 25.7 -5.0 L20.75 -6.9 20.6 -6.95 Q2.9 -12.8 -11.0 -3.05 -11.25 1.1 -10.55 4.6 -10.15 6.9 -9.2 8.85 -17.0 6.1 -21.05 -2.0 -26.65 -6.05 -27.05 -9.9 -25.6 -7.65 -21.95 -7.95 -26.15 -10.6 -26.55 -16.55 -23.55 -10.3 -15.55 -10.8 L-14.55 -10.85 Q-18.75 -11.1 -20.75 -16.55 -15.95 -13.55 -6.75 -14.9 L5.6 -16.4" fill="#37243a" fill-rule="evenodd" stroke="none"/>
    <path d="M-12.45 -4.45 Q1.65 -14.15 20.0 -8.35 L20.75 -6.9 Q22.4 -4.25 22.35 -1.75 2.15 -7.35 -10.55 4.6 -11.1 1.8 -15.35 -2.2 -12.2 -3.3 -12.45 -4.45" fill="#000000" fill-opacity="0.24705882" fill-rule="evenodd" stroke="none"/>
  </g>
</svg>
