<?xml version="1.0" encoding="UTF-8" standalone="no"?>
<svg xmlns:xlink="http://www.w3.org/1999/xlink" height="39.6px" width="55.4px" xmlns="http://www.w3.org/2000/svg">
  <g transform="matrix(1.0, 0.0, 0.0, 1.0, 27.65, 19.8)">
    <path d="M-13.15 -4.05 Q-10.85 1.65 -6.05 7.55 -3.95 9.05 2.9 10.2 8.7 11.0 14.45 10.5 L17.7 10.2 Q10.35 14.05 0.95 13.0 -3.75 16.35 -5.5 19.8 -6.45 15.4 -5.25 11.15 -10.05 12.55 -12.05 14.25 -12.05 11.85 -9.45 9.5 -14.3 9.85 -17.2 11.75 -16.0 9.4 -12.05 7.2 -14.35 5.3 -14.7 2.5 -14.0 3.9 -11.05 5.55 -14.65 1.8 -17.05 -2.35 -21.05 -0.45 -25.15 -0.3 -22.25 -1.25 -19.6 -3.75 -25.95 -7.2 -27.65 -15.9 -26.95 -13.2 -21.0 -13.25 -23.15 -15.55 -22.2 -19.8 -20.35 -17.25 -15.75 -15.05 -6.6 -19.65 8.0 -18.3 19.95 -15.05 27.75 -7.4 L24.25 -7.4 27.55 -4.5 Q24.65 -6.15 21.45 -7.4 L21.15 -7.5 Q13.95 -10.2 4.7 -11.05 -4.8 -11.7 -14.7 -9.75 -14.25 -6.9 -13.15 -4.05" fill="#000000" fill-rule="evenodd" stroke="none"/>
    <path d="M-13.15 -4.05 Q-14.25 -6.9 -14.7 -9.75 -4.8 -11.7 4.7 -11.05 13.95 -10.2 21.15 -7.5 L21.45 -7.4 Q22.1 -3.9 21.65 -2.25 3.75 -7.65 -13.15 -4.05" fill="#000000" fill-opacity="0.21960784" fill-rule="evenodd" stroke="none"/>
  </g>
</svg>
