<?xml version="1.0" encoding="UTF-8" standalone="no"?>
<svg xmlns:xlink="http://www.w3.org/1999/xlink" height="26.0px" width="53.0px" xmlns="http://www.w3.org/2000/svg">
  <g transform="matrix(1.0, 0.0, 0.0, 1.0, 26.9, 13.0)">
    <path d="M22.7 -0.9 Q21.9 2.05 21.35 2.05 6.55 -6.95 -15.55 0.05 -16.55 -1.7 -16.65 -3.3 -9.9 -6.2 2.0 -5.65 12.8 -4.55 18.55 -2.45 L22.7 -0.9" fill="#000000" fill-opacity="0.24705882" fill-rule="evenodd" stroke="none"/>
    <path d="M-15.55 0.05 L-14.55 1.9 -14.0 3.05 Q-18.35 1.1 -21.85 -1.85 -25.45 -4.8 -26.9 -6.95 -24.55 -7.1 -17.4 -10.2 -10.25 -13.3 3.35 -12.3 16.75 -10.55 26.1 -3.6 25.45 -3.05 23.45 -2.8 L25.9 0.35 22.7 -0.9 18.55 -2.45 Q12.8 -4.55 2.0 -5.65 -9.9 -6.2 -16.65 -3.3 -16.55 -1.7 -15.55 0.05 M5.2 -12.9 Q12.6 -13.3 18.2 -12.1 L21.95 -7.75 16.8 -10.65 Q9.35 -11.75 5.2 -12.9 M12.8 9.3 L14.1 9.5 Q13.4 10.25 11.0 10.5 L-4.15 10.05 Q-7.7 9.85 -8.2 8.9 L-6.45 8.7 12.8 9.3" fill="#000000" fill-rule="evenodd" stroke="none"/>
    <path d="M-6.75 11.6 Q-7.1 10.85 -1.9 11.1 3.25 11.3 9.2 11.15 11.9 11.5 11.9 12.0 2.05 14.2 -6.75 11.6" fill="#000000" fill-opacity="0.70980394" fill-rule="evenodd" stroke="none"/>
  </g>
</svg>
