<?xml version="1.0" encoding="UTF-8" standalone="no"?>
<svg xmlns:xlink="http://www.w3.org/1999/xlink" height="31.05px" width="51.0px" xmlns="http://www.w3.org/2000/svg">
  <g transform="matrix(1.0, 0.0, 0.0, 1.0, 24.3, 16.55)">
    <path d="M20.35 -7.2 L20.0 -7.35 18.5 -7.9 18.45 -7.95 18.3 -8.0 18.25 -8.0 -12.65 -7.05 Q-13.55 -4.85 -13.6 -2.7 L-13.55 -1.65 Q-13.4 -0.05 -12.8 1.55 -17.7 -2.5 -17.65 -8.0 -23.35 -10.6 -24.3 -13.55 -2.7 -12.7 18.4 -14.5 L26.7 -13.3 Q24.85 -11.15 20.6 -11.3 24.9 -7.5 26.55 -3.7 24.95 -5.5 20.35 -7.2 M-8.25 6.4 Q-8.65 5.95 -8.35 5.65 L-6.85 6.1 Q1.55 8.35 8.15 8.05 L19.05 6.25 19.9 6.15 19.55 6.9 Q19.15 7.3 18.15 7.7 13.85 9.25 7.3 9.9 0.8 9.8 -4.65 8.35 -7.6 7.2 -8.25 6.4" fill="#000000" fill-rule="evenodd" stroke="none"/>
    <path d="M-8.25 6.4 Q-7.6 7.2 -4.65 8.35 0.8 9.8 7.3 9.9 13.85 9.25 18.15 7.7 19.15 7.3 19.55 6.9 15.85 14.55 6.1 14.5 -4.05 14.45 -8.25 6.4" fill="#000000" fill-opacity="0.4392157" fill-rule="evenodd" stroke="none"/>
    <path d="M-13.55 -1.65 L-13.6 -2.7 Q-13.55 -4.85 -12.65 -7.05 L18.25 -8.0 18.3 -8.0 18.45 -7.95 18.5 -7.9 20.0 -7.35 20.35 -7.2 Q21.75 -6.05 21.35 -2.8 3.2 -4.45 -13.55 -1.65" fill="#000000" fill-opacity="0.23921569" fill-rule="evenodd" stroke="none"/>
    <path d="M4.65 -15.5 L16.45 -16.05" fill="none" stroke="#000000" stroke-linecap="round" stroke-linejoin="round" stroke-width="1.0"/>
  </g>
</svg>
