<?xml version="1.0" encoding="UTF-8" standalone="no"?>
<svg xmlns:xlink="http://www.w3.org/1999/xlink" height="16.0px" width="20.05px" xmlns="http://www.w3.org/2000/svg">
  <g transform="matrix(1.0, 0.0, 0.0, 1.0, 2.9, 9.05)">
    <path d="M7.45 -1.05 L-2.4 -6.05 Q-1.9 -7.8 -0.65 -9.05 L15.15 -8.6 16.45 -6.6 7.45 -1.05 15.4 3.05 13.9 4.7 Q11.05 6.95 7.1 6.95 3.05 7.0 0.3 4.55 L-0.4 3.85 7.45 -1.05" fill="#b16d52" fill-opacity="0.827451" fill-rule="evenodd" stroke="none"/>
    <path d="M16.4 -7.2 L16.8 -7.25 17.1 -7.05 17.15 -6.65 16.9 -6.35 8.35 -1.15 15.95 2.8 16.2 3.1 16.15 3.5 15.85 3.75 15.5 3.7 7.35 -0.5 -0.25 4.15 -0.6 4.2 -0.9 3.95 -0.95 3.6 -0.75 3.3 6.35 -1.05 -2.6 -5.7 -2.85 -6.0 -2.85 -6.35 -2.55 -6.6 -2.15 -6.6 7.35 -1.65 16.4 -7.2" fill="#000000" fill-opacity="0.81960785" fill-rule="evenodd" stroke="none"/>
  </g>
</svg>
