<?xml version="1.0" encoding="UTF-8" standalone="no"?>
<svg xmlns:xlink="http://www.w3.org/1999/xlink" height="28.95px" width="59.4px" xmlns="http://www.w3.org/2000/svg">
  <g transform="matrix(1.0, 0.0, 0.0, 1.0, 29.8, 14.6)">
    <path d="M-5.3 10.3 L-4.05 10.3 16.75 11.4 22.1 11.9 23.1 12.05 Q20.8 12.85 16.95 12.6 5.8 11.85 -3.6 12.85 -9.8 12.8 -13.5 14.35 -10.35 11.1 -5.75 10.4 L-5.3 10.3" fill="#000000" fill-rule="evenodd" stroke="none"/>
    <path d="M-5.75 10.4 Q-9.45 7.7 -12.55 3.9 -15.65 0.15 -20.2 -4.05 -24.8 -8.35 -29.8 -11.3 -22.1 -10.65 -15.85 -8.6 -5.5 -14.3 6.95 -14.6 23.2 -11.05 29.6 -0.6 L26.9 -1.95 Q18.35 -6.15 7.4 -7.15 -0.2 -7.75 -4.4 -4.95 -8.6 -2.2 -9.75 0.9 L-8.7 3.15 -5.3 10.3 -5.75 10.4" fill="url(#gradient0)" fill-rule="evenodd" stroke="none"/>
    <path d="M26.9 -1.95 L27.05 0.0 Q1.1 -0.7 -8.7 3.15 L-9.75 0.9 Q-8.6 -2.2 -4.4 -4.95 -0.2 -7.75 7.4 -7.15 18.35 -6.15 26.9 -1.95" fill="#6b518a" fill-opacity="0.35686275" fill-rule="evenodd" stroke="none"/>
  </g>
  <defs>
    <linearGradient gradientTransform="matrix(-0.025, -0.0075, 0.0047, -0.0173, 1.95, -1.95)" gradientUnits="userSpaceOnUse" id="gradient0" spreadMethod="pad" x1="-819.2" x2="819.2">
      <stop offset="0.0" stop-color="#000000"/>
      <stop offset="0.5647058823529412" stop-color="#000000"/>
      <stop offset="1.0" stop-color="#5d2323"/>
    </linearGradient>
  </defs>
</svg>
