<?xml version="1.0" encoding="UTF-8" standalone="no"?>
<svg xmlns:xlink="http://www.w3.org/1999/xlink" height="28.0px" width="23.95px" xmlns="http://www.w3.org/2000/svg">
  <g transform="matrix(1.0, 0.0, 0.0, 1.0, 5.85, 11.05)">
    <path d="M7.65 -9.85 Q11.5 -9.25 13.8 -7.05 16.95 -3.8 17.1 3.65 L7.7 3.2 7.65 -9.85 M7.7 15.8 L6.95 15.85 Q2.05 16.4 -1.2 13.0 -4.45 9.75 -4.8 4.2 L7.7 3.2 7.7 15.8" fill="#a86dff" fill-opacity="0.8392157" fill-rule="evenodd" stroke="none"/>
    <path d="M7.65 -9.85 Q11.5 -9.25 13.8 -7.05 16.95 -3.8 17.1 3.65 L17.1 4.8 17.05 5.35 Q16.45 13.5 10.2 15.3 L8.85 15.6 8.6 15.65 7.7 15.8 6.95 15.85 Q2.05 16.4 -1.2 13.0 -4.45 9.75 -4.8 4.2 L-4.8 3.95 -4.85 3.65 Q-5.15 -2.3 -1.85 -6.35 1.5 -10.4 6.3 -10.0 L7.65 -9.85" fill="none" stroke="#000000" stroke-linecap="round" stroke-linejoin="round" stroke-width="2.0"/>
    <path d="M7.65 -9.85 L7.7 3.2 17.1 3.65 M7.7 15.8 L7.7 3.2 -4.8 4.2" fill="none" stroke="#000000" stroke-linecap="round" stroke-linejoin="round" stroke-opacity="0.64705884" stroke-width="1.5"/>
  </g>
</svg>
