<?xml version="1.0" encoding="UTF-8" standalone="no"?>
<svg xmlns:xlink="http://www.w3.org/1999/xlink" height="28.0px" width="22.3px" xmlns="http://www.w3.org/2000/svg">
  <g transform="matrix(1.0, 0.0, 0.0, 1.0, 0.3, 11.15)">
    <path d="M12.25 -9.95 Q15.85 -9.35 17.95 -7.15 20.85 -3.9 21.0 3.55 L12.3 3.1 12.25 -9.95 M12.3 15.7 L11.65 15.75 Q7.1 16.3 4.1 12.9 1.1 9.65 0.75 4.1 L12.3 3.1 12.3 15.7" fill="#a86dff" fill-opacity="0.8392157" fill-rule="evenodd" stroke="none"/>
    <path d="M12.25 -9.95 Q15.85 -9.35 17.95 -7.15 20.85 -3.9 21.0 3.55 L21.0 4.7 20.95 5.25 Q20.4 13.4 14.65 15.2 L13.4 15.5 13.15 15.55 12.3 15.7 11.65 15.75 Q7.1 16.3 4.1 12.9 1.1 9.65 0.75 4.1 L0.75 3.85 0.7 3.55 Q0.45 -2.4 3.5 -6.45 6.6 -10.5 11.05 -10.1 L12.25 -9.95" fill="none" stroke="#000000" stroke-linecap="round" stroke-linejoin="round" stroke-width="2.0"/>
    <path d="M12.25 -9.95 L12.3 3.1 21.0 3.55 M12.3 15.7 L12.3 3.1 0.75 4.1" fill="none" stroke="#000000" stroke-linecap="round" stroke-linejoin="round" stroke-opacity="0.64705884" stroke-width="1.5"/>
  </g>
</svg>
