<?xml version="1.0" encoding="UTF-8" standalone="no"?>
<svg xmlns:xlink="http://www.w3.org/1999/xlink" height="46.8px" width="138.5px" xmlns="http://www.w3.org/2000/svg">
  <g transform="matrix(1.0, 0.0, 0.0, 1.0, 32.75, 64.0)">
    <path d="M73.8 -50.0 Q73.7 -51.3 73.85 -52.5 74.05 -54.8 74.95 -56.9 L76.25 -59.3 74.95 -60.6 Q71.0 -63.95 67.15 -59.2 L67.0 -59.0 Q64.65 -55.85 64.55 -50.25 64.45 -44.7 66.4 -40.25 67.65 -37.45 70.35 -36.05 70.6 -32.35 71.9 -30.3 L72.1 -30.05 Q74.1 -27.0 77.8 -25.25 80.4 -24.05 83.9 -23.5 86.5 -18.4 94.05 -18.2 96.0 -18.85 98.85 -20.95 103.8 -24.6 104.6 -29.85 L104.75 -31.55 Q104.8 -38.0 100.9 -40.4 100.25 -35.25 92.6 -34.3 M100.9 -40.4 Q101.85 -46.0 99.9 -49.95 96.95 -55.95 89.85 -52.45 89.8 -55.95 88.35 -58.5 87.1 -60.75 84.75 -62.2 80.55 -63.95 78.05 -61.75 77.0 -60.9 76.25 -59.3 M-12.3 -57.95 L-11.9 -57.85 Q-10.3 -60.55 -7.05 -62.2 0.3 -64.65 3.45 -59.3 9.3 -64.8 14.9 -59.0 17.8 -55.85 17.95 -50.25 18.05 -44.7 15.65 -40.25 14.1 -37.45 10.75 -36.05 10.5 -32.7 9.15 -30.7 L8.85 -30.3 Q4.5 -24.8 -6.0 -23.5 -9.2 -18.4 -18.55 -18.2 -20.95 -18.85 -24.45 -20.95 -31.6 -25.15 -31.75 -31.55 -31.85 -38.0 -27.0 -40.4 -28.2 -46.0 -25.8 -49.95 -22.1 -55.95 -13.35 -52.45 -13.3 -55.05 -12.3 -57.1 L-11.9 -57.85 M3.45 -59.3 Q6.9 -55.05 6.5 -50.0 M88.3 -50.3 Q82.0 -47.7 78.95 -40.1 M-27.0 -40.4 Q-26.2 -35.25 -16.75 -34.3 M-11.45 -50.3 L-7.65 -48.6 Q-2.65 -45.7 0.15 -40.1" fill="none" stroke="#000000" stroke-linecap="round" stroke-linejoin="round" stroke-width="2.0"/>
  </g>
</svg>
