<?xml version="1.0" encoding="UTF-8" standalone="no"?>
<svg xmlns:xlink="http://www.w3.org/1999/xlink" height="27.25px" width="50.15px" xmlns="http://www.w3.org/2000/svg">
  <g transform="matrix(1.0, 0.0, 0.0, 1.0, 25.1, 13.55)">
    <path d="M-11.95 3.35 Q-12.85 0.0 -12.85 -2.9 -0.6 -7.95 13.1 -5.5 17.9 -3.85 20.75 -1.7 22.1 1.15 21.5 1.85 16.2 -0.35 5.8 0.2 -4.6 0.7 -11.95 3.35" fill="#000000" fill-opacity="0.24705882" fill-rule="evenodd" stroke="none"/>
    <path d="M20.75 -1.7 Q17.9 -3.85 13.1 -5.5 -0.6 -7.95 -12.85 -2.9 -12.85 0.0 -11.95 3.35 -11.05 6.7 -9.2 10.45 L-8.9 11.05 Q-22.15 3.95 -25.1 -4.15 -17.2 -10.3 -7.75 -12.65 4.2 -15.05 13.7 -10.9 23.15 -6.85 25.05 2.25 23.45 0.3 20.75 -1.7 M-3.6 13.7 L-4.25 13.15 8.0 12.6 10.15 12.6 17.65 13.05 18.0 13.05 17.5 13.7 -3.6 13.7" fill="#000000" fill-rule="evenodd" stroke="none"/>
  </g>
</svg>
