<?xml version="1.0" encoding="UTF-8" standalone="no"?>
<svg xmlns:xlink="http://www.w3.org/1999/xlink" height="32.1px" width="55.25px" xmlns="http://www.w3.org/2000/svg">
  <g transform="matrix(1.0, 0.0, 0.0, 1.0, 27.7, 14.85)">
    <path d="M-11.95 3.8 Q-11.05 7.5 -9.2 11.7 L-8.9 12.35 Q-21.15 5.05 -22.2 -2.7 -27.2 -4.0 -27.7 -9.55 -23.75 -8.3 -18.75 -9.95 -12.4 -12.75 -7.75 -14.05 L-1.7 -14.85 Q9.1 -14.5 16.65 -10.65 L17.0 -10.5 22.6 -7.3 Q24.25 -6.25 27.55 -5.85 L24.1 -3.35 Q25.9 -0.35 25.05 2.55 23.45 0.4 20.75 -1.85 17.9 -4.25 13.1 -6.1 -0.6 -8.8 -12.85 -3.2 -12.85 0.05 -11.95 3.8 M2.5 14.9 L11.5 15.15 17.0 14.75 18.0 14.6 17.4 15.95 Q10.4 17.1 0.0 16.3 -2.9 17.25 -5.45 17.25 -4.2 16.15 -3.85 16.0 L-4.25 14.7 2.5 14.9" fill="#000000" fill-rule="evenodd" stroke="none"/>
    <path d="M20.75 -1.85 Q22.1 1.35 21.5 2.1 16.2 -0.35 5.8 0.25 -4.6 0.85 -11.95 3.8 -12.85 0.05 -12.85 -3.2 -0.6 -8.8 13.1 -6.1 17.9 -4.25 20.75 -1.85" fill="#000000" fill-opacity="0.24705882" fill-rule="evenodd" stroke="none"/>
  </g>
</svg>
