<?xml version="1.0" encoding="UTF-8" standalone="no"?>
<svg xmlns:xlink="http://www.w3.org/1999/xlink" height="37.4px" width="43.55px" xmlns="http://www.w3.org/2000/svg">
  <g transform="matrix(1.0, 0.0, 0.0, 1.0, 21.85, 18.95)">
    <path d="M17.5 -8.25 Q18.95 -5.85 19.1 -3.6 L19.25 -0.15 Q18.55 -2.1 17.0 -4.25 0.65 -7.3 -12.55 0.9 -13.2 -1.05 -13.05 -3.2 -8.75 -7.3 -1.6 -9.5 6.6 -11.5 14.35 -9.45 L16.05 -8.8 17.35 -8.3 17.5 -8.25" fill="#000000" fill-opacity="0.32941177" fill-rule="evenodd" stroke="none"/>
    <path d="M-12.55 0.9 L-12.45 1.3 -11.65 3.3 -11.9 3.15 Q-15.5 0.8 -16.3 -1.2 -18.45 -1.05 -19.55 0.25 -19.8 -1.25 -18.95 -2.5 L-21.25 -2.15 Q-20.75 -4.0 -18.65 -5.15 L-21.85 -6.8 Q-16.9 -6.75 -11.15 -10.1 -4.1 -14.7 4.2 -16.4 16.75 -16.5 21.7 -10.45 18.95 -11.4 17.5 -11.2 20.75 -8.85 21.7 -5.8 L17.5 -8.25 17.35 -8.3 16.05 -8.8 14.35 -9.45 Q6.6 -11.5 -1.6 -9.5 -8.75 -7.3 -13.05 -3.2 -13.2 -1.05 -12.55 0.9 M17.2 10.9 L18.0 10.55 16.2 12.45 Q17.35 15.15 15.35 17.2 15.4 15.9 14.4 13.55 12.75 14.5 10.6 14.85 L6.95 15.25 Q6.9 17.45 4.35 18.45 L4.75 15.3 -0.2 14.9 Q-2.5 14.6 -4.5 13.75 L-7.2 16.15 Q-7.55 14.3 -6.4 12.75 -8.45 11.5 -10.05 9.7 L-10.25 9.4 -9.75 9.7 -9.0 10.0 Q-8.35 10.3 -7.6 10.65 -2.85 12.6 4.2 13.2 L4.6 13.2 7.6 13.1 10.6 12.75 12.55 12.4 14.35 11.8 15.1 11.6 17.2 10.9" fill="url(#gradient0)" fill-rule="evenodd" stroke="none"/>
    <path d="M7.15 -18.4 Q12.85 -18.8 16.25 -16.5 M18.35 12.35 Q20.3 11.15 20.35 9.4 M-10.9 11.1 Q-12.35 9.55 -12.7 7.8" fill="none" stroke="#000000" stroke-linecap="round" stroke-linejoin="round" stroke-opacity="0.4392157" stroke-width="1.0"/>
  </g>
  <defs>
    <linearGradient gradientTransform="matrix(0.0051, 0.0222, -0.0261, 0.0056, 2.5, 3.65)" gradientUnits="userSpaceOnUse" id="gradient0" spreadMethod="pad" x1="-819.2" x2="819.2">
      <stop offset="0.0" stop-color="#000000"/>
      <stop offset="0.5098039215686274" stop-color="#643a63"/>
      <stop offset="1.0" stop-color="#000000"/>
    </linearGradient>
  </defs>
</svg>
