<?xml version="1.0" encoding="UTF-8" standalone="no"?>
<svg xmlns:xlink="http://www.w3.org/1999/xlink" height="32.25px" width="54.75px" xmlns="http://www.w3.org/2000/svg">
  <g transform="matrix(1.0, 0.0, 0.0, 1.0, 35.1, 18.8)">
    <path d="M7.0 -11.2 L6.95 -11.25 Q4.0 -13.55 -0.35 -13.5 -5.0 -13.55 -8.0 -10.85 -11.1 -8.2 -10.95 -3.2 -10.7 1.65 -7.55 5.35 -4.55 8.7 0.25 8.3 5.1 7.95 7.35 5.3 9.45 2.5 9.55 -3.3 9.7 -8.95 7.0 -11.2 M8.45 -12.85 Q12.05 -9.95 11.95 -3.05 11.85 3.4 9.35 6.55 L9.3 6.65 Q6.6 9.85 0.65 10.45 -5.5 10.85 -9.35 6.65 L-9.35 6.6 Q-13.1 2.45 -13.25 -3.35 -13.45 -9.25 -9.7 -12.4 -6.0 -15.6 -0.55 -15.6 4.95 -15.65 8.45 -12.85" fill="url(#gradient0)" fill-rule="evenodd" stroke="none"/>
    <path d="M-18.55 -5.6 L-18.8 -8.95 -18.75 -9.65 Q-13.7 -11.0 -9.75 -11.15 L1.25 -10.45 Q8.2 -9.6 10.9 -8.3 L14.25 -6.55 15.2 -5.6 Q15.85 -4.85 15.75 -2.45 L15.65 1.4 Q14.9 -0.45 13.2 -2.8 -4.55 -9.4 -18.55 -5.6" fill="#000000" fill-opacity="0.32941177" fill-rule="evenodd" stroke="none"/>
    <path d="M15.2 -5.6 L14.25 -6.55 10.9 -8.3 Q8.2 -9.6 1.25 -10.45 L-9.75 -11.15 Q-13.7 -11.0 -18.75 -9.65 L-18.8 -8.95 -18.55 -5.6 -17.35 1.4 Q-23.95 -6.55 -24.3 -8.15 -24.8 -6.55 -29.4 -6.7 L-25.85 -9.8 Q-33.75 -11.6 -35.1 -13.85 -25.45 -13.95 -18.95 -15.9 -12.5 -17.9 -0.7 -16.65 12.95 -13.7 19.65 -9.9 L15.55 -8.2 Q17.3 -5.95 18.3 -3.0 L15.2 -5.6" fill="url(#gradient1)" fill-rule="evenodd" stroke="none"/>
    <path d="M13.4 7.45 L14.3 7.1 12.35 8.75 Q13.6 11.25 11.4 12.95 11.45 11.75 10.4 9.65 L6.25 10.6 2.3 10.75 Q2.25 12.7 -0.55 13.45 L-0.1 10.7 -5.5 10.1 -10.15 8.85 -13.1 10.85 Q-13.5 9.2 -12.25 7.9 -14.45 6.7 -16.2 5.0 L-16.4 4.75 Q-16.2 4.8 -15.85 5.0 L-15.05 5.25 -13.55 5.9 Q-8.35 7.9 -0.7 8.8 L-0.25 8.85 3.0 8.95 6.25 8.75 8.35 8.5 10.3 8.1 11.15 7.9 13.4 7.45" fill="url(#gradient2)" fill-rule="evenodd" stroke="none"/>
    <path d="M2.5 -18.3 Q8.7 -18.35 12.4 -16.05 M14.65 8.75 Q16.8 7.75 16.85 6.3 M-17.1 6.1 Q-18.7 4.7 -19.05 3.2" fill="none" stroke="#000000" stroke-linecap="round" stroke-linejoin="round" stroke-opacity="0.4392157" stroke-width="1.0"/>
  </g>
  <defs>
    <linearGradient gradientTransform="matrix(0.0049, 0.0199, -0.0252, 0.0037, -3.4, 0.05)" gradientUnits="userSpaceOnUse" id="gradient0" spreadMethod="pad" x1="-819.2" x2="819.2">
      <stop offset="0.19607843137254902" stop-color="#000000"/>
      <stop offset="0.5098039215686274" stop-color="#7a78d4"/>
      <stop offset="0.8235294117647058" stop-color="#000000"/>
    </linearGradient>
    <linearGradient gradientTransform="matrix(0.0055, 0.0209, -0.0284, -0.0013, -2.55, 0.85)" gradientUnits="userSpaceOnUse" id="gradient1" spreadMethod="pad" x1="-819.2" x2="819.2">
      <stop offset="0.0" stop-color="#000000"/>
      <stop offset="0.5098039215686274" stop-color="#423464"/>
      <stop offset="1.0" stop-color="#000000"/>
    </linearGradient>
    <linearGradient gradientTransform="matrix(0.0055, 0.0199, -0.0284, 0.0037, -2.55, 0.3)" gradientUnits="userSpaceOnUse" id="gradient2" spreadMethod="pad" x1="-819.2" x2="819.2">
      <stop offset="0.0" stop-color="#000000"/>
      <stop offset="0.5098039215686274" stop-color="#423464"/>
      <stop offset="1.0" stop-color="#000000"/>
    </linearGradient>
  </defs>
</svg>
