<?xml version="1.0" encoding="UTF-8" standalone="no"?>
<svg xmlns:xlink="http://www.w3.org/1999/xlink" height="32.25px" width="54.75px" xmlns="http://www.w3.org/2000/svg">
  <g transform="matrix(1.0, 0.0, 0.0, 1.0, 35.1, 18.8)">
    <path d="M11.2 -11.1 L11.15 -11.15 Q8.3 -13.45 4.15 -13.4 -0.3 -13.45 -3.2 -10.75 -6.2 -8.1 -6.05 -3.1 -5.8 1.75 -2.75 5.45 0.1 8.8 4.7 8.4 9.4 8.05 11.55 5.4 13.55 2.6 13.65 -3.2 13.8 -8.85 11.2 -11.1 M12.65 -12.0 Q16.05 -9.75 15.95 -3.1 15.85 3.5 13.45 6.65 L13.4 6.75 Q10.8 9.95 5.1 10.55 -0.8 10.95 -4.5 6.75 L-4.5 6.7 Q-8.1 2.55 -8.25 -3.25 -8.45 -9.15 -4.85 -12.3 -1.3 -15.5 4.0 -14.85 9.25 -14.25 12.65 -12.0" fill="url(#gradient0)" fill-rule="evenodd" stroke="none"/>
    <path d="M-18.55 -5.6 L-18.8 -8.95 -18.75 -9.65 Q-13.7 -11.0 -9.75 -11.15 L1.25 -10.45 Q8.2 -9.6 10.9 -8.3 L14.25 -6.55 15.2 -5.6 Q15.85 -4.85 15.75 -2.45 L15.65 1.4 Q14.9 -0.45 13.2 -2.8 -4.55 -9.4 -18.55 -5.6" fill="#000000" fill-opacity="0.32941177" fill-rule="evenodd" stroke="none"/>
    <path d="M15.2 -5.6 L14.25 -6.55 10.9 -8.3 Q8.2 -9.6 1.25 -10.45 L-9.75 -11.15 Q-13.7 -11.0 -18.75 -9.65 L-18.8 -8.95 -18.55 -5.6 -17.35 1.4 Q-23.95 -6.55 -24.3 -8.15 -24.8 -6.55 -29.4 -6.7 L-25.85 -9.8 Q-33.75 -11.6 -35.1 -13.85 -25.45 -13.95 -18.95 -15.9 -12.5 -17.9 -0.7 -16.65 12.95 -13.7 19.65 -9.9 L15.55 -8.2 Q17.3 -5.95 18.3 -3.0 L15.2 -5.6" fill="url(#gradient1)" fill-rule="evenodd" stroke="none"/>
    <path d="M13.4 7.45 L14.3 7.1 12.35 8.75 Q13.6 11.25 11.4 12.95 11.45 11.75 10.4 9.65 L6.25 10.6 2.3 10.75 Q2.25 12.7 -0.55 13.45 L-0.1 10.7 -5.5 10.1 -10.15 8.85 -13.1 10.85 Q-13.5 9.2 -12.25 7.9 -14.45 6.7 -16.2 5.0 L-16.4 4.75 Q-16.2 4.8 -15.85 5.0 L-15.05 5.25 -13.55 5.9 Q-8.35 7.9 -0.7 8.8 L-0.25 8.85 3.0 8.95 6.25 8.75 8.35 8.5 10.3 8.1 11.15 7.9 13.4 7.45" fill="url(#gradient2)" fill-rule="evenodd" stroke="none"/>
    <path d="M2.5 -18.3 Q8.7 -18.35 12.4 -16.05 M14.65 8.75 Q16.8 7.75 16.85 6.3 M-17.1 6.1 Q-18.7 4.7 -19.05 3.2" fill="none" stroke="#000000" stroke-linecap="round" stroke-linejoin="round" stroke-opacity="0.4392157" stroke-width="1.0"/>
  </g>
  <defs>
    <linearGradient gradientTransform="matrix(0.0047, 0.0199, -0.0242, 0.0037, 1.2, 0.15)" gradientUnits="userSpaceOnUse" id="gradient0" spreadMethod="pad" x1="-819.2" x2="819.2">
      <stop offset="0.19607843137254902" stop-color="#000000"/>
      <stop offset="0.5098039215686274" stop-color="#7a78d4"/>
      <stop offset="0.8235294117647058" stop-color="#000000"/>
    </linearGradient>
    <linearGradient gradientTransform="matrix(0.0055, 0.0209, -0.0284, -0.0013, -2.55, 0.85)" gradientUnits="userSpaceOnUse" id="gradient1" spreadMethod="pad" x1="-819.2" x2="819.2">
      <stop offset="0.0" stop-color="#000000"/>
      <stop offset="0.5098039215686274" stop-color="#423464"/>
      <stop offset="1.0" stop-color="#000000"/>
    </linearGradient>
    <linearGradient gradientTransform="matrix(0.0055, 0.0199, -0.0284, 0.0037, -2.55, 0.3)" gradientUnits="userSpaceOnUse" id="gradient2" spreadMethod="pad" x1="-819.2" x2="819.2">
      <stop offset="0.0" stop-color="#000000"/>
      <stop offset="0.5098039215686274" stop-color="#423464"/>
      <stop offset="1.0" stop-color="#000000"/>
    </linearGradient>
  </defs>
</svg>
