<?xml version="1.0" encoding="UTF-8" standalone="no"?>
<svg xmlns:xlink="http://www.w3.org/1999/xlink" height="28.35px" width="60.15px" xmlns="http://www.w3.org/2000/svg">
  <g transform="matrix(1.0, 0.0, 0.0, 1.0, 30.1, 14.95)">
    <path d="M25.25 -2.65 L24.9 -2.85 23.65 -3.15 Q6.2 -7.3 -12.05 -5.9 -11.2 -3.05 -9.65 -0.25 -7.0 4.75 -2.35 9.7 7.0 11.55 19.45 11.65 L19.55 11.65 20.15 11.65 20.75 11.65 23.65 11.65 19.0 12.4 -2.35 11.35 -5.2 13.4 -3.45 10.65 Q-13.55 3.5 -16.4 -5.3 -24.1 -7.7 -30.1 -7.95 -22.25 -9.8 -14.35 -10.15 -17.15 -10.75 -18.8 -13.45 -14.65 -11.85 -3.05 -12.1 3.45 -12.0 13.35 -10.1 23.2 -8.2 30.05 -4.5 L27.1 -4.35 27.85 -3.45 29.3 -0.55 25.25 -2.65" fill="#000000" fill-rule="evenodd" stroke="none"/>
    <path d="M-9.65 -0.25 Q-11.2 -3.05 -12.05 -5.9 6.2 -7.3 23.65 -3.15 L24.9 -2.85 25.25 -2.65 Q26.05 -0.35 25.25 2.5 11.2 0.25 -9.65 -0.25" fill="#3e295d" fill-opacity="0.24705882" fill-rule="evenodd" stroke="none"/>
    <path d="M2.75 -14.45 Q11.05 -14.3 22.15 -11.0 L25.0 -7.95" fill="none" stroke="#000000" stroke-linecap="round" stroke-linejoin="round" stroke-opacity="0.44705883" stroke-width="1.0"/>
  </g>
</svg>
