<?xml version="1.0" encoding="UTF-8" standalone="no"?>
<svg xmlns:xlink="http://www.w3.org/1999/xlink" height="35.15px" width="60.95px" xmlns="http://www.w3.org/2000/svg">
  <g transform="matrix(1.0, 0.0, 0.0, 1.0, 29.8, 17.7)">
    <path d="M-10.1 -9.7 Q8.4 -17.6 25.65 -9.7 L24.55 -8.45 Q25.6 -7.1 25.65 -2.95 21.75 -6.0 12.3 -5.8 -3.2 -3.7 -10.65 0.85 L-10.1 -2.95 -10.1 -9.7" fill="#151b3f" fill-opacity="0.2784314" fill-rule="evenodd" stroke="none"/>
    <path d="M5.05 -17.6 Q16.05 -18.5 25.9 -11.9 29.35 -9.55 31.15 -9.3 30.15 -7.5 28.25 -7.15 28.95 -6.3 28.95 -4.15 27.85 -5.75 18.7 -9.85 9.55 -14.0 -7.45 -6.5 -8.45 -4.8 -8.7 -1.8 -8.95 1.2 -6.2 8.0 -14.25 2.65 -16.25 -2.25 -25.25 -1.1 -29.8 -9.2 -22.9 -5.85 -13.35 -11.2 -3.85 -16.55 5.05 -17.6 M6.8 15.6 Q11.15 14.1 19.25 16.2 20.5 17.65 13.6 17.4 8.4 17.55 5.4 17.3 2.4 17.05 6.8 15.6" fill="#27263a" fill-rule="evenodd" stroke="none"/>
  </g>
</svg>
