<?xml version="1.0" encoding="UTF-8" standalone="no"?>
<svg xmlns:xlink="http://www.w3.org/1999/xlink" height="43.45px" width="42.25px" xmlns="http://www.w3.org/2000/svg">
  <g transform="matrix(1.0, 0.0, 0.0, 1.0, 21.15, 22.95)">
    <path d="M-13.7 -9.1 L-15.75 -8.8 Q-16.05 -9.0 -14.1 -10.8 -20.25 -11.85 -16.95 -14.2 -22.1 -15.0 -20.95 -17.0 -11.2 -19.8 3.6 -20.0 16.9 -18.9 19.35 -15.05 L21.1 -12.25 19.05 -12.75 Q11.3 -14.45 -1.25 -11.7 L-13.7 -9.1 M10.65 17.75 L7.55 19.0 3.7 19.25 Q1.75 20.15 -1.95 20.5 L-1.3 18.7 -3.55 18.9 -8.7 18.75 -5.15 16.55 Q-9.4 15.05 -10.05 12.85 0.0 18.45 10.65 17.75" fill="#3a183a" fill-rule="evenodd" stroke="none"/>
    <path d="M-13.7 -9.1 L-1.25 -11.7 Q11.3 -14.45 19.05 -12.75 20.05 -10.6 20.0 -8.85 5.25 -10.75 -14.45 -3.2 -14.5 -5.65 -13.7 -9.1" fill="#000000" fill-opacity="0.21960784" fill-rule="evenodd" stroke="none"/>
    <path d="M14.45 -19.5 Q9.55 -21.75 -0.5 -22.45" fill="none" stroke="#000000" stroke-linecap="round" stroke-linejoin="round" stroke-opacity="0.31764707" stroke-width="1.0"/>
  </g>
</svg>
