<?xml version="1.0" encoding="UTF-8" standalone="no"?>
<svg xmlns:xlink="http://www.w3.org/1999/xlink" height="25.75px" width="100.65px" xmlns="http://www.w3.org/2000/svg">
  <g transform="matrix(1.0, 0.0, 0.0, 1.0, 50.0, 12.7)">
    <path d="M13.6 -8.1 L13.6 -6.05 Q14.85 -5.35 14.3 -3.0 L13.7 -3.0 Q13.85 2.35 14.5 7.35 15.15 9.75 18.6 10.35 36.35 11.9 47.35 9.55 49.25 9.15 49.9 6.7 L49.55 -6.7 Q49.2 -9.15 47.9 -9.45 46.0 -9.6 45.95 -8.0 45.95 -2.2 46.35 3.7 46.45 5.75 44.25 6.45 L37.5 7.2 Q33.05 7.3 20.6 7.0 18.25 6.55 17.95 3.95 L17.0 -6.8 Q16.6 -9.55 14.75 -9.35 13.7 -9.25 13.6 -8.1 M13.7 -3.0 Q5.7 -4.1 -2.05 -3.05 -1.9 2.65 -2.05 7.7 -2.15 10.25 -6.05 11.25 L-21.7 12.3 Q-38.5 12.1 -43.15 10.6 -47.75 9.1 -47.8 7.05 -48.95 -1.45 -49.25 -10.5 -48.95 -11.95 -47.85 -11.95 -45.85 -12.05 -45.3 -10.65 L-44.6 -0.7 -44.1 4.05 Q-43.8 6.05 -41.65 6.75 -38.6 8.0 -23.45 8.5 L-8.9 7.7 Q-6.4 7.25 -5.85 4.5 L-5.7 -8.8 Q-5.35 -10.15 -3.55 -10.05 -2.75 -10.0 -2.35 -8.35 L-2.2 -6.3 Q5.6 -7.8 13.6 -6.05 M-2.2 -6.3 L-2.05 -3.05" fill="none" stroke="#000000" stroke-linecap="round" stroke-linejoin="round" stroke-width="1.5"/>
  </g>
</svg>
