<?xml version="1.0" encoding="UTF-8" standalone="no"?>
<svg xmlns:xlink="http://www.w3.org/1999/xlink" height="44.8px" width="111.0px" xmlns="http://www.w3.org/2000/svg">
  <g transform="matrix(1.0, 0.0, 0.0, 1.0, 59.6, 33.85)">
    <path d="M43.45 -30.9 L-48.35 -33.1 Q-52.85 -32.5 -55.35 -30.2 -57.35 -28.5 -58.2 -25.75 -58.95 -23.55 -58.85 -20.7 L-58.1 -1.6 -57.8 -0.5 Q-56.05 5.3 -48.65 8.85 L-46.3 9.1 -36.7 9.8 -28.7 10.1 -19.9 10.2 -13.2 10.15 -6.1 9.95 -4.65 9.9 Q-0.7 9.25 3.35 5.25 6.6 3.2 10.85 5.25 14.3 9.45 19.2 10.05 L37.25 10.05 Q47.75 10.75 49.15 3.25 L50.65 -22.15 Q50.05 -29.7 43.45 -30.9 Z" fill="none" stroke="#000000" stroke-linecap="round" stroke-linejoin="round" stroke-width="1.5"/>
  </g>
</svg>
