<?xml version="1.0" encoding="UTF-8" standalone="no"?>
<svg xmlns:xlink="http://www.w3.org/1999/xlink" height="44.1px" width="110.35px" xmlns="http://www.w3.org/2000/svg">
  <g transform="matrix(1.0, 0.0, 0.0, 1.0, 59.15, 30.15)">
    <path d="M14.75 -22.3 Q10.55 -24.85 2.85 -22.85 -15.5 -30.1 -36.05 -29.3 L-48.15 -28.25 -53.1 -27.55 -53.6 -27.45 -54.7 -27.2 -57.45 -26.7 Q-58.85 -22.8 -58.15 -16.8 L-57.85 -15.15 -56.75 -10.7 Q-55.9 -7.9 -54.75 -5.45 L-53.6 -3.0 Q-44.8 13.3 -22.45 13.2 -4.2 13.55 1.35 0.05 L2.15 -2.15 Q4.25 -8.8 4.65 -15.4 9.2 -18.65 13.2 -15.85 13.1 -6.85 15.25 0.05 18.55 11.2 34.4 11.65 49.75 12.0 50.4 -11.55 50.65 -22.5 48.55 -24.65 L48.1 -25.2 Q45.85 -26.5 37.7 -26.25 27.45 -26.6 14.75 -22.3 M47.65 -11.9 Q47.15 8.35 32.0 7.3 15.25 6.15 17.4 -18.55 28.1 -22.75 46.1 -20.05 48.1 -18.4 47.65 -11.9 M-1.5 -18.75 Q2.0 5.95 -20.95 8.6 -52.2 7.45 -49.8 -20.75 -27.75 -26.05 -1.5 -18.75" fill="none" stroke="#000000" stroke-linecap="round" stroke-linejoin="round" stroke-width="1.5"/>
  </g>
</svg>
