<?xml version="1.0" encoding="UTF-8" standalone="no"?>
<svg xmlns:xlink="http://www.w3.org/1999/xlink" height="44.2px" width="111.35px" xmlns="http://www.w3.org/2000/svg">
  <g transform="matrix(1.0, 0.0, 0.0, 1.0, 57.05, 30.9)">
    <path d="M51.35 -18.7 Q49.0 -26.95 39.25 -27.45 27.65 -28.35 20.95 -22.1 14.3 -15.95 11.15 -16.4 6.05 -17.2 -1.65 -23.75 -9.45 -30.35 -24.35 -30.15 -39.35 -29.95 -45.05 -26.4 -50.7 -22.85 -51.35 -21.75 -55.05 -18.0 -56.0 -12.9 -56.5 -10.5 -56.1 -8.15 -55.5 -4.75 -53.15 -1.35 -40.85 12.15 -22.75 12.45 -4.25 12.45 2.6 0.7 5.35 -2.6 10.55 -2.7 15.1 -1.95 17.1 2.9 22.2 13.8 38.05 12.4 49.25 10.6 48.5 3.4 45.25 5.75 40.75 6.6 36.2 7.45 31.15 6.05 26.1 4.55 22.75 -2.1 19.35 -8.85 23.7 -14.3 28.0 -19.8 34.95 -20.85 41.9 -21.95 45.35 -21.05 48.8 -20.2 51.35 -18.7 54.75 -11.5 52.95 -4.9 51.1 1.7 48.5 3.4 M-1.35 -9.85 Q-1.75 -3.4 -6.8 1.1 -11.9 5.55 -18.4 5.75 L-28.6 5.45 Q-32.25 4.95 -36.1 3.1 L-38.8 1.7 Q-45.8 -2.7 -46.2 -9.1 -46.6 -15.5 -40.15 -20.1 -37.65 -21.85 -34.7 -22.9 -31.25 -24.3 -27.15 -24.65 L-24.0 -24.85 Q-14.4 -25.05 -7.7 -20.7 -1.0 -16.35 -1.35 -9.85" fill="none" stroke="#000000" stroke-linecap="round" stroke-linejoin="round" stroke-width="1.5"/>
  </g>
</svg>
