<?xml version="1.0" encoding="UTF-8" standalone="no"?>
<svg xmlns:xlink="http://www.w3.org/1999/xlink" height="42.3px" width="110.0px" xmlns="http://www.w3.org/2000/svg">
  <g transform="matrix(1.0, 0.0, 0.0, 1.0, 59.85, 27.85)">
    <path d="M49.2 -21.95 Q50.3 -6.45 45.75 4.9 35.65 14.8 18.2 11.25 14.5 2.95 8.6 3.95 2.6 4.95 -0.85 11.95 -24.3 16.75 -43.15 8.3 -52.3 3.7 -56.85 -8.45 -58.1 -12.0 -59.05 -16.25 -59.75 -26.05 -51.1 -26.9 -28.45 -27.45 1.45 -26.35 30.65 -25.15 43.3 -26.4 47.95 -26.55 49.2 -21.95 M43.35 -0.65 Q39.85 6.6 29.8 7.7 L21.3 7.65 Q18.85 0.2 10.5 -0.55 2.1 -1.3 -5.1 7.55 -20.7 10.95 -33.75 5.3 -39.25 2.9 -42.85 -0.2 -48.9 -6.8 -49.75 -14.15 -50.8 -20.65 -46.95 -22.3 L-39.05 -22.6 -17.85 -22.1 -11.7 -21.85 -7.5 -21.65 14.85 -21.0 Q26.3 -20.65 41.0 -21.75 45.45 -21.5 45.7 -16.0 45.95 -8.0 43.35 -0.65" fill="none" stroke="#000000" stroke-linecap="round" stroke-linejoin="round" stroke-width="1.5"/>
  </g>
</svg>
