<?xml version="1.0" encoding="UTF-8" standalone="no"?>
<svg xmlns:xlink="http://www.w3.org/1999/xlink" height="45.05px" width="108.4px" xmlns="http://www.w3.org/2000/svg">
  <g transform="matrix(1.0, 0.0, 0.0, 1.0, 59.5, 33.15)">
    <path d="M46.6 -2.05 L46.25 -0.9 45.15 1.35 43.6 2.85 19.3 9.9 Q16.65 10.85 15.25 7.65 L13.65 4.0 Q11.3 0.55 9.25 1.0 6.15 1.05 4.4 4.0 3.6 5.75 3.15 7.6 1.3 11.1 -2.85 11.15 L-49.85 3.95 Q-57.45 2.35 -58.35 -3.6 L-58.4 -3.7 -58.75 -26.15 -58.35 -27.15 -58.2 -27.4 Q-56.6 -31.7 -52.05 -32.2 L4.25 -32.4 45.2 -30.8 45.85 -29.9 47.2 -27.2 48.1 -24.35 Q48.45 -12.5 46.6 -2.05 M48.1 -24.35 L-45.25 -26.1 Q-51.45 -26.25 -51.3 -20.75 L-51.7 -5.8 Q-51.35 -1.85 -45.95 -1.3 L-30.9 -0.85 -30.85 -0.85 -22.85 -0.75 Q13.25 0.0 45.4 -0.9 L46.25 -0.9" fill="none" stroke="#000000" stroke-linecap="round" stroke-linejoin="round" stroke-width="1.5"/>
  </g>
</svg>
