<?xml version="1.0" encoding="UTF-8" standalone="no"?>
<svg xmlns:xlink="http://www.w3.org/1999/xlink" height="47.1px" width="112.2px" xmlns="http://www.w3.org/2000/svg">
  <g transform="matrix(1.0, 0.0, 0.0, 1.0, 62.5, 31.7)">
    <path d="M-48.3 -16.45 L-45.4 -15.85 Q-43.75 -14.2 -43.15 -10.9 L-43.0 -9.9 -43.0 -8.25 -50.7 -8.0 Q-61.0 -8.25 -60.8 -9.45 -60.65 -10.25 -61.15 -10.55 L-61.6 -10.8 -61.5 -11.85 -61.4 -12.2 Q-61.2 -14.3 -60.65 -15.65 L-60.5 -16.0 -59.1 -19.0 -48.3 -16.45" fill="#3b3b3b" fill-rule="evenodd" stroke="none"/>
    <path d="M-43.0 -8.25 Q-43.05 -6.9 -43.5 -6.05 -43.9 -5.1 -44.8 -4.75 L-47.2 -4.15 -48.95 -3.55 -50.95 -3.1 Q-55.85 -1.85 -59.95 -2.0 -61.85 -6.55 -61.75 -7.65 L-61.7 -9.0 -61.6 -10.8 -61.15 -10.55 Q-60.65 -10.25 -60.8 -9.45 -61.0 -8.25 -50.7 -8.0 L-43.0 -8.25" fill="#191919" fill-rule="evenodd" stroke="none"/>
    <path d="M-48.95 -3.55 Q-48.05 4.75 -43.5 10.45 -39.95 12.35 -36.0 13.6 -32.2 14.75 -22.65 14.65 L-19.6 14.55 -15.45 14.2 -15.15 14.15 -11.35 12.95 Q-3.95 10.05 -0.55 5.3 3.4 1.15 6.6 1.5 9.9 1.6 12.35 5.3 16.2 12.4 24.05 13.05 L26.8 13.25 32.7 13.25 33.1 13.2 Q37.75 12.8 41.35 11.35 48.2 6.6 48.75 -9.65 49.7 -20.65 46.0 -24.6 L38.85 -30.05 Q-2.7 -31.3 -40.15 -30.85 -46.4 -26.4 -48.3 -16.45 L-45.4 -15.85 Q-43.75 -14.2 -43.15 -10.9 L-43.0 -9.9 -43.0 -8.25 Q-43.05 -6.9 -43.5 -6.05 -43.9 -5.1 -44.8 -4.75 L-47.2 -4.15 -48.95 -3.55 -50.95 -3.1 Q-55.85 -1.85 -59.95 -2.0 -61.85 -6.55 -61.75 -7.65 L-61.7 -9.0 -61.6 -10.8 -61.5 -11.85 -61.4 -12.2 Q-61.2 -14.3 -60.65 -15.65 L-60.5 -16.0 -59.1 -19.0 -48.3 -16.45" fill="none" stroke="#000000" stroke-linecap="round" stroke-linejoin="round" stroke-width="1.5"/>
  </g>
</svg>
