<?xml version="1.0" encoding="UTF-8" standalone="no"?>
<svg xmlns:xlink="http://www.w3.org/1999/xlink" height="68.3px" width="46.4px" xmlns="http://www.w3.org/2000/svg">
  <g transform="matrix(1.0, 0.0, 0.0, 1.0, 46.35, 25.4)">
    <path d="M-32.15 -16.0 Q-27.55 -20.4 -21.1 -20.45 L-20.95 -20.45 Q-16.9 -20.45 -13.6 -18.75 -11.5 -17.7 -9.75 -16.0 -5.1 -11.5 -5.1 -5.25 -5.1 1.05 -9.75 5.5 -13.5 9.15 -18.55 9.85 L-20.95 10.0 Q-23.9 10.0 -26.45 9.1 -29.6 8.0 -32.15 5.5 -36.8 1.05 -36.8 -5.25 -36.8 -11.5 -32.15 -16.0 M-38.4 5.45 L-35.8 8.5 Q-29.75 14.25 -21.25 14.25 -16.15 14.25 -12.1 12.2 -9.15 10.85 -6.65 8.5 -0.7 2.9 -0.7 -5.1 -0.7 -13.15 -6.65 -18.9 -12.75 -24.65 -21.25 -24.65 -24.55 -24.65 -27.65 -23.6 -32.05 -22.45 -35.8 -18.9 -41.7 -13.15 -41.7 -5.1 -41.7 -2.3 -41.0 0.15 L-41.0 0.2 Q-40.2 2.8 -38.4 5.45 -42.95 6.45 -41.5 20.9 -40.1 35.35 -40.4 37.25 -40.7 39.15 -44.05 42.15 -43.75 33.95 -45.25 20.1 -46.8 6.3 -41.0 0.2" fill="none" stroke="#000000" stroke-linecap="round" stroke-linejoin="round" stroke-width="1.5"/>
  </g>
</svg>
