<?xml version="1.0" encoding="UTF-8" standalone="no"?>
<svg xmlns:xlink="http://www.w3.org/1999/xlink" height="49.65px" width="123.25px" xmlns="http://www.w3.org/2000/svg">
  <g transform="matrix(1.0, 0.0, 0.0, 1.0, 65.05, 32.05)">
    <path d="M3.45 -14.1 Q-0.55 -13.1 -1.05 -5.15 -2.65 18.5 -31.25 16.75 -48.0 16.85 -54.65 2.35 -56.5 -1.0 -58.1 -8.1 -59.2 -13.35 -61.8 -17.6 -64.15 -20.7 -64.3 -23.1 -64.45 -25.75 -62.05 -27.6 -50.15 -31.35 -37.45 -31.3 -29.55 -31.35 -21.3 -29.85 -12.8 -28.5 -2.5 -24.75 4.05 -22.3 12.75 -25.35 25.9 -30.8 41.45 -29.95 48.75 -29.85 56.75 -27.2 57.4 -26.15 57.45 -24.65 57.4 -22.25 55.6 -18.75 53.3 -13.95 51.8 -4.5 48.35 13.75 33.9 15.15 14.3 16.95 9.2 -1.8 L7.65 -9.85 Q6.9 -14.6 3.45 -14.1 M40.45 -24.0 L42.7 -23.7 Q49.15 -21.95 48.7 -11.95 48.2 -0.75 43.0 5.8 40.85 8.5 36.5 9.45 24.15 12.15 17.85 6.0 14.55 2.0 12.95 -5.45 10.25 -18.0 20.15 -22.0 L21.95 -22.6 27.1 -23.75 39.85 -24.1 40.45 -24.0 M-40.65 -24.1 L-32.55 -24.65 -27.25 -24.5 -19.1 -23.5 -15.7 -22.7 Q-7.85 -20.35 -5.95 -15.1 -4.9 -10.15 -6.05 -4.0 -7.95 5.85 -14.95 9.35 -18.95 11.25 -28.9 11.1 -40.15 11.25 -45.8 5.1 -51.5 -1.15 -52.5 -9.7 -53.6 -18.35 -48.85 -21.45 -45.55 -23.3 -40.65 -24.1" fill="none" stroke="#000000" stroke-linecap="round" stroke-linejoin="round" stroke-width="1.5"/>
  </g>
</svg>
