<?xml version="1.0" encoding="UTF-8" standalone="no"?>
<svg xmlns:xlink="http://www.w3.org/1999/xlink" height="47.85px" width="96.4px" xmlns="http://www.w3.org/2000/svg">
  <g transform="matrix(1.0, 0.0, 0.0, 1.0, 47.1, 30.25)">
    <path d="M-3.4 -3.35 Q2.45 -7.55 7.65 -7.35 L9.15 -7.3 Q12.85 -6.8 16.5 -2.95 16.25 -4.75 16.3 -6.6 16.4 -16.0 21.15 -22.65 26.0 -29.3 32.7 -29.1 39.45 -28.95 43.95 -22.25 48.65 -15.5 48.55 -6.25 48.45 3.0 43.6 9.65 38.95 16.2 32.25 16.2 25.55 16.2 20.85 9.55 18.4 5.95 17.25 1.6 13.25 -3.05 9.05 -3.4 L8.3 -3.45 Q2.8 -3.5 -4.3 0.95 -5.75 6.0 -9.6 10.1 -15.85 16.8 -24.75 16.85 -33.65 16.8 -40.0 10.0 -46.35 3.15 -46.35 -6.55 -46.35 -16.15 -40.0 -22.9 -33.55 -29.7 -24.6 -29.5 -15.6 -29.35 -9.4 -22.45 -3.2 -15.6 -3.25 -6.15 L-3.4 -3.35 Q-3.7 -1.1 -4.3 0.95 M17.25 1.6 Q16.65 -0.6 16.5 -2.95" fill="none" stroke="#000000" stroke-linecap="round" stroke-linejoin="round" stroke-width="1.5"/>
  </g>
</svg>
