<?xml version="1.0" encoding="UTF-8" standalone="no"?>
<svg xmlns:xlink="http://www.w3.org/1999/xlink" height="35.35px" width="62.85px" xmlns="http://www.w3.org/2000/svg">
  <g transform="matrix(1.0, 0.0, 0.0, 1.0, 101.6, 24.7)">
    <path d="M-48.85 -23.65 L-43.1 -23.95 -42.6 -23.45 -42.8 -22.4 -46.95 -20.25 -48.25 -21.1 -44.0 -22.6 -48.7 -22.0 -48.85 -23.65" fill="#ece29b" fill-rule="evenodd" stroke="none"/>
    <path d="M-43.1 -23.95 L-39.25 -24.2 -42.8 -22.4 -42.6 -23.45 -43.1 -23.95" fill="#101010" fill-rule="evenodd" stroke="none"/>
    <path d="M-41.65 -21.15 L-45.35 -16.7 -46.55 -17.75 -43.25 -21.25 -46.95 -18.6 -46.95 -20.25 -42.8 -22.4 -42.85 -22.3 Q-42.35 -22.25 -41.8 -21.85 L-41.65 -21.15 M-48.25 -21.1 L-48.75 -21.35 -48.7 -22.0 -44.0 -22.6 -48.25 -21.1" fill="#c4a26f" fill-rule="evenodd" stroke="none"/>
    <path d="M-39.25 -24.2 L-41.65 -21.15 -41.8 -21.85 Q-42.35 -22.25 -42.85 -22.3 L-42.8 -22.4 -39.25 -24.2" fill="#000000" fill-rule="evenodd" stroke="none"/>
    <path d="M-46.55 -17.75 L-47.1 -18.1 -46.95 -18.6 -43.25 -21.25 -46.55 -17.75" fill="#8c744f" fill-rule="evenodd" stroke="none"/>
    <path d="M-45.35 -16.7 L-46.25 -15.95 -88.55 5.75 Q-88.75 6.4 -89.7 6.5 L-93.7 8.55 Q-94.1 9.2 -94.85 9.15 L-96.5 10.0 Q-97.6 10.45 -98.25 9.5 L-101.0 4.15 Q-101.4 3.1 -100.35 2.45 L-98.7 1.6 Q-98.3 0.85 -97.55 1.0 L-93.55 -1.05 Q-92.95 -1.85 -92.35 -1.55 L-92.3 -1.6 -50.0 -23.3 -48.85 -23.65 -43.1 -23.95 -39.25 -24.2 -41.65 -21.15 -45.35 -16.7 M-89.6 3.7 L-88.55 5.75 M-91.25 0.45 L-89.6 3.7 M-91.25 0.45 L-92.3 -1.6" fill="none" stroke="#000000" stroke-linecap="round" stroke-linejoin="round" stroke-width="1.0"/>
    <path d="M-45.35 -16.7 L-46.55 -17.75 -47.1 -18.1 -46.95 -18.6 -46.95 -20.25 -48.25 -21.1 -48.75 -21.35 -48.7 -22.0 -48.85 -23.65" fill="none" stroke="#000000" stroke-linecap="round" stroke-linejoin="round" stroke-width="0.5"/>
    <path d="M-47.1 -18.1 L-89.6 3.7 M-93.7 8.55 L-97.55 1.0 M-98.7 1.6 L-94.85 9.15 M-93.55 -1.05 L-89.7 6.5 M-48.75 -21.35 L-91.25 0.45" fill="none" stroke="#000000" stroke-linecap="round" stroke-linejoin="round" stroke-opacity="0.47843137" stroke-width="0.5"/>
  </g>
</svg>
