<?xml version="1.0" encoding="UTF-8" standalone="no"?>
<svg xmlns:xlink="http://www.w3.org/1999/xlink" height="48.15px" width="106.45px" xmlns="http://www.w3.org/2000/svg">
  <g transform="matrix(1.0, 0.0, 0.0, 1.0, 57.2, 33.7)">
    <path d="M32.95 -25.1 L35.4 -25.9 Q39.05 -27.25 42.6 -29.0 45.35 -29.65 47.0 -22.6 51.8 -1.4 41.25 4.5 37.15 6.65 31.95 8.4 L29.25 9.3 Q28.15 9.55 27.05 9.95 L24.45 10.6 16.5 12.2 Q13.3 1.35 5.85 1.45 L5.5 1.45 3.8 1.75 3.65 1.75 Q2.6 1.9 1.7 2.3 0.85 2.65 0.1 3.1 -4.55 5.95 -6.3 13.7 L-18.95 11.7 -21.1 11.15 -22.55 10.9 -27.55 9.7 -28.9 9.3 -31.4 8.6 Q-40.6 5.95 -49.65 2.25 -54.8 -0.1 -55.7 -3.45 -57.9 -16.9 -53.5 -27.25 -49.5 -34.65 -44.55 -32.45 -38.1 -29.75 -31.35 -27.65 -25.7 -25.95 -19.85 -24.85 L-17.9 -24.35 -16.1 -24.1 -12.45 -23.45 -10.9 -23.3 -9.4 -23.15 5.35 -22.1 7.3 -22.05 8.95 -22.05 10.65 -22.05 18.75 -22.35 Q23.55 -22.75 28.25 -23.8 L30.7 -24.35 32.95 -25.1 Z" fill="none" stroke="#000000" stroke-linecap="round" stroke-linejoin="round" stroke-width="1.5"/>
  </g>
</svg>
