<?xml version="1.0" encoding="UTF-8" standalone="no"?>
<svg xmlns:xlink="http://www.w3.org/1999/xlink" height="44.1px" width="29.8px" xmlns="http://www.w3.org/2000/svg">
  <g transform="matrix(1.0, 0.0, 0.0, 1.0, 81.45, 25.5)">
    <path d="M-62.25 -21.45 L-60.85 4.45 Q-60.5 10.7 -58.65 17.85 -71.0 17.0 -76.9 8.8 -81.0 0.1 -80.7 -7.15 -75.5 -17.65 -62.85 -23.15 L-62.25 -21.45" fill="#e7e7e7" fill-rule="evenodd" stroke="none"/>
    <path d="M-62.25 -21.45 L-52.4 -24.75 -52.4 1.7 -53.25 3.7 -60.85 4.45 -62.25 -21.45" fill="#464646" fill-rule="evenodd" stroke="none"/>
    <path d="M-60.85 4.45 L-53.25 3.7 -52.4 1.7 -52.4 -24.75 -62.25 -21.45 -60.85 4.45 Q-60.5 10.7 -58.65 17.85 -71.0 17.0 -76.9 8.8 -81.0 0.1 -80.7 -7.15 -75.5 -17.65 -62.85 -23.15 L-62.25 -21.45" fill="none" stroke="#000000" stroke-linecap="round" stroke-linejoin="round" stroke-width="1.5"/>
  </g>
</svg>
