<?xml version="1.0" encoding="UTF-8" standalone="no"?>
<svg xmlns:xlink="http://www.w3.org/1999/xlink" height="59.5px" width="129.25px" xmlns="http://www.w3.org/2000/svg">
  <g transform="matrix(1.0, 0.0, 0.0, 1.0, 78.25, 35.2)">
    <path d="M47.5 -21.25 L50.25 -18.4 49.95 -15.75 27.95 -16.95 27.1 -19.85 47.5 -21.25 M49.65 -9.35 L48.9 -2.9 Q47.6 -3.7 47.9 -6.0 48.05 -8.15 49.65 -9.35 M47.45 5.05 L47.6 7.7 47.3 9.55 47.25 9.7 Q46.55 10.45 42.6 9.75 L32.45 8.65 31.2 8.5 28.9 8.05 Q27.4 7.7 27.4 6.85 L26.95 7.4 Q28.05 6.0 28.3 5.05 L47.45 5.05 M-67.45 4.35 L-67.7 4.05 -67.75 4.0 -69.5 0.75 Q-64.55 3.1 -48.95 2.75 L-42.0 2.65 -9.0 3.7 -8.35 5.4 -6.6 7.15 Q-11.55 7.4 -23.75 7.25 -35.95 6.95 -41.35 7.25 -57.05 8.2 -61.25 7.15 -66.25 6.0 -67.45 4.35 M-76.6 -18.65 Q-77.3 -21.0 -76.1 -23.1 -74.3 -26.2 -60.1 -25.4 L-43.25 -23.95 -42.95 -23.95 -32.9 -22.7 Q-20.25 -20.95 -8.15 -21.25 -9.95 -19.4 -10.05 -17.3 L-43.45 -17.3 -76.6 -18.65 M34.8 -6.9 Q34.7 -8.3 35.4 -9.35 36.15 -10.3 37.1 -10.3 38.15 -10.3 38.85 -9.35 39.7 -8.3 39.75 -6.9 39.85 -5.5 39.0 -4.6 38.4 -3.5 37.4 -3.5 36.4 -3.5 35.55 -4.6 34.85 -5.5 34.8 -6.9 M-63.5 -11.15 Q-62.75 -12.05 -61.55 -12.05 -60.4 -12.05 -59.35 -11.15 -58.55 -10.05 -58.5 -8.75 -58.4 -7.35 -59.2 -6.45 -60.1 -5.35 -61.2 -5.35 -62.45 -5.35 -63.35 -6.45 -64.25 -7.35 -64.35 -8.75 -64.4 -10.05 -63.5 -11.15 M-43.3 -6.45 L-43.75 -5.85 Q-44.6 -4.8 -45.8 -4.8 -46.95 -4.8 -48.05 -5.85 -48.85 -6.8 -48.95 -8.15 -48.95 -9.55 -48.25 -10.65 -47.2 -11.55 -46.0 -11.55 -44.85 -11.55 -44.05 -10.65 L-43.55 -10.0 Q-43.0 -9.1 -43.0 -8.15 -42.95 -7.25 -43.3 -6.45 M-34.65 -10.5 Q-33.75 -11.4 -32.5 -11.4 -31.35 -11.4 -30.45 -10.5 -29.5 -9.35 -29.5 -7.9 -29.45 -6.65 -30.25 -5.7 -31.15 -4.6 -32.3 -4.6 -33.5 -4.6 -34.4 -5.7 -35.35 -6.65 -35.4 -7.9 -35.4 -9.35 -34.65 -10.5 M-21.8 -7.75 Q-21.8 -9.2 -21.0 -10.3 -20.1 -11.15 -18.95 -11.15 -17.7 -11.15 -16.75 -10.3 -15.8 -9.2 -15.8 -7.75 -15.75 -6.45 -16.5 -5.5 -17.4 -4.45 -18.7 -4.45 -19.9 -4.45 -20.75 -5.5 -21.7 -6.45 -21.8 -7.75" fill="#000000" fill-opacity="0.29803923" fill-rule="evenodd" stroke="none"/>
    <path d="M25.05 -22.25 Q38.1 -23.65 46.1 -26.7 48.95 -24.95 47.5 -21.25 L27.1 -19.85 26.75 -20.5 25.95 -21.45 25.05 -22.25 M47.25 9.7 L44.95 13.4 41.7 16.8 Q41.95 13.4 26.6 7.75 L26.95 7.4 27.4 6.85 Q27.4 7.7 28.9 8.05 L31.2 8.5 32.45 8.65 42.6 9.75 Q46.55 10.45 47.25 9.7 M6.6 8.3 L-18.35 12.65 Q-41.65 16.75 -53.6 23.55 -61.5 16.3 -67.45 4.35 -66.25 6.0 -61.25 7.15 -57.05 8.2 -41.35 7.25 -35.95 6.95 -23.75 7.25 -11.55 7.4 -6.6 7.15 -5.25 8.05 -3.35 8.15 L6.6 8.3 M-76.1 -23.1 Q-79.0 -32.55 -75.8 -34.45 L-4.55 -23.55 Q-5.15 -23.3 -5.85 -23.1 L-7.75 -21.7 -8.15 -21.25 Q-20.25 -20.95 -32.9 -22.7 L-42.95 -23.95 -43.25 -23.95 -60.1 -25.4 Q-74.3 -26.2 -76.1 -23.1" fill="#000000" fill-opacity="0.4862745" fill-rule="evenodd" stroke="none"/>
    <path d="M17.1 -6.65 Q21.6 -6.3 24.25 -5.1 24.7 -2.95 24.55 -0.65 L24.25 1.45 11.45 2.3 8.9 2.2 4.6 1.95 Q-1.8 1.5 -4.05 0.65 L-4.1 -1.1 -4.1 -1.8 -4.2 -4.9 Q-1.5 -6.15 3.75 -7.2 L4.6 -7.35 5.3 -7.5 4.6 -7.65 2.15 -8.35 -4.4 -10.3 -4.4 -12.35 -4.35 -15.15 -4.25 -16.7 Q-0.75 -17.65 4.6 -17.55 L5.3 -17.55 19.9 -17.1 23.45 -16.7 23.85 -14.95 24.2 -12.35 Q24.25 -10.5 23.75 -9.35 22.5 -8.35 20.05 -7.7 L15.45 -6.8 17.1 -6.65 M-4.55 -23.55 Q-1.45 -24.55 3.4 -24.1 L20.05 -23.6 Q23.15 -23.7 25.05 -22.25 38.1 -23.65 46.1 -26.7 48.95 -24.95 47.5 -21.25 L50.25 -18.4 49.95 -15.75 49.95 -12.9 49.65 -9.35 48.9 -2.9 48.35 1.1 47.45 5.05 47.6 7.7 47.3 9.55 47.25 9.7 44.95 13.4 41.7 16.8 Q41.95 13.4 26.6 7.75 25.9 8.3 25.0 8.5 L6.6 8.3 -18.35 12.65 Q-41.65 16.75 -53.6 23.55 -61.5 16.3 -67.45 4.35 L-67.7 4.05 -67.75 4.0 -69.5 0.75 Q-73.45 -7.1 -76.6 -18.65 -77.3 -21.0 -76.1 -23.1 -79.0 -32.55 -75.8 -34.45 L-4.55 -23.55 Q-5.15 -23.3 -5.85 -23.1 L-7.75 -21.7 -8.15 -21.25 Q-9.95 -19.4 -10.05 -17.3 L-10.1 -15.15 -10.05 -12.5 -9.6 -0.9 -9.5 0.05 Q-9.5 2.15 -9.0 3.7 L-8.35 5.4 -6.6 7.15 Q-5.25 8.05 -3.35 8.15 L6.6 8.3 M25.05 -22.25 L25.95 -21.45 26.75 -20.5 27.1 -19.85 47.5 -21.25 M27.95 -16.95 L28.3 -15.1 28.45 -13.45 29.05 -0.9 29.05 0.5 28.95 2.2 28.75 3.2 28.3 5.05 47.45 5.05 M27.1 -19.85 L27.95 -16.95 49.95 -15.75 M26.95 7.4 L27.4 6.85 Q27.4 7.7 28.9 8.05 L31.2 8.5 32.45 8.65 42.6 9.75 Q46.55 10.45 47.25 9.7 M26.95 7.4 Q28.05 6.0 28.3 5.05 M26.6 7.75 L26.95 7.4 M-76.1 -23.1 Q-74.3 -26.2 -60.1 -25.4 L-43.25 -23.95 -42.95 -23.95 -32.9 -22.7 Q-20.25 -20.95 -8.15 -21.25 M-10.05 -17.3 L-43.45 -17.3 -76.6 -18.65 M-6.6 7.15 Q-11.55 7.4 -23.75 7.25 -35.95 6.95 -41.35 7.25 -57.05 8.2 -61.25 7.15 -66.25 6.0 -67.45 4.35 M-9.0 3.7 L-42.0 2.65 -48.95 2.75 Q-64.55 3.1 -69.5 0.75" fill="none" stroke="#000000" stroke-linecap="round" stroke-linejoin="round" stroke-width="1.5"/>
    <path d="M34.8 -6.9 Q34.7 -8.3 35.4 -9.35 36.15 -10.3 37.1 -10.3 38.15 -10.3 38.85 -9.35 39.7 -8.3 39.75 -6.9 39.85 -5.5 39.0 -4.6 38.4 -3.5 37.4 -3.5 36.4 -3.5 35.55 -4.6 34.85 -5.5 34.8 -6.9 M48.9 -2.9 Q47.6 -3.7 47.9 -6.0 48.05 -8.15 49.65 -9.35 M-63.5 -11.15 Q-62.75 -12.05 -61.55 -12.05 -60.4 -12.05 -59.35 -11.15 -58.55 -10.05 -58.5 -8.75 -58.4 -7.35 -59.2 -6.45 -60.1 -5.35 -61.2 -5.35 -62.45 -5.35 -63.35 -6.45 -64.25 -7.35 -64.35 -8.75 -64.4 -10.05 -63.5 -11.15 M-43.3 -6.45 L-43.75 -5.85 Q-44.6 -4.8 -45.8 -4.8 -46.95 -4.8 -48.05 -5.85 -48.85 -6.8 -48.95 -8.15 -48.95 -9.55 -48.25 -10.65 -47.2 -11.55 -46.0 -11.55 -44.85 -11.55 -44.05 -10.65 L-43.55 -10.0 Q-43.0 -9.1 -43.0 -8.15 -42.95 -7.25 -43.3 -6.45 M-34.65 -10.5 Q-33.75 -11.4 -32.5 -11.4 -31.35 -11.4 -30.45 -10.5 -29.5 -9.35 -29.5 -7.9 -29.45 -6.65 -30.25 -5.7 -31.15 -4.6 -32.3 -4.6 -33.5 -4.6 -34.4 -5.7 -35.35 -6.65 -35.4 -7.9 -35.4 -9.35 -34.65 -10.5 M-21.8 -7.75 Q-21.8 -9.2 -21.0 -10.3 -20.1 -11.15 -18.95 -11.15 -17.7 -11.15 -16.75 -10.3 -15.8 -9.2 -15.8 -7.75 -15.75 -6.45 -16.5 -5.5 -17.4 -4.45 -18.7 -4.45 -19.9 -4.45 -20.75 -5.5 -21.7 -6.45 -21.8 -7.75" fill="none" stroke="#000000" stroke-linecap="round" stroke-linejoin="round" stroke-width="1.0"/>
  </g>
</svg>
