<?xml version="1.0" encoding="UTF-8" standalone="no"?>
<svg xmlns:xlink="http://www.w3.org/1999/xlink" height="96.1px" width="116.75px" xmlns="http://www.w3.org/2000/svg">
  <g transform="matrix(1.0, 0.0, 0.0, 1.0, 71.5, 62.0)">
    <path d="M41.2 -54.35 Q38.6 -56.25 29.9 -53.7 L4.65 -43.45 4.25 -43.2 -1.3 -40.3 -3.8 -39.0 -10.05 -35.25 -13.85 -32.95 -15.55 -31.85 -18.9 -29.5 -23.6 -26.1 -24.8 -25.15 -25.95 -24.25 -27.9 -22.75 -31.95 -19.3 Q-38.7 -13.35 -44.6 -6.7 L-49.8 -0.65 Q-54.55 5.25 -59.55 13.15 L-61.25 16.05 Q-59.15 20.35 -44.85 26.65 L-41.25 21.8 -35.5 15.05 -35.15 14.65 Q-25.1 3.65 -9.5 -8.8 1.1 -17.35 14.15 -26.5 29.15 -37.15 44.15 -44.55 45.6 -46.6 41.2 -54.35 L39.35 -59.45 Q19.5 -65.6 -18.45 -50.6 -59.15 -31.75 -70.75 -7.1 -63.6 3.2 -59.55 13.15 M14.15 -26.5 Q-4.1 -7.4 -15.75 11.85 -0.95 10.1 12.25 9.7 L17.05 9.5 44.4 10.6 Q43.45 19.4 33.1 26.15 20.35 13.15 -14.95 22.75 L-16.75 23.0 -22.55 23.8 -22.75 24.3 -23.85 26.65 -25.45 32.4 -25.45 32.55 -25.45 33.35 Q-34.65 32.7 -44.85 26.65 M-22.55 23.8 Q-19.55 17.65 -15.75 11.85" fill="none" stroke="#000000" stroke-linecap="round" stroke-linejoin="round" stroke-width="1.5"/>
  </g>
</svg>
