<?xml version="1.0" encoding="UTF-8" standalone="no"?>
<svg xmlns:xlink="http://www.w3.org/1999/xlink" height="47.3px" width="129.05px" xmlns="http://www.w3.org/2000/svg">
  <g transform="matrix(1.0, 0.0, 0.0, 1.0, 80.5, 25.2)">
    <path d="M17.45 -22.05 L-6.5 -23.9 Q-24.35 -25.4 -51.65 -19.95 L-56.0 -19.05 Q-62.95 -17.45 -72.75 -10.15 -79.85 -4.1 -79.5 0.5 -76.55 14.2 -68.1 16.6 -59.7 19.0 -56.1 21.1 -57.4 18.9 -54.2 15.9 -51.9 13.85 -41.9 11.85 0.55 5.05 43.55 14.75 45.55 14.45 46.95 9.3 45.15 -2.25 47.55 -17.35 47.3 -20.7 38.2 -20.8 L17.45 -22.05 Z" fill="none" stroke="#000000" stroke-linecap="round" stroke-linejoin="round" stroke-width="2.0"/>
  </g>
</svg>
