<?xml version="1.0" encoding="UTF-8" standalone="no"?>
<svg xmlns:xlink="http://www.w3.org/1999/xlink" height="82.4px" width="120.0px" xmlns="http://www.w3.org/2000/svg">
  <g transform="matrix(1.0, 0.0, 0.0, 1.0, 72.25, 69.8)">
    <path d="M11.4 -23.25 L16.4 -30.7 Q-6.4 -46.45 -66.0 -69.05 -71.3 -66.35 -71.5 -59.55 -10.65 -38.05 11.4 -23.25 L11.4 -23.2 Q12.5 -4.2 19.55 4.55 21.95 7.5 25.05 9.35 28.4 11.3 32.65 11.85 38.0 11.5 41.4 7.85 44.0 5.0 45.4 0.15 48.15 -9.5 46.15 -27.05 L46.05 -27.8 Q36.85 -35.7 16.8 -30.8 L16.4 -30.7 M16.5 -31.1 L16.8 -30.8" fill="none" stroke="#000000" stroke-linecap="round" stroke-linejoin="round" stroke-width="1.5"/>
  </g>
</svg>
