<?xml version="1.0" encoding="UTF-8" standalone="no"?>
<svg xmlns:xlink="http://www.w3.org/1999/xlink" height="124.55px" width="129.65px" xmlns="http://www.w3.org/2000/svg">
  <g transform="matrix(1.0, 0.0, 0.0, 1.0, 80.75, 89.65)">
    <path d="M21.6 -8.85 L44.55 -23.6 40.2 -8.7 Q32.9 -5.2 26.8 -1.2 21.85 1.85 17.75 5.25 L21.6 -8.85 M-47.4 -26.4 L-14.0 -9.85 -9.95 4.8 -20.8 -1.05 -21.9 -1.65 Q-27.3 -4.4 -32.85 -6.4 L-37.15 -8.0 -39.55 -8.85 -47.4 -26.4" fill="#ffffff" fill-rule="evenodd" stroke="none"/>
    <path d="M38.6 -58.05 L43.35 -49.25 Q50.0 -32.45 47.4 -10.75 45.35 -6.15 46.85 5.35 47.6 11.3 44.65 16.75 L44.4 17.15 Q41.6 21.95 35.85 26.35 29.9 30.85 18.05 32.8 L14.5 33.3 Q2.3 34.75 -15.3 33.75 -24.85 32.65 -41.55 28.7 -58.25 24.75 -64.15 17.9 -70.05 10.95 -71.15 8.6 L-72.55 5.45 Q-85.1 -25.05 -76.45 -55.75 -60.5 -90.4 -15.25 -88.85 -6.95 -88.8 0.45 -87.05 24.3 -81.35 38.5 -58.25 L38.6 -58.05 M21.6 -8.85 L44.55 -23.6 40.2 -8.7 Q32.9 -5.2 26.8 -1.2 21.85 1.85 17.75 5.25 L21.6 -8.85 M-47.4 -26.4 L-14.0 -9.85 -9.95 4.8 -20.8 -1.05 -21.9 -1.65 Q-27.3 -4.4 -32.85 -6.4 L-37.15 -8.0 -39.55 -8.85 -47.4 -26.4" fill="none" stroke="#000000" stroke-linecap="round" stroke-linejoin="round" stroke-width="1.5"/>
  </g>
</svg>
