<?xml version="1.0" encoding="UTF-8" standalone="no"?>
<svg xmlns:xlink="http://www.w3.org/1999/xlink" height="126.7px" width="127.95px" xmlns="http://www.w3.org/2000/svg">
  <g transform="matrix(1.0, 0.0, 0.0, 1.0, 79.7, 90.45)">
    <path d="M0.3 -18.95 L5.45 -4.4 -13.15 -19.3 2.95 -8.55 0.3 -18.95 M26.5 -9.1 L37.05 -16.1 22.9 -4.25 28.55 -14.6 26.5 -9.1 M42.25 -16.55 Q40.35 2.85 32.9 8.2 23.5 3.2 22.35 -0.5 30.25 -10.1 42.25 -16.55 M-19.85 -16.85 L-4.9 -33.2 -15.85 -15.25 -19.85 -16.85 M-23.9 4.1 L-33.9 19.7 -28.35 1.1 -23.9 4.1" fill="#000000" fill-rule="evenodd" stroke="none"/>
    <path d="M17.15 -81.3 L17.1 -81.4 Q-7.45 -94.2 -32.0 -87.3 -60.8 -80.65 -71.6 -56.7 -81.45 -32.35 -71.9 -7.35 -75.05 -7.65 -77.2 -5.7 -80.9 0.6 -76.75 7.8 -70.3 16.3 -65.2 16.3 -60.1 16.25 -60.35 15.1 -58.3 19.4 -55.85 21.55 -45.5 27.5 -34.25 31.25 L-34.05 31.35 Q-14.75 37.1 5.2 34.9 12.9 28.8 18.7 9.1 26.25 -39.35 17.15 -81.3 44.05 -68.15 47.2 -34.4 L47.2 -34.35 Q48.0 -11.9 46.65 2.45 45.45 15.2 41.85 19.4 38.55 23.15 31.1 27.75 23.9 32.2 5.2 34.9 M26.4 15.15 L23.2 29.0 M21.2 15.6 L17.5 29.55 M5.5 15.7 L2.05 30.55 M-1.85 15.35 L-4.35 30.3" fill="none" stroke="#000000" stroke-linecap="round" stroke-linejoin="round" stroke-width="1.5"/>
  </g>
</svg>
