<?xml version="1.0" encoding="UTF-8" standalone="no"?>
<svg xmlns:xlink="http://www.w3.org/1999/xlink" height="123.1px" width="126.8px" xmlns="http://www.w3.org/2000/svg">
  <g transform="matrix(1.0, 0.0, 0.0, 1.0, 79.25, 89.35)">
    <path d="M14.2 -82.4 L14.4 -82.3 Q33.5 -72.8 39.75 -59.4 L39.75 -59.35 Q50.0 -39.95 46.75 -13.3 L46.7 -13.05 Q44.7 -8.45 46.2 3.0 47.9 15.3 34.5 25.5 21.45 35.55 -18.8 33.35 L-18.85 33.35 Q-47.35 30.0 -56.6 20.3 L-60.9 15.55 Q-62.6 16.65 -66.15 16.1 -70.95 15.3 -76.0 8.4 -82.1 0.0 -76.75 -6.35 L-76.6 -6.55 Q-75.05 -7.75 -72.6 -8.1 -76.2 -18.8 -76.95 -27.3 L-76.95 -27.35 Q-77.6 -55.6 -62.1 -71.15 L-62.05 -71.15 Q-37.9 -93.8 -4.1 -88.25 L-4.0 -88.25 Q6.15 -85.8 14.2 -82.4" fill="url(#gradient0)" fill-rule="evenodd" stroke="none"/>
  </g>
  <defs>
    <linearGradient gradientTransform="matrix(0.0, 0.018, -0.0774, 0.0, -15.85, 1.75)" gradientUnits="userSpaceOnUse" id="gradient0" spreadMethod="pad" x1="-819.2" x2="819.2">
      <stop offset="0.06274509803921569" stop-color="#000000" stop-opacity="0.6"/>
      <stop offset="0.8862745098039215" stop-color="#000000" stop-opacity="0.0"/>
    </linearGradient>
  </defs>
</svg>
