<?xml version="1.0" encoding="UTF-8" standalone="no"?>
<svg xmlns:xlink="http://www.w3.org/1999/xlink" height="123.1px" width="126.8px" xmlns="http://www.w3.org/2000/svg">
  <g transform="matrix(1.0, 0.0, 0.0, 1.0, 63.4, 61.55)">
    <path d="M30.05 -54.6 L30.25 -54.5 Q49.35 -45.0 55.6 -31.6 L55.6 -31.55 Q65.85 -12.15 62.6 14.5 L62.55 14.75 Q60.55 19.35 62.05 30.8 63.75 43.1 50.35 53.3 37.3 63.35 -2.95 61.15 L-3.0 61.15 Q-31.5 57.8 -40.75 48.1 L-45.05 43.35 Q-46.75 44.45 -50.3 43.9 -55.1 43.1 -60.15 36.2 -66.25 27.8 -60.9 21.45 L-60.75 21.25 Q-59.2 20.05 -56.75 19.7 -60.35 9.0 -61.1 0.5 L-61.1 0.45 Q-61.75 -27.8 -46.25 -43.35 L-46.2 -43.35 Q-22.05 -66.0 11.75 -60.45 L11.85 -60.45 Q22.0 -58.0 30.05 -54.6" fill="url(#gradient0)" fill-rule="evenodd" stroke="none"/>
  </g>
  <defs>
    <linearGradient gradientTransform="matrix(0.0, 0.0148, -0.0761, 0.0, 0.0, 43.65)" gradientUnits="userSpaceOnUse" id="gradient0" spreadMethod="pad" x1="-819.2" x2="819.2">
      <stop offset="0.09019607843137255" stop-color="#233f2a" stop-opacity="0.8980392"/>
      <stop offset="1.0" stop-color="#000000" stop-opacity="0.0"/>
    </linearGradient>
  </defs>
</svg>
