<?xml version="1.0" encoding="UTF-8" standalone="no"?>
<svg xmlns:xlink="http://www.w3.org/1999/xlink" height="43.35px" width="108.55px" xmlns="http://www.w3.org/2000/svg">
  <g transform="matrix(1.0, 0.0, 0.0, 1.0, 53.0, 27.4)">
    <path d="M48.95 -12.8 Q49.85 -6.2 48.6 2.25 47.25 8.7 43.8 9.05 L42.7 9.15 34.55 9.45 31.35 9.45 25.4 9.4 24.75 9.35 Q22.5 9.15 21.25 7.85 20.05 6.3 19.45 2.35 18.85 -1.6 18.85 -8.75 18.7 -17.35 22.4 -19.25 L28.15 -20.25 34.15 -20.75 38.65 -20.95 43.4 -20.75 45.05 -20.65 Q48.5 -19.6 48.95 -12.8 M-45.95 -13.05 Q-45.3 -20.15 -40.45 -21.35 -23.6 -22.45 -9.2 -20.05 -4.05 -18.15 -4.25 -9.1 -4.3 -1.6 -5.1 2.6 -5.9 6.75 -7.55 8.35 -9.3 9.7 -12.45 10.0 -26.15 10.4 -38.8 9.85 -43.55 9.5 -45.4 2.8 -47.2 -6.1 -45.95 -13.05" fill="#ffffff" fill-opacity="0.13725491" fill-rule="evenodd" stroke="none"/>
    <path d="M-51.4 -15.1 Q-50.55 -24.4 -44.45 -25.95 -23.2 -27.35 -5.05 -24.25 1.45 -21.8 1.15 -10.05 L1.05 -5.6 Q6.75 -6.9 13.75 -5.6 L13.7 -9.75 Q13.5 -21.15 18.45 -23.6 32.45 -26.7 48.75 -25.5 53.4 -24.0 54.1 -15.0 55.25 -6.4 53.6 4.9 51.7 13.45 47.2 13.9 34.9 14.7 21.65 14.3 18.6 14.0 16.95 12.35 15.3 10.3 14.5 5.05 L14.0 -0.95 Q7.4 -3.05 0.85 -0.95 L0.1 5.15 Q-0.95 10.5 -3.05 12.65 -5.2 14.4 -9.2 14.75 -26.4 15.25 -42.4 14.6 -48.3 14.1 -50.75 5.35 -52.05 -1.55 -52.0 -7.55 L-52.0 -7.6 -51.6 -13.8 -51.4 -15.1 M48.95 -12.8 Q48.5 -19.6 45.05 -20.65 L43.4 -20.75 38.65 -20.95 34.15 -20.75 28.15 -20.25 22.4 -19.25 Q18.7 -17.35 18.85 -8.75 18.85 -1.6 19.45 2.35 20.05 6.3 21.25 7.85 22.5 9.15 24.75 9.35 L25.4 9.4 31.35 9.45 34.55 9.45 42.7 9.15 43.8 9.05 Q47.25 8.7 48.6 2.25 49.85 -6.2 48.95 -12.8 M-45.95 -13.05 Q-45.3 -20.15 -40.45 -21.35 -23.6 -22.45 -9.2 -20.05 -4.05 -18.15 -4.25 -9.1 -4.3 -1.6 -5.1 2.6 -5.9 6.75 -7.55 8.35 -9.3 9.7 -12.45 10.0 -26.15 10.4 -38.8 9.85 -43.55 9.5 -45.4 2.8 -47.2 -6.1 -45.95 -13.05" fill="none" stroke="#000000" stroke-linecap="round" stroke-linejoin="round" stroke-width="2.0"/>
  </g>
</svg>
