<?xml version="1.0" encoding="UTF-8" standalone="no"?>
<svg xmlns:xlink="http://www.w3.org/1999/xlink" height="72.0px" width="159.35px" xmlns="http://www.w3.org/2000/svg">
  <g transform="matrix(1.0, 0.0, 0.0, 1.0, 95.75, 101.7)">
    <path d="M54.0 -99.15 Q67.55 -93.45 59.75 -53.8 53.8 -44.3 49.25 -43.95 43.1 -41.85 36.95 -43.1 2.1 -51.9 3.25 -74.45 L5.0 -77.9 Q11.4 -88.55 28.05 -96.45 42.55 -103.25 54.0 -99.15 M13.8 -70.35 Q27.8 -88.2 43.95 -84.4 50.15 -71.8 34.7 -51.3 16.9 -59.15 13.8 -70.35 M-64.85 -97.65 Q-82.15 -102.75 -87.65 -96.85 -99.95 -84.85 -90.95 -47.65 L-90.9 -47.55 Q-87.65 -32.25 -79.1 -30.7 -62.4 -32.55 -48.05 -48.35 -38.45 -59.4 -35.25 -70.15 -34.55 -74.15 -41.05 -83.35 -47.65 -92.6 -64.85 -97.65 M-58.2 -75.8 Q-67.15 -82.75 -75.7 -80.4 -83.0 -75.7 -73.15 -42.95 L-72.4 -41.1 Q-57.05 -45.8 -46.0 -64.75 -48.05 -69.8 -58.2 -75.8" fill="none" stroke="#000000" stroke-linecap="round" stroke-linejoin="round" stroke-width="2.0"/>
  </g>
</svg>
