<?xml version="1.0" encoding="UTF-8" standalone="no"?>
<svg xmlns:xlink="http://www.w3.org/1999/xlink" height="79.0px" width="185.15px" xmlns="http://www.w3.org/2000/svg">
  <g transform="matrix(1.0, 0.0, 0.0, 1.0, 110.2, 103.15)">
    <path d="M24.0 -90.5 Q38.55 -101.6 65.4 -102.15 73.65 -102.3 73.95 -85.65 73.1 -68.35 69.2 -52.5 65.95 -37.2 54.4 -33.65 36.95 -32.45 19.25 -48.65 1.2 -73.75 24.0 -90.5 M50.8 -46.05 Q66.45 -72.05 61.5 -83.1 48.8 -87.1 33.9 -72.8 32.2 -64.45 36.35 -56.25 43.6 -44.7 50.8 -46.05 M-54.1 -88.1 Q-71.55 -98.0 -97.7 -99.65 -108.9 -98.7 -109.2 -82.05 -107.85 -55.45 -98.75 -32.15 -75.85 -13.3 -51.05 -45.05 -36.2 -63.8 -54.1 -88.1 M-79.4 -42.2 Q-91.5 -62.05 -90.75 -79.25 -77.25 -83.25 -61.4 -68.95 -59.6 -60.6 -64.0 -52.4 -71.7 -40.85 -79.4 -42.2" fill="none" stroke="#000000" stroke-linecap="round" stroke-linejoin="round" stroke-width="2.0"/>
  </g>
</svg>
