<?xml version="1.0" encoding="UTF-8" standalone="no"?>
<svg xmlns:xlink="http://www.w3.org/1999/xlink" height="27.0px" width="109.15px" xmlns="http://www.w3.org/2000/svg">
  <g transform="matrix(1.0, 0.0, 0.0, 1.0, 52.6, 16.7)">
    <path d="M-49.35 -15.95 Q-28.2 -16.75 -3.2 -15.1 -1.8 -14.75 1.55 -12.25 2.95 -11.2 7.7 -10.75 11.1 -10.75 12.45 -11.7 L15.45 -14.3 Q17.05 -15.8 19.75 -15.8 L53.6 -15.9 Q55.0 -15.85 55.7 -15.2 L56.0 -13.4 Q56.25 -10.95 55.65 -10.0 55.05 -9.05 53.85 -8.3 L50.75 3.1 Q48.95 8.7 46.45 8.6 33.05 9.8 21.2 8.4 18.0 7.75 16.65 3.8 L13.55 -5.4 Q12.0 -7.65 7.15 -7.7 4.1 -7.7 1.7 -6.35 L-2.9 4.15 Q-5.15 8.45 -10.15 9.0 -24.5 10.4 -38.7 9.35 -43.2 8.4 -45.15 3.65 -47.9 -2.9 -49.7 -8.35 L-51.6 -10.3 Q-52.2 -11.55 -52.05 -12.8 -51.6 -15.9 -49.35 -15.95 M45.5 5.95 Q34.8 6.85 22.9 5.8 20.5 5.7 19.7 3.95 L19.6 3.85 Q17.4 -2.35 16.8 -7.1 16.75 -10.8 21.05 -11.4 35.4 -12.15 48.9 -11.4 50.8 -10.9 50.55 -8.25 49.9 -3.3 48.0 3.15 46.8 5.7 45.5 5.95 M-42.35 1.65 Q-44.1 -2.35 -45.75 -8.2 -45.8 -10.7 -42.7 -11.6 -24.1 -12.15 -5.2 -10.8 -1.75 -9.8 -2.0 -8.0 L-2.05 -8.0 Q-3.05 -2.3 -5.8 3.15 L-5.75 3.1 Q-7.25 5.35 -9.2 5.8 -23.2 7.15 -37.6 6.2 -40.75 5.4 -42.35 1.65" fill="none" stroke="#000000" stroke-linecap="round" stroke-linejoin="round" stroke-width="1.0"/>
  </g>
</svg>
