<?xml version="1.0" encoding="UTF-8" standalone="no"?>
<svg xmlns:xlink="http://www.w3.org/1999/xlink" height="97.2px" width="124.45px" xmlns="http://www.w3.org/2000/svg">
  <g transform="matrix(1.0, 0.0, 0.0, 1.0, 69.85, 70.3)">
    <path d="M29.95 12.35 Q27.8 13.65 25.3 14.5 15.85 17.8 15.45 9.6 15.15 5.25 16.4 1.8 12.95 -1.1 10.85 -4.1 5.8 -11.9 12.9 -14.8 L16.15 -15.8 Q3.6 -32.2 -25.0 -48.6 -46.4 -58.95 -68.85 -61.7 L-64.0 -69.3 Q-48.55 -67.85 -34.0 -62.6 3.4 -48.2 22.75 -20.0 L23.2 -20.65 24.4 -22.3 25.5 -23.7 Q31.1 -30.9 37.05 -23.95 39.55 -20.75 41.0 -17.5 45.4 -17.4 49.5 -15.7 56.1 -12.2 52.1 -5.9 49.75 -2.35 46.8 -0.05 48.15 3.75 47.85 8.2 46.35 16.1 38.8 14.6 L37.4 14.25 39.35 22.05 Q37.7 24.25 33.6 25.9 L29.95 12.35 31.65 11.2 Q33.45 12.7 37.4 14.25 M16.15 -15.8 L20.7 -16.7 20.75 -16.7 22.75 -20.0" fill="none" stroke="#000000" stroke-linecap="round" stroke-linejoin="round" stroke-width="2.0"/>
    <path d="M18.35 -8.3 Q18.75 -9.6 19.5 -10.8 20.35 -12.25 21.65 -13.5 25.7 -17.4 31.4 -17.4 37.15 -17.4 41.15 -13.5 L41.6 -13.05 Q45.1 -9.35 45.2 -4.35 L45.2 -4.0 Q45.2 1.55 41.15 5.45 37.55 9.0 32.55 9.35 L31.4 9.4 Q25.7 9.4 21.65 5.45 17.65 1.55 17.65 -4.0 17.65 -6.3 18.35 -8.3 19.8 -3.65 23.25 0.7 22.3 -3.75 23.6 -7.5 24.3 -9.55 25.65 -11.4 L27.65 -13.65 Q23.55 -12.85 19.5 -10.8 M30.55 -5.0 L30.25 1.15 32.25 1.65 32.3 1.65 38.75 -1.35 Q41.4 -5.45 40.0 -9.5 37.7 -10.9 30.8 -11.25 L30.55 -5.0 36.65 -7.9 M25.65 -11.4 L30.8 -11.25 M27.65 -13.65 Q34.6 -15.1 41.6 -13.05 M38.75 -1.35 L45.2 -4.35 M32.3 1.65 L32.3 1.7 42.15 3.25 M32.3 1.7 L31.65 8.7 32.55 9.35 M23.6 -7.5 L26.55 0.15 30.25 1.15 M23.25 0.7 Q26.5 4.85 31.65 8.7" fill="none" stroke="#000000" stroke-linecap="round" stroke-linejoin="round" stroke-width="1.5"/>
  </g>
</svg>
