<?xml version="1.0" encoding="UTF-8" standalone="no"?>
<svg xmlns:xlink="http://www.w3.org/1999/xlink" height="94.45px" width="99.25px" xmlns="http://www.w3.org/2000/svg">
  <g transform="matrix(1.0, 0.0, 0.0, 1.0, 56.45, 62.2)">
    <path d="M-48.95 -15.15 Q-46.75 -12.2 -42.9 -9.3 M-15.8 -22.65 Q-15.95 -27.15 -18.45 -32.25 M-3.5 -13.0 Q-7.9 -15.2 -11.05 -16.1 M-9.25 -4.45 Q-4.65 -5.9 -3.0 -8.3 M-24.6 -31.95 Q-28.5 -29.05 -31.65 -25.55 M-39.85 -20.45 Q-44.35 -21.05 -47.95 -19.75 M-11.05 10.3 Q-10.45 5.9 -11.95 1.25 M-23.45 6.1 Q-21.4 8.45 -17.05 10.65 M-41.65 7.05 Q-35.55 6.85 -31.55 5.25 M-40.35 -2.5 Q-42.8 0.6 -42.9 4.1" fill="none" stroke="#000000" stroke-linecap="round" stroke-linejoin="round" stroke-opacity="0.49803922" stroke-width="1.2000000000000002"/>
    <path d="M-10.4 -20.75 Q21.55 -53.1 41.9 -55.5 41.75 -58.4 38.95 -61.3 13.55 -56.4 -12.3 -27.35 -11.35 -24.65 -10.4 -20.75 L-9.9 -20.0 Q-0.6 -16.65 6.2 -10.5 1.4 -2.5 -7.8 0.7 -6.3 11.75 -8.35 16.85 -19.6 15.45 -26.6 10.05 -32.4 22.1 -31.8 31.35 L-38.4 29.4 Q-38.3 19.15 -33.35 10.1 -41.2 12.1 -48.8 10.7 -49.75 2.4 -45.15 -6.7 -52.9 -13.25 -55.55 -20.5 -48.5 -24.25 -36.15 -25.25 -28.45 -35.3 -20.05 -39.3 -15.4 -36.2 -12.3 -27.35 M-26.6 10.05 L-28.45 8.5 -33.35 10.1" fill="none" stroke="#000000" stroke-linecap="round" stroke-linejoin="round" stroke-width="1.8"/>
  </g>
</svg>
