<?xml version="1.0" encoding="UTF-8" standalone="no"?>
<svg xmlns:xlink="http://www.w3.org/1999/xlink" height="19.95px" width="94.1px" xmlns="http://www.w3.org/2000/svg">
  <g transform="matrix(1.0, 0.0, 0.0, 1.0, 44.7, 8.0)">
    <path d="M13.1 -3.85 L13.1 -0.95 13.0 -0.95 13.1 -3.85 M13.0 2.75 L13.1 2.75 13.0 4.5 13.0 2.75 M-0.8 8.85 L-0.75 8.85 -1.0 9.55 -0.8 8.85" fill="#831313" fill-rule="evenodd" stroke="none"/>
    <path d="M29.55 -6.1 L37.45 -5.95 34.05 7.2 26.9 7.2 29.55 -6.1 M-23.45 -6.55 L-14.15 -6.45 -17.1 7.35 -26.65 7.35 -23.45 -6.55" fill="#ffffff" fill-opacity="0.41960785" fill-rule="evenodd" stroke="none"/>
    <path d="M17.1 -6.3 L29.55 -6.1 26.9 7.2 16.95 7.2 17.1 -6.3 M37.45 -5.95 L45.25 -5.85 45.0 7.2 34.05 7.2 37.45 -5.95 M-39.1 -6.75 L-23.45 -6.55 -26.65 7.35 -39.1 7.35 -39.1 -6.75 M-14.15 -6.45 L-4.7 -6.3 -4.85 7.3 -5.45 7.3 -17.1 7.35 -14.15 -6.45" fill="#ffffff" fill-opacity="0.27058825" fill-rule="evenodd" stroke="none"/>
    <path d="M13.0 -0.95 L13.1 -0.95 13.1 -3.85 13.1 -6.75 14.0 -7.05 Q15.45 -7.45 17.1 -6.75 L17.1 -6.3 16.95 7.2 26.9 7.2 34.05 7.2 45.0 7.2 45.25 -5.85 45.25 -6.75 45.6 -6.85 46.25 -7.15 Q47.3 -7.45 48.65 -6.75 L48.4 8.4 48.2 9.2 Q47.65 10.9 45.6 11.0 L15.0 11.05 Q13.0 10.4 12.9 9.0 L13.0 4.5 13.1 2.75 13.1 -0.95 M13.0 -0.95 Q6.5 -3.15 -0.65 -1.5 L-0.65 0.6 -0.65 2.4 Q6.1 0.7 13.0 2.75 L13.1 2.75 M-1.0 9.55 L-1.05 9.6 -1.2 9.8 -1.4 10.1 -2.65 10.9 -2.8 10.9 -2.95 10.9 -3.1 11.0 -3.2 11.0 -3.3 11.05 -3.35 11.05 -3.7 11.05 -3.85 11.1 -4.05 11.1 -4.2 11.1 -41.3 11.2 -42.45 10.8 -43.05 10.5 -43.85 9.5 -43.85 9.3 -43.95 9.05 -43.95 -6.75 -40.95 -7.2 -39.1 -6.75 -39.1 7.35 -26.65 7.35 -17.1 7.35 -5.45 7.3 M-4.7 -6.3 L-4.7 -6.75 -3.3 -7.2 Q-2.05 -7.4 -0.65 -6.75 L-0.65 -1.5 M-1.0 9.55 L-0.8 8.85 -0.75 8.5 -0.65 2.4 M-4.85 7.3 L-4.7 -6.3" fill="none" stroke="#000000" stroke-linecap="round" stroke-linejoin="round" stroke-width="1.5"/>
    <path d="M17.1 -6.3 L29.55 -6.1 37.45 -5.95 45.25 -5.85 M-39.1 -6.75 L-23.45 -6.55 -14.15 -6.45 -4.7 -6.3" fill="none" stroke="#000000" stroke-linecap="round" stroke-linejoin="round" stroke-opacity="0.07058824" stroke-width="1.5"/>
  </g>
</svg>
