<?xml version="1.0" encoding="UTF-8" standalone="no"?>
<svg xmlns:xlink="http://www.w3.org/1999/xlink" height="42.9px" width="126.05px" xmlns="http://www.w3.org/2000/svg">
  <g transform="matrix(1.0, 0.0, 0.0, 1.0, 75.7, 27.65)">
    <path d="M44.4 -18.3 Q36.95 -19.65 30.6 -19.2 24.25 -18.75 19.35 -17.4 17.85 -15.75 17.6 -12.55 L17.6 -12.5 Q29.65 -13.5 46.55 -13.1 46.05 -16.45 44.4 -18.3 M-70.0 -14.6 Q-60.45 -16.05 -55.65 -15.9 -54.85 -18.5 -52.05 -20.95 -49.25 -23.4 -43.55 -24.8 -37.85 -26.25 -31.4 -26.5 L-20.25 -26.9 -4.6 -25.6 Q1.35 -24.55 8.65 -21.9 9.5 -21.5 10.3 -21.25 13.05 -20.45 14.7 -20.7 16.3 -21.0 21.55 -22.8 26.8 -24.6 33.95 -24.45 L43.9 -23.9 Q46.75 -23.5 49.35 -18.8 50.35 -7.05 47.7 1.9 44.8 12.45 35.15 13.7 30.2 14.15 25.75 13.0 17.85 10.8 14.85 4.65 L14.7 4.4 13.2 0.1 Q12.35 -2.6 10.9 -2.7 L10.7 -2.7 Q9.45 -2.5 8.9 -1.35 L8.9 -1.3 Q5.3 8.8 -7.7 12.8 L-11.55 13.7 -11.85 13.75 Q-29.2 16.2 -41.65 10.8 -52.05 5.0 -55.05 -7.35 L-55.05 -7.4 -68.25 -8.55 -74.0 -6.8 Q-75.75 -9.2 -74.35 -12.6 L-70.0 -14.6 M-47.8 -13.0 L-48.7 -13.45 Q-48.2 -16.5 -45.3 -18.2 -32.75 -20.5 -20.4 -20.25 -8.1 -20.0 0.55 -18.5 2.95 -17.6 4.9 -14.05 L4.8 -13.15 Q-21.4 -14.25 -47.8 -13.0 M3.45 -3.6 L3.0 -2.4 -45.6 -2.15 Q-47.45 -6.0 -48.25 -9.25 L4.7 -9.4 Q4.3 -6.0 3.45 -3.6 M18.3 -3.0 L18.45 -2.45 45.1 -2.55 Q45.85 -5.4 46.3 -8.95 L17.65 -8.9 Q17.8 -5.65 18.3 -3.0 M-19.5 8.85 Q-36.55 9.2 -42.65 2.05 L0.85 1.65 Q-3.65 8.15 -19.5 8.85 M33.65 8.65 Q40.1 8.7 43.4 2.05 L20.0 2.05 Q23.35 8.6 33.65 8.65" fill="none" stroke="#000000" stroke-linecap="round" stroke-linejoin="round" stroke-width="1.5"/>
  </g>
</svg>
