<?xml version="1.0" encoding="UTF-8" standalone="no"?>
<svg xmlns:xlink="http://www.w3.org/1999/xlink" height="49.55px" width="128.75px" xmlns="http://www.w3.org/2000/svg">
  <g transform="matrix(1.0, 0.0, 0.0, 1.0, 76.8, 30.55)">
    <path d="M13.0 -14.4 Q15.0 -1.0 20.8 8.2 26.6 17.35 36.95 18.25 45.3 17.85 48.95 5.85 50.9 -0.65 51.2 -7.35 L51.15 -11.75 50.85 -16.4 50.85 -16.95 Q48.8 -27.8 37.65 -28.25 L8.1 -29.45 7.65 -29.45 Q-9.45 -30.35 -32.9 -28.95 -48.45 -25.9 -51.25 -14.2 -50.05 -15.1 -49.8 -13.9 -49.55 -12.7 -49.6 -11.15 L-50.0 -8.75 Q-50.25 -7.85 -51.7 -6.8 -52.35 10.1 -39.35 15.5 -27.55 19.9 -14.45 16.0 -1.1 10.45 2.2 -0.9 L5.5 -12.9 5.65 -14.1 3.85 -16.8 4.75 -19.3 3.6 -24.5 Q7.4 -24.95 13.4 -24.25 12.7 -22.05 13.0 -19.05 L14.2 -16.85 13.0 -14.4 Q10.45 -16.1 8.25 -15.85 6.9 -15.55 5.65 -14.1 M4.75 -19.3 L7.75 -19.8 8.2 -19.85 Q11.3 -20.0 13.0 -19.05 M46.7 -8.7 Q45.75 12.5 36.3 13.15 26.85 13.75 21.25 -4.9 15.6 -23.6 24.8 -23.75 L40.5 -22.8 Q47.0 -21.7 46.7 -8.7 M-51.7 -6.8 L-51.55 -9.05 -76.0 -6.9 -76.05 -11.9 -51.25 -14.2 M-20.9 -24.85 Q-0.7 -25.7 -0.3 -19.05 0.05 -12.45 -1.2 -7.4 -2.75 0.7 -8.1 6.9 -15.2 13.75 -27.75 12.95 -50.25 10.3 -45.45 -14.2 -40.7 -24.45 -20.9 -24.85" fill="none" stroke="#000000" stroke-linecap="round" stroke-linejoin="round" stroke-width="1.5"/>
  </g>
</svg>
