<?xml version="1.0" encoding="UTF-8" standalone="no"?>
<svg xmlns:xlink="http://www.w3.org/1999/xlink" height="49.1px" width="121.55px" xmlns="http://www.w3.org/2000/svg">
  <g transform="matrix(1.0, 0.0, 0.0, 1.0, 62.65, 30.35)">
    <path d="M53.65 -2.4 Q51.05 15.05 37.25 16.4 18.2 18.1 12.7 -0.2 L11.0 -8.0 Q10.1 -12.6 6.75 -12.15 2.85 -11.25 2.5 -3.55 1.45 19.65 -27.5 17.9 -44.8 18.0 -51.8 3.4 -53.75 0.05 -55.45 -7.05 -56.6 -12.3 -59.3 -16.55 -61.75 -19.7 -61.9 -22.05 -62.1 -24.65 -59.55 -26.45 -47.3 -29.9 -34.35 -29.55 -26.4 -29.45 -18.1 -27.8 -9.6 -26.35 0.65 -22.5 7.15 -20.05 15.55 -22.8 28.1 -27.75 42.9 -26.6 49.8 -26.4 57.4 -23.75 58.05 -22.75 58.15 -21.35 58.2 -19.1 56.65 -15.85 54.7 -11.35 53.65 -2.4 M42.2 -21.05 L44.3 -20.7 Q50.45 -18.95 50.45 -9.5 50.35 1.15 46.85 5.9 43.35 10.6 35.3 11.25 27.2 11.8 23.0 7.95 18.7 4.05 16.95 -5.55 15.15 -15.2 22.8 -19.5 L24.55 -20.0 29.45 -21.0 Q34.7 -21.8 41.6 -21.15 L42.2 -21.05 M-37.55 -22.6 L-29.3 -22.95 -23.95 -22.75 -15.8 -21.6 Q-14.05 -21.35 -12.35 -20.75 -4.55 -18.4 -2.55 -13.25 -1.4 -8.45 -3.4 -0.55 -5.45 7.35 -10.3 9.9 -15.15 12.45 -25.2 12.25 -36.75 12.35 -42.6 6.2 -48.55 -0.1 -49.6 -8.6 -50.8 -17.2 -45.9 -20.15 -42.55 -21.9 -37.55 -22.6" fill="none" stroke="#000000" stroke-linecap="round" stroke-linejoin="round" stroke-width="1.5"/>
  </g>
</svg>
