<?xml version="1.0" encoding="UTF-8" standalone="no"?>
<svg xmlns:xlink="http://www.w3.org/1999/xlink" height="50.25px" width="125.55px" xmlns="http://www.w3.org/2000/svg">
  <g transform="matrix(1.0, 0.0, 0.0, 1.0, 77.2, 33.3)">
    <path d="M-46.55 -27.2 Q-45.8 -28.75 -44.6 -29.75 -43.35 -30.85 -41.55 -31.25 -28.35 -33.3 -9.55 -31.25 -7.6 -30.7 -6.2 -29.65 -5.15 -28.8 -4.45 -27.65 -3.25 -25.75 -3.1 -22.95 -1.45 -6.9 -2.7 2.35 -3.1 4.95 -3.7 6.9 -4.55 9.45 -5.85 10.8 -7.0 12.0 -8.55 12.25 -25.0 14.7 -40.45 12.4 -42.1 11.85 -43.4 10.85 -44.7 9.85 -45.6 8.5 -47.75 5.35 -48.15 0.15 -48.95 -9.8 -47.6 -23.95 -47.25 -25.8 -46.55 -27.2 M-43.3 -19.9 Q-44.4 -9.75 -43.3 2.75 -41.45 8.35 -33.55 9.4 -25.65 10.4 -11.75 9.3 -7.4 9.3 -6.85 2.55 -6.15 -9.95 -7.3 -20.15 -7.75 -25.85 -10.65 -27.75 -24.0 -28.75 -38.25 -27.05 -43.3 -25.55 -43.3 -19.9 M-11.75 -16.2 Q-12.1 -21.8 -14.7 -22.55 L-25.1 -23.2 -26.5 -23.25 -26.6 -23.25 Q-32.55 -23.4 -36.15 -21.35 -39.4 -6.7 -35.35 4.35 -19.2 5.45 -14.1 3.9 -10.8 3.95 -11.1 -3.35 L-11.75 -16.2 M-28.05 -25.3 L-23.25 -25.35 -16.15 -25.3 Q-14.15 -25.25 -11.15 -24.3 -9.5 -23.85 -8.35 -11.7 -8.1 6.9 -11.75 6.55 -22.8 7.25 -27.95 7.0 L-35.6 6.2 Q-39.35 4.95 -40.0 -1.45 -41.25 -6.5 -40.45 -14.25 -39.6 -22.8 -38.85 -23.3 -38.2 -23.8 -36.15 -24.55 L-28.05 -25.3" fill="#000000" fill-opacity="0.21960784" fill-rule="evenodd" stroke="none"/>
    <path d="M-46.55 -27.2 Q-62.0 -29.95 -76.2 -28.25 M-46.55 -27.2 Q-45.8 -28.75 -44.6 -29.75 -43.35 -30.85 -41.55 -31.25 -28.35 -33.3 -9.55 -31.25 -7.6 -30.7 -6.2 -29.65 -5.15 -28.8 -4.45 -27.65 25.15 -31.8 47.35 -29.05 M-46.55 -27.2 Q-47.25 -25.8 -47.6 -23.95 -48.95 -9.8 -48.15 0.15 -47.75 5.35 -45.6 8.5 -44.7 9.85 -43.4 10.85 -42.1 11.85 -40.45 12.4 -25.0 14.7 -8.55 12.25 -7.0 12.0 -5.85 10.8 -4.55 9.45 -3.7 6.9 -3.1 4.95 -2.7 2.35 -1.45 -6.9 -3.1 -22.95 -3.25 -25.75 -4.45 -27.65 M-45.6 8.5 Q-56.85 11.4 -60.05 15.95 M-3.7 6.9 Q23.35 6.85 43.75 13.75" fill="none" stroke="#000000" stroke-linecap="round" stroke-linejoin="round" stroke-width="2.0"/>
  </g>
</svg>
