<?xml version="1.0" encoding="UTF-8" standalone="no"?>
<svg xmlns:xlink="http://www.w3.org/1999/xlink" height="243.8px" width="351.95px" xmlns="http://www.w3.org/2000/svg">
  <g transform="matrix(1.0, 0.0, 0.0, 1.0, 175.95, 121.9)">
    <path d="M118.3 -49.4 L117.2 -37.8 Q115.65 -45.15 111.0 -55.5 L118.3 -49.4 M111.7 -111.95 Q115.25 -104.2 117.3 -93.55 L118.25 -85.35 112.3 -87.95 112.55 -91.35 112.75 -94.75 112.65 -101.4 Q112.4 -106.75 111.8 -111.2 L111.7 -111.95 M117.2 -37.6 L116.55 -32.25 Q116.9 -2.0 133.9 20.0 147.65 34.9 157.95 43.75 189.1 74.3 166.45 81.25 178.45 73.8 160.05 54.4 L148.2 43.75 Q152.0 47.8 154.35 51.25 176.15 83.3 151.85 112.15 133.3 128.15 111.55 117.95 99.4 113.65 94.6 101.6 78.8 91.2 79.9 77.15 83.6 86.7 91.8 88.6 L91.8 88.65 95.85 89.1 Q107.05 89.15 109.5 74.45 111.35 60.55 87.2 36.95 71.8 19.1 85.4 -23.15 87.05 -28.15 87.7 -33.35 L88.5 -33.8 Q92.45 -36.2 95.45 -38.8 L98.7 -41.85 100.7 -40.95 102.2 -40.4 Q105.4 -39.35 110.3 -38.6 L117.2 -37.6 M-105.45 -121.9 L-106.1 -119.95 Q-107.35 -116.1 -108.05 -111.1 -108.65 -106.65 -108.9 -101.3 L-109.0 -94.65 -108.8 -91.25 -108.55 -87.85 -118.35 -83.55 -117.25 -93.55 Q-113.7 -112.15 -105.45 -121.9 M102.4 42.1 Q85.2 15.85 85.65 3.15 83.05 26.4 97.4 44.35 L97.45 44.35 Q115.3 63.55 112.75 77.45 117.3 64.25 102.4 42.1 M-118.0 -46.4 L-107.25 -55.4 Q-112.0 -44.9 -113.5 -37.5 L-106.55 -38.5 -100.55 -39.65 -98.45 -40.3 Q-96.35 -41.0 -94.95 -41.75 L-91.7 -38.7 -87.9 -35.75 Q-87.35 -29.3 -85.35 -23.15 -71.75 19.1 -87.15 36.95 -111.3 60.55 -109.45 74.45 -107.0 89.15 -95.8 89.1 L-91.75 88.65 -91.75 88.6 Q-83.55 86.7 -79.85 77.15 -78.75 91.2 -94.55 101.6 -99.35 113.65 -111.5 117.95 -133.25 128.15 -151.8 112.15 -176.1 83.3 -154.3 51.25 -151.95 47.8 -148.15 43.75 L-160.0 54.4 Q-178.4 73.8 -166.4 81.25 -189.05 74.3 -157.9 43.75 -147.6 34.9 -133.85 20.0 -116.85 -2.0 -116.5 -32.25 L-118.0 -46.4 M-102.35 42.1 Q-117.25 64.25 -112.7 77.45 -115.25 63.55 -97.4 44.35 L-97.35 44.35 Q-83.0 26.4 -85.6 3.15 -85.15 15.85 -102.35 42.1" fill="#705c50" fill-rule="evenodd" stroke="none"/>
  </g>
</svg>
