<?xml version="1.0" encoding="UTF-8" standalone="no"?>
<svg xmlns:xlink="http://www.w3.org/1999/xlink" height="56.2px" width="122.95px" xmlns="http://www.w3.org/2000/svg">
  <g transform="matrix(1.0, 0.0, 0.0, 1.0, 76.05, 43.05)">
    <path d="M-0.65 -17.5 Q27.7 -29.2 45.9 -42.05 L45.9 -36.7 Q26.05 -20.75 -0.75 -11.7 -1.8 -2.25 -5.5 3.75 -10.85 12.4 -24.6 12.15 -37.25 11.15 -44.9 0.35 -48.85 -7.15 -49.0 -11.5 -64.4 -12.55 -73.85 -14.6 L-75.05 -20.8 Q-65.0 -17.75 -49.05 -16.6 L-48.55 -21.45 Q-46.7 -25.75 -38.75 -26.95 -24.2 -29.05 -10.25 -25.85 -2.55 -24.4 -0.65 -17.55 L-0.65 -17.5 Q-0.5 -13.65 -0.75 -11.7 M-49.0 -11.5 L-49.05 -16.6" fill="none" stroke="#000000" stroke-linecap="round" stroke-linejoin="round" stroke-width="2.0"/>
  </g>
</svg>
