<?xml version="1.0" encoding="UTF-8" standalone="no"?>
<svg xmlns:xlink="http://www.w3.org/1999/xlink" height="123.8px" width="128.8px" xmlns="http://www.w3.org/2000/svg">
  <g transform="matrix(1.0, 0.0, 0.0, 1.0, 79.85, 89.2)">
    <path d="M40.35 -58.55 Q38.4 -60.4 24.4 -55.7 L4.5 -48.85 4.1 -48.6 Q1.05 -47.25 -1.75 -45.65 L-4.4 -44.3 -11.0 -40.4 Q-13.15 -39.35 -15.0 -38.0 L-16.8 -36.9 -20.35 -34.4 -25.3 -30.85 -26.55 -29.9 -27.8 -29.0 -29.8 -27.4 -34.1 -23.75 Q-41.2 -17.6 -47.45 -10.6 L-52.95 -4.2 Q-57.95 1.95 -63.2 10.3 -63.65 11.0 -61.4 15.1 L-60.75 16.05 Q-56.35 22.15 -48.6 26.7 -46.0 22.55 -43.9 19.9 -41.15 16.4 -37.85 12.8 L-37.5 12.4 Q-26.85 0.8 -10.4 -12.2 0.75 -21.15 14.5 -30.6 27.4 -41.75 44.5 -46.8 44.25 -52.2 40.35 -58.55 L36.2 -65.5 36.0 -65.55 Q19.9 -72.1 -19.85 -56.95 -62.7 -37.6 -72.15 -8.75 L-72.2 -8.6 -71.75 -7.8 Q-69.6 -4.0 -67.55 0.35 L-63.2 10.3 M-72.15 -8.75 Q-80.25 -29.15 -73.1 -51.8 -64.7 -76.25 -33.55 -86.4 -10.9 -91.6 9.05 -83.65 27.5 -77.4 36.0 -65.55 M20.75 -17.25 Q13.85 -11.65 7.95 -5.85 26.3 -8.9 47.55 -5.05 48.3 -12.8 48.2 -19.85 33.1 -21.4 20.75 -17.25 32.3 -26.5 46.7 -35.3 L46.7 -35.35 Q46.55 -41.6 44.5 -46.8 M48.2 -19.85 Q48.05 -28.05 46.7 -35.3 M14.5 -30.6 Q0.65 -16.2 -9.55 -1.55 L-9.9 -1.2 Q-1.35 -4.4 7.95 -5.85 M34.5 25.9 Q21.05 11.8 -16.15 21.4 L-18.1 21.65 -24.2 22.35 -24.4 22.9 -25.55 25.4 -27.25 31.45 -27.25 31.6 -27.25 32.5 Q15.2 37.1 34.5 25.9 L34.55 25.9 35.65 25.15 45.9 12.45 45.9 12.3 46.0 11.9 46.05 11.8 46.05 11.65 46.4 9.55 17.6 7.85 12.55 7.95 -17.0 9.75 Q-21.0 15.9 -24.2 22.35 M-67.55 0.35 Q-72.65 7.0 -73.0 11.6 L-70.3 14.3 Q-65.5 17.55 -60.75 16.05 M-71.75 -7.8 Q-79.55 -7.5 -79.1 0.8 -78.15 6.0 -73.0 11.6 M-27.25 32.5 Q-36.95 31.65 -48.6 26.7 M-9.9 -1.2 Q-13.7 4.25 -17.0 9.75 M47.55 -5.05 Q49.15 2.8 46.4 9.55" fill="none" stroke="#000000" stroke-linecap="round" stroke-linejoin="round" stroke-width="1.5"/>
  </g>
</svg>
