<?xml version="1.0" encoding="UTF-8" standalone="no"?>
<svg xmlns:xlink="http://www.w3.org/1999/xlink" height="43.6px" width="116.35px" xmlns="http://www.w3.org/2000/svg">
  <g transform="matrix(1.0, 0.0, 0.0, 1.0, 66.15, 30.0)">
    <path d="M-65.4 -10.9 Q-62.1 -3.1 -48.8 4.65 -26.35 18.0 -4.85 9.65 0.85 6.9 6.5 5.55 12.1 6.75 17.6 9.65 34.9 17.5 45.25 -0.8 47.8 -5.3 49.45 -11.05 49.5 -15.1 47.0 -19.75 36.6 -31.3 23.55 -24.0 L21.8 -23.05 19.75 -21.9 18.75 -21.4 7.75 -15.7 7.2 -15.5 7.15 -15.5 Q-2.8 -21.45 -14.9 -26.25 -33.7 -32.6 -46.15 -25.6 -58.6 -18.75 -65.4 -10.9 M14.85 -4.05 Q30.75 -26.95 44.25 -12.35 35.75 11.4 14.85 -4.05 M-50.5 -11.2 Q-29.0 13.6 -1.45 -4.3 -27.65 -30.3 -50.5 -11.2" fill="none" stroke="#000000" stroke-linecap="round" stroke-linejoin="round" stroke-width="1.5"/>
  </g>
</svg>
