<?xml version="1.0" encoding="UTF-8" standalone="no"?>
<svg xmlns:xlink="http://www.w3.org/1999/xlink" height="47.1px" width="107.7px" xmlns="http://www.w3.org/2000/svg">
  <g transform="matrix(1.0, 0.0, 0.0, 1.0, 54.7, 32.05)">
    <path d="M27.95 14.05 Q17.0 7.25 12.25 -3.1 4.4 -6.05 -1.45 -3.15 -6.7 7.25 -19.55 14.05 -35.45 12.9 -46.65 0.15 -49.25 -2.75 -51.45 -5.95 -52.35 -7.9 -52.85 -9.65 -53.75 -12.2 -53.65 -14.3 -53.8 -15.65 -53.5 -16.7 -52.7 -23.9 -43.8 -27.8 -32.85 -30.85 -25.35 -23.05 -21.95 -31.8 -12.35 -30.95 -0.65 -29.9 1.15 -19.7 L1.45 -17.1 1.45 -12.65 1.45 -12.6 1.05 -10.45 Q5.4 -12.4 9.75 -10.45 L9.3 -12.6 9.3 -12.65 Q9.0 -15.05 9.05 -17.1 L9.15 -19.7 Q10.0 -29.9 19.5 -30.95 27.3 -31.8 31.55 -24.55 35.0 -29.2 40.8 -28.75 49.6 -27.8 51.55 -18.8 52.3 -15.45 51.85 -11.95 49.95 -0.05 41.3 8.3 35.95 13.35 27.95 14.05 M9.75 -10.45 Q10.65 -6.6 12.25 -3.1 M1.05 -10.45 Q0.2 -6.65 -1.45 -3.15" fill="none" stroke="#000000" stroke-linecap="round" stroke-linejoin="round" stroke-width="2.0"/>
    <path d="M14.95 -9.6 Q18.35 3.05 28.7 8.3 39.9 6.55 45.75 -6.55 49.95 -16.75 41.45 -21.85 35.4 -23.95 31.6 -18.5 27.55 -24.65 21.8 -24.0 12.55 -23.65 14.95 -9.6 M-5.3 -9.6 Q-8.5 3.05 -20.85 8.3 -34.65 6.55 -42.75 -6.55 -48.7 -16.75 -38.6 -21.85 -31.4 -23.95 -24.4 -18.35 -21.75 -24.65 -14.7 -24.0 -3.35 -23.65 -5.3 -9.6" fill="none" stroke="#000000" stroke-linecap="round" stroke-linejoin="round" stroke-width="1.0"/>
  </g>
</svg>
