<?xml version="1.0" encoding="UTF-8" standalone="no"?>
<svg xmlns:xlink="http://www.w3.org/1999/xlink" height="37.6px" width="127.2px" xmlns="http://www.w3.org/2000/svg">
  <g transform="matrix(1.0, 0.0, 0.0, 1.0, 78.15, 24.0)">
    <path d="M17.05 4.05 Q18.8 7.7 21.8 8.7 32.25 10.15 40.0 8.4 42.95 7.8 44.35 2.9 45.65 -2.1 44.95 -11.5 44.0 -15.95 39.45 -16.75 28.65 -17.7 19.65 -17.2 14.9 -16.05 14.65 -10.75 14.5 -9.2 14.9 -4.4 15.3 0.35 17.05 4.05 M-56.9 -9.75 L-55.05 -10.4 Q-52.95 -10.2 -51.3 -6.75 -50.55 -2.6 -49.0 1.75 -47.05 7.8 -39.75 10.4 -29.8 12.4 -19.6 12.5 L-17.3 12.55 Q-6.0 12.25 -3.25 10.45 -0.5 8.6 1.05 3.75 2.5 -1.15 2.85 -3.75 L3.25 -7.1 Q4.25 -10.6 7.05 -10.35 9.8 -10.2 10.4 -7.8 L11.2 -4.2 Q12.4 3.9 14.9 7.65 17.4 11.35 22.85 12.4 L29.6 12.85 Q35.75 12.9 41.2 11.35 42.6 10.95 43.75 10.25 47.3 7.55 47.95 -2.85 L48.3 -13.05 Q48.5 -17.6 43.0 -19.05 37.45 -20.6 27.95 -20.85 18.3 -21.2 15.8 -20.55 L9.5 -19.45 Q5.65 -19.05 1.85 -20.35 L-1.35 -21.15 Q-16.6 -23.3 -30.4 -23.25 L-46.35 -22.45 -47.65 -22.3 -58.0 -19.8 -56.9 -9.75 -62.3 -8.25 -64.55 -9.4 -74.15 -6.35 Q-76.05 -5.4 -77.0 -7.9 -77.4 -8.75 -77.4 -9.5 -77.4 -11.05 -76.2 -12.3 L-58.0 -19.8 M-46.0 -8.4 Q-47.05 -18.4 -39.25 -18.8 -26.1 -19.8 -5.45 -18.3 -0.25 -16.65 -0.4 -12.0 -0.75 0.75 -5.55 7.1 -6.6 8.8 -16.45 9.3 -35.2 9.35 -41.25 5.85 -45.1 1.5 -46.0 -8.4" fill="none" stroke="#000000" stroke-linecap="round" stroke-linejoin="round" stroke-width="1.5"/>
  </g>
</svg>
