<?xml version="1.0" encoding="UTF-8" standalone="no"?>
<svg xmlns:xlink="http://www.w3.org/1999/xlink" height="145.95px" width="277.55px" xmlns="http://www.w3.org/2000/svg">
  <g transform="matrix(1.0, 0.0, 0.0, 1.0, 138.7, 71.8)">
    <path d="M19.95 -68.65 Q26.75 -67.5 32.35 -63.25 37.15 -63.25 40.35 -64.2 41.4 -59.2 39.4 -55.95 44.6 -48.55 44.6 -39.0 44.6 -26.5 35.8 -17.75 27.0 -8.9 14.5 -8.9 2.1 -8.9 -6.75 -17.75 -15.55 -26.5 -15.55 -39.0 -15.55 -51.5 -6.75 -60.3 L-4.95 -61.95 Q-6.4 -67.3 -3.7 -71.8 -1.55 -69.85 5.4 -67.7 9.65 -69.1 14.5 -69.1 L16.35 -69.05 18.4 -68.85 19.95 -68.65 M90.45 -28.65 L86.55 -26.4 Q77.4 -20.9 72.35 -15.2 69.65 -12.25 68.1 -9.2 L68.05 -9.2 Q65.0 -3.85 64.05 1.5 61.65 4.55 60.4 8.4 59.2 0.8 61.75 -7.65 70.65 -28.7 84.75 -33.35 87.7 -32.0 90.45 -28.65 M109.45 25.05 Q106.85 26.15 103.5 26.55 104.85 23.85 105.55 20.65 L105.6 20.4 106.05 16.25 Q108.7 15.35 110.7 14.15 L110.45 17.55 109.45 25.05 116.9 27.75 Q126.15 31.25 133.2 34.95 129.95 37.4 125.5 39.9 122.2 37.65 117.15 35.2 113.15 33.25 108.1 31.2 L109.45 25.05 M95.0 -21.25 L97.6 -22.0 103.65 -23.4 Q106.35 -20.0 108.0 -14.55 L106.1 -13.15 Q100.65 -9.4 91.85 -5.7 89.65 -6.65 87.25 -7.1 L84.95 -7.5 Q82.6 -7.75 80.35 -7.5 77.15 -7.25 74.0 -5.95 71.8 -5.1 69.65 -3.65 L68.8 -3.05 Q69.9 -5.35 71.4 -7.5 L72.65 -9.2 72.7 -9.2 Q81.1 -17.05 95.0 -21.25 M104.65 7.7 L103.3 4.9 102.15 2.8 99.95 0.0 Q106.35 -2.75 109.95 -5.7 110.55 -1.25 110.8 4.1 108.15 6.15 104.65 7.7 M95.55 35.45 Q100.85 35.9 106.85 35.15 L105.5 38.55 Q112.2 41.4 117.05 44.0 121.25 46.3 124.05 48.4 L123.05 55.2 108.15 47.7 104.55 40.5 Q103.05 43.6 101.0 46.05 L99.25 45.8 101.0 49.05 Q106.3 59.15 108.45 66.9 103.55 66.15 100.35 65.1 L99.15 60.65 Q97.05 53.75 92.9 44.2 87.8 42.45 83.35 39.3 L85.15 39.2 88.2 38.6 91.45 37.6 Q93.55 36.75 95.55 35.45 M93.6 66.7 Q90.6 69.3 86.65 71.7 L86.2 68.85 Q83.55 54.05 76.65 38.45 L78.15 38.8 83.2 39.3 Q90.65 52.8 93.6 66.7 M-90.4 -28.55 Q-87.65 -31.9 -84.7 -33.25 -70.6 -28.6 -61.7 -7.55 -64.85 -8.85 -68.0 -9.1 L-68.05 -9.1 Q-73.2 -19.15 -90.4 -28.55 M-109.4 25.15 L-110.4 17.65 -110.65 14.25 Q-104.7 17.75 -93.25 19.05 -92.35 23.05 -90.5 26.3 -102.6 28.0 -109.4 25.15 L-108.05 31.3 Q-115.65 34.4 -120.75 37.2 -123.45 38.65 -125.45 40.0 -129.9 37.5 -133.15 35.05 -127.6 32.15 -120.6 29.35 -115.4 27.2 -109.4 25.15 M-93.6 11.2 Q-104.5 9.0 -110.75 4.2 -110.5 -1.15 -109.9 -5.6 -104.1 -0.85 -91.0 3.3 -92.3 5.5 -92.95 7.95 L-93.35 9.6 -93.6 11.2 M-75.9 37.0 Q-84.05 54.9 -86.6 71.8 L-89.75 69.75 -93.55 66.8 Q-91.75 58.25 -88.2 49.85 -86.0 44.5 -83.05 39.25 L-85.6 40.95 Q-89.05 43.0 -92.85 44.3 -98.45 57.2 -100.3 65.2 L-102.4 65.85 -108.4 67.0 Q-106.85 61.35 -103.6 54.5 -101.7 50.4 -99.2 45.9 L-100.95 46.15 Q-103.0 43.7 -104.5 40.6 L-108.1 47.8 -123.0 55.3 -124.0 48.5 -120.6 46.2 Q-114.9 42.65 -105.45 38.65 L-106.8 35.25 Q-94.0 36.8 -84.5 32.95 L-84.45 33.0 -83.4 33.7 Q-81.35 35.1 -79.15 36.0 L-79.05 36.05 -75.9 37.0 M-100.35 -22.6 L-94.95 -21.15 Q-81.05 -16.95 -72.65 -9.1 L-74.9 -8.7 -74.95 -8.7 Q-81.35 -7.45 -85.9 -3.3 -100.65 -8.8 -107.95 -14.45 L-107.3 -16.4 Q-105.8 -20.55 -103.6 -23.3 L-100.35 -22.6" fill="#ff9933" fill-rule="evenodd" stroke="none"/>
    <path d="M91.9 -5.75 Q89.7 -6.7 87.3 -7.15 L85.0 -7.55 Q82.65 -7.8 80.4 -7.55 77.2 -7.3 74.05 -6.0 71.85 -5.15 69.7 -3.7 L68.85 -3.1 Q66.05 -1.1 64.1 1.45 61.7 4.5 60.45 8.35 59.25 0.75 61.8 -7.7 70.7 -28.75 84.8 -33.4 87.75 -32.05 90.5 -28.7 L93.3 -24.55 97.65 -22.05 103.7 -23.45 Q106.4 -20.05 108.05 -14.6 109.2 -11.05 109.9 -6.5 L110.0 -5.75 Q110.6 -1.3 110.85 4.05 L110.95 10.7 110.75 14.1 110.5 17.5 138.85 29.85 Q136.7 32.4 133.25 34.9 130.0 37.35 125.55 39.85 L124.8 40.3 124.1 48.35 123.1 55.15 121.75 60.45 109.2 49.95 Q113.85 60.3 115.4 67.65 L115.45 67.85 115.4 67.85 108.5 66.85 Q103.6 66.1 100.4 65.05 L98.9 64.5 96.9 63.6 93.65 66.65 Q90.65 69.25 86.7 71.65 L85.9 72.1 82.15 74.05 Q80.0 59.7 72.95 37.5 L72.75 37.0 76.7 38.4 78.2 38.75 83.25 39.25 83.4 39.25 85.2 39.15 88.25 38.55 Q89.9 38.25 91.5 37.55 L95.6 35.4 95.75 35.25 96.85 34.5 97.8 33.7 Q103.85 34.65 106.85 33.6 106.0 30.8 102.85 27.85 L103.55 26.5 Q104.9 23.8 105.6 20.6 L105.65 20.35 106.1 16.2 105.95 12.75 105.7 11.15 105.3 9.5 104.7 7.65 103.35 4.85 102.2 2.75 100.0 -0.05 98.25 -1.75 95.95 -3.55 95.5 -5.5 93.1 -5.25 91.9 -5.75 M-90.35 -28.6 Q-87.6 -31.95 -84.65 -33.3 -70.55 -28.65 -61.65 -7.6 -64.8 -8.9 -67.95 -9.15 L-68.0 -9.15 Q-70.25 -9.4 -72.55 -9.15 L-72.6 -9.15 -74.85 -8.75 -74.9 -8.75 Q-81.3 -7.5 -85.85 -3.35 L-85.85 -3.3 Q-88.05 -1.45 -89.8 1.15 L-90.95 3.25 Q-92.25 5.45 -92.9 7.9 L-93.3 9.55 -93.55 11.15 -93.55 11.2 Q-94.0 14.85 -93.25 18.75 L-93.2 19.0 Q-92.3 23.0 -90.45 26.25 L-90.45 26.3 Q-93.6 29.2 -94.45 32.0 -91.45 33.05 -85.4 32.1 L-84.45 32.9 -84.4 32.95 -83.35 33.65 Q-81.3 35.05 -79.1 35.95 L-79.0 36.0 -75.85 36.95 -75.8 37.0 -72.8 37.55 -72.8 37.6 Q-79.85 59.8 -82.0 74.15 L-86.55 71.75 -89.7 69.7 -93.5 66.75 -96.75 63.7 Q-98.15 64.45 -100.25 65.15 L-102.35 65.8 -108.35 66.95 -115.3 67.95 Q-113.8 60.55 -109.05 50.05 L-121.6 60.55 -122.95 55.25 -123.95 48.45 -124.65 40.4 -125.4 39.95 Q-129.85 37.45 -133.1 35.0 -136.55 32.5 -138.7 29.95 L-110.35 17.6 -110.6 14.2 -110.8 10.8 -110.7 4.15 Q-110.45 -1.2 -109.85 -5.65 -109.15 -10.65 -107.9 -14.5 L-107.25 -16.45 Q-105.75 -20.6 -103.55 -23.35 L-100.3 -22.65 Q-96.55 -25.05 -92.2 -26.25 L-92.0 -26.25 -90.35 -28.6" fill="#ff9933" fill-rule="evenodd" stroke="none"/>
  </g>
</svg>
