<?xml version="1.0" encoding="UTF-8" standalone="no"?>
<svg xmlns:xlink="http://www.w3.org/1999/xlink" height="255.6px" width="353.9px" xmlns="http://www.w3.org/2000/svg">
  <g transform="matrix(1.0, 0.0, 0.0, 1.0, 176.95, 127.8)">
    <path d="M95.05 -125.1 L99.4 -122.6 M111.65 -107.05 Q115.2 -99.3 117.25 -88.65 L118.2 -80.45 M104.9 4.3 Q101.4 -9.65 100.65 -22.5 100.2 -29.45 100.65 -36.05 M118.25 -44.5 L117.15 -32.7 116.5 -27.35 116.7 -22.5 Q117.5 -7.9 122.4 4.65 126.6 15.5 133.85 24.9 147.6 39.8 157.9 48.65 172.35 62.8 175.25 71.9 178.55 82.4 166.4 86.15 174.0 81.45 169.4 71.9 166.75 66.4 160.0 59.3 L148.15 48.65 Q151.95 52.7 154.3 56.15 159.7 64.1 162.3 71.9 170.05 95.4 151.8 117.05 133.25 133.05 111.5 122.85 99.35 118.55 94.55 106.5 78.75 96.1 79.85 82.05 83.55 91.6 91.75 93.5 L91.75 93.55 95.8 94.0 Q107.0 94.05 109.45 79.35 109.9 75.9 108.8 71.9 105.35 59.65 87.15 41.85 76.3 29.3 79.85 4.65 81.3 -5.75 85.35 -18.25 L86.55 -22.5 87.65 -28.45 M148.15 48.65 L147.4 47.9 Q142.25 42.55 134.7 36.35 M85.95 6.75 L86.1 4.65 Q86.95 -5.45 93.1 -18.55 M102.35 47.0 Q112.0 61.3 113.5 71.9 114.3 77.7 112.7 82.35 113.6 77.45 112.0 71.9 108.95 61.7 97.4 49.25 L97.35 49.25 Q83.0 31.3 85.6 8.05 85.15 20.75 102.35 47.0 M115.45 27.0 Q134.2 53.45 137.65 71.9 140.55 87.6 132.3 97.5 M113.0 112.85 Q98.6 108.7 91.75 93.55 92.35 100.85 94.55 106.5 M-90.45 -126.8 Q-94.8 -125.6 -98.55 -123.2 M-105.5 -117.0 Q-113.75 -107.25 -117.3 -88.65 L-118.4 -78.65 M-113.05 112.85 Q-98.65 108.7 -91.8 93.55 L-95.85 94.0 Q-107.05 94.05 -109.5 79.35 -109.95 75.9 -108.8 71.9 -105.4 59.65 -87.2 41.85 -76.35 29.3 -79.85 4.65 -81.35 -5.75 -85.4 -18.25 L-86.6 -22.5 Q-87.6 -26.6 -87.95 -30.85 M-104.95 4.3 Q-101.45 -9.65 -100.65 -22.5 -100.3 -28.75 -100.6 -34.75 M-118.05 -41.5 L-117.1 -32.1 -116.55 -27.35 -116.7 -22.5 -117.0 -18.7 Q-118.2 -6.25 -122.4 4.65 -126.65 15.5 -133.9 24.9 -147.65 39.8 -157.95 48.65 -172.4 62.8 -175.25 71.9 -178.6 82.4 -166.45 86.15 -174.05 81.45 -169.45 71.9 -166.8 66.4 -160.05 59.3 L-148.2 48.65 -147.45 47.9 Q-142.3 42.55 -134.75 36.35 M-86.0 6.75 L-86.1 4.65 Q-87.0 -5.45 -93.15 -18.55 M-102.4 47.0 Q-112.05 61.3 -113.5 71.9 -114.35 77.7 -112.75 82.35 -113.65 77.45 -112.0 71.9 -109.0 61.7 -97.45 49.25 L-97.4 49.25 Q-83.05 31.3 -85.65 8.05 -85.2 20.75 -102.4 47.0 M-115.5 27.0 Q-134.25 53.45 -137.65 71.9 -140.6 87.6 -132.35 97.5 M-94.6 106.5 Q-78.8 96.1 -79.9 82.05 -83.6 91.6 -91.8 93.5 L-91.8 93.55 Q-92.4 100.85 -94.6 106.5 -99.4 118.55 -111.55 122.85 -133.3 133.05 -151.85 117.05 -170.1 95.4 -162.35 71.9 -159.75 64.1 -154.35 56.15 -152.0 52.7 -148.2 48.65" fill="none" stroke="#000000" stroke-linecap="round" stroke-linejoin="round" stroke-width="2.0"/>
  </g>
</svg>
