<?xml version="1.0" encoding="UTF-8" standalone="no"?>
<svg xmlns:xlink="http://www.w3.org/1999/xlink" height="157.15px" width="279.55px" xmlns="http://www.w3.org/2000/svg">
  <g transform="matrix(1.0, 0.0, 0.0, 1.0, 103.6, 105.8)">
    <path d="M52.5 -92.9 Q47.75 -98.4 51.2 -104.8 56.05 -99.9 54.95 -94.95 56.3 -98.55 60.85 -99.7 61.95 -94.9 56.1 -92.5 L54.55 -92.7 52.5 -92.9 M54.55 -92.7 L54.95 -94.95 54.55 -92.7" fill="#5cc978" fill-rule="evenodd" stroke="none"/>
    <path d="M104.25 -33.05 L102.9 -30.55 104.2 -33.05 104.25 -33.05 M108.8 -33.05 L110.95 -34.9 108.85 -33.05 108.8 -33.05" fill="#272727" fill-rule="evenodd" stroke="none"/>
    <path d="M100.2 -22.35 Q102.15 -24.9 104.95 -26.9 L105.8 -27.5 Q107.95 -28.95 110.15 -29.8 113.3 -31.1 116.5 -31.35 118.75 -31.6 121.1 -31.35 L123.4 -30.95 Q125.8 -30.5 128.0 -29.55 L129.2 -29.05 Q127.0 -28.55 124.45 -27.1 127.0 -28.55 129.2 -29.05 L131.6 -29.3 132.05 -27.35 134.35 -25.55 136.1 -23.85 138.3 -21.05 139.45 -18.95 140.8 -16.15 141.4 -14.3 Q139.85 -10.35 137.4 -7.95 L136.0 -6.9 Q134.1 -7.25 133.25 -6.25 L132.9 -5.35 Q132.5 -4.05 133.5 -3.3 134.55 -2.55 136.1 -3.55 136.95 -3.85 136.95 -5.5 L137.9 -6.15 138.15 -6.4 Q141.15 -8.75 141.8 -12.65 L142.05 -11.05 142.2 -7.6 Q142.15 -5.55 141.75 -3.45 L141.7 -3.2 Q141.0 0.0 139.65 2.7 L138.95 4.05 Q136.95 7.35 133.9 9.9 136.95 7.35 138.95 4.05 142.1 7.0 142.95 9.8 139.95 10.85 133.9 9.9 L132.95 10.7 131.85 11.45 131.7 11.6 Q129.7 12.9 127.6 13.75 126.0 14.45 124.35 14.75 L121.3 15.35 119.5 15.45 119.35 15.45 114.3 14.95 112.8 14.6 108.85 13.2 Q103.05 10.6 99.35 5.0 93.95 -3.1 95.8 -12.55 96.1 -14.05 96.55 -15.45 97.8 -19.3 100.2 -22.35 M118.55 -8.3 L120.15 -5.35 118.55 -8.3 M120.8 -0.25 L120.8 -0.2 122.35 -0.5 Q123.5 0.2 124.35 0.05 124.5 -1.05 123.85 -2.3 122.65 -1.45 122.35 -0.5 122.65 -1.45 123.85 -2.3 124.5 -1.05 124.35 0.05 123.5 0.2 122.35 -0.5 L120.8 -0.2 120.8 -0.25 Q119.95 0.25 119.85 0.9 119.7 1.7 120.65 2.8 119.7 1.7 119.85 0.9 119.95 0.25 120.8 -0.25 118.6 -0.45 119.45 -3.6 118.6 -0.45 120.8 -0.25 M126.35 -26.15 Q127.5 -26.9 129.6 -27.0 130.1 -25.9 129.3 -22.55 130.1 -25.9 129.6 -27.0 127.5 -26.9 126.35 -26.15 M132.35 -22.05 L132.45 -22.4 Q132.7 -24.25 132.05 -27.35 132.7 -24.25 132.45 -22.4 L132.35 -22.05 M126.3 -8.4 L125.5 -7.75 Q125.15 -7.25 125.35 -6.65 125.5 -6.2 126.1 -5.95 126.6 -5.75 127.15 -5.95 127.75 -6.15 128.0 -6.6 L128.15 -7.6 127.4 -8.4 Q126.9 -8.6 126.3 -8.4 M122.4 -9.85 L122.85 -5.55 122.4 -9.85 M120.25 -10.9 L121.5 -5.7 120.25 -10.9 M136.7 8.75 L140.3 8.3 Q139.9 7.05 138.6 6.05 139.9 7.05 140.3 8.3 L136.7 8.75 M129.35 1.05 L128.55 1.75 128.3 2.55 128.35 2.9 129.05 3.5 130.2 3.6 131.0 2.9 131.05 2.85 131.2 1.85 Q131.0 1.3 130.4 1.1 L129.35 1.05 M124.05 8.15 L124.05 3.85 124.05 8.15 M126.75 9.2 L125.0 4.2 126.75 9.2 M128.3 7.15 L125.95 3.55 128.3 7.15 M-25.55 -31.4 Q-23.35 -30.55 -21.2 -29.1 -13.1 -23.7 -11.2 -14.15 -9.35 -4.7 -14.75 3.4 -20.1 11.45 -29.7 13.35 L-36.7 13.75 -39.7 13.2 -39.75 13.15 -42.9 12.2 -43.0 12.15 Q-45.2 11.25 -47.25 9.85 L-48.3 9.15 -48.35 9.1 -49.3 8.3 Q-52.35 5.75 -54.35 2.5 L-54.35 2.45 -54.35 2.5 Q-52.35 5.75 -49.3 8.3 -55.35 9.25 -58.35 8.2 -57.5 5.4 -54.35 2.5 L-54.35 2.45 Q-56.2 -0.8 -57.1 -4.8 L-57.15 -5.05 Q-57.9 -8.95 -57.45 -12.6 L-57.45 -12.65 -57.2 -14.25 -56.75 -12.5 Q-55.0 -7.2 -47.95 -5.4 L-47.9 -5.25 Q-47.3 -3.85 -46.45 -3.85 -44.6 -3.55 -43.9 -4.6 -43.55 -5.15 -43.6 -5.75 -43.75 -6.6 -44.75 -7.45 -45.9 -8.05 -47.55 -7.05 -52.05 -8.05 -54.9 -12.2 -55.95 -13.8 -56.8 -15.9 -56.15 -18.35 -54.85 -20.55 L-53.7 -22.65 Q-51.95 -25.25 -49.75 -27.1 L-49.75 -27.15 Q-45.2 -31.3 -38.8 -32.55 L-38.75 -32.55 -36.5 -32.95 -36.45 -32.95 Q-34.15 -33.2 -31.9 -32.95 L-31.85 -32.95 Q-28.7 -32.7 -25.55 -31.4 M-37.3 -26.5 Q-41.3 -28.8 -44.45 -28.7 L-45.15 -25.45 Q-45.55 -22.95 -45.2 -21.45 -45.55 -22.95 -45.15 -25.45 L-44.45 -28.7 Q-41.3 -28.8 -37.3 -26.5 M-39.2 -25.55 Q-40.35 -26.3 -42.45 -26.4 -42.75 -25.8 -42.6 -24.45 L-42.15 -21.95 -42.6 -24.45 Q-42.75 -25.8 -42.45 -26.4 -40.35 -26.3 -39.2 -25.55 M-31.0 -11.95 L-32.25 -6.75 -31.0 -11.95 M-33.15 -10.9 L-33.55 -6.7 -33.15 -10.9 M-37.05 -9.45 Q-37.65 -9.65 -38.15 -9.45 L-38.9 -8.65 -38.75 -7.65 -37.9 -7.0 Q-37.35 -6.8 -36.85 -7.0 -36.25 -7.25 -36.1 -7.7 -35.9 -8.3 -36.25 -8.8 L-37.05 -9.45 M-37.5 8.15 L-35.65 2.9 -37.5 8.15 M-29.3 -9.35 L-30.95 -6.3 -29.3 -9.35 M-31.4 1.75 L-30.95 1.15 -30.6 0.45 Q-30.45 -0.15 -30.75 -0.6 L-31.25 -1.1 -31.55 -1.3 -31.55 -1.25 -33.1 -1.55 Q-33.4 -2.5 -34.6 -3.35 -35.25 -2.1 -35.1 -1.0 -34.25 -0.85 -33.1 -1.55 -34.25 -0.85 -35.1 -1.0 -35.25 -2.1 -34.6 -3.35 -33.4 -2.5 -33.1 -1.55 L-31.55 -1.25 -31.55 -1.3 -31.15 -1.35 Q-29.65 -1.7 -30.05 -3.95 L-30.15 -4.4 -30.05 -3.95 Q-29.65 -1.7 -31.15 -1.35 L-31.55 -1.3 -31.25 -1.1 -30.75 -0.6 Q-30.45 -0.15 -30.6 0.45 L-30.95 1.15 -31.4 1.75 M-40.1 0.0 L-41.15 0.05 Q-41.75 0.25 -41.95 0.8 -42.1 1.3 -41.75 1.85 L-40.95 2.55 -39.8 2.45 -39.1 1.85 Q-38.95 1.25 -39.3 0.7 L-40.1 0.0 M-52.1 7.15 Q-54.4 7.35 -55.7 6.7 -55.3 5.45 -54.0 4.45 -55.3 5.45 -55.7 6.7 -54.4 7.35 -52.1 7.15 M-34.8 7.1 L-34.65 3.0 -34.8 7.1 M-39.05 6.1 L-36.7 2.5 -39.05 6.1" fill="#ffdca8" fill-rule="evenodd" stroke="none"/>
    <path d="M131.15 -45.1 L129.4 -48.35 Q131.7 -47.3 133.75 -45.85 L131.15 -45.1 M-64.2 -46.45 Q-60.45 -48.85 -56.1 -50.05 L-55.9 -50.05 -58.8 -45.0 -64.2 -46.45" fill="#705c50" fill-rule="evenodd" stroke="none"/>
    <path d="M126.3 -8.4 Q126.9 -8.6 127.4 -8.4 L128.15 -7.6 128.0 -6.6 Q127.75 -6.15 127.15 -5.95 126.6 -5.75 126.1 -5.95 125.5 -6.2 125.35 -6.65 125.15 -7.25 125.5 -7.75 L126.3 -8.4 M141.8 -12.65 Q141.15 -8.75 138.15 -6.4 L137.9 -6.15 136.95 -5.5 Q136.95 -3.85 136.1 -3.55 134.55 -2.55 133.5 -3.3 132.5 -4.05 132.9 -5.35 L133.25 -6.25 Q134.1 -7.25 136.0 -6.9 L137.4 -7.95 Q139.85 -10.35 141.4 -14.3 L141.8 -12.65 M129.35 1.05 L130.4 1.1 Q131.0 1.3 131.2 1.85 L131.05 2.85 131.0 2.9 130.2 3.6 129.05 3.5 128.35 2.9 128.3 2.55 128.55 1.75 129.35 1.05 M-56.8 -15.9 Q-55.95 -13.8 -54.9 -12.2 -52.05 -8.05 -47.55 -7.05 -45.9 -8.05 -44.75 -7.45 -43.75 -6.6 -43.6 -5.75 -43.55 -5.15 -43.9 -4.6 -44.6 -3.55 -46.45 -3.85 -47.3 -3.85 -47.9 -5.25 L-47.95 -5.4 Q-55.0 -7.2 -56.75 -12.5 L-57.2 -14.25 -56.8 -15.9 M-37.05 -9.45 L-36.25 -8.8 Q-35.9 -8.3 -36.1 -7.7 -36.25 -7.25 -36.85 -7.0 -37.35 -6.8 -37.9 -7.0 L-38.75 -7.65 -38.9 -8.65 -38.15 -9.45 Q-37.65 -9.65 -37.05 -9.45 M-40.1 0.0 L-39.3 0.7 Q-38.95 1.25 -39.1 1.85 L-39.8 2.45 -40.95 2.55 -41.75 1.85 Q-42.1 1.3 -41.95 0.8 -41.75 0.25 -41.15 0.05 L-40.1 0.0" fill="#1e1a14" fill-rule="evenodd" stroke="none"/>
    <path d="M104.25 -33.05 Q105.8 -36.1 108.5 -39.05 113.55 -44.75 122.7 -50.25 L126.6 -52.5 129.4 -48.35 131.15 -45.1 130.3 -44.8 110.95 -34.9 108.8 -33.05 107.55 -31.35 Q106.05 -29.2 104.95 -26.9 102.15 -24.9 100.2 -22.35 L100.3 -22.85 100.3 -23.0 100.35 -23.15 102.9 -30.55 104.25 -33.05 M144.15 -38.4 Q145.3 -34.85 146.0 -30.3 L146.1 -29.55 Q142.5 -26.6 136.1 -23.85 L134.35 -25.55 132.05 -27.35 131.6 -29.3 129.2 -29.05 128.0 -29.55 Q136.8 -33.25 142.25 -37.0 L144.15 -38.4 M146.95 -19.75 L147.05 -13.1 146.85 -9.7 Q144.85 -8.5 142.2 -7.6 L142.05 -11.05 141.8 -12.65 141.4 -14.3 140.8 -16.15 Q144.3 -17.7 146.95 -19.75 M146.6 -6.3 L174.95 6.05 Q172.8 8.6 169.35 11.1 162.3 7.4 153.05 3.9 L145.6 1.2 144.25 7.35 Q149.3 9.4 153.3 11.35 158.35 13.8 161.65 16.05 L160.9 16.5 160.2 24.55 Q157.4 22.45 153.2 20.15 148.35 17.55 141.65 14.7 L143.0 11.3 144.25 7.35 143.0 11.3 Q137.0 12.05 131.7 11.6 L131.85 11.45 132.95 10.7 133.9 9.9 Q139.95 10.85 142.95 9.8 142.1 7.0 138.95 4.05 L139.65 2.7 Q143.0 2.3 145.6 1.2 L146.6 -6.3 M159.2 31.35 L157.85 36.65 145.3 26.15 Q149.95 36.5 151.5 43.85 L151.55 44.05 151.5 44.05 144.6 43.05 Q142.45 35.3 137.15 25.2 L135.4 21.95 137.15 22.2 Q139.2 19.75 140.7 16.65 L144.3 23.85 159.2 31.35 M136.5 41.25 L135.0 40.7 133.0 39.8 129.75 42.85 Q126.8 28.95 119.35 15.45 L119.5 15.45 Q123.95 18.6 129.05 20.35 133.2 29.9 135.3 36.8 L136.5 41.25 M122.8 47.85 L122.0 48.3 118.25 50.25 Q116.1 35.9 109.05 13.7 L108.85 13.2 112.8 14.6 Q119.7 30.2 122.35 45.0 L122.8 47.85 M145.3 26.15 L144.3 23.85 145.3 26.15 M-58.8 -45.0 L-55.9 -50.05 -54.25 -52.4 Q-37.05 -43.0 -31.9 -32.95 -34.15 -33.2 -36.45 -32.95 L-36.5 -32.95 Q-44.9 -40.8 -58.8 -45.0 M-36.7 13.75 L-36.7 13.8 Q-43.75 36.0 -45.9 50.35 L-50.45 47.95 Q-47.9 31.05 -39.75 13.15 L-39.7 13.2 -36.7 13.75 M-57.4 42.95 L-60.65 39.9 Q-62.05 40.65 -64.15 41.35 -62.3 33.35 -56.7 20.45 -52.9 19.15 -49.45 17.1 L-46.9 15.4 Q-49.85 20.65 -52.05 26.0 -55.6 34.4 -57.4 42.95 M-72.25 43.15 L-79.2 44.15 Q-77.7 36.75 -72.95 26.25 L-85.5 36.75 -86.85 31.45 -71.95 23.95 -68.35 16.75 Q-66.85 19.85 -64.8 22.3 L-63.05 22.05 Q-65.55 26.55 -67.45 30.65 -70.7 37.5 -72.25 43.15 M-87.85 24.65 L-88.55 16.6 -89.3 16.15 Q-87.3 14.8 -84.6 13.35 -79.5 10.55 -71.9 7.45 L-70.65 11.4 -71.9 7.45 -73.25 1.3 Q-66.45 4.15 -54.35 2.45 L-54.35 2.5 Q-57.5 5.4 -58.35 8.2 -55.35 9.25 -49.3 8.3 L-48.35 9.1 Q-57.85 12.95 -70.65 11.4 L-69.3 14.8 Q-78.75 18.8 -84.45 22.35 L-87.85 24.65 M-97.0 11.2 Q-100.45 8.7 -102.6 6.15 L-74.25 -6.2 -73.25 1.3 Q-79.25 3.35 -84.45 5.5 -91.45 8.3 -97.0 11.2 M-74.5 -9.6 L-74.7 -13.0 -74.6 -19.65 Q-68.35 -14.85 -57.45 -12.65 L-57.45 -12.6 Q-57.9 -8.95 -57.15 -5.05 L-57.1 -4.8 Q-68.55 -6.1 -74.5 -9.6 M-73.75 -29.45 Q-73.05 -34.45 -71.8 -38.3 -64.5 -32.65 -49.75 -27.15 L-49.75 -27.1 Q-51.95 -25.25 -53.7 -22.65 L-54.85 -20.55 Q-67.95 -24.7 -73.75 -29.45 M-72.95 26.25 L-71.95 23.95 -72.95 26.25" fill="#000000" fill-opacity="0.84705883" fill-rule="evenodd" stroke="none"/>
    <path d="M120.65 2.8 Q119.7 1.7 119.85 0.9 119.95 0.25 120.8 -0.25 118.6 -0.45 119.45 -3.6 M122.35 -0.5 Q122.65 -1.45 123.85 -2.3 124.5 -1.05 124.35 0.05 123.5 0.2 122.35 -0.5 L120.8 -0.2 120.8 -0.25 M120.15 -5.35 L118.55 -8.3 M129.3 -22.55 Q130.1 -25.9 129.6 -27.0 127.5 -26.9 126.35 -26.15 M122.85 -5.55 L122.4 -9.85 M138.15 -6.4 Q141.15 -8.75 141.8 -12.65 M141.4 -14.3 Q139.85 -10.35 137.4 -7.95 L136.0 -6.9 Q134.1 -7.25 133.25 -6.25 L132.9 -5.35 Q132.5 -4.05 133.5 -3.3 134.55 -2.55 136.1 -3.55 136.95 -3.85 136.95 -5.5 L137.9 -6.15 138.15 -6.4 M121.5 -5.7 L120.25 -10.9 M138.6 6.05 Q139.9 7.05 140.3 8.3 L136.7 8.75 M125.95 3.55 L128.3 7.15 M125.0 4.2 L126.75 9.2 M124.05 3.85 L124.05 8.15 M-42.15 -21.95 L-42.6 -24.45 Q-42.75 -25.8 -42.45 -26.4 -40.35 -26.3 -39.2 -25.55 M-56.8 -15.9 Q-55.95 -13.8 -54.9 -12.2 -52.05 -8.05 -47.55 -7.05 -45.9 -8.05 -44.75 -7.45 -43.75 -6.6 -43.6 -5.75 -43.55 -5.15 -43.9 -4.6 -44.6 -3.55 -46.45 -3.85 -47.3 -3.85 -47.9 -5.25 L-47.95 -5.4 Q-55.0 -7.2 -56.75 -12.5 L-57.2 -14.25 M-33.55 -6.7 L-33.15 -10.9 M-32.25 -6.75 L-31.0 -11.95 M-33.1 -1.55 Q-34.25 -0.85 -35.1 -1.0 -35.25 -2.1 -34.6 -3.35 -33.4 -2.5 -33.1 -1.55 L-31.55 -1.25 -31.55 -1.3 -31.15 -1.35 Q-29.65 -1.7 -30.05 -3.95 L-30.15 -4.4 M-31.55 -1.3 L-31.25 -1.1 -30.75 -0.6 Q-30.45 -0.15 -30.6 0.45 L-30.95 1.15 -31.4 1.75 M-30.95 -6.3 L-29.3 -9.35 M-35.65 2.9 L-37.5 8.15 M-36.7 2.5 L-39.05 6.1 M-34.65 3.0 L-34.8 7.1 M-54.0 4.45 Q-55.3 5.45 -55.7 6.7 -54.4 7.35 -52.1 7.15" fill="none" stroke="#000000" stroke-linecap="round" stroke-linejoin="round" stroke-width="1.0"/>
    <path d="M56.1 -92.5 Q62.9 -91.35 68.5 -87.1 73.3 -87.1 76.5 -88.05 77.55 -83.05 75.55 -79.8 80.75 -72.4 80.75 -62.85 80.75 -50.35 71.95 -41.6 63.15 -32.75 50.65 -32.75 38.25 -32.75 29.4 -41.6 20.6 -50.35 20.6 -62.85 20.6 -75.35 29.4 -84.15 L31.2 -85.8 Q29.75 -91.15 32.45 -95.65 34.6 -93.7 41.55 -91.55 45.8 -92.95 50.65 -92.95 L52.5 -92.9 Q47.75 -98.4 51.2 -104.8 56.05 -99.9 54.95 -94.95 56.3 -98.55 60.85 -99.7 61.95 -94.9 56.1 -92.5 L54.55 -92.7 52.5 -92.9 M54.95 -94.95 L54.55 -92.7 M129.4 -48.35 L126.6 -52.5 122.7 -50.25 Q113.55 -44.75 108.5 -39.05 105.8 -36.1 104.25 -33.05 L102.9 -30.55 100.35 -23.15 100.3 -23.0 100.3 -22.85 100.2 -22.35 Q102.15 -24.9 104.95 -26.9 106.05 -29.2 107.55 -31.35 L108.8 -33.05 110.95 -34.9 130.3 -44.8 131.15 -45.1 129.4 -48.35 M133.75 -45.85 L139.8 -47.25 Q142.5 -43.85 144.15 -38.4 145.3 -34.85 146.0 -30.3 L146.1 -29.55 Q146.7 -25.1 146.95 -19.75 L147.05 -13.1 146.85 -9.7 146.6 -6.3 174.95 6.05 Q172.8 8.6 169.35 11.1 166.1 13.55 161.65 16.05 L160.9 16.5 160.2 24.55 159.2 31.35 157.85 36.65 145.3 26.15 Q149.95 36.5 151.5 43.85 L151.55 44.05 151.5 44.05 144.6 43.05 Q139.7 42.3 136.5 41.25 L135.0 40.7 133.0 39.8 129.75 42.85 Q126.75 45.45 122.8 47.85 L122.0 48.3 118.25 50.25 Q116.1 35.9 109.05 13.7 L108.85 13.2 Q103.05 10.6 99.35 5.0 93.95 -3.1 95.8 -12.55 96.1 -14.05 96.55 -15.45 95.35 -23.05 97.9 -31.5 106.8 -52.55 120.9 -57.2 123.85 -55.85 126.6 -52.5 M139.8 -47.25 Q138.75 -45.55 136.4 -43.75 129.4 -38.5 111.1 -32.65 L107.55 -31.35 M128.0 -29.55 Q125.8 -30.5 123.4 -30.95 L121.1 -31.35 Q118.75 -31.6 116.5 -31.35 113.3 -31.1 110.15 -29.8 107.95 -28.95 105.8 -27.5 L104.95 -26.9 M100.2 -22.35 Q97.8 -19.3 96.55 -15.45 M128.0 -29.55 Q136.8 -33.25 142.25 -37.0 L144.15 -38.4 M129.2 -29.05 Q127.0 -28.55 124.45 -27.1 M129.2 -29.05 L128.0 -29.55 M132.05 -27.35 L131.6 -29.3 129.2 -29.05 M136.1 -23.85 L134.35 -25.55 132.05 -27.35 Q132.7 -24.25 132.45 -22.4 L132.35 -22.05 M133.75 -45.85 L131.15 -45.1 M140.8 -16.15 L139.45 -18.95 138.3 -21.05 136.1 -23.85 Q142.5 -26.6 146.1 -29.55 M141.4 -14.3 L140.8 -16.15 Q144.3 -17.7 146.95 -19.75 M141.8 -12.65 L141.4 -14.3 M139.65 2.7 Q141.0 0.0 141.7 -3.2 L141.75 -3.45 Q142.15 -5.55 142.2 -7.6 L142.05 -11.05 141.8 -12.65 M146.85 -9.7 Q144.85 -8.5 142.2 -7.6 M169.35 11.1 Q162.3 7.4 153.05 3.9 L145.6 1.2 144.25 7.35 Q149.3 9.4 153.3 11.35 158.35 13.8 161.65 16.05 M144.25 7.35 L143.0 11.3 141.65 14.7 Q148.35 17.55 153.2 20.15 157.4 22.45 160.2 24.55 M138.95 4.05 L139.65 2.7 Q143.0 2.3 145.6 1.2 L146.6 -6.3 M131.7 11.6 L131.85 11.45 132.95 10.7 133.9 9.9 Q136.95 7.35 138.95 4.05 142.1 7.0 142.95 9.8 139.95 10.85 133.9 9.9 M119.5 15.45 L121.3 15.35 124.35 14.75 Q126.0 14.45 127.6 13.75 129.7 12.9 131.7 11.6 137.0 12.05 143.0 11.3 M141.65 14.7 L140.7 16.65 144.3 23.85 159.2 31.35 M140.7 16.65 Q139.2 19.75 137.15 22.2 L135.4 21.95 137.15 25.2 Q142.45 35.3 144.6 43.05 M135.4 21.95 L129.05 20.35 Q133.2 29.9 135.3 36.8 L136.5 41.25 M112.8 14.6 Q119.7 30.2 122.35 45.0 L122.8 47.85 M144.3 23.85 L145.3 26.15 M108.85 13.2 L112.8 14.6 114.3 14.95 119.35 15.45 119.5 15.45 Q123.95 18.6 129.05 20.35 M129.75 42.85 Q126.8 28.95 119.35 15.45 M-64.2 -46.45 L-58.8 -45.0 -55.9 -50.05 -54.25 -52.4 Q-51.5 -55.75 -48.55 -57.1 -34.45 -52.45 -25.55 -31.4 -23.35 -30.55 -21.2 -29.1 -13.1 -23.7 -11.2 -14.15 -9.35 -4.7 -14.75 3.4 -20.1 11.45 -29.7 13.35 L-36.7 13.75 -36.7 13.8 Q-43.75 36.0 -45.9 50.35 L-50.45 47.95 -53.6 45.9 -57.4 42.95 -60.65 39.9 Q-62.05 40.65 -64.15 41.35 L-66.25 42.0 -72.25 43.15 -79.2 44.15 Q-77.7 36.75 -72.95 26.25 L-85.5 36.75 -86.85 31.45 -87.85 24.65 -88.55 16.6 -89.3 16.15 Q-93.75 13.65 -97.0 11.2 -100.45 8.7 -102.6 6.15 L-74.25 -6.2 -74.5 -9.6 -74.7 -13.0 -74.6 -19.65 Q-74.35 -25.0 -73.75 -29.45 -73.05 -34.45 -71.8 -38.3 L-71.15 -40.25 Q-69.65 -44.4 -67.45 -47.15 L-64.2 -46.45 M-54.85 -20.55 L-53.7 -22.65 Q-51.95 -25.25 -49.75 -27.1 L-49.75 -27.15 Q-64.5 -32.65 -71.8 -38.3 M-45.2 -21.45 Q-45.55 -22.95 -45.15 -25.45 L-44.45 -28.7 Q-41.3 -28.8 -37.3 -26.5 M-67.45 -47.15 L-65.9 -45.25 Q-59.85 -39.3 -38.75 -32.55 L-36.5 -32.95 Q-44.9 -40.8 -58.8 -45.0 M-57.2 -14.25 L-57.45 -12.65 -57.45 -12.6 Q-57.9 -8.95 -57.15 -5.05 L-57.1 -4.8 Q-56.2 -0.8 -54.35 2.45 L-54.35 2.5 Q-52.35 5.75 -49.3 8.3 L-48.35 9.1 -48.3 9.15 -47.25 9.85 Q-45.2 11.25 -43.0 12.15 L-42.9 12.2 -39.75 13.15 -39.7 13.2 -36.7 13.75 M-57.2 -14.25 L-56.8 -15.9 Q-56.15 -18.35 -54.85 -20.55 -67.95 -24.7 -73.75 -29.45 M-74.5 -9.6 Q-68.55 -6.1 -57.1 -4.8 M-57.45 -12.65 Q-68.35 -14.85 -74.6 -19.65 M-31.9 -32.95 L-31.85 -32.95 Q-28.7 -32.7 -25.55 -31.4 M-36.5 -32.95 L-36.45 -32.95 Q-34.15 -33.2 -31.9 -32.95 -37.05 -43.0 -54.25 -52.4 M-49.75 -27.15 Q-45.2 -31.3 -38.8 -32.55 L-38.75 -32.55 M-54.35 2.45 L-54.35 2.5 Q-57.5 5.4 -58.35 8.2 -55.35 9.25 -49.3 8.3 M-56.7 20.45 Q-52.9 19.15 -49.45 17.1 L-46.9 15.4 -42.9 12.2 M-87.85 24.65 L-84.45 22.35 Q-78.75 18.8 -69.3 14.8 L-70.65 11.4 -71.9 7.45 Q-79.5 10.55 -84.6 13.35 -87.3 14.8 -89.3 16.15 M-72.25 43.15 Q-70.7 37.5 -67.45 30.65 -65.55 26.55 -63.05 22.05 L-64.8 22.3 Q-66.85 19.85 -68.35 16.75 L-71.95 23.95 -72.95 26.25 M-69.3 14.8 L-68.35 16.75 M-54.35 2.45 Q-66.45 4.15 -73.25 1.3 L-71.9 7.45 M-46.9 15.4 Q-49.85 20.65 -52.05 26.0 -55.6 34.4 -57.4 42.95 M-63.05 22.05 Q-59.75 21.5 -56.7 20.45 -62.3 33.35 -64.15 41.35 M-70.65 11.4 Q-57.85 12.95 -48.35 9.1 M-39.75 13.15 Q-47.9 31.05 -50.45 47.95 M-97.0 11.2 Q-91.45 8.3 -84.45 5.5 -79.25 3.35 -73.25 1.3 L-74.25 -6.2 M-71.95 23.95 L-86.85 31.45" fill="none" stroke="#000000" stroke-linecap="round" stroke-linejoin="round" stroke-width="2.0"/>
  </g>
</svg>
