<?xml version="1.0" encoding="UTF-8" standalone="no"?>
<svg xmlns:xlink="http://www.w3.org/1999/xlink" height="253.8px" width="334.5px" xmlns="http://www.w3.org/2000/svg">
  <g transform="matrix(1.0, 0.0, 0.0, 1.0, 167.25, 126.9)">
    <path d="M83.05 93.65 L87.1 94.1 Q98.3 94.15 100.75 79.45 102.6 65.55 78.45 41.95 63.05 24.1 76.65 -18.15 84.15 -41.25 71.4 -68.4 60.8 -91.1 61.35 -108.45 71.5 -128.85 81.7 -126.7 102.35 -121.05 108.55 -88.55 112.25 -62.5 107.8 -27.25 108.15 3.0 125.15 25.0 138.9 39.9 149.2 48.75 180.35 79.3 157.7 86.25 169.7 78.8 151.3 59.4 L139.45 48.75 Q143.25 52.8 145.6 56.25 167.4 88.3 143.1 117.15 124.55 133.15 102.8 122.95 90.65 118.65 85.85 106.6 70.05 96.2 71.15 82.15 74.85 91.7 83.05 93.6 L83.05 93.65 M-83.05 93.65 L-83.05 93.6 Q-74.85 91.7 -71.15 82.15 -70.05 96.2 -85.85 106.6 -90.65 118.65 -102.8 122.95 -124.55 133.15 -143.1 117.15 -167.4 88.3 -145.6 56.25 -143.25 52.8 -139.45 48.75 L-151.3 59.4 Q-169.7 78.8 -157.7 86.25 -180.35 79.3 -149.2 48.75 -138.9 39.9 -125.15 25.0 -108.15 3.0 -107.8 -27.25 -112.25 -62.5 -108.55 -88.55 -102.35 -121.05 -81.7 -126.7 -71.5 -128.85 -61.35 -108.45 -60.8 -91.1 -71.4 -68.4 -84.15 -41.25 -76.65 -18.15 -63.05 24.1 -78.45 41.95 -102.6 65.55 -100.75 79.45 -98.3 94.15 -87.1 94.1 L-83.05 93.65 M93.65 47.1 Q76.45 20.85 76.9 8.15 74.3 31.4 88.65 49.35 L88.7 49.35 Q106.55 68.55 104.0 82.45 108.55 69.25 93.65 47.1 M-93.65 47.1 Q-108.55 69.25 -104.0 82.45 -106.55 68.55 -88.7 49.35 L-88.65 49.35 Q-74.3 31.4 -76.9 8.15 -76.45 20.85 -93.65 47.1" fill="#705c50" fill-rule="evenodd" stroke="none"/>
  </g>
</svg>
