<?xml version="1.0" encoding="UTF-8" standalone="no"?>
<svg xmlns:xlink="http://www.w3.org/1999/xlink" height="107.55px" width="260.3px" xmlns="http://www.w3.org/2000/svg">
  <g transform="matrix(1.0, 0.0, 0.0, 1.0, 130.1, 52.65)">
    <path d="M-99.7 47.75 L-99.65 47.7 -99.75 47.7 -106.7 48.7 Q-105.2 41.3 -100.45 30.8 L-113.0 41.3 -114.35 36.0 -115.35 29.2 -116.05 21.15 -116.7 20.75 -116.75 20.75 -117.85 20.15 -124.45 15.8 -124.5 15.75 Q-127.95 13.25 -130.1 10.7 L-101.75 -1.65 -102.0 -5.05 -102.2 -8.45 -102.1 -15.1 Q-101.85 -20.45 -101.25 -24.9 -100.55 -29.9 -99.3 -33.75 L-98.65 -35.7 Q-97.15 -39.85 -94.95 -42.6 L-91.7 -41.9 Q-87.95 -44.3 -83.6 -45.5 L-83.4 -45.5 -81.75 -47.85 Q-79.0 -51.2 -76.05 -52.55 L-73.75 -51.65 Q-68.9 -49.55 -64.65 -45.3 -58.45 -39.1 -53.65 -28.3 L-53.0 -26.8 Q-48.3 -11.2 -56.3 1.4 L-64.2 18.35 -64.2 18.4 Q-71.25 40.55 -73.4 54.9 L-77.9 52.55 -82.1 49.75 -84.85 47.55 -84.9 47.5 -88.15 44.45 -91.55 45.9 -91.6 45.95 Q-94.8 47.0 -99.7 47.75 M74.35 19.9 L74.4 20.0 74.5 20.0 74.35 19.9 M57.85 -36.35 Q65.45 -49.1 76.0 -52.6 L76.15 -52.65 Q79.1 -51.3 81.85 -47.95 L84.65 -43.8 89.0 -41.3 95.05 -42.7 Q97.75 -39.3 99.4 -33.85 100.55 -30.3 101.25 -25.75 L101.35 -25.0 Q101.95 -20.55 102.2 -15.2 L102.3 -8.55 102.1 -5.15 101.85 -1.75 130.2 10.6 Q128.05 13.15 124.6 15.65 121.35 18.1 116.9 20.6 L116.15 21.05 115.45 29.1 114.45 35.9 113.1 41.2 100.55 30.7 Q105.2 41.05 106.75 48.4 L106.8 48.6 106.75 48.6 99.85 47.6 99.7 47.6 99.7 47.65 Q94.8 46.9 91.6 45.85 L91.6 45.75 90.25 45.25 88.25 44.35 85.0 47.4 Q82.0 50.0 78.05 52.4 L77.25 52.85 73.5 54.8 Q71.35 40.45 64.3 18.25 L64.1 17.75 64.15 17.8 58.6 4.45 56.5 1.55 Q48.25 -11.15 53.0 -26.9 55.25 -32.15 57.85 -36.35" fill="#ff9933" fill-rule="evenodd" stroke="none"/>
  </g>
</svg>
