<?xml version="1.0" encoding="UTF-8" standalone="no"?>
<svg xmlns:xlink="http://www.w3.org/1999/xlink" height="109.55px" width="262.1px" xmlns="http://www.w3.org/2000/svg">
  <g transform="matrix(1.0, 0.0, 0.0, 1.0, 91.45, 58.2)">
    <path d="M96.1 -3.05 Q98.05 -0.1 100.7 2.7 L103.05 5.7 106.75 13.1 106.8 13.05 Q114.95 30.95 117.5 47.85 L112.95 50.25 Q110.8 35.9 103.75 13.7 L96.1 -3.05 M96.65 -5.3 L96.05 -7.35 Q104.35 -0.75 121.4 2.4 L121.4 2.35 Q133.5 4.05 140.3 1.2 L141.3 -6.3 169.65 6.05 Q167.5 8.6 164.05 11.1 154.3 6.0 140.3 1.2 L138.95 7.35 Q150.5 12.05 156.35 16.05 L155.6 16.5 154.9 24.55 Q148.9 20.0 136.35 14.7 L137.7 11.3 138.95 7.35 137.7 11.3 Q124.9 12.85 115.4 9.0 L115.35 9.05 Q101.95 3.05 96.65 -5.3 M95.95 -8.6 Q91.85 -20.7 98.9 -33.05 L98.95 -33.05 Q104.1 -43.1 121.3 -52.5 123.65 -49.55 125.85 -45.1 111.95 -40.9 103.55 -33.05 L103.5 -33.05 102.25 -31.35 Q98.2 -25.5 96.75 -18.5 L96.25 -15.5 96.75 -18.5 Q104.3 -22.85 116.8 -27.2 L116.8 -27.25 Q131.55 -32.75 138.85 -38.4 140.1 -34.55 140.8 -29.55 135.0 -24.8 121.9 -20.65 L121.9 -20.6 Q108.05 -16.65 96.25 -15.5 L95.95 -12.1 95.95 -9.7 95.95 -12.1 Q109.4 -10.25 124.5 -12.7 L124.5 -12.75 Q135.4 -14.95 141.65 -19.75 L141.75 -13.1 141.55 -9.7 Q135.6 -6.2 124.15 -4.9 105.65 -5.25 95.95 -9.7 L95.95 -8.6 M153.9 31.35 L152.55 36.65 140.0 26.15 Q144.75 36.65 146.25 44.05 L139.3 43.05 Q136.8 34.1 130.1 21.95 L131.85 22.2 Q133.9 19.75 135.4 16.65 L139.0 23.85 153.9 31.35 M131.2 41.25 Q129.1 40.55 127.7 39.8 L124.45 42.85 Q121.5 28.85 113.95 15.3 118.5 18.55 123.75 20.35 129.35 33.25 131.2 41.25 M140.0 26.15 L139.0 23.85 140.0 26.15 M-59.65 -38.3 Q-52.35 -32.65 -37.6 -27.15 L-37.6 -27.1 Q-25.1 -22.75 -17.55 -18.4 -19.0 -25.4 -23.05 -31.25 L-24.3 -32.95 -24.35 -32.95 Q-32.75 -40.8 -46.65 -45.0 -44.45 -49.45 -42.1 -52.4 -24.9 -43.0 -19.75 -32.95 L-19.7 -32.95 Q-12.65 -20.6 -16.75 -8.5 L-16.75 -9.6 Q-26.45 -5.15 -44.95 -4.8 -56.4 -6.1 -62.35 -9.6 L-62.55 -13.0 -62.45 -19.65 Q-56.2 -14.85 -45.3 -12.65 L-45.3 -12.6 Q-30.2 -10.15 -16.75 -12.0 L-17.05 -15.4 Q-28.85 -16.55 -42.7 -20.5 L-42.7 -20.55 Q-55.8 -24.7 -61.6 -29.45 -60.9 -34.45 -59.65 -38.3 M-62.1 -6.2 L-61.1 1.3 Q-54.3 4.15 -42.2 2.45 L-42.2 2.5 Q-25.15 -0.65 -16.85 -7.25 L-17.45 -5.2 Q-22.75 3.15 -36.15 9.15 L-36.2 9.1 Q-45.7 12.95 -58.5 11.4 L-57.15 14.8 Q-69.7 20.1 -75.7 24.65 L-76.4 16.6 -77.15 16.15 Q-71.3 12.15 -59.75 7.45 L-61.1 1.3 Q-75.1 6.1 -84.85 11.2 -88.3 8.7 -90.45 6.15 L-62.1 -6.2 M-16.75 -12.0 L-16.75 -9.6 -16.75 -12.0 M-17.55 -18.4 L-17.05 -15.4 -17.55 -18.4 M-16.9 -2.95 L-24.55 13.8 Q-31.6 36.0 -33.75 50.35 L-38.3 47.95 Q-35.75 31.05 -27.6 13.15 L-27.55 13.2 -23.85 5.8 -21.5 2.8 Q-18.85 0.0 -16.9 -2.95 M-45.25 42.95 L-48.5 39.9 -52.0 41.35 Q-50.15 33.35 -44.55 20.45 -39.3 18.65 -34.75 15.4 -42.3 28.95 -45.25 42.95 M-60.1 43.15 L-67.05 44.15 Q-65.55 36.75 -60.8 26.25 L-73.35 36.75 -74.7 31.45 -59.8 23.95 -56.2 16.75 Q-54.7 19.85 -52.65 22.3 L-50.9 22.05 Q-57.6 34.2 -60.1 43.15 M-58.5 11.4 L-59.75 7.45 -58.5 11.4 M-60.8 26.25 L-59.8 23.95 -60.8 26.25" fill="#000000" fill-opacity="0.84705883" fill-rule="evenodd" stroke="none"/>
    <path d="M121.3 -52.5 Q118.55 -55.85 115.6 -57.2 101.5 -52.55 92.6 -31.5 87.85 -15.75 96.1 -3.05 98.05 -0.1 100.7 2.7 98.05 -1.1 96.65 -5.3 L96.05 -7.35 96.05 -7.45 95.95 -8.6 Q91.85 -20.7 98.9 -33.05 M98.95 -33.05 Q104.1 -43.1 121.3 -52.5 123.65 -49.55 125.85 -45.1 L134.5 -47.25 Q137.2 -43.85 138.85 -38.4 140.1 -34.55 140.8 -29.55 141.4 -25.1 141.65 -19.75 L141.75 -13.1 141.55 -9.7 141.3 -6.3 169.65 6.05 Q167.5 8.6 164.05 11.1 160.8 13.55 156.35 16.05 L155.6 16.5 154.9 24.55 Q154.5 28.25 153.9 31.35 L152.55 36.65 140.0 26.15 Q144.75 36.65 146.25 44.05 L139.3 43.05 Q134.4 42.3 131.2 41.25 129.1 40.55 127.7 39.8 L124.45 42.85 Q121.45 45.45 117.5 47.85 L112.95 50.25 Q110.8 35.9 103.75 13.7 L96.1 -3.05 M116.8 -27.25 Q131.55 -32.75 138.85 -38.4 M103.5 -33.05 L102.25 -31.35 105.8 -32.65 Q130.25 -40.45 134.5 -47.25 M95.95 -9.7 L95.95 -12.1 96.25 -15.5 96.75 -18.5 Q98.2 -25.5 102.25 -31.35 M95.95 -8.6 L95.95 -9.7 Q105.65 -5.25 124.15 -4.9 135.6 -6.2 141.55 -9.7 M116.8 -27.2 Q104.3 -22.85 96.75 -18.5 M121.9 -20.65 Q135.0 -24.8 140.8 -29.55 M124.5 -12.75 Q135.4 -14.95 141.65 -19.75 M121.9 -20.6 Q108.05 -16.65 96.25 -15.5 M124.5 -12.7 Q109.4 -10.25 95.95 -12.1 M103.55 -33.05 Q111.95 -40.9 125.85 -45.1 M130.1 21.95 Q126.8 21.4 123.75 20.35 129.35 33.25 131.2 41.25 M135.4 16.65 L139.0 23.85 153.9 31.35 M136.35 14.7 L135.4 16.65 Q133.9 19.75 131.85 22.2 L130.1 21.95 Q136.8 34.1 139.3 43.05 M137.7 11.3 L136.35 14.7 Q148.9 20.0 154.9 24.55 M164.05 11.1 Q154.3 6.0 140.3 1.2 L138.95 7.35 Q150.5 12.05 156.35 16.05 M138.95 7.35 L137.7 11.3 Q124.9 12.85 115.4 9.0 M115.35 9.05 Q101.95 3.05 96.65 -5.3 M139.0 23.85 L140.0 26.15 M121.4 2.4 Q104.35 -0.75 96.05 -7.35 M106.8 13.05 Q114.95 30.95 117.5 47.85 M106.75 13.1 L103.05 5.7 100.7 2.7 M113.95 15.3 L109.95 12.1 Q105.95 9.05 103.05 5.7 M124.45 42.85 Q121.5 28.85 113.95 15.3 118.5 18.55 123.75 20.35 M121.4 2.35 Q133.5 4.05 140.3 1.2 L141.3 -6.3 M-23.05 -31.25 L-26.6 -32.55 Q-51.05 -40.35 -55.3 -47.15 -58.0 -43.75 -59.65 -38.3 -52.35 -32.65 -37.6 -27.15 M-37.6 -27.1 Q-25.1 -22.75 -17.55 -18.4 -19.0 -25.4 -23.05 -31.25 L-24.3 -32.95 M-24.35 -32.95 Q-32.75 -40.8 -46.65 -45.0 -50.75 -46.25 -55.3 -47.15 M-62.35 -9.6 L-62.1 -6.2 -61.1 1.3 Q-54.3 4.15 -42.2 2.45 M-42.2 2.5 Q-25.15 -0.65 -16.85 -7.25 L-16.85 -7.35 -16.75 -8.5 -16.75 -9.6 Q-26.45 -5.15 -44.95 -4.8 -56.4 -6.1 -62.35 -9.6 L-62.55 -13.0 -62.45 -19.65 Q-62.2 -25.0 -61.6 -29.45 -60.9 -34.45 -59.65 -38.3 M-45.3 -12.65 Q-56.2 -14.85 -62.45 -19.65 M-42.7 -20.55 Q-55.8 -24.7 -61.6 -29.45 M-19.7 -32.95 Q-12.65 -20.6 -16.75 -8.5 M-16.75 -9.6 L-16.75 -12.0 Q-30.2 -10.15 -45.3 -12.6 M-36.15 9.15 Q-22.75 3.15 -17.45 -5.2 L-16.85 -7.25 M-16.75 -12.0 L-17.05 -15.4 Q-28.85 -16.55 -42.7 -20.5 M-17.05 -15.4 L-17.55 -18.4 M-42.1 -52.4 Q-39.35 -55.75 -36.4 -57.1 -22.3 -52.45 -13.4 -31.4 -8.65 -15.65 -16.9 -2.95 L-24.55 13.8 Q-31.6 36.0 -33.75 50.35 L-38.3 47.95 Q-42.25 45.55 -45.25 42.95 L-48.5 39.9 -52.0 41.35 Q-55.2 42.4 -60.1 43.15 L-67.05 44.15 Q-65.55 36.75 -60.8 26.25 L-73.35 36.75 -74.7 31.45 -75.7 24.65 -76.4 16.6 -77.15 16.15 Q-81.6 13.65 -84.85 11.2 -88.3 8.7 -90.45 6.15 L-62.1 -6.2 M-42.1 -52.4 Q-24.9 -43.0 -19.75 -32.95 M-46.65 -45.0 Q-44.45 -49.45 -42.1 -52.4 M-36.2 9.1 Q-45.7 12.95 -58.5 11.4 L-57.15 14.8 -56.2 16.75 Q-54.7 19.85 -52.65 22.3 L-50.9 22.05 Q-47.6 21.5 -44.55 20.45 -39.3 18.65 -34.75 15.4 L-30.75 12.2 Q-26.75 9.15 -23.85 5.8 L-21.5 2.8 Q-18.85 -1.0 -17.45 -5.2 M-27.6 13.15 Q-35.75 31.05 -38.3 47.95 M-27.55 13.2 L-23.85 5.8 M-56.2 16.75 L-59.8 23.95 -60.8 26.25 M-59.75 7.45 L-58.5 11.4 M-75.7 24.65 Q-69.7 20.1 -57.15 14.8 M-74.7 31.45 L-59.8 23.95 M-77.15 16.15 Q-71.3 12.15 -59.75 7.45 L-61.1 1.3 Q-75.1 6.1 -84.85 11.2 M-60.1 43.15 Q-57.6 34.2 -50.9 22.05 M-52.0 41.35 Q-50.15 33.35 -44.55 20.45 M-45.25 42.95 Q-42.3 28.95 -34.75 15.4 M-16.9 -2.95 Q-18.85 0.0 -21.5 2.8" fill="none" stroke="#000000" stroke-linecap="round" stroke-linejoin="round" stroke-width="2.0"/>
  </g>
</svg>
