<?xml version="1.0" encoding="UTF-8" standalone="no"?>
<svg xmlns:xlink="http://www.w3.org/1999/xlink" height="146.2px" width="145.0px" xmlns="http://www.w3.org/2000/svg">
  <g transform="matrix(1.0, 0.0, 0.0, 1.0, 72.5, 73.1)">
    <path d="M40.85 -63.85 Q40.45 -51.55 43.15 -39.95 42.9 -51.5 50.8 -57.25 L49.3 -65.1 Q47.25 -70.1 40.85 -72.1 33.3 -66.15 31.55 -56.2 29.95 -47.95 36.95 -43.05 39.45 -41.3 43.15 -39.95 43.85 -36.75 44.85 -33.6 47.75 -31.15 52.3 -39.7 55.2 -46.0 54.4 -52.0 54.1 -54.7 50.8 -57.25 M38.55 -29.3 Q35.5 -28.2 37.15 -22.2 38.45 -18.85 42.7 -15.65 46.95 -12.5 54.05 -9.5 L52.35 -16.0 49.45 -24.35 Q43.3 -26.15 38.55 -29.3 36.25 -30.9 35.25 -33.75 31.2 -39.6 36.95 -43.05 M52.35 -16.0 Q56.1 -20.55 57.65 -24.6 59.7 -31.2 58.85 -34.85 56.6 -38.85 52.3 -39.7 M42.7 -15.65 Q37.95 -12.5 42.7 -5.75 44.6 -2.8 48.2 -0.2 51.3 1.95 55.7 3.95 L55.5 2.4 Q55.1 -1.0 55.0 -4.75 L54.05 -9.5 M55.7 3.95 Q56.25 7.85 57.25 11.2 L58.2 14.75 Q63.9 12.2 65.2 8.1 66.8 3.65 66.7 -0.35 66.5 -4.35 63.3 -7.95 61.5 -3.0 55.5 2.4 M63.3 -7.95 Q64.5 -13.3 63.3 -18.3 62.4 -23.85 57.65 -24.6 M44.85 -33.6 Q47.4 -29.25 49.45 -24.35 M58.2 14.75 Q59.3 19.25 59.05 22.55 57.8 26.85 58.0 32.2 64.6 28.35 66.7 23.6 68.55 18.4 68.35 15.35 67.45 10.15 65.2 8.1 M48.2 -0.2 Q42.4 1.85 45.9 9.7 47.3 13.45 49.9 16.35 53.4 20.3 59.05 22.55 M58.0 32.2 L58.25 35.7 Q58.6 38.45 59.3 41.5 M58.25 35.7 Q51.0 30.6 48.65 24.95 44.55 31.9 53.1 41.9 M66.1 43.3 Q69.5 40.35 70.5 34.4 70.7 26.1 66.7 23.6 M49.9 16.35 Q44.4 16.15 48.65 24.95 M57.9 52.75 Q56.95 55.2 57.4 58.1 57.6 59.5 58.15 60.9 L58.75 62.45 Q61.2 67.9 61.45 71.35 68.4 69.5 68.85 63.1 L68.85 61.3 68.85 61.0 68.8 60.55 Q68.45 57.4 66.9 53.45 M68.85 63.1 L68.85 66.7 Q74.55 60.8 67.95 49.5 M53.1 46.15 Q51.35 48.2 50.65 50.3 49.7 52.75 50.35 55.25 50.8 63.45 60.25 70.1 L58.15 60.9 M-66.05 44.05 Q-69.5 41.15 -70.5 35.15 -70.75 26.85 -66.65 24.35 -68.55 19.15 -68.35 16.1 -67.4 10.9 -65.2 8.9 -66.8 4.35 -66.65 0.45 -66.5 -3.65 -63.3 -7.2 -64.55 -12.6 -63.3 -17.6 -62.4 -23.1 -57.65 -23.9 -59.7 -30.4 -58.8 -34.1 -56.6 -38.1 -52.3 -38.95 -55.2 -45.25 -54.4 -51.2 -54.1 -53.95 -50.8 -56.55 L-49.3 -64.4 Q-47.3 -69.35 -40.85 -71.35 -33.3 -65.4 -31.5 -55.5 -29.95 -47.2 -36.9 -42.35 -31.2 -38.8 -35.2 -33.0 -36.25 -30.1 -38.5 -28.6 -35.45 -27.5 -37.1 -21.45 -38.45 -18.1 -42.7 -14.9 -37.9 -11.7 -42.7 -5.0 -44.55 -2.0 -48.15 0.6 -42.4 2.65 -45.9 10.45 -47.35 14.2 -49.9 17.1 -44.35 16.9 -48.65 25.65 -44.5 32.65 -53.1 42.65 M-52.3 -38.95 Q-47.75 -30.4 -44.9 -32.8 -43.85 -36.0 -43.1 -39.2 -42.85 -50.8 -50.8 -56.55 M-38.5 -28.6 Q-43.25 -25.35 -49.4 -23.6 -51.1 -19.6 -52.35 -15.25 L-54.05 -8.75 Q-46.95 -11.7 -42.7 -14.9 M-54.05 -8.75 L-55.0 -4.05 Q-55.05 -0.25 -55.45 3.15 L-55.65 4.65 Q-51.25 2.75 -48.15 0.6 M-57.65 -23.9 Q-56.1 -19.85 -52.35 -15.25 M-44.9 -32.8 Q-47.4 -28.5 -49.4 -23.6 M-36.9 -42.35 Q-39.45 -40.55 -43.1 -39.2 -40.4 -50.8 -40.85 -63.1 M-55.65 4.65 Q-56.2 8.55 -57.25 11.9 L-58.25 15.5 Q-59.3 20.05 -59.05 23.3 -53.45 21.0 -49.9 17.1 M-48.65 25.65 Q-51.05 31.35 -58.25 36.4 -58.6 39.2 -59.3 42.25 M-59.05 23.3 Q-57.75 27.65 -57.95 32.95 L-58.25 36.4 M-65.2 8.9 Q-63.85 12.95 -58.25 15.5 M-66.65 24.35 Q-64.6 29.05 -57.95 32.95 M-53.1 46.95 L-51.05 49.85 Q-49.5 52.9 -50.3 55.95 -50.75 64.25 -60.25 70.85 L-58.15 61.7 -58.7 63.2 Q-61.2 68.6 -61.4 72.1 -68.35 70.3 -68.85 63.85 L-68.85 67.45 Q-74.55 61.55 -67.95 50.2 M-57.65 60.2 L-58.15 61.7 M-68.85 63.85 L-68.85 62.05 -68.8 61.75 -68.75 61.3 -68.3 58.55 -66.95 54.25 M-63.3 -7.2 Q-61.5 -2.2 -55.45 3.15" fill="none" stroke="#000000" stroke-linecap="round" stroke-linejoin="round" stroke-width="2.0"/>
  </g>
</svg>
