<?xml version="1.0" encoding="UTF-8" standalone="no"?>
<svg xmlns:xlink="http://www.w3.org/1999/xlink" height="10.9px" width="139.35px" xmlns="http://www.w3.org/2000/svg">
  <g transform="matrix(1.0, 0.0, 0.0, 1.0, 71.8, -86.3)">
    <path d="M65.85 95.5 Q67.25 93.3 65.85 90.7 L64.0 89.3 Q61.65 88.05 57.8 87.55 L57.2 87.5 Q52.2 86.95 51.0 87.9 49.9 90.05 51.0 92.15 52.65 91.4 57.25 92.15 63.45 93.45 65.85 95.5 M-55.2 88.65 Q-54.05 90.85 -55.2 92.95 -56.85 92.15 -61.45 92.95 -67.7 94.2 -70.05 96.2 -71.5 94.1 -70.05 91.4 L-68.15 90.05 Q-65.85 88.75 -62.0 88.35 L-61.4 88.25 Q-56.4 87.7 -55.2 88.65" fill="none" stroke="#000000" stroke-linecap="round" stroke-linejoin="round" stroke-width="2.0"/>
  </g>
</svg>
