<?xml version="1.0" encoding="UTF-8" standalone="no"?>
<svg xmlns:xlink="http://www.w3.org/1999/xlink" height="192.8px" width="188.65px" xmlns="http://www.w3.org/2000/svg">
  <g transform="matrix(1.0, 0.0, 0.0, 1.0, 94.3, 96.4)">
    <path d="M62.35 -65.2 Q65.2 -57.2 65.6 -50.6 L65.6 -50.2 65.6 -49.8 65.65 -48.5 65.65 -47.75 Q65.8 -35.75 62.8 -32.4 73.0 -43.25 67.2 -62.25 62.1 -77.0 54.9 -83.3 46.0 -87.85 35.2 -79.75 22.25 -70.25 23.85 -59.05 26.05 -46.75 30.8 -35.65 35.5 -24.6 44.2 -23.85 M63.45 -15.6 Q73.45 -0.05 76.65 16.2 78.15 23.65 78.15 30.85 L78.1 33.55 77.95 39.05 Q77.05 55.3 72.5 65.2 85.25 42.35 82.2 12.5 82.1 6.0 80.6 0.1 L80.0 -2.15 Q78.25 -7.9 75.2 -13.05 70.1 -21.65 61.3 -28.6 L61.65 -29.7 Q72.75 -23.45 81.75 -14.2 97.6 6.8 91.75 39.35 91.75 10.55 75.2 -13.05 M65.65 -47.75 Q65.45 -37.95 59.4 -31.55 M62.8 -32.4 L62.75 -32.35 62.35 -31.9 M33.4 -59.7 Q39.1 -27.15 52.55 -26.4 M54.8 -66.95 Q66.35 -38.3 55.95 -28.4 M47.65 -20.85 Q58.45 22.4 53.2 45.4 58.2 36.8 59.65 26.6 L60.15 20.75 60.15 20.65 60.15 19.95 Q60.35 15.0 59.75 9.7 M60.15 19.95 L61.5 33.3 M61.5 33.7 Q63.9 69.7 52.3 87.45 73.8 65.5 77.45 40.9 M52.3 -22.0 Q58.45 -8.6 58.65 1.9 M-22.2 -47.5 L-22.3 -45.75 Q-15.3 -70.05 -22.5 -83.3 -34.55 -96.35 -44.65 -95.3 -48.4 -95.95 -53.0 -92.9 -57.25 -88.0 -61.05 -79.55 -64.9 -71.1 -68.0 -60.95 -76.65 -41.0 -63.9 -26.95 L-62.55 -27.9 Q-67.35 -39.35 -62.7 -53.4 -62.0 -60.2 -58.95 -66.5 M-61.8 -28.35 L-62.55 -27.9 M-59.75 -29.6 L-59.7 -30.6 Q-59.5 -31.6 -59.75 -32.8 L-59.8 -33.0 -60.85 -36.35 Q-63.45 -45.25 -62.7 -53.4 M-63.9 -26.95 Q-82.4 -14.3 -90.4 6.7 -96.5 21.9 -89.8 30.6 -87.05 34.25 -82.05 36.7 -87.9 29.3 -87.4 19.4 -87.25 15.8 -86.2 11.9 -82.8 -1.4 -69.8 -17.4 L-66.75 -21.05 M-31.9 -46.5 Q-34.15 -33.25 -39.5 -27.65 -31.65 -29.35 -27.4 -33.85 -23.05 -38.35 -22.3 -45.75 M-41.05 -65.6 Q-48.5 -42.35 -47.6 -30.45 -57.35 -49.35 -44.1 -76.0 M-41.25 -21.7 Q-29.25 -25.6 -27.4 -33.85 M-90.75 36.9 Q-95.85 77.9 -60.45 95.4 -74.95 78.95 -61.45 38.9 L-57.4 27.95 -56.9 26.6 M-57.4 27.95 Q-58.15 60.1 -66.6 74.75 -49.35 57.45 -43.65 18.85 -40.9 -1.8 -44.15 -16.35 M-56.3 -3.45 Q-68.45 24.65 -71.45 48.35 -73.2 62.3 -71.75 74.75 M-69.8 -17.4 Q-81.15 -1.0 -87.4 19.4 M-56.6 24.6 Q-57.25 13.3 -53.65 -5.45" fill="none" stroke="#000000" stroke-linecap="round" stroke-linejoin="round" stroke-width="2.0"/>
  </g>
</svg>
