<?xml version="1.0" encoding="UTF-8" standalone="no"?>
<svg xmlns:xlink="http://www.w3.org/1999/xlink" height="17.4px" width="125.85px" xmlns="http://www.w3.org/2000/svg">
  <g transform="matrix(1.0, 0.0, 0.0, 1.0, 65.2, -17.65)">
    <path d="M59.65 20.5 Q59.6 19.55 57.4 18.65 L57.3 18.8 56.5 19.6 53.95 21.8 Q52.35 22.9 50.55 23.8 46.9 25.6 42.2 26.35 42.0 27.9 44.25 29.35 L45.65 29.35 50.3 28.2 Q52.25 27.45 54.35 26.15 58.25 23.75 59.3 21.6 M-61.55 22.7 Q-61.9 21.7 -61.75 20.6 -62.15 20.85 -62.2 21.35 -62.2 22.3 -61.55 22.7 -53.9 27.85 -46.9 29.0 -45.05 29.25 -43.25 28.5 -43.95 33.0 -46.15 33.85 L-47.75 34.0 Q-60.35 32.5 -63.8 26.85 -64.6 24.8 -63.8 21.85 -63.8 20.45 -61.7 19.6" fill="none" stroke="#000000" stroke-linecap="round" stroke-linejoin="round" stroke-width="2.0"/>
  </g>
</svg>
