<?xml version="1.0" encoding="UTF-8" standalone="no"?>
<svg xmlns:xlink="http://www.w3.org/1999/xlink" height="195.35px" width="212.65px" xmlns="http://www.w3.org/2000/svg">
  <g transform="matrix(1.0, 0.0, 0.0, 1.0, 106.3, 97.65)">
    <path d="M77.1 -50.85 Q78.15 -50.05 79.15 -49.4 87.6 -43.9 97.55 -46.55 81.25 -48.8 77.4 -64.7 74.6 -76.3 70.3 -81.6 60.5 -89.1 52.4 -84.5 38.85 -71.7 37.35 -47.9 34.05 -2.1 54.95 33.85 61.1 45.15 74.55 58.0 M87.8 -2.25 Q92.8 -16.75 72.95 -39.35 82.65 -20.55 87.8 -2.25 87.0 0.05 85.6 2.15 L88.1 -1.2 Q98.6 -17.85 79.15 -49.4 M88.1 -1.2 L89.5 4.2 91.2 12.05 Q93.0 21.7 93.55 31.3 95.4 45.65 95.55 52.9 M98.8 70.5 L100.45 72.6 Q108.4 83.3 103.4 91.3 97.95 97.45 82.1 95.75 L76.05 94.9 Q85.2 95.05 89.35 89.8 81.95 93.6 71.45 91.2 63.6 88.2 60.4 80.65 58.95 77.3 58.45 73.05 60.3 80.95 70.75 83.3 78.4 85.05 82.4 82.05 72.85 86.3 66.4 74.3 71.8 79.0 77.15 78.2 82.45 77.4 81.9 72.75 M-67.35 64.7 Q-50.15 55.95 -41.25 39.2 -26.25 12.4 -22.25 -21.55 -18.7 -40.05 -20.8 -62.05 -20.9 -82.2 -30.35 -93.5 -40.0 -103.65 -52.15 -81.15 -64.4 -58.6 -94.05 -59.5 -69.4 -52.4 -55.35 -63.15 -52.95 -65.0 -50.75 -67.45 M-47.85 -58.3 L-52.95 -51.4 -53.1 -51.15 Q-56.0 -39.4 -75.8 -14.25 -75.95 -5.75 -70.2 -1.6 -77.0 -3.95 -80.4 -7.65 -109.15 37.25 -93.15 58.6 M-53.1 -51.15 L-66.55 -33.2 Q-74.2 -22.85 -75.8 -14.25 M-55.35 -63.15 Q-59.6 -54.85 -67.4 -45.95 -75.25 -37.2 -80.0 -28.15 -87.35 -15.15 -80.4 -7.65 M-72.35 87.75 Q-68.55 88.5 -64.3 86.6 -60.75 85.0 -59.2 81.95 L-58.6 80.4 Q-63.25 83.0 -66.55 81.6 -69.75 80.2 -69.8 77.8 -69.85 75.4 -71.85 72.25 M-95.65 90.65 Q-93.85 92.7 -90.75 94.1 -79.25 99.3 -64.7 94.15 -54.85 90.7 -50.75 81.9 -58.45 91.3 -72.35 87.75 M-95.65 90.65 Q-105.8 89.15 -105.25 81.4 -104.85 76.8 -101.8 72.2 -99.75 69.0 -96.4 65.85" fill="none" stroke="#000000" stroke-linecap="round" stroke-linejoin="round" stroke-width="2.0"/>
    <path d="M72.95 -39.35 L68.05 -44.75 M91.2 12.05 Q93.25 25.55 89.5 37.6 M85.8 76.75 Q84.8 80.3 82.4 82.05 M48.7 2.2 Q54.4 37.25 83.1 62.25 M48.7 -46.65 Q45.0 -7.8 76.95 34.6 M58.25 -52.25 Q76.9 -20.75 80.65 8.55 M66.0 -9.9 Q84.5 27.4 87.9 58.7 M-32.55 -35.45 Q-36.2 -17.5 -46.7 -2.35 M-36.2 -50.85 L-48.7 -8.85 M-72.35 87.75 L-73.8 87.35 -78.5 85.65 Q-83.2 83.4 -83.2 80.25 M-95.55 72.95 L-96.2 74.45 Q-97.25 76.95 -97.75 79.2 -99.4 86.35 -95.65 90.65 M-83.1 79.15 Q-82.85 78.05 -82.1 76.85 M-25.65 -30.65 Q-32.45 30.95 -67.45 55.65 M-52.65 -34.15 Q-79.4 13.75 -79.65 50.5 M-51.0 -14.15 Q-78.6 48.15 -78.1 65.45 M-85.2 53.2 Q-91.85 26.25 -76.0 -0.2" fill="none" stroke="#000000" stroke-linecap="round" stroke-linejoin="round" stroke-width="1.5"/>
  </g>
</svg>
