<?xml version="1.0" encoding="UTF-8" standalone="no"?>
<svg xmlns:xlink="http://www.w3.org/1999/xlink" height="22.85px" width="198.55px" xmlns="http://www.w3.org/2000/svg">
  <g transform="matrix(1.0, 0.0, 0.0, 1.0, 105.85, -107.35)">
    <path d="M69.35 121.5 Q68.5 124.25 73.05 127.45 L73.95 128.2 Q77.2 130.25 85.65 128.15 89.4 127.2 90.85 125.95 92.0 124.95 91.6 123.75 92.1 121.25 89.45 118.05 90.7 113.85 87.6 108.35 87.6 114.45 86.45 115.5 82.95 118.6 76.3 117.85 L75.15 117.7 Q69.35 116.75 66.6 113.45 65.9 116.85 69.0 121.05 L69.15 121.3 69.3 121.45 M-76.8 124.1 Q-77.0 125.65 -78.5 127.0 L-79.8 127.7 Q-85.0 130.3 -93.55 128.2 -102.2 125.9 -104.35 121.3 L-104.85 120.0 Q-104.55 117.8 -102.6 117.6 -102.45 114.95 -101.1 114.05 -98.65 117.35 -90.7 119.8 L-86.05 120.9 Q-80.55 121.65 -75.3 120.15 -75.3 122.3 -76.8 124.1" fill="none" stroke="#000000" stroke-linecap="round" stroke-linejoin="round" stroke-width="2.0"/>
    <path d="M69.3 121.45 L69.35 121.5 Q71.7 124.25 78.45 124.25 M89.65 119.25 Q88.0 121.25 83.75 122.7 M-102.6 117.6 Q-100.7 119.55 -94.75 122.35 M-76.8 124.1 Q-82.0 125.25 -88.2 124.3" fill="none" stroke="#000000" stroke-linecap="round" stroke-linejoin="round" stroke-width="1.5"/>
  </g>
</svg>
