<?xml version="1.0" encoding="UTF-8" standalone="no"?>
<svg xmlns:xlink="http://www.w3.org/1999/xlink" height="40.65px" width="47.65px" xmlns="http://www.w3.org/2000/svg">
  <g transform="matrix(1.0, 0.0, 0.0, 1.0, 73.0, -10.8)">
    <path d="M-61.75 22.65 Q-70.25 19.45 -71.4 17.35 -71.9 22.75 -71.95 30.1 -71.3 32.35 -61.65 36.5 M-70.95 13.15 L-71.4 17.35 M-61.4 16.8 Q-70.95 13.6 -70.2 11.8 M-71.95 30.1 L-72.0 33.4 Q-72.0 36.2 -70.1 38.5 -67.45 41.85 -60.9 44.2 M-51.65 19.8 Q-34.95 25.1 -28.6 23.55 M-52.3 25.35 Q-37.9 29.7 -28.5 29.35 M-53.1 40.3 Q-34.45 45.75 -26.6 41.7 M-52.85 46.65 Q-36.4 51.35 -30.85 50.2 -27.9 49.6 -26.35 48.6" fill="none" stroke="#000000" stroke-linecap="round" stroke-linejoin="round" stroke-width="2.0"/>
  </g>
</svg>
