<?xml version="1.0" encoding="UTF-8" standalone="no"?>
<svg xmlns:xlink="http://www.w3.org/1999/xlink" height="19.25px" width="106.65px" xmlns="http://www.w3.org/2000/svg">
  <g transform="matrix(1.0, 0.0, 0.0, 1.0, 53.3, 9.65)">
    <path d="M19.8 -9.65 Q26.45 -7.3 25.05 0.3 24.0 5.8 19.0 6.15 17.3 6.25 16.6 4.6 13.25 -3.45 18.85 -9.2 19.25 -9.6 19.8 -9.65 M46.05 -7.1 Q55.0 -4.9 53.0 4.3 52.25 7.9 48.55 5.35 45.2 3.05 44.15 -0.85 42.9 -5.3 46.05 -7.1 M-14.7 -9.25 Q-9.15 -8.25 -10.15 -1.8 -11.45 6.85 -19.9 6.9 -22.55 6.9 -22.7 4.25 -23.15 -5.15 -14.7 -9.25 M-44.85 -5.35 Q-37.95 -2.8 -41.25 4.3 -44.75 11.75 -51.9 8.7 -52.85 8.3 -53.05 7.2 -54.75 -2.25 -44.85 -5.35" fill="#defff1" fill-rule="evenodd" stroke="none"/>
  </g>
</svg>
