<?xml version="1.0" encoding="UTF-8" standalone="no"?>
<svg xmlns:xlink="http://www.w3.org/1999/xlink" height="16.3px" width="110.1px" xmlns="http://www.w3.org/2000/svg">
  <g transform="matrix(1.0, 0.0, 0.0, 1.0, 55.05, 8.15)">
    <path d="M46.8 -4.6 Q52.0 -2.6 54.35 3.0 56.85 8.95 50.4 8.05 47.65 7.7 46.0 5.35 41.75 -0.8 46.8 -4.6 M20.2 -6.8 Q28.4 -3.65 25.1 4.45 24.8 5.15 24.15 5.65 18.65 9.4 16.55 3.05 14.35 -3.8 20.2 -6.8 M-47.1 -8.15 Q-41.45 -7.3 -42.65 -1.15 -44.4 7.55 -52.95 6.0 -54.15 5.75 -54.5 4.5 -57.15 -5.75 -47.1 -8.15 M-8.85 -7.75 Q-3.3 -6.95 -4.2 -0.85 -5.55 7.8 -14.1 7.1 -15.6 7.0 -16.05 5.5 -19.1 -4.3 -8.85 -7.75" fill="#defff1" fill-rule="evenodd" stroke="none"/>
  </g>
</svg>
