<?xml version="1.0" encoding="UTF-8" standalone="no"?>
<svg xmlns:xlink="http://www.w3.org/1999/xlink" height="19.9px" width="116.35px" xmlns="http://www.w3.org/2000/svg">
  <g transform="matrix(1.0, 0.0, 0.0, 1.0, 58.2, 9.95)">
    <path d="M49.8 -7.4 Q54.3 -4.85 57.35 0.25 59.5 3.9 56.0 5.65 53.9 6.7 52.0 5.4 46.25 1.35 47.95 -5.9 48.3 -7.35 49.8 -7.4 M24.5 -7.1 Q34.7 -4.95 32.8 5.25 32.15 9.0 28.55 9.6 22.15 10.65 19.95 4.15 L19.5 2.55 Q18.15 -4.45 24.5 -7.1 M-44.55 -9.95 Q-38.5 -8.95 -40.95 -4.2 L-42.4 -1.95 Q-48.35 5.85 -57.3 2.85 -58.15 2.55 -58.2 1.45 -58.45 -5.25 -51.4 -8.3 -48.05 -9.75 -44.55 -9.95 M-9.5 -8.4 Q-3.55 -6.45 -6.65 1.45 -9.75 9.35 -14.65 9.85 -19.6 10.3 -20.5 8.9 -25.6 1.3 -17.25 -5.1 -13.9 -7.75 -9.5 -8.4" fill="#feeeff" fill-rule="evenodd" stroke="none"/>
  </g>
</svg>
