<?xml version="1.0" encoding="UTF-8" standalone="no"?>
<svg xmlns:xlink="http://www.w3.org/1999/xlink" height="15.05px" width="122.1px" xmlns="http://www.w3.org/2000/svg">
  <g transform="matrix(1.0, 0.0, 0.0, 1.0, 61.05, 7.55)">
    <path d="M55.7 -7.15 Q62.95 -3.55 60.35 3.6 59.75 5.35 57.95 4.7 52.9 2.8 53.05 -2.7 53.15 -5.15 54.7 -6.7 55.15 -7.15 55.7 -7.15 M25.5 -7.55 Q31.9 -6.8 30.15 0.15 28.5 6.6 22.8 3.15 22.0 2.65 21.85 1.55 21.05 -4.65 25.5 -7.55 M-32.0 -5.1 Q-27.75 -2.5 -30.6 2.7 -32.15 5.55 -35.05 6.35 -36.75 6.8 -37.45 5.25 -39.1 1.8 -36.85 -1.6 -35.05 -4.3 -32.0 -5.1 M-2.2 -7.35 Q4.35 -3.35 -0.65 2.9 -1.85 4.45 -3.55 5.45 -7.65 7.8 -9.0 4.05 -10.2 0.85 -8.15 -2.1 -5.7 -5.55 -2.2 -7.35 M-53.1 -6.55 Q-47.75 -3.05 -51.55 3.0 -54.25 7.3 -58.9 7.5 -61.25 7.65 -61.05 5.3 -60.35 -2.75 -53.1 -6.55" fill="#ffffff" fill-rule="evenodd" stroke="none"/>
  </g>
</svg>
