<?xml version="1.0" encoding="UTF-8" standalone="no"?>
<svg xmlns:xlink="http://www.w3.org/1999/xlink" height="11.95px" width="66.3px" xmlns="http://www.w3.org/2000/svg">
  <g transform="matrix(1.0, 0.0, 0.0, 1.0, 33.15, 6.0)">
    <path d="M20.4 0.4 Q19.45 -1.8 20.7 -3.55 22.0 -5.3 25.1 -5.15 28.25 -5.05 30.25 -3.5 32.25 -1.9 32.9 0.55 33.6 2.95 32.25 4.7 30.9 6.5 27.75 5.75 24.55 4.95 22.9 3.8 21.3 2.6 20.4 0.4 M-16.35 -0.75 Q-17.35 1.5 -19.35 2.8 -21.4 4.1 -25.55 5.15 -29.7 6.15 -31.65 4.5 -33.65 2.85 -33.0 0.4 -32.4 -2.05 -29.9 -3.8 -27.45 -5.55 -23.3 -5.9 -19.15 -6.3 -17.25 -4.65 -15.4 -3.0 -16.35 -0.75" fill="#ffcdde" fill-rule="evenodd" stroke="none"/>
  </g>
</svg>
