<?xml version="1.0" encoding="UTF-8" standalone="no"?>
<svg xmlns:xlink="http://www.w3.org/1999/xlink" height="13.95px" width="68.3px" xmlns="http://www.w3.org/2000/svg">
  <g transform="matrix(1.0, 0.0, 0.0, 1.0, 32.0, 9.6)">
    <path d="M22.55 -2.2 Q23.45 0.0 25.05 1.2 26.7 2.35 29.9 3.15 33.05 3.9 34.4 2.1 35.75 0.35 35.05 -2.05 34.4 -4.5 32.4 -6.1 30.4 -7.65 27.25 -7.75 24.15 -7.9 22.85 -6.15 21.6 -4.4 22.55 -2.2 M-14.2 -3.35 Q-15.2 -1.1 -17.2 0.2 -19.25 1.5 -23.4 2.55 -27.55 3.55 -29.5 1.9 -31.5 0.25 -30.85 -2.2 -30.25 -4.65 -27.75 -6.4 -25.3 -8.15 -21.15 -8.5 -17.0 -8.9 -15.1 -7.25 -13.25 -5.6 -14.2 -3.35" fill="none" stroke="#000000" stroke-linecap="round" stroke-linejoin="round" stroke-width="2.0"/>
  </g>
</svg>
