<?xml version="1.0" encoding="UTF-8" standalone="no"?>
<svg xmlns:xlink="http://www.w3.org/1999/xlink" height="8.4px" width="62.7px" xmlns="http://www.w3.org/2000/svg">
  <g transform="matrix(1.0, 0.0, 0.0, 1.0, 31.35, 4.2)">
    <path d="M20.2 0.3 Q19.35 -1.25 20.45 -2.5 21.6 -3.7 24.3 -3.6 27.05 -3.55 28.8 -2.45 30.55 -1.3 31.15 0.4 31.75 2.1 30.55 3.35 29.4 4.6 26.65 4.05 23.85 3.5 22.4 2.7 21.0 1.85 20.2 0.3 M-16.65 -0.5 Q-17.55 1.05 -19.3 2.0 -21.1 2.9 -24.7 3.65 -28.35 4.35 -30.05 3.2 -31.8 2.05 -31.2 0.3 -30.7 -1.45 -28.5 -2.65 -26.35 -3.9 -22.75 -4.15 -19.1 -4.4 -17.45 -3.25 -15.85 -2.1 -16.65 -0.5" fill="#ffcdde" fill-rule="evenodd" stroke="none"/>
  </g>
</svg>
