<?xml version="1.0" encoding="UTF-8" standalone="no"?>
<svg xmlns:xlink="http://www.w3.org/1999/xlink" height="10.4px" width="64.7px" xmlns="http://www.w3.org/2000/svg">
  <g transform="matrix(1.0, 0.0, 0.0, 1.0, 30.15, 3.45)">
    <path d="M22.4 2.05 Q23.2 3.6 24.6 4.45 26.05 5.25 28.85 5.8 31.6 6.35 32.75 5.1 33.95 3.85 33.35 2.15 32.75 0.45 31.0 -0.7 29.25 -1.8 26.5 -1.85 23.8 -1.95 22.65 -0.75 21.55 0.5 22.4 2.05 M-14.45 1.25 Q-15.35 2.8 -17.1 3.75 -18.9 4.65 -22.5 5.4 -26.15 6.1 -27.85 4.95 -29.6 3.8 -29.0 2.05 -28.5 0.3 -26.3 -0.9 -24.15 -2.15 -20.55 -2.4 -16.9 -2.65 -15.25 -1.5 -13.65 -0.35 -14.45 1.25" fill="none" stroke="#000000" stroke-linecap="round" stroke-linejoin="round" stroke-width="2.0"/>
  </g>
</svg>
