<?xml version="1.0" encoding="UTF-8" standalone="no"?>
<svg xmlns:xlink="http://www.w3.org/1999/xlink" height="8.2px" width="62.95px" xmlns="http://www.w3.org/2000/svg">
  <g transform="matrix(1.0, 0.0, 0.0, 1.0, 31.45, 4.1)">
    <path d="M20.9 3.15 Q19.4 2.25 19.75 0.6 20.15 -1.05 22.55 -2.3 24.95 -3.6 27.0 -3.55 29.05 -3.4 30.45 -2.25 31.8 -1.05 31.4 0.6 31.0 2.25 28.4 3.15 25.65 4.1 24.0 4.1 22.4 4.05 20.9 3.15 M-17.15 2.75 Q-18.65 3.75 -20.55 3.95 L-26.2 3.25 Q-29.85 2.4 -30.9 0.65 -32.05 -1.15 -30.8 -2.5 -29.6 -3.9 -27.15 -4.05 -24.65 -4.3 -21.25 -3.1 -17.8 -1.8 -16.8 -0.1 -15.75 1.6 -17.15 2.75" fill="#ffcdde" fill-rule="evenodd" stroke="none"/>
  </g>
</svg>
