<?xml version="1.0" encoding="UTF-8" standalone="no"?>
<svg xmlns:xlink="http://www.w3.org/1999/xlink" height="10.2px" width="64.95px" xmlns="http://www.w3.org/2000/svg">
  <g transform="matrix(1.0, 0.0, 0.0, 1.0, 30.25, 9.45)">
    <path d="M23.1 -1.2 Q24.6 -0.3 26.2 -0.25 27.85 -0.25 30.6 -1.2 33.2 -2.1 33.6 -3.75 34.0 -5.4 32.65 -6.6 31.25 -7.75 29.2 -7.9 27.15 -7.95 24.75 -6.65 22.35 -5.4 21.95 -3.75 21.6 -2.1 23.1 -1.2 M-14.95 -1.6 Q-16.45 -0.6 -18.35 -0.4 L-24.0 -1.1 Q-27.65 -1.95 -28.7 -3.7 -29.85 -5.5 -28.6 -6.85 -27.4 -8.25 -24.95 -8.4 -22.45 -8.65 -19.05 -7.45 -15.6 -6.15 -14.6 -4.45 -13.55 -2.75 -14.95 -1.6" fill="none" stroke="#000000" stroke-linecap="round" stroke-linejoin="round" stroke-width="2.0"/>
  </g>
</svg>
