<?xml version="1.0" encoding="UTF-8" standalone="no"?>
<svg xmlns:xlink="http://www.w3.org/1999/xlink" height="7.65px" width="52.95px" xmlns="http://www.w3.org/2000/svg">
  <g transform="matrix(1.0, 0.0, 0.0, 1.0, 26.45, 3.8)">
    <path d="M26.5 0.05 Q26.5 1.6 24.95 2.65 23.45 3.7 21.25 3.7 19.1 3.7 17.55 2.65 16.0 1.6 16.0 0.05 16.0 -1.45 17.55 -2.55 19.1 -3.6 21.25 -3.6 23.45 -3.6 24.95 -2.55 26.5 -1.45 26.5 0.05 M-14.05 0.05 Q-14.05 1.65 -15.85 2.75 -17.65 3.85 -20.25 3.85 -22.75 3.85 -24.6 2.75 -26.45 1.65 -26.45 0.05 -26.45 -1.55 -24.6 -2.7 -22.75 -3.8 -20.25 -3.8 -17.65 -3.8 -15.85 -2.7 -14.05 -1.55 -14.05 0.05" fill="#b6f5de" fill-rule="evenodd" stroke="none"/>
  </g>
</svg>
