<?xml version="1.0" encoding="UTF-8" standalone="no"?>
<svg xmlns:xlink="http://www.w3.org/1999/xlink" height="9.65px" width="54.95px" xmlns="http://www.w3.org/2000/svg">
  <g transform="matrix(1.0, 0.0, 0.0, 1.0, 23.65, 8.65)">
    <path d="M30.3 -3.8 Q30.3 -2.25 28.75 -1.2 27.25 -0.15 25.05 -0.15 22.9 -0.15 21.35 -1.2 19.8 -2.25 19.8 -3.8 19.8 -5.3 21.35 -6.4 22.9 -7.45 25.05 -7.45 27.25 -7.45 28.75 -6.4 30.3 -5.3 30.3 -3.8 M-10.25 -3.8 Q-10.25 -2.2 -12.05 -1.1 -13.85 0.0 -16.45 0.0 -18.95 0.0 -20.8 -1.1 -22.65 -2.2 -22.65 -3.8 -22.65 -5.4 -20.8 -6.55 -18.95 -7.65 -16.45 -7.65 -13.85 -7.65 -12.05 -6.55 -10.25 -5.4 -10.25 -3.8" fill="none" stroke="#000000" stroke-linecap="round" stroke-linejoin="round" stroke-width="2.0"/>
  </g>
</svg>
