<?xml version="1.0" encoding="UTF-8" standalone="no"?>
<svg xmlns:xlink="http://www.w3.org/1999/xlink" height="23.95px" width="82.85px" xmlns="http://www.w3.org/2000/svg">
  <g transform="matrix(1.0, 0.0, 0.0, 1.0, 41.4, 11.95)">
    <path d="M40.4 3.1 Q24.75 9.45 14.15 12.0 11.3 9.95 12.65 7.1 22.1 2.85 29.9 -1.4 37.7 -5.65 37.4 -10.7 40.85 -7.05 41.3 -3.05 41.85 0.95 40.4 3.1 M-40.1 1.7 Q-41.9 -0.5 -41.25 -4.45 -40.65 -8.45 -36.3 -11.95 -36.65 -6.85 -26.7 -2.75 -16.8 1.35 -5.25 6.65 -3.45 9.8 -7.0 11.75 -20.35 8.75 -40.1 1.7" fill="#b6f5de" fill-rule="evenodd" stroke="none"/>
  </g>
</svg>
