<?xml version="1.0" encoding="UTF-8" standalone="no"?>
<svg xmlns:xlink="http://www.w3.org/1999/xlink" height="25.95px" width="84.85px" xmlns="http://www.w3.org/2000/svg">
  <g transform="matrix(1.0, 0.0, 0.0, 1.0, 40.6, 4.8)">
    <path d="M42.2 11.25 Q26.55 17.6 15.95 20.15 13.1 18.1 14.45 15.25 23.9 11.0 31.7 6.75 39.5 2.5 39.2 -2.55 42.65 1.1 43.1 5.1 43.65 9.1 42.2 11.25 M-38.3 9.85 Q-18.55 16.9 -5.2 19.9 -1.65 17.95 -3.45 14.8 -15.0 9.5 -24.9 5.4 -34.85 1.3 -34.5 -3.8 -38.85 -0.3 -39.45 3.7 -40.1 7.65 -38.3 9.85" fill="none" stroke="#000000" stroke-linecap="round" stroke-linejoin="round" stroke-width="2.0"/>
  </g>
</svg>
