<?xml version="1.0" encoding="UTF-8" standalone="no"?>
<svg xmlns:xlink="http://www.w3.org/1999/xlink" height="108.75px" width="47.15px" xmlns="http://www.w3.org/2000/svg">
  <g transform="matrix(1.0, 0.0, 0.0, 1.0, 76.95, 43.5)">
    <path d="M-62.4 -1.25 L-61.9 -1.3 -60.7 6.65 -60.15 6.65 -57.15 6.55 -52.4 21.0 Q-49.7 23.2 -46.55 26.4 -43.45 29.55 -42.05 39.2 -40.65 48.85 -43.05 55.75 -45.5 62.6 -48.95 63.15 L-54.0 63.75 -57.05 63.95 -57.45 64.0 -57.55 64.05 -57.8 64.1 -58.1 64.1 -59.2 64.2 Q-64.25 64.75 -68.7 58.75 -73.2 52.7 -74.25 43.25 L-74.55 38.3 -74.55 38.0 -75.95 11.8 -73.05 10.55 -73.8 3.3 -75.5 3.35 Q-75.45 -9.35 -70.75 -19.95 -66.15 -28.0 -58.2 -33.45 -50.55 -39.65 -38.1 -42.2 L-34.8 -42.5 Q-31.7 -42.5 -30.8 -41.65 L-31.3 -41.5 Q-39.3 -39.55 -50.25 -27.95 -59.55 -17.6 -60.05 -2.85 L-62.4 -1.25 -66.75 -0.4 -66.0 7.45 -64.4 6.8 -62.8 6.75 -62.35 6.7 -60.95 6.7 -60.7 6.65 M-73.8 3.3 L-67.2 -0.35 Q-67.35 -4.1 -66.8 -7.75 -65.9 -15.4 -61.7 -21.75 -51.85 -37.05 -31.3 -41.5 M-66.75 -0.4 L-67.2 -0.35 M-66.0 7.45 L-73.05 10.55 M-70.4 36.65 Q-70.2 35.0 -69.65 33.65 -68.0 29.7 -65.1 29.3 L-63.75 29.45 Q-61.5 29.65 -59.5 32.25 -57.05 35.95 -56.4 41.1 -55.8 46.35 -57.4 50.35 -58.85 53.45 -60.9 54.4 -61.5 54.75 -62.1 54.7 -65.0 55.1 -67.55 51.65 -69.0 49.7 -69.75 47.2 L-70.1 45.9 -70.35 45.05 -70.5 44.05 -70.7 42.95 -70.75 42.7 Q-70.95 40.55 -70.75 38.5 L-70.4 36.65 M-57.8 64.1 L-56.75 63.7 Q-53.1 61.95 -50.5 55.9 -47.9 49.85 -48.9 40.85 -49.95 31.8 -53.0 28.15 -56.1 24.5 -59.8 22.5 L-64.4 6.8 M-60.95 6.7 L-60.15 6.65" fill="none" stroke="#000000" stroke-linecap="round" stroke-linejoin="round" stroke-width="2.0"/>
  </g>
</svg>
