<?xml version="1.0" encoding="UTF-8" standalone="no"?>
<svg xmlns:xlink="http://www.w3.org/1999/xlink" height="118.15px" width="48.5px" xmlns="http://www.w3.org/2000/svg">
  <g transform="matrix(1.0, 0.0, 0.0, 1.0, 79.15, 47.65)">
    <path d="M-69.5 22.75 Q-74.75 -0.35 -71.5 -15.9 -66.2 -37.3 -46.8 -44.6 M-62.4 21.15 Q-66.4 2.25 -63.9 -16.45 -57.25 -38.8 -41.6 -45.4 M-68.7 38.3 L-55.95 33.95 -53.5 43.5 -66.1 47.05 -68.7 38.3 M-62.85 58.7 L-64.75 52.65 -52.95 49.3 -51.1 55.75 -55.3 64.95 -62.85 58.7" fill="none" stroke="#000000" stroke-linecap="round" stroke-linejoin="round" stroke-width="1.4000000000000001"/>
    <path d="M-46.8 -44.6 L-48.25 -44.5 Q-71.6 -35.85 -77.55 -10.8 -79.5 6.3 -75.35 24.0 L-72.15 23.4 -69.5 22.75 -62.4 21.15 -55.85 19.55 -54.4 28.65 -49.25 28.65 -39.35 65.35 -43.55 67.25 -64.5 69.5 -73.55 34.75 -70.1 33.3 -72.15 23.4 M-46.8 -44.6 L-41.6 -45.4 -33.0 -46.65 -31.65 -43.4 Q-51.0 -37.25 -55.6 -11.95 -57.4 1.95 -52.4 18.1 L-55.85 19.55 M-54.4 28.65 L-70.1 33.3" fill="none" stroke="#000000" stroke-linecap="round" stroke-linejoin="round" stroke-width="2.0"/>
  </g>
</svg>
