<?xml version="1.0" encoding="UTF-8" standalone="no"?>
<svg xmlns:xlink="http://www.w3.org/1999/xlink" height="108.2px" width="39.0px" xmlns="http://www.w3.org/2000/svg">
  <g transform="matrix(1.0, 0.0, 0.0, 1.0, 76.3, 42.4)">
    <path d="M-60.2 -1.1 L-60.2 -9.5 -62.25 -9.5 -70.45 -6.35 -71.25 2.6 -70.05 2.15 -60.2 -1.1 -61.35 -0.2 Q-61.95 5.15 -60.85 13.4 L-59.25 12.85 -57.5 21.85 -56.85 21.65 Q-53.0 20.6 -49.35 23.1 -45.75 25.75 -44.65 30.55 L-39.65 52.15 Q-38.55 56.65 -40.65 60.25 -42.75 63.65 -46.55 64.0 L-53.75 64.75 Q-55.7 64.95 -57.4 64.25 L-59.95 64.55 Q-63.25 64.85 -66.25 62.45 -69.1 59.95 -70.1 56.05 L-74.85 37.8 Q-75.9 33.7 -74.4 30.3 -73.05 27.1 -70.15 26.05 L-70.1 26.05 -70.9 16.95 -69.55 16.45 Q-70.45 8.95 -70.05 2.15 M-70.45 -6.35 L-69.35 -12.8 Q-64.2 -33.55 -47.1 -39.3 L-38.7 -41.25 -38.3 -41.4 M-60.2 -9.5 L-60.3 -9.8 Q-57.6 -23.2 -51.5 -30.9 -44.0 -39.75 -38.7 -41.25 M-70.1 26.05 L-61.35 23.85 -60.05 23.2 -57.5 21.9 -57.5 21.85 M-69.55 16.45 L-62.25 13.95 -61.75 13.85 -60.85 13.4 M-64.8 37.45 Q-62.75 36.85 -60.8 38.4 -58.7 39.95 -57.7 42.95 -56.8 46.0 -57.5 48.55 -58.3 51.2 -60.25 51.85 -62.25 52.55 -64.35 50.9 -66.4 49.35 -67.35 46.35 -68.25 43.4 -67.55 40.75 -66.8 38.15 -64.8 37.45 M-57.4 64.25 L-53.15 63.85 -50.95 63.3 Q-47.55 62.8 -45.7 59.7 -43.65 56.4 -44.65 52.15 L-49.4 31.8 Q-50.5 27.25 -53.95 24.8 -56.9 22.7 -60.05 23.2" fill="none" stroke="#000000" stroke-linecap="round" stroke-linejoin="round" stroke-width="2.0"/>
  </g>
</svg>
