<?xml version="1.0" encoding="UTF-8" standalone="no"?>
<svg xmlns:xlink="http://www.w3.org/1999/xlink" height="44.4px" width="31.2px" xmlns="http://www.w3.org/2000/svg">
  <g transform="matrix(1.0, 0.0, 0.0, 1.0, 78.1, -18.25)">
    <path d="M-68.95 19.25 L-68.95 22.75 Q-68.55 23.95 -67.35 24.45 L-67.05 24.6 -65.25 24.85 -65.2 24.85 -63.7 24.7 Q-60.0 22.9 -55.6 22.7 L-54.8 22.7 -50.25 23.2 Q-46.35 41.35 -48.9 54.85 -49.6 58.15 -50.6 61.25 L-54.8 61.65 -55.25 61.65 Q-63.05 61.45 -68.6 55.9 -71.25 53.25 -72.65 50.15 -73.55 48.1 -73.95 45.9 -78.2 37.25 -76.7 28.4 -74.1 22.5 -69.5 19.45 M-63.7 24.7 L-64.4 25.1 Q-66.3 26.2 -68.0 27.8 L-68.6 28.35 Q-72.95 32.75 -73.95 38.6 L-74.25 42.15 -73.95 45.9 M-55.6 22.7 Q-52.55 39.85 -54.1 54.35 L-54.15 54.85 -55.25 61.65" fill="none" stroke="#070707" stroke-linecap="round" stroke-linejoin="round" stroke-width="2.0"/>
  </g>
</svg>
