<?xml version="1.0" encoding="UTF-8" standalone="no"?>
<svg xmlns:xlink="http://www.w3.org/1999/xlink" height="71.1px" width="70.1px" xmlns="http://www.w3.org/2000/svg">
  <g transform="matrix(1.0, 0.0, 0.0, 1.0, 85.25, 28.2)">
    <path d="M-53.6 -10.5 Q-60.75 -14.15 -66.1 -16.0 -72.65 -18.35 -76.5 -17.95 -79.95 -17.7 -81.35 -15.15 L-81.7 -13.6 Q-82.5 -9.15 -81.15 -1.95 L-81.75 -0.9 Q-83.7 2.55 -84.05 5.45 -84.55 8.15 -83.75 10.55 -82.6 22.05 -58.3 4.7 L-57.35 0.3 -58.15 -0.55 Q-59.25 -2.1 -59.05 -4.2 L-59.05 -4.55 -58.95 -5.35 Q-58.6 -7.15 -57.3 -8.6 L-55.95 -9.8 Q-55.1 -10.3 -54.15 -10.4 L-53.6 -10.5 -52.3 -10.55 -51.55 -10.55 -50.9 -10.5 Q-43.3 -19.6 -35.35 -23.8 -29.95 -26.55 -24.4 -27.1 -20.55 -27.5 -17.55 -26.55 -16.15 -23.95 -16.15 -21.0 -16.15 -14.9 -17.75 -8.5 -16.2 -1.55 -16.2 2.05 -16.2 3.75 -16.55 4.65 -24.1 15.0 -48.65 2.85 -46.95 22.0 -43.65 41.9 L-54.3 40.3 -54.3 38.4 -65.05 41.25 -58.3 4.7 M-57.35 0.3 Q-56.55 0.95 -55.2 0.95 L-54.65 0.9 -53.9 0.9 -52.85 0.65 -52.75 0.65 -52.5 0.65 Q-50.6 0.15 -49.05 -1.1 -48.95 -1.2 -48.8 -1.25 L-47.6 -2.45 Q-46.55 -3.9 -46.4 -5.45 -46.35 -6.65 -46.8 -7.6 -47.2 -8.6 -48.15 -9.35 L-48.45 -9.6 Q-49.55 -10.3 -50.9 -10.5 M-52.75 0.65 L-48.65 2.85 M-53.9 0.9 L-54.3 38.4" fill="none" stroke="#000000" stroke-linecap="round" stroke-linejoin="round" stroke-width="2.0"/>
  </g>
</svg>
