<?xml version="1.0" encoding="UTF-8" standalone="no"?>
<svg xmlns:xlink="http://www.w3.org/1999/xlink" height="57.6px" width="52.9px" xmlns="http://www.w3.org/2000/svg">
  <g transform="matrix(1.0, 0.0, 0.0, 1.0, 78.9, 25.0)">
    <path d="M-48.85 -24.0 Q-55.6 -17.35 -60.3 -7.25 -67.65 -7.5 -72.5 -8.9 -75.2 -9.75 -77.1 -10.85 -76.45 -7.5 -74.9 -4.65 -72.3 0.1 -67.35 3.65 -69.3 11.75 -74.75 17.55 L-76.85 19.5 -77.9 20.45 Q-69.05 19.15 -62.9 15.95 L-60.05 14.15 -58.6 15.35 Q-49.8 23.25 -47.15 31.6 L-46.9 30.5 Q-44.5 20.45 -47.35 9.3 -41.2 4.5 -29.15 1.6 L-27.0 1.25 Q-36.75 -3.45 -44.75 -4.15 L-47.8 -4.35 Q-50.2 -15.1 -48.85 -24.0 Z" fill="none" stroke="#000000" stroke-linecap="round" stroke-linejoin="round" stroke-width="2.0"/>
  </g>
</svg>
