<?xml version="1.0" encoding="UTF-8" standalone="no"?>
<svg xmlns:xlink="http://www.w3.org/1999/xlink" height="49.0px" width="48.7px" xmlns="http://www.w3.org/2000/svg">
  <g transform="matrix(1.0, 0.0, 0.0, 1.0, 78.9, 30.5)">
    <path d="M-67.85 -1.85 Q-71.35 5.25 -72.4 13.85 -64.2 11.75 -57.25 6.75 -51.85 13.95 -42.95 17.5 -42.4 8.3 -45.1 0.25 -42.55 -0.75 -40.15 -2.15 L-40.1 -2.25 Q-35.05 -5.4 -31.2 -10.55 L-31.75 -10.8 Q-40.5 -14.95 -48.05 -13.85 -49.5 -22.95 -53.55 -29.5 -58.2 -24.65 -60.9 -18.6 L-61.15 -18.1 -61.65 -17.05 -62.25 -15.35 -62.4 -15.0 Q-70.0 -16.65 -77.9 -14.55 -74.55 -6.9 -67.85 -1.85 Z" fill="none" stroke="#000000" stroke-linecap="round" stroke-linejoin="round" stroke-width="2.0"/>
  </g>
</svg>
