<?xml version="1.0" encoding="UTF-8" standalone="no"?>
<svg xmlns:xlink="http://www.w3.org/1999/xlink" height="39.9px" width="43.55px" xmlns="http://www.w3.org/2000/svg">
  <g transform="matrix(1.0, 0.0, 0.0, 1.0, 72.8, 26.05)">
    <path d="M-40.55 -25.3 L-40.45 -25.3 -39.5 -23.8 -39.55 -23.7 -41.95 -20.05 -41.95 -19.95 -41.95 -19.8 -42.1 -19.8 -37.85 -19.95 -37.8 -19.95 -36.8 -18.4 -36.75 -18.25 Q-37.25 -17.2 -37.85 -16.5 L-37.95 -16.45 -38.0 -16.3 -44.7 -15.8 -44.7 -15.65 -44.75 -15.6 -48.65 -9.55 -48.65 -9.4 -48.85 -9.4 -41.2 -9.7 -41.2 -9.75 -41.2 -9.9 Q-39.5 -13.15 -37.0 -15.65 L-36.9 -15.75 Q-34.4 -16.05 -34.2 -14.05 L-34.2 -13.9 -36.3 -10.25 -36.4 -10.2 -36.55 -10.2 Q-34.25 -9.9 -31.2 -10.25 L-31.1 -10.25 -31.0 -10.2 -30.0 -8.5 -30.0 -8.35 -31.1 -6.3 -31.25 -6.3 -36.55 -6.0 -34.4 -2.1 -34.4 -2.0 -35.55 0.1 -35.6 0.2 -35.75 0.2 -38.1 0.3 -38.25 0.3 -41.45 -5.7 -41.6 -5.7 -49.05 -5.35 -45.9 1.15 -45.9 1.2 -38.7 1.15 -38.55 1.05 -37.5 3.05 -37.5 3.1 Q-37.95 4.35 -38.7 5.35 L-38.7 5.45 -38.85 5.45 -43.5 5.6 -43.5 5.7 -43.5 5.9 -41.1 10.75 Q-41.65 13.3 -44.4 13.05 L-44.45 13.05 Q-46.4 10.85 -47.55 8.05 L-47.55 8.1 -50.05 12.2 -50.05 12.3 -50.1 12.3 -52.65 12.3 -52.65 12.2 -53.55 10.1 -53.5 9.95 -49.6 3.6 -49.6 3.45 -52.65 -3.0 -52.7 -3.0 -57.0 3.55 -54.45 10.15 -54.45 10.25 -55.65 12.25 -55.75 12.3 -55.8 12.3 -58.1 12.3 -58.2 12.3 Q-59.0 9.85 -59.95 8.3 L-60.05 8.45 Q-61.35 12.1 -64.65 13.1 L-64.75 13.1 Q-66.0 12.45 -65.95 10.55 L-63.1 6.4 -63.1 6.25 -63.1 6.2 -63.35 6.25 -67.2 6.15 -67.2 6.0 -67.85 3.95 -66.65 2.2 -66.65 2.05 -60.15 1.85 -60.15 1.75 -60.1 1.6 -55.8 -4.85 -55.8 -4.9 -62.9 -4.6 -63.0 -4.45 -66.7 1.2 -66.75 1.3 -66.85 1.3 -68.95 1.4 -68.95 1.3 -69.6 -0.4 -69.5 -0.45 -67.05 -4.2 -67.0 -4.3 -71.55 -4.05 -71.55 -4.15 -72.05 -6.1 -71.0 -7.65 -70.85 -7.7 -66.75 -8.15 -66.45 -8.15 -66.45 -8.2 -66.45 -8.35 Q-67.25 -9.85 -67.7 -11.6 -67.15 -12.95 -65.7 -13.3 L-65.65 -13.35 Q-63.0 -12.0 -62.35 -8.35 L-62.25 -8.35 -55.75 -8.85 -55.45 -8.85 -55.45 -9.05 -58.05 -14.55 -58.05 -14.6 -64.1 -14.2 -64.1 -14.25 Q-64.55 -15.05 -64.65 -15.95 L-63.5 -17.5 -63.4 -17.5 -59.75 -18.05 -59.8 -18.15 Q-60.7 -19.75 -61.2 -21.65 L-60.15 -23.15 -58.25 -23.35 -58.2 -23.35 -56.5 -20.1 -56.5 -20.05 -54.1 -23.35 -54.05 -23.35 -52.15 -23.55 -52.0 -23.55 -52.0 -23.5 -51.25 -22.0 -51.3 -21.95 -54.6 -16.95 Q-53.55 -13.9 -51.95 -11.05 -49.85 -14.1 -47.9 -17.2 L-47.9 -17.3 Q-49.1 -19.8 -50.45 -22.0 L-50.45 -22.15 -49.4 -23.8 -49.35 -23.9 -47.15 -24.1 -47.1 -24.1 -45.4 -21.2 -45.4 -21.1 -42.75 -24.95 -42.75 -25.05 -40.7 -25.3 -40.55 -25.3 Z" fill="none" stroke="#000000" stroke-linecap="round" stroke-linejoin="round" stroke-width="1.5"/>
  </g>
</svg>
