<?xml version="1.0" encoding="UTF-8" standalone="no"?>
<svg xmlns:xlink="http://www.w3.org/1999/xlink" height="54.35px" width="27.15px" xmlns="http://www.w3.org/2000/svg">
  <g transform="matrix(1.0, 0.0, 0.0, 1.0, 57.45, 8.0)">
    <path d="M-39.35 37.7 Q-31.65 37.1 -31.05 30.55 -32.5 23.9 -38.05 24.7 L-38.1 21.55 Q-41.45 18.0 -44.6 18.55 -47.6 18.85 -50.35 22.65 -50.95 24.4 -50.5 26.25 -54.4 25.35 -56.35 30.1 -56.8 30.65 -56.7 31.55 -56.9 33.25 -55.1 35.75 -53.05 38.7 -49.25 37.45 -50.35 39.75 -48.95 42.4 -46.55 45.2 -43.85 45.6 -41.65 45.5 -39.25 43.65 -38.3 40.4 -39.35 37.7 M-42.1 8.75 L-36.35 9.0 -35.5 0.3 -41.4 0.3 -38.85 3.45 -42.1 8.75 -46.4 15.6 -46.55 15.6 -51.15 9.1 -56.7 9.9 -55.95 2.25 -52.05 1.4 -47.6 -7.25 -41.4 0.3 M-51.15 9.1 L-54.0 5.05 -52.05 1.4" fill="none" stroke="#000000" stroke-linecap="round" stroke-linejoin="round" stroke-width="1.5"/>
    <path d="M-38.05 24.7 Q-38.65 27.4 -41.5 29.65 -40.6 30.75 -40.6 32.2 -40.6 33.65 -41.45 34.75 -40.15 36.2 -39.35 37.7 M-50.5 26.25 Q-50.05 28.2 -48.35 30.1 L-47.75 29.25 Q-46.5 28.05 -44.8 28.05 -43.05 28.05 -41.85 29.25 L-41.5 29.65 M-49.25 37.45 Q-48.9 36.05 -47.8 35.1 -48.95 33.9 -48.95 32.2 -48.95 31.0 -48.35 30.1 M-41.45 34.75 L-41.85 35.15 Q-43.05 36.4 -44.8 36.4 -46.5 36.4 -47.75 35.15 L-47.8 35.1" fill="none" stroke="#000000" stroke-linecap="round" stroke-linejoin="round" stroke-width="1.0"/>
  </g>
</svg>
