<?xml version="1.0" encoding="UTF-8" standalone="no"?>
<svg xmlns:xlink="http://www.w3.org/1999/xlink" height="89.7px" width="32.95px" xmlns="http://www.w3.org/2000/svg">
  <g transform="matrix(1.0, 0.0, 0.0, 1.0, 76.4, 4.4)">
    <path d="M-46.9 15.5 L-46.65 15.4 -46.45 15.3 Q-40.75 9.25 -49.6 -3.65 -52.5 0.75 -51.9 8.4 -51.35 10.1 -50.6 11.45 L-49.15 13.75 -49.0 14.0 -47.9 15.0 -47.85 15.05 -46.9 15.5 -46.65 15.95 -46.6 16.1 Q-45.2 19.4 -47.45 22.65 -53.45 28.55 -60.95 27.55 -59.0 19.95 -48.1 16.1 -59.7 19.25 -65.85 11.1 -63.95 7.35 -55.95 7.65 -52.45 9.5 -50.6 11.45 M-48.1 16.1 L-46.9 15.5 M-63.2 63.5 L-63.25 63.65 -63.2 63.8 -63.0 64.7 Q-57.2 67.4 -58.95 75.3 -61.95 71.95 -62.5 68.1 -62.15 71.75 -62.55 75.6 -65.35 79.55 -68.0 81.95 -66.95 79.25 -66.2 76.5 L-69.7 81.9 -69.55 76.55 Q-71.0 80.5 -71.9 84.55 -72.35 77.95 -70.9 71.65 -69.6 68.85 -67.25 66.65 -69.6 68.2 -75.65 68.3 -73.0 63.65 -64.15 64.2 L-63.25 63.6 -63.2 63.5 -61.45 61.05 -62.3 60.3 Q-63.9 58.8 -63.9 56.55 -63.9 54.35 -62.3 52.75 -60.8 51.25 -58.55 51.25 L-56.7 51.55 Q-57.75 50.35 -57.75 48.55 -57.75 46.8 -56.45 45.45 -55.25 44.3 -53.35 44.3 -51.5 44.3 -50.25 45.45 -49.0 46.8 -49.0 48.55 -49.0 50.55 -50.25 51.75 -51.5 53.0 -53.35 53.0 L-54.65 52.85 Q-53.25 54.35 -53.25 56.55 -53.25 58.8 -54.75 60.3 -56.35 61.9 -58.55 61.9 -60.2 61.9 -61.45 61.05 L-61.25 60.6 M-49.4 40.8 Q-49.8 40.55 -50.35 40.55 -51.25 40.55 -51.85 41.2 -52.5 41.85 -52.5 42.7 -52.5 43.7 -51.85 44.3 -51.25 44.95 -50.35 44.95 -49.4 44.95 -48.75 44.3 -48.15 43.7 -48.15 42.7 -48.15 41.85 -48.75 41.2 L-49.05 41.0 Q-49.2 40.85 -49.4 40.8 -42.75 26.65 -46.45 15.3 M-56.7 51.55 Q-55.6 51.9 -54.75 52.75 L-54.65 52.85 M-63.25 63.6 L-63.25 63.65 M-62.5 68.1 L-62.55 67.45 -63.0 64.7 M-63.2 63.8 L-64.7 66.3 Q-64.95 71.55 -66.2 76.5 M-64.15 64.2 Q-65.9 65.35 -67.25 66.65 M-64.7 66.3 Q-67.65 71.4 -69.55 76.55" fill="none" stroke="#000000" stroke-linecap="round" stroke-linejoin="round" stroke-width="1.5"/>
  </g>
</svg>
