<?xml version="1.0" encoding="UTF-8" standalone="no"?>
<svg xmlns:xlink="http://www.w3.org/1999/xlink" height="40.55px" width="44.25px" xmlns="http://www.w3.org/2000/svg">
  <g transform="matrix(1.0, 0.0, 0.0, 1.0, 71.3, 15.45)">
    <path d="M-35.8 13.35 Q-41.9 21.0 -53.25 24.1 L-57.45 23.5 Q-68.8 15.5 -70.2 0.15 -71.1 -10.6 -62.8 -14.45 -55.55 -14.5 -52.8 -7.75 -47.45 -14.55 -38.85 -14.15 L-38.05 -13.75 Q-27.75 -9.45 -31.0 4.2 L-31.0 4.35 -31.85 6.55 Q-30.0 6.95 -28.05 8.85 L-31.9 16.25 Q-34.05 14.15 -35.8 13.35 L-37.25 12.9 -35.8 11.15 Q-34.3 9.0 -33.6 6.5 L-31.85 6.55" fill="none" stroke="#000000" stroke-linecap="round" stroke-linejoin="round" stroke-width="2.0"/>
  </g>
</svg>
