<?xml version="1.0" encoding="UTF-8" standalone="no"?>
<svg xmlns:xlink="http://www.w3.org/1999/xlink" height="68.3px" width="44.0px" xmlns="http://www.w3.org/2000/svg">
  <g transform="matrix(1.0, 0.0, 0.0, 1.0, 84.75, 26.35)">
    <path d="M-53.55 -2.05 L-53.5 1.1 -53.5 1.7 Q-53.95 15.45 -61.0 18.85 -59.3 20.85 -57.0 21.25 -53.65 21.65 -49.35 18.05 -43.45 12.3 -42.15 4.1 -41.75 1.85 -41.75 -0.65 -41.75 -12.35 -49.6 -19.5 -55.6 -25.45 -62.8 -25.3 L-65.95 -25.05 Q-74.1 -23.95 -79.25 -16.4 -83.4 -10.55 -83.7 -3.15 L-83.7 -2.5 -83.7 -1.95 -83.7 -1.55 -83.7 -1.1 -83.6 0.4 Q-83.15 8.3 -78.55 14.35 -75.7 18.3 -70.35 19.35 L-61.0 18.85 M-54.3 -5.7 Q-56.25 -11.75 -62.05 -14.75 -68.85 -18.15 -74.05 -10.45 L-75.5 -7.65 M-61.9 40.95 Q-59.05 40.15 -58.55 36.55 L-58.55 33.9 -60.4 28.1 Q-69.7 28.15 -76.6 26.3 -73.1 36.7 -61.9 40.95" fill="none" stroke="#000000" stroke-linecap="round" stroke-linejoin="round" stroke-width="2.0"/>
  </g>
</svg>
