<?xml version="1.0" encoding="UTF-8" standalone="no"?>
<svg xmlns:xlink="http://www.w3.org/1999/xlink" height="33.2px" width="44.5px" xmlns="http://www.w3.org/2000/svg">
  <g transform="matrix(1.0, 0.0, 0.0, 1.0, 91.7, -1.3)">
    <path d="M-66.3 24.85 L-63.75 24.85 Q-64.25 27.0 -66.2 29.15 L-67.8 30.6 -70.3 30.6 -89.3 10.65 -88.25 8.7 -86.9 6.85 -86.05 5.9 -66.3 24.85 M-57.25 23.3 L-57.2 22.95 Q-56.55 20.6 -56.55 17.9 -56.55 14.45 -57.6 11.55 L-53.95 11.55 Q-51.6 11.6 -49.95 13.6 -48.2 15.85 -48.2 18.9 -48.2 21.15 -49.2 22.9 L-49.95 24.0 Q-51.7 26.15 -54.05 26.25 L-58.45 26.25 -57.25 23.3" fill="#000000" fill-opacity="0.34901962" fill-rule="evenodd" stroke="none"/>
    <path d="M-77.1 2.3 L-69.15 2.3 Q-63.95 2.35 -60.3 6.85 -58.95 8.5 -58.1 10.35 L-57.6 11.55 -53.95 11.55 Q-51.6 11.6 -49.95 13.6 -48.2 15.85 -48.2 18.9 -48.2 21.15 -49.2 22.9 L-49.95 24.0 Q-51.7 26.15 -54.05 26.25 L-58.45 26.25 -60.3 28.95 Q-63.95 33.45 -69.0 33.5 L-77.15 33.5 -78.15 33.5 Q-83.25 33.45 -86.9 28.95 -90.7 24.4 -90.7 17.95 L-90.7 17.9 Q-90.7 13.9 -89.3 10.65 L-88.25 8.7 -86.9 6.85 -86.05 5.9 Q-83.0 2.7 -79.0 2.35 L-77.85 2.3 -77.1 2.3 -74.9 2.65 Q-71.45 3.55 -68.8 6.85 -65.1 11.4 -65.1 17.9 -65.1 21.7 -66.3 24.85 L-63.75 24.85 Q-64.25 27.0 -66.2 29.15 L-67.8 30.6 -70.3 30.6 -70.75 31.0 Q-72.65 32.55 -74.9 33.15 L-77.15 33.5 M-57.6 11.55 Q-56.55 14.45 -56.55 17.9 -56.55 20.6 -57.2 22.95 L-57.25 23.3 -58.45 26.25 M-89.3 10.65 L-70.3 30.6 M-66.3 24.85 L-86.05 5.9" fill="none" stroke="#000000" stroke-linecap="round" stroke-linejoin="round" stroke-width="2.0"/>
  </g>
</svg>
