<?xml version="1.0" encoding="UTF-8" standalone="no"?>
<svg xmlns:xlink="http://www.w3.org/1999/xlink" height="46.75px" width="140.45px" xmlns="http://www.w3.org/2000/svg">
  <g transform="matrix(1.0, 0.0, 0.0, 1.0, 75.8, 28.15)">
    <path d="M59.1 4.85 L59.3 5.0 Q62.75 6.15 63.45 4.05 64.25 1.75 61.8 -2.8 L61.55 -3.3 61.65 -3.4 61.75 -3.5 Q64.2 -6.05 63.5 -8.65 62.9 -11.4 59.5 -12.9 L59.25 -13.05 59.3 -13.3 Q59.45 -18.45 57.9 -20.15 56.2 -22.05 53.6 -19.55 L53.4 -19.35 53.25 -19.6 Q50.7 -24.85 48.95 -24.5 47.1 -24.5 46.95 -18.8 L46.9 -18.55 46.75 -18.55 Q42.75 -20.65 41.75 -18.2 40.95 -16.0 43.85 -10.6 L43.9 -10.4 43.65 -10.2 Q40.45 -7.3 41.2 -4.15 42.1 -1.1 46.15 0.3 L46.4 0.4 46.4 0.8 Q46.2 6.7 48.05 8.45 49.95 10.1 52.85 6.95 L52.85 6.7 Q53.15 6.75 53.15 7.05 55.55 11.85 57.4 11.35 59.1 10.75 59.1 5.2 M-61.25 -20.1 Q-58.8 -26.95 -55.6 -27.15 -52.35 -27.55 -50.2 -21.05 L-50.15 -20.65 -49.85 -20.7 Q-43.7 -24.25 -41.2 -21.7 -38.85 -19.2 -41.95 -12.15 L-42.05 -11.9 -41.5 -11.7 Q-35.1 -9.15 -35.15 -5.3 -35.5 -1.45 -42.0 1.35 -42.4 1.4 -42.45 1.6 -42.6 1.9 -42.25 2.1 -39.9 8.95 -42.4 11.55 -45.0 14.0 -50.95 11.1 L-51.2 10.85 -51.35 11.3 Q-53.95 17.75 -57.1 17.6 -60.3 17.45 -62.2 10.9 L-62.35 10.4 -62.75 10.75 Q-68.25 13.15 -70.15 10.75 -72.25 8.25 -69.7 2.2 L-69.5 1.6 -69.7 1.45 Q-74.95 -0.9 -74.8 -4.15 -74.65 -7.6 -69.45 -10.4 L-69.1 -10.6 -69.25 -10.85 Q-71.35 -16.9 -69.2 -19.4 -67.15 -22.1 -61.65 -19.9 L-61.3 -19.7 -61.25 -20.1" fill="none" stroke="#000000" stroke-linecap="round" stroke-linejoin="round" stroke-width="2.0"/>
    <path d="M50.1 -6.2 Q50.75 -3.75 52.2 -2.35 53.6 -0.95 55.05 -1.15 56.45 -1.5 57.0 -3.5 57.65 -5.4 57.05 -7.6 56.5 -9.9 55.15 -11.35 53.9 -12.85 52.4 -12.55 50.9 -12.45 50.2 -10.45 49.6 -8.7 50.1 -6.2 M-61.1 -9.9 Q-59.3 -11.95 -56.7 -12.1 -54.05 -12.35 -52.25 -10.35 -50.6 -8.3 -50.6 -5.25 -50.8 -2.2 -52.7 -0.1 -54.55 1.95 -57.1 2.1 -59.7 2.1 -61.4 -0.1 -63.1 -2.05 -62.95 -4.9 -62.95 -7.75 -61.1 -9.9" fill="none" stroke="#000000" stroke-linecap="round" stroke-linejoin="round" stroke-width="1.5"/>
  </g>
</svg>
