<?xml version="1.0" encoding="UTF-8" standalone="no"?>
<svg xmlns:xlink="http://www.w3.org/1999/xlink" height="71.8px" width="46.8px" xmlns="http://www.w3.org/2000/svg">
  <g transform="matrix(1.0, 0.0, 0.0, 1.0, 86.5, 5.4)">
    <path d="M-62.05 18.45 Q-64.6 15.75 -68.95 12.95 -77.45 7.45 -82.4 -4.65 L-85.75 -3.15 Q-84.15 19.5 -74.45 30.7 -77.3 29.7 -80.05 24.4 L-83.45 25.8 Q-80.5 31.5 -77.6 32.2 -75.85 32.6 -73.9 31.35 L-74.45 30.7 M-62.05 18.45 Q-62.55 16.5 -63.4 14.1 M-49.1 64.0 Q-50.35 64.8 -51.95 65.35 -57.6 66.65 -63.4 62.65 -67.75 59.8 -72.25 54.15 -73.95 51.95 -76.25 46.65 -79.4 39.2 -83.45 25.8" fill="none" stroke="#000000" stroke-linecap="round" stroke-linejoin="round" stroke-width="1.5"/>
    <path d="M-85.75 -3.15 Q-83.8 1.8 -81.05 5.75 -77.3 11.2 -72.35 14.35 -63.8 20.0 -62.65 24.45 -61.25 22.5 -62.05 18.45 M-63.4 14.1 L-60.05 12.7 -60.05 12.6 Q-48.8 21.8 -43.8 33.45 -40.8 40.7 -40.4 48.9 L-40.4 49.5 Q-40.3 52.5 -40.9 55.5 -42.85 62.1 -48.6 63.95 L-49.1 64.0 Q-45.75 61.85 -44.35 56.95 -43.65 53.9 -43.8 50.95 L-43.8 50.3 Q-44.2 42.25 -47.15 34.85 -51.0 26.0 -58.4 18.5 L-63.4 14.1 M-66.95 32.25 L-65.4 31.8 Q-62.0 31.1 -58.2 33.3 -53.5 36.3 -50.95 42.15 -48.5 47.95 -49.8 53.15 -50.8 56.65 -53.15 58.35 -54.1 59.05 -55.35 59.45 L-60.55 59.3 Q-62.2 58.75 -63.85 57.65 -68.2 54.6 -70.45 49.2 -71.55 46.7 -71.9 44.5 -72.3 41.6 -71.8 39.0 -70.9 33.85 -66.95 32.25" fill="none" stroke="#000000" stroke-linecap="round" stroke-linejoin="round" stroke-width="1.4000000000000001"/>
  </g>
</svg>
