<?xml version="1.0" encoding="UTF-8" standalone="no"?>
<svg xmlns:xlink="http://www.w3.org/1999/xlink" height="48.0px" width="58.95px" xmlns="http://www.w3.org/2000/svg">
  <g transform="matrix(1.0, 0.0, 0.0, 1.0, 90.75, 19.85)">
    <path d="M-53.3 4.95 Q-53.7 9.6 -58.4 10.55 -61.45 10.0 -62.45 6.7 L-53.3 4.95 M-60.4 17.25 L-60.05 14.95 -56.85 14.7 Q-58.2 21.0 -65.75 20.35 L-65.9 18.15 -66.65 18.1 -67.7 17.75 -67.7 17.9 -69.05 17.6 -69.85 19.8 Q-77.95 18.4 -76.55 12.2 L-74.0 12.95 -74.4 14.6 -71.5 15.45 -70.5 13.75 -66.95 14.2 -66.6 14.2 -65.5 14.45 -63.45 14.65 -63.6 16.55 -60.4 17.25 M-75.85 1.95 L-67.95 6.1 Q-70.1 9.0 -73.2 8.55 -77.4 6.45 -75.85 1.95" fill="#000000" fill-rule="evenodd" stroke="none"/>
    <path d="M-69.85 -10.7 L-70.3 -10.6 -74.6 -8.15 Q-80.85 -3.05 -82.45 4.75 -83.95 12.7 -79.95 19.05 L-76.9 22.7 -76.05 23.3 Q-75.1 24.0 -73.9 24.3 -71.5 24.85 -68.35 23.7 L-67.35 24.3 -64.95 25.4 Q-62.25 26.15 -59.6 25.0 -57.4 24.1 -55.35 22.35 -49.05 17.4 -47.45 9.5 -45.95 1.75 -49.85 -4.85 -51.2 -6.8 -53.1 -8.35 L-54.6 -9.4 -56.2 -10.0 -57.9 -10.2 -61.4 -9.5 -61.75 -9.4 Q-62.8 -10.2 -63.7 -10.6 -64.75 -11.1 -65.75 -11.2 -67.8 -11.6 -69.85 -10.7 L-72.15 -11.7 -70.3 -10.6 M-56.2 -10.0 L-55.9 -17.8 -57.3 -18.5 -61.9 -19.1 -65.75 -11.2 M-72.15 -11.7 L-74.35 -12.45 Q-79.1 -12.95 -83.65 -8.15 -88.0 -3.45 -89.45 3.9 -90.85 11.2 -88.7 16.95 -86.55 22.0 -82.3 23.2 L-81.3 23.35 Q-78.95 23.65 -76.9 22.7 M-53.1 -8.35 L-52.6 -8.5 Q-53.6 -9.15 -54.6 -9.4 M-59.6 25.0 L-58.75 25.65 Q-57.8 26.35 -56.55 26.65 L-54.2 27.35 Q-49.3 27.95 -44.9 23.2 -41.75 19.95 -40.15 15.6 L-41.15 15.4 -40.3 13.1 Q-39.5 10.5 -39.3 7.7 L-38.35 7.65 -38.35 7.1 Q-38.1 2.1 -39.85 -2.1 -42.0 -7.05 -45.95 -8.15 L-48.45 -9.0 -52.6 -8.5 M-38.35 7.65 Q-35.8 7.65 -32.55 10.35 L-35.25 18.75 Q-38.35 16.25 -40.15 15.6 M-82.3 23.2 L-79.95 23.85 Q-77.9 24.1 -76.05 23.3 M-73.9 24.3 Q-71.15 25.65 -67.35 24.3 M-64.95 25.4 Q-61.9 26.85 -58.75 25.65" fill="none" stroke="#000000" stroke-linecap="round" stroke-linejoin="round" stroke-width="1.5"/>
  </g>
</svg>
