<?xml version="1.0" encoding="UTF-8" standalone="no"?>
<svg xmlns:xlink="http://www.w3.org/1999/xlink" height="44.95px" width="139.7px" xmlns="http://www.w3.org/2000/svg">
  <g transform="matrix(1.0, 0.0, 0.0, 1.0, 80.85, -18.55)">
    <path d="M23.4 47.0 L23.4 49.9 Q23.75 54.7 29.75 55.65 L51.35 55.85 Q57.05 55.55 57.55 50.15 L57.85 35.05 Q57.05 30.65 51.45 30.0 L30.15 29.35 Q24.25 30.1 23.4 34.35 L23.4 37.35 23.4 47.0 Q15.9 46.5 12.2 47.15 L12.2 49.65 Q11.6 55.2 3.55 55.55 L-25.8 55.75 Q-33.15 54.75 -34.4 50.7 L-44.8 50.2 -44.9 50.2 Q-45.75 52.45 -47.0 54.4 L-48.35 56.4 Q-56.75 65.4 -68.05 61.15 -71.05 59.9 -73.75 57.05 -78.95 51.5 -79.65 42.8 -80.6 34.35 -76.7 27.7 -75.4 25.75 -73.8 24.3 -65.8 16.05 -53.05 22.1 -51.5 23.35 -49.85 25.15 -47.4 27.95 -45.8 31.55 L-34.4 32.2 -34.4 33.0 Q-32.95 29.1 -25.65 28.4 L-25.3 28.3 3.7 28.7 Q11.4 29.4 12.5 33.85 L12.4 37.15 Q19.65 38.3 23.4 37.35 M12.4 37.15 L12.2 47.15 M-34.55 38.65 L-34.4 38.65 -34.4 33.0 M-34.4 38.65 L-34.4 44.05 -34.4 50.7 M-45.8 31.55 L-45.85 31.55 -47.85 32.45 -47.8 32.75 -47.75 32.95 -46.7 37.7 Q-46.15 40.7 -46.15 43.45 -46.15 45.45 -46.45 47.3 L-46.65 48.2 -46.85 49.0 Q-45.85 49.6 -44.9 50.15 L-44.8 50.2 M-44.9 50.2 L-44.9 50.15" fill="none" stroke="#000000" stroke-linecap="round" stroke-linejoin="round" stroke-width="2.0"/>
    <path d="M-71.3 33.35 Q-68.9 30.2 -65.4 30.2 -61.85 30.25 -59.35 33.55 -56.75 36.75 -56.75 41.25 -56.65 45.85 -59.0 49.05 -61.55 52.25 -65.05 52.25 -68.65 52.2 -71.05 48.85 -73.6 45.65 -73.65 41.1 -73.65 36.6 -71.3 33.35 M-46.7 37.7 L-34.55 38.65 M-46.15 43.45 L-34.4 44.05" fill="none" stroke="#000000" stroke-linecap="round" stroke-linejoin="round" stroke-width="1.4000000000000001"/>
  </g>
</svg>
