<?xml version="1.0" encoding="UTF-8" standalone="no"?>
<svg xmlns:xlink="http://www.w3.org/1999/xlink" height="59.6px" width="165.55px" xmlns="http://www.w3.org/2000/svg">
  <g transform="matrix(1.0, 0.0, 0.0, 1.0, 88.9, 17.95)">
    <path d="M60.6 -1.45 L60.25 -9.05 58.0 1.15 58.1 1.0 57.4 3.6 55.2 12.7 54.35 27.05 56.9 35.75 59.75 24.9 61.45 13.2 61.45 12.9 61.45 12.7 61.5 12.7 60.6 -1.45 75.65 -16.05 66.55 7.6 73.85 8.5 66.35 17.95 69.6 40.65 59.75 24.9 M61.5 12.7 L61.55 12.7 61.6 12.75 61.7 12.75 61.5 12.85 61.5 13.0 61.45 13.2 M61.5 12.85 L61.45 12.9 61.5 13.0 M61.55 12.7 L61.5 12.85 61.6 12.75 M61.5 12.85 L61.5 12.7 M58.0 1.15 L57.4 3.6 M-39.9 38.05 L-52.35 26.05 -82.9 35.6 -83.15 35.6 -67.45 20.15 -87.9 7.55 -66.35 8.65 -75.45 -16.95 -54.25 5.95 -48.25 -8.95 -43.5 10.2 -31.85 15.4 -42.65 22.2 -39.9 38.05" fill="none" stroke="#000000" stroke-linecap="round" stroke-linejoin="round" stroke-width="2.0"/>
  </g>
</svg>
