<?xml version="1.0" encoding="UTF-8" standalone="no"?>
<svg xmlns:xlink="http://www.w3.org/1999/xlink" height="48.15px" width="137.95px" xmlns="http://www.w3.org/2000/svg">
  <g transform="matrix(1.0, 0.0, 0.0, 1.0, 66.0, -13.45)">
    <path d="M37.45 47.55 Q49.15 40.45 51.3 30.05 42.3 30.1 36.75 31.35 29.8 33.6 26.65 38.15 30.4 46.3 37.45 47.55 M22.0 35.75 Q31.2 25.65 58.95 25.6 52.5 44.4 35.65 52.1 25.4 46.0 22.0 35.75 M-33.25 27.55 Q-25.35 27.4 -13.4 29.95 -3.9 32.9 0.45 37.95 -4.6 46.45 -14.25 47.4 -30.2 38.9 -33.25 27.55 M-13.2 52.0 Q0.8 49.15 8.05 35.15 -13.95 22.65 -47.2 22.7 -34.9 40.3 -13.2 52.0" fill="none" stroke="#000000" stroke-linecap="round" stroke-linejoin="round" stroke-width="1.0"/>
    <path d="M16.2 27.85 L14.55 27.3 14.3 27.25 Q6.1 24.75 -0.65 21.5 -16.65 13.6 -65.0 14.55 -57.65 33.1 -35.65 50.0 -19.8 60.25 -2.8 55.5 1.25 54.55 5.75 53.95 10.65 55.4 14.85 60.6 L20.5 54.75 Q22.15 55.2 23.8 55.8 37.2 59.6 48.75 52.9 63.1 40.1 70.95 19.6 40.35 16.1 26.55 23.3 L21.8 25.65 Q21.45 25.85 21.15 26.0 L16.2 27.85" fill="none" stroke="#000000" stroke-linecap="round" stroke-linejoin="round" stroke-width="2.0"/>
  </g>
</svg>
