<?xml version="1.0" encoding="UTF-8" standalone="no"?>
<svg xmlns:xlink="http://www.w3.org/1999/xlink" height="64.85px" width="247.9px" xmlns="http://www.w3.org/2000/svg">
  <g transform="matrix(1.0, 0.0, 0.0, 1.0, 136.15, 9.35)">
    <path d="M110.35 42.7 L108.5 38.85 108.35 38.8 Q107.45 37.5 105.8 36.15 L105.6 36.1 105.35 35.85 104.7 35.45 102.45 34.0 101.7 33.65 Q98.55 31.95 95.75 34.75 L95.6 34.9 95.3 35.25 95.05 35.55 Q94.3 36.45 93.5 37.85 L92.5 39.6 Q90.9 42.6 90.15 44.9 L89.8 47.35 87.75 51.05 86.4 46.15 Q84.55 43.85 82.6 42.0 79.45 39.3 75.9 37.5 75.1 37.05 74.15 36.75 L72.35 36.05 Q68.05 34.65 63.85 33.75 L62.35 33.5 60.45 33.45 59.7 28.6 60.65 28.9 Q66.65 27.25 72.35 22.95 L76.85 19.15 77.8 18.2 78.35 17.65 Q83.4 12.15 86.6 5.2 L86.65 4.9 86.85 4.55 87.05 3.9 Q87.2 1.05 82.75 -1.95 L83.6 -2.35 M87.0 -3.85 L87.8 -4.2 89.55 -0.95 Q91.8 0.3 93.85 2.3 97.65 5.6 100.85 10.95 L100.9 11.1 Q101.05 11.1 101.05 11.2 L104.1 16.8 Q109.25 27.6 110.75 43.35 M-109.5 40.2 L-111.45 38.9 Q-115.75 36.6 -120.6 38.5 L-122.2 39.2 Q-122.95 39.45 -123.45 39.85 L-125.35 40.6 -125.75 40.85 -125.8 40.9 -126.25 41.1 Q-129.6 42.85 -131.2 44.45 -131.4 44.45 -131.4 44.6 L-135.15 49.4 Q-133.5 40.0 -129.9 32.3 -127.4 26.7 -123.9 21.95 -113.7 8.25 -100.65 2.55 L-100.6 2.55 -97.85 -0.9 -97.15 -0.9 M-93.45 1.65 L-92.75 2.0 Q-96.5 4.0 -96.9 6.45 M-96.95 6.75 L-96.95 7.15 Q-89.75 18.2 -74.4 24.6 -67.95 27.4 -61.2 28.6 L-56.35 29.3 -51.95 29.95 Q-50.4 30.75 -48.6 31.35 L-48.95 32.65 -49.15 32.8 Q-50.0 33.35 -53.1 33.65 L-59.05 34.1 -61.35 34.55 -69.5 36.35 -70.6 36.6 -74.15 37.55 -74.8 37.7 Q-83.9 40.25 -91.4 45.2 L-93.35 46.55 -97.05 49.4 -98.4 52.5 -98.45 52.8 -99.25 54.5 -102.3 51.0 -102.85 48.55 Q-104.1 46.3 -106.35 43.55 L-108.95 40.65" fill="none" stroke="#000000" stroke-linecap="round" stroke-linejoin="round" stroke-width="2.0"/>
    <path d="M83.6 -2.35 L81.85 -8.65 84.15 -6.9 Q86.35 -5.15 87.0 -3.85 L83.6 -2.35 M108.35 38.8 Q102.4 19.85 90.9 4.6 91.7 18.0 91.3 30.1 L90.85 37.4 90.15 44.9 M86.4 46.15 Q88.35 27.2 86.55 11.85 78.05 32.25 63.85 33.75 M-97.15 -0.9 Q-95.3 -2.7 -90.85 -4.85 L-89.9 -5.4 -89.75 -5.45 -89.8 -5.15 Q-91.1 -0.55 -93.45 1.65 M-97.05 49.4 Q-99.55 30.7 -96.3 15.1 -83.7 34.6 -61.35 34.55 M-131.2 44.45 Q-121.35 24.85 -102.9 8.3 -105.65 30.4 -102.85 48.55 M-95.1 0.5 L-97.15 -0.9" fill="none" stroke="#000000" stroke-linecap="round" stroke-linejoin="round" stroke-width="1.4000000000000001"/>
  </g>
</svg>
