<?xml version="1.0" encoding="UTF-8" standalone="no"?>
<svg xmlns:xlink="http://www.w3.org/1999/xlink" height="64.75px" width="133.65px" xmlns="http://www.w3.org/2000/svg">
  <g transform="matrix(1.0, 0.0, 0.0, 1.0, 69.85, 27.75)">
    <path d="M-41.8 -6.05 L-41.9 -7.2 Q-39.6 -16.25 -29.15 -21.5 -24.65 -23.7 -18.6 -25.3 -8.35 -28.15 10.5 -25.3 L15.7 -24.8 19.35 -24.05 20.85 -23.5 24.7 -22.85 29.65 -23.4 32.45 -23.75 36.55 -23.95 39.15 -23.65 39.25 -23.65 39.45 -23.6 39.7 -23.6 Q43.6 -23.0 46.7 -21.4 L47.35 -21.25 Q49.4 -20.3 48.85 -20.0 52.3 -19.45 54.4 -17.5 58.95 -13.15 61.6 -7.1 L62.2 -5.55 Q62.9 -3.15 62.75 -0.85 L62.55 1.55 Q62.25 3.2 61.4 4.85 61.75 5.95 61.6 6.75 61.5 9.1 59.5 10.35 58.0 11.3 56.3 11.5 L56.15 11.5 56.1 11.5 51.4 11.1 Q47.95 9.9 45.3 8.2 36.95 2.9 31.0 -5.75 27.1 -7.75 24.3 -5.65 16.9 8.9 5.6 12.05 -16.75 16.7 -33.3 8.6 L-34.15 9.0 -34.15 9.05 -34.6 9.35 -34.65 9.35 Q-57.7 24.15 -68.0 36.0 -69.55 32.25 -68.25 24.15 -67.4 20.55 -64.15 16.15 -58.3 8.2 -44.85 -2.45 L-44.85 -2.7 Q-44.05 -4.35 -42.0 -5.9 L-41.8 -6.05 -41.8 -5.8 -41.4 -3.65 Q-39.85 1.25 -35.75 6.1 L-35.55 6.3 -35.5 6.4 -33.9 8.1 M4.75 -20.55 Q-2.65 -21.9 -12.05 -20.45 -19.05 -19.4 -23.95 -15.5 L-24.0 -15.45 -25.9 -13.8 -26.9 -12.85 -29.45 -9.4 Q-31.7 -5.0 -29.25 -1.15 -26.45 4.0 -13.4 6.45 L1.95 6.0 Q5.15 5.25 7.75 3.6 11.25 1.65 13.95 -1.8 L14.9 -3.1 Q18.2 -9.0 17.1 -13.5 16.8 -14.65 16.15 -15.6 12.3 -19.25 4.75 -20.55 M48.85 -20.0 Q44.55 -20.35 41.25 -20.05 L38.3 -19.25 Q35.2 -18.2 34.45 -16.2 L34.25 -15.7 34.25 -15.6 34.05 -13.8 Q33.95 -11.5 35.1 -8.95 36.6 -5.45 42.1 -0.55 46.25 3.6 53.4 5.8 L57.3 6.45 Q60.05 6.8 61.4 4.85 M-33.65 8.2 L-33.3 8.6 M-34.6 9.35 L-34.35 9.05 -34.15 9.05" fill="none" stroke="#000000" stroke-linecap="round" stroke-linejoin="round" stroke-width="2.0"/>
    <path d="M-44.85 -2.45 Q-46.3 0.75 -43.6 5.4 -41.7 7.9 -39.65 9.0 L-38.5 9.35 Q-36.8 9.9 -35.0 9.35 L-34.65 9.35" fill="none" stroke="#000000" stroke-linecap="round" stroke-linejoin="round" stroke-width="1.0"/>
  </g>
</svg>
