<?xml version="1.0" encoding="UTF-8" standalone="no"?>
<svg xmlns:xlink="http://www.w3.org/1999/xlink" height="163.9px" width="230.35px" xmlns="http://www.w3.org/2000/svg">
  <g transform="matrix(1.0, 0.0, 0.0, 1.0, 115.2, 81.95)">
    <path d="M-41.8 -47.25 L-41.85 -47.35 -41.8 -47.35 -41.8 -47.25" fill="url(#gradient0)" fill-rule="evenodd" stroke="none"/>
    <path d="M61.6 -47.35 L61.55 -47.25 61.55 -47.35 61.6 -47.35 Q68.7 -56.55 67.45 -63.7 63.7 -84.85 37.25 -79.3 18.7 -69.55 20.4 -54.3 22.1 -39.05 42.0 -38.2 M95.0 -0.95 Q105.5 15.45 107.25 34.55 110.1 47.0 110.1 55.8 116.75 39.25 112.5 22.25 109.2 6.75 97.35 -10.5 88.4 -23.35 77.7 -32.65 L77.5 -32.8 Q69.85 -39.5 63.3 -41.15 M48.35 -32.85 Q41.2 -13.45 65.65 22.1 90.1 57.6 77.05 79.95 110.2 71.55 107.95 38.45 L107.25 34.55 M-41.85 -47.35 Q-54.8 -57.55 -49.8 -70.3 L-49.35 -71.45 Q-48.05 -74.35 -45.45 -76.35 -36.05 -83.7 -9.8 -79.3 11.8 -67.95 5.3 -50.8 0.15 -39.8 -17.5 -38.2 L-18.5 -38.15 Q-30.8 -37.2 -41.05 -46.55 L-41.75 -47.2 -41.8 -47.25 -41.85 -47.35 -41.8 -47.35 -41.8 -47.25 M-102.8 34.55 Q-109.55 54.95 -106.15 65.55 -128.6 31.65 -88.55 -10.5 -81.95 -17.7 -74.7 -23.75 -68.95 -28.55 -62.85 -32.65 L-62.55 -32.8 Q-52.6 -39.5 -44.25 -41.15 L-44.2 -41.1 Q-41.3 -33.55 -25.75 -32.85 L-25.7 -32.85 Q-20.6 -12.6 -47.95 24.7 -75.3 61.95 -65.1 80.95 -108.05 73.85 -103.85 38.45 L-102.8 34.55 -100.45 28.0 Q-92.25 7.75 -76.45 -6.5 -67.75 -14.35 -60.65 -21.5 L-60.4 -21.75 Q-54.85 -27.4 -50.25 -32.6" fill="none" stroke="#000000" stroke-linecap="round" stroke-linejoin="round" stroke-width="2.0"/>
  </g>
  <defs>
    <linearGradient gradientTransform="matrix(-0.0234, -0.0283, 0.009, -0.0075, -46.65, -58.4)" gradientUnits="userSpaceOnUse" id="gradient0" spreadMethod="pad" x1="-819.2" x2="819.2">
      <stop offset="0.0" stop-color="#8574d0"/>
      <stop offset="0.5137254901960784" stop-color="#6a85d6"/>
      <stop offset="1.0" stop-color="#7dc0f0"/>
    </linearGradient>
  </defs>
</svg>
