<?xml version="1.0" encoding="UTF-8" standalone="no"?>
<svg xmlns:xlink="http://www.w3.org/1999/xlink" height="84.35px" width="116.55px" xmlns="http://www.w3.org/2000/svg">
  <g transform="matrix(1.0, 0.0, 0.0, 1.0, 104.55, 6.75)">
    <path d="M-35.35 41.9 L-32.55 22.2 -21.3 26.15 -19.55 26.85 Q-22.35 30.1 -22.35 34.4 -22.35 39.45 -18.75 43.1 L-35.35 41.9 M-1.8 44.25 L-1.0 43.6 -0.95 43.4 Q2.7 39.95 2.7 34.95 L2.7 34.7 5.6 35.7 3.95 44.65 -1.0 44.3 -1.8 44.25" fill="#000000" fill-rule="evenodd" stroke="none"/>
    <path d="M-21.3 26.15 L-19.55 26.8 2.7 34.4 6.15 35.6 M-35.35 41.9 L-32.55 22.2 -21.3 26.15 -19.55 26.85 -19.55 26.8 M5.6 35.7 L2.7 34.7 2.7 34.95 Q2.7 39.95 -0.95 43.4 L-1.0 43.6 -1.8 44.25 -1.9 44.35 -4.0 44.35 M2.7 34.7 L2.7 34.4 M-16.75 43.3 L-18.75 43.1 Q-22.35 39.45 -22.35 34.4 -22.35 30.1 -19.55 26.85" fill="none" stroke="#000000" stroke-linecap="round" stroke-linejoin="round" stroke-width="1.4000000000000001"/>
    <path d="M6.15 35.6 L11.0 34.3 7.2 33.25 5.95 32.8 -36.95 16.0 -40.95 41.45 -35.35 41.9 -18.75 43.1 -18.65 43.15 -16.75 43.3 -16.7 43.3 -13.5 43.55 -9.8 43.9 -9.6 43.95 -7.05 44.1 -4.0 44.35 -2.1 44.45 -1.9 44.35 -1.0 44.3 3.95 44.65 5.6 35.7 6.15 35.6 M-1.8 44.25 L-1.0 44.3 M-88.25 22.2 L-82.75 23.65 -97.0 -5.75 -71.35 16.3 -71.2 13.15 -57.1 8.65 -56.35 8.5 -55.15 10.9 -23.85 -0.4 -25.4 1.65 -3.1 10.2 -0.55 13.4 6.95 32.65 7.2 33.25 M-25.4 1.65 L-31.15 8.85 -7.15 18.8 5.95 32.8 6.95 32.65 M-40.95 41.45 L-43.75 41.25 -37.4 63.45 -49.6 66.2 Q-43.55 71.65 -35.5 74.45 -27.45 77.25 -26.65 76.4 -26.55 69.5 -25.15 64.3 -24.0 59.85 -21.85 56.6 L-16.55 48.55 5.9 48.25 7.45 48.4 11.0 34.3 M5.9 48.25 L4.4 53.75 -24.3 65.15 -25.15 64.3 M-25.4 1.65 L-25.5 1.65 -23.85 -0.4 M-36.95 16.0 L-41.3 14.35 -35.1 7.0 -31.15 8.85 M-13.5 43.55 L-14.1 43.55 -16.7 43.3 M-55.15 10.9 L-48.2 24.35 -48.45 24.55 -43.75 41.25 M-88.8 22.0 L-90.15 21.65 -103.25 18.05 -103.55 18.0 -86.3 35.1 -71.7 36.2 -72.6 32.15 -72.6 31.75 -72.5 31.75 -72.2 27.75 -82.75 23.65 M-71.7 36.2 L-69.5 45.4 -64.9 65.5 -61.7 66.2 -49.6 66.2 M-48.45 24.55 L-52.6 26.7 -52.75 26.7 -65.85 30.1 -65.9 30.1 -72.5 31.75 -72.6 32.15 M-72.2 27.75 L-71.35 16.3 M-56.0 35.1 L-50.55 55.7 -62.95 56.9 -67.35 38.05 -56.0 35.1 M-69.5 45.4 L-81.5 46.85 -103.4 35.15 -86.3 35.1" fill="none" stroke="#000000" stroke-linecap="round" stroke-linejoin="round" stroke-width="2.0"/>
  </g>
</svg>
