<?xml version="1.0" encoding="UTF-8" standalone="no"?>
<svg xmlns:xlink="http://www.w3.org/1999/xlink" height="110.4px" width="131.45px" xmlns="http://www.w3.org/2000/svg">
  <g transform="matrix(1.0, 0.0, 0.0, 1.0, 69.2, 27.5)">
    <path d="M-67.7 -14.4 L-65.4 0.5 -62.45 -0.4 Q-57.2 -1.65 -50.9 -0.2 L-52.85 -14.8 Q-53.35 -26.8 -61.75 -26.45 -64.8 -26.7 -66.4 -25.15 -69.2 -22.45 -67.7 -14.4 M29.65 54.1 Q38.75 59.75 50.95 59.25 62.55 57.05 61.1 37.6 59.55 18.15 35.8 16.8 5.7 14.45 -24.95 18.8 -33.9 20.75 -39.2 23.85 -43.85 31.3 -39.05 49.35 -33.1 64.6 -24.9 65.55 -12.55 65.35 1.3 55.55 13.9 45.6 29.65 54.1 17.3 61.25 1.3 55.55 M55.45 40.75 Q55.7 48.05 53.6 50.2 L51.2 52.45 Q46.35 55.55 38.15 52.1 23.25 43.5 15.9 44.25 5.3 45.55 -3.45 51.8 -23.45 64.3 -28.5 52.9 -32.05 45.7 -33.7 34.75 -34.05 32.25 -33.4 30.2 -31.15 23.2 -16.65 21.4 14.3 19.05 44.9 23.05 56.0 25.6 55.45 40.75 M-39.2 23.85 Q-46.45 28.0 -46.55 32.2 L-44.95 44.05 Q-42.6 58.3 -33.4 64.45 -29.25 65.6 -24.9 65.55 M-65.4 0.5 L-57.15 52.1 Q-52.5 78.6 -19.75 79.55 L-2.4 78.9 Q1.85 78.05 3.45 76.35 L3.65 76.1 Q4.4 75.15 4.4 73.9 3.8 66.35 -2.75 67.3 L-3.3 67.4 -5.45 67.9 Q-11.95 70.25 -20.95 68.8 -28.3 67.9 -33.4 64.45 M2.6 81.15 Q10.3 83.0 25.75 80.3 32.45 79.25 34.35 75.2 35.5 72.75 34.9 69.3 34.3 63.4 15.8 63.3 8.0 63.55 3.15 64.8 11.85 68.45 9.55 75.55 L8.65 77.7 Q6.8 80.5 2.6 81.15 -0.55 80.4 -2.4 78.9 M-50.9 -0.2 L-46.55 32.2 M3.15 64.8 Q-0.7 65.75 -2.75 67.3" fill="none" stroke="#000000" stroke-linecap="round" stroke-linejoin="round" stroke-width="2.0"/>
  </g>
</svg>
