<?xml version="1.0" encoding="UTF-8" standalone="no"?>
<svg xmlns:xlink="http://www.w3.org/1999/xlink" height="37.55px" width="28.2px" xmlns="http://www.w3.org/2000/svg">
  <g transform="matrix(1.0, 0.0, 0.0, 1.0, 58.35, 11.0)">
    <path d="M-54.65 20.25 Q-58.3 15.7 -57.4 8.9 -56.65 2.35 -48.75 -1.95 L-32.7 -10.25 Q-33.8 -3.0 -31.75 5.4 -30.0 12.65 -31.9 17.55 -34.55 25.4 -50.2 23.15 -53.4 23.6 -56.1 25.8 -59.45 24.8 -54.65 20.25" fill="none" stroke="#000000" stroke-linecap="round" stroke-linejoin="round" stroke-width="1.5"/>
    <path d="M-51.9 8.1 L-50.4 15.0 Q-50.05 11.6 -48.6 8.65 -47.55 6.6 -45.9 4.75 L-45.2 1.8 M-48.6 8.65 L-41.6 4.8 M-50.5 18.05 L-50.4 15.0 M-50.0 17.4 L-38.2 14.35 M-45.9 4.75 Q-43.75 2.2 -40.5 0.2" fill="none" stroke="#000000" stroke-linecap="round" stroke-linejoin="round" stroke-opacity="0.50980395" stroke-width="1.5"/>
  </g>
</svg>
