<?xml version="1.0" encoding="UTF-8" standalone="no"?>
<svg xmlns:xlink="http://www.w3.org/1999/xlink" height="56.4px" width="66.0px" xmlns="http://www.w3.org/2000/svg">
  <g transform="matrix(1.0, 0.0, 0.0, 1.0, -19.15, 66.5)">
    <path d="M51.5 -41.1 Q51.25 -44.6 49.2 -50.25 45.85 -59.6 38.1 -65.5 31.2 -66.0 25.35 -56.0 16.2 -41.3 23.1 -35.55 36.45 -32.1 46.65 -35.6 48.9 -36.4 51.0 -37.5 51.6 -38.85 51.5 -41.1 L54.35 -41.45 Q56.75 -41.15 57.3 -38.2 65.8 -39.0 79.45 -34.85 86.5 -30.05 83.0 -24.25 79.5 -17.3 67.95 -11.25 58.2 -10.2 54.85 -16.8 51.2 -24.6 52.75 -30.35 L50.15 -29.95 Q46.4 -30.8 46.0 -32.9 45.75 -34.05 46.65 -35.6 M57.3 -38.2 L57.4 -37.05 Q57.65 -31.75 52.75 -30.35" fill="none" stroke="#000000" stroke-linecap="round" stroke-linejoin="round" stroke-width="2.0"/>
    <path d="M48.35 -34.0 L48.9 -33.65 Q51.05 -32.55 52.7 -35.15 54.35 -37.75 53.45 -39.65 M58.0 -34.45 Q66.3 -34.65 75.2 -29.25 M56.8 -32.05 Q60.7 -26.45 62.35 -20.5 M50.15 -38.45 Q48.65 -46.65 38.4 -55.65 M49.0 -38.15 Q44.7 -39.45 35.5 -39.9" fill="none" stroke="#000000" stroke-linecap="round" stroke-linejoin="round" stroke-width="1.0"/>
  </g>
</svg>
