<?xml version="1.0" encoding="UTF-8" standalone="no"?>
<svg xmlns:xlink="http://www.w3.org/1999/xlink" height="54.35px" width="126.65px" xmlns="http://www.w3.org/2000/svg">
  <g transform="matrix(1.0, 0.0, 0.0, 1.0, 58.0, 30.65)">
    <path d="M-18.35 -20.2 L-16.85 -24.0 -14.35 -23.95 -10.25 -17.45 Q-8.8 -15.55 -6.15 -15.4 L4.35 -14.7 Q7.25 -14.2 5.7 -12.1 L0.15 -3.85 Q-0.8 -1.8 -0.2 0.2 L2.25 9.25 Q2.25 11.65 0.15 11.0 L-1.95 10.3 -18.35 -20.2 M-10.3 7.6 Q-11.75 7.5 -13.15 8.45 L-22.7 14.05 Q-24.4 15.85 -24.75 13.6 L-27.25 3.95 Q-27.5 2.2 -29.1 0.1 L-35.45 -7.3 Q-38.05 -9.45 -33.7 -10.6 L-23.15 -13.65 -22.1 -13.9 -10.3 7.6 M54.25 7.9 L50.35 6.25 Q48.45 5.3 46.4 6.5 L37.45 11.15 Q35.75 12.75 35.65 10.65 L33.65 1.3 Q33.45 -0.45 32.15 -2.45 L26.45 -10.05 Q24.05 -12.45 28.3 -12.9 L35.45 -14.1 54.25 7.9 M41.05 -16.3 L41.55 -17.0 44.7 -23.55 Q45.85 -25.35 46.9 -23.2 L50.2 -17.0 Q51.25 -15.35 53.8 -14.75 L62.55 -13.1 Q65.5 -12.8 63.5 -10.6 L58.7 -3.85 Q57.6 -2.15 58.25 -0.2 L59.9 7.35 41.05 -16.3" fill="#ffffff" fill-opacity="0.32941177" fill-rule="evenodd" stroke="none"/>
    <path d="M-1.95 10.3 L-8.9 7.9 -10.3 7.6 -22.1 -13.9 Q-20.65 -14.55 -19.85 -16.4 L-18.35 -20.2 -1.95 10.3 M35.45 -14.1 L38.45 -14.65 Q39.95 -14.9 41.05 -16.3 L59.9 7.35 60.05 8.05 Q59.8 10.1 58.15 9.55 L54.25 7.9 35.45 -14.1" fill="#ffffff" fill-opacity="0.84705883" fill-rule="evenodd" stroke="none"/>
    <path d="M-18.35 -20.2 L-16.85 -24.0 -14.35 -23.95 -10.25 -17.45 Q-8.8 -15.55 -6.15 -15.4 L4.35 -14.7 Q7.25 -14.2 5.7 -12.1 L0.15 -3.85 Q-0.8 -1.8 -0.2 0.2 L2.25 9.25 Q2.25 11.65 0.15 11.0 L-1.95 10.3 -8.9 7.9 -10.3 7.6 Q-11.75 7.5 -13.15 8.45 L-22.7 14.05 Q-24.4 15.85 -24.75 13.6 L-27.25 3.95 Q-27.5 2.2 -29.1 0.1 L-35.45 -7.3 Q-38.05 -9.45 -33.7 -10.6 L-23.15 -13.65 -22.1 -13.9 Q-20.65 -14.55 -19.85 -16.4 L-18.35 -20.2 M27.8 -1.5 Q23.7 -7.4 19.65 -11.2 18.9 -12.1 18.95 -12.75 L18.95 -12.9 Q18.95 -14.45 22.4 -14.95 L36.3 -17.4 42.95 -27.3 Q43.9 -29.1 45.3 -28.9 46.05 -28.85 47.15 -27.35 L54.2 -18.2 Q56.4 -17.05 65.65 -15.1 67.85 -14.3 67.9 -12.6 L67.3 -10.65 62.3 -2.05 Q62.65 6.35 63.7 11.3 63.75 14.55 60.2 13.35 54.25 10.8 51.3 10.15 48.15 8.4 45.65 10.35 39.8 13.95 35.9 15.5 L33.7 16.0 Q32.05 15.9 31.25 14.2 L29.85 4.35 Q19.4 -0.4 5.0 2.85 5.8 8.85 6.75 12.65 7.1 16.2 2.75 15.0 -4.3 12.75 -7.55 12.15 -11.05 10.6 -13.75 12.75 -19.95 17.0 -24.05 18.7 -27.4 20.45 -29.0 17.5 L-31.75 3.7 -34.25 0.45 -54.2 22.95 Q-58.45 21.8 -56.75 18.05 L-37.75 -3.55 Q-40.15 -6.05 -42.45 -7.95 -44.9 -10.5 -39.95 -12.1 L-25.55 -16.15 -18.95 -27.85 Q-17.0 -31.55 -14.25 -28.55 L-5.8 -19.25 Q-3.1 -18.25 7.85 -17.25 12.2 -16.4 10.05 -12.45 L4.45 -2.15 Q17.15 -5.9 27.8 -1.5 L29.35 0.85 29.85 4.35 M54.25 7.9 L50.35 6.25 Q48.45 5.3 46.4 6.5 L37.45 11.15 Q35.75 12.75 35.65 10.65 L33.65 1.3 Q33.45 -0.45 32.15 -2.45 L26.45 -10.05 Q24.05 -12.45 28.3 -12.9 L35.45 -14.1 38.45 -14.65 Q39.95 -14.9 41.05 -16.3 L41.55 -17.0 44.7 -23.55 Q45.85 -25.35 46.9 -23.2 L50.2 -17.0 Q51.25 -15.35 53.8 -14.75 L62.55 -13.1 Q65.5 -12.8 63.5 -10.6 L58.7 -3.85 Q57.6 -2.15 58.25 -0.2 L59.9 7.35 60.05 8.05 Q59.8 10.1 58.15 9.55 L54.25 7.9 M-34.25 0.45 L-36.65 -2.35 -37.75 -3.55 M4.45 -2.15 L5.0 2.85" fill="none" stroke="#000000" stroke-linecap="round" stroke-linejoin="round" stroke-width="1.5"/>
  </g>
</svg>
