<?xml version="1.0" encoding="UTF-8" standalone="no"?>
<svg xmlns:xlink="http://www.w3.org/1999/xlink" height="123.25px" width="112.4px" xmlns="http://www.w3.org/2000/svg">
  <g transform="matrix(1.0, 0.0, 0.0, 1.0, 82.1, 53.75)">
    <path d="M-72.75 -0.5 L-73.4 -0.6 -71.3 -6.55 -53.4 -3.45 -55.5 2.0 -56.65 2.1 -58.35 2.05 -61.7 1.45 -68.65 0.25 -72.75 -0.5 M-58.6 14.25 L-56.8 15.35 Q-49.15 19.9 -45.3 33.15 -43.05 45.3 -44.9 55.85 -47.45 68.5 -60.25 68.45 -62.85 68.75 -65.8 67.6 -60.9 68.95 -56.35 64.6 -51.05 56.85 -52.35 41.75 -54.55 27.0 -61.25 19.65 -66.8 15.15 -74.7 16.4 -73.95 15.8 -73.05 15.3 -72.15 14.7 -71.15 14.4 -70.0 13.95 -68.75 13.85 L-68.6 13.85 Q-66.35 13.65 -63.8 14.4 L-64.2 17.0 Q-62.35 18.8 -59.05 17.0 L-58.6 14.25" fill="#263035" fill-rule="evenodd" stroke="none"/>
    <path d="M-72.75 -0.5 L-68.65 0.25 -71.15 14.4 Q-72.15 14.7 -73.05 15.3 -73.95 15.8 -74.7 16.4 L-75.75 17.4 Q-74.9 9.0 -72.75 -0.5 M-61.7 1.45 L-58.35 2.05 -56.65 2.1 -58.6 14.25 -59.05 17.0 Q-62.35 18.8 -64.2 17.0 L-63.8 14.4 -61.7 1.45 M-72.9 26.15 Q-69.5 22.2 -64.45 28.2 -59.6 37.35 -59.85 48.65 -60.2 57.15 -65.0 58.4 -67.2 58.6 -69.0 57.15 -75.6 49.75 -75.6 34.75 -75.45 29.25 -72.9 26.15 M-70.2 50.6 L-68.85 51.75 -68.55 53.45 Q-68.65 54.45 -67.5 54.9 -66.35 55.25 -66.15 53.75 -66.15 52.8 -67.1 52.45 L-67.7 50.2 -70.2 50.6 M-73.45 33.75 Q-72.4 36.65 -70.6 37.15 L-70.1 43.85 Q-69.45 47.05 -67.05 47.4 -64.5 47.5 -64.25 44.5 -64.75 41.85 -67.7 40.65 L-68.75 33.55 -73.45 33.75" fill="#b8b8b8" fill-rule="evenodd" stroke="none"/>
    <path d="M29.3 -44.0 Q29.2 -45.0 28.45 -45.85 27.65 -46.75 25.2 -48.15 8.15 -54.4 -14.6 -52.15 -36.7 -50.15 -50.75 -36.85 -64.45 -24.65 -71.3 -6.55 L-73.4 -0.6 -72.75 -0.5 Q-74.9 9.0 -75.75 17.4 -76.9 18.5 -77.7 19.9 L-78.65 21.8 -78.65 22.05 -79.05 23.3 Q-82.45 34.05 -80.15 47.2 -76.95 60.6 -69.4 65.95 -67.55 67.15 -65.8 67.6 -62.85 68.75 -60.25 68.45 -47.45 68.5 -44.9 55.85 -43.05 45.3 -45.3 33.15 -49.15 19.9 -56.8 15.35 L-58.6 14.25 -56.65 2.1 -55.5 2.0 -53.4 -3.45 Q-48.1 -15.85 -38.15 -26.85 -24.05 -41.95 0.55 -44.05 18.2 -45.15 29.05 -42.0 L29.3 -44.0" fill="none" stroke="#000000" stroke-linecap="round" stroke-linejoin="round" stroke-width="2.0"/>
    <path d="M-71.3 -6.55 L-56.7 -3.85 Q-50.95 -17.3 -39.95 -30.1 -28.3 -42.15 -7.25 -46.15 10.2 -49.05 29.3 -44.0 M-53.4 -3.45 L-56.7 -3.85 Q-57.9 -0.75 -58.35 2.05 L-56.65 2.1 M-60.25 68.45 Q-52.95 67.7 -50.2 59.1 -47.0 48.35 -48.95 37.75 -51.35 24.55 -58.95 16.45 L-59.05 17.0 Q-62.35 18.8 -64.2 17.0 L-63.8 14.4 Q-66.35 13.65 -68.6 13.85 L-68.75 13.85 Q-70.0 13.95 -71.15 14.4 -72.15 14.7 -73.05 15.3 -73.95 15.8 -74.7 16.4 -66.8 15.15 -61.25 19.65 -54.55 27.0 -52.35 41.75 -51.05 56.85 -56.35 64.6 -60.9 68.95 -65.8 67.6 M-58.6 14.25 L-58.95 16.45 M-72.75 -0.5 L-68.65 0.25 -61.7 1.45 -58.35 2.05 M-74.7 16.4 L-75.75 17.4 M-68.6 13.85 L-63.55 13.2 -61.7 1.45 M-63.8 14.4 L-63.55 13.2 M-71.15 14.4 L-68.65 0.25 M-72.9 26.15 Q-69.5 22.2 -64.45 28.2 -59.6 37.35 -59.85 48.65 -60.2 57.15 -65.0 58.4 -67.2 58.6 -69.0 57.15 -75.6 49.75 -75.6 34.75 -75.45 29.25 -72.9 26.15 M-73.45 33.75 L-68.75 33.55 -67.7 40.65 Q-64.75 41.85 -64.25 44.5 -64.5 47.5 -67.05 47.4 -69.45 47.05 -70.1 43.85 L-70.6 37.15 Q-72.4 36.65 -73.45 33.75 M-70.2 50.6 L-67.7 50.2 -67.1 52.45 Q-66.15 52.8 -66.15 53.75 -66.35 55.25 -67.5 54.9 -68.65 54.45 -68.55 53.45 L-68.85 51.75 -70.2 50.6" fill="none" stroke="#000000" stroke-linecap="round" stroke-linejoin="round" stroke-width="1.0"/>
  </g>
</svg>
