<?xml version="1.0" encoding="UTF-8" standalone="no"?>
<svg xmlns:xlink="http://www.w3.org/1999/xlink" height="40.35px" width="36.25px" xmlns="http://www.w3.org/2000/svg">
  <g transform="matrix(1.0, 0.0, 0.0, 1.0, 61.05, 14.35)">
    <path d="M-30.55 18.35 Q-35.6 24.35 -42.75 24.95 -49.95 25.55 -55.0 20.35 -60.05 15.2 -60.05 7.25 -60.05 -0.65 -55.0 -6.7 -49.95 -12.7 -42.75 -13.3 -35.6 -13.9 -30.55 -8.7 -28.55 -6.65 -27.35 -4.2 L-28.25 -5.3 Q-31.7 -8.8 -36.55 -8.4 -41.4 -8.0 -44.85 -3.9 -48.25 0.15 -48.25 5.5 -48.25 10.9 -44.85 14.4 -41.4 17.9 -36.55 17.5 -31.7 17.1 -28.25 13.0 -26.85 11.35 -25.95 9.4 -27.1 14.3 -30.55 18.35 M-34.05 -4.95 L-30.6 -1.0 -25.8 -2.0 -28.15 3.2 -26.25 8.15 -31.1 7.05 -34.85 11.5 -35.45 5.75 -39.7 3.4 -35.4 0.8 -34.05 -4.95" fill="none" stroke="#000000" stroke-linecap="round" stroke-linejoin="round" stroke-width="2.0"/>
  </g>
</svg>
