<?xml version="1.0" encoding="UTF-8" standalone="no"?>
<svg xmlns:xlink="http://www.w3.org/1999/xlink" height="67.3px" width="56.1px" xmlns="http://www.w3.org/2000/svg">
  <g transform="matrix(1.0, 0.0, 0.0, 1.0, 79.75, 16.65)">
    <path d="M-42.8 38.75 L-42.5 41.5 Q-53.85 37.25 -62.1 35.25 L-61.35 32.8 Q-53.0 34.15 -42.8 38.75 M-63.05 30.45 L-64.4 32.45 Q-72.95 26.25 -75.35 21.0 L-73.45 19.45 Q-70.3 25.0 -63.05 30.45" fill="#ffffff" fill-rule="evenodd" stroke="none"/>
    <path d="M-73.45 19.45 Q-67.2 14.7 -59.05 11.75 -60.2 8.6 -60.1 4.85 -59.9 -3.05 -54.55 -9.0 -49.3 -14.9 -41.8 -15.55 -34.3 -16.25 -28.9 -11.1 -26.95 -9.2 -25.65 -6.9 -28.95 -9.85 -33.4 -9.45 -38.0 -9.1 -41.3 -5.4 -44.65 -1.8 -44.7 3.1 -44.75 8.0 -41.5 11.2 -38.25 14.45 -33.55 14.15 -28.8 13.8 -25.45 10.1 L-24.65 9.1 Q-26.05 13.0 -29.0 16.35 -34.5 22.45 -42.2 22.9 L-43.65 23.0 Q-43.65 30.85 -42.8 38.75 L-42.5 41.5 -41.3 49.65 Q-53.6 43.2 -63.65 41.4 L-62.1 35.25 -61.35 32.8 Q-59.9 28.2 -57.75 23.65 -60.75 27.1 -63.05 30.45 L-64.4 32.45 -66.4 35.75 Q-75.7 30.05 -78.75 24.0 -77.15 22.35 -75.35 21.0 L-73.45 19.45 M-57.75 23.65 L-53.8 19.25 -55.05 18.05 Q-57.8 15.25 -59.05 11.75 M-43.65 23.0 Q-49.5 22.9 -53.8 19.25" fill="none" stroke="#000000" stroke-linecap="round" stroke-linejoin="round" stroke-width="2.0"/>
  </g>
</svg>
