<?xml version="1.0" encoding="UTF-8" standalone="no"?>
<svg xmlns:xlink="http://www.w3.org/1999/xlink" height="60.9px" width="131.2px" xmlns="http://www.w3.org/2000/svg">
  <g transform="matrix(1.0, 0.0, 0.0, 1.0, 46.45, 22.05)">
    <path d="M26.4 -4.1 L27.9 -3.95 32.3 -3.4 35.2 -2.95 38.0 -2.4 Q49.45 -0.1 57.6 4.35 60.6 7.9 60.95 12.8 51.4 10.0 40.1 8.6 L28.45 7.6 Q0.3 6.05 -37.2 12.2 L-45.4 13.6 Q-45.55 11.1 -45.15 8.8 -44.75 6.55 -43.95 5.25 L-37.55 3.2 Q-13.7 -3.85 18.55 -4.7 L26.4 -4.1" fill="#ffffff" fill-rule="evenodd" stroke="none"/>
    <path d="M35.2 -2.95 L32.3 -3.4 27.9 -3.95 26.4 -4.1 Q26.1 -12.15 23.55 -19.9 29.8 -18.5 35.3 -16.35 37.65 -9.0 38.0 -2.45 L35.2 -2.95 M28.45 7.6 L40.1 8.6 Q51.5 19.2 58.55 29.75 L57.5 29.6 48.4 29.1 Q39.75 17.85 28.45 7.6" fill="#ffffff" fill-opacity="0.4392157" fill-rule="evenodd" stroke="none"/>
    <path d="M-43.95 5.25 Q-42.75 -3.35 -38.6 -6.65 -24.85 -14.7 -10.1 -18.2 4.65 -21.75 17.0 -20.9 39.95 -18.15 53.65 -5.6 57.9 -0.05 57.6 4.35 M60.95 12.8 L69.6 22.0 Q73.05 25.7 78.2 30.05 L83.65 34.55 Q84.75 38.35 73.7 36.15 49.15 28.7 18.65 35.25 -11.85 41.8 -26.25 32.0 -37.85 23.05 -45.4 13.6" fill="none" stroke="#000000" stroke-linecap="round" stroke-linejoin="round" stroke-opacity="0.7490196" stroke-width="2.0"/>
    <path d="M57.6 4.35 Q60.6 7.9 60.95 12.8 24.55 2.05 -37.2 12.2 L-45.4 13.6 Q-45.55 11.1 -45.15 8.8 -44.75 6.55 -43.95 5.25 L-37.55 3.2 Q-13.7 -3.85 18.55 -4.7 43.2 -3.5 57.6 4.35" fill="none" stroke="#000000" stroke-linecap="round" stroke-linejoin="round" stroke-width="2.0"/>
  </g>
</svg>
