<?xml version="1.0" encoding="UTF-8" standalone="no"?>
<svg xmlns:xlink="http://www.w3.org/1999/xlink" height="87.65px" width="188.5px" xmlns="http://www.w3.org/2000/svg">
  <g transform="matrix(1.0, 0.0, 0.0, 1.0, 0.0, 43.8)">
    <path d="M38.5 -19.05 Q28.6 -14.7 30.8 -8.0 31.7 -5.2 33.0 -3.2 34.0 -1.7 35.25 -0.5 L37.6 1.1 Q41.45 3.15 47.25 8.0 L49.7 10.1 Q53.4 13.35 54.5 18.0 55.2 21.1 54.85 24.7 L54.75 25.5 54.0 28.95 Q52.75 33.85 49.75 37.5 46.6 41.0 41.75 43.35 L40.5 43.85 41.55 41.8 Q44.0 35.5 43.3 30.45 42.05 22.7 35.45 20.85 L25.1 18.1 Q2.85 11.9 0.5 -5.6 -2.7 -23.55 14.25 -34.8 L15.15 -35.45 15.6 -35.65 15.65 -35.7 Q20.65 -38.95 25.15 -40.75 36.45 -44.75 43.7 -43.5 51.6 -40.9 49.95 -31.0 48.9 -25.35 46.05 -22.25 43.15 -19.35 38.5 -19.05 M162.25 0.6 L162.35 0.35 162.7 -0.7 162.85 -1.15 163.0 -1.7 163.2 -2.35 Q163.75 -4.05 163.9 -5.3 164.5 -9.3 162.0 -13.35 159.3 -17.3 154.8 -17.65 L151.4 -17.85 Q148.95 -18.6 150.85 -24.0 151.85 -33.7 145.25 -39.55 152.2 -40.35 158.95 -38.35 165.15 -36.6 171.4 -32.35 L176.55 -28.05 Q180.45 -24.45 183.75 -20.05 187.65 -14.2 188.35 -8.2 188.85 -3.55 187.4 1.25 L187.15 2.2 187.1 2.5 186.35 4.55 185.55 6.1 183.2 9.25 182.95 9.5 180.95 11.7 Q176.8 15.7 175.25 20.1 173.95 23.7 174.4 27.65 175.6 30.75 178.1 34.6 171.5 33.15 165.55 25.9 156.3 15.15 159.45 7.75 161.35 3.65 162.25 0.6" fill="#4f2a6b" fill-rule="evenodd" stroke="none"/>
  </g>
</svg>
