<?xml version="1.0" encoding="UTF-8" standalone="no"?>
<svg xmlns:xlink="http://www.w3.org/1999/xlink" height="89.65px" width="190.55px" xmlns="http://www.w3.org/2000/svg">
  <g transform="matrix(1.0, 0.0, 0.0, 1.0, 99.85, 24.85)">
    <path d="M51.85 35.4 L52.1 35.9 51.8 35.45 51.85 35.4 M-43.95 44.65 L-43.95 44.7 -44.05 45.45 -43.95 44.65" fill="#4f2a6b" fill-rule="evenodd" stroke="none"/>
    <path d="M62.2 -3.15 Q66.55 -12.35 60.15 -18.4 53.4 -20.4 46.45 -19.6 53.05 -13.75 52.05 -4.05 50.15 1.35 52.6 2.1 L56.0 2.3 Q60.5 2.65 63.2 6.6 65.7 10.65 65.1 14.65 L64.4 17.6 64.2 18.25 64.05 18.8 63.9 19.25 63.55 20.3 63.45 20.55 Q62.55 23.6 60.65 27.7 57.5 35.1 66.75 45.85 72.7 53.1 79.3 54.55 76.8 50.7 75.6 47.6 75.15 43.65 76.45 40.05 72.0 41.5 71.7 44.6 M60.15 -18.4 Q66.35 -16.65 72.6 -12.4 75.35 -10.4 77.75 -8.1 81.65 -4.5 84.95 -0.1 88.85 5.75 89.55 11.75 90.05 16.4 88.6 21.2 L88.35 22.15 88.3 22.45 87.55 24.5 86.75 26.05 84.4 29.2 84.15 29.45 82.15 31.65 Q78.0 35.65 76.45 40.05 M89.55 11.75 Q88.2 14.3 79.45 13.25 M84.4 29.2 Q82.2 26.05 74.35 28.05 M77.75 -8.1 Q81.35 -2.8 73.95 3.15 M-44.05 45.45 L-44.8 48.9 Q-46.05 53.8 -49.05 57.45 -52.2 60.95 -57.05 63.3 L-58.3 63.8 -57.25 61.75 Q-54.8 55.45 -55.5 50.4 -56.75 42.65 -63.35 40.8 L-73.7 38.05 Q-95.95 31.85 -98.3 14.35 -101.5 -3.6 -84.55 -14.85 L-83.65 -15.5 -83.2 -15.7 -83.15 -15.75 Q-78.15 -19.0 -73.65 -20.8 -62.35 -24.8 -55.1 -23.55 -47.2 -20.95 -48.85 -11.05 -49.9 -5.4 -52.75 -2.3 -55.65 0.6 -60.3 0.9 -70.2 5.25 -68.0 11.95 -67.1 14.75 -65.8 16.75 L-63.55 19.45 -61.2 21.05 Q-57.35 23.1 -51.55 27.95 L-49.1 30.05 Q-45.4 33.3 -44.3 37.95 -43.6 41.05 -43.95 44.65 L-44.05 45.45" fill="none" stroke="#000000" stroke-linecap="round" stroke-linejoin="round" stroke-width="2.0"/>
    <path d="M-73.65 -20.8 Q-67.5 -20.65 -64.35 -15.7 -61.2 -10.7 -63.3 -3.05 M-70.4 38.95 Q-63.55 36.7 -62.65 31.1 M-57.65 44.7 Q-55.85 44.55 -52.2 40.65 M-55.4 53.3 Q-52.75 51.6 -50.5 53.65 M-98.85 8.05 Q-90.8 5.95 -75.1 11.15 M-92.55 27.4 Q-82.15 28.8 -73.4 22.85 M-88.3 -12.15 Q-78.15 -11.05 -72.65 2.3" fill="none" stroke="#000000" stroke-linecap="round" stroke-linejoin="round" stroke-width="2.0"/>
  </g>
</svg>
